<svg class="poloto" height="500" viewBox="0 0 800 500" width="800" xmlns="http://www.w3.org/2000/svg">
<rect class="poloto_background" fill="white" height="500" width="800" x="0" y="0"/>
<style>
.poloto {
font-family: "Arial";
stroke-width:2;
}
.poloto_text{fill: var(--poloto_fg_color,black);  }
.poloto_axis_lines{stroke: var(--poloto_fg_color,black);stoke-width:3;fill:none}
.poloto_background{fill: var(--poloto_bg_color,aliceblue); }
.poloto0stroke{stroke:  var(--poloto_color0,blue); }
.poloto1stroke{stroke:  var(--poloto_color1,red); }
.poloto2stroke{stroke:  var(--poloto_color2,green); }
.poloto3stroke{stroke:  var(--poloto_color3,gold); }
.poloto4stroke{stroke:  var(--poloto_color4,aqua); }
.poloto5stroke{stroke:  var(--poloto_color5,brown); }
.poloto6stroke{stroke:  var(--poloto_color6,lime); }
.poloto7stroke{stroke:  var(--poloto_color7,chocolate); }
.poloto0fill{fill:var(--poloto_color0,blue);}
.poloto1fill{fill:var(--poloto_color1,red);}
.poloto2fill{fill:var(--poloto_color2,green);}
.poloto3fill{fill:var(--poloto_color3,gold);}
.poloto4fill{fill:var(--poloto_color4,aqua);}
.poloto5fill{fill:var(--poloto_color5,brown);}
.poloto6fill{fill:var(--poloto_color6,lime);}
.poloto7fill{fill:var(--poloto_color7,chocolate);}
</style>
<text alignment-baseline="start" class="poloto_text" text-anchor="middle" x="150" y="440">
0e0
</text>
<text alignment-baseline="start" class="poloto_text" text-anchor="middle" x="212.65665" y="440">
5e3
</text>
<text alignment-baseline="start" class="poloto_text" text-anchor="middle" x="275.3133" y="440">
1e4
</text>
<text alignment-baseline="start" class="poloto_text" text-anchor="middle" x="337.9699" y="440">
1.5e4
</text>
<text alignment-baseline="start" class="poloto_text" text-anchor="middle" x="400.62656" y="440">
2e4
</text>
<text alignment-baseline="start" class="poloto_text" text-anchor="middle" x="463.2832" y="440">
2.5e4
</text>
<text alignment-baseline="start" class="poloto_text" text-anchor="middle" x="525.9398" y="440">
3e4
</text>
<text alignment-baseline="start" class="poloto_text" text-anchor="middle" x="588.59644" y="440">
3.5e4
</text>
<text alignment-baseline="middle" class="poloto_text" text-anchor="end" x="120" y="400">
5e-3
</text>
<text alignment-baseline="middle" class="poloto_text" text-anchor="end" x="120" y="323.4262">
1e-2
</text>
<text alignment-baseline="middle" class="poloto_text" text-anchor="end" x="120" y="246.85245">
1.5e-2
</text>
<text alignment-baseline="middle" class="poloto_text" text-anchor="end" x="120" y="170.27869">
2e-2
</text>
<text alignment-baseline="middle" class="poloto_text" font-size="large" text-anchor="start" x="675" y="100">
bench
</text>
<line class="poloto0stroke" x1="680" x2="730" y1="81.25" y2="81.25"/>
<polyline class="poloto0stroke" fill="none" points="150,399.9999 151.25313,399.69135 152.50627,399.29477 153.7594,398.98907 155.01253,398.3839 156.26567,398.09097 157.5188,397.74847 158.77193,397.3629 160.02505,396.91412 161.2782,396.4131 162.53133,396.00787 163.78445,395.78125 165.0376,395.4435 166.29073,395.0478 167.54385,394.63434 168.797,393.99713 170.05013,393.6404 171.30325,393.2435 172.5564,392.81604 173.80952,392.37842 175.06265,391.91235 176.3158,391.8067 177.56892,391.33218 178.82205,390.94037 180.0752,390.5416 181.32832,390.1206 182.58145,389.77582 183.8346,389.39926 185.08772,388.95715 186.34085,388.54993 187.59398,388.16 188.84712,387.74234 190.10025,387.06638 191.35338,386.65012 192.6065,386.43106 193.85965,385.9542 195.11278,385.30743 196.3659,385.21204 197.61905,384.72714 198.87218,384.16867 200.1253,383.83026 201.37845,384.0262 202.63158,383.32727 203.8847,383.22357 205.13785,382.57706 206.39098,382.37515 207.6441,381.69443 208.89725,381.3396 210.15038,380.9503 211.4035,380.39468 212.65665,380.14392 213.90977,379.9237 215.1629,379.49557 216.41605,379.0805 217.66917,378.4846 218.9223,378.137 220.17545,377.8253 221.42856,377.4222 222.6817,377.0777 223.93484,376.46973 225.18796,375.88367 226.4411,375.32867 227.69424,374.93466 228.94736,374.3939 230.2005,374.2237 231.45363,373.95935 232.70676,373.484 233.9599,372.6826 235.21303,372.33923 236.46616,371.89975 237.7193,371.17264 238.97243,370.60004 240.22556,370.29602 241.4787,369.83487 242.73183,369.3838 243.98495,368.98883 245.2381,368.54858 246.49123,368.12766 247.74435,367.35687 248.9975,366.9336 250.25063,366.54364 251.50375,365.95627 252.7569,366.26944 254.01003,365.60107 255.26315,365.4486 256.5163,365.1818 257.7694,364.6002 259.02255,364.3495 260.2757,364.0539 261.5288,363.59003 262.78195,363.15045 264.0351,362.58203 265.2882,362.2944 266.54135,361.46255 267.7945,361.4357 269.0476,360.8872 270.30075,360.62274 271.5539,360.2241 272.807,359.8104 274.06015,359.48358 275.3133,359.07083 276.5664,358.5987 277.81955,358.08597 279.0727,357.58777 280.3258,357.24658 281.57895,356.9127 282.8321,356.75198 284.0852,356.4479 285.33835,355.9183 286.5915,355.38602 287.8446,354.98386 289.09775,354.85843 290.3509,354.21103 291.604,353.86404 292.85712,353.35223 294.1103,353.15915 295.3634,352.6406 296.61652,352.50043 297.8697,351.99536 299.1228,351.57224 300.37592,351.12488 301.6291,350.57465 302.8822,350.22647 304.1353,349.79852 305.3885,349.47488 306.6416,348.98642 307.8947,348.6321 309.1479,348.26465 310.401,347.7974 311.6541,347.4464 312.90726,346.86816 314.1604,346.65222 315.4135,345.79065 316.66666,345.56815 317.9198,345.02652 319.1729,344.64166 320.42606,344.2133 321.6792,343.87836 322.9323,342.7935 324.18546,342.5681 325.4386,342.31293 326.6917,341.41724 327.94485,341.0343 329.198,340.7002 330.4511,340.251 331.70425,339.5986 332.9574,339.40207 334.2105,338.7757 335.46365,338.51932 336.7168,338.35895 337.9699,337.6112 339.22305,337.24768 340.4762,336.63812 341.7293,336.15433 342.98245,335.69305 344.2356,335.39435 345.4887,334.8868 346.74185,334.29453 347.995,334.1862 349.2481,333.77155 350.50125,333.2652 351.7544,332.71686 353.0075,332.08264 354.26065,331.65808 355.5138,332.53592 356.7669,332.5488 358.02005,331.88065 359.2732,331.65607 360.5263,331.1749 361.77945,331.0503 363.0326,330.56738 364.2857,330.26498 365.53885,329.62457 366.792,329.05865 368.0451,328.9721 369.29822,328.75598 370.5514,328.06665 371.8045,327.6402 373.05762,327.1083 374.3108,327.07043 375.5639,326.17346 376.81702,325.80008 378.0702,325.20694 379.3233,325.08545 380.57642,324.62314 381.8296,324.05923 383.0827,323.73508 384.33582,323.3464 385.589,323.30685 386.8421,322.4983 388.0952,322.19568 389.34836,321.86877 390.6015,321.48773 391.8546,321.32132 393.10776,320.87646 394.3609,321.0631 395.614,320.06778 396.86716,319.50525 398.1203,319.504 399.3734,318.98203 400.62656,318.4832 401.8797,318.25183 403.1328,317.43466 404.38596,316.94144 405.6391,316.38266 406.8922,315.90466 408.14536,315.73145 409.3985,315.47495 410.6516,314.8826 411.90475,314.63657 413.1579,313.99893 414.411,313.71948 415.66415,313.26038 416.9173,312.94882 418.1704,312.49634 419.42355,312.12387 420.6767,311.5301 421.9298,311.53036 423.18295,310.66302 424.4361,310.2549 425.6892,310.04517 426.94235,308.80383 428.1955,308.97958 429.4486,308.60962 430.70175,308.24582 431.9549,307.53717 433.208,306.58344 434.46115,306.46964 435.71426,306.17358 436.9674,305.9331 438.22055,305.3333 439.47366,304.88422 440.7268,304.6 441.97995,304.42438 443.23306,304.4713 444.4862,303.6052 445.73935,302.80243 446.99246,302.35358 448.2456,302.3172 449.49875,301.2923 450.75186,301.20306 452.005,300.9743 453.25815,300.40686 454.51126,299.65836 455.7644,299.6816 457.01755,298.92795 458.27066,298.5588 459.5238,297.96335 460.77695,297.6113 462.03006,296.94775 463.2832,296.66357 464.53635,296.54794 465.78946,295.6197 467.0426,294.80975 468.29575,294.60828 469.54886,294.2361 470.802,293.59875 472.0551,293.37955 473.30826,292.73083 474.5614,292.04547 475.8145,291.70343 477.06766,291.3889 478.3208,290.99225 479.5739,290.18768 480.82706,290.36188 482.0802,289.28937 483.3333,289.24396 484.58646,288.9285 485.8396,288.2951 487.0927,287.88583 488.34586,287.18182 489.599,286.90182 490.8521,286.21118 492.10526,285.4357 493.3584,285.51758 494.6115,284.88596 495.86465,284.54474 497.1178,283.80078 498.3709,283.5716 499.62405,282.90012 500.8772,282.51166 502.1303,282.10532 503.38345,281.62274 504.6366,280.99887 505.8897,280.6502 507.14285,279.95203 508.396,279.19897 509.6491,279.15707 510.90225,278.55606 512.1554,278.0673 513.4085,277.41345 514.6616,277.5108 515.9148,276.52704 517.1679,275.52307 518.421,275.5988 519.6742,274.5581 520.9273,274.2663 522.1804,273.84766 523.4336,273.30798 524.6867,273.18408 525.9398,273.1247 527.193,272.15015 528.4461,272.03516 529.6992,271.06223 530.9524,271.0904 532.2055,270.75372 533.4586,269.40485 534.7118,269.39874 535.9649,268.9046 537.218,268.41818 538.4712,267.16907 539.7243,267.07867 540.9774,266.73462 542.2306,266.1273 543.4837,265.0056 544.7368,265.14532 545.99,265.00867 547.2431,264.60748 548.4962,264.1056 549.7494,263.25638 551.0025,262.57007 552.2556,262.1124 553.5088,261.02142 554.7619,260.29468 556.015,260.5758 557.2682,260.08832 558.5213,259.77628 559.7744,259.35968 561.0276,260.2132 562.2807,259.96594 563.5338,258.97864 564.787,258.76294 566.0401,258.56055 567.2932,257.79495 568.5464,257.72595 569.7995,257.3753 571.0526,256.79596 572.3058,256.44812 573.5589,255.93472 574.812,255.2744 576.0652,255.26854 577.3183,255.1315 578.5714,254.59012 579.8246,254.40456 581.0777,254.16403 582.3308,253.68245 583.584,252.69185 584.8371,253.20253 586.0902,252.75128 587.3434,251.53418 588.59644,252.03534 589.8496,251.65826 591.1028,250.22974 592.35583,250.50885 593.609,250.34978 594.8622,249.43068 596.11523,249.0491 597.3684,248.86511 598.6216,248.65923 599.87463,248.13618 601.1278,247.80995 602.381,247.10736 603.63403,246.72601 604.8872,100 606.1404,246.61896 607.39343,245.49747 608.6466,245.40215 609.8998,245.28952 611.15283,244.75578 612.406,244.62656 613.6592,243.90286 614.91223,243.67607 616.1654,242.59666 617.4186,242.7555 618.67163,242.49974 619.9248,242.13478 621.178,241.7701 622.431,241.08716 623.6842,240.7465 624.9373,239.80772 626.1904,240.3289 627.4436,239.46884 628.6967,239.10503 629.9498,238.12343 631.203,237.62297 632.4561,237.25266 633.7092,237.25507 634.9624,236.7507 636.2155,236.02945 637.4686,235.93654 638.7218,235.37411 639.9749,235.27902 641.228,234.79999 642.4812,233.97238 643.7343,234.39583 644.9874,233.54509 646.2406,233.29523 647.4937,232.6221 648.7468,232.43045 650,232.24548 " stroke="black"/>
<text alignment-baseline="middle" class="poloto_text" font-size="large" text-anchor="start" x="675" y="150">
bench_par
</text>
<line class="poloto1stroke" x1="680" x2="730" y1="131.25" y2="131.25"/>
<polyline class="poloto1stroke" fill="none" points="150,400 151.25313,399.7492 152.50627,399.34903 153.7594,399.04156 155.01253,398.63586 156.26567,398.17227 157.5188,397.7571 158.77193,397.36594 160.02505,396.92456 161.2782,396.42322 162.53133,396.0123 163.78445,395.75223 165.0376,395.47626 166.29073,394.95752 167.54385,394.66336 168.797,394.1672 170.05013,393.6619 171.30325,393.2723 172.5564,392.8078 173.80952,392.44427 175.06265,391.9661 176.3158,391.6631 177.56892,391.49847 178.82205,391.3526 180.0752,391.10452 181.32832,391.07553 182.58145,390.81396 183.8346,390.6558 185.08772,390.18448 186.34085,389.82452 187.59398,389.73212 188.84712,392.08798 190.10025,389.8294 191.35338,389.63727 192.6065,389.39267 193.85965,387.9009 195.11278,388.41666 196.3659,388.8267 197.61905,387.89017 198.87218,387.49634 200.1253,387.30554 201.37845,392.1088 202.63158,390.96182 203.8847,390.9632 205.13785,392.3796 206.39098,392.32953 207.6441,392.0719 208.89725,390.17664 210.15038,390.20035 211.4035,391.5062 212.65665,391.84967 213.90977,391.2568 215.1629,391.35663 216.41605,387.0417 217.66917,391.03214 218.9223,390.83792 220.17545,389.6432 221.42856,390.6357 222.6817,390.44748 223.93484,390.2833 225.18796,388.75558 226.4411,388.46317 227.69424,388.3197 228.94736,388.27765 230.2005,387.9284 231.45363,389.52304 232.70676,389.86392 233.9599,387.85706 235.21303,389.53644 236.46616,386.51413 237.7193,386.55057 238.97243,379.16315 240.22556,374.71927 241.4787,386.848 242.73183,387.0617 243.98495,385.1031 245.2381,385.61298 246.49123,366.63126 247.74435,387.2128 248.9975,386.15732 250.25063,385.99988 251.50375,386.93427 252.7569,384.45343 254.01003,384.41602 255.26315,384.87805 256.5163,385.36594 257.7694,385.18658 259.02255,381.24316 260.2757,384.54935 261.5288,382.96957 262.78195,381.80142 264.0351,382.94458 265.2882,383.33978 266.54135,382.94672 267.7945,383.54053 269.0476,384.63742 270.30075,375.24228 271.5539,383.9563 272.807,382.41785 274.06015,383.77612 275.3133,382.44067 276.5664,382.29602 277.81955,382.1594 279.0727,383.15253 280.3258,382.55515 281.57895,383.5726 282.8321,383.5323 284.0852,379.95593 285.33835,382.8761 286.5915,381.36642 287.8446,381.7302 289.09775,382.27533 290.3509,380.65613 291.604,379.83667 292.85712,380.2515 294.1103,379.50876 295.3634,379.24948 296.61652,381.52222 297.8697,381.12463 299.1228,379.59375 300.37592,372.19693 301.6291,374.2307 302.8822,368.37317 304.1353,371.8356 305.3885,381.40735 306.6416,380.9553 307.8947,373.0667 309.1479,351.07547 310.401,381.24002 311.6541,378.50827 312.90726,378.9523 314.1604,373.76212 315.4135,378.11224 316.66666,376.96432 317.9198,379.08838 319.1729,379.44556 320.42606,379.02472 321.6792,377.4474 322.9323,320.77478 324.18546,377.2734 325.4386,379.62372 326.6917,377.86722 327.94485,378.86328 329.198,377.06555 330.4511,376.59634 331.70425,377.5927 332.9574,376.73172 334.2105,376.63416 335.46365,375.626 336.7168,375.32977 337.9699,377.36453 339.22305,375.8689 340.4762,375.76318 341.7293,374.5796 342.98245,374.94052 344.2356,374.0503 345.4887,374.5355 346.74185,375.88736 347.995,374.22864 349.2481,374.77118 350.50125,374.3245 351.7544,374.8642 353.0075,349.80728 354.26065,373.72546 355.5138,377.17316 356.7669,377.01843 358.02005,377.13577 359.2732,376.33856 360.5263,374.8189 361.77945,375.3651 363.0326,374.3987 364.2857,376.76047 365.53885,364.3567 366.792,374.2934 368.0451,376.21634 369.29822,374.33005 370.5514,374.9774 371.8045,367.4783 373.05762,375.7583 374.3108,373.84103 375.5639,363.669 376.81702,373.4478 378.0702,364.33905 379.3233,372.35287 380.57642,370.59845 381.8296,373.15076 383.0827,367.8399 384.33582,373.85098 385.589,372.94702 386.8421,372.52023 388.0952,374.23825 389.34836,372.44925 390.6015,373.8577 391.8546,374.07474 393.10776,373.07492 394.3609,374.04208 395.614,372.60635 396.86716,373.32245 398.1203,372.55826 399.3734,371.04224 400.62656,373.21548 401.8797,372.13467 403.1328,372.18008 404.38596,370.63824 405.6391,371.8836 406.8922,371.1472 408.14536,364.5032 409.3985,372.16025 410.6516,370.77017 411.90475,372.42133 413.1579,372.0033 414.411,360.78552 415.66415,370.35947 416.9173,370.3353 418.1704,371.7952 419.42355,370.71213 420.6767,370.03665 421.9298,371.49954 423.18295,356.79813 424.4361,360.67386 425.6892,368.73892 426.94235,370.15363 428.1955,369.66782 429.4486,361.58826 430.70175,368.18118 431.9549,368.4488 433.208,369.06912 434.46115,369.33557 435.71426,369.1845 436.9674,368.0681 438.22055,368.21478 439.47366,369.16904 440.7268,369.03036 441.97995,367.54443 443.23306,369.23227 444.4862,368.02457 445.73935,367.87894 446.99246,368.79782 448.2456,366.23932 449.49875,367.82114 450.75186,365.92514 452.005,366.68372 453.25815,366.809 454.51126,367.0802 455.7644,362.435 457.01755,366.44202 458.27066,367.41095 459.5238,367.03354 460.77695,341.77155 462.03006,366.7309 463.2832,366.6889 464.53635,366.60275 465.78946,365.8438 467.0426,365.96637 468.29575,366.1647 469.54886,354.48752 470.802,366.13037 472.0551,366.02045 473.30826,364.49942 474.5614,364.99387 475.8145,365.02722 477.06766,351.51593 478.3208,365.21628 479.5739,363.87134 480.82706,363.89282 482.0802,364.9712 483.3333,364.5249 484.58646,363.07108 485.8396,363.43677 487.0927,362.9171 488.34586,362.89087 489.599,363.4146 490.8521,363.4279 492.10526,363.8056 493.3584,357.00357 494.6115,363.88794 495.86465,363.38126 497.1178,363.38684 498.3709,361.45148 499.62405,362.86316 500.8772,360.67712 502.1303,361.98257 503.38345,361.61926 504.6366,363.23953 505.8897,362.1396 507.14285,361.25717 508.396,361.38464 509.6491,360.40958 510.90225,361.90747 512.1554,360.91266 513.4085,360.97897 514.6616,361.21008 515.9148,362.21805 517.1679,360.5369 518.421,360.48755 519.6742,347.7522 520.9273,359.7876 522.1804,360.58875 523.4336,359.09177 524.6867,359.62033 525.9398,216.30272 527.193,359.50034 528.4461,360.28915 529.6992,357.91235 530.9524,359.2312 532.2055,359.272 533.4586,359.33044 534.7118,357.8348 535.9649,359.42517 537.218,359.07333 538.4712,358.838 539.7243,350.69327 540.9774,357.87756 542.2306,357.98297 543.4837,356.7846 544.7368,357.5567 545.99,355.91528 547.2431,357.56073 548.4962,357.58612 549.7494,358.34073 551.0025,348.04468 552.2556,357.37543 553.5088,357.4685 554.7619,340.01086 556.015,356.98044 557.2682,355.56537 558.5213,356.52255 559.7744,345.45877 561.0276,351.7419 562.2807,353.0694 563.5338,351.98996 564.787,352.1518 566.0401,347.83167 567.2932,350.93768 568.5464,351.25458 569.7995,351.0205 571.0526,352.40314 572.3058,351.51953 573.5589,351.39966 574.812,350.7198 576.0652,351.8122 577.3183,349.84424 578.5714,351.1021 579.8246,352.15207 581.0777,352.48685 582.3308,348.55545 583.584,350.5506 584.8371,351.61496 586.0902,349.18835 587.3434,349.9743 588.59644,351.36542 589.8496,351.44336 591.1028,350.86115 592.35583,350.23267 593.609,341.38388 594.8622,351.04266 596.11523,350.24567 597.3684,349.15704 598.6216,350.1718 599.87463,348.70773 601.1278,350.67615 602.381,349.2147 603.63403,350.75433 604.8872,343.41534 606.1404,349.26743 607.39343,350.99335 608.6466,348.93073 609.8998,350.33823 611.15283,349.92526 612.406,350.04688 613.6592,349.927 614.91223,349.7621 616.1654,341.43808 617.4186,348.99612 618.67163,348.78928 619.9248,347.62222 621.178,348.33206 622.431,348.13956 623.6842,346.28275 624.9373,346.50943 626.1904,348.62457 627.4436,348.61453 628.6967,346.41116 629.9498,337.68405 631.203,347.40128 632.4561,345.2867 633.7092,345.27036 634.9624,335.26755 636.2155,346.98474 637.4686,345.72913 638.7218,344.86627 639.9749,345.42776 641.228,345.36316 642.4812,344.08615 643.7343,343.72144 644.9874,344.83835 646.2406,346.1377 647.4937,344.7054 648.7468,344.40402 650,324.15808 " stroke="black"/>
<text alignment-baseline="middle" class="poloto_text" font-size="large" text-anchor="start" x="675" y="200">
collect
</text>
<line class="poloto2stroke" x1="680" x2="730" y1="181.25" y2="181.25"/>
<polyline class="poloto2stroke" fill="none" points="150,399.9989 151.25313,399.62906 152.50627,399.18387 153.7594,398.7011 155.01253,398.3841 156.26567,397.84183 157.5188,397.3495 158.77193,396.966 160.02505,396.39444 161.2782,395.9703 162.53133,395.55432 163.78445,395.1096 165.0376,394.8082 166.29073,394.31836 167.54385,393.95563 168.797,393.37125 170.05013,392.82477 171.30325,392.4163 172.5564,391.90143 173.80952,391.35623 175.06265,390.60532 176.3158,390.33655 177.56892,389.8813 178.82205,389.461 180.0752,389.16382 181.32832,388.67868 182.58145,388.29947 183.8346,387.8128 185.08772,387.24985 186.34085,386.80457 187.59398,386.252 188.84712,385.86234 190.10025,385.43298 191.35338,384.79248 192.6065,384.4479 193.85965,384.08804 195.11278,383.5341 196.3659,382.94434 197.61905,382.70947 198.87218,382.04898 200.1253,381.7928 201.37845,381.71008 202.63158,381.33685 203.8847,381.05582 205.13785,380.4892 206.39098,380.0724 207.6441,379.39575 208.89725,378.91544 210.15038,378.33914 211.4035,377.86462 212.65665,377.62723 213.90977,377.3332 215.1629,376.92947 216.41605,376.4442 217.66917,375.7853 218.9223,375.44626 220.17545,375.05124 221.42856,374.51648 222.6817,374.0535 223.93484,373.46576 225.18796,372.93103 226.4411,372.32407 227.69424,371.9604 228.94736,371.40506 230.2005,371.0694 231.45363,370.73154 232.70676,370.06662 233.9599,369.65833 235.21303,369.10028 236.46616,368.12448 237.7193,368.0441 238.97243,367.01907 240.22556,366.43713 241.4787,366.0629 242.73183,365.72433 243.98495,365.06253 245.2381,365.1132 246.49123,364.26126 247.74435,362.12897 248.9975,362.13007 250.25063,361.6015 251.50375,361.5352 252.7569,360.8473 254.01003,360.42126 255.26315,360.06558 256.5163,359.85342 257.7694,359.14343 259.02255,358.5396 260.2757,358.02988 261.5288,357.66608 262.78195,357.50766 264.0351,356.9537 265.2882,355.70404 266.54135,354.97134 267.7945,355.48898 269.0476,354.83325 270.30075,354.21198 271.5539,354.18826 272.807,353.60205 274.06015,353.13263 275.3133,352.9002 276.5664,352.3225 277.81955,351.89816 279.0727,351.30005 280.3258,351.08167 281.57895,350.35846 282.8321,349.9078 284.0852,349.99188 285.33835,349.3188 286.5915,348.7946 287.8446,348.30426 289.09775,348.19235 290.3509,347.2285 291.604,347.05634 292.85712,346.4058 294.1103,346.16605 295.3634,345.471 296.61652,345.49713 297.8697,345.14374 299.1228,344.90543 300.37592,343.73187 301.6291,342.38257 302.8822,342.37262 304.1353,341.23166 305.3885,341.86652 306.6416,341.05566 307.8947,340.6067 309.1479,340.34662 310.401,339.71335 311.6541,338.3138 312.90726,338.20178 314.1604,338.4751 315.4135,338.4468 316.66666,337.6865 317.9198,337.42996 319.1729,336.81534 320.42606,336.87177 321.6792,336.45486 322.9323,334.05075 324.18546,334.57852 325.4386,334.24762 326.6917,334.04446 327.94485,333.34003 329.198,332.83392 330.4511,331.95874 331.70425,331.60254 332.9574,331.32068 334.2105,330.93115 335.46365,330.7096 336.7168,329.64667 337.9699,328.49 339.22305,328.07407 340.4762,328.02982 341.7293,327.53253 342.98245,327.0871 344.2356,326.66162 345.4887,325.82043 346.74185,325.5827 347.995,325.3424 349.2481,324.8393 350.50125,323.8048 351.7544,323.63873 353.0075,322.4476 354.26065,322.76044 355.5138,323.55106 356.7669,323.3355 358.02005,322.58002 359.2732,321.92892 360.5263,321.85443 361.77945,321.63812 363.0326,321.16162 364.2857,320.59036 365.53885,319.15463 366.792,319.29114 368.0451,319.4016 369.29822,318.78152 370.5514,317.97577 371.8045,317.45233 373.05762,316.83066 374.3108,317.0794 375.5639,314.7123 376.81702,315.1736 378.0702,314.2199 379.3233,315.0924 380.57642,313.01874 381.8296,312.91492 383.0827,313.0101 384.33582,313.1671 385.589,312.98325 386.8421,311.92557 388.0952,311.48923 389.34836,311.30692 390.6015,311.19232 391.8546,310.9383 393.10776,310.08218 394.3609,309.89355 395.614,309.175 396.86716,309.123 398.1203,308.54645 399.3734,307.12317 400.62656,307.52042 401.8797,307.22266 403.1328,306.7184 404.38596,305.4695 405.6391,305.5294 406.8922,304.7092 408.14536,303.31702 409.3985,304.01862 410.6516,303.43903 411.90475,303.56058 413.1579,302.99512 414.411,302.11578 415.66415,302.2525 416.9173,301.59787 418.1704,301.5111 419.42355,299.97675 420.6767,300.61597 421.9298,300.0048 423.18295,298.26038 424.4361,267.2478 425.6892,298.1679 426.94235,297.84647 428.1955,297.51947 429.4486,296.38443 430.70175,296.5365 431.9549,295.97226 433.208,294.50824 434.46115,294.59207 435.71426,294.03613 436.9674,293.55884 438.22055,293.32684 439.47366,292.9381 440.7268,292.82663 441.97995,292.52515 443.23306,291.87842 444.4862,291.59152 445.73935,290.6182 446.99246,289.06912 448.2456,289.48328 449.49875,288.79926 450.75186,288.8346 452.005,287.94965 453.25815,287.96997 454.51126,287.46393 455.7644,286.27698 457.01755,285.8737 458.27066,285.66647 459.5238,285.4249 460.77695,280.61917 462.03006,283.74173 463.2832,284.62683 464.53635,283.27414 465.78946,282.85236 467.0426,283.30573 468.29575,281.7992 469.54886,280.97156 470.802,280.85623 472.0551,280.7097 473.30826,279.74042 474.5614,279.22153 475.8145,278.9491 477.06766,277.21594 478.3208,278.15652 479.5739,277.59946 480.82706,276.83942 482.0802,275.98688 483.3333,276.31 484.58646,275.53357 485.8396,274.52472 487.0927,274.53317 488.34586,273.59 489.599,273.44162 490.8521,272.3564 492.10526,272.60925 493.3584,271.56174 494.6115,269.61447 495.86465,270.4989 497.1178,270.35175 498.3709,270.21213 499.62405,269.76056 500.8772,268.2945 502.1303,268.35938 503.38345,267.72693 504.6366,266.93372 505.8897,266.65378 507.14285,266.867 508.396,265.1424 509.6491,265.1796 510.90225,264.91104 512.1554,263.55136 513.4085,263.40662 514.6616,262.90182 515.9148,262.49713 517.1679,261.6881 518.421,261.1173 519.6742,260.297 520.9273,260.29846 522.1804,259.6806 523.4336,258.48788 524.6867,258.3158 525.9398,255.87376 527.193,257.6007 528.4461,257.77783 529.6992,256.3775 530.9524,256.41125 532.2055,255.98466 533.4586,255.18594 534.7118,255.04979 535.9649,253.98695 537.218,253.65887 538.4712,253.17253 539.7243,251.51099 540.9774,252.20325 542.2306,251.02414 543.4837,249.22916 544.7368,249.98872 545.99,250.26547 547.2431,249.36691 548.4962,248.95923 549.7494,247.46404 551.0025,247.50073 552.2556,246.89929 553.5088,245.97899 554.7619,244.7183 556.015,245.0673 557.2682,243.75346 558.5213,244.9438 559.7744,244.08011 561.0276,241.49864 562.2807,241.349 563.5338,239.80864 564.787,240.0763 566.0401,239.26076 567.2932,238.77333 568.5464,238.66286 569.7995,238.2322 571.0526,237.3897 572.3058,236.7298 573.5589,236.63016 574.812,236.87949 576.0652,236.7217 577.3183,236.40074 578.5714,235.94485 579.8246,235.20683 581.0777,233.09717 582.3308,234.63327 583.584,234.46452 584.8371,233.71481 586.0902,233.07068 587.3434,232.62935 588.59644,232.89456 589.8496,231.68205 591.1028,230.95772 592.35583,231.6759 593.609,230.49178 594.8622,230.0514 596.11523,229.52155 597.3684,229.56857 598.6216,228.69887 599.87463,228.6166 601.1278,228.13434 602.381,227.21407 603.63403,227.27687 604.8872,225.70183 606.1404,227.17734 607.39343,225.37172 608.6466,225.71533 609.8998,224.92456 611.15283,224.56084 612.406,224.50099 613.6592,223.70139 614.91223,223.73788 616.1654,222.18372 617.4186,222.45918 618.67163,221.71037 619.9248,222.04083 621.178,220.89172 622.431,220.33743 623.6842,220.16733 624.9373,219.23354 626.1904,219.26428 627.4436,216.70158 628.6967,218.53682 629.9498,217.83731 631.203,217.10727 632.4561,215.91208 633.7092,216.07114 634.9624,215.43332 636.2155,215.29497 637.4686,214.77553 638.7218,214.34824 639.9749,214.0705 641.228,213.48796 642.4812,213.12627 643.7343,212.59995 644.9874,212.6158 646.2406,211.85933 647.4937,211.51059 648.7468,211.17326 650,210.19707 " stroke="black"/>
<text alignment-baseline="middle" class="poloto_text" font-size="large" text-anchor="start" x="675" y="250">
collect_par
</text>
<line class="poloto3stroke" x1="680" x2="730" y1="231.25" y2="231.25"/>
<polyline class="poloto3stroke" fill="none" points="150,399.9921 151.25313,399.63617 152.50627,399.20935 153.7594,398.81052 155.01253,398.42554 156.26567,397.94656 157.5188,397.4563 158.77193,397.06906 160.02505,396.5842 161.2782,396.10898 162.53133,395.67703 163.78445,395.26184 165.0376,394.93973 166.29073,394.45792 167.54385,394.0968 168.797,393.49826 170.05013,393.10843 171.30325,392.4886 172.5564,392.21802 173.80952,391.6977 175.06265,390.992 176.3158,390.53918 177.56892,390.26633 178.82205,390.219 180.0752,390.06992 181.32832,389.78946 182.58145,389.6579 183.8346,390.22812 185.08772,388.7215 186.34085,388.57404 187.59398,388.894 188.84712,390.11975 190.10025,388.5802 191.35338,387.44257 192.6065,387.32718 193.85965,387.95416 195.11278,386.7157 196.3659,386.9073 197.61905,386.5388 198.87218,386.21368 200.1253,385.77362 201.37845,388.3389 202.63158,388.43442 203.8847,390.93674 205.13785,390.7507 206.39098,389.50497 207.6441,389.0189 208.89725,389.2328 210.15038,389.03204 211.4035,388.96335 212.65665,383.21106 213.90977,389.38034 215.1629,389.12967 216.41605,388.36002 217.66917,388.13058 218.9223,389.09586 220.17545,388.4536 221.42856,387.98145 222.6817,387.69073 223.93484,386.43015 225.18796,386.69095 226.4411,388.23816 227.69424,386.08337 228.94736,386.73816 230.2005,386.85034 231.45363,386.48178 232.70676,385.39886 233.9599,386.73608 235.21303,387.19824 236.46616,385.9331 237.7193,362.56 238.97243,377.27234 240.22556,384.16452 241.4787,385.54688 242.73183,386.23264 243.98495,384.06708 245.2381,383.7484 246.49123,385.00192 247.74435,378.23306 248.9975,385.18677 250.25063,385.23123 251.50375,383.35294 252.7569,382.08154 254.01003,381.43533 255.26315,383.01605 256.5163,383.52173 257.7694,382.11255 259.02255,382.0603 260.2757,377.95853 261.5288,382.46048 262.78195,382.70215 264.0351,382.1921 265.2882,382.17813 266.54135,380.82162 267.7945,381.80673 269.0476,381.66373 270.30075,380.6104 271.5539,364.61566 272.807,381.47046 274.06015,379.32462 275.3133,380.45056 276.5664,380.10956 277.81955,380.01233 279.0727,379.0462 280.3258,373.02432 281.57895,376.3316 282.8321,374.84607 284.0852,375.36322 285.33835,378.23477 286.5915,378.9866 287.8446,375.17703 289.09775,377.09473 290.3509,379.60556 291.604,378.27756 292.85712,376.84958 294.1103,379.44235 295.3634,376.4439 296.61652,378.35577 297.8697,378.74567 299.1228,370.47305 300.37592,362.20782 301.6291,377.10077 302.8822,368.61362 304.1353,376.22113 305.3885,377.359 306.6416,376.51163 307.8947,369.24326 309.1479,376.37827 310.401,376.9736 311.6541,377.37048 312.90726,376.03503 314.1604,377.28748 315.4135,367.99146 316.66666,371.12244 317.9198,373.87677 319.1729,375.25867 320.42606,375.89856 321.6792,376.6287 322.9323,363.19873 324.18546,367.43088 325.4386,375.36734 326.6917,374.47208 327.94485,375.90683 329.198,375.62653 330.4511,363.5595 331.70425,375.58914 332.9574,374.31082 334.2105,375.1255 335.46365,375.3796 336.7168,374.5603 337.9699,360.4134 339.22305,373.31308 340.4762,373.8931 341.7293,370.69263 342.98245,374.4393 344.2356,371.7144 345.4887,373.23547 346.74185,373.41522 347.995,371.39136 349.2481,373.59094 350.50125,370.9673 351.7544,371.89676 353.0075,371.98602 354.26065,372.97412 355.5138,371.75497 356.7669,371.40533 358.02005,368.8757 359.2732,364.5507 360.5263,371.9639 361.77945,370.2722 363.0326,369.09918 364.2857,370.35205 365.53885,368.61365 366.792,371.0542 368.0451,368.2605 369.29822,367.46805 370.5514,367.59982 371.8045,369.12024 373.05762,368.29327 374.3108,367.96286 375.5639,354.9072 376.81702,360.5854 378.0702,367.80432 379.3233,366.5133 380.57642,365.74316 381.8296,365.5783 383.0827,367.46936 384.33582,364.19095 385.589,368.04733 386.8421,364.6988 388.0952,366.5901 389.34836,363.5746 390.6015,365.1293 391.8546,364.64648 393.10776,365.04166 394.3609,366.0192 395.614,363.7579 396.86716,366.90942 398.1203,353.5506 399.3734,364.91342 400.62656,363.3298 401.8797,364.448 403.1328,364.1663 404.38596,366.87076 405.6391,364.12628 406.8922,364.32822 408.14536,358.93686 409.3985,351.6937 410.6516,359.57816 411.90475,364.2762 413.1579,362.4032 414.411,351.1133 415.66415,361.90936 416.9173,364.81744 418.1704,364.34702 419.42355,355.5141 420.6767,363.51645 421.9298,353.63327 423.18295,351.5977 424.4361,354.71045 425.6892,359.2113 426.94235,360.80984 428.1955,363.83215 429.4486,361.30765 430.70175,362.96472 431.9549,363.4139 433.208,359.8848 434.46115,362.106 435.71426,363.58176 436.9674,362.39777 438.22055,355.06143 439.47366,360.92932 440.7268,358.39133 441.97995,344.48645 443.23306,357.78864 444.4862,360.93204 445.73935,362.6535 446.99246,359.34534 448.2456,361.6299 449.49875,361.89365 450.75186,361.50073 452.005,362.0839 453.25815,361.40637 454.51126,361.90704 455.7644,358.1592 457.01755,361.06848 458.27066,360.7429 459.5238,359.6281 460.77695,357.02902 462.03006,360.3687 463.2832,357.8009 464.53635,360.547 465.78946,359.57718 467.0426,360.2102 468.29575,348.78635 469.54886,359.828 470.802,359.7636 472.0551,359.87857 473.30826,358.65222 474.5614,357.27975 475.8145,358.74374 477.06766,356.09634 478.3208,358.5644 479.5739,358.368 480.82706,358.3504 482.0802,356.62857 483.3333,358.09955 484.58646,356.37454 485.8396,358.2589 487.0927,357.1818 488.34586,295.04752 489.599,357.0364 490.8521,355.73306 492.10526,356.24118 493.3584,353.79327 494.6115,337.5038 495.86465,355.93756 497.1178,355.14716 498.3709,355.50046 499.62405,355.74557 500.8772,354.4623 502.1303,356.61334 503.38345,354.46118 504.6366,353.66193 505.8897,354.25308 507.14285,355.3865 508.396,355.19983 509.6491,353.2768 510.90225,355.00293 512.1554,354.46994 513.4085,354.85052 514.6616,353.45868 515.9148,354.08298 517.1679,354.66006 518.421,344.29193 519.6742,353.17252 520.9273,353.40472 522.1804,353.0997 523.4336,352.9303 524.6867,353.49634 525.9398,352.92856 527.193,352.8308 528.4461,352.79816 529.6992,351.08337 530.9524,350.56107 532.2055,324.88718 533.4586,351.2638 534.7118,352.73734 535.9649,350.5582 537.218,352.801 538.4712,352.57034 539.7243,350.97592 540.9774,350.24686 542.2306,350.55176 543.4837,349.626 544.7368,350.07193 545.99,340.13892 547.2431,348.9312 548.4962,349.6534 549.7494,321.48462 551.0025,349.05872 552.2556,349.9618 553.5088,341.90314 554.7619,349.3681 556.015,348.1723 557.2682,345.74155 558.5213,345.06503 559.7744,347.16882 561.0276,342.65137 562.2807,330.2279 563.5338,342.81866 564.787,341.45792 566.0401,342.73022 567.2932,343.09308 568.5464,341.22272 569.7995,342.99026 571.0526,341.9012 572.3058,341.54828 573.5589,341.647 574.812,342.7831 576.0652,342.81213 577.3183,339.70148 578.5714,340.1068 579.8246,323.67154 581.0777,324.07422 582.3308,341.23956 583.584,325.9707 584.8371,342.7122 586.0902,340.7485 587.3434,339.82715 588.59644,340.7101 589.8496,332.08667 591.1028,339.07605 592.35583,340.29907 593.609,338.48392 594.8622,338.27286 596.11523,339.0204 597.3684,339.11478 598.6216,331.53226 599.87463,338.7162 601.1278,327.46213 602.381,337.2128 603.63403,338.48267 604.8872,335.5431 606.1404,335.9567 607.39343,336.78308 608.6466,336.4671 609.8998,336.8686 611.15283,337.7801 612.406,335.98434 613.6592,337.31976 614.91223,336.5971 616.1654,334.5901 617.4186,337.6017 618.67163,335.64685 619.9248,335.8154 621.178,325.85043 622.431,334.26437 623.6842,332.5058 624.9373,334.91455 626.1904,318.77798 627.4436,325.0408 628.6967,334.70447 629.9498,335.18637 631.203,332.97382 632.4561,331.6807 633.7092,330.29434 634.9624,334.4616 636.2155,334.55365 637.4686,333.7681 638.7218,332.98865 639.9749,307.90967 641.228,333.55768 642.4812,329.927 643.7343,331.12833 644.9874,330.14908 646.2406,331.305 647.4937,319.86563 648.7468,331.1555 650,331.62738 " stroke="black"/>
<text alignment-baseline="start" class="poloto_text" font-size="x-large" text-anchor="middle" x="400" y="37.5">
Bench of query vs collect with abspiral(0.2,n)
</text>
<text alignment-baseline="start" class="poloto_text" font-size="large" text-anchor="middle" x="400" y="481.25">
Number of Elements
</text>
<text alignment-baseline="start" class="poloto_text" font-size="large" text-anchor="middle" transform="rotate(-90,37.5,250)" x="37.5" y="250">
Time in Seconds
</text>
<path class="poloto_axis_lines" d="M150,100 L150,400 L650,400" stroke="black"/>
</svg>