<svg class="poloto" width="800" height="500" viewBox="0 0 800 500" xmlns="http://www.w3.org/2000/svg"><style>.poloto {
    font-family: "Arial";
    stroke-width:2;
    }
    .poloto_text{fill: var(--poloto_fg_color,black);  }
    .poloto_axis_lines{stroke: var(--poloto_fg_color,black);stoke-width:3;fill:none}
    .poloto_background{fill: var(--poloto_bg_color,aliceblue); }
    .poloto0stroke{stroke:  var(--poloto_color0,blue); }
    .poloto1stroke{stroke:  var(--poloto_color1,red); }
    .poloto2stroke{stroke:  var(--poloto_color2,green); }
    .poloto3stroke{stroke:  var(--poloto_color3,gold); }
    .poloto4stroke{stroke:  var(--poloto_color4,aqua); }
    .poloto5stroke{stroke:  var(--poloto_color5,brown); }
    .poloto6stroke{stroke:  var(--poloto_color6,lime); }
    .poloto7stroke{stroke:  var(--poloto_color7,chocolate); }
    .poloto0fill{fill:var(--poloto_color0,blue);}
    .poloto1fill{fill:var(--poloto_color1,red);}
    .poloto2fill{fill:var(--poloto_color2,green);}
    .poloto3fill{fill:var(--poloto_color3,gold);}
    .poloto4fill{fill:var(--poloto_color4,aqua);}
    .poloto5fill{fill:var(--poloto_color5,brown);}
    .poloto6fill{fill:var(--poloto_color6,lime);}
    .poloto7fill{fill:var(--poloto_color7,chocolate);}</style><rect class="poloto_background" fill="white" x="0" y="0" width="800" height="500"/><line class="poloto_axis_lines" stroke="black" x1="150" x2="150" y1="400" y2="405"/><text class="poloto_text" alignment-baseline="start" text-anchor="middle" x="150" y="430">0</text><line class="poloto_axis_lines" stroke="black" x1="213.13131313131314" x2="213.13131313131314" y1="400" y2="405"/><text class="poloto_text" alignment-baseline="start" text-anchor="middle" x="213.13131313131314" y="430">5000</text><line class="poloto_axis_lines" stroke="black" x1="276.26262626262627" x2="276.26262626262627" y1="400" y2="405"/><text class="poloto_text" alignment-baseline="start" text-anchor="middle" x="276.26262626262627" y="430">10000</text><line class="poloto_axis_lines" stroke="black" x1="339.3939393939394" x2="339.3939393939394" y1="400" y2="405"/><text class="poloto_text" alignment-baseline="start" text-anchor="middle" x="339.3939393939394" y="430">15000</text><line class="poloto_axis_lines" stroke="black" x1="402.52525252525254" x2="402.52525252525254" y1="400" y2="405"/><text class="poloto_text" alignment-baseline="start" text-anchor="middle" x="402.52525252525254" y="430">20000</text><line class="poloto_axis_lines" stroke="black" x1="465.65656565656565" x2="465.65656565656565" y1="400" y2="405"/><text class="poloto_text" alignment-baseline="start" text-anchor="middle" x="465.65656565656565" y="430">25000</text><line class="poloto_axis_lines" stroke="black" x1="528.7878787878788" x2="528.7878787878788" y1="400" y2="405"/><text class="poloto_text" alignment-baseline="start" text-anchor="middle" x="528.7878787878788" y="430">30000</text><line class="poloto_axis_lines" stroke="black" x1="591.9191919191919" x2="591.9191919191919" y1="400" y2="405"/><text class="poloto_text" alignment-baseline="start" text-anchor="middle" x="591.9191919191919" y="430">35000</text><line class="poloto_axis_lines" stroke="black" x1="150" x2="144" y1="343.7865987311971" y2="343.7865987311971"/><text class="poloto_text" alignment-baseline="middle" text-anchor="end" x="135" y="343.7865987311971">0.001</text><line class="poloto_axis_lines" stroke="black" x1="150" x2="144" y1="287.54034965293255" y2="287.54034965293255"/><text class="poloto_text" alignment-baseline="middle" text-anchor="end" x="135" y="287.54034965293255">0.002</text><line class="poloto_axis_lines" stroke="black" x1="150" x2="144" y1="231.29410057466794" y2="231.29410057466794"/><text class="poloto_text" alignment-baseline="middle" text-anchor="end" x="135" y="231.29410057466794">0.003</text><line class="poloto_axis_lines" stroke="black" x1="150" x2="144" y1="175.04785149640333" y2="175.04785149640333"/><text class="poloto_text" alignment-baseline="middle" text-anchor="end" x="135" y="175.04785149640333">0.004</text><line class="poloto_axis_lines" stroke="black" x1="150" x2="144" y1="118.80160241813877" y2="118.80160241813877"/><text class="poloto_text" alignment-baseline="middle" text-anchor="end" x="135" y="118.80160241813877">0.005</text><text class="poloto_text" alignment-baseline="middle" text-anchor="start" font-size="large" x="675" y="100">bench</text><line class="poloto0stroke" stroke="black" x1="680" x2="730" y1="81.25" y2="81.25"/><polyline class="poloto0stroke" fill="none" stroke="black" points="150,399.9845322815035 155.05050505050505,396.6602664684799 160.1010101010101,393.6011454736112 165.15151515151516,390.9984627900127 170.2020202020202,388.52464026305245 175.25252525252526,385.72672684890324 180.3030303030303,383.00525208725145 185.35353535353534,381.6389744508913 190.40404040404042,377.57045827006414 195.45454545454544,374.51578072887264 200.50505050505052,372.03700853199354 205.55555555555554,362.85227728875833 210.6060606060606,368.211869870928 215.65656565656565,366.06793159481174 220.7070707070707,363.98485176019824 225.75757575757575,360.5610863325552 230.8080808080808,356.921616539697 235.85858585858585,352.34176570849934 240.9090909090909,314.40158959399395 245.95959595959596,343.72337794723313 251.010101010101,344.4818023698045 256.06060606060606,346.4575081149276 261.1111111111111,343.8229900543508 266.16161616161617,341.6512098849408 271.2121212121212,338.12001412155826 276.26262626262627,336.4753175522607 281.3131313131313,332.8348915731682 286.3636363636364,328.75360749380025 291.4141414141414,327.78842185961724 296.4646464646464,323.7110750176848 301.5151515151515,321.80500212892053 306.5656565656566,319.8242342213804 311.6161616161616,313.5182422522198 316.66666666666663,313.36648987220667 321.7171717171717,307.50259342080125 326.7676767676768,299.0402890007273 331.8181818181818,292.8002738817355 336.86868686868684,296.66039770972776 341.9191919191919,293.90540018362526 346.969696969697,284.54309953204995 352.020202020202,286.796155531378 357.07070707070704,288.7828292950714 362.1212121212121,271.7297540220287 367.1717171717172,277.6903377755996 372.22222222222223,286.5234174695975 377.27272727272725,284.2831856150593 382.32323232323233,270.98539116172697 387.37373737373736,268.1685227616383 392.4242424242424,268.0659296033196 397.47474747474746,261.26750172347886 402.52525252525254,264.8913913053423 407.57575757575756,245.7947773107881 412.62626262626264,252.1920006959536 417.67676767676767,247.04434398031083 422.72727272727275,244.73386056067386 427.77777777777777,247.84101585225537 432.8282828282828,233.5825354646662 437.8787878787879,255.9757983639466 442.9292929292929,246.45634569244663 447.979797979798,232.38089059935817 453.030303030303,228.38903805602465 458.0808080808081,241.83909110561189 463.1313131313131,227.31175364742865 468.1818181818182,221.2689378777053 473.2323232323232,221.7921967328804 478.2828282828283,207.86421930487512 483.3333333333333,230.29983562971145 488.3838383838384,205.059162617093 493.4343434343434,201.0361496517701 498.4848484848485,218.96689139543008 503.5353535353535,219.00840112724984 508.5858585858586,191.59510425148522 513.6363636363636,195.20189497362898 518.6868686868687,185.8586055542421 523.7373737373737,194.35055174758034 528.7878787878788,194.1359160610977 533.8383838383838,190.6160257937799 538.8888888888889,173.78681059206866 543.939393939394,193.18827925662708 548.989898989899,179.4784810287964 554.040404040404,187.5119640458977 559.090909090909,156.54643530959527 564.1414141414141,179.21817338806216 569.1919191919192,180.50418762698763 574.2424242424242,178.46824214910166 579.2929292929293,181.9645089918066 584.3434343434344,160.6335127526183 589.3939393939394,155.42106035803735 594.4444444444445,158.26430824894365 599.4949494949494,171.58561363439077 604.5454545454545,171.40753800980895 609.5959595959596,166.50888343883565 614.6464646464647,160.31094051415445 619.6969696969697,134.52749119793071 624.7474747474747,153.73468531817284 629.7979797979798,138.01796467698063 634.8484848484848,133.03527820988438 639.8989898989898,149.3464654575848 644.9494949494949,133.40610973005738 650,146.33942848936263 "/><text class="poloto_text" alignment-baseline="middle" text-anchor="start" font-size="large" x="675" y="150">bench_par</text><line class="poloto1stroke" stroke="black" x1="680" x2="730" y1="131.25" y2="131.25"/><polyline class="poloto1stroke" fill="none" stroke="black" points="150,400 155.05050505050505,396.97608915705433 160.1010101010101,393.9060001436154 165.15151515151516,390.72634343697206 170.2020202020202,389.19571426080523 175.25252525252526,386.369002767128 180.3030303030303,382.6984850447786 185.35353535353534,385.9366940967124 190.40404040404042,382.5390831748908 195.45454545454544,376.4309655099876 200.50505050505052,376.4336653299433 205.55555555555554,379.0672834505349 210.6060606060606,374.6007688112299 215.65656565656565,372.62590675984296 220.7070707070707,368.4803894640276 225.75757575757575,364.18733825688 230.8080808080808,361.20690576447186 235.85858585858585,360.23153955920566 240.9090909090909,344.1130519608474 245.95959595959596,345.43022662176213 251.010101010101,362.36591597297854 256.06060606060606,364.67409329640327 261.1111111111111,363.3690678252894 266.16161616161617,363.64788048197033 271.2121212121212,363.5098521867323 276.26262626262627,371.17587845860527 281.3131313131313,351.22370276932156 286.3636363636364,349.7092725128893 291.4141414141414,347.08977220081636 296.4646464646464,345.4668429299121 301.5151515151515,339.7730351357194 306.5656565656566,348.7875652292438 311.6161616161616,344.0529247205827 316.66666666666663,338.6720710562614 321.7171717171717,344.6137560701421 326.7676767676768,342.00218647918916 331.8181818181818,330.2143225823628 336.86868686868684,338.5587348643687 341.9191919191919,342.5177958444896 346.969696969697,341.1678858666113 352.020202020202,339.53978194079184 357.07070707070704,341.7441286884181 362.1212121212121,329.63121771816844 367.1717171717172,339.3183967044198 372.22222222222223,332.5029262111083 377.27272727272725,341.37774062192227 382.32323232323233,338.43398068391315 387.37373737373736,331.4308727036766 392.4242424242424,338.41480071297747 397.47474747474746,330.6030404097427 402.52525252525254,329.4485299011622 407.57575757575756,330.6034903797353 412.62626262626264,327.9756093765497 417.67676767676767,324.0025993266574 422.72727272727275,324.253120120052 427.77777777777777,321.75612413847153 432.8282828282828,327.86289189339686 437.8787878787879,326.5738403570212 442.9292929292929,327.48002367592113 447.979797979798,323.85770898903183 453.030303030303,316.66336376192913 458.0808080808081,321.08116914953234 463.1313131313131,318.589291576618 468.1818181818182,323.6739524932931 473.2323232323232,311.9508280291558 478.2828282828283,312.72067044029 483.3333333333333,319.40660582197427 488.3838383838384,317.4872025721785 493.4343434343434,314.0564626096497 498.4848484848485,316.5127925531466 503.5353535353535,312.06590785476993 508.5858585858586,314.05066924599464 513.6363636363636,309.6239769510371 518.6868686868687,309.9715787703408 523.7373737373737,307.8948547618731 528.7878787878788,308.73489249185695 533.8383838383838,306.6294266501103 538.8888888888889,294.4580758270683 543.939393939394,293.20682177007325 548.989898989899,291.7704050611125 554.040404040404,296.84696651792035 559.090909090909,292.6369347744122 564.1414141414141,294.08448824069046 569.1919191919192,291.3092983111689 574.2424242424242,288.9866094554819 579.2929292929293,281.82319966537233 584.3434343434344,289.06704159166384 589.3939393939394,286.6181923992944 594.4444444444445,287.72118134371914 599.4949494949494,286.83997135940996 604.5454545454545,288.92007014282234 609.5959595959596,283.97203136515833 614.6464646464647,275.53183172097215 619.6969696969697,277.06161720340276 624.7474747474747,281.4893781770928 629.7979797979798,280.78405021365137 634.8484848484848,279.4631633002974 639.8989898989898,275.12646500386506 644.9494949494949,274.820991625121 650,273.0597528277333 "/><text class="poloto_text" alignment-baseline="middle" text-anchor="start" font-size="large" x="675" y="200">collect</text><line class="poloto2stroke" stroke="black" x1="680" x2="730" y1="181.25" y2="181.25"/><polyline class="poloto2stroke" fill="none" stroke="black" points="150,399.99319420386155 155.05050505050505,396.4375313221299 160.1010101010101,392.74046537021565 165.15151515151516,389.87528144216884 170.2020202020202,388.64832576477556 175.25252525252526,386.22326873576617 180.3030303030303,382.3824936174569 185.35353535353534,379.66928705441956 190.40404040404042,375.6304126468566 195.45454545454544,373.92941358223175 200.50505050505052,369.8574101339617 205.55555555555554,366.44596263486676 210.6060606060606,362.2974642878503 215.65656565656565,364.29617474884645 220.7070707070707,356.3780527886047 225.75757575757575,355.5024674292033 230.8080808080808,349.0305490252619 235.85858585858585,350.2311814580865 240.9090909090909,349.05203509240977 245.95959595959596,343.32723561497494 251.010101010101,343.72275923849327 256.06060606060606,338.37565332361896 261.1111111111111,331.0620660484704 266.16161616161617,335.0860352000276 271.2121212121212,332.9897374968807 276.26262626262627,326.65123519575286 281.3131313131313,321.4921604915472 286.3636363636364,312.29471759602035 291.4141414141414,317.5347306526496 296.4646464646464,315.17975644999177 301.5151515151515,306.4717121676948 306.5656565656566,303.5991599810188 311.6161616161616,305.6509669011448 316.66666666666663,306.50973463207174 321.7171717171717,303.72194554275666 326.7676767676768,296.7086007451878 331.8181818181818,299.1180775632025 336.86868686868684,296.53873707297146 341.9191919191919,288.06130241189544 346.969696969697,288.10146223373727 352.020202020202,276.790116559102 357.07070707070704,287.7683719466958 362.1212121212121,286.09493354411927 367.1717171717172,274.87976895540777 372.22222222222223,264.85320010221824 377.27272727272725,272.01419130361745 382.32323232323233,266.1448952123005 387.37373737373736,262.38854571385775 392.4242424242424,261.0578719531641 397.47474747474746,253.84822774631218 402.52525252525254,251.59145949454498 407.57575757575756,260.6993583615393 412.62626262626264,249.36287061356597 417.67676767676767,240.33174787656347 422.72727272727275,249.99749704191603 427.77777777777777,247.19379026411178 432.8282828282828,246.68301807623206 437.8787878787879,230.30782259708056 442.9292929292929,240.13837327223243 447.979797979798,224.8865841259211 453.030303030303,229.98159435242664 458.0808080808081,222.15284768197023 463.1313131313131,232.02563929017984 468.1818181818182,220.01003433083557 473.2323232323232,207.1410612804759 478.2828282828283,216.6957803501479 483.3333333333333,202.38082872848418 488.3838383838384,218.62755777474092 493.4343434343434,202.27474830272257 498.4848484848485,198.41659309344809 503.5353535353535,178.6840027605659 508.5858585858586,200.65429386677778 513.6363636363636,181.26801168947046 518.6868686868687,175.90408814612175 523.7373737373737,173.78579815958523 528.7878787878788,190.13118312672526 533.8383838383838,165.2092013613842 538.8888888888889,179.46486943651945 543.939393939394,161.06857748923866 548.989898989899,152.08959502513176 554.040404040404,168.95463908750585 559.090909090909,170.39814282385043 564.1414141414141,166.18619870787367 569.1919191919192,146.7136347844803 574.2424242424242,162.21678841792234 579.2929292929293,160.3990783864601 584.3434343434344,157.24293261193145 589.3939393939394,135.5030261419442 594.4444444444445,121.49821633769795 599.4949494949494,130.56274934665294 604.5454545454545,128.2879822951807 609.5959595959596,124.52915796177842 614.6464646464647,123.94160964390687 619.6969696969697,120.5763965615543 624.7474747474747,137.5766003604635 629.7979797979798,129.95590856534756 634.8484848484848,111.18546656919818 639.8989898989898,129.66348431638966 644.9494949494949,100 650,100.3568824504016 "/><text class="poloto_text" alignment-baseline="middle" text-anchor="start" font-size="large" x="675" y="250">collect_par</text><line class="poloto3stroke" stroke="black" x1="680" x2="730" y1="231.25" y2="231.25"/><polyline class="poloto3stroke" fill="none" stroke="black" points="150,399.9651273255715 155.05050505050505,396.37279188944086 160.1010101010101,392.8814184704058 165.15151515151516,389.6610957256788 170.2020202020202,388.4190098072835 175.25252525252526,385.3751877921641 180.3030303030303,384.919480682132 185.35353535353534,382.8821290480191 190.40404040404042,379.9018652943582 195.45454545454544,378.0232968213932 200.50505050505052,375.1573816921084 205.55555555555554,373.63012729088626 210.6060606060606,369.6275879602279 215.65656565656565,367.2406096418445 220.7070707070707,358.63307740665044 225.75757575757575,357.99620112833725 230.8080808080808,356.7955124492635 235.85858585858585,364.34432153805744 240.9090909090909,363.45686822010055 245.95959595959596,351.97447770201825 251.010101010101,362.2940895129056 256.06060606060606,357.44290677615436 261.1111111111111,356.2775407415018 266.16161616161617,362.41563765716376 271.2121212121212,361.29588733051366 276.26262626262627,351.12915282462103 281.3131313131313,346.9890351687172 286.3636363636364,344.97328209425035 291.4141414141414,341.8833944011359 296.4646464646464,339.43932613993803 301.5151515151515,338.58854537638024 306.5656565656566,332.8753326262555 311.6161616161616,345.59885287649877 316.66666666666663,329.85249046204234 321.7171717171717,333.31039736287585 326.7676767676768,329.1794478455718 331.8181818181818,329.5483107470271 336.86868686868684,328.0205501295633 341.9191919191919,327.2552074183553 346.969696969697,333.1534703279475 352.020202020202,329.7273988040923 357.07070707070704,320.45857941848504 362.1212121212121,324.69110966162447 367.1717171717172,315.07080746552714 372.22222222222223,324.7717105365536 377.27272727272725,327.60213428267 382.32323232323233,328.6957863497478 387.37373737373736,317.63136170856603 392.4242424242424,319.0869021422134 397.47474747474746,311.8073438477571 402.52525252525254,320.13308237506914 407.57575757575756,310.0765342711208 412.62626262626264,309.70654644468397 417.67676767676767,312.01866100554423 422.72727272727275,309.70092181977617 427.77777777777777,314.0355952512417 432.8282828282828,308.31366433250986 437.8787878787879,296.22477051061657 442.9292929292929,306.933212641382 447.979797979798,307.7350591682417 453.030303030303,295.2408548754905 458.0808080808081,286.1992140899104 463.1313131313131,298.73340946575627 468.1818181818182,295.44907848957826 473.2323232323232,288.7966096260956 478.2828282828283,301.58025711660355 483.3333333333333,291.37437522135247 488.3838383838384,302.95429673533647 493.4343434343434,280.25977892599286 498.4848484848485,290.7513355203125 503.5353535353535,289.86495088108813 508.5858585858586,282.0984125621123 513.6363636363636,286.41486220887646 518.6868686868687,285.9562302938923 523.7373737373737,285.3511893925574 528.7878787878788,286.3633406447208 533.8383838383838,277.2858709984778 538.8888888888889,275.33406990921293 543.939393939394,270.7503943330779 548.989898989899,276.2327724769855 554.040404040404,270.2261230454194 559.090909090909,258.5229659997049 564.1414141414141,269.9338675352088 569.1919191919192,268.75123390208915 574.2424242424242,269.35998705586326 579.2929292929293,271.41859977212766 584.3434343434344,265.51561217761287 589.3939393939394,262.7273731183052 594.4444444444445,263.867765818367 599.4949494949494,266.2770738976344 604.5454545454545,243.99017265536105 609.5959595959596,262.3536167931801 614.6464646464647,259.46374076178796 619.6969696969697,244.2913150729261 624.7474747474747,249.23294177819517 629.7979797979798,246.271183040481 634.8484848484848,252.69838567640522 639.8989898989898,238.8381287322902 644.9494949494949,254.2837424529252 650,242.2376520265805 "/><text class="poloto_text" alignment-baseline="start" text-anchor="middle" font-size="x-large" x="400" y="37.5">Bench of query vs collect with abspiral(1.5,n)</text><text class="poloto_text" alignment-baseline="start" text-anchor="middle" font-size="x-large" x="400" y="481.25">Number of Elements</text><text class="poloto_text" alignment-baseline="start" text-anchor="middle" font-size="x-large" transform="rotate(-90,37.5,250)" x="37.5" y="250">Time in Seconds</text><path stroke="black" fill="none" class="poloto_axis_lines" d=" M 150 100 L 150 400 L 650 400"/></svg>