<svg class="poloto" width="800" height="500" viewBox="0 0 800 500" xmlns="http://www.w3.org/2000/svg" ><style><style>.poloto {
            font-family: "Arial";
            stroke-width:2;
            }
            .poloto_text{fill: var(--poloto_fg_color,black);  }
            .poloto_axis_lines{stroke: var(--poloto_fg_color,black);stoke-width:3;fill:none}
            .poloto_background{fill: var(--poloto_bg_color,aliceblue); }
            .poloto0stroke{stroke:  var(--poloto_color0,blue); }
            .poloto1stroke{stroke:  var(--poloto_color1,red); }
            .poloto2stroke{stroke:  var(--poloto_color2,green); }
            .poloto3stroke{stroke:  var(--poloto_color3,gold); }
            .poloto4stroke{stroke:  var(--poloto_color4,aqua); }
            .poloto5stroke{stroke:  var(--poloto_color5,brown); }
            .poloto6stroke{stroke:  var(--poloto_color6,lime); }
            .poloto7stroke{stroke:  var(--poloto_color7,chocolate); }
            .poloto0fill{fill:var(--poloto_color0,blue);}
            .poloto1fill{fill:var(--poloto_color1,red);}
            .poloto2fill{fill:var(--poloto_color2,green);}
            .poloto3fill{fill:var(--poloto_color3,gold);}
            .poloto4fill{fill:var(--poloto_color4,aqua);}
            .poloto5fill{fill:var(--poloto_color5,brown);}
            .poloto6fill{fill:var(--poloto_color6,lime);}
            .poloto7fill{fill:var(--poloto_color7,chocolate);}</style></style><rect class="poloto_background" fill="white" x="0" y="0" width="800" height="500" /><line class="poloto_axis_lines" stroke="black" x1="150" x2="150" y1="400" y2="405" /><text class="poloto_text" alignment-baseline="start" text-anchor="middle" x="150" y="430" >0</text><line class="poloto_axis_lines" stroke="black" x1="213.13131313131314" x2="213.13131313131314" y1="400" y2="405" /><text class="poloto_text" alignment-baseline="start" text-anchor="middle" x="213.13131313131314" y="430" >5000</text><line class="poloto_axis_lines" stroke="black" x1="276.26262626262627" x2="276.26262626262627" y1="400" y2="405" /><text class="poloto_text" alignment-baseline="start" text-anchor="middle" x="276.26262626262627" y="430" >10000</text><line class="poloto_axis_lines" stroke="black" x1="339.3939393939394" x2="339.3939393939394" y1="400" y2="405" /><text class="poloto_text" alignment-baseline="start" text-anchor="middle" x="339.3939393939394" y="430" >15000</text><line class="poloto_axis_lines" stroke="black" x1="402.52525252525254" x2="402.52525252525254" y1="400" y2="405" /><text class="poloto_text" alignment-baseline="start" text-anchor="middle" x="402.52525252525254" y="430" >20000</text><line class="poloto_axis_lines" stroke="black" x1="465.65656565656565" x2="465.65656565656565" y1="400" y2="405" /><text class="poloto_text" alignment-baseline="start" text-anchor="middle" x="465.65656565656565" y="430" >25000</text><line class="poloto_axis_lines" stroke="black" x1="528.7878787878788" x2="528.7878787878788" y1="400" y2="405" /><text class="poloto_text" alignment-baseline="start" text-anchor="middle" x="528.7878787878788" y="430" >30000</text><line class="poloto_axis_lines" stroke="black" x1="591.9191919191919" x2="591.9191919191919" y1="400" y2="405" /><text class="poloto_text" alignment-baseline="start" text-anchor="middle" x="591.9191919191919" y="430" >35000</text><line class="poloto_axis_lines" stroke="black" x1="150" x2="144" y1="349.38040407102045" y2="349.38040407102045" /><text class="poloto_text" alignment-baseline="middle" text-anchor="end" x="135" y="349.38040407102045" >0.002</text><line class="poloto_axis_lines" stroke="black" x1="150" x2="144" y1="298.75085943652016" y2="298.75085943652016" /><text class="poloto_text" alignment-baseline="middle" text-anchor="end" x="135" y="298.75085943652016" >0.004</text><line class="poloto_axis_lines" stroke="black" x1="150" x2="144" y1="248.12131480201992" y2="248.12131480201992" /><text class="poloto_text" alignment-baseline="middle" text-anchor="end" x="135" y="248.12131480201992" >0.006</text><line class="poloto_axis_lines" stroke="black" x1="150" x2="144" y1="197.4917701675197" y2="197.4917701675197" /><text class="poloto_text" alignment-baseline="middle" text-anchor="end" x="135" y="197.4917701675197" >0.008</text><line class="poloto_axis_lines" stroke="black" x1="150" x2="144" y1="146.86222553301943" y2="146.86222553301943" /><text class="poloto_text" alignment-baseline="middle" text-anchor="end" x="135" y="146.86222553301943" >0.010</text><text class="poloto_text" alignment-baseline="middle" text-anchor="start" font-size="large" x="675" y="100" >bench</text><line class="poloto0stroke" stroke="black" x1="680" x2="730" y1="81.25" y2="81.25" /><polyline class="poloto0stroke" fill="none" stroke="black"  points="150,399.9997215375045 155.05050505050505,397.72734100044653 160.1010101010101,394.84568452325703 165.15151515151516,392.6455270316202 170.2020202020202,389.69536878054015 175.25252525252526,387.07698593545 180.3030303030303,384.4315922282974 185.35353535353534,381.5152038834886 190.40404040404042,378.58580374570874 195.45454545454544,375.87993304749017 200.50505050505052,373.2879788246993 205.55555555555554,371.6494801864652 210.6060606060606,368.7388382949725 215.65656565656565,366.6545465162317 220.7070707070707,363.8431385322225 225.75757575757575,360.6706153211078 230.8080808080808,358.2142976483927 235.85858585858585,355.2172564389811 240.9090909090909,352.3185378052498 245.95959595959596,349.51163585071305 251.010101010101,345.6917885966739 256.06060606060606,342.9885759495487 261.1111111111111,340.335284033433 266.16161616161617,337.61113606960146 271.2121212121212,334.9826020008121 276.26262626262627,332.185319659756 281.3131313131313,329.54159672757623 286.3636363636364,326.92908690966374 291.4141414141414,324.03943096442197 296.4646464646464,321.4741331968811 301.5151515151515,318.89425412048547 306.5656565656566,316.5689403945122 311.6161616161616,313.44864155868794 316.66666666666663,310.52207667540756 321.7171717171717,307.6103462487051 326.7676767676768,304.33134910522404 331.8181818181818,300.8274555244765 336.86868686868684,297.9811131546696 341.9191919191919,294.9392141687118 346.969696969697,292.04269792017203 352.020202020202,289.6015944256196 357.07070707070704,289.23149245434143 362.1212121212121,286.82666502851964 367.1717171717172,284.6494680353745 372.22222222222223,282.0517673592676 377.27272727272725,279.47464759305456 382.32323232323233,276.08555650476575 387.37373737373736,274.17127873690765 392.4242424242424,271.3539977257209 397.47474747474746,269.2628962732267 402.52525252525254,266.9315070018973 407.57575757575756,263.43766338575966 412.62626262626264,260.8333808688502 417.67676767676767,258.7293182529297 422.72727272727275,255.795943695896 427.77777777777777,253.0760232990414 432.8282828282828,250.38853112552516 437.8787878787879,246.85638625887157 442.9292929292929,244.35622340050298 447.979797979798,241.73697985315408 453.030303030303,238.59468248018612 458.0808080808081,236.90838955181715 463.1313131313131,233.32976676318907 468.1818181818182,229.82326576089287 473.2323232323232,225.8619342443726 478.2828282828283,223.82333562966446 483.3333333333333,220.8339141667204 488.3838383838384,218.89368875723707 493.4343434343434,215.35536708613807 498.4848484848485,213.3794984772321 503.5353535353535,209.55438575055095 508.5858585858586,205.9046537664837 513.6363636363636,203.86132128935225 518.6868686868687,200.7201883959109 523.7373737373737,197.27659460282305 528.7878787878788,194.04956868690928 533.8383838383838,192.03828471153142 538.8888888888889,189.26173516900315 543.939393939394,183.8445510965178 548.989898989899,181.52240171708414 554.040404040404,178.21733035811627 559.090909090909,175.9955287361482 564.1414141414141,167.75463370030752 569.1919191919192,165.07235636988867 574.2424242424242,162.08976989547025 579.2929292929293,159.9079149842188 584.3434343434344,158.155246722834 589.3939393939394,155.30308195539402 594.4444444444445,151.83217352297586 599.4949494949494,149.83757198255512 604.5454545454545,147.73490167911197 609.5959595959596,145.39450034883757 614.6464646464647,142.16646184203114 619.6969696969697,138.5957119475937 624.7474747474747,137.33802342932808 629.7979797979798,132.67246026171426 634.8484848484848,130.6567208864086 639.8989898989898,127.67436224494105 644.9494949494949,125.4454471719518 650,123.43193549661004 "/><text class="poloto_text" alignment-baseline="middle" text-anchor="start" font-size="large" x="675" y="150" >bench_par</text><line class="poloto1stroke" stroke="black" x1="680" x2="730" y1="131.25" y2="131.25" /><polyline class="poloto1stroke" fill="none" stroke="black"  points="150,400 155.05050505050505,397.73721376165025 160.1010101010101,394.94760179660625 165.15151515151516,392.5145990291954 170.2020202020202,389.73306247652056 175.25252525252526,387.05675943236855 180.3030303030303,386.0188031378167 185.35353535353534,384.53290194711104 190.40404040404042,382.00924698003206 195.45454545454544,380.8051245199897 200.50505050505052,378.7559949599976 205.55555555555554,386.2083095233836 210.6060606060606,388.06742640236246 215.65656565656565,382.78618265722076 220.7070707070707,381.5878066504945 225.75757575757575,381.623120757877 230.8080808080808,379.97024332896683 235.85858585858585,382.48179783487814 240.9090909090909,380.35317988980984 245.95959595959596,378.32974482371975 251.010101010101,379.68674319378596 256.06060606060606,376.3258274470862 261.1111111111111,373.0965232016639 266.16161616161617,375.4665428155495 271.2121212121212,373.80191933228406 276.26262626262627,372.4851714502023 281.3131313131313,373.32640664907683 286.3636363636364,372.9956944635243 291.4141414141414,366.06987653479246 296.4646464646464,367.0944413147885 301.5151515151515,361.3747710278844 306.5656565656566,366.8902270465053 311.6161616161616,368.68322174019147 316.66666666666663,365.747948575234 321.7171717171717,362.2536492931947 326.7676767676768,363.03823003162324 331.8181818181818,365.96175714222545 336.86868686868684,359.5246915226228 341.9191919191919,363.68722484952053 346.969696969697,358.57290671303883 352.020202020202,362.46933115333763 357.07070707070704,361.925797676914 362.1212121212121,361.2215153962758 367.1717171717172,359.2078518323001 372.22222222222223,330.8437126712587 377.27272727272725,359.31369289535854 382.32323232323233,356.57179927613254 387.37373737373736,357.41693294994394 392.4242424242424,357.34873495332124 397.47474747474746,355.76587818464054 402.52525252525254,355.16728507842686 407.57575757575756,354.2128675325219 412.62626262626264,354.8494327972115 417.67676767676767,353.7024964078338 422.72727272727275,352.18001537112974 427.77777777777777,349.77490948281246 432.8282828282828,351.45803806464176 437.8787878787879,349.18011359244633 442.9292929292929,348.6160498356734 447.979797979798,347.9646754291782 453.030303030303,346.06877618602243 458.0808080808081,345.00897324296074 463.1313131313131,345.968200595606 468.1818181818182,344.77169788203116 473.2323232323232,332.8373016207868 478.2828282828283,342.91804899387284 483.3333333333333,343.20119472224127 488.3838383838384,342.38998284333496 493.4343434343434,341.5160662733989 498.4848484848485,340.28478106266016 503.5353535353535,333.8363744250594 508.5858585858586,338.8034365309716 513.6363636363636,317.0116451327963 518.6868686868687,337.01968172918123 523.7373737373737,329.121219618476 528.7878787878788,335.4606208464787 533.8383838383838,334.77603345870335 538.8888888888889,332.02591253847424 543.939393939394,333.0023792510675 548.989898989899,329.3940116049667 554.040404040404,329.74889939808224 559.090909090909,325.84670318969506 564.1414141414141,322.91867004962035 569.1919191919192,322.1931993045526 574.2424242424242,322.91646766442875 579.2929292929293,319.3222003465086 584.3434343434344,321.76246845357457 589.3939393939394,319.0115374606313 594.4444444444445,314.1965665068011 599.4949494949494,317.1854816742988 604.5454545454545,319.21732124479826 609.5959595959596,318.74735249672847 614.6464646464647,316.2670111050843 619.6969696969697,316.7432579166888 624.7474747474747,313.44679358030874 629.7979797979798,310.8276259772768 634.8484848484848,310.5217982129121 639.8989898989898,310.63920812691947 644.9494949494949,308.5503343743893 650,309.0719452579862 "/><text class="poloto_text" alignment-baseline="middle" text-anchor="start" font-size="large" x="675" y="200" >collect</text><line class="poloto2stroke" stroke="black" x1="680" x2="730" y1="181.25" y2="181.25" /><polyline class="poloto2stroke" fill="none" stroke="black"  points="150,399.9953420818936 155.05050505050505,397.1690236969896 160.1010101010101,394.30959358989463 165.15151515151516,391.3134130827418 170.2020202020202,388.1606860235792 175.25252525252526,384.4787283343521 180.3030303030303,382.48002580081595 185.35353535353534,379.5058691455792 190.40404040404042,376.48905709898787 195.45454545454544,372.94635597227796 200.50505050505052,368.7284086087777 205.55555555555554,367.2931369627066 210.6060606060606,363.74213259067665 215.65656565656565,361.15989924045556 220.7070707070707,358.0997989332017 225.75757575757575,354.3537442404674 230.8080808080808,351.5931430044989 235.85858585858585,348.7841399238599 240.9090909090909,344.5278913098437 245.95959595959596,341.97608631594795 251.010101010101,335.02021975247555 256.06060606060606,335.2622036610561 261.1111111111111,333.1082709436706 266.16161616161617,330.91793558369284 271.2121212121212,327.4254842800327 276.26262626262627,325.29342352592926 281.3131313131313,322.06166374759215 286.3636363636364,319.44067348095336 291.4141414141414,315.9389569706251 296.4646464646464,313.0848429657167 301.5151515151515,310.2544742172419 306.5656565656566,308.1155531598405 311.6161616161616,305.0022412011758 316.66666666666663,301.704435181863 321.7171717171717,298.29458598027406 326.7676767676768,295.03042329337086 331.8181818181818,291.40079123852354 336.86868686868684,287.3023802299054 341.9191919191919,283.90863122351016 346.969696969697,279.5415039067444 352.020202020202,277.33127113572533 357.07070707070704,275.37203433223175 362.1212121212121,271.9656026249056 367.1717171717172,268.2624058417043 372.22222222222223,264.31036484662457 377.27272727272725,262.4962829475981 382.32323232323233,258.3547608817237 387.37373737373736,257.1143623529507 392.4242424242424,255.14548062120426 397.47474747474746,252.8487219584048 402.52525252525254,248.78861220030265 407.57575757575756,244.39735990551853 412.62626262626264,241.8840839950896 417.67676767676767,239.48178804649953 422.72727272727275,236.432243999302 427.77777777777777,234.04906070381142 432.8282828282828,230.11089220396147 437.8787878787879,226.27729902855404 442.9292929292929,223.46637202521893 447.979797979798,220.05120672144335 453.030303030303,216.75413483052773 458.0808080808081,214.2010640980161 463.1313131313131,210.82394689703335 468.1818181818182,206.84185726721296 473.2323232323232,201.55942372777238 478.2828282828283,199.78711120306937 483.3333333333333,197.318642439642 488.3838383838384,194.3462071889228 493.4343434343434,189.2585201929188 498.4848484848485,186.97449486059494 503.5353535353535,184.91455589282333 508.5858585858586,179.60660506288696 513.6363636363636,176.29923005963826 518.6868686868687,171.9839727113505 523.7373737373737,167.04817434925002 528.7878787878788,163.2642993866737 533.8383838383838,163.1162585981624 538.8888888888889,158.91132302763327 543.939393939394,144.41985629985115 548.989898989899,150.57823159101318 554.040404040404,147.58050688274906 559.090909090909,143.86500712020165 564.1414141414141,149.00879165166066 569.1919191919192,146.02995176354517 574.2424242424242,142.26222762570723 579.2929292929293,139.69996763084447 584.3434343434344,131.85572976244282 589.3939393939394,127.64008604322345 594.4444444444445,130.38142273745848 599.4949494949494,127.37086343962949 604.5454545454545,121.94676843430159 609.5959595959596,123.43312529090895 614.6464646464647,119.51318342712739 619.6969696969697,115.43365723865793 624.7474747474747,114.0131441048477 629.7979797979798,110.02067541837727 634.8484848484848,107.04603778246644 639.8989898989898,104.56253204428265 644.9494949494949,100.43835059744549 650,100 "/><text class="poloto_text" alignment-baseline="middle" text-anchor="start" font-size="large" x="675" y="250" >collect_par</text><line class="poloto3stroke" stroke="black" x1="680" x2="730" y1="231.25" y2="231.25" /><polyline class="poloto3stroke" fill="none" stroke="black"  points="150,399.9878489092877 155.05050505050505,397.173124690105 160.1010101010101,394.4328765310796 165.15151515151516,391.4656814382301 170.2020202020202,388.09752566664764 175.25252525252526,384.6916508843125 180.3030303030303,386.7586526735606 185.35353535353534,383.23653245674467 190.40404040404042,380.29017142151224 195.45454545454544,377.8307400318021 200.50505050505052,376.518751326916 205.55555555555554,378.85570984815524 210.6060606060606,378.8887456260293 215.65656565656565,378.06963553816 220.7070707070707,379.09460535451313 225.75757575757575,376.4204793807804 230.8080808080808,378.00055152450625 235.85858585858585,377.06486691011605 240.9090909090909,375.92329725246964 245.95959595959596,373.7281520857516 251.010101010101,371.716969369463 256.06060606060606,371.3802828976436 261.1111111111111,369.45896762308126 266.16161616161617,368.2007981241416 271.2121212121212,367.29483305245185 276.26262626262627,368.1572060862113 281.3131313131313,367.44550657728416 286.3636363636364,365.73759483335624 291.4141414141414,364.7984927247032 296.4646464646464,362.77207051547964 301.5151515151515,364.1224111004264 306.5656565656566,361.1510896996892 311.6161616161616,363.62950716863725 316.66666666666663,362.13107516563457 321.7171717171717,358.50794900727277 326.7676767676768,355.47559369047866 331.8181818181818,358.64399059370567 336.86868686868684,353.70431907144064 341.9191919191919,356.69034835489424 346.969696969697,356.218987294347 352.020202020202,354.14355568591725 357.07070707070704,347.07972161851177 362.1212121212121,349.362658415626 367.1717171717172,343.0608243097421 372.22222222222223,344.459212332547 377.27272727272725,285.63013700017245 382.32323232323233,345.18731581393575 387.37373737373736,342.1234182908343 392.4242424242424,344.2574282824062 397.47474747474746,341.2627160320478 402.52525252525254,341.96965636377934 407.57575757575756,338.9368706958558 412.62626262626264,334.1719470468968 417.67676767676767,336.43658126362567 422.72727272727275,334.70530398484897 427.77777777777777,334.74821252392667 432.8282828282828,333.0461231776317 437.8787878787879,330.83300452256844 442.9292929292929,326.72818887655404 447.979797979798,328.22046938988365 453.030303030303,328.73473898950857 458.0808080808081,327.4933025550706 463.1313131313131,323.6025486237709 468.1818181818182,322.66435784692123 473.2323232323232,326.8787105127524 478.2828282828283,327.82074913499423 483.3333333333333,327.6666328011268 488.3838383838384,322.9410736231211 493.4343434343434,323.92819785485995 498.4848484848485,324.3033880953739 503.5353535353535,322.83639703958926 508.5858585858586,313.61857962525363 513.6363636363636,321.0132018225286 518.6868686868687,319.8448744505429 523.7373737373737,287.9980048584111 528.7878787878788,310.94470679924405 533.8383838383838,316.11524904504245 538.8888888888889,315.30550542293054 543.939393939394,302.5982997923851 548.989898989899,310.1968831102202 554.040404040404,311.32288418289147 559.090909090909,309.7605576945601 564.1414141414141,305.8317050309229 569.1919191919192,306.066955210067 574.2424242424242,303.3001012253362 579.2929292929293,303.5172260275013 584.3434343434344,300.688730572178 589.3939393939394,300.73973983839727 594.4444444444445,302.3900351605311 599.4949494949494,298.50983748928763 604.5454545454545,284.9936729945722 609.5959595959596,291.5369340840457 614.6464646464647,293.54249692087984 619.6969696969697,292.1233507847748 624.7474747474747,261.0572394004517 629.7979797979798,284.42603985490246 634.8484848484848,285.32099300063425 639.8989898989898,288.04091339748885 644.9494949494949,283.0103112130603 650,281.5440542856728 "/><text class="poloto_text" alignment-baseline="start" text-anchor="middle" font-size="x-large" x="400" y="37.5" >Bench of query vs collect with abspiral(0.2,n)</text><text class="poloto_text" alignment-baseline="start" text-anchor="middle" font-size="x-large" x="400" y="481.25" >Number of Elements</text><text class="poloto_text" alignment-baseline="start" text-anchor="middle" font-size="x-large" transform="rotate(-90,37.5,250)" x="37.5" y="250" >Time in Seconds</text><path stroke="black" fill="none" class="poloto_axis_lines"  d="M 150 100 L 150 400 L 650 400 "/></svg>