<svg class="poloto" width="800" height="500" viewBox="0 0 800 500" xmlns="http://www.w3.org/2000/svg"><circle  r="1e5" class="poloto_background" /><text  class="poloto_text poloto_legend_text" x="675" y="100" >bench</text><line  class="poloto_scatter poloto_legend_icon poloto0stroke poloto0legend" stroke="black" x1="685" x2="685" y1="81.25" y2="81.25" /><path  class="poloto_scatter poloto0stroke" d=" M 150.00 399.94 h 0 M 155.05 397.45 h 0 M 160.10 394.76 h 0 M 165.15 392.80 h 0 M 170.20 389.74 h 0 M 175.25 386.94 h 0 M 180.30 383.91 h 0 M 185.35 381.13 h 0 M 190.40 379.08 h 0 M 195.45 376.46 h 0 M 200.51 373.17 h 0 M 205.56 369.34 h 0 M 210.61 365.86 h 0 M 215.66 363.13 h 0 M 220.71 362.31 h 0 M 225.76 360.91 h 0 M 230.81 355.26 h 0 M 235.86 346.30 h 0 M 240.91 352.87 h 0 M 245.96 349.24 h 0 M 251.01 339.92 h 0 M 256.06 339.37 h 0 M 261.11 342.43 h 0 M 266.16 334.41 h 0 M 271.21 330.36 h 0 M 276.26 334.27 h 0 M 281.31 334.17 h 0 M 286.36 328.84 h 0 M 291.41 326.14 h 0 M 296.46 325.22 h 0 M 301.52 325.54 h 0 M 306.57 314.83 h 0 M 311.62 314.36 h 0 M 316.67 313.71 h 0 M 321.72 300.17 h 0 M 326.77 308.33 h 0 M 331.82 307.72 h 0 M 336.87 300.28 h 0 M 341.92 291.86 h 0 M 346.97 293.51 h 0 M 352.02 277.54 h 0 M 357.07 283.90 h 0 M 362.12 285.84 h 0 M 367.17 287.76 h 0 M 372.22 282.97 h 0 M 377.27 274.96 h 0 M 382.32 271.76 h 0 M 387.37 268.94 h 0 M 392.42 263.22 h 0 M 397.47 261.80 h 0 M 402.53 265.65 h 0 M 407.58 264.39 h 0 M 412.63 262.26 h 0 M 417.68 252.84 h 0 M 422.73 263.52 h 0 M 427.78 249.37 h 0 M 432.83 242.87 h 0 M 437.88 241.05 h 0 M 442.93 225.13 h 0 M 447.98 235.37 h 0 M 453.03 247.34 h 0 M 458.08 214.33 h 0 M 463.13 226.29 h 0 M 468.18 239.31 h 0 M 473.23 212.82 h 0 M 478.28 221.99 h 0 M 483.33 214.36 h 0 M 488.38 229.37 h 0 M 493.43 202.48 h 0 M 498.48 219.89 h 0 M 503.54 210.97 h 0 M 508.59 201.55 h 0 M 513.64 193.13 h 0 M 518.69 211.17 h 0 M 523.74 182.07 h 0 M 528.79 194.49 h 0 M 533.84 177.07 h 0 M 538.89 200.36 h 0 M 543.94 163.33 h 0 M 548.99 187.93 h 0 M 554.04 154.58 h 0 M 559.09 169.66 h 0 M 564.14 192.53 h 0 M 569.19 168.72 h 0 M 574.24 187.57 h 0 M 579.29 182.95 h 0 M 584.34 168.75 h 0 M 589.39 181.89 h 0 M 594.44 177.12 h 0 M 599.49 173.20 h 0 M 604.55 140.48 h 0 M 609.60 163.38 h 0 M 614.65 168.10 h 0 M 619.70 133.54 h 0 M 624.75 161.88 h 0 M 629.80 143.24 h 0 M 634.85 157.63 h 0 M 639.90 135.34 h 0 M 644.95 153.14 h 0 M 650.00 152.04 h 0" /><text  class="poloto_text poloto_legend_text" x="675" y="150" >collect</text><line  class="poloto_scatter poloto_legend_icon poloto1stroke poloto1legend" stroke="black" x1="685" x2="685" y1="131.25" y2="131.25" /><path  class="poloto_scatter poloto1stroke" d=" M 150.00 399.95 h 0 M 155.05 397.04 h 0 M 160.10 393.21 h 0 M 165.15 391.86 h 0 M 170.20 389.26 h 0 M 175.25 385.59 h 0 M 180.30 381.78 h 0 M 185.35 378.67 h 0 M 190.40 377.12 h 0 M 195.45 373.88 h 0 M 200.51 371.15 h 0 M 205.56 365.69 h 0 M 210.61 362.22 h 0 M 215.66 360.13 h 0 M 220.71 361.52 h 0 M 225.76 357.22 h 0 M 230.81 355.77 h 0 M 235.86 351.57 h 0 M 240.91 349.64 h 0 M 245.96 345.15 h 0 M 251.01 343.04 h 0 M 256.06 341.56 h 0 M 261.11 336.69 h 0 M 266.16 334.89 h 0 M 271.21 329.48 h 0 M 276.26 324.06 h 0 M 281.31 326.78 h 0 M 286.36 320.84 h 0 M 291.41 321.57 h 0 M 296.46 309.31 h 0 M 301.52 306.62 h 0 M 306.57 311.53 h 0 M 311.62 305.23 h 0 M 316.67 303.66 h 0 M 321.72 300.06 h 0 M 326.77 301.35 h 0 M 331.82 293.24 h 0 M 336.87 288.94 h 0 M 341.92 286.51 h 0 M 346.97 289.33 h 0 M 352.02 283.28 h 0 M 357.07 279.43 h 0 M 362.12 283.04 h 0 M 367.17 273.26 h 0 M 372.22 274.13 h 0 M 377.27 275.64 h 0 M 382.32 272.07 h 0 M 387.37 265.82 h 0 M 392.42 239.94 h 0 M 397.47 264.91 h 0 M 402.53 252.69 h 0 M 407.58 250.00 h 0 M 412.63 246.23 h 0 M 417.68 245.30 h 0 M 422.73 248.23 h 0 M 427.78 237.67 h 0 M 432.83 244.46 h 0 M 437.88 233.20 h 0 M 442.93 218.25 h 0 M 447.98 219.64 h 0 M 453.03 225.34 h 0 M 458.08 225.33 h 0 M 463.13 228.07 h 0 M 468.18 215.95 h 0 M 473.23 223.48 h 0 M 478.28 203.69 h 0 M 483.33 203.85 h 0 M 488.38 212.09 h 0 M 493.43 203.95 h 0 M 498.48 191.21 h 0 M 503.54 193.88 h 0 M 508.59 200.12 h 0 M 513.64 194.60 h 0 M 518.69 179.61 h 0 M 523.74 191.31 h 0 M 528.79 178.85 h 0 M 533.84 157.65 h 0 M 538.89 165.11 h 0 M 543.94 179.32 h 0 M 548.99 160.30 h 0 M 554.04 154.35 h 0 M 559.09 168.69 h 0 M 564.14 146.51 h 0 M 569.19 166.12 h 0 M 574.24 158.12 h 0 M 579.29 147.01 h 0 M 584.34 158.90 h 0 M 589.39 155.81 h 0 M 594.44 152.39 h 0 M 599.49 125.42 h 0 M 604.55 138.98 h 0 M 609.60 128.42 h 0 M 614.65 140.29 h 0 M 619.70 137.36 h 0 M 624.75 119.58 h 0 M 629.80 133.33 h 0 M 634.85 124.92 h 0 M 639.90 100.00 h 0 M 644.95 123.98 h 0 M 650.00 119.89 h 0" /><text  class="poloto_labels poloto_text poloto_title" x="400" y="37.5" >Bench of query vs collect with abspiral(1.5,n)</text><text  class="poloto_labels poloto_text poloto_xname" x="400" y="481.25" >Number of Elements</text><text  class="poloto_labels poloto_text poloto_yname" transform="rotate(-90,37.5,250)" x="37.5" y="250" >Time in Seconds</text><text  class="poloto_tick_labels poloto_text" dominant-baseline="middle" text-anchor="start" x="150" y="70" ></text><line  class="poloto_axis_lines" stroke="black" x1="150" x2="144" y1="400" y2="400" /><text  class="poloto_tick_labels poloto_text" dominant-baseline="middle" text-anchor="end" x="135" y="400" >0e0</text><line  class="poloto_axis_lines" stroke="black" x1="150" x2="144" y1="345.1842439783522" y2="345.1842439783522" /><text  class="poloto_tick_labels poloto_text" dominant-baseline="middle" text-anchor="end" x="135" y="345.1842439783522" >0.001</text><line  class="poloto_axis_lines" stroke="black" x1="150" x2="144" y1="290.3684879567043" y2="290.3684879567043" /><text  class="poloto_tick_labels poloto_text" dominant-baseline="middle" text-anchor="end" x="135" y="290.3684879567043" >0.002</text><line  class="poloto_axis_lines" stroke="black" x1="150" x2="144" y1="235.5527319350565" y2="235.5527319350565" /><text  class="poloto_tick_labels poloto_text" dominant-baseline="middle" text-anchor="end" x="135" y="235.5527319350565" >0.003</text><line  class="poloto_axis_lines" stroke="black" x1="150" x2="144" y1="180.73697591340863" y2="180.73697591340863" /><text  class="poloto_tick_labels poloto_text" dominant-baseline="middle" text-anchor="end" x="135" y="180.73697591340863" >0.004</text><line  class="poloto_axis_lines" stroke="black" x1="150" x2="144" y1="125.92121989176081" y2="125.92121989176081" /><text  class="poloto_tick_labels poloto_text" dominant-baseline="middle" text-anchor="end" x="135" y="125.92121989176081" >0.005</text><text  class="poloto_tick_labels poloto_text" dominant-baseline="middle" text-anchor="start" x="440.00000000000006" y="70" ></text><line  class="poloto_axis_lines" stroke="black" x1="150" x2="150" y1="400" y2="405" /><text  class="poloto_tick_labels poloto_text" dominant-baseline="start" text-anchor="middle" x="150" y="430" >0</text><line  class="poloto_axis_lines" stroke="black" x1="213.13131313131314" x2="213.13131313131314" y1="400" y2="405" /><text  class="poloto_tick_labels poloto_text" dominant-baseline="start" text-anchor="middle" x="213.13131313131314" y="430" >5000</text><line  class="poloto_axis_lines" stroke="black" x1="276.26262626262627" x2="276.26262626262627" y1="400" y2="405" /><text  class="poloto_tick_labels poloto_text" dominant-baseline="start" text-anchor="middle" x="276.26262626262627" y="430" >10000</text><line  class="poloto_axis_lines" stroke="black" x1="339.3939393939394" x2="339.3939393939394" y1="400" y2="405" /><text  class="poloto_tick_labels poloto_text" dominant-baseline="start" text-anchor="middle" x="339.3939393939394" y="430" >15000</text><line  class="poloto_axis_lines" stroke="black" x1="402.52525252525254" x2="402.52525252525254" y1="400" y2="405" /><text  class="poloto_tick_labels poloto_text" dominant-baseline="start" text-anchor="middle" x="402.52525252525254" y="430" >20000</text><line  class="poloto_axis_lines" stroke="black" x1="465.65656565656565" x2="465.65656565656565" y1="400" y2="405" /><text  class="poloto_tick_labels poloto_text" dominant-baseline="start" text-anchor="middle" x="465.65656565656565" y="430" >25000</text><line  class="poloto_axis_lines" stroke="black" x1="528.7878787878788" x2="528.7878787878788" y1="400" y2="405" /><text  class="poloto_tick_labels poloto_text" dominant-baseline="start" text-anchor="middle" x="528.7878787878788" y="430" >30000</text><line  class="poloto_axis_lines" stroke="black" x1="591.9191919191919" x2="591.9191919191919" y1="400" y2="405" /><text  class="poloto_tick_labels poloto_text" dominant-baseline="start" text-anchor="middle" x="591.9191919191919" y="430" >35000</text><path  stroke="black" fill="none" class="poloto_axis_lines" style="stroke-dasharray:6.313131313131313;stroke-dashoffset:-0;" d=" M 150 400 L 650 400" /><path  stroke="black" fill="none" class="poloto_axis_lines" style="stroke-dasharray:13.703939005411959;stroke-dashoffset:-0;" d=" M 150 400 L 150 100" /></svg>