<svg class="poloto" width="800" height="500" viewBox="0 0 800 500" xmlns="http://www.w3.org/2000/svg"><style>.poloto {
            font-family: "Arial";
            stroke-width:2;
            }
            .poloto_text{fill: var(--poloto_fg_color,black);  }
            .poloto_axis_lines{stroke: var(--poloto_fg_color,black);stoke-width:3;fill:none}
            .poloto_background{fill: var(--poloto_bg_color,aliceblue); }
            .poloto0stroke{stroke:  var(--poloto_color0,blue); }
            .poloto1stroke{stroke:  var(--poloto_color1,red); }
            .poloto2stroke{stroke:  var(--poloto_color2,green); }
            .poloto3stroke{stroke:  var(--poloto_color3,gold); }
            .poloto4stroke{stroke:  var(--poloto_color4,aqua); }
            .poloto5stroke{stroke:  var(--poloto_color5,brown); }
            .poloto6stroke{stroke:  var(--poloto_color6,lime); }
            .poloto7stroke{stroke:  var(--poloto_color7,chocolate); }
            .poloto0fill{fill:var(--poloto_color0,blue);}
            .poloto1fill{fill:var(--poloto_color1,red);}
            .poloto2fill{fill:var(--poloto_color2,green);}
            .poloto3fill{fill:var(--poloto_color3,gold);}
            .poloto4fill{fill:var(--poloto_color4,aqua);}
            .poloto5fill{fill:var(--poloto_color5,brown);}
            .poloto6fill{fill:var(--poloto_color6,lime);}
            .poloto7fill{fill:var(--poloto_color7,chocolate);}</style><rect class="poloto_background" fill="white" x="0" y="0" width="800" height="500"/><line class="poloto_axis_lines" stroke="black" x1="150" x2="150" y1="400" y2="405"/><text class="poloto_text" alignment-baseline="start" text-anchor="middle" x="150" y="430">0</text><line class="poloto_axis_lines" stroke="black" x1="213.13131313131314" x2="213.13131313131314" y1="400" y2="405"/><text class="poloto_text" alignment-baseline="start" text-anchor="middle" x="213.13131313131314" y="430">5000</text><line class="poloto_axis_lines" stroke="black" x1="276.26262626262627" x2="276.26262626262627" y1="400" y2="405"/><text class="poloto_text" alignment-baseline="start" text-anchor="middle" x="276.26262626262627" y="430">10000</text><line class="poloto_axis_lines" stroke="black" x1="339.3939393939394" x2="339.3939393939394" y1="400" y2="405"/><text class="poloto_text" alignment-baseline="start" text-anchor="middle" x="339.3939393939394" y="430">15000</text><line class="poloto_axis_lines" stroke="black" x1="402.52525252525254" x2="402.52525252525254" y1="400" y2="405"/><text class="poloto_text" alignment-baseline="start" text-anchor="middle" x="402.52525252525254" y="430">20000</text><line class="poloto_axis_lines" stroke="black" x1="465.65656565656565" x2="465.65656565656565" y1="400" y2="405"/><text class="poloto_text" alignment-baseline="start" text-anchor="middle" x="465.65656565656565" y="430">25000</text><line class="poloto_axis_lines" stroke="black" x1="528.7878787878788" x2="528.7878787878788" y1="400" y2="405"/><text class="poloto_text" alignment-baseline="start" text-anchor="middle" x="528.7878787878788" y="430">30000</text><line class="poloto_axis_lines" stroke="black" x1="591.9191919191919" x2="591.9191919191919" y1="400" y2="405"/><text class="poloto_text" alignment-baseline="start" text-anchor="middle" x="591.9191919191919" y="430">35000</text><line class="poloto_axis_lines" stroke="black" x1="150" x2="144" y1="357.2348966131705" y2="357.2348966131705"/><text class="poloto_text" alignment-baseline="middle" text-anchor="end" x="135" y="357.2348966131705">0.002</text><line class="poloto_axis_lines" stroke="black" x1="150" x2="144" y1="314.4613668409759" y2="314.4613668409759"/><text class="poloto_text" alignment-baseline="middle" text-anchor="end" x="135" y="314.4613668409759">0.004</text><line class="poloto_axis_lines" stroke="black" x1="150" x2="144" y1="271.68783706878133" y2="271.68783706878133"/><text class="poloto_text" alignment-baseline="middle" text-anchor="end" x="135" y="271.68783706878133">0.006</text><line class="poloto_axis_lines" stroke="black" x1="150" x2="144" y1="228.91430729658674" y2="228.91430729658674"/><text class="poloto_text" alignment-baseline="middle" text-anchor="end" x="135" y="228.91430729658674">0.008</text><line class="poloto_axis_lines" stroke="black" x1="150" x2="144" y1="186.1407775243921" y2="186.1407775243921"/><text class="poloto_text" alignment-baseline="middle" text-anchor="end" x="135" y="186.1407775243921">0.010</text><line class="poloto_axis_lines" stroke="black" x1="150" x2="144" y1="143.36724775219756" y2="143.36724775219756"/><text class="poloto_text" alignment-baseline="middle" text-anchor="end" x="135" y="143.36724775219756">0.012</text><line class="poloto_axis_lines" stroke="black" x1="150" x2="144" y1="100.5937179800029" y2="100.5937179800029"/><text class="poloto_text" alignment-baseline="middle" text-anchor="end" x="135" y="100.5937179800029">0.014</text><text class="poloto_text" alignment-baseline="middle" text-anchor="start" font-size="large" x="675" y="100">bench</text><line class="poloto0stroke" stroke="black" x1="680" x2="730" y1="81.25" y2="81.25"/><polyline class="poloto0stroke" fill="none" stroke="black" points="150,400 155.05050505050505,397.5960848532729 160.1010101010101,394.8512219007316 165.15151515151516,393.6054000725867 170.2020202020202,391.04459161865515 175.25252525252526,388.60662874222936 180.3030303030303,386.6861400289876 185.35353535353534,382.92536297082694 190.40404040404042,381.39751387412906 195.45454545454544,376.35650368312173 200.50505050505052,365.52483441831953 205.55555555555554,367.7765185725874 210.6060606060606,369.81570383094703 215.65656565656565,365.7717873924593 220.7070707070707,367.0040072381367 225.75757575757575,365.09483212351967 230.8080808080808,361.3648947803248 235.85858585858585,357.3730765010996 240.9090909090909,341.88957200592245 245.95959595959596,355.5732091418154 251.010101010101,353.2275301558732 256.06060606060606,339.5938525027541 261.1111111111111,349.3436936525579 266.16161616161617,347.2657128026949 271.2121212121212,344.60522063762926 276.26262626262627,342.5893469529955 281.3131313131313,333.11631470111246 286.3636363636364,325.57741591846855 291.4141414141414,332.1667423401698 296.4646464646464,326.1984875707608 301.5151515151515,329.7591486698822 306.5656565656566,317.9199916848258 311.6161616161616,315.6332973964394 316.66666666666663,318.01142010471386 321.7171717171717,310.1982146756408 326.7676767676768,306.7013075226448 331.8181818181818,296.12108245260856 336.86868686868684,304.9894039273372 341.9191919191919,298.3419696654404 346.969696969697,297.0623781355403 352.020202020202,286.6407359271344 357.07070707070704,286.0286681028592 362.1212121212121,294.337811222876 367.1717171717172,284.4677978411772 372.22222222222223,284.39311525819494 377.27272727272725,290.96911772537214 382.32323232323233,293.04919447819395 387.37373737373736,291.7355552185952 392.4242424242424,289.70092534115633 397.47474747474746,287.60696857792345 402.52525252525254,285.48512347327903 407.57575757575756,282.2035382691563 412.62626262626264,280.2348651746261 417.67676767676767,278.00396895582753 422.72727272727275,275.429088010601 427.77777777777777,273.3422958136049 432.8282828282828,271.0204202969809 437.8787878787879,268.0765534971745 442.9292929292929,264.57631000885624 447.979797979798,248.97515692004066 453.030303030303,240.89726888873727 458.0808080808081,230.3190541746003 463.1313131313131,234.76198348556787 468.1818181818182,243.90700692439285 473.2323232323232,226.70114070587874 478.2828282828283,247.64239789263374 483.3333333333333,245.56647017219981 488.3838383838384,236.03667744630906 493.4343434343434,214.4717821954755 498.4848484848485,183.97712129439546 503.5353535353535,224.13147813128438 508.5858585858586,221.68703506509814 513.6363636363636,229.31364097053998 518.6868686868687,225.43985624672118 523.7373737373737,222.10388449949306 528.7878787878788,219.20383918093825 533.8383838383838,212.87641508203214 538.8888888888889,191.59735394390125 543.939393939394,206.47212695012544 548.989898989899,197.4528790755956 554.040404040404,207.633342736381 559.090909090909,204.47847411420832 564.1414141414141,197.72224537933602 569.1919191919192,194.79888848705536 574.2424242424242,158.7692900599236 579.2929292929293,168.3500902200677 584.3434343434344,100 589.3939393939394,163.8278801716673 594.4444444444445,166.79786021139964 599.4949494949494,169.64435307067964 604.5454545454545,146.31838605206522 609.5959595959596,180.0638779893618 614.6464646464647,175.8586197965734 619.6969696969697,152.97910149495627 624.7474747474747,172.56666201148084 629.7979797979798,170.23854155951008 634.8484848484848,164.16733090393942 639.8989898989898,164.7890013856485 644.9494949494949,162.1251301117309 650,161.1062432457923 "/><text class="poloto_text" alignment-baseline="middle" text-anchor="start" font-size="large" x="675" y="150">bench_par</text><line class="poloto1stroke" stroke="black" x1="680" x2="730" y1="131.25" y2="131.25"/><polyline class="poloto1stroke" fill="none" stroke="black" points="150,399.99285682052806 155.05050505050505,398.0086997082204 160.1010101010101,395.1444772208498 165.15151515151516,393.6630374039547 170.2020202020202,391.124984467862 175.25252525252526,388.2701935438062 180.3030303030303,389.1413192511467 185.35353535353534,384.983240261697 190.40404040404042,384.8774185490406 195.45454545454544,383.46734636657044 200.50505050505052,380.8435111165196 205.55555555555554,375.604267001783 210.6060606060606,373.78681972176247 215.65656565656565,375.29702473742935 220.7070707070707,379.53109090251934 225.75757575757575,384.12759857213405 230.8080808080808,368.4628626313121 235.85858585858585,380.5526511140687 240.9090909090909,381.70580408996216 245.95959595959596,375.0904499753945 251.010101010101,382.243018237136 256.06060606060606,380.20237867876415 261.1111111111111,379.0048909392618 266.16161616161617,371.7164953337287 271.2121212121212,372.36800035245386 276.26262626262627,350.84412491667183 281.3131313131313,368.735886071848 286.3636363636364,368.32280070807303 291.4141414141414,334.95102110039613 296.4646464646464,350.0664807586484 301.5151515151515,347.14628910757096 306.5656565656566,362.1032942247822 311.6161616161616,361.24844384552 316.66666666666663,349.8050703314457 321.7171717171717,356.81838936701376 326.7676767676768,367.7324190633923 331.8181818181818,359.2901005584298 336.86868686868684,358.4429494145266 341.9191919191919,364.3608811261586 346.969696969697,345.9999371229112 352.020202020202,340.37733524759136 357.07070707070704,346.97061822079655 362.1212121212121,362.95651920991304 367.1717171717172,358.83715026490717 372.22222222222223,334.330484117226 377.27272727272725,365.1321948017757 382.32323232323233,353.8538843390923 387.37373737373736,355.88267562971726 392.4242424242424,364.6079410341228 397.47474747474746,362.26397298937144 402.52525252525254,362.27840905566956 407.57575757575756,362.64311755727215 412.62626262626264,357.5345465759896 417.67676767676767,359.17418429274716 422.72727272727275,357.0233173481524 427.77777777777777,356.22952618264 432.8282828282828,358.322520541453 437.8787878787879,357.7526915778278 442.9292929292929,356.5024640761163 447.979797979798,201.67398486116463 453.030303030303,298.4375043441866 458.0808080808081,316.49565453017664 463.1313131313131,351.36991853139654 468.1818181818182,275.63386628438536 473.2323232323232,324.1668946139357 478.2828282828283,328.7220616670256 483.3333333333333,331.5018705933908 488.3838383838384,302.2353446658949 493.4343434343434,169.68924389017556 498.4848484848485,298.37315156864435 503.5353535353535,304.93014120183784 508.5858585858586,342.9144471660291 513.6363636363636,344.61009682002333 518.6868686868687,345.38087582651826 523.7373737373737,344.2846330319867 528.7878787878788,323.9810864006053 533.8383838383838,240.73716756679994 538.8888888888889,303.4052007051644 543.939393939394,287.2324863247679 548.989898989899,315.5170603292835 554.040404040404,341.71610395593126 559.090909090909,338.016086696812 564.1414141414141,335.19239212890056 569.1919191919192,281.8232602027166 574.2424242424242,207.7939145671458 579.2929292929293,295.1115416029252 584.3434343434344,293.61744082121754 589.3939393939394,233.41457452421398 594.4444444444445,260.76619368410337 599.4949494949494,268.07854246630893 604.5454545454545,117.23133785549345 609.5959595959596,325.0121209489992 614.6464646464647,331.50999756404747 619.6969696969697,307.2995167232739 624.7474747474747,322.3302420190475 629.7979797979798,326.5743813503988 634.8484848484848,326.40525481367956 639.8989898989898,326.25174061532715 644.9494949494949,326.4662926406645 650,324.9193023893935 "/><text class="poloto_text" alignment-baseline="middle" text-anchor="start" font-size="large" x="675" y="200">collect</text><line class="poloto2stroke" stroke="black" x1="680" x2="730" y1="181.25" y2="181.25"/><polyline class="poloto2stroke" fill="none" stroke="black" points="150,399.9899909940333 155.05050505050505,397.4087154061058 160.1010101010101,394.67567933454654 165.15151515151516,392.6405361747504 170.2020202020202,389.9318810151613 175.25252525252526,386.0955017431283 180.3030303030303,384.59152027604324 185.35353535353534,381.1122999776081 190.40404040404042,376.80273853247013 195.45454545454544,375.76235796782106 200.50505050505052,372.2998835062917 205.55555555555554,372.13484184166566 210.6060606060606,364.5086850582864 215.65656565656565,362.20259297414833 220.7070707070707,362.72977672859065 225.75757575757575,339.3420447329852 230.8080808080808,358.9962036353651 235.85858585858585,341.6688819790628 240.9090909090909,342.61618734292756 245.95959595959596,351.77372203921095 251.010101010101,337.01291910306475 256.06060606060606,344.36047050027275 261.1111111111111,345.6103344269812 266.16161616161617,342.97544221948425 271.2121212121212,340.56224521679655 276.26262626262627,333.7528062108876 281.3131313131313,319.63901707284055 286.3636363636364,326.7188489472044 291.4141414141414,307.4843625321844 296.4646464646464,312.88655240858816 301.5151515151515,307.74481055496733 306.5656565656566,312.2985233080449 311.6161616161616,296.03339671657557 316.66666666666663,290.4118214059702 321.7171717171717,302.3722413479308 326.7676767676768,289.65663335107723 331.8181818181818,280.29440592806907 336.86868686868684,294.5614740100548 341.9191919191919,273.7244559153546 346.969696969697,248.2568824213411 352.020202020202,281.4235415669954 357.07070707070704,279.702398889257 362.1212121212121,279.1204008564116 367.1717171717172,268.2504706692282 372.22222222222223,257.4634355827434 377.27272727272725,285.05668241231587 382.32323232323233,279.50587590671864 387.37373737373736,279.2114870880615 392.4242424242424,278.16289400569616 397.47474747474746,276.3564181360622 402.52525252525254,273.0425603037263 407.57575757575756,270.8285596291877 412.62626262626264,262.4766429793988 417.67676767676767,265.28245821186545 422.72727272727275,263.4457414566825 427.77777777777777,260.615673632835 432.8282828282828,258.60767027767935 437.8787878787879,255.38087796519474 442.9292929292929,251.59208424503328 447.979797979798,245.95592316077565 453.030303030303,165.10907570893383 458.0808080808081,219.12434457585664 463.1313131313131,239.94305559981427 468.1818181818182,201.89542342479527 473.2323232323232,233.55333185479498 478.2828282828283,232.135154088433 483.3333333333333,229.4540664687821 488.3838383838384,201.52305846136343 493.4343434343434,196.58472612857426 498.4848484848485,215.4244128637969 503.5353535353535,207.71196048410226 508.5858585858586,215.75357656215883 513.6363636363636,214.2784886144349 518.6868686868687,208.98438744776553 523.7373737373737,204.65181384361014 528.7878787878788,189.72932696492506 533.8383838383838,147.12751152800098 538.8888888888889,191.48965019593487 543.939393939394,139.0769130086922 548.989898989899,171.04398851188537 554.040404040404,192.52506903113039 559.090909090909,187.13611756219112 564.1414141414141,182.0330857530141 569.1919191919192,135.03427977609772 574.2424242424242,162.12782484410656 579.2929292929293,167.75179547237914 584.3434343434344,168.61669763113775 589.3939393939394,118.63865114529335 594.4444444444445,139.12706497235013 599.4949494949494,138.93152578099654 604.5454545454545,162.36656530053006 609.5959595959596,162.7467792066751 614.6464646464647,159.19456587968364 619.6969696969697,157.17631826414754 624.7474747474747,160.40486429135277 629.7979797979798,156.20848160599206 634.8484848484848,128.87067829621913 639.8989898989898,147.6295444469372 644.9494949494949,145.75679099292122 650,142.9516815236958 "/><text class="poloto_text" alignment-baseline="middle" text-anchor="start" font-size="large" x="675" y="250">collect_par</text><line class="poloto3stroke" stroke="black" x1="680" x2="730" y1="231.25" y2="231.25"/><polyline class="poloto3stroke" fill="none" stroke="black" points="150,399.9712561879931 155.05050505050505,397.409421169347 160.1010101010101,395.18192544616534 165.15151515151516,392.6326658452723 170.2020202020202,390.0837484326175 175.25252525252526,379.874198771587 180.3030303030303,364.4774817683176 185.35353535353534,376.48461040478946 190.40404040404042,380.6412778677566 195.45454545454544,380.4238386291597 200.50505050505052,375.76710582962573 205.55555555555554,375.233056923655 210.6060606060606,380.9719172528957 215.65656565656565,371.95564213868505 220.7070707070707,359.948556275743 225.75757575757575,376.84042201219944 230.8080808080808,351.7627078552946 235.85858585858585,359.0003098942232 240.9090909090909,378.84739880264056 245.95959595959596,377.26494929518844 251.010101010101,377.88661977689753 256.06060606060606,377.5018291030669 261.1111111111111,374.5583900385582 266.16161616161617,368.1992921408558 271.2121212121212,365.09735576177627 276.26262626262627,364.35063686577814 281.3131313131313,365.35853093456524 286.3636363636364,242.9325831426525 291.4141414141414,311.52778707507974 296.4646464646464,361.23056451007517 301.5151515151515,355.14386983672705 306.5656565656566,329.3334878883542 311.6161616161616,355.79158939806734 316.66666666666663,368.5565794350429 321.7171717171717,335.763119336651 326.7676767676768,337.9352447255426 331.8181818181818,350.1813918463814 336.86868686868684,338.7619073486849 341.9191919191919,321.1475539208463 346.969696969697,300.77107842120336 352.020202020202,328.5909821850387 357.07070707070704,359.81863167905993 362.1212121212121,352.71467553390454 367.1717171717172,338.8532716082783 372.22222222222223,342.7817636766757 377.27272727272725,357.80354930472697 382.32323232323233,355.22182459473686 387.37373737373736,349.37669343077715 392.4242424242424,356.9230561943663 397.47474747474746,357.1810875127171 402.52525252525254,355.01514289887757 407.57575757575756,353.4731143770602 412.62626262626264,340.0106805503841 417.67676767676767,351.9895572704414 422.72727272727275,350.18834254496943 427.77777777777777,351.40199867872565 432.8282828282828,352.68770682338317 437.8787878787879,343.14523174591494 442.9292929292929,301.94993828848993 447.979797979798,324.68039083885094 453.030303030303,298.05070331445665 458.0808080808081,225.17975041217642 463.1313131313131,318.73499852110524 468.1818181818182,283.069937501457 473.2323232323232,320.88453948627705 478.2828282828283,323.0794845533021 483.3333333333333,302.89904014060517 488.3838383838384,275.10191328137347 493.4343434343434,248.21134999889858 498.4848484848485,302.4671558104953 503.5353535353535,331.96136523696856 508.5858585858586,337.45036399204497 513.6363636363636,337.8862904207183 518.6868686868687,337.03736417532957 523.7373737373737,333.21497184753207 528.7878787878788,205.27923736507358 533.8383838383838,281.72210080480534 538.8888888888889,197.7910038284448 543.939393939394,299.6212403938672 548.989898989899,330.0873927373541 554.040404040404,330.3326989305976 559.090909090909,318.908915693159 564.1414141414141,325.26091318491916 569.1919191919192,258.0488554979705 574.2424242424242,239.29056678990432 579.2929292929293,206.60053308650157 584.3434343434344,272.495272990291 589.3939393939394,182.61482714468085 594.4444444444445,154.59053006882905 599.4949494949494,289.9469159108762 604.5454545454545,303.311954410261 609.5959595959596,311.3944833695447 614.6464646464647,318.50310182944526 619.6969696969697,313.40680685120736 624.7474747474747,308.9699299947025 629.7979797979798,313.0869036220411 634.8484848484848,313.3196130107667 639.8989898989898,314.97477751883156 644.9494949494949,312.07430446497904 650,311.95943615077584 "/><text class="poloto_text" alignment-baseline="start" text-anchor="middle" font-size="x-large" x="400" y="37.5">Bench of query vs collect with abspiral(0.2,n)</text><text class="poloto_text" alignment-baseline="start" text-anchor="middle" font-size="x-large" x="400" y="481.25">Number of Elements</text><text class="poloto_text" alignment-baseline="start" text-anchor="middle" font-size="x-large" transform="rotate(-90,37.5,250)" x="37.5" y="250">Time in Seconds</text><path stroke="black" fill="none" class="poloto_axis_lines" d=" M 150 100 L 150 400 L 650 400"/></svg>