<svg class="poloto" width="800" height="500" viewBox="0 0 800 500" xmlns="http://www.w3.org/2000/svg" ><rect class="poloto_background" fill="white" x="0" y="0" width="800" height="500" /><style><style>.poloto {
            font-family: "Arial";
            stroke-width:2;
            }
            .poloto_text{fill: var(--poloto_fg_color,black);  }
            .poloto_axis_lines{stroke: var(--poloto_fg_color,black);stoke-width:3;fill:none}
            .poloto_background{fill: var(--poloto_bg_color,aliceblue); }
            .poloto0stroke{stroke:  var(--poloto_color0,blue); }
            .poloto1stroke{stroke:  var(--poloto_color1,red); }
            .poloto2stroke{stroke:  var(--poloto_color2,green); }
            .poloto3stroke{stroke:  var(--poloto_color3,gold); }
            .poloto4stroke{stroke:  var(--poloto_color4,aqua); }
            .poloto5stroke{stroke:  var(--poloto_color5,brown); }
            .poloto6stroke{stroke:  var(--poloto_color6,lime); }
            .poloto7stroke{stroke:  var(--poloto_color7,chocolate); }
            .poloto0fill{fill:var(--poloto_color0,blue);}
            .poloto1fill{fill:var(--poloto_color1,red);}
            .poloto2fill{fill:var(--poloto_color2,green);}
            .poloto3fill{fill:var(--poloto_color3,gold);}
            .poloto4fill{fill:var(--poloto_color4,aqua);}
            .poloto5fill{fill:var(--poloto_color5,brown);}
            .poloto6fill{fill:var(--poloto_color6,lime);}
            .poloto7fill{fill:var(--poloto_color7,chocolate);}</style></style><line class="poloto_axis_lines" stroke="black" x1="150" x2="150" y1="400" y2="405" /><text class="poloto_text" alignment-baseline="start" text-anchor="middle" x="150" y="430" >0</text><line class="poloto_axis_lines" stroke="black" x1="213.13132" x2="213.13132" y1="400" y2="405" /><text class="poloto_text" alignment-baseline="start" text-anchor="middle" x="213.13132" y="430" >5000</text><line class="poloto_axis_lines" stroke="black" x1="276.26263" x2="276.26263" y1="400" y2="405" /><text class="poloto_text" alignment-baseline="start" text-anchor="middle" x="276.26263" y="430" >10000</text><line class="poloto_axis_lines" stroke="black" x1="339.39392" x2="339.39392" y1="400" y2="405" /><text class="poloto_text" alignment-baseline="start" text-anchor="middle" x="339.39392" y="430" >15000</text><line class="poloto_axis_lines" stroke="black" x1="402.52527" x2="402.52527" y1="400" y2="405" /><text class="poloto_text" alignment-baseline="start" text-anchor="middle" x="402.52527" y="430" >20000</text><line class="poloto_axis_lines" stroke="black" x1="465.65656" x2="465.65656" y1="400" y2="405" /><text class="poloto_text" alignment-baseline="start" text-anchor="middle" x="465.65656" y="430" >25000</text><line class="poloto_axis_lines" stroke="black" x1="528.78784" x2="528.78784" y1="400" y2="405" /><text class="poloto_text" alignment-baseline="start" text-anchor="middle" x="528.78784" y="430" >30000</text><line class="poloto_axis_lines" stroke="black" x1="591.9192" x2="591.9192" y1="400" y2="405" /><text class="poloto_text" alignment-baseline="start" text-anchor="middle" x="591.9192" y="430" >35000</text><line class="poloto_axis_lines" stroke="black" x1="150" x2="144" y1="350.8442" y2="350.8442" /><text class="poloto_text" alignment-baseline="middle" text-anchor="end" x="135" y="350.8442" >0.002</text><line class="poloto_axis_lines" stroke="black" x1="150" x2="144" y1="301.67908" y2="301.67908" /><text class="poloto_text" alignment-baseline="middle" text-anchor="end" x="135" y="301.67908" >0.004</text><line class="poloto_axis_lines" stroke="black" x1="150" x2="144" y1="252.51392" y2="252.51392" /><text class="poloto_text" alignment-baseline="middle" text-anchor="end" x="135" y="252.51392" >0.006</text><line class="poloto_axis_lines" stroke="black" x1="150" x2="144" y1="203.34875" y2="203.34875" /><text class="poloto_text" alignment-baseline="middle" text-anchor="end" x="135" y="203.34875" >0.008</text><line class="poloto_axis_lines" stroke="black" x1="150" x2="144" y1="154.18361" y2="154.18361" /><text class="poloto_text" alignment-baseline="middle" text-anchor="end" x="135" y="154.18361" >0.010</text><line class="poloto_axis_lines" stroke="black" x1="150" x2="144" y1="105.01843" y2="105.01843" /><text class="poloto_text" alignment-baseline="middle" text-anchor="end" x="135" y="105.01843" >0.012</text><text class="poloto_text" alignment-baseline="middle" text-anchor="start" font-size="large" x="675" y="100" >bench</text><line class="poloto0stroke" stroke="black" x1="680" x2="730" y1="81.25" y2="81.25" /><polyline class="poloto0stroke" fill="none" stroke="black"  points="150,399.99393 155.0505,397.663 160.10101,394.97913 165.15152,392.40918 170.20203,389.58774 175.25253,386.79083 180.30302,384.83725 185.35353,381.8857 190.40404,379.25107 195.45454,376.4728 200.50505,373.57294 205.55556,371.6172 210.60606,368.54996 215.65656,365.68683 220.70706,363.53137 225.75757,360.21436 230.80807,358.02817 235.85858,354.42438 240.90909,351.49887 245.9596,348.79645 251.0101,345.50278 256.0606,344.39117 261.1111,341.7367 266.16162,339.01303 271.21213,336.1095 276.26263,333.80145 281.3131,330.89545 286.36365,328.79846 291.41412,325.93594 296.46466,323.2891 301.51514,320.77618 306.56567,318.20667 311.61615,315.56985 316.66666,312.33795 321.71716,309.7469 326.76767,306.5451 331.81818,303.23114 336.86868,300.55 341.9192,297.28546 346.9697,294.6588 352.0202,292.06506 357.0707,289.4009 362.12122,287.06567 367.1717,284.36328 372.22223,281.96735 377.2727,279.67816 382.32324,276.11603 387.37372,273.83624 392.42426,271.50082 397.47473,268.40338 402.52527,266.56458 407.57574,263.25006 412.62625,260.46082 417.67676,258.1423 422.72726,255.62581 427.77777,252.29076 432.82828,250.02432 437.87878,246.77261 442.9293,244.4261 447.9798,240.8313 453.0303,238.28973 458.0808,235.53592 463.13132,232.74918 468.18182,229.1695 473.23233,226.25632 478.28284,222.92 483.3333,221.10617 488.38382,217.94145 493.43433,213.7826 498.48483,211.7349 503.53534,208.40646 508.58585,205.62206 513.63635,201.76848 518.6869,198.92432 523.73737,195.95134 528.78784,192.959 533.8384,189.82164 538.8889,186.52458 543.9394,182.77646 548.98987,179.94519 554.0404,176.84889 559.09094,173.20294 564.1414,173.52939 569.1919,170.88792 574.24243,168.12207 579.2929,166.25298 584.3434,164.41275 589.3939,160.415 594.44446,157.57855 599.49493,155.62982 604.5454,153.6256 609.59595,152.10791 614.6465,148.71948 619.69696,145.60458 624.74744,144.05803 629.798,141.03326 634.8485,137.51044 639.899,134.75842 644.94946,132.64725 650,130.07965 "/><text class="poloto_text" alignment-baseline="middle" text-anchor="start" font-size="large" x="675" y="150" >bench_par</text><line class="poloto1stroke" stroke="black" x1="680" x2="730" y1="131.25" y2="131.25" /><polyline class="poloto1stroke" fill="none" stroke="black"  points="150,400 155.0505,397.7443 160.10101,395.0324 165.15152,392.62173 170.20203,389.5424 175.25253,386.72943 180.30302,386.99625 185.35353,384.04822 190.40404,382.49554 195.45454,381.28943 200.50505,379.54053 205.55556,386.44577 210.60606,381.60052 215.65656,378.99686 220.70706,382.82104 225.75757,382.1354 230.80807,380.87778 235.85858,378.71307 240.90909,377.69214 245.9596,377.8208 251.0101,374.75858 256.0606,376.868 261.1111,372.225 266.16162,372.21585 271.21213,375.49292 276.26263,374.83203 281.3131,370.94388 286.36365,370.0821 291.41412,368.7223 296.46466,368.6932 301.51514,366.434 306.56567,370.89587 311.61615,366.3719 316.66666,367.98267 321.71716,367.93735 326.76767,365.84766 331.81818,363.60092 336.86868,365.31354 341.9192,361.8789 346.9697,358.85638 352.0202,358.14886 357.0707,358.42722 362.12122,360.50217 367.1717,361.2857 372.22223,358.92178 377.2727,359.5142 382.32324,355.7437 387.37372,358.9087 392.42426,355.7487 397.47473,355.5907 402.52527,355.71005 407.57574,354.0871 412.62625,351.21997 417.67676,353.95975 422.72726,354.11624 427.77777,350.6653 432.82828,347.15884 437.87878,344.11874 442.9293,348.87677 447.9798,346.70892 453.0303,347.56628 458.0808,347.2522 463.13132,345.83994 468.18182,344.91602 473.23233,333.43082 478.28284,342.20383 483.3333,342.59305 488.38382,339.39462 493.43433,339.70288 498.48483,337.65445 503.53534,338.23654 508.58585,336.82434 513.63635,337.48907 518.6869,337.07486 523.73737,335.75262 528.78784,333.4581 533.8384,332.9269 538.8889,332.4834 543.9394,330.50574 548.98987,326.65887 554.0404,328.56546 559.09094,329.78525 564.1414,324.18777 569.1919,322.94894 574.24243,324.95605 579.2929,320.01138 584.3434,320.7669 589.3939,318.01334 594.44446,320.80536 599.49493,321.36438 604.5454,317.22614 609.59595,320.62543 614.6465,314.9233 619.69696,318.853 624.74744,316.82788 629.798,316.19714 634.8485,314.48914 639.899,314.16824 644.94946,270.56647 650,313.84702 "/><text class="poloto_text" alignment-baseline="middle" text-anchor="start" font-size="large" x="675" y="200" >collect</text><line class="poloto2stroke" stroke="black" x1="680" x2="730" y1="181.25" y2="181.25" /><polyline class="poloto2stroke" fill="none" stroke="black"  points="150,399.99854 155.0505,397.37408 160.10101,394.29703 165.15152,391.7011 170.20203,388.5809 175.25253,385.1848 180.30302,382.74234 185.35353,379.63956 190.40404,376.6745 195.45454,373.66513 200.50505,369.66455 205.55556,368.29953 210.60606,364.7978 215.65656,361.8883 220.70706,359.1134 225.75757,356.2604 230.80807,353.58124 235.85858,350.55466 240.90909,346.4547 245.9596,343.7137 251.0101,340.48157 256.0606,336.7963 261.1111,333.97235 266.16162,331.38474 271.21213,327.98203 276.26263,325.7112 281.3131,322.8316 286.36365,319.68628 291.41412,316.6922 296.46466,313.925 301.51514,311.2453 306.56567,308.49744 311.61615,305.6061 316.66666,302.17838 321.71716,299.376 326.76767,295.78793 331.81818,292.08487 336.86868,289.44864 341.9192,285.61124 346.9697,283.27747 352.0202,280.50467 357.0707,280.5953 362.12122,278.44644 367.1717,275.52368 372.22223,272.62897 377.2727,270.28442 382.32324,267.3156 387.37372,265.14563 392.42426,260.79736 397.47473,259.50348 402.52527,255.49196 407.57574,252.73203 412.62625,250.23857 417.67676,248.27841 422.72726,244.62158 427.77777,241.7991 432.82828,239.20912 437.87878,235.00179 442.9293,233.51419 447.9798,230.41562 453.0303,227.56856 458.0808,224.55832 463.13132,221.13132 468.18182,217.64337 473.23233,213.94489 478.28284,210.46236 483.3333,208.38618 488.38382,204.91273 493.43433,201.68538 498.48483,198.41835 503.53534,195.64812 508.58585,191.71568 513.63635,188.91824 518.6869,185.37292 523.73737,181.30846 528.78784,178.6172 533.8384,176.28088 538.8889,172.25096 543.9394,165.94136 548.98987,165.42125 554.0404,161.70917 559.09094,158.48906 564.1414,148.35742 569.1919,145.53856 574.24243,142.18396 579.2929,139.68219 584.3434,137.41064 589.3939,134.03049 594.44446,130.97992 599.49493,128.14096 604.5454,125.77341 609.59595,123.64868 614.6465,120.401825 619.69696,115.83374 624.74744,114.84451 629.798,112.0007 634.8485,108.20859 639.899,104.735535 644.94946,101.366425 650,100 "/><text class="poloto_text" alignment-baseline="middle" text-anchor="start" font-size="large" x="675" y="250" >collect_par</text><line class="poloto3stroke" stroke="black" x1="680" x2="730" y1="231.25" y2="231.25" /><polyline class="poloto3stroke" fill="none" stroke="black"  points="150,399.99298 155.0505,397.46994 160.10101,394.5064 165.15152,391.9353 170.20203,388.73282 175.25253,385.69604 180.30302,385.6834 185.35353,382.67545 190.40404,380.9259 195.45454,379.09225 200.50505,377.49915 205.55556,379.5409 210.60606,381.52423 215.65656,377.4579 220.70706,380.4213 225.75757,380.57397 230.80807,379.93314 235.85858,374.9155 240.90909,378.46597 245.9596,371.80566 251.0101,372.1462 256.0606,369.62122 261.1111,368.73947 266.16162,367.74234 271.21213,363.1645 276.26263,369.0084 281.3131,360.9988 286.36365,356.9079 291.41412,362.1192 296.46466,362.90048 301.51514,363.028 306.56567,364.78046 311.61615,363.57874 316.66666,360.9544 321.71716,361.56122 326.76767,361.0068 331.81818,359.20825 336.86868,358.59518 341.9192,355.47665 346.9697,353.64124 352.0202,352.49213 357.0707,351.68317 362.12122,344.31454 367.1717,351.7487 372.22223,351.65466 377.2727,349.6331 382.32324,345.92163 387.37372,341.78952 392.42426,345.0202 397.47473,345.96744 402.52527,330.46796 407.57574,331.6303 412.62625,343.25308 417.67676,337.5515 422.72726,338.38824 427.77777,341.36078 432.82828,339.753 437.87878,336.0532 442.9293,337.52866 447.9798,336.1753 453.0303,336.826 458.0808,331.5481 463.13132,333.3094 468.18182,334.13245 473.23233,333.32742 478.28284,334.02386 483.3333,330.75497 488.38382,329.9206 493.43433,316.7048 498.48483,329.38052 503.53534,327.75836 508.58585,329.1104 513.63635,327.4766 518.6869,326.27045 523.73737,324.6319 528.78784,322.64038 533.8384,318.63666 538.8889,319.9336 543.9394,296.916 548.98987,320.01166 554.0404,313.87775 559.09094,311.7018 564.1414,308.5539 569.1919,308.86417 574.24243,309.5715 579.2929,306.2266 584.3434,298.54602 589.3939,303.9701 594.44446,302.27048 599.49493,299.6515 604.5454,298.37177 609.59595,299.74286 614.6465,299.52158 619.69696,286.74747 624.74744,294.6358 629.798,291.56525 634.8485,294.05313 639.899,290.43707 644.94946,292.27158 650,291.91492 "/><text class="poloto_text" alignment-baseline="start" text-anchor="middle" font-size="x-large" x="400" y="37.5" >Bench of query vs collect with abspiral(0.2,n)</text><text class="poloto_text" alignment-baseline="start" text-anchor="middle" font-size="x-large" x="400" y="481.25" >Number of Elements</text><text class="poloto_text" alignment-baseline="start" text-anchor="middle" font-size="x-large" transform="rotate(-90,37.5,250)" x="37.5" y="250" >Time in Seconds</text><path stroke="black" fill="none" class="poloto_axis_lines"  d="M 150 100 L 150 400 L 650 400 "/></svg>