<svg  width="800" class="poloto" height="500" viewBox="0 0 800 500" xmlns="http://www.w3.org/2000/svg" ><rect  class="poloto_background" fill="white" x="0" y="0" width="800" height="500" /><text  class="poloto_text" alignment-baseline="middle" text-anchor="start" font-size="large" x="675" y="100" >bench</text><line  class="poloto0stroke" stroke="black" x1="680" x2="730" y1="81.25" y2="81.25" /><path  class="poloto0stroke" fill="none" stroke="black" d=" M 150 399.9824398504293 L 155.05050505050505 397.21604520452263 L 160.1010101010101 394.74409064616316 L 165.15151515151516 391.6912530508896 L 170.2020202020202 388.9351484289352 L 175.25252525252526 386.29799424690725 L 180.3030303030303 383.85702160849104 L 185.35353535353534 380.9165354160441 L 190.40404040404042 377.6713750361409 L 195.45454545454544 374.63414024892535 L 200.50505050505052 370.3801101293542 L 205.55555555555554 370.4982217086324 L 210.6060606060606 366.5281738805265 L 215.65656565656565 364.9216998150219 L 220.7070707070707 363.66542210815373 L 225.75757575757575 358.3477166865601 L 230.8080808080808 356.8033742330716 L 235.85858585858585 354.3108955508509 L 240.9090909090909 352.0147102603283 L 245.95959595959596 347.8304733466942 L 251.010101010101 342.19640561261156 L 256.06060606060606 344.3830357024684 L 261.1111111111111 342.1592720479142 L 266.16161616161617 339.46356539263616 L 271.2121212121212 330.8956664272496 L 276.26262626262627 336.27863520727965 L 281.3131313131313 330.25567167665315 L 286.3636363636364 328.613014755186 L 291.4141414141414 323.7590874240062 L 296.4646464646464 318.75953388428456 L 301.5151515151515 321.62385152986747 L 306.5656565656566 319.6935772541257 L 311.6161616161616 315.24163194560305 L 316.66666666666663 313.5405903230154 L 321.7171717171717 311.12506312426376 L 326.7676767676768 304.9865605203471 L 331.8181818181818 299.13886294116844 L 336.86868686868684 298.26107915880544 L 341.9191919191919 295.05747034301385 L 346.969696969697 292.7784537337594 L 352.020202020202 289.8821475354554 L 357.07070707070704 285.87300880113946 L 362.1212121212121 291.44399421447133 L 367.1717171717172 280.1951525412165 L 372.22222222222223 283.6225693779699 L 377.27272727272725 273.2124765049113 L 382.32323232323233 272.7052454329164 L 387.37373737373736 280.7601531498565 L 392.4242424242424 265.31001772978584 L 397.47474747474746 275.1735090044234 L 402.52525252525254 267.8729607064623 L 407.57575757575756 257.022633765185 L 412.62626262626264 266.752578424616 L 417.67676767676767 249.53826313716357 L 422.72727272727275 245.32807746747596 L 427.77777777777777 256.0697439927791 L 432.8282828282828 244.68344102129234 L 437.8787878787879 239.64613875239795 L 442.9292929292929 250.29513913808745 L 447.979797979798 249.31568544515258 L 453.030303030303 241.23303940277594 L 458.0808080808081 241.7742163690047 L 463.1313131313131 225.4770553903414 L 468.1818181818182 223.0215984247315 L 473.2323232323232 222.14426203471427 L 478.2828282828283 220.37387459853525 L 483.3333333333333 219.91781402608555 L 488.3838383838384 224.51605663166876 L 493.4343434343434 223.70420729626076 L 498.4848484848485 202.8614282366832 L 503.5353535353535 217.12748388968123 L 508.5858585858586 213.60024263578217 L 513.6363636363636 191.95383507514978 L 518.6868686868687 197.8626017095234 L 523.7373737373737 197.37460850839577 L 528.7878787878788 183.44269901363035 L 533.8383838383838 176.7605028615401 L 538.8888888888889 188.436380528814 L 543.939393939394 185.17852539110012 L 548.989898989899 167.49662917829497 L 554.040404040404 187.54126029305314 L 559.090909090909 178.55555280077863 L 564.1414141414141 179.6578156926221 L 569.1919191919192 186.12397726575793 L 574.2424242424242 163.84450953588822 L 579.2929292929293 158.3026046250302 L 584.3434343434344 172.09263482214945 L 589.3939393939394 147.56306321336945 L 594.4444444444445 155.90133805729943 L 599.4949494949494 164.6684384646315 L 604.5454545454545 168.5209898779346 L 609.5959595959596 144.24710299475115 L 614.6464646464647 158.77835046069296 L 619.6969696969697 154.2929625743254 L 624.7474747474747 156.72056936641226 L 629.7979797979798 154.2597436926534 L 634.8484848484848 150.8138159975945 L 639.8989898989898 145.90223097785616 L 644.9494949494949 148.26412701916087 L 650 141.2477287847948" /><text  class="poloto_text" alignment-baseline="middle" text-anchor="start" font-size="large" x="675" y="150" >bench_par</text><line  class="poloto1stroke" stroke="black" x1="680" x2="730" y1="131.25" y2="131.25" /><path  class="poloto1stroke" fill="none" stroke="black" d=" M 150 400 L 155.05050505050505 397.7776903705695 L 160.1010101010101 395.0512814155643 L 165.15151515151516 392.2732545686681 L 170.2020202020202 388.8411960363275 L 175.25252525252526 387.32118054163925 L 180.3030303030303 381.4636962548973 L 185.35353535353534 384.27656378071885 L 190.40404040404042 382.9262218331566 L 195.45454545454544 383.32071003402234 L 200.50505050505052 382.49102092882754 L 205.55555555555554 381.7680348980943 L 210.6060606060606 380.7322097695948 L 215.65656565656565 380.2554013771109 L 220.7070707070707 377.48816787055597 L 225.75757575757575 377.21816658989536 L 230.8080808080808 374.4164279486744 L 235.85858585858585 374.0492306808995 L 240.9090909090909 372.4716134216958 L 245.95959595959596 372.09664271191343 L 251.010101010101 370.44207396924065 L 256.06060606060606 367.8743774488905 L 261.1111111111111 365.700609888974 L 266.16161616161617 361.6728484482662 L 271.2121212121212 359.36100442564236 L 276.26262626262627 360.49441700955873 L 281.3131313131313 361.1109795860465 L 286.3636363636364 359.0982732706002 L 291.4141414141414 356.5892410715867 L 296.4646464646464 359.89692453180857 L 301.5151515151515 361.2630929836018 L 306.5656565656566 360.7948409697304 L 311.6161616161616 361.448425262829 L 316.66666666666663 359.4305180113634 L 321.7171717171717 350.1993039693581 L 326.7676767676768 356.9173474331517 L 331.8181818181818 355.251817578008 L 336.86868686868684 354.09418988337785 L 341.9191919191919 352.3622222648902 L 346.969696969697 352.69099971497377 L 352.020202020202 345.21160632679886 L 357.07070707070704 348.91450500044834 L 362.1212121212121 350.03443988994894 L 367.1717171717172 350.7708476910547 L 372.22222222222223 353.55435509418635 L 377.27272727272725 342.3546706549209 L 382.32323232323233 344.8146574680315 L 387.37373737373736 349.8958041868094 L 392.4242424242424 337.18896678279606 L 397.47474747474746 347.27235139537015 L 402.52525252525254 347.9537858619918 L 407.57575757575756 334.26380377819106 L 412.62626262626264 337.52786648470226 L 417.67676767676767 344.06617007359046 L 422.72727272727275 342.71073903809526 L 427.77777777777777 343.4414985108359 L 432.8282828282828 338.61838532746975 L 437.8787878787879 334.95127804148035 L 442.9292929292929 341.6325794088791 L 447.979797979798 340.8464551333518 L 453.030303030303 340.14891454228314 L 458.0808080808081 338.9372642219036 L 463.1313131313131 336.433321110823 L 468.1818181818182 337.10200489559077 L 473.2323232323232 335.85467503563757 L 478.2828282828283 331.7126607746337 L 483.3333333333333 334.63374132408376 L 488.3838383838384 333.62285831885987 L 493.4343434343434 333.43970707731813 L 498.4848484848485 326.42465101998926 L 503.5353535353535 331.0161827403862 L 508.5858585858586 330.62460258976785 L 513.6363636363636 324.82360158667694 L 518.6868686868687 316.5575246825425 L 523.7373737373737 326.92108875164297 L 528.7878787878788 308.97662915592537 L 533.8383838383838 318.6442185071673 L 538.8888888888889 314.59481446173385 L 543.939393939394 310.96948243602895 L 548.989898989899 307.00530663246104 L 554.040404040404 315.4566598917795 L 559.090909090909 307.29812492275494 L 564.1414141414141 311.119247023769 L 569.1919191919192 307.48876998608796 L 574.2424242424242 308.86450144927153 L 579.2929292929293 309.33057242545743 L 584.3434343434344 296.04508894625866 L 589.3939393939394 311.02809083332227 L 594.4444444444445 304.8294698829454 L 599.4949494949494 303.0685895341136 L 604.5454545454545 304.47150008230153 L 609.5959595959596 301.5381721673866 L 614.6464646464647 300.8644552187292 L 619.6969696969697 298.7223965913177 L 624.7474747474747 301.9940090436634 L 629.7979797979798 301.0470472198387 L 634.8484848484848 296.04050317471473 L 639.8989898989898 297.88202599386807 L 644.9494949494949 293.82641437963736 L 650 292.3836859126776" /><text  class="poloto_text" alignment-baseline="middle" text-anchor="start" font-size="large" x="675" y="200" >collect</text><line  class="poloto2stroke" stroke="black" x1="680" x2="730" y1="181.25" y2="181.25" /><path  class="poloto2stroke" fill="none" stroke="black" d=" M 150 399.98260762255893 L 155.05050505050505 397.10128906783757 L 160.1010101010101 394.2972575408446 L 165.15151515151516 391.8252470584419 L 170.2020202020202 389.2719230171991 L 175.25252525252526 385.054467221893 L 180.3030303030303 383.7596019252038 L 185.35353535353534 379.3784564553962 L 190.40404040404042 376.53080417469255 L 195.45454545454544 374.4909187742419 L 200.50505050505052 371.7371629621027 L 205.55555555555554 368.31103237834327 L 210.6060606060606 364.7697541895963 L 215.65656565656565 360.65268205186806 L 220.7070707070707 361.1015284227425 L 225.75757575757575 358.5160480566488 L 230.8080808080808 352.1284038401922 L 235.85858585858585 346.41089743362704 L 240.9090909090909 343.0971741767375 L 245.95959595959596 344.7608026144117 L 251.010101010101 337.3166413734647 L 256.06060606060606 339.4527161282517 L 261.1111111111111 332.3410233242407 L 266.16161616161617 334.2175545944491 L 271.2121212121212 328.7631708112286 L 276.26262626262627 321.49220633213025 L 281.3131313131313 320.1392918785799 L 286.3636363636364 320.64512484949444 L 291.4141414141414 317.804686770366 L 296.4646464646464 313.95560264774247 L 301.5151515151515 311.8583391789493 L 306.5656565656566 312.42714262252815 L 311.6161616161616 298.24726592013036 L 316.66666666666663 304.506117065054 L 321.7171717171717 300.85785618162936 L 326.7676767676768 298.67167348411823 L 331.8181818181818 291.70940972358795 L 336.86868686868684 293.5113383201424 L 341.9191919191919 289.90736927894704 L 346.969696969697 285.8341975151456 L 352.020202020202 285.96729673800644 L 357.07070707070704 287.23721991142 L 362.1212121212121 283.3751054867265 L 367.1717171717172 274.1063104876782 L 372.22222222222223 273.2299807304388 L 377.27272727272725 276.7542580100473 L 382.32323232323233 265.99480763900056 L 387.37373737373736 264.13057965830035 L 392.4242424242424 267.7444472551454 L 397.47474747474746 257.26103796142695 L 402.52525252525254 253.73558627691085 L 407.57575757575756 259.2905774138821 L 412.62626262626264 253.17964536327233 L 417.67676767676767 242.9242943178003 L 422.72727272727275 241.3151358982212 L 427.77777777777777 240.45261937965694 L 432.8282828282828 237.10394359575565 L 437.8787878787879 234.24566574684042 L 442.9292929292929 231.76940503715312 L 447.979797979798 238.71673707814395 L 453.030303030303 227.36739989922484 L 458.0808080808081 228.1351810885764 L 463.1313131313131 222.52672656628795 L 468.1818181818182 216.70771802128056 L 473.2323232323232 214.42372417217967 L 478.2828282828283 210.96991118702695 L 483.3333333333333 205.75779035903048 L 488.3838383838384 207.99519948013005 L 493.4343434343434 200.17813671899972 L 498.4848484848485 196.47339255192406 L 503.5353535353535 202.40525581614708 L 508.5858585858586 199.4035327963755 L 513.6363636363636 198.85296059088597 L 518.6868686868687 189.56112488603142 L 523.7373737373737 180.26218682768817 L 528.7878787878788 173.54140308577686 L 533.8383838383838 175.7882074461372 L 538.8888888888889 171.74735977931627 L 543.939393939394 179.92311935365225 L 548.989898989899 172.03844442427038 L 554.040404040404 174.25186213082907 L 559.090909090909 171.24370784608735 L 564.1414141414141 167.20123838201306 L 569.1919191919192 173.0601766938787 L 574.2424242424242 142.08535910412667 L 579.2929292929293 165.35854115795203 L 584.3434343434344 151.24157900417546 L 589.3939393939394 140.35825687739901 L 594.4444444444445 132.09486432733905 L 599.4949494949494 157.14363475336285 L 604.5454545454545 128.4752924780857 L 609.5959595959596 147.77618974207644 L 614.6464646464647 134.18748610054513 L 619.6969696969697 113.74618574723564 L 624.7474747474747 140.78557249163424 L 629.7979797979798 109.49970537349895 L 634.8484848484848 133.24483042804826 L 639.8989898989898 101.61922474735849 L 644.9494949494949 100 L 650 104.55199342184119" /><text  class="poloto_text" alignment-baseline="middle" text-anchor="start" font-size="large" x="675" y="250" >collect_par</text><line  class="poloto3stroke" stroke="black" x1="680" x2="730" y1="231.25" y2="231.25" /><path  class="poloto3stroke" fill="none" stroke="black" d=" M 150 399.9473195512878 L 155.05050505050505 397.0908871957988 L 160.1010101010101 394.1112541730987 L 165.15151515151516 391.6726303444977 L 170.2020202020202 388.7053565353489 L 175.25252525252526 385.4665714963727 L 180.3030303030303 379.37291997511755 L 185.35353535353534 383.1329730209367 L 190.40404040404042 381.3989362128499 L 195.45454545454544 379.55131767298565 L 200.50505050505052 378.85215528466364 L 205.55555555555554 378.6576514623485 L 210.6060606060606 376.24117355486214 L 215.65656565656565 374.4095492913585 L 220.7070707070707 373.0840935430286 L 225.75757575757575 367.27347360450403 L 230.8080808080808 368.4607410420401 L 235.85858585858585 366.8192026014374 L 240.9090909090909 367.03551680060787 L 245.95959595959596 361.40972582492157 L 251.010101010101 355.94740082756397 L 256.06060606060606 359.0408392782145 L 261.1111111111111 358.00227387159725 L 266.16161616161617 354.5874958686113 L 271.2121212121212 355.94689751117505 L 276.26262626262627 348.6051891174049 L 281.3131313131313 351.30425121527605 L 286.3636363636364 351.23149403504834 L 291.4141414141414 333.49305861454894 L 296.4646464646464 344.67372887912 L 301.5151515151515 359.54885328681445 L 306.5656565656566 353.34894608344354 L 311.6161616161616 339.2411554727548 L 316.66666666666663 350.35085812648117 L 321.7171717171717 347.09199635598935 L 326.7676767676768 352.2073685892172 L 331.8181818181818 351.85527081311136 L 336.86868686868684 345.88940573061126 L 341.9191919191919 343.804892943672 L 346.969696969697 348.07217706148606 L 352.020202020202 346.2176239402627 L 357.07070707070704 336.2034173691503 L 362.1212121212121 341.58459657979733 L 367.1717171717172 340.84097457711636 L 372.22222222222223 336.16499755145895 L 377.27272727272725 342.08019545080276 L 382.32323232323233 338.1912934094074 L 387.37373737373736 332.97117544323066 L 392.4242424242424 331.1971529442424 L 397.47474747474746 337.680091730344 L 402.52525252525254 329.45897775695744 L 407.57575757575756 326.6664665828676 L 412.62626262626264 328.83369102972756 L 417.67676767676767 334.13165526406493 L 422.72727272727275 332.2696083210502 L 427.77777777777777 326.50909632524974 L 432.8282828282828 329.65219532627856 L 437.8787878787879 332.4329624512925 L 442.9292929292929 321.64040504666025 L 447.979797979798 329.19507219700773 L 453.030303030303 319.9630192943541 L 458.0808080808081 320.98340938692525 L 463.1313131313131 318.0855932394543 L 468.1818181818182 327.6134284066923 L 473.2323232323232 322.2366671954595 L 478.2828282828283 320.827213534215 L 483.3333333333333 311.322139452567 L 488.3838383838384 312.03724019320634 L 493.4343434343434 312.1308570415547 L 498.4848484848485 318.50004632374913 L 503.5353535353535 308.7410770858876 L 508.5858585858586 311.03636759171866 L 513.6363636363636 316.8571657061091 L 518.6868686868687 310.58310322142995 L 523.7373737373737 306.0626509599642 L 528.7878787878788 312.42613598975026 L 533.8383838383838 305.5930008450123 L 538.8888888888889 300.5449052357767 L 543.939393939394 303.2997795287803 L 548.989898989899 305.2994555421566 L 554.040404040404 307.73875045927616 L 559.090909090909 303.1046046179465 L 564.1414141414141 295.22496285245427 L 569.1919191919192 289.7740463599133 L 574.2424242424242 285.71798735333687 L 579.2929292929293 292.6508909911772 L 584.3434343434344 288.382544316542 L 589.3939393939394 291.2433946714453 L 594.4444444444445 289.366639705064 L 599.4949494949494 288.26605453451714 L 604.5454545454545 285.47527700576705 L 609.5959595959596 290.4409964993413 L 614.6464646464647 287.6647592218281 L 619.6969696969697 280.47538792178614 L 624.7474747474747 278.6151305481544 L 629.7979797979798 276.74273765714423 L 634.8484848484848 280.14867966130157 L 639.8989898989898 279.674499698849 L 644.9494949494949 276.0201430947135 L 650 275.23810127434115" /><text  class="poloto_text" alignment-baseline="start" text-anchor="middle" font-size="x-large" x="400" y="37.5" >Bench of query vs collect with abspiral(1.5,n)</text><text  class="poloto_text" alignment-baseline="start" text-anchor="middle" font-size="x-large" x="400" y="481.25" >Number of Elements</text><text  class="poloto_text" alignment-baseline="start" text-anchor="middle" font-size="x-large" transform="rotate(-90,37.5,250)" x="37.5" y="250" >Time in Seconds</text><path  stroke="black" fill="none" class="poloto_axis_lines" d=" M 150 100 L 150 400 L 650 400" /><line  class="poloto_axis_lines" stroke="black" x1="150" x2="150" y1="400" y2="405" /><text  class="poloto_text" alignment-baseline="start" text-anchor="middle" x="150" y="430" > 0</text><line  class="poloto_axis_lines" stroke="black" x1="213.13131313131314" x2="213.13131313131314" y1="400" y2="405" /><text  class="poloto_text" alignment-baseline="start" text-anchor="middle" x="213.13131313131314" y="430" > 5000</text><line  class="poloto_axis_lines" stroke="black" x1="276.26262626262627" x2="276.26262626262627" y1="400" y2="405" /><text  class="poloto_text" alignment-baseline="start" text-anchor="middle" x="276.26262626262627" y="430" > 10000</text><line  class="poloto_axis_lines" stroke="black" x1="339.3939393939394" x2="339.3939393939394" y1="400" y2="405" /><text  class="poloto_text" alignment-baseline="start" text-anchor="middle" x="339.3939393939394" y="430" > 15000</text><line  class="poloto_axis_lines" stroke="black" x1="402.52525252525254" x2="402.52525252525254" y1="400" y2="405" /><text  class="poloto_text" alignment-baseline="start" text-anchor="middle" x="402.52525252525254" y="430" > 20000</text><line  class="poloto_axis_lines" stroke="black" x1="465.65656565656565" x2="465.65656565656565" y1="400" y2="405" /><text  class="poloto_text" alignment-baseline="start" text-anchor="middle" x="465.65656565656565" y="430" > 25000</text><line  class="poloto_axis_lines" stroke="black" x1="528.7878787878788" x2="528.7878787878788" y1="400" y2="405" /><text  class="poloto_text" alignment-baseline="start" text-anchor="middle" x="528.7878787878788" y="430" > 30000</text><line  class="poloto_axis_lines" stroke="black" x1="591.9191919191919" x2="591.9191919191919" y1="400" y2="405" /><text  class="poloto_text" alignment-baseline="start" text-anchor="middle" x="591.9191919191919" y="430" > 35000</text><line  class="poloto_axis_lines" stroke="black" x1="150" x2="144" y1="344.0906648045203" y2="344.0906648045203" /><text  class="poloto_text" alignment-baseline="middle" text-anchor="end" x="135" y="344.0906648045203" > 0.001</text><line  class="poloto_axis_lines" stroke="black" x1="150" x2="144" y1="288.166621585674" y2="288.166621585674" /><text  class="poloto_text" alignment-baseline="middle" text-anchor="end" x="135" y="288.166621585674" > 0.002</text><line  class="poloto_axis_lines" stroke="black" x1="150" x2="144" y1="232.2425783668278" y2="232.2425783668278" /><text  class="poloto_text" alignment-baseline="middle" text-anchor="end" x="135" y="232.2425783668278" > 0.003</text><line  class="poloto_axis_lines" stroke="black" x1="150" x2="144" y1="176.31853514798155" y2="176.31853514798155" /><text  class="poloto_text" alignment-baseline="middle" text-anchor="end" x="135" y="176.31853514798155" > 0.004</text><line  class="poloto_axis_lines" stroke="black" x1="150" x2="144" y1="120.39449192913526" y2="120.39449192913526" /><text  class="poloto_text" alignment-baseline="middle" text-anchor="end" x="135" y="120.39449192913526" > 0.005</text></svg>