<svg class="poloto" width="800" height="500" viewBox="0 0 800 500" xmlns="http://www.w3.org/2000/svg"><style>.poloto {
                    font-family: "Arial";
                    stroke-width:2;
                    }
                    .poloto_text{fill: var(--poloto_fg_color,black);  }
                    .poloto_axis_lines{stroke: var(--poloto_fg_color,black);stoke-width:3;fill:none}
                    .poloto_background{fill: var(--poloto_bg_color,aliceblue); }
                    .poloto0stroke{stroke:  var(--poloto_color0,blue); }
                    .poloto1stroke{stroke:  var(--poloto_color1,red); }
                    .poloto2stroke{stroke:  var(--poloto_color2,green); }
                    .poloto3stroke{stroke:  var(--poloto_color3,gold); }
                    .poloto4stroke{stroke:  var(--poloto_color4,aqua); }
                    .poloto5stroke{stroke:  var(--poloto_color5,brown); }
                    .poloto6stroke{stroke:  var(--poloto_color6,lime); }
                    .poloto7stroke{stroke:  var(--poloto_color7,chocolate); }
                    .poloto0fill{fill:var(--poloto_color0,blue);}
                    .poloto1fill{fill:var(--poloto_color1,red);}
                    .poloto2fill{fill:var(--poloto_color2,green);}
                    .poloto3fill{fill:var(--poloto_color3,gold);}
                    .poloto4fill{fill:var(--poloto_color4,aqua);}
                    .poloto5fill{fill:var(--poloto_color5,brown);}
                    .poloto6fill{fill:var(--poloto_color6,lime);}
                    .poloto7fill{fill:var(--poloto_color7,chocolate);}</style><rect class="poloto_background" fill="white" x="0" y="0" width="800" height="500"/><line class="poloto_axis_lines" stroke="black" x1="150" x2="150" y1="400" y2="405"/><text class="poloto_text" alignment-baseline="start" text-anchor="middle" x="150" y="430">0</text><line class="poloto_axis_lines" stroke="black" x1="213.13131313131314" x2="213.13131313131314" y1="400" y2="405"/><text class="poloto_text" alignment-baseline="start" text-anchor="middle" x="213.13131313131314" y="430">5000</text><line class="poloto_axis_lines" stroke="black" x1="276.26262626262627" x2="276.26262626262627" y1="400" y2="405"/><text class="poloto_text" alignment-baseline="start" text-anchor="middle" x="276.26262626262627" y="430">10000</text><line class="poloto_axis_lines" stroke="black" x1="339.3939393939394" x2="339.3939393939394" y1="400" y2="405"/><text class="poloto_text" alignment-baseline="start" text-anchor="middle" x="339.3939393939394" y="430">15000</text><line class="poloto_axis_lines" stroke="black" x1="402.52525252525254" x2="402.52525252525254" y1="400" y2="405"/><text class="poloto_text" alignment-baseline="start" text-anchor="middle" x="402.52525252525254" y="430">20000</text><line class="poloto_axis_lines" stroke="black" x1="465.65656565656565" x2="465.65656565656565" y1="400" y2="405"/><text class="poloto_text" alignment-baseline="start" text-anchor="middle" x="465.65656565656565" y="430">25000</text><line class="poloto_axis_lines" stroke="black" x1="528.7878787878788" x2="528.7878787878788" y1="400" y2="405"/><text class="poloto_text" alignment-baseline="start" text-anchor="middle" x="528.7878787878788" y="430">30000</text><line class="poloto_axis_lines" stroke="black" x1="591.9191919191919" x2="591.9191919191919" y1="400" y2="405"/><text class="poloto_text" alignment-baseline="start" text-anchor="middle" x="591.9191919191919" y="430">35000</text><line class="poloto_axis_lines" stroke="black" x1="150" x2="144" y1="347.2086585189387" y2="347.2086585189387"/><text class="poloto_text" alignment-baseline="middle" text-anchor="end" x="135" y="347.2086585189387">0.001</text><line class="poloto_axis_lines" stroke="black" x1="150" x2="144" y1="294.39735436490713" y2="294.39735436490713"/><text class="poloto_text" alignment-baseline="middle" text-anchor="end" x="135" y="294.39735436490713">0.002</text><line class="poloto_axis_lines" stroke="black" x1="150" x2="144" y1="241.58605021087556" y2="241.58605021087556"/><text class="poloto_text" alignment-baseline="middle" text-anchor="end" x="135" y="241.58605021087556">0.003</text><line class="poloto_axis_lines" stroke="black" x1="150" x2="144" y1="188.77474605684404" y2="188.77474605684404"/><text class="poloto_text" alignment-baseline="middle" text-anchor="end" x="135" y="188.77474605684404">0.004</text><line class="poloto_axis_lines" stroke="black" x1="150" x2="144" y1="135.9634419028124" y2="135.9634419028124"/><text class="poloto_text" alignment-baseline="middle" text-anchor="end" x="135" y="135.9634419028124">0.005</text><text class="poloto_text" alignment-baseline="middle" text-anchor="start" font-size="large" x="675" y="100">bench</text><line class="poloto0stroke" stroke="black" x1="680" x2="730" y1="81.25" y2="81.25"/><polyline class="poloto0stroke" fill="none" stroke="black" points="150,399.9683660288117 155.05050505050505,397.5387819812055 160.1010101010101,394.9505527759206 165.15151515151516,392.53443561087363 170.2020202020202,389.09948276608714 175.25252525252526,386.8186681622828 180.3030303030303,385.2208093437984 185.35353535353534,382.26760121550495 190.40404040404042,379.87593568428133 195.45454545454544,376.46247704028553 200.50505050505052,371.96147520984573 205.55555555555554,374.5033360900834 210.6060606060606,371.7807549270306 215.65656565656565,369.48937806239553 220.7070707070707,360.9151987764677 225.75757575757575,363.2142332802052 230.8080808080808,361.1657884146786 235.85858585858585,357.21909403263953 240.9090909090909,355.1155141655761 245.95959595959596,352.54386770979556 251.010101010101,349.8103546067829 256.06060606060606,349.2023380620575 261.1111111111111,346.17941901228073 266.16161616161617,344.0886194808227 271.2121212121212,339.4230048153347 276.26262626262627,337.467085354686 281.3131313131313,333.49071101971236 286.3636363636364,334.5120816420513 291.4141414141414,330.8948241753251 296.4646464646464,326.3725393893112 301.5151515151515,324.2013082416265 306.5656565656566,323.78626420228 311.6161616161616,317.25266089755985 316.66666666666663,314.44209610178643 321.7171717171717,311.47124899790555 326.7676767676768,309.55308961972696 331.8181818181818,309.03379606598037 336.86868686868684,303.6273444258197 341.9191919191919,305.6119932359282 346.969696969697,302.75231392729154 352.020202020202,294.75784432706257 357.07070707070704,295.456749126237 362.1212121212121,290.60787923533456 367.1717171717172,297.1153409444985 372.22222222222223,287.733835251968 377.27272727272725,283.0320448431346 382.32323232323233,288.3940293651976 387.37373737373736,278.488582724155 392.4242424242424,275.54192319757664 397.47474747474746,275.37498666514574 402.52525252525254,276.140011217121 407.57575757575756,271.3661861894215 412.62626262626264,263.5176342225701 417.67676767676767,271.75044123844623 422.72727272727275,259.4319932993018 427.77777777777777,257.7502173185166 432.8282828282828,252.23798463613542 437.8787878787879,263.82309480579704 442.9292929292929,261.04210434034985 447.979797979798,257.8609626233276 453.030303030303,242.67047753037446 458.0808080808081,239.3667607764107 463.1313131313131,238.23374705709008 468.1818181818182,234.25879862732862 473.2323232323232,230.77520657141622 478.2828282828283,234.19209795018207 483.3333333333333,231.82319409104883 488.3838383838384,225.8894743902143 493.4343434343434,226.01146850281012 498.4848484848485,220.4483785345286 503.5353535353535,210.91979335992914 508.5858585858586,225.87220509375595 513.6363636363636,205.69691381300788 518.6868686868687,221.41561757010967 523.7373737373737,204.80165658498873 528.7878787878788,213.59695680140948 533.8383838383838,211.01870893260963 538.8888888888889,191.14000593599062 543.939393939394,205.62192176110915 548.989898989899,191.35542324563488 554.040404040404,200.03237332944647 559.090909090909,194.07900782346664 564.1414141414141,187.57820033862612 569.1919191919192,197.1195130375267 574.2424242424242,194.65671067960758 579.2929292929293,179.3254834610839 584.3434343434344,189.26552150634743 589.3939393939394,167.2131580420526 594.4444444444445,183.15425020094705 599.4949494949494,175.79927268271922 604.5454545454545,181.4232012733862 609.5959595959596,179.5002360665296 614.6464646464647,176.2791690035669 619.6969696969697,163.43382268287763 624.7474747474747,172.3728224579015 629.7979797979798,162.03780866886999 634.8484848484848,159.20474625752698 639.8989898989898,163.1481663387085 644.9494949494949,159.07493607191634 650,146.22848071383984 "/><text class="poloto_text" alignment-baseline="middle" text-anchor="start" font-size="large" x="675" y="150">bench_par</text><line class="poloto1stroke" stroke="black" x1="680" x2="730" y1="131.25" y2="131.25"/><polyline class="poloto1stroke" fill="none" stroke="black" points="150,400 155.05050505050505,397.72409684748203 160.1010101010101,394.31871833302176 165.15151515151516,392.6801419990346 170.2020202020202,389.4533713152233 175.25252525252526,388.1512029886973 180.3030303030303,380.02840191937406 185.35353535353534,384.29856553935656 190.40404040404042,383.9931049561296 195.45454545454544,383.4424942990197 200.50505050505052,380.83351025120226 205.55555555555554,383.75450348396174 210.6060606060606,381.6312250004489 215.65656565656565,381.26735511482764 220.7070707070707,378.9992680353244 225.75757575757575,378.89644442613655 230.8080808080808,376.31941121733223 235.85858585858585,375.2193517518038 240.9090909090909,352.4773782778656 245.95959595959596,371.4752415324996 251.010101010101,371.12827126420757 256.06060606060606,369.2760732049174 261.1111111111111,368.38794550295904 266.16161616161617,366.4169748206264 271.2121212121212,365.215095160689 276.26262626262627,364.254404726823 281.3131313131313,361.8630032521201 286.3636363636364,358.95959618364395 291.4141414141414,361.7277006908775 296.4646464646464,360.1921592112949 301.5151515151515,351.6774454538445 306.5656565656566,357.1662827284855 311.6161616161616,353.388478897131 316.66666666666663,352.0747977062994 321.7171717171717,354.2237952949353 326.7676767676768,348.0893398270113 331.8181818181818,351.6598592895612 336.86868686868684,346.92955077648463 341.9191919191919,345.2312448574993 346.969696969697,343.1742445606998 352.020202020202,343.30220635066496 357.07070707070704,347.7466472743558 362.1212121212121,347.107630494092 367.1717171717172,345.87506746644107 372.22222222222223,344.4059097961801 377.27272727272725,343.35401424004004 382.32323232323233,346.18596761399584 387.37373737373736,336.588674932692 392.4242424242424,341.45333540353647 397.47474747474746,340.2537794409818 402.52525252525254,338.7664546820918 407.57575757575756,337.88017537577883 412.62626262626264,331.69280298109254 417.67676767676767,335.4738283020004 422.72727272727275,334.7314597995072 427.77777777777777,334.1270344234643 432.8282828282828,329.2769498725663 437.8787878787879,330.7397173750247 442.9292929292929,330.7184872307548 447.979797979798,328.28531201446606 453.030303030303,328.3452528446809 458.0808080808081,325.70051554395116 463.1313131313131,326.46934250982554 468.1818181818182,326.04679926528917 473.2323232323232,323.6389206636902 478.2828282828283,319.5332642561475 483.3333333333333,319.80503122732415 488.3838383838384,311.69860166228864 493.4343434343434,316.5849675791404 498.4848484848485,316.0068950438704 503.5353535353535,311.1786743728922 508.5858585858586,313.8282703136041 513.6363636363636,315.77304658907633 518.6868686868687,311.92178223364357 523.7373737373737,309.29552888936774 528.7878787878788,308.5298177904384 533.8383838383838,311.7982037819231 538.8888888888889,306.81276385847843 543.939393939394,307.9167313605143 548.989898989899,290.5679538893942 554.040404040404,302.98806358903516 559.090909090909,303.9216090125659 564.1414141414141,300.9966549319949 569.1919191919192,299.44389696725807 574.2424242424242,298.9563430073081 579.2929292929293,298.31030232359177 584.3434343434344,300.6455653819789 589.3939393939394,298.2151363535062 594.4444444444445,298.44475990396796 599.4949494949494,293.21702171706454 604.5454545454545,288.14729495218995 609.5959595959596,309.82147666743776 614.6464646464647,305.51798911453403 619.6969696969697,308.0805520260001 624.7474747474747,300.3969297620217 629.7979797979798,302.59636214612465 634.8484848484848,302.6298973242625 639.8989898989898,302.5938272035253 644.9494949494949,295.05480229032065 650,302.0846206088721 "/><text class="poloto_text" alignment-baseline="middle" text-anchor="start" font-size="large" x="675" y="200">collect</text><line class="poloto2stroke" stroke="black" x1="680" x2="730" y1="181.25" y2="181.25"/><polyline class="poloto2stroke" fill="none" stroke="black" points="150,399.9736999705313 155.05050505050505,397.0613149803489 160.1010101010101,394.1351990510865 165.15151515151516,391.06538356322096 170.2020202020202,388.7625466455844 175.25252525252526,385.06982182522205 180.3030303030303,382.5495079570792 185.35353535353534,380.0290356550239 190.40404040404042,375.727554931678 195.45454545454544,373.93804389041867 200.50505050505052,370.85576493477276 205.55555555555554,367.23813778891747 210.6060606060606,366.89090346410467 215.65656565656565,364.6889889487065 220.7070707070707,357.4895407212123 225.75757575757575,356.79290680811647 230.8080808080808,355.7721171101232 235.85858585858585,347.25291439181973 240.9090909090909,346.2849359979805 245.95959595959596,343.8742583972614 251.010101010101,341.44229784096825 256.06060606060606,342.1055021985346 261.1111111111111,338.12384673314557 266.16161616161617,335.4541824968551 271.2121212121212,332.59033109519027 276.26262626262627,321.6480401196916 281.3131313131313,328.32845884995993 286.3636363636364,324.4901860753491 291.4141414141414,321.43859048741666 296.4646464646464,312.21937393255155 301.5151515151515,315.4519538598198 306.5656565656566,313.7049031071003 311.6161616161616,311.896908109387 316.66666666666663,308.5400631834443 321.7171717171717,302.6463744511585 326.7676767676768,302.9748607629966 331.8181818181818,300.43986535229897 336.86868686868684,294.72224950806276 341.9191919191919,289.88077319974184 346.969696969697,290.0658240094976 352.020202020202,287.43613793045176 357.07070707070704,286.1406238282492 362.1212121212121,283.4921897362287 367.1717171717172,279.3640885244205 372.22222222222223,271.5399353800883 377.27272727272725,275.3982236389735 382.32323232323233,272.04127309042246 387.37373737373736,259.72990186603465 392.4242424242424,266.53595868888544 397.47474747474746,260.9945213553071 402.52525252525254,255.19282991485764 407.57575757575756,247.34000023236976 412.62626262626264,244.98186987928395 417.67676767676767,253.20770580301175 422.72727272727275,239.00891137946297 427.77777777777777,237.918622005203 432.8282828282828,218.07989716582858 437.8787878787879,229.83606314964507 442.9292929292929,232.58557807781642 447.979797979798,222.59051065362442 453.030303030303,233.3461664802428 458.0808080808081,217.85434008578673 463.1313131313131,222.3717662318184 468.1818181818182,212.6957318960209 473.2323232323232,223.2310061504045 478.2828282828283,205.23365305296872 483.3333333333333,192.05364149785532 488.3838383838384,214.28757022583173 493.4343434343434,210.83693242371146 498.4848484848485,207.1718279154217 503.5353535353535,185.11497549027376 508.5858585858586,185.23158284984586 513.6363636363636,179.6526494903181 518.6868686868687,194.9829789166712 523.7373737373737,174.58672513934266 528.7878787878788,186.1654451412016 533.8383838383838,170.99486990991448 538.8888888888889,179.56899638453814 543.939393939394,176.56112855644525 548.989898989899,176.1336210493184 554.040404040404,171.9614223985416 559.090909090909,152.15480683209285 564.1414141414141,154.37404345525354 569.1919191919192,150.43173241145922 574.2424242424242,169.07877017259796 579.2929292929293,145.58935831096775 584.3434343434344,143.07738862888124 589.3939393939394,160.93225682770947 594.4444444444445,157.5820661260902 599.4949494949494,131.8684533787088 604.5454545454545,153.54316320699814 609.5959595959596,149.18417097342856 614.6464646464647,126.59270971632935 619.6969696969697,144.07462448522185 624.7474747474747,142.67200905819487 629.7979797979798,119.54768174218157 634.8484848484848,132.48312414775756 639.8989898989898,115.00411400059363 644.9494949494949,100 650,123.62967868546332 "/><text class="poloto_text" alignment-baseline="middle" text-anchor="start" font-size="large" x="675" y="250">collect_par</text><line class="poloto3stroke" stroke="black" x1="680" x2="730" y1="231.25" y2="231.25"/><polyline class="poloto3stroke" fill="none" stroke="black" points="150,399.97348872531467 155.05050505050505,397.0559282273252 160.1010101010101,394.14718721712944 165.15151515151516,391.0479558328501 170.2020202020202,388.6999652501619 175.25252525252526,385.6268754614388 180.3030303030303,380.85532131981785 185.35353535353534,382.60638573165306 190.40404040404042,380.9477939133916 195.45454545454544,380.548857321812 200.50505050505052,379.1685282651381 205.55555555555554,377.3604276448165 210.6060606060606,377.67687297930746 215.65656565656565,375.9738140429483 220.7070707070707,374.8544256400994 225.75757575757575,373.54586714577084 230.8080808080808,371.03775268888757 235.85858585858585,369.662704762629 240.9090909090909,367.96223358017335 245.95959595959596,366.0583332541164 251.010101010101,353.8567039197606 256.06060606060606,363.91482804111257 261.1111111111111,362.17807549270304 266.16161616161617,358.0191852905731 271.2121212121212,349.7295533114272 276.26262626262627,345.964529815678 281.3131313131313,354.9459370679375 286.3636363636364,346.4793344085715 291.4141414141414,337.38237602282294 296.4646464646464,353.47102296552373 301.5151515151515,348.4636135395509 306.5656565656566,350.31433288232483 311.6161616161616,345.24418362701704 316.66666666666663,340.5823713754282 321.7171717171717,344.8750326109803 326.7676767676768,339.2941452331989 331.8181818181818,340.22182860196864 336.86868686868684,338.1269626000906 341.9191919191919,331.99789388519036 346.969696969697,335.6932592707604 352.020202020202,334.8009066644697 357.07070707070704,334.0506164663534 362.1212121212121,332.8277707186668 367.1717171717172,332.27140362940406 372.22222222222223,335.98662606533605 377.27272727272725,334.8175950365824 382.32323232323233,333.39908340700515 387.37373737373736,334.22785120309436 392.4242424242424,325.40524754242597 397.47474747474746,320.96709116392947 402.52525252525254,329.917286935434 407.57575757575756,326.71454539501275 412.62626262626264,318.94098548006 417.67676767676767,323.0793848961783 422.72727272727275,320.3981549842781 427.77777777777777,321.8941936083535 432.8282828282828,315.2806339891441 437.8787878787879,321.1777554561999 442.9292929292929,320.54275233505183 447.979797979798,314.4592597756365 453.030303030303,313.1883557411697 458.0808080808081,313.0284431121913 463.1313131313131,301.9894018274824 468.1818181818182,311.5753928896973 473.2323232323232,309.2620465225341 478.2828282828283,303.5529861095708 483.3333333333333,300.3076786580014 488.3838383838384,306.83726830360587 493.4343434343434,301.7695483682892 498.4848484848485,304.82658352054943 503.5353535353535,299.03719711396786 508.5858585858586,299.87325287003034 513.6363636363636,299.44600941942423 518.6868686868687,285.6309947431628 523.7373737373737,283.86625220355165 528.7878787878788,295.20325486629764 533.8383838383838,279.88829352945345 538.8888888888889,288.6845443493489 543.939393939394,282.04214975807145 548.989898989899,289.0865439965694 554.040404040404,286.283848085115 559.090909090909,282.2597851424902 564.1414141414141,285.16361470139964 569.1919191919192,282.7178175834181 574.2424242424242,273.81678913608107 579.2929292929293,280.4222158144507 584.3434343434344,282.2886201145583 589.3939393939394,281.0038795184032 594.4444444444445,272.42716528987603 599.4949494949494,274.2047409763965 604.5454545454545,285.8693849701141 609.5959595959596,290.2667710218037 614.6464646464647,286.33866621882686 619.6969696969697,282.6795293879064 624.7474747474747,286.56068494149036 629.7979797979798,290.4720485610504 634.8484848484848,285.54306392174635 639.8989898989898,280.23864372121125 644.9494949494949,273.29115822583594 650,278.8783301488117 "/><text class="poloto_text" alignment-baseline="start" text-anchor="middle" font-size="x-large" x="400" y="37.5">Bench of query vs collect with abspiral(1.5,n)</text><text class="poloto_text" alignment-baseline="start" text-anchor="middle" font-size="x-large" x="400" y="481.25">Number of Elements</text><text class="poloto_text" alignment-baseline="start" text-anchor="middle" font-size="x-large" transform="rotate(-90,37.5,250)" x="37.5" y="250">Time in Seconds</text><path stroke="black" fill="none" class="poloto_axis_lines" d=" M 150 100 L 150 400 L 650 400"/></svg>