<svg class="poloto" width="800" height="500" viewBox="0 0 800 500" xmlns="http://www.w3.org/2000/svg"><circle  r="1e5" class="poloto_background" /><text  class="poloto_text poloto_legend_text" x="675" y="100" >bench</text><line  class="poloto_scatter poloto_legend_icon poloto0stroke poloto0legend" stroke="black" x1="685" x2="685" y1="81.25" y2="81.25" /><path  class="poloto_scatter poloto0stroke" d=" M 150.00 399.93 h 0 M 155.05 398.05 h 0 M 160.10 396.44 h 0 M 165.15 394.49 h 0 M 170.20 392.14 h 0 M 175.25 390.36 h 0 M 180.30 390.09 h 0 M 185.35 387.69 h 0 M 190.40 385.37 h 0 M 195.45 384.43 h 0 M 200.51 381.58 h 0 M 205.56 379.56 h 0 M 210.61 377.43 h 0 M 215.66 375.00 h 0 M 220.71 373.37 h 0 M 225.76 371.76 h 0 M 230.81 369.36 h 0 M 235.86 366.76 h 0 M 240.91 364.23 h 0 M 245.96 361.55 h 0 M 251.01 359.97 h 0 M 256.06 363.33 h 0 M 261.11 361.90 h 0 M 266.16 358.70 h 0 M 271.21 357.75 h 0 M 276.26 356.52 h 0 M 281.31 354.70 h 0 M 286.36 352.25 h 0 M 291.41 351.50 h 0 M 296.46 350.13 h 0 M 301.52 346.34 h 0 M 306.57 345.23 h 0 M 311.62 344.54 h 0 M 316.67 340.55 h 0 M 321.72 339.91 h 0 M 326.77 337.51 h 0 M 331.82 333.94 h 0 M 336.87 331.11 h 0 M 341.92 331.97 h 0 M 346.97 331.69 h 0 M 352.02 325.08 h 0 M 357.07 326.42 h 0 M 362.12 325.04 h 0 M 367.17 322.99 h 0 M 372.22 316.91 h 0 M 377.27 319.36 h 0 M 382.32 317.07 h 0 M 387.37 315.31 h 0 M 392.42 312.70 h 0 M 397.47 309.87 h 0 M 402.53 307.72 h 0 M 407.58 305.08 h 0 M 412.63 303.19 h 0 M 417.68 293.90 h 0 M 422.73 297.76 h 0 M 427.78 298.93 h 0 M 432.83 295.83 h 0 M 437.88 287.98 h 0 M 442.93 291.82 h 0 M 447.98 285.33 h 0 M 453.03 286.16 h 0 M 458.08 284.71 h 0 M 463.13 274.23 h 0 M 468.18 276.92 h 0 M 473.23 278.77 h 0 M 478.28 266.57 h 0 M 483.33 273.94 h 0 M 488.38 272.14 h 0 M 493.43 269.18 h 0 M 498.48 267.89 h 0 M 503.54 254.83 h 0 M 508.59 257.82 h 0 M 513.64 257.02 h 0 M 518.69 258.63 h 0 M 523.74 247.89 h 0 M 528.79 253.29 h 0 M 533.84 243.18 h 0 M 538.89 243.11 h 0 M 543.94 241.41 h 0 M 548.99 242.85 h 0 M 554.04 233.89 h 0 M 559.09 229.56 h 0 M 564.14 248.64 h 0 M 569.19 237.01 h 0 M 574.24 258.55 h 0 M 579.29 235.12 h 0 M 584.34 252.92 h 0 M 589.39 251.69 h 0 M 594.44 243.76 h 0 M 599.49 250.32 h 0 M 604.55 249.76 h 0 M 609.60 235.12 h 0 M 614.65 237.23 h 0 M 619.70 243.95 h 0 M 624.75 241.91 h 0 M 629.80 220.22 h 0 M 634.85 232.99 h 0 M 639.90 227.29 h 0 M 644.95 230.05 h 0 M 650.00 228.26 h 0" /><text  class="poloto_text poloto_legend_text" x="675" y="150" >collect</text><line  class="poloto_scatter poloto_legend_icon poloto1stroke poloto1legend" stroke="black" x1="685" x2="685" y1="131.25" y2="131.25" /><path  class="poloto_scatter poloto1stroke" d=" M 150.00 399.95 h 0 M 155.05 397.33 h 0 M 160.10 395.93 h 0 M 165.15 393.87 h 0 M 170.20 391.37 h 0 M 175.25 389.21 h 0 M 180.30 387.50 h 0 M 185.35 386.00 h 0 M 190.40 383.51 h 0 M 195.45 381.74 h 0 M 200.51 378.08 h 0 M 205.56 376.25 h 0 M 210.61 374.20 h 0 M 215.66 353.26 h 0 M 220.71 354.38 h 0 M 225.76 351.23 h 0 M 230.81 344.34 h 0 M 235.86 343.90 h 0 M 240.91 339.79 h 0 M 245.96 333.52 h 0 M 251.01 333.11 h 0 M 256.06 334.03 h 0 M 261.11 321.28 h 0 M 266.16 322.86 h 0 M 271.21 323.47 h 0 M 276.26 321.82 h 0 M 281.31 318.67 h 0 M 286.36 314.85 h 0 M 291.41 309.83 h 0 M 296.46 310.46 h 0 M 301.52 305.87 h 0 M 306.57 304.08 h 0 M 311.62 298.12 h 0 M 316.67 295.23 h 0 M 321.72 290.80 h 0 M 326.77 285.95 h 0 M 331.82 283.73 h 0 M 336.87 277.14 h 0 M 341.92 276.34 h 0 M 346.97 273.26 h 0 M 352.02 268.91 h 0 M 357.07 265.68 h 0 M 362.12 263.87 h 0 M 367.17 255.85 h 0 M 372.22 252.72 h 0 M 377.27 253.14 h 0 M 382.32 249.12 h 0 M 387.37 244.10 h 0 M 392.42 241.65 h 0 M 397.47 236.45 h 0 M 402.53 237.01 h 0 M 407.58 231.13 h 0 M 412.63 223.00 h 0 M 417.68 226.40 h 0 M 422.73 221.87 h 0 M 427.78 219.42 h 0 M 432.83 216.87 h 0 M 437.88 213.18 h 0 M 442.93 209.94 h 0 M 447.98 203.31 h 0 M 453.03 201.95 h 0 M 458.08 193.46 h 0 M 463.13 192.23 h 0 M 468.18 191.42 h 0 M 473.23 187.39 h 0 M 478.28 188.98 h 0 M 483.33 180.05 h 0 M 488.38 178.98 h 0 M 493.43 172.95 h 0 M 498.48 173.27 h 0 M 503.54 171.35 h 0 M 508.59 161.35 h 0 M 513.64 150.78 h 0 M 518.69 146.18 h 0 M 523.74 172.16 h 0 M 528.79 128.99 h 0 M 533.84 139.83 h 0 M 538.89 157.47 h 0 M 543.94 148.73 h 0 M 548.99 117.19 h 0 M 554.04 128.96 h 0 M 559.09 132.64 h 0 M 564.14 143.19 h 0 M 569.19 145.67 h 0 M 574.24 141.56 h 0 M 579.29 140.90 h 0 M 584.34 140.10 h 0 M 589.39 127.71 h 0 M 594.44 132.33 h 0 M 599.49 120.91 h 0 M 604.55 129.28 h 0 M 609.60 114.34 h 0 M 614.65 124.49 h 0 M 619.70 120.81 h 0 M 624.75 119.18 h 0 M 629.80 100.00 h 0 M 634.85 109.77 h 0 M 639.90 108.64 h 0 M 644.95 107.68 h 0 M 650.00 102.71 h 0" /><text  class="poloto_labels poloto_text poloto_title" x="400" y="37.5" >Bench of query vs collect with abspiral(1.5,n)</text><text  class="poloto_labels poloto_text poloto_xname" x="400" y="481.25" >Number of Elements</text><text  class="poloto_labels poloto_text poloto_yname" transform="rotate(-90,37.5,250)" x="37.5" y="250" >Time in Seconds</text><text  class="poloto_tick_labels poloto_text" dominant-baseline="middle" text-anchor="start" x="150" y="70" ></text><line  class="poloto_axis_lines" stroke="black" x1="150" x2="144" y1="400" y2="400" /><text  class="poloto_tick_labels poloto_text" dominant-baseline="middle" text-anchor="end" x="135" y="400" >0e0</text><line  class="poloto_axis_lines" stroke="black" x1="150" x2="144" y1="322.6879144330453" y2="322.6879144330453" /><text  class="poloto_tick_labels poloto_text" dominant-baseline="middle" text-anchor="end" x="135" y="322.6879144330453" >0.002</text><line  class="poloto_axis_lines" stroke="black" x1="150" x2="144" y1="245.37582886609067" y2="245.37582886609067" /><text  class="poloto_tick_labels poloto_text" dominant-baseline="middle" text-anchor="end" x="135" y="245.37582886609067" >0.004</text><line  class="poloto_axis_lines" stroke="black" x1="150" x2="144" y1="168.06374329913604" y2="168.06374329913604" /><text  class="poloto_tick_labels poloto_text" dominant-baseline="middle" text-anchor="end" x="135" y="168.06374329913604" >0.006</text><text  class="poloto_tick_labels poloto_text" dominant-baseline="middle" text-anchor="start" x="440.00000000000006" y="70" ></text><line  class="poloto_axis_lines" stroke="black" x1="150" x2="150" y1="400" y2="405" /><text  class="poloto_tick_labels poloto_text" dominant-baseline="start" text-anchor="middle" x="150" y="430" >0</text><line  class="poloto_axis_lines" stroke="black" x1="213.13131313131314" x2="213.13131313131314" y1="400" y2="405" /><text  class="poloto_tick_labels poloto_text" dominant-baseline="start" text-anchor="middle" x="213.13131313131314" y="430" >5000</text><line  class="poloto_axis_lines" stroke="black" x1="276.26262626262627" x2="276.26262626262627" y1="400" y2="405" /><text  class="poloto_tick_labels poloto_text" dominant-baseline="start" text-anchor="middle" x="276.26262626262627" y="430" >10000</text><line  class="poloto_axis_lines" stroke="black" x1="339.3939393939394" x2="339.3939393939394" y1="400" y2="405" /><text  class="poloto_tick_labels poloto_text" dominant-baseline="start" text-anchor="middle" x="339.3939393939394" y="430" >15000</text><line  class="poloto_axis_lines" stroke="black" x1="402.52525252525254" x2="402.52525252525254" y1="400" y2="405" /><text  class="poloto_tick_labels poloto_text" dominant-baseline="start" text-anchor="middle" x="402.52525252525254" y="430" >20000</text><line  class="poloto_axis_lines" stroke="black" x1="465.65656565656565" x2="465.65656565656565" y1="400" y2="405" /><text  class="poloto_tick_labels poloto_text" dominant-baseline="start" text-anchor="middle" x="465.65656565656565" y="430" >25000</text><line  class="poloto_axis_lines" stroke="black" x1="528.7878787878788" x2="528.7878787878788" y1="400" y2="405" /><text  class="poloto_tick_labels poloto_text" dominant-baseline="start" text-anchor="middle" x="528.7878787878788" y="430" >30000</text><line  class="poloto_axis_lines" stroke="black" x1="591.9191919191919" x2="591.9191919191919" y1="400" y2="405" /><text  class="poloto_tick_labels poloto_text" dominant-baseline="start" text-anchor="middle" x="591.9191919191919" y="430" >35000</text><path  stroke="black" fill="none" class="poloto_axis_lines" style="stroke-dasharray:6.313131313131313;stroke-dashoffset:-0;" d=" M 150 400 L 650 400" /><path  stroke="black" fill="none" class="poloto_axis_lines" style="stroke-dasharray:9.664010695869333;stroke-dashoffset:-0;" d=" M 150 400 L 150 100" /></svg>