<svg class="poloto" width="800" height="500" viewBox="0 0 800 500" xmlns="http://www.w3.org/2000/svg"><circle  r="1e5" class="poloto_background" /><text  class="poloto_text poloto_legend_text" x="675" y="100" >bench</text><line  class="poloto_scatter poloto_legend_icon poloto0stroke poloto0legend" stroke="black" x1="685" x2="685" y1="81.25" y2="81.25" /><path  class="poloto_scatter poloto0stroke" d=" M 150.00 399.93 h 0 M 155.05 397.29 h 0 M 160.10 395.06 h 0 M 165.15 392.45 h 0 M 170.20 388.96 h 0 M 175.25 385.55 h 0 M 180.30 384.83 h 0 M 185.35 382.31 h 0 M 190.40 379.78 h 0 M 195.45 376.04 h 0 M 200.51 373.04 h 0 M 205.56 369.98 h 0 M 210.61 367.26 h 0 M 215.66 363.84 h 0 M 220.71 360.56 h 0 M 225.76 352.26 h 0 M 230.81 354.46 h 0 M 235.86 349.66 h 0 M 240.91 346.83 h 0 M 245.96 346.21 h 0 M 251.01 337.78 h 0 M 256.06 346.77 h 0 M 261.11 342.88 h 0 M 266.16 334.59 h 0 M 271.21 337.74 h 0 M 276.26 332.72 h 0 M 281.31 332.00 h 0 M 286.36 329.74 h 0 M 291.41 326.34 h 0 M 296.46 314.65 h 0 M 301.52 321.33 h 0 M 306.57 318.51 h 0 M 311.62 314.52 h 0 M 316.67 303.68 h 0 M 321.72 308.66 h 0 M 326.77 301.94 h 0 M 331.82 302.91 h 0 M 336.87 300.62 h 0 M 341.92 297.22 h 0 M 346.97 297.64 h 0 M 352.02 295.73 h 0 M 357.07 295.64 h 0 M 362.12 284.45 h 0 M 367.17 288.98 h 0 M 372.22 279.40 h 0 M 377.27 274.93 h 0 M 382.32 273.91 h 0 M 387.37 271.91 h 0 M 392.42 263.96 h 0 M 397.47 261.09 h 0 M 402.53 269.31 h 0 M 407.58 253.61 h 0 M 412.63 262.03 h 0 M 417.68 246.53 h 0 M 422.73 258.49 h 0 M 427.78 256.39 h 0 M 432.83 251.04 h 0 M 437.88 250.49 h 0 M 442.93 246.14 h 0 M 447.98 233.97 h 0 M 453.03 225.94 h 0 M 458.08 222.57 h 0 M 463.13 234.05 h 0 M 468.18 215.94 h 0 M 473.23 225.61 h 0 M 478.28 207.69 h 0 M 483.33 215.95 h 0 M 488.38 207.00 h 0 M 493.43 217.02 h 0 M 498.48 200.89 h 0 M 503.54 199.44 h 0 M 508.59 197.22 h 0 M 513.64 202.54 h 0 M 518.69 190.33 h 0 M 523.74 187.54 h 0 M 528.79 180.16 h 0 M 533.84 190.37 h 0 M 538.89 174.54 h 0 M 543.94 185.52 h 0 M 548.99 172.70 h 0 M 554.04 176.28 h 0 M 559.09 164.63 h 0 M 564.14 196.97 h 0 M 569.19 195.23 h 0 M 574.24 164.27 h 0 M 579.29 160.92 h 0 M 584.34 182.94 h 0 M 589.39 186.68 h 0 M 594.44 182.89 h 0 M 599.49 181.81 h 0 M 604.55 157.91 h 0 M 609.60 175.46 h 0 M 614.65 175.11 h 0 M 619.70 137.77 h 0 M 624.75 167.95 h 0 M 629.80 165.59 h 0 M 634.85 133.90 h 0 M 639.90 148.08 h 0 M 644.95 129.81 h 0 M 650.00 156.22 h 0" /><text  class="poloto_text poloto_legend_text" x="675" y="150" >collect</text><line  class="poloto_scatter poloto_legend_icon poloto1stroke poloto1legend" stroke="black" x1="685" x2="685" y1="131.25" y2="131.25" /><path  class="poloto_scatter poloto1stroke" d=" M 150.00 399.95 h 0 M 155.05 396.86 h 0 M 160.10 394.31 h 0 M 165.15 390.56 h 0 M 170.20 388.39 h 0 M 175.25 384.97 h 0 M 180.30 383.83 h 0 M 185.35 381.03 h 0 M 190.40 377.54 h 0 M 195.45 375.41 h 0 M 200.51 372.04 h 0 M 205.56 366.54 h 0 M 210.61 365.82 h 0 M 215.66 362.88 h 0 M 220.71 359.80 h 0 M 225.76 356.53 h 0 M 230.81 353.43 h 0 M 235.86 350.07 h 0 M 240.91 343.66 h 0 M 245.96 340.60 h 0 M 251.01 339.26 h 0 M 256.06 340.46 h 0 M 261.11 337.68 h 0 M 266.16 332.91 h 0 M 271.21 330.80 h 0 M 276.26 328.42 h 0 M 281.31 325.42 h 0 M 286.36 322.33 h 0 M 291.41 319.18 h 0 M 296.46 319.78 h 0 M 301.52 314.28 h 0 M 306.57 309.56 h 0 M 311.62 311.50 h 0 M 316.67 305.04 h 0 M 321.72 301.71 h 0 M 326.77 300.47 h 0 M 331.82 299.05 h 0 M 336.87 291.45 h 0 M 341.92 287.28 h 0 M 346.97 276.36 h 0 M 352.02 281.91 h 0 M 357.07 278.27 h 0 M 362.12 281.73 h 0 M 367.17 271.44 h 0 M 372.22 273.55 h 0 M 377.27 267.48 h 0 M 382.32 262.18 h 0 M 387.37 258.42 h 0 M 392.42 256.34 h 0 M 397.47 251.20 h 0 M 402.53 235.61 h 0 M 407.58 252.93 h 0 M 412.63 241.18 h 0 M 417.68 234.74 h 0 M 422.73 234.28 h 0 M 427.78 233.29 h 0 M 432.83 237.90 h 0 M 437.88 230.76 h 0 M 442.93 232.47 h 0 M 447.98 225.62 h 0 M 453.03 225.02 h 0 M 458.08 222.19 h 0 M 463.13 206.82 h 0 M 468.18 202.89 h 0 M 473.23 208.10 h 0 M 478.28 207.83 h 0 M 483.33 202.13 h 0 M 488.38 192.12 h 0 M 493.43 193.90 h 0 M 498.48 193.99 h 0 M 503.54 192.17 h 0 M 508.59 181.78 h 0 M 513.64 170.36 h 0 M 518.69 171.97 h 0 M 523.74 166.50 h 0 M 528.79 168.82 h 0 M 533.84 171.46 h 0 M 538.89 159.29 h 0 M 543.94 164.60 h 0 M 548.99 149.17 h 0 M 554.04 152.05 h 0 M 559.09 137.55 h 0 M 564.14 151.40 h 0 M 569.19 174.85 h 0 M 574.24 171.92 h 0 M 579.29 169.35 h 0 M 584.34 166.28 h 0 M 589.39 155.25 h 0 M 594.44 160.92 h 0 M 599.49 158.74 h 0 M 604.55 149.92 h 0 M 609.60 153.05 h 0 M 614.65 147.43 h 0 M 619.70 146.77 h 0 M 624.75 130.83 h 0 M 629.80 141.33 h 0 M 634.85 109.99 h 0 M 639.90 124.48 h 0 M 644.95 100.00 h 0 M 650.00 131.42 h 0" /><text  class="poloto_labels poloto_text poloto_title" x="400" y="37.5" >Bench of query vs collect with abspiral(1.5,n)</text><text  class="poloto_labels poloto_text poloto_xname" x="400" y="481.25" >Number of Elements</text><text  class="poloto_labels poloto_text poloto_yname" transform="rotate(-90,37.5,250)" x="37.5" y="250" >Time in Seconds</text><text  class="poloto_tick_labels poloto_text" dominant-baseline="middle" text-anchor="start" x="150" y="70" ></text><line  class="poloto_axis_lines" stroke="black" x1="150" x2="144" y1="400" y2="400" /><text  class="poloto_tick_labels poloto_text" dominant-baseline="middle" text-anchor="end" x="135" y="400" >0e0</text><line  class="poloto_axis_lines" stroke="black" x1="150" x2="144" y1="346.20707907666963" y2="346.20707907666963" /><text  class="poloto_tick_labels poloto_text" dominant-baseline="middle" text-anchor="end" x="135" y="346.20707907666963" >0.001</text><line  class="poloto_axis_lines" stroke="black" x1="150" x2="144" y1="292.41415815333926" y2="292.41415815333926" /><text  class="poloto_tick_labels poloto_text" dominant-baseline="middle" text-anchor="end" x="135" y="292.41415815333926" >0.002</text><line  class="poloto_axis_lines" stroke="black" x1="150" x2="144" y1="238.62123723000883" y2="238.62123723000883" /><text  class="poloto_tick_labels poloto_text" dominant-baseline="middle" text-anchor="end" x="135" y="238.62123723000883" >0.003</text><line  class="poloto_axis_lines" stroke="black" x1="150" x2="144" y1="184.82831630667846" y2="184.82831630667846" /><text  class="poloto_tick_labels poloto_text" dominant-baseline="middle" text-anchor="end" x="135" y="184.82831630667846" >0.004</text><line  class="poloto_axis_lines" stroke="black" x1="150" x2="144" y1="131.0353953833481" y2="131.0353953833481" /><text  class="poloto_tick_labels poloto_text" dominant-baseline="middle" text-anchor="end" x="135" y="131.0353953833481" >0.005</text><text  class="poloto_tick_labels poloto_text" dominant-baseline="middle" text-anchor="start" x="440.00000000000006" y="70" ></text><line  class="poloto_axis_lines" stroke="black" x1="150" x2="150" y1="400" y2="405" /><text  class="poloto_tick_labels poloto_text" dominant-baseline="start" text-anchor="middle" x="150" y="430" >0</text><line  class="poloto_axis_lines" stroke="black" x1="213.13131313131314" x2="213.13131313131314" y1="400" y2="405" /><text  class="poloto_tick_labels poloto_text" dominant-baseline="start" text-anchor="middle" x="213.13131313131314" y="430" >5000</text><line  class="poloto_axis_lines" stroke="black" x1="276.26262626262627" x2="276.26262626262627" y1="400" y2="405" /><text  class="poloto_tick_labels poloto_text" dominant-baseline="start" text-anchor="middle" x="276.26262626262627" y="430" >10000</text><line  class="poloto_axis_lines" stroke="black" x1="339.3939393939394" x2="339.3939393939394" y1="400" y2="405" /><text  class="poloto_tick_labels poloto_text" dominant-baseline="start" text-anchor="middle" x="339.3939393939394" y="430" >15000</text><line  class="poloto_axis_lines" stroke="black" x1="402.52525252525254" x2="402.52525252525254" y1="400" y2="405" /><text  class="poloto_tick_labels poloto_text" dominant-baseline="start" text-anchor="middle" x="402.52525252525254" y="430" >20000</text><line  class="poloto_axis_lines" stroke="black" x1="465.65656565656565" x2="465.65656565656565" y1="400" y2="405" /><text  class="poloto_tick_labels poloto_text" dominant-baseline="start" text-anchor="middle" x="465.65656565656565" y="430" >25000</text><line  class="poloto_axis_lines" stroke="black" x1="528.7878787878788" x2="528.7878787878788" y1="400" y2="405" /><text  class="poloto_tick_labels poloto_text" dominant-baseline="start" text-anchor="middle" x="528.7878787878788" y="430" >30000</text><line  class="poloto_axis_lines" stroke="black" x1="591.9191919191919" x2="591.9191919191919" y1="400" y2="405" /><text  class="poloto_tick_labels poloto_text" dominant-baseline="start" text-anchor="middle" x="591.9191919191919" y="430" >35000</text><path  stroke="black" fill="none" class="poloto_axis_lines" style="stroke-dasharray:6.313131313131313;stroke-dashoffset:-0;" d=" M 150 400 L 650 400" /><path  stroke="black" fill="none" class="poloto_axis_lines" style="stroke-dasharray:13.448230230832596;stroke-dashoffset:-0;" d=" M 150 400 L 150 100" /></svg>