<svg class="poloto" height="500" viewBox="0 0 800 500" width="800" xmlns="http://www.w3.org/2000/svg">
<rect class="poloto_background" fill="white" height="500" width="800" x="0" y="0"/>
<style>
.poloto {
font-family: "Arial";
stroke-width:2;
}
.poloto_text{fill: var(--poloto_fg_color,black);  }
.poloto_axis_lines{stroke: var(--poloto_fg_color,black);stoke-width:3;fill:none}
.poloto_background{fill: var(--poloto_bg_color,aliceblue); }
.poloto0stroke{stroke:  var(--poloto_color0,blue); }
.poloto1stroke{stroke:  var(--poloto_color1,red); }
.poloto2stroke{stroke:  var(--poloto_color2,green); }
.poloto3stroke{stroke:  var(--poloto_color3,gold); }
.poloto4stroke{stroke:  var(--poloto_color4,aqua); }
.poloto5stroke{stroke:  var(--poloto_color5,brown); }
.poloto6stroke{stroke:  var(--poloto_color6,lime); }
.poloto7stroke{stroke:  var(--poloto_color7,chocolate); }
.poloto0fill{fill:var(--poloto_color0,blue);}
.poloto1fill{fill:var(--poloto_color1,red);}
.poloto2fill{fill:var(--poloto_color2,green);}
.poloto3fill{fill:var(--poloto_color3,gold);}
.poloto4fill{fill:var(--poloto_color4,aqua);}
.poloto5fill{fill:var(--poloto_color5,brown);}
.poloto6fill{fill:var(--poloto_color6,lime);}
.poloto7fill{fill:var(--poloto_color7,chocolate);}
</style>
<text alignment-baseline="start" class="poloto_text" text-anchor="middle" x="150" y="440">
0e0
</text>
<text alignment-baseline="start" class="poloto_text" text-anchor="middle" x="212.81407" y="440">
5e3
</text>
<text alignment-baseline="start" class="poloto_text" text-anchor="middle" x="275.62814" y="440">
1e4
</text>
<text alignment-baseline="start" class="poloto_text" text-anchor="middle" x="338.4422" y="440">
1.5e4
</text>
<text alignment-baseline="start" class="poloto_text" text-anchor="middle" x="401.2563" y="440">
2e4
</text>
<text alignment-baseline="start" class="poloto_text" text-anchor="middle" x="464.07034" y="440">
2.5e4
</text>
<text alignment-baseline="start" class="poloto_text" text-anchor="middle" x="526.8844" y="440">
3e4
</text>
<text alignment-baseline="start" class="poloto_text" text-anchor="middle" x="589.6985" y="440">
3.5e4
</text>
<text alignment-baseline="middle" class="poloto_text" text-anchor="end" x="120" y="400">
1e-3
</text>
<text alignment-baseline="middle" class="poloto_text" text-anchor="end" x="120" y="355.61832">
2e-3
</text>
<text alignment-baseline="middle" class="poloto_text" text-anchor="end" x="120" y="311.2366">
3e-3
</text>
<text alignment-baseline="middle" class="poloto_text" text-anchor="end" x="120" y="266.85492">
4e-3
</text>
<text alignment-baseline="middle" class="poloto_text" text-anchor="end" x="120" y="222.4732">
5e-3
</text>
<text alignment-baseline="middle" class="poloto_text" text-anchor="end" x="120" y="178.09152">
6e-3
</text>
<text alignment-baseline="middle" class="poloto_text" text-anchor="end" x="120" y="133.70984">
7e-3
</text>
<text alignment-baseline="middle" class="poloto_text" font-size="large" text-anchor="start" x="675" y="100">
checked
</text>
<line class="poloto0stroke" x1="680" x2="730" y1="81.25" y2="81.25"/>
<polyline class="poloto0stroke" fill="none" points="150,399.9753 152.51256,399.36703 155.02513,398.50137 157.53769,397.20856 160.05025,396.2404 162.56282,395.25195 165.07538,393.2764 167.58794,392.18332 170.1005,390.43234 172.61307,386.4055 175.12563,385.37552 177.63818,380.56964 180.15076,379.30872 182.66331,377.0379 185.17587,376.72696 187.68845,374.10962 190.201,372.7489 192.71356,371.24945 195.22614,368.83624 197.7387,368.24472 200.25125,364.78894 202.76382,355.89078 205.27638,358.77847 207.78894,357.55344 210.30151,355.50882 212.81407,352.5965 215.32663,351.31427 217.8392,349.91736 220.35176,346.09985 222.86432,346.37405 225.37689,344.60303 227.88945,359.08386 230.40201,366.68964 232.91458,368.41687 235.42714,370.9475 237.9397,368.682 240.45227,368.6063 242.96483,367.03217 245.47739,367.57706 247.98996,366.00882 250.5025,365.03433 253.01508,361.67877 255.52765,359.96533 258.0402,359.48914 260.55276,358.56815 263.06534,357.7571 265.57788,357.19888 268.09045,355.50375 270.60303,354.91483 273.11557,353.02313 275.62814,353.27115 278.1407,353.05872 280.65326,351.3207 283.16583,350.24884 285.6784,348.90918 288.19095,348.40833 290.70352,347.1968 293.21606,347.09045 295.72864,346.44183 298.2412,344.0693 300.75378,343.43887 303.26633,342.7904 305.7789,341.92987 308.29144,342.34668 310.80402,340.16763 313.3166,338.8794 315.82916,340.49777 318.3417,337.6544 320.85428,338.347 323.36682,335.49445 325.8794,335.06897 328.39197,334.68817 330.90454,334.00397 333.41708,332.8009 335.92966,330.93042 338.4422,331.0332 340.95477,329.0007 343.46735,329.9605 345.97992,327.47595 348.49246,327.84302 351.005,327.66348 353.51758,324.81104 356.03015,317.58862 358.54272,316.3379 361.0553,315.28912 363.56784,313.60788 366.08038,313.39294 368.59296,313.00177 371.10553,313.4778 373.6181,310.38556 376.13068,308.80212 378.64322,309.73047 381.15576,308.03394 383.66833,307.75317 386.1809,304.63217 388.69348,303.26276 391.20605,304.92825 393.7186,302.1547 396.23114,303.10413 398.7437,300.4516 401.2563,300.49985 403.76886,297.87585 406.2814,298.25955 408.79398,295.58435 411.30655,295.42618 413.8191,292.79492 416.33167,290.20786 418.84424,291.92676 421.35678,291.56598 423.86935,291.0208 426.3819,291.50232 428.89447,287.14096 431.40704,290.9505 433.9196,288.30005 436.43216,285.00665 438.94473,285.31958 441.45728,285.1763 443.96985,282.1161 446.48242,281.67902 448.99496,281.05685 451.50754,278.9112 454.0201,276.69537 456.53265,277.7076 459.04523,274.2625 461.5578,277.00967 464.07034,275.90518 466.58292,274.41772 469.0955,273.214 471.60803,272.96716 474.1206,270.23523 476.63318,272.2795 479.14572,268.20306 481.6583,269.29657 484.17087,266.2201 486.6834,264.71216 489.19598,266.65268 491.70856,263.25912 494.2211,262.0678 496.73367,261.10803 499.24625,262.87872 501.7588,258.62915 504.27136,258.84607 506.78394,258.3731 509.29648,258.94827 511.80905,257.8515 514.32166,253.8135 516.83417,256.27386 519.34674,251.41254 521.8593,250.37215 524.3718,247.69167 526.8844,246.83159 529.397,247.48782 531.90955,246.26927 534.4221,248.54787 536.9347,246.58247 539.44727,247.23738 541.95984,243.71129 544.47235,245.99535 546.9849,241.41667 549.4975,243.6772 552.01,243.5619 554.5226,239.28355 557.03516,238.46378 559.5477,238.54588 562.0603,227.73979 564.5729,225.89871 567.08545,222.13892 569.598,219.97612 572.1106,218.98595 574.6231,220.92902 577.1357,218.18756 579.64825,215.1575 582.16077,217.34424 584.67334,218.21393 587.1859,214.05257 589.6985,212.91551 592.21106,214.9223 594.72363,210.77937 597.2362,213.52008 599.7488,208.7727 602.26135,210.16846 604.77386,211.11806 607.28644,208.20782 609.799,202.4934 612.3115,209.36812 614.8241,201.17247 617.3367,205.14667 619.84924,200.05142 622.3618,202.16125 624.8744,197.51244 627.38696,196.95337 629.89954,194.14522 632.4121,192.69664 634.9246,193.96165 637.4372,196.69978 639.9497,190.34169 642.4623,195.69452 644.97485,184.18745 647.4874,188.77324 650,191.04257 " stroke="black"/>
<text alignment-baseline="middle" class="poloto_text" font-size="large" text-anchor="start" x="675" y="150">
checked_par
</text>
<line class="poloto1stroke" x1="680" x2="730" y1="131.25" y2="131.25"/>
<polyline class="poloto1stroke" fill="none" points="150,399.84644 152.51256,398.75305 155.02513,397.88525 157.53769,396.4351 160.05025,395.5334 162.56282,394.4672 165.07538,392.54065 167.58794,391.64297 170.1005,390.45856 172.61307,385.87836 175.12563,384.7316 177.63818,374.08774 180.15076,368.63074 182.66331,376.00464 185.17587,372.60553 187.68845,370.6891 190.201,369.55313 192.71356,366.46265 195.22614,367.91806 197.7387,364.3271 200.25125,374.0494 202.76382,370.9919 205.27638,375.6038 207.78894,375.435 210.30151,370.47827 212.81407,363.34772 215.32663,346.0085 217.8392,372.59204 220.35176,365.52927 222.86432,368.1857 225.37689,368.31534 227.88945,372.58334 230.40201,375.83896 232.91458,379.72818 235.42714,376.80676 237.9397,381.75436 240.45227,382.0691 242.96483,380.62903 245.47739,381.60516 247.98996,380.95172 250.5025,378.26065 253.01508,383.25842 255.52765,378.7337 258.0402,379.71405 260.55276,377.84265 263.06534,374.57227 265.57788,373.7041 268.09045,290.3328 270.60303,378.71277 273.11557,373.39575 275.62814,376.54593 278.1407,368.84573 280.65326,376.49036 283.16583,373.64752 285.6784,374.09042 288.19095,374.1846 290.70352,372.0575 293.21606,371.17206 295.72864,368.22958 298.2412,373.82056 300.75378,370.64124 303.26633,372.81857 305.7789,371.17532 308.29144,372.85065 310.80402,369.3757 313.3166,373.56525 315.82916,370.46173 318.3417,372.36316 320.85428,372.38846 323.36682,372.69424 325.8794,367.08893 328.39197,370.50192 330.90454,367.8675 333.41708,368.71005 335.92966,369.9647 338.4422,366.45578 340.95477,367.4443 343.46735,369.5747 345.97992,368.28748 348.49246,366.20218 351.005,365.5479 353.51758,363.44928 356.03015,360.79733 358.54272,360.71936 361.0553,363.18015 363.56784,338.30493 366.08038,363.16794 368.59296,348.4651 371.10553,362.32874 373.6181,356.31296 376.13068,362.60532 378.64322,356.45624 381.15576,361.24756 383.66833,354.15314 386.1809,359.50858 388.69348,355.06088 391.20605,359.9728 393.7186,354.44897 396.23114,339.96228 398.7437,360.01587 401.2563,355.9746 403.76886,354.57996 406.2814,360.19836 408.79398,356.1251 411.30655,353.72003 413.8191,349.1885 416.33167,353.04266 418.84424,355.76254 421.35678,355.79465 423.86935,354.50345 426.3819,346.3693 428.89447,348.8249 431.40704,350.72586 433.9196,354.74808 436.43216,352.4369 438.94473,353.1 441.45728,354.41132 443.96985,352.0039 446.48242,348.24377 448.99496,348.31992 451.50754,347.6136 454.0201,349.86688 456.53265,351.72998 459.04523,344.9928 461.5578,351.04758 464.07034,346.48532 466.58292,348.64722 469.0955,346.03638 471.60803,345.73077 474.1206,339.8412 476.63318,345.7018 479.14572,320.8402 481.6583,345.97568 484.17087,347.5457 486.6834,344.79114 489.19598,344.96326 491.70856,319.73975 494.2211,331.22388 496.73367,347.34222 499.24625,345.32425 501.7588,342.26935 504.27136,341.7901 506.78394,340.64 509.29648,345.71143 511.80905,337.37933 514.32166,342.21008 516.83417,339.41074 519.34674,341.09396 521.8593,327.0613 524.3718,100 526.8844,338.06964 529.397,338.55203 531.90955,336.8763 534.4221,339.594 536.9347,338.729 539.44727,335.66254 541.95984,337.64258 544.47235,343.33218 546.9849,340.93597 549.4975,342.29636 552.01,337.71967 554.5226,331.4342 557.03516,337.77878 559.5477,334.9621 562.0603,332.73187 564.5729,334.06274 567.08545,327.07507 569.598,327.9566 572.1106,325.23175 574.6231,332.10764 577.1357,323.41495 579.64825,331.6056 582.16077,327.3391 584.67334,330.24277 587.1859,325.7522 589.6985,331.72464 592.21106,328.86063 594.72363,327.08084 597.2362,317.7296 599.7488,328.2121 602.26135,323.1295 604.77386,330.61377 607.28644,323.6485 609.799,329.06415 612.3115,292.76865 614.8241,311.0996 617.3367,329.5099 619.84924,324.43262 622.3618,324.01367 624.8744,320.26413 627.38696,318.07495 629.89954,324.4995 632.4121,321.28766 634.9246,319.6184 637.4372,323.80206 639.9497,319.801 642.4623,319.26776 644.97485,292.2933 647.4874,318.3729 650,319.74536 " stroke="black"/>
<text alignment-baseline="middle" class="poloto_text" font-size="large" text-anchor="start" x="675" y="200">
not_checked
</text>
<line class="poloto2stroke" x1="680" x2="730" y1="181.25" y2="181.25"/>
<polyline class="poloto2stroke" fill="none" points="150,400 152.51256,399.4416 155.02513,398.66232 157.53769,397.38293 160.05025,396.5373 162.56282,395.46625 165.07538,393.50717 167.58794,392.41287 170.1005,388.73947 172.61307,386.711 175.12563,385.5637 177.63818,381.14737 180.15076,379.95544 182.66331,377.7074 185.17587,377.08728 187.68845,371.45776 190.201,373.15884 192.71356,371.9454 195.22614,368.4599 197.7387,368.26532 200.25125,366.3402 202.76382,359.76343 205.27638,358.39783 207.78894,357.65506 210.30151,354.6432 212.81407,353.82977 215.32663,351.7631 217.8392,349.25842 220.35176,348.58862 222.86432,345.76947 225.37689,345.77905 227.88945,359.25232 230.40201,366.8403 232.91458,371.31403 235.42714,371.2172 237.9397,369.16254 240.45227,368.7111 242.96483,366.8831 245.47739,367.396 247.98996,366.13483 250.5025,365.03305 253.01508,361.657 255.52765,360.40225 258.0402,359.84274 260.55276,358.46765 263.06534,357.76505 265.57788,357.80603 268.09045,355.50745 270.60303,354.78766 273.11557,353.57538 275.62814,353.9551 278.1407,352.57382 280.65326,350.9037 283.16583,350.42184 285.6784,349.8438 288.19095,348.4094 290.70352,347.91574 293.21606,347.24115 295.72864,346.11578 298.2412,344.6795 300.75378,343.4003 303.26633,343.47903 305.7789,342.13977 308.29144,342.5793 310.80402,340.5426 313.3166,339.3648 315.82916,340.53265 318.3417,338.28836 320.85428,338.09344 323.36682,336.121 325.8794,335.29776 328.39197,335.19208 330.90454,333.96484 333.41708,333.06848 335.92966,331.78363 338.4422,331.122 340.95477,328.73413 343.46735,330.1291 345.97992,328.0033 348.49246,328.7335 351.005,327.88654 353.51758,325.25574 356.03015,317.79144 358.54272,316.70444 361.0553,316.5464 363.56784,314.402 366.08038,314.10178 368.59296,313.0121 371.10553,313.16943 373.6181,310.67377 376.13068,309.82092 378.64322,310.46335 381.15576,308.65506 383.66833,307.70862 386.1809,305.24326 388.69348,304.05658 391.20605,305.03772 393.7186,303.00885 396.23114,303.1027 398.7437,301.1771 401.2563,301.30582 403.76886,298.40912 406.2814,298.84836 408.79398,295.8916 411.30655,295.8702 413.8191,293.74854 416.33167,290.45605 418.84424,290.74728 421.35678,292.07507 423.86935,291.55347 426.3819,291.93448 428.89447,287.7481 431.40704,291.0855 433.9196,289.13208 436.43216,285.5077 438.94473,285.72003 441.45728,285.5106 443.96985,282.39694 446.48242,282.39618 448.99496,281.56952 451.50754,279.33652 454.0201,276.9192 456.53265,278.21356 459.04523,274.7304 461.5578,277.54053 464.07034,276.61755 466.58292,274.90625 469.0955,273.6299 471.60803,273.35376 474.1206,270.73477 476.63318,272.77948 479.14572,268.3518 481.6583,270.2522 484.17087,266.37805 486.6834,265.32288 489.19598,267.21225 491.70856,263.74066 494.2211,262.55704 496.73367,261.6096 499.24625,263.1585 501.7588,259.0994 504.27136,259.22717 506.78394,258.67572 509.29648,260.01245 511.80905,258.49884 514.32166,254.4051 516.83417,257.19644 519.34674,251.81664 521.8593,249.86876 524.3718,248.47359 526.8844,247.4891 529.397,247.91797 531.90955,246.5725 534.4221,249.12009 536.9347,248.01721 539.44727,247.71829 541.95984,243.40062 544.47235,246.4856 546.9849,241.66747 549.4975,244.032 552.01,244.14857 554.5226,240.26997 557.03516,239.03944 559.5477,239.27863 562.0603,228.52007 564.5729,226.51636 567.08545,222.71007 569.598,221.15862 572.1106,219.64825 574.6231,221.51765 577.1357,218.55199 579.64825,216.31825 582.16077,217.62077 584.67334,219.02544 587.1859,214.66273 589.6985,213.56917 592.21106,215.74902 594.72363,211.57993 597.2362,214.32161 599.7488,209.00043 602.26135,210.8913 604.77386,212.0467 607.28644,209.03166 609.799,203.41632 612.3115,209.83644 614.8241,201.93593 617.3367,205.77254 619.84924,201.0206 622.3618,202.67963 624.8744,198.02298 627.38696,198.37425 629.89954,194.72665 632.4121,193.69064 634.9246,194.56773 637.4372,197.93266 639.9497,190.45354 642.4623,196.76079 644.97485,187.65465 647.4874,189.6752 650,191.62099 " stroke="black"/>
<text alignment-baseline="middle" class="poloto_text" font-size="large" text-anchor="start" x="675" y="250">
not_checked_par
</text>
<line class="poloto3stroke" x1="680" x2="730" y1="231.25" y2="231.25"/>
<polyline class="poloto3stroke" fill="none" points="150,399.99808 152.51256,399.2144 155.02513,398.23828 157.53769,396.77368 160.05025,395.87445 162.56282,394.82773 165.07538,392.90134 167.58794,391.88724 170.1005,390.6734 172.61307,386.1166 175.12563,385.04324 177.63818,376.8548 180.15076,377.52808 182.66331,373.00702 185.17587,372.07465 187.68845,373.6491 190.201,369.62552 192.71356,367.2219 195.22614,368.2613 197.7387,368.32944 200.25125,366.71173 202.76382,375.60208 205.27638,376.25375 207.78894,375.66693 210.30151,372.19073 212.81407,366.33102 215.32663,374.94662 217.8392,370.63184 220.35176,365.8581 222.86432,368.99445 225.37689,368.6056 227.88945,376.88397 230.40201,380.87872 232.91458,379.87695 235.42714,380.88858 237.9397,382.41455 240.45227,382.63025 242.96483,377.175 245.47739,382.31473 247.98996,381.8329 250.5025,379.53912 253.01508,380.59122 255.52765,377.10516 258.0402,377.37827 260.55276,373.02206 263.06534,375.8879 265.57788,376.82724 268.09045,369.19266 270.60303,378.24066 273.11557,376.92157 275.62814,374.87198 278.1407,378.68893 280.65326,376.00232 283.16583,375.87988 285.6784,372.9193 288.19095,373.22205 290.70352,374.95337 293.21606,371.44852 295.72864,378.2616 298.2412,374.34247 300.75378,372.84918 303.26633,376.2046 305.7789,371.91974 308.29144,373.3683 310.80402,369.56442 313.3166,374.23483 315.82916,373.90073 318.3417,372.60306 320.85428,372.87576 323.36682,372.40338 325.8794,373.82913 328.39197,286.39777 330.90454,368.05734 333.41708,370.9161 335.92966,366.40927 338.4422,368.9899 340.95477,367.3112 343.46735,367.937 345.97992,369.97577 348.49246,366.54977 351.005,365.9119 353.51758,363.56253 356.03015,362.25693 358.54272,360.16693 361.0553,362.2166 363.56784,365.4761 366.08038,363.12766 368.59296,364.14563 371.10553,360.79343 373.6181,362.0395 376.13068,359.10516 378.64322,364.6766 381.15576,354.80823 383.66833,356.73203 386.1809,361.26157 388.69348,356.63736 391.20605,360.00974 393.7186,357.03784 396.23114,347.06564 398.7437,360.1571 401.2563,348.3343 403.76886,359.46188 406.2814,356.0628 408.79398,355.75067 411.30655,355.16086 413.8191,352.36902 416.33167,353.0658 418.84424,356.1922 421.35678,348.37616 423.86935,355.68195 426.3819,357.7722 428.89447,344.93878 431.40704,354.93887 433.9196,354.32446 436.43216,353.33704 438.94473,345.0327 441.45728,345.15387 443.96985,350.8519 446.48242,340.80795 448.99496,350.3024 451.50754,239.39552 454.0201,353.2445 456.53265,346.69598 459.04523,352.73895 461.5578,350.71835 464.07034,351.3576 466.58292,345.8391 469.0955,350.2795 471.60803,347.45975 474.1206,347.76337 476.63318,347.322 479.14572,348.40607 481.6583,347.29776 484.17087,348.8466 486.6834,342.88885 489.19598,348.26236 491.70856,322.34802 494.2211,338.2383 496.73367,347.28555 499.24625,342.9732 501.7588,344.1883 504.27136,346.6221 506.78394,344.99835 509.29648,342.7834 511.80905,344.74982 514.32166,342.01627 516.83417,345.15018 519.34674,338.48502 521.8593,337.16714 524.3718,316.44077 526.8844,334.82697 529.397,341.71216 531.90955,338.47842 534.4221,338.29822 536.9347,329.11743 539.44727,327.2309 541.95984,335.42624 544.47235,344.37106 546.9849,339.881 549.4975,337.69485 552.01,338.97052 554.5226,337.04834 557.03516,335.06918 559.5477,331.18036 562.0603,338.40207 564.5729,331.80652 567.08545,324.27728 569.598,329.70264 572.1106,329.132 574.6231,325.94873 577.1357,332.53442 579.64825,325.42053 582.16077,328.35382 584.67334,328.6062 587.1859,331.77518 589.6985,330.013 592.21106,329.7329 594.72363,326.4895 597.2362,314.6545 599.7488,330.05325 602.26135,325.04474 604.77386,322.53094 607.28644,327.4615 609.799,328.75217 612.3115,331.68454 614.8241,324.44714 617.3367,332.0909 619.84924,320.6001 622.3618,326.98895 624.8744,320.61612 627.38696,323.78918 629.89954,325.2895 632.4121,325.66684 634.9246,319.6065 637.4372,321.73724 639.9497,322.51007 642.4623,321.48343 644.97485,295.0254 647.4874,319.0463 650,323.8437 " stroke="black"/>
<text alignment-baseline="start" class="poloto_text" font-size="x-large" text-anchor="middle" x="400" y="37.5">
Bench of checked vs unchecked binning with abspiral(x,1.0)
</text>
<text alignment-baseline="start" class="poloto_text" font-size="large" text-anchor="middle" x="400" y="481.25">
Number of Elements
</text>
<text alignment-baseline="start" class="poloto_text" font-size="large" text-anchor="middle" transform="rotate(-90,37.5,250)" x="37.5" y="250">
Time in Seconds
</text>
<path class="poloto_axis_lines" d="M150,100 L150,400 L650,400" stroke="black"/>
</svg>