<svg class="poloto" width="800" height="500" viewBox="0 0 800 500" xmlns="http://www.w3.org/2000/svg" ><style><style>.poloto {
            font-family: "Arial";
            stroke-width:2;
            }
            .poloto_text{fill: var(--poloto_fg_color,black);  }
            .poloto_axis_lines{stroke: var(--poloto_fg_color,black);stoke-width:3;fill:none}
            .poloto_background{fill: var(--poloto_bg_color,aliceblue); }
            .poloto0stroke{stroke:  var(--poloto_color0,blue); }
            .poloto1stroke{stroke:  var(--poloto_color1,red); }
            .poloto2stroke{stroke:  var(--poloto_color2,green); }
            .poloto3stroke{stroke:  var(--poloto_color3,gold); }
            .poloto4stroke{stroke:  var(--poloto_color4,aqua); }
            .poloto5stroke{stroke:  var(--poloto_color5,brown); }
            .poloto6stroke{stroke:  var(--poloto_color6,lime); }
            .poloto7stroke{stroke:  var(--poloto_color7,chocolate); }
            .poloto0fill{fill:var(--poloto_color0,blue);}
            .poloto1fill{fill:var(--poloto_color1,red);}
            .poloto2fill{fill:var(--poloto_color2,green);}
            .poloto3fill{fill:var(--poloto_color3,gold);}
            .poloto4fill{fill:var(--poloto_color4,aqua);}
            .poloto5fill{fill:var(--poloto_color5,brown);}
            .poloto6fill{fill:var(--poloto_color6,lime);}
            .poloto7fill{fill:var(--poloto_color7,chocolate);}</style></style><rect class="poloto_background" fill="white" x="0" y="0" width="800" height="500" /><line class="poloto_axis_lines" stroke="black" x1="150" x2="150" y1="400" y2="405" /><text class="poloto_text" alignment-baseline="start" text-anchor="middle" x="150" y="430" >0</text><line class="poloto_axis_lines" stroke="black" x1="213.13131313131314" x2="213.13131313131314" y1="400" y2="405" /><text class="poloto_text" alignment-baseline="start" text-anchor="middle" x="213.13131313131314" y="430" >5000</text><line class="poloto_axis_lines" stroke="black" x1="276.26262626262627" x2="276.26262626262627" y1="400" y2="405" /><text class="poloto_text" alignment-baseline="start" text-anchor="middle" x="276.26262626262627" y="430" >10000</text><line class="poloto_axis_lines" stroke="black" x1="339.3939393939394" x2="339.3939393939394" y1="400" y2="405" /><text class="poloto_text" alignment-baseline="start" text-anchor="middle" x="339.3939393939394" y="430" >15000</text><line class="poloto_axis_lines" stroke="black" x1="402.52525252525254" x2="402.52525252525254" y1="400" y2="405" /><text class="poloto_text" alignment-baseline="start" text-anchor="middle" x="402.52525252525254" y="430" >20000</text><line class="poloto_axis_lines" stroke="black" x1="465.65656565656565" x2="465.65656565656565" y1="400" y2="405" /><text class="poloto_text" alignment-baseline="start" text-anchor="middle" x="465.65656565656565" y="430" >25000</text><line class="poloto_axis_lines" stroke="black" x1="528.7878787878788" x2="528.7878787878788" y1="400" y2="405" /><text class="poloto_text" alignment-baseline="start" text-anchor="middle" x="528.7878787878788" y="430" >30000</text><line class="poloto_axis_lines" stroke="black" x1="591.9191919191919" x2="591.9191919191919" y1="400" y2="405" /><text class="poloto_text" alignment-baseline="start" text-anchor="middle" x="591.9191919191919" y="430" >35000</text><line class="poloto_axis_lines" stroke="black" x1="150" x2="144" y1="344.9629374302771" y2="344.9629374302771" /><text class="poloto_text" alignment-baseline="middle" text-anchor="end" x="135" y="344.9629374302771" >0.001</text><line class="poloto_axis_lines" stroke="black" x1="150" x2="144" y1="289.9004359848864" y2="289.9004359848864" /><text class="poloto_text" alignment-baseline="middle" text-anchor="end" x="135" y="289.9004359848864" >0.002</text><line class="poloto_axis_lines" stroke="black" x1="150" x2="144" y1="234.8379345394958" y2="234.8379345394958" /><text class="poloto_text" alignment-baseline="middle" text-anchor="end" x="135" y="234.8379345394958" >0.003</text><line class="poloto_axis_lines" stroke="black" x1="150" x2="144" y1="179.7754330941051" y2="179.7754330941051" /><text class="poloto_text" alignment-baseline="middle" text-anchor="end" x="135" y="179.7754330941051" >0.004</text><line class="poloto_axis_lines" stroke="black" x1="150" x2="144" y1="124.71293164871446" y2="124.71293164871446" /><text class="poloto_text" alignment-baseline="middle" text-anchor="end" x="135" y="124.71293164871446" >0.005</text><text class="poloto_text" alignment-baseline="middle" text-anchor="start" font-size="large" x="675" y="100" >checked</text><line class="poloto0stroke" stroke="black" x1="680" x2="730" y1="81.25" y2="81.25" /><polyline class="poloto0stroke" fill="none" stroke="black"  points="150,399.95749174888414 155.05050505050505,396.2136270881077 160.1010101010101,391.1129673292154 165.15151515151516,384.87212835289336 170.2020202020202,382.6539354821658 175.25252525252526,377.94631185859066 180.3030303030303,365.39872409171653 185.35353535353534,384.6056809083991 190.40404040404042,381.907618337575 195.45454545454544,379.550172400692 200.50505050505052,377.36253921826665 205.55555555555554,368.79536461837836 210.6060606060606,366.33781505386764 215.65656565656565,363.3447276002991 220.7070707070707,359.95601607384543 225.75757575757575,358.85823498252864 230.8080808080808,362.17553044460766 235.85858585858585,360.23639433120536 240.9090909090909,357.012760184085 245.95959595959596,355.4549869556934 251.010101010101,351.9004271748862 256.06060606060606,344.82588686417955 261.1111111111111,342.83521224942433 266.16161616161617,341.0519580776139 271.2121212121212,337.6014664245385 276.26262626262627,334.63701147172156 281.3131313131313,331.80421095986054 286.3636363636364,329.3971537091753 291.4141414141414,325.6883087993181 296.4646464646464,324.37391182731517 301.5151515151515,319.5394242004099 306.5656565656566,318.22403610338097 311.6161616161616,316.0054577951433 316.66666666666663,316.25362448915763 321.7171717171717,313.2200110345253 326.7676767676768,307.5953765118786 331.8181818181818,306.2522919766227 336.86868686868684,303.43127484007096 341.9191919191919,299.2771394810249 346.969696969697,297.1569028003687 352.020202020202,297.84925869354305 357.07070707070704,284.6981859108274 362.1212121212121,282.5994786682363 367.1717171717172,278.4013483705354 372.22222222222223,277.86636110649204 377.27272727272725,272.946856977355 382.32323232323233,271.18656386864734 387.37373737373736,266.60338149833876 392.4242424242424,266.38076380499507 397.47474747474746,262.689979395612 402.52525252525254,261.40768386195174 407.57575757575756,258.00900602273646 412.62626262626264,253.10541495651717 417.67676767676767,244.82263817659427 422.72727272727275,248.37714289490003 427.77777777777777,247.06731611051708 432.8282828282828,245.96336801903843 437.8787878787879,238.70591007853017 442.9292929292929,237.9904829972502 447.979797979798,233.23501005991903 453.030303030303,229.3836633963212 458.0808080808081,227.41765678221353 463.1313131313131,227.5523947232504 468.1818181818182,222.99624804115155 473.2323232323232,221.5275108775972 478.2828282828283,220.22291503085154 483.3333333333333,217.1743796383275 488.3838383838384,208.2686807795529 493.4343434343434,207.59708344942348 498.4848484848485,206.1334120360021 503.5353535353535,201.0688182155565 508.5858585858586,200.50101370065164 513.6363636363636,200.16243437926394 518.6868686868687,198.4701434598413 523.7373737373737,188.56142607473748 528.7878787878788,184.66272565989655 533.8383838383838,184.15471902156136 538.8888888888889,186.4249459561549 543.939393939394,180.36829104716765 548.989898989899,176.2915185026524 554.040404040404,180.8342849969 559.090909090909,172.77671384788877 564.1414141414141,155.99124065727008 569.1919191919192,148.10909863786387 574.2424242424242,143.85640140123053 579.2929292929293,141.02905207701264 584.3434343434344,139.95467254881015 589.3939393939394,135.92734613059287 594.4444444444445,137.5368230478416 599.4949494949494,134.3331215262445 604.5454545454545,128.98792919843316 609.5959595959596,127.88618360701236 614.6464646464647,130.4169662984454 619.6969696969697,124.19578463513938 624.7474747474747,118.77702880539704 629.7979797979798,112.80203158605332 634.8484848484848,106.46731104476692 639.8989898989898,111.91574556278835 644.9494949494949,109.92507094803312 650,100 "/><text class="poloto_text" alignment-baseline="middle" text-anchor="start" font-size="large" x="675" y="150" >checked_par</text><line class="poloto1stroke" stroke="black" x1="680" x2="730" y1="131.25" y2="131.25" /><polyline class="poloto1stroke" fill="none" stroke="black"  points="150,399.7562933686027 155.05050505050505,395.2465643752223 160.1010101010101,390.3192964333815 165.15151515151516,383.9981212674507 170.2020202020202,381.54817032813946 175.25252525252526,376.2066121254236 180.3030303030303,364.54266738174505 185.35353535353534,366.3843979300905 190.40404040404042,375.75977992619426 195.45454545454544,377.5626363485192 200.50505050505052,380.3208271709217 205.55555555555554,377.88023685685624 210.6060606060606,377.5504675356998 215.65656565656565,371.89956819986367 220.7070707070707,377.91145729517575 225.75757575757575,374.77162827525524 230.8080808080808,377.505371347016 235.85858585858585,371.1920150562904 240.9090909090909,373.32172248719525 245.95959595959596,377.2844605912171 251.010101010101,375.248799912781 256.06060606060606,374.1947384476119 261.1111111111111,349.93976162341875 266.16161616161617,367.44302958287955 271.2121212121212,361.5327308027342 276.26262626262627,367.47689302126844 281.3131313131313,365.36276827827265 286.3636363636364,362.9683203404184 291.4141414141414,364.02348305561645 296.4646464646464,362.95025983994435 301.5151515151515,360.7243582190144 306.5656565656566,358.71771547884003 311.6161616161616,359.0972613013031 316.66666666666663,364.46761719227493 321.7171717171717,361.53124411519514 326.7676767676768,357.2261824396873 331.8181818181818,346.8749827929683 336.86868686868684,356.6771542377753 341.9191919191919,354.61324649609776 346.969696969697,353.6616563461185 352.020202020202,354.9565061301083 357.07070707070704,345.1483328726437 362.1212121212121,342.5351216165469 367.1717171717172,344.4417708540965 372.22222222222223,348.3006060178909 377.27272727272725,340.14948367892396 382.32323232323233,333.3622595007593 387.37373737373736,342.5883670554446 392.4242424242424,337.8546438061844 397.47474747474746,337.9692288716923 402.52525252525254,342.9076745013265 407.57575757575756,339.0142050241229 412.62626262626264,338.4833474476879 417.67676767676767,334.5919703455392 422.72727272727275,337.1179625993465 427.77777777777777,337.5862141116381 432.8282828282828,333.79758363718656 437.8787878787879,333.5871347566623 442.9292929292929,334.60656190842224 447.979797979798,327.826550917947 453.030303030303,311.1602880429576 458.0808080808081,329.82933928302015 463.1313131313131,325.63445767290455 468.1818181818182,327.3806547812422 473.2323232323232,326.9593715826835 478.2828282828283,329.5611849009811 483.3333333333333,322.4237632136238 488.3838383838384,320.932725736984 493.4343434343434,321.47354962618067 498.4848484848485,318.0312072233192 503.5353535353535,313.58144129401285 508.5858585858586,315.9446137310461 513.6363636363636,320.24928996904384 518.6868686868687,317.1509780752132 523.7373737373737,312.83980446204487 528.7878787878788,312.36935044969545 533.8383838383838,308.78065191799215 538.8888888888889,316.56863705992674 543.939393939394,313.56481241857637 548.989898989899,309.25182174286033 554.040404040404,312.8950321509946 559.090909090909,288.36722063213955 564.1414141414141,283.6173090074544 569.1919191919192,300.6818389553983 574.2424242424242,299.83569349568694 579.2929292929293,303.5476219056251 584.3434343434344,292.9731988780465 589.3939393939394,294.0194965305118 594.4444444444445,295.40729181694144 599.4949494949494,291.55792740339564 604.5454545454545,294.9939926810923 609.5959595959596,265.03255845710464 614.6464646464647,300.90269464869573 619.6969696969697,292.20623329541365 624.7474747474747,291.7812609092581 629.7979797979798,291.7038430322259 634.8484848484848,285.2391199250269 639.8989898989898,289.7772061066517 644.9494949494949,292.70576030852624 650,281.72657283282257 "/><text class="poloto_text" alignment-baseline="middle" text-anchor="start" font-size="large" x="675" y="200" >not_checked</text><line class="poloto2stroke" stroke="black" x1="680" x2="730" y1="181.25" y2="181.25" /><polyline class="poloto2stroke" fill="none" stroke="black"  points="150,400 155.05050505050505,396.4313442188228 160.1010101010101,391.3535353980303 165.15151515151516,385.4239096798776 170.2020202020202,382.890704238381 175.25252525252526,378.2040043653551 180.3030303030303,368.5925694255549 185.35353535353534,384.7299569741614 190.40404040404042,382.18039796973545 195.45454545454544,379.7189940301236 200.50505050505052,377.56753691114784 205.55555555555554,368.25536666670337 210.6060606060606,366.3183779908574 215.65656565656565,363.2629047231512 220.7070707070707,360.67904178032484 225.75757575757575,364.05745661900824 230.8080808080808,361.32079523467087 235.85858585858585,359.9361935733251 240.9090909090909,356.72885792663254 245.95959595959596,355.1487843851556 251.010101010101,351.5773754789061 256.06060606060606,344.6419230468505 261.1111111111111,342.4795084900871 266.16161616161617,340.89079013588326 271.2121212121212,336.5779646476716 276.26262626262627,335.10807117158686 281.3131313131313,331.4582532632792 286.3636363636364,328.65810481477524 291.4141414141414,325.76236786376217 296.4646464646464,323.5784238689336 301.5151515151515,320.3622231595084 306.5656565656566,317.6998961521223 311.6161616161616,315.907391480069 316.66666666666663,316.0506090463285 321.7171717171717,312.7588075224187 326.7676767676768,307.8321452680938 331.8181818181818,307.0097868090069 336.86868686868684,303.6022439070589 341.9191919191919,299.1773111659044 346.969696969697,296.9720029205151 352.020202020202,297.46795087103374 357.07070707070704,284.46169246711946 362.1212121212121,282.9060116137828 367.1717171717172,279.07393682569085 372.22222222222223,278.1579170516453 377.27272727272725,272.5512329044699 382.32323232323233,271.71175000743347 387.37373737373736,266.3405131164385 392.4242424242424,266.6488080620312 397.47474747474746,263.35287685051304 402.52525252525254,261.76311230878173 407.57575757575756,257.7063825147926 412.62626262626264,253.22253289709153 417.67676767676767,245.0035184938424 422.72727272727275,248.24928776654383 427.77777777777777,246.77030897772065 432.8282828282828,246.2898886526096 437.8787878787879,238.71857445386263 442.9292929292929,238.42118188355605 447.979797979798,233.74632044834095 453.030303030303,229.35789414564474 458.0808080808081,227.90694217005725 463.1313131313131,227.72292329022676 468.1818181818182,223.6215378075654 473.2323232323232,221.5917137542825 478.2828282828283,220.9854205508673 483.3333333333333,217.20185582654875 488.3838383838384,208.12645433831946 493.4343434343434,207.4086045069759 498.4848484848485,205.45878626829318 503.5353535353535,201.43850785026086 508.5858585858586,200.79956258348855 513.6363636363636,200.56631782736588 518.6868686868687,198.6045510258695 523.7373737373737,188.9257746468016 528.7878787878788,184.93385341701367 533.8383838383838,183.7027660096976 538.8888888888889,186.31091151566147 543.939393939394,180.36790560965756 548.989898989899,176.30897331561056 554.040404040404,181.020836751797 559.090909090909,170.86841273529583 564.1414141414141,155.86492727895435 569.1919191919192,148.46986814733407 574.2424242424242,143.48445420396695 579.2929292929293,141.37132058599718 584.3434343434344,139.6521591658692 589.3939393939394,136.32946757864858 594.4444444444445,138.03420262339785 599.4949494949494,134.63635072170422 604.5454545454545,129.67907371657572 609.5959595959596,128.73833087938118 614.6464646464647,129.62015684002915 619.6969696969697,123.97729662940407 624.7474747474747,118.40932142074473 629.7979797979798,113.11170309418219 634.8484848484848,106.22635753844196 639.8989898989898,111.56202405350314 644.9494949494949,110.03299345086612 650,100.79069752075583 "/><text class="poloto_text" alignment-baseline="middle" text-anchor="start" font-size="large" x="675" y="250" >not_checked_par</text><line class="poloto3stroke" stroke="black" x1="680" x2="730" y1="231.25" y2="231.25" /><polyline class="poloto3stroke" fill="none" stroke="black"  points="150,399.9986784999653 155.05050505050505,395.87339589167664 160.1010101010101,390.5751168150968 165.15151515151516,384.20405502285644 170.2020202020202,382.03751077848466 175.25252525252526,377.46952565857504 180.3030303030303,365.94527448106345 185.35353535353534,353.72420734776045 190.40404040404042,380.317523420835 195.45454545454544,379.93114984819266 200.50505050505052,375.41982404227036 205.55555555555554,379.8867694720277 210.6060606060606,374.5339234565155 215.65656565656565,368.0947493499872 220.7070707070707,360.3301107086654 225.75757575757575,376.7497486396809 230.8080808080808,379.2621955181326 235.85858585858585,380.1241439157588 240.9090909090909,379.6932798419486 245.95959595959596,378.1220163007029 251.010101010101,376.14422631128593 256.06060606060606,375.25342516290243 261.1111111111111,374.0816400696431 266.16161616161617,369.30001244412534 271.2121212121212,367.8374422807329 276.26262626262627,358.1059160252803 281.3131313131313,366.2106206755288 286.3636363636364,365.34173440272053 291.4141414141414,356.1109465354124 296.4646464646464,364.28954506260055 301.5151515151515,362.30723994806505 306.5656565656566,363.1871937836638 311.6161616161616,362.7698200227078 316.66666666666663,362.1423277562361 321.7171717171717,363.8082987999679 326.7676767676768,354.2356829236867 331.8181818181818,353.2084919592229 336.86868686868684,353.5412897179589 341.9191919191919,343.3113927619241 346.969696969697,352.2952253102497 352.020202020202,354.0012267925322 357.07070707070704,346.7232856014863 362.1212121212121,345.51047894465006 367.1717171717172,346.0617096466199 372.22222222222223,350.678590267813 377.27272727272725,343.2718578858863 382.32323232323233,350.07851912706116 387.37373737373736,347.3462627428394 392.4242424242424,342.985753128376 397.47474747474746,344.39783097794304 402.52525252525254,338.10798637533463 407.57575757575756,323.0802734183572 412.62626262626264,339.298933219097 417.67676767676767,336.24092707632434 422.72727272727275,330.00586966265405 427.77777777777777,339.1837424660732 432.8282828282828,335.39472655411157 437.8787878787879,334.9734433555529 442.9292929292929,326.57024488496893 447.979797979798,326.0315684333287 453.030303030303,329.5730784012933 458.0808080808081,328.00566923514884 463.1313131313131,335.0710141081141 468.1818181818182,326.08580499725235 473.2323232323232,327.7917514170335 478.2828282828283,315.30693490180704 483.3333333333333,324.60264145831934 488.3838383838384,323.3654971758443 493.4343434343434,323.1134210442273 498.4848484848485,315.89940741735944 503.5353535353535,315.5361050328228 508.5858585858586,309.89104232213987 513.6363636363636,312.35040894919825 518.6868686868687,317.90643559504394 523.7373737373737,305.27972301359273 528.7878787878788,311.8161374976736 533.8383838383838,312.6202702687821 538.8888888888889,316.55999224719983 543.939393939394,313.59906129447535 548.989898989899,310.05270582638354 554.040404040404,312.24892875903436 559.090909090909,306.4053657306408 564.1414141414141,225.25733460050506 569.1919191919192,301.75054704595186 574.2424242424242,300.4880189503105 579.2929292929293,299.0274310369701 584.3434343434344,299.78195249427625 589.3939393939394,293.566056831109 594.4444444444445,297.3376179301125 599.4949494949494,296.8627589176474 604.5454545454545,289.48273184892173 609.5959595959596,294.76548330009393 614.6464646464647,300.40933463574504 619.6969696969697,299.7341031805202 624.7474747474747,290.03192523833803 629.7979797979798,281.58175845402116 634.8484848484848,286.15381819903774 639.8989898989898,290.6638775674268 644.9494949494949,295.6130053223414 650,280.2245228558938 "/><text class="poloto_text" alignment-baseline="start" text-anchor="middle" font-size="x-large" x="400" y="37.5" >Bench of checked vs unchecked binning with abspiral(x,1.0)</text><text class="poloto_text" alignment-baseline="start" text-anchor="middle" font-size="x-large" x="400" y="481.25" >Number of Elements</text><text class="poloto_text" alignment-baseline="start" text-anchor="middle" font-size="x-large" transform="rotate(-90,37.5,250)" x="37.5" y="250" >Time in Seconds</text><path stroke="black" fill="none" class="poloto_axis_lines"  d="M 150 100 L 150 400 L 650 400 "/></svg>