<svg class="poloto" width="800" height="500" viewBox="0 0 800 500" xmlns="http://www.w3.org/2000/svg"><style>.poloto {
                    font-family: "Arial";
                    stroke-width:2;
                    }
                    .poloto_text{fill: var(--poloto_fg_color,black);  }
                    .poloto_axis_lines{stroke: var(--poloto_fg_color,black);stoke-width:3;fill:none}
                    .poloto_background{fill: var(--poloto_bg_color,aliceblue); }
                    .poloto0stroke{stroke:  var(--poloto_color0,blue); }
                    .poloto1stroke{stroke:  var(--poloto_color1,red); }
                    .poloto2stroke{stroke:  var(--poloto_color2,green); }
                    .poloto3stroke{stroke:  var(--poloto_color3,gold); }
                    .poloto4stroke{stroke:  var(--poloto_color4,aqua); }
                    .poloto5stroke{stroke:  var(--poloto_color5,brown); }
                    .poloto6stroke{stroke:  var(--poloto_color6,lime); }
                    .poloto7stroke{stroke:  var(--poloto_color7,chocolate); }
                    .poloto0fill{fill:var(--poloto_color0,blue);}
                    .poloto1fill{fill:var(--poloto_color1,red);}
                    .poloto2fill{fill:var(--poloto_color2,green);}
                    .poloto3fill{fill:var(--poloto_color3,gold);}
                    .poloto4fill{fill:var(--poloto_color4,aqua);}
                    .poloto5fill{fill:var(--poloto_color5,brown);}
                    .poloto6fill{fill:var(--poloto_color6,lime);}
                    .poloto7fill{fill:var(--poloto_color7,chocolate);}</style><rect class="poloto_background" fill="white" x="0" y="0" width="800" height="500"/><line class="poloto_axis_lines" stroke="black" x1="150" x2="150" y1="400" y2="405"/><text class="poloto_text" alignment-baseline="start" text-anchor="middle" x="150" y="430">0</text><line class="poloto_axis_lines" stroke="black" x1="251.010101010101" x2="251.010101010101" y1="400" y2="405"/><text class="poloto_text" alignment-baseline="start" text-anchor="middle" x="251.010101010101" y="430">2000</text><line class="poloto_axis_lines" stroke="black" x1="352.020202020202" x2="352.020202020202" y1="400" y2="405"/><text class="poloto_text" alignment-baseline="start" text-anchor="middle" x="352.020202020202" y="430">4000</text><line class="poloto_axis_lines" stroke="black" x1="453.030303030303" x2="453.030303030303" y1="400" y2="405"/><text class="poloto_text" alignment-baseline="start" text-anchor="middle" x="453.030303030303" y="430">6000</text><line class="poloto_axis_lines" stroke="black" x1="554.040404040404" x2="554.040404040404" y1="400" y2="405"/><text class="poloto_text" alignment-baseline="start" text-anchor="middle" x="554.040404040404" y="430">8000</text><line class="poloto_axis_lines" stroke="black" x1="150" x2="144" y1="357.07238903831393" y2="357.07238903831393"/><text class="poloto_text" alignment-baseline="middle" text-anchor="end" x="135" y="357.07238903831393">0.002</text><line class="poloto_axis_lines" stroke="black" x1="150" x2="144" y1="314.14329702295333" y2="314.14329702295333"/><text class="poloto_text" alignment-baseline="middle" text-anchor="end" x="135" y="314.14329702295333">0.004</text><line class="poloto_axis_lines" stroke="black" x1="150" x2="144" y1="271.2142050075927" y2="271.2142050075927"/><text class="poloto_text" alignment-baseline="middle" text-anchor="end" x="135" y="271.2142050075927">0.006</text><line class="poloto_axis_lines" stroke="black" x1="150" x2="144" y1="228.28511299223214" y2="228.28511299223214"/><text class="poloto_text" alignment-baseline="middle" text-anchor="end" x="135" y="228.28511299223214">0.008</text><line class="poloto_axis_lines" stroke="black" x1="150" x2="144" y1="185.3560209768715" y2="185.3560209768715"/><text class="poloto_text" alignment-baseline="middle" text-anchor="end" x="135" y="185.3560209768715">0.010</text><line class="poloto_axis_lines" stroke="black" x1="150" x2="144" y1="142.4269289615109" y2="142.4269289615109"/><text class="poloto_text" alignment-baseline="middle" text-anchor="end" x="135" y="142.4269289615109">0.012</text><text class="poloto_text" alignment-baseline="middle" text-anchor="start" font-size="large" x="675" y="100">brocc</text><line class="poloto0stroke" stroke="black" x1="680" x2="730" y1="81.25" y2="81.25"/><polyline class="poloto0stroke" fill="none" stroke="black" points="150,399.9815190258874 155.05050505050505,399.3770344812191 160.1010101010101,398.29249536508905 165.15151515151516,397.3100630943175 170.2020202020202,396.2655338919458 175.25252525252526,395.1938091097823 180.3030303030303,393.81108452051353 185.35353535353534,392.75084327046415 190.40404040404042,391.7540726829595 195.45454545454544,390.6298026921692 200.50505050505052,389.3682883942058 205.55555555555554,387.9792532284108 210.6060606060606,387.3288989489241 215.65656565656565,386.01410964776966 220.7070707070707,384.9316096635103 225.75757575757575,383.7182832713342 230.8080808080808,382.9176557052477 235.85858585858585,381.68586980350494 240.9090909090909,380.66662583633024 245.95959595959596,379.7111959644364 251.010101010101,378.3257668423707 256.06060606060606,375.40055704789796 261.1111111111111,374.3176492372645 266.16161616161617,373.290527781705 271.2121212121212,372.54594414524456 276.26262626262627,371.3791314242671 281.3131313131313,370.2883461252488 286.3636363636364,369.3169680956712 291.4141414141414,368.6213236241083 296.4646464646464,367.20758276585843 301.5151515151515,365.599330191687 306.5656565656566,364.7514806243836 311.6161616161616,363.5852045170563 316.66666666666663,362.3544703780679 321.7171717171717,361.5222470002581 326.7676767676768,360.32971975316343 331.8181818181818,359.2815201134244 336.86868686868684,358.20797084485025 341.9191919191919,357.27544364354657 346.969696969697,355.49787873046654 352.020202020202,354.6729747628454 357.07070707070704,351.2926307348259 362.1212121212121,350.2389361713088 367.1717171717172,348.87904985899223 372.22222222222223,347.6325822077802 377.27272727272725,346.25543840047345 382.32323232323233,345.2183144664744 387.37373737373736,344.3020144619525 392.4242424242424,342.9435018805804 397.47474747474746,341.92116701878064 402.52525252525254,340.95105539741746 407.57575757575756,339.3683241684492 412.62626262626264,338.7798736396486 417.67676767676767,337.84822648473124 422.72727272727275,336.3555819553572 427.77777777777777,335.114330188825 432.8282828282828,334.2964665922944 437.8787878787879,333.8067315105832 442.9292929292929,332.34085327008063 447.979797979798,331.3457569171646 453.030303030303,330.17205407691864 458.0808080808081,328.5949036299123 463.1313131313131,327.6321114187378 468.1818181818182,326.68260576154205 473.2323232323232,325.65393885866996 478.2828282828283,324.5867645602601 483.3333333333333,322.92457158197135 488.3838383838384,322.36308052295647 493.4343434343434,321.20959728504977 498.4848484848485,320.1638660681016 503.5353535353535,319.5590166261511 508.5858585858586,318.62284045202614 513.6363636363636,317.6813196059453 518.6868686868687,316.6537688594656 523.7373737373737,315.2428827858348 528.7878787878788,315.11364475432254 533.8383838383838,313.7192219874796 538.8888888888889,312.3379140582473 543.939393939394,311.3076373144247 548.989898989899,310.9657285610683 554.040404040404,309.4038394062735 559.090909090909,307.86116102015546 564.1414141414141,297.45978545756975 569.1919191919192,296.35039039716276 574.2424242424242,294.5146350998559 579.2929292929293,294.26098855968314 584.3434343434344,292.40151493903784 589.3939393939394,291.22959365611047 594.4444444444445,289.9744972574034 599.4949494949494,288.77645362198473 604.5454545454545,287.74909605641915 609.5959595959596,285.97990231628205 614.6464646464647,284.84820559257315 619.6969696969697,284.6388189462682 624.7474747474747,283.18397348241365 629.7979797979798,282.11111107931174 634.8484848484848,281.05576374575213 639.8989898989898,277.32505393324925 644.9494949494949,278.18586808634126 650,277.3058002354804 "/><text class="poloto_text" alignment-baseline="middle" text-anchor="start" font-size="large" x="675" y="150">brocc_par</text><line class="poloto1stroke" stroke="black" x1="680" x2="730" y1="131.25" y2="131.25"/><polyline class="poloto1stroke" fill="none" stroke="black" points="150,399.95732848253675 155.05050505050505,399.26986200300274 160.1010101010101,398.0922311508374 165.15151515151516,397.2516795291766 170.2020202020202,396.08589710640746 175.25252525252526,395.1126516613272 180.3030303030303,393.7037188613831 185.35353535353534,392.7011957755484 190.40404040404042,391.6760061291296 195.45454545454544,390.6131462044673 200.50505050505052,389.2639492360625 205.55555555555554,387.93658171094756 210.6060606060606,387.16044519185584 215.65656565656565,385.8611103638269 220.7070707070707,384.8082743821502 225.75757575757575,383.61336457044865 230.8080808080808,382.74029416158623 235.85858585858585,381.24732766402207 240.9090909090909,380.04655803126036 245.95959595959596,379.5678986552891 251.010101010101,378.22260823425773 256.06060606060606,377.46016609551896 261.1111111111111,374.7622658432676 266.16161616161617,374.50561426665377 271.2121212121212,374.0009827900132 276.26262626262627,373.30718426940695 281.3131313131313,373.39390103527796 286.3636363636364,372.3908413357931 291.4141414141414,371.54958138411405 296.4646464646464,371.49057534713893 301.5151515151515,370.1978301347344 306.5656565656566,368.9575228082266 311.6161616161616,369.0948959026757 316.66666666666663,367.42819536972536 321.7171717171717,367.4193949058622 326.7676767676768,366.3892898784076 331.8181818181818,365.7154104564965 336.86868686868684,364.895099901721 341.9191919191919,364.70599725139334 346.969696969697,363.82369708774763 352.020202020202,361.7990752501192 357.07070707070704,369.0511296933661 362.1212121212121,369.168326114568 367.1717171717172,368.70555050264244 372.22222222222223,366.93740852525974 377.27272727272725,367.98577988136685 382.32323232323233,367.16733674209405 387.37373737373736,365.47962241860216 392.4242424242424,367.51785277839946 397.47474747474746,365.40951921134103 402.52525252525254,356.8052627632484 407.57575757575756,363.71079357574723 412.62626262626264,363.3726196533962 417.67676767676767,362.75115665283585 422.72727272727275,363.50683745958224 427.77777777777777,363.16591607534224 432.8282828282828,362.34637824422305 437.8787878787879,364.9077639838655 442.9292929292929,365.1651238904976 447.979797979798,361.14530810781724 453.030303030303,362.98333864700095 458.0808080808081,362.18636005373577 463.1313131313131,364.984499735843 468.1818181818182,362.460827203536 473.2323232323232,360.01195861406575 478.2828282828283,360.35122722826316 483.3333333333333,359.9033694758129 488.3838383838384,361.03880103052717 493.4343434343434,360.2519322384316 498.4848484848485,359.2808976415902 503.5353535353535,359.36727097472505 508.5858585858586,357.0623436307823 513.6363636363636,357.41453390167635 518.6868686868687,358.43652533074004 523.7373737373737,356.11215110811435 528.7878787878788,358.6357163176913 533.8383838383838,358.1412375713124 538.8888888888889,357.1085353337909 543.939393939394,356.0150025728836 548.989898989899,355.1319296855816 554.040404040404,354.5175285206578 559.090909090909,354.685767632266 564.1414141414141,349.342319155476 569.1919191919192,347.90848748216297 574.2424242424242,352.9036093063403 579.2929292929293,350.00778447535214 584.3434343434344,351.0779638102031 589.3939393939394,346.9597545486235 594.4444444444445,349.80621092379397 599.4949494949494,345.8455299653648 604.5454545454545,345.34622169613414 609.5959595959596,346.28952409953365 614.6464646464647,345.69051301409735 619.6969696969697,345.3663339757433 624.7474747474747,344.9032149310816 629.7979797979798,345.1644599205411 634.8484848484848,348.39618343200345 639.8989898989898,347.1989983784251 644.9494949494949,345.4265420272949 650,344.52964597236394 "/><text class="poloto_text" alignment-baseline="middle" text-anchor="start" font-size="large" x="675" y="200">naive</text><line class="poloto2stroke" stroke="black" x1="680" x2="730" y1="181.25" y2="181.25"/><polyline class="poloto2stroke" fill="none" stroke="black" points="150,400 155.05050505050505,399.21119939876377 160.1010101010101,397.2421278062032 165.15151515151516,394.6063459500981 170.2020202020202,391.18826725019704 175.25252525252526,387.1555298108201 180.3030303030303,383.2605947568124 185.35353535353534,377.76592855339834 190.40404040404042,373.184364137151 195.45454545454544,366.5982472337924 200.50505050505052,360.4479894016658 205.55555555555554,353.60414769439296 210.6060606060606,346.5550405336487 215.65656565656565,340.0724256711391 220.7070707070707,331.81864233025976 225.75757575757575,324.3295763699961 230.8080808080808,313.0988322142196 235.85858585858585,302.2017114970405 240.9090909090909,292.1720160131237 245.95959595959596,282.9777850534639 251.010101010101,272.5164804784247 256.06060606060606,261.8532803836373 261.1111111111111,248.76969515193178 266.16161616161617,237.73949424950501 271.2121212121212,224.12880416148892 276.26262626262627,208.5646901349519 281.3131313131313,192.38720524169935 286.3636363636364,181.05008279590876 291.4141414141414,168.124970307378 296.4646464646464,151.73133743582815 301.5151515151515,139.26361295817503 "/><text class="poloto_text" alignment-baseline="middle" text-anchor="start" font-size="large" x="675" y="250">nosort</text><line class="poloto3stroke" stroke="black" x1="680" x2="730" y1="231.25" y2="231.25"/><polyline class="poloto3stroke" fill="none" stroke="black" points="150,399.9840518423163 155.05050505050505,399.1418259860669 160.1010101010101,397.7750066253899 165.15151515151516,396.1840115462086 170.2020202020202,393.9708451364487 175.25252525252526,391.65119311394466 180.3030303030303,389.9437528726717 185.35353535353534,387.53714797429063 190.40404040404042,385.39011383078036 195.45454545454544,383.63888591565177 200.50505050505052,380.89421441764966 205.55555555555554,378.5909183792035 210.6060606060606,375.8274224743527 215.65656565656565,373.153498119992 220.7070707070707,370.5799205182171 225.75757575757575,367.4151234612067 230.8080808080808,365.60568369730527 235.85858585858585,362.268075580387 240.9090909090909,359.99777054915467 245.95959595959596,357.1639567915827 251.010101010101,351.74971824205943 256.06060606060606,353.05579293753476 261.1111111111111,350.87918064962594 266.16161616161617,347.3502804986872 271.2121212121212,345.68139058204406 276.26262626262627,340.4104922707601 281.3131313131313,339.8079395352325 286.3636363636364,337.0234942334782 291.4141414141414,332.61611460808314 296.4646464646464,329.1204201098183 301.5151515151515,328.1742414572538 306.5656565656566,324.42760495161315 311.6161616161616,318.395917271633 316.66666666666663,318.4851453893869 321.7171717171717,315.04100873063254 326.7676767676768,310.5855914512723 331.8181818181818,308.71016967294327 336.86868686868684,302.54570231135955 341.9191919191919,304.71441564633756 346.969696969697,298.42852334798835 352.020202020202,295.1569187100437 357.07070707070704,292.9895576414642 362.1212121212121,291.0926713171275 367.1717171717172,287.02889614422344 372.22222222222223,278.9063470376351 377.27272727272725,280.05631008999654 382.32323232323233,278.039801850759 387.37373737373736,271.1598997061933 392.4242424242424,267.53752145739116 397.47474747474746,268.49825307214894 402.52525252525254,261.65651489038487 407.57575757575756,262.28746522028064 412.62626262626264,254.56563772310963 417.67676767676767,255.22271040549674 422.72727272727275,249.9248311598811 427.77777777777777,248.41224606726587 432.8282828282828,245.08075534595983 437.8787878787879,238.2097824525333 442.9292929292929,237.72807511102891 447.979797979798,234.33785739184586 453.030303030303,227.16595156339167 458.0808080808081,224.89189023660796 463.1313131313131,217.59757210227198 468.1818181818182,219.69888676278583 473.2323232323232,216.1253188916052 478.2828282828283,211.29055869065124 483.3333333333333,208.25360446966258 488.3838383838384,202.36675954614216 493.4343434343434,200.90332826388453 498.4848484848485,198.7054660754281 503.5353535353535,200.22120645630648 508.5858585858586,194.69247601837824 513.6363636363636,188.41156349470282 518.6868686868687,187.2475840937983 523.7373737373737,173.21127352299595 528.7878787878788,179.62127382636154 533.8383838383838,177.43721334098805 538.8888888888889,174.2860248061465 543.939393939394,171.99316053706008 548.989898989899,164.68821745245026 554.040404040404,166.1655148314289 559.090909090909,149.8592855912223 564.1414141414141,163.7397850225549 569.1919191919192,155.60596702931252 574.2424242424242,151.39661930538438 579.2929292929293,144.31379134286206 584.3434343434344,146.8778386862095 589.3939393939394,141.37005764518472 594.4444444444445,138.2669282288544 599.4949494949494,133.61740705994674 604.5454545454545,134.12955112768998 609.5959595959596,122.19519915378174 614.6464646464647,120.3673213448597 619.6969696969697,120.4080395886362 624.7474747474747,117.74493336546334 629.7979797979798,120.51338758044193 634.8484848484848,111.62706553326228 639.8989898989898,102.75920299564928 644.9494949494949,103.93977449061771 650,100 "/><text class="poloto_text" alignment-baseline="middle" text-anchor="start" font-size="large" x="675" y="300">nosort_par</text><line class="poloto4stroke" stroke="black" x1="680" x2="730" y1="281.25" y2="281.25"/><polyline class="poloto4stroke" fill="none" stroke="black" points="150,399.98139023861137 155.05050505050505,399.1618524074921 160.1010101010101,397.7672793888271 165.15151515151516,396.06962698053366 170.2020202020202,393.9172052359755 175.25252525252526,391.579415672095 180.3030303030303,389.2254418405247 185.35353535353534,387.41825585395407 190.40404040404042,385.39543703819027 195.45454545454544,383.181111542946 200.50505050505052,380.5357350347754 205.55555555555554,378.2034618592189 210.6060606060606,375.56675702763545 215.65656565656565,372.7268044099053 220.7070707070707,369.98191826644313 225.75757575757575,367.0835820835721 230.8080808080808,365.0650347124638 235.85858585858585,361.611346330736 240.9090909090909,359.3327989138367 245.95959595959596,356.35583809893956 251.010101010101,351.1214295158686 256.06060606060606,357.85505077939195 261.1111111111111,358.47820947908696 266.16161616161617,355.0510942053167 271.2121212121212,353.0828382655044 276.26262626262627,350.06683344141925 281.3131313131313,351.87088560427276 286.3636363636364,347.7686674294689 291.4141414141414,345.7625265659531 296.4646464646464,344.04984897545427 301.5151515151515,343.847760274792 306.5656565656566,340.11136235759705 311.6161616161616,336.27702171696905 316.66666666666663,336.1655563295512 321.7171717171717,333.9197208807676 326.7676767676768,331.6144286395427 331.8181818181818,329.572313196918 336.86868686868684,325.32323459832963 341.9191919191919,329.01193829429553 346.969696969697,323.03492081299686 352.020202020202,320.31669363567624 357.07070707070704,332.9381471918364 362.1212121212121,332.16055108361616 367.1717171717172,330.78757139823483 372.22222222222223,324.3479070922867 377.27272727272725,329.4238643967289 382.32323232323233,327.31475810601427 387.37373737373736,323.89305189783795 392.4242424242424,316.512381894913 397.47474747474746,327.33132873553217 402.52525252525254,316.56943465820143 407.57575757575756,319.0254080124002 412.62626262626264,313.1605642485377 417.67676767676767,315.8077223140269 422.72727272727275,313.19909310862147 427.77777777777777,313.61715807121305 432.8282828282828,311.5944465781793 437.8787878787879,309.6183131499822 442.9292929292929,310.61864685212413 447.979797979798,307.64220118633114 453.030303030303,300.62752315738317 458.0808080808081,303.4414392808061 463.1313131313131,299.0834066466827 468.1818181818182,299.45779125814863 473.2323232323232,297.7507803077959 478.2828282828283,296.2713794033085 483.3333333333333,299.067415559907 488.3838383838384,289.7312824865904 493.4343434343434,287.61019897920346 498.4848484848485,292.21524560878316 503.5353535353535,295.4298404125314 508.5858585858586,289.5890154756515 513.6363636363636,287.7184017556281 518.6868686868687,256.0191738496577 523.7373737373737,275.6564645202502 528.7878787878788,282.48422928256326 533.8383838383838,284.35832025903983 538.8888888888889,283.2329985054952 543.939393939394,274.19226051433634 548.989898989899,280.4340646351857 554.040404040404,279.4749428613785 559.090909090909,267.15643990757076 564.1414141414141,282.88767688932364 569.1919191919192,274.8669341244497 574.2424242424242,276.3145460362997 579.2929292929293,271.5319661466904 584.3434343434344,269.99016780695877 589.3939393939394,266.02970149398965 594.4444444444445,267.6813983092806 599.4949494949494,263.68489302356465 604.5454545454545,265.52637935465555 609.5959595959596,253.86855512696422 614.6464646464647,258.65482691848683 619.6969696969697,258.71761071555926 624.7474747474747,258.75755623567954 629.7979797979798,264.61696946940214 634.8484848484848,259.8895749275786 639.8989898989898,255.70765889344827 644.9494949494949,256.72634478242674 650,253.76264905696232 "/><text class="poloto_text" alignment-baseline="middle" text-anchor="start" font-size="large" x="675" y="350">sweep</text><line class="poloto5stroke" stroke="black" x1="680" x2="730" y1="331.25" y2="331.25"/><polyline class="poloto5stroke" fill="none" stroke="black" points="150,399.9651201127375 155.05050505050505,399.3694789610244 160.1010101010101,398.09555815546855 165.15151515151516,396.50312495170476 170.2020202020202,394.715063875627 175.25252525252526,392.57667994415783 180.3030303030303,390.44746137383396 185.35353535353534,388.2404767533243 190.40404040404042,385.82766860114697 195.45454545454544,383.18971882589506 200.50505050505052,380.68414090587254 205.55555555555554,377.7926519131779 210.6060606060606,375.0676419393189 215.65656565656565,372.1667514754729 220.7070707070707,368.00054748902016 225.75757575757575,366.07047697655554 230.8080808080808,362.8792570634097 235.85858585858585,357.7654577643559 240.9090909090909,356.3634365482263 245.95959595959596,352.54800617263106 251.010101010101,349.5761539196837 256.06060606060606,345.5799062085198 261.1111111111111,342.26159471846245 266.16161616161617,338.4294219969812 271.2121212121212,334.15372736134333 276.26262626262627,330.871884134953 281.3131313131313,327.149159133565 286.3636363636364,322.57255302744545 291.4141414141414,318.7911010281804 296.4646464646464,315.10593898230576 301.5151515151515,310.18450494457284 306.5656565656566,305.7850886657466 311.6161616161616,302.31751272275187 316.66666666666663,298.12319018102914 321.7171717171717,293.6380230409023 326.7676767676768,289.2929120634755 331.8181818181818,285.04746097316246 336.86868686868684,279.68145325851845 341.9191919191919,276.34204211973554 346.969696969697,270.7927057176399 352.020202020202,266.3427189684196 357.07070707070704,260.63196918034623 362.1212121212121,256.3456495944346 367.1717171717172,252.49808679346583 372.22222222222223,247.96902465675328 377.27272727272725,242.60445506669177 382.32323232323233,237.29419077802967 387.37373737373736,232.5266789997178 392.4242424242424,227.66392903076985 397.47474747474746,222.05625199262536 402.52525252525254,217.34823993584675 407.57575757575756,211.9603598488209 412.62626262626264,205.8533316123537 417.67676767676767,201.27865731537483 422.72727272727275,195.96120240380017 427.77777777777777,190.74379374116734 432.8282828282828,185.20293583474472 437.8787878787879,179.0871500635064 442.9292929292929,174.62331868211118 447.979797979798,169.04959855575083 453.030303030303,164.24407306645938 "/><text class="poloto_text" alignment-baseline="start" text-anchor="middle" font-size="x-large" x="400" y="37.5">Bench of space partitioning algs with abspiral(x,0.6)</text><text class="poloto_text" alignment-baseline="start" text-anchor="middle" font-size="x-large" x="400" y="481.25">Number of Elements</text><text class="poloto_text" alignment-baseline="start" text-anchor="middle" font-size="x-large" transform="rotate(-90,37.5,250)" x="37.5" y="250">Time in Seconds</text><path stroke="black" fill="none" class="poloto_axis_lines" d=" M 150 100 L 150 400 L 650 400"/></svg>