<svg class="poloto" width="800" height="500" viewBox="0 0 800 500" xmlns="http://www.w3.org/2000/svg"><circle  r="1e5" class="poloto_background" /><text  class="poloto_text poloto_legend_text" x="675" y="100" >brocc</text><line  class="poloto_scatter poloto_legend_icon poloto0stroke poloto0legend" stroke="black" x1="685" x2="685" y1="81.25" y2="81.25" /><path  class="poloto_scatter poloto0stroke" d=" M 150.00 109.78 h 0 M 155.05 112.31 h 0 M 160.10 112.66 h 0 M 165.15 112.82 h 0 M 170.20 111.32 h 0 M 175.25 112.86 h 0 M 180.30 111.63 h 0 M 185.35 112.50 h 0 M 190.40 112.41 h 0 M 195.45 112.79 h 0 M 200.51 112.90 h 0 M 205.56 113.18 h 0 M 210.61 113.80 h 0 M 215.66 114.87 h 0 M 220.71 116.64 h 0 M 225.76 118.90 h 0 M 230.81 121.71 h 0 M 235.86 124.59 h 0 M 240.91 128.29 h 0 M 245.96 131.40 h 0 M 251.01 135.47 h 0 M 256.06 139.74 h 0 M 261.11 143.93 h 0 M 266.16 148.61 h 0 M 271.21 150.26 h 0 M 276.26 157.45 h 0 M 281.31 162.01 h 0 M 286.36 166.26 h 0 M 291.41 170.26 h 0 M 296.46 175.23 h 0 M 301.52 181.18 h 0 M 306.57 186.17 h 0 M 311.62 190.12 h 0 M 316.67 194.68 h 0 M 321.72 199.18 h 0 M 326.77 204.03 h 0 M 331.82 208.43 h 0 M 336.87 212.77 h 0 M 341.92 218.52 h 0 M 346.97 222.64 h 0 M 352.02 227.06 h 0 M 357.07 230.33 h 0 M 362.12 234.38 h 0 M 367.17 237.04 h 0 M 372.22 241.89 h 0 M 377.27 245.26 h 0 M 382.32 247.94 h 0 M 387.37 251.15 h 0 M 392.42 254.10 h 0 M 397.47 247.27 h 0 M 402.53 260.37 h 0 M 407.58 263.26 h 0 M 412.63 265.94 h 0 M 417.68 268.79 h 0 M 422.73 270.57 h 0 M 427.78 273.50 h 0 M 432.83 275.21 h 0 M 437.88 278.43 h 0 M 442.93 280.53 h 0 M 447.98 282.44 h 0 M 453.03 283.96 h 0 M 458.08 285.92 h 0 M 463.13 287.73 h 0 M 468.18 289.66 h 0 M 473.23 291.85 h 0 M 478.28 293.18 h 0 M 483.33 295.33 h 0 M 488.38 297.27 h 0 M 493.43 298.63 h 0 M 498.48 300.51 h 0 M 503.54 301.88 h 0 M 508.59 303.57 h 0 M 513.64 304.82 h 0 M 518.69 306.38 h 0 M 523.74 307.66 h 0 M 528.79 308.89 h 0 M 533.84 309.85 h 0 M 538.89 311.99 h 0 M 543.94 312.31 h 0 M 548.99 314.20 h 0 M 554.04 315.39 h 0 M 559.09 316.86 h 0 M 564.14 317.84 h 0 M 569.19 319.11 h 0 M 574.24 320.20 h 0 M 579.29 321.28 h 0 M 584.34 322.83 h 0 M 589.39 323.58 h 0 M 594.44 324.79 h 0 M 599.49 325.70 h 0 M 604.55 327.44 h 0 M 609.60 328.54 h 0 M 614.65 329.27 h 0 M 619.70 330.12 h 0 M 624.75 329.80 h 0 M 629.80 331.95 h 0 M 634.85 331.89 h 0 M 639.90 333.51 h 0 M 644.95 334.08 h 0 M 650.00 334.80 h 0" /><text  class="poloto_text poloto_legend_text" x="675" y="150" >brocc_par</text><line  class="poloto_scatter poloto_legend_icon poloto1stroke poloto1legend" stroke="black" x1="685" x2="685" y1="131.25" y2="131.25" /><path  class="poloto_scatter poloto1stroke" d=" M 150.00 100.00 h 0 M 155.05 101.43 h 0 M 160.10 111.10 h 0 M 165.15 111.77 h 0 M 170.20 111.17 h 0 M 175.25 109.01 h 0 M 180.30 110.37 h 0 M 185.35 111.12 h 0 M 190.40 109.62 h 0 M 195.45 112.49 h 0 M 200.51 113.25 h 0 M 205.56 113.34 h 0 M 210.61 114.06 h 0 M 215.66 114.93 h 0 M 220.71 117.12 h 0 M 225.76 117.47 h 0 M 230.81 119.68 h 0 M 235.86 123.45 h 0 M 240.91 126.49 h 0 M 245.96 130.91 h 0 M 251.01 134.33 h 0 M 256.06 137.90 h 0 M 261.11 142.44 h 0 M 266.16 147.13 h 0 M 271.21 150.17 h 0 M 276.26 155.26 h 0 M 281.31 160.43 h 0 M 286.36 164.89 h 0 M 291.41 169.74 h 0 M 296.46 173.51 h 0 M 301.52 179.41 h 0 M 306.57 183.36 h 0 M 311.62 188.74 h 0 M 316.67 191.29 h 0 M 321.72 197.03 h 0 M 326.77 202.70 h 0 M 331.82 205.98 h 0 M 336.87 209.67 h 0 M 341.92 218.06 h 0 M 346.97 222.67 h 0 M 352.02 226.93 h 0 M 357.07 230.89 h 0 M 362.12 234.49 h 0 M 367.17 236.83 h 0 M 372.22 241.93 h 0 M 377.27 245.19 h 0 M 382.32 247.83 h 0 M 387.37 251.11 h 0 M 392.42 253.27 h 0 M 397.47 257.78 h 0 M 402.53 259.09 h 0 M 407.58 259.47 h 0 M 412.63 264.13 h 0 M 417.68 267.23 h 0 M 422.73 265.90 h 0 M 427.78 271.41 h 0 M 432.83 273.74 h 0 M 437.88 275.89 h 0 M 442.93 278.21 h 0 M 447.98 280.33 h 0 M 453.03 280.43 h 0 M 458.08 283.80 h 0 M 463.13 285.89 h 0 M 468.18 287.05 h 0 M 473.23 291.50 h 0 M 478.28 292.01 h 0 M 483.33 294.31 h 0 M 488.38 295.89 h 0 M 493.43 297.49 h 0 M 498.48 298.95 h 0 M 503.54 300.77 h 0 M 508.59 302.16 h 0 M 513.64 302.00 h 0 M 518.69 304.88 h 0 M 523.74 306.45 h 0 M 528.79 307.78 h 0 M 533.84 308.92 h 0 M 538.89 310.74 h 0 M 543.94 311.65 h 0 M 548.99 312.99 h 0 M 554.04 314.55 h 0 M 559.09 315.29 h 0 M 564.14 316.74 h 0 M 569.19 318.07 h 0 M 574.24 318.54 h 0 M 579.29 320.72 h 0 M 584.34 321.84 h 0 M 589.39 322.62 h 0 M 594.44 323.72 h 0 M 599.49 324.99 h 0 M 604.55 325.32 h 0 M 609.60 327.07 h 0 M 614.65 326.84 h 0 M 619.70 328.94 h 0 M 624.75 330.26 h 0 M 629.80 328.22 h 0 M 634.85 330.29 h 0 M 639.90 331.92 h 0 M 644.95 332.15 h 0 M 650.00 333.05 h 0" /><text  class="poloto_text poloto_legend_text" x="675" y="200" >naive</text><line  class="poloto_scatter poloto_legend_icon poloto2stroke poloto2legend" stroke="black" x1="685" x2="685" y1="181.25" y2="181.25" /><path  class="poloto_scatter poloto2stroke" d=" M 150.00 110.82 h 0 M 155.05 112.65 h 0 M 160.10 112.48 h 0 M 165.15 112.62 h 0 M 170.20 112.37 h 0 M 175.25 112.31 h 0 M 180.30 112.38 h 0 M 185.35 111.86 h 0 M 190.40 112.40 h 0 M 195.45 112.59 h 0 M 200.51 112.52 h 0 M 205.56 112.78 h 0 M 210.61 113.40 h 0 M 215.66 114.86 h 0 M 220.71 116.85 h 0 M 225.76 119.89 h 0 M 230.81 123.24 h 0 M 235.86 127.54 h 0 M 240.91 132.63 h 0 M 245.96 137.88 h 0 M 251.01 143.48 h 0 M 256.06 148.35 h 0 M 261.11 154.11 h 0 M 266.16 157.10 h 0 M 271.21 164.89 h 0 M 276.26 170.27 h 0 M 281.31 173.86 h 0 M 286.36 180.78 h 0 M 291.41 185.49 h 0 M 296.46 190.41 h 0 M 301.52 194.85 h 0 M 306.57 197.86 h 0 M 311.62 203.42 h 0 M 316.67 204.88 h 0 M 321.72 210.66 h 0 M 326.77 215.54 h 0 M 331.82 218.87 h 0 M 336.87 222.39 h 0 M 341.92 225.00 h 0 M 346.97 228.85 h 0 M 352.02 231.99 h 0 M 357.07 234.69 h 0 M 362.12 236.38 h 0 M 367.17 239.64 h 0 M 372.22 241.92 h 0 M 377.27 244.28 h 0 M 382.32 246.72 h 0 M 387.37 249.16 h 0 M 392.42 250.81 h 0 M 397.47 233.90 h 0 M 402.53 255.23 h 0 M 407.58 256.44 h 0 M 412.63 258.42 h 0 M 417.68 259.82 h 0 M 422.73 261.50 h 0 M 427.78 263.30 h 0 M 432.83 264.95 h 0 M 437.88 266.30 h 0 M 442.93 266.84 h 0 M 447.98 268.78 h 0 M 453.03 269.92 h 0 M 458.08 271.46 h 0 M 463.13 272.67 h 0 M 468.18 273.20 h 0 M 473.23 274.39 h 0 M 478.28 276.50 h 0 M 483.33 276.86 h 0 M 488.38 278.26 h 0 M 493.43 278.14 h 0 M 498.48 279.36 h 0 M 503.54 280.03 h 0 M 508.59 281.40 h 0 M 513.64 282.19 h 0 M 518.69 282.54 h 0 M 523.74 284.12 h 0 M 528.79 284.87 h 0 M 533.84 286.68 h 0 M 538.89 286.75 h 0 M 543.94 287.75 h 0 M 548.99 288.06 h 0 M 554.04 288.42 h 0 M 559.09 289.19 h 0 M 564.14 289.03 h 0 M 569.19 291.25 h 0 M 574.24 291.66 h 0 M 579.29 291.97 h 0 M 584.34 293.38 h 0 M 589.39 293.87 h 0 M 594.44 294.60 h 0 M 599.49 295.30 h 0 M 604.55 295.86 h 0 M 609.60 296.67 h 0 M 614.65 296.79 h 0 M 619.70 297.15 h 0 M 624.75 297.50 h 0 M 629.80 296.92 h 0 M 634.85 298.55 h 0 M 639.90 298.80 h 0 M 644.95 300.31 h 0 M 650.00 300.74 h 0" /><text  class="poloto_text poloto_legend_text" x="675" y="250" >nosort</text><line  class="poloto_scatter poloto_legend_icon poloto3stroke poloto3legend" stroke="black" x1="685" x2="685" y1="231.25" y2="231.25" /><path  class="poloto_scatter poloto3stroke" d=" M 150.00 110.63 h 0 M 155.05 111.91 h 0 M 160.10 111.89 h 0 M 165.15 112.00 h 0 M 170.20 111.75 h 0 M 175.25 111.58 h 0 M 180.30 110.43 h 0 M 185.35 111.74 h 0 M 190.40 111.22 h 0 M 195.45 111.94 h 0 M 200.51 111.91 h 0 M 205.56 111.74 h 0 M 210.61 111.56 h 0 M 215.66 110.82 h 0 M 220.71 112.67 h 0 M 225.76 113.69 h 0 M 230.81 114.39 h 0 M 235.86 114.92 h 0 M 240.91 116.20 h 0 M 245.96 117.29 h 0 M 251.01 118.13 h 0 M 256.06 118.65 h 0 M 261.11 120.71 h 0 M 266.16 124.25 h 0 M 271.21 127.63 h 0 M 276.26 128.98 h 0 M 281.31 131.31 h 0 M 286.36 134.43 h 0 M 291.41 136.82 h 0 M 296.46 140.90 h 0 M 301.52 143.96 h 0 M 306.57 145.17 h 0 M 311.62 152.45 h 0 M 316.67 155.99 h 0 M 321.72 160.50 h 0 M 326.77 163.21 h 0 M 331.82 166.73 h 0 M 336.87 168.34 h 0 M 341.92 175.14 h 0 M 346.97 178.04 h 0 M 352.02 181.44 h 0 M 357.07 183.00 h 0 M 362.12 185.44 h 0 M 367.17 190.78 h 0 M 372.22 193.83 h 0 M 377.27 197.63 h 0 M 382.32 200.83 h 0 M 387.37 203.60 h 0 M 392.42 206.74 h 0 M 397.47 209.74 h 0 M 402.53 212.50 h 0 M 407.58 216.42 h 0 M 412.63 218.85 h 0 M 417.68 220.73 h 0 M 422.73 223.40 h 0 M 427.78 163.86 h 0 M 432.83 226.35 h 0 M 437.88 231.27 h 0 M 442.93 233.97 h 0 M 447.98 235.50 h 0 M 453.03 237.31 h 0 M 458.08 239.75 h 0 M 463.13 242.58 h 0 M 468.18 245.56 h 0 M 473.23 247.80 h 0 M 478.28 248.81 h 0 M 483.33 251.64 h 0 M 488.38 252.77 h 0 M 493.43 256.38 h 0 M 498.48 256.77 h 0 M 503.54 258.87 h 0 M 508.59 260.96 h 0 M 513.64 263.79 h 0 M 518.69 263.87 h 0 M 523.74 267.47 h 0 M 528.79 267.72 h 0 M 533.84 269.78 h 0 M 538.89 270.23 h 0 M 543.94 273.41 h 0 M 548.99 275.94 h 0 M 554.04 276.59 h 0 M 559.09 276.56 h 0 M 564.14 278.31 h 0 M 569.19 279.04 h 0 M 574.24 279.72 h 0 M 579.29 282.42 h 0 M 584.34 283.08 h 0 M 589.39 285.22 h 0 M 594.44 286.96 h 0 M 599.49 286.07 h 0 M 604.55 289.07 h 0 M 609.60 291.03 h 0 M 614.65 290.87 h 0 M 619.70 290.66 h 0 M 624.75 294.59 h 0 M 629.80 295.94 h 0 M 634.85 296.09 h 0 M 639.90 296.94 h 0 M 644.95 294.97 h 0 M 650.00 298.38 h 0" /><text  class="poloto_text poloto_legend_text" x="675" y="300" >nosort_par</text><line  class="poloto_scatter poloto_legend_icon poloto4stroke poloto4legend" stroke="black" x1="685" x2="685" y1="281.25" y2="281.25" /><path  class="poloto_scatter poloto4stroke" d=" M 150.00 109.19 h 0 M 155.05 108.61 h 0 M 160.10 110.28 h 0 M 165.15 109.78 h 0 M 170.20 109.03 h 0 M 175.25 109.67 h 0 M 180.30 108.62 h 0 M 185.35 106.72 h 0 M 190.40 109.31 h 0 M 195.45 111.06 h 0 M 200.51 106.15 h 0 M 205.56 110.98 h 0 M 210.61 110.74 h 0 M 215.66 111.26 h 0 M 220.71 110.03 h 0 M 225.76 110.93 h 0 M 230.81 113.30 h 0 M 235.86 111.44 h 0 M 240.91 113.94 h 0 M 245.96 114.95 h 0 M 251.01 116.64 h 0 M 256.06 118.28 h 0 M 261.11 118.79 h 0 M 266.16 120.46 h 0 M 271.21 124.81 h 0 M 276.26 126.45 h 0 M 281.31 128.47 h 0 M 286.36 132.58 h 0 M 291.41 135.04 h 0 M 296.46 138.83 h 0 M 301.52 143.38 h 0 M 306.57 145.67 h 0 M 311.62 149.95 h 0 M 316.67 152.88 h 0 M 321.72 158.44 h 0 M 326.77 161.27 h 0 M 331.82 166.99 h 0 M 336.87 169.92 h 0 M 341.92 172.58 h 0 M 346.97 177.07 h 0 M 352.02 180.11 h 0 M 357.07 182.99 h 0 M 362.12 186.46 h 0 M 367.17 187.42 h 0 M 372.22 192.18 h 0 M 377.27 195.53 h 0 M 382.32 199.58 h 0 M 387.37 202.38 h 0 M 392.42 205.72 h 0 M 397.47 203.29 h 0 M 402.53 208.89 h 0 M 407.58 210.88 h 0 M 412.63 215.19 h 0 M 417.68 217.52 h 0 M 422.73 221.30 h 0 M 427.78 216.28 h 0 M 432.83 222.85 h 0 M 437.88 227.52 h 0 M 442.93 229.54 h 0 M 447.98 229.07 h 0 M 453.03 233.16 h 0 M 458.08 235.86 h 0 M 463.13 236.89 h 0 M 468.18 240.58 h 0 M 473.23 242.34 h 0 M 478.28 244.35 h 0 M 483.33 247.59 h 0 M 488.38 249.53 h 0 M 493.43 249.50 h 0 M 498.48 252.65 h 0 M 503.54 255.33 h 0 M 508.59 257.11 h 0 M 513.64 259.56 h 0 M 518.69 262.41 h 0 M 523.74 263.93 h 0 M 528.79 263.82 h 0 M 533.84 265.13 h 0 M 538.89 267.35 h 0 M 543.94 269.54 h 0 M 548.99 272.69 h 0 M 554.04 271.96 h 0 M 559.09 273.51 h 0 M 564.14 273.43 h 0 M 569.19 275.49 h 0 M 574.24 276.61 h 0 M 579.29 280.97 h 0 M 584.34 281.48 h 0 M 589.39 283.86 h 0 M 594.44 285.41 h 0 M 599.49 282.40 h 0 M 604.55 285.76 h 0 M 609.60 286.83 h 0 M 614.65 287.59 h 0 M 619.70 288.01 h 0 M 624.75 288.90 h 0 M 629.80 292.17 h 0 M 634.85 290.73 h 0 M 639.90 293.58 h 0 M 644.95 290.92 h 0 M 650.00 293.85 h 0" /><text  class="poloto_text poloto_legend_text" x="675" y="350" >sweep</text><line  class="poloto_scatter poloto_legend_icon poloto5stroke poloto5legend" stroke="black" x1="685" x2="685" y1="331.25" y2="331.25" /><path  class="poloto_scatter poloto5stroke" d=" M 150.00 160.98 h 0 M 155.05 169.96 h 0 M 160.10 170.04 h 0 M 165.15 170.02 h 0 M 170.20 169.96 h 0 M 175.25 170.06 h 0 M 180.30 169.51 h 0 M 185.35 169.73 h 0 M 190.40 169.82 h 0 M 195.45 169.81 h 0 M 200.51 170.05 h 0 M 205.56 169.77 h 0 M 210.61 169.30 h 0 M 215.66 168.32 h 0 M 220.71 167.80 h 0 M 225.76 166.77 h 0 M 230.81 164.23 h 0 M 235.86 164.73 h 0 M 240.91 164.81 h 0 M 245.96 164.50 h 0 M 251.01 163.94 h 0 M 256.06 163.09 h 0 M 261.11 162.22 h 0 M 266.16 162.14 h 0 M 271.21 161.52 h 0 M 276.26 161.57 h 0 M 281.31 161.72 h 0 M 286.36 161.68 h 0 M 291.41 162.10 h 0 M 296.46 161.34 h 0 M 301.52 162.07 h 0 M 306.57 162.68 h 0 M 311.62 162.36 h 0 M 316.67 162.50 h 0 M 321.72 163.45 h 0 M 326.77 164.25 h 0 M 331.82 165.81 h 0 M 336.87 167.42 h 0 M 341.92 169.55 h 0 M 346.97 171.22 h 0 M 352.02 171.45 h 0 M 357.07 174.11 h 0 M 362.12 176.66 h 0 M 367.17 177.42 h 0 M 372.22 179.69 h 0 M 377.27 179.13 h 0 M 382.32 181.99 h 0 M 387.37 185.68 h 0 M 392.42 187.67 h 0 M 397.47 175.64 h 0 M 402.53 190.91 h 0 M 407.58 193.76 h 0 M 412.63 197.12 h 0 M 417.68 199.97 h 0 M 422.73 201.50 h 0 M 427.78 203.13 h 0 M 432.83 205.74 h 0 M 437.88 209.34 h 0 M 442.93 212.14 h 0 M 447.98 212.42 h 0 M 453.03 216.02 h 0 M 458.08 218.68 h 0 M 463.13 219.49 h 0 M 468.18 222.44 h 0 M 473.23 224.50 h 0 M 478.28 227.48 h 0 M 483.33 230.73 h 0 M 488.38 232.42 h 0 M 493.43 230.44 h 0 M 498.48 236.07 h 0 M 503.54 239.10 h 0 M 508.59 241.84 h 0 M 513.64 243.82 h 0 M 518.69 246.15 h 0 M 523.74 247.30 h 0 M 528.79 249.05 h 0 M 533.84 249.15 h 0 M 538.89 253.34 h 0 M 543.94 252.41 h 0 M 548.99 257.11 h 0 M 554.04 259.61 h 0 M 559.09 260.64 h 0 M 564.14 263.12 h 0 M 569.19 264.42 h 0 M 574.24 264.06 h 0 M 579.29 268.01 h 0 M 584.34 269.72 h 0 M 589.39 271.53 h 0 M 594.44 273.11 h 0 M 599.49 271.49 h 0 M 604.55 275.78 h 0 M 609.60 277.26 h 0 M 614.65 278.18 h 0 M 619.70 279.65 h 0 M 624.75 281.74 h 0 M 629.80 281.29 h 0 M 634.85 282.81 h 0 M 639.90 285.26 h 0 M 644.95 285.63 h 0 M 650.00 286.89 h 0" /><text  class="poloto_labels poloto_text poloto_title" x="400" y="37.5" >Bench of space partitioning algs with abspiral(3000,grow)</text><text  class="poloto_labels poloto_text poloto_xname" x="400" y="481.25" >Grow</text><text  class="poloto_labels poloto_text poloto_yname" transform="rotate(-90,37.5,250)" x="37.5" y="250" >Time in Seconds</text><text  class="poloto_tick_labels poloto_text" dominant-baseline="middle" text-anchor="start" x="150" y="70" ></text><line  class="poloto_axis_lines" stroke="black" x1="150" x2="144" y1="400" y2="400" /><text  class="poloto_tick_labels poloto_text" dominant-baseline="middle" text-anchor="end" x="135" y="400" >0e0</text><line  class="poloto_axis_lines" stroke="black" x1="150" x2="144" y1="328.4057629160657" y2="328.4057629160657" /><text  class="poloto_tick_labels poloto_text" dominant-baseline="middle" text-anchor="end" x="135" y="328.4057629160657" >0.005</text><line  class="poloto_axis_lines" stroke="black" x1="150" x2="144" y1="256.81152583213145" y2="256.81152583213145" /><text  class="poloto_tick_labels poloto_text" dominant-baseline="middle" text-anchor="end" x="135" y="256.81152583213145" >0.010</text><line  class="poloto_axis_lines" stroke="black" x1="150" x2="144" y1="185.21728874819718" y2="185.21728874819718" /><text  class="poloto_tick_labels poloto_text" dominant-baseline="middle" text-anchor="end" x="135" y="185.21728874819718" >0.015</text><line  class="poloto_axis_lines" stroke="black" x1="150" x2="144" y1="113.6230516642629" y2="113.6230516642629" /><text  class="poloto_tick_labels poloto_text" dominant-baseline="middle" text-anchor="end" x="135" y="113.6230516642629" >0.020</text><text  class="poloto_tick_labels poloto_text" dominant-baseline="middle" text-anchor="start" x="440.00000000000006" y="70" ></text><line  class="poloto_axis_lines" stroke="black" x1="150" x2="150" y1="400" y2="405" /><text  class="poloto_tick_labels poloto_text" dominant-baseline="start" text-anchor="middle" x="150" y="430" >0.02</text><line  class="poloto_axis_lines" stroke="black" x1="206.11672278338943" x2="206.11672278338943" y1="400" y2="405" /><text  class="poloto_tick_labels poloto_text" dominant-baseline="start" text-anchor="middle" x="206.11672278338943" y="430" >0.04</text><line  class="poloto_axis_lines" stroke="black" x1="262.23344556677887" x2="262.23344556677887" y1="400" y2="405" /><text  class="poloto_tick_labels poloto_text" dominant-baseline="start" text-anchor="middle" x="262.23344556677887" y="430" >0.06</text><line  class="poloto_axis_lines" stroke="black" x1="318.35016835016836" x2="318.35016835016836" y1="400" y2="405" /><text  class="poloto_tick_labels poloto_text" dominant-baseline="start" text-anchor="middle" x="318.35016835016836" y="430" >0.08</text><line  class="poloto_axis_lines" stroke="black" x1="374.4668911335578" x2="374.4668911335578" y1="400" y2="405" /><text  class="poloto_tick_labels poloto_text" dominant-baseline="start" text-anchor="middle" x="374.4668911335578" y="430" >0.10</text><line  class="poloto_axis_lines" stroke="black" x1="430.58361391694723" x2="430.58361391694723" y1="400" y2="405" /><text  class="poloto_tick_labels poloto_text" dominant-baseline="start" text-anchor="middle" x="430.58361391694723" y="430" >0.12</text><line  class="poloto_axis_lines" stroke="black" x1="486.7003367003366" x2="486.7003367003366" y1="400" y2="405" /><text  class="poloto_tick_labels poloto_text" dominant-baseline="start" text-anchor="middle" x="486.7003367003366" y="430" >0.14</text><line  class="poloto_axis_lines" stroke="black" x1="542.8170594837261" x2="542.8170594837261" y1="400" y2="405" /><text  class="poloto_tick_labels poloto_text" dominant-baseline="start" text-anchor="middle" x="542.8170594837261" y="430" >0.16</text><line  class="poloto_axis_lines" stroke="black" x1="598.9337822671155" x2="598.9337822671155" y1="400" y2="405" /><text  class="poloto_tick_labels poloto_text" dominant-baseline="start" text-anchor="middle" x="598.9337822671155" y="430" >0.18</text><path  stroke="black" fill="none" class="poloto_axis_lines" style="stroke-dasharray:7.01459034792368;stroke-dashoffset:-0;" d=" M 150 400 L 650 400" /><path  stroke="black" fill="none" class="poloto_axis_lines" style="stroke-dasharray:7.159423708393428;stroke-dashoffset:-0;" d=" M 150 400 L 150 100" /></svg>