<svg class="poloto" width="800" height="500" viewBox="0 0 800 500" xmlns="http://www.w3.org/2000/svg"><circle  r="1e5" class="poloto_background" /><text  class="poloto_text poloto_legend_text" x="675" y="100" >brocc</text><line  class="poloto_scatter poloto_legend_icon poloto0stroke poloto0legend" stroke="black" x1="685" x2="685" y1="81.25" y2="81.25" /><path  class="poloto_scatter poloto0stroke" d=" M 150.00 187.08 h 0 M 155.05 186.26 h 0 M 160.10 186.16 h 0 M 165.15 190.23 h 0 M 170.20 192.95 h 0 M 175.25 196.53 h 0 M 180.30 200.92 h 0 M 185.35 204.59 h 0 M 190.40 207.82 h 0 M 195.45 214.57 h 0 M 200.51 218.27 h 0 M 205.56 222.44 h 0 M 210.61 227.56 h 0 M 215.66 234.89 h 0 M 220.71 242.01 h 0 M 225.76 248.49 h 0 M 230.81 255.18 h 0 M 235.86 261.39 h 0 M 240.91 267.12 h 0 M 245.96 272.67 h 0 M 251.01 277.85 h 0 M 256.06 283.54 h 0 M 261.11 287.84 h 0 M 266.16 292.51 h 0 M 271.21 296.30 h 0 M 276.26 295.00 h 0 M 281.31 302.69 h 0 M 286.36 306.92 h 0 M 291.41 309.70 h 0 M 296.46 312.91 h 0 M 301.52 315.65 h 0 M 306.57 318.34 h 0 M 311.62 320.77 h 0 M 316.67 323.35 h 0 M 321.72 325.65 h 0 M 326.77 327.98 h 0 M 331.82 330.49 h 0 M 336.87 332.50 h 0 M 341.92 334.50 h 0 M 346.97 336.67 h 0 M 352.02 338.69 h 0 M 357.07 340.65 h 0 M 362.12 342.56 h 0 M 367.17 344.17 h 0 M 372.22 346.30 h 0 M 377.27 347.98 h 0 M 382.32 349.49 h 0 M 387.37 350.94 h 0 M 392.42 352.37 h 0 M 397.47 353.75 h 0 M 402.53 355.18 h 0 M 407.58 355.84 h 0 M 412.63 357.68 h 0 M 417.68 358.80 h 0 M 422.73 359.52 h 0 M 427.78 360.64 h 0 M 432.83 362.03 h 0 M 437.88 362.90 h 0 M 442.93 363.85 h 0 M 447.98 364.71 h 0 M 453.03 365.38 h 0 M 458.08 366.37 h 0 M 463.13 367.03 h 0 M 468.18 367.38 h 0 M 473.23 368.59 h 0 M 478.28 369.22 h 0 M 483.33 369.88 h 0 M 488.38 370.32 h 0 M 493.43 371.38 h 0 M 498.48 371.84 h 0 M 503.54 372.27 h 0 M 508.59 372.66 h 0 M 513.64 373.42 h 0 M 518.69 373.96 h 0 M 523.74 374.20 h 0 M 528.79 373.77 h 0 M 533.84 375.36 h 0 M 538.89 375.86 h 0 M 543.94 376.27 h 0 M 548.99 376.60 h 0 M 554.04 377.08 h 0 M 559.09 377.18 h 0 M 564.14 377.66 h 0 M 569.19 378.05 h 0 M 574.24 378.20 h 0 M 579.29 378.50 h 0 M 584.34 378.98 h 0 M 589.39 379.28 h 0 M 594.44 379.42 h 0 M 599.49 379.77 h 0 M 604.55 380.05 h 0 M 609.60 380.33 h 0 M 614.65 380.55 h 0 M 619.70 380.76 h 0 M 624.75 381.09 h 0 M 629.80 381.20 h 0 M 634.85 381.49 h 0 M 639.90 381.67 h 0 M 644.95 381.82 h 0 M 650.00 382.27 h 0" /><text  class="poloto_text poloto_legend_text" x="675" y="150" >brocc_par</text><line  class="poloto_scatter poloto_legend_icon poloto1stroke poloto1legend" stroke="black" x1="685" x2="685" y1="131.25" y2="131.25" /><path  class="poloto_scatter poloto1stroke" d=" M 150.00 186.52 h 0 M 155.05 186.90 h 0 M 160.10 187.66 h 0 M 165.15 189.79 h 0 M 170.20 192.76 h 0 M 175.25 196.41 h 0 M 180.30 200.02 h 0 M 185.35 202.75 h 0 M 190.40 201.95 h 0 M 195.45 212.98 h 0 M 200.51 216.77 h 0 M 205.56 220.92 h 0 M 210.61 225.88 h 0 M 215.66 232.60 h 0 M 220.71 240.09 h 0 M 225.76 247.28 h 0 M 230.81 253.65 h 0 M 235.86 260.10 h 0 M 240.91 265.87 h 0 M 245.96 271.81 h 0 M 251.01 277.02 h 0 M 256.06 281.67 h 0 M 261.11 286.96 h 0 M 266.16 291.25 h 0 M 271.21 294.87 h 0 M 276.26 298.75 h 0 M 281.31 301.90 h 0 M 286.36 305.80 h 0 M 291.41 308.43 h 0 M 296.46 311.54 h 0 M 301.52 314.54 h 0 M 306.57 316.94 h 0 M 311.62 318.86 h 0 M 316.67 322.32 h 0 M 321.72 324.64 h 0 M 326.77 326.65 h 0 M 331.82 329.00 h 0 M 336.87 331.44 h 0 M 341.92 333.44 h 0 M 346.97 335.57 h 0 M 352.02 337.58 h 0 M 357.07 339.62 h 0 M 362.12 337.79 h 0 M 367.17 339.89 h 0 M 372.22 340.05 h 0 M 377.27 344.72 h 0 M 382.32 344.74 h 0 M 387.37 358.85 h 0 M 392.42 348.61 h 0 M 397.47 361.50 h 0 M 402.53 353.02 h 0 M 407.58 363.30 h 0 M 412.63 364.61 h 0 M 417.68 355.62 h 0 M 422.73 358.88 h 0 M 427.78 360.32 h 0 M 432.83 360.94 h 0 M 437.88 362.13 h 0 M 442.93 370.29 h 0 M 447.98 364.47 h 0 M 453.03 371.81 h 0 M 458.08 366.36 h 0 M 463.13 373.37 h 0 M 468.18 368.77 h 0 M 473.23 369.34 h 0 M 478.28 375.40 h 0 M 483.33 370.77 h 0 M 488.38 371.53 h 0 M 493.43 377.51 h 0 M 498.48 373.98 h 0 M 503.54 374.34 h 0 M 508.59 374.86 h 0 M 513.64 375.21 h 0 M 518.69 379.86 h 0 M 523.74 376.52 h 0 M 528.79 375.33 h 0 M 533.84 380.94 h 0 M 538.89 378.92 h 0 M 543.94 379.81 h 0 M 548.99 382.26 h 0 M 554.04 382.78 h 0 M 559.09 380.09 h 0 M 564.14 383.15 h 0 M 569.19 381.11 h 0 M 574.24 382.04 h 0 M 579.29 384.02 h 0 M 584.34 384.29 h 0 M 589.39 382.43 h 0 M 594.44 383.51 h 0 M 599.49 383.61 h 0 M 604.55 383.21 h 0 M 609.60 383.48 h 0 M 614.65 384.07 h 0 M 619.70 385.74 h 0 M 624.75 386.00 h 0 M 629.80 384.50 h 0 M 634.85 386.15 h 0 M 639.90 386.63 h 0 M 644.95 385.97 h 0 M 650.00 387.12 h 0" /><text  class="poloto_text poloto_legend_text" x="675" y="200" >naive</text><line  class="poloto_scatter poloto_legend_icon poloto2stroke poloto2legend" stroke="black" x1="685" x2="685" y1="181.25" y2="181.25" /><path  class="poloto_scatter poloto2stroke" d=" M 150.00 122.50 h 0 M 155.05 123.25 h 0 M 160.10 125.11 h 0 M 165.15 128.81 h 0 M 170.20 134.93 h 0 M 175.25 142.28 h 0 M 180.30 150.68 h 0 M 185.35 160.11 h 0 M 190.40 169.54 h 0 M 195.45 178.60 h 0 M 200.51 187.94 h 0 M 205.56 197.03 h 0 M 210.61 205.79 h 0 M 215.66 213.48 h 0 M 220.71 221.33 h 0 M 225.76 228.58 h 0 M 230.81 235.33 h 0 M 235.86 242.15 h 0 M 240.91 247.95 h 0 M 245.96 253.49 h 0 M 251.01 258.52 h 0 M 256.06 263.18 h 0 M 261.11 267.54 h 0 M 266.16 271.23 h 0 M 271.21 274.87 h 0 M 276.26 278.63 h 0 M 281.31 281.56 h 0 M 286.36 284.41 h 0 M 291.41 264.86 h 0 M 296.46 289.67 h 0 M 301.52 291.63 h 0 M 306.57 293.88 h 0 M 311.62 295.79 h 0 M 316.67 297.85 h 0 M 321.72 299.37 h 0 M 326.77 301.04 h 0 M 331.82 302.69 h 0 M 336.87 303.94 h 0 M 341.92 305.26 h 0 M 346.97 306.66 h 0 M 352.02 307.87 h 0 M 357.07 308.82 h 0 M 362.12 309.75 h 0 M 367.17 310.39 h 0 M 372.22 311.94 h 0 M 377.27 312.85 h 0 M 382.32 313.39 h 0 M 387.37 314.46 h 0 M 392.42 315.35 h 0 M 397.47 315.73 h 0 M 402.53 316.51 h 0 M 407.58 317.35 h 0 M 412.63 314.44 h 0 M 417.68 318.40 h 0 M 422.73 318.96 h 0 M 427.78 319.71 h 0 M 432.83 320.13 h 0 M 437.88 320.45 h 0 M 442.93 321.22 h 0 M 447.98 321.29 h 0 M 453.03 321.96 h 0 M 458.08 322.41 h 0 M 463.13 322.79 h 0 M 468.18 323.56 h 0 M 473.23 323.90 h 0 M 478.28 323.98 h 0 M 483.33 324.58 h 0 M 488.38 324.97 h 0 M 493.43 325.35 h 0 M 498.48 325.68 h 0 M 503.54 326.09 h 0 M 508.59 326.33 h 0 M 513.64 326.62 h 0 M 518.69 326.55 h 0 M 523.74 326.99 h 0 M 528.79 319.04 h 0 M 533.84 327.81 h 0 M 538.89 327.78 h 0 M 543.94 328.28 h 0 M 548.99 328.54 h 0 M 554.04 328.57 h 0 M 559.09 326.04 h 0 M 564.14 329.29 h 0 M 569.19 329.66 h 0 M 574.24 329.65 h 0 M 579.29 330.09 h 0 M 584.34 329.92 h 0 M 589.39 330.42 h 0 M 594.44 330.73 h 0 M 599.49 330.83 h 0 M 604.55 330.99 h 0 M 609.60 331.36 h 0 M 614.65 331.33 h 0 M 619.70 331.32 h 0 M 624.75 331.89 h 0 M 629.80 331.96 h 0 M 634.85 331.84 h 0 M 639.90 331.59 h 0 M 644.95 332.41 h 0 M 650.00 332.59 h 0" /><text  class="poloto_text poloto_legend_text" x="675" y="250" >nosort</text><line  class="poloto_scatter poloto_legend_icon poloto3stroke poloto3legend" stroke="black" x1="685" x2="685" y1="231.25" y2="231.25" /><path  class="poloto_scatter poloto3stroke" d=" M 150.00 114.27 h 0 M 155.05 114.46 h 0 M 160.10 115.25 h 0 M 165.15 116.42 h 0 M 170.20 116.94 h 0 M 175.25 116.98 h 0 M 180.30 118.32 h 0 M 185.35 121.42 h 0 M 190.40 125.70 h 0 M 195.45 131.10 h 0 M 200.51 138.12 h 0 M 205.56 145.62 h 0 M 210.61 151.13 h 0 M 215.66 157.08 h 0 M 220.71 163.03 h 0 M 225.76 169.45 h 0 M 230.81 175.03 h 0 M 235.86 180.03 h 0 M 240.91 185.09 h 0 M 245.96 189.08 h 0 M 251.01 194.13 h 0 M 256.06 199.78 h 0 M 261.11 206.01 h 0 M 266.16 210.98 h 0 M 271.21 216.14 h 0 M 276.26 220.87 h 0 M 281.31 223.29 h 0 M 286.36 229.20 h 0 M 291.41 232.12 h 0 M 296.46 236.01 h 0 M 301.52 240.40 h 0 M 306.57 242.32 h 0 M 311.62 245.10 h 0 M 316.67 247.20 h 0 M 321.72 250.79 h 0 M 326.77 253.88 h 0 M 331.82 258.33 h 0 M 336.87 260.48 h 0 M 341.92 264.76 h 0 M 346.97 267.58 h 0 M 352.02 269.24 h 0 M 357.07 270.99 h 0 M 362.12 273.62 h 0 M 367.17 277.93 h 0 M 372.22 281.69 h 0 M 377.27 285.50 h 0 M 382.32 286.99 h 0 M 387.37 289.32 h 0 M 392.42 292.13 h 0 M 397.47 295.40 h 0 M 402.53 296.19 h 0 M 407.58 299.63 h 0 M 412.63 303.41 h 0 M 417.68 304.18 h 0 M 422.73 306.75 h 0 M 427.78 309.60 h 0 M 432.83 311.42 h 0 M 437.88 313.13 h 0 M 442.93 314.93 h 0 M 447.98 315.53 h 0 M 453.03 318.10 h 0 M 458.08 320.14 h 0 M 463.13 321.58 h 0 M 468.18 323.47 h 0 M 473.23 324.56 h 0 M 478.28 326.80 h 0 M 483.33 327.33 h 0 M 488.38 328.70 h 0 M 493.43 332.65 h 0 M 498.48 332.45 h 0 M 503.54 333.73 h 0 M 508.59 334.86 h 0 M 513.64 336.35 h 0 M 518.69 337.08 h 0 M 523.74 338.32 h 0 M 528.79 337.59 h 0 M 533.84 340.16 h 0 M 538.89 340.40 h 0 M 543.94 342.85 h 0 M 548.99 342.61 h 0 M 554.04 344.80 h 0 M 559.09 344.32 h 0 M 564.14 345.70 h 0 M 569.19 345.88 h 0 M 574.24 346.78 h 0 M 579.29 348.33 h 0 M 584.34 349.09 h 0 M 589.39 348.92 h 0 M 594.44 349.76 h 0 M 599.49 350.00 h 0 M 604.55 350.72 h 0 M 609.60 350.90 h 0 M 614.65 352.70 h 0 M 619.70 352.25 h 0 M 624.75 354.27 h 0 M 629.80 354.53 h 0 M 634.85 354.43 h 0 M 639.90 354.82 h 0 M 644.95 356.26 h 0 M 650.00 356.88 h 0" /><text  class="poloto_text poloto_legend_text" x="675" y="300" >nosort_par</text><line  class="poloto_scatter poloto_legend_icon poloto4stroke poloto4legend" stroke="black" x1="685" x2="685" y1="281.25" y2="281.25" /><path  class="poloto_scatter poloto4stroke" d=" M 150.00 114.44 h 0 M 155.05 114.21 h 0 M 160.10 114.62 h 0 M 165.15 116.36 h 0 M 170.20 116.70 h 0 M 175.25 115.75 h 0 M 180.30 116.78 h 0 M 185.35 118.76 h 0 M 190.40 122.98 h 0 M 195.45 127.85 h 0 M 200.51 133.74 h 0 M 205.56 139.54 h 0 M 210.61 144.96 h 0 M 215.66 150.66 h 0 M 220.71 156.40 h 0 M 225.76 161.99 h 0 M 230.81 168.27 h 0 M 235.86 164.79 h 0 M 240.91 177.90 h 0 M 245.96 182.82 h 0 M 251.01 188.49 h 0 M 256.06 194.65 h 0 M 261.11 201.59 h 0 M 266.16 206.88 h 0 M 271.21 212.12 h 0 M 276.26 216.72 h 0 M 281.31 219.75 h 0 M 286.36 226.92 h 0 M 291.41 224.95 h 0 M 296.46 234.27 h 0 M 301.52 237.99 h 0 M 306.57 240.95 h 0 M 311.62 243.41 h 0 M 316.67 245.89 h 0 M 321.72 249.18 h 0 M 326.77 253.00 h 0 M 331.82 256.74 h 0 M 336.87 259.40 h 0 M 341.92 263.63 h 0 M 346.97 266.46 h 0 M 352.02 267.39 h 0 M 357.07 269.59 h 0 M 362.12 293.16 h 0 M 367.17 295.47 h 0 M 372.22 298.44 h 0 M 377.27 300.85 h 0 M 382.32 302.33 h 0 M 387.37 306.02 h 0 M 392.42 308.41 h 0 M 397.47 310.53 h 0 M 402.53 312.34 h 0 M 407.58 314.43 h 0 M 412.63 314.71 h 0 M 417.68 315.88 h 0 M 422.73 317.15 h 0 M 427.78 323.78 h 0 M 432.83 323.49 h 0 M 437.88 326.05 h 0 M 442.93 325.42 h 0 M 447.98 325.53 h 0 M 453.03 328.78 h 0 M 458.08 331.36 h 0 M 463.13 333.19 h 0 M 468.18 336.63 h 0 M 473.23 337.02 h 0 M 478.28 337.26 h 0 M 483.33 338.97 h 0 M 488.38 340.92 h 0 M 493.43 342.65 h 0 M 498.48 344.05 h 0 M 503.54 346.34 h 0 M 508.59 343.19 h 0 M 513.64 346.71 h 0 M 518.69 347.92 h 0 M 523.74 349.93 h 0 M 528.79 352.11 h 0 M 533.84 352.75 h 0 M 538.89 348.58 h 0 M 543.94 354.19 h 0 M 548.99 354.60 h 0 M 554.04 355.43 h 0 M 559.09 355.25 h 0 M 564.14 354.06 h 0 M 569.19 357.94 h 0 M 574.24 355.16 h 0 M 579.29 359.59 h 0 M 584.34 360.29 h 0 M 589.39 359.19 h 0 M 594.44 359.63 h 0 M 599.49 361.65 h 0 M 604.55 361.53 h 0 M 609.60 358.47 h 0 M 614.65 363.50 h 0 M 619.70 363.92 h 0 M 624.75 363.71 h 0 M 629.80 360.90 h 0 M 634.85 361.29 h 0 M 639.90 364.19 h 0 M 644.95 362.04 h 0 M 650.00 363.15 h 0" /><text  class="poloto_text poloto_legend_text" x="675" y="350" >sweep</text><line  class="poloto_scatter poloto_legend_icon poloto5stroke poloto5legend" stroke="black" x1="685" x2="685" y1="331.25" y2="331.25" /><path  class="poloto_scatter poloto5stroke" d=" M 150.00 158.19 h 0 M 155.05 157.34 h 0 M 160.10 156.84 h 0 M 165.15 155.47 h 0 M 170.20 153.27 h 0 M 175.25 151.05 h 0 M 180.30 148.31 h 0 M 185.35 144.43 h 0 M 190.40 141.28 h 0 M 195.45 138.52 h 0 M 200.51 135.37 h 0 M 205.56 134.19 h 0 M 210.61 132.82 h 0 M 215.66 132.62 h 0 M 220.71 133.30 h 0 M 225.76 134.01 h 0 M 230.81 136.25 h 0 M 235.86 138.74 h 0 M 240.91 141.76 h 0 M 245.96 144.79 h 0 M 251.01 148.58 h 0 M 256.06 153.75 h 0 M 261.11 157.67 h 0 M 266.16 147.61 h 0 M 271.21 166.13 h 0 M 276.26 170.08 h 0 M 281.31 174.45 h 0 M 286.36 179.29 h 0 M 291.41 183.84 h 0 M 296.46 187.05 h 0 M 301.52 193.06 h 0 M 306.57 196.96 h 0 M 311.62 200.75 h 0 M 316.67 205.15 h 0 M 321.72 209.30 h 0 M 326.77 212.98 h 0 M 331.82 216.86 h 0 M 336.87 220.96 h 0 M 341.92 224.25 h 0 M 346.97 227.45 h 0 M 352.02 231.46 h 0 M 357.07 234.32 h 0 M 362.12 237.63 h 0 M 367.17 241.19 h 0 M 372.22 244.65 h 0 M 377.27 246.95 h 0 M 382.32 249.67 h 0 M 387.37 252.69 h 0 M 392.42 255.56 h 0 M 397.47 257.99 h 0 M 402.53 260.59 h 0 M 407.58 263.42 h 0 M 412.63 266.34 h 0 M 417.68 268.12 h 0 M 422.73 270.61 h 0 M 427.78 272.92 h 0 M 432.83 275.02 h 0 M 437.88 277.35 h 0 M 442.93 279.22 h 0 M 447.98 281.38 h 0 M 453.03 282.07 h 0 M 458.08 285.66 h 0 M 463.13 287.67 h 0 M 468.18 289.12 h 0 M 473.23 291.10 h 0 M 478.28 293.06 h 0 M 483.33 294.99 h 0 M 488.38 296.46 h 0 M 493.43 297.95 h 0 M 498.48 299.48 h 0 M 503.54 301.26 h 0 M 508.59 302.96 h 0 M 513.64 304.24 h 0 M 518.69 306.07 h 0 M 523.74 307.63 h 0 M 528.79 308.90 h 0 M 533.84 310.08 h 0 M 538.89 311.37 h 0 M 543.94 312.68 h 0 M 548.99 313.96 h 0 M 554.04 315.50 h 0 M 559.09 316.63 h 0 M 564.14 317.94 h 0 M 569.19 318.82 h 0 M 574.24 319.94 h 0 M 579.29 321.05 h 0 M 584.34 322.01 h 0 M 589.39 322.81 h 0 M 594.44 324.16 h 0 M 599.49 325.02 h 0 M 604.55 326.28 h 0 M 609.60 327.48 h 0 M 614.65 328.39 h 0 M 619.70 328.97 h 0 M 624.75 330.24 h 0 M 629.80 330.66 h 0 M 634.85 332.18 h 0 M 639.90 332.29 h 0 M 644.95 330.65 h 0 M 650.00 334.82 h 0" /><text  class="poloto_text poloto_legend_text" x="675" y="400" >sweep_par</text><line  class="poloto_scatter poloto_legend_icon poloto6stroke poloto6legend" stroke="black" x1="685" x2="685" y1="381.25" y2="381.25" /><path  class="poloto_scatter poloto6stroke" d=" M 150.00 113.52 h 0 M 155.05 100.00 h 0 M 160.10 120.11 h 0 M 165.15 115.96 h 0 M 170.20 116.09 h 0 M 175.25 110.78 h 0 M 180.30 134.50 h 0 M 185.35 132.30 h 0 M 190.40 152.06 h 0 M 195.45 137.83 h 0 M 200.51 148.32 h 0 M 205.56 145.29 h 0 M 210.61 150.08 h 0 M 215.66 155.59 h 0 M 220.71 161.44 h 0 M 225.76 170.33 h 0 M 230.81 179.06 h 0 M 235.86 183.05 h 0 M 240.91 185.89 h 0 M 245.96 195.72 h 0 M 251.01 203.22 h 0 M 256.06 203.10 h 0 M 261.11 210.01 h 0 M 266.16 217.05 h 0 M 271.21 222.32 h 0 M 276.26 222.11 h 0 M 281.31 230.92 h 0 M 286.36 240.32 h 0 M 291.41 239.38 h 0 M 296.46 248.31 h 0 M 301.52 252.10 h 0 M 306.57 258.20 h 0 M 311.62 257.55 h 0 M 316.67 259.82 h 0 M 321.72 264.75 h 0 M 326.77 267.92 h 0 M 331.82 272.43 h 0 M 336.87 274.58 h 0 M 341.92 280.19 h 0 M 346.97 280.44 h 0 M 352.02 285.36 h 0 M 357.07 289.45 h 0 M 362.12 291.10 h 0 M 367.17 293.71 h 0 M 372.22 296.80 h 0 M 377.27 299.01 h 0 M 382.32 304.84 h 0 M 387.37 303.05 h 0 M 392.42 308.69 h 0 M 397.47 305.74 h 0 M 402.53 309.58 h 0 M 407.58 311.22 h 0 M 412.63 314.30 h 0 M 417.68 312.36 h 0 M 422.73 314.82 h 0 M 427.78 319.98 h 0 M 432.83 321.21 h 0 M 437.88 323.17 h 0 M 442.93 324.09 h 0 M 447.98 325.87 h 0 M 453.03 323.40 h 0 M 458.08 325.20 h 0 M 463.13 323.62 h 0 M 468.18 331.11 h 0 M 473.23 332.23 h 0 M 478.28 328.28 h 0 M 483.33 333.93 h 0 M 488.38 335.20 h 0 M 493.43 331.45 h 0 M 498.48 337.15 h 0 M 503.54 330.31 h 0 M 508.59 339.29 h 0 M 513.64 336.58 h 0 M 518.69 341.19 h 0 M 523.74 342.00 h 0 M 528.79 327.81 h 0 M 533.84 340.51 h 0 M 538.89 344.90 h 0 M 543.94 346.02 h 0 M 548.99 346.86 h 0 M 554.04 342.71 h 0 M 559.09 343.70 h 0 M 564.14 347.28 h 0 M 569.19 349.80 h 0 M 574.24 338.99 h 0 M 579.29 348.83 h 0 M 584.34 346.17 h 0 M 589.39 352.54 h 0 M 594.44 352.55 h 0 M 599.49 349.87 h 0 M 604.55 354.58 h 0 M 609.60 351.00 h 0 M 614.65 355.45 h 0 M 619.70 351.31 h 0 M 624.75 353.69 h 0 M 629.80 353.12 h 0 M 634.85 353.37 h 0 M 639.90 353.08 h 0 M 644.95 355.04 h 0 M 650.00 355.43 h 0" /><text  class="poloto_labels poloto_text poloto_title" x="400" y="37.5" >Bench of space partitioning algs with abspiral(10_000,grow)</text><text  class="poloto_labels poloto_text poloto_xname" x="400" y="481.25" >Grow</text><text  class="poloto_labels poloto_text poloto_yname" transform="rotate(-90,37.5,250)" x="37.5" y="250" >Time in Seconds</text><text  class="poloto_tick_labels poloto_text" dominant-baseline="middle" text-anchor="start" x="150" y="70" ></text><line  class="poloto_axis_lines" stroke="black" x1="150" x2="144" y1="400" y2="400" /><text  class="poloto_tick_labels poloto_text" dominant-baseline="middle" text-anchor="end" x="135" y="400" >0e0</text><line  class="poloto_axis_lines" stroke="black" x1="150" x2="144" y1="334.4236738231787" y2="334.4236738231787" /><text  class="poloto_tick_labels poloto_text" dominant-baseline="middle" text-anchor="end" x="135" y="334.4236738231787" >0.05</text><line  class="poloto_axis_lines" stroke="black" x1="150" x2="144" y1="268.84734764635743" y2="268.84734764635743" /><text  class="poloto_tick_labels poloto_text" dominant-baseline="middle" text-anchor="end" x="135" y="268.84734764635743" >0.10</text><line  class="poloto_axis_lines" stroke="black" x1="150" x2="144" y1="203.27102146953615" y2="203.27102146953615" /><text  class="poloto_tick_labels poloto_text" dominant-baseline="middle" text-anchor="end" x="135" y="203.27102146953615" >0.15</text><line  class="poloto_axis_lines" stroke="black" x1="150" x2="144" y1="137.69469529271493" y2="137.69469529271493" /><text  class="poloto_tick_labels poloto_text" dominant-baseline="middle" text-anchor="end" x="135" y="137.69469529271493" >0.20</text><text  class="poloto_tick_labels poloto_text" dominant-baseline="middle" text-anchor="start" x="440.00000000000006" y="70" ></text><line  class="poloto_axis_lines" stroke="black" x1="150" x2="150" y1="400" y2="405" /><text  class="poloto_tick_labels poloto_text" dominant-baseline="start" text-anchor="middle" x="150" y="430" >0.02</text><line  class="poloto_axis_lines" stroke="black" x1="206.11672278338943" x2="206.11672278338943" y1="400" y2="405" /><text  class="poloto_tick_labels poloto_text" dominant-baseline="start" text-anchor="middle" x="206.11672278338943" y="430" >0.04</text><line  class="poloto_axis_lines" stroke="black" x1="262.23344556677887" x2="262.23344556677887" y1="400" y2="405" /><text  class="poloto_tick_labels poloto_text" dominant-baseline="start" text-anchor="middle" x="262.23344556677887" y="430" >0.06</text><line  class="poloto_axis_lines" stroke="black" x1="318.35016835016836" x2="318.35016835016836" y1="400" y2="405" /><text  class="poloto_tick_labels poloto_text" dominant-baseline="start" text-anchor="middle" x="318.35016835016836" y="430" >0.08</text><line  class="poloto_axis_lines" stroke="black" x1="374.4668911335578" x2="374.4668911335578" y1="400" y2="405" /><text  class="poloto_tick_labels poloto_text" dominant-baseline="start" text-anchor="middle" x="374.4668911335578" y="430" >0.10</text><line  class="poloto_axis_lines" stroke="black" x1="430.58361391694723" x2="430.58361391694723" y1="400" y2="405" /><text  class="poloto_tick_labels poloto_text" dominant-baseline="start" text-anchor="middle" x="430.58361391694723" y="430" >0.12</text><line  class="poloto_axis_lines" stroke="black" x1="486.7003367003366" x2="486.7003367003366" y1="400" y2="405" /><text  class="poloto_tick_labels poloto_text" dominant-baseline="start" text-anchor="middle" x="486.7003367003366" y="430" >0.14</text><line  class="poloto_axis_lines" stroke="black" x1="542.8170594837261" x2="542.8170594837261" y1="400" y2="405" /><text  class="poloto_tick_labels poloto_text" dominant-baseline="start" text-anchor="middle" x="542.8170594837261" y="430" >0.16</text><line  class="poloto_axis_lines" stroke="black" x1="598.9337822671155" x2="598.9337822671155" y1="400" y2="405" /><text  class="poloto_tick_labels poloto_text" dominant-baseline="start" text-anchor="middle" x="598.9337822671155" y="430" >0.18</text><path  stroke="black" fill="none" class="poloto_axis_lines" style="stroke-dasharray:7.01459034792368;stroke-dashoffset:-0;" d=" M 150 400 L 650 400" /><path  stroke="black" fill="none" class="poloto_axis_lines" style="stroke-dasharray:6.557632617682127;stroke-dashoffset:-0;" d=" M 150 400 L 150 100" /></svg>