<svg class="poloto" width="800" height="500" viewBox="0 0 800 500" xmlns="http://www.w3.org/2000/svg"><style>.poloto {
            font-family: "Arial";
            stroke-width:2;
            }
            .poloto_text{fill: var(--poloto_fg_color,black);  }
            .poloto_axis_lines{stroke: var(--poloto_fg_color,black);stoke-width:3;fill:none}
            .poloto_background{fill: var(--poloto_bg_color,aliceblue); }
            .poloto0stroke{stroke:  var(--poloto_color0,blue); }
            .poloto1stroke{stroke:  var(--poloto_color1,red); }
            .poloto2stroke{stroke:  var(--poloto_color2,green); }
            .poloto3stroke{stroke:  var(--poloto_color3,gold); }
            .poloto4stroke{stroke:  var(--poloto_color4,aqua); }
            .poloto5stroke{stroke:  var(--poloto_color5,brown); }
            .poloto6stroke{stroke:  var(--poloto_color6,lime); }
            .poloto7stroke{stroke:  var(--poloto_color7,chocolate); }
            .poloto0fill{fill:var(--poloto_color0,blue);}
            .poloto1fill{fill:var(--poloto_color1,red);}
            .poloto2fill{fill:var(--poloto_color2,green);}
            .poloto3fill{fill:var(--poloto_color3,gold);}
            .poloto4fill{fill:var(--poloto_color4,aqua);}
            .poloto5fill{fill:var(--poloto_color5,brown);}
            .poloto6fill{fill:var(--poloto_color6,lime);}
            .poloto7fill{fill:var(--poloto_color7,chocolate);}</style><rect class="poloto_background" fill="white" x="0" y="0" width="800" height="500"/><line class="poloto_axis_lines" stroke="black" x1="150" x2="150" y1="400" y2="405"/><text class="poloto_text" alignment-baseline="start" text-anchor="middle" x="150" y="430">0</text><line class="poloto_axis_lines" stroke="black" x1="213.13131313131314" x2="213.13131313131314" y1="400" y2="405"/><text class="poloto_text" alignment-baseline="start" text-anchor="middle" x="213.13131313131314" y="430">10000</text><line class="poloto_axis_lines" stroke="black" x1="276.26262626262627" x2="276.26262626262627" y1="400" y2="405"/><text class="poloto_text" alignment-baseline="start" text-anchor="middle" x="276.26262626262627" y="430">20000</text><line class="poloto_axis_lines" stroke="black" x1="339.3939393939394" x2="339.3939393939394" y1="400" y2="405"/><text class="poloto_text" alignment-baseline="start" text-anchor="middle" x="339.3939393939394" y="430">30000</text><line class="poloto_axis_lines" stroke="black" x1="402.52525252525254" x2="402.52525252525254" y1="400" y2="405"/><text class="poloto_text" alignment-baseline="start" text-anchor="middle" x="402.52525252525254" y="430">40000</text><line class="poloto_axis_lines" stroke="black" x1="465.65656565656565" x2="465.65656565656565" y1="400" y2="405"/><text class="poloto_text" alignment-baseline="start" text-anchor="middle" x="465.65656565656565" y="430">50000</text><line class="poloto_axis_lines" stroke="black" x1="528.7878787878788" x2="528.7878787878788" y1="400" y2="405"/><text class="poloto_text" alignment-baseline="start" text-anchor="middle" x="528.7878787878788" y="430">60000</text><line class="poloto_axis_lines" stroke="black" x1="591.9191919191919" x2="591.9191919191919" y1="400" y2="405"/><text class="poloto_text" alignment-baseline="start" text-anchor="middle" x="591.9191919191919" y="430">70000</text><line class="poloto_axis_lines" stroke="black" x1="150" x2="144" y1="400" y2="400"/><text class="poloto_text" alignment-baseline="middle" text-anchor="end" x="135" y="400">0</text><line class="poloto_axis_lines" stroke="black" x1="150" x2="144" y1="346.0562870817511" y2="346.0562870817511"/><text class="poloto_text" alignment-baseline="middle" text-anchor="end" x="135" y="346.0562870817511">2e7</text><line class="poloto_axis_lines" stroke="black" x1="150" x2="144" y1="292.11257416350225" y2="292.11257416350225"/><text class="poloto_text" alignment-baseline="middle" text-anchor="end" x="135" y="292.11257416350225">4e7</text><line class="poloto_axis_lines" stroke="black" x1="150" x2="144" y1="238.16886124525342" y2="238.16886124525342"/><text class="poloto_text" alignment-baseline="middle" text-anchor="end" x="135" y="238.16886124525342">6e7</text><line class="poloto_axis_lines" stroke="black" x1="150" x2="144" y1="184.2251483270045" y2="184.2251483270045"/><text class="poloto_text" alignment-baseline="middle" text-anchor="end" x="135" y="184.2251483270045">8e7</text><line class="poloto_axis_lines" stroke="black" x1="150" x2="144" y1="130.28143540875567" y2="130.28143540875567"/><text class="poloto_text" alignment-baseline="middle" text-anchor="end" x="135" y="130.28143540875567">1e8</text><text class="poloto_text" alignment-baseline="middle" text-anchor="start" font-size="large" x="675" y="100">broccoli</text><line class="poloto0stroke" stroke="black" x1="680" x2="730" y1="81.25" y2="81.25"/><polyline class="poloto0stroke" fill="none" stroke="black" points="150,400 155.05050505050505,399.58098411835056 160.1010101010101,399.04339725852117 165.15151515151516,398.5545350573852 170.2020202020202,398.1018097495331 175.25252525252526,397.57516267468355 180.3030303030303,396.963430181448 185.35353535353534,396.4367156769573 190.40404040404042,395.8511890394575 195.45454545454544,395.223901876602 200.50505050505052,394.6023246557589 205.55555555555554,394.3276513611361 210.6060606060606,393.8145927075706 215.65656565656565,393.2247964251933 220.7070707070707,392.667967842966 225.75757575757575,392.1172996327539 230.8080808080808,391.7438203363644 235.85858585858585,391.1140598542716 240.9090909090909,390.5976162327205 245.95959595959596,390.12609963247337 251.010101010101,389.5353242717066 256.06060606060606,388.79371959243474 261.1111111111111,388.1438974435076 266.16161616161617,387.5720509316039 271.2121212121212,386.9035372861506 276.26262626262627,386.39738882220996 281.3131313131313,385.7333659908571 286.3636363636364,385.1574871864127 291.4141414141414,384.4772623608849 296.4646464646464,384.05298157285466 301.5151515151515,383.46992286022083 306.5656565656566,382.8056060356326 311.6161616161616,382.1591796434337 316.66666666666663,381.70288326178644 321.7171717171717,381.046436824913 326.7676767676768,380.45562909791846 331.8181818181818,379.7870992693513 336.86868686868684,379.32665191899497 341.9191919191919,378.6384218464701 346.969696969697,378.050718580154 352.020202020202,377.43795845918737 357.07070707070704,377.4847869963717 362.1212121212121,376.84106318419003 367.1717171717172,376.30883023786777 372.22222222222223,375.71663076307993 377.27272727272725,375.1548852114201 382.32323232323233,374.5094325032394 387.37373737373736,373.95554655055173 392.4242424242424,373.626020591448 397.47474747474746,373.12593000646814 402.52525252525254,372.4071219402755 407.57575757575756,371.8720785265102 412.62626262626264,371.263466677067 417.67676767676767,370.72963969402804 422.72727272727275,370.2771193722851 427.77777777777777,369.796286692817 432.8282828282828,369.1170948893915 437.8787878787879,368.50741495443253 442.9292929292929,367.95225593012003 447.979797979798,367.4308036348245 453.030303030303,366.90095769779884 458.0808080808081,365.98783898330345 463.1313131313131,365.753450853488 468.1818181818182,365.40731562517675 473.2323232323232,364.56666219743005 478.2828282828283,363.9839244498881 483.3333333333333,363.60304407608623 488.3838383838384,363.02743229302075 493.4343434343434,362.49476240262385 498.4848484848485,361.7213821792575 503.5353535353535,361.324898586494 508.5858585858586,360.8088029018912 513.6363636363636,360.2845886884943 518.6868686868687,359.6286034703663 523.7373737373737,359.2648016760743 528.7878787878788,358.4842037839195 533.8383838383838,357.748362990373 538.8888888888889,357.30993816081553 543.939393939394,356.7275267727367 548.989898989899,356.2803091179736 554.040404040404,355.73334684083903 559.090909090909,354.92402931592653 564.1414141414141,353.28451804920223 569.1919191919192,352.49828573623313 574.2424242424242,352.0262539735276 579.2929292929293,351.2970536510413 584.3434343434344,350.7598174253459 589.3939393939394,350.3532949076083 594.4444444444445,349.51235018381186 599.4949494949494,349.0143067627372 604.5454545454545,348.5528668480632 609.5959595959596,347.7834487904107 614.6464646464647,347.1106870775651 619.6969696969697,346.87980528908935 624.7474747474747,346.20223179705147 629.7979797979798,345.35383744650096 634.8484848484848,344.899847158581 639.8989898989898,344.43420233148504 644.9494949494949,343.9469395614371 650,343.22345996970574 "/><text class="poloto_text" alignment-baseline="middle" text-anchor="start" font-size="large" x="675" y="150">naive</text><line class="poloto1stroke" stroke="black" x1="680" x2="730" y1="131.25" y2="131.25"/><polyline class="poloto1stroke" fill="none" stroke="black" points="150,400 155.05050505050505,398.2101260278873 160.1010101010101,393.43159774022234 165.15151515151516,385.7830805166826 170.2020202020202,375.37914001476383 175.25252525252526,362.1317778555826 180.3030303030303,346.180060931042 185.35353535353534,327.490277117754 190.40404040404042,306.11825815858873 195.45454545454544,281.94815723286877 200.50505050505052,255.07808986283544 "/><text class="poloto_text" alignment-baseline="middle" text-anchor="start" font-size="large" x="675" y="200">nosort</text><line class="poloto2stroke" stroke="black" x1="680" x2="730" y1="181.25" y2="181.25"/><polyline class="poloto2stroke" fill="none" stroke="black" points="150,400 155.05050505050505,399.1311097357262 160.1010101010101,397.67967052690574 165.15151515151516,396.1987052268194 170.2020202020202,394.5549243152176 175.25252525252526,392.6889384613629 180.3030303030303,390.8053669570969 185.35353535353534,388.68699195642597 190.40404040404042,386.69923356502966 195.45454545454544,384.4542553673253 200.50505050505052,382.2180807835691 205.55555555555554,380.62642837894583 210.6060606060606,378.4857881107679 215.65656565656565,375.9471915864638 220.7070707070707,373.4482949376819 225.75757575757575,371.1535455732535 230.8080808080808,368.77994128928117 235.85858585858585,366.02510330018737 240.9090909090909,363.6771546460789 245.95959595959596,360.9474355469055 251.010101010101,358.7234144816698 256.06060606060606,356.75134561917577 261.1111111111111,353.5458052114643 266.16161616161617,350.8478805366849 271.2121212121212,347.8173712942793 276.26262626262627,345.2337830162158 281.3131313131313,341.9724135628196 286.3636363636364,339.2427753792155 291.4141414141414,336.40969473171947 296.4646464646464,333.99825972187756 301.5151515151515,330.9031367001385 306.5656565656566,328.1935763664826 311.6161616161616,325.07858587527573 316.66666666666663,322.75528140641404 321.7171717171717,319.89163894836406 326.7676767676768,316.8236091564382 331.8181818181818,313.5872129449375 336.86868686868684,310.3877681767858 341.9191919191919,307.58567279799 346.969696969697,304.5460416737299 352.020202020202,301.520120344108 357.07070707070704,300.18589542908757 362.1212121212121,297.202948358362 367.1717171717172,294.48646974352437 372.22222222222223,291.4137576373172 377.27272727272725,287.6296601198149 382.32323232323233,285.33255071794633 387.37373737373736,282.16413437346523 392.4242424242424,279.2466938505219 397.47474747474746,276.1137589832128 402.52525252525254,272.7545464233255 407.57575757575756,269.8962929421961 412.62626262626264,266.6960228352368 417.67676767676767,263.21226772814947 422.72727272727275,261.1478418347681 427.77777777777777,258.4130601181373 432.8282828282828,255.39746091798227 437.8787878787879,252.49056908810013 442.9292929292929,249.312539973977 447.979797979798,245.62551956224246 453.030303030303,242.07152704374994 458.0808080808081,238.0066336202087 463.1313131313131,235.71725704958692 468.1818181818182,232.3719484817043 473.2323232323232,228.70408617961266 478.2828282828283,225.77628306941776 483.3333333333333,221.91801564383857 488.3838383838384,218.04509440864516 493.4343434343434,215.5825827942266 498.4848484848485,211.70661643643894 503.5353535353535,208.08029079329435 508.5858585858586,205.45016527409624 513.6363636363636,202.37055106982115 518.6868686868687,198.24767085207844 523.7373737373737,195.32594180395813 528.7878787878788,191.64020525259102 533.8383838383838,188.18656961761164 538.8888888888889,183.856955514481 543.939393939394,180.94007330896642 548.989898989899,178.39467448246333 554.040404040404,174.59298592017845 559.090909090909,170.30073862698632 564.1414141414141,168.34344494746057 569.1919191919192,164.98331534445367 574.2424242424242,162.36674857749756 579.2929292929293,158.6620642969679 584.3434343434344,155.13921887831438 589.3939393939394,151.69546303435598 594.4444444444445,147.14532703281554 599.4949494949494,143.7806203057675 604.5454545454545,139.80823495550976 609.5959595959596,135.9409022889747 614.6464646464647,131.85781365106612 619.6969696969697,128.78396872688762 624.7474747474747,125.73876521708314 629.7979797979798,122.29165677136683 634.8484848484848,119.36299595613656 639.8989898989898,116.42894346680004 644.9494949494949,112.60807252020146 650,109.41954326235879 "/><text class="poloto_text" alignment-baseline="middle" text-anchor="start" font-size="large" x="675" y="250">sweep</text><line class="poloto3stroke" stroke="black" x1="680" x2="730" y1="231.25" y2="231.25"/><polyline class="poloto3stroke" fill="none" stroke="black" points="150,400 155.05050505050505,399.35785404142115 160.1010101010101,398.1963299233085 165.15151515151516,396.7043277395591 170.2020202020202,394.93753088783285 175.25252525252526,392.93949082475433 180.3030303030303,390.7440302583232 185.35353535353534,388.3529832747788 190.40404040404042,385.7985974257035 195.45454545454544,383.0940187939356 200.50505050505052,380.22231984236134 205.55555555555554,377.2106180754647 210.6060606060606,374.05067359109745 215.65656565656565,370.774003003532 220.7070707070707,367.36747911022974 225.75757575757575,363.79359215041296 230.8080808080808,360.1503389701546 235.85858585858585,356.3765285187059 240.9090909090909,352.50440025609237 245.95959595959596,348.54203225332355 251.010101010101,344.4204008325349 256.06060606060606,340.2260344064329 261.1111111111111,335.9232788779643 266.16161616161617,331.507853813509 271.2121212121212,327.034992180724 276.26262626262627,322.45271651502685 281.3131313131313,317.7864882489151 286.3636363636364,313.027894860359 291.4141414141414,308.2005394209461 296.4646464646464,303.27186420274444 301.5151515151515,298.25707054405444 306.5656565656566,293.1765599571018 311.6161616161616,287.95730614052343 316.66666666666663,282.7877749413274 321.7171717171717,277.397155434736 326.7676767676768,272.01186826416654 331.8181818181818,266.5049434153377 336.86868686868684,260.96384522437523 341.9191919191919,255.3619201027261 346.969696969697,249.61276640540916 352.020202020202,243.8738728022893 357.07070707070704,237.96035261171048 362.1212121212121,232.0652568962789 367.1717171717172,226.05588412221564 372.22222222222223,219.971270657374 377.27272727272725,213.83002708271079 382.32323232323233,207.58192101275654 387.37373737373736,201.40406314295006 392.4242424242424,195.06256162563477 397.47474747474746,188.70779804649857 402.52525252525254,182.15784453653896 407.57575757575756,175.71607244565124 412.62626262626264,169.07905378304156 417.67676767676767,162.40026920070494 422.72727272727275,155.69504950185274 427.77777777777777,148.94147465874062 432.8282828282828,142.1491763213101 437.8787878787879,135.2844666408438 442.9292929292929,128.32362117240024 447.979797979798,121.34645773079893 453.030303030303,114.32509820520369 458.0808080808081,107.08747024296224 463.1313131313131,100 "/><text class="poloto_text" alignment-baseline="start" text-anchor="middle" font-size="x-large" x="400" y="37.5">Complexity of space partitioning algs with abspiral(x,0.05)</text><text class="poloto_text" alignment-baseline="start" text-anchor="middle" font-size="x-large" x="400" y="481.25">Number of Elements</text><text class="poloto_text" alignment-baseline="start" text-anchor="middle" font-size="x-large" transform="rotate(-90,37.5,250)" x="37.5" y="250">Number of Comparisons</text><path stroke="black" fill="none" class="poloto_axis_lines" d=" M 150 100 L 150 400 L 650 400"/></svg>