<svg class="poloto" width="800" height="500" viewBox="0 0 800 500" xmlns="http://www.w3.org/2000/svg"><circle  r="1e5" class="poloto_background" /><text  class="poloto_text poloto_legend_text" x="675" y="100" >brocc</text><line  class="poloto_scatter poloto_legend_icon poloto0stroke poloto0legend" stroke="black" x1="685" x2="685" y1="81.25" y2="81.25" /><path  class="poloto_scatter poloto0stroke" d=" M 150.00 399.98 h 0 M 155.05 399.29 h 0 M 160.10 398.19 h 0 M 165.15 397.06 h 0 M 170.20 395.96 h 0 M 175.25 394.84 h 0 M 180.30 392.80 h 0 M 185.35 391.85 h 0 M 190.40 390.70 h 0 M 195.45 389.74 h 0 M 200.51 388.02 h 0 M 205.56 386.87 h 0 M 210.61 385.42 h 0 M 215.66 384.58 h 0 M 220.71 382.41 h 0 M 225.76 381.44 h 0 M 230.81 380.69 h 0 M 235.86 378.92 h 0 M 240.91 378.72 h 0 M 245.96 377.27 h 0 M 251.01 375.63 h 0 M 256.06 370.50 h 0 M 261.11 371.46 h 0 M 266.16 369.64 h 0 M 271.21 369.35 h 0 M 276.26 368.15 h 0 M 281.31 366.82 h 0 M 286.36 366.09 h 0 M 291.41 365.11 h 0 M 296.46 363.27 h 0 M 301.52 362.33 h 0 M 306.57 360.41 h 0 M 311.62 359.24 h 0 M 316.67 358.51 h 0 M 321.72 357.65 h 0 M 326.77 355.72 h 0 M 331.82 355.06 h 0 M 336.87 353.47 h 0 M 341.92 352.73 h 0 M 346.97 350.77 h 0 M 352.02 349.52 h 0 M 357.07 345.48 h 0 M 362.12 345.02 h 0 M 367.17 343.03 h 0 M 372.22 341.20 h 0 M 377.27 340.16 h 0 M 382.32 339.18 h 0 M 387.37 336.97 h 0 M 392.42 335.71 h 0 M 397.47 335.20 h 0 M 402.53 333.74 h 0 M 407.58 331.60 h 0 M 412.63 331.31 h 0 M 417.68 329.62 h 0 M 422.73 328.61 h 0 M 427.78 327.03 h 0 M 432.83 325.45 h 0 M 437.88 325.27 h 0 M 442.93 324.25 h 0 M 447.98 322.12 h 0 M 453.03 320.92 h 0 M 458.08 319.64 h 0 M 463.13 318.30 h 0 M 468.18 318.21 h 0 M 473.23 316.23 h 0 M 478.28 314.23 h 0 M 483.33 310.87 h 0 M 488.38 312.06 h 0 M 493.43 309.19 h 0 M 498.48 310.12 h 0 M 503.54 308.15 h 0 M 508.59 307.73 h 0 M 513.64 306.07 h 0 M 518.69 306.29 h 0 M 523.74 300.90 h 0 M 528.79 303.77 h 0 M 533.84 299.62 h 0 M 538.89 301.25 h 0 M 543.94 299.54 h 0 M 548.99 298.71 h 0 M 554.04 297.78 h 0 M 559.09 292.80 h 0 M 564.14 286.48 h 0 M 569.19 283.28 h 0 M 574.24 280.47 h 0 M 579.29 281.53 h 0 M 584.34 277.43 h 0 M 589.39 275.60 h 0 M 594.44 275.63 h 0 M 599.49 272.67 h 0 M 604.55 271.76 h 0 M 609.60 271.64 h 0 M 614.65 271.13 h 0 M 619.70 268.18 h 0 M 624.75 263.16 h 0 M 629.80 265.08 h 0 M 634.85 262.87 h 0 M 639.90 261.38 h 0 M 644.95 263.94 h 0 M 650.00 258.80 h 0" /><text  class="poloto_text poloto_legend_text" x="675" y="150" >brocc_par</text><line  class="poloto_scatter poloto_legend_icon poloto1stroke poloto1legend" stroke="black" x1="685" x2="685" y1="131.25" y2="131.25" /><path  class="poloto_scatter poloto1stroke" d=" M 150.00 399.93 h 0 M 155.05 399.21 h 0 M 160.10 398.15 h 0 M 165.15 396.97 h 0 M 170.20 395.92 h 0 M 175.25 394.76 h 0 M 180.30 393.09 h 0 M 185.35 391.86 h 0 M 190.40 390.85 h 0 M 195.45 389.56 h 0 M 200.51 387.77 h 0 M 205.56 382.25 h 0 M 210.61 384.36 h 0 M 215.66 383.61 h 0 M 220.71 384.60 h 0 M 225.76 383.79 h 0 M 230.81 382.55 h 0 M 235.86 381.77 h 0 M 240.91 380.95 h 0 M 245.96 380.49 h 0 M 251.01 379.55 h 0 M 256.06 376.52 h 0 M 261.11 379.42 h 0 M 266.16 377.16 h 0 M 271.21 378.70 h 0 M 276.26 376.18 h 0 M 281.31 377.18 h 0 M 286.36 366.75 h 0 M 291.41 375.74 h 0 M 296.46 374.76 h 0 M 301.52 374.23 h 0 M 306.57 374.00 h 0 M 311.62 373.80 h 0 M 316.67 374.28 h 0 M 321.72 372.66 h 0 M 326.77 371.03 h 0 M 331.82 370.28 h 0 M 336.87 370.43 h 0 M 341.92 369.25 h 0 M 346.97 367.22 h 0 M 352.02 364.94 h 0 M 357.07 367.60 h 0 M 362.12 365.34 h 0 M 367.17 366.32 h 0 M 372.22 365.53 h 0 M 377.27 363.04 h 0 M 382.32 364.07 h 0 M 387.37 360.26 h 0 M 392.42 361.45 h 0 M 397.47 362.73 h 0 M 402.53 357.06 h 0 M 407.58 352.40 h 0 M 412.63 363.73 h 0 M 417.68 359.24 h 0 M 422.73 357.77 h 0 M 427.78 356.33 h 0 M 432.83 354.02 h 0 M 437.88 356.02 h 0 M 442.93 353.80 h 0 M 447.98 355.46 h 0 M 453.03 355.42 h 0 M 458.08 354.21 h 0 M 463.13 354.10 h 0 M 468.18 354.50 h 0 M 473.23 354.88 h 0 M 478.28 350.33 h 0 M 483.33 352.53 h 0 M 488.38 351.96 h 0 M 493.43 353.43 h 0 M 498.48 353.64 h 0 M 503.54 352.81 h 0 M 508.59 351.60 h 0 M 513.64 353.62 h 0 M 518.69 349.00 h 0 M 523.74 349.26 h 0 M 528.79 352.32 h 0 M 533.84 346.58 h 0 M 538.89 349.37 h 0 M 543.94 348.00 h 0 M 548.99 345.60 h 0 M 554.04 346.35 h 0 M 559.09 346.71 h 0 M 564.14 341.76 h 0 M 569.19 332.11 h 0 M 574.24 341.92 h 0 M 579.29 336.22 h 0 M 584.34 339.24 h 0 M 589.39 333.73 h 0 M 594.44 338.04 h 0 M 599.49 333.71 h 0 M 604.55 336.36 h 0 M 609.60 332.19 h 0 M 614.65 334.74 h 0 M 619.70 335.25 h 0 M 624.75 334.19 h 0 M 629.80 330.16 h 0 M 634.85 335.94 h 0 M 639.90 330.89 h 0 M 644.95 333.30 h 0 M 650.00 332.80 h 0" /><text  class="poloto_text poloto_legend_text" x="675" y="200" >naive</text><line  class="poloto_scatter poloto_legend_icon poloto2stroke poloto2legend" stroke="black" x1="685" x2="685" y1="181.25" y2="181.25" /><path  class="poloto_scatter poloto2stroke" d=" M 150.00 400.00 h 0 M 155.05 399.28 h 0 M 160.10 397.75 h 0 M 165.15 394.83 h 0 M 170.20 391.18 h 0 M 175.25 390.69 h 0 M 180.30 388.73 h 0 M 185.35 386.02 h 0 M 190.40 382.29 h 0 M 195.45 379.51 h 0 M 200.51 375.68 h 0 M 205.56 371.09 h 0 M 210.61 367.75 h 0 M 215.66 362.88 h 0 M 220.71 357.18 h 0 M 225.76 353.01 h 0 M 230.81 344.72 h 0 M 235.86 340.36 h 0 M 240.91 334.56 h 0 M 245.96 328.12 h 0 M 251.01 321.54 h 0 M 256.06 314.75 h 0 M 261.11 307.16 h 0 M 266.16 299.61 h 0 M 271.21 291.54 h 0 M 276.26 283.19 h 0 M 281.31 271.06 h 0 M 286.36 265.68 h 0 M 291.41 256.35 h 0 M 296.46 247.45 h 0 M 301.52 234.28 h 0" /><text  class="poloto_text poloto_legend_text" x="675" y="250" >nosort</text><line  class="poloto_scatter poloto_legend_icon poloto3stroke poloto3legend" stroke="black" x1="685" x2="685" y1="231.25" y2="231.25" /><path  class="poloto_scatter poloto3stroke" d=" M 150.00 399.99 h 0 M 155.05 399.15 h 0 M 160.10 397.72 h 0 M 165.15 395.90 h 0 M 170.20 393.47 h 0 M 175.25 391.35 h 0 M 180.30 389.14 h 0 M 185.35 387.47 h 0 M 190.40 385.29 h 0 M 195.45 381.73 h 0 M 200.51 381.17 h 0 M 205.56 378.69 h 0 M 210.61 375.76 h 0 M 215.66 372.40 h 0 M 220.71 369.38 h 0 M 225.76 367.18 h 0 M 230.81 364.40 h 0 M 235.86 361.21 h 0 M 240.91 358.34 h 0 M 245.96 357.63 h 0 M 251.01 352.28 h 0 M 256.06 349.71 h 0 M 261.11 347.11 h 0 M 266.16 345.72 h 0 M 271.21 342.31 h 0 M 276.26 336.08 h 0 M 281.31 328.33 h 0 M 286.36 334.80 h 0 M 291.41 330.12 h 0 M 296.46 324.56 h 0 M 301.52 326.34 h 0 M 306.57 323.24 h 0 M 311.62 313.62 h 0 M 316.67 318.73 h 0 M 321.72 313.55 h 0 M 326.77 310.20 h 0 M 331.82 309.12 h 0 M 336.87 301.74 h 0 M 341.92 303.14 h 0 M 346.97 297.24 h 0 M 352.02 295.88 h 0 M 357.07 291.40 h 0 M 362.12 290.17 h 0 M 367.17 283.17 h 0 M 372.22 275.82 h 0 M 377.27 276.56 h 0 M 382.32 275.09 h 0 M 387.37 270.82 h 0 M 392.42 269.08 h 0 M 397.47 265.88 h 0 M 402.53 259.06 h 0 M 407.58 263.36 h 0 M 412.63 252.04 h 0 M 417.68 254.96 h 0 M 422.73 247.07 h 0 M 427.78 244.85 h 0 M 432.83 247.00 h 0 M 437.88 235.95 h 0 M 442.93 239.25 h 0 M 447.98 233.61 h 0 M 453.03 223.00 h 0 M 458.08 222.82 h 0 M 463.13 215.45 h 0 M 468.18 221.37 h 0 M 473.23 216.74 h 0 M 478.28 207.88 h 0 M 483.33 207.73 h 0 M 488.38 203.69 h 0 M 493.43 200.66 h 0 M 498.48 196.61 h 0 M 503.54 202.56 h 0 M 508.59 188.23 h 0 M 513.64 186.12 h 0 M 518.69 188.39 h 0 M 523.74 175.71 h 0 M 528.79 181.07 h 0 M 533.84 176.13 h 0 M 538.89 175.58 h 0 M 543.94 170.46 h 0 M 548.99 165.64 h 0 M 554.04 166.90 h 0 M 559.09 146.96 h 0 M 564.14 156.43 h 0 M 569.19 150.21 h 0 M 574.24 155.01 h 0 M 579.29 144.02 h 0 M 584.34 145.09 h 0 M 589.39 143.50 h 0 M 594.44 133.17 h 0 M 599.49 124.62 h 0 M 604.55 131.54 h 0 M 609.60 124.33 h 0 M 614.65 117.93 h 0 M 619.70 122.24 h 0 M 624.75 115.94 h 0 M 629.80 119.33 h 0 M 634.85 114.36 h 0 M 639.90 105.28 h 0 M 644.95 103.15 h 0 M 650.00 100.00 h 0" /><text  class="poloto_text poloto_legend_text" x="675" y="300" >nosort_par</text><line  class="poloto_scatter poloto_legend_icon poloto4stroke poloto4legend" stroke="black" x1="685" x2="685" y1="281.25" y2="281.25" /><path  class="poloto_scatter poloto4stroke" d=" M 150.00 399.96 h 0 M 155.05 399.15 h 0 M 160.10 397.73 h 0 M 165.15 395.82 h 0 M 170.20 393.35 h 0 M 175.25 391.80 h 0 M 180.30 389.58 h 0 M 185.35 386.96 h 0 M 190.40 385.57 h 0 M 195.45 382.81 h 0 M 200.51 379.83 h 0 M 205.56 377.16 h 0 M 210.61 374.95 h 0 M 215.66 375.20 h 0 M 220.71 374.22 h 0 M 225.76 373.05 h 0 M 230.81 370.28 h 0 M 235.86 367.18 h 0 M 240.91 366.56 h 0 M 245.96 365.03 h 0 M 251.01 360.28 h 0 M 256.06 357.99 h 0 M 261.11 365.58 h 0 M 266.16 359.28 h 0 M 271.21 362.35 h 0 M 276.26 352.97 h 0 M 281.31 352.71 h 0 M 286.36 349.95 h 0 M 291.41 355.89 h 0 M 296.46 351.19 h 0 M 301.52 356.10 h 0 M 306.57 350.20 h 0 M 311.62 343.50 h 0 M 316.67 348.72 h 0 M 321.72 344.62 h 0 M 326.77 343.82 h 0 M 331.82 341.71 h 0 M 336.87 339.60 h 0 M 341.92 339.21 h 0 M 346.97 341.53 h 0 M 352.02 335.81 h 0 M 357.07 332.34 h 0 M 362.12 335.70 h 0 M 367.17 331.39 h 0 M 372.22 318.08 h 0 M 377.27 327.71 h 0 M 382.32 327.53 h 0 M 387.37 321.66 h 0 M 392.42 320.06 h 0 M 397.47 327.11 h 0 M 402.53 318.03 h 0 M 407.58 322.61 h 0 M 412.63 313.02 h 0 M 417.68 317.82 h 0 M 422.73 306.07 h 0 M 427.78 313.70 h 0 M 432.83 310.57 h 0 M 437.88 302.61 h 0 M 442.93 309.72 h 0 M 447.98 304.43 h 0 M 453.03 302.00 h 0 M 458.08 297.98 h 0 M 463.13 296.29 h 0 M 468.18 304.90 h 0 M 473.23 296.35 h 0 M 478.28 291.99 h 0 M 483.33 295.91 h 0 M 488.38 291.96 h 0 M 493.43 292.23 h 0 M 498.48 293.98 h 0 M 503.54 298.82 h 0 M 508.59 284.69 h 0 M 513.64 291.76 h 0 M 518.69 284.93 h 0 M 523.74 279.24 h 0 M 528.79 283.86 h 0 M 533.84 282.60 h 0 M 538.89 285.22 h 0 M 543.94 284.56 h 0 M 548.99 281.76 h 0 M 554.04 283.70 h 0 M 559.09 259.94 h 0 M 564.14 283.03 h 0 M 569.19 270.25 h 0 M 574.24 268.80 h 0 M 579.29 264.15 h 0 M 584.34 273.19 h 0 M 589.39 261.87 h 0 M 594.44 254.84 h 0 M 599.49 260.94 h 0 M 604.55 264.66 h 0 M 609.60 247.93 h 0 M 614.65 255.97 h 0 M 619.70 254.93 h 0 M 624.75 259.75 h 0 M 629.80 263.91 h 0 M 634.85 237.89 h 0 M 639.90 246.24 h 0 M 644.95 249.16 h 0 M 650.00 248.19 h 0" /><text  class="poloto_text poloto_legend_text" x="675" y="350" >sweep</text><line  class="poloto_scatter poloto_legend_icon poloto5stroke poloto5legend" stroke="black" x1="685" x2="685" y1="331.25" y2="331.25" /><path  class="poloto_scatter poloto5stroke" d=" M 150.00 399.93 h 0 M 155.05 399.13 h 0 M 160.10 397.73 h 0 M 165.15 395.80 h 0 M 170.20 393.65 h 0 M 175.25 391.90 h 0 M 180.30 388.43 h 0 M 185.35 385.50 h 0 M 190.40 383.06 h 0 M 195.45 380.45 h 0 M 200.51 379.17 h 0 M 205.56 374.96 h 0 M 210.61 371.29 h 0 M 215.66 370.03 h 0 M 220.71 367.55 h 0 M 225.76 362.83 h 0 M 230.81 356.79 h 0 M 235.86 356.74 h 0 M 240.91 352.85 h 0 M 245.96 349.56 h 0 M 251.01 344.54 h 0 M 256.06 342.16 h 0 M 261.11 336.63 h 0 M 266.16 335.54 h 0 M 271.21 330.69 h 0 M 276.26 322.50 h 0 M 281.31 323.27 h 0 M 286.36 318.13 h 0 M 291.41 315.13 h 0 M 296.46 311.93 h 0 M 301.52 303.38 h 0 M 306.57 300.84 h 0 M 311.62 297.22 h 0 M 316.67 291.04 h 0 M 321.72 290.44 h 0 M 326.77 286.60 h 0 M 331.82 277.56 h 0 M 336.87 276.28 h 0 M 341.92 271.18 h 0 M 346.97 267.17 h 0 M 352.02 262.65 h 0 M 357.07 258.78 h 0 M 362.12 247.85 h 0 M 367.17 245.56 h 0 M 372.22 237.24 h 0 M 377.27 233.90 h 0 M 382.32 234.63 h 0 M 387.37 229.02 h 0 M 392.42 227.88 h 0 M 397.47 218.36 h 0 M 402.53 215.95 h 0 M 407.58 209.07 h 0 M 412.63 204.31 h 0 M 417.68 187.27 h 0 M 422.73 193.61 h 0 M 427.78 190.68 h 0 M 432.83 187.80 h 0 M 437.88 177.53 h 0 M 442.93 172.44 h 0 M 447.98 169.53 h 0 M 453.03 163.31 h 0" /><text  class="poloto_labels poloto_text poloto_title" x="400" y="37.5" >Bench of space partitioning algs with abspiral(x,0.6)</text><text  class="poloto_labels poloto_text poloto_xname" x="400" y="481.25" >Number of Elements</text><text  class="poloto_labels poloto_text poloto_yname" transform="rotate(-90,37.5,250)" x="37.5" y="250" >Time in Seconds</text><text  class="poloto_tick_labels poloto_text" dominant-baseline="middle" text-anchor="start" x="150" y="70" ></text><line  class="poloto_axis_lines" stroke="black" x1="150" x2="144" y1="400" y2="400" /><text  class="poloto_tick_labels poloto_text" dominant-baseline="middle" text-anchor="end" x="135" y="400" >0e0</text><line  class="poloto_axis_lines" stroke="black" x1="150" x2="144" y1="329.5167929764894" y2="329.5167929764894" /><text  class="poloto_tick_labels poloto_text" dominant-baseline="middle" text-anchor="end" x="135" y="329.5167929764894" >0.002</text><line  class="poloto_axis_lines" stroke="black" x1="150" x2="144" y1="259.0335859529788" y2="259.0335859529788" /><text  class="poloto_tick_labels poloto_text" dominant-baseline="middle" text-anchor="end" x="135" y="259.0335859529788" >0.004</text><line  class="poloto_axis_lines" stroke="black" x1="150" x2="144" y1="188.55037892946814" y2="188.55037892946814" /><text  class="poloto_tick_labels poloto_text" dominant-baseline="middle" text-anchor="end" x="135" y="188.55037892946814" >0.006</text><line  class="poloto_axis_lines" stroke="black" x1="150" x2="144" y1="118.06717190595754" y2="118.06717190595754" /><text  class="poloto_tick_labels poloto_text" dominant-baseline="middle" text-anchor="end" x="135" y="118.06717190595754" >0.008</text><text  class="poloto_tick_labels poloto_text" dominant-baseline="middle" text-anchor="start" x="440.00000000000006" y="70" ></text><line  class="poloto_axis_lines" stroke="black" x1="150" x2="150" y1="400" y2="405" /><text  class="poloto_tick_labels poloto_text" dominant-baseline="start" text-anchor="middle" x="150" y="430" >0</text><line  class="poloto_axis_lines" stroke="black" x1="251.010101010101" x2="251.010101010101" y1="400" y2="405" /><text  class="poloto_tick_labels poloto_text" dominant-baseline="start" text-anchor="middle" x="251.010101010101" y="430" >2000</text><line  class="poloto_axis_lines" stroke="black" x1="352.020202020202" x2="352.020202020202" y1="400" y2="405" /><text  class="poloto_tick_labels poloto_text" dominant-baseline="start" text-anchor="middle" x="352.020202020202" y="430" >4000</text><line  class="poloto_axis_lines" stroke="black" x1="453.030303030303" x2="453.030303030303" y1="400" y2="405" /><text  class="poloto_tick_labels poloto_text" dominant-baseline="start" text-anchor="middle" x="453.030303030303" y="430" >6000</text><line  class="poloto_axis_lines" stroke="black" x1="554.040404040404" x2="554.040404040404" y1="400" y2="405" /><text  class="poloto_tick_labels poloto_text" dominant-baseline="start" text-anchor="middle" x="554.040404040404" y="430" >8000</text><path  stroke="black" fill="none" class="poloto_axis_lines" style="stroke-dasharray:12.626262626262626;stroke-dashoffset:-0;" d=" M 150 400 L 650 400" /><path  stroke="black" fill="none" class="poloto_axis_lines" style="stroke-dasharray:8.810400877938827;stroke-dashoffset:-0;" d=" M 150 400 L 150 100" /></svg>