<svg class="poloto" width="800" height="500" viewBox="0 0 800 500" xmlns="http://www.w3.org/2000/svg"><style>.poloto {
                    font-family: "Arial";
                    stroke-width:2;
                    }
                    .poloto_text{fill: var(--poloto_fg_color,black);  }
                    .poloto_axis_lines{stroke: var(--poloto_fg_color,black);stoke-width:3;fill:none}
                    .poloto_background{fill: var(--poloto_bg_color,aliceblue); }
                    .poloto0stroke{stroke:  var(--poloto_color0,blue); }
                    .poloto1stroke{stroke:  var(--poloto_color1,red); }
                    .poloto2stroke{stroke:  var(--poloto_color2,green); }
                    .poloto3stroke{stroke:  var(--poloto_color3,gold); }
                    .poloto4stroke{stroke:  var(--poloto_color4,aqua); }
                    .poloto5stroke{stroke:  var(--poloto_color5,brown); }
                    .poloto6stroke{stroke:  var(--poloto_color6,lime); }
                    .poloto7stroke{stroke:  var(--poloto_color7,chocolate); }
                    .poloto0fill{fill:var(--poloto_color0,blue);}
                    .poloto1fill{fill:var(--poloto_color1,red);}
                    .poloto2fill{fill:var(--poloto_color2,green);}
                    .poloto3fill{fill:var(--poloto_color3,gold);}
                    .poloto4fill{fill:var(--poloto_color4,aqua);}
                    .poloto5fill{fill:var(--poloto_color5,brown);}
                    .poloto6fill{fill:var(--poloto_color6,lime);}
                    .poloto7fill{fill:var(--poloto_color7,chocolate);}</style><rect class="poloto_background" fill="white" x="0" y="0" width="800" height="500"/><line class="poloto_axis_lines" stroke="black" x1="150" x2="150" y1="400" y2="405"/><text class="poloto_text" alignment-baseline="start" text-anchor="middle" x="150" y="430">0</text><line class="poloto_axis_lines" stroke="black" x1="251.010101010101" x2="251.010101010101" y1="400" y2="405"/><text class="poloto_text" alignment-baseline="start" text-anchor="middle" x="251.010101010101" y="430">2000</text><line class="poloto_axis_lines" stroke="black" x1="352.020202020202" x2="352.020202020202" y1="400" y2="405"/><text class="poloto_text" alignment-baseline="start" text-anchor="middle" x="352.020202020202" y="430">4000</text><line class="poloto_axis_lines" stroke="black" x1="453.030303030303" x2="453.030303030303" y1="400" y2="405"/><text class="poloto_text" alignment-baseline="start" text-anchor="middle" x="453.030303030303" y="430">6000</text><line class="poloto_axis_lines" stroke="black" x1="554.040404040404" x2="554.040404040404" y1="400" y2="405"/><text class="poloto_text" alignment-baseline="start" text-anchor="middle" x="554.040404040404" y="430">8000</text><line class="poloto_axis_lines" stroke="black" x1="150" x2="144" y1="356.98080747229005" y2="356.98080747229005"/><text class="poloto_text" alignment-baseline="middle" text-anchor="end" x="135" y="356.98080747229005">0.002</text><line class="poloto_axis_lines" stroke="black" x1="150" x2="144" y1="313.9601307312325" y2="313.9601307312325"/><text class="poloto_text" alignment-baseline="middle" text-anchor="end" x="135" y="313.9601307312325">0.004</text><line class="poloto_axis_lines" stroke="black" x1="150" x2="144" y1="270.9394539901749" y2="270.9394539901749"/><text class="poloto_text" alignment-baseline="middle" text-anchor="end" x="135" y="270.9394539901749">0.006</text><line class="poloto_axis_lines" stroke="black" x1="150" x2="144" y1="227.9187772491174" y2="227.9187772491174"/><text class="poloto_text" alignment-baseline="middle" text-anchor="end" x="135" y="227.9187772491174">0.008</text><line class="poloto_axis_lines" stroke="black" x1="150" x2="144" y1="184.89810050805988" y2="184.89810050805988"/><text class="poloto_text" alignment-baseline="middle" text-anchor="end" x="135" y="184.89810050805988">0.010</text><line class="poloto_axis_lines" stroke="black" x1="150" x2="144" y1="141.8774237670023" y2="141.8774237670023"/><text class="poloto_text" alignment-baseline="middle" text-anchor="end" x="135" y="141.8774237670023">0.012</text><text class="poloto_text" alignment-baseline="middle" text-anchor="start" font-size="large" x="675" y="100">brocc</text><line class="poloto0stroke" stroke="black" x1="680" x2="730" y1="81.25" y2="81.25"/><polyline class="poloto0stroke" fill="none" stroke="black" points="150,399.98446953569646 155.05050505050505,399.3465159203033 160.1010101010101,398.32288193792664 165.15151515151516,397.3121971792489 170.2020202020202,396.2393045220037 175.25252525252526,395.1068497378105 180.3030303030303,393.75552726069714 185.35353535353534,392.75916838737425 190.40404040404042,391.6916963353984 195.45454545454544,390.71725649687505 200.50505050505052,389.32020304038593 205.55555555555554,387.9384434344783 210.6060606060606,387.12350275497244 215.65656565656565,385.8457241247479 220.7070707070707,384.7680131517077 225.75757575757575,383.5704895939436 230.8080808080808,382.63730658441494 235.85858585858585,381.456044842459 240.9090909090909,380.5342408019284 245.95959595959596,379.44220394353334 251.010101010101,378.1954862419159 256.06060606060606,375.35913302437797 261.1111111111111,374.31904363314777 266.16161616161617,373.2895373283959 271.2121212121212,372.44992429077905 276.26262626262627,371.50138289965383 281.3131313131313,370.0395833246694 286.3636363636364,369.42720550159885 291.4141414141414,368.2593662107861 296.4646464646464,366.9306510993002 301.5151515151515,365.7275778742365 306.5656565656566,364.6410906831411 311.6161616161616,363.6795140269634 316.66666666666663,362.4144049860391 321.7171717171717,361.58346061478557 326.7676767676768,360.0760161017789 331.8181818181818,359.1273241382851 336.86868686868684,357.91416256452567 341.9191919191919,357.22127154493415 346.969696969697,355.1288964006177 352.020202020202,354.0302988890197 357.07070707070704,350.30716046181834 362.1212121212121,349.9227922254754 367.1717171717172,348.5290728714337 372.22222222222223,347.0355240370144 377.27272727272725,346.01257838546553 382.32323232323233,344.7897586697777 387.37373737373736,344.03410048282103 392.4242424242424,342.4923900007901 397.47474747474746,341.1602117248266 402.52525252525254,340.16428305827105 407.57575757575756,339.1886171304606 412.62626262626264,338.1777817994144 417.67676767676767,336.73803032125977 422.72727272727275,335.78269166320945 427.77777777777777,334.6071946919368 432.8282828282828,333.5887662114458 437.8787878787879,332.6466564114934 442.9292929292929,331.4572852719717 447.979797979798,330.0971005354497 453.030303030303,329.09800984915375 458.0808080808081,327.8294376437518 463.1313131313131,326.1835741033308 468.1818181818182,325.3350557856285 473.2323232323232,324.6468970404786 478.2828282828283,323.54320157868676 483.3333333333333,321.6668117419488 488.3838383838384,321.31653739192313 493.4343434343434,320.125165790933 498.4848484848485,318.99118377271543 503.5353535353535,318.53421814437195 508.5858585858586,317.60856375327296 513.6363636363636,316.42956059684593 518.6868686868687,315.58596814663053 523.7373737373737,313.5325912457798 528.7878787878788,313.36418680667697 533.8383838383838,312.32080633367616 538.8888888888889,311.1561720832806 543.939393939394,310.2152453519385 548.989898989899,309.1139590480442 554.040404040404,307.77364986417655 559.090909090909,306.075215056778 564.1414141414141,295.9660873741341 569.1919191919192,296.07794113366083 574.2424242424242,294.4381219983219 579.2929292929293,293.8595154064931 584.3434343434344,292.22612786232696 589.3939393939394,290.66013220827574 594.4444444444445,289.8813504075707 599.4949494949494,288.1161259995316 604.5454545454545,287.34491583793306 609.5959595959596,285.50980434052815 614.6464646464647,284.245340609755 619.6969696969697,284.11320260114485 624.7474747474747,282.608360839081 629.7979797979798,281.7147783624925 634.8484848484848,280.44074253114445 639.8989898989898,278.29069816965665 644.9494949494949,277.6554548568982 650,276.794632625648 "/><text class="poloto_text" alignment-baseline="middle" text-anchor="start" font-size="large" x="675" y="150">brocc_par</text><line class="poloto1stroke" stroke="black" x1="680" x2="730" y1="131.25" y2="131.25"/><polyline class="poloto1stroke" fill="none" stroke="black" points="150,399.96158253567023 155.05050505050505,399.31732639113454 160.1010101010101,398.2747848213301 165.15151515151516,397.1592156527577 170.2020202020202,396.30250189613633 175.25252525252526,395.1857926796303 180.3030303030303,393.79497722126865 185.35353535353534,392.8035011947559 190.40404040404042,391.6961274651027 195.45454545454544,390.7557384922199 200.50505050505052,389.45074928395667 205.55555555555554,388.1089343764031 210.6060606060606,387.3169022072619 215.65656565656565,386.0602252189788 220.7070707070707,384.96700529197346 225.75757575757575,383.87479635087146 230.8080808080808,382.90837986856036 235.85858585858585,381.5057337240949 240.9090909090909,380.77642570164215 245.95959595959596,379.6810547407997 251.010101010101,378.40161981452064 256.06060606060606,374.04655066666993 261.1111111111111,374.79668069666536 266.16161616161617,375.24164355619814 271.2121212121212,375.0384568999501 276.26262626262627,374.24608056539495 281.3131313131313,373.37850408789643 286.3636363636364,372.26364476049025 291.4141414141414,371.5455006036518 296.4646464646464,369.6891368919368 301.5151515151515,369.8616067849917 306.5656565656566,369.25269212639876 311.6161616161616,368.810224466117 316.66666666666663,368.40079668557235 321.7171717171717,366.81075247322286 326.7676767676768,366.62417179819687 331.8181818181818,365.7887102558856 336.86868686868684,364.7635060188078 341.9191919191919,365.154972666813 346.969696969697,363.45150444023574 352.020202020202,363.40185857927656 357.07070707070704,370.37198258350924 362.1212121212121,369.3493810973743 367.1717171717172,370.80976099002623 372.22222222222223,368.06992466075684 377.27272727272725,370.96041939997343 382.32323232323233,370.0943486461608 387.37373737373736,367.26642748126415 392.4242424242424,366.14810498938033 397.47474747474746,366.1233896105926 402.52525252525254,363.6250283398708 407.57575757575756,365.64650540891796 412.62626262626264,364.59187502894935 417.67676767676767,364.6514371558973 422.72727272727275,366.4934964925959 427.77777777777777,361.37640209763083 432.8282828282828,365.43961897447025 437.8787878787879,363.7215022074626 442.9292929292929,363.3467275820329 447.979797979798,361.07755896664906 453.030303030303,362.02373422055354 458.0808080808081,363.2143099390239 463.1313131313131,361.5374284906726 468.1818181818182,360.4389600411048 473.2323232323232,363.937422984026 478.2828282828283,361.36624921792 483.3333333333333,358.8765351032231 488.3838383838384,358.57407823539506 493.4343434343434,358.91564089838073 498.4848484848485,360.8725224213012 503.5353535353535,358.32690293717934 508.5858585858586,357.994933885107 513.6363636363636,358.8039807318993 518.6868686868687,358.7539261745111 523.7373737373737,357.2779727968789 528.7878787878788,359.17456084134676 533.8383838383838,356.40073817745196 538.8888888888889,356.43756387674233 543.939393939394,357.1923831605026 548.989898989899,355.06363403400155 554.040404040404,353.99904436736733 559.090909090909,356.63352305929783 564.1414141414141,349.8216936351339 569.1919191919192,351.00106246731326 574.2424242424242,348.543893494571 579.2929292929293,348.8346272279871 584.3434343434344,346.8657644465942 589.3939393939394,349.66378624115583 594.4444444444445,350.14763979246254 599.4949494949494,347.3264513634758 604.5454545454545,348.74667145438997 609.5959595959596,344.97223087017494 614.6464646464647,343.3529541079799 619.6969696969697,344.6890902862037 624.7474747474747,345.76484381845216 629.7979797979798,345.8776010121905 634.8484848484848,346.85875207628544 639.8989898989898,346.04264983850754 644.9494949494949,345.5549674469709 650,345.8793003289218 "/><text class="poloto_text" alignment-baseline="middle" text-anchor="start" font-size="large" x="675" y="200">naive</text><line class="poloto2stroke" stroke="black" x1="680" x2="730" y1="181.25" y2="181.25"/><polyline class="poloto2stroke" fill="none" stroke="black" points="150,400 155.05050505050505,399.23397382994875 160.1010101010101,397.22658603253427 165.15151515151516,394.48225404254543 170.2020202020202,391.00482821055067 175.25252525252526,386.9963766552026 180.3030303030303,382.160809568831 185.35353535353534,378.14506600877536 190.40404040404042,371.84238629384186 195.45454545454544,366.8639260296748 200.50505050505052,360.3356889065879 205.55555555555554,352.91769814714246 210.6060606060606,345.21970731312786 215.65656565656565,338.7975161582077 220.7070707070707,330.3246584050715 225.75757575757575,321.3327992077312 230.8080808080808,312.6958175728279 235.85858585858585,302.62502131316023 240.9090909090909,293.78595004926586 245.95959595959596,282.71223426307233 251.010101010101,272.46969946185436 256.06060606060606,256.9856329581978 261.1111111111111,249.8242605355128 266.16161616161617,234.61163299175394 271.2121212121212,218.55194983330205 276.26262626262627,206.7382353864856 281.3131313131313,193.4707447208969 286.3636363636364,183.18256498165672 291.4141414141414,166.2174686605125 296.4646464646464,151.0116383836788 301.5151515151515,137.78645855366494 "/><text class="poloto_text" alignment-baseline="middle" text-anchor="start" font-size="large" x="675" y="250">nosort</text><line class="poloto3stroke" stroke="black" x1="680" x2="730" y1="231.25" y2="231.25"/><polyline class="poloto3stroke" fill="none" stroke="black" points="150,399.98995467198097 155.05050505050505,399.1586016042984 160.1010101010101,397.712418534971 165.15151515151516,396.16483573056496 170.2020202020202,394.0105538324181 175.25252525252526,391.7528502273858 180.3030303030303,389.64522425316466 185.35353535353534,387.5333392319461 190.40404040404042,385.2730974069861 195.45454545454544,383.2612999902056 200.50505050505052,380.75568973545296 205.55555555555554,378.7045929304696 210.6060606060606,376.0963998720278 215.65656565656565,373.31627467899045 220.7070707070707,370.6872381026677 225.75757575757575,367.54771817613556 230.8080808080808,365.89933792612516 235.85858585858585,362.37136279895964 240.9090909090909,360.2785359375374 245.95959595959596,357.39578492013425 251.010101010101,352.5677034315156 256.06060606060606,352.79539036316766 261.1111111111111,350.5761902638186 266.16161616161617,347.23116056449436 271.2121212121212,345.01523003657763 276.26262626262627,339.8091258614353 281.3131313131313,339.34691171052935 286.3636363636364,336.2526280255904 291.4141414141414,331.7013630814621 296.4646464646464,328.35265511427656 301.5151515151515,327.7680901587191 306.5656565656566,324.2408678933965 311.6161616161616,317.477888447672 316.66666666666663,317.3984077473929 321.7171717171717,313.9962035686799 326.7676767676768,309.86342225755016 331.8181818181818,307.93644010496473 336.86868686868684,301.1234921432055 341.9191919191919,304.32599434048655 346.969696969697,297.4117326850022 352.020202020202,294.12839463612465 357.07070707070704,294.0057426867359 362.1212121212121,291.93767422477816 367.1717171717172,288.0352041065817 372.22222222222223,280.0949853521766 377.27272727272725,281.481606294556 382.32323232323233,278.86362603215565 387.37373737373736,272.50327710005075 392.4242424242424,268.78405355443283 397.47474747474746,269.24906404932693 402.52525252525254,263.07570448867705 407.57575757575756,263.4551898782099 412.62626262626264,256.39661536259763 417.67676767676767,256.91000260848705 422.72727272727275,251.34693436808578 427.77777777777777,250.09982948037762 432.8282828282828,246.95669581699923 437.8787878787879,240.0006395740609 442.9292929292929,240.2349086692543 447.979797979798,236.3757818828745 453.030303030303,229.18747851654956 458.0808080808081,227.25318284891813 463.1313131313131,220.40508699426147 468.1818181818182,222.0234388119066 473.2323232323232,218.3029676666632 478.2828282828283,213.51988580591566 483.3333333333333,210.79805362986244 488.3838383838384,206.06737095338553 493.4343434343434,203.66651604649732 498.4848484848485,201.73288719935542 503.5353535353535,203.19389089182005 508.5858585858586,197.78008288937193 513.6363636363636,192.2096581132479 518.6868686868687,190.38130086209136 523.7373737373737,177.49581229562492 528.7878787878788,183.19377186794776 533.8383838383838,181.0108381990914 538.8888888888889,178.55945550737084 543.939393939394,175.44454340793456 548.989898989899,168.81064750277164 554.040404040404,169.2669893313024 559.090909090909,154.84282324051526 564.1414141414141,164.20343416854152 569.1919191919192,155.09494591655627 574.2424242424242,149.37039956600745 579.2929292929293,143.34094416905634 584.3434343434344,147.40416104589576 589.3939393939394,140.84066847821958 594.4444444444445,137.80827003677268 599.4949494949494,131.6799101039939 604.5454545454545,133.58013339564638 609.5959595959596,120.45721371424605 614.6464646464647,119.57341844161613 619.6969696969697,119.99398857743671 624.7474747474747,117.1775109125532 629.7979797979798,118.076105297982 634.8484848484848,109.88841010062396 639.8989898989898,102.40459770576467 644.9494949494949,103.45197910170248 650,100 "/><text class="poloto_text" alignment-baseline="middle" text-anchor="start" font-size="large" x="675" y="300">nosort_par</text><line class="poloto4stroke" stroke="black" x1="680" x2="730" y1="281.25" y2="281.25"/><polyline class="poloto4stroke" fill="none" stroke="black" points="150,399.97717753098885 155.05050505050505,399.151029965192 160.1010101010101,397.6898757003587 165.15151515151516,396.0903454287878 170.2020202020202,393.9024643821062 175.25252525252526,391.51655916038555 180.3030303030303,389.5886950839269 185.35353535353534,387.30320012171984 190.40404040404042,385.15719970384566 195.45454545454544,382.86355232339616 200.50505050505052,380.3895407557098 205.55555555555554,378.36700968008245 210.6060606060606,375.6911881178038 215.65656565656565,372.9460602452953 220.7070707070707,370.19503854007326 225.75757575757575,367.46464524934856 230.8080808080808,365.42021664926 235.85858585858585,361.9685602026331 240.9090909090909,359.1732917313829 245.95959595959596,356.81999618263194 251.010101010101,351.89253693074147 256.06060606060606,358.9622107809529 261.1111111111111,356.9072851357396 266.16161616161617,355.6636434125091 271.2121212121212,354.1734286805372 276.26262626262627,350.2617951581949 281.3131313131313,349.6693143981171 286.3636363636364,347.98318350426644 291.4141414141414,344.30831427636855 296.4646464646464,343.05753112079907 301.5151515151515,341.6707596060511 306.5656565656566,340.79010484282327 311.6161616161616,333.2432026255232 316.66666666666663,334.0731360108733 321.7171717171717,332.2586529279657 326.7676767676768,329.50853465695525 331.8181818181818,328.85429771541567 336.86868686868684,322.0073849293694 341.9191919191919,328.3776931481398 346.969696969697,322.15681725002946 352.020202020202,319.68420385433717 357.07070707070704,336.24894975772906 362.1212121212121,337.592872678443 367.1717171717172,332.4178939629228 372.22222222222223,328.4683592243716 377.27272727272725,331.44222803511235 382.32323232323233,328.5975072959483 387.37373737373736,321.90873851760216 392.4242424242424,323.47677765379854 397.47474747474746,323.5068275965022 402.52525252525254,320.57367785629685 407.57575757575756,320.2053563323783 412.62626262626264,316.2532618635611 417.67676767676767,320.23316919989145 422.72727272727275,315.08626147594475 427.77777777777777,318.36947046279204 432.8282828282828,312.71173522322215 437.8787878787879,305.95908073991546 442.9292929292929,312.06803834748405 447.979797979798,310.18676566393594 453.030303030303,303.63034999758366 458.0808080808081,305.8537231025766 463.1313131313131,298.7797902053678 468.1818181818182,302.036519965681 473.2323232323232,298.7619151141819 478.2828282828283,298.1374915016238 483.3333333333333,300.35337900886384 488.3838383838384,293.20366518957564 493.4343434343434,290.3480602191961 498.4848484848485,289.60031783675976 503.5353535353535,296.8875902699275 508.5858585858586,292.30765204475125 513.6363636363636,287.74498662128656 518.6868686868687,290.8972191577957 523.7373737373737,278.533786503582 528.7878787878788,288.61144456118984 533.8383838383838,288.3076540523829 538.8888888888889,289.13948034750956 543.939393939394,286.91948436564076 548.989898989899,281.07731948488185 554.040404040404,285.06281950918856 559.090909090909,270.50494515509024 564.1414141414141,280.21727162581305 569.1919191919192,270.996757531594 574.2424242424242,250.12695401706287 579.2929292929293,265.6820046373422 584.3434343434344,272.2073808854258 589.3939393939394,263.8673494717276 594.4444444444445,261.0144978246595 599.4949494949494,260.9993545464466 604.5454545454545,264.79648853764263 609.5959595959596,251.13419712160126 614.6464646464647,253.95985970096902 619.6969696969697,255.47448866699142 624.7474747474747,254.26803831880358 629.7979797979798,258.1998485385374 634.8484848484848,253.930949806199 639.8989898989898,249.03532585509691 644.9494949494949,253.93647796316026 650,250.66466945564935 "/><text class="poloto_text" alignment-baseline="middle" text-anchor="start" font-size="large" x="675" y="350">sweep</text><line class="poloto5stroke" stroke="black" x1="680" x2="730" y1="331.25" y2="331.25"/><polyline class="poloto5stroke" fill="none" stroke="black" points="150,399.9686164163174 155.05050505050505,399.28949201328305 160.1010101010101,397.8354791807888 165.15151515151516,396.1090379128318 170.2020202020202,394.08766839547644 175.25252525252526,392.005682744593 180.3030303030303,389.67110119022436 185.35353535353534,387.36794624021513 190.40404040404042,384.73983460844227 195.45454545454544,382.20236754256285 200.50505050505052,379.4415371230439 205.55555555555554,376.63004985666225 210.6060606060606,373.59945828363846 215.65656565656565,370.53124512880464 220.7070707070707,367.41056825868503 225.75757575757575,364.3972494873728 230.8080808080808,360.99852998347575 235.85858585858585,357.5065631627425 240.9090909090909,353.99925947075104 245.95959595959596,350.47349990843765 251.010101010101,346.9237132981644 256.06060606060606,343.26805280243144 261.1111111111111,339.5937428433312 266.16161616161617,335.69153084919515 271.2121212121212,331.9930862904432 276.26262626262627,328.23731667993377 281.3131313131313,324.13673634534473 286.3636363636364,320.17397274869575 291.4141414141414,316.2222439556308 296.4646464646464,312.0052281594421 301.5151515151515,306.7995972117439 306.5656565656566,303.30711414288976 311.6161616161616,298.61474137905077 316.66666666666663,294.15022762957074 321.7171717171717,290.14911109960707 326.7676767676768,285.52419475689805 331.8181818181818,281.09304354223076 336.86868686868684,276.0376623080507 341.9191919191919,271.50143309044336 346.969696969697,266.28328312581357 352.020202020202,262.03174323654014 357.07070707070704,256.7918678301561 362.1212121212121,252.23010584090295 367.1717171717172,247.42243766339791 372.22222222222223,242.9727015163785 377.27272727272725,237.4361985438648 382.32323232323233,232.06622861101582 387.37373737373736,227.02700164095202 392.4242424242424,221.82433911994895 397.47474747474746,216.21153897723505 402.52525252525254,211.380532082598 407.57575757575756,206.09970099195644 412.62626262626264,200.51667115754734 417.67676767676767,195.71399337854425 422.72727272727275,189.89370451190823 427.77777777777777,184.58523263646052 432.8282828282828,179.04632050604934 437.8787878787879,173.3766255183454 442.9292929292929,167.84156373850257 447.979797979798,162.4444692689683 453.030303030303,157.53675650770194 "/><text class="poloto_text" alignment-baseline="start" text-anchor="middle" font-size="x-large" x="400" y="37.5">Bench of space partitioning algs with abspiral(x,0.6)</text><text class="poloto_text" alignment-baseline="start" text-anchor="middle" font-size="x-large" x="400" y="481.25">Number of Elements</text><text class="poloto_text" alignment-baseline="start" text-anchor="middle" font-size="x-large" transform="rotate(-90,37.5,250)" x="37.5" y="250">Time in Seconds</text><path stroke="black" fill="none" class="poloto_axis_lines" d=" M 150 100 L 150 400 L 650 400"/></svg>