<svg class="poloto" width="800" height="500" viewBox="0 0 800 500" xmlns="http://www.w3.org/2000/svg"><circle  r="1e5" class="poloto_background" /><text  class="poloto_text poloto_legend_text" x="675" y="100" >broccoli</text><line  class="poloto_scatter poloto_legend_icon poloto0stroke poloto0legend" stroke="black" x1="685" x2="685" y1="81.25" y2="81.25" /><path  class="poloto_scatter poloto0stroke" d=" M 150.00 243.46 h 0 M 155.05 248.28 h 0 M 160.10 252.59 h 0 M 165.15 256.48 h 0 M 170.20 259.48 h 0 M 175.25 265.19 h 0 M 180.30 268.16 h 0 M 185.35 268.02 h 0 M 190.40 273.03 h 0 M 195.45 274.35 h 0 M 200.51 278.96 h 0 M 205.56 280.47 h 0 M 210.61 283.88 h 0 M 215.66 286.16 h 0 M 220.71 290.09 h 0 M 225.76 292.77 h 0 M 230.81 293.85 h 0 M 235.86 295.70 h 0 M 240.91 298.69 h 0 M 245.96 299.52 h 0 M 251.01 301.22 h 0 M 256.06 306.59 h 0 M 261.11 309.10 h 0 M 266.16 311.16 h 0 M 271.21 313.55 h 0 M 276.26 315.81 h 0 M 281.31 318.83 h 0 M 286.36 319.37 h 0 M 291.41 322.65 h 0 M 296.46 324.29 h 0 M 301.52 324.17 h 0 M 306.57 326.01 h 0 M 311.62 327.02 h 0 M 316.67 329.70 h 0 M 321.72 331.41 h 0 M 326.77 332.44 h 0 M 331.82 333.94 h 0 M 336.87 334.45 h 0 M 341.92 335.87 h 0 M 346.97 337.52 h 0 M 352.02 338.48 h 0 M 357.07 337.98 h 0 M 362.12 339.31 h 0 M 367.17 340.20 h 0 M 372.22 341.20 h 0 M 377.27 341.93 h 0 M 382.32 342.77 h 0 M 387.37 343.85 h 0 M 392.42 343.97 h 0 M 397.47 344.94 h 0 M 402.53 346.16 h 0 M 407.58 346.84 h 0 M 412.63 347.61 h 0 M 417.68 349.39 h 0 M 422.73 349.47 h 0 M 427.78 350.30 h 0 M 432.83 351.63 h 0 M 437.88 352.92 h 0 M 442.93 353.57 h 0 M 447.98 354.31 h 0 M 453.03 355.49 h 0 M 458.08 356.02 h 0 M 463.13 356.55 h 0 M 468.18 357.12 h 0 M 473.23 357.33 h 0 M 478.28 357.69 h 0 M 483.33 358.52 h 0 M 488.38 359.00 h 0 M 493.43 359.67 h 0 M 498.48 360.84 h 0 M 503.54 361.34 h 0 M 508.59 360.94 h 0 M 513.64 361.58 h 0 M 518.69 361.75 h 0 M 523.74 362.85 h 0 M 528.79 362.36 h 0 M 533.84 363.63 h 0 M 538.89 364.26 h 0 M 543.94 365.49 h 0 M 548.99 365.49 h 0 M 554.04 365.84 h 0 M 559.09 366.27 h 0 M 564.14 366.79 h 0 M 569.19 367.26 h 0 M 574.24 367.31 h 0 M 579.29 368.07 h 0 M 584.34 368.42 h 0 M 589.39 369.15 h 0 M 594.44 369.05 h 0 M 599.49 369.81 h 0 M 604.55 369.62 h 0 M 609.60 370.28 h 0 M 614.65 370.57 h 0 M 619.70 370.98 h 0 M 624.75 371.30 h 0 M 629.80 371.57 h 0 M 634.85 371.72 h 0 M 639.90 372.32 h 0 M 644.95 373.00 h 0 M 650.00 373.16 h 0" /><text  class="poloto_text poloto_legend_text" x="675" y="150" >naive</text><line  class="poloto_scatter poloto_legend_icon poloto1stroke poloto1legend" stroke="black" x1="685" x2="685" y1="131.25" y2="131.25" /><path  class="poloto_scatter poloto1stroke" d=" M 150.00 400.00 h 0 M 155.05 400.00 h 0 M 160.10 400.00 h 0 M 165.15 400.00 h 0 M 170.20 400.00 h 0 M 175.25 400.00 h 0 M 180.30 400.00 h 0 M 185.35 400.00 h 0 M 190.40 400.00 h 0 M 195.45 400.00 h 0 M 200.51 400.00 h 0 M 205.56 400.00 h 0 M 210.61 400.00 h 0 M 215.66 400.00 h 0 M 220.71 400.00 h 0 M 225.76 400.00 h 0 M 230.81 400.00 h 0 M 235.86 400.00 h 0 M 240.91 400.00 h 0 M 245.96 400.00 h 0 M 251.01 400.00 h 0 M 256.06 400.00 h 0 M 261.11 400.00 h 0 M 266.16 400.00 h 0 M 271.21 400.00 h 0 M 276.26 400.00 h 0 M 281.31 400.00 h 0 M 286.36 400.00 h 0 M 291.41 400.00 h 0 M 296.46 400.00 h 0 M 301.52 400.00 h 0 M 306.57 400.00 h 0 M 311.62 400.00 h 0 M 316.67 400.00 h 0 M 321.72 400.00 h 0 M 326.77 400.00 h 0 M 331.82 400.00 h 0 M 336.87 400.00 h 0 M 341.92 400.00 h 0 M 346.97 400.00 h 0 M 352.02 400.00 h 0 M 357.07 400.00 h 0 M 362.12 400.00 h 0 M 367.17 400.00 h 0 M 372.22 400.00 h 0 M 377.27 400.00 h 0 M 382.32 400.00 h 0 M 387.37 400.00 h 0 M 392.42 400.00 h 0 M 397.47 400.00 h 0 M 402.53 400.00 h 0 M 407.58 400.00 h 0 M 412.63 400.00 h 0 M 417.68 400.00 h 0 M 422.73 400.00 h 0 M 427.78 400.00 h 0 M 432.83 400.00 h 0 M 437.88 400.00 h 0 M 442.93 400.00 h 0 M 447.98 400.00 h 0 M 453.03 400.00 h 0 M 458.08 400.00 h 0 M 463.13 400.00 h 0 M 468.18 400.00 h 0 M 473.23 400.00 h 0 M 478.28 400.00 h 0 M 483.33 400.00 h 0 M 488.38 400.00 h 0 M 493.43 400.00 h 0 M 498.48 400.00 h 0 M 503.54 400.00 h 0 M 508.59 400.00 h 0 M 513.64 400.00 h 0 M 518.69 400.00 h 0 M 523.74 400.00 h 0 M 528.79 400.00 h 0 M 533.84 400.00 h 0 M 538.89 400.00 h 0 M 543.94 400.00 h 0 M 548.99 400.00 h 0 M 554.04 400.00 h 0 M 559.09 400.00 h 0 M 564.14 400.00 h 0 M 569.19 400.00 h 0 M 574.24 400.00 h 0 M 579.29 400.00 h 0 M 584.34 400.00 h 0 M 589.39 400.00 h 0 M 594.44 400.00 h 0 M 599.49 400.00 h 0 M 604.55 400.00 h 0 M 609.60 400.00 h 0 M 614.65 400.00 h 0 M 619.70 400.00 h 0 M 624.75 400.00 h 0 M 629.80 400.00 h 0 M 634.85 400.00 h 0 M 639.90 400.00 h 0 M 644.95 400.00 h 0 M 650.00 400.00 h 0" /><text  class="poloto_text poloto_legend_text" x="675" y="200" >nosort</text><line  class="poloto_scatter poloto_legend_icon poloto2stroke poloto2legend" stroke="black" x1="685" x2="685" y1="181.25" y2="181.25" /><path  class="poloto_scatter poloto2stroke" d=" M 150.00 100.00 h 0 M 155.05 104.45 h 0 M 160.10 109.40 h 0 M 165.15 113.95 h 0 M 170.20 116.62 h 0 M 175.25 125.58 h 0 M 180.30 129.05 h 0 M 185.35 130.66 h 0 M 190.40 135.31 h 0 M 195.45 139.36 h 0 M 200.51 143.99 h 0 M 205.56 146.86 h 0 M 210.61 150.30 h 0 M 215.66 154.30 h 0 M 220.71 159.58 h 0 M 225.76 163.19 h 0 M 230.81 164.14 h 0 M 235.86 168.37 h 0 M 240.91 172.18 h 0 M 245.96 174.30 h 0 M 251.01 177.24 h 0 M 256.06 189.55 h 0 M 261.11 193.40 h 0 M 266.16 196.50 h 0 M 271.21 199.65 h 0 M 276.26 202.47 h 0 M 281.31 210.89 h 0 M 286.36 209.72 h 0 M 291.41 217.85 h 0 M 296.46 220.21 h 0 M 301.52 221.24 h 0 M 306.57 224.05 h 0 M 311.62 225.62 h 0 M 316.67 230.81 h 0 M 321.72 233.26 h 0 M 326.77 235.15 h 0 M 331.82 238.19 h 0 M 336.87 238.41 h 0 M 341.92 240.49 h 0 M 346.97 242.44 h 0 M 352.02 243.75 h 0 M 357.07 245.38 h 0 M 362.12 247.51 h 0 M 367.17 248.32 h 0 M 372.22 249.78 h 0 M 377.27 251.01 h 0 M 382.32 252.50 h 0 M 387.37 254.48 h 0 M 392.42 255.47 h 0 M 397.47 257.50 h 0 M 402.53 259.34 h 0 M 407.58 260.00 h 0 M 412.63 261.50 h 0 M 417.68 267.04 h 0 M 422.73 267.34 h 0 M 427.78 269.00 h 0 M 432.83 270.94 h 0 M 437.88 272.77 h 0 M 442.93 275.29 h 0 M 447.98 276.93 h 0 M 453.03 280.74 h 0 M 458.08 281.33 h 0 M 463.13 282.67 h 0 M 468.18 283.73 h 0 M 473.23 284.19 h 0 M 478.28 285.17 h 0 M 483.33 286.62 h 0 M 488.38 287.52 h 0 M 493.43 287.96 h 0 M 498.48 290.89 h 0 M 503.54 291.54 h 0 M 508.59 290.08 h 0 M 513.64 291.39 h 0 M 518.69 292.36 h 0 M 523.74 296.25 h 0 M 528.79 293.58 h 0 M 533.84 297.45 h 0 M 538.89 298.63 h 0 M 543.94 301.38 h 0 M 548.99 300.42 h 0 M 554.04 301.97 h 0 M 559.09 302.30 h 0 M 564.14 304.52 h 0 M 569.19 306.10 h 0 M 574.24 306.38 h 0 M 579.29 307.96 h 0 M 584.34 308.83 h 0 M 589.39 311.20 h 0 M 594.44 310.26 h 0 M 599.49 312.47 h 0 M 604.55 312.28 h 0 M 609.60 313.70 h 0 M 614.65 314.29 h 0 M 619.70 315.33 h 0 M 624.75 316.10 h 0 M 629.80 316.64 h 0 M 634.85 317.41 h 0 M 639.90 318.67 h 0 M 644.95 320.24 h 0 M 650.00 320.18 h 0" /><text  class="poloto_text poloto_legend_text" x="675" y="250" >sweep</text><line  class="poloto_scatter poloto_legend_icon poloto3stroke poloto3legend" stroke="black" x1="685" x2="685" y1="231.25" y2="231.25" /><path  class="poloto_scatter poloto3stroke" d=" M 150.00 159.87 h 0 M 155.05 164.22 h 0 M 160.10 168.89 h 0 M 165.15 173.27 h 0 M 170.20 177.17 h 0 M 175.25 181.21 h 0 M 180.30 184.85 h 0 M 185.35 188.38 h 0 M 190.40 192.05 h 0 M 195.45 195.53 h 0 M 200.51 198.96 h 0 M 205.56 202.06 h 0 M 210.61 205.27 h 0 M 215.66 208.43 h 0 M 220.71 211.21 h 0 M 225.76 213.98 h 0 M 230.81 216.92 h 0 M 235.86 219.54 h 0 M 240.91 221.90 h 0 M 245.96 224.68 h 0 M 251.01 227.12 h 0 M 256.06 229.59 h 0 M 261.11 231.85 h 0 M 266.16 234.02 h 0 M 271.21 236.16 h 0 M 276.26 238.53 h 0 M 281.31 240.62 h 0 M 286.36 242.55 h 0 M 291.41 244.46 h 0 M 296.46 246.39 h 0 M 301.52 248.28 h 0 M 306.57 250.12 h 0 M 311.62 251.96 h 0 M 316.67 253.72 h 0 M 321.72 255.60 h 0 M 326.77 257.24 h 0 M 331.82 258.96 h 0 M 336.87 260.49 h 0 M 341.92 262.00 h 0 M 346.97 263.68 h 0 M 352.02 265.03 h 0 M 357.07 266.47 h 0 M 362.12 267.93 h 0 M 367.17 269.17 h 0 M 372.22 270.68 h 0 M 377.27 272.00 h 0 M 382.32 273.35 h 0 M 387.37 274.52 h 0 M 392.42 275.90 h 0 M 397.47 277.09 h 0 M 402.53 278.30 h 0 M 407.58 279.45 h 0 M 412.63 280.65 h 0 M 417.68 281.95 h 0 M 422.73 282.90 h 0 M 427.78 284.01 h 0 M 432.83 285.11 h 0 M 437.88 286.27 h 0 M 442.93 287.22 h 0 M 447.98 288.36 h 0 M 453.03 289.21 h 0 M 458.08 290.25 h 0 M 463.13 291.22 h 0 M 468.18 292.15 h 0 M 473.23 293.15 h 0 M 478.28 294.06 h 0 M 483.33 294.93 h 0 M 488.38 295.87 h 0 M 493.43 296.69 h 0 M 498.48 297.53 h 0 M 503.54 298.47 h 0 M 508.59 299.26 h 0 M 513.64 300.08 h 0 M 518.69 300.88 h 0 M 523.74 301.62 h 0 M 528.79 302.35 h 0 M 533.84 303.16 h 0 M 538.89 303.80 h 0 M 543.94 304.64 h 0 M 548.99 305.34 h 0 M 554.04 306.16 h 0 M 559.09 306.81 h 0 M 564.14 307.53 h 0 M 569.19 308.18 h 0 M 574.24 308.83 h 0 M 579.29 309.52 h 0 M 584.34 310.18 h 0 M 589.39 310.78 h 0 M 594.44 311.54 h 0 M 599.49 312.18 h 0 M 604.55 312.86 h 0 M 609.60 313.40 h 0 M 614.65 313.95 h 0 M 619.70 314.54 h 0 M 624.75 315.21 h 0 M 629.80 315.72 h 0 M 634.85 316.38 h 0 M 639.90 316.92 h 0 M 644.95 317.43 h 0 M 650.00 318.13 h 0" /><text  class="poloto_labels poloto_text poloto_title" x="400" y="37.5" >Complexity of space partitioning algs with abspiral(3000,grow)</text><text  class="poloto_labels poloto_text poloto_xname" x="400" y="481.25" >Grow</text><text  class="poloto_labels poloto_text poloto_yname" transform="rotate(-90,37.5,250)" x="37.5" y="250" >Number of Comparisons</text><text  class="poloto_tick_labels poloto_text" dominant-baseline="middle" text-anchor="start" x="150" y="70" ></text><line  class="poloto_axis_lines" stroke="black" x1="150" x2="144" y1="400" y2="400" /><text  class="poloto_tick_labels poloto_text" dominant-baseline="middle" text-anchor="end" x="135" y="400" >0</text><line  class="poloto_axis_lines" stroke="black" x1="150" x2="144" y1="308.6926013158309" y2="308.6926013158309" /><text  class="poloto_tick_labels poloto_text" dominant-baseline="middle" text-anchor="end" x="135" y="308.6926013158309" >2e6</text><line  class="poloto_axis_lines" stroke="black" x1="150" x2="144" y1="217.38520263166185" y2="217.38520263166185" /><text  class="poloto_tick_labels poloto_text" dominant-baseline="middle" text-anchor="end" x="135" y="217.38520263166185" >4e6</text><line  class="poloto_axis_lines" stroke="black" x1="150" x2="144" y1="126.07780394749278" y2="126.07780394749278" /><text  class="poloto_tick_labels poloto_text" dominant-baseline="middle" text-anchor="end" x="135" y="126.07780394749278" >6e6</text><text  class="poloto_tick_labels poloto_text" dominant-baseline="middle" text-anchor="start" x="440.00000000000006" y="70" ></text><line  class="poloto_axis_lines" stroke="black" x1="150" x2="150" y1="400" y2="405" /><text  class="poloto_tick_labels poloto_text" dominant-baseline="start" text-anchor="middle" x="150" y="430" >0.20</text><line  class="poloto_axis_lines" stroke="black" x1="213.1313131313131" x2="213.1313131313131" y1="400" y2="405" /><text  class="poloto_tick_labels poloto_text" dominant-baseline="start" text-anchor="middle" x="213.1313131313131" y="430" >0.25</text><line  class="poloto_axis_lines" stroke="black" x1="276.26262626262627" x2="276.26262626262627" y1="400" y2="405" /><text  class="poloto_tick_labels poloto_text" dominant-baseline="start" text-anchor="middle" x="276.26262626262627" y="430" >0.30</text><line  class="poloto_axis_lines" stroke="black" x1="339.3939393939394" x2="339.3939393939394" y1="400" y2="405" /><text  class="poloto_tick_labels poloto_text" dominant-baseline="start" text-anchor="middle" x="339.3939393939394" y="430" >0.35</text><line  class="poloto_axis_lines" stroke="black" x1="402.5252525252525" x2="402.5252525252525" y1="400" y2="405" /><text  class="poloto_tick_labels poloto_text" dominant-baseline="start" text-anchor="middle" x="402.5252525252525" y="430" >0.40</text><line  class="poloto_axis_lines" stroke="black" x1="465.65656565656565" x2="465.65656565656565" y1="400" y2="405" /><text  class="poloto_tick_labels poloto_text" dominant-baseline="start" text-anchor="middle" x="465.65656565656565" y="430" >0.45</text><line  class="poloto_axis_lines" stroke="black" x1="528.7878787878788" x2="528.7878787878788" y1="400" y2="405" /><text  class="poloto_tick_labels poloto_text" dominant-baseline="start" text-anchor="middle" x="528.7878787878788" y="430" >0.50</text><line  class="poloto_axis_lines" stroke="black" x1="591.9191919191919" x2="591.9191919191919" y1="400" y2="405" /><text  class="poloto_tick_labels poloto_text" dominant-baseline="start" text-anchor="middle" x="591.9191919191919" y="430" >0.55</text><path  stroke="black" fill="none" class="poloto_axis_lines" style="stroke-dasharray:6.313131313131312;stroke-dashoffset:-0;" d=" M 150 400 L 650 400" /><path  stroke="black" fill="none" class="poloto_axis_lines" style="stroke-dasharray:11.413424835521134;stroke-dashoffset:-0;" d=" M 150 400 L 150 100" /></svg>