<svg class="poloto" height="500" viewBox="0 0 800 500" width="800" xmlns="http://www.w3.org/2000/svg">
<rect class="poloto_background" fill="white" height="500" width="800" x="0" y="0"/>
<style>
.poloto {
font-family: "Arial";
stroke-width:2;
}
.poloto_text{fill: var(--poloto_fg_color,black);  }
.poloto_axis_lines{stroke: var(--poloto_fg_color,black);stoke-width:3;fill:none}
.poloto_background{fill: var(--poloto_bg_color,aliceblue); }
.poloto0stroke{stroke:  var(--poloto_color0,blue); }
.poloto1stroke{stroke:  var(--poloto_color1,red); }
.poloto2stroke{stroke:  var(--poloto_color2,green); }
.poloto3stroke{stroke:  var(--poloto_color3,gold); }
.poloto4stroke{stroke:  var(--poloto_color4,aqua); }
.poloto5stroke{stroke:  var(--poloto_color5,brown); }
.poloto6stroke{stroke:  var(--poloto_color6,lime); }
.poloto7stroke{stroke:  var(--poloto_color7,chocolate); }
.poloto0fill{fill:var(--poloto_color0,blue);}
.poloto1fill{fill:var(--poloto_color1,red);}
.poloto2fill{fill:var(--poloto_color2,green);}
.poloto3fill{fill:var(--poloto_color3,gold);}
.poloto4fill{fill:var(--poloto_color4,aqua);}
.poloto5fill{fill:var(--poloto_color5,brown);}
.poloto6fill{fill:var(--poloto_color6,lime);}
.poloto7fill{fill:var(--poloto_color7,chocolate);}
</style>
<text alignment-baseline="start" class="poloto_text" text-anchor="middle" x="150" y="440">
1e-3
</text>
<text alignment-baseline="start" class="poloto_text" text-anchor="middle" x="222.46378" y="440">
2e-3
</text>
<text alignment-baseline="start" class="poloto_text" text-anchor="middle" x="294.92755" y="440">
3e-3
</text>
<text alignment-baseline="start" class="poloto_text" text-anchor="middle" x="367.39133" y="440">
4e-3
</text>
<text alignment-baseline="start" class="poloto_text" text-anchor="middle" x="439.8551" y="440">
5e-3
</text>
<text alignment-baseline="start" class="poloto_text" text-anchor="middle" x="512.31885" y="440">
6e-3
</text>
<text alignment-baseline="start" class="poloto_text" text-anchor="middle" x="584.78265" y="440">
7e-3
</text>
<text alignment-baseline="middle" class="poloto_text" text-anchor="end" x="120" y="400">
0e0
</text>
<text alignment-baseline="middle" class="poloto_text" text-anchor="end" x="120" y="333.85144">
5e-3
</text>
<text alignment-baseline="middle" class="poloto_text" text-anchor="end" x="120" y="267.70285">
1e-2
</text>
<text alignment-baseline="middle" class="poloto_text" text-anchor="end" x="120" y="201.55426">
1.5e-2
</text>
<text alignment-baseline="middle" class="poloto_text" text-anchor="end" x="120" y="135.4057">
2e-2
</text>
<text alignment-baseline="middle" class="poloto_text" font-size="large" text-anchor="start" x="675" y="100">
brocc
</text>
<line class="poloto0stroke" x1="680" x2="730" y1="81.25" y2="81.25"/>
<polyline class="poloto0stroke" fill="none" points="150,170.18733 157.24637,182.93857 164.49275,191.04608 171.73914,203.71643 178.9855,213.27515 186.23189,207.55438 193.47826,224.33485 200.72464,229.20552 207.97101,236.9567 215.21739,241.31126 222.46378,246.88016 229.71014,251.18459 236.95651,257.03104 244.20291,259.37354 251.44928,263.455 258.69565,267.26196 265.94202,269.9499 273.18842,274.84592 280.43478,274.6339 287.68115,276.6278 294.92755,281.733 302.17395,283.00867 309.4203,285.23373 316.6667,288.12396 323.9131,290.4218 331.15942,291.15356 338.4058,292.30884 345.6522,294.87845 352.89856,296.0321 360.14493,298.25262 367.39133,297.55606 374.6377,300.4384 381.88403,301.07834 389.13043,304.39896 396.37683,305.5628 403.62317,306.45462 410.86957,306.4926 418.11594,307.72333 425.36234,309.5695 432.6087,309.6191 439.85507,310.78757 447.10147,312.08704 454.34784,313.80695 461.5942,314.56113 468.8406,314.27823 476.08698,316.6255 483.33334,316.97906 490.57974,318.00174 497.82608,318.2226 505.07248,321.14343 512.31885,321.3043 519.5652,322.44464 526.81165,321.4834 534.058,323.81003 541.3043,324.66113 548.5508,324.72574 555.7971,325.7933 563.04346,326.17694 570.2899,326.8967 577.53625,327.0326 584.78265,327.80573 592.02905,328.45352 599.2754,328.49124 606.5217,330.3181 613.7681,330.58072 621.0145,331.74188 628.26086,331.85846 635.50726,332.08942 642.75366,333.87338 650,333.94232 " stroke="black"/>
<text alignment-baseline="middle" class="poloto_text" font-size="large" text-anchor="start" x="675" y="150">
brocc_par
</text>
<line class="poloto1stroke" x1="680" x2="730" y1="131.25" y2="131.25"/>
<polyline class="poloto1stroke" fill="none" points="150,158.93378 157.24637,169.91629 164.49275,178.91321 171.73914,193.3379 178.9855,201.45891 186.23189,189.11371 193.47826,213.0039 200.72464,219.76639 207.97101,225.99321 215.21739,231.63472 222.46378,238.61797 229.71014,244.127 236.95651,249.14197 244.20291,251.03001 251.44928,251.80254 258.69565,259.0578 265.94202,260.95905 273.18842,266.9911 280.43478,266.0146 287.68115,266.81085 294.92755,270.34946 302.17395,273.66714 309.4203,274.97974 316.6667,278.1828 323.9131,280.93457 331.15942,282.1924 338.4058,284.24667 345.6522,287.82397 352.89856,288.62042 360.14493,290.81305 367.39133,289.8048 374.6377,296.30515 381.88403,294.8699 389.13043,298.82574 396.37683,300.21503 403.62317,301.42166 410.86957,301.7627 418.11594,302.43982 425.36234,303.77686 432.6087,305.19116 439.85507,306.51996 447.10147,306.71967 454.34784,308.75214 461.5942,308.2272 468.8406,309.02682 476.08698,312.90164 483.33334,313.65823 490.57974,313.51178 497.82608,313.05685 505.07248,317.61832 512.31885,318.597 519.5652,319.49738 526.81165,319.86185 534.058,321.77478 541.3043,323.4172 548.5508,322.2413 555.7971,322.39124 563.04346,324.82477 570.2899,325.03445 577.53625,325.48502 584.78265,326.3504 592.02905,330.02444 599.2754,328.62396 606.5217,329.30725 613.7681,330.9866 621.0145,331.36688 628.26086,333.03387 635.50726,331.91638 642.75366,334.40768 650,333.09763 " stroke="black"/>
<text alignment-baseline="middle" class="poloto_text" font-size="large" text-anchor="start" x="675" y="200">
naive
</text>
<line class="poloto2stroke" x1="680" x2="730" y1="181.25" y2="181.25"/>
<polyline class="poloto2stroke" fill="none" points="150,400 157.24637,400 164.49275,400 171.73914,400 178.9855,400 186.23189,400 193.47826,400 200.72464,400 207.97101,400 215.21739,400 222.46378,400 229.71014,400 236.95651,400 244.20291,400 251.44928,400 258.69565,400 265.94202,400 273.18842,400 280.43478,400 287.68115,400 294.92755,400 302.17395,400 309.4203,400 316.6667,400 323.9131,400 331.15942,400 338.4058,400 345.6522,400 352.89856,400 360.14493,400 367.39133,400 374.6377,400 381.88403,400 389.13043,400 396.37683,400 403.62317,400 410.86957,400 418.11594,400 425.36234,400 432.6087,400 439.85507,400 447.10147,400 454.34784,400 461.5942,400 468.8406,400 476.08698,400 483.33334,400 490.57974,400 497.82608,400 505.07248,400 512.31885,400 519.5652,400 526.81165,400 534.058,400 541.3043,400 548.5508,400 555.7971,400 563.04346,400 570.2899,400 577.53625,400 584.78265,400 592.02905,400 599.2754,400 606.5217,400 613.7681,400 621.0145,400 628.26086,400 635.50726,400 642.75366,400 650,400 " stroke="black"/>
<text alignment-baseline="middle" class="poloto_text" font-size="large" text-anchor="start" x="675" y="250">
nosort
</text>
<line class="poloto3stroke" x1="680" x2="730" y1="231.25" y2="231.25"/>
<polyline class="poloto3stroke" fill="none" points="150,106.979034 157.24637,107.189514 164.49275,109.926575 171.73914,128.01038 178.9855,120.70358 186.23189,126.96588 193.47826,137.99344 200.72464,134.56552 207.97101,134.83228 215.21739,141.2782 222.46378,139.71378 229.71014,146.25151 236.95651,152.04422 244.20291,148.46469 251.44928,163.56662 258.69565,156.32237 265.94202,152.50417 273.18842,169.35387 280.43478,176.67688 287.68115,165.75809 294.92755,174.3787 302.17395,191.73685 309.4203,183.03873 316.6667,177.12056 323.9131,188.12195 331.15942,183.60355 338.4058,193.16893 345.6522,203.74417 352.89856,170.41971 360.14493,205.0558 367.39133,206.39949 374.6377,208.22661 381.88403,210.50307 389.13043,192.66469 396.37683,214.74487 403.62317,205.39447 410.86957,214.78523 418.11594,220.24727 425.36234,218.87512 432.6087,221.22377 439.85507,224.14099 447.10147,226.1898 454.34784,231.80203 461.5942,226.77032 468.8406,227.17798 476.08698,225.53642 483.33334,236.7144 490.57974,220.33249 497.82608,227.70845 505.07248,238.71274 512.31885,229.352 519.5652,232.55481 526.81165,240.42133 534.058,243.99605 541.3043,233.36569 548.5508,235.74527 555.7971,234.31747 563.04346,247.51164 570.2899,241.63219 577.53625,234.75363 584.78265,252.92848 592.02905,254.65811 599.2754,250.9812 606.5217,250.6269 613.7681,240.9219 621.0145,254.71971 628.26086,248.44708 635.50726,238.32307 642.75366,259.95212 650,258.8831 " stroke="black"/>
<text alignment-baseline="middle" class="poloto_text" font-size="large" text-anchor="start" x="675" y="300">
nosort_par
</text>
<line class="poloto4stroke" x1="680" x2="730" y1="281.25" y2="281.25"/>
<polyline class="poloto4stroke" fill="none" points="150,100.747925 157.24637,100 164.49275,103.02527 171.73914,119.78903 178.9855,114.11264 186.23189,118.545166 193.47826,128.66757 200.72464,126.30655 207.97101,125.72476 215.21739,132.79391 222.46378,130.06265 229.71014,135.81491 236.95651,143.05896 244.20291,139.6976 251.44928,153.62216 258.69565,148.55 265.94202,160.99373 273.18842,160.47809 280.43478,151.62956 287.68115,156.8839 294.92755,164.19012 302.17395,180.53358 309.4203,172.98248 316.6667,167.23558 323.9131,178.43596 331.15942,175.91774 338.4058,182.67032 345.6522,195.41637 352.89856,166.24036 360.14493,198.31895 367.39133,198.20714 374.6377,200.8935 381.88403,202.7978 389.13043,184.6244 396.37683,211.39848 403.62317,200.04118 410.86957,208.94313 418.11594,213.35553 425.36234,216.22234 432.6087,217.40436 439.85507,219.64883 447.10147,222.32286 454.34784,229.92822 461.5942,223.98967 468.8406,226.42183 476.08698,225.90273 483.33334,235.6229 490.57974,219.58548 497.82608,228.16594 505.07248,240.45882 512.31885,227.63852 519.5652,229.99814 526.81165,239.94598 534.058,245.60461 541.3043,234.092 548.5508,239.75511 555.7971,234.58537 563.04346,251.44696 570.2899,245.05959 577.53625,237.23059 584.78265,256.47137 592.02905,258.30853 599.2754,255.13724 606.5217,256.52603 613.7681,246.99538 621.0145,261.21283 628.26086,253.9485 635.50726,256.52194 642.75366,263.6397 650,267.43073 " stroke="black"/>
<text alignment-baseline="middle" class="poloto_text" font-size="large" text-anchor="start" x="675" y="350">
sweep
</text>
<line class="poloto5stroke" x1="680" x2="730" y1="331.25" y2="331.25"/>
<polyline class="poloto5stroke" fill="none" points="150,130.5368 157.24637,125.10635 164.49275,115.38428 171.73914,115.50345 178.9855,113.33359 186.23189,102.81799 193.47826,111.49573 200.72464,110.735535 207.97101,115.20178 215.21739,113.74158 222.46378,114.74585 229.71014,116.89896 236.95651,117.282104 244.20291,116.129 251.44928,122.934326 258.69565,123.60568 265.94202,127.52371 273.18842,128.97238 280.43478,131.29196 287.68115,135.38931 294.92755,138.26297 302.17395,139.14209 309.4203,139.09277 316.6667,144.18217 323.9131,146.43552 331.15942,147.7423 338.4058,150.02145 345.6522,153.47177 352.89856,153.8966 360.14493,158.09984 367.39133,159.50156 374.6377,157.2897 381.88403,162.30879 389.13043,166.46588 396.37683,168.49046 403.62317,171.09343 410.86957,172.21362 418.11594,174.88737 425.36234,176.6072 432.6087,178.4004 439.85507,180.36873 447.10147,181.71208 454.34784,184.35785 461.5942,185.35283 468.8406,187.03934 476.08698,189.90244 483.33334,190.2917 490.57974,192.77177 497.82608,193.26178 505.07248,196.42876 512.31885,199.21103 519.5652,199.80852 526.81165,202.44705 534.058,203.03333 541.3043,205.86627 548.5508,206.36581 555.7971,208.09453 563.04346,208.4424 570.2899,211.28531 577.53625,210.91013 584.78265,212.80234 592.02905,214.84003 599.2754,216.7405 606.5217,217.51266 613.7681,219.98967 621.0145,221.41927 628.26086,221.55847 635.50726,222.09004 642.75366,224.24509 650,224.94951 " stroke="black"/>
<text alignment-baseline="start" class="poloto_text" font-size="x-large" text-anchor="middle" x="400" y="37.5">
Bench of space partitioning algs with abspiral(3000,grow)
</text>
<text alignment-baseline="start" class="poloto_text" font-size="large" text-anchor="middle" x="400" y="481.25">
Grow
</text>
<text alignment-baseline="start" class="poloto_text" font-size="large" text-anchor="middle" transform="rotate(-90,37.5,250)" x="37.5" y="250">
Time in Seconds
</text>
<path class="poloto_axis_lines" d="M150,100 L150,400 L650,400" stroke="black"/>
</svg>