<svg class="poloto" width="800" height="500" viewBox="0 0 800 500" xmlns="http://www.w3.org/2000/svg" ><rect class="poloto_background" fill="white" x="0" y="0" width="800" height="500" /><style><style>.poloto {
            font-family: "Arial";
            stroke-width:2;
            }
            .poloto_text{fill: var(--poloto_fg_color,black);  }
            .poloto_axis_lines{stroke: var(--poloto_fg_color,black);stoke-width:3;fill:none}
            .poloto_background{fill: var(--poloto_bg_color,aliceblue); }
            .poloto0stroke{stroke:  var(--poloto_color0,blue); }
            .poloto1stroke{stroke:  var(--poloto_color1,red); }
            .poloto2stroke{stroke:  var(--poloto_color2,green); }
            .poloto3stroke{stroke:  var(--poloto_color3,gold); }
            .poloto4stroke{stroke:  var(--poloto_color4,aqua); }
            .poloto5stroke{stroke:  var(--poloto_color5,brown); }
            .poloto6stroke{stroke:  var(--poloto_color6,lime); }
            .poloto7stroke{stroke:  var(--poloto_color7,chocolate); }
            .poloto0fill{fill:var(--poloto_color0,blue);}
            .poloto1fill{fill:var(--poloto_color1,red);}
            .poloto2fill{fill:var(--poloto_color2,green);}
            .poloto3fill{fill:var(--poloto_color3,gold);}
            .poloto4fill{fill:var(--poloto_color4,aqua);}
            .poloto5fill{fill:var(--poloto_color5,brown);}
            .poloto6fill{fill:var(--poloto_color6,lime);}
            .poloto7fill{fill:var(--poloto_color7,chocolate);}</style></style><line class="poloto_axis_lines" stroke="black" x1="189.87240829346092" x2="189.87240829346092" y1="400" y2="405" /><text class="poloto_text" alignment-baseline="start" text-anchor="middle" x="189.87240829346092" y="430" >0.5</text><line class="poloto_axis_lines" stroke="black" x1="256.3264221158958" x2="256.3264221158958" y1="400" y2="405" /><text class="poloto_text" alignment-baseline="start" text-anchor="middle" x="256.3264221158958" y="430" >1.0</text><line class="poloto_axis_lines" stroke="black" x1="322.7804359383307" x2="322.7804359383307" y1="400" y2="405" /><text class="poloto_text" alignment-baseline="start" text-anchor="middle" x="322.7804359383307" y="430" >1.5</text><line class="poloto_axis_lines" stroke="black" x1="389.23444976076553" x2="389.23444976076553" y1="400" y2="405" /><text class="poloto_text" alignment-baseline="start" text-anchor="middle" x="389.23444976076553" y="430" >2.0</text><line class="poloto_axis_lines" stroke="black" x1="455.6884635832004" x2="455.6884635832004" y1="400" y2="405" /><text class="poloto_text" alignment-baseline="start" text-anchor="middle" x="455.6884635832004" y="430" >2.5</text><line class="poloto_axis_lines" stroke="black" x1="522.1424774056352" x2="522.1424774056352" y1="400" y2="405" /><text class="poloto_text" alignment-baseline="start" text-anchor="middle" x="522.1424774056352" y="430" >3.0</text><line class="poloto_axis_lines" stroke="black" x1="588.5964912280701" x2="588.5964912280701" y1="400" y2="405" /><text class="poloto_text" alignment-baseline="start" text-anchor="middle" x="588.5964912280701" y="430" >3.5</text><line class="poloto_axis_lines" stroke="black" x1="150" x2="144" y1="400" y2="400" /><text class="poloto_text" alignment-baseline="middle" text-anchor="end" x="135" y="400" >0</text><line class="poloto_axis_lines" stroke="black" x1="150" x2="144" y1="365.2252937303523" y2="365.2252937303523" /><text class="poloto_text" alignment-baseline="middle" text-anchor="end" x="135" y="365.2252937303523" >1e5</text><line class="poloto_axis_lines" stroke="black" x1="150" x2="144" y1="330.4505874607046" y2="330.4505874607046" /><text class="poloto_text" alignment-baseline="middle" text-anchor="end" x="135" y="330.4505874607046" >2.0e5</text><line class="poloto_axis_lines" stroke="black" x1="150" x2="144" y1="295.6758811910569" y2="295.6758811910569" /><text class="poloto_text" alignment-baseline="middle" text-anchor="end" x="135" y="295.6758811910569" >3.0e5</text><line class="poloto_axis_lines" stroke="black" x1="150" x2="144" y1="260.90117492140917" y2="260.90117492140917" /><text class="poloto_text" alignment-baseline="middle" text-anchor="end" x="135" y="260.90117492140917" >4.0e5</text><line class="poloto_axis_lines" stroke="black" x1="150" x2="144" y1="226.12646865176146" y2="226.12646865176146" /><text class="poloto_text" alignment-baseline="middle" text-anchor="end" x="135" y="226.12646865176146" >5.0e5</text><line class="poloto_axis_lines" stroke="black" x1="150" x2="144" y1="191.35176238211375" y2="191.35176238211375" /><text class="poloto_text" alignment-baseline="middle" text-anchor="end" x="135" y="191.35176238211375" >6.0e5</text><line class="poloto_axis_lines" stroke="black" x1="150" x2="144" y1="156.57705611246604" y2="156.57705611246604" /><text class="poloto_text" alignment-baseline="middle" text-anchor="end" x="135" y="156.57705611246604" >7.0e5</text><line class="poloto_axis_lines" stroke="black" x1="150" x2="144" y1="121.80234984281833" y2="121.80234984281833" /><text class="poloto_text" alignment-baseline="middle" text-anchor="end" x="135" y="121.80234984281833" >8.0e5</text><text class="poloto_text" alignment-baseline="middle" text-anchor="start" font-size="large" x="675" y="100" >broccoli</text><line class="poloto0stroke" stroke="black" x1="680" x2="730" y1="81.25" y2="81.25" /><polyline class="poloto0stroke" fill="none" stroke="black"  points="150,304.5010061481681 155.05050505050505,311.27303244711925 160.1010101010101,315.6713372961043 165.15151515151516,320.59369696857294 170.2020202020202,323.1722414384673 175.25252525252526,326.62780400048223 180.3030303030303,327.8709997496221 185.35353535353536,330.57090794439756 190.40404040404042,332.34928642302737 195.45454545454547,333.4773778944147 200.50505050505052,335.1055296419596 205.55555555555554,335.7745949905876 210.6060606060606,336.5959735526767 215.65656565656565,338.19178482339083 220.70707070707073,337.6465174290828 225.75757575757575,338.559353468661 230.80808080808083,340.8503111177054 235.85858585858585,341.0130567430474 240.9090909090909,341.26447786937695 245.95959595959596,340.9581127071413 251.010101010101,342.5028051596391 256.06060606060606,341.15424205050215 261.1111111111111,343.10718955460555 266.16161616161617,342.48507005944157 271.2121212121212,343.27897660357763 276.26262626262627,345.09943247679365 281.3131313131313,343.07867429546445 286.3636363636364,345.2260124076152 291.41414141414145,344.6546639836049 296.4646464646464,344.66613963667385 301.5151515151515,344.1772072665226 306.5656565656566,344.61084785370514 311.6161616161616,345.9138560976288 316.66666666666663,345.92115878594547 321.7171717171717,345.8683012324156 326.7676767676768,346.8419930079657 331.8181818181818,347.33683707818284 336.86868686868684,349.36455020076596 341.9191919191919,347.6146869812773 346.969696969697,349.1896334282296 352.020202020202,347.92522510826524 357.07070707070704,348.72747758190604 362.1212121212121,348.2966189712251 367.17171717171715,348.0848410100429 372.2222222222222,349.36698443020487 377.27272727272725,347.6578076170517 382.32323232323233,350.12090006213083 387.3737373737374,349.7046468280831 392.42424242424244,347.3650045902612 397.47474747474746,350.44013186568617 402.52525252525254,349.80757995864127 407.57575757575756,349.6778703042555 412.62626262626264,350.5340235726142 417.67676767676767,351.23299516863415 422.72727272727275,350.3917950239714 427.77777777777777,350.17758283335036 432.82828282828285,350.60392073221624 437.8787878787879,349.68378200432136 442.9292929292929,349.9658048721682 447.979797979798,350.0130984726949 453.030303030303,351.1550998265901 458.0808080808081,349.73281434016155 463.1313131313131,351.3199319343083 468.1818181818182,349.1986748518598 473.2323232323232,352.36908482246355 478.28282828282823,350.4088346300435 483.3333333333333,350.8431707113514 488.38383838383834,350.0614353144097 493.4343434343434,349.8865185418734 498.48484848484844,352.47514767658595 503.5353535353535,351.16900970909796 508.58585858585855,350.85847158211004 513.6363636363636,351.6374250025501 518.6868686868687,351.5723963018259 523.7373737373737,351.1060674907499 528.7878787878788,353.5493383532554 533.8383838383838,351.576917013641 538.8888888888889,350.9217615475208 543.939393939394,351.73409868597975 548.989898989899,352.6462392314326 554.040404040404,350.15741350371394 559.090909090909,353.2214128731326 564.1414141414141,351.643336702616 569.1919191919192,352.94947467010394 574.2424242424242,351.0945918376809 579.2929292929293,352.0348998952122 584.3434343434343,352.9178296873986 589.3939393939394,352.73387149123215 594.4444444444443,352.0665448779176 599.4949494949494,351.46250823001384 604.5454545454545,353.27774789728943 609.5959595959596,351.62177638472883 614.6464646464647,351.2542077394586 619.6969696969697,353.82823149753796 624.7474747474748,353.1456040134648 629.7979797979798,352.5513042833165 634.8484848484848,351.83459758709904 639.8989898989898,352.58260151895917 644.9494949494949,353.0134601296401 650,354.1019084358801 "/><text class="poloto_text" alignment-baseline="middle" text-anchor="start" font-size="large" x="675" y="150" >naive</text><line class="poloto1stroke" stroke="black" x1="680" x2="730" y1="131.25" y2="131.25" /><polyline class="poloto1stroke" fill="none" stroke="black"  points="150,400 155.05050505050505,400 160.1010101010101,400 165.15151515151516,400 170.2020202020202,400 175.25252525252526,400 180.3030303030303,400 185.35353535353536,400 190.40404040404042,400 195.45454545454547,400 200.50505050505052,400 205.55555555555554,400 210.6060606060606,400 215.65656565656565,400 220.70707070707073,400 225.75757575757575,400 230.80808080808083,400 235.85858585858585,400 240.9090909090909,400 245.95959595959596,400 251.010101010101,400 256.06060606060606,400 261.1111111111111,400 266.16161616161617,400 271.2121212121212,400 276.26262626262627,400 281.3131313131313,400 286.3636363636364,400 291.41414141414145,400 296.4646464646464,400 301.5151515151515,400 306.5656565656566,400 311.6161616161616,400 316.66666666666663,400 321.7171717171717,400 326.7676767676768,400 331.8181818181818,400 336.86868686868684,400 341.9191919191919,400 346.969696969697,400 352.020202020202,400 357.07070707070704,400 362.1212121212121,400 367.17171717171715,400 372.2222222222222,400 377.27272727272725,400 382.32323232323233,400 387.3737373737374,400 392.42424242424244,400 397.47474747474746,400 402.52525252525254,400 407.57575757575756,400 412.62626262626264,400 417.67676767676767,400 422.72727272727275,400 427.77777777777777,400 432.82828282828285,400 437.8787878787879,400 442.9292929292929,400 447.979797979798,400 453.030303030303,400 458.0808080808081,400 463.1313131313131,400 468.1818181818182,400 473.2323232323232,400 478.28282828282823,400 483.3333333333333,400 488.38383838383834,400 493.4343434343434,400 498.48484848484844,400 503.5353535353535,400 508.58585858585855,400 513.6363636363636,400 518.6868686868687,400 523.7373737373737,400 528.7878787878788,400 533.8383838383838,400 538.8888888888889,400 543.939393939394,400 548.989898989899,400 554.040404040404,400 559.090909090909,400 564.1414141414141,400 569.1919191919192,400 574.2424242424242,400 579.2929292929293,400 584.3434343434343,400 589.3939393939394,400 594.4444444444443,400 599.4949494949494,400 604.5454545454545,400 609.5959595959596,400 614.6464646464647,400 619.6969696969697,400 624.7474747474748,400 629.7979797979798,400 634.8484848484848,400 639.8989898989898,400 644.9494949494949,400 650,400 "/><text class="poloto_text" alignment-baseline="middle" text-anchor="start" font-size="large" x="675" y="200" >nosort</text><line class="poloto2stroke" stroke="black" x1="680" x2="730" y1="181.25" y2="181.25" /><polyline class="poloto2stroke" fill="none" stroke="black"  points="150,112.57592477535536 155.05050505050505,139.69463171267745 160.1010101010101,144.04668620232385 165.15151515151516,158.1874727598134 170.2020202020202,169.9260226081957 175.25252525252526,187.99217800940306 180.3030303030303,185.2439329729128 185.35353535353536,194.08748852434692 190.40404040404042,204.1589389541623 195.45454545454547,206.59282064597494 200.50505050505052,212.3998488459434 205.55555555555554,214.14588684774242 210.6060606060606,216.06510288676427 215.65656565656565,226.53889666811946 220.70707070707073,222.28734107959235 225.75757575757575,223.71066980720903 230.80808080808083,230.3453360163951 235.85858585858585,237.2269026400957 240.9090909090909,232.94683179242745 245.95959595959596,233.5828611700993 251.010101010101,238.62275934975935 256.06060606060606,236.78074315865612 261.1111111111111,242.3293952910411 266.16161616161617,243.5548559399835 271.2121212121212,246.37821434201618 276.26262626262627,246.0892365329154 281.3131313131313,247.73234140415627 286.3636363636364,254.75578882943702 291.41414141414145,251.0738429296067 296.4646464646464,253.48651205059488 301.5151515151515,252.77084859556552 306.5656565656566,254.0745523336146 311.6161616161616,256.0824438736241 316.66666666666663,258.92562385823044 321.7171717171717,256.800889305155 326.7676767676768,262.28833795450544 331.8181818181818,258.9590075762493 336.86868686868684,265.3092166881497 341.9191919191919,264.0267255209251 346.969696969697,263.23247122972634 352.020202020202,266.0499179316932 357.07070707070704,265.00911097304265 362.1212121212121,262.365537802424 367.17171717171715,269.3187403210401 372.2222222222222,269.5729434238712 377.27272727272725,269.38376902176435 382.32323232323233,270.58349638806715 387.3737373737374,271.3259363669241 392.42424242424244,266.99891966579185 397.47474747474746,272.4682854678821 402.52525252525254,270.7368528427163 407.57575757575756,269.4832246816955 412.62626262626264,273.48683661452003 417.67676767676767,275.29894655823136 422.72727272727275,274.0369724677059 427.77777777777777,276.60612776690743 432.82828282828285,278.51421589992304 437.8787878787879,274.38054656565 442.9292929292929,276.9284892940271 447.979797979798,274.435490601556 453.030303030303,277.6650175728182 458.0808080808081,276.138060220518 463.1313131313131,279.9959661340727 468.1818181818182,275.95479751847694 473.2323232323232,278.5782013594592 478.28282828282823,278.7451199495535 483.3333333333333,280.0182219460853 488.38383838383834,276.32932110500104 493.4343434343434,282.713261681983 498.48484848484844,281.2795005424854 503.5353535353535,282.44514869664397 508.58585858585855,281.6324638111223 513.6363636363636,282.4322820553242 518.6868686868687,279.5039040403572 523.7373737373737,283.82048832960857 528.7878787878788,286.73252223262887 533.8383838383838,283.3746765952317 538.8888888888889,284.92910596548495 543.939393939394,283.6379211216929 548.989898989899,285.34292497009375 554.040404040404,281.09867206988326 559.090909090909,285.5553984254013 564.1414141414141,284.79661433459756 569.1919191919192,286.81180856292366 574.2424242424242,282.61867448092954 579.2929292929293,286.63654404332465 584.3434343434343,287.02428201823125 589.3939393939394,285.4065626825672 594.4444444444443,287.25588156198705 599.4949494949494,285.42047256507504 604.5454545454545,287.64361953689365 609.5959595959596,285.97304264769974 614.6464646464647,286.679664679099 619.6969696969697,288.32068306796367 624.7474747474748,289.5252788931443 629.7979797979798,284.93779964205237 634.8484848484848,286.1093594962768 639.8989898989898,288.4281369103369 644.9494949494949,291.31652401309384 650,291.42675983196864 "/><text class="poloto_text" alignment-baseline="middle" text-anchor="start" font-size="large" x="675" y="250" >sweep</text><line class="poloto3stroke" stroke="black" x1="680" x2="730" y1="231.25" y2="231.25" /><polyline class="poloto3stroke" fill="none" stroke="black"  points="150,100 155.05050505050505,124.96163190741584 160.1010101010101,143.27121025251074 165.15151515151516,158.63641421775455 170.2020202020202,171.82785129408273 175.25252525252526,183.71002067935865 180.3030303030303,191.87442621734655 185.35353535353536,200.51698396654209 190.40404040404042,207.38742268423638 195.45454545454547,213.55054387640604 200.50505050505052,220.04332928401197 205.55555555555554,225.44314567356287 210.6060606060606,230.71325240872798 215.65656565656565,233.97546760388363 220.70707070707073,238.13104500310652 225.75757575757575,241.9235744688743 230.80808080808083,245.10928531023674 235.85858585858585,248.82183295158433 240.9090909090909,251.79298385526303 245.95959595959596,254.40769401967785 251.010101010101,257.6998154622254 256.06060606060606,259.4437669816482 261.1111111111111,261.9179873327337 266.16161616161617,264.2259845878502 271.2121212121212,266.96379721245955 276.26262626262627,268.073458089524 281.3131313131313,270.4447453100513 286.3636363636364,271.9626612387214 291.41414141414145,273.7785964001224 296.4646464646464,275.34971762938505 301.5151515151515,276.6019548021551 306.5656565656566,278.14525626640204 311.6161616161616,280.1562775299758 316.66666666666663,280.60591448204235 321.7171717171717,283.08361230375476 326.7676767676768,284.9329311831746 331.8181818181818,286.0951018667062 336.86868686868684,287.52190806494986 341.9191919191919,288.58323210029954 346.969696969697,290.4301167502805 352.020202020202,289.54579596984337 357.07070707070704,291.7119124233797 362.1212121212121,291.578725298367 367.17171717171715,293.7733570110444 372.2222222222222,295.3076170516613 377.27272727272725,294.8287693463283 382.32323232323233,296.6641783432402 387.3737373737374,297.952233463468 392.42424242424244,297.93519385739586 397.47474747474746,298.9495720392815 402.52525252525254,300.0842707048601 407.57575757575756,300.549556274748 412.62626262626264,301.31529530680564 417.67676767676767,302.5713576972653 422.72727272727275,302.5790081326446 427.77777777777777,304.06249710210784 432.82828282828285,304.0951853260013 437.8787878787879,305.56963287183436 442.9292929292929,305.2768298450439 447.979797979798,306.7731854558268 453.030303030303,306.39275016923693 458.0808080808081,307.5448361879503 463.1313131313131,307.32610328551425 468.1818181818182,307.85676530318904 473.2323232323232,309.05301519886495 478.28282828282823,309.27800754842957 483.3333333333333,309.81179928966867 488.38383838383834,310.4815601324221 493.4343434343434,311.3491890538498 498.48484848484844,311.7939575470386 503.5353535353535,312.887622059219 508.58585858585855,312.6330712093252 513.6363636363636,313.0948793085861 518.6868686868687,314.2309689624155 523.7373737373737,314.1854140972023 528.7878787878788,315.4498224171666 533.8383838383838,315.4046152990161 538.8888888888889,314.9400252232536 543.939393939394,315.908848539926 548.989898989899,316.2416424789265 554.040404040404,316.27433070282 559.090909090909,317.775207025418 564.1414141414141,318.0182822222428 569.1919191919192,317.3040097554643 574.2424242424242,318.20571788903624 579.2929292929293,318.8671328022849 584.3434343434343,319.214184370856 589.3939393939394,319.6572141287313 594.4444444444443,320.4758107143188 599.4949494949494,320.2299535409924 604.5454545454545,320.78913081780837 609.5959595959596,321.22624887561784 614.6464646464647,321.08680230347653 619.6969696969697,321.6153778387752 624.7474747474748,322.223935198494 629.7979797979798,322.8050205402598 634.8484848484848,322.1877695039736 639.8989898989898,322.0872706028543 644.9494949494949,323.06548309021946 650,323.9011192818791 "/><text class="poloto_text" alignment-baseline="start" text-anchor="middle" font-size="x-large" x="400" y="37.5" >Complexity of space partitioning algs with abspiral(3000,grow)</text><text class="poloto_text" alignment-baseline="start" text-anchor="middle" font-size="x-large" x="400" y="481.25" >Grow</text><text class="poloto_text" alignment-baseline="start" text-anchor="middle" font-size="x-large" transform="rotate(-90,37.5,250)" x="37.5" y="250" >Number of Comparisons</text><path stroke="black" fill="none" class="poloto_axis_lines"  d="M 150 100 L 150 400 L 650 400 "/></svg>