<svg class="poloto" width="800" height="500" viewBox="0 0 800 500" xmlns="http://www.w3.org/2000/svg"><style>.poloto {
                    font-family: "Arial";
                    stroke-width:2;
                    }
                    .poloto_text{fill: var(--poloto_fg_color,black);  }
                    .poloto_axis_lines{stroke: var(--poloto_fg_color,black);stoke-width:3;fill:none}
                    .poloto_background{fill: var(--poloto_bg_color,aliceblue); }
                    .poloto0stroke{stroke:  var(--poloto_color0,blue); }
                    .poloto1stroke{stroke:  var(--poloto_color1,red); }
                    .poloto2stroke{stroke:  var(--poloto_color2,green); }
                    .poloto3stroke{stroke:  var(--poloto_color3,gold); }
                    .poloto4stroke{stroke:  var(--poloto_color4,aqua); }
                    .poloto5stroke{stroke:  var(--poloto_color5,brown); }
                    .poloto6stroke{stroke:  var(--poloto_color6,lime); }
                    .poloto7stroke{stroke:  var(--poloto_color7,chocolate); }
                    .poloto0fill{fill:var(--poloto_color0,blue);}
                    .poloto1fill{fill:var(--poloto_color1,red);}
                    .poloto2fill{fill:var(--poloto_color2,green);}
                    .poloto3fill{fill:var(--poloto_color3,gold);}
                    .poloto4fill{fill:var(--poloto_color4,aqua);}
                    .poloto5fill{fill:var(--poloto_color5,brown);}
                    .poloto6fill{fill:var(--poloto_color6,lime);}
                    .poloto7fill{fill:var(--poloto_color7,chocolate);}</style><rect class="poloto_background" fill="white" x="0" y="0" width="800" height="500"/><line class="poloto_axis_lines" stroke="black" x1="234.17508417508418" x2="234.17508417508418" y1="400" y2="405"/><text class="poloto_text" alignment-baseline="start" text-anchor="middle" x="234.17508417508418" y="430">0.05</text><line class="poloto_axis_lines" stroke="black" x1="374.46689113355774" x2="374.46689113355774" y1="400" y2="405"/><text class="poloto_text" alignment-baseline="start" text-anchor="middle" x="374.46689113355774" y="430">0.10</text><line class="poloto_axis_lines" stroke="black" x1="514.7586980920314" x2="514.7586980920314" y1="400" y2="405"/><text class="poloto_text" alignment-baseline="start" text-anchor="middle" x="514.7586980920314" y="430">0.15</text><line class="poloto_axis_lines" stroke="black" x1="150" x2="144" y1="326.91119599922865" y2="326.91119599922865"/><text class="poloto_text" alignment-baseline="middle" text-anchor="end" x="135" y="326.91119599922865">0.010</text><line class="poloto_axis_lines" stroke="black" x1="150" x2="144" y1="246.02085870593578" y2="246.02085870593578"/><text class="poloto_text" alignment-baseline="middle" text-anchor="end" x="135" y="246.02085870593578">0.015</text><line class="poloto_axis_lines" stroke="black" x1="150" x2="144" y1="165.13052141264302" y2="165.13052141264302"/><text class="poloto_text" alignment-baseline="middle" text-anchor="end" x="135" y="165.13052141264302">0.020</text><text class="poloto_text" alignment-baseline="middle" text-anchor="start" font-size="large" x="675" y="100">brocc</text><line class="poloto0stroke" stroke="black" x1="680" x2="730" y1="81.25" y2="81.25"/><polyline class="poloto0stroke" fill="none" stroke="black" points="150,232.00361482739297 155.05050505050505,232.0616779115021 160.1010101010101,232.64729159737064 165.15151515151516,231.43016704825337 170.2020202020202,232.07932818309948 175.25252525252526,232.239976392964 180.3030303030303,232.08987628308253 185.35353535353536,232.31221146416686 190.4040404040404,232.22873263608025 195.45454545454544,232.25450429754184 200.50505050505052,232.2064230810547 205.55555555555554,230.86259190760123 210.6060606060606,231.81834359885642 215.65656565656565,231.1735990764265 220.70707070707073,230.17146486576735 225.75757575757575,229.04370796129174 230.8080808080808,227.74844334634915 235.85858585858585,225.05557166172048 240.90909090909088,225.26334658209208 245.95959595959593,223.7009173611372 251.010101010101,221.73665730064417 256.06060606060606,220.6242533821868 261.1111111111111,219.93429116120993 266.16161616161617,219.984168143185 271.2121212121212,219.72041710940644 276.2626262626262,219.27802785474947 281.3131313131313,220.8383539269347 286.3636363636364,220.59830376198312 291.4141414141414,222.26461235409005 296.4646464646464,223.8087280026817 301.5151515151515,228.1076611562012 306.5656565656566,232.50811168302377 311.61616161616155,235.4658506880856 316.66666666666663,241.08630546003306 321.7171717171717,245.38054697398954 326.76767676767673,251.926516629112 331.8181818181818,255.86631286311675 336.86868686868684,261.6551327831065 341.9191919191919,267.6458226288454 346.969696969697,270.3492262353896 352.020202020202,275.8436376837667 357.07070707070704,280.1479095995476 362.1212121212121,283.5972515404756 367.1717171717172,288.78730500575296 372.2222222222222,291.87249482625407 377.27272727272725,295.4405999603961 382.32323232323233,299.0669137812544 387.37373737373736,300.4974593962863 392.4242424242424,305.5964626979063 397.47474747474746,309.38489693276784 402.52525252525254,311.6833311546869 407.57575757575756,315.56470838709845 412.6262626262626,318.9352307833679 417.67676767676767,321.4971895461211 422.7272727272727,324.3780503746193 427.77777777777777,326.8487648369057 432.82828282828285,329.3081708300384 437.8787878787879,332.07308344906045 442.9292929292929,334.7702261434982 447.9797979797979,336.4963935852021 453.030303030303,339.2403394287977 458.080808080808,339.8050348734422 463.13131313131305,343.66808235542305 468.1818181818182,345.71004567392004 473.2323232323232,348.04070660621676 478.28282828282823,349.78874679512484 483.3333333333333,351.3576148869282 488.38383838383834,352.65357515877156 493.43434343434336,355.0200381543543 498.4848484848484,356.9716469660947 503.53535353535347,358.57867911903304 508.5858585858586,361.029381311873 513.6363636363636,361.94264939798177 518.6868686868686,363.8269412710266 523.7373737373737,365.46472793020394 528.7878787878788,365.779925218501 533.8383838383838,368.04216910351505 538.8888888888889,370.0431371990718 543.939393939394,371.5902781462782 548.989898989899,372.441115070064 554.040404040404,374.76447969393683 559.090909090909,376.0463003348213 564.1414141414141,376.3501406197623 569.1919191919192,378.9392138235762 574.2424242424242,380.4815660628149 579.2929292929293,381.9146516344378 584.3434343434344,383.29061244986417 589.3939393939394,379.12055378172033 594.4444444444443,385.5878494947913 599.4949494949494,386.97274060345484 604.5454545454545,389.15972411865124 609.5959595959596,390.75857016945554 614.6464646464647,392.30055031314265 619.6969696969697,393.38637366676545 624.7474747474747,394.36223469587173 629.7979797979797,395.3409915990531 634.8484848484848,395.92442124581476 639.8989898989898,396.89780703059984 644.9494949494949,397.7815501435965 650,399.0262582977308 "/><text class="poloto_text" alignment-baseline="middle" text-anchor="start" font-size="large" x="675" y="150">brocc_par</text><line class="poloto1stroke" stroke="black" x1="680" x2="730" y1="131.25" y2="131.25"/><polyline class="poloto1stroke" fill="none" stroke="black" points="150,229.4063716995125 155.05050505050505,230.06320123833402 160.1010101010101,230.11165455037266 165.15151515151516,228.62600643757665 170.2020202020202,229.71451535039753 175.25252525252526,231.2540687839659 180.3030303030303,229.59183706485854 185.35353535353536,229.78914477558433 190.4040404040404,229.2250479194358 195.45454545454544,229.701411115756 200.50505050505052,229.64425400342458 205.55555555555554,228.7625493269277 210.6060606060606,229.35469895204952 215.65656565656565,228.15624389277954 220.70707070707073,227.7932242370747 225.75757575757575,226.79725387011732 230.8080808080808,225.0130395223717 235.85858585858585,223.18265297009907 240.90909090909088,221.78991549871805 245.95959595959593,220.1826730309027 251.010101010101,217.8044000460752 256.06060606060606,216.30087516873726 261.1111111111111,215.5914669106751 266.16161616161617,214.93654638381366 271.2121212121212,213.9454617932288 276.2626262626262,213.50096938980215 281.3131313131313,213.8690527806215 286.3636363636364,214.00303953531414 291.4141414141414,214.9828641909478 296.4646464646464,217.12579482845427 301.5151515151515,219.61302709761588 306.5656565656566,224.9940141150403 311.61616161616155,229.50344010426443 316.66666666666663,234.8417655578004 321.7171717171717,239.12180272852817 326.76767676767673,244.2269051615801 331.8181818181818,249.4849065101838 336.86868686868684,254.43196540223207 341.9191919191919,259.1124259206291 346.969696969697,264.5981497467809 352.020202020202,268.4729586838042 357.07070707070704,273.27546654310936 362.1212121212121,277.69761185839405 367.1717171717172,282.31355424376596 372.2222222222222,286.2817591642281 377.27272727272725,290.76214552236394 382.32323232323233,292.7630165495159 387.37373737373736,296.3840563203827 392.4242424242424,300.4761043472409 397.47474747474746,304.59240329721956 402.52525252525254,307.4236298147547 407.57575757575756,310.81241724918493 412.6262626262626,313.8477786219134 417.67676767676767,315.5920816772385 422.7272727272727,318.5034381628963 427.77777777777777,320.75759301418105 432.82828282828285,322.81688304292624 437.8787878787879,325.38893691977364 442.9292929292929,326.9467392134353 447.9797979797979,328.33577190736827 453.030303030303,329.7627259914243 458.080808080808,332.0101669447138 463.13131313131305,334.24134894020716 468.1818181818182,335.9649278911177 473.2323232323232,338.38646102832973 478.28282828282823,340.0388564824222 483.3333333333333,343.57722632857525 488.38383838383834,346.13167846802764 493.43434343434336,347.7438067122155 498.4848484848484,350.4587938150601 503.53535353535347,351.93670881161097 508.5858585858586,355.13635845938205 513.6363636363636,357.3793504441203 518.6868686868686,359.09437119734525 523.7373737373737,361.8211197552323 528.7878787878788,361.775254933987 533.8383838383838,364.47687895311077 538.8888888888889,365.0654046911219 543.939393939394,366.18230611233275 548.989898989899,368.5735053730598 554.040404040404,369.2873464216056 559.090909090909,370.95341234270063 564.1414141414141,372.53844232389525 569.1919191919192,373.2454238718386 574.2424242424242,375.1489514670919 579.2929292929293,377.90236148015083 584.3434343434344,379.5686862503252 589.3939393939394,380.68663924592084 594.4444444444443,381.8628656405026 599.4949494949494,384.7772150686403 604.5454545454545,387.5196401738948 609.5959595959596,389.85534866323866 614.6464646464647,391.65200394486 619.6969696969697,393.8965328460068 624.7474747474747,395.1142721616875 629.7979797979797,396.3108020309299 634.8484848484848,397.261473809003 639.8989898989898,397.88280866782026 644.9494949494949,398.61193799011454 650,400 "/><text class="poloto_text" alignment-baseline="middle" text-anchor="start" font-size="large" x="675" y="200">naive</text><line class="poloto2stroke" stroke="black" x1="680" x2="730" y1="181.25" y2="181.25"/><polyline class="poloto2stroke" fill="none" stroke="black" points="150,231.24182198689968 155.05050505050505,231.25070374593446 160.1010101010101,231.1514189459407 165.15151515151516,231.38934978405516 170.2020202020202,231.18163957595343 175.25252525252526,230.79608387227873 180.3030303030303,231.0000893029324 185.35353535353536,231.48884489892592 190.4040404040404,231.47646867732004 195.45454545454544,231.48334435599 200.50505050505052,231.3434687847424 205.55555555555554,230.330673227628 210.6060606060606,229.7027538953551 215.65656565656565,227.87709133878042 220.70707070707073,226.2778570143571 225.75757575757575,224.7872422348512 230.8080808080808,223.16299661813682 235.85858585858585,221.8759181053283 240.90909090909088,220.27568074072252 245.95959595959593,218.96304088132936 251.010101010101,217.64260319342108 256.06060606060606,216.54712153352548 261.1111111111111,214.90875246391968 266.16161616161617,214.07347884102919 271.2121212121212,213.26061184156887 276.2626262626262,212.71636547419212 281.3131313131313,211.74443571547832 286.3636363636364,212.26286188719098 291.4141414141414,212.06493940990177 296.4646464646464,212.10324907364387 301.5151515151515,212.75611498593807 306.5656565656566,213.1373349675339 311.61616161616155,212.72442215178654 316.66666666666663,213.35837590322154 321.7171717171717,214.46610436018332 326.76767676767673,215.28468221745655 331.8181818181818,216.01617353759977 336.86868686868684,215.14702304145084 341.9191919191919,218.67442415786687 346.969696969697,220.42089507423145 352.020202020202,211.77468870162596 357.07070707070704,218.40332828146214 362.1212121212121,223.24141171110892 367.1717171717172,220.93060126758397 372.2222222222222,225.34522378150035 377.27272727272725,219.73405522027412 382.32323232323233,226.05196265843182 387.37373737373736,227.23800913996098 392.4242424242424,221.41045892647523 397.47474747474746,228.14483835522117 402.52525252525254,228.49381544837192 407.57575757575756,226.14163768635518 412.6262626262626,226.89954779065837 417.67676767676767,226.49043682076385 422.7272727272727,229.73227886846718 427.77777777777777,228.00700122047343 432.82828282828285,223.1634172478907 437.8787878787879,224.92650303953533 442.9292929292929,229.07421979651878 447.9797979797979,229.89669656804952 453.030303030303,230.49976638870592 458.080808080808,229.7756684453913 463.13131313131305,227.2473277068172 468.1818181818182,224.55793430669218 473.2323232323232,227.04362965944526 478.28282828282823,228.51295410217548 483.3333333333333,226.40158687428092 488.38383838383834,227.6860445401611 493.43434343434336,226.24480522253907 498.4848484848484,222.13832635950777 503.53535353535347,225.00579174815024 508.5858585858586,222.28410692537773 513.6363636363636,226.24551705750721 518.6868686868686,225.5218073878116 523.7373737373737,223.9597017282059 528.7878787878788,224.42063104817052 533.8383838383838,228.02887396767753 538.8888888888889,225.84200369895333 543.939393939394,226.80021445646224 548.989898989899,225.11683800318644 554.040404040404,227.41765040102194 559.090909090909,226.36272715624517 564.1414141414141,229.93851687243014 569.1919191919192,229.23570926589107 574.2424242424242,230.31307149023297 579.2929292929293,226.5287626625734 584.3434343434344,229.9320294673792 589.3939393939394,173.2303944471696 594.4444444444443,228.82926767712723 599.4949494949494,231.02480939000924 604.5454545454545,229.50266355702644 609.5959595959596,232.24245163728514 614.6464646464647,233.13038486975364 619.6969696969697,231.18296617748507 624.7474747474747,232.5922376338088 629.7979797979797,234.2010655522351 634.8484848484848,233.2082660864996 639.8989898989898,234.76710377647865 644.9494949494949,234.5113932422271 650,233.59969442866188 "/><text class="poloto_text" alignment-baseline="middle" text-anchor="start" font-size="large" x="675" y="250">nosort</text><line class="poloto3stroke" stroke="black" x1="680" x2="730" y1="231.25" y2="231.25"/><polyline class="poloto3stroke" fill="none" stroke="black" points="150,225.68129077681903 155.05050505050505,225.7150058694029 160.1010101010101,224.19130694194408 165.15151515151516,225.71359837753397 170.2020202020202,225.33349468259283 175.25252525252526,225.7319119498972 180.3030303030303,225.7954593988748 185.35353535353536,225.83037166845057 190.4040404040404,225.86839012697845 195.45454545454544,225.76950977867108 200.50505050505052,225.6954465858454 205.55555555555554,224.26537013476977 210.6060606060606,222.33977565550296 215.65656565656565,218.66756465726442 220.70707070707073,213.4474038084465 225.75757575757575,206.42306487663902 230.8080808080808,197.17755817309498 235.85858585858585,187.5219698156089 240.90909090909088,174.68588664222273 245.95959595959593,167.6450299035399 251.010101010101,157.77294664732207 256.06060606060606,149.72128425382223 261.1111111111111,143.1905381601784 266.16161616161617,135.31329151195052 271.2121212121212,133.46798878148093 276.2626262626262,126.89373986444076 281.3131313131313,125.17051683101431 286.3636363636364,121.66353243573099 291.4141414141414,120.98280789127313 296.4646464646464,119.12187714763849 301.5151515151515,118.03678180705128 306.5656565656566,120.58696293669465 311.61616161616155,125.56522932087069 316.66666666666663,127.42250382125957 321.7171717171717,130.68608919162727 326.76767676767673,134.10275143628888 331.8181818181818,137.40420966257727 336.86868686868684,140.63456528238498 341.9191919191919,142.87085954719538 346.969696969697,144.79729528597 352.020202020202,149.51659934433533 357.07070707070704,148.34631030051085 362.1212121212121,153.60264530816633 367.1717171717172,155.78097355727235 372.2222222222222,159.83065122545628 377.27272727272725,163.59404181189183 382.32323232323233,166.61325747329653 387.37373737373736,169.86729778386365 392.4242424242424,173.39146328678797 397.47474747474746,175.7442234592332 402.52525252525254,179.72601795636066 407.57575757575756,184.268997257494 412.6262626262626,185.29243798299623 417.67676767676767,188.53279164849334 422.7272727272727,191.57140481278097 427.77777777777777,193.60888680659184 432.82828282828285,196.05810061722565 437.8787878787879,201.8849875299456 442.9292929292929,202.38344996641436 447.9797979797979,208.98049378050374 453.030303030303,210.75021257980643 458.080808080808,213.01164756144755 463.13131313131305,217.30051795700774 468.1818181818182,221.38541527804924 473.2323232323232,225.1355560272361 478.28282828282823,225.0646960917672 483.3333333333333,231.00385879265025 488.38383838383834,232.8252341613484 493.43434343434336,235.3388205024002 498.4848484848484,235.61677587940738 503.53535353535347,241.67046311983032 508.5858585858586,242.25737105109553 513.6363636363636,247.11240909543898 518.6868686868686,249.43037024478065 523.7373737373737,252.9997049120496 528.7878787878788,254.13844672432964 533.8383838383838,256.1658497821138 538.8888888888889,259.92440312637916 543.939393939394,263.5474004434085 548.989898989899,266.7608985169242 554.040404040404,267.22331621909507 559.090909090909,267.66588343249407 564.1414141414141,271.0671926911374 569.1919191919192,274.3047799070991 574.2424242424242,275.717303154982 579.2929292929293,279.54928874744223 584.3434343434344,279.83876290848 589.3939393939394,284.35525871318356 594.4444444444443,286.32500313854507 599.4949494949494,286.3469567760865 604.5454545454545,290.65604975597 609.5959595959596,291.72163434720204 614.6464646464647,292.26146410216256 619.6969696969697,296.50139584366036 624.7474747474747,298.3372182265991 629.7979797979797,301.18635386481094 634.8484848484848,300.8496559248613 639.8989898989898,303.03727038468855 644.9494949494949,302.9708594177708 650,304.98373457097705 "/><text class="poloto_text" alignment-baseline="middle" text-anchor="start" font-size="large" x="675" y="300">nosort_par</text><line class="poloto4stroke" stroke="black" x1="680" x2="730" y1="281.25" y2="281.25"/><polyline class="poloto4stroke" fill="none" stroke="black" points="150,231.58557356426124 155.05050505050505,231.1987397932573 160.1010101010101,231.33473262831475 165.15151515151516,231.16699842490337 170.2020202020202,231.19641015154323 175.25252525252526,230.92219190811892 180.3030303030303,231.26964826292857 185.35353535353536,231.10506878267162 190.4040404040404,231.201975406749 195.45454545454544,231.1875769267108 200.50505050505052,231.16573653564157 205.55555555555554,229.97572642758507 210.6060606060606,227.54472912090972 215.65656565656565,223.4778218108823 220.70707070707073,218.12100482624112 225.75757575757575,211.1862438539522 230.8080808080808,202.6703518147262 235.85858585858585,193.2463524929108 240.90909090909088,183.35184643519523 245.95959595959593,173.28454243895368 251.010101010101,162.7814983737807 256.06060606060606,150.47315993896342 261.1111111111111,146.1435693476098 266.16161616161617,141.5453095899701 271.2121212121212,133.7526904126184 276.2626262626262,130.03163782872218 281.3131313131313,126.56875484533123 286.3636363636364,121.64144937365 291.4141414141414,119.6102606480805 296.4646464646464,117.31697105161322 301.5151515151515,117.2333142647845 306.5656565656566,117.99628810420228 311.61616161616155,119.19927302236073 316.66666666666663,122.43844568893337 321.7171717171717,124.37787241587728 326.76767676767673,127.23679578490157 331.8181818181818,128.57035388551884 336.86868686868684,131.39840950183196 341.9191919191919,134.8645280987147 346.969696969697,134.77842842369978 352.020202020202,137.89851433570914 357.07070707070704,137.83965852629456 362.1212121212121,142.588843475256 367.1717171717172,144.16741840753463 372.2222222222222,147.0784998660456 377.27272727272725,150.7647857829732 382.32323232323233,154.86804521058025 387.37373737373736,157.75746423676406 392.4242424242424,160.55271073227112 397.47474747474746,164.28573508608676 402.52525252525254,167.61217224853138 407.57575757575756,172.25731604566616 412.6262626262626,172.003029181351 417.67676767676767,174.991781541731 422.7272727272727,178.43157842285845 427.77777777777777,179.36000535817598 432.82828282828285,183.5166038741942 437.8787878787879,188.08114853924994 442.9292929292929,189.43937819274163 447.9797979797979,193.45721742416694 453.030303030303,195.97075523101634 458.080808080808,198.55620454771946 463.13131313131305,202.9048852586744 468.1818181818182,206.2551203583507 473.2323232323232,209.11755436801354 478.28282828282823,211.26896231286833 483.3333333333333,217.4541772417301 488.38383838383834,221.10485523218117 493.43434343434336,224.22241736566704 498.4848484848484,225.95856667499297 503.53535353535347,230.27563544213365 508.5858585858586,233.9900226622369 513.6363636363636,236.08951518861687 518.6868686868686,239.59929838957046 523.7373737373737,245.20941537641187 528.7878787878788,246.56626989416958 533.8383838383838,248.83375547304024 538.8888888888889,254.59607571853272 543.939393939394,257.3585778055034 548.989898989899,260.3578297316641 554.040404040404,262.56539174866793 559.090909090909,261.63780607285827 564.1414141414141,265.0962886219005 569.1919191919192,269.7426781302296 574.2424242424242,271.3441450279622 579.2929292929293,274.906668728831 584.3434343434344,277.99379991742717 589.3939393939394,281.23214750255937 594.4444444444443,282.00177052770266 599.4949494949494,285.55749944023887 604.5454545454545,288.9896602735258 609.5959595959596,291.5369617071615 614.6464646464647,293.7257248097783 619.6969696969697,297.23251506825204 624.7474747474747,298.7116434198623 629.7979797979797,301.7985804716489 634.8484848484848,303.0734930777285 639.8989898989898,305.45019679001257 644.9494949494949,306.0933235056966 650,307.8251532710111 "/><text class="poloto_text" alignment-baseline="middle" text-anchor="start" font-size="large" x="675" y="350">sweep</text><line class="poloto5stroke" stroke="black" x1="680" x2="730" y1="331.25" y2="331.25"/><polyline class="poloto5stroke" fill="none" stroke="black" points="150,260.64613907184486 155.05050505050505,261.1063242007064 160.1010101010101,260.95114417764296 165.15151515151516,260.96458815170115 170.2020202020202,261.0846617683793 175.25252525252526,260.9376193132475 180.3030303030303,261.0058422237207 185.35353535353536,261.09129477603733 190.4040404040404,261.0613491731714 195.45454545454544,261.04091627397105 200.50505050505052,261.0350112793486 205.55555555555554,260.22502397589597 210.6060606060606,258.68304383220885 215.65656565656565,256.31187301899564 220.70707070707073,252.70202847081026 225.75757575757575,247.89188456366458 230.8080808080808,242.33348885848852 235.85858585858585,235.89469890027974 240.90909090909088,228.70633054250888 245.95959595959593,219.98316510300253 251.010101010101,211.55934244568377 256.06060606060606,202.1359902465667 261.1111111111111,192.858078873903 266.16161616161617,183.32998986605858 271.2121212121212,174.57535808534513 276.2626262626262,166.05422435226254 281.3131313131313,157.77215392201654 286.3636363636364,150.57085928834624 291.4141414141414,143.15321535855128 296.4646464646464,137.44373268137883 301.5151515151515,130.27728560501447 306.5656565656566,125.27591694050744 311.61616161616155,121.04866880389721 316.66666666666663,116.8332306565319 321.7171717171717,112.58567904526109 326.76767676767673,109.14348781014974 331.8181818181818,106.348710478599 336.86868686868684,105.52977670384172 341.9191919191919,103.52783792423753 346.969696969697,102.28584768543624 352.020202020202,100.47324082930072 357.07070707070704,102.33091978137605 362.1212121212121,100.79861412202928 367.1717171717172,100.19690325903929 372.2222222222222,102.72571316156979 377.27272727272725,102.99051576973307 382.32323232323233,100 387.37373737373736,103.2782426994853 392.4242424242424,105.09220851328746 397.47474747474746,107.93005186041313 402.52525252525254,109.95800497249081 407.57575757575756,111.14236893500436 412.6262626262626,114.41978655304922 417.67676767676767,116.52618711423395 422.7272727272727,118.88147106520285 427.77777777777777,120.27202449747693 432.82828282828285,121.7996385172608 437.8787878787879,125.06654039145747 442.9292929292929,128.59321349483787 447.9797979797979,129.94723685079038 453.030303030303,133.77299388727897 458.080808080808,137.71890543078314 463.13131313131305,140.03968156386264 468.1818181818182,142.54713641734764 473.2323232323232,146.3020173402999 478.28282828282823,148.94104841642604 483.3333333333333,152.2414712463972 488.38383838383834,156.02466378740212 493.43434343434336,158.12742428340871 498.4848484848484,162.2583643844375 503.53535353535347,165.41158297860227 508.5858585858586,167.8884451065229 513.6363636363636,171.9289336323903 518.6868686868686,175.80421173336995 523.7373737373737,177.5676210863637 528.7878787878788,181.4539164512827 533.8383838383838,182.89355414022634 538.8888888888889,187.65268860067482 543.939393939394,190.10588221590348 548.989898989899,193.55939809823582 554.040404040404,197.3105257095377 559.090909090909,200.56435570522785 564.1414141414141,203.36583075670646 569.1919191919192,205.57703283888847 574.2424242424242,209.4790371073098 579.2929292929293,213.13578187305782 584.3434343434344,215.4808251073253 589.3939393939394,210.22183689660662 594.4444444444443,221.82060529268713 599.4949494949494,223.97377664689495 604.5454545454545,227.06064898641173 609.5959595959596,230.86825423121175 614.6464646464647,232.22074067075565 619.6969696969697,235.02173038021047 624.7474747474747,238.85512346453964 629.7979797979797,240.5925508411948 634.8484848484848,242.240351724129 639.8989898989898,247.10247576201937 644.9494949494949,248.132986303001 650,250.71424550023232 "/><text class="poloto_text" alignment-baseline="start" text-anchor="middle" font-size="x-large" x="400" y="37.5">Bench of space partitioning algs with abspiral(3000,grow)</text><text class="poloto_text" alignment-baseline="start" text-anchor="middle" font-size="x-large" x="400" y="481.25">Grow</text><text class="poloto_text" alignment-baseline="start" text-anchor="middle" font-size="x-large" transform="rotate(-90,37.5,250)" x="37.5" y="250">Time in Seconds</text><path stroke="black" fill="none" class="poloto_axis_lines" d=" M 150 100 L 150 400 L 650 400"/></svg>