<svg class="poloto" width="800" height="500" viewBox="0 0 800 500" xmlns="http://www.w3.org/2000/svg"><circle  r="1e5" class="poloto_background" /><text  class="poloto_text poloto_legend_text" x="675" y="100" >brocc</text><line  class="poloto_scatter poloto_legend_icon poloto0stroke poloto0legend" stroke="black" x1="685" x2="685" y1="81.25" y2="81.25" /><path  class="poloto_scatter poloto0stroke" d=" M 150.00 399.95 h 0 M 155.05 399.22 h 0 M 160.10 398.10 h 0 M 165.15 397.08 h 0 M 170.20 395.69 h 0 M 175.25 394.58 h 0 M 180.30 393.05 h 0 M 185.35 391.92 h 0 M 190.40 390.88 h 0 M 195.45 389.40 h 0 M 200.51 387.76 h 0 M 205.56 386.61 h 0 M 210.61 386.25 h 0 M 215.66 384.20 h 0 M 220.71 383.33 h 0 M 225.76 382.44 h 0 M 230.81 380.80 h 0 M 235.86 379.21 h 0 M 240.91 378.46 h 0 M 245.96 376.94 h 0 M 251.01 375.26 h 0 M 256.06 372.57 h 0 M 261.11 372.01 h 0 M 266.16 370.12 h 0 M 271.21 369.15 h 0 M 276.26 367.90 h 0 M 281.31 366.78 h 0 M 286.36 364.96 h 0 M 291.41 364.59 h 0 M 296.46 362.94 h 0 M 301.52 361.33 h 0 M 306.57 360.28 h 0 M 311.62 359.68 h 0 M 316.67 358.35 h 0 M 321.72 357.73 h 0 M 326.77 356.05 h 0 M 331.82 354.85 h 0 M 336.87 353.19 h 0 M 341.92 350.47 h 0 M 346.97 350.37 h 0 M 352.02 348.00 h 0 M 357.07 347.81 h 0 M 362.12 346.34 h 0 M 367.17 343.86 h 0 M 372.22 344.02 h 0 M 377.27 341.34 h 0 M 382.32 339.77 h 0 M 387.37 340.62 h 0 M 392.42 338.87 h 0 M 397.47 335.21 h 0 M 402.53 336.71 h 0 M 407.58 333.17 h 0 M 412.63 334.58 h 0 M 417.68 333.02 h 0 M 422.73 331.52 h 0 M 427.78 329.39 h 0 M 432.83 328.98 h 0 M 437.88 327.14 h 0 M 442.93 325.49 h 0 M 447.98 324.58 h 0 M 453.03 320.61 h 0 M 458.08 322.18 h 0 M 463.13 320.52 h 0 M 468.18 316.99 h 0 M 473.23 315.48 h 0 M 478.28 313.78 h 0 M 483.33 311.31 h 0 M 488.38 312.14 h 0 M 493.43 309.28 h 0 M 498.48 308.72 h 0 M 503.54 307.53 h 0 M 508.59 304.64 h 0 M 513.64 288.74 h 0 M 518.69 303.96 h 0 M 523.74 304.51 h 0 M 528.79 300.65 h 0 M 533.84 301.00 h 0 M 538.89 295.23 h 0 M 543.94 294.70 h 0 M 548.99 293.46 h 0 M 554.04 295.52 h 0 M 559.09 293.43 h 0 M 564.14 283.09 h 0 M 569.19 280.71 h 0 M 574.24 279.21 h 0 M 579.29 281.61 h 0 M 584.34 276.63 h 0 M 589.39 274.38 h 0 M 594.44 278.34 h 0 M 599.49 272.28 h 0 M 604.55 269.52 h 0 M 609.60 273.73 h 0 M 614.65 267.46 h 0 M 619.70 267.85 h 0 M 624.75 269.03 h 0 M 629.80 268.68 h 0 M 634.85 266.44 h 0 M 639.90 260.97 h 0 M 644.95 263.21 h 0 M 650.00 262.11 h 0" /><text  class="poloto_text poloto_legend_text" x="675" y="150" >brocc_par</text><line  class="poloto_scatter poloto_legend_icon poloto1stroke poloto1legend" stroke="black" x1="685" x2="685" y1="131.25" y2="131.25" /><path  class="poloto_scatter poloto1stroke" d=" M 150.00 399.86 h 0 M 155.05 399.17 h 0 M 160.10 398.01 h 0 M 165.15 397.05 h 0 M 170.20 395.65 h 0 M 175.25 394.35 h 0 M 180.30 393.01 h 0 M 185.35 391.66 h 0 M 190.40 390.71 h 0 M 195.45 389.86 h 0 M 200.51 387.85 h 0 M 205.56 386.75 h 0 M 210.61 386.32 h 0 M 215.66 384.29 h 0 M 220.71 383.64 h 0 M 225.76 382.38 h 0 M 230.81 381.20 h 0 M 235.86 378.66 h 0 M 240.91 378.10 h 0 M 245.96 376.57 h 0 M 251.01 375.66 h 0 M 256.06 372.70 h 0 M 261.11 371.75 h 0 M 266.16 370.15 h 0 M 271.21 369.47 h 0 M 276.26 368.12 h 0 M 281.31 366.49 h 0 M 286.36 366.05 h 0 M 291.41 370.48 h 0 M 296.46 369.46 h 0 M 301.52 368.24 h 0 M 306.57 366.91 h 0 M 311.62 367.39 h 0 M 316.67 366.38 h 0 M 321.72 365.15 h 0 M 326.77 364.51 h 0 M 331.82 363.83 h 0 M 336.87 362.74 h 0 M 341.92 362.18 h 0 M 346.97 360.30 h 0 M 352.02 359.87 h 0 M 357.07 359.56 h 0 M 362.12 358.98 h 0 M 367.17 327.46 h 0 M 372.22 356.59 h 0 M 377.27 359.26 h 0 M 382.32 354.24 h 0 M 387.37 354.06 h 0 M 392.42 353.23 h 0 M 397.47 351.82 h 0 M 402.53 351.57 h 0 M 407.58 350.21 h 0 M 412.63 355.65 h 0 M 417.68 353.54 h 0 M 422.73 353.38 h 0 M 427.78 347.44 h 0 M 432.83 348.00 h 0 M 437.88 349.16 h 0 M 442.93 359.93 h 0 M 447.98 348.04 h 0 M 453.03 355.56 h 0 M 458.08 356.63 h 0 M 463.13 341.12 h 0 M 468.18 350.82 h 0 M 473.23 350.83 h 0 M 478.28 352.95 h 0 M 483.33 342.63 h 0 M 488.38 349.70 h 0 M 493.43 351.55 h 0 M 498.48 351.67 h 0 M 503.54 352.37 h 0 M 508.59 350.48 h 0 M 513.64 324.84 h 0 M 518.69 349.22 h 0 M 523.74 350.61 h 0 M 528.79 349.22 h 0 M 533.84 346.47 h 0 M 538.89 309.23 h 0 M 543.94 338.49 h 0 M 548.99 346.21 h 0 M 554.04 346.69 h 0 M 559.09 346.05 h 0 M 564.14 335.23 h 0 M 569.19 334.06 h 0 M 574.24 335.15 h 0 M 579.29 338.05 h 0 M 584.34 339.26 h 0 M 589.39 331.66 h 0 M 594.44 334.82 h 0 M 599.49 333.49 h 0 M 604.55 325.24 h 0 M 609.60 332.18 h 0 M 614.65 329.94 h 0 M 619.70 332.71 h 0 M 624.75 333.46 h 0 M 629.80 333.51 h 0 M 634.85 333.90 h 0 M 639.90 333.96 h 0 M 644.95 325.47 h 0 M 650.00 330.65 h 0" /><text  class="poloto_text poloto_legend_text" x="675" y="200" >naive</text><line  class="poloto_scatter poloto_legend_icon poloto2stroke poloto2legend" stroke="black" x1="685" x2="685" y1="181.25" y2="181.25" /><path  class="poloto_scatter poloto2stroke" d=" M 150.00 400.00 h 0 M 155.05 399.26 h 0 M 160.10 397.33 h 0 M 165.15 395.33 h 0 M 170.20 392.25 h 0 M 175.25 390.88 h 0 M 180.30 388.32 h 0 M 185.35 385.04 h 0 M 190.40 382.72 h 0 M 195.45 378.61 h 0 M 200.51 375.29 h 0 M 205.56 371.95 h 0 M 210.61 368.13 h 0 M 215.66 363.75 h 0 M 220.71 358.85 h 0 M 225.76 353.87 h 0 M 230.81 349.34 h 0 M 235.86 343.73 h 0 M 240.91 336.99 h 0 M 245.96 330.35 h 0 M 251.01 324.33 h 0 M 256.06 318.99 h 0 M 261.11 311.60 h 0 M 266.16 304.37 h 0 M 271.21 297.02 h 0 M 276.26 289.41 h 0 M 281.31 281.12 h 0 M 286.36 272.65 h 0 M 291.41 264.23 h 0 M 296.46 255.08 h 0 M 301.52 247.05 h 0" /><text  class="poloto_text poloto_legend_text" x="675" y="250" >nosort</text><line  class="poloto_scatter poloto_legend_icon poloto3stroke poloto3legend" stroke="black" x1="685" x2="685" y1="231.25" y2="231.25" /><path  class="poloto_scatter poloto3stroke" d=" M 150.00 399.97 h 0 M 155.05 399.21 h 0 M 160.10 397.75 h 0 M 165.15 395.85 h 0 M 170.20 393.08 h 0 M 175.25 391.17 h 0 M 180.30 390.08 h 0 M 185.35 387.19 h 0 M 190.40 384.55 h 0 M 195.45 382.36 h 0 M 200.51 379.61 h 0 M 205.56 378.62 h 0 M 210.61 374.28 h 0 M 215.66 372.99 h 0 M 220.71 369.85 h 0 M 225.76 367.28 h 0 M 230.81 364.75 h 0 M 235.86 360.62 h 0 M 240.91 357.29 h 0 M 245.96 355.62 h 0 M 251.01 349.05 h 0 M 256.06 350.45 h 0 M 261.11 350.70 h 0 M 266.16 346.10 h 0 M 271.21 344.49 h 0 M 276.26 336.16 h 0 M 281.31 339.24 h 0 M 286.36 335.18 h 0 M 291.41 331.91 h 0 M 296.46 326.93 h 0 M 301.52 326.42 h 0 M 306.57 322.94 h 0 M 311.62 313.85 h 0 M 316.67 317.85 h 0 M 321.72 313.34 h 0 M 326.77 308.80 h 0 M 331.82 307.72 h 0 M 336.87 300.74 h 0 M 341.92 304.60 h 0 M 346.97 297.09 h 0 M 352.02 295.95 h 0 M 357.07 291.20 h 0 M 362.12 290.25 h 0 M 367.17 284.26 h 0 M 372.22 278.66 h 0 M 377.27 279.66 h 0 M 382.32 276.58 h 0 M 387.37 270.93 h 0 M 392.42 268.46 h 0 M 397.47 269.26 h 0 M 402.53 261.85 h 0 M 407.58 257.72 h 0 M 412.63 254.84 h 0 M 417.68 257.20 h 0 M 422.73 251.70 h 0 M 427.78 246.56 h 0 M 432.83 242.08 h 0 M 437.88 227.43 h 0 M 442.93 237.06 h 0 M 447.98 230.02 h 0 M 453.03 222.57 h 0 M 458.08 221.33 h 0 M 463.13 213.16 h 0 M 468.18 218.09 h 0 M 473.23 209.39 h 0 M 478.28 203.12 h 0 M 483.33 200.66 h 0 M 488.38 197.89 h 0 M 493.43 192.92 h 0 M 498.48 190.20 h 0 M 503.54 193.07 h 0 M 508.59 172.11 h 0 M 513.64 177.61 h 0 M 518.69 179.42 h 0 M 523.74 164.72 h 0 M 528.79 168.00 h 0 M 533.84 168.73 h 0 M 538.89 170.18 h 0 M 543.94 160.66 h 0 M 548.99 154.57 h 0 M 554.04 154.16 h 0 M 559.09 133.09 h 0 M 564.14 162.29 h 0 M 569.19 154.38 h 0 M 574.24 145.18 h 0 M 579.29 139.63 h 0 M 584.34 147.95 h 0 M 589.39 135.69 h 0 M 594.44 136.23 h 0 M 599.49 130.54 h 0 M 604.55 130.61 h 0 M 609.60 119.56 h 0 M 614.65 121.72 h 0 M 619.70 117.43 h 0 M 624.75 116.86 h 0 M 629.80 116.87 h 0 M 634.85 109.86 h 0 M 639.90 107.45 h 0 M 644.95 102.80 h 0 M 650.00 100.00 h 0" /><text  class="poloto_text poloto_legend_text" x="675" y="300" >nosort_par</text><line  class="poloto_scatter poloto_legend_icon poloto4stroke poloto4legend" stroke="black" x1="685" x2="685" y1="281.25" y2="281.25" /><path  class="poloto_scatter poloto4stroke" d=" M 150.00 399.95 h 0 M 155.05 399.19 h 0 M 160.10 397.75 h 0 M 165.15 395.93 h 0 M 170.20 393.30 h 0 M 175.25 390.65 h 0 M 180.30 389.94 h 0 M 185.35 387.89 h 0 M 190.40 385.25 h 0 M 195.45 384.10 h 0 M 200.51 381.25 h 0 M 205.56 378.11 h 0 M 210.61 376.27 h 0 M 215.66 372.48 h 0 M 220.71 370.41 h 0 M 225.76 367.90 h 0 M 230.81 365.75 h 0 M 235.86 361.55 h 0 M 240.91 358.00 h 0 M 245.96 355.94 h 0 M 251.01 349.23 h 0 M 256.06 351.92 h 0 M 261.11 351.28 h 0 M 266.16 348.08 h 0 M 271.21 345.06 h 0 M 276.26 339.35 h 0 M 281.31 339.32 h 0 M 286.36 348.20 h 0 M 291.41 345.21 h 0 M 296.46 342.05 h 0 M 301.52 342.26 h 0 M 306.57 340.87 h 0 M 311.62 333.40 h 0 M 316.67 333.66 h 0 M 321.72 332.56 h 0 M 326.77 330.34 h 0 M 331.82 328.91 h 0 M 336.87 322.25 h 0 M 341.92 326.01 h 0 M 346.97 322.11 h 0 M 352.02 313.10 h 0 M 357.07 323.97 h 0 M 362.12 322.25 h 0 M 367.17 324.42 h 0 M 372.22 313.02 h 0 M 377.27 303.96 h 0 M 382.32 306.21 h 0 M 387.37 299.85 h 0 M 392.42 297.48 h 0 M 397.47 300.42 h 0 M 402.53 292.35 h 0 M 407.58 305.57 h 0 M 412.63 306.95 h 0 M 417.68 306.13 h 0 M 422.73 306.54 h 0 M 427.78 288.54 h 0 M 432.83 290.12 h 0 M 437.88 277.63 h 0 M 442.93 302.79 h 0 M 447.98 304.95 h 0 M 453.03 300.33 h 0 M 458.08 302.23 h 0 M 463.13 286.36 h 0 M 468.18 299.76 h 0 M 473.23 292.41 h 0 M 478.28 292.74 h 0 M 483.33 295.56 h 0 M 488.38 287.48 h 0 M 493.43 285.32 h 0 M 498.48 289.40 h 0 M 503.54 297.51 h 0 M 508.59 287.99 h 0 M 513.64 284.80 h 0 M 518.69 280.21 h 0 M 523.74 273.67 h 0 M 528.79 283.38 h 0 M 533.84 272.48 h 0 M 538.89 276.93 h 0 M 543.94 282.15 h 0 M 548.99 272.71 h 0 M 554.04 266.41 h 0 M 559.09 252.72 h 0 M 564.14 278.23 h 0 M 569.19 273.12 h 0 M 574.24 268.59 h 0 M 579.29 263.77 h 0 M 584.34 262.69 h 0 M 589.39 266.77 h 0 M 594.44 264.70 h 0 M 599.49 260.96 h 0 M 604.55 258.21 h 0 M 609.60 255.66 h 0 M 614.65 257.91 h 0 M 619.70 262.26 h 0 M 624.75 251.93 h 0 M 629.80 257.87 h 0 M 634.85 258.97 h 0 M 639.90 247.07 h 0 M 644.95 248.24 h 0 M 650.00 249.92 h 0" /><text  class="poloto_text poloto_legend_text" x="675" y="350" >sweep</text><line  class="poloto_scatter poloto_legend_icon poloto5stroke poloto5legend" stroke="black" x1="685" x2="685" y1="331.25" y2="331.25" /><path  class="poloto_scatter poloto5stroke" d=" M 150.00 399.91 h 0 M 155.05 399.20 h 0 M 160.10 397.72 h 0 M 165.15 395.90 h 0 M 170.20 393.51 h 0 M 175.25 391.87 h 0 M 180.30 388.49 h 0 M 185.35 386.13 h 0 M 190.40 383.63 h 0 M 195.45 380.83 h 0 M 200.51 376.82 h 0 M 205.56 373.65 h 0 M 210.61 371.87 h 0 M 215.66 366.27 h 0 M 220.71 366.04 h 0 M 225.76 361.38 h 0 M 230.81 358.47 h 0 M 235.86 354.79 h 0 M 240.91 350.34 h 0 M 245.96 348.03 h 0 M 251.01 342.27 h 0 M 256.06 339.43 h 0 M 261.11 335.96 h 0 M 266.16 331.80 h 0 M 271.21 327.93 h 0 M 276.26 324.04 h 0 M 281.31 317.75 h 0 M 286.36 313.66 h 0 M 291.41 310.46 h 0 M 296.46 306.01 h 0 M 301.52 300.22 h 0 M 306.57 297.07 h 0 M 311.62 293.43 h 0 M 316.67 287.18 h 0 M 321.72 282.54 h 0 M 326.77 278.87 h 0 M 331.82 274.33 h 0 M 336.87 267.78 h 0 M 341.92 263.57 h 0 M 346.97 258.15 h 0 M 352.02 253.27 h 0 M 357.07 246.54 h 0 M 362.12 242.28 h 0 M 367.17 236.91 h 0 M 372.22 233.28 h 0 M 377.27 228.53 h 0 M 382.32 224.56 h 0 M 387.37 218.67 h 0 M 392.42 214.11 h 0 M 397.47 205.93 h 0 M 402.53 201.13 h 0 M 407.58 196.26 h 0 M 412.63 192.44 h 0 M 417.68 187.90 h 0 M 422.73 181.24 h 0 M 427.78 175.09 h 0 M 432.83 161.92 h 0 M 437.88 154.56 h 0 M 442.93 157.76 h 0 M 447.98 152.30 h 0 M 453.03 147.51 h 0" /><text  class="poloto_labels poloto_text poloto_title" x="400" y="37.5" >Bench of space partitioning algs with abspiral(x,0.6)</text><text  class="poloto_labels poloto_text poloto_xname" x="400" y="481.25" >Number of Elements</text><text  class="poloto_labels poloto_text poloto_yname" transform="rotate(-90,37.5,250)" x="37.5" y="250" >Time in Seconds</text><text  class="poloto_tick_labels poloto_text" dominant-baseline="middle" text-anchor="start" x="150" y="70" ></text><line  class="poloto_axis_lines" stroke="black" x1="150" x2="144" y1="400" y2="400" /><text  class="poloto_tick_labels poloto_text" dominant-baseline="middle" text-anchor="end" x="135" y="400" >0e0</text><line  class="poloto_axis_lines" stroke="black" x1="150" x2="144" y1="329.16651417791246" y2="329.16651417791246" /><text  class="poloto_tick_labels poloto_text" dominant-baseline="middle" text-anchor="end" x="135" y="329.16651417791246" >0.002</text><line  class="poloto_axis_lines" stroke="black" x1="150" x2="144" y1="258.3330283558249" y2="258.3330283558249" /><text  class="poloto_tick_labels poloto_text" dominant-baseline="middle" text-anchor="end" x="135" y="258.3330283558249" >0.004</text><line  class="poloto_axis_lines" stroke="black" x1="150" x2="144" y1="187.49954253373744" y2="187.49954253373744" /><text  class="poloto_tick_labels poloto_text" dominant-baseline="middle" text-anchor="end" x="135" y="187.49954253373744" >0.006</text><line  class="poloto_axis_lines" stroke="black" x1="150" x2="144" y1="116.66605671164984" y2="116.66605671164984" /><text  class="poloto_tick_labels poloto_text" dominant-baseline="middle" text-anchor="end" x="135" y="116.66605671164984" >0.008</text><text  class="poloto_tick_labels poloto_text" dominant-baseline="middle" text-anchor="start" x="440.00000000000006" y="70" ></text><line  class="poloto_axis_lines" stroke="black" x1="150" x2="150" y1="400" y2="405" /><text  class="poloto_tick_labels poloto_text" dominant-baseline="start" text-anchor="middle" x="150" y="430" >0</text><line  class="poloto_axis_lines" stroke="black" x1="251.010101010101" x2="251.010101010101" y1="400" y2="405" /><text  class="poloto_tick_labels poloto_text" dominant-baseline="start" text-anchor="middle" x="251.010101010101" y="430" >2000</text><line  class="poloto_axis_lines" stroke="black" x1="352.020202020202" x2="352.020202020202" y1="400" y2="405" /><text  class="poloto_tick_labels poloto_text" dominant-baseline="start" text-anchor="middle" x="352.020202020202" y="430" >4000</text><line  class="poloto_axis_lines" stroke="black" x1="453.030303030303" x2="453.030303030303" y1="400" y2="405" /><text  class="poloto_tick_labels poloto_text" dominant-baseline="start" text-anchor="middle" x="453.030303030303" y="430" >6000</text><line  class="poloto_axis_lines" stroke="black" x1="554.040404040404" x2="554.040404040404" y1="400" y2="405" /><text  class="poloto_tick_labels poloto_text" dominant-baseline="start" text-anchor="middle" x="554.040404040404" y="430" >8000</text><path  stroke="black" fill="none" class="poloto_axis_lines" style="stroke-dasharray:12.626262626262626;stroke-dashoffset:-0;" d=" M 150 400 L 650 400" /><path  stroke="black" fill="none" class="poloto_axis_lines" style="stroke-dasharray:8.854185727760942;stroke-dashoffset:-0;" d=" M 150 400 L 150 100" /></svg>