<svg class="poloto" height="500" viewBox="0 0 800 500" width="800" xmlns="http://www.w3.org/2000/svg">
<rect class="poloto_background" fill="white" height="500" width="800" x="0" y="0"/>
<style>
.poloto {
font-family: "Arial";
stroke-width:2;
}
.poloto_text{fill: var(--poloto_fg_color,black);  }
.poloto_axis_lines{stroke: var(--poloto_fg_color,black);stoke-width:3;fill:none}
.poloto_background{fill: var(--poloto_bg_color,aliceblue); }
.poloto0stroke{stroke:  var(--poloto_color0,blue); }
.poloto1stroke{stroke:  var(--poloto_color1,red); }
.poloto2stroke{stroke:  var(--poloto_color2,green); }
.poloto3stroke{stroke:  var(--poloto_color3,gold); }
.poloto4stroke{stroke:  var(--poloto_color4,aqua); }
.poloto5stroke{stroke:  var(--poloto_color5,brown); }
.poloto6stroke{stroke:  var(--poloto_color6,lime); }
.poloto7stroke{stroke:  var(--poloto_color7,chocolate); }
.poloto0fill{fill:var(--poloto_color0,blue);}
.poloto1fill{fill:var(--poloto_color1,red);}
.poloto2fill{fill:var(--poloto_color2,green);}
.poloto3fill{fill:var(--poloto_color3,gold);}
.poloto4fill{fill:var(--poloto_color4,aqua);}
.poloto5fill{fill:var(--poloto_color5,brown);}
.poloto6fill{fill:var(--poloto_color6,lime);}
.poloto7fill{fill:var(--poloto_color7,chocolate);}
</style>
<line class="poloto_axis_lines" stroke="black" x1="150" x2="150" y1="400" y2="405"/>
<text alignment-baseline="start" class="poloto_text" text-anchor="middle" x="150" y="440">
0
</text>
<line class="poloto_axis_lines" stroke="black" x1="251.0101" x2="251.0101" y1="400" y2="405"/>
<text alignment-baseline="start" class="poloto_text" text-anchor="middle" x="251.0101" y="440">
2000
</text>
<line class="poloto_axis_lines" stroke="black" x1="352.0202" x2="352.0202" y1="400" y2="405"/>
<text alignment-baseline="start" class="poloto_text" text-anchor="middle" x="352.0202" y="440">
4000
</text>
<line class="poloto_axis_lines" stroke="black" x1="453.0303" x2="453.0303" y1="400" y2="405"/>
<text alignment-baseline="start" class="poloto_text" text-anchor="middle" x="453.0303" y="440">
6000
</text>
<line class="poloto_axis_lines" stroke="black" x1="554.0404" x2="554.0404" y1="400" y2="405"/>
<text alignment-baseline="start" class="poloto_text" text-anchor="middle" x="554.0404" y="440">
8000
</text>
<line class="poloto_axis_lines" stroke="black" x1="150" x2="144" y1="365.33337" y2="365.33337"/>
<text alignment-baseline="middle" class="poloto_text" text-anchor="end" x="120" y="365.33337">
0.002
</text>
<line class="poloto_axis_lines" stroke="black" x1="150" x2="144" y1="330.66318" y2="330.66318"/>
<text alignment-baseline="middle" class="poloto_text" text-anchor="end" x="120" y="330.66318">
0.004
</text>
<line class="poloto_axis_lines" stroke="black" x1="150" x2="144" y1="295.99295" y2="295.99295"/>
<text alignment-baseline="middle" class="poloto_text" text-anchor="end" x="120" y="295.99295">
0.006
</text>
<line class="poloto_axis_lines" stroke="black" x1="150" x2="144" y1="261.32275" y2="261.32275"/>
<text alignment-baseline="middle" class="poloto_text" text-anchor="end" x="120" y="261.32275">
0.008
</text>
<line class="poloto_axis_lines" stroke="black" x1="150" x2="144" y1="226.65253" y2="226.65253"/>
<text alignment-baseline="middle" class="poloto_text" text-anchor="end" x="120" y="226.65253">
0.010
</text>
<line class="poloto_axis_lines" stroke="black" x1="150" x2="144" y1="191.98233" y2="191.98233"/>
<text alignment-baseline="middle" class="poloto_text" text-anchor="end" x="120" y="191.98233">
0.012
</text>
<line class="poloto_axis_lines" stroke="black" x1="150" x2="144" y1="157.31213" y2="157.31213"/>
<text alignment-baseline="middle" class="poloto_text" text-anchor="end" x="120" y="157.31213">
0.014
</text>
<line class="poloto_axis_lines" stroke="black" x1="150" x2="144" y1="122.64194" y2="122.64194"/>
<text alignment-baseline="middle" class="poloto_text" text-anchor="end" x="120" y="122.64194">
0.016
</text>
<text alignment-baseline="middle" class="poloto_text" font-size="large" text-anchor="start" x="675" y="100">
brocc
</text>
<line class="poloto0stroke" x1="680" x2="730" y1="81.25" y2="81.25"/>
<polyline class="poloto0stroke" fill="none" points="150,399.98996 155.0505,399.5282 160.10101,398.61298 165.15152,397.71417 170.20203,396.7728 175.25253,395.85678 180.30302,394.49265 185.35353,393.53836 190.40404,392.68045 195.45454,391.70984 200.50505,390.39926 205.55556,389.22314 210.60606,387.32526 215.65656,387.253 220.70706,386.72537 225.75757,385.52017 230.80807,384.4676 235.85858,383.6003 240.90909,382.4906 245.9596,381.70163 251.0101,380.7531 256.0606,377.98975 261.1111,376.91483 266.16162,376.38208 271.21213,374.85678 276.26263,374.0644 281.3131,373.06372 286.36365,372.13095 291.41412,370.87918 296.46466,369.7904 301.51514,368.8188 306.56567,367.82178 311.61615,367.13586 316.66666,365.69876 321.71716,364.93735 326.76767,363.85483 331.81818,362.9653 336.86868,361.76904 341.9192,360.98138 346.9697,359.83548 352.0202,358.60245 357.0707,356.12512 362.12122,355.3028 367.1717,354.01178 372.22223,352.9282 377.2727,351.85898 382.32324,351.13297 387.37372,350.0273 392.42426,348.7535 397.47473,347.61615 402.52527,346.7791 407.57574,345.35733 412.62625,344.31335 417.67676,342.85138 422.72726,342.46826 427.77777,341.39685 432.82828,340.16928 437.87878,338.87463 442.9293,337.9235 447.9798,330.36267 453.0303,336.96185 458.0808,335.2828 463.13132,333.77133 468.18182,332.44806 473.23233,332.27136 478.28284,330.86887 483.3333,329.68524 488.38382,328.98227 493.43433,328.17984 498.48483,326.88763 503.53534,325.79456 508.58585,325.37558 513.63635,324.29218 518.6869,323.19138 523.73737,321.67343 528.78784,320.50705 533.8384,319.6117 538.8889,318.10077 543.9394,317.6184 548.98987,316.34326 554.0404,315.10437 559.09094,314.2956 564.1414,306.4604 569.1919,305.53323 574.24243,303.5057 579.2929,303.38538 584.3434,301.89893 589.3939,300.68298 594.44446,300.02704 599.49493,298.94098 604.5454,297.2135 609.59595,296.57138 614.6465,295.5314 619.69696,294.2267 624.74744,293.65936 629.798,293.0011 634.8485,291.51306 639.899,289.67023 644.94946,289.31952 650,287.97235 " stroke="black"/>
<text alignment-baseline="middle" class="poloto_text" font-size="large" text-anchor="start" x="675" y="150">
brocc_par
</text>
<line class="poloto1stroke" x1="680" x2="730" y1="131.25" y2="131.25"/>
<polyline class="poloto1stroke" fill="none" points="150,399.9869 155.0505,399.49796 160.10101,398.5834 165.15152,397.6604 170.20203,396.7657 175.25253,395.84778 180.30302,394.4697 185.35353,393.4881 190.40404,392.57925 195.45454,391.65997 200.50505,390.27655 205.55556,389.07202 210.60606,387.46347 215.65656,387.10535 220.70706,386.58566 225.75757,385.2809 230.80807,384.3626 235.85858,383.60287 240.90909,382.49655 245.9596,381.60663 251.0101,380.55737 256.0606,379.48853 261.1111,377.22232 266.16162,379.48465 271.21213,375.7021 276.26263,374.44464 281.3131,374.28076 286.36365,374.65662 291.41412,373.9478 296.46466,374.28223 301.51514,372.58337 306.56567,372.16617 311.61615,371.344 316.66666,371.55774 321.71716,369.48508 326.76767,369.20346 331.81818,369.11652 336.86868,368.37302 341.9192,367.28452 346.9697,367.20728 352.0202,364.98123 357.0707,340.87033 362.12122,373.0445 367.1717,372.20825 372.22223,370.67563 377.2727,365.92606 382.32324,368.2655 387.37372,363.54715 392.42426,368.44012 397.47473,367.3721 402.52527,370.90985 407.57574,340.4037 412.62625,362.95602 417.67676,366.1338 422.72726,366.18973 427.77777,366.87442 432.82828,366.4813 437.87878,364.4034 442.9293,354.19855 447.9798,341.64444 453.0303,359.30725 458.0808,355.8245 463.13132,364.6849 468.18182,349.9516 473.23233,360.87506 478.28284,365.06418 483.3333,364.01352 488.38382,360.67117 493.43433,362.41617 498.48483,361.5564 503.53534,363.23077 508.58585,360.5865 513.63635,362.07993 518.6869,361.64746 523.73737,360.59763 528.78784,359.58224 533.8384,360.54367 538.8889,360.93 543.9394,358.87094 548.98987,354.5087 554.0404,359.70126 559.09094,359.2324 564.1414,356.21588 569.1919,354.13202 574.24243,349.29642 579.2929,344.85825 584.3434,351.36908 589.3939,341.40955 594.44446,352.10196 599.49493,351.37634 604.5454,350.5702 609.59595,350.17276 614.6465,354.03613 619.69696,349.73233 624.74744,348.86798 629.798,350.21716 634.8485,349.3606 639.899,349.21948 644.94946,351.41025 650,343.98392 " stroke="black"/>
<text alignment-baseline="middle" class="poloto_text" font-size="large" text-anchor="start" x="675" y="200">
naive
</text>
<line class="poloto2stroke" x1="680" x2="730" y1="181.25" y2="181.25"/>
<polyline class="poloto2stroke" fill="none" points="150,400 155.0505,399.39215 160.10101,396.57642 165.15152,395.04272 170.20203,391.73257 175.25253,388.21582 180.30302,384.3709 185.35353,378.99356 190.40404,373.88727 195.45454,368.22546 200.50505,361.2897 205.55556,353.5169 210.60606,348.1048 215.65656,342.09558 220.70706,334.47736 225.75757,327.13553 230.80807,320.32504 235.85858,310.6916 240.90909,300.54266 245.9596,291.86713 251.0101,279.58588 256.0606,269.80188 261.1111,260.2149 266.16162,247.59477 271.21213,232.36382 276.26263,217.31155 281.3131,209.56569 286.36365,195.49782 291.41412,183.58269 296.46466,161.14517 301.51514,155.74515 " stroke="black"/>
<text alignment-baseline="middle" class="poloto_text" font-size="large" text-anchor="start" x="675" y="250">
nosort
</text>
<line class="poloto3stroke" x1="680" x2="730" y1="231.25" y2="231.25"/>
<polyline class="poloto3stroke" fill="none" points="150,399.99628 155.0505,399.4364 160.10101,398.1377 165.15152,396.8841 170.20203,394.6298 175.25253,393.439 180.30302,391.23767 185.35353,389.57654 190.40404,388.0484 195.45454,384.3325 200.50505,381.92978 205.55556,381.01697 210.60606,377.13068 215.65656,377.14005 220.70706,375.1465 225.75757,371.12158 230.80807,369.4005 235.85858,367.81445 240.90909,364.38718 245.9596,362.5869 251.0101,360.48608 256.0606,357.36594 261.1111,351.9214 266.16162,353.60358 271.21213,349.61557 276.26263,346.44745 281.3131,342.324 286.36365,340.2434 291.41412,335.63718 296.46466,334.69952 301.51514,333.66644 306.56567,332.1308 311.61615,328.31488 316.66666,325.75146 321.71716,321.6116 326.76767,319.94614 331.81818,316.697 336.86868,309.81232 341.9192,313.22864 346.9697,309.35278 352.0202,305.5368 357.0707,301.3661 362.12122,296.2535 367.1717,296.96008 372.22223,294.1181 377.2727,294.4123 382.32324,287.93262 387.37372,285.67694 392.42426,283.48523 397.47473,277.613 402.52527,281.10568 407.57574,269.5478 412.62625,270.66907 417.67676,265.05865 422.72726,262.10092 427.77777,262.10803 432.82828,257.87155 437.87878,255.39929 442.9293,245.71077 447.9798,253.45248 453.0303,246.99208 458.0808,244.02417 463.13132,239.64838 468.18182,232.86539 473.23233,232.80649 478.28284,226.66127 483.3333,227.42064 488.38382,224.1585 493.43433,217.3456 498.48483,218.08524 503.53534,213.0627 508.58585,210.03616 513.63635,206.31772 518.6869,200.41298 523.73737,199.14615 528.78784,199.84573 533.8384,193.76491 538.8889,191.86383 543.9394,183.97542 548.98987,189.4542 554.0404,178.08076 559.09094,166.90024 564.1414,172.33275 569.1919,173.28989 574.24243,168.89299 579.2929,154.49173 584.3434,158.67732 589.3939,152.54028 594.44446,155.61255 599.49493,153.34448 604.5454,147.8063 609.59595,141.33112 614.6465,141.53622 619.69696,130.33157 624.74744,126.3638 629.798,123.19403 634.8485,127.890564 639.899,117.68872 644.94946,100 650,115.93204 " stroke="black"/>
<text alignment-baseline="middle" class="poloto_text" font-size="large" text-anchor="start" x="675" y="300">
nosort_par
</text>
<line class="poloto4stroke" x1="680" x2="730" y1="281.25" y2="281.25"/>
<polyline class="poloto4stroke" fill="none" points="150,399.9935 155.0505,399.4135 160.10101,398.114 165.15152,396.6872 170.20203,394.5868 175.25253,393.13037 180.30302,391.1429 185.35353,389.00684 190.40404,387.9999 195.45454,384.5787 200.50505,382.92767 205.55556,380.7909 210.60606,376.82913 215.65656,376.1288 220.70706,374.42896 225.75757,370.16895 230.80807,368.5529 235.85858,366.94775 240.90909,363.4631 245.9596,361.48267 251.0101,359.48724 256.0606,361.72498 261.1111,358.34555 266.16162,359.22598 271.21213,356.65265 276.26263,353.95285 281.3131,350.79712 286.36365,350.14172 291.41412,347.7932 296.46466,345.74008 301.51514,346.52203 306.56567,345.86032 311.61615,343.4119 316.66666,339.55374 321.71716,338.2947 326.76767,337.69257 331.81818,331.89124 336.86868,326.9494 341.9192,334.86462 346.9697,332.19043 352.0202,328.25247 357.0707,326.8834 362.12122,333.4757 367.1717,332.68262 372.22223,333.12018 377.2727,332.7956 382.32324,330.3854 387.37372,329.83585 392.42426,331.2791 397.47473,321.2206 402.52527,328.83115 407.57574,315.01974 412.62625,323.7542 417.67676,321.46918 422.72726,319.83624 427.77777,316.7635 432.82828,319.71045 437.87878,317.6619 442.9293,304.23376 447.9798,316.65057 453.0303,314.1922 458.0808,297.10272 463.13132,289.01602 468.18182,304.83792 473.23233,303.72974 478.28284,302.10678 483.3333,303.98163 488.38382,300.64743 493.43433,289.94196 498.48483,299.22104 503.53534,294.16748 508.58585,297.20752 513.63635,298.09308 518.6869,292.4867 523.73737,286.49506 528.78784,288.54675 533.8384,288.26657 538.8889,288.32574 543.9394,274.9172 548.98987,289.2854 554.0404,283.78467 559.09094,281.7473 564.1414,281.9845 569.1919,278.1745 574.24243,276.6533 579.2929,267.29285 584.3434,252.17332 589.3939,270.07254 594.44446,270.0495 599.49493,272.08282 604.5454,269.37012 609.59595,266.06033 614.6465,268.1273 619.69696,257.947 624.74744,254.19934 629.798,255.24225 634.8485,260.76483 639.899,251.95924 644.94946,244.79282 650,252.62692 " stroke="black"/>
<text alignment-baseline="middle" class="poloto_text" font-size="large" text-anchor="start" x="675" y="350">
sweep
</text>
<line class="poloto5stroke" x1="680" x2="730" y1="331.25" y2="331.25"/>
<polyline class="poloto5stroke" fill="none" points="150,399.7897 155.0505,399.43994 160.10101,398.28885 165.15152,396.75195 170.20203,395.0684 175.25253,393.1609 180.30302,391.29755 185.35353,389.09387 190.40404,386.9306 195.45454,380.2425 200.50505,381.49866 205.55556,379.41876 210.60606,376.09528 215.65656,374.27353 220.70706,371.84924 225.75757,368.99448 230.80807,365.66635 235.85858,362.94186 240.90909,359.8488 245.9596,356.83295 251.0101,353.5109 256.0606,350.16428 261.1111,346.75183 266.16162,343.4175 271.21213,339.71725 276.26263,336.21085 281.3131,332.85403 286.36365,329.5681 291.41412,325.95816 296.46466,322.17456 301.51514,317.9555 306.56567,314.74896 311.61615,310.62595 316.66666,306.06564 321.71716,302.47824 326.76767,298.0029 331.81818,291.17572 336.86868,289.25726 341.9192,285.42688 346.9697,280.70462 352.0202,276.83292 357.0707,273.04578 362.12122,268.59326 367.1717,263.7166 372.22223,259.19708 377.2727,254.79199 382.32324,250.63002 387.37372,246.40321 392.42426,241.39096 397.47473,236.84154 402.52527,232.30225 407.57574,226.843 412.62625,222.27554 417.67676,216.59152 422.72726,211.77113 427.77777,207.51683 432.82828,202.1469 437.87878,196.62758 442.9293,191.18234 447.9798,181.71877 453.0303,182.60223 " stroke="black"/>
<text alignment-baseline="start" class="poloto_text" font-size="x-large" text-anchor="middle" x="400" y="37.5">
Bench of space partitioning algs with abspiral(x,0.05)
</text>
<text alignment-baseline="start" class="poloto_text" font-size="large" text-anchor="middle" x="400" y="481.25">
Number of Elements
</text>
<text alignment-baseline="start" class="poloto_text" font-size="large" text-anchor="middle" transform="rotate(-90,37.5,250)" x="37.5" y="250">
Time in Seconds
</text>
<path class="poloto_axis_lines" d="M150,100 L150,400 L650,400" stroke="black"/>
</svg>