<svg class="poloto" width="800" height="500" viewBox="0 0 800 500" xmlns="http://www.w3.org/2000/svg"><circle  r="1e5" class="poloto_background" /><text  class="poloto_text poloto_legend_text" x="675" y="100" >brocc</text><line  class="poloto_scatter poloto_legend_icon poloto0stroke poloto0legend" stroke="black" x1="685" x2="685" y1="81.25" y2="81.25" /><path  class="poloto_scatter poloto0stroke" d=" M 150.00 332.42 h 0 M 155.05 334.48 h 0 M 160.10 336.66 h 0 M 165.15 337.98 h 0 M 170.20 339.62 h 0 M 175.25 341.27 h 0 M 180.30 341.86 h 0 M 185.35 343.76 h 0 M 190.40 345.04 h 0 M 195.45 346.76 h 0 M 200.51 347.84 h 0 M 205.56 349.34 h 0 M 210.61 350.62 h 0 M 215.66 351.77 h 0 M 220.71 352.79 h 0 M 225.76 353.84 h 0 M 230.81 355.06 h 0 M 235.86 355.97 h 0 M 240.91 357.17 h 0 M 245.96 357.83 h 0 M 251.01 358.85 h 0 M 256.06 359.37 h 0 M 261.11 360.59 h 0 M 266.16 361.46 h 0 M 271.21 362.27 h 0 M 276.26 362.96 h 0 M 281.31 364.16 h 0 M 286.36 364.36 h 0 M 291.41 364.91 h 0 M 296.46 365.71 h 0 M 301.52 366.51 h 0 M 306.57 367.09 h 0 M 311.62 367.83 h 0 M 316.67 368.16 h 0 M 321.72 368.80 h 0 M 326.77 369.46 h 0 M 331.82 369.82 h 0 M 336.87 370.31 h 0 M 341.92 370.50 h 0 M 346.97 371.02 h 0 M 352.02 371.55 h 0 M 357.07 371.87 h 0 M 362.12 372.12 h 0 M 367.17 372.78 h 0 M 372.22 372.91 h 0 M 377.27 373.56 h 0 M 382.32 373.64 h 0 M 387.37 373.94 h 0 M 392.42 374.71 h 0 M 397.47 374.42 h 0 M 402.53 375.23 h 0 M 407.58 375.17 h 0 M 412.63 375.91 h 0 M 417.68 376.03 h 0 M 422.73 376.67 h 0 M 427.78 377.20 h 0 M 432.83 376.70 h 0 M 437.88 377.72 h 0 M 442.93 377.70 h 0 M 447.98 377.33 h 0 M 453.03 377.99 h 0 M 458.08 378.56 h 0 M 463.13 377.66 h 0 M 468.18 378.89 h 0 M 473.23 379.22 h 0 M 478.28 379.12 h 0 M 483.33 379.58 h 0 M 488.38 379.80 h 0 M 493.43 379.73 h 0 M 498.48 379.74 h 0 M 503.54 380.29 h 0 M 508.59 380.29 h 0 M 513.64 380.67 h 0 M 518.69 380.96 h 0 M 523.74 380.97 h 0 M 528.79 381.14 h 0 M 533.84 381.11 h 0 M 538.89 377.70 h 0 M 543.94 381.84 h 0 M 548.99 381.69 h 0 M 554.04 382.18 h 0 M 559.09 381.96 h 0 M 564.14 382.37 h 0 M 569.19 382.62 h 0 M 574.24 382.80 h 0 M 579.29 383.03 h 0 M 584.34 382.60 h 0 M 589.39 383.19 h 0 M 594.44 383.37 h 0 M 599.49 383.03 h 0 M 604.55 383.60 h 0 M 609.60 383.73 h 0 M 614.65 383.86 h 0 M 619.70 383.48 h 0 M 624.75 383.52 h 0 M 629.80 384.24 h 0 M 634.85 384.25 h 0 M 639.90 384.25 h 0 M 644.95 384.46 h 0 M 650.00 384.28 h 0" /><text  class="poloto_text poloto_legend_text" x="675" y="150" >brocc_par</text><line  class="poloto_scatter poloto_legend_icon poloto1stroke poloto1legend" stroke="black" x1="685" x2="685" y1="131.25" y2="131.25" /><path  class="poloto_scatter poloto1stroke" d=" M 150.00 369.19 h 0 M 155.05 370.07 h 0 M 160.10 371.47 h 0 M 165.15 372.47 h 0 M 170.20 373.03 h 0 M 175.25 373.97 h 0 M 180.30 374.44 h 0 M 185.35 374.46 h 0 M 190.40 375.67 h 0 M 195.45 376.40 h 0 M 200.51 376.68 h 0 M 205.56 378.45 h 0 M 210.61 378.28 h 0 M 215.66 378.60 h 0 M 220.71 379.95 h 0 M 225.76 379.15 h 0 M 230.81 380.44 h 0 M 235.86 380.75 h 0 M 240.91 381.66 h 0 M 245.96 381.98 h 0 M 251.01 382.04 h 0 M 256.06 382.83 h 0 M 261.11 383.58 h 0 M 266.16 383.56 h 0 M 271.21 383.79 h 0 M 276.26 384.73 h 0 M 281.31 385.17 h 0 M 286.36 384.73 h 0 M 291.41 385.01 h 0 M 296.46 385.54 h 0 M 301.52 385.66 h 0 M 306.57 386.01 h 0 M 311.62 386.50 h 0 M 316.67 386.38 h 0 M 321.72 386.54 h 0 M 326.77 386.99 h 0 M 331.82 387.28 h 0 M 336.87 387.43 h 0 M 341.92 387.62 h 0 M 346.97 387.61 h 0 M 352.02 388.26 h 0 M 357.07 388.29 h 0 M 362.12 388.49 h 0 M 367.17 385.59 h 0 M 372.22 388.39 h 0 M 377.27 388.70 h 0 M 382.32 388.62 h 0 M 387.37 388.83 h 0 M 392.42 389.51 h 0 M 397.47 389.58 h 0 M 402.53 389.50 h 0 M 407.58 389.47 h 0 M 412.63 389.83 h 0 M 417.68 389.94 h 0 M 422.73 390.22 h 0 M 427.78 390.19 h 0 M 432.83 390.42 h 0 M 437.88 390.62 h 0 M 442.93 390.54 h 0 M 447.98 390.70 h 0 M 453.03 390.92 h 0 M 458.08 390.66 h 0 M 463.13 390.94 h 0 M 468.18 391.02 h 0 M 473.23 391.22 h 0 M 478.28 391.10 h 0 M 483.33 391.23 h 0 M 488.38 391.27 h 0 M 493.43 391.28 h 0 M 498.48 390.98 h 0 M 503.54 391.65 h 0 M 508.59 391.74 h 0 M 513.64 391.76 h 0 M 518.69 391.96 h 0 M 523.74 391.88 h 0 M 528.79 391.93 h 0 M 533.84 392.22 h 0 M 538.89 392.38 h 0 M 543.94 392.06 h 0 M 548.99 392.22 h 0 M 554.04 392.49 h 0 M 559.09 392.54 h 0 M 564.14 392.50 h 0 M 569.19 392.50 h 0 M 574.24 392.76 h 0 M 579.29 392.73 h 0 M 584.34 392.97 h 0 M 589.39 392.65 h 0 M 594.44 393.02 h 0 M 599.49 392.87 h 0 M 604.55 393.14 h 0 M 609.60 393.08 h 0 M 614.65 393.07 h 0 M 619.70 393.25 h 0 M 624.75 393.18 h 0 M 629.80 393.15 h 0 M 634.85 393.33 h 0 M 639.90 393.44 h 0 M 644.95 393.21 h 0 M 650.00 393.37 h 0" /><text  class="poloto_text poloto_legend_text" x="675" y="200" >naive</text><line  class="poloto_scatter poloto_legend_icon poloto2stroke poloto2legend" stroke="black" x1="685" x2="685" y1="181.25" y2="181.25" /><path  class="poloto_scatter poloto2stroke" d=" M 150.00 400.00 h 0 M 155.05 400.00 h 0 M 160.10 400.00 h 0 M 165.15 400.00 h 0 M 170.20 400.00 h 0 M 175.25 400.00 h 0 M 180.30 400.00 h 0 M 185.35 400.00 h 0 M 190.40 400.00 h 0 M 195.45 400.00 h 0 M 200.51 400.00 h 0 M 205.56 400.00 h 0 M 210.61 400.00 h 0 M 215.66 400.00 h 0 M 220.71 400.00 h 0 M 225.76 400.00 h 0 M 230.81 400.00 h 0 M 235.86 400.00 h 0 M 240.91 400.00 h 0 M 245.96 400.00 h 0 M 251.01 400.00 h 0 M 256.06 400.00 h 0 M 261.11 400.00 h 0 M 266.16 400.00 h 0 M 271.21 400.00 h 0 M 276.26 400.00 h 0 M 281.31 400.00 h 0 M 286.36 400.00 h 0 M 291.41 400.00 h 0 M 296.46 400.00 h 0 M 301.52 400.00 h 0 M 306.57 400.00 h 0 M 311.62 400.00 h 0 M 316.67 400.00 h 0 M 321.72 400.00 h 0 M 326.77 400.00 h 0 M 331.82 400.00 h 0 M 336.87 400.00 h 0 M 341.92 400.00 h 0 M 346.97 400.00 h 0 M 352.02 400.00 h 0 M 357.07 400.00 h 0 M 362.12 400.00 h 0 M 367.17 400.00 h 0 M 372.22 400.00 h 0 M 377.27 400.00 h 0 M 382.32 400.00 h 0 M 387.37 400.00 h 0 M 392.42 400.00 h 0 M 397.47 400.00 h 0 M 402.53 400.00 h 0 M 407.58 400.00 h 0 M 412.63 400.00 h 0 M 417.68 400.00 h 0 M 422.73 400.00 h 0 M 427.78 400.00 h 0 M 432.83 400.00 h 0 M 437.88 400.00 h 0 M 442.93 400.00 h 0 M 447.98 400.00 h 0 M 453.03 400.00 h 0 M 458.08 400.00 h 0 M 463.13 400.00 h 0 M 468.18 400.00 h 0 M 473.23 400.00 h 0 M 478.28 400.00 h 0 M 483.33 400.00 h 0 M 488.38 400.00 h 0 M 493.43 400.00 h 0 M 498.48 400.00 h 0 M 503.54 400.00 h 0 M 508.59 400.00 h 0 M 513.64 400.00 h 0 M 518.69 400.00 h 0 M 523.74 400.00 h 0 M 528.79 400.00 h 0 M 533.84 400.00 h 0 M 538.89 400.00 h 0 M 543.94 400.00 h 0 M 548.99 400.00 h 0 M 554.04 400.00 h 0 M 559.09 400.00 h 0 M 564.14 400.00 h 0 M 569.19 400.00 h 0 M 574.24 400.00 h 0 M 579.29 400.00 h 0 M 584.34 400.00 h 0 M 589.39 400.00 h 0 M 594.44 400.00 h 0 M 599.49 400.00 h 0 M 604.55 400.00 h 0 M 609.60 400.00 h 0 M 614.65 400.00 h 0 M 619.70 400.00 h 0 M 624.75 400.00 h 0 M 629.80 400.00 h 0 M 634.85 400.00 h 0 M 639.90 400.00 h 0 M 644.95 400.00 h 0 M 650.00 400.00 h 0" /><text  class="poloto_text poloto_legend_text" x="675" y="250" >nosort</text><line  class="poloto_scatter poloto_legend_icon poloto3stroke poloto3legend" stroke="black" x1="685" x2="685" y1="231.25" y2="231.25" /><path  class="poloto_scatter poloto3stroke" d=" M 150.00 212.35 h 0 M 155.05 219.91 h 0 M 160.10 227.06 h 0 M 165.15 230.23 h 0 M 170.20 239.38 h 0 M 175.25 241.61 h 0 M 180.30 242.23 h 0 M 185.35 246.71 h 0 M 190.40 251.98 h 0 M 195.45 253.41 h 0 M 200.51 256.96 h 0 M 205.56 261.20 h 0 M 210.61 267.31 h 0 M 215.66 269.78 h 0 M 220.71 272.72 h 0 M 225.76 273.35 h 0 M 230.81 278.31 h 0 M 235.86 274.44 h 0 M 240.91 283.31 h 0 M 245.96 284.26 h 0 M 251.01 281.39 h 0 M 256.06 290.75 h 0 M 261.11 292.75 h 0 M 266.16 294.45 h 0 M 271.21 297.73 h 0 M 276.26 299.22 h 0 M 281.31 301.55 h 0 M 286.36 303.04 h 0 M 291.41 304.97 h 0 M 296.46 306.43 h 0 M 301.52 309.65 h 0 M 306.57 310.05 h 0 M 311.62 311.08 h 0 M 316.67 312.17 h 0 M 321.72 316.08 h 0 M 326.77 315.92 h 0 M 331.82 317.93 h 0 M 336.87 319.28 h 0 M 341.92 318.73 h 0 M 346.97 321.43 h 0 M 352.02 323.89 h 0 M 357.07 323.16 h 0 M 362.12 325.84 h 0 M 367.17 325.99 h 0 M 372.22 328.54 h 0 M 377.27 328.18 h 0 M 382.32 329.33 h 0 M 387.37 331.67 h 0 M 392.42 331.30 h 0 M 397.47 331.64 h 0 M 402.53 331.90 h 0 M 407.58 333.25 h 0 M 412.63 334.68 h 0 M 417.68 334.74 h 0 M 422.73 336.72 h 0 M 427.78 337.52 h 0 M 432.83 338.50 h 0 M 437.88 338.83 h 0 M 442.93 340.25 h 0 M 447.98 341.54 h 0 M 453.03 341.54 h 0 M 458.08 342.05 h 0 M 463.13 342.14 h 0 M 468.18 343.16 h 0 M 473.23 343.40 h 0 M 478.28 344.78 h 0 M 483.33 345.33 h 0 M 488.38 345.57 h 0 M 493.43 346.42 h 0 M 498.48 346.70 h 0 M 503.54 347.80 h 0 M 508.59 347.74 h 0 M 513.64 348.23 h 0 M 518.69 349.47 h 0 M 523.74 350.07 h 0 M 528.79 349.31 h 0 M 533.84 350.87 h 0 M 538.89 351.31 h 0 M 543.94 351.88 h 0 M 548.99 352.07 h 0 M 554.04 352.70 h 0 M 559.09 352.78 h 0 M 564.14 354.16 h 0 M 569.19 354.09 h 0 M 574.24 354.63 h 0 M 579.29 355.04 h 0 M 584.34 355.16 h 0 M 589.39 355.75 h 0 M 594.44 355.71 h 0 M 599.49 355.73 h 0 M 604.55 357.11 h 0 M 609.60 357.62 h 0 M 614.65 357.76 h 0 M 619.70 357.70 h 0 M 624.75 358.42 h 0 M 629.80 358.38 h 0 M 634.85 358.93 h 0 M 639.90 358.89 h 0 M 644.95 360.14 h 0 M 650.00 360.15 h 0" /><text  class="poloto_text poloto_legend_text" x="675" y="300" >nosort_par</text><line  class="poloto_scatter poloto_legend_icon poloto4stroke poloto4legend" stroke="black" x1="685" x2="685" y1="281.25" y2="281.25" /><path  class="poloto_scatter poloto4stroke" d=" M 150.00 298.74 h 0 M 155.05 302.49 h 0 M 160.10 305.21 h 0 M 165.15 308.78 h 0 M 170.20 313.22 h 0 M 175.25 315.35 h 0 M 180.30 316.65 h 0 M 185.35 316.79 h 0 M 190.40 321.85 h 0 M 195.45 323.32 h 0 M 200.51 324.86 h 0 M 205.56 323.20 h 0 M 210.61 324.73 h 0 M 215.66 329.97 h 0 M 220.71 333.18 h 0 M 225.76 328.28 h 0 M 230.81 332.45 h 0 M 235.86 334.31 h 0 M 240.91 336.33 h 0 M 245.96 340.57 h 0 M 251.01 335.99 h 0 M 256.06 343.95 h 0 M 261.11 345.47 h 0 M 266.16 347.34 h 0 M 271.21 348.36 h 0 M 276.26 350.37 h 0 M 281.31 350.89 h 0 M 286.36 352.22 h 0 M 291.41 352.77 h 0 M 296.46 353.61 h 0 M 301.52 354.59 h 0 M 306.57 355.12 h 0 M 311.62 355.05 h 0 M 316.67 354.23 h 0 M 321.72 356.77 h 0 M 326.77 358.63 h 0 M 331.82 359.61 h 0 M 336.87 360.73 h 0 M 341.92 358.44 h 0 M 346.97 361.81 h 0 M 352.02 362.26 h 0 M 357.07 361.95 h 0 M 362.12 363.68 h 0 M 367.17 347.74 h 0 M 372.22 363.09 h 0 M 377.27 363.12 h 0 M 382.32 363.98 h 0 M 387.37 366.10 h 0 M 392.42 366.94 h 0 M 397.47 367.70 h 0 M 402.53 366.15 h 0 M 407.58 368.34 h 0 M 412.63 367.21 h 0 M 417.68 368.87 h 0 M 422.73 369.57 h 0 M 427.78 370.52 h 0 M 432.83 368.92 h 0 M 437.88 368.53 h 0 M 442.93 371.03 h 0 M 447.98 370.50 h 0 M 453.03 372.43 h 0 M 458.08 371.24 h 0 M 463.13 373.12 h 0 M 468.18 373.07 h 0 M 473.23 371.93 h 0 M 478.28 373.88 h 0 M 483.33 374.03 h 0 M 488.38 374.35 h 0 M 493.43 373.46 h 0 M 498.48 375.20 h 0 M 503.54 375.82 h 0 M 508.59 375.56 h 0 M 513.64 375.91 h 0 M 518.69 376.43 h 0 M 523.74 375.37 h 0 M 528.79 376.79 h 0 M 533.84 376.89 h 0 M 538.89 377.33 h 0 M 543.94 377.71 h 0 M 548.99 378.01 h 0 M 554.04 378.18 h 0 M 559.09 378.53 h 0 M 564.14 379.01 h 0 M 569.19 378.76 h 0 M 574.24 378.53 h 0 M 579.29 379.83 h 0 M 584.34 378.73 h 0 M 589.39 379.95 h 0 M 594.44 378.76 h 0 M 599.49 379.31 h 0 M 604.55 380.38 h 0 M 609.60 380.71 h 0 M 614.65 380.38 h 0 M 619.70 379.96 h 0 M 624.75 381.06 h 0 M 629.80 380.61 h 0 M 634.85 381.32 h 0 M 639.90 381.91 h 0 M 644.95 381.65 h 0 M 650.00 381.07 h 0" /><text  class="poloto_text poloto_legend_text" x="675" y="350" >sweep</text><line  class="poloto_scatter poloto_legend_icon poloto5stroke poloto5legend" stroke="black" x1="685" x2="685" y1="331.25" y2="331.25" /><path  class="poloto_scatter poloto5stroke" d=" M 150.00 100.00 h 0 M 155.05 109.72 h 0 M 160.10 121.59 h 0 M 165.15 127.91 h 0 M 170.20 125.18 h 0 M 175.25 141.64 h 0 M 180.30 144.46 h 0 M 185.35 152.37 h 0 M 190.40 158.57 h 0 M 195.45 162.81 h 0 M 200.51 160.95 h 0 M 205.56 174.29 h 0 M 210.61 178.10 h 0 M 215.66 171.47 h 0 M 220.71 187.81 h 0 M 225.76 191.22 h 0 M 230.81 196.64 h 0 M 235.86 200.17 h 0 M 240.91 193.84 h 0 M 245.96 205.70 h 0 M 251.01 211.07 h 0 M 256.06 213.88 h 0 M 261.11 217.29 h 0 M 266.16 220.53 h 0 M 271.21 223.94 h 0 M 276.26 227.57 h 0 M 281.31 219.36 h 0 M 286.36 232.88 h 0 M 291.41 236.15 h 0 M 296.46 238.42 h 0 M 301.52 240.63 h 0 M 306.57 242.93 h 0 M 311.62 236.55 h 0 M 316.67 246.72 h 0 M 321.72 241.99 h 0 M 326.77 245.26 h 0 M 331.82 253.86 h 0 M 336.87 256.08 h 0 M 341.92 258.38 h 0 M 346.97 259.69 h 0 M 352.02 260.84 h 0 M 357.07 264.46 h 0 M 362.12 265.33 h 0 M 367.17 267.49 h 0 M 372.22 268.79 h 0 M 377.27 270.79 h 0 M 382.32 271.03 h 0 M 387.37 272.00 h 0 M 392.42 273.78 h 0 M 397.47 276.59 h 0 M 402.53 277.67 h 0 M 407.58 279.77 h 0 M 412.63 280.99 h 0 M 417.68 282.03 h 0 M 422.73 283.06 h 0 M 427.78 284.69 h 0 M 432.83 285.47 h 0 M 437.88 286.82 h 0 M 442.93 288.77 h 0 M 447.98 289.03 h 0 M 453.03 291.50 h 0 M 458.08 292.52 h 0 M 463.13 292.43 h 0 M 468.18 294.18 h 0 M 473.23 293.93 h 0 M 478.28 296.05 h 0 M 483.33 297.09 h 0 M 488.38 297.88 h 0 M 493.43 298.58 h 0 M 498.48 299.83 h 0 M 503.54 300.12 h 0 M 508.59 295.64 h 0 M 513.64 296.27 h 0 M 518.69 302.64 h 0 M 523.74 303.97 h 0 M 528.79 303.98 h 0 M 533.84 305.83 h 0 M 538.89 306.70 h 0 M 543.94 305.82 h 0 M 548.99 308.48 h 0 M 554.04 308.59 h 0 M 559.09 309.85 h 0 M 564.14 310.37 h 0 M 569.19 310.99 h 0 M 574.24 312.01 h 0 M 579.29 312.55 h 0 M 584.34 312.84 h 0 M 589.39 313.62 h 0 M 594.44 314.74 h 0 M 599.49 315.43 h 0 M 604.55 315.67 h 0 M 609.60 316.12 h 0 M 614.65 316.64 h 0 M 619.70 317.29 h 0 M 624.75 317.52 h 0 M 629.80 317.95 h 0 M 634.85 316.65 h 0 M 639.90 319.54 h 0 M 644.95 320.08 h 0 M 650.00 320.87 h 0" /><text  class="poloto_labels poloto_text poloto_title" x="400" y="37.5" >Bench of space partitioning algs with abspiral(30_000,grow)</text><text  class="poloto_labels poloto_text poloto_xname" x="400" y="481.25" >Grow</text><text  class="poloto_labels poloto_text poloto_yname" transform="rotate(-90,37.5,250)" x="37.5" y="250" >Time in Seconds</text><text  class="poloto_tick_labels poloto_text" dominant-baseline="middle" text-anchor="start" x="150" y="70" ></text><line  class="poloto_axis_lines" stroke="black" x1="150" x2="144" y1="400" y2="400" /><text  class="poloto_tick_labels poloto_text" dominant-baseline="middle" text-anchor="end" x="135" y="400" >0e0</text><line  class="poloto_axis_lines" stroke="black" x1="150" x2="144" y1="335.669822533626" y2="335.669822533626" /><text  class="poloto_tick_labels poloto_text" dominant-baseline="middle" text-anchor="end" x="135" y="335.669822533626" >0.05</text><line  class="poloto_axis_lines" stroke="black" x1="150" x2="144" y1="271.33964506725204" y2="271.33964506725204" /><text  class="poloto_tick_labels poloto_text" dominant-baseline="middle" text-anchor="end" x="135" y="271.33964506725204" >0.10</text><line  class="poloto_axis_lines" stroke="black" x1="150" x2="144" y1="207.009467600878" y2="207.009467600878" /><text  class="poloto_tick_labels poloto_text" dominant-baseline="middle" text-anchor="end" x="135" y="207.009467600878" >0.15</text><line  class="poloto_axis_lines" stroke="black" x1="150" x2="144" y1="142.67929013450407" y2="142.67929013450407" /><text  class="poloto_tick_labels poloto_text" dominant-baseline="middle" text-anchor="end" x="135" y="142.67929013450407" >0.20</text><text  class="poloto_tick_labels poloto_text" dominant-baseline="middle" text-anchor="start" x="440.00000000000006" y="70" ></text><line  class="poloto_axis_lines" stroke="black" x1="150" x2="150" y1="400" y2="405" /><text  class="poloto_tick_labels poloto_text" dominant-baseline="start" text-anchor="middle" x="150" y="430" >0.20</text><line  class="poloto_axis_lines" stroke="black" x1="213.1313131313131" x2="213.1313131313131" y1="400" y2="405" /><text  class="poloto_tick_labels poloto_text" dominant-baseline="start" text-anchor="middle" x="213.1313131313131" y="430" >0.25</text><line  class="poloto_axis_lines" stroke="black" x1="276.26262626262627" x2="276.26262626262627" y1="400" y2="405" /><text  class="poloto_tick_labels poloto_text" dominant-baseline="start" text-anchor="middle" x="276.26262626262627" y="430" >0.30</text><line  class="poloto_axis_lines" stroke="black" x1="339.3939393939394" x2="339.3939393939394" y1="400" y2="405" /><text  class="poloto_tick_labels poloto_text" dominant-baseline="start" text-anchor="middle" x="339.3939393939394" y="430" >0.35</text><line  class="poloto_axis_lines" stroke="black" x1="402.5252525252525" x2="402.5252525252525" y1="400" y2="405" /><text  class="poloto_tick_labels poloto_text" dominant-baseline="start" text-anchor="middle" x="402.5252525252525" y="430" >0.40</text><line  class="poloto_axis_lines" stroke="black" x1="465.65656565656565" x2="465.65656565656565" y1="400" y2="405" /><text  class="poloto_tick_labels poloto_text" dominant-baseline="start" text-anchor="middle" x="465.65656565656565" y="430" >0.45</text><line  class="poloto_axis_lines" stroke="black" x1="528.7878787878788" x2="528.7878787878788" y1="400" y2="405" /><text  class="poloto_tick_labels poloto_text" dominant-baseline="start" text-anchor="middle" x="528.7878787878788" y="430" >0.50</text><line  class="poloto_axis_lines" stroke="black" x1="591.9191919191919" x2="591.9191919191919" y1="400" y2="405" /><text  class="poloto_tick_labels poloto_text" dominant-baseline="start" text-anchor="middle" x="591.9191919191919" y="430" >0.55</text><path  stroke="black" fill="none" class="poloto_axis_lines" style="stroke-dasharray:6.313131313131312;stroke-dashoffset:-0;" d=" M 150 400 L 650 400" /><path  stroke="black" fill="none" class="poloto_axis_lines" style="stroke-dasharray:6.433017746637399;stroke-dashoffset:-0;" d=" M 150 400 L 150 100" /></svg>