<svg class="poloto" width="800" height="500" viewBox="0 0 800 500" xmlns="http://www.w3.org/2000/svg"><circle  r="1e5" class="poloto_background" /><text  class="poloto_text poloto_legend_text" x="675" y="100" >brocc</text><line  class="poloto_line poloto_legend_icon poloto0stroke poloto0legend" stroke="black" x1="680" x2="730" y1="81.25" y2="81.25" /><path  class="poloto_line poloto0stroke" fill="none" stroke="black" d=" M 150.00 338.89 L 155.05 340.44 L 160.10 342.14 L 165.15 343.87 L 170.20 344.72 L 175.25 346.32 L 180.30 346.26 L 185.35 346.82 L 190.40 349.36 L 195.45 349.89 L 200.51 352.61 L 205.56 354.08 L 210.61 355.10 L 215.66 356.02 L 220.71 356.96 L 225.76 358.28 L 230.81 359.24 L 235.86 359.81 L 240.91 360.99 L 245.96 361.93 L 251.01 362.76 L 256.06 363.55 L 261.11 363.77 L 266.16 365.33 L 271.21 365.72 L 276.26 366.51 L 281.31 365.99 L 286.36 367.61 L 291.41 367.06 L 296.46 368.95 L 301.52 369.16 L 306.57 369.32 L 311.62 370.16 L 316.67 370.85 L 321.72 371.31 L 326.77 371.74 L 331.82 372.51 L 336.87 372.47 L 341.92 372.61 L 346.97 373.82 L 352.02 373.53 L 357.07 374.46 L 362.12 374.16 L 367.17 374.82 L 372.22 375.04 L 377.27 374.96 L 382.32 375.77 L 387.37 376.13 L 392.42 376.06 L 397.47 376.74 L 402.53 377.29 L 407.58 377.41 L 412.63 377.80 L 417.68 378.10 L 422.73 378.66 L 427.78 378.87 L 432.83 378.77 L 437.88 379.15 L 442.93 379.70 L 447.98 379.96 L 453.03 379.89 L 458.08 380.37 L 463.13 380.45 L 468.18 380.11 L 473.23 380.15 L 478.28 380.41 L 483.33 381.18 L 488.38 381.24 L 493.43 380.53 L 498.48 381.53 L 503.54 381.85 L 508.59 382.15 L 513.64 381.60 L 518.69 381.94 L 523.74 382.45 L 528.79 381.81 L 533.84 382.54 L 538.89 383.20 L 543.94 383.42 L 548.99 383.33 L 554.04 383.28 L 559.09 383.85 L 564.14 383.87 L 569.19 383.91 L 574.24 384.03 L 579.29 384.37 L 584.34 384.52 L 589.39 384.60 L 594.44 384.32 L 599.49 384.71 L 604.55 384.66 L 609.60 384.95 L 614.65 385.15 L 619.70 384.94 L 624.75 385.03 L 629.80 385.24 L 634.85 385.46 L 639.90 385.14 L 644.95 385.75 L 650.00 385.86" /><text  class="poloto_text poloto_legend_text" x="675" y="150" >brocc_par</text><line  class="poloto_line poloto_legend_icon poloto1stroke poloto1legend" stroke="black" x1="680" x2="730" y1="131.25" y2="131.25" /><path  class="poloto_line poloto1stroke" fill="none" stroke="black" d=" M 150.00 370.60 L 155.05 370.15 L 160.10 373.33 L 165.15 371.90 L 170.20 374.41 L 175.25 375.29 L 180.30 366.19 L 185.35 376.52 L 190.40 375.54 L 195.45 377.42 L 200.51 378.26 L 205.56 378.99 L 210.61 379.98 L 215.66 379.81 L 220.71 380.46 L 225.76 381.59 L 230.81 382.23 L 235.86 382.45 L 240.91 382.56 L 245.96 382.64 L 251.01 383.75 L 256.06 383.81 L 261.11 383.74 L 266.16 384.05 L 271.21 385.12 L 276.26 384.23 L 281.31 385.53 L 286.36 385.69 L 291.41 384.91 L 296.46 386.19 L 301.52 386.45 L 306.57 387.05 L 311.62 383.82 L 316.67 387.33 L 321.72 387.40 L 326.77 385.57 L 331.82 387.81 L 336.87 388.01 L 341.92 387.56 L 346.97 388.50 L 352.02 388.90 L 357.07 388.80 L 362.12 389.04 L 367.17 388.77 L 372.22 389.41 L 377.27 389.49 L 382.32 389.48 L 387.37 389.63 L 392.42 389.16 L 397.47 389.71 L 402.53 390.02 L 407.58 390.46 L 412.63 389.90 L 417.68 390.91 L 422.73 390.78 L 427.78 389.82 L 432.83 391.12 L 437.88 390.44 L 442.93 391.29 L 447.98 391.53 L 453.03 391.26 L 458.08 391.58 L 463.13 391.70 L 468.18 390.87 L 473.23 391.63 L 478.28 392.00 L 483.33 391.90 L 488.38 392.01 L 493.43 391.95 L 498.48 391.52 L 503.54 392.16 L 508.59 392.33 L 513.64 392.34 L 518.69 392.61 L 523.74 392.49 L 528.79 392.45 L 533.84 392.03 L 538.89 391.75 L 543.94 392.84 L 548.99 392.89 L 554.04 392.87 L 559.09 392.70 L 564.14 393.25 L 569.19 393.25 L 574.24 393.37 L 579.29 393.33 L 584.34 393.23 L 589.39 393.47 L 594.44 392.64 L 599.49 393.51 L 604.55 393.55 L 609.60 393.74 L 614.65 393.80 L 619.70 393.69 L 624.75 393.47 L 629.80 393.33 L 634.85 393.94 L 639.90 393.78 L 644.95 393.79 L 650.00 394.04" /><text  class="poloto_text poloto_legend_text" x="675" y="200" >naive</text><line  class="poloto_line poloto_legend_icon poloto2stroke poloto2legend" stroke="black" x1="680" x2="730" y1="181.25" y2="181.25" /><path  class="poloto_line poloto2stroke" fill="none" stroke="black" d=" M 150.00 400.00 L 155.05 400.00 L 160.10 400.00 L 165.15 400.00 L 170.20 400.00 L 175.25 400.00 L 180.30 400.00 L 185.35 400.00 L 190.40 400.00 L 195.45 400.00 L 200.51 400.00 L 205.56 400.00 L 210.61 400.00 L 215.66 400.00 L 220.71 400.00 L 225.76 400.00 L 230.81 400.00 L 235.86 400.00 L 240.91 400.00 L 245.96 400.00 L 251.01 400.00 L 256.06 400.00 L 261.11 400.00 L 266.16 400.00 L 271.21 400.00 L 276.26 400.00 L 281.31 400.00 L 286.36 400.00 L 291.41 400.00 L 296.46 400.00 L 301.52 400.00 L 306.57 400.00 L 311.62 400.00 L 316.67 400.00 L 321.72 400.00 L 326.77 400.00 L 331.82 400.00 L 336.87 400.00 L 341.92 400.00 L 346.97 400.00 L 352.02 400.00 L 357.07 400.00 L 362.12 400.00 L 367.17 400.00 L 372.22 400.00 L 377.27 400.00 L 382.32 400.00 L 387.37 400.00 L 392.42 400.00 L 397.47 400.00 L 402.53 400.00 L 407.58 400.00 L 412.63 400.00 L 417.68 400.00 L 422.73 400.00 L 427.78 400.00 L 432.83 400.00 L 437.88 400.00 L 442.93 400.00 L 447.98 400.00 L 453.03 400.00 L 458.08 400.00 L 463.13 400.00 L 468.18 400.00 L 473.23 400.00 L 478.28 400.00 L 483.33 400.00 L 488.38 400.00 L 493.43 400.00 L 498.48 400.00 L 503.54 400.00 L 508.59 400.00 L 513.64 400.00 L 518.69 400.00 L 523.74 400.00 L 528.79 400.00 L 533.84 400.00 L 538.89 400.00 L 543.94 400.00 L 548.99 400.00 L 554.04 400.00 L 559.09 400.00 L 564.14 400.00 L 569.19 400.00 L 574.24 400.00 L 579.29 400.00 L 584.34 400.00 L 589.39 400.00 L 594.44 400.00 L 599.49 400.00 L 604.55 400.00 L 609.60 400.00 L 614.65 400.00 L 619.70 400.00 L 624.75 400.00 L 629.80 400.00 L 634.85 400.00 L 639.90 400.00 L 644.95 400.00 L 650.00 400.00" /><text  class="poloto_text poloto_legend_text" x="675" y="250" >nosort</text><line  class="poloto_line poloto_legend_icon poloto3stroke poloto3legend" stroke="black" x1="680" x2="730" y1="231.25" y2="231.25" /><path  class="poloto_line poloto3stroke" fill="none" stroke="black" d=" M 150.00 220.39 L 155.05 234.40 L 160.10 237.91 L 165.15 242.26 L 170.20 250.33 L 175.25 253.25 L 180.30 247.83 L 185.35 258.67 L 190.40 258.30 L 195.45 263.99 L 200.51 267.43 L 205.56 270.97 L 210.61 276.99 L 215.66 276.72 L 220.71 281.44 L 225.76 282.89 L 230.81 286.51 L 235.86 289.23 L 240.91 292.47 L 245.96 293.20 L 251.01 296.31 L 256.06 297.99 L 261.11 300.68 L 266.16 302.04 L 271.21 304.98 L 276.26 304.32 L 281.31 306.88 L 286.36 307.62 L 291.41 309.88 L 296.46 312.90 L 301.52 314.04 L 306.57 313.66 L 311.62 313.71 L 316.67 318.50 L 321.72 321.50 L 326.77 321.83 L 331.82 323.88 L 336.87 323.22 L 341.92 325.77 L 346.97 326.19 L 352.02 328.15 L 357.07 328.37 L 362.12 329.75 L 367.17 329.54 L 372.22 331.63 L 377.27 332.11 L 382.32 331.93 L 387.37 334.32 L 392.42 335.32 L 397.47 335.76 L 402.53 337.04 L 407.58 337.05 L 412.63 338.68 L 417.68 339.40 L 422.73 340.67 L 427.78 340.60 L 432.83 341.37 L 437.88 342.69 L 442.93 344.21 L 447.98 345.45 L 453.03 345.01 L 458.08 346.05 L 463.13 344.12 L 468.18 344.84 L 473.23 346.72 L 478.28 344.58 L 483.33 348.76 L 488.38 347.96 L 493.43 349.08 L 498.48 350.24 L 503.54 350.85 L 508.59 351.32 L 513.64 351.60 L 518.69 352.42 L 523.74 353.72 L 528.79 352.83 L 533.84 353.71 L 538.89 354.69 L 543.94 354.78 L 548.99 355.32 L 554.04 355.56 L 559.09 356.95 L 564.14 357.40 L 569.19 357.11 L 574.24 357.43 L 579.29 358.21 L 584.34 358.69 L 589.39 358.98 L 594.44 359.27 L 599.49 359.19 L 604.55 359.65 L 609.60 360.14 L 614.65 360.18 L 619.70 360.18 L 624.75 360.93 L 629.80 361.35 L 634.85 361.14 L 639.90 362.30 L 644.95 362.77 L 650.00 362.47" /><text  class="poloto_text poloto_legend_text" x="675" y="300" >nosort_par</text><line  class="poloto_line poloto_legend_icon poloto4stroke poloto4legend" stroke="black" x1="680" x2="730" y1="281.25" y2="281.25" /><path  class="poloto_line poloto4stroke" fill="none" stroke="black" d=" M 150.00 291.62 L 155.05 299.76 L 160.10 296.49 L 165.15 299.99 L 170.20 309.55 L 175.25 307.21 L 180.30 309.81 L 185.35 312.70 L 190.40 313.02 L 195.45 312.93 L 200.51 323.59 L 205.56 324.30 L 210.61 327.93 L 215.66 314.80 L 220.71 333.17 L 225.76 333.88 L 230.81 335.45 L 235.86 334.17 L 240.91 339.98 L 245.96 339.45 L 251.01 342.71 L 256.06 343.73 L 261.11 345.81 L 266.16 347.63 L 271.21 349.20 L 276.26 349.04 L 281.31 350.45 L 286.36 350.71 L 291.41 352.22 L 296.46 350.54 L 301.52 345.82 L 306.57 352.49 L 311.62 353.28 L 316.67 357.79 L 321.72 356.13 L 326.77 359.47 L 331.82 360.26 L 336.87 359.31 L 341.92 355.87 L 346.97 362.25 L 352.02 363.04 L 357.07 361.12 L 362.12 362.25 L 367.17 364.68 L 372.22 365.02 L 377.27 365.81 L 382.32 362.76 L 387.37 364.99 L 392.42 365.99 L 397.47 367.13 L 402.53 368.01 L 407.58 360.19 L 412.63 368.60 L 417.68 368.23 L 422.73 370.32 L 427.78 368.46 L 432.83 371.44 L 437.88 371.53 L 442.93 370.19 L 447.98 372.40 L 453.03 372.54 L 458.08 372.22 L 463.13 371.18 L 468.18 371.89 L 473.23 374.15 L 478.28 373.37 L 483.33 373.58 L 488.38 373.00 L 493.43 373.05 L 498.48 375.64 L 503.54 375.72 L 508.59 376.31 L 513.64 376.06 L 518.69 376.76 L 523.74 375.97 L 528.79 374.28 L 533.84 375.96 L 538.89 376.80 L 543.94 377.91 L 548.99 376.87 L 554.04 377.27 L 559.09 378.68 L 564.14 378.17 L 569.19 378.15 L 574.24 378.46 L 579.29 379.89 L 584.34 379.20 L 589.39 379.03 L 594.44 379.35 L 599.49 379.36 L 604.55 380.68 L 609.60 380.67 L 614.65 380.36 L 619.70 379.32 L 624.75 380.82 L 629.80 381.70 L 634.85 381.86 L 639.90 380.85 L 644.95 382.24 L 650.00 382.04" /><text  class="poloto_text poloto_legend_text" x="675" y="350" >sweep</text><line  class="poloto_line poloto_legend_icon poloto5stroke poloto5legend" stroke="black" x1="680" x2="730" y1="331.25" y2="331.25" /><path  class="poloto_line poloto5stroke" fill="none" stroke="black" d=" M 150.00 100.00 L 155.05 104.93 L 160.10 116.79 L 165.15 122.16 L 170.20 125.14 L 175.25 128.57 L 180.30 138.57 L 185.35 143.76 L 190.40 151.90 L 195.45 149.88 L 200.51 166.06 L 205.56 169.82 L 210.61 176.17 L 215.66 176.26 L 220.71 183.50 L 225.76 187.81 L 230.81 193.26 L 235.86 197.92 L 240.91 202.50 L 245.96 205.22 L 251.01 209.34 L 256.06 212.89 L 261.11 215.73 L 266.16 219.32 L 271.21 215.69 L 276.26 217.23 L 281.31 219.02 L 286.36 230.19 L 291.41 229.67 L 296.46 237.25 L 301.52 236.08 L 306.57 236.67 L 311.62 241.14 L 316.67 246.75 L 321.72 248.44 L 326.77 251.68 L 331.82 253.65 L 336.87 255.67 L 341.92 252.74 L 346.97 259.69 L 352.02 255.54 L 357.07 263.72 L 362.12 263.72 L 367.17 267.56 L 372.22 265.52 L 377.27 270.46 L 382.32 269.15 L 387.37 271.85 L 392.42 274.30 L 397.47 276.62 L 402.53 278.40 L 407.58 280.25 L 412.63 281.64 L 417.68 282.57 L 422.73 283.72 L 427.78 282.56 L 432.83 286.87 L 437.88 287.97 L 442.93 287.13 L 447.98 291.06 L 453.03 292.01 L 458.08 292.38 L 463.13 293.65 L 468.18 291.41 L 473.23 295.44 L 478.28 288.60 L 483.33 297.77 L 488.38 298.78 L 493.43 296.97 L 498.48 300.30 L 503.54 295.72 L 508.59 302.53 L 513.64 302.93 L 518.69 304.19 L 523.74 305.59 L 528.79 300.00 L 533.84 307.07 L 538.89 307.10 L 543.94 308.30 L 548.99 308.70 L 554.04 309.99 L 559.09 310.92 L 564.14 311.55 L 569.19 312.26 L 574.24 312.93 L 579.29 313.98 L 584.34 313.54 L 589.39 314.71 L 594.44 315.58 L 599.49 316.25 L 604.55 316.92 L 609.60 317.33 L 614.65 318.11 L 619.70 317.42 L 624.75 318.90 L 629.80 319.43 L 634.85 320.57 L 639.90 320.71 L 644.95 321.72 L 650.00 321.95" /><text  class="poloto_labels poloto_text poloto_title" x="400" y="37.5" >Bench of space partitioning algs with abspiral(30_000,grow)</text><text  class="poloto_labels poloto_text poloto_xname" x="400" y="481.25" >Grow</text><text  class="poloto_labels poloto_text poloto_yname" transform="rotate(-90,37.5,250)" x="37.5" y="250" >Time in Seconds</text><text  class="poloto_tick_labels poloto_text" dominant-baseline="middle" text-anchor="start" x="440.00000000000006" y="70" ></text><line  class="poloto_axis_lines" stroke="black" x1="150" x2="150" y1="400" y2="405" /><text  class="poloto_tick_labels poloto_text" dominant-baseline="start" text-anchor="middle" x="150" y="430" >0.20</text><line  class="poloto_axis_lines" stroke="black" x1="213.1313131313131" x2="213.1313131313131" y1="400" y2="405" /><text  class="poloto_tick_labels poloto_text" dominant-baseline="start" text-anchor="middle" x="213.1313131313131" y="430" >0.25</text><line  class="poloto_axis_lines" stroke="black" x1="276.26262626262627" x2="276.26262626262627" y1="400" y2="405" /><text  class="poloto_tick_labels poloto_text" dominant-baseline="start" text-anchor="middle" x="276.26262626262627" y="430" >0.30</text><line  class="poloto_axis_lines" stroke="black" x1="339.3939393939394" x2="339.3939393939394" y1="400" y2="405" /><text  class="poloto_tick_labels poloto_text" dominant-baseline="start" text-anchor="middle" x="339.3939393939394" y="430" >0.35</text><line  class="poloto_axis_lines" stroke="black" x1="402.5252525252525" x2="402.5252525252525" y1="400" y2="405" /><text  class="poloto_tick_labels poloto_text" dominant-baseline="start" text-anchor="middle" x="402.5252525252525" y="430" >0.40</text><line  class="poloto_axis_lines" stroke="black" x1="465.65656565656565" x2="465.65656565656565" y1="400" y2="405" /><text  class="poloto_tick_labels poloto_text" dominant-baseline="start" text-anchor="middle" x="465.65656565656565" y="430" >0.45</text><line  class="poloto_axis_lines" stroke="black" x1="528.7878787878788" x2="528.7878787878788" y1="400" y2="405" /><text  class="poloto_tick_labels poloto_text" dominant-baseline="start" text-anchor="middle" x="528.7878787878788" y="430" >0.50</text><line  class="poloto_axis_lines" stroke="black" x1="591.9191919191919" x2="591.9191919191919" y1="400" y2="405" /><text  class="poloto_tick_labels poloto_text" dominant-baseline="start" text-anchor="middle" x="591.9191919191919" y="430" >0.55</text><text  class="poloto_tick_labels poloto_text" dominant-baseline="middle" text-anchor="start" x="150" y="70" ></text><line  class="poloto_axis_lines" stroke="black" x1="150" x2="144" y1="400" y2="400" /><text  class="poloto_tick_labels poloto_text" dominant-baseline="middle" text-anchor="end" x="135" y="400" >0e0</text><line  class="poloto_axis_lines" stroke="black" x1="150" x2="144" y1="340.04966813054983" y2="340.04966813054983" /><text  class="poloto_tick_labels poloto_text" dominant-baseline="middle" text-anchor="end" x="135" y="340.04966813054983" >0.05</text><line  class="poloto_axis_lines" stroke="black" x1="150" x2="144" y1="280.0993362610997" y2="280.0993362610997" /><text  class="poloto_tick_labels poloto_text" dominant-baseline="middle" text-anchor="end" x="135" y="280.0993362610997" >0.10</text><line  class="poloto_axis_lines" stroke="black" x1="150" x2="144" y1="220.14900439164956" y2="220.14900439164956" /><text  class="poloto_tick_labels poloto_text" dominant-baseline="middle" text-anchor="end" x="135" y="220.14900439164956" >0.15</text><line  class="poloto_axis_lines" stroke="black" x1="150" x2="144" y1="160.19867252219944" y2="160.19867252219944" /><text  class="poloto_tick_labels poloto_text" dominant-baseline="middle" text-anchor="end" x="135" y="160.19867252219944" >0.20</text><line  class="poloto_axis_lines" stroke="black" x1="150" x2="144" y1="100.24834065274928" y2="100.24834065274928" /><text  class="poloto_tick_labels poloto_text" dominant-baseline="middle" text-anchor="end" x="135" y="100.24834065274928" >0.25</text><path  stroke="black" fill="none" class="poloto_axis_lines" style="stroke-dasharray:6.313131313131312;stroke-dashoffset:-0;" d=" M 150 400 L 650 400" /><path  stroke="black" fill="none" class="poloto_axis_lines" style="stroke-dasharray:5.995033186945014;stroke-dashoffset:-0;" d=" M 150 400 L 150 100" /></svg>