<svg  width="800" class="poloto_background poloto" height="500" viewBox="0 0 800 500" xmlns="http://www.w3.org/2000/svg" ><text  class="poloto_text" alignment-baseline="middle" text-anchor="start" font-size="large" x="675" y="100" >broccoli</text><line  class="poloto0stroke poloto0legend" stroke="black" x1="680" x2="730" y1="81.25" y2="81.25" /><path  class="poloto0stroke" fill="none" stroke="black" d=" M 150 400 L 155.05050505050505 399.5869233711499 L 160.1010101010101 399.1541424610618 L 165.15151515151516 398.5137087410034 L 170.2020202020202 397.81888763834235 L 175.25252525252526 397.180058791869 L 180.3030303030303 397.1291486353671 L 185.35353535353534 396.4730228180332 L 190.40404040404042 395.8283094350815 L 195.45454545454544 395.18832151324125 L 200.50505050505052 394.6242976077576 L 205.55555555555554 393.6920443741602 L 210.6060606060606 392.9932110875366 L 215.65656565656565 392.2189487424181 L 220.7070707070707 391.4154420341951 L 225.75757575757575 390.6781809411751 L 230.8080808080808 390.028296298894 L 235.85858585858585 389.15328355649496 L 240.9090909090909 388.4063040623214 L 245.95959595959596 387.8566348594591 L 251.010101010101 386.82059980069846 L 256.06060606060606 388.3323015581242 L 261.1111111111111 387.5764060995895 L 266.16161616161617 387.11830385071585 L 271.2121212121212 386.41777653086365 L 276.26262626262627 385.68042627820006 L 281.3131313131313 385.06567053550174 L 286.3636363636364 384.04987471584076 L 291.4141414141414 383.5916833073235 L 296.4646464646464 382.979245715359 L 301.5151515151515 382.0444068520969 L 306.5656565656566 381.3726780971311 L 311.6161616161616 380.7199403462545 L 316.66666666666663 379.996320678707 L 321.7171717171717 379.3128228507845 L 326.7676767676768 378.73524667947197 L 331.8181818181818 378.0157283555306 L 336.86868686868684 377.0492378187866 L 341.9191919191919 376.2386874987183 L 346.969696969697 375.6222377227914 L 352.020202020202 374.8179285777759 L 357.07070707070704 373.3630215133304 L 362.1212121212121 372.818434410154 L 367.1717171717172 371.99237031209736 L 372.22222222222223 371.15319974642995 L 377.27272727272725 371.0279304471564 L 382.32323232323233 369.81937147800835 L 387.37373737373736 368.9495299949387 L 392.4242424242424 368.33370433651703 L 397.47474747474746 367.4331027764016 L 402.52525252525254 366.68264605612717 L 407.57575757575756 365.3047729237617 L 412.62626262626264 364.8380221894577 L 417.67676767676767 364.4467005136487 L 422.72727272727275 363.2671184286742 L 427.77777777777777 362.2927818432924 L 432.8282828282828 361.54580234911884 L 437.8787878787879 360.6330750774723 L 442.9292929292929 359.85025340656705 L 447.979797979798 358.95776537402025 L 453.030303030303 358.3750179433783 L 458.0808080808081 356.84548425723034 L 463.1313131313131 356.1680492850734 L 468.1818181818182 355.79313298368885 L 473.2323232323232 355.1340648981158 L 478.2828282828283 353.72445093262473 L 483.3333333333333 353.5963285247556 L 488.3838383838384 352.3891961099053 L 493.4343434343434 351.502770933124 L 498.4848484848485 350.40049025916034 L 503.5353535353535 349.6788321037723 L 508.5858585858586 348.54793118420946 L 513.6363636363636 347.8377746228473 L 518.6868686868687 346.64767169992666 L 523.7373737373737 345.88232531916924 L 528.7878787878788 345.1945478283534 L 533.8383838383838 343.89647257701984 L 538.8888888888889 343.271730954237 L 543.939393939394 342.71296746772646 L 548.989898989899 341.62691384889996 L 554.040404040404 340.7996015158328 L 559.090909090909 339.5995127128278 L 564.1414141414141 348.226867307566 L 569.1919191919192 347.07991765215314 L 574.2424242424242 346.4204929280057 L 579.2929292929293 345.9987678137253 L 584.3434343434344 344.8256052230908 L 589.3939393939394 344.57577990169256 L 594.4444444444445 343.2930401090601 L 599.4949494949494 343.64789549063215 L 604.5454545454545 342.24496849841194 L 609.5959595959596 341.52464773767804 L 614.6464646464647 339.74029579008965 L 619.6969696969697 339.69179294396525 L 624.7474747474747 339.59505473064723 L 629.7979797979798 338.77746079873367 L 634.8484848484848 337.5269967970884 L 639.8989898989898 336.8462629181179 L 644.9494949494949 335.63208689142226 L 650 335.3666586323921" /><text  class="poloto_text" alignment-baseline="middle" text-anchor="start" font-size="large" x="675" y="150" >naive</text><line  class="poloto1stroke poloto1legend" stroke="black" x1="680" x2="730" y1="131.25" y2="131.25" /><path  class="poloto1stroke" fill="none" stroke="black" d=" M 150 400 L 155.05050505050505 399.1171412089632 L 160.1010101010101 396.7026980599753 L 165.15151515151516 392.8247885207553 L 170.2020202020202 387.5375324949751 L 175.25252525252526 380.80526612519026 L 180.3030303030303 372.65964108488265 L 185.35353535353534 363.09825006367487 L 190.40404040404042 352.1351802852574 L 195.45454545454544 339.83034703013686 L 200.50505050505052 326.0870120849953 L 205.55555555555554 310.941552584426 L 210.6060606060606 294.3869249165837 L 215.65656565656565 276.45959537570536 L 220.7070707070707 257.22349142626007 L 225.75757575757575 236.56332964905872 L 230.8080808080808 214.494088864228 L 235.85858585858585 191.01006285457674 L 240.9090909090909 166.18480832608415 L 245.95959595959596 140.0610327480399 L 251.010101010101 112.5181922822818" /><text  class="poloto_text" alignment-baseline="middle" text-anchor="start" font-size="large" x="675" y="200" >nosort</text><line  class="poloto2stroke poloto2legend" stroke="black" x1="680" x2="730" y1="181.25" y2="181.25" /><path  class="poloto2stroke" fill="none" stroke="black" d=" M 150 400 L 155.05050505050505 399.2768261306706 L 160.1010101010101 398.16518369412773 L 165.15151515151516 397.20448853421846 L 170.2020202020202 395.5239184117933 L 175.25252525252526 393.6169719542397 L 180.3030303030303 393.07095829676547 L 185.35353535353534 391.31504827548906 L 190.40404040404042 389.1822604406686 L 195.45454545454544 386.8917491963001 L 200.50505050505052 384.8440196614846 L 205.55555555555554 385.85580329718306 L 210.6060606060606 384.11719024676717 L 215.65656565656565 381.7955622867784 L 220.7070707070707 379.4553891209186 L 225.75757575757575 377.16880090086903 L 230.8080808080808 374.92411771331666 L 235.85858585858585 372.198329088839 L 240.9090909090909 369.6729713431989 L 245.95959595959596 367.6467292824937 L 251.010101010101 364.30466920137627 L 256.06060606060606 368.2617525041229 L 261.1111111111111 366.1120243370163 L 266.16161616161617 364.3784042266426 L 271.2121212121212 361.38317515917225 L 276.26262626262627 358.62832049087734 L 281.3131313131313 356.29091127396947 L 286.3636363636364 353.50930871259123 L 291.4141414141414 352.059840386406 L 296.4646464646464 349.068890981829 L 301.5151515151515 345.77444215039986 L 306.5656565656566 342.9108127168994 L 311.6161616161616 340.44269546245766 L 316.66666666666663 337.81801387383496 L 321.7171717171717 335.55211069110317 L 326.7676767676768 331.8411080047231 L 331.8181818181818 328.85755885056574 L 336.86868686868684 325.15975179144016 L 341.9191919191919 322.64090269978374 L 346.969696969697 320.2671163482825 L 352.020202020202 316.27000036555455 L 357.07070707070704 330.07681697694716 L 362.1212121212121 328.4117606325104 L 367.1717171717172 325.8504715504951 L 372.22222222222223 324.2801027475733 L 377.27272727272725 321.3231231672121 L 382.32323232323233 318.7867987854079 L 387.37373737373736 316.075721502126 L 392.4242424242424 314.4861833758278 L 397.47474747474746 310.182982336583 L 402.52525252525254 307.93731839295094 L 407.57575757575756 304.322786440958 L 412.62626262626264 302.11376711085006 L 417.67676767676767 299.33795992630655 L 422.72727272727275 296.5176620796011 L 427.77777777777777 292.9851569997304 L 432.8282828282828 290.45355807903763 L 437.8787878787879 287.2067204972968 L 442.9292929292929 284.1138616200723 L 447.979797979798 282.16474265109065 L 453.030303030303 278.9981487485998 L 458.0808080808081 275.7802880510326 L 463.1313131313131 272.14052391989776 L 468.1818181818182 268.8051508120511 L 473.2323232323232 266.9158579639325 L 478.2828282828283 262.09232124457355 L 483.3333333333333 260.1313440429916 L 488.3838383838384 256.4895292400537 L 493.4343434343434 253.9289534351873 L 498.4848484848485 250.06878666504593 L 503.5353535353535 246.84165336454316 L 508.5858585858586 242.63670625255776 L 513.6363636363636 240.53824488052754 L 518.6868686868687 235.9159414767987 L 523.7373737373737 232.28001121033918 L 528.7878787878788 229.43911748595957 L 533.8383838383838 226.09955387486323 L 538.8888888888889 223.19170125813173 L 543.939393939394 220.001925848302 L 548.989898989899 216.40094616213798 L 554.040404040404 212.7954193341498 L 559.090909090909 206.6528548472086 L 564.1414141414141 237.43495432500058 L 569.1919191919192 234.79609635304365 L 574.2424242424242 232.82308259957424 L 579.2929292929293 229.3143831445477 L 584.3434343434344 225.69780052075174 L 589.3939393939394 223.37893650971498 L 594.4444444444445 220.90154665233771 L 599.4949494949494 217.4398343294942 L 604.5454545454545 213.78205995034995 L 609.5959595959596 210.38293769732144 L 614.6464646464647 207.44735643142687 L 619.6969696969697 204.0608948477911 L 624.7474747474747 201.78019116421987 L 629.7979797979798 198.88268106614723 L 634.8484848484848 195.4882842742301 L 639.8989898989898 192.54155805288414 L 644.9494949494949 189.07092976567952 L 650 186.21505722117325" /><text  class="poloto_text" alignment-baseline="middle" text-anchor="start" font-size="large" x="675" y="250" >sweep</text><line  class="poloto3stroke poloto3legend" stroke="black" x1="680" x2="730" y1="231.25" y2="231.25" /><path  class="poloto3stroke" fill="none" stroke="black" d=" M 150 400 L 155.05050505050505 399.6499592391829 L 160.1010101010101 399.0283382039265 L 165.15151515151516 398.2406127526227 L 170.2020202020202 397.32949035456113 L 175.25252525252526 396.30567016697523 L 180.3030303030303 395.17717655778983 L 185.35353535353534 393.989659264534 L 190.40404040404042 392.6637662043937 L 195.45454545454544 391.2782253426777 L 200.50505050505052 389.85184936418773 L 205.55555555555554 388.290396525627 L 210.6060606060606 386.7428525914696 L 215.65656565656565 385.04489633854035 L 220.7070707070707 383.3228669818361 L 225.75757575757575 381.6235733342527 L 230.8080808080808 379.7676261928446 L 235.85858585858585 377.86692091034377 L 240.9090909090909 375.9155729502718 L 245.95959595959596 373.9566464204929 L 251.010101010101 371.867279332111 L 256.06060606060606 369.7728301440433 L 261.1111111111111 367.6226561787187 L 266.16161616161617 365.3565746766997 L 271.2121212121212 363.1487144219587 L 276.26262626262627 360.8374289806289 L 281.3131313131313 358.571079999679 L 286.3636363636364 356.15654769104754 L 291.4141414141414 353.7308704269647 L 296.4646464646464 351.3527152529266 L 301.5151515151515 348.77234600717856 L 306.5656565656566 346.1108414857444 L 311.6161616161616 343.62150423612326 L 316.66666666666663 340.9530452624875 L 321.7171717171717 338.2123669775267 L 326.7676767676768 335.6123826101842 L 331.8181818181818 332.7219161239569 L 336.86868686868684 330.09598630032355 L 341.9191919191919 327.24136199082784 L 346.969696969697 324.4229364966382 L 352.020202020202 321.42850986596034 L 357.07070707070704 318.36293383968086 L 362.1212121212121 315.49226079433515 L 367.1717171717172 312.3918233474037 L 372.22222222222223 309.42717603769194 L 377.27272727272725 306.4329277263013 L 382.32323232323233 303.28015356857014 L 387.37373737373736 300.1828367091651 L 392.4242424242424 297.0083967580365 L 397.47474747474746 293.7256278399204 L 402.52525252525254 290.5891698969701 L 407.57575757575756 287.09429018670323 L 412.62626262626264 284.10013103495623 L 417.67676767676767 280.65054442364385 L 422.72727272727275 277.33130921129083 L 427.77777777777777 273.98104644296114 L 432.8282828282828 270.6614545920337 L 437.8787878787879 267.16149278208104 L 442.9292929292929 263.52957469958403 L 447.979797979798 260.15060252601154 L 453.030303030303 256.5198435188815 L 458.0808080808081 252.9070056001172 L 463.1313131313131 249.67541431743388 L 468.1818181818182 245.9150171884933 L 473.2323232323232 242.3432818654337 L 478.2828282828283 238.66589236469503 L 483.3333333333333 234.88739582810138 L 488.3838383838384 231.16881457201438 L 493.4343434343434 227.56346606331343 L 498.4848484848485 223.87475328783614 L 503.5353535353535 220.13370380155916 L 508.5858585858586 216.0597322060384 L 513.6363636363636 212.3942009379 L 518.6868686868687 208.71547404250714 L 523.7373737373737 204.65131000778362 L 528.7878787878788 200.78632861688723 L 533.8383838383838 196.86588992766477 L 538.8888888888889 193.05164037398308 L 543.939393939394 189.05488102982955 L 548.989898989899 185.0550902577932 L 554.040404040404 180.82945810849003 L 559.090909090909 176.8336795204162 L 564.1414141414141 172.59859644889025 L 569.1919191919192 168.78960731418164 L 574.2424242424242 164.50833954726514 L 579.2929292929293 160.37186704157304 L 584.3434343434344 156.2303124361951 L 589.3939393939394 152.11960706750662 L 594.4444444444445 147.91671062732428 L 599.4949494949494 143.51837624834644 L 604.5454545454545 139.41587356687018 L 609.5959595959596 134.96689651032125 L 614.6464646464647 130.39051032305213 L 619.6969696969697 126.40730324472747 L 624.7474747474747 122.05996818189516 L 629.7979797979798 117.57523810825819 L 634.8484848484848 113.34407806105116 L 639.8989898989898 108.8070112766145 L 644.9494949494949 104.48259024219027 L 650 100" /><text  class="poloto_text" alignment-baseline="start" text-anchor="middle" font-size="x-large" x="400" y="37.5" >Complexity of space partitioning algs with abspiral(x,1.5)</text><text  class="poloto_text" alignment-baseline="start" text-anchor="middle" font-size="x-large" x="400" y="481.25" >Number of Elements</text><text  class="poloto_text" alignment-baseline="start" text-anchor="middle" font-size="x-large" transform="rotate(-90,37.5,250)" x="37.5" y="250" >Number of Comparisons</text><line  class="poloto_axis_lines" stroke="black" x1="150" x2="150" y1="400" y2="405" /><text  class="poloto_text" alignment-baseline="start" text-anchor="middle" x="150" y="430" > 0</text><line  class="poloto_axis_lines" stroke="black" x1="251.010101010101" x2="251.010101010101" y1="400" y2="405" /><text  class="poloto_text" alignment-baseline="start" text-anchor="middle" x="251.010101010101" y="430" > 2000</text><line  class="poloto_axis_lines" stroke="black" x1="352.020202020202" x2="352.020202020202" y1="400" y2="405" /><text  class="poloto_text" alignment-baseline="start" text-anchor="middle" x="352.020202020202" y="430" > 4000</text><line  class="poloto_axis_lines" stroke="black" x1="453.030303030303" x2="453.030303030303" y1="400" y2="405" /><text  class="poloto_text" alignment-baseline="start" text-anchor="middle" x="453.030303030303" y="430" > 6000</text><line  class="poloto_axis_lines" stroke="black" x1="554.040404040404" x2="554.040404040404" y1="400" y2="405" /><text  class="poloto_text" alignment-baseline="start" text-anchor="middle" x="554.040404040404" y="430" > 8000</text><line  class="poloto_axis_lines" stroke="black" x1="150" x2="144" y1="400" y2="400" /><text  class="poloto_text" alignment-baseline="middle" text-anchor="end" x="135" y="400" > 0</text><line  class="poloto_axis_lines" stroke="black" x1="150" x2="144" y1="310.84035638892743" y2="310.84035638892743" /><text  class="poloto_text" alignment-baseline="middle" text-anchor="end" x="135" y="310.84035638892743" > 1e6</text><line  class="poloto_axis_lines" stroke="black" x1="150" x2="144" y1="221.68071277785486" y2="221.68071277785486" /><text  class="poloto_text" alignment-baseline="middle" text-anchor="end" x="135" y="221.68071277785486" > 2.0e6</text><line  class="poloto_axis_lines" stroke="black" x1="150" x2="144" y1="132.5210691667823" y2="132.5210691667823" /><text  class="poloto_text" alignment-baseline="middle" text-anchor="end" x="135" y="132.5210691667823" > 3.0e6</text><path  stroke="black" fill="none" class="poloto_axis_lines" style="stroke-dasharray:12.626262626262626;stroke-dashoffset:-0;" d=" M 150 400 L 650 400" /><path  stroke="black" fill="none" class="poloto_axis_lines" style="stroke-dasharray:11.144955451384071;stroke-dashoffset:-0;" d=" M 150 400 L 150 100" /></svg>