<svg class="poloto" height="500" viewBox="0 0 800 500" width="800" xmlns="http://www.w3.org/2000/svg">
<rect class="poloto_background" fill="white" height="500" width="800" x="0" y="0"/>
<style>
.poloto {
font-family: "Arial";
stroke-width:2;
}
.poloto_text{fill: var(--poloto_fg_color,black);  }
.poloto_axis_lines{stroke: var(--poloto_fg_color,black);stoke-width:3;fill:none}
.poloto_background{fill: var(--poloto_bg_color,aliceblue); }
.poloto0stroke{stroke:  var(--poloto_color0,blue); }
.poloto1stroke{stroke:  var(--poloto_color1,red); }
.poloto2stroke{stroke:  var(--poloto_color2,green); }
.poloto3stroke{stroke:  var(--poloto_color3,gold); }
.poloto4stroke{stroke:  var(--poloto_color4,aqua); }
.poloto5stroke{stroke:  var(--poloto_color5,brown); }
.poloto6stroke{stroke:  var(--poloto_color6,lime); }
.poloto7stroke{stroke:  var(--poloto_color7,chocolate); }
.poloto0fill{fill:var(--poloto_color0,blue);}
.poloto1fill{fill:var(--poloto_color1,red);}
.poloto2fill{fill:var(--poloto_color2,green);}
.poloto3fill{fill:var(--poloto_color3,gold);}
.poloto4fill{fill:var(--poloto_color4,aqua);}
.poloto5fill{fill:var(--poloto_color5,brown);}
.poloto6fill{fill:var(--poloto_color6,lime);}
.poloto7fill{fill:var(--poloto_color7,chocolate);}
</style>
<line class="poloto_axis_lines" stroke="black" x1="189.8724" x2="189.8724" y1="400" y2="405"/>
<text alignment-baseline="start" class="poloto_text" text-anchor="middle" x="189.8724" y="440">
0.5
</text>
<line class="poloto_axis_lines" stroke="black" x1="256.32642" x2="256.32642" y1="400" y2="405"/>
<text alignment-baseline="start" class="poloto_text" text-anchor="middle" x="256.32642" y="440">
1.0
</text>
<line class="poloto_axis_lines" stroke="black" x1="322.78046" x2="322.78046" y1="400" y2="405"/>
<text alignment-baseline="start" class="poloto_text" text-anchor="middle" x="322.78046" y="440">
1.5
</text>
<line class="poloto_axis_lines" stroke="black" x1="389.23444" x2="389.23444" y1="400" y2="405"/>
<text alignment-baseline="start" class="poloto_text" text-anchor="middle" x="389.23444" y="440">
2.0
</text>
<line class="poloto_axis_lines" stroke="black" x1="455.68848" x2="455.68848" y1="400" y2="405"/>
<text alignment-baseline="start" class="poloto_text" text-anchor="middle" x="455.68848" y="440">
2.5
</text>
<line class="poloto_axis_lines" stroke="black" x1="522.14246" x2="522.14246" y1="400" y2="405"/>
<text alignment-baseline="start" class="poloto_text" text-anchor="middle" x="522.14246" y="440">
3.0
</text>
<line class="poloto_axis_lines" stroke="black" x1="588.5965" x2="588.5965" y1="400" y2="405"/>
<text alignment-baseline="start" class="poloto_text" text-anchor="middle" x="588.5965" y="440">
3.5
</text>
<line class="poloto_axis_lines" stroke="black" x1="150" x2="144" y1="400" y2="400"/>
<text alignment-baseline="middle" class="poloto_text" text-anchor="end" x="120" y="400">
0.00
</text>
<line class="poloto_axis_lines" stroke="black" x1="150" x2="144" y1="352.22327" y2="352.22327"/>
<text alignment-baseline="middle" class="poloto_text" text-anchor="end" x="120" y="352.22327">
0.01
</text>
<line class="poloto_axis_lines" stroke="black" x1="150" x2="144" y1="304.44656" y2="304.44656"/>
<text alignment-baseline="middle" class="poloto_text" text-anchor="end" x="120" y="304.44656">
0.02
</text>
<line class="poloto_axis_lines" stroke="black" x1="150" x2="144" y1="256.66983" y2="256.66983"/>
<text alignment-baseline="middle" class="poloto_text" text-anchor="end" x="120" y="256.66983">
0.03
</text>
<line class="poloto_axis_lines" stroke="black" x1="150" x2="144" y1="208.89313" y2="208.89313"/>
<text alignment-baseline="middle" class="poloto_text" text-anchor="end" x="120" y="208.89313">
0.04
</text>
<line class="poloto_axis_lines" stroke="black" x1="150" x2="144" y1="161.1164" y2="161.1164"/>
<text alignment-baseline="middle" class="poloto_text" text-anchor="end" x="120" y="161.1164">
0.05
</text>
<line class="poloto_axis_lines" stroke="black" x1="150" x2="144" y1="113.33966" y2="113.33966"/>
<text alignment-baseline="middle" class="poloto_text" text-anchor="end" x="120" y="113.33966">
0.06
</text>
<text alignment-baseline="middle" class="poloto_text" font-size="large" text-anchor="start" x="675" y="100">
brocc
</text>
<line class="poloto0stroke" x1="680" x2="730" y1="81.25" y2="81.25"/>
<polyline class="poloto0stroke" fill="none" points="150,343.7017 155.0505,346.11447 160.10101,347.85004 165.15152,349.31805 170.20203,349.54303 175.25253,351.76685 180.30304,353.56772 185.35353,353.85547 190.40405,354.72156 195.45454,355.3263 200.50505,356.51468 205.55556,356.9259 210.60606,357.60742 215.65657,358.16708 220.70708,358.1866 225.75757,358.96408 230.80809,359.4747 235.8586,360.284 240.90909,360.67416 245.9596,360.88562 251.0101,360.70355 256.0606,361.2495 261.1111,361.6601 266.16162,362.10318 271.21213,362.1083 276.26263,362.1205 281.31314,362.50635 286.36365,362.71567 291.41415,363.2079 296.46466,363.46222 301.51514,363.2543 306.56567,363.76483 311.61615,363.97363 316.6667,363.93997 321.71716,363.8648 326.76767,364.51276 331.81818,364.9441 336.86868,365.22794 341.9192,365.32336 346.96973,365.8929 352.0202,367.9698 357.0707,366.1506 362.12122,366.1144 367.17172,366.89203 372.22223,366.94376 377.27274,366.79535 382.32324,366.7987 387.37372,367.28125 392.42426,367.5126 397.47476,367.20288 402.52527,367.6726 407.57578,367.89108 412.62628,367.9571 417.6768,367.86957 422.7273,368.29352 427.77777,367.86743 432.8283,368.29657 437.87878,368.60455 442.92932,368.34436 447.9798,368.67944 453.0303,366.561 458.0808,368.60074 463.13132,368.87622 468.18185,368.73712 473.23233,368.8076 478.28284,368.53735 483.33334,368.74014 488.38385,369.26343 493.43436,368.99426 498.48486,369.26355 503.53534,368.99496 508.58588,369.25998 513.63635,369.35626 518.6869,369.40054 523.7374,369.9472 528.7879,369.2041 533.8384,369.71765 538.8889,369.57446 543.93945,369.52124 548.98987,369.89316 554.0404,370.0256 559.09094,369.98178 564.1414,368.43298 569.19196,369.61777 574.24243,370.01358 579.29297,369.88596 584.34344,370.24902 589.3939,370.41776 594.44446,370.2596 599.495,370.53674 604.5455,370.71494 609.59595,370.48914 614.6465,370.30396 619.697,370.4649 624.7475,370.21527 629.798,369.24722 634.8485,370.72437 639.899,370.7679 644.9495,370.68127 650,370.58524 " stroke="black"/>
<text alignment-baseline="middle" class="poloto_text" font-size="large" text-anchor="start" x="675" y="150">
brocc_par
</text>
<line class="poloto1stroke" x1="680" x2="730" y1="131.25" y2="131.25"/>
<polyline class="poloto1stroke" fill="none" points="150,380.87497 155.0505,381.8334 160.10101,382.55566 165.15152,382.76074 170.20203,382.26163 175.25253,376.34595 180.30304,384.5914 185.35353,384.1688 190.40405,384.90564 195.45454,384.72812 200.50505,384.78955 205.55556,384.88763 210.60606,385.08878 215.65657,385.7574 220.70708,385.13068 225.75757,385.6809 230.80809,386.00156 235.8586,380.41272 240.90909,386.68518 245.9596,387.20612 251.0101,386.64822 256.0606,386.7706 261.1111,386.33328 266.16162,387.42505 271.21213,387.00156 276.26263,386.72986 281.31314,387.59024 286.36365,386.96863 291.41415,387.5961 296.46466,388.01544 301.51514,386.80197 306.56567,386.8112 311.61615,387.6559 316.6667,387.8639 321.71716,388.07098 326.76767,387.59366 331.81818,387.04843 336.86868,386.50214 341.9192,388.07703 346.96973,388.64862 352.0202,389.23242 357.0707,387.99136 362.12122,388.52722 367.17172,387.41208 372.22223,389.12558 377.27274,388.472 382.32324,388.36057 387.37372,389.10535 392.42426,385.57886 397.47476,388.45056 402.52527,387.8771 407.57578,388.00684 412.62628,388.98352 417.6768,389.13013 422.7273,388.82034 427.77777,388.70523 432.8283,388.72415 437.87878,387.63943 442.92932,388.68918 447.9798,388.612 453.0303,387.16318 458.0808,389.53198 463.13132,389.17697 468.18185,388.90317 473.23233,389.71265 478.28284,388.4311 483.33334,388.7494 488.38385,388.35852 493.43436,388.97125 498.48486,389.0503 503.53534,387.78986 508.58588,389.09866 513.63635,389.38803 518.6869,389.09387 523.7374,388.5609 528.7879,388.1118 533.8384,389.06345 538.8889,389.19205 543.93945,387.64258 548.98987,389.7976 554.0404,388.30972 559.09094,389.53384 564.1414,387.6929 569.19196,388.75977 574.24243,388.87888 579.29297,389.1619 584.34344,383.58603 589.3939,390.15512 594.44446,390.2255 599.495,389.54807 604.5455,389.6778 609.59595,389.1871 614.6465,389.0077 619.697,389.05637 624.7475,388.60028 629.798,387.99945 634.8485,390.10538 639.899,389.29138 644.9495,389.31223 650,389.48715 " stroke="black"/>
<text alignment-baseline="middle" class="poloto_text" font-size="large" text-anchor="start" x="675" y="200">
naive
</text>
<line class="poloto2stroke" x1="680" x2="730" y1="181.25" y2="181.25"/>
<polyline class="poloto2stroke" fill="none" points="150,400 155.0505,400 160.10101,400 165.15152,400 170.20203,400 175.25253,400 180.30304,400 185.35353,400 190.40405,400 195.45454,400 200.50505,400 205.55556,400 210.60606,400 215.65657,400 220.70708,400 225.75757,400 230.80809,400 235.8586,400 240.90909,400 245.9596,400 251.0101,400 256.0606,400 261.1111,400 266.16162,400 271.21213,400 276.26263,400 281.31314,400 286.36365,400 291.41415,400 296.46466,400 301.51514,400 306.56567,400 311.61615,400 316.6667,400 321.71716,400 326.76767,400 331.81818,400 336.86868,400 341.9192,400 346.96973,400 352.0202,400 357.0707,400 362.12122,400 367.17172,400 372.22223,400 377.27274,400 382.32324,400 387.37372,400 392.42426,400 397.47476,400 402.52527,400 407.57578,400 412.62628,400 417.6768,400 422.7273,400 427.77777,400 432.8283,400 437.87878,400 442.92932,400 447.9798,400 453.0303,400 458.0808,400 463.13132,400 468.18185,400 473.23233,400 478.28284,400 483.33334,400 488.38385,400 493.43436,400 498.48486,400 503.53534,400 508.58588,400 513.63635,400 518.6869,400 523.7374,400 528.7879,400 533.8384,400 538.8889,400 543.93945,400 548.98987,400 554.0404,400 559.09094,400 564.1414,400 569.19196,400 574.24243,400 579.29297,400 584.34344,400 589.3939,400 594.44446,400 599.495,400 604.5455,400 609.59595,400 614.6465,400 619.697,400 624.7475,400 629.798,400 634.8485,400 639.899,400 644.9495,400 650,400 " stroke="black"/>
<text alignment-baseline="middle" class="poloto_text" font-size="large" text-anchor="start" x="675" y="250">
nosort
</text>
<line class="poloto3stroke" x1="680" x2="730" y1="231.25" y2="231.25"/>
<polyline class="poloto3stroke" fill="none" points="150,264.56763 155.0505,276.33554 160.10101,283.14297 165.15152,289.98386 170.20203,291.0623 175.25253,298.36984 180.30304,301.56073 185.35353,304.14932 190.40405,306.1611 195.45454,309.6067 200.50505,311.9035 205.55556,313.4068 210.60606,314.92755 215.65657,316.64905 220.70708,316.2909 225.75757,319.5534 230.80809,320.6941 235.8586,321.38217 240.90909,322.06082 245.9596,322.98505 251.0101,324.04205 256.0606,325.3 261.1111,325.37924 266.16162,327.12402 271.21213,326.83112 276.26263,327.161 281.31314,328.4711 286.36365,328.28937 291.41415,329.41498 296.46466,329.63153 301.51514,330.29813 306.56567,331.31842 311.61615,331.57245 316.6667,332.14325 321.71716,331.90967 326.76767,333.0512 331.81818,333.5487 336.86868,334.18076 341.9192,334.85226 346.96973,335.59668 352.0202,337.34985 357.0707,336.11536 362.12122,336.0081 367.17172,336.9149 372.22223,337.40567 377.27274,337.6546 382.32324,337.47888 387.37372,338.93362 392.42426,339.1222 397.47476,338.62146 402.52527,339.0955 407.57578,339.5622 412.62628,339.7677 417.6768,339.8187 422.7273,340.4853 427.77777,340.01816 432.8283,340.46042 437.87878,341.19955 442.92932,340.76526 447.9798,341.442 453.0303,339.39948 458.0808,341.81433 463.13132,342.3861 468.18185,342.2644 473.23233,342.00293 478.28284,342.66953 483.33334,342.96744 488.38385,343.28174 493.43436,342.97522 498.48486,343.09702 503.53534,343.33374 508.58588,343.67502 513.63635,343.68277 518.6869,344.16263 523.7374,344.46603 528.7879,343.61365 533.8384,344.70126 538.8889,344.50333 543.93945,344.81366 548.98987,345.04318 554.0404,344.82343 559.09094,345.22174 564.1414,343.54953 569.19196,344.67166 574.24243,345.34863 579.29297,345.39075 584.34344,345.92145 589.3939,345.88013 594.44446,346.08417 599.495,346.58798 604.5455,346.4236 609.59595,346.28693 614.6465,346.4959 619.697,346.47415 624.7475,346.1353 629.798,345.5783 634.8485,346.49023 639.899,346.41858 644.9495,346.66467 650,346.8799 " stroke="black"/>
<text alignment-baseline="middle" class="poloto_text" font-size="large" text-anchor="start" x="675" y="300">
nosort_par
</text>
<line class="poloto4stroke" x1="680" x2="730" y1="281.25" y2="281.25"/>
<polyline class="poloto4stroke" fill="none" points="150,346.60535 155.0505,331.47723 160.10101,357.4888 165.15152,359.62878 170.20203,358.93384 175.25253,362.82068 180.30304,364.4497 185.35353,366.58875 190.40405,365.27164 195.45454,368.64206 200.50505,369.4718 205.55556,369.83795 210.60606,370.42102 215.65657,371.9146 220.70708,370.50278 225.75757,371.5652 230.80809,355.88696 235.8586,373.5502 240.90909,373.31445 245.9596,373.20526 251.0101,373.52142 256.0606,373.87747 261.1111,374.91574 266.16162,375.19327 271.21213,374.71964 276.26263,374.42783 281.31314,375.6448 286.36365,376.75415 291.41415,376.43515 296.46466,376.84326 301.51514,376.82303 306.56567,374.40692 311.61615,377.45306 316.6667,377.18036 321.71716,377.34604 326.76767,377.8459 331.81818,378.10056 336.86868,378.2305 341.9192,377.92807 346.96973,378.6167 352.0202,378.3499 357.0707,379.3519 362.12122,378.82306 367.17172,379.91202 372.22223,379.60593 377.27274,379.87088 382.32324,378.74988 387.37372,379.65756 392.42426,379.73053 397.47476,379.5107 402.52527,378.75388 407.57578,380.15857 412.62628,379.82336 417.6768,379.6055 422.7273,379.69226 427.77777,379.5213 432.8283,380.443 437.87878,380.73682 442.92932,380.23895 447.9798,380.37033 453.0303,378.29712 458.0808,381.09885 463.13132,381.33115 468.18185,380.72662 473.23233,381.24094 478.28284,380.80652 483.33334,366.25558 488.38385,381.0687 493.43436,380.75476 498.48486,381.55823 503.53534,381.35538 508.58588,381.38245 513.63635,381.18774 518.6869,380.75168 523.7374,381.69742 528.7879,381.43665 533.8384,381.7725 538.8889,380.92874 543.93945,382.21228 548.98987,381.85266 554.0404,381.63287 559.09094,381.781 564.1414,380.62073 569.19196,381.84653 574.24243,373.81012 579.29297,374.7498 584.34344,382.27084 589.3939,382.54504 594.44446,382.17026 599.495,382.54648 604.5455,381.9444 609.59595,382.2743 614.6465,380.78513 619.697,381.52573 624.7475,381.77905 629.798,381.14542 634.8485,382.87054 639.899,381.71893 644.9495,382.0069 650,382.36182 " stroke="black"/>
<text alignment-baseline="middle" class="poloto_text" font-size="large" text-anchor="start" x="675" y="350">
sweep
</text>
<line class="poloto5stroke" x1="680" x2="730" y1="331.25" y2="331.25"/>
<polyline class="poloto5stroke" fill="none" points="150,100 155.0505,125.46274 160.10101,145.40712 165.15152,161.033 170.20203,171.91206 175.25253,184.55501 180.30304,194.78348 185.35353,203.20068 190.40405,210.77469 195.45454,216.7572 200.50505,223.03294 205.55556,227.61928 210.60606,233.03134 215.65657,236.90273 220.70708,240.4066 225.75757,244.8795 230.80809,248.6071 235.8586,251.95406 240.90909,254.61458 245.9596,257.51755 251.0101,259.67554 256.0606,262.53357 261.1111,264.516 266.16162,266.9726 271.21213,268.5767 276.26263,270.19443 281.31314,272.3185 286.36365,274.0349 291.41415,275.54825 296.46466,277.08334 301.51514,279.4572 306.56567,279.71127 311.61615,281.90094 316.6667,283.31122 321.71716,284.55908 326.76767,285.63544 331.81818,287.21448 336.86868,288.41708 341.9192,290.09464 346.96973,291.32025 352.0202,294.46732 357.0707,293.71136 362.12122,294.73843 367.17172,295.7343 372.22223,296.47717 377.27274,297.32446 382.32324,298.57016 387.37372,299.39798 392.42426,300.1333 397.47476,300.84766 402.52527,301.8377 407.57578,302.43515 412.62628,303.13773 417.6768,304.16055 422.7273,304.4889 427.77777,305.34955 432.8283,305.9831 437.87878,306.46326 442.92932,307.19946 447.9798,307.93073 453.0303,306.87726 458.0808,308.61633 463.13132,309.50232 468.18185,309.83002 473.23233,310.28925 478.28284,310.60144 483.33334,311.3363 488.38385,311.83466 493.43436,312.35757 498.48486,313.10983 503.53534,313.16025 508.58588,313.4973 513.63635,313.98627 518.6869,315.00446 523.7374,315.22363 528.7879,315.18274 533.8384,315.9171 538.8889,316.18427 543.93945,316.57193 548.98987,316.78296 554.0404,317.109 559.09094,317.7038 564.1414,316.78348 569.19196,318.32733 574.24243,318.59518 579.29297,318.99045 584.34344,319.44217 589.3939,319.81366 594.44446,320.16174 599.495,320.26828 604.5455,320.7577 609.59595,321.47467 614.6465,321.5177 619.697,321.90842 624.7475,322.1246 629.798,320.91388 634.8485,322.55792 639.899,322.98972 644.9495,323.15176 650,323.2866 " stroke="black"/>
<text alignment-baseline="start" class="poloto_text" font-size="x-large" text-anchor="middle" x="400" y="37.5">
Bench of space partitioning algs with abspiral(30_000,grow)
</text>
<text alignment-baseline="start" class="poloto_text" font-size="large" text-anchor="middle" x="400" y="481.25">
Grow
</text>
<text alignment-baseline="start" class="poloto_text" font-size="large" text-anchor="middle" transform="rotate(-90,37.5,250)" x="37.5" y="250">
Time in Seconds
</text>
<path class="poloto_axis_lines" d="M150,100 L150,400 L650,400" stroke="black"/>
</svg>