<svg class="poloto" width="800" height="500" viewBox="0 0 800 500" xmlns="http://www.w3.org/2000/svg"><style>.poloto {
                    font-family: "Arial";
                    stroke-width:2;
                    }
                    .poloto_text{fill: var(--poloto_fg_color,black);  }
                    .poloto_axis_lines{stroke: var(--poloto_fg_color,black);stoke-width:3;fill:none}
                    .poloto_background{fill: var(--poloto_bg_color,aliceblue); }
                    .poloto0stroke{stroke:  var(--poloto_color0,blue); }
                    .poloto1stroke{stroke:  var(--poloto_color1,red); }
                    .poloto2stroke{stroke:  var(--poloto_color2,green); }
                    .poloto3stroke{stroke:  var(--poloto_color3,gold); }
                    .poloto4stroke{stroke:  var(--poloto_color4,aqua); }
                    .poloto5stroke{stroke:  var(--poloto_color5,brown); }
                    .poloto6stroke{stroke:  var(--poloto_color6,lime); }
                    .poloto7stroke{stroke:  var(--poloto_color7,chocolate); }
                    .poloto0fill{fill:var(--poloto_color0,blue);}
                    .poloto1fill{fill:var(--poloto_color1,red);}
                    .poloto2fill{fill:var(--poloto_color2,green);}
                    .poloto3fill{fill:var(--poloto_color3,gold);}
                    .poloto4fill{fill:var(--poloto_color4,aqua);}
                    .poloto5fill{fill:var(--poloto_color5,brown);}
                    .poloto6fill{fill:var(--poloto_color6,lime);}
                    .poloto7fill{fill:var(--poloto_color7,chocolate);}</style><rect class="poloto_background" fill="white" x="0" y="0" width="800" height="500"/><line class="poloto_axis_lines" stroke="black" x1="150" x2="150" y1="400" y2="405"/><text class="poloto_text" alignment-baseline="start" text-anchor="middle" x="150" y="430">0.20</text><line class="poloto_axis_lines" stroke="black" x1="213.1313131313131" x2="213.1313131313131" y1="400" y2="405"/><text class="poloto_text" alignment-baseline="start" text-anchor="middle" x="213.1313131313131" y="430">0.25</text><line class="poloto_axis_lines" stroke="black" x1="276.2626262626262" x2="276.2626262626262" y1="400" y2="405"/><text class="poloto_text" alignment-baseline="start" text-anchor="middle" x="276.2626262626262" y="430">0.30</text><line class="poloto_axis_lines" stroke="black" x1="339.3939393939394" x2="339.3939393939394" y1="400" y2="405"/><text class="poloto_text" alignment-baseline="start" text-anchor="middle" x="339.3939393939394" y="430">0.35</text><line class="poloto_axis_lines" stroke="black" x1="402.5252525252525" x2="402.5252525252525" y1="400" y2="405"/><text class="poloto_text" alignment-baseline="start" text-anchor="middle" x="402.5252525252525" y="430">0.40</text><line class="poloto_axis_lines" stroke="black" x1="465.6565656565656" x2="465.6565656565656" y1="400" y2="405"/><text class="poloto_text" alignment-baseline="start" text-anchor="middle" x="465.6565656565656" y="430">0.45</text><line class="poloto_axis_lines" stroke="black" x1="528.7878787878788" x2="528.7878787878788" y1="400" y2="405"/><text class="poloto_text" alignment-baseline="start" text-anchor="middle" x="528.7878787878788" y="430">0.50</text><line class="poloto_axis_lines" stroke="black" x1="591.9191919191919" x2="591.9191919191919" y1="400" y2="405"/><text class="poloto_text" alignment-baseline="start" text-anchor="middle" x="591.9191919191919" y="430">0.55</text><line class="poloto_axis_lines" stroke="black" x1="150" x2="144" y1="400" y2="400"/><text class="poloto_text" alignment-baseline="middle" text-anchor="end" x="135" y="400">0</text><line class="poloto_axis_lines" stroke="black" x1="150" x2="144" y1="351.1808855592083" y2="351.1808855592083"/><text class="poloto_text" alignment-baseline="middle" text-anchor="end" x="135" y="351.1808855592083">1e6</text><line class="poloto_axis_lines" stroke="black" x1="150" x2="144" y1="302.36177111841664" y2="302.36177111841664"/><text class="poloto_text" alignment-baseline="middle" text-anchor="end" x="135" y="302.36177111841664">2.0e6</text><line class="poloto_axis_lines" stroke="black" x1="150" x2="144" y1="253.54265667762496" y2="253.54265667762496"/><text class="poloto_text" alignment-baseline="middle" text-anchor="end" x="135" y="253.54265667762496">3.0e6</text><line class="poloto_axis_lines" stroke="black" x1="150" x2="144" y1="204.72354223683328" y2="204.72354223683328"/><text class="poloto_text" alignment-baseline="middle" text-anchor="end" x="135" y="204.72354223683328">4.0e6</text><line class="poloto_axis_lines" stroke="black" x1="150" x2="144" y1="155.9044277960416" y2="155.9044277960416"/><text class="poloto_text" alignment-baseline="middle" text-anchor="end" x="135" y="155.9044277960416">5.0e6</text><line class="poloto_axis_lines" stroke="black" x1="150" x2="144" y1="107.08531335524992" y2="107.08531335524992"/><text class="poloto_text" alignment-baseline="middle" text-anchor="end" x="135" y="107.08531335524992">6.0e6</text><text class="poloto_text" alignment-baseline="middle" text-anchor="start" font-size="large" x="675" y="100">broccoli</text><line class="poloto0stroke" stroke="black" x1="680" x2="730" y1="81.25" y2="81.25"/><polyline class="poloto0stroke" fill="none" stroke="black" points="150,249.25829119430105 155.05050505050505,254.36320835314575 160.1010101010101,259.8070766235529 165.15151515151516,265.4529095704015 170.2020202020202,270.441734875106 175.25252525252523,274.8495638988507 180.30303030303028,279.16165863917695 185.35353535353534,280.1666489290551 190.4040404040404,286.0993918114723 195.45454545454544,289.85704786909446 200.50505050505052,293.6996491858436 205.55555555555551,298.08463086403 210.60606060606057,301.06445197126703 215.65656565656565,301.0145100171941 220.70707070707067,303.24993726743793 225.75757575757575,307.0860944610809 230.80808080808077,308.38893016816235 235.85858585858585,309.7725126905288 240.9090909090909,311.7819562600262 245.95959595959596,312.9415078662239 251.010101010101,314.2603562428419 256.06060606060606,316.6655275539964 261.1111111111111,317.95698840741306 266.16161616161617,319.93045228956765 271.21212121212125,322.0248899373065 276.26262626262627,323.81801601071675 281.3131313131313,325.27306971662455 286.3636363636363,326.5242059815132 291.41414141414134,328.02075593469567 296.4646464646464,329.27901979029264 301.5151515151515,330.7626326781483 306.5656565656565,332.1912752431436 311.61616161616155,334.3662156105953 316.66666666666663,335.5616980850214 321.7171717171717,337.2077321666216 326.7676767676768,338.7082364680738 331.8181818181818,340.1580665287364 336.8686868686868,341.06971467180375 341.9191919191918,342.5515700715395 346.9696969696969,343.701016121048 352.02020202020196,344.9699713627075 357.070707070707,344.8651567240031 362.12121212121207,346.36429409025095 367.1717171717171,346.31908759027874 372.2222222222222,347.74480100840765 377.27272727272725,348.0730607339075 382.3232323232323,348.4125976748432 387.3737373737373,349.37931377899974 392.4242424242424,351.04399676231634 397.47474747474746,351.1246459393725 402.5252525252525,353.3592920837853 407.57575757575756,353.7392024323635 412.6262626262626,354.8057048064371 417.67676767676767,355.73605067033526 422.7272727272727,356.7909829142863 427.77777777777777,357.47523162228845 432.8282828282828,358.29431872437607 437.8787878787879,358.892157599818 442.9292929292929,359.3341170428505 447.979797979798,360.0072349927601 453.03030303030295,360.56855717060034 458.080808080808,361.5250212607243 463.13131313131305,361.84473764119707 468.18181818181813,362.4250016354403 473.23232323232315,363.0826927451867 478.28282828282823,363.5081513275382 483.33333333333326,363.84700480087173 488.38383838383834,364.43659324597314 493.43434343434336,365.11732697773556 498.48484848484844,365.8266687105603 503.5353535353535,366.8291692256019 508.58585858585855,366.88511593075106 513.6363636363636,367.3136012981979 518.6868686868686,367.43120654488575 523.7373737373737,367.974368012154 528.7878787878788,368.28358828302197 533.8383838383837,368.5703517612472 538.8888888888888,369.35170168787204 543.9393939393939,369.50162518831974 548.9898989898988,369.68621026002035 554.0404040404039,370.2251244643323 559.090909090909,370.4950453480754 564.1414141414141,370.72449518594715 569.1919191919192,370.9980775032733 574.2424242424242,371.2277226176028 579.2929292929292,371.7777675800072 584.3434343434343,372.00741269433667 589.3939393939393,372.3146313815126 594.4444444444443,372.5899223678442 599.4949494949494,372.959922436191 604.5454545454545,373.2602576282307 609.5959595959596,373.64168136935666 614.6464646464647,373.68776661338876 619.6969696969697,373.866883944272 624.7474747474747,374.1354378928108 629.7979797979798,374.37128303467426 634.8484848484848,374.75011936273484 639.8989898989898,375.130908455373 644.9494949494949,375.0597790056328 650,375.2969422635861 "/><text class="poloto_text" alignment-baseline="middle" text-anchor="start" font-size="large" x="675" y="150">naive</text><line class="poloto1stroke" stroke="black" x1="680" x2="730" y1="131.25" y2="131.25"/><polyline class="poloto1stroke" fill="none" stroke="black" points="150,400 155.05050505050505,400 160.1010101010101,400 165.15151515151516,400 170.2020202020202,400 175.25252525252523,400 180.30303030303028,400 185.35353535353534,400 190.4040404040404,400 195.45454545454544,400 200.50505050505052,400 205.55555555555551,400 210.60606060606057,400 215.65656565656565,400 220.70707070707067,400 225.75757575757575,400 230.80808080808077,400 235.85858585858585,400 240.9090909090909,400 245.95959595959596,400 251.010101010101,400 256.06060606060606,400 261.1111111111111,400 266.16161616161617,400 271.21212121212125,400 276.26262626262627,400 281.3131313131313,400 286.3636363636363,400 291.41414141414134,400 296.4646464646464,400 301.5151515151515,400 306.5656565656565,400 311.61616161616155,400 316.66666666666663,400 321.7171717171717,400 326.7676767676768,400 331.8181818181818,400 336.8686868686868,400 341.9191919191918,400 346.9696969696969,400 352.02020202020196,400 357.070707070707,400 362.12121212121207,400 367.1717171717171,400 372.2222222222222,400 377.27272727272725,400 382.3232323232323,400 387.3737373737373,400 392.4242424242424,400 397.47474747474746,400 402.5252525252525,400 407.57575757575756,400 412.6262626262626,400 417.67676767676767,400 422.7272727272727,400 427.77777777777777,400 432.8282828282828,400 437.8787878787879,400 442.9292929292929,400 447.979797979798,400 453.03030303030295,400 458.080808080808,400 463.13131313131305,400 468.18181818181813,400 473.23232323232315,400 478.28282828282823,400 483.33333333333326,400 488.38383838383834,400 493.43434343434336,400 498.48484848484844,400 503.5353535353535,400 508.58585858585855,400 513.6363636363636,400 518.6868686868686,400 523.7373737373737,400 528.7878787878788,400 533.8383838383837,400 538.8888888888888,400 543.9393939393939,400 548.9898989898988,400 554.0404040404039,400 559.090909090909,400 564.1414141414141,400 569.1919191919192,400 574.2424242424242,400 579.2929292929292,400 584.3434343434343,400 589.3939393939393,400 594.4444444444443,400 599.4949494949494,400 604.5454545454545,400 609.5959595959596,400 614.6464646464647,400 619.6969696969697,400 624.7474747474747,400 629.7979797979798,400 634.8484848484848,400 639.8989898989898,400 644.9494949494949,400 650,400 "/><text class="poloto_text" alignment-baseline="middle" text-anchor="start" font-size="large" x="675" y="200">nosort</text><line class="poloto2stroke" stroke="black" x1="680" x2="730" y1="181.25" y2="181.25"/><polyline class="poloto2stroke" fill="none" stroke="black" points="150,100 155.05050505050505,108.31809363310873 160.1010101010101,113.11754959289738 165.15151515151516,122.80282252592053 170.2020202020202,138.2174579106005 175.25252525252523,144.07204139079798 180.30303030303028,149.60046436741655 185.35353535353534,153.69814555711886 190.4040404040404,164.0822641133619 195.45454545454544,168.36106421763952 200.50505050505052,173.81591678879582 205.55555555555551,181.27533101800546 210.60606060606057,185.58547299375408 215.65656565656565,185.36442004356618 220.70707070707067,188.76989500961247 225.75757575757575,195.96944509265379 230.80808080808077,198.39018970131488 235.85858585858585,201.46554981551256 240.9090909090909,204.2543417279428 245.95959595959596,205.75064758555305 251.010101010101,209.05579927142352 256.06060606060606,212.67905630699022 261.1111111111111,215.06133145347198 266.16161616161617,218.381275331018 271.21212121212125,220.05728434888482 276.26262626262627,222.73130252326476 281.3131313131313,225.0606577496927 286.3636363636363,226.8116041082261 291.41414141414134,230.23348229672453 296.4646464646464,230.93198618614338 301.5151515151515,236.4108089424901 306.5656565656565,239.73748985782896 311.61616161616155,243.97987090273378 316.66666666666663,245.34661083061818 321.7171717171717,248.46610342427033 326.7676767676768,253.05104819520616 331.8181818181818,255.04731060380456 336.8686868686868,257.0255099400599 341.9191919191918,259.066930029516 346.9696969696969,260.0729455207974 352.02020202020196,262.9142179812515 357.070707070707,263.66622762009746 362.12121212121207,266.62622816687156 367.1717171717171,264.5205133036969 372.2222222222222,266.69603950052186 377.27272727272725,268.434439346644 382.3232323232323,269.6572117060425 387.3737373737373,271.71625549581177 392.4242424242424,276.4767049831623 397.47474747474746,274.8784159954852 402.5252525252525,282.11487332904375 407.57575757575756,281.5054155043649 412.6262626262626,284.20647946814506 417.67676767676767,285.30403079900293 422.7272727272727,288.05777058726466 427.77777777777777,290.0200060730978 432.8282828282828,291.4794046801909 437.8787878787879,293.16136963001946 442.9292929292929,294.0309845155533 447.979797979798,295.5198210486541 453.03030303030295,296.33178056003334 458.080808080808,297.7386009808736 463.13131313131305,299.29720002851036 468.18181818181813,300.7809105545949 473.23232323232315,302.09897782538184 478.28282828282823,302.50027094608515 483.33333333333326,303.29675479818667 488.38383838383834,304.6223890317119 493.43434343434336,305.6463211379931 498.48484848484844,307.19891543455356 503.5353535353535,308.6432289352844 508.58585858585855,309.59139377595346 513.6363636363636,310.2001193139157 518.6868686868686,310.9896708517666 523.7373737373737,311.71951661265643 528.7878787878788,312.779818959196 533.8383838383837,313.72905782038276 538.8888888888888,315.20061238697156 543.9393939393939,315.4405095153336 548.9898989898988,316.29689442085396 554.0404040404039,316.762726410848 559.090909090909,317.44443652489923 564.1414141414141,318.0174264710908 569.1919191919192,319.0249553549198 574.2424242424242,319.9486618192541 579.2929292929292,320.9158172954406 584.3434343434343,321.7028302393406 589.3939393939393,322.409486920871 594.4444444444443,322.97066264136794 599.4949494949494,323.9106746899254 604.5454545454545,324.56153112365 609.5959595959596,325.75379153652307 614.6464646464647,326.0182446794488 619.6969696969697,326.76136923946655 624.7474747474747,327.15358200488384 629.7979797979798,328.0521954443955 634.8484848484848,328.90633467065163 639.8989898989898,329.1298285765615 644.9494949494949,329.0612377207722 650,329.2288825597619 "/><text class="poloto_text" alignment-baseline="middle" text-anchor="start" font-size="large" x="675" y="250">sweep</text><line class="poloto3stroke" stroke="black" x1="680" x2="730" y1="231.25" y2="231.25"/><polyline class="poloto3stroke" fill="none" stroke="black" points="150,205.3950003368519 155.05050505050505,208.8187824708135 160.1010101010101,212.4620553433009 165.15151515151516,216.02331210352776 170.2020202020202,219.2295562635412 175.25252525252523,222.28416825410153 180.30303030303028,225.10825638627244 185.35353535353534,227.99595582455973 190.4040404040404,230.96796587348624 195.45454545454544,233.76642397057574 200.50505050505052,236.43678071137262 205.55555555555551,238.93631937074113 210.60606060606057,241.45240770990512 215.65656565656565,243.92895256637203 220.70707070707067,246.23087145048424 225.75757575757575,248.44598994912073 230.80808080808077,250.81640205079336 235.85858585858585,252.88096240049444 240.9090909090909,254.6370835851586 245.95959595959596,256.97341994495156 251.010101010101,258.8062847775167 256.06060606060606,260.7860463254341 261.1111111111111,262.5577408076049 266.16161616161617,264.3023895003754 271.21212121212125,265.9962663141276 276.26262626262627,267.9527411444567 281.3131313131313,269.6639975629498 286.3636363636363,271.24720144426465 291.41414141414134,272.76713575326426 296.4646464646464,274.3151898721818 301.5151515151515,275.77986094363445 306.5656565656565,277.18145771922957 311.61616161616155,278.6390988382027 316.66666666666663,280.12241881137174 321.7171717171717,281.59641433368256 326.7676767676768,282.90330202726255 331.8181818181818,284.28380894541925 336.8686868686868,285.50360333883685 341.9191919191918,286.7503458834258 346.9696969696969,288.1479394916368 352.02020202020196,289.1997961313781 357.070707070707,290.423496053951 362.12121212121207,291.54111204084404 367.1717171717171,292.52691641874696 372.2222222222222,293.6891042571244 377.27272727272725,294.76327123216515 382.3232323232323,295.825379885939 387.3737373737373,296.75094147662196 392.4242424242424,297.88305674050395 397.47474747474746,298.8399113835435 402.5252525252525,299.8068227641578 407.57575757575756,300.73809619123034 412.6262626262626,301.66150974087793 417.67676767676767,302.74456179474686 422.7272727272727,303.4991588466582 427.77777777777777,304.4166652834584 432.8282828282828,305.29970542546346 437.8787878787879,306.2452828530671 442.9292929292929,307.0391792921033 447.979797979798,307.9823645830994 453.03030303030295,308.6377123753526 458.080808080808,309.4954642160773 463.13131313131305,310.262949514201 468.18181818181813,311.03712303100303 473.23232323232315,311.83970927240966 478.28282828282823,312.57165425522044 483.33333333333326,313.21787287307325 488.38383838383834,314.02704969492936 493.43434343434336,314.6542288581502 498.48484848484844,315.30630576973584 503.5353535353535,316.1126510829544 508.58585858585855,316.728943583655 513.6363636363636,317.4138269401448 518.6868686868686,318.0525274143737 523.7373737373737,318.6365504804289 528.7878787878788,319.24874217551644 533.8383838383837,319.90003798127105 538.8888888888888,320.41942453980664 543.9393939393939,321.1110449340893 548.9898989898988,321.70082865564854 554.0404040404039,322.36852768385523 559.090909090909,322.8704858185354 564.1414141414141,323.4805294725876 569.1919191919192,323.99928138263544 574.2424242424242,324.5342412386776 579.2929292929292,325.0769633339159 584.3434343434343,325.625201989086 589.3939393939393,326.0612055001567 594.4444444444443,326.6988807729823 599.4949494949494,327.19620109179067 604.5454545454545,327.7878887588131 609.5959595959596,328.2227206111372 614.6464646464647,328.6543792210227 619.6969696969697,329.1415939831418 624.7474747474747,329.67064672633666 629.7979797979798,330.0791650759772 634.8484848484848,330.6321880043625 639.8989898989898,331.03670318661887 644.9494949494949,331.4701681037387 650,332.0692274570416 "/><text class="poloto_text" alignment-baseline="start" text-anchor="middle" font-size="x-large" x="400" y="37.5">Complexity of space partitioning algs with abspiral(3000,grow)</text><text class="poloto_text" alignment-baseline="start" text-anchor="middle" font-size="x-large" x="400" y="481.25">Grow</text><text class="poloto_text" alignment-baseline="start" text-anchor="middle" font-size="x-large" transform="rotate(-90,37.5,250)" x="37.5" y="250">Number of Comparisons</text><path stroke="black" fill="none" class="poloto_axis_lines" d=" M 150 100 L 150 400 L 650 400"/></svg>