<svg class="poloto" height="500" viewBox="0 0 800 500" width="800" xmlns="http://www.w3.org/2000/svg">
<rect class="poloto_background" fill="white" height="500" width="800" x="0" y="0"/>
<style>
.poloto {
font-family: "Arial";
stroke-width:2;
}
.poloto_text{fill: var(--poloto_fg_color,black);  }
.poloto_axis_lines{stroke: var(--poloto_fg_color,black);stoke-width:3;fill:none}
.poloto_background{fill: var(--poloto_bg_color,aliceblue); }
.poloto0stroke{stroke:  var(--poloto_color0,blue); }
.poloto1stroke{stroke:  var(--poloto_color1,red); }
.poloto2stroke{stroke:  var(--poloto_color2,green); }
.poloto3stroke{stroke:  var(--poloto_color3,gold); }
.poloto4stroke{stroke:  var(--poloto_color4,aqua); }
.poloto5stroke{stroke:  var(--poloto_color5,brown); }
.poloto6stroke{stroke:  var(--poloto_color6,lime); }
.poloto7stroke{stroke:  var(--poloto_color7,chocolate); }
.poloto0fill{fill:var(--poloto_color0,blue);}
.poloto1fill{fill:var(--poloto_color1,red);}
.poloto2fill{fill:var(--poloto_color2,green);}
.poloto3fill{fill:var(--poloto_color3,gold);}
.poloto4fill{fill:var(--poloto_color4,aqua);}
.poloto5fill{fill:var(--poloto_color5,brown);}
.poloto6fill{fill:var(--poloto_color6,lime);}
.poloto7fill{fill:var(--poloto_color7,chocolate);}
</style>
<line class="poloto_axis_lines" stroke="black" x1="150" x2="150" y1="400" y2="405"/>
<text alignment-baseline="start" class="poloto_text" text-anchor="middle" x="150" y="440">
0
</text>
<line class="poloto_axis_lines" stroke="black" x1="251.0101" x2="251.0101" y1="400" y2="405"/>
<text alignment-baseline="start" class="poloto_text" text-anchor="middle" x="251.0101" y="440">
2000
</text>
<line class="poloto_axis_lines" stroke="black" x1="352.0202" x2="352.0202" y1="400" y2="405"/>
<text alignment-baseline="start" class="poloto_text" text-anchor="middle" x="352.0202" y="440">
4000
</text>
<line class="poloto_axis_lines" stroke="black" x1="453.0303" x2="453.0303" y1="400" y2="405"/>
<text alignment-baseline="start" class="poloto_text" text-anchor="middle" x="453.0303" y="440">
6000
</text>
<line class="poloto_axis_lines" stroke="black" x1="554.0404" x2="554.0404" y1="400" y2="405"/>
<text alignment-baseline="start" class="poloto_text" text-anchor="middle" x="554.0404" y="440">
8000
</text>
<line class="poloto_axis_lines" stroke="black" x1="150" x2="144" y1="344.31006" y2="344.31006"/>
<text alignment-baseline="middle" class="poloto_text" text-anchor="end" x="120" y="344.31006">
0.002
</text>
<line class="poloto_axis_lines" stroke="black" x1="150" x2="144" y1="288.6123" y2="288.6123"/>
<text alignment-baseline="middle" class="poloto_text" text-anchor="end" x="120" y="288.6123">
0.004
</text>
<line class="poloto_axis_lines" stroke="black" x1="150" x2="144" y1="232.91455" y2="232.91455"/>
<text alignment-baseline="middle" class="poloto_text" text-anchor="end" x="120" y="232.91455">
0.006
</text>
<line class="poloto_axis_lines" stroke="black" x1="150" x2="144" y1="177.2168" y2="177.2168"/>
<text alignment-baseline="middle" class="poloto_text" text-anchor="end" x="120" y="177.2168">
0.008
</text>
<line class="poloto_axis_lines" stroke="black" x1="150" x2="144" y1="121.51901" y2="121.51901"/>
<text alignment-baseline="middle" class="poloto_text" text-anchor="end" x="120" y="121.51901">
0.010
</text>
<text alignment-baseline="middle" class="poloto_text" font-size="large" text-anchor="start" x="675" y="100">
brocc
</text>
<line class="poloto0stroke" x1="680" x2="730" y1="81.25" y2="81.25"/>
<polyline class="poloto0stroke" fill="none" points="150,399.738 155.0505,399.25116 160.10101,397.8013 165.15152,397.48553 170.20203,396.45972 175.25253,395.31943 180.30302,394.2984 185.35353,393.53265 190.40404,392.46442 195.45454,390.88055 200.50505,390.06265 205.55556,388.34824 210.60606,388.56683 215.65656,386.56012 220.70706,386.58035 225.75757,384.705 230.80807,383.8203 235.85858,383.36108 240.90909,382.52994 245.9596,381.5074 251.0101,380.63586 256.0606,379.15976 261.1111,378.04068 266.16162,377.0841 271.21213,376.3686 276.26263,375.05072 281.3131,374.23627 286.36365,373.39755 291.41412,372.08813 296.46466,371.04785 301.51514,370.19775 306.56567,369.2102 311.61615,368.2199 316.66666,366.98895 321.71716,366.1897 326.76767,365.1036 331.81818,363.53387 336.86868,362.90857 341.9192,362.04816 346.9697,360.68115 352.0202,359.5334 357.0707,359.12207 362.12122,357.48874 367.1717,357.21017 372.22223,355.54233 377.2727,355.02737 382.32324,353.80725 387.37372,352.8421 392.42426,351.67575 397.47473,350.14764 402.52527,349.70786 407.57574,348.75543 412.62625,347.1758 417.67676,346.11942 422.72726,345.17615 427.77777,344.521 432.82828,339.8747 437.87878,341.9917 442.9293,341.26508 447.9798,340.74478 453.0303,338.90155 458.0808,338.817 463.13132,337.60712 468.18182,336.1314 473.23233,335.18762 478.28284,334.13702 483.3333,332.88373 488.38382,330.98462 493.43433,330.8516 498.48483,329.66187 503.53534,326.172 508.58585,327.3211 513.63635,326.05414 518.6869,324.7834 523.73737,323.44568 528.78784,322.41913 533.8384,321.80334 538.8889,320.99603 543.9394,319.13632 548.98987,318.10086 554.0404,316.9103 559.09094,316.5296 564.1414,313.30792 569.1919,310.17145 574.24243,310.99362 579.2929,310.48865 584.3434,308.6858 589.3939,307.65906 594.44446,306.85596 599.49493,305.9172 604.5454,305.1159 609.59595,303.79553 614.6465,303.27603 619.69696,302.16132 624.74744,297.54504 629.798,299.197 634.8485,298.6658 639.899,298.1905 644.94946,296.2397 650,296.05133 " stroke="black"/>
<text alignment-baseline="middle" class="poloto_text" font-size="large" text-anchor="start" x="675" y="150">
brocc_par
</text>
<line class="poloto1stroke" x1="680" x2="730" y1="131.25" y2="131.25"/>
<polyline class="poloto1stroke" fill="none" points="150,399.6146 155.0505,398.59573 160.10101,397.8499 165.15152,397.31372 170.20203,396.32336 175.25253,395.1557 180.30302,394.28955 185.35353,393.45944 190.40404,392.49738 195.45454,391.157 200.50505,389.68823 205.55556,388.57922 210.60606,388.598 215.65656,386.5608 220.70706,385.1166 225.75757,383.86896 230.80807,382.02844 235.85858,383.50418 240.90909,382.39136 245.9596,381.61002 251.0101,380.62604 256.0606,375.8944 261.1111,376.47513 266.16162,375.99234 271.21213,379.71997 276.26263,381.51807 281.3131,380.02988 286.36365,379.0463 291.41412,374.70285 296.46466,372.4477 301.51514,371.6267 306.56567,371.59164 311.61615,369.56287 316.66666,371.46707 321.71716,371.28998 326.76767,368.32846 331.81818,370.42105 336.86868,368.41855 341.9192,366.6034 346.9697,366.75458 352.0202,365.49203 357.0707,371.32605 362.12122,376.3813 367.1717,373.05997 372.22223,371.7662 377.2727,371.60507 382.32324,378.05652 387.37372,376.8871 392.42426,372.77905 397.47473,370.39102 402.52527,375.663 407.57574,368.9572 412.62625,373.4243 417.67676,371.67255 422.72726,358.02612 427.77777,368.89108 432.82828,364.62463 437.87878,367.56073 442.9293,371.213 447.9798,360.83347 453.0303,368.18668 458.0808,369.13968 463.13132,366.3942 468.18182,367.92175 473.23233,368.6844 478.28284,365.55215 483.3333,363.36215 488.38382,369.56644 493.43433,362.49063 498.48483,370.5965 503.53534,369.66562 508.58585,363.02783 513.63635,367.30524 518.6869,362.7343 523.73737,360.84244 528.78784,362.6898 533.8384,361.41425 538.8889,358.34973 543.9394,361.4422 548.98987,358.09583 554.0404,356.50836 559.09094,363.73886 564.1414,362.1454 569.1919,354.4151 574.24243,361.58023 579.2929,360.4048 584.3434,355.06094 589.3939,330.78125 594.44446,345.14346 599.49493,359.5804 604.5454,355.84125 609.59595,356.50925 614.6465,226.5131 619.69696,354.89374 624.74744,355.43414 629.798,352.12888 634.8485,354.93964 639.899,356.04913 644.94946,357.0526 650,357.78937 " stroke="black"/>
<text alignment-baseline="middle" class="poloto_text" font-size="large" text-anchor="start" x="675" y="200">
naive
</text>
<line class="poloto2stroke" x1="680" x2="730" y1="181.25" y2="181.25"/>
<polyline class="poloto2stroke" fill="none" points="150,400 155.0505,398.75446 160.10101,396.3627 165.15152,393.37054 170.20203,389.75156 175.25253,385.59772 180.30302,380.91064 185.35353,375.47742 190.40404,368.7429 195.45454,360.18005 200.50505,351.23413 205.55556,347.88385 210.60606,335.6446 215.65656,325.29016 220.70706,317.9261 225.75757,305.07535 230.80807,298.68292 235.85858,290.0422 240.90909,278.7105 245.9596,265.67712 251.0101,254.26741 256.0606,239.67554 261.1111,222.93527 266.16162,212.482 271.21213,192.22733 276.26263,181.74442 281.3131,168.14043 286.36365,153.39091 291.41412,137.44937 296.46466,119.4389 301.51514,100 " stroke="black"/>
<text alignment-baseline="middle" class="poloto_text" font-size="large" text-anchor="start" x="675" y="250">
nosort
</text>
<line class="poloto3stroke" x1="680" x2="730" y1="231.25" y2="231.25"/>
<polyline class="poloto3stroke" fill="none" points="150,399.95468 155.0505,399.15225 160.10101,397.80594 165.15152,396.46585 170.20203,393.8728 175.25253,392.90924 180.30302,391.25272 185.35353,390.47787 190.40404,388.10605 195.45454,385.5865 200.50505,383.54803 205.55556,383.1896 210.60606,380.76758 215.65656,378.459 220.70706,377.06046 225.75757,373.11176 230.80807,373.592 235.85858,371.1461 240.90909,368.5172 245.9596,366.6594 251.0101,363.63156 256.0606,365.31323 261.1111,362.21698 266.16162,360.96967 271.21213,358.89905 276.26263,356.8928 281.3131,353.90115 286.36365,352.2712 291.41412,350.33734 296.46466,346.84604 301.51514,345.4698 306.56567,343.0269 311.61615,341.10782 316.66666,339.1117 321.71716,336.0869 326.76767,332.7658 331.81818,331.47528 336.86868,326.97543 341.9192,325.23376 346.9697,322.90372 352.0202,320.53632 357.0707,323.8637 362.12122,322.25778 367.1717,319.43942 372.22223,315.76767 377.2727,315.7541 382.32324,311.91968 387.37372,309.67258 392.42426,308.56134 397.47473,305.41174 402.52527,301.66055 407.57574,300.22168 412.62625,297.29996 417.67676,295.56378 422.72726,293.4003 427.77777,287.78937 432.82828,286.95267 437.87878,284.8517 442.9293,282.88983 447.9798,280.32898 453.0303,275.75485 458.0808,275.48178 463.13132,271.63385 468.18182,269.67615 473.23233,269.266 478.28284,266.8086 483.3333,263.65106 488.38382,261.4291 493.43433,258.51135 498.48483,255.1668 503.53534,248.43365 508.58585,248.86598 513.63635,244.8522 518.6869,238.25116 523.73737,240.27277 528.78784,236.59499 533.8384,237.22905 538.8889,231.72504 543.9394,229.57465 548.98987,225.957 554.0404,225.33627 559.09094,222.49673 564.1414,234.62231 569.1919,231.76845 574.24243,229.49661 579.2929,226.14433 584.3434,224.18901 589.3939,221.33995 594.44446,215.73425 599.49493,218.89777 604.5454,213.30925 609.59595,212.29639 614.6465,210.22786 619.69696,204.66235 624.74744,200.72195 629.798,201.38606 634.8485,197.07611 639.899,198.63034 644.94946,194.88509 650,191.64134 " stroke="black"/>
<text alignment-baseline="middle" class="poloto_text" font-size="large" text-anchor="start" x="675" y="300">
nosort_par
</text>
<line class="poloto4stroke" x1="680" x2="730" y1="281.25" y2="281.25"/>
<polyline class="poloto4stroke" fill="none" points="150,399.82498 155.0505,399.11963 160.10101,397.76947 165.15152,396.38007 170.20203,394.6855 175.25253,392.89563 180.30302,391.60126 185.35353,390.51044 190.40404,388.22922 195.45454,385.47122 200.50505,383.25665 205.55556,383.05453 210.60606,379.68823 215.65656,378.2625 220.70706,377.77866 225.75757,373.36322 230.80807,373.54816 235.85858,371.40372 240.90909,368.53723 245.9596,367.0221 251.0101,364.0991 256.0606,367.93005 261.1111,365.00354 266.16162,365.52893 271.21213,289.76297 276.26263,361.3613 281.3131,365.4817 286.36365,363.953 291.41412,358.05676 296.46466,355.1278 301.51514,354.85464 306.56567,354.99658 311.61615,351.1469 316.66666,353.6728 321.71716,348.48 326.76767,349.44006 331.81818,346.77338 336.86868,344.22504 341.9192,344.26428 346.9697,343.5462 352.0202,341.56412 357.0707,355.59528 362.12122,359.91705 367.1717,355.26303 372.22223,353.0935 377.2727,352.9043 382.32324,355.69183 387.37372,350.8662 392.42426,350.61847 397.47473,346.4246 402.52527,351.2734 407.57574,346.8657 412.62625,342.81046 417.67676,343.8269 422.72726,340.70584 427.77777,331.9959 432.82828,343.76123 437.87878,342.35608 442.9293,341.1631 447.9798,339.10297 453.0303,337.57178 458.0808,339.01013 463.13132,335.70688 468.18182,332.78162 473.23233,336.35443 478.28284,334.1706 483.3333,336.721 488.38382,333.25345 493.43433,332.54178 498.48483,331.2976 503.53534,324.35178 508.58585,330.64386 513.63635,326.87018 518.6869,322.2955 523.73737,302.63132 528.78784,318.64923 533.8384,322.3763 538.8889,318.35214 543.9394,322.28412 548.98987,321.44516 554.0404,317.64508 559.09094,324.81165 564.1414,326.4588 569.1919,322.7983 574.24243,322.05603 579.2929,322.63885 584.3434,323.1087 589.3939,174.07887 594.44446,283.35217 599.49493,316.3894 604.5454,312.24268 609.59595,315.3576 614.6465,308.96313 619.69696,297.87976 624.74744,305.2427 629.798,305.82077 634.8485,304.39597 639.899,312.26297 644.94946,307.3797 650,306.94116 " stroke="black"/>
<text alignment-baseline="middle" class="poloto_text" font-size="large" text-anchor="start" x="675" y="350">
sweep
</text>
<line class="poloto5stroke" x1="680" x2="730" y1="331.25" y2="331.25"/>
<polyline class="poloto5stroke" fill="none" points="150,399.84824 155.0505,399.15433 160.10101,397.96628 165.15152,396.54132 170.20203,394.97153 175.25253,392.84048 180.30302,391.7604 185.35353,389.98633 190.40404,387.98404 195.45454,385.2625 200.50505,383.03387 205.55556,381.61438 210.60606,379.456 215.65656,376.3118 220.70706,374.70508 225.75757,370.74124 230.80807,370.05804 235.85858,367.3183 240.90909,364.99612 245.9596,362.4746 251.0101,359.824 256.0606,356.76517 261.1111,354.13666 266.16162,350.97845 271.21213,348.08917 276.26263,345.5157 281.3131,342.25012 286.36365,339.1031 291.41412,336.48126 296.46466,332.8875 301.51514,329.61673 306.56567,326.97525 311.61615,323.63422 316.66666,320.3372 321.71716,317.40588 326.76767,314.39453 331.81818,310.55133 336.86868,307.10724 341.9192,303.86728 346.9697,300.14786 352.0202,296.5867 357.0707,293.19635 362.12122,289.5818 367.1717,285.73166 372.22223,282.2191 377.2727,278.6394 382.32324,275.01764 387.37372,271.34903 392.42426,267.6287 397.47473,264.0005 402.52527,260.22778 407.57574,255.9482 412.62625,252.01013 417.67676,248.41077 422.72726,244.52284 427.77777,240.74165 432.82828,232.95828 437.87878,232.8199 442.9293,228.38269 447.9798,224.39915 453.0303,218.98497 " stroke="black"/>
<text alignment-baseline="start" class="poloto_text" font-size="x-large" text-anchor="middle" x="400" y="37.5">
Bench of space partitioning algs with abspiral(x,0.2)
</text>
<text alignment-baseline="start" class="poloto_text" font-size="large" text-anchor="middle" x="400" y="481.25">
Number of Elements
</text>
<text alignment-baseline="start" class="poloto_text" font-size="large" text-anchor="middle" transform="rotate(-90,37.5,250)" x="37.5" y="250">
Time in Seconds
</text>
<path class="poloto_axis_lines" d="M150,100 L150,400 L650,400" stroke="black"/>
</svg>