<svg class="poloto" width="800" height="500" viewBox="0 0 800 500" xmlns="http://www.w3.org/2000/svg"><style>.poloto {
            font-family: "Arial";
            stroke-width:2;
            }
            .poloto_text{fill: var(--poloto_fg_color,black);  }
            .poloto_axis_lines{stroke: var(--poloto_fg_color,black);stoke-width:3;fill:none}
            .poloto_background{fill: var(--poloto_bg_color,aliceblue); }
            .poloto0stroke{stroke:  var(--poloto_color0,blue); }
            .poloto1stroke{stroke:  var(--poloto_color1,red); }
            .poloto2stroke{stroke:  var(--poloto_color2,green); }
            .poloto3stroke{stroke:  var(--poloto_color3,gold); }
            .poloto4stroke{stroke:  var(--poloto_color4,aqua); }
            .poloto5stroke{stroke:  var(--poloto_color5,brown); }
            .poloto6stroke{stroke:  var(--poloto_color6,lime); }
            .poloto7stroke{stroke:  var(--poloto_color7,chocolate); }
            .poloto0fill{fill:var(--poloto_color0,blue);}
            .poloto1fill{fill:var(--poloto_color1,red);}
            .poloto2fill{fill:var(--poloto_color2,green);}
            .poloto3fill{fill:var(--poloto_color3,gold);}
            .poloto4fill{fill:var(--poloto_color4,aqua);}
            .poloto5fill{fill:var(--poloto_color5,brown);}
            .poloto6fill{fill:var(--poloto_color6,lime);}
            .poloto7fill{fill:var(--poloto_color7,chocolate);}</style><rect class="poloto_background" fill="white" x="0" y="0" width="800" height="500"/><line class="poloto_axis_lines" stroke="black" x1="150" x2="150" y1="400" y2="405"/><text class="poloto_text" alignment-baseline="start" text-anchor="middle" x="150" y="430">0</text><line class="poloto_axis_lines" stroke="black" x1="251.010101010101" x2="251.010101010101" y1="400" y2="405"/><text class="poloto_text" alignment-baseline="start" text-anchor="middle" x="251.010101010101" y="430">2000</text><line class="poloto_axis_lines" stroke="black" x1="352.020202020202" x2="352.020202020202" y1="400" y2="405"/><text class="poloto_text" alignment-baseline="start" text-anchor="middle" x="352.020202020202" y="430">4000</text><line class="poloto_axis_lines" stroke="black" x1="453.030303030303" x2="453.030303030303" y1="400" y2="405"/><text class="poloto_text" alignment-baseline="start" text-anchor="middle" x="453.030303030303" y="430">6000</text><line class="poloto_axis_lines" stroke="black" x1="554.040404040404" x2="554.040404040404" y1="400" y2="405"/><text class="poloto_text" alignment-baseline="start" text-anchor="middle" x="554.040404040404" y="430">8000</text><line class="poloto_axis_lines" stroke="black" x1="150" x2="144" y1="344.37998934222543" y2="344.37998934222543"/><text class="poloto_text" alignment-baseline="middle" text-anchor="end" x="135" y="344.37998934222543">0.002</text><line class="poloto_axis_lines" stroke="black" x1="150" x2="144" y1="288.7548611726593" y2="288.7548611726593"/><text class="poloto_text" alignment-baseline="middle" text-anchor="end" x="135" y="288.7548611726593">0.004</text><line class="poloto_axis_lines" stroke="black" x1="150" x2="144" y1="233.12973300309312" y2="233.12973300309312"/><text class="poloto_text" alignment-baseline="middle" text-anchor="end" x="135" y="233.12973300309312">0.006</text><line class="poloto_axis_lines" stroke="black" x1="150" x2="144" y1="177.50460483352697" y2="177.50460483352697"/><text class="poloto_text" alignment-baseline="middle" text-anchor="end" x="135" y="177.50460483352697">0.008</text><line class="poloto_axis_lines" stroke="black" x1="150" x2="144" y1="121.87947666396082" y2="121.87947666396082"/><text class="poloto_text" alignment-baseline="middle" text-anchor="end" x="135" y="121.87947666396082">0.010</text><text class="poloto_text" alignment-baseline="middle" text-anchor="start" font-size="large" x="675" y="100">brocc</text><line class="poloto0stroke" stroke="black" x1="680" x2="730" y1="81.25" y2="81.25"/><polyline class="poloto0stroke" fill="none" stroke="black" points="150,399.88788755417426 155.05050505050505,399.2787367755893 160.1010101010101,398.1430385337513 165.15151515151516,397.30084628069994 170.2020202020202,396.4159895543426 175.25252525252526,395.4598492262359 180.3030303030303,394.3104393903041 185.35353535353534,393.24213099124347 190.40404040404042,392.343785171305 195.45454545454544,391.15660587334605 200.50505050505052,390.2688844528879 205.55555555555554,389.17810350204684 210.6060606060606,388.3355774982265 215.65656565656565,387.45981548032483 220.7070707070707,386.4430993876415 225.75757575757575,385.1969574538228 230.8080808080808,384.0374238445641 235.85858585858585,382.8084700753498 240.9090909090909,382.01019386098835 245.95959595959596,381.12161025104365 251.010101010101,380.03516806019974 256.06060606060606,378.7747304684415 261.1111111111111,377.37739943625786 266.16161616161617,376.5800966616394 271.2121212121212,375.85763749697304 276.26262626262627,374.94446758037736 281.3131313131313,373.49807518514825 286.3636363636364,372.54980581267756 291.4141414141414,371.8457029403072 296.4646464646464,370.42450872813885 301.5151515151515,369.5575632930521 306.5656565656566,368.6239511418541 311.6161616161616,367.2046759966076 316.66666666666663,366.60639993057987 321.7171717171717,365.47153606566434 326.7676767676768,364.3364218876721 331.8181818181818,362.7971077158357 336.86868686868684,362.2344039192724 341.9191919191919,361.05540151515436 346.969696969697,359.5010963712762 352.020202020202,358.7477652604758 357.07070707070704,357.8429947382337 362.1212121212121,356.0624900106541 367.1717171717172,354.74745635559736 372.22222222222223,353.2234112814435 377.27272727272725,353.41412203337285 382.32323232323233,351.79022985415463 387.37373737373736,351.47583662974023 392.4242424242424,349.668242464742 397.47474747474746,348.6715236056356 402.52525252525254,348.0036883168318 407.57575757575756,347.4402613936023 412.62626262626264,345.77782100056254 417.67676767676767,327.8176352423012 422.72727272727275,343.4123068000236 427.77777777777777,341.92642056379407 432.8282828282828,341.82818658744657 437.8787878787879,340.49401788829954 442.9292929292929,339.2221771452665 447.979797979798,338.79461459759113 453.030303030303,337.1891621483611 458.0808080808081,336.78229214836483 463.1313131313131,335.12669364608996 468.1818181818182,334.5017175185408 473.2323232323232,333.2206430042316 478.2828282828283,332.0862797654696 483.3333333333333,330.0143549914096 488.3838383838384,326.3775284865552 493.4343434343434,327.4911157399458 498.4848484848485,326.19048899308507 503.5353535353535,325.14445845785633 508.5858585858586,316.1439789692515 513.6363636363636,306.6022113584287 518.6868686868687,322.2132923289611 523.7373737373737,318.07767529981015 528.7878787878788,304.0372254482736 533.8383838383838,319.43501186483985 538.8888888888889,310.4598139969881 543.939393939394,306.23121956610174 548.989898989899,314.9814416030717 554.040404040404,313.76024753923707 559.090909090909,313.5707605401274 564.1414141414141,311.2975284272218 569.1919191919192,309.69660942593754 574.2424242424242,309.19178357523464 579.2929292929293,308.5513992871825 584.3434343434344,306.4748854400485 589.3939393939394,306.1028367702864 594.4444444444445,305.0078004971403 599.4949494949494,303.83333154096806 604.5454545454545,303.01725528559234 609.5959595959596,302.0935165946445 614.6464646464647,301.5540362890919 619.6969696969697,299.7245814487231 624.7474747474747,296.71353763577633 629.7979797979798,297.07699222323623 634.8484848484848,296.5247181382047 639.8989898989898,296.299464181682 644.9494949494949,293.7209891779459 650,293.72121167845853 "/><text class="poloto_text" alignment-baseline="middle" text-anchor="start" font-size="large" x="675" y="150">brocc_par</text><line class="poloto1stroke" stroke="black" x1="680" x2="730" y1="131.25" y2="131.25"/><polyline class="poloto1stroke" fill="none" stroke="black" points="150,399.5339448636313 155.05050505050505,398.6902229195553 160.1010101010101,397.9492127746444 165.15151515151516,396.78102945795536 170.2020202020202,396.28577112929764 175.25252525252526,394.7138606323539 180.3030303030303,394.2594311477726 185.35353535353534,393.4224954693333 190.40404040404042,392.3098816556857 195.45454545454544,391.12623455336546 200.50505050505052,390.14876198860577 205.55555555555554,389.1449509256578 210.6060606060606,388.47063530942216 215.65656565656565,387.5205859328501 220.7070707070707,386.4000177258742 225.75757575757575,385.1891143107509 230.8080808080808,384.27313532518264 235.85858585858585,382.991254246515 240.9090909090909,381.9784597253676 245.95959595959596,381.1685856717828 251.010101010101,379.8566948364677 256.06060606060606,374.16935923189857 261.1111111111111,379.0019591170141 266.16161616161617,376.9239712039836 271.2121212121212,369.9739730025295 276.26262626262627,373.55328312485653 281.3131313131313,375.7714741734384 286.3636363636364,372.3860454353464 291.4141414141414,372.025399916859 296.4646464646464,374.171139236 301.5151515151515,372.09968727552945 306.5656565656566,371.2861419634854 311.6161616161616,370.6235910618577 316.66666666666663,369.1287491799929 321.7171717171717,368.7632086502266 326.7676767676768,369.05994089644713 331.8181818181818,366.7031876535949 336.86868686868684,367.82756618185044 341.9191919191919,366.2555444346503 346.969696969697,367.34905101677174 352.020202020202,364.4565999770824 357.07070707070704,363.35486087599196 362.1212121212121,352.24735715745214 367.1717171717172,364.359033502273 372.22222222222223,367.81524521596083 377.27272727272725,368.98626541418656 382.32323232323233,364.90424319602704 387.37373737373736,372.63919539364605 392.4242424242424,370.8302106004436 397.47474747474746,364.9011560014136 402.52525252525254,368.397250931999 407.57575757575756,356.10031509780936 412.62626262626264,372.1747255734302 417.67676767676767,371.3393752111437 422.72727272727275,340.3672482212011 427.77777777777777,342.91426721495736 432.8282828282828,363.28619165526663 437.8787878787879,356.3352478266335 442.9292929292929,284.8811550594948 447.979797979798,368.0334904063341 453.030303030303,361.09261472589975 458.0808080808081,372.78279166201577 463.1313131313131,372.09815758450475 468.1818181818182,366.2694229041286 473.2323232323232,336.91170400905133 478.2828282828283,359.7848123375051 483.3333333333333,367.9092238700033 488.3838383838384,362.655486139516 493.4343434343434,362.98487033597206 498.4848484848485,369.24525601094405 503.5353535353535,354.9472061908543 508.5858585858586,366.04711707939896 513.6363636363636,345.41489485182024 518.6868686868687,347.71777515804024 523.7373737373737,344.09265774266555 528.7878787878788,367.8612471969571 533.8383838383838,341.84228755743754 538.8888888888889,338.05099007165626 543.939393939394,363.84174762286017 548.989898989899,357.58926071608823 554.040404040404,358.5785258080199 559.090909090909,349.3827464944117 564.1414141414141,358.6642163179651 569.1919191919192,362.4003058640381 574.2424242424242,353.55293454072 579.2929292929293,352.23923588873936 584.3434343434344,356.20286002158997 589.3939393939394,354.00661308607096 594.4444444444445,357.59159697147135 599.4949494949494,359.5372248920223 604.5454545454545,360.57029477238757 609.5959595959596,355.79699127390074 614.6464646464647,360.77132398559235 619.6969696969697,331.53061254761974 624.7474747474747,357.12403995664204 629.7979797979798,358.2444691007976 634.8484848484848,351.62385509579946 639.8989898989898,357.628226118371 644.9494949494949,358.15519077008537 650,322.37708051885636 "/><text class="poloto_text" alignment-baseline="middle" text-anchor="start" font-size="large" x="675" y="200">naive</text><line class="poloto2stroke" stroke="black" x1="680" x2="730" y1="181.25" y2="181.25"/><polyline class="poloto2stroke" fill="none" stroke="black" points="150,400 155.05050505050505,398.8236119769059 160.1010101010101,396.8575696343167 165.15151515151516,393.96492390667885 170.2020202020202,390.3946806802434 175.25252525252526,387.8411257339272 180.3030303030303,383.8095833195816 185.35353535353534,379.2512987540342 190.40404040404042,373.91754427667496 195.45454545454544,368.1321415711429 200.50505050505052,361.18815088353097 205.55555555555554,353.5633920648159 210.6060606060606,344.2561399943559 215.65656565656565,328.9108080736536 220.7070707070707,326.4846902959739 225.75757575757575,316.75757975809 230.8080808080808,305.86587372428403 235.85858585858585,294.96663048561106 240.9090909090909,284.0513115848971 245.95959595959596,270.4034917005455 251.010101010101,258.5643228586273 256.06060606060606,244.25239456905913 261.1111111111111,231.31654851271387 266.16161616161617,216.17299674444666 271.2121212121212,201.16722841865547 276.26262626262627,186.2356640138425 281.3131313131313,170.7103013658194 286.3636363636364,152.3161561701432 291.4141414141414,136.7475727975323 296.4646464646464,119.59937484772621 301.5151515151515,100 "/><text class="poloto_text" alignment-baseline="middle" text-anchor="start" font-size="large" x="675" y="250">nosort</text><line class="poloto3stroke" stroke="black" x1="680" x2="730" y1="231.25" y2="231.25"/><polyline class="poloto3stroke" fill="none" stroke="black" points="150,399.87915440905164 155.05050505050505,399.1179523426152 160.1010101010101,397.75908608656084 165.15151515151516,396.4422446148386 170.2020202020202,394.53552647144227 175.25252525252526,392.70629413158605 180.3030303030303,391.5057648028664 185.35353535353534,390.44098859944455 190.40404040404042,388.0383446258524 195.45454545454544,385.93565915591466 200.50505050505052,383.9074557325959 205.55555555555554,382.89335402093656 210.6060606060606,381.36719519191223 215.65656565656565,377.01119140495354 220.7070707070707,377.42604361084216 225.75757575757575,374.5068646970674 230.8080808080808,372.9502511103703 235.85858585858585,370.44511783812567 240.9090909090909,367.7217671880719 245.95959595959596,365.64155426991465 251.010101010101,362.2309829738899 256.06060606060606,365.15386095868797 261.1111111111111,362.4194687206925 266.16161616161617,360.56812539238894 271.2121212121212,358.52189942754325 276.26262626262627,356.7531594145715 281.3131313131313,353.68304171550864 286.3636363636364,352.4699689203867 291.4141414141414,350.54478323443806 296.4646464646464,346.7932020901698 301.5151515151515,345.1893349570926 306.5656565656566,342.7574321660833 311.6161616161616,340.9964796710552 316.66666666666663,338.76168452171476 321.7171717171717,335.37959329131286 326.7676767676768,332.59836469539863 331.8181818181818,331.588101117583 336.86868686868684,326.5190110000545 341.9191919191919,324.9234041985105 346.969696969697,322.5531618620771 352.020202020202,318.8055022893449 357.07070707070704,322.51344552056406 362.1212121212121,320.7171988817124 367.1717171717172,317.66318465725465 372.22222222222223,298.1635178517724 377.27272727272725,312.10414841080865 382.32323232323233,293.96048316727996 387.37373737373736,307.5708395278094 392.4242424242424,306.70111283631417 397.47474747474746,286.5846189845596 402.52525252525254,297.58946652906246 407.57575757575756,296.11776470051615 412.62626262626264,288.51105623589206 417.67676767676767,291.4252288881315 422.72727272727275,289.5790865093118 427.77777777777777,288.80367222262805 432.8282828282828,285.89673083705065 437.8787878787879,282.2217454942719 442.9292929292929,280.3996609833855 447.979797979798,277.70442883562146 453.030303030303,272.8294704154047 458.0808080808081,272.66134346551223 463.1313131313131,268.79912394131475 468.1818181818182,266.1764547732479 473.2323232323232,266.3742021038907 478.2828282828283,263.9783722084993 483.3333333333333,258.56012316145046 488.3838383838384,256.2777963400891 493.4343434343434,253.14971725747353 498.4848484848485,250.2659159252146 503.5353535353535,244.90779764171708 508.5858585858586,228.9137376637372 513.6363636363636,226.95773565678257 518.6868686868687,217.71292279269292 523.7373737373737,220.12018365192318 528.7878787878788,216.44503143375994 533.8383838383838,217.1501911835655 538.8888888888889,210.7147532302439 543.939393939394,212.90924797422554 548.989898989899,221.4236472803206 554.040404040404,221.5387912956316 559.090909090909,218.51275651064313 564.1414141414141,234.13994095578062 569.1919191919192,230.98121242754362 574.2424242424242,227.50044221976896 579.2929292929293,225.60924348713186 584.3434343434344,222.97099928317752 589.3939393939394,221.53762316794004 594.4444444444445,216.46666960861788 599.4949494949494,217.51222733025713 604.5454545454545,213.03326419747958 609.5959595959596,211.98806803917344 614.6464646464647,210.10162525499484 619.6969696969697,202.07989770909765 624.7474747474747,201.0661575607714 629.7979797979798,200.9645026390415 634.8484848484848,197.45466830179822 639.8989898989898,197.81339475336375 644.9494949494949,194.1954529795229 650,189.6506018824285 "/><text class="poloto_text" alignment-baseline="middle" text-anchor="start" font-size="large" x="675" y="300">nosort_par</text><line class="poloto4stroke" stroke="black" x1="680" x2="730" y1="281.25" y2="281.25"/><polyline class="poloto4stroke" fill="none" stroke="black" points="150,399.9774161979632 155.05050505050505,399.0916694695551 160.1010101010101,397.7244594442753 165.15151515151516,396.4529524520113 170.2020202020202,394.52267706683506 175.25252525252526,392.84580195303533 180.3030303030303,391.5772709051284 185.35353535353534,390.45036143354116 190.40404040404042,388.19164747908775 195.45454545454544,385.87805933569507 200.50505050505052,383.9093191743896 205.55555555555554,383.2047434884298 210.6060606060606,381.69441000836974 215.65656565656565,379.4485176459594 220.7070707070707,377.8325242349413 225.75757575757575,374.94769383781124 230.8080808080808,373.5760059897138 235.85858585858585,371.1894654907267 240.9090909090909,368.54101407575325 245.95959595959596,366.505412510388 251.010101010101,362.39059927917253 256.06060606060606,366.83154263684617 261.1111111111111,364.59391060596903 266.16161616161617,364.85340182888007 271.2121212121212,362.23921549285905 276.26262626262627,363.2206374417188 281.3131313131313,360.47467517706406 286.3636363636364,358.2091471444099 291.4141414141414,359.0575972243803 296.4646464646464,356.32356654971795 301.5151515151515,357.76995894494706 306.5656565656566,352.89455552370504 311.6161616161616,352.8976705308825 316.66666666666663,352.55782881033053 321.7171717171717,348.2247425761777 326.7676767676768,347.9941764199148 331.8181818181818,347.80605223644534 336.86868686868684,344.4019334552883 341.9191919191919,345.69029486138777 346.969696969697,344.59712203003534 352.020202020202,348.53474141546667 357.07070707070704,326.9231831813346 362.1212121212121,344.79834593118875 367.1717171717172,319.3404213343875 372.22222222222223,187.51020257559176 377.27272727272725,358.4723096257801 382.32323232323233,355.42079853209 387.37373737373736,340.723805292768 392.4242424242424,355.96436728456297 397.47474747474746,349.2645152844873 402.52525252525254,347.6743319329398 407.57575757575756,348.30837495638065 412.62626262626264,345.96750268762077 417.67676767676767,341.95584625659575 422.72727272727275,345.52506041816 427.77777777777777,335.29721247649377 432.8282828282828,342.3154905227761 437.8787878787879,328.63307180870294 442.9292929292929,341.59525636323656 447.979797979798,338.8897335667611 453.030303030303,340.23739135948927 458.0808080808081,325.3688224123283 463.1313131313131,325.5820613411663 468.1818181818182,323.2663316303391 473.2323232323232,324.07912600315285 478.2828282828283,334.0648099493329 483.3333333333333,337.83299519435974 488.3838383838384,331.2539887852325 493.4343434343434,333.4637804394608 498.4848484848485,333.90702927327993 503.5353535353535,328.1417072390171 508.5858585858586,330.63997080793274 513.6363636363636,325.71686883928527 518.6868686868687,303.1124576924546 523.7373737373737,330.42767750627354 528.7878787878788,320.3608364980941 533.8383838383838,308.8749428451808 538.8888888888889,316.5346342443864 543.939393939394,311.6309454454701 548.989898989899,307.3898075481816 554.040404040404,324.0925316590417 559.090909090909,299.28797981772016 564.1414141414141,323.07489775174355 569.1919191919192,322.7215947501746 574.2424242424242,312.1792423338375 579.2929292929293,306.63906300584097 584.3434343434344,317.4941677053114 589.3939393939394,298.3367066883283 594.4444444444445,306.79859587343134 599.4949494949494,294.9636267286899 604.5454545454545,320.25854188739027 609.5959595959596,310.2292756532893 614.6464646464647,314.77512800269074 619.6969696969697,291.6214465277497 624.7474747474747,314.9153867633703 629.7979797979798,302.6678460429953 634.8484848484848,293.0985996188566 639.8989898989898,312.7460067647572 644.9494949494949,305.2723814192789 650,304.16157542229666 "/><text class="poloto_text" alignment-baseline="middle" text-anchor="start" font-size="large" x="675" y="350">sweep</text><line class="poloto5stroke" stroke="black" x1="680" x2="730" y1="331.25" y2="331.25"/><polyline class="poloto5stroke" fill="none" stroke="black" points="150,399.79705171987337 155.05050505050505,399.2513692125299 160.1010101010101,398.0004157051245 165.15151515151516,396.8454989815039 170.2020202020202,395.31416701555986 175.25252525252526,394.0712235266109 180.3030303030303,392.45447917636244 185.35353535353534,390.7155542320895 190.40404040404042,388.8573690130211 195.45454545454544,387.10923811003613 200.50505050505052,385.0637352718567 205.55555555555554,383.1456696023137 210.6060606060606,381.00260028932485 215.65656565656565,378.62501543597307 220.7070707070707,376.66411841773953 225.75757575757575,374.26025069132766 230.8080808080808,371.7953065741856 235.85858585858585,369.43699582774457 240.9090909090909,366.99471895033156 245.95959595959596,364.807789223781 251.010101010101,360.5233471642124 256.06060606060606,359.2437745283638 261.1111111111111,356.8652440478332 266.16161616161617,353.9523229609775 271.2121212121212,350.93346381752286 276.26262626262627,348.90398101625624 281.3131313131313,345.7997651136254 286.3636363636364,342.77937627914616 291.4141414141414,339.95172851377447 296.4646464646464,337.0140264323192 301.5151515151515,333.60050700450154 306.5656565656566,331.11934816249806 311.6161616161616,327.68928025904995 316.66666666666663,324.39694017294966 321.7171717171717,322.18333819744174 326.7676767676768,318.60185869511605 331.8181818181818,315.02068513099533 336.86868686868684,311.84182030636094 341.9191919191919,308.64384825020034 346.969696969697,304.7727843306239 352.020202020202,299.5740598518962 357.07070707070704,297.1554236539553 362.1212121212121,294.0747928056684 367.1717171717172,291.03760518248197 372.22222222222223,287.9389517926681 377.27272727272725,282.81799124312147 382.32323232323233,281.19070593108495 387.37373737373736,277.4793417544833 392.4242424242424,273.62732944130494 397.47474747474746,270.3343496662307 402.52525252525254,264.993224859389 407.57575757575756,260.7835707846443 412.62626262626264,258.7387354480029 417.67676767676767,252.9542227445216 422.72727272727275,249.96537335771444 427.77777777777777,247.39232180397482 432.8282828282828,243.73941963707944 437.8787878787879,240.2884923105677 442.9292929292929,235.95891045948952 447.979797979798,232.37553970280607 453.030303030303,226.99417011573362 "/><text class="poloto_text" alignment-baseline="start" text-anchor="middle" font-size="x-large" x="400" y="37.5">Bench of space partitioning algs with abspiral(x,0.2)</text><text class="poloto_text" alignment-baseline="start" text-anchor="middle" font-size="x-large" x="400" y="481.25">Number of Elements</text><text class="poloto_text" alignment-baseline="start" text-anchor="middle" font-size="x-large" transform="rotate(-90,37.5,250)" x="37.5" y="250">Time in Seconds</text><path stroke="black" fill="none" class="poloto_axis_lines" d=" M 150 100 L 150 400 L 650 400"/></svg>