<svg class="poloto" width="800" height="500" viewBox="0 0 800 500" xmlns="http://www.w3.org/2000/svg"><style>.poloto {
            font-family: "Arial";
            stroke-width:2;
            }
            .poloto_text{fill: var(--poloto_fg_color,black);  }
            .poloto_axis_lines{stroke: var(--poloto_fg_color,black);stoke-width:3;fill:none}
            .poloto_background{fill: var(--poloto_bg_color,aliceblue); }
            .poloto0stroke{stroke:  var(--poloto_color0,blue); }
            .poloto1stroke{stroke:  var(--poloto_color1,red); }
            .poloto2stroke{stroke:  var(--poloto_color2,green); }
            .poloto3stroke{stroke:  var(--poloto_color3,gold); }
            .poloto4stroke{stroke:  var(--poloto_color4,aqua); }
            .poloto5stroke{stroke:  var(--poloto_color5,brown); }
            .poloto6stroke{stroke:  var(--poloto_color6,lime); }
            .poloto7stroke{stroke:  var(--poloto_color7,chocolate); }
            .poloto0fill{fill:var(--poloto_color0,blue);}
            .poloto1fill{fill:var(--poloto_color1,red);}
            .poloto2fill{fill:var(--poloto_color2,green);}
            .poloto3fill{fill:var(--poloto_color3,gold);}
            .poloto4fill{fill:var(--poloto_color4,aqua);}
            .poloto5fill{fill:var(--poloto_color5,brown);}
            .poloto6fill{fill:var(--poloto_color6,lime);}
            .poloto7fill{fill:var(--poloto_color7,chocolate);}</style><rect class="poloto_background" fill="white" x="0" y="0" width="800" height="500"/><line class="poloto_axis_lines" stroke="black" x1="189.87240829346092" x2="189.87240829346092" y1="400" y2="405"/><text class="poloto_text" alignment-baseline="start" text-anchor="middle" x="189.87240829346092" y="430">0.5</text><line class="poloto_axis_lines" stroke="black" x1="256.3264221158958" x2="256.3264221158958" y1="400" y2="405"/><text class="poloto_text" alignment-baseline="start" text-anchor="middle" x="256.3264221158958" y="430">1.0</text><line class="poloto_axis_lines" stroke="black" x1="322.7804359383307" x2="322.7804359383307" y1="400" y2="405"/><text class="poloto_text" alignment-baseline="start" text-anchor="middle" x="322.7804359383307" y="430">1.5</text><line class="poloto_axis_lines" stroke="black" x1="389.23444976076553" x2="389.23444976076553" y1="400" y2="405"/><text class="poloto_text" alignment-baseline="start" text-anchor="middle" x="389.23444976076553" y="430">2.0</text><line class="poloto_axis_lines" stroke="black" x1="455.6884635832004" x2="455.6884635832004" y1="400" y2="405"/><text class="poloto_text" alignment-baseline="start" text-anchor="middle" x="455.6884635832004" y="430">2.5</text><line class="poloto_axis_lines" stroke="black" x1="522.1424774056352" x2="522.1424774056352" y1="400" y2="405"/><text class="poloto_text" alignment-baseline="start" text-anchor="middle" x="522.1424774056352" y="430">3.0</text><line class="poloto_axis_lines" stroke="black" x1="588.5964912280701" x2="588.5964912280701" y1="400" y2="405"/><text class="poloto_text" alignment-baseline="start" text-anchor="middle" x="588.5964912280701" y="430">3.5</text><line class="poloto_axis_lines" stroke="black" x1="150" x2="144" y1="400" y2="400"/><text class="poloto_text" alignment-baseline="middle" text-anchor="end" x="135" y="400">0e0</text><line class="poloto_axis_lines" stroke="black" x1="150" x2="144" y1="353.59462672801624" y2="353.59462672801624"/><text class="poloto_text" alignment-baseline="middle" text-anchor="end" x="135" y="353.59462672801624">0.01</text><line class="poloto_axis_lines" stroke="black" x1="150" x2="144" y1="307.1892534560324" y2="307.1892534560324"/><text class="poloto_text" alignment-baseline="middle" text-anchor="end" x="135" y="307.1892534560324">0.02</text><line class="poloto_axis_lines" stroke="black" x1="150" x2="144" y1="260.78388018404866" y2="260.78388018404866"/><text class="poloto_text" alignment-baseline="middle" text-anchor="end" x="135" y="260.78388018404866">0.03</text><line class="poloto_axis_lines" stroke="black" x1="150" x2="144" y1="214.37850691206484" y2="214.37850691206484"/><text class="poloto_text" alignment-baseline="middle" text-anchor="end" x="135" y="214.37850691206484">0.04</text><line class="poloto_axis_lines" stroke="black" x1="150" x2="144" y1="167.97313364008107" y2="167.97313364008107"/><text class="poloto_text" alignment-baseline="middle" text-anchor="end" x="135" y="167.97313364008107">0.05</text><line class="poloto_axis_lines" stroke="black" x1="150" x2="144" y1="121.56776036809731" y2="121.56776036809731"/><text class="poloto_text" alignment-baseline="middle" text-anchor="end" x="135" y="121.56776036809731">0.06</text><text class="poloto_text" alignment-baseline="middle" text-anchor="start" font-size="large" x="675" y="100">brocc</text><line class="poloto0stroke" stroke="black" x1="680" x2="730" y1="81.25" y2="81.25"/><polyline class="poloto0stroke" fill="none" stroke="black" points="150,344.1366501501693 155.05050505050505,346.6658311637017 160.1010101010101,348.5757927979046 165.15151515151516,349.79034207040297 170.2020202020202,349.3688513460482 175.25252525252526,352.0987634422058 180.3030303030303,353.9717353533737 185.35353535353536,354.17826246712065 190.40404040404042,354.69863376084334 195.45454545454547,355.45757507855734 200.50505050505052,356.55931752916877 205.55555555555554,356.80288541186144 210.6060606060606,357.50977382237625 215.65656565656565,357.9745793221431 220.70707070707073,358.0639885548262 225.75757575757575,358.617859887514 230.80808080808083,359.18768538753267 235.85858585858585,360.00613695593063 240.9090909090909,360.35689196980695 245.95959595959596,360.5783152083742 251.010101010101,360.37577895672865 256.06060606060606,360.9225224240818 261.1111111111111,361.39493840506526 266.16161616161617,361.86638451374733 271.2121212121212,361.80953329095183 276.26262626262627,361.92380188209677 281.3131313131313,362.19482318361713 286.3636363636364,362.501734400826 291.41414141414145,362.841393889953 296.4646464646464,363.2660587418396 301.5151515151515,362.9153686954859 306.5656565656566,363.6234914889297 311.6161616161616,363.85148108781493 316.66666666666663,363.66019349865053 321.7171717171717,363.3363953661079 326.7676767676768,364.19405019384607 331.8181818181818,364.704156619001 336.86868686868684,364.74531818509325 341.9191919191919,364.9604999009555 346.969696969697,365.4184606081647 352.020202020202,367.57244489771836 357.07070707070704,365.7811232408226 362.1212121212121,365.7506673943442 367.17171717171715,366.546310721779 372.2222222222222,366.4272252528884 377.27272727272725,366.38983180310584 382.32323232323233,366.2475158043553 387.3737373737374,366.9727575399992 392.42424242424244,367.2478578738302 397.47474747474746,366.7164513823434 402.52525252525254,367.32294176778424 407.57575757575756,367.28214680414084 412.62626262626264,367.5732059458401 417.67676767676767,367.61478980082904 422.72727272727275,368.01195482851466 427.77777777777777,367.453999822979 432.82828282828285,368.0114675720953 437.8787878787879,368.31887068626094 442.9292929292929,368.0242336902824 447.979797979798,368.44664324102797 453.030303030303,365.4133281738808 458.0808080808081,368.215892522433 463.1313131313131,368.4115282950731 468.1818181818182,368.36823672234766 473.2323232323232,368.39265058922604 478.28282828282823,368.20559981064133 483.3333333333333,368.6177259306698 488.38383838383834,368.9877484555286 493.4343434343434,368.7121098193677 498.48484848484844,368.9044322483561 503.5353535353535,368.6597506367049 508.58585858585855,368.94390929939857 513.6363636363636,368.8816704127662 518.6868686868687,369.00992558341534 523.7373737373737,369.43935626713693 528.7878787878788,368.8043265771338 533.8383838383838,369.3199552417081 538.8888888888889,369.0600526676237 543.939393939394,369.10175717658325 548.989898989899,369.39847777382164 554.040404040404,369.5700616414948 559.090909090909,369.48694497742736 564.1414141414141,367.2927689940828 569.1919191919192,369.00732224197475 574.2424242424242,369.38737760853496 579.2929292929293,369.30170400840024 584.3434343434343,369.5659686875722 589.3939393939394,369.98855457873617 594.4444444444443,369.9667486938357 599.4949494949494,370.09558857218803 604.5454545454545,370.2783514942824 609.5959595959596,369.80789382005105 614.6464646464647,369.6754482441955 619.6969696969697,369.89771142001894 624.7474747474748,369.6621995101263 629.7979797979798,367.9825663056215 634.8484848484848,370.11770537308945 639.8989898989898,370.0611000987723 644.9494949494949,370.0897461356931 650,369.93161054519413 "/><text class="poloto_text" alignment-baseline="middle" text-anchor="start" font-size="large" x="675" y="150">brocc_par</text><line class="poloto1stroke" stroke="black" x1="680" x2="730" y1="131.25" y2="131.25"/><polyline class="poloto1stroke" fill="none" stroke="black" points="150,374.38730134903824 155.05050505050505,377.14502882593507 160.1010101010101,382.5283955252474 165.15151515151516,382.5273653259608 170.2020202020202,380.88949695740075 175.25252525252526,381.3773473655345 180.3030303030303,383.5803032455021 185.35353535353536,383.6266993376994 190.40404040404042,384.13340888953087 195.45454545454547,383.66688175041566 200.50505050505052,385.19993894290354 205.55555555555554,384.73456729758277 210.6060606060606,384.31544324726485 215.65656565656565,384.6162939227245 220.70707070707073,384.963833044233 225.75757575757575,384.89506492158125 230.80808080808083,385.7839320033821 235.85858585858585,386.38486766564233 240.9090909090909,385.37175483744306 245.95959595959596,385.49444136329953 251.010101010101,385.72953562483275 256.06060606060606,385.5794235233725 261.1111111111111,384.64760362807107 266.16161616161617,387.23166363603485 271.2121212121212,386.4973821336776 276.26262626262627,384.4395404964688 281.3131313131313,386.5881510437976 286.3636363636364,386.6641491236051 291.41414141414145,387.1820655730818 296.4646464646464,386.9745036195108 301.5151515151515,385.7285425498447 306.5656565656566,387.32263672979724 311.6161616161616,387.7142934396755 316.66666666666663,386.9034616335688 321.7171717171717,385.3917416317113 326.7676767676768,387.3643087549955 331.8181818181818,387.48804868282525 336.86868686868684,387.98311512650275 341.9191919191919,386.5200697206703 346.969696969697,387.606215325325 352.020202020202,388.589795773974 357.07070707070704,387.9134977855201 362.1212121212121,387.814018586837 367.17171717171715,387.0025046217431 372.2222222222222,388.0759537162707 377.27272727272725,388.5153522741711 382.32323232323233,387.85401537806007 387.3737373737374,387.7201080329464 392.42424242424244,387.9925493388889 397.47474747474746,386.3437525049234 402.52525252525254,387.3194904454894 407.57575757575756,387.36989596193746 412.62626262626264,388.52280033658127 417.67676767676767,388.4568397390125 422.72727272727275,387.16004622346424 427.77777777777777,387.61215521310385 432.82828282828285,388.5079274144476 437.8787878787879,387.79058851387197 442.9292929292929,388.22107724010414 447.979797979798,388.56734021384773 453.030303030303,385.863224864692 458.0808080808081,388.040161251866 463.1313131313131,387.86255396674215 468.1818181818182,386.51571689665735 473.2323232323232,388.52341288750847 478.28282828282823,388.5963946180533 483.3333333333333,387.7036480470469 488.38383838383834,389.03947312205423 493.4343434343434,388.8240872225496 498.48484848484844,389.1173970248525 503.5353535353535,388.5122941600725 508.58585858585855,388.06466792949095 513.6363636363636,388.4596751073194 518.6868686868687,389.2776579814473 523.7373737373737,387.6752061937685 528.7878787878788,388.58672837880073 533.8383838383838,388.53344572920986 538.8888888888889,387.90722377905377 543.939393939394,388.67350178628203 548.989898989899,388.76797384518915 554.040404040404,388.8243981385505 559.090909090909,388.8988509194281 564.1414141414141,385.9060152593861 569.1919191919192,388.10950944168366 574.2424242424242,388.5298214695573 579.2929292929293,387.2066975452145 584.3434343434343,387.5964562753259 589.3939393939394,388.49994569024483 594.4444444444443,387.0209507576188 599.4949494949494,389.2098086851864 604.5454545454545,388.80278251568046 609.5959595959596,388.2516583810904 614.6464646464647,387.39811970996146 619.6969696969697,388.4628306727019 624.7474747474748,389.29332907600127 629.7979797979798,386.50165142801865 634.8484848484848,387.9989764830871 639.8989898989898,387.5102536539359 644.9494949494949,388.8636570843386 650,389.2006993104131 "/><text class="poloto_text" alignment-baseline="middle" text-anchor="start" font-size="large" x="675" y="200">naive</text><line class="poloto2stroke" stroke="black" x1="680" x2="730" y1="181.25" y2="181.25"/><polyline class="poloto2stroke" fill="none" stroke="black" points="150,400 155.05050505050505,400 160.1010101010101,400 165.15151515151516,400 170.2020202020202,400 175.25252525252526,400 180.3030303030303,400 185.35353535353536,400 190.40404040404042,400 195.45454545454547,400 200.50505050505052,400 205.55555555555554,400 210.6060606060606,400 215.65656565656565,400 220.70707070707073,400 225.75757575757575,400 230.80808080808083,400 235.85858585858585,400 240.9090909090909,400 245.95959595959596,400 251.010101010101,400 256.06060606060606,400 261.1111111111111,400 266.16161616161617,400 271.2121212121212,400 276.26262626262627,400 281.3131313131313,400 286.3636363636364,400 291.41414141414145,400 296.4646464646464,400 301.5151515151515,400 306.5656565656566,400 311.6161616161616,400 316.66666666666663,400 321.7171717171717,400 326.7676767676768,400 331.8181818181818,400 336.86868686868684,400 341.9191919191919,400 346.969696969697,400 352.020202020202,400 357.07070707070704,400 362.1212121212121,400 367.17171717171715,400 372.2222222222222,400 377.27272727272725,400 382.32323232323233,400 387.3737373737374,400 392.42424242424244,400 397.47474747474746,400 402.52525252525254,400 407.57575757575756,400 412.62626262626264,400 417.67676767676767,400 422.72727272727275,400 427.77777777777777,400 432.82828282828285,400 437.8787878787879,400 442.9292929292929,400 447.979797979798,400 453.030303030303,400 458.0808080808081,400 463.1313131313131,400 468.1818181818182,400 473.2323232323232,400 478.28282828282823,400 483.3333333333333,400 488.38383838383834,400 493.4343434343434,400 498.48484848484844,400 503.5353535353535,400 508.58585858585855,400 513.6363636363636,400 518.6868686868687,400 523.7373737373737,400 528.7878787878788,400 533.8383838383838,400 538.8888888888889,400 543.939393939394,400 548.989898989899,400 554.040404040404,400 559.090909090909,400 564.1414141414141,400 569.1919191919192,400 574.2424242424242,400 579.2929292929293,400 584.3434343434343,400 589.3939393939394,400 594.4444444444443,400 599.4949494949494,400 604.5454545454545,400 609.5959595959596,400 614.6464646464647,400 619.6969696969697,400 624.7474747474748,400 629.7979797979798,400 634.8484848484848,400 639.8989898989898,400 644.9494949494949,400 650,400 "/><text class="poloto_text" alignment-baseline="middle" text-anchor="start" font-size="large" x="675" y="250">nosort</text><line class="poloto3stroke" stroke="black" x1="680" x2="730" y1="231.25" y2="231.25"/><polyline class="poloto3stroke" fill="none" stroke="black" points="150,266.0132599332326 155.05050505050505,277.9049616717913 160.1010101010101,284.7563345113389 165.15151515151516,291.37907735785006 170.2020202020202,292.1916261627678 175.25252525252526,299.69394573535084 180.3030303030303,302.6350069204333 185.35353535353536,304.91141786575315 190.40404040404042,307.56407429648755 195.45454545454547,310.92428737511193 200.50505050505052,313.00450104277513 205.55555555555554,314.5685523840714 210.6060606060606,316.08432821555283 215.65656565656565,318.1566344076105 220.70707070707073,317.7233520779073 225.75757575757575,320.76018467234854 230.80808080808083,321.7086594561173 235.85858585858585,322.8438694619325 240.9090909090909,323.4297697832526 245.95959595959596,324.24008648971596 251.010101010101,325.3631011634353 256.06060606060606,326.54965871477594 261.1111111111111,326.86724780837477 266.16161616161617,328.37521825607183 271.2121212121212,328.2759757247924 276.26262626262627,328.21299435218765 281.3131313131313,329.6522894879795 286.3636363636364,329.5686113188955 291.41414141414145,330.6616249187945 296.4646464646464,330.93116588890746 301.5151515151515,331.2654284331229 306.5656565656566,332.4732535670341 311.6161616161616,332.8752215508533 316.66666666666663,333.3670721021631 321.7171717171717,332.9725985861273 326.7676767676768,334.12883022603467 331.8181818181818,334.60125084755543 336.86868686868684,335.11340839020903 341.9191919191919,335.8852596827673 346.969696969697,336.6266365666978 352.020202020202,338.39624050890234 357.07070707070704,337.2033532646474 362.1212121212121,336.75872946171654 367.17171717171715,337.9292214728304 372.2222222222222,338.5689334649967 377.27272727272725,338.6149954385065 382.32323232323233,338.45573219743704 387.3737373737374,340.1287433551759 392.42424242424244,340.09089049219796 397.47474747474746,339.6576638489427 402.52525252525254,340.05648554845413 407.57575757575756,340.32381762279937 412.62626262626264,340.82336682553495 417.67676767676767,340.7691096631053 422.72727272727275,341.4573709567888 427.77777777777777,341.0577882091557 432.82828282828285,341.71812738974137 437.8787878787879,342.1612105342796 442.9292929292929,341.6400781924352 447.979797979798,342.3866663997842 453.030303030303,339.50953789745853 458.0808080808081,342.4981785117568 463.1313131313131,343.41970105472916 468.1818181818182,342.9169266785512 473.2323232323232,342.74276731266144 478.28282828282823,343.5181222109017 483.3333333333333,343.9025396825495 488.38383838383834,344.32156164104623 493.4343434343434,343.86625532118813 498.48484848484844,344.1435506291749 503.5353535353535,344.27453443577235 508.58585858585855,344.4701470057258 513.6363636363636,344.6550538560653 518.6868686868687,345.0183986477103 523.7373737373737,345.33583924411465 528.7878787878788,344.5067562047 533.8383838383838,345.6737817344305 538.8888888888889,345.22956629878445 543.939393939394,345.70763445423245 548.989898989899,345.9584926210661 554.040404040404,346.036026718729 559.090909090909,346.1889231425855 564.1414141414141,343.8309222699788 569.1919191919192,345.625283478824 574.2424242424242,346.27691701138383 579.2929292929293,346.2546563538252 584.3434343434343,346.8660425061463 589.3939393939394,347.005184377365 594.4444444444443,347.0598684692287 599.4949494949494,347.36405105048925 604.5454545454545,347.4278584387382 609.5959595959596,347.28094830803377 614.6464646464647,347.37677540384044 619.6969696969697,347.3972076896921 624.7474747474748,347.1851815392124 629.7979797979798,345.8855433742826 634.8484848484848,347.49820898461854 639.8989898989898,347.3737312113538 644.9494949494949,347.5908758745054 650,347.757331948432 "/><text class="poloto_text" alignment-baseline="middle" text-anchor="start" font-size="large" x="675" y="300">nosort_par</text><line class="poloto4stroke" stroke="black" x1="680" x2="730" y1="281.25" y2="281.25"/><polyline class="poloto4stroke" fill="none" stroke="black" points="150,348.7115331552625 155.05050505050505,355.2641389206104 160.1010101010101,358.204364808974 165.15151515151516,361.037106571765 170.2020202020202,359.11636032881364 175.25252525252526,365.2149173599191 180.3030303030303,363.66676914004313 185.35353535353536,365.485279705139 190.40404040404042,367.31229637515565 195.45454545454547,369.53396754216385 200.50505050505052,370.68900192344086 205.55555555555554,369.79600476341875 210.6060606060606,370.3958823831684 215.65656565656565,372.2313448311205 220.70707070707073,371.02665670044246 225.75757575757575,372.4877391589855 230.80808080808083,373.2635766731078 235.85858585858585,373.4175868259229 240.9090909090909,372.72658761521643 245.95959595959596,372.8934381348158 251.010101010101,373.66797629848656 256.06060606060606,374.7390355162905 261.1111111111111,374.39135253812486 266.16161616161617,374.772498430957 271.2121212121212,373.85370916447033 276.26262626262627,374.76173702489524 281.3131313131313,375.6584326931671 286.3636363636364,375.5097591582783 291.41414141414145,375.6747256197229 296.4646464646464,375.86380431311954 301.5151515151515,375.08856542831245 306.5656565656566,376.21633201225484 311.6161616161616,376.36072233119063 316.66666666666663,376.7135702274015 321.7171717171717,377.5382215536686 326.7676767676768,377.5479388388318 331.8181818181818,377.1714798887001 336.86868686868684,377.1280537403922 341.9191919191919,377.681159384421 346.969696969697,377.9093346047993 352.020202020202,379.12077935782577 357.07070707070704,378.8068006022675 362.1212121212121,378.5370925728107 367.17171717171715,379.4984773314237 372.2222222222222,378.4482123613829 377.27272727272725,378.57843511985874 382.32323232323233,377.92992002838275 387.3737373737374,379.27867364038366 392.42424242424244,379.76184638689153 397.47474747474746,379.2393914919089 402.52525252525254,378.8154320016961 407.57575757575756,378.94903307134615 412.62626262626264,379.897141252666 417.67676767676767,379.03711046981635 422.72727272727275,379.9757705171381 427.77777777777777,379.4656269676845 432.82828282828285,378.82860648716803 437.8787878787879,379.71444329809424 442.9292929292929,380.4582935884202 447.979797979798,380.6483467946556 453.030303030303,377.18508594414345 458.0808080808081,379.87473673845034 463.1313131313131,379.3080760848888 468.1818181818182,379.3943761575627 473.2323232323232,380.3108962012964 478.28282828282823,380.41109932380255 483.3333333333333,381.0340868194416 488.38383838383834,380.9435035308147 493.4343434343434,381.3385431924045 498.48484848484844,380.87745012249934 503.5353535353535,380.48076307015845 508.58585858585855,381.51780250881677 513.6363636363636,381.7204826171195 518.6868686868687,381.04688542139 523.7373737373737,381.80212823085424 528.7878787878788,380.5755785288278 533.8383838383838,381.7187609777711 538.8888888888889,380.43147128266895 543.939393939394,380.98482287517606 548.989898989899,381.57072319649615 554.040404040404,381.1691403772751 559.090909090909,382.13292893422357 564.1414141414141,379.59728365219445 569.1919191919192,380.9745997714443 574.2424242424242,380.705792006229 579.2929292929293,381.7073730991702 584.3434343434343,381.39494892361654 589.3939393939394,382.18310706434255 594.4444444444443,381.6598818401636 599.4949494949494,381.7645352379666 604.5454545454545,381.90600665892356 609.5959595959596,376.59974248730265 614.6464646464647,381.77383951530766 619.6969696969697,381.53086098085555 624.7474747474748,380.8973673087077 629.7979797979798,378.86768445200033 634.8484848484848,381.97994898069516 639.8989898989898,381.48166200411254 644.9494949494949,381.81086172210405 650,381.3416755551003 "/><text class="poloto_text" alignment-baseline="middle" text-anchor="start" font-size="large" x="675" y="350">sweep</text><line class="poloto5stroke" stroke="black" x1="680" x2="730" y1="331.25" y2="331.25"/><polyline class="poloto5stroke" fill="none" stroke="black" points="150,100 155.05050505050505,125.92535485338175 160.1010101010101,145.81101325111624 165.15151515151516,161.6996376328149 170.2020202020202,172.580505047002 175.25252525252526,186.17607287598815 180.3030303030303,195.6708210716158 185.35353535353536,204.04468460015724 190.40404040404042,211.66244681982892 195.45454545454547,217.81959991576494 200.50505050505052,223.86846143263347 205.55555555555554,228.7494714041273 210.6060606060606,233.9217957468733 215.65656565656565,237.7947278731678 220.70707070707073,241.46265962249598 225.75757575757575,245.93552505498803 230.80808080808083,249.67779357176065 235.85858585858585,253.0591860627463 240.9090909090909,255.5576838434712 245.95959595959596,258.39636085350367 251.010101010101,260.53337933858916 256.06060606060606,263.62600047277795 261.1111111111111,265.38702406146444 266.16161616161617,268.2148746979126 271.2121212121212,269.64845269171735 276.26262626262627,271.3821713587707 281.3131313131313,273.51945899502107 286.3636363636364,275.27541975748363 291.41414141414145,276.83516003960295 296.4646464646464,278.4986534552838 301.5151515151515,280.4597955756684 306.5656565656566,281.21336779169485 311.6161616161616,283.22110554738185 316.66666666666663,284.4707233604618 321.7171717171717,285.692446903668 326.7676767676768,286.6245359501344 331.8181818181818,288.49141483579166 336.86868686868684,289.4723919430001 341.9191919191919,291.25004257692996 346.969696969697,292.55053460072804 352.020202020202,295.50935512216165 357.07070707070704,294.8786968183208 362.1212121212121,295.8087950742738 367.17171717171715,296.91000850362997 372.2222222222222,297.62127758138166 377.27272727272725,298.54899988222314 382.32323232323233,299.73116284471496 387.3737373737374,300.5266205506567 392.42424242424244,301.3005972093108 397.47474747474746,301.99333198097764 402.52525252525254,302.94376507149843 407.57575757575756,303.5839689606214 412.62626262626264,304.1324711916216 417.67676767676767,305.1829078615435 422.72727272727275,305.97761380043823 427.77777777777777,306.5949862459114 432.82828282828285,307.06865981251053 437.8787878787879,307.56083056089585 442.9292929292929,308.2830327445904 447.979797979798,309.01611234777994 453.030303030303,307.24523689834774 458.0808080808081,309.7075245663085 463.1313131313131,310.57309151018956 468.1818181818182,311.0157059604577 473.2323232323232,311.33309551095147 478.28282828282823,311.7890283033487 483.3333333333333,312.4672196310321 488.38383838383834,312.97067152565984 493.4343434343434,313.5026116789393 498.48484848484844,313.9827355924232 503.5353535353535,314.31323002032894 508.58585858585855,314.2666575877132 513.6363636363636,315.09681259125034 518.6868686868687,316.08037447775007 523.7373737373737,316.35144682518103 528.7878787878788,316.34946067520497 533.8383838383838,317.0848976713567 538.8888888888889,317.0028900957105 543.939393939394,317.5991898611808 548.989898989899,317.8939475111298 554.040404040404,318.27064776920247 559.090909090909,318.845833089834 564.1414141414141,317.32547704801067 569.1919191919192,319.44698685734863 574.2424242424242,319.75139218440086 579.2929292929293,320.06219681242726 584.3434343434343,320.4367438611801 589.3939393939394,320.89838915502713 594.4444444444443,321.2109339845513 599.4949494949494,321.26154832517904 604.5454545454545,321.7388739946547 609.5959595959596,322.20612505759294 614.6464646464647,322.5543695407752 619.6969696969697,323.0273702294619 624.7474747474748,323.23661669808257 629.7979797979798,321.30133165168513 634.8484848484848,323.65474303287516 639.8989898989898,323.9799843725265 644.9494949494949,324.2153988311353 650,324.40248673401857 "/><text class="poloto_text" alignment-baseline="start" text-anchor="middle" font-size="x-large" x="400" y="37.5">Bench of space partitioning algs with abspiral(30_000,grow)</text><text class="poloto_text" alignment-baseline="start" text-anchor="middle" font-size="x-large" x="400" y="481.25">Grow</text><text class="poloto_text" alignment-baseline="start" text-anchor="middle" font-size="x-large" transform="rotate(-90,37.5,250)" x="37.5" y="250">Time in Seconds</text><path stroke="black" fill="none" class="poloto_axis_lines" d=" M 150 100 L 150 400 L 650 400"/></svg>