<svg class="poloto" width="800" height="500" viewBox="0 0 800 500" xmlns="http://www.w3.org/2000/svg"><circle  r="1e5" class="poloto_background" /><text  class="poloto_text poloto_legend_text" x="675" y="100" >brocc</text><line  class="poloto_scatter poloto_legend_icon poloto0stroke poloto0legend" stroke="black" x1="685" x2="685" y1="81.25" y2="81.25" /><path  class="poloto_scatter poloto0stroke" d=" M 150.00 399.97 h 0 M 155.05 399.65 h 0 M 160.10 399.17 h 0 M 165.15 398.93 h 0 M 170.20 398.37 h 0 M 175.25 395.53 h 0 M 180.30 394.94 h 0 M 185.35 392.99 h 0 M 190.40 392.36 h 0 M 195.45 391.44 h 0 M 200.51 388.06 h 0 M 205.56 387.40 h 0 M 210.61 384.08 h 0 M 215.66 387.87 h 0 M 220.71 383.37 h 0 M 225.76 387.55 h 0 M 230.81 390.59 h 0 M 235.86 383.63 h 0 M 240.91 388.03 h 0 M 245.96 385.99 h 0 M 251.01 385.23 h 0 M 256.06 384.54 h 0 M 261.11 386.30 h 0 M 266.16 385.81 h 0 M 271.21 385.84 h 0 M 276.26 381.48 h 0 M 281.31 384.14 h 0 M 286.36 380.22 h 0 M 291.41 382.31 h 0 M 296.46 379.61 h 0 M 301.52 381.68 h 0 M 306.57 377.09 h 0 M 311.62 386.93 h 0 M 316.67 386.40 h 0 M 321.72 385.68 h 0 M 326.77 385.32 h 0 M 331.82 384.79 h 0 M 336.87 384.10 h 0 M 341.92 384.09 h 0 M 346.97 383.31 h 0 M 352.02 383.57 h 0 M 357.07 383.15 h 0 M 362.12 382.61 h 0 M 367.17 382.51 h 0 M 372.22 381.68 h 0 M 377.27 381.60 h 0 M 382.32 380.06 h 0 M 387.37 380.38 h 0 M 392.42 380.06 h 0 M 397.47 379.30 h 0 M 402.53 378.98 h 0 M 407.58 378.54 h 0 M 412.63 377.81 h 0 M 417.68 377.46 h 0 M 422.73 377.12 h 0 M 427.78 376.47 h 0 M 432.83 376.53 h 0 M 437.88 375.35 h 0 M 442.93 374.80 h 0 M 447.98 374.69 h 0 M 453.03 374.20 h 0 M 458.08 373.37 h 0 M 463.13 373.14 h 0 M 468.18 372.87 h 0 M 473.23 371.78 h 0 M 478.28 371.87 h 0 M 483.33 371.30 h 0 M 488.38 370.98 h 0 M 493.43 369.96 h 0 M 498.48 369.95 h 0 M 503.54 369.42 h 0 M 508.59 368.72 h 0 M 513.64 368.41 h 0 M 518.69 367.80 h 0 M 523.74 367.14 h 0 M 528.79 365.84 h 0 M 533.84 358.02 h 0 M 538.89 365.16 h 0 M 543.94 364.93 h 0 M 548.99 349.80 h 0 M 554.04 356.93 h 0 M 559.09 355.43 h 0 M 564.14 363.92 h 0 M 569.19 364.07 h 0 M 574.24 362.69 h 0 M 579.29 355.56 h 0 M 584.34 354.03 h 0 M 589.39 362.78 h 0 M 594.44 361.51 h 0 M 599.49 362.35 h 0 M 604.55 361.31 h 0 M 609.60 360.21 h 0 M 614.65 359.65 h 0 M 619.70 359.72 h 0 M 624.75 359.06 h 0 M 629.80 358.92 h 0 M 634.85 350.53 h 0 M 639.90 357.86 h 0 M 644.95 357.35 h 0 M 650.00 357.83 h 0" /><text  class="poloto_text poloto_legend_text" x="675" y="150" >brocc_par</text><line  class="poloto_scatter poloto_legend_icon poloto1stroke poloto1legend" stroke="black" x1="685" x2="685" y1="131.25" y2="131.25" /><path  class="poloto_scatter poloto1stroke" d=" M 150.00 399.53 h 0 M 155.05 399.22 h 0 M 160.10 398.87 h 0 M 165.15 398.90 h 0 M 170.20 398.46 h 0 M 175.25 396.09 h 0 M 180.30 394.17 h 0 M 185.35 392.72 h 0 M 190.40 391.78 h 0 M 195.45 391.78 h 0 M 200.51 389.34 h 0 M 205.56 388.87 h 0 M 210.61 385.57 h 0 M 215.66 383.61 h 0 M 220.71 385.88 h 0 M 225.76 385.53 h 0 M 230.81 385.18 h 0 M 235.86 388.00 h 0 M 240.91 388.45 h 0 M 245.96 386.57 h 0 M 251.01 384.68 h 0 M 256.06 386.15 h 0 M 261.11 384.13 h 0 M 266.16 382.59 h 0 M 271.21 382.25 h 0 M 276.26 385.44 h 0 M 281.31 380.60 h 0 M 286.36 383.17 h 0 M 291.41 378.74 h 0 M 296.46 378.48 h 0 M 301.52 377.60 h 0 M 306.57 379.01 h 0 M 311.62 386.77 h 0 M 316.67 386.06 h 0 M 321.72 386.07 h 0 M 326.77 385.56 h 0 M 331.82 385.15 h 0 M 336.87 384.28 h 0 M 341.92 384.10 h 0 M 346.97 383.37 h 0 M 352.02 383.63 h 0 M 357.07 382.92 h 0 M 362.12 382.96 h 0 M 367.17 381.96 h 0 M 372.22 381.75 h 0 M 377.27 381.29 h 0 M 382.32 380.69 h 0 M 387.37 380.54 h 0 M 392.42 379.64 h 0 M 397.47 379.42 h 0 M 402.53 378.72 h 0 M 407.58 382.64 h 0 M 412.63 383.13 h 0 M 417.68 382.49 h 0 M 422.73 383.14 h 0 M 427.78 382.79 h 0 M 432.83 382.18 h 0 M 437.88 381.48 h 0 M 442.93 380.74 h 0 M 447.98 380.45 h 0 M 453.03 380.06 h 0 M 458.08 380.26 h 0 M 463.13 379.18 h 0 M 468.18 380.19 h 0 M 473.23 379.03 h 0 M 478.28 377.29 h 0 M 483.33 379.24 h 0 M 488.38 378.71 h 0 M 493.43 377.08 h 0 M 498.48 377.11 h 0 M 503.54 378.07 h 0 M 508.59 376.80 h 0 M 513.64 376.88 h 0 M 518.69 376.18 h 0 M 523.74 376.54 h 0 M 528.79 374.42 h 0 M 533.84 350.48 h 0 M 538.89 370.07 h 0 M 543.94 341.29 h 0 M 548.99 157.29 h 0 M 554.04 372.06 h 0 M 559.09 369.40 h 0 M 564.14 373.61 h 0 M 569.19 372.82 h 0 M 574.24 289.75 h 0 M 579.29 319.23 h 0 M 584.34 275.03 h 0 M 589.39 367.68 h 0 M 594.44 100.00 h 0 M 599.49 372.20 h 0 M 604.55 371.31 h 0 M 609.60 371.10 h 0 M 614.65 370.98 h 0 M 619.70 370.95 h 0 M 624.75 370.67 h 0 M 629.80 370.63 h 0 M 634.85 369.77 h 0 M 639.90 367.72 h 0 M 644.95 369.32 h 0 M 650.00 369.59 h 0" /><text  class="poloto_text poloto_legend_text" x="675" y="200" >naive</text><line  class="poloto_scatter poloto_legend_icon poloto2stroke poloto2legend" stroke="black" x1="685" x2="685" y1="181.25" y2="181.25" /><path  class="poloto_scatter poloto2stroke" d=" M 150.00 399.99 h 0 M 155.05 399.50 h 0 M 160.10 398.70 h 0 M 165.15 397.85 h 0 M 170.20 397.07 h 0 M 175.25 390.88 h 0 M 180.30 387.09 h 0 M 185.35 381.99 h 0 M 190.40 376.58 h 0 M 195.45 371.18 h 0 M 200.51 364.87 h 0 M 205.56 359.33 h 0 M 210.61 345.56 h 0 M 215.66 349.64 h 0 M 220.71 328.86 h 0 M 225.76 345.17 h 0 M 230.81 342.73 h 0 M 235.86 338.41 h 0 M 240.91 319.43 h 0 M 245.96 354.21 h 0 M 251.01 325.45 h 0 M 256.06 314.66 h 0 M 261.11 314.65 h 0 M 266.16 307.89 h 0 M 271.21 304.96 h 0 M 276.26 294.28 h 0 M 281.31 281.72 h 0 M 286.36 275.36 h 0 M 291.41 270.03 h 0 M 296.46 259.82 h 0 M 301.52 248.49 h 0" /><text  class="poloto_text poloto_legend_text" x="675" y="250" >nosort</text><line  class="poloto_scatter poloto_legend_icon poloto3stroke poloto3legend" stroke="black" x1="685" x2="685" y1="231.25" y2="231.25" /><path  class="poloto_scatter poloto3stroke" d=" M 150.00 399.99 h 0 M 155.05 399.38 h 0 M 160.10 399.00 h 0 M 165.15 397.84 h 0 M 170.20 397.05 h 0 M 175.25 391.92 h 0 M 180.30 389.51 h 0 M 185.35 389.76 h 0 M 190.40 387.99 h 0 M 195.45 384.18 h 0 M 200.51 381.34 h 0 M 205.56 381.88 h 0 M 210.61 372.39 h 0 M 215.66 372.98 h 0 M 220.71 388.32 h 0 M 225.76 385.69 h 0 M 230.81 373.99 h 0 M 235.86 383.88 h 0 M 240.91 374.31 h 0 M 245.96 369.91 h 0 M 251.01 369.90 h 0 M 256.06 376.53 h 0 M 261.11 373.85 h 0 M 266.16 373.80 h 0 M 271.21 375.47 h 0 M 276.26 369.84 h 0 M 281.31 369.84 h 0 M 286.36 370.79 h 0 M 291.41 367.69 h 0 M 296.46 368.56 h 0 M 301.52 363.44 h 0 M 306.57 364.20 h 0 M 311.62 376.87 h 0 M 316.67 375.72 h 0 M 321.72 374.76 h 0 M 326.77 373.90 h 0 M 331.82 372.87 h 0 M 336.87 371.77 h 0 M 341.92 371.06 h 0 M 346.97 369.44 h 0 M 352.02 369.67 h 0 M 357.07 368.22 h 0 M 362.12 367.19 h 0 M 367.17 366.71 h 0 M 372.22 364.87 h 0 M 377.27 363.51 h 0 M 382.32 362.75 h 0 M 387.37 361.44 h 0 M 392.42 360.57 h 0 M 397.47 359.35 h 0 M 402.53 357.85 h 0 M 407.58 355.72 h 0 M 412.63 355.79 h 0 M 417.68 355.46 h 0 M 422.73 354.11 h 0 M 427.78 351.39 h 0 M 432.83 350.09 h 0 M 437.88 349.46 h 0 M 442.93 348.40 h 0 M 447.98 344.32 h 0 M 453.03 345.47 h 0 M 458.08 344.08 h 0 M 463.13 340.51 h 0 M 468.18 341.20 h 0 M 473.23 341.81 h 0 M 478.28 338.60 h 0 M 483.33 337.63 h 0 M 488.38 335.46 h 0 M 493.43 333.11 h 0 M 498.48 333.81 h 0 M 503.54 332.56 h 0 M 508.59 331.42 h 0 M 513.64 328.04 h 0 M 518.69 328.55 h 0 M 523.74 323.76 h 0 M 528.79 322.21 h 0 M 533.84 306.68 h 0 M 538.89 302.34 h 0 M 543.94 305.59 h 0 M 548.99 298.80 h 0 M 554.04 314.42 h 0 M 559.09 301.24 h 0 M 564.14 339.66 h 0 M 569.19 324.78 h 0 M 574.24 326.29 h 0 M 579.29 338.90 h 0 M 584.34 337.36 h 0 M 589.39 322.07 h 0 M 594.44 335.15 h 0 M 599.49 334.30 h 0 M 604.55 332.15 h 0 M 609.60 331.75 h 0 M 614.65 330.34 h 0 M 619.70 331.15 h 0 M 624.75 328.93 h 0 M 629.80 328.38 h 0 M 634.85 327.79 h 0 M 639.90 325.35 h 0 M 644.95 324.82 h 0 M 650.00 323.58 h 0" /><text  class="poloto_text poloto_legend_text" x="675" y="300" >nosort_par</text><line  class="poloto_scatter poloto_legend_icon poloto4stroke poloto4legend" stroke="black" x1="685" x2="685" y1="281.25" y2="281.25" /><path  class="poloto_scatter poloto4stroke" d=" M 150.00 399.97 h 0 M 155.05 399.46 h 0 M 160.10 398.97 h 0 M 165.15 398.10 h 0 M 170.20 397.15 h 0 M 175.25 391.16 h 0 M 180.30 392.69 h 0 M 185.35 390.31 h 0 M 190.40 388.14 h 0 M 195.45 386.49 h 0 M 200.51 383.82 h 0 M 205.56 378.24 h 0 M 210.61 377.55 h 0 M 215.66 379.06 h 0 M 220.71 355.51 h 0 M 225.76 375.33 h 0 M 230.81 373.50 h 0 M 235.86 373.57 h 0 M 240.91 374.20 h 0 M 245.96 371.68 h 0 M 251.01 369.43 h 0 M 256.06 378.12 h 0 M 261.11 377.44 h 0 M 266.16 377.60 h 0 M 271.21 374.86 h 0 M 276.26 373.90 h 0 M 281.31 372.32 h 0 M 286.36 368.88 h 0 M 291.41 368.85 h 0 M 296.46 366.33 h 0 M 301.52 365.61 h 0 M 306.57 362.02 h 0 M 311.62 376.43 h 0 M 316.67 375.58 h 0 M 321.72 374.25 h 0 M 326.77 373.55 h 0 M 331.82 372.62 h 0 M 336.87 371.29 h 0 M 341.92 370.35 h 0 M 346.97 368.32 h 0 M 352.02 368.73 h 0 M 357.07 366.95 h 0 M 362.12 366.68 h 0 M 367.17 365.42 h 0 M 372.22 363.67 h 0 M 377.27 363.19 h 0 M 382.32 361.79 h 0 M 387.37 361.04 h 0 M 392.42 359.96 h 0 M 397.47 358.76 h 0 M 402.53 357.20 h 0 M 407.58 369.82 h 0 M 412.63 368.91 h 0 M 417.68 368.30 h 0 M 422.73 366.74 h 0 M 427.78 366.74 h 0 M 432.83 365.60 h 0 M 437.88 364.91 h 0 M 442.93 364.27 h 0 M 447.98 362.71 h 0 M 453.03 362.04 h 0 M 458.08 360.43 h 0 M 463.13 359.98 h 0 M 468.18 359.76 h 0 M 473.23 360.21 h 0 M 478.28 358.18 h 0 M 483.33 356.80 h 0 M 488.38 355.66 h 0 M 493.43 355.64 h 0 M 498.48 354.17 h 0 M 503.54 351.49 h 0 M 508.59 351.65 h 0 M 513.64 349.95 h 0 M 518.69 351.41 h 0 M 523.74 348.88 h 0 M 528.79 346.82 h 0 M 533.84 334.07 h 0 M 538.89 338.55 h 0 M 543.94 325.56 h 0 M 548.99 281.61 h 0 M 554.04 339.29 h 0 M 559.09 331.53 h 0 M 564.14 359.05 h 0 M 569.19 336.94 h 0 M 574.24 351.88 h 0 M 579.29 334.39 h 0 M 584.34 332.27 h 0 M 589.39 351.81 h 0 M 594.44 350.40 h 0 M 599.49 348.71 h 0 M 604.55 349.38 h 0 M 609.60 348.46 h 0 M 614.65 347.98 h 0 M 619.70 346.91 h 0 M 624.75 347.15 h 0 M 629.80 346.74 h 0 M 634.85 340.11 h 0 M 639.90 342.51 h 0 M 644.95 344.48 h 0 M 650.00 343.02 h 0" /><text  class="poloto_text poloto_legend_text" x="675" y="350" >sweep</text><line  class="poloto_scatter poloto_legend_icon poloto5stroke poloto5legend" stroke="black" x1="685" x2="685" y1="331.25" y2="331.25" /><path  class="poloto_scatter poloto5stroke" d=" M 150.00 399.99 h 0 M 155.05 399.66 h 0 M 160.10 399.26 h 0 M 165.15 398.74 h 0 M 170.20 398.18 h 0 M 175.25 393.78 h 0 M 180.30 393.36 h 0 M 185.35 391.67 h 0 M 190.40 388.06 h 0 M 195.45 388.18 h 0 M 200.51 386.34 h 0 M 205.56 385.37 h 0 M 210.61 383.29 h 0 M 215.66 378.21 h 0 M 220.71 383.99 h 0 M 225.76 380.55 h 0 M 230.81 375.71 h 0 M 235.86 386.50 h 0 M 240.91 376.24 h 0 M 245.96 378.79 h 0 M 251.01 374.75 h 0 M 256.06 376.03 h 0 M 261.11 373.82 h 0 M 266.16 372.52 h 0 M 271.21 367.80 h 0 M 276.26 369.29 h 0 M 281.31 367.26 h 0 M 286.36 365.98 h 0 M 291.41 362.38 h 0 M 296.46 361.49 h 0 M 301.52 357.37 h 0 M 306.57 362.53 h 0 M 311.62 372.03 h 0 M 316.67 370.83 h 0 M 321.72 370.03 h 0 M 326.77 368.58 h 0 M 331.82 367.35 h 0 M 336.87 366.22 h 0 M 341.92 364.86 h 0 M 346.97 363.79 h 0 M 352.02 363.24 h 0 M 357.07 361.99 h 0 M 362.12 361.03 h 0 M 367.17 359.41 h 0 M 372.22 358.60 h 0 M 377.27 356.74 h 0 M 382.32 355.67 h 0 M 387.37 354.13 h 0 M 392.42 353.01 h 0 M 397.47 350.88 h 0 M 402.53 350.23 h 0 M 407.58 348.72 h 0 M 412.63 346.92 h 0 M 417.68 345.70 h 0 M 422.73 344.39 h 0 M 427.78 343.04 h 0 M 432.83 341.64 h 0 M 437.88 339.93 h 0 M 442.93 338.68 h 0 M 447.98 337.36 h 0 M 453.03 335.99 h 0" /><text  class="poloto_text poloto_legend_text" x="675" y="400" >sweep_par</text><line  class="poloto_scatter poloto_legend_icon poloto6stroke poloto6legend" stroke="black" x1="685" x2="685" y1="381.25" y2="381.25" /><path  class="poloto_scatter poloto6stroke" d=" M 150.00 399.95 h 0 M 155.05 399.63 h 0 M 160.10 399.04 h 0 M 165.15 398.74 h 0 M 170.20 398.18 h 0 M 175.25 395.15 h 0 M 180.30 393.55 h 0 M 185.35 392.34 h 0 M 190.40 389.80 h 0 M 195.45 388.52 h 0 M 200.51 386.36 h 0 M 205.56 384.79 h 0 M 210.61 383.74 h 0 M 215.66 380.83 h 0 M 220.71 378.04 h 0 M 225.76 382.04 h 0 M 230.81 375.29 h 0 M 235.86 369.99 h 0 M 240.91 377.19 h 0 M 245.96 376.27 h 0 M 251.01 378.25 h 0 M 256.06 373.95 h 0 M 261.11 371.95 h 0 M 266.16 369.36 h 0 M 271.21 368.50 h 0 M 276.26 369.65 h 0 M 281.31 367.47 h 0 M 286.36 365.95 h 0 M 291.41 360.48 h 0 M 296.46 359.36 h 0 M 301.52 359.55 h 0 M 306.57 355.36 h 0 M 311.62 372.11 h 0 M 316.67 370.91 h 0 M 321.72 369.96 h 0 M 326.77 368.67 h 0 M 331.82 367.42 h 0 M 336.87 366.03 h 0 M 341.92 364.83 h 0 M 346.97 363.58 h 0 M 352.02 362.86 h 0 M 357.07 362.19 h 0 M 362.12 360.92 h 0 M 367.17 359.84 h 0 M 372.22 358.08 h 0 M 377.27 356.65 h 0 M 382.32 355.43 h 0 M 387.37 354.10 h 0 M 392.42 353.15 h 0 M 397.47 351.23 h 0 M 402.53 350.34 h 0 M 407.58 348.72 h 0 M 412.63 347.42 h 0 M 417.68 345.99 h 0 M 422.73 344.64 h 0 M 427.78 342.57 h 0 M 432.83 341.20 h 0 M 437.88 340.25 h 0 M 442.93 338.84 h 0 M 447.98 337.41 h 0 M 453.03 335.64 h 0 M 458.08 400.00 h 0 M 463.13 400.00 h 0 M 468.18 400.00 h 0 M 473.23 400.00 h 0 M 478.28 400.00 h 0 M 483.33 400.00 h 0 M 488.38 400.00 h 0 M 493.43 400.00 h 0 M 498.48 400.00 h 0 M 503.54 400.00 h 0 M 508.59 400.00 h 0 M 513.64 400.00 h 0 M 518.69 400.00 h 0 M 523.74 400.00 h 0 M 528.79 400.00 h 0 M 533.84 400.00 h 0 M 538.89 400.00 h 0 M 543.94 400.00 h 0 M 548.99 400.00 h 0 M 554.04 400.00 h 0 M 559.09 400.00 h 0 M 564.14 400.00 h 0 M 569.19 400.00 h 0 M 574.24 400.00 h 0 M 579.29 400.00 h 0 M 584.34 400.00 h 0 M 589.39 400.00 h 0 M 594.44 400.00 h 0 M 599.49 400.00 h 0 M 604.55 400.00 h 0 M 609.60 400.00 h 0 M 614.65 400.00 h 0 M 619.70 400.00 h 0 M 624.75 400.00 h 0 M 629.80 400.00 h 0 M 634.85 400.00 h 0 M 639.90 400.00 h 0 M 644.95 400.00 h 0 M 650.00 400.00 h 0" /><text  class="poloto_labels poloto_text poloto_title" x="400" y="37.5" >Bench of space partitioning algs with abspiral(x,1.5)</text><text  class="poloto_labels poloto_text poloto_xname" x="400" y="481.25" >Number of Elements</text><text  class="poloto_labels poloto_text poloto_yname" transform="rotate(-90,37.5,250)" x="37.5" y="250" >Time in Seconds</text><text  class="poloto_tick_labels poloto_text" dominant-baseline="middle" text-anchor="start" x="150" y="70" ></text><line  class="poloto_axis_lines" stroke="black" x1="150" x2="144" y1="400" y2="400" /><text  class="poloto_tick_labels poloto_text" dominant-baseline="middle" text-anchor="end" x="135" y="400" >0e0</text><line  class="poloto_axis_lines" stroke="black" x1="150" x2="144" y1="297.9504921099402" y2="297.9504921099402" /><text  class="poloto_tick_labels poloto_text" dominant-baseline="middle" text-anchor="end" x="135" y="297.9504921099402" >0.005</text><line  class="poloto_axis_lines" stroke="black" x1="150" x2="144" y1="195.90098421988046" y2="195.90098421988046" /><text  class="poloto_tick_labels poloto_text" dominant-baseline="middle" text-anchor="end" x="135" y="195.90098421988046" >0.010</text><text  class="poloto_tick_labels poloto_text" dominant-baseline="middle" text-anchor="start" x="440.00000000000006" y="70" ></text><line  class="poloto_axis_lines" stroke="black" x1="150" x2="150" y1="400" y2="405" /><text  class="poloto_tick_labels poloto_text" dominant-baseline="start" text-anchor="middle" x="150" y="430" >0</text><line  class="poloto_axis_lines" stroke="black" x1="251.010101010101" x2="251.010101010101" y1="400" y2="405" /><text  class="poloto_tick_labels poloto_text" dominant-baseline="start" text-anchor="middle" x="251.010101010101" y="430" >2000</text><line  class="poloto_axis_lines" stroke="black" x1="352.020202020202" x2="352.020202020202" y1="400" y2="405" /><text  class="poloto_tick_labels poloto_text" dominant-baseline="start" text-anchor="middle" x="352.020202020202" y="430" >4000</text><line  class="poloto_axis_lines" stroke="black" x1="453.030303030303" x2="453.030303030303" y1="400" y2="405" /><text  class="poloto_tick_labels poloto_text" dominant-baseline="start" text-anchor="middle" x="453.030303030303" y="430" >6000</text><line  class="poloto_axis_lines" stroke="black" x1="554.040404040404" x2="554.040404040404" y1="400" y2="405" /><text  class="poloto_tick_labels poloto_text" dominant-baseline="start" text-anchor="middle" x="554.040404040404" y="430" >8000</text><path  stroke="black" fill="none" class="poloto_axis_lines" style="stroke-dasharray:12.626262626262626;stroke-dashoffset:-0;" d=" M 150 400 L 650 400" /><path  stroke="black" fill="none" class="poloto_axis_lines" style="stroke-dasharray:10.204950789005975;stroke-dashoffset:-0;" d=" M 150 400 L 150 100" /></svg>