<svg  width="800" class="poloto" height="500" viewBox="0 0 800 500" xmlns="http://www.w3.org/2000/svg" ><rect  class="poloto_background" fill="white" x="0" y="0" width="800" height="500" /><text  class="poloto_text" alignment-baseline="middle" text-anchor="start" font-size="large" x="675" y="100" >brocc</text><line  class="poloto0stroke" stroke="black" x1="680" x2="730" y1="81.25" y2="81.25" /><path  class="poloto0stroke" fill="none" stroke="black" d=" M 150 399.7786078014514 L 155.05050505050505 399.3397429692629 L 160.1010101010101 398.20424922981954 L 165.15151515151516 397.60872823886365 L 170.2020202020202 396.6821936694953 L 175.25252525252526 395.9499936570482 L 180.3030303030303 394.85390629598726 L 185.35353535353534 394.74900525235745 L 190.40404040404042 394.0269623919854 L 195.45454545454544 393.2875975834688 L 200.50505050505052 392.7469505012337 L 205.55555555555554 390.1068495871883 L 210.6060606060606 390.8250993202294 L 215.65656565656565 388.2248262431589 L 220.7070707070707 389.3751974709113 L 225.75757575757575 388.4197508421094 L 230.8080808080808 387.2691688850608 L 235.85858585858585 386.3021742908292 L 240.9090909090909 385.38980073016296 L 245.95959595959596 384.48598277892097 L 251.010101010101 383.8394231524344 L 256.06060606060606 383.6040385286206 L 261.1111111111111 382.89012981908047 L 266.16161616161617 381.357706377385 L 271.2121212121212 380.82312829887934 L 276.26262626262627 379.87391925724387 L 281.3131313131313 378.07926427940345 L 286.3636363636364 378.4325730173499 L 291.4141414141414 377.27781862023727 L 296.4646464646464 376.42630368030285 L 301.5151515151515 375.6644329829561 L 306.5656565656566 374.7562740082131 L 311.6161616161616 373.6897730403334 L 316.66666666666663 372.8347178482235 L 321.7171717171717 366.4602830768781 L 326.7676767676768 370.9003493470272 L 331.8181818181818 370.2876328455044 L 336.86868686868684 369.997037146096 L 341.9191919191919 369.05882817372014 L 346.969696969697 367.49357310768255 L 352.020202020202 367.27909283004806 L 357.07070707070704 365.93965527777846 L 362.1212121212121 364.67696533517125 L 367.1717171717172 363.7549403727408 L 372.22222222222223 364.94910114823585 L 377.27272727272725 363.30558122160335 L 382.32323232323233 362.3288087880298 L 387.37373737373736 361.2571660253238 L 392.4242424242424 360.76498668120604 L 397.47474747474746 360.11408603121856 L 402.52525252525254 359.6663705685912 L 407.57575757575756 358.6118811705928 L 412.62626262626264 357.5817099333716 L 417.67676767676767 357.39723750751074 L 422.72727272727275 356.4858754474661 L 427.77777777777777 355.233174073497 L 432.8282828282828 354.8620797829544 L 437.8787878787879 353.9187711616115 L 442.9292929292929 354.25812962015203 L 447.979797979798 352.75929642826486 L 453.030303030303 351.2250185687632 L 458.0808080808081 349.58470172743233 L 463.1313131313131 349.6050160315824 L 468.1818181818182 349.01733417044375 L 473.2323232323232 347.3458715391401 L 478.2828282828283 347.04747885577365 L 483.3333333333333 346.6337329556877 L 488.3838383838384 345.47286740898636 L 493.4343434343434 344.27251119218414 L 498.4848484848485 341.95739699868096 L 503.5353535353535 341.8833467240094 L 508.5858585858586 339.97574084342574 L 513.6363636363636 340.47500069189454 L 518.6868686868687 340.4941770578453 L 523.7373737373737 338.6234909499494 L 528.7878787878788 339.06109140636096 L 533.8383838383838 336.5265658696932 L 538.8888888888889 333.50517136717093 L 543.939393939394 335.1793313334655 L 548.989898989899 334.69397961854344 L 554.040404040404 332.86640872464244 L 559.090909090909 333.2878251711087 L 564.1414141414141 328.91359073308087 L 569.1919191919192 330.08541420318267 L 574.2424242424242 328.5481439876754 L 579.2929292929293 326.9063098954122 L 584.3434343434344 326.94891935909635 L 589.3939393939394 323.19583059443784 L 594.4444444444445 322.98855725873216 L 599.4949494949494 323.31156312389044 L 604.5454545454545 323.5303001333074 L 609.5959595959596 324.59254436940455 L 614.6464646464647 321.75351499978154 L 619.6969696969697 239.42174757243362 L 624.7474747474747 236.404989114427 L 629.7979797979798 227.3823192782044 L 634.8484848484848 243.27935806798885 L 639.8989898989898 238.36350719296357 L 644.9494949494949 224.91210832272543 L 650 167.0415447187937" /><text  class="poloto_text" alignment-baseline="middle" text-anchor="start" font-size="large" x="675" y="150" >brocc_par</text><line  class="poloto1stroke" stroke="black" x1="680" x2="730" y1="131.25" y2="131.25" /><path  class="poloto1stroke" fill="none" stroke="black" d=" M 150 399.22898365119977 L 155.05050505050505 398.88418837681826 L 160.1010101010101 396.64771835664305 L 165.15151515151516 397.2565574391164 L 170.2020202020202 396.816807543884 L 175.25252525252526 395.8732460473857 L 180.3030303030303 394.64410420872764 L 185.35353535353534 394.1637257051951 L 190.40404040404042 393.6677532337464 L 195.45454545454544 393.23074281936414 L 200.50505050505052 392.393599617428 L 205.55555555555554 391.0349014074891 L 210.6060606060606 390.8541799630999 L 215.65656565656565 388.84609835410583 L 220.7070707070707 388.71982935984516 L 225.75757575757575 387.8735405064555 L 230.8080808080808 386.7915298623783 L 235.85858585858585 386.2426221917336 L 240.9090909090909 386.5617084919832 L 245.95959595959596 385.13679913719 L 251.010101010101 383.8156950336865 L 256.06060606060606 383.9017568782393 L 261.1111111111111 386.61856325608795 L 266.16161616161617 386.44277287722895 L 271.2121212121212 383.4092403672478 L 276.26262626262627 381.3005987381249 L 281.3131313131313 384.2828818832793 L 286.3636363636364 381.62170803961766 L 291.4141414141414 381.0832525420626 L 296.4646464646464 382.2824708206656 L 301.5151515151515 381.42176808341844 L 306.5656565656566 381.1821688736814 L 311.6161616161616 380.70807010317446 L 316.66666666666663 377.85045440962995 L 321.7171717171717 358.2562122645293 L 326.7676767676768 374.7714043716776 L 331.8181818181818 378.3841052792325 L 336.86868686868684 379.3449465780161 L 341.9191919191919 377.55429545680283 L 346.969696969697 371.0083691842402 L 352.020202020202 373.85629133016124 L 357.07070707070704 373.2880387101288 L 362.1212121212121 374.7751132072901 L 367.1717171717172 372.57455145918095 L 372.22222222222223 372.28623163617107 L 377.27272727272725 370.53932791684116 L 382.32323232323233 372.56700735037833 L 387.37373737373736 371.6474689936426 L 392.4242424242424 369.00155195102315 L 397.47474747474746 364.1893377438507 L 402.52525252525254 364.62129065512505 L 407.57575757575756 369.21067970453504 L 412.62626262626264 368.0384347758409 L 417.67676767676767 367.68032140994194 L 422.72727272727275 366.71585556726427 L 427.77777777777777 358.9422204152575 L 432.8282828282828 360.81817475555755 L 437.8787878787879 361.14307718438124 L 442.9292929292929 360.22058861749923 L 447.979797979798 361.6152793912227 L 453.030303030303 363.72021218473316 L 458.0808080808081 362.1014318774702 L 463.1313131313131 364.681264212813 L 468.1818181818182 358.531087558444 L 473.2323232323232 357.7884775187665 L 478.2828282828283 355.0844834821246 L 483.3333333333333 354.6948450135197 L 488.3838383838384 356.87138362186624 L 493.4343434343434 352.46001868185454 L 498.4848484848485 354.6217219477512 L 503.5353535353535 361.9781130933558 L 508.5858585858586 358.90677574764294 L 513.6363636363636 351.37851378808807 L 518.6868686868687 351.0914583408552 L 523.7373737373737 354.30048620868075 L 528.7878787878788 350.0648695016688 L 533.8383838383838 338.23267239728597 L 538.8888888888889 336.07075840209313 L 543.939393939394 349.84082211398857 L 548.989898989899 352.19508981071874 L 554.040404040404 351.2902603588551 L 559.090909090909 352.41327892396566 L 564.1414141414141 341.37447761963557 L 569.1919191919192 343.0806684389469 L 574.2424242424242 341.54832928896985 L 579.2929292929293 343.925060728671 L 584.3434343434344 337.8442140127396 L 589.3939393939394 343.5379088657608 L 594.4444444444445 342.46179864197615 L 599.4949494949494 351.58903235495467 L 604.5454545454545 343.3989118220119 L 609.5959595959596 340.84567352384477 L 614.6464646464647 327.39279954853356 L 619.6969696969697 287.1470442336246 L 624.7474747474747 293.61660220925785 L 629.7979797979798 284.2369990911948 L 634.8484848484848 276.78632765848704 L 639.8989898989898 302.4816886778099 L 644.9494949494949 287.7557568785203 L 650 298.6323809165235" /><text  class="poloto_text" alignment-baseline="middle" text-anchor="start" font-size="large" x="675" y="200" >naive</text><line  class="poloto2stroke" stroke="black" x1="680" x2="730" y1="181.25" y2="181.25" /><path  class="poloto2stroke" fill="none" stroke="black" d=" M 150 400 L 155.05050505050505 398.8935447575679 L 160.1010101010101 397.83045760428604 L 165.15151515151516 396.49957566144064 L 170.2020202020202 394.583456317292 L 175.25252525252526 389.56780404760406 L 180.3030303030303 386.6587704057958 L 185.35353535353534 387.79139822681134 L 190.40404040404042 385.28763916738325 L 195.45454545454544 382.1284277051706 L 200.50505050505052 377.4570228136941 L 205.55555555555554 374.71762625529686 L 210.6060606060606 369.45655864729775 L 215.65656565656565 365.22363927527664 L 220.7070707070707 358.9701631199287 L 225.75757575757575 348.904467559419 L 230.8080808080808 350.0825286166872 L 235.85858585858585 344.32704793403104 L 240.9090909090909 338.521919429199 L 245.95959595959596 331.78111070354504 L 251.010101010101 325.2273874470244 L 256.06060606060606 317.8070610329641 L 261.1111111111111 309.29123729987214 L 266.16161616161617 301.8272899215061 L 271.2121212121212 244.7153939296195 L 276.26262626262627 286.1883102278026 L 281.3131313131313 277.03823345911997 L 286.3636363636364 268.2816304322325 L 291.4141414141414 259.33570820567235 L 296.4646464646464 249.7532149212638 L 301.5151515151515 239.96104598717332" /><text  class="poloto_text" alignment-baseline="middle" text-anchor="start" font-size="large" x="675" y="250" >nosort</text><line  class="poloto3stroke" stroke="black" x1="680" x2="730" y1="231.25" y2="231.25" /><path  class="poloto3stroke" fill="none" stroke="black" d=" M 150 399.81995288935855 L 155.05050505050505 399.1882707511811 L 160.1010101010101 397.9745964428614 L 165.15151515151516 397.29790252702355 L 170.2020202020202 395.7029767760862 L 175.25252525252526 393.09886842582546 L 180.3030303030303 393.25303797889813 L 185.35353535353534 391.73064525169997 L 190.40404040404042 390.9412954541336 L 195.45454545454544 388.6317023681899 L 200.50505050505052 387.659945291865 L 205.55555555555554 388.06049953801113 L 210.6060606060606 385.7632973346818 L 215.65656565656565 384.49390620045665 L 220.7070707070707 383.7579130606787 L 225.75757575757575 381.81928782769984 L 230.8080808080808 380.74638068921683 L 235.85858585858585 378.72510742628305 L 240.9090909090909 377.76038870844997 L 245.95959595959596 375.9660287516242 L 251.010101010101 374.01256817619554 L 256.06060606060606 373.90577056890027 L 261.1111111111111 373.2319847173495 L 266.16161616161617 370.24190458823705 L 271.2121212121212 370.3996986852037 L 276.26262626262627 366.81548837849004 L 281.3131313131313 367.0671413039676 L 286.3636363636364 364.77482802030926 L 291.4141414141414 363.5852611434706 L 296.4646464646464 360.4327930187351 L 301.5151515151515 359.689171478436 L 306.5656565656566 358.61660150682684 L 311.6161616161616 355.0427590814844 L 316.66666666666663 354.1504469498129 L 321.7171717171717 352.4827352999809 L 326.7676767676768 350.5497576121393 L 331.8181818181818 349.0599857799871 L 336.86868686868684 346.35514882616053 L 341.9191919191919 344.8785686479482 L 346.969696969697 340.73617858155865 L 352.020202020202 341.3042204722949 L 357.07070707070704 275.2140342339576 L 362.1212121212121 345.6656004232568 L 367.1717171717172 342.2148239068734 L 372.22222222222223 340.2525127010059 L 377.27272727272725 338.5470383613016 L 382.32323232323233 337.44437624620036 L 387.37373737373736 334.99827272220244 L 392.4242424242424 333.90479840441395 L 397.47474747474746 333.9431089904564 L 402.52525252525254 331.6058682208561 L 407.57575757575756 328.7108691501723 L 412.62626262626264 326.9105666271947 L 417.67676767676767 327.43220592691597 L 422.72727272727275 323.9152182656782 L 427.77777777777777 320.5334766667177 L 432.8282828282828 322.42751158062845 L 437.8787878787879 317.6524278754399 L 442.9292929292929 319.72785856748754 L 447.979797979798 313.2290513655469 L 453.030303030303 314.04069632264736 L 458.0808080808081 312.74770350725197 L 463.1313131313131 311.31723089904 L 468.1818181818182 308.8148205071074 L 473.2323232323232 307.5469887696739 L 478.2828282828283 304.73636570917364 L 483.3333333333333 303.1505434638305 L 488.3838383838384 301.62368327555373 L 493.4343434343434 296.63938752513474 L 498.4848484848485 297.9196944369011 L 503.5353535353535 293.22236984199657 L 508.5858585858586 292.81372359087777 L 513.6363636363636 287.6897143171029 L 518.6868686868687 286.07873099379793 L 523.7373737373737 285.41611379494384 L 528.7878787878788 284.7209599927621 L 533.8383838383838 282.79801301941785 L 538.8888888888889 279.4774250622038 L 543.939393939394 278.5045300476796 L 548.989898989899 279.2537569872566 L 554.040404040404 273.602039410031 L 559.090909090909 272.6593208307174 L 564.1414141414141 284.653695201427 L 569.1919191919192 281.2786969399437 L 574.2424242424242 281.36294651254957 L 579.2929292929293 279.0370429790829 L 584.3434343434344 264.4805375339081 L 589.3939393939394 277.19198155360033 L 594.4444444444445 272.73775427474914 L 599.4949494949494 273.8945316731049 L 604.5454545454545 268.94096025406645 L 609.5959595959596 268.1127941201469 L 614.6464646464647 100 L 619.6969696969697 109.4598066881826 L 624.7474747474747 135.01220895298871 L 629.7979797979798 152.02678734618343 L 634.8484848484848 153.83585620788133 L 639.8989898989898 114.86075640297452 L 644.9494949494949 117.43388754669934 L 650 115.35584381137932" /><text  class="poloto_text" alignment-baseline="middle" text-anchor="start" font-size="large" x="675" y="300" >nosort_par</text><line  class="poloto4stroke" stroke="black" x1="680" x2="730" y1="281.25" y2="281.25" /><path  class="poloto4stroke" fill="none" stroke="black" d=" M 150 399.80326312910245 L 155.05050505050505 399.1389179500198 L 160.1010101010101 397.8710019208678 L 165.15151515151516 397.2384768655057 L 170.2020202020202 396.03968004549506 L 175.25252525252526 393.4763267411122 L 180.3030303030303 392.4732131455183 L 185.35353535353534 392.5272862829136 L 190.40404040404042 390.3647822456915 L 195.45454545454544 389.23830772012394 L 200.50505050505052 387.33693942670675 L 205.55555555555554 388.0863770955799 L 210.6060606060606 384.0561793064674 L 215.65656565656565 385.30989218105805 L 220.7070707070707 382.59957626553125 L 225.75757575757575 381.93215443872464 L 230.8080808080808 380.6454835022141 L 235.85858585858585 379.2643636951635 L 240.9090909090909 378.14581259113163 L 245.95959595959596 376.2844828639853 L 251.010101010101 374.45488896884115 L 256.06060606060606 374.4110572752393 L 261.1111111111111 379.32530660761375 L 266.16161616161617 376.3078738158594 L 271.2121212121212 372.4766044823245 L 276.26262626262627 372.28795961639963 L 281.3131313131313 375.99055764169754 L 286.3636363636364 370.3500087171685 L 291.4141414141414 368.3121299856971 L 296.4646464646464 369.43101825660284 L 301.5151515151515 366.23556135545016 L 306.5656565656566 367.14308814230463 L 311.6161616161616 364.7646708682342 L 316.66666666666663 366.0044756092781 L 321.7171717171717 321.0136022950949 L 326.7676767676768 367.7968125648607 L 331.8181818181818 362.9335597221576 L 336.86868686868684 359.8452375951741 L 341.9191919191919 359.72019083083114 L 346.969696969697 358.90829299857535 L 352.020202020202 357.9800304489784 L 357.07070707070704 356.0309951887692 L 362.1212121212121 362.7801909404104 L 367.1717171717172 357.1703242014027 L 372.22222222222223 351.14473070692515 L 377.27272727272725 352.27668419419297 L 382.32323232323233 355.7475642854303 L 387.37373737373736 351.7887615818577 L 392.4242424242424 347.8945263346294 L 397.47474747474746 346.3117807370103 L 402.52525252525254 343.1488182933259 L 407.57575757575756 349.4178462707307 L 412.62626262626264 351.6967150252938 L 417.67676767676767 347.24847245845365 L 422.72727272727275 343.5329778002306 L 427.77777777777777 337.3909352966935 L 432.8282828282828 339.67844395239933 L 437.8787878787879 339.11103424955155 L 442.9292929292929 339.56620952926306 L 447.979797979798 334.34555980026795 L 453.030303030303 341.7133724737245 L 458.0808080808081 343.95359347537146 L 463.1313131313131 339.9769630733435 L 468.1818181818182 337.14016743425987 L 473.2323232323232 335.6227900643104 L 478.2828282828283 332.4570881397759 L 483.3333333333333 331.60595251257456 L 488.3838383838384 331.2808815003139 L 493.4343434343434 329.5695910320355 L 498.4848484848485 335.9950222930522 L 503.5353535353535 332.6378095841651 L 508.5858585858586 329.8677308402465 L 513.6363636363636 322.7488316114174 L 518.6868686868687 320.1287078346483 L 523.7373737373737 317.63569596932456 L 528.7878787878788 319.7697936974239 L 533.8383838383838 294.2442804908082 L 538.8888888888889 309.5755111203957 L 543.939393939394 320.19630979285733 L 548.989898989899 316.9705921647757 L 554.040404040404 300.2573988109529 L 559.090909090909 318.29966183567416 L 564.1414141414141 314.64152769186654 L 569.1919191919192 315.6638176534113 L 574.2424242424242 316.51238238319945 L 579.2929292929293 310.8858680297949 L 584.3434343434344 307.0099240854735 L 589.3939393939394 313.91514380799356 L 594.4444444444445 309.5514879806331 L 599.4949494949494 326.0581244783572 L 604.5454545454545 314.9479280884872 L 609.5959595959596 304.898458683782 L 614.6464646464647 214.56892442502865 L 619.6969696969697 227.38902046982238 L 624.7474747474747 213.62797597180273 L 629.7979797979798 220.40545159498896 L 634.8484848484848 238.81960968157819 L 639.8989898989898 206.89964242048165 L 644.9494949494949 216.4606413166816 L 650 203.19236620480893" /><text  class="poloto_text" alignment-baseline="middle" text-anchor="start" font-size="large" x="675" y="350" >sweep</text><line  class="poloto5stroke" stroke="black" x1="680" x2="730" y1="331.25" y2="331.25" /><path  class="poloto5stroke" fill="none" stroke="black" d=" M 150 399.2896315426354 L 155.05050505050505 399.22818287987434 L 160.1010101010101 398.52409415553535 L 165.15151515151516 397.4591104385881 L 170.2020202020202 396.8588691113981 L 175.25252525252526 395.35135387250904 L 180.3030303030303 389.6417278846979 L 185.35353535353534 393.6386304450167 L 190.40404040404042 392.08947509720593 L 195.45454545454544 390.6946578859047 L 200.50505050505052 389.40082215332467 L 205.55555555555554 388.0726375454701 L 210.6060606060606 386.79688238650084 L 215.65656565656565 385.4606479195329 L 220.7070707070707 383.63505788101577 L 225.75757575757575 381.63814492471835 L 230.8080808080808 380.8435690406071 L 235.85858585858585 378.7060574979099 L 240.9090909090909 377.5472149524517 L 245.95959595959596 374.8677498058832 L 251.010101010101 373.9633839584711 L 256.06060606060606 371.79763469008816 L 261.1111111111111 370.18597703303544 L 266.16161616161617 368.4722842507808 L 271.2121212121212 350.49829751801633 L 276.26262626262627 363.9067076118372 L 281.3131313131313 362.5989637457104 L 286.3636363636364 360.4442988383056 L 291.4141414141414 359.01896802492 L 296.4646464646464 356.8950274488957 L 301.5151515151515 354.7360215179899 L 306.5656565656566 352.7694957261991 L 311.6161616161616 350.6483789227434 L 316.66666666666663 348.9547054236242 L 321.7171717171717 337.76013302357063 L 326.7676767676768 344.0998817527676 L 331.8181818181818 341.91259595031676 L 336.86868686868684 340.1033585051819 L 341.9191919191919 337.5491508522525 L 346.969696969697 335.24891414705843 L 352.020202020202 333.07195408011955 L 357.07070707070704 330.31666853279165 L 362.1212121212121 325.84174763705727 L 367.1717171717172 326.130573210378 L 372.22222222222223 323.72248525140776 L 377.27272727272725 321.96702592265365 L 382.32323232323233 318.91073464868686 L 387.37373737373736 316.17045302724574 L 392.4242424242424 314.47315498423256 L 397.47474747474746 311.9323497145391 L 402.52525252525254 309.5975112589151 L 407.57575757575756 306.70289150096437 L 412.62626262626264 303.8920155653087 L 417.67676767676767 301.5435218512934 L 422.72727272727275 299.51196499870684 L 427.77777777777777 293.38539002550806 L 432.8282828282828 293.5092988516518 L 437.8787878787879 291.35914355118484 L 442.9292929292929 288.6676246888758 L 447.979797979798 286.00303703061627 L 453.030303030303 282.5424405290317" /><text  class="poloto_text" alignment-baseline="start" text-anchor="middle" font-size="x-large" x="400" y="37.5" >Bench of space partitioning algs with abspiral(x,1.5)</text><text  class="poloto_text" alignment-baseline="start" text-anchor="middle" font-size="x-large" x="400" y="481.25" >Number of Elements</text><text  class="poloto_text" alignment-baseline="start" text-anchor="middle" font-size="x-large" transform="rotate(-90,37.5,250)" x="37.5" y="250" >Time in Seconds</text><path  stroke="black" fill="none" class="poloto_axis_lines" d=" M 150 100 L 150 400 L 650 400" /><line  class="poloto_axis_lines" stroke="black" x1="150" x2="150" y1="400" y2="405" /><text  class="poloto_text" alignment-baseline="start" text-anchor="middle" x="150" y="430" > 0</text><line  class="poloto_axis_lines" stroke="black" x1="251.010101010101" x2="251.010101010101" y1="400" y2="405" /><text  class="poloto_text" alignment-baseline="start" text-anchor="middle" x="251.010101010101" y="430" > 2000</text><line  class="poloto_axis_lines" stroke="black" x1="352.020202020202" x2="352.020202020202" y1="400" y2="405" /><text  class="poloto_text" alignment-baseline="start" text-anchor="middle" x="352.020202020202" y="430" > 4000</text><line  class="poloto_axis_lines" stroke="black" x1="453.030303030303" x2="453.030303030303" y1="400" y2="405" /><text  class="poloto_text" alignment-baseline="start" text-anchor="middle" x="453.030303030303" y="430" > 6000</text><line  class="poloto_axis_lines" stroke="black" x1="554.040404040404" x2="554.040404040404" y1="400" y2="405" /><text  class="poloto_text" alignment-baseline="start" text-anchor="middle" x="554.040404040404" y="430" > 8000</text><line  class="poloto_axis_lines" stroke="black" x1="150" x2="144" y1="357.85607947697554" y2="357.85607947697554" /><text  class="poloto_text" alignment-baseline="middle" text-anchor="end" x="135" y="357.85607947697554" > 0.001</text><line  class="poloto_axis_lines" stroke="black" x1="150" x2="144" y1="315.7102202444263" y2="315.7102202444263" /><text  class="poloto_text" alignment-baseline="middle" text-anchor="end" x="135" y="315.7102202444263" > 0.002</text><line  class="poloto_axis_lines" stroke="black" x1="150" x2="144" y1="273.5643610118771" y2="273.5643610118771" /><text  class="poloto_text" alignment-baseline="middle" text-anchor="end" x="135" y="273.5643610118771" > 0.003</text><line  class="poloto_axis_lines" stroke="black" x1="150" x2="144" y1="231.41850177932793" y2="231.41850177932793" /><text  class="poloto_text" alignment-baseline="middle" text-anchor="end" x="135" y="231.41850177932793" > 0.004</text><line  class="poloto_axis_lines" stroke="black" x1="150" x2="144" y1="189.27264254677874" y2="189.27264254677874" /><text  class="poloto_text" alignment-baseline="middle" text-anchor="end" x="135" y="189.27264254677874" > 0.005</text><line  class="poloto_axis_lines" stroke="black" x1="150" x2="144" y1="147.12678331422956" y2="147.12678331422956" /><text  class="poloto_text" alignment-baseline="middle" text-anchor="end" x="135" y="147.12678331422956" > 0.006</text><line  class="poloto_axis_lines" stroke="black" x1="150" x2="144" y1="104.98092408168037" y2="104.98092408168037" /><text  class="poloto_text" alignment-baseline="middle" text-anchor="end" x="135" y="104.98092408168037" > 0.007</text></svg>