<svg  width="800" class="poloto_background poloto" height="500" viewBox="0 0 800 500" xmlns="http://www.w3.org/2000/svg" ><text  class="poloto_text" alignment-baseline="middle" text-anchor="start" font-size="large" x="675" y="100" >brocc</text><line  class="poloto0stroke poloto0legend" stroke="black" x1="680" x2="730" y1="81.25" y2="81.25" /><path  class="poloto0stroke" fill="none" stroke="black" d=" M 150 323.3737771748194 L 155.05050505050505 341.86059483562343 L 160.1010101010101 343.14816894653455 L 165.15151515151516 344.8380505473361 L 170.2020202020202 345.548634930626 L 175.25252525252523 347.5431509929701 L 180.30303030303028 348.40695400493126 L 185.35353535353534 349.6265851748563 L 190.4040404040404 350.96024169363517 L 195.45454545454544 352.21607376379666 L 200.50505050505052 353.4192123825602 L 205.55555555555551 354.935169941887 L 210.60606060606057 356.1124300627335 L 215.65656565656565 356.6121051633577 L 220.70707070707067 357.5426829236409 L 225.75757575757575 358.8730689783186 L 230.80808080808077 359.7780296876696 L 235.85858585858585 360.9105990116448 L 240.9090909090909 361.3725948481729 L 245.95959595959596 362.4770574328831 L 251.010101010101 363.2324110471397 L 256.06060606060606 364.2543514562732 L 261.1111111111111 364.31420974345093 L 266.16161616161617 365.5012622422749 L 271.21212121212125 366.44380239050963 L 276.26262626262627 367.2144245086805 L 281.3131313131313 367.57414941511377 L 286.3636363636363 368.51463839291296 L 291.41414141414134 368.8719021325026 L 296.4646464646464 369.5461572688545 L 301.5151515151515 369.33151642467794 L 306.5656565656565 370.6231085003878 L 311.61616161616155 370.8307853476046 L 316.66666666666663 371.4362716081774 L 321.7171717171717 371.9962042968289 L 326.7676767676768 372.0051743051995 L 331.8181818181818 372.7504657757261 L 336.8686868686868 373.3633913914128 L 341.9191919191918 373.29471045689223 L 346.9696969696969 374.0962130291582 L 352.02020202020196 374.2861388145002 L 357.070707070707 374.58568100181543 L 362.12121212121207 375.1577983083556 L 367.1717171717171 374.958991644297 L 372.2222222222222 375.8708973362815 L 377.27272727272725 375.42962473848763 L 382.3232323232323 376.72626630619095 L 387.3737373737373 376.68940941170166 L 392.4242424242424 377.00451363659147 L 397.47474747474746 377.02945330215385 L 402.5252525252525 377.70206488768736 L 407.57575757575756 377.52544913066424 L 412.6262626262626 378.6512743108261 L 417.67676767676767 378.5207373964846 L 422.7272727272727 378.69433819441446 L 427.77777777777777 378.8816126696512 L 432.8282828282828 379.5898012478437 L 437.8787878787879 379.76120589110093 L 442.9292929292929 379.9960149933666 L 447.979797979798 379.86974441845945 L 453.03030303030295 380.10344355943494 L 458.080808080808 380.232598369943 L 463.13131313131305 380.80690945436504 L 468.18181818181813 380.85102387947427 L 473.23232323232315 381.04460516902236 L 478.28282828282823 381.1186719114305 L 483.33333333333326 381.4170661088032 L 488.38383838383834 381.6727933466464 L 493.43434343434336 381.5007279555548 L 498.48484848484844 381.8262757990933 L 503.5353535353535 382.09554717914625 L 508.58585858585855 379.3986442848822 L 513.6363636363636 382.241722188367 L 518.6868686868686 382.79144418386545 L 523.7373737373737 382.90505478272974 L 528.7878787878788 382.9871931065969 L 533.8383838383837 382.936546072053 L 538.8888888888888 383.4497569961193 L 543.9393939393939 383.56180010146994 L 548.9898989898988 383.76370491229886 L 554.0404040404039 383.92731130503574 L 559.090909090909 383.7019951051103 L 564.1414141414141 383.7983406958125 L 569.1919191919192 384.32322047417006 L 574.2424242424242 384.2203161293348 L 579.2929292929292 384.6042545917498 L 584.3434343434343 384.8528633412332 L 589.3939393939393 384.8275208096351 L 594.4444444444443 384.76235752545597 L 599.4949494949494 385.0284095424093 L 604.5454545454545 385.17452275507003 L 609.5959595959596 384.8445160520447 L 614.6464646464647 384.7485697621921 L 619.6969696969697 385.0517365554334 L 624.7474747474747 384.8742497045926 L 629.7979797979798 385.3958304973598 L 634.8484848484848 385.6295438990799 L 639.8989898989898 385.8658907849746 L 644.9494949494949 385.4081767370209 L 650 385.7287547110568" /><text  class="poloto_text" alignment-baseline="middle" text-anchor="start" font-size="large" x="675" y="150" >brocc_par</text><line  class="poloto1stroke poloto1legend" stroke="black" x1="680" x2="730" y1="131.25" y2="131.25" /><path  class="poloto1stroke" fill="none" stroke="black" d=" M 150 361.83543325702936 L 155.05050505050505 367.84169643346223 L 160.1010101010101 369.1757688906261 L 165.15151515151516 371.8013930180567 L 170.2020202020202 370.78013355947917 L 175.25252525252523 371.92540564173123 L 180.30303030303028 371.1824279770204 L 185.35353535353534 374.04423142659624 L 190.4040404040404 373.76638220864993 L 195.45454545454544 377.70777988109677 L 200.50505050505052 377.14450067103934 L 205.55555555555551 375.95129466090873 L 210.60606060606057 376.57960999683905 L 215.65656565656565 377.452167917606 L 220.70707070707067 378.5091541066611 L 225.75757575757575 379.13757639817607 L 230.80808080808077 378.73693028503476 L 235.85858585858585 379.36960465523947 L 240.9090909090909 380.8884809136333 L 245.95959595959596 380.8350173820255 L 251.010101010101 381.0577191121026 L 256.06060606060606 382.6514452654637 L 261.1111111111111 382.8108744484201 L 266.16161616161617 384.695182287889 L 271.21212121212125 384.2427554110058 L 276.26262626262627 384.17611495136236 L 281.3131313131313 383.7888061996337 L 286.3636363636363 384.6942969333267 L 291.41414141414134 385.01249336300987 L 296.4646464646464 384.5189230494815 L 301.5151515151515 384.76894717786917 L 306.5656565656565 385.50292512432475 L 311.61616161616155 385.3254370850886 L 316.66666666666663 385.53164982919037 L 321.7171717171717 385.88437152161623 L 326.7676767676768 386.0661817548699 L 331.8181818181818 386.4342515737009 L 336.8686868686868 386.1307508413562 L 341.9191919191918 387.14148587039875 L 346.9696969696969 387.04982136912054 L 352.02020202020196 387.3156570981137 L 357.070707070707 387.6342540170418 L 362.12121212121207 387.28901327356834 L 367.1717171717171 387.52837749534706 L 372.2222222222222 387.91262850574856 L 377.27272727272725 388.61759177886455 L 382.3232323232323 388.76729394558976 L 387.3737373737373 388.7652855573881 L 392.4242424242424 388.5331348956 L 397.47474747474746 388.652088520118 L 402.5252525252525 388.77349974629345 L 407.57575757575756 388.6663029173253 L 412.6262626262626 389.4275830593699 L 417.67676767676767 389.66518489079175 L 422.7272727272727 389.6932298334968 L 427.77777777777777 389.6345682604723 L 432.8282828282828 389.7750258994929 L 437.8787878787879 389.8364504917889 L 442.9292929292929 390.0838720342821 L 447.979797979798 390.5545835625682 L 453.03030303030295 390.42223434526363 L 458.080808080808 391.39819811371865 L 463.13131313131305 390.83119566091807 L 468.18181818181813 390.4360446880398 L 473.23232323232315 390.42399198203896 L 478.28282828282823 390.86312427974326 L 483.33333333333326 390.9948151260042 L 488.38383838383834 391.1186815770463 L 493.43434343434336 391.1011337307824 L 498.48484848484844 390.97328615519854 L 503.5353535353535 390.7676367105095 L 508.58585858585855 359.428748399885 L 513.6363636363636 391.4031133170335 L 518.6868686868686 390.84522229165447 L 523.7373737373737 391.6977391126385 L 528.7878787878788 391.6599944867961 L 533.8383838383837 390.9768323270292 L 538.8888888888888 392.0815397211888 L 543.9393939393939 392.973600398629 L 548.9898989898988 392.20244469092995 L 554.0404040404039 392.23751305036393 L 559.090909090909 391.82279752425234 L 564.1414141414141 392.4511901058827 L 569.1919191919192 392.43559717002813 L 574.2424242424242 392.20487971307506 L 579.2929292929292 392.53195107949796 L 584.3434343434343 391.9768765511828 L 589.3939393939393 392.66216950387616 L 594.4444444444443 391.6136280524312 L 599.4949494949494 392.73059374499337 L 604.5454545454545 392.770086500448 L 609.5959595959596 393.0038664523097 L 614.6464646464647 392.97862136913324 L 619.6969696969697 392.5362851574693 L 624.7474747474747 389.2851657563584 L 629.7979797979798 393.52771113828646 L 634.8484848484848 392.23011410069313 L 639.8989898989898 392.9574703080601 L 644.9494949494949 393.24389974069055 L 650 391.52838920500295" /><text  class="poloto_text" alignment-baseline="middle" text-anchor="start" font-size="large" x="675" y="200" >naive</text><line  class="poloto2stroke poloto2legend" stroke="black" x1="680" x2="730" y1="181.25" y2="181.25" /><path  class="poloto2stroke" fill="none" stroke="black" d=" M 150 400 L 155.05050505050505 400 L 160.1010101010101 400 L 165.15151515151516 400 L 170.2020202020202 400 L 175.25252525252523 400 L 180.30303030303028 400 L 185.35353535353534 400 L 190.4040404040404 400 L 195.45454545454544 400 L 200.50505050505052 400 L 205.55555555555551 400 L 210.60606060606057 400 L 215.65656565656565 400 L 220.70707070707067 400 L 225.75757575757575 400 L 230.80808080808077 400 L 235.85858585858585 400 L 240.9090909090909 400 L 245.95959595959596 400 L 251.010101010101 400 L 256.06060606060606 400 L 261.1111111111111 400 L 266.16161616161617 400 L 271.21212121212125 400 L 276.26262626262627 400 L 281.3131313131313 400 L 286.3636363636363 400 L 291.41414141414134 400 L 296.4646464646464 400 L 301.5151515151515 400 L 306.5656565656565 400 L 311.61616161616155 400 L 316.66666666666663 400 L 321.7171717171717 400 L 326.7676767676768 400 L 331.8181818181818 400 L 336.8686868686868 400 L 341.9191919191918 400 L 346.9696969696969 400 L 352.02020202020196 400 L 357.070707070707 400 L 362.12121212121207 400 L 367.1717171717171 400 L 372.2222222222222 400 L 377.27272727272725 400 L 382.3232323232323 400 L 387.3737373737373 400 L 392.4242424242424 400 L 397.47474747474746 400 L 402.5252525252525 400 L 407.57575757575756 400 L 412.6262626262626 400 L 417.67676767676767 400 L 422.7272727272727 400 L 427.77777777777777 400 L 432.8282828282828 400 L 437.8787878787879 400 L 442.9292929292929 400 L 447.979797979798 400 L 453.03030303030295 400 L 458.080808080808 400 L 463.13131313131305 400 L 468.18181818181813 400 L 473.23232323232315 400 L 478.28282828282823 400 L 483.33333333333326 400 L 488.38383838383834 400 L 493.43434343434336 400 L 498.48484848484844 400 L 503.5353535353535 400 L 508.58585858585855 400 L 513.6363636363636 400 L 518.6868686868686 400 L 523.7373737373737 400 L 528.7878787878788 400 L 533.8383838383837 400 L 538.8888888888888 400 L 543.9393939393939 400 L 548.9898989898988 400 L 554.0404040404039 400 L 559.090909090909 400 L 564.1414141414141 400 L 569.1919191919192 400 L 574.2424242424242 400 L 579.2929292929292 400 L 584.3434343434343 400 L 589.3939393939393 400 L 594.4444444444443 400 L 599.4949494949494 400 L 604.5454545454545 400 L 609.5959595959596 400 L 614.6464646464647 400 L 619.6969696969697 400 L 624.7474747474747 400 L 629.7979797979798 400 L 634.8484848484848 400 L 639.8989898989898 400 L 644.9494949494949 400 L 650 400" /><text  class="poloto_text" alignment-baseline="middle" text-anchor="start" font-size="large" x="675" y="250" >nosort</text><line  class="poloto3stroke poloto3legend" stroke="black" x1="680" x2="730" y1="231.25" y2="231.25" /><path  class="poloto3stroke" fill="none" stroke="black" d=" M 150 229.14401750116608 L 155.05050505050505 234.61229765171962 L 160.1010101010101 243.75187697147862 L 165.15151515151516 246.4013949765323 L 170.2020202020202 254.17020775480597 L 175.25252525252523 255.88304083568977 L 180.30303030303028 257.2254035390637 L 185.35353535353534 263.0104017554406 L 190.4040404040404 265.6553349310966 L 195.45454545454544 267.55575978878505 L 200.50505050505052 269.51073437146374 L 205.55555555555551 274.35733756271105 L 210.60606060606057 278.3022802185931 L 215.65656565656565 281.9747345081134 L 220.70707070707067 283.65085686714036 L 225.75757575757575 284.82612286052984 L 230.80808080808077 288.7803504495597 L 235.85858585858585 291.44931060312194 L 240.9090909090909 294.51431183770626 L 245.95959595959596 295.31451787060655 L 251.010101010101 297.95524531499285 L 256.06060606060606 300.99435022572936 L 261.1111111111111 302.7536828412613 L 266.16161616161617 303.8293933880121 L 271.21212121212125 306.700547132482 L 276.26262626262627 308.4202990513008 L 281.3131313131313 310.32846155134496 L 286.3636363636363 311.3373521907491 L 291.41414141414134 313.76347444282044 L 296.4646464646464 314.19950265177755 L 301.5151515151515 315.80199440950287 L 306.5656565656565 316.90139324147503 L 311.61616161616155 318.28680675608797 L 316.66666666666663 320.1163973068172 L 321.7171717171717 323.12056814679835 L 326.7676767676768 323.07051887513336 L 331.8181818181818 324.9722283882337 L 336.8686868686868 324.50840598799795 L 341.9191919191918 327.41610764415685 L 346.9696969696969 328.09342527541736 L 352.02020202020196 324.3350963469376 L 357.070707070707 329.13219336321106 L 362.12121212121207 331.60191427679433 L 367.1717171717171 331.93012056081045 L 372.2222222222222 333.9232782872288 L 377.27272727272725 334.10696262000556 L 382.3232323232323 334.8866985423887 L 387.3737373737373 336.5691265273317 L 392.4242424242424 336.52936757131073 L 397.47474747474746 337.4829657386086 L 402.5252525252525 338.051875566003 L 407.57575757575756 338.59944775424884 L 412.6262626262626 339.9402370221321 L 417.67676767676767 340.5631106955918 L 422.7272727272727 342.48267228417467 L 427.77777777777777 342.9587185193468 L 432.8282828282828 343.49089623376744 L 437.8787878787879 343.71520705119667 L 442.9292929292929 345.2263218993271 L 447.979797979798 346.0825346299604 L 453.03030303030295 346.2864038583617 L 458.080808080808 346.69298006447724 L 463.13131313131305 347.363293293335 L 468.18181818181813 340.3162619596744 L 473.23232323232315 347.80756896626826 L 478.28282828282823 349.28568445133106 L 483.33333333333326 349.6113416272451 L 488.38383838383834 350.1266263012593 L 493.43434343434336 350.58310560640734 L 498.48484848484844 350.7450957814198 L 503.5353535353535 343.7268319348587 L 508.58585858585855 352.47360973941676 L 513.6363636363636 352.40861639577776 L 518.6868686868686 353.4944235497247 L 523.7373737373737 354.3130497111019 L 528.7878787878788 354.0104676083903 L 533.8383838383837 355.1280714692745 L 538.8888888888888 355.47125153514935 L 543.9393939393939 355.60626038132693 L 548.9898989898988 356.27980248044736 L 554.0404040404039 356.3126853807672 L 559.090909090909 357.6347704936764 L 564.1414141414141 357.8870917903444 L 569.1919191919192 358.139023293326 L 574.2424242424242 358.3730694457541 L 579.2929292929292 358.79901055467815 L 584.3434343434343 358.9345850770593 L 589.3939393939393 359.26807615535523 L 594.4444444444443 359.90211955704416 L 599.4949494949494 359.5592639231096 L 604.5454545454545 360.663859608103 L 609.5959595959596 361.2058106861749 L 614.6464646464647 360.9994042336253 L 619.6969696969697 361.25499124081296 L 624.7474747474747 362.177487912474 L 629.7979797979798 361.85034167714184 L 634.8484848484848 362.40604724340676 L 639.8989898989898 362.78911698879494 L 644.9494949494949 363.31450183519144 L 650 363.5571079995821" /><text  class="poloto_text" alignment-baseline="middle" text-anchor="start" font-size="large" x="675" y="300" >nosort_par</text><line  class="poloto4stroke poloto4legend" stroke="black" x1="680" x2="730" y1="281.25" y2="281.25" /><path  class="poloto4stroke" fill="none" stroke="black" d=" M 150 291.0345297152641 L 155.05050505050505 288.8130990612009 L 160.1010101010101 302.4049731716573 L 165.15151515151516 300.7628793261018 L 170.2020202020202 303.46236460353884 L 175.25252525252523 297.092374005014 L 180.30303030303028 313.20099739964826 L 185.35353535353534 308.9270855099125 L 190.4040404040404 316.7339067378041 L 195.45454545454544 318.0466783960763 L 200.50505050505052 315.5963532835816 L 205.55555555555551 317.4896263778395 L 210.60606060606057 320.7239062163362 L 215.65656565656565 322.4038017307125 L 220.70707070707067 327.45871874910324 L 225.75757575757575 329.6022869258967 L 230.80808080808077 333.3570566101966 L 235.85858585858585 334.0918866361437 L 240.9090909090909 336.2173507976328 L 245.95959595959596 334.21788863369375 L 251.010101010101 332.2733933215253 L 256.06060606060606 342.0572362432895 L 261.1111111111111 342.96251781939463 L 266.16161616161617 339.84723557604514 L 271.21212121212125 349.81429579119947 L 276.26262626262627 345.7019676452543 L 281.3131313131313 347.5232643845873 L 286.3636363636363 349.3140348116502 L 291.41414141414134 350.98755696157343 L 296.4646464646464 348.40624690967684 L 301.5151515151515 347.0629406203668 L 306.5656565656565 350.63073887025337 L 311.61616161616155 353.58258109621994 L 316.66666666666663 350.93161681398203 L 321.7171717171717 354.56252598921674 L 326.7676767676768 353.6766140695017 L 331.8181818181818 354.5043112528573 L 336.8686868686868 353.37796080193493 L 341.9191919191918 359.20553447139673 L 346.9696969696969 356.2894427438154 L 352.02020202020196 354.2485566819202 L 357.070707070707 361.47937692715146 L 362.12121212121207 359.9628073442011 L 367.1717171717171 360.35023255867753 L 372.2222222222222 362.2810304256314 L 377.27272727272725 363.5270035676739 L 382.3232323232323 363.3937749377839 L 387.3737373737373 363.73016570082075 L 392.4242424242424 363.27997538405333 L 397.47474747474746 364.9235166951884 L 402.5252525252525 364.5306510066366 L 407.57575757575756 364.35832298016476 L 412.6262626262626 367.2721341770011 L 417.67676767676767 364.41708675519243 L 422.7272727272727 363.75137618166315 L 427.77777777777777 366.0297606845817 L 432.8282828282828 367.44439565333136 L 437.8787878787879 367.80132783060844 L 442.9292929292929 367.190618572316 L 447.979797979798 371.25862075877336 L 453.03030303030295 372.0586996333673 L 458.080808080808 372.9727040316028 L 463.13131313131305 371.97525763976216 L 468.18181818181813 371.14221980754365 L 473.23232323232315 370.38030030878156 L 478.28282828282823 372.6292625187432 L 483.33333333333326 372.6780794243932 L 488.38383838383834 372.0309969485334 L 493.43434343434336 372.07820595522674 L 498.48484848484844 373.73787498013996 L 503.5353535353535 332.99132555348444 L 508.58585858585855 371.24740468312393 L 513.6363636363636 373.86295953645225 L 518.6868686868686 374.54987227205623 L 523.7373737373737 375.2821282335981 L 528.7878787878788 370.65219685424137 L 533.8383838383837 375.0562748789584 L 538.8888888888888 375.2675181007274 L 543.9393939393939 375.1963736225725 L 548.9898989898988 376.0426382954328 L 554.0404040404039 374.8358631867893 L 559.090909090909 376.9176668902065 L 564.1414141414141 375.8724648297951 L 569.1919191919192 375.6510085380821 L 574.2424242424242 377.85064045558704 L 579.2929292929292 378.1422180170279 L 584.3434343434343 376.8224074928868 L 589.3939393939393 376.93445891700514 L 594.4444444444443 377.8980170260298 L 599.4949494949494 377.7119879891572 L 604.5454545454545 377.1675555415202 L 609.5959595959596 377.81984913114593 L 614.6464646464647 379.4586891501355 L 619.6969696969697 377.3015067158045 L 624.7474747474747 379.8503747620694 L 629.7979797979798 380.22986030697456 L 634.8484848484848 378.91678917306524 L 639.8989898989898 380.3987158421297 L 644.9494949494949 379.98773781950587 L 650 380.3913739354374" /><text  class="poloto_text" alignment-baseline="middle" text-anchor="start" font-size="large" x="675" y="350" >sweep</text><line  class="poloto5stroke poloto5legend" stroke="black" x1="680" x2="730" y1="331.25" y2="331.25" /><path  class="poloto5stroke" fill="none" stroke="black" d=" M 150 100 L 155.05050505050505 109.1794535501324 L 160.1010101010101 112.40329333516655 L 165.15151515151516 124.20645888455402 L 170.2020202020202 130.2832901673798 L 175.25252525252523 136.46292715822386 L 180.30303030303028 142.43246535205526 L 185.35353535353534 148.42466149230864 L 190.4040404040404 154.037542028197 L 195.45454545454544 159.00290038193288 L 200.50505050505052 157.89398012613123 L 205.55555555555551 169.55911473987555 L 210.60606060606057 174.52090909584993 L 215.65656565656565 178.23998532474306 L 220.70707070707067 182.92324475863367 L 225.75757575757575 186.40947392604272 L 230.80808080808077 191.47544420991505 L 235.85858585858585 194.83478127163028 L 240.9090909090909 198.80717823771073 L 245.95959595959596 202.28629604713234 L 251.010101010101 200.093270419576 L 256.06060606060606 209.375619995776 L 261.1111111111111 212.71875090961763 L 266.16161616161617 215.93112624436682 L 271.21212121212125 218.90904424188446 L 276.26262626262627 221.6303032995766 L 281.3131313131313 223.70312035708776 L 286.3636363636363 227.39924985948016 L 291.41414141414134 229.76147922203964 L 296.4646464646464 233.15460474135853 L 301.5151515151515 235.15496414381366 L 306.5656565656565 237.99059437341688 L 311.61616161616155 240.6456835760383 L 316.66666666666663 242.51479065012975 L 321.7171717171717 241.8887011787567 L 326.7676767676768 247.01694456923036 L 331.8181818181818 249.31390131523523 L 336.8686868686868 251.17245900348865 L 341.9191919191918 253.65568127704776 L 346.9696969696969 255.66844752732868 L 352.02020202020196 257.43503767348056 L 357.070707070707 259.27895076539716 L 362.12121212121207 261.43004029658607 L 367.1717171717171 262.4954747884375 L 372.2222222222222 264.04362360196967 L 377.27272727272725 265.44794686395846 L 382.3232323232323 267.4985147830603 L 387.3737373737373 268.77079424535856 L 392.4242424242424 270.7078822890885 L 397.47474747474746 272.2689537140438 L 402.5252525252525 273.8347074168184 L 407.57575757575756 275.78959524663395 L 412.6262626262626 277.41748539054055 L 417.67676767676767 278.3678891510419 L 422.7272727272727 279.87265796781315 L 427.77777777777777 281.26982233599904 L 432.8282828282828 282.66933497346685 L 437.8787878787879 283.9441694858442 L 442.9292929292929 285.3903492217096 L 447.979797979798 286.09758708359357 L 453.03030303030295 287.60240818976183 L 458.080808080808 288.79588158885423 L 463.13131313131305 290.0888331888852 L 468.18181818181813 290.9714092827528 L 473.23232323232315 292.0232473429975 L 478.28282828282823 293.08695509635356 L 483.33333333333326 294.34520792791557 L 488.38383838383834 295.13808631486813 L 493.43434343434336 296.10183456715447 L 498.48484848484844 297.56724967073126 L 503.5353535353535 280.8870033420372 L 508.58585858585855 298.9516197741957 L 513.6363636363636 299.7667164012777 L 518.6868686868686 300.62385726870707 L 523.7373737373737 301.8169967286961 L 528.7878787878788 298.7253017569602 L 533.8383838383837 303.32524873234263 L 538.8888888888888 304.24990828360546 L 543.9393939393939 304.64430819060004 L 548.9898989898988 305.75480663547376 L 554.0404040404039 306.1045407019002 L 559.090909090909 306.9101598757819 L 564.1414141414141 308.05942615492506 L 569.1919191919192 308.82062667447883 L 574.2424242424242 309.43372579589175 L 579.2929292929292 310.2197851701217 L 584.3434343434343 311.02419931108244 L 589.3939393939393 311.58710893017496 L 594.4444444444443 312.4189369758909 L 599.4949494949494 313.03861743094933 L 604.5454545454545 313.74457182581693 L 609.5959595959596 313.794479678431 L 614.6464646464647 315.1428841839453 L 619.6969696969697 315.7045281619521 L 624.7474747474747 316.2329267790465 L 629.7979797979798 316.8294335240856 L 634.8484848484848 317.30625102786297 L 639.8989898989898 317.8672093017323 L 644.9494949494949 318.1896138394759 L 650 319.10378817825153" /><text  class="poloto_text" alignment-baseline="start" text-anchor="middle" font-size="x-large" x="400" y="37.5" >Bench of space partitioning algs with abspiral(30_000,grow)</text><text  class="poloto_text" alignment-baseline="start" text-anchor="middle" font-size="x-large" x="400" y="481.25" >Grow</text><text  class="poloto_text" alignment-baseline="start" text-anchor="middle" font-size="x-large" transform="rotate(-90,37.5,250)" x="37.5" y="250" >Time in Seconds</text><line  class="poloto_axis_lines" stroke="black" x1="150" x2="150" y1="400" y2="405" /><text  class="poloto_text" alignment-baseline="start" text-anchor="middle" x="150" y="430" > 0.20</text><line  class="poloto_axis_lines" stroke="black" x1="213.1313131313131" x2="213.1313131313131" y1="400" y2="405" /><text  class="poloto_text" alignment-baseline="start" text-anchor="middle" x="213.1313131313131" y="430" > 0.25</text><line  class="poloto_axis_lines" stroke="black" x1="276.2626262626262" x2="276.2626262626262" y1="400" y2="405" /><text  class="poloto_text" alignment-baseline="start" text-anchor="middle" x="276.2626262626262" y="430" > 0.30</text><line  class="poloto_axis_lines" stroke="black" x1="339.3939393939394" x2="339.3939393939394" y1="400" y2="405" /><text  class="poloto_text" alignment-baseline="start" text-anchor="middle" x="339.3939393939394" y="430" > 0.35</text><line  class="poloto_axis_lines" stroke="black" x1="402.5252525252525" x2="402.5252525252525" y1="400" y2="405" /><text  class="poloto_text" alignment-baseline="start" text-anchor="middle" x="402.5252525252525" y="430" > 0.40</text><line  class="poloto_axis_lines" stroke="black" x1="465.6565656565656" x2="465.6565656565656" y1="400" y2="405" /><text  class="poloto_text" alignment-baseline="start" text-anchor="middle" x="465.6565656565656" y="430" > 0.45</text><line  class="poloto_axis_lines" stroke="black" x1="528.7878787878788" x2="528.7878787878788" y1="400" y2="405" /><text  class="poloto_text" alignment-baseline="start" text-anchor="middle" x="528.7878787878788" y="430" > 0.50</text><line  class="poloto_axis_lines" stroke="black" x1="591.9191919191919" x2="591.9191919191919" y1="400" y2="405" /><text  class="poloto_text" alignment-baseline="start" text-anchor="middle" x="591.9191919191919" y="430" > 0.55</text><line  class="poloto_axis_lines" stroke="black" x1="150" x2="144" y1="400" y2="400" /><text  class="poloto_text" alignment-baseline="middle" text-anchor="end" x="135" y="400" > 0e0</text><line  class="poloto_axis_lines" stroke="black" x1="150" x2="144" y1="340.58023071951686" y2="340.58023071951686" /><text  class="poloto_text" alignment-baseline="middle" text-anchor="end" x="135" y="340.58023071951686" > 0.05</text><line  class="poloto_axis_lines" stroke="black" x1="150" x2="144" y1="281.16046143903367" y2="281.16046143903367" /><text  class="poloto_text" alignment-baseline="middle" text-anchor="end" x="135" y="281.16046143903367" > 0.10</text><line  class="poloto_axis_lines" stroke="black" x1="150" x2="144" y1="221.74069215855047" y2="221.74069215855047" /><text  class="poloto_text" alignment-baseline="middle" text-anchor="end" x="135" y="221.74069215855047" > 0.15</text><line  class="poloto_axis_lines" stroke="black" x1="150" x2="144" y1="162.32092287806734" y2="162.32092287806734" /><text  class="poloto_text" alignment-baseline="middle" text-anchor="end" x="135" y="162.32092287806734" > 0.20</text><line  class="poloto_axis_lines" stroke="black" x1="150" x2="144" y1="102.9011535975842" y2="102.9011535975842" /><text  class="poloto_text" alignment-baseline="middle" text-anchor="end" x="135" y="102.9011535975842" > 0.25</text><path  stroke="black" fill="none" class="poloto_axis_lines" style="stroke-dasharray:6.313131313131312;stroke-dashoffset:-0;" d=" M 150 400 L 650 400" /><path  stroke="black" fill="none" class="poloto_axis_lines" style="stroke-dasharray:5.941976928048317;stroke-dashoffset:-0;" d=" M 150 400 L 150 100" /></svg>