<svg class="poloto" width="800" height="500" viewBox="0 0 800 500" xmlns="http://www.w3.org/2000/svg"><style>.poloto {
                    font-family: "Arial";
                    stroke-width:2;
                    }
                    .poloto_text{fill: var(--poloto_fg_color,black);  }
                    .poloto_axis_lines{stroke: var(--poloto_fg_color,black);stoke-width:3;fill:none}
                    .poloto_background{fill: var(--poloto_bg_color,aliceblue); }
                    .poloto0stroke{stroke:  var(--poloto_color0,blue); }
                    .poloto1stroke{stroke:  var(--poloto_color1,red); }
                    .poloto2stroke{stroke:  var(--poloto_color2,green); }
                    .poloto3stroke{stroke:  var(--poloto_color3,gold); }
                    .poloto4stroke{stroke:  var(--poloto_color4,aqua); }
                    .poloto5stroke{stroke:  var(--poloto_color5,brown); }
                    .poloto6stroke{stroke:  var(--poloto_color6,lime); }
                    .poloto7stroke{stroke:  var(--poloto_color7,chocolate); }
                    .poloto0fill{fill:var(--poloto_color0,blue);}
                    .poloto1fill{fill:var(--poloto_color1,red);}
                    .poloto2fill{fill:var(--poloto_color2,green);}
                    .poloto3fill{fill:var(--poloto_color3,gold);}
                    .poloto4fill{fill:var(--poloto_color4,aqua);}
                    .poloto5fill{fill:var(--poloto_color5,brown);}
                    .poloto6fill{fill:var(--poloto_color6,lime);}
                    .poloto7fill{fill:var(--poloto_color7,chocolate);}</style><rect class="poloto_background" fill="white" x="0" y="0" width="800" height="500"/><line class="poloto_axis_lines" stroke="black" x1="150" x2="150" y1="400" y2="405"/><text class="poloto_text" alignment-baseline="start" text-anchor="middle" x="150" y="430">0e0</text><line class="poloto_axis_lines" stroke="black" x1="251.010101010101" x2="251.010101010101" y1="400" y2="405"/><text class="poloto_text" alignment-baseline="start" text-anchor="middle" x="251.010101010101" y="430">0.001</text><line class="poloto_axis_lines" stroke="black" x1="352.020202020202" x2="352.020202020202" y1="400" y2="405"/><text class="poloto_text" alignment-baseline="start" text-anchor="middle" x="352.020202020202" y="430">0.002</text><line class="poloto_axis_lines" stroke="black" x1="453.030303030303" x2="453.030303030303" y1="400" y2="405"/><text class="poloto_text" alignment-baseline="start" text-anchor="middle" x="453.030303030303" y="430">0.003</text><line class="poloto_axis_lines" stroke="black" x1="554.040404040404" x2="554.040404040404" y1="400" y2="405"/><text class="poloto_text" alignment-baseline="start" text-anchor="middle" x="554.040404040404" y="430">0.004</text><line class="poloto_axis_lines" stroke="black" x1="150" x2="144" y1="375.0387392115444" y2="375.0387392115444"/><text class="poloto_text" alignment-baseline="middle" text-anchor="end" x="135" y="375.0387392115444">0.008</text><line class="poloto_axis_lines" stroke="black" x1="150" x2="144" y1="339.16217825974877" y2="339.16217825974877"/><text class="poloto_text" alignment-baseline="middle" text-anchor="end" x="135" y="339.16217825974877">0.010</text><line class="poloto_axis_lines" stroke="black" x1="150" x2="144" y1="303.2856173079532" y2="303.2856173079532"/><text class="poloto_text" alignment-baseline="middle" text-anchor="end" x="135" y="303.2856173079532">0.012</text><line class="poloto_axis_lines" stroke="black" x1="150" x2="144" y1="267.40905635615763" y2="267.40905635615763"/><text class="poloto_text" alignment-baseline="middle" text-anchor="end" x="135" y="267.40905635615763">0.014</text><line class="poloto_axis_lines" stroke="black" x1="150" x2="144" y1="231.53249540436207" y2="231.53249540436207"/><text class="poloto_text" alignment-baseline="middle" text-anchor="end" x="135" y="231.53249540436207">0.016</text><line class="poloto_axis_lines" stroke="black" x1="150" x2="144" y1="195.65593445256638" y2="195.65593445256638"/><text class="poloto_text" alignment-baseline="middle" text-anchor="end" x="135" y="195.65593445256638">0.018</text><line class="poloto_axis_lines" stroke="black" x1="150" x2="144" y1="159.77937350077082" y2="159.77937350077082"/><text class="poloto_text" alignment-baseline="middle" text-anchor="end" x="135" y="159.77937350077082">0.020</text><line class="poloto_axis_lines" stroke="black" x1="150" x2="144" y1="123.90281254897519" y2="123.90281254897519"/><text class="poloto_text" alignment-baseline="middle" text-anchor="end" x="135" y="123.90281254897519">0.022</text><text class="poloto_text" alignment-baseline="middle" text-anchor="start" font-size="large" x="675" y="100">brocc</text><line class="poloto0stroke" stroke="black" x1="680" x2="730" y1="81.25" y2="81.25"/><polyline class="poloto0stroke" fill="none" stroke="black" points="150,235.00073636641352 155.05050505050505,239.24077184594054 160.1010101010101,242.3172587006789 165.15151515151516,243.45431248520467 170.2020202020202,240.86077795571885 175.25252525252526,242.21524369961244 180.3030303030303,241.87534916115519 185.35353535353534,237.97492120759784 190.40404040404042,237.9868142875534 195.45454545454544,237.01023636016507 200.50505050505052,233.0277945882719 205.55555555555554,230.36304508529685 210.60606060606062,228.53016540111102 215.65656565656565,228.70011267033965 220.7070707070707,228.31246642925552 225.75757575757575,223.83510749903238 230.8080808080808,224.11139289492218 235.85858585858585,221.35696992784804 240.9090909090909,227.01145676118009 245.95959595959596,228.93492476176917 251.010101010101,232.45448714426223 256.06060606060606,197.33680514799946 261.1111111111111,243.77598173069842 266.16161616161617,245.34158103579335 271.21212121212125,253.31943395636367 276.26262626262627,261.07985697928564 281.3131313131313,268.5347552091421 286.3636363636364,272.8256995286597 291.4141414141414,278.33393556127174 296.4646464646465,280.909280674355 301.5151515151515,286.103076588505 306.5656565656566,291.6857026702506 311.6161616161616,292.66107873284705 316.66666666666663,297.96716828277613 321.7171717171717,298.56777778967023 326.7676767676768,301.49693754686 331.8181818181818,306.28816257056997 336.86868686868684,312.15143305036094 341.9191919191919,311.74809081386036 346.969696969697,315.46111755128595 352.020202020202,321.2864844444314 357.07070707070704,324.81284543522486 362.1212121212121,325.73607491647783 367.17171717171715,329.9601632646618 372.22222222222223,332.92326224851206 377.27272727272725,331.49241530635203 382.32323232323233,337.2293285384708 387.37373737373736,336.42899421675816 392.42424242424244,340.4513307244297 397.47474747474746,340.68965871883245 402.52525252525254,345.1823548788625 407.57575757575756,347.3468595542062 412.62626262626264,347.3473618260595 417.67676767676767,350.7095157973766 422.72727272727275,353.5588502064487 427.77777777777777,355.57957956377805 432.8282828282828,353.54941467091834 437.8787878787879,356.7304817008312 442.92929292929296,356.00792776326205 447.979797979798,360.67866135701536 453.030303030303,362.60534030980966 458.0808080808081,362.5794733093634 463.13131313131316,364.21924740422617 468.1818181818182,367.6403286269065 473.2323232323232,367.3302833871611 478.2828282828283,368.1059705114999 483.3333333333333,370.93325877386707 488.3838383838384,371.9682616807654 493.4343434343434,372.81493058094736 498.4848484848485,372.86160598674564 503.5353535353535,374.53157020764934 508.5858585858586,374.00922541847166 513.6363636363636,376.5283878371044 518.6868686868686,377.68922778154115 523.7373737373737,380.1884966471261 528.7878787878788,380.4591135463855 533.8383838383838,381.4211435283079 538.8888888888889,381.9492285672378 543.939393939394,382.9628669820894 548.9898989898991,382.74550883756297 554.040404040404,382.8491382838722 559.090909090909,385.4487359521588 564.1414141414141,386.1242377800397 569.1919191919192,386.8941308397848 574.2424242424242,386.9360705395374 579.2929292929293,388.9547190563316 584.3434343434343,390.94922264760527 589.3939393939395,391.05509437897405 594.4444444444445,392.61861284353375 599.4949494949494,391.97579456267994 604.5454545454545,392.9806611583788 609.5959595959596,394.02136843846847 614.6464646464647,394.34678678458175 619.6969696969697,396.0324111243409 624.7474747474747,395.93177737087115 629.7979797979797,396.69711410737534 634.8484848484849,397.9703553172741 639.8989898989898,398.9226089363371 644.9494949494949,398.6298741372509 650,400 "/><text class="poloto_text" alignment-baseline="middle" text-anchor="start" font-size="large" x="675" y="150">brocc_par</text><line class="poloto1stroke" stroke="black" x1="680" x2="730" y1="131.25" y2="131.25"/><polyline class="poloto1stroke" fill="none" stroke="black" points="150,225.07589835955025 155.05050505050505,226.20900572237127 160.1010101010101,227.1633401819695 165.15151515151516,227.51017683497102 170.2020202020202,226.63514751335669 175.25252525252526,226.82018087646557 180.3030303030303,224.87559951975638 185.35353535353534,223.41194346260593 190.40404040404042,220.39438385923089 195.45454545454544,213.07500933836982 200.50505050505052,207.69375839324672 205.55555555555554,200.5455688829671 210.60606060606062,195.83251888557118 215.65656565656565,197.09727528880484 220.7070707070707,196.10568302065812 225.75757575757575,191.60521958518206 230.8080808080808,194.988289591534 235.85858585858585,191.76024220505477 240.9090909090909,198.53971036015224 245.95959595959596,201.2163888196438 251.010101010101,204.93275207723795 256.06060606060606,200.98317323517665 261.1111111111111,218.9408449922689 266.16161616161617,222.2539198282039 271.21212121212125,229.15755676075554 276.26262626262627,238.440365771106 281.3131313131313,246.38779536798913 286.3636363636364,249.68452843041058 291.4141414141414,256.34382804460006 296.4646464646465,261.13489162378573 301.5151515151515,262.82082091431295 306.5656565656566,270.3696260424607 311.6161616161616,274.4528091975065 316.66666666666663,280.5083959822796 321.7171717171717,279.880287091416 326.7676767676768,284.23380013323356 331.8181818181818,289.7430765861132 336.86868686868684,296.90357175679924 341.9191919191919,295.68007339866017 346.969696969697,299.15927465008247 352.020202020202,305.0608971735309 357.07070707070704,310.94102963696923 362.1212121212121,310.8962915654624 367.17171717171715,316.31937458065534 372.22222222222223,318.6294125255 377.27272727272725,321.5934263616545 382.32323232323233,322.48953316282797 387.37373737373736,323.99654604388866 392.42424242424244,328.3559787182632 397.47474747474746,327.75203269120067 402.52525252525254,333.8074580314495 407.57575757575756,334.3340003782585 412.62626262626264,335.04094801181367 417.67676767676767,337.89496431208994 422.72727272727275,339.8170331268019 427.77777777777777,342.0596051987768 432.8282828282828,341.0472762783999 437.8787878787879,342.80494075255035 442.92929292929296,342.1220124765524 447.979797979798,346.67716972919953 453.030303030303,347.2686486513313 458.0808080808081,347.4161551316846 463.13131313131316,350.35058874333436 468.1818181818182,352.5215691379299 473.2323232323232,353.10506552524987 478.2828282828283,353.8010528694343 483.3333333333333,357.8367892726213 488.3838383838384,358.93516812444096 493.4343434343434,360.00409231971923 498.4848484848485,358.9186290298422 503.5353535353535,363.03598460919454 508.5858585858586,360.8359262619476 513.6363636363636,364.7611090425616 518.6868686868686,365.6072039177683 523.7373737373737,366.8751533349266 528.7878787878788,369.8873493924394 533.8383838383838,371.2792523276862 538.8888888888889,371.59579122496393 543.939393939394,372.46499060542357 548.9898989898991,372.11345412293736 554.040404040404,371.16033946641153 559.090909090909,376.3334704814533 564.1414141414141,377.0731734151574 569.1919191919192,377.86660149888684 574.2424242424242,378.45693237106815 579.2929292929293,381.0146082778826 584.3434343434343,383.13356765909805 589.3939393939395,383.98640732776363 594.4444444444445,385.3782743864495 599.4949494949494,384.4711893576248 604.5454545454545,386.3269941642588 609.5959595959596,387.71554264105663 614.6464646464647,386.67090687754273 619.6969696969697,388.52450527567817 624.7474747474747,389.41831597695074 629.7979797979797,390.34276526127616 634.8484848484849,391.7187928183018 639.8989898989898,389.16527859255774 644.9494949494949,389.95477819286293 650,390.27101213937254 "/><text class="poloto_text" alignment-baseline="middle" text-anchor="start" font-size="large" x="675" y="200">naive</text><line class="poloto2stroke" stroke="black" x1="680" x2="730" y1="181.25" y2="181.25"/><polyline class="poloto2stroke" fill="none" stroke="black" points="150,200.31380629921853 155.05050505050505,200.53731727394825 160.1010101010101,200.4751790703797 165.15151515151516,200.4596445194876 170.2020202020202,200.5392187316787 175.25252525252526,200.49144909077137 180.3030303030303,199.8807223936889 185.35353535353534,197.44289213873395 190.40404040404042,193.43460130467506 195.45454545454544,189.9919403305822 200.50505050505052,183.74484446344837 205.55555555555554,177.47180984274647 210.60606060606062,169.8574223611788 215.65656565656565,173.6678001467471 220.7070707070707,173.96492982454984 225.75757575757575,168.350517109801 230.8080808080808,166.0064502468935 235.85858585858585,160.05343454988162 240.9090909090909,160.6056465760516 245.95959595959596,157.7952023590513 251.010101010101,157.35250353518663 256.06060606060606,152.10191502504995 261.1111111111111,151.96795194645594 266.16161616161617,161.7768189700425 271.21212121212125,166.62044171102255 276.26262626262627,166.0838718654275 281.3131313131313,166.46961664878117 286.3636363636364,166.4901559799261 291.4141414141414,166.88137193882497 296.4646464646465,166.93405666858266 301.5151515151515,167.93056402557974 306.5656565656566,168.45475645764645 311.6161616161616,168.32230019461238 316.66666666666663,168.06214131287047 321.7171717171717,168.43662085608528 326.7676767676768,167.47891399975757 331.8181818181818,172.20313954589002 336.86868686868684,174.27171029724866 341.9191919191919,175.2000521884373 346.969696969697,174.4911672205908 352.020202020202,175.42919578323642 357.07070707070704,175.49619526081392 362.1212121212121,174.53922387398578 367.17171717171715,175.87706083187817 372.22222222222223,177.75812273742224 377.27272727272725,176.76141805933997 382.32323232323233,176.79194901270995 387.37373737373736,177.95266338918336 392.42424242424244,177.07126597800013 397.47474747474746,176.2204353967478 402.52525252525254,177.38136503258698 407.57575757575756,176.98496491063057 412.62626262626264,180.2331211095233 417.67676767676767,183.9613595087925 422.72727272727275,183.23168407387436 427.77777777777777,183.09104795494335 432.8282828282828,182.16064316149993 437.8787878787879,182.5645773612562 442.92929292929296,183.04302717810938 447.979797979798,182.8463698092521 453.030303030303,180.25653056554435 458.0808080808081,183.74204609169416 463.13131313131316,184.56993361221782 468.1818181818182,184.40547545681477 473.2323232323232,184.42316260136397 478.2828282828283,183.28738243475203 483.3333333333333,184.41302747289515 488.3838383838384,185.40287972783563 493.4343434343434,184.48438595262823 498.4848484848485,183.15198429371995 503.5353535353535,186.50875678089426 508.5858585858586,181.85712745584775 513.6363636363636,191.47437776739082 518.6868686868686,190.8957247157993 523.7373737373737,190.22777490399878 528.7878787878788,190.5307703995172 533.8383838383838,190.47873144785663 538.8888888888889,191.0327552403547 543.939393939394,189.95749883206844 548.9898989898991,189.52850485448735 554.040404040404,192.29074891184897 559.090909090909,190.96288563790108 564.1414141414141,192.58403979762988 569.1919191919192,192.04115567730733 574.2424242424242,193.0959445075706 579.2929292929293,191.9735283599132 584.3434343434343,190.6790302876505 589.3939393939395,192.818385493767 594.4444444444445,194.1297276113966 599.4949494949494,191.51107948924454 604.5454545454545,194.7117171831566 609.5959595959596,194.1739275344892 614.6464646464647,196.4543852548291 619.6969696969697,199.62348745166457 624.7474747474747,197.15449840352295 629.7979797979797,199.19684338882584 634.8484848484849,198.27314751228042 639.8989898989898,197.8971611535056 644.9494949494949,198.67247157395437 650,197.76353890224064 "/><text class="poloto_text" alignment-baseline="middle" text-anchor="start" font-size="large" x="675" y="250">nosort</text><line class="poloto3stroke" stroke="black" x1="680" x2="730" y1="231.25" y2="231.25"/><polyline class="poloto3stroke" fill="none" stroke="black" points="150,235.83326990158045 155.05050505050505,235.4026256021955 160.1010101010101,236.0814998268059 165.15151515151516,235.82862388693715 170.2020202020202,235.97056950034298 175.25252525252526,234.9267947742919 180.3030303030303,233.25805035646056 185.35353535353534,228.9911792093416 190.40404040404042,214.77042797926885 195.45454545454544,202.30780761863883 200.50505050505052,187.5849997946067 205.55555555555554,199.4574327892992 210.60606060606062,181.46171393931755 215.65656565656565,143.21251044381637 220.7070707070707,162.67179565954606 225.75757575757575,155.43935004587118 230.8080808080808,153.77645350747497 235.85858585858585,110.76151528482012 240.9090909090909,142.31105803506108 245.95959595959596,149.03954559704607 251.010101010101,118.89089286057037 256.06060606060606,129.57434074875937 261.1111111111111,123.39266579052116 266.16161616161617,141.6874337143165 271.21212121212125,123.40125822686917 276.26262626262627,134.29741824494135 281.3131313131313,153.94180857690176 286.3636363636364,136.9926269481645 291.4141414141414,140.05442235119318 296.4646464646465,150.66724722914856 301.5151515151515,151.98481393010323 306.5656565656566,165.28960068251567 311.6161616161616,164.92690658957352 316.66666666666663,166.77926724635614 321.7171717171717,156.49991500244766 326.7676767676768,170.15449822414013 331.8181818181818,164.61167718677058 336.86868686868684,173.2613545877242 341.9191919191919,169.56346775902023 346.969696969697,177.9425282607145 352.020202020202,162.00332563761168 357.07070707070704,185.75764510080748 362.1212121212121,176.681018686247 367.17171717171715,179.6119722714844 372.22222222222223,184.80365146853825 377.27272727272725,185.8300978156496 382.32323232323233,178.75256719216463 387.37373737373736,164.91847559774988 392.42424242424244,196.48321207155388 397.47474747474746,200.50535125814017 402.52525252525254,191.05616469637576 407.57575757575756,193.00288070846165 412.62626262626264,213.94193055720902 417.67676767676767,210.1355888847478 422.72727272727275,210.8462856189224 427.77777777777777,198.72129957340977 432.8282828282828,219.9736594289492 437.8787878787879,229.42277423759168 442.92929292929296,199.45571071437348 447.979797979798,217.76484720083 453.030303030303,214.59978111710166 458.0808080808081,219.77646391167764 463.13131313131316,237.21968372300162 468.1818181818182,215.2117276172564 473.2323232323232,223.68465914068105 478.2828282828283,223.50644232415297 483.3333333333333,216.14182745993173 488.3838383838384,245.98755645401096 493.4343434343434,232.54085996475365 498.4848484848485,233.20003795740146 503.5353535353535,228.5404978506651 508.5858585858586,217.19948641507114 513.6363636363636,206.2883838093625 518.6868686868686,257.2119331899506 523.7373737373737,256.7694855020126 528.7878787878788,255.0513390597507 533.8383838383838,205.8939210216975 538.8888888888889,244.2091194510695 543.939393939394,260.45797267174726 548.9898989898991,253.97332015627114 554.040404040404,257.7582793984051 559.090909090909,234.9411633369531 564.1414141414141,262.06393310791293 569.1919191919192,250.12100267095016 574.2424242424242,263.7146316155855 579.2929292929293,261.241122120764 584.3434343434343,237.18260529725796 589.3939393939395,253.69838013141703 594.4444444444445,271.3385263858054 599.4949494949494,272.9320914701623 604.5454545454545,253.04713085873954 609.5959595959596,259.48168175684646 614.6464646464647,268.1972464619881 619.6969696969697,281.5037014744848 624.7474747474747,276.7365496231735 629.7979797979797,263.9021045848391 634.8484848484849,272.9934045128289 639.8989898989898,265.80307798171145 644.9494949494949,277.5967081102733 650,271.3002640335503 "/><text class="poloto_text" alignment-baseline="middle" text-anchor="start" font-size="large" x="675" y="300">nosort_par</text><line class="poloto4stroke" stroke="black" x1="680" x2="730" y1="281.25" y2="281.25"/><polyline class="poloto4stroke" fill="none" stroke="black" points="150,232.00694498466908 155.05050505050505,234.12533034090927 160.1010101010101,235.08070522077512 165.15151515151516,234.98270839453525 170.2020202020202,233.96691738602658 175.25252525252526,234.25513173843288 180.3030303030303,230.5529935372561 185.35353535353534,225.60601042417395 190.40404040404042,209.73258747557628 195.45454545454544,197.811990197806 200.50505050505052,182.35767723424723 205.55555555555554,196.3992429806462 210.60606060606062,179.9354532833063 215.65656565656565,133.68475421356754 220.7070707070707,154.6599496974739 225.75757575757575,150.8416611302157 230.8080808080808,150.26462252386705 235.85858585858585,100 240.9090909090909,140.12038140850302 245.95959595959596,149.71863508102211 251.010101010101,109.03368217110119 256.06060606060606,123.61106435531525 261.1111111111111,118.26721472498434 266.16161616161617,138.49781012461665 271.21212121212125,120.40615735064989 276.26262626262627,131.6541946785373 281.3131313131313,155.10630793055566 286.3636363636364,130.34974086061055 291.4141414141414,139.7355873540145 296.4646464646465,151.4751335669416 301.5151515151515,151.63690098027323 306.5656565656566,165.26800299282272 311.6161616161616,167.8409264380417 316.66666666666663,168.22771164166298 321.7171717171717,155.14693813583358 326.7676767676768,169.98360022604626 331.8181818181818,163.78658803800118 336.86868686868684,173.89923984144713 341.9191919191919,168.27845903712935 346.969696969697,178.9518794265323 352.020202020202,159.39956628825465 357.07070707070704,185.24627853928106 362.1212121212121,177.0589423793132 367.17171717171715,180.77110807927593 372.22222222222223,186.1912312781904 377.27272727272725,183.77652346676882 382.32323232323233,176.98587976293487 387.37373737373736,166.1271210596549 392.42424242424244,197.75012106844466 397.47474747474746,199.23087230688856 402.52525252525254,189.25666815215558 407.57575757575756,194.14980054724913 412.62626262626264,214.20949794878752 417.67676767676767,211.12440071942072 422.72727272727275,209.4464360254248 427.77777777777777,195.50432010598414 432.8282828282828,217.6207310554866 437.8787878787879,227.32370840942406 442.92929292929296,198.17079168388494 447.979797979798,213.88390021986947 453.030303030303,214.07826148882586 458.0808080808081,215.41787433648545 463.13131313131316,233.40961088820143 468.1818181818182,209.14189783778542 473.2323232323232,213.5332785896876 478.2828282828283,221.86587894494926 483.3333333333333,211.81610081457134 488.3838383838384,243.253870139167 493.4343434343434,230.5679361248925 498.4848484848485,232.53192670107669 503.5353535353535,227.39542565476665 508.5858585858586,213.01794766817605 513.6363636363636,233.85722480091647 518.6868686868686,254.11951714214968 523.7373737373737,253.90187198513559 528.7878787878788,253.21634265846868 533.8383838383838,203.5689943040578 538.8888888888889,244.34317222106583 543.939393939394,257.4616699307361 548.9898989898991,253.13483111198622 554.040404040404,258.70271192718064 559.090909090909,231.67379523967068 564.1414141414141,261.95293102832807 569.1919191919192,250.8338161222209 574.2424242424242,262.4157566028867 579.2929292929293,259.6955957515215 584.3434343434343,235.22082112957233 589.3939393939395,253.14776461220933 594.4444444444445,271.87873770233705 599.4949494949494,272.6552679258582 604.5454545454545,255.9733846144923 609.5959595959596,257.2464464415863 614.6464646464647,271.0862962240338 619.6969696969697,281.5008672261696 624.7474747474747,276.69322867582423 629.7979797979797,269.67091207964404 634.8484848484849,277.37845305172306 639.8989898989898,269.57854787347367 644.9494949494949,282.39482143368593 650,275.19705051617103 "/><text class="poloto_text" alignment-baseline="middle" text-anchor="start" font-size="large" x="675" y="350">sweep</text><line class="poloto5stroke" stroke="black" x1="680" x2="730" y1="331.25" y2="331.25"/><polyline class="poloto5stroke" fill="none" stroke="black" points="150,273.79678834222244 155.05050505050505,278.5553836337467 160.1010101010101,278.6466177282471 165.15151515151516,279.29244964022087 170.2020202020202,279.8132158607167 175.25252525252526,277.8447048378526 180.3030303030303,277.9700934183791 185.35353535353534,276.89167987272907 190.40404040404042,268.1961163503181 195.45454545454544,260.6254444582702 200.50505050505052,249.39715717718673 205.55555555555554,243.95665609165167 210.60606060606062,229.7100557994132 215.65656565656565,222.99523720715086 220.7070707070707,217.56467392899944 225.75757575757575,209.49160461566308 230.8080808080808,206.05814597945437 235.85858585858585,193.4823171307409 240.9090909090909,188.04592391143484 245.95959595959596,185.0991487628177 251.010101010101,181.63655835911615 256.06060606060606,166.32863970252112 261.1111111111111,175.58387757578015 266.16161616161617,167.02957801211681 271.21212121212125,162.71199534609255 276.26262626262627,162.18834106244012 281.3131313131313,163.8228951176844 286.3636363636364,156.90366981939917 291.4141414141414,161.3191954968219 296.4646464646465,159.51695439568894 301.5151515151515,159.43666265227884 306.5656565656566,161.86755079268966 311.6161616161616,159.61794691476825 316.66666666666663,152.813006401395 321.7171717171717,157.52193059428149 326.7676767676768,163.1667666327175 331.8181818181818,163.58686322318255 336.86868686868684,163.47286545075823 341.9191919191919,162.79241265746597 346.969696969697,161.11805355784566 352.020202020202,163.251596761088 357.07070707070704,175.5927570246157 362.1212121212121,166.98867873263177 367.17171717171715,168.2971327871047 372.22222222222223,167.03583847200292 377.27272727272725,167.08751865805397 382.32323232323233,166.1117300150066 387.37373737373736,168.82437472685234 392.42424242424244,174.14117343022556 397.47474747474746,171.40504750923685 402.52525252525254,173.0538983740204 407.57575757575756,175.1251778057309 412.62626262626264,180.83556032102584 417.67676767676767,180.54962413024003 422.72727272727275,181.74838559960284 427.77777777777777,183.84933494722048 432.8282828282828,184.36156254620974 437.8787878787879,185.54080716641482 442.92929292929296,190.0420957627928 447.979797979798,187.71295354924123 453.030303030303,193.37520765801938 458.0808080808081,191.46264613195962 463.13131313131316,195.02906330305572 468.1818181818182,198.38248133178098 473.2323232323232,195.08009771100967 478.2828282828283,197.5004381425006 483.3333333333333,201.37415599642932 488.3838383838384,200.2208680680729 493.4343434343434,203.86386375852064 498.4848484848485,206.3051919781684 503.5353535353535,205.73843200653243 508.5858585858586,209.94420537035046 513.6363636363636,208.4789707445182 518.6868686868686,210.715210603485 523.7373737373737,213.34411942206924 528.7878787878788,213.11633913658633 533.8383838383838,213.4398739632496 538.8888888888889,215.52959394728933 543.939393939394,219.82999174061774 548.9898989898991,218.51768095584245 554.040404040404,220.81519798091497 559.090909090909,220.64024593143358 564.1414141414141,218.0521825774929 569.1919191919192,223.7026871125593 574.2424242424242,224.579653768465 579.2929292929293,227.928802486437 584.3434343434343,229.1881235906865 589.3939393939395,227.42557990424666 594.4444444444445,232.05458905761304 599.4949494949494,230.0889660979056 604.5454545454545,235.29426044984066 609.5959595959596,233.05620882454576 614.6464646464647,235.88527297668003 619.6969696969697,237.00630787674078 624.7474747474747,238.7872741772294 629.7979797979797,240.24240955115368 634.8484848484849,241.50530037321786 639.8989898989898,241.75611341083186 644.9494949494949,243.7228664822093 650,241.81997368932605 "/><text class="poloto_text" alignment-baseline="start" text-anchor="middle" font-size="x-large" x="400" y="37.5">Bench of space partitioning algs with abspiral(3000,grow)</text><text class="poloto_text" alignment-baseline="start" text-anchor="middle" font-size="x-large" x="400" y="481.25">Grow</text><text class="poloto_text" alignment-baseline="start" text-anchor="middle" font-size="x-large" transform="rotate(-90,37.5,250)" x="37.5" y="250">Time in Seconds</text><path stroke="black" fill="none" class="poloto_axis_lines" d=" M 150 100 L 150 400 L 650 400"/></svg>