<svg class="poloto" width="800" height="500" viewBox="0 0 800 500" xmlns="http://www.w3.org/2000/svg"><circle  r="1e5" class="poloto_background" /><text  class="poloto_text poloto_legend_text" x="675" y="100" >brocc</text><line  class="poloto_scatter poloto_legend_icon poloto0stroke poloto0legend" stroke="black" x1="685" x2="685" y1="81.25" y2="81.25" /><path  class="poloto_scatter poloto0stroke" d=" M 150.00 345.56 h 0 M 155.05 347.16 h 0 M 160.10 348.98 h 0 M 165.15 349.83 h 0 M 170.20 351.05 h 0 M 175.25 352.01 h 0 M 180.30 353.44 h 0 M 185.35 354.62 h 0 M 190.40 355.65 h 0 M 195.45 356.74 h 0 M 200.51 357.82 h 0 M 205.56 358.97 h 0 M 210.61 360.07 h 0 M 215.66 360.69 h 0 M 220.71 361.24 h 0 M 225.76 362.59 h 0 M 230.81 363.67 h 0 M 235.86 364.27 h 0 M 240.91 365.04 h 0 M 245.96 365.74 h 0 M 251.01 366.18 h 0 M 256.06 367.01 h 0 M 261.11 367.71 h 0 M 266.16 368.49 h 0 M 271.21 368.92 h 0 M 276.26 369.96 h 0 M 281.31 370.14 h 0 M 286.36 370.87 h 0 M 291.41 371.44 h 0 M 296.46 371.95 h 0 M 301.52 372.26 h 0 M 306.57 372.48 h 0 M 311.62 373.04 h 0 M 316.67 373.57 h 0 M 321.72 374.08 h 0 M 326.77 374.47 h 0 M 331.82 374.77 h 0 M 336.87 375.05 h 0 M 341.92 375.16 h 0 M 346.97 375.92 h 0 M 352.02 375.84 h 0 M 357.07 376.37 h 0 M 362.12 376.64 h 0 M 367.17 377.18 h 0 M 372.22 377.63 h 0 M 377.27 377.74 h 0 M 382.32 377.96 h 0 M 387.37 376.49 h 0 M 392.42 378.66 h 0 M 397.47 378.51 h 0 M 402.53 378.46 h 0 M 407.58 379.58 h 0 M 412.63 379.87 h 0 M 417.68 380.15 h 0 M 422.73 380.31 h 0 M 427.78 380.53 h 0 M 432.83 380.74 h 0 M 437.88 380.81 h 0 M 442.93 381.18 h 0 M 447.98 381.32 h 0 M 453.03 381.48 h 0 M 458.08 381.51 h 0 M 463.13 381.88 h 0 M 468.18 381.98 h 0 M 473.23 382.23 h 0 M 478.28 381.49 h 0 M 483.33 382.40 h 0 M 488.38 382.03 h 0 M 493.43 382.59 h 0 M 498.48 382.93 h 0 M 503.54 383.02 h 0 M 508.59 382.87 h 0 M 513.64 383.21 h 0 M 518.69 383.55 h 0 M 523.74 383.68 h 0 M 528.79 383.67 h 0 M 533.84 383.59 h 0 M 538.89 383.79 h 0 M 543.94 384.30 h 0 M 548.99 384.41 h 0 M 554.04 383.56 h 0 M 559.09 384.66 h 0 M 564.14 384.35 h 0 M 569.19 384.77 h 0 M 574.24 384.89 h 0 M 579.29 385.14 h 0 M 584.34 385.09 h 0 M 589.39 385.26 h 0 M 594.44 385.14 h 0 M 599.49 385.51 h 0 M 604.55 385.38 h 0 M 609.60 385.64 h 0 M 614.65 384.96 h 0 M 619.70 385.58 h 0 M 624.75 385.87 h 0 M 629.80 385.63 h 0 M 634.85 385.78 h 0 M 639.90 385.71 h 0 M 644.95 386.20 h 0 M 650.00 386.31 h 0" /><text  class="poloto_text poloto_legend_text" x="675" y="150" >brocc_par</text><line  class="poloto_scatter poloto_legend_icon poloto1stroke poloto1legend" stroke="black" x1="685" x2="685" y1="131.25" y2="131.25" /><path  class="poloto_scatter poloto1stroke" d=" M 150.00 373.93 h 0 M 155.05 375.38 h 0 M 160.10 375.69 h 0 M 165.15 377.00 h 0 M 170.20 377.96 h 0 M 175.25 377.92 h 0 M 180.30 378.84 h 0 M 185.35 379.14 h 0 M 190.40 379.64 h 0 M 195.45 380.92 h 0 M 200.51 381.12 h 0 M 205.56 381.50 h 0 M 210.61 382.20 h 0 M 215.66 382.55 h 0 M 220.71 382.88 h 0 M 225.76 383.33 h 0 M 230.81 383.72 h 0 M 235.86 384.27 h 0 M 240.91 384.44 h 0 M 245.96 385.20 h 0 M 251.01 385.23 h 0 M 256.06 385.30 h 0 M 261.11 386.11 h 0 M 266.16 386.51 h 0 M 271.21 386.77 h 0 M 276.26 386.80 h 0 M 281.31 387.38 h 0 M 286.36 385.31 h 0 M 291.41 387.80 h 0 M 296.46 387.89 h 0 M 301.52 387.40 h 0 M 306.57 388.04 h 0 M 311.62 388.40 h 0 M 316.67 388.46 h 0 M 321.72 388.88 h 0 M 326.77 389.00 h 0 M 331.82 389.02 h 0 M 336.87 389.26 h 0 M 341.92 389.60 h 0 M 346.97 389.80 h 0 M 352.02 389.88 h 0 M 357.07 389.96 h 0 M 362.12 389.91 h 0 M 367.17 390.09 h 0 M 372.22 390.09 h 0 M 377.27 390.50 h 0 M 382.32 390.38 h 0 M 387.37 390.17 h 0 M 392.42 390.81 h 0 M 397.47 390.92 h 0 M 402.53 391.04 h 0 M 407.58 391.21 h 0 M 412.63 391.14 h 0 M 417.68 391.36 h 0 M 422.73 391.49 h 0 M 427.78 391.59 h 0 M 432.83 391.66 h 0 M 437.88 391.09 h 0 M 442.93 391.73 h 0 M 447.98 392.28 h 0 M 453.03 392.14 h 0 M 458.08 392.18 h 0 M 463.13 392.40 h 0 M 468.18 392.39 h 0 M 473.23 392.39 h 0 M 478.28 392.45 h 0 M 483.33 392.32 h 0 M 488.38 392.50 h 0 M 493.43 392.64 h 0 M 498.48 392.61 h 0 M 503.54 392.68 h 0 M 508.59 392.75 h 0 M 513.64 392.74 h 0 M 518.69 392.71 h 0 M 523.74 392.83 h 0 M 528.79 392.91 h 0 M 533.84 392.72 h 0 M 538.89 393.23 h 0 M 543.94 393.23 h 0 M 548.99 393.18 h 0 M 554.04 392.58 h 0 M 559.09 392.41 h 0 M 564.14 393.47 h 0 M 569.19 393.57 h 0 M 574.24 393.51 h 0 M 579.29 393.41 h 0 M 584.34 391.63 h 0 M 589.39 393.65 h 0 M 594.44 393.78 h 0 M 599.49 393.70 h 0 M 604.55 393.88 h 0 M 609.60 393.78 h 0 M 614.65 393.94 h 0 M 619.70 393.83 h 0 M 624.75 394.07 h 0 M 629.80 393.79 h 0 M 634.85 394.05 h 0 M 639.90 393.87 h 0 M 644.95 394.07 h 0 M 650.00 394.00 h 0" /><text  class="poloto_text poloto_legend_text" x="675" y="200" >naive</text><line  class="poloto_scatter poloto_legend_icon poloto2stroke poloto2legend" stroke="black" x1="685" x2="685" y1="181.25" y2="181.25" /><path  class="poloto_scatter poloto2stroke" d=" M 150.00 400.00 h 0 M 155.05 400.00 h 0 M 160.10 400.00 h 0 M 165.15 400.00 h 0 M 170.20 400.00 h 0 M 175.25 400.00 h 0 M 180.30 400.00 h 0 M 185.35 400.00 h 0 M 190.40 400.00 h 0 M 195.45 400.00 h 0 M 200.51 400.00 h 0 M 205.56 400.00 h 0 M 210.61 400.00 h 0 M 215.66 400.00 h 0 M 220.71 400.00 h 0 M 225.76 400.00 h 0 M 230.81 400.00 h 0 M 235.86 400.00 h 0 M 240.91 400.00 h 0 M 245.96 400.00 h 0 M 251.01 400.00 h 0 M 256.06 400.00 h 0 M 261.11 400.00 h 0 M 266.16 400.00 h 0 M 271.21 400.00 h 0 M 276.26 400.00 h 0 M 281.31 400.00 h 0 M 286.36 400.00 h 0 M 291.41 400.00 h 0 M 296.46 400.00 h 0 M 301.52 400.00 h 0 M 306.57 400.00 h 0 M 311.62 400.00 h 0 M 316.67 400.00 h 0 M 321.72 400.00 h 0 M 326.77 400.00 h 0 M 331.82 400.00 h 0 M 336.87 400.00 h 0 M 341.92 400.00 h 0 M 346.97 400.00 h 0 M 352.02 400.00 h 0 M 357.07 400.00 h 0 M 362.12 400.00 h 0 M 367.17 400.00 h 0 M 372.22 400.00 h 0 M 377.27 400.00 h 0 M 382.32 400.00 h 0 M 387.37 400.00 h 0 M 392.42 400.00 h 0 M 397.47 400.00 h 0 M 402.53 400.00 h 0 M 407.58 400.00 h 0 M 412.63 400.00 h 0 M 417.68 400.00 h 0 M 422.73 400.00 h 0 M 427.78 400.00 h 0 M 432.83 400.00 h 0 M 437.88 400.00 h 0 M 442.93 400.00 h 0 M 447.98 400.00 h 0 M 453.03 400.00 h 0 M 458.08 400.00 h 0 M 463.13 400.00 h 0 M 468.18 400.00 h 0 M 473.23 400.00 h 0 M 478.28 400.00 h 0 M 483.33 400.00 h 0 M 488.38 400.00 h 0 M 493.43 400.00 h 0 M 498.48 400.00 h 0 M 503.54 400.00 h 0 M 508.59 400.00 h 0 M 513.64 400.00 h 0 M 518.69 400.00 h 0 M 523.74 400.00 h 0 M 528.79 400.00 h 0 M 533.84 400.00 h 0 M 538.89 400.00 h 0 M 543.94 400.00 h 0 M 548.99 400.00 h 0 M 554.04 400.00 h 0 M 559.09 400.00 h 0 M 564.14 400.00 h 0 M 569.19 400.00 h 0 M 574.24 400.00 h 0 M 579.29 400.00 h 0 M 584.34 400.00 h 0 M 589.39 400.00 h 0 M 594.44 400.00 h 0 M 599.49 400.00 h 0 M 604.55 400.00 h 0 M 609.60 400.00 h 0 M 614.65 400.00 h 0 M 619.70 400.00 h 0 M 624.75 400.00 h 0 M 629.80 400.00 h 0 M 634.85 400.00 h 0 M 639.90 400.00 h 0 M 644.95 400.00 h 0 M 650.00 400.00 h 0" /><text  class="poloto_text poloto_legend_text" x="675" y="250" >nosort</text><line  class="poloto_scatter poloto_legend_icon poloto3stroke poloto3legend" stroke="black" x1="685" x2="685" y1="231.25" y2="231.25" /><path  class="poloto_scatter poloto3stroke" d=" M 150.00 226.63 h 0 M 155.05 233.98 h 0 M 160.10 240.87 h 0 M 165.15 243.43 h 0 M 170.20 252.06 h 0 M 175.25 253.91 h 0 M 180.30 254.89 h 0 M 185.35 259.91 h 0 M 190.40 263.34 h 0 M 195.45 263.29 h 0 M 200.51 267.07 h 0 M 205.56 271.39 h 0 M 210.61 275.86 h 0 M 215.66 279.19 h 0 M 220.71 280.26 h 0 M 225.76 281.57 h 0 M 230.81 286.09 h 0 M 235.86 289.61 h 0 M 240.91 292.70 h 0 M 245.96 293.17 h 0 M 251.01 295.08 h 0 M 256.06 298.45 h 0 M 261.11 300.52 h 0 M 266.16 302.09 h 0 M 271.21 304.81 h 0 M 276.26 306.77 h 0 M 281.31 308.68 h 0 M 286.36 310.06 h 0 M 291.41 312.25 h 0 M 296.46 312.89 h 0 M 301.52 315.40 h 0 M 306.57 315.98 h 0 M 311.62 317.08 h 0 M 316.67 318.70 h 0 M 321.72 321.05 h 0 M 326.77 321.40 h 0 M 331.82 323.56 h 0 M 336.87 323.62 h 0 M 341.92 325.85 h 0 M 346.97 326.15 h 0 M 352.02 328.83 h 0 M 357.07 328.42 h 0 M 362.12 330.92 h 0 M 367.17 331.07 h 0 M 372.22 333.55 h 0 M 377.27 332.67 h 0 M 382.32 334.41 h 0 M 387.37 335.75 h 0 M 392.42 335.09 h 0 M 397.47 336.73 h 0 M 402.53 336.90 h 0 M 407.58 336.06 h 0 M 412.63 338.99 h 0 M 417.68 339.75 h 0 M 422.73 341.18 h 0 M 427.78 342.04 h 0 M 432.83 342.87 h 0 M 437.88 343.17 h 0 M 442.93 344.23 h 0 M 447.98 345.28 h 0 M 453.03 345.01 h 0 M 458.08 345.77 h 0 M 463.13 346.36 h 0 M 468.18 346.89 h 0 M 473.23 346.61 h 0 M 478.28 348.11 h 0 M 483.33 349.10 h 0 M 488.38 349.47 h 0 M 493.43 350.21 h 0 M 498.48 350.17 h 0 M 503.54 351.36 h 0 M 508.59 350.98 h 0 M 513.64 351.20 h 0 M 518.69 352.44 h 0 M 523.74 353.27 h 0 M 528.79 348.18 h 0 M 533.84 354.29 h 0 M 538.89 345.58 h 0 M 543.94 354.81 h 0 M 548.99 354.94 h 0 M 554.04 355.00 h 0 M 559.09 356.09 h 0 M 564.14 356.50 h 0 M 569.19 356.34 h 0 M 574.24 356.98 h 0 M 579.29 357.05 h 0 M 584.34 357.65 h 0 M 589.39 358.01 h 0 M 594.44 358.22 h 0 M 599.49 358.31 h 0 M 604.55 359.02 h 0 M 609.60 359.48 h 0 M 614.65 359.54 h 0 M 619.70 359.19 h 0 M 624.75 357.83 h 0 M 629.80 359.23 h 0 M 634.85 360.57 h 0 M 639.90 360.97 h 0 M 644.95 361.54 h 0 M 650.00 361.43 h 0" /><text  class="poloto_text poloto_legend_text" x="675" y="300" >nosort_par</text><line  class="poloto_scatter poloto_legend_icon poloto4stroke poloto4legend" stroke="black" x1="685" x2="685" y1="281.25" y2="281.25" /><path  class="poloto_scatter poloto4stroke" d=" M 150.00 302.13 h 0 M 155.05 306.40 h 0 M 160.10 311.32 h 0 M 165.15 311.90 h 0 M 170.20 318.20 h 0 M 175.25 314.02 h 0 M 180.30 308.17 h 0 M 185.35 317.61 h 0 M 190.40 324.81 h 0 M 195.45 326.21 h 0 M 200.51 327.29 h 0 M 205.56 329.10 h 0 M 210.61 332.10 h 0 M 215.66 335.58 h 0 M 220.71 336.57 h 0 M 225.76 336.81 h 0 M 230.81 331.54 h 0 M 235.86 338.76 h 0 M 240.91 342.20 h 0 M 245.96 340.53 h 0 M 251.01 342.31 h 0 M 256.06 346.17 h 0 M 261.11 348.64 h 0 M 266.16 349.09 h 0 M 271.21 351.33 h 0 M 276.26 352.91 h 0 M 281.31 353.56 h 0 M 286.36 354.40 h 0 M 291.41 355.27 h 0 M 296.46 355.20 h 0 M 301.52 357.05 h 0 M 306.57 357.56 h 0 M 311.62 354.94 h 0 M 316.67 358.98 h 0 M 321.72 360.53 h 0 M 326.77 360.01 h 0 M 331.82 362.15 h 0 M 336.87 361.39 h 0 M 341.92 362.73 h 0 M 346.97 363.79 h 0 M 352.02 364.33 h 0 M 357.07 364.89 h 0 M 362.12 363.90 h 0 M 367.17 363.86 h 0 M 372.22 365.49 h 0 M 377.27 366.54 h 0 M 382.32 367.77 h 0 M 387.37 368.65 h 0 M 392.42 368.76 h 0 M 397.47 368.68 h 0 M 402.53 369.39 h 0 M 407.58 369.43 h 0 M 412.63 369.76 h 0 M 417.68 368.05 h 0 M 422.73 371.72 h 0 M 427.78 371.80 h 0 M 432.83 371.12 h 0 M 437.88 371.30 h 0 M 442.93 372.80 h 0 M 447.98 371.99 h 0 M 453.03 373.78 h 0 M 458.08 373.89 h 0 M 463.13 374.47 h 0 M 468.18 374.77 h 0 M 473.23 375.09 h 0 M 478.28 375.36 h 0 M 483.33 375.96 h 0 M 488.38 373.61 h 0 M 493.43 376.43 h 0 M 498.48 376.59 h 0 M 503.54 377.06 h 0 M 508.59 377.13 h 0 M 513.64 377.49 h 0 M 518.69 375.95 h 0 M 523.74 376.90 h 0 M 528.79 375.92 h 0 M 533.84 377.34 h 0 M 538.89 374.90 h 0 M 543.94 377.40 h 0 M 548.99 378.95 h 0 M 554.04 375.56 h 0 M 559.09 379.31 h 0 M 564.14 379.70 h 0 M 569.19 379.53 h 0 M 574.24 379.73 h 0 M 579.29 380.21 h 0 M 584.34 379.95 h 0 M 589.39 379.49 h 0 M 594.44 379.80 h 0 M 599.49 380.57 h 0 M 604.55 380.08 h 0 M 609.60 381.06 h 0 M 614.65 381.21 h 0 M 619.70 380.39 h 0 M 624.75 380.62 h 0 M 629.80 380.57 h 0 M 634.85 381.54 h 0 M 639.90 381.00 h 0 M 644.95 381.41 h 0 M 650.00 382.37 h 0" /><text  class="poloto_text poloto_legend_text" x="675" y="350" >sweep</text><line  class="poloto_scatter poloto_legend_icon poloto5stroke poloto5legend" stroke="black" x1="685" x2="685" y1="331.25" y2="331.25" /><path  class="poloto_scatter poloto5stroke" d=" M 150.00 100.00 h 0 M 155.05 107.57 h 0 M 160.10 115.35 h 0 M 165.15 122.04 h 0 M 170.20 129.30 h 0 M 175.25 135.12 h 0 M 180.30 141.46 h 0 M 185.35 143.96 h 0 M 190.40 152.52 h 0 M 195.45 157.08 h 0 M 200.51 164.04 h 0 M 205.56 168.47 h 0 M 210.61 173.06 h 0 M 215.66 176.87 h 0 M 220.71 180.07 h 0 M 225.76 186.07 h 0 M 230.81 190.97 h 0 M 235.86 193.46 h 0 M 240.91 198.63 h 0 M 245.96 201.52 h 0 M 251.01 204.86 h 0 M 256.06 203.08 h 0 M 261.11 212.48 h 0 M 266.16 213.15 h 0 M 271.21 219.23 h 0 M 276.26 221.99 h 0 M 281.31 224.47 h 0 M 286.36 227.80 h 0 M 291.41 230.18 h 0 M 296.46 232.86 h 0 M 301.52 235.26 h 0 M 306.57 238.01 h 0 M 311.62 240.73 h 0 M 316.67 242.52 h 0 M 321.72 244.98 h 0 M 326.77 247.25 h 0 M 331.82 249.71 h 0 M 336.87 251.88 h 0 M 341.92 253.25 h 0 M 346.97 255.89 h 0 M 352.02 258.28 h 0 M 357.07 259.68 h 0 M 362.12 260.32 h 0 M 367.17 263.46 h 0 M 372.22 264.93 h 0 M 377.27 267.25 h 0 M 382.32 268.06 h 0 M 387.37 270.12 h 0 M 392.42 271.88 h 0 M 397.47 272.93 h 0 M 402.53 274.57 h 0 M 407.58 275.93 h 0 M 412.63 277.73 h 0 M 417.68 276.41 h 0 M 422.73 280.70 h 0 M 427.78 281.94 h 0 M 432.83 283.13 h 0 M 437.88 284.49 h 0 M 442.93 286.04 h 0 M 447.98 287.46 h 0 M 453.03 288.13 h 0 M 458.08 289.66 h 0 M 463.13 290.30 h 0 M 468.18 292.00 h 0 M 473.23 289.33 h 0 M 478.28 293.40 h 0 M 483.33 291.82 h 0 M 488.38 295.74 h 0 M 493.43 296.41 h 0 M 498.48 297.77 h 0 M 503.54 297.92 h 0 M 508.59 297.63 h 0 M 513.64 300.27 h 0 M 518.69 300.74 h 0 M 523.74 302.21 h 0 M 528.79 302.80 h 0 M 533.84 303.83 h 0 M 538.89 304.69 h 0 M 543.94 305.30 h 0 M 548.99 306.20 h 0 M 554.04 306.92 h 0 M 559.09 307.99 h 0 M 564.14 308.72 h 0 M 569.19 309.13 h 0 M 574.24 310.09 h 0 M 579.29 310.73 h 0 M 584.34 310.94 h 0 M 589.39 312.00 h 0 M 594.44 312.89 h 0 M 599.49 313.55 h 0 M 604.55 313.86 h 0 M 609.60 314.63 h 0 M 614.65 315.05 h 0 M 619.70 315.98 h 0 M 624.75 313.91 h 0 M 629.80 315.95 h 0 M 634.85 316.49 h 0 M 639.90 318.10 h 0 M 644.95 318.60 h 0 M 650.00 319.19 h 0" /><text  class="poloto_labels poloto_text poloto_title" x="400" y="37.5" >Bench of space partitioning algs with abspiral(30_000,grow)</text><text  class="poloto_labels poloto_text poloto_xname" x="400" y="481.25" >Grow</text><text  class="poloto_labels poloto_text poloto_yname" transform="rotate(-90,37.5,250)" x="37.5" y="250" >Time in Seconds</text><text  class="poloto_tick_labels poloto_text" dominant-baseline="middle" text-anchor="start" x="150" y="70" ></text><line  class="poloto_axis_lines" stroke="black" x1="150" x2="144" y1="400" y2="400" /><text  class="poloto_tick_labels poloto_text" dominant-baseline="middle" text-anchor="end" x="135" y="400" >0e0</text><line  class="poloto_axis_lines" stroke="black" x1="150" x2="144" y1="338.40592817482434" y2="338.40592817482434" /><text  class="poloto_tick_labels poloto_text" dominant-baseline="middle" text-anchor="end" x="135" y="338.40592817482434" >0.05</text><line  class="poloto_axis_lines" stroke="black" x1="150" x2="144" y1="276.8118563496487" y2="276.8118563496487" /><text  class="poloto_tick_labels poloto_text" dominant-baseline="middle" text-anchor="end" x="135" y="276.8118563496487" >0.10</text><line  class="poloto_axis_lines" stroke="black" x1="150" x2="144" y1="215.21778452447302" y2="215.21778452447302" /><text  class="poloto_tick_labels poloto_text" dominant-baseline="middle" text-anchor="end" x="135" y="215.21778452447302" >0.15</text><line  class="poloto_axis_lines" stroke="black" x1="150" x2="144" y1="153.62371269929736" y2="153.62371269929736" /><text  class="poloto_tick_labels poloto_text" dominant-baseline="middle" text-anchor="end" x="135" y="153.62371269929736" >0.20</text><text  class="poloto_tick_labels poloto_text" dominant-baseline="middle" text-anchor="start" x="440.00000000000006" y="70" ></text><line  class="poloto_axis_lines" stroke="black" x1="150" x2="150" y1="400" y2="405" /><text  class="poloto_tick_labels poloto_text" dominant-baseline="start" text-anchor="middle" x="150" y="430" >0.20</text><line  class="poloto_axis_lines" stroke="black" x1="213.1313131313131" x2="213.1313131313131" y1="400" y2="405" /><text  class="poloto_tick_labels poloto_text" dominant-baseline="start" text-anchor="middle" x="213.1313131313131" y="430" >0.25</text><line  class="poloto_axis_lines" stroke="black" x1="276.26262626262627" x2="276.26262626262627" y1="400" y2="405" /><text  class="poloto_tick_labels poloto_text" dominant-baseline="start" text-anchor="middle" x="276.26262626262627" y="430" >0.30</text><line  class="poloto_axis_lines" stroke="black" x1="339.3939393939394" x2="339.3939393939394" y1="400" y2="405" /><text  class="poloto_tick_labels poloto_text" dominant-baseline="start" text-anchor="middle" x="339.3939393939394" y="430" >0.35</text><line  class="poloto_axis_lines" stroke="black" x1="402.5252525252525" x2="402.5252525252525" y1="400" y2="405" /><text  class="poloto_tick_labels poloto_text" dominant-baseline="start" text-anchor="middle" x="402.5252525252525" y="430" >0.40</text><line  class="poloto_axis_lines" stroke="black" x1="465.65656565656565" x2="465.65656565656565" y1="400" y2="405" /><text  class="poloto_tick_labels poloto_text" dominant-baseline="start" text-anchor="middle" x="465.65656565656565" y="430" >0.45</text><line  class="poloto_axis_lines" stroke="black" x1="528.7878787878788" x2="528.7878787878788" y1="400" y2="405" /><text  class="poloto_tick_labels poloto_text" dominant-baseline="start" text-anchor="middle" x="528.7878787878788" y="430" >0.50</text><line  class="poloto_axis_lines" stroke="black" x1="591.9191919191919" x2="591.9191919191919" y1="400" y2="405" /><text  class="poloto_tick_labels poloto_text" dominant-baseline="start" text-anchor="middle" x="591.9191919191919" y="430" >0.55</text><path  stroke="black" fill="none" class="poloto_axis_lines" style="stroke-dasharray:6.313131313131312;stroke-dashoffset:-0;" d=" M 150 400 L 650 400" /><path  stroke="black" fill="none" class="poloto_axis_lines" style="stroke-dasharray:6.159407182517566;stroke-dashoffset:-0;" d=" M 150 400 L 150 100" /></svg>