<svg class="poloto" width="800" height="500" viewBox="0 0 800 500" xmlns="http://www.w3.org/2000/svg" ><rect class="poloto_background" fill="white" x="0" y="0" width="800" height="500" /><style><style>.poloto {
            font-family: "Arial";
            stroke-width:2;
            }
            .poloto_text{fill: var(--poloto_fg_color,black);  }
            .poloto_axis_lines{stroke: var(--poloto_fg_color,black);stoke-width:3;fill:none}
            .poloto_background{fill: var(--poloto_bg_color,aliceblue); }
            .poloto0stroke{stroke:  var(--poloto_color0,blue); }
            .poloto1stroke{stroke:  var(--poloto_color1,red); }
            .poloto2stroke{stroke:  var(--poloto_color2,green); }
            .poloto3stroke{stroke:  var(--poloto_color3,gold); }
            .poloto4stroke{stroke:  var(--poloto_color4,aqua); }
            .poloto5stroke{stroke:  var(--poloto_color5,brown); }
            .poloto6stroke{stroke:  var(--poloto_color6,lime); }
            .poloto7stroke{stroke:  var(--poloto_color7,chocolate); }
            .poloto0fill{fill:var(--poloto_color0,blue);}
            .poloto1fill{fill:var(--poloto_color1,red);}
            .poloto2fill{fill:var(--poloto_color2,green);}
            .poloto3fill{fill:var(--poloto_color3,gold);}
            .poloto4fill{fill:var(--poloto_color4,aqua);}
            .poloto5fill{fill:var(--poloto_color5,brown);}
            .poloto6fill{fill:var(--poloto_color6,lime);}
            .poloto7fill{fill:var(--poloto_color7,chocolate);}</style></style><line class="poloto_axis_lines" stroke="black" x1="189.8724" x2="189.8724" y1="400" y2="405" /><text class="poloto_text" alignment-baseline="start" text-anchor="middle" x="189.8724" y="430" >0.5</text><line class="poloto_axis_lines" stroke="black" x1="256.32642" x2="256.32642" y1="400" y2="405" /><text class="poloto_text" alignment-baseline="start" text-anchor="middle" x="256.32642" y="430" >1.0</text><line class="poloto_axis_lines" stroke="black" x1="322.78046" x2="322.78046" y1="400" y2="405" /><text class="poloto_text" alignment-baseline="start" text-anchor="middle" x="322.78046" y="430" >1.5</text><line class="poloto_axis_lines" stroke="black" x1="389.23444" x2="389.23444" y1="400" y2="405" /><text class="poloto_text" alignment-baseline="start" text-anchor="middle" x="389.23444" y="430" >2.0</text><line class="poloto_axis_lines" stroke="black" x1="455.68848" x2="455.68848" y1="400" y2="405" /><text class="poloto_text" alignment-baseline="start" text-anchor="middle" x="455.68848" y="430" >2.5</text><line class="poloto_axis_lines" stroke="black" x1="522.14246" x2="522.14246" y1="400" y2="405" /><text class="poloto_text" alignment-baseline="start" text-anchor="middle" x="522.14246" y="430" >3.0</text><line class="poloto_axis_lines" stroke="black" x1="588.5965" x2="588.5965" y1="400" y2="405" /><text class="poloto_text" alignment-baseline="start" text-anchor="middle" x="588.5965" y="430" >3.5</text><line class="poloto_axis_lines" stroke="black" x1="150" x2="144" y1="400" y2="400" /><text class="poloto_text" alignment-baseline="middle" text-anchor="end" x="135" y="400" >0.00</text><line class="poloto_axis_lines" stroke="black" x1="150" x2="144" y1="356.3202" y2="356.3202" /><text class="poloto_text" alignment-baseline="middle" text-anchor="end" x="135" y="356.3202" >0.01</text><line class="poloto_axis_lines" stroke="black" x1="150" x2="144" y1="312.64035" y2="312.64035" /><text class="poloto_text" alignment-baseline="middle" text-anchor="end" x="135" y="312.64035" >0.02</text><line class="poloto_axis_lines" stroke="black" x1="150" x2="144" y1="268.9605" y2="268.9605" /><text class="poloto_text" alignment-baseline="middle" text-anchor="end" x="135" y="268.9605" >0.03</text><line class="poloto_axis_lines" stroke="black" x1="150" x2="144" y1="225.2807" y2="225.2807" /><text class="poloto_text" alignment-baseline="middle" text-anchor="end" x="135" y="225.2807" >0.04</text><line class="poloto_axis_lines" stroke="black" x1="150" x2="144" y1="181.60089" y2="181.60089" /><text class="poloto_text" alignment-baseline="middle" text-anchor="end" x="135" y="181.60089" >0.05</text><line class="poloto_axis_lines" stroke="black" x1="150" x2="144" y1="137.92105" y2="137.92105" /><text class="poloto_text" alignment-baseline="middle" text-anchor="end" x="135" y="137.92105" >0.06</text><text class="poloto_text" alignment-baseline="middle" text-anchor="start" font-size="large" x="675" y="100" >brocc</text><line class="poloto0stroke" stroke="black" x1="680" x2="730" y1="81.25" y2="81.25" /><polyline class="poloto0stroke" fill="none" stroke="black"  points="150,348.56665 155.0505,350.8646 160.10101,352.3554 165.15152,353.73392 170.20203,353.9046 175.25253,356.20663 180.30304,357.49338 185.35353,357.89307 190.40405,358.56525 195.45454,359.39594 200.50505,359.50323 205.55556,360.4961 210.60606,361.3144 215.65657,361.75644 220.70708,361.63904 225.75757,362.48288 230.80809,363.01508 235.8586,363.7653 240.90909,364.06375 245.9596,364.25638 251.0101,364.10553 256.0606,364.62054 261.1111,365.00793 266.16162,365.04724 271.21213,365.41473 276.26263,365.48804 281.31314,365.7955 286.36365,365.93396 291.41415,366.2281 296.46466,366.62213 301.51514,366.49176 306.56567,366.9975 311.61615,367.11072 316.6667,367.04144 321.71716,367.05768 326.76767,367.59503 331.81818,368.02856 336.86868,368.22885 341.9192,368.37454 346.96973,368.93066 352.0202,370.6789 357.0707,369.08432 362.12122,369.08142 367.17172,369.77457 372.22223,369.85114 377.27274,369.70627 382.32324,369.6604 387.37372,370.1475 392.42426,369.77692 397.47476,370.02783 402.52527,370.48285 407.57578,370.64035 412.62628,370.77103 417.6768,370.80875 422.7273,371.072 427.77777,370.68484 432.8283,371.09805 437.87878,371.42426 442.92932,371.18896 447.9798,371.3752 453.0303,369.45004 458.0808,371.34372 463.13132,371.56897 468.18185,371.44666 473.23233,371.5665 478.28284,371.32126 483.33334,371.71503 488.38385,372.06076 493.43436,371.7647 498.48486,372.03818 503.53534,371.87057 508.58588,372.02228 513.63635,372.09525 518.6869,371.91068 523.7374,372.63638 528.7879,371.95334 533.8384,372.34872 538.8889,372.19666 543.93945,372.248 548.98987,372.5495 554.0404,372.67676 559.09094,372.60626 564.1414,371.19608 569.19196,372.29025 574.24243,372.59573 579.29297,372.56085 584.34344,372.857 589.3939,373.07474 594.44446,372.8898 599.495,373.14697 604.5455,373.30847 609.59595,373.08917 614.6465,372.9509 619.697,373.0137 624.7475,372.92493 629.798,371.8224 634.8485,373.31735 639.899,373.30936 644.9495,373.21017 650,373.1139 "/><text class="poloto_text" alignment-baseline="middle" text-anchor="start" font-size="large" x="675" y="150" >brocc_par</text><line class="poloto1stroke" stroke="black" x1="680" x2="730" y1="131.25" y2="131.25" /><polyline class="poloto1stroke" fill="none" stroke="black"  points="150,376.80505 155.0505,383.77725 160.10101,382.93674 165.15152,382.88498 170.20203,383.3983 175.25253,384.6392 180.30304,384.94955 185.35353,385.16183 190.40405,386.14606 195.45454,385.8871 200.50505,377.75937 205.55556,386.3722 210.60606,386.6035 215.65657,385.7425 220.70708,386.52985 225.75757,387.45657 230.80809,387.83307 235.8586,387.46088 240.90909,387.6383 245.9596,387.58838 251.0101,387.12283 256.0606,387.15613 261.1111,387.01785 266.16162,387.3192 271.21213,387.16058 276.26263,385.32434 281.31314,381.72867 286.36365,387.88193 291.41415,387.51077 296.46466,387.8056 301.51514,388.08664 306.56567,388.72006 311.61615,388.3124 316.6667,387.52182 321.71716,388.12128 326.76767,389.2217 331.81818,387.8626 336.86868,388.43616 341.9192,388.66858 346.96973,388.47247 352.0202,389.27798 357.0707,389.25433 362.12122,388.26468 367.17172,389.20493 372.22223,389.03125 377.27274,388.52087 382.32324,388.09897 387.37372,389.35052 392.42426,388.7511 397.47476,389.01633 402.52527,389.08472 407.57578,389.1052 412.62628,388.99017 417.6768,389.65222 422.7273,389.9841 427.77777,388.06787 432.8283,389.39267 437.87878,390.37946 442.92932,390.1993 447.9798,389.736 453.0303,387.90558 458.0808,388.73148 463.13132,390.01862 468.18185,389.99036 473.23233,389.82675 478.28284,389.72916 483.33334,389.47302 488.38385,389.20343 493.43436,389.99554 498.48486,389.87915 503.53534,390.32675 508.58588,389.278 513.63635,389.78067 518.6869,389.31903 523.7374,390.28595 528.7879,389.0585 533.8384,389.83408 538.8889,390.12982 543.93945,390.7515 548.98987,390.08606 554.0404,388.6018 559.09094,390.52527 564.1414,389.20282 569.19196,389.7583 574.24243,389.9417 579.29297,390.44208 584.34344,390.25754 589.3939,390.62247 594.44446,389.5442 599.495,391.06775 604.5455,388.57037 609.59595,390.689 614.6465,390.36725 619.697,389.7698 624.7475,389.15186 629.798,389.08957 634.8485,389.28647 639.899,388.9381 644.9495,389.89612 650,390.23712 "/><text class="poloto_text" alignment-baseline="middle" text-anchor="start" font-size="large" x="675" y="200" >naive</text><line class="poloto2stroke" stroke="black" x1="680" x2="730" y1="181.25" y2="181.25" /><polyline class="poloto2stroke" fill="none" stroke="black"  points="150,400 155.0505,400 160.10101,400 165.15152,400 170.20203,400 175.25253,400 180.30304,400 185.35353,400 190.40405,400 195.45454,400 200.50505,400 205.55556,400 210.60606,400 215.65657,400 220.70708,400 225.75757,400 230.80809,400 235.8586,400 240.90909,400 245.9596,400 251.0101,400 256.0606,400 261.1111,400 266.16162,400 271.21213,400 276.26263,400 281.31314,400 286.36365,400 291.41415,400 296.46466,400 301.51514,400 306.56567,400 311.61615,400 316.6667,400 321.71716,400 326.76767,400 331.81818,400 336.86868,400 341.9192,400 346.96973,400 352.0202,400 357.0707,400 362.12122,400 367.17172,400 372.22223,400 377.27274,400 382.32324,400 387.37372,400 392.42426,400 397.47476,400 402.52527,400 407.57578,400 412.62628,400 417.6768,400 422.7273,400 427.77777,400 432.8283,400 437.87878,400 442.92932,400 447.9798,400 453.0303,400 458.0808,400 463.13132,400 468.18185,400 473.23233,400 478.28284,400 483.33334,400 488.38385,400 493.43436,400 498.48486,400 503.53534,400 508.58588,400 513.63635,400 518.6869,400 523.7374,400 528.7879,400 533.8384,400 538.8889,400 543.93945,400 548.98987,400 554.0404,400 559.09094,400 564.1414,400 569.19196,400 574.24243,400 579.29297,400 584.34344,400 589.3939,400 594.44446,400 599.495,400 604.5455,400 609.59595,400 614.6465,400 619.697,400 624.7475,400 629.798,400 634.8485,400 639.899,400 644.9495,400 650,400 "/><text class="poloto_text" alignment-baseline="middle" text-anchor="start" font-size="large" x="675" y="250" >nosort</text><line class="poloto3stroke" stroke="black" x1="680" x2="730" y1="231.25" y2="231.25" /><polyline class="poloto3stroke" fill="none" stroke="black"  points="150,271.6695 155.0505,283.09842 160.10101,286.93094 165.15152,296.7855 170.20203,298.14667 175.25253,304.73468 180.30304,307.6116 185.35353,310.08716 190.40405,312.3271 195.45454,315.38452 200.50505,317.28333 205.55556,318.29083 210.60606,320.27597 215.65657,322.2847 220.70708,322.26556 225.75757,325.1178 230.80809,326.38617 235.8586,327.0759 240.90909,327.86063 245.9596,328.61456 251.0101,329.6377 256.0606,330.75925 261.1111,331.078 266.16162,332.54828 271.21213,332.40393 276.26263,332.523 281.31314,333.82025 286.36365,333.71167 291.41415,334.72263 296.46466,334.96533 301.51514,335.45117 306.56567,336.38696 311.61615,336.9231 316.6667,337.39963 321.71716,337.18506 326.76767,338.09625 331.81818,338.6501 336.86868,339.23877 341.9192,339.97928 346.96973,340.65604 352.0202,342.43225 357.0707,341.1648 362.12122,340.84058 367.17172,341.79984 372.22223,342.1583 377.27274,342.5786 382.32324,342.4113 387.37372,343.8398 392.42426,343.81387 397.47476,343.59576 402.52527,343.82422 407.57578,344.24026 412.62628,344.69006 417.6768,344.54382 422.7273,345.14648 427.77777,344.9693 432.8283,345.31662 437.87878,345.92487 442.92932,342.735 447.9798,346.20886 453.0303,344.39096 458.0808,346.46497 463.13132,347.25238 468.18185,346.94473 473.23233,346.7853 478.28284,347.3526 483.33334,347.4599 488.38385,348.00592 493.43436,347.71582 498.48486,347.93823 503.53534,348.1214 508.58588,348.38824 513.63635,346.8863 518.6869,348.60495 523.7374,348.9948 528.7879,348.1724 533.8384,349.12137 538.8889,348.65283 543.93945,349.32645 548.98987,349.5457 554.0404,349.56406 559.09094,349.7062 564.1414,348.3459 569.19196,349.29895 574.24243,349.8501 579.29297,350.0786 584.34344,350.48886 589.3939,350.5391 594.44446,350.53918 599.495,351.00623 604.5455,350.80472 609.59595,350.86057 614.6465,350.95126 619.697,350.99893 624.7475,350.70377 629.798,350.28964 634.8485,350.92438 639.899,350.88245 644.9495,351.18576 650,351.25375 "/><text class="poloto_text" alignment-baseline="middle" text-anchor="start" font-size="large" x="675" y="300" >nosort_par</text><line class="poloto4stroke" stroke="black" x1="680" x2="730" y1="281.25" y2="281.25" /><polyline class="poloto4stroke" fill="none" stroke="black"  points="150,351.38583 155.0505,357.11765 160.10101,359.79623 165.15152,362.83044 170.20203,361.5147 175.25253,365.3527 180.30304,366.74387 185.35353,352.79965 190.40405,368.96655 195.45454,367.09268 200.50505,360.575 205.55556,363.56503 210.60606,366.81808 215.65657,373.92532 220.70708,372.29214 225.75757,369.57852 230.80809,375.4725 235.8586,374.71173 240.90909,375.05505 245.9596,374.93436 251.0101,374.7313 256.0606,376.26593 261.1111,376.22516 266.16162,376.39734 271.21213,375.91678 276.26263,376.36234 281.31314,376.84305 286.36365,377.77692 291.41415,377.4154 296.46466,377.56052 301.51514,377.4969 306.56567,378.9221 311.61615,378.0992 316.6667,378.04645 321.71716,377.8871 326.76767,378.44284 331.81818,378.84955 336.86868,378.74933 341.9192,379.3298 346.96973,379.69272 352.0202,380.5596 357.0707,379.91284 362.12122,379.71008 367.17172,377.88257 372.22223,379.67554 377.27274,380.93243 382.32324,378.75507 387.37372,380.86435 392.42426,381.17664 397.47476,380.23428 402.52527,380.6272 407.57578,381.24442 412.62628,380.83817 417.6768,381.3412 422.7273,381.53574 427.77777,381.27112 432.8283,381.0165 437.87878,382.3581 442.92932,376.72342 447.9798,381.44955 453.0303,379.97955 458.0808,381.9097 463.13132,382.65894 468.18185,381.4582 473.23233,381.3438 478.28284,382.16595 483.33334,382.54865 488.38385,382.2985 493.43436,382.14517 498.48486,382.8324 503.53534,382.44794 508.58588,383.0861 513.63635,382.9237 518.6869,376.02304 523.7374,382.9349 528.7879,383.12534 533.8384,383.48782 538.8889,377.82922 543.93945,383.48862 548.98987,382.6673 554.0404,382.80963 559.09094,383.01358 564.1414,381.49976 569.19196,383.00568 574.24243,381.11783 579.29297,383.42325 584.34344,383.52887 589.3939,384.10226 594.44446,383.8596 599.495,384.29208 604.5455,384.05905 609.59595,384.19073 614.6465,383.7944 619.697,383.46707 624.7475,383.54886 629.798,382.0948 634.8485,382.38165 639.899,376.78668 644.9495,383.7433 650,383.812 "/><text class="poloto_text" alignment-baseline="middle" text-anchor="start" font-size="large" x="675" y="350" >sweep</text><line class="poloto5stroke" stroke="black" x1="680" x2="730" y1="331.25" y2="331.25" /><polyline class="poloto5stroke" fill="none" stroke="black"  points="150,100 155.0505,125.59808 160.10101,145.61232 165.15152,161.22377 170.20203,173.34976 175.25253,185.82509 180.30304,195.83574 185.35353,202.83174 190.40405,211.67296 195.45454,217.74106 200.50505,222.38277 205.55556,228.07964 210.60606,233.72807 215.65657,237.76662 220.70708,241.43164 225.75757,246.21289 230.80809,249.80557 235.8586,253.2629 240.90909,255.95323 245.9596,258.93573 251.0101,261.12427 256.0606,264.0835 261.1111,265.57666 266.16162,268.44922 271.21213,270.17584 276.26263,271.79248 281.31314,274.11444 286.36365,275.89178 291.41415,277.53394 296.46466,279.05475 301.51514,281.3678 306.56567,281.8723 311.61615,283.8811 316.6667,285.06018 321.71716,286.50085 326.76767,287.4867 331.81818,289.02817 336.86868,290.34695 341.9192,291.765 346.96973,292.94196 352.0202,295.57755 357.0707,295.17694 362.12122,296.16022 367.17172,297.38815 372.22223,297.74854 377.27274,298.85406 382.32324,299.8402 387.37372,300.7118 392.42426,301.26178 397.47476,302.24875 402.52527,303.22922 407.57578,303.91678 412.62628,304.6116 417.6768,305.44116 422.7273,306.353 427.77777,306.341 432.8283,307.12827 437.87878,308.0532 442.92932,308.6089 447.9798,309.25745 453.0303,308.48135 458.0808,309.62753 463.13132,310.8091 468.18185,311.44595 473.23233,310.40704 478.28284,312.4196 483.33334,312.96207 488.38385,313.41797 493.43436,314.1106 498.48486,314.68695 503.53534,315.05743 508.58588,315.2862 513.63635,315.89566 518.6869,316.48395 523.7374,317.11884 528.7879,317.08273 533.8384,317.80414 538.8889,318.0323 543.93945,318.3155 548.98987,318.75952 554.0404,319.03156 559.09094,319.7597 564.1414,318.7166 569.19196,320.15335 574.24243,320.55673 579.29297,320.8603 584.34344,321.3164 589.3939,321.63055 594.44446,322.0147 599.495,322.1083 604.5455,322.68417 609.59595,323.31555 614.6465,323.39453 619.697,323.73758 624.7475,324.01114 629.798,322.9761 634.8485,324.53253 639.899,324.97485 644.9495,325.1613 650,325.2708 "/><text class="poloto_text" alignment-baseline="start" text-anchor="middle" font-size="x-large" x="400" y="37.5" >Bench of space partitioning algs with abspiral(30_000,grow)</text><text class="poloto_text" alignment-baseline="start" text-anchor="middle" font-size="x-large" x="400" y="481.25" >Grow</text><text class="poloto_text" alignment-baseline="start" text-anchor="middle" font-size="x-large" transform="rotate(-90,37.5,250)" x="37.5" y="250" >Time in Seconds</text><path stroke="black" fill="none" class="poloto_axis_lines"  d="M 150 100 L 150 400 L 650 400 "/></svg>