<svg class="poloto" width="800" height="500" viewBox="0 0 800 500" xmlns="http://www.w3.org/2000/svg"><circle  r="1e5" class="poloto_background" /><text  class="poloto_text poloto_legend_text" x="675" y="100" >broccoli</text><line  class="poloto_scatter poloto_legend_icon poloto0stroke poloto0legend" stroke="black" x1="685" x2="685" y1="81.25" y2="81.25" /><path  class="poloto_scatter poloto0stroke" d=" M 150.00 400.00 h 0 M 155.05 399.64 h 0 M 160.10 399.24 h 0 M 165.15 398.72 h 0 M 170.20 398.11 h 0 M 175.25 397.51 h 0 M 180.30 397.53 h 0 M 185.35 396.98 h 0 M 190.40 396.34 h 0 M 195.45 395.77 h 0 M 200.51 395.26 h 0 M 205.56 394.55 h 0 M 210.61 393.96 h 0 M 215.66 393.29 h 0 M 220.71 392.58 h 0 M 225.76 391.98 h 0 M 230.81 391.19 h 0 M 235.86 390.42 h 0 M 240.91 389.70 h 0 M 245.96 389.13 h 0 M 251.01 388.26 h 0 M 256.06 390.21 h 0 M 261.11 389.60 h 0 M 266.16 389.15 h 0 M 271.21 388.66 h 0 M 276.26 387.78 h 0 M 281.31 387.35 h 0 M 286.36 386.63 h 0 M 291.41 386.03 h 0 M 296.46 385.29 h 0 M 301.52 384.87 h 0 M 306.57 384.15 h 0 M 311.62 383.51 h 0 M 316.67 382.94 h 0 M 321.72 382.19 h 0 M 326.77 381.66 h 0 M 331.82 381.04 h 0 M 336.87 380.29 h 0 M 341.92 379.68 h 0 M 346.97 378.87 h 0 M 352.02 378.14 h 0 M 357.07 377.23 h 0 M 362.12 376.80 h 0 M 367.17 376.09 h 0 M 372.22 375.33 h 0 M 377.27 374.94 h 0 M 382.32 374.03 h 0 M 387.37 373.44 h 0 M 392.42 372.55 h 0 M 397.47 371.88 h 0 M 402.53 371.37 h 0 M 407.58 370.06 h 0 M 412.63 369.73 h 0 M 417.68 369.04 h 0 M 422.73 368.04 h 0 M 427.78 367.48 h 0 M 432.83 366.66 h 0 M 437.88 365.74 h 0 M 442.93 365.10 h 0 M 447.98 364.39 h 0 M 453.03 363.75 h 0 M 458.08 362.41 h 0 M 463.13 362.13 h 0 M 468.18 361.67 h 0 M 473.23 360.82 h 0 M 478.28 359.89 h 0 M 483.33 359.40 h 0 M 488.38 358.13 h 0 M 493.43 357.45 h 0 M 498.48 356.85 h 0 M 503.54 355.70 h 0 M 508.59 354.84 h 0 M 513.64 353.91 h 0 M 518.69 353.21 h 0 M 523.74 352.49 h 0 M 528.79 351.57 h 0 M 533.84 350.30 h 0 M 538.89 350.03 h 0 M 543.94 349.10 h 0 M 548.99 348.09 h 0 M 554.04 347.55 h 0 M 559.09 346.33 h 0 M 564.14 356.68 h 0 M 569.19 356.06 h 0 M 574.24 355.57 h 0 M 579.29 354.81 h 0 M 584.34 354.16 h 0 M 589.39 354.05 h 0 M 594.44 352.92 h 0 M 599.49 353.11 h 0 M 604.55 351.69 h 0 M 609.60 350.80 h 0 M 614.65 350.02 h 0 M 619.70 349.96 h 0 M 624.75 349.28 h 0 M 629.80 348.82 h 0 M 634.85 347.68 h 0 M 639.90 347.28 h 0 M 644.95 345.89 h 0 M 650.00 345.77 h 0" /><text  class="poloto_text poloto_legend_text" x="675" y="150" >naive</text><line  class="poloto_scatter poloto_legend_icon poloto1stroke poloto1legend" stroke="black" x1="685" x2="685" y1="131.25" y2="131.25" /><path  class="poloto_scatter poloto1stroke" d=" M 150.00 400.00 h 0 M 155.05 399.25 h 0 M 160.10 397.24 h 0 M 165.15 394.06 h 0 M 170.20 389.73 h 0 M 175.25 384.25 h 0 M 180.30 377.63 h 0 M 185.35 369.88 h 0 M 190.40 361.00 h 0 M 195.45 351.06 h 0 M 200.51 339.97 h 0 M 205.56 327.77 h 0 M 210.61 314.45 h 0 M 215.66 300.02 h 0 M 220.71 284.55 h 0 M 225.76 267.95 h 0 M 230.81 250.22 h 0 M 235.86 231.36 h 0 M 240.91 211.43 h 0 M 245.96 190.47 h 0 M 251.01 168.38 h 0" /><text  class="poloto_text poloto_legend_text" x="675" y="200" >nosort</text><line  class="poloto_scatter poloto_legend_icon poloto2stroke poloto2legend" stroke="black" x1="685" x2="685" y1="181.25" y2="181.25" /><path  class="poloto_scatter poloto2stroke" d=" M 150.00 400.00 h 0 M 155.05 399.24 h 0 M 160.10 398.38 h 0 M 165.15 396.89 h 0 M 170.20 394.85 h 0 M 175.25 392.70 h 0 M 180.30 393.98 h 0 M 185.35 392.23 h 0 M 190.40 390.28 h 0 M 195.45 388.42 h 0 M 200.51 386.32 h 0 M 205.56 384.00 h 0 M 210.61 381.68 h 0 M 215.66 379.23 h 0 M 220.71 376.49 h 0 M 225.76 373.74 h 0 M 230.81 370.64 h 0 M 235.86 367.61 h 0 M 240.91 364.63 h 0 M 245.96 361.68 h 0 M 251.01 357.99 h 0 M 256.06 371.96 h 0 M 261.11 369.85 h 0 M 266.16 367.91 h 0 M 271.21 365.53 h 0 M 276.26 363.34 h 0 M 281.31 361.38 h 0 M 286.36 358.64 h 0 M 291.41 356.57 h 0 M 296.46 354.02 h 0 M 301.52 351.97 h 0 M 306.57 349.32 h 0 M 311.62 346.79 h 0 M 316.67 343.80 h 0 M 321.72 341.07 h 0 M 326.77 338.47 h 0 M 331.82 336.22 h 0 M 336.87 333.37 h 0 M 341.92 330.45 h 0 M 346.97 327.31 h 0 M 352.02 324.55 h 0 M 357.07 321.74 h 0 M 362.12 319.04 h 0 M 367.17 315.79 h 0 M 372.22 312.55 h 0 M 377.27 309.89 h 0 M 382.32 306.37 h 0 M 387.37 303.37 h 0 M 392.42 299.66 h 0 M 397.47 296.65 h 0 M 402.53 293.75 h 0 M 407.58 289.66 h 0 M 412.63 286.76 h 0 M 417.68 283.17 h 0 M 422.73 279.79 h 0 M 427.78 275.90 h 0 M 432.83 273.09 h 0 M 437.88 268.63 h 0 M 442.93 265.04 h 0 M 447.98 261.47 h 0 M 453.03 258.33 h 0 M 458.08 253.87 h 0 M 463.13 250.43 h 0 M 468.18 246.92 h 0 M 473.23 242.83 h 0 M 478.28 238.10 h 0 M 483.33 235.08 h 0 M 488.38 230.36 h 0 M 493.43 227.35 h 0 M 498.48 223.61 h 0 M 503.54 219.11 h 0 M 508.59 213.64 h 0 M 513.64 209.28 h 0 M 518.69 205.13 h 0 M 523.74 201.15 h 0 M 528.79 197.83 h 0 M 533.84 193.08 h 0 M 538.89 189.46 h 0 M 543.94 184.59 h 0 M 548.99 180.13 h 0 M 554.04 176.05 h 0 M 559.09 171.05 h 0 M 564.14 251.96 h 0 M 569.19 248.84 h 0 M 574.24 245.93 h 0 M 579.29 243.56 h 0 M 584.34 241.50 h 0 M 589.39 238.78 h 0 M 594.44 235.77 h 0 M 599.49 233.33 h 0 M 604.55 230.02 h 0 M 609.60 227.25 h 0 M 614.65 224.53 h 0 M 619.70 222.23 h 0 M 624.75 219.21 h 0 M 629.80 216.67 h 0 M 634.85 213.47 h 0 M 639.90 211.29 h 0 M 644.95 207.21 h 0 M 650.00 204.31 h 0" /><text  class="poloto_text poloto_legend_text" x="675" y="250" >sweep</text><line  class="poloto_scatter poloto_legend_icon poloto3stroke poloto3legend" stroke="black" x1="685" x2="685" y1="231.25" y2="231.25" /><path  class="poloto_scatter poloto3stroke" d=" M 150.00 400.00 h 0 M 155.05 399.66 h 0 M 160.10 399.04 h 0 M 165.15 398.27 h 0 M 170.20 397.37 h 0 M 175.25 396.35 h 0 M 180.30 395.23 h 0 M 185.35 394.03 h 0 M 190.40 392.71 h 0 M 195.45 391.34 h 0 M 200.51 389.91 h 0 M 205.56 388.37 h 0 M 210.61 386.83 h 0 M 215.66 385.14 h 0 M 220.71 383.43 h 0 M 225.76 381.72 h 0 M 230.81 379.87 h 0 M 235.86 377.97 h 0 M 240.91 376.01 h 0 M 245.96 374.06 h 0 M 251.01 371.98 h 0 M 256.06 369.88 h 0 M 261.11 367.74 h 0 M 266.16 365.50 h 0 M 271.21 363.29 h 0 M 276.26 360.98 h 0 M 281.31 358.70 h 0 M 286.36 356.31 h 0 M 291.41 353.87 h 0 M 296.46 351.49 h 0 M 301.52 348.94 h 0 M 306.57 346.29 h 0 M 311.62 343.79 h 0 M 316.67 341.13 h 0 M 321.72 338.40 h 0 M 326.77 335.79 h 0 M 331.82 332.94 h 0 M 336.87 330.27 h 0 M 341.92 327.42 h 0 M 346.97 324.60 h 0 M 352.02 321.63 h 0 M 357.07 318.60 h 0 M 362.12 315.71 h 0 M 367.17 312.64 h 0 M 372.22 309.65 h 0 M 377.27 306.65 h 0 M 382.32 303.50 h 0 M 387.37 300.41 h 0 M 392.42 297.26 h 0 M 397.47 294.00 h 0 M 402.53 290.82 h 0 M 407.58 287.37 h 0 M 412.63 284.32 h 0 M 417.68 280.88 h 0 M 422.73 277.54 h 0 M 427.78 274.20 h 0 M 432.83 270.86 h 0 M 437.88 267.39 h 0 M 442.93 263.81 h 0 M 447.98 260.41 h 0 M 453.03 256.82 h 0 M 458.08 253.21 h 0 M 463.13 249.91 h 0 M 468.18 246.19 h 0 M 473.23 242.60 h 0 M 478.28 238.94 h 0 M 483.33 235.18 h 0 M 488.38 231.45 h 0 M 493.43 227.82 h 0 M 498.48 224.11 h 0 M 503.54 220.36 h 0 M 508.59 216.34 h 0 M 513.64 212.63 h 0 M 518.69 208.92 h 0 M 523.74 204.89 h 0 M 528.79 201.02 h 0 M 533.84 197.08 h 0 M 538.89 193.24 h 0 M 543.94 189.25 h 0 M 548.99 185.22 h 0 M 554.04 181.05 h 0 M 559.09 177.05 h 0 M 564.14 172.82 h 0 M 569.19 168.95 h 0 M 574.24 164.69 h 0 M 579.29 160.54 h 0 M 584.34 156.39 h 0 M 589.39 152.24 h 0 M 594.44 148.03 h 0 M 599.49 143.63 h 0 M 604.55 139.49 h 0 M 609.60 135.07 h 0 M 614.65 130.54 h 0 M 619.70 126.48 h 0 M 624.75 122.11 h 0 M 629.80 117.65 h 0 M 634.85 113.37 h 0 M 639.90 108.86 h 0 M 644.95 104.50 h 0 M 650.00 100.00 h 0" /><text  class="poloto_labels poloto_text poloto_title" x="400" y="37.5" >Complexity of space partitioning algs with abspiral(x,1.5)</text><text  class="poloto_labels poloto_text poloto_xname" x="400" y="481.25" >Number of Elements</text><text  class="poloto_labels poloto_text poloto_yname" transform="rotate(-90,37.5,250)" x="37.5" y="250" >Number of Comparisons</text><text  class="poloto_tick_labels poloto_text" dominant-baseline="middle" text-anchor="start" x="150" y="70" ></text><line  class="poloto_axis_lines" stroke="black" x1="150" x2="144" y1="400" y2="400" /><text  class="poloto_tick_labels poloto_text" dominant-baseline="middle" text-anchor="end" x="135" y="400" >0</text><line  class="poloto_axis_lines" stroke="black" x1="150" x2="144" y1="329.6173648037556" y2="329.6173648037556" /><text  class="poloto_tick_labels poloto_text" dominant-baseline="middle" text-anchor="end" x="135" y="329.6173648037556" >1e6</text><line  class="poloto_axis_lines" stroke="black" x1="150" x2="144" y1="259.2347296075112" y2="259.2347296075112" /><text  class="poloto_tick_labels poloto_text" dominant-baseline="middle" text-anchor="end" x="135" y="259.2347296075112" >2.0e6</text><line  class="poloto_axis_lines" stroke="black" x1="150" x2="144" y1="188.85209441126688" y2="188.85209441126688" /><text  class="poloto_tick_labels poloto_text" dominant-baseline="middle" text-anchor="end" x="135" y="188.85209441126688" >3.0e6</text><line  class="poloto_axis_lines" stroke="black" x1="150" x2="144" y1="118.46945921502248" y2="118.46945921502248" /><text  class="poloto_tick_labels poloto_text" dominant-baseline="middle" text-anchor="end" x="135" y="118.46945921502248" >4.0e6</text><text  class="poloto_tick_labels poloto_text" dominant-baseline="middle" text-anchor="start" x="440.00000000000006" y="70" ></text><line  class="poloto_axis_lines" stroke="black" x1="150" x2="150" y1="400" y2="405" /><text  class="poloto_tick_labels poloto_text" dominant-baseline="start" text-anchor="middle" x="150" y="430" >0</text><line  class="poloto_axis_lines" stroke="black" x1="251.010101010101" x2="251.010101010101" y1="400" y2="405" /><text  class="poloto_tick_labels poloto_text" dominant-baseline="start" text-anchor="middle" x="251.010101010101" y="430" >2000</text><line  class="poloto_axis_lines" stroke="black" x1="352.020202020202" x2="352.020202020202" y1="400" y2="405" /><text  class="poloto_tick_labels poloto_text" dominant-baseline="start" text-anchor="middle" x="352.020202020202" y="430" >4000</text><line  class="poloto_axis_lines" stroke="black" x1="453.030303030303" x2="453.030303030303" y1="400" y2="405" /><text  class="poloto_tick_labels poloto_text" dominant-baseline="start" text-anchor="middle" x="453.030303030303" y="430" >6000</text><line  class="poloto_axis_lines" stroke="black" x1="554.040404040404" x2="554.040404040404" y1="400" y2="405" /><text  class="poloto_tick_labels poloto_text" dominant-baseline="start" text-anchor="middle" x="554.040404040404" y="430" >8000</text><path  stroke="black" fill="none" class="poloto_axis_lines" style="stroke-dasharray:12.626262626262626;stroke-dashoffset:-0;" d=" M 150 400 L 650 400" /><path  stroke="black" fill="none" class="poloto_axis_lines" style="stroke-dasharray:7.038263519624438;stroke-dashoffset:-0;" d=" M 150 400 L 150 100" /></svg>