<svg class="poloto" width="800" height="500" viewBox="0 0 800 500" xmlns="http://www.w3.org/2000/svg"><circle  r="1e5" class="poloto_background" /><text  class="poloto_text poloto_legend_text" x="675" y="100" >broccoli</text><line  class="poloto_scatter poloto_legend_icon poloto0stroke poloto0legend" stroke="black" x1="685" x2="685" y1="81.25" y2="81.25" /><path  class="poloto_scatter poloto0stroke" d=" M 150.00 400.00 h 0 M 155.05 399.59 h 0 M 160.10 399.15 h 0 M 165.15 398.51 h 0 M 170.20 397.82 h 0 M 175.25 397.18 h 0 M 180.30 397.13 h 0 M 185.35 396.47 h 0 M 190.40 395.83 h 0 M 195.45 395.19 h 0 M 200.51 394.62 h 0 M 205.56 393.69 h 0 M 210.61 392.99 h 0 M 215.66 392.22 h 0 M 220.71 391.42 h 0 M 225.76 390.68 h 0 M 230.81 390.03 h 0 M 235.86 389.15 h 0 M 240.91 388.41 h 0 M 245.96 387.86 h 0 M 251.01 386.82 h 0 M 256.06 388.33 h 0 M 261.11 387.58 h 0 M 266.16 387.12 h 0 M 271.21 386.42 h 0 M 276.26 385.68 h 0 M 281.31 385.07 h 0 M 286.36 384.05 h 0 M 291.41 383.59 h 0 M 296.46 382.98 h 0 M 301.52 382.04 h 0 M 306.57 381.37 h 0 M 311.62 380.72 h 0 M 316.67 380.00 h 0 M 321.72 379.31 h 0 M 326.77 378.74 h 0 M 331.82 378.02 h 0 M 336.87 377.05 h 0 M 341.92 376.24 h 0 M 346.97 375.62 h 0 M 352.02 374.82 h 0 M 357.07 373.36 h 0 M 362.12 372.82 h 0 M 367.17 371.99 h 0 M 372.22 371.15 h 0 M 377.27 371.03 h 0 M 382.32 369.82 h 0 M 387.37 368.95 h 0 M 392.42 368.33 h 0 M 397.47 367.43 h 0 M 402.53 366.68 h 0 M 407.58 365.30 h 0 M 412.63 364.84 h 0 M 417.68 364.45 h 0 M 422.73 363.27 h 0 M 427.78 362.29 h 0 M 432.83 361.55 h 0 M 437.88 360.63 h 0 M 442.93 359.85 h 0 M 447.98 358.96 h 0 M 453.03 358.38 h 0 M 458.08 356.85 h 0 M 463.13 356.17 h 0 M 468.18 355.79 h 0 M 473.23 355.13 h 0 M 478.28 353.72 h 0 M 483.33 353.60 h 0 M 488.38 352.39 h 0 M 493.43 351.50 h 0 M 498.48 350.40 h 0 M 503.54 349.68 h 0 M 508.59 348.55 h 0 M 513.64 347.84 h 0 M 518.69 346.65 h 0 M 523.74 345.88 h 0 M 528.79 345.19 h 0 M 533.84 343.90 h 0 M 538.89 343.27 h 0 M 543.94 342.71 h 0 M 548.99 341.63 h 0 M 554.04 340.80 h 0 M 559.09 339.60 h 0 M 564.14 348.23 h 0 M 569.19 347.08 h 0 M 574.24 346.42 h 0 M 579.29 346.00 h 0 M 584.34 344.83 h 0 M 589.39 344.58 h 0 M 594.44 343.29 h 0 M 599.49 343.65 h 0 M 604.55 342.24 h 0 M 609.60 341.52 h 0 M 614.65 339.74 h 0 M 619.70 339.69 h 0 M 624.75 339.60 h 0 M 629.80 338.78 h 0 M 634.85 337.53 h 0 M 639.90 336.85 h 0 M 644.95 335.63 h 0 M 650.00 335.37 h 0" /><text  class="poloto_text poloto_legend_text" x="675" y="150" >naive</text><line  class="poloto_scatter poloto_legend_icon poloto1stroke poloto1legend" stroke="black" x1="685" x2="685" y1="131.25" y2="131.25" /><path  class="poloto_scatter poloto1stroke" d=" M 150.00 400.00 h 0 M 155.05 399.12 h 0 M 160.10 396.70 h 0 M 165.15 392.82 h 0 M 170.20 387.54 h 0 M 175.25 380.81 h 0 M 180.30 372.66 h 0 M 185.35 363.10 h 0 M 190.40 352.14 h 0 M 195.45 339.83 h 0 M 200.51 326.09 h 0 M 205.56 310.94 h 0 M 210.61 294.39 h 0 M 215.66 276.46 h 0 M 220.71 257.22 h 0 M 225.76 236.56 h 0 M 230.81 214.49 h 0 M 235.86 191.01 h 0 M 240.91 166.18 h 0 M 245.96 140.06 h 0 M 251.01 112.52 h 0" /><text  class="poloto_text poloto_legend_text" x="675" y="200" >nosort</text><line  class="poloto_scatter poloto_legend_icon poloto2stroke poloto2legend" stroke="black" x1="685" x2="685" y1="181.25" y2="181.25" /><path  class="poloto_scatter poloto2stroke" d=" M 150.00 400.00 h 0 M 155.05 399.28 h 0 M 160.10 398.17 h 0 M 165.15 397.20 h 0 M 170.20 395.52 h 0 M 175.25 393.62 h 0 M 180.30 393.07 h 0 M 185.35 391.32 h 0 M 190.40 389.18 h 0 M 195.45 386.89 h 0 M 200.51 384.84 h 0 M 205.56 385.86 h 0 M 210.61 384.12 h 0 M 215.66 381.80 h 0 M 220.71 379.46 h 0 M 225.76 377.17 h 0 M 230.81 374.92 h 0 M 235.86 372.20 h 0 M 240.91 369.67 h 0 M 245.96 367.65 h 0 M 251.01 364.30 h 0 M 256.06 368.26 h 0 M 261.11 366.11 h 0 M 266.16 364.38 h 0 M 271.21 361.38 h 0 M 276.26 358.63 h 0 M 281.31 356.29 h 0 M 286.36 353.51 h 0 M 291.41 352.06 h 0 M 296.46 349.07 h 0 M 301.52 345.77 h 0 M 306.57 342.91 h 0 M 311.62 340.44 h 0 M 316.67 337.82 h 0 M 321.72 335.55 h 0 M 326.77 331.84 h 0 M 331.82 328.86 h 0 M 336.87 325.16 h 0 M 341.92 322.64 h 0 M 346.97 320.27 h 0 M 352.02 316.27 h 0 M 357.07 330.08 h 0 M 362.12 328.41 h 0 M 367.17 325.85 h 0 M 372.22 324.28 h 0 M 377.27 321.32 h 0 M 382.32 318.79 h 0 M 387.37 316.08 h 0 M 392.42 314.49 h 0 M 397.47 310.18 h 0 M 402.53 307.94 h 0 M 407.58 304.32 h 0 M 412.63 302.11 h 0 M 417.68 299.34 h 0 M 422.73 296.52 h 0 M 427.78 292.99 h 0 M 432.83 290.45 h 0 M 437.88 287.21 h 0 M 442.93 284.11 h 0 M 447.98 282.16 h 0 M 453.03 279.00 h 0 M 458.08 275.78 h 0 M 463.13 272.14 h 0 M 468.18 268.81 h 0 M 473.23 266.92 h 0 M 478.28 262.09 h 0 M 483.33 260.13 h 0 M 488.38 256.49 h 0 M 493.43 253.93 h 0 M 498.48 250.07 h 0 M 503.54 246.84 h 0 M 508.59 242.64 h 0 M 513.64 240.54 h 0 M 518.69 235.92 h 0 M 523.74 232.28 h 0 M 528.79 229.44 h 0 M 533.84 226.10 h 0 M 538.89 223.19 h 0 M 543.94 220.00 h 0 M 548.99 216.40 h 0 M 554.04 212.80 h 0 M 559.09 206.65 h 0 M 564.14 237.43 h 0 M 569.19 234.80 h 0 M 574.24 232.82 h 0 M 579.29 229.31 h 0 M 584.34 225.70 h 0 M 589.39 223.38 h 0 M 594.44 220.90 h 0 M 599.49 217.44 h 0 M 604.55 213.78 h 0 M 609.60 210.38 h 0 M 614.65 207.45 h 0 M 619.70 204.06 h 0 M 624.75 201.78 h 0 M 629.80 198.88 h 0 M 634.85 195.49 h 0 M 639.90 192.54 h 0 M 644.95 189.07 h 0 M 650.00 186.22 h 0" /><text  class="poloto_text poloto_legend_text" x="675" y="250" >sweep</text><line  class="poloto_scatter poloto_legend_icon poloto3stroke poloto3legend" stroke="black" x1="685" x2="685" y1="231.25" y2="231.25" /><path  class="poloto_scatter poloto3stroke" d=" M 150.00 400.00 h 0 M 155.05 399.65 h 0 M 160.10 399.03 h 0 M 165.15 398.24 h 0 M 170.20 397.33 h 0 M 175.25 396.31 h 0 M 180.30 395.18 h 0 M 185.35 393.99 h 0 M 190.40 392.66 h 0 M 195.45 391.28 h 0 M 200.51 389.85 h 0 M 205.56 388.29 h 0 M 210.61 386.74 h 0 M 215.66 385.04 h 0 M 220.71 383.32 h 0 M 225.76 381.62 h 0 M 230.81 379.77 h 0 M 235.86 377.87 h 0 M 240.91 375.92 h 0 M 245.96 373.96 h 0 M 251.01 371.87 h 0 M 256.06 369.77 h 0 M 261.11 367.62 h 0 M 266.16 365.36 h 0 M 271.21 363.15 h 0 M 276.26 360.84 h 0 M 281.31 358.57 h 0 M 286.36 356.16 h 0 M 291.41 353.73 h 0 M 296.46 351.35 h 0 M 301.52 348.77 h 0 M 306.57 346.11 h 0 M 311.62 343.62 h 0 M 316.67 340.95 h 0 M 321.72 338.21 h 0 M 326.77 335.61 h 0 M 331.82 332.72 h 0 M 336.87 330.10 h 0 M 341.92 327.24 h 0 M 346.97 324.42 h 0 M 352.02 321.43 h 0 M 357.07 318.36 h 0 M 362.12 315.49 h 0 M 367.17 312.39 h 0 M 372.22 309.43 h 0 M 377.27 306.43 h 0 M 382.32 303.28 h 0 M 387.37 300.18 h 0 M 392.42 297.01 h 0 M 397.47 293.73 h 0 M 402.53 290.59 h 0 M 407.58 287.09 h 0 M 412.63 284.10 h 0 M 417.68 280.65 h 0 M 422.73 277.33 h 0 M 427.78 273.98 h 0 M 432.83 270.66 h 0 M 437.88 267.16 h 0 M 442.93 263.53 h 0 M 447.98 260.15 h 0 M 453.03 256.52 h 0 M 458.08 252.91 h 0 M 463.13 249.68 h 0 M 468.18 245.92 h 0 M 473.23 242.34 h 0 M 478.28 238.67 h 0 M 483.33 234.89 h 0 M 488.38 231.17 h 0 M 493.43 227.56 h 0 M 498.48 223.87 h 0 M 503.54 220.13 h 0 M 508.59 216.06 h 0 M 513.64 212.39 h 0 M 518.69 208.72 h 0 M 523.74 204.65 h 0 M 528.79 200.79 h 0 M 533.84 196.87 h 0 M 538.89 193.05 h 0 M 543.94 189.05 h 0 M 548.99 185.06 h 0 M 554.04 180.83 h 0 M 559.09 176.83 h 0 M 564.14 172.60 h 0 M 569.19 168.79 h 0 M 574.24 164.51 h 0 M 579.29 160.37 h 0 M 584.34 156.23 h 0 M 589.39 152.12 h 0 M 594.44 147.92 h 0 M 599.49 143.52 h 0 M 604.55 139.42 h 0 M 609.60 134.97 h 0 M 614.65 130.39 h 0 M 619.70 126.41 h 0 M 624.75 122.06 h 0 M 629.80 117.58 h 0 M 634.85 113.34 h 0 M 639.90 108.81 h 0 M 644.95 104.48 h 0 M 650.00 100.00 h 0" /><text  class="poloto_labels poloto_text poloto_title" x="400" y="37.5" >Complexity of space partitioning algs with abspiral(x,1.5)</text><text  class="poloto_labels poloto_text poloto_xname" x="400" y="481.25" >Number of Elements</text><text  class="poloto_labels poloto_text poloto_yname" transform="rotate(-90,37.5,250)" x="37.5" y="250" >Number of Comparisons</text><text  class="poloto_tick_labels poloto_text" dominant-baseline="middle" text-anchor="start" x="150" y="70" ></text><line  class="poloto_axis_lines" stroke="black" x1="150" x2="144" y1="400" y2="400" /><text  class="poloto_tick_labels poloto_text" dominant-baseline="middle" text-anchor="end" x="135" y="400" >0</text><line  class="poloto_axis_lines" stroke="black" x1="150" x2="144" y1="355.4201781944637" y2="355.4201781944637" /><text  class="poloto_tick_labels poloto_text" dominant-baseline="middle" text-anchor="end" x="135" y="355.4201781944637" >5e5</text><line  class="poloto_axis_lines" stroke="black" x1="150" x2="144" y1="310.84035638892743" y2="310.84035638892743" /><text  class="poloto_tick_labels poloto_text" dominant-baseline="middle" text-anchor="end" x="135" y="310.84035638892743" >1e6</text><line  class="poloto_axis_lines" stroke="black" x1="150" x2="144" y1="266.2605345833912" y2="266.2605345833912" /><text  class="poloto_tick_labels poloto_text" dominant-baseline="middle" text-anchor="end" x="135" y="266.2605345833912" >1.5e6</text><line  class="poloto_axis_lines" stroke="black" x1="150" x2="144" y1="221.68071277785486" y2="221.68071277785486" /><text  class="poloto_tick_labels poloto_text" dominant-baseline="middle" text-anchor="end" x="135" y="221.68071277785486" >2.0e6</text><line  class="poloto_axis_lines" stroke="black" x1="150" x2="144" y1="177.10089097231855" y2="177.10089097231855" /><text  class="poloto_tick_labels poloto_text" dominant-baseline="middle" text-anchor="end" x="135" y="177.10089097231855" >2.5e6</text><line  class="poloto_axis_lines" stroke="black" x1="150" x2="144" y1="132.5210691667823" y2="132.5210691667823" /><text  class="poloto_tick_labels poloto_text" dominant-baseline="middle" text-anchor="end" x="135" y="132.5210691667823" >3.0e6</text><text  class="poloto_tick_labels poloto_text" dominant-baseline="middle" text-anchor="start" x="440.00000000000006" y="70" ></text><line  class="poloto_axis_lines" stroke="black" x1="150" x2="150" y1="400" y2="405" /><text  class="poloto_tick_labels poloto_text" dominant-baseline="start" text-anchor="middle" x="150" y="430" >0</text><line  class="poloto_axis_lines" stroke="black" x1="251.010101010101" x2="251.010101010101" y1="400" y2="405" /><text  class="poloto_tick_labels poloto_text" dominant-baseline="start" text-anchor="middle" x="251.010101010101" y="430" >2000</text><line  class="poloto_axis_lines" stroke="black" x1="352.020202020202" x2="352.020202020202" y1="400" y2="405" /><text  class="poloto_tick_labels poloto_text" dominant-baseline="start" text-anchor="middle" x="352.020202020202" y="430" >4000</text><line  class="poloto_axis_lines" stroke="black" x1="453.030303030303" x2="453.030303030303" y1="400" y2="405" /><text  class="poloto_tick_labels poloto_text" dominant-baseline="start" text-anchor="middle" x="453.030303030303" y="430" >6000</text><line  class="poloto_axis_lines" stroke="black" x1="554.040404040404" x2="554.040404040404" y1="400" y2="405" /><text  class="poloto_tick_labels poloto_text" dominant-baseline="start" text-anchor="middle" x="554.040404040404" y="430" >8000</text><path  stroke="black" fill="none" class="poloto_axis_lines" style="stroke-dasharray:12.626262626262626;stroke-dashoffset:-0;" d=" M 150 400 L 650 400" /><path  stroke="black" fill="none" class="poloto_axis_lines" style="stroke-dasharray:4.457982180553628;stroke-dashoffset:-0;" d=" M 150 400 L 150 100" /></svg>