<svg  width="800" class="poloto_background poloto" height="500" viewBox="0 0 800 500" xmlns="http://www.w3.org/2000/svg" ><text  class="poloto_text" alignment-baseline="middle" text-anchor="start" font-size="large" x="675" y="100" >brocc</text><line  class="poloto0stroke poloto0legend" stroke="black" x1="680" x2="730" y1="81.25" y2="81.25" /><path  class="poloto0stroke" fill="none" stroke="black" d=" M 150 399.93356671594154 L 155.05050505050505 399.2681453807449 L 160.1010101010101 398.16648349526156 L 165.15151515151516 396.7272478291555 L 170.2020202020202 395.8322243562959 L 175.25252525252526 394.65345491701106 L 180.3030303030303 393.2803014076693 L 185.35353535353534 391.63990491472873 L 190.40404040404042 390.8634220163836 L 195.45454545454544 389.6033314957672 L 200.50505050505052 388.15092855612943 L 205.55555555555554 386.32878857572234 L 210.6060606060606 385.3989332752803 L 215.65656565656565 383.9033416784587 L 220.7070707070707 382.81295097911845 L 225.75757575757575 381.0534872207221 L 230.8080808080808 380.3919282857614 L 235.85858585858585 379.18240009550664 L 240.9090909090909 376.75200230339505 L 245.95959595959596 376.24213035951925 L 251.010101010101 374.75563295961683 L 256.06060606060606 372.3253756184229 L 261.1111111111111 371.7734035119752 L 266.16161616161617 370.5284114650084 L 271.2121212121212 369.6005575901431 L 276.26262626262627 367.6247643058038 L 281.3131313131313 367.43375105777096 L 286.3636363636364 366.32583910645127 L 291.4141414141414 365.7860862298409 L 296.4646464646464 363.4120794811743 L 301.5151515151515 361.80662015400446 L 306.5656565656566 358.0269806212846 L 311.6161616161616 360.1400646776476 L 316.66666666666663 358.8202825170209 L 321.7171717171717 358.1501911888117 L 326.7676767676768 356.9958602092016 L 331.8181818181818 355.32157993237286 L 336.86868686868684 352.7200778098084 L 341.9191919191919 346.66025274142635 L 346.969696969697 350.7670726868612 L 352.020202020202 350.06562569128187 L 357.07070707070704 341.8953500212432 L 362.1212121212121 345.903503197014 L 367.1717171717172 344.29042440756047 L 372.22222222222223 342.80873745158834 L 377.27272727272725 341.586814467849 L 382.32323232323233 339.65080390594005 L 387.37373737373736 339.3942000793548 L 392.4242424242424 336.9930160781188 L 397.47474747474746 336.0275915827765 L 402.52525252525254 335.6520609416532 L 407.57575757575756 334.0390523776585 L 412.62626262626264 332.68124313107234 L 417.67676767676767 330.72230395685347 L 422.72727272727275 329.399431876038 L 427.77777777777777 328.72776047500497 L 432.8282828282828 327.4565041064337 L 437.8787878787879 326.92075408097696 L 442.9292929292929 324.60605273229703 L 447.979797979798 322.87232660456397 L 453.030303030303 321.20980909209015 L 458.0808080808081 320.0125001316727 L 463.1313131313131 319.89884022654735 L 468.1818181818182 319.04833969458946 L 473.2323232323232 317.5837877505732 L 478.2828282828283 316.1596505581168 L 483.3333333333333 314.0627183572861 L 488.3838383838384 312.8728181827758 L 493.4343434343434 312.79834408368066 L 498.4848484848485 309.4945171473014 L 503.5353535353535 311.25359466567414 L 508.5858585858586 308.77614581614273 L 513.6363636363636 306.0464822312033 L 518.6868686868687 306.40410538032353 L 523.7373737373737 304.64123568717366 L 528.7878787878788 302.40034129572996 L 533.8383838383838 303.9013753656113 L 538.8888888888889 301.86683848495596 L 543.939393939394 300.752606242341 L 548.989898989899 299.1269922084854 L 554.040404040404 298.4147656049748 L 559.090909090909 293.8080106180894 L 564.1414141414141 286.9339915799675 L 569.1919191919192 283.2242263787891 L 574.2424242424242 284.0665456447926 L 579.2929292929293 282.9791746401823 L 584.3434343434344 283.0435362732051 L 589.3939393939394 281.1111774351556 L 594.4444444444445 280.16724193021696 L 599.4949494949494 277.76142304869785 L 604.5454545454545 276.94178660589824 L 609.5959595959596 271.2970642246934 L 614.6464646464647 270.5203706499717 L 619.6969696969697 270.2986337636984 L 624.7474747474747 268.6407862442371 L 629.7979797979798 266.4069846241358 L 634.8484848484848 265.7778698511571 L 639.8989898989898 266.6664676945333 L 644.9494949494949 266.19476328753467 L 650 262.44535581484354" /><text  class="poloto_text" alignment-baseline="middle" text-anchor="start" font-size="large" x="675" y="150" >brocc_par</text><line  class="poloto1stroke poloto1legend" stroke="black" x1="680" x2="730" y1="131.25" y2="131.25" /><path  class="poloto1stroke" fill="none" stroke="black" d=" M 150 399.9423097855666 L 155.05050505050505 399.2147740320298 L 160.1010101010101 398.1620241786255 L 165.15151515151516 396.9349747363912 L 170.2020202020202 395.8694438494787 L 175.25252525252526 394.79818958767123 L 180.3030303030303 392.8756974265881 L 185.35353535353534 392.0026896350734 L 190.40404040404042 390.7071703704744 L 195.45454545454544 389.5098965227864 L 200.50505050505052 387.9071057630523 L 205.55555555555554 386.5332851118516 L 210.6060606060606 385.47035256691606 L 215.65656565656565 384.0021488990404 L 220.7070707070707 382.9174113491364 L 225.75757575757575 379.62088786047605 L 230.8080808080808 380.5852589739358 L 235.85858585858585 379.1411777511701 L 240.9090909090909 377.357275533099 L 245.95959595959596 376.42208309778545 L 251.010101010101 374.89597853909976 L 256.06060606060606 366.50835507396494 L 261.1111111111111 376.1095798059671 L 266.16161616161617 375.32891849282123 L 271.2121212121212 375.0985789878405 L 276.26262626262627 373.8838541136318 L 281.3131313131313 371.9625908980783 L 286.3636363636364 372.0872410875115 L 291.4141414141414 370.98126033630973 L 296.4646464646464 370.94288212305605 L 301.5151515151515 369.3615803537256 L 306.5656565656566 365.9305399986657 L 311.6161616161616 367.18258970424546 L 316.66666666666663 367.4914412722044 L 321.7171717171717 366.19578155668773 L 326.7676767676768 363.8414028237657 L 331.8181818181818 362.2599606035176 L 336.86868686868684 352.3134372904209 L 341.9191919191919 361.0580518755464 L 346.969696969697 357.57213032440654 L 352.020202020202 355.5119260385468 L 357.07070707070704 356.83174331190287 L 362.1212121212121 355.4196848983662 L 367.1717171717172 355.4785338328704 L 372.22222222222223 354.36981428877414 L 377.27272727272725 354.39333981748405 L 382.32323232323233 350.7941797139717 L 387.37373737373736 350.7296425173018 L 392.4242424242424 352.2968991948651 L 397.47474747474746 351.41549946101964 L 402.52525252525254 345.66891505177375 L 407.57575757575756 349.13942211469924 L 412.62626262626264 348.06269026710254 L 417.67676767676767 349.9005958630182 L 422.72727272727275 349.0075035902766 L 427.77777777777777 347.75893004490916 L 432.8282828282828 344.4203415064063 L 437.8787878787879 341.8892404063245 L 442.9292929292929 341.64604964237685 L 447.979797979798 344.66725421967226 L 453.030303030303 338.5477726240094 L 458.0808080808081 332.03671386987924 L 463.1313131313131 343.18935943847725 L 468.1818181818182 338.4742465686085 L 473.2323232323232 340.8639838200543 L 478.2828282828283 340.3403476862467 L 483.3333333333333 341.05053775145103 L 488.3838383838384 337.6074537302008 L 493.4343434343434 339.5310343858959 L 498.4848484848485 340.21299381664835 L 503.5353535353535 333.4073392627029 L 508.5858585858586 341.1394080696075 L 513.6363636363636 339.4977826311373 L 518.6868686868687 334.1605073087146 L 523.7373737373737 332.84964378136004 L 528.7878787878788 347.9453786381177 L 533.8383838383838 348.14137789372785 L 538.8888888888889 349.69304451942963 L 543.939393939394 347.91033613415874 L 548.989898989899 348.516311618451 L 554.040404040404 328.4134664339863 L 559.090909090909 329.7634104291829 L 564.1414141414141 333.9708634571291 L 569.1919191919192 332.4018511430949 L 574.2424242424242 331.95637594497134 L 579.2929292929293 331.8101665396756 L 584.3434343434344 331.06089600662926 L 589.3939393939394 341.9727033641506 L 594.4444444444445 336.69715622004446 L 599.4949494949494 338.6363269276011 L 604.5454545454545 337.2848028595807 L 609.5959595959596 332.160064888324 L 614.6464646464647 338.73207934072343 L 619.6969696969697 334.29649890974974 L 624.7474747474747 333.8857853137498 L 629.7979797979798 335.15834085330954 L 634.8484848484848 335.4782880437645 L 639.8989898989898 331.85475970603625 L 644.9494949494949 332.7037855033585 L 650 332.274532386226" /><text  class="poloto_text" alignment-baseline="middle" text-anchor="start" font-size="large" x="675" y="200" >naive</text><line  class="poloto2stroke poloto2legend" stroke="black" x1="680" x2="730" y1="181.25" y2="181.25" /><path  class="poloto2stroke" fill="none" stroke="black" d=" M 150 400 L 155.05050505050505 399.2175479376538 L 160.1010101010101 397.6692521339761 L 165.15151515151516 395.7772027092982 L 170.2020202020202 392.71368729305436 L 175.25252525252526 390.06934764060014 L 180.3030303030303 387.88947917288453 L 185.35353535353534 385.845005389804 L 190.40404040404042 380.5222316246309 L 195.45454545454544 378.27431468730356 L 200.50505050505052 374.92136504246884 L 205.55555555555554 370.85151880111096 L 210.6060606060606 366.35266523172646 L 215.65656565656565 360.3883116746314 L 220.7070707070707 357.83737188242856 L 225.75757575757575 352.05549918011775 L 230.8080808080808 346.8356408248682 L 235.85858585858585 339.9639743396173 L 240.9090909090909 335.45251530037183 L 245.95959595959596 328.63155159640024 L 251.010101010101 321.8316906428087 L 256.06060606060606 315.5090467947345 L 261.1111111111111 308.9684933478934 L 266.16161616161617 300.9815763508745 L 271.2121212121212 292.7048388852411 L 276.26262626262627 285.35230357061346 L 281.3131313131313 277.0385924009031 L 286.3636363636364 267.84032135169963 L 291.4141414141414 259.86495644265915 L 296.4646464646464 251.83144485370283 L 301.5151515151515 241.77164787550433" /><text  class="poloto_text" alignment-baseline="middle" text-anchor="start" font-size="large" x="675" y="250" >nosort</text><line  class="poloto3stroke poloto3legend" stroke="black" x1="680" x2="730" y1="231.25" y2="231.25" /><path  class="poloto3stroke" fill="none" stroke="black" d=" M 150 399.9761233439959 L 155.05050505050505 399.1618240360678 L 160.1010101010101 397.77841760973604 L 165.15151515151516 395.88675442508173 L 170.2020202020202 393.47370232130254 L 175.25252525252526 391.0610715702764 L 180.3030303030303 389.3566294588777 L 185.35353535353534 386.83904675962174 L 190.40404040404042 384.48888155422986 L 195.45454545454544 381.7759667412227 L 200.50505050505052 378.93741858235865 L 205.55555555555554 376.61306123308884 L 210.6060606060606 373.7674203028824 L 215.65656565656565 371.3152877312612 L 220.7070707070707 371.0835788298332 L 225.75757575757575 365.04843801023185 L 230.8080808080808 363.2494022057817 L 235.85858585858585 357.2851890996043 L 240.9090909090909 355.0173281319677 L 245.95959595959596 355.25254830633753 L 251.010101010101 351.08898619016355 L 256.06060606060606 351.7282836546733 L 261.1111111111111 350.411556301506 L 266.16161616161617 347.0715983665558 L 271.2121212121212 343.04929476082964 L 276.26262626262627 336.0397756998845 L 281.3131313131313 332.8832817761423 L 286.3636363636364 334.8340747971362 L 291.4141414141414 330.97058606656674 L 296.4646464646464 326.9249324957777 L 301.5151515151515 326.5203285146964 L 306.5656565656566 322.9611969227204 L 311.6161616161616 315.9344375116311 L 316.66666666666663 314.5607924240775 L 321.7171717171717 311.00738420699656 L 326.7676767676768 303.269346236091 L 331.8181818181818 307.55664561073326 L 336.86868686868684 291.8117466124994 L 341.9191919191919 304.2239560107726 L 346.969696969697 296.6811799281594 L 352.020202020202 290.6408424246042 L 357.07070707070704 292.5631590220403 L 362.1212121212121 289.6774544675681 L 367.1717171717172 284.3300666790732 L 372.22222222222223 275.33074435475095 L 377.27272727272725 276.9414705913335 L 382.32323232323233 276.95955364698364 L 387.37373737373736 266.0650217523359 L 392.4242424242424 265.160482729804 L 397.47474747474746 264.7647271565361 L 402.52525252525254 258.3264219777596 L 407.57575757575756 259.29644624065565 L 412.62626262626264 251.46047886740382 L 417.67676767676767 252.71470556220748 L 422.72727272727275 247.79674645449217 L 427.77777777777777 243.34568130984528 L 432.8282828282828 244.74597695902696 L 437.8787878787879 233.72265157287472 L 442.9292929292929 237.26022394898825 L 447.979797979798 231.78291906164745 L 453.030303030303 227.25804695976433 L 458.0808080808081 217.12605820988284 L 463.1313131313131 212.44496957482 L 468.1818181818182 222.09844204819575 L 473.2323232323232 209.37878559114037 L 478.2828282828283 213.17373427388634 L 483.3333333333333 204.08417223496033 L 488.3838383838384 199.6162529801929 L 493.4343434343434 202.3025523443014 L 498.4848484848485 196.63714856546946 L 503.5353535353535 199.802245107919 L 508.5858585858586 194.09793642489214 L 513.6363636363636 184.57599623591543 L 518.6868686868687 185.69121163495404 L 523.7373737373737 174.1357177217457 L 528.7878787878788 177.24403698072663 L 533.8383838383838 175.3296909728684 L 538.8888888888889 175.49538794299102 L 543.939393939394 168.1038774987096 L 548.989898989899 164.81054926842629 L 554.040404040404 161.77582629030505 L 559.090909090909 143.8003560430763 L 564.1414141414141 160.87845026457444 L 569.1919191919192 154.19270568159075 L 574.2424242424242 146.413304915431 L 579.2929292929293 139.54272692479208 L 584.3434343434344 140.10442525728854 L 589.3939393939394 137.98674143337183 L 594.4444444444445 134.40717423287464 L 599.4949494949494 125.94419885040924 L 604.5454545454545 129.69602910143016 L 609.5959595959596 119.07298883064072 L 614.6464646464647 123.6748280354077 L 619.6969696969697 115.33544946049295 L 624.7474747474747 113.4976843154949 L 629.7979797979798 116.75523267450149 L 634.8484848484848 110.25505886649086 L 639.8989898989898 100.77293651267394 L 644.9494949494949 100.48157108396504 L 650 100" /><text  class="poloto_text" alignment-baseline="middle" text-anchor="start" font-size="large" x="675" y="300" >nosort_par</text><line  class="poloto4stroke poloto4legend" stroke="black" x1="680" x2="730" y1="281.25" y2="281.25" /><path  class="poloto4stroke" fill="none" stroke="black" d=" M 150 399.98335656625596 L 155.05050505050505 399.030397089857 L 160.1010101010101 397.7743445331236 L 165.15151515151516 396.0650217523359 L 170.2020202020202 393.57236909096656 L 175.25252525252526 391.85781451349555 L 180.3030303030303 389.7766830409028 L 185.35353535353534 387.8244855107322 L 190.40404040404042 385.4378030667458 L 195.45454545454544 383.1259809618781 L 200.50505050505052 380.60365804415073 L 205.55555555555554 378.13375843144416 L 210.6060606060606 376.3050523706359 L 215.65656565656565 372.6086300066363 L 220.7070707070707 368.6176820682802 L 225.75757575757575 367.86876266252807 L 230.8080808080808 365.9637215279655 L 235.85858585858585 362.17604118020904 L 240.9090909090909 359.8379898664663 L 245.95959595959596 355.8616839362774 L 251.010101010101 352.15472775345245 L 256.06060606060606 357.5357886494591 L 261.1111111111111 355.2687352745991 L 266.16161616161617 359.16730162185695 L 271.2121212121212 352.7037503906291 L 276.26262626262627 350.935227548043 L 281.3131313131313 349.2219019161017 L 286.3636363636364 351.26711306650003 L 291.4141414141414 345.1631161845104 L 296.4646464646464 344.88755148403953 L 301.5151515151515 342.61147413771914 L 306.5656565656566 343.1584602365896 L 311.6161616161616 334.226343676373 L 316.66666666666663 339.03281986818683 L 321.7171717171717 337.4063280160957 L 326.7676767676768 333.291958833836 L 331.8181818181818 330.07433364817746 L 336.86868686868684 247.67381678880045 L 341.9191919191919 321.5258587695797 L 346.969696969697 313.96356000941023 L 352.020202020202 312.176286969315 L 357.07070707070704 316.85245982225933 L 362.1212121212121 310.5644020126616 L 367.1717171717172 311.83256846104416 L 372.22222222222223 304.89060629149884 L 377.27272727272725 307.65668177684455 L 382.32323232323233 305.63355653325 L 387.37373737373736 303.5204022514282 L 392.4242424242424 299.9005958630182 L 397.47474747474746 302.6587358715155 L 402.52525252525254 298.7872414386387 L 407.57575757575756 303.51524068020376 L 412.62626262626264 294.8347770517246 L 417.67676767676767 301.43298560026966 L 422.72727272727275 287.33585676815414 L 427.77777777777777 286.2565265785805 L 432.8282828282828 285.9891080313346 L 437.8787878787879 277.9983286340797 L 442.9292929292929 284.8612169369762 L 447.979797979798 276.7374656334161 L 453.030303030303 282.44791904409107 L 458.0808080808081 273.9976544696749 L 463.1313131313131 270.0440664754193 L 468.1818181818182 285.95062447989267 L 473.2323232323232 271.3804920697901 L 478.2828282828283 272.10820338697386 L 483.3333333333333 267.57848572843113 L 488.3838383838384 261.9777947099162 L 493.4343434343434 273.7457206361022 L 498.4848484848485 272.9088789558879 L 503.5353535353535 282.4637548850585 L 508.5858585858586 256.29975034849383 L 513.6363636363636 270.3494067704365 L 518.6868686868687 261.5631484882215 L 523.7373737373737 244.32409751507217 L 528.7878787878788 273.40228302966676 L 533.8383838383838 270.5449846732936 L 538.8888888888889 276.2045246263128 L 543.939393939394 277.46005049210487 L 548.989898989899 273.8219152589388 L 554.040404040404 262.0614683441188 L 559.090909090909 240.61844050323566 L 564.1414141414141 260.9876157403344 L 569.1919191919192 256.53784976667595 L 574.2424242424242 256.66235950519143 L 579.2929292929293 242.04103273559767 L 584.3434343434344 253.5403111690081 L 589.3939393939394 261.56690555026915 L 594.4444444444445 254.6673244451311 L 599.4949494949494 256.1584567253167 L 604.5454545454545 260.6333634132382 L 609.5959595959596 250.91728494331053 L 614.6464646464647 258.21314831265784 L 619.6969696969697 256.3045607924241 L 624.7474747474747 246.29515058094012 L 629.7979797979798 250.8181968208935 L 634.8484848484848 246.68922074319605 L 639.8989898989898 244.7669392584894 L 644.9494949494949 243.66770015133588 L 650 245.4216160984842" /><text  class="poloto_text" alignment-baseline="middle" text-anchor="start" font-size="large" x="675" y="350" >sweep</text><line  class="poloto5stroke poloto5legend" stroke="black" x1="680" x2="730" y1="331.25" y2="331.25" /><path  class="poloto5stroke" fill="none" stroke="black" d=" M 150 399.95133375702693 L 155.05050505050505 399.25171262337733 L 160.1010101010101 397.73775706907026 L 165.15151515151516 395.78829833179424 L 170.2020202020202 393.49125868601146 L 175.25252525252526 391.21272344863183 L 180.3030303030303 388.43583324262545 L 185.35353535353534 385.58404758477093 L 190.40404040404042 382.6095429376012 L 195.45454545454544 379.9380962580364 L 200.50505050505052 377.2090647022265 L 205.55555555555554 373.0326162143562 L 210.6060606060606 371.3686590799763 L 215.65656565656565 366.48855149457336 L 220.7070707070707 365.18555321860833 L 225.75757575757575 359.6662886196133 L 230.8080808080808 356.23886487568336 L 235.85858585858585 351.79067897484873 L 240.9090909090909 351.27673395436045 L 245.95959595959596 347.6302770043224 L 251.010101010101 341.6856568011601 L 256.06060606060606 338.443522930368 L 261.1111111111111 334.24618236849403 L 266.16161616161617 329.5234149236122 L 271.2121212121212 325.1729828614768 L 276.26262626262627 319.56779741359634 L 281.3131313131313 320.7431258053982 L 286.3636363636364 313.36523910013096 L 291.4141414141414 309.1723227421637 L 296.4646464646464 303.48851989311686 L 301.5151515151515 289.80986457020265 L 306.5656565656566 297.0221245308062 L 311.6161616161616 283.8858204264792 L 316.66666666666663 288.6020569036893 L 321.7171717171717 280.5729344059102 L 326.7676767676768 279.198903078333 L 331.8181818181818 272.16459443041884 L 336.86868686868684 264.8482252270916 L 341.9191919191919 260.31629546659553 L 346.969696969697 261.0913036303051 L 352.020202020202 257.5531694505209 L 357.07070707070704 251.34390460573675 L 362.1212121212121 242.12646200627114 L 367.1717171717172 239.55772006025344 L 372.22222222222223 231.86662780857947 L 377.27272727272725 230.30923780798253 L 382.32323232323233 223.74772206167904 L 387.37373737373736 222.07870869426296 L 392.4242424242424 215.29004870135574 L 397.47474747474746 206.61618626600705 L 402.52525252525254 203.94863709940768 L 407.57575757575756 199.49423624546608 L 412.62626262626264 193.64291056436693 L 417.67676767676767 190.19919451398718 L 422.72727272727275 183.8675969199114 L 427.77777777777777 176.7522832052304 L 432.8282828282828 171.69710355095037 L 437.8787878787879 163.65337415773342 L 442.9292929292929 152.11045060165665 L 447.979797979798 159.07530627078236 L 453.030303030303 152.07754997419215" /><text  class="poloto_text" alignment-baseline="start" text-anchor="middle" font-size="x-large" x="400" y="37.5" >Bench of space partitioning algs with abspiral(x,0.6)</text><text  class="poloto_text" alignment-baseline="start" text-anchor="middle" font-size="x-large" x="400" y="481.25" >Number of Elements</text><text  class="poloto_text" alignment-baseline="start" text-anchor="middle" font-size="x-large" transform="rotate(-90,37.5,250)" x="37.5" y="250" >Time in Seconds</text><line  class="poloto_axis_lines" stroke="black" x1="150" x2="150" y1="400" y2="405" /><text  class="poloto_text" alignment-baseline="start" text-anchor="middle" x="150" y="430" > 0</text><line  class="poloto_axis_lines" stroke="black" x1="251.010101010101" x2="251.010101010101" y1="400" y2="405" /><text  class="poloto_text" alignment-baseline="start" text-anchor="middle" x="251.010101010101" y="430" > 2000</text><line  class="poloto_axis_lines" stroke="black" x1="352.020202020202" x2="352.020202020202" y1="400" y2="405" /><text  class="poloto_text" alignment-baseline="start" text-anchor="middle" x="352.020202020202" y="430" > 4000</text><line  class="poloto_axis_lines" stroke="black" x1="453.030303030303" x2="453.030303030303" y1="400" y2="405" /><text  class="poloto_text" alignment-baseline="start" text-anchor="middle" x="453.030303030303" y="430" > 6000</text><line  class="poloto_axis_lines" stroke="black" x1="554.040404040404" x2="554.040404040404" y1="400" y2="405" /><text  class="poloto_text" alignment-baseline="start" text-anchor="middle" x="554.040404040404" y="430" > 8000</text><line  class="poloto_axis_lines" stroke="black" x1="150" x2="144" y1="329.77573499720853" y2="329.77573499720853" /><text  class="poloto_text" alignment-baseline="middle" text-anchor="end" x="135" y="329.77573499720853" > 0.002</text><line  class="poloto_axis_lines" stroke="black" x1="150" x2="144" y1="259.55027616161686" y2="259.55027616161686" /><text  class="poloto_text" alignment-baseline="middle" text-anchor="end" x="135" y="259.55027616161686" > 0.004</text><line  class="poloto_axis_lines" stroke="black" x1="150" x2="144" y1="189.3248173260252" y2="189.3248173260252" /><text  class="poloto_text" alignment-baseline="middle" text-anchor="end" x="135" y="189.3248173260252" > 0.006</text><line  class="poloto_axis_lines" stroke="black" x1="150" x2="144" y1="119.09935849043353" y2="119.09935849043353" /><text  class="poloto_text" alignment-baseline="middle" text-anchor="end" x="135" y="119.09935849043353" > 0.008</text><path  stroke="black" fill="none" class="poloto_axis_lines" style="stroke-dasharray:8.417508417508417;stroke-dashoffset:-0;" d=" M 150 400 L 650 400" /><path  stroke="black" fill="none" class="poloto_axis_lines" style="stroke-dasharray:8.778182354448958;stroke-dashoffset:-70.22426500279147;" d=" M 150 400 L 150 100" /></svg>