<svg class="poloto" width="800" height="500" viewBox="0 0 800 500" xmlns="http://www.w3.org/2000/svg"><circle  r="1e5" class="poloto_background" /><text  class="poloto_text poloto_legend_text" x="675" y="100" >brocc</text><line  class="poloto_scatter poloto_legend_icon poloto0stroke poloto0legend" stroke="black" x1="685" x2="685" y1="81.25" y2="81.25" /><path  class="poloto_scatter poloto0stroke" d=" M 150.00 338.19 h 0 M 155.05 340.20 h 0 M 160.10 340.69 h 0 M 165.15 342.75 h 0 M 170.20 344.98 h 0 M 175.25 346.20 h 0 M 180.30 347.10 h 0 M 185.35 348.09 h 0 M 190.40 349.90 h 0 M 195.45 351.59 h 0 M 200.51 352.80 h 0 M 205.56 354.04 h 0 M 210.61 355.21 h 0 M 215.66 356.25 h 0 M 220.71 356.89 h 0 M 225.76 358.22 h 0 M 230.81 359.18 h 0 M 235.86 360.16 h 0 M 240.91 360.66 h 0 M 245.96 362.09 h 0 M 251.01 362.54 h 0 M 256.06 363.27 h 0 M 261.11 364.26 h 0 M 266.16 364.90 h 0 M 271.21 366.01 h 0 M 276.26 366.67 h 0 M 281.31 367.27 h 0 M 286.36 368.00 h 0 M 291.41 368.55 h 0 M 296.46 368.91 h 0 M 301.52 369.46 h 0 M 306.57 370.14 h 0 M 311.62 370.36 h 0 M 316.67 371.05 h 0 M 321.72 371.43 h 0 M 326.77 371.72 h 0 M 331.82 372.20 h 0 M 336.87 372.45 h 0 M 341.92 373.27 h 0 M 346.97 373.68 h 0 M 352.02 374.13 h 0 M 357.07 374.12 h 0 M 362.12 374.91 h 0 M 367.17 375.19 h 0 M 372.22 375.60 h 0 M 377.27 375.94 h 0 M 382.32 376.01 h 0 M 387.37 376.31 h 0 M 392.42 377.03 h 0 M 397.47 376.61 h 0 M 402.53 377.42 h 0 M 407.58 377.94 h 0 M 412.63 378.41 h 0 M 417.68 378.74 h 0 M 422.73 378.90 h 0 M 427.78 379.08 h 0 M 432.83 379.35 h 0 M 437.88 379.36 h 0 M 442.93 379.77 h 0 M 447.98 379.53 h 0 M 453.03 380.12 h 0 M 458.08 380.54 h 0 M 463.13 380.29 h 0 M 468.18 380.97 h 0 M 473.23 380.83 h 0 M 478.28 381.06 h 0 M 483.33 381.51 h 0 M 488.38 381.46 h 0 M 493.43 381.64 h 0 M 498.48 381.47 h 0 M 503.54 382.12 h 0 M 508.59 382.21 h 0 M 513.64 382.44 h 0 M 518.69 382.44 h 0 M 523.74 382.68 h 0 M 528.79 382.46 h 0 M 533.84 382.73 h 0 M 538.89 383.03 h 0 M 543.94 383.42 h 0 M 548.99 383.54 h 0 M 554.04 383.75 h 0 M 559.09 383.79 h 0 M 564.14 383.93 h 0 M 569.19 384.09 h 0 M 574.24 384.20 h 0 M 579.29 384.08 h 0 M 584.34 384.00 h 0 M 589.39 384.52 h 0 M 594.44 384.57 h 0 M 599.49 384.79 h 0 M 604.55 384.84 h 0 M 609.60 384.92 h 0 M 614.65 385.09 h 0 M 619.70 385.14 h 0 M 624.75 385.13 h 0 M 629.80 385.41 h 0 M 634.85 382.70 h 0 M 639.90 385.05 h 0 M 644.95 383.18 h 0 M 650.00 385.26 h 0" /><text  class="poloto_text poloto_legend_text" x="675" y="150" >brocc_par</text><line  class="poloto_scatter poloto_legend_icon poloto1stroke poloto1legend" stroke="black" x1="685" x2="685" y1="131.25" y2="131.25" /><path  class="poloto_scatter poloto1stroke" d=" M 150.00 371.34 h 0 M 155.05 371.20 h 0 M 160.10 372.98 h 0 M 165.15 374.20 h 0 M 170.20 374.72 h 0 M 175.25 374.96 h 0 M 180.30 376.62 h 0 M 185.35 374.50 h 0 M 190.40 377.59 h 0 M 195.45 378.14 h 0 M 200.51 379.28 h 0 M 205.56 379.72 h 0 M 210.61 379.81 h 0 M 215.66 380.72 h 0 M 220.71 380.58 h 0 M 225.76 381.40 h 0 M 230.81 382.43 h 0 M 235.86 382.48 h 0 M 240.91 383.07 h 0 M 245.96 383.34 h 0 M 251.01 383.48 h 0 M 256.06 384.18 h 0 M 261.11 384.62 h 0 M 266.16 384.57 h 0 M 271.21 385.81 h 0 M 276.26 385.72 h 0 M 281.31 386.11 h 0 M 286.36 386.35 h 0 M 291.41 386.32 h 0 M 296.46 386.53 h 0 M 301.52 386.88 h 0 M 306.57 387.07 h 0 M 311.62 387.26 h 0 M 316.67 387.76 h 0 M 321.72 387.82 h 0 M 326.77 388.14 h 0 M 331.82 388.17 h 0 M 336.87 388.23 h 0 M 341.92 388.64 h 0 M 346.97 387.02 h 0 M 352.02 389.18 h 0 M 357.07 389.35 h 0 M 362.12 389.17 h 0 M 367.17 389.52 h 0 M 372.22 389.62 h 0 M 377.27 389.67 h 0 M 382.32 389.49 h 0 M 387.37 389.90 h 0 M 392.42 390.33 h 0 M 397.47 390.42 h 0 M 402.53 390.16 h 0 M 407.58 390.70 h 0 M 412.63 390.91 h 0 M 417.68 390.68 h 0 M 422.73 390.86 h 0 M 427.78 390.85 h 0 M 432.83 391.19 h 0 M 437.88 391.61 h 0 M 442.93 391.48 h 0 M 447.98 389.18 h 0 M 453.03 391.62 h 0 M 458.08 391.58 h 0 M 463.13 391.81 h 0 M 468.18 392.20 h 0 M 473.23 392.07 h 0 M 478.28 391.82 h 0 M 483.33 392.03 h 0 M 488.38 392.25 h 0 M 493.43 392.00 h 0 M 498.48 392.45 h 0 M 503.54 392.46 h 0 M 508.59 392.46 h 0 M 513.64 392.67 h 0 M 518.69 392.74 h 0 M 523.74 392.77 h 0 M 528.79 392.77 h 0 M 533.84 393.04 h 0 M 538.89 393.09 h 0 M 543.94 392.99 h 0 M 548.99 393.14 h 0 M 554.04 393.05 h 0 M 559.09 392.83 h 0 M 564.14 393.12 h 0 M 569.19 392.96 h 0 M 574.24 393.18 h 0 M 579.29 393.46 h 0 M 584.34 393.34 h 0 M 589.39 393.47 h 0 M 594.44 393.65 h 0 M 599.49 392.70 h 0 M 604.55 393.66 h 0 M 609.60 393.45 h 0 M 614.65 393.29 h 0 M 619.70 393.67 h 0 M 624.75 393.87 h 0 M 629.80 393.79 h 0 M 634.85 375.71 h 0 M 639.90 393.48 h 0 M 644.95 393.27 h 0 M 650.00 393.72 h 0" /><text  class="poloto_text poloto_legend_text" x="675" y="200" >naive</text><line  class="poloto_scatter poloto_legend_icon poloto2stroke poloto2legend" stroke="black" x1="685" x2="685" y1="181.25" y2="181.25" /><path  class="poloto_scatter poloto2stroke" d=" M 150.00 400.00 h 0 M 155.05 400.00 h 0 M 160.10 400.00 h 0 M 165.15 400.00 h 0 M 170.20 400.00 h 0 M 175.25 400.00 h 0 M 180.30 400.00 h 0 M 185.35 400.00 h 0 M 190.40 400.00 h 0 M 195.45 400.00 h 0 M 200.51 400.00 h 0 M 205.56 400.00 h 0 M 210.61 400.00 h 0 M 215.66 400.00 h 0 M 220.71 400.00 h 0 M 225.76 400.00 h 0 M 230.81 400.00 h 0 M 235.86 400.00 h 0 M 240.91 400.00 h 0 M 245.96 400.00 h 0 M 251.01 400.00 h 0 M 256.06 400.00 h 0 M 261.11 400.00 h 0 M 266.16 400.00 h 0 M 271.21 400.00 h 0 M 276.26 400.00 h 0 M 281.31 400.00 h 0 M 286.36 400.00 h 0 M 291.41 400.00 h 0 M 296.46 400.00 h 0 M 301.52 400.00 h 0 M 306.57 400.00 h 0 M 311.62 400.00 h 0 M 316.67 400.00 h 0 M 321.72 400.00 h 0 M 326.77 400.00 h 0 M 331.82 400.00 h 0 M 336.87 400.00 h 0 M 341.92 400.00 h 0 M 346.97 400.00 h 0 M 352.02 400.00 h 0 M 357.07 400.00 h 0 M 362.12 400.00 h 0 M 367.17 400.00 h 0 M 372.22 400.00 h 0 M 377.27 400.00 h 0 M 382.32 400.00 h 0 M 387.37 400.00 h 0 M 392.42 400.00 h 0 M 397.47 400.00 h 0 M 402.53 400.00 h 0 M 407.58 400.00 h 0 M 412.63 400.00 h 0 M 417.68 400.00 h 0 M 422.73 400.00 h 0 M 427.78 400.00 h 0 M 432.83 400.00 h 0 M 437.88 400.00 h 0 M 442.93 400.00 h 0 M 447.98 400.00 h 0 M 453.03 400.00 h 0 M 458.08 400.00 h 0 M 463.13 400.00 h 0 M 468.18 400.00 h 0 M 473.23 400.00 h 0 M 478.28 400.00 h 0 M 483.33 400.00 h 0 M 488.38 400.00 h 0 M 493.43 400.00 h 0 M 498.48 400.00 h 0 M 503.54 400.00 h 0 M 508.59 400.00 h 0 M 513.64 400.00 h 0 M 518.69 400.00 h 0 M 523.74 400.00 h 0 M 528.79 400.00 h 0 M 533.84 400.00 h 0 M 538.89 400.00 h 0 M 543.94 400.00 h 0 M 548.99 400.00 h 0 M 554.04 400.00 h 0 M 559.09 400.00 h 0 M 564.14 400.00 h 0 M 569.19 400.00 h 0 M 574.24 400.00 h 0 M 579.29 400.00 h 0 M 584.34 400.00 h 0 M 589.39 400.00 h 0 M 594.44 400.00 h 0 M 599.49 400.00 h 0 M 604.55 400.00 h 0 M 609.60 400.00 h 0 M 614.65 400.00 h 0 M 619.70 400.00 h 0 M 624.75 400.00 h 0 M 629.80 400.00 h 0 M 634.85 400.00 h 0 M 639.90 400.00 h 0 M 644.95 400.00 h 0 M 650.00 400.00 h 0" /><text  class="poloto_text poloto_legend_text" x="675" y="250" >nosort</text><line  class="poloto_scatter poloto_legend_icon poloto3stroke poloto3legend" stroke="black" x1="685" x2="685" y1="231.25" y2="231.25" /><path  class="poloto_scatter poloto3stroke" d=" M 150.00 226.88 h 0 M 155.05 232.32 h 0 M 160.10 240.07 h 0 M 165.15 242.90 h 0 M 170.20 250.62 h 0 M 175.25 252.76 h 0 M 180.30 253.02 h 0 M 185.35 260.23 h 0 M 190.40 263.24 h 0 M 195.45 263.47 h 0 M 200.51 266.59 h 0 M 205.56 270.56 h 0 M 210.61 276.22 h 0 M 215.66 279.22 h 0 M 220.71 281.20 h 0 M 225.76 281.47 h 0 M 230.81 286.41 h 0 M 235.86 289.40 h 0 M 240.91 292.46 h 0 M 245.96 290.72 h 0 M 251.01 295.79 h 0 M 256.06 299.28 h 0 M 261.11 300.87 h 0 M 266.16 302.13 h 0 M 271.21 304.83 h 0 M 276.26 305.97 h 0 M 281.31 308.78 h 0 M 286.36 303.73 h 0 M 291.41 311.18 h 0 M 296.46 312.75 h 0 M 301.52 315.41 h 0 M 306.57 316.17 h 0 M 311.62 316.22 h 0 M 316.67 318.42 h 0 M 321.72 321.00 h 0 M 326.77 321.39 h 0 M 331.82 323.54 h 0 M 336.87 324.09 h 0 M 341.92 325.60 h 0 M 346.97 326.86 h 0 M 352.02 328.70 h 0 M 357.07 328.32 h 0 M 362.12 330.68 h 0 M 367.17 331.11 h 0 M 372.22 333.01 h 0 M 377.27 329.00 h 0 M 382.32 333.43 h 0 M 387.37 336.26 h 0 M 392.42 336.03 h 0 M 397.47 336.25 h 0 M 402.53 336.75 h 0 M 407.58 337.90 h 0 M 412.63 338.81 h 0 M 417.68 339.24 h 0 M 422.73 341.00 h 0 M 427.78 341.89 h 0 M 432.83 342.71 h 0 M 437.88 342.82 h 0 M 442.93 344.30 h 0 M 447.98 345.67 h 0 M 453.03 345.36 h 0 M 458.08 345.75 h 0 M 463.13 346.50 h 0 M 468.18 346.98 h 0 M 473.23 347.14 h 0 M 478.28 347.79 h 0 M 483.33 348.71 h 0 M 488.38 349.32 h 0 M 493.43 349.98 h 0 M 498.48 349.70 h 0 M 503.54 351.37 h 0 M 508.59 350.95 h 0 M 513.64 350.98 h 0 M 518.69 352.24 h 0 M 523.74 353.23 h 0 M 528.79 352.73 h 0 M 533.84 353.93 h 0 M 538.89 353.98 h 0 M 543.94 352.93 h 0 M 548.99 355.17 h 0 M 554.04 354.98 h 0 M 559.09 356.13 h 0 M 564.14 355.18 h 0 M 569.19 356.18 h 0 M 574.24 356.58 h 0 M 579.29 357.34 h 0 M 584.34 357.53 h 0 M 589.39 358.00 h 0 M 594.44 354.09 h 0 M 599.49 357.94 h 0 M 604.55 358.59 h 0 M 609.60 359.43 h 0 M 614.65 359.16 h 0 M 619.70 359.69 h 0 M 624.75 360.27 h 0 M 629.80 350.70 h 0 M 634.85 360.51 h 0 M 639.90 360.76 h 0 M 644.95 361.28 h 0 M 650.00 361.71 h 0" /><text  class="poloto_text poloto_legend_text" x="675" y="300" >nosort_par</text><line  class="poloto_scatter poloto_legend_icon poloto4stroke poloto4legend" stroke="black" x1="685" x2="685" y1="281.25" y2="281.25" /><path  class="poloto_scatter poloto4stroke" d=" M 150.00 301.80 h 0 M 155.05 306.44 h 0 M 160.10 311.66 h 0 M 165.15 313.06 h 0 M 170.20 316.99 h 0 M 175.25 318.91 h 0 M 180.30 318.96 h 0 M 185.35 319.58 h 0 M 190.40 324.76 h 0 M 195.45 326.41 h 0 M 200.51 323.07 h 0 M 205.56 330.15 h 0 M 210.61 333.52 h 0 M 215.66 335.23 h 0 M 220.71 336.56 h 0 M 225.76 332.96 h 0 M 230.81 333.85 h 0 M 235.86 340.88 h 0 M 240.91 341.56 h 0 M 245.96 343.59 h 0 M 251.01 344.84 h 0 M 256.06 346.43 h 0 M 261.11 347.85 h 0 M 266.16 346.24 h 0 M 271.21 351.43 h 0 M 276.26 348.18 h 0 M 281.31 353.89 h 0 M 286.36 351.12 h 0 M 291.41 354.73 h 0 M 296.46 355.50 h 0 M 301.52 356.66 h 0 M 306.57 357.80 h 0 M 311.62 357.95 h 0 M 316.67 359.08 h 0 M 321.72 360.34 h 0 M 326.77 361.14 h 0 M 331.82 362.10 h 0 M 336.87 361.23 h 0 M 341.92 360.63 h 0 M 346.97 363.53 h 0 M 352.02 364.31 h 0 M 357.07 365.10 h 0 M 362.12 365.50 h 0 M 367.17 366.30 h 0 M 372.22 367.10 h 0 M 377.27 366.93 h 0 M 382.32 366.47 h 0 M 387.37 368.54 h 0 M 392.42 368.03 h 0 M 397.47 367.39 h 0 M 402.53 368.79 h 0 M 407.58 368.92 h 0 M 412.63 367.69 h 0 M 417.68 370.02 h 0 M 422.73 370.47 h 0 M 427.78 370.79 h 0 M 432.83 371.45 h 0 M 437.88 372.81 h 0 M 442.93 371.83 h 0 M 447.98 373.66 h 0 M 453.03 373.76 h 0 M 458.08 372.22 h 0 M 463.13 374.75 h 0 M 468.18 375.01 h 0 M 473.23 374.96 h 0 M 478.28 375.38 h 0 M 483.33 374.55 h 0 M 488.38 375.07 h 0 M 493.43 375.51 h 0 M 498.48 375.49 h 0 M 503.54 376.63 h 0 M 508.59 376.83 h 0 M 513.64 377.48 h 0 M 518.69 377.72 h 0 M 523.74 377.89 h 0 M 528.79 378.14 h 0 M 533.84 377.47 h 0 M 538.89 378.56 h 0 M 543.94 377.73 h 0 M 548.99 378.74 h 0 M 554.04 379.00 h 0 M 559.09 379.29 h 0 M 564.14 376.89 h 0 M 569.19 379.08 h 0 M 574.24 379.28 h 0 M 579.29 379.84 h 0 M 584.34 380.13 h 0 M 589.39 379.70 h 0 M 594.44 380.29 h 0 M 599.49 378.11 h 0 M 604.55 380.97 h 0 M 609.60 380.67 h 0 M 614.65 381.38 h 0 M 619.70 381.64 h 0 M 624.75 380.94 h 0 M 629.80 343.06 h 0 M 634.85 380.18 h 0 M 639.90 376.79 h 0 M 644.95 381.97 h 0 M 650.00 381.42 h 0" /><text  class="poloto_text poloto_legend_text" x="675" y="350" >sweep</text><line  class="poloto_scatter poloto_legend_icon poloto5stroke poloto5legend" stroke="black" x1="685" x2="685" y1="331.25" y2="331.25" /><path  class="poloto_scatter poloto5stroke" d=" M 150.00 100.00 h 0 M 155.05 107.92 h 0 M 160.10 114.53 h 0 M 165.15 121.76 h 0 M 170.20 128.85 h 0 M 175.25 135.12 h 0 M 180.30 140.72 h 0 M 185.35 146.74 h 0 M 190.40 152.56 h 0 M 195.45 156.92 h 0 M 200.51 152.38 h 0 M 205.56 167.84 h 0 M 210.61 172.65 h 0 M 215.66 177.23 h 0 M 220.71 181.87 h 0 M 225.76 185.54 h 0 M 230.81 190.79 h 0 M 235.86 194.52 h 0 M 240.91 198.73 h 0 M 245.96 201.74 h 0 M 251.01 205.62 h 0 M 256.06 209.09 h 0 M 261.11 210.86 h 0 M 266.16 215.79 h 0 M 271.21 219.39 h 0 M 276.26 222.06 h 0 M 281.31 224.46 h 0 M 286.36 226.77 h 0 M 291.41 230.22 h 0 M 296.46 232.69 h 0 M 301.52 235.71 h 0 M 306.57 238.10 h 0 M 311.62 240.39 h 0 M 316.67 243.15 h 0 M 321.72 243.45 h 0 M 326.77 247.48 h 0 M 331.82 247.40 h 0 M 336.87 250.48 h 0 M 341.92 253.75 h 0 M 346.97 256.04 h 0 M 352.02 257.80 h 0 M 357.07 260.19 h 0 M 362.12 261.75 h 0 M 367.17 263.74 h 0 M 372.22 265.10 h 0 M 377.27 267.22 h 0 M 382.32 268.75 h 0 M 387.37 270.53 h 0 M 392.42 272.42 h 0 M 397.47 273.62 h 0 M 402.53 275.17 h 0 M 407.58 276.38 h 0 M 412.63 278.20 h 0 M 417.68 279.75 h 0 M 422.73 281.14 h 0 M 427.78 282.34 h 0 M 432.83 283.39 h 0 M 437.88 284.64 h 0 M 442.93 286.10 h 0 M 447.98 287.50 h 0 M 453.03 288.66 h 0 M 458.08 288.68 h 0 M 463.13 290.96 h 0 M 468.18 292.24 h 0 M 473.23 292.86 h 0 M 478.28 293.45 h 0 M 483.33 294.87 h 0 M 488.38 295.87 h 0 M 493.43 296.48 h 0 M 498.48 298.03 h 0 M 503.54 298.13 h 0 M 508.59 299.43 h 0 M 513.64 300.81 h 0 M 518.69 300.41 h 0 M 523.74 302.29 h 0 M 528.79 303.14 h 0 M 533.84 303.35 h 0 M 538.89 304.89 h 0 M 543.94 305.82 h 0 M 548.99 306.46 h 0 M 554.04 307.27 h 0 M 559.09 308.43 h 0 M 564.14 308.22 h 0 M 569.19 309.65 h 0 M 574.24 310.41 h 0 M 579.29 311.14 h 0 M 584.34 311.62 h 0 M 589.39 312.65 h 0 M 594.44 313.08 h 0 M 599.49 312.95 h 0 M 604.55 314.43 h 0 M 609.60 312.56 h 0 M 614.65 315.58 h 0 M 619.70 315.68 h 0 M 624.75 316.63 h 0 M 629.80 316.85 h 0 M 634.85 316.84 h 0 M 639.90 318.30 h 0 M 644.95 318.39 h 0 M 650.00 319.67 h 0" /><text  class="poloto_labels poloto_text poloto_title" x="400" y="37.5" >Bench of space partitioning algs with abspiral(30_000,grow)</text><text  class="poloto_labels poloto_text poloto_xname" x="400" y="481.25" >Grow</text><text  class="poloto_labels poloto_text poloto_yname" transform="rotate(-90,37.5,250)" x="37.5" y="250" >Time in Seconds</text><text  class="poloto_tick_labels poloto_text" dominant-baseline="middle" text-anchor="start" x="150" y="70" ></text><line  class="poloto_axis_lines" stroke="black" x1="150" x2="144" y1="400" y2="400" /><text  class="poloto_tick_labels poloto_text" dominant-baseline="middle" text-anchor="end" x="135" y="400" >0e0</text><line  class="poloto_axis_lines" stroke="black" x1="150" x2="144" y1="339.5001016821791" y2="339.5001016821791" /><text  class="poloto_tick_labels poloto_text" dominant-baseline="middle" text-anchor="end" x="135" y="339.5001016821791" >0.05</text><line  class="poloto_axis_lines" stroke="black" x1="150" x2="144" y1="279.0002033643582" y2="279.0002033643582" /><text  class="poloto_tick_labels poloto_text" dominant-baseline="middle" text-anchor="end" x="135" y="279.0002033643582" >0.10</text><line  class="poloto_axis_lines" stroke="black" x1="150" x2="144" y1="218.50030504653728" y2="218.50030504653728" /><text  class="poloto_tick_labels poloto_text" dominant-baseline="middle" text-anchor="end" x="135" y="218.50030504653728" >0.15</text><line  class="poloto_axis_lines" stroke="black" x1="150" x2="144" y1="158.00040672871637" y2="158.00040672871637" /><text  class="poloto_tick_labels poloto_text" dominant-baseline="middle" text-anchor="end" x="135" y="158.00040672871637" >0.20</text><text  class="poloto_tick_labels poloto_text" dominant-baseline="middle" text-anchor="start" x="440.00000000000006" y="70" ></text><line  class="poloto_axis_lines" stroke="black" x1="150" x2="150" y1="400" y2="405" /><text  class="poloto_tick_labels poloto_text" dominant-baseline="start" text-anchor="middle" x="150" y="430" >0.20</text><line  class="poloto_axis_lines" stroke="black" x1="213.1313131313131" x2="213.1313131313131" y1="400" y2="405" /><text  class="poloto_tick_labels poloto_text" dominant-baseline="start" text-anchor="middle" x="213.1313131313131" y="430" >0.25</text><line  class="poloto_axis_lines" stroke="black" x1="276.26262626262627" x2="276.26262626262627" y1="400" y2="405" /><text  class="poloto_tick_labels poloto_text" dominant-baseline="start" text-anchor="middle" x="276.26262626262627" y="430" >0.30</text><line  class="poloto_axis_lines" stroke="black" x1="339.3939393939394" x2="339.3939393939394" y1="400" y2="405" /><text  class="poloto_tick_labels poloto_text" dominant-baseline="start" text-anchor="middle" x="339.3939393939394" y="430" >0.35</text><line  class="poloto_axis_lines" stroke="black" x1="402.5252525252525" x2="402.5252525252525" y1="400" y2="405" /><text  class="poloto_tick_labels poloto_text" dominant-baseline="start" text-anchor="middle" x="402.5252525252525" y="430" >0.40</text><line  class="poloto_axis_lines" stroke="black" x1="465.65656565656565" x2="465.65656565656565" y1="400" y2="405" /><text  class="poloto_tick_labels poloto_text" dominant-baseline="start" text-anchor="middle" x="465.65656565656565" y="430" >0.45</text><line  class="poloto_axis_lines" stroke="black" x1="528.7878787878788" x2="528.7878787878788" y1="400" y2="405" /><text  class="poloto_tick_labels poloto_text" dominant-baseline="start" text-anchor="middle" x="528.7878787878788" y="430" >0.50</text><line  class="poloto_axis_lines" stroke="black" x1="591.9191919191919" x2="591.9191919191919" y1="400" y2="405" /><text  class="poloto_tick_labels poloto_text" dominant-baseline="start" text-anchor="middle" x="591.9191919191919" y="430" >0.55</text><path  stroke="black" fill="none" class="poloto_axis_lines" style="stroke-dasharray:6.313131313131312;stroke-dashoffset:-0;" d=" M 150 400 L 650 400" /><path  stroke="black" fill="none" class="poloto_axis_lines" style="stroke-dasharray:6.04998983178209;stroke-dashoffset:-0;" d=" M 150 400 L 150 100" /></svg>