<svg class="poloto" width="800" height="500" viewBox="0 0 800 500" xmlns="http://www.w3.org/2000/svg" ><style><style>.poloto {
            font-family: "Arial";
            stroke-width:2;
            }
            .poloto_text{fill: var(--poloto_fg_color,black);  }
            .poloto_axis_lines{stroke: var(--poloto_fg_color,black);stoke-width:3;fill:none}
            .poloto_background{fill: var(--poloto_bg_color,aliceblue); }
            .poloto0stroke{stroke:  var(--poloto_color0,blue); }
            .poloto1stroke{stroke:  var(--poloto_color1,red); }
            .poloto2stroke{stroke:  var(--poloto_color2,green); }
            .poloto3stroke{stroke:  var(--poloto_color3,gold); }
            .poloto4stroke{stroke:  var(--poloto_color4,aqua); }
            .poloto5stroke{stroke:  var(--poloto_color5,brown); }
            .poloto6stroke{stroke:  var(--poloto_color6,lime); }
            .poloto7stroke{stroke:  var(--poloto_color7,chocolate); }
            .poloto0fill{fill:var(--poloto_color0,blue);}
            .poloto1fill{fill:var(--poloto_color1,red);}
            .poloto2fill{fill:var(--poloto_color2,green);}
            .poloto3fill{fill:var(--poloto_color3,gold);}
            .poloto4fill{fill:var(--poloto_color4,aqua);}
            .poloto5fill{fill:var(--poloto_color5,brown);}
            .poloto6fill{fill:var(--poloto_color6,lime);}
            .poloto7fill{fill:var(--poloto_color7,chocolate);}</style></style><rect class="poloto_background" fill="white" x="0" y="0" width="800" height="500" /><line class="poloto_axis_lines" stroke="black" x1="150" x2="150" y1="400" y2="405" /><text class="poloto_text" alignment-baseline="start" text-anchor="middle" x="150" y="430" >0e0</text><line class="poloto_axis_lines" stroke="black" x1="251.010101010101" x2="251.010101010101" y1="400" y2="405" /><text class="poloto_text" alignment-baseline="start" text-anchor="middle" x="251.010101010101" y="430" >0.001</text><line class="poloto_axis_lines" stroke="black" x1="352.020202020202" x2="352.020202020202" y1="400" y2="405" /><text class="poloto_text" alignment-baseline="start" text-anchor="middle" x="352.020202020202" y="430" >0.002</text><line class="poloto_axis_lines" stroke="black" x1="453.030303030303" x2="453.030303030303" y1="400" y2="405" /><text class="poloto_text" alignment-baseline="start" text-anchor="middle" x="453.030303030303" y="430" >0.003</text><line class="poloto_axis_lines" stroke="black" x1="554.040404040404" x2="554.040404040404" y1="400" y2="405" /><text class="poloto_text" alignment-baseline="start" text-anchor="middle" x="554.040404040404" y="430" >0.004</text><line class="poloto_axis_lines" stroke="black" x1="150" x2="144" y1="356.91824488035223" y2="356.91824488035223" /><text class="poloto_text" alignment-baseline="middle" text-anchor="end" x="135" y="356.91824488035223" >0.010</text><line class="poloto_axis_lines" stroke="black" x1="150" x2="144" y1="279.9887098214347" y2="279.9887098214347" /><text class="poloto_text" alignment-baseline="middle" text-anchor="end" x="135" y="279.9887098214347" >0.015</text><line class="poloto_axis_lines" stroke="black" x1="150" x2="144" y1="203.05917476251722" y2="203.05917476251722" /><text class="poloto_text" alignment-baseline="middle" text-anchor="end" x="135" y="203.05917476251722" >0.020</text><line class="poloto_axis_lines" stroke="black" x1="150" x2="144" y1="126.12963970359971" y2="126.12963970359971" /><text class="poloto_text" alignment-baseline="middle" text-anchor="end" x="135" y="126.12963970359971" >0.025</text><text class="poloto_text" alignment-baseline="middle" text-anchor="start" font-size="large" x="675" y="100" >brocc</text><line class="poloto0stroke" stroke="black" x1="680" x2="730" y1="81.25" y2="81.25" /><polyline class="poloto0stroke" fill="none" stroke="black"  points="150,255.36631972643033 155.05050505050505,270.2988348303906 160.1010101010101,262.5962805185235 165.15151515151516,271.7727431784914 170.2020202020202,263.84777019486194 175.25252525252526,269.2818725346328 180.3030303030303,269.549818105243 185.35353535353534,266.681223444245 190.40404040404042,250.93131664437672 195.45454545454544,248.50314357159107 200.50505050505052,253.29803840455733 205.55555555555554,233.76078289238944 210.60606060606062,235.27043270247864 215.65656565656565,245.1461848361321 220.7070707070707,236.47328752675287 225.75757575757575,226.67232628708368 230.8080808080808,244.2114140556312 235.85858585858585,233.3313006840625 240.9090909090909,240.4790084172707 245.95959595959596,242.31111606651282 251.010101010101,235.75295013227517 256.06060606060606,249.7750349606272 261.1111111111111,230.93176078422582 266.16161616161617,266.78533987699376 271.21212121212125,266.6031399661602 276.26262626262627,268.5631660462983 281.3131313131313,287.06824260067367 286.3636363636364,291.9828551760986 291.4141414141414,290.59624646438266 296.4646464646465,264.4921473664225 301.5151515151515,302.23430038716583 306.5656565656566,299.7058573583844 311.6161616161616,309.41825731729375 316.66666666666663,311.8711863144614 321.7171717171717,304.6115614936495 326.7676767676768,303.8736380074573 331.8181818181818,316.43064599833326 336.86868686868684,326.01038866698707 341.9191919191919,326.7437579247037 346.969696969697,322.9654561257271 352.020202020202,326.35795630638324 357.07070707070704,335.9160817756855 362.1212121212121,329.3406374678736 367.17171717171715,334.8052039035277 372.22222222222223,342.9335939637599 377.27272727272725,334.763815813666 382.32323232323233,324.55918991763565 387.37373737373736,348.9097264216488 392.42424242424244,345.1152386484958 397.47474747474746,352.55867890037746 402.52525252525254,356.15611936243056 407.57575757575756,348.1802805702202 412.62626262626264,347.5886924456171 417.67676767676767,360.6394495784082 422.72727272727275,360.2194143169865 427.77777777777777,366.4941564581601 432.8282828282828,363.4247295529373 437.8787878787879,366.92260781071724 442.92929292929296,366.4524914219722 447.979797979798,361.92364969305373 453.030303030303,371.2936516773229 458.0808080808081,366.311233409697 463.13131313131316,359.06042471360286 468.1818181818182,369.9330143766428 473.2323232323232,369.347042108099 478.2828282828283,358.5518897150494 483.3333333333333,378.96757281624105 488.3838383838384,363.85542724791816 493.4343434343434,379.2883228197157 498.4848484848485,373.68932971449965 503.5353535353535,381.3196625788534 508.5858585858586,374.79888439865437 513.6363636363636,382.9047187192073 518.6868686868686,370.4266250453948 523.7373737373737,382.5029157575946 528.7878787878788,383.35843373107787 533.8383838383838,373.6658815922137 538.8888888888889,389.50562670312377 543.939393939394,389.6512850848043 548.9898989898991,383.948837140841 554.040404040404,389.9108914938141 559.090909090909,392.50641707716693 564.1414141414141,388.708144370889 569.1919191919192,393.3024685200496 574.2424242424242,393.08629652653406 579.2929292929293,391.54713654679625 584.3434343434343,392.8946804406093 589.3939393939395,393.4291868501986 594.4444444444445,392.3378952376669 599.4949494949494,384.0194892258391 604.5454545454545,390.9881973168722 609.5959595959596,398.73717091019387 614.6464646464647,389.8763039748516 619.6969696969697,371.2260613878201 624.7474747474747,378.1521659023376 629.7979797979797,382.8828861171576 634.8484848484849,398.0710842238397 639.8989898989898,380.1889368866504 644.9494949494949,384.04304504947413 650,389.93807839150395 "/><text class="poloto_text" alignment-baseline="middle" text-anchor="start" font-size="large" x="675" y="150" >brocc_par</text><line class="poloto1stroke" stroke="black" x1="680" x2="730" y1="131.25" y2="131.25" /><polyline class="poloto1stroke" fill="none" stroke="black"  points="150,248.5514860914221 155.05050505050505,257.0143811559975 160.1010101010101,256.7345268933602 165.15151515151516,255.8214502417459 170.2020202020202,253.33201048723933 175.25252525252526,249.75567948960636 180.3030303030303,244.27397315354114 185.35353535353534,241.7796406806048 190.40404040404042,234.6483035524572 195.45454545454544,233.42883194861022 200.50505050505052,240.83168417779484 205.55555555555554,230.50335558938974 210.60606060606062,226.7543177855495 215.65656565656565,216.2869621413859 220.7070707070707,221.13510759851994 225.75757575757575,220.52930289583793 230.8080808080808,214.8224853542833 235.85858585858585,227.67717987402324 240.9090909090909,219.06359523617445 245.95959595959596,221.22980785617742 251.010101010101,233.34879446033494 256.06060606060606,229.85853222652585 261.1111111111111,242.88862608620013 266.16161616161617,238.82430027587444 271.21212121212125,259.4430927355286 276.26262626262627,268.46360384202507 281.3131313131313,257.93947420098806 286.3636363636364,271.7760203766849 291.4141414141414,273.412126956504 296.4646464646465,279.91288807168064 301.5151515151515,282.64910238874927 306.5656565656566,268.701100702659 311.6161616161616,284.2575758795751 316.66666666666663,301.8278047239145 321.7171717171717,283.60124385826646 326.7676767676768,291.7227102603434 331.8181818181818,304.424161146246 336.86868686868684,309.26505984117745 341.9191919191919,318.6308460869253 346.969696969697,322.7985344205562 352.020202020202,321.9362312620808 357.07070707070704,330.453638595199 362.1212121212121,315.4198842231012 367.17171717171715,335.0953359520489 372.22222222222223,323.7699390456522 377.27272727272725,330.6216988574887 382.32323232323233,335.11638387284097 387.37373737373736,340.90023865080366 392.42424242424244,345.7985575507031 397.47474747474746,346.7446985164857 402.52525252525254,349.39541334828976 407.57575757575756,349.89528608119565 412.62626262626264,351.7699203774184 417.67676767676767,355.14294199979764 422.72727272727275,356.03897106644285 427.77777777777777,358.6052941982873 432.8282828282828,354.5413068779159 437.8787878787879,357.963794191338 442.92929292929296,352.6647339574096 447.979797979798,357.9613170603091 453.030303030303,353.11446401936405 458.0808080808081,356.42794218160776 463.13131313131316,358.54856635913484 468.1818181818182,362.12211250759873 473.2323232323232,366.15580497706395 478.2828282828283,355.34657447909854 483.3333333333333,368.61825785067185 488.3838383838384,367.8714259243199 493.4343434343434,366.0914611139407 498.4848484848485,369.09479016264083 503.5353535353535,375.0416432394863 508.5858585858586,375.9441959307045 513.6363636363636,377.4401984412743 518.6868686868686,375.71311499329454 523.7373737373737,368.07965878981736 528.7878787878788,367.28968478020437 533.8383838383838,381.9286213924728 538.8888888888889,384.3630103716912 543.939393939394,377.51978973824623 548.9898989898991,377.57027089915186 554.040404040404,383.8393048688241 559.090909090909,385.3810958386609 564.1414141414141,381.2481950407837 569.1919191919192,381.2729971228867 574.2424242424242,390.8343844044754 579.2929292929293,368.2808756817175 584.3434343434343,386.91834796592923 589.3939393939395,390.32944970816266 594.4444444444445,377.3138801447075 599.4949494949494,383.40928415375174 604.5454545454545,385.34066167503397 609.5959595959596,388.8677577702292 614.6464646464647,378.6287597579345 619.6969696969697,364.1004785888949 624.7474747474747,385.10994999939226 629.7979797979797,391.55592189969997 634.8484848484849,400 639.8989898989898,386.51449867868394 644.9494949494949,387.9310637513518 650,392.76994689246476 "/><text class="poloto_text" alignment-baseline="middle" text-anchor="start" font-size="large" x="675" y="200" >naive</text><line class="poloto2stroke" stroke="black" x1="680" x2="730" y1="181.25" y2="181.25" /><polyline class="poloto2stroke" fill="none" stroke="black"  points="150,265.982641722282 155.05050505050505,246.32057573243452 160.1010101010101,265.1664193553069 165.15151515151516,253.3139320465005 170.2020202020202,259.19353332379745 175.25252525252526,252.87652609606252 180.3030303030303,251.85751747467208 185.35353535353534,248.87688263881435 190.40404040404042,242.3428879644922 195.45454545454544,246.04922987637474 200.50505050505052,225.1081180507307 205.55555555555554,229.0194002440102 210.60606060606062,210.93335886710076 215.65656565656565,224.30886633918956 220.7070707070707,228.14251124568764 225.75757575757575,210.3822664497527 230.8080808080808,203.0684216926313 235.85858585858585,209.77266142803884 240.9090909090909,191.48883421649293 245.95959595959596,205.73689186112702 251.010101010101,192.03541856308652 256.06060606060606,195.61307274872252 261.1111111111111,199.70741646362822 266.16161616161617,191.7182073182246 271.21212121212125,200.93119612143846 276.26262626262627,185.0521707899273 281.3131313131313,197.11373718911685 286.3636363636364,186.6767379394875 291.4141414141414,192.40511113676564 296.4646464646465,190.7637271908416 301.5151515151515,177.89044649543138 306.5656565656566,176.88630066021437 311.6161616161616,181.5894954873904 316.66666666666663,187.06846313200754 321.7171717171717,184.61690348056393 326.7676767676768,177.89627775418887 331.8181818181818,191.48063352805565 336.86868686868684,177.08499426336454 341.9191919191919,188.38829700729235 346.969696969697,191.3829176326238 352.020202020202,184.06745735526619 357.07070707070704,179.6442244920766 362.1212121212121,173.4016388965576 367.17171717171715,164.21489845070582 372.22222222222223,175.50067664654716 377.27272727272725,171.2909694008671 382.32323232323233,170.70745887744522 387.37373737373736,178.40475120911432 392.42424242424244,186.3006602143985 397.47474747474746,167.72687019930848 402.52525252525254,167.54845522159985 407.57575757575756,182.1316794645786 412.62626262626264,189.56371875936455 417.67676767676767,157.7118448353844 422.72727272727275,187.54125666857263 427.77777777777777,176.91267210483255 432.8282828282828,174.17350369361776 437.8787878787879,169.33123565296222 442.92929292929296,170.94946380883354 447.979797979798,172.3725217342604 453.030303030303,164.85385978299817 458.0808080808081,182.20148532469108 463.13131313131316,171.2269947995121 468.1818181818182,178.95232025375665 473.2323232323232,183.23047939973216 478.2828282828283,165.43172367854672 483.3333333333333,173.152756464735 488.3838383838384,161.5963555504634 493.4343434343434,159.98868212680208 498.4848484848485,170.83083846577273 503.5353535353535,158.72943795332975 508.5858585858586,187.25237087851937 513.6363636363636,180.44701496223038 518.6868686868686,174.66665278515939 523.7373737373737,187.39539827010088 528.7878787878788,182.2597517545447 533.8383838383838,169.0312720098605 538.8888888888889,169.32205026647617 543.939393939394,183.8748719571997 548.9898989898991,181.37581601081075 554.040404040404,172.17025860068352 559.090909090909,169.37760877669572 564.1414141414141,178.4743108947146 569.1919191919192,189.6062454063451 574.2424242424242,181.90633747048403 579.2929292929293,171.1103850102698 584.3434343434343,187.23424628005947 589.3939393939395,178.23875265836418 594.4444444444445,165.7450422889347 599.4949494949494,152.7735071913473 604.5454545454545,186.7911013863061 609.5959595959596,134.8345243136564 614.6464646464647,113.8446699345991 619.6969696969697,100 624.7474747474747,166.77789822663573 629.7979797979797,166.03206638423953 634.8484848484849,193.62436733791446 639.8989898989898,156.17048467094384 644.9494949494949,161.37810645950123 650,165.5230698084757 "/><text class="poloto_text" alignment-baseline="middle" text-anchor="start" font-size="large" x="675" y="250" >nosort</text><line class="poloto3stroke" stroke="black" x1="680" x2="730" y1="231.25" y2="231.25" /><polyline class="poloto3stroke" fill="none" stroke="black"  points="150,258.3173059194764 155.05050505050505,251.04912653436597 160.1010101010101,245.86213724711143 165.15151515151516,256.88606269151927 170.2020202020202,254.64532073795115 175.25252525252526,256.27975025390595 180.3030303030303,255.51650156477237 185.35353535353534,263.07248972644527 190.40404040404042,235.3501317007997 195.45454545454544,223.46036433930377 200.50505050505052,219.08308918035834 205.55555555555554,236.03603543538497 210.60606060606062,215.45298443771915 215.65656565656565,161.33285650697954 220.7070707070707,190.76211167060535 225.75757575757575,189.25684684401452 230.8080808080808,181.64065362820455 235.85858585858585,156.03038060169462 240.9090909090909,168.09896297448145 245.95959595959596,187.13806897532882 251.010101010101,167.62035356506593 256.06060606060606,165.04781452678873 261.1111111111111,158.361637846213 266.16161616161617,171.4438591588432 271.21212121212125,173.5511283690841 276.26262626262627,165.92619595809145 281.3131313131313,181.27317662513514 286.3636363636364,159.77855679474214 291.4141414141414,175.44896461308053 296.4646464646465,188.26819461715837 301.5151515151515,195.86413997934082 306.5656565656566,189.69960709009263 311.6161616161616,191.2678772058967 316.66666666666663,187.44423313895632 321.7171717171717,200.22490606006255 326.7676767676768,204.75724038987272 331.8181818181818,192.16472172561356 336.86868686868684,197.2085759199375 341.9191919191919,199.65996632640386 346.969696969697,211.61140040320308 352.020202020202,209.06407886651814 357.07070707070704,198.40870743867058 362.1212121212121,217.0258395538128 367.17171717171715,215.3100339756727 372.22222222222223,200.72273246733585 377.27272727272725,211.46441883351946 382.32323232323233,206.7510539218087 387.37373737373736,195.65141442899588 392.42424242424244,229.9708955054329 397.47474747474746,231.2207081179071 402.52525252525254,221.89284813294321 407.57575757575756,224.9082397327406 412.62626262626264,242.5851236844857 417.67676767676767,241.94053111022703 422.72727272727275,231.622741868125 427.77777777777777,227.0110470299481 432.8282828282828,237.74779451998097 437.8787878787879,252.50986454606468 442.92929292929296,217.72180567158378 447.979797979798,237.3390371283989 453.030303030303,245.6571969657145 458.0808080808081,248.4561857833911 463.13131313131316,271.266869941851 468.1818181818182,253.86291659458794 473.2323232323232,253.68450161687932 478.2828282828283,247.02774279051013 483.3333333333333,242.9624630539497 488.3838383838384,267.10158180971393 493.4343434343434,260.7469560393352 498.4848484848485,246.69874594087716 503.5353535353535,263.5881022422241 508.5858585858586,250.72411463464906 513.6363636363636,262.296655365376 518.6868686868686,281.0292894844557 523.7373737373737,279.77766133495413 528.7878787878788,279.7107018676388 533.8383838383838,239.00959275401735 538.8888888888889,268.1806108543574 543.939393939394,282.43233034486025 548.9898989898991,285.1080780473725 554.040404040404,278.0675023846874 559.090909090909,267.44773394566505 564.1414141414141,272.00828602893483 569.1919191919192,275.9652643660393 574.2424242424242,295.11830300830894 579.2929292929293,290.5628898179811 584.3434343434343,267.87527752970846 589.3939393939395,278.92442047570864 594.4444444444445,276.00854492246344 599.4949494949494,299.0288620639589 604.5454545454545,273.08908445288455 609.5959595959596,256.68253791356744 614.6464646464647,253.67819339500448 619.6969696969697,257.0081037059367 624.7474747474747,284.18578523745816 629.7979797979797,296.2111024397279 634.8484848484849,283.83352489642334 639.8989898989898,274.2890313407336 644.9494949494949,289.5500509453024 650,288.45135871149796 "/><text class="poloto_text" alignment-baseline="middle" text-anchor="start" font-size="large" x="675" y="300" >nosort_par</text><line class="poloto4stroke" stroke="black" x1="680" x2="730" y1="281.25" y2="281.25" /><polyline class="poloto4stroke" fill="none" stroke="black"  points="150,255.9772787079613 155.05050505050505,252.67144734150247 160.1010101010101,249.67119547420467 165.15151515151516,252.27312159487437 170.2020202020202,258.62748580483395 175.25252525252526,248.92037859793666 180.3030303030303,240.36629126250241 185.35353535353534,255.5280563809382 190.40404040404042,229.17652112641457 195.45454545454544,223.49082843518707 200.50505050505052,203.70319805821643 205.55555555555554,215.32378897654127 210.60606060606062,209.97506303477886 215.65656565656565,161.92801416200936 220.7070707070707,175.99133322115293 225.75757575757575,186.1272610423757 230.8080808080808,185.91304305905064 235.85858585858585,127.55526707549751 240.9090909090909,183.24523448455645 245.95959595959596,173.41708634719743 251.010101010101,145.8932526797249 256.06060606060606,158.53552936726024 261.1111111111111,148.1637663633608 266.16161616161617,175.2394239454871 271.21212121212125,148.99857490600616 276.26262626262627,156.39984238676854 281.3131313131313,188.63665631827655 286.3636363636364,160.93842339482546 291.4141414141414,168.159691149457 296.4646464646465,181.58981859143762 301.5151515151515,180.82052324084844 306.5656565656566,197.8716777403313 311.6161616161616,197.08388852951396 316.66666666666663,204.6991278190892 321.7171717171717,181.79009694301 326.7676767676768,204.2963401594277 331.8181818181818,188.82076408157954 336.86868686868684,209.91921219232606 341.9191919191919,191.88234417422632 346.969696969697,202.5915816625221 352.020202020202,187.97036961513126 357.07070707070704,209.77163057226906 362.1212121212121,210.00017283502206 367.17171717171715,217.32484927067978 372.22222222222223,224.04390563453967 377.27272727272725,221.05276222419286 382.32323232323233,211.47155789437295 387.37373737373736,199.2578402607439 392.42424242424244,222.99197117214402 397.47474747474746,217.7385147665986 402.52525252525254,204.08844578388448 407.57575757575756,217.1282327649762 412.62626262626264,241.09098286866438 417.67676767676767,225.43009892676628 422.72727272727275,238.8894749779763 427.77777777777777,228.47375443774433 432.8282828282828,246.1098657359082 437.8787878787879,258.14595307308616 442.92929292929296,230.34660396875367 447.979797979798,248.12000371518369 453.030303030303,248.4992509371171 458.0808080808081,238.21835710002935 463.13131313131316,262.48150165221557 468.1818181818182,233.96446152941147 473.2323232323232,247.74872639308234 478.2828282828283,249.12536503705465 483.3333333333333,243.9027112173468 488.3838383838384,275.9601716308184 493.4343434343434,261.7645183854665 498.4848484848485,260.31341195155716 503.5353535353535,247.6630422769337 508.5858585858586,238.05083534448505 513.6363636363636,259.93394932692553 518.6868686868686,276.41856395842046 523.7373737373737,275.20587753956573 528.7878787878788,275.9709417657267 533.8383838383838,233.8918092765018 538.8888888888889,277.89921133379244 543.939393939394,277.6976405660311 548.9898989898991,274.774056673373 554.040404040404,282.97736071484564 559.090909090909,267.1680796998189 564.1414141414141,279.9471371006889 569.1919191919192,266.0176754325478 574.2424242424242,290.6597287167133 579.2929292929293,283.4553085302597 584.3434343434343,250.7369926388179 589.3939393939395,283.29581821817555 594.4444444444445,229.84217700737233 599.4949494949494,285.88991291217627 604.5454545454545,286.7264292904999 609.5959595959596,188.29210431665464 614.6464646464647,280.0918569420418 619.6969696969697,259.59259759396207 624.7474747474747,291.35181758591733 629.7979797979797,287.84907738152174 634.8484848484849,307.3094956740727 639.8989898989898,283.53054561554734 644.9494949494949,287.3631288944615 650,294.89189938663054 "/><text class="poloto_text" alignment-baseline="middle" text-anchor="start" font-size="large" x="675" y="350" >sweep</text><line class="poloto5stroke" stroke="black" x1="680" x2="730" y1="331.25" y2="331.25" /><polyline class="poloto5stroke" fill="none" stroke="black"  points="150,273.17378387098444 155.05050505050505,288.9965429405535 160.1010101010101,277.1747966739567 165.15151515151516,290.46489697622303 170.2020202020202,282.70270688877827 175.25252525252526,299.6014639793094 180.3030303030303,278.41951655120994 185.35353535353534,275.90598246632294 190.40404040404042,289.5348804409888 195.45454545454544,267.7106637105894 200.50505050505052,267.6101629659885 205.55555555555554,263.93900862344185 210.60606060606062,240.0756360931428 215.65656565656565,254.69752512044215 220.7070707070707,226.5091587432237 225.75757575757575,238.8223308797769 230.8080808080808,226.7697344643753 235.85858585858585,210.5322021135825 240.9090909090909,210.40942257562853 245.95959595959596,198.8543602352669 251.010101010101,213.73670189646174 256.06060606060606,191.73933216855178 261.1111111111111,208.35072667382383 266.16161616161617,189.23167550014324 271.21212121212125,183.80831252346667 276.26262626262627,187.37835068513184 281.3131313131313,184.82904436644242 286.3636363636364,180.47492499754978 291.4141414141414,201.0064485926331 296.4646464646465,181.57995622504308 301.5151515151515,188.30653629743173 306.5656565656566,202.31137352402348 311.6161616161616,199.10944318761526 316.66666666666663,182.1967926230525 321.7171717171717,184.79157968286876 326.7676767676768,204.30255606586047 331.8181818181818,203.46734748963283 336.86868686868684,198.7318884154531 341.9191919191919,189.12262019124375 346.969696969697,186.97399366295517 352.020202020202,191.9669974346051 357.07070707070704,200.80064670044348 362.1212121212121,208.12338451181768 367.17171717171715,197.25073330514974 372.22222222222223,201.88673787640528 377.27272727272725,196.93709159071454 382.32323232323233,191.62243004707625 387.37373737373736,189.77304402425986 392.42424242424244,196.97629488178055 397.47474747474746,204.8147067525617 402.52525252525254,208.50875532474183 407.57575757575756,199.61510102155754 412.62626262626264,207.67388523846844 417.67676767676767,213.12975863666088 422.72727272727275,206.00612984792616 427.77777777777777,212.75294238803534 432.8282828282828,208.8593847596334 437.8787878787879,214.16576868529935 442.92929292929296,224.89390006740564 447.979797979798,220.20819901650202 453.030303030303,228.12649451648838 458.0808080808081,231.77763179401265 463.13131313131316,233.84371293118298 468.1818181818182,231.06464886308657 473.2323232323232,221.08374944091457 478.2828282828283,223.4833970421004 483.3333333333333,223.7473115050735 488.3838383838384,226.6452470907429 493.4343434343434,239.94879467573764 498.4848484848485,243.16534162380705 503.5353535353535,227.99492962563062 508.5858585858586,233.15556285417395 513.6363636363636,234.82482606360335 518.6868686868686,238.28285482222276 523.7373737373737,249.49207274477348 528.7878787878788,243.97536347025647 533.8383838383838,240.13044069391876 538.8888888888889,245.3776658071244 543.939393939394,253.8897342305095 548.9898989898991,246.2838649583044 554.040404040404,250.00923923716056 559.090909090909,250.3000328796833 564.1414141414141,253.73049009293752 569.1919191919192,247.91958689044816 574.2424242424242,248.36607052602312 579.2929292929293,255.63323444127076 584.3434343434343,255.53659555932973 589.3939393939395,245.4873519382114 594.4444444444445,251.46299204707594 599.4949494949494,259.8979001467969 604.5454545454545,252.45258281425984 609.5959595959596,251.09505346679614 614.6464646464647,233.84597465951367 619.6969696969697,199.0533307847433 624.7474747474747,251.20663206444559 629.7979797979797,253.70027217156635 634.8484848484849,266.6594216140093 639.8989898989898,244.97770915435308 644.9494949494949,254.43048731834566 650,243.2716736271655 "/><text class="poloto_text" alignment-baseline="start" text-anchor="middle" font-size="x-large" x="400" y="37.5" >Bench of space partitioning algs with abspiral(3000,grow)</text><text class="poloto_text" alignment-baseline="start" text-anchor="middle" font-size="x-large" x="400" y="481.25" >Grow</text><text class="poloto_text" alignment-baseline="start" text-anchor="middle" font-size="x-large" transform="rotate(-90,37.5,250)" x="37.5" y="250" >Time in Seconds</text><path stroke="black" fill="none" class="poloto_axis_lines"  d="M 150 100 L 150 400 L 650 400 "/></svg>