<svg class="poloto" width="800" height="500" viewBox="0 0 800 500" xmlns="http://www.w3.org/2000/svg" ><rect class="poloto_background" fill="white" x="0" y="0" width="800" height="500" /><style><style>.poloto {
            font-family: "Arial";
            stroke-width:2;
            }
            .poloto_text{fill: var(--poloto_fg_color,black);  }
            .poloto_axis_lines{stroke: var(--poloto_fg_color,black);stoke-width:3;fill:none}
            .poloto_background{fill: var(--poloto_bg_color,aliceblue); }
            .poloto0stroke{stroke:  var(--poloto_color0,blue); }
            .poloto1stroke{stroke:  var(--poloto_color1,red); }
            .poloto2stroke{stroke:  var(--poloto_color2,green); }
            .poloto3stroke{stroke:  var(--poloto_color3,gold); }
            .poloto4stroke{stroke:  var(--poloto_color4,aqua); }
            .poloto5stroke{stroke:  var(--poloto_color5,brown); }
            .poloto6stroke{stroke:  var(--poloto_color6,lime); }
            .poloto7stroke{stroke:  var(--poloto_color7,chocolate); }
            .poloto0fill{fill:var(--poloto_color0,blue);}
            .poloto1fill{fill:var(--poloto_color1,red);}
            .poloto2fill{fill:var(--poloto_color2,green);}
            .poloto3fill{fill:var(--poloto_color3,gold);}
            .poloto4fill{fill:var(--poloto_color4,aqua);}
            .poloto5fill{fill:var(--poloto_color5,brown);}
            .poloto6fill{fill:var(--poloto_color6,lime);}
            .poloto7fill{fill:var(--poloto_color7,chocolate);}</style></style><line class="poloto_axis_lines" stroke="black" x1="150" x2="150" y1="400" y2="405" /><text class="poloto_text" alignment-baseline="start" text-anchor="middle" x="150" y="430" >0</text><line class="poloto_axis_lines" stroke="black" x1="251.010101010101" x2="251.010101010101" y1="400" y2="405" /><text class="poloto_text" alignment-baseline="start" text-anchor="middle" x="251.010101010101" y="430" >2000</text><line class="poloto_axis_lines" stroke="black" x1="352.020202020202" x2="352.020202020202" y1="400" y2="405" /><text class="poloto_text" alignment-baseline="start" text-anchor="middle" x="352.020202020202" y="430" >4000</text><line class="poloto_axis_lines" stroke="black" x1="453.030303030303" x2="453.030303030303" y1="400" y2="405" /><text class="poloto_text" alignment-baseline="start" text-anchor="middle" x="453.030303030303" y="430" >6000</text><line class="poloto_axis_lines" stroke="black" x1="554.040404040404" x2="554.040404040404" y1="400" y2="405" /><text class="poloto_text" alignment-baseline="start" text-anchor="middle" x="554.040404040404" y="430" >8000</text><line class="poloto_axis_lines" stroke="black" x1="150" x2="144" y1="364.17826128543095" y2="364.17826128543095" /><text class="poloto_text" alignment-baseline="middle" text-anchor="end" x="135" y="364.17826128543095" >0.002</text><line class="poloto_axis_lines" stroke="black" x1="150" x2="144" y1="328.35462391808136" y2="328.35462391808136" /><text class="poloto_text" alignment-baseline="middle" text-anchor="end" x="135" y="328.35462391808136" >0.004</text><line class="poloto_axis_lines" stroke="black" x1="150" x2="144" y1="292.5309865507318" y2="292.5309865507318" /><text class="poloto_text" alignment-baseline="middle" text-anchor="end" x="135" y="292.5309865507318" >0.006</text><line class="poloto_axis_lines" stroke="black" x1="150" x2="144" y1="256.70734918338223" y2="256.70734918338223" /><text class="poloto_text" alignment-baseline="middle" text-anchor="end" x="135" y="256.70734918338223" >0.008</text><line class="poloto_axis_lines" stroke="black" x1="150" x2="144" y1="220.8837118160327" y2="220.8837118160327" /><text class="poloto_text" alignment-baseline="middle" text-anchor="end" x="135" y="220.8837118160327" >0.010</text><line class="poloto_axis_lines" stroke="black" x1="150" x2="144" y1="185.06007444868317" y2="185.06007444868317" /><text class="poloto_text" alignment-baseline="middle" text-anchor="end" x="135" y="185.06007444868317" >0.012</text><line class="poloto_axis_lines" stroke="black" x1="150" x2="144" y1="149.23643708133363" y2="149.23643708133363" /><text class="poloto_text" alignment-baseline="middle" text-anchor="end" x="135" y="149.23643708133363" >0.014</text><line class="poloto_axis_lines" stroke="black" x1="150" x2="144" y1="113.4127997139841" y2="113.4127997139841" /><text class="poloto_text" alignment-baseline="middle" text-anchor="end" x="135" y="113.4127997139841" >0.016</text><text class="poloto_text" alignment-baseline="middle" text-anchor="start" font-size="large" x="675" y="100" >brocc</text><line class="poloto0stroke" stroke="black" x1="680" x2="730" y1="81.25" y2="81.25" /><polyline class="poloto0stroke" fill="none" stroke="black"  points="150,399.98624372325094 155.05050505050505,399.4956031858677 160.1010101010101,398.54405573011616 165.15151515151516,397.6134830140432 170.2020202020202,396.6395995203931 175.25252525252526,395.68470255454775 180.3030303030303,394.2494285234249 185.35353535353534,393.28437555638584 190.40404040404042,392.46562632435507 195.45454545454544,391.40404656642977 200.50505050505052,390.4240730544272 205.55555555555554,389.0137501867307 210.6060606060606,387.93379290283593 215.65656565656565,386.7344533474144 220.7070707070707,386.1113907345028 225.75757575757575,384.73366737681056 230.8080808080808,383.75335354025304 235.85858585858585,382.9177134632036 240.9090909090909,381.64137099926097 245.95959595959596,380.948111968928 251.010101010101,379.7125726279468 256.06060606060606,376.99980977648556 261.1111111111111,375.9722624740592 266.16161616161617,375.2911834804312 271.2121212121212,373.7095340670253 276.26262626262627,372.68813051840743 281.3131313131313,371.9419778875016 286.3636363636364,371.0554503335718 291.4141414141414,369.28424014303664 296.4646464646464,368.2668488418039 301.5151515151515,367.301903345677 306.5656565656566,366.3557473473492 311.6161616161616,365.78208553036717 316.66666666666663,364.0493320145458 321.7171717171717,363.29094561147906 326.7676767676768,362.2620728344701 331.8181818181818,361.1643470264411 336.86868686868684,360.26633799673505 341.9191919191919,359.2152008291023 346.969696969697,357.9883666320013 352.020202020202,357.3138254521928 357.07070707070704,354.23589435322754 362.1212121212121,353.3465367319457 367.1717171717172,351.7870800618889 372.22222222222223,350.7761370153823 377.27272727272725,349.63237783333625 382.32323232323233,348.8183752332567 387.37373737373736,347.7766775940702 392.4242424242424,346.7380966113347 397.47474747474746,345.0485464021784 402.52525252525254,344.1068862703402 407.57575757575756,342.8735859066945 412.62626262626264,341.7599544036744 417.67676767676767,340.4282285963618 422.72727272727275,339.5995562167803 427.77777777777777,338.7845863784918 432.8282828282828,337.45998947501533 437.8787878787879,335.63570656572045 442.9292929292929,335.09777882701235 447.979797979798,333.6871335465795 453.030303030303,333.927420594221 458.0808080808081,332.16905317768203 463.1313131313131,330.6838409960691 468.1818181818182,329.4606428981609 473.2323232323232,328.89797893785067 478.2828282828283,327.8809100493542 483.3333333333333,326.29130778845285 488.3838383838384,325.43533779719735 493.4343434343434,324.3940700416593 498.4848484848485,323.14083382381864 503.5353535353535,322.12722191632815 508.5858585858586,321.79768027618593 513.6363636363636,320.3468766982643 518.6868686868687,319.2917989305211 523.7373737373737,318.0320965461357 528.7878787878788,316.27983705976783 533.8383838383838,315.60214339987095 538.8888888888889,314.0965296567773 543.939393939394,313.2623762606786 548.989898989899,311.5301421875991 554.040404040404,310.76532544162484 559.090909090909,309.9318168709987 564.1414141414141,301.88763701197905 569.1919191919192,300.81908955658577 574.2424242424242,299.0541485025899 579.2929292929293,298.6050275609154 584.3434343434344,296.99461176670354 589.3939393939394,295.91589039829796 594.4444444444445,294.9377438918011 599.4949494949494,293.79744169076105 604.5454545454545,292.06080131028534 609.5959595959596,291.18822706311016 614.6464646464647,290.1841621549781 619.6969696969697,289.0926159243949 624.7474747474747,288.0280628045681 629.7979797979798,287.531977074305 634.8484848484848,286.10408271247985 639.8989898989898,284.09378556615496 644.9494949494949,283.70219738609245 650,283.30294294763337 "/><text class="poloto_text" alignment-baseline="middle" text-anchor="start" font-size="large" x="675" y="150" >brocc_par</text><line class="poloto1stroke" stroke="black" x1="680" x2="730" y1="131.25" y2="131.25" /><polyline class="poloto1stroke" fill="none" stroke="black"  points="150,399.96295835896217 155.05050505050505,399.4537253537853 160.1010101010101,398.4902665386091 165.15151515151516,397.60325536557485 170.2020202020202,396.64773148607554 175.25252525252526,395.74133972522554 180.3030303030303,394.22852543102107 185.35353535353534,393.26746679954846 190.40404040404042,392.41491796566163 195.45454545454544,391.36464056532566 200.50505050505052,390.4314706355436 205.55555555555554,389.01708178500587 210.6060606060606,387.97520502763257 215.65656565656565,386.7759371194858 220.7070707070707,386.21569125469784 225.75757575757575,385.03369033976213 230.8080808080808,383.8928328723428 235.85858585858585,383.1216395189172 240.9090909090909,381.93018116371655 245.95959595959596,381.1522529664659 251.010101010101,379.992176117599 256.06060606060606,376.35208258924655 261.1111111111111,378.21632676602474 266.16161616161617,375.9630557992558 271.2121212121212,374.3580851979238 276.26262626262627,375.3186422984732 281.3131313131313,374.51889750606585 286.3636363636364,376.0812558907494 291.4141414141414,372.8741447554374 296.4646464646464,372.2417321731729 301.5151515151515,371.5793710300693 306.5656565656566,370.05726050196796 311.6161616161616,369.89351065556184 316.66666666666663,369.3073822127759 321.7171717171717,368.6745576586817 326.7676767676768,368.40217263195905 331.8181818181818,368.10001816258415 336.86868686868684,346.1933265578894 341.9191919191919,365.77678363203677 346.969696969697,365.2734615270255 352.020202020202,364.7850957906152 357.07070707070704,370.19399932579915 362.1212121212121,371.6254581395424 367.1717171717172,370.4442990800848 372.22222222222223,369.02593380579935 377.27272727272725,368.5371560975592 382.32323232323233,368.65845493368505 387.37373737373736,368.26434118718817 392.4242424242424,368.0575850641225 397.47474747474746,368.250817764082 402.52525252525254,368.352968866035 407.57575757575756,368.01477581746855 412.62626262626264,367.10155965370006 417.67676767676767,367.85227979837026 422.72727272727275,364.8935697645635 427.77777777777777,364.53219882262033 432.8282828282828,365.01307741882096 437.8787878787879,365.9387960320306 442.9292929292929,365.88335895320466 447.979797979798,352.76587139385833 453.030303030303,366.09487962004016 458.0808080808081,365.2649175895134 463.1313131313131,360.83358738262837 468.1818181818182,362.5326487675057 473.2323232323232,363.20074169258805 478.2828282828283,361.2301371364662 483.3333333333333,361.0644349018235 488.3838383838384,360.54852078827764 493.4343434343434,359.42052400667325 498.4848484848485,360.98094791493895 503.5353535353535,358.6786343886141 508.5858585858586,361.3672700203084 513.6363636363636,361.24817433788064 518.6868686868687,359.0689508295501 523.7373737373737,359.9712407839215 528.7878787878788,359.22566133121353 533.8383838383838,362.11164938116457 538.8888888888889,358.39122134601587 543.939393939394,356.5924986019826 548.989898989899,355.51320405537905 554.040404040404,357.5593069272526 559.090909090909,356.10932729299043 564.1414141414141,352.48492451780487 569.1919191919192,351.9313597613859 574.2424242424242,350.6046671751235 579.2929292929293,351.73703444048675 584.3434343434344,348.02203368639914 589.3939393939394,350.63431123504495 594.4444444444445,348.78600857689526 599.4949494949494,342.58765954504696 604.5454545454545,346.2718698828173 609.5959595959596,348.94999127694433 614.6464646464647,348.73325827087183 619.6969696969697,337.92530270077987 624.7474747474747,347.99246127375244 629.7979797979798,346.6934424473563 634.8484848484848,347.1494057037679 639.8989898989898,347.4651194198864 644.9494949494949,349.0385473085164 650,346.13616994446977 "/><text class="poloto_text" alignment-baseline="middle" text-anchor="start" font-size="large" x="675" y="200" >naive</text><line class="poloto2stroke" stroke="black" x1="680" x2="730" y1="181.25" y2="181.25" /><polyline class="poloto2stroke" fill="none" stroke="black"  points="150,400 155.05050505050505,399.426732243029 160.1010101010101,397.80290049662307 165.15151515151516,395.4649961865738 170.2020202020202,392.63879778738885 175.25252525252526,389.52078003820947 180.3030303030303,385.77491722052997 185.35353535353534,382.11286380247134 190.40404040404042,377.8428474346514 195.45454545454544,373.3319887528108 200.50505050505052,367.56647881945355 205.55555555555554,361.84419010458 210.6060606060606,356.00547456826246 215.65656565656565,349.63474219340253 220.7070707070707,342.68624619508194 225.75757575757575,335.04630026011546 230.8080808080808,327.8344647035075 235.85858585858585,319.6916623708155 240.9090909090909,311.2953003328374 245.95959595959596,301.1403917601335 251.010101010101,292.33519246070057 256.06060606060606,282.31318958262955 261.1111111111111,272.1879788053032 266.16161616161617,261.0470425258817 271.2121212121212,250.05790890980433 276.26262626262627,236.84715451057207 281.3131313131313,225.39236734417523 286.3636363636364,213.07958615101165 291.4141414141414,200.31454944790403 296.4646464646464,186.2592707095552 301.5151515151515,172.8883309158349 "/><text class="poloto_text" alignment-baseline="middle" text-anchor="start" font-size="large" x="675" y="250" >nosort</text><line class="poloto3stroke" stroke="black" x1="680" x2="730" y1="231.25" y2="231.25" /><polyline class="poloto3stroke" fill="none" stroke="black"  points="150,399.99208297614183 155.05050505050505,399.3547088201019 160.1010101010101,398.07456905059837 165.15151515151516,396.6947141864828 170.2020202020202,394.38134906803015 175.25252525252526,392.9429404686377 180.3030303030303,391.07231968440806 185.35353535353534,389.28932351717907 190.40404040404042,387.77874820031 195.45454545454544,384.80355929331427 200.50505050505052,383.0393705357031 205.55555555555554,380.8287655210387 210.6060606060606,377.3107589488342 215.65656565656565,376.05549869548224 220.7070707070707,374.4161553140963 225.75757575757575,369.9444697797169 230.8080808080808,368.248328021285 235.85858585858585,366.7032903652686 240.9090909090909,363.0452491945951 245.95959595959596,361.1308340136839 251.010101010101,359.0135137507241 256.06060606060606,356.56629361124834 261.1111111111111,351.1937510679922 266.16161616161617,352.79537215923034 271.2121212121212,348.8246264579773 276.26262626262627,345.82722689581374 281.3131313131313,341.9057386959408 286.3636363636364,339.8143905700723 291.4141414141414,334.6990975667511 296.4646464646464,333.9117656646915 301.5151515151515,333.1946122682345 306.5656565656566,331.0638760530806 311.6161616161616,327.79738723883224 316.66666666666663,325.1823691819278 321.7171717171717,320.2393520507062 326.7676767676768,318.7607314183689 331.8181818181818,316.4263915602376 336.86868686868684,308.7832573215454 341.9191919191919,312.4993686083914 346.969696969697,308.86466653746277 352.020202020202,305.2315048829409 357.07070707070704,298.3463450754858 362.1212121212121,293.01664760252095 367.1717171717172,294.3704586822705 372.22222222222223,290.904826267897 377.27272727272725,291.0589932913074 382.32323232323233,284.48979796543233 387.37373737373736,281.7495046486543 392.4242424242424,279.920260165584 397.47474747474746,273.53149058930956 402.52525252525254,277.37434590516125 407.57575757575756,265.58364049117074 412.62626262626264,266.4144981126317 417.67676767676767,260.8424716446954 422.72727272727275,257.920659957377 427.77777777777777,257.62604636366797 432.8282828282828,253.55463624141265 437.8787878787879,250.39409583467824 442.9292929292929,246.98239590636132 447.979797979798,248.08845071007823 453.030303030303,241.43315327179073 458.0808080808081,237.7400407601346 463.1313131313131,233.4455389361741 468.1818181818182,227.3918278401965 473.2323232323232,226.95626614526557 478.2828282828283,221.57276156897504 483.3333333333333,221.10175238486912 488.3838383838384,217.84088788168742 493.4343434343434,211.20815933494134 498.4848484848485,211.5881585683155 503.5353535353535,206.6001469485605 508.5858585858586,203.64195635749553 513.6363636363636,199.86000122516842 518.6868686868687,194.23436468391193 523.7373737373737,192.53177467075392 528.7878787878788,192.9825076761099 533.8383838383838,186.37365558366915 538.8888888888889,184.36876780658676 543.939393939394,176.1116164234182 548.989898989899,181.41509099383012 554.040404040404,170.51241772653884 559.090909090909,165.60404205265144 564.1414141414141,169.61317278134362 569.1919191919192,170.1396548679129 574.2424242424242,165.44306853814126 579.2929292929293,151.81941089461296 584.3434343434344,155.69568966412834 589.3939393939394,150.04504822398945 594.4444444444445,152.71602280246168 599.4949494949494,150.25909445725938 604.5454545454545,144.83414193253478 609.5959595959596,137.55633714771483 614.6464646464647,139.4827174235067 619.6969696969697,127.0866641852827 624.7474747474747,123.4219777298776 629.7979797979798,120.90296702111766 634.8484848484848,125.65269771692374 639.8989898989898,113.97299184331604 644.9494949494949,100 650,114.30878470817885 "/><text class="poloto_text" alignment-baseline="middle" text-anchor="start" font-size="large" x="675" y="300" >nosort_par</text><line class="poloto4stroke" stroke="black" x1="680" x2="730" y1="281.25" y2="281.25" /><polyline class="poloto4stroke" fill="none" stroke="black"  points="150,399.98590339869594 155.05050505050505,399.36061972026755 160.1010101010101,397.9933568646866 165.15151515151516,396.6492719024823 170.2020202020202,394.5024687859692 175.25252525252526,392.9774565432411 180.3030303030303,390.92257688021255 185.35353535353534,389.1322906027793 190.40404040404042,387.44891997106885 195.45454545454544,384.55001749984683 200.50505050505052,382.59648290693053 205.55555555555554,380.718840689777 210.6060606060606,377.2929725128813 215.65656565656565,375.94761581155046 220.7070707070707,374.0729469562984 225.75757575757575,369.8835516843737 230.8080808080808,368.2503878804336 235.85858585858585,366.2072941940989 240.9090909090909,362.7507072481607 245.95959595959596,361.0766507621658 251.010101010101,358.65971950808415 256.06060606060606,361.8509428602237 261.1111111111111,357.29942434997116 266.16161616161617,360.74877492116116 271.2121212121212,356.6152645235295 276.26262626262627,353.390008715891 281.3131313131313,350.48437140084394 286.3636363636364,348.77277174288804 291.4141414141414,346.62607609728695 296.4646464646464,345.8244147402804 301.5151515151515,346.152917494939 306.5656565656566,344.7412870644786 311.6161616161616,343.14735014345575 316.66666666666663,338.6420441254071 321.7171717171717,336.7923622572187 326.7676767676768,336.68643176152347 331.8181818181818,333.9787737783871 336.86868686868684,325.176923989048 341.9191919191919,333.5241359965581 346.969696969697,330.15798582315375 352.020202020202,327.7115538037001 357.07070707070704,337.48366889931515 362.1212121212121,333.3042505103973 367.1717171717172,333.4284510611499 372.22222222222223,332.93044876628767 377.27272727272725,333.4740366396998 382.32323232323233,329.5673794256969 387.37373737373736,331.998783429275 392.4242424242424,330.8109432614484 397.47474747474746,325.4122852865515 402.52525252525254,327.09252134999224 407.57575757575756,320.496440384273 412.62626262626264,326.8282862007707 417.67676767676767,319.42773172251157 422.72727272727275,319.0962735177701 427.77777777777777,319.9901090937229 432.8282828282828,321.65268410394157 437.8787878787879,314.34785038472796 442.9292929292929,316.34793779440315 447.979797979798,311.04027185841926 453.030303030303,314.7114782158252 458.0808080808081,309.42666776048173 463.1313131313131,308.306104383631 468.1818181818182,305.3311125066408 473.2323232323232,305.52957545765594 478.2828282828283,302.54295881034 483.3333333333333,303.19639986773916 488.3838383838384,301.6897651509805 493.4343434343434,294.5666468323128 498.4848484848485,298.59499694245255 503.5353535353535,298.8273490544172 508.5858585858586,295.7529644955512 513.6363636363636,293.2080712087934 518.6868686868687,292.8711319875348 523.7373737373737,287.12620273384505 528.7878787878788,262.70485299233053 533.8383838383838,289.58916736194374 538.8888888888889,287.66624406715783 543.939393939394,280.6527639906529 548.989898989899,284.90592533709145 554.040404040404,278.0472750212882 559.090909090909,279.490537723544 564.1414141414141,280.00756236984824 569.1919191919192,276.96414734548637 574.2424242424242,276.221254665581 579.2929292929293,266.9245192378306 584.3434343434344,272.9154314975033 589.3939393939394,267.7825670000534 594.4444444444445,267.83791451978595 599.4949494949494,271.2238035173797 604.5454545454545,271.62250268945957 609.5959595959596,262.0441576483645 614.6464646464647,266.9771083374859 619.6969696969697,255.92159352136684 624.7474747474747,256.5258487246606 629.7979797979798,256.3783807214379 634.8484848484848,262.2607652717062 639.8989898989898,250.92949800695192 644.9494949494949,245.0242579760433 650,231.1970683368124 "/><text class="poloto_text" alignment-baseline="middle" text-anchor="start" font-size="large" x="675" y="350" >sweep</text><line class="poloto5stroke" stroke="black" x1="680" x2="730" y1="331.25" y2="331.25" /><polyline class="poloto5stroke" fill="none" stroke="black"  points="150,399.9703917637159 155.05050505050505,399.418295776429 160.1010101010101,398.23719045242746 165.15151515151516,396.6094360177298 170.2020202020202,394.8631590788023 175.25252525252526,392.87240372666133 180.3030303030303,390.92060658015737 185.35353535353534,388.6460026373362 190.40404040404042,386.3557079413481 195.45454545454544,384.04345335565387 200.50505050505052,381.6222053532694 205.55555555555554,378.95819847226517 210.6060606060606,376.1558586155669 215.65656565656565,373.5488113179767 220.7070707070707,370.71954999779683 225.75757575757575,367.70586859244986 230.8080808080808,364.28680690665396 235.85858585858585,361.3874566399649 240.9090909090909,358.4538231523153 245.95959595959596,354.88175871132347 251.010101010101,351.68474984174907 256.06060606060606,348.45763120496747 261.1111111111111,344.80904747455895 266.16161616161617,341.2529961994703 271.2121212121212,337.4057703998599 276.26262626262627,333.956527299582 281.3131313131313,330.2647044388711 286.3636363636364,327.0840848833923 291.4141414141414,323.150327087721 296.4646464646464,319.4208714959557 301.5151515151515,314.8610777254713 306.5656565656566,311.60950945618646 311.6161616161616,307.3624739517377 316.66666666666663,302.4426884493488 321.7171717171717,299.0319020237847 326.7676767676768,294.453497873688 331.8181818181818,290.33623349560247 336.86868686868684,284.48893819813554 341.9191919191919,281.41500143473667 346.969696969697,276.2442176171335 352.020202020202,272.554974058313 357.07070707070704,268.1972256025805 362.1212121212121,263.7954857201608 367.1717171717172,258.8349508302665 372.22222222222223,254.24726835809165 377.27272727272725,249.7835356712078 382.32323232323233,245.28874389072647 387.37373737373736,240.65287862629248 392.4242424242424,235.4196900323953 397.47474747474746,231.1065599170038 402.52525252525254,226.46084315229382 407.57575757575756,220.47851065377063 412.62626262626264,215.44745693371877 417.67676767676767,210.3616109603135 422.72727272727275,204.4639297168894 427.77777777777777,200.25621065445128 432.8282828282828,194.83903185903543 437.8787878787879,189.0313037690407 442.9292929292929,183.94108731187666 447.979797979798,151.2954543744781 453.030303030303,174.5681908310833 "/><text class="poloto_text" alignment-baseline="start" text-anchor="middle" font-size="x-large" x="400" y="37.5" >Bench of space partitioning algs with abspiral(x,0.05)</text><text class="poloto_text" alignment-baseline="start" text-anchor="middle" font-size="x-large" x="400" y="481.25" >Number of Elements</text><text class="poloto_text" alignment-baseline="start" text-anchor="middle" font-size="x-large" transform="rotate(-90,37.5,250)" x="37.5" y="250" >Time in Seconds</text><path stroke="black" fill="none" class="poloto_axis_lines"  d="M 150 100 L 150 400 L 650 400 "/></svg>