<svg class="poloto" width="800" height="500" viewBox="0 0 800 500" xmlns="http://www.w3.org/2000/svg"><circle  r="1e5" class="poloto_background" /><text  class="poloto_text poloto_legend_text" x="675" y="100" >brocc</text><line  class="poloto_scatter poloto_legend_icon poloto0stroke poloto0legend" stroke="black" x1="685" x2="685" y1="81.25" y2="81.25" /><path  class="poloto_scatter poloto0stroke" d=" M 150.00 399.76 h 0 M 155.05 396.84 h 0 M 160.10 393.81 h 0 M 165.15 389.72 h 0 M 170.20 389.21 h 0 M 175.25 385.90 h 0 M 180.30 386.94 h 0 M 185.35 384.94 h 0 M 190.40 389.34 h 0 M 195.45 385.87 h 0 M 200.51 386.48 h 0 M 205.56 384.65 h 0 M 210.61 378.19 h 0 M 215.66 381.71 h 0 M 220.71 380.03 h 0 M 225.76 378.60 h 0 M 230.81 377.26 h 0 M 235.86 374.60 h 0 M 240.91 374.12 h 0 M 245.96 371.08 h 0 M 251.01 371.27 h 0 M 256.06 368.55 h 0 M 261.11 368.64 h 0 M 266.16 367.00 h 0 M 271.21 362.77 h 0 M 276.26 360.34 h 0 M 281.31 361.77 h 0 M 286.36 360.61 h 0 M 291.41 357.43 h 0 M 296.46 358.63 h 0 M 301.52 355.05 h 0 M 306.57 354.37 h 0 M 311.62 351.71 h 0 M 316.67 350.93 h 0 M 321.72 350.03 h 0 M 326.77 348.07 h 0 M 331.82 348.37 h 0 M 336.87 346.50 h 0 M 341.92 345.29 h 0 M 346.97 330.86 h 0 M 352.02 341.87 h 0 M 357.07 340.98 h 0 M 362.12 335.87 h 0 M 367.17 336.01 h 0 M 372.22 335.95 h 0 M 377.27 332.95 h 0 M 382.32 332.51 h 0 M 387.37 322.03 h 0 M 392.42 326.94 h 0 M 397.47 327.89 h 0 M 402.53 325.17 h 0 M 407.58 322.78 h 0 M 412.63 321.85 h 0 M 417.68 320.20 h 0 M 422.73 319.74 h 0 M 427.78 318.39 h 0 M 432.83 316.88 h 0 M 437.88 314.72 h 0 M 442.93 314.07 h 0 M 447.98 310.73 h 0 M 453.03 309.63 h 0 M 458.08 307.38 h 0 M 463.13 305.97 h 0 M 468.18 305.51 h 0 M 473.23 303.54 h 0 M 478.28 301.15 h 0 M 483.33 294.18 h 0 M 488.38 298.50 h 0 M 493.43 294.29 h 0 M 498.48 296.39 h 0 M 503.54 290.83 h 0 M 508.59 288.17 h 0 M 513.64 289.31 h 0 M 518.69 283.03 h 0 M 523.74 286.04 h 0 M 528.79 284.33 h 0 M 533.84 281.82 h 0 M 538.89 280.32 h 0 M 543.94 278.42 h 0 M 548.99 278.66 h 0 M 554.04 274.29 h 0 M 559.09 274.43 h 0 M 564.14 275.20 h 0 M 569.19 273.67 h 0 M 574.24 272.51 h 0 M 579.29 272.05 h 0 M 584.34 264.69 h 0 M 589.39 264.40 h 0 M 594.44 263.86 h 0 M 599.49 264.68 h 0 M 604.55 262.43 h 0 M 609.60 262.20 h 0 M 614.65 259.49 h 0 M 619.70 255.36 h 0 M 624.75 258.38 h 0 M 629.80 256.15 h 0 M 634.85 251.69 h 0 M 639.90 242.37 h 0 M 644.95 248.03 h 0 M 650.00 248.07 h 0" /><text  class="poloto_text poloto_legend_text" x="675" y="150" >brocc_par</text><line  class="poloto_scatter poloto_legend_icon poloto1stroke poloto1legend" stroke="black" x1="685" x2="685" y1="131.25" y2="131.25" /><path  class="poloto_scatter poloto1stroke" d=" M 150.00 399.46 h 0 M 155.05 396.72 h 0 M 160.10 393.10 h 0 M 165.15 390.55 h 0 M 170.20 386.75 h 0 M 175.25 385.47 h 0 M 180.30 387.23 h 0 M 185.35 384.19 h 0 M 190.40 389.16 h 0 M 195.45 385.65 h 0 M 200.51 386.33 h 0 M 205.56 384.39 h 0 M 210.61 379.97 h 0 M 215.66 381.53 h 0 M 220.71 378.70 h 0 M 225.76 377.90 h 0 M 230.81 376.96 h 0 M 235.86 374.75 h 0 M 240.91 374.47 h 0 M 245.96 370.53 h 0 M 251.01 370.08 h 0 M 256.06 368.00 h 0 M 261.11 367.20 h 0 M 266.16 366.57 h 0 M 271.21 363.10 h 0 M 276.26 347.71 h 0 M 281.31 362.43 h 0 M 286.36 367.32 h 0 M 291.41 366.79 h 0 M 296.46 361.76 h 0 M 301.52 363.33 h 0 M 306.57 363.16 h 0 M 311.62 359.57 h 0 M 316.67 364.31 h 0 M 321.72 360.52 h 0 M 326.77 353.94 h 0 M 331.82 356.76 h 0 M 336.87 353.51 h 0 M 341.92 351.84 h 0 M 346.97 350.59 h 0 M 352.02 349.99 h 0 M 357.07 348.32 h 0 M 362.12 349.53 h 0 M 367.17 347.07 h 0 M 372.22 345.37 h 0 M 377.27 344.84 h 0 M 382.32 341.98 h 0 M 387.37 340.76 h 0 M 392.42 340.06 h 0 M 397.47 339.40 h 0 M 402.53 345.83 h 0 M 407.58 344.03 h 0 M 412.63 355.76 h 0 M 417.68 356.45 h 0 M 422.73 330.95 h 0 M 427.78 344.77 h 0 M 432.83 348.37 h 0 M 437.88 346.95 h 0 M 442.93 353.28 h 0 M 447.98 347.91 h 0 M 453.03 345.39 h 0 M 458.08 346.47 h 0 M 463.13 347.87 h 0 M 468.18 340.90 h 0 M 473.23 342.48 h 0 M 478.28 346.04 h 0 M 483.33 343.88 h 0 M 488.38 344.88 h 0 M 493.43 339.68 h 0 M 498.48 337.42 h 0 M 503.54 340.83 h 0 M 508.59 333.64 h 0 M 513.64 335.22 h 0 M 518.69 337.75 h 0 M 523.74 334.21 h 0 M 528.79 306.67 h 0 M 533.84 338.34 h 0 M 538.89 338.70 h 0 M 543.94 337.77 h 0 M 548.99 329.89 h 0 M 554.04 330.58 h 0 M 559.09 334.36 h 0 M 564.14 330.96 h 0 M 569.19 331.45 h 0 M 574.24 337.94 h 0 M 579.29 327.67 h 0 M 584.34 320.77 h 0 M 589.39 327.00 h 0 M 594.44 332.18 h 0 M 599.49 334.65 h 0 M 604.55 321.30 h 0 M 609.60 326.09 h 0 M 614.65 331.99 h 0 M 619.70 316.05 h 0 M 624.75 329.23 h 0 M 629.80 331.27 h 0 M 634.85 322.68 h 0 M 639.90 322.04 h 0 M 644.95 317.95 h 0 M 650.00 319.95 h 0" /><text  class="poloto_text poloto_legend_text" x="675" y="200" >naive</text><line  class="poloto_scatter poloto_legend_icon poloto2stroke poloto2legend" stroke="black" x1="685" x2="685" y1="181.25" y2="181.25" /><path  class="poloto_scatter poloto2stroke" d=" M 150.00 399.99 h 0 M 155.05 396.56 h 0 M 160.10 392.05 h 0 M 165.15 384.58 h 0 M 170.20 375.26 h 0 M 175.25 368.54 h 0 M 180.30 371.20 h 0 M 185.35 372.83 h 0 M 190.40 369.98 h 0 M 195.45 368.88 h 0 M 200.51 358.03 h 0 M 205.56 349.14 h 0 M 210.61 346.53 h 0 M 215.66 338.40 h 0 M 220.71 331.37 h 0 M 225.76 320.42 h 0 M 230.81 311.64 h 0 M 235.86 301.16 h 0 M 240.91 290.61 h 0 M 245.96 278.08 h 0 M 251.01 267.35 h 0 M 256.06 254.99 h 0 M 261.11 241.02 h 0 M 266.16 228.65 h 0 M 271.21 213.65 h 0 M 276.26 198.53 h 0 M 281.31 183.31 h 0 M 286.36 167.80 h 0 M 291.41 150.54 h 0 M 296.46 132.72 h 0 M 301.52 116.97 h 0" /><text  class="poloto_text poloto_legend_text" x="675" y="250" >nosort</text><line  class="poloto_scatter poloto_legend_icon poloto3stroke poloto3legend" stroke="black" x1="685" x2="685" y1="231.25" y2="231.25" /><path  class="poloto_scatter poloto3stroke" d=" M 150.00 399.88 h 0 M 155.05 389.36 h 0 M 160.10 391.29 h 0 M 165.15 383.28 h 0 M 170.20 379.18 h 0 M 175.25 375.83 h 0 M 180.30 383.89 h 0 M 185.35 385.81 h 0 M 190.40 381.53 h 0 M 195.45 380.92 h 0 M 200.51 376.73 h 0 M 205.56 370.08 h 0 M 210.61 369.33 h 0 M 215.66 367.50 h 0 M 220.71 363.31 h 0 M 225.76 359.16 h 0 M 230.81 354.61 h 0 M 235.86 348.88 h 0 M 240.91 342.30 h 0 M 245.96 339.66 h 0 M 251.01 331.84 h 0 M 256.06 353.61 h 0 M 261.11 349.71 h 0 M 266.16 346.65 h 0 M 271.21 344.04 h 0 M 276.26 339.31 h 0 M 281.31 337.65 h 0 M 286.36 337.53 h 0 M 291.41 330.09 h 0 M 296.46 331.24 h 0 M 301.52 323.23 h 0 M 306.57 325.29 h 0 M 311.62 319.17 h 0 M 316.67 317.96 h 0 M 321.72 314.20 h 0 M 326.77 312.09 h 0 M 331.82 306.57 h 0 M 336.87 303.19 h 0 M 341.92 300.64 h 0 M 346.97 291.69 h 0 M 352.02 291.37 h 0 M 357.07 287.50 h 0 M 362.12 286.82 h 0 M 367.17 279.80 h 0 M 372.22 273.20 h 0 M 377.27 274.09 h 0 M 382.32 263.35 h 0 M 387.37 262.66 h 0 M 392.42 263.15 h 0 M 397.47 257.60 h 0 M 402.53 252.12 h 0 M 407.58 244.43 h 0 M 412.63 243.32 h 0 M 417.68 239.80 h 0 M 422.73 239.10 h 0 M 427.78 233.50 h 0 M 432.83 226.26 h 0 M 437.88 221.88 h 0 M 442.93 222.91 h 0 M 447.98 209.62 h 0 M 453.03 209.48 h 0 M 458.08 200.08 h 0 M 463.13 198.38 h 0 M 468.18 196.15 h 0 M 473.23 190.36 h 0 M 478.28 186.43 h 0 M 483.33 183.23 h 0 M 488.38 174.84 h 0 M 493.43 171.62 h 0 M 498.48 168.71 h 0 M 503.54 162.28 h 0 M 508.59 153.91 h 0 M 513.64 142.32 h 0 M 518.69 148.73 h 0 M 523.74 137.89 h 0 M 528.79 136.56 h 0 M 533.84 126.98 h 0 M 538.89 130.76 h 0 M 543.94 115.28 h 0 M 548.99 116.49 h 0 M 554.04 109.27 h 0 M 559.09 100.00 h 0 M 564.14 191.38 h 0 M 569.19 186.42 h 0 M 574.24 185.23 h 0 M 579.29 183.58 h 0 M 584.34 181.96 h 0 M 589.39 177.73 h 0 M 594.44 169.65 h 0 M 599.49 168.33 h 0 M 604.55 164.69 h 0 M 609.60 165.40 h 0 M 614.65 160.83 h 0 M 619.70 157.83 h 0 M 624.75 151.66 h 0 M 629.80 154.12 h 0 M 634.85 141.35 h 0 M 639.90 135.93 h 0 M 644.95 136.09 h 0 M 650.00 115.23 h 0" /><text  class="poloto_text poloto_legend_text" x="675" y="300" >nosort_par</text><line  class="poloto_scatter poloto_legend_icon poloto4stroke poloto4legend" stroke="black" x1="685" x2="685" y1="281.25" y2="281.25" /><path  class="poloto_scatter poloto4stroke" d=" M 150.00 399.84 h 0 M 155.05 396.02 h 0 M 160.10 391.28 h 0 M 165.15 382.36 h 0 M 170.20 377.78 h 0 M 175.25 368.68 h 0 M 180.30 383.80 h 0 M 185.35 380.65 h 0 M 190.40 382.96 h 0 M 195.45 379.99 h 0 M 200.51 377.58 h 0 M 205.56 370.03 h 0 M 210.61 371.25 h 0 M 215.66 367.14 h 0 M 220.71 363.84 h 0 M 225.76 360.76 h 0 M 230.81 356.02 h 0 M 235.86 353.29 h 0 M 240.91 347.03 h 0 M 245.96 344.61 h 0 M 251.01 339.36 h 0 M 256.06 355.59 h 0 M 261.11 353.76 h 0 M 266.16 349.73 h 0 M 271.21 346.71 h 0 M 276.26 344.47 h 0 M 281.31 353.33 h 0 M 286.36 346.49 h 0 M 291.41 341.85 h 0 M 296.46 343.64 h 0 M 301.52 345.78 h 0 M 306.57 338.19 h 0 M 311.62 344.98 h 0 M 316.67 340.07 h 0 M 321.72 340.70 h 0 M 326.77 322.70 h 0 M 331.82 326.32 h 0 M 336.87 321.27 h 0 M 341.92 320.94 h 0 M 346.97 313.93 h 0 M 352.02 314.58 h 0 M 357.07 310.06 h 0 M 362.12 310.27 h 0 M 367.17 307.54 h 0 M 372.22 303.45 h 0 M 377.27 299.03 h 0 M 382.32 299.36 h 0 M 387.37 292.73 h 0 M 392.42 291.21 h 0 M 397.47 289.76 h 0 M 402.53 298.41 h 0 M 407.58 294.12 h 0 M 412.63 316.03 h 0 M 417.68 295.10 h 0 M 422.73 308.03 h 0 M 427.78 301.94 h 0 M 432.83 304.08 h 0 M 437.88 301.25 h 0 M 442.93 305.12 h 0 M 447.98 298.68 h 0 M 453.03 300.48 h 0 M 458.08 296.95 h 0 M 463.13 294.41 h 0 M 468.18 289.11 h 0 M 473.23 295.10 h 0 M 478.28 290.47 h 0 M 483.33 288.36 h 0 M 488.38 294.40 h 0 M 493.43 283.67 h 0 M 498.48 283.62 h 0 M 503.54 271.55 h 0 M 508.59 273.19 h 0 M 513.64 262.33 h 0 M 518.69 272.71 h 0 M 523.74 265.89 h 0 M 528.79 271.04 h 0 M 533.84 270.12 h 0 M 538.89 268.35 h 0 M 543.94 264.07 h 0 M 548.99 254.95 h 0 M 554.04 255.60 h 0 M 559.09 251.95 h 0 M 564.14 292.19 h 0 M 569.19 294.01 h 0 M 574.24 276.92 h 0 M 579.29 255.15 h 0 M 584.34 281.89 h 0 M 589.39 253.98 h 0 M 594.44 289.85 h 0 M 599.49 247.95 h 0 M 604.55 272.19 h 0 M 609.60 270.85 h 0 M 614.65 279.19 h 0 M 619.70 280.11 h 0 M 624.75 276.79 h 0 M 629.80 279.41 h 0 M 634.85 274.14 h 0 M 639.90 267.41 h 0 M 644.95 268.10 h 0 M 650.00 266.74 h 0" /><text  class="poloto_text poloto_legend_text" x="675" y="350" >sweep</text><line  class="poloto_scatter poloto_legend_icon poloto5stroke poloto5legend" stroke="black" x1="685" x2="685" y1="331.25" y2="331.25" /><path  class="poloto_scatter poloto5stroke" d=" M 150.00 399.50 h 0 M 155.05 397.31 h 0 M 160.10 394.05 h 0 M 165.15 387.84 h 0 M 170.20 388.04 h 0 M 175.25 381.30 h 0 M 180.30 384.56 h 0 M 185.35 384.12 h 0 M 190.40 385.82 h 0 M 195.45 383.61 h 0 M 200.51 380.07 h 0 M 205.56 377.11 h 0 M 210.61 375.22 h 0 M 215.66 371.97 h 0 M 220.71 369.97 h 0 M 225.76 367.43 h 0 M 230.81 364.00 h 0 M 235.86 356.54 h 0 M 240.91 358.20 h 0 M 245.96 354.35 h 0 M 251.01 351.40 h 0 M 256.06 348.93 h 0 M 261.11 345.32 h 0 M 266.16 341.78 h 0 M 271.21 337.25 h 0 M 276.26 334.69 h 0 M 281.31 331.57 h 0 M 286.36 327.32 h 0 M 291.41 322.88 h 0 M 296.46 320.61 h 0 M 301.52 316.21 h 0 M 306.57 312.40 h 0 M 311.62 308.60 h 0 M 316.67 304.53 h 0 M 321.72 300.74 h 0 M 326.77 296.52 h 0 M 331.82 293.07 h 0 M 336.87 289.04 h 0 M 341.92 284.35 h 0 M 346.97 279.08 h 0 M 352.02 276.17 h 0 M 357.07 270.49 h 0 M 362.12 268.05 h 0 M 367.17 263.84 h 0 M 372.22 259.55 h 0 M 377.27 254.99 h 0 M 382.32 250.20 h 0 M 387.37 244.62 h 0 M 392.42 241.09 h 0 M 397.47 235.73 h 0 M 402.53 232.92 h 0 M 407.58 227.17 h 0 M 412.63 220.93 h 0 M 417.68 217.39 h 0 M 422.73 212.63 h 0 M 427.78 207.03 h 0 M 432.83 204.08 h 0 M 437.88 198.55 h 0 M 442.93 193.11 h 0 M 447.98 184.65 h 0 M 453.03 183.58 h 0" /><text  class="poloto_labels poloto_text poloto_title" x="400" y="37.5" >Bench of space partitioning algs with abspiral(x,1.5)</text><text  class="poloto_labels poloto_text poloto_xname" x="400" y="481.25" >Number of Elements</text><text  class="poloto_labels poloto_text poloto_yname" transform="rotate(-90,37.5,250)" x="37.5" y="250" >Time in Seconds</text><text  class="poloto_tick_labels poloto_text" dominant-baseline="middle" text-anchor="start" x="150" y="70" ></text><line  class="poloto_axis_lines" stroke="black" x1="150" x2="144" y1="400" y2="400" /><text  class="poloto_tick_labels poloto_text" dominant-baseline="middle" text-anchor="end" x="135" y="400" >0e0</text><line  class="poloto_axis_lines" stroke="black" x1="150" x2="144" y1="361.97755256096394" y2="361.97755256096394" /><text  class="poloto_tick_labels poloto_text" dominant-baseline="middle" text-anchor="end" x="135" y="361.97755256096394" >0.0005</text><line  class="poloto_axis_lines" stroke="black" x1="150" x2="144" y1="323.95510512192783" y2="323.95510512192783" /><text  class="poloto_tick_labels poloto_text" dominant-baseline="middle" text-anchor="end" x="135" y="323.95510512192783" >0.0010</text><line  class="poloto_axis_lines" stroke="black" x1="150" x2="144" y1="285.9326576828918" y2="285.9326576828918" /><text  class="poloto_tick_labels poloto_text" dominant-baseline="middle" text-anchor="end" x="135" y="285.9326576828918" >0.0015</text><line  class="poloto_axis_lines" stroke="black" x1="150" x2="144" y1="247.91021024385566" y2="247.91021024385566" /><text  class="poloto_tick_labels poloto_text" dominant-baseline="middle" text-anchor="end" x="135" y="247.91021024385566" >0.0020</text><line  class="poloto_axis_lines" stroke="black" x1="150" x2="144" y1="209.8877628048196" y2="209.8877628048196" /><text  class="poloto_tick_labels poloto_text" dominant-baseline="middle" text-anchor="end" x="135" y="209.8877628048196" >0.0025</text><line  class="poloto_axis_lines" stroke="black" x1="150" x2="144" y1="171.86531536578354" y2="171.86531536578354" /><text  class="poloto_tick_labels poloto_text" dominant-baseline="middle" text-anchor="end" x="135" y="171.86531536578354" >0.0030</text><line  class="poloto_axis_lines" stroke="black" x1="150" x2="144" y1="133.84286792674743" y2="133.84286792674743" /><text  class="poloto_tick_labels poloto_text" dominant-baseline="middle" text-anchor="end" x="135" y="133.84286792674743" >0.0035</text><text  class="poloto_tick_labels poloto_text" dominant-baseline="middle" text-anchor="start" x="440.00000000000006" y="70" ></text><line  class="poloto_axis_lines" stroke="black" x1="150" x2="150" y1="400" y2="405" /><text  class="poloto_tick_labels poloto_text" dominant-baseline="start" text-anchor="middle" x="150" y="430" >0</text><line  class="poloto_axis_lines" stroke="black" x1="251.010101010101" x2="251.010101010101" y1="400" y2="405" /><text  class="poloto_tick_labels poloto_text" dominant-baseline="start" text-anchor="middle" x="251.010101010101" y="430" >2000</text><line  class="poloto_axis_lines" stroke="black" x1="352.020202020202" x2="352.020202020202" y1="400" y2="405" /><text  class="poloto_tick_labels poloto_text" dominant-baseline="start" text-anchor="middle" x="352.020202020202" y="430" >4000</text><line  class="poloto_axis_lines" stroke="black" x1="453.030303030303" x2="453.030303030303" y1="400" y2="405" /><text  class="poloto_tick_labels poloto_text" dominant-baseline="start" text-anchor="middle" x="453.030303030303" y="430" >6000</text><line  class="poloto_axis_lines" stroke="black" x1="554.040404040404" x2="554.040404040404" y1="400" y2="405" /><text  class="poloto_tick_labels poloto_text" dominant-baseline="start" text-anchor="middle" x="554.040404040404" y="430" >8000</text><path  stroke="black" fill="none" class="poloto_axis_lines" style="stroke-dasharray:12.626262626262626;stroke-dashoffset:-0;" d=" M 150 400 L 650 400" /><path  stroke="black" fill="none" class="poloto_axis_lines" style="stroke-dasharray:3.802244743903608;stroke-dashoffset:-0;" d=" M 150 400 L 150 100" /></svg>