<svg class="poloto" width="800" height="500" viewBox="0 0 800 500" xmlns="http://www.w3.org/2000/svg"><circle  r="1e5" class="poloto_background" /><text  class="poloto_text poloto_legend_text" x="675" y="100" >broccoli</text><line  class="poloto_scatter poloto_legend_icon poloto0stroke poloto0legend" stroke="black" x1="685" x2="685" y1="81.25" y2="81.25" /><path  class="poloto_scatter poloto0stroke" d=" M 150.00 400.00 h 0 M 155.05 399.68 h 0 M 160.10 399.34 h 0 M 165.15 398.87 h 0 M 170.20 398.29 h 0 M 175.25 397.68 h 0 M 180.30 397.53 h 0 M 185.35 397.13 h 0 M 190.40 396.69 h 0 M 195.45 396.12 h 0 M 200.51 395.60 h 0 M 205.56 395.03 h 0 M 210.61 394.58 h 0 M 215.66 394.00 h 0 M 220.71 393.29 h 0 M 225.76 392.73 h 0 M 230.81 392.30 h 0 M 235.86 391.77 h 0 M 240.91 391.13 h 0 M 245.96 390.53 h 0 M 251.01 389.73 h 0 M 256.06 389.95 h 0 M 261.11 390.23 h 0 M 266.16 389.64 h 0 M 271.21 388.77 h 0 M 276.26 388.46 h 0 M 281.31 387.91 h 0 M 286.36 387.73 h 0 M 291.41 387.21 h 0 M 296.46 386.77 h 0 M 301.52 386.10 h 0 M 306.57 385.66 h 0 M 311.62 385.23 h 0 M 316.67 384.64 h 0 M 321.72 384.05 h 0 M 326.77 383.49 h 0 M 331.82 383.08 h 0 M 336.87 382.39 h 0 M 341.92 381.75 h 0 M 346.97 381.34 h 0 M 352.02 380.61 h 0 M 357.07 380.03 h 0 M 362.12 379.58 h 0 M 367.17 379.00 h 0 M 372.22 378.31 h 0 M 377.27 377.84 h 0 M 382.32 377.11 h 0 M 387.37 376.69 h 0 M 392.42 376.05 h 0 M 397.47 375.38 h 0 M 402.53 374.87 h 0 M 407.58 374.09 h 0 M 412.63 373.81 h 0 M 417.68 373.08 h 0 M 422.73 372.20 h 0 M 427.78 371.92 h 0 M 432.83 371.06 h 0 M 437.88 370.74 h 0 M 442.93 370.21 h 0 M 447.98 369.64 h 0 M 453.03 368.83 h 0 M 458.08 368.13 h 0 M 463.13 367.37 h 0 M 468.18 366.79 h 0 M 473.23 366.48 h 0 M 478.28 365.54 h 0 M 483.33 365.02 h 0 M 488.38 364.44 h 0 M 493.43 363.66 h 0 M 498.48 363.02 h 0 M 503.54 362.51 h 0 M 508.59 361.33 h 0 M 513.64 360.87 h 0 M 518.69 360.17 h 0 M 523.74 359.63 h 0 M 528.79 358.85 h 0 M 533.84 358.16 h 0 M 538.89 357.47 h 0 M 543.94 357.22 h 0 M 548.99 356.81 h 0 M 554.04 356.04 h 0 M 559.09 354.72 h 0 M 564.14 357.65 h 0 M 569.19 357.32 h 0 M 574.24 357.67 h 0 M 579.29 356.58 h 0 M 584.34 356.98 h 0 M 589.39 355.33 h 0 M 594.44 355.66 h 0 M 599.49 354.79 h 0 M 604.55 354.42 h 0 M 609.60 353.68 h 0 M 614.65 352.66 h 0 M 619.70 352.48 h 0 M 624.75 352.12 h 0 M 629.80 351.88 h 0 M 634.85 351.36 h 0 M 639.90 350.79 h 0 M 644.95 350.44 h 0 M 650.00 349.62 h 0" /><text  class="poloto_text poloto_legend_text" x="675" y="150" >naive</text><line  class="poloto_scatter poloto_legend_icon poloto1stroke poloto1legend" stroke="black" x1="685" x2="685" y1="131.25" y2="131.25" /><path  class="poloto_scatter poloto1stroke" d=" M 150.00 400.00 h 0 M 155.05 399.55 h 0 M 160.10 398.46 h 0 M 165.15 396.80 h 0 M 170.20 394.62 h 0 M 175.25 391.90 h 0 M 180.30 388.68 h 0 M 185.35 384.95 h 0 M 190.40 380.74 h 0 M 195.45 376.05 h 0 M 200.51 370.85 h 0 M 205.56 365.17 h 0 M 210.61 359.01 h 0 M 215.66 352.35 h 0 M 220.71 345.25 h 0 M 225.76 337.66 h 0 M 230.81 329.58 h 0 M 235.86 321.03 h 0 M 240.91 311.99 h 0 M 245.96 302.52 h 0 M 251.01 292.58 h 0" /><text  class="poloto_text poloto_legend_text" x="675" y="200" >nosort</text><line  class="poloto_scatter poloto_legend_icon poloto2stroke poloto2legend" stroke="black" x1="685" x2="685" y1="181.25" y2="181.25" /><path  class="poloto_scatter poloto2stroke" d=" M 150.00 400.00 h 0 M 155.05 399.55 h 0 M 160.10 398.86 h 0 M 165.15 397.75 h 0 M 170.20 396.39 h 0 M 175.25 394.73 h 0 M 180.30 394.02 h 0 M 185.35 393.00 h 0 M 190.40 391.64 h 0 M 195.45 390.09 h 0 M 200.51 388.32 h 0 M 205.56 386.41 h 0 M 210.61 384.89 h 0 M 215.66 382.83 h 0 M 220.71 380.76 h 0 M 225.76 378.63 h 0 M 230.81 376.84 h 0 M 235.86 374.90 h 0 M 240.91 372.33 h 0 M 245.96 369.97 h 0 M 251.01 367.30 h 0 M 256.06 367.02 h 0 M 261.11 367.76 h 0 M 266.16 365.57 h 0 M 271.21 362.57 h 0 M 276.26 360.89 h 0 M 281.31 358.62 h 0 M 286.36 357.89 h 0 M 291.41 355.35 h 0 M 296.46 353.30 h 0 M 301.52 350.70 h 0 M 306.57 348.59 h 0 M 311.62 346.64 h 0 M 316.67 344.26 h 0 M 321.72 342.00 h 0 M 326.77 339.70 h 0 M 331.82 337.79 h 0 M 336.87 335.08 h 0 M 341.92 332.30 h 0 M 346.97 330.06 h 0 M 352.02 327.04 h 0 M 357.07 324.82 h 0 M 362.12 322.46 h 0 M 367.17 319.79 h 0 M 372.22 316.88 h 0 M 377.27 314.47 h 0 M 382.32 311.74 h 0 M 387.37 309.12 h 0 M 392.42 306.38 h 0 M 397.47 303.16 h 0 M 402.53 300.86 h 0 M 407.58 297.41 h 0 M 412.63 295.04 h 0 M 417.68 291.84 h 0 M 422.73 288.45 h 0 M 427.78 286.46 h 0 M 432.83 283.15 h 0 M 437.88 280.77 h 0 M 442.93 277.95 h 0 M 447.98 275.23 h 0 M 453.03 271.72 h 0 M 458.08 267.90 h 0 M 463.13 264.42 h 0 M 468.18 260.97 h 0 M 473.23 258.88 h 0 M 478.28 254.64 h 0 M 483.33 251.88 h 0 M 488.38 248.43 h 0 M 493.43 245.34 h 0 M 498.48 241.71 h 0 M 503.54 238.80 h 0 M 508.59 234.60 h 0 M 513.64 231.52 h 0 M 518.69 228.10 h 0 M 523.74 224.94 h 0 M 528.79 220.91 h 0 M 533.84 216.57 h 0 M 538.89 213.67 h 0 M 543.94 211.55 h 0 M 548.99 209.54 h 0 M 554.04 205.91 h 0 M 559.09 198.97 h 0 M 564.14 213.21 h 0 M 569.19 212.44 h 0 M 574.24 214.01 h 0 M 579.29 206.60 h 0 M 584.34 210.59 h 0 M 589.39 200.65 h 0 M 594.44 204.03 h 0 M 599.49 197.19 h 0 M 604.55 196.05 h 0 M 609.60 192.79 h 0 M 614.65 189.57 h 0 M 619.70 186.75 h 0 M 624.75 183.64 h 0 M 629.80 183.28 h 0 M 634.85 180.88 h 0 M 639.90 178.04 h 0 M 644.95 174.65 h 0 M 650.00 170.70 h 0" /><text  class="poloto_text poloto_legend_text" x="675" y="250" >sweep</text><line  class="poloto_scatter poloto_legend_icon poloto3stroke poloto3legend" stroke="black" x1="685" x2="685" y1="231.25" y2="231.25" /><path  class="poloto_scatter poloto3stroke" d=" M 150.00 400.00 h 0 M 155.05 399.69 h 0 M 160.10 399.10 h 0 M 165.15 398.32 h 0 M 170.20 397.44 h 0 M 175.25 396.41 h 0 M 180.30 395.28 h 0 M 185.35 394.06 h 0 M 190.40 392.75 h 0 M 195.45 391.40 h 0 M 200.51 389.95 h 0 M 205.56 388.43 h 0 M 210.61 386.83 h 0 M 215.66 385.18 h 0 M 220.71 383.48 h 0 M 225.76 381.70 h 0 M 230.81 379.88 h 0 M 235.86 378.03 h 0 M 240.91 376.07 h 0 M 245.96 374.10 h 0 M 251.01 372.05 h 0 M 256.06 369.92 h 0 M 261.11 367.79 h 0 M 266.16 365.60 h 0 M 271.21 363.35 h 0 M 276.26 361.06 h 0 M 281.31 358.68 h 0 M 286.36 356.34 h 0 M 291.41 353.92 h 0 M 296.46 351.39 h 0 M 301.52 348.91 h 0 M 306.57 346.32 h 0 M 311.62 343.77 h 0 M 316.67 341.16 h 0 M 321.72 338.50 h 0 M 326.77 335.79 h 0 M 331.82 333.04 h 0 M 336.87 330.32 h 0 M 341.92 327.45 h 0 M 346.97 324.69 h 0 M 352.02 321.72 h 0 M 357.07 318.75 h 0 M 362.12 315.79 h 0 M 367.17 312.82 h 0 M 372.22 309.73 h 0 M 377.27 306.74 h 0 M 382.32 303.59 h 0 M 387.37 300.50 h 0 M 392.42 297.38 h 0 M 397.47 294.18 h 0 M 402.53 290.96 h 0 M 407.58 287.77 h 0 M 412.63 284.50 h 0 M 417.68 281.15 h 0 M 422.73 277.79 h 0 M 427.78 274.46 h 0 M 432.83 271.16 h 0 M 437.88 267.69 h 0 M 442.93 264.21 h 0 M 447.98 260.76 h 0 M 453.03 257.27 h 0 M 458.08 253.64 h 0 M 463.13 250.19 h 0 M 468.18 246.60 h 0 M 473.23 242.95 h 0 M 478.28 239.25 h 0 M 483.33 235.69 h 0 M 488.38 231.94 h 0 M 493.43 228.15 h 0 M 498.48 224.42 h 0 M 503.54 220.71 h 0 M 508.59 216.69 h 0 M 513.64 213.05 h 0 M 518.69 209.09 h 0 M 523.74 205.23 h 0 M 528.79 201.37 h 0 M 533.84 197.35 h 0 M 538.89 193.48 h 0 M 543.94 189.51 h 0 M 548.99 185.52 h 0 M 554.04 181.40 h 0 M 559.09 177.30 h 0 M 564.14 173.02 h 0 M 569.19 168.98 h 0 M 574.24 164.81 h 0 M 579.29 160.74 h 0 M 584.34 156.52 h 0 M 589.39 152.33 h 0 M 594.44 148.18 h 0 M 599.49 143.85 h 0 M 604.55 139.54 h 0 M 609.60 135.23 h 0 M 614.65 131.02 h 0 M 619.70 126.70 h 0 M 624.75 122.14 h 0 M 629.80 117.90 h 0 M 634.85 113.52 h 0 M 639.90 108.99 h 0 M 644.95 104.62 h 0 M 650.00 100.00 h 0" /><text  class="poloto_labels poloto_text poloto_title" x="400" y="37.5" >Complexity of space partitioning algs with abspiral(x,0.6)</text><text  class="poloto_labels poloto_text poloto_xname" x="400" y="481.25" >Number of Elements</text><text  class="poloto_labels poloto_text poloto_yname" transform="rotate(-90,37.5,250)" x="37.5" y="250" >Number of Comparisons</text><text  class="poloto_tick_labels poloto_text" dominant-baseline="middle" text-anchor="start" x="150" y="70" ></text><line  class="poloto_axis_lines" stroke="black" x1="150" x2="144" y1="400" y2="400" /><text  class="poloto_tick_labels poloto_text" dominant-baseline="middle" text-anchor="end" x="135" y="400" >0</text><line  class="poloto_axis_lines" stroke="black" x1="150" x2="144" y1="342.7069477565664" y2="342.7069477565664" /><text  class="poloto_tick_labels poloto_text" dominant-baseline="middle" text-anchor="end" x="135" y="342.7069477565664" >2e6</text><line  class="poloto_axis_lines" stroke="black" x1="150" x2="144" y1="285.41389551313284" y2="285.41389551313284" /><text  class="poloto_tick_labels poloto_text" dominant-baseline="middle" text-anchor="end" x="135" y="285.41389551313284" >4e6</text><line  class="poloto_axis_lines" stroke="black" x1="150" x2="144" y1="228.1208432696992" y2="228.1208432696992" /><text  class="poloto_tick_labels poloto_text" dominant-baseline="middle" text-anchor="end" x="135" y="228.1208432696992" >6e6</text><line  class="poloto_axis_lines" stroke="black" x1="150" x2="144" y1="170.82779102626563" y2="170.82779102626563" /><text  class="poloto_tick_labels poloto_text" dominant-baseline="middle" text-anchor="end" x="135" y="170.82779102626563" >8e6</text><line  class="poloto_axis_lines" stroke="black" x1="150" x2="144" y1="113.53473878283205" y2="113.53473878283205" /><text  class="poloto_tick_labels poloto_text" dominant-baseline="middle" text-anchor="end" x="135" y="113.53473878283205" >1e7</text><text  class="poloto_tick_labels poloto_text" dominant-baseline="middle" text-anchor="start" x="440.00000000000006" y="70" ></text><line  class="poloto_axis_lines" stroke="black" x1="150" x2="150" y1="400" y2="405" /><text  class="poloto_tick_labels poloto_text" dominant-baseline="start" text-anchor="middle" x="150" y="430" >0</text><line  class="poloto_axis_lines" stroke="black" x1="251.010101010101" x2="251.010101010101" y1="400" y2="405" /><text  class="poloto_tick_labels poloto_text" dominant-baseline="start" text-anchor="middle" x="251.010101010101" y="430" >2000</text><line  class="poloto_axis_lines" stroke="black" x1="352.020202020202" x2="352.020202020202" y1="400" y2="405" /><text  class="poloto_tick_labels poloto_text" dominant-baseline="start" text-anchor="middle" x="352.020202020202" y="430" >4000</text><line  class="poloto_axis_lines" stroke="black" x1="453.030303030303" x2="453.030303030303" y1="400" y2="405" /><text  class="poloto_tick_labels poloto_text" dominant-baseline="start" text-anchor="middle" x="453.030303030303" y="430" >6000</text><line  class="poloto_axis_lines" stroke="black" x1="554.040404040404" x2="554.040404040404" y1="400" y2="405" /><text  class="poloto_tick_labels poloto_text" dominant-baseline="start" text-anchor="middle" x="554.040404040404" y="430" >8000</text><path  stroke="black" fill="none" class="poloto_axis_lines" style="stroke-dasharray:12.626262626262626;stroke-dashoffset:-0;" d=" M 150 400 L 650 400" /><path  stroke="black" fill="none" class="poloto_axis_lines" style="stroke-dasharray:7.161631530429199;stroke-dashoffset:-0;" d=" M 150 400 L 150 100" /></svg>