<svg class="poloto" width="800" height="500" viewBox="0 0 800 500" xmlns="http://www.w3.org/2000/svg" ><rect class="poloto_background" fill="white" x="0" y="0" width="800" height="500" /><style><style>.poloto {
            font-family: "Arial";
            stroke-width:2;
            }
            .poloto_text{fill: var(--poloto_fg_color,black);  }
            .poloto_axis_lines{stroke: var(--poloto_fg_color,black);stoke-width:3;fill:none}
            .poloto_background{fill: var(--poloto_bg_color,aliceblue); }
            .poloto0stroke{stroke:  var(--poloto_color0,blue); }
            .poloto1stroke{stroke:  var(--poloto_color1,red); }
            .poloto2stroke{stroke:  var(--poloto_color2,green); }
            .poloto3stroke{stroke:  var(--poloto_color3,gold); }
            .poloto4stroke{stroke:  var(--poloto_color4,aqua); }
            .poloto5stroke{stroke:  var(--poloto_color5,brown); }
            .poloto6stroke{stroke:  var(--poloto_color6,lime); }
            .poloto7stroke{stroke:  var(--poloto_color7,chocolate); }
            .poloto0fill{fill:var(--poloto_color0,blue);}
            .poloto1fill{fill:var(--poloto_color1,red);}
            .poloto2fill{fill:var(--poloto_color2,green);}
            .poloto3fill{fill:var(--poloto_color3,gold);}
            .poloto4fill{fill:var(--poloto_color4,aqua);}
            .poloto5fill{fill:var(--poloto_color5,brown);}
            .poloto6fill{fill:var(--poloto_color6,lime);}
            .poloto7fill{fill:var(--poloto_color7,chocolate);}</style></style><line class="poloto_axis_lines" stroke="black" x1="150" x2="150" y1="400" y2="405" /><text class="poloto_text" alignment-baseline="start" text-anchor="middle" x="150" y="430" >0</text><line class="poloto_axis_lines" stroke="black" x1="251.0101" x2="251.0101" y1="400" y2="405" /><text class="poloto_text" alignment-baseline="start" text-anchor="middle" x="251.0101" y="430" >2000</text><line class="poloto_axis_lines" stroke="black" x1="352.0202" x2="352.0202" y1="400" y2="405" /><text class="poloto_text" alignment-baseline="start" text-anchor="middle" x="352.0202" y="430" >4000</text><line class="poloto_axis_lines" stroke="black" x1="453.0303" x2="453.0303" y1="400" y2="405" /><text class="poloto_text" alignment-baseline="start" text-anchor="middle" x="453.0303" y="430" >6000</text><line class="poloto_axis_lines" stroke="black" x1="554.0404" x2="554.0404" y1="400" y2="405" /><text class="poloto_text" alignment-baseline="start" text-anchor="middle" x="554.0404" y="430" >8000</text><line class="poloto_axis_lines" stroke="black" x1="150" x2="144" y1="339.81064" y2="339.81064" /><text class="poloto_text" alignment-baseline="middle" text-anchor="end" x="135" y="339.81064" >0.005</text><line class="poloto_axis_lines" stroke="black" x1="150" x2="144" y1="279.6198" y2="279.6198" /><text class="poloto_text" alignment-baseline="middle" text-anchor="end" x="135" y="279.6198" >0.010</text><line class="poloto_axis_lines" stroke="black" x1="150" x2="144" y1="219.42899" y2="219.42899" /><text class="poloto_text" alignment-baseline="middle" text-anchor="end" x="135" y="219.42899" >0.015</text><line class="poloto_axis_lines" stroke="black" x1="150" x2="144" y1="159.23816" y2="159.23816" /><text class="poloto_text" alignment-baseline="middle" text-anchor="end" x="135" y="159.23816" >0.020</text><text class="poloto_text" alignment-baseline="middle" text-anchor="start" font-size="large" x="675" y="100" >brocc</text><line class="poloto0stroke" stroke="black" x1="680" x2="730" y1="81.25" y2="81.25" /><polyline class="poloto0stroke" fill="none" stroke="black"  points="150,399.95383 155.0505,399.68466 160.10101,399.15683 165.15152,398.89658 170.20203,398.27084 175.25253,398.0458 180.30302,397.29523 185.35353,395.90973 190.40404,396.0776 195.45454,395.62103 200.50505,395.8721 205.55556,395.3823 210.60606,395.1296 215.65656,394.63074 220.70706,393.91263 225.75757,393.33276 230.80807,393.30212 235.85858,392.78464 240.90909,391.91013 245.9596,392.00177 251.0101,391.43292 256.0606,390.29034 261.1111,390.51727 266.16162,390.14078 271.21213,389.83643 276.26263,389.42624 281.3131,388.2754 286.36365,387.65872 291.41412,388.02206 296.46466,387.52493 301.51514,387.0211 306.56567,386.36588 311.61615,386.21637 316.66666,385.7023 321.71716,385.38666 326.76767,384.3527 331.81818,383.80215 336.86868,381.9483 341.9192,382.45065 346.9697,382.84396 352.0202,381.6317 357.0707,379.36566 362.12122,379.12683 367.1717,377.15796 372.22223,379.0183 377.2727,380.22446 382.32324,377.6062 387.37372,375.16867 392.42426,378.96323 397.47473,375.875 402.52527,375.16113 407.57574,372.03265 412.62625,372.27475 417.67676,373.00928 422.72726,324.7425 427.77777,372.66528 432.82828,370.98453 437.87878,372.37106 442.9293,367.7501 447.9798,371.63098 453.0303,373.28076 458.0808,369.56247 463.13132,370.08905 468.18182,368.88116 473.23233,369.14026 478.28284,369.66995 483.3333,371.04724 488.38382,367.13223 493.43433,367.3947 498.48483,369.69717 503.53534,368.291 508.58585,365.13782 513.63635,363.35422 518.6869,367.5708 523.73737,367.04965 528.78784,363.98566 533.8384,362.5296 538.8889,365.76877 543.9394,364.8208 548.98987,362.02255 554.0404,355.6074 559.09094,359.26086 564.1414,357.62646 569.1919,357.372 574.24243,360.07318 579.2929,355.45166 584.3434,358.3222 589.3939,345.2594 594.44446,354.67776 599.49493,356.59988 604.5454,342.82813 609.59595,347.99854 614.6465,308.98615 619.69696,339.81235 624.74744,327.62244 629.798,354.73828 634.8485,339.4388 639.899,349.0967 644.94946,278.405 650,353.29297 "/><text class="poloto_text" alignment-baseline="middle" text-anchor="start" font-size="large" x="675" y="150" >brocc_par</text><line class="poloto1stroke" stroke="black" x1="680" x2="730" y1="131.25" y2="131.25" /><polyline class="poloto1stroke" fill="none" stroke="black"  points="150,399.4302 155.0505,399.2403 160.10101,399.07516 165.15152,397.9517 170.20203,398.42007 175.25253,397.7772 180.30302,397.4474 185.35353,396.52725 190.40404,395.91177 195.45454,395.58273 200.50505,395.8166 205.55556,395.29413 210.60606,395.01312 215.65656,394.4669 220.70706,392.1334 225.75757,393.31247 230.80807,393.11105 235.85858,392.6615 240.90909,391.96808 245.9596,391.8945 251.0101,391.27747 256.0606,387.0168 261.1111,391.86484 266.16162,390.1596 271.21213,389.98962 276.26263,390.42355 281.3131,390.89105 286.36365,387.61694 291.41412,388.81097 296.46466,388.8888 301.51514,390.24448 306.56567,387.60852 311.61615,387.13354 316.66666,389.26672 321.71716,358.53116 326.76767,387.2679 331.81818,383.57098 336.86868,387.65384 341.9192,377.5975 346.9697,385.99063 352.0202,385.2906 357.0707,375.98126 362.12122,360.82556 367.1717,372.39175 372.22223,379.4017 377.2727,385.4578 382.32324,386.44772 387.37372,321.67108 392.42426,369.23615 397.47473,376.29733 402.52527,313.89215 407.57574,384.8409 412.62625,383.56625 417.67676,382.4492 422.72726,344.5759 427.77777,382.37585 432.82828,387.22522 437.87878,385.59494 442.9293,383.4625 447.9798,382.1077 453.0303,381.01056 458.0808,364.10886 463.13132,355.06512 468.18182,340.51318 473.23233,378.6464 478.28284,374.65225 483.3333,377.87146 488.38382,352.34113 493.43433,379.7526 498.48483,378.69556 503.53534,379.95343 508.58585,382.0447 513.63635,370.3967 518.6869,377.70685 523.73737,386.31842 528.78784,374.88788 533.8384,381.8981 538.8889,377.66708 543.9394,377.89853 548.98987,379.92557 554.0404,374.84216 559.09094,347.23523 564.1414,383.62537 569.1919,339.21826 574.24243,354.53638 579.2929,370.04932 584.3434,379.59805 589.3939,377.17093 594.44446,378.41312 599.49493,255.93033 604.5454,372.1601 609.59595,321.68658 614.6465,100 619.69696,353.84775 624.74744,253.08298 629.798,371.6448 634.8485,364.46262 639.899,315.99832 644.94946,281.59125 650,370.5223 "/><text class="poloto_text" alignment-baseline="middle" text-anchor="start" font-size="large" x="675" y="200" >naive</text><line class="poloto2stroke" stroke="black" x1="680" x2="730" y1="181.25" y2="181.25" /><polyline class="poloto2stroke" fill="none" stroke="black"  points="150,400 155.0505,399.42633 160.10101,398.4128 165.15152,397.0115 170.20203,395.01508 175.25253,394.05206 180.30302,391.97394 185.35353,385.59222 190.40404,386.50278 195.45454,383.74045 200.50505,380.76468 205.55556,375.36874 210.60606,371.2505 215.65656,371.1208 220.70706,364.15787 225.75757,362.32257 230.80807,356.89838 235.85858,353.67264 240.90909,349.17023 245.9596,340.4651 251.0101,339.49268 256.0606,333.62927 261.1111,324.7536 266.16162,319.25943 271.21213,312.9388 276.26263,308.41364 281.3131,302.24966 286.36365,291.37524 291.41412,281.1696 296.46466,274.74075 301.51514,266.72614 "/><text class="poloto_text" alignment-baseline="middle" text-anchor="start" font-size="large" x="675" y="250" >nosort</text><line class="poloto3stroke" stroke="black" x1="680" x2="730" y1="231.25" y2="231.25" /><polyline class="poloto3stroke" fill="none" stroke="black"  points="150,399.9631 155.0505,399.6071 160.10101,398.99258 165.15152,398.4433 170.20203,396.6295 175.25253,396.81793 180.30302,395.7797 185.35353,395.3312 190.40404,394.35397 195.45454,393.70056 200.50505,392.8906 205.55556,392.65887 210.60606,391.89523 215.65656,389.2144 220.70706,389.64996 225.75757,386.60526 230.80807,388.2817 235.85858,387.12518 240.90909,385.97733 245.9596,384.49704 251.0101,382.66623 256.0606,384.86594 261.1111,383.67416 266.16162,382.96762 271.21213,380.75662 276.26263,380.78964 281.3131,379.4986 286.36365,375.97177 291.41412,378.58353 296.46466,376.96457 301.51514,376.28278 306.56567,375.12103 311.61615,372.56702 316.66666,373.46423 321.71716,371.3721 326.76767,368.98785 331.81818,370.2182 336.86868,368.24777 341.9192,364.73865 346.9697,364.26828 352.0202,361.3996 357.0707,362.8951 362.12122,363.9086 367.1717,362.20993 372.22223,362.15405 377.2727,362.43726 382.32324,358.1828 387.37372,359.5867 392.42426,353.25873 397.47473,354.70633 402.52527,337.82724 407.57574,351.106 412.62625,351.34494 417.67676,346.45248 422.72726,349.13763 427.77777,348.08435 432.82828,350.20694 437.87878,345.44754 442.9293,342.5513 447.9798,342.9676 453.0303,342.4762 458.0808,343.0978 463.13132,339.80905 468.18182,339.71182 473.23233,338.31757 478.28284,334.43613 483.3333,336.08688 488.38382,334.09003 493.43433,335.10068 498.48483,328.54587 503.53534,329.50677 508.58585,329.6124 513.63635,327.13318 518.6869,320.38342 523.73737,326.86435 528.78784,322.5528 533.8384,324.19662 538.8889,317.2276 543.9394,313.66537 548.98987,318.32367 554.0404,316.5452 559.09094,217.93898 564.1414,326.03668 569.1919,319.44415 574.24243,317.6927 579.2929,316.04965 584.3434,319.06848 589.3939,310.271 594.44446,313.50342 599.49493,280.67184 604.5454,301.35953 609.59595,311.80017 614.6465,180.13022 619.69696,295.77167 624.74744,307.42023 629.798,301.16156 634.8485,304.2464 639.899,310.1396 644.94946,242.73059 650,300.50916 "/><text class="poloto_text" alignment-baseline="middle" text-anchor="start" font-size="large" x="675" y="300" >nosort_par</text><line class="poloto4stroke" stroke="black" x1="680" x2="730" y1="281.25" y2="281.25" /><polyline class="poloto4stroke" fill="none" stroke="black"  points="150,399.86505 155.0505,399.61627 160.10101,399.0136 165.15152,398.43506 170.20203,397.46307 175.25253,396.81277 180.30302,396.19016 185.35353,395.6394 190.40404,394.2502 195.45454,392.75674 200.50505,390.73068 205.55556,392.64883 210.60606,391.9574 215.65656,389.49423 220.70706,388.66428 225.75757,388.35535 230.80807,384.25256 235.85858,385.63052 240.90909,386.21222 245.9596,383.42572 251.0101,383.1576 256.0606,388.57355 261.1111,385.6182 266.16162,383.77155 271.21213,385.014 276.26263,376.3053 281.3131,372.4532 286.36365,381.12518 291.41412,379.94638 296.46466,382.1285 301.51514,379.69852 306.56567,378.68854 311.61615,379.33252 316.66666,380.20743 321.71716,377.23264 326.76767,377.3963 331.81818,378.86395 336.86868,365.86917 341.9192,361.68246 346.9697,366.25085 352.0202,376.70227 357.0707,374.57996 362.12122,375.29825 367.1717,372.82025 372.22223,371.97638 377.2727,372.69882 382.32324,301.88962 387.37372,273.8828 392.42426,365.95306 397.47473,370.28452 402.52527,346.27966 407.57574,375.72012 412.62625,367.28662 417.67676,368.4984 422.72726,367.40005 427.77777,367.4202 432.82828,377.07062 437.87878,373.26907 442.9293,364.86362 447.9798,350.29892 453.0303,360.90747 458.0808,327.41547 463.13132,346.44824 468.18182,371.19418 473.23233,360.49664 478.28284,309.23584 483.3333,361.25345 488.38382,367.7122 493.43433,356.68393 498.48483,338.03476 503.53534,357.61523 508.58585,354.14804 513.63635,358.76144 518.6869,362.42355 523.73737,365.8669 528.78784,332.1493 533.8384,361.83527 538.8889,361.5822 543.9394,327.93353 548.98987,351.5194 554.0404,347.94293 559.09094,361.50366 564.1414,304.49442 569.1919,355.86816 574.24243,349.26187 579.2929,363.83557 584.3434,354.26465 589.3939,310.6233 594.44446,318.1764 599.49493,220.46745 604.5454,253.98718 609.59595,352.03046 614.6465,328.47504 619.69696,205.02411 624.74744,333.68402 629.798,328.57886 634.8485,327.77368 639.899,267.54962 644.94946,203.69273 650,284.9915 "/><text class="poloto_text" alignment-baseline="middle" text-anchor="start" font-size="large" x="675" y="350" >sweep</text><line class="poloto5stroke" stroke="black" x1="680" x2="730" y1="331.25" y2="331.25" /><polyline class="poloto5stroke" fill="none" stroke="black"  points="150,399.90778 155.0505,399.61197 160.10101,399.11594 165.15152,398.4982 170.20203,397.6322 175.25253,396.42657 180.30302,396.28043 185.35353,394.9334 190.40404,392.89487 195.45454,393.4448 200.50505,392.91675 205.55556,391.65067 210.60606,390.90076 215.65656,389.65677 220.70706,388.48346 225.75757,387.25732 230.80807,386.2207 235.85858,384.49792 240.90909,383.0973 245.9596,383.04852 251.0101,381.90848 256.0606,379.29727 261.1111,377.48618 266.16162,377.94226 271.21213,376.6236 276.26263,375.39993 281.3131,373.9337 286.36365,372.68118 291.41412,370.606 296.46466,369.78217 301.51514,368.31958 306.56567,365.49887 311.61615,365.33435 316.66666,362.00604 321.71716,359.6553 326.76767,361.26498 331.81818,358.96533 336.86868,353.00342 341.9192,349.2209 346.9697,354.54056 352.0202,351.36908 357.0707,348.3468 362.12122,341.0862 367.1717,345.26715 372.22223,342.41724 377.2727,338.95215 382.32324,340.07147 387.37372,328.48083 392.42426,328.04355 397.47473,337.69296 402.52527,327.72638 407.57574,324.88467 412.62625,328.41507 417.67676,324.34094 422.72726,322.84708 427.77777,321.87054 432.82828,319.18936 437.87878,316.95013 442.9293,314.43597 447.9798,310.00952 453.0303,311.91412 "/><text class="poloto_text" alignment-baseline="start" text-anchor="middle" font-size="x-large" x="400" y="37.5" >Bench of space partitioning algs with abspiral(x,0.2)</text><text class="poloto_text" alignment-baseline="start" text-anchor="middle" font-size="x-large" x="400" y="481.25" >Number of Elements</text><text class="poloto_text" alignment-baseline="start" text-anchor="middle" font-size="x-large" transform="rotate(-90,37.5,250)" x="37.5" y="250" >Time in Seconds</text><path stroke="black" fill="none" class="poloto_axis_lines"  d="M 150 100 L 150 400 L 650 400 "/></svg>