<svg class="poloto" width="800" height="500" viewBox="0 0 800 500" xmlns="http://www.w3.org/2000/svg"><style>.poloto {
    font-family: "Arial";
    stroke-width:2;
    }
    .poloto_text{fill: var(--poloto_fg_color,black);  }
    .poloto_axis_lines{stroke: var(--poloto_fg_color,black);stoke-width:3;fill:none}
    .poloto_background{fill: var(--poloto_bg_color,aliceblue); }
    .poloto0stroke{stroke:  var(--poloto_color0,blue); }
    .poloto1stroke{stroke:  var(--poloto_color1,red); }
    .poloto2stroke{stroke:  var(--poloto_color2,green); }
    .poloto3stroke{stroke:  var(--poloto_color3,gold); }
    .poloto4stroke{stroke:  var(--poloto_color4,aqua); }
    .poloto5stroke{stroke:  var(--poloto_color5,brown); }
    .poloto6stroke{stroke:  var(--poloto_color6,lime); }
    .poloto7stroke{stroke:  var(--poloto_color7,chocolate); }
    .poloto0fill{fill:var(--poloto_color0,blue);}
    .poloto1fill{fill:var(--poloto_color1,red);}
    .poloto2fill{fill:var(--poloto_color2,green);}
    .poloto3fill{fill:var(--poloto_color3,gold);}
    .poloto4fill{fill:var(--poloto_color4,aqua);}
    .poloto5fill{fill:var(--poloto_color5,brown);}
    .poloto6fill{fill:var(--poloto_color6,lime);}
    .poloto7fill{fill:var(--poloto_color7,chocolate);}</style><rect class="poloto_background" fill="white" x="0" y="0" width="800" height="500"/><line class="poloto_axis_lines" stroke="black" x1="150" x2="150" y1="400" y2="405"/><text class="poloto_text" alignment-baseline="start" text-anchor="middle" x="150" y="430">0.20</text><line class="poloto_axis_lines" stroke="black" x1="213.1313131313131" x2="213.1313131313131" y1="400" y2="405"/><text class="poloto_text" alignment-baseline="start" text-anchor="middle" x="213.1313131313131" y="430">0.25</text><line class="poloto_axis_lines" stroke="black" x1="276.2626262626262" x2="276.2626262626262" y1="400" y2="405"/><text class="poloto_text" alignment-baseline="start" text-anchor="middle" x="276.2626262626262" y="430">0.30</text><line class="poloto_axis_lines" stroke="black" x1="339.3939393939394" x2="339.3939393939394" y1="400" y2="405"/><text class="poloto_text" alignment-baseline="start" text-anchor="middle" x="339.3939393939394" y="430">0.35</text><line class="poloto_axis_lines" stroke="black" x1="402.5252525252525" x2="402.5252525252525" y1="400" y2="405"/><text class="poloto_text" alignment-baseline="start" text-anchor="middle" x="402.5252525252525" y="430">0.40</text><line class="poloto_axis_lines" stroke="black" x1="465.6565656565656" x2="465.6565656565656" y1="400" y2="405"/><text class="poloto_text" alignment-baseline="start" text-anchor="middle" x="465.6565656565656" y="430">0.45</text><line class="poloto_axis_lines" stroke="black" x1="528.7878787878788" x2="528.7878787878788" y1="400" y2="405"/><text class="poloto_text" alignment-baseline="start" text-anchor="middle" x="528.7878787878788" y="430">0.50</text><line class="poloto_axis_lines" stroke="black" x1="591.9191919191919" x2="591.9191919191919" y1="400" y2="405"/><text class="poloto_text" alignment-baseline="start" text-anchor="middle" x="591.9191919191919" y="430">0.55</text><line class="poloto_axis_lines" stroke="black" x1="150" x2="144" y1="400" y2="400"/><text class="poloto_text" alignment-baseline="middle" text-anchor="end" x="135" y="400">0e0</text><line class="poloto_axis_lines" stroke="black" x1="150" x2="144" y1="335.00032848667325" y2="335.00032848667325"/><text class="poloto_text" alignment-baseline="middle" text-anchor="end" x="135" y="335.00032848667325">0.05</text><line class="poloto_axis_lines" stroke="black" x1="150" x2="144" y1="270.0006569733465" y2="270.0006569733465"/><text class="poloto_text" alignment-baseline="middle" text-anchor="end" x="135" y="270.0006569733465">0.10</text><line class="poloto_axis_lines" stroke="black" x1="150" x2="144" y1="205.00098546001976" y2="205.00098546001976"/><text class="poloto_text" alignment-baseline="middle" text-anchor="end" x="135" y="205.00098546001976">0.15</text><line class="poloto_axis_lines" stroke="black" x1="150" x2="144" y1="140.00131394669307" y2="140.00131394669307"/><text class="poloto_text" alignment-baseline="middle" text-anchor="end" x="135" y="140.00131394669307">0.20</text><text class="poloto_text" alignment-baseline="middle" text-anchor="start" font-size="large" x="675" y="100">brocc</text><line class="poloto0stroke" stroke="black" x1="680" x2="730" y1="81.25" y2="81.25"/><polyline class="poloto0stroke" fill="none" stroke="black" points="150,332.7063769795395 155.05050505050505,336.42859876867135 160.1010101010101,338.151136863538 165.15151515151516,339.71360416734905 170.2020202020202,341.07227410108413 175.25252525252523,342.46391316820416 180.30303030303028,344.0216679958305 185.35353535353534,345.45456235446005 190.4040404040404,346.5237991508937 195.45454545454544,348.64342413901556 200.50505050505052,348.71985855274147 205.55555555555551,350.65136409155633 210.60606060606057,351.6529219300169 215.65656565656565,352.7301211862109 220.70707070707067,354.36704431374704 225.75757575757575,355.31744351074633 230.80808080808077,356.2093859031668 235.85858585858585,357.3386368963087 240.9090909090909,358.07596327010697 245.95959595959596,359.3825541670321 251.010101010101,359.80230644574397 256.06060606060606,360.7099995585656 261.1111111111111,361.81706356383313 266.16161616161617,362.6829098881344 271.21212121212125,363.0176737963492 276.26262626262627,363.98230402142957 281.3131313131313,364.69617461376555 286.3636363636363,365.1057206440564 291.41414141414134,366.1335786496047 296.4646464646464,366.85395570905916 301.5151515151515,366.92137466834623 306.5656565656565,367.96426449792864 311.61616161616155,368.54660045499685 316.66666666666663,368.947294830021 321.7171717171717,369.46309192335445 326.7676767676768,370.1484718596727 331.8181818181818,370.50654075011187 336.8686868686868,370.9321897990235 341.9191919191918,371.21670246119135 346.9696969696969,371.529246881696 352.02020202020196,372.09624161629364 357.070707070707,372.7325741004814 362.12121212121207,372.952625288416 367.1717171717171,373.3603721277994 372.2222222222222,373.9402510972844 377.27272727272725,373.9208642952588 382.3232323232323,374.3127408148455 387.3737373737373,374.8964898647724 392.4242424242424,375.2616697192751 397.47474747474746,375.4116395613775 402.5252525252525,375.7962140178664 407.57575757575756,375.7480375613342 412.6262626262626,376.5374182720672 417.67676767676767,376.60877491145453 422.7272727272727,377.2044865009267 427.77777777777777,377.3870380783719 432.8282828282828,377.75456832099655 437.8787878787879,377.5645638812157 442.9292929292929,378.26561393834237 447.979797979798,377.7392062986311 453.03030303030295,378.0706695235265 458.080808080808,378.0626355641274 463.13131313131305,378.4587877621062 468.18181818181813,378.0742172055976 473.23232323232315,379.4879301611636 478.28282828282823,379.64866004888836 483.33333333333326,379.96167116703447 488.38383838383834,379.3411765028077 493.43434343434336,380.2411489546469 498.48484848484844,380.19163740486175 503.5353535353535,380.65340157125956 508.58585858585855,380.86161631901166 513.6363636363636,380.9774743335039 518.6868686868686,380.73508145847666 523.7373737373737,381.0252919918494 528.7878787878788,381.41763130909726 533.8383838383837,381.5911193323466 538.8888888888888,381.9999581662114 543.9393939393939,382.1366433754499 548.9898989898988,381.491599635286 554.0404040404039,382.4312634865381 559.090909090909,382.5285289949906 564.1414141414141,381.93622468829915 569.1919191919192,382.57753614732485 574.2424242424242,382.2663892197577 579.2929292929292,382.826799487631 584.3434343434343,383.3694375453191 589.3939393939393,383.4517609292842 594.4444444444443,383.5658067529346 599.4949494949494,383.4419472788791 604.5454545454545,383.0989609122179 609.5959595959596,383.92603883244175 614.6464646464647,383.9854953319684 619.6969696969697,384.11136069588684 624.7474747474747,383.79087331552324 629.7979797979798,384.36648050659636 634.8484848484848,384.27477377005164 639.8989898989898,384.1155648746403 644.9494949494949,384.35607925916077 650,384.7630058026897 "/><text class="poloto_text" alignment-baseline="middle" text-anchor="start" font-size="large" x="675" y="150">brocc_par</text><line class="poloto1stroke" stroke="black" x1="680" x2="730" y1="131.25" y2="131.25"/><polyline class="poloto1stroke" fill="none" stroke="black" points="150,357.9705936026101 155.05050505050505,361.9061703135173 160.1010101010101,370.14002450236285 165.15151515151516,365.7713913799784 170.2020202020202,367.24468043446666 175.25252525252523,370.10107929917893 180.30303030303028,369.62916088409725 185.35353535353534,370.5610715745313 190.4040404040404,371.39293867055227 195.45454545454544,373.2062202068318 200.50505050505052,372.9502918002087 205.55555555555551,374.61063690937794 210.60606060606057,374.4959501889664 215.65656565656565,375.0871144014195 220.70707070707067,375.71133744680435 225.75757575757575,376.4797687634086 230.80808080808077,377.3132348513488 235.85858585858585,377.808464748622 240.9090909090909,378.35055420908253 245.95959595959596,378.9794429308886 251.010101010101,379.44763426480563 256.06060606060606,379.9758774952404 261.1111111111111,380.38061094985244 266.16161616161617,380.8856531975373 271.21212121212125,381.3535728328274 276.26262626262627,381.7569087945019 281.3131313131313,382.2670951161903 286.3636363636363,384.6392750279838 291.41414141414134,382.88545129122434 296.4646464646464,383.0428596957347 301.5151515151515,383.48537225942374 306.5656565656565,383.9471598257033 311.61616161616155,384.01912746200287 316.66666666666663,384.0653149285868 321.7171717171717,384.38699570291936 326.7676767676768,384.7873429796977 331.8181818181818,385.8395550621686 336.8686868686868,385.6606031665318 341.9191919191918,385.9874982145132 346.9696969696969,386.3249583091024 352.02020202020196,386.64373229812486 357.070707070707,386.20603881008185 362.12121212121207,385.6488772257908 367.1717171717171,386.93317713536715 372.2222222222222,386.4333660612457 377.27272727272725,386.9033968858666 382.3232323232323,386.5239470034798 387.3737373737373,387.27146402577796 392.4242424242424,387.21384441696824 397.47474747474746,386.7410316064066 402.5252525252525,387.94111404159 407.57575757575756,389.5272841256151 412.6262626262626,388.75012465312005 417.67676767676767,388.24843378849846 422.7272727272727,387.82689531881334 427.77777777777777,388.72418068423224 432.8282828282828,388.298822833849 437.8787878787879,388.79090804701434 442.9292929292929,388.80391838126445 447.979797979798,388.50029841565856 453.03030303030295,389.3692647241925 458.080808080808,389.2945307018733 463.13131313131305,389.43048011483035 468.18181818181813,389.86766140546183 473.23232323232315,390.17044027531836 478.28282828282823,389.49235720212414 483.33333333333326,390.38484299179845 488.38383838383834,390.27168766364775 493.43434343434336,390.05746564625446 498.48484848484844,390.38323879990554 503.5353535353535,390.49738212306323 508.58585858585855,390.59031475341266 513.6363636363636,389.86187773469055 518.6868686868686,390.0357778558573 523.7373737373737,390.4016870066744 528.7878787878788,390.85408342041376 533.8383838383837,390.73202573725257 538.8888888888888,390.57912830994525 543.9393939393939,391.16852583132663 548.9898989898988,391.32717312957607 554.0404040404039,390.70079729507074 559.090909090909,391.3946154887449 564.1414141414141,391.5673742156798 569.1919191919192,391.59569327256474 574.2424242424242,391.64708981282376 579.2929292929292,390.7829451799227 584.3434343434343,391.9269341985835 589.3939393939393,391.9977266408221 594.4444444444443,391.6109798953113 599.4949494949494,391.94113012684204 604.5454545454545,391.4838106379823 609.5959595959596,392.02647079555874 614.6464646464647,392.1377450332159 619.6969696969697,391.67365387857785 624.7474747474747,392.2438192971519 629.7979797979798,392.3663657778428 634.8484848484848,392.1437120030608 639.8989898989898,392.3171012268094 644.9494949494949,392.3668688753003 650,392.30753847513637 "/><text class="poloto_text" alignment-baseline="middle" text-anchor="start" font-size="large" x="675" y="200">naive</text><line class="poloto2stroke" stroke="black" x1="680" x2="730" y1="181.25" y2="181.25"/><polyline class="poloto2stroke" fill="none" stroke="black" points="150,400 155.05050505050505,400 160.1010101010101,400 165.15151515151516,400 170.2020202020202,400 175.25252525252523,400 180.30303030303028,400 185.35353535353534,400 190.4040404040404,400 195.45454545454544,400 200.50505050505052,400 205.55555555555551,400 210.60606060606057,400 215.65656565656565,400 220.70707070707067,400 225.75757575757575,400 230.80808080808077,400 235.85858585858585,400 240.9090909090909,400 245.95959595959596,400 251.010101010101,400 256.06060606060606,400 261.1111111111111,400 266.16161616161617,400 271.21212121212125,400 276.26262626262627,400 281.3131313131313,400 286.3636363636363,400 291.41414141414134,400 296.4646464646464,400 301.5151515151515,400 306.5656565656565,400 311.61616161616155,400 316.66666666666663,400 321.7171717171717,400 326.7676767676768,400 331.8181818181818,400 336.8686868686868,400 341.9191919191918,400 346.9696969696969,400 352.02020202020196,400 357.070707070707,400 362.12121212121207,400 367.1717171717171,400 372.2222222222222,400 377.27272727272725,400 382.3232323232323,400 387.3737373737373,400 392.4242424242424,400 397.47474747474746,400 402.5252525252525,400 407.57575757575756,400 412.6262626262626,400 417.67676767676767,400 422.7272727272727,400 427.77777777777777,400 432.8282828282828,400 437.8787878787879,400 442.9292929292929,400 447.979797979798,400 453.03030303030295,400 458.080808080808,400 463.13131313131305,400 468.18181818181813,400 473.23232323232315,400 478.28282828282823,400 483.33333333333326,400 488.38383838383834,400 493.43434343434336,400 498.48484848484844,400 503.5353535353535,400 508.58585858585855,400 513.6363636363636,400 518.6868686868686,400 523.7373737373737,400 528.7878787878788,400 533.8383838383837,400 538.8888888888888,400 543.9393939393939,400 548.9898989898988,400 554.0404040404039,400 559.090909090909,400 564.1414141414141,400 569.1919191919192,400 574.2424242424242,400 579.2929292929292,400 584.3434343434343,400 589.3939393939393,400 594.4444444444443,400 599.4949494949494,400 604.5454545454545,400 609.5959595959596,400 614.6464646464647,400 619.6969696969697,400 624.7474747474747,400 629.7979797979798,400 634.8484848484848,400 639.8989898989898,400 644.9494949494949,400 650,400 "/><text class="poloto_text" alignment-baseline="middle" text-anchor="start" font-size="large" x="675" y="250">nosort</text><line class="poloto3stroke" stroke="black" x1="680" x2="730" y1="231.25" y2="231.25"/><polyline class="poloto3stroke" fill="none" stroke="black" points="150,208.6390092746601 155.05050505050505,221.0451884779658 160.1010101010101,226.50392459133306 165.15151515151516,229.62268553015488 170.2020202020202,237.75180444829758 175.25252525252523,240.65576877262987 180.30303030303028,242.44152424801695 185.35353535353534,247.9549588849561 190.4040404040404,251.74337113958336 195.45454545454544,253.38307885304715 200.50505050505052,256.00615879687547 205.55555555555551,261.31904084734055 210.60606060606057,265.61892121717847 215.65656565656565,268.1194676802502 220.70707070707067,271.8372356918899 225.75757575757575,272.78196431754634 230.80808080808077,276.9386608109878 235.85858585858585,280.6376556175011 240.9090909090909,284.0878823812051 245.95959595959596,283.8549833581991 251.010101010101,287.13363438898966 256.06060606060606,290.67884647266953 261.1111111111111,290.6508706140502 266.16161616161617,294.39881277319984 271.21212121212125,296.48024785432074 276.26262626262627,298.88914868053894 281.3131313131313,298.19480528951897 286.3636363636363,302.4625472217739 291.41414141414134,304.30500451060885 296.4646464646464,305.8012423491216 301.5151515151515,308.3381002286875 306.5656565656565,309.368134423238 311.61616161616155,310.0120783689599 316.66666666666663,311.8728031654771 321.7171717171717,314.2161284230923 326.7676767676768,315.00742662413495 331.8181818181818,317.3240591166466 336.8686868686868,318.32430916171626 341.9191919191918,316.43402901456204 346.9696969696969,320.2207083779467 352.02020202020196,323.199372924769 357.070707070707,322.3553794900305 362.12121212121207,325.1324735555228 367.1717171717171,325.9255059478014 372.2222222222222,327.9997403653121 377.27272727272725,327.3586733050513 382.3232323232323,329.31321212746366 387.3737373737373,330.7605559130706 392.4242424242424,330.11469577703247 397.47474747474746,331.54935552674027 402.5252525252525,332.07051119299325 407.57575757575756,332.72904236499625 412.6262626262626,333.44659713871357 417.67676767676767,334.35815903198363 422.7272727272727,335.26315465843743 427.77777777777777,335.8642872205138 432.8282828282828,336.81859419776447 437.8787878787879,338.474544029146 442.9292929292929,338.6752266149631 447.979797979798,340.6468616509768 453.03030303030295,339.58826790075676 458.080808080808,341.8707885656582 463.13131313131305,341.78399840426675 468.18181818181813,342.28873645348887 473.23232323232315,342.4983408942179 478.28282828282823,344.1582453056143 483.33333333333326,344.6412175648335 488.38383838383834,343.198180657461 493.43434343434336,346.44539914710117 498.48484848484844,334.821562490097 503.5353535353535,348.0671604512601 508.58585858585855,347.5325030532404 513.6363636363636,347.57332674693106 518.6868686868686,348.97763035004874 523.7373737373737,350.08192276932294 528.7878787878788,349.50367789157985 533.8383838383837,350.65903535278835 538.8888888888888,351.13689863782656 543.9393939393939,351.399840509006 548.9898989898988,352.02702363943155 554.0404040404039,352.4523112901695 559.090909090909,353.3931555354563 564.1414141414141,353.6474888501405 569.1919191919192,353.60188898058703 574.2424242424242,354.5607979345808 579.2929292929292,354.7319706695309 584.3434343434343,355.47636640760294 589.3939393939393,355.2829533850479 594.4444444444443,355.84588174019564 599.4949494949494,356.0695326099387 604.5454545454545,356.46310952093216 609.5959595959596,356.8134265505467 614.6464646464647,357.22046359351714 619.6969696969697,357.55901178260746 624.7474747474747,358.7354889370841 629.7979797979798,358.4893897807872 634.8484848484848,358.77308344709394 639.8989898989898,358.974055931446 644.9494949494949,359.575205393437 650,359.87781786413444 "/><text class="poloto_text" alignment-baseline="middle" text-anchor="start" font-size="large" x="675" y="300">nosort_par</text><line class="poloto4stroke" stroke="black" x1="680" x2="730" y1="281.25" y2="281.25"/><polyline class="poloto4stroke" fill="none" stroke="black" points="150,273.3275247604657 155.05050505050505,285.01567729243885 160.1010101010101,279.46128766247256 165.15151515151516,287.5690879883523 170.2020202020202,294.0384610942971 175.25252525252523,294.2713939171323 180.30303030303028,301.2799262983458 185.35353535353534,305.2423179737391 190.4040404040404,307.04730815192033 195.45454545454544,309.79462716788584 200.50505050505052,309.5754508755298 205.55555555555551,312.4464434664902 210.60606060606057,314.18931865857996 215.65656565656565,319.66816307032656 220.70707070707067,321.02283812425037 225.75757575757575,319.3368064448925 230.80808080808077,319.5711627605338 235.85858585858585,324.6923724796469 240.9090909090909,324.4275729178556 245.95959595959596,331.3772337965861 251.010101010101,328.48534381123415 256.06060606060606,331.3897488333393 261.1111111111111,336.5534891375171 266.16161616161617,338.04453350227584 271.21212121212125,340.0540919466373 276.26262626262627,337.0428534644329 281.3131313131313,341.2165083721722 286.3636363636363,343.55270836579615 291.41414141414134,344.3198643888453 296.4646464646464,341.7526217628338 301.5151515151515,347.21010598252775 306.5656565656565,346.0698609449461 311.61616161616155,346.1578926000634 316.66666666666663,350.2418297612063 321.7171717171717,351.30412069274206 326.7676767676768,346.49497699655126 331.8181818181818,352.49827385789 336.8686868686868,352.3237185400344 341.9191919191918,353.61210302896865 346.9696969696969,351.7971913009276 352.02020202020196,352.38974780634453 357.070707070707,352.0189064804529 362.12121212121207,355.8106012184916 367.1717171717171,354.26310853900384 372.2222222222222,358.80247499855886 377.27272727272725,358.7308882603344 382.3232323232323,359.4344577047289 387.3737373737373,361.7176010664834 392.4242424242424,361.1595619866269 397.47474747474746,361.85769225850925 402.5252525252525,362.83165383643205 407.57575757575756,365.1974819803252 412.6262626262626,363.28842602805764 417.67676767676767,363.42079785909453 422.7272727272727,364.035575152215 427.77777777777777,364.87260452214764 432.8282828282828,364.1784028304115 437.8787878787879,363.45494478652734 442.9292929292929,366.6111403361671 447.979797979798,367.5440468215687 453.03030303030295,366.5869773582788 458.080808080808,367.48440702296836 463.13131313131305,366.4703185478335 468.18181818181813,369.3138669774876 473.23232323232315,369.32911720041807 478.28282828282823,369.19300008830857 483.33333333333326,370.28575896586943 488.38383838383834,368.1826516942725 493.43434343434336,370.06456898368987 498.48484848484844,370.06929575980234 503.5353535353535,369.3884528005557 508.58585858585855,372.2836512691877 513.6363636363636,370.501290076647 518.6868686868686,371.3790326408287 523.7373737373737,372.31153222828664 528.7878787878788,371.70601218838306 533.8383838383837,373.44202861513475 538.8888888888888,373.8443635818679 543.9393939393939,373.98539466914383 548.9898989898988,374.39937627701875 554.0404040404039,373.34984218101425 559.090909090909,374.4045034511077 564.1414141414141,374.5668037308962 569.1919191919192,374.50887602364355 574.2424242424242,376.074701210485 579.2929292929292,374.3793862780415 584.3434343434343,376.4603130617312 589.3939393939393,376.1654771517336 594.4444444444443,375.3217359157206 599.4949494949494,377.2962699370838 604.5454545454545,375.57579233180417 609.5959595959596,375.56800537115686 614.6464646464647,376.77318638057375 619.6969696969697,376.7120684894432 624.7474747474747,378.4737597864426 629.7979797979798,378.57544787254494 634.8484848484848,376.97063718272324 639.8989898989898,377.2111723671386 644.9494949494949,377.48881326403404 650,378.32414744253356 "/><text class="poloto_text" alignment-baseline="middle" text-anchor="start" font-size="large" x="675" y="350">sweep</text><line class="poloto5stroke" stroke="black" x1="680" x2="730" y1="331.25" y2="331.25"/><polyline class="poloto5stroke" fill="none" stroke="black" points="150,100 155.05050505050505,108.40189913960234 160.1010101010101,114.90066769699234 165.15151515151516,124.11087805165926 170.2020202020202,129.26455250670642 175.25252525252523,137.195245627627 180.30303030303028,143.0461013593524 185.35353535353534,148.93359610591645 190.4040404040404,154.26032568640073 195.45454545454544,159.60855195824792 200.50505050505052,164.67577685018236 205.55555555555551,170.06617360891397 210.60606060606057,174.77077183344272 215.65656565656565,170.62955696176226 220.70707070707067,184.13937078766648 225.75757575757575,187.77594640962548 230.80808080808077,193.02819416651607 235.85858585858585,196.25397706448456 240.9090909090909,194.10863040635147 245.95959595959596,200.6808758924135 251.010101010101,206.80041946628012 256.06060606060606,211.20696689705827 261.1111111111111,213.8812665820391 266.16161616161617,216.48371043015538 271.21212121212125,220.9087567674462 276.26262626262627,218.06861172059254 281.3131313131313,218.33656896642594 286.3636363636363,223.68986131267084 291.41414141414134,232.00114181022965 296.4646464646464,234.6502125227093 301.5151515151515,237.41326795914816 306.5656565656565,239.76230668788943 311.61616161616155,241.8401745870377 316.66666666666663,243.4124971410436 321.7171717171717,246.47569766064925 326.7676767676768,248.92821586643973 331.8181818181818,250.6014946102467 336.8686868686868,252.53763982561418 341.9191919191918,251.28001318124004 346.9696969696969,257.6714685809549 352.02020202020196,259.07028491180347 357.070707070707,260.8409526634389 362.12121212121207,262.28683785641704 367.1717171717171,264.23634960423453 372.2222222222222,266.4024415575278 377.27272727272725,268.08106327433325 382.3232323232323,269.5583290087246 387.3737373737373,264.5967584828482 392.4242424242424,272.52995929109574 397.47474747474746,274.08650122485165 402.5252525252525,275.33231872890525 407.57575757575756,277.00071859736846 412.6262626262626,277.9383700587905 417.67676767676767,279.7121720945863 422.7272727272727,280.66883335993913 427.77777777777777,280.02739190157047 432.8282828282828,282.7958644106332 437.8787878787879,283.5445904268215 442.9292929292929,278.98764805608926 447.979797979798,286.48977884282095 453.03030303030295,286.76919943072244 458.080808080808,288.52745224509886 463.13131313131305,289.3251464138184 468.18181818181813,290.82143365208145 473.23232323232315,292.0217500860823 478.28282828282823,293.87777150636873 483.33333333333326,294.0795499866475 488.38383838383834,295.38878637020326 493.43434343434336,296.0619411683033 498.48484848484844,297.3360582293404 503.5353535353535,297.7637456679506 508.58585858585855,298.6446589161087 513.6363636363636,299.2476088690006 518.6868686868686,300.7650340004398 523.7373737373737,301.66559404930956 528.7878787878788,302.2675027074638 533.8383838383837,303.3244103662048 538.8888888888888,298.60244812942796 543.9393939393939,304.7150484383835 548.9898989898988,305.92419052778246 554.0404040404039,306.22502720745416 559.090909090909,307.18556895319637 564.1414141414141,308.132512767658 569.1919191919192,307.7778459600258 574.2424242424242,308.86968964221177 579.2929292929292,309.99443615811776 584.3434343434343,310.8628083696541 589.3939393939393,311.3882345143255 594.4444444444443,312.53154103643544 599.4949494949494,307.4069149345876 604.5454545454545,311.3459769278812 609.5959595959596,313.71172057220144 614.6464646464647,314.721266870291 619.6969696969697,315.5213127271259 624.7474747474747,316.17071534526156 629.7979797979798,316.57969717840365 634.8484848484848,316.59345240888933 639.8989898989898,317.9688870579011 644.9494949494949,318.24883934311555 650,318.859561956727 "/><text class="poloto_text" alignment-baseline="start" text-anchor="middle" font-size="x-large" x="400" y="37.5">Bench of space partitioning algs with abspiral(30_000,grow)</text><text class="poloto_text" alignment-baseline="start" text-anchor="middle" font-size="x-large" x="400" y="481.25">Grow</text><text class="poloto_text" alignment-baseline="start" text-anchor="middle" font-size="x-large" transform="rotate(-90,37.5,250)" x="37.5" y="250">Time in Seconds</text><path stroke="black" fill="none" class="poloto_axis_lines" d=" M 150 100 L 150 400 L 650 400"/></svg>