<svg class="poloto" width="800" height="500" viewBox="0 0 800 500" xmlns="http://www.w3.org/2000/svg"><circle  r="1e5" class="poloto_background" /><text  class="poloto_text poloto_legend_text" x="675" y="100" >brocc</text><line  class="poloto_scatter poloto_legend_icon poloto0stroke poloto0legend" stroke="black" x1="685" x2="685" y1="81.25" y2="81.25" /><path  class="poloto_scatter poloto0stroke" d=" M 150.00 335.80 h 0 M 155.05 340.11 h 0 M 160.10 341.79 h 0 M 165.15 342.36 h 0 M 170.20 344.68 h 0 M 175.25 346.11 h 0 M 180.30 346.94 h 0 M 185.35 348.88 h 0 M 190.40 350.00 h 0 M 195.45 351.19 h 0 M 200.51 352.88 h 0 M 205.56 354.06 h 0 M 210.61 354.84 h 0 M 215.66 356.16 h 0 M 220.71 357.34 h 0 M 225.76 358.05 h 0 M 230.81 359.29 h 0 M 235.86 360.04 h 0 M 240.91 360.69 h 0 M 245.96 361.64 h 0 M 251.01 362.55 h 0 M 256.06 363.29 h 0 M 261.11 364.46 h 0 M 266.16 365.06 h 0 M 271.21 365.62 h 0 M 276.26 366.41 h 0 M 281.31 367.13 h 0 M 286.36 367.55 h 0 M 291.41 368.14 h 0 M 296.46 368.79 h 0 M 301.52 369.39 h 0 M 306.57 369.99 h 0 M 311.62 370.47 h 0 M 316.67 371.02 h 0 M 321.72 371.46 h 0 M 326.77 371.97 h 0 M 331.82 372.19 h 0 M 336.87 372.48 h 0 M 341.92 372.79 h 0 M 346.97 373.72 h 0 M 352.02 374.15 h 0 M 357.07 374.46 h 0 M 362.12 374.64 h 0 M 367.17 375.11 h 0 M 372.22 375.38 h 0 M 377.27 375.74 h 0 M 382.32 375.77 h 0 M 387.37 376.58 h 0 M 392.42 376.33 h 0 M 397.47 376.91 h 0 M 402.53 377.27 h 0 M 407.58 377.82 h 0 M 412.63 378.25 h 0 M 417.68 378.51 h 0 M 422.73 378.78 h 0 M 427.78 378.69 h 0 M 432.83 378.84 h 0 M 437.88 379.60 h 0 M 442.93 379.73 h 0 M 447.98 380.00 h 0 M 453.03 380.27 h 0 M 458.08 380.46 h 0 M 463.13 380.63 h 0 M 468.18 380.62 h 0 M 473.23 380.83 h 0 M 478.28 381.08 h 0 M 483.33 381.32 h 0 M 488.38 381.53 h 0 M 493.43 381.67 h 0 M 498.48 381.82 h 0 M 503.54 382.03 h 0 M 508.59 382.22 h 0 M 513.64 382.08 h 0 M 518.69 378.31 h 0 M 523.74 382.50 h 0 M 528.79 382.79 h 0 M 533.84 382.92 h 0 M 538.89 383.26 h 0 M 543.94 383.28 h 0 M 548.99 383.48 h 0 M 554.04 383.68 h 0 M 559.09 383.74 h 0 M 564.14 383.87 h 0 M 569.19 383.87 h 0 M 574.24 384.15 h 0 M 579.29 384.18 h 0 M 584.34 384.38 h 0 M 589.39 384.26 h 0 M 594.44 383.99 h 0 M 599.49 384.76 h 0 M 604.55 384.82 h 0 M 609.60 385.02 h 0 M 614.65 384.73 h 0 M 619.70 384.94 h 0 M 624.75 385.27 h 0 M 629.80 385.30 h 0 M 634.85 385.31 h 0 M 639.90 385.51 h 0 M 644.95 385.63 h 0 M 650.00 385.64 h 0" /><text  class="poloto_text poloto_legend_text" x="675" y="150" >brocc_par</text><line  class="poloto_scatter poloto_legend_icon poloto1stroke poloto1legend" stroke="black" x1="685" x2="685" y1="131.25" y2="131.25" /><path  class="poloto_scatter poloto1stroke" d=" M 150.00 366.61 h 0 M 155.05 371.80 h 0 M 160.10 373.29 h 0 M 165.15 374.16 h 0 M 170.20 374.84 h 0 M 175.25 375.48 h 0 M 180.30 376.38 h 0 M 185.35 376.48 h 0 M 190.40 377.65 h 0 M 195.45 378.32 h 0 M 200.51 378.50 h 0 M 205.56 378.85 h 0 M 210.61 379.88 h 0 M 215.66 380.19 h 0 M 220.71 381.12 h 0 M 225.76 381.59 h 0 M 230.81 382.38 h 0 M 235.86 382.33 h 0 M 240.91 382.68 h 0 M 245.96 383.70 h 0 M 251.01 383.93 h 0 M 256.06 384.26 h 0 M 261.11 384.08 h 0 M 266.16 384.21 h 0 M 271.21 384.61 h 0 M 276.26 385.39 h 0 M 281.31 385.93 h 0 M 286.36 386.23 h 0 M 291.41 386.26 h 0 M 296.46 386.51 h 0 M 301.52 386.84 h 0 M 306.57 386.94 h 0 M 311.62 387.13 h 0 M 316.67 387.67 h 0 M 321.72 387.79 h 0 M 326.77 388.10 h 0 M 331.82 387.95 h 0 M 336.87 388.45 h 0 M 341.92 388.58 h 0 M 346.97 388.72 h 0 M 352.02 389.06 h 0 M 357.07 388.93 h 0 M 362.12 388.89 h 0 M 367.17 389.43 h 0 M 372.22 389.82 h 0 M 377.27 389.71 h 0 M 382.32 389.90 h 0 M 387.37 389.71 h 0 M 392.42 390.23 h 0 M 397.47 390.35 h 0 M 402.53 390.58 h 0 M 407.58 390.69 h 0 M 412.63 390.92 h 0 M 417.68 390.89 h 0 M 422.73 390.89 h 0 M 427.78 391.05 h 0 M 432.83 390.32 h 0 M 437.88 391.52 h 0 M 442.93 391.46 h 0 M 447.98 391.57 h 0 M 453.03 391.55 h 0 M 458.08 391.80 h 0 M 463.13 391.74 h 0 M 468.18 392.06 h 0 M 473.23 391.83 h 0 M 478.28 392.19 h 0 M 483.33 392.25 h 0 M 488.38 392.24 h 0 M 493.43 392.27 h 0 M 498.48 392.26 h 0 M 503.54 392.51 h 0 M 508.59 392.26 h 0 M 513.64 392.52 h 0 M 518.69 392.02 h 0 M 523.74 392.46 h 0 M 528.79 392.75 h 0 M 533.84 392.82 h 0 M 538.89 392.95 h 0 M 543.94 392.99 h 0 M 548.99 393.21 h 0 M 554.04 393.13 h 0 M 559.09 393.09 h 0 M 564.14 393.13 h 0 M 569.19 393.22 h 0 M 574.24 393.19 h 0 M 579.29 393.42 h 0 M 584.34 392.35 h 0 M 589.39 393.51 h 0 M 594.44 393.45 h 0 M 599.49 393.56 h 0 M 604.55 393.55 h 0 M 609.60 393.62 h 0 M 614.65 393.72 h 0 M 619.70 391.81 h 0 M 624.75 393.58 h 0 M 629.80 393.84 h 0 M 634.85 393.47 h 0 M 639.90 393.91 h 0 M 644.95 393.79 h 0 M 650.00 393.88 h 0" /><text  class="poloto_text poloto_legend_text" x="675" y="200" >naive</text><line  class="poloto_scatter poloto_legend_icon poloto2stroke poloto2legend" stroke="black" x1="685" x2="685" y1="181.25" y2="181.25" /><path  class="poloto_scatter poloto2stroke" d=" M 150.00 400.00 h 0 M 155.05 400.00 h 0 M 160.10 400.00 h 0 M 165.15 400.00 h 0 M 170.20 400.00 h 0 M 175.25 400.00 h 0 M 180.30 400.00 h 0 M 185.35 400.00 h 0 M 190.40 400.00 h 0 M 195.45 400.00 h 0 M 200.51 400.00 h 0 M 205.56 400.00 h 0 M 210.61 400.00 h 0 M 215.66 400.00 h 0 M 220.71 400.00 h 0 M 225.76 400.00 h 0 M 230.81 400.00 h 0 M 235.86 400.00 h 0 M 240.91 400.00 h 0 M 245.96 400.00 h 0 M 251.01 400.00 h 0 M 256.06 400.00 h 0 M 261.11 400.00 h 0 M 266.16 400.00 h 0 M 271.21 400.00 h 0 M 276.26 400.00 h 0 M 281.31 400.00 h 0 M 286.36 400.00 h 0 M 291.41 400.00 h 0 M 296.46 400.00 h 0 M 301.52 400.00 h 0 M 306.57 400.00 h 0 M 311.62 400.00 h 0 M 316.67 400.00 h 0 M 321.72 400.00 h 0 M 326.77 400.00 h 0 M 331.82 400.00 h 0 M 336.87 400.00 h 0 M 341.92 400.00 h 0 M 346.97 400.00 h 0 M 352.02 400.00 h 0 M 357.07 400.00 h 0 M 362.12 400.00 h 0 M 367.17 400.00 h 0 M 372.22 400.00 h 0 M 377.27 400.00 h 0 M 382.32 400.00 h 0 M 387.37 400.00 h 0 M 392.42 400.00 h 0 M 397.47 400.00 h 0 M 402.53 400.00 h 0 M 407.58 400.00 h 0 M 412.63 400.00 h 0 M 417.68 400.00 h 0 M 422.73 400.00 h 0 M 427.78 400.00 h 0 M 432.83 400.00 h 0 M 437.88 400.00 h 0 M 442.93 400.00 h 0 M 447.98 400.00 h 0 M 453.03 400.00 h 0 M 458.08 400.00 h 0 M 463.13 400.00 h 0 M 468.18 400.00 h 0 M 473.23 400.00 h 0 M 478.28 400.00 h 0 M 483.33 400.00 h 0 M 488.38 400.00 h 0 M 493.43 400.00 h 0 M 498.48 400.00 h 0 M 503.54 400.00 h 0 M 508.59 400.00 h 0 M 513.64 400.00 h 0 M 518.69 400.00 h 0 M 523.74 400.00 h 0 M 528.79 400.00 h 0 M 533.84 400.00 h 0 M 538.89 400.00 h 0 M 543.94 400.00 h 0 M 548.99 400.00 h 0 M 554.04 400.00 h 0 M 559.09 400.00 h 0 M 564.14 400.00 h 0 M 569.19 400.00 h 0 M 574.24 400.00 h 0 M 579.29 400.00 h 0 M 584.34 400.00 h 0 M 589.39 400.00 h 0 M 594.44 400.00 h 0 M 599.49 400.00 h 0 M 604.55 400.00 h 0 M 609.60 400.00 h 0 M 614.65 400.00 h 0 M 619.70 400.00 h 0 M 624.75 400.00 h 0 M 629.80 400.00 h 0 M 634.85 400.00 h 0 M 639.90 400.00 h 0 M 644.95 400.00 h 0 M 650.00 400.00 h 0" /><text  class="poloto_text poloto_legend_text" x="675" y="250" >nosort</text><line  class="poloto_scatter poloto_legend_icon poloto3stroke poloto3legend" stroke="black" x1="685" x2="685" y1="231.25" y2="231.25" /><path  class="poloto_scatter poloto3stroke" d=" M 150.00 224.20 h 0 M 155.05 230.27 h 0 M 160.10 239.06 h 0 M 165.15 240.42 h 0 M 170.20 249.60 h 0 M 175.25 250.85 h 0 M 180.30 252.84 h 0 M 185.35 258.17 h 0 M 190.40 261.92 h 0 M 195.45 262.85 h 0 M 200.51 265.83 h 0 M 205.56 269.85 h 0 M 210.61 274.81 h 0 M 215.66 278.56 h 0 M 220.71 280.60 h 0 M 225.76 281.23 h 0 M 230.81 285.34 h 0 M 235.86 288.44 h 0 M 240.91 291.01 h 0 M 245.96 293.03 h 0 M 251.01 294.85 h 0 M 256.06 298.75 h 0 M 261.11 300.19 h 0 M 266.16 294.93 h 0 M 271.21 304.17 h 0 M 276.26 306.23 h 0 M 281.31 308.44 h 0 M 286.36 309.26 h 0 M 291.41 311.60 h 0 M 296.46 311.93 h 0 M 301.52 314.96 h 0 M 306.57 315.51 h 0 M 311.62 316.43 h 0 M 316.67 318.67 h 0 M 321.72 320.81 h 0 M 326.77 321.64 h 0 M 331.82 322.73 h 0 M 336.87 323.86 h 0 M 341.92 325.00 h 0 M 346.97 326.58 h 0 M 352.02 328.23 h 0 M 357.07 328.03 h 0 M 362.12 330.71 h 0 M 367.17 331.01 h 0 M 372.22 333.10 h 0 M 377.27 331.13 h 0 M 382.32 333.41 h 0 M 387.37 335.38 h 0 M 392.42 335.28 h 0 M 397.47 336.34 h 0 M 402.53 336.61 h 0 M 407.58 337.91 h 0 M 412.63 338.86 h 0 M 417.68 339.08 h 0 M 422.73 341.29 h 0 M 427.78 339.79 h 0 M 432.83 342.60 h 0 M 437.88 343.01 h 0 M 442.93 344.10 h 0 M 447.98 345.48 h 0 M 453.03 344.98 h 0 M 458.08 345.79 h 0 M 463.13 346.22 h 0 M 468.18 346.58 h 0 M 473.23 346.57 h 0 M 478.28 347.76 h 0 M 483.33 348.81 h 0 M 488.38 349.43 h 0 M 493.43 349.60 h 0 M 498.48 349.84 h 0 M 503.54 351.32 h 0 M 508.59 350.98 h 0 M 513.64 351.43 h 0 M 518.69 352.34 h 0 M 523.74 353.02 h 0 M 528.79 352.61 h 0 M 533.84 353.74 h 0 M 538.89 354.05 h 0 M 543.94 354.30 h 0 M 548.99 354.95 h 0 M 554.04 355.16 h 0 M 559.09 355.83 h 0 M 564.14 356.18 h 0 M 569.19 356.29 h 0 M 574.24 357.12 h 0 M 579.29 356.96 h 0 M 584.34 357.30 h 0 M 589.39 357.83 h 0 M 594.44 358.05 h 0 M 599.49 358.09 h 0 M 604.55 358.73 h 0 M 609.60 359.43 h 0 M 614.65 359.37 h 0 M 619.70 359.27 h 0 M 624.75 360.29 h 0 M 629.80 360.17 h 0 M 634.85 360.74 h 0 M 639.90 361.03 h 0 M 644.95 361.26 h 0 M 650.00 361.57 h 0" /><text  class="poloto_text poloto_legend_text" x="675" y="300" >nosort_par</text><line  class="poloto_scatter poloto_legend_icon poloto4stroke poloto4legend" stroke="black" x1="685" x2="685" y1="281.25" y2="281.25" /><path  class="poloto_scatter poloto4stroke" d=" M 150.00 296.88 h 0 M 155.05 299.16 h 0 M 160.10 309.33 h 0 M 165.15 312.40 h 0 M 170.20 309.92 h 0 M 175.25 310.04 h 0 M 180.30 317.78 h 0 M 185.35 318.90 h 0 M 190.40 322.36 h 0 M 195.45 324.82 h 0 M 200.51 327.28 h 0 M 205.56 328.72 h 0 M 210.61 325.71 h 0 M 215.66 333.29 h 0 M 220.71 334.55 h 0 M 225.76 335.11 h 0 M 230.81 338.24 h 0 M 235.86 339.70 h 0 M 240.91 342.09 h 0 M 245.96 343.78 h 0 M 251.01 345.23 h 0 M 256.06 341.45 h 0 M 261.11 347.48 h 0 M 266.16 344.84 h 0 M 271.21 347.66 h 0 M 276.26 351.28 h 0 M 281.31 352.95 h 0 M 286.36 354.09 h 0 M 291.41 354.56 h 0 M 296.46 352.31 h 0 M 301.52 353.08 h 0 M 306.57 354.47 h 0 M 311.62 355.50 h 0 M 316.67 356.38 h 0 M 321.72 357.83 h 0 M 326.77 358.40 h 0 M 331.82 358.76 h 0 M 336.87 359.88 h 0 M 341.92 360.88 h 0 M 346.97 362.84 h 0 M 352.02 363.80 h 0 M 357.07 362.19 h 0 M 362.12 363.11 h 0 M 367.17 365.86 h 0 M 372.22 366.48 h 0 M 377.27 365.98 h 0 M 382.32 366.72 h 0 M 387.37 367.67 h 0 M 392.42 368.41 h 0 M 397.47 368.85 h 0 M 402.53 369.38 h 0 M 407.58 368.78 h 0 M 412.63 369.75 h 0 M 417.68 369.07 h 0 M 422.73 371.04 h 0 M 427.78 371.69 h 0 M 432.83 372.24 h 0 M 437.88 371.90 h 0 M 442.93 371.07 h 0 M 447.98 371.34 h 0 M 453.03 373.54 h 0 M 458.08 373.59 h 0 M 463.13 374.33 h 0 M 468.18 374.54 h 0 M 473.23 374.59 h 0 M 478.28 374.93 h 0 M 483.33 375.44 h 0 M 488.38 375.57 h 0 M 493.43 374.82 h 0 M 498.48 374.78 h 0 M 503.54 375.44 h 0 M 508.59 374.48 h 0 M 513.64 377.17 h 0 M 518.69 375.67 h 0 M 523.74 376.46 h 0 M 528.79 377.57 h 0 M 533.84 377.81 h 0 M 538.89 378.37 h 0 M 543.94 378.16 h 0 M 548.99 378.80 h 0 M 554.04 377.52 h 0 M 559.09 378.86 h 0 M 564.14 379.29 h 0 M 569.19 379.45 h 0 M 574.24 378.85 h 0 M 579.29 380.00 h 0 M 584.34 380.02 h 0 M 589.39 379.36 h 0 M 594.44 380.47 h 0 M 599.49 380.46 h 0 M 604.55 379.75 h 0 M 609.60 379.92 h 0 M 614.65 379.89 h 0 M 619.70 380.96 h 0 M 624.75 381.45 h 0 M 629.80 380.58 h 0 M 634.85 380.74 h 0 M 639.90 381.17 h 0 M 644.95 380.83 h 0 M 650.00 382.11 h 0" /><text  class="poloto_text poloto_legend_text" x="675" y="350" >sweep</text><line  class="poloto_scatter poloto_legend_icon poloto5stroke poloto5legend" stroke="black" x1="685" x2="685" y1="331.25" y2="331.25" /><path  class="poloto_scatter poloto5stroke" d=" M 150.00 100.00 h 0 M 155.05 108.03 h 0 M 160.10 115.45 h 0 M 165.15 122.24 h 0 M 170.20 125.18 h 0 M 175.25 135.24 h 0 M 180.30 141.27 h 0 M 185.35 146.69 h 0 M 190.40 150.41 h 0 M 195.45 157.88 h 0 M 200.51 163.43 h 0 M 205.56 168.70 h 0 M 210.61 172.82 h 0 M 215.66 177.70 h 0 M 220.71 182.71 h 0 M 225.76 185.96 h 0 M 230.81 190.00 h 0 M 235.86 194.29 h 0 M 240.91 198.23 h 0 M 245.96 202.11 h 0 M 251.01 205.88 h 0 M 256.06 208.61 h 0 M 261.11 212.88 h 0 M 266.16 215.76 h 0 M 271.21 219.27 h 0 M 276.26 222.19 h 0 M 281.31 224.67 h 0 M 286.36 227.24 h 0 M 291.41 230.67 h 0 M 296.46 233.34 h 0 M 301.52 235.70 h 0 M 306.57 238.35 h 0 M 311.62 240.79 h 0 M 316.67 243.43 h 0 M 321.72 243.69 h 0 M 326.77 247.42 h 0 M 331.82 249.65 h 0 M 336.87 251.81 h 0 M 341.92 254.15 h 0 M 346.97 256.12 h 0 M 352.02 258.33 h 0 M 357.07 259.82 h 0 M 362.12 259.66 h 0 M 367.17 263.78 h 0 M 372.22 265.93 h 0 M 377.27 267.77 h 0 M 382.32 269.30 h 0 M 387.37 270.68 h 0 M 392.42 272.71 h 0 M 397.47 274.03 h 0 M 402.53 275.23 h 0 M 407.58 275.55 h 0 M 412.63 278.23 h 0 M 417.68 279.88 h 0 M 422.73 281.41 h 0 M 427.78 282.39 h 0 M 432.83 283.55 h 0 M 437.88 284.87 h 0 M 442.93 286.50 h 0 M 447.98 287.34 h 0 M 453.03 288.51 h 0 M 458.08 289.55 h 0 M 463.13 291.03 h 0 M 468.18 292.19 h 0 M 473.23 293.25 h 0 M 478.28 294.26 h 0 M 483.33 295.55 h 0 M 488.38 291.79 h 0 M 493.43 297.22 h 0 M 498.48 298.33 h 0 M 503.54 299.35 h 0 M 508.59 300.08 h 0 M 513.64 298.34 h 0 M 518.69 300.35 h 0 M 523.74 302.90 h 0 M 528.79 303.49 h 0 M 533.84 304.60 h 0 M 538.89 305.36 h 0 M 543.94 306.19 h 0 M 548.99 306.56 h 0 M 554.04 307.46 h 0 M 559.09 308.32 h 0 M 564.14 309.21 h 0 M 569.19 309.97 h 0 M 574.24 310.10 h 0 M 579.29 310.70 h 0 M 584.34 312.04 h 0 M 589.39 312.39 h 0 M 594.44 313.62 h 0 M 599.49 314.12 h 0 M 604.55 314.76 h 0 M 609.60 314.97 h 0 M 614.65 315.89 h 0 M 619.70 316.34 h 0 M 624.75 316.86 h 0 M 629.80 317.73 h 0 M 634.85 317.15 h 0 M 639.90 318.89 h 0 M 644.95 319.54 h 0 M 650.00 319.99 h 0" /><text  class="poloto_labels poloto_text poloto_title" x="400" y="37.5" >Bench of space partitioning algs with abspiral(30_000,grow)</text><text  class="poloto_labels poloto_text poloto_xname" x="400" y="481.25" >Grow</text><text  class="poloto_labels poloto_text poloto_yname" transform="rotate(-90,37.5,250)" x="37.5" y="250" >Time in Seconds</text><text  class="poloto_tick_labels poloto_text" dominant-baseline="middle" text-anchor="start" x="150" y="70" ></text><line  class="poloto_axis_lines" stroke="black" x1="150" x2="144" y1="400" y2="400" /><text  class="poloto_tick_labels poloto_text" dominant-baseline="middle" text-anchor="end" x="135" y="400" >0e0</text><line  class="poloto_axis_lines" stroke="black" x1="150" x2="144" y1="339.22824391186725" y2="339.22824391186725" /><text  class="poloto_tick_labels poloto_text" dominant-baseline="middle" text-anchor="end" x="135" y="339.22824391186725" >0.05</text><line  class="poloto_axis_lines" stroke="black" x1="150" x2="144" y1="278.4564878237345" y2="278.4564878237345" /><text  class="poloto_tick_labels poloto_text" dominant-baseline="middle" text-anchor="end" x="135" y="278.4564878237345" >0.10</text><line  class="poloto_axis_lines" stroke="black" x1="150" x2="144" y1="217.6847317356017" y2="217.6847317356017" /><text  class="poloto_tick_labels poloto_text" dominant-baseline="middle" text-anchor="end" x="135" y="217.6847317356017" >0.15</text><line  class="poloto_axis_lines" stroke="black" x1="150" x2="144" y1="156.91297564746895" y2="156.91297564746895" /><text  class="poloto_tick_labels poloto_text" dominant-baseline="middle" text-anchor="end" x="135" y="156.91297564746895" >0.20</text><text  class="poloto_tick_labels poloto_text" dominant-baseline="middle" text-anchor="start" x="440.00000000000006" y="70" ></text><line  class="poloto_axis_lines" stroke="black" x1="150" x2="150" y1="400" y2="405" /><text  class="poloto_tick_labels poloto_text" dominant-baseline="start" text-anchor="middle" x="150" y="430" >0.20</text><line  class="poloto_axis_lines" stroke="black" x1="213.1313131313131" x2="213.1313131313131" y1="400" y2="405" /><text  class="poloto_tick_labels poloto_text" dominant-baseline="start" text-anchor="middle" x="213.1313131313131" y="430" >0.25</text><line  class="poloto_axis_lines" stroke="black" x1="276.26262626262627" x2="276.26262626262627" y1="400" y2="405" /><text  class="poloto_tick_labels poloto_text" dominant-baseline="start" text-anchor="middle" x="276.26262626262627" y="430" >0.30</text><line  class="poloto_axis_lines" stroke="black" x1="339.3939393939394" x2="339.3939393939394" y1="400" y2="405" /><text  class="poloto_tick_labels poloto_text" dominant-baseline="start" text-anchor="middle" x="339.3939393939394" y="430" >0.35</text><line  class="poloto_axis_lines" stroke="black" x1="402.5252525252525" x2="402.5252525252525" y1="400" y2="405" /><text  class="poloto_tick_labels poloto_text" dominant-baseline="start" text-anchor="middle" x="402.5252525252525" y="430" >0.40</text><line  class="poloto_axis_lines" stroke="black" x1="465.65656565656565" x2="465.65656565656565" y1="400" y2="405" /><text  class="poloto_tick_labels poloto_text" dominant-baseline="start" text-anchor="middle" x="465.65656565656565" y="430" >0.45</text><line  class="poloto_axis_lines" stroke="black" x1="528.7878787878788" x2="528.7878787878788" y1="400" y2="405" /><text  class="poloto_tick_labels poloto_text" dominant-baseline="start" text-anchor="middle" x="528.7878787878788" y="430" >0.50</text><line  class="poloto_axis_lines" stroke="black" x1="591.9191919191919" x2="591.9191919191919" y1="400" y2="405" /><text  class="poloto_tick_labels poloto_text" dominant-baseline="start" text-anchor="middle" x="591.9191919191919" y="430" >0.55</text><path  stroke="black" fill="none" class="poloto_axis_lines" style="stroke-dasharray:6.313131313131312;stroke-dashoffset:-0;" d=" M 150 400 L 650 400" /><path  stroke="black" fill="none" class="poloto_axis_lines" style="stroke-dasharray:6.077175608813276;stroke-dashoffset:-0;" d=" M 150 400 L 150 100" /></svg>