<svg class="poloto" width="800" height="500" viewBox="0 0 800 500" xmlns="http://www.w3.org/2000/svg" ><rect class="poloto_background" fill="white" x="0" y="0" width="800" height="500" /><style><style>.poloto {
            font-family: "Arial";
            stroke-width:2;
            }
            .poloto_text{fill: var(--poloto_fg_color,black);  }
            .poloto_axis_lines{stroke: var(--poloto_fg_color,black);stoke-width:3;fill:none}
            .poloto_background{fill: var(--poloto_bg_color,aliceblue); }
            .poloto0stroke{stroke:  var(--poloto_color0,blue); }
            .poloto1stroke{stroke:  var(--poloto_color1,red); }
            .poloto2stroke{stroke:  var(--poloto_color2,green); }
            .poloto3stroke{stroke:  var(--poloto_color3,gold); }
            .poloto4stroke{stroke:  var(--poloto_color4,aqua); }
            .poloto5stroke{stroke:  var(--poloto_color5,brown); }
            .poloto6stroke{stroke:  var(--poloto_color6,lime); }
            .poloto7stroke{stroke:  var(--poloto_color7,chocolate); }
            .poloto0fill{fill:var(--poloto_color0,blue);}
            .poloto1fill{fill:var(--poloto_color1,red);}
            .poloto2fill{fill:var(--poloto_color2,green);}
            .poloto3fill{fill:var(--poloto_color3,gold);}
            .poloto4fill{fill:var(--poloto_color4,aqua);}
            .poloto5fill{fill:var(--poloto_color5,brown);}
            .poloto6fill{fill:var(--poloto_color6,lime);}
            .poloto7fill{fill:var(--poloto_color7,chocolate);}</style></style><line class="poloto_axis_lines" stroke="black" x1="150" x2="150" y1="400" y2="405" /><text class="poloto_text" alignment-baseline="start" text-anchor="middle" x="150" y="430" >0</text><line class="poloto_axis_lines" stroke="black" x1="251.010101010101" x2="251.010101010101" y1="400" y2="405" /><text class="poloto_text" alignment-baseline="start" text-anchor="middle" x="251.010101010101" y="430" >2000</text><line class="poloto_axis_lines" stroke="black" x1="352.020202020202" x2="352.020202020202" y1="400" y2="405" /><text class="poloto_text" alignment-baseline="start" text-anchor="middle" x="352.020202020202" y="430" >4000</text><line class="poloto_axis_lines" stroke="black" x1="453.030303030303" x2="453.030303030303" y1="400" y2="405" /><text class="poloto_text" alignment-baseline="start" text-anchor="middle" x="453.030303030303" y="430" >6000</text><line class="poloto_axis_lines" stroke="black" x1="554.040404040404" x2="554.040404040404" y1="400" y2="405" /><text class="poloto_text" alignment-baseline="start" text-anchor="middle" x="554.040404040404" y="430" >8000</text><line class="poloto_axis_lines" stroke="black" x1="150" x2="144" y1="340.91773971384487" y2="340.91773971384487" /><text class="poloto_text" alignment-baseline="middle" text-anchor="end" x="135" y="340.91773971384487" >0.002</text><line class="poloto_axis_lines" stroke="black" x1="150" x2="144" y1="281.82652710898014" y2="281.82652710898014" /><text class="poloto_text" alignment-baseline="middle" text-anchor="end" x="135" y="281.82652710898014" >0.004</text><line class="poloto_axis_lines" stroke="black" x1="150" x2="144" y1="222.73531450411542" y2="222.73531450411542" /><text class="poloto_text" alignment-baseline="middle" text-anchor="end" x="135" y="222.73531450411542" >0.006</text><line class="poloto_axis_lines" stroke="black" x1="150" x2="144" y1="163.6441018992507" y2="163.6441018992507" /><text class="poloto_text" alignment-baseline="middle" text-anchor="end" x="135" y="163.6441018992507" >0.008</text><line class="poloto_axis_lines" stroke="black" x1="150" x2="144" y1="104.55288929438592" y2="104.55288929438592" /><text class="poloto_text" alignment-baseline="middle" text-anchor="end" x="135" y="104.55288929438592" >0.010</text><text class="poloto_text" alignment-baseline="middle" text-anchor="start" font-size="large" x="675" y="100" >brocc</text><line class="poloto0stroke" stroke="black" x1="680" x2="730" y1="81.25" y2="81.25" /><polyline class="poloto0stroke" fill="none" stroke="black"  points="150,399.4534653746176 155.05050505050505,398.0613650424659 160.1010101010101,395.5576999100041 165.15151515151516,394.0041328394096 170.2020202020202,392.30942640750834 175.25252525252526,389.9084618025538 180.3030303030303,387.3753101550022 185.35353535353534,385.50578237060944 190.40404040404042,383.3338553057113 195.45454545454544,386.64517913205646 200.50505050505052,387.5205268099786 205.55555555555554,387.95085856577356 210.6060606060606,387.7925236615988 215.65656565656565,386.25792487025046 220.7070707070707,385.4642707937545 225.75757575757575,382.80537304577973 230.8080808080808,383.2607890213254 235.85858585858585,381.9669869213419 240.9090909090909,380.642664210048 245.95959595959596,379.6491636525224 251.010101010101,378.46308483311753 256.06060606060606,377.59843266467686 261.1111111111111,376.2700917509258 266.16161616161617,375.18112933943706 271.2121212121212,374.3143794329489 276.26262626262627,373.4635841538641 281.3131313131313,372.3611194002951 286.3636363636364,371.2118544063431 291.4141414141414,370.20349240884735 296.4646464646464,368.7987465571982 301.5151515151515,367.85774854207204 306.5656565656566,366.9287460431047 311.6161616161616,365.5734004451932 316.66666666666663,364.488988057075 321.7171717171717,363.67181567796234 326.7676767676768,362.34557250225873 331.8181818181818,360.4948061778681 336.86868686868684,359.8378300761272 341.9191919191919,358.86034323721753 346.969696969697,357.35880597932163 352.020202020202,356.3173824483735 357.07070707070704,355.58816733922316 362.1212121212121,353.7949263103033 367.1717171717172,353.10355912282637 372.22222222222223,351.3399227914216 377.27272727272725,350.50939579826024 382.32323232323233,349.1571229434042 387.37373737373736,348.29078667540426 392.4242424242424,346.78003118834204 397.47474747474746,345.17730022886025 402.52525252525254,344.60027453777377 407.57575757575756,343.9785167987454 412.62626262626264,342.484750035307 417.67676767676767,341.3608942627751 422.72727272727275,340.1963246447584 427.77777777777777,339.47928232540465 432.8282828282828,332.7701251374609 437.8787878787879,337.1287520704084 442.9292929292929,335.5004050702624 447.979797979798,334.7006055076556 453.030303030303,332.85651649028927 458.0808080808081,332.51517610067725 463.1313131313131,331.00066832161457 468.1818181818182,329.97091530515587 473.2323232323232,328.6634631350606 478.2828282828283,327.344931362602 483.3333333333333,326.29957826601566 488.3838383838384,323.5825052192314 493.4343434343434,324.1354216955751 498.4848484848485,322.0272835946839 503.5353535353535,320.34090902376 508.5858585858586,319.6064052510815 513.6363636363636,318.27156430394393 518.6868686868687,317.16197905925605 523.7373737373737,315.9778502498672 528.7878787878788,315.13441182675166 533.8383838383838,314.0854541661964 538.8888888888889,312.9031571843983 543.939393939394,310.6955981182994 548.989898989899,309.634999488861 554.040404040404,307.63818923251745 559.090909090909,307.41606536433574 564.1414141414141,305.47001445961973 569.1919191919192,303.8706221536502 574.2424242424242,303.3980697264491 579.2929292929293,303.2548917183075 584.3434343434344,300.61626225625616 589.3939393939394,299.93228147035484 594.4444444444445,298.80901660994897 599.4949494949494,297.29648838650854 604.5454545454545,297.06053717457735 609.5959595959596,295.68063917782854 614.6464646464647,294.87224184378766 619.6969696969697,293.4417026778365 624.7474747474747,292.09161619784686 629.7979797979798,290.3104297762984 634.8484848484848,289.87076160891195 639.8989898989898,289.6552855021483 644.9494949494949,286.98383087149494 650,286.92674876011864 "/><text class="poloto_text" alignment-baseline="middle" text-anchor="start" font-size="large" x="675" y="150" >brocc_par</text><line class="poloto1stroke" stroke="black" x1="680" x2="730" y1="131.25" y2="131.25" /><polyline class="poloto1stroke" fill="none" stroke="black"  points="150,398.80275294141285 155.05050505050505,397.1315943577347 160.1010101010101,395.3919490586474 165.15151515151516,392.1702370562176 170.2020202020202,392.4178883282446 175.25252525252526,390.30517065837654 180.3030303030303,387.1496999052768 185.35353535353534,384.9219907356797 190.40404040404042,380.7848672131816 195.45454545454544,385.41070460952824 200.50505050505052,385.6223397874725 205.55555555555554,388.64621441010127 210.6060606060606,387.74303477104223 215.65656565656565,386.9430874804039 220.7070707070707,385.909404898307 225.75757575757575,384.72453744876054 230.8080808080808,383.7308891632034 235.85858585858585,382.6073288467345 240.9090909090909,381.56513713002255 245.95959595959596,380.52581133712187 251.010101010101,379.4780355008187 256.06060606060606,380.0231814827049 261.1111111111111,378.05594637827005 266.16161616161617,374.7223451647729 271.2121212121212,376.0029108331329 276.26262626262627,375.3346187641782 281.3131313131313,371.3045389733138 286.3636363636364,375.8086484716944 291.4141414141414,368.84894454230607 296.4646464646464,367.7026932001969 301.5151515151515,371.56530849453907 306.5656565656566,369.4735682051458 311.6161616161616,368.07990195586007 316.66666666666663,368.2219572309621 321.7171717171717,367.94552853839656 326.7676767676768,365.1896030193246 331.8181818181818,366.16221483319435 336.86868686868684,368.2778870636927 341.9191919191919,365.5129205890921 346.969696969697,364.7624621890103 352.020202020202,362.19979448076253 357.07070707070704,374.5488238189587 362.1212121212121,375.1098948826419 367.1717171717172,372.58516373288643 372.22222222222223,367.17760868499005 377.27272727272725,372.2551984017009 382.32323232323233,370.48848932724064 387.37373737373736,373.42824760872634 392.4242424242424,369.3797609051356 397.47474747474746,369.68588293203504 402.52525252525254,371.81411204521186 407.57575757575756,367.50086716354497 412.62626262626264,367.5918676309565 417.67676767676767,368.13597951662206 422.72727272727275,361.5842413190577 427.77777777777777,367.8957737373833 432.8282828282828,360.74839611676185 437.8787878787879,368.16378193215263 442.9292929292929,363.69311806010637 447.979797979798,366.54494861723606 453.030303030303,364.1910797087276 458.0808080808081,362.0879052696952 463.1313131313131,370.74089744188234 468.1818181818182,367.8053050908852 473.2323232323232,365.76627416313545 478.2828282828283,365.3512174857989 483.3333333333333,361.37053794867217 488.3838383838384,365.83541088188315 493.4343434343434,358.11467122535674 498.4848484848485,361.7553990163677 503.5353535353535,362.338363374321 508.5858585858586,345.5467384900659 513.6363636363636,362.22739007704905 518.6868686868687,366.0277823245183 523.7373737373737,361.25076006072214 528.7878787878788,354.7574039812114 533.8383838383838,358.0840619772274 538.8888888888889,355.98907167114083 543.939393939394,358.6101805886548 548.989898989899,350.16188037693104 554.040404040404,354.19450108993743 559.090909090909,357.3796356317648 564.1414141414141,357.65281430763713 569.1919191919192,353.256605363473 574.2424242424242,356.69993895877735 579.2929292929293,356.0866017175452 584.3434343434344,355.40953460351864 589.3939393939394,356.8085781531514 594.4444444444445,356.9354765322204 599.4949494949494,359.4330552697839 604.5454545454545,360.6635706810676 609.5959595959596,352.4284715644221 614.6464646464647,354.1618531949732 619.6969696969697,356.72065042879535 624.7474747474747,351.64060842676145 629.7979797979798,353.21394150797227 634.8484848484848,353.66241426603693 639.8989898989898,347.0372256912047 644.9494949494949,349.91399274005363 650,354.18017147088074 "/><text class="poloto_text" alignment-baseline="middle" text-anchor="start" font-size="large" x="675" y="200" >naive</text><line class="poloto2stroke" stroke="black" x1="680" x2="730" y1="181.25" y2="181.25" /><polyline class="poloto2stroke" fill="none" stroke="black"  points="150,400 155.05050505050505,397.32585671917315 160.1010101010101,392.8120858075317 165.15151515151516,385.9150185635044 170.2020202020202,380.6196481827384 175.25252525252526,373.89613183013165 180.3030303030303,365.1303345330819 185.35353535353534,350.8937545906486 190.40404040404042,355.1942357703928 195.45454545454544,360.5119426295235 200.50505050505052,360.18165229666863 205.55555555555554,352.59803379899176 210.6060606060606,336.11539686544756 215.65656565656565,331.2904220826225 220.7070707070707,324.97543282835954 225.75757575757575,314.7849168498002 230.8080808080808,304.0784459483815 235.85858585858585,293.4165002756605 240.9090909090909,281.340295066061 245.95959595959596,269.95808660289936 251.010101010101,257.17414593993146 256.06060606060606,243.51996898893162 261.1111111111111,229.54909268397608 266.16161616161617,215.97669797122143 271.2121212121212,200.88429999663182 276.26262626262627,184.46616112164577 281.3131313131313,169.11444136053976 286.3636363636364,153.0962318124634 291.4141414141414,136.16190164976757 296.4646464646464,118.99250664332959 301.5151515151515,100 "/><text class="poloto_text" alignment-baseline="middle" text-anchor="start" font-size="large" x="675" y="250" >nosort</text><line class="poloto3stroke" stroke="black" x1="680" x2="730" y1="231.25" y2="231.25" /><polyline class="poloto3stroke" fill="none" stroke="black"  points="150,399.9316610126225 155.05050505050505,397.96702592154224 160.1010101010101,394.7504253090027 165.15151515151516,392.0925616572485 170.2020202020202,388.4729885203501 175.25252525252526,382.71177256501363 180.3030303030303,380.46264283084724 185.35353535353534,377.7350810938256 190.40404040404042,378.65711082970563 195.45454545454544,382.1452651097708 200.50505050505052,382.7367681479455 205.55555555555554,381.83710443603644 210.6060606060606,380.14417074051335 215.65656565656565,374.86395725578046 220.7070707070707,375.9724493130351 225.75757575757575,372.9232836514115 230.8080808080808,371.290386627895 235.85858585858585,368.73977352701854 240.9090909090909,365.54004345567773 245.95959595959596,363.8838644943949 251.010101010101,360.49776073849836 256.06060606060606,363.04748747118566 261.1111111111111,360.20313195245046 266.16161616161617,358.59478732777126 271.2121212121212,355.97335340858797 276.26262626262627,354.1266052866544 281.3131313131313,351.11850801779116 286.3636363636364,349.72114856771765 291.4141414141414,347.81649105743134 296.4646464646464,343.7615929572729 301.5151515151515,342.2394033205716 306.5656565656566,339.60777616721396 311.6161616161616,337.55881791574654 316.66666666666663,335.40166365399966 321.7171717171717,332.0639556012265 326.7676767676768,328.83252309432316 331.8181818181818,327.2985152151009 336.86868686868684,322.33494199311116 341.9191919191919,320.4584414456311 346.969696969697,318.20609124037776 352.020202020202,315.40974733188403 357.07070707070704,318.1038634425713 362.1212121212121,316.16522848503723 367.1717171717172,312.71743350318116 372.22222222222223,308.8683205509192 377.27272727272725,308.51078916905345 382.32323232323233,304.6360897217336 387.37373737373736,302.06692198009927 392.4242424242424,301.1164102797437 397.47474747474746,297.29421337482324 402.52525252525254,293.30759517082976 407.57575757575756,292.02114992681555 412.62626262626264,288.3445833153597 417.67676767676767,287.1223997650534 422.72727272727275,284.49245671125493 427.77777777777777,282.37430264982726 432.8282828282828,279.0205808784382 437.8787878787879,275.1402382203145 442.9292929292929,273.07322760339633 447.979797979798,270.1598240027324 453.030303030303,265.07960472706066 458.0808080808081,265.3777494402585 463.1313131313131,260.6331387065761 468.1818181818182,259.013773570746 473.2323232323232,257.8375334382399 478.2828282828283,255.5182624347116 483.3333333333333,252.06278559521692 488.3838383838384,249.2710508013064 493.4343434343434,245.97370204674235 498.4848484848485,242.1116776645262 503.5353535353535,235.06383919153768 508.5858585858586,235.13170544921437 513.6363636363636,231.65658078152856 518.6868686868687,224.1913219826993 523.7373737373737,226.7617306397983 528.7878787878788,222.0631224151288 533.8383838383838,223.17657813424225 538.8888888888889,217.27103189211834 543.939393939394,214.8758877716054 548.989898989899,210.96159721184023 554.040404040404,210.3062756640523 559.090909090909,206.98050403622528 564.1414141414141,224.59018766778212 569.1919191919192,221.1123448043165 574.2424242424242,218.53806567279187 579.2929292929293,215.2879898883117 584.3434343434344,213.6624201751582 589.3939393939394,211.39639035418682 594.4444444444445,205.8606960117568 599.4949494949494,207.6804689951362 604.5454545454545,202.15331333292758 609.5959595959596,201.13688538491132 614.6464646464647,199.07616798213556 619.6969696969697,185.54085300529044 624.7474747474747,191.41342635078084 629.7979797979798,189.68805157953767 634.8484848484848,185.15684876017775 639.8989898989898,185.7932315743258 644.9494949494949,181.95301184956088 650,179.79621213508963 "/><text class="poloto_text" alignment-baseline="middle" text-anchor="start" font-size="large" x="675" y="300" >nosort_par</text><line class="poloto4stroke" stroke="black" x1="680" x2="730" y1="281.25" y2="281.25" /><polyline class="poloto4stroke" fill="none" stroke="black"  points="150,399.9107131777541 155.05050505050505,397.99869881149846 160.1010101010101,394.4136940339739 165.15151515151516,391.3866875770771 170.2020202020202,386.6098425869187 175.25252525252526,383.97041539349726 180.3030303030303,380.32274438500525 185.35353535353534,373.71247634135574 190.40404040404042,379.8410623654567 195.45454545454544,381.791249655055 200.50505050505052,382.81420718206414 205.55555555555554,381.881806938372 210.6060606060606,380.52238404679076 215.65656565656565,377.5333436939926 220.7070707070707,376.0089676824249 225.75757575757575,373.1907895708737 230.8080808080808,371.50660137481617 235.85858585858585,369.0868753098595 240.9090909090909,366.15692616966624 245.95959595959596,364.31785990537134 251.010101010101,360.91488560827605 256.06060606060606,368.42003097561366 261.1111111111111,362.829765898343 266.16161616161617,363.30527288617435 271.2121212121212,361.15266864779807 276.26262626262627,361.6997646397002 281.3131313131313,360.79230088772727 286.3636363636364,356.3373257326276 291.4141414141414,358.295431244715 296.4646464646464,353.2918828173981 301.5151515151515,353.23317569767516 306.5656565656566,350.1685281383491 311.6161616161616,351.5817831246133 316.66666666666663,347.4213481187426 321.7171717171717,346.03684100741066 326.7676767676768,344.5931245010486 331.8181818181818,342.501945578175 336.86868686868684,340.73429104431307 341.9191919191919,339.036570960569 346.969696969697,336.7295613836562 352.020202020202,336.3691049867665 357.07070707070704,352.7694869523648 362.1212121212121,357.60483224300197 367.1717171717172,352.80822124222726 372.22222222222223,347.93316665671966 377.27272727272725,350.7074695429117 382.32323232323233,350.22655570912707 387.37373737373736,347.501889441523 392.4242424242424,347.91496656323733 397.47474747474746,347.7252542251694 402.52525252525254,342.6098461323915 407.57575757575756,343.6067739802482 412.62626262626264,341.2122503174675 417.67676767676767,342.54791854158157 422.72727272727275,339.72799723925857 427.77777777777777,343.95880987934163 432.8282828282828,320.9871009792005 437.8787878787879,340.4212848911451 442.9292929292929,337.4024034759815 447.979797979798,332.9375600883768 453.030303030303,331.27293108369145 458.0808080808081,336.5012033925447 463.1313131313131,335.56162356652106 468.1818181818182,333.0631584607685 473.2323232323232,330.93280206393786 478.2828282828283,333.3089188139921 483.3333333333333,329.1541270189251 488.3838383838384,330.1303729423701 493.4343434343434,325.23052959317477 498.4848484848485,328.263149715269 503.5353535353535,317.1959565065039 508.5858585858586,299.71027578459837 513.6363636363636,327.5587529154127 518.6868686868687,320.9384393656204 523.7373737373737,321.24137046703925 528.7878787878788,312.9425710232057 533.8383838383838,317.00190096430947 538.8888888888889,315.4618953270078 543.939393939394,315.14043913043736 548.989898989899,310.657454740563 554.040404040404,315.4917954805859 559.090909090909,309.727122689312 564.1414141414141,316.3469044181909 569.1919191919192,301.7938910322585 574.2424242424242,314.19521609360993 579.2929292929293,309.8567097185545 584.3434343434344,315.0022247841546 589.3939393939394,314.69474365936514 594.4444444444445,310.300484725217 599.4949494949494,316.5942306885486 604.5454545454545,308.13765770706004 609.5959595959596,313.15804712996936 614.6464646464647,308.86752281954904 619.6969696969697,272.8766902302725 624.7474747474747,300.32503121493306 629.7979797979798,302.9552697247945 634.8484848484848,304.24165587759614 639.8989898989898,300.3457722305574 644.9494949494949,299.8273650223749 650,295.335635133035 "/><text class="poloto_text" alignment-baseline="middle" text-anchor="start" font-size="large" x="675" y="350" >sweep</text><line class="poloto5stroke" stroke="black" x1="680" x2="730" y1="331.25" y2="331.25" /><polyline class="poloto5stroke" fill="none" stroke="black"  points="150,399.1198363882505 155.05050505050505,398.2194635817902 160.1010101010101,394.5129081799375 165.15151515151516,391.92994264015994 170.2020202020202,389.2394015478352 175.25252525252526,385.5405280036211 180.3030303030303,381.6258828965803 185.35353535353534,377.35022002613016 190.40404040404042,378.6799200377711 195.45454545454544,381.84348628699775 200.50505050505052,380.98199549843144 205.55555555555554,380.4576791689885 210.6060606060606,378.08525561972203 215.65656565656565,373.3313380200544 220.7070707070707,373.02376825844607 225.75757575757575,370.57493977128155 230.8080808080808,367.89769420179294 235.85858585858585,364.64466385668254 240.9090909090909,362.5378257624687 245.95959595959596,359.8762098187141 251.010101010101,357.0183224122924 256.06060606060606,353.5772047374607 261.1111111111111,350.6163213474687 266.16161616161617,347.40382757420525 271.2121212121212,344.80050511168537 276.26262626262627,341.6330683880331 281.3131313131313,338.58951639160694 286.3636363636364,335.23405142944597 291.4141414141414,331.8140588631205 296.4646464646464,328.286106651366 301.5151515151515,324.7055928059994 306.5656565656566,321.89060561992886 311.6161616161616,318.0383017421862 316.66666666666663,315.1103617032215 321.7171717171717,311.81859706824855 326.7676767676768,308.32355866191494 331.8181818181818,304.37384292019317 336.86868686868684,300.7460561047427 341.9191919191919,297.33903405958404 346.969696969697,293.5052257313867 352.020202020202,289.41679336807505 357.07070707070704,286.203560954654 362.1212121212121,281.9072161597921 367.1717171717172,277.6580261525889 372.22222222222223,274.21153117741017 377.27272727272725,270.5682329186509 382.32323232323233,266.77372024683586 387.37373737373736,262.2764653291174 392.4242424242424,258.5118232652741 397.47474747474746,254.68088086088807 402.52525252525254,250.5780893329134 407.57575757575756,245.95736332645708 412.62626262626264,241.91451983367006 417.67676767676767,237.65903661232443 422.72727272727275,233.94852209922715 427.77777777777777,229.60886344552588 432.8282828282828,225.1206790289423 437.8787878787879,221.4522374592197 442.9292929292929,216.64513776820763 447.979797979798,212.58119871252066 453.030303030303,207.10595468058543 "/><text class="poloto_text" alignment-baseline="start" text-anchor="middle" font-size="x-large" x="400" y="37.5" >Bench of space partitioning algs with abspiral(x,0.2)</text><text class="poloto_text" alignment-baseline="start" text-anchor="middle" font-size="x-large" x="400" y="481.25" >Number of Elements</text><text class="poloto_text" alignment-baseline="start" text-anchor="middle" font-size="x-large" transform="rotate(-90,37.5,250)" x="37.5" y="250" >Time in Seconds</text><path stroke="black" fill="none" class="poloto_axis_lines"  d="M 150 100 L 150 400 L 650 400 "/></svg>