<svg class="poloto" width="800" height="500" viewBox="0 0 800 500" xmlns="http://www.w3.org/2000/svg"><style>.poloto {
                    font-family: "Arial";
                    stroke-width:2;
                    }
                    .poloto_text{fill: var(--poloto_fg_color,black);  }
                    .poloto_axis_lines{stroke: var(--poloto_fg_color,black);stoke-width:3;fill:none}
                    .poloto_background{fill: var(--poloto_bg_color,aliceblue); }
                    .poloto0stroke{stroke:  var(--poloto_color0,blue); }
                    .poloto1stroke{stroke:  var(--poloto_color1,red); }
                    .poloto2stroke{stroke:  var(--poloto_color2,green); }
                    .poloto3stroke{stroke:  var(--poloto_color3,gold); }
                    .poloto4stroke{stroke:  var(--poloto_color4,aqua); }
                    .poloto5stroke{stroke:  var(--poloto_color5,brown); }
                    .poloto6stroke{stroke:  var(--poloto_color6,lime); }
                    .poloto7stroke{stroke:  var(--poloto_color7,chocolate); }
                    .poloto0fill{fill:var(--poloto_color0,blue);}
                    .poloto1fill{fill:var(--poloto_color1,red);}
                    .poloto2fill{fill:var(--poloto_color2,green);}
                    .poloto3fill{fill:var(--poloto_color3,gold);}
                    .poloto4fill{fill:var(--poloto_color4,aqua);}
                    .poloto5fill{fill:var(--poloto_color5,brown);}
                    .poloto6fill{fill:var(--poloto_color6,lime);}
                    .poloto7fill{fill:var(--poloto_color7,chocolate);}</style><rect class="poloto_background" fill="white" x="0" y="0" width="800" height="500"/><line class="poloto_axis_lines" stroke="black" x1="150" x2="150" y1="400" y2="405"/><text class="poloto_text" alignment-baseline="start" text-anchor="middle" x="150" y="430">0e0</text><line class="poloto_axis_lines" stroke="black" x1="276.26262626262627" x2="276.26262626262627" y1="400" y2="405"/><text class="poloto_text" alignment-baseline="start" text-anchor="middle" x="276.26262626262627" y="430">0.005</text><line class="poloto_axis_lines" stroke="black" x1="402.52525252525254" x2="402.52525252525254" y1="400" y2="405"/><text class="poloto_text" alignment-baseline="start" text-anchor="middle" x="402.52525252525254" y="430">0.010</text><line class="poloto_axis_lines" stroke="black" x1="528.7878787878788" x2="528.7878787878788" y1="400" y2="405"/><text class="poloto_text" alignment-baseline="start" text-anchor="middle" x="528.7878787878788" y="430">0.015</text><line class="poloto_axis_lines" stroke="black" x1="150" x2="144" y1="389.6418810817998" y2="389.6418810817998"/><text class="poloto_text" alignment-baseline="middle" text-anchor="end" x="135" y="389.6418810817998">2e6</text><line class="poloto_axis_lines" stroke="black" x1="150" x2="144" y1="353.51058863656397" y2="353.51058863656397"/><text class="poloto_text" alignment-baseline="middle" text-anchor="end" x="135" y="353.51058863656397">4e6</text><line class="poloto_axis_lines" stroke="black" x1="150" x2="144" y1="317.3792961913282" y2="317.3792961913282"/><text class="poloto_text" alignment-baseline="middle" text-anchor="end" x="135" y="317.3792961913282">6e6</text><line class="poloto_axis_lines" stroke="black" x1="150" x2="144" y1="281.2480037460924" y2="281.2480037460924"/><text class="poloto_text" alignment-baseline="middle" text-anchor="end" x="135" y="281.2480037460924">8e6</text><line class="poloto_axis_lines" stroke="black" x1="150" x2="144" y1="245.1167113008566" y2="245.1167113008566"/><text class="poloto_text" alignment-baseline="middle" text-anchor="end" x="135" y="245.1167113008566">1e7</text><line class="poloto_axis_lines" stroke="black" x1="150" x2="144" y1="208.98541885562076" y2="208.98541885562076"/><text class="poloto_text" alignment-baseline="middle" text-anchor="end" x="135" y="208.98541885562076">1.2e7</text><line class="poloto_axis_lines" stroke="black" x1="150" x2="144" y1="172.854126410385" y2="172.854126410385"/><text class="poloto_text" alignment-baseline="middle" text-anchor="end" x="135" y="172.854126410385">1.4e7</text><line class="poloto_axis_lines" stroke="black" x1="150" x2="144" y1="136.72283396514916" y2="136.72283396514916"/><text class="poloto_text" alignment-baseline="middle" text-anchor="end" x="135" y="136.72283396514916">1.6e7</text><line class="poloto_axis_lines" stroke="black" x1="150" x2="144" y1="100.59154151991339" y2="100.59154151991339"/><text class="poloto_text" alignment-baseline="middle" text-anchor="end" x="135" y="100.59154151991339">1.8e7</text><text class="poloto_text" alignment-baseline="middle" text-anchor="start" font-size="large" x="675" y="100">broccoli</text><line class="poloto0stroke" stroke="black" x1="680" x2="730" y1="81.25" y2="81.25"/><polyline class="poloto0stroke" fill="none" stroke="black" points="150,136.563603359343 155.05050505050505,146.19633238476644 160.1010101010101,151.32946897116864 165.15151515151516,168.53983330466914 170.2020202020202,176.53624835783273 175.25252525252526,199.83973965235913 180.3030303030303,211.87474798423517 185.35353535353534,233.79099637097298 190.40404040404042,243.3456095421298 195.45454545454544,256.4828571469864 200.50505050505052,274.26882910043196 205.55555555555554,285.79061048876963 210.60606060606062,287.5336382332665 215.65656565656565,299.42197158346113 220.7070707070707,303.1378762893452 225.75757575757575,310.02200757022837 230.8080808080808,314.4985301790233 235.85858585858585,321.7315452197577 240.9090909090909,322.378584404867 245.95959595959596,326.17442959528614 251.010101010101,331.9797346806933 256.06060606060606,336.7880870793053 261.1111111111111,336.6361730602193 266.16161616161617,339.5288262677386 271.21212121212125,343.22111917400974 276.26262626262627,347.8289067682582 281.3131313131313,348.59210805857896 286.3636363636364,349.6185258143632 291.4141414141414,351.766657609756 296.4646464646465,353.8217693927486 301.5151515151515,356.93784044710304 306.5656565656566,357.4839468667666 311.6161616161616,360.3274434509142 316.66666666666663,361.42037891609016 321.7171717171717,362.09211383958575 326.7676767676768,363.9547542277225 331.8181818181818,366.30464316012956 336.86868686868684,366.59958290036 341.9191919191919,368.5757116780673 346.969696969697,369.6512679915771 352.020202020202,370.62097768386855 357.07070707070704,371.3249778515177 362.1212121212121,372.4462944469094 367.17171717171715,373.2922544625759 372.22222222222223,373.796611173819 377.27272727272725,374.72997278591055 382.32323232323233,375.1202810725502 387.37373737373736,376.4016231621818 392.42424242424244,378.00223941750573 397.47474747474746,378.78746273057186 402.52525252525254,378.8558231358782 407.57575757575756,380.7990363061679 412.62626262626264,380.0933199021276 417.67676767676767,381.0643664522395 422.72727272727275,381.65285487794125 427.77777777777777,383.88547970071727 432.8282828282828,384.15247188624136 437.8787878787879,384.52493131441304 442.92929292929296,385.7214009980908 447.979797979798,385.60464272655406 453.030303030303,386.2075475379415 458.0808080808081,386.6877504801849 463.13131313131316,386.60224577661324 468.1818181818182,387.7550507933709 473.2323232323232,389.00038805008086 478.2828282828283,389.53693774289263 483.3333333333333,389.57586921050233 488.3838383838384,389.9079157880741 493.4343434343434,389.9828701542517 498.4848484848485,391.15888952640546 503.5353535353535,391.2244858878398 508.5858585858586,392.1781532862856 513.6363636363636,392.0669592337854 518.6868686868686,392.1183559972887 523.7373737373737,393.16704869486546 528.7878787878788,393.146237070417 533.8383838383838,393.4999262921634 538.8888888888889,394.0517775873257 543.939393939394,394.2266711084069 548.9898989898991,394.46838945486553 554.040404040404,394.6711040711295 559.090909090909,394.93800592842246 564.1414141414141,395.1400159844838 569.1919191919192,395.71522616021196 574.2424242424242,396.0901244506237 579.2929292929293,396.27314751250503 584.3434343434343,396.2894969223365 589.3939393939395,396.5109817450258 594.4444444444445,396.84962228346876 599.4949494949494,397.35144980424064 604.5454545454545,397.47933651385057 609.5959595959596,397.91666967760773 614.6464646464647,397.98707150093725 619.6969696969697,398.1883950624421 624.7474747474747,398.3065805200305 629.7979797979797,398.15338384006265 634.8484848484849,398.8818810239897 639.8989898989898,398.9583890357425 644.9494949494949,400 650,399.9372218793764 "/><text class="poloto_text" alignment-baseline="middle" text-anchor="start" font-size="large" x="675" y="150">naive</text><line class="poloto1stroke" stroke="black" x1="680" x2="730" y1="131.25" y2="131.25"/><polyline class="poloto1stroke" fill="none" stroke="black" points="150,100.69993539724908 155.05050505050505,101.1616210521143 160.1010101010101,110.16938711211247 165.15151515151516,125.25548436888022 170.2020202020202,139.9190442261472 175.25252525252526,152.05055924014445 180.3030303030303,160.83853864819827 185.35353535353534,168.51445107172637 190.40404040404042,176.1880330268918 195.45454545454544,182.56005743430245 200.50505050505052,187.5991442664697 205.55555555555554,192.42599588681364 210.60606060606062,196.81455686415066 215.65656565656565,200.4366828004931 220.7070707070707,203.96401829110548 225.75757575757575,206.98609378816366 230.8080808080808,209.72703169870547 235.85858585858585,212.303048324881 240.9090909090909,214.83912180725832 245.95959595959596,216.986512911156 251.010101010101,219.2252619880015 256.06060606060606,221.10620287576182 261.1111111111111,222.86910283110353 266.16161616161617,224.66639977685313 271.21212121212125,226.13800925250135 276.26262626262627,227.69266650383497 281.3131313131313,229.3428006954551 286.3636363636364,230.4981710339764 291.4141414141414,231.7880401086251 296.4646464646465,232.98021016850188 301.5151515151515,234.19451064500137 306.5656565656566,235.35147076039027 311.6161616161616,236.28602470513252 316.66666666666663,237.3461890880606 321.7171717171717,238.3561671057823 326.7676767676768,239.12458936786135 331.8181818181818,240.11352090773366 336.86868686868684,241.13103229993018 341.9191919191919,241.79705847921943 346.969696969697,242.74223502394057 352.020202020202,243.46453569121329 357.07070707070704,244.1117555327848 362.1212121212121,244.81909784498518 367.17171717171715,245.5762290781751 372.22222222222223,246.18657693580624 377.27272727272725,246.83021977942568 382.32323232323233,247.42517570647516 387.37373737373736,248.05024706577774 392.42424242424244,248.66032393871552 397.47474747474746,249.34334989110027 402.52525252525254,249.8238780149757 407.57575757575756,250.29598754771135 412.62626262626264,250.81873508680903 417.67676767676767,251.35644098097902 422.72727272727275,251.89349651188502 427.77777777777777,252.3220859028704 432.8282828282828,252.7509282129029 437.8787878787879,253.19315716678636 442.92929292929296,253.65504154376003 447.979797979798,254.13264303294739 453.030303030303,254.52584182298267 458.0808080808081,254.86327196312874 463.13131313131316,255.33727838871778 468.1818181818182,255.63550607656074 473.2323232323232,256.1584162064744 478.2828282828283,256.4975987143041 483.3333333333333,256.89677723323905 488.3838383838384,257.1588013660519 493.4343434343434,257.4549515045793 498.4848484848485,257.7441463693109 503.5353535353535,258.2121369347078 508.5858585858586,258.67042624808323 513.6363636363636,258.9579590733624 518.6868686868686,259.1891812793657 523.7373737373737,259.38205011843837 528.7878787878788,259.8269527879628 533.8383838383838,260.09835299116514 538.8888888888889,260.3706745423249 543.939393939394,260.6533477087702 548.9898989898991,260.8968184229124 554.040404040404,261.13837417855507 559.090909090909,261.5063352608173 564.1414141414141,261.61339228033256 569.1919191919192,261.9246994960407 574.2424242424242,262.2437388083322 579.2929292929293,262.47879093133463 584.3434343434343,262.6905745020024 589.3939393939395,262.8628846356737 594.4444444444445,263.12857609466977 599.4949494949494,263.3397634990122 604.5454545454545,263.6083454614038 609.5959595959596,263.8012323661227 614.6464646464647,264.03408048028604 619.6969696969697,264.2194340105301 624.7474747474747,264.47459319777835 629.7979797979797,264.7374302846712 634.8484848484849,265.01164872868435 639.8989898989898,265.1668145640904 644.9494949494949,265.3067510597308 650,265.5562015027727 "/><text class="poloto_text" alignment-baseline="middle" text-anchor="start" font-size="large" x="675" y="200">nosort</text><line class="poloto2stroke" stroke="black" x1="680" x2="730" y1="181.25" y2="181.25"/><polyline class="poloto2stroke" fill="none" stroke="black" points="150,100 155.05050505050505,100.52079644930558 160.1010101010101,111.22622741613566 165.15151515151516,129.19742644030168 170.2020202020202,147.59165063641657 175.25252525252526,163.0865915328484 180.3030303030303,175.54946662986092 185.35353535353534,187.74768000971207 190.40404040404042,199.12746541873997 195.45454545454544,209.06149329186422 200.50505050505052,216.2586118935543 205.55555555555554,225.41307100088014 210.60606060606062,230.6203670650262 215.65656565656565,236.9237962137296 220.7070707070707,242.43006065721374 225.75757575757575,246.38616619527372 230.8080808080808,250.98289761403396 235.85858585858585,257.3997067584305 240.9090909090909,259.82610370259033 245.95959595959596,264.20962436463117 251.010101010101,268.1085340667504 256.06060606060606,272.6179542173167 261.1111111111111,272.29875231420925 266.16161616161617,276.31210788514875 271.21212121212125,279.9595979887877 276.26262626262627,286.30013397483236 281.3131313131313,285.0627456024604 286.3636363636364,287.0908492443501 291.4141414141414,288.96779762429526 296.4646464646465,290.9120224707734 301.5151515151515,295.5746393013075 306.5656565656566,295.5575311343347 311.6161616161616,300.31882252453676 316.66666666666663,301.346378416033 321.7171717171717,303.00783976783475 326.7676767676768,303.9088277418954 331.8181818181818,309.43118867616386 336.86868686868684,307.94115224136857 341.9191919191919,311.6353601061393 346.969696969697,313.33701752078633 352.020202020202,314.04130673877506 357.07070707070704,315.06664055578597 362.1212121212121,316.3068471689687 367.17171717171715,318.9337908518458 372.22222222222223,319.09318404846795 377.27272727272725,321.36708887286267 382.32323232323233,322.1621398974738 387.37373737373736,322.9110693272787 392.42424242424244,326.63145431342593 397.47474747474746,327.55616248097687 402.52525252525254,327.3993165404721 407.57575757575756,331.6651033860802 412.62626262626264,329.3735845566184 417.67676767676767,330.1237424503664 422.72727272727275,330.9404180535061 427.77777777777777,336.1974669073492 432.8282828282828,337.1528505421862 437.8787878787879,337.5784591015448 442.92929292929296,339.68794847966745 447.979797979798,339.76653404073585 453.030303030303,340.11559845704926 458.0808080808081,341.73899549225996 463.13131313131316,339.3121469069446 468.1818181818182,342.51695641554454 473.2323232323232,346.60812072476483 478.2828282828283,347.73174972287296 483.3333333333333,346.2391299006679 488.3838383838384,347.46289677578795 493.4343434343434,347.9551675697081 498.4848484848485,348.31145824451056 503.5353535353535,350.4964439581975 508.5858585858586,349.5015507550718 513.6363636363636,350.80466194840164 518.6868686868686,350.606680531448 523.7373737373737,351.94639272402486 528.7878787878788,352.0669267156222 533.8383838383838,353.19010407257474 538.8888888888889,355.2024725366046 543.939393939394,353.4518933519867 548.9898989898991,354.3563860614145 554.040404040404,354.12494706765654 559.090909090909,356.0559117298073 564.1414141414141,355.8685167815401 569.1919191919192,357.3156111752642 574.2424242424242,358.05772985644313 579.2929292929293,356.5822362668571 584.3434343434343,356.8409724520574 589.3939393939395,358.304416255613 594.4444444444445,359.4286956169852 599.4949494949494,359.28592281488784 604.5454545454545,359.63097665773984 609.5959595959596,360.6498068421106 614.6464646464647,360.50275248185847 619.6969696969697,360.8028409312624 624.7474747474747,359.5686863095642 629.7979797979797,361.8972035824899 634.8484848484849,362.3908654311692 639.8989898989898,362.7462166923681 644.9494949494949,363.92971524205797 650,364.8001000114175 "/><text class="poloto_text" alignment-baseline="middle" text-anchor="start" font-size="large" x="675" y="250">sweep</text><line class="poloto3stroke" stroke="black" x1="680" x2="730" y1="231.25" y2="231.25"/><polyline class="poloto3stroke" fill="none" stroke="black" points="150,180.14518637243268 155.05050505050505,180.86920327609653 160.1010101010101,191.25369803778176 165.15151515151516,208.9786442382873 170.2020202020202,226.25283449989232 175.25252525252526,240.45880960398657 180.3030303030303,250.7735890368987 185.35353535353534,260.0640463289884 190.40404040404042,269.1745336534084 195.45454545454544,276.53505602518203 200.50505050505052,282.6081120532546 205.55555555555554,288.3759489883961 210.60606060606062,293.45768881129493 215.65656565656565,297.8854703065812 220.7070707070707,302.2239713782354 225.75757575757575,305.6637788128992 230.8080808080808,308.95940432506023 235.85858585858585,312.3319714244834 240.9090909090909,315.2418411928529 245.95959595959596,317.8034956302815 251.010101010101,320.4815831576148 256.06060606060606,322.83954743388335 261.1111111111111,324.94466492562015 266.16161616161617,327.0043111858146 271.21212121212125,328.9275798826745 276.26262626262627,330.850577594841 281.3131313131313,332.73101264450713 286.3636363636364,334.1944203167703 291.4141414141414,335.767432264666 296.4646464646465,337.1601490632601 301.5151515151515,338.6818545758837 306.5656565656566,340.0221810004321 311.6161616161616,341.2364634112854 316.66666666666663,342.4592366758633 321.7171717171717,343.6788845836447 326.7676767676768,344.7162862523323 331.8181818181818,345.9142553846465 336.86868686868684,346.9863069627891 341.9191919191919,347.88355534808164 346.969696969697,349.0320968723308 352.020202020202,349.8535598717194 357.07070707070704,350.7909681885649 362.1212121212121,351.60509653558717 367.17171717171715,352.54263131195614 372.22222222222223,353.2486909632747 377.27272727272725,354.05917004976004 382.32323232323233,354.81406114281833 387.37373737373736,355.5067341502859 392.42424242424244,356.2928246143707 397.47474747474746,357.1698394758939 402.52525252525254,357.64599571338346 407.57575757575756,358.28618801857436 412.62626262626264,359.0051465412959 417.67676767676767,359.592280043531 422.72727272727275,360.2167552365082 427.77777777777777,360.82484488836155 432.8282828282828,361.3503564713313 437.8787878787879,361.91283036647246 442.92929292929296,362.4371134854991 447.979797979798,362.96181211438875 453.030303030303,363.5545640325991 458.0808080808081,363.94956938725664 463.13131313131316,364.4528060284339 468.1818181818182,364.8959563302747 473.2323232323232,365.5175229542101 478.2828282828283,365.84993084470625 483.3333333333333,366.420317492893 488.3838383838384,366.7825336996565 493.4343434343434,367.1723542138481 498.4848484848485,367.5962826681081 503.5353535353535,368.1002058038418 508.5858585858586,368.6106145065694 513.6363636363636,368.8963588328725 518.6868686868686,369.2555942080093 523.7373737373737,369.57391089445184 528.7878787878788,369.98038793446074 533.8383838383838,370.3624944177153 538.8888888888889,370.70588622111484 543.939393939394,371.0709748656277 548.9898989898991,371.37706110957754 554.040404040404,371.7007613585944 559.090909090909,372.05665458917997 564.1414141414141,372.28251129825514 569.1919191919192,372.72974443614225 574.2424242424242,372.96895165777596 579.2929292929293,373.25111898612704 584.3434343434343,373.59080733205093 589.3939393939395,373.8404745628475 594.4444444444445,374.18738916726045 599.4949494949494,374.468382228607 604.5454545454545,374.7913237204825 609.5959595959596,375.0312355023189 614.6464646464647,375.29661984532913 619.6969696969697,375.50531419049287 624.7474747474747,375.83257337181556 629.7979797979797,376.08789514987984 634.8484848484849,376.33266659055005 639.8989898989898,376.5472684020286 644.9494949494949,376.87188999900275 650,377.1598383341451 "/><text class="poloto_text" alignment-baseline="start" text-anchor="middle" font-size="x-large" x="400" y="37.5">Complexity of space partitioning algs with abspiral(3000,grow)</text><text class="poloto_text" alignment-baseline="start" text-anchor="middle" font-size="x-large" x="400" y="481.25">Grow</text><text class="poloto_text" alignment-baseline="start" text-anchor="middle" font-size="x-large" transform="rotate(-90,37.5,250)" x="37.5" y="250">Number of Comparisons</text><path stroke="black" fill="none" class="poloto_axis_lines" d=" M 150 100 L 150 400 L 650 400"/></svg>