<svg class="poloto" height="500" viewBox="0 0 800 500" width="800" xmlns="http://www.w3.org/2000/svg">
<rect class="poloto_background" fill="white" height="500" width="800" x="0" y="0"/>
<style>
.poloto {
font-family: "Arial";
stroke-width:2;
}
.poloto_text{fill: var(--poloto_fg_color,black);  }
.poloto_axis_lines{stroke: var(--poloto_fg_color,black);stoke-width:3;fill:none}
.poloto_background{fill: var(--poloto_bg_color,aliceblue); }
.poloto0stroke{stroke:  var(--poloto_color0,blue); }
.poloto1stroke{stroke:  var(--poloto_color1,red); }
.poloto2stroke{stroke:  var(--poloto_color2,green); }
.poloto3stroke{stroke:  var(--poloto_color3,gold); }
.poloto4stroke{stroke:  var(--poloto_color4,aqua); }
.poloto5stroke{stroke:  var(--poloto_color5,brown); }
.poloto6stroke{stroke:  var(--poloto_color6,lime); }
.poloto7stroke{stroke:  var(--poloto_color7,chocolate); }
.poloto0fill{fill:var(--poloto_color0,blue);}
.poloto1fill{fill:var(--poloto_color1,red);}
.poloto2fill{fill:var(--poloto_color2,green);}
.poloto3fill{fill:var(--poloto_color3,gold);}
.poloto4fill{fill:var(--poloto_color4,aqua);}
.poloto5fill{fill:var(--poloto_color5,brown);}
.poloto6fill{fill:var(--poloto_color6,lime);}
.poloto7fill{fill:var(--poloto_color7,chocolate);}
</style>
<text alignment-baseline="start" class="poloto_text" text-anchor="middle" x="150" y="440">
5e-2
</text>
<text alignment-baseline="start" class="poloto_text" text-anchor="middle" x="282.97873" y="440">
1e-1
</text>
<text alignment-baseline="start" class="poloto_text" text-anchor="middle" x="415.95746" y="440">
1.5e-1
</text>
<text alignment-baseline="start" class="poloto_text" text-anchor="middle" x="548.93616" y="440">
2e-1
</text>
<text alignment-baseline="middle" class="poloto_text" text-anchor="end" x="120" y="400">
0e0
</text>
<text alignment-baseline="middle" class="poloto_text" text-anchor="end" x="120" y="348.61258">
2e-3
</text>
<text alignment-baseline="middle" class="poloto_text" text-anchor="end" x="120" y="297.22516">
4e-3
</text>
<text alignment-baseline="middle" class="poloto_text" text-anchor="end" x="120" y="245.8377">
6e-3
</text>
<text alignment-baseline="middle" class="poloto_text" text-anchor="end" x="120" y="194.45029">
8e-3
</text>
<text alignment-baseline="middle" class="poloto_text" text-anchor="end" x="120" y="143.06287">
1e-2
</text>
<text alignment-baseline="middle" class="poloto_text" font-size="large" text-anchor="start" x="675" y="100">
brocc
</text>
<line class="poloto0stroke" x1="680" x2="730" y1="81.25" y2="81.25"/>
<polyline class="poloto0stroke" fill="none" points="150,288.39526 155.31915,299.44165 160.6383,309.72253 165.95744,316.39813 171.2766,322.54352 176.59575,326.38763 181.91489,329.9191 187.23404,334.05347 192.55319,336.32642 197.87234,338.59543 203.19148,340.72195 208.51065,343.2174 213.82979,343.57184 219.14893,346.3265 224.46808,347.55655 229.78723,348.79144 235.10638,350.44415 240.42554,351.10214 245.74467,352.2973 251.06384,353.89243 256.38297,354.35193 261.70215,355.6368 267.02127,357.00446 272.34045,357.2211 277.65958,357.7967 282.9787,358.43103 288.29788,359.38324 293.61703,359.82587 298.93616,360.88626 304.25534,361.33167 309.57446,361.9467 314.89362,362.03113 320.21277,362.23737 325.53192,362.8122 330.85107,362.71906 336.17023,363.15112 341.48938,363.2366 346.80853,363.821 352.1277,363.6846 357.4468,364.88678 362.766,364.85037 368.0851,365.0326 373.40424,365.01373 378.72342,365.43427 384.04254,365.52643 389.3617,366.11493 394.68085,366.3018 400,365.8772 405.31915,366.68878 410.6383,366.62735 415.95746,367.23737 421.2766,367.06085 426.59576,367.5318 431.9149,368.15497 437.23404,368.21344 442.5532,368.16623 447.87234,368.42767 453.1915,368.4559 458.51065,368.24713 463.8298,368.86725 469.14893,368.8642 474.46808,369.05396 479.78726,369.02084 485.10638,369.9781 490.4255,369.42404 495.74466,369.85132 501.0638,369.38367 506.38293,370.44443 511.70212,370.23187 517.02124,369.8651 522.34045,370.156 527.65955,370.69888 532.9787,370.72665 538.29785,370.73676 543.61707,371.25943 548.93616,371.561 554.2553,370.69952 559.57446,371.45374 564.89355,371.19705 570.21277,371.5225 575.53186,371.53442 580.8511,372.02377 586.17017,371.9199 591.4894,371.65198 596.8085,372.04382 602.1277,372.09293 607.4468,372.2461 612.7659,372.62344 618.0851,372.5216 623.40424,372.01093 628.7234,372.44495 634.04254,372.49173 639.3617,372.5319 644.6808,372.53613 650,372.5281 " stroke="black"/>
<text alignment-baseline="middle" class="poloto_text" font-size="large" text-anchor="start" x="675" y="150">
brocc_par
</text>
<line class="poloto1stroke" x1="680" x2="730" y1="131.25" y2="131.25"/>
<polyline class="poloto1stroke" fill="none" points="150,283.49515 155.31915,300.83865 160.6383,310.02277 165.95744,318.3844 171.2766,323.89935 176.59575,329.02972 181.91489,337.15057 187.23404,338.15002 192.55319,344.53787 197.87234,343.97757 203.19148,346.29535 208.51065,349.74246 213.82979,349.45096 219.14893,352.7212 224.46808,353.31012 229.78723,354.59473 235.10638,356.77472 240.42554,357.12195 245.74467,357.18533 251.06384,359.48456 256.38297,359.5479 261.70215,361.33374 267.02127,362.399 272.34045,362.61395 277.65958,361.184 282.9787,362.48773 288.29788,364.26736 293.61703,363.703 298.93616,365.50583 304.25534,365.39603 309.57446,365.1584 314.89362,365.78827 320.21277,365.73413 325.53192,368.39792 330.85107,367.9047 336.17023,365.86987 341.48938,367.1919 346.80853,367.78015 352.1277,368.04404 357.4468,368.64584 362.766,368.6081 368.0851,369.78366 373.40424,368.88495 378.72342,369.46112 384.04254,369.0521 389.3617,368.65295 394.68085,369.7915 400,369.6392 405.31915,370.26175 410.6383,368.57516 415.95746,371.3349 421.2766,370.22958 426.59576,373.53455 431.9149,376.55106 437.23404,371.2706 442.5532,373.68567 447.87234,371.38397 453.1915,371.20135 458.51065,370.16327 463.8298,371.38144 469.14893,372.77542 474.46808,373.16885 479.78726,371.84674 485.10638,371.01794 490.4255,374.40363 495.74466,371.65167 501.0638,374.50717 506.38293,374.23083 511.70212,377.86328 517.02124,372.26016 522.34045,373.9807 527.65955,372.85477 532.9787,373.21265 538.29785,373.4187 543.61707,372.29498 548.93616,370.1117 554.2553,380.01443 559.57446,378.61874 564.89355,354.49356 570.21277,377.21518 575.53186,376.7218 580.8511,375.35614 586.17017,373.98114 591.4894,373.8487 596.8085,374.01248 602.1277,374.65216 607.4468,381.19427 612.7659,380.06775 618.0851,380.2228 623.40424,375.4514 628.7234,379.19537 634.04254,373.28207 639.3617,375.7299 644.6808,374.76468 650,374.98444 " stroke="black"/>
<text alignment-baseline="middle" class="poloto_text" font-size="large" text-anchor="start" x="675" y="200">
naive
</text>
<line class="poloto2stroke" x1="680" x2="730" y1="181.25" y2="181.25"/>
<polyline class="poloto2stroke" fill="none" points="150,400 155.31915,400 160.6383,400 165.95744,400 171.2766,400 176.59575,400 181.91489,400 187.23404,400 192.55319,400 197.87234,400 203.19148,400 208.51065,400 213.82979,400 219.14893,400 224.46808,400 229.78723,400 235.10638,400 240.42554,400 245.74467,400 251.06384,400 256.38297,400 261.70215,400 267.02127,400 272.34045,400 277.65958,400 282.9787,400 288.29788,400 293.61703,400 298.93616,400 304.25534,400 309.57446,400 314.89362,400 320.21277,400 325.53192,400 330.85107,400 336.17023,400 341.48938,400 346.80853,400 352.1277,400 357.4468,400 362.766,400 368.0851,400 373.40424,400 378.72342,400 384.04254,400 389.3617,400 394.68085,400 400,400 405.31915,400 410.6383,400 415.95746,400 421.2766,400 426.59576,400 431.9149,400 437.23404,400 442.5532,400 447.87234,400 453.1915,400 458.51065,400 463.8298,400 469.14893,400 474.46808,400 479.78726,400 485.10638,400 490.4255,400 495.74466,400 501.0638,400 506.38293,400 511.70212,400 517.02124,400 522.34045,400 527.65955,400 532.9787,400 538.29785,400 543.61707,400 548.93616,400 554.2553,400 559.57446,400 564.89355,400 570.21277,400 575.53186,400 580.8511,400 586.17017,400 591.4894,400 596.8085,400 602.1277,400 607.4468,400 612.7659,400 618.0851,400 623.40424,400 628.7234,400 634.04254,400 639.3617,400 644.6808,400 650,400 " stroke="black"/>
<text alignment-baseline="middle" class="poloto_text" font-size="large" text-anchor="start" x="675" y="250">
nosort
</text>
<line class="poloto3stroke" x1="680" x2="730" y1="231.25" y2="231.25"/>
<polyline class="poloto3stroke" fill="none" points="150,155.78726 155.31915,176.55556 160.6383,186.34552 165.95744,207.1942 171.2766,218.11238 176.59575,231.11176 181.91489,240.79207 187.23404,247.22919 192.55319,253.69676 197.87234,264.35074 203.19148,262.4218 208.51065,270.41528 213.82979,270.1246 219.14893,276.05676 224.46808,278.4333 229.78723,286.199 235.10638,288.47217 240.42554,288.09988 245.74467,291.84253 251.06384,296.90268 256.38297,298.97754 261.70215,300.7738 267.02127,303.10297 272.34045,307.20505 277.65958,305.84424 282.9787,305.0072 288.29788,309.84885 293.61703,308.60886 298.93616,315.57358 304.25534,315.08417 309.57446,314.77008 314.89362,316.10458 320.21277,320.11948 325.53192,320.23746 330.85107,322.0155 336.17023,320.55127 341.48938,322.59393 346.80853,322.5467 352.1277,326.43893 357.4468,326.57764 362.766,326.68713 368.0851,324.8047 373.40424,328.60587 378.72342,328.10886 384.04254,331.00204 389.3617,331.36774 394.68085,329.76953 400,331.89087 405.31915,332.8396 410.6383,333.5741 415.95746,332.8049 421.2766,335.15704 426.59576,336.01035 431.9149,336.73837 437.23404,337.24222 442.5532,336.0659 447.87234,337.37375 453.1915,336.57202 458.51065,337.33636 463.8298,337.74307 469.14893,338.36188 474.46808,338.1362 479.78726,336.91885 485.10638,339.39764 490.4255,341.3612 495.74466,341.1056 501.0638,340.5023 506.38293,341.29767 511.70212,342.30743 517.02124,341.58112 522.34045,342.61322 527.65955,342.7827 532.9787,343.81058 538.29785,343.59286 543.61707,343.73236 548.93616,343.6887 554.2553,343.3059 559.57446,344.85516 564.89355,344.37207 570.21277,344.96167 575.53186,344.53436 580.8511,344.7857 586.17017,344.86853 591.4894,346.35944 596.8085,346.7354 602.1277,346.5243 607.4468,347.48825 612.7659,346.1526 618.0851,346.53845 623.40424,347.8444 628.7234,347.80988 634.04254,348.147 639.3617,349.75906 644.6808,347.08014 650,348.4029 " stroke="black"/>
<text alignment-baseline="middle" class="poloto_text" font-size="large" text-anchor="start" x="675" y="300">
nosort_par
</text>
<line class="poloto4stroke" x1="680" x2="730" y1="281.25" y2="281.25"/>
<polyline class="poloto4stroke" fill="none" points="150,174.22708 155.31915,198.82237 160.6383,212.13507 165.95744,231.83095 171.2766,243.85866 176.59575,259.0653 181.91489,266.5893 187.23404,272.85846 192.55319,277.64246 197.87234,286.94586 203.19148,287.0664 208.51065,296.6331 213.82979,293.7803 219.14893,301.93597 224.46808,304.4606 229.78723,307.2536 235.10638,311.2157 240.42554,312.27255 245.74467,313.78094 251.06384,317.9755 256.38297,321.7145 261.70215,321.88187 267.02127,323.99057 272.34045,331.89832 277.65958,328.3647 282.9787,325.3071 288.29788,329.308 293.61703,327.34024 298.93616,333.8316 304.25534,332.63547 309.57446,332.89575 314.89362,302.32474 320.21277,338.77612 325.53192,336.96146 330.85107,338.78046 336.17023,338.69052 341.48938,339.23944 346.80853,339.32285 352.1277,343.8488 357.4468,343.13617 362.766,345.2477 368.0851,343.55902 373.40424,347.02817 378.72342,345.90656 384.04254,345.99207 389.3617,347.6323 394.68085,347.20993 400,346.3246 405.31915,348.34335 410.6383,346.6755 415.95746,350.38882 421.2766,349.25583 426.59576,355.55707 431.9149,351.01495 437.23404,354.04523 442.5532,351.80972 447.87234,349.95715 453.1915,351.5086 458.51065,351.96777 463.8298,349.57916 469.14893,352.04404 474.46808,353.3437 479.78726,349.9577 485.10638,354.32434 490.4255,354.75165 495.74466,354.66418 501.0638,356.59464 506.38293,343.07324 511.70212,357.60748 517.02124,359.49866 522.34045,354.9687 527.65955,356.86627 532.9787,355.49576 538.29785,359.58774 543.61707,350.46948 548.93616,296.38776 554.2553,349.51028 559.57446,337.59436 564.89355,357.99576 570.21277,355.01215 575.53186,357.83282 580.8511,355.07455 586.17017,354.78253 591.4894,359.0703 596.8085,356.85275 602.1277,363.43427 607.4468,365.03677 612.7659,363.64886 618.0851,361.88904 623.40424,362.60522 628.7234,361.99182 634.04254,358.32816 639.3617,359.59827 644.6808,359.51813 650,358.38727 " stroke="black"/>
<text alignment-baseline="middle" class="poloto_text" font-size="large" text-anchor="start" x="675" y="350">
sweep
</text>
<line class="poloto5stroke" x1="680" x2="730" y1="331.25" y2="331.25"/>
<polyline class="poloto5stroke" fill="none" points="150,100 155.31915,128.05478 160.6383,149.36351 165.95744,166.24765 171.2766,180.61786 176.59575,191.58499 181.91489,201.34605 187.23404,210.0381 192.55319,217.17302 197.87234,224.00635 203.19148,230.16556 208.51065,235.94272 213.82979,239.9906 219.14893,243.18025 224.46808,248.2778 229.78723,251.0774 235.10638,255.95267 240.42554,258.13824 245.74467,262.30066 251.06384,264.64514 256.38297,267.30856 261.70215,270.20563 267.02127,273.38403 272.34045,274.3752 277.65958,277.12823 282.9787,278.54523 288.29788,280.7525 293.61703,282.0506 298.93616,284.28616 304.25534,285.83142 309.57446,287.53912 314.89362,288.63904 320.21277,290.75443 325.53192,291.43594 330.85107,293.04465 336.17023,294.66095 341.48938,294.82428 346.80853,297.23547 352.1277,298.38483 357.4468,298.90088 362.766,300.10672 368.0851,300.91217 373.40424,302.66367 378.72342,303.21765 384.04254,304.196 389.3617,306.14108 394.68085,306.38666 400,307.29892 405.31915,307.9057 410.6383,308.8473 415.95746,310.0679 421.2766,310.3812 426.59576,311.09802 431.9149,311.64948 437.23404,312.3897 442.5532,313.79373 447.87234,314.55576 453.1915,314.93253 458.51065,315.61328 463.8298,316.45306 469.14893,316.5125 474.46808,317.63177 479.78726,317.89505 485.10638,318.37756 490.4255,319.37894 495.74466,319.47104 501.0638,320.02246 506.38293,320.66812 511.70212,321.4711 517.02124,321.67368 522.34045,322.82617 527.65955,322.7429 532.9787,323.93604 538.29785,323.85016 543.61707,324.60385 548.93616,324.8097 554.2553,324.69717 559.57446,325.3173 564.89355,325.5398 570.21277,327.0175 575.53186,326.8327 580.8511,328.06705 586.17017,328.21472 591.4894,327.95944 596.8085,328.75555 602.1277,328.98575 607.4468,329.51395 612.7659,329.8763 618.0851,329.9933 623.40424,330.63025 628.7234,330.9908 634.04254,331.342 639.3617,331.7934 644.6808,332.42636 650,332.50558 " stroke="black"/>
<text alignment-baseline="start" class="poloto_text" font-size="x-large" text-anchor="middle" x="400" y="37.5">
Bench of space partitioning algs with abspiral(3000,grow)
</text>
<text alignment-baseline="start" class="poloto_text" font-size="large" text-anchor="middle" x="400" y="481.25">
Grow
</text>
<text alignment-baseline="start" class="poloto_text" font-size="large" text-anchor="middle" transform="rotate(-90,37.5,250)" x="37.5" y="250">
Time in Seconds
</text>
<path class="poloto_axis_lines" d="M150,100 L150,400 L650,400" stroke="black"/>
</svg>