<svg class="poloto" width="800" height="500" viewBox="0 0 800 500" xmlns="http://www.w3.org/2000/svg" ><rect class="poloto_background" fill="white" x="0" y="0" width="800" height="500" /><style><style>.poloto {
            font-family: "Arial";
            stroke-width:2;
            }
            .poloto_text{fill: var(--poloto_fg_color,black);  }
            .poloto_axis_lines{stroke: var(--poloto_fg_color,black);stoke-width:3;fill:none}
            .poloto_background{fill: var(--poloto_bg_color,aliceblue); }
            .poloto0stroke{stroke:  var(--poloto_color0,blue); }
            .poloto1stroke{stroke:  var(--poloto_color1,red); }
            .poloto2stroke{stroke:  var(--poloto_color2,green); }
            .poloto3stroke{stroke:  var(--poloto_color3,gold); }
            .poloto4stroke{stroke:  var(--poloto_color4,aqua); }
            .poloto5stroke{stroke:  var(--poloto_color5,brown); }
            .poloto6stroke{stroke:  var(--poloto_color6,lime); }
            .poloto7stroke{stroke:  var(--poloto_color7,chocolate); }
            .poloto0fill{fill:var(--poloto_color0,blue);}
            .poloto1fill{fill:var(--poloto_color1,red);}
            .poloto2fill{fill:var(--poloto_color2,green);}
            .poloto3fill{fill:var(--poloto_color3,gold);}
            .poloto4fill{fill:var(--poloto_color4,aqua);}
            .poloto5fill{fill:var(--poloto_color5,brown);}
            .poloto6fill{fill:var(--poloto_color6,lime);}
            .poloto7fill{fill:var(--poloto_color7,chocolate);}</style></style><line class="poloto_axis_lines" stroke="black" x1="150" x2="150" y1="400" y2="405" /><text class="poloto_text" alignment-baseline="start" text-anchor="middle" x="150" y="430" >0</text><line class="poloto_axis_lines" stroke="black" x1="251.0101" x2="251.0101" y1="400" y2="405" /><text class="poloto_text" alignment-baseline="start" text-anchor="middle" x="251.0101" y="430" >2000</text><line class="poloto_axis_lines" stroke="black" x1="352.0202" x2="352.0202" y1="400" y2="405" /><text class="poloto_text" alignment-baseline="start" text-anchor="middle" x="352.0202" y="430" >4000</text><line class="poloto_axis_lines" stroke="black" x1="453.0303" x2="453.0303" y1="400" y2="405" /><text class="poloto_text" alignment-baseline="start" text-anchor="middle" x="453.0303" y="430" >6000</text><line class="poloto_axis_lines" stroke="black" x1="554.0404" x2="554.0404" y1="400" y2="405" /><text class="poloto_text" alignment-baseline="start" text-anchor="middle" x="554.0404" y="430" >8000</text><line class="poloto_axis_lines" stroke="black" x1="150" x2="144" y1="319.4612" y2="319.4612" /><text class="poloto_text" alignment-baseline="middle" text-anchor="end" x="135" y="319.4612" >0.005</text><line class="poloto_axis_lines" stroke="black" x1="150" x2="144" y1="238.9213" y2="238.9213" /><text class="poloto_text" alignment-baseline="middle" text-anchor="end" x="135" y="238.9213" >0.010</text><line class="poloto_axis_lines" stroke="black" x1="150" x2="144" y1="158.38138" y2="158.38138" /><text class="poloto_text" alignment-baseline="middle" text-anchor="end" x="135" y="158.38138" >0.015</text><text class="poloto_text" alignment-baseline="middle" text-anchor="start" font-size="large" x="675" y="100" >brocc</text><line class="poloto0stroke" stroke="black" x1="680" x2="730" y1="81.25" y2="81.25" /><polyline class="poloto0stroke" fill="none" stroke="black"  points="150,399.9823 155.0505,399.56006 160.10101,398.7162 165.15152,397.87683 170.20203,396.80573 175.25253,396.11005 180.30302,393.99744 185.35353,393.8585 190.40404,393.23004 195.45454,392.30435 200.50505,391.3559 205.55556,390.12744 210.60606,388.41397 215.65656,387.9812 220.70706,387.0379 225.75757,386.43976 230.80807,385.25803 235.85858,384.72192 240.90909,383.46667 245.9596,381.1729 251.0101,379.0285 256.0606,379.13916 261.1111,378.18646 266.16162,372.89255 271.21213,372.42758 276.26263,375.51947 281.3131,371.12387 286.36365,373.89288 291.41412,372.61282 296.46466,370.16266 301.51514,367.9662 306.56567,369.81488 311.61615,365.92633 316.66666,365.95624 321.71716,366.0792 326.76767,365.4953 331.81818,364.70313 336.86868,345.7818 341.9192,344.06583 346.9697,338.64288 352.0202,331.15112 357.0707,341.98596 362.12122,356.99667 367.1717,348.8817 372.22223,273.68896 377.2727,351.76166 382.32324,353.998 387.37372,348.70117 392.42426,351.921 397.47473,350.5641 402.52527,349.09433 407.57574,348.66476 412.62625,347.39825 417.67676,345.54443 422.72726,345.28107 427.77777,345.2031 432.82828,343.88678 437.87878,342.71136 442.9293,340.07437 447.9798,334.0296 453.0303,341.07748 458.0808,334.16177 463.13132,336.01926 468.18182,212.45279 473.23233,331.3366 478.28284,331.6913 483.3333,334.24097 488.38382,333.27295 493.43433,332.46405 498.48483,326.52448 503.53534,325.45868 508.58585,327.18195 513.63635,316.45743 518.6869,310.49606 523.73737,316.38763 528.78784,321.791 533.8384,323.43616 538.8889,323.17053 543.9394,322.44458 548.98987,313.35446 554.0404,319.1578 559.09094,317.45935 564.1414,186.77881 569.1919,311.3977 574.24243,309.9276 579.2929,298.95093 584.3434,284.47507 589.3939,301.78784 594.44446,306.54303 599.49493,305.52667 604.5454,280.92508 609.59595,302.88623 614.6465,302.36368 619.69696,291.8482 624.74744,299.69 629.798,297.96725 634.8485,290.3232 639.899,290.4414 644.94946,273.1462 650,284.1899 "/><text class="poloto_text" alignment-baseline="middle" text-anchor="start" font-size="large" x="675" y="150" >brocc_par</text><line class="poloto1stroke" stroke="black" x1="680" x2="730" y1="131.25" y2="131.25" /><polyline class="poloto1stroke" fill="none" stroke="black"  points="150,399.96524 155.0505,399.476 160.10101,398.65475 165.15152,397.8325 170.20203,396.93112 175.25253,396.04782 180.30302,394.15576 185.35353,393.7499 190.40404,393.11884 195.45454,392.26666 200.50505,389.48544 205.55556,389.8686 210.60606,386.49908 215.65656,387.84302 220.70706,387.0978 225.75757,385.92664 230.80807,384.97165 235.85858,384.55927 240.90909,383.15845 245.9596,380.4191 251.0101,379.75113 256.0606,372.0895 261.1111,238.57248 266.16162,376.57776 271.21213,377.49872 276.26263,372.59613 281.3131,184.17107 286.36365,368.30795 291.41412,376.325 296.46466,374.13043 301.51514,372.85336 306.56567,374.211 311.61615,374.95764 316.66666,366.41885 321.71716,368.77512 326.76767,367.13574 331.81818,371.93677 336.86868,306.2038 341.9192,319.7008 346.9697,320.53683 352.0202,371.1816 357.0707,293.93588 362.12122,357.27167 367.1717,336.02417 372.22223,367.96173 377.2727,247.09622 382.32324,348.79254 387.37372,364.21854 392.42426,179.62437 397.47473,363.82397 402.52527,258.00385 407.57574,365.0859 412.62625,279.06906 417.67676,353.88464 422.72726,356.6216 427.77777,291.07568 432.82828,361.0788 437.87878,352.86246 442.9293,368.4816 447.9798,367.311 453.0303,333.6198 458.0808,355.17722 463.13132,359.62387 468.18182,331.32733 473.23233,300.7977 478.28284,364.05212 483.3333,356.07178 488.38382,237.1809 493.43433,347.6861 498.48483,365.99146 503.53534,355.70557 508.58585,362.40277 513.63635,348.31747 518.6869,327.9776 523.73737,347.3278 528.78784,355.45682 533.8384,365.32935 538.8889,346.5919 543.9394,266.42462 548.98987,349.85556 554.0404,343.16702 559.09094,346.0462 564.1414,351.52475 569.1919,340.03192 574.24243,310.74847 579.2929,324.85327 584.3434,358.0393 589.3939,336.74878 594.44446,342.893 599.49493,337.6978 604.5454,355.339 609.59595,339.5413 614.6465,342.10516 619.69696,339.74698 624.74744,293.5027 629.798,355.24857 634.8485,308.90076 639.899,352.4885 644.94946,331.1684 650,315.47644 "/><text class="poloto_text" alignment-baseline="middle" text-anchor="start" font-size="large" x="675" y="200" >naive</text><line class="poloto2stroke" stroke="black" x1="680" x2="730" y1="181.25" y2="181.25" /><polyline class="poloto2stroke" fill="none" stroke="black"  points="150,400 155.0505,399.41202 160.10101,397.6218 165.15152,395.1599 170.20203,390.76013 175.25253,387.30426 180.30302,383.8516 185.35353,380.7482 190.40404,376.89645 195.45454,371.29233 200.50505,366.34644 205.55556,360.8912 210.60606,350.95172 215.65656,348.75137 220.70706,341.75473 225.75757,329.00964 230.80807,326.1922 235.85858,317.7191 240.90909,309.04456 245.9596,298.62054 251.0101,289.23514 256.0606,281.60052 261.1111,264.3625 266.16162,252.3168 271.21213,158.35474 276.26263,231.5111 281.3131,217.12057 286.36365,202.5975 291.41412,195.4748 296.46466,184.23685 301.51514,175.072 "/><text class="poloto_text" alignment-baseline="middle" text-anchor="start" font-size="large" x="675" y="250" >nosort</text><line class="poloto3stroke" stroke="black" x1="680" x2="730" y1="231.25" y2="231.25" /><polyline class="poloto3stroke" fill="none" stroke="black"  points="150,399.98605 155.0505,399.37994 160.10101,398.14233 165.15152,396.94717 170.20203,394.97797 175.25253,393.47055 180.30302,391.67532 185.35353,388.69235 190.40404,387.328 195.45454,385.57172 200.50505,383.35654 205.55556,381.60934 210.60606,378.94577 215.65656,375.9828 220.70706,375.1354 225.75757,372.0243 230.80807,370.50046 235.85858,366.5553 240.90909,365.86526 245.9596,363.75214 251.0101,361.51697 256.0606,355.9547 261.1111,337.443 266.16162,228.27937 271.21213,342.42712 276.26263,345.53397 281.3131,338.21518 286.36365,340.17548 291.41412,335.3328 296.46466,338.15973 301.51514,337.47095 306.56567,335.71466 311.61615,332.10294 316.66666,326.54758 321.71716,317.87497 326.76767,317.73505 331.81818,318.79605 336.86868,290.73453 341.9192,299.72717 346.9697,299.78375 352.0202,298.48553 357.0707,297.6055 362.12122,297.0622 367.1717,291.9574 372.22223,284.91226 377.2727,293.35425 382.32324,286.43805 387.37372,290.4991 392.42426,283.2449 397.47473,279.0218 402.52527,283.5061 407.57574,126.99069 412.62625,270.89896 417.67676,261.77795 422.72726,109.996735 427.77777,261.12488 432.82828,256.07318 437.87878,256.09802 442.9293,254.98947 447.9798,257.83282 453.0303,247.29907 458.0808,250.62941 463.13132,229.13013 468.18182,203.71535 473.23233,227.87553 478.28284,225.76875 483.3333,230.47017 488.38382,228.23802 493.43433,216.71788 498.48483,220.33144 503.53534,209.49176 508.58585,203.51772 513.63635,181.60123 518.6869,146.0545 523.73737,177.37306 528.78784,198.37329 533.8384,189.03395 538.8889,187.35236 543.9394,185.78316 548.98987,190.91699 554.0404,175.94572 559.09094,165.93115 564.1414,177.39613 569.1919,176.99078 574.24243,172.286 579.2929,158.06696 584.3434,168.05354 589.3939,161.51079 594.44446,157.38908 599.49493,157.89377 604.5454,155.81604 609.59595,148.98508 614.6465,151.24403 619.69696,137.90121 624.74744,135.56323 629.798,128.8493 634.8485,134.3164 639.899,113.605194 644.94946,101.97638 650,100 "/><text class="poloto_text" alignment-baseline="middle" text-anchor="start" font-size="large" x="675" y="300" >nosort_par</text><line class="poloto4stroke" stroke="black" x1="680" x2="730" y1="281.25" y2="281.25" /><polyline class="poloto4stroke" fill="none" stroke="black"  points="150,399.98346 155.0505,399.45596 160.10101,398.1797 165.15152,396.99896 170.20203,394.9894 175.25253,393.67563 180.30302,391.60303 185.35353,389.7729 190.40404,388.74695 195.45454,384.20627 200.50505,381.9311 205.55556,382.57648 210.60606,379.4365 215.65656,376.73602 220.70706,375.1177 225.75757,372.7277 230.80807,368.1696 235.85858,369.81128 240.90909,366.8199 245.9596,364.811 251.0101,363.11075 256.0606,364.53912 261.1111,355.69675 266.16162,362.10358 271.21213,358.55344 276.26263,358.96027 281.3131,311.15506 286.36365,328.8079 291.41412,352.92044 296.46466,350.07285 301.51514,351.41327 306.56567,349.09238 311.61615,347.0645 316.66666,345.2047 321.71716,342.82364 326.76767,335.93167 331.81818,338.91864 336.86868,292.6241 341.9192,279.8318 346.9697,322.65723 352.0202,269.07004 357.0707,218.23888 362.12122,312.9324 367.1717,302.75568 372.22223,317.94006 377.2727,327.3945 382.32324,322.81134 387.37372,305.54993 392.42426,317.37515 397.47473,317.53696 402.52527,317.49225 407.57574,319.9069 412.62625,317.29858 417.67676,311.02692 422.72726,308.9063 427.77777,322.061 432.82828,324.52548 437.87878,306.72903 442.9293,306.75763 447.9798,295.72748 453.0303,305.41516 458.0808,294.44022 463.13132,306.18167 468.18182,260.56152 473.23233,279.12885 478.28284,278.51434 483.3333,244.66306 488.38382,283.03528 493.43433,298.57324 498.48483,233.43681 503.53534,213.93597 508.58585,158.18683 513.63635,252.31787 518.6869,200.66727 523.73737,262.74384 528.78784,264.18277 533.8384,291.1503 538.8889,258.08054 543.9394,249.22339 548.98987,266.91205 554.0404,270.64236 559.09094,228.22105 564.1414,262.14087 569.1919,237.5188 574.24243,234.61873 579.2929,275.33423 584.3434,264.2395 589.3939,253.40416 594.44446,253.97296 599.49493,179.68983 604.5454,278.50998 609.59595,246.72678 614.6465,252.54872 619.69696,220.94147 624.74744,257.3456 629.798,221.41815 634.8485,167.65524 639.899,260.05707 644.94946,159.93672 650,217.14282 "/><text class="poloto_text" alignment-baseline="middle" text-anchor="start" font-size="large" x="675" y="350" >sweep</text><line class="poloto5stroke" stroke="black" x1="680" x2="730" y1="331.25" y2="331.25" /><polyline class="poloto5stroke" fill="none" stroke="black"  points="150,399.9497 155.0505,399.48434 160.10101,398.4205 165.15152,397.00162 170.20203,394.1338 175.25253,393.60532 180.30302,372.74255 185.35353,389.2465 190.40404,387.38727 195.45454,384.8996 200.50505,382.78296 205.55556,380.17892 210.60606,376.43246 215.65656,374.73795 220.70706,371.90558 225.75757,368.9929 230.80807,365.03223 235.85858,362.47745 240.90909,359.65457 245.9596,356.40247 251.0101,352.43045 256.0606,349.04468 261.1111,308.83008 266.16162,339.24493 271.21213,337.7978 276.26263,330.8511 281.3131,328.6816 286.36365,301.32657 291.41412,323.97797 296.46466,317.5011 301.51514,314.1406 306.56567,307.77283 311.61615,304.85046 316.66666,301.10004 321.71716,295.9314 326.76767,293.22308 331.81818,284.85684 336.86868,264.73572 341.9192,196.5787 346.9697,196.5968 352.0202,257.1161 357.0707,254.14323 362.12122,239.45319 367.1717,241.90872 372.22223,160.43011 377.2727,245.03027 382.32324,239.87807 387.37372,236.02655 392.42426,230.15697 397.47473,223.70831 402.52527,194.85814 407.57574,215.59439 412.62625,205.93684 417.67676,198.54356 422.72726,189.59564 427.77777,172.20677 432.82828,184.34741 437.87878,179.6023 442.9293,179.58174 447.9798,173.8483 453.0303,168.48947 "/><text class="poloto_text" alignment-baseline="start" text-anchor="middle" font-size="x-large" x="400" y="37.5" >Bench of space partitioning algs with abspiral(x,0.05)</text><text class="poloto_text" alignment-baseline="start" text-anchor="middle" font-size="x-large" x="400" y="481.25" >Number of Elements</text><text class="poloto_text" alignment-baseline="start" text-anchor="middle" font-size="x-large" transform="rotate(-90,37.5,250)" x="37.5" y="250" >Time in Seconds</text><path stroke="black" fill="none" class="poloto_axis_lines"  d="M 150 100 L 150 400 L 650 400 "/></svg>