<svg class="poloto" width="800" height="500" viewBox="0 0 800 500" xmlns="http://www.w3.org/2000/svg"><circle  r="1e5" class="poloto_background" /><text  class="poloto_text poloto_legend_text" x="675" y="100" >brocc</text><line  class="poloto_scatter poloto_legend_icon poloto0stroke poloto0legend" stroke="black" x1="685" x2="685" y1="81.25" y2="81.25" /><path  class="poloto_scatter poloto0stroke" d=" M 150.00 399.98 h 0 M 155.05 399.15 h 0 M 160.10 398.27 h 0 M 165.15 397.26 h 0 M 170.20 396.10 h 0 M 175.25 394.89 h 0 M 180.30 393.28 h 0 M 185.35 391.94 h 0 M 190.40 390.97 h 0 M 195.45 389.99 h 0 M 200.51 388.57 h 0 M 205.56 387.89 h 0 M 210.61 386.69 h 0 M 215.66 385.81 h 0 M 220.71 384.39 h 0 M 225.76 383.66 h 0 M 230.81 381.25 h 0 M 235.86 380.27 h 0 M 240.91 378.79 h 0 M 245.96 378.79 h 0 M 251.01 377.41 h 0 M 256.06 373.23 h 0 M 261.11 372.87 h 0 M 266.16 371.99 h 0 M 271.21 371.20 h 0 M 276.26 370.40 h 0 M 281.31 368.94 h 0 M 286.36 367.93 h 0 M 291.41 366.89 h 0 M 296.46 366.16 h 0 M 301.52 364.13 h 0 M 306.57 362.65 h 0 M 311.62 362.22 h 0 M 316.67 360.08 h 0 M 321.72 360.01 h 0 M 326.77 358.60 h 0 M 331.82 357.19 h 0 M 336.87 356.94 h 0 M 341.92 355.12 h 0 M 346.97 353.32 h 0 M 352.02 352.98 h 0 M 357.07 351.72 h 0 M 362.12 351.21 h 0 M 367.17 348.94 h 0 M 372.22 347.84 h 0 M 377.27 346.58 h 0 M 382.32 344.30 h 0 M 387.37 344.75 h 0 M 392.42 342.09 h 0 M 397.47 341.70 h 0 M 402.53 339.73 h 0 M 407.58 337.98 h 0 M 412.63 337.60 h 0 M 417.68 337.25 h 0 M 422.73 335.08 h 0 M 427.78 333.32 h 0 M 432.83 333.85 h 0 M 437.88 330.99 h 0 M 442.93 329.64 h 0 M 447.98 329.79 h 0 M 453.03 325.13 h 0 M 458.08 325.58 h 0 M 463.13 324.53 h 0 M 468.18 324.00 h 0 M 473.23 324.14 h 0 M 478.28 321.75 h 0 M 483.33 319.57 h 0 M 488.38 319.90 h 0 M 493.43 318.57 h 0 M 498.48 315.42 h 0 M 503.54 313.34 h 0 M 508.59 314.39 h 0 M 513.64 311.89 h 0 M 518.69 309.86 h 0 M 523.74 308.05 h 0 M 528.79 308.16 h 0 M 533.84 308.52 h 0 M 538.89 304.07 h 0 M 543.94 305.83 h 0 M 548.99 302.30 h 0 M 554.04 302.46 h 0 M 559.09 302.56 h 0 M 564.14 291.63 h 0 M 569.19 289.57 h 0 M 574.24 291.03 h 0 M 579.29 287.72 h 0 M 584.34 286.05 h 0 M 589.39 283.23 h 0 M 594.44 284.55 h 0 M 599.49 283.36 h 0 M 604.55 280.29 h 0 M 609.60 278.82 h 0 M 614.65 276.68 h 0 M 619.70 278.35 h 0 M 624.75 275.92 h 0 M 629.80 276.44 h 0 M 634.85 272.67 h 0 M 639.90 270.86 h 0 M 644.95 269.62 h 0 M 650.00 270.21 h 0" /><text  class="poloto_text poloto_legend_text" x="675" y="150" >brocc_par</text><line  class="poloto_scatter poloto_legend_icon poloto1stroke poloto1legend" stroke="black" x1="685" x2="685" y1="131.25" y2="131.25" /><path  class="poloto_scatter poloto1stroke" d=" M 150.00 399.94 h 0 M 155.05 399.09 h 0 M 160.10 398.12 h 0 M 165.15 397.05 h 0 M 170.20 396.06 h 0 M 175.25 394.84 h 0 M 180.30 393.48 h 0 M 185.35 392.09 h 0 M 190.40 390.96 h 0 M 195.45 389.80 h 0 M 200.51 388.42 h 0 M 205.56 388.08 h 0 M 210.61 386.53 h 0 M 215.66 385.22 h 0 M 220.71 384.10 h 0 M 225.76 383.48 h 0 M 230.81 381.27 h 0 M 235.86 380.36 h 0 M 240.91 376.83 h 0 M 245.96 378.41 h 0 M 251.01 376.95 h 0 M 256.06 373.79 h 0 M 261.11 372.83 h 0 M 266.16 372.19 h 0 M 271.21 371.36 h 0 M 276.26 366.01 h 0 M 281.31 365.00 h 0 M 286.36 366.96 h 0 M 291.41 372.73 h 0 M 296.46 372.16 h 0 M 301.52 370.71 h 0 M 306.57 369.77 h 0 M 311.62 369.51 h 0 M 316.67 368.43 h 0 M 321.72 368.01 h 0 M 326.77 366.86 h 0 M 331.82 365.79 h 0 M 336.87 364.94 h 0 M 341.92 364.96 h 0 M 346.97 363.22 h 0 M 352.02 362.57 h 0 M 357.07 361.73 h 0 M 362.12 361.33 h 0 M 367.17 356.60 h 0 M 372.22 359.31 h 0 M 377.27 358.86 h 0 M 382.32 357.80 h 0 M 387.37 357.28 h 0 M 392.42 356.66 h 0 M 397.47 354.27 h 0 M 402.53 354.64 h 0 M 407.58 353.80 h 0 M 412.63 358.18 h 0 M 417.68 357.92 h 0 M 422.73 356.35 h 0 M 427.78 356.14 h 0 M 432.83 355.94 h 0 M 437.88 354.84 h 0 M 442.93 362.13 h 0 M 447.98 356.59 h 0 M 453.03 357.70 h 0 M 458.08 358.31 h 0 M 463.13 354.64 h 0 M 468.18 356.16 h 0 M 473.23 354.70 h 0 M 478.28 350.11 h 0 M 483.33 356.07 h 0 M 488.38 353.59 h 0 M 493.43 351.44 h 0 M 498.48 357.40 h 0 M 503.54 357.76 h 0 M 508.59 356.30 h 0 M 513.64 354.38 h 0 M 518.69 355.29 h 0 M 523.74 352.48 h 0 M 528.79 350.68 h 0 M 533.84 354.63 h 0 M 538.89 351.28 h 0 M 543.94 354.40 h 0 M 548.99 349.85 h 0 M 554.04 348.03 h 0 M 559.09 349.34 h 0 M 564.14 342.94 h 0 M 569.19 344.19 h 0 M 574.24 343.97 h 0 M 579.29 345.72 h 0 M 584.34 342.88 h 0 M 589.39 342.49 h 0 M 594.44 321.84 h 0 M 599.49 340.20 h 0 M 604.55 336.28 h 0 M 609.60 338.34 h 0 M 614.65 323.18 h 0 M 619.70 336.89 h 0 M 624.75 334.30 h 0 M 629.80 330.34 h 0 M 634.85 340.99 h 0 M 639.90 339.92 h 0 M 644.95 336.07 h 0 M 650.00 335.50 h 0" /><text  class="poloto_text poloto_legend_text" x="675" y="200" >naive</text><line  class="poloto_scatter poloto_legend_icon poloto2stroke poloto2legend" stroke="black" x1="685" x2="685" y1="181.25" y2="181.25" /><path  class="poloto_scatter poloto2stroke" d=" M 150.00 399.99 h 0 M 155.05 399.28 h 0 M 160.10 398.06 h 0 M 165.15 396.04 h 0 M 170.20 393.96 h 0 M 175.25 391.27 h 0 M 180.30 389.63 h 0 M 185.35 386.63 h 0 M 190.40 383.44 h 0 M 195.45 379.93 h 0 M 200.51 375.90 h 0 M 205.56 373.69 h 0 M 210.61 368.55 h 0 M 215.66 365.40 h 0 M 220.71 361.08 h 0 M 225.76 355.96 h 0 M 230.81 350.59 h 0 M 235.86 343.68 h 0 M 240.91 338.85 h 0 M 245.96 333.67 h 0 M 251.01 327.52 h 0 M 256.06 321.34 h 0 M 261.11 313.02 h 0 M 266.16 306.45 h 0 M 271.21 299.53 h 0 M 276.26 291.83 h 0 M 281.31 284.86 h 0 M 286.36 275.92 h 0 M 291.41 267.32 h 0 M 296.46 258.95 h 0 M 301.52 250.78 h 0" /><text  class="poloto_text poloto_legend_text" x="675" y="250" >nosort</text><line  class="poloto_scatter poloto_legend_icon poloto3stroke poloto3legend" stroke="black" x1="685" x2="685" y1="231.25" y2="231.25" /><path  class="poloto_scatter poloto3stroke" d=" M 150.00 399.99 h 0 M 155.05 399.25 h 0 M 160.10 397.87 h 0 M 165.15 396.12 h 0 M 170.20 393.61 h 0 M 175.25 391.11 h 0 M 180.30 389.37 h 0 M 185.35 387.40 h 0 M 190.40 385.69 h 0 M 195.45 383.95 h 0 M 200.51 379.60 h 0 M 205.56 378.63 h 0 M 210.61 375.04 h 0 M 215.66 373.10 h 0 M 220.71 368.63 h 0 M 225.76 365.70 h 0 M 230.81 364.60 h 0 M 235.86 360.69 h 0 M 240.91 359.51 h 0 M 245.96 356.64 h 0 M 251.01 351.76 h 0 M 256.06 352.42 h 0 M 261.11 351.18 h 0 M 266.16 348.25 h 0 M 271.21 346.26 h 0 M 276.26 342.12 h 0 M 281.31 342.52 h 0 M 286.36 339.92 h 0 M 291.41 335.27 h 0 M 296.46 332.40 h 0 M 301.52 330.80 h 0 M 306.57 330.05 h 0 M 311.62 319.36 h 0 M 316.67 322.22 h 0 M 321.72 319.83 h 0 M 326.77 315.71 h 0 M 331.82 313.98 h 0 M 336.87 307.08 h 0 M 341.92 309.65 h 0 M 346.97 305.38 h 0 M 352.02 302.30 h 0 M 357.07 300.28 h 0 M 362.12 297.30 h 0 M 367.17 289.59 h 0 M 372.22 288.07 h 0 M 377.27 286.69 h 0 M 382.32 283.91 h 0 M 387.37 277.23 h 0 M 392.42 275.20 h 0 M 397.47 276.49 h 0 M 402.53 267.80 h 0 M 407.58 271.96 h 0 M 412.63 266.07 h 0 M 417.68 265.93 h 0 M 422.73 258.42 h 0 M 427.78 255.69 h 0 M 432.83 255.08 h 0 M 437.88 246.38 h 0 M 442.93 246.27 h 0 M 447.98 234.41 h 0 M 453.03 232.35 h 0 M 458.08 232.74 h 0 M 463.13 227.13 h 0 M 468.18 230.29 h 0 M 473.23 222.15 h 0 M 478.28 218.47 h 0 M 483.33 216.14 h 0 M 488.38 210.71 h 0 M 493.43 208.48 h 0 M 498.48 204.84 h 0 M 503.54 207.27 h 0 M 508.59 199.97 h 0 M 513.64 195.29 h 0 M 518.69 194.39 h 0 M 523.74 181.86 h 0 M 528.79 182.42 h 0 M 533.84 185.42 h 0 M 538.89 183.27 h 0 M 543.94 177.64 h 0 M 548.99 175.62 h 0 M 554.04 171.30 h 0 M 559.09 153.85 h 0 M 564.14 175.35 h 0 M 569.19 170.85 h 0 M 574.24 168.19 h 0 M 579.29 158.72 h 0 M 584.34 164.12 h 0 M 589.39 100.00 h 0 M 594.44 153.24 h 0 M 599.49 148.43 h 0 M 604.55 147.71 h 0 M 609.60 141.04 h 0 M 614.65 140.87 h 0 M 619.70 137.25 h 0 M 624.75 139.52 h 0 M 629.80 137.13 h 0 M 634.85 133.10 h 0 M 639.90 129.54 h 0 M 644.95 122.64 h 0 M 650.00 114.76 h 0" /><text  class="poloto_text poloto_legend_text" x="675" y="300" >nosort_par</text><line  class="poloto_scatter poloto_legend_icon poloto4stroke poloto4legend" stroke="black" x1="685" x2="685" y1="281.25" y2="281.25" /><path  class="poloto_scatter poloto4stroke" d=" M 150.00 399.97 h 0 M 155.05 399.22 h 0 M 160.10 397.87 h 0 M 165.15 396.12 h 0 M 170.20 393.43 h 0 M 175.25 391.61 h 0 M 180.30 390.11 h 0 M 185.35 387.96 h 0 M 190.40 386.53 h 0 M 195.45 384.39 h 0 M 200.51 381.49 h 0 M 205.56 379.87 h 0 M 210.61 377.04 h 0 M 215.66 373.86 h 0 M 220.71 371.82 h 0 M 225.76 369.37 h 0 M 230.81 367.34 h 0 M 235.86 361.72 h 0 M 240.91 359.39 h 0 M 245.96 357.14 h 0 M 251.01 353.44 h 0 M 256.06 352.78 h 0 M 261.11 352.70 h 0 M 266.16 348.77 h 0 M 271.21 347.42 h 0 M 276.26 338.59 h 0 M 281.31 335.28 h 0 M 286.36 351.29 h 0 M 291.41 348.77 h 0 M 296.46 346.54 h 0 M 301.52 346.48 h 0 M 306.57 343.12 h 0 M 311.62 337.04 h 0 M 316.67 336.96 h 0 M 321.72 335.70 h 0 M 326.77 334.20 h 0 M 331.82 332.88 h 0 M 336.87 326.36 h 0 M 341.92 330.66 h 0 M 346.97 326.37 h 0 M 352.02 324.43 h 0 M 357.07 323.80 h 0 M 362.12 320.25 h 0 M 367.17 317.53 h 0 M 372.22 310.34 h 0 M 377.27 313.23 h 0 M 382.32 312.66 h 0 M 387.37 307.01 h 0 M 392.42 301.01 h 0 M 397.47 306.01 h 0 M 402.53 300.05 h 0 M 407.58 299.48 h 0 M 412.63 307.83 h 0 M 417.68 308.93 h 0 M 422.73 305.01 h 0 M 427.78 302.21 h 0 M 432.83 302.26 h 0 M 437.88 297.36 h 0 M 442.93 313.48 h 0 M 447.98 305.81 h 0 M 453.03 258.35 h 0 M 458.08 307.69 h 0 M 463.13 303.33 h 0 M 468.18 305.60 h 0 M 473.23 301.18 h 0 M 478.28 303.40 h 0 M 483.33 304.17 h 0 M 488.38 289.82 h 0 M 493.43 296.50 h 0 M 498.48 297.48 h 0 M 503.54 297.60 h 0 M 508.59 290.60 h 0 M 513.64 284.35 h 0 M 518.69 278.74 h 0 M 523.74 278.26 h 0 M 528.79 289.67 h 0 M 533.84 291.08 h 0 M 538.89 292.01 h 0 M 543.94 288.68 h 0 M 548.99 281.80 h 0 M 554.04 289.49 h 0 M 559.09 267.56 h 0 M 564.14 284.28 h 0 M 569.19 285.52 h 0 M 574.24 278.94 h 0 M 579.29 272.48 h 0 M 584.34 279.60 h 0 M 589.39 240.86 h 0 M 594.44 200.25 h 0 M 599.49 271.28 h 0 M 604.55 267.95 h 0 M 609.60 230.27 h 0 M 614.65 268.26 h 0 M 619.70 266.24 h 0 M 624.75 261.94 h 0 M 629.80 264.98 h 0 M 634.85 260.15 h 0 M 639.90 254.90 h 0 M 644.95 259.05 h 0 M 650.00 256.35 h 0" /><text  class="poloto_text poloto_legend_text" x="675" y="350" >sweep</text><line  class="poloto_scatter poloto_legend_icon poloto5stroke poloto5legend" stroke="black" x1="685" x2="685" y1="331.25" y2="331.25" /><path  class="poloto_scatter poloto5stroke" d=" M 150.00 399.91 h 0 M 155.05 399.26 h 0 M 160.10 397.94 h 0 M 165.15 396.19 h 0 M 170.20 394.00 h 0 M 175.25 392.27 h 0 M 180.30 389.33 h 0 M 185.35 387.60 h 0 M 190.40 385.34 h 0 M 195.45 380.68 h 0 M 200.51 378.37 h 0 M 205.56 376.51 h 0 M 210.61 371.95 h 0 M 215.66 370.32 h 0 M 220.71 366.05 h 0 M 225.76 364.74 h 0 M 230.81 360.55 h 0 M 235.86 357.14 h 0 M 240.91 352.44 h 0 M 245.96 350.71 h 0 M 251.01 347.25 h 0 M 256.06 342.17 h 0 M 261.11 337.94 h 0 M 266.16 336.05 h 0 M 271.21 332.12 h 0 M 276.26 327.82 h 0 M 281.31 324.95 h 0 M 286.36 319.48 h 0 M 291.41 317.12 h 0 M 296.46 311.25 h 0 M 301.52 308.61 h 0 M 306.57 302.74 h 0 M 311.62 299.74 h 0 M 316.67 294.25 h 0 M 321.72 291.83 h 0 M 326.77 287.26 h 0 M 331.82 281.22 h 0 M 336.87 276.98 h 0 M 341.92 274.31 h 0 M 346.97 266.67 h 0 M 352.02 264.14 h 0 M 357.07 258.93 h 0 M 362.12 254.51 h 0 M 367.17 249.69 h 0 M 372.22 244.38 h 0 M 377.27 240.01 h 0 M 382.32 235.75 h 0 M 387.37 231.67 h 0 M 392.42 226.30 h 0 M 397.47 219.24 h 0 M 402.53 217.24 h 0 M 407.58 210.80 h 0 M 412.63 205.62 h 0 M 417.68 203.27 h 0 M 422.73 195.66 h 0 M 427.78 191.87 h 0 M 432.83 185.04 h 0 M 437.88 181.23 h 0 M 442.93 176.05 h 0 M 447.98 171.08 h 0 M 453.03 117.95 h 0" /><text  class="poloto_labels poloto_text poloto_title" x="400" y="37.5" >Bench of space partitioning algs with abspiral(x,0.6)</text><text  class="poloto_labels poloto_text poloto_xname" x="400" y="481.25" >Number of Elements</text><text  class="poloto_labels poloto_text poloto_yname" transform="rotate(-90,37.5,250)" x="37.5" y="250" >Time in Seconds</text><text  class="poloto_tick_labels poloto_text" dominant-baseline="middle" text-anchor="start" x="150" y="70" ></text><line  class="poloto_axis_lines" stroke="black" x1="150" x2="144" y1="400" y2="400" /><text  class="poloto_tick_labels poloto_text" dominant-baseline="middle" text-anchor="end" x="135" y="400" >0e0</text><line  class="poloto_axis_lines" stroke="black" x1="150" x2="144" y1="333.76503809614223" y2="333.76503809614223" /><text  class="poloto_tick_labels poloto_text" dominant-baseline="middle" text-anchor="end" x="135" y="333.76503809614223" >0.002</text><line  class="poloto_axis_lines" stroke="black" x1="150" x2="144" y1="267.53007619228447" y2="267.53007619228447" /><text  class="poloto_tick_labels poloto_text" dominant-baseline="middle" text-anchor="end" x="135" y="267.53007619228447" >0.004</text><line  class="poloto_axis_lines" stroke="black" x1="150" x2="144" y1="201.2951142884267" y2="201.2951142884267" /><text  class="poloto_tick_labels poloto_text" dominant-baseline="middle" text-anchor="end" x="135" y="201.2951142884267" >0.006</text><line  class="poloto_axis_lines" stroke="black" x1="150" x2="144" y1="135.060152384569" y2="135.060152384569" /><text  class="poloto_tick_labels poloto_text" dominant-baseline="middle" text-anchor="end" x="135" y="135.060152384569" >0.008</text><text  class="poloto_tick_labels poloto_text" dominant-baseline="middle" text-anchor="start" x="440.00000000000006" y="70" ></text><line  class="poloto_axis_lines" stroke="black" x1="150" x2="150" y1="400" y2="405" /><text  class="poloto_tick_labels poloto_text" dominant-baseline="start" text-anchor="middle" x="150" y="430" >0</text><line  class="poloto_axis_lines" stroke="black" x1="251.010101010101" x2="251.010101010101" y1="400" y2="405" /><text  class="poloto_tick_labels poloto_text" dominant-baseline="start" text-anchor="middle" x="251.010101010101" y="430" >2000</text><line  class="poloto_axis_lines" stroke="black" x1="352.020202020202" x2="352.020202020202" y1="400" y2="405" /><text  class="poloto_tick_labels poloto_text" dominant-baseline="start" text-anchor="middle" x="352.020202020202" y="430" >4000</text><line  class="poloto_axis_lines" stroke="black" x1="453.030303030303" x2="453.030303030303" y1="400" y2="405" /><text  class="poloto_tick_labels poloto_text" dominant-baseline="start" text-anchor="middle" x="453.030303030303" y="430" >6000</text><line  class="poloto_axis_lines" stroke="black" x1="554.040404040404" x2="554.040404040404" y1="400" y2="405" /><text  class="poloto_tick_labels poloto_text" dominant-baseline="start" text-anchor="middle" x="554.040404040404" y="430" >8000</text><path  stroke="black" fill="none" class="poloto_axis_lines" style="stroke-dasharray:12.626262626262626;stroke-dashoffset:-0;" d=" M 150 400 L 650 400" /><path  stroke="black" fill="none" class="poloto_axis_lines" style="stroke-dasharray:8.279370237982219;stroke-dashoffset:-0;" d=" M 150 400 L 150 100" /></svg>