<svg  width="800" class="poloto_background poloto" height="500" viewBox="0 0 800 500" xmlns="http://www.w3.org/2000/svg" ><text  class="poloto_text" alignment-baseline="middle" text-anchor="start" font-size="large" x="675" y="100" >broccoli</text><line  class="poloto0stroke poloto0legend" stroke="black" x1="680" x2="730" y1="81.25" y2="81.25" /><path  class="poloto0stroke" fill="none" stroke="black" d=" M 150 400 L 155.05050505050505 399.59413466092207 L 160.1010101010101 399.1170467861598 L 165.15151515151516 398.50598394509996 L 170.2020202020202 397.8401600334287 L 175.25252525252526 397.1434018249762 L 180.3030303030303 396.8649563274017 L 185.35353535353534 396.1826709506576 L 190.40404040404042 395.6327401722844 L 195.45454545454544 394.9320046971029 L 200.50505050505052 394.329264654939 L 205.55555555555554 393.5909661050946 L 210.6060606060606 392.8633104264047 L 215.65656565656565 392.30443079789126 L 220.7070707070707 391.5371865846302 L 225.75757575757575 390.8100096510096 L 230.8080808080808 390.33851941090296 L 235.85858585858585 389.4715489170664 L 240.9090909090909 388.8407470485366 L 245.95959595959596 388.18273036414826 L 251.010101010101 387.1078372040895 L 256.06060606060606 387.5288014261202 L 261.1111111111111 387.1508874337767 L 266.16161616161617 386.32203241275977 L 271.2121212121212 385.67944605021813 L 276.26262626262627 385.01756257873205 L 281.3131313131313 384.42167227371255 L 286.3636363636364 383.7108463255334 L 291.4141414141414 383.1224686354464 L 296.4646464646464 382.43233920487563 L 301.5151515151515 381.45348967101376 L 306.5656565656566 381.0015543256581 L 311.6161616161616 380.4899231528235 L 316.66666666666663 379.7062543010334 L 321.7171717171717 379.1629891270857 L 326.7676767676768 378.30099021666035 L 331.8181818181818 377.63361959015003 L 336.86868686868684 376.7828896021236 L 341.9191919191919 375.97064335235467 L 346.969696969697 375.2082970694173 L 352.020202020202 374.70546744054786 L 357.07070707070704 373.4271812791528 L 362.1212121212121 372.76021574462413 L 367.1717171717172 372.09284511811376 L 372.22222222222223 371.15126404656445 L 377.27272727272725 370.5337197337981 L 382.32323232323233 370.0325472993991 L 387.37373737373736 368.9640987845031 L 392.4242424242424 368.62113318221355 L 397.47474747474746 368.00576163553063 L 402.52525252525254 367.4148797404662 L 407.57575757575756 366.4660438397908 L 412.62626262626264 366.1086790588805 L 417.67676767676767 365.34478606110406 L 422.72727272727275 364.41171192116957 L 427.77777777777777 363.9126385997664 L 432.8282828282828 363.1381763839231 L 437.8787878787879 362.27684035128595 L 442.9292929292929 361.60302507961285 L 447.979797979798 360.93436552406996 L 453.030303030303 360.2163583998523 L 458.0808080808081 359.67062584747083 L 463.1313131313131 358.5010148167916 L 468.1818181818182 357.76905043247865 L 473.2323232323232 357.139279707175 L 478.2828282828283 356.3715567488447 L 483.3333333333333 355.8500192357314 L 488.3838383838384 354.8322808716303 L 493.4343434343434 354.1348597853896 L 498.4848484848485 353.18204661798524 L 503.5353535353535 352.1364673867811 L 508.5858585858586 350.8568186432659 L 513.6363636363636 350.36868280536754 L 518.6868686868687 349.68076296742396 L 523.7373737373737 348.73689865015984 L 528.7878787878788 348.0047869596717 L 533.8383838383838 347.1231226748641 L 538.8888888888889 346.16566936294254 L 543.939393939394 345.9371974852872 L 548.989898989899 345.3884083297714 L 554.040404040404 344.6441438798335 L 559.090909090909 343.04903896223783 L 564.1414141414141 346.7009431768885 L 569.1919191919192 345.9717407833595 L 574.2424242424242 345.49601549071735 L 579.2929292929293 344.7308703904522 L 584.3434343434344 344.0042826815322 L 589.3939393939394 343.66835094910596 L 594.4444444444445 342.83747046818075 L 599.4949494949494 342.57854303881345 L 604.5454545454545 341.5581899901035 L 609.5959595959596 341.07425237819683 L 614.6464646464647 339.78138290546207 L 619.6969696969697 339.5924995623779 L 624.7474747474747 338.7842674058818 L 629.7979797979798 338.3092786441154 L 634.8484848484848 337.18032411777716 L 639.8989898989898 336.2678360158197 L 644.9494949494949 335.9877333237748 L 650 335.10864689703226" /><text  class="poloto_text" alignment-baseline="middle" text-anchor="start" font-size="large" x="675" y="150" >naive</text><line  class="poloto1stroke poloto1legend" stroke="black" x1="680" x2="730" y1="131.25" y2="131.25" /><path  class="poloto1stroke" fill="none" stroke="black" d=" M 150 400 L 155.05050505050505 399.50457250643177 L 160.1010101010101 398.2475720873457 L 165.15151515151516 396.299889839532 L 170.2020202020202 393.7051652173785 L 175.25252525252526 390.45769010659814 L 180.3030303030303 386.58073888286435 L 185.35353535353534 382.0839601006494 L 190.40404040404042 376.96945287294915 L 195.45454545454544 371.2671940064063 L 200.50505050505052 364.92279069584737 L 205.55555555555554 357.97387966902266 L 210.6060606060606 350.41324292334997 L 215.65656565656565 342.2488718188311 L 220.7070707070707 333.5193973998987 L 225.75757575757575 324.17112656571123 L 230.8080808080808 314.21473901396683 L 235.85858585858585 303.6608776158201 L 240.9090909090909 292.4912395790088 L 245.95959595959596 280.786069942445 L 251.010101010101 268.4803330298008" /><text  class="poloto_text" alignment-baseline="middle" text-anchor="start" font-size="large" x="675" y="200" >nosort</text><line  class="poloto2stroke poloto2legend" stroke="black" x1="680" x2="730" y1="181.25" y2="181.25" /><path  class="poloto2stroke" fill="none" stroke="black" d=" M 150 400 L 155.05050505050505 399.53256067970995 L 160.1010101010101 398.60880365535365 L 165.15151515151516 397.48316351795626 L 170.2020202020202 396.09123064243414 L 175.25252525252526 394.82796971090426 L 180.3030303030303 393.74438548651176 L 185.35353535353534 392.139779320619 L 190.40404040404042 390.77200465782124 L 195.45454545454544 388.9951975731799 L 200.50505050505052 387.26486558679784 L 205.55555555555554 385.8549981844514 L 210.6060606060606 383.8756451089808 L 215.65656565656565 382.3088966301012 L 220.7070707070707 380.52535028794676 L 225.75757575757575 378.474222278635 L 230.8080808080808 376.7687113827655 L 235.85858585858585 374.62282867628954 L 240.9090909090909 372.6981630183428 L 245.95959595959596 370.76038711080787 L 251.010101010101 367.6685409740719 L 256.06060606060606 367.46271742084565 L 261.1111111111111 365.88444223376064 L 266.16161616161617 363.54312105940636 L 271.2121212121212 361.12409587766126 L 276.26262626262627 358.9609415221491 L 281.3131313131313 356.8820831253657 L 286.3636363636364 354.64093015011235 L 291.4141414141414 352.10118755783304 L 296.4646464646464 350.004615593488 L 301.5151515151515 347.0710131154053 L 306.5656565656566 344.7770508763613 L 311.6161616161616 342.9357973400924 L 316.66666666666663 340.4237851352848 L 321.7171717171717 338.19868853312266 L 326.7676767676768 335.4953256067971 L 331.8181818181818 333.371943918575 L 336.86868686868684 329.98283392038934 L 341.9191919191919 327.09647989798555 L 346.969696969697 324.59507373778865 L 352.020202020202 321.98267237461727 L 357.07070707070704 320.11950704479506 L 362.1212121212121 318.40324279813973 L 367.1717171717172 315.7359330581818 L 372.22222222222223 312.9491211836346 L 377.27272727272725 310.1347998808784 L 382.32323232323233 307.8226453292035 L 387.37373737373736 304.389048866123 L 392.4242424242424 305.82719905409795 L 397.47474747474746 301.01415391383915 L 402.52525252525254 299.83971860592385 L 407.57575757575756 297.00794152141253 L 412.62626262626264 295.1100119342553 L 417.67676767676767 292.3816806112421 L 422.72727272727275 290.9096868295267 L 427.77777777777777 286.96202864172164 L 432.8282828282828 285.1214011566972 L 437.8787878787879 282.044469770195 L 442.9292929292929 279.74634613170304 L 447.979797979798 277.53259210502733 L 453.030303030303 274.77148515804356 L 458.0808080808081 271.960699203491 L 463.1313131313131 267.8042345124129 L 468.1818181818182 265.80562115454165 L 473.2323232323232 263.2990224516707 L 478.2828282828283 260.7306288083249 L 483.3333333333333 258.28980231265786 L 488.3838383838384 254.4290547681904 L 493.4343434343434 251.9733503488333 L 498.4848484848485 248.57728013387185 L 503.5353535353535 244.9552422462326 L 508.5858585858586 241.35198589592474 L 513.6363636363636 238.81183821166377 L 518.6868686868687 235.90924368344983 L 523.7373737373737 231.6906157864591 L 528.7878787878788 228.95282004169258 L 533.8383838383838 226.1762459463182 L 538.8888888888889 222.74504320858384 L 543.939393939394 220.62891634948784 L 548.989898989899 218.14916419703772 L 554.040404040404 215.05820189735263 L 559.090909090909 210.78024643832083 L 564.1414141414141 216.80956184023714 L 569.1919191919192 213.64122697205528 L 574.2424242424242 211.03460737625852 L 579.2929292929293 207.08271413591794 L 584.3434343434344 205.0133569874316 L 589.3939393939394 201.85352905086458 L 594.4444444444445 199.5147489080316 L 599.4949494949494 196.0873393043073 L 604.5454545454545 193.30700890146667 L 609.5959595959596 190.51003290083423 L 614.6464646464647 186.57806282068248 L 619.6969696969697 184.2510303453176 L 624.7474747474747 181.1125986306909 L 629.7979797979798 178.10769996383635 L 634.8484848484848 174.67178342849724 L 639.8989898989898 171.4361664648163 L 644.9494949494949 169.7554766594593 L 650 165.99574432459997" /><text  class="poloto_text" alignment-baseline="middle" text-anchor="start" font-size="large" x="675" y="250" >sweep</text><line  class="poloto3stroke poloto3legend" stroke="black" x1="680" x2="730" y1="231.25" y2="231.25" /><path  class="poloto3stroke" fill="none" stroke="black" d=" M 150 400 L 155.05050505050505 399.68918397043666 L 160.1010101010101 399.11115453915386 L 165.15151515151516 398.34206899870344 L 170.2020202020202 397.46257747997925 L 175.25252525252526 396.440714542974 L 180.3030303030303 395.3177259167293 L 185.35353535353534 394.1011242161777 L 190.40404040404042 392.7963597697997 L 195.45454545454544 391.4540322487589 L 200.50505050505052 390.0048340976478 L 205.55555555555554 388.4944670573063 L 210.6060606060606 386.8810593474484 L 215.65656565656565 385.25424677565195 L 220.7070707070707 383.56191978245823 L 225.75757575757575 381.77332820380497 L 230.8080808080808 379.9678332415534 L 235.85858585858585 378.132729738097 L 240.9090909090909 376.17178993451995 L 245.95959595959596 374.210665998224 L 251.010101010101 372.1697021149975 L 256.06060606060606 370.01682236520196 L 261.1111111111111 367.88552297006567 L 266.16161616161617 365.7269351059831 L 271.2121212121212 363.4553634055616 L 276.26262626262627 361.1593757066093 L 281.3131313131313 358.78564717372234 L 286.3636363636364 356.4478981741154 L 291.4141414141414 354.037748189423 L 296.4646464646464 351.4855582253436 L 301.5151515151515 349.02108908856513 L 306.5656565656566 346.406404479679 L 311.6161616161616 343.8683190818701 L 316.66666666666663 341.27020641768814 L 321.7171717171717 338.60201284067927 L 326.7676767676768 335.88483996043357 L 331.8181818181818 333.1373220081073 L 336.86868686868684 330.43303841818704 L 341.9191919191919 327.54859937606017 L 346.969696969697 324.81437580604097 L 352.020202020202 321.81573765163023 L 357.07070707070704 318.8370226574083 L 362.1212121212121 315.86243223609057 L 367.1717171717172 312.89281339818405 L 372.22222222222223 309.7973950867007 L 377.27272727272725 306.827297503725 L 382.32323232323233 303.65572189968987 L 387.37373737373736 300.56925243834684 L 392.4242424242424 297.47007781939726 L 397.47474747474746 294.253021433785 L 402.52525252525254 291.02561678936866 L 407.57575757575756 287.86652538367736 L 412.62626262626264 284.58620099583885 L 417.67676767676767 281.2184503930497 L 422.72727272727275 277.8653935812316 L 427.77777777777777 274.53354885863496 L 432.8282828282828 271.2687652722746 L 437.8787878787879 267.77223224586186 L 442.9292929292929 264.28240165041836 L 447.979797979798 260.8401877760917 L 453.030303030303 257.3558075091287 L 458.0808080808081 253.70047842590586 L 463.1313131313131 250.27962394697568 L 468.1818181818182 246.70439259648984 L 473.2323232323232 243.0336331914202 L 478.2828282828283 239.31879241343736 L 483.3333333333333 235.80671858554646 L 488.3838383838384 232.02728404976102 L 493.4343434343434 228.22446465867074 L 498.4848484848485 224.51175982022755 L 503.5353535353535 220.81223888446016 L 508.5858585858586 216.74563096022268 L 513.6363636363636 213.16292382134804 L 518.6868686868687 209.1534338665244 L 523.7373737373737 205.30388159136825 L 528.7878787878788 201.45731226625887 L 533.8383838383838 197.4172562800919 L 538.8888888888889 193.5850124805157 L 543.939393939394 189.61032360957088 L 548.989898989899 185.63290957438582 L 554.040404040404 181.4791332210042 L 559.090909090909 177.36888584237897 L 564.1414141414141 173.04169329430374 L 569.1919191919192 168.99342498887225 L 574.2424242424242 164.8394276762279 L 579.2929292929293 160.7783437335585 L 584.3434343434344 156.54991997592035 L 589.3939393939394 152.36981264373094 L 594.4444444444445 148.23643819560738 L 599.4949494949494 143.88633953729658 L 604.5454545454545 139.5690901560439 L 609.5959595959596 135.26811810714514 L 614.6464646464647 131.09736471707765 L 619.6969696969697 126.74991756991949 L 624.7474747474747 122.14693103542248 L 629.7979797979798 117.95831677161823 L 634.8484848484848 113.55231541983858 L 639.8989898989898 109.01237592830512 L 644.9494949494949 104.66603357746061 L 650 100" /><text  class="poloto_text" alignment-baseline="start" text-anchor="middle" font-size="x-large" x="400" y="37.5" >Complexity of space partitioning algs with abspiral(x,0.6)</text><text  class="poloto_text" alignment-baseline="start" text-anchor="middle" font-size="x-large" x="400" y="481.25" >Number of Elements</text><text  class="poloto_text" alignment-baseline="start" text-anchor="middle" font-size="x-large" transform="rotate(-90,37.5,250)" x="37.5" y="250" >Number of Comparisons</text><line  class="poloto_axis_lines" stroke="black" x1="150" x2="150" y1="400" y2="405" /><text  class="poloto_text" alignment-baseline="start" text-anchor="middle" x="150" y="430" > 0</text><line  class="poloto_axis_lines" stroke="black" x1="251.010101010101" x2="251.010101010101" y1="400" y2="405" /><text  class="poloto_text" alignment-baseline="start" text-anchor="middle" x="251.010101010101" y="430" > 2000</text><line  class="poloto_axis_lines" stroke="black" x1="352.020202020202" x2="352.020202020202" y1="400" y2="405" /><text  class="poloto_text" alignment-baseline="start" text-anchor="middle" x="352.020202020202" y="430" > 4000</text><line  class="poloto_axis_lines" stroke="black" x1="453.030303030303" x2="453.030303030303" y1="400" y2="405" /><text  class="poloto_text" alignment-baseline="start" text-anchor="middle" x="453.030303030303" y="430" > 6000</text><line  class="poloto_axis_lines" stroke="black" x1="554.040404040404" x2="554.040404040404" y1="400" y2="405" /><text  class="poloto_text" alignment-baseline="start" text-anchor="middle" x="554.040404040404" y="430" > 8000</text><line  class="poloto_axis_lines" stroke="black" x1="150" x2="144" y1="400" y2="400" /><text  class="poloto_text" alignment-baseline="middle" text-anchor="end" x="135" y="400" > 0</text><line  class="poloto_axis_lines" stroke="black" x1="150" x2="144" y1="326.34691242574235" y2="326.34691242574235" /><text  class="poloto_text" alignment-baseline="middle" text-anchor="end" x="135" y="326.34691242574235" > 2e6</text><line  class="poloto_axis_lines" stroke="black" x1="150" x2="144" y1="252.6938248514847" y2="252.6938248514847" /><text  class="poloto_text" alignment-baseline="middle" text-anchor="end" x="135" y="252.6938248514847" > 4e6</text><line  class="poloto_axis_lines" stroke="black" x1="150" x2="144" y1="179.04073727722704" y2="179.04073727722704" /><text  class="poloto_text" alignment-baseline="middle" text-anchor="end" x="135" y="179.04073727722704" > 6e6</text><line  class="poloto_axis_lines" stroke="black" x1="150" x2="144" y1="105.38764970296938" y2="105.38764970296938" /><text  class="poloto_text" alignment-baseline="middle" text-anchor="end" x="135" y="105.38764970296938" > 8e6</text><path  stroke="black" fill="none" class="poloto_axis_lines" style="stroke-dasharray:8.417508417508417;stroke-dashoffset:-0;" d=" M 150 400 L 650 400" /><path  stroke="black" fill="none" class="poloto_axis_lines" style="stroke-dasharray:9.206635946782207;stroke-dashoffset:-0;" d=" M 150 400 L 150 100" /></svg>