<svg class="poloto" width="800" height="500" viewBox="0 0 800 500" xmlns="http://www.w3.org/2000/svg"><circle  r="1e5" class="poloto_background" /><text  class="poloto_text poloto_legend_text" x="675" y="100" >brocc</text><line  class="poloto_scatter poloto_legend_icon poloto0stroke poloto0legend" stroke="black" x1="685" x2="685" y1="81.25" y2="81.25" /><path  class="poloto_scatter poloto0stroke" d=" M 150.00 187.66 h 0 M 155.05 188.24 h 0 M 160.10 188.89 h 0 M 165.15 190.59 h 0 M 170.20 194.31 h 0 M 175.25 197.99 h 0 M 180.30 201.13 h 0 M 185.35 204.97 h 0 M 190.40 210.06 h 0 M 195.45 213.07 h 0 M 200.51 217.69 h 0 M 205.56 222.72 h 0 M 210.61 226.27 h 0 M 215.66 234.30 h 0 M 220.71 241.86 h 0 M 225.76 248.55 h 0 M 230.81 255.23 h 0 M 235.86 261.30 h 0 M 240.91 267.23 h 0 M 245.96 272.90 h 0 M 251.01 277.92 h 0 M 256.06 280.86 h 0 M 261.11 287.71 h 0 M 266.16 292.10 h 0 M 271.21 295.54 h 0 M 276.26 299.55 h 0 M 281.31 302.87 h 0 M 286.36 306.57 h 0 M 291.41 309.47 h 0 M 296.46 312.41 h 0 M 301.52 312.65 h 0 M 306.57 317.71 h 0 M 311.62 320.33 h 0 M 316.67 322.97 h 0 M 321.72 325.11 h 0 M 326.77 327.53 h 0 M 331.82 329.95 h 0 M 336.87 331.99 h 0 M 341.92 334.18 h 0 M 346.97 336.16 h 0 M 352.02 338.18 h 0 M 357.07 339.96 h 0 M 362.12 341.80 h 0 M 367.17 343.64 h 0 M 372.22 345.64 h 0 M 377.27 347.26 h 0 M 382.32 348.94 h 0 M 387.37 350.18 h 0 M 392.42 351.42 h 0 M 397.47 353.16 h 0 M 402.53 354.44 h 0 M 407.58 355.86 h 0 M 412.63 357.19 h 0 M 417.68 351.61 h 0 M 422.73 359.20 h 0 M 427.78 360.38 h 0 M 432.83 361.59 h 0 M 437.88 362.46 h 0 M 442.93 363.50 h 0 M 447.98 364.37 h 0 M 453.03 365.01 h 0 M 458.08 365.90 h 0 M 463.13 366.77 h 0 M 468.18 367.65 h 0 M 473.23 368.32 h 0 M 478.28 369.05 h 0 M 483.33 369.50 h 0 M 488.38 370.29 h 0 M 493.43 371.31 h 0 M 498.48 371.81 h 0 M 503.54 372.26 h 0 M 508.59 372.83 h 0 M 513.64 373.37 h 0 M 518.69 373.49 h 0 M 523.74 374.25 h 0 M 528.79 374.76 h 0 M 533.84 375.18 h 0 M 538.89 375.55 h 0 M 543.94 376.20 h 0 M 548.99 376.61 h 0 M 554.04 377.04 h 0 M 559.09 377.24 h 0 M 564.14 377.66 h 0 M 569.19 378.04 h 0 M 574.24 378.02 h 0 M 579.29 378.59 h 0 M 584.34 378.85 h 0 M 589.39 379.29 h 0 M 594.44 379.58 h 0 M 599.49 379.40 h 0 M 604.55 379.96 h 0 M 609.60 380.37 h 0 M 614.65 380.64 h 0 M 619.70 380.84 h 0 M 624.75 377.17 h 0 M 629.80 381.28 h 0 M 634.85 381.39 h 0 M 639.90 381.78 h 0 M 644.95 381.93 h 0 M 650.00 382.35 h 0" /><text  class="poloto_text poloto_legend_text" x="675" y="150" >brocc_par</text><line  class="poloto_scatter poloto_legend_icon poloto1stroke poloto1legend" stroke="black" x1="685" x2="685" y1="131.25" y2="131.25" /><path  class="poloto_scatter poloto1stroke" d=" M 150.00 187.72 h 0 M 155.05 187.96 h 0 M 160.10 188.80 h 0 M 165.15 191.34 h 0 M 170.20 194.32 h 0 M 175.25 197.55 h 0 M 180.30 199.74 h 0 M 185.35 203.99 h 0 M 190.40 209.41 h 0 M 195.45 213.99 h 0 M 200.51 218.29 h 0 M 205.56 219.64 h 0 M 210.61 223.60 h 0 M 215.66 234.55 h 0 M 220.71 240.68 h 0 M 225.76 248.48 h 0 M 230.81 255.30 h 0 M 235.86 260.89 h 0 M 240.91 267.32 h 0 M 245.96 272.98 h 0 M 251.01 278.35 h 0 M 256.06 283.29 h 0 M 261.11 287.60 h 0 M 266.16 292.52 h 0 M 271.21 283.14 h 0 M 276.26 299.32 h 0 M 281.31 303.58 h 0 M 286.36 306.95 h 0 M 291.41 309.70 h 0 M 296.46 313.08 h 0 M 301.52 315.47 h 0 M 306.57 318.44 h 0 M 311.62 320.79 h 0 M 316.67 323.39 h 0 M 321.72 325.70 h 0 M 326.77 328.13 h 0 M 331.82 330.51 h 0 M 336.87 332.56 h 0 M 341.92 334.74 h 0 M 346.97 336.80 h 0 M 352.02 338.71 h 0 M 357.07 340.66 h 0 M 362.12 339.30 h 0 M 367.17 338.03 h 0 M 372.22 355.70 h 0 M 377.27 343.86 h 0 M 382.32 358.38 h 0 M 387.37 359.65 h 0 M 392.42 348.89 h 0 M 397.47 351.14 h 0 M 402.53 352.02 h 0 M 407.58 354.50 h 0 M 412.63 356.26 h 0 M 417.68 366.24 h 0 M 422.73 367.31 h 0 M 427.78 358.75 h 0 M 432.83 359.98 h 0 M 437.88 361.28 h 0 M 442.93 363.31 h 0 M 447.98 364.02 h 0 M 453.03 365.24 h 0 M 458.08 373.12 h 0 M 463.13 374.16 h 0 M 468.18 369.08 h 0 M 473.23 370.92 h 0 M 478.28 375.75 h 0 M 483.33 371.73 h 0 M 488.38 371.59 h 0 M 493.43 377.96 h 0 M 498.48 378.01 h 0 M 503.54 378.86 h 0 M 508.59 375.36 h 0 M 513.64 375.47 h 0 M 518.69 376.25 h 0 M 523.74 380.01 h 0 M 528.79 377.60 h 0 M 533.84 378.56 h 0 M 538.89 379.12 h 0 M 543.94 379.55 h 0 M 548.99 379.32 h 0 M 554.04 380.20 h 0 M 559.09 380.21 h 0 M 564.14 380.75 h 0 M 569.19 383.63 h 0 M 574.24 383.87 h 0 M 579.29 381.55 h 0 M 584.34 382.61 h 0 M 589.39 382.20 h 0 M 594.44 382.56 h 0 M 599.49 384.88 h 0 M 604.55 383.43 h 0 M 609.60 385.21 h 0 M 614.65 384.23 h 0 M 619.70 384.20 h 0 M 624.75 378.56 h 0 M 629.80 385.92 h 0 M 634.85 385.30 h 0 M 639.90 385.15 h 0 M 644.95 385.33 h 0 M 650.00 386.36 h 0" /><text  class="poloto_text poloto_legend_text" x="675" y="200" >naive</text><line  class="poloto_scatter poloto_legend_icon poloto2stroke poloto2legend" stroke="black" x1="685" x2="685" y1="181.25" y2="181.25" /><path  class="poloto_scatter poloto2stroke" d=" M 150.00 108.63 h 0 M 155.05 108.56 h 0 M 160.10 110.80 h 0 M 165.15 116.11 h 0 M 170.20 123.40 h 0 M 175.25 132.44 h 0 M 180.30 142.43 h 0 M 185.35 148.81 h 0 M 190.40 163.42 h 0 M 195.45 173.59 h 0 M 200.51 183.45 h 0 M 205.56 193.32 h 0 M 210.61 202.29 h 0 M 215.66 210.16 h 0 M 220.71 217.92 h 0 M 225.76 225.36 h 0 M 230.81 231.88 h 0 M 235.86 237.73 h 0 M 240.91 243.14 h 0 M 245.96 247.92 h 0 M 251.01 252.72 h 0 M 256.06 256.87 h 0 M 261.11 260.77 h 0 M 266.16 264.40 h 0 M 271.21 267.14 h 0 M 276.26 270.82 h 0 M 281.31 273.65 h 0 M 286.36 275.93 h 0 M 291.41 278.11 h 0 M 296.46 280.94 h 0 M 301.52 282.67 h 0 M 306.57 284.64 h 0 M 311.62 287.00 h 0 M 316.67 288.56 h 0 M 321.72 290.44 h 0 M 326.77 291.49 h 0 M 331.82 293.27 h 0 M 336.87 293.97 h 0 M 341.92 295.68 h 0 M 346.97 297.27 h 0 M 352.02 297.35 h 0 M 357.07 299.50 h 0 M 362.12 300.65 h 0 M 367.17 300.25 h 0 M 372.22 301.69 h 0 M 377.27 302.01 h 0 M 382.32 304.43 h 0 M 387.37 304.23 h 0 M 392.42 306.26 h 0 M 397.47 306.06 h 0 M 402.53 306.04 h 0 M 407.58 308.50 h 0 M 412.63 308.98 h 0 M 417.68 309.63 h 0 M 422.73 310.28 h 0 M 427.78 309.73 h 0 M 432.83 311.64 h 0 M 437.88 312.21 h 0 M 442.93 312.72 h 0 M 447.98 313.19 h 0 M 453.03 311.69 h 0 M 458.08 314.06 h 0 M 463.13 314.62 h 0 M 468.18 315.06 h 0 M 473.23 315.24 h 0 M 478.28 313.27 h 0 M 483.33 316.12 h 0 M 488.38 316.43 h 0 M 493.43 316.37 h 0 M 498.48 317.27 h 0 M 503.54 314.80 h 0 M 508.59 317.79 h 0 M 513.64 318.27 h 0 M 518.69 318.29 h 0 M 523.74 318.11 h 0 M 528.79 318.82 h 0 M 533.84 318.58 h 0 M 538.89 319.36 h 0 M 543.94 319.84 h 0 M 548.99 318.01 h 0 M 554.04 320.22 h 0 M 559.09 319.86 h 0 M 564.14 318.72 h 0 M 569.19 321.11 h 0 M 574.24 319.21 h 0 M 579.29 319.79 h 0 M 584.34 320.02 h 0 M 589.39 321.22 h 0 M 594.44 320.42 h 0 M 599.49 322.29 h 0 M 604.55 322.48 h 0 M 609.60 322.53 h 0 M 614.65 322.87 h 0 M 619.70 323.06 h 0 M 624.75 322.04 h 0 M 629.80 323.43 h 0 M 634.85 323.63 h 0 M 639.90 323.76 h 0 M 644.95 323.85 h 0 M 650.00 323.50 h 0" /><text  class="poloto_text poloto_legend_text" x="675" y="250" >nosort</text><line  class="poloto_scatter poloto_legend_icon poloto3stroke poloto3legend" stroke="black" x1="685" x2="685" y1="231.25" y2="231.25" /><path  class="poloto_scatter poloto3stroke" d=" M 150.00 114.10 h 0 M 155.05 113.75 h 0 M 160.10 114.17 h 0 M 165.15 115.33 h 0 M 170.20 115.65 h 0 M 175.25 115.72 h 0 M 180.30 116.58 h 0 M 185.35 119.62 h 0 M 190.40 122.82 h 0 M 195.45 128.57 h 0 M 200.51 134.00 h 0 M 205.56 141.06 h 0 M 210.61 146.58 h 0 M 215.66 152.00 h 0 M 220.71 158.40 h 0 M 225.76 164.29 h 0 M 230.81 169.52 h 0 M 235.86 175.75 h 0 M 240.91 180.71 h 0 M 245.96 185.20 h 0 M 251.01 189.47 h 0 M 256.06 196.58 h 0 M 261.11 202.98 h 0 M 266.16 207.38 h 0 M 271.21 212.95 h 0 M 276.26 218.94 h 0 M 281.31 222.26 h 0 M 286.36 227.66 h 0 M 291.41 230.58 h 0 M 296.46 235.40 h 0 M 301.52 237.56 h 0 M 306.57 242.07 h 0 M 311.62 245.64 h 0 M 316.67 248.64 h 0 M 321.72 252.25 h 0 M 326.77 255.10 h 0 M 331.82 257.71 h 0 M 336.87 261.49 h 0 M 341.92 264.81 h 0 M 346.97 266.86 h 0 M 352.02 269.67 h 0 M 357.07 273.46 h 0 M 362.12 275.12 h 0 M 367.17 278.87 h 0 M 372.22 283.17 h 0 M 377.27 285.41 h 0 M 382.32 285.92 h 0 M 387.37 290.22 h 0 M 392.42 292.21 h 0 M 397.47 294.85 h 0 M 402.53 296.61 h 0 M 407.58 298.93 h 0 M 412.63 303.19 h 0 M 417.68 304.82 h 0 M 422.73 304.69 h 0 M 427.78 309.33 h 0 M 432.83 311.29 h 0 M 437.88 314.22 h 0 M 442.93 315.22 h 0 M 447.98 316.41 h 0 M 453.03 317.84 h 0 M 458.08 320.64 h 0 M 463.13 322.16 h 0 M 468.18 322.89 h 0 M 473.23 324.22 h 0 M 478.28 323.84 h 0 M 483.33 326.61 h 0 M 488.38 328.35 h 0 M 493.43 326.93 h 0 M 498.48 332.49 h 0 M 503.54 333.82 h 0 M 508.59 333.95 h 0 M 513.64 336.28 h 0 M 518.69 336.59 h 0 M 523.74 336.97 h 0 M 528.79 339.41 h 0 M 533.84 339.84 h 0 M 538.89 340.50 h 0 M 543.94 341.64 h 0 M 548.99 342.43 h 0 M 554.04 343.61 h 0 M 559.09 344.87 h 0 M 564.14 343.96 h 0 M 569.19 345.40 h 0 M 574.24 346.77 h 0 M 579.29 346.99 h 0 M 584.34 349.28 h 0 M 589.39 348.85 h 0 M 594.44 349.37 h 0 M 599.49 349.24 h 0 M 604.55 350.03 h 0 M 609.60 350.18 h 0 M 614.65 351.71 h 0 M 619.70 351.81 h 0 M 624.75 352.66 h 0 M 629.80 353.39 h 0 M 634.85 353.31 h 0 M 639.90 354.18 h 0 M 644.95 354.55 h 0 M 650.00 355.52 h 0" /><text  class="poloto_text poloto_legend_text" x="675" y="300" >nosort_par</text><line  class="poloto_scatter poloto_legend_icon poloto4stroke poloto4legend" stroke="black" x1="685" x2="685" y1="281.25" y2="281.25" /><path  class="poloto_scatter poloto4stroke" d=" M 150.00 113.87 h 0 M 155.05 114.33 h 0 M 160.10 115.57 h 0 M 165.15 117.36 h 0 M 170.20 117.67 h 0 M 175.25 118.19 h 0 M 180.30 119.23 h 0 M 185.35 121.83 h 0 M 190.40 126.84 h 0 M 195.45 132.57 h 0 M 200.51 139.66 h 0 M 205.56 146.97 h 0 M 210.61 152.62 h 0 M 215.66 158.27 h 0 M 220.71 164.70 h 0 M 225.76 170.24 h 0 M 230.81 175.71 h 0 M 235.86 179.66 h 0 M 240.91 184.88 h 0 M 245.96 188.96 h 0 M 251.01 193.72 h 0 M 256.06 199.12 h 0 M 261.11 205.86 h 0 M 266.16 210.09 h 0 M 271.21 215.11 h 0 M 276.26 219.62 h 0 M 281.31 223.46 h 0 M 286.36 227.43 h 0 M 291.41 230.56 h 0 M 296.46 235.05 h 0 M 301.52 236.93 h 0 M 306.57 240.96 h 0 M 311.62 245.22 h 0 M 316.67 247.35 h 0 M 321.72 251.06 h 0 M 326.77 253.96 h 0 M 331.82 256.36 h 0 M 336.87 259.79 h 0 M 341.92 263.27 h 0 M 346.97 265.80 h 0 M 352.02 268.67 h 0 M 357.07 271.91 h 0 M 362.12 293.79 h 0 M 367.17 292.52 h 0 M 372.22 298.65 h 0 M 377.27 299.43 h 0 M 382.32 303.65 h 0 M 387.37 306.73 h 0 M 392.42 307.97 h 0 M 397.47 310.02 h 0 M 402.53 312.33 h 0 M 407.58 314.51 h 0 M 412.63 316.66 h 0 M 417.68 319.16 h 0 M 422.73 317.45 h 0 M 427.78 323.37 h 0 M 432.83 323.78 h 0 M 437.88 326.80 h 0 M 442.93 327.59 h 0 M 447.98 329.12 h 0 M 453.03 330.58 h 0 M 458.08 330.71 h 0 M 463.13 331.05 h 0 M 468.18 335.79 h 0 M 473.23 333.69 h 0 M 478.28 339.22 h 0 M 483.33 340.13 h 0 M 488.38 341.84 h 0 M 493.43 344.89 h 0 M 498.48 345.60 h 0 M 503.54 345.49 h 0 M 508.59 346.64 h 0 M 513.64 347.50 h 0 M 518.69 348.11 h 0 M 523.74 350.56 h 0 M 528.79 352.22 h 0 M 533.84 353.14 h 0 M 538.89 353.70 h 0 M 543.94 354.92 h 0 M 548.99 355.86 h 0 M 554.04 357.23 h 0 M 559.09 357.33 h 0 M 564.14 353.91 h 0 M 569.19 355.48 h 0 M 574.24 359.44 h 0 M 579.29 359.95 h 0 M 584.34 358.56 h 0 M 589.39 360.71 h 0 M 594.44 360.81 h 0 M 599.49 361.27 h 0 M 604.55 359.23 h 0 M 609.60 360.06 h 0 M 614.65 360.03 h 0 M 619.70 361.86 h 0 M 624.75 361.09 h 0 M 629.80 362.76 h 0 M 634.85 365.99 h 0 M 639.90 366.32 h 0 M 644.95 366.63 h 0 M 650.00 367.56 h 0" /><text  class="poloto_text poloto_legend_text" x="675" y="350" >sweep</text><line  class="poloto_scatter poloto_legend_icon poloto5stroke poloto5legend" stroke="black" x1="685" x2="685" y1="331.25" y2="331.25" /><path  class="poloto_scatter poloto5stroke" d=" M 150.00 159.16 h 0 M 155.05 158.47 h 0 M 160.10 145.11 h 0 M 165.15 156.93 h 0 M 170.20 154.20 h 0 M 175.25 151.74 h 0 M 180.30 147.60 h 0 M 185.35 143.75 h 0 M 190.40 140.26 h 0 M 195.45 136.57 h 0 M 200.51 133.97 h 0 M 205.56 132.55 h 0 M 210.61 131.17 h 0 M 215.66 131.21 h 0 M 220.71 130.53 h 0 M 225.76 131.91 h 0 M 230.81 134.26 h 0 M 235.86 136.51 h 0 M 240.91 139.33 h 0 M 245.96 142.18 h 0 M 251.01 146.17 h 0 M 256.06 149.73 h 0 M 261.11 152.91 h 0 M 266.16 157.28 h 0 M 271.21 161.25 h 0 M 276.26 165.37 h 0 M 281.31 169.28 h 0 M 286.36 174.10 h 0 M 291.41 177.79 h 0 M 296.46 182.25 h 0 M 301.52 186.56 h 0 M 306.57 189.90 h 0 M 311.62 194.44 h 0 M 316.67 198.00 h 0 M 321.72 201.89 h 0 M 326.77 205.63 h 0 M 331.82 209.36 h 0 M 336.87 212.90 h 0 M 341.92 215.89 h 0 M 346.97 219.51 h 0 M 352.02 223.07 h 0 M 357.07 226.28 h 0 M 362.12 229.03 h 0 M 367.17 232.15 h 0 M 372.22 235.52 h 0 M 377.27 238.18 h 0 M 382.32 241.53 h 0 M 387.37 243.81 h 0 M 392.42 246.77 h 0 M 397.47 249.74 h 0 M 402.53 252.09 h 0 M 407.58 254.74 h 0 M 412.63 257.23 h 0 M 417.68 260.16 h 0 M 422.73 262.64 h 0 M 427.78 264.90 h 0 M 432.83 266.80 h 0 M 437.88 268.97 h 0 M 442.93 271.07 h 0 M 447.98 273.65 h 0 M 453.03 275.36 h 0 M 458.08 277.20 h 0 M 463.13 279.02 h 0 M 468.18 281.28 h 0 M 473.23 283.55 h 0 M 478.28 285.13 h 0 M 483.33 286.97 h 0 M 488.38 288.70 h 0 M 493.43 290.26 h 0 M 498.48 291.51 h 0 M 503.54 293.80 h 0 M 508.59 295.44 h 0 M 513.64 297.14 h 0 M 518.69 298.52 h 0 M 523.74 300.09 h 0 M 528.79 301.54 h 0 M 533.84 302.51 h 0 M 538.89 303.64 h 0 M 543.94 305.63 h 0 M 548.99 306.77 h 0 M 554.04 308.18 h 0 M 559.09 309.37 h 0 M 564.14 311.01 h 0 M 569.19 311.11 h 0 M 574.24 312.83 h 0 M 579.29 314.55 h 0 M 584.34 315.77 h 0 M 589.39 316.65 h 0 M 594.44 317.24 h 0 M 599.49 318.46 h 0 M 604.55 319.92 h 0 M 609.60 321.01 h 0 M 614.65 321.56 h 0 M 619.70 311.54 h 0 M 624.75 323.84 h 0 M 629.80 324.91 h 0 M 634.85 326.02 h 0 M 639.90 327.07 h 0 M 644.95 327.80 h 0 M 650.00 328.45 h 0" /><text  class="poloto_text poloto_legend_text" x="675" y="400" >sweep_par</text><line  class="poloto_scatter poloto_legend_icon poloto6stroke poloto6legend" stroke="black" x1="685" x2="685" y1="381.25" y2="381.25" /><path  class="poloto_scatter poloto6stroke" d=" M 150.00 113.26 h 0 M 155.05 100.00 h 0 M 160.10 105.61 h 0 M 165.15 125.69 h 0 M 170.20 127.01 h 0 M 175.25 117.79 h 0 M 180.30 123.24 h 0 M 185.35 127.02 h 0 M 190.40 135.65 h 0 M 195.45 136.37 h 0 M 200.51 150.91 h 0 M 205.56 155.21 h 0 M 210.61 151.94 h 0 M 215.66 157.02 h 0 M 220.71 162.41 h 0 M 225.76 168.05 h 0 M 230.81 174.38 h 0 M 235.86 180.42 h 0 M 240.91 185.89 h 0 M 245.96 192.61 h 0 M 251.01 202.41 h 0 M 256.06 207.13 h 0 M 261.11 214.69 h 0 M 266.16 218.89 h 0 M 271.21 221.44 h 0 M 276.26 229.25 h 0 M 281.31 231.72 h 0 M 286.36 238.35 h 0 M 291.41 242.93 h 0 M 296.46 246.89 h 0 M 301.52 255.15 h 0 M 306.57 258.51 h 0 M 311.62 262.48 h 0 M 316.67 267.95 h 0 M 321.72 270.80 h 0 M 326.77 275.45 h 0 M 331.82 278.55 h 0 M 336.87 282.02 h 0 M 341.92 284.45 h 0 M 346.97 287.72 h 0 M 352.02 290.70 h 0 M 357.07 292.38 h 0 M 362.12 288.92 h 0 M 367.17 292.62 h 0 M 372.22 298.19 h 0 M 377.27 303.55 h 0 M 382.32 301.61 h 0 M 387.37 307.51 h 0 M 392.42 310.15 h 0 M 397.47 311.25 h 0 M 402.53 308.38 h 0 M 407.58 313.10 h 0 M 412.63 314.19 h 0 M 417.68 316.49 h 0 M 422.73 315.63 h 0 M 427.78 319.88 h 0 M 432.83 320.99 h 0 M 437.88 323.11 h 0 M 442.93 324.23 h 0 M 447.98 323.22 h 0 M 453.03 326.41 h 0 M 458.08 326.05 h 0 M 463.13 328.10 h 0 M 468.18 332.23 h 0 M 473.23 332.80 h 0 M 478.28 332.44 h 0 M 483.33 335.51 h 0 M 488.38 336.54 h 0 M 493.43 336.75 h 0 M 498.48 334.28 h 0 M 503.54 336.34 h 0 M 508.59 339.77 h 0 M 513.64 340.22 h 0 M 518.69 342.36 h 0 M 523.74 341.78 h 0 M 528.79 344.46 h 0 M 533.84 345.11 h 0 M 538.89 346.01 h 0 M 543.94 346.74 h 0 M 548.99 347.37 h 0 M 554.04 339.11 h 0 M 559.09 348.61 h 0 M 564.14 345.78 h 0 M 569.19 344.20 h 0 M 574.24 350.29 h 0 M 579.29 351.47 h 0 M 584.34 352.18 h 0 M 589.39 352.76 h 0 M 594.44 353.10 h 0 M 599.49 354.41 h 0 M 604.55 353.79 h 0 M 609.60 355.21 h 0 M 614.65 351.91 h 0 M 619.70 352.83 h 0 M 624.75 343.65 h 0 M 629.80 351.38 h 0 M 634.85 358.15 h 0 M 639.90 359.02 h 0 M 644.95 359.00 h 0 M 650.00 359.67 h 0" /><text  class="poloto_labels poloto_text poloto_title" x="400" y="37.5" >Bench of space partitioning algs with abspiral(10_000,grow)</text><text  class="poloto_labels poloto_text poloto_xname" x="400" y="481.25" >Grow</text><text  class="poloto_labels poloto_text poloto_yname" transform="rotate(-90,37.5,250)" x="37.5" y="250" >Time in Seconds</text><text  class="poloto_tick_labels poloto_text" dominant-baseline="middle" text-anchor="start" x="150" y="70" ></text><line  class="poloto_axis_lines" stroke="black" x1="150" x2="144" y1="400" y2="400" /><text  class="poloto_tick_labels poloto_text" dominant-baseline="middle" text-anchor="end" x="135" y="400" >0e0</text><line  class="poloto_axis_lines" stroke="black" x1="150" x2="144" y1="334.8232526319337" y2="334.8232526319337" /><text  class="poloto_tick_labels poloto_text" dominant-baseline="middle" text-anchor="end" x="135" y="334.8232526319337" >0.05</text><line  class="poloto_axis_lines" stroke="black" x1="150" x2="144" y1="269.6465052638674" y2="269.6465052638674" /><text  class="poloto_tick_labels poloto_text" dominant-baseline="middle" text-anchor="end" x="135" y="269.6465052638674" >0.10</text><line  class="poloto_axis_lines" stroke="black" x1="150" x2="144" y1="204.4697578958012" y2="204.4697578958012" /><text  class="poloto_tick_labels poloto_text" dominant-baseline="middle" text-anchor="end" x="135" y="204.4697578958012" >0.15</text><line  class="poloto_axis_lines" stroke="black" x1="150" x2="144" y1="139.2930105277349" y2="139.2930105277349" /><text  class="poloto_tick_labels poloto_text" dominant-baseline="middle" text-anchor="end" x="135" y="139.2930105277349" >0.20</text><text  class="poloto_tick_labels poloto_text" dominant-baseline="middle" text-anchor="start" x="440.00000000000006" y="70" ></text><line  class="poloto_axis_lines" stroke="black" x1="150" x2="150" y1="400" y2="405" /><text  class="poloto_tick_labels poloto_text" dominant-baseline="start" text-anchor="middle" x="150" y="430" >0.02</text><line  class="poloto_axis_lines" stroke="black" x1="206.11672278338943" x2="206.11672278338943" y1="400" y2="405" /><text  class="poloto_tick_labels poloto_text" dominant-baseline="start" text-anchor="middle" x="206.11672278338943" y="430" >0.04</text><line  class="poloto_axis_lines" stroke="black" x1="262.23344556677887" x2="262.23344556677887" y1="400" y2="405" /><text  class="poloto_tick_labels poloto_text" dominant-baseline="start" text-anchor="middle" x="262.23344556677887" y="430" >0.06</text><line  class="poloto_axis_lines" stroke="black" x1="318.35016835016836" x2="318.35016835016836" y1="400" y2="405" /><text  class="poloto_tick_labels poloto_text" dominant-baseline="start" text-anchor="middle" x="318.35016835016836" y="430" >0.08</text><line  class="poloto_axis_lines" stroke="black" x1="374.4668911335578" x2="374.4668911335578" y1="400" y2="405" /><text  class="poloto_tick_labels poloto_text" dominant-baseline="start" text-anchor="middle" x="374.4668911335578" y="430" >0.10</text><line  class="poloto_axis_lines" stroke="black" x1="430.58361391694723" x2="430.58361391694723" y1="400" y2="405" /><text  class="poloto_tick_labels poloto_text" dominant-baseline="start" text-anchor="middle" x="430.58361391694723" y="430" >0.12</text><line  class="poloto_axis_lines" stroke="black" x1="486.7003367003366" x2="486.7003367003366" y1="400" y2="405" /><text  class="poloto_tick_labels poloto_text" dominant-baseline="start" text-anchor="middle" x="486.7003367003366" y="430" >0.14</text><line  class="poloto_axis_lines" stroke="black" x1="542.8170594837261" x2="542.8170594837261" y1="400" y2="405" /><text  class="poloto_tick_labels poloto_text" dominant-baseline="start" text-anchor="middle" x="542.8170594837261" y="430" >0.16</text><line  class="poloto_axis_lines" stroke="black" x1="598.9337822671155" x2="598.9337822671155" y1="400" y2="405" /><text  class="poloto_tick_labels poloto_text" dominant-baseline="start" text-anchor="middle" x="598.9337822671155" y="430" >0.18</text><path  stroke="black" fill="none" class="poloto_axis_lines" style="stroke-dasharray:7.01459034792368;stroke-dashoffset:-0;" d=" M 150 400 L 650 400" /><path  stroke="black" fill="none" class="poloto_axis_lines" style="stroke-dasharray:6.517674736806628;stroke-dashoffset:-0;" d=" M 150 400 L 150 100" /></svg>