<svg class="poloto" height="500" viewBox="0 0 800 500" width="800" xmlns="http://www.w3.org/2000/svg">
<rect class="poloto_background" fill="white" height="500" width="800" x="0" y="0"/>
<style>
.poloto {
font-family: "Arial";
stroke-width:2;
}
.poloto_text{fill: var(--poloto_fg_color,black);  }
.poloto_axis_lines{stroke: var(--poloto_fg_color,black);stoke-width:3;fill:none}
.poloto_background{fill: var(--poloto_bg_color,aliceblue); }
.poloto0stroke{stroke:  var(--poloto_color0,blue); }
.poloto1stroke{stroke:  var(--poloto_color1,red); }
.poloto2stroke{stroke:  var(--poloto_color2,green); }
.poloto3stroke{stroke:  var(--poloto_color3,gold); }
.poloto4stroke{stroke:  var(--poloto_color4,aqua); }
.poloto5stroke{stroke:  var(--poloto_color5,brown); }
.poloto6stroke{stroke:  var(--poloto_color6,lime); }
.poloto7stroke{stroke:  var(--poloto_color7,chocolate); }
.poloto0fill{fill:var(--poloto_color0,blue);}
.poloto1fill{fill:var(--poloto_color1,red);}
.poloto2fill{fill:var(--poloto_color2,green);}
.poloto3fill{fill:var(--poloto_color3,gold);}
.poloto4fill{fill:var(--poloto_color4,aqua);}
.poloto5fill{fill:var(--poloto_color5,brown);}
.poloto6fill{fill:var(--poloto_color6,lime);}
.poloto7fill{fill:var(--poloto_color7,chocolate);}
</style>
<line class="poloto_axis_lines" stroke="black" x1="150" x2="150" y1="400" y2="405"/>
<text alignment-baseline="start" class="poloto_text" text-anchor="middle" x="150" y="440">
0.000
</text>
<line class="poloto_axis_lines" stroke="black" x1="251.0101" x2="251.0101" y1="400" y2="405"/>
<text alignment-baseline="start" class="poloto_text" text-anchor="middle" x="251.0101" y="440">
0.001
</text>
<line class="poloto_axis_lines" stroke="black" x1="352.0202" x2="352.0202" y1="400" y2="405"/>
<text alignment-baseline="start" class="poloto_text" text-anchor="middle" x="352.0202" y="440">
0.002
</text>
<line class="poloto_axis_lines" stroke="black" x1="453.0303" x2="453.0303" y1="400" y2="405"/>
<text alignment-baseline="start" class="poloto_text" text-anchor="middle" x="453.0303" y="440">
0.003
</text>
<line class="poloto_axis_lines" stroke="black" x1="554.0404" x2="554.0404" y1="400" y2="405"/>
<text alignment-baseline="start" class="poloto_text" text-anchor="middle" x="554.0404" y="440">
0.004
</text>
<line class="poloto_axis_lines" stroke="black" x1="150" x2="144" y1="380.48337" y2="380.48337"/>
<text alignment-baseline="middle" class="poloto_text" text-anchor="end" x="120" y="380.48337">
0.008
</text>
<line class="poloto_axis_lines" stroke="black" x1="150" x2="144" y1="343.94742" y2="343.94742"/>
<text alignment-baseline="middle" class="poloto_text" text-anchor="end" x="120" y="343.94742">
0.010
</text>
<line class="poloto_axis_lines" stroke="black" x1="150" x2="144" y1="307.41144" y2="307.41144"/>
<text alignment-baseline="middle" class="poloto_text" text-anchor="end" x="120" y="307.41144">
0.012
</text>
<line class="poloto_axis_lines" stroke="black" x1="150" x2="144" y1="270.8755" y2="270.8755"/>
<text alignment-baseline="middle" class="poloto_text" text-anchor="end" x="120" y="270.8755">
0.014
</text>
<line class="poloto_axis_lines" stroke="black" x1="150" x2="144" y1="234.33954" y2="234.33954"/>
<text alignment-baseline="middle" class="poloto_text" text-anchor="end" x="120" y="234.33954">
0.016
</text>
<line class="poloto_axis_lines" stroke="black" x1="150" x2="144" y1="197.80353" y2="197.80353"/>
<text alignment-baseline="middle" class="poloto_text" text-anchor="end" x="120" y="197.80353">
0.018
</text>
<line class="poloto_axis_lines" stroke="black" x1="150" x2="144" y1="161.26758" y2="161.26758"/>
<text alignment-baseline="middle" class="poloto_text" text-anchor="end" x="120" y="161.26758">
0.020
</text>
<line class="poloto_axis_lines" stroke="black" x1="150" x2="144" y1="124.7316" y2="124.7316"/>
<text alignment-baseline="middle" class="poloto_text" text-anchor="end" x="120" y="124.7316">
0.022
</text>
<text alignment-baseline="middle" class="poloto_text" font-size="large" text-anchor="start" x="675" y="100">
brocc
</text>
<line class="poloto0stroke" x1="680" x2="730" y1="81.25" y2="81.25"/>
<polyline class="poloto0stroke" fill="none" points="150,244.2946 155.0505,248.4348 160.10101,249.26108 165.15152,250.26047 170.20203,250.04991 175.25253,250.46825 180.30304,246.23895 185.35353,240.41101 190.40404,236.46806 195.45454,227.83786 200.50505,219.74104 205.55556,207.04825 210.60606,200.91765 215.65656,196.52887 220.70706,198.63599 225.75757,194.34196 230.80807,195.07375 235.85858,175.84103 240.90909,199.6758 245.9596,202.99872 251.0101,203.2513 256.0606,211.43834 261.1111,219.03955 266.16162,222.001 271.21213,231.47385 276.26263,236.01656 281.3131,231.13907 286.36365,254.18948 291.41412,261.8017 296.46466,266.81873 301.51514,269.85968 306.56567,274.19073 311.61615,265.0706 316.6667,283.2407 321.71716,283.91833 326.7677,289.31665 331.81818,295.99576 336.86868,300.74945 341.9192,302.44543 346.9697,307.00067 352.0202,309.93994 357.0707,313.9236 362.12122,314.75446 367.17172,320.52945 372.22223,324.302 377.2727,327.13058 382.32324,327.80072 387.37372,329.88483 392.42426,332.92853 397.47473,335.1219 402.52527,338.52142 407.57578,341.9593 412.62625,342.15085 417.67676,344.1531 422.7273,349.4838 427.77777,350.86456 432.82828,349.86523 437.87878,354.08728 442.9293,351.12305 447.9798,357.18384 453.0303,359.782 458.0808,358.38754 463.13132,360.9062 468.18182,364.40588 473.23233,353.40344 478.28284,364.37228 483.33334,357.51254 488.38382,369.2021 493.43436,370.89175 498.48483,369.30923 503.53537,372.23102 508.58588,372.01364 513.63635,374.64783 518.6869,375.74554 523.73737,378.68558 528.78784,378.5595 533.8384,379.34998 538.8889,381.501 543.9394,381.7101 548.98987,382.4351 554.0404,381.527 559.09094,385.98434 564.1414,385.25833 569.1919,385.8076 574.24243,386.3027 579.29297,387.90198 584.34344,391.571 589.3939,390.5542 594.44446,392.504 599.49493,391.33844 604.5454,392.8247 609.59595,394.114 614.6465,393.79364 619.69696,395.17032 624.74744,395.54306 629.798,396.85248 634.8485,397.46017 639.89905,398.78232 644.94946,398.7368 650,400 " stroke="black"/>
<text alignment-baseline="middle" class="poloto_text" font-size="large" text-anchor="start" x="675" y="150">
brocc_par
</text>
<line class="poloto1stroke" x1="680" x2="730" y1="131.25" y2="131.25"/>
<polyline class="poloto1stroke" fill="none" points="150,224.97395 155.0505,241.65004 160.10101,240.1306 165.15152,241.83337 170.20203,242.11107 175.25253,242.28304 180.30304,208.11972 185.35353,234.4203 190.40404,229.195 195.45454,216.88072 200.50505,208.76956 205.55556,197.43956 210.60606,172.10446 215.65656,185.00424 220.70706,182.11346 225.75757,163.8578 230.80807,164.00159 235.85858,159.1018 240.90909,167.88602 245.9596,178.6316 251.0101,178.94734 256.0606,174.68709 261.1111,196.35571 266.16162,188.75049 271.21213,207.93172 276.26263,216.57298 281.3131,221.58496 286.36365,233.30211 291.41412,241.62091 296.46466,246.6293 301.51514,251.96072 306.56567,257.01538 311.61615,247.59808 316.6667,267.1694 321.71716,268.61523 326.7677,272.7741 331.81818,279.12476 336.86868,285.94424 341.9192,286.752 346.9697,293.40097 352.0202,291.03574 357.0707,301.96912 362.12122,303.03973 367.17172,308.85428 372.22223,312.71622 377.2727,315.53058 382.32324,317.2044 387.37372,319.79694 392.42426,323.03412 397.47473,325.69177 402.52527,327.1802 407.57578,323.3647 412.62625,331.8452 417.67676,334.88187 422.7273,336.36316 427.77777,340.10333 432.82828,337.22415 437.87878,341.91626 442.9293,338.9407 447.9798,344.86414 453.0303,348.40836 458.0808,347.31522 463.13132,350.82565 468.18182,352.7256 473.23233,351.91058 478.28284,353.32465 483.33334,358.23483 488.38382,359.47284 493.43436,361.0143 498.48483,353.97668 503.53537,364.8739 508.58588,363.10272 513.63635,366.2736 518.6869,368.52625 523.73737,371.0572 528.78784,370.24417 533.8384,371.91016 538.8889,372.55487 543.9394,375.02307 548.98987,375.5046 554.0404,373.13892 559.09094,378.2599 564.1414,380.82556 569.1919,380.64063 574.24243,378.19843 579.29297,382.9323 584.34344,386.30386 589.3939,385.95038 594.44446,387.78665 599.49493,387.86508 604.5454,388.59943 609.59595,390.36197 614.6465,389.12396 619.69696,391.805 624.74744,389.843 629.798,393.0426 634.8485,394.304 639.89905,392.53192 644.94946,392.90445 650,393.56305 " stroke="black"/>
<text alignment-baseline="middle" class="poloto_text" font-size="large" text-anchor="start" x="675" y="200">
naive
</text>
<line class="poloto2stroke" x1="680" x2="730" y1="181.25" y2="181.25"/>
<polyline class="poloto2stroke" fill="none" points="150,235.181 155.0505,236.07843 160.10101,236.73912 165.15152,237.52327 170.20203,235.1444 175.25253,236.75984 180.30304,235.70242 185.35353,230.97063 190.40404,222.44829 195.45454,216.64267 200.50505,206.57574 205.55556,195.33592 210.60606,183.95335 215.65656,187.08508 220.70706,180.88646 225.75757,173.76364 230.80807,170.98528 235.85858,164.074 240.90909,166.30293 245.9596,161.50032 251.0101,160.18678 256.0606,155.57419 261.1111,157.9085 266.16162,165.56726 271.21213,167.05397 276.26263,167.39243 281.3131,166.39912 286.36365,165.24303 291.41412,165.24582 296.46466,164.59982 301.51514,165.58707 306.56567,163.35747 311.61615,162.8639 316.6667,161.50026 321.71716,160.04068 326.7677,158.08696 331.81818,163.97516 336.86868,163.7565 341.9192,161.671 346.9697,160.68385 352.0202,153.13155 357.0707,155.00665 362.12122,153.93759 367.17172,150.10146 372.22223,155.06372 377.2727,151.52742 382.32324,142.38437 387.37372,151.27055 392.42426,151.74951 397.47473,141.61472 402.52527,143.54318 407.57578,145.51736 412.62625,151.28857 417.67676,148.38562 422.7273,146.61078 427.77777,148.64215 432.82828,150.45357 437.87878,141.67804 442.9293,146.19559 447.9798,142.44217 453.0303,139.98077 458.0808,143.50946 463.13132,141.07263 468.18182,146.89038 473.23233,147.18962 478.28284,145.4931 483.33334,143.7536 488.38382,142.41827 493.43436,142.98315 498.48483,140.65305 503.53537,146.38135 508.58588,152.42314 513.63635,149.58789 518.6869,147.05705 523.73737,151.99777 528.78784,150.85565 533.8384,152.70032 538.8889,151.72708 543.9394,152.49837 548.98987,150.76665 554.0404,148.33054 559.09094,151.374 564.1414,153.5715 569.1919,156.26918 574.24243,158.27785 579.29297,155.64445 584.34344,155.81604 589.3939,153.30878 594.44446,157.0229 599.49493,156.60683 604.5454,157.58485 609.59595,156.87437 614.6465,161.44507 619.69696,167.84311 624.74744,164.19653 629.798,168.54665 634.8485,163.21837 639.89905,164.53249 644.94946,166.95358 650,165.34314 " stroke="black"/>
<text alignment-baseline="middle" class="poloto_text" font-size="large" text-anchor="start" x="675" y="250">
nosort
</text>
<line class="poloto3stroke" x1="680" x2="730" y1="231.25" y2="231.25"/>
<polyline class="poloto3stroke" fill="none" points="150,259.29526 155.0505,257.5007 160.10101,250.52217 165.15152,259.28653 170.20203,259.2279 175.25253,257.39468 180.30304,256.2044 185.35353,252.38374 190.40404,239.62473 195.45454,226.75018 200.50505,213.20242 205.55556,225.7039 210.60606,206.95396 215.65656,171.33539 220.70706,186.1879 225.75757,180.0752 230.80807,181.10712 235.85858,143.1305 240.90909,173.07668 245.9596,179.81584 251.0101,152.23671 256.0606,161.88666 261.1111,153.08488 266.16162,175.58319 271.21213,156.46811 276.26263,164.31764 281.3131,185.80598 286.36365,164.85791 291.41412,172.61697 296.46466,182.82092 301.51514,187.51848 306.56567,198.40637 311.61615,198.63951 316.6667,196.19936 321.71716,186.99913 326.7677,198.77202 331.81818,195.0512 336.86868,204.27516 341.9192,197.5182 346.9697,207.36626 352.0202,190.73528 357.0707,213.63348 362.12122,207.2325 367.17172,209.64691 372.22223,214.3799 377.2727,212.4324 382.32324,206.58041 387.37372,194.74829 392.42426,226.466 397.47473,226.1096 402.52527,217.62132 407.57578,222.44199 412.62625,241.44972 417.67676,236.89064 422.7273,237.17932 427.77777,222.35046 432.82828,244.55612 437.87878,255.88684 442.9293,221.97401 447.9798,240.5064 453.0303,240.36665 458.0808,242.00514 463.13132,260.57565 468.18182,235.7549 473.23233,243.89671 478.28284,249.98044 483.33334,240.47989 488.38382,268.6488 493.43436,255.94281 498.48483,258.09155 503.53537,253.11497 508.58588,240.12114 513.63635,256.84705 518.6869,278.69574 523.73737,277.65186 528.78784,274.85995 533.8384,227.55315 538.8889,266.7229 543.9394,279.8036 548.98987,275.005 554.0404,280.2566 559.09094,254.47952 564.1414,283.2248 569.1919,267.55627 574.24243,284.19305 579.29297,280.62616 584.34344,255.25203 589.3939,273.87454 594.44446,290.66693 599.49493,291.58508 604.5454,272.87573 609.59595,275.80914 614.6465,287.33002 619.69696,298.566 624.74744,293.72147 629.798,283.73822 634.8485,290.52863 639.89905,283.23056 644.94946,298.69104 650,288.83997 " stroke="black"/>
<text alignment-baseline="middle" class="poloto_text" font-size="large" text-anchor="start" x="675" y="300">
nosort_par
</text>
<line class="poloto4stroke" x1="680" x2="730" y1="281.25" y2="281.25"/>
<polyline class="poloto4stroke" fill="none" points="150,229.72879 155.0505,231.14043 160.10101,231.16826 165.15152,229.3333 170.20203,230.6221 175.25253,223.62871 180.30304,226.18729 185.35353,223.44579 190.40404,209.55354 195.45454,195.33797 200.50505,179.4045 205.55556,189.94823 210.60606,172.22018 215.65656,133.54886 220.70706,148.48297 225.75757,142.60321 230.80807,140.20248 235.85858,102.44235 240.90909,130.10379 245.9596,137.43268 251.0101,113.63037 256.0606,118.68689 261.1111,109.451965 266.16162,131.36816 271.21213,116.92493 276.26263,123.11423 281.3131,138.96259 286.36365,127.1799 291.41412,129.379 296.46466,136.06387 301.51514,138.4025 306.56567,149.81009 311.61615,151.64389 316.6667,149.56236 321.71716,147.9759 326.7677,153.8851 331.81818,148.89687 336.86868,159.38069 341.9192,155.28387 346.9697,165.98953 352.0202,153.65236 357.0707,168.2215 362.12122,163.2444 367.17172,169.0085 372.22223,172.22223 377.2727,173.7165 382.32324,168.67639 387.37372,157.58296 392.42426,186.96848 397.47473,187.40062 402.52527,179.57149 407.57578,162.26575 412.62625,199.76717 417.67676,199.56012 422.7273,196.54997 427.77777,186.62582 432.82828,203.78787 437.87878,214.65785 442.9293,191.31192 447.9798,205.5182 453.0303,203.57666 458.0808,204.36911 463.13132,223.81442 468.18182,202.6362 473.23233,213.69524 478.28284,212.54936 483.33334,204.43166 488.38382,230.67442 493.43436,221.1222 498.48483,222.43147 503.53537,216.74275 508.58588,206.73506 513.63635,227.8037 518.6869,242.60135 523.73737,244.79921 528.78784,242.58281 533.8384,199.30647 538.8889,237.5334 543.9394,247.69757 548.98987,245.27538 554.0404,251.35556 559.09094,229.42827 564.1414,252.39848 569.1919,245.65543 574.24243,255.39787 579.29297,250.64307 584.34344,222.53491 589.3939,249.38933 594.44446,257.4708 599.49493,257.89978 604.5454,250.3959 609.59595,251.89964 614.6465,263.12366 619.69696,275.6112 624.74744,269.4245 629.798,261.91107 634.8485,272.5039 639.89905,264.6034 644.94946,273.98734 650,267.66183 " stroke="black"/>
<text alignment-baseline="middle" class="poloto_text" font-size="large" text-anchor="start" x="675" y="350">
sweep
</text>
<line class="poloto5stroke" x1="680" x2="730" y1="331.25" y2="331.25"/>
<polyline class="poloto5stroke" fill="none" points="150,234.72685 155.0505,269.9619 160.10101,270.51556 165.15152,267.73224 170.20203,270.78424 175.25253,270.84564 180.30304,266.4193 185.35353,262.5188 190.40404,254.25821 195.45454,241.72534 200.50505,229.47063 205.55556,216.5691 210.60606,199.31004 215.65656,192.32939 220.70706,175.74243 225.75757,167.82181 230.80807,163.41393 235.85858,153.02364 240.90909,139.70499 245.9596,135.35919 251.0101,130.48462 256.0606,124.795746 261.1111,123.22003 266.16162,112.09372 271.21213,106.612 276.26263,103.83481 281.3131,108.45813 286.36365,103.86737 291.41412,104.95178 296.46466,100.16495 301.51514,104.832275 306.56567,107.2016 311.61615,100 316.6667,103.26706 321.71716,103.575806 326.7677,108.33386 331.81818,109.96872 336.86868,112.1384 341.9192,111.7439 346.9697,110.1131 352.0202,112.47424 357.0707,122.34726 362.12122,118.799255 367.17172,120.98282 372.22223,119.73343 377.2727,122.53131 382.32324,120.812195 387.37372,122.87091 392.42426,127.141266 397.47473,126.08554 402.52527,133.78134 407.57578,132.05466 412.62625,136.6319 417.67676,139.9874 422.7273,139.39822 427.77777,142.2677 432.82828,143.07455 437.87878,145.40219 442.9293,150.94835 447.9798,151.30655 453.0303,155.4146 458.0808,153.36955 463.13132,158.23865 468.18182,164.11797 473.23233,161.36877 478.28284,162.44688 483.33334,167.99905 488.38382,168.57431 493.43436,170.67897 498.48483,172.3981 503.53537,170.34721 508.58588,181.10655 513.63635,177.6942 518.6869,177.71333 523.73737,184.50714 528.78784,185.43166 533.8384,186.28035 538.8889,188.32536 543.9394,189.2381 548.98987,191.06696 554.0404,195.23412 559.09094,193.19319 564.1414,194.51135 569.1919,199.71986 574.24243,200.44348 579.29297,204.45517 584.34344,206.05841 589.3939,204.16179 594.44446,209.51178 599.49493,210.21767 604.5454,213.51643 609.59595,211.30602 614.6465,216.09198 619.69696,216.75385 624.74744,220.6286 629.798,220.26758 634.8485,222.24913 639.89905,223.6431 644.94946,226.25584 650,225.33365 " stroke="black"/>
<text alignment-baseline="start" class="poloto_text" font-size="x-large" text-anchor="middle" x="400" y="37.5">
Bench of space partitioning algs with abspiral(3000,grow)
</text>
<text alignment-baseline="start" class="poloto_text" font-size="large" text-anchor="middle" x="400" y="481.25">
Grow
</text>
<text alignment-baseline="start" class="poloto_text" font-size="large" text-anchor="middle" transform="rotate(-90,37.5,250)" x="37.5" y="250">
Time in Seconds
</text>
<path class="poloto_axis_lines" d="M150,100 L150,400 L650,400" stroke="black"/>
</svg>