<svg class="poloto" width="800" height="500" viewBox="0 0 800 500" xmlns="http://www.w3.org/2000/svg"><text  class="poloto_text poloto_legend_text" alignment-baseline="middle" text-anchor="start" font-size="large" x="675" y="100" >brocc</text><line  class="poloto_line poloto_legend_icon poloto0stroke poloto0legend" stroke="black" x1="680" x2="730" y1="81.25" y2="81.25" /><path  class="poloto_line poloto0stroke" fill="none" stroke="black" d=" M 150 339.0950038091503 L 155.05050505050508 340.6032512149939 L 160.1010101010101 342.4237074630154 L 165.15151515151518 343.91824370330505 L 170.2020202020202 345.4431858838314 L 175.25252525252523 346.8113092326391 L 180.3030303030303 347.8264513468886 L 185.35353535353534 349.4730352835913 L 190.40404040404042 350.69993566665295 L 195.45454545454544 316.853276268353 L 200.50505050505052 353.3106980266527 L 205.55555555555554 354.48121575517735 L 210.60606060606057 355.4460324092972 L 215.65656565656565 356.4467255535641 L 220.70707070707067 357.0882938917615 L 225.75757575757575 358.1377241171928 L 230.80808080808077 359.5132471045635 L 235.85858585858585 360.30300256250473 L 240.90909090909088 361.20962264290677 L 245.95959595959596 362.0588475371656 L 251.01010101010104 362.53995121005283 L 256.06060606060606 363.2768342829829 L 261.11111111111114 364.4554198729434 L 266.16161616161617 365.3555916626068 L 271.21212121212125 365.94101488330284 L 276.26262626262627 366.79721712806145 L 281.31313131313135 367.0670580008016 L 286.3636363636363 368.07299495508124 L 291.4141414141414 368.5664517535008 L 296.4646464646464 368.94930626948855 L 301.5151515151515 369.4318039728573 L 306.5656565656565 370.1039498058171 L 311.6161616161616 370.55642306782454 L 316.66666666666663 371.11010150317435 L 321.7171717171717 371.1714544402286 L 326.76767676767673 371.9815900959501 L 331.8181818181818 372.6755497466776 L 336.8686868686868 372.31391280650456 L 341.91919191919186 373.31455196508153 L 346.9696969696969 373.5310765704713 L 352.02020202020196 374.2724884429434 L 357.070707070707 374.334233676011 L 362.12121212121207 374.5322339916714 L 367.1717171717171 375.28044326234357 L 372.2222222222222 375.6739965423885 L 377.2727272727272 375.6659190834967 L 382.3232323232323 376.0765678320116 L 387.3737373737373 376.60556281025475 L 392.4242424242424 376.86764773887853 L 397.47474747474746 377.19282994218156 L 402.5252525252525 377.5259780339506 L 407.57575757575756 377.9022043069 L 412.62626262626264 378.1027047598439 L 417.6767676767676 378.4643920866608 L 422.7272727272727 378.78874411002124 L 427.77777777777777 379.04234608723795 L 432.82828282828285 378.97765923391154 L 437.8787878787878 379.2394826318598 L 442.9292929292929 379.6594841012303 L 447.979797979798 380.00947332888575 L 453.03030303030295 380.1970376108464 L 458.080808080808 380.3610533348704 L 463.1313131313131 379.9966439296003 L 468.1818181818181 380.7938410149745 L 473.23232323232315 380.82704701299417 L 478.28282828282823 381.061191347887 L 483.3333333333333 381.2395228771919 L 488.3838383838383 381.46644392677547 L 493.43434343434336 380.8524742729395 L 498.48484848484844 381.4559683035698 L 503.5353535353535 382.03094589311024 L 508.5858585858586 382.17527723491276 L 513.6363636363635 382.295319814986 L 518.6868686868686 382.2471393862686 L 523.7373737373737 382.64337515526086 L 528.7878787878788 382.7354015616373 L 533.8383838383838 382.7852003613698 L 538.8888888888889 382.75255101579717 L 543.9393939393938 383.3136566823959 L 548.9898989898988 383.1907948496276 L 554.0404040404039 383.59530602504134 L 559.090909090909 383.7113752583375 L 564.1414141414141 383.96418064670763 L 569.1919191919192 383.7413325175069 L 574.2424242424242 384.18893387092095 L 579.2929292929293 384.23017293959856 L 584.3434343434342 384.4406019607571 L 589.3939393939393 384.47190646281007 L 594.4444444444443 384.6811873882966 L 599.4949494949494 384.707733951546 L 604.5454545454545 384.88147669720894 L 609.5959595959596 385.03332884545625 L 614.6464646464647 385.12541763529657 L 619.6969696969697 385.1824553162044 L 624.7474747474748 385.2834565436071 L 629.7979797979797 385.3520687564306 L 634.8484848484848 385.0109835685635 L 639.8989898989898 385.266980111048 L 644.9494949494949 385.3186972022952 L 650 385.7099314970382" /><text  class="poloto_text poloto_legend_text" alignment-baseline="middle" text-anchor="start" font-size="large" x="675" y="150" >brocc_par</text><line  class="poloto_line poloto_legend_icon poloto1stroke poloto1legend" stroke="black" x1="680" x2="730" y1="131.25" y2="131.25" /><path  class="poloto_line poloto1stroke" fill="none" stroke="black" d=" M 150 367.9416561693159 L 155.05050505050508 370.1043876897463 L 160.1010101010101 373.6740378754323 L 165.15151515151518 374.29725467810795 L 170.2020202020202 369.77833811635884 L 175.25252525252523 374.41763076977657 L 180.3030303030303 371.62184625396975 L 185.35353535353534 374.079658756694 L 190.40404040404042 376.45242460290564 L 195.45454545454544 367.3402387882239 L 200.50505050505052 374.61124264868863 L 205.55555555555554 376.876512189161 L 210.60606060606057 377.02305454488567 L 215.65656565656565 377.6810477293163 L 220.70707070707067 377.56631614144777 L 225.75757575757575 378.95141978925363 L 230.80808080808077 379.7101346751814 L 235.85858585858585 379.0467309249403 L 240.90909090909088 379.92837482582814 L 245.95959595959596 380.25152476782677 L 251.01010101010104 381.0715769949428 L 256.06060606060606 381.6537178856926 L 261.11111111111114 381.8765624158473 L 266.16161616161617 382.3289469013869 L 271.21212121212125 382.55278476823594 L 276.26262626262627 383.2362591983018 L 281.31313131313135 383.3998190431666 L 286.3636363636363 384.1069691974609 L 291.4141414141414 384.0290618485177 L 296.4646464646464 384.23334369911896 L 301.5151515151515 384.20933326361313 L 306.5656565656565 384.9216300536784 L 311.6161616161616 384.6802408392003 L 316.66666666666663 385.6882796363402 L 321.7171717171717 385.5968914607867 L 326.76767676767673 385.5798499780066 L 331.8181818181818 386.2091011811317 L 336.8686868686868 386.50721375983426 L 341.91919191919186 385.81676677799663 L 346.9696969696969 386.82976985924387 L 352.02020202020196 387.0262393806749 L 357.070707070707 387.41219627430917 L 362.12121212121207 388.77774870459535 L 367.1717171717171 387.8017990015351 L 372.2222222222222 387.5715332385414 L 377.2727272727272 388.377035722387 L 382.3232323232323 387.53836083161764 L 387.3737373737373 388.2011239516719 L 392.4242424242424 388.6880892708008 L 397.47474747474746 388.0428391085518 L 402.5252525252525 388.5084212957503 L 407.57575757575756 388.535942000782 L 412.62626262626264 389.15927517261144 L 417.6767676767676 389.72382752559014 L 422.7272727272727 389.08842675254385 L 427.77777777777777 389.46293028214427 L 432.82828282828285 389.33454991218565 L 437.8787878787878 389.9940762902096 L 442.9292929292929 389.9540333044839 L 447.979797979798 390.0875663086234 L 453.03030303030295 390.36638440175386 L 458.080808080808 390.01865177593646 L 463.1313131313131 389.67340729058265 L 468.1818181818181 390.6102521592396 L 473.23232323232315 390.75027904203375 L 478.28282828282823 390.4505336961321 L 483.3333333333333 390.9763075282109 L 488.3838383838383 391.094153490546 L 493.43434343434336 390.6598866025385 L 498.48484848484844 391.2453806044724 L 503.5353535353535 391.38586936483574 L 508.5858585858586 391.43586011368797 L 513.6363636363635 391.2070507646397 L 518.6868686868686 391.3466625574626 L 523.7373737373737 391.273532342235 L 528.7878787878788 391.2014230563876 L 533.8383838383838 391.5605850525989 L 538.8888888888889 391.530940910431 L 543.9393939393938 391.7446786545397 L 548.9898989898988 392.22987924144974 L 554.0404040404039 392.3170793271486 L 559.090909090909 393.12375390030616 L 564.1414141414141 393.25264773415984 L 569.1919191919192 393.2834135789958 L 574.2424242424242 393.28923803509554 L 579.2929292929293 393.4456597720729 L 584.3434343434342 393.49967785339203 L 589.3939393939393 393.0264009058591 L 594.4444444444443 393.5549004154371 L 599.4949494949494 391.8362647776229 L 604.5454545454545 392.5114865952252 L 609.5959595959596 392.75431902714683 L 614.6464646464647 392.8672810840685 L 619.6969696969697 393.06012396681984 L 624.7474747474748 392.9082706188905 L 629.7979797979797 393.1092545436796 L 634.8484848484848 392.7961975263293 L 639.8989898989898 392.75282422337744 L 644.9494949494949 393.08555242644724 L 650 393.18479611972293" /><text  class="poloto_text poloto_legend_text" alignment-baseline="middle" text-anchor="start" font-size="large" x="675" y="200" >naive</text><line  class="poloto_line poloto_legend_icon poloto2stroke poloto2legend" stroke="black" x1="680" x2="730" y1="181.25" y2="181.25" /><path  class="poloto_line poloto2stroke" fill="none" stroke="black" d=" M 150 400 L 155.05050505050508 400 L 160.1010101010101 400 L 165.15151515151518 400 L 170.2020202020202 400 L 175.25252525252523 400 L 180.3030303030303 400 L 185.35353535353534 400 L 190.40404040404042 400 L 195.45454545454544 400 L 200.50505050505052 400 L 205.55555555555554 400 L 210.60606060606057 400 L 215.65656565656565 400 L 220.70707070707067 400 L 225.75757575757575 400 L 230.80808080808077 400 L 235.85858585858585 400 L 240.90909090909088 400 L 245.95959595959596 400 L 251.01010101010104 400 L 256.06060606060606 400 L 261.11111111111114 400 L 266.16161616161617 400 L 271.21212121212125 400 L 276.26262626262627 400 L 281.31313131313135 400 L 286.3636363636363 400 L 291.4141414141414 400 L 296.4646464646464 400 L 301.5151515151515 400 L 306.5656565656565 400 L 311.6161616161616 400 L 316.66666666666663 400 L 321.7171717171717 400 L 326.76767676767673 400 L 331.8181818181818 400 L 336.8686868686868 400 L 341.91919191919186 400 L 346.9696969696969 400 L 352.02020202020196 400 L 357.070707070707 400 L 362.12121212121207 400 L 367.1717171717171 400 L 372.2222222222222 400 L 377.2727272727272 400 L 382.3232323232323 400 L 387.3737373737373 400 L 392.4242424242424 400 L 397.47474747474746 400 L 402.5252525252525 400 L 407.57575757575756 400 L 412.62626262626264 400 L 417.6767676767676 400 L 422.7272727272727 400 L 427.77777777777777 400 L 432.82828282828285 400 L 437.8787878787878 400 L 442.9292929292929 400 L 447.979797979798 400 L 453.03030303030295 400 L 458.080808080808 400 L 463.1313131313131 400 L 468.1818181818181 400 L 473.23232323232315 400 L 478.28282828282823 400 L 483.3333333333333 400 L 488.3838383838383 400 L 493.43434343434336 400 L 498.48484848484844 400 L 503.5353535353535 400 L 508.5858585858586 400 L 513.6363636363635 400 L 518.6868686868686 400 L 523.7373737373737 400 L 528.7878787878788 400 L 533.8383838383838 400 L 538.8888888888889 400 L 543.9393939393938 400 L 548.9898989898988 400 L 554.0404040404039 400 L 559.090909090909 400 L 564.1414141414141 400 L 569.1919191919192 400 L 574.2424242424242 400 L 579.2929292929293 400 L 584.3434343434342 400 L 589.3939393939393 400 L 594.4444444444443 400 L 599.4949494949494 400 L 604.5454545454545 400 L 609.5959595959596 400 L 614.6464646464647 400 L 619.6969696969697 400 L 624.7474747474748 400 L 629.7979797979797 400 L 634.8484848484848 400 L 639.8989898989898 400 L 644.9494949494949 400 L 650 400" /><text  class="poloto_text poloto_legend_text" alignment-baseline="middle" text-anchor="start" font-size="large" x="675" y="250" >nosort</text><line  class="poloto_line poloto_legend_icon poloto3stroke poloto3legend" stroke="black" x1="680" x2="730" y1="231.25" y2="231.25" /><path  class="poloto_line poloto3stroke" fill="none" stroke="black" d=" M 150 229.27952801694948 L 155.05050505050508 235.44407236884902 L 160.1010101010101 242.94675521770094 L 165.15151515151518 244.94365829460853 L 170.2020202020202 253.0345824171695 L 175.25252525252523 255.2172538520869 L 180.3030303030303 255.49508940566105 L 185.35353535353534 260.9496415566133 L 190.40404040404042 264.99568546366277 L 195.45454545454544 266.4143022280798 L 200.50505050505052 268.53050528190386 L 205.55555555555554 271.75424035999924 L 210.60606060606057 276.9948028336233 L 215.65656565656565 279.8791838649745 L 220.70707070707067 281.26468940624966 L 225.75757575757575 283.26626764390306 L 230.80808080808077 287.1441089367559 L 235.85858585858585 290.2500220461562 L 240.90909090909088 293.3104564106983 L 245.95959595959596 294.49715664969256 L 251.01010101010104 295.388182063804 L 256.06060606060606 299.35916426760923 L 261.11111111111114 300.6165617667393 L 266.16161616161617 303.25535469661986 L 271.21212121212125 305.9818203869064 L 276.26262626262627 299.65707290037216 L 281.31313131313135 308.90146727026774 L 286.3636363636363 310.58735638826744 L 291.4141414141414 312.97968904786467 L 296.4646464646464 313.72736685941186 L 301.5151515151515 316.5391923232125 L 306.5656565656565 316.7950688974972 L 311.6161616161616 317.3045858388225 L 316.66666666666663 320.21925884062057 L 321.7171717171717 322.06001010900036 L 326.76767676767673 322.35507189638224 L 331.8181818181818 311.22818572235417 L 336.8686868686868 325.22007326473954 L 341.91919191919186 327.05893263460865 L 346.9696969696969 327.5625939281023 L 352.02020202020196 329.2859467155322 L 357.070707070707 327.81178467461274 L 362.12121212121207 331.62823943931534 L 367.1717171717171 332.1867897832586 L 372.2222222222222 333.6822701732806 L 377.2727272727272 333.8373542648303 L 382.3232323232323 335.19038801346846 L 387.3737373737373 336.4581003784165 L 392.4242424242424 335.8631852737531 L 397.47474747474746 337.1892909602666 L 402.5252525252525 337.31170531164963 L 407.57575757575756 338.12932458367396 L 412.62626262626264 339.3137994125621 L 417.6767676767676 339.8513577209062 L 422.7272727272727 341.3362869077568 L 427.77777777777777 342.13691628332697 L 432.82828282828285 342.59852992247636 L 437.8787878787878 343.693869578603 L 442.9292929292929 344.23740710202463 L 447.979797979798 345.9202574255237 L 453.03030303030295 345.418353666157 L 458.080808080808 346.42017931022986 L 463.1313131313131 346.82540189706833 L 468.1818181818181 347.53568082201315 L 473.23232323232315 341.5816854594719 L 478.28282828282823 348.6085264406793 L 483.3333333333333 349.2849275456856 L 488.3838383838383 349.5262159868759 L 493.43434343434336 350.60027568372396 L 498.48484848484844 350.77261840049533 L 503.5353535353535 352.04819228157555 L 508.5858585858586 351.8259823831977 L 513.6363636363635 351.72407659556865 L 518.6868686868686 352.9326602338865 L 523.7373737373737 353.97024359958857 L 528.7878787878788 353.216533786956 L 533.8383838383838 354.81637691333884 L 538.8888888888889 355.0603610399784 L 543.9393939393938 355.3637942083416 L 548.9898989898988 356.06784438435335 L 554.0404040404039 356.1024264176246 L 559.090909090909 357.1206361187427 L 564.1414141414141 357.1509640796495 L 569.1919191919192 357.33815885955477 L 574.2424242424242 357.69564490001505 L 579.2929292929293 358.1503387734007 L 584.3434343434342 359.01789960731526 L 589.3939393939393 358.8941380130486 L 594.4444444444443 359.14246378883854 L 599.4949494949494 359.4590874607686 L 604.5454545454545 360.13081220534707 L 609.5959595959596 360.6410249622312 L 614.6464646464647 360.5531950434834 L 619.6969696969697 361.12784991856637 L 624.7474747474748 362.00962938352006 L 629.7979797979797 360.9798079603443 L 634.8484848484848 362.09481880219045 L 639.8989898989898 362.5805376517236 L 644.9494949494949 362.9626111747307 L 650 362.9742228967883" /><text  class="poloto_text poloto_legend_text" alignment-baseline="middle" text-anchor="start" font-size="large" x="675" y="300" >nosort_par</text><line  class="poloto_line poloto_legend_icon poloto4stroke poloto4legend" stroke="black" x1="680" x2="730" y1="281.25" y2="281.25" /><path  class="poloto_line poloto4stroke" fill="none" stroke="black" d=" M 150 290.09323200680547 L 155.05050505050508 301.8332780493209 L 160.1010101010101 306.17086267708845 L 165.15151515151518 299.00259238483136 L 170.2020202020202 301.0477166796443 L 175.25252525252523 308.8465134369902 L 180.3030303030303 309.02538242383014 L 185.35353535353534 313.8192553023585 L 190.40404040404042 311.44987855779095 L 195.45454545454544 318.0529750617944 L 200.50505050505052 319.21248210894237 L 205.55555555555554 323.11634090528355 L 210.60606060606057 323.68783821734803 L 215.65656565656565 326.08362116237123 L 220.70707070707067 328.7619040245764 L 225.75757575757575 329.5877039281444 L 230.80808080808077 330.08759462111857 L 235.85858585858585 333.7479395661633 L 240.90909090909088 333.56927332558104 L 245.95959595959596 336.75821762573753 L 251.01010101010104 333.3172729238315 L 256.06060606060606 340.32682048903933 L 261.11111111111114 339.38614623544504 L 266.16161616161617 342.6859531490269 L 271.21212121212125 340.9497997546794 L 276.26262626262627 342.88427737882665 L 281.31313131313135 343.06774834581046 L 286.3636363636363 347.77132475940334 L 291.4141414141414 347.10579997138996 L 296.4646464646464 346.11294075056935 L 301.5151515151515 348.96490517465554 L 306.5656565656565 352.1116686557661 L 311.6161616161616 352.30484984884083 L 316.66666666666663 351.50178871786096 L 321.7171717171717 353.82030854317384 L 326.76767676767673 355.2466932485272 L 331.8181818181818 352.30844649547055 L 336.8686868686868 358.42962474251027 L 341.91919191919186 357.9313200291372 L 346.9696969696969 359.58484412619777 L 352.02020202020196 358.0267175419277 L 357.070707070707 358.9083134555357 L 362.12121212121207 360.7100138752021 L 367.1717171717171 360.2623357421402 L 372.2222222222222 361.93490359123524 L 377.2727272727272 359.18106955553077 L 382.3232323232323 360.7097175537486 L 387.3737373737373 360.73000777537897 L 392.4242424242424 361.01703769178494 L 397.47474747474746 362.2329405899719 L 402.5252525252525 363.68817764737463 L 407.57575757575756 363.9765835990322 L 412.62626262626264 366.55756385343426 L 417.6767676767676 367.3831778062925 L 422.7272727272727 365.2627206801039 L 427.77777777777777 368.2970031767739 L 432.82828282828285 365.88151065620735 L 437.8787878787878 366.573070942939 L 442.9292929292929 368.1520108101905 L 447.979797979798 370.4256757252841 L 453.03030303030295 370.5811329179352 L 458.080808080808 370.7159771744984 L 463.1313131313131 370.934324096843 L 468.1818181818181 369.95406153700026 L 473.23232323232315 371.00929942298336 L 478.28282828282823 371.61024173000413 L 483.3333333333333 372.7748906141951 L 488.3838383838383 372.78130411415583 L 493.43434343434336 372.90136348977705 L 498.48484848484844 371.2487763443568 L 503.5353535353535 372.72870285727623 L 508.5858585858586 373.26321997175563 L 513.6363636363635 374.7140457984521 L 518.6868686868686 373.2184262453183 L 523.7373737373737 374.89056220889415 L 528.7878787878788 372.13048622775466 L 533.8383838383838 374.2133177274433 L 538.8888888888889 375.1126329441602 L 543.9393939393938 373.84399202534587 L 548.9898989898988 375.57975312368 L 554.0404040404039 377.44693818520136 L 559.090909090909 377.725631511404 L 564.1414141414141 378.16134161685494 L 569.1919191919192 379.10190549970537 L 574.2424242424242 378.52018329797284 L 579.2929292929293 379.52603627451265 L 584.3434343434342 379.86139777956777 L 589.3939393939393 379.99661393755036 L 594.4444444444443 378.6012973968964 L 599.4949494949494 378.26783378876195 L 604.5454545454545 379.42580044422465 L 609.5959595959596 378.5140913127875 L 614.6464646464647 379.22375720023143 L 619.6969696969697 378.0388120960001 L 624.7474747474748 380.26597493749136 L 629.7979797979797 380.3368461515169 L 634.8484848484848 380.27703600551195 L 639.8989898989898 379.31444116245217 L 644.9494949494949 380.186444418805 L 650 380.40883067043654" /><text  class="poloto_text poloto_legend_text" alignment-baseline="middle" text-anchor="start" font-size="large" x="675" y="350" >sweep</text><line  class="poloto_line poloto_legend_icon poloto5stroke poloto5legend" stroke="black" x1="680" x2="730" y1="331.25" y2="331.25" /><path  class="poloto_line poloto5stroke" fill="none" stroke="black" d=" M 150 100 L 155.05050505050508 109.55140618965845 L 160.1010101010101 103.27050108173722 L 165.15151515151518 124.82629964310098 L 170.2020202020202 124.83359011060219 L 175.25252525252523 137.87934724566685 L 180.3030303030303 138.02180108514273 L 185.35353535353534 149.4504876603349 L 190.40404040404042 155.47050392258421 L 195.45454545454544 116.73614811574663 L 200.50505050505052 166.20800211246402 L 205.55555555555554 158.9993049362419 L 210.60606060606057 176.4011385973897 L 215.65656565656565 180.63011961293395 L 220.70707070707067 182.6292516989936 L 225.75757575757575 189.02544504723042 L 230.80808080808077 193.7210519733113 L 235.85858585858585 197.31471019513913 L 240.90909090909088 189.6520773445541 L 245.95959595959596 205.0900807621122 L 251.01010101010104 208.67272590319936 L 256.06060606060606 212.97900722859586 L 261.11111111111114 215.69510406737461 L 266.16161616161617 218.13538921610967 L 271.21212121212125 222.13375656088087 L 276.26262626262627 225.35656308510988 L 281.31313131313135 216.96335388985767 L 286.3636363636363 231.19610518600612 L 291.4141414141414 223.01735594342534 L 296.4646464646464 236.74832464808887 L 301.5151515151515 238.29362063339144 L 306.5656565656565 240.912447255781 L 311.6161616161616 233.8182033412039 L 316.66666666666663 246.2575608158394 L 321.7171717171717 248.6993047778839 L 326.76767676767673 240.18014456871884 L 331.8181818181818 253.0443754213183 L 336.8686868686868 255.05998753898305 L 341.91919191919186 257.2596536690826 L 346.9696969696969 259.48924706630163 L 352.02020202020196 261.7937630036531 L 357.070707070707 263.3846553026496 L 362.12121212121207 263.7698491985332 L 367.1717171717171 266.0839218026799 L 372.2222222222222 269.0158354344697 L 377.2727272727272 270.16613252291984 L 382.3232323232323 272.39585668547664 L 387.3737373737373 271.71563339362507 L 392.4242424242424 275.5123833815123 L 397.47474747474746 277.03724518334474 L 402.5252525252525 278.3450665165283 L 407.57575757575756 280.233705491218 L 412.62626262626264 280.21145858824906 L 417.6767676767676 282.99305686443086 L 422.7272727272727 283.7886559733838 L 427.77777777777777 277.15272297341596 L 432.82828282828285 286.596182976586 L 437.8787878787878 287.09890251971126 L 442.9292929292929 289.1717598632695 L 447.979797979798 290.30745082339536 L 453.03030303030295 292.13428338123555 L 458.080808080808 290.98758173973306 L 463.1313131313131 285.49764736761693 L 468.1818181818181 295.30698758618655 L 473.23232323232315 295.84377329932397 L 478.28282828282823 296.5279675385886 L 483.3333333333333 297.5283955531339 L 488.3838383838383 298.73919020537386 L 493.43434343434336 299.1466501991384 L 498.48484848484844 292.98929434177023 L 503.5353535353535 301.4262223483897 L 508.5858585858586 302.00217168034834 L 513.6363636363635 303.23364045245796 L 518.6868686868686 304.10244415692245 L 523.7373737373737 305.2893663370863 L 528.7878787878788 305.13097712163244 L 533.8383838383838 306.6464238191454 L 538.8888888888889 307.50580042247043 L 543.9393939393938 308.3770202864786 L 548.9898989898988 308.8322888075412 L 554.0404040404039 309.7091975635834 L 559.090909090909 310.44314381498265 L 564.1414141414141 304.6675099737962 L 569.1919191919192 305.49755075322673 L 574.2424242424242 312.7074248174888 L 579.2929292929293 306.3475194503243 L 584.3434343434342 307.5384305731311 L 589.3939393939393 308.61558424985174 L 594.4444444444443 315.09769042500363 L 599.4949494949494 309.3794313753665 L 604.5454545454545 316.6593032851596 L 609.5959595959596 316.9548773367546 L 614.6464646464647 317.4214768542873 L 619.6969696969697 318.32546363270393 L 624.7474747474748 318.68853179350043 L 629.7979797979797 319.0706856952014 L 634.8484848484848 320.0140784282029 L 639.8989898989898 320.38248157484395 L 644.9494949494949 320.85290447890395 L 650 315.7097825765129" /><text  class="poloto_labels poloto_text poloto_title" alignment-baseline="start" text-anchor="middle" font-size="x-large" x="400" y="37.5" >Bench of space partitioning algs with abspiral(30_000,grow)</text><text  class="poloto_labels poloto_text poloto_xname" alignment-baseline="start" text-anchor="middle" font-size="x-large" x="400" y="481.25" >Grow</text><text  class="poloto_labels poloto_text poloto_yname" alignment-baseline="start" text-anchor="middle" font-size="x-large" transform="rotate(-90,37.5,250)" x="37.5" y="250" >Time in Seconds</text><line  class="poloto_axis_lines" stroke="black" x1="150" x2="150" y1="400" y2="405" /><text  class="poloto_tick_labels poloto_text" alignment-baseline="start" text-anchor="middle" x="150" y="430" > 0.20</text><line  class="poloto_axis_lines" stroke="black" x1="213.1313131313131" x2="213.1313131313131" y1="400" y2="405" /><text  class="poloto_tick_labels poloto_text" alignment-baseline="start" text-anchor="middle" x="213.1313131313131" y="430" > 0.25</text><line  class="poloto_axis_lines" stroke="black" x1="276.26262626262627" x2="276.26262626262627" y1="400" y2="405" /><text  class="poloto_tick_labels poloto_text" alignment-baseline="start" text-anchor="middle" x="276.26262626262627" y="430" > 0.30</text><line  class="poloto_axis_lines" stroke="black" x1="339.3939393939394" x2="339.3939393939394" y1="400" y2="405" /><text  class="poloto_tick_labels poloto_text" alignment-baseline="start" text-anchor="middle" x="339.3939393939394" y="430" > 0.35</text><line  class="poloto_axis_lines" stroke="black" x1="402.5252525252525" x2="402.5252525252525" y1="400" y2="405" /><text  class="poloto_tick_labels poloto_text" alignment-baseline="start" text-anchor="middle" x="402.5252525252525" y="430" > 0.40</text><line  class="poloto_axis_lines" stroke="black" x1="465.65656565656565" x2="465.65656565656565" y1="400" y2="405" /><text  class="poloto_tick_labels poloto_text" alignment-baseline="start" text-anchor="middle" x="465.65656565656565" y="430" > 0.45</text><line  class="poloto_axis_lines" stroke="black" x1="528.7878787878788" x2="528.7878787878788" y1="400" y2="405" /><text  class="poloto_tick_labels poloto_text" alignment-baseline="start" text-anchor="middle" x="528.7878787878788" y="430" > 0.50</text><line  class="poloto_axis_lines" stroke="black" x1="591.9191919191919" x2="591.9191919191919" y1="400" y2="405" /><text  class="poloto_tick_labels poloto_text" alignment-baseline="start" text-anchor="middle" x="591.9191919191919" y="430" > 0.55</text><line  class="poloto_axis_lines" stroke="black" x1="150" x2="144" y1="400" y2="400" /><text  class="poloto_tick_labels poloto_text" alignment-baseline="middle" text-anchor="end" x="135" y="400" > 0e0</text><line  class="poloto_axis_lines" stroke="black" x1="150" x2="144" y1="340.01590010532726" y2="340.01590010532726" /><text  class="poloto_tick_labels poloto_text" alignment-baseline="middle" text-anchor="end" x="135" y="340.01590010532726" > 0.05</text><line  class="poloto_axis_lines" stroke="black" x1="150" x2="144" y1="280.0318002106545" y2="280.0318002106545" /><text  class="poloto_tick_labels poloto_text" alignment-baseline="middle" text-anchor="end" x="135" y="280.0318002106545" > 0.10</text><line  class="poloto_axis_lines" stroke="black" x1="150" x2="144" y1="220.04770031598179" y2="220.04770031598179" /><text  class="poloto_tick_labels poloto_text" alignment-baseline="middle" text-anchor="end" x="135" y="220.04770031598179" > 0.15</text><line  class="poloto_axis_lines" stroke="black" x1="150" x2="144" y1="160.06360042130905" y2="160.06360042130905" /><text  class="poloto_tick_labels poloto_text" alignment-baseline="middle" text-anchor="end" x="135" y="160.06360042130905" > 0.20</text><line  class="poloto_axis_lines" stroke="black" x1="150" x2="144" y1="100.07950052663637" y2="100.07950052663637" /><text  class="poloto_tick_labels poloto_text" alignment-baseline="middle" text-anchor="end" x="135" y="100.07950052663637" > 0.25</text><path  stroke="black" fill="none" class="poloto_axis_lines" style="stroke-dasharray:6.313131313131312;stroke-dashoffset:-0;" d=" M 150 400 L 650 400" /><path  stroke="black" fill="none" class="poloto_axis_lines" style="stroke-dasharray:5.998409989467273;stroke-dashoffset:-0;" d=" M 150 400 L 150 100" /></svg>