<svg class="poloto" width="800" height="500" viewBox="0 0 800 500" xmlns="http://www.w3.org/2000/svg"><circle  r="1e5" class="poloto_background" /><text  class="poloto_text poloto_legend_text" x="675" y="100" >broccoli</text><line  class="poloto_scatter poloto_legend_icon poloto0stroke poloto0legend" stroke="black" x1="685" x2="685" y1="81.25" y2="81.25" /><path  class="poloto_scatter poloto0stroke" d=" M 150.00 274.27 h 0 M 155.05 278.20 h 0 M 160.10 281.25 h 0 M 165.15 284.62 h 0 M 170.20 287.16 h 0 M 175.25 291.42 h 0 M 180.30 293.64 h 0 M 185.35 293.35 h 0 M 190.40 297.43 h 0 M 195.45 298.32 h 0 M 200.51 302.18 h 0 M 205.56 303.28 h 0 M 210.61 306.17 h 0 M 215.66 308.00 h 0 M 220.71 311.07 h 0 M 225.76 313.30 h 0 M 230.81 314.12 h 0 M 235.86 315.23 h 0 M 240.91 317.91 h 0 M 245.96 318.33 h 0 M 251.01 319.85 h 0 M 256.06 323.48 h 0 M 261.11 325.68 h 0 M 266.16 327.22 h 0 M 271.21 329.41 h 0 M 276.26 331.06 h 0 M 281.31 332.98 h 0 M 286.36 333.95 h 0 M 291.41 336.23 h 0 M 296.46 337.59 h 0 M 301.52 337.42 h 0 M 306.57 338.98 h 0 M 311.62 339.86 h 0 M 316.67 341.87 h 0 M 321.72 343.23 h 0 M 326.77 344.00 h 0 M 331.82 345.24 h 0 M 336.87 345.69 h 0 M 341.92 346.86 h 0 M 346.97 348.18 h 0 M 352.02 349.10 h 0 M 357.07 348.54 h 0 M 362.12 349.74 h 0 M 367.17 350.41 h 0 M 372.22 351.18 h 0 M 377.27 351.78 h 0 M 382.32 352.49 h 0 M 387.37 353.40 h 0 M 392.42 353.49 h 0 M 397.47 354.34 h 0 M 402.53 355.37 h 0 M 407.58 355.77 h 0 M 412.63 356.50 h 0 M 417.68 358.13 h 0 M 422.73 358.33 h 0 M 427.78 359.04 h 0 M 432.83 360.16 h 0 M 437.88 361.17 h 0 M 442.93 361.82 h 0 M 447.98 362.38 h 0 M 453.03 363.53 h 0 M 458.08 363.94 h 0 M 463.13 364.45 h 0 M 468.18 364.87 h 0 M 473.23 364.99 h 0 M 478.28 365.35 h 0 M 483.33 365.88 h 0 M 488.38 366.31 h 0 M 493.43 366.86 h 0 M 498.48 367.75 h 0 M 503.54 368.16 h 0 M 508.59 367.91 h 0 M 513.64 368.35 h 0 M 518.69 368.56 h 0 M 523.74 369.37 h 0 M 528.79 368.97 h 0 M 533.84 369.92 h 0 M 538.89 370.51 h 0 M 543.94 371.26 h 0 M 548.99 371.40 h 0 M 554.04 371.66 h 0 M 559.09 372.06 h 0 M 564.14 372.31 h 0 M 569.19 372.80 h 0 M 574.24 372.69 h 0 M 579.29 373.42 h 0 M 584.34 373.70 h 0 M 589.39 374.31 h 0 M 594.44 374.17 h 0 M 599.49 374.83 h 0 M 604.55 374.59 h 0 M 609.60 375.13 h 0 M 614.65 375.37 h 0 M 619.70 375.75 h 0 M 624.75 375.97 h 0 M 629.80 376.21 h 0 M 634.85 376.44 h 0 M 639.90 376.81 h 0 M 644.95 377.38 h 0 M 650.00 377.50 h 0" /><text  class="poloto_text poloto_legend_text" x="675" y="150" >naive</text><line  class="poloto_scatter poloto_legend_icon poloto1stroke poloto1legend" stroke="black" x1="685" x2="685" y1="131.25" y2="131.25" /><path  class="poloto_scatter poloto1stroke" d=" M 150.00 400.00 h 0 M 155.05 400.00 h 0 M 160.10 400.00 h 0 M 165.15 400.00 h 0 M 170.20 400.00 h 0 M 175.25 400.00 h 0 M 180.30 400.00 h 0 M 185.35 400.00 h 0 M 190.40 400.00 h 0 M 195.45 400.00 h 0 M 200.51 400.00 h 0 M 205.56 400.00 h 0 M 210.61 400.00 h 0 M 215.66 400.00 h 0 M 220.71 400.00 h 0 M 225.76 400.00 h 0 M 230.81 400.00 h 0 M 235.86 400.00 h 0 M 240.91 400.00 h 0 M 245.96 400.00 h 0 M 251.01 400.00 h 0 M 256.06 400.00 h 0 M 261.11 400.00 h 0 M 266.16 400.00 h 0 M 271.21 400.00 h 0 M 276.26 400.00 h 0 M 281.31 400.00 h 0 M 286.36 400.00 h 0 M 291.41 400.00 h 0 M 296.46 400.00 h 0 M 301.52 400.00 h 0 M 306.57 400.00 h 0 M 311.62 400.00 h 0 M 316.67 400.00 h 0 M 321.72 400.00 h 0 M 326.77 400.00 h 0 M 331.82 400.00 h 0 M 336.87 400.00 h 0 M 341.92 400.00 h 0 M 346.97 400.00 h 0 M 352.02 400.00 h 0 M 357.07 400.00 h 0 M 362.12 400.00 h 0 M 367.17 400.00 h 0 M 372.22 400.00 h 0 M 377.27 400.00 h 0 M 382.32 400.00 h 0 M 387.37 400.00 h 0 M 392.42 400.00 h 0 M 397.47 400.00 h 0 M 402.53 400.00 h 0 M 407.58 400.00 h 0 M 412.63 400.00 h 0 M 417.68 400.00 h 0 M 422.73 400.00 h 0 M 427.78 400.00 h 0 M 432.83 400.00 h 0 M 437.88 400.00 h 0 M 442.93 400.00 h 0 M 447.98 400.00 h 0 M 453.03 400.00 h 0 M 458.08 400.00 h 0 M 463.13 400.00 h 0 M 468.18 400.00 h 0 M 473.23 400.00 h 0 M 478.28 400.00 h 0 M 483.33 400.00 h 0 M 488.38 400.00 h 0 M 493.43 400.00 h 0 M 498.48 400.00 h 0 M 503.54 400.00 h 0 M 508.59 400.00 h 0 M 513.64 400.00 h 0 M 518.69 400.00 h 0 M 523.74 400.00 h 0 M 528.79 400.00 h 0 M 533.84 400.00 h 0 M 538.89 400.00 h 0 M 543.94 400.00 h 0 M 548.99 400.00 h 0 M 554.04 400.00 h 0 M 559.09 400.00 h 0 M 564.14 400.00 h 0 M 569.19 400.00 h 0 M 574.24 400.00 h 0 M 579.29 400.00 h 0 M 584.34 400.00 h 0 M 589.39 400.00 h 0 M 594.44 400.00 h 0 M 599.49 400.00 h 0 M 604.55 400.00 h 0 M 609.60 400.00 h 0 M 614.65 400.00 h 0 M 619.70 400.00 h 0 M 624.75 400.00 h 0 M 629.80 400.00 h 0 M 634.85 400.00 h 0 M 639.90 400.00 h 0 M 644.95 400.00 h 0 M 650.00 400.00 h 0" /><text  class="poloto_text poloto_legend_text" x="675" y="200" >nosort</text><line  class="poloto_scatter poloto_legend_icon poloto2stroke poloto2legend" stroke="black" x1="685" x2="685" y1="181.25" y2="181.25" /><path  class="poloto_scatter poloto2stroke" d=" M 150.00 100.00 h 0 M 155.05 104.52 h 0 M 160.10 109.51 h 0 M 165.15 113.92 h 0 M 170.20 116.75 h 0 M 175.25 125.62 h 0 M 180.30 129.15 h 0 M 185.35 130.79 h 0 M 190.40 135.41 h 0 M 195.45 139.42 h 0 M 200.51 143.99 h 0 M 205.56 146.94 h 0 M 210.61 150.43 h 0 M 215.66 154.41 h 0 M 220.71 159.76 h 0 M 225.76 163.32 h 0 M 230.81 164.27 h 0 M 235.86 168.41 h 0 M 240.91 172.34 h 0 M 245.96 174.33 h 0 M 251.01 177.40 h 0 M 256.06 189.84 h 0 M 261.11 193.77 h 0 M 266.16 196.64 h 0 M 271.21 199.87 h 0 M 276.26 202.64 h 0 M 281.31 210.98 h 0 M 286.36 209.85 h 0 M 291.41 218.00 h 0 M 296.46 220.30 h 0 M 301.52 221.43 h 0 M 306.57 224.22 h 0 M 311.62 225.77 h 0 M 316.67 231.08 h 0 M 321.72 233.48 h 0 M 326.77 235.35 h 0 M 331.82 238.35 h 0 M 336.87 238.64 h 0 M 341.92 240.68 h 0 M 346.97 242.65 h 0 M 352.02 244.09 h 0 M 357.07 245.59 h 0 M 362.12 247.73 h 0 M 367.17 248.45 h 0 M 372.22 249.86 h 0 M 377.27 251.14 h 0 M 382.32 252.68 h 0 M 387.37 254.67 h 0 M 392.42 255.70 h 0 M 397.47 257.70 h 0 M 402.53 259.58 h 0 M 407.58 260.09 h 0 M 412.63 261.74 h 0 M 417.68 267.03 h 0 M 422.73 267.52 h 0 M 427.78 269.21 h 0 M 432.83 271.11 h 0 M 437.88 273.04 h 0 M 442.93 275.41 h 0 M 447.98 277.08 h 0 M 453.03 280.91 h 0 M 458.08 281.50 h 0 M 463.13 282.94 h 0 M 468.18 283.90 h 0 M 473.23 284.36 h 0 M 478.28 285.43 h 0 M 483.33 286.80 h 0 M 488.38 287.66 h 0 M 493.43 288.19 h 0 M 498.48 291.14 h 0 M 503.54 291.78 h 0 M 508.59 290.38 h 0 M 513.64 291.62 h 0 M 518.69 292.63 h 0 M 523.74 296.54 h 0 M 528.79 293.78 h 0 M 533.84 297.74 h 0 M 538.89 298.99 h 0 M 543.94 301.49 h 0 M 548.99 300.66 h 0 M 554.04 302.21 h 0 M 559.09 302.54 h 0 M 564.14 304.62 h 0 M 569.19 306.43 h 0 M 574.24 306.64 h 0 M 579.29 308.20 h 0 M 584.34 309.08 h 0 M 589.39 311.52 h 0 M 594.44 310.50 h 0 M 599.49 312.77 h 0 M 604.55 312.54 h 0 M 609.60 313.92 h 0 M 614.65 314.53 h 0 M 619.70 315.61 h 0 M 624.75 316.38 h 0 M 629.80 316.90 h 0 M 634.85 317.81 h 0 M 639.90 318.90 h 0 M 644.95 320.51 h 0 M 650.00 320.44 h 0" /><text  class="poloto_text poloto_legend_text" x="675" y="250" >sweep</text><line  class="poloto_scatter poloto_legend_icon poloto3stroke poloto3legend" stroke="black" x1="685" x2="685" y1="231.25" y2="231.25" /><path  class="poloto_scatter poloto3stroke" d=" M 150.00 159.75 h 0 M 155.05 164.11 h 0 M 160.10 168.78 h 0 M 165.15 173.16 h 0 M 170.20 177.06 h 0 M 175.25 181.10 h 0 M 180.30 184.75 h 0 M 185.35 188.28 h 0 M 190.40 191.95 h 0 M 195.45 195.44 h 0 M 200.51 198.87 h 0 M 205.56 201.96 h 0 M 210.61 205.18 h 0 M 215.66 208.34 h 0 M 220.71 211.12 h 0 M 225.76 213.89 h 0 M 230.81 216.84 h 0 M 235.86 219.46 h 0 M 240.91 221.81 h 0 M 245.96 224.60 h 0 M 251.01 227.03 h 0 M 256.06 229.50 h 0 M 261.11 231.77 h 0 M 266.16 233.95 h 0 M 271.21 236.08 h 0 M 276.26 238.45 h 0 M 281.31 240.55 h 0 M 286.36 242.48 h 0 M 291.41 244.39 h 0 M 296.46 246.31 h 0 M 301.52 248.21 h 0 M 306.57 250.05 h 0 M 311.62 251.89 h 0 M 316.67 253.65 h 0 M 321.72 255.54 h 0 M 326.77 257.17 h 0 M 331.82 258.89 h 0 M 336.87 260.42 h 0 M 341.92 261.94 h 0 M 346.97 263.61 h 0 M 352.02 264.97 h 0 M 357.07 266.41 h 0 M 362.12 267.87 h 0 M 367.17 269.11 h 0 M 372.22 270.61 h 0 M 377.27 271.94 h 0 M 382.32 273.29 h 0 M 387.37 274.46 h 0 M 392.42 275.84 h 0 M 397.47 277.03 h 0 M 402.53 278.24 h 0 M 407.58 279.40 h 0 M 412.63 280.60 h 0 M 417.68 281.89 h 0 M 422.73 282.85 h 0 M 427.78 283.95 h 0 M 432.83 285.05 h 0 M 437.88 286.22 h 0 M 442.93 287.17 h 0 M 447.98 288.30 h 0 M 453.03 289.16 h 0 M 458.08 290.20 h 0 M 463.13 291.17 h 0 M 468.18 292.10 h 0 M 473.23 293.10 h 0 M 478.28 294.01 h 0 M 483.33 294.88 h 0 M 488.38 295.82 h 0 M 493.43 296.64 h 0 M 498.48 297.48 h 0 M 503.54 298.43 h 0 M 508.59 299.21 h 0 M 513.64 300.03 h 0 M 518.69 300.83 h 0 M 523.74 301.57 h 0 M 528.79 302.31 h 0 M 533.84 303.12 h 0 M 538.89 303.75 h 0 M 543.94 304.59 h 0 M 548.99 305.30 h 0 M 554.04 306.12 h 0 M 559.09 306.76 h 0 M 564.14 307.49 h 0 M 569.19 308.14 h 0 M 574.24 308.78 h 0 M 579.29 309.48 h 0 M 584.34 310.14 h 0 M 589.39 310.74 h 0 M 594.44 311.50 h 0 M 599.49 312.14 h 0 M 604.55 312.82 h 0 M 609.60 313.36 h 0 M 614.65 313.91 h 0 M 619.70 314.50 h 0 M 624.75 315.17 h 0 M 629.80 315.68 h 0 M 634.85 316.34 h 0 M 639.90 316.88 h 0 M 644.95 317.39 h 0 M 650.00 318.09 h 0" /><text  class="poloto_labels poloto_text poloto_title" x="400" y="37.5" >Complexity of space partitioning algs with abspiral(3000,grow)</text><text  class="poloto_labels poloto_text poloto_xname" x="400" y="481.25" >Grow</text><text  class="poloto_labels poloto_text poloto_yname" transform="rotate(-90,37.5,250)" x="37.5" y="250" >Number of Comparisons</text><text  class="poloto_tick_labels poloto_text" dominant-baseline="middle" text-anchor="start" x="150" y="70" ></text><line  class="poloto_axis_lines" stroke="black" x1="150" x2="144" y1="400" y2="400" /><text  class="poloto_tick_labels poloto_text" dominant-baseline="middle" text-anchor="end" x="135" y="400" >0</text><line  class="poloto_axis_lines" stroke="black" x1="150" x2="144" y1="308.64921420054054" y2="308.64921420054054" /><text  class="poloto_tick_labels poloto_text" dominant-baseline="middle" text-anchor="end" x="135" y="308.64921420054054" >2e6</text><line  class="poloto_axis_lines" stroke="black" x1="150" x2="144" y1="217.29842840108108" y2="217.29842840108108" /><text  class="poloto_tick_labels poloto_text" dominant-baseline="middle" text-anchor="end" x="135" y="217.29842840108108" >4e6</text><line  class="poloto_axis_lines" stroke="black" x1="150" x2="144" y1="125.94764260162168" y2="125.94764260162168" /><text  class="poloto_tick_labels poloto_text" dominant-baseline="middle" text-anchor="end" x="135" y="125.94764260162168" >6e6</text><text  class="poloto_tick_labels poloto_text" dominant-baseline="middle" text-anchor="start" x="440.00000000000006" y="70" ></text><line  class="poloto_axis_lines" stroke="black" x1="150" x2="150" y1="400" y2="405" /><text  class="poloto_tick_labels poloto_text" dominant-baseline="start" text-anchor="middle" x="150" y="430" >0.20</text><line  class="poloto_axis_lines" stroke="black" x1="213.1313131313131" x2="213.1313131313131" y1="400" y2="405" /><text  class="poloto_tick_labels poloto_text" dominant-baseline="start" text-anchor="middle" x="213.1313131313131" y="430" >0.25</text><line  class="poloto_axis_lines" stroke="black" x1="276.26262626262627" x2="276.26262626262627" y1="400" y2="405" /><text  class="poloto_tick_labels poloto_text" dominant-baseline="start" text-anchor="middle" x="276.26262626262627" y="430" >0.30</text><line  class="poloto_axis_lines" stroke="black" x1="339.3939393939394" x2="339.3939393939394" y1="400" y2="405" /><text  class="poloto_tick_labels poloto_text" dominant-baseline="start" text-anchor="middle" x="339.3939393939394" y="430" >0.35</text><line  class="poloto_axis_lines" stroke="black" x1="402.5252525252525" x2="402.5252525252525" y1="400" y2="405" /><text  class="poloto_tick_labels poloto_text" dominant-baseline="start" text-anchor="middle" x="402.5252525252525" y="430" >0.40</text><line  class="poloto_axis_lines" stroke="black" x1="465.65656565656565" x2="465.65656565656565" y1="400" y2="405" /><text  class="poloto_tick_labels poloto_text" dominant-baseline="start" text-anchor="middle" x="465.65656565656565" y="430" >0.45</text><line  class="poloto_axis_lines" stroke="black" x1="528.7878787878788" x2="528.7878787878788" y1="400" y2="405" /><text  class="poloto_tick_labels poloto_text" dominant-baseline="start" text-anchor="middle" x="528.7878787878788" y="430" >0.50</text><line  class="poloto_axis_lines" stroke="black" x1="591.9191919191919" x2="591.9191919191919" y1="400" y2="405" /><text  class="poloto_tick_labels poloto_text" dominant-baseline="start" text-anchor="middle" x="591.9191919191919" y="430" >0.55</text><path  stroke="black" fill="none" class="poloto_axis_lines" style="stroke-dasharray:6.313131313131312;stroke-dashoffset:-0;" d=" M 150 400 L 650 400" /><path  stroke="black" fill="none" class="poloto_axis_lines" style="stroke-dasharray:11.41884822493243;stroke-dashoffset:-0;" d=" M 150 400 L 150 100" /></svg>