<svg  width="800" class="poloto" height="500" viewBox="0 0 800 500" xmlns="http://www.w3.org/2000/svg" ><rect  class="poloto_background" fill="white" x="0" y="0" width="800" height="500" /><text  class="poloto_text" alignment-baseline="middle" text-anchor="start" font-size="large" x="675" y="100" >brocc</text><line  class="poloto0stroke" stroke="black" x1="680" x2="730" y1="81.25" y2="81.25" /><path  class="poloto0stroke" fill="none" stroke="black" d=" M 150 339.71939994531107 L 155.05050505050505 341.52344653124504 L 160.1010101010101 343.2046520881923 L 165.15151515151516 344.2458385150799 L 170.2020202020202 345.7763155540512 L 175.25252525252523 347.34545846893343 L 180.30303030303028 348.1894356323769 L 185.35353535353534 349.86550115172895 L 190.4040404040404 351.1047185772718 L 195.45454545454544 352.3357941161834 L 200.50505050505052 353.4591313047379 L 205.55555555555551 354.85629438330926 L 210.60606060606057 356.0431339752736 L 215.65656565656565 356.8437268735991 L 220.70707070707067 357.50003576624465 L 225.75757575757575 359.0919608705983 L 230.80808080808077 359.93561341269753 L 235.85858585858585 360.85263277433233 L 240.9090909090909 361.5874089945723 L 245.95959595959596 362.5132817744932 L 251.010101010101 363.3575284575029 L 256.06060606060606 364.03833847552045 L 261.1111111111111 364.8815154653182 L 266.16161616161617 365.7123149187677 L 271.21212121212125 366.47764148131165 L 276.26262626262627 367.164442020889 L 281.3131313131313 367.4783161227255 L 286.3636363636363 368.4247454594328 L 291.41414141414134 368.1958382992646 L 296.4646464646464 369.48801332491956 L 301.5151515151515 369.70120809330604 L 306.5656565656565 370.33926631878785 L 311.61616161616155 370.9593841240733 L 316.66666666666663 371.5988534342177 L 321.7171717171717 371.93347934479306 L 326.7676767676768 372.3715456670419 L 331.8181818181818 372.78761200549394 L 336.8686868686868 373.36522477837997 L 341.9191919191918 373.6182221963146 L 346.9696969696969 373.91791717323537 L 352.02020202020196 374.48451318411657 L 357.070707070707 374.23326105510665 L 362.12121212121207 374.75837021861656 L 367.1717171717171 375.5050975353578 L 372.2222222222222 375.89988500458577 L 377.27272727272725 376.1672412271471 L 382.3232323232323 376.63178036012835 L 387.3737373737373 376.9492947729068 L 392.4242424242424 377.1287492851892 L 397.47474747474746 377.4581872435798 L 402.5252525252525 377.5615438047216 L 407.57575757575756 378.07166049315794 L 412.6262626262626 378.4809313449455 L 417.67676767676767 378.6330206372649 L 422.7272727272727 378.88049709661743 L 427.77777777777777 379.05313575853484 L 432.8282828282828 379.4366465291097 L 437.8787878787879 379.78876006701 L 442.9292929292929 379.93995455436936 L 447.979797979798 380.19255667694017 L 453.03030303030295 380.3857758529387 L 458.080808080808 380.5955543110894 L 463.13131313131305 380.5871165518678 L 468.18181818181813 380.9413754655157 L 473.23232323232315 381.0347442304635 L 478.28282828282823 381.12366532363535 L 483.33333333333326 381.39929280221963 L 488.38383838383834 381.4915008362354 L 493.43434343434336 381.6867396121839 L 498.48484848484844 381.4478686131165 L 503.5353535353535 382.1773658434516 L 508.58585858585855 382.35537093939973 L 513.6363636363636 382.2618057246347 L 518.6868686868686 382.6264992380243 L 523.7373737373737 382.8235779342119 L 528.7878787878788 382.9366096488508 L 533.8383838383837 383.1359523093952 L 538.8888888888888 383.3748280999215 L 543.9393939393939 383.0735399628979 L 548.9898989898988 383.73192954659515 L 554.0404040404039 383.68826018966934 L 559.090909090909 384.00652566363914 L 564.1414141414141 383.475794920909 L 569.1919191919192 384.24217081296433 L 574.2424242424242 384.3957430618307 L 579.2929292929292 384.08391970442733 L 584.3434343434343 384.5359315679679 L 589.3939393939393 384.6605514260921 L 594.4444444444443 384.78507186144293 L 599.4949494949494 384.96044045710056 L 604.5454545454545 385.0815074484088 L 609.5959595959596 385.1982202013907 L 614.6464646464647 385.09396045023567 L 619.6969696969697 384.9685332312774 L 624.7474747474747 385.28798339347406 L 629.7979797979798 385.06187564320095 L 634.8484848484848 385.6444284102707 L 639.8989898989898 385.68750602201544 L 644.9494949494949 385.6752195233873 L 650 385.62909693947597" /><text  class="poloto_text" alignment-baseline="middle" text-anchor="start" font-size="large" x="675" y="150" >brocc_par</text><line  class="poloto1stroke" stroke="black" x1="680" x2="730" y1="131.25" y2="131.25" /><path  class="poloto1stroke" fill="none" stroke="black" d=" M 150 365.9607664400177 L 155.05050505050505 371.55989408144575 L 160.1010101010101 370.71038038717853 L 165.15151515151516 370.0641203818286 L 170.2020202020202 370.3979916376184 L 175.25252525252523 371.4605084419138 L 180.30303030303028 371.9348341298129 L 185.35353535353534 373.0604053361057 L 190.4040404040404 373.6294569697019 L 195.45454545454544 374.06236768211403 L 200.50505050505052 375.476758451362 L 205.55555555555551 375.78979644361067 L 210.60606060606057 376.2497046315109 L 215.65656565656565 377.23014973321216 L 220.70707070707067 377.43171083925324 L 225.75757575757575 378.6735084654439 L 230.80808080808077 379.1842827816219 L 235.85858585858585 379.8151969418002 L 240.9090909090909 380.24321557461815 L 245.95959595959596 380.22973240911574 L 251.010101010101 381.5076025340573 L 256.06060606060606 381.4732825114196 L 261.1111111111111 381.71520207624775 L 266.16161616161617 382.7199662278807 L 271.21212121212125 382.4566659753257 L 276.26262626262627 382.46134004353735 L 281.3131313131313 383.69037801452794 L 286.3636363636363 384.6853819642673 L 291.41414141414134 384.20089598765185 L 296.4646464646464 384.49439321241283 L 301.5151515151515 384.2458662256842 L 306.5656565656565 385.5935359289686 L 311.61616161616155 385.56596467627054 L 316.66666666666663 386.26928736419325 L 321.7171717171717 386.01628395693484 L 326.7676767676768 386.24167897768825 L 331.8181818181818 386.6945473145172 L 336.8686868686868 385.93438474686315 L 341.9191919191918 386.855869748245 L 346.9696969696969 387.26310542784097 L 352.02020202020196 387.20722503776557 L 357.070707070707 388.6463445266859 L 362.12121212121207 387.89348294461615 L 367.1717171717171 386.7685669703356 L 372.2222222222222 387.96602203961714 L 377.27272727272725 388.49598015959066 L 382.3232323232323 387.37618026561046 L 387.3737373737373 388.01936056071634 L 392.4242424242424 388.8125290933894 L 397.47474747474746 388.3902685963719 L 402.5252525252525 389.2076974836044 L 407.57575757575756 389.24062798314486 L 412.6262626262626 389.5535018679243 L 417.67676767676767 389.37972763023436 L 422.7272727272727 389.63890962381663 L 427.77777777777777 389.3490383356206 L 432.8282828282828 390.08865872086517 L 437.8787878787879 389.9548368658158 L 442.9292929292929 389.44420389767697 L 447.979797979798 389.97737469088054 L 453.03030303030295 390.41742228140777 L 458.080808080808 390.34857620339716 L 463.13131313131305 390.1137911209546 L 468.18181818181813 390.90301748077155 L 473.23232323232315 390.529814336276 L 478.28282828282823 390.1278588444497 L 483.33333333333326 391.112912131802 L 488.38383838383834 391.115115005057 L 493.43434343434336 391.13572905935087 L 498.48484848484844 390.8958626346854 L 503.5353535353535 391.485355830053 L 508.58585858585855 391.3209357181101 L 513.6363636363636 391.4675184262242 L 518.6868686868686 391.4185125818861 L 523.7373737373737 391.44634976055625 L 528.7878787878788 391.51269829058594 L 533.8383838383837 391.4984556788389 L 538.8888888888888 392.97836725358195 L 543.9393939393939 391.88450831839 L 548.9898989898988 392.0118820675492 L 554.0404040404039 392.2447314005735 L 559.090909090909 391.6345403003803 L 564.1414141414141 392.7989283135411 L 569.1919191919192 392.2337733339409 L 574.2424242424242 392.4935422812453 L 579.2929292929292 392.4983744676025 L 584.3434343434343 393.62369412230015 L 589.3939393939393 393.38367197521853 L 594.4444444444443 391.95905743042306 L 599.4949494949494 392.18735128384486 L 604.5454545454545 392.85211111222424 L 609.5959595959596 392.2765514795009 L 614.6464646464647 392.915728510649 L 619.6969696969697 393.13080871813463 L 624.7474747474747 392.84021631536575 L 629.7979797979798 392.8471028397504 L 634.8484848484848 392.67482713084894 L 639.8989898989898 393.22263103970437 L 644.9494949494949 393.28993905939006 L 650 393.10185752525723" /><text  class="poloto_text" alignment-baseline="middle" text-anchor="start" font-size="large" x="675" y="200" >naive</text><line  class="poloto2stroke" stroke="black" x1="680" x2="730" y1="181.25" y2="181.25" /><path  class="poloto2stroke" fill="none" stroke="black" d=" M 150 400 L 155.05050505050505 400 L 160.1010101010101 400 L 165.15151515151516 400 L 170.2020202020202 400 L 175.25252525252523 400 L 180.30303030303028 400 L 185.35353535353534 400 L 190.4040404040404 400 L 195.45454545454544 400 L 200.50505050505052 400 L 205.55555555555551 400 L 210.60606060606057 400 L 215.65656565656565 400 L 220.70707070707067 400 L 225.75757575757575 400 L 230.80808080808077 400 L 235.85858585858585 400 L 240.9090909090909 400 L 245.95959595959596 400 L 251.010101010101 400 L 256.06060606060606 400 L 261.1111111111111 400 L 266.16161616161617 400 L 271.21212121212125 400 L 276.26262626262627 400 L 281.3131313131313 400 L 286.3636363636363 400 L 291.41414141414134 400 L 296.4646464646464 400 L 301.5151515151515 400 L 306.5656565656565 400 L 311.61616161616155 400 L 316.66666666666663 400 L 321.7171717171717 400 L 326.7676767676768 400 L 331.8181818181818 400 L 336.8686868686868 400 L 341.9191919191918 400 L 346.9696969696969 400 L 352.02020202020196 400 L 357.070707070707 400 L 362.12121212121207 400 L 367.1717171717171 400 L 372.2222222222222 400 L 377.27272727272725 400 L 382.3232323232323 400 L 387.3737373737373 400 L 392.4242424242424 400 L 397.47474747474746 400 L 402.5252525252525 400 L 407.57575757575756 400 L 412.6262626262626 400 L 417.67676767676767 400 L 422.7272727272727 400 L 427.77777777777777 400 L 432.8282828282828 400 L 437.8787878787879 400 L 442.9292929292929 400 L 447.979797979798 400 L 453.03030303030295 400 L 458.080808080808 400 L 463.13131313131305 400 L 468.18181818181813 400 L 473.23232323232315 400 L 478.28282828282823 400 L 483.33333333333326 400 L 488.38383838383834 400 L 493.43434343434336 400 L 498.48484848484844 400 L 503.5353535353535 400 L 508.58585858585855 400 L 513.6363636363636 400 L 518.6868686868686 400 L 523.7373737373737 400 L 528.7878787878788 400 L 533.8383838383837 400 L 538.8888888888888 400 L 543.9393939393939 400 L 548.9898989898988 400 L 554.0404040404039 400 L 559.090909090909 400 L 564.1414141414141 400 L 569.1919191919192 400 L 574.2424242424242 400 L 579.2929292929292 400 L 584.3434343434343 400 L 589.3939393939393 400 L 594.4444444444443 400 L 599.4949494949494 400 L 604.5454545454545 400 L 609.5959595959596 400 L 614.6464646464647 400 L 619.6969696969697 400 L 624.7474747474747 400 L 629.7979797979798 400 L 634.8484848484848 400 L 639.8989898989898 400 L 644.9494949494949 400 L 650 400" /><text  class="poloto_text" alignment-baseline="middle" text-anchor="start" font-size="large" x="675" y="250" >nosort</text><line  class="poloto3stroke" stroke="black" x1="680" x2="730" y1="231.25" y2="231.25" /><path  class="poloto3stroke" fill="none" stroke="black" d=" M 150 227.149815533422 L 155.05050505050505 232.60928053133318 L 160.1010101010101 239.60746387762015 L 165.15151515151516 242.73385970198507 L 170.2020202020202 251.81004728934408 L 175.25252525252523 253.3803724967237 L 180.30303030303028 254.20022466432326 L 185.35353535353534 259.61561542702685 L 190.4040404040404 261.92642468012787 L 195.45454545454544 264.34098099827565 L 200.50505050505052 266.13016807212205 L 205.55555555555551 271.1999065793276 L 210.60606060606057 275.86075036427366 L 215.65656565656565 278.1778040862592 L 220.70707070707067 280.9921717183504 L 225.75757575757575 282.6088962163961 L 230.80808080808077 286.1077417283357 L 235.85858585858585 288.7341763615217 L 240.9090909090909 286.0495195126955 L 245.95959595959596 293.76676309384646 L 251.010101010101 295.4100214937262 L 256.06060606060606 298.8958641839238 L 261.1111111111111 300.7341277761279 L 266.16161616161617 301.54996949258117 L 271.21212121212125 304.89566919550157 L 276.26262626262627 307.0447403558103 L 281.3131313131313 308.5597421802182 L 286.3636363636363 309.8356705664178 L 291.41414141414134 309.9223348824213 L 296.4646464646464 312.3744191049779 L 301.5151515151515 315.55367310668163 L 306.5656565656565 315.8492210758759 L 311.61616161616155 316.6836740167793 L 316.66666666666663 318.76000723654045 L 321.7171717171717 321.48898388284573 L 326.7676767676768 321.56468054929877 L 331.8181818181818 324.0250276428251 L 336.8686868686868 324.5780051294884 L 341.9191919191918 326.04936394999476 L 346.9696969696969 327.04658754309554 L 352.02020202020196 328.38581589356403 L 357.070707070707 328.37159364551763 L 362.12121212121207 330.93462769379664 L 367.1717171717171 331.7369646831822 L 372.2222222222222 333.5199659835163 L 377.27272727272725 332.91812400055403 L 382.3232323232323 334.7756193111432 L 387.3737373737373 336.4078777191245 L 392.4242424242424 336.10463945830577 L 397.47474747474746 336.0071176963077 L 402.5252525252525 336.97984615336026 L 407.57575757575756 337.3790106203446 L 412.6262626262626 338.5921589155721 L 417.67676767676767 339.4379987586847 L 422.7272727272727 341.52064712134995 L 427.77777777777777 342.17300066462724 L 432.8282828282828 341.66960998670055 L 437.8787878787879 342.62682489751796 L 442.9292929292929 344.29878653227416 L 447.979797979798 345.7246827923404 L 453.03030303030295 345.1471562657156 L 458.080808080808 346.2976095183674 L 463.13131313131305 346.2073623889294 L 468.18181818181813 346.80180036993977 L 473.23232323232315 347.02118450543276 L 478.28282828282823 349.08134295762284 L 483.33333333333326 348.8794500430491 L 488.38383838383834 349.34909567341276 L 493.43434343434336 350.0369060129652 L 498.48484848484844 350.5683914104809 L 503.5353535353535 351.62783449385597 L 508.58585858585855 351.27852276158023 L 513.6363636363636 351.63233726741 L 518.6868686868686 352.2870014917688 L 523.7373737373737 353.59136838473756 L 528.7878787878788 353.01386821113704 L 533.8383838383837 354.69132684718056 L 538.8888888888888 354.8241760360619 L 543.9393939393939 354.8898621468909 L 548.9898989898988 355.84640864918396 L 554.0404040404039 355.76982316709456 L 559.090909090909 357.0018006981547 L 564.1414141414141 357.31823463693854 L 569.1919191919192 357.5788025600238 L 574.2424242424242 357.650606166075 L 579.2929292929292 358.1263932489557 L 584.3434343434343 358.2141152795238 L 589.3939393939393 359.3180374763882 L 594.4444444444443 359.30945597339786 L 599.4949494949494 359.5307375266375 L 604.5454545454545 359.95468102361326 L 609.5959595959596 360.3552517838013 L 614.6464646464647 360.5231504949463 L 619.6969696969697 361.0550635301739 L 624.7474747474747 361.8252857659063 L 629.7979797979798 361.37268934437304 L 634.8484848484848 361.8549712498687 L 639.8989898989898 362.1459038462235 L 644.9494949494949 362.85247873691264 L 650 363.1401255902883" /><text  class="poloto_text" alignment-baseline="middle" text-anchor="start" font-size="large" x="675" y="300" >nosort_par</text><line  class="poloto4stroke" stroke="black" x1="680" x2="730" y1="281.25" y2="281.25" /><path  class="poloto4stroke" fill="none" stroke="black" d=" M 150 286.8441099108138 L 155.05050505050505 294.5259709633035 L 160.1010101010101 300.28837236011924 L 165.15151515151516 295.06439918484665 L 170.2020202020202 301.01223603258666 L 175.25252525252523 302.4812757869583 L 180.30303030303028 308.65061339718517 L 185.35353535353534 308.83942443094406 L 190.4040404040404 315.2970569393704 L 195.45454545454544 315.6828472465436 L 200.50505050505052 322.07584776511123 L 205.55555555555551 320.7520778590998 L 210.60606060606057 325.2221664758155 L 215.65656565656565 323.54535947819 L 220.70707070707067 322.3516812764306 L 225.75757575757575 324.8808361162959 L 230.80808080808077 332.25615280128716 L 235.85858585858585 333.1981704021606 L 240.9090909090909 333.99199536471065 L 245.95959595959596 337.04432481653237 L 251.010101010101 338.8366850340724 L 256.06060606060606 338.3194170931441 L 261.1111111111111 338.54070942716635 L 266.16161616161617 342.64470542447737 L 271.21212121212125 345.3381557983527 L 276.26262626262627 345.4158469095962 L 281.3131313131313 347.47699839165494 L 286.3636363636363 348.0461758010488 L 291.41414141414134 348.5918139704561 L 296.4646464646464 347.3281529170488 L 301.5151515151515 347.16037758597184 L 306.5656565656565 351.8621847513983 L 311.61616161616155 352.16469950191464 L 316.66666666666663 353.49373282558935 L 321.7171717171717 354.73522739200104 L 326.7676767676768 355.01858229601675 L 331.8181818181818 352.2289505707863 L 336.8686868686868 353.85469499031683 L 341.9191919191918 354.7718880423388 L 346.9696969696969 358.08356000161774 L 352.02020202020196 356.55244689647003 L 357.070707070707 358.4616336641422 L 362.12121212121207 361.75661577401235 L 367.1717171717171 362.2475139205758 L 372.2222222222222 362.7408712834485 L 377.27272727272725 363.85578628502293 L 382.3232323232323 363.994603236034 L 387.3737373737373 362.7599927982775 L 392.4242424242424 363.9354107499552 L 397.47474747474746 363.82082899834404 L 402.5252525252525 365.19692522975015 L 407.57575757575756 364.7363773820793 L 412.6262626262626 365.0450371787069 L 417.67676767676767 364.55356285920396 L 422.7272727272727 368.14015555687115 L 427.77777777777777 368.1520982683192 L 432.8282828282828 367.4678348062591 L 437.8787878787879 369.39832440045 L 442.9292929292929 369.44922047534635 L 447.979797979798 367.90733976405954 L 453.03030303030295 371.0470474592692 L 458.080808080808 370.5831467881938 L 463.13131313131305 371.0749888521716 L 468.18181818181813 371.79041236968794 L 473.23232323232315 370.1926153323836 L 478.28282828282823 371.012669939124 L 483.33333333333326 370.73498692464756 L 488.38383838383834 371.70712243865427 L 493.43434343434336 373.20041536039685 L 498.48484848484844 372.51838112461604 L 503.5353535353535 372.6029288136257 L 508.58585858585855 373.3359010495687 L 513.6363636363636 373.814237188614 L 518.6868686868686 373.7484193126637 L 523.7373737373737 374.6167790128699 L 528.7878787878788 375.4291002048552 L 533.8383838383837 374.9194315178313 L 538.8888888888888 375.227778671762 L 543.9393939393939 375.18106673839907 L 548.9898989898988 375.1260895383369 L 554.0404040404039 376.05391603564715 L 559.090909090909 373.3985266159895 L 564.1414141414141 376.6034688270216 L 569.1919191919192 376.1721716384129 L 574.2424242424242 376.90504085798835 L 579.2929292929292 379.41820659931716 L 584.3434343434343 376.6598882562295 L 589.3939393939393 376.7437902961449 L 594.4444444444443 377.99114122326563 L 599.4949494949494 377.06172156585245 L 604.5454545454545 379.5006508378451 L 609.5959595959596 377.8482012218228 L 614.6464646464647 378.2894023560937 L 619.6969696969697 378.2440979137992 L 624.7474747474747 378.9130442794414 L 629.7979797979798 379.75726940088583 L 634.8484848484848 380.1949979252783 L 639.8989898989898 378.9588506270616 L 644.9494949494949 378.49531410686694 L 650 380.7942273652447" /><text  class="poloto_text" alignment-baseline="middle" text-anchor="start" font-size="large" x="675" y="350" >sweep</text><line  class="poloto5stroke" stroke="black" x1="680" x2="730" y1="331.25" y2="331.25" /><path  class="poloto5stroke" fill="none" stroke="black" d=" M 150 100 L 155.05050505050505 107.50123023703355 L 160.1010101010101 115.12001891955481 L 165.15151515151516 122.27517884629646 L 170.2020202020202 127.95043438548356 L 175.25252525252523 134.64533275422696 L 180.30303030303028 140.66047522592316 L 185.35353535353534 145.95484571404336 L 190.4040404040404 151.61240160384662 L 195.45454545454544 157.22019819239094 L 200.50505050505052 163.05930006631098 L 205.55555555555551 167.7787913088796 L 210.60606060606057 172.6002939104881 L 215.65656565656565 176.72070424831793 L 220.70707070707067 180.02837653723327 L 225.75757575757575 184.92310461033819 L 230.80808080808077 189.72909845717058 L 235.85858585858585 193.58347142151672 L 240.9090909090909 197.36277060907415 L 245.95959595959596 200.43860815639914 L 251.010101010101 204.55824467360756 L 256.06060606060606 208.29643553905123 L 261.1111111111111 211.31240141099045 L 266.16161616161617 214.57626179707603 L 271.21212121212125 217.94726399687875 L 276.26262626262627 220.66988836647297 L 281.3131313131313 223.65490860074428 L 286.3636363636363 226.0932257638553 L 291.41414141414134 228.71422568472033 L 296.4646464646464 231.55644846345277 L 301.5151515151515 234.36203694487168 L 306.5656565656565 236.37324465450166 L 311.61616161616155 239.35628601622406 L 316.66666666666663 241.4555319927132 L 321.7171717171717 243.90940822091932 L 326.7676767676768 245.94844113057204 L 331.8181818181818 248.05999037579568 L 336.8686868686868 246.75697467425258 L 341.9191919191918 252.46808829440226 L 346.9696969696969 254.4765816425336 L 352.02020202020196 256.8436186664843 L 357.070707070707 258.2989320888115 L 362.12121212121207 259.93798478559256 L 367.1717171717171 262.06521767384413 L 372.2222222222222 263.8747660525245 L 377.27272727272725 265.8474384535001 L 382.3232323232323 267.3075421369186 L 387.3737373737373 268.6502646588308 L 392.4242424242424 270.56154768979627 L 397.47474747474746 271.5547213022144 L 402.5252525252525 273.424795390428 L 407.57575757575756 275.0530169942388 L 412.6262626262626 276.5678690855543 L 417.67676767676767 277.7410254686048 L 422.7272727272727 279.35703843499545 L 427.77777777777777 280.533783620804 L 432.8282828282828 281.3175776640295 L 437.8787878787879 283.40154248004296 L 442.9292929292929 284.3908829252962 L 447.979797979798 285.5885464230423 L 453.03030303030295 286.8508215469466 L 458.080808080808 287.82190773144185 L 463.13131313131305 289.3036173011581 L 468.18181818181813 290.25558197082444 L 473.23232323232315 291.0932811251706 L 478.28282828282823 292.07966404238323 L 483.33333333333326 293.52598150052034 L 488.38383838383834 288.49537124501495 L 493.43434343434336 295.556752737068 L 498.48484848484844 296.33887456111785 L 503.5353535353535 296.9509403196276 L 508.58585858585855 298.2155656541498 L 513.6363636363636 298.9357962028638 L 518.6868686868686 300.1031824714664 L 523.7373737373737 301.10301860756294 L 528.7878787878788 301.45722721089186 L 533.8383838383837 302.76631488879707 L 538.8888888888888 303.4619784295785 L 543.9393939393939 304.2747548101646 L 548.9898989898988 305.1298242010914 L 554.0404040404039 305.9435145524734 L 559.090909090909 307.03013838464165 L 564.1414141414141 307.3377033328977 L 569.1919191919192 308.1804203426357 L 574.2424242424242 308.9227299342194 L 579.2929292929292 309.68745516866437 L 584.3434343434343 310.30333732423264 L 589.3939393939393 311.04080993800017 L 594.4444444444443 311.5750983390052 L 599.4949494949494 312.64168668554856 L 604.5454545454545 313.159105557434 L 609.5959595959596 313.42419781563854 L 614.6464646464647 314.3779916247613 L 619.6969696969697 314.954853336456 L 624.7474747474747 315.7297316724289 L 629.7979797979798 316.13014671020085 L 634.8484848484848 316.4793266773553 L 639.8989898989898 317.29377288138767 L 644.9494949494949 317.5722201335676 L 650 318.55334202884643" /><text  class="poloto_text" alignment-baseline="start" text-anchor="middle" font-size="x-large" x="400" y="37.5" >Bench of space partitioning algs with abspiral(30_000,grow)</text><text  class="poloto_text" alignment-baseline="start" text-anchor="middle" font-size="x-large" x="400" y="481.25" >Grow</text><text  class="poloto_text" alignment-baseline="start" text-anchor="middle" font-size="x-large" transform="rotate(-90,37.5,250)" x="37.5" y="250" >Time in Seconds</text><path  stroke="black" fill="none" class="poloto_axis_lines" d=" M 150 100 L 150 400 L 650 400" /><line  class="poloto_axis_lines" stroke="black" x1="150" x2="150" y1="400" y2="405" /><text  class="poloto_text" alignment-baseline="start" text-anchor="middle" x="150" y="430" > 0.20</text><line  class="poloto_axis_lines" stroke="black" x1="213.1313131313131" x2="213.1313131313131" y1="400" y2="405" /><text  class="poloto_text" alignment-baseline="start" text-anchor="middle" x="213.1313131313131" y="430" > 0.25</text><line  class="poloto_axis_lines" stroke="black" x1="276.2626262626262" x2="276.2626262626262" y1="400" y2="405" /><text  class="poloto_text" alignment-baseline="start" text-anchor="middle" x="276.2626262626262" y="430" > 0.30</text><line  class="poloto_axis_lines" stroke="black" x1="339.3939393939394" x2="339.3939393939394" y1="400" y2="405" /><text  class="poloto_text" alignment-baseline="start" text-anchor="middle" x="339.3939393939394" y="430" > 0.35</text><line  class="poloto_axis_lines" stroke="black" x1="402.5252525252525" x2="402.5252525252525" y1="400" y2="405" /><text  class="poloto_text" alignment-baseline="start" text-anchor="middle" x="402.5252525252525" y="430" > 0.40</text><line  class="poloto_axis_lines" stroke="black" x1="465.6565656565656" x2="465.6565656565656" y1="400" y2="405" /><text  class="poloto_text" alignment-baseline="start" text-anchor="middle" x="465.6565656565656" y="430" > 0.45</text><line  class="poloto_axis_lines" stroke="black" x1="528.7878787878788" x2="528.7878787878788" y1="400" y2="405" /><text  class="poloto_text" alignment-baseline="start" text-anchor="middle" x="528.7878787878788" y="430" > 0.50</text><line  class="poloto_axis_lines" stroke="black" x1="591.9191919191919" x2="591.9191919191919" y1="400" y2="405" /><text  class="poloto_text" alignment-baseline="start" text-anchor="middle" x="591.9191919191919" y="430" > 0.55</text><line  class="poloto_axis_lines" stroke="black" x1="150" x2="144" y1="400" y2="400" /><text  class="poloto_text" alignment-baseline="middle" text-anchor="end" x="135" y="400" > 0e0</text><line  class="poloto_axis_lines" stroke="black" x1="150" x2="144" y1="340.1067630488866" y2="340.1067630488866" /><text  class="poloto_text" alignment-baseline="middle" text-anchor="end" x="135" y="340.1067630488866" > 0.05</text><line  class="poloto_axis_lines" stroke="black" x1="150" x2="144" y1="280.21352609777324" y2="280.21352609777324" /><text  class="poloto_text" alignment-baseline="middle" text-anchor="end" x="135" y="280.21352609777324" > 0.10</text><line  class="poloto_axis_lines" stroke="black" x1="150" x2="144" y1="220.3202891466599" y2="220.3202891466599" /><text  class="poloto_text" alignment-baseline="middle" text-anchor="end" x="135" y="220.3202891466599" > 0.15</text><line  class="poloto_axis_lines" stroke="black" x1="150" x2="144" y1="160.42705219554648" y2="160.42705219554648" /><text  class="poloto_text" alignment-baseline="middle" text-anchor="end" x="135" y="160.42705219554648" > 0.20</text><line  class="poloto_axis_lines" stroke="black" x1="150" x2="144" y1="100.53381524443313" y2="100.53381524443313" /><text  class="poloto_text" alignment-baseline="middle" text-anchor="end" x="135" y="100.53381524443313" > 0.25</text></svg>