<svg  width="800" class="poloto" height="500" viewBox="0 0 800 500" xmlns="http://www.w3.org/2000/svg" ><rect  class="poloto_background" fill="white" x="0" y="0" width="800" height="500" /><text  class="poloto_text" alignment-baseline="middle" text-anchor="start" font-size="large" x="675" y="100" >brocc</text><line  class="poloto0stroke" stroke="black" x1="680" x2="730" y1="81.25" y2="81.25" /><path  class="poloto0stroke" fill="none" stroke="black" d=" M 150 129.9962936644879 L 155.05050505050505 125.8728585962524 L 160.1010101010101 130.25925277954434 L 165.15151515151516 131.86680740238944 L 170.2020202020202 131.71439160958602 L 175.25252525252526 131.9200393352475 L 180.3030303030303 131.4817630880491 L 185.35353535353536 131.5555581351577 L 190.4040404040404 130.5919440683292 L 195.45454545454544 131.86962653902054 L 200.50505050505052 129.96515049629238 L 205.55555555555554 132.04691706680438 L 210.6060606060606 132.6252380719427 L 215.65656565656565 134.46222066709066 L 220.70707070707073 121.87396303448543 L 225.75757575757575 139.90033522851178 L 230.8080808080808 142.1808343483607 L 235.85858585858585 148.42863811655138 L 240.90909090909088 152.48617172024547 L 245.95959595959593 158.02955616010374 L 251.010101010101 162.6886769377211 L 256.06060606060606 168.247351048014 L 261.1111111111111 172.965856109608 L 266.16161616161617 176.1031406011228 L 271.2121212121212 184.6542784958745 L 276.2626262626262 190.07023796000638 L 281.3131313131313 196.65988691945478 L 286.3636363636364 202.08956065413915 L 291.4141414141414 209.0931749531318 L 296.4646464646464 213.99661537772698 L 301.5151515151515 220.7780651270311 L 306.5656565656566 226.61646392375727 L 311.61616161616155 232.89745058841186 L 316.66666666666663 238.54973661801444 L 321.7171717171717 244.78445627560544 L 326.76767676767673 249.70598892410968 L 331.8181818181818 256.1297565675519 L 336.86868686868684 255.25728352969173 L 341.9191919191919 264.1977939426704 L 346.969696969697 271.38717276249685 L 352.020202020202 278.019059021942 L 357.07070707070704 281.78865927665925 L 362.1212121212121 286.51175787264634 L 367.1717171717172 289.99388910677317 L 372.2222222222222 294.3113305246994 L 377.27272727272725 298.4690263945813 L 382.32323232323233 301.24214476598263 L 387.37373737373736 305.5315772323209 L 392.4242424242424 307.7267228448737 L 397.47474747474746 313.0717727311547 L 402.52525252525254 316.42181912253545 L 407.57575757575756 319.3682314809671 L 412.6262626262626 322.39731087531703 L 417.67676767676767 325.36020689146244 L 422.7272727272727 328.0582698958495 L 427.77777777777777 330.7347250471169 L 432.82828282828285 333.2928262093474 L 437.8787878787879 335.50891634875376 L 442.9292929292929 337.8391483554069 L 447.9797979797979 340.1079563498151 L 453.030303030303 342.9363463823429 L 458.080808080808 344.7348892203678 L 463.13131313131305 346.98495824775733 L 468.1818181818182 348.2378654824082 L 473.2323232323232 350.3246069999162 L 478.28282828282823 352.3647498472277 L 483.3333333333333 353.98179003567867 L 488.38383838383834 355.93205217392745 L 493.43434343434336 357.733148818077 L 498.4848484848484 359.7675373100296 L 503.53535353535347 360.5104627281117 L 508.5858585858586 362.759155353499 L 513.6363636363636 363.42516809102165 L 518.6868686868686 365.79976004172323 L 523.7373737373737 366.11142388787135 L 528.7878787878788 368.3457720827533 L 533.8383838383838 370.59079983052015 L 538.8888888888889 371.38113649347497 L 543.939393939394 373.11090898085723 L 548.989898989899 374.73378644045033 L 554.040404040404 375.1964730942429 L 559.090909090909 376.8518535408771 L 564.1414141414141 378.2321857512543 L 569.1919191919192 379.9184108692642 L 574.2424242424242 381.5383862764429 L 579.2929292929293 382.3741607886286 L 584.3434343434344 383.624646882408 L 589.3939393939394 384.4602223967139 L 594.4444444444443 385.9701022268692 L 599.4949494949494 386.93260522220186 L 604.5454545454545 388.7448457476226 L 609.5959595959596 389.41364445546304 L 614.6464646464647 390.70727992285515 L 619.6969696969697 392.5431846128206 L 624.7474747474747 393.00121139959356 L 629.7979797979797 393.74606046384747 L 634.8484848484848 394.76733416636057 L 639.8989898989898 395.0014220056831 L 644.9494949494949 396.349931138442 L 650 397.36924802846994" /><text  class="poloto_text" alignment-baseline="middle" text-anchor="start" font-size="large" x="675" y="150" >brocc_par</text><line  class="poloto1stroke" stroke="black" x1="680" x2="730" y1="131.25" y2="131.25" /><path  class="poloto1stroke" fill="none" stroke="black" d=" M 150 119.99706478127229 L 155.05050505050505 125.74050842299982 L 160.1010101010101 125.8110531714043 L 165.15151515151516 124.65106136348368 L 170.2020202020202 124.45866357998841 L 175.25252525252526 123.67258878829358 L 180.3030303030303 124.75075930128526 L 185.35353535353536 125.5515267697752 L 190.4040404040404 122.59499868578479 L 195.45454545454544 125.17518861267797 L 200.50505050505052 124.92166531375739 L 205.55555555555554 125.59379723608527 L 210.6060606060606 100 L 215.65656565656565 127.85058244191953 L 220.70707070707073 128.52352693892334 L 225.75757575757575 132.55220585004014 L 230.8080808080808 135.2476984651459 L 235.85858585858585 140.88061536777707 L 240.90909090909088 146.947198400057 L 245.95959595959593 151.13694951175037 L 251.010101010101 155.9146564425978 L 256.06060606060606 161.0887671500933 L 261.1111111111111 167.70863062096458 L 266.16161616161617 172.27778777373607 L 271.2121212121212 161.22546211038906 L 276.2626262626262 179.92756477173694 L 281.3131313131313 195.34300186643424 L 286.3636363636364 200.22871489656666 L 291.4141414141414 206.45056602459445 L 296.4646464646464 212.48534256241277 L 301.5151515151515 219.35071966754086 L 306.5656565656566 224.69112626995886 L 311.61616161616155 228.91216979825757 L 316.66666666666663 236.3837110285454 L 321.7171717171717 242.70317061663638 L 326.76767676767673 248.04218423389545 L 331.8181818181818 251.94254267882656 L 336.86868686868684 195.381027044641 L 341.9191919191919 257.2721868125763 L 346.969696969697 270.22325074644937 L 352.020202020202 275.40445904499256 L 357.07070707070704 271.00736872565903 L 362.1212121212121 279.6346398926075 L 367.1717171717172 283.7298835945319 L 372.2222222222222 287.325990864339 L 377.27272727272725 291.2794983263449 L 382.32323232323233 293.710224262319 L 387.37373737373736 298.7497294872571 L 392.4242424242424 302.1078021264582 L 397.47474747474746 309.5488303485033 L 402.52525252525254 313.40880880698285 L 407.57575757575756 317.089175095747 L 412.6262626262626 320.33317220032785 L 417.67676767676767 322.92841963346245 L 422.7272727272727 326.8876151182006 L 427.77777777777777 329.446727852987 L 432.82828282828285 331.6925681754299 L 437.8787878787879 334.6225466256178 L 442.9292929292929 334.4836958549571 L 447.9797979797979 336.8450876129624 L 453.030303030303 336.70862481685975 L 458.080808080808 340.4683249270548 L 463.13131313131305 343.91044100417645 L 468.1818181818182 345.42718626118636 L 473.2323232323232 348.5352512306775 L 478.28282828282823 349.63574267252494 L 483.3333333333333 293.8264556073042 L 488.38383838383834 350.0329092743791 L 493.43434343434336 354.39044876509377 L 498.4848484848484 355.4226507678416 L 503.53535353535347 359.1509092130214 L 508.5858585858586 360.98039622136196 L 513.6363636363636 363.4156825254158 L 518.6868686868686 366.7088984389446 L 523.7373737373737 365.5855222409151 L 528.7878787878788 363.7686715979447 L 533.8383838383838 368.40379654788427 L 538.8888888888889 345.6554368293668 L 543.939393939394 373.9436321922187 L 548.989898989899 371.7330476608214 L 554.040404040404 373.3055289073441 L 559.090909090909 373.21601302772785 L 564.1414141414141 373.25340804598176 L 569.1919191919192 377.90209801806407 L 574.2424242424242 379.1443091166733 L 579.2929292929293 379.534461043263 L 584.3434343434344 380.545635603374 L 589.3939393939394 380.7671368267964 L 594.4444444444443 383.59293988688626 L 599.4949494949494 391.80775478154595 L 604.5454545454545 385.3762593871031 L 609.5959595959596 391.629701428556 L 614.6464646464647 392.63881967724205 L 619.6969696969697 394.95822288260035 L 624.7474747474747 396.2797180531706 L 629.7979797979797 399.69518499754986 L 634.8484848484848 396.6448294132133 L 639.8989898989898 398.84002477523603 L 644.9494949494949 400 L 650 397.68159178404085" /><text  class="poloto_text" alignment-baseline="middle" text-anchor="start" font-size="large" x="675" y="200" >naive</text><line  class="poloto2stroke" stroke="black" x1="680" x2="730" y1="181.25" y2="181.25" /><path  class="poloto2stroke" fill="none" stroke="black" d=" M 150 155.66864531364138 L 155.05050505050505 155.52944629669088 L 160.1010101010101 155.63516392035768 L 165.15151515151516 155.05881631086123 L 170.2020202020202 155.64614197006242 L 175.25252525252526 155.04462112876573 L 180.3030303030303 155.56704031282464 L 185.35353535353536 155.6216154813717 L 190.4040404040404 155.59095322471916 L 195.45454545454544 155.6963723515662 L 200.50505050505052 155.66778298949538 L 205.55555555555554 155.22582528151977 L 210.6060606060606 156.1085798765052 L 215.65656565656565 158.18915245973818 L 220.70707070707073 159.9383438235618 L 225.75757575757575 162.655311626534 L 230.8080808080808 165.45592487166707 L 235.85858585858585 170.08103359498787 L 240.90909090909088 173.92278716430505 L 245.95959595959593 179.3459437184246 L 251.010101010101 184.47698796809067 L 256.06060606060606 189.8719034064291 L 261.1111111111111 195.59710557583767 L 266.16161616161617 201.25207807681815 L 271.2121212121212 207.01596875069959 L 276.2626262626262 212.51409775605015 L 281.3131313131313 218.25062622145313 L 286.3636363636364 223.7718223977089 L 291.4141414141414 228.83306814101985 L 296.4646464646464 234.29842882882286 L 301.5151515151515 239.5668645313641 L 306.5656565656566 244.9012348647602 L 311.61616161616155 249.51534895521968 L 316.66666666666663 254.13055753401827 L 321.7171717171717 257.85616267413354 L 326.76767676767673 262.9150701923563 L 331.8181818181818 266.60742610338104 L 336.86868686868684 267.9825512025691 L 341.9191919191919 275.01798857918004 L 346.969696969697 278.62096127584175 L 352.020202020202 281.2140694817681 L 357.07070707070704 283.47500047676573 L 362.1212121212121 288.1803219288201 L 367.1717171717172 291.942808009333 L 372.2222222222222 295.1880488506629 L 377.27272727272725 297.90624380722744 L 382.32323232323233 300.5435958751056 L 387.37373737373736 303.3498473935009 L 392.4242424242424 305.66235200569133 L 397.47474747474746 308.30436394058916 L 402.52525252525254 309.9724636683767 L 407.57575757575756 312.63031251787874 L 412.6262626262626 314.8373980032221 L 417.67676767676767 316.40846968142927 L 422.7272727272727 319.0139157559059 L 427.77777777777777 320.2092296874987 L 432.82828282828285 319.2082703518863 L 437.8787878787879 321.04971381617406 L 442.9292929292929 325.7280876386663 L 447.9797979797979 326.9450757560054 L 453.030303030303 328.8360531092175 L 458.080808080808 330.8074090227297 L 463.13131313131305 332.6138122770084 L 468.1818181818182 334.2060274799489 L 473.2323232323232 334.2253800237637 L 478.28282828282823 336.61181234831594 L 483.3333333333333 337.19892242648064 L 488.38383838383834 339.18193629912037 L 493.43434343434336 339.45315382619026 L 498.4848484848484 339.8829560803388 L 503.53535353535347 341.8793359772413 L 508.5858585858586 343.35588366252284 L 513.6363636363636 343.86528506860867 L 518.6868686868686 330.1859054776654 L 523.7373737373737 346.0727851328684 L 528.7878787878788 346.4045145985674 L 533.8383838383838 318.36854904841704 L 538.8888888888889 348.4380739326873 L 543.939393939394 348.8102497174645 L 548.989898989899 349.74882321774595 L 554.040404040404 350.6646114607854 L 559.090909090909 351.14215662293964 L 564.1414141414141 351.9248982001471 L 569.1919191919192 352.63162258725436 L 574.2424242424242 351.63996640252464 L 579.2929292929293 353.9629018202502 L 584.3434343434344 354.62073906154257 L 589.3939393939394 355.5945186033997 L 594.4444444444443 355.78721488371474 L 599.4949494949494 356.7601486845826 L 604.5454545454545 357.2749561997375 L 609.5959595959596 357.8704241888556 L 614.6464646464647 357.4714168566129 L 619.6969696969697 359.0210796795802 L 624.7474747474747 358.9653934395374 L 629.7979797979797 359.8650296879962 L 634.8484848484848 359.75128581650904 L 639.8989898989898 360.4195041138666 L 644.9494949494949 360.5047747053795 L 650 359.64397620980344" /><text  class="poloto_text" alignment-baseline="middle" text-anchor="start" font-size="large" x="675" y="250" >nosort</text><line  class="poloto3stroke" stroke="black" x1="680" x2="730" y1="231.25" y2="231.25" /><path  class="poloto3stroke" fill="none" stroke="black" d=" M 150 137.02222889233633 L 155.05050505050505 137.4995253071408 L 160.1010101010101 142.83596853511852 L 165.15151515151516 142.79742927905556 L 170.2020202020202 142.75505931380553 L 175.25252525252526 142.97987716855863 L 180.3030303030303 139.7314357779946 L 185.35353535353536 142.57485015045063 L 190.4040404040404 142.93168651532324 L 195.45454545454544 141.98148822222754 L 200.50505050505052 142.93248250684258 L 205.55555555555554 142.41299854151134 L 210.6060606060606 141.3584424435944 L 215.65656565656565 142.89883528199238 L 220.70707070707073 143.12872758268156 L 225.75757575757575 144.3229138596219 L 230.8080808080808 144.10955496611646 L 235.85858585858585 146.00953697339148 L 240.90909090909088 145.28326104458958 L 245.95959595959593 148.27831180148632 L 251.010101010101 149.08413713275561 L 256.06060606060606 151.77548395869798 L 261.1111111111111 154.0776240979799 L 266.16161616161617 155.56042363331989 L 271.2121212121212 158.495227782094 L 276.2626262626262 158.2865950882348 L 281.3131313131313 162.68695228942914 L 286.3636363636364 168.1953462687483 L 291.4141414141414 170.99454994556575 L 296.4646464646464 175.13237919377661 L 301.5151515151515 177.81991189368864 L 306.5656565656566 184.78737491117647 L 311.61616161616155 188.76875865951706 L 316.66666666666663 193.53865492358065 L 321.7171717171717 197.9713658634062 L 326.76767676767673 202.078798185471 L 331.8181818181818 205.6169473227737 L 336.86868686868684 209.14595914076028 L 341.9191919191919 214.07863567053576 L 346.969696969697 217.1654078668837 L 352.020202020202 221.42727912686365 L 357.07070707070704 223.90438815199792 L 362.1212121212121 227.07936615858637 L 367.1717171717172 231.23996408088266 L 372.2222222222222 233.86015258162433 L 377.27272727272725 239.29387260653226 L 382.32323232323233 243.96045580464374 L 387.37373737373736 248.5411548344462 L 392.4242424242424 250.73785926372443 L 397.47474747474746 255.65373705580978 L 402.52525252525254 259.1927485172585 L 407.57575757575756 261.7350625143548 L 412.6262626262626 265.59321682560244 L 417.67676767676767 266.26985936654 L 422.7272727272727 269.21073295064934 L 427.77777777777777 271.90435166905326 L 432.82828282828285 272.8021803534368 L 437.8787878787879 278.7006267604057 L 442.9292929292929 281.57475313898425 L 447.9797979797979 285.22211894600775 L 453.030303030303 285.09102909266085 L 458.080808080808 288.88653223807114 L 463.13131313131305 291.0706998009192 L 468.1818181818182 294.2109858437883 L 473.2323232323232 296.3354374595267 L 478.28282828282823 262.09443610219535 L 483.3333333333333 302.729902665162 L 488.38383838383834 304.48819818198854 L 493.43434343434336 305.2638919176182 L 498.4848484848484 306.737554133642 L 503.53535353535347 309.72958675602774 L 508.5858585858586 312.4696383130618 L 513.6363636363636 313.8829875883364 L 518.6868686868686 315.24744971779614 L 523.7373737373737 318.70187049715474 L 528.7878787878788 318.8969879183412 L 533.8383838383838 320.1554173441577 L 538.8888888888889 321.7548296370859 L 543.939393939394 324.3735919863554 L 548.989898989899 327.9466652515706 L 554.040404040404 330.17724906989224 L 559.090909090909 327.53775777480575 L 564.1414141414141 328.38039771384604 L 569.1919191919192 333.17407422455085 L 574.2424242424242 334.66698948544956 L 579.2929292929293 336.0782824492991 L 584.3434343434344 336.2020259642484 L 589.3939393939394 339.3102733484627 L 594.4444444444443 342.4192172252565 L 599.4949494949494 340.5063003557916 L 604.5454545454545 343.17051713744866 L 609.5959595959596 345.7789979295929 L 614.6464646464647 345.76339317918183 L 619.6969696969697 346.4640647141105 L 624.7474747474747 348.50145475741743 L 629.7979797979797 349.96271277226435 L 634.8484848484848 350.01015718345036 L 639.8989898989898 351.9437532492623 L 644.9494949494949 349.34631683944934 L 650 351.1707128186972" /><text  class="poloto_text" alignment-baseline="middle" text-anchor="start" font-size="large" x="675" y="300" >nosort_par</text><line  class="poloto4stroke" stroke="black" x1="680" x2="730" y1="281.25" y2="281.25" /><path  class="poloto4stroke" fill="none" stroke="black" d=" M 150 136.17938995541613 L 155.05050505050505 135.66959055357057 L 160.1010101010101 132.29918004581924 L 165.15151515151516 135.03317875067467 L 170.2020202020202 135.77867455803812 L 175.25252525252526 135.19088457045063 L 180.3030303030303 136.17937337225948 L 185.35353535353536 134.55893363669452 L 190.4040404040404 135.93900051656527 L 195.45454545454544 136.1415969414026 L 200.50505050505052 136.31363060852715 L 205.55555555555554 136.1369702406962 L 210.6060606060606 136.21862570405858 L 215.65656565656565 131.94425074396185 L 220.70707070707073 137.65479340288857 L 225.75757575757575 137.3457994449617 L 230.8080808080808 134.80230804374304 L 235.85858585858585 141.19297570650463 L 240.90909090909088 141.0112906422076 L 245.95959595959593 142.7688896664547 L 251.010101010101 143.23804375134222 L 256.06060606060606 144.25391134478616 L 261.1111111111111 148.95530258871364 L 266.16161616161617 151.15457740727317 L 271.2121212121212 152.77065577263826 L 276.2626262626262 154.28320549101483 L 281.3131313131313 164.9561748627536 L 286.3636363636364 166.890848833748 L 291.4141414141414 170.6856223202655 L 296.4646464646464 173.54437611262617 L 301.5151515151515 176.07473365377518 L 306.5656565656566 183.5967208466033 L 311.61616161616155 187.84807838526487 L 316.66666666666663 191.54267302243784 L 321.7171717171717 197.4129114799389 L 326.76767676767673 198.89904422976625 L 331.8181818181818 205.35209772785876 L 336.86868686868684 202.21768212244507 L 341.9191919191919 210.98277590434168 L 346.969696969697 215.96040937180516 L 352.020202020202 219.52432873454757 L 357.07070707070704 216.40750785834334 L 362.1212121212121 222.19166314965554 L 367.1717171717172 224.7667288811427 L 372.2222222222222 228.0905241355408 L 377.27272727272725 236.02486810171774 L 382.32323232323233 237.2786708268279 L 387.37373737373736 243.07163177432312 L 392.4242424242424 248.2902350911203 L 397.47474747474746 253.53741118683166 L 402.52525252525254 255.22144732816324 L 407.57575757575756 260.1556660915075 L 412.6262626262626 261.9662151349496 L 417.67676767676767 265.79753789873166 L 422.7272727272727 267.80866022189923 L 427.77777777777777 270.5933204703315 L 432.82828282828285 275.7980271018529 L 437.8787878787879 275.7586255216439 L 442.9292929292929 279.7340393335893 L 447.9797979797979 278.2803432381764 L 453.030303030303 285.2447881211532 L 458.080808080808 287.13516848072584 L 463.13131313131305 291.1744274457876 L 468.1818181818182 292.6854183474387 L 473.2323232323232 296.04475130654544 L 478.28282828282823 292.5790373975057 L 483.3333333333333 295.00198583300926 L 488.38383838383834 298.9791077100899 L 493.43434343434336 302.4812548142977 L 498.4848484848484 302.36112642749885 L 503.53535353535347 305.9931362314611 L 508.5858585858586 309.1059274005985 L 513.6363636363636 312.69367675945216 L 518.6868686868686 304.5731371103684 L 523.7373737373737 320.55631515625896 L 528.7878787878788 317.1984083486244 L 533.8383838383838 319.7246366837667 L 538.8888888888889 320.54132398264403 L 543.939393939394 325.0370840840667 L 548.989898989899 327.21405455692707 L 554.040404040404 330.16434737401573 L 559.090909090909 330.1822074337316 L 564.1414141414141 330.80770751954947 L 569.1919191919192 332.79234654154124 L 574.2424242424242 335.30915564370423 L 579.2929292929293 338.4357937486474 L 584.3434343434344 339.7075062829435 L 589.3939393939394 341.5826798878647 L 594.4444444444443 342.3992179383322 L 599.4949494949494 344.66145900270556 L 604.5454545454545 347.24538013984574 L 609.5959595959596 351.177279748732 L 614.6464646464647 350.82906662531934 L 619.6969696969697 351.7719849126441 L 624.7474747474747 352.25435577338453 L 629.7979797979797 356.7588386152069 L 634.8484848484848 354.33227505155287 L 639.8989898989898 355.0156006046219 L 644.9494949494949 357.2047596976227 L 650 356.1480643724975" /><text  class="poloto_text" alignment-baseline="middle" text-anchor="start" font-size="large" x="675" y="350" >sweep</text><line  class="poloto5stroke" stroke="black" x1="680" x2="730" y1="331.25" y2="331.25" /><path  class="poloto5stroke" fill="none" stroke="black" d=" M 150 196.68779637210278 L 155.05050505050505 201.444973355013 L 160.1010101010101 202.26109682656423 L 165.15151515151516 200.50431037699317 L 170.2020202020202 202.21496248475387 L 175.25252525252526 202.14314083328705 L 180.3030303030303 202.1481655297531 L 185.35353535353536 202.08179973682525 L 190.4040404040404 202.08951090466923 L 195.45454545454544 202.1412503534285 L 200.50505050505052 202.20529450442476 L 205.55555555555554 201.99303009925845 L 210.6060606060606 201.7503853511027 L 215.65656565656565 201.73768265310602 L 220.70707070707073 193.06381281596094 L 225.75757575757575 201.1530102989694 L 230.8080808080808 202.12887931856488 L 235.85858585858585 202.3502312935774 L 240.90909090909088 202.02216670549888 L 245.95959595959593 201.16118579519966 L 251.010101010101 199.7274060709278 L 256.06060606060606 197.98934200521867 L 261.1111111111111 197.34764017535028 L 266.16161616161617 196.97279450235186 L 271.2121212121212 194.69899497779096 L 276.2626262626262 192.6995969463775 L 281.3131313131313 192.83015613871143 L 286.3636363636364 192.4079323871537 L 291.4141414141414 191.75787264633186 L 296.4646464646464 191.18577032493866 L 301.5151515151515 187.74183010058513 L 306.5656565656566 190.9532081360283 L 311.61616161616155 192.28888190553732 L 316.66666666666663 191.91373773571917 L 321.7171717171717 192.074511439476 L 326.76767676767673 192.99923800395175 L 331.8181818181818 192.90506225731588 L 336.86868686868684 194.42081252492656 L 341.9191919191919 198.14323369896425 L 346.969696969697 190.82626407184486 L 352.020202020202 198.40360584158273 L 357.07070707070704 201.8755716006809 L 362.1212121212121 202.85251852545883 L 367.1717171717172 204.72062770564563 L 372.2222222222222 209.32248684333805 L 377.27272727272725 207.26736940556845 L 382.32323232323233 211.85932839873868 L 387.37373737373736 213.6480208417113 L 392.4242424242424 216.28247085717507 L 397.47474747474746 219.55577039956285 L 402.52525252525254 220.51114263753445 L 407.57575757575756 223.67255562198034 L 412.6262626262626 227.24974151004568 L 417.67676767676767 230.3529807809506 L 422.7272727272727 231.82672591275764 L 427.77777777777777 234.50736001950176 L 432.82828282828285 235.94976298523352 L 437.8787878787879 237.8684507932138 L 442.9292929292929 243.85780606495786 L 447.9797979797979 244.5337189470027 L 453.030303030303 248.3158394849935 L 458.080808080808 250.4418333343007 L 463.13131313131305 250.62869234347366 L 468.1818181818182 256.8448388656126 L 473.2323232323232 257.4548336999593 L 478.28282828282823 261.10022611134093 L 483.3333333333333 263.7395184085476 L 488.38383838383834 265.9170195424209 L 493.43434343434336 269.5126956501551 L 498.4848484848484 270.5247491175688 L 503.53535353535347 273.17906575470363 L 508.5858585858586 277.34589894390166 L 513.6363636363636 273.8134378293311 L 518.6868686868686 281.97740876569077 L 523.7373737373737 283.861487525735 L 528.7878787878788 283.37359447382886 L 533.8383838383838 284.570715969497 L 538.8888888888889 289.1378168108434 L 543.939393939394 289.5633571937319 L 548.989898989899 293.0699154176095 L 554.040404040404 296.6470681393615 L 559.090909090909 296.1317465463503 L 564.1414141414141 299.29294394975966 L 569.1919191919192 300.1329637500487 L 574.2424242424242 302.333449139044 L 579.2929292929293 304.561711315434 L 584.3434343434344 311.3813023250415 L 589.3939393939394 308.9978052192169 L 594.4444444444443 313.4023082095746 L 599.4949494949494 314.487576313614 L 604.5454545454545 315.78038262317347 L 609.5959595959596 309.9476552660228 L 614.6464646464647 319.02209125213614 L 619.6969696969697 314.8375804179453 L 624.7474747474747 318.3705556103721 L 629.7979797979797 319.526749875419 L 634.8484848484848 320.7222130554217 L 639.8989898989898 318.8436233202299 L 644.9494949494949 326.6205267971374 L 650 327.3254602033261" /><text  class="poloto_text" alignment-baseline="start" text-anchor="middle" font-size="x-large" x="400" y="37.5" >Bench of space partitioning algs with abspiral(3000,grow)</text><text  class="poloto_text" alignment-baseline="start" text-anchor="middle" font-size="x-large" x="400" y="481.25" >Grow</text><text  class="poloto_text" alignment-baseline="start" text-anchor="middle" font-size="x-large" transform="rotate(-90,37.5,250)" x="37.5" y="250" >Time in Seconds</text><path  stroke="black" fill="none" class="poloto_axis_lines" d=" M 150 100 L 150 400 L 650 400" /><line  class="poloto_axis_lines" stroke="black" x1="234.17508417508418" x2="234.17508417508418" y1="400" y2="405" /><text  class="poloto_text" alignment-baseline="start" text-anchor="middle" x="234.17508417508418" y="430" > 0.05</text><line  class="poloto_axis_lines" stroke="black" x1="374.46689113355774" x2="374.46689113355774" y1="400" y2="405" /><text  class="poloto_text" alignment-baseline="start" text-anchor="middle" x="374.46689113355774" y="430" > 0.10</text><line  class="poloto_axis_lines" stroke="black" x1="514.7586980920314" x2="514.7586980920314" y1="400" y2="405" /><text  class="poloto_text" alignment-baseline="start" text-anchor="middle" x="514.7586980920314" y="430" > 0.15</text><line  class="poloto_axis_lines" stroke="black" x1="150" x2="144" y1="387.3790237993173" y2="387.3790237993173" /><text  class="poloto_text" alignment-baseline="middle" text-anchor="end" x="135" y="387.3790237993173" > 0.005</text><line  class="poloto_axis_lines" stroke="black" x1="150" x2="144" y1="304.46324053122487" y2="304.46324053122487" /><text  class="poloto_text" alignment-baseline="middle" text-anchor="end" x="135" y="304.46324053122487" > 0.010</text><line  class="poloto_axis_lines" stroke="black" x1="150" x2="144" y1="221.5474572631324" y2="221.5474572631324" /><text  class="poloto_text" alignment-baseline="middle" text-anchor="end" x="135" y="221.5474572631324" > 0.015</text><line  class="poloto_axis_lines" stroke="black" x1="150" x2="144" y1="138.63167399503993" y2="138.63167399503993" /><text  class="poloto_text" alignment-baseline="middle" text-anchor="end" x="135" y="138.63167399503993" > 0.020</text></svg>