<svg class="poloto" width="800" height="500" viewBox="0 0 800 500" xmlns="http://www.w3.org/2000/svg"><style>.poloto {
                    font-family: "Arial";
                    stroke-width:2;
                    }
                    .poloto_text{fill: var(--poloto_fg_color,black);  }
                    .poloto_axis_lines{stroke: var(--poloto_fg_color,black);stoke-width:3;fill:none}
                    .poloto_background{fill: var(--poloto_bg_color,aliceblue); }
                    .poloto0stroke{stroke:  var(--poloto_color0,blue); }
                    .poloto1stroke{stroke:  var(--poloto_color1,red); }
                    .poloto2stroke{stroke:  var(--poloto_color2,green); }
                    .poloto3stroke{stroke:  var(--poloto_color3,gold); }
                    .poloto4stroke{stroke:  var(--poloto_color4,aqua); }
                    .poloto5stroke{stroke:  var(--poloto_color5,brown); }
                    .poloto6stroke{stroke:  var(--poloto_color6,lime); }
                    .poloto7stroke{stroke:  var(--poloto_color7,chocolate); }
                    .poloto0fill{fill:var(--poloto_color0,blue);}
                    .poloto1fill{fill:var(--poloto_color1,red);}
                    .poloto2fill{fill:var(--poloto_color2,green);}
                    .poloto3fill{fill:var(--poloto_color3,gold);}
                    .poloto4fill{fill:var(--poloto_color4,aqua);}
                    .poloto5fill{fill:var(--poloto_color5,brown);}
                    .poloto6fill{fill:var(--poloto_color6,lime);}
                    .poloto7fill{fill:var(--poloto_color7,chocolate);}</style><rect class="poloto_background" fill="white" x="0" y="0" width="800" height="500"/><line class="poloto_axis_lines" stroke="black" x1="234.17508417508418" x2="234.17508417508418" y1="400" y2="405"/><text class="poloto_text" alignment-baseline="start" text-anchor="middle" x="234.17508417508418" y="430">0.05</text><line class="poloto_axis_lines" stroke="black" x1="374.46689113355774" x2="374.46689113355774" y1="400" y2="405"/><text class="poloto_text" alignment-baseline="start" text-anchor="middle" x="374.46689113355774" y="430">0.10</text><line class="poloto_axis_lines" stroke="black" x1="514.7586980920314" x2="514.7586980920314" y1="400" y2="405"/><text class="poloto_text" alignment-baseline="start" text-anchor="middle" x="514.7586980920314" y="430">0.15</text><line class="poloto_axis_lines" stroke="black" x1="150" x2="144" y1="388.39207948391345" y2="388.39207948391345"/><text class="poloto_text" alignment-baseline="middle" text-anchor="end" x="135" y="388.39207948391345">0.005</text><line class="poloto_axis_lines" stroke="black" x1="150" x2="144" y1="314.0976794045076" y2="314.0976794045076"/><text class="poloto_text" alignment-baseline="middle" text-anchor="end" x="135" y="314.0976794045076">0.010</text><line class="poloto_axis_lines" stroke="black" x1="150" x2="144" y1="239.8032793251017" y2="239.8032793251017"/><text class="poloto_text" alignment-baseline="middle" text-anchor="end" x="135" y="239.8032793251017">0.015</text><line class="poloto_axis_lines" stroke="black" x1="150" x2="144" y1="165.50887924569588" y2="165.50887924569588"/><text class="poloto_text" alignment-baseline="middle" text-anchor="end" x="135" y="165.50887924569588">0.020</text><text class="poloto_text" alignment-baseline="middle" text-anchor="start" font-size="large" x="675" y="100">brocc</text><line class="poloto0stroke" stroke="black" x1="680" x2="730" y1="81.25" y2="81.25"/><polyline class="poloto0stroke" fill="none" stroke="black" points="150,156.02148435555574 155.05050505050505,156.3284093811638 160.1010101010101,160.71687558169418 165.15151515151516,160.13488296923217 170.2020202020202,160.5662511149732 175.25252525252526,160.45454205501377 180.3030303030303,160.57527045514283 185.35353535353536,160.72735109210538 190.4040404040404,160.77133337695238 195.45454545454544,160.56504754569193 200.50505050505052,160.22143594532466 205.55555555555554,160.32058925167064 210.6060606060606,160.48335342336463 215.65656565656565,162.5497927260532 220.70707070707073,165.1718649880557 225.75757575757575,167.61976145851202 230.8080808080808,171.31176223493802 235.85858585858585,173.25454593813447 240.90909090909088,177.5341708425485 245.95959595959593,182.19988888529522 251.010101010101,186.93089684683176 256.06060606060606,191.13841160652873 261.1111111111111,194.04280258883293 266.16161616161617,201.50221295776555 271.2121212121212,206.481096755727 276.2626262626262,209.72892103183824 281.3131313131313,213.09041574007105 286.3636363636364,220.52848875730086 291.4141414141414,223.75408414890836 296.4646464646464,228.87259684237904 301.5151515151515,233.87989081893082 306.5656565656566,241.69878207208765 311.61616161616155,247.12979187117233 316.66666666666663,251.16957959325 321.7171717171717,257.6172042452613 326.76767676767673,262.5970390115437 331.8181818181818,267.0512854739044 336.86868686868684,272.94618950708485 341.9191919191919,278.06413756311497 346.969696969697,282.800346132657 352.020202020202,287.6002695797072 357.07070707070704,290.9181088984533 362.1212121212121,295.24614403395907 367.1717171717172,299.269274951539 372.2222222222222,303.08059253449255 377.27272727272725,306.5945839283283 382.32323232323233,309.66928739337453 387.37373737373736,313.1855224780927 392.4242424242424,316.238754861516 397.47474747474746,318.8382564847743 402.52525252525254,322.2603902823519 407.57575757575756,325.6118106699339 412.6262626262626,328.02747822963573 417.67676767676767,330.4768605880937 422.7272727272727,333.1003147259376 427.77777777777777,335.6095337942195 432.82828282828285,337.7254085907209 437.8787878787879,340.460334046444 442.9292929292929,342.39916528755623 447.9797979797979,344.3009681996689 453.030303030303,346.7160562630501 458.080808080808,348.6756007829045 463.13131313131305,349.8972533211702 468.1818181818182,351.4419081932211 473.2323232323232,353.8732221535797 478.28282828282823,355.98734360223926 483.3333333333333,357.1096645275988 488.38383838383834,358.9310363221855 493.43434343434336,360.59138243404004 498.4848484848484,362.2648786547087 503.53535353535347,363.6353428763334 508.5858585858586,364.61298288697833 513.6363636363636,366.4372075865281 518.6868686868686,367.09810085187445 523.7373737373737,369.0627568264543 528.7878787878788,369.88868767213705 533.8383838383838,371.5277855855689 538.8888888888889,372.4234788729262 543.939393939394,374.04655891370095 548.989898989899,375.55329392395134 554.040404040404,376.1951678228774 559.090909090909,377.4996437583516 564.1414141414141,378.71156373020693 569.1919191919192,380.2459808339269 574.2424242424242,381.0579294735147 579.2929292929293,382.6173094956614 584.3434343434344,382.8827485282651 589.3939393939394,384.3717568946565 594.4444444444443,385.70176038599806 599.4949494949494,386.51492745374713 604.5454545454545,388.13494656523864 609.5959595959596,390.1961109655216 614.6464646464647,389.26823334404986 619.6969696969697,391.67098853701793 624.7474747474747,392.451302621052 629.7979797979797,392.9580201473535 634.8484848484848,393.15781264804707 639.8989898989898,394.7008776199363 644.9494949494949,395.80273786751394 650,396.17437331559114 "/><text class="poloto_text" alignment-baseline="middle" text-anchor="start" font-size="large" x="675" y="150">brocc_par</text><line class="poloto1stroke" stroke="black" x1="680" x2="730" y1="131.25" y2="131.25"/><polyline class="poloto1stroke" fill="none" stroke="black" points="150,154.42663618681115 155.05050505050505,150.47396607826656 160.1010101010101,100 165.15151515151516,149.9601608661974 170.2020202020202,153.71748127917326 175.25252525252526,154.27268333096666 180.3030303030303,153.86241479484815 185.35353535353536,154.18654640351457 190.4040404040404,154.6231151572612 195.45454545454544,158.2852941614953 200.50505050505052,151.50532094016887 205.55555555555554,152.76936586311987 210.6060606060606,149.75334011525635 215.65656565656565,155.6924493164841 220.70707070707073,156.74219947184608 225.75757575757575,159.02076414564138 230.8080808080808,164.69272554306357 235.85858585858585,163.6675816930079 240.90909090909088,161.45343026408142 245.95959595959593,176.2332610382781 251.010101010101,147.14071810094399 256.06060606060606,185.99340552998976 261.1111111111111,162.6626013431338 266.16161616161617,194.2286871778316 271.2121212121212,200.71561356748484 276.2626262626262,188.24861204440012 281.3131313131313,207.64442818993035 286.3636363636364,213.3136258356696 291.4141414141414,214.4931831668503 296.4646464646464,225.62447538866743 301.5151515151515,231.599944269294 306.5656565656566,209.88495413088506 311.61616161616155,243.50802902058138 316.66666666666663,247.65359710949215 321.7171717171717,252.0320632837719 326.76767676767673,262.1468298059425 331.8181818181818,267.4935451786971 336.86868686868684,272.2156675299841 341.9191919191919,277.029350299929 346.969696969697,281.3918431781916 352.020202020202,286.7611440485703 357.07070707070704,290.65113940120796 362.1212121212121,291.8289731023068 367.1717171717172,295.61361899563184 372.2222222222222,300.51498401655044 377.27272727272725,304.29705932363265 382.32323232323233,307.844275173184 387.37373737373736,311.11841452580336 392.4242424242424,313.50613253219535 397.47474747474746,317.66517762528053 402.52525252525254,321.12870826258234 407.57575757575756,324.7400996149222 412.6262626262626,326.68567678756165 417.67676767676767,328.2450419508283 422.7272727272727,332.1962707480114 427.77777777777777,333.3618310142171 432.82828282828285,334.69868444924595 437.8787878787879,337.4261656060811 442.9292929292929,339.92435938539114 447.9797979797979,340.9776905308369 453.030303030303,341.9331759513782 458.080808080808,343.9797192137255 463.13131313131305,345.08686922258886 468.1818181818182,347.1927588517196 473.2323232323232,349.08659740414373 478.28282828282823,351.5605266323879 483.3333333333333,353.2086290271094 488.38383838383834,356.64642408422367 493.43434343434336,357.1855785455999 498.4848484848484,357.1937657884887 503.53535353535347,361.2376694203308 508.5858585858586,364.693161403544 513.6363636363636,363.3727716075728 518.6868686868686,364.78888230860633 523.7373737373737,366.4374304697283 528.7878787878788,367.68065810177706 533.8383838383838,369.7852252905864 538.8888888888889,370.9167290037958 543.939393939394,372.80401479013295 548.989898989899,372.412067253074 554.040404040404,373.44450681321746 559.090909090909,376.12880806472646 564.1414141414141,377.4507877608594 569.1919191919192,376.7448275124249 574.2424242424242,380.2487743033699 579.2929292929293,382.1479323348397 584.3434343434344,381.2873208631999 589.3939393939394,383.5964651120679 594.4444444444443,383.9471495393227 599.4949494949494,388.3613364611606 604.5454545454545,391.8190275586162 609.5959595959596,389.9131978900192 614.6464646464647,387.95112736056217 619.6969696969697,387.94155824183196 624.7474747474747,392.51972776352505 629.7979797979797,393.63741271831964 634.8484848484848,394.9061679062357 639.8989898989898,390.87756892080995 644.9494949494949,397.56509019067755 650,400 "/><text class="poloto_text" alignment-baseline="middle" text-anchor="start" font-size="large" x="675" y="200">naive</text><line class="poloto2stroke" stroke="black" x1="680" x2="730" y1="181.25" y2="181.25"/><polyline class="poloto2stroke" fill="none" stroke="black" points="150,164.2056068795029 155.05050505050505,163.74388204188944 160.1010101010101,164.35548840222316 165.15151515151516,163.83098479654257 170.2020202020202,163.77462506464232 175.25252525252526,164.24478974610486 180.3030303030303,164.25351190867417 185.35353535353536,164.3421599868489 190.4040404040404,163.49129594049947 195.45454545454544,164.283333680866 200.50505050505052,164.00621556856984 205.55555555555554,164.4251765494976 210.6060606060606,165.2206615500278 215.65656565656565,166.48901554818343 220.70707070707073,169.05533729236635 225.75757575757575,172.3285851121848 230.8080808080808,176.26492531159192 235.85858585858585,179.1456609569109 240.90909090909088,183.7400117989413 245.95959595959593,191.0331513004962 251.010101010101,196.5897483534751 256.06060606060606,199.6239910882381 261.1111111111111,208.1456925072661 266.16161616161617,213.44689513053206 271.2121212121212,219.03631544946603 276.2626262626262,222.33827062547513 281.3131313131313,230.018706834644 286.3636363636364,235.3269079903974 291.4141414141414,240.58143887153344 296.4646464646464,245.6402634439803 301.5151515151515,250.39214813193914 306.5656565656566,254.8324123882049 311.61616161616155,259.08404316266905 316.66666666666663,263.1486749321333 321.7171717171717,266.91159714287505 326.76767676767673,271.35680940618613 331.8181818181818,274.14525654772643 336.86868686868684,278.569502931335 341.9191919191919,281.60206661265624 346.969696969697,285.22322024916656 352.020202020202,288.2370320239077 357.07070707070704,291.44262736301386 362.1212121212121,293.205544323618 367.1717171717172,296.18176313191907 372.2222222222222,299.469498359753 377.27272727272725,301.71345670199133 382.32323232323233,304.0754094104358 387.37373737373736,306.3832163601024 392.4242424242424,307.7485245503616 397.47474747474746,309.8226904706585 402.52525252525254,312.36883385577977 407.57575757575756,314.1567731703308 412.6262626262626,315.80749072793503 417.67676767676767,317.6913589718685 422.7272727272727,319.1909914374713 427.77777777777777,319.317945708327 432.82828282828285,321.40916962288213 437.8787878787879,323.83688773427684 442.9292929292929,325.3609036219857 447.9797979797979,326.4382467175372 453.030303030303,328.10905348092297 458.080808080808,329.7313311421768 463.13131313131305,331.34851220758526 468.1818181818182,332.1313077245819 473.2323232323232,331.75881046146384 478.28282828282823,334.34314116822594 483.3333333333333,335.4907221896125 488.38383838383834,336.9366843805979 493.43434343434336,338.1199861495426 498.4848484848484,338.27716338235064 503.53535353535347,339.90367582440905 508.5858585858586,340.3172876085311 513.6363636363636,341.44365014925495 518.6868686868686,342.3440537015773 523.7373737373737,342.529017040015 528.7878787878788,344.2175207294997 533.8383838383838,343.45118885156063 538.8888888888889,346.10412300735607 543.939393939394,346.6442432959334 548.989898989899,347.3366522457934 554.040404040404,347.76770835505414 559.090909090909,349.0050518706166 564.1414141414141,349.7442217158866 569.1919191919192,350.3589038643836 574.2424242424242,350.8419214770598 579.2929292929293,351.7864261852693 584.3434343434344,351.73921952345887 589.3939393939394,352.96051544860416 594.4444444444443,353.5972630339248 599.4949494949494,352.35082588379254 604.5454545454545,355.2003430221981 609.5959595959596,355.90001796438594 614.6464646464647,355.98187553439345 619.6969696969697,356.7388463179225 624.7474747474747,357.27129942441155 629.7979797979797,356.61159486946644 634.8484848484848,358.0692212812644 639.8989898989898,358.850100002739 644.9494949494949,359.6928956772398 650,359.6708302404162 "/><text class="poloto_text" alignment-baseline="middle" text-anchor="start" font-size="large" x="675" y="250">nosort</text><line class="poloto3stroke" stroke="black" x1="680" x2="730" y1="231.25" y2="231.25"/><polyline class="poloto3stroke" fill="none" stroke="black" points="150,162.92411763141328 155.05050505050505,162.476627600855 160.1010101010101,163.68318351702456 165.15151515151516,163.44960192317495 170.2020202020202,163.52918608454 175.25252525252526,163.61192032846841 180.3030303030303,160.9427602756956 185.35353535353536,163.4003595948023 190.4040404040404,162.87798080896397 195.45454545454544,163.57609556875013 200.50505050505052,163.1599131983853 205.55555555555554,163.53230644934334 210.6060606060606,161.1645736365727 215.65656565656565,160.57048589577772 220.70707070707073,164.13146106822367 225.75757575757575,164.95969504030893 230.8080808080808,165.48434723478968 235.85858585858585,162.78817373814798 240.90909090909088,164.7168712230894 245.95959595959593,168.25863386367485 251.010101010101,170.01559241339262 256.06060606060606,171.77821219639654 261.1111111111111,174.16295842678537 266.16161616161617,176.900276162191 271.2121212121212,179.03454625215215 276.2626262626262,179.48992634799882 281.3131313131313,182.06721394563345 286.3636363636364,186.59765674471555 291.4141414141414,191.08682157511356 296.4646464646464,194.68060515463466 301.5151515151515,195.49019123229994 306.5656565656566,202.54278032527773 311.61616161616155,205.75894032807514 316.66666666666663,210.69699192375296 321.7171717171717,214.38006251328937 326.76767676767673,219.21579586117784 331.8181818181818,222.52158462823107 336.86868686868684,226.35634952384964 341.9191919191919,230.36720700653646 346.969696969697,233.2491759388967 352.020202020202,237.91536946580393 357.07070707070704,239.2595631875606 362.1212121212121,243.7404070451497 367.1717171717172,247.35295739013083 372.2222222222222,249.74988790213266 377.27272727272725,254.7800199772689 382.32323232323233,256.84324976187406 387.37373737373736,260.82884714853384 392.4242424242424,263.28007200811373 397.47474747474746,267.2161596065606 402.52525252525254,270.1218878880663 407.57575757575756,271.6273598935153 412.6262626262626,275.80734114854283 417.67676767676767,278.5356841204189 422.7272727272727,279.99287962469634 427.77777777777777,283.80397432444965 432.82828282828285,286.4425696610298 437.8787878787879,287.34332982647254 442.9292929292929,292.8334631091404 447.9797979797979,293.5074470477807 453.030303030303,296.1396976425941 458.080808080808,297.0447520243614 463.13131313131305,300.76485094289745 468.1818181818182,304.31600439565295 473.2323232323232,306.8155800508045 478.28282828282823,307.350261989296 483.3333333333333,309.4073996330946 488.38383838383834,311.33649830779643 493.43434343434336,314.02071040602533 498.4848484848484,314.73918183143326 503.53535353535347,318.64483844360757 508.5858585858586,318.8478701801446 513.6363636363636,321.9048321424519 518.6868686868686,323.34030396414613 523.7373737373737,325.901038769443 528.7878787878788,324.73180835987336 533.8383838383838,327.12390973587003 538.8888888888889,330.212402241571 543.939393939394,331.9341601045312 548.989898989899,332.75894681645275 554.040404040404,334.46719795747856 559.090909090909,334.87636693647585 564.1414141414141,336.0461471246061 569.1919191919192,339.04138529932743 574.2424242424242,339.46936562042487 579.2929292929293,340.34791176024385 584.3434343434344,341.7455082967776 589.3939393939394,344.6021131209507 594.4444444444443,345.1340164488792 599.4949494949494,345.1456360930516 604.5454545454545,346.80136109322126 609.5959595959596,349.67572227901337 614.6464646464647,350.37750718216347 619.6969696969697,351.410927428388 624.7474747474747,353.29880756992577 629.7979797979797,354.35063796848993 634.8484848484848,354.54075733829313 639.8989898989898,355.53490556463566 644.9494949494949,356.1959177010222 650,355.842098050084 "/><text class="poloto_text" alignment-baseline="middle" text-anchor="start" font-size="large" x="675" y="300">nosort_par</text><line class="poloto4stroke" stroke="black" x1="680" x2="730" y1="281.25" y2="281.25"/><polyline class="poloto4stroke" fill="none" stroke="black" points="150,161.62852730618857 155.05050505050505,157.88994394091273 160.1010101010101,157.81359901539116 165.15151515151516,156.66870745128747 170.2020202020202,156.68222903210193 175.25252525252526,158.46612673128857 180.3030303030303,157.3050241290876 185.35353535353536,155.08207624319172 190.4040404040404,158.68395791232138 195.45454545454544,157.69930451030902 200.50505050505052,157.4768224998312 205.55555555555554,155.81114205005096 210.6060606060606,157.01893125326183 215.65656565656565,161.09045754305347 220.70707070707073,157.7580268041318 225.75757575757575,160.0778545877312 230.8080808080808,161.0728646291147 235.85858585858585,160.4327440780305 240.90909090909088,164.8058461966245 245.95959595959593,164.4818780356382 251.010101010101,164.5365735729767 256.06060606060606,165.94764711368484 261.1111111111111,162.46546858196308 266.16161616161617,171.04730388841534 271.2121212121212,175.1782508393905 276.2626262626262,179.62469638974287 281.3131313131313,147.30221926783662 286.3636363636364,177.71628127602315 291.4141414141414,185.55067034103655 296.4646464646464,189.2414972659413 301.5151515151515,194.50840559413055 306.5656565656566,196.04279298009055 311.61616161616155,204.0731855313934 316.66666666666663,204.14487962747003 321.7171717171717,207.50316481761936 326.76767676767673,217.98619382210367 331.8181818181818,220.70854866533327 336.86868686868684,224.66460659852152 341.9191919191919,227.910722103431 346.969696969697,231.7435553446475 352.020202020202,235.61976165663037 357.07070707070704,236.71691163924302 362.1212121212121,240.21969943754678 367.1717171717172,243.19955867145165 372.2222222222222,247.47864865618513 377.27272727272725,252.4971016516289 382.32323232323233,254.68467054420697 387.37373737373736,258.9588125218952 392.4242424242424,260.64473076625706 397.47474747474746,264.25913847124014 402.52525252525254,266.3839880312712 407.57575757575756,269.1683638396871 412.6262626262626,274.806313260753 417.67676767676767,273.1995334113557 422.7272727272727,274.4959112572212 427.77777777777777,277.80199720187477 432.82828282828285,280.12711474675984 437.8787878787879,284.4229061126312 442.9292929292929,286.6135953700126 447.9797979797979,289.79757103869565 453.030303030303,290.0621779740185 458.080808080808,291.22243362005855 463.13131313131305,296.29518096308027 468.1818181818182,298.60643517291055 473.2323232323232,302.4235328601903 478.28282828282823,301.64638371759963 483.3333333333333,305.05825002908625 488.38383838383834,311.0087708501662 493.43434343434336,309.0410836640631 498.4848484848484,313.00773597870267 503.53535353535347,315.25493355678447 508.5858585858586,316.29881445454015 513.6363636363636,318.0908548199755 518.6868686868686,319.5008436624425 523.7373737373737,323.76054280875525 528.7878787878788,325.2710816922897 533.8383838383838,327.69073143183584 538.8888888888889,330.799060542358 543.939393939394,333.08484663184106 548.989898989899,332.9887691136584 554.040404040404,337.0657634712959 559.090909090909,336.09024828049326 564.1414141414141,336.03486923467403 569.1919191919192,339.19750755165427 574.2424242424242,342.0339934522859 579.2929292929293,340.99292088285324 584.3434343434344,346.02431596279075 589.3939393939394,345.9642712286466 594.4444444444443,348.0180656244417 599.4949494949494,348.3223160516469 604.5454545454545,350.55244077659046 609.5959595959596,352.5268887531007 614.6464646464647,352.8719862414696 619.6969696969697,353.2600704697243 624.7474747474747,354.08380220116476 629.7979797979797,362.0446403351133 634.8484848484848,361.50819018989995 639.8989898989898,361.9886074985734 644.9494949494949,362.00576950499175 650,360.1404600021981 "/><text class="poloto_text" alignment-baseline="middle" text-anchor="start" font-size="large" x="675" y="350">sweep</text><line class="poloto5stroke" stroke="black" x1="680" x2="730" y1="331.25" y2="331.25"/><polyline class="poloto5stroke" fill="none" stroke="black" points="150,223.1201300330308 155.05050505050505,222.54610178025726 160.1010101010101,223.15065017258343 165.15151515151516,223.03839133406342 170.2020202020202,221.3890556523006 175.25252525252526,222.75639950912202 180.3030303030303,223.28840684921065 185.35353535353536,223.03769296670268 190.4040404040404,222.73795963902234 195.45454545454544,220.68996020643345 200.50505050505052,223.1580053181913 205.55555555555554,222.9106792603269 210.6060606060606,222.5257451146355 215.65656565656565,222.19418406596114 220.70707070707073,220.90533967226364 225.75757575757575,223.0889115261174 230.8080808080808,223.50078482127765 235.85858585858585,224.34769640554282 240.90909090909088,223.44155732553435 245.95959595959593,225.29119070991123 251.010101010101,225.50079007141525 256.06060606060606,225.49396984548792 261.1111111111111,225.07656904696185 266.16161616161617,224.4234618347438 271.2121212121212,223.87718996983995 276.2626262626262,223.01231399963555 281.3131313131313,223.0169351113205 286.3636363636364,223.26284957558332 291.4141414141414,223.6979621590884 296.4646464646464,224.47982156664403 301.5151515151515,224.46631484470961 306.5656565656566,224.37283763052966 311.61616161616155,225.2670301710054 316.66666666666663,227.09612858320037 321.7171717171717,226.4457256871452 326.76767676767673,228.33665189908623 331.8181818181818,227.50566903419806 336.86868686868684,231.51847303016692 341.9191919191919,231.88293163919644 346.969696969697,233.372029158868 352.020202020202,234.22470598857933 357.07070707070704,237.43734443681302 362.1212121212121,237.84278383692637 367.1717171717172,238.297168387812 372.2222222222222,242.65082023246515 377.27272727272725,244.45514889167364 382.32323232323233,245.71482530390003 387.37373737373736,247.19717689204435 392.4242424242424,250.37583308168166 397.47474747474746,252.53234691502658 402.52525252525254,255.17831225609456 407.57575757575756,257.01625170189897 412.6262626262626,258.81502313998146 417.67676767676767,262.9490161613599 422.7272727272727,264.24268969106254 427.77777777777777,268.7222556849703 432.82828282828285,269.79331347427507 437.8787878787879,269.90742967279704 442.9292929292929,274.38573266190343 447.9797979797979,275.1664182179378 453.030303030303,279.5207832888318 458.080808080808,282.3415336355266 463.13131313131305,283.8732612819638 468.1818181818182,285.94814042850135 473.2323232323232,288.1470912231716 478.28282828282823,289.25314167491376 483.3333333333333,294.41193679210744 488.38383838383834,297.39543645161626 493.43434343434336,298.54696993508696 498.4848484848484,301.9243933626968 503.53535353535347,303.7102375751655 508.5858585858586,301.6010789924312 513.6363636363636,309.66321011144805 518.6868686868686,311.85257692850803 523.7373737373737,309.7531657710642 528.7878787878788,315.5887977318613 533.8383838383838,315.3200897456541 538.8888888888889,317.90385581497566 543.939393939394,320.6112477660293 548.989898989899,323.2646871237453 554.040404040404,324.77342808279786 559.090909090909,325.8751991770954 564.1414141414141,327.97364450733824 569.1919191919192,330.3422688529098 574.2424242424242,332.45728183437035 579.2929292929293,333.54701723585504 584.3434343434344,333.8460373372946 589.3939393939394,337.6059283365132 594.4444444444443,340.02736114166123 599.4949494949494,334.3615364616856 604.5454545454545,341.3664136909324 609.5959595959596,336.80518329245734 614.6464646464647,343.8222596621972 619.6969696969697,345.5287277376211 624.7474747474747,347.6511404413295 629.7979797979797,341.2014355461161 634.8484848484848,347.2574395564287 639.8989898989898,350.32716529666965 644.9494949494949,351.0812831752357 650,349.6663760434834 "/><text class="poloto_text" alignment-baseline="start" text-anchor="middle" font-size="x-large" x="400" y="37.5">Bench of space partitioning algs with abspiral(3000,grow)</text><text class="poloto_text" alignment-baseline="start" text-anchor="middle" font-size="x-large" x="400" y="481.25">Grow</text><text class="poloto_text" alignment-baseline="start" text-anchor="middle" font-size="x-large" transform="rotate(-90,37.5,250)" x="37.5" y="250">Time in Seconds</text><path stroke="black" fill="none" class="poloto_axis_lines" d=" M 150 100 L 150 400 L 650 400"/></svg>