<svg class="poloto" width="800" height="500" viewBox="0 0 800 500" xmlns="http://www.w3.org/2000/svg"><style>.poloto {
            font-family: "Arial";
            stroke-width:2;
            }
            .poloto_text{fill: var(--poloto_fg_color,black);  }
            .poloto_axis_lines{stroke: var(--poloto_fg_color,black);stoke-width:3;fill:none}
            .poloto_background{fill: var(--poloto_bg_color,aliceblue); }
            .poloto0stroke{stroke:  var(--poloto_color0,blue); }
            .poloto1stroke{stroke:  var(--poloto_color1,red); }
            .poloto2stroke{stroke:  var(--poloto_color2,green); }
            .poloto3stroke{stroke:  var(--poloto_color3,gold); }
            .poloto4stroke{stroke:  var(--poloto_color4,aqua); }
            .poloto5stroke{stroke:  var(--poloto_color5,brown); }
            .poloto6stroke{stroke:  var(--poloto_color6,lime); }
            .poloto7stroke{stroke:  var(--poloto_color7,chocolate); }
            .poloto0fill{fill:var(--poloto_color0,blue);}
            .poloto1fill{fill:var(--poloto_color1,red);}
            .poloto2fill{fill:var(--poloto_color2,green);}
            .poloto3fill{fill:var(--poloto_color3,gold);}
            .poloto4fill{fill:var(--poloto_color4,aqua);}
            .poloto5fill{fill:var(--poloto_color5,brown);}
            .poloto6fill{fill:var(--poloto_color6,lime);}
            .poloto7fill{fill:var(--poloto_color7,chocolate);}</style><rect class="poloto_background" fill="white" x="0" y="0" width="800" height="500"/><line class="poloto_axis_lines" stroke="black" x1="150" x2="150" y1="400" y2="405"/><text class="poloto_text" alignment-baseline="start" text-anchor="middle" x="150" y="430">0</text><line class="poloto_axis_lines" stroke="black" x1="251.010101010101" x2="251.010101010101" y1="400" y2="405"/><text class="poloto_text" alignment-baseline="start" text-anchor="middle" x="251.010101010101" y="430">2000</text><line class="poloto_axis_lines" stroke="black" x1="352.020202020202" x2="352.020202020202" y1="400" y2="405"/><text class="poloto_text" alignment-baseline="start" text-anchor="middle" x="352.020202020202" y="430">4000</text><line class="poloto_axis_lines" stroke="black" x1="453.030303030303" x2="453.030303030303" y1="400" y2="405"/><text class="poloto_text" alignment-baseline="start" text-anchor="middle" x="453.030303030303" y="430">6000</text><line class="poloto_axis_lines" stroke="black" x1="554.040404040404" x2="554.040404040404" y1="400" y2="405"/><text class="poloto_text" alignment-baseline="start" text-anchor="middle" x="554.040404040404" y="430">8000</text><line class="poloto_axis_lines" stroke="black" x1="150" x2="144" y1="363.940441461788" y2="363.940441461788"/><text class="poloto_text" alignment-baseline="middle" text-anchor="end" x="135" y="363.940441461788">0.002</text><line class="poloto_axis_lines" stroke="black" x1="150" x2="144" y1="327.8780159607487" y2="327.8780159607487"/><text class="poloto_text" alignment-baseline="middle" text-anchor="end" x="135" y="327.8780159607487">0.004</text><line class="poloto_axis_lines" stroke="black" x1="150" x2="144" y1="291.81559045970937" y2="291.81559045970937"/><text class="poloto_text" alignment-baseline="middle" text-anchor="end" x="135" y="291.81559045970937">0.006</text><line class="poloto_axis_lines" stroke="black" x1="150" x2="144" y1="255.75316495867003" y2="255.75316495867003"/><text class="poloto_text" alignment-baseline="middle" text-anchor="end" x="135" y="255.75316495867003">0.008</text><line class="poloto_axis_lines" stroke="black" x1="150" x2="144" y1="219.69073945763074" y2="219.69073945763074"/><text class="poloto_text" alignment-baseline="middle" text-anchor="end" x="135" y="219.69073945763074">0.010</text><line class="poloto_axis_lines" stroke="black" x1="150" x2="144" y1="183.62831395659146" y2="183.62831395659146"/><text class="poloto_text" alignment-baseline="middle" text-anchor="end" x="135" y="183.62831395659146">0.012</text><line class="poloto_axis_lines" stroke="black" x1="150" x2="144" y1="147.5658884555521" y2="147.5658884555521"/><text class="poloto_text" alignment-baseline="middle" text-anchor="end" x="135" y="147.5658884555521">0.014</text><line class="poloto_axis_lines" stroke="black" x1="150" x2="144" y1="111.50346295451277" y2="111.50346295451277"/><text class="poloto_text" alignment-baseline="middle" text-anchor="end" x="135" y="111.50346295451277">0.016</text><text class="poloto_text" alignment-baseline="middle" text-anchor="start" font-size="large" x="675" y="100">brocc</text><line class="poloto0stroke" stroke="black" x1="680" x2="730" y1="81.25" y2="81.25"/><polyline class="poloto0stroke" fill="none" stroke="black" points="150,399.98741421350013 155.05050505050505,399.513734254544 160.1010101010101,398.57313604141314 165.15151515151516,397.6442761477829 170.2020202020202,396.6709873459353 175.25252525252526,395.73367081352507 180.3030303030303,394.27175417735117 185.35353535353534,393.27421339435415 190.40404040404042,392.4912620743011 195.45454545454544,391.4415750240296 200.50505050505052,390.50862204510497 205.55555555555554,388.99418048618884 210.6060606060606,387.85727645984304 215.65656565656565,386.83598856965364 220.7070707070707,386.1548775392155 225.75757575757575,384.942566981147 230.8080808080808,383.8747405308485 235.85858585858585,383.0046623907849 240.9090909090909,381.7882046537839 245.95959595959596,381.1054527829855 251.010101010101,379.87886150441864 256.06060606060606,377.0508460966271 261.1111111111111,376.2063001538183 266.16161616161617,375.5464839856385 271.2121212121212,373.85023370855885 276.26262626262627,372.9821930955361 281.3131313131313,372.0265568509713 286.3636363636364,371.0950824314922 291.4141414141414,369.5476798156681 296.4646464646464,368.6972556975026 301.5151515151515,367.53433263115784 306.5656565656566,366.66414630381774 311.6161616161616,366.01073121616446 316.66666666666663,363.9862768045998 321.7171717171717,363.6335862831997 326.7676767676768,362.18225396891035 331.8181818181818,361.36928067962765 336.86868686868684,360.3562150224525 341.9191919191919,359.44504374853045 346.969696969697,358.1693174152184 352.020202020202,357.57185318073 357.07070707070704,354.2570491223127 362.1212121212121,353.1837592145508 367.1717171717172,351.72597172609676 372.22222222222223,350.77123704216945 377.27272727272725,349.4416695075844 382.32323232323233,348.76008966561477 387.37373737373736,347.9163190649542 392.4242424242424,346.30843976156484 397.47474747474746,344.88027755566 402.52525252525254,343.9905273624856 407.57575757575756,342.7747007179308 412.62626262626264,341.64473870849395 417.67676767676767,340.34589636043575 422.72727272727275,339.63333889496073 427.77777777777777,338.9715032309529 432.8282828282828,337.3128840948836 437.8787878787879,335.61180145278684 442.9292929292929,335.23269520470717 447.979797979798,334.05053283435757 453.030303030303,334.12139550046714 458.0808080808081,332.4163279603525 463.1313131313131,331.02873598313624 468.1818181818182,329.64914986438123 473.2323232323232,329.04108327679546 478.2828282828283,327.8864365371032 483.3333333333333,326.24700261140043 488.3838383838384,325.563096742986 493.4343434343434,324.75600162905994 498.4848484848485,323.44158031318534 503.5353535353535,322.37162617978225 508.5858585858586,322.10425935711754 513.6363636363636,320.5807480981879 518.6868686868687,319.72891754542786 523.7373737373737,318.1660621802765 528.7878787878788,316.8586009125236 533.8383838383838,316.02317876336656 538.8888888888889,314.40410207685915 543.939393939394,313.8488128489941 548.989898989899,312.082565404017 554.040404040404,311.06046610925375 559.090909090909,310.25971798221593 564.1414141414141,301.91974114871806 569.1919191919192,300.6164450911105 574.2424242424242,298.3211258016076 579.2929292929293,298.2257947797956 584.3434343434344,296.9911435491293 589.3939393939394,295.6767042020419 594.4444444444445,294.89598875236993 599.4949494949494,293.7646203083385 604.5454545454545,291.64465456283443 609.5959595959596,290.9558802669774 614.6464646464647,289.92189840301154 619.6969696969697,288.90675915637 624.7474747474747,288.0131502836671 629.7979797979798,287.63554062624564 634.8484848484848,285.98588300291334 639.8989898989898,284.09976405557074 644.9494949494949,283.7062869309289 650,283.2932639716655 "/><text class="poloto_text" alignment-baseline="middle" text-anchor="start" font-size="large" x="675" y="150">brocc_par</text><line class="poloto1stroke" stroke="black" x1="680" x2="730" y1="131.25" y2="131.25"/><polyline class="poloto1stroke" fill="none" stroke="black" points="150,399.96718319279404 155.05050505050505,399.46986431392196 160.1010101010101,398.50867445583003 165.15151515151516,397.59465425029344 170.2020202020202,396.6376836959851 175.25252525252526,395.70247681546664 180.3030303030303,394.2623599155081 185.35353535353534,393.30969882104716 190.40404040404042,392.4287658909078 195.45454545454544,391.43681478386344 200.50505050505052,390.46415707446215 205.55555555555554,389.0313969093059 210.6060606060606,387.8066448144396 215.65656565656565,386.60560376434023 220.7070707070707,386.08477218404147 225.75757575757575,384.9828487104317 230.8080808080808,383.7752623301039 235.85858585858585,382.96493962909557 240.9090909090909,381.76997509769313 245.95959595959596,380.90242132741463 251.010101010101,379.9336403287547 256.06060606060606,376.3813291359876 261.1111111111111,377.9920032773532 266.16161616161617,376.93564467836404 271.2121212121212,376.11785705527694 276.26262626262627,376.1850774164109 281.3131313131313,374.697141740238 286.3636363636364,374.1715859821986 291.4141414141414,373.0264056292004 296.4646464646464,372.5068722962196 301.5151515151515,371.9027365130135 306.5656565656566,371.7123449375807 311.6161616161616,370.50174734472364 316.66666666666663,369.87265636307075 321.7171717171717,368.5677555275284 326.7676767676768,368.51306685925607 331.8181818181818,366.98625588839303 336.86868686868684,367.10899435358584 341.9191919191919,367.072264773213 346.969696969697,364.09421164412447 352.020202020202,364.7373309092972 357.07070707070704,372.47822069915907 362.1212121212121,370.7111438183954 367.1717171717172,371.5347735544136 372.22222222222223,368.1922735532116 377.27272727272725,368.1184177057854 382.32323232323233,362.45768074367453 387.37373737373736,370.05435689395773 392.4242424242424,366.86326498622174 397.47474747474746,366.4059032748048 402.52525252525254,368.63827560059565 407.57575757575756,365.73177032370114 412.62626262626264,367.86590860242717 417.67676767676767,366.447375064131 422.72727272727275,365.388257689591 427.77777777777777,364.900982196221 432.8282828282828,365.7962860029225 437.8787878787879,363.4436454880857 442.9292929292929,366.0022926085972 447.979797979798,362.86808917708913 453.030303030303,363.99338110242354 458.0808080808081,365.3655924551636 463.1313131313131,361.4879981843771 468.1818181818182,359.3595397376675 473.2323232323232,360.9630013939329 478.2828282828283,360.91478593103807 483.3333333333333,361.2144466557389 488.3838383838384,359.9745483421622 493.4343434343434,359.125332315251 498.4848484848485,362.0805579289974 503.5353535353535,353.73046558514653 508.5858585858586,360.21144241527855 513.6363636363636,359.7299369099887 518.6868686868687,360.05051384148015 523.7373737373737,358.60075024270014 528.7878787878788,358.2040274997632 533.8383838383838,360.9842782249786 538.8888888888889,359.6678374132759 543.939393939394,357.6360082356963 548.989898989899,356.211127710512 554.040404040404,359.0149452307923 559.090909090909,355.6339485903679 564.1414141414141,350.7665669580671 569.1919191919192,351.26851985861606 574.2424242424242,350.3515064717629 579.2929292929293,352.508111641576 584.3434343434344,350.57610325778336 589.3939393939394,353.5986574199402 594.4444444444445,351.4526185407989 599.4949494949494,352.0715218872477 604.5454545454545,349.7501114328948 609.5959595959596,349.3007375487264 614.6464646464647,345.40583331369936 619.6969696969697,345.9448764188761 624.7474747474747,347.0865947790263 629.7979797979798,346.0735291218511 634.8484848484848,345.8378070775635 639.8989898989898,345.8542876060175 644.9494949494949,346.2135414888589 650,348.3082455052995 "/><text class="poloto_text" alignment-baseline="middle" text-anchor="start" font-size="large" x="675" y="200">naive</text><line class="poloto2stroke" stroke="black" x1="680" x2="730" y1="181.25" y2="181.25"/><polyline class="poloto2stroke" fill="none" stroke="black" points="150,400 155.05050505050505,399.44626145643156 160.1010101010101,397.7199170852713 165.15151515151516,395.30916197173957 170.2020202020202,392.2784396702067 175.25252525252526,388.71363284700345 180.3030303030303,385.43638780474555 185.35353535353534,381.52904203292064 190.40404040404042,377.3562227157699 195.45454545454544,371.90078914203644 200.50505050505052,365.8973509503892 205.55555555555554,360.24974071116065 210.6060606060606,354.22349303538397 215.65656565656565,347.63643858064063 220.7070707070707,340.2956974641383 225.75757575757575,333.1667329413909 230.8080808080808,325.8332223412015 235.85858585858585,317.2967233199357 240.9090909090909,308.3876633808187 245.95959595959596,298.8395592306106 251.010101010101,289.736844066553 256.06060606060606,277.1668168466342 261.1111111111111,267.84318326395726 266.16161616161617,257.57356013553704 271.2121212121212,246.02444215033992 276.26262626262627,233.5999087861051 281.3131313131313,220.17893454285104 286.3636363636364,207.06524822729136 291.4141414141414,195.14099086081973 296.4646464646464,181.080647844645 301.5151515151515,165.03330124578852 "/><text class="poloto_text" alignment-baseline="middle" text-anchor="start" font-size="large" x="675" y="250">nosort</text><line class="poloto3stroke" stroke="black" x1="680" x2="730" y1="231.25" y2="231.25"/><polyline class="poloto3stroke" fill="none" stroke="black" points="150,399.9891452099242 155.05050505050505,399.3541760529146 160.1010101010101,397.9980305107353 165.15151515151516,396.59487759691535 170.2020202020202,394.42022318313894 175.25252525252526,392.7960256322104 180.3030303030303,390.83040706785073 185.35353535353534,388.93195477098675 190.40404040404042,387.38622905794847 195.45454545454544,384.3982948242726 200.50505050505052,382.50359301966074 205.55555555555554,380.4658135418735 210.6060606060606,376.72403036552396 215.65656565656565,375.4930214398332 220.7070707070707,373.95755548684997 225.75757575757575,369.47373381217824 230.8080808080808,367.6289063420343 235.85858585858585,365.9831795230816 240.9090909090909,362.24363221711315 245.95959595959596,360.3063587191973 251.010101010101,358.3509277900417 256.06060606060606,355.82821687654194 261.1111111111111,350.373829113148 266.16161616161617,351.544036789444 271.2121212121212,347.7446438883565 276.26262626262627,344.8067102076378 281.3131313131313,340.73277406121093 286.3636363636364,338.34884939225196 291.4141414141414,333.68709571015813 296.4646464646464,332.6061064745517 301.5151515151515,331.8712083364788 306.5656565656566,329.9801668680553 311.6161616161616,326.36370062032177 316.66666666666663,323.23550158265965 321.7171717171717,319.06477388618794 326.7676767676768,317.78508068607084 331.8181818181818,311.5923868853941 336.86868686868684,307.68653770422753 341.9191919191919,311.2893002302706 346.969696969697,307.2991731607081 352.020202020202,303.70273959034046 357.07070707070704,297.1434171408074 362.1212121212121,292.0289538001863 367.1717171717172,293.35606908983726 372.22222222222223,289.8815986425141 377.27272727272725,289.3111631959387 382.32323232323233,283.45819547469455 387.37373737373736,281.12466804537326 392.4242424242424,278.7544470981047 397.47474747474746,272.19943410841904 402.52525252525254,276.44156540738277 407.57575757575756,264.33468791817387 412.62626262626264,265.4337804913818 417.67676767676767,259.10163329129256 422.72727272727275,256.7007051887099 427.77777777777777,256.8233895602644 432.8282828282828,252.38516882263875 437.8787878787879,249.39348409671075 442.9292929292929,245.8065710066754 447.979797979798,247.0634547226631 453.030303030303,240.2316986796825 458.0808080808081,237.9236854164032 463.1313131313131,232.18278168240352 468.1818181818182,225.31388134115682 473.2323232323232,225.38770112615742 478.2828282828283,219.29899332941295 483.3333333333333,220.26811692111514 488.3838383838384,216.14939124221593 493.4343434343434,208.16679304543337 498.4848484848485,210.2601807833432 503.5353535353535,205.18569264138995 508.5858585858586,201.96692282208193 513.6363636363636,198.57869566534453 518.6868686868687,191.45265219906267 523.7373737373737,190.95834453271993 528.7878787878788,191.13856650416136 533.8383838383838,184.05356207809967 538.8888888888889,184.02427938859282 543.939393939394,173.94095475031096 548.989898989899,180.05734045862752 554.040404040404,168.09260301953094 559.090909090909,164.41160306136334 564.1414141414141,168.7139405797011 569.1919191919192,168.91397885395534 574.2424242424242,165.01168182170062 579.2929292929293,151.0335611356683 584.3434343434344,155.07246263572094 589.3939393939394,149.9068627757393 594.4444444444445,150.9802789019905 599.4949494949494,149.3281510025114 604.5454545454545,144.18651462427522 609.5959595959596,137.77531858748773 614.6464646464647,138.78007185558488 619.6969696969697,127.44269440171712 624.7474747474747,123.45541626376922 629.7979797979798,120.03886207180079 634.8484848484848,125.4846489467127 639.8989898989898,113.64609393444431 644.9494949494949,100 650,114.08311643787863 "/><text class="poloto_text" alignment-baseline="middle" text-anchor="start" font-size="large" x="675" y="300">nosort_par</text><line class="poloto4stroke" stroke="black" x1="680" x2="730" y1="281.25" y2="281.25"/><polyline class="poloto4stroke" fill="none" stroke="black" points="150,399.9884239614142 155.05050505050505,399.3233246478985 160.1010101010101,397.80075101203187 165.15151515151516,396.5394135864948 170.2020202020202,394.3634248629748 175.25252525252526,392.79241938966027 180.3030303030303,390.55754072529714 185.35353535353534,388.88321640292213 190.40404040404042,387.1493890784704 195.45454545454544,384.2014120122497 200.50505050505052,382.21213649676133 205.55555555555554,380.52441498331274 210.6060606060606,377.1149109955297 215.65656565656565,375.72802223561075 220.7070707070707,373.7824363486169 225.75757575757575,369.7834198911684 230.8080808080808,367.9498438977808 235.85858585858585,365.96864636560474 240.9090909090909,362.7337746733105 245.95959595959596,360.77663077894357 251.010101010101,358.6190338924292 256.06060606060606,362.6390747439448 261.1111111111111,358.54360932949373 266.16161616161617,357.47580091040794 271.2121212121212,357.1012745903669 276.26262626262627,353.85789216565445 281.3131313131313,350.1616378014999 286.3636363636364,349.037103187101 291.4141414141414,346.312190253817 296.4646464646464,344.75234610119503 301.5151515151515,346.4226674943394 306.5656565656566,344.98942048643886 311.6161616161616,342.60459425684235 316.66666666666663,338.2995700878048 321.7171717171717,335.6115670470211 326.7676767676768,336.08872703003806 331.8181818181818,327.5516510099643 336.86868686868684,328.1387833595467 341.9191919191919,333.97572133265567 346.969696969697,328.77149861496247 352.020202020202,327.53767682008265 357.07070707070704,335.3963645228436 362.1212121212121,335.7969639765219 367.1717171717172,331.1812259493674 372.22222222222223,332.5769860659596 377.27272727272725,333.19343716747437 382.32323232323233,331.2137181947438 387.37373737373736,332.4594766524645 392.4242424242424,329.66896616719407 397.47474747474746,325.55112401771964 402.52525252525254,327.55516709645065 407.57575757575756,319.94644609605007 412.62626262626264,322.9249319742447 417.67676767676767,315.9640904791831 422.72727272727275,318.01241821642935 427.77777777777777,318.53521519891797 432.8282828282828,320.17627193376825 437.8787878787879,314.16760469042333 442.9292929292929,313.47293418799677 447.979797979798,314.08646423304594 453.030303030303,310.2239079936934 458.0808080808081,310.94961021326355 463.1313131313131,308.0783198948708 468.1818181818182,303.8409308048604 473.2323232323232,306.08514963742834 478.2828282828283,302.8747102384111 483.3333333333333,302.23478249789514 488.3838383838384,297.3020557505865 493.4343434343434,294.3625533543585 498.4848484848485,298.2439522110354 503.5353535353535,297.7330738601749 508.5858585858586,288.6128323573238 513.6363636363636,296.74231281317213 518.6868686868687,289.83215705715224 523.7373737373737,288.0835441382451 528.7878787878788,293.11931926642296 533.8383838383838,283.74595559898006 538.8888888888889,291.46917480034637 543.939393939394,281.1119019467459 548.989898989899,289.6924331895484 554.040404040404,280.33005053067063 559.090909090909,281.17744540509403 564.1414141414141,260.10424084507247 569.1919191919192,278.5053098315308 574.2424242424242,276.71362034536264 579.2929292929293,266.3899937347546 584.3434343434344,269.6874517665059 589.3939393939394,271.72009234865925 594.4444444444445,257.9846537550361 599.4949494949494,256.53184288130126 604.5454545454545,266.115757020032 609.5959595959596,260.61371276133843 614.6464646464647,266.46145143088495 619.6969696969697,258.59098934619783 624.7474747474747,254.64200950413203 629.7979797979798,256.61437174206037 634.8484848484848,260.8232174222867 639.8989898989898,248.87923390906596 644.9494949494949,240.9223301904529 650,257.3166874786931 "/><text class="poloto_text" alignment-baseline="middle" text-anchor="start" font-size="large" x="675" y="350">sweep</text><line class="poloto5stroke" stroke="black" x1="680" x2="730" y1="331.25" y2="331.25"/><polyline class="poloto5stroke" fill="none" stroke="black" points="150,399.96703894309206 155.05050505050505,399.4202965100708 160.1010101010101,398.2766668413691 165.15151515151516,396.7244498917406 170.2020202020202,395.02080681743325 175.25252525252526,392.7627400134729 180.3030303030303,391.1659318747124 185.35353535353534,388.88415402598514 190.40404040404042,386.72275255358034 195.45454545454544,384.3279730945456 200.50505050505052,381.8751872240924 205.55555555555554,379.3135469222643 210.6060606060606,376.53158323183766 215.65656565656565,373.92149306134894 220.7070707070707,371.25599297407786 225.75757575757575,368.00671434279593 230.8080808080808,364.6094535484705 235.85858585858585,361.84393432407234 240.9090909090909,358.68600181658456 245.95959595959596,355.4687105567221 251.010101010101,351.9305718971769 256.06060606060606,348.65475132072623 261.1111111111111,345.1237349902175 266.16161616161617,341.56588821513594 271.2121212121212,337.44681994319444 276.26262626262627,334.0443661595969 281.3131313131313,330.39203582970265 286.3636363636364,326.81004526074815 291.4141414141414,323.247185808522 296.4646464646464,318.5309778639216 301.5151515151515,314.58196195943026 306.5656565656566,310.7922878820153 311.6161616161616,306.731532552109 316.66666666666663,302.21276638712675 321.7171717171717,298.23075336330203 326.7676767676768,293.9961050176297 331.8181818181818,289.51518636821083 336.86868686868684,284.4720905676562 341.9191919191919,280.34577374818906 346.969696969697,275.5046094992275 352.020202020202,271.2985225945521 357.07070707070704,266.9356723262236 362.1212121212121,262.5533303169118 367.1717171717172,257.5963515884537 372.22222222222223,253.03752006873978 377.27272727272725,247.98872640495605 382.32323232323233,243.38113848596475 387.37373737373736,238.6224850665496 392.4242424242424,233.66886014366307 397.47474747474746,229.10083270544644 402.52525252525254,224.1297896310429 407.57575757575756,218.5167993202954 412.62626262626264,213.74238662093632 417.67676767676767,207.8450080226876 422.72727272727275,201.68174116121972 427.77777777777777,197.23528015936708 432.8282828282828,191.58673229707554 437.8787878787879,186.02678981424006 442.9292929292929,181.2945881839299 447.979797979798,176.1119307966863 453.030303030303,171.00844846463022 "/><text class="poloto_text" alignment-baseline="start" text-anchor="middle" font-size="x-large" x="400" y="37.5">Bench of space partitioning algs with abspiral(x,0.05)</text><text class="poloto_text" alignment-baseline="start" text-anchor="middle" font-size="x-large" x="400" y="481.25">Number of Elements</text><text class="poloto_text" alignment-baseline="start" text-anchor="middle" font-size="x-large" transform="rotate(-90,37.5,250)" x="37.5" y="250">Time in Seconds</text><path stroke="black" fill="none" class="poloto_axis_lines" d=" M 150 100 L 150 400 L 650 400"/></svg>