<svg class="poloto" width="800" height="500" viewBox="0 0 800 500" xmlns="http://www.w3.org/2000/svg"><circle  r="1e5" class="poloto_background" /><text  class="poloto_text poloto_legend_text" x="675" y="100" >broccoli</text><line  class="poloto_line poloto_legend_icon poloto0stroke poloto0legend" stroke="black" x1="680" x2="730" y1="81.25" y2="81.25" /><path  class="poloto_line poloto0stroke" fill="none" stroke="black" d=" M 150.00 400.00 L 155.05 399.59 L 160.10 399.12 L 165.15 398.51 L 170.20 397.84 L 175.25 397.14 L 180.30 396.86 L 185.35 396.18 L 190.40 395.63 L 195.45 394.93 L 200.51 394.33 L 205.56 393.59 L 210.61 392.86 L 215.66 392.30 L 220.71 391.54 L 225.76 390.81 L 230.81 390.34 L 235.86 389.47 L 240.91 388.84 L 245.96 388.18 L 251.01 387.11 L 256.06 387.53 L 261.11 387.15 L 266.16 386.32 L 271.21 385.68 L 276.26 385.02 L 281.31 384.42 L 286.36 383.71 L 291.41 383.12 L 296.46 382.43 L 301.52 381.45 L 306.57 381.00 L 311.62 380.49 L 316.67 379.71 L 321.72 379.16 L 326.77 378.30 L 331.82 377.63 L 336.87 376.78 L 341.92 375.97 L 346.97 375.21 L 352.02 374.71 L 357.07 373.43 L 362.12 372.76 L 367.17 372.09 L 372.22 371.15 L 377.27 370.53 L 382.32 370.03 L 387.37 368.96 L 392.42 368.62 L 397.47 368.01 L 402.53 367.41 L 407.58 366.47 L 412.63 366.11 L 417.68 365.34 L 422.73 364.41 L 427.78 363.91 L 432.83 363.14 L 437.88 362.28 L 442.93 361.60 L 447.98 360.93 L 453.03 360.22 L 458.08 359.67 L 463.13 358.50 L 468.18 357.77 L 473.23 357.14 L 478.28 356.37 L 483.33 355.85 L 488.38 354.83 L 493.43 354.13 L 498.48 353.18 L 503.54 352.14 L 508.59 350.86 L 513.64 350.37 L 518.69 349.68 L 523.74 348.74 L 528.79 348.00 L 533.84 347.12 L 538.89 346.17 L 543.94 345.94 L 548.99 345.39 L 554.04 344.64 L 559.09 343.05 L 564.14 346.70 L 569.19 345.97 L 574.24 345.50 L 579.29 344.73 L 584.34 344.00 L 589.39 343.67 L 594.44 342.84 L 599.49 342.58 L 604.55 341.56 L 609.60 341.07 L 614.65 339.78 L 619.70 339.59 L 624.75 338.78 L 629.80 338.31 L 634.85 337.18 L 639.90 336.27 L 644.95 335.99 L 650.00 335.11" /><text  class="poloto_text poloto_legend_text" x="675" y="150" >naive</text><line  class="poloto_line poloto_legend_icon poloto1stroke poloto1legend" stroke="black" x1="680" x2="730" y1="131.25" y2="131.25" /><path  class="poloto_line poloto1stroke" fill="none" stroke="black" d=" M 150.00 400.00 L 155.05 399.50 L 160.10 398.25 L 165.15 396.30 L 170.20 393.71 L 175.25 390.46 L 180.30 386.58 L 185.35 382.08 L 190.40 376.97 L 195.45 371.27 L 200.51 364.92 L 205.56 357.97 L 210.61 350.41 L 215.66 342.25 L 220.71 333.52 L 225.76 324.17 L 230.81 314.21 L 235.86 303.66 L 240.91 292.49 L 245.96 280.79 L 251.01 268.48" /><text  class="poloto_text poloto_legend_text" x="675" y="200" >nosort</text><line  class="poloto_line poloto_legend_icon poloto2stroke poloto2legend" stroke="black" x1="680" x2="730" y1="181.25" y2="181.25" /><path  class="poloto_line poloto2stroke" fill="none" stroke="black" d=" M 150.00 400.00 L 155.05 399.53 L 160.10 398.61 L 165.15 397.48 L 170.20 396.09 L 175.25 394.83 L 180.30 393.74 L 185.35 392.14 L 190.40 390.77 L 195.45 389.00 L 200.51 387.26 L 205.56 385.85 L 210.61 383.88 L 215.66 382.31 L 220.71 380.53 L 225.76 378.47 L 230.81 376.77 L 235.86 374.62 L 240.91 372.70 L 245.96 370.76 L 251.01 367.67 L 256.06 367.46 L 261.11 365.88 L 266.16 363.54 L 271.21 361.12 L 276.26 358.96 L 281.31 356.88 L 286.36 354.64 L 291.41 352.10 L 296.46 350.00 L 301.52 347.07 L 306.57 344.78 L 311.62 342.94 L 316.67 340.42 L 321.72 338.20 L 326.77 335.50 L 331.82 333.37 L 336.87 329.98 L 341.92 327.10 L 346.97 324.60 L 352.02 321.98 L 357.07 320.12 L 362.12 318.40 L 367.17 315.74 L 372.22 312.95 L 377.27 310.13 L 382.32 307.82 L 387.37 304.39 L 392.42 305.83 L 397.47 301.01 L 402.53 299.84 L 407.58 297.01 L 412.63 295.11 L 417.68 292.38 L 422.73 290.91 L 427.78 286.96 L 432.83 285.12 L 437.88 282.04 L 442.93 279.75 L 447.98 277.53 L 453.03 274.77 L 458.08 271.96 L 463.13 267.80 L 468.18 265.81 L 473.23 263.30 L 478.28 260.73 L 483.33 258.29 L 488.38 254.43 L 493.43 251.97 L 498.48 248.58 L 503.54 244.96 L 508.59 241.35 L 513.64 238.81 L 518.69 235.91 L 523.74 231.69 L 528.79 228.95 L 533.84 226.18 L 538.89 222.75 L 543.94 220.63 L 548.99 218.15 L 554.04 215.06 L 559.09 210.78 L 564.14 216.81 L 569.19 213.64 L 574.24 211.03 L 579.29 207.08 L 584.34 205.01 L 589.39 201.85 L 594.44 199.51 L 599.49 196.09 L 604.55 193.31 L 609.60 190.51 L 614.65 186.58 L 619.70 184.25 L 624.75 181.11 L 629.80 178.11 L 634.85 174.67 L 639.90 171.44 L 644.95 169.76 L 650.00 166.00" /><text  class="poloto_text poloto_legend_text" x="675" y="250" >sweep</text><line  class="poloto_line poloto_legend_icon poloto3stroke poloto3legend" stroke="black" x1="680" x2="730" y1="231.25" y2="231.25" /><path  class="poloto_line poloto3stroke" fill="none" stroke="black" d=" M 150.00 400.00 L 155.05 399.69 L 160.10 399.11 L 165.15 398.34 L 170.20 397.46 L 175.25 396.44 L 180.30 395.32 L 185.35 394.10 L 190.40 392.80 L 195.45 391.45 L 200.51 390.00 L 205.56 388.49 L 210.61 386.88 L 215.66 385.25 L 220.71 383.56 L 225.76 381.77 L 230.81 379.97 L 235.86 378.13 L 240.91 376.17 L 245.96 374.21 L 251.01 372.17 L 256.06 370.02 L 261.11 367.89 L 266.16 365.73 L 271.21 363.46 L 276.26 361.16 L 281.31 358.79 L 286.36 356.45 L 291.41 354.04 L 296.46 351.49 L 301.52 349.02 L 306.57 346.41 L 311.62 343.87 L 316.67 341.27 L 321.72 338.60 L 326.77 335.88 L 331.82 333.14 L 336.87 330.43 L 341.92 327.55 L 346.97 324.81 L 352.02 321.82 L 357.07 318.84 L 362.12 315.86 L 367.17 312.89 L 372.22 309.80 L 377.27 306.83 L 382.32 303.66 L 387.37 300.57 L 392.42 297.47 L 397.47 294.25 L 402.53 291.03 L 407.58 287.87 L 412.63 284.59 L 417.68 281.22 L 422.73 277.87 L 427.78 274.53 L 432.83 271.27 L 437.88 267.77 L 442.93 264.28 L 447.98 260.84 L 453.03 257.36 L 458.08 253.70 L 463.13 250.28 L 468.18 246.70 L 473.23 243.03 L 478.28 239.32 L 483.33 235.81 L 488.38 232.03 L 493.43 228.22 L 498.48 224.51 L 503.54 220.81 L 508.59 216.75 L 513.64 213.16 L 518.69 209.15 L 523.74 205.30 L 528.79 201.46 L 533.84 197.42 L 538.89 193.59 L 543.94 189.61 L 548.99 185.63 L 554.04 181.48 L 559.09 177.37 L 564.14 173.04 L 569.19 168.99 L 574.24 164.84 L 579.29 160.78 L 584.34 156.55 L 589.39 152.37 L 594.44 148.24 L 599.49 143.89 L 604.55 139.57 L 609.60 135.27 L 614.65 131.10 L 619.70 126.75 L 624.75 122.15 L 629.80 117.96 L 634.85 113.55 L 639.90 109.01 L 644.95 104.67 L 650.00 100.00" /><text  class="poloto_labels poloto_text poloto_title" x="400" y="37.5" >Complexity of space partitioning algs with abspiral(x,0.6)</text><text  class="poloto_labels poloto_text poloto_xname" x="400" y="481.25" >Number of Elements</text><text  class="poloto_labels poloto_text poloto_yname" transform="rotate(-90,37.5,250)" x="37.5" y="250" >Number of Comparisons</text><text  class="poloto_tick_labels poloto_text" dominant-baseline="middle" text-anchor="start" x="440.00000000000006" y="70" ></text><line  class="poloto_axis_lines" stroke="black" x1="150" x2="150" y1="400" y2="405" /><text  class="poloto_tick_labels poloto_text" dominant-baseline="start" text-anchor="middle" x="150" y="430" >0</text><line  class="poloto_axis_lines" stroke="black" x1="251.010101010101" x2="251.010101010101" y1="400" y2="405" /><text  class="poloto_tick_labels poloto_text" dominant-baseline="start" text-anchor="middle" x="251.010101010101" y="430" >2000</text><line  class="poloto_axis_lines" stroke="black" x1="352.020202020202" x2="352.020202020202" y1="400" y2="405" /><text  class="poloto_tick_labels poloto_text" dominant-baseline="start" text-anchor="middle" x="352.020202020202" y="430" >4000</text><line  class="poloto_axis_lines" stroke="black" x1="453.030303030303" x2="453.030303030303" y1="400" y2="405" /><text  class="poloto_tick_labels poloto_text" dominant-baseline="start" text-anchor="middle" x="453.030303030303" y="430" >6000</text><line  class="poloto_axis_lines" stroke="black" x1="554.040404040404" x2="554.040404040404" y1="400" y2="405" /><text  class="poloto_tick_labels poloto_text" dominant-baseline="start" text-anchor="middle" x="554.040404040404" y="430" >8000</text><text  class="poloto_tick_labels poloto_text" dominant-baseline="middle" text-anchor="start" x="150" y="70" ></text><line  class="poloto_axis_lines" stroke="black" x1="150" x2="144" y1="400" y2="400" /><text  class="poloto_tick_labels poloto_text" dominant-baseline="middle" text-anchor="end" x="135" y="400" >0</text><line  class="poloto_axis_lines" stroke="black" x1="150" x2="144" y1="326.34691242574235" y2="326.34691242574235" /><text  class="poloto_tick_labels poloto_text" dominant-baseline="middle" text-anchor="end" x="135" y="326.34691242574235" >2e6</text><line  class="poloto_axis_lines" stroke="black" x1="150" x2="144" y1="252.6938248514847" y2="252.6938248514847" /><text  class="poloto_tick_labels poloto_text" dominant-baseline="middle" text-anchor="end" x="135" y="252.6938248514847" >4e6</text><line  class="poloto_axis_lines" stroke="black" x1="150" x2="144" y1="179.04073727722704" y2="179.04073727722704" /><text  class="poloto_tick_labels poloto_text" dominant-baseline="middle" text-anchor="end" x="135" y="179.04073727722704" >6e6</text><line  class="poloto_axis_lines" stroke="black" x1="150" x2="144" y1="105.38764970296938" y2="105.38764970296938" /><text  class="poloto_tick_labels poloto_text" dominant-baseline="middle" text-anchor="end" x="135" y="105.38764970296938" >8e6</text><path  stroke="black" fill="none" class="poloto_axis_lines" style="stroke-dasharray:12.626262626262626;stroke-dashoffset:-0;" d=" M 150 400 L 650 400" /><path  stroke="black" fill="none" class="poloto_axis_lines" style="stroke-dasharray:9.206635946782207;stroke-dashoffset:-0;" d=" M 150 400 L 150 100" /></svg>