<svg  width="800" class="poloto_background poloto" height="500" viewBox="0 0 800 500" xmlns="http://www.w3.org/2000/svg" ><text  class="poloto_text" alignment-baseline="middle" text-anchor="start" font-size="large" x="675" y="100" >contr</text><line  class="poloto0stroke poloto0legend" stroke="black" x1="680" x2="730" y1="81.25" y2="81.25" /><path  class="poloto0stroke" fill="none" stroke="black" d=" M 150 399.69783242448824 L 155.05050505050505 393.5795915417172 L 160.1010101010101 393.39909409960086 L 165.15151515151516 387.95264903587463 L 170.2020202020202 385.24809865319594 L 175.25252525252526 391.74660889677716 L 180.3030303030303 392.8251764819262 L 185.35353535353534 391.8561320944128 L 190.40404040404042 390.42690957861174 L 195.45454545454544 388.6050699904431 L 200.50505050505052 388.0021402700033 L 205.55555555555554 385.6385071917891 L 210.6060606060606 382.7075820972237 L 215.65656565656565 382.797730430383 L 220.7070707070707 379.4628444308809 L 225.75757575757575 379.4820185195596 L 230.8080808080808 378.64297646104546 L 235.85858585858585 376.97683850397937 L 240.9090909090909 375.165539645189 L 245.95959595959596 374.8008304086992 L 251.010101010101 371.3974798621875 L 256.06060606060606 367.601612631207 L 261.1111111111111 367.5532256639656 L 266.16161616161617 365.623870636138 L 271.2121212121212 364.42865231253563 L 276.26262626262627 363.31725788446556 L 281.3131313131313 362.27653653717965 L 286.3636363636364 358.93572765164595 L 291.4141414141414 358.1156589060128 L 296.4646464646464 358.8783057735088 L 301.5151515151515 353.86142052892376 L 306.5656565656566 354.3485026141009 L 311.6161616161616 352.74721523968617 L 316.66666666666663 351.7540777564509 L 321.7171717171717 347.8818153344523 L 326.7676767676768 348.37873543371586 L 331.8181818181818 347.0728896455906 L 336.86868686868684 344.52614903989013 L 341.9191919191919 342.73191612390275 L 346.969696969697 341.40358344643704 L 352.020202020202 340.5603250961716 L 357.07070707070704 332.58008946569544 L 362.1212121212121 333.1743858268349 L 367.1717171717172 330.65575383281 L 372.22222222222223 328.1154380526354 L 377.27272727272725 326.9357798533534 L 382.32323232323233 323.98748765228845 L 387.37373737373736 322.87729787900446 L 392.4242424242424 319.7507167695977 L 397.47474747474746 319.19336315523185 L 402.52525252525254 320.0754716223488 L 407.57575757575756 318.5450581045159 L 412.62626262626264 315.0970349430198 L 417.67676767676767 308.94325674405906 L 422.72727272727275 312.5395528321434 L 427.77777777777777 310.75294939646795 L 432.8282828282828 306.915019635873 L 437.8787878787879 304.5562051768032 L 442.9292929292929 304.1854726663829 L 447.979797979798 303.35998297421236 L 453.030303030303 301.17463880434 L 458.0808080808081 298.534738228515 L 463.1313131313131 295.858196069613 L 468.1818181818182 294.61288418448885 L 473.2323232323232 296.5146325401351 L 478.2828282828283 295.8380181019459 L 483.3333333333333 291.2099351895725 L 488.3838383838384 289.9545845145643 L 493.4343434343434 288.1200960511416 L 498.4848484848485 284.90105768690216 L 503.5353535353535 286.7377546840994 L 508.5858585858586 281.29110884457543 L 513.6363636363636 282.36576130166964 L 518.6868686868687 277.38832850132917 L 523.7373737373737 277.2941646522162 L 528.7878787878788 276.69354385344974 L 533.8383838383838 276.3181934996828 L 538.8888888888889 275.74558092469306 L 543.939393939394 272.26212083490606 L 548.989898989899 272.75000602327395 L 554.040404040404 269.4263634684421 L 559.090909090909 265.7562822747095 L 564.1414141414141 255.4589935510814 L 569.1919191919192 254.95745560847115 L 574.2424242424242 248.1209393094919 L 579.2929292929293 250.2092083811849 L 584.3434343434344 250.78041552559088 L 589.3939393939394 248.76944513600554 L 594.4444444444445 237.38836865648867 L 599.4949494949494 245.15809086309503 L 604.5454545454545 243.02715693439453 L 609.5959595959596 237.86169759952458 L 614.6464646464647 230.77551659612746 L 619.6969696969697 235.10444356995433 L 624.7474747474747 230.42325545909395 L 629.7979797979798 226.4085426086398 L 634.8484848484848 226.22312615948024 L 639.8989898989898 230.49603668575375 L 644.9494949494949 230.57413847105218 L 650 224.2261096878338" /><text  class="poloto_text" alignment-baseline="middle" text-anchor="start" font-size="large" x="675" y="150" >ns_contr</text><line  class="poloto1stroke poloto1legend" stroke="black" x1="680" x2="730" y1="131.25" y2="131.25" /><path  class="poloto1stroke" fill="none" stroke="black" d=" M 150 399.94558975882813 L 155.05050505050505 398.2885871005565 L 160.1010101010101 395.95286185822016 L 165.15151515151516 392.19012263385724 L 170.2020202020202 396.4953580635576 L 175.25252525252526 396.53792253266624 L 180.3030303030303 394.65504710200213 L 185.35353535353534 393.9111727715894 L 190.40404040404042 392.9122127902214 L 195.45454545454544 392.3436157311853 L 200.50505050505052 391.53529236971656 L 205.55555555555554 388.421259747665 L 210.6060606060606 386.675413798919 L 215.65656565656565 386.737955459897 L 220.7070707070707 384.8410257233952 L 225.75757575757575 384.67849771517143 L 230.8080808080808 383.89637559530024 L 235.85858585858585 382.125432671844 L 240.9090909090909 381.4040452307717 L 245.95959595959596 381.2033698209883 L 251.010101010101 379.50048989294635 L 256.06060606060606 374.6969289333987 L 261.1111111111111 373.15025257595346 L 266.16161616161617 371.50429258655447 L 271.2121212121212 370.5135644128914 L 276.26262626262627 371.4238818795827 L 281.3131313131313 369.21856051784096 L 286.3636363636364 367.03472216645116 L 291.4141414141414 367.87426616445947 L 296.4646464646464 367.8213617417702 L 301.5151515151515 363.89478946649854 L 306.5656565656566 363.0330597428464 L 311.6161616161616 361.6864564677916 L 316.66666666666663 361.6851514251066 L 321.7171717171717 358.71728358376765 L 326.7676767676768 358.9063139972855 L 331.8181818181818 357.9502196487227 L 336.86868686868684 351.6841073909587 L 341.9191919191919 353.35586707035986 L 346.969696969697 354.1402981119044 L 352.020202020202 354.14049888770205" /><text  class="poloto_text" alignment-baseline="middle" text-anchor="start" font-size="large" x="675" y="200" >ns_par_contr</text><line  class="poloto2stroke poloto2legend" stroke="black" x1="680" x2="730" y1="181.25" y2="181.25" /><path  class="poloto2stroke" fill="none" stroke="black" d=" M 150 399.92350442108307 L 155.05050505050505 398.62468578587664 L 160.1010101010101 395.0547917151875 L 165.15151515151516 390.57357629881864 L 170.2020202020202 396.4409478223857 L 175.25252525252526 396.44867769059647 L 180.3030303030303 394.79097231703304 L 185.35353535353534 394.0530208726519 L 190.40404040404042 392.78953877783755 L 195.45454545454544 392.00922364014554 L 200.50505050505052 391.20340997614784 L 205.55555555555554 385.164676309259 L 210.6060606060606 384.1147192752797 L 215.65656565656565 385.57285350594697 L 220.7070707070707 382.7222387304545 L 225.75757575757575 382.28836223166314 L 230.8080808080808 381.9081932587518 L 235.85858585858585 381.1462491065477 L 240.9090909090909 382.0186199474771 L 245.95959595959596 380.7721034075668 L 251.010101010101 378.8440534224242 L 256.06060606060606 380.2112362167415 L 261.1111111111111 380.6199153529237 L 266.16161616161617 379.3362552904423 L 271.2121212121212 378.04888087570373 L 276.26262626262627 379.59796654272105 L 281.3131313131313 378.1242721877334 L 286.3636363636364 377.2542102684774 L 291.4141414141414 378.1414385184352 L 296.4646464646464 377.2954696949011 L 301.5151515151515 372.38609988997484 L 306.5656565656566 373.7679393175229 L 311.6161616161616 374.58509681408964 L 316.66666666666663 362.0790735401592 L 321.7171717171717 371.4939526329738 L 326.7676767676768 371.0443152340644 L 331.8181818181818 359.2436173373917 L 336.86868686868684 369.898387368793 L 341.9191919191919 358.66889661652624 L 346.969696969697 357.11218146919697 L 352.020202020202 361.4070769453167 L 357.07070707070704 364.8387368793016 L 362.1212121212121 365.2186046885164 L 367.1717171717172 345.7132359436864 L 372.22222222222223 362.4477982926026 L 377.27272727272725 349.98443987567964 L 382.32323232323233 349.11909618766913 L 387.37373737373736 349.2484961892754 L 392.4242424242424 361.1140446685995 L 397.47474747474746 360.3407566838263 L 402.52525252525254 361.08533372953093 L 407.57575757575756 359.4959925150782 L 412.62626262626264 357.96216580868474 L 417.67676767676767 357.3805183227993 L 422.72727272727275 357.7611892352048 L 427.77777777777777 355.2644418031273 L 432.8282828282828 355.286125589277 L 437.8787878787879 353.34141121292674 L 442.9292929292929 355.5847795883293 L 447.979797979798 353.0523944521632 L 453.030303030303 353.312800661757 L 458.0808080808081 349.1375675610559 L 463.1313131313131 342.4598649180433 L 468.1818181818182 351.0677256920742 L 473.2323232323232 343.5149417348635 L 478.2828282828283 350.36932707983647 L 483.3333333333333 344.42927471750846 L 488.3838383838384 339.9826931262398 L 493.4343434343434 347.2820980267755 L 498.4848484848485 337.1099930130022 L 503.5353535353535 345.7106258583165 L 508.5858585858586 334.37733401864807 L 513.6363636363636 345.4553394315636 L 518.6868686868687 343.22542303460574 L 523.7373737373737 342.378550719982 L 528.7878787878788 344.89356874964864" /><text  class="poloto_text" alignment-baseline="middle" text-anchor="start" font-size="large" x="675" y="250" >ns_par_query</text><line  class="poloto3stroke poloto3legend" stroke="black" x1="680" x2="730" y1="231.25" y2="231.25" /><path  class="poloto3stroke" fill="none" stroke="black" d=" M 150 399.9711886730326 L 155.05050505050505 383.03605130223184 L 160.1010101010101 370.9815727972887 L 165.15151515151516 359.9424175012247 L 170.2020202020202 376.2726173936089 L 175.25252525252526 373.1896046322992 L 180.3030303030303 374.88535701952344 L 185.35353535353534 370.6934595276147 L 190.40404040404042 363.75223865014414 L 195.45454545454544 357.6359051374511 L 200.50505050505052 349.4442525920156 L 205.55555555555554 366.2338275094967 L 210.6060606060606 358.057433924685 L 215.65656565656565 358.0137651886891 L 220.7070707070707 351.9723210485315 L 225.75757575757575 349.3905450661356 L 230.8080808080808 342.83099898005895 L 235.85858585858585 339.51749560301005 L 240.9090909090909 336.3618020029394 L 245.95959595959596 332.831862315989 L 251.010101010101 327.15392275753516 L 256.06060606060606 337.1042709027683 L 261.1111111111111 333.71377000730826 L 266.16161616161617 332.55288434510953 L 271.2121212121212 329.4612382244995 L 276.26262626262627 328.15167808411707 L 281.3131313131313 323.3096685593132 L 286.3636363636364 319.91655757848326 L 291.4141414141414 313.64161118562123 L 296.4646464646464 313.4118232851739 L 301.5151515151515 306.3029546166387 L 306.5656565656566 298.8000634451521 L 311.6161616161616 297.3634122248368 L 316.66666666666663 294.69168868507916 L 321.7171717171717 290.1778472015869 L 326.7676767676768 263.4789827894986 L 331.8181818181818 280.0367620485556 L 336.86868686868684 249.44234522193756 L 341.9191919191919 274.4085145000281 L 346.969696969697 259.89262510339955 L 352.020202020202 235.46333030831133 L 357.07070707070704 287.7621128038742 L 362.1212121212121 282.06791040580805 L 367.1717171717172 279.79352216966356 L 372.22222222222223 260.6715348105078 L 377.27272727272725 241.13484504123934 L 382.32323232323233 231.08993149529783 L 387.37373737373736 255.2016993663516 L 392.4242424242424 254.1151007492953 L 397.47474747474746 253.40174434013028 L 402.52525252525254 250.8477758057133 L 407.57575757575756 245.9028686845973 L 412.62626262626264 238.22811343029466 L 417.67676767676767 231.85227719909733 L 422.72727272727275 193.12784599693217 L 427.77777777777777 231.88088775026705 L 432.8282828282828 229.91750122473238 L 437.8787878787879 226.37822546318978 L 442.9292929292929 219.6368768923119 L 447.979797979798 167.21200719580457 L 453.030303030303 211.017672285712 L 458.0808080808081 195.6214814041456 L 463.1313131313131 160.29287165607911 L 468.1818181818182 197.46781563963154 L 473.2323232323232 145.21260149216576 L 478.2828282828283 187.04423893926133 L 483.3333333333333 179.0146124625553 L 488.3838383838384 132.7681160002249 L 493.4343434343434 149.16557578483258 L 498.4848484848485 113.04621055759458 L 503.5353535353535 167.97334902061567 L 508.5858585858586 102.46221399487621 L 513.6363636363636 100 L 518.6868686868687 160.399082053053 L 523.7373737373737 147.5190134680405 L 528.7878787878788 141.20310881245132" /><text  class="poloto_text" alignment-baseline="middle" text-anchor="start" font-size="large" x="675" y="300" >ns_query</text><line  class="poloto4stroke poloto4legend" stroke="black" x1="680" x2="730" y1="281.25" y2="281.25" /><path  class="poloto4stroke" fill="none" stroke="black" d=" M 150 400 L 155.05050505050505 384.19352377586995 L 160.1010101010101 370.1618052153521 L 165.15151515151516 357.8301557217087 L 170.2020202020202 380.33300673803575 L 175.25252525252526 375.01937486447633 L 180.3030303030303 373.81482046628173 L 185.35353535353534 369.5988298786511 L 190.40404040404042 361.5738212452918 L 195.45454545454544 355.24476577495443 L 200.50505050505052 348.63060867190825 L 205.55555555555554 350.3555739376953 L 210.6060606060606 345.136607852743 L 215.65656565656565 340.02074013990057 L 220.7070707070707 332.30643205345456 L 225.75757575757575 324.793401704185 L 230.8080808080808 315.8742380558478 L 235.85858585858585 310.7955138655766 L 240.9090909090909 299.6995390187685 L 245.95959595959596 293.9049487218613 L 251.010101010101 286.6839467703205 L 256.06060606060606 298.6716673225343 L 261.1111111111111 289.5639752001735 L 266.16161616161617 285.38914365106774 L 271.2121212121212 280.85412032092006 L 276.26262626262627 269.01326726471086 L 281.3131313131313 263.34265602287235 L 286.3636363636364 255.53338098412266 L 291.4141414141414 250.9771758073195 L 296.4646464646464 240.25986411494014 L 301.5151515151515 238.05373965000763 L 306.5656565656566 228.65090710505396 L 311.6161616161616 223.08951789715462 L 316.66666666666663 214.7324260944289 L 321.7171717171717 205.75443513737082 L 326.7676767676768 190.9893829758186 L 331.8181818181818 181.70701590947422 L 336.86868686868684 174.17501224732365 L 341.9191919191919 168.25624211954994 L 346.969696969697 165.40542656825977 L 352.020202020202 152.91124906639257" /><text  class="poloto_text" alignment-baseline="middle" text-anchor="start" font-size="large" x="675" y="350" >par_contr</text><line  class="poloto5stroke poloto5legend" stroke="black" x1="680" x2="730" y1="331.25" y2="331.25" /><path  class="poloto5stroke" fill="none" stroke="black" d=" M 150 399.92029200832013 L 155.05050505050505 397.2643293686806 L 160.1010101010101 393.97712762112803 L 165.15151515151516 388.19759550904695 L 170.2020202020202 390.95826272717784 L 175.25252525252526 394.2070159094742 L 180.3030303030303 391.7971040098942 L 185.35353535353534 392.0486760843901 L 190.40404040404042 390.67707622252385 L 195.45454545454544 389.6311347044982 L 200.50505050505052 387.66172490503305 L 205.55555555555554 372.4931133901395 L 210.6060606060606 382.5035938867785 L 215.65656565656565 372.7160749134656 L 220.7070707070707 380.2095296224612 L 225.75757575757575 365.5381393705277 L 230.8080808080808 381.26721652465125 L 235.85858585858585 380.4843916894882 L 240.9090909090909 378.80690989985305 L 245.95959595959596 378.33167358673916 L 251.010101010101 374.59463366447955 L 256.06060606060606 378.12919119477664 L 261.1111111111111 377.89327963249997 L 266.16161616161617 377.0692957588121 L 271.2121212121212 375.40586827501465 L 276.26262626262627 375.3356971337247 L 281.3131313131313 373.2362850052603 L 286.3636363636364 372.72631447914745 L 291.4141414141414 373.8679256647687 L 296.4646464646464 372.2846077242465 L 301.5151515151515 369.61499233036454 L 306.5656565656566 369.2209698274131 L 311.6161616161616 370.32071925921764 L 316.66666666666663 368.9196053550921 L 321.7171717171717 367.12707903338503 L 326.7676767676768 366.1547218452099 L 331.8181818181818 366.9278090541854 L 336.86868686868684 365.4873430937141 L 341.9191919191919 362.3879671048933 L 346.969696969697 363.3622316631464 L 352.020202020202 351.2682003260599 L 357.07070707070704 357.7652047511585 L 362.1212121212121 358.3657251620261 L 367.1717171717172 356.2966301790117 L 372.22222222222223 339.03322437900044 L 377.27272727272725 350.9856083908221 L 382.32323232323233 353.76665435241773 L 387.37373737373736 350.7471871310745 L 392.4242424242424 353.2891091176305 L 397.47474747474746 351.4666672020688 L 402.52525252525254 353.15007187773557 L 407.57575757575756 344.0004176136592 L 412.62626262626264 341.84077274589015 L 417.67676767676767 339.942136415108 L 422.72727272727275 339.1558983913843 L 427.77777777777777 339.97677024020817 L 432.8282828282828 325.8029024149313 L 437.8787878787879 337.6013917778295 L 442.9292929292929 335.0717171149321 L 447.979797979798 336.7107503393111 L 453.030303030303 342.9937277640804 L 458.0808080808081 333.6004320695166 L 463.1313131313131 332.10696129845724 L 468.1818181818182 323.72095778086526 L 473.2323232323232 322.9935470658625 L 478.2828282828283 336.0103439690966 L 483.3333333333333 333.49582787892416 L 488.3838383838384 317.09646072423845 L 493.4343434343434 332.75767565874537 L 498.4848484848485 316.95390990788405 L 503.5353535353535 327.9256045359268 L 508.5858585858586 326.7219536288218 L 513.6363636363636 325.5394845683722 L 518.6868686868687 327.9675666776424 L 523.7373737373737 326.2215199530988 L 528.7878787878788 318.1057606591871 L 533.8383838383838 324.5260687295711 L 538.8888888888889 325.70612848044846 L 543.939393939394 321.26235775034735 L 548.989898989899 327.1326405229808 L 554.040404040404 322.08875093360746 L 559.090909090909 320.7690516154421 L 564.1414141414141 324.19719797296756 L 569.1919191919192 320.30546029859374 L 574.2424242424242 316.4965426407639 L 579.2929292929293 320.0872170065132 L 584.3434343434344 317.51578097769783 L 589.3939393939394 313.7820538561 L 594.4444444444445 311.2689431965113 L 599.4949494949494 316.85231735425685 L 604.5454545454545 310.2665700265827 L 609.5959595959596 312.7087064416907 L 614.6464646464647 302.26756185902326 L 619.6969696969697 308.3355084044749 L 624.7474747474747 307.81399326999525 L 629.7979797979798 304.2970036219954 L 634.8484848484848 308.1803087128665 L 639.8989898989898 309.8149248696965 L 644.9494949494949 312.5763951910181 L 650 304.63350385891084" /><text  class="poloto_text" alignment-baseline="middle" text-anchor="start" font-size="large" x="675" y="400" >par_query</text><line  class="poloto6stroke poloto6legend" stroke="black" x1="680" x2="730" y1="381.25" y2="381.25" /><path  class="poloto6stroke" fill="none" stroke="black" d=" M 150 399.9583390219809 L 155.05050505050505 393.37640643446275 L 160.1010101010101 386.24314350650917 L 165.15151515151516 375.77810660391754 L 170.2020202020202 389.22827806644875 L 175.25252525252526 386.58104917400834 L 180.3030303030303 387.5753913120297 L 185.35353535353534 384.09855682356624 L 190.40404040404042 381.807604584113 L 195.45454545454544 379.6117196848623 L 200.50505050505052 377.27268164186415 L 205.55555555555554 378.78703309588246 L 210.6060606060606 381.58705237035906 L 215.65656565656565 371.5113197394733 L 220.7070707070707 377.97921167390797 L 225.75757575757575 377.2049198101464 L 230.8080808080808 375.66085353807114 L 235.85858585858585 370.04344788261847 L 240.9090909090909 372.4570741344555 L 245.95959595959596 372.058734951854 L 251.010101010101 365.8437201346001 L 256.06060606060606 370.17766650336904 L 261.1111111111111 369.68436036846373 L 266.16161616161617 368.2759181477228 L 271.2121212121212 368.58872684051175 L 276.26262626262627 365.38986644393935 L 281.3131313131313 366.7435972598119 L 286.3636363636364 365.4312262582619 L 291.4141414141414 363.3785948906575 L 296.4646464646464 362.1388043399696 L 301.5151515151515 361.750002007758 L 306.5656565656566 359.07335946095714 L 311.6161616161616 359.686327971281 L 316.66666666666663 359.19151601789315 L 321.7171717171717 356.070255467125 L 326.7676767676768 349.93916493330227 L 331.8181818181818 341.671518748444 L 336.86868686868684 348.7884184488865 L 341.9191919191919 339.91693905249883 L 346.969696969697 336.71888175911727 L 352.020202020202 347.5864741360617 L 357.07070707070704 344.2461671900223 L 362.1212121212121 348.3812451311869 L 367.1717171717172 346.0423074760876 L 372.22222222222223 333.5217279568252 L 377.27272727272725 339.99915674164976 L 382.32323232323233 338.32629279536127 L 387.37373737373736 336.8393472377266 L 392.4242424242424 340.29138591517625 L 397.47474747474746 339.90669948681705 L 402.52525252525254 337.33727121597855 L 407.57575757575756 337.31970333368133 L 412.62626262626264 336.0299196093706 L 417.67676767676767 334.327441232924 L 422.72727272727275 334.784908887943 L 427.77777777777777 331.35676253041754 L 432.8282828282828 329.5592168137684 L 437.8787878787879 329.23546584000576 L 442.9292929292929 330.15963683673715 L 447.979797979798 326.42289807817406 L 453.030303030303 326.43825742669674 L 458.0808080808081 326.4389601419887 L 463.1313131313131 322.370840929351 L 468.1818181818182 322.6676879462242 L 473.2323232323232 319.5402033457279 L 478.2828282828283 320.338186753616 L 483.3333333333333 319.67974252511704 L 488.3838383838384 318.5808965844021 L 493.4343434343434 318.1540472385297 L 498.4848484848485 318.08959820747367 L 503.5353535353535 315.3352554269698 L 508.5858585858586 315.0606945236393 L 513.6363636363636 313.86939132809175 L 518.6868686868687 311.88191170683524 L 523.7373737373737 311.75451946320584 L 528.7878787878788 309.7002818892199 L 533.8383838383838 308.5654970807199 L 538.8888888888889 306.3732261458275 L 543.939393939394 306.4055510492543 L 548.989898989899 305.7578483259314 L 554.040404040404 302.18815503103997 L 559.090909090909 302.0976051462852 L 564.1414141414141 313.5397174682975 L 569.1919191919192 311.68816306207185 L 574.2424242424242 309.84654705783146 L 579.2929292929293 308.1031104186577 L 584.3434343434344 309.7663371266574 L 589.3939393939394 307.47779419677636 L 594.4444444444445 306.7592176168716 L 599.4949494949494 305.35027345663644 L 604.5454545454545 301.9918966888056 L 609.5959595959596 304.68038500766966 L 614.6464646464647 303.0768890994804 L 619.6969696969697 301.48232771428803 L 624.7474747474747 301.9851706995832 L 629.7979797979798 295.7216685271891 L 634.8484848484848 293.52457897315224 L 639.8989898989898 298.3076608013364 L 644.9494949494949 298.56555731345924 L 650 300.0098380140864" /><text  class="poloto_text" alignment-baseline="middle" text-anchor="start" font-size="large" x="675" y="450" >query</text><line  class="poloto7stroke poloto7legend" stroke="black" x1="680" x2="730" y1="431.25" y2="431.25" /><path  class="poloto7stroke" fill="none" stroke="black" d=" M 150 399.9106547700314 L 155.05050505050505 391.56159399921296 L 160.1010101010101 383.3526747351767 L 165.15151515151516 377.00263819398157 L 170.2020202020202 367.39380968060584 L 175.25252525252526 386.56980572933816 L 180.3030303030303 383.75161624517136 L 185.35353535353534 383.15330436807824 L 190.40404040404042 381.63825019876805 L 195.45454545454544 379.3002160347583 L 200.50505050505052 374.97440108579553 L 205.55555555555554 373.8389135620036 L 210.6060606060606 373.3714071171005 L 215.65656565656565 368.86218347695495 L 220.7070707070707 365.0797682244191 L 225.75757575757575 364.05440622565595 L 230.8080808080808 362.7075017869046 L 235.85858585858585 358.43619746701256 L 240.9090909090909 355.90220612446495 L 245.95959595959596 356.40765919513 L 251.010101010101 354.6495659227254 L 256.06060606060606 351.9420039030815 L 261.1111111111111 351.88347775805715 L 266.16161616161617 348.90767927270974 L 271.2121212121212 346.68298304649164 L 276.26262626262627 346.14520507239973 L 281.3131313131313 340.3486070175157 L 286.3636363636364 337.97463398572086 L 291.4141414141414 340.2495241613595 L 296.4646464646464 337.30725523422507 L 301.5151515151515 336.04979641334114 L 306.5656565656566 331.8835982235357 L 311.6161616161616 328.36921866090574 L 316.66666666666663 327.2345342403045 L 321.7171717171717 324.23574692612254 L 326.7676767676768 321.475481259587 L 331.8181818181818 318.16448758000917 L 336.86868686868684 315.9652898800967 L 341.9191919191919 314.2505641799915 L 346.969696969697 309.487961483171 L 352.020202020202 310.0040556711132 L 357.07070707070704 306.8136278580435 L 362.1212121212121 305.73305251491763 L 367.1717171717172 303.85911160725044 L 372.22222222222223 300.73634523799967 L 377.27272727272725 299.0017427339239 L 382.32323232323233 297.0981873960985 L 387.37373737373736 299.6438237349117 L 392.4242424242424 297.13733867664655 L 397.47474747474746 288.51492165728376 L 402.52525252525254 287.0120144237333 L 407.57575757575756 284.97925986009943 L 412.62626262626264 283.29926837299325 L 417.67676767676767 281.3875816153618 L 422.72727272727275 276.16510195395006 L 427.77777777777777 273.9348843932957 L 432.8282828282828 271.35903129693133 L 437.8787878787879 270.10418256141736 L 442.9292929292929 267.6499995984484 L 447.979797979798 262.4017202470345 L 453.030303030303 266.4849980323972 L 458.0808080808081 262.19512195121956 L 463.1313131313131 257.34046355116175 L 468.1818181818182 260.2734967916028 L 473.2323232323232 257.10866789273757 L 478.2828282828283 249.15031682420874 L 483.3333333333333 251.25806114827697 L 488.3838383838384 249.7688066689689 L 493.4343434343434 243.54525888031353 L 498.4848484848485 244.03545299035474 L 503.5353535353535 237.29581101375717 L 508.5858585858586 232.70808403671788 L 513.6363636363636 237.7619120280765 L 518.6868686868687 226.24099520547398 L 523.7373737373737 231.0857152035465 L 528.7878787878788 222.2528851482127 L 533.8383838383838 227.99236248865617 L 538.8888888888889 220.21551274123212 L 543.939393939394 224.7145972035947 L 548.989898989899 223.1592874868492 L 554.040404040404 220.06764136623917 L 559.090909090909 203.63333922275675 L 564.1414141414141 210.2725933005132 L 569.1919191919192 221.6603957692524 L 574.2424242424242 219.9835163070103 L 579.2929292929293 208.59892625103402 L 584.3434343434344 211.61518105961434 L 589.3939393939394 213.11507665619956 L 594.4444444444445 209.15748452018602 L 599.4949494949494 199.90202141073107 L 604.5454545454545 204.98777275392115 L 609.5959595959596 182.6403222050001 L 614.6464646464647 194.8089417509256 L 619.6969696969697 202.05463912558125 L 624.7474747474747 189.21974509504727 L 629.7979797979798 173.60581286089453 L 634.8484848484848 192.4800428857104 L 639.8989898989898 178.3723306857698 L 644.9494949494949 182.1629777460106 L 650 163.87501305042687" /><text  class="poloto_text" alignment-baseline="start" text-anchor="middle" font-size="x-large" x="400" y="37.5" >Bench of construction vs query abspiral(x,1.5)</text><text  class="poloto_text" alignment-baseline="start" text-anchor="middle" font-size="x-large" x="400" y="481.25" >Number of Elements</text><text  class="poloto_text" alignment-baseline="start" text-anchor="middle" font-size="x-large" transform="rotate(-90,37.5,250)" x="37.5" y="250" >Time in Seconds</text><line  class="poloto_axis_lines" stroke="black" x1="150" x2="150" y1="400" y2="405" /><text  class="poloto_text" alignment-baseline="start" text-anchor="middle" x="150" y="430" > 0</text><line  class="poloto_axis_lines" stroke="black" x1="276.26262626262627" x2="276.26262626262627" y1="400" y2="405" /><text  class="poloto_text" alignment-baseline="start" text-anchor="middle" x="276.26262626262627" y="430" > 5000</text><line  class="poloto_axis_lines" stroke="black" x1="402.52525252525254" x2="402.52525252525254" y1="400" y2="405" /><text  class="poloto_text" alignment-baseline="start" text-anchor="middle" x="402.52525252525254" y="430" > 10000</text><line  class="poloto_axis_lines" stroke="black" x1="528.7878787878788" x2="528.7878787878788" y1="400" y2="405" /><text  class="poloto_text" alignment-baseline="start" text-anchor="middle" x="528.7878787878788" y="430" > 15000</text><line  class="poloto_axis_lines" stroke="black" x1="150" x2="144" y1="349.8595573295213" y2="349.8595573295213" /><text  class="poloto_text" alignment-baseline="middle" text-anchor="end" x="135" y="349.8595573295213" > 0.0005</text><line  class="poloto_axis_lines" stroke="black" x1="150" x2="144" y1="299.6656079089602" y2="299.6656079089602" /><text  class="poloto_text" alignment-baseline="middle" text-anchor="end" x="135" y="299.6656079089602" > 0.0010</text><line  class="poloto_axis_lines" stroke="black" x1="150" x2="144" y1="249.47165848839916" y2="249.47165848839916" /><text  class="poloto_text" alignment-baseline="middle" text-anchor="end" x="135" y="249.47165848839916" > 0.0015</text><line  class="poloto_axis_lines" stroke="black" x1="150" x2="144" y1="199.27770906783815" y2="199.27770906783815" /><text  class="poloto_text" alignment-baseline="middle" text-anchor="end" x="135" y="199.27770906783815" > 0.0020</text><line  class="poloto_axis_lines" stroke="black" x1="150" x2="144" y1="149.08375964727708" y2="149.08375964727708" /><text  class="poloto_text" alignment-baseline="middle" text-anchor="end" x="135" y="149.08375964727708" > 0.0025</text><path  stroke="black" fill="none" class="poloto_axis_lines" style="stroke-dasharray:6.313131313131313;stroke-dashoffset:-0;" d=" M 150 400 L 650 400" /><path  stroke="black" fill="none" class="poloto_axis_lines" style="stroke-dasharray:5.019394942056104;stroke-dashoffset:-50.14044267047873;" d=" M 150 400 L 150 100" /></svg>