<svg class="poloto" width="800" height="500" viewBox="0 0 800 500" xmlns="http://www.w3.org/2000/svg"><style>.poloto {font-family: sans-serif;stroke-width:2;}.poloto_text{fill: var(--poloto_fg_color,black);}.poloto_axis_lines{stroke: var(--poloto_fg_color,black);stoke-width:3;fill:none}.poloto_background{fill: var(--poloto_bg_color,aliceblue);}.poloto0stroke{stroke:  var(--poloto_color0,blue);}.poloto1stroke{stroke:  var(--poloto_color1,red);}.poloto2stroke{stroke:  var(--poloto_color2,green);}.poloto3stroke{stroke:  var(--poloto_color3,gold);}.poloto4stroke{stroke:  var(--poloto_color4,aqua);}.poloto5stroke{stroke:  var(--poloto_color5,brown);}.poloto6stroke{stroke:  var(--poloto_color6,lime);}.poloto7stroke{stroke:  var(--poloto_color7,chocolate);}.poloto0fill{fill:var(--poloto_color0,blue);}.poloto1fill{fill:var(--poloto_color1,red);}.poloto2fill{fill:var(--poloto_color2,green);}.poloto3fill{fill:var(--poloto_color3,gold);}.poloto4fill{fill:var(--poloto_color4,aqua);}.poloto5fill{fill:var(--poloto_color5,brown);}.poloto6fill{fill:var(--poloto_color6,lime);}.poloto7fill{fill:var(--poloto_color7,chocolate);}</style><rect class="poloto_background" fill="white" x="0" y="0" width="800" height="500"/><line class="poloto_axis_lines" stroke="black" x1="150" x2="150" y1="400" y2="405"/><text class="poloto_text" alignment-baseline="start" text-anchor="middle" x="150" y="430">0</text><line class="poloto_axis_lines" stroke="black" x1="276.26262626262627" x2="276.26262626262627" y1="400" y2="405"/><text class="poloto_text" alignment-baseline="start" text-anchor="middle" x="276.26262626262627" y="430">5000</text><line class="poloto_axis_lines" stroke="black" x1="402.52525252525254" x2="402.52525252525254" y1="400" y2="405"/><text class="poloto_text" alignment-baseline="start" text-anchor="middle" x="402.52525252525254" y="430">10000</text><line class="poloto_axis_lines" stroke="black" x1="528.7878787878788" x2="528.7878787878788" y1="400" y2="405"/><text class="poloto_text" alignment-baseline="start" text-anchor="middle" x="528.7878787878788" y="430">15000</text><line class="poloto_axis_lines" stroke="black" x1="150" x2="144" y1="354.01617502944697" y2="354.01617502944697"/><text class="poloto_text" alignment-baseline="middle" text-anchor="end" x="135" y="354.01617502944697">0.0005</text><line class="poloto_axis_lines" stroke="black" x1="150" x2="144" y1="307.9422294210295" y2="307.9422294210295"/><text class="poloto_text" alignment-baseline="middle" text-anchor="end" x="135" y="307.9422294210295">0.0010</text><line class="poloto_axis_lines" stroke="black" x1="150" x2="144" y1="261.86828381261205" y2="261.86828381261205"/><text class="poloto_text" alignment-baseline="middle" text-anchor="end" x="135" y="261.86828381261205">0.0015</text><line class="poloto_axis_lines" stroke="black" x1="150" x2="144" y1="215.79433820419456" y2="215.79433820419456"/><text class="poloto_text" alignment-baseline="middle" text-anchor="end" x="135" y="215.79433820419456">0.0020</text><line class="poloto_axis_lines" stroke="black" x1="150" x2="144" y1="169.72039259577707" y2="169.72039259577707"/><text class="poloto_text" alignment-baseline="middle" text-anchor="end" x="135" y="169.72039259577707">0.0025</text><line class="poloto_axis_lines" stroke="black" x1="150" x2="144" y1="123.64644698735964" y2="123.64644698735964"/><text class="poloto_text" alignment-baseline="middle" text-anchor="end" x="135" y="123.64644698735964">0.0030</text><text class="poloto_text" alignment-baseline="middle" text-anchor="start" font-size="large" x="675" y="100">contr</text><line class="poloto0stroke" stroke="black" x1="680" x2="730" y1="81.25" y2="81.25"/><polyline class="poloto0stroke" fill="none" stroke="black" points="150,399.63518649107664 155.05050505050505,396.1282219239401 160.1010101010101,394.3276522306979 165.15151515151516,389.29011111815345 170.2020202020202,387.5388413243786 175.25252525252526,394.3306009320328 180.3030303030303,392.61121372001753 185.35353535353534,392.4383439252499 190.40404040404042,390.7892656068652 195.45454545454544,388.074680296427 200.50505050505052,388.9523896093968 205.55555555555554,386.62805063974764 210.6060606060606,384.7915433975621 215.65656565656565,383.8384571524465 220.7070707070707,381.68532991972023 225.75757575757575,380.4605005315288 230.8080808080808,380.1216720864592 235.85858585858585,378.30820199249285 240.9090909090909,376.4006483461111 245.95959595959596,376.14272615103846 251.010101010101,374.2898180147978 256.06060606060606,370.82284520951595 261.1111111111111,370.1343160727086 266.16161616161617,367.50247877728935 271.2121212121212,366.61629412699017 276.26262626262627,366.4059185676307 281.3131313131313,355.0703463071015 286.3636363636364,350.06671525990856 291.4141414141414,362.2907785674155 296.4646464646464,362.00106564417183 301.5151515151515,358.83302062142127 306.5656565656566,356.9295219422232 311.6161616161616,355.5627861346731 316.66666666666663,355.14332767083675 321.7171717171717,352.74066574956345 326.7676767676768,352.1178367358144 331.8181818181818,350.1808872592081 336.86868686868684,348.3199630535813 341.9191919191919,346.60591877038325 346.969696969697,345.7507873376893 352.020202020202,344.9236652153562 357.07070707070704,337.19024742403565 362.1212121212121,335.43860887497783 367.1717171717172,334.43502595188585 372.22222222222223,333.6091053013109 377.27272727272725,330.8205215330208 382.32323232323233,328.780738946832 387.37373737373736,329.59228484601533 392.4242424242424,324.5022175605103 397.47474747474746,323.2774833782282 402.52525252525254,326.2998392228817 407.57575757575756,323.3476085646814 412.62626262626264,319.60197744907316 417.67676767676767,318.3425936794814 422.72727272727275,317.2615158279914 427.77777777777777,314.904646608213 432.8282828282828,309.74639580043527 437.8787878787879,308.0551097523696 442.9292929292929,306.60129674277937 447.979797979798,308.5110575571453 453.030303030303,302.9690974340482 458.0808080808081,301.3682114083538 463.1313131313131,298.7822687249803 468.1818181818182,299.3019803523471 473.2323232323232,295.92273375840335 478.2828282828283,296.6151354961453 483.3333333333333,294.3287561953181 488.3838383838384,295.11864878428935 493.4343434343434,295.0785711192153 498.4848484848485,285.37981908100306 503.5353535353535,292.48653525764007 508.5858585858586,282.15676381561343 513.6363636363636,285.3220411623497 518.6868686868687,284.21783497951617 523.7373737373737,279.8960016090573 528.7878787878788,284.1266089453112 533.8383838383838,285.0005401927916 538.8888888888889,282.790550895442 543.939393939394,280.43184728574715 548.989898989899,278.6665634502937 554.040404040404,276.4351193001207 559.090909090909,271.57182980895857 564.1414141414141,260.7161570145257 569.1919191919192,257.83736631753976 574.2424242424242,254.81380900112816 579.2929292929293,254.34431245679454 584.3434343434344,254.94032826822755 589.3939393939394,251.99490952579865 594.4444444444445,242.2722996912468 599.4949494949494,247.85130161774342 604.5454545454545,250.89079988980276 609.5959595959596,245.57192732636298 614.6464646464647,235.79918822818934 619.6969696969697,241.59676146782397 624.7474747474747,235.9003585866779 629.7979797979798,231.4677752659448 634.8484848484848,234.13545021114888 639.8989898989898,237.50272499721714 644.9494949494949,235.81383116524128 650,227.5726789181426 "/><text class="poloto_text" alignment-baseline="middle" text-anchor="start" font-size="large" x="675" y="150">ns_contr</text><line class="poloto1stroke" stroke="black" x1="680" x2="730" y1="131.25" y2="131.25"/><polyline class="poloto1stroke" fill="none" stroke="black" points="150,399.90425833735986 155.05050505050505,398.53936370817576 160.1010101010101,395.4701016886891 165.15151515151516,393.7896007269521 170.2020202020202,397.39027950456494 175.25252525252526,396.91627073649687 180.3030303030303,394.87676169968165 185.35353535353534,394.33161467382865 190.40404040404042,393.46468709486675 195.45454545454544,392.9828459645899 200.50505050505052,391.633801024121 205.55555555555554,389.38640586133795 210.6060606060606,387.85269632076177 215.65656565656565,387.758797816452 220.7070707070707,386.22352207161975 225.75757575757575,385.1852909021463 230.8080808080808,384.984777870444 235.85858585858585,383.71166165411705 240.9090909090909,383.06072946502604 245.95959595959596,382.1840345643163 251.010101010101,380.4781002154855 256.06060606060606,376.6288072966045 261.1111111111111,375.08956910864146 266.16161616161617,372.8571943542272 271.2121212121212,373.33857420516836 276.26262626262627,370.1397521960427 281.3131313131313,363.90078826927305 286.3636363636364,360.8353966717125 291.4141414141414,370.14030465850294 296.4646464646464,369.8902161665674 301.5151515151515,367.2710050520347 306.5656565656566,366.6711220033803 311.6161616161616,365.879939441383 316.66666666666663,365.5660844449998 321.7171717171717,361.7188163278541 326.7676767676768,361.98070230698585 331.8181818181818,361.4117812928121 336.86868686868684,359.5709415112846 341.9191919191919,358.71240143884836 346.969696969697,356.3452124348619 352.020202020202,355.90078320419576 "/><text class="poloto_text" alignment-baseline="middle" text-anchor="start" font-size="large" x="675" y="200">ns_par_contr</text><line class="poloto2stroke" stroke="black" x1="680" x2="730" y1="181.25" y2="181.25"/><polyline class="poloto2stroke" fill="none" stroke="black" points="150,399.90232323115686 155.05050505050505,398.8210598915691 160.1010101010101,396.0760661824227 165.15151515151516,393.7088788545966 170.2020202020202,397.3126910464179 175.25252525252526,396.86125848246536 180.3030303030303,395.0891623960084 185.35353535353534,394.34055263142204 190.40404040404042,392.9638637835544 195.45454545454544,392.62844531915545 200.50505050505052,392.0406339775349 205.55555555555554,389.3608806206555 210.6060606060606,389.23933753848286 215.65656565656565,386.98475500000393 220.7070707070707,387.82542049818176 225.75757575757575,387.53699754796406 230.8080808080808,387.55035855755983 235.85858585858585,384.7823285382745 240.9090909090909,381.36999990220545 245.95959595959596,379.80136588401774 251.010101010101,379.094499552688 256.06060606060606,379.79473231171045 261.1111111111111,374.1695635647228 266.16161616161617,377.22435914684525 271.2121212121212,372.8962636412185 276.26262626262627,347.1648874147035 281.3131313131313,367.0184277971717 286.3636363636364,374.1281905629096 291.4141414141414,376.1776519695783 296.4646464646464,372.99053090081117 301.5151515151515,371.7057124031973 306.5656565656566,371.6935501835031 311.6161616161616,370.35832619103735 316.66666666666663,369.99314582298746 321.7171717171717,369.06549162403735 326.7676767676768,366.08745614160375 331.8181818181818,370.7642385971723 336.86868686868684,367.46516074265975 341.9191919191919,358.9218517576798 346.969696969697,358.6431049460855 352.020202020202,361.68048455142855 357.07070707070704,366.1821846805321 362.1212121212121,367.29164462045077 367.1717171717172,366.111045752283 372.22222222222223,358.63149518885143 377.27272727272725,361.93803665029 382.32323232323233,359.4235064445391 387.37373737373736,355.36973536896846 392.4242424242424,351.39392318298815 397.47474747474746,360.2738453994836 402.52525252525254,354.80431685951817 407.57575757575756,355.27463941568556 412.62626262626264,358.5900283220571 417.67676767676767,351.57655761764704 422.72727272727275,357.1351050238332 427.77777777777777,356.0279487987364 432.8282828282828,351.6962596052618 437.8787878787879,350.5930671642241 442.9292929292929,347.46897777119545 447.979797979798,349.7289032384915 453.030303030303,343.54402699568953 458.0808080808081,346.6327319726993 463.1313131313131,345.19725213484656 468.1818181818182,349.51401143261273 473.2323232323232,346.1058329696367 478.2828282828283,347.56333621391263 483.3333333333333,344.75595799454925 488.3838383838384,345.2398239265613 493.4343434343434,349.03880789742806 498.4848484848485,339.755550538993 503.5353535353535,343.86240092044864 508.5858585858586,341.73000309833463 513.6363636363636,329.8091987717727 518.6868686868687,340.8091715425823 523.7373737373737,334.4330896514185 528.7878787878788,333.267232948997 "/><text class="poloto_text" alignment-baseline="middle" text-anchor="start" font-size="large" x="675" y="250">ns_par_query</text><line class="poloto3stroke" stroke="black" x1="680" x2="730" y1="231.25" y2="231.25"/><polyline class="poloto3stroke" fill="none" stroke="black" points="150,399.957796261676 155.05050505050505,388.73934359132494 160.1010101010101,376.1804142818793 165.15151515151516,369.1917346599066 170.2020202020202,383.1777576416077 175.25252525252526,375.9166885491179 180.3030303030303,374.7711040007579 185.35353535353534,368.3992621248833 190.40404040404042,362.8615420170754 195.45454545454544,358.87264505272947 200.50505050505052,351.84913079534147 205.55555555555554,368.7629701536581 210.6060606060606,364.8620729500238 215.65656565656565,359.6951570635621 220.7070707070707,358.84334308748595 225.75757575757575,354.20139258547607 230.8080808080808,345.85343808102266 235.85858585858585,347.5401113357313 240.9090909090909,340.3970828206908 245.95959595959596,338.2012000890725 251.010101010101,333.1861443327511 256.06060606060606,331.7529655278637 261.1111111111111,327.0680785016411 266.16161616161617,324.8600308684719 271.2121212121212,320.120310602146 276.26262626262627,293.3915224045823 281.3131313131313,304.8896500393843 286.3636363636364,310.6131343085067 291.4141414141414,304.0444682946872 296.4646464646464,311.6797462254805 301.5151515151515,309.89410173469776 306.5656565656566,302.38018317889976 311.6161616161616,301.32010962832385 316.66666666666663,289.84373721428466 321.7171717171717,287.1820481730183 326.7676767676768,286.7454526454893 331.8181818181818,277.40423500215195 336.86868686868684,270.41021043996966 341.9191919191919,267.9239684576664 346.969696969697,260.46422340524737 352.020202020202,264.8772828099112 357.07070707070704,292.057963845067 362.1212121212121,288.5873946700806 367.1717171717172,279.717057409084 372.22222222222223,282.4051037370439 377.27272727272725,268.81798144738946 382.32323232323233,275.1538891266415 387.37373737373736,269.0278099080019 392.4242424242424,223.1121721064599 397.47474747474746,258.2853865541972 402.52525252525254,259.7096240491705 407.57575757575756,255.30412748012688 412.62626262626264,246.51395627670476 417.67676767676767,232.83911582128206 422.72727272727275,246.48235327849596 427.77777777777777,233.37753608031076 432.8282828282828,232.5201894340628 437.8787878787879,232.77691820294714 442.9292929292929,229.73253895187048 447.979797979798,220.88615603405117 453.030303030303,219.55545096996133 458.0808080808081,201.98598617349853 463.1313131313131,209.2769029890505 468.1818181818182,203.36967399663567 473.2323232323232,193.95464093215952 478.2828282828283,201.3076695466351 483.3333333333333,192.84583268339532 488.3838383838384,197.11974664007323 493.4343434343434,175.99510545651518 498.4848484848485,180.96216134335745 503.5353535353535,181.15622048714476 508.5858585858586,178.4034985053489 513.6363636363636,102.90127538274487 518.6868686868687,170.35906580378762 523.7373737373737,100 528.7878787878788,103.16040709514544 "/><text class="poloto_text" alignment-baseline="middle" text-anchor="start" font-size="large" x="675" y="300">ns_query</text><line class="poloto4stroke" stroke="black" x1="680" x2="730" y1="281.25" y2="281.25"/><polyline class="poloto4stroke" fill="none" stroke="black" points="150,400 155.05050505050505,388.84863058882223 160.1010101010101,373.0310778907907 165.15151515151516,363.5598411574872 170.2020202020202,382.2735106870878 175.25252525252526,377.7519970014019 180.3030303030303,374.5153031542581 185.35353535353534,367.8470195769231 190.40404040404042,362.82145898828816 195.45454545454544,357.8340451279731 200.50505050505052,348.03651226550545 205.55555555555554,355.5054694953555 210.6060606060606,350.40646358179293 215.65656565656565,342.0217461870267 220.7070707070707,338.08702808977296 225.75757575757575,327.33475159480906 230.8080808080808,316.16854662432405 235.85858585858585,318.1162771644741 240.9090909090909,304.5324803770074 245.95959595959596,305.1771450672174 251.010101010101,289.5959551190276 256.06060606060606,308.87651952013846 261.1111111111111,299.8082397869935 266.16161616161617,295.6505253132069 271.2121212121212,286.1508206720634 276.26262626262627,244.25523228116683 281.3131313131313,235.04707763503995 286.3636363636364,232.91016356640662 291.4141414141414,255.475980851242 296.4646464646464,255.96344583481522 301.5151515151515,249.55833552778142 306.5656565656566,243.44534376936411 311.6161616161616,231.10130492486894 316.66666666666663,231.78144521422237 321.7171717171717,224.80631164995106 326.7676767676768,212.69955275025586 331.8181818181818,199.86564597867127 336.86868686868684,194.85355635575274 341.9191919191919,193.95391146716352 346.969696969697,177.15220857898476 352.020202020202,170.7534703632395 "/><text class="poloto_text" alignment-baseline="middle" text-anchor="start" font-size="large" x="675" y="350">par_contr</text><line class="poloto5stroke" stroke="black" x1="680" x2="730" y1="331.25" y2="331.25"/><polyline class="poloto5stroke" fill="none" stroke="black" points="150,399.8695185935739 155.05050505050505,397.4216097914804 160.1010101010101,393.39778818190695 165.15151515151516,391.4459114914487 170.2020202020202,387.85453875624796 175.25252525252526,395.3844964906918 180.3030303030303,393.18382027562785 185.35353535353534,392.5049672774438 190.40404040404042,389.85617595504505 195.45454545454544,389.03578328139287 200.50505050505052,389.09079553542443 205.55555555555554,381.6014749683884 210.6060606060606,385.027902124619 215.65656565656565,385.20491941062306 220.7070707070707,383.1647640463665 225.75757575757575,362.4815256182982 230.8080808080808,383.1522330713894 235.85858585858585,382.4977058535221 240.9090909090909,380.9403141782139 245.95959595959596,378.4901941224953 251.010101010101,380.0851814045916 256.06060606060606,372.30578049995734 261.1111111111111,372.5936509877148 266.16161616161617,368.2391096941267 271.2121212121212,375.34536995514117 276.26262626262627,374.7446582127965 281.3131313131313,359.0716844042284 286.3636363636364,367.26925379967304 291.4141414141414,369.8642289760851 296.4646464646464,370.06704706353753 301.5151515151515,369.90099723011116 306.5656565656566,366.8639877209793 311.6161616161616,366.2578371734439 316.66666666666663,364.6482914327786 321.7171717171717,366.3761553230515 326.7676767676768,364.44538216220167 331.8181818181818,362.3573100660207 336.86868686868684,360.5550809740055 341.9191919191919,360.7846210806494 346.969696969697,358.9424001429714 352.020202020202,357.97346680718914 357.07070707070704,359.0551909861204 362.1212121212121,359.04090741785325 367.1717171717172,355.90529945071506 372.22222222222223,353.46927791515805 377.27272727272725,352.7234321390331 382.32323232323233,352.0991281041525 387.37373737373736,351.6280707192759 392.4242424242424,349.78787726518976 397.47474747474746,338.97948023895316 402.52525252525254,342.4572367896353 407.57575757575756,349.6105850888839 412.62626262626264,350.02045859722136 417.67676767676767,339.1868145729249 422.72727272727275,341.38712236793805 427.77777777777777,347.15060384643635 432.8282828282828,342.2464911340646 437.8787878787879,343.586877700491 442.9292929292929,341.89467445746715 447.979797979798,344.9935168524359 453.030303030303,340.12386599741166 458.0808080808081,339.3679793501654 463.1313131313131,325.5208242442919 468.1818181818182,336.90339067807406 473.2323232323232,330.7089348434864 478.2828282828283,335.4310514030708 483.3333333333333,331.65759334335064 488.3838383838384,335.0863255553314 493.4343434343434,329.83177464065614 498.4848484848485,330.903364083485 503.5353535353535,332.7283514106326 508.5858585858586,325.2899002996408 513.6363636363636,325.4259079754013 518.6868686868687,324.9821250721765 523.7373737373737,333.7470492775387 528.7878787878788,312.9532311970905 533.8383838383838,322.0757809804521 538.8888888888889,320.1849969834084 543.939393939394,308.5869862812872 548.989898989899,316.07778186945484 554.040404040404,307.9708887276115 559.090909090909,323.19685067760486 564.1414141414141,315.5071096029194 569.1919191919192,306.8744170192208 574.2424242424242,307.92242221508354 579.2929292929293,311.26480400816354 584.3434343434344,305.26810291576203 589.3939393939394,297.55485804980856 594.4444444444445,308.76999617587046 599.4949494949494,310.8036051281593 604.5454545454545,312.9655784648903 609.5959595959596,307.29950201821003 614.6464646464647,310.25108903082565 619.6969696969697,311.93306367276597 624.7474747474747,293.6126790274855 629.7979797979798,298.90104279021045 634.8484848484848,305.11707147931196 639.8989898989898,295.3112382706583 644.9494949494949,303.68093726844813 650,284.060077446706 "/><text class="poloto_text" alignment-baseline="middle" text-anchor="start" font-size="large" x="675" y="400">par_query</text><line class="poloto6stroke" stroke="black" x1="680" x2="730" y1="381.25" y2="381.25"/><polyline class="poloto6stroke" fill="none" stroke="black" points="150,399.9718027501568 155.05050505050505,394.72969337682656 160.1010101010101,382.95844479511896 165.15151515151516,382.645787247709 170.2020202020202,374.63417376632594 175.25252525252526,389.62442398716786 180.3030303030303,386.5907312641897 185.35353535353534,384.96183324627776 190.40404040404042,383.55565537366857 195.45454545454544,381.89994281251234 200.50505050505052,376.8898619001894 205.55555555555554,383.2635475524785 210.6060606060606,382.22771262187973 215.65656565656565,379.69244764180337 220.7070707070707,378.4865079105946 225.75757575757575,377.8642340411624 230.8080808080808,378.4257826315347 235.85858585858585,376.189905372397 240.9090909090909,372.7347300543114 245.95959595959596,372.98988725522645 251.010101010101,370.6857272451218 256.06060606060606,373.77572487701417 261.1111111111111,372.65575742292526 266.16161616161617,372.5408505949165 271.2121212121212,369.1465829221398 276.26262626262627,358.6787655933345 281.3131313131313,359.52754102587954 286.3636363636364,358.5234056403274 291.4141414141414,355.11577695795495 296.4646464646464,361.5413391034426 301.5151515151515,359.76564966436985 306.5656565656566,361.30479666920843 311.6161616161616,360.1601346795198 316.66666666666663,359.1549855521717 321.7171717171717,359.70667563767165 326.7676767676768,356.7807969024516 331.8181818181818,355.2675432231142 336.86868686868684,353.19679592058816 341.9191919191919,352.7331082776564 346.969696969697,350.5057083672406 352.020202020202,348.2736098440564 357.07070707070704,349.9904164395555 362.1212121212121,349.8019731034947 367.1717171717172,347.0649078005467 372.22222222222223,341.7005187668421 377.27272727272725,342.5017448818174 382.32323232323233,342.55307025348407 387.37373737373736,339.0781725619406 392.4242424242424,341.3423407263825 397.47474747474746,328.3961124365544 402.52525252525254,324.5058112483582 407.57575757575756,331.9909856650861 412.62626262626264,339.38677380123863 417.67676767676767,317.917792957292 422.72727272727275,342.2248378238527 427.77777777777777,334.5047810421278 432.8282828282828,324.6431115790013 437.8787878787879,325.54330356633756 442.9292929292929,323.557152748494 447.979797979798,328.66868561424883 453.030303030303,328.46577634367185 458.0808080808081,325.27312796844615 463.1313131313131,313.7548274082769 468.1818181818182,325.4037022027291 473.2323232323232,315.3751568943425 478.2828282828283,325.0457065285185 483.3333333333333,323.0769663237411 488.3838383838384,322.56351951339883 493.4343434343434,311.6646366453797 498.4848484848485,308.6703812942116 503.5353535353535,326.2686921402954 508.5858585858586,317.8591836630918 513.6363636363636,309.7938539348806 518.6868686868687,315.33746608164506 523.7373737373737,315.20385062197437 528.7878787878788,307.2258689633203 533.8383838383838,306.6608232319378 538.8888888888889,308.52340482494515 543.939393939394,302.78222566595673 548.989898989899,308.18476142798124 554.040404040404,301.9563961985063 559.090909090909,312.8611737873386 564.1414141414141,316.2391330901129 569.1919191919192,314.09291834278065 574.2424242424242,299.8078750544955 579.2929292929293,298.14119772261824 584.3434343434344,308.2361779827724 589.3939393939394,304.2124490648677 594.4444444444445,307.362246735292 599.4949494949494,304.9905522122126 604.5454545454545,301.0534365351558 609.5959595959596,287.12722029662825 614.6464646464647,305.3151855902829 619.6969696969697,308.44747610080327 624.7474747474747,297.92980305774967 629.7979797979798,296.8243095837467 634.8484848484848,289.6351209528567 639.8989898989898,288.6079484190854 644.9494949494949,289.4824267653128 650,301.9339115127474 "/><text class="poloto_text" alignment-baseline="middle" text-anchor="start" font-size="large" x="675" y="450">query</text><line class="poloto7stroke" stroke="black" x1="680" x2="730" y1="431.25" y2="431.25"/><polyline class="poloto7stroke" fill="none" stroke="black" points="150,399.9122752029222 155.05050505050505,392.0237704632158 160.1010101010101,384.5732456337976 165.15151515151516,381.68146000064223 170.2020202020202,371.811407053775 175.25252525252526,389.5601043497959 180.3030303030303,387.5376425344771 185.35353535353534,385.2963291520053 190.40404040404042,382.2762743403171 195.45454545454544,378.73973015197066 200.50505050505052,377.4852287023245 205.55555555555554,376.77016259443127 210.6060606060606,375.25737019442954 215.65656565656565,371.4922071171822 220.7070707070707,371.11375424080455 225.75757575757575,370.32902422579383 230.8080808080808,367.47262434958566 235.85858585858585,363.9988315829626 240.9090909090909,360.30784865935203 245.95959595959596,359.4046154466281 251.010101010101,357.0958506887363 256.06060606060606,353.34101007755356 261.1111111111111,356.1618378077806 266.16161616161617,355.4292618581269 271.2121212121212,352.6055752687612 276.26262626262627,349.79119203995094 281.3131313131313,333.57086202615324 286.3636363636364,332.3470450388294 291.4141414141414,342.0042390271228 296.4646464646464,340.892470008669 301.5151515151515,338.8813457421391 306.5656565656566,337.0671394785352 311.6161616161616,335.3752097848848 316.66666666666663,335.5201587705594 321.7171717171717,327.43805134744036 326.7676767676768,326.86194027571423 331.8181818181818,317.5578609826141 336.86868686868684,322.84180504565745 341.9191919191919,319.40680801665223 346.969696969697,316.74963522190524 352.020202020202,312.1549551243784 357.07070707070704,315.1177844798735 362.1212121212121,312.98603566705737 367.1717171717172,309.5843043873548 372.22222222222223,311.6872125142631 377.27272727272725,305.7788785969278 382.32323232323233,304.42770560324453 387.37373737373736,302.4269976677603 392.4242424242424,303.10593648535564 397.47474747474746,298.5559522099731 402.52525252525254,297.4469508675335 407.57575757575756,291.23701535663383 412.62626262626264,291.65149093090196 417.67676767676767,288.24487867218204 422.72727272727275,286.43288762213217 427.77777777777777,285.55923528773843 432.8282828282828,281.19169235333936 437.8787878787879,277.97776612782604 442.9292929292929,275.4745640843659 447.979797979798,279.34689683332255 453.030303030303,272.6377927166345 458.0808080808081,266.2833694993959 463.1313131313131,269.2816744540344 468.1818181818182,262.0032765451049 473.2323232323232,265.1754730818767 478.2828282828283,262.83445899833475 483.3333333333333,264.45745424986364 488.3838383838384,256.8830866462358 493.4343434343434,251.78195938410036 498.4848484848485,260.0550900893322 503.5353535353535,248.49024858967599 508.5858585858586,243.62364432375267 513.6363636363636,241.35146813549449 518.6868686868687,243.6051287857661 523.7373737373737,247.89064981782147 528.7878787878788,240.78862152652638 533.8383838383838,241.54082866651348 538.8888888888889,244.24582432820378 543.939393939394,240.42086389428113 548.989898989899,238.44650251806402 554.040404040404,231.33840250341993 559.090909090909,228.07654613669925 564.1414141414141,227.77245578020734 569.1919191919192,215.20560828914154 574.2424242424242,209.49889635121383 579.2929292929293,217.29432403090718 584.3434343434344,202.58687223652245 589.3939393939394,203.26158444811156 594.4444444444445,216.01797483644535 599.4949494949494,203.85315910501012 604.5454545454545,199.30309973764273 609.5959595959596,197.79379375122483 614.6464646464647,205.93535257151746 619.6969696969697,202.8645194869096 624.7474747474747,204.50382042658424 629.7979797979798,203.3001817283408 634.8484848484848,183.16053283790328 639.8989898989898,179.15486890607588 644.9494949494949,180.66820840482455 650,183.86075486949937 "/><text class="poloto_text" alignment-baseline="start" text-anchor="middle" font-size="x-large" x="400" y="37.5">Bench of construction vs query abspiral(x,1.5)</text><text class="poloto_text" alignment-baseline="start" text-anchor="middle" font-size="x-large" x="400" y="481.25">Number of Elements</text><text class="poloto_text" alignment-baseline="start" text-anchor="middle" font-size="x-large" transform="rotate(-90,37.5,250)" x="37.5" y="250">Time in Seconds</text><path stroke="black" fill="none" class="poloto_axis_lines" d=" M 150 100 L 150 400 L 650 400"/></svg>