<svg class="poloto" width="800" height="500" viewBox="0 0 800 500" xmlns="http://www.w3.org/2000/svg"><style>.poloto {
                    font-family: "Arial";
                    stroke-width:2;
                    }
                    .poloto_text{fill: var(--poloto_fg_color,black);  }
                    .poloto_axis_lines{stroke: var(--poloto_fg_color,black);stoke-width:3;fill:none}
                    .poloto_background{fill: var(--poloto_bg_color,aliceblue); }
                    .poloto0stroke{stroke:  var(--poloto_color0,blue); }
                    .poloto1stroke{stroke:  var(--poloto_color1,red); }
                    .poloto2stroke{stroke:  var(--poloto_color2,green); }
                    .poloto3stroke{stroke:  var(--poloto_color3,gold); }
                    .poloto4stroke{stroke:  var(--poloto_color4,aqua); }
                    .poloto5stroke{stroke:  var(--poloto_color5,brown); }
                    .poloto6stroke{stroke:  var(--poloto_color6,lime); }
                    .poloto7stroke{stroke:  var(--poloto_color7,chocolate); }
                    .poloto0fill{fill:var(--poloto_color0,blue);}
                    .poloto1fill{fill:var(--poloto_color1,red);}
                    .poloto2fill{fill:var(--poloto_color2,green);}
                    .poloto3fill{fill:var(--poloto_color3,gold);}
                    .poloto4fill{fill:var(--poloto_color4,aqua);}
                    .poloto5fill{fill:var(--poloto_color5,brown);}
                    .poloto6fill{fill:var(--poloto_color6,lime);}
                    .poloto7fill{fill:var(--poloto_color7,chocolate);}</style><rect class="poloto_background" fill="white" x="0" y="0" width="800" height="500"/><line class="poloto_axis_lines" stroke="black" x1="150" x2="150" y1="400" y2="405"/><text class="poloto_text" alignment-baseline="start" text-anchor="middle" x="150" y="430">0</text><line class="poloto_axis_lines" stroke="black" x1="276.26262626262627" x2="276.26262626262627" y1="400" y2="405"/><text class="poloto_text" alignment-baseline="start" text-anchor="middle" x="276.26262626262627" y="430">5000</text><line class="poloto_axis_lines" stroke="black" x1="402.52525252525254" x2="402.52525252525254" y1="400" y2="405"/><text class="poloto_text" alignment-baseline="start" text-anchor="middle" x="402.52525252525254" y="430">10000</text><line class="poloto_axis_lines" stroke="black" x1="528.7878787878788" x2="528.7878787878788" y1="400" y2="405"/><text class="poloto_text" alignment-baseline="start" text-anchor="middle" x="528.7878787878788" y="430">15000</text><line class="poloto_axis_lines" stroke="black" x1="150" x2="144" y1="364.81437995305373" y2="364.81437995305373"/><text class="poloto_text" alignment-baseline="middle" text-anchor="end" x="135" y="364.81437995305373">0.0005</text><line class="poloto_axis_lines" stroke="black" x1="150" x2="144" y1="329.5905773040359" y2="329.5905773040359"/><text class="poloto_text" alignment-baseline="middle" text-anchor="end" x="135" y="329.5905773040359">0.0010</text><line class="poloto_axis_lines" stroke="black" x1="150" x2="144" y1="294.36677465501805" y2="294.36677465501805"/><text class="poloto_text" alignment-baseline="middle" text-anchor="end" x="135" y="294.36677465501805">0.0015</text><line class="poloto_axis_lines" stroke="black" x1="150" x2="144" y1="259.14297200600026" y2="259.14297200600026"/><text class="poloto_text" alignment-baseline="middle" text-anchor="end" x="135" y="259.14297200600026">0.0020</text><line class="poloto_axis_lines" stroke="black" x1="150" x2="144" y1="223.91916935698242" y2="223.91916935698242"/><text class="poloto_text" alignment-baseline="middle" text-anchor="end" x="135" y="223.91916935698242">0.0025</text><line class="poloto_axis_lines" stroke="black" x1="150" x2="144" y1="188.69536670796458" y2="188.69536670796458"/><text class="poloto_text" alignment-baseline="middle" text-anchor="end" x="135" y="188.69536670796458">0.0030</text><line class="poloto_axis_lines" stroke="black" x1="150" x2="144" y1="153.47156405894677" y2="153.47156405894677"/><text class="poloto_text" alignment-baseline="middle" text-anchor="end" x="135" y="153.47156405894677">0.0035</text><line class="poloto_axis_lines" stroke="black" x1="150" x2="144" y1="118.24776140992896" y2="118.24776140992896"/><text class="poloto_text" alignment-baseline="middle" text-anchor="end" x="135" y="118.24776140992896">0.0040</text><text class="poloto_text" alignment-baseline="middle" text-anchor="start" font-size="large" x="675" y="100">contr</text><line class="poloto0stroke" stroke="black" x1="680" x2="730" y1="81.25" y2="81.25"/><polyline class="poloto0stroke" fill="none" stroke="black" points="150,398.72856161958106 155.05050505050505,396.8938946348043 160.1010101010101,395.3402431475614 165.15151515151516,392.43378629578035 170.2020202020202,389.96790876753323 175.25252525252526,394.6352035137387 180.3030303030303,392.6943015401725 185.35353535353534,391.6261045010384 190.40404040404042,390.47590644933734 195.45454545454544,389.53092227186954 200.50505050505052,388.29660977944263 205.55555555555554,385.85038713307364 210.6060606060606,384.09321251412473 215.65656565656565,383.10997528698005 220.7070707070707,381.4309270623067 225.75757575757575,380.4300779338375 230.8080808080808,379.29178552743184 235.85858585858585,377.991534076446 240.9090909090909,376.8184405530231 245.95959595959596,375.5813806039896 251.010101010101,373.66006306469626 256.06060606060606,370.6033414708145 261.1111111111111,368.8990730034444 266.16161616161617,366.88166493052455 271.2121212121212,366.1894467608661 276.26262626262627,365.13223954815845 281.3131313131313,363.5588627314321 286.3636363636364,362.04346429386607 291.4141414141414,361.51827739636923 296.4646464646464,360.5410282156749 301.5151515151515,358.38913566424105 306.5656565656566,357.0459816216287 311.6161616161616,356.2816955517503 316.66666666666663,354.81737162802534 321.7171717171717,352.6572367067717 326.7676767676768,350.80178767843205 331.8181818181818,350.1285199145987 336.86868686868684,348.4078371551942 341.9191919191919,347.93294984788014 346.969696969697,346.47700918918565 352.020202020202,345.23079105146337 357.07070707070704,337.6852184955961 362.1212121212121,336.7605232284541 367.1717171717172,334.68393916708385 372.22222222222223,333.83849745590214 377.27272727272725,331.82855682914385 382.32323232323233,330.1877616541473 387.37373737373736,328.8262912341575 392.4242424242424,327.6832083905916 397.47474747474746,325.6880617609459 402.52525252525254,326.2348760732693 407.57575757575756,324.7011612583257 412.62626262626264,322.4037944019515 417.67676767676767,320.2525358789654 422.72727272727275,319.8563385467692 427.77777777777777,318.1253704369912 432.8282828282828,316.2058140878303 437.8787878787879,314.4339863669794 442.9292929292929,313.0327130499962 447.979797979798,312.37825479677747 453.030303030303,310.28243853916086 458.0808080808081,307.5968349299892 463.1313131313131,307.61000863217987 468.1818181818182,306.7123652454723 473.2323232323232,305.6444499967594 478.2828282828283,303.73151572249657 483.3333333333333,302.01710279996354 488.3838383838384,300.78581955456445 493.4343434343434,298.55932298912006 498.4848484848485,297.02426966967585 503.5353535353535,296.6991539712254 508.5858585858586,294.2463796975637 513.6363636363636,292.5968490195102 518.6868686868687,290.7675360527361 523.7373737373737,287.94012141409945 528.7878787878788,288.31356416978434 533.8383838383838,287.7031356698769 538.8888888888889,287.24452175938666 543.939393939394,284.9843512386098 548.989898989899,283.40625443232847 554.040404040404,281.5698967050246 559.090909090909,279.3646048687749 564.1414141414141,250.78598393231016 569.1919191919192,268.2529040851157 574.2424242424242,264.8748709634696 579.2929292929293,265.783574624209 584.3434343434344,263.35573880282277 589.3939393939394,260.8762648867531 594.4444444444445,257.7974227448078 599.4949494949494,259.67301978826265 604.5454545454545,255.9700118633767 609.5959595959596,253.4742645504832 614.6464646464647,252.1344215453199 619.6969696969697,251.69398311699658 624.7474747474747,249.83529349881317 629.7979797979798,246.24929904632728 634.8484848484848,247.39773590789585 639.8989898989898,246.976318333003 644.9494949494949,246.58617949486248 650,241.1374799106912 "/><text class="poloto_text" alignment-baseline="middle" text-anchor="start" font-size="large" x="675" y="150">ns_contr</text><line class="poloto1stroke" stroke="black" x1="680" x2="730" y1="131.25" y2="131.25"/><polyline class="poloto1stroke" fill="none" stroke="black" points="150,399.97069379619603 155.05050505050505,399.0407149586566 160.1010101010101,397.31545310490776 165.15151515151516,395.2659913715773 170.2020202020202,397.2642376958561 175.25252525252526,396.86332037410494 180.3030303030303,394.7896951121573 185.35353535353534,394.1287556792511 190.40404040404042,393.4333673673542 195.45454545454544,392.9448836722176 200.50505050505052,392.2902845237883 205.55555555555554,389.4499075257768 210.6060606060606,388.3877689806983 215.65656565656565,387.93887683973924 220.7070707070707,386.87187740989515 225.75757575757575,386.2811742394711 230.8080808080808,385.03220864514225 235.85858585858585,384.83333505538593 240.9090909090909,384.15767207297245 245.95959595959596,383.7872585643154 251.010101010101,382.16421618585395 256.06060606060606,377.3918136125438 261.1111111111111,376.0618332721222 266.16161616161617,374.77320567601055 271.2121212121212,374.40976648027794 276.26262626262627,373.95206838865664 281.3131313131313,372.7658716106483 286.3636363636364,371.5317704610373 291.4141414141414,371.0020044691961 296.4646464646464,370.79192971019734 301.5151515151515,369.6055920369784 306.5656565656566,368.4765987144721 311.6161616161616,368.01551913779645 316.66666666666663,368.11231414747596 321.7171717171717,365.71688422452684 326.7676767676768,365.231641119234 331.8181818181818,364.88856128143254 336.86868686868684,363.2338879281923 341.9191919191919,362.96780732298157 346.969696969697,362.4075375180463 352.020202020202,361.57026772907915 "/><text class="poloto_text" alignment-baseline="middle" text-anchor="start" font-size="large" x="675" y="200">ns_par_contr</text><line class="poloto2stroke" stroke="black" x1="680" x2="730" y1="181.25" y2="181.25"/><polyline class="poloto2stroke" fill="none" stroke="black" points="150,399.9673123111417 155.05050505050505,399.0889715682858 160.1010101010101,397.3067176018508 165.15151515151516,395.1365086730395 170.2020202020202,397.1995667941925 175.25252525252526,396.78371458011816 180.3030303030303,394.7165704978579 185.35353535353534,394.13720939188687 190.40404040404042,393.4729589215317 195.45454545454544,393.0478780711633 200.50505050505052,392.33276442978297 205.55555555555554,379.2225355314239 210.6060606060606,378.7804063605734 215.65656565656565,385.77388103372 220.7070707070707,376.5532757666813 225.75757575757575,376.3188261362494 230.8080808080808,380.10918909170493 235.85858585858585,382.01035861588304 240.9090909090909,376.42083426872097 245.95959595959596,378.36554041297325 251.010101010101,374.4685902307018 256.06060606060606,381.4419168887332 261.1111111111111,383.39514719322653 266.16161616161617,374.94509783293773 271.2121212121212,381.14209188058476 276.26262626262627,377.5177034832114 281.3131313131313,380.22655480213143 286.3636363636364,381.2044380112735 291.4141414141414,373.9641149291626 296.4646464646464,381.4372673467835 301.5151515151515,378.63753861702895 306.5656565656566,376.4667661073753 311.6161616161616,376.92784568405096 316.66666666666663,372.57369054339523 321.7171717171717,377.0507063076907 326.7676767676768,374.3579170427786 331.8181818181818,377.83908545858105 336.86868686868684,376.790050168088 341.9191919191919,376.74855652856746 346.969696969697,375.1708119603126 352.020202020202,374.4970510632422 357.07070707070704,365.1807779482088 362.1212121212121,368.03383551517396 367.1717171717172,373.4285722336869 372.22222222222223,373.33593363272 377.27272727272725,372.4361768178535 382.32323232323233,373.3598858185213 387.37373737373736,374.96214615341984 392.4242424242424,375.8340761641936 397.47474747474746,370.44765226310585 402.52525252525254,372.9774962169636 407.57575757575756,372.37418292519123 412.62626262626264,364.0372019714058 417.67676767676767,368.77226731390795 422.72727272727275,372.5288154188204 427.77777777777777,372.72402573310126 432.8282828282828,372.23688054246537 437.8787878787879,369.87258846105794 442.9292929292929,363.32483578663204 447.979797979798,370.24314286492563 453.030303030303,369.5956589246314 458.0808080808081,368.96325077187095 463.1313131313131,369.48209738489095 468.1818181818182,369.6456062767877 473.2323232323232,366.04171813255607 478.2828282828283,368.78100281696493 483.3333333333333,367.22270178777234 488.3838383838384,367.65771575048774 493.4343434343434,361.63282520258383 498.4848484848485,362.6661506770954 503.5353535353535,360.3272197335953 508.5858585858586,361.75350195045934 513.6363636363636,360.4628313737941 518.6868686868687,359.97469991668396 523.7373737373737,352.2664638401835 528.7878787878788,365.1992352207969 "/><text class="poloto_text" alignment-baseline="middle" text-anchor="start" font-size="large" x="675" y="250">ns_par_query</text><line class="poloto3stroke" stroke="black" x1="680" x2="730" y1="231.25" y2="231.25"/><polyline class="poloto3stroke" fill="none" stroke="black" points="150,399.9894328592053 155.05050505050505,388.9750202184627 160.1010101010101,378.3228491641626 165.15151515151516,366.2524973676078 170.2020202020202,376.63274066545745 175.25252525252526,366.8949795279259 180.3030303030303,367.9360542390203 185.35353535353534,360.830145187818 190.40404040404042,352.85491268723797 195.45454545454544,344.8218427027083 200.50505050505052,335.2306830318019 205.55555555555554,350.8711785696506 210.6060606060606,343.6235289365887 215.65656565656565,341.20154026644224 220.7070707070707,336.57418931244075 225.75757575757575,328.89624570621845 230.8080808080808,321.8073849754983 235.85858585858585,315.99855723304347 240.9090909090909,315.66259260337716 245.95959595959596,306.26086654311723 251.010101010101,298.5780620521293 256.06060606060606,337.1250191382661 261.1111111111111,333.83265030466237 266.16161616161617,335.759462757169 271.2121212121212,334.04504983463596 276.26262626262627,328.1995893374262 281.3131313131313,333.45857352052985 286.3636363636364,325.41373878591537 291.4141414141414,311.79670981504216 296.4646464646464,309.3513325399367 301.5151515151515,307.119552404095 306.5656565656566,311.175009698287 311.6161616161616,298.56249313135845 316.66666666666663,304.870935290587 321.7171717171717,293.6938591292112 326.7676767676768,295.74381399577874 331.8181818181818,291.11914005077864 336.86868686868684,287.69355479555634 341.9191919191919,285.510806193002 346.969696969697,276.7817138681277 352.020202020202,275.5339458830889 357.07070707070704,293.5940348725039 362.1212121212121,284.21069563722676 367.1717171717172,286.46353960705267 372.22222222222223,275.6405331099048 377.27272727272725,281.6267479225001 382.32323232323233,276.10252850544936 387.37373737373736,274.81143524315223 392.4242424242424,266.6712848985695 397.47474747474746,269.68390629153475 402.52525252525254,256.51844647062194 407.57575757575756,259.72508056857794 412.62626262626264,251.24544321406395 417.67676767676767,252.85580502357178 422.72727272727275,247.84141492606287 427.77777777777777,241.9268453280557 432.8282828282828,241.8326568797722 437.8787878787879,236.01037364470545 442.9292929292929,234.62706446707324 447.979797979798,232.77337662886603 453.030303030303,224.79349458633632 458.0808080808081,215.84650781827523 463.1313131313131,218.35930345165085 468.1818181818182,218.94408902322985 473.2323232323232,202.42546408534116 478.2828282828283,206.45774411739012 483.3333333333333,202.00327158679002 488.3838383838384,195.62564987915886 493.4343434343434,186.19313821538367 498.4848484848485,199.71682410923697 503.5353535353535,195.14752198200108 508.5858585858586,183.18904098265952 513.6363636363636,181.67998282957032 518.6868686868687,171.4947385031856 523.7373737373737,170.664443027143 528.7878787878788,159.34358330335394 "/><text class="poloto_text" alignment-baseline="middle" text-anchor="start" font-size="large" x="675" y="300">ns_query</text><line class="poloto4stroke" stroke="black" x1="680" x2="730" y1="281.25" y2="281.25"/><polyline class="poloto4stroke" fill="none" stroke="black" points="150,400 155.05050505050505,388.89449860560705 160.1010101010101,377.28445146206957 165.15151515151516,364.0138838140521 170.2020202020202,376.68522413140454 175.25252525252526,366.7604246018067 180.3030303030303,368.14140900846405 185.35353535353534,360.2705798589357 190.40404040404042,352.6597728205624 195.45454545454544,344.92427352081165 200.50505050505052,334.71092059991304 205.55555555555554,336.8834542996991 210.6060606060606,328.4844090056461 215.65656565656565,320.3808914158184 220.7070707070707,311.54218261710037 225.75757575757575,301.65162062367733 230.8080808080808,290.1760579586538 235.85858585858585,281.3987794717557 240.9090909090909,272.21910426339514 245.95959595959596,262.80202062518026 251.010101010101,250.94681581520558 256.06060606060606,273.20417312827755 261.1111111111111,262.48838788639335 266.16161616161617,258.2370158018675 271.2121212121212,249.76949543546482 276.26262626262627,240.85343516612951 281.3131313131313,233.19697807952312 286.3636363636364,225.70741136986777 291.4141414141414,215.77352409918643 296.4646464646464,208.27825113350195 301.5151515151515,199.83869846640258 306.5656565656566,188.00011929127828 311.6161616161616,179.86778863088367 316.66666666666663,169.76736322127778 321.7171717171717,161.14302648548167 326.7676767676768,149.62773137107004 331.8181818181818,135.67699209390008 336.86868686868684,126.52796159384417 341.9191919191919,123.19945313872262 346.969696969697,111.3710888663665 352.020202020202,100 "/><text class="poloto_text" alignment-baseline="middle" text-anchor="start" font-size="large" x="675" y="350">par_contr</text><line class="poloto5stroke" stroke="black" x1="680" x2="730" y1="331.25" y2="331.25"/><polyline class="poloto5stroke" fill="none" stroke="black" points="150,399.91595600687947 155.05050505050505,398.2220433374882 160.1010101010101,395.73742674623173 165.15151515151516,392.7273414670573 170.2020202020202,390.12845886000747 175.25252525252526,394.7358731417096 180.3030303030303,392.7344566751924 185.35353535353534,391.5980663541298 190.40404040404042,390.52691051557315 195.45454545454544,389.4401857562456 200.50505050505052,388.23130484933137 205.55555555555554,375.2661275702809 210.6060606060606,360.7477919372246 215.65656565656565,377.5348926989041 220.7070707070707,377.986814086891 225.75757575757575,359.5119295974812 230.8080808080808,371.3344467185975 235.85858585858585,372.44878693920185 240.9090909090909,374.9563694497854 245.95959595959596,372.1321249533872 251.010101010101,370.6114429454238 256.06060606060606,378.10882933926723 261.1111111111111,374.4189246689667 266.16161616161617,377.70516456090945 271.2121212121212,385.7938881536246 276.26262626262627,377.4814934140882 281.3131313131313,375.74186024885853 286.3636363636364,382.4225475544818 291.4141414141414,378.0278850407798 296.4646464646464,378.5745584578925 301.5151515151515,373.8954989616023 306.5656565656566,371.5612880076572 311.6161616161616,369.9645225859719 316.66666666666663,374.36305971796537 321.7171717171717,363.45114834293145 326.7676767676768,372.46837137347467 331.8181818181818,373.91120877758374 336.86868686868684,373.77249744275196 341.9191919191919,373.4944407446406 346.969696969697,370.43553527499455 352.020202020202,361.9680149085919 357.07070707070704,369.6543417798447 362.1212121212121,361.16949130253863 367.1717171717172,366.55295640420394 372.22222222222223,366.22946100067537 377.27272727272725,357.47965707984343 382.32323232323233,365.61325579713343 387.37373737373736,369.6029854755824 392.4242424242424,358.54116159647424 397.47474747474746,363.09362674604387 402.52525252525254,362.6726318567828 407.57575757575756,362.44973563361987 412.62626262626264,358.09543959775357 417.67676767676767,362.9469548318134 422.72727272727275,364.26037998499 427.77777777777777,369.1175310274736 432.8282828282828,365.86362658636267 437.8787878787879,357.8674711470091 442.9292929292929,354.30881036537886 447.979797979798,363.7035621127143 453.030303030303,357.770535242119 458.0808080808081,357.69529719966073 463.1313131313131,352.3560731941226 468.1818181818182,357.5385512778726 473.2323232323232,352.83096050143666 478.2828282828283,356.11205771819266 483.3333333333333,356.82991881617966 488.3838383838384,346.9190679124308 493.4343434343434,352.53346026426306 498.4848484848485,353.22257873928845 503.5353535353535,353.1681227403931 508.5858585858586,354.7703126276863 513.6363636363636,352.6212379804644 518.6868686868687,352.1164104408987 523.7373737373737,349.4725118140634 528.7878787878788,353.517472415066 533.8383838383838,349.9266170778145 538.8888888888889,353.2892926215057 543.939393939394,346.029878238359 548.989898989899,350.8385613283976 554.040404040404,349.29371579181696 559.090909090909,347.2229084340812 564.1414141414141,343.8028180920722 569.1919191919192,347.91921256484704 574.2424242424242,344.7813353296619 579.2929292929293,347.5167453957793 584.3434343434344,345.34308453430845 589.3939393939394,345.22522569064483 594.4444444444445,343.5847123060695 599.4949494949494,337.17820708026613 604.5454545454545,344.7243432169758 609.5959595959596,336.8518937725256 614.6464646464647,329.2917385623616 619.6969696969697,337.36334338698936 624.7474747474747,334.98996356449857 629.7979797979798,332.588756937915 634.8484848484848,336.9911686881998 639.8989898989898,337.72875511567025 644.9494949494949,329.1161126823536 650,328.9872640122635 "/><text class="poloto_text" alignment-baseline="middle" text-anchor="start" font-size="large" x="675" y="400">par_query</text><line class="poloto6stroke" stroke="black" x1="680" x2="730" y1="381.25" y2="381.25"/><polyline class="poloto6stroke" fill="none" stroke="black" points="150,399.999295523947 155.05050505050505,394.4606343478102 160.1010101010101,387.47202055942915 165.15151515151516,381.6819318799836 170.2020202020202,387.0134770965442 175.25252525252526,385.8165018349253 180.3030303030303,383.7114569410147 185.35353535353534,380.57801790496336 190.40404040404042,377.35109489668156 195.45454545454544,373.88295928785925 200.50505050505052,370.0161606806554 205.55555555555554,366.99332438492195 210.6060606060606,367.4980110292771 215.65656565656565,323.7556135000155 220.7070707070707,368.9562060113411 225.75757575757575,360.9311670538154 230.8080808080808,358.90910943894585 235.85858585858585,357.69135213376404 240.9090909090909,361.47396585263675 245.95959595959596,356.6626762012021 251.010101010101,358.09205811269925 256.06060606060606,370.83765020603573 261.1111111111111,363.5792925369685 266.16161616161617,367.0331977295206 271.2121212121212,374.84323059567674 276.26262626262627,360.7454671662498 281.3131313131313,358.5744128661749 286.3636363636364,366.36676338340123 291.4141414141414,371.92212064199373 296.4646464646464,363.5585104934056 301.5151515151515,363.3764034337102 306.5656565656566,357.8264001931204 311.6161616161616,353.3696733391507 316.66666666666663,362.74772900403053 321.7171717171717,358.79216641415115 326.7676767676768,350.63588356795515 331.8181818181818,357.0551398103175 336.86868686868684,362.7306806835484 341.9191919191919,359.1981559634837 346.969696969697,356.73248977805247 352.020202020202,345.9477363305815 357.07070707070704,353.90359573970454 362.1212121212121,348.6188277330618 367.1717171717172,348.0032565579676 372.22222222222223,349.2241840053878 377.27272727272725,349.629609973878 382.32323232323233,351.7371909815794 387.37373737373736,352.5562148407743 392.4242424242424,348.4901199581823 397.47474747474746,348.3818419888392 402.52525252525254,345.05248816245404 407.57575757575756,344.61324734342077 412.62626262626264,343.1602654841488 417.67676767676767,347.62431888906946 422.72727272727275,345.8467849121894 427.77777777777777,340.4094273924711 432.8282828282828,343.65072171223375 437.8787878787879,339.9577173473001 442.9292929292929,338.90945698046534 447.979797979798,341.3446193528025 453.030303030303,337.25640392214694 458.0808080808081,338.22738326596976 463.1313131313131,338.3372110826294 468.1818181818182,333.3517045032927 473.2323232323232,331.1580365219172 478.2828282828283,331.28174251682054 483.3333333333333,335.90796630913724 488.3838383838384,331.29773412322317 493.4343434343434,334.16474031603735 498.4848484848485,327.2113503303053 503.5353535353535,331.307385445149 508.5858585858586,323.57399957355716 513.6363636363636,326.41444701917396 518.6868686868687,323.5393393517505 523.7373737373737,325.38837764800803 528.7878787878788,327.2392475820034 533.8383838383838,323.22887675520207 538.8888888888889,326.49074177571174 543.939393939394,321.357013434828 548.989898989899,321.7708226683486 554.040404040404,301.1486247218494 559.090909090909,321.4370419144466 564.1414141414141,325.9075060514493 569.1919191919192,322.5269368160125 574.2424242424242,310.8451740102816 579.2929292929293,322.34039155718324 584.3434343434344,322.330881130468 589.3939393939394,320.92918512785303 594.4444444444445,319.4406272279055 599.4949494949494,312.9631108159617 604.5454545454545,313.0296133553631 609.5959595959596,311.9133710494157 614.6464646464647,307.67256610568455 619.6969696969697,302.79287182950554 624.7474747474747,301.5533462142866 629.7979797979798,307.4668590982143 634.8484848484848,310.67053439674777 639.8989898989898,302.95356281719035 644.9494949494949,307.31765107019305 650,299.95214259346756 "/><text class="poloto_text" alignment-baseline="middle" text-anchor="start" font-size="large" x="675" y="450">query</text><line class="poloto7stroke" stroke="black" x1="680" x2="730" y1="431.25" y2="431.25"/><polyline class="poloto7stroke" fill="none" stroke="black" points="150,399.9749911001192 155.05050505050505,393.62540753939663 160.1010101010101,386.27265007923006 165.15151515151516,380.94709290911976 170.2020202020202,374.29451419801035 175.25252525252526,385.5943100878153 180.3030303030303,383.20726342989667 185.35353535353534,380.2571290628308 190.40404040404042,377.22125996011727 195.45454545454544,373.50916429414787 200.50505050505052,370.1874188091349 205.55555555555554,369.70612076973873 210.6060606060606,366.8589808016186 215.65656565656565,363.6386798682348 220.7070707070707,360.4792456658285 225.75757575757575,357.9535581206833 230.8080808080808,354.70437366912734 235.85858585858585,351.20686140889575 240.9090909090909,348.40614641266706 245.95959595959596,344.7596374672301 251.010101010101,341.8741035542226 256.06060606060606,340.01675244053985 261.1111111111111,336.84379229791637 266.16161616161617,334.645686117407 271.2121212121212,330.9968524009953 276.26262626262627,328.0465771387188 281.3131313131313,325.92131378208774 286.3636363636364,322.90383150435696 291.4141414141414,319.47500565929096 296.4646464646464,317.1457260377167 301.5151515151515,313.850046166664 306.5656565656566,309.983458902276 311.6161616161616,305.8464937287542 316.66666666666663,303.0221083371453 321.7171717171717,299.62949256120254 326.7676767676768,296.03588976734443 331.8181818181818,292.34133555509425 336.86868686868684,289.4479819578986 341.9191919191919,284.98153333439785 346.969696969697,281.3630625358696 352.020202020202,278.1232476158182 357.07070707070704,284.227532614893 362.1212121212121,283.70960182074185 367.1717171717172,280.86577289007073 372.22222222222223,276.62947659307866 377.27272727272725,274.72908199255886 382.32323232323233,271.9044852581341 387.37373737373736,269.58753396748705 392.4242424242424,265.3448269384128 397.47474747474746,263.1194575346532 402.52525252525254,259.7575569146203 407.57575757575756,257.25046753727383 412.62626262626264,253.980994175392 417.67676767676767,251.87644241471847 422.72727272727275,248.26600264319413 427.77777777777777,245.64070218415756 432.8282828282828,241.16953357110182 437.8787878787879,237.49484558354567 442.9292929292929,235.7269629285915 447.979797979798,233.3128643902384 453.030303030303,229.58534069870873 458.0808080808081,228.02344684164598 463.1313131313131,223.76305746364199 468.1818181818182,220.49788140568333 473.2323232323232,218.30618595725613 478.2828282828283,215.65087481836255 483.3333333333333,211.58618888787652 488.3838383838384,209.40780803685067 493.4343434343434,205.8207568702853 498.4848484848485,201.97290866890657 503.5353535353535,199.1571178851441 508.5858585858586,196.86066684763873 513.6363636363636,192.93708747056462 518.6868686868687,190.23506956935847 523.7373737373737,188.02611445763327 528.7878787878788,183.2302528317589 533.8383838383838,180.05398165168637 538.8888888888889,177.63579715222596 543.939393939394,174.7480089158489 548.989898989899,170.117487819609 554.040404040404,167.36960852735385 559.090909090909,164.2325766634323 564.1414141414141,161.30773298666847 569.1919191919192,158.5347038993219 574.2424242424242,154.59132874515905 579.2929292929293,152.95849414956118 584.3434343434344,148.0479438222616 589.3939393939394,148.30373907709875 594.4444444444445,143.31013102315285 599.4949494949494,141.16676263196007 604.5454545454545,138.08313005285447 609.5959595959596,135.5180622963477 614.6464646464647,130.8116691292018 619.6969696969697,129.51853288635107 624.7474747474747,127.6325095973121 629.7979797979798,122.9585927762086 634.8484848484848,121.80374518255792 639.8989898989898,117.29601426235251 644.9494949494949,114.98307848520739 650,111.73304866238777 "/><text class="poloto_text" alignment-baseline="start" text-anchor="middle" font-size="x-large" x="400" y="37.5">Bench of construction vs query abspiral(x,1.5)</text><text class="poloto_text" alignment-baseline="start" text-anchor="middle" font-size="x-large" x="400" y="481.25">Number of Elements</text><text class="poloto_text" alignment-baseline="start" text-anchor="middle" font-size="x-large" transform="rotate(-90,37.5,250)" x="37.5" y="250">Time in Seconds</text><path stroke="black" fill="none" class="poloto_axis_lines" d=" M 150 100 L 150 400 L 650 400"/></svg>