<svg class="poloto" width="800" height="500" viewBox="0 0 800 500" xmlns="http://www.w3.org/2000/svg"><style>.poloto {
                    font-family: "Arial";
                    stroke-width:2;
                    }
                    .poloto_text{fill: var(--poloto_fg_color,black);  }
                    .poloto_axis_lines{stroke: var(--poloto_fg_color,black);stoke-width:3;fill:none}
                    .poloto_background{fill: var(--poloto_bg_color,aliceblue); }
                    .poloto0stroke{stroke:  var(--poloto_color0,blue); }
                    .poloto1stroke{stroke:  var(--poloto_color1,red); }
                    .poloto2stroke{stroke:  var(--poloto_color2,green); }
                    .poloto3stroke{stroke:  var(--poloto_color3,gold); }
                    .poloto4stroke{stroke:  var(--poloto_color4,aqua); }
                    .poloto5stroke{stroke:  var(--poloto_color5,brown); }
                    .poloto6stroke{stroke:  var(--poloto_color6,lime); }
                    .poloto7stroke{stroke:  var(--poloto_color7,chocolate); }
                    .poloto0fill{fill:var(--poloto_color0,blue);}
                    .poloto1fill{fill:var(--poloto_color1,red);}
                    .poloto2fill{fill:var(--poloto_color2,green);}
                    .poloto3fill{fill:var(--poloto_color3,gold);}
                    .poloto4fill{fill:var(--poloto_color4,aqua);}
                    .poloto5fill{fill:var(--poloto_color5,brown);}
                    .poloto6fill{fill:var(--poloto_color6,lime);}
                    .poloto7fill{fill:var(--poloto_color7,chocolate);}</style><rect class="poloto_background" fill="white" x="0" y="0" width="800" height="500"/><line class="poloto_axis_lines" stroke="black" x1="150" x2="150" y1="400" y2="405"/><text class="poloto_text" alignment-baseline="start" text-anchor="middle" x="150" y="430">0</text><line class="poloto_axis_lines" stroke="black" x1="276.26262626262627" x2="276.26262626262627" y1="400" y2="405"/><text class="poloto_text" alignment-baseline="start" text-anchor="middle" x="276.26262626262627" y="430">5000</text><line class="poloto_axis_lines" stroke="black" x1="402.52525252525254" x2="402.52525252525254" y1="400" y2="405"/><text class="poloto_text" alignment-baseline="start" text-anchor="middle" x="402.52525252525254" y="430">10000</text><line class="poloto_axis_lines" stroke="black" x1="528.7878787878788" x2="528.7878787878788" y1="400" y2="405"/><text class="poloto_text" alignment-baseline="start" text-anchor="middle" x="528.7878787878788" y="430">15000</text><line class="poloto_axis_lines" stroke="black" x1="150" x2="144" y1="400" y2="400"/><text class="poloto_text" alignment-baseline="middle" text-anchor="end" x="135" y="400">0e0</text><line class="poloto_axis_lines" stroke="black" x1="150" x2="144" y1="335.06014188493134" y2="335.06014188493134"/><text class="poloto_text" alignment-baseline="middle" text-anchor="end" x="135" y="335.06014188493134">0.001</text><line class="poloto_axis_lines" stroke="black" x1="150" x2="144" y1="270.1202837698627" y2="270.1202837698627"/><text class="poloto_text" alignment-baseline="middle" text-anchor="end" x="135" y="270.1202837698627">0.002</text><line class="poloto_axis_lines" stroke="black" x1="150" x2="144" y1="205.18042565479402" y2="205.18042565479402"/><text class="poloto_text" alignment-baseline="middle" text-anchor="end" x="135" y="205.18042565479402">0.003</text><line class="poloto_axis_lines" stroke="black" x1="150" x2="144" y1="140.2405675397253" y2="140.2405675397253"/><text class="poloto_text" alignment-baseline="middle" text-anchor="end" x="135" y="140.2405675397253">0.004</text><text class="poloto_text" alignment-baseline="middle" text-anchor="start" font-size="large" x="675" y="100">brocc_contr</text><line class="poloto0stroke" stroke="black" x1="680" x2="730" y1="81.25" y2="81.25"/><polyline class="poloto0stroke" fill="none" stroke="black" points="150,399.8395985504558 155.05050505050505,396.36557590073204 160.1010101010101,395.65688722912233 165.15151515151516,393.075333049474 170.2020202020202,390.63878957299664 175.25252525252526,395.0644409035385 180.3030303030303,393.1846268306817 185.35353535353534,392.1298736551767 190.40404040404042,391.1312285170832 195.45454545454544,390.16700150379063 200.50505050505052,389.0558155915837 205.55555555555554,386.80584432747094 210.6060606060606,385.2981356416134 215.65656565656565,384.3674825349663 220.7070707070707,383.01231757582104 225.75757575757575,381.99899602979355 230.8080808080808,380.8283901474113 235.85858585858585,379.6859032235929 240.9090909090909,378.6868035064926 245.95959595959596,377.8783672128181 251.010101010101,375.77996557754585 256.06060606060606,372.7758477411428 261.1111111111111,371.14274018926506 266.16161616161617,369.37936328200846 271.2121212121212,368.44832053621275 276.26262626262627,367.94627049312516 281.3131313131313,366.4381072282608 286.3636363636364,365.01839205014915 291.4141414141414,364.3691233487147 296.4646464646464,363.64355031399504 301.5151515151515,361.6825614184943 306.5656565656566,359.90931365280426 311.6161616161616,359.61799344930006 316.66666666666663,358.8133236673962 321.7171717171717,356.2957352479913 326.7676767676768,355.2231885513628 331.8181818181818,354.47482162644474 336.86868686868684,352.47038796586503 341.9191919191919,351.9537264547015 346.969696969697,350.5095938899386 352.020202020202,349.2899584146795 357.07070707070704,342.5784890183453 362.1212121212121,341.8484351334157 367.1717171717172,340.5480794145196 372.22222222222223,339.2338915058449 377.27272727272725,337.1656219647381 382.32323232323233,335.7640250070406 387.37373737373736,335.84019946060954 392.4242424242424,333.7291345530049 397.47474747474746,331.8925054857945 402.52525252525254,331.72677896788485 407.57575757575756,330.4944802202933 412.62626262626264,328.58726152731185 417.67676767676767,327.2614493840346 422.72727272727275,326.86823854314787 427.77777777777777,324.6225533096707 432.8282828282828,322.22724664309635 437.8787878787879,321.1619732105768 442.9292929292929,320.08247794913 447.979797979798,318.97518842841 453.030303030303,317.21220116030213 458.0808080808081,315.5225309920061 463.1313131313131,314.4332947518421 468.1818181818182,314.0950230309207 473.2323232323232,313.16703245845633 478.2828282828283,311.92700586774913 483.3333333333333,309.61605607686624 488.3838383838384,308.43291680186786 493.4343434343434,307.0222282640342 498.4848484848485,305.0687074522167 503.5353535353535,304.7915441377816 508.5858585858586,302.5194933219097 513.6363636363636,301.23848968073185 518.6868686868687,299.4406297088162 523.7373737373737,297.142473069982 528.7878787878788,297.6403669621502 533.8383838383838,296.34838848495093 538.8888888888889,296.1394769613948 543.939393939394,294.1727084185218 548.989898989899,293.5605853159292 554.040404040404,291.3649037732006 559.090909090909,289.4301505803783 564.1414141414141,278.69169564247056 569.1919191919192,278.01632111807385 574.2424242424242,274.824397212002 579.2929292929293,275.12961454514283 584.3434343434344,273.5535241886901 589.3939393939394,270.9167061897859 594.4444444444445,268.42015828441015 599.4949494949494,269.78460964326587 604.5454545454545,267.1267511303323 609.5959595959596,265.42980769792746 614.6464646464647,263.14587288802056 619.6969696969697,263.13288491639753 624.7474747474747,261.1887803840067 629.7979797979798,257.40778702497306 634.8484848484848,258.91608016955365 639.8989898989898,258.49806230286697 644.9494949494949,258.18810436008374 650,253.3125496925206 "/><text class="poloto_text" alignment-baseline="middle" text-anchor="start" font-size="large" x="675" y="150">brocc_par_contr</text><line class="poloto1stroke" stroke="black" x1="680" x2="730" y1="131.25" y2="131.25"/><polyline class="poloto1stroke" fill="none" stroke="black" points="150,399.9225916891268 155.05050505050505,398.24064936394655 160.1010101010101,394.61518696509853 165.15151515151516,393.2904138595511 170.2020202020202,392.78141525164517 175.25252525252526,395.1116521803882 180.3030303030303,393.18930250046594 185.35353535353534,392.14117319048876 190.40404040404042,391.15298336955175 195.45454545454544,390.1744695874739 200.50505050505052,389.08750624234386 205.55555555555554,379.0498173133558 210.6060606060606,380.5077171280391 215.65656565656565,377.78069766621303 220.7070707070707,379.7905862748744 225.75757575757575,364.2628168009803 230.8080808080808,375.75282071685376 235.85858585858585,379.0722215644055 240.9090909090909,374.10601085491373 245.95959595959596,376.3051991499806 251.010101010101,375.7266499540334 256.06060606060606,378.717520059381 261.1111111111111,377.5367835591328 266.16161616161617,379.3493199389825 271.2121212121212,379.6896047955055 276.26262626262627,379.1817101651875 281.3131313131313,377.6901715040006 286.3636363636364,377.29092125630916 291.4141414141414,377.0056404596097 296.4646464646464,377.1114924283372 301.5151515151515,378.3802873761895 306.5656565656566,375.69405014525967 311.6161616161616,376.05349225992654 316.66666666666663,375.5817041907206 321.7171717171717,369.0406369820803 326.7676767676768,378.58121129719746 331.8181818181818,374.12477847390903 336.86868686868684,373.3045880659157 341.9191919191919,374.94360514488193 346.969696969697,372.739286601024 352.020202020202,375.5585856012316 357.07070707070704,371.81201036699895 362.1212121212121,370.6971878227376 367.1717171717172,368.933810915481 372.22222222222223,360.7242439322902 377.27272727272725,363.851227980247 382.32323232323233,368.5118317174493 387.37373737373736,366.49837141659157 392.4242424242424,369.0548588110075 397.47474747474746,367.7453465721171 402.52525252525254,366.1643857263058 407.57575757575756,370.27442934640845 412.62626262626264,370.11500199473596 417.67676767676767,369.362154219608 422.72727272727275,369.8008879010334 427.77777777777777,365.8465051208325 432.8282828282828,363.37898533203423 437.8787878787879,367.1445230048365 442.9292929292929,363.95058596316306 447.979797979798,360.46714703401267 453.030303030303,361.21473468063334 458.0808080808081,358.62019252936204 463.1313131313131,356.30885309933046 468.1818181818182,362.38521068329936 473.2323232323232,359.1856238739699 478.2828282828283,362.1380495833134 483.3333333333333,357.5130978282163 488.3838383838384,360.2068680826875 493.4343434343434,357.7660385755745 498.4848484848485,357.0274126293737 503.5353535353535,359.07568069418113 508.5858585858586,357.954234284392 513.6363636363636,355.0965558280384 518.6868686868687,360.3581779520956 523.7373737373737,358.0969071526708 528.7878787878788,360.40292151433687 533.8383838383838,354.69600678318466 538.8888888888889,355.15798893381526 543.939393939394,353.11387701992726 548.989898989899,333.430086506385 554.040404040404,355.8800552161967 559.090909090909,353.8760111947657 564.1414141414141,349.06753940063544 569.1919191919192,351.96554550887845 574.2424242424242,348.9407118577367 579.2929292929293,345.6607944439189 584.3434343434344,344.70591877019496 589.3939393939394,343.8391664839331 594.4444444444445,344.2052324641278 599.4949494949494,345.0510741160765 604.5454545454545,346.2975946925953 609.5959595959596,344.0882757796625 614.6464646464647,342.04819013697767 619.6969696969697,343.95313593492506 624.7474747474747,344.62266587209143 629.7979797979798,341.3483332860716 634.8484848484848,342.64998780213 639.8989898989898,338.4442228311657 644.9494949494949,337.95704401558646 650,329.0170984481755 "/><text class="poloto_text" alignment-baseline="middle" text-anchor="start" font-size="large" x="675" y="200">brocc_par_query</text><line class="poloto2stroke" stroke="black" x1="680" x2="730" y1="181.25" y2="181.25"/><polyline class="poloto2stroke" fill="none" stroke="black" points="150,399.95071064769064 155.05050505050505,394.95858893481096 160.1010101010101,387.34601406727205 165.15151515151516,382.9386757767186 170.2020202020202,389.8611997119268 175.25252525252526,386.7324622878009 180.3030303030303,384.9572663263674 185.35353535353534,382.1245897153881 190.40404040404042,379.05124599023435 195.45454545454544,375.49234694595424 200.50505050505052,372.41627574675965 205.55555555555554,369.1503853422947 210.6060606060606,378.57108067933154 215.65656565656565,369.95239259001585 220.7070707070707,368.3878615283076 225.75757575757575,363.7269980316729 230.8080808080808,365.2108088497441 235.85858585858585,371.760123420365 240.9090909090909,359.4690214147841 245.95959595959596,360.7917813847299 251.010101010101,356.2157942826516 256.06060606060606,368.21291355054564 261.1111111111111,376.6678882575532 266.16161616161617,372.30165689718655 271.2121212121212,368.336169401248 276.26262626262627,363.0283100982129 281.3131313131313,361.64736401539596 286.3636363636364,360.9514684958349 291.4141414141414,373.39154253593176 296.4646464646464,362.86271346001945 301.5151515151515,372.8724133101599 306.5656565656566,358.37465492582896 311.6161616161616,356.47418997809143 316.66666666666663,359.3799888693083 321.7171717171717,364.15352301977265 326.7676767676768,360.6701490304804 331.8181818181818,356.9612389139545 336.86868686868684,358.76552793182356 341.9191919191919,358.9915835779221 346.969696969697,353.18583038271873 352.020202020202,360.3925311370385 357.07070707070704,356.5380907984767 362.1212121212121,357.1461876298662 367.1717171717172,359.1575698552642 372.22222222222223,350.54011562325275 377.27272727272725,356.03162484503724 382.32323232323233,357.30126401104496 387.37373737373736,354.4854717631756 392.4242424242424,353.1736216893931 397.47474747474746,352.097892939717 402.52525252525254,349.2963874606329 407.57575757575756,353.2218070641145 412.62626262626264,352.1223103263682 417.67676767676767,351.76605026474897 422.72727272727275,350.553817933315 427.77777777777777,347.85368357274854 432.8282828282828,347.2618866457459 437.8787878787879,348.5095111998526 442.9292929292929,343.09015016043395 447.979797979798,344.451419466242 453.030303030303,339.6084646074526 458.0808080808081,343.7193524457108 463.1313131313131,338.51565667509226 468.1818181818182,342.9018245719002 473.2323232323232,341.66134340218616 478.2828282828283,337.3199190676195 483.3333333333333,334.9350677182017 488.3838383838384,340.44716287500876 493.4343434343434,339.17408189652093 498.4848484848485,336.99911616853103 503.5353535353535,336.76215062626915 508.5858585858586,334.45379842971096 513.6363636363636,329.0106694022221 518.6868686868687,333.72316008605833 523.7373737373737,334.39139122606235 528.7878787878788,332.4608591240176 533.8383838383838,328.45868060824404 538.8888888888889,327.65381600676585 543.939393939394,325.6637989946877 548.989898989899,307.4105036757042 554.040404040404,325.28305660655906 559.090909090909,327.89675601597435 564.1414141414141,330.61961932688104 569.1919191919192,328.3765966275866 574.2424242424242,316.16744872294686 579.2929292929293,321.0428085709357 584.3434343434344,317.4717008333299 589.3939393939394,324.6922987172863 594.4444444444445,322.2110116785676 599.4949494949494,317.01835568382864 604.5454545454545,320.74408522360636 609.5959595959596,311.34754751378836 614.6464646464647,308.32466205839 619.6969696969697,315.6451374441274 624.7474747474747,313.2805473304415 629.7979797979798,311.3693023662569 634.8484848484848,319.3878812267312 639.8989898989898,315.0096359926133 644.9494949494949,317.81062195283243 650,316.1090677905014 "/><text class="poloto_text" alignment-baseline="middle" text-anchor="start" font-size="large" x="675" y="250">brocc_query</text><line class="poloto3stroke" stroke="black" x1="680" x2="730" y1="231.25" y2="231.25"/><polyline class="poloto3stroke" fill="none" stroke="black" points="150,399.93824219493257 155.05050505050505,392.72387853735523 160.1010101010101,388.317774104106 165.15151515151516,382.36272417509605 170.2020202020202,375.8987405780383 175.25252525252526,386.57186601868233 180.3030303030303,384.78640955966665 185.35353535353534,382.19998489065966 190.40404040404042,379.35243705217204 195.45454545454544,376.2072049040849 200.50505050505052,372.8474114647856 205.55555555555554,371.9911794355384 210.6060606060606,369.03057130407245 215.65656565656565,366.2552365878088 220.7070707070707,363.4415873552572 225.75757575757575,359.94223816086856 230.8080808080808,357.827276861777 235.85858585858585,355.0048607483799 240.9090909090909,351.6181172679629 245.95959595959596,348.94395885064245 251.010101010101,345.669886024055 256.06060606060606,345.90061733993787 261.1111111111111,343.64097003696594 266.16161616161617,341.18871111482474 271.2121212121212,338.3719447690836 276.26262626262627,334.87869992135785 281.3131313131313,332.7339961672496 286.3636363636364,330.2614110695183 291.4141414141414,327.30606306655966 296.4646464646464,325.1590214775593 301.5151515151515,321.9168990611645 306.5656565656566,318.8434903961526 311.6161616161616,316.1106263470962 316.66666666666663,312.2895001557474 321.7171717171717,309.10004396428394 326.7676767676768,305.694208165581 331.8181818181818,303.5937933947073 336.86868686868684,299.9356013073692 341.9191919191919,297.3420981938277 346.969696969697,293.7516383785037 352.020202020202,290.2915128584166 357.07070707070704,294.5967656920132 362.1212121212121,291.5203048536699 367.1717171717172,288.7427621822303 372.22222222222223,286.239070892462 377.27272727272725,284.47764218094886 382.32323232323233,280.4720867925533 387.37373737373736,278.8404079175541 392.4242424242424,275.07954591453614 397.47474747474746,272.14881011780307 402.52525252525254,269.4084130452053 407.57575757575756,266.8813434065155 412.62626262626264,264.2287450220893 417.67676767676767,261.32827119923786 422.72727272727275,258.540987549081 427.77777777777777,255.52394668091304 432.8282828282828,252.5182702879152 437.8787878787879,249.69546453536938 442.9292929292929,246.95493758305537 447.979797979798,243.69333320922604 453.030303030303,241.34335456361606 458.0808080808081,238.71530344555734 463.1313131313131,235.86769066721158 468.1818181818182,232.92740871133563 473.2323232323232,230.27792744009892 478.2828282828283,227.14509880491178 483.3333333333333,223.791799351424 488.3838383838384,220.73313203420426 493.4343434343434,218.61018313256454 498.4848484848485,214.54611693200732 503.5353535353535,212.42368754923254 508.5858585858586,209.22247724345021 513.6363636363636,206.07555665905213 518.6868686868687,203.52290071626499 523.7373737373737,201.29825599681706 528.7878787878788,197.54200472372528 533.8383838383838,193.71652756188283 538.8888888888889,191.88424946516614 543.939393939394,188.76616217777115 548.989898989899,185.40396596372156 554.040404040404,181.73466916064586 559.090909090909,178.6022301646074 564.1414141414141,187.1731225183504 569.1919191919192,184.04587871096115 574.2424242424242,180.20741357749566 579.2929292929293,179.6153568910606 584.3434343434344,176.2543945343152 589.3939393939394,174.38237324443213 594.4444444444445,170.3644143431366 599.4949494949494,167.81156358077513 604.5454545454545,165.6653012700721 609.5959595959596,163.1231006444415 614.6464646464647,159.3582123702204 619.6969696969697,157.67815330092546 624.7474747474747,155.39733560420802 629.7979797979798,150.73725138587068 634.8484848484848,150.28514009367356 639.8989898989898,146.95210187591766 644.9494949494949,140.6045554444603 650,141.62489049516427 "/><text class="poloto_text" alignment-baseline="middle" text-anchor="start" font-size="large" x="675" y="300">nosort_contr</text><line class="poloto4stroke" stroke="black" x1="680" x2="730" y1="281.25" y2="281.25"/><polyline class="poloto4stroke" fill="none" stroke="black" points="150,399.9360342397567 155.05050505050505,399.0972710323424 160.1010101010101,397.15375095867466 165.15151515151516,395.62331332247686 170.2020202020202,397.4340313862993 175.25252525252526,397.0797844602816 180.3030303030303,395.17594263992214 185.35353535353534,394.54583119663164 190.40404040404042,393.88260042570244 195.45454545454544,393.42113779393674 200.50505050505052,392.8701230978304 205.55555555555554,390.154208351742 210.6060606060606,389.27485773300583 215.65656565656565,388.8333316376815 220.7070707070707,387.9296935120103 225.75757575757575,387.3254281322496 230.8080808080808,386.77369909770397 235.85858585858585,386.0497495594372 240.9090909090909,385.343074023429 245.95959595959596,385.10630330074144 251.010101010101,383.49715855650817 256.06060606060606,379.28613345703656 261.1111111111111,377.91298015719343 266.16161616161617,376.2492859321435 271.2121212121212,376.422285714162 276.26262626262627,375.93543159787333 281.3131313131313,374.82658352055853 286.3636363636364,373.89190414270837 291.4141414141414,373.9847031999548 296.4646464646464,373.5247991247839 301.5151515151515,371.9924782327007 306.5656565656566,370.99344345545853 311.6161616161616,370.6803034596276 316.66666666666663,370.5130833249813 321.7171717171717,368.30824526225854 326.7676767676768,367.79197339024375 331.8181818181818,367.50831608999715 336.86868686868684,366.13607194816757 341.9191919191919,365.89923628562195 346.969696969697,364.86571844372065 352.020202020202,364.2009291161967 357.07070707070704,400 362.1212121212121,400 367.1717171717172,400 372.22222222222223,400 377.27272727272725,400 382.32323232323233,400 387.37373737373736,400 392.4242424242424,400 397.47474747474746,400 402.52525252525254,400 407.57575757575756,400 412.62626262626264,400 417.67676767676767,400 422.72727272727275,400 427.77777777777777,400 432.8282828282828,400 437.8787878787879,400 442.9292929292929,400 447.979797979798,400 453.030303030303,400 458.0808080808081,400 463.1313131313131,400 468.1818181818182,400 473.2323232323232,400 478.2828282828283,400 483.3333333333333,400 488.3838383838384,400 493.4343434343434,400 498.4848484848485,400 503.5353535353535,400 508.5858585858586,400 513.6363636363636,400 518.6868686868687,400 523.7373737373737,400 528.7878787878788,400 "/><text class="poloto_text" alignment-baseline="middle" text-anchor="start" font-size="large" x="675" y="350">nosort_par_contr</text><line class="poloto5stroke" stroke="black" x1="680" x2="730" y1="331.25" y2="331.25"/><polyline class="poloto5stroke" fill="none" stroke="black" points="150,399.9210331325321 155.05050505050505,399.1480540013884 160.1010101010101,397.2243405844457 165.15151515151516,395.5438918760021 170.2020202020202,397.36461067797427 175.25252525252526,397.00283072841523 180.3030303030303,395.0921702229537 185.35353535353534,394.5498574678347 190.40404040404042,393.88915935137203 195.45454545454544,393.43542456272206 200.50505050505052,392.80570275858025 205.55555555555554,380.43297135134867 210.6060606060606,379.387959154561 215.65656565656565,382.37817986132745 220.7070707070707,378.6812836185528 225.75757575757575,379.15027927385984 230.8080808080808,378.24995308095254 235.85858585858585,380.7619566725596 240.9090909090909,377.8496637955312 245.95959595959596,376.6191184241088 251.010101010101,376.2024642944425 256.06060606060606,377.31806611700125 261.1111111111111,384.3526762473161 266.16161616161617,381.8281392630928 271.2121212121212,376.7584144197656 276.26262626262627,379.8731897743968 281.3131313131313,376.2822104402078 286.3636363636364,381.26783816727595 291.4141414141414,384.0122615110769 296.4646464646464,378.26943503838703 301.5151515151515,379.8275370541419 306.5656565656566,378.0404570986733 311.6161616161616,378.4862042847751 316.66666666666663,379.6208984256197 321.7171717171717,368.1108930334468 326.7676767676768,377.8298571388061 331.8181818181818,377.48203925874185 336.86868686868684,373.4001795370611 341.9191919191919,376.61028660340514 346.969696969697,378.08507078119834 352.020202020202,377.97382880424726 357.07070707070704,374.9534760033154 362.1212121212121,379.2036598372304 367.1717171717172,378.7404438292956 372.22222222222223,376.5772971554827 377.27272727272725,377.98194628651163 382.32323232323233,377.48028588257273 387.37373737373736,376.31597916642767 392.4242424242424,371.10617904914625 397.47474747474746,375.5264403714647 402.52525252525254,373.8300164579247 407.57575757575756,375.7515868595496 412.62626262626264,375.4231859970617 417.67676767676767,374.4124620453588 422.72727272727275,374.91275871227725 427.77777777777777,374.67397485398817 432.8282828282828,374.1940693025178 437.8787878787879,372.85806160151645 442.9292929292929,372.3851046148644 447.979797979798,372.2164558033396 453.030303030303,372.400105722089 458.0808080808081,371.16215720684147 463.1313131313131,371.4640626072184 468.1818181818182,372.12443602439055 473.2323232323232,371.6277759895265 478.2828282828283,366.27705638013543 483.3333333333333,357.93799931986325 488.3838383838384,370.77927180339503 493.4343434343434,370.12136610083127 498.4848484848485,367.8588614441023 503.5353535353535,366.48135717376545 508.5858585858586,365.88943036704654 513.6363636363636,360.5693623706858 518.6868686868687,367.4252580114679 523.7373737373737,365.59642172723136 528.7878787878788,368.03939424966217 "/><text class="poloto_text" alignment-baseline="middle" text-anchor="start" font-size="large" x="675" y="400">nosort_par_query</text><line class="poloto6stroke" stroke="black" x1="680" x2="730" y1="381.25" y2="381.25"/><polyline class="poloto6stroke" fill="none" stroke="black" points="150,399.9301896525263 155.05050505050505,389.75768557809135 160.1010101010101,376.725360031985 165.15151515151516,367.47136531072965 170.2020202020202,378.25008296066875 175.25252525252526,369.2783168627814 180.3030303030303,369.6156144858311 185.35353535353534,362.07356430420515 190.40404040404042,354.57489394780004 195.45454545454544,346.9303686700685 200.50505050505052,336.7807234256901 205.55555555555554,351.1878257680924 210.6060606060606,347.39637709190225 215.65656565656565,345.14796438438424 220.7070707070707,340.5271687802065 225.75757575757575,331.92237782052746 230.8080808080808,328.7920168999487 235.85858585858585,321.3156858547352 240.9090909090909,320.50114521439787 245.95959595959596,314.990868373618 251.010101010101,302.99894429437325 256.06060606060606,331.80009606769676 261.1111111111111,334.7949275043894 266.16161616161617,339.356433018108 271.2121212121212,330.33739070351294 276.26262626262627,329.70136973313396 281.3131313131313,326.6804324734791 286.3636363636364,323.6100759817987 291.4141414141414,315.25296564097044 296.4646464646464,312.79674538748424 301.5151515151515,310.30857472380535 306.5656565656566,303.80114636166866 311.6161616161616,306.2646398792638 316.66666666666663,298.4418546910064 321.7171717171717,302.5142331934024 326.7676767676768,290.18689474699323 331.8181818181818,296.40910725228855 336.86868686868684,281.8222513826237 341.9191919191919,287.3329178625522 346.969696969697,286.9287971255021 352.020202020202,276.43484075339757 357.07070707070704,292.743317201551 362.1212121212121,292.0641761653836 367.1717171717172,291.14761500794754 372.22222222222223,280.0595888138064 377.27272727272725,281.4896943692164 382.32323232323233,280.71879331353244 387.37373737373736,276.3819147690338 392.4242424242424,269.38406059841213 397.47474747474746,268.2467039233848 402.52525252525254,269.7701280549062 407.57575757575756,262.19314022961436 412.62626262626264,263.17853763665244 417.67676767676767,260.37177202906105 422.72727272727275,254.29444034722044 427.77777777777777,250.4776651263654 432.8282828282828,249.005608422613 437.8787878787879,239.68881685856033 442.9292929292929,237.90258112124727 447.979797979798,240.88961977496606 453.030303030303,231.92421778317402 458.0808080808081,224.72258233778726 463.1313131313131,228.68644633727294 468.1818181818182,227.10022536295426 473.2323232323232,214.3400627622082 478.2828282828283,212.28900228350187 483.3333333333333,212.14509555791886 488.3838383838384,207.06575961559068 493.4343434343434,200.36240770152082 498.4848484848485,203.6534947709344 503.5353535353535,206.0685431543757 508.5858585858586,194.47086895374747 513.6363636363636,191.89340598516037 518.6868686868687,187.7786217554153 523.7373737373737,188.50380515098624 528.7878787878788,174.97897572093524 "/><text class="poloto_text" alignment-baseline="middle" text-anchor="start" font-size="large" x="675" y="450">nosort_query</text><line class="poloto7stroke" stroke="black" x1="680" x2="730" y1="431.25" y2="431.25"/><polyline class="poloto7stroke" fill="none" stroke="black" points="150,399.9620101830027 155.05050505050505,389.84548426626293 160.1010101010101,375.00425897236136 165.15151515151516,368.1225172680494 170.2020202020202,378.36509144939055 175.25252525252526,369.3855325685294 180.3030303030303,368.6904163272657 185.35353535353534,361.19408380575277 190.40404040404042,353.3172686555436 195.45454545454544,345.2633625122547 200.50505050505052,334.4929571641543 205.55555555555554,339.956347427375 210.6060606060606,330.545068369765 215.65656565656565,324.1630388736485 220.7070707070707,317.1683667560744 225.75757575757575,307.12197588609894 230.8080808080808,296.38404046705614 235.85858585858585,288.8095203563726 240.9090909090909,280.1677786174261 245.95959595959596,271.58701540524964 251.010101010101,260.048955994371 256.06060606060606,275.2022822463736 261.1111111111111,265.9038686621675 266.16161616161617,261.0563680133101 271.2121212121212,251.2405136396431 276.26262626262627,243.31064262535395 281.3131313131313,234.01820350809442 286.3636363636364,227.21146733990537 291.4141414141414,216.697834190792 296.4646464646464,208.75835207750183 301.5151515151515,200.461830624295 306.5656565656566,188.4397744508848 311.6161616161616,180.93038901789072 316.66666666666663,169.32836384676878 321.7171717171717,161.05950677311898 326.7676767676768,150.54593856386367 331.8181818181818,137.0035104322635 336.86868686868684,127.56119012247439 341.9191919191919,123.16554100638166 346.969696969697,110.23315790191441 352.020202020202,100 "/><text class="poloto_text" alignment-baseline="start" text-anchor="middle" font-size="x-large" x="400" y="37.5">Bench of construction vs query abspiral(x,1.5)</text><text class="poloto_text" alignment-baseline="start" text-anchor="middle" font-size="x-large" x="400" y="481.25">Number of Elements</text><text class="poloto_text" alignment-baseline="start" text-anchor="middle" font-size="x-large" transform="rotate(-90,37.5,250)" x="37.5" y="250">Time in Seconds</text><path stroke="black" fill="none" class="poloto_axis_lines" d=" M 150 100 L 150 400 L 650 400"/></svg>