<svg class="poloto" width="800" height="500" viewBox="0 0 800 500" xmlns="http://www.w3.org/2000/svg"><circle  r="1e5" class="poloto_background" /><text  class="poloto_text poloto_legend_text" x="675" y="100" >brocc_constr</text><line  class="poloto_scatter poloto_legend_icon poloto0stroke poloto0legend" stroke="black" x1="685" x2="685" y1="81.25" y2="81.25" /><path  class="poloto_scatter poloto0stroke" d=" M 150.00 400.00 h 0 M 155.05 399.91 h 0 M 160.10 399.80 h 0 M 165.15 399.53 h 0 M 170.20 399.37 h 0 M 175.25 399.19 h 0 M 180.30 399.05 h 0 M 185.35 398.83 h 0 M 190.40 398.62 h 0 M 195.45 398.12 h 0 M 200.51 397.94 h 0 M 205.56 397.59 h 0 M 210.61 397.51 h 0 M 215.66 397.08 h 0 M 220.71 396.88 h 0 M 225.76 396.74 h 0 M 230.81 396.42 h 0 M 235.86 396.12 h 0 M 240.91 395.99 h 0 M 245.96 395.77 h 0 M 251.01 395.44 h 0 M 256.06 395.23 h 0 M 261.11 394.85 h 0 M 266.16 394.78 h 0 M 271.21 394.07 h 0 M 276.26 394.14 h 0 M 281.31 393.83 h 0 M 286.36 393.74 h 0 M 291.41 393.17 h 0 M 296.46 393.31 h 0 M 301.52 392.74 h 0 M 306.57 392.68 h 0 M 311.62 392.32 h 0 M 316.67 392.17 h 0 M 321.72 391.79 h 0 M 326.77 389.94 h 0 M 331.82 390.00 h 0 M 336.87 389.41 h 0 M 341.92 389.15 h 0 M 346.97 389.22 h 0 M 352.02 388.70 h 0 M 357.07 388.44 h 0 M 362.12 388.15 h 0 M 367.17 387.53 h 0 M 372.22 387.46 h 0 M 377.27 387.06 h 0 M 382.32 386.94 h 0 M 387.37 386.34 h 0 M 392.42 386.21 h 0 M 397.47 386.11 h 0 M 402.53 385.48 h 0 M 407.58 385.45 h 0 M 412.63 385.10 h 0 M 417.68 384.74 h 0 M 422.73 384.45 h 0 M 427.78 383.89 h 0 M 432.83 384.17 h 0 M 437.88 383.55 h 0 M 442.93 382.88 h 0 M 447.98 382.45 h 0 M 453.03 382.40 h 0 M 458.08 381.46 h 0 M 463.13 381.84 h 0 M 468.18 380.85 h 0 M 473.23 381.53 h 0 M 478.28 380.17 h 0 M 483.33 380.67 h 0 M 488.38 380.36 h 0 M 493.43 379.80 h 0 M 498.48 379.88 h 0 M 503.54 379.26 h 0 M 508.59 378.93 h 0 M 513.64 378.54 h 0 M 518.69 378.55 h 0 M 523.74 377.40 h 0 M 528.79 377.38 h 0 M 533.84 377.33 h 0 M 538.89 377.23 h 0 M 543.94 376.98 h 0 M 548.99 376.37 h 0 M 554.04 375.54 h 0 M 559.09 375.05 h 0 M 564.14 375.46 h 0 M 569.19 374.53 h 0 M 574.24 374.00 h 0 M 579.29 374.03 h 0 M 584.34 373.12 h 0 M 589.39 373.32 h 0 M 594.44 373.20 h 0 M 599.49 373.47 h 0 M 604.55 372.49 h 0 M 609.60 372.37 h 0 M 614.65 372.21 h 0 M 619.70 371.48 h 0 M 624.75 371.28 h 0 M 629.80 370.56 h 0 M 634.85 370.18 h 0 M 639.90 370.79 h 0 M 644.95 370.15 h 0 M 650.00 370.05 h 0" /><text  class="poloto_text poloto_legend_text" x="675" y="150" >brocc_query</text><line  class="poloto_scatter poloto_legend_icon poloto1stroke poloto1legend" stroke="black" x1="685" x2="685" y1="131.25" y2="131.25" /><path  class="poloto_scatter poloto1stroke" d=" M 150.00 400.00 h 0 M 155.05 399.62 h 0 M 160.10 398.97 h 0 M 165.15 398.54 h 0 M 170.20 397.94 h 0 M 175.25 397.21 h 0 M 180.30 396.48 h 0 M 185.35 395.63 h 0 M 190.40 394.77 h 0 M 195.45 395.10 h 0 M 200.51 394.45 h 0 M 205.56 393.65 h 0 M 210.61 393.05 h 0 M 215.66 392.14 h 0 M 220.71 391.43 h 0 M 225.76 390.74 h 0 M 230.81 389.91 h 0 M 235.86 389.03 h 0 M 240.91 388.32 h 0 M 245.96 387.46 h 0 M 251.01 386.55 h 0 M 256.06 385.79 h 0 M 261.11 384.73 h 0 M 266.16 384.00 h 0 M 271.21 382.70 h 0 M 276.26 382.10 h 0 M 281.31 381.13 h 0 M 286.36 380.27 h 0 M 291.41 379.01 h 0 M 296.46 378.48 h 0 M 301.52 377.31 h 0 M 306.57 376.49 h 0 M 311.62 375.36 h 0 M 316.67 374.46 h 0 M 321.72 373.26 h 0 M 326.77 377.36 h 0 M 331.82 377.03 h 0 M 336.87 375.90 h 0 M 341.92 375.17 h 0 M 346.97 374.76 h 0 M 352.02 373.68 h 0 M 357.07 372.99 h 0 M 362.12 372.06 h 0 M 367.17 370.99 h 0 M 372.22 370.38 h 0 M 377.27 369.53 h 0 M 382.32 368.98 h 0 M 387.37 367.76 h 0 M 392.42 367.13 h 0 M 397.47 366.53 h 0 M 402.53 365.38 h 0 M 407.58 364.92 h 0 M 412.63 363.96 h 0 M 417.68 363.07 h 0 M 422.73 362.18 h 0 M 427.78 361.13 h 0 M 432.83 360.85 h 0 M 437.88 359.62 h 0 M 442.93 358.46 h 0 M 447.98 357.52 h 0 M 453.03 356.96 h 0 M 458.08 355.45 h 0 M 463.13 355.28 h 0 M 468.18 353.61 h 0 M 473.23 353.68 h 0 M 478.28 351.70 h 0 M 483.33 351.58 h 0 M 488.38 350.76 h 0 M 493.43 349.74 h 0 M 498.48 349.17 h 0 M 503.54 347.88 h 0 M 508.59 346.96 h 0 M 513.64 345.97 h 0 M 518.69 345.37 h 0 M 523.74 343.71 h 0 M 528.79 342.97 h 0 M 533.84 342.36 h 0 M 538.89 341.59 h 0 M 543.94 340.80 h 0 M 548.99 339.65 h 0 M 554.04 338.12 h 0 M 559.09 336.79 h 0 M 564.14 336.51 h 0 M 569.19 334.97 h 0 M 574.24 333.90 h 0 M 579.29 333.20 h 0 M 584.34 331.61 h 0 M 589.39 331.17 h 0 M 594.44 330.55 h 0 M 599.49 330.11 h 0 M 604.55 328.44 h 0 M 609.60 327.83 h 0 M 614.65 326.89 h 0 M 619.70 325.43 h 0 M 624.75 324.52 h 0 M 629.80 323.04 h 0 M 634.85 322.02 h 0 M 639.90 321.96 h 0 M 644.95 320.46 h 0 M 650.00 319.72 h 0" /><text  class="poloto_text poloto_legend_text" x="675" y="200" >nosort_constr</text><line  class="poloto_scatter poloto_legend_icon poloto2stroke poloto2legend" stroke="black" x1="685" x2="685" y1="181.25" y2="181.25" /><path  class="poloto_scatter poloto2stroke" d=" M 150.00 400.00 h 0 M 155.05 399.98 h 0 M 160.10 399.96 h 0 M 165.15 399.69 h 0 M 170.20 399.60 h 0 M 175.25 399.51 h 0 M 180.30 399.45 h 0 M 185.35 399.30 h 0 M 190.40 399.19 h 0 M 195.45 398.53 h 0 M 200.51 398.41 h 0 M 205.56 398.13 h 0 M 210.61 398.13 h 0 M 215.66 397.77 h 0 M 220.71 397.60 h 0 M 225.76 397.53 h 0 M 230.81 397.25 h 0 M 235.86 397.13 h 0 M 240.91 397.01 h 0 M 245.96 396.92 h 0 M 251.01 396.66 h 0 M 256.06 396.51 h 0 M 261.11 396.25 h 0 M 266.16 396.23 h 0 M 271.21 395.60 h 0 M 276.26 395.73 h 0 M 281.31 395.55 h 0 M 286.36 395.52 h 0 M 291.41 395.00 h 0 M 296.46 395.21 h 0 M 301.52 394.86 h 0 M 306.57 394.82 h 0 M 311.62 394.52 h 0 M 316.67 394.49 h 0 M 321.72 394.20 h 0 M 326.77 391.47 h 0 M 331.82 391.58 h 0 M 336.87 391.05 h 0 M 341.92 390.93 h 0 M 346.97 391.00 h 0 M 352.02 390.52 h 0 M 357.07 390.34 h 0 M 362.12 390.16 h 0 M 367.17 389.62 h 0 M 372.22 389.61 h 0 M 377.27 389.25 h 0 M 382.32 389.17 h 0 M 387.37 388.67 h 0 M 392.42 388.62 h 0 M 397.47 388.55 h 0 M 402.53 388.01 h 0 M 407.58 388.04 h 0 M 412.63 387.73 h 0 M 417.68 387.43 h 0 M 422.73 387.21 h 0 M 427.78 386.74 h 0 M 432.83 387.07 h 0 M 437.88 386.56 h 0 M 442.93 385.93 h 0 M 447.98 385.62 h 0 M 453.03 385.65 h 0 M 458.08 384.72 h 0 M 463.13 385.16 h 0 M 468.18 384.33 h 0 M 473.23 385.03 h 0 M 478.28 383.81 h 0 M 483.33 384.33 h 0 M 488.38 384.12 h 0 M 493.43 383.69 h 0 M 498.48 383.81 h 0 M 503.54 383.26 h 0 M 508.59 382.99 h 0 M 513.64 382.72 h 0 M 518.69 382.73 h 0 M 523.74 381.66 h 0 M 528.79 381.77 h 0 M 533.84 381.79 h 0 M 538.89 381.76 h 0 M 543.94 381.56 h 0 M 548.99 381.12 h 0 M 554.04 380.30 h 0 M 559.09 379.90 h 0 M 564.14 380.34 h 0 M 569.19 379.55 h 0 M 574.24 379.08 h 0 M 579.29 379.23 h 0 M 584.34 378.31 h 0 M 589.39 378.72 h 0 M 594.44 378.63 h 0 M 599.49 379.00 h 0 M 604.55 378.12 h 0 M 609.60 378.07 h 0 M 614.65 377.92 h 0 M 619.70 377.38 h 0 M 624.75 377.21 h 0 M 629.80 376.57 h 0 M 634.85 376.20 h 0 M 639.90 376.90 h 0 M 644.95 376.45 h 0 M 650.00 376.31 h 0" /><text  class="poloto_text poloto_legend_text" x="675" y="250" >nosort_query</text><line  class="poloto_scatter poloto_legend_icon poloto3stroke poloto3legend" stroke="black" x1="685" x2="685" y1="231.25" y2="231.25" /><path  class="poloto_scatter poloto3stroke" d=" M 150.00 400.00 h 0 M 155.05 399.30 h 0 M 160.10 397.50 h 0 M 165.15 396.95 h 0 M 170.20 395.22 h 0 M 175.25 393.11 h 0 M 180.30 390.51 h 0 M 185.35 387.54 h 0 M 190.40 384.61 h 0 M 195.45 388.69 h 0 M 200.51 386.77 h 0 M 205.56 384.55 h 0 M 210.61 382.43 h 0 M 215.66 379.87 h 0 M 220.71 377.41 h 0 M 225.76 374.84 h 0 M 230.81 371.90 h 0 M 235.86 369.05 h 0 M 240.91 366.45 h 0 M 245.96 363.36 h 0 M 251.01 360.19 h 0 M 256.06 356.58 h 0 M 261.11 353.41 h 0 M 266.16 350.57 h 0 M 271.21 346.43 h 0 M 276.26 342.60 h 0 M 281.31 338.65 h 0 M 286.36 335.13 h 0 M 291.41 331.21 h 0 M 296.46 327.22 h 0 M 301.52 323.24 h 0 M 306.57 318.24 h 0 M 311.62 313.93 h 0 M 316.67 309.60 h 0 M 321.72 305.12 h 0 M 326.77 339.66 h 0 M 331.82 337.19 h 0 M 336.87 333.98 h 0 M 341.92 331.63 h 0 M 346.97 328.96 h 0 M 352.02 325.67 h 0 M 357.07 323.64 h 0 M 362.12 320.16 h 0 M 367.17 317.01 h 0 M 372.22 315.16 h 0 M 377.27 311.65 h 0 M 382.32 309.35 h 0 M 387.37 305.55 h 0 M 392.42 302.42 h 0 M 397.47 299.32 h 0 M 402.53 295.70 h 0 M 407.58 293.85 h 0 M 412.63 290.94 h 0 M 417.68 288.03 h 0 M 422.73 283.79 h 0 M 427.78 279.67 h 0 M 432.83 276.81 h 0 M 437.88 272.75 h 0 M 442.93 269.51 h 0 M 447.98 266.10 h 0 M 453.03 264.03 h 0 M 458.08 260.19 h 0 M 463.13 256.95 h 0 M 468.18 252.65 h 0 M 473.23 248.86 h 0 M 478.28 243.05 h 0 M 483.33 240.79 h 0 M 488.38 238.09 h 0 M 493.43 234.15 h 0 M 498.48 230.73 h 0 M 503.54 226.92 h 0 M 508.59 224.27 h 0 M 513.64 219.49 h 0 M 518.69 215.25 h 0 M 523.74 209.03 h 0 M 528.79 205.34 h 0 M 533.84 202.04 h 0 M 538.89 198.10 h 0 M 543.94 193.32 h 0 M 548.99 190.37 h 0 M 554.04 186.71 h 0 M 559.09 182.94 h 0 M 564.14 178.50 h 0 M 569.19 173.41 h 0 M 574.24 169.11 h 0 M 579.29 164.33 h 0 M 584.34 158.61 h 0 M 589.39 155.72 h 0 M 594.44 150.76 h 0 M 599.49 147.04 h 0 M 604.55 143.01 h 0 M 609.60 140.15 h 0 M 614.65 134.72 h 0 M 619.70 131.13 h 0 M 624.75 126.70 h 0 M 629.80 119.49 h 0 M 634.85 116.56 h 0 M 639.90 111.62 h 0 M 644.95 105.04 h 0 M 650.00 100.00 h 0" /><text  class="poloto_labels poloto_text poloto_title" x="400" y="37.5" >Complexity of construction vs query with abspiral(x,1.5)</text><text  class="poloto_labels poloto_text poloto_xname" x="400" y="481.25" >Number of Elements</text><text  class="poloto_labels poloto_text poloto_yname" transform="rotate(-90,37.5,250)" x="37.5" y="250" >Number of Comparisons</text><text  class="poloto_tick_labels poloto_text" dominant-baseline="middle" text-anchor="start" x="150" y="70" ></text><line  class="poloto_axis_lines" stroke="black" x1="150" x2="144" y1="400" y2="400" /><text  class="poloto_tick_labels poloto_text" dominant-baseline="middle" text-anchor="end" x="135" y="400" >0</text><line  class="poloto_axis_lines" stroke="black" x1="150" x2="144" y1="314.62448433188536" y2="314.62448433188536" /><text  class="poloto_tick_labels poloto_text" dominant-baseline="middle" text-anchor="end" x="135" y="314.62448433188536" >5e5</text><line  class="poloto_axis_lines" stroke="black" x1="150" x2="144" y1="229.2489686637707" y2="229.2489686637707" /><text  class="poloto_tick_labels poloto_text" dominant-baseline="middle" text-anchor="end" x="135" y="229.2489686637707" >1e6</text><line  class="poloto_axis_lines" stroke="black" x1="150" x2="144" y1="143.87345299565612" y2="143.87345299565612" /><text  class="poloto_tick_labels poloto_text" dominant-baseline="middle" text-anchor="end" x="135" y="143.87345299565612" >1.5e6</text><text  class="poloto_tick_labels poloto_text" dominant-baseline="middle" text-anchor="start" x="440.00000000000006" y="70" ></text><line  class="poloto_axis_lines" stroke="black" x1="150" x2="150" y1="400" y2="405" /><text  class="poloto_tick_labels poloto_text" dominant-baseline="start" text-anchor="middle" x="150" y="430" >0</text><line  class="poloto_axis_lines" stroke="black" x1="234.17508417508418" x2="234.17508417508418" y1="400" y2="405" /><text  class="poloto_tick_labels poloto_text" dominant-baseline="start" text-anchor="middle" x="234.17508417508418" y="430" >1000</text><line  class="poloto_axis_lines" stroke="black" x1="318.35016835016836" x2="318.35016835016836" y1="400" y2="405" /><text  class="poloto_tick_labels poloto_text" dominant-baseline="start" text-anchor="middle" x="318.35016835016836" y="430" >2000</text><line  class="poloto_axis_lines" stroke="black" x1="402.52525252525254" x2="402.52525252525254" y1="400" y2="405" /><text  class="poloto_tick_labels poloto_text" dominant-baseline="start" text-anchor="middle" x="402.52525252525254" y="430" >3000</text><line  class="poloto_axis_lines" stroke="black" x1="486.7003367003367" x2="486.7003367003367" y1="400" y2="405" /><text  class="poloto_tick_labels poloto_text" dominant-baseline="start" text-anchor="middle" x="486.7003367003367" y="430" >4000</text><line  class="poloto_axis_lines" stroke="black" x1="570.8754208754209" x2="570.8754208754209" y1="400" y2="405" /><text  class="poloto_tick_labels poloto_text" dominant-baseline="start" text-anchor="middle" x="570.8754208754209" y="430" >5000</text><path  stroke="black" fill="none" class="poloto_axis_lines" style="stroke-dasharray:8.417508417508419;stroke-dashoffset:-0;" d=" M 150 400 L 650 400" /><path  stroke="black" fill="none" class="poloto_axis_lines" style="stroke-dasharray:8.537551566811462;stroke-dashoffset:-0;" d=" M 150 400 L 150 100" /></svg>