<svg class="poloto" width="800" height="500" viewBox="0 0 800 500" xmlns="http://www.w3.org/2000/svg"><style>.poloto {
                    font-family: "Arial";
                    stroke-width:2;
                    }
                    .poloto_text{fill: var(--poloto_fg_color,black);  }
                    .poloto_axis_lines{stroke: var(--poloto_fg_color,black);stoke-width:3;fill:none}
                    .poloto_background{fill: var(--poloto_bg_color,aliceblue); }
                    .poloto0stroke{stroke:  var(--poloto_color0,blue); }
                    .poloto1stroke{stroke:  var(--poloto_color1,red); }
                    .poloto2stroke{stroke:  var(--poloto_color2,green); }
                    .poloto3stroke{stroke:  var(--poloto_color3,gold); }
                    .poloto4stroke{stroke:  var(--poloto_color4,aqua); }
                    .poloto5stroke{stroke:  var(--poloto_color5,brown); }
                    .poloto6stroke{stroke:  var(--poloto_color6,lime); }
                    .poloto7stroke{stroke:  var(--poloto_color7,chocolate); }
                    .poloto0fill{fill:var(--poloto_color0,blue);}
                    .poloto1fill{fill:var(--poloto_color1,red);}
                    .poloto2fill{fill:var(--poloto_color2,green);}
                    .poloto3fill{fill:var(--poloto_color3,gold);}
                    .poloto4fill{fill:var(--poloto_color4,aqua);}
                    .poloto5fill{fill:var(--poloto_color5,brown);}
                    .poloto6fill{fill:var(--poloto_color6,lime);}
                    .poloto7fill{fill:var(--poloto_color7,chocolate);}</style><rect class="poloto_background" fill="white" x="0" y="0" width="800" height="500"/><line class="poloto_axis_lines" stroke="black" x1="150" x2="150" y1="400" y2="405"/><text class="poloto_text" alignment-baseline="start" text-anchor="middle" x="150" y="430">0</text><line class="poloto_axis_lines" stroke="black" x1="234.17508417508418" x2="234.17508417508418" y1="400" y2="405"/><text class="poloto_text" alignment-baseline="start" text-anchor="middle" x="234.17508417508418" y="430">1000</text><line class="poloto_axis_lines" stroke="black" x1="318.35016835016836" x2="318.35016835016836" y1="400" y2="405"/><text class="poloto_text" alignment-baseline="start" text-anchor="middle" x="318.35016835016836" y="430">2000</text><line class="poloto_axis_lines" stroke="black" x1="402.52525252525254" x2="402.52525252525254" y1="400" y2="405"/><text class="poloto_text" alignment-baseline="start" text-anchor="middle" x="402.52525252525254" y="430">3000</text><line class="poloto_axis_lines" stroke="black" x1="486.7003367003367" x2="486.7003367003367" y1="400" y2="405"/><text class="poloto_text" alignment-baseline="start" text-anchor="middle" x="486.7003367003367" y="430">4000</text><line class="poloto_axis_lines" stroke="black" x1="570.8754208754209" x2="570.8754208754209" y1="400" y2="405"/><text class="poloto_text" alignment-baseline="start" text-anchor="middle" x="570.8754208754209" y="430">5000</text><line class="poloto_axis_lines" stroke="black" x1="150" x2="144" y1="400" y2="400"/><text class="poloto_text" alignment-baseline="middle" text-anchor="end" x="135" y="400">0</text><line class="poloto_axis_lines" stroke="black" x1="150" x2="144" y1="357.3200095887712" y2="357.3200095887712"/><text class="poloto_text" alignment-baseline="middle" text-anchor="end" x="135" y="357.3200095887712">2e5</text><line class="poloto_axis_lines" stroke="black" x1="150" x2="144" y1="314.6400191775424" y2="314.6400191775424"/><text class="poloto_text" alignment-baseline="middle" text-anchor="end" x="135" y="314.6400191775424">4e5</text><line class="poloto_axis_lines" stroke="black" x1="150" x2="144" y1="271.9600287663136" y2="271.9600287663136"/><text class="poloto_text" alignment-baseline="middle" text-anchor="end" x="135" y="271.9600287663136">6e5</text><line class="poloto_axis_lines" stroke="black" x1="150" x2="144" y1="229.28003835508474" y2="229.28003835508474"/><text class="poloto_text" alignment-baseline="middle" text-anchor="end" x="135" y="229.28003835508474">8e5</text><line class="poloto_axis_lines" stroke="black" x1="150" x2="144" y1="186.60004794385594" y2="186.60004794385594"/><text class="poloto_text" alignment-baseline="middle" text-anchor="end" x="135" y="186.60004794385594">1e6</text><line class="poloto_axis_lines" stroke="black" x1="150" x2="144" y1="143.92005753262714" y2="143.92005753262714"/><text class="poloto_text" alignment-baseline="middle" text-anchor="end" x="135" y="143.92005753262714">1.2e6</text><line class="poloto_axis_lines" stroke="black" x1="150" x2="144" y1="101.24006712139834" y2="101.24006712139834"/><text class="poloto_text" alignment-baseline="middle" text-anchor="end" x="135" y="101.24006712139834">1.4e6</text><text class="poloto_text" alignment-baseline="middle" text-anchor="start" font-size="large" x="675" y="100">brocc_constr</text><line class="poloto0stroke" stroke="black" x1="680" x2="730" y1="81.25" y2="81.25"/><polyline class="poloto0stroke" fill="none" stroke="black" points="150,400 155.05050505050505,399.8900990246911 160.1010101010101,399.69206386918296 165.15151515151516,399.4093089327086 170.2020202020202,399.2050851785909 175.25252525252526,398.77209667586897 180.3030303030303,398.58046351892256 185.35353535353536,398.3218227770305 190.40404040404042,398.02455664381625 195.45454545454547,397.54931495058725 200.50505050505052,397.42511617849055 205.55555555555554,396.92832109010385 210.60606060606062,396.8143655157059 215.65656565656565,396.32397242588087 220.70707070707073,396.0723738824067 225.75757575757575,395.8739119269945 230.80808080808083,395.4180896294025 235.85858585858585,395.12957289422263 240.90909090909093,394.55531362323956 245.95959595959596,394.2614618892582 251.010101010101,393.76402660101536 256.06060606060606,393.4110630803145 261.1111111111111,393.00987117044895 266.16161616161617,392.755498427598 271.21212121212125,391.9371096114627 276.26262626262627,391.94073741064767 281.3131313131313,391.5792378918646 286.3636363636364,391.444155722213 291.41414141414145,390.65180170022853 296.4646464646465,390.7045114883864 301.5151515151515,390.23545839376703 306.5656565656566,390.0980288246429 311.61616161616166,389.44843937058397 316.6666666666667,389.2856152071651 321.7171717171717,388.8487855053062 326.7676767676768,387.20773987399446 331.81818181818187,387.12579429240486 336.8686868686869,386.2576832874405 341.9191919191919,386.14500811275485 346.969696969697,386.358408064811 352.020202020202,385.6829972165533 357.07070707070704,385.24424691512587 362.1212121212121,384.9147573891512 367.1717171717172,384.18663675273564 372.22222222222223,384.12261676711876 377.27272727272725,383.47985611152563 382.32323232323233,383.2572799615311 387.3737373737374,382.5895515115474 392.42424242424244,382.6019287087667 397.47474747474746,382.27798758154546 402.52525252525254,381.57526153942456 407.5757575757576,381.5727007399999 412.62626262626264,381.0667294536748 417.67676767676767,380.46302098930795 422.72727272727275,380.16383425652526 427.77777777777777,379.6521011714946 432.82828282828285,379.9188511115648 437.8787878787879,379.02427851254544 442.92929292929296,377.89795356559307 447.979797979798,377.7368366017907 453.03030303030306,377.7359830019825 458.0808080808081,376.5791418618861 463.13131313131316,376.985241970649 468.1818181818182,375.8461130265733 473.23232323232327,376.66364824290036 478.2828282828283,375.18222577572664 483.33333333333337,375.51342250131773 488.3838383838384,375.0966523949521 493.4343434343435,374.6762544894015 498.4848484848485,372.90034008839024 503.5353535353536,372.39906360101037 508.5858585858586,371.5697913873202 513.6363636363637,371.0277555090976 518.6868686868687,370.95114492630944 523.7373737373738,369.92682515644 528.7878787878788,369.90889956046726 533.8383838383838,370.0614805261874 538.8888888888889,369.3811614790324 543.939393939394,369.2349825118739 548.9898989898991,368.402936098807 554.040404040404,367.23137036201877 559.0909090909091,366.58540870714484 564.1414141414141,367.0235188087161 569.1919191919192,365.88481666454453 574.2424242424242,365.21410061523204 579.2929292929293,365.240562209287 584.3434343434344,364.33147841352786 589.3939393939395,364.31355281755515 594.4444444444445,364.331905213432 599.4949494949495,364.4266547921449 604.5454545454545,362.96507852051235 609.5959595959596,362.9215449302929 614.6464646464647,362.868621742183 619.6969696969697,361.5525842378527 624.7474747474748,361.30290629394705 629.7979797979799,360.6409396426689 634.8484848484849,359.8293796249994 639.89898989899,360.93030997765703 644.9494949494949,360.1339013565835 650,359.74679384355363 "/><text class="poloto_text" alignment-baseline="middle" text-anchor="start" font-size="large" x="675" y="150">brocc_query</text><line class="poloto1stroke" stroke="black" x1="680" x2="730" y1="131.25" y2="131.25"/><polyline class="poloto1stroke" fill="none" stroke="black" points="150,400 155.05050505050505,399.52902630581207 160.1010101010101,398.6867366950465 165.15151515151516,398.1246412213306 170.2020202020202,397.3709125906683 175.25252525252526,396.25227004199 180.3030303030303,395.2985856562511 185.35353535353536,394.27298548666926 190.40404040404042,393.260829514067 195.45454545454547,393.5399566513564 200.50505050505052,392.8242132121601 205.55555555555554,391.75038465341356 210.60606060606062,390.99004062423757 215.65656565656565,389.8846288725867 220.70707070707073,388.96572867903296 225.75757575757575,388.0658210812122 230.80808080808083,386.9689453276436 235.85858585858585,385.93374216021925 240.90909090909093,384.8415612055959 245.95959595959596,383.78224384358924 251.010101010101,382.7220728817743 256.06060606060606,381.5970283345343 261.1111111111111,380.43101099649954 266.16161616161617,379.40028922806835 271.21212121212125,377.78229079157865 276.26262626262627,377.0029541666696 281.3131313131313,375.7865744399496 286.3636363636364,374.88922764155353 291.41414141414145,373.3700333828658 296.4646464646465,372.54460236831267 301.5151515151515,371.1995424705028 306.5656565656566,370.1101357152562 311.61616161616166,368.77105101610385 316.6666666666667,367.4985471019931 321.7171717171717,366.1711994002039 326.7676767676768,370.50962042550526 331.81818181818187,369.9180757584056 336.8686868686869,368.3429707122792 341.9191919191919,367.60225947869236 346.969696969697,367.23137036201877 352.020202020202,365.795615484585 357.07070707070704,364.8353157003324 362.1212121212121,363.6797549599484 367.1717171717172,362.3814296516388 372.22222222222223,361.6759294101412 377.27272727272725,360.43244788951006 382.32323232323233,359.6486298656078 387.3737373737374,358.16742079838616 392.42424242424244,357.5276477421218 397.47474747474746,356.56009235949927 402.52525252525254,355.1802482695042 407.5757575757576,354.6514431883091 412.62626262626264,353.354825079616 417.67676767676767,352.1051549603752 422.72727272727275,351.01062660627923 427.77777777777777,349.8392742694431 432.82828282828285,349.42677216211854 437.8787878787879,347.76481333550527 442.92929292929296,346.00298333132974 447.979797979798,345.1952645127972 453.03030303030306,344.57683145173854 458.0808080808081,342.7095818712473 463.13131313131316,342.41039513846454 468.1818181818182,340.3877903928764 473.23232323232327,340.4016613897601 478.2828282828283,338.0975821074099 483.33333333333337,337.6596854057907 488.3838383838384,336.6377130353938 493.4343434343435,335.6407084593875 498.4848484848485,334.1134050025217 503.5353535353536,333.00927365058317 508.5858585858586,331.4034390113607 513.6363636363637,330.27626046460017 518.6868686868687,329.31105248145025 523.7373737373738,327.68217064740566 528.7878787878788,326.9491418120928 533.8383838383838,326.3789371401988 538.8888888888889,324.931445265402 543.939393939394,324.03345826714974 548.9898989898991,322.53560400366763 554.040404040404,320.51427965779186 559.0909090909091,319.0815123796869 564.1414141414141,318.56401749595074 569.1919191919192,316.71981511028156 574.2424242424242,315.20275485111443 579.2929292929293,314.64215317706294 584.3434343434344,312.9148939651205 589.3939393939395,312.3224956982126 594.4444444444445,311.59096066256416 599.4949494949495,310.81205083755924 604.5454545454545,308.6927759136897 609.5959595959596,307.7721685205195 614.6464646464647,306.827660332719 619.6969696969697,304.6253728274996 624.7474747474748,303.6642194434387 629.7979797979799,302.27221155617644 634.8484848484849,300.73082370247494 639.89898989899,301.0438814321413 644.9494949494949,299.41884079723377 650,298.435280418207 "/><text class="poloto_text" alignment-baseline="middle" text-anchor="start" font-size="large" x="675" y="200">nosort_constr</text><line class="poloto2stroke" stroke="black" x1="680" x2="730" y1="181.25" y2="181.25"/><polyline class="poloto2stroke" fill="none" stroke="black" points="150,400 155.05050505050505,399.9748188056574 160.1010101010101,399.84805923413603 165.15151515151516,399.59880809013447 170.2020202020202,399.4871999152091 175.25252525252526,399.0744844079325 180.3030303030303,398.9748266303223 185.35353535353536,398.7938634709787 190.40404040404042,398.582170718539 195.45454545454547,398.057847036337 200.50505050505052,397.9989486495695 205.55555555555554,397.58431254272443 210.60606060606062,397.5926351408546 215.65656565656565,397.1669022365026 220.70707070707073,396.9695072808507 225.75757575757575,396.852777507076 230.80808080808083,396.4810347905942 235.85858585858585,396.35555561878516 240.90909090909093,395.5083578091223 245.95959595959596,395.2955980569223 251.010101010101,394.8873639486389 256.06060606060606,394.64344780343873 261.1111111111111,394.32441487511477 266.16161616161617,394.1910399050797 271.21212121212125,393.39804568323905 276.26262626262627,393.4874602631506 281.3131313131313,393.2236979224092 286.3636363636364,393.17290873381984 291.41414141414145,392.43561189946587 296.4646464646465,392.6421830530562 301.5151515151515,392.2230655472179 306.5656565656566,392.13941276601196 311.61616161616166,391.687431667557 316.6666666666667,391.607406685536 321.7171717171717,391.2051477759101 326.7676767676768,389.13260744154087 331.81818181818187,389.072428655061 336.8686868686869,388.2783674334601 341.9191919191919,388.3278762223371 346.969696969697,388.6014549608731 352.020202020202,387.8944609197111 357.07070707070704,387.5903659880311 362.1212121212121,387.3216954483924 367.1717171717172,386.7595999746765 372.22222222222223,386.7628009739574 377.27272727272725,386.25682968763226 382.32323232323233,386.020169140802 387.3737373737374,385.52422765222354 392.42424242424244,385.57373644110055 397.47474747474746,385.39277328175694 402.52525252525254,384.7476652266912 407.5757575757576,384.8016554145614 412.62626262626264,384.3804039092026 417.67676767676767,383.83345983208267 422.72727272727275,383.63115667753345 427.77777777777777,383.22356276910625 432.82828282828285,383.5210423022725 437.8787878787879,382.83645525607636 442.92929292929296,381.7570782985764 447.979797979798,381.71503850802134 453.03030303030306,381.7803388933505 458.0808080808081,380.66489734395304 463.13131313131316,381.1134640431751 468.1818181818182,380.15465805858685 473.23232323232327,380.98478387208525 478.2828282828283,379.6815503648784 483.33333333333337,380.1023750703331 488.3838383838384,379.76477634618027 493.4343434343435,379.4830884094661 498.4848484848485,376.45408948998124 503.5353535353536,376.0027485913825 508.5858585858586,375.2916999511314 513.6363636363637,374.83993225262856 518.6868686868687,374.86084544793005 523.7373737373738,373.8841138673691 528.7878787878788,374.028372234959 533.8383838383838,374.23814438783023 538.8888888888889,373.65300171929226 543.939393939394,373.61053512883313 548.9898989898991,372.86150129711604 554.040404040404,371.7699605423489 559.0909090909091,371.26526965573606 564.1414141414141,371.7454195478624 569.1919191919192,370.71384417962304 574.2424242424242,370.06382792566 579.2929292929293,370.31841406846297 584.3434343434344,369.3504318859363 589.3939393939395,369.55892363909516 594.4444444444445,369.5787698346364 599.4949494949495,369.7578123944115 604.5454545454545,368.39696090014945 609.5959595959596,368.4044298984714 614.6464646464647,368.53161626989686 619.6969696969697,367.1440897816278 624.7474747474748,367.14110218229905 629.7979797979799,366.4821231303497 634.8484848484849,365.77854348842055 639.89898989899,366.916818832688 644.9494949494949,366.2845147747457 650,365.9306976542366 "/><text class="poloto_text" alignment-baseline="middle" text-anchor="start" font-size="large" x="675" y="250">nosort_query</text><line class="poloto3stroke" stroke="black" x1="680" x2="730" y1="231.25" y2="231.25"/><polyline class="poloto3stroke" fill="none" stroke="black" points="150,400 155.05050505050505,399.1303951953712 160.1010101010101,397.58153834334775 165.15151515151516,396.05743588576274 170.2020202020202,393.8764883757489 175.25252525252526,392.95161298353764 180.3030303030303,390.4930321358988 185.35353535353536,387.818063736875 190.40404040404042,384.8932039939935 195.45454545454547,385.11236574475515 200.50505050505052,382.68963608906176 205.55555555555554,379.83541173031085 210.60606060606062,377.1100809426018 215.65656565656565,373.87643146909505 220.70707070707073,370.7166183789997 225.75757575757575,367.37904312884166 230.80808080808083,363.7109113529486 235.85858585858585,360.03979197772674 240.90909090909093,365.23736121000616 245.95959595959596,362.3169828661179 251.010101010101,359.36822232860607 256.06060606060606,356.00482568424917 261.1111111111111,353.0646011448196 266.16161616161617,350.622025293585 271.21212121212125,346.38624964522256 276.26262626262627,342.7857656541313 281.3131313131313,339.0414500953542 286.3636363636364,335.749115635032 291.41414141414145,332.0073608756796 296.4646464646465,328.5564702509797 301.5151515151515,324.8277328887027 306.5656565656566,319.895419796829 311.61616161616166,316.0977542500379 316.6666666666667,312.31801429921944 321.7171717171717,307.88164269592426 326.7676767676768,320.92016636660264 331.81818181818187,317.61545470906117 336.8686868686869,313.08454692700514 341.9191919191919,310.32485874701507 346.969696969697,307.0773382766247 352.020202020202,302.6586788693502 357.07070707070704,300.1183658400738 362.1212121212121,295.38984970241376 367.1717171717172,291.5697771606567 372.22222222222223,289.343588860807 377.27272727272725,284.88481026254595 382.32323232323233,281.6818903821353 387.3737373737374,276.8946892576598 392.42424242424244,272.8264325716615 397.47474747474746,268.84695026571853 402.52525252525254,264.20059310960005 407.5757575757576,261.8988612267225 412.62626262626264,258.2791712399462 417.67676767676767,254.32209592896913 422.72727272727275,249.1112958996622 427.77777777777777,243.80531949173823 432.82828282828285,239.840134982583 437.8787878787879,234.64555334963237 442.92929292929296,230.26125133463887 447.979797979798,226.52824597332074 453.03030303030306,224.05301992942154 458.0808080808081,219.04238905514327 463.13131313131316,214.66662303823205 468.1818181818182,209.28104844819111 473.23232323232327,204.1398168032545 478.2828282828283,197.01631300366836 483.33333333333337,193.81936832191525 488.3838383838384,190.67171902908714 493.4343434343435,185.82946071698117 498.4848484848485,221.25790735739017 503.5353535353536,218.10812406504147 508.5858585858586,215.50165705062773 513.6363636363637,210.8435628971462 518.6868686868687,206.9829443644985 523.7373737373738,201.10121488592708 528.7878787878788,197.59974847258985 533.8383838383838,194.37719579659003 538.8888888888889,190.69882082299827 543.939393939394,186.65062373249322 548.9898989898991,183.25457689547173 554.040404040404,179.97291243275234 559.0909090909091,176.69274176969736 564.1414141414141,171.73225988415228 569.1919191919192,167.1524835130754 574.2424242424242,163.19711540171474 579.2929292929293,159.3879262575126 584.3434343434344,153.72663892941515 589.3939393939395,152.0066353158426 594.4444444444445,146.90829706126928 599.4949494949495,142.78412958783224 604.5454545454545,139.18129819726835 609.5959595959596,136.83603272417133 614.6464646464647,132.4024353202529 619.6969696969697,127.53862361298923 624.7474747474748,123.68141947957446 629.7979797979799,117.79115400292073 634.8484848484849,113.90834187525923 639.89898989899,110.60597761719038 644.9494949494949,104.33457982616443 650,100 "/><text class="poloto_text" alignment-baseline="start" text-anchor="middle" font-size="x-large" x="400" y="37.5">Complexity of construction vs query with abspiral(x,1.5)</text><text class="poloto_text" alignment-baseline="start" text-anchor="middle" font-size="x-large" x="400" y="481.25">Number of Elements</text><text class="poloto_text" alignment-baseline="start" text-anchor="middle" font-size="x-large" transform="rotate(-90,37.5,250)" x="37.5" y="250">Number of Comparisons</text><path stroke="black" fill="none" class="poloto_axis_lines" d=" M 150 100 L 150 400 L 650 400"/></svg>