<svg class="poloto" width="800" height="500" viewBox="0 0 800 500" xmlns="http://www.w3.org/2000/svg"><style>.poloto {
    font-family: "Arial";
    stroke-width:2;
    }
    .poloto_text{fill: var(--poloto_fg_color,black);  }
    .poloto_axis_lines{stroke: var(--poloto_fg_color,black);stoke-width:3;fill:none}
    .poloto_background{fill: var(--poloto_bg_color,aliceblue); }
    .poloto0stroke{stroke:  var(--poloto_color0,blue); }
    .poloto1stroke{stroke:  var(--poloto_color1,red); }
    .poloto2stroke{stroke:  var(--poloto_color2,green); }
    .poloto3stroke{stroke:  var(--poloto_color3,gold); }
    .poloto4stroke{stroke:  var(--poloto_color4,aqua); }
    .poloto5stroke{stroke:  var(--poloto_color5,brown); }
    .poloto6stroke{stroke:  var(--poloto_color6,lime); }
    .poloto7stroke{stroke:  var(--poloto_color7,chocolate); }
    .poloto0fill{fill:var(--poloto_color0,blue);}
    .poloto1fill{fill:var(--poloto_color1,red);}
    .poloto2fill{fill:var(--poloto_color2,green);}
    .poloto3fill{fill:var(--poloto_color3,gold);}
    .poloto4fill{fill:var(--poloto_color4,aqua);}
    .poloto5fill{fill:var(--poloto_color5,brown);}
    .poloto6fill{fill:var(--poloto_color6,lime);}
    .poloto7fill{fill:var(--poloto_color7,chocolate);}</style><rect class="poloto_background" fill="white" x="0" y="0" width="800" height="500"/><line class="poloto_axis_lines" stroke="black" x1="150" x2="150" y1="400" y2="405"/><text class="poloto_text" alignment-baseline="start" text-anchor="middle" x="150" y="430">0</text><line class="poloto_axis_lines" stroke="black" x1="234.17508417508418" x2="234.17508417508418" y1="400" y2="405"/><text class="poloto_text" alignment-baseline="start" text-anchor="middle" x="234.17508417508418" y="430">1000</text><line class="poloto_axis_lines" stroke="black" x1="318.35016835016836" x2="318.35016835016836" y1="400" y2="405"/><text class="poloto_text" alignment-baseline="start" text-anchor="middle" x="318.35016835016836" y="430">2000</text><line class="poloto_axis_lines" stroke="black" x1="402.52525252525254" x2="402.52525252525254" y1="400" y2="405"/><text class="poloto_text" alignment-baseline="start" text-anchor="middle" x="402.52525252525254" y="430">3000</text><line class="poloto_axis_lines" stroke="black" x1="486.7003367003367" x2="486.7003367003367" y1="400" y2="405"/><text class="poloto_text" alignment-baseline="start" text-anchor="middle" x="486.7003367003367" y="430">4000</text><line class="poloto_axis_lines" stroke="black" x1="570.8754208754209" x2="570.8754208754209" y1="400" y2="405"/><text class="poloto_text" alignment-baseline="start" text-anchor="middle" x="570.8754208754209" y="430">5000</text><line class="poloto_axis_lines" stroke="black" x1="150" x2="144" y1="400" y2="400"/><text class="poloto_text" alignment-baseline="middle" text-anchor="end" x="135" y="400">0</text><line class="poloto_axis_lines" stroke="black" x1="150" x2="144" y1="357.2485448473453" y2="357.2485448473453"/><text class="poloto_text" alignment-baseline="middle" text-anchor="end" x="135" y="357.2485448473453">2e5</text><line class="poloto_axis_lines" stroke="black" x1="150" x2="144" y1="314.4970896946905" y2="314.4970896946905"/><text class="poloto_text" alignment-baseline="middle" text-anchor="end" x="135" y="314.4970896946905">4e5</text><line class="poloto_axis_lines" stroke="black" x1="150" x2="144" y1="271.74563454203576" y2="271.74563454203576"/><text class="poloto_text" alignment-baseline="middle" text-anchor="end" x="135" y="271.74563454203576">6e5</text><line class="poloto_axis_lines" stroke="black" x1="150" x2="144" y1="228.99417938938097" y2="228.99417938938097"/><text class="poloto_text" alignment-baseline="middle" text-anchor="end" x="135" y="228.99417938938097">8e5</text><line class="poloto_axis_lines" stroke="black" x1="150" x2="144" y1="186.24272423672625" y2="186.24272423672625"/><text class="poloto_text" alignment-baseline="middle" text-anchor="end" x="135" y="186.24272423672625">1e6</text><line class="poloto_axis_lines" stroke="black" x1="150" x2="144" y1="143.49126908407152" y2="143.49126908407152"/><text class="poloto_text" alignment-baseline="middle" text-anchor="end" x="135" y="143.49126908407152">1.2e6</text><line class="poloto_axis_lines" stroke="black" x1="150" x2="144" y1="100.73981393141673" y2="100.73981393141673"/><text class="poloto_text" alignment-baseline="middle" text-anchor="end" x="135" y="100.73981393141673">1.4e6</text><text class="poloto_text" alignment-baseline="middle" text-anchor="start" font-size="large" x="675" y="100">brocc_constr</text><line class="poloto0stroke" stroke="black" x1="680" x2="730" y1="81.25" y2="81.25"/><polyline class="poloto0stroke" fill="none" stroke="black" points="150,400 155.05050505050505,399.8899150029819 160.1010101010101,399.6994572702768 165.15151515151516,399.41772518082087 170.2020202020202,399.2142282542942 175.25252525252526,398.83822920622663 180.3030303030303,398.62019678494806 185.35353535353536,398.35300019024396 190.40404040404042,398.0734056735456 195.45454545454547,397.65273135484347 200.50505050505052,397.42678991436173 205.55555555555554,396.98922877087426 210.60606060606062,396.8791437738562 215.65656565656565,396.34410931262073 220.70707070707073,396.0905931835655 225.75757575757575,395.91445718833654 230.80808080808083,395.5245639173443 235.85858585858585,395.14749608289793 240.90909090909093,394.64089133933896 245.95959595959596,394.3444099978553 251.010101010101,393.8741439911761 256.06060606060606,393.56889860138614 261.1111111111111,393.1832804759092 266.16161616161617,392.8647821350219 271.21212121212125,392.04694679795165 276.26262626262627,392.07965166114343 281.3131313131313,391.73849504902523 286.3636363636364,391.51383615219805 291.41414141414145,390.7817174827088 296.4646464646465,390.8522573837107 301.5151515151515,390.3516378438731 306.5656565656566,390.1442932863827 311.61616161616166,389.5647973117885 316.6666666666667,389.487630935238 321.7171717171717,388.94404618297193 326.7676767676768,387.40007738013384 331.81818181818187,387.4770299994086 336.8686868686869,386.73999491257683 341.9191919191919,386.41850396982886 346.969696969697,386.5003730064462 352.020202020202,385.85910117915637 357.07070707070704,385.52948745992944 362.1212121212121,385.1639625183742 367.1717171717172,384.3888786364566 372.22222222222223,384.29589422149957 377.27272727272725,383.79591595348927 382.32323232323233,383.6537673651067 387.3737373737374,382.90262429807456 392.42424242424244,382.73845871028834 397.47474747474746,382.615975791276 402.52525252525254,381.8218675118154 407.5757575757576,381.78617004676295 412.62626262626264,381.3488226605513 417.67676767676767,380.89074081859064 422.72727272727275,380.52799472162036 427.77777777777777,379.83819999273226 432.82828282828285,380.1881206531567 437.8787878787879,379.4064102956904 442.92929292929296,378.5689092892499 447.979797979798,378.03408858529025 453.03030303030306,377.9680375870794 458.0808080808081,376.79215881310563 463.13131313131316,377.27097511081536 468.1818181818182,376.0303278822853 473.23232323232327,376.8759516652048 478.2828282828283,375.17743635198985 483.33333333333337,375.8011800826671 488.3838383838384,375.4123555980537 493.4343434343435,374.7116592481017 498.4848484848485,373.5783181720048 503.5353535353536,372.7512912720767 508.5858585858586,372.2882930127734 513.6363636363637,371.7846808710751 518.6868686868687,371.7987888512755 523.7373737373738,370.3215123184755 528.7878787878788,370.2193363406607 533.8383838383838,370.12186302291263 538.8888888888889,369.9876234537333 543.939393939394,369.5913174644682 548.9898989898991,368.80704201969274 554.040404040404,367.7271402625367 559.0909090909091,367.0830895906619 564.1414141414141,367.623895498343 569.1919191919192,366.2859887093407 574.2424242424242,365.6759254443123 579.2929292929293,365.6224861253715 584.3434343434344,364.47204446721355 589.3939393939395,364.81619368119243 594.4444444444445,364.71188013061993 599.4949494949495,364.926706192762 604.5454545454545,363.7080759636356 609.5959595959596,363.51911453186085 614.6464646464647,363.114472008841 619.6969696969697,362.3539236216753 624.7474747474748,362.0136220386602 629.7979797979799,361.05278308410425 634.8484848484849,360.4955178661894 639.89898989899,361.32382730977207 644.9494949494949,360.5354904767571 650,360.2058767575301 "/><text class="poloto_text" alignment-baseline="middle" text-anchor="start" font-size="large" x="675" y="150">brocc_query</text><line class="poloto1stroke" stroke="black" x1="680" x2="730" y1="131.25" y2="131.25"/><polyline class="poloto1stroke" fill="none" stroke="black" points="150,400 155.05050505050505,399.52823769239046 160.1010101010101,398.69244674415603 165.15151515151516,398.13090638072595 170.2020202020202,397.3769844691089 175.25252525252526,396.31418329401384 180.3030303030303,395.33282364098466 185.35353535353536,394.2973833971874 190.40404040404042,393.30170200668204 195.45454545454547,393.6366596578031 200.50505050505052,392.81818304890555 205.55555555555554,391.8026222317542 210.60606060606062,391.0450664464492 215.65656565656565,389.89398351646395 220.70707070707073,388.97204838609696 225.75757575757575,388.09329222543414 230.80808080808083,387.061272098049 235.85858585858585,385.93626755570693 240.90909090909093,384.9108739038705 245.95959595959596,383.847645214224 251.010101010101,382.81370127135705 256.06060606060606,381.73508205785555 261.1111111111111,380.58335785604305 266.16161616161617,379.487210545929 271.21212121212125,377.8684266965737 276.26262626262627,377.11685611499 281.3131313131313,375.9193878561642 286.3636363636364,374.93118797031053 291.41414141414145,373.4710120195716 296.4646464646465,372.6619407308076 301.5151515151515,371.2838475739618 306.5656565656566,370.12293180929146 311.61616161616166,368.8527860767061 316.6666666666667,367.6640818661865 321.7171717171717,366.22848800216036 326.7676767676768,370.67399806620915 331.81818181818187,370.24049831096124 336.8686868686869,368.79528536952574 341.9191919191919,367.8447067642065 346.969696969697,367.341308379784 352.020202020202,365.9384193789496 357.07070707070704,365.0863828777572 362.1212121212121,363.89340352172235 367.1717171717172,362.5471601989653 372.22222222222223,361.81162141306385 377.27272727272725,360.7099164137799 382.32323232323233,360.00558619014 387.3737373737374,358.4396003878982 392.42424242424244,357.62219256537946 397.47474747474746,356.85501770266507 402.52525252525254,355.38265758720763 407.5757575757576,354.81983468012294 412.62626262626264,353.59051658720836 417.67676767676767,352.48539147151223 422.72727272727275,351.32597200777224 427.77777777777777,349.9754535394999 432.82828282828285,349.6449847911698 437.8787878787879,348.0946032700588 442.92929292929296,346.62053309639526 447.979797979798,345.43802784687284 453.03030303030306,344.75336329260307 458.0808080808081,342.86588654761334 463.13131313131316,342.6382350489255 468.1818181818182,340.5126326987355 473.23232323232327,340.5532465811305 478.2828282828283,338.0306969698481 483.33333333333337,337.8840594786745 488.3838383838384,336.8890193599965 493.4343434343435,335.6107508509321 498.4848484848485,334.72643700109944 503.5353535353536,333.2955457971401 508.5858585858586,332.05468481133425 513.6363636363637,330.9649502194931 518.6868686868687,330.0889729034152 523.7373737373738,328.0061220083779 528.7878787878788,327.1876453994803 533.8383838383838,326.366176188722 538.8888888888889,325.46347921317374 543.939393939394,324.3141063413946 548.9898989898991,322.86290819623775 554.040404040404,320.93182496699234 559.0909090909091,319.4996512193784 564.1414141414141,319.08325204619155 569.1919191919192,317.0386637035158 574.2424242424242,315.58083908281026 579.2929292929293,314.9393534982447 584.3434343434344,312.96936644481036 589.3939393939395,312.7380810724345 594.4444444444445,311.88262445482985 599.4949494949495,311.2223282299971 604.5454545454545,309.3448980769683 609.5959595959596,308.2773942418065 614.6464646464647,306.9796738206477 619.6969696969697,305.33139146723704 624.7474747474748,304.2784231268272 629.7979797979799,302.5863205318851 634.8484848484849,301.29800543085986 639.89898989899,301.3371230123245 644.9494949494949,299.71876667752076 650,298.7917013725355 "/><text class="poloto_text" alignment-baseline="middle" text-anchor="start" font-size="large" x="675" y="200">nosort_constr</text><line class="poloto2stroke" stroke="black" x1="680" x2="730" y1="181.25" y2="181.25"/><polyline class="poloto2stroke" fill="none" stroke="black" points="150,400 155.05050505050505,399.9747766414599 160.1010101010101,399.854645052481 165.15151515151516,399.6060453407683 170.2020202020202,399.49852543105936 175.25252525252526,399.14625344060147 180.3030303030303,399.01735780331626 185.35353535353536,398.8388704780539 190.40404040404042,398.6283195614271 195.45454545454547,398.16061864205705 200.50505050505052,398.0129123645046 205.55555555555554,397.65700650035876 210.60606060606062,397.6617091604256 215.65656565656565,397.2038410757406 220.70707070707073,396.9952139745957 225.75757575757575,396.91077985066914 230.80808080808083,396.562355491175 235.85858585858585,396.40438886438596 240.90909090909093,395.57351433349413 245.95959595959596,395.3907518627165 251.010101010101,395.04040368774054 256.06060606060606,394.7990717234038 261.1111111111111,394.5004528091625 266.16161616161617,394.3046511445633 271.21212121212125,393.50990159327546 276.26262626262627,393.62875063859985 281.3131313131313,393.38827370336617 286.3636363636364,393.2747685899359 291.41414141414145,392.5890352492873 296.4646464646465,392.7923184185382 301.5151515151515,392.33936675119577 306.5656565656566,392.2224415213533 311.61616161616166,391.7752613004565 316.6666666666667,391.8406710268401 321.7171717171717,391.3483880207573 326.7676767676768,389.3249616483821 331.81818181818187,389.46497266400706 336.8686868686869,388.7982637209014 341.9191919191919,388.65012992879747 346.969696969697,388.73157145086327 352.020202020202,388.1364711951383 357.07070707070704,387.9021932209018 362.1212121212121,387.68180946958984 367.1717171717172,387.0022750899384 372.22222222222223,386.9875258379107 377.27272727272725,386.5392768306351 382.32323232323233,386.44479611474776 387.3737373737374,385.82083862679474 392.42424242424244,385.7507262403444 397.47474747474746,385.6684296891755 402.52525252525254,384.98846779497256 407.5757575757576,385.02950919191915 412.62626262626264,384.6385471345481 417.67676767676767,384.26447190196234 422.72727272727275,383.9850911425398 427.77777777777777,383.39960996422417 432.82828282828285,383.8076726036563 437.8787878787879,383.1785849410849 442.92929292929296,382.3900343507942 447.979797979798,381.99778974976863 453.03030303030306,382.03434224392413 458.0808080808081,380.8659449746021 463.13131313131316,381.4176525033471 468.1818181818182,380.377509599483 473.23232323232327,381.258830847455 478.2828282828283,379.7360240149174 483.33333333333337,380.3847773468589 488.3838383838384,380.1210008685671 493.4343434343435,379.58276004819515 498.4848484848485,377.17478433672187 503.5353535353536,376.4259925997231 508.5858585858586,376.0085246401574 513.6363636363637,375.60666096172247 518.6868686868687,375.6921638720278 523.7373737373738,374.3292474817612 528.7878787878788,374.35147823844056 533.8383838383838,374.3476306074768 538.8888888888889,374.3326675981734 543.939393939394,373.9128483085743 548.9898989898991,373.33933753770145 554.040404040404,372.3026147502496 559.0909090909091,371.7470595905408 564.1414141414141,372.30838619669515 569.1919191919192,371.1801752952166 574.2424242424242,370.6288952810231 579.2929292929293,370.6808382990336 584.3434343434344,369.5244114371543 589.3939393939395,370.0660723739384 594.4444444444445,370.0010901621064 599.4949494949495,370.29244132897173 604.5454545454545,369.1680780584569 609.5959595959596,369.12169272961626 614.6464646464647,368.7461211961002 619.6969696969697,368.01143743930186 624.7474747474748,367.8459893078611 629.7979797979799,366.91892400287577 634.8484848484849,366.4257859676899 639.89898989899,367.3524237581237 644.9494949494949,366.72525991103424 650,366.4071890846985 "/><text class="poloto_text" alignment-baseline="middle" text-anchor="start" font-size="large" x="675" y="250">nosort_query</text><line class="poloto3stroke" stroke="black" x1="680" x2="730" y1="231.25" y2="231.25"/><polyline class="poloto3stroke" fill="none" stroke="black" points="150,400 155.05050505050505,399.1289391012647 160.1010101010101,397.5834739974962 165.15151515151516,396.05404068941 170.2020202020202,393.8784191366914 175.25252525252526,393.0114196261955 180.3030303030303,390.522429907208 185.35353535353536,387.84063112548193 190.40404040404042,384.9014685837369 195.45454545454547,385.172299052129 200.50505050505052,382.67582782848973 205.55555555555554,379.874538729612 210.60606060606062,377.14464456083925 215.65656565656565,373.859836504185 220.70707070707073,370.7216659387044 225.75757575757575,367.3832048058336 230.80808080808083,363.6522853146614 235.85858585858585,360.0203354421676 240.90909090909093,365.21698857324856 245.95959595959596,362.33447170958084 251.010101010101,359.5271974069817 256.06060606060606,356.1192651594879 261.1111111111111,353.20040955894035 266.16161616161617,350.64793392905113 271.21212121212125,346.42280761631423 276.26262626262627,342.83296792714583 281.3131313131313,339.1180802316559 286.3636363636364,335.77085505047876 291.41414141414145,332.04079058840966 296.4646464646465,328.57963277925074 301.5151515151515,324.7694093387704 306.5656565656566,319.86838252007004 311.61616161616166,316.0021546733397 316.6666666666667,312.4657543031121 321.7171717171717,307.8851496407809 326.7676767676768,320.910449239416 331.81818181818187,317.86333927341053 336.8686868686869,313.48687280943324 341.9191919191919,310.51158528808423 346.969696969697,307.01750885845775 352.020202020202,302.7669454299051 357.07070707070704,300.285650972845 362.1212121212121,295.6197571574843 367.1717171717172,291.6879058270946 372.22222222222223,289.3718457441995 377.27272727272725,285.0000819402891 382.32323232323233,281.9177020237826 387.3737373737374,276.9814052545814 392.42424242424244,272.84135433759826 397.47474747474746,268.9481930741218 402.52525252525254,264.2893532488612 407.5757575757576,262.0107006892247 412.62626262626264,258.33920572071474 417.67676767676767,254.50055256255786 422.72727272727275,249.19659327904375 427.77777777777777,243.6976873600335 432.82828282828285,239.92679525829362 437.8787878787879,234.67990916740828 442.92929292929296,230.63433896631258 447.979797979798,226.51737383511193 453.03030303030306,224.02047509692113 458.0808080808081,218.90761481793936 463.13131313131316,214.77654170653835 468.1818181818182,209.23980074971803 473.23232323232327,204.40290111374668 478.2828282828283,196.6629639156343 483.33333333333337,193.75586496525378 488.3838383838384,190.62688596263095 493.4343434343435,185.56083852704137 498.4848484848485,221.7144616059869 503.5353535353536,218.2556551268614 508.5858585858586,215.85003074542152 513.6363636363637,211.29721452893955 518.6868686868687,207.48186091384088 523.7373737373738,201.22048279218305 528.7878787878788,197.64239975318162 533.8383838383838,194.16756147837384 538.8888888888889,191.06124074698192 543.939393939394,186.57105541229862 548.9898989898991,183.48269029207083 554.040404040404,180.12605979076014 559.0909090909091,176.83334271490267 564.1414141414141,171.99729810803436 569.1919191919192,167.38142349520223 574.2424242424242,163.51092050295662 579.2929292929293,159.38177120703747 584.3434343434344,153.49275825975928 589.3939393939395,152.09008301620068 594.4444444444445,146.9406702430634 599.4949494949495,142.84144696575112 604.5454545454545,139.54872988989365 609.5959595959596,137.21129407942226 614.6464646464647,132.04862835518765 619.6969696969697,127.91798275833816 624.7474747474748,123.86920619810599 629.7979797979799,117.69803364682025 634.8484848484849,114.1205918796461 639.89898989899,110.5307521904777 644.9494949494949,104.33649385340954 650,100 "/><text class="poloto_text" alignment-baseline="start" text-anchor="middle" font-size="x-large" x="400" y="37.5">Complexity of construction vs query with abspiral(x,1.5)</text><text class="poloto_text" alignment-baseline="start" text-anchor="middle" font-size="x-large" x="400" y="481.25">Number of Elements</text><text class="poloto_text" alignment-baseline="start" text-anchor="middle" font-size="x-large" transform="rotate(-90,37.5,250)" x="37.5" y="250">Number of Comparisons</text><path stroke="black" fill="none" class="poloto_axis_lines" d=" M 150 100 L 150 400 L 650 400"/></svg>