<svg class="poloto" width="800" height="500" viewBox="0 0 800 500" xmlns="http://www.w3.org/2000/svg"><style>.poloto {
    font-family: "Arial";
    stroke-width:2;
    }
    .poloto_text{fill: var(--poloto_fg_color,black);  }
    .poloto_axis_lines{stroke: var(--poloto_fg_color,black);stoke-width:3;fill:none}
    .poloto_background{fill: var(--poloto_bg_color,aliceblue); }
    .poloto0stroke{stroke:  var(--poloto_color0,blue); }
    .poloto1stroke{stroke:  var(--poloto_color1,red); }
    .poloto2stroke{stroke:  var(--poloto_color2,green); }
    .poloto3stroke{stroke:  var(--poloto_color3,gold); }
    .poloto4stroke{stroke:  var(--poloto_color4,aqua); }
    .poloto5stroke{stroke:  var(--poloto_color5,brown); }
    .poloto6stroke{stroke:  var(--poloto_color6,lime); }
    .poloto7stroke{stroke:  var(--poloto_color7,chocolate); }
    .poloto0fill{fill:var(--poloto_color0,blue);}
    .poloto1fill{fill:var(--poloto_color1,red);}
    .poloto2fill{fill:var(--poloto_color2,green);}
    .poloto3fill{fill:var(--poloto_color3,gold);}
    .poloto4fill{fill:var(--poloto_color4,aqua);}
    .poloto5fill{fill:var(--poloto_color5,brown);}
    .poloto6fill{fill:var(--poloto_color6,lime);}
    .poloto7fill{fill:var(--poloto_color7,chocolate);}</style><rect class="poloto_background" fill="white" x="0" y="0" width="800" height="500"/><line class="poloto_axis_lines" stroke="black" x1="150" x2="150" y1="400" y2="405"/><text class="poloto_text" alignment-baseline="start" text-anchor="middle" x="150" y="430">0</text><line class="poloto_axis_lines" stroke="black" x1="234.17508417508418" x2="234.17508417508418" y1="400" y2="405"/><text class="poloto_text" alignment-baseline="start" text-anchor="middle" x="234.17508417508418" y="430">1000</text><line class="poloto_axis_lines" stroke="black" x1="318.35016835016836" x2="318.35016835016836" y1="400" y2="405"/><text class="poloto_text" alignment-baseline="start" text-anchor="middle" x="318.35016835016836" y="430">2000</text><line class="poloto_axis_lines" stroke="black" x1="402.52525252525254" x2="402.52525252525254" y1="400" y2="405"/><text class="poloto_text" alignment-baseline="start" text-anchor="middle" x="402.52525252525254" y="430">3000</text><line class="poloto_axis_lines" stroke="black" x1="486.7003367003367" x2="486.7003367003367" y1="400" y2="405"/><text class="poloto_text" alignment-baseline="start" text-anchor="middle" x="486.7003367003367" y="430">4000</text><line class="poloto_axis_lines" stroke="black" x1="570.8754208754209" x2="570.8754208754209" y1="400" y2="405"/><text class="poloto_text" alignment-baseline="start" text-anchor="middle" x="570.8754208754209" y="430">5000</text><line class="poloto_axis_lines" stroke="black" x1="150" x2="144" y1="400" y2="400"/><text class="poloto_text" alignment-baseline="middle" text-anchor="end" x="135" y="400">0</text><line class="poloto_axis_lines" stroke="black" x1="150" x2="144" y1="345.4431877181704" y2="345.4431877181704"/><text class="poloto_text" alignment-baseline="middle" text-anchor="end" x="135" y="345.4431877181704">2e5</text><line class="poloto_axis_lines" stroke="black" x1="150" x2="144" y1="290.8863754363408" y2="290.8863754363408"/><text class="poloto_text" alignment-baseline="middle" text-anchor="end" x="135" y="290.8863754363408">4e5</text><line class="poloto_axis_lines" stroke="black" x1="150" x2="144" y1="236.32956315451128" y2="236.32956315451128"/><text class="poloto_text" alignment-baseline="middle" text-anchor="end" x="135" y="236.32956315451128">6e5</text><line class="poloto_axis_lines" stroke="black" x1="150" x2="144" y1="181.77275087268168" y2="181.77275087268168"/><text class="poloto_text" alignment-baseline="middle" text-anchor="end" x="135" y="181.77275087268168">8e5</text><line class="poloto_axis_lines" stroke="black" x1="150" x2="144" y1="127.21593859085209" y2="127.21593859085209"/><text class="poloto_text" alignment-baseline="middle" text-anchor="end" x="135" y="127.21593859085209">1e6</text><text class="poloto_text" alignment-baseline="middle" text-anchor="start" font-size="large" x="675" y="100">brocc_constr</text><line class="poloto0stroke" stroke="black" x1="680" x2="730" y1="81.25" y2="81.25"/><polyline class="poloto0stroke" fill="none" stroke="black" points="150,400 155.05050505050505,399.8595162083743 160.1010101010101,399.617283961843 165.15151515151516,399.2634830341953 170.2020202020202,398.9590560216627 175.25252525252526,398.569247597909 180.3030303030303,398.21735615869125 185.35353535353536,397.8649191513506 190.40404040404042,397.48465816974624 195.45454545454547,396.8662567025317 200.50505050505052,396.6343902503339 205.55555555555554,395.9928021378996 210.60606060606062,395.7595717653948 215.65656565656565,395.30784135970123 220.70707070707073,394.9139411750264 225.75757575757575,394.7164455145662 230.80808080808083,394.27971823225016 235.85858585858585,393.5830277394112 240.90909090909093,392.72866805907773 245.95959595959596,392.3898702548076 251.010101010101,392.16864238100476 256.06060606060606,391.4214868368051 261.1111111111111,390.9528438193042 266.16161616161617,390.725341912089 271.21212121212125,389.88953154793137 276.26262626262627,389.71658645299794 281.3131313131313,389.1688360576884 286.3636363636364,388.6963740633277 291.41414141414145,388.0310537375508 296.4646464646465,387.97840641369885 301.5151515151515,387.2476179131837 306.5656565656566,386.95546618341456 311.61616161616166,386.38507471100803 316.6666666666667,386.04845917922916 321.7171717171717,385.70802467059053 326.7676767676768,383.6951510814524 331.81818181818187,383.80044572915637 336.8686868686869,382.8304256067854 341.9191919191919,382.18965584653535 346.969696969697,382.4269779799613 352.020202020202,381.3985820684488 357.07070707070704,380.808004575498 362.1212121212121,380.5376755706415 367.1717171717172,380.0022004580954 372.22222222222223,379.3701597878104 377.27272727272725,378.8966066572041 382.32323232323233,378.5616278297937 387.3737373737374,378.05261277120417 392.42424242424244,377.4743105610168 397.47474747474746,377.1848866718617 402.52525252525254,376.59103577017396 407.5757575757576,375.81932966044747 412.62626262626264,375.3648714141398 417.67676767676767,374.57134257950065 422.72727272727275,374.66627143287104 427.77777777777777,373.8154579453359 432.82828282828285,373.8983843000043 437.8787878787879,372.95264195909874 442.92929292929296,371.99898888041236 447.979797979798,371.1140773852011 453.03030303030306,371.55516921249966 458.0808080808081,369.77825383648053 463.13131313131316,370.0281240367313 468.1818181818182,369.0362811894476 473.23232323232327,369.1549422561606 478.2828282828283,367.52833089797787 483.33333333333337,368.16337219293837 488.3838383838384,367.87940398501144 493.4343434343435,365.9347264112256 498.4848484848485,364.89841976193225 503.5353535353536,364.610905361207 508.5858585858586,363.656161146275 513.6363636363637,363.2025212521516 518.6868686868687,362.30642561042254 523.7373737373738,361.1427288044511 528.7878787878788,361.2384760100057 533.8383838383838,360.5968878975714 538.8888888888889,359.93347706022433 543.939393939394,359.8404576952838 548.9898989898991,358.8295199637015 554.040404040404,358.3161403601295 559.0909090909091,356.84747097350265 564.1414141414141,356.93094289629386 569.1919191919192,356.45329800476645 574.2424242424242,355.8018896661214 579.2929292929293,354.65756052851003 584.3434343434344,353.82338686872083 589.3939393939395,353.7510990924474 594.4444444444445,353.5628780900751 599.4949494949495,353.0432244530907 604.5454545454545,352.7908991962872 609.5959595959596,351.5109963801555 614.6464646464647,351.007982570917 619.6969696969697,350.83558304410644 624.7474747474748,350.95915422392477 629.7979797979799,349.4981227910174 634.8484848484849,349.295171449329 639.89898989899,349.36200354437426 644.9494949494949,348.1361119724015 650,347.54662561569637 "/><text class="poloto_text" alignment-baseline="middle" text-anchor="start" font-size="large" x="675" y="150">brocc_query</text><line class="poloto1stroke" stroke="black" x1="680" x2="730" y1="131.25" y2="131.25"/><polyline class="poloto1stroke" fill="none" stroke="black" points="150,400 155.05050505050505,399.5207184041041 160.1010101010101,398.70318457206093 165.15151515151516,398.1090608863118 170.2020202020202,397.23478796949547 175.25252525252526,396.3078677288272 180.3030303030303,395.2974755653677 185.35353535353536,394.2628056204428 190.40404040404042,393.194856020026 195.45454545454547,393.23768311766725 200.50505050505052,392.45615678173 205.55555555555554,391.3224662225136 210.60606060606062,390.51884437760225 215.65656565656565,389.432618245071 220.70707070707073,388.51715493498193 225.75757575757575,387.68898252454375 230.80808080808083,386.5722045771347 235.85858585858585,385.25656704895835 240.90909090909093,384.0574083150038 245.95959595959596,383.12721466559856 251.010101010101,382.282129643353 256.06060606060606,380.7807261693571 261.1111111111111,379.58211300352525 266.16161616161617,378.7362096290955 271.21212121212125,377.19907144305495 276.26262626262627,376.2819714285974 281.3131313131313,375.0001591240358 286.3636363636364,373.8244598193624 291.41414141414145,372.47199644289583 296.4646464646465,371.5202528526393 301.5151515151515,370.00957472055546 306.5656565656566,368.8030508169428 311.61616161616166,367.6107116845234 316.6666666666667,366.4238282333322 321.7171717171717,365.29559335534395 326.7676767676768,368.5880969765524 331.81818181818187,368.1551886710961 336.8686868686869,366.62787071126627 341.9191919191919,365.44698850942603 346.969696969697,365.16683927835885 352.020202020202,363.55550382761504 357.07070707070704,362.37025708079227 362.1212121212121,361.45124757790484 367.1717171717172,360.4143953604887 372.22222222222223,359.21114486561294 377.27272727272725,358.0763631701509 382.32323232323233,357.19908962865907 387.3737373737374,356.08040219282015 392.42424242424244,354.9491666901564 397.47474747474746,354.0877146242263 402.52525252525254,352.838090838911 407.5757575757576,351.49435655240956 412.62626262626264,350.41549558953636 417.67676767676767,348.96073819004135 422.72727272727275,348.50355210311966 427.77777777777777,347.0853477678535 432.82828282828285,346.50349936486776 437.8787878787879,344.79096102734115 442.92929292929296,343.18644517813254 447.979797979798,341.58656665796786 453.03030303030306,341.3765229306828 458.0808080808081,339.013121822634 463.13131313131316,338.5633009053703 468.1818181818182,336.9195041513188 473.23232323232327,336.4254922161068 478.2828282828283,334.13437888433134 483.33333333333337,334.2486754060618 488.3838383838384,333.1534473995041 493.4343434343435,330.48998382390516 498.4848484848485,330.3061273665154 503.5353535353536,329.18116589726407 508.5858585858586,327.63775367781113 513.6363636363637,326.56516674835035 518.6868686868687,325.11941122288187 523.7373737373738,323.20310319148257 528.7878787878788,322.76610312510513 533.8383838383838,321.37490441191846 538.8888888888889,320.0317156935398 543.939393939394,319.24173305169893 548.9898989898991,317.4413582463986 554.040404040404,316.1742762811531 559.0909090909091,313.97863737087084 564.1414141414141,313.4169749884294 569.1919191919192,312.3342950486965 574.2424242424242,310.89945088568436 579.2929292929293,309.2441972010537 584.3434343434344,307.5428430100448 589.3939393939395,306.8112361573455 594.4444444444445,305.85349131773796 599.4949494949495,304.7402595631272 604.5454545454545,303.6804934845527 609.5959595959596,301.61906433248373 614.6464646464647,300.397810089555 619.6969696969697,299.28048657402314 624.7474747474748,298.75619560799475 629.7979797979799,296.59056294446754 634.8484848484849,295.5733511794728 639.89898989899,294.9770452212324 644.9494949494949,293.07219412041235 650,291.6433512067512 "/><text class="poloto_text" alignment-baseline="middle" text-anchor="start" font-size="large" x="675" y="200">nosort_constr</text><line class="poloto2stroke" stroke="black" x1="680" x2="730" y1="181.25" y2="181.25"/><polyline class="poloto2stroke" fill="none" stroke="black" points="150,400 155.05050505050505,399.9678114807537 160.1010101010101,399.81450683824175 165.15151515151516,399.4997140313756 170.2020202020202,399.3406809235741 175.25252525252526,398.9227757414953 180.3030303030303,398.70782190110486 185.35353535353536,398.4415846571695 190.40404040404042,398.2260852486563 195.45454545454547,397.5032074859221 200.50505050505052,397.37199835238425 205.55555555555554,396.86380164597904 210.60606060606062,396.7282279674587 215.65656565656565,396.38479283414455 220.70707070707073,396.1051891712002 225.75757575757575,396.01789827154926 230.80808080808083,395.6889206934898 235.85858585858585,395.1681759202598 240.90909090909093,394.05167075691213 245.95959595959596,393.7436975515812 251.010101010101,393.6018498396484 256.06060606060606,392.97553763465305 261.1111111111111,392.63592147819867 266.16161616161617,392.5063490490293 271.21212121212125,391.7608302091981 276.26262626262627,391.7848352066021 281.3131313131313,391.3014618497851 286.3636363636364,390.95802671647095 291.41414141414145,390.31616581997525 296.4646464646465,390.42937120546003 301.5151515151515,389.8027862164032 306.5656565656566,389.75368508534956 311.61616161616166,389.26021871826043 316.6666666666667,388.96888534067546 321.7171717171717,388.7700257599082 326.7676767676768,386.1559360994243 331.81818181818187,386.37852789353417 336.8686868686869,385.48597844460346 341.9191919191919,384.954322308917 346.969696969697,385.31548840622276 352.020202020202,384.31546203709684 357.07070707070704,383.84300004273615 362.1212121212121,383.71151812513693 367.1717171717172,383.259514935382 372.22222222222223,382.79114470194247 377.27272727272725,382.34732503402984 382.32323232323233,382.1443736923414 387.3737373737374,381.75892981357026 392.42424242424244,381.1937212383305 397.47474747474746,381.10261136181987 402.52525252525254,380.6380601052401 407.5757575757576,379.94464302113806 412.62626262626264,379.6437622014038 417.67676767676767,378.93697869829265 422.72727272727275,379.15738821991124 427.77777777777777,378.39168335953576 432.82828282828285,378.6437358322778 437.8787878787879,377.7637344501719 442.92929292929296,376.9808441939276 447.979797979798,376.15048951099817 453.03030303030306,376.8245389267402 458.0808080808081,375.1218208154243 463.13131313131316,375.4919887867565 468.1818181818182,374.5694330910708 473.23232323232327,374.95078520892076 478.2828282828283,373.360181346844 483.33333333333337,374.1291596159564 488.3838383838384,373.94612151075086 493.4343434343435,372.1798447131266 498.4848484848485,369.60912771840685 503.5353535353536,369.44518449749995 508.5858585858586,368.6183760073688 513.6363636363637,368.2162923008517 518.6868686868687,367.43558431709874 523.7373737373738,366.36818028480474 528.7878787878788,366.6586953102055 533.8383838383838,366.0034679947007 538.8888888888889,365.5588299746038 543.939393939394,365.59320076634134 548.9898989898991,364.6946500680596 554.040404040404,364.17799705575067 559.0909090909091,362.8271703836526 564.1414141414141,363.0863152419913 569.1919191919192,362.80207425000293 574.2424242424242,362.0802876235143 579.2929292929293,361.01861205650994 584.3434343434344,360.3650214453736 589.3939393939395,360.30664565623204 594.4444444444445,360.2518160598888 599.4949494949495,359.8955600756885 604.5454545454545,359.73980037662386 609.5959595959596,358.58865163747726 614.6464646464647,358.1633812857404 619.6969696969697,358.0477208437029 624.7474747474748,358.3401453575335 629.7979797979799,356.93721692970627 634.8484848484849,356.73644786050914 639.89898989899,357.09488611720076 644.9494949494949,355.87799641925454 650,355.49337089266766 "/><text class="poloto_text" alignment-baseline="middle" text-anchor="start" font-size="large" x="675" y="250">nosort_query</text><line class="poloto3stroke" stroke="black" x1="680" x2="730" y1="231.25" y2="231.25"/><polyline class="poloto3stroke" fill="none" stroke="black" points="150,400 155.05050505050505,398.99288124527743 160.1010101010101,397.30953080232155 165.15151515151516,395.7792122178163 170.2020202020202,393.27123555722056 175.25252525252526,392.40678286661495 180.3030303030303,389.80033115985054 185.35353535353536,386.8261665383066 190.40404040404042,383.65505182442524 195.45454545454547,384.6681718284988 200.50505050505052,381.94687803188117 205.55555555555554,379.00244687303086 210.60606060606062,376.3741724413537 215.65656565656565,372.7365969824627 220.70707070707073,369.45527750777205 225.75757575757575,366.05120520544733 230.80808080808083,362.23822959507027 235.85858585858585,358.200479918092 240.90909090909093,364.61199649745265 245.95959595959596,361.26902782488355 251.010101010101,358.4080685888244 256.06060606060606,354.88533521978667 261.1111111111111,351.9291743462957 266.16161616161617,348.7220521363084 271.21212121212125,345.0427407160218 276.26262626262627,341.5969324523014 281.3131313131313,337.67784384203617 286.3636363636364,334.1111922391116 291.41414141414145,330.15936954147725 296.4646464646465,325.5446815746187 301.5151515151515,321.5524868358958 306.5656565656566,317.7340555442906 311.61616161616166,313.9439937950719 316.6666666666667,309.62227591016676 321.7171717171717,304.96203300505283 326.7676767676768,319.0295070519226 331.81818181818187,317.1554805500418 336.8686868686869,313.99418606237117 341.9191919191919,309.3565842343542 346.969696969697,306.8349683706881 352.020202020202,302.1149857561256 357.07070707070704,297.9563927399431 362.1212121212121,294.3417311422105 367.1717171717172,292.113903712682 372.22222222222223,288.0016839869391 377.27272727272725,282.77977869938377 382.32323232323233,279.9632832653343 387.3737373737374,276.41927273950665 392.42424242424244,271.44778322032494 397.47474747474746,268.0366185324035 402.52525252525254,263.70017030818235 407.5757575757576,259.4169149759359 412.62626262626264,255.3682539365013 417.67676767676767,250.11825189062085 422.72727272727275,247.5546272814977 427.77777777777777,242.2563424567478 432.82828282828285,238.95101798465316 437.8787878787879,234.94982137190377 442.92929292929296,228.72543465866983 447.979797979798,222.9421397727345 453.03030303030306,220.23339404294165 458.0808080808081,215.12605806117818 463.13131313131316,209.78876511564678 468.1818181818182,204.4757499515808 473.23232323232327,202.40859233422228 478.2828282828283,196.12692096809243 483.33333333333337,192.80823007698874 488.3838383838384,187.92130361684386 493.4343434343435,179.52364628636323 498.4848484848485,224.73542219243822 503.5353535353536,220.77623432514585 508.5858585858586,215.88794394469392 513.6363636363637,212.75065445442732 518.6868686868687,209.8310466451652 523.7373737373738,205.2567307193952 528.7878787878788,202.28611229064958 533.8383838383838,198.010767696184 538.8888888888889,194.94958495905055 543.939393939394,190.53102873234516 548.9898989898991,186.0950143257096 554.040404040404,181.5179705593255 559.0909090909091,176.62067830484708 564.1414141414141,172.8371633731022 569.1919191919192,169.91428215510317 574.2424242424242,164.5737158008349 579.2929292929293,159.59895287291624 584.3434343434344,157.1553532508131 589.3939393939395,152.14894737177102 594.4444444444445,146.57487786093648 599.4949494949495,144.97499934077183 604.5454545454545,140.68601554323578 609.5959595959596,134.55082921808264 614.6464646464647,129.54415055497913 619.6969696969697,126.07870183883733 624.7474747474748,122.44385422056041 629.7979797979799,116.98244452708786 634.8484848484849,113.88716378227826 639.89898989899,109.55862629583794 644.9494949494949,104.10867353294458 650,99.99999999999994 "/><text class="poloto_text" alignment-baseline="start" text-anchor="middle" font-size="x-large" x="400" y="37.5">Complexity of construction vs query with abspiral(x,2.1)</text><text class="poloto_text" alignment-baseline="start" text-anchor="middle" font-size="x-large" x="400" y="481.25">Number of Elements</text><text class="poloto_text" alignment-baseline="start" text-anchor="middle" font-size="x-large" transform="rotate(-90,37.5,250)" x="37.5" y="250">Number of Comparisons</text><path stroke="black" fill="none" class="poloto_axis_lines" d=" M 150 100 L 150 400 L 650 400"/></svg>