<svg class="poloto" width="800" height="500" viewBox="0 0 800 500" xmlns="http://www.w3.org/2000/svg" ><rect class="poloto_background" fill="white" x="0" y="0" width="800" height="500" /><style><style>.poloto {
            font-family: "Arial";
            stroke-width:2;
            }
            .poloto_text{fill: var(--poloto_fg_color,black);  }
            .poloto_axis_lines{stroke: var(--poloto_fg_color,black);stoke-width:3;fill:none}
            .poloto_background{fill: var(--poloto_bg_color,aliceblue); }
            .poloto0stroke{stroke:  var(--poloto_color0,blue); }
            .poloto1stroke{stroke:  var(--poloto_color1,red); }
            .poloto2stroke{stroke:  var(--poloto_color2,green); }
            .poloto3stroke{stroke:  var(--poloto_color3,gold); }
            .poloto4stroke{stroke:  var(--poloto_color4,aqua); }
            .poloto5stroke{stroke:  var(--poloto_color5,brown); }
            .poloto6stroke{stroke:  var(--poloto_color6,lime); }
            .poloto7stroke{stroke:  var(--poloto_color7,chocolate); }
            .poloto0fill{fill:var(--poloto_color0,blue);}
            .poloto1fill{fill:var(--poloto_color1,red);}
            .poloto2fill{fill:var(--poloto_color2,green);}
            .poloto3fill{fill:var(--poloto_color3,gold);}
            .poloto4fill{fill:var(--poloto_color4,aqua);}
            .poloto5fill{fill:var(--poloto_color5,brown);}
            .poloto6fill{fill:var(--poloto_color6,lime);}
            .poloto7fill{fill:var(--poloto_color7,chocolate);}</style></style><line class="poloto_axis_lines" stroke="black" x1="150" x2="150" y1="400" y2="405" /><text class="poloto_text" alignment-baseline="start" text-anchor="middle" x="150" y="430" >0</text><line class="poloto_axis_lines" stroke="black" x1="234.17508" x2="234.17508" y1="400" y2="405" /><text class="poloto_text" alignment-baseline="start" text-anchor="middle" x="234.17508" y="430" >1000</text><line class="poloto_axis_lines" stroke="black" x1="318.35016" x2="318.35016" y1="400" y2="405" /><text class="poloto_text" alignment-baseline="start" text-anchor="middle" x="318.35016" y="430" >2000</text><line class="poloto_axis_lines" stroke="black" x1="402.52527" x2="402.52527" y1="400" y2="405" /><text class="poloto_text" alignment-baseline="start" text-anchor="middle" x="402.52527" y="430" >3000</text><line class="poloto_axis_lines" stroke="black" x1="486.70035" x2="486.70035" y1="400" y2="405" /><text class="poloto_text" alignment-baseline="start" text-anchor="middle" x="486.70035" y="430" >4000</text><line class="poloto_axis_lines" stroke="black" x1="570.8754" x2="570.8754" y1="400" y2="405" /><text class="poloto_text" alignment-baseline="start" text-anchor="middle" x="570.8754" y="430" >5000</text><line class="poloto_axis_lines" stroke="black" x1="150" x2="144" y1="400" y2="400" /><text class="poloto_text" alignment-baseline="middle" text-anchor="end" x="135" y="400" >0</text><line class="poloto_axis_lines" stroke="black" x1="150" x2="144" y1="356.8539" y2="356.8539" /><text class="poloto_text" alignment-baseline="middle" text-anchor="end" x="135" y="356.8539" >100000</text><line class="poloto_axis_lines" stroke="black" x1="150" x2="144" y1="313.7078" y2="313.7078" /><text class="poloto_text" alignment-baseline="middle" text-anchor="end" x="135" y="313.7078" >200000</text><line class="poloto_axis_lines" stroke="black" x1="150" x2="144" y1="270.5617" y2="270.5617" /><text class="poloto_text" alignment-baseline="middle" text-anchor="end" x="135" y="270.5617" >300000</text><line class="poloto_axis_lines" stroke="black" x1="150" x2="144" y1="227.41559" y2="227.41559" /><text class="poloto_text" alignment-baseline="middle" text-anchor="end" x="135" y="227.41559" >400000</text><line class="poloto_axis_lines" stroke="black" x1="150" x2="144" y1="184.2695" y2="184.2695" /><text class="poloto_text" alignment-baseline="middle" text-anchor="end" x="135" y="184.2695" >500000</text><line class="poloto_axis_lines" stroke="black" x1="150" x2="144" y1="141.12341" y2="141.12341" /><text class="poloto_text" alignment-baseline="middle" text-anchor="end" x="135" y="141.12341" >600000</text><text class="poloto_text" alignment-baseline="middle" text-anchor="start" font-size="large" x="675" y="100" >brocc_constr</text><line class="poloto0stroke" stroke="black" x1="680" x2="730" y1="81.25" y2="81.25" /><polyline class="poloto0stroke" fill="none" stroke="black"  points="150,400 155.0505,399.78946 160.10101,399.38086 165.15152,398.7285 170.20203,398.35095 175.25253,397.57086 180.30304,397.00436 185.35355,396.29245 190.40404,395.84286 195.45454,394.33923 200.50505,394.27148 205.55556,393.08066 210.60606,392.43564 215.65657,391.80527 220.70708,390.85175 225.75757,390.96692 230.80807,389.93747 235.85858,388.86917 240.90909,387.30167 245.9596,387.00827 251.0101,385.56763 256.0606,385.02182 261.1111,383.76627 266.16162,383.62476 271.21213,383.32663 276.26263,382.76703 281.31314,381.8506 286.36365,380.60065 291.41415,379.36407 296.46466,378.83124 301.51514,377.59424 306.56567,376.97034 311.61615,375.43347 316.6667,376.21356 321.71716,374.49203 326.7677,372.90683 331.81818,370.13858 336.8687,370.63736 341.9192,369.68124 346.96973,367.54895 352.0202,368.3394 357.0707,366.64935 362.12122,365.8395 367.17172,364.77078 372.22223,364.60855 377.27274,363.80386 382.32324,362.63892 387.37375,359.7736 392.42426,361.88733 397.47476,359.53415 402.52527,356.70505 407.57578,357.57745 412.62628,357.82382 417.6768,356.28134 422.7273,355.35974 427.7778,354.55334 432.8283,355.47495 437.87878,352.60703 442.9293,351.5288 447.9798,351.89124 453.0303,349.90912 458.0808,350.2793 463.13132,348.4706 468.18182,344.71692 473.23233,345.53583 478.28284,347.67285 483.33334,345.8072 488.38385,342.73434 493.43436,343.7677 498.48486,335.79343 503.53537,336.6188 508.58588,335.1454 513.63635,335.72827 518.6869,333.67194 523.7374,332.73956 528.7879,329.66064 533.8384,332.75034 538.8889,330.23706 543.93945,327.00757 548.9899,328.7533 554.0404,322.83063 559.09094,322.4889 564.1414,327.32556 569.1919,324.6626 574.24243,322.40002 579.29297,324.29672 584.34344,321.868 589.3939,318.8659 594.44446,316.9843 599.495,317.92273 604.5455,319.61322 609.59595,316.1119 614.6465,315.5592 619.697,310.41272 624.7475,313.4239 629.798,314.28897 634.8485,313.32034 639.89905,307.71783 644.9495,307.21 650,309.11188 "/><text class="poloto_text" alignment-baseline="middle" text-anchor="start" font-size="large" x="675" y="150" >brocc_query</text><line class="poloto1stroke" stroke="black" x1="680" x2="730" y1="131.25" y2="131.25" /><polyline class="poloto1stroke" fill="none" stroke="black"  points="150,400 155.0505,399.5996 160.10101,398.79623 165.15152,397.99887 170.20203,397.22958 175.25253,396.18115 180.30304,395.1741 185.35355,393.97464 190.40404,392.91974 195.45454,391.87042 200.50505,391.22754 205.55556,389.62982 210.60606,388.62582 215.65657,387.5614 220.70708,386.1376 225.75757,385.81702 230.80807,384.25815 235.85858,382.84253 240.90909,381.08777 245.9596,380.33917 251.0101,378.6194 256.0606,377.5567 261.1111,375.89685 266.16162,375.2065 271.21213,374.38202 276.26263,373.21057 281.31314,371.74792 286.36365,369.9207 291.41415,368.20953 296.46466,366.99365 301.51514,365.10516 306.56567,364.01056 311.61615,362.0914 316.6667,362.09616 321.71716,359.91425 326.7677,361.91666 331.81818,358.48828 336.8687,358.64877 341.9192,357.45795 346.96973,355.02365 352.0202,355.38995 357.0707,353.11658 362.12122,351.9607 367.17172,350.5563 372.22223,350.0105 377.27274,348.71826 382.32324,347.06836 387.37375,344.1327 392.42426,345.54358 397.47476,342.9958 402.52527,339.54282 407.57578,339.96307 412.62628,339.784 417.6768,337.8748 422.7273,336.1714 427.7778,334.98703 432.8283,335.33563 437.87878,332.12515 442.9293,330.53995 447.9798,330.29532 453.0303,328.0064 458.0808,327.6345 463.13132,325.5639 468.18182,321.17035 473.23233,321.49957 478.28284,322.80472 483.33334,320.69403 488.38385,317.0171 493.43436,317.9991 498.48486,310.6164 503.53537,311.05692 508.58588,309.2029 513.63635,309.6568 518.6869,306.867 523.7374,305.49927 528.7879,301.81372 533.8384,304.46936 538.8889,301.67566 543.93945,297.86584 548.9899,299.06012 554.0404,292.27798 559.09094,291.76282 564.1414,296.14172 569.1919,292.8583 574.24243,289.86526 579.29297,291.4289 584.34344,288.45224 589.3939,285.1753 594.44446,282.75348 599.495,282.68747 604.5455,284.37234 609.59595,280.30194 614.6465,279.56802 619.697,273.43954 624.7475,275.94763 629.798,276.323 634.8485,274.73438 639.89905,268.32068 644.9495,267.8698 650,268.90448 "/><text class="poloto_text" alignment-baseline="middle" text-anchor="start" font-size="large" x="675" y="200" >nosort_constr</text><line class="poloto2stroke" stroke="black" x1="680" x2="730" y1="181.25" y2="181.25" /><polyline class="poloto2stroke" fill="none" stroke="black"  points="150,400 155.0505,399.9491 160.10101,399.67166 165.15152,399.11118 170.20203,398.92953 175.25253,398.14127 180.30304,397.79395 185.35355,397.25546 190.40404,397.0251 195.45454,395.32513 200.50505,395.4481 205.55556,394.41257 210.60606,393.97897 215.65657,393.45734 220.70708,392.83344 225.75757,393.12424 230.80807,392.26303 235.85858,391.44196 240.90909,389.31012 245.9596,389.21994 251.0101,387.9562 256.0606,387.48764 261.1111,386.49225 266.16162,386.5958 271.21213,386.38696 276.26263,385.9607 281.31314,385.1901 286.36365,384.20636 291.41415,383.19028 296.46466,382.87015 301.51514,381.7613 306.56567,381.39368 311.61615,380.10233 316.6667,381.0429 321.71716,379.5492 326.7677,376.67694 331.81818,374.1831 336.8687,374.76556 341.9192,374.10242 346.96973,372.06506 352.0202,373.02982 357.0707,371.45325 362.12122,370.9109 367.17172,369.93408 372.22223,369.85684 377.27274,369.32312 382.32324,368.24103 387.37375,365.84125 392.42426,368.01752 397.47476,365.75235 402.52527,363.06824 407.57578,364.19693 412.62628,364.54642 417.6768,363.2654 422.7273,362.66095 427.7778,361.82648 432.8283,363.05743 437.87878,360.31595 442.9293,359.42023 447.9798,359.95956 453.0303,358.48224 458.0808,358.9521 463.13132,357.24567 468.18182,353.67834 473.23233,354.94812 478.28284,357.0899 483.33334,355.33948 488.38385,352.73087 493.43436,353.76248 498.48486,343.2715 503.53537,344.2246 508.58588,342.91296 513.63635,343.73575 518.6869,341.90982 523.7374,341.05423 528.7879,338.21695 533.8384,341.38516 538.8889,339.00177 543.93945,336.11444 548.9899,338.0573 554.0404,332.24036 559.09094,332.0108 564.1414,337.14218 569.1919,334.62372 574.24243,332.3387 579.29297,334.60345 584.34344,332.233 589.3939,329.5023 594.44446,327.7182 599.495,328.81024 604.5455,330.62885 609.59595,327.3959 614.6465,327.005 619.697,322.1722 624.7475,325.22305 629.798,326.1602 634.8485,325.3482 639.89905,320.33893 644.9495,319.6145 650,321.695 "/><text class="poloto_text" alignment-baseline="middle" text-anchor="start" font-size="large" x="675" y="250" >nosort_query</text><line class="poloto3stroke" stroke="black" x1="680" x2="730" y1="231.25" y2="231.25" /><polyline class="poloto3stroke" fill="none" stroke="black"  points="150,400 155.0505,398.69614 160.10101,396.49136 165.15152,395.41055 170.20203,392.5297 175.25253,392.43866 180.30304,389.14014 185.35355,385.76697 190.40404,382.575 195.45454,384.25082 200.50505,381.62192 205.55556,377.7983 210.60606,375.32043 215.65657,371.12146 220.70708,368.05807 225.75757,363.51608 230.80807,359.23773 235.85858,356.23865 240.90909,363.7232 245.9596,359.2442 251.0101,356.9842 256.0606,353.63004 261.1111,348.83865 266.16162,347.10547 271.21213,342.94574 276.26263,339.28265 281.31314,334.52667 286.36365,328.85596 291.41415,326.6913 296.46466,321.38306 301.51514,315.5566 306.56567,311.90643 311.61615,308.39264 316.6667,303.38855 321.71716,297.87576 326.7677,320.27335 331.81818,316.04028 336.8687,312.17828 341.9192,310.2449 346.96973,305.47076 352.0202,302.90143 357.0707,299.357 362.12122,294.57208 367.17172,290.74457 372.22223,287.81152 377.27274,281.86728 382.32324,276.235 387.37375,275.3574 392.42426,270.6523 397.47476,267.10828 402.52527,259.257 407.57578,259.4231 412.62628,255.49638 417.6768,250.68515 422.7273,244.13947 427.7778,239.8926 432.8283,236.44997 437.87878,230.55362 442.9293,224.64691 447.9798,224.83849 453.0303,217.73923 458.0808,215.40588 463.13132,206.93329 468.18182,202.52203 473.23233,197.45279 478.28284,191.3735 483.33334,189.51132 488.38385,179.67358 493.43436,180.86916 498.48486,221.86226 503.53537,223.51001 508.58588,218.00113 513.63635,215.79938 518.6869,209.47847 523.7374,206.34865 528.7879,198.34247 533.8384,199.27399 538.8889,195.52415 543.93945,190.15506 548.9899,185.68124 554.0404,180.18529 559.09094,173.60335 564.1414,180.06836 569.1919,171.64236 574.24243,162.9713 579.29297,160.92314 584.34344,156.37296 589.3939,152.50966 594.44446,147.74677 599.495,142.27411 604.5455,142.97134 609.59595,137.49438 614.6465,131.61356 619.697,126.37564 624.7475,120.99921 629.798,117.31064 634.8485,113.27603 639.89905,104.36896 644.9495,102.0654 650,100 "/><text class="poloto_text" alignment-baseline="start" text-anchor="middle" font-size="x-large" x="400" y="37.5" >Complexity of construction vs query with abspiral(x,4.0)</text><text class="poloto_text" alignment-baseline="start" text-anchor="middle" font-size="x-large" x="400" y="481.25" >Number of Elements</text><text class="poloto_text" alignment-baseline="start" text-anchor="middle" font-size="x-large" transform="rotate(-90,37.5,250)" x="37.5" y="250" >Number of Comparisons</text><path stroke="black" fill="none" class="poloto_axis_lines"  d="M 150 100 L 150 400 L 650 400 "/></svg>