<svg class="poloto" width="800" height="500" viewBox="0 0 800 500" xmlns="http://www.w3.org/2000/svg" ><style><style>.poloto {
            font-family: "Arial";
            stroke-width:2;
            }
            .poloto_text{fill: var(--poloto_fg_color,black);  }
            .poloto_axis_lines{stroke: var(--poloto_fg_color,black);stoke-width:3;fill:none}
            .poloto_background{fill: var(--poloto_bg_color,aliceblue); }
            .poloto0stroke{stroke:  var(--poloto_color0,blue); }
            .poloto1stroke{stroke:  var(--poloto_color1,red); }
            .poloto2stroke{stroke:  var(--poloto_color2,green); }
            .poloto3stroke{stroke:  var(--poloto_color3,gold); }
            .poloto4stroke{stroke:  var(--poloto_color4,aqua); }
            .poloto5stroke{stroke:  var(--poloto_color5,brown); }
            .poloto6stroke{stroke:  var(--poloto_color6,lime); }
            .poloto7stroke{stroke:  var(--poloto_color7,chocolate); }
            .poloto0fill{fill:var(--poloto_color0,blue);}
            .poloto1fill{fill:var(--poloto_color1,red);}
            .poloto2fill{fill:var(--poloto_color2,green);}
            .poloto3fill{fill:var(--poloto_color3,gold);}
            .poloto4fill{fill:var(--poloto_color4,aqua);}
            .poloto5fill{fill:var(--poloto_color5,brown);}
            .poloto6fill{fill:var(--poloto_color6,lime);}
            .poloto7fill{fill:var(--poloto_color7,chocolate);}</style></style><rect class="poloto_background" fill="white" x="0" y="0" width="800" height="500" /><line class="poloto_axis_lines" stroke="black" x1="150" x2="150" y1="400" y2="405" /><text class="poloto_text" alignment-baseline="start" text-anchor="middle" x="150" y="430" >0</text><line class="poloto_axis_lines" stroke="black" x1="276.26262626262627" x2="276.26262626262627" y1="400" y2="405" /><text class="poloto_text" alignment-baseline="start" text-anchor="middle" x="276.26262626262627" y="430" >5000</text><line class="poloto_axis_lines" stroke="black" x1="402.52525252525254" x2="402.52525252525254" y1="400" y2="405" /><text class="poloto_text" alignment-baseline="start" text-anchor="middle" x="402.52525252525254" y="430" >10000</text><line class="poloto_axis_lines" stroke="black" x1="528.7878787878788" x2="528.7878787878788" y1="400" y2="405" /><text class="poloto_text" alignment-baseline="start" text-anchor="middle" x="528.7878787878788" y="430" >15000</text><line class="poloto_axis_lines" stroke="black" x1="150" x2="144" y1="400" y2="400" /><text class="poloto_text" alignment-baseline="middle" text-anchor="end" x="135" y="400" >0e0</text><line class="poloto_axis_lines" stroke="black" x1="150" x2="144" y1="352.0901242255169" y2="352.0901242255169" /><text class="poloto_text" alignment-baseline="middle" text-anchor="end" x="135" y="352.0901242255169" >0.001</text><line class="poloto_axis_lines" stroke="black" x1="150" x2="144" y1="304.1802484510338" y2="304.1802484510338" /><text class="poloto_text" alignment-baseline="middle" text-anchor="end" x="135" y="304.1802484510338" >0.002</text><line class="poloto_axis_lines" stroke="black" x1="150" x2="144" y1="256.27037267655066" y2="256.27037267655066" /><text class="poloto_text" alignment-baseline="middle" text-anchor="end" x="135" y="256.27037267655066" >0.003</text><line class="poloto_axis_lines" stroke="black" x1="150" x2="144" y1="208.36049690206755" y2="208.36049690206755" /><text class="poloto_text" alignment-baseline="middle" text-anchor="end" x="135" y="208.36049690206755" >0.004</text><line class="poloto_axis_lines" stroke="black" x1="150" x2="144" y1="160.45062112758444" y2="160.45062112758444" /><text class="poloto_text" alignment-baseline="middle" text-anchor="end" x="135" y="160.45062112758444" >0.005</text><line class="poloto_axis_lines" stroke="black" x1="150" x2="144" y1="112.54074535310133" y2="112.54074535310133" /><text class="poloto_text" alignment-baseline="middle" text-anchor="end" x="135" y="112.54074535310133" >0.006</text><text class="poloto_text" alignment-baseline="middle" text-anchor="start" font-size="large" x="675" y="100" >brocc_contr</text><line class="poloto0stroke" stroke="black" x1="680" x2="730" y1="81.25" y2="81.25" /><polyline class="poloto0stroke" fill="none" stroke="black"  points="150,399.82158362261583 155.05050505050505,397.82287942505593 160.1010101010101,396.45874153212907 165.15151515151516,393.8139247498745 170.2020202020202,396.92365896664467 175.25252525252526,396.1501540222656 180.3030303030303,394.8991792559181 185.35353535353534,394.22058377544835 190.40404040404042,393.44851612734254 195.45454545454544,392.47498745160505 200.50505050505052,391.8118189511346 205.55555555555554,389.8423397777972 210.6060606060606,389.05211428677285 215.65656565656565,387.62066301838286 220.7070707070707,387.5296821642871 225.75757575757575,386.29619450259725 230.8080808080808,385.53658342219285 235.85858585858585,384.74420198675864 240.9090909090909,383.50692944488264 245.95959595959596,383.2034203818513 251.010101010101,381.97721502127916 256.06060606060606,379.24237558244437 261.1111111111111,378.1309622842279 266.16161616161617,377.47560309350877 271.2121212121212,376.521238368081 276.26262626262627,375.1226532744723 281.3131313131313,374.41138325872436 286.3636363636364,373.095778069957 291.4141414141414,372.84961712822775 296.4646464646464,371.72435787591246 301.5151515151515,371.3164531935685 306.5656565656566,370.51784347428367 311.6161616161616,369.7849181946856 316.66666666666663,368.2543413933182 321.7171717171717,368.13753711618 326.7676767676768,365.9291313923552 331.8181818181818,365.4336474570955 336.86868686868684,363.7990583154217 341.9191919191919,364.21486812726846 346.969696969697,362.53256074932324 352.020202020202,361.35915207185457 357.07070707070704,357.6913157121875 362.1212121212121,356.1646675206336 367.1717171717172,355.1176930053338 372.22222222222223,353.82412635942273 377.27272727272725,353.6576874509822 382.32323232323233,353.2849965273325 387.37373737373736,350.88744261395004 392.4242424242424,350.51269156564206 397.47474747474746,348.5479554700063 402.52525252525254,348.52146130870295 407.57575757575756,348.1028727240613 412.62626262626264,346.1030665993586 417.67676767676767,345.367075087711 422.72727272727275,343.4696523675384 427.77777777777777,343.12930061003647 432.8282828282828,342.078637034302 437.8787878787879,341.4202595214091 442.9292929292929,340.676937798768 447.979797979798,338.4589021899125 453.030303030303,336.9754687063072 458.0808080808081,336.99947155407017 463.1313131313131,335.66407958660807 468.1818181818182,336.4085511462677 473.2323232323232,333.5741549855735 478.2828282828283,332.82618600498233 483.3333333333333,333.7636385442616 488.3838383838384,331.4037417932379 493.4343434343434,331.77710345514845 498.4848484848485,328.4951811448448 503.5353535353535,328.2858149877103 508.5858585858586,328.41737550658706 513.6363636363636,327.15945380825224 518.6868686868687,325.32536794385345 523.7373737373737,324.0974378277534 528.7878787878788,323.2227472257387 533.8383838383838,321.2655329805995 538.8888888888889,322.600637488807 543.939393939394,319.8921005717724 548.989898989899,320.7448484506824 554.040404040404,319.50733635942754 559.090909090909,316.220718881298 564.1414141414141,309.74938823081123 569.1919191919192,308.4796807030359 574.2424242424242,307.75413354430714 579.2929292929293,305.340577732416 584.3434343434344,305.5320735058866 589.3939393939394,304.6505317916361 594.4444444444445,305.1794089103106 599.4949494949494,301.59713958877677 604.5454545454545,300.6355404721071 609.5959595959596,301.43261707536715 614.6464646464647,299.74647690736003 619.6969696969697,299.12767295185677 624.7474747474747,295.55637499187526 629.7979797979798,294.50686125315946 634.8484848484848,295.13448062580517 639.8989898989898,293.8110661272866 644.9494949494949,293.8306133566026 650,291.5623202880597 "/><text class="poloto_text" alignment-baseline="middle" text-anchor="start" font-size="large" x="675" y="150" >brocc_par_contr</text><line class="poloto1stroke" stroke="black" x1="680" x2="730" y1="131.25" y2="131.25" /><polyline class="poloto1stroke" fill="none" stroke="black"  points="150,399.9299078517419 155.05050505050505,398.3329279625511 160.1010101010101,396.5359722518775 165.15151515151516,393.92009303459076 170.2020202020202,396.93506151707896 175.25252525252526,396.1315649904651 180.3030303030303,394.90248503734654 185.35353535353534,394.2531145810992 190.40404040404042,393.4436772298893 195.45454545454544,392.46497428756817 200.50505050505052,391.89666734113126 205.55555555555554,383.5387416023969 210.6060606060606,382.73615536342277 215.65656565656565,385.01666545028814 220.7070707070707,384.8245468484325 225.75757575757575,383.9264762270398 230.8080808080808,384.0224397082161 235.85858585858585,382.8179375213698 240.9090909090909,380.0859247652057 245.95959595959596,380.4210064363724 251.010101010101,379.2175103569174 256.06060606060606,386.2445476565124 261.1111111111111,383.45753436295917 266.16161616161617,386.64943401668256 271.2121212121212,385.4388472756129 276.26262626262627,380.4979496968662 281.3131313131313,382.76600321603024 286.3636363636364,379.9362543132862 291.4141414141414,381.48513268719944 296.4646464646464,378.5767636783095 301.5151515151515,384.92285791352174 306.5656565656566,384.0711640518787 311.6161616161616,381.9071228730211 316.66666666666663,380.523916849536 321.7171717171717,380.84079276790845 326.7676767676768,379.7931475143478 331.8181818181818,382.02416669953817 336.86868686868684,381.2931099050953 341.9191919191919,379.39161484548185 346.969696969697,375.621538810912 352.020202020202,379.9705577843407 357.07070707070704,380.2379428010381 362.1212121212121,373.95705390675494 367.1717171717172,374.0106171478708 372.22222222222223,361.6545164560043 377.27272727272725,376.01722647493347 382.32323232323233,376.1951637535599 387.37373737373736,371.9063674939797 392.4242424242424,374.40184919344523 397.47474747474746,375.5676881105415 402.52525252525254,375.49136767843277 407.57575757575756,378.35656988924995 412.62626262626264,374.62558831331205 417.67676767676767,372.2593674586861 422.72727272727275,373.95743718576114 427.77777777777777,371.2202022531376 432.8282828282828,373.6723255150272 437.8787878787879,369.2829185163206 442.9292929292929,369.5262048655034 447.979797979798,374.0312663043296 453.030303030303,367.31540364788987 458.0808080808081,370.0357743042408 463.1313131313131,369.105220787073 468.1818181818182,373.86597723290765 473.2323232323232,358.03746456465814 478.2828282828283,368.8579579182009 483.3333333333333,371.0567816668708 488.3838383838384,369.57641441531507 493.4343434343434,366.94050886995456 498.4848484848485,365.67199908907355 503.5353535353535,367.0990426488923 508.5858585858586,366.6001571124526 513.6363636363636,368.8265769495686 518.6868686868687,348.88835513738394 523.7373737373737,364.05657389770954 528.7878787878788,365.02277236245357 533.8383838383838,364.4174789919187 538.8888888888889,367.0155836452932 543.939393939394,364.94688311922675 548.989898989899,362.41762495734025 554.040404040404,363.61197025052235 559.090909090909,355.9092599728798 564.1414141414141,353.60910683694686 569.1919191919192,355.281017771849 574.2424242424242,359.1892179782767 579.2929292929293,360.9865090580807 584.3434343434344,359.7375465065156 589.3939393939394,359.4014108180819 594.4444444444445,361.52123118159966 599.4949494949494,360.1548415245114 604.5454545454545,359.4281924386398 609.5959595959596,359.78076121446423 614.6464646464647,359.31167562075626 619.6969696969697,354.10200363891477 624.7474747474747,348.37341979255984 629.7979797979798,358.2123835211108 634.8484848484848,354.55585389212644 639.8989898989898,353.10384928702916 644.9494949494949,348.88461816707354 650,349.9256039479015 "/><text class="poloto_text" alignment-baseline="middle" text-anchor="start" font-size="large" x="675" y="200" >brocc_par_query</text><line class="poloto2stroke" stroke="black" x1="680" x2="730" y1="181.25" y2="181.25" /><polyline class="poloto2stroke" fill="none" stroke="black"  points="150,399.95012581931877 155.05050505050505,393.8560375306803 160.1010101010101,387.3220886725563 165.15151515151516,379.9204919641564 170.2020202020202,389.2536232242803 175.25252525252526,386.1463324111747 180.3030303030303,383.8514014517012 185.35353535353534,380.75881897045826 190.40404040404042,377.2561279525858 195.45454545454544,374.23914725531506 200.50505050505052,371.08461730469577 205.55555555555554,373.0715356728152 210.6060606060606,363.08170374545034 215.65656565656565,372.00803225037316 220.7070707070707,369.11001177465045 225.75757575757575,366.1998701003568 230.8080808080808,367.57042791663747 235.85858585858585,364.7791027342645 240.9090909090909,362.8272543952121 245.95959595959596,361.1402039395652 251.010101010101,359.5598008673923 256.06060606060606,374.0727562567503 261.1111111111111,376.5723102956566 266.16161616161617,374.24595045767506 271.2121212121212,371.16429142810875 276.26262626262627,368.07247550487824 281.3131313131313,366.644473747544 286.3636363636364,361.1664106416138 291.4141414141414,366.20078038799653 296.4646464646464,363.9111195148582 301.5151515151515,367.2977249037291 306.5656565656566,363.0549221248924 311.6161616161616,359.5564950859639 316.66666666666663,362.75802462471796 321.7171717171717,355.6654945249392 326.7676767676768,340.0297711968063 331.8181818181818,351.716187645097 336.86868686868684,354.09956023525024 341.9191919191919,349.6353659204597 346.969696969697,356.380214051743 352.020202020202,350.6878979813493 357.07070707070704,347.02015744143375 362.1212121212121,353.35892146565254 367.1717171717172,345.3047443393284 372.22222222222223,335.2704041373691 377.27272727272725,345.2223872628721 382.32323232323233,344.6250948415916 387.37373737373736,347.38987795278547 392.4242424242424,348.62101803056237 397.47474747474746,346.0469162249509 402.52525252525254,343.1021836203481 407.57575757575756,346.2761649805318 412.62626262626264,342.28115207920075 417.67676767676767,342.9742642520302 422.72727272727275,342.5261152740357 427.77777777777777,339.8921740335819 432.8282828282828,335.6988621564203 437.8787878787879,336.46182692812897 442.9292929292929,334.30952366883605 447.979797979798,338.7818147526325 453.030303030303,333.8932347582316 458.0808080808081,334.04290521015105 463.1313131313131,338.9178308899563 468.1818181818182,334.3886707836155 473.2323232323232,331.7756661588752 478.2828282828283,317.04654141002277 483.3333333333333,335.10061153762433 488.3838383838384,328.90447521358624 493.4343434343434,323.87987908186153 498.4848484848485,325.0306263880888 503.5353535353535,326.2162041740042 508.5858585858586,326.5672398338038 513.6363636363636,324.821116501327 518.6868686868687,321.0290019239009 523.7373737373737,302.9096306356187 528.7878787878788,309.57997891007267 533.8383838383838,308.03148381516564 538.8888888888889,320.8593051439077 543.939393939394,322.1404152221174 548.989898989899,323.44102461976723 554.040404040404,321.1449438232752 559.090909090909,315.69030864659874 564.1414141414141,317.5492597365244 569.1919191919192,312.99307846024686 574.2424242424242,319.81875055196167 579.2929292929293,317.0305874213899 584.3434343434344,311.2082439481443 589.3939393939394,320.9018491135954 594.4444444444445,320.35452669274775 599.4949494949494,319.04840765938377 604.5454545454545,309.64556753000795 609.5959595959596,313.84898839095797 614.6464646464647,316.19623693477723 619.6969696969697,312.12202900879095 624.7474747474747,311.3809590503113 629.7979797979798,310.5373619576742 634.8484848484848,313.5015938817172 639.8989898989898,312.0355995928938 644.9494949494949,303.1790278670986 650,306.21598698256736 "/><text class="poloto_text" alignment-baseline="middle" text-anchor="start" font-size="large" x="675" y="250" >brocc_query</text><line class="poloto3stroke" stroke="black" x1="680" x2="730" y1="231.25" y2="231.25" /><polyline class="poloto3stroke" fill="none" stroke="black"  points="150,399.95170684521935 155.05050505050505,393.2338798838729 160.1010101010101,387.00320053940135 165.15151515151516,379.2627372796485 170.2020202020202,388.96985303006807 175.25252525252526,385.8593043454098 180.3030303030303,383.65727063506296 185.35353535353534,380.81108864492825 190.40404040404042,377.2811848176159 195.45454545454544,374.2443215218987 200.50505050505052,371.3795025900877 205.55555555555554,369.2997348827174 210.6060606060606,366.6921919838154 215.65656565656565,363.82224669529654 220.7070707070707,360.61228501840617 225.75757575757575,357.33913021536927 230.8080808080808,354.58177313492047 235.85858585858585,351.9002094779468 240.9090909090909,348.38419951460907 245.95959595959596,345.9562707399856 251.010101010101,342.6723841247752 256.06060606060606,340.62088324411184 261.1111111111111,337.5565196797001 266.16161616161617,334.41770416833486 271.2121212121212,330.8663367166755 276.26262626262627,328.35360746193123 281.3131313131313,325.937943615506 286.3636363636364,322.714950452405 291.4141414141414,319.82081067662 296.4646464646464,316.8395228368012 301.5151515151515,313.33022025607187 306.5656565656566,310.8648738684685 311.6161616161616,307.6125119515177 316.66666666666663,304.4348894407752 321.7171717171717,300.33021083379634 326.7676767676768,297.2027978728654 331.8181818181818,293.6072096058662 336.86868686868684,290.6567757260462 341.9191919191919,287.5216013652398 346.969696969697,283.8712042003546 352.020202020202,279.9827907726218 357.07070707070704,279.96429756057285 362.1212121212121,277.64157887315014 367.1717171717172,274.67346624916934 372.22222222222223,271.71119863003304 377.27272727272725,268.93750428194517 382.32323232323233,265.70143172275766 387.37373737373736,262.9554292828674 392.4242424242424,259.90687597746125 397.47474747474746,257.2535791471946 402.52525252525254,254.68786156984373 407.57575757575756,251.40962831997473 412.62626262626264,248.55606820897074 417.67676767676767,245.98067283671338 422.72727272727275,243.4708660843913 427.77777777777777,240.42585810979247 432.8282828282828,237.11298601973854 437.8787878787879,234.45868308208063 442.9292929292929,231.65935695045334 447.979797979798,229.8804632629468 453.030303030303,226.1147470270724 458.0808080808081,223.54505293003223 463.1313131313131,221.14400159571824 468.1818181818182,218.1171993739137 473.2323232323232,215.0804318979481 478.2828282828283,211.29914495244702 483.3333333333333,208.05492771437792 488.3838383838384,205.20414637616884 493.4343434343434,202.4368719514347 498.4848484848485,199.0921397939907 503.5353535353535,195.65268981214058 508.5858585858586,190.82083511065662 513.6363636363636,188.89950536247252 518.6868686868687,185.81420518234737 523.7373737373737,183.13005439208197 528.7878787878788,179.59066440936624 533.8383838383838,176.1618983298138 538.8888888888889,172.46728034958875 543.939393939394,169.87545188994076 548.989898989899,166.82737768329238 554.040404040404,164.51601363642823 559.090909090909,160.4465966980194 564.1414141414141,157.19610326622382 569.1919191919192,155.6345287752303 574.2424242424242,153.0408797403029 579.2929292929293,151.3628842511774 584.3434343434344,147.58772976977545 589.3939393939394,144.3818883422017 594.4444444444445,141.95491776509374 599.4949494949494,138.67711570410665 604.5454545454545,136.85376165188137 609.5959595959596,132.820372940055 614.6464646464647,128.95236911940208 619.6969696969697,126.48012370968718 624.7474747474747,124.519507863368 629.7979797979798,120.53747853837189 634.8484848484848,118.10940603412104 639.8989898989898,115.74970092260043 644.9494949494949,112.17725312560032 650,109.94843779469562 "/><text class="poloto_text" alignment-baseline="middle" text-anchor="start" font-size="large" x="675" y="300" >nosort_contr</text><line class="poloto4stroke" stroke="black" x1="680" x2="730" y1="281.25" y2="281.25" /><polyline class="poloto4stroke" fill="none" stroke="black"  points="150,399.93604031584107 155.05050505050505,399.058235571901 160.1010101010101,397.87601147728986 165.15151515151516,395.96742575606174 170.2020202020202,398.04575616715886 175.25252525252526,397.5792097968669 180.3030303030303,396.34351828089143 185.35353535353534,395.96857559308035 190.40404040404042,395.6348353984353 195.45454545454544,394.9258650567245 200.50505050505052,394.7031799541247 205.55555555555554,392.41212969458894 210.6060606060606,392.24008533068275 215.65656565656565,391.2163471051336 220.7070707070707,391.00127967278195 225.75757575757575,390.5405783073345 230.8080808080808,390.09568720089266 235.85858585858585,389.10548588838566 240.9090909090909,388.79392796622415 245.95959595959596,388.79114919342925 251.010101010101,387.453649191433 256.06060606060606,384.1062340809456 261.1111111111111,383.23619073688104 266.16161616161617,382.6832628605677 271.2121212121212,382.32216612685545 276.26262626262627,381.7197473488671 281.3131313131313,380.8125259412015 286.3636363636364,379.9120119161443 291.4141414141414,380.08482283806285 296.4646464646464,379.2910520162312 301.5151515151515,379.2143003952405 306.5656565656566,378.71009686258986 311.6161616161616,378.17436863167956 316.66666666666663,377.1837361302906 321.7171717171717,377.32104583426025 326.7676767676768,375.1616998232285 331.8181818181818,375.50415961526454 336.86868686868684,374.14208184699595 341.9191919191919,374.7632812962879 346.969696969697,373.42338580050296 352.020202020202,372.5531029070595 357.07070707070704,400 362.1212121212121,400 367.1717171717172,400 372.22222222222223,400 377.27272727272725,400 382.32323232323233,400 387.37373737373736,400 392.4242424242424,400 397.47474747474746,400 402.52525252525254,400 407.57575757575756,400 412.62626262626264,400 417.67676767676767,400 422.72727272727275,400 427.77777777777777,400 432.8282828282828,400 437.8787878787879,400 442.9292929292929,400 447.979797979798,400 453.030303030303,400 458.0808080808081,400 463.1313131313131,400 468.1818181818182,400 473.2323232323232,400 478.2828282828283,400 483.3333333333333,400 488.3838383838384,400 493.4343434343434,400 498.4848484848485,400 503.5353535353535,400 508.5858585858586,400 513.6363636363636,400 518.6868686868687,400 523.7373737373737,400 528.7878787878788,400 "/><text class="poloto_text" alignment-baseline="middle" text-anchor="start" font-size="large" x="675" y="350" >nosort_par_contr</text><line class="poloto5stroke" stroke="black" x1="680" x2="730" y1="331.25" y2="331.25" /><polyline class="poloto5stroke" fill="none" stroke="black"  points="150,399.9378608911205 155.05050505050505,399.1317772312148 160.1010101010101,397.8864079203329 165.15151515151516,396.15595111723434 170.2020202020202,398.03957579318393 175.25252525252526,397.5823239387923 180.3030303030303,396.377821751946 185.35353535353534,395.9737019497882 190.40404040404042,395.63732671197556 195.45454545454544,394.8905554782787 200.50505050505052,394.6758234150575 205.55555555555554,388.0596612101044 210.6060606060606,387.4613626814327 215.65656565656565,387.5819997486328 220.7070707070707,384.40308367124436 225.75757575757575,383.1591037467599 230.8080808080808,383.54544898500535 235.85858585858585,385.1091315105329 240.9090909090909,385.3986987997139 245.95959595959596,383.1699792885607 251.010101010101,382.27425625108094 256.06060606060606,385.6760490705724 261.1111111111111,388.7315493079658 266.16161616161617,386.2179097655818 271.2121212121212,384.8530532245183 276.26262626262627,385.7274084574026 281.3131313131313,382.08410195413205 286.3636363636364,385.37996603828606 291.4141414141414,384.49880760304177 296.4646464646464,386.5662145624623 301.5151515151515,380.8643165169137 306.5656565656566,380.79527838592264 311.6161616161616,385.22627115680154 316.66666666666663,384.5819791473863 321.7171717171717,383.92350581474176 326.7676767676768,382.9798249916118 331.8181818181818,385.281607063321 336.86868686868684,383.3282256082438 341.9191919191919,383.34322139936125 346.969696969697,383.13831086067376 352.020202020202,375.88710325232995 357.07070707070704,380.8235452126296 362.1212121212121,378.583231511539 367.1717171717172,380.27425848687517 372.22222222222223,381.7268859203575 377.27272727272725,376.0387380091562 382.32323232323233,380.57225791419245 387.37373737373736,381.92925723562894 392.4242424242424,383.62574593680336 397.47474747474746,378.55060488613657 402.52525252525254,376.3665373792052 407.57575757575756,382.26639903145394 412.62626262626264,378.5628219044591 417.67676767676767,376.92847231216416 422.72727272727275,377.46769796400594 427.77777777777777,377.52087792611565 432.8282828282828,378.0135351787046 437.8787878787879,379.5804276659091 442.9292929292929,376.39652896144 447.979797979798,378.8459213604105 453.030303030303,365.1351689310205 458.0808080808081,376.46278831963616 463.1313131313131,377.3045169271181 468.1818181818182,370.94256452302443 473.2323232323232,377.5744411672315 478.2828282828283,377.3972225367417 483.3333333333333,375.9818689866119 488.3838383838384,376.1400673964192 493.4343434343434,374.06628842352075 498.4848484848485,376.345552853616 503.5353535353535,376.55501483050205 508.5858585858586,368.17030747120975 513.6363636363636,372.8399872431971 518.6868686868687,365.3430019721302 523.7373737373737,372.45177351979646 528.7878787878788,375.13745742608666 "/><text class="poloto_text" alignment-baseline="middle" text-anchor="start" font-size="large" x="675" y="400" >nosort_par_query</text><line class="poloto6stroke" stroke="black" x1="680" x2="730" y1="381.25" y2="381.25" /><polyline class="poloto6stroke" fill="none" stroke="black"  points="150,399.9668942758398 155.05050505050505,390.41376086615946 160.1010101010101,378.2864298311161 165.15151515151516,369.43555938053805 170.2020202020202,379.4954355462852 175.25252525252526,372.1013606883819 180.3030303030303,369.8878286078492 185.35353535353534,362.929877349121 190.40404040404042,354.9550868869552 195.45454545454544,345.53159760112055 200.50505050505052,338.1138552645847 205.55555555555554,354.6281498946701 210.6060606060606,347.58626053358506 215.65656565656565,339.4457498111153 220.7070707070707,341.04761650763515 225.75757575757575,334.1307240124457 230.8080808080808,327.94642142772386 235.85858585858585,321.4702039699081 240.9090909090909,318.9639904582691 245.95959595959596,314.5876149457732 251.010101010101,309.9764810419823 256.06060606060606,334.287437216104 261.1111111111111,334.85603162179564 266.16161616161617,327.85108077493265 271.2121212121212,326.6480637942354 276.26262626262627,326.75054301851696 281.3131313131313,299.3585985530898 286.3636363636364,315.2894467159936 291.4141414141414,313.83586108499577 296.4646464646464,308.6798002541459 301.5151515151515,301.6907554860401 306.5656565656566,301.6770053516928 311.6161616161616,298.6415314423731 316.66666666666663,294.5379547625371 321.7171717171717,291.1943245322359 326.7676767676768,281.57186553230986 331.8181818181818,290.8083146631209 336.86868686868684,283.63606253005344 341.9191919191919,237.487641248295 346.969696969697,275.78871233744775 352.020202020202,273.21758094413434 357.07070707070704,275.61245190447346 362.1212121212121,273.955057661931 367.1717171717172,215.4550392166288 372.22222222222223,229.89464458617604 377.27272727272725,265.49805430009496 382.32323232323233,265.17317743246826 387.37373737373736,257.92081998710586 392.4242424242424,259.93016017708766 397.47474747474746,250.0051982215215 402.52525252525254,252.7324199901082 407.57575757575756,247.7977506952122 412.62626262626264,235.8510878017144 417.67676767676767,235.16952190894662 422.72727272727275,235.70539386948423 427.77777777777777,234.5732355950574 432.8282828282828,226.58589274543868 437.8787878787879,220.8481581128108 442.9292929292929,229.2208400932837 447.979797979798,215.237240921358 453.030303030303,215.8761670246865 458.0808080808081,209.38926566457303 463.1313131313131,213.82572016129018 468.1818181818182,203.162946118797 473.2323232323232,202.98596703768604 478.2828282828283,169.66852913647077 483.3333333333333,174.28081287728025 488.3838383838384,184.84599450282082 493.4343434343434,173.8375986164905 498.4848484848485,187.5305764819682 503.5353535353535,174.8241108685629 508.5858585858586,172.71703453200115 513.6363636363636,169.20734867226562 518.6868686868687,177.7465653809306 523.7373737373737,157.6575232798079 528.7878787878788,167.11234562439898 "/><text class="poloto_text" alignment-baseline="middle" text-anchor="start" font-size="large" x="675" y="450" >nosort_query</text><line class="poloto7stroke" stroke="black" x1="680" x2="730" y1="431.25" y2="431.25" /><polyline class="poloto7stroke" fill="none" stroke="black"  points="150,399.9686669412435 155.05050505050505,390.2987771643007 160.1010101010101,376.20785987064016 165.15151515151516,364.4920267586238 170.2020202020202,379.93726042067743 175.25252525252526,372.75878000375934 180.3030303030303,369.24310540955196 185.35353535353534,361.9021146940068 190.40404040404042,354.1346302643172 195.45454545454544,345.34819859665583 200.50505050505052,336.2747388632296 205.55555555555554,337.1935544608326 210.6060606060606,330.85608400325975 215.65656565656565,322.95402073251967 220.7070707070707,317.328203569701 225.75757575757575,307.6827478294031 230.8080808080808,300.70141655129703 235.85858585858585,290.940018911625 240.9090909090909,284.50462066796905 245.95959595959596,273.36107102207893 251.010101010101,265.000079051295 256.06060606060606,270.16634468568486 261.1111111111111,259.47108774741656 266.16161616161617,251.19379432961068 271.2121212121212,245.57487618890352 276.26262626262627,233.49329908522478 281.3131313131313,226.2163638735901 286.3636363636364,220.60721934754093 291.4141414141414,209.98502496982874 296.4646464646464,200.9774413155924 301.5151515151515,187.75014744264269 306.5656565656566,181.14749582265807 311.6161616161616,175.72151075169475 316.66666666666663,166.84371495093148 321.7171717171717,156.68270103742447 326.7676767676768,141.1277058499715 331.8181818181818,133.264162119354 336.86868686868684,127.90395730782905 341.9191919191919,119.90952379659569 346.969696969697,107.30395638157148 352.020202020202,100 "/><text class="poloto_text" alignment-baseline="start" text-anchor="middle" font-size="x-large" x="400" y="37.5" >Bench of construction vs query abspiral(x,0.2)</text><text class="poloto_text" alignment-baseline="start" text-anchor="middle" font-size="x-large" x="400" y="481.25" >Number of Elements</text><text class="poloto_text" alignment-baseline="start" text-anchor="middle" font-size="x-large" transform="rotate(-90,37.5,250)" x="37.5" y="250" >Time in Seconds</text><path stroke="black" fill="none" class="poloto_axis_lines"  d="M 150 100 L 150 400 L 650 400 "/></svg>