<svg class="poloto" width="800" height="500" viewBox="0 0 800 500" xmlns="http://www.w3.org/2000/svg"><circle  r="1e5" class="poloto_background" /><text  class="poloto_text poloto_legend_text" x="675" y="100" >contr</text><line  class="poloto_scatter poloto_legend_icon poloto0stroke poloto0legend" stroke="black" x1="685" x2="685" y1="81.25" y2="81.25" /><path  class="poloto_scatter poloto0stroke" d=" M 150.00 398.89 h 0 M 155.05 397.78 h 0 M 160.10 395.82 h 0 M 165.15 394.98 h 0 M 170.20 394.71 h 0 M 175.25 397.73 h 0 M 180.30 397.32 h 0 M 185.35 396.72 h 0 M 190.40 396.36 h 0 M 195.45 395.67 h 0 M 200.51 395.40 h 0 M 205.56 393.85 h 0 M 210.61 393.14 h 0 M 215.66 392.75 h 0 M 220.71 391.87 h 0 M 225.76 391.43 h 0 M 230.81 390.86 h 0 M 235.86 390.11 h 0 M 240.91 389.61 h 0 M 245.96 389.35 h 0 M 251.01 388.35 h 0 M 256.06 388.06 h 0 M 261.11 387.19 h 0 M 266.16 386.45 h 0 M 271.21 386.02 h 0 M 276.26 385.69 h 0 M 281.31 385.38 h 0 M 286.36 384.06 h 0 M 291.41 384.00 h 0 M 296.46 383.69 h 0 M 301.52 382.52 h 0 M 306.57 381.85 h 0 M 311.62 381.32 h 0 M 316.67 381.05 h 0 M 321.72 379.93 h 0 M 326.77 379.11 h 0 M 331.82 378.89 h 0 M 336.87 378.16 h 0 M 341.92 377.23 h 0 M 346.97 376.99 h 0 M 352.02 376.49 h 0 M 357.07 371.32 h 0 M 362.12 370.78 h 0 M 367.17 370.70 h 0 M 372.22 370.17 h 0 M 377.27 369.47 h 0 M 382.32 367.80 h 0 M 387.37 367.82 h 0 M 392.42 357.93 h 0 M 397.47 366.20 h 0 M 402.53 365.92 h 0 M 407.58 364.65 h 0 M 412.63 364.32 h 0 M 417.68 363.45 h 0 M 422.73 363.03 h 0 M 427.78 362.16 h 0 M 432.83 360.40 h 0 M 437.88 359.81 h 0 M 442.93 359.61 h 0 M 447.98 359.17 h 0 M 453.03 358.26 h 0 M 458.08 356.61 h 0 M 463.13 356.25 h 0 M 468.18 356.42 h 0 M 473.23 356.26 h 0 M 478.28 356.17 h 0 M 483.33 353.94 h 0 M 488.38 353.42 h 0 M 493.43 352.66 h 0 M 498.48 351.19 h 0 M 503.54 351.83 h 0 M 508.59 349.65 h 0 M 513.64 347.70 h 0 M 518.69 348.49 h 0 M 523.74 348.28 h 0 M 528.79 347.00 h 0 M 533.84 346.55 h 0 M 538.89 347.37 h 0 M 543.94 346.07 h 0 M 548.99 345.75 h 0 M 554.04 344.23 h 0 M 559.09 342.76 h 0 M 564.14 342.14 h 0 M 569.19 341.54 h 0 M 574.24 340.81 h 0 M 579.29 340.11 h 0 M 584.34 340.06 h 0 M 589.39 338.73 h 0 M 594.44 334.76 h 0 M 599.49 338.27 h 0 M 604.55 336.79 h 0 M 609.60 335.15 h 0 M 614.65 334.29 h 0 M 619.70 335.11 h 0 M 624.75 332.34 h 0 M 629.80 330.78 h 0 M 634.85 332.72 h 0 M 639.90 333.24 h 0 M 644.95 331.10 h 0 M 650.00 330.01 h 0" /><text  class="poloto_text poloto_legend_text" x="675" y="150" >ns_contr</text><line  class="poloto_scatter poloto_legend_icon poloto1stroke poloto1legend" stroke="black" x1="685" x2="685" y1="131.25" y2="131.25" /><path  class="poloto_scatter poloto1stroke" d=" M 150.00 399.96 h 0 M 155.05 399.49 h 0 M 160.10 397.96 h 0 M 165.15 397.21 h 0 M 170.20 395.14 h 0 M 175.25 398.57 h 0 M 180.30 398.24 h 0 M 185.35 397.96 h 0 M 190.40 397.65 h 0 M 195.45 397.40 h 0 M 200.51 397.12 h 0 M 205.56 395.22 h 0 M 210.61 394.60 h 0 M 215.66 394.43 h 0 M 220.71 393.78 h 0 M 225.76 393.55 h 0 M 230.81 393.16 h 0 M 235.86 392.57 h 0 M 240.91 392.34 h 0 M 245.96 391.99 h 0 M 251.01 391.26 h 0 M 256.06 390.97 h 0 M 261.11 390.28 h 0 M 266.16 389.78 h 0 M 271.21 389.52 h 0 M 276.26 389.73 h 0 M 281.31 389.36 h 0 M 286.36 388.40 h 0 M 291.41 388.59 h 0 M 296.46 388.38 h 0 M 301.52 387.23 h 0 M 306.57 387.01 h 0 M 311.62 386.88 h 0 M 316.67 386.61 h 0 M 321.72 385.73 h 0 M 326.77 385.26 h 0 M 331.82 385.24 h 0 M 336.87 384.43 h 0 M 341.92 384.12 h 0 M 346.97 383.79 h 0 M 352.02 383.85 h 0 M 357.07 376.30 h 0 M 362.12 375.80 h 0 M 367.17 375.71 h 0 M 372.22 374.23 h 0 M 377.27 374.29 h 0 M 382.32 372.60 h 0 M 387.37 373.96 h 0 M 392.42 372.73 h 0 M 397.47 365.04 h 0 M 402.53 372.18 h 0 M 407.58 371.47 h 0 M 412.63 370.29 h 0 M 417.68 370.37 h 0 M 422.73 369.73 h 0 M 427.78 369.10 h 0 M 432.83 367.17 h 0 M 437.88 367.41 h 0 M 442.93 366.45 h 0 M 447.98 366.21 h 0 M 453.03 366.06 h 0 M 458.08 364.93 h 0 M 463.13 364.47 h 0 M 468.18 365.04 h 0 M 473.23 364.58 h 0 M 478.28 364.71 h 0 M 483.33 362.21 h 0 M 488.38 362.56 h 0 M 493.43 362.45 h 0 M 498.48 360.42 h 0 M 503.54 361.39 h 0 M 508.59 359.25 h 0 M 513.64 360.10 h 0 M 518.69 357.11 h 0 M 523.74 358.06 h 0 M 528.79 357.49 h 0 M 533.84 358.20 h 0 M 538.89 358.17 h 0 M 543.94 356.76 h 0 M 548.99 356.59 h 0 M 554.04 356.38 h 0 M 559.09 354.11 h 0 M 564.14 354.27 h 0 M 569.19 353.97 h 0 M 574.24 352.02 h 0 M 579.29 353.65 h 0 M 584.34 353.09 h 0 M 589.39 351.86 h 0 M 594.44 348.38 h 0 M 599.49 351.14 h 0 M 604.55 349.63 h 0 M 609.60 349.42 h 0 M 614.65 348.10 h 0 M 619.70 349.51 h 0 M 624.75 346.14 h 0 M 629.80 345.64 h 0 M 634.85 347.03 h 0 M 639.90 347.94 h 0 M 644.95 346.99 h 0 M 650.00 345.01 h 0" /><text  class="poloto_text poloto_legend_text" x="675" y="200" >ns_par_contr</text><line  class="poloto_scatter poloto_legend_icon poloto2stroke poloto2legend" stroke="black" x1="685" x2="685" y1="181.25" y2="181.25" /><path  class="poloto_scatter poloto2stroke" d=" M 150.00 399.97 h 0 M 155.05 399.38 h 0 M 160.10 398.63 h 0 M 165.15 397.23 h 0 M 170.20 396.56 h 0 M 175.25 398.52 h 0 M 180.30 398.23 h 0 M 185.35 397.94 h 0 M 190.40 397.25 h 0 M 195.45 397.36 h 0 M 200.51 397.09 h 0 M 205.56 394.96 h 0 M 210.61 394.50 h 0 M 215.66 394.22 h 0 M 220.71 393.73 h 0 M 225.76 393.36 h 0 M 230.81 392.77 h 0 M 235.86 392.67 h 0 M 240.91 392.05 h 0 M 245.96 391.83 h 0 M 251.01 391.16 h 0 M 256.06 390.81 h 0 M 261.11 390.36 h 0 M 266.16 389.69 h 0 M 271.21 389.28 h 0 M 276.26 389.52 h 0 M 281.31 387.20 h 0 M 286.36 389.86 h 0 M 291.41 390.46 h 0 M 296.46 389.23 h 0 M 301.52 389.46 h 0 M 306.57 389.14 h 0 M 311.62 386.61 h 0 M 316.67 386.77 h 0 M 321.72 386.52 h 0 M 326.77 384.79 h 0 M 331.82 385.13 h 0 M 336.87 384.07 h 0 M 341.92 385.96 h 0 M 346.97 380.90 h 0 M 352.02 386.86 h 0 M 357.07 382.01 h 0 M 362.12 381.74 h 0 M 367.17 381.03 h 0 M 372.22 379.35 h 0 M 377.27 377.78 h 0 M 382.32 378.55 h 0 M 387.37 378.83 h 0 M 392.42 378.41 h 0 M 397.47 373.51 h 0 M 402.53 375.86 h 0 M 407.58 376.04 h 0 M 412.63 379.50 h 0 M 417.68 378.88 h 0 M 422.73 381.85 h 0 M 427.78 377.79 h 0 M 432.83 378.07 h 0 M 437.88 381.64 h 0 M 442.93 381.05 h 0 M 447.98 377.22 h 0 M 453.03 376.74 h 0 M 458.08 376.96 h 0 M 463.13 377.70 h 0 M 468.18 378.69 h 0 M 473.23 379.91 h 0 M 478.28 377.40 h 0 M 483.33 375.35 h 0 M 488.38 377.24 h 0 M 493.43 375.76 h 0 M 498.48 373.85 h 0 M 503.54 374.53 h 0 M 508.59 372.96 h 0 M 513.64 374.94 h 0 M 518.69 376.37 h 0 M 523.74 377.39 h 0 M 528.79 378.22 h 0 M 533.84 378.13 h 0 M 538.89 378.37 h 0 M 543.94 377.01 h 0 M 548.99 377.51 h 0 M 554.04 376.45 h 0 M 559.09 372.87 h 0 M 564.14 373.95 h 0 M 569.19 374.15 h 0 M 574.24 369.28 h 0 M 579.29 376.40 h 0 M 584.34 372.06 h 0 M 589.39 372.05 h 0 M 594.44 369.53 h 0 M 599.49 371.19 h 0 M 604.55 375.19 h 0 M 609.60 372.43 h 0 M 614.65 369.29 h 0 M 619.70 370.30 h 0 M 624.75 369.16 h 0 M 629.80 368.03 h 0 M 634.85 370.17 h 0 M 639.90 370.12 h 0 M 644.95 371.18 h 0 M 650.00 368.84 h 0" /><text  class="poloto_text poloto_legend_text" x="675" y="250" >ns_par_query</text><line  class="poloto_scatter poloto_legend_icon poloto3stroke poloto3legend" stroke="black" x1="685" x2="685" y1="231.25" y2="231.25" /><path  class="poloto_scatter poloto3stroke" d=" M 150.00 399.95 h 0 M 155.05 395.53 h 0 M 160.10 383.72 h 0 M 165.15 385.22 h 0 M 170.20 391.73 h 0 M 175.25 389.29 h 0 M 180.30 386.58 h 0 M 185.35 382.62 h 0 M 190.40 378.42 h 0 M 195.45 374.48 h 0 M 200.51 368.17 h 0 M 205.56 377.93 h 0 M 210.61 377.44 h 0 M 215.66 373.84 h 0 M 220.71 369.98 h 0 M 225.76 369.36 h 0 M 230.81 365.57 h 0 M 235.86 362.01 h 0 M 240.91 360.06 h 0 M 245.96 356.48 h 0 M 251.01 353.39 h 0 M 256.06 349.52 h 0 M 261.11 345.84 h 0 M 266.16 342.64 h 0 M 271.21 337.61 h 0 M 276.26 334.03 h 0 M 281.31 359.46 h 0 M 286.36 343.58 h 0 M 291.41 353.20 h 0 M 296.46 351.43 h 0 M 301.52 348.13 h 0 M 306.57 332.76 h 0 M 311.62 345.26 h 0 M 316.67 341.11 h 0 M 321.72 340.25 h 0 M 326.77 337.34 h 0 M 331.82 329.74 h 0 M 336.87 331.85 h 0 M 341.92 326.58 h 0 M 346.97 304.51 h 0 M 352.02 300.54 h 0 M 357.07 336.31 h 0 M 362.12 335.57 h 0 M 367.17 339.37 h 0 M 372.22 345.31 h 0 M 377.27 343.38 h 0 M 382.32 343.51 h 0 M 387.37 337.52 h 0 M 392.42 321.39 h 0 M 397.47 302.68 h 0 M 402.53 328.33 h 0 M 407.58 326.08 h 0 M 412.63 348.19 h 0 M 417.68 345.21 h 0 M 422.73 345.30 h 0 M 427.78 313.36 h 0 M 432.83 341.68 h 0 M 437.88 338.80 h 0 M 442.93 339.34 h 0 M 447.98 337.56 h 0 M 453.03 335.04 h 0 M 458.08 333.01 h 0 M 463.13 336.42 h 0 M 468.18 332.85 h 0 M 473.23 328.17 h 0 M 478.28 327.77 h 0 M 483.33 326.17 h 0 M 488.38 321.39 h 0 M 493.43 324.54 h 0 M 498.48 321.16 h 0 M 503.54 319.70 h 0 M 508.59 314.52 h 0 M 513.64 316.68 h 0 M 518.69 318.13 h 0 M 523.74 316.20 h 0 M 528.79 314.15 h 0 M 533.84 311.75 h 0 M 538.89 311.51 h 0 M 543.94 311.57 h 0 M 548.99 308.76 h 0 M 554.04 305.33 h 0 M 559.09 306.99 h 0 M 564.14 304.65 h 0 M 569.19 306.55 h 0 M 574.24 269.56 h 0 M 579.29 298.37 h 0 M 584.34 294.43 h 0 M 589.39 294.55 h 0 M 594.44 294.44 h 0 M 599.49 286.26 h 0 M 604.55 291.18 h 0 M 609.60 289.10 h 0 M 614.65 283.25 h 0 M 619.70 282.19 h 0 M 624.75 284.12 h 0 M 629.80 259.46 h 0 M 634.85 280.50 h 0 M 639.90 273.54 h 0 M 644.95 271.06 h 0 M 650.00 276.31 h 0" /><text  class="poloto_text poloto_legend_text" x="675" y="300" >ns_query</text><line  class="poloto_scatter poloto_legend_icon poloto4stroke poloto4legend" stroke="black" x1="685" x2="685" y1="281.25" y2="281.25" /><path  class="poloto_scatter poloto4stroke" d=" M 150.00 399.97 h 0 M 155.05 395.08 h 0 M 160.10 383.16 h 0 M 165.15 384.29 h 0 M 170.20 371.98 h 0 M 175.25 389.30 h 0 M 180.30 385.35 h 0 M 185.35 381.52 h 0 M 190.40 375.92 h 0 M 195.45 372.03 h 0 M 200.51 369.66 h 0 M 205.56 377.84 h 0 M 210.61 376.23 h 0 M 215.66 373.51 h 0 M 220.71 369.96 h 0 M 225.76 367.37 h 0 M 230.81 363.66 h 0 M 235.86 359.50 h 0 M 240.91 358.59 h 0 M 245.96 353.22 h 0 M 251.01 352.45 h 0 M 256.06 347.32 h 0 M 261.11 343.36 h 0 M 266.16 340.58 h 0 M 271.21 337.18 h 0 M 276.26 332.22 h 0 M 281.31 327.06 h 0 M 286.36 323.65 h 0 M 291.41 319.76 h 0 M 296.46 316.76 h 0 M 301.52 307.38 h 0 M 306.57 306.47 h 0 M 311.62 300.52 h 0 M 316.67 296.71 h 0 M 321.72 290.37 h 0 M 326.77 283.94 h 0 M 331.82 280.48 h 0 M 336.87 275.34 h 0 M 341.92 272.75 h 0 M 346.97 265.07 h 0 M 352.02 260.23 h 0 M 357.07 312.50 h 0 M 362.12 311.68 h 0 M 367.17 309.19 h 0 M 372.22 306.86 h 0 M 377.27 302.75 h 0 M 382.32 299.84 h 0 M 387.37 296.33 h 0 M 392.42 289.50 h 0 M 397.47 268.30 h 0 M 402.53 288.31 h 0 M 407.58 284.54 h 0 M 412.63 282.31 h 0 M 417.68 279.48 h 0 M 422.73 271.48 h 0 M 427.78 272.06 h 0 M 432.83 266.98 h 0 M 437.88 266.36 h 0 M 442.93 259.72 h 0 M 447.98 258.12 h 0 M 453.03 257.48 h 0 M 458.08 242.83 h 0 M 463.13 248.91 h 0 M 468.18 244.64 h 0 M 473.23 242.58 h 0 M 478.28 235.66 h 0 M 483.33 232.26 h 0 M 488.38 234.31 h 0 M 493.43 226.42 h 0 M 498.48 223.91 h 0 M 503.54 218.54 h 0 M 508.59 215.93 h 0 M 513.64 214.27 h 0 M 518.69 208.21 h 0 M 523.74 201.72 h 0 M 528.79 197.75 h 0 M 533.84 201.68 h 0 M 538.89 193.77 h 0 M 543.94 190.90 h 0 M 548.99 187.64 h 0 M 554.04 183.37 h 0 M 559.09 178.41 h 0 M 564.14 174.54 h 0 M 569.19 173.88 h 0 M 574.24 170.04 h 0 M 579.29 164.94 h 0 M 584.34 153.73 h 0 M 589.39 154.67 h 0 M 594.44 151.78 h 0 M 599.49 142.24 h 0 M 604.55 140.39 h 0 M 609.60 139.94 h 0 M 614.65 126.85 h 0 M 619.70 127.05 h 0 M 624.75 124.08 h 0 M 629.80 122.47 h 0 M 634.85 119.83 h 0 M 639.90 104.88 h 0 M 644.95 100.42 h 0 M 650.00 100.00 h 0" /><text  class="poloto_text poloto_legend_text" x="675" y="350" >par_contr</text><line  class="poloto_scatter poloto_legend_icon poloto5stroke poloto5legend" stroke="black" x1="685" x2="685" y1="331.25" y2="331.25" /><path  class="poloto_scatter poloto5stroke" d=" M 150.00 399.94 h 0 M 155.05 399.07 h 0 M 160.10 397.54 h 0 M 165.15 396.06 h 0 M 170.20 394.37 h 0 M 175.25 397.85 h 0 M 180.30 396.64 h 0 M 185.35 396.88 h 0 M 190.40 395.49 h 0 M 195.45 395.68 h 0 M 200.51 395.47 h 0 M 205.56 393.92 h 0 M 210.61 393.15 h 0 M 215.66 392.82 h 0 M 220.71 391.81 h 0 M 225.76 391.24 h 0 M 230.81 391.04 h 0 M 235.86 390.45 h 0 M 240.91 389.90 h 0 M 245.96 389.38 h 0 M 251.01 388.15 h 0 M 256.06 387.96 h 0 M 261.11 387.11 h 0 M 266.16 386.38 h 0 M 271.21 385.80 h 0 M 276.26 385.64 h 0 M 281.31 381.40 h 0 M 286.36 385.04 h 0 M 291.41 388.27 h 0 M 296.46 387.40 h 0 M 301.52 388.43 h 0 M 306.57 386.65 h 0 M 311.62 385.56 h 0 M 316.67 387.38 h 0 M 321.72 387.01 h 0 M 326.77 382.76 h 0 M 331.82 385.89 h 0 M 336.87 383.28 h 0 M 341.92 381.39 h 0 M 346.97 384.26 h 0 M 352.02 382.92 h 0 M 357.07 378.53 h 0 M 362.12 377.53 h 0 M 367.17 377.53 h 0 M 372.22 380.27 h 0 M 377.27 380.66 h 0 M 382.32 379.96 h 0 M 387.37 375.79 h 0 M 392.42 372.03 h 0 M 397.47 373.98 h 0 M 402.53 375.56 h 0 M 407.58 374.06 h 0 M 412.63 379.40 h 0 M 417.68 379.26 h 0 M 422.73 364.82 h 0 M 427.78 360.08 h 0 M 432.83 373.02 h 0 M 437.88 379.70 h 0 M 442.93 376.10 h 0 M 447.98 378.36 h 0 M 453.03 375.49 h 0 M 458.08 373.67 h 0 M 463.13 378.29 h 0 M 468.18 378.78 h 0 M 473.23 378.38 h 0 M 478.28 378.11 h 0 M 483.33 377.31 h 0 M 488.38 373.71 h 0 M 493.43 377.09 h 0 M 498.48 371.87 h 0 M 503.54 374.93 h 0 M 508.59 372.36 h 0 M 513.64 373.90 h 0 M 518.69 371.15 h 0 M 523.74 374.58 h 0 M 528.79 374.96 h 0 M 533.84 374.30 h 0 M 538.89 373.69 h 0 M 543.94 374.11 h 0 M 548.99 374.78 h 0 M 554.04 373.88 h 0 M 559.09 369.38 h 0 M 564.14 371.82 h 0 M 569.19 372.27 h 0 M 574.24 368.69 h 0 M 579.29 370.36 h 0 M 584.34 368.77 h 0 M 589.39 370.87 h 0 M 594.44 368.12 h 0 M 599.49 368.84 h 0 M 604.55 368.45 h 0 M 609.60 367.71 h 0 M 614.65 365.98 h 0 M 619.70 366.95 h 0 M 624.75 365.64 h 0 M 629.80 364.20 h 0 M 634.85 367.34 h 0 M 639.90 365.82 h 0 M 644.95 368.00 h 0 M 650.00 363.84 h 0" /><text  class="poloto_text poloto_legend_text" x="675" y="400" >par_query</text><line  class="poloto_scatter poloto_legend_icon poloto6stroke poloto6legend" stroke="black" x1="685" x2="685" y1="381.25" y2="381.25" /><path  class="poloto_scatter poloto6stroke" d=" M 150.00 399.94 h 0 M 155.05 398.12 h 0 M 160.10 394.58 h 0 M 165.15 391.37 h 0 M 170.20 388.76 h 0 M 175.25 394.86 h 0 M 180.30 393.42 h 0 M 185.35 392.66 h 0 M 190.40 392.10 h 0 M 195.45 390.81 h 0 M 200.51 389.60 h 0 M 205.56 388.75 h 0 M 210.61 387.78 h 0 M 215.66 387.16 h 0 M 220.71 388.16 h 0 M 225.76 385.00 h 0 M 230.81 382.72 h 0 M 235.86 383.54 h 0 M 240.91 382.56 h 0 M 245.96 380.49 h 0 M 251.01 378.78 h 0 M 256.06 378.62 h 0 M 261.11 376.59 h 0 M 266.16 375.50 h 0 M 271.21 378.47 h 0 M 276.26 377.59 h 0 M 281.31 381.15 h 0 M 286.36 383.21 h 0 M 291.41 382.93 h 0 M 296.46 382.58 h 0 M 301.52 380.06 h 0 M 306.57 376.68 h 0 M 311.62 378.97 h 0 M 316.67 379.53 h 0 M 321.72 375.42 h 0 M 326.77 379.88 h 0 M 331.82 378.93 h 0 M 336.87 375.51 h 0 M 341.92 376.67 h 0 M 346.97 375.75 h 0 M 352.02 371.51 h 0 M 357.07 372.20 h 0 M 362.12 372.10 h 0 M 367.17 372.50 h 0 M 372.22 377.46 h 0 M 377.27 376.91 h 0 M 382.32 373.54 h 0 M 387.37 375.86 h 0 M 392.42 368.61 h 0 M 397.47 368.66 h 0 M 402.53 372.29 h 0 M 407.58 373.77 h 0 M 412.63 380.55 h 0 M 417.68 379.29 h 0 M 422.73 379.82 h 0 M 427.78 365.38 h 0 M 432.83 378.74 h 0 M 437.88 378.56 h 0 M 442.93 378.35 h 0 M 447.98 377.17 h 0 M 453.03 376.68 h 0 M 458.08 376.67 h 0 M 463.13 376.18 h 0 M 468.18 376.56 h 0 M 473.23 375.89 h 0 M 478.28 374.70 h 0 M 483.33 375.29 h 0 M 488.38 374.53 h 0 M 493.43 373.74 h 0 M 498.48 373.11 h 0 M 503.54 372.59 h 0 M 508.59 374.37 h 0 M 513.64 373.01 h 0 M 518.69 356.71 h 0 M 523.74 372.74 h 0 M 528.79 372.50 h 0 M 533.84 372.19 h 0 M 538.89 371.51 h 0 M 543.94 371.14 h 0 M 548.99 371.15 h 0 M 554.04 368.23 h 0 M 559.09 371.00 h 0 M 564.14 370.53 h 0 M 569.19 370.20 h 0 M 574.24 369.20 h 0 M 579.29 368.67 h 0 M 584.34 368.47 h 0 M 589.39 367.95 h 0 M 594.44 367.16 h 0 M 599.49 367.77 h 0 M 604.55 366.36 h 0 M 609.60 365.57 h 0 M 614.65 366.45 h 0 M 619.70 366.50 h 0 M 624.75 366.14 h 0 M 629.80 366.28 h 0 M 634.85 354.40 h 0 M 639.90 364.95 h 0 M 644.95 363.85 h 0 M 650.00 364.36 h 0" /><text  class="poloto_text poloto_legend_text" x="675" y="450" >query</text><line  class="poloto_scatter poloto_legend_icon poloto7stroke poloto7legend" stroke="black" x1="685" x2="685" y1="431.25" y2="431.25" /><path  class="poloto_scatter poloto7stroke" d=" M 150.00 399.89 h 0 M 155.05 395.53 h 0 M 160.10 394.19 h 0 M 165.15 391.29 h 0 M 170.20 387.92 h 0 M 175.25 394.97 h 0 M 180.30 394.08 h 0 M 185.35 392.12 h 0 M 190.40 391.01 h 0 M 195.45 390.41 h 0 M 200.51 389.31 h 0 M 205.56 388.51 h 0 M 210.61 387.84 h 0 M 215.66 386.94 h 0 M 220.71 386.84 h 0 M 225.76 384.47 h 0 M 230.81 383.47 h 0 M 235.86 383.32 h 0 M 240.91 382.46 h 0 M 245.96 379.91 h 0 M 251.01 378.62 h 0 M 256.06 378.31 h 0 M 261.11 376.50 h 0 M 266.16 375.31 h 0 M 271.21 376.75 h 0 M 276.26 375.71 h 0 M 281.31 373.17 h 0 M 286.36 372.83 h 0 M 291.41 372.75 h 0 M 296.46 372.54 h 0 M 301.52 370.55 h 0 M 306.57 369.59 h 0 M 311.62 368.72 h 0 M 316.67 367.64 h 0 M 321.72 364.67 h 0 M 326.77 365.71 h 0 M 331.82 363.90 h 0 M 336.87 355.49 h 0 M 341.92 361.87 h 0 M 346.97 360.54 h 0 M 352.02 359.76 h 0 M 357.07 363.66 h 0 M 362.12 363.51 h 0 M 367.17 360.94 h 0 M 372.22 360.25 h 0 M 377.27 359.14 h 0 M 382.32 355.52 h 0 M 387.37 358.79 h 0 M 392.42 345.68 h 0 M 397.47 355.70 h 0 M 402.53 353.32 h 0 M 407.58 352.84 h 0 M 412.63 352.28 h 0 M 417.68 351.44 h 0 M 422.73 349.74 h 0 M 427.78 348.34 h 0 M 432.83 347.74 h 0 M 437.88 347.83 h 0 M 442.93 348.74 h 0 M 447.98 344.97 h 0 M 453.03 347.19 h 0 M 458.08 344.15 h 0 M 463.13 342.23 h 0 M 468.18 340.88 h 0 M 473.23 339.62 h 0 M 478.28 339.37 h 0 M 483.33 341.43 h 0 M 488.38 337.79 h 0 M 493.43 338.37 h 0 M 498.48 339.18 h 0 M 503.54 334.72 h 0 M 508.59 336.56 h 0 M 513.64 325.69 h 0 M 518.69 330.78 h 0 M 523.74 332.93 h 0 M 528.79 333.45 h 0 M 533.84 331.21 h 0 M 538.89 327.59 h 0 M 543.94 324.95 h 0 M 548.99 328.50 h 0 M 554.04 327.65 h 0 M 559.09 322.02 h 0 M 564.14 325.88 h 0 M 569.19 313.30 h 0 M 574.24 317.68 h 0 M 579.29 322.36 h 0 M 584.34 321.23 h 0 M 589.39 320.56 h 0 M 594.44 318.42 h 0 M 599.49 319.41 h 0 M 604.55 317.99 h 0 M 609.60 316.98 h 0 M 614.65 309.32 h 0 M 619.70 315.22 h 0 M 624.75 309.32 h 0 M 629.80 308.18 h 0 M 634.85 301.72 h 0 M 639.90 303.68 h 0 M 644.95 302.77 h 0 M 650.00 301.63 h 0" /><text  class="poloto_labels poloto_text poloto_title" x="400" y="37.5" >Bench of construction vs query abspiral(x,1.5)</text><text  class="poloto_labels poloto_text poloto_xname" x="400" y="481.25" >Number of Elements</text><text  class="poloto_labels poloto_text poloto_yname" transform="rotate(-90,37.5,250)" x="37.5" y="250" >Time in Seconds</text><text  class="poloto_tick_labels poloto_text" dominant-baseline="middle" text-anchor="start" x="150" y="70" ></text><line  class="poloto_axis_lines" stroke="black" x1="150" x2="144" y1="400" y2="400" /><text  class="poloto_tick_labels poloto_text" dominant-baseline="middle" text-anchor="end" x="135" y="400" >0e0</text><line  class="poloto_axis_lines" stroke="black" x1="150" x2="144" y1="316.50718379148395" y2="316.50718379148395" /><text  class="poloto_tick_labels poloto_text" dominant-baseline="middle" text-anchor="end" x="135" y="316.50718379148395" >0.002</text><line  class="poloto_axis_lines" stroke="black" x1="150" x2="144" y1="233.01436758296785" y2="233.01436758296785" /><text  class="poloto_tick_labels poloto_text" dominant-baseline="middle" text-anchor="end" x="135" y="233.01436758296785" >0.004</text><line  class="poloto_axis_lines" stroke="black" x1="150" x2="144" y1="149.52155137445178" y2="149.52155137445178" /><text  class="poloto_tick_labels poloto_text" dominant-baseline="middle" text-anchor="end" x="135" y="149.52155137445178" >0.006</text><text  class="poloto_tick_labels poloto_text" dominant-baseline="middle" text-anchor="start" x="440.00000000000006" y="70" ></text><line  class="poloto_axis_lines" stroke="black" x1="150" x2="150" y1="400" y2="405" /><text  class="poloto_tick_labels poloto_text" dominant-baseline="start" text-anchor="middle" x="150" y="430" >0</text><line  class="poloto_axis_lines" stroke="black" x1="276.26262626262627" x2="276.26262626262627" y1="400" y2="405" /><text  class="poloto_tick_labels poloto_text" dominant-baseline="start" text-anchor="middle" x="276.26262626262627" y="430" >5000</text><line  class="poloto_axis_lines" stroke="black" x1="402.52525252525254" x2="402.52525252525254" y1="400" y2="405" /><text  class="poloto_tick_labels poloto_text" dominant-baseline="start" text-anchor="middle" x="402.52525252525254" y="430" >10000</text><line  class="poloto_axis_lines" stroke="black" x1="528.7878787878788" x2="528.7878787878788" y1="400" y2="405" /><text  class="poloto_tick_labels poloto_text" dominant-baseline="start" text-anchor="middle" x="528.7878787878788" y="430" >15000</text><path  stroke="black" fill="none" class="poloto_axis_lines" style="stroke-dasharray:12.626262626262626;stroke-dashoffset:-0;" d=" M 150 400 L 650 400" /><path  stroke="black" fill="none" class="poloto_axis_lines" style="stroke-dasharray:10.43660202606451;stroke-dashoffset:-0;" d=" M 150 400 L 150 100" /></svg>