<svg class="poloto" width="800" height="500" viewBox="0 0 800 500" xmlns="http://www.w3.org/2000/svg"><circle  r="1e5" class="poloto_background" /><text  class="poloto_text poloto_legend_text" x="675" y="100" >brocc_constr</text><line  class="poloto_scatter poloto_legend_icon poloto0stroke poloto0legend" stroke="black" x1="685" x2="685" y1="81.25" y2="81.25" /><path  class="poloto_scatter poloto0stroke" d=" M 150.00 358.82 h 0 M 155.05 358.89 h 0 M 160.10 358.56 h 0 M 165.15 359.15 h 0 M 170.20 359.04 h 0 M 175.25 358.96 h 0 M 180.30 359.11 h 0 M 185.35 358.86 h 0 M 190.40 358.98 h 0 M 195.45 359.15 h 0 M 200.51 359.15 h 0 M 205.56 359.10 h 0 M 210.61 359.09 h 0 M 215.66 359.01 h 0 M 220.71 358.95 h 0 M 225.76 358.64 h 0 M 230.81 358.60 h 0 M 235.86 358.55 h 0 M 240.91 358.76 h 0 M 245.96 358.41 h 0 M 251.01 358.68 h 0 M 256.06 358.33 h 0 M 261.11 358.62 h 0 M 266.16 358.39 h 0 M 271.21 358.67 h 0 M 276.26 358.80 h 0 M 281.31 359.09 h 0 M 286.36 359.10 h 0 M 291.41 358.90 h 0 M 296.46 358.89 h 0 M 301.52 358.57 h 0 M 306.57 358.49 h 0 M 311.62 358.66 h 0 M 316.67 358.54 h 0 M 321.72 358.66 h 0 M 326.77 358.84 h 0 M 331.82 358.87 h 0 M 336.87 358.49 h 0 M 341.92 358.77 h 0 M 346.97 358.72 h 0 M 352.02 359.05 h 0 M 357.07 358.93 h 0 M 362.12 358.81 h 0 M 367.17 358.80 h 0 M 372.22 359.04 h 0 M 377.27 358.66 h 0 M 382.32 358.79 h 0 M 387.37 358.52 h 0 M 392.42 358.92 h 0 M 397.47 358.82 h 0 M 402.53 358.57 h 0 M 407.58 358.93 h 0 M 412.63 358.23 h 0 M 417.68 358.18 h 0 M 422.73 358.70 h 0 M 427.78 358.60 h 0 M 432.83 358.60 h 0 M 437.88 358.74 h 0 M 442.93 358.63 h 0 M 447.98 358.64 h 0 M 453.03 358.57 h 0 M 458.08 358.33 h 0 M 463.13 358.29 h 0 M 468.18 358.13 h 0 M 473.23 358.33 h 0 M 478.28 358.19 h 0 M 483.33 358.64 h 0 M 488.38 357.91 h 0 M 493.43 358.03 h 0 M 498.48 358.25 h 0 M 503.54 358.50 h 0 M 508.59 358.46 h 0 M 513.64 358.16 h 0 M 518.69 358.51 h 0 M 523.74 358.32 h 0 M 528.79 358.26 h 0 M 533.84 358.37 h 0 M 538.89 358.59 h 0 M 543.94 358.71 h 0 M 548.99 358.71 h 0 M 554.04 358.59 h 0 M 559.09 358.56 h 0 M 564.14 358.49 h 0 M 569.19 357.84 h 0 M 574.24 357.80 h 0 M 579.29 357.92 h 0 M 584.34 357.80 h 0 M 589.39 357.76 h 0 M 594.44 358.31 h 0 M 599.49 358.13 h 0 M 604.55 358.21 h 0 M 609.60 358.20 h 0 M 614.65 358.50 h 0 M 619.70 357.99 h 0 M 624.75 358.11 h 0 M 629.80 358.32 h 0 M 634.85 358.24 h 0 M 639.90 358.10 h 0 M 644.95 358.19 h 0 M 650.00 358.11 h 0" /><text  class="poloto_text poloto_legend_text" x="675" y="150" >brocc_query</text><line  class="poloto_scatter poloto_legend_icon poloto1stroke poloto1legend" stroke="black" x1="685" x2="685" y1="131.25" y2="131.25" /><path  class="poloto_scatter poloto1stroke" d=" M 150.00 320.21 h 0 M 155.05 320.43 h 0 M 160.10 320.29 h 0 M 165.15 321.02 h 0 M 170.20 321.07 h 0 M 175.25 321.13 h 0 M 180.30 321.41 h 0 M 185.35 321.30 h 0 M 190.40 321.58 h 0 M 195.45 321.89 h 0 M 200.51 322.07 h 0 M 205.56 322.15 h 0 M 210.61 322.29 h 0 M 215.66 322.34 h 0 M 220.71 322.41 h 0 M 225.76 322.26 h 0 M 230.81 322.36 h 0 M 235.86 322.44 h 0 M 240.91 322.78 h 0 M 245.96 322.55 h 0 M 251.01 322.93 h 0 M 256.06 322.70 h 0 M 261.11 323.10 h 0 M 266.16 322.99 h 0 M 271.21 323.41 h 0 M 276.26 323.69 h 0 M 281.31 324.10 h 0 M 286.36 324.23 h 0 M 291.41 324.14 h 0 M 296.46 324.25 h 0 M 301.52 324.05 h 0 M 306.57 324.08 h 0 M 311.62 324.34 h 0 M 316.67 324.35 h 0 M 321.72 324.59 h 0 M 326.77 324.90 h 0 M 331.82 325.03 h 0 M 336.87 324.76 h 0 M 341.92 325.15 h 0 M 346.97 325.20 h 0 M 352.02 325.66 h 0 M 357.07 325.64 h 0 M 362.12 325.64 h 0 M 367.17 325.73 h 0 M 372.22 326.06 h 0 M 377.27 325.77 h 0 M 382.32 326.00 h 0 M 387.37 325.83 h 0 M 392.42 326.34 h 0 M 397.47 326.35 h 0 M 402.53 326.21 h 0 M 407.58 326.66 h 0 M 412.63 326.07 h 0 M 417.68 326.11 h 0 M 422.73 326.73 h 0 M 427.78 326.72 h 0 M 432.83 326.82 h 0 M 437.88 327.06 h 0 M 442.93 327.03 h 0 M 447.98 327.13 h 0 M 453.03 327.16 h 0 M 458.08 326.99 h 0 M 463.13 327.04 h 0 M 468.18 326.96 h 0 M 473.23 327.25 h 0 M 478.28 327.20 h 0 M 483.33 327.72 h 0 M 488.38 327.07 h 0 M 493.43 327.28 h 0 M 498.48 327.59 h 0 M 503.54 327.93 h 0 M 508.59 327.98 h 0 M 513.64 327.77 h 0 M 518.69 328.21 h 0 M 523.74 328.11 h 0 M 528.79 328.13 h 0 M 533.84 328.32 h 0 M 538.89 328.64 h 0 M 543.94 328.84 h 0 M 548.99 328.92 h 0 M 554.04 328.89 h 0 M 559.09 328.94 h 0 M 564.14 328.95 h 0 M 569.19 328.39 h 0 M 574.24 328.43 h 0 M 579.29 328.62 h 0 M 584.34 328.58 h 0 M 589.39 328.62 h 0 M 594.44 329.23 h 0 M 599.49 329.12 h 0 M 604.55 329.29 h 0 M 609.60 329.35 h 0 M 614.65 329.73 h 0 M 619.70 329.32 h 0 M 624.75 329.51 h 0 M 629.80 329.83 h 0 M 634.85 329.83 h 0 M 639.90 329.77 h 0 M 644.95 329.95 h 0 M 650.00 329.93 h 0" /><text  class="poloto_text poloto_legend_text" x="675" y="200" >nosort_constr</text><line  class="poloto_scatter poloto_legend_icon poloto2stroke poloto2legend" stroke="black" x1="685" x2="685" y1="181.25" y2="181.25" /><path  class="poloto_scatter poloto2stroke" d=" M 150.00 363.30 h 0 M 155.05 363.38 h 0 M 160.10 363.02 h 0 M 165.15 363.62 h 0 M 170.20 363.51 h 0 M 175.25 363.46 h 0 M 180.30 363.61 h 0 M 185.35 363.34 h 0 M 190.40 363.49 h 0 M 195.45 363.65 h 0 M 200.51 363.61 h 0 M 205.56 363.60 h 0 M 210.61 363.58 h 0 M 215.66 363.49 h 0 M 220.71 363.44 h 0 M 225.76 363.14 h 0 M 230.81 363.10 h 0 M 235.86 363.06 h 0 M 240.91 363.25 h 0 M 245.96 362.93 h 0 M 251.01 363.18 h 0 M 256.06 362.83 h 0 M 261.11 363.14 h 0 M 266.16 362.87 h 0 M 271.21 363.17 h 0 M 276.26 363.29 h 0 M 281.31 363.58 h 0 M 286.36 363.56 h 0 M 291.41 363.37 h 0 M 296.46 363.34 h 0 M 301.52 363.04 h 0 M 306.57 362.95 h 0 M 311.62 363.13 h 0 M 316.67 363.03 h 0 M 321.72 363.14 h 0 M 326.77 363.31 h 0 M 331.82 363.35 h 0 M 336.87 362.99 h 0 M 341.92 363.25 h 0 M 346.97 363.21 h 0 M 352.02 363.54 h 0 M 357.07 363.41 h 0 M 362.12 363.28 h 0 M 367.17 363.26 h 0 M 372.22 363.53 h 0 M 377.27 363.17 h 0 M 382.32 363.29 h 0 M 387.37 362.97 h 0 M 392.42 363.39 h 0 M 397.47 363.33 h 0 M 402.53 363.03 h 0 M 407.58 363.39 h 0 M 412.63 362.69 h 0 M 417.68 362.63 h 0 M 422.73 363.12 h 0 M 427.78 363.04 h 0 M 432.83 363.05 h 0 M 437.88 363.20 h 0 M 442.93 363.10 h 0 M 447.98 363.11 h 0 M 453.03 363.01 h 0 M 458.08 362.78 h 0 M 463.13 362.75 h 0 M 468.18 362.60 h 0 M 473.23 362.78 h 0 M 478.28 362.66 h 0 M 483.33 363.11 h 0 M 488.38 362.35 h 0 M 493.43 362.48 h 0 M 498.48 362.72 h 0 M 503.54 362.97 h 0 M 508.59 362.91 h 0 M 513.64 362.62 h 0 M 518.69 362.97 h 0 M 523.74 362.76 h 0 M 528.79 362.71 h 0 M 533.84 362.81 h 0 M 538.89 363.03 h 0 M 543.94 363.13 h 0 M 548.99 363.15 h 0 M 554.04 363.01 h 0 M 559.09 362.98 h 0 M 564.14 362.92 h 0 M 569.19 362.28 h 0 M 574.24 362.25 h 0 M 579.29 362.35 h 0 M 584.34 362.24 h 0 M 589.39 362.20 h 0 M 594.44 362.78 h 0 M 599.49 362.58 h 0 M 604.55 362.66 h 0 M 609.60 362.63 h 0 M 614.65 362.94 h 0 M 619.70 362.41 h 0 M 624.75 362.54 h 0 M 629.80 362.72 h 0 M 634.85 362.66 h 0 M 639.90 362.53 h 0 M 644.95 362.60 h 0 M 650.00 362.56 h 0" /><text  class="poloto_text poloto_legend_text" x="675" y="250" >nosort_query</text><line  class="poloto_scatter poloto_legend_icon poloto3stroke poloto3legend" stroke="black" x1="685" x2="685" y1="231.25" y2="231.25" /><path  class="poloto_scatter poloto3stroke" d=" M 150.00 100.00 h 0 M 155.05 101.05 h 0 M 160.10 102.18 h 0 M 165.15 103.58 h 0 M 170.20 104.20 h 0 M 175.25 105.00 h 0 M 180.30 105.85 h 0 M 185.35 106.40 h 0 M 190.40 107.75 h 0 M 195.45 109.66 h 0 M 200.51 110.43 h 0 M 205.56 111.19 h 0 M 210.61 112.67 h 0 M 215.66 113.54 h 0 M 220.71 114.24 h 0 M 225.76 114.87 h 0 M 230.81 115.71 h 0 M 235.86 116.32 h 0 M 240.91 117.26 h 0 M 245.96 117.89 h 0 M 251.01 119.00 h 0 M 256.06 119.95 h 0 M 261.11 120.89 h 0 M 266.16 121.45 h 0 M 271.21 123.24 h 0 M 276.26 124.38 h 0 M 281.31 125.65 h 0 M 286.36 126.46 h 0 M 291.41 127.15 h 0 M 296.46 127.91 h 0 M 301.52 128.21 h 0 M 306.57 128.62 h 0 M 311.62 129.58 h 0 M 316.67 129.88 h 0 M 321.72 130.88 h 0 M 326.77 131.94 h 0 M 331.82 132.70 h 0 M 336.87 133.09 h 0 M 341.92 134.17 h 0 M 346.97 134.52 h 0 M 352.02 135.82 h 0 M 357.07 136.11 h 0 M 362.12 137.33 h 0 M 367.17 137.87 h 0 M 372.22 138.82 h 0 M 377.27 139.22 h 0 M 382.32 139.78 h 0 M 387.37 140.29 h 0 M 392.42 141.47 h 0 M 397.47 142.21 h 0 M 402.53 142.79 h 0 M 407.58 144.24 h 0 M 412.63 144.48 h 0 M 417.68 145.10 h 0 M 422.73 146.19 h 0 M 427.78 146.67 h 0 M 432.83 147.67 h 0 M 437.88 148.78 h 0 M 442.93 149.22 h 0 M 447.98 149.62 h 0 M 453.03 150.06 h 0 M 458.08 150.21 h 0 M 463.13 150.67 h 0 M 468.18 151.43 h 0 M 473.23 152.44 h 0 M 478.28 153.01 h 0 M 483.33 153.91 h 0 M 488.38 153.92 h 0 M 493.43 154.86 h 0 M 498.48 155.58 h 0 M 503.54 156.27 h 0 M 508.59 156.61 h 0 M 513.64 157.07 h 0 M 518.69 158.19 h 0 M 523.74 158.73 h 0 M 528.79 159.20 h 0 M 533.84 159.85 h 0 M 538.89 160.67 h 0 M 543.94 161.21 h 0 M 548.99 161.40 h 0 M 554.04 161.77 h 0 M 559.09 162.21 h 0 M 564.14 162.50 h 0 M 569.19 162.49 h 0 M 574.24 162.90 h 0 M 579.29 163.57 h 0 M 584.34 164.04 h 0 M 589.39 164.43 h 0 M 594.44 165.44 h 0 M 599.49 165.86 h 0 M 604.55 166.39 h 0 M 609.60 166.69 h 0 M 614.65 167.60 h 0 M 619.70 167.76 h 0 M 624.75 168.71 h 0 M 629.80 170.17 h 0 M 634.85 170.47 h 0 M 639.90 170.74 h 0 M 644.95 171.53 h 0 M 650.00 171.99 h 0" /><text  class="poloto_labels poloto_text poloto_title" x="400" y="37.5" >Complexity of construction vs query with abspiral(40_000,grow)</text><text  class="poloto_labels poloto_text poloto_xname" x="400" y="481.25" >Grow</text><text  class="poloto_labels poloto_text poloto_yname" transform="rotate(-90,37.5,250)" x="37.5" y="250" >Number of Comparisons</text><text  class="poloto_tick_labels poloto_text" dominant-baseline="middle" text-anchor="start" x="150" y="70" ></text><line  class="poloto_axis_lines" stroke="black" x1="150" x2="144" y1="400" y2="400" /><text  class="poloto_tick_labels poloto_text" dominant-baseline="middle" text-anchor="end" x="135" y="400" >0</text><line  class="poloto_axis_lines" stroke="black" x1="150" x2="144" y1="351.7797801849133" y2="351.7797801849133" /><text  class="poloto_tick_labels poloto_text" dominant-baseline="middle" text-anchor="end" x="135" y="351.7797801849133" >2e6</text><line  class="poloto_axis_lines" stroke="black" x1="150" x2="144" y1="303.5595603698266" y2="303.5595603698266" /><text  class="poloto_tick_labels poloto_text" dominant-baseline="middle" text-anchor="end" x="135" y="303.5595603698266" >4e6</text><line  class="poloto_axis_lines" stroke="black" x1="150" x2="144" y1="255.33934055473986" y2="255.33934055473986" /><text  class="poloto_tick_labels poloto_text" dominant-baseline="middle" text-anchor="end" x="135" y="255.33934055473986" >6e6</text><line  class="poloto_axis_lines" stroke="black" x1="150" x2="144" y1="207.11912073965317" y2="207.11912073965317" /><text  class="poloto_tick_labels poloto_text" dominant-baseline="middle" text-anchor="end" x="135" y="207.11912073965317" >8e6</text><line  class="poloto_axis_lines" stroke="black" x1="150" x2="144" y1="158.89890092456642" y2="158.89890092456642" /><text  class="poloto_tick_labels poloto_text" dominant-baseline="middle" text-anchor="end" x="135" y="158.89890092456642" >1e7</text><line  class="poloto_axis_lines" stroke="black" x1="150" x2="144" y1="110.67868110947973" y2="110.67868110947973" /><text  class="poloto_tick_labels poloto_text" dominant-baseline="middle" text-anchor="end" x="135" y="110.67868110947973" >1.2e7</text><text  class="poloto_tick_labels poloto_text" dominant-baseline="middle" text-anchor="start" x="440.00000000000006" y="70" ></text><line  class="poloto_axis_lines" stroke="black" x1="150" x2="150" y1="400" y2="405" /><text  class="poloto_tick_labels poloto_text" dominant-baseline="start" text-anchor="middle" x="150" y="430" >1.5</text><line  class="poloto_axis_lines" stroke="black" x1="234.1750841750843" x2="234.1750841750843" y1="400" y2="405" /><text  class="poloto_tick_labels poloto_text" dominant-baseline="start" text-anchor="middle" x="234.1750841750843" y="430" >1.6</text><line  class="poloto_axis_lines" stroke="black" x1="318.35016835016836" x2="318.35016835016836" y1="400" y2="405" /><text  class="poloto_tick_labels poloto_text" dominant-baseline="start" text-anchor="middle" x="318.35016835016836" y="430" >1.7</text><line  class="poloto_axis_lines" stroke="black" x1="402.52525252525265" x2="402.52525252525265" y1="400" y2="405" /><text  class="poloto_tick_labels poloto_text" dominant-baseline="start" text-anchor="middle" x="402.52525252525265" y="430" >1.8</text><line  class="poloto_axis_lines" stroke="black" x1="486.7003367003365" x2="486.7003367003365" y1="400" y2="405" /><text  class="poloto_tick_labels poloto_text" dominant-baseline="start" text-anchor="middle" x="486.7003367003365" y="430" >1.9</text><line  class="poloto_axis_lines" stroke="black" x1="570.8754208754208" x2="570.8754208754208" y1="400" y2="405" /><text  class="poloto_tick_labels poloto_text" dominant-baseline="start" text-anchor="middle" x="570.8754208754208" y="430" >2.0</text><path  stroke="black" fill="none" class="poloto_axis_lines" style="stroke-dasharray:8.417508417508413;stroke-dashoffset:-0;" d=" M 150 400 L 650.0000000000002 400" /><path  stroke="black" fill="none" class="poloto_axis_lines" style="stroke-dasharray:12.055054953771677;stroke-dashoffset:-0;" d=" M 150 400 L 150 100" /></svg>