<svg class="poloto" width="800" height="500" viewBox="0 0 800 500" xmlns="http://www.w3.org/2000/svg"><text  class="poloto_text poloto_legend_text" alignment-baseline="middle" text-anchor="start" font-size="large" x="675" y="100" >contr</text><line  class="poloto_line poloto_legend_icon poloto0stroke poloto0legend" stroke="black" x1="680" x2="730" y1="81.25" y2="81.25" /><path  class="poloto_line poloto0stroke" fill="none" stroke="black" d=" M 150 399.55877702521906 L 155.05050505050505 396.09925583385467 L 160.1010101010101 392.09634553359973 L 165.15151515151516 387.54574242283434 L 170.2020202020202 395.1670366394702 L 175.25252525252526 393.4808276330078 L 180.3030303030303 391.8596419444997 L 185.35353535353534 392.232473487015 L 190.40404040404042 390.93528168350826 L 195.45454545454544 389.9916483239577 L 200.50505050505052 388.95941484627366 L 205.55555555555554 386.73589804842726 L 210.6060606060606 384.1846450163447 L 215.65656565656565 383.081868255585 L 220.7070707070707 382.1416030103457 L 225.75757575757575 380.6132275828603 L 230.8080808080808 379.4937973680058 L 235.85858585858585 377.9238818640143 L 240.9090909090909 376.8545991289059 L 245.95959595959596 376.2928725087649 L 251.010101010101 373.95222017986976 L 256.06060606060606 370.93897413475327 L 261.1111111111111 367.7664911296967 L 266.16161616161617 366.9035053961557 L 271.2121212121212 366.2033118543278 L 276.26262626262627 365.32984754292943 L 281.3131313131313 364.4241990281119 L 286.3636363636364 361.1290605268853 L 291.4141414141414 360.8023534386888 L 296.4646464646464 361.325159626788 L 301.5151515151515 357.5113315216205 L 306.5656565656566 356.3979826242725 L 311.6161616161616 355.18911026270666 L 316.66666666666663 354.11093944816565 L 321.7171717171717 351.03397990732697 L 326.7676767676768 350.8036383119261 L 331.8181818181818 349.95113115624247 L 336.86868686868684 347.6097303575004 L 341.9191919191919 347.01469682916985 L 346.969696969697 345.24512699350265 L 352.020202020202 343.9222065390068 L 357.07070707070704 337.49575087430634 L 362.1212121212121 336.90586307617366 L 367.1717171717172 335.0474124461804 L 372.22222222222223 327.59957611657666 L 377.27272727272725 330.9445814213567 L 382.32323232323233 328.3414968523724 L 387.37373737373736 327.4195691183836 L 392.4242424242424 326.97806546741003 L 397.47474747474746 322.2874984952638 L 402.52525252525254 323.17509017502346 L 407.57575757575756 323.0262382342099 L 412.62626262626264 320.37188348070913 L 417.67676767676767 318.9258397363889 L 422.72727272727275 317.66700701253876 L 427.77777777777777 315.80116524280675 L 432.8282828282828 312.3115181401023 L 437.8787878787879 310.7384216392612 L 442.9292929292929 307.40193017899037 L 447.979797979798 295.4657072946495 L 453.030303030303 306.9355399056055 L 458.0808080808081 302.5120831100918 L 463.1313131313131 302.5387473483896 L 468.1818181818182 302.99540751376406 L 473.2323232323232 302.7502836388858 L 478.2828282828283 299.45551937258267 L 483.3333333333333 297.60455344105895 L 488.3838383838384 294.717143888962 L 493.4343434343434 294.4075580485146 L 498.4848484848485 291.6503822497881 L 503.5353535353535 293.24565216984524 L 508.5858585858586 286.5228960044808 L 513.6363636363636 288.83828747604116 L 518.6868686868687 285.2823072331502 L 523.7373737373737 283.9859574582213 L 528.7878787878788 284.3189329813862 L 533.8383838383838 281.5555823064223 L 538.8888888888889 282.36739141417763 L 543.939393939394 280.7201963984878 L 548.989898989899 280.37627450381126 L 554.040404040404 276.643374700846 L 559.090909090909 273.11209396290457 L 564.1414141414141 263.05780495000533 L 569.1919191919192 262.8020153798079 L 574.2424242424242 257.8269363070872 L 579.2929292929293 250.21303323019004 L 584.3434343434344 259.0548946497504 L 589.3939393939394 253.89325946767576 L 594.4444444444445 246.4513173381169 L 599.4949494949494 252.27525477601728 L 604.5454545454545 251.88333725240463 L 609.5959595959596 246.97346861510002 L 614.6464646464647 242.0461044951228 L 619.6969696969697 246.31359888627685 L 624.7474747474747 238.32415106366923 L 629.7979797979798 235.35216441886618 L 634.8484848484848 236.9630586469786 L 639.8989898989898 240.80252184440434 L 644.9494949494949 238.7556439304397 L 650 234.0981967490212" /><text  class="poloto_text poloto_legend_text" alignment-baseline="middle" text-anchor="start" font-size="large" x="675" y="150" >ns_contr</text><line  class="poloto_line poloto_legend_icon poloto1stroke poloto1legend" stroke="black" x1="680" x2="730" y1="131.25" y2="131.25" /><path  class="poloto_line poloto1stroke" fill="none" stroke="black" d=" M 150 399.8547968496904 L 155.05050505050505 398.2667309519102 L 160.1010101010101 395.4544490607015 L 165.15151515151516 391.7154679402297 L 170.2020202020202 396.68736601610084 L 175.25252525252526 395.7338154310781 L 180.3030303030303 394.8131039605906 L 185.35353535353534 394.2699019691618 L 190.40404040404042 393.29792031415775 L 195.45454545454544 392.34455684659673 L 200.50505050505052 392.0506888729354 L 205.55555555555554 389.6568951849064 L 210.6060606060606 387.81687562489435 L 215.65656565656565 387.0171355934212 L 220.7070707070707 386.4730915734146 L 225.75757575757575 384.99505074313697 L 230.8080808080808 385.08103121680614 L 235.85858585858585 383.8389455057816 L 240.9090909090909 382.88062342548454 L 245.95959595959596 382.31870968788184 L 251.010101010101 380.52266273137855 L 256.06060606060606 376.1418687171414 L 261.1111111111111 374.70508728717726 L 266.16161616161617 372.7122863196553 L 271.2121212121212 372.4306745397378 L 276.26262626262627 371.756209648899 L 281.3131313131313 371.0641557166568 L 286.3636363636364 368.9118371130021 L 291.4141414141414 368.9803221039986 L 296.4646464646464 369.5038767619448 L 301.5151515151515 367.0180212827401 L 306.5656565656566 365.23292069774857 L 311.6161616161616 364.44815006321454 L 316.66666666666663 364.43636166312496 L 321.7171717171717 361.5049795075193 L 326.7676767676768 360.45861866147396 L 331.8181818181818 361.17368804151016 L 336.86868686868684 359.2999873383851 L 341.9191919191919 358.1770018917575 L 346.969696969697 357.56699896648786 L 352.020202020202 356.59960168929643" /><text  class="poloto_text poloto_legend_text" alignment-baseline="middle" text-anchor="start" font-size="large" x="675" y="200" >ns_par_contr</text><line  class="poloto_line poloto_legend_icon poloto2stroke poloto2legend" stroke="black" x1="680" x2="730" y1="181.25" y2="181.25" /><path  class="poloto_line poloto2stroke" fill="none" stroke="black" d=" M 150 399.88108685306474 L 155.05050505050505 398.38854441950235 L 160.1010101010101 395.15702585526714 L 165.15151515151516 391.5120712593192 L 170.2020202020202 396.434757442753 L 175.25252525252526 395.94217072472463 L 180.3030303030303 394.27336364220395 L 185.35353535353534 394.1080453647574 L 190.40404040404042 393.26498764089166 L 195.45454545454544 392.15257433085236 L 200.50505050505052 391.94908409121103 L 205.55555555555554 385.0095523464218 L 210.6060606060606 383.8636450107312 L 215.65656565656565 384.4069405608908 L 220.7070707070707 379.3559853574349 L 225.75757575757575 383.2042430755624 L 230.8080808080808 385.3418729584705 L 235.85858585858585 383.30042145089635 L 240.9090909090909 380.83224857182597 L 245.95959595959596 375.05452914697514 L 251.010101010101 375.8695192515801 L 256.06060606060606 369.98373949257484 L 261.1111111111111 371.07809596755635 L 266.16161616161617 377.18093198217895 L 271.2121212121212 372.3579794058522 L 276.26262626262627 372.5083282863596 L 281.3131313131313 374.7816183290286 L 286.3636363636364 371.1147709900572 L 291.4141414141414 367.7465631200215 L 296.4646464646464 373.5951065041406 L 301.5151515151515 366.3199795917222 L 306.5656565656566 368.08561996069284 L 311.6161616161616 369.19747191834693 L 316.66666666666663 372.26460779244434 L 321.7171717171717 370.47314521375364 L 326.7676767676768 363.9407810657088 L 331.8181818181818 360.96243242720664 L 336.86868686868684 363.0907064370278 L 341.9191919191919 370.0992845251988 L 346.969696969697 362.20199205249764 L 352.020202020202 369.2485549854017 L 357.07070707070704 367.1613532584323 L 362.1212121212121 366.66081404828003 L 367.1717171717172 365.9619303286843 L 372.22222222222223 364.8449326408324 L 377.27272727272725 361.7420573315428 L 382.32323232323233 360.9911549575836 L 387.37373737373736 351.2239976897231 L 392.4242424242424 345.3964114613188 L 397.47474747474746 360.2600870345687 L 402.52525252525254 363.3319944039404 L 407.57575757575756 361.3472394872732 L 412.62626262626264 359.8308395773391 L 417.67676767676767 359.0055580123385 L 422.72727272727275 327.32563615259056 L 427.77777777777777 359.1175478131894 L 432.8282828282828 357.6423137448379 L 437.8787878787879 356.8590400499978 L 442.9292929292929 346.32975336047366 L 447.979797979798 338.6392256829943 L 453.030303030303 355.6340755867224 L 458.0808080808081 350.9291005700222 L 463.1313131313131 349.7667268976985 L 468.1818181818182 352.2355546878849 L 473.2323232323232 350.09015943031466 L 478.2828282828283 350.3591407815647 L 483.3333333333333 348.70586444836835 L 488.3838383838384 351.1740373274387 L 493.4343434343434 338.4757785801652 L 498.4848484848485 339.9920849313684 L 503.5353535353535 349.2573931668445 L 508.5858585858586 341.82022253256 L 513.6363636363636 345.5119564939427 L 518.6868686868687 333.5572089808897 L 523.7373737373737 345.6014921993849 L 528.7878787878788 332.81126521966655" /><text  class="poloto_text poloto_legend_text" alignment-baseline="middle" text-anchor="start" font-size="large" x="675" y="250" >ns_par_query</text><line  class="poloto_line poloto_legend_icon poloto3stroke poloto3legend" stroke="black" x1="680" x2="730" y1="231.25" y2="231.25" /><path  class="poloto_line poloto3stroke" fill="none" stroke="black" d=" M 150 399.90784465009347 L 155.05050505050505 383.7828102672599 L 160.1010101010101 370.1659919003088 L 165.15151515151516 386.3835558679724 L 170.2020202020202 380.9763290173651 L 175.25252525252526 369.93789571444876 L 180.3030303030303 376.08666906592833 L 185.35353535353534 371.2138496860481 L 190.40404040404042 362.94428702321693 L 195.45454545454544 355.3692108196306 L 200.50505050505052 342.56064632866185 L 205.55555555555554 310.3765364682577 L 210.6060606060606 363.97661405963186 L 215.65656565656565 350.7041853810117 L 220.7070707070707 356.33333354124164 L 225.75757575757575 340.9528395386681 L 230.8080808080808 345.12555893545135 L 235.85858585858585 332.36845174646083 L 240.9090909090909 324.71356994544277 L 245.95959595959596 335.37374529945345 L 251.010101010101 330.174686625031 L 256.06060606060606 325.3391036200368 L 261.1111111111111 326.53562622912784 L 266.16161616161617 324.87757840065717 L 271.2121212121212 317.8905188205862 L 276.26262626262627 321.8926806509941 L 281.3131313131313 322.08737636993374 L 286.3636363636364 316.81758729497386 L 291.4141414141414 301.0152369749094 L 296.4646464646464 314.42304513709786 L 301.5151515151515 292.5417162787826 L 306.5656565656566 304.37567947028293 L 311.6161616161616 303.6822221570776 L 316.66666666666663 279.53031645928854 L 321.7171717171717 293.679858239811 L 326.7676767676768 293.3132015735331 L 331.8181818181818 283.3603302248965 L 336.86868686868684 271.97919129080486 L 341.9191919191919 280.25174783302384 L 346.969696969697 272.4271504942084 L 352.020202020202 274.47608670025215 L 357.07070707070704 297.9141392815064 L 362.1212121212121 292.935972770667 L 367.1717171717172 290.0975879935457 L 372.22222222222223 284.5016531827745 L 377.27272727272725 276.42912520715464 L 382.32323232323233 274.83451019821354 L 387.37373737373736 242.64562884253505 L 392.4242424242424 232.33349196735924 L 397.47474747474746 275.189284905671 L 402.52525252525254 263.5369192107885 L 407.57575757575756 251.1016540559893 L 412.62626262626264 255.93798553083042 L 417.67676767676767 257.0267284819597 L 422.72727272727275 206.3118150331416 L 427.77777777777777 202.1721218683554 L 432.8282828282828 244.4602939864814 L 437.8787878787879 236.67564622574724 L 442.9292929292929 223.79672556916455 L 447.979797979798 182.39670648318346 L 453.030303030303 181.9288192701047 L 458.0808080808081 218.15045616118547 L 463.1313131313131 216.4271978972987 L 468.1818181818182 215.98176477962866 L 473.2323232323232 207.9499348519371 L 478.2828282828283 204.52989544499962 L 483.3333333333333 195.02255077276394 L 488.3838383838384 199.61993324896414 L 493.4343434343434 146.08459829935174 L 498.4848484848485 182.9966050655192 L 503.5353535353535 182.82071465148437 L 508.5858585858586 169.78723497150514 L 513.6363636363636 177.56262041788318 L 518.6868686868687 120.25789776026636 L 523.7373737373737 167.46192627447266 L 528.7878787878788 100" /><text  class="poloto_text poloto_legend_text" alignment-baseline="middle" text-anchor="start" font-size="large" x="675" y="300" >ns_query</text><line  class="poloto_line poloto_legend_icon poloto4stroke poloto4legend" stroke="black" x1="680" x2="730" y1="281.25" y2="281.25" /><path  class="poloto_line poloto4stroke" fill="none" stroke="black" d=" M 150 399.92955027565523 L 155.05050505050505 386.8756747923464 L 160.1010101010101 366.05277585635866 L 165.15151515151516 352.1840973859067 L 170.2020202020202 381.9057414498235 L 175.25252525252526 369.2563203600639 L 180.3030303030303 376.3620124108775 L 185.35353535353534 371.3748642618746 L 190.40404040404042 362.3449497932664 L 195.45454545454544 356.7292740902817 L 200.50505050505052 343.3745137284963 L 205.55555555555554 354.46459145085265 L 210.6060606060606 349.4733267176915 L 215.65656565656565 343.46854025302025 L 220.7070707070707 337.62093245620986 L 225.75757575757575 329.9377023597383 L 230.8080808080808 321.71024112579846 L 235.85858585858585 313.7494222748369 L 240.9090909090909 308.5856352419522 L 245.95959595959596 301.4079965270999 L 251.010101010101 293.3912295550783 L 256.06060606060606 302.06973743054044 L 261.1111111111111 296.62920367174354 L 266.16161616161617 294.8077087404438 L 271.2121212121212 288.95804265155425 L 276.26262626262627 281.4689469216371 L 281.3131313131313 276.77435692406334 L 286.3636363636364 268.2600446212774 L 291.4141414141414 261.1930858850438 L 296.4646464646464 256.6887007873279 L 301.5151515151515 251.57609038022892 L 306.5656565656566 240.17408784915338 L 311.6161616161616 234.53726787299217 L 316.66666666666663 223.06659323345835 L 321.7171717171717 224.16675034975373 L 326.7676767676768 214.30902823041146 L 331.8181818181818 200.75451997821955 L 336.86868686868684 192.9741759191054 L 341.9191919191919 191.43560258995518 L 346.969696969697 183.8198283384406 L 352.020202020202 174.8171394605154" /><text  class="poloto_text poloto_legend_text" alignment-baseline="middle" text-anchor="start" font-size="large" x="675" y="350" >par_contr</text><line  class="poloto_line poloto_legend_icon poloto5stroke poloto5legend" stroke="black" x1="680" x2="730" y1="331.25" y2="331.25" /><path  class="poloto_line poloto5stroke" fill="none" stroke="black" d=" M 150 399.8237353510417 L 155.05050505050505 396.90900664953085 L 160.1010101010101 392.2955320716211 L 165.15151515151516 388.20130845003746 L 170.2020202020202 395.2782779704741 L 175.25252525252526 393.519373830126 L 180.3030303030303 392.2311636647828 L 185.35353535353534 392.28234029056847 L 190.40404040404042 390.5994058396865 L 195.45454545454544 390.1899928334012 L 200.50505050505052 388.4833880236092 L 205.55555555555554 374.9768754003534 L 210.6060606060606 382.03822061273485 L 215.65656565656565 381.2685129338708 L 220.7070707070707 381.08738323090734 L 225.75757575757575 379.8710261708719 L 230.8080808080808 377.87354726680644 L 235.85858585858585 379.10178628566223 L 240.9090909090909 377.36009695179416 L 245.95959595959596 369.7472230209366 L 251.010101010101 370.49793827743406 L 256.06060606060606 364.9531800924485 L 261.1111111111111 367.9868219408946 L 266.16161616161617 368.85336290620864 L 271.2121212121212 377.5405717436416 L 276.26262626262627 365.9245068363365 L 281.3131313131313 367.7315001643515 L 286.3636363636364 363.8111086647236 L 291.4141414141414 363.13430480561306 L 296.4646464646464 363.8955921986988 L 301.5151515151515 359.1289619783555 L 306.5656565656566 360.82742717856183 L 311.6161616161616 360.79917244183923 L 316.66666666666663 360.59708558316095 L 321.7171717171717 360.70608150462397 L 326.7676767676768 366.339439807743 L 331.8181818181818 365.5452197413912 L 336.86868686868684 364.68794109043324 L 341.9191919191919 366.2635636770078 L 346.969696969697 356.82311349734385 L 352.020202020202 361.6477501308263 L 357.07070707070704 358.7387285118985 L 362.1212121212121 357.07310242622736 L 367.1717171717172 359.866766129993 L 372.22222222222223 336.59347047380015 L 377.27272727272725 355.93075032230985 L 382.32323232323233 355.3401140543302 L 387.37373737373736 353.6851536639782 L 392.4242424242424 342.0606684708948 L 397.47474747474746 353.32467187393775 L 402.52525252525254 350.16481929754855 L 407.57575757575756 353.86581557328736 L 412.62626262626264 347.4918463566047 L 417.67676767676767 339.9370723976171 L 422.72727272727275 339.74593191045057 L 427.77777777777777 348.21486822876483 L 432.8282828282828 347.0793459122008 L 437.8787878787879 332.41747652143647 L 442.9292929292929 336.1109880987057 L 447.979797979798 341.5357104319856 L 453.030303030303 344.6387728587369 L 458.0808080808081 338.6585923402843 L 463.1313131313131 339.527565832601 L 468.1818181818182 342.22121525306704 L 473.2323232323232 343.1503470093328 L 478.2828282828283 340.0345605951832 L 483.3333333333333 322.61439270092205 L 488.3838383838384 337.0940096839524 L 493.4343434343434 331.83675747892903 L 498.4848484848485 334.93102538497857 L 503.5353535353535 331.554116552972 L 508.5858585858586 328.00711794824457 L 513.6363636363636 332.8372745468483 L 518.6868686868687 319.32683245689594 L 523.7373737373737 329.4963858262265 L 528.7878787878788 318.42857508181714 L 533.8383838383838 330.3286842960423 L 538.8888888888889 328.4599422056533 L 543.939393939394 322.42774303283727 L 548.989898989899 323.2702394043178 L 554.040404040404 327.61847498021234 L 559.090909090909 318.73076978252584 L 564.1414141414141 315.0509177799636 L 569.1919191919192 309.46143852162237 L 574.2424242424242 310.837593893983 L 579.2929292929293 315.608714933408 L 584.3434343434344 316.25810608437376 L 589.3939393939394 310.25303894350986 L 594.4444444444445 312.52127681471194 L 599.4949494949494 310.3834598143421 L 604.5454545454545 316.321071110249 L 609.5959595959596 299.8112296673488 L 614.6464646464647 306.0292364796719 L 619.6969696969697 309.1413741033175 L 624.7474747474747 304.30803650786424 L 629.7979797979798 294.70591684125765 L 634.8484848484848 310.8785726181039 L 639.8989898989898 304.49187941402295 L 644.9494949494949 308.65206194086966 L 650 302.0242678873378" /><text  class="poloto_text poloto_legend_text" alignment-baseline="middle" text-anchor="start" font-size="large" x="675" y="400" >par_query</text><line  class="poloto_line poloto_legend_icon poloto6stroke poloto6legend" stroke="black" x1="680" x2="730" y1="381.25" y2="381.25" /><path  class="poloto_line poloto6stroke" fill="none" stroke="black" d=" M 150 399.8957755738113 L 155.05050505050505 394.2261164831148 L 160.1010101010101 385.23203500842965 L 165.15151515151516 376.481486910198 L 170.2020202020202 390.9692435028139 L 175.25252525252526 386.75152235648244 L 180.3030303030303 386.37550981711763 L 185.35353535353534 386.8328248936081 L 190.40404040404042 382.8914762382654 L 195.45454545454544 382.6526207983554 L 200.50505050505052 380.2098023353507 L 205.55555555555554 378.93581309709964 L 210.6060606060606 376.718938969145 L 215.65656565656565 376.254045635454 L 220.7070707070707 375.6584507547383 L 225.75757575757575 374.24356206779765 L 230.8080808080808 373.57854660877666 L 235.85858585858585 370.91100007422324 L 240.9090909090909 365.36165751142505 L 245.95959595959596 365.22562311674073 L 251.010101010101 358.99657637417505 L 256.06060606060606 359.73990049093385 L 261.1111111111111 372.5418223120109 L 266.16161616161617 371.5716182728934 L 271.2121212121212 368.99847249778736 L 276.26262626262627 357.52985615033265 L 281.3131313131313 359.2344026680455 L 286.3636363636364 367.6604890876215 L 291.4141414141414 361.1007122314319 L 296.4646464646464 354.58247545174834 L 301.5151515151515 353.8753585638361 L 306.5656565656566 352.0645293278554 L 311.6161616161616 356.8276043164256 L 316.66666666666663 352.6195197193737 L 321.7171717171717 360.7116950284762 L 326.7676767676768 344.76348664698605 L 331.8181818181818 347.25925935166293 L 336.86868686868684 341.48827615543473 L 341.9191919191919 352.88082925469246 L 346.969696969697 339.40285204435185 L 352.020202020202 350.0146575345029 L 357.07070707070704 352.72514752652546 L 362.1212121212121 352.12197438860926 L 367.1717171717172 350.40432964857473 L 372.22222222222223 351.27667125520264 L 377.27272727272725 333.65759749911274 L 382.32323232323233 347.2396120181803 L 387.37373737373736 343.4797673007246 L 392.4242424242424 342.7424309427414 L 397.47474747474746 346.5953665974124 L 402.52525252525254 343.72545252798807 L 407.57575757575756 342.59292409081183 L 412.62626262626264 342.2604163613014 L 417.67676767676767 340.98511730081816 L 422.72727272727275 337.85249031511205 L 427.77777777777777 338.99605868253093 L 432.8282828282828 334.5233899945798 L 437.8787878787879 336.6642944330684 L 442.9292929292929 334.61152231905896 L 447.979797979798 334.5317167216272 L 453.030303030303 333.44840017688836 L 458.0808080808081 333.38057009700793 L 463.1313131313131 331.2401334521737 L 468.1818181818182 329.7823948664948 L 473.2323232323232 331.56263039748114 L 478.2828282828283 328.87160062147944 L 483.3333333333333 328.5220652029507 L 488.3838383838384 327.34331875272494 L 493.4343434343434 326.5474146292174 L 498.4848484848485 324.636664668668 L 503.5353535353535 321.4861679653658 L 508.5858585858586 319.1597365635629 L 513.6363636363636 320.1899117491678 L 518.6868686868687 321.32702456415666 L 523.7373737373737 318.1143113048262 L 528.7878787878788 318.7689417447206 L 533.8383838383838 317.4828834301874 L 538.8888888888889 312.1812843867319 L 543.939393939394 314.6482410023009 L 548.989898989899 312.27886614302884 L 554.040404040404 311.24204828753216 L 559.090909090909 312.2024286599084 L 564.1414141414141 318.8514605453476 L 569.1919191919192 316.47216846060337 L 574.2424242424242 314.0941861980913 L 579.2929292929293 317.3602279340174 L 584.3434343434344 314.26970237720263 L 589.3939393939394 308.806059611881 L 594.4444444444445 315.6263039748115 L 599.4949494949494 307.172617729629 L 604.5454545454545 309.40764225137235 L 609.5959595959596 311.17477956003694 L 614.6464646464647 306.61407210633763 L 619.6969696969697 306.56757341709545 L 624.7474747474747 311.9497265278297 L 629.7979797979798 283.08489332121644 L 634.8484848484848 303.57238420703675 L 639.8989898989898 283.09808510226907 L 644.9494949494949 305.61261945110965 L 650 301.54571497893994" /><text  class="poloto_text poloto_legend_text" alignment-baseline="middle" text-anchor="start" font-size="large" x="675" y="450" >query</text><line  class="poloto_line poloto_legend_icon poloto7stroke poloto7legend" stroke="black" x1="680" x2="730" y1="431.25" y2="431.25" /><path  class="poloto_line poloto7stroke" fill="none" stroke="black" d=" M 150 399.86246866562175 L 155.05050505050505 390.5348503153865 L 160.1010101010101 383.5617309862151 L 165.15151515151516 375.2066556433691 L 170.2020202020202 389.93120938381594 L 175.25252525252526 385.09057420735485 L 180.3030303030303 385.58334804284493 L 185.35353535353534 385.6562302941923 L 190.40404040404042 382.62885688071447 L 195.45454545454544 381.1907656285182 L 200.50505050505052 380.0993094741937 L 205.55555555555554 375.4852735438987 L 210.6060606060606 373.30086429555575 L 215.65656565656565 372.85253085722877 L 220.7070707070707 371.208891073312 L 225.75757575757575 366.9925733079436 L 230.8080808080808 367.6189490111154 L 235.85858585858585 365.01857764532633 L 240.9090909090909 361.81119723365543 L 245.95959595959596 358.38517006794234 L 251.010101010101 357.3661283713109 L 256.06060606060606 359.1163315496881 L 261.1111111111111 357.7755413775962 L 266.16161616161617 355.06280597603273 L 271.2121212121212 352.7235570281007 L 276.26262626262627 346.89784197431374 L 281.3131313131313 347.178143931999 L 286.3636363636364 344.0259631715412 L 291.4141414141414 343.91004390399377 L 296.4646464646464 341.7732560496635 L 301.5151515151515 340.43321434741847 L 306.5656565656566 337.57873746858763 L 311.6161616161616 334.38389392685326 L 316.66666666666663 323.41001614823693 L 321.7171717171717 332.0385636614147 L 326.7676767676768 326.36581713259955 L 331.8181818181818 324.4137142130058 L 336.86868686868684 323.4081449736195 L 341.9191919191919 320.69812277525136 L 346.969696969697 316.40882919980464 L 352.020202020202 314.034121492873 L 357.07070707070704 315.95553714874154 L 362.1212121212121 309.98396403352893 L 367.1717171717172 311.9203490863366 L 372.22222222222223 309.236429773881 L 377.27272727272725 308.3699823672979 L 382.32323232323233 306.7500129422911 L 387.37373737373736 291.59415345253547 L 392.4242424242424 299.63636839935356 L 397.47474747474746 287.81718748733056 L 402.52525252525254 297.9786012470755 L 407.57575757575756 297.0511535479654 L 412.62626262626264 290.4314991040192 L 417.67676767676767 289.77078734661825 L 422.72727272727275 290.4867923139632 L 427.77777777777777 285.0093964152037 L 432.8282828282828 281.59235088765405 L 437.8787878787879 280.6790305569052 L 442.9292929292929 264.44135146210465 L 447.979797979798 280.3973252182569 L 453.030303030303 272.3277911220249 L 458.0808080808081 275.4615408125014 L 463.1313131313131 261.66359274258684 L 468.1818181818182 267.253165559659 L 473.2323232323232 263.94689356945895 L 478.2828282828283 265.40584841863915 L 483.3333333333333 263.56676444593586 L 488.3838383838384 263.8728886133411 L 493.4343434343434 259.7764195822166 L 498.4848484848485 254.03322332905668 L 503.5353535353535 251.9839128880894 L 508.5858585858586 254.50475933263934 L 513.6363636363636 247.06655955231523 L 518.6868686868687 247.38999208493138 L 523.7373737373737 249.11109849800815 L 528.7878787878788 244.71159273759707 L 533.8383838383838 239.9707847269738 L 538.8888888888889 241.4372242746236 L 543.939393939394 232.9536927942937 L 548.989898989899 233.88001778863335 L 554.040404040404 235.7581157521093 L 559.090909090909 226.05195877677573 L 564.1414141414141 239.70694910592158 L 569.1919191919192 225.97720535081095 L 574.2424242424242 218.3921183630216 L 579.2929292929293 223.5317672433419 L 584.3434343434344 215.8097102735595 L 589.3939393939394 232.66890001752668 L 594.4444444444445 211.11100369182753 L 599.4949494949494 228.04504042049035 L 604.5454545454545 207.15141108396523 L 609.5959595959596 201.45246811050657 L 614.6464646464647 202.91656868988463 L 619.6969696969697 220.52282489984538 L 624.7474747474747 219.83395196445267 L 629.7979797979798 214.91828268583416 L 634.8484848484848 193.88515728158248 L 639.8989898989898 193.09935750100888 L 644.9494949494949 191.8781353869683 L 650 187.82975554351074" /><text  class="poloto_labels poloto_text poloto_title" alignment-baseline="start" text-anchor="middle" font-size="x-large" x="400" y="37.5" >Bench of construction vs query abspiral(x,1.5)</text><text  class="poloto_labels poloto_text poloto_xname" alignment-baseline="start" text-anchor="middle" font-size="x-large" x="400" y="481.25" >Number of Elements</text><text  class="poloto_labels poloto_text poloto_yname" alignment-baseline="start" text-anchor="middle" font-size="x-large" transform="rotate(-90,37.5,250)" x="37.5" y="250" >Time in Seconds</text><line  class="poloto_axis_lines" stroke="black" x1="150" x2="150" y1="400" y2="405" /><text  class="poloto_tick_labels poloto_text" alignment-baseline="start" text-anchor="middle" x="150" y="430" > 0</text><line  class="poloto_axis_lines" stroke="black" x1="276.26262626262627" x2="276.26262626262627" y1="400" y2="405" /><text  class="poloto_tick_labels poloto_text" alignment-baseline="start" text-anchor="middle" x="276.26262626262627" y="430" > 5000</text><line  class="poloto_axis_lines" stroke="black" x1="402.52525252525254" x2="402.52525252525254" y1="400" y2="405" /><text  class="poloto_tick_labels poloto_text" alignment-baseline="start" text-anchor="middle" x="402.52525252525254" y="430" > 10000</text><line  class="poloto_axis_lines" stroke="black" x1="528.7878787878788" x2="528.7878787878788" y1="400" y2="405" /><text  class="poloto_tick_labels poloto_text" alignment-baseline="start" text-anchor="middle" x="528.7878787878788" y="430" > 15000</text><line  class="poloto_axis_lines" stroke="black" x1="150" x2="144" y1="400" y2="400" /><text  class="poloto_tick_labels poloto_text" alignment-baseline="middle" text-anchor="end" x="135" y="400" > 0e0</text><line  class="poloto_axis_lines" stroke="black" x1="150" x2="144" y1="306.44126913042146" y2="306.44126913042146" /><text  class="poloto_tick_labels poloto_text" alignment-baseline="middle" text-anchor="end" x="135" y="306.44126913042146" > 0.001</text><line  class="poloto_axis_lines" stroke="black" x1="150" x2="144" y1="212.88253826084298" y2="212.88253826084298" /><text  class="poloto_tick_labels poloto_text" alignment-baseline="middle" text-anchor="end" x="135" y="212.88253826084298" > 0.002</text><line  class="poloto_axis_lines" stroke="black" x1="150" x2="144" y1="119.3238073912645" y2="119.3238073912645" /><text  class="poloto_tick_labels poloto_text" alignment-baseline="middle" text-anchor="end" x="135" y="119.3238073912645" > 0.003</text><path  stroke="black" fill="none" class="poloto_axis_lines" style="stroke-dasharray:12.626262626262626;stroke-dashoffset:-0;" d=" M 150 400 L 650 400" /><path  stroke="black" fill="none" class="poloto_axis_lines" style="stroke-dasharray:11.694841358697314;stroke-dashoffset:-0;" d=" M 150 400 L 150 100" /></svg>