<svg class="poloto" width="800" height="500" viewBox="0 0 800 500" xmlns="http://www.w3.org/2000/svg"><circle  r="1e5" class="poloto_background" /><text  class="poloto_text poloto_legend_text" x="675" y="100" >brocc_constr</text><line  class="poloto_scatter poloto_legend_icon poloto0stroke poloto0legend" stroke="black" x1="685" x2="685" y1="81.25" y2="81.25" /><path  class="poloto_scatter poloto0stroke" d=" M 150.00 400.00 h 0 M 155.05 399.91 h 0 M 160.10 399.80 h 0 M 165.15 399.55 h 0 M 170.20 399.39 h 0 M 175.25 399.22 h 0 M 180.30 399.07 h 0 M 185.35 398.86 h 0 M 190.40 398.65 h 0 M 195.45 398.17 h 0 M 200.51 398.00 h 0 M 205.56 397.66 h 0 M 210.61 397.57 h 0 M 215.66 397.16 h 0 M 220.71 396.96 h 0 M 225.76 396.82 h 0 M 230.81 396.52 h 0 M 235.86 396.23 h 0 M 240.91 396.09 h 0 M 245.96 395.88 h 0 M 251.01 395.56 h 0 M 256.06 395.35 h 0 M 261.11 394.99 h 0 M 266.16 394.91 h 0 M 271.21 394.23 h 0 M 276.26 394.29 h 0 M 281.31 393.99 h 0 M 286.36 393.90 h 0 M 291.41 393.35 h 0 M 296.46 393.49 h 0 M 301.52 392.93 h 0 M 306.57 392.88 h 0 M 311.62 392.52 h 0 M 316.67 392.38 h 0 M 321.72 392.00 h 0 M 326.77 390.20 h 0 M 331.82 390.26 h 0 M 336.87 389.69 h 0 M 341.92 389.44 h 0 M 346.97 389.50 h 0 M 352.02 389.00 h 0 M 357.07 388.75 h 0 M 362.12 388.46 h 0 M 367.17 387.86 h 0 M 372.22 387.79 h 0 M 377.27 387.40 h 0 M 382.32 387.29 h 0 M 387.37 386.70 h 0 M 392.42 386.58 h 0 M 397.47 386.48 h 0 M 402.53 385.86 h 0 M 407.58 385.84 h 0 M 412.63 385.50 h 0 M 417.68 385.14 h 0 M 422.73 384.86 h 0 M 427.78 384.32 h 0 M 432.83 384.59 h 0 M 437.88 383.98 h 0 M 442.93 383.33 h 0 M 447.98 382.92 h 0 M 453.03 382.87 h 0 M 458.08 381.95 h 0 M 463.13 382.32 h 0 M 468.18 381.36 h 0 M 473.23 382.02 h 0 M 478.28 380.70 h 0 M 483.33 381.18 h 0 M 488.38 380.88 h 0 M 493.43 380.33 h 0 M 498.48 380.41 h 0 M 503.54 379.81 h 0 M 508.59 379.49 h 0 M 513.64 379.11 h 0 M 518.69 379.12 h 0 M 523.74 378.00 h 0 M 528.79 377.98 h 0 M 533.84 377.93 h 0 M 538.89 377.83 h 0 M 543.94 377.59 h 0 M 548.99 377.00 h 0 M 554.04 376.19 h 0 M 559.09 375.71 h 0 M 564.14 376.10 h 0 M 569.19 375.21 h 0 M 574.24 374.69 h 0 M 579.29 374.72 h 0 M 584.34 373.83 h 0 M 589.39 374.02 h 0 M 594.44 373.90 h 0 M 599.49 374.17 h 0 M 604.55 373.22 h 0 M 609.60 373.10 h 0 M 614.65 372.95 h 0 M 619.70 372.24 h 0 M 624.75 372.04 h 0 M 629.80 371.34 h 0 M 634.85 370.97 h 0 M 639.90 371.56 h 0 M 644.95 370.94 h 0 M 650.00 370.84 h 0" /><text  class="poloto_text poloto_legend_text" x="675" y="150" >brocc_query</text><line  class="poloto_scatter poloto_legend_icon poloto1stroke poloto1legend" stroke="black" x1="685" x2="685" y1="131.25" y2="131.25" /><path  class="poloto_scatter poloto1stroke" d=" M 150.00 400.00 h 0 M 155.05 399.63 h 0 M 160.10 399.00 h 0 M 165.15 398.57 h 0 M 170.20 397.99 h 0 M 175.25 397.27 h 0 M 180.30 396.55 h 0 M 185.35 395.72 h 0 M 190.40 394.89 h 0 M 195.45 395.17 h 0 M 200.51 394.54 h 0 M 205.56 393.75 h 0 M 210.61 393.17 h 0 M 215.66 392.29 h 0 M 220.71 391.58 h 0 M 225.76 390.91 h 0 M 230.81 390.11 h 0 M 235.86 389.24 h 0 M 240.91 388.55 h 0 M 245.96 387.70 h 0 M 251.01 386.82 h 0 M 256.06 386.07 h 0 M 261.11 385.05 h 0 M 266.16 384.33 h 0 M 271.21 383.07 h 0 M 276.26 382.48 h 0 M 281.31 381.53 h 0 M 286.36 380.70 h 0 M 291.41 379.47 h 0 M 296.46 378.95 h 0 M 301.52 377.81 h 0 M 306.57 377.00 h 0 M 311.62 375.90 h 0 M 316.67 375.02 h 0 M 321.72 373.85 h 0 M 326.77 377.71 h 0 M 331.82 377.39 h 0 M 336.87 376.29 h 0 M 341.92 375.56 h 0 M 346.97 375.17 h 0 M 352.02 374.11 h 0 M 357.07 373.43 h 0 M 362.12 372.52 h 0 M 367.17 371.48 h 0 M 372.22 370.89 h 0 M 377.27 370.05 h 0 M 382.32 369.51 h 0 M 387.37 368.32 h 0 M 392.42 367.70 h 0 M 397.47 367.11 h 0 M 402.53 365.98 h 0 M 407.58 365.54 h 0 M 412.63 364.58 h 0 M 417.68 363.73 h 0 M 422.73 362.86 h 0 M 427.78 361.83 h 0 M 432.83 361.56 h 0 M 437.88 360.37 h 0 M 442.93 359.22 h 0 M 447.98 358.31 h 0 M 453.03 357.76 h 0 M 458.08 356.29 h 0 M 463.13 356.12 h 0 M 468.18 354.48 h 0 M 473.23 354.55 h 0 M 478.28 352.61 h 0 M 483.33 352.49 h 0 M 488.38 351.69 h 0 M 493.43 350.70 h 0 M 498.48 350.14 h 0 M 503.54 348.89 h 0 M 508.59 347.99 h 0 M 513.64 347.04 h 0 M 518.69 346.45 h 0 M 523.74 344.82 h 0 M 528.79 344.10 h 0 M 533.84 343.50 h 0 M 538.89 342.75 h 0 M 543.94 341.98 h 0 M 548.99 340.85 h 0 M 554.04 339.37 h 0 M 559.09 338.09 h 0 M 564.14 337.81 h 0 M 569.19 336.29 h 0 M 574.24 335.25 h 0 M 579.29 334.56 h 0 M 584.34 333.01 h 0 M 589.39 332.59 h 0 M 594.44 331.97 h 0 M 599.49 331.54 h 0 M 604.55 329.93 h 0 M 609.60 329.32 h 0 M 614.65 328.42 h 0 M 619.70 326.98 h 0 M 624.75 326.08 h 0 M 629.80 324.64 h 0 M 634.85 323.65 h 0 M 639.90 323.59 h 0 M 644.95 322.13 h 0 M 650.00 321.40 h 0" /><text  class="poloto_text poloto_legend_text" x="675" y="200" >nosort_constr</text><line  class="poloto_scatter poloto_legend_icon poloto2stroke poloto2legend" stroke="black" x1="685" x2="685" y1="181.25" y2="181.25" /><path  class="poloto_scatter poloto2stroke" d=" M 150.00 400.00 h 0 M 155.05 399.98 h 0 M 160.10 399.96 h 0 M 165.15 399.69 h 0 M 170.20 399.61 h 0 M 175.25 399.52 h 0 M 180.30 399.46 h 0 M 185.35 399.32 h 0 M 190.40 399.21 h 0 M 195.45 398.57 h 0 M 200.51 398.45 h 0 M 205.56 398.18 h 0 M 210.61 398.18 h 0 M 215.66 397.83 h 0 M 220.71 397.66 h 0 M 225.76 397.60 h 0 M 230.81 397.33 h 0 M 235.86 397.20 h 0 M 240.91 397.09 h 0 M 245.96 397.00 h 0 M 251.01 396.75 h 0 M 256.06 396.60 h 0 M 261.11 396.35 h 0 M 266.16 396.33 h 0 M 271.21 395.71 h 0 M 276.26 395.84 h 0 M 281.31 395.67 h 0 M 286.36 395.64 h 0 M 291.41 395.13 h 0 M 296.46 395.34 h 0 M 301.52 395.00 h 0 M 306.57 394.96 h 0 M 311.62 394.66 h 0 M 316.67 394.63 h 0 M 321.72 394.35 h 0 M 326.77 391.70 h 0 M 331.82 391.81 h 0 M 336.87 391.29 h 0 M 341.92 391.17 h 0 M 346.97 391.24 h 0 M 352.02 390.77 h 0 M 357.07 390.59 h 0 M 362.12 390.42 h 0 M 367.17 389.89 h 0 M 372.22 389.88 h 0 M 377.27 389.53 h 0 M 382.32 389.46 h 0 M 387.37 388.97 h 0 M 392.42 388.92 h 0 M 397.47 388.85 h 0 M 402.53 388.33 h 0 M 407.58 388.36 h 0 M 412.63 388.05 h 0 M 417.68 387.76 h 0 M 422.73 387.55 h 0 M 427.78 387.09 h 0 M 432.83 387.41 h 0 M 437.88 386.92 h 0 M 442.93 386.30 h 0 M 447.98 386.00 h 0 M 453.03 386.03 h 0 M 458.08 385.12 h 0 M 463.13 385.55 h 0 M 468.18 384.74 h 0 M 473.23 385.43 h 0 M 478.28 384.24 h 0 M 483.33 384.75 h 0 M 488.38 384.54 h 0 M 493.43 384.12 h 0 M 498.48 384.24 h 0 M 503.54 383.70 h 0 M 508.59 383.44 h 0 M 513.64 383.18 h 0 M 518.69 383.19 h 0 M 523.74 382.14 h 0 M 528.79 382.25 h 0 M 533.84 382.27 h 0 M 538.89 382.24 h 0 M 543.94 382.04 h 0 M 548.99 381.62 h 0 M 554.04 380.82 h 0 M 559.09 380.44 h 0 M 564.14 380.86 h 0 M 569.19 380.09 h 0 M 574.24 379.63 h 0 M 579.29 379.78 h 0 M 584.34 378.88 h 0 M 589.39 379.28 h 0 M 594.44 379.19 h 0 M 599.49 379.56 h 0 M 604.55 378.70 h 0 M 609.60 378.65 h 0 M 614.65 378.50 h 0 M 619.70 377.98 h 0 M 624.75 377.82 h 0 M 629.80 377.19 h 0 M 634.85 376.83 h 0 M 639.90 377.51 h 0 M 644.95 377.07 h 0 M 650.00 376.93 h 0" /><text  class="poloto_text poloto_legend_text" x="675" y="250" >nosort_query</text><line  class="poloto_scatter poloto_legend_icon poloto3stroke poloto3legend" stroke="black" x1="685" x2="685" y1="231.25" y2="231.25" /><path  class="poloto_scatter poloto3stroke" d=" M 150.00 400.00 h 0 M 155.05 399.32 h 0 M 160.10 397.56 h 0 M 165.15 396.93 h 0 M 170.20 395.24 h 0 M 175.25 393.17 h 0 M 180.30 390.57 h 0 M 185.35 387.64 h 0 M 190.40 384.78 h 0 M 195.45 388.47 h 0 M 200.51 386.53 h 0 M 205.56 384.35 h 0 M 210.61 382.23 h 0 M 215.66 379.67 h 0 M 220.71 377.23 h 0 M 225.76 374.64 h 0 M 230.81 371.73 h 0 M 235.86 368.91 h 0 M 240.91 366.35 h 0 M 245.96 363.25 h 0 M 251.01 360.08 h 0 M 256.06 356.53 h 0 M 261.11 353.39 h 0 M 266.16 350.64 h 0 M 271.21 346.59 h 0 M 276.26 342.71 h 0 M 281.31 338.84 h 0 M 286.36 335.31 h 0 M 291.41 331.46 h 0 M 296.46 327.54 h 0 M 301.52 323.70 h 0 M 306.57 318.65 h 0 M 311.62 314.44 h 0 M 316.67 310.12 h 0 M 321.72 305.70 h 0 M 326.77 338.50 h 0 M 331.82 336.13 h 0 M 336.87 332.73 h 0 M 341.92 330.41 h 0 M 346.97 327.69 h 0 M 352.02 324.39 h 0 M 357.07 322.46 h 0 M 362.12 318.83 h 0 M 367.17 315.77 h 0 M 372.22 313.97 h 0 M 377.27 310.57 h 0 M 382.32 308.17 h 0 M 387.37 304.34 h 0 M 392.42 301.12 h 0 M 397.47 298.09 h 0 M 402.53 294.47 h 0 M 407.58 292.69 h 0 M 412.63 289.84 h 0 M 417.68 286.85 h 0 M 422.73 282.73 h 0 M 427.78 278.45 h 0 M 432.83 275.52 h 0 M 437.88 271.44 h 0 M 442.93 268.29 h 0 M 447.98 265.09 h 0 M 453.03 263.15 h 0 M 458.08 259.17 h 0 M 463.13 255.96 h 0 M 468.18 251.65 h 0 M 473.23 247.89 h 0 M 478.28 241.87 h 0 M 483.33 239.61 h 0 M 488.38 237.18 h 0 M 493.43 233.24 h 0 M 498.48 229.86 h 0 M 503.54 226.17 h 0 M 508.59 223.49 h 0 M 513.64 218.68 h 0 M 518.69 214.41 h 0 M 523.74 207.97 h 0 M 528.79 204.46 h 0 M 533.84 201.20 h 0 M 538.89 197.30 h 0 M 543.94 192.70 h 0 M 548.99 190.01 h 0 M 554.04 186.30 h 0 M 559.09 182.43 h 0 M 564.14 177.82 h 0 M 569.19 173.00 h 0 M 574.24 168.65 h 0 M 579.29 163.87 h 0 M 584.34 158.07 h 0 M 589.39 155.22 h 0 M 594.44 150.43 h 0 M 599.49 146.84 h 0 M 604.55 142.73 h 0 M 609.60 140.09 h 0 M 614.65 134.60 h 0 M 619.70 131.04 h 0 M 624.75 126.59 h 0 M 629.80 119.41 h 0 M 634.85 116.60 h 0 M 639.90 111.31 h 0 M 644.95 105.07 h 0 M 650.00 100.00 h 0" /><text  class="poloto_labels poloto_text poloto_title" x="400" y="37.5" >Complexity of construction vs query with abspiral(x,1.5)</text><text  class="poloto_labels poloto_text poloto_xname" x="400" y="481.25" >Number of Elements</text><text  class="poloto_labels poloto_text poloto_yname" transform="rotate(-90,37.5,250)" x="37.5" y="250" >Number of Comparisons</text><text  class="poloto_tick_labels poloto_text" dominant-baseline="middle" text-anchor="start" x="150" y="70" ></text><line  class="poloto_axis_lines" stroke="black" x1="150" x2="144" y1="400" y2="400" /><text  class="poloto_tick_labels poloto_text" dominant-baseline="middle" text-anchor="end" x="135" y="400" >0</text><line  class="poloto_axis_lines" stroke="black" x1="150" x2="144" y1="316.88083704321866" y2="316.88083704321866" /><text  class="poloto_tick_labels poloto_text" dominant-baseline="middle" text-anchor="end" x="135" y="316.88083704321866" >5e5</text><line  class="poloto_axis_lines" stroke="black" x1="150" x2="144" y1="233.76167408643732" y2="233.76167408643732" /><text  class="poloto_tick_labels poloto_text" dominant-baseline="middle" text-anchor="end" x="135" y="233.76167408643732" >1e6</text><line  class="poloto_axis_lines" stroke="black" x1="150" x2="144" y1="150.64251112965593" y2="150.64251112965593" /><text  class="poloto_tick_labels poloto_text" dominant-baseline="middle" text-anchor="end" x="135" y="150.64251112965593" >1.5e6</text><text  class="poloto_tick_labels poloto_text" dominant-baseline="middle" text-anchor="start" x="440.00000000000006" y="70" ></text><line  class="poloto_axis_lines" stroke="black" x1="150" x2="150" y1="400" y2="405" /><text  class="poloto_tick_labels poloto_text" dominant-baseline="start" text-anchor="middle" x="150" y="430" >0</text><line  class="poloto_axis_lines" stroke="black" x1="234.17508417508418" x2="234.17508417508418" y1="400" y2="405" /><text  class="poloto_tick_labels poloto_text" dominant-baseline="start" text-anchor="middle" x="234.17508417508418" y="430" >1000</text><line  class="poloto_axis_lines" stroke="black" x1="318.35016835016836" x2="318.35016835016836" y1="400" y2="405" /><text  class="poloto_tick_labels poloto_text" dominant-baseline="start" text-anchor="middle" x="318.35016835016836" y="430" >2000</text><line  class="poloto_axis_lines" stroke="black" x1="402.52525252525254" x2="402.52525252525254" y1="400" y2="405" /><text  class="poloto_tick_labels poloto_text" dominant-baseline="start" text-anchor="middle" x="402.52525252525254" y="430" >3000</text><line  class="poloto_axis_lines" stroke="black" x1="486.7003367003367" x2="486.7003367003367" y1="400" y2="405" /><text  class="poloto_tick_labels poloto_text" dominant-baseline="start" text-anchor="middle" x="486.7003367003367" y="430" >4000</text><line  class="poloto_axis_lines" stroke="black" x1="570.8754208754209" x2="570.8754208754209" y1="400" y2="405" /><text  class="poloto_tick_labels poloto_text" dominant-baseline="start" text-anchor="middle" x="570.8754208754209" y="430" >5000</text><path  stroke="black" fill="none" class="poloto_axis_lines" style="stroke-dasharray:8.417508417508419;stroke-dashoffset:-0;" d=" M 150 400 L 650 400" /><path  stroke="black" fill="none" class="poloto_axis_lines" style="stroke-dasharray:8.311916295678135;stroke-dashoffset:-0;" d=" M 150 400 L 150 100" /></svg>