<svg class="poloto" width="800" height="500" viewBox="0 0 800 500" xmlns="http://www.w3.org/2000/svg"><circle  r="1e5" class="poloto_background" /><text  class="poloto_text poloto_legend_text" x="675" y="100" >contr</text><line  class="poloto_scatter poloto_legend_icon poloto0stroke poloto0legend" stroke="black" x1="685" x2="685" y1="81.25" y2="81.25" /><path  class="poloto_scatter poloto0stroke" d=" M 150.00 399.85 h 0 M 155.05 399.00 h 0 M 160.10 398.68 h 0 M 165.15 396.75 h 0 M 170.20 395.29 h 0 M 175.25 396.09 h 0 M 180.30 396.52 h 0 M 185.35 395.86 h 0 M 190.40 395.41 h 0 M 195.45 395.78 h 0 M 200.51 394.79 h 0 M 205.56 393.44 h 0 M 210.61 393.10 h 0 M 215.66 392.93 h 0 M 220.71 391.33 h 0 M 225.76 391.49 h 0 M 230.81 390.77 h 0 M 235.86 390.31 h 0 M 240.91 389.54 h 0 M 245.96 388.95 h 0 M 251.01 388.20 h 0 M 256.06 387.94 h 0 M 261.11 387.09 h 0 M 266.16 385.35 h 0 M 271.21 385.03 h 0 M 276.26 386.05 h 0 M 281.31 380.53 h 0 M 286.36 383.99 h 0 M 291.41 383.79 h 0 M 296.46 383.45 h 0 M 301.52 382.18 h 0 M 306.57 378.15 h 0 M 311.62 381.09 h 0 M 316.67 381.02 h 0 M 321.72 377.50 h 0 M 326.77 378.92 h 0 M 331.82 378.52 h 0 M 336.87 378.23 h 0 M 341.92 377.20 h 0 M 346.97 377.05 h 0 M 352.02 376.25 h 0 M 357.07 370.91 h 0 M 362.12 370.64 h 0 M 367.17 369.88 h 0 M 372.22 370.20 h 0 M 377.27 368.88 h 0 M 382.32 367.08 h 0 M 387.37 364.27 h 0 M 392.42 367.42 h 0 M 397.47 365.48 h 0 M 402.53 362.78 h 0 M 407.58 364.98 h 0 M 412.63 355.66 h 0 M 417.68 363.37 h 0 M 422.73 362.02 h 0 M 427.78 362.50 h 0 M 432.83 359.77 h 0 M 437.88 358.58 h 0 M 442.93 358.88 h 0 M 447.98 358.83 h 0 M 453.03 357.38 h 0 M 458.08 356.78 h 0 M 463.13 351.97 h 0 M 468.18 353.88 h 0 M 473.23 355.50 h 0 M 478.28 355.79 h 0 M 483.33 349.74 h 0 M 488.38 352.61 h 0 M 493.43 353.44 h 0 M 498.48 346.79 h 0 M 503.54 351.69 h 0 M 508.59 349.01 h 0 M 513.64 346.18 h 0 M 518.69 347.96 h 0 M 523.74 347.95 h 0 M 528.79 347.34 h 0 M 533.84 332.01 h 0 M 538.89 345.98 h 0 M 543.94 345.61 h 0 M 548.99 345.90 h 0 M 554.04 344.65 h 0 M 559.09 342.48 h 0 M 564.14 342.52 h 0 M 569.19 339.44 h 0 M 574.24 338.26 h 0 M 579.29 340.89 h 0 M 584.34 339.04 h 0 M 589.39 338.10 h 0 M 594.44 334.74 h 0 M 599.49 336.86 h 0 M 604.55 336.35 h 0 M 609.60 333.80 h 0 M 614.65 333.69 h 0 M 619.70 334.39 h 0 M 624.75 331.06 h 0 M 629.80 331.12 h 0 M 634.85 332.18 h 0 M 639.90 322.15 h 0 M 644.95 330.70 h 0 M 650.00 329.69 h 0" /><text  class="poloto_text poloto_legend_text" x="675" y="150" >ns_contr</text><line  class="poloto_scatter poloto_legend_icon poloto1stroke poloto1legend" stroke="black" x1="685" x2="685" y1="131.25" y2="131.25" /><path  class="poloto_scatter poloto1stroke" d=" M 150.00 399.96 h 0 M 155.05 399.61 h 0 M 160.10 399.18 h 0 M 165.15 398.46 h 0 M 170.20 397.92 h 0 M 175.25 396.58 h 0 M 180.30 397.78 h 0 M 185.35 397.40 h 0 M 190.40 397.16 h 0 M 195.45 397.40 h 0 M 200.51 397.14 h 0 M 205.56 395.24 h 0 M 210.61 394.76 h 0 M 215.66 394.25 h 0 M 220.71 393.49 h 0 M 225.76 393.46 h 0 M 230.81 393.10 h 0 M 235.86 392.47 h 0 M 240.91 392.37 h 0 M 245.96 391.15 h 0 M 251.01 391.13 h 0 M 256.06 390.45 h 0 M 261.11 390.67 h 0 M 266.16 390.00 h 0 M 271.21 389.28 h 0 M 276.26 389.33 h 0 M 281.31 388.65 h 0 M 286.36 388.41 h 0 M 291.41 388.55 h 0 M 296.46 385.41 h 0 M 301.52 387.48 h 0 M 306.57 386.73 h 0 M 311.62 384.21 h 0 M 316.67 386.38 h 0 M 321.72 385.28 h 0 M 326.77 384.82 h 0 M 331.82 383.79 h 0 M 336.87 384.18 h 0 M 341.92 383.76 h 0 M 346.97 383.64 h 0 M 352.02 383.37 h 0 M 357.07 375.97 h 0 M 362.12 376.11 h 0 M 367.17 375.01 h 0 M 372.22 373.22 h 0 M 377.27 374.54 h 0 M 382.32 368.23 h 0 M 387.37 373.79 h 0 M 392.42 371.38 h 0 M 397.47 367.85 h 0 M 402.53 370.88 h 0 M 407.58 371.89 h 0 M 412.63 369.84 h 0 M 417.68 369.91 h 0 M 422.73 369.64 h 0 M 427.78 367.96 h 0 M 432.83 368.00 h 0 M 437.88 366.94 h 0 M 442.93 366.97 h 0 M 447.98 366.39 h 0 M 453.03 360.55 h 0 M 458.08 364.19 h 0 M 463.13 363.78 h 0 M 468.18 363.98 h 0 M 473.23 358.08 h 0 M 478.28 363.71 h 0 M 483.33 362.69 h 0 M 488.38 361.97 h 0 M 493.43 360.69 h 0 M 498.48 360.04 h 0 M 503.54 360.84 h 0 M 508.59 358.62 h 0 M 513.64 360.11 h 0 M 518.69 357.63 h 0 M 523.74 357.47 h 0 M 528.79 346.86 h 0 M 533.84 356.67 h 0 M 538.89 355.76 h 0 M 543.94 355.75 h 0 M 548.99 357.14 h 0 M 554.04 355.72 h 0 M 559.09 353.34 h 0 M 564.14 353.37 h 0 M 569.19 352.50 h 0 M 574.24 352.49 h 0 M 579.29 352.61 h 0 M 584.34 352.77 h 0 M 589.39 352.24 h 0 M 594.44 347.27 h 0 M 599.49 350.63 h 0 M 604.55 350.07 h 0 M 609.60 347.73 h 0 M 614.65 347.51 h 0 M 619.70 348.74 h 0 M 624.75 345.60 h 0 M 629.80 343.45 h 0 M 634.85 345.26 h 0 M 639.90 345.44 h 0 M 644.95 342.60 h 0 M 650.00 341.93 h 0" /><text  class="poloto_text poloto_legend_text" x="675" y="200" >ns_par_contr</text><line  class="poloto_scatter poloto_legend_icon poloto2stroke poloto2legend" stroke="black" x1="685" x2="685" y1="181.25" y2="181.25" /><path  class="poloto_scatter poloto2stroke" d=" M 150.00 399.97 h 0 M 155.05 399.61 h 0 M 160.10 399.20 h 0 M 165.15 398.41 h 0 M 170.20 397.88 h 0 M 175.25 398.03 h 0 M 180.30 397.24 h 0 M 185.35 397.40 h 0 M 190.40 397.60 h 0 M 195.45 397.27 h 0 M 200.51 397.10 h 0 M 205.56 394.89 h 0 M 210.61 394.74 h 0 M 215.66 335.38 h 0 M 220.71 392.92 h 0 M 225.76 392.87 h 0 M 230.81 392.39 h 0 M 235.86 392.30 h 0 M 240.91 392.22 h 0 M 245.96 392.96 h 0 M 251.01 392.88 h 0 M 256.06 386.81 h 0 M 261.11 390.19 h 0 M 266.16 389.55 h 0 M 271.21 388.80 h 0 M 276.26 390.92 h 0 M 281.31 390.11 h 0 M 286.36 389.65 h 0 M 291.41 386.15 h 0 M 296.46 390.28 h 0 M 301.52 390.36 h 0 M 306.57 377.43 h 0 M 311.62 388.54 h 0 M 316.67 381.96 h 0 M 321.72 387.38 h 0 M 326.77 390.40 h 0 M 331.82 388.73 h 0 M 336.87 387.07 h 0 M 341.92 375.94 h 0 M 346.97 390.30 h 0 M 352.02 385.94 h 0 M 357.07 382.34 h 0 M 362.12 385.66 h 0 M 367.17 385.87 h 0 M 372.22 374.64 h 0 M 377.27 384.75 h 0 M 382.32 380.11 h 0 M 387.37 383.94 h 0 M 392.42 379.72 h 0 M 397.47 382.81 h 0 M 402.53 384.11 h 0 M 407.58 383.19 h 0 M 412.63 382.24 h 0 M 417.68 366.19 h 0 M 422.73 379.81 h 0 M 427.78 379.41 h 0 M 432.83 381.72 h 0 M 437.88 380.48 h 0 M 442.93 371.51 h 0 M 447.98 381.25 h 0 M 453.03 375.16 h 0 M 458.08 374.48 h 0 M 463.13 375.75 h 0 M 468.18 378.83 h 0 M 473.23 378.43 h 0 M 478.28 373.22 h 0 M 483.33 371.00 h 0 M 488.38 376.71 h 0 M 493.43 373.66 h 0 M 498.48 368.66 h 0 M 503.54 371.32 h 0 M 508.59 372.00 h 0 M 513.64 373.27 h 0 M 518.69 370.06 h 0 M 523.74 361.33 h 0 M 528.79 368.62 h 0 M 533.84 373.36 h 0 M 538.89 375.81 h 0 M 543.94 361.80 h 0 M 548.99 376.35 h 0 M 554.04 367.49 h 0 M 559.09 354.74 h 0 M 564.14 370.75 h 0 M 569.19 369.90 h 0 M 574.24 365.51 h 0 M 579.29 371.94 h 0 M 584.34 369.06 h 0 M 589.39 353.14 h 0 M 594.44 367.98 h 0 M 599.49 368.11 h 0 M 604.55 369.69 h 0 M 609.60 372.86 h 0 M 614.65 371.62 h 0 M 619.70 374.17 h 0 M 624.75 368.89 h 0 M 629.80 364.93 h 0 M 634.85 365.86 h 0 M 639.90 371.51 h 0 M 644.95 362.17 h 0 M 650.00 365.64 h 0" /><text  class="poloto_text poloto_legend_text" x="675" y="250" >ns_par_query</text><line  class="poloto_scatter poloto_legend_icon poloto3stroke poloto3legend" stroke="black" x1="685" x2="685" y1="231.25" y2="231.25" /><path  class="poloto_scatter poloto3stroke" d=" M 150.00 399.98 h 0 M 155.05 397.37 h 0 M 160.10 388.60 h 0 M 165.15 392.72 h 0 M 170.20 388.34 h 0 M 175.25 387.49 h 0 M 180.30 383.02 h 0 M 185.35 379.25 h 0 M 190.40 378.11 h 0 M 195.45 373.24 h 0 M 200.51 367.65 h 0 M 205.56 380.78 h 0 M 210.61 375.48 h 0 M 215.66 346.31 h 0 M 220.71 379.38 h 0 M 225.76 379.17 h 0 M 230.81 372.20 h 0 M 235.86 376.82 h 0 M 240.91 369.04 h 0 M 245.96 364.84 h 0 M 251.01 371.23 h 0 M 256.06 362.05 h 0 M 261.11 354.82 h 0 M 266.16 356.52 h 0 M 271.21 362.88 h 0 M 276.26 353.74 h 0 M 281.31 366.44 h 0 M 286.36 340.57 h 0 M 291.41 343.72 h 0 M 296.46 362.15 h 0 M 301.52 355.45 h 0 M 306.57 343.36 h 0 M 311.62 342.14 h 0 M 316.67 320.31 h 0 M 321.72 348.18 h 0 M 326.77 351.92 h 0 M 331.82 345.18 h 0 M 336.87 343.19 h 0 M 341.92 343.58 h 0 M 346.97 326.06 h 0 M 352.02 318.48 h 0 M 357.07 360.37 h 0 M 362.12 360.91 h 0 M 367.17 358.41 h 0 M 372.22 343.56 h 0 M 377.27 354.44 h 0 M 382.32 326.15 h 0 M 387.37 350.27 h 0 M 392.42 338.43 h 0 M 397.47 351.32 h 0 M 402.53 349.99 h 0 M 407.58 324.37 h 0 M 412.63 346.17 h 0 M 417.68 344.75 h 0 M 422.73 344.55 h 0 M 427.78 342.67 h 0 M 432.83 340.64 h 0 M 437.88 340.60 h 0 M 442.93 329.74 h 0 M 447.98 338.13 h 0 M 453.03 332.69 h 0 M 458.08 273.87 h 0 M 463.13 260.78 h 0 M 468.18 331.17 h 0 M 473.23 329.02 h 0 M 478.28 321.21 h 0 M 483.33 303.16 h 0 M 488.38 320.77 h 0 M 493.43 305.07 h 0 M 498.48 314.99 h 0 M 503.54 287.55 h 0 M 508.59 316.23 h 0 M 513.64 306.98 h 0 M 518.69 315.14 h 0 M 523.74 293.01 h 0 M 528.79 173.48 h 0 M 533.84 311.68 h 0 M 538.89 310.70 h 0 M 543.94 283.43 h 0 M 548.99 310.86 h 0 M 554.04 282.56 h 0 M 559.09 279.00 h 0 M 564.14 282.72 h 0 M 569.19 264.69 h 0 M 574.24 261.09 h 0 M 579.29 281.68 h 0 M 584.34 267.23 h 0 M 589.39 292.60 h 0 M 594.44 283.50 h 0 M 599.49 286.22 h 0 M 604.55 271.77 h 0 M 609.60 287.58 h 0 M 614.65 282.56 h 0 M 619.70 283.78 h 0 M 624.75 286.14 h 0 M 629.80 284.90 h 0 M 634.85 276.13 h 0 M 639.90 241.92 h 0 M 644.95 265.49 h 0 M 650.00 271.70 h 0" /><text  class="poloto_text poloto_legend_text" x="675" y="300" >ns_query</text><line  class="poloto_scatter poloto_legend_icon poloto4stroke poloto4legend" stroke="black" x1="685" x2="685" y1="281.25" y2="281.25" /><path  class="poloto_scatter poloto4stroke" d=" M 150.00 399.95 h 0 M 155.05 395.21 h 0 M 160.10 390.30 h 0 M 165.15 392.17 h 0 M 170.20 388.22 h 0 M 175.25 383.65 h 0 M 180.30 382.38 h 0 M 185.35 378.35 h 0 M 190.40 374.92 h 0 M 195.45 373.89 h 0 M 200.51 367.62 h 0 M 205.56 379.83 h 0 M 210.61 374.88 h 0 M 215.66 373.16 h 0 M 220.71 371.30 h 0 M 225.76 366.92 h 0 M 230.81 364.73 h 0 M 235.86 362.48 h 0 M 240.91 357.19 h 0 M 245.96 353.40 h 0 M 251.01 351.36 h 0 M 256.06 348.60 h 0 M 261.11 342.71 h 0 M 266.16 341.38 h 0 M 271.21 337.45 h 0 M 276.26 334.87 h 0 M 281.31 328.95 h 0 M 286.36 326.24 h 0 M 291.41 319.53 h 0 M 296.46 313.20 h 0 M 301.52 312.36 h 0 M 306.57 299.05 h 0 M 311.62 300.98 h 0 M 316.67 292.57 h 0 M 321.72 294.34 h 0 M 326.77 289.95 h 0 M 331.82 279.47 h 0 M 336.87 278.18 h 0 M 341.92 264.02 h 0 M 346.97 266.23 h 0 M 352.02 263.60 h 0 M 357.07 316.75 h 0 M 362.12 315.94 h 0 M 367.17 309.20 h 0 M 372.22 302.96 h 0 M 377.27 304.47 h 0 M 382.32 299.37 h 0 M 387.37 299.91 h 0 M 392.42 295.11 h 0 M 397.47 290.60 h 0 M 402.53 288.44 h 0 M 407.58 284.42 h 0 M 412.63 280.98 h 0 M 417.68 273.21 h 0 M 422.73 271.58 h 0 M 427.78 264.74 h 0 M 432.83 267.16 h 0 M 437.88 265.41 h 0 M 442.93 260.64 h 0 M 447.98 254.92 h 0 M 453.03 251.61 h 0 M 458.08 238.35 h 0 M 463.13 248.99 h 0 M 468.18 238.86 h 0 M 473.23 241.42 h 0 M 478.28 235.70 h 0 M 483.33 234.58 h 0 M 488.38 232.69 h 0 M 493.43 230.52 h 0 M 498.48 226.59 h 0 M 503.54 219.10 h 0 M 508.59 218.26 h 0 M 513.64 212.31 h 0 M 518.69 205.90 h 0 M 523.74 202.07 h 0 M 528.79 151.41 h 0 M 533.84 197.68 h 0 M 538.89 193.48 h 0 M 543.94 184.77 h 0 M 548.99 187.88 h 0 M 554.04 186.70 h 0 M 559.09 179.65 h 0 M 564.14 170.39 h 0 M 569.19 176.67 h 0 M 574.24 167.86 h 0 M 579.29 165.03 h 0 M 584.34 158.49 h 0 M 589.39 154.87 h 0 M 594.44 150.68 h 0 M 599.49 145.42 h 0 M 604.55 140.30 h 0 M 609.60 135.68 h 0 M 614.65 125.46 h 0 M 619.70 127.68 h 0 M 624.75 124.91 h 0 M 629.80 123.28 h 0 M 634.85 120.94 h 0 M 639.90 111.27 h 0 M 644.95 103.10 h 0 M 650.00 100.00 h 0" /><text  class="poloto_text poloto_legend_text" x="675" y="350" >par_contr</text><line  class="poloto_scatter poloto_legend_icon poloto5stroke poloto5legend" stroke="black" x1="685" x2="685" y1="331.25" y2="331.25" /><path  class="poloto_scatter poloto5stroke" d=" M 150.00 399.95 h 0 M 155.05 399.32 h 0 M 160.10 398.55 h 0 M 165.15 397.78 h 0 M 170.20 397.08 h 0 M 175.25 396.21 h 0 M 180.30 396.57 h 0 M 185.35 395.93 h 0 M 190.40 395.64 h 0 M 195.45 395.88 h 0 M 200.51 395.39 h 0 M 205.56 393.90 h 0 M 210.61 393.22 h 0 M 215.66 391.22 h 0 M 220.71 391.21 h 0 M 225.76 391.65 h 0 M 230.81 391.06 h 0 M 235.86 389.78 h 0 M 240.91 392.23 h 0 M 245.96 389.04 h 0 M 251.01 390.54 h 0 M 256.06 390.01 h 0 M 261.11 389.93 h 0 M 266.16 387.23 h 0 M 271.21 388.36 h 0 M 276.26 388.29 h 0 M 281.31 381.62 h 0 M 286.36 388.89 h 0 M 291.41 387.78 h 0 M 296.46 384.87 h 0 M 301.52 388.23 h 0 M 306.57 386.13 h 0 M 311.62 384.32 h 0 M 316.67 386.99 h 0 M 321.72 382.74 h 0 M 326.77 386.24 h 0 M 331.82 379.74 h 0 M 336.87 386.61 h 0 M 341.92 379.95 h 0 M 346.97 388.27 h 0 M 352.02 361.95 h 0 M 357.07 382.72 h 0 M 362.12 362.97 h 0 M 367.17 383.22 h 0 M 372.22 383.46 h 0 M 377.27 383.87 h 0 M 382.32 381.57 h 0 M 387.37 381.19 h 0 M 392.42 374.75 h 0 M 397.47 375.37 h 0 M 402.53 375.41 h 0 M 407.58 381.72 h 0 M 412.63 379.18 h 0 M 417.68 379.65 h 0 M 422.73 379.81 h 0 M 427.78 379.21 h 0 M 432.83 379.51 h 0 M 437.88 375.12 h 0 M 442.93 378.20 h 0 M 447.98 378.66 h 0 M 453.03 373.29 h 0 M 458.08 370.88 h 0 M 463.13 373.57 h 0 M 468.18 377.00 h 0 M 473.23 355.19 h 0 M 478.28 377.70 h 0 M 483.33 373.92 h 0 M 488.38 370.93 h 0 M 493.43 372.28 h 0 M 498.48 374.22 h 0 M 503.54 374.24 h 0 M 508.59 370.38 h 0 M 513.64 374.33 h 0 M 518.69 366.97 h 0 M 523.74 374.22 h 0 M 528.79 358.89 h 0 M 533.84 363.99 h 0 M 538.89 374.16 h 0 M 543.94 371.65 h 0 M 548.99 372.09 h 0 M 554.04 371.69 h 0 M 559.09 365.34 h 0 M 564.14 372.22 h 0 M 569.19 372.34 h 0 M 574.24 373.20 h 0 M 579.29 373.43 h 0 M 584.34 366.89 h 0 M 589.39 372.17 h 0 M 594.44 368.46 h 0 M 599.49 371.88 h 0 M 604.55 370.25 h 0 M 609.60 370.11 h 0 M 614.65 369.76 h 0 M 619.70 370.63 h 0 M 624.75 362.54 h 0 M 629.80 363.01 h 0 M 634.85 357.39 h 0 M 639.90 364.89 h 0 M 644.95 356.35 h 0 M 650.00 363.87 h 0" /><text  class="poloto_text poloto_legend_text" x="675" y="400" >par_query</text><line  class="poloto_scatter poloto_legend_icon poloto6stroke poloto6legend" stroke="black" x1="685" x2="685" y1="381.25" y2="381.25" /><path  class="poloto_scatter poloto6stroke" d=" M 150.00 399.96 h 0 M 155.05 398.54 h 0 M 160.10 395.93 h 0 M 165.15 395.31 h 0 M 170.20 393.37 h 0 M 175.25 392.02 h 0 M 180.30 392.38 h 0 M 185.35 390.59 h 0 M 190.40 390.19 h 0 M 195.45 390.84 h 0 M 200.51 389.01 h 0 M 205.56 388.87 h 0 M 210.61 389.46 h 0 M 215.66 388.95 h 0 M 220.71 390.10 h 0 M 225.76 388.45 h 0 M 230.81 387.94 h 0 M 235.86 388.72 h 0 M 240.91 388.06 h 0 M 245.96 385.04 h 0 M 251.01 385.38 h 0 M 256.06 384.21 h 0 M 261.11 383.37 h 0 M 266.16 382.77 h 0 M 271.21 385.08 h 0 M 276.26 385.54 h 0 M 281.31 375.60 h 0 M 286.36 385.72 h 0 M 291.41 386.46 h 0 M 296.46 383.28 h 0 M 301.52 385.17 h 0 M 306.57 383.74 h 0 M 311.62 378.26 h 0 M 316.67 377.65 h 0 M 321.72 384.17 h 0 M 326.77 382.23 h 0 M 331.82 354.96 h 0 M 336.87 383.66 h 0 M 341.92 370.98 h 0 M 346.97 382.35 h 0 M 352.02 369.76 h 0 M 357.07 382.74 h 0 M 362.12 376.47 h 0 M 367.17 381.56 h 0 M 372.22 347.69 h 0 M 377.27 381.77 h 0 M 382.32 361.20 h 0 M 387.37 380.65 h 0 M 392.42 365.18 h 0 M 397.47 374.50 h 0 M 402.53 380.00 h 0 M 407.58 379.43 h 0 M 412.63 378.69 h 0 M 417.68 379.70 h 0 M 422.73 378.62 h 0 M 427.78 375.71 h 0 M 432.83 377.83 h 0 M 437.88 376.91 h 0 M 442.93 377.28 h 0 M 447.98 376.59 h 0 M 453.03 366.16 h 0 M 458.08 349.33 h 0 M 463.13 373.39 h 0 M 468.18 376.35 h 0 M 473.23 365.29 h 0 M 478.28 374.85 h 0 M 483.33 374.00 h 0 M 488.38 373.43 h 0 M 493.43 357.67 h 0 M 498.48 374.02 h 0 M 503.54 373.32 h 0 M 508.59 356.56 h 0 M 513.64 371.42 h 0 M 518.69 354.72 h 0 M 523.74 368.43 h 0 M 528.79 349.04 h 0 M 533.84 350.93 h 0 M 538.89 364.66 h 0 M 543.94 363.77 h 0 M 548.99 370.22 h 0 M 554.04 359.67 h 0 M 559.09 361.09 h 0 M 564.14 368.82 h 0 M 569.19 361.75 h 0 M 574.24 367.84 h 0 M 579.29 367.27 h 0 M 584.34 364.53 h 0 M 589.39 365.51 h 0 M 594.44 367.13 h 0 M 599.49 365.52 h 0 M 604.55 356.02 h 0 M 609.60 366.12 h 0 M 614.65 366.21 h 0 M 619.70 365.04 h 0 M 624.75 358.40 h 0 M 629.80 351.29 h 0 M 634.85 358.80 h 0 M 639.90 364.02 h 0 M 644.95 360.38 h 0 M 650.00 358.47 h 0" /><text  class="poloto_text poloto_legend_text" x="675" y="450" >query</text><line  class="poloto_scatter poloto_legend_icon poloto7stroke poloto7legend" stroke="black" x1="685" x2="685" y1="431.25" y2="431.25" /><path  class="poloto_scatter poloto7stroke" d=" M 150.00 399.92 h 0 M 155.05 397.94 h 0 M 160.10 395.95 h 0 M 165.15 394.61 h 0 M 170.20 393.66 h 0 M 175.25 390.88 h 0 M 180.30 391.90 h 0 M 185.35 390.84 h 0 M 190.40 390.09 h 0 M 195.45 390.41 h 0 M 200.51 388.41 h 0 M 205.56 389.16 h 0 M 210.61 387.91 h 0 M 215.66 388.55 h 0 M 220.71 387.32 h 0 M 225.76 386.29 h 0 M 230.81 385.18 h 0 M 235.86 384.00 h 0 M 240.91 383.80 h 0 M 245.96 382.01 h 0 M 251.01 380.95 h 0 M 256.06 380.52 h 0 M 261.11 379.39 h 0 M 266.16 376.55 h 0 M 271.21 375.16 h 0 M 276.26 376.01 h 0 M 281.31 366.88 h 0 M 286.36 373.59 h 0 M 291.41 372.88 h 0 M 296.46 371.21 h 0 M 301.52 370.52 h 0 M 306.57 368.47 h 0 M 311.62 367.05 h 0 M 316.67 366.63 h 0 M 321.72 364.35 h 0 M 326.77 362.19 h 0 M 331.82 358.13 h 0 M 336.87 362.20 h 0 M 341.92 360.33 h 0 M 346.97 359.88 h 0 M 352.02 357.95 h 0 M 357.07 364.27 h 0 M 362.12 362.47 h 0 M 367.17 362.80 h 0 M 372.22 360.19 h 0 M 377.27 358.98 h 0 M 382.32 357.94 h 0 M 387.37 358.38 h 0 M 392.42 356.50 h 0 M 397.47 356.11 h 0 M 402.53 344.42 h 0 M 407.58 354.51 h 0 M 412.63 352.76 h 0 M 417.68 351.51 h 0 M 422.73 351.14 h 0 M 427.78 351.22 h 0 M 432.83 350.24 h 0 M 437.88 342.99 h 0 M 442.93 349.08 h 0 M 447.98 347.73 h 0 M 453.03 346.86 h 0 M 458.08 345.14 h 0 M 463.13 345.23 h 0 M 468.18 344.06 h 0 M 473.23 343.99 h 0 M 478.28 329.21 h 0 M 483.33 341.01 h 0 M 488.38 340.56 h 0 M 493.43 340.42 h 0 M 498.48 338.04 h 0 M 503.54 334.61 h 0 M 508.59 334.19 h 0 M 513.64 329.74 h 0 M 518.69 328.34 h 0 M 523.74 330.17 h 0 M 528.79 327.21 h 0 M 533.84 311.97 h 0 M 538.89 331.98 h 0 M 543.94 326.85 h 0 M 548.99 330.25 h 0 M 554.04 324.31 h 0 M 559.09 327.67 h 0 M 564.14 325.81 h 0 M 569.19 323.36 h 0 M 574.24 325.10 h 0 M 579.29 323.30 h 0 M 584.34 321.82 h 0 M 589.39 317.69 h 0 M 594.44 319.84 h 0 M 599.49 320.07 h 0 M 604.55 313.09 h 0 M 609.60 317.42 h 0 M 614.65 313.14 h 0 M 619.70 313.57 h 0 M 624.75 312.52 h 0 M 629.80 307.40 h 0 M 634.85 306.70 h 0 M 639.90 308.91 h 0 M 644.95 310.05 h 0 M 650.00 303.61 h 0" /><text  class="poloto_labels poloto_text poloto_title" x="400" y="37.5" >Bench of construction vs query abspiral(x,1.5)</text><text  class="poloto_labels poloto_text poloto_xname" x="400" y="481.25" >Number of Elements</text><text  class="poloto_labels poloto_text poloto_yname" transform="rotate(-90,37.5,250)" x="37.5" y="250" >Time in Seconds</text><text  class="poloto_tick_labels poloto_text" dominant-baseline="middle" text-anchor="start" x="150" y="70" ></text><line  class="poloto_axis_lines" stroke="black" x1="150" x2="144" y1="400" y2="400" /><text  class="poloto_tick_labels poloto_text" dominant-baseline="middle" text-anchor="end" x="135" y="400" >0e0</text><line  class="poloto_axis_lines" stroke="black" x1="150" x2="144" y1="316.1840146432114" y2="316.1840146432114" /><text  class="poloto_tick_labels poloto_text" dominant-baseline="middle" text-anchor="end" x="135" y="316.1840146432114" >0.002</text><line  class="poloto_axis_lines" stroke="black" x1="150" x2="144" y1="232.36802928642282" y2="232.36802928642282" /><text  class="poloto_tick_labels poloto_text" dominant-baseline="middle" text-anchor="end" x="135" y="232.36802928642282" >0.004</text><line  class="poloto_axis_lines" stroke="black" x1="150" x2="144" y1="148.55204392963424" y2="148.55204392963424" /><text  class="poloto_tick_labels poloto_text" dominant-baseline="middle" text-anchor="end" x="135" y="148.55204392963424" >0.006</text><text  class="poloto_tick_labels poloto_text" dominant-baseline="middle" text-anchor="start" x="440.00000000000006" y="70" ></text><line  class="poloto_axis_lines" stroke="black" x1="150" x2="150" y1="400" y2="405" /><text  class="poloto_tick_labels poloto_text" dominant-baseline="start" text-anchor="middle" x="150" y="430" >0</text><line  class="poloto_axis_lines" stroke="black" x1="276.26262626262627" x2="276.26262626262627" y1="400" y2="405" /><text  class="poloto_tick_labels poloto_text" dominant-baseline="start" text-anchor="middle" x="276.26262626262627" y="430" >5000</text><line  class="poloto_axis_lines" stroke="black" x1="402.52525252525254" x2="402.52525252525254" y1="400" y2="405" /><text  class="poloto_tick_labels poloto_text" dominant-baseline="start" text-anchor="middle" x="402.52525252525254" y="430" >10000</text><line  class="poloto_axis_lines" stroke="black" x1="528.7878787878788" x2="528.7878787878788" y1="400" y2="405" /><text  class="poloto_tick_labels poloto_text" dominant-baseline="start" text-anchor="middle" x="528.7878787878788" y="430" >15000</text><path  stroke="black" fill="none" class="poloto_axis_lines" style="stroke-dasharray:12.626262626262626;stroke-dashoffset:-0;" d=" M 150 400 L 650 400" /><path  stroke="black" fill="none" class="poloto_axis_lines" style="stroke-dasharray:10.476998169598573;stroke-dashoffset:-0;" d=" M 150 400 L 150 100" /></svg>