<svg class="poloto" width="800" height="500" viewBox="0 0 800 500" xmlns="http://www.w3.org/2000/svg"><style>.poloto {
                    font-family: "Arial";
                    stroke-width:2;
                    }
                    .poloto_text{fill: var(--poloto_fg_color,black);  }
                    .poloto_axis_lines{stroke: var(--poloto_fg_color,black);stoke-width:3;fill:none}
                    .poloto_background{fill: var(--poloto_bg_color,aliceblue); }
                    .poloto0stroke{stroke:  var(--poloto_color0,blue); }
                    .poloto1stroke{stroke:  var(--poloto_color1,red); }
                    .poloto2stroke{stroke:  var(--poloto_color2,green); }
                    .poloto3stroke{stroke:  var(--poloto_color3,gold); }
                    .poloto4stroke{stroke:  var(--poloto_color4,aqua); }
                    .poloto5stroke{stroke:  var(--poloto_color5,brown); }
                    .poloto6stroke{stroke:  var(--poloto_color6,lime); }
                    .poloto7stroke{stroke:  var(--poloto_color7,chocolate); }
                    .poloto0fill{fill:var(--poloto_color0,blue);}
                    .poloto1fill{fill:var(--poloto_color1,red);}
                    .poloto2fill{fill:var(--poloto_color2,green);}
                    .poloto3fill{fill:var(--poloto_color3,gold);}
                    .poloto4fill{fill:var(--poloto_color4,aqua);}
                    .poloto5fill{fill:var(--poloto_color5,brown);}
                    .poloto6fill{fill:var(--poloto_color6,lime);}
                    .poloto7fill{fill:var(--poloto_color7,chocolate);}</style><rect class="poloto_background" fill="white" x="0" y="0" width="800" height="500"/><line class="poloto_axis_lines" stroke="black" x1="150" x2="150" y1="400" y2="405"/><text class="poloto_text" alignment-baseline="start" text-anchor="middle" x="150" y="430">0</text><line class="poloto_axis_lines" stroke="black" x1="234.17508417508418" x2="234.17508417508418" y1="400" y2="405"/><text class="poloto_text" alignment-baseline="start" text-anchor="middle" x="234.17508417508418" y="430">1000</text><line class="poloto_axis_lines" stroke="black" x1="318.35016835016836" x2="318.35016835016836" y1="400" y2="405"/><text class="poloto_text" alignment-baseline="start" text-anchor="middle" x="318.35016835016836" y="430">2000</text><line class="poloto_axis_lines" stroke="black" x1="402.52525252525254" x2="402.52525252525254" y1="400" y2="405"/><text class="poloto_text" alignment-baseline="start" text-anchor="middle" x="402.52525252525254" y="430">3000</text><line class="poloto_axis_lines" stroke="black" x1="486.7003367003367" x2="486.7003367003367" y1="400" y2="405"/><text class="poloto_text" alignment-baseline="start" text-anchor="middle" x="486.7003367003367" y="430">4000</text><line class="poloto_axis_lines" stroke="black" x1="570.8754208754209" x2="570.8754208754209" y1="400" y2="405"/><text class="poloto_text" alignment-baseline="start" text-anchor="middle" x="570.8754208754209" y="430">5000</text><line class="poloto_axis_lines" stroke="black" x1="150" x2="144" y1="400" y2="400"/><text class="poloto_text" alignment-baseline="middle" text-anchor="end" x="135" y="400">0</text><line class="poloto_axis_lines" stroke="black" x1="150" x2="144" y1="345.56001056135796" y2="345.56001056135796"/><text class="poloto_text" alignment-baseline="middle" text-anchor="end" x="135" y="345.56001056135796">2e5</text><line class="poloto_axis_lines" stroke="black" x1="150" x2="144" y1="291.1200211227159" y2="291.1200211227159"/><text class="poloto_text" alignment-baseline="middle" text-anchor="end" x="135" y="291.1200211227159">4e5</text><line class="poloto_axis_lines" stroke="black" x1="150" x2="144" y1="236.68003168407392" y2="236.68003168407392"/><text class="poloto_text" alignment-baseline="middle" text-anchor="end" x="135" y="236.68003168407392">6e5</text><line class="poloto_axis_lines" stroke="black" x1="150" x2="144" y1="182.24004224543182" y2="182.24004224543182"/><text class="poloto_text" alignment-baseline="middle" text-anchor="end" x="135" y="182.24004224543182">8e5</text><line class="poloto_axis_lines" stroke="black" x1="150" x2="144" y1="127.80005280678978" y2="127.80005280678978"/><text class="poloto_text" alignment-baseline="middle" text-anchor="end" x="135" y="127.80005280678978">1e6</text><text class="poloto_text" alignment-baseline="middle" text-anchor="start" font-size="large" x="675" y="100">brocc_constr</text><line class="poloto0stroke" stroke="black" x1="680" x2="730" y1="81.25" y2="81.25"/><polyline class="poloto0stroke" fill="none" stroke="black" points="150,400 155.05050505050505,399.8598170271955 160.1010101010101,399.60803207604175 165.15151515151516,399.2465505461692 170.2020202020202,398.949036003887 175.25252525252526,398.49446209207434 180.3030303030303,398.16265035644585 185.35353535353536,397.8398212190747 190.40404040404042,397.45493049374346 195.45454545454547,396.721623836005 200.50505050505052,396.593417660877 205.55555555555554,395.92162819120415 210.60606060606062,395.6088704518791 215.65656565656565,395.25038312142567 220.70707070707073,394.81704080549406 225.75757575757575,394.61452404478234 230.80808080808083,394.132185738356 235.85858585858585,393.5330736545837 240.90909090909093,392.54879864553305 245.95959595959596,392.23876290568 251.010101010101,392.04495654327843 256.06060606060606,391.2155633041807 261.1111111111111,390.714443201398 266.16161616161617,390.6387716160783 271.21212121212125,389.73915079060475 276.26262626262627,389.50750863554333 281.3131313131313,389.0668169210375 286.3636363636364,388.5637914186245 291.41414141414145,387.85852135544684 296.4646464646465,387.837561959513 301.5151515151515,387.16196169057946 306.5656565656566,386.91725393805274 311.61616161616166,386.2171556738718 316.6666666666667,385.8472359456362 321.7171717171717,385.5105246109582 326.7676767676768,383.3187706361585 331.81818181818187,382.6135005729809 336.8686868686869,382.522041390724 341.9191919191919,381.88618231408066 346.969696969697,382.185330056046 352.020202020202,381.12130046246773 357.07070707070704,380.5700955694015 362.1212121212121,380.2162356380503 367.1717171717172,379.7270923329441 372.22222222222223,379.09368305582547 377.27272727272725,378.56479855842906 382.32323232323233,378.270278215566 387.3737373737374,377.57235755096264 392.42424242424244,377.0410232540415 397.47474747474746,377.0241468573155 402.52525252525254,376.39781477882394 407.5757575757576,375.5186089493899 412.62626262626264,374.9761144546338 417.67676767676767,374.34025537799045 422.72727272727275,374.49649814767935 427.77777777777777,373.35489156915105 432.82828282828285,373.6657439088457 437.8787878787879,372.7538740857484 442.92929292929296,371.6541862990879 447.979797979798,370.9157078423527 453.03030303030306,371.33843436034374 458.0808080808081,369.7027848776597 463.13131313131316,369.60070989746225 468.1818181818182,368.74654646317 473.23232323232327,369.1025839940987 478.2828282828283,367.30742534235947 483.33333333333337,367.4780947092496 488.3838383838384,367.6117448833215 493.4343434343435,365.5144442901978 498.4848484848485,364.27430133078553 503.5353535353536,363.7603878304848 508.5858585858586,362.9691025839941 513.6363636363637,362.2232747286847 518.6868686868687,361.61136924739435 523.7373737373738,360.45288627214006 528.7878787878788,360.33039629590314 533.8383838383838,359.73264521186684 538.8888888888889,359.2723551011631 543.939393939394,359.1027745340617 548.9898989898991,358.5123728485997 554.040404040404,357.38682606695573 559.0909090909091,356.2133720946058 564.1414141414141,355.92239035105626 569.1919191919192,355.6169820103055 574.2424242424242,355.10061871048 579.2929292929293,353.79868636305486 584.3434343434344,353.36588844701765 589.3939393939395,352.80052915669734 594.4444444444445,352.82393835215595 599.4949494949495,352.44612482545176 604.5454545454545,352.24741886400074 609.5959595959596,350.9242549206945 614.6464646464647,350.63055117767306 619.6969696969697,350.29220664331194 624.7474747474748,349.8523315286477 629.7979797979799,348.7488329427264 634.8484848484849,348.541144383018 639.89898989899,349.2717290412846 644.9494949494949,347.6415235575444 650,347.20246504272177 "/><text class="poloto_text" alignment-baseline="middle" text-anchor="start" font-size="large" x="675" y="150">brocc_query</text><line class="poloto1stroke" stroke="black" x1="680" x2="730" y1="131.25" y2="131.25"/><polyline class="poloto1stroke" fill="none" stroke="black" points="150,400 155.05050505050505,399.5217446927815 160.1010101010101,398.69589005299736 165.15151515151516,398.09460036964754 170.2020202020202,397.2284601376787 175.25252525252526,396.23792452984264 180.3030303030303,395.24902212168973 185.35353535353536,394.24542091638835 190.40404040404042,393.17431412418307 195.45454545454547,393.1008201384409 200.50505050505052,392.42413106971856 205.55555555555554,391.26129289530917 210.60606060606062,390.3793650664032 215.65656565656565,389.3877406587783 220.70707070707073,388.4339520438133 225.75757575757575,387.60210900519087 230.80808080808083,386.4411762304118 235.85858585858585,385.2244424664582 240.90909090909093,383.8961067241553 245.95959595959596,382.9959414987874 251.010101010101,382.1796138571549 256.06060606060606,380.59758776406795 261.1111111111111,379.36806060259624 266.16161616161617,378.6753117369895 271.21212121212125,377.0758648472822 276.26262626262627,376.1016612362777 281.3131313131313,374.92847946387496 286.3636363636364,373.7237224975978 291.41414141414145,372.3327807674405 296.4646464646465,371.41465034555785 301.5151515151515,369.9608304275989 306.5656565656566,368.80370845208057 311.61616161616166,367.4829943082991 316.6666666666667,366.2646273446623 321.7171717171717,365.1418025624903 326.7676767676768,368.24406536065135 331.81818181818187,367.0017448016615 336.8686868686869,366.3541811272889 341.9191919191919,365.17936615520296 346.969696969697,364.96215059734277 352.020202020202,363.3164297166126 357.07070707070704,362.17182893866516 362.1212121212121,361.1706775328886 367.1717171717172,360.18123072484127 372.22222222222223,358.97783475830005 377.27272727272725,357.7891375889073 382.32323232323233,356.9534837510241 387.3737373737374,355.64719620444396 392.42424242424244,354.56411261456213 397.47474747474746,353.976432928572 402.52525252525254,352.69573217702793 407.5757575757576,351.2457230583297 412.62626262626264,350.0801628844484 417.67676767676767,348.7844911358087 422.72727272727275,348.3898012123786 427.77777777777777,346.68201874368833 432.82828282828285,346.32951981207316 437.8787878787879,344.6524959374158 442.92929292929296,342.9033390767522 447.979797979798,341.45142455842364 453.03030303030306,341.2244098024645 458.0808080808081,339.0035304333151 463.13131313131316,338.20326258856704 468.1818181818182,336.69854128048297 473.23232323232327,336.44321773001576 478.2828282828283,333.9849800069139 483.33333333333337,333.63601967461216 488.3838383838384,332.96014720573146 493.4343434343435,330.14559975175365 498.4848484848485,329.75608162732016 503.5353535353536,328.4065142891362 508.5858585858586,327.0278215566026 513.6363636363637,325.66437202111183 518.6868686868687,324.5039836462272 523.7373737373738,322.5945010166668 528.7878787878788,321.9404045435615 533.8383838383838,320.5946480046383 538.8888888888889,319.45603562552907 543.939393939394,318.5909841933491 548.9898989898991,317.21283586070984 554.040404040404,315.3352006249711 559.0909090909091,313.43633379335125 564.1414141414141,312.5015991746898 569.1919191919192,311.5924513510644 574.2424242424242,310.29432980290005 579.2929292929293,308.48256695438204 584.3434343434344,307.1844454062176 589.3939393939395,305.9611788435313 594.4444444444445,305.21671198795786 599.4949494949495,304.2465913761613 604.5454545454545,303.2421735710183 609.5959595959596,301.1391567790036 614.6464646464647,300.1287505750224 619.6969696969697,298.8475054235839 624.7474747474748,297.7611554343358 629.7979797979799,295.9545643848145 634.8484848484849,294.93435898273435 639.89898989899,295.00322556937425 644.9494949494949,292.69551441707017 650,291.41889666473406 "/><text class="poloto_text" alignment-baseline="middle" text-anchor="start" font-size="large" x="675" y="200">nosort_constr</text><line class="poloto2stroke" stroke="black" x1="680" x2="730" y1="181.25" y2="181.25"/><polyline class="poloto2stroke" fill="none" stroke="black" points="150,400 155.05050505050505,399.9678804062312 160.1010101010101,399.8061936375984 165.15151515151516,399.49316369832627 170.2020202020202,399.3303881299047 175.25252525252526,398.84723322363675 180.3030303030303,398.6466218625554 185.35353535353536,398.39538131129603 190.40404040404042,398.20320814857763 195.45454545454547,397.3735427095327 200.50505050505052,397.33652351671446 205.55555555555554,396.77551942554925 210.60606060606062,396.5637478666329 215.65656565656565,396.31767911437026 220.70707070707073,396.008732174306 225.75757575757575,395.93360498888063 230.80808080808083,395.5685848596945 235.85858585858585,395.08978515258167 240.90909090909093,393.87604558804713 245.95959595959596,393.6046622406955 251.010101010101,393.46502366778543 256.06060606060606,392.75784820497745 261.1111111111111,392.4464514653884 266.16161616161617,392.42032027045786 271.21212121212125,391.5854830324163 276.26262626262627,391.5941934307265 281.3131313131313,391.1771831116265 286.3636363636364,390.8023637843414 291.41414141414145,390.1542557100744 296.4646464646465,390.2781066860473 301.5151515151515,389.66674560465134 306.5656565656566,389.6370758104073 311.61616161616166,389.0317031278496 316.6666666666667,388.7633139799171 321.7171717171717,388.5284054254893 326.7676767676768,385.7563211632737 331.81818181818187,385.0690162966108 336.8686868686869,385.1310778845709 341.9191919191919,384.6411179796231 346.969696969697,385.02818630453186 352.020202020202,384.0411892960093 357.07070707070704,383.60811918002486 362.1212121212121,383.3503458300329 367.1717171717172,382.91210391505183 372.22222222222223,382.5165973917801 377.27272727272725,381.91721310806065 382.32323232323233,381.8222153264902 387.3737373737374,381.16076945481075 392.42424242424244,380.7973825253078 397.47474747474746,380.948453496 402.52525252525254,380.4696537888872 407.5757575757576,379.6418937494726 412.62626262626264,379.1807870389273 417.67676767676767,378.67476733709515 422.72727272727275,378.9970520745719 427.77777777777777,377.8821210908685 432.82828282828285,378.30947500796185 437.8787878787879,377.4955971658542 442.92929292929296,376.5755613443411 447.979797979798,375.9595728638429 453.03030303030306,376.58427174265125 458.0808080808081,374.9295682636638 463.13131313131316,375.0594076384749 468.1818181818182,374.18074620893526 473.23232323232327,374.7139859054867 478.2828282828283,373.20382059845883 483.33333333333337,373.4896305430117 488.3838383838384,373.65077291175004 493.4343434343435,371.6381265022035 498.4848484848485,368.99234301548546 503.5353535353536,368.4748909158712 508.5858585858586,367.87006263320785 513.6363636363637,367.22467655841274 518.6868686868687,366.7943284419003 523.7373737373738,365.5585406816431 528.7878787878788,365.76051304246045 533.8383838383838,365.04653258097267 538.8888888888889,364.8698748152443 543.939393939394,364.86688061582515 548.9898989898991,364.27920092983504 554.040404040404,363.2660727263819 559.0909090909091,362.07655895714754 564.1414141414141,361.9224937870362 569.1919191919192,361.8822081948516 574.2424242424242,361.3454298989866 579.2929292929293,360.18123072484127 584.3434343434344,359.8673841857275 589.3939393939395,359.4035554757102 594.4444444444445,359.4247870715913 599.4949494949495,359.2628281030114 604.5454545454545,359.05023994425346 609.5959595959596,357.8800523712698 614.6464646464647,357.70230580575264 619.6969696969697,357.41105186225593 624.7474747474748,357.1881201055047 629.7979797979799,356.12762911123997 634.8484848484849,355.99533993690403 639.89898989899,357.02126153787526 644.9494949494949,355.3281778663335 650,354.93702654221687 "/><text class="poloto_text" alignment-baseline="middle" text-anchor="start" font-size="large" x="675" y="250">nosort_query</text><line class="poloto3stroke" stroke="black" x1="680" x2="730" y1="231.25" y2="231.25"/><polyline class="poloto3stroke" fill="none" stroke="black" points="150,400 155.05050505050505,398.9950377949627 160.1010101010101,397.30767032231194 165.15151515151516,395.7858004175547 170.2020202020202,393.2747559046974 175.25252525252526,392.3672412807552 180.3030303030303,389.75602718733074 185.35353535353536,386.80483535986195 190.40404040404042,383.75020755245976 195.45454545454547,384.57061819330005 200.50505050505052,381.95532110066773 205.55555555555554,378.976092678638 210.60606060606062,376.2306840112473 215.65656565656565,372.68527969905574 220.70707070707073,369.44664472735093 225.75757575757575,366.02046399203 230.80808080808083,362.22980752741734 235.85858585858585,358.1985263094859 240.90909090909093,364.48117329065235 245.95959595959596,361.1957199280303 251.010101010101,358.32945448408583 256.06060606060606,354.71708898488475 261.1111111111111,351.91860132779135 266.16161616161617,348.684865955136 271.21212121212125,344.94456648075413 276.26262626262627,341.54288374068057 281.3131313131313,337.66920629217395 286.3636363636364,334.09494878557996 291.41414141414145,330.13008435476365 296.4646464646465,325.5288164474096 301.5151515151515,321.41533084542584 306.5656565656566,317.7673071531424 311.61616161616166,313.7836609259698 316.6666666666667,309.81525789584 321.7171717171717,304.5988181078293 326.7676767676768,318.7986727530575 331.81818181818187,315.99746309649214 336.8686868686869,313.72541013727044 341.9191919191919,309.1614336226819 346.969696969697,306.6275243142603 352.020202020202,302.18331577643676 357.07070707070704,297.8779292116817 362.1212121212121,294.1087765428973 367.1717171717172,291.9799007558993 372.22222222222223,287.8887355495853 377.27272727272725,282.50026539494854 382.32323232323233,279.8841517024746 387.3737373737374,275.95304006511026 392.42424242424244,271.23309298077993 397.47474747474746,268.1507007787641 402.52525252525254,263.7786252269467 407.5757575757576,259.49147605865363 412.62626262626264,255.38506765529687 417.67676767676767,250.15011827087704 422.72727272727275,247.7915057284479 427.77777777777777,242.10742643115927 432.82828282828285,238.8951948543322 437.8787878787879,235.03512740318527 442.92929292929296,228.67027603796646 447.979797979798,223.18544710202326 453.03030303030306,220.33959665411825 458.0808080808081,215.70457595331226 463.13131313131316,209.81090269668488 468.1818181818182,204.298309366128 473.23232323232327,202.3852881372541 478.2828282828283,196.27793792208004 483.33333333333337,192.57982943951308 488.3838383838384,187.90588414625847 493.4343434343435,179.44754298717666 498.4848484848485,224.5913598292762 503.5353535353536,220.08372870375663 508.5858585858586,215.50178699265334 513.6363636363637,212.16788203943088 518.6868686868687,209.50413335619814 523.7373737373738,204.73900108063378 528.7878787878788,201.90921042961318 533.8383838383838,197.39205230594186 538.8888888888889,194.59057044942932 543.939393939394,190.13928471297876 548.9898989898991,186.13386249003068 554.040404040404,181.08346466980785 559.0909090909091,176.12425383189475 564.1414141414141,172.0888896147554 569.1919191919192,169.2473943660055 574.2424242424242,164.28981672777556 579.2929292929293,159.37334128157178 584.3434343434344,157.16144451067976 589.3939393939395,151.5914169912651 594.4444444444445,146.37688260288476 599.4949494949495,144.98920727209378 604.5454545454545,140.41978675856137 609.5959595959596,134.25962975363183 614.6464646464647,129.59167285921546 619.6969696969697,126.04708514686547 624.7474747474748,121.800221570757 629.7979797979799,116.73049755428349 634.8484848484849,113.84327271440509 639.89898989899,110.28888580395613 644.9494949494949,104.0976980050466 650,100 "/><text class="poloto_text" alignment-baseline="start" text-anchor="middle" font-size="x-large" x="400" y="37.5">Complexity of construction vs query with abspiral(x,2.1)</text><text class="poloto_text" alignment-baseline="start" text-anchor="middle" font-size="x-large" x="400" y="481.25">Number of Elements</text><text class="poloto_text" alignment-baseline="start" text-anchor="middle" font-size="x-large" transform="rotate(-90,37.5,250)" x="37.5" y="250">Number of Comparisons</text><path stroke="black" fill="none" class="poloto_axis_lines" d=" M 150 100 L 150 400 L 650 400"/></svg>