<svg class="poloto" width="800" height="500" viewBox="0 0 800 500" xmlns="http://www.w3.org/2000/svg"><circle  r="1e5" class="poloto_background" /><text  class="poloto_text poloto_legend_text" x="675" y="100" >contr</text><line  class="poloto_scatter poloto_legend_icon poloto0stroke poloto0legend" stroke="black" x1="685" x2="685" y1="81.25" y2="81.25" /><path  class="poloto_scatter poloto0stroke" d=" M 150.00 398.33 h 0 M 155.05 397.34 h 0 M 160.10 393.35 h 0 M 165.15 392.69 h 0 M 170.20 396.86 h 0 M 175.25 396.70 h 0 M 180.30 395.95 h 0 M 185.35 394.44 h 0 M 190.40 394.16 h 0 M 195.45 393.79 h 0 M 200.51 391.80 h 0 M 205.56 388.93 h 0 M 210.61 389.83 h 0 M 215.66 389.29 h 0 M 220.71 387.48 h 0 M 225.76 387.22 h 0 M 230.81 386.28 h 0 M 235.86 385.61 h 0 M 240.91 384.85 h 0 M 245.96 384.24 h 0 M 251.01 381.54 h 0 M 256.06 382.06 h 0 M 261.11 380.50 h 0 M 266.16 379.63 h 0 M 271.21 379.13 h 0 M 276.26 378.55 h 0 M 281.31 378.00 h 0 M 286.36 376.48 h 0 M 291.41 376.24 h 0 M 296.46 376.10 h 0 M 301.52 373.75 h 0 M 306.57 373.09 h 0 M 311.62 372.47 h 0 M 316.67 372.10 h 0 M 321.72 369.93 h 0 M 326.77 369.24 h 0 M 331.82 369.10 h 0 M 336.87 366.90 h 0 M 341.92 367.03 h 0 M 346.97 365.87 h 0 M 352.02 365.09 h 0 M 357.07 358.09 h 0 M 362.12 354.89 h 0 M 367.17 356.78 h 0 M 372.22 355.62 h 0 M 377.27 354.84 h 0 M 382.32 353.28 h 0 M 387.37 352.60 h 0 M 392.42 351.28 h 0 M 397.47 349.95 h 0 M 402.53 349.84 h 0 M 407.58 348.98 h 0 M 412.63 346.93 h 0 M 417.68 345.64 h 0 M 422.73 345.24 h 0 M 427.78 344.19 h 0 M 432.83 341.43 h 0 M 437.88 339.30 h 0 M 442.93 340.26 h 0 M 447.98 339.51 h 0 M 453.03 337.46 h 0 M 458.08 335.85 h 0 M 463.13 334.98 h 0 M 468.18 335.68 h 0 M 473.23 335.40 h 0 M 478.28 334.98 h 0 M 483.33 332.31 h 0 M 488.38 330.51 h 0 M 493.43 330.58 h 0 M 498.48 327.79 h 0 M 503.54 328.74 h 0 M 508.59 325.79 h 0 M 513.64 326.37 h 0 M 518.69 323.65 h 0 M 523.74 322.65 h 0 M 528.79 323.04 h 0 M 533.84 321.85 h 0 M 538.89 320.76 h 0 M 543.94 319.27 h 0 M 548.99 317.62 h 0 M 554.04 317.96 h 0 M 559.09 316.05 h 0 M 564.14 314.23 h 0 M 569.19 313.79 h 0 M 574.24 310.11 h 0 M 579.29 312.71 h 0 M 584.34 312.10 h 0 M 589.39 310.06 h 0 M 594.44 303.78 h 0 M 599.49 308.84 h 0 M 604.55 307.23 h 0 M 609.60 304.58 h 0 M 614.65 302.41 h 0 M 619.70 304.30 h 0 M 624.75 299.66 h 0 M 629.80 298.71 h 0 M 634.85 300.42 h 0 M 639.90 301.04 h 0 M 644.95 299.62 h 0 M 650.00 296.78 h 0" /><text  class="poloto_text poloto_legend_text" x="675" y="150" >ns_contr</text><line  class="poloto_scatter poloto_legend_icon poloto1stroke poloto1legend" stroke="black" x1="685" x2="685" y1="131.25" y2="131.25" /><path  class="poloto_scatter poloto1stroke" d=" M 150.00 399.90 h 0 M 155.05 399.05 h 0 M 160.10 398.21 h 0 M 165.15 394.72 h 0 M 170.20 398.15 h 0 M 175.25 397.84 h 0 M 180.30 397.38 h 0 M 185.35 397.01 h 0 M 190.40 396.55 h 0 M 195.45 396.14 h 0 M 200.51 394.69 h 0 M 205.56 393.09 h 0 M 210.61 391.70 h 0 M 215.66 391.27 h 0 M 220.71 390.84 h 0 M 225.76 389.97 h 0 M 230.81 389.84 h 0 M 235.86 389.41 h 0 M 240.91 388.70 h 0 M 245.96 388.35 h 0 M 251.01 386.87 h 0 M 256.06 387.07 h 0 M 261.11 385.76 h 0 M 266.16 385.09 h 0 M 271.21 384.63 h 0 M 276.26 384.88 h 0 M 281.31 384.04 h 0 M 286.36 382.82 h 0 M 291.41 383.08 h 0 M 296.46 382.79 h 0 M 301.52 381.14 h 0 M 306.57 380.77 h 0 M 311.62 379.98 h 0 M 316.67 380.00 h 0 M 321.72 378.32 h 0 M 326.77 374.09 h 0 M 331.82 378.39 h 0 M 336.87 376.62 h 0 M 341.92 373.92 h 0 M 346.97 375.69 h 0 M 352.02 375.16 h 0" /><text  class="poloto_text poloto_legend_text" x="675" y="200" >ns_par_contr</text><line  class="poloto_scatter poloto_legend_icon poloto2stroke poloto2legend" stroke="black" x1="685" x2="685" y1="181.25" y2="181.25" /><path  class="poloto_scatter poloto2stroke" d=" M 150.00 399.92 h 0 M 155.05 399.09 h 0 M 160.10 398.11 h 0 M 165.15 398.32 h 0 M 170.20 398.22 h 0 M 175.25 397.79 h 0 M 180.30 397.37 h 0 M 185.35 396.94 h 0 M 190.40 396.45 h 0 M 195.45 395.55 h 0 M 200.51 394.93 h 0 M 205.56 392.69 h 0 M 210.61 391.79 h 0 M 215.66 388.82 h 0 M 220.71 385.69 h 0 M 225.76 388.40 h 0 M 230.81 385.49 h 0 M 235.86 388.80 h 0 M 240.91 386.01 h 0 M 245.96 386.67 h 0 M 251.01 382.45 h 0 M 256.06 357.47 h 0 M 261.11 386.34 h 0 M 266.16 385.69 h 0 M 271.21 386.74 h 0 M 276.26 382.32 h 0 M 281.31 381.56 h 0 M 286.36 381.56 h 0 M 291.41 381.27 h 0 M 296.46 384.90 h 0 M 301.52 384.90 h 0 M 306.57 379.18 h 0 M 311.62 378.37 h 0 M 316.67 379.13 h 0 M 321.72 378.53 h 0 M 326.77 384.48 h 0 M 331.82 381.22 h 0 M 336.87 380.84 h 0 M 341.92 383.11 h 0 M 346.97 380.64 h 0 M 352.02 379.34 h 0 M 357.07 368.22 h 0 M 362.12 377.69 h 0 M 367.17 379.14 h 0 M 372.22 377.43 h 0 M 377.27 379.30 h 0 M 382.32 373.87 h 0 M 387.37 373.59 h 0 M 392.42 377.09 h 0 M 397.47 377.91 h 0 M 402.53 379.18 h 0 M 407.58 376.59 h 0 M 412.63 368.75 h 0 M 417.68 375.12 h 0 M 422.73 378.38 h 0 M 427.78 374.56 h 0 M 432.83 375.50 h 0 M 437.88 374.18 h 0 M 442.93 374.01 h 0 M 447.98 264.16 h 0 M 453.03 370.47 h 0 M 458.08 371.48 h 0 M 463.13 372.62 h 0 M 468.18 372.63 h 0 M 473.23 372.96 h 0 M 478.28 372.05 h 0 M 483.33 369.52 h 0 M 488.38 373.53 h 0 M 493.43 371.97 h 0 M 498.48 370.99 h 0 M 503.54 370.44 h 0 M 508.59 369.12 h 0 M 513.64 370.96 h 0 M 518.69 368.94 h 0 M 523.74 369.16 h 0 M 528.79 369.62 h 0" /><text  class="poloto_text poloto_legend_text" x="675" y="250" >ns_par_query</text><line  class="poloto_scatter poloto_legend_icon poloto3stroke poloto3legend" stroke="black" x1="685" x2="685" y1="231.25" y2="231.25" /><path  class="poloto_scatter poloto3stroke" d=" M 150.00 399.95 h 0 M 155.05 392.40 h 0 M 160.10 374.49 h 0 M 165.15 391.97 h 0 M 170.20 388.16 h 0 M 175.25 383.79 h 0 M 180.30 378.82 h 0 M 185.35 370.08 h 0 M 190.40 366.16 h 0 M 195.45 357.05 h 0 M 200.51 347.81 h 0 M 205.56 367.99 h 0 M 210.61 365.52 h 0 M 215.66 360.76 h 0 M 220.71 356.50 h 0 M 225.76 352.00 h 0 M 230.81 347.71 h 0 M 235.86 340.43 h 0 M 240.91 337.42 h 0 M 245.96 332.95 h 0 M 251.01 328.35 h 0 M 256.06 319.98 h 0 M 261.11 315.14 h 0 M 266.16 311.36 h 0 M 271.21 306.71 h 0 M 276.26 301.07 h 0 M 281.31 292.95 h 0 M 286.36 289.48 h 0 M 291.41 280.03 h 0 M 296.46 274.02 h 0 M 301.52 268.39 h 0 M 306.57 257.98 h 0 M 311.62 253.91 h 0 M 316.67 247.81 h 0 M 321.72 240.49 h 0 M 326.77 229.80 h 0 M 331.82 219.11 h 0 M 336.87 211.61 h 0 M 341.92 209.00 h 0 M 346.97 202.59 h 0 M 352.02 193.48 h 0 M 357.07 270.02 h 0 M 362.12 268.33 h 0 M 367.17 265.13 h 0 M 372.22 257.21 h 0 M 377.27 254.27 h 0 M 382.32 250.82 h 0 M 387.37 240.49 h 0 M 392.42 232.73 h 0 M 397.47 235.81 h 0 M 402.53 229.23 h 0 M 407.58 224.67 h 0 M 412.63 224.26 h 0 M 417.68 214.68 h 0 M 422.73 206.19 h 0 M 427.78 201.03 h 0 M 432.83 196.70 h 0 M 437.88 198.81 h 0 M 442.93 187.27 h 0 M 447.98 182.86 h 0 M 453.03 175.54 h 0 M 458.08 171.14 h 0 M 463.13 168.39 h 0 M 468.18 162.94 h 0 M 473.23 156.88 h 0 M 478.28 153.44 h 0 M 483.33 147.88 h 0 M 488.38 142.45 h 0 M 493.43 131.93 h 0 M 498.48 136.52 h 0 M 503.54 124.38 h 0 M 508.59 120.42 h 0 M 513.64 117.40 h 0 M 518.69 117.51 h 0 M 523.74 107.60 h 0 M 528.79 100.00 h 0" /><text  class="poloto_text poloto_legend_text" x="675" y="300" >ns_query</text><line  class="poloto_scatter poloto_legend_icon poloto4stroke poloto4legend" stroke="black" x1="685" x2="685" y1="281.25" y2="281.25" /><path  class="poloto_scatter poloto4stroke" d=" M 150.00 399.91 h 0 M 155.05 392.28 h 0 M 160.10 374.26 h 0 M 165.15 381.23 h 0 M 170.20 388.96 h 0 M 175.25 384.80 h 0 M 180.30 379.53 h 0 M 185.35 373.69 h 0 M 190.40 366.58 h 0 M 195.45 360.62 h 0 M 200.51 344.73 h 0 M 205.56 369.70 h 0 M 210.61 365.46 h 0 M 215.66 361.46 h 0 M 220.71 357.36 h 0 M 225.76 351.19 h 0 M 230.81 346.93 h 0 M 235.86 342.28 h 0 M 240.91 338.63 h 0 M 245.96 333.80 h 0 M 251.01 328.27 h 0 M 256.06 323.40 h 0 M 261.11 317.09 h 0 M 266.16 311.63 h 0 M 271.21 306.10 h 0 M 276.26 300.52 h 0 M 281.31 293.33 h 0 M 286.36 286.18 h 0 M 291.41 278.73 h 0 M 296.46 271.59 h 0 M 301.52 269.89 h 0 M 306.57 255.39 h 0 M 311.62 252.26 h 0 M 316.67 245.51 h 0 M 321.72 239.22 h 0 M 326.77 233.57 h 0 M 331.82 221.11 h 0 M 336.87 208.85 h 0 M 341.92 201.44 h 0 M 346.97 200.54 h 0 M 352.02 192.19 h 0" /><text  class="poloto_text poloto_legend_text" x="675" y="350" >par_contr</text><line  class="poloto_scatter poloto_legend_icon poloto5stroke poloto5legend" stroke="black" x1="685" x2="685" y1="331.25" y2="331.25" /><path  class="poloto_scatter poloto5stroke" d=" M 150.00 399.94 h 0 M 155.05 398.33 h 0 M 160.10 396.65 h 0 M 165.15 392.81 h 0 M 170.20 396.83 h 0 M 175.25 396.80 h 0 M 180.30 396.03 h 0 M 185.35 395.38 h 0 M 190.40 393.69 h 0 M 195.45 393.88 h 0 M 200.51 391.92 h 0 M 205.56 389.91 h 0 M 210.61 389.80 h 0 M 215.66 389.13 h 0 M 220.71 387.74 h 0 M 225.76 386.96 h 0 M 230.81 386.65 h 0 M 235.86 386.07 h 0 M 240.91 384.90 h 0 M 245.96 384.15 h 0 M 251.01 382.10 h 0 M 256.06 382.41 h 0 M 261.11 380.98 h 0 M 266.16 379.48 h 0 M 271.21 379.03 h 0 M 276.26 378.67 h 0 M 281.31 378.05 h 0 M 286.36 376.28 h 0 M 291.41 376.70 h 0 M 296.46 376.30 h 0 M 301.52 373.78 h 0 M 306.57 373.64 h 0 M 311.62 372.55 h 0 M 316.67 371.75 h 0 M 321.72 370.26 h 0 M 326.77 369.14 h 0 M 331.82 369.79 h 0 M 336.87 367.65 h 0 M 341.92 367.33 h 0 M 346.97 365.51 h 0 M 352.02 364.94 h 0 M 357.07 357.98 h 0 M 362.12 357.09 h 0 M 367.17 355.60 h 0 M 372.22 355.75 h 0 M 377.27 354.96 h 0 M 382.32 352.29 h 0 M 387.37 352.68 h 0 M 392.42 350.48 h 0 M 397.47 348.56 h 0 M 402.53 349.26 h 0 M 407.58 348.35 h 0 M 412.63 347.19 h 0 M 417.68 345.73 h 0 M 422.73 345.48 h 0 M 427.78 344.33 h 0 M 432.83 341.09 h 0 M 437.88 340.54 h 0 M 442.93 340.68 h 0 M 447.98 339.23 h 0 M 453.03 338.22 h 0 M 458.08 336.30 h 0 M 463.13 329.60 h 0 M 468.18 335.22 h 0 M 473.23 335.19 h 0 M 478.28 334.13 h 0 M 483.33 332.34 h 0 M 488.38 330.93 h 0 M 493.43 330.58 h 0 M 498.48 327.87 h 0 M 503.54 328.01 h 0 M 508.59 325.24 h 0 M 513.64 326.19 h 0 M 518.69 323.54 h 0 M 523.74 322.77 h 0 M 528.79 322.59 h 0 M 533.84 321.82 h 0 M 538.89 321.72 h 0 M 543.94 316.42 h 0 M 548.99 318.76 h 0 M 554.04 317.66 h 0 M 559.09 315.48 h 0 M 564.14 314.13 h 0 M 569.19 314.81 h 0 M 574.24 312.68 h 0 M 579.29 313.35 h 0 M 584.34 311.51 h 0 M 589.39 309.80 h 0 M 594.44 304.56 h 0 M 599.49 309.04 h 0 M 604.55 307.59 h 0 M 609.60 302.80 h 0 M 614.65 302.65 h 0 M 619.70 304.71 h 0 M 624.75 300.57 h 0 M 629.80 299.27 h 0 M 634.85 300.20 h 0 M 639.90 300.16 h 0 M 644.95 299.82 h 0 M 650.00 296.69 h 0" /><text  class="poloto_text poloto_legend_text" x="675" y="400" >par_query</text><line  class="poloto_scatter poloto_legend_icon poloto6stroke poloto6legend" stroke="black" x1="685" x2="685" y1="381.25" y2="381.25" /><path  class="poloto_scatter poloto6stroke" d=" M 150.00 399.90 h 0 M 155.05 396.72 h 0 M 160.10 391.80 h 0 M 165.15 383.53 h 0 M 170.20 394.10 h 0 M 175.25 392.74 h 0 M 180.30 390.07 h 0 M 185.35 390.20 h 0 M 190.40 388.46 h 0 M 195.45 385.84 h 0 M 200.51 383.11 h 0 M 205.56 385.60 h 0 M 210.61 384.29 h 0 M 215.66 378.22 h 0 M 220.71 379.10 h 0 M 225.76 377.54 h 0 M 230.81 378.89 h 0 M 235.86 378.14 h 0 M 240.91 378.77 h 0 M 245.96 372.69 h 0 M 251.01 372.18 h 0 M 256.06 368.62 h 0 M 261.11 374.01 h 0 M 266.16 372.81 h 0 M 271.21 373.48 h 0 M 276.26 369.83 h 0 M 281.31 377.91 h 0 M 286.36 374.82 h 0 M 291.41 374.61 h 0 M 296.46 373.58 h 0 M 301.52 372.93 h 0 M 306.57 375.20 h 0 M 311.62 370.85 h 0 M 316.67 371.00 h 0 M 321.72 365.25 h 0 M 326.77 361.66 h 0 M 331.82 366.37 h 0 M 336.87 367.70 h 0 M 341.92 364.86 h 0 M 346.97 366.73 h 0 M 352.02 361.94 h 0 M 357.07 367.55 h 0 M 362.12 367.72 h 0 M 367.17 368.02 h 0 M 372.22 365.91 h 0 M 377.27 366.52 h 0 M 382.32 365.24 h 0 M 387.37 364.72 h 0 M 392.42 363.82 h 0 M 397.47 369.70 h 0 M 402.53 364.50 h 0 M 407.58 363.86 h 0 M 412.63 360.46 h 0 M 417.68 361.25 h 0 M 422.73 362.55 h 0 M 427.78 361.58 h 0 M 432.83 348.52 h 0 M 437.88 357.23 h 0 M 442.93 360.81 h 0 M 447.98 344.65 h 0 M 453.03 348.96 h 0 M 458.08 359.39 h 0 M 463.13 358.96 h 0 M 468.18 357.58 h 0 M 473.23 356.41 h 0 M 478.28 357.40 h 0 M 483.33 356.14 h 0 M 488.38 354.39 h 0 M 493.43 355.92 h 0 M 498.48 356.50 h 0 M 503.54 354.20 h 0 M 508.59 353.12 h 0 M 513.64 353.89 h 0 M 518.69 352.77 h 0 M 523.74 352.08 h 0 M 528.79 350.83 h 0 M 533.84 336.29 h 0 M 538.89 350.44 h 0 M 543.94 352.49 h 0 M 548.99 351.03 h 0 M 554.04 345.38 h 0 M 559.09 345.25 h 0 M 564.14 346.37 h 0 M 569.19 343.64 h 0 M 574.24 342.90 h 0 M 579.29 342.46 h 0 M 584.34 342.30 h 0 M 589.39 340.12 h 0 M 594.44 342.76 h 0 M 599.49 340.47 h 0 M 604.55 339.37 h 0 M 609.60 339.73 h 0 M 614.65 338.48 h 0 M 619.70 338.83 h 0 M 624.75 337.38 h 0 M 629.80 330.61 h 0 M 634.85 338.45 h 0 M 639.90 335.89 h 0 M 644.95 336.37 h 0 M 650.00 336.58 h 0" /><text  class="poloto_text poloto_legend_text" x="675" y="450" >query</text><line  class="poloto_scatter poloto_legend_icon poloto7stroke poloto7legend" stroke="black" x1="685" x2="685" y1="431.25" y2="431.25" /><path  class="poloto_scatter poloto7stroke" d=" M 150.00 399.83 h 0 M 155.05 395.12 h 0 M 160.10 390.41 h 0 M 165.15 383.78 h 0 M 170.20 392.91 h 0 M 175.25 393.07 h 0 M 180.30 390.77 h 0 M 185.35 389.29 h 0 M 190.40 387.51 h 0 M 195.45 385.75 h 0 M 200.51 380.89 h 0 M 205.56 379.66 h 0 M 210.61 382.71 h 0 M 215.66 380.88 h 0 M 220.71 379.53 h 0 M 225.76 378.41 h 0 M 230.81 377.04 h 0 M 235.86 376.59 h 0 M 240.91 373.43 h 0 M 245.96 373.03 h 0 M 251.01 366.75 h 0 M 256.06 369.71 h 0 M 261.11 368.86 h 0 M 266.16 367.07 h 0 M 271.21 364.44 h 0 M 276.26 364.31 h 0 M 281.31 362.50 h 0 M 286.36 360.16 h 0 M 291.41 358.95 h 0 M 296.46 357.58 h 0 M 301.52 355.76 h 0 M 306.57 353.71 h 0 M 311.62 352.08 h 0 M 316.67 348.30 h 0 M 321.72 349.20 h 0 M 326.77 347.89 h 0 M 331.82 344.37 h 0 M 336.87 341.95 h 0 M 341.92 340.82 h 0 M 346.97 339.02 h 0 M 352.02 338.09 h 0 M 357.07 343.17 h 0 M 362.12 339.63 h 0 M 367.17 341.86 h 0 M 372.22 337.97 h 0 M 377.27 337.17 h 0 M 382.32 337.04 h 0 M 387.37 336.73 h 0 M 392.42 333.63 h 0 M 397.47 332.31 h 0 M 402.53 330.09 h 0 M 407.58 329.22 h 0 M 412.63 326.08 h 0 M 417.68 327.67 h 0 M 422.73 323.59 h 0 M 427.78 321.93 h 0 M 432.83 324.76 h 0 M 437.88 323.05 h 0 M 442.93 316.12 h 0 M 447.98 320.03 h 0 M 453.03 315.93 h 0 M 458.08 313.43 h 0 M 463.13 310.86 h 0 M 468.18 312.62 h 0 M 473.23 307.90 h 0 M 478.28 312.22 h 0 M 483.33 304.04 h 0 M 488.38 307.41 h 0 M 493.43 308.08 h 0 M 498.48 306.11 h 0 M 503.54 301.54 h 0 M 508.59 302.52 h 0 M 513.64 295.28 h 0 M 518.69 294.75 h 0 M 523.74 298.33 h 0 M 528.79 296.87 h 0 M 533.84 295.01 h 0 M 538.89 295.56 h 0 M 543.94 284.31 h 0 M 548.99 286.64 h 0 M 554.04 289.46 h 0 M 559.09 278.90 h 0 M 564.14 281.72 h 0 M 569.19 277.13 h 0 M 574.24 276.43 h 0 M 579.29 275.23 h 0 M 584.34 275.66 h 0 M 589.39 274.70 h 0 M 594.44 269.67 h 0 M 599.49 267.09 h 0 M 604.55 266.26 h 0 M 609.60 264.05 h 0 M 614.65 271.41 h 0 M 619.70 260.85 h 0 M 624.75 259.59 h 0 M 629.80 257.97 h 0 M 634.85 264.64 h 0 M 639.90 256.26 h 0 M 644.95 257.37 h 0 M 650.00 248.10 h 0" /><text  class="poloto_labels poloto_text poloto_title" x="400" y="37.5" >Bench of construction vs query abspiral(x,1.5)</text><text  class="poloto_labels poloto_text poloto_xname" x="400" y="481.25" >Number of Elements</text><text  class="poloto_labels poloto_text poloto_yname" transform="rotate(-90,37.5,250)" x="37.5" y="250" >Time in Seconds</text><text  class="poloto_tick_labels poloto_text" dominant-baseline="middle" text-anchor="start" x="150" y="70" ></text><line  class="poloto_axis_lines" stroke="black" x1="150" x2="144" y1="400" y2="400" /><text  class="poloto_tick_labels poloto_text" dominant-baseline="middle" text-anchor="end" x="135" y="400" >0e0</text><line  class="poloto_axis_lines" stroke="black" x1="150" x2="144" y1="337.69425115239676" y2="337.69425115239676" /><text  class="poloto_tick_labels poloto_text" dominant-baseline="middle" text-anchor="end" x="135" y="337.69425115239676" >0.001</text><line  class="poloto_axis_lines" stroke="black" x1="150" x2="144" y1="275.3885023047935" y2="275.3885023047935" /><text  class="poloto_tick_labels poloto_text" dominant-baseline="middle" text-anchor="end" x="135" y="275.3885023047935" >0.002</text><line  class="poloto_axis_lines" stroke="black" x1="150" x2="144" y1="213.08275345719028" y2="213.08275345719028" /><text  class="poloto_tick_labels poloto_text" dominant-baseline="middle" text-anchor="end" x="135" y="213.08275345719028" >0.003</text><line  class="poloto_axis_lines" stroke="black" x1="150" x2="144" y1="150.77700460958698" y2="150.77700460958698" /><text  class="poloto_tick_labels poloto_text" dominant-baseline="middle" text-anchor="end" x="135" y="150.77700460958698" >0.004</text><text  class="poloto_tick_labels poloto_text" dominant-baseline="middle" text-anchor="start" x="440.00000000000006" y="70" ></text><line  class="poloto_axis_lines" stroke="black" x1="150" x2="150" y1="400" y2="405" /><text  class="poloto_tick_labels poloto_text" dominant-baseline="start" text-anchor="middle" x="150" y="430" >0</text><line  class="poloto_axis_lines" stroke="black" x1="276.26262626262627" x2="276.26262626262627" y1="400" y2="405" /><text  class="poloto_tick_labels poloto_text" dominant-baseline="start" text-anchor="middle" x="276.26262626262627" y="430" >5000</text><line  class="poloto_axis_lines" stroke="black" x1="402.52525252525254" x2="402.52525252525254" y1="400" y2="405" /><text  class="poloto_tick_labels poloto_text" dominant-baseline="start" text-anchor="middle" x="402.52525252525254" y="430" >10000</text><line  class="poloto_axis_lines" stroke="black" x1="528.7878787878788" x2="528.7878787878788" y1="400" y2="405" /><text  class="poloto_tick_labels poloto_text" dominant-baseline="start" text-anchor="middle" x="528.7878787878788" y="430" >15000</text><path  stroke="black" fill="none" class="poloto_axis_lines" style="stroke-dasharray:12.626262626262626;stroke-dashoffset:-0;" d=" M 150 400 L 650 400" /><path  stroke="black" fill="none" class="poloto_axis_lines" style="stroke-dasharray:6.230574884760325;stroke-dashoffset:-0;" d=" M 150 400 L 150 100" /></svg>