<svg class="poloto" width="800" height="500" viewBox="0 0 800 500" xmlns="http://www.w3.org/2000/svg"><circle  r="1e5" class="poloto_background" /><text  class="poloto_text poloto_legend_text" x="675" y="100" >contr</text><line  class="poloto_scatter poloto_legend_icon poloto0stroke poloto0legend" stroke="black" x1="685" x2="685" y1="81.25" y2="81.25" /><path  class="poloto_scatter poloto0stroke" d=" M 150.00 399.86 h 0 M 155.05 396.36 h 0 M 160.10 396.25 h 0 M 165.15 391.88 h 0 M 170.20 389.74 h 0 M 175.25 387.65 h 0 M 180.30 396.07 h 0 M 185.35 387.56 h 0 M 190.40 389.61 h 0 M 195.45 392.52 h 0 M 200.51 393.34 h 0 M 205.56 391.20 h 0 M 210.61 389.88 h 0 M 215.66 389.30 h 0 M 220.71 388.35 h 0 M 225.76 387.58 h 0 M 230.81 386.87 h 0 M 235.86 386.06 h 0 M 240.91 384.56 h 0 M 245.96 384.09 h 0 M 251.01 383.37 h 0 M 256.06 382.89 h 0 M 261.11 381.70 h 0 M 266.16 380.61 h 0 M 271.21 379.50 h 0 M 276.26 379.37 h 0 M 281.31 378.78 h 0 M 286.36 376.87 h 0 M 291.41 376.85 h 0 M 296.46 376.91 h 0 M 301.52 375.01 h 0 M 306.57 374.04 h 0 M 311.62 373.45 h 0 M 316.67 372.87 h 0 M 321.72 370.76 h 0 M 326.77 370.60 h 0 M 331.82 369.60 h 0 M 336.87 368.44 h 0 M 341.92 368.30 h 0 M 346.97 367.37 h 0 M 352.02 365.51 h 0 M 357.07 359.08 h 0 M 362.12 359.29 h 0 M 367.17 357.84 h 0 M 372.22 356.66 h 0 M 377.27 355.74 h 0 M 382.32 354.29 h 0 M 387.37 353.91 h 0 M 392.42 352.81 h 0 M 397.47 350.80 h 0 M 402.53 350.29 h 0 M 407.58 349.26 h 0 M 412.63 347.64 h 0 M 417.68 346.27 h 0 M 422.73 347.37 h 0 M 427.78 345.32 h 0 M 432.83 343.26 h 0 M 437.88 342.39 h 0 M 442.93 341.91 h 0 M 447.98 340.92 h 0 M 453.03 339.00 h 0 M 458.08 336.91 h 0 M 463.13 335.73 h 0 M 468.18 335.71 h 0 M 473.23 337.03 h 0 M 478.28 336.62 h 0 M 483.33 333.78 h 0 M 488.38 333.18 h 0 M 493.43 332.64 h 0 M 498.48 328.50 h 0 M 503.54 330.97 h 0 M 508.59 327.64 h 0 M 513.64 326.89 h 0 M 518.69 325.53 h 0 M 523.74 324.08 h 0 M 528.79 323.31 h 0 M 533.84 320.32 h 0 M 538.89 324.78 h 0 M 543.94 323.12 h 0 M 548.99 319.54 h 0 M 554.04 320.63 h 0 M 559.09 316.32 h 0 M 564.14 315.88 h 0 M 569.19 315.33 h 0 M 574.24 314.79 h 0 M 579.29 314.52 h 0 M 584.34 314.13 h 0 M 589.39 312.85 h 0 M 594.44 306.90 h 0 M 599.49 309.53 h 0 M 604.55 309.23 h 0 M 609.60 305.08 h 0 M 614.65 304.28 h 0 M 619.70 308.32 h 0 M 624.75 304.25 h 0 M 629.80 301.78 h 0 M 634.85 303.36 h 0 M 639.90 303.59 h 0 M 644.95 303.62 h 0 M 650.00 275.75 h 0" /><text  class="poloto_text poloto_legend_text" x="675" y="150" >ns_contr</text><line  class="poloto_scatter poloto_legend_icon poloto1stroke poloto1legend" stroke="black" x1="685" x2="685" y1="131.25" y2="131.25" /><path  class="poloto_scatter poloto1stroke" d=" M 150.00 399.92 h 0 M 155.05 399.17 h 0 M 160.10 398.08 h 0 M 165.15 394.32 h 0 M 170.20 389.97 h 0 M 175.25 392.44 h 0 M 180.30 397.41 h 0 M 185.35 392.98 h 0 M 190.40 394.00 h 0 M 195.45 395.32 h 0 M 200.51 395.88 h 0 M 205.56 392.95 h 0 M 210.61 392.16 h 0 M 215.66 391.83 h 0 M 220.71 390.91 h 0 M 225.76 390.75 h 0 M 230.81 389.58 h 0 M 235.86 389.77 h 0 M 240.91 388.77 h 0 M 245.96 388.64 h 0 M 251.01 387.65 h 0 M 256.06 387.40 h 0 M 261.11 386.54 h 0 M 266.16 385.72 h 0 M 271.21 384.80 h 0 M 276.26 385.04 h 0 M 281.31 384.67 h 0 M 286.36 383.03 h 0 M 291.41 383.34 h 0 M 296.46 383.65 h 0 M 301.52 382.18 h 0 M 306.57 380.61 h 0 M 311.62 380.97 h 0 M 316.67 380.73 h 0 M 321.72 379.36 h 0 M 326.77 377.36 h 0 M 331.82 378.86 h 0 M 336.87 377.61 h 0 M 341.92 376.77 h 0 M 346.97 376.74 h 0 M 352.02 375.68 h 0" /><text  class="poloto_text poloto_legend_text" x="675" y="200" >ns_par_contr</text><line  class="poloto_scatter poloto_legend_icon poloto2stroke poloto2legend" stroke="black" x1="685" x2="685" y1="181.25" y2="181.25" /><path  class="poloto_scatter poloto2stroke" d=" M 150.00 399.96 h 0 M 155.05 399.23 h 0 M 160.10 397.97 h 0 M 165.15 394.22 h 0 M 170.20 392.56 h 0 M 175.25 392.98 h 0 M 180.30 397.48 h 0 M 185.35 392.71 h 0 M 190.40 393.99 h 0 M 195.45 394.67 h 0 M 200.51 395.83 h 0 M 205.56 388.28 h 0 M 210.61 385.91 h 0 M 215.66 387.43 h 0 M 220.71 378.41 h 0 M 225.76 388.70 h 0 M 230.81 382.49 h 0 M 235.86 383.17 h 0 M 240.91 384.85 h 0 M 245.96 385.84 h 0 M 251.01 381.40 h 0 M 256.06 379.05 h 0 M 261.11 379.93 h 0 M 266.16 382.73 h 0 M 271.21 379.42 h 0 M 276.26 380.06 h 0 M 281.31 379.72 h 0 M 286.36 375.87 h 0 M 291.41 381.57 h 0 M 296.46 384.32 h 0 M 301.52 374.39 h 0 M 306.57 377.73 h 0 M 311.62 376.94 h 0 M 316.67 377.75 h 0 M 321.72 375.96 h 0 M 326.77 376.35 h 0 M 331.82 372.63 h 0 M 336.87 376.31 h 0 M 341.92 375.26 h 0 M 346.97 370.44 h 0 M 352.02 376.93 h 0 M 357.07 380.58 h 0 M 362.12 380.85 h 0 M 367.17 377.85 h 0 M 372.22 379.21 h 0 M 377.27 378.04 h 0 M 382.32 374.89 h 0 M 387.37 377.46 h 0 M 392.42 376.01 h 0 M 397.47 374.38 h 0 M 402.53 379.15 h 0 M 407.58 376.04 h 0 M 412.63 374.19 h 0 M 417.68 377.39 h 0 M 422.73 377.38 h 0 M 427.78 376.82 h 0 M 432.83 375.35 h 0 M 437.88 376.11 h 0 M 442.93 373.10 h 0 M 447.98 373.52 h 0 M 453.03 374.27 h 0 M 458.08 371.62 h 0 M 463.13 373.09 h 0 M 468.18 372.68 h 0 M 473.23 375.15 h 0 M 478.28 372.65 h 0 M 483.33 372.15 h 0 M 488.38 370.14 h 0 M 493.43 372.81 h 0 M 498.48 370.54 h 0 M 503.54 371.30 h 0 M 508.59 368.87 h 0 M 513.64 371.70 h 0 M 518.69 369.60 h 0 M 523.74 367.40 h 0 M 528.79 370.10 h 0" /><text  class="poloto_text poloto_legend_text" x="675" y="250" >ns_par_query</text><line  class="poloto_scatter poloto_legend_icon poloto3stroke poloto3legend" stroke="black" x1="685" x2="685" y1="231.25" y2="231.25" /><path  class="poloto_scatter poloto3stroke" d=" M 150.00 399.96 h 0 M 155.05 394.35 h 0 M 160.10 370.84 h 0 M 165.15 373.04 h 0 M 170.20 356.77 h 0 M 175.25 375.50 h 0 M 180.30 353.60 h 0 M 185.35 337.72 h 0 M 190.40 340.93 h 0 M 195.45 353.42 h 0 M 200.51 353.80 h 0 M 205.56 370.99 h 0 M 210.61 366.12 h 0 M 215.66 361.25 h 0 M 220.71 357.45 h 0 M 225.76 353.95 h 0 M 230.81 346.53 h 0 M 235.86 341.19 h 0 M 240.91 339.34 h 0 M 245.96 334.19 h 0 M 251.01 329.09 h 0 M 256.06 324.38 h 0 M 261.11 315.83 h 0 M 266.16 311.99 h 0 M 271.21 301.30 h 0 M 276.26 299.87 h 0 M 281.31 292.41 h 0 M 286.36 289.06 h 0 M 291.41 280.11 h 0 M 296.46 272.60 h 0 M 301.52 269.13 h 0 M 306.57 261.04 h 0 M 311.62 254.62 h 0 M 316.67 245.19 h 0 M 321.72 236.59 h 0 M 326.77 231.85 h 0 M 331.82 219.84 h 0 M 336.87 215.86 h 0 M 341.92 207.11 h 0 M 346.97 194.90 h 0 M 352.02 189.44 h 0 M 357.07 272.07 h 0 M 362.12 269.28 h 0 M 367.17 265.40 h 0 M 372.22 256.50 h 0 M 377.27 253.23 h 0 M 382.32 252.59 h 0 M 387.37 247.19 h 0 M 392.42 237.43 h 0 M 397.47 237.56 h 0 M 402.53 229.10 h 0 M 407.58 228.95 h 0 M 412.63 222.50 h 0 M 417.68 216.24 h 0 M 422.73 209.07 h 0 M 427.78 203.49 h 0 M 432.83 199.70 h 0 M 437.88 195.63 h 0 M 442.93 196.34 h 0 M 447.98 180.19 h 0 M 453.03 187.74 h 0 M 458.08 175.25 h 0 M 463.13 173.35 h 0 M 468.18 167.02 h 0 M 473.23 155.56 h 0 M 478.28 158.35 h 0 M 483.33 151.12 h 0 M 488.38 146.38 h 0 M 493.43 138.03 h 0 M 498.48 134.16 h 0 M 503.54 127.57 h 0 M 508.59 123.85 h 0 M 513.64 118.83 h 0 M 518.69 114.43 h 0 M 523.74 106.06 h 0 M 528.79 100.00 h 0" /><text  class="poloto_text poloto_legend_text" x="675" y="300" >ns_query</text><line  class="poloto_scatter poloto_legend_icon poloto4stroke poloto4legend" stroke="black" x1="685" x2="685" y1="281.25" y2="281.25" /><path  class="poloto_scatter poloto4stroke" d=" M 150.00 399.95 h 0 M 155.05 393.04 h 0 M 160.10 374.16 h 0 M 165.15 371.19 h 0 M 170.20 355.63 h 0 M 175.25 341.92 h 0 M 180.30 380.27 h 0 M 185.35 339.13 h 0 M 190.40 340.11 h 0 M 195.45 354.16 h 0 M 200.51 351.29 h 0 M 205.56 369.67 h 0 M 210.61 363.34 h 0 M 215.66 359.27 h 0 M 220.71 354.89 h 0 M 225.76 349.43 h 0 M 230.81 348.91 h 0 M 235.86 344.76 h 0 M 240.91 339.69 h 0 M 245.96 335.46 h 0 M 251.01 332.29 h 0 M 256.06 325.47 h 0 M 261.11 318.50 h 0 M 266.16 313.65 h 0 M 271.21 310.01 h 0 M 276.26 301.84 h 0 M 281.31 295.12 h 0 M 286.36 290.64 h 0 M 291.41 278.50 h 0 M 296.46 277.98 h 0 M 301.52 271.86 h 0 M 306.57 265.92 h 0 M 311.62 260.25 h 0 M 316.67 250.91 h 0 M 321.72 245.45 h 0 M 326.77 233.84 h 0 M 331.82 229.79 h 0 M 336.87 222.39 h 0 M 341.92 218.22 h 0 M 346.97 211.16 h 0 M 352.02 199.06 h 0" /><text  class="poloto_text poloto_legend_text" x="675" y="350" >par_contr</text><line  class="poloto_scatter poloto_legend_icon poloto5stroke poloto5legend" stroke="black" x1="685" x2="685" y1="331.25" y2="331.25" /><path  class="poloto_scatter poloto5stroke" d=" M 150.00 399.99 h 0 M 155.05 398.61 h 0 M 160.10 397.10 h 0 M 165.15 388.70 h 0 M 170.20 389.87 h 0 M 175.25 387.53 h 0 M 180.30 395.98 h 0 M 185.35 386.89 h 0 M 190.40 390.62 h 0 M 195.45 392.72 h 0 M 200.51 393.43 h 0 M 205.56 391.08 h 0 M 210.61 390.19 h 0 M 215.66 389.16 h 0 M 220.71 388.28 h 0 M 225.76 388.08 h 0 M 230.81 387.08 h 0 M 235.86 385.70 h 0 M 240.91 385.05 h 0 M 245.96 385.01 h 0 M 251.01 383.27 h 0 M 256.06 383.19 h 0 M 261.11 382.08 h 0 M 266.16 380.87 h 0 M 271.21 379.71 h 0 M 276.26 378.99 h 0 M 281.31 378.65 h 0 M 286.36 376.71 h 0 M 291.41 376.64 h 0 M 296.46 377.12 h 0 M 301.52 375.40 h 0 M 306.57 373.91 h 0 M 311.62 373.32 h 0 M 316.67 372.28 h 0 M 321.72 371.05 h 0 M 326.77 369.67 h 0 M 331.82 369.99 h 0 M 336.87 367.92 h 0 M 341.92 367.43 h 0 M 346.97 367.17 h 0 M 352.02 365.61 h 0 M 357.07 358.32 h 0 M 362.12 359.52 h 0 M 367.17 358.02 h 0 M 372.22 356.82 h 0 M 377.27 355.88 h 0 M 382.32 354.73 h 0 M 387.37 354.77 h 0 M 392.42 353.13 h 0 M 397.47 351.68 h 0 M 402.53 351.04 h 0 M 407.58 349.11 h 0 M 412.63 346.83 h 0 M 417.68 346.88 h 0 M 422.73 346.89 h 0 M 427.78 345.75 h 0 M 432.83 342.77 h 0 M 437.88 343.15 h 0 M 442.93 341.83 h 0 M 447.98 340.31 h 0 M 453.03 340.01 h 0 M 458.08 336.76 h 0 M 463.13 335.63 h 0 M 468.18 336.49 h 0 M 473.23 337.60 h 0 M 478.28 336.91 h 0 M 483.33 331.98 h 0 M 488.38 332.44 h 0 M 493.43 332.30 h 0 M 498.48 327.70 h 0 M 503.54 329.96 h 0 M 508.59 326.70 h 0 M 513.64 326.76 h 0 M 518.69 326.36 h 0 M 523.74 323.99 h 0 M 528.79 324.69 h 0 M 533.84 323.30 h 0 M 538.89 322.97 h 0 M 543.94 322.81 h 0 M 548.99 321.02 h 0 M 554.04 320.73 h 0 M 559.09 316.70 h 0 M 564.14 317.92 h 0 M 569.19 315.12 h 0 M 574.24 315.36 h 0 M 579.29 316.17 h 0 M 584.34 313.92 h 0 M 589.39 313.66 h 0 M 594.44 305.32 h 0 M 599.49 310.95 h 0 M 604.55 309.11 h 0 M 609.60 304.88 h 0 M 614.65 305.14 h 0 M 619.70 307.94 h 0 M 624.75 303.42 h 0 M 629.80 300.30 h 0 M 634.85 303.49 h 0 M 639.90 303.93 h 0 M 644.95 302.22 h 0 M 650.00 277.75 h 0" /><text  class="poloto_text poloto_legend_text" x="675" y="400" >par_query</text><line  class="poloto_scatter poloto_legend_icon poloto6stroke poloto6legend" stroke="black" x1="685" x2="685" y1="381.25" y2="381.25" /><path  class="poloto_scatter poloto6stroke" d=" M 150.00 399.93 h 0 M 155.05 397.00 h 0 M 160.10 391.85 h 0 M 165.15 384.34 h 0 M 170.20 379.67 h 0 M 175.25 370.89 h 0 M 180.30 390.92 h 0 M 185.35 374.02 h 0 M 190.40 378.43 h 0 M 195.45 383.73 h 0 M 200.51 384.39 h 0 M 205.56 378.32 h 0 M 210.61 381.32 h 0 M 215.66 383.65 h 0 M 220.71 377.45 h 0 M 225.76 386.60 h 0 M 230.81 380.90 h 0 M 235.86 384.66 h 0 M 240.91 379.26 h 0 M 245.96 378.72 h 0 M 251.01 379.51 h 0 M 256.06 376.60 h 0 M 261.11 368.48 h 0 M 266.16 376.16 h 0 M 271.21 377.55 h 0 M 276.26 376.76 h 0 M 281.31 375.46 h 0 M 286.36 375.89 h 0 M 291.41 374.82 h 0 M 296.46 373.56 h 0 M 301.52 371.72 h 0 M 306.57 375.57 h 0 M 311.62 372.60 h 0 M 316.67 372.28 h 0 M 321.72 371.12 h 0 M 326.77 371.23 h 0 M 331.82 366.56 h 0 M 336.87 368.43 h 0 M 341.92 367.34 h 0 M 346.97 366.72 h 0 M 352.02 369.75 h 0 M 357.07 371.93 h 0 M 362.12 367.89 h 0 M 367.17 368.76 h 0 M 372.22 365.94 h 0 M 377.27 368.07 h 0 M 382.32 367.00 h 0 M 387.37 366.60 h 0 M 392.42 365.41 h 0 M 397.47 364.93 h 0 M 402.53 363.88 h 0 M 407.58 358.67 h 0 M 412.63 363.02 h 0 M 417.68 361.84 h 0 M 422.73 362.65 h 0 M 427.78 360.97 h 0 M 432.83 366.57 h 0 M 437.88 361.71 h 0 M 442.93 359.82 h 0 M 447.98 359.58 h 0 M 453.03 360.94 h 0 M 458.08 360.57 h 0 M 463.13 361.01 h 0 M 468.18 359.96 h 0 M 473.23 355.34 h 0 M 478.28 357.71 h 0 M 483.33 358.40 h 0 M 488.38 356.50 h 0 M 493.43 357.08 h 0 M 498.48 356.20 h 0 M 503.54 350.62 h 0 M 508.59 354.08 h 0 M 513.64 354.15 h 0 M 518.69 352.25 h 0 M 523.74 352.74 h 0 M 528.79 356.25 h 0 M 533.84 352.19 h 0 M 538.89 353.56 h 0 M 543.94 350.08 h 0 M 548.99 350.48 h 0 M 554.04 335.95 h 0 M 559.09 348.18 h 0 M 564.14 345.30 h 0 M 569.19 346.17 h 0 M 574.24 345.66 h 0 M 579.29 342.00 h 0 M 584.34 346.00 h 0 M 589.39 344.93 h 0 M 594.44 340.99 h 0 M 599.49 335.63 h 0 M 604.55 337.16 h 0 M 609.60 349.28 h 0 M 614.65 338.78 h 0 M 619.70 341.73 h 0 M 624.75 332.45 h 0 M 629.80 341.39 h 0 M 634.85 334.03 h 0 M 639.90 330.93 h 0 M 644.95 324.55 h 0 M 650.00 321.91 h 0" /><text  class="poloto_text poloto_legend_text" x="675" y="450" >query</text><line  class="poloto_scatter poloto_legend_icon poloto7stroke poloto7legend" stroke="black" x1="685" x2="685" y1="431.25" y2="431.25" /><path  class="poloto_scatter poloto7stroke" d=" M 150.00 399.83 h 0 M 155.05 395.72 h 0 M 160.10 387.20 h 0 M 165.15 383.27 h 0 M 170.20 376.21 h 0 M 175.25 370.64 h 0 M 180.30 391.17 h 0 M 185.35 367.72 h 0 M 190.40 377.15 h 0 M 195.45 383.02 h 0 M 200.51 382.27 h 0 M 205.56 386.15 h 0 M 210.61 382.07 h 0 M 215.66 381.34 h 0 M 220.71 380.68 h 0 M 225.76 379.45 h 0 M 230.81 375.71 h 0 M 235.86 375.82 h 0 M 240.91 371.60 h 0 M 245.96 373.84 h 0 M 251.01 372.47 h 0 M 256.06 370.83 h 0 M 261.11 368.86 h 0 M 266.16 367.06 h 0 M 271.21 366.29 h 0 M 276.26 365.07 h 0 M 281.31 362.47 h 0 M 286.36 362.68 h 0 M 291.41 360.41 h 0 M 296.46 358.53 h 0 M 301.52 355.86 h 0 M 306.57 354.68 h 0 M 311.62 352.88 h 0 M 316.67 351.42 h 0 M 321.72 350.05 h 0 M 326.77 348.73 h 0 M 331.82 340.27 h 0 M 336.87 340.40 h 0 M 341.92 342.69 h 0 M 346.97 340.75 h 0 M 352.02 339.97 h 0 M 357.07 345.71 h 0 M 362.12 342.48 h 0 M 367.17 339.73 h 0 M 372.22 338.35 h 0 M 377.27 337.97 h 0 M 382.32 336.47 h 0 M 387.37 331.08 h 0 M 392.42 333.59 h 0 M 397.47 331.24 h 0 M 402.53 333.26 h 0 M 407.58 322.25 h 0 M 412.63 329.85 h 0 M 417.68 331.66 h 0 M 422.73 323.30 h 0 M 427.78 323.73 h 0 M 432.83 326.59 h 0 M 437.88 317.88 h 0 M 442.93 314.95 h 0 M 447.98 319.00 h 0 M 453.03 315.92 h 0 M 458.08 310.89 h 0 M 463.13 314.65 h 0 M 468.18 318.72 h 0 M 473.23 309.66 h 0 M 478.28 307.07 h 0 M 483.33 312.03 h 0 M 488.38 311.61 h 0 M 493.43 310.18 h 0 M 498.48 310.61 h 0 M 503.54 304.23 h 0 M 508.59 305.63 h 0 M 513.64 293.95 h 0 M 518.69 295.32 h 0 M 523.74 298.75 h 0 M 528.79 300.30 h 0 M 533.84 291.82 h 0 M 538.89 286.22 h 0 M 543.94 288.76 h 0 M 548.99 293.07 h 0 M 554.04 290.49 h 0 M 559.09 292.58 h 0 M 564.14 282.94 h 0 M 569.19 282.91 h 0 M 574.24 277.45 h 0 M 579.29 282.73 h 0 M 584.34 280.51 h 0 M 589.39 271.77 h 0 M 594.44 277.21 h 0 M 599.49 271.21 h 0 M 604.55 266.15 h 0 M 609.60 276.89 h 0 M 614.65 275.10 h 0 M 619.70 260.12 h 0 M 624.75 271.36 h 0 M 629.80 262.81 h 0 M 634.85 256.24 h 0 M 639.90 265.77 h 0 M 644.95 260.54 h 0 M 650.00 223.86 h 0" /><text  class="poloto_labels poloto_text poloto_title" x="400" y="37.5" >Bench of construction vs query abspiral(x,1.5)</text><text  class="poloto_labels poloto_text poloto_xname" x="400" y="481.25" >Number of Elements</text><text  class="poloto_labels poloto_text poloto_yname" transform="rotate(-90,37.5,250)" x="37.5" y="250" >Time in Seconds</text><text  class="poloto_tick_labels poloto_text" dominant-baseline="middle" text-anchor="start" x="150" y="70" ></text><line  class="poloto_axis_lines" stroke="black" x1="150" x2="144" y1="400" y2="400" /><text  class="poloto_tick_labels poloto_text" dominant-baseline="middle" text-anchor="end" x="135" y="400" >0e0</text><line  class="poloto_axis_lines" stroke="black" x1="150" x2="144" y1="339.4064742970343" y2="339.4064742970343" /><text  class="poloto_tick_labels poloto_text" dominant-baseline="middle" text-anchor="end" x="135" y="339.4064742970343" >0.001</text><line  class="poloto_axis_lines" stroke="black" x1="150" x2="144" y1="278.81294859406864" y2="278.81294859406864" /><text  class="poloto_tick_labels poloto_text" dominant-baseline="middle" text-anchor="end" x="135" y="278.81294859406864" >0.002</text><line  class="poloto_axis_lines" stroke="black" x1="150" x2="144" y1="218.2194228911029" y2="218.2194228911029" /><text  class="poloto_tick_labels poloto_text" dominant-baseline="middle" text-anchor="end" x="135" y="218.2194228911029" >0.003</text><line  class="poloto_axis_lines" stroke="black" x1="150" x2="144" y1="157.6258971881373" y2="157.6258971881373" /><text  class="poloto_tick_labels poloto_text" dominant-baseline="middle" text-anchor="end" x="135" y="157.6258971881373" >0.004</text><text  class="poloto_tick_labels poloto_text" dominant-baseline="middle" text-anchor="start" x="440.00000000000006" y="70" ></text><line  class="poloto_axis_lines" stroke="black" x1="150" x2="150" y1="400" y2="405" /><text  class="poloto_tick_labels poloto_text" dominant-baseline="start" text-anchor="middle" x="150" y="430" >0</text><line  class="poloto_axis_lines" stroke="black" x1="276.26262626262627" x2="276.26262626262627" y1="400" y2="405" /><text  class="poloto_tick_labels poloto_text" dominant-baseline="start" text-anchor="middle" x="276.26262626262627" y="430" >5000</text><line  class="poloto_axis_lines" stroke="black" x1="402.52525252525254" x2="402.52525252525254" y1="400" y2="405" /><text  class="poloto_tick_labels poloto_text" dominant-baseline="start" text-anchor="middle" x="402.52525252525254" y="430" >10000</text><line  class="poloto_axis_lines" stroke="black" x1="528.7878787878788" x2="528.7878787878788" y1="400" y2="405" /><text  class="poloto_tick_labels poloto_text" dominant-baseline="start" text-anchor="middle" x="528.7878787878788" y="430" >15000</text><path  stroke="black" fill="none" class="poloto_axis_lines" style="stroke-dasharray:12.626262626262626;stroke-dashoffset:-0;" d=" M 150 400 L 650 400" /><path  stroke="black" fill="none" class="poloto_axis_lines" style="stroke-dasharray:6.059352570296569;stroke-dashoffset:-0;" d=" M 150 400 L 150 100" /></svg>