<svg class="poloto" height="500" viewBox="0 0 800 500" width="800" xmlns="http://www.w3.org/2000/svg">
<rect class="poloto_background" fill="white" height="500" width="800" x="0" y="0"/>
<style>
.poloto {
font-family: "Arial";
stroke-width:2;
}
.poloto_text{fill: var(--poloto_fg_color,black);  }
.poloto_axis_lines{stroke: var(--poloto_fg_color,black);stoke-width:3;fill:none}
.poloto_background{fill: var(--poloto_bg_color,aliceblue); }
.poloto0stroke{stroke:  var(--poloto_color0,blue); }
.poloto1stroke{stroke:  var(--poloto_color1,red); }
.poloto2stroke{stroke:  var(--poloto_color2,green); }
.poloto3stroke{stroke:  var(--poloto_color3,gold); }
.poloto4stroke{stroke:  var(--poloto_color4,aqua); }
.poloto5stroke{stroke:  var(--poloto_color5,brown); }
.poloto6stroke{stroke:  var(--poloto_color6,lime); }
.poloto7stroke{stroke:  var(--poloto_color7,chocolate); }
.poloto0fill{fill:var(--poloto_color0,blue);}
.poloto1fill{fill:var(--poloto_color1,red);}
.poloto2fill{fill:var(--poloto_color2,green);}
.poloto3fill{fill:var(--poloto_color3,gold);}
.poloto4fill{fill:var(--poloto_color4,aqua);}
.poloto5fill{fill:var(--poloto_color5,brown);}
.poloto6fill{fill:var(--poloto_color6,lime);}
.poloto7fill{fill:var(--poloto_color7,chocolate);}
</style>
<text alignment-baseline="start" class="poloto_text" text-anchor="middle" x="150" y="440">
0e0
</text>
<text alignment-baseline="start" class="poloto_text" text-anchor="middle" x="233.61203" y="440">
1e3
</text>
<text alignment-baseline="start" class="poloto_text" text-anchor="middle" x="317.22406" y="440">
2e3
</text>
<text alignment-baseline="start" class="poloto_text" text-anchor="middle" x="400.83612" y="440">
3e3
</text>
<text alignment-baseline="start" class="poloto_text" text-anchor="middle" x="484.44815" y="440">
4e3
</text>
<text alignment-baseline="start" class="poloto_text" text-anchor="middle" x="568.0602" y="440">
5e3
</text>
<text alignment-baseline="middle" class="poloto_text" text-anchor="end" x="120" y="400">
0e0
</text>
<text alignment-baseline="middle" class="poloto_text" text-anchor="end" x="120" y="357.97318">
1e5
</text>
<text alignment-baseline="middle" class="poloto_text" text-anchor="end" x="120" y="315.94638">
2e5
</text>
<text alignment-baseline="middle" class="poloto_text" text-anchor="end" x="120" y="273.91956">
3e5
</text>
<text alignment-baseline="middle" class="poloto_text" text-anchor="end" x="120" y="231.89276">
4e5
</text>
<text alignment-baseline="middle" class="poloto_text" text-anchor="end" x="120" y="189.86594">
5e5
</text>
<text alignment-baseline="middle" class="poloto_text" text-anchor="end" x="120" y="147.83913">
6e5
</text>
<text alignment-baseline="middle" class="poloto_text" text-anchor="end" x="120" y="105.81232">
7e5
</text>
<text alignment-baseline="middle" class="poloto_text" font-size="large" text-anchor="start" x="675" y="100">
brocc_constr
</text>
<line class="poloto0stroke" x1="680" x2="730" y1="81.25" y2="81.25"/>
<polyline class="poloto0stroke" fill="none" points="150,400 151.67224,399.9689 153.34448,399.8781 155.01672,399.79492 156.68896,399.60284 158.3612,399.52173 160.03345,399.3969 161.70569,399.13846 163.37793,398.9943 165.05017,398.76147 166.72241,398.7598 168.39465,398.4761 170.0669,398.39374 171.73914,397.6608 173.41138,397.60657 175.08362,397.63388 176.75586,397.2048 178.4281,397.07913 180.10034,397.0821 181.77258,396.60086 183.44482,396.6723 185.11707,396.38864 186.7893,395.81497 188.46153,396.04276 190.13377,395.9507 191.80602,395.4594 193.47826,394.82523 195.1505,394.48608 196.82274,394.54282 198.49498,394.2629 200.16722,394.4201 201.83946,393.8956 203.5117,393.44592 205.18394,393.26016 206.85619,392.85922 208.52843,392.86176 210.20067,392.63187 211.87291,392.54193 213.54515,391.6606 215.21739,392.01785 216.88963,391.73166 218.56187,391.75308 220.23412,391.08905 221.90636,391.22354 223.5786,390.86758 225.25084,391.20126 226.92307,390.38385 228.5953,389.9598 230.26755,390.19852 231.93979,390.47632 233.61203,389.10748 235.28427,389.15793 236.95651,388.02655 238.62875,388.03455 240.301,387.6311 241.97324,387.19778 243.64548,387.23773 245.31772,387.3453 246.98996,386.97675 248.6622,386.61865 250.33444,385.94202 252.00668,386.56656 253.67892,384.4631 255.35117,385.4104 257.0234,385.5642 258.69565,385.86093 260.3679,384.1874 262.04013,384.3446 263.71237,383.84195 265.3846,384.04956 267.05685,383.80328 268.7291,383.43933 270.40134,383.75916 272.07358,382.86862 273.74582,382.9825 275.41806,383.21408 277.0903,382.22897 278.76254,382.03354 280.43478,382.3214 282.10703,381.66287 283.77927,380.5832 285.4515,381.1039 287.12375,379.95322 288.796,380.7412 290.46823,379.8994 292.14047,380.66766 293.8127,379.7414 295.48495,379.38037 297.1572,378.25616 298.82944,378.41168 300.50168,378.17548 302.17392,378.37006 303.84613,375.14954 305.51837,377.56778 307.1906,377.00504 308.86285,376.1069 310.5351,376.07077 312.20734,377.1618 313.87958,376.20358 315.55182,376.83063 317.22406,375.97202 318.8963,377.04706 320.56854,375.15375 322.24078,372.7927 323.91302,373.87698 325.58527,373.60968 327.2575,371.5344 328.92975,371.9303 330.602,370.91324 332.27423,371.58777 333.94647,371.26837 335.6187,371.39908 337.29095,370.48416 338.9632,371.27887 340.63544,370.46777 342.30768,369.1973 343.97992,367.84863 345.65216,368.3908 347.3244,369.1788 348.99664,369.69614 350.66888,369.16074 352.34113,368.7102 354.01337,368.33783 355.6856,367.51453 357.35785,368.07852 359.0301,368.2559 360.70233,366.7257 362.37457,367.3918 364.0468,365.8738 365.71906,365.6847 367.3913,365.25812 369.06354,365.6935 370.73578,365.52667 372.40802,363.1135 374.08026,364.88913 375.7525,364.74286 377.42474,364.30832 379.097,362.0397 380.76923,363.60815 382.44147,362.18973 384.1137,362.20404 385.78595,360.81714 387.4582,362.5453 389.13043,360.92557 390.80267,362.87604 392.4749,361.6169 394.14716,359.76437 395.8194,360.5839 397.49164,358.5729 399.16388,356.98135 400.83612,357.8282 402.50836,359.46597 404.1806,360.25903 405.85284,358.67798 407.5251,357.59915 409.19733,355.71594 410.86957,358.91794 412.5418,357.25748 414.21405,358.05807 415.8863,357.4155 417.55853,357.42935 419.23077,358.3321 420.903,356.5178 422.57526,355.57767 424.2475,354.7157 425.91974,355.73233 427.59198,354.84344 429.26422,354.23657 430.93646,356.63 432.6087,355.35953 434.28094,354.27356 435.9532,353.8365 437.62543,353.54187 439.29767,355.25742 440.9699,352.78622 442.64215,351.89655 444.3144,351.70404 445.98663,353.13925 447.65887,351.05432 449.33112,350.94125 451.00336,351.20856 452.6756,351.707 454.34784,353.09134 456.02005,351.56915 457.6923,349.393 459.36453,349.54092 461.03677,349.80737 462.709,349.00845 464.38126,349.36945 466.0535,346.15103 467.72574,346.61584 469.39798,347.6699 471.07022,346.94873 472.74246,348.30365 474.4147,347.4522 476.08694,349.0303 477.7592,346.3826 479.43143,346.01657 481.10367,347.21307 482.7759,345.7186 484.44815,344.77005 486.1204,344.2199 487.79263,344.35315 489.46487,344.28128 491.13712,345.22644 492.80936,339.8945 494.4816,338.94556 496.15384,337.45905 497.82608,338.84888 499.49832,338.6854 501.17056,338.26303 502.8428,336.43192 504.51505,336.2058 506.1873,336.82782 507.85953,334.33057 509.53177,333.4766 511.204,337.3956 512.8762,335.98434 514.54846,334.9488 516.2207,335.3926 517.89294,334.81726 519.5652,334.80298 521.2374,334.4844 522.90967,331.0739 524.5819,332.06744 526.25415,331.48535 527.9264,329.86523 529.59863,334.1196 531.2709,334.4949 532.9431,329.01462 534.61536,330.07874 536.2876,332.04684 537.95984,326.862 539.6321,327.97278 541.3043,328.90112 542.97656,328.18964 544.6488,330.84235 546.32104,330.60156 547.9933,328.8154 549.6655,329.75513 551.33777,324.83252 553.01,327.1961 554.68225,324.90692 556.3545,324.49966 558.02673,326.3913 559.699,327.59662 561.3712,329.21088 563.04346,323.91507 564.7157,323.67426 566.38794,326.61697 568.0602,323.2519 569.7324,326.25513 571.40466,324.4131 573.0769,324.7119 574.74915,326.11014 576.4214,326.2606 578.0936,324.44336 579.76587,320.65295 581.4381,323.8949 583.11035,323.71756 584.7826,323.35275 586.45483,320.97067 588.1271,320.9438 589.7993,320.14066 591.47156,319.13788 593.1438,322.1735 594.81604,321.2758 596.4883,320.05197 598.1605,320.55713 599.83276,320.58783 601.505,321.69858 603.17725,318.82312 604.8495,317.4169 606.5217,318.28812 608.194,316.89786 609.8662,316.99368 611.53845,317.74976 613.2107,314.6158 614.88293,313.25204 616.5552,312.7368 618.2274,316.98233 619.89966,316.60284 621.5719,315.66983 623.24414,314.71457 624.9164,313.74753 626.5886,316.51248 628.26086,317.08276 629.9331,314.40146 631.60535,315.56897 633.2776,318.12253 634.9498,315.36472 636.6221,310.1118 638.2943,312.596 639.96655,312.34384 641.6388,309.61713 643.31104,310.1471 644.9833,309.79785 646.6555,311.46967 648.32776,306.53992 650,311.63275 " stroke="black"/>
<text alignment-baseline="middle" class="poloto_text" font-size="large" text-anchor="start" x="675" y="150">
brocc_query
</text>
<line class="poloto1stroke" x1="680" x2="730" y1="131.25" y2="131.25"/>
<polyline class="poloto1stroke" fill="none" points="150,400 151.67224,399.93655 153.34448,399.7827 155.01672,399.61 156.68896,399.2889 158.3612,399.08044 160.03345,398.82745 161.70569,398.62656 163.37793,398.3828 165.05017,398.05078 166.72241,397.93817 168.39465,397.54102 170.0669,397.30145 171.73914,396.56808 173.41138,396.42856 175.08362,396.2802 176.75586,395.7809 178.4281,395.47833 180.10034,395.29932 181.77258,394.76978 183.44482,394.7021 185.11707,394.13095 186.7893,393.406 188.46153,393.33203 190.13377,393.1034 191.80602,392.57135 193.47826,392.4192 195.1505,392.0813 196.82274,391.8863 198.49498,391.4463 200.16722,391.4551 201.83946,390.8293 203.5117,390.25272 205.18394,389.89886 206.85619,389.40295 208.52843,389.20288 210.20067,388.9209 211.87291,388.68344 213.54515,387.61176 215.21739,387.8841 216.88963,387.45667 218.56187,387.33017 220.23412,386.4972 221.90636,386.52872 223.5786,385.99918 225.25084,386.18494 226.92307,385.26834 228.5953,384.6972 230.26755,384.6665 231.93979,384.91153 233.61203,383.39438 235.28427,383.28763 236.95651,382.3563 238.62875,382.32016 240.301,381.5784 241.97324,381.26654 243.64548,381.02362 245.31772,380.8492 246.98996,380.38397 248.6622,379.98557 250.33444,379.17404 252.00668,379.638 253.67892,377.3896 255.35117,378.13892 257.0234,378.1574 258.69565,378.2566 260.3679,376.52216 262.04013,376.46878 263.71237,375.843 265.3846,375.8497 267.05685,375.45004 268.7291,374.9163 270.40134,375.04657 272.07358,374.019 273.74582,373.77527 275.41806,373.90555 277.0903,372.9465 278.76254,372.5813 280.43478,372.48083 282.10703,371.66006 283.77927,370.2778 285.4515,370.70102 287.12375,369.55957 288.796,370.27023 290.46823,369.0342 292.14047,369.88065 293.8127,368.5522 295.48495,367.8499 297.1572,366.6328 298.82944,366.616 300.50168,366.0104 302.17392,366.30835 303.84613,362.71045 305.51837,364.94418 307.1906,364.21878 308.86285,363.13324 310.5351,363.07483 312.20734,364.0654 313.87958,362.83737 315.55182,363.07944 317.22406,361.99097 318.8963,363.0034 320.56854,360.95416 322.24078,362.5495 323.91302,363.38162 325.58527,362.9046 327.2575,360.60364 328.92975,360.97223 330.602,359.56516 332.27423,360.19135 333.94647,360.00308 335.6187,359.7215 337.29095,358.71875 338.9632,359.52313 340.63544,358.56155 342.30768,357.17847 343.97992,355.56 345.65216,356.1904 347.3244,356.7586 348.99664,357.31378 350.66888,356.5472 352.34113,355.88782 354.01337,355.21918 355.6856,354.33282 357.35785,354.86615 359.0301,354.96533 360.70233,353.2069 362.37457,353.72763 364.0468,352.2008 365.71906,351.83896 367.3913,351.38507 369.06354,351.70657 370.73578,351.3073 372.40802,348.46042 374.08026,350.30286 375.7525,350.0486 377.42474,349.5569 379.097,347.01678 380.76923,348.4415 382.44147,346.9151 384.1137,347.07144 385.78595,345.582 387.4582,347.1038 389.13043,345.0823 390.80267,346.95627 392.4749,345.51434 394.14716,343.69037 395.8194,344.4746 397.49164,342.24298 399.16388,340.6388 400.83612,341.1112 402.50836,342.58926 404.1806,343.03897 405.85284,341.52054 407.5251,340.3816 409.19733,338.2454 410.86957,341.34613 412.5418,339.32715 414.21405,340.33328 415.8863,339.48642 417.55853,339.23132 419.23077,339.91678 420.903,337.8272 422.57526,336.90765 424.2475,335.70654 425.91974,336.67358 427.59198,335.65192 429.26422,334.96307 430.93646,337.01315 432.6087,335.56952 434.28094,334.32303 435.9532,333.88593 437.62543,333.32193 439.29767,334.82608 440.9699,332.34186 442.64215,331.01257 444.3144,330.99072 445.98663,332.10358 447.65887,329.7673 449.33112,329.79 451.00336,329.87405 452.6756,330.0926 454.34784,331.2185 456.02005,329.51178 457.6923,327.24905 459.36453,327.25958 461.03677,327.49493 462.709,326.53293 464.38126,326.51108 466.0535,323.21533 467.72574,323.64526 469.39798,324.37988 471.07022,323.536 472.74246,324.64258 474.4147,323.41034 476.08694,324.8073 477.7592,322.39706 479.43143,321.89655 481.10367,322.75134 482.7759,321.0291 484.44815,319.71408 486.1204,319.16983 487.79263,319.36862 489.46487,319.26608 491.13712,320.12634 492.80936,315.57822 494.4816,314.32245 496.15384,312.93515 497.82608,314.04254 499.49832,314.02322 501.17056,313.36426 502.8428,311.32175 504.51505,311.21332 506.1873,311.55835 507.85953,308.9052 509.53177,307.7377 511.204,312.0005 512.8762,310.45935 514.54846,309.03506 516.2207,309.28302 517.89294,308.59378 519.5652,308.4568 521.2374,307.95078 522.90967,304.46088 524.5819,305.0026 526.25415,304.36084 527.9264,302.50537 529.59863,306.57272 531.2709,306.9476 532.9431,301.2185 534.61536,302.3856 536.2876,304.22635 537.95984,298.51743 539.6321,299.87152 541.3043,300.51538 542.97656,299.55634 544.6488,301.96573 546.32104,301.67868 547.9933,299.61603 549.6655,300.12833 551.33777,295.0725 553.01,297.30707 554.68225,295.3335 556.3545,294.57068 558.02673,296.39508 559.699,297.60208 561.3712,298.836 563.04346,293.14514 564.7157,293.25735 566.38794,295.63776 568.0602,291.87762 569.7324,294.82452 571.40466,292.72235 573.0769,292.9178 574.74915,294.382 576.4214,294.24542 578.0936,292.0121 579.76587,288.32846 581.4381,291.34598 583.11035,291.0892 584.7826,290.40375 586.45483,288.15405 588.1271,287.98468 589.7993,286.7432 591.47156,285.79507 593.1438,288.46967 594.81604,287.5808 596.4883,285.73077 598.1605,286.26578 599.83276,285.96277 601.505,287.37192 603.17725,283.9665 604.8495,282.71283 606.5217,283.4071 608.194,282.1568 609.8662,281.8164 611.53845,282.69223 613.2107,279.19604 614.88293,277.42166 616.5552,276.72275 618.2274,280.77667 619.89966,280.31982 621.5719,279.16577 623.24414,278.3601 624.9164,277.16025 626.5886,279.5314 628.26086,280.09583 629.9331,277.31573 631.60535,277.98398 633.2776,280.44128 634.9498,277.4183 636.6221,271.7367 638.2943,274.1381 639.96655,274.33606 641.6388,271.2975 643.31104,271.35046 644.9833,271.1063 646.6555,272.3053 648.32776,266.85822 650,271.88586 " stroke="black"/>
<text alignment-baseline="middle" class="poloto_text" font-size="large" text-anchor="start" x="675" y="200">
nosort_constr
</text>
<line class="poloto2stroke" x1="680" x2="730" y1="181.25" y2="181.25"/>
<polyline class="poloto2stroke" fill="none" points="150,400 151.67224,399.98404 153.34448,399.96722 155.01672,399.9504 156.68896,399.75204 158.3612,399.74783 160.03345,399.68018 161.70569,399.39816 163.37793,399.32672 165.05017,399.13425 166.72241,399.2019 168.39465,399.01236 170.0669,398.9573 171.73914,398.10123 173.41138,398.12897 175.08362,398.18948 176.75586,397.8701 178.4281,397.7709 180.10034,397.85117 181.77258,397.44562 183.44482,397.53766 185.11707,397.32666 186.7893,396.85178 188.46153,397.13672 190.13377,397.10226 191.80602,396.6698 193.47826,395.7927 195.1505,395.44638 196.82274,395.63257 198.49498,395.39386 200.16722,395.56616 201.83946,395.0854 203.5117,394.68613 205.18394,394.55753 206.85619,394.2297 208.52843,394.34824 210.20067,394.13516 211.87291,394.04565 213.54515,393.29083 215.21739,393.62704 216.88963,393.4703 218.56187,393.64722 220.23412,393.01935 221.90636,393.1055 223.5786,392.83905 225.25084,393.3026 226.92307,392.5726 228.5953,392.18344 230.26755,392.46375 231.93979,392.74744 233.61203,391.44293 235.28427,391.66397 236.95651,389.84003 238.62875,389.87238 240.301,389.58743 241.97324,389.15118 243.64548,389.30124 245.31772,389.4996 246.98996,389.12262 248.6622,388.79144 250.33444,388.26865 252.00668,388.9566 253.67892,386.84225 255.35117,387.81223 257.0234,388.03918 258.69565,388.3388 260.3679,386.84265 262.04013,387.03558 263.71237,386.53293 265.3846,386.94354 267.05685,386.6649 268.7291,386.39215 270.40134,386.7401 272.07358,385.88696 273.74582,386.0349 275.41806,386.3249 277.0903,385.5058 278.76254,385.36584 280.43478,385.5743 282.10703,385.07965 283.77927,383.99197 285.4515,384.6161 287.12375,383.53558 288.796,384.3387 290.46823,383.62634 292.14047,384.46396 293.8127,383.57004 295.48495,383.3145 297.1572,382.27856 298.82944,382.5614 300.50168,382.23444 302.17392,382.53995 303.84613,379.40518 305.51837,381.87634 307.1906,381.3628 308.86285,380.6992 310.5351,380.6185 312.20734,381.66202 313.87958,380.82654 315.55182,381.53467 317.22406,380.72397 318.8963,381.9003 320.56854,380.0797 322.24078,376.35236 323.91302,377.59088 325.58527,377.28198 327.2575,375.34286 328.92975,375.5984 330.602,374.85284 332.27423,375.46936 333.94647,375.28738 335.6187,375.4202 337.29095,374.51157 338.9632,375.4492 340.63544,374.77423 342.30768,373.4546 343.97992,372.21188 345.65216,372.78973 347.3244,373.60254 348.99664,374.2006 350.66888,373.72946 352.34113,373.24194 354.01337,372.8759 355.6856,372.1938 357.35785,372.7469 359.0301,373.0936 360.70233,371.66553 362.37457,372.36612 364.0468,370.87457 365.71906,370.71405 367.3913,370.38916 369.06354,370.74933 370.73578,370.6388 372.40802,368.45718 374.08026,370.17188 375.7525,370.11893 377.42474,369.69235 379.097,367.66037 380.76923,369.0649 382.44147,367.74023 384.1137,367.89487 385.78595,366.72736 387.4582,368.29498 389.13043,366.87067 390.80267,368.8472 392.4749,367.43805 394.14716,365.82968 395.8194,366.6408 397.49164,364.58737 399.16388,363.20343 400.83612,364.0263 402.50836,365.8032 404.1806,366.75342 405.85284,365.12573 407.5251,364.08054 409.19733,362.19437 410.86957,365.46616 412.5418,363.96747 414.21405,364.6525 415.8863,364.21838 417.55853,364.23224 419.23077,365.22745 420.903,363.62958 422.57526,362.55957 424.2475,361.7577 425.91974,362.81677 427.59198,362.22125 429.26422,361.58078 430.93646,364.0158 432.6087,362.88864 434.28094,361.7825 435.9532,361.34543 437.62543,361.21808 439.29767,363.04077 440.9699,360.47293 442.64215,359.81647 444.3144,359.7005 445.98663,360.9983 447.65887,358.89862 449.33112,359.05832 451.00336,359.55927 452.6756,360.00812 454.34784,361.34247 456.02005,360.01697 457.6923,357.9152 459.36453,358.0211 461.03677,358.3548 462.709,357.55417 464.38126,358.1312 466.0535,354.88 467.72574,355.36542 469.39798,356.63168 471.07022,356.11685 472.74246,357.24527 474.4147,356.60562 476.08694,358.20306 477.7592,355.7491 479.43143,355.24817 481.10367,356.49805 482.7759,355.13428 484.44815,354.39713 486.1204,353.9571 487.79263,354.0197 489.46487,354.0151 491.13712,354.96198 492.80936,347.1084 494.4816,346.25528 496.15384,344.74313 497.82608,346.20947 499.49832,346.12582 501.17056,345.6715 502.8428,343.90176 504.51505,343.89758 506.1873,344.3939 507.85953,341.937 509.53177,341.10867 511.204,345.19534 512.8762,343.78284 514.54846,342.95657 516.2207,343.41678 517.89294,342.78552 519.5652,342.84186 521.2374,342.58337 522.90967,339.28595 524.5819,340.44128 526.25415,339.8197 527.9264,338.29288 529.59863,342.59558 531.2709,342.90573 532.9431,337.58597 534.61536,338.7892 536.2876,340.58417 537.95984,335.56534 539.6321,336.63492 541.3043,337.77173 542.97656,336.90515 544.6488,339.75247 546.32104,339.6642 547.9933,337.8478 549.6655,338.9056 551.33777,333.99817 553.01,336.42142 554.68225,334.02295 556.3545,333.77457 558.02673,335.86288 559.699,337.03122 561.3712,338.77283 563.04346,333.42365 564.7157,333.29294 566.38794,336.3197 568.0602,332.97607 569.7324,336.0373 571.40466,334.09396 573.0769,334.58652 574.74915,336.04947 576.4214,336.29996 578.0936,334.53525 579.76587,330.773 581.4381,333.991 583.11035,333.82962 584.7826,333.4955 586.45483,331.33112 588.1271,331.37442 589.7993,330.75327 591.47156,329.59332 593.1438,332.7634 594.81604,331.68207 596.4883,330.657 598.1605,331.11722 599.83276,331.44165 601.505,332.42847 603.17725,329.6799 604.8495,328.44473 606.5217,329.2794 608.194,328.048 609.8662,328.14087 611.53845,328.89862 613.2107,325.676 614.88293,324.6308 616.5552,324.1912 618.2274,328.2577 619.89966,327.8614 621.5719,327.1629 623.24414,326.29758 624.9164,325.37802 626.5886,328.07574 628.26086,328.77463 629.9331,326.18158 631.60535,327.2848 633.2776,329.91147 634.9498,327.3659 636.6221,322.40546 638.2943,324.5871 639.96655,324.4875 641.6388,321.69983 643.31104,322.3214 644.9833,322.14868 646.6555,323.72638 648.32776,319.0534 650,324.21472 " stroke="black"/>
<text alignment-baseline="middle" class="poloto_text" font-size="large" text-anchor="start" x="675" y="250">
nosort_query
</text>
<line class="poloto3stroke" x1="680" x2="730" y1="231.25" y2="231.25"/>
<polyline class="poloto3stroke" fill="none" points="150,400 151.67224,399.8466 153.34448,399.43643 155.01672,398.72995 156.68896,398.28278 158.3612,397.65027 160.03345,396.58237 161.70569,397.25354 163.37793,396.50882 165.05017,395.5296 166.72241,395.04587 168.39465,393.7292 170.0669,392.72348 171.73914,393.78467 173.41138,392.87183 175.08362,392.6348 176.75586,391.35886 178.4281,390.49017 180.10034,389.42184 181.77258,388.47876 183.44482,387.57602 185.11707,386.1362 186.7893,384.93716 188.46153,383.46918 190.13377,383.02704 191.80602,381.07364 193.47826,384.8342 195.1505,384.65936 196.82274,383.0804 198.49498,382.71268 200.16722,382.0987 201.83946,380.0608 203.5117,379.47748 205.18394,378.37427 206.85619,377.0126 208.52843,376.7268 210.20067,375.96066 211.87291,373.4529 213.54515,373.2083 215.21739,371.8706 216.88963,370.8956 218.56187,370.5728 220.23412,368.88672 221.90636,366.84042 223.5786,366.23944 225.25084,364.46255 226.92307,363.30176 228.5953,362.05524 230.26755,360.29517 231.93979,361.10504 233.61203,356.86157 235.28427,357.3739 236.95651,365.64603 238.62875,365.9646 240.301,364.66428 241.97324,363.7712 243.64548,362.51712 245.31772,360.30148 246.98996,360.09848 248.6622,358.9587 250.33444,358.1001 252.00668,358.20853 253.67892,354.33954 255.35117,354.83295 257.0234,354.40723 258.69565,353.02118 260.3679,350.16586 262.04013,349.3106 263.71237,349.2459 265.3846,348.47766 267.05685,346.07666 268.7291,345.82156 270.40134,344.42584 272.07358,342.68762 273.74582,341.7525 275.41806,340.85776 277.0903,339.43683 278.76254,339.365 280.43478,336.22516 282.10703,334.66763 283.77927,333.30722 285.4515,330.70157 287.12375,329.9123 288.796,330.81464 290.46823,328.59308 292.14047,328.05768 293.8127,325.80838 295.48495,323.42252 297.1572,321.7448 298.82944,321.7133 300.50168,317.74722 302.17392,318.66635 303.84613,312.02066 305.51837,314.19177 307.1906,312.60315 308.86285,311.91684 310.5351,310.7691 312.20734,310.6531 313.87958,306.76563 315.55182,305.89484 317.22406,303.64136 318.8963,305.16144 320.56854,300.52505 322.24078,324.67953 323.91302,324.52615 325.58527,322.34158 327.2575,319.58002 328.92975,319.57834 330.602,318.21835 332.27423,317.48624 333.94647,315.3618 335.6187,314.4565 337.29095,311.57095 338.9632,314.22537 340.63544,312.5733 342.30768,310.61108 343.97992,306.41638 345.65216,307.92303 347.3244,307.786 348.99664,309.3427 350.66888,305.42035 352.34113,304.12088 354.01337,302.97607 355.6856,301.96783 357.35785,300.6856 359.0301,300.32373 360.70233,297.30707 362.37457,297.774 364.0468,295.44064 365.71906,293.57886 367.3913,292.81396 369.06354,290.2848 370.73578,290.72186 372.40802,285.18484 374.08026,287.71527 375.7525,284.93185 377.42474,283.39996 379.097,279.5335 380.76923,279.44568 382.44147,279.21915 384.1137,280.3837 385.78595,278.59085 387.4582,276.985 389.13043,274.0469 390.80267,274.0078 392.4749,270.89783 394.14716,271.0613 395.8194,270.55573 397.49164,267.79752 399.16388,263.5213 400.83612,262.9081 402.50836,267.05447 404.1806,266.5598 405.85284,263.06992 407.5251,260.11377 409.19733,256.53812 410.86957,259.24506 412.5418,255.37817 414.21405,255.75809 415.8863,254.55865 417.55853,254.87764 419.23077,250.72412 420.903,248.18275 422.57526,248.84804 424.2475,244.25284 425.91974,244.04607 427.59198,244.27258 429.26422,242.08635 430.93646,240.69275 432.6087,235.77434 434.28094,236.61656 435.9532,234.94936 437.62543,234.58919 439.29767,232.6425 440.9699,229.19589 442.64215,226.67554 444.3144,228.70291 445.98663,229.38249 447.65887,224.01903 449.33112,221.04562 451.00336,222.46739 452.6756,221.21626 454.34784,220.83928 456.02005,220.19458 457.6923,216.37518 459.36453,213.06264 461.03677,211.94177 462.709,207.99168 464.38126,210.53178 466.0535,207.64496 467.72574,208.06564 469.39798,205.75711 471.07022,202.70723 472.74246,201.29303 474.4147,198.9017 476.08694,196.78564 477.7592,197.82666 479.43143,195.00665 481.10367,194.97177 482.7759,191.0284 484.44815,184.8097 486.1204,185.38924 487.79263,186.28903 489.46487,189.03969 491.13712,186.5538 492.80936,232.7295 494.4816,228.22171 496.15384,226.48347 497.82608,225.59966 499.49832,226.28554 501.17056,228.08849 502.8428,223.84251 504.51505,223.68785 506.1873,222.7225 507.85953,217.66751 509.53177,215.99443 511.204,220.57787 512.8762,218.23361 514.54846,215.20222 516.2207,214.42094 517.89294,214.38438 519.5652,213.38876 521.2374,211.37231 522.90967,207.5441 524.5819,205.91093 526.25415,203.57382 527.9264,203.12918 529.59863,207.58907 531.2709,204.48119 532.9431,197.72578 534.61536,199.87546 536.2876,200.82863 537.95984,194.1367 539.6321,195.53787 541.3043,195.59882 542.97656,192.31316 544.6488,194.87343 546.32104,191.24106 547.9933,188.04785 549.6655,188.62614 551.33777,185.88768 553.01,187.16025 554.68225,181.89218 556.3545,179.47649 558.02673,179.34537 559.699,182.69574 561.3712,185.77379 563.04346,177.74498 564.7157,178.91081 566.38794,177.56636 568.0602,171.60823 569.7324,174.87791 571.40466,169.12024 573.0769,168.70586 574.74915,170.86435 576.4214,167.12523 578.0936,164.30775 579.76587,163.69499 581.4381,162.69308 583.11035,162.6107 584.7826,160.36311 586.45483,158.93 588.1271,157.74358 589.7993,155.51868 591.47156,154.29066 593.1438,155.01184 594.81604,153.05591 596.4883,148.95998 598.1605,148.39177 599.83276,144.81194 601.505,149.63913 603.17725,143.44397 604.8495,144.7968 606.5217,144.30424 608.194,140.68658 609.8662,135.6648 611.53845,138.57599 613.2107,137.78925 614.88293,134.71246 616.5552,133.47394 618.2274,134.28128 619.89966,129.31537 621.5719,128.23697 623.24414,127.002655 624.9164,123.87039 626.5886,124.644104 628.26086,129.10736 629.9331,123.31018 631.60535,120.71417 633.2776,127.68811 634.9498,121.04114 636.6221,112.03815 638.2943,113.722595 639.96655,113.13129 641.6388,109.79434 643.31104,107.24878 644.9833,108.934906 646.6555,107.78253 648.32776,100 650,104.05936 " stroke="black"/>
<text alignment-baseline="start" class="poloto_text" font-size="x-large" text-anchor="middle" x="400" y="37.5">
Complexity of construction vs query with abspiral(x,4.0)
</text>
<text alignment-baseline="start" class="poloto_text" font-size="large" text-anchor="middle" x="400" y="481.25">
Number of Elements
</text>
<text alignment-baseline="start" class="poloto_text" font-size="large" text-anchor="middle" transform="rotate(-90,37.5,250)" x="37.5" y="250">
Number of Comparisons
</text>
<path class="poloto_axis_lines" d="M150,100 L150,400 L650,400" stroke="black"/>
</svg>