<svg class="poloto" width="800" height="500" viewBox="0 0 800 500" xmlns="http://www.w3.org/2000/svg"><circle  r="1e5" class="poloto_background" /><text  class="poloto_text poloto_legend_text" x="675" y="100" >contr</text><line  class="poloto_scatter poloto_legend_icon poloto0stroke poloto0legend" stroke="black" x1="685" x2="685" y1="81.25" y2="81.25" /><path  class="poloto_scatter poloto0stroke" d=" M 150.00 399.85 h 0 M 155.05 399.40 h 0 M 160.10 399.57 h 0 M 165.15 399.24 h 0 M 170.20 399.11 h 0 M 175.25 398.86 h 0 M 180.30 398.41 h 0 M 185.35 398.41 h 0 M 190.40 398.25 h 0 M 195.45 398.00 h 0 M 200.51 397.74 h 0 M 205.56 396.09 h 0 M 210.61 395.98 h 0 M 215.66 396.49 h 0 M 220.71 396.13 h 0 M 225.76 395.89 h 0 M 230.81 395.66 h 0 M 235.86 395.38 h 0 M 240.91 395.11 h 0 M 245.96 394.88 h 0 M 251.01 394.44 h 0 M 256.06 394.30 h 0 M 261.11 393.70 h 0 M 266.16 393.28 h 0 M 271.21 393.32 h 0 M 276.26 392.98 h 0 M 281.31 393.08 h 0 M 286.36 392.63 h 0 M 291.41 392.25 h 0 M 296.46 391.81 h 0 M 301.52 391.56 h 0 M 306.57 390.91 h 0 M 311.62 390.96 h 0 M 316.67 390.39 h 0 M 321.72 390.09 h 0 M 326.77 389.97 h 0 M 331.82 389.92 h 0 M 336.87 389.44 h 0 M 341.92 389.16 h 0 M 346.97 388.93 h 0 M 352.02 388.82 h 0 M 357.07 386.74 h 0 M 362.12 386.23 h 0 M 367.17 386.07 h 0 M 372.22 382.10 h 0 M 377.27 384.98 h 0 M 382.32 384.56 h 0 M 387.37 384.24 h 0 M 392.42 380.82 h 0 M 397.47 379.96 h 0 M 402.53 379.61 h 0 M 407.58 383.04 h 0 M 412.63 382.89 h 0 M 417.68 382.43 h 0 M 422.73 382.45 h 0 M 427.78 381.78 h 0 M 432.83 381.56 h 0 M 437.88 380.60 h 0 M 442.93 380.63 h 0 M 447.98 381.10 h 0 M 453.03 380.60 h 0 M 458.08 375.10 h 0 M 463.13 374.10 h 0 M 468.18 374.77 h 0 M 473.23 376.45 h 0 M 478.28 378.59 h 0 M 483.33 377.80 h 0 M 488.38 378.28 h 0 M 493.43 372.83 h 0 M 498.48 376.91 h 0 M 503.54 371.68 h 0 M 508.59 376.35 h 0 M 513.64 376.37 h 0 M 518.69 375.53 h 0 M 523.74 369.75 h 0 M 528.79 370.25 h 0 M 533.84 374.36 h 0 M 538.89 375.37 h 0 M 543.94 373.91 h 0 M 548.99 374.01 h 0 M 554.04 368.37 h 0 M 559.09 373.13 h 0 M 564.14 371.72 h 0 M 569.19 372.93 h 0 M 574.24 371.83 h 0 M 579.29 366.20 h 0 M 584.34 371.70 h 0 M 589.39 371.52 h 0 M 594.44 363.10 h 0 M 599.49 370.32 h 0 M 604.55 364.31 h 0 M 609.60 364.39 h 0 M 614.65 364.55 h 0 M 619.70 362.54 h 0 M 624.75 362.06 h 0 M 629.80 367.22 h 0 M 634.85 367.66 h 0 M 639.90 367.26 h 0 M 644.95 368.22 h 0 M 650.00 367.38 h 0" /><text  class="poloto_text poloto_legend_text" x="675" y="150" >ns_contr</text><line  class="poloto_scatter poloto_legend_icon poloto1stroke poloto1legend" stroke="black" x1="685" x2="685" y1="131.25" y2="131.25" /><path  class="poloto_scatter poloto1stroke" d=" M 150.00 399.99 h 0 M 155.05 399.92 h 0 M 160.10 399.81 h 0 M 165.15 399.52 h 0 M 170.20 399.41 h 0 M 175.25 399.22 h 0 M 180.30 399.00 h 0 M 185.35 399.02 h 0 M 190.40 398.96 h 0 M 195.45 398.81 h 0 M 200.51 398.65 h 0 M 205.56 397.48 h 0 M 210.61 397.29 h 0 M 215.66 397.42 h 0 M 220.71 397.17 h 0 M 225.76 396.85 h 0 M 230.81 396.94 h 0 M 235.86 396.39 h 0 M 240.91 396.45 h 0 M 245.96 396.31 h 0 M 251.01 396.03 h 0 M 256.06 395.87 h 0 M 261.11 395.50 h 0 M 266.16 395.19 h 0 M 271.21 395.32 h 0 M 276.26 395.04 h 0 M 281.31 394.90 h 0 M 286.36 394.96 h 0 M 291.41 394.43 h 0 M 296.46 394.35 h 0 M 301.52 393.88 h 0 M 306.57 393.63 h 0 M 311.62 392.66 h 0 M 316.67 393.71 h 0 M 321.72 393.05 h 0 M 326.77 393.03 h 0 M 331.82 393.06 h 0 M 336.87 392.58 h 0 M 341.92 392.51 h 0 M 346.97 390.89 h 0 M 352.02 392.39 h 0 M 357.07 388.95 h 0 M 362.12 388.96 h 0 M 367.17 388.52 h 0 M 372.22 388.29 h 0 M 377.27 387.68 h 0 M 382.32 387.31 h 0 M 387.37 387.07 h 0 M 392.42 387.41 h 0 M 397.47 386.81 h 0 M 402.53 384.11 h 0 M 407.58 386.24 h 0 M 412.63 386.35 h 0 M 417.68 385.95 h 0 M 422.73 385.95 h 0 M 427.78 382.27 h 0 M 432.83 385.06 h 0 M 437.88 384.58 h 0 M 442.93 384.44 h 0 M 447.98 385.00 h 0 M 453.03 384.49 h 0 M 458.08 383.72 h 0 M 463.13 379.71 h 0 M 468.18 380.72 h 0 M 473.23 383.38 h 0 M 478.28 383.05 h 0 M 483.33 382.09 h 0 M 488.38 382.75 h 0 M 493.43 382.46 h 0 M 498.48 381.82 h 0 M 503.54 378.27 h 0 M 508.59 381.38 h 0 M 513.64 377.99 h 0 M 518.69 380.60 h 0 M 523.74 376.51 h 0 M 528.79 377.67 h 0 M 533.84 380.04 h 0 M 538.89 380.75 h 0 M 543.94 379.47 h 0 M 548.99 379.95 h 0 M 554.04 379.78 h 0 M 559.09 375.49 h 0 M 564.14 378.80 h 0 M 569.19 378.78 h 0 M 574.24 378.00 h 0 M 579.29 374.81 h 0 M 584.34 374.17 h 0 M 589.39 378.04 h 0 M 594.44 373.60 h 0 M 599.49 377.22 h 0 M 604.55 377.20 h 0 M 609.60 373.39 h 0 M 614.65 375.62 h 0 M 619.70 375.70 h 0 M 624.75 371.82 h 0 M 629.80 370.00 h 0 M 634.85 370.83 h 0 M 639.90 374.92 h 0 M 644.95 375.56 h 0 M 650.00 374.80 h 0" /><text  class="poloto_text poloto_legend_text" x="675" y="200" >ns_par_contr</text><line  class="poloto_scatter poloto_legend_icon poloto2stroke poloto2legend" stroke="black" x1="685" x2="685" y1="181.25" y2="181.25" /><path  class="poloto_scatter poloto2stroke" d=" M 150.00 399.99 h 0 M 155.05 399.92 h 0 M 160.10 399.80 h 0 M 165.15 399.52 h 0 M 170.20 399.39 h 0 M 175.25 399.13 h 0 M 180.30 396.06 h 0 M 185.35 399.05 h 0 M 190.40 398.85 h 0 M 195.45 398.80 h 0 M 200.51 398.63 h 0 M 205.56 397.42 h 0 M 210.61 397.58 h 0 M 215.66 397.37 h 0 M 220.71 397.06 h 0 M 225.76 396.89 h 0 M 230.81 396.85 h 0 M 235.86 396.69 h 0 M 240.91 396.39 h 0 M 245.96 396.35 h 0 M 251.01 395.90 h 0 M 256.06 395.90 h 0 M 261.11 395.42 h 0 M 266.16 395.16 h 0 M 271.21 395.04 h 0 M 276.26 395.01 h 0 M 281.31 377.55 h 0 M 286.36 394.69 h 0 M 291.41 394.45 h 0 M 296.46 394.47 h 0 M 301.52 393.62 h 0 M 306.57 376.01 h 0 M 311.62 393.01 h 0 M 316.67 392.64 h 0 M 321.72 394.69 h 0 M 326.77 394.04 h 0 M 331.82 394.35 h 0 M 336.87 394.05 h 0 M 341.92 393.91 h 0 M 346.97 392.34 h 0 M 352.02 393.37 h 0 M 357.07 389.82 h 0 M 362.12 390.69 h 0 M 367.17 390.84 h 0 M 372.22 390.39 h 0 M 377.27 329.36 h 0 M 382.32 389.94 h 0 M 387.37 388.79 h 0 M 392.42 391.07 h 0 M 397.47 389.73 h 0 M 402.53 340.71 h 0 M 407.58 390.60 h 0 M 412.63 390.13 h 0 M 417.68 389.83 h 0 M 422.73 389.84 h 0 M 427.78 388.04 h 0 M 432.83 389.23 h 0 M 437.88 186.31 h 0 M 442.93 358.30 h 0 M 447.98 388.31 h 0 M 453.03 333.73 h 0 M 458.08 387.50 h 0 M 463.13 384.81 h 0 M 468.18 384.89 h 0 M 473.23 387.20 h 0 M 478.28 387.08 h 0 M 483.33 386.26 h 0 M 488.38 386.73 h 0 M 493.43 386.26 h 0 M 498.48 386.00 h 0 M 503.54 384.57 h 0 M 508.59 385.58 h 0 M 513.64 385.13 h 0 M 518.69 183.99 h 0 M 523.74 384.20 h 0 M 528.79 386.44 h 0 M 533.84 384.90 h 0 M 538.89 385.59 h 0 M 543.94 382.99 h 0 M 548.99 385.64 h 0 M 554.04 385.19 h 0 M 559.09 382.39 h 0 M 564.14 180.04 h 0 M 569.19 385.32 h 0 M 574.24 384.61 h 0 M 579.29 381.43 h 0 M 584.34 382.47 h 0 M 589.39 340.95 h 0 M 594.44 381.19 h 0 M 599.49 383.79 h 0 M 604.55 383.86 h 0 M 609.60 381.20 h 0 M 614.65 382.13 h 0 M 619.70 381.65 h 0 M 624.75 380.14 h 0 M 629.80 379.19 h 0 M 634.85 352.55 h 0 M 639.90 383.13 h 0 M 644.95 370.36 h 0 M 650.00 383.48 h 0" /><text  class="poloto_text poloto_legend_text" x="675" y="250" >ns_par_query</text><line  class="poloto_scatter poloto_legend_icon poloto3stroke poloto3legend" stroke="black" x1="685" x2="685" y1="231.25" y2="231.25" /><path  class="poloto_scatter poloto3stroke" d=" M 150.00 399.98 h 0 M 155.05 399.42 h 0 M 160.10 397.75 h 0 M 165.15 397.38 h 0 M 170.20 396.23 h 0 M 175.25 394.00 h 0 M 180.30 392.70 h 0 M 185.35 391.24 h 0 M 190.40 389.33 h 0 M 195.45 386.84 h 0 M 200.51 384.46 h 0 M 205.56 388.72 h 0 M 210.61 388.02 h 0 M 215.66 387.17 h 0 M 220.71 385.31 h 0 M 225.76 382.92 h 0 M 230.81 382.19 h 0 M 235.86 378.79 h 0 M 240.91 379.31 h 0 M 245.96 377.56 h 0 M 251.01 375.40 h 0 M 256.06 373.17 h 0 M 261.11 371.51 h 0 M 266.16 368.76 h 0 M 271.21 366.65 h 0 M 276.26 365.85 h 0 M 281.31 342.83 h 0 M 286.36 326.49 h 0 M 291.41 329.15 h 0 M 296.46 348.21 h 0 M 301.52 325.41 h 0 M 306.57 340.17 h 0 M 311.62 305.84 h 0 M 316.67 359.54 h 0 M 321.72 356.85 h 0 M 326.77 355.74 h 0 M 331.82 353.74 h 0 M 336.87 351.67 h 0 M 341.92 350.43 h 0 M 346.97 355.15 h 0 M 352.02 345.88 h 0 M 357.07 365.87 h 0 M 362.12 364.40 h 0 M 367.17 362.55 h 0 M 372.22 361.40 h 0 M 377.27 360.20 h 0 M 382.32 359.42 h 0 M 387.37 356.97 h 0 M 392.42 355.26 h 0 M 397.47 356.41 h 0 M 402.53 362.03 h 0 M 407.58 360.25 h 0 M 412.63 357.35 h 0 M 417.68 356.43 h 0 M 422.73 354.23 h 0 M 427.78 354.45 h 0 M 432.83 355.19 h 0 M 437.88 346.97 h 0 M 442.93 350.78 h 0 M 447.98 349.54 h 0 M 453.03 349.10 h 0 M 458.08 346.23 h 0 M 463.13 347.02 h 0 M 468.18 340.85 h 0 M 473.23 336.10 h 0 M 478.28 343.10 h 0 M 483.33 334.40 h 0 M 488.38 340.05 h 0 M 493.43 331.76 h 0 M 498.48 334.67 h 0 M 503.54 338.42 h 0 M 508.59 335.95 h 0 M 513.64 330.61 h 0 M 518.69 334.75 h 0 M 523.74 332.26 h 0 M 528.79 330.32 h 0 M 533.84 320.40 h 0 M 538.89 328.12 h 0 M 543.94 325.24 h 0 M 548.99 327.94 h 0 M 554.04 323.55 h 0 M 559.09 321.01 h 0 M 564.14 324.55 h 0 M 569.19 316.14 h 0 M 574.24 317.34 h 0 M 579.29 288.26 h 0 M 584.34 307.31 h 0 M 589.39 314.99 h 0 M 594.44 133.31 h 0 M 599.49 180.24 h 0 M 604.55 260.21 h 0 M 609.60 302.07 h 0 M 614.65 311.45 h 0 M 619.70 100.00 h 0 M 624.75 190.19 h 0 M 629.80 299.59 h 0 M 634.85 298.16 h 0 M 639.90 296.52 h 0 M 644.95 301.07 h 0 M 650.00 296.77 h 0" /><text  class="poloto_text poloto_legend_text" x="675" y="300" >ns_query</text><line  class="poloto_scatter poloto_legend_icon poloto4stroke poloto4legend" stroke="black" x1="685" x2="685" y1="281.25" y2="281.25" /><path  class="poloto_scatter poloto4stroke" d=" M 150.00 399.98 h 0 M 155.05 399.22 h 0 M 160.10 397.10 h 0 M 165.15 395.49 h 0 M 170.20 395.92 h 0 M 175.25 393.78 h 0 M 180.30 386.93 h 0 M 185.35 390.80 h 0 M 190.40 388.82 h 0 M 195.45 386.06 h 0 M 200.51 383.87 h 0 M 205.56 387.26 h 0 M 210.61 387.48 h 0 M 215.66 386.83 h 0 M 220.71 384.85 h 0 M 225.76 382.79 h 0 M 230.81 381.50 h 0 M 235.86 378.56 h 0 M 240.91 378.69 h 0 M 245.96 376.78 h 0 M 251.01 374.92 h 0 M 256.06 373.09 h 0 M 261.11 370.56 h 0 M 266.16 369.89 h 0 M 271.21 366.90 h 0 M 276.26 365.67 h 0 M 281.31 361.74 h 0 M 286.36 361.68 h 0 M 291.41 359.16 h 0 M 296.46 356.99 h 0 M 301.52 353.96 h 0 M 306.57 351.65 h 0 M 311.62 349.27 h 0 M 316.67 345.92 h 0 M 321.72 344.02 h 0 M 326.77 341.46 h 0 M 331.82 339.95 h 0 M 336.87 334.33 h 0 M 341.92 335.72 h 0 M 346.97 317.61 h 0 M 352.02 326.40 h 0 M 357.07 357.32 h 0 M 362.12 354.63 h 0 M 367.17 351.21 h 0 M 372.22 351.06 h 0 M 377.27 350.03 h 0 M 382.32 348.88 h 0 M 387.37 346.32 h 0 M 392.42 344.60 h 0 M 397.47 344.06 h 0 M 402.53 329.96 h 0 M 407.58 338.72 h 0 M 412.63 338.76 h 0 M 417.68 336.81 h 0 M 422.73 333.21 h 0 M 427.78 318.48 h 0 M 432.83 331.22 h 0 M 437.88 329.48 h 0 M 442.93 327.92 h 0 M 447.98 325.14 h 0 M 453.03 325.32 h 0 M 458.08 322.33 h 0 M 463.13 305.96 h 0 M 468.18 301.84 h 0 M 473.23 318.43 h 0 M 478.28 317.37 h 0 M 483.33 313.06 h 0 M 488.38 313.47 h 0 M 493.43 309.98 h 0 M 498.48 307.34 h 0 M 503.54 287.16 h 0 M 508.59 304.20 h 0 M 513.64 279.14 h 0 M 518.69 299.73 h 0 M 523.74 278.47 h 0 M 528.79 274.28 h 0 M 533.84 294.19 h 0 M 538.89 292.28 h 0 M 543.94 291.27 h 0 M 548.99 288.64 h 0 M 554.04 286.60 h 0 M 559.09 258.78 h 0 M 564.14 281.83 h 0 M 569.19 281.17 h 0 M 574.24 278.59 h 0 M 579.29 250.82 h 0 M 584.34 246.40 h 0 M 589.39 272.30 h 0 M 594.44 269.98 h 0 M 599.49 269.46 h 0 M 604.55 265.67 h 0 M 609.60 233.27 h 0 M 614.65 260.77 h 0 M 619.70 258.71 h 0 M 624.75 225.63 h 0 M 629.80 223.35 h 0 M 634.85 221.53 h 0 M 639.90 249.89 h 0 M 644.95 248.05 h 0 M 650.00 247.04 h 0" /><text  class="poloto_text poloto_legend_text" x="675" y="350" >par_contr</text><line  class="poloto_scatter poloto_legend_icon poloto5stroke poloto5legend" stroke="black" x1="685" x2="685" y1="331.25" y2="331.25" /><path  class="poloto_scatter poloto5stroke" d=" M 150.00 399.97 h 0 M 155.05 399.85 h 0 M 160.10 399.63 h 0 M 165.15 399.33 h 0 M 170.20 399.15 h 0 M 175.25 398.91 h 0 M 180.30 398.48 h 0 M 185.35 398.48 h 0 M 190.40 398.30 h 0 M 195.45 397.96 h 0 M 200.51 397.77 h 0 M 205.56 397.02 h 0 M 210.61 396.34 h 0 M 215.66 396.44 h 0 M 220.71 396.29 h 0 M 225.76 395.97 h 0 M 230.81 395.81 h 0 M 235.86 394.97 h 0 M 240.91 395.25 h 0 M 245.96 394.94 h 0 M 251.01 394.66 h 0 M 256.06 394.40 h 0 M 261.11 393.77 h 0 M 266.16 393.34 h 0 M 271.21 393.35 h 0 M 276.26 393.03 h 0 M 281.31 368.46 h 0 M 286.36 392.80 h 0 M 291.41 392.89 h 0 M 296.46 392.86 h 0 M 301.52 391.93 h 0 M 306.57 382.00 h 0 M 311.62 315.81 h 0 M 316.67 379.20 h 0 M 321.72 392.82 h 0 M 326.77 392.75 h 0 M 331.82 392.49 h 0 M 336.87 392.22 h 0 M 341.92 391.99 h 0 M 346.97 392.20 h 0 M 352.02 391.15 h 0 M 357.07 389.53 h 0 M 362.12 389.05 h 0 M 367.17 388.95 h 0 M 372.22 387.21 h 0 M 377.27 388.52 h 0 M 382.32 388.17 h 0 M 387.37 388.08 h 0 M 392.42 387.89 h 0 M 397.47 387.74 h 0 M 402.53 385.95 h 0 M 407.58 322.00 h 0 M 412.63 388.18 h 0 M 417.68 387.78 h 0 M 422.73 387.84 h 0 M 427.78 387.08 h 0 M 432.83 386.42 h 0 M 437.88 386.16 h 0 M 442.93 387.52 h 0 M 447.98 387.07 h 0 M 453.03 386.07 h 0 M 458.08 381.68 h 0 M 463.13 357.56 h 0 M 468.18 382.29 h 0 M 473.23 384.28 h 0 M 478.28 146.76 h 0 M 483.33 375.87 h 0 M 488.38 383.14 h 0 M 493.43 368.00 h 0 M 498.48 382.16 h 0 M 503.54 365.48 h 0 M 508.59 381.55 h 0 M 513.64 382.68 h 0 M 518.69 381.27 h 0 M 523.74 380.62 h 0 M 528.79 382.12 h 0 M 533.84 366.14 h 0 M 538.89 382.25 h 0 M 543.94 382.32 h 0 M 548.99 380.32 h 0 M 554.04 378.55 h 0 M 559.09 380.41 h 0 M 564.14 368.29 h 0 M 569.19 380.94 h 0 M 574.24 380.82 h 0 M 579.29 378.65 h 0 M 584.34 341.39 h 0 M 589.39 380.82 h 0 M 594.44 376.19 h 0 M 599.49 379.03 h 0 M 604.55 375.88 h 0 M 609.60 377.55 h 0 M 614.65 377.01 h 0 M 619.70 377.28 h 0 M 624.75 375.52 h 0 M 629.80 376.90 h 0 M 634.85 376.68 h 0 M 639.90 378.33 h 0 M 644.95 377.70 h 0 M 650.00 379.14 h 0" /><text  class="poloto_text poloto_legend_text" x="675" y="400" >par_query</text><line  class="poloto_scatter poloto_legend_icon poloto6stroke poloto6legend" stroke="black" x1="685" x2="685" y1="381.25" y2="381.25" /><path  class="poloto_scatter poloto6stroke" d=" M 150.00 399.95 h 0 M 155.05 399.59 h 0 M 160.10 399.01 h 0 M 165.15 398.33 h 0 M 170.20 398.15 h 0 M 175.25 397.29 h 0 M 180.30 396.49 h 0 M 185.35 396.11 h 0 M 190.40 395.68 h 0 M 195.45 394.94 h 0 M 200.51 394.26 h 0 M 205.56 394.70 h 0 M 210.61 393.60 h 0 M 215.66 393.95 h 0 M 220.71 393.39 h 0 M 225.76 393.07 h 0 M 230.81 392.75 h 0 M 235.86 391.53 h 0 M 240.91 391.43 h 0 M 245.96 389.73 h 0 M 251.01 390.14 h 0 M 256.06 389.95 h 0 M 261.11 389.30 h 0 M 266.16 388.78 h 0 M 271.21 388.33 h 0 M 276.26 387.52 h 0 M 281.31 381.51 h 0 M 286.36 378.46 h 0 M 291.41 387.50 h 0 M 296.46 387.15 h 0 M 301.52 387.12 h 0 M 306.57 374.96 h 0 M 311.62 353.97 h 0 M 316.67 339.35 h 0 M 321.72 386.98 h 0 M 326.77 387.08 h 0 M 331.82 385.84 h 0 M 336.87 385.57 h 0 M 341.92 385.28 h 0 M 346.97 384.41 h 0 M 352.02 383.76 h 0 M 357.07 383.28 h 0 M 362.12 384.63 h 0 M 367.17 384.55 h 0 M 372.22 382.94 h 0 M 377.27 383.21 h 0 M 382.32 383.63 h 0 M 387.37 381.95 h 0 M 392.42 381.37 h 0 M 397.47 384.42 h 0 M 402.53 382.55 h 0 M 407.58 384.10 h 0 M 412.63 382.54 h 0 M 417.68 383.12 h 0 M 422.73 383.38 h 0 M 427.78 381.63 h 0 M 432.83 382.42 h 0 M 437.88 381.18 h 0 M 442.93 378.19 h 0 M 447.98 382.04 h 0 M 453.03 380.27 h 0 M 458.08 378.22 h 0 M 463.13 377.62 h 0 M 468.18 377.50 h 0 M 473.23 377.47 h 0 M 478.28 377.25 h 0 M 483.33 376.11 h 0 M 488.38 377.11 h 0 M 493.43 375.91 h 0 M 498.48 357.10 h 0 M 503.54 375.64 h 0 M 508.59 374.82 h 0 M 513.64 194.48 h 0 M 518.69 375.78 h 0 M 523.74 373.85 h 0 M 528.79 374.48 h 0 M 533.84 369.33 h 0 M 538.89 373.74 h 0 M 543.94 376.53 h 0 M 548.99 375.70 h 0 M 554.04 374.40 h 0 M 559.09 370.93 h 0 M 564.14 374.02 h 0 M 569.19 362.05 h 0 M 574.24 374.44 h 0 M 579.29 370.02 h 0 M 584.34 370.90 h 0 M 589.39 370.38 h 0 M 594.44 372.14 h 0 M 599.49 368.86 h 0 M 604.55 371.49 h 0 M 609.60 370.33 h 0 M 614.65 369.24 h 0 M 619.70 367.02 h 0 M 624.75 369.88 h 0 M 629.80 366.96 h 0 M 634.85 347.13 h 0 M 639.90 370.20 h 0 M 644.95 369.13 h 0 M 650.00 369.48 h 0" /><text  class="poloto_text poloto_legend_text" x="675" y="450" >query</text><line  class="poloto_scatter poloto_legend_icon poloto7stroke poloto7legend" stroke="black" x1="685" x2="685" y1="431.25" y2="431.25" /><path  class="poloto_scatter poloto7stroke" d=" M 150.00 399.92 h 0 M 155.05 399.38 h 0 M 160.10 398.94 h 0 M 165.15 398.27 h 0 M 170.20 397.91 h 0 M 175.25 397.46 h 0 M 180.30 396.39 h 0 M 185.35 395.97 h 0 M 190.40 395.47 h 0 M 195.45 394.74 h 0 M 200.51 394.17 h 0 M 205.56 394.47 h 0 M 210.61 393.33 h 0 M 215.66 393.69 h 0 M 220.71 392.81 h 0 M 225.76 392.31 h 0 M 230.81 392.23 h 0 M 235.86 390.91 h 0 M 240.91 390.97 h 0 M 245.96 389.56 h 0 M 251.01 389.96 h 0 M 256.06 389.76 h 0 M 261.11 388.89 h 0 M 266.16 388.51 h 0 M 271.21 388.12 h 0 M 276.26 386.94 h 0 M 281.31 386.56 h 0 M 286.36 385.86 h 0 M 291.41 385.57 h 0 M 296.46 384.58 h 0 M 301.52 383.95 h 0 M 306.57 383.90 h 0 M 311.62 382.84 h 0 M 316.67 380.77 h 0 M 321.72 381.62 h 0 M 326.77 381.57 h 0 M 331.82 380.14 h 0 M 336.87 379.29 h 0 M 341.92 379.30 h 0 M 346.97 378.28 h 0 M 352.02 378.40 h 0 M 357.07 380.52 h 0 M 362.12 380.98 h 0 M 367.17 379.49 h 0 M 372.22 374.17 h 0 M 377.27 378.76 h 0 M 382.32 378.69 h 0 M 387.37 378.28 h 0 M 392.42 372.36 h 0 M 397.47 370.39 h 0 M 402.53 369.54 h 0 M 407.58 374.68 h 0 M 412.63 374.64 h 0 M 417.68 374.92 h 0 M 422.73 374.03 h 0 M 427.78 372.64 h 0 M 432.83 373.32 h 0 M 437.88 373.55 h 0 M 442.93 371.00 h 0 M 447.98 370.40 h 0 M 453.03 370.92 h 0 M 458.08 363.91 h 0 M 463.13 364.08 h 0 M 468.18 363.38 h 0 M 473.23 369.45 h 0 M 478.28 368.75 h 0 M 483.33 366.45 h 0 M 488.38 367.98 h 0 M 493.43 360.27 h 0 M 498.48 367.04 h 0 M 503.54 356.17 h 0 M 508.59 363.59 h 0 M 513.64 365.54 h 0 M 518.69 365.13 h 0 M 523.74 355.65 h 0 M 528.79 354.04 h 0 M 533.84 360.86 h 0 M 538.89 363.48 h 0 M 543.94 359.37 h 0 M 548.99 362.75 h 0 M 554.04 349.47 h 0 M 559.09 360.22 h 0 M 564.14 355.97 h 0 M 569.19 359.51 h 0 M 574.24 359.66 h 0 M 579.29 349.98 h 0 M 584.34 358.34 h 0 M 589.39 357.42 h 0 M 594.44 343.95 h 0 M 599.49 353.06 h 0 M 604.55 345.44 h 0 M 609.60 340.95 h 0 M 614.65 353.29 h 0 M 619.70 340.44 h 0 M 624.75 343.71 h 0 M 629.80 353.71 h 0 M 634.85 351.64 h 0 M 639.90 352.49 h 0 M 644.95 346.40 h 0 M 650.00 351.11 h 0" /><text  class="poloto_labels poloto_text poloto_title" x="400" y="37.5" >Bench of construction vs query abspiral(x,1.5)</text><text  class="poloto_labels poloto_text poloto_xname" x="400" y="481.25" >Number of Elements</text><text  class="poloto_labels poloto_text poloto_yname" transform="rotate(-90,37.5,250)" x="37.5" y="250" >Time in Seconds</text><text  class="poloto_tick_labels poloto_text" dominant-baseline="middle" text-anchor="start" x="150" y="70" ></text><line  class="poloto_axis_lines" stroke="black" x1="150" x2="144" y1="400" y2="400" /><text  class="poloto_tick_labels poloto_text" dominant-baseline="middle" text-anchor="end" x="135" y="400" >0e0</text><line  class="poloto_axis_lines" stroke="black" x1="150" x2="144" y1="356.4388276991555" y2="356.4388276991555" /><text  class="poloto_tick_labels poloto_text" dominant-baseline="middle" text-anchor="end" x="135" y="356.4388276991555" >0.002</text><line  class="poloto_axis_lines" stroke="black" x1="150" x2="144" y1="312.877655398311" y2="312.877655398311" /><text  class="poloto_tick_labels poloto_text" dominant-baseline="middle" text-anchor="end" x="135" y="312.877655398311" >0.004</text><line  class="poloto_axis_lines" stroke="black" x1="150" x2="144" y1="269.3164830974665" y2="269.3164830974665" /><text  class="poloto_tick_labels poloto_text" dominant-baseline="middle" text-anchor="end" x="135" y="269.3164830974665" >0.006</text><line  class="poloto_axis_lines" stroke="black" x1="150" x2="144" y1="225.75531079662198" y2="225.75531079662198" /><text  class="poloto_tick_labels poloto_text" dominant-baseline="middle" text-anchor="end" x="135" y="225.75531079662198" >0.008</text><line  class="poloto_axis_lines" stroke="black" x1="150" x2="144" y1="182.1941384957775" y2="182.1941384957775" /><text  class="poloto_tick_labels poloto_text" dominant-baseline="middle" text-anchor="end" x="135" y="182.1941384957775" >0.010</text><line  class="poloto_axis_lines" stroke="black" x1="150" x2="144" y1="138.63296619493303" y2="138.63296619493303" /><text  class="poloto_tick_labels poloto_text" dominant-baseline="middle" text-anchor="end" x="135" y="138.63296619493303" >0.012</text><text  class="poloto_tick_labels poloto_text" dominant-baseline="middle" text-anchor="start" x="440.00000000000006" y="70" ></text><line  class="poloto_axis_lines" stroke="black" x1="150" x2="150" y1="400" y2="405" /><text  class="poloto_tick_labels poloto_text" dominant-baseline="start" text-anchor="middle" x="150" y="430" >0</text><line  class="poloto_axis_lines" stroke="black" x1="276.26262626262627" x2="276.26262626262627" y1="400" y2="405" /><text  class="poloto_tick_labels poloto_text" dominant-baseline="start" text-anchor="middle" x="276.26262626262627" y="430" >5000</text><line  class="poloto_axis_lines" stroke="black" x1="402.52525252525254" x2="402.52525252525254" y1="400" y2="405" /><text  class="poloto_tick_labels poloto_text" dominant-baseline="start" text-anchor="middle" x="402.52525252525254" y="430" >10000</text><line  class="poloto_axis_lines" stroke="black" x1="528.7878787878788" x2="528.7878787878788" y1="400" y2="405" /><text  class="poloto_tick_labels poloto_text" dominant-baseline="start" text-anchor="middle" x="528.7878787878788" y="430" >15000</text><path  stroke="black" fill="none" class="poloto_axis_lines" style="stroke-dasharray:12.626262626262626;stroke-dashoffset:-0;" d=" M 150 400 L 650 400" /><path  stroke="black" fill="none" class="poloto_axis_lines" style="stroke-dasharray:10.890293075211124;stroke-dashoffset:-0;" d=" M 150 400 L 150 100" /></svg>