<svg class="poloto" width="800" height="500" viewBox="0 0 800 500" xmlns="http://www.w3.org/2000/svg"><circle  r="1e5" class="poloto_background" /><text  class="poloto_text poloto_legend_text" x="675" y="100" >float</text><line  class="poloto_scatter poloto_legend_icon poloto0stroke poloto0legend" stroke="black" x1="685" x2="685" y1="81.25" y2="81.25" /><path  class="poloto_scatter poloto0stroke" d=" M 150.00 198.09 h 0 M 155.05 315.47 h 0 M 160.10 329.38 h 0 M 165.15 327.51 h 0 M 170.20 326.64 h 0 M 175.25 317.96 h 0 M 180.30 321.33 h 0 M 185.35 312.85 h 0 M 190.40 312.03 h 0 M 195.45 314.49 h 0 M 200.51 313.17 h 0 M 205.56 310.76 h 0 M 210.61 308.55 h 0 M 215.66 305.65 h 0 M 220.71 301.11 h 0 M 225.76 301.27 h 0 M 230.81 300.29 h 0 M 235.86 298.26 h 0 M 240.91 293.74 h 0 M 245.96 293.14 h 0 M 251.01 288.66 h 0 M 256.06 287.66 h 0 M 261.11 286.66 h 0 M 266.16 287.42 h 0 M 271.21 283.46 h 0 M 276.26 281.95 h 0 M 281.31 278.94 h 0 M 286.36 275.64 h 0 M 291.41 275.55 h 0 M 296.46 271.82 h 0 M 301.52 271.33 h 0 M 306.57 268.88 h 0 M 311.62 267.03 h 0 M 316.67 264.96 h 0 M 321.72 259.89 h 0 M 326.77 257.74 h 0 M 331.82 257.78 h 0 M 336.87 256.02 h 0 M 341.92 252.77 h 0 M 346.97 253.09 h 0 M 352.02 251.72 h 0 M 357.07 246.56 h 0 M 362.12 244.33 h 0 M 367.17 242.11 h 0 M 372.22 225.68 h 0 M 377.27 235.02 h 0 M 382.32 232.29 h 0 M 387.37 233.38 h 0 M 392.42 230.86 h 0 M 397.47 229.00 h 0 M 402.53 227.61 h 0 M 407.58 224.17 h 0 M 412.63 222.68 h 0 M 417.68 220.35 h 0 M 422.73 223.61 h 0 M 427.78 215.94 h 0 M 432.83 212.44 h 0 M 437.88 213.35 h 0 M 442.93 212.11 h 0 M 447.98 211.78 h 0 M 453.03 210.66 h 0 M 458.08 207.04 h 0 M 463.13 196.21 h 0 M 468.18 197.82 h 0 M 473.23 193.56 h 0 M 478.28 197.19 h 0 M 483.33 194.46 h 0 M 488.38 194.73 h 0 M 493.43 186.74 h 0 M 498.48 181.61 h 0 M 503.54 182.27 h 0 M 508.59 185.37 h 0 M 513.64 185.19 h 0 M 518.69 179.87 h 0 M 523.74 168.98 h 0 M 528.79 173.70 h 0 M 533.84 167.81 h 0 M 538.89 164.55 h 0 M 543.94 172.24 h 0 M 548.99 166.13 h 0 M 554.04 129.26 h 0 M 559.09 150.62 h 0 M 564.14 152.13 h 0 M 569.19 159.77 h 0 M 574.24 144.58 h 0 M 579.29 151.56 h 0 M 584.34 147.79 h 0 M 589.39 140.67 h 0 M 594.44 137.37 h 0 M 599.49 135.15 h 0 M 604.55 134.43 h 0 M 609.60 141.87 h 0 M 614.65 128.99 h 0 M 619.70 124.36 h 0 M 624.75 133.37 h 0 M 629.80 119.68 h 0 M 634.85 130.93 h 0 M 639.90 117.67 h 0 M 644.95 115.12 h 0 M 650.00 122.26 h 0" /><text  class="poloto_text poloto_legend_text" x="675" y="150" >float_i32</text><line  class="poloto_scatter poloto_legend_icon poloto1stroke poloto1legend" stroke="black" x1="685" x2="685" y1="131.25" y2="131.25" /><path  class="poloto_scatter poloto1stroke" d=" M 150.00 208.42 h 0 M 155.05 294.94 h 0 M 160.10 334.98 h 0 M 165.15 332.02 h 0 M 170.20 328.98 h 0 M 175.25 324.50 h 0 M 180.30 325.98 h 0 M 185.35 323.29 h 0 M 190.40 320.62 h 0 M 195.45 320.61 h 0 M 200.51 318.05 h 0 M 205.56 313.96 h 0 M 210.61 312.91 h 0 M 215.66 311.07 h 0 M 220.71 308.23 h 0 M 225.76 307.64 h 0 M 230.81 306.09 h 0 M 235.86 304.78 h 0 M 240.91 301.00 h 0 M 245.96 299.48 h 0 M 251.01 297.43 h 0 M 256.06 294.00 h 0 M 261.11 295.10 h 0 M 266.16 296.35 h 0 M 271.21 289.67 h 0 M 276.26 290.02 h 0 M 281.31 287.64 h 0 M 286.36 284.53 h 0 M 291.41 283.23 h 0 M 296.46 283.58 h 0 M 301.52 281.20 h 0 M 306.57 278.72 h 0 M 311.62 276.63 h 0 M 316.67 275.48 h 0 M 321.72 270.75 h 0 M 326.77 268.38 h 0 M 331.82 268.06 h 0 M 336.87 265.38 h 0 M 341.92 265.93 h 0 M 346.97 266.13 h 0 M 352.02 260.18 h 0 M 357.07 255.78 h 0 M 362.12 257.09 h 0 M 367.17 253.86 h 0 M 372.22 250.11 h 0 M 377.27 252.22 h 0 M 382.32 246.52 h 0 M 387.37 247.97 h 0 M 392.42 243.15 h 0 M 397.47 244.83 h 0 M 402.53 242.71 h 0 M 407.58 236.70 h 0 M 412.63 235.76 h 0 M 417.68 232.63 h 0 M 422.73 232.94 h 0 M 427.78 231.47 h 0 M 432.83 226.59 h 0 M 437.88 225.36 h 0 M 442.93 226.35 h 0 M 447.98 217.85 h 0 M 453.03 222.27 h 0 M 458.08 221.74 h 0 M 463.13 203.31 h 0 M 468.18 214.91 h 0 M 473.23 214.12 h 0 M 478.28 207.28 h 0 M 483.33 206.66 h 0 M 488.38 203.52 h 0 M 493.43 203.52 h 0 M 498.48 204.41 h 0 M 503.54 194.97 h 0 M 508.59 201.44 h 0 M 513.64 196.45 h 0 M 518.69 197.77 h 0 M 523.74 193.05 h 0 M 528.79 192.11 h 0 M 533.84 191.59 h 0 M 538.89 189.08 h 0 M 543.94 189.81 h 0 M 548.99 183.73 h 0 M 554.04 176.13 h 0 M 559.09 171.92 h 0 M 564.14 179.16 h 0 M 569.19 176.21 h 0 M 574.24 163.32 h 0 M 579.29 171.83 h 0 M 584.34 164.83 h 0 M 589.39 168.53 h 0 M 594.44 164.35 h 0 M 599.49 152.42 h 0 M 604.55 155.14 h 0 M 609.60 152.60 h 0 M 614.65 155.98 h 0 M 619.70 145.84 h 0 M 624.75 144.06 h 0 M 629.80 149.62 h 0 M 634.85 150.46 h 0 M 639.90 144.75 h 0 M 644.95 143.80 h 0 M 650.00 139.70 h 0" /><text  class="poloto_text poloto_legend_text" x="675" y="200" >i64</text><line  class="poloto_scatter poloto_legend_icon poloto2stroke poloto2legend" stroke="black" x1="685" x2="685" y1="181.25" y2="181.25" /><path  class="poloto_scatter poloto2stroke" d=" M 150.00 100.00 h 0 M 155.05 261.83 h 0 M 160.10 322.21 h 0 M 165.15 327.93 h 0 M 170.20 325.82 h 0 M 175.25 318.85 h 0 M 180.30 317.05 h 0 M 185.35 319.03 h 0 M 190.40 315.86 h 0 M 195.45 313.39 h 0 M 200.51 313.89 h 0 M 205.56 307.08 h 0 M 210.61 307.30 h 0 M 215.66 305.01 h 0 M 220.71 304.08 h 0 M 225.76 303.02 h 0 M 230.81 294.20 h 0 M 235.86 294.66 h 0 M 240.91 290.72 h 0 M 245.96 294.64 h 0 M 251.01 291.40 h 0 M 256.06 277.76 h 0 M 261.11 284.36 h 0 M 266.16 280.10 h 0 M 271.21 282.02 h 0 M 276.26 279.88 h 0 M 281.31 280.42 h 0 M 286.36 275.05 h 0 M 291.41 273.53 h 0 M 296.46 264.38 h 0 M 301.52 270.40 h 0 M 306.57 258.83 h 0 M 311.62 262.63 h 0 M 316.67 258.17 h 0 M 321.72 260.66 h 0 M 326.77 259.45 h 0 M 331.82 257.68 h 0 M 336.87 257.81 h 0 M 341.92 252.36 h 0 M 346.97 250.72 h 0 M 352.02 248.88 h 0 M 357.07 246.82 h 0 M 362.12 232.21 h 0 M 367.17 238.98 h 0 M 372.22 240.06 h 0 M 377.27 237.63 h 0 M 382.32 239.14 h 0 M 387.37 221.27 h 0 M 392.42 229.35 h 0 M 397.47 217.77 h 0 M 402.53 229.91 h 0 M 407.58 224.23 h 0 M 412.63 225.09 h 0 M 417.68 220.03 h 0 M 422.73 223.21 h 0 M 427.78 201.68 h 0 M 432.83 211.86 h 0 M 437.88 210.78 h 0 M 442.93 204.09 h 0 M 447.98 207.98 h 0 M 453.03 205.35 h 0 M 458.08 184.26 h 0 M 463.13 195.19 h 0 M 468.18 194.91 h 0 M 473.23 194.08 h 0 M 478.28 192.77 h 0 M 483.33 192.94 h 0 M 488.38 183.57 h 0 M 493.43 185.41 h 0 M 498.48 181.92 h 0 M 503.54 181.55 h 0 M 508.59 168.79 h 0 M 513.64 183.05 h 0 M 518.69 176.93 h 0 M 523.74 178.03 h 0 M 528.79 168.26 h 0 M 533.84 167.10 h 0 M 538.89 167.12 h 0 M 543.94 162.12 h 0 M 548.99 157.48 h 0 M 554.04 146.35 h 0 M 559.09 152.91 h 0 M 564.14 148.11 h 0 M 569.19 147.81 h 0 M 574.24 154.91 h 0 M 579.29 145.67 h 0 M 584.34 140.87 h 0 M 589.39 136.04 h 0 M 594.44 141.13 h 0 M 599.49 143.42 h 0 M 604.55 139.63 h 0 M 609.60 127.16 h 0 M 614.65 109.11 h 0 M 619.70 126.07 h 0 M 624.75 126.52 h 0 M 629.80 124.99 h 0 M 634.85 117.47 h 0 M 639.90 122.07 h 0 M 644.95 113.44 h 0 M 650.00 106.20 h 0" /><text  class="poloto_text poloto_legend_text" x="675" y="250" >int</text><line  class="poloto_scatter poloto_legend_icon poloto3stroke poloto3legend" stroke="black" x1="685" x2="685" y1="231.25" y2="231.25" /><path  class="poloto_scatter poloto3stroke" d=" M 150.00 149.87 h 0 M 155.05 237.39 h 0 M 160.10 324.24 h 0 M 165.15 328.30 h 0 M 170.20 324.70 h 0 M 175.25 325.99 h 0 M 180.30 320.25 h 0 M 185.35 320.13 h 0 M 190.40 318.92 h 0 M 195.45 315.33 h 0 M 200.51 310.70 h 0 M 205.56 310.77 h 0 M 210.61 306.61 h 0 M 215.66 302.18 h 0 M 220.71 300.30 h 0 M 225.76 304.76 h 0 M 230.81 301.95 h 0 M 235.86 301.20 h 0 M 240.91 296.85 h 0 M 245.96 294.04 h 0 M 251.01 293.10 h 0 M 256.06 288.81 h 0 M 261.11 289.51 h 0 M 266.16 287.74 h 0 M 271.21 285.61 h 0 M 276.26 283.90 h 0 M 281.31 275.37 h 0 M 286.36 278.52 h 0 M 291.41 268.72 h 0 M 296.46 278.68 h 0 M 301.52 265.77 h 0 M 306.57 273.29 h 0 M 311.62 258.91 h 0 M 316.67 270.21 h 0 M 321.72 263.40 h 0 M 326.77 262.51 h 0 M 331.82 262.51 h 0 M 336.87 263.51 h 0 M 341.92 247.49 h 0 M 346.97 244.65 h 0 M 352.02 252.12 h 0 M 357.07 250.67 h 0 M 362.12 248.11 h 0 M 367.17 242.94 h 0 M 372.22 232.61 h 0 M 377.27 242.58 h 0 M 382.32 235.25 h 0 M 387.37 238.43 h 0 M 392.42 234.90 h 0 M 397.47 234.26 h 0 M 402.53 219.43 h 0 M 407.58 230.11 h 0 M 412.63 228.78 h 0 M 417.68 224.66 h 0 M 422.73 221.09 h 0 M 427.78 220.34 h 0 M 432.83 216.78 h 0 M 437.88 215.59 h 0 M 442.93 215.20 h 0 M 447.98 216.70 h 0 M 453.03 210.44 h 0 M 458.08 202.36 h 0 M 463.13 203.36 h 0 M 468.18 202.20 h 0 M 473.23 198.11 h 0 M 478.28 200.32 h 0 M 483.33 192.60 h 0 M 488.38 193.29 h 0 M 493.43 190.60 h 0 M 498.48 189.53 h 0 M 503.54 186.44 h 0 M 508.59 192.60 h 0 M 513.64 189.33 h 0 M 518.69 182.35 h 0 M 523.74 184.08 h 0 M 528.79 175.87 h 0 M 533.84 172.06 h 0 M 538.89 178.59 h 0 M 543.94 175.55 h 0 M 548.99 173.09 h 0 M 554.04 172.47 h 0 M 559.09 164.70 h 0 M 564.14 156.08 h 0 M 569.19 157.35 h 0 M 574.24 161.24 h 0 M 579.29 161.65 h 0 M 584.34 149.83 h 0 M 589.39 151.60 h 0 M 594.44 147.11 h 0 M 599.49 152.93 h 0 M 604.55 143.32 h 0 M 609.60 146.46 h 0 M 614.65 135.62 h 0 M 619.70 136.52 h 0 M 624.75 140.50 h 0 M 629.80 127.82 h 0 M 634.85 126.83 h 0 M 639.90 132.22 h 0 M 644.95 120.99 h 0 M 650.00 130.78 h 0" /><text  class="poloto_labels poloto_text poloto_title" x="400" y="37.5" >Bench of differing number types With abspiral(x,1.5)</text><text  class="poloto_labels poloto_text poloto_xname" x="400" y="481.25" >Number of Elements</text><text  class="poloto_labels poloto_text poloto_yname" transform="rotate(-90,37.5,250)" x="37.5" y="250" >Time in Seconds</text><text  class="poloto_tick_labels poloto_text" dominant-baseline="middle" text-anchor="start" x="150" y="70" ></text><line  class="poloto_axis_lines" stroke="black" x1="150" x2="144" y1="400" y2="400" /><text  class="poloto_tick_labels poloto_text" dominant-baseline="middle" text-anchor="end" x="135" y="400" >0e0</text><line  class="poloto_axis_lines" stroke="black" x1="150" x2="144" y1="333.1406148701067" y2="333.1406148701067" /><text  class="poloto_tick_labels poloto_text" dominant-baseline="middle" text-anchor="end" x="135" y="333.1406148701067" >0.001</text><line  class="poloto_axis_lines" stroke="black" x1="150" x2="144" y1="266.2812297402134" y2="266.2812297402134" /><text  class="poloto_tick_labels poloto_text" dominant-baseline="middle" text-anchor="end" x="135" y="266.2812297402134" >0.002</text><line  class="poloto_axis_lines" stroke="black" x1="150" x2="144" y1="199.42184461032014" y2="199.42184461032014" /><text  class="poloto_tick_labels poloto_text" dominant-baseline="middle" text-anchor="end" x="135" y="199.42184461032014" >0.003</text><line  class="poloto_axis_lines" stroke="black" x1="150" x2="144" y1="132.5624594804268" y2="132.5624594804268" /><text  class="poloto_tick_labels poloto_text" dominant-baseline="middle" text-anchor="end" x="135" y="132.5624594804268" >0.004</text><text  class="poloto_tick_labels poloto_text" dominant-baseline="middle" text-anchor="start" x="440.00000000000006" y="70" ></text><line  class="poloto_axis_lines" stroke="black" x1="183.67003367003366" x2="183.67003367003366" y1="400" y2="405" /><text  class="poloto_tick_labels poloto_text" dominant-baseline="start" text-anchor="middle" x="183.67003367003366" y="430" >6000</text><line  class="poloto_axis_lines" stroke="black" x1="251.01010101010098" x2="251.01010101010098" y1="400" y2="405" /><text  class="poloto_tick_labels poloto_text" dominant-baseline="start" text-anchor="middle" x="251.01010101010098" y="430" >8000</text><line  class="poloto_axis_lines" stroke="black" x1="318.35016835016836" x2="318.35016835016836" y1="400" y2="405" /><text  class="poloto_tick_labels poloto_text" dominant-baseline="start" text-anchor="middle" x="318.35016835016836" y="430" >10000</text><line  class="poloto_axis_lines" stroke="black" x1="385.6902356902357" x2="385.6902356902357" y1="400" y2="405" /><text  class="poloto_tick_labels poloto_text" dominant-baseline="start" text-anchor="middle" x="385.6902356902357" y="430" >12000</text><line  class="poloto_axis_lines" stroke="black" x1="453.030303030303" x2="453.030303030303" y1="400" y2="405" /><text  class="poloto_tick_labels poloto_text" dominant-baseline="start" text-anchor="middle" x="453.030303030303" y="430" >14000</text><line  class="poloto_axis_lines" stroke="black" x1="520.3703703703703" x2="520.3703703703703" y1="400" y2="405" /><text  class="poloto_tick_labels poloto_text" dominant-baseline="start" text-anchor="middle" x="520.3703703703703" y="430" >16000</text><line  class="poloto_axis_lines" stroke="black" x1="587.7104377104376" x2="587.7104377104376" y1="400" y2="405" /><text  class="poloto_tick_labels poloto_text" dominant-baseline="start" text-anchor="middle" x="587.7104377104376" y="430" >18000</text><path  stroke="black" fill="none" class="poloto_axis_lines" style="stroke-dasharray:8.417508417508417;stroke-dashoffset:-33.67003367003366;" d=" M 150 400 L 650 400" /><path  stroke="black" fill="none" class="poloto_axis_lines" style="stroke-dasharray:6.685938512989329;stroke-dashoffset:-0;" d=" M 150 400 L 150 100" /></svg>