<svg class="poloto" width="800" height="500" viewBox="0 0 800 500" xmlns="http://www.w3.org/2000/svg"><circle  r="1e5" class="poloto_background" /><text  class="poloto_text poloto_legend_text" x="675" y="100" >float</text><line  class="poloto_scatter poloto_legend_icon poloto0stroke poloto0legend" stroke="black" x1="685" x2="685" y1="81.25" y2="81.25" /><path  class="poloto_scatter poloto0stroke" d=" M 150.00 323.45 h 0 M 155.05 321.40 h 0 M 160.10 319.80 h 0 M 165.15 317.23 h 0 M 170.20 323.28 h 0 M 175.25 327.80 h 0 M 180.30 324.84 h 0 M 185.35 319.87 h 0 M 190.40 318.89 h 0 M 195.45 318.66 h 0 M 200.51 316.68 h 0 M 205.56 313.64 h 0 M 210.61 312.03 h 0 M 215.66 308.87 h 0 M 220.71 306.40 h 0 M 225.76 306.18 h 0 M 230.81 302.74 h 0 M 235.86 300.18 h 0 M 240.91 299.21 h 0 M 245.96 297.43 h 0 M 251.01 294.28 h 0 M 256.06 292.16 h 0 M 261.11 284.62 h 0 M 266.16 296.79 h 0 M 271.21 291.24 h 0 M 276.26 288.89 h 0 M 281.31 288.23 h 0 M 286.36 284.00 h 0 M 291.41 283.50 h 0 M 296.46 281.69 h 0 M 301.52 280.10 h 0 M 306.57 276.02 h 0 M 311.62 273.53 h 0 M 316.67 269.40 h 0 M 321.72 269.90 h 0 M 326.77 268.10 h 0 M 331.82 267.33 h 0 M 336.87 265.12 h 0 M 341.92 263.42 h 0 M 346.97 260.93 h 0 M 352.02 257.60 h 0 M 357.07 254.66 h 0 M 362.12 253.18 h 0 M 367.17 251.04 h 0 M 372.22 248.71 h 0 M 377.27 250.56 h 0 M 382.32 245.14 h 0 M 387.37 243.96 h 0 M 392.42 240.48 h 0 M 397.47 238.13 h 0 M 402.53 235.98 h 0 M 407.58 233.48 h 0 M 412.63 234.33 h 0 M 417.68 230.91 h 0 M 422.73 229.23 h 0 M 427.78 227.96 h 0 M 432.83 225.15 h 0 M 437.88 226.01 h 0 M 442.93 203.96 h 0 M 447.98 191.84 h 0 M 453.03 187.86 h 0 M 458.08 183.88 h 0 M 463.13 216.89 h 0 M 468.18 207.24 h 0 M 473.23 205.89 h 0 M 478.28 201.00 h 0 M 483.33 204.02 h 0 M 488.38 208.07 h 0 M 493.43 204.68 h 0 M 498.48 196.59 h 0 M 503.54 191.66 h 0 M 508.59 191.11 h 0 M 513.64 198.05 h 0 M 518.69 181.30 h 0 M 523.74 182.52 h 0 M 528.79 182.49 h 0 M 533.84 186.59 h 0 M 538.89 176.71 h 0 M 543.94 186.71 h 0 M 548.99 172.61 h 0 M 554.04 174.09 h 0 M 559.09 161.51 h 0 M 564.14 164.13 h 0 M 569.19 165.32 h 0 M 574.24 157.99 h 0 M 579.29 162.38 h 0 M 584.34 168.18 h 0 M 589.39 107.47 h 0 M 594.44 100.00 h 0 M 599.49 161.44 h 0 M 604.55 148.96 h 0 M 609.60 144.42 h 0 M 614.65 147.07 h 0 M 619.70 140.23 h 0 M 624.75 138.69 h 0 M 629.80 139.85 h 0 M 634.85 131.03 h 0 M 639.90 144.07 h 0 M 644.95 139.01 h 0 M 650.00 137.37 h 0" /><text  class="poloto_text poloto_legend_text" x="675" y="150" >float_i32</text><line  class="poloto_scatter poloto_legend_icon poloto1stroke poloto1legend" stroke="black" x1="685" x2="685" y1="131.25" y2="131.25" /><path  class="poloto_scatter poloto1stroke" d=" M 150.00 327.72 h 0 M 155.05 324.97 h 0 M 160.10 324.05 h 0 M 165.15 322.39 h 0 M 170.20 332.05 h 0 M 175.25 330.77 h 0 M 180.30 328.27 h 0 M 185.35 322.41 h 0 M 190.40 318.76 h 0 M 195.45 322.05 h 0 M 200.51 320.63 h 0 M 205.56 317.32 h 0 M 210.61 314.70 h 0 M 215.66 313.36 h 0 M 220.71 311.39 h 0 M 225.76 311.39 h 0 M 230.81 307.47 h 0 M 235.86 305.25 h 0 M 240.91 303.93 h 0 M 245.96 301.96 h 0 M 251.01 298.57 h 0 M 256.06 298.53 h 0 M 261.11 300.58 h 0 M 266.16 300.37 h 0 M 271.21 296.18 h 0 M 276.26 294.26 h 0 M 281.31 293.57 h 0 M 286.36 290.16 h 0 M 291.41 289.58 h 0 M 296.46 287.05 h 0 M 301.52 285.15 h 0 M 306.57 283.17 h 0 M 311.62 281.10 h 0 M 316.67 282.10 h 0 M 321.72 276.48 h 0 M 326.77 274.79 h 0 M 331.82 276.34 h 0 M 336.87 271.79 h 0 M 341.92 269.08 h 0 M 346.97 271.41 h 0 M 352.02 264.26 h 0 M 357.07 262.98 h 0 M 362.12 260.97 h 0 M 367.17 259.91 h 0 M 372.22 259.74 h 0 M 377.27 253.50 h 0 M 382.32 252.48 h 0 M 387.37 251.12 h 0 M 392.42 254.06 h 0 M 397.47 248.97 h 0 M 402.53 243.84 h 0 M 407.58 244.56 h 0 M 412.63 247.48 h 0 M 417.68 239.23 h 0 M 422.73 237.83 h 0 M 427.78 239.99 h 0 M 432.83 235.02 h 0 M 437.88 230.54 h 0 M 442.93 204.81 h 0 M 447.98 209.03 h 0 M 453.03 199.99 h 0 M 458.08 227.58 h 0 M 463.13 219.09 h 0 M 468.18 217.10 h 0 M 473.23 212.75 h 0 M 478.28 220.35 h 0 M 483.33 210.71 h 0 M 488.38 210.80 h 0 M 493.43 209.41 h 0 M 498.48 206.40 h 0 M 503.54 204.81 h 0 M 508.59 210.31 h 0 M 513.64 203.02 h 0 M 518.69 199.85 h 0 M 523.74 193.17 h 0 M 528.79 204.14 h 0 M 533.84 193.32 h 0 M 538.89 188.75 h 0 M 543.94 188.92 h 0 M 548.99 189.37 h 0 M 554.04 194.88 h 0 M 559.09 185.47 h 0 M 564.14 178.23 h 0 M 569.19 181.96 h 0 M 574.24 180.85 h 0 M 579.29 182.50 h 0 M 584.34 174.54 h 0 M 589.39 171.78 h 0 M 594.44 158.19 h 0 M 599.49 162.65 h 0 M 604.55 162.85 h 0 M 609.60 159.86 h 0 M 614.65 158.24 h 0 M 619.70 154.88 h 0 M 624.75 164.88 h 0 M 629.80 151.93 h 0 M 634.85 160.64 h 0 M 639.90 147.98 h 0 M 644.95 158.86 h 0 M 650.00 143.22 h 0" /><text  class="poloto_text poloto_legend_text" x="675" y="200" >i64</text><line  class="poloto_scatter poloto_legend_icon poloto2stroke poloto2legend" stroke="black" x1="685" x2="685" y1="181.25" y2="181.25" /><path  class="poloto_scatter poloto2stroke" d=" M 150.00 324.49 h 0 M 155.05 319.26 h 0 M 160.10 317.39 h 0 M 165.15 319.19 h 0 M 170.20 328.21 h 0 M 175.25 324.41 h 0 M 180.30 321.78 h 0 M 185.35 323.25 h 0 M 190.40 317.15 h 0 M 195.45 314.48 h 0 M 200.51 312.78 h 0 M 205.56 309.14 h 0 M 210.61 303.04 h 0 M 215.66 308.47 h 0 M 220.71 301.40 h 0 M 225.76 308.44 h 0 M 230.81 302.44 h 0 M 235.86 297.99 h 0 M 240.91 298.49 h 0 M 245.96 295.83 h 0 M 251.01 287.30 h 0 M 256.06 285.98 h 0 M 261.11 284.57 h 0 M 266.16 283.62 h 0 M 271.21 282.65 h 0 M 276.26 278.82 h 0 M 281.31 278.55 h 0 M 286.36 283.94 h 0 M 291.41 272.98 h 0 M 296.46 282.76 h 0 M 301.52 281.65 h 0 M 306.57 277.55 h 0 M 311.62 263.58 h 0 M 316.67 268.80 h 0 M 321.72 257.39 h 0 M 326.77 256.98 h 0 M 331.82 270.10 h 0 M 336.87 259.43 h 0 M 341.92 264.97 h 0 M 346.97 246.94 h 0 M 352.02 260.63 h 0 M 357.07 245.92 h 0 M 362.12 243.02 h 0 M 367.17 251.53 h 0 M 372.22 238.80 h 0 M 377.27 249.33 h 0 M 382.32 236.54 h 0 M 387.37 243.35 h 0 M 392.42 231.56 h 0 M 397.47 226.51 h 0 M 402.53 239.38 h 0 M 407.58 242.97 h 0 M 412.63 234.86 h 0 M 417.68 233.89 h 0 M 422.73 231.49 h 0 M 427.78 218.10 h 0 M 432.83 225.83 h 0 M 437.88 220.54 h 0 M 442.93 193.95 h 0 M 447.98 190.47 h 0 M 453.03 195.98 h 0 M 458.08 203.52 h 0 M 463.13 202.69 h 0 M 468.18 208.56 h 0 M 473.23 207.67 h 0 M 478.28 192.26 h 0 M 483.33 207.09 h 0 M 488.38 202.07 h 0 M 493.43 199.62 h 0 M 498.48 197.38 h 0 M 503.54 192.28 h 0 M 508.59 194.27 h 0 M 513.64 186.34 h 0 M 518.69 197.82 h 0 M 523.74 182.70 h 0 M 528.79 167.10 h 0 M 533.84 176.40 h 0 M 538.89 177.06 h 0 M 543.94 179.61 h 0 M 548.99 175.29 h 0 M 554.04 175.08 h 0 M 559.09 171.88 h 0 M 564.14 165.28 h 0 M 569.19 161.94 h 0 M 574.24 164.97 h 0 M 579.29 171.47 h 0 M 584.34 165.78 h 0 M 589.39 160.37 h 0 M 594.44 150.14 h 0 M 599.49 163.13 h 0 M 604.55 144.18 h 0 M 609.60 150.58 h 0 M 614.65 148.86 h 0 M 619.70 153.95 h 0 M 624.75 136.53 h 0 M 629.80 137.22 h 0 M 634.85 113.49 h 0 M 639.90 130.89 h 0 M 644.95 145.13 h 0 M 650.00 130.71 h 0" /><text  class="poloto_text poloto_legend_text" x="675" y="250" >int</text><line  class="poloto_scatter poloto_legend_icon poloto3stroke poloto3legend" stroke="black" x1="685" x2="685" y1="231.25" y2="231.25" /><path  class="poloto_scatter poloto3stroke" d=" M 150.00 324.80 h 0 M 155.05 324.12 h 0 M 160.10 322.31 h 0 M 165.15 317.95 h 0 M 170.20 314.04 h 0 M 175.25 327.15 h 0 M 180.30 326.94 h 0 M 185.35 324.29 h 0 M 190.40 319.01 h 0 M 195.45 318.31 h 0 M 200.51 318.86 h 0 M 205.56 315.18 h 0 M 210.61 311.64 h 0 M 215.66 278.43 h 0 M 220.71 307.28 h 0 M 225.76 307.46 h 0 M 230.81 302.05 h 0 M 235.86 304.46 h 0 M 240.91 293.97 h 0 M 245.96 297.77 h 0 M 251.01 294.56 h 0 M 256.06 294.60 h 0 M 261.11 294.91 h 0 M 266.16 294.84 h 0 M 271.21 292.54 h 0 M 276.26 290.29 h 0 M 281.31 290.26 h 0 M 286.36 283.07 h 0 M 291.41 284.43 h 0 M 296.46 284.38 h 0 M 301.52 284.62 h 0 M 306.57 279.34 h 0 M 311.62 277.15 h 0 M 316.67 273.55 h 0 M 321.72 243.61 h 0 M 326.77 269.58 h 0 M 331.82 269.80 h 0 M 336.87 271.00 h 0 M 341.92 266.75 h 0 M 346.97 263.03 h 0 M 352.02 261.19 h 0 M 357.07 259.47 h 0 M 362.12 257.23 h 0 M 367.17 253.49 h 0 M 372.22 252.41 h 0 M 377.27 249.83 h 0 M 382.32 251.39 h 0 M 387.37 245.67 h 0 M 392.42 245.79 h 0 M 397.47 242.58 h 0 M 402.53 240.82 h 0 M 407.58 239.39 h 0 M 412.63 238.17 h 0 M 417.68 235.96 h 0 M 422.73 233.59 h 0 M 427.78 234.94 h 0 M 432.83 227.04 h 0 M 437.88 224.04 h 0 M 442.93 220.34 h 0 M 447.98 202.05 h 0 M 453.03 196.86 h 0 M 458.08 200.19 h 0 M 463.13 220.05 h 0 M 468.18 203.55 h 0 M 473.23 209.65 h 0 M 478.28 210.15 h 0 M 483.33 214.77 h 0 M 488.38 205.21 h 0 M 493.43 209.84 h 0 M 498.48 201.15 h 0 M 503.54 200.69 h 0 M 508.59 194.42 h 0 M 513.64 193.88 h 0 M 518.69 196.51 h 0 M 523.74 184.67 h 0 M 528.79 187.23 h 0 M 533.84 182.29 h 0 M 538.89 181.07 h 0 M 543.94 180.99 h 0 M 548.99 179.86 h 0 M 554.04 185.76 h 0 M 559.09 178.81 h 0 M 564.14 168.88 h 0 M 569.19 179.13 h 0 M 574.24 176.25 h 0 M 579.29 164.58 h 0 M 584.34 164.90 h 0 M 589.39 161.55 h 0 M 594.44 123.13 h 0 M 599.49 134.30 h 0 M 604.55 155.41 h 0 M 609.60 146.82 h 0 M 614.65 151.88 h 0 M 619.70 147.35 h 0 M 624.75 145.24 h 0 M 629.80 141.61 h 0 M 634.85 139.56 h 0 M 639.90 143.31 h 0 M 644.95 135.67 h 0 M 650.00 136.35 h 0" /><text  class="poloto_labels poloto_text poloto_title" x="400" y="37.5" >Bench of differing number types With abspiral(x,1.5)</text><text  class="poloto_labels poloto_text poloto_xname" x="400" y="481.25" >Number of Elements</text><text  class="poloto_labels poloto_text poloto_yname" transform="rotate(-90,37.5,250)" x="37.5" y="250" >Time in Seconds</text><text  class="poloto_tick_labels poloto_text" dominant-baseline="middle" text-anchor="start" x="150" y="70" ></text><line  class="poloto_axis_lines" stroke="black" x1="150" x2="144" y1="400" y2="400" /><text  class="poloto_tick_labels poloto_text" dominant-baseline="middle" text-anchor="end" x="135" y="400" >0e0</text><line  class="poloto_axis_lines" stroke="black" x1="150" x2="144" y1="332.84072753192135" y2="332.84072753192135" /><text  class="poloto_tick_labels poloto_text" dominant-baseline="middle" text-anchor="end" x="135" y="332.84072753192135" >0.001</text><line  class="poloto_axis_lines" stroke="black" x1="150" x2="144" y1="265.6814550638427" y2="265.6814550638427" /><text  class="poloto_tick_labels poloto_text" dominant-baseline="middle" text-anchor="end" x="135" y="265.6814550638427" >0.002</text><line  class="poloto_axis_lines" stroke="black" x1="150" x2="144" y1="198.5221825957641" y2="198.5221825957641" /><text  class="poloto_tick_labels poloto_text" dominant-baseline="middle" text-anchor="end" x="135" y="198.5221825957641" >0.003</text><line  class="poloto_axis_lines" stroke="black" x1="150" x2="144" y1="131.36291012768544" y2="131.36291012768544" /><text  class="poloto_tick_labels poloto_text" dominant-baseline="middle" text-anchor="end" x="135" y="131.36291012768544" >0.004</text><text  class="poloto_tick_labels poloto_text" dominant-baseline="middle" text-anchor="start" x="440.00000000000006" y="70" ></text><line  class="poloto_axis_lines" stroke="black" x1="183.67003367003366" x2="183.67003367003366" y1="400" y2="405" /><text  class="poloto_tick_labels poloto_text" dominant-baseline="start" text-anchor="middle" x="183.67003367003366" y="430" >6000</text><line  class="poloto_axis_lines" stroke="black" x1="251.01010101010098" x2="251.01010101010098" y1="400" y2="405" /><text  class="poloto_tick_labels poloto_text" dominant-baseline="start" text-anchor="middle" x="251.01010101010098" y="430" >8000</text><line  class="poloto_axis_lines" stroke="black" x1="318.35016835016836" x2="318.35016835016836" y1="400" y2="405" /><text  class="poloto_tick_labels poloto_text" dominant-baseline="start" text-anchor="middle" x="318.35016835016836" y="430" >10000</text><line  class="poloto_axis_lines" stroke="black" x1="385.6902356902357" x2="385.6902356902357" y1="400" y2="405" /><text  class="poloto_tick_labels poloto_text" dominant-baseline="start" text-anchor="middle" x="385.6902356902357" y="430" >12000</text><line  class="poloto_axis_lines" stroke="black" x1="453.030303030303" x2="453.030303030303" y1="400" y2="405" /><text  class="poloto_tick_labels poloto_text" dominant-baseline="start" text-anchor="middle" x="453.030303030303" y="430" >14000</text><line  class="poloto_axis_lines" stroke="black" x1="520.3703703703703" x2="520.3703703703703" y1="400" y2="405" /><text  class="poloto_tick_labels poloto_text" dominant-baseline="start" text-anchor="middle" x="520.3703703703703" y="430" >16000</text><line  class="poloto_axis_lines" stroke="black" x1="587.7104377104376" x2="587.7104377104376" y1="400" y2="405" /><text  class="poloto_tick_labels poloto_text" dominant-baseline="start" text-anchor="middle" x="587.7104377104376" y="430" >18000</text><path  stroke="black" fill="none" class="poloto_axis_lines" style="stroke-dasharray:8.417508417508417;stroke-dashoffset:-33.67003367003366;" d=" M 150 400 L 650 400" /><path  stroke="black" fill="none" class="poloto_axis_lines" style="stroke-dasharray:6.715927246807864;stroke-dashoffset:-0;" d=" M 150 400 L 150 100.00000000000006" /></svg>