<svg  width="800" class="poloto" height="500" viewBox="0 0 800 500" xmlns="http://www.w3.org/2000/svg" ><rect  class="poloto_background" fill="white" x="0" y="0" width="800" height="500" /><text  class="poloto_text" alignment-baseline="middle" text-anchor="start" font-size="large" x="675" y="100" >float</text><line  class="poloto0stroke" stroke="black" x1="680" x2="730" y1="81.25" y2="81.25" /><path  class="poloto0stroke" fill="none" stroke="black" d=" M 150 399.4438979094544 L 155 389.0304020219385 L 160 383.26755198763493 L 165 373.02986183945933 L 170 379.29824578697094 L 175 385.54164136614907 L 180 382.19364358996603 L 185 382.0298145242057 L 190 379.1701988817828 L 195 377.8847025842014 L 200 373.6325398828159 L 205 371.225524213581 L 210 367.51083322161674 L 215 363.3602504554093 L 220 362.4964513559763 L 225 358.3179230180823 L 230 357.3061158908279 L 235 354.4889361165217 L 240 352.1227298535593 L 245 350.5320501699406 L 250 345.0060721242183 L 255 340.71694438091936 L 260 338.4684348114093 L 265 335.86727874204513 L 270 335.3880639386794 L 275 330.6342116884448 L 280 328.9960688910093 L 285 326.4811152993873 L 290 319.58018555465304 L 295 313.4638018594895 L 300 316.30922292581755 L 305 311.1279069308961 L 310 309.8094378159279 L 315 307.8093333280761 L 320 305.1896947377552 L 325 301.29978944712127 L 330 296.89192998919634 L 335 296.4569253759591 L 340 292.4647008493088 L 345 287.6975411839854 L 350 288.0368802687506 L 355 284.33046944617496 L 360 276.18366992879055 L 365 274.1887405468066 L 370 273.1446999030037 L 375 270.0839944325718 L 380 266.4785721045036 L 385 264.8034642651547 L 390 259.7299383324528 L 395 257.3616620271432 L 400 255.54963567254688 L 405 251.01506005094274 L 410 250.8426550954585 L 415 247.58795708506494 L 420 245.36236584154122 L 425 239.29965538723587 L 430 237.74490572435707 L 435 237.59955917955347 L 440 232.623620957503 L 445 234.214152780954 L 450 228.78753676789498 L 455 225.43303314433516 L 460 222.35768951730554 L 465 221.02413866523665 L 470 216.67956335906754 L 475 211.4405818987611 L 480 208.83558146503793 L 485 206.56504073054748 L 490 205.55545150580792 L 495 199.05537067558294 L 500 198.22173505035127 L 505 195.1805471220497 L 510 186.001387914107 L 515 182.30340512108756 L 520 178.6085273915889 L 525 179.08803791528987 L 530 179.16300302029032 L 535 170.81600083590277 L 540 164.89937622723934 L 545 161.81752675283298 L 550 155.9888789439235 L 555 157.99474997831382 L 560 159.51711826447647 L 565 155.3081307320458 L 570 148.83259468965136 L 575 147.32575172109233 L 580 146.4338591898051 L 585 143.284437618781 L 590 139.10679644189287 L 595 132.0285823561419 L 600 131.8387299008745 L 605 124.8681580171754 L 610 125.14465653068788 L 615 122.61521264263575 L 620 117.04487654661733 L 625 117.41142190223087 L 630 114.60666238200758 L 635 110.54878794091906 L 640 105.18249887626268 L 645 106.72246252237619 L 650 100" /><text  class="poloto_text" alignment-baseline="middle" text-anchor="start" font-size="large" x="675" y="150" >float_i32</text><line  class="poloto1stroke" stroke="black" x1="680" x2="730" y1="131.25" y2="131.25" /><path  class="poloto1stroke" fill="none" stroke="black" d=" M 150 399.3556253893651 L 155 392.9538715706299 L 160 381.71235874425315 L 165 371.462100481827 L 170 367.21422572530344 L 175 387.1855507101231 L 180 383.2626726021024 L 185 382.6061734577199 L 190 379.69658107863006 L 195 378.20748133018947 L 200 374.36903137789903 L 205 369.7915763076753 L 210 368.58755096247114 L 215 363.9096988384105 L 220 362.4268092170114 L 225 359.7851394617101 L 230 357.8205214140952 L 235 354.17576828143115 L 240 351.1608994629719 L 245 348.5357900464478 L 250 346.3768837385359 L 255 343.7819377962132 L 260 342.40299387267464 L 265 338.22047331025396 L 270 336.0979406035849 L 275 334.53875513567647 L 280 331.2127885244738 L 285 330.47659274972597 L 290 326.30176091602334 L 295 322.25734175019124 L 300 321.3474102784503 L 305 318.2325879866571 L 310 314.74294016986175 L 315 313.0265793437374 L 320 310.226551348879 L 325 308.22452467884773 L 330 304.902402432004 L 335 301.92730799864364 L 340 297.8114723718348 L 345 294.3244860380572 L 350 292.717393875829 L 355 287.9523042528527 L 360 282.03952400854826 L 365 283.74376030092503 L 370 280.9194832385714 L 375 279.04195482970454 L 380 275.84240866184575 L 385 272.30189694737754 L 390 267.1179194694383 L 395 264.44150257473837 L 400 265.0576358933514 L 405 261.4650773998691 L 410 259.82412525924815 L 415 256.9778170319141 L 420 253.84539938017016 L 425 250.81086515941294 L 430 248.86088526839575 L 435 244.62069924059017 L 440 243.1836462711637 L 445 243.012719917356 L 450 235.43222484208533 L 455 232.2671300932899 L 460 235.10190522754692 L 465 230.9125830974142 L 470 220.80234841375608 L 475 221.60301122160095 L 480 222.44581417722716 L 485 215.68978739679358 L 490 217.06917490083507 L 495 211.1482623473097 L 500 209.5884854387307 L 505 205.44973148593553 L 510 202.97366511840642 L 515 198.98528495611507 L 520 194.65934003107031 L 525 194.0498604200017 L 530 189.03222563067288 L 535 185.32404048608535 L 540 181.30697545126918 L 545 178.86048111727084 L 550 177.73822244477913 L 555 171.14853835295597 L 560 173.1857557428889 L 565 167.15971461016173 L 570 163.5550315829318 L 575 159.92994385256563 L 580 157.8945007846446 L 585 155.073624506147 L 590 151.4676107374082 L 595 148.12478806709302 L 600 145.4071181856177 L 605 141.19546917016925 L 610 138.64842992216637 L 615 135.09372363160338 L 620 137.45431120819495 L 625 135.85165485099634 L 630 134.88405791387044 L 635 129.14442192588848 L 640 120.0551616998793 L 645 117.60437942101896 L 650 116.07550528747959" /><text  class="poloto_text" alignment-baseline="middle" text-anchor="start" font-size="large" x="675" y="200" >float_par</text><line  class="poloto2stroke" stroke="black" x1="680" x2="730" y1="181.25" y2="181.25" /><path  class="poloto2stroke" fill="none" stroke="black" d=" M 150 399.7480462743181 L 155 394.934606376519 L 160 385.41270729995506 L 165 373.9496999424331 L 170 388.96637856934444 L 175 388.3509845515697 L 180 384.27714121237454 L 185 383.0018472663612 L 190 380.2334613473807 L 195 378.9608288843852 L 200 373.406609546641 L 205 371.73963401651304 L 210 362.32685574367747 L 215 357.2533298109756 L 220 363.5795270840398 L 225 360.32586409481974 L 230 358.587472103715 L 235 356.8245353247798 L 240 351.7403634600068 L 245 348.90263112239666 L 250 345.12657816085607 L 255 309.17822276021417 L 260 334.90042110575746 L 265 335.0068804264681 L 270 334.5309185467908 L 275 338.50998351851996 L 280 333.3548387732732 L 285 328.6165118406422 L 290 321.952158364154 L 295 327.8152575921267 L 300 319.25651964765905 L 305 318.65044082044653 L 310 319.0396087817111 L 315 313.3648834073291 L 320 311.19444400634023 L 325 313.42018311003164 L 330 306.86642903894835 L 335 310.9988250045344 L 340 303.0516367134825 L 345 297.00918310214576 L 350 271.46131189426615 L 355 308.11673461662815 L 360 323.4507211633244 L 365 317.51531831336894 L 370 324.5933845389523 L 375 329.69899612803505 L 380 311.21130006545275 L 385 315.6817043742952 L 390 309.1465806843363 L 395 312.0187644410097 L 400 311.95636745025985 L 405 283.3785456868203 L 410 302.09261566608046 L 415 315.3877583609996 L 420 306.3416733039453 L 425 298.73722488151475 L 430 298.92559873510555 L 435 298.59912348492617 L 440 288.30776009589226 L 445 284.10971421586794 L 450 304.6109700415586 L 455 295.93586614514743 L 460 300.28014573098125 L 465 292.44119108265187 L 470 297.0977513425703 L 475 288.47158916165256 L 480 290.95283063504957 L 485 280.5248444511036 L 490 291.8404352214748 L 495 289.42706156503084 L 500 263.5277267386384 L 505 300.32420806094206 L 510 287.3688480312912 L 515 284.7728670677949 L 520 281.46227791402816 L 525 278.3856035454897 L 530 278.8565381794667 L 535 275.7554668832654 L 540 273.68926890047237 L 545 272.13156203424046 L 550 280.3165094748795 L 555 273.56166557578723 L 560 268.65049010716905 L 565 262.21872067440006 L 570 265.59200253925195 L 575 263.20021646728543 L 580 257.36506281099923 L 585 260.9012865806055 L 590 255.95506825225337 L 595 259.24111261818956 L 600 259.0138515405058 L 605 266.3480115764654 L 610 252.267731391305 L 615 263.3551739229865 L 620 255.55835942243846 L 625 250.54796978132464 L 630 249.77007743929846 L 635 247.34147418558618 L 640 254.22332996869304 L 645 242.65223682861625 L 650 234.21459636145696" /><text  class="poloto_text" alignment-baseline="middle" text-anchor="start" font-size="large" x="675" y="250" >i64</text><line  class="poloto3stroke" stroke="black" x1="680" x2="730" y1="231.25" y2="231.25" /><path  class="poloto3stroke" fill="none" stroke="black" d=" M 150 399.39835697781706 L 155 393.4517167551199 L 160 384.8703562050012 L 165 368.740881956328 L 170 370.8666675866855 L 175 388.1438324566868 L 180 380.57487047449314 L 185 383.1986491495083 L 190 379.98830918941087 L 195 378.7368207303898 L 200 377.08226545434474 L 205 372.6294565054531 L 210 371.06613095285036 L 215 354.76987043506375 L 220 365.3786896040502 L 225 362.4331672042205 L 230 360.5114286052252 L 235 358.260405412865 L 240 356.2089934468374 L 245 352.66936889337506 L 250 350.3654117609949 L 255 346.28254895157283 L 260 344.8617606005883 L 265 340.27499033980234 L 270 337.41271321436176 L 275 334.2456962833868 L 280 333.2377335204915 L 285 329.4551747115741 L 290 326.65839964040407 L 295 325.93358909856556 L 300 322.26710052125634 L 305 317.07927867895813 L 310 315.07089402171766 L 315 311.3712847668541 L 320 309.4899119936282 L 325 307.3778773588625 L 330 302.1529426144832 L 335 302.1870983132112 L 340 295.27537477623827 L 345 293.7166328888328 L 350 292.4682494933325 L 355 290.57874441088563 L 360 287.48255250021685 L 365 279.64847723742 L 370 284.6050457775079 L 375 272.9307462404088 L 380 272.8327149492544 L 385 267.54789683697527 L 390 273.8464442586883 L 395 264.72110615177155 L 400 261.58942780086585 L 405 265.59392472143145 L 410 252.20755230306995 L 415 262.6257797159508 L 420 248.98153916520118 L 425 255.3699855688476 L 430 244.94806165177548 L 435 240.2110654606534 L 440 239.97936857794002 L 445 242.92149019391366 L 450 235.55923672609987 L 455 234.60465148372748 L 460 228.43252450535843 L 465 227.17630452097245 L 470 231.8594796110686 L 475 214.52612787735885 L 480 215.6881609349494 L 485 213.16167425025034 L 490 219.9644248436625 L 495 214.80765363657153 L 500 213.93764441009705 L 505 205.05908492299437 L 510 191.43584051605168 L 515 185.62050012223102 L 520 184.24066903768656 L 525 184.11306571300142 L 530 196.1720974063355 L 535 177.43052543589172 L 540 192.5845661585534 L 545 170.981160643172 L 550 186.03169924847603 L 555 169.61552413472225 L 560 183.20342996159576 L 565 168.52372465676723 L 570 163.30500003942936 L 575 151.4497196571221 L 580 146.60463768344516 L 585 142.49885654803677 L 590 135.70054175965424 L 595 136.47843410168048 L 600 130.0604156645033 L 605 131.26163166652208 L 610 118.41302667791717 L 615 138.67696693452353 L 620 136.35053505665996 L 625 117.88827094291412 L 630 114.41651420640488 L 635 109.77976720895202 L 640 127.87652098825788 L 645 116.96089197139003 L 650 101.69166817812612" /><text  class="poloto_text" alignment-baseline="middle" text-anchor="start" font-size="large" x="675" y="300" >i64_par</text><line  class="poloto4stroke" stroke="black" x1="680" x2="730" y1="281.25" y2="281.25" /><path  class="poloto4stroke" fill="none" stroke="black" d=" M 150 399.82611644283924 L 155 394.85890197068034 L 160 381.1036184340228 L 165 375.06353058536854 L 170 391.8480253767477 L 175 387.3822047331025 L 180 384.86429393812745 L 185 384.09882185018415 L 190 380.8305207043664 L 195 377.6555193243382 L 200 377.30316854481936 L 205 371.918544819374 L 210 365.7969860183425 L 215 364.06909209914124 L 220 365.22580219069624 L 225 362.0802249840311 L 230 360.39047898808445 L 235 356.61634820872337 L 240 355.410252821172 L 245 350.5944471606905 L 250 352.35960184214053 L 255 337.79286170539945 L 260 345.123620957503 L 265 340.36843796575954 L 270 336.2248046274318 L 275 334.5230819579052 L 280 333.46765608119296 L 285 332.4520045895796 L 290 333.1012585857471 L 295 328.1823943884109 L 300 326.9937465006427 L 305 321.1887563185578 L 310 320.4391052685535 L 315 320.4473854379421 L 320 318.46916425490303 L 325 319.5376018263688 L 330 318.55152236828616 L 335 315.31353255683746 L 340 312.54455519718636 L 345 306.1606924587372 L 350 308.95658036890126 L 355 305.04360889211335 L 360 332.1125176446467 L 365 331.72645474690285 L 370 333.10332862809423 L 375 303.5459332539489 L 380 331.6608048324646 L 385 328.11127364776945 L 390 329.89032718497896 L 395 328.4726438975151 L 400 327.500463295192 L 405 322.1019407139872 L 410 324.0489634016513 L 415 325.7505382110103 L 420 323.55333611967603 L 425 320.50475518299174 L 430 319.1005271707844 L 435 316.29813341324353 L 440 312.425971342728 L 445 318.32411343043475 L 450 310.7875328249572 L 455 315.72428810257946 L 460 314.0386821913271 L 465 315.64488719254945 L 470 313.79678295704565 L 475 308.7395216427856 L 480 308.5487820265123 L 485 301.2433068630775 L 490 316.0642186280154 L 495 314.6771423952558 L 500 311.2498915692104 L 505 307.3617606005883 L 510 303.51621336025045 L 515 305.2241461568185 L 520 306.5687865214614 L 525 300.09191973755804 L 530 299.66963109873905 L 535 300.8643412533811 L 540 303.3071390831881 L 545 297.78840618568086 L 550 298.9730618489224 L 555 299.1509376306098 L 560 299.15152907128044 L 565 289.06997926014714 L 570 287.08776585258147 L 575 291.72687861271675 L 580 282.15662926133 L 585 288.1530983605264 L 590 283.94233650608396 L 595 278.14119068835805 L 600 283.18144808333795 L 605 279.6805628938009 L 610 273.0942795858338 L 615 278.47505894692017 L 620 269.09140912711246 L 625 272.6122554392827 L 630 275.2712248341995 L 635 274.2753866050517 L 640 266.5440741587742 L 645 270.10011119084606 L 650 265.04698996128036" /><text  class="poloto_text" alignment-baseline="middle" text-anchor="start" font-size="large" x="675" y="350" >int</text><line  class="poloto5stroke" stroke="black" x1="680" x2="730" y1="331.25" y2="331.25" /><path  class="poloto5stroke" fill="none" stroke="black" d=" M 150 398.64826234730975 L 155 393.4412186832165 L 160 386.19932339187284 L 165 377.17349517778706 L 170 370.1712812182101 L 175 389.0333592252916 L 180 378.2259638511462 L 185 381.23521398323464 L 190 381.5541483648637 L 195 377.9247726896356 L 200 377.6175192612512 L 205 372.63463161132097 L 210 369.5119727306421 L 215 363.1304757548754 L 220 366.22918128839433 L 225 364.46003438241763 L 230 361.86671490193913 L 235 358.85613402834184 L 240 357.8135719862155 L 245 354.41308385051536 L 250 353.7525924816062 L 255 345.42185491566056 L 260 341.8057866555213 L 265 338.8710580479303 L 270 336.31706937204774 L 275 336.4423069340504 L 280 333.2572510626217 L 285 330.4295732164121 L 290 328.1701219944956 L 295 322.4535521926677 L 300 321.453426018658 L 305 319.90414718198235 L 310 316.4236666955816 L 315 317.0837144839877 L 320 315.7571130597986 L 325 312.8942444936873 L 330 309.4334294095845 L 335 308.10948946841313 L 340 303.4952172164436 L 345 302.4854801315364 L 350 301.3856962045281 L 355 298.2347960318274 L 360 293.56226687380234 L 365 289.5622057582664 L 370 283.91453879456503 L 375 283.744203881428 L 380 284.33934105623416 L 385 279.0835035368152 L 390 270.8027427075365 L 395 272.5078661609192 L 400 267.486091286896 L 405 271.25844774424525 L 410 267.0318648518638 L 415 258.57588972391545 L 420 259.0151822820147 L 425 254.10607685574365 L 430 255.00861531910195 L 435 251.917598514301 L 440 245.2823734908405 L 445 245.04224857857088 L 450 241.67295893824567 L 455 241.87641452893718 L 460 235.49964907853544 L 465 236.14964237554113 L 470 233.12693696819622 L 475 233.6061517715619 L 480 233.02920139737714 L 485 224.48835453319558 L 490 224.62379444676637 L 495 222.2147087351844 L 500 222.81132451166712 L 505 214.84491439882024 L 510 213.85262481369617 L 515 209.45393268616579 L 520 203.77255360423942 L 525 203.58787625483993 L 530 204.4317142316397 L 535 197.10199000070972 L 540 194.74036740294454 L 545 189.55151053947273 L 550 187.3003394869449 L 555 188.3468937535979 L 560 188.5459135392598 L 565 174.46725981594363 L 570 174.07395176998475 L 575 172.92315608513587 L 580 161.37483341087776 L 585 168.63328904099862 L 590 161.10173568122133 L 595 161.2565452767548 L 600 156.7907246331096 L 605 150.98410798918053 L 610 147.46740176170456 L 615 151.14867635577912 L 620 149.37745940745526 L 625 143.4309670449258 L 630 144.19215118800713 L 635 136.6909091625988 L 640 136.52663651633554 L 645 131.19524245124552 L 650 130.19408125606225" /><text  class="poloto_text" alignment-baseline="middle" text-anchor="start" font-size="large" x="675" y="400" >int_par</text><line  class="poloto6stroke" stroke="black" x1="680" x2="730" y1="381.25" y2="381.25" /><path  class="poloto6stroke" fill="none" stroke="black" d=" M 150 400 L 155 396.73081169317635 L 160 387.7243531610532 L 165 379.6424642572688 L 170 390.33201507779415 L 175 389.89287037986264 L 180 384.57596661120266 L 185 382.7498935406793 L 190 378.01141874788067 L 195 379.49667413196227 L 200 375.1189781482387 L 205 369.2344391959561 L 210 369.6607200593018 L 215 364.4020731966974 L 220 365.0445256251528 L 225 361.80446577135694 L 230 360.55430805384475 L 235 356.4251650119471 L 240 352.1018815699201 L 245 350.92875899975553 L 250 346.9794139217248 L 255 342.4584414355448 L 260 341.6361910432225 L 265 339.73988439306356 L 270 339.2149807978929 L 275 337.2105883651791 L 280 335.5368112673391 L 285 332.0807277086011 L 290 327.0240578350117 L 295 324.92858353902324 L 300 325.5494483830012 L 305 324.220333335962 L 310 322.04531026977577 L 315 320.3292451639868 L 320 318.233918728166 L 325 316.14509813972194 L 330 312.0354726399546 L 335 306.78333162472694 L 340 307.2560405807159 L 345 305.47136835713553 L 350 305.17623946249876 L 355 302.0552070436641 L 360 330.69217287416507 L 365 328.9503800992043 L 370 331.621769748204 L 375 329.03702615744936 L 380 327.15284404103807 L 385 322.096026307281 L 390 324.3327070633788 L 395 318.48572459368023 L 400 319.93904218154864 L 405 322.1010535529813 L 410 317.2225551814146 L 415 317.8249375044358 L 420 317.28909225685874 L 425 313.15802703278155 L 430 313.8732266637226 L 435 314.108767910795 L 440 310.43089410057644 L 445 316.7054881751295 L 450 308.93868928861514 L 455 307.0824527438904 L 460 308.72503134635554 L 465 306.269221821795 L 470 303.3671703112555 L 475 304.8098419670528 L 480 302.2094251985269 L 485 300.42430939444364 L 490 302.7899242167354 L 495 307.8170220567941 L 500 306.660755545742 L 505 304.05531153151594 L 510 303.5244935296391 L 515 299.5841679218352 L 520 297.12037394822136 L 525 300.30469051881175 L 530 296.5027620279318 L 535 296.66703467419507 L 540 291.84605390784566 L 545 289.7307663493916 L 550 294.72858787625484 L 555 292.2232451955303 L 560 289.77408937851413 L 565 285.96417643858086 L 570 282.40192927946754 L 575 284.4718237664519 L 580 283.4399076563966 L 585 286.8639055587537 L 590 283.8689978629277 L 595 279.7624774266811 L 600 279.2557606321318 L 605 274.465682640822 L 610 254.28010827307207 L 615 271.81218407210844 L 620 272.6336951635925 L 625 265.43127853701236 L 630 276.2751953725682 L 635 271.15819855057606 L 640 265.3642978810652 L 645 267.26563177692435 L 650 268.66276250108433" /><text  class="poloto_text" alignment-baseline="start" text-anchor="middle" font-size="x-large" x="400" y="37.5" >Bench of differing number types With abspiral(x,1.5)</text><text  class="poloto_text" alignment-baseline="start" text-anchor="middle" font-size="x-large" x="400" y="481.25" >Number of Elements</text><text  class="poloto_text" alignment-baseline="start" text-anchor="middle" font-size="x-large" transform="rotate(-90,37.5,250)" x="37.5" y="250" >Time in Seconds</text><path  stroke="black" fill="none" class="poloto_axis_lines" d=" M 150 100 L 150 400 L 650 400" /><line  class="poloto_axis_lines" stroke="black" x1="250.50505050505052" x2="250.50505050505052" y1="400" y2="405" /><text  class="poloto_text" alignment-baseline="start" text-anchor="middle" x="250.50505050505052" y="430" > 2000</text><line  class="poloto_axis_lines" stroke="black" x1="351.5151515151515" x2="351.5151515151515" y1="400" y2="405" /><text  class="poloto_text" alignment-baseline="start" text-anchor="middle" x="351.5151515151515" y="430" > 4000</text><line  class="poloto_axis_lines" stroke="black" x1="452.52525252525254" x2="452.52525252525254" y1="400" y2="405" /><text  class="poloto_text" alignment-baseline="start" text-anchor="middle" x="452.52525252525254" y="430" > 6000</text><line  class="poloto_axis_lines" stroke="black" x1="553.5353535353536" x2="553.5353535353536" y1="400" y2="405" /><text  class="poloto_text" alignment-baseline="start" text-anchor="middle" x="553.5353535353536" y="430" > 8000</text><line  class="poloto_axis_lines" stroke="black" x1="150" x2="144" y1="326.32985434787753" y2="326.32985434787753" /><text  class="poloto_text" alignment-baseline="middle" text-anchor="end" x="135" y="326.32985434787753" > 0.0005</text><line  class="poloto_axis_lines" stroke="black" x1="150" x2="144" y1="252.39977052101983" y2="252.39977052101983" /><text  class="poloto_text" alignment-baseline="middle" text-anchor="end" x="135" y="252.39977052101983" > 0.0010</text><line  class="poloto_axis_lines" stroke="black" x1="150" x2="144" y1="178.46968669416208" y2="178.46968669416208" /><text  class="poloto_text" alignment-baseline="middle" text-anchor="end" x="135" y="178.46968669416208" > 0.0015</text><line  class="poloto_axis_lines" stroke="black" x1="150" x2="144" y1="104.53960286730438" y2="104.53960286730438" /><text  class="poloto_text" alignment-baseline="middle" text-anchor="end" x="135" y="104.53960286730438" > 0.0020</text></svg>