<svg class="poloto" width="800" height="500" viewBox="0 0 800 500" xmlns="http://www.w3.org/2000/svg"><circle  r="1e5" class="poloto_background" /><text  class="poloto_text poloto_legend_text" x="675" y="100" ></text><path  class="poloto_scatter poloto0stroke" d=" M 150.00 101.62 h 0 M 150.00 102.05 h 0 M 150.00 103.97 h 0 M 150.00 101.73 h 0 M 150.00 101.89 h 0 M 150.00 101.80 h 0 M 150.00 100.95 h 0 M 150.00 102.50 h 0 M 150.00 101.69 h 0 M 150.00 102.34 h 0 M 150.00 102.19 h 0 M 150.00 100.23 h 0 M 150.00 102.18 h 0 M 150.00 101.22 h 0 M 150.00 103.71 h 0 M 150.00 100.74 h 0 M 150.00 100.00 h 0 M 150.00 103.24 h 0 M 150.00 102.38 h 0 M 150.00 102.29 h 0 M 200.00 217.31 h 0 M 200.00 216.33 h 0 M 200.00 217.20 h 0 M 200.00 217.19 h 0 M 200.00 215.69 h 0 M 200.00 215.80 h 0 M 200.00 216.88 h 0 M 200.00 217.35 h 0 M 200.00 215.84 h 0 M 200.00 217.24 h 0 M 200.00 217.48 h 0 M 200.00 214.76 h 0 M 200.00 215.54 h 0 M 200.00 216.73 h 0 M 200.00 216.47 h 0 M 200.00 216.54 h 0 M 200.00 215.34 h 0 M 200.00 218.24 h 0 M 200.00 217.00 h 0 M 200.00 217.63 h 0 M 250.00 221.32 h 0 M 250.00 220.48 h 0 M 250.00 221.37 h 0 M 250.00 221.49 h 0 M 250.00 221.21 h 0 M 250.00 221.51 h 0 M 250.00 222.05 h 0 M 250.00 221.73 h 0 M 250.00 221.48 h 0 M 250.00 221.81 h 0 M 250.00 221.63 h 0 M 250.00 221.69 h 0 M 250.00 221.54 h 0 M 250.00 221.26 h 0 M 250.00 222.07 h 0 M 250.00 219.96 h 0 M 250.00 217.74 h 0 M 250.00 220.37 h 0 M 250.00 216.83 h 0 M 250.00 220.27 h 0 M 300.00 267.18 h 0 M 300.00 269.47 h 0 M 300.00 268.62 h 0 M 300.00 270.11 h 0 M 300.00 267.99 h 0 M 300.00 268.55 h 0 M 300.00 269.15 h 0 M 300.00 268.07 h 0 M 300.00 266.92 h 0 M 300.00 269.35 h 0 M 300.00 267.59 h 0 M 300.00 267.32 h 0 M 300.00 267.71 h 0 M 300.00 268.00 h 0 M 300.00 268.79 h 0 M 300.00 269.07 h 0 M 300.00 269.42 h 0 M 300.00 267.53 h 0 M 300.00 268.83 h 0 M 300.00 268.18 h 0 M 350.00 275.55 h 0 M 350.00 276.15 h 0 M 350.00 274.21 h 0 M 350.00 272.79 h 0 M 350.00 274.99 h 0 M 350.00 274.62 h 0 M 350.00 276.95 h 0 M 350.00 276.35 h 0 M 350.00 276.85 h 0 M 350.00 276.48 h 0 M 350.00 276.72 h 0 M 350.00 275.08 h 0 M 350.00 277.87 h 0 M 350.00 277.07 h 0 M 350.00 273.66 h 0 M 350.00 273.77 h 0 M 350.00 272.95 h 0 M 350.00 274.30 h 0 M 350.00 276.38 h 0 M 350.00 276.28 h 0 M 400.00 293.41 h 0 M 400.00 293.06 h 0 M 400.00 293.16 h 0 M 400.00 292.94 h 0 M 400.00 291.84 h 0 M 400.00 293.67 h 0 M 400.00 295.45 h 0 M 400.00 296.19 h 0 M 400.00 293.90 h 0 M 400.00 292.47 h 0 M 400.00 291.22 h 0 M 400.00 292.87 h 0 M 400.00 294.27 h 0 M 400.00 295.29 h 0 M 400.00 291.81 h 0 M 400.00 294.05 h 0 M 400.00 292.63 h 0 M 400.00 293.92 h 0 M 400.00 294.33 h 0 M 400.00 294.39 h 0 M 450.00 289.40 h 0 M 450.00 299.05 h 0 M 450.00 300.26 h 0 M 450.00 290.45 h 0 M 450.00 301.62 h 0 M 450.00 301.56 h 0 M 450.00 302.28 h 0 M 450.00 301.13 h 0 M 450.00 300.28 h 0 M 450.00 296.25 h 0 M 450.00 301.05 h 0 M 450.00 297.82 h 0 M 450.00 299.43 h 0 M 450.00 300.65 h 0 M 450.00 297.71 h 0 M 450.00 296.92 h 0 M 450.00 300.65 h 0 M 450.00 301.42 h 0 M 450.00 301.94 h 0 M 450.00 302.00 h 0 M 500.00 299.70 h 0 M 500.00 298.39 h 0 M 500.00 299.03 h 0 M 500.00 298.94 h 0 M 500.00 300.08 h 0 M 500.00 299.23 h 0 M 500.00 299.53 h 0 M 500.00 298.00 h 0 M 500.00 299.33 h 0 M 500.00 299.77 h 0 M 500.00 294.69 h 0 M 500.00 298.53 h 0 M 500.00 300.49 h 0 M 500.00 299.00 h 0 M 500.00 296.12 h 0 M 500.00 300.85 h 0 M 500.00 299.64 h 0 M 500.00 298.81 h 0 M 500.00 297.46 h 0 M 500.00 298.88 h 0 M 550.00 290.08 h 0 M 550.00 291.70 h 0 M 550.00 291.94 h 0 M 550.00 292.18 h 0 M 550.00 296.29 h 0 M 550.00 293.04 h 0 M 550.00 291.74 h 0 M 550.00 292.98 h 0 M 550.00 295.34 h 0 M 550.00 291.93 h 0 M 550.00 292.31 h 0 M 550.00 291.88 h 0 M 550.00 291.79 h 0 M 550.00 291.57 h 0 M 550.00 293.07 h 0 M 550.00 296.83 h 0 M 550.00 292.26 h 0 M 550.00 291.43 h 0 M 550.00 290.12 h 0 M 550.00 291.85 h 0 M 600.00 277.29 h 0 M 600.00 280.17 h 0 M 600.00 278.00 h 0 M 600.00 282.88 h 0 M 600.00 277.78 h 0 M 600.00 279.96 h 0 M 600.00 283.25 h 0 M 600.00 285.73 h 0 M 600.00 277.95 h 0 M 600.00 278.87 h 0 M 600.00 278.50 h 0 M 600.00 277.72 h 0 M 600.00 284.02 h 0 M 600.00 277.10 h 0 M 600.00 277.23 h 0 M 600.00 278.33 h 0 M 600.00 277.19 h 0 M 600.00 278.13 h 0 M 600.00 277.96 h 0 M 600.00 283.04 h 0 M 650.00 266.87 h 0 M 650.00 260.24 h 0 M 650.00 258.24 h 0 M 650.00 268.86 h 0 M 650.00 271.26 h 0 M 650.00 265.91 h 0 M 650.00 264.31 h 0 M 650.00 270.00 h 0 M 650.00 270.04 h 0 M 650.00 260.72 h 0 M 650.00 268.11 h 0 M 650.00 261.14 h 0 M 650.00 269.57 h 0 M 650.00 271.57 h 0 M 650.00 262.01 h 0 M 650.00 268.81 h 0 M 650.00 259.42 h 0 M 650.00 269.97 h 0 M 650.00 261.34 h 0 M 650.00 262.03 h 0" /><text  class="poloto_labels poloto_text poloto_title" x="400" y="37.5" >Bench of differing num elem per node with abspiral(10000,1.5)</text><text  class="poloto_labels poloto_text poloto_xname" x="400" y="481.25" >Tree Height</text><text  class="poloto_labels poloto_text poloto_yname" transform="rotate(-90,37.5,250)" x="37.5" y="250" >Number of Comparisons</text><text  class="poloto_tick_labels poloto_text" dominant-baseline="middle" text-anchor="start" x="150" y="70" ></text><line  class="poloto_axis_lines" stroke="black" x1="150" x2="144" y1="400" y2="400" /><text  class="poloto_tick_labels poloto_text" dominant-baseline="middle" text-anchor="end" x="135" y="400" >0e0</text><line  class="poloto_axis_lines" stroke="black" x1="150" x2="144" y1="347.72730519970435" y2="347.72730519970435" /><text  class="poloto_tick_labels poloto_text" dominant-baseline="middle" text-anchor="end" x="135" y="347.72730519970435" >0.001</text><line  class="poloto_axis_lines" stroke="black" x1="150" x2="144" y1="295.4546103994087" y2="295.4546103994087" /><text  class="poloto_tick_labels poloto_text" dominant-baseline="middle" text-anchor="end" x="135" y="295.4546103994087" >0.002</text><line  class="poloto_axis_lines" stroke="black" x1="150" x2="144" y1="243.18191559911304" y2="243.18191559911304" /><text  class="poloto_tick_labels poloto_text" dominant-baseline="middle" text-anchor="end" x="135" y="243.18191559911304" >0.003</text><line  class="poloto_axis_lines" stroke="black" x1="150" x2="144" y1="190.9092207988174" y2="190.9092207988174" /><text  class="poloto_tick_labels poloto_text" dominant-baseline="middle" text-anchor="end" x="135" y="190.9092207988174" >0.004</text><line  class="poloto_axis_lines" stroke="black" x1="150" x2="144" y1="138.63652599852173" y2="138.63652599852173" /><text  class="poloto_tick_labels poloto_text" dominant-baseline="middle" text-anchor="end" x="135" y="138.63652599852173" >0.005</text><text  class="poloto_tick_labels poloto_text" dominant-baseline="middle" text-anchor="start" x="440.00000000000006" y="70" ></text><line  class="poloto_axis_lines" stroke="black" x1="150" x2="150" y1="400" y2="405" /><text  class="poloto_tick_labels poloto_text" dominant-baseline="start" text-anchor="middle" x="150" y="430" >2</text><line  class="poloto_axis_lines" stroke="black" x1="250" x2="250" y1="400" y2="405" /><text  class="poloto_tick_labels poloto_text" dominant-baseline="start" text-anchor="middle" x="250" y="430" >4</text><line  class="poloto_axis_lines" stroke="black" x1="350" x2="350" y1="400" y2="405" /><text  class="poloto_tick_labels poloto_text" dominant-baseline="start" text-anchor="middle" x="350" y="430" >6</text><line  class="poloto_axis_lines" stroke="black" x1="450" x2="450" y1="400" y2="405" /><text  class="poloto_tick_labels poloto_text" dominant-baseline="start" text-anchor="middle" x="450" y="430" >8</text><line  class="poloto_axis_lines" stroke="black" x1="550" x2="550" y1="400" y2="405" /><text  class="poloto_tick_labels poloto_text" dominant-baseline="start" text-anchor="middle" x="550" y="430" >10</text><line  class="poloto_axis_lines" stroke="black" x1="650" x2="650" y1="400" y2="405" /><text  class="poloto_tick_labels poloto_text" dominant-baseline="start" text-anchor="middle" x="650" y="430" >12</text><path  stroke="black" fill="none" class="poloto_axis_lines" style="stroke-dasharray:12.5;stroke-dashoffset:-0;" d=" M 150 400 L 650 400" /><path  stroke="black" fill="none" class="poloto_axis_lines" style="stroke-dasharray:13.068173700073915;stroke-dashoffset:-0;" d=" M 150 400 L 150 100" /></svg>