<svg class="poloto" width="800" height="500" viewBox="0 0 800 500" xmlns="http://www.w3.org/2000/svg"><circle  r="1e5" class="poloto_background" /><text  class="poloto_text poloto_legend_text" x="675" y="100" ></text><path  class="poloto_scatter poloto0stroke" d=" M 150.00 106.15 h 0 M 150.00 105.08 h 0 M 150.00 100.00 h 0 M 150.00 105.20 h 0 M 150.00 106.09 h 0 M 150.00 108.39 h 0 M 150.00 109.32 h 0 M 150.00 105.16 h 0 M 150.00 106.74 h 0 M 150.00 105.35 h 0 M 150.00 108.58 h 0 M 150.00 106.99 h 0 M 150.00 109.18 h 0 M 150.00 108.39 h 0 M 150.00 108.60 h 0 M 150.00 107.91 h 0 M 150.00 102.75 h 0 M 150.00 106.63 h 0 M 150.00 105.85 h 0 M 150.00 107.68 h 0 M 200.00 221.02 h 0 M 200.00 221.27 h 0 M 200.00 220.50 h 0 M 200.00 221.20 h 0 M 200.00 220.73 h 0 M 200.00 221.84 h 0 M 200.00 220.76 h 0 M 200.00 220.47 h 0 M 200.00 219.31 h 0 M 200.00 222.03 h 0 M 200.00 220.48 h 0 M 200.00 220.69 h 0 M 200.00 219.41 h 0 M 200.00 220.71 h 0 M 200.00 221.28 h 0 M 200.00 218.77 h 0 M 200.00 221.18 h 0 M 200.00 221.03 h 0 M 200.00 220.76 h 0 M 200.00 220.20 h 0 M 250.00 221.52 h 0 M 250.00 221.57 h 0 M 250.00 221.33 h 0 M 250.00 222.26 h 0 M 250.00 222.00 h 0 M 250.00 222.10 h 0 M 250.00 221.63 h 0 M 250.00 222.10 h 0 M 250.00 222.28 h 0 M 250.00 220.81 h 0 M 250.00 217.04 h 0 M 250.00 218.70 h 0 M 250.00 222.28 h 0 M 250.00 221.64 h 0 M 250.00 220.41 h 0 M 250.00 222.56 h 0 M 250.00 218.96 h 0 M 250.00 222.66 h 0 M 250.00 221.96 h 0 M 250.00 219.95 h 0 M 300.00 267.26 h 0 M 300.00 270.66 h 0 M 300.00 270.88 h 0 M 300.00 270.70 h 0 M 300.00 271.37 h 0 M 300.00 268.78 h 0 M 300.00 268.68 h 0 M 300.00 271.72 h 0 M 300.00 271.76 h 0 M 300.00 269.56 h 0 M 300.00 270.99 h 0 M 300.00 270.20 h 0 M 300.00 268.76 h 0 M 300.00 271.91 h 0 M 300.00 271.19 h 0 M 300.00 271.49 h 0 M 300.00 270.16 h 0 M 300.00 268.04 h 0 M 300.00 271.30 h 0 M 300.00 271.19 h 0 M 350.00 272.37 h 0 M 350.00 272.58 h 0 M 350.00 272.25 h 0 M 350.00 271.98 h 0 M 350.00 273.72 h 0 M 350.00 274.63 h 0 M 350.00 273.78 h 0 M 350.00 274.89 h 0 M 350.00 275.76 h 0 M 350.00 274.67 h 0 M 350.00 274.04 h 0 M 350.00 274.89 h 0 M 350.00 272.71 h 0 M 350.00 275.04 h 0 M 350.00 274.79 h 0 M 350.00 274.57 h 0 M 350.00 275.33 h 0 M 350.00 273.99 h 0 M 350.00 274.77 h 0 M 350.00 275.72 h 0 M 400.00 289.60 h 0 M 400.00 294.38 h 0 M 400.00 292.29 h 0 M 400.00 292.09 h 0 M 400.00 292.04 h 0 M 400.00 291.32 h 0 M 400.00 292.53 h 0 M 400.00 291.69 h 0 M 400.00 292.85 h 0 M 400.00 296.08 h 0 M 400.00 292.06 h 0 M 400.00 290.50 h 0 M 400.00 293.96 h 0 M 400.00 290.19 h 0 M 400.00 290.42 h 0 M 400.00 290.63 h 0 M 400.00 291.34 h 0 M 400.00 289.91 h 0 M 400.00 290.71 h 0 M 400.00 293.14 h 0 M 450.00 296.58 h 0 M 450.00 298.99 h 0 M 450.00 295.62 h 0 M 450.00 295.53 h 0 M 450.00 295.63 h 0 M 450.00 297.63 h 0 M 450.00 297.10 h 0 M 450.00 297.65 h 0 M 450.00 298.94 h 0 M 450.00 299.64 h 0 M 450.00 295.40 h 0 M 450.00 297.13 h 0 M 450.00 298.35 h 0 M 450.00 298.04 h 0 M 450.00 295.48 h 0 M 450.00 295.32 h 0 M 450.00 295.36 h 0 M 450.00 296.26 h 0 M 450.00 295.99 h 0 M 450.00 297.75 h 0 M 500.00 299.69 h 0 M 500.00 297.88 h 0 M 500.00 297.08 h 0 M 500.00 298.29 h 0 M 500.00 298.13 h 0 M 500.00 297.94 h 0 M 500.00 297.92 h 0 M 500.00 298.24 h 0 M 500.00 298.33 h 0 M 500.00 298.44 h 0 M 500.00 298.04 h 0 M 500.00 298.87 h 0 M 500.00 298.91 h 0 M 500.00 299.07 h 0 M 500.00 299.77 h 0 M 500.00 298.16 h 0 M 500.00 297.79 h 0 M 500.00 298.34 h 0 M 500.00 297.81 h 0 M 500.00 293.63 h 0 M 550.00 289.42 h 0 M 550.00 290.69 h 0 M 550.00 290.60 h 0 M 550.00 294.46 h 0 M 550.00 291.51 h 0 M 550.00 290.58 h 0 M 550.00 291.42 h 0 M 550.00 293.16 h 0 M 550.00 293.44 h 0 M 550.00 293.64 h 0 M 550.00 293.46 h 0 M 550.00 297.65 h 0 M 550.00 291.02 h 0 M 550.00 291.82 h 0 M 550.00 291.13 h 0 M 550.00 290.97 h 0 M 550.00 290.85 h 0 M 550.00 292.03 h 0 M 550.00 290.56 h 0 M 550.00 291.84 h 0 M 600.00 278.91 h 0 M 600.00 284.92 h 0 M 600.00 279.73 h 0 M 600.00 283.94 h 0 M 600.00 279.06 h 0 M 600.00 283.71 h 0 M 600.00 276.02 h 0 M 600.00 280.20 h 0 M 600.00 281.21 h 0 M 600.00 282.31 h 0 M 600.00 279.52 h 0 M 600.00 283.21 h 0 M 600.00 283.43 h 0 M 600.00 279.39 h 0 M 600.00 278.81 h 0 M 600.00 282.83 h 0 M 600.00 279.74 h 0 M 600.00 284.04 h 0 M 600.00 278.74 h 0 M 600.00 279.35 h 0 M 650.00 270.58 h 0 M 650.00 263.37 h 0 M 650.00 270.69 h 0 M 650.00 262.78 h 0 M 650.00 270.68 h 0 M 650.00 262.79 h 0 M 650.00 273.22 h 0 M 650.00 270.09 h 0 M 650.00 269.91 h 0 M 650.00 261.89 h 0 M 650.00 271.03 h 0 M 650.00 262.48 h 0 M 650.00 263.22 h 0 M 650.00 271.12 h 0 M 650.00 263.21 h 0 M 650.00 272.20 h 0 M 650.00 261.80 h 0 M 650.00 270.66 h 0 M 650.00 263.42 h 0 M 650.00 272.48 h 0" /><text  class="poloto_labels poloto_text poloto_title" x="400" y="37.5" >Bench of differing num elem per node with abspiral(10000,1.5)</text><text  class="poloto_labels poloto_text poloto_xname" x="400" y="481.25" >Tree Height</text><text  class="poloto_labels poloto_text poloto_yname" transform="rotate(-90,37.5,250)" x="37.5" y="250" >Number of Comparisons</text><text  class="poloto_tick_labels poloto_text" dominant-baseline="middle" text-anchor="start" x="150" y="70" ></text><line  class="poloto_axis_lines" stroke="black" x1="150" x2="144" y1="400" y2="400" /><text  class="poloto_tick_labels poloto_text" dominant-baseline="middle" text-anchor="end" x="135" y="400" >0e0</text><line  class="poloto_axis_lines" stroke="black" x1="150" x2="144" y1="348.82057003649095" y2="348.82057003649095" /><text  class="poloto_tick_labels poloto_text" dominant-baseline="middle" text-anchor="end" x="135" y="348.82057003649095" >0.001</text><line  class="poloto_axis_lines" stroke="black" x1="150" x2="144" y1="297.6411400729819" y2="297.6411400729819" /><text  class="poloto_tick_labels poloto_text" dominant-baseline="middle" text-anchor="end" x="135" y="297.6411400729819" >0.002</text><line  class="poloto_axis_lines" stroke="black" x1="150" x2="144" y1="246.4617101094728" y2="246.4617101094728" /><text  class="poloto_tick_labels poloto_text" dominant-baseline="middle" text-anchor="end" x="135" y="246.4617101094728" >0.003</text><line  class="poloto_axis_lines" stroke="black" x1="150" x2="144" y1="195.28228014596374" y2="195.28228014596374" /><text  class="poloto_tick_labels poloto_text" dominant-baseline="middle" text-anchor="end" x="135" y="195.28228014596374" >0.004</text><line  class="poloto_axis_lines" stroke="black" x1="150" x2="144" y1="144.10285018245466" y2="144.10285018245466" /><text  class="poloto_tick_labels poloto_text" dominant-baseline="middle" text-anchor="end" x="135" y="144.10285018245466" >0.005</text><text  class="poloto_tick_labels poloto_text" dominant-baseline="middle" text-anchor="start" x="440.00000000000006" y="70" ></text><line  class="poloto_axis_lines" stroke="black" x1="150" x2="150" y1="400" y2="405" /><text  class="poloto_tick_labels poloto_text" dominant-baseline="start" text-anchor="middle" x="150" y="430" >2</text><line  class="poloto_axis_lines" stroke="black" x1="250" x2="250" y1="400" y2="405" /><text  class="poloto_tick_labels poloto_text" dominant-baseline="start" text-anchor="middle" x="250" y="430" >4</text><line  class="poloto_axis_lines" stroke="black" x1="350" x2="350" y1="400" y2="405" /><text  class="poloto_tick_labels poloto_text" dominant-baseline="start" text-anchor="middle" x="350" y="430" >6</text><line  class="poloto_axis_lines" stroke="black" x1="450" x2="450" y1="400" y2="405" /><text  class="poloto_tick_labels poloto_text" dominant-baseline="start" text-anchor="middle" x="450" y="430" >8</text><line  class="poloto_axis_lines" stroke="black" x1="550" x2="550" y1="400" y2="405" /><text  class="poloto_tick_labels poloto_text" dominant-baseline="start" text-anchor="middle" x="550" y="430" >10</text><line  class="poloto_axis_lines" stroke="black" x1="650" x2="650" y1="400" y2="405" /><text  class="poloto_tick_labels poloto_text" dominant-baseline="start" text-anchor="middle" x="650" y="430" >12</text><path  stroke="black" fill="none" class="poloto_axis_lines" style="stroke-dasharray:12.5;stroke-dashoffset:-0;" d=" M 150 400 L 650 400" /><path  stroke="black" fill="none" class="poloto_axis_lines" style="stroke-dasharray:12.794857490877266;stroke-dashoffset:-0;" d=" M 150 400 L 150 100" /></svg>