<svg class="poloto" height="500" viewBox="0 0 800 500" width="800" xmlns="http://www.w3.org/2000/svg">
<rect class="poloto_background" fill="white" height="500" width="800" x="0" y="0"/>
<style>
.poloto {
font-family: "Arial";
stroke-width:2;
}
.poloto_text{fill: var(--poloto_fg_color,black);  }
.poloto_axis_lines{stroke: var(--poloto_fg_color,black);stoke-width:3;fill:none}
.poloto_background{fill: var(--poloto_bg_color,aliceblue); }
.poloto0stroke{stroke:  var(--poloto_color0,blue); }
.poloto1stroke{stroke:  var(--poloto_color1,red); }
.poloto2stroke{stroke:  var(--poloto_color2,green); }
.poloto3stroke{stroke:  var(--poloto_color3,gold); }
.poloto4stroke{stroke:  var(--poloto_color4,aqua); }
.poloto5stroke{stroke:  var(--poloto_color5,brown); }
.poloto6stroke{stroke:  var(--poloto_color6,lime); }
.poloto7stroke{stroke:  var(--poloto_color7,chocolate); }
.poloto0fill{fill:var(--poloto_color0,blue);}
.poloto1fill{fill:var(--poloto_color1,red);}
.poloto2fill{fill:var(--poloto_color2,green);}
.poloto3fill{fill:var(--poloto_color3,gold);}
.poloto4fill{fill:var(--poloto_color4,aqua);}
.poloto5fill{fill:var(--poloto_color5,brown);}
.poloto6fill{fill:var(--poloto_color6,lime);}
.poloto7fill{fill:var(--poloto_color7,chocolate);}
</style>
<line class="poloto_axis_lines" stroke="black" x1="150" x2="150" y1="400" y2="405"/>
<text alignment-baseline="start" class="poloto_text" text-anchor="middle" x="150" y="440">
2
</text>
<line class="poloto_axis_lines" stroke="black" x1="250" x2="250" y1="400" y2="405"/>
<text alignment-baseline="start" class="poloto_text" text-anchor="middle" x="250" y="440">
4
</text>
<line class="poloto_axis_lines" stroke="black" x1="350" x2="350" y1="400" y2="405"/>
<text alignment-baseline="start" class="poloto_text" text-anchor="middle" x="350" y="440">
6
</text>
<line class="poloto_axis_lines" stroke="black" x1="450" x2="450" y1="400" y2="405"/>
<text alignment-baseline="start" class="poloto_text" text-anchor="middle" x="450" y="440">
8
</text>
<line class="poloto_axis_lines" stroke="black" x1="550" x2="550" y1="400" y2="405"/>
<text alignment-baseline="start" class="poloto_text" text-anchor="middle" x="550" y="440">
10
</text>
<line class="poloto_axis_lines" stroke="black" x1="650" x2="650" y1="400" y2="405"/>
<text alignment-baseline="start" class="poloto_text" text-anchor="middle" x="650" y="440">
12
</text>
<line class="poloto_axis_lines" stroke="black" x1="150" x2="144" y1="392.87192" y2="392.87192"/>
<text alignment-baseline="middle" class="poloto_text" text-anchor="end" x="120" y="392.87192">
0.004
</text>
<line class="poloto_axis_lines" stroke="black" x1="150" x2="144" y1="332.37592" y2="332.37592"/>
<text alignment-baseline="middle" class="poloto_text" text-anchor="end" x="120" y="332.37592">
0.006
</text>
<line class="poloto_axis_lines" stroke="black" x1="150" x2="144" y1="271.87988" y2="271.87988"/>
<text alignment-baseline="middle" class="poloto_text" text-anchor="end" x="120" y="271.87988">
0.008
</text>
<line class="poloto_axis_lines" stroke="black" x1="150" x2="144" y1="211.38385" y2="211.38385"/>
<text alignment-baseline="middle" class="poloto_text" text-anchor="end" x="120" y="211.38385">
0.010
</text>
<line class="poloto_axis_lines" stroke="black" x1="150" x2="144" y1="150.88783" y2="150.88783"/>
<text alignment-baseline="middle" class="poloto_text" text-anchor="end" x="120" y="150.88783">
0.012
</text>
<text alignment-baseline="middle" class="poloto_text" font-size="large" text-anchor="start" x="675" y="100">
brocc
</text>
<circle class="poloto0fill" cx="685" cy="81.25" r="5"/>
<circle class="poloto0fill" cx="150" cy="100.097015" r="3"/>
<circle class="poloto0fill" cx="150" cy="100" r="3"/>
<circle class="poloto0fill" cx="150" cy="100.59018" r="3"/>
<circle class="poloto0fill" cx="150" cy="101.15405" r="3"/>
<circle class="poloto0fill" cx="150" cy="100.546906" r="3"/>
<circle class="poloto0fill" cx="150" cy="101.01511" r="3"/>
<circle class="poloto0fill" cx="150" cy="100.410736" r="3"/>
<circle class="poloto0fill" cx="150" cy="100.62753" r="3"/>
<circle class="poloto0fill" cx="150" cy="100.980194" r="3"/>
<circle class="poloto0fill" cx="150" cy="100.55032" r="3"/>
<circle class="poloto0fill" cx="150" cy="100.59" r="3"/>
<circle class="poloto0fill" cx="150" cy="100.862976" r="3"/>
<circle class="poloto0fill" cx="150" cy="100.68622" r="3"/>
<circle class="poloto0fill" cx="150" cy="100.74396" r="3"/>
<circle class="poloto0fill" cx="150" cy="100.581726" r="3"/>
<circle class="poloto0fill" cx="150" cy="100.90811" r="3"/>
<circle class="poloto0fill" cx="150" cy="100.66745" r="3"/>
<circle class="poloto0fill" cx="150" cy="100.6286" r="3"/>
<circle class="poloto0fill" cx="150" cy="100.48328" r="3"/>
<circle class="poloto0fill" cx="150" cy="100.12756" r="3"/>
<circle class="poloto0fill" cx="200" cy="262.85706" r="3"/>
<circle class="poloto0fill" cx="200" cy="262.3088" r="3"/>
<circle class="poloto0fill" cx="200" cy="262.93677" r="3"/>
<circle class="poloto0fill" cx="200" cy="262.87665" r="3"/>
<circle class="poloto0fill" cx="200" cy="262.76343" r="3"/>
<circle class="poloto0fill" cx="200" cy="262.7301" r="3"/>
<circle class="poloto0fill" cx="200" cy="262.74747" r="3"/>
<circle class="poloto0fill" cx="200" cy="262.72614" r="3"/>
<circle class="poloto0fill" cx="200" cy="262.42914" r="3"/>
<circle class="poloto0fill" cx="200" cy="262.625" r="3"/>
<circle class="poloto0fill" cx="200" cy="263.09708" r="3"/>
<circle class="poloto0fill" cx="200" cy="262.97937" r="3"/>
<circle class="poloto0fill" cx="200" cy="263.1223" r="3"/>
<circle class="poloto0fill" cx="200" cy="263.03394" r="3"/>
<circle class="poloto0fill" cx="200" cy="262.84253" r="3"/>
<circle class="poloto0fill" cx="200" cy="263.09915" r="3"/>
<circle class="poloto0fill" cx="200" cy="262.61725" r="3"/>
<circle class="poloto0fill" cx="200" cy="262.68457" r="3"/>
<circle class="poloto0fill" cx="200" cy="263.00555" r="3"/>
<circle class="poloto0fill" cx="200" cy="263.00598" r="3"/>
<circle class="poloto0fill" cx="250" cy="276.67786" r="3"/>
<circle class="poloto0fill" cx="250" cy="277.08005" r="3"/>
<circle class="poloto0fill" cx="250" cy="276.39072" r="3"/>
<circle class="poloto0fill" cx="250" cy="276.52805" r="3"/>
<circle class="poloto0fill" cx="250" cy="276.7324" r="3"/>
<circle class="poloto0fill" cx="250" cy="277.01675" r="3"/>
<circle class="poloto0fill" cx="250" cy="276.52808" r="3"/>
<circle class="poloto0fill" cx="250" cy="276.4682" r="3"/>
<circle class="poloto0fill" cx="250" cy="277.17404" r="3"/>
<circle class="poloto0fill" cx="250" cy="276.46854" r="3"/>
<circle class="poloto0fill" cx="250" cy="276.31534" r="3"/>
<circle class="poloto0fill" cx="250" cy="277.0417" r="3"/>
<circle class="poloto0fill" cx="250" cy="276.83847" r="3"/>
<circle class="poloto0fill" cx="250" cy="276.80737" r="3"/>
<circle class="poloto0fill" cx="250" cy="276.23364" r="3"/>
<circle class="poloto0fill" cx="250" cy="276.51294" r="3"/>
<circle class="poloto0fill" cx="250" cy="276.83795" r="3"/>
<circle class="poloto0fill" cx="250" cy="276.9148" r="3"/>
<circle class="poloto0fill" cx="250" cy="276.77338" r="3"/>
<circle class="poloto0fill" cx="250" cy="276.97186" r="3"/>
<circle class="poloto0fill" cx="300" cy="345.42212" r="3"/>
<circle class="poloto0fill" cx="300" cy="345.2878" r="3"/>
<circle class="poloto0fill" cx="300" cy="345.52594" r="3"/>
<circle class="poloto0fill" cx="300" cy="345.4168" r="3"/>
<circle class="poloto0fill" cx="300" cy="345.73083" r="3"/>
<circle class="poloto0fill" cx="300" cy="345.26965" r="3"/>
<circle class="poloto0fill" cx="300" cy="345.69046" r="3"/>
<circle class="poloto0fill" cx="300" cy="345.45813" r="3"/>
<circle class="poloto0fill" cx="300" cy="345.35242" r="3"/>
<circle class="poloto0fill" cx="300" cy="345.23276" r="3"/>
<circle class="poloto0fill" cx="300" cy="345.417" r="3"/>
<circle class="poloto0fill" cx="300" cy="345.4059" r="3"/>
<circle class="poloto0fill" cx="300" cy="345.51608" r="3"/>
<circle class="poloto0fill" cx="300" cy="345.2868" r="3"/>
<circle class="poloto0fill" cx="300" cy="345.44183" r="3"/>
<circle class="poloto0fill" cx="300" cy="345.27014" r="3"/>
<circle class="poloto0fill" cx="300" cy="345.6561" r="3"/>
<circle class="poloto0fill" cx="300" cy="345.50574" r="3"/>
<circle class="poloto0fill" cx="300" cy="345.54572" r="3"/>
<circle class="poloto0fill" cx="300" cy="345.16348" r="3"/>
<circle class="poloto0fill" cx="350" cy="357.8307" r="3"/>
<circle class="poloto0fill" cx="350" cy="358.35925" r="3"/>
<circle class="poloto0fill" cx="350" cy="358.0664" r="3"/>
<circle class="poloto0fill" cx="350" cy="358.04504" r="3"/>
<circle class="poloto0fill" cx="350" cy="358.1875" r="3"/>
<circle class="poloto0fill" cx="350" cy="358.2209" r="3"/>
<circle class="poloto0fill" cx="350" cy="357.68884" r="3"/>
<circle class="poloto0fill" cx="350" cy="357.96146" r="3"/>
<circle class="poloto0fill" cx="350" cy="357.7272" r="3"/>
<circle class="poloto0fill" cx="350" cy="358.18494" r="3"/>
<circle class="poloto0fill" cx="350" cy="358.07687" r="3"/>
<circle class="poloto0fill" cx="350" cy="358.563" r="3"/>
<circle class="poloto0fill" cx="350" cy="357.77557" r="3"/>
<circle class="poloto0fill" cx="350" cy="358.36905" r="3"/>
<circle class="poloto0fill" cx="350" cy="357.90982" r="3"/>
<circle class="poloto0fill" cx="350" cy="358.18042" r="3"/>
<circle class="poloto0fill" cx="350" cy="357.43216" r="3"/>
<circle class="poloto0fill" cx="350" cy="357.50922" r="3"/>
<circle class="poloto0fill" cx="350" cy="358.14487" r="3"/>
<circle class="poloto0fill" cx="350" cy="357.80707" r="3"/>
<circle class="poloto0fill" cx="400" cy="387.88843" r="3"/>
<circle class="poloto0fill" cx="400" cy="387.85846" r="3"/>
<circle class="poloto0fill" cx="400" cy="387.75443" r="3"/>
<circle class="poloto0fill" cx="400" cy="387.8687" r="3"/>
<circle class="poloto0fill" cx="400" cy="387.7755" r="3"/>
<circle class="poloto0fill" cx="400" cy="387.89468" r="3"/>
<circle class="poloto0fill" cx="400" cy="387.83392" r="3"/>
<circle class="poloto0fill" cx="400" cy="387.96558" r="3"/>
<circle class="poloto0fill" cx="400" cy="388.0848" r="3"/>
<circle class="poloto0fill" cx="400" cy="387.9213" r="3"/>
<circle class="poloto0fill" cx="400" cy="387.86346" r="3"/>
<circle class="poloto0fill" cx="400" cy="387.62653" r="3"/>
<circle class="poloto0fill" cx="400" cy="387.68478" r="3"/>
<circle class="poloto0fill" cx="400" cy="387.78992" r="3"/>
<circle class="poloto0fill" cx="400" cy="387.82297" r="3"/>
<circle class="poloto0fill" cx="400" cy="387.74832" r="3"/>
<circle class="poloto0fill" cx="400" cy="387.92957" r="3"/>
<circle class="poloto0fill" cx="400" cy="387.992" r="3"/>
<circle class="poloto0fill" cx="400" cy="387.90344" r="3"/>
<circle class="poloto0fill" cx="400" cy="387.84662" r="3"/>
<circle class="poloto0fill" cx="450" cy="396.94894" r="3"/>
<circle class="poloto0fill" cx="450" cy="395.1777" r="3"/>
<circle class="poloto0fill" cx="450" cy="397.56546" r="3"/>
<circle class="poloto0fill" cx="450" cy="397.0882" r="3"/>
<circle class="poloto0fill" cx="450" cy="397.26578" r="3"/>
<circle class="poloto0fill" cx="450" cy="396.977" r="3"/>
<circle class="poloto0fill" cx="450" cy="397.03256" r="3"/>
<circle class="poloto0fill" cx="450" cy="396.60617" r="3"/>
<circle class="poloto0fill" cx="450" cy="397.34256" r="3"/>
<circle class="poloto0fill" cx="450" cy="396.34155" r="3"/>
<circle class="poloto0fill" cx="450" cy="396.69867" r="3"/>
<circle class="poloto0fill" cx="450" cy="397.26276" r="3"/>
<circle class="poloto0fill" cx="450" cy="397.42157" r="3"/>
<circle class="poloto0fill" cx="450" cy="397.1398" r="3"/>
<circle class="poloto0fill" cx="450" cy="397.3516" r="3"/>
<circle class="poloto0fill" cx="450" cy="396.9192" r="3"/>
<circle class="poloto0fill" cx="450" cy="397.21024" r="3"/>
<circle class="poloto0fill" cx="450" cy="397.1011" r="3"/>
<circle class="poloto0fill" cx="450" cy="397.20465" r="3"/>
<circle class="poloto0fill" cx="450" cy="397.2829" r="3"/>
<circle class="poloto0fill" cx="500" cy="399.95462" r="3"/>
<circle class="poloto0fill" cx="500" cy="399.61298" r="3"/>
<circle class="poloto0fill" cx="500" cy="400" r="3"/>
<circle class="poloto0fill" cx="500" cy="399.84528" r="3"/>
<circle class="poloto0fill" cx="500" cy="399.83453" r="3"/>
<circle class="poloto0fill" cx="500" cy="399.74295" r="3"/>
<circle class="poloto0fill" cx="500" cy="399.73642" r="3"/>
<circle class="poloto0fill" cx="500" cy="399.75388" r="3"/>
<circle class="poloto0fill" cx="500" cy="399.9357" r="3"/>
<circle class="poloto0fill" cx="500" cy="399.73865" r="3"/>
<circle class="poloto0fill" cx="500" cy="399.7635" r="3"/>
<circle class="poloto0fill" cx="500" cy="399.8387" r="3"/>
<circle class="poloto0fill" cx="500" cy="399.73282" r="3"/>
<circle class="poloto0fill" cx="500" cy="399.69754" r="3"/>
<circle class="poloto0fill" cx="500" cy="399.6022" r="3"/>
<circle class="poloto0fill" cx="500" cy="399.82242" r="3"/>
<circle class="poloto0fill" cx="500" cy="399.848" r="3"/>
<circle class="poloto0fill" cx="500" cy="399.99872" r="3"/>
<circle class="poloto0fill" cx="500" cy="399.64157" r="3"/>
<circle class="poloto0fill" cx="500" cy="399.71866" r="3"/>
<circle class="poloto0fill" cx="550" cy="391.51093" r="3"/>
<circle class="poloto0fill" cx="550" cy="391.85483" r="3"/>
<circle class="poloto0fill" cx="550" cy="391.41113" r="3"/>
<circle class="poloto0fill" cx="550" cy="391.4541" r="3"/>
<circle class="poloto0fill" cx="550" cy="391.5695" r="3"/>
<circle class="poloto0fill" cx="550" cy="391.46805" r="3"/>
<circle class="poloto0fill" cx="550" cy="391.54388" r="3"/>
<circle class="poloto0fill" cx="550" cy="391.21674" r="3"/>
<circle class="poloto0fill" cx="550" cy="391.5827" r="3"/>
<circle class="poloto0fill" cx="550" cy="391.69513" r="3"/>
<circle class="poloto0fill" cx="550" cy="391.49466" r="3"/>
<circle class="poloto0fill" cx="550" cy="391.5061" r="3"/>
<circle class="poloto0fill" cx="550" cy="391.53452" r="3"/>
<circle class="poloto0fill" cx="550" cy="391.41522" r="3"/>
<circle class="poloto0fill" cx="550" cy="391.53128" r="3"/>
<circle class="poloto0fill" cx="550" cy="391.35916" r="3"/>
<circle class="poloto0fill" cx="550" cy="391.5836" r="3"/>
<circle class="poloto0fill" cx="550" cy="391.32635" r="3"/>
<circle class="poloto0fill" cx="550" cy="391.44672" r="3"/>
<circle class="poloto0fill" cx="550" cy="391.20044" r="3"/>
<circle class="poloto0fill" cx="600" cy="374.49384" r="3"/>
<circle class="poloto0fill" cx="600" cy="374.6172" r="3"/>
<circle class="poloto0fill" cx="600" cy="374.44333" r="3"/>
<circle class="poloto0fill" cx="600" cy="374.7076" r="3"/>
<circle class="poloto0fill" cx="600" cy="374.5663" r="3"/>
<circle class="poloto0fill" cx="600" cy="374.6987" r="3"/>
<circle class="poloto0fill" cx="600" cy="374.80945" r="3"/>
<circle class="poloto0fill" cx="600" cy="374.68375" r="3"/>
<circle class="poloto0fill" cx="600" cy="374.6339" r="3"/>
<circle class="poloto0fill" cx="600" cy="374.52148" r="3"/>
<circle class="poloto0fill" cx="600" cy="374.67654" r="3"/>
<circle class="poloto0fill" cx="600" cy="374.49197" r="3"/>
<circle class="poloto0fill" cx="600" cy="374.63492" r="3"/>
<circle class="poloto0fill" cx="600" cy="374.77725" r="3"/>
<circle class="poloto0fill" cx="600" cy="374.63507" r="3"/>
<circle class="poloto0fill" cx="600" cy="374.5086" r="3"/>
<circle class="poloto0fill" cx="600" cy="374.61154" r="3"/>
<circle class="poloto0fill" cx="600" cy="374.5748" r="3"/>
<circle class="poloto0fill" cx="600" cy="374.49258" r="3"/>
<circle class="poloto0fill" cx="600" cy="374.5094" r="3"/>
<circle class="poloto0fill" cx="650" cy="357.18008" r="3"/>
<circle class="poloto0fill" cx="650" cy="357.04868" r="3"/>
<circle class="poloto0fill" cx="650" cy="357.18912" r="3"/>
<circle class="poloto0fill" cx="650" cy="356.85092" r="3"/>
<circle class="poloto0fill" cx="650" cy="357.10056" r="3"/>
<circle class="poloto0fill" cx="650" cy="357.24686" r="3"/>
<circle class="poloto0fill" cx="650" cy="356.91122" r="3"/>
<circle class="poloto0fill" cx="650" cy="356.96158" r="3"/>
<circle class="poloto0fill" cx="650" cy="357.03787" r="3"/>
<circle class="poloto0fill" cx="650" cy="357.2054" r="3"/>
<circle class="poloto0fill" cx="650" cy="357.0869" r="3"/>
<circle class="poloto0fill" cx="650" cy="356.85272" r="3"/>
<circle class="poloto0fill" cx="650" cy="357.4472" r="3"/>
<circle class="poloto0fill" cx="650" cy="356.85638" r="3"/>
<circle class="poloto0fill" cx="650" cy="357.2433" r="3"/>
<circle class="poloto0fill" cx="650" cy="355.64975" r="3"/>
<circle class="poloto0fill" cx="650" cy="355.8509" r="3"/>
<circle class="poloto0fill" cx="650" cy="357.06982" r="3"/>
<circle class="poloto0fill" cx="650" cy="357.09262" r="3"/>
<circle class="poloto0fill" cx="650" cy="357.23654" r="3"/>
<text alignment-baseline="start" class="poloto_text" font-size="x-large" text-anchor="middle" x="400" y="37.5">
Bench of differing num elem per node with abspiral(10000,0.2)
</text>
<text alignment-baseline="start" class="poloto_text" font-size="large" text-anchor="middle" x="400" y="481.25">
Tree Height
</text>
<text alignment-baseline="start" class="poloto_text" font-size="large" text-anchor="middle" transform="rotate(-90,37.5,250)" x="37.5" y="250">
Number of Comparisons
</text>
<path class="poloto_axis_lines" d="M150,100 L150,400 L650,400" stroke="black"/>
</svg>