<svg class="poloto" width="800" height="500" viewBox="0 0 800 500" xmlns="http://www.w3.org/2000/svg"><text  class="poloto_text poloto_legend_text" alignment-baseline="middle" text-anchor="start" font-size="large" x="675" y="100" >Optimal</text><line  class="poloto_scatter poloto_legend_icon poloto0stroke poloto0legend" stroke="black" x1="685" x2="685" y1="81.25" y2="81.25" /><path  class="poloto_scatter poloto0stroke" d=" M 170.83333333333334 209.0909090909091 h 0 M 191.66666666666666 181.8181818181818 h 0 M 212.5 209.0909090909091 h 0 M 233.33333333333331 154.54545454545453 h 0 M 254.16666666666666 154.54545454545453 h 0 M 275 154.54545454545453 h 0 M 295.83333333333337 154.54545454545453 h 0 M 316.66666666666663 154.54545454545453 h 0 M 337.5 154.54545454545453 h 0 M 358.33333333333337 154.54545454545453 h 0 M 379.16666666666663 154.54545454545453 h 0 M 400 127.27272727272725 h 0 M 420.8333333333333 100 h 0 M 441.66666666666663 100 h 0 M 462.49999999999994 154.54545454545453 h 0 M 483.3333333333333 100 h 0 M 504.16666666666663 100 h 0 M 525 127.27272727272725 h 0 M 545.8333333333333 127.27272727272725 h 0 M 566.6666666666666 100 h 0 M 587.5 127.27272727272725 h 0 M 608.3333333333333 127.27272727272725 h 0 M 629.1666666666666 100 h 0 M 650 100 h 0" /><text  class="poloto_text poloto_legend_text" alignment-baseline="middle" text-anchor="start" font-size="large" x="675" y="150" >Heuristic</text><line  class="poloto_scatter poloto_legend_icon poloto1stroke poloto1legend" stroke="black" x1="685" x2="685" y1="131.25" y2="131.25" /><path  class="poloto_scatter poloto1stroke" d=" M 150 372.72727272727275 h 0 M 170.83333333333334 236.36363636363637 h 0 M 191.66666666666666 209.0909090909091 h 0 M 212.5 181.8181818181818 h 0 M 233.33333333333331 181.8181818181818 h 0 M 254.16666666666666 154.54545454545453 h 0 M 275 154.54545454545453 h 0 M 295.83333333333337 154.54545454545453 h 0 M 316.66666666666663 154.54545454545453 h 0 M 337.5 127.27272727272725 h 0 M 358.33333333333337 127.27272727272725 h 0 M 379.16666666666663 127.27272727272725 h 0 M 400 127.27272727272725 h 0 M 420.8333333333333 127.27272727272725 h 0 M 441.66666666666663 127.27272727272725 h 0 M 462.49999999999994 127.27272727272725 h 0 M 483.3333333333333 127.27272727272725 h 0 M 504.16666666666663 100 h 0 M 525 100 h 0 M 545.8333333333333 100 h 0 M 566.6666666666666 100 h 0 M 587.5 100 h 0 M 608.3333333333333 100 h 0 M 629.1666666666666 100 h 0 M 650 100 h 0" /><text  class="poloto_labels poloto_text poloto_title" alignment-baseline="start" text-anchor="middle" font-size="x-large" x="400" y="37.5" >Bench of optimal vs heuristic with abspiral(x,1.5)</text><text  class="poloto_labels poloto_text poloto_xname" alignment-baseline="start" text-anchor="middle" font-size="x-large" x="400" y="481.25" >Number of Elements</text><text  class="poloto_labels poloto_text poloto_yname" alignment-baseline="start" text-anchor="middle" font-size="x-large" transform="rotate(-90,37.5,250)" x="37.5" y="250" >Tree Height</text><line  class="poloto_axis_lines" stroke="black" x1="254.15625" x2="254.15625" y1="400" y2="405" /><text  class="poloto_tick_labels poloto_text" alignment-baseline="start" text-anchor="middle" x="254.15625" y="430" > 10000</text><line  class="poloto_axis_lines" stroke="black" x1="358.32291666666663" x2="358.32291666666663" y1="400" y2="405" /><text  class="poloto_tick_labels poloto_text" alignment-baseline="start" text-anchor="middle" x="358.32291666666663" y="430" > 20000</text><line  class="poloto_axis_lines" stroke="black" x1="462.4895833333333" x2="462.4895833333333" y1="400" y2="405" /><text  class="poloto_tick_labels poloto_text" alignment-baseline="start" text-anchor="middle" x="462.4895833333333" y="430" > 30000</text><line  class="poloto_axis_lines" stroke="black" x1="566.65625" x2="566.65625" y1="400" y2="405" /><text  class="poloto_tick_labels poloto_text" alignment-baseline="start" text-anchor="middle" x="566.65625" y="430" > 40000</text><line  class="poloto_axis_lines" stroke="black" x1="150" x2="144" y1="400" y2="400" /><text  class="poloto_tick_labels poloto_text" alignment-baseline="middle" text-anchor="end" x="135" y="400" > 0</text><line  class="poloto_axis_lines" stroke="black" x1="150" x2="144" y1="345.45454545454544" y2="345.45454545454544" /><text  class="poloto_tick_labels poloto_text" alignment-baseline="middle" text-anchor="end" x="135" y="345.45454545454544" > 2</text><line  class="poloto_axis_lines" stroke="black" x1="150" x2="144" y1="290.9090909090909" y2="290.9090909090909" /><text  class="poloto_tick_labels poloto_text" alignment-baseline="middle" text-anchor="end" x="135" y="290.9090909090909" > 4</text><line  class="poloto_axis_lines" stroke="black" x1="150" x2="144" y1="236.36363636363637" y2="236.36363636363637" /><text  class="poloto_tick_labels poloto_text" alignment-baseline="middle" text-anchor="end" x="135" y="236.36363636363637" > 6</text><line  class="poloto_axis_lines" stroke="black" x1="150" x2="144" y1="181.8181818181818" y2="181.8181818181818" /><text  class="poloto_tick_labels poloto_text" alignment-baseline="middle" text-anchor="end" x="135" y="181.8181818181818" > 8</text><line  class="poloto_axis_lines" stroke="black" x1="150" x2="144" y1="127.27272727272725" y2="127.27272727272725" /><text  class="poloto_tick_labels poloto_text" alignment-baseline="middle" text-anchor="end" x="135" y="127.27272727272725" > 10</text><path  stroke="black" fill="none" class="poloto_axis_lines" style="stroke-dasharray:13.020833333333332;stroke-dashoffset:-104.15624999999999;" d=" M 150 400 L 650 400" /><path  stroke="black" fill="none" class="poloto_axis_lines" style="stroke-dasharray:13.636363636363637;stroke-dashoffset:-0;" d=" M 150 400 L 150 100" /></svg>