<svg class="poloto" width="800" height="500" viewBox="0 0 800 500" xmlns="http://www.w3.org/2000/svg"><style>.poloto {
            font-family: "Arial";
            stroke-width:2;
            }
            .poloto_text{fill: var(--poloto_fg_color,black);  }
            .poloto_axis_lines{stroke: var(--poloto_fg_color,black);stoke-width:3;fill:none}
            .poloto_background{fill: var(--poloto_bg_color,aliceblue); }
            .poloto0stroke{stroke:  var(--poloto_color0,blue); }
            .poloto1stroke{stroke:  var(--poloto_color1,red); }
            .poloto2stroke{stroke:  var(--poloto_color2,green); }
            .poloto3stroke{stroke:  var(--poloto_color3,gold); }
            .poloto4stroke{stroke:  var(--poloto_color4,aqua); }
            .poloto5stroke{stroke:  var(--poloto_color5,brown); }
            .poloto6stroke{stroke:  var(--poloto_color6,lime); }
            .poloto7stroke{stroke:  var(--poloto_color7,chocolate); }
            .poloto0fill{fill:var(--poloto_color0,blue);}
            .poloto1fill{fill:var(--poloto_color1,red);}
            .poloto2fill{fill:var(--poloto_color2,green);}
            .poloto3fill{fill:var(--poloto_color3,gold);}
            .poloto4fill{fill:var(--poloto_color4,aqua);}
            .poloto5fill{fill:var(--poloto_color5,brown);}
            .poloto6fill{fill:var(--poloto_color6,lime);}
            .poloto7fill{fill:var(--poloto_color7,chocolate);}</style><rect class="poloto_background" fill="white" x="0" y="0" width="800" height="500"/><line class="poloto_axis_lines" stroke="black" x1="150" x2="150" y1="400" y2="405"/><text class="poloto_text" alignment-baseline="start" text-anchor="middle" x="150" y="430">2</text><line class="poloto_axis_lines" stroke="black" x1="250" x2="250" y1="400" y2="405"/><text class="poloto_text" alignment-baseline="start" text-anchor="middle" x="250" y="430">4</text><line class="poloto_axis_lines" stroke="black" x1="350" x2="350" y1="400" y2="405"/><text class="poloto_text" alignment-baseline="start" text-anchor="middle" x="350" y="430">6</text><line class="poloto_axis_lines" stroke="black" x1="450" x2="450" y1="400" y2="405"/><text class="poloto_text" alignment-baseline="start" text-anchor="middle" x="450" y="430">8</text><line class="poloto_axis_lines" stroke="black" x1="550" x2="550" y1="400" y2="405"/><text class="poloto_text" alignment-baseline="start" text-anchor="middle" x="550" y="430">10</text><line class="poloto_axis_lines" stroke="black" x1="650" x2="650" y1="400" y2="405"/><text class="poloto_text" alignment-baseline="start" text-anchor="middle" x="650" y="430">12</text><line class="poloto_axis_lines" stroke="black" x1="150" x2="144" y1="394.0501610384422" y2="394.0501610384422"/><text class="poloto_text" alignment-baseline="middle" text-anchor="end" x="135" y="394.0501610384422">0.004</text><line class="poloto_axis_lines" stroke="black" x1="150" x2="144" y1="359.36976000815685" y2="359.36976000815685"/><text class="poloto_text" alignment-baseline="middle" text-anchor="end" x="135" y="359.36976000815685">0.005</text><line class="poloto_axis_lines" stroke="black" x1="150" x2="144" y1="324.68935897787145" y2="324.68935897787145"/><text class="poloto_text" alignment-baseline="middle" text-anchor="end" x="135" y="324.68935897787145">0.006</text><line class="poloto_axis_lines" stroke="black" x1="150" x2="144" y1="290.0089579475861" y2="290.0089579475861"/><text class="poloto_text" alignment-baseline="middle" text-anchor="end" x="135" y="290.0089579475861">0.007</text><line class="poloto_axis_lines" stroke="black" x1="150" x2="144" y1="255.32855691730072" y2="255.32855691730072"/><text class="poloto_text" alignment-baseline="middle" text-anchor="end" x="135" y="255.32855691730072">0.008</text><line class="poloto_axis_lines" stroke="black" x1="150" x2="144" y1="220.64815588701538" y2="220.64815588701538"/><text class="poloto_text" alignment-baseline="middle" text-anchor="end" x="135" y="220.64815588701538">0.009</text><line class="poloto_axis_lines" stroke="black" x1="150" x2="144" y1="185.96775485673004" y2="185.96775485673004"/><text class="poloto_text" alignment-baseline="middle" text-anchor="end" x="135" y="185.96775485673004">0.010</text><line class="poloto_axis_lines" stroke="black" x1="150" x2="144" y1="151.28735382644467" y2="151.28735382644467"/><text class="poloto_text" alignment-baseline="middle" text-anchor="end" x="135" y="151.28735382644467">0.011</text><line class="poloto_axis_lines" stroke="black" x1="150" x2="144" y1="116.6069527961593" y2="116.6069527961593"/><text class="poloto_text" alignment-baseline="middle" text-anchor="end" x="135" y="116.6069527961593">0.012</text><text class="poloto_text" alignment-baseline="middle" text-anchor="start" font-size="large" x="675" y="100">brocc</text><circle class="poloto0fill" cx="685" cy="81.25" r="5"/><g class="poloto0fill"><circle cx="150" cy="102.20695668036427" r="5"/><circle cx="150" cy="100.78055178598862" r="5"/><circle cx="150" cy="101.63500750657278" r="5"/><circle cx="150" cy="103.32609322161153" r="5"/><circle cx="150" cy="100.34323192899672" r="5"/><circle cx="150" cy="101.07009845419043" r="5"/><circle cx="150" cy="101.63441793975522" r="5"/><circle cx="150" cy="102.15417310999618" r="5"/><circle cx="150" cy="100.787938711408" r="5"/><circle cx="150" cy="100.42757466430237" r="5"/><circle cx="150" cy="101.36058149322014" r="5"/><circle cx="150" cy="102.71100162893845" r="5"/><circle cx="150" cy="102.2629308476271" r="5"/><circle cx="150" cy="100.18484653749141" r="5"/><circle cx="150" cy="101.05705862340307" r="5"/><circle cx="150" cy="103.15688754498478" r="5"/><circle cx="150" cy="102.55833850360312" r="5"/><circle cx="150" cy="101.28130209646491" r="5"/><circle cx="150" cy="101.5330471275438" r="5"/><circle cx="150" cy="100" r="5"/><circle cx="200" cy="248.08749726458336" r="5"/><circle cx="200" cy="247.77315410964485" r="5"/><circle cx="200" cy="248.51906017500423" r="5"/><circle cx="200" cy="248.430625152377" r="5"/><circle cx="200" cy="249.04172849893166" r="5"/><circle cx="200" cy="248.57264139459605" r="5"/><circle cx="200" cy="242.68807094777722" r="5"/><circle cx="200" cy="244.61806994551364" r="5"/><circle cx="200" cy="246.2328240978847" r="5"/><circle cx="200" cy="244.73098933126823" r="5"/><circle cx="200" cy="246.5918009289492" r="5"/><circle cx="200" cy="246.02755080418643" r="5"/><circle cx="200" cy="246.69899804853384" r="5"/><circle cx="200" cy="247.66228086755103" r="5"/><circle cx="200" cy="246.56391788652084" r="5"/><circle cx="200" cy="247.79430915427332" r="5"/><circle cx="200" cy="247.56760337273832" r="5"/><circle cx="200" cy="246.8453493408816" r="5"/><circle cx="200" cy="246.2306045522188" r="5"/><circle cx="200" cy="248.15449979937384" r="5"/><circle cx="250" cy="277.1345179927123" r="5"/><circle cx="250" cy="276.780361737391" r="5"/><circle cx="250" cy="277.3080933998688" r="5"/><circle cx="250" cy="277.8503214699773" r="5"/><circle cx="250" cy="277.8731758542563" r="5"/><circle cx="250" cy="276.9091300664164" r="5"/><circle cx="250" cy="278.09686444090164" r="5"/><circle cx="250" cy="278.3063340631246" r="5"/><circle cx="250" cy="278.2353432822156" r="5"/><circle cx="250" cy="277.72450097503946" r="5"/><circle cx="250" cy="277.9928579182118" r="5"/><circle cx="250" cy="278.51840471542477" r="5"/><circle cx="250" cy="277.7418411755546" r="5"/><circle cx="250" cy="278.1951486974215" r="5"/><circle cx="250" cy="278.23062674767544" r="5"/><circle cx="250" cy="278.211829970317" r="5"/><circle cx="250" cy="278.2478282265865" r="5"/><circle cx="250" cy="278.4510553766239" r="5"/><circle cx="250" cy="278.1944550894009" r="5"/><circle cx="250" cy="278.20624642575115" r="5"/><circle cx="300" cy="335.9358315475817" r="5"/><circle cx="300" cy="336.05738635319284" r="5"/><circle cx="300" cy="336.92453510055407" r="5"/><circle cx="300" cy="337.420291433282" r="5"/><circle cx="300" cy="335.8838456264373" r="5"/><circle cx="300" cy="336.0332141136747" r="5"/><circle cx="300" cy="335.8790944114961" r="5"/><circle cx="300" cy="336.91607308270267" r="5"/><circle cx="300" cy="336.68576053946055" r="5"/><circle cx="300" cy="337.85667491944605" r="5"/><circle cx="300" cy="336.01982747887706" r="5"/><circle cx="300" cy="336.6699462765908" r="5"/><circle cx="300" cy="335.872088970488" r="5"/><circle cx="300" cy="337.00228855966395" r="5"/><circle cx="300" cy="337.43180532642407" r="5"/><circle cx="300" cy="336.17377377905046" r="5"/><circle cx="300" cy="336.4641527768771" r="5"/><circle cx="300" cy="336.4051960951256" r="5"/><circle cx="300" cy="336.3386097251474" r="5"/><circle cx="300" cy="336.7832124663557" r="5"/><circle cx="350" cy="359.53282725380126" r="5"/><circle cx="350" cy="357.1720283144666" r="5"/><circle cx="350" cy="357.72244095921826" r="5"/><circle cx="350" cy="359.03890898232794" r="5"/><circle cx="350" cy="359.6609366552071" r="5"/><circle cx="350" cy="357.30651890966203" r="5"/><circle cx="350" cy="358.0463212244401" r="5"/><circle cx="350" cy="360.835735240108" r="5"/><circle cx="350" cy="359.0081821470151" r="5"/><circle cx="350" cy="357.8834620612019" r="5"/><circle cx="350" cy="358.7112485533938" r="5"/><circle cx="350" cy="360.25258429678377" r="5"/><circle cx="350" cy="358.44407074385646" r="5"/><circle cx="350" cy="358.04018279345775" r="5"/><circle cx="350" cy="358.56763701272735" r="5"/><circle cx="350" cy="359.5854027417631" r="5"/><circle cx="350" cy="357.7086034792072" r="5"/><circle cx="350" cy="357.70464991348973" r="5"/><circle cx="350" cy="358.2629696896763" r="5"/><circle cx="350" cy="359.4906212057474" r="5"/><circle cx="400" cy="383.49351632562536" r="5"/><circle cx="400" cy="384.3159620360586" r="5"/><circle cx="400" cy="384.74346733955895" r="5"/><circle cx="400" cy="383.3385989742231" r="5"/><circle cx="400" cy="385.73061027448495" r="5"/><circle cx="400" cy="385.8275419953646" r="5"/><circle cx="400" cy="385.62982902909096" r="5"/><circle cx="400" cy="385.7223910194408" r="5"/><circle cx="400" cy="383.6714961437128" r="5"/><circle cx="400" cy="384.20127394985144" r="5"/><circle cx="400" cy="385.42715676546993" r="5"/><circle cx="400" cy="385.4624267333178" r="5"/><circle cx="400" cy="385.1884515651785" r="5"/><circle cx="400" cy="385.52516357878153" r="5"/><circle cx="400" cy="385.3627205803557" r="5"/><circle cx="400" cy="385.68216175424567" r="5"/><circle cx="400" cy="385.92894748797715" r="5"/><circle cx="400" cy="385.2569106768123" r="5"/><circle cx="400" cy="385.4431097499439" r="5"/><circle cx="400" cy="385.33379712589647" r="5"/><circle cx="450" cy="398.5027777267205" r="5"/><circle cx="450" cy="398.7142588122032" r="5"/><circle cx="450" cy="398.4152790749211" r="5"/><circle cx="450" cy="398.3443923352152" r="5"/><circle cx="450" cy="398.35975575287165" r="5"/><circle cx="450" cy="398.3096772537839" r="5"/><circle cx="450" cy="398.7699208558568" r="5"/><circle cx="450" cy="398.7090220716476" r="5"/><circle cx="450" cy="398.9312194010487" r="5"/><circle cx="450" cy="398.3127984898766" r="5"/><circle cx="450" cy="397.7227114663463" r="5"/><circle cx="450" cy="398.3329478028752" r="5"/><circle cx="450" cy="397.9504576599122" r="5"/><circle cx="450" cy="398.6443778041272" r="5"/><circle cx="450" cy="398.85891076490054" r="5"/><circle cx="450" cy="398.12413710827184" r="5"/><circle cx="450" cy="398.9043767706512" r="5"/><circle cx="450" cy="398.47513744709937" r="5"/><circle cx="450" cy="397.4288644284167" r="5"/><circle cx="450" cy="398.7199463979722" r="5"/><circle cx="500" cy="399.75852036762615" r="5"/><circle cx="500" cy="399.7136092482919" r="5"/><circle cx="500" cy="399.8470247510554" r="5"/><circle cx="500" cy="399.8200780794549" r="5"/><circle cx="500" cy="399.76497092221774" r="5"/><circle cx="500" cy="399.85829588139023" r="5"/><circle cx="500" cy="399.99615047548565" r="5"/><circle cx="500" cy="399.66932237617624" r="5"/><circle cx="500" cy="399.68974913238304" r="5"/><circle cx="500" cy="399.94849960447004" r="5"/><circle cx="500" cy="399.49588569062377" r="5"/><circle cx="500" cy="399.8390135784174" r="5"/><circle cx="500" cy="397.705197863826" r="5"/><circle cx="500" cy="398.3380111414256" r="5"/><circle cx="500" cy="399.09137349300653" r="5"/><circle cx="500" cy="397.66885280354626" r="5"/><circle cx="500" cy="399.75519104912723" r="5"/><circle cx="500" cy="397.53703259923014" r="5"/><circle cx="500" cy="400" r="5"/><circle cx="500" cy="399.1819240200966" r="5"/><circle cx="550" cy="389.56081780547277" r="5"/><circle cx="550" cy="390.82727669029674" r="5"/><circle cx="550" cy="388.193785757661" r="5"/><circle cx="550" cy="389.2605895737536" r="5"/><circle cx="550" cy="390.0600074979027" r="5"/><circle cx="550" cy="388.6354059843806" r="5"/><circle cx="550" cy="390.62148319058304" r="5"/><circle cx="550" cy="388.3644826915321" r="5"/><circle cx="550" cy="389.2843803288604" r="5"/><circle cx="550" cy="389.79487583202615" r="5"/><circle cx="550" cy="388.41806391112385" r="5"/><circle cx="550" cy="390.8419811803336" r="5"/><circle cx="550" cy="389.9923113550916" r="5"/><circle cx="550" cy="389.14888400203506" r="5"/><circle cx="550" cy="390.89740046118" r="5"/><circle cx="550" cy="388.685068318656" r="5"/><circle cx="550" cy="389.1125042613543" r="5"/><circle cx="550" cy="389.8410007653965" r="5"/><circle cx="550" cy="388.70091726192686" r="5"/><circle cx="550" cy="390.572167660318" r="5"/><circle cx="600" cy="367.11424036222985" r="5"/><circle cx="600" cy="369.86893929646646" r="5"/><circle cx="600" cy="368.13228353447386" r="5"/><circle cx="600" cy="368.9989467562207" r="5"/><circle cx="600" cy="369.79458451665755" r="5"/><circle cx="600" cy="368.0790491188924" r="5"/><circle cx="600" cy="369.75019360333874" r="5"/><circle cx="600" cy="368.1345724409419" r="5"/><circle cx="600" cy="368.5199063767894" r="5"/><circle cx="600" cy="369.1513671187488" r="5"/><circle cx="600" cy="368.39654819032467" r="5"/><circle cx="600" cy="369.7822382938907" r="5"/><circle cx="600" cy="369.5880627285222" r="5"/><circle cx="600" cy="368.8291168323754" r="5"/><circle cx="600" cy="368.32084087487556" r="5"/><circle cx="600" cy="369.57672223738524" r="5"/><circle cx="600" cy="368.6746156457855" r="5"/><circle cx="600" cy="369.7898333017163" r="5"/><circle cx="600" cy="369.0596027776227" r="5"/><circle cx="600" cy="368.8101119726108" r="5"/><circle cx="650" cy="351.7421872859569" r="5"/><circle cx="650" cy="350.04544866555017" r="5"/><circle cx="650" cy="351.5801257719424" r="5"/><circle cx="650" cy="351.54991914264497" r="5"/><circle cx="650" cy="351.7693767203647" r="5"/><circle cx="650" cy="351.9334150172379" r="5"/><circle cx="650" cy="351.6903747668176" r="5"/><circle cx="650" cy="351.851083745192" r="5"/><circle cx="650" cy="351.4757724452422" r="5"/><circle cx="650" cy="352.1615773756161" r="5"/><circle cx="650" cy="351.8096406659608" r="5"/><circle cx="650" cy="349.8429844843354" r="5"/><circle cx="650" cy="352.03159523255465" r="5"/><circle cx="650" cy="348.8744302443616" r="5"/><circle cx="650" cy="347.59787936283783" r="5"/><circle cx="650" cy="332.46241598239345" r="5"/><circle cx="650" cy="344.1806807277197" r="5"/><circle cx="650" cy="342.50249612186417" r="5"/><circle cx="650" cy="344.7221111486045" r="5"/><circle cx="650" cy="319.5736877022951" r="5"/></g><text class="poloto_text" alignment-baseline="start" text-anchor="middle" font-size="x-large" x="400" y="37.5">Bench of differing num elem per node with abspiral(10000,0.2)</text><text class="poloto_text" alignment-baseline="start" text-anchor="middle" font-size="x-large" x="400" y="481.25">Tree Height</text><text class="poloto_text" alignment-baseline="start" text-anchor="middle" font-size="x-large" transform="rotate(-90,37.5,250)" x="37.5" y="250">Number of Comparisons</text><path stroke="black" fill="none" class="poloto_axis_lines" d=" M 150 100 L 150 400 L 650 400"/></svg>