<svg class="poloto" width="800" height="500" viewBox="0 0 800 500" xmlns="http://www.w3.org/2000/svg"><circle  r="1e5" class="poloto_background" /><text  class="poloto_text poloto_legend_text" x="675" y="100" >Optimal</text><line  class="poloto_scatter poloto_legend_icon poloto0stroke poloto0legend" stroke="black" x1="685" x2="685" y1="81.25" y2="81.25" /><path  class="poloto_scatter poloto0stroke" d=" M 170.83 225.00 h 0 M 191.67 200.00 h 0 M 212.50 200.00 h 0 M 233.33 175.00 h 0 M 254.17 175.00 h 0 M 275.00 175.00 h 0 M 295.83 175.00 h 0 M 316.67 175.00 h 0 M 337.50 150.00 h 0 M 358.33 175.00 h 0 M 379.17 175.00 h 0 M 400.00 150.00 h 0 M 420.83 150.00 h 0 M 441.67 125.00 h 0 M 462.50 175.00 h 0 M 483.33 125.00 h 0 M 504.17 150.00 h 0 M 525.00 125.00 h 0 M 545.83 125.00 h 0 M 566.67 125.00 h 0 M 587.50 100.00 h 0 M 608.33 150.00 h 0 M 629.17 125.00 h 0 M 650.00 125.00 h 0" /><text  class="poloto_text poloto_legend_text" x="675" y="150" >Heuristic</text><line  class="poloto_scatter poloto_legend_icon poloto1stroke poloto1legend" stroke="black" x1="685" x2="685" y1="131.25" y2="131.25" /><path  class="poloto_scatter poloto1stroke" d=" M 150.00 375.00 h 0 M 170.83 275.00 h 0 M 191.67 225.00 h 0 M 212.50 225.00 h 0 M 233.33 225.00 h 0 M 254.17 175.00 h 0 M 275.00 175.00 h 0 M 295.83 175.00 h 0 M 316.67 175.00 h 0 M 337.50 175.00 h 0 M 358.33 175.00 h 0 M 379.17 175.00 h 0 M 400.00 175.00 h 0 M 420.83 175.00 h 0 M 441.67 175.00 h 0 M 462.50 175.00 h 0 M 483.33 175.00 h 0 M 504.17 125.00 h 0 M 525.00 125.00 h 0 M 545.83 125.00 h 0 M 566.67 125.00 h 0 M 587.50 125.00 h 0 M 608.33 125.00 h 0 M 629.17 125.00 h 0 M 650.00 125.00 h 0" /><text  class="poloto_labels poloto_text poloto_title" x="400" y="37.5" >Bench of optimal vs heuristic with abspiral(x,1.5)</text><text  class="poloto_labels poloto_text poloto_xname" x="400" y="481.25" >Number of Elements</text><text  class="poloto_labels poloto_text poloto_yname" transform="rotate(-90,37.5,250)" x="37.5" y="250" >Tree Height</text><text  class="poloto_tick_labels poloto_text" dominant-baseline="middle" text-anchor="start" x="150" y="70" ></text><line  class="poloto_axis_lines" stroke="black" x1="150" x2="144" y1="400" y2="400" /><text  class="poloto_tick_labels poloto_text" dominant-baseline="middle" text-anchor="end" x="135" y="400" >0</text><line  class="poloto_axis_lines" stroke="black" x1="150" x2="144" y1="350" y2="350" /><text  class="poloto_tick_labels poloto_text" dominant-baseline="middle" text-anchor="end" x="135" y="350" >2</text><line  class="poloto_axis_lines" stroke="black" x1="150" x2="144" y1="300" y2="300" /><text  class="poloto_tick_labels poloto_text" dominant-baseline="middle" text-anchor="end" x="135" y="300" >4</text><line  class="poloto_axis_lines" stroke="black" x1="150" x2="144" y1="250" y2="250" /><text  class="poloto_tick_labels poloto_text" dominant-baseline="middle" text-anchor="end" x="135" y="250" >6</text><line  class="poloto_axis_lines" stroke="black" x1="150" x2="144" y1="200" y2="200" /><text  class="poloto_tick_labels poloto_text" dominant-baseline="middle" text-anchor="end" x="135" y="200" >8</text><line  class="poloto_axis_lines" stroke="black" x1="150" x2="144" y1="150" y2="150" /><text  class="poloto_tick_labels poloto_text" dominant-baseline="middle" text-anchor="end" x="135" y="150" >10</text><line  class="poloto_axis_lines" stroke="black" x1="150" x2="144" y1="100" y2="100" /><text  class="poloto_tick_labels poloto_text" dominant-baseline="middle" text-anchor="end" x="135" y="100" >12</text><text  class="poloto_tick_labels poloto_text" dominant-baseline="middle" text-anchor="start" x="440.00000000000006" y="70" ></text><line  class="poloto_axis_lines" stroke="black" x1="202.07291666666666" x2="202.07291666666666" y1="400" y2="405" /><text  class="poloto_tick_labels poloto_text" dominant-baseline="start" text-anchor="middle" x="202.07291666666666" y="430" >5000</text><line  class="poloto_axis_lines" stroke="black" x1="254.15625" x2="254.15625" y1="400" y2="405" /><text  class="poloto_tick_labels poloto_text" dominant-baseline="start" text-anchor="middle" x="254.15625" y="430" >10000</text><line  class="poloto_axis_lines" stroke="black" x1="306.23958333333337" x2="306.23958333333337" y1="400" y2="405" /><text  class="poloto_tick_labels poloto_text" dominant-baseline="start" text-anchor="middle" x="306.23958333333337" y="430" >15000</text><line  class="poloto_axis_lines" stroke="black" x1="358.32291666666663" x2="358.32291666666663" y1="400" y2="405" /><text  class="poloto_tick_labels poloto_text" dominant-baseline="start" text-anchor="middle" x="358.32291666666663" y="430" >20000</text><line  class="poloto_axis_lines" stroke="black" x1="410.40624999999994" x2="410.40624999999994" y1="400" y2="405" /><text  class="poloto_tick_labels poloto_text" dominant-baseline="start" text-anchor="middle" x="410.40624999999994" y="430" >25000</text><line  class="poloto_axis_lines" stroke="black" x1="462.4895833333333" x2="462.4895833333333" y1="400" y2="405" /><text  class="poloto_tick_labels poloto_text" dominant-baseline="start" text-anchor="middle" x="462.4895833333333" y="430" >30000</text><line  class="poloto_axis_lines" stroke="black" x1="514.5729166666666" x2="514.5729166666666" y1="400" y2="405" /><text  class="poloto_tick_labels poloto_text" dominant-baseline="start" text-anchor="middle" x="514.5729166666666" y="430" >35000</text><line  class="poloto_axis_lines" stroke="black" x1="566.65625" x2="566.65625" y1="400" y2="405" /><text  class="poloto_tick_labels poloto_text" dominant-baseline="start" text-anchor="middle" x="566.65625" y="430" >40000</text><line  class="poloto_axis_lines" stroke="black" x1="618.7395833333333" x2="618.7395833333333" y1="400" y2="405" /><text  class="poloto_tick_labels poloto_text" dominant-baseline="start" text-anchor="middle" x="618.7395833333333" y="430" >45000</text><path  stroke="black" fill="none" class="poloto_axis_lines" style="stroke-dasharray:5.208333333333333;stroke-dashoffset:-52.072916666666664;" d=" M 150 400 L 650 400" /><path  stroke="black" fill="none" class="poloto_axis_lines" style="stroke-dasharray:12.5;stroke-dashoffset:-0;" d=" M 150 400 L 150 100" /></svg>