<svg class="poloto" width="800" height="500" viewBox="0 0 800 500" xmlns="http://www.w3.org/2000/svg"><circle  r="1e5" class="poloto_background" /><text  class="poloto_text poloto_legend_text" x="675" y="100" ></text><g  class="poloto_histo poloto0fill" ><rect  x="150.00" y="100.00" width="47" height="300" /><rect  x="200.00" y="234.60" width="47" height="165.40062925818177" /><rect  x="250.00" y="236.67" width="47" height="163.3348824672126" /><rect  x="300.00" y="298.09" width="47" height="101.9076886612695" /><rect  x="350.00" y="301.32" width="47" height="98.67609469545579" /><rect  x="400.00" y="330.81" width="47" height="69.18540344093617" /><rect  x="450.00" y="333.40" width="47" height="66.60240084768606" /><rect  x="500.00" y="345.92" width="47" height="54.075399444170785" /><rect  x="550.00" y="347.19" width="47" height="52.81174770185987" /><rect  x="600.00" y="347.69" width="47" height="52.31275618801527" /></g><text  class="poloto_labels poloto_text poloto_title" x="400" y="37.5" >Complexity of differing num elem per node with abspiral(10000,1.5)</text><text  class="poloto_labels poloto_text poloto_xname" x="400" y="481.25" >Tree Height</text><text  class="poloto_labels poloto_text poloto_yname" transform="rotate(-90,37.5,250)" x="37.5" y="250" >Number of Comparisons</text><text  class="poloto_tick_labels poloto_text" dominant-baseline="middle" text-anchor="start" x="150" y="70" ></text><line  class="poloto_axis_lines" stroke="black" x1="150" x2="144" y1="400" y2="400" /><text  class="poloto_tick_labels poloto_text" dominant-baseline="middle" text-anchor="end" x="135" y="400" >0</text><line  class="poloto_axis_lines" stroke="black" x1="150" x2="144" y1="330.28897543383493" y2="330.28897543383493" /><text  class="poloto_tick_labels poloto_text" dominant-baseline="middle" text-anchor="end" x="135" y="330.28897543383493" >1e6</text><line  class="poloto_axis_lines" stroke="black" x1="150" x2="144" y1="260.57795086766987" y2="260.57795086766987" /><text  class="poloto_tick_labels poloto_text" dominant-baseline="middle" text-anchor="end" x="135" y="260.57795086766987" >2.0e6</text><line  class="poloto_axis_lines" stroke="black" x1="150" x2="144" y1="190.8669263015048" y2="190.8669263015048" /><text  class="poloto_tick_labels poloto_text" dominant-baseline="middle" text-anchor="end" x="135" y="190.8669263015048" >3.0e6</text><line  class="poloto_axis_lines" stroke="black" x1="150" x2="144" y1="121.1559017353398" y2="121.1559017353398" /><text  class="poloto_tick_labels poloto_text" dominant-baseline="middle" text-anchor="end" x="135" y="121.1559017353398" >4.0e6</text><text  class="poloto_tick_labels poloto_text" dominant-baseline="middle" text-anchor="start" x="440.00000000000006" y="70" ></text><line  class="poloto_axis_lines" stroke="black" x1="150" x2="150" y1="400" y2="405" /><text  class="poloto_tick_labels poloto_text" dominant-baseline="start" text-anchor="middle" x="150" y="430" >2</text><line  class="poloto_axis_lines" stroke="black" x1="250" x2="250" y1="400" y2="405" /><text  class="poloto_tick_labels poloto_text" dominant-baseline="start" text-anchor="middle" x="250" y="430" >4</text><line  class="poloto_axis_lines" stroke="black" x1="350" x2="350" y1="400" y2="405" /><text  class="poloto_tick_labels poloto_text" dominant-baseline="start" text-anchor="middle" x="350" y="430" >6</text><line  class="poloto_axis_lines" stroke="black" x1="450" x2="450" y1="400" y2="405" /><text  class="poloto_tick_labels poloto_text" dominant-baseline="start" text-anchor="middle" x="450" y="430" >8</text><line  class="poloto_axis_lines" stroke="black" x1="550" x2="550" y1="400" y2="405" /><text  class="poloto_tick_labels poloto_text" dominant-baseline="start" text-anchor="middle" x="550" y="430" >10</text><line  class="poloto_axis_lines" stroke="black" x1="650" x2="650" y1="400" y2="405" /><text  class="poloto_tick_labels poloto_text" dominant-baseline="start" text-anchor="middle" x="650" y="430" >12</text><path  stroke="black" fill="none" class="poloto_axis_lines" style="stroke-dasharray:12.5;stroke-dashoffset:-0;" d=" M 150 400 L 650 400" /><path  stroke="black" fill="none" class="poloto_axis_lines" style="stroke-dasharray:6.971102456616505;stroke-dashoffset:-0;" d=" M 150 400 L 150 100" /></svg>