<svg  width="800" class="poloto_background poloto" height="500" viewBox="0 0 800 500" xmlns="http://www.w3.org/2000/svg" ><text  class="poloto_text" alignment-baseline="middle" text-anchor="start" font-size="large" x="675" y="100" ></text><g  class="poloto0fill" ><rect  x="150" y="100" width="47" height="300" /><rect  x="200" y="268.5444105231834" width="47" height="131.4555894768166" /><rect  x="250" y="267.90373954349576" width="47" height="132.09626045650424" /><rect  x="300" y="345.0460141293686" width="47" height="54.95398587063141" /><rect  x="350" y="345.8000947835958" width="47" height="54.199905216404204" /><rect  x="400" y="382.9604443807655" width="47" height="17.039555619234477" /><rect  x="450" y="382.6522874808504" width="47" height="17.34771251914958" /><rect  x="500" y="398.6873574113057" width="47" height="1.3126425886943025" /><rect  x="550" y="398.06189589234344" width="47" height="1.9381041076565566" /><rect  x="600" y="400" width="47" height="0" /></g><text  class="poloto_text" alignment-baseline="start" text-anchor="middle" font-size="x-large" x="400" y="37.5" >Complexity of differing num elem per node with abspiral(10000,1.5)</text><text  class="poloto_text" alignment-baseline="start" text-anchor="middle" font-size="x-large" x="400" y="481.25" >Tree Height</text><text  class="poloto_text" alignment-baseline="start" text-anchor="middle" font-size="x-large" transform="rotate(-90,37.5,250)" x="37.5" y="250" >Number of Comparisons</text><line  class="poloto_axis_lines" stroke="black" x1="150" x2="150" y1="400" y2="405" /><text  class="poloto_text" alignment-baseline="start" text-anchor="middle" x="150" y="430" > 2</text><line  class="poloto_axis_lines" stroke="black" x1="250" x2="250" y1="400" y2="405" /><text  class="poloto_text" alignment-baseline="start" text-anchor="middle" x="250" y="430" > 4</text><line  class="poloto_axis_lines" stroke="black" x1="350" x2="350" y1="400" y2="405" /><text  class="poloto_text" alignment-baseline="start" text-anchor="middle" x="350" y="430" > 6</text><line  class="poloto_axis_lines" stroke="black" x1="450" x2="450" y1="400" y2="405" /><text  class="poloto_text" alignment-baseline="start" text-anchor="middle" x="450" y="430" > 8</text><line  class="poloto_axis_lines" stroke="black" x1="550" x2="550" y1="400" y2="405" /><text  class="poloto_text" alignment-baseline="start" text-anchor="middle" x="550" y="430" > 10</text><line  class="poloto_axis_lines" stroke="black" x1="650" x2="650" y1="400" y2="405" /><text  class="poloto_text" alignment-baseline="start" text-anchor="middle" x="650" y="430" > 12</text><line  class="poloto_axis_lines" stroke="black" x1="150" x2="144" y1="369.0657203002215" y2="369.0657203002215" /><text  class="poloto_text" alignment-baseline="middle" text-anchor="end" x="135" y="369.0657203002215" > 1e6</text><line  class="poloto_axis_lines" stroke="black" x1="150" x2="144" y1="313.9589785414348" y2="313.9589785414348" /><text  class="poloto_text" alignment-baseline="middle" text-anchor="end" x="135" y="313.9589785414348" > 1.5e6</text><line  class="poloto_axis_lines" stroke="black" x1="150" x2="144" y1="258.852236782648" y2="258.852236782648" /><text  class="poloto_text" alignment-baseline="middle" text-anchor="end" x="135" y="258.852236782648" > 2.0e6</text><line  class="poloto_axis_lines" stroke="black" x1="150" x2="144" y1="203.74549502386128" y2="203.74549502386128" /><text  class="poloto_text" alignment-baseline="middle" text-anchor="end" x="135" y="203.74549502386128" > 2.5e6</text><line  class="poloto_axis_lines" stroke="black" x1="150" x2="144" y1="148.6387532650745" y2="148.6387532650745" /><text  class="poloto_text" alignment-baseline="middle" text-anchor="end" x="135" y="148.6387532650745" > 3.0e6</text><path  stroke="black" fill="none" class="poloto_axis_lines" style="stroke-dasharray:8.333333333333334;stroke-dashoffset:-0;" d=" M 150 400 L 650 400" /><path  stroke="black" fill="none" class="poloto_axis_lines" style="stroke-dasharray:5.510674175878676;stroke-dashoffset:-30.934279699778457;" d=" M 150 400 L 150 100" /></svg>