<svg class="poloto" height="500" viewBox="0 0 800 500" width="800" xmlns="http://www.w3.org/2000/svg">
<rect class="poloto_background" fill="white" height="500" width="800" x="0" y="0"/>
<style>
.poloto {
font-family: "Arial";
stroke-width:2;
}
.poloto_text{fill: var(--poloto_fg_color,black);  }
.poloto_axis_lines{stroke: var(--poloto_fg_color,black);stoke-width:3;fill:none}
.poloto_background{fill: var(--poloto_bg_color,aliceblue); }
.poloto0stroke{stroke:  var(--poloto_color0,blue); }
.poloto1stroke{stroke:  var(--poloto_color1,red); }
.poloto2stroke{stroke:  var(--poloto_color2,green); }
.poloto3stroke{stroke:  var(--poloto_color3,gold); }
.poloto4stroke{stroke:  var(--poloto_color4,aqua); }
.poloto5stroke{stroke:  var(--poloto_color5,brown); }
.poloto6stroke{stroke:  var(--poloto_color6,lime); }
.poloto7stroke{stroke:  var(--poloto_color7,chocolate); }
.poloto0fill{fill:var(--poloto_color0,blue);}
.poloto1fill{fill:var(--poloto_color1,red);}
.poloto2fill{fill:var(--poloto_color2,green);}
.poloto3fill{fill:var(--poloto_color3,gold);}
.poloto4fill{fill:var(--poloto_color4,aqua);}
.poloto5fill{fill:var(--poloto_color5,brown);}
.poloto6fill{fill:var(--poloto_color6,lime);}
.poloto7fill{fill:var(--poloto_color7,chocolate);}
</style>
<line class="poloto_axis_lines" stroke="black" x1="246.93878" x2="246.93878" y1="400" y2="405"/>
<text alignment-baseline="start" class="poloto_text" text-anchor="middle" x="246.93878" y="440">
0.10
</text>
<line class="poloto_axis_lines" stroke="black" x1="348.97958" x2="348.97958" y1="400" y2="405"/>
<text alignment-baseline="start" class="poloto_text" text-anchor="middle" x="348.97958" y="440">
0.15
</text>
<line class="poloto_axis_lines" stroke="black" x1="451.0204" x2="451.0204" y1="400" y2="405"/>
<text alignment-baseline="start" class="poloto_text" text-anchor="middle" x="451.0204" y="440">
0.20
</text>
<line class="poloto_axis_lines" stroke="black" x1="553.06116" x2="553.06116" y1="400" y2="405"/>
<text alignment-baseline="start" class="poloto_text" text-anchor="middle" x="553.06116" y="440">
0.25
</text>
<line class="poloto_axis_lines" stroke="black" x1="150" x2="144" y1="362.56833" y2="362.56833"/>
<text alignment-baseline="middle" class="poloto_text" text-anchor="end" x="120" y="362.56833">
0.0001
</text>
<line class="poloto_axis_lines" stroke="black" x1="150" x2="144" y1="297.87817" y2="297.87817"/>
<text alignment-baseline="middle" class="poloto_text" text-anchor="end" x="120" y="297.87817">
0.0002
</text>
<line class="poloto_axis_lines" stroke="black" x1="150" x2="144" y1="233.18799" y2="233.18799"/>
<text alignment-baseline="middle" class="poloto_text" text-anchor="end" x="120" y="233.18799">
0.0003
</text>
<line class="poloto_axis_lines" stroke="black" x1="150" x2="144" y1="168.49786" y2="168.49786"/>
<text alignment-baseline="middle" class="poloto_text" text-anchor="end" x="120" y="168.49786">
0.0004
</text>
<line class="poloto_axis_lines" stroke="black" x1="150" x2="144" y1="103.80768" y2="103.80768"/>
<text alignment-baseline="middle" class="poloto_text" text-anchor="end" x="120" y="103.80768">
0.0005
</text>
<text alignment-baseline="middle" class="poloto_text" font-size="large" text-anchor="start" x="675" y="100">
Level 0
</text>
<rect class="poloto0fill" height="7.5" rx="5" ry="5" width="50" x="680" y="76.25"/>
<path class="poloto0fill" d="M150,400 L150,130.66055 L155.10205,124.47293 L160.20409,132.23447 L165.30612,132.20212 L170.40817,127.59488 L175.5102,128.69525 L180.61224,120.207886 L185.7143,127.36069 L190.81631,123.90689 L195.91837,116.9527 L201.02042,118.32672 L206.12244,113.914825 L211.22449,119.10687 L216.32654,118.15204 L221.42856,121.74234 L226.53061,117.62222 L231.63266,118.742676 L236.73468,116.08713 L241.83673,116.572296 L246.93878,113.99762 L252.0408,119.3598 L257.14285,117.68756 L262.2449,119.30417 L267.34692,120.826965 L272.44897,114.76358 L277.55103,119.454895 L282.65305,116.864044 L287.75507,107.700714 L292.85715,112.67731 L297.95917,113.53769 L303.06122,113.79581 L308.16327,112.903076 L313.2653,112.97037 L318.36737,115.00745 L323.4694,113.45361 L328.5714,111.55301 L333.67346,117.22504 L338.7755,112.06598 L343.87753,112.83386 L348.9796,116.64023 L354.08163,108.587585 L359.18365,115.63495 L364.2857,107.72333 L369.38776,106.78793 L374.48978,115.94223 L379.59186,112.37845 L384.69388,117.18945 L389.7959,109.193115 L394.89795,112.11258 L400,105.22244 L405.10202,111.138336 L410.20407,107.3779 L415.30612,112.74719 L420.40814,109.28882 L425.5102,108.073975 L430.6122,115.68735 L435.71426,108.160645 L440.8163,108.341125 L445.91837,115.08832 L451.0204,106.516235 L456.12244,110.92032 L461.22446,110.51343 L466.3265,105.61636 L471.42856,108.235016 L476.5306,107.92325 L481.63263,102.88968 L486.73468,108.194916 L491.8367,110.751495 L496.93875,113.18448 L502.0408,102.52872 L507.14285,115.34192 L512.2449,111.46179 L517.3469,112.249054 L522.449,108.69693 L527.551,111.25998 L532.653,111.25287 L537.7551,107.47754 L542.8571,110.12076 L547.95917,109.13422 L553.06116,111.00052 L558.1632,109.226105 L563.26526,109.9422 L568.3673,108.619934 L573.46936,105.35568 L578.5714,108.63028 L583.67346,109.34253 L588.7755,107.4924 L593.87756,104.14017 L598.9796,107.788025 L604.0816,102.4375 L609.18365,110.45389 L614.28564,105.978 L619.3877,100 L624.48975,106.888824 L629.5918,112.46188 L634.69385,109.41757 L639.7959,101.32742 L644.89795,105.57239 L650,104.52765 L650,400 z"/>
<text alignment-baseline="middle" class="poloto_text" font-size="large" text-anchor="start" x="675" y="150">
Level 1
</text>
<rect class="poloto1fill" height="7.5" rx="5" ry="5" width="50" x="680" y="126.25"/>
<path class="poloto1fill" d="M150,400 L150,171.45998 L155.10205,163.82266 L160.20409,168.37425 L165.30612,166.7777 L170.40817,160.9116 L175.5102,163.7004 L180.61224,155.47116 L185.7143,163.13242 L190.81631,163.15634 L195.91837,154.36494 L201.02042,157.66092 L206.12244,153.16301 L211.22449,157.13629 L216.32654,154.78804 L221.42856,157.63956 L226.53061,153.14166 L231.63266,153.79245 L236.73468,154.21745 L241.83673,153.39525 L246.93878,148.48267 L252.0408,154.21294 L257.14285,153.6482 L262.2449,156.11093 L267.34692,154.16182 L272.44897,151.47783 L277.55103,151.78835 L282.65305,149.97702 L287.75507,149.19751 L292.85715,149.13152 L297.95917,152.1629 L303.06122,150.18015 L308.16327,148.93098 L313.2653,149.26866 L318.36737,150.94156 L323.4694,148.01108 L328.5714,147.0718 L333.67346,151.07352 L338.7755,143.20914 L343.87753,145.75662 L348.9796,150.13292 L354.08163,145.82262 L359.18365,147.02585 L364.2857,142.69873 L369.38776,141.35123 L374.48978,148.71103 L379.59186,147.80084 L384.69388,148.99762 L389.7959,141.00513 L394.89795,145.6143 L400,142.4031 L405.10202,143.44461 L410.20407,143.34885 L415.30612,146.74123 L420.40814,142.50336 L425.5102,140.14734 L430.6122,147.21475 L435.71426,140.41129 L440.8163,141.52267 L445.91837,143.3883 L451.0204,141.67273 L456.12244,145.28052 L461.22446,143.85925 L466.3265,143.1438 L471.42856,141.19922 L476.5306,145.4746 L481.63263,140.36987 L486.73468,144.89238 L491.8367,141.72125 L496.93875,145.27663 L502.0408,139.10715 L507.14285,148.37982 L512.2449,142.47943 L517.3469,141.7963 L522.449,140.22302 L527.551,145.49593 L532.653,144.38068 L537.7551,140.63382 L542.8571,143.98737 L547.95917,143.44073 L553.06116,146.75351 L558.1632,142.90573 L563.26526,144.57603 L568.3673,141.54788 L573.46936,142.10358 L578.5714,142.8902 L583.67346,140.45786 L588.7755,142.59781 L593.87756,139.97656 L598.9796,141.61066 L604.0816,138.228 L609.18365,141.38553 L614.28564,141.10864 L619.3877,136.34616 L624.48975,143.19168 L629.5918,143.69754 L634.69385,142.24915 L639.7959,133.29861 L644.89795,136.16696 L650,138.3645 L650,400 z"/>
<text alignment-baseline="middle" class="poloto_text" font-size="large" text-anchor="start" x="675" y="200">
Level 2
</text>
<rect class="poloto2fill" height="7.5" rx="5" ry="5" width="50" x="680" y="176.25"/>
<path class="poloto2fill" d="M150,400 L150,209.4978 L155.10205,202.08366 L160.20409,206.48647 L165.30612,204.87311 L170.40817,199.40353 L175.5102,201.90446 L180.61224,195.03242 L185.7143,200.82089 L190.81631,203.26942 L195.91837,191.93442 L201.02042,194.80666 L206.12244,190.81915 L211.22449,194.13322 L216.32654,194.09055 L221.42856,192.97075 L226.53061,190.464 L231.63266,190.1975 L236.73468,190.5934 L241.83673,188.78983 L246.93878,186.44093 L252.0408,189.94908 L257.14285,187.35435 L262.2449,188.84158 L267.34692,190.97311 L272.44897,187.58012 L277.55103,187.26637 L282.65305,186.52568 L287.75507,184.39671 L292.85715,184.97957 L297.95917,187.13312 L303.06122,185.57278 L308.16327,184.94398 L313.2653,183.8669 L318.36737,186.94617 L323.4694,183.8475 L328.5714,183.0654 L333.67346,184.0461 L338.7755,182.1468 L343.87753,179.18204 L348.9796,181.65968 L354.08163,181.72243 L359.18365,181.89322 L364.2857,177.97299 L369.38776,177.83261 L374.48978,184.72794 L379.59186,183.2847 L384.69388,182.00836 L389.7959,177.9581 L394.89795,179.43626 L400,179.96478 L405.10202,178.50926 L410.20407,176.86356 L415.30612,179.73386 L420.40814,180.54637 L425.5102,174.9513 L430.6122,180.3607 L435.71426,174.47647 L440.8163,176.32855 L445.91837,176.86485 L451.0204,178.24146 L456.12244,179.95056 L461.22446,177.76726 L466.3265,177.67088 L471.42856,174.2973 L476.5306,180.22162 L481.63263,175.72629 L486.73468,178.59401 L491.8367,175.50441 L496.93875,177.97751 L502.0408,174.82904 L507.14285,181.03606 L512.2449,176.03099 L517.3469,176.32338 L522.449,175.1706 L527.551,178.28673 L532.653,180.16145 L537.7551,177.47682 L542.8571,179.15488 L547.95917,178.99509 L553.06116,177.62755 L558.1632,174.04694 L563.26526,178.33331 L568.3673,172.32036 L573.46936,179.22604 L578.5714,176.0077 L583.67346,173.86127 L588.7755,178.18451 L593.87756,174.29276 L598.9796,177.01556 L604.0816,172.58623 L609.18365,176.33115 L614.28564,176.07562 L619.3877,171.88887 L624.48975,178.65158 L629.5918,174.97395 L634.69385,173.54881 L639.7959,168.86656 L644.89795,172.29448 L650,174.99336 L650,400 z"/>
<text alignment-baseline="middle" class="poloto_text" font-size="large" text-anchor="start" x="675" y="250">
Level 3
</text>
<rect class="poloto3fill" height="7.5" rx="5" ry="5" width="50" x="680" y="226.25"/>
<path class="poloto3fill" d="M150,400 L150,255.2661 L155.10205,249.20528 L160.20409,252.60797 L165.30612,248.7492 L170.40817,245.97206 L175.5102,245.2042 L180.61224,240.77162 L185.7143,243.91685 L190.81631,244.39102 L195.91837,236.48395 L201.02042,238.52104 L206.12244,236.5868 L211.22449,239.3122 L216.32654,237.53322 L221.42856,237.38379 L226.53061,234.50444 L231.63266,234.34593 L236.73468,233.38788 L241.83673,232.75455 L246.93878,229.23024 L252.0408,232.7662 L257.14285,231.43489 L262.2449,231.03897 L267.34692,232.5566 L272.44897,230.32155 L277.55103,230.18184 L282.65305,228.30583 L287.75507,227.35358 L292.85715,229.10086 L297.95917,230.35262 L303.06122,226.48026 L308.16327,227.40146 L313.2653,223.46506 L318.36737,228.72824 L323.4694,226.27843 L328.5714,227.71907 L333.67346,225.65482 L338.7755,225.77579 L343.87753,222.14278 L348.9796,221.33026 L354.08163,223.51228 L359.18365,222.32198 L364.2857,219.74924 L369.38776,218.55573 L374.48978,225.19876 L379.59186,222.98828 L384.69388,223.94765 L389.7959,219.1444 L394.89795,221.61168 L400,221.6492 L405.10202,219.72725 L410.20407,217.98708 L415.30612,219.87929 L420.40814,220.90462 L425.5102,215.2371 L430.6122,219.21944 L435.71426,215.688 L440.8163,216.44228 L445.91837,218.01685 L451.0204,218.91347 L456.12244,221.38008 L461.22446,217.1086 L466.3265,220.01125 L471.42856,214.66006 L476.5306,217.49997 L481.63263,216.37437 L486.73468,218.98009 L491.8367,215.89952 L496.93875,216.52315 L502.0408,215.67764 L507.14285,221.79799 L512.2449,213.71623 L517.3469,215.42924 L522.449,215.56186 L527.551,216.53156 L532.653,218.93091 L537.7551,217.04909 L542.8571,216.57361 L547.95917,219.3236 L553.06116,217.2742 L558.1632,214.19237 L563.26526,217.55238 L568.3673,213.83333 L573.46936,217.63518 L578.5714,215.94289 L583.67346,213.53639 L588.7755,217.13252 L593.87756,215.27657 L598.9796,215.66211 L604.0816,214.5527 L609.18365,216.33813 L614.28564,215.96164 L619.3877,211.28455 L624.48975,217.02904 L629.5918,214.95053 L634.69385,213.31322 L639.7959,211.36023 L644.89795,212.06795 L650,213.67937 L650,400 z"/>
<text alignment-baseline="middle" class="poloto_text" font-size="large" text-anchor="start" x="675" y="300">
Level 4
</text>
<rect class="poloto4fill" height="7.5" rx="5" ry="5" width="50" x="680" y="276.25"/>
<path class="poloto4fill" d="M150,400 L150,301.52087 L155.10205,295.5053 L160.20409,298.9533 L165.30612,294.56992 L170.40817,294.0653 L175.5102,290.60632 L180.61224,287.25992 L185.7143,289.4859 L190.81631,289.42572 L195.91837,284.46466 L201.02042,283.25366 L206.12244,284.94077 L211.22449,285.7494 L216.32654,283.0201 L221.42856,283.65927 L226.53061,280.8711 L231.63266,279.9286 L236.73468,280.48297 L241.83673,278.2971 L246.93878,277.43152 L252.0408,277.46582 L257.14285,278.3068 L262.2449,275.4669 L267.34692,276.41913 L272.44897,275.47076 L277.55103,276.01416 L282.65305,273.6769 L287.75507,274.36847 L292.85715,272.4161 L297.95917,275.93912 L303.06122,271.3358 L308.16327,272.7253 L313.2653,268.52692 L318.36737,272.88058 L323.4694,270.90106 L328.5714,272.49634 L333.67346,271.0091 L338.7755,270.60608 L343.87753,267.56305 L348.9796,266.7331 L354.08163,268.2022 L359.18365,268.36584 L364.2857,264.81564 L369.38776,266.75443 L374.48978,270.21082 L379.59186,267.9544 L384.69388,268.58905 L389.7959,264.21082 L394.89795,266.9239 L400,265.21933 L405.10202,264.04196 L410.20407,262.81287 L415.30612,264.4204 L420.40814,264.85382 L425.5102,261.6329 L430.6122,263.87573 L435.71426,259.7129 L440.8163,261.8742 L445.91837,262.40854 L451.0204,262.94482 L456.12244,262.2746 L461.22446,262.58643 L466.3265,263.7541 L471.42856,259.61584 L476.5306,260.24466 L481.63263,260.35138 L486.73468,263.15375 L491.8367,260.53122 L496.93875,261.96152 L502.0408,260.5157 L507.14285,264.10278 L512.2449,260.6289 L517.3469,260.56357 L522.449,258.9793 L527.551,259.44897 L532.653,261.92206 L537.7551,261.237 L542.8571,260.10815 L547.95917,262.2093 L553.06116,259.9361 L558.1632,258.9806 L563.26526,263.12012 L568.3673,258.81372 L573.46936,259.9859 L578.5714,258.49414 L583.67346,258.73218 L588.7755,258.65454 L593.87756,258.66296 L598.9796,262.2093 L604.0816,258.9735 L609.18365,258.49283 L614.28564,259.1585 L619.3877,256.17758 L624.48975,259.22836 L629.5918,258.77682 L634.69385,258.4262 L639.7959,255.38124 L644.89795,257.2676 L650,257.8815 L650,400 z"/>
<text alignment-baseline="middle" class="poloto_text" font-size="large" text-anchor="start" x="675" y="350">
Level 5
</text>
<rect class="poloto5fill" height="7.5" rx="5" ry="5" width="50" x="680" y="326.25"/>
<path class="poloto5fill" d="M150,400 L150,357.02307 L155.10205,352.9722 L160.20409,354.40186 L165.30612,351.1007 L170.40817,350.4331 L175.5102,347.8455 L180.61224,346.15515 L185.7143,345.55804 L190.81631,345.06317 L195.91837,341.27298 L201.02042,341.5408 L206.12244,341.58282 L211.22449,341.50134 L216.32654,340.18164 L221.42856,337.74478 L226.53061,337.99963 L231.63266,337.81723 L236.73468,338.23447 L241.83673,337.22144 L246.93878,334.32526 L252.0408,335.28265 L257.14285,332.75977 L262.2449,331.6225 L267.34692,333.75598 L272.44897,330.98593 L277.55103,330.8999 L282.65305,331.4381 L287.75507,330.5493 L292.85715,329.31824 L297.95917,330.60556 L303.06122,329.16232 L308.16327,329.03683 L313.2653,325.67358 L318.36737,327.05212 L323.4694,325.6988 L328.5714,328.496 L333.67346,326.9111 L338.7755,326.67627 L343.87753,323.76715 L348.9796,324.27173 L354.08163,324.72003 L359.18365,323.7801 L364.2857,321.97202 L369.38776,323.33115 L374.48978,324.6864 L379.59186,322.7826 L384.69388,324.5208 L389.7959,320.37415 L394.89795,322.87573 L400,320.57858 L405.10202,320.9538 L410.20407,318.68964 L415.30612,320.50613 L420.40814,319.76996 L425.5102,320.4007 L430.6122,319.70203 L435.71426,317.86484 L440.8163,318.82742 L445.91837,319.05255 L451.0204,317.80856 L456.12244,317.9968 L461.22446,319.24338 L466.3265,319.70074 L471.42856,315.5114 L476.5306,315.68866 L481.63263,316.76187 L486.73468,317.72705 L491.8367,317.15067 L496.93875,317.59637 L502.0408,315.92477 L507.14285,318.18506 L512.2449,316.2825 L517.3469,315.55215 L522.449,314.8076 L527.551,314.44403 L532.653,317.59442 L537.7551,315.23325 L542.8571,313.63733 L547.95917,316.3925 L553.06116,315.84778 L558.1632,313.50793 L563.26526,317.3512 L568.3673,314.00867 L573.46936,313.81393 L578.5714,313.28088 L583.67346,313.72662 L588.7755,312.51172 L593.87756,313.25824 L598.9796,315.72293 L604.0816,313.74472 L609.18365,313.95044 L614.28564,313.08163 L619.3877,310.97598 L624.48975,313.97372 L629.5918,313.081 L634.69385,313.79388 L639.7959,312.23032 L644.89795,311.23022 L650,311.43655 L650,400 z"/>
<text alignment-baseline="middle" class="poloto_text" font-size="large" text-anchor="start" x="675" y="400">
Level 6
</text>
<rect class="poloto6fill" height="7.5" rx="5" ry="5" width="50" x="680" y="376.25"/>
<path class="poloto6fill" d="M150,400 L150,400 L155.10205,397.83417 L160.20409,399.0135 L165.30612,397.35934 L170.40817,397.1478 L175.5102,396.0209 L180.61224,395.41153 L185.7143,395.286 L190.81631,394.66953 L195.91837,393.16226 L201.02042,393.48636 L206.12244,391.7481 L211.22449,392.6997 L216.32654,392.12527 L221.42856,391.61163 L226.53061,390.62897 L231.63266,391.07275 L236.73468,391.18466 L241.83673,391.3315 L246.93878,388.94574 L252.0408,387.99738 L257.14285,389.46198 L262.2449,387.87512 L267.34692,388.14035 L272.44897,384.96796 L277.55103,386.70877 L282.65305,387.73474 L287.75507,386.60138 L292.85715,384.85086 L297.95917,387.0956 L303.06122,385.9273 L308.16327,386.0153 L313.2653,384.2816 L318.36737,385.94217 L323.4694,384.35403 L328.5714,383.7343 L333.67346,383.3882 L338.7755,384.27835 L343.87753,382.19598 L348.9796,382.13904 L354.08163,383.0777 L359.18365,383.56094 L364.2857,381.0296 L369.38776,380.89246 L374.48978,381.99542 L379.59186,381.5206 L384.69388,382.39844 L389.7959,380.10455 L394.89795,380.79672 L400,379.7397 L405.10202,380.21323 L410.20407,379.4725 L415.30612,380.02237 L420.40814,379.12512 L425.5102,380.35425 L430.6122,380.31024 L435.71426,379.6187 L440.8163,377.9814 L445.91837,378.92783 L451.0204,378.59726 L456.12244,379.3328 L461.22446,378.27316 L466.3265,378.99576 L471.42856,377.2776 L476.5306,376.0187 L481.63263,378.46207 L486.73468,377.8488 L491.8367,378.17743 L496.93875,377.77246 L502.0408,377.58032 L507.14285,378.07327 L512.2449,376.38873 L517.3469,377.80804 L522.449,375.89902 L527.551,375.78906 L532.653,376.4198 L537.7551,376.1856 L542.8571,375.7651 L547.95917,375.4436 L553.06116,375.56458 L558.1632,375.44296 L563.26526,376.65848 L568.3673,375.6998 L573.46936,374.5619 L578.5714,374.4616 L583.67346,374.31866 L588.7755,373.7843 L593.87756,374.85104 L598.9796,375.61505 L604.0816,375.35693 L609.18365,374.9099 L614.28564,375.5555 L619.3877,372.90063 L624.48975,374.06183 L629.5918,374.07996 L634.69385,375.10724 L639.7959,373.97968 L644.89795,374.84845 L650,372.97116 L650,400 z"/>
<text alignment-baseline="start" class="poloto_text" font-size="x-large" text-anchor="middle" x="400" y="37.5">
Bench of rebal levels with abspiral(5000,x)
</text>
<text alignment-baseline="start" class="poloto_text" font-size="large" text-anchor="middle" x="400" y="481.25">
Spiral Grow
</text>
<text alignment-baseline="start" class="poloto_text" font-size="large" text-anchor="middle" transform="rotate(-90,37.5,250)" x="37.5" y="250">
Time taken in Seconds
</text>
<path class="poloto_axis_lines" d="M150,100 L150,400 L650,400" stroke="black"/>
</svg>