<svg class="poloto" width="800" height="500" viewBox="0 0 800 500" xmlns="http://www.w3.org/2000/svg"><circle  r="1e5" class="poloto_background" /><text  class="poloto_text poloto_legend_text" x="675" y="100" >Level 0</text><rect  class="poloto_linefill poloto_legend_icon poloto0fill poloto0legend" x="680" y="76.25" width="50" height="7.5" rx="5" ry="5" /><path  class="poloto_linefill poloto0fill" d=" M 150.00 400.00 L 150.00 157.32 L 155.10 155.01 L 160.20 151.84 L 165.31 151.92 L 170.41 149.31 L 175.51 147.79 L 180.61 146.85 L 185.71 143.45 L 190.82 147.12 L 195.92 150.57 L 201.02 147.33 L 206.12 142.08 L 211.22 140.42 L 216.33 143.90 L 221.43 140.38 L 226.53 144.25 L 231.63 144.32 L 236.73 138.52 L 241.84 135.15 L 246.94 135.44 L 252.04 135.83 L 257.14 135.63 L 262.24 132.95 L 267.35 138.14 L 272.45 133.17 L 277.55 133.49 L 282.65 129.28 L 287.76 128.67 L 292.86 128.58 L 297.96 129.03 L 303.06 130.93 L 308.16 132.93 L 313.27 128.80 L 318.37 130.58 L 323.47 127.98 L 328.57 132.33 L 333.67 125.56 L 338.78 126.74 L 343.88 128.16 L 348.98 124.21 L 354.08 127.30 L 359.18 127.52 L 364.29 124.00 L 369.39 123.53 L 374.49 123.34 L 379.59 118.83 L 384.69 120.79 L 389.80 120.25 L 394.90 119.12 L 400.00 115.26 L 405.10 115.26 L 410.20 119.76 L 415.31 117.71 L 420.41 118.61 L 425.51 113.44 L 430.61 112.21 L 435.71 115.04 L 440.82 117.50 L 445.92 114.35 L 451.02 115.58 L 456.12 115.98 L 461.22 114.04 L 466.33 116.50 L 471.43 115.69 L 476.53 116.01 L 481.63 115.75 L 486.73 111.76 L 491.84 109.19 L 496.94 109.91 L 502.04 109.50 L 507.14 111.56 L 512.24 104.92 L 517.35 106.24 L 522.45 111.16 L 527.55 111.86 L 532.65 107.47 L 537.76 105.82 L 542.86 105.03 L 547.96 105.32 L 553.06 105.05 L 558.16 101.56 L 563.27 101.51 L 568.37 101.22 L 573.47 105.00 L 578.57 107.66 L 583.67 105.44 L 588.78 102.82 L 593.88 102.60 L 598.98 102.58 L 604.08 101.15 L 609.18 107.52 L 614.29 106.38 L 619.39 101.70 L 624.49 103.84 L 629.59 104.48 L 634.69 105.57 L 639.80 106.66 L 644.90 105.31 L 650.00 100.00 L 650.00 400.00 Z" /><text  class="poloto_text poloto_legend_text" x="675" y="150" >Level 1</text><rect  class="poloto_linefill poloto_legend_icon poloto1fill poloto1legend" x="680" y="126.25" width="50" height="7.5" rx="5" ry="5" /><path  class="poloto_linefill poloto1fill" d=" M 150.00 400.00 L 150.00 167.79 L 155.10 165.43 L 160.20 162.21 L 165.31 162.32 L 170.41 159.71 L 175.51 158.16 L 180.61 157.14 L 185.71 153.74 L 190.82 157.43 L 195.92 160.82 L 201.02 157.61 L 206.12 152.31 L 211.22 150.60 L 216.33 154.10 L 221.43 150.60 L 226.53 154.41 L 231.63 154.43 L 236.73 148.60 L 241.84 145.21 L 246.94 145.53 L 252.04 145.83 L 257.14 145.68 L 262.24 142.99 L 267.35 148.18 L 272.45 143.23 L 277.55 143.50 L 282.65 139.30 L 287.76 138.70 L 292.86 138.54 L 297.96 139.01 L 303.06 140.92 L 308.16 142.89 L 313.27 138.77 L 318.37 140.50 L 323.47 137.87 L 328.57 142.21 L 333.67 135.43 L 338.78 136.58 L 343.88 138.00 L 348.98 134.07 L 354.08 137.11 L 359.18 137.32 L 364.29 133.78 L 369.39 133.30 L 374.49 133.12 L 379.59 128.59 L 384.69 130.53 L 389.80 130.00 L 394.90 128.83 L 400.00 124.98 L 405.10 124.91 L 410.20 129.41 L 415.31 127.42 L 420.41 128.32 L 425.51 123.15 L 430.61 121.89 L 435.71 124.70 L 440.82 127.12 L 445.92 124.01 L 451.02 125.24 L 456.12 125.61 L 461.22 123.67 L 466.33 126.13 L 471.43 125.33 L 476.53 125.65 L 481.63 125.39 L 486.73 121.38 L 491.84 118.80 L 496.94 119.52 L 502.04 119.08 L 507.14 121.14 L 512.24 114.52 L 517.35 115.83 L 522.45 120.68 L 527.55 121.43 L 532.65 117.01 L 537.76 115.35 L 542.86 114.57 L 547.96 114.86 L 553.06 114.59 L 558.16 111.09 L 563.27 111.01 L 568.37 110.73 L 573.47 114.49 L 578.57 117.15 L 583.67 114.92 L 588.78 112.30 L 593.88 112.09 L 598.98 112.07 L 604.08 110.59 L 609.18 116.98 L 614.29 115.84 L 619.39 111.14 L 624.49 113.27 L 629.59 113.91 L 634.69 114.99 L 639.80 116.08 L 644.90 114.73 L 650.00 109.46 L 650.00 400.00 Z" /><text  class="poloto_text poloto_legend_text" x="675" y="200" >Level 2</text><rect  class="poloto_linefill poloto_legend_icon poloto2fill poloto2legend" x="680" y="176.25" width="50" height="7.5" rx="5" ry="5" /><path  class="poloto_linefill poloto2fill" d=" M 150.00 400.00 L 150.00 231.35 L 155.10 229.58 L 160.20 228.27 L 165.31 227.05 L 170.41 224.84 L 175.51 224.67 L 180.61 222.94 L 185.71 220.08 L 190.82 223.26 L 195.92 224.33 L 201.02 221.84 L 206.12 219.06 L 211.22 218.26 L 216.33 219.26 L 221.43 217.12 L 226.53 218.94 L 231.63 220.67 L 236.73 215.57 L 241.84 212.90 L 246.94 213.70 L 252.04 212.82 L 257.14 212.66 L 262.24 212.76 L 267.35 213.74 L 272.45 210.16 L 277.55 210.49 L 282.65 208.40 L 287.76 207.75 L 292.86 207.83 L 297.96 207.34 L 303.06 208.67 L 308.16 210.19 L 313.27 207.01 L 318.37 207.96 L 323.47 206.50 L 328.57 208.76 L 333.67 203.50 L 338.78 204.52 L 343.88 205.64 L 348.98 203.89 L 354.08 204.94 L 359.18 205.02 L 364.29 202.05 L 369.39 201.38 L 374.49 201.07 L 379.59 199.04 L 384.69 200.95 L 389.80 200.08 L 394.90 198.50 L 400.00 195.74 L 405.10 194.50 L 410.20 198.11 L 415.31 197.61 L 420.41 198.20 L 425.51 194.06 L 430.61 192.65 L 435.71 193.55 L 440.82 196.29 L 445.92 193.80 L 451.02 194.27 L 456.12 194.49 L 461.22 193.02 L 466.33 194.94 L 471.43 194.01 L 476.53 194.38 L 481.63 194.32 L 486.73 191.31 L 491.84 189.25 L 496.94 189.49 L 502.04 188.48 L 507.14 189.89 L 512.24 187.07 L 517.35 188.10 L 522.45 190.51 L 527.55 191.34 L 532.65 187.08 L 537.76 185.74 L 542.86 185.11 L 547.96 185.30 L 553.06 185.07 L 558.16 182.43 L 563.27 182.89 L 568.37 182.70 L 573.47 184.17 L 578.57 185.98 L 583.67 184.32 L 588.78 182.11 L 593.88 184.06 L 598.98 182.85 L 604.08 182.23 L 609.18 186.05 L 614.29 185.09 L 619.39 183.22 L 624.49 185.05 L 629.59 185.30 L 634.69 186.22 L 639.80 187.01 L 644.90 185.93 L 650.00 180.95 L 650.00 400.00 Z" /><text  class="poloto_text poloto_legend_text" x="675" y="250" >Level 3</text><rect  class="poloto_linefill poloto_legend_icon poloto3fill poloto3legend" x="680" y="226.25" width="50" height="7.5" rx="5" ry="5" /><path  class="poloto_linefill poloto3fill" d=" M 150.00 400.00 L 150.00 286.78 L 155.10 285.82 L 160.20 284.49 L 165.31 282.73 L 170.41 281.35 L 175.51 281.45 L 180.61 280.48 L 185.71 278.10 L 190.82 279.31 L 195.92 280.07 L 201.02 278.44 L 206.12 276.57 L 211.22 276.19 L 216.33 275.89 L 221.43 275.44 L 226.53 275.19 L 231.63 276.59 L 236.73 274.51 L 241.84 271.97 L 246.94 272.02 L 252.04 271.39 L 257.14 271.11 L 262.24 271.05 L 267.35 271.16 L 272.45 268.89 L 277.55 269.29 L 282.65 267.75 L 287.76 266.91 L 292.86 267.33 L 297.96 266.40 L 303.06 266.81 L 308.16 267.91 L 313.27 265.99 L 318.37 266.99 L 323.47 265.06 L 328.57 267.18 L 333.67 263.27 L 338.78 265.02 L 343.88 265.80 L 348.98 264.28 L 354.08 264.29 L 359.18 263.98 L 364.29 261.46 L 369.39 260.57 L 374.49 260.16 L 379.59 258.98 L 384.69 259.78 L 389.80 258.85 L 394.90 258.30 L 400.00 256.80 L 405.10 256.30 L 410.20 258.96 L 415.31 257.50 L 420.41 257.80 L 425.51 254.87 L 430.61 254.17 L 435.71 255.16 L 440.82 256.70 L 445.92 255.38 L 451.02 254.33 L 456.12 254.00 L 461.22 253.30 L 466.33 254.41 L 471.43 252.85 L 476.53 253.61 L 481.63 253.74 L 486.73 252.00 L 491.84 250.99 L 496.94 249.99 L 502.04 249.80 L 507.14 250.38 L 512.24 250.00 L 517.35 250.73 L 522.45 251.54 L 527.55 252.14 L 532.65 249.62 L 537.76 248.62 L 542.86 248.14 L 547.96 248.22 L 553.06 248.00 L 558.16 246.14 L 563.27 245.96 L 568.37 245.81 L 573.47 246.81 L 578.57 247.23 L 583.67 246.52 L 588.78 244.63 L 593.88 245.52 L 598.98 245.56 L 604.08 245.58 L 609.18 247.35 L 614.29 246.56 L 619.39 245.13 L 624.49 246.85 L 629.59 246.52 L 634.69 247.54 L 639.80 247.98 L 644.90 247.18 L 650.00 244.00 L 650.00 400.00 Z" /><text  class="poloto_text poloto_legend_text" x="675" y="300" >Level 4</text><rect  class="poloto_linefill poloto_legend_icon poloto4fill poloto4legend" x="680" y="276.25" width="50" height="7.5" rx="5" ry="5" /><path  class="poloto_linefill poloto4fill" d=" M 150.00 400.00 L 150.00 330.87 L 155.10 329.82 L 160.20 328.82 L 165.31 327.86 L 170.41 326.02 L 175.51 326.26 L 180.61 325.77 L 185.71 324.47 L 190.82 324.70 L 195.92 324.75 L 201.02 323.99 L 206.12 322.97 L 211.22 322.80 L 216.33 321.96 L 221.43 321.12 L 226.53 320.78 L 231.63 321.62 L 236.73 320.65 L 241.84 319.11 L 246.94 319.16 L 252.04 318.55 L 257.14 317.88 L 262.24 317.94 L 267.35 317.31 L 272.45 316.44 L 277.55 316.26 L 282.65 315.59 L 287.76 314.67 L 292.86 315.16 L 297.96 313.97 L 303.06 314.29 L 308.16 314.69 L 313.27 313.54 L 318.37 314.53 L 323.47 313.30 L 328.57 313.64 L 333.67 312.51 L 338.78 312.15 L 343.88 312.64 L 348.98 312.54 L 354.08 311.45 L 359.18 312.04 L 364.29 309.78 L 369.39 309.14 L 374.49 309.13 L 379.59 308.69 L 384.69 309.02 L 389.80 308.35 L 394.90 308.17 L 400.00 307.12 L 405.10 306.75 L 410.20 308.27 L 415.31 307.39 L 420.41 307.38 L 425.51 305.17 L 430.61 304.72 L 435.71 304.67 L 440.82 306.11 L 445.92 305.67 L 451.02 303.86 L 456.12 303.87 L 461.22 303.47 L 466.33 304.10 L 471.43 302.77 L 476.53 303.30 L 481.63 303.91 L 486.73 302.69 L 491.84 301.79 L 496.94 300.91 L 502.04 301.08 L 507.14 301.09 L 512.24 301.65 L 517.35 302.03 L 522.45 301.73 L 527.55 302.40 L 532.65 300.70 L 537.76 300.19 L 542.86 299.85 L 547.96 299.78 L 553.06 299.79 L 558.16 298.83 L 563.27 298.53 L 568.37 298.58 L 573.47 298.69 L 578.57 298.49 L 583.67 298.12 L 588.78 296.76 L 593.88 297.51 L 598.98 297.42 L 604.08 297.82 L 609.18 298.31 L 614.29 297.74 L 619.39 296.74 L 624.49 298.17 L 629.59 297.86 L 634.69 298.23 L 639.80 298.34 L 644.90 297.87 L 650.00 295.78 L 650.00 400.00 Z" /><text  class="poloto_text poloto_legend_text" x="675" y="350" >Level 5</text><rect  class="poloto_linefill poloto_legend_icon poloto5fill poloto5legend" x="680" y="326.25" width="50" height="7.5" rx="5" ry="5" /><path  class="poloto_linefill poloto5fill" d=" M 150.00 400.00 L 150.00 365.51 L 155.10 365.12 L 160.20 363.93 L 165.31 363.37 L 170.41 362.60 L 175.51 362.32 L 180.61 362.04 L 185.71 361.53 L 190.82 361.20 L 195.92 361.19 L 201.02 360.54 L 206.12 359.86 L 211.22 359.27 L 216.33 359.03 L 221.43 358.43 L 226.53 357.72 L 231.63 358.34 L 236.73 357.93 L 241.84 356.95 L 246.94 357.08 L 252.04 356.38 L 257.14 356.07 L 262.24 356.14 L 267.35 355.67 L 272.45 355.09 L 277.55 354.61 L 282.65 354.33 L 287.76 353.72 L 292.86 353.87 L 297.96 353.37 L 303.06 353.53 L 308.16 353.35 L 313.27 352.77 L 318.37 352.97 L 323.47 352.31 L 328.57 352.37 L 333.67 351.83 L 338.78 351.52 L 343.88 351.66 L 348.98 351.49 L 354.08 350.22 L 359.18 351.10 L 364.29 349.91 L 369.39 349.51 L 374.49 349.45 L 379.59 349.34 L 384.69 349.10 L 389.80 348.94 L 394.90 348.30 L 400.00 347.70 L 405.10 347.61 L 410.20 348.75 L 415.31 347.90 L 420.41 347.51 L 425.51 346.55 L 430.61 346.24 L 435.71 345.80 L 440.82 346.44 L 445.92 346.39 L 451.02 345.18 L 456.12 345.22 L 461.22 344.87 L 466.33 345.12 L 471.43 344.51 L 476.53 344.35 L 481.63 344.95 L 486.73 344.82 L 491.84 343.79 L 496.94 343.11 L 502.04 343.45 L 507.14 343.61 L 512.24 343.49 L 517.35 343.45 L 522.45 343.26 L 527.55 343.66 L 532.65 342.53 L 537.76 342.24 L 542.86 342.24 L 547.96 341.98 L 553.06 341.78 L 558.16 341.42 L 563.27 341.30 L 568.37 341.28 L 573.47 341.27 L 578.57 341.24 L 583.67 340.64 L 588.78 340.30 L 593.88 341.04 L 598.98 340.81 L 604.08 340.97 L 609.18 340.84 L 614.29 340.47 L 619.39 339.79 L 624.49 340.49 L 629.59 340.16 L 634.69 340.42 L 639.80 339.88 L 644.90 339.87 L 650.00 339.18 L 650.00 400.00 Z" /><text  class="poloto_text poloto_legend_text" x="675" y="400" >Level 6</text><rect  class="poloto_linefill poloto_legend_icon poloto6fill poloto6legend" x="680" y="376.25" width="50" height="7.5" rx="5" ry="5" /><path  class="poloto_linefill poloto6fill" d=" M 150.00 400.00 L 150.00 387.14 L 155.10 386.94 L 160.20 386.35 L 165.31 386.23 L 170.41 385.89 L 175.51 385.43 L 180.61 385.39 L 185.71 385.05 L 190.82 385.24 L 195.92 385.05 L 201.02 384.17 L 206.12 384.32 L 211.22 384.00 L 216.33 383.65 L 221.43 383.45 L 226.53 383.07 L 231.63 383.17 L 236.73 382.77 L 241.84 382.17 L 246.94 382.36 L 252.04 381.89 L 257.14 381.84 L 262.24 381.79 L 267.35 381.60 L 272.45 381.45 L 277.55 380.80 L 282.65 381.02 L 287.76 380.68 L 292.86 380.63 L 297.96 380.69 L 303.06 380.55 L 308.16 380.28 L 313.27 379.90 L 318.37 380.15 L 323.47 379.84 L 328.57 379.71 L 333.67 379.41 L 338.78 379.35 L 343.88 379.16 L 348.98 378.90 L 354.08 378.34 L 359.18 378.78 L 364.29 378.32 L 369.39 377.86 L 374.49 378.21 L 379.59 377.99 L 384.69 377.64 L 389.80 377.67 L 394.90 377.46 L 400.00 377.44 L 405.10 377.16 L 410.20 377.15 L 415.31 376.92 L 420.41 376.91 L 425.51 376.44 L 430.61 376.24 L 435.71 376.00 L 440.82 376.20 L 445.92 376.44 L 451.02 375.43 L 456.12 375.52 L 461.22 375.43 L 466.33 375.37 L 471.43 375.01 L 476.53 374.97 L 481.63 375.07 L 486.73 375.08 L 491.84 374.70 L 496.94 374.09 L 502.04 374.56 L 507.14 374.51 L 512.24 374.37 L 517.35 374.30 L 522.45 374.09 L 527.55 374.47 L 532.65 373.69 L 537.76 373.37 L 542.86 373.41 L 547.96 373.11 L 553.06 373.11 L 558.16 373.14 L 563.27 373.13 L 568.37 372.73 L 573.47 373.03 L 578.57 372.84 L 583.67 372.76 L 588.78 372.71 L 593.88 372.90 L 598.98 372.83 L 604.08 372.48 L 609.18 372.54 L 614.29 372.32 L 619.39 372.00 L 624.49 372.25 L 629.59 372.17 L 634.69 372.26 L 639.80 372.02 L 644.90 372.06 L 650.00 371.61 L 650.00 400.00 Z" /><text  class="poloto_labels poloto_text poloto_title" x="400" y="37.5" >Complexity of rebal levels with abspiral(5000,x)</text><text  class="poloto_labels poloto_text poloto_xname" x="400" y="481.25" >Spiral Grow</text><text  class="poloto_labels poloto_text poloto_yname" transform="rotate(-90,37.5,250)" x="37.5" y="250" >Number of Comparisons</text><text  class="poloto_tick_labels poloto_text" dominant-baseline="middle" text-anchor="start" x="150" y="70" ></text><line  class="poloto_axis_lines" stroke="black" x1="150" x2="144" y1="400" y2="400" /><text  class="poloto_tick_labels poloto_text" dominant-baseline="middle" text-anchor="end" x="135" y="400" >0</text><line  class="poloto_axis_lines" stroke="black" x1="150" x2="144" y1="301.890568740373" y2="301.890568740373" /><text  class="poloto_tick_labels poloto_text" dominant-baseline="middle" text-anchor="end" x="135" y="301.890568740373" >2e5</text><line  class="poloto_axis_lines" stroke="black" x1="150" x2="144" y1="203.781137480746" y2="203.781137480746" /><text  class="poloto_tick_labels poloto_text" dominant-baseline="middle" text-anchor="end" x="135" y="203.781137480746" >4e5</text><line  class="poloto_axis_lines" stroke="black" x1="150" x2="144" y1="105.67170622111905" y2="105.67170622111905" /><text  class="poloto_tick_labels poloto_text" dominant-baseline="middle" text-anchor="end" x="135" y="105.67170622111905" >6e5</text><text  class="poloto_tick_labels poloto_text" dominant-baseline="middle" text-anchor="start" x="440.00000000000006" y="70" ></text><line  class="poloto_axis_lines" stroke="black" x1="201.58730158730162" x2="201.58730158730162" y1="400" y2="405" /><text  class="poloto_tick_labels poloto_text" dominant-baseline="start" text-anchor="middle" x="201.58730158730162" y="430" >0.7</text><line  class="poloto_axis_lines" stroke="black" x1="258.2766439909297" x2="258.2766439909297" y1="400" y2="405" /><text  class="poloto_tick_labels poloto_text" dominant-baseline="start" text-anchor="middle" x="258.2766439909297" y="430" >0.8</text><line  class="poloto_axis_lines" stroke="black" x1="314.9659863945579" x2="314.9659863945579" y1="400" y2="405" /><text  class="poloto_tick_labels poloto_text" dominant-baseline="start" text-anchor="middle" x="314.9659863945579" y="430" >0.9</text><line  class="poloto_axis_lines" stroke="black" x1="371.6553287981859" x2="371.6553287981859" y1="400" y2="405" /><text  class="poloto_tick_labels poloto_text" dominant-baseline="start" text-anchor="middle" x="371.6553287981859" y="430" >1.0</text><line  class="poloto_axis_lines" stroke="black" x1="428.3446712018141" x2="428.3446712018141" y1="400" y2="405" /><text  class="poloto_tick_labels poloto_text" dominant-baseline="start" text-anchor="middle" x="428.3446712018141" y="430" >1.1</text><line  class="poloto_axis_lines" stroke="black" x1="485.03401360544217" x2="485.03401360544217" y1="400" y2="405" /><text  class="poloto_tick_labels poloto_text" dominant-baseline="start" text-anchor="middle" x="485.03401360544217" y="430" >1.2</text><line  class="poloto_axis_lines" stroke="black" x1="541.7233560090704" x2="541.7233560090704" y1="400" y2="405" /><text  class="poloto_tick_labels poloto_text" dominant-baseline="start" text-anchor="middle" x="541.7233560090704" y="430" >1.3</text><line  class="poloto_axis_lines" stroke="black" x1="598.4126984126984" x2="598.4126984126984" y1="400" y2="405" /><text  class="poloto_tick_labels poloto_text" dominant-baseline="start" text-anchor="middle" x="598.4126984126984" y="430" >1.4</text><path  stroke="black" fill="none" class="poloto_axis_lines" style="stroke-dasharray:14.172335600907028;stroke-dashoffset:-51.587301587301624;" d=" M 150 400 L 650 400" /><path  stroke="black" fill="none" class="poloto_axis_lines" style="stroke-dasharray:12.263678907453373;stroke-dashoffset:-0;" d=" M 150 400 L 150 100" /></svg>