<svg  width="800" class="poloto" height="500" viewBox="0 0 800 500" xmlns="http://www.w3.org/2000/svg" ><rect  class="poloto_background" fill="white" x="0" y="0" width="800" height="500" /><text  class="poloto_text" alignment-baseline="middle" text-anchor="start" font-size="large" x="675" y="100" >Level 0</text><rect  class="poloto0fill" x="680" y="76.25" width="50" height="7.5" rx="5" ry="5" /><path  class="poloto0fill" d=" M 150 400 L 150 100 L 155.10204081632654 100.97798369508433 L 160.20408163265307 122.52897379519482 L 165.3061224489796 130.99045582177092 L 170.40816326530614 137.95372640911694 L 175.51020408163268 128.6907824091881 L 180.61224489795921 116.75266727878653 L 185.71428571428567 114.080386302448 L 190.8163265306123 154.28042943244046 L 195.91836734693874 150.20820225743273 L 201.02040816326527 165.60961131873293 L 206.1224489795918 169.6798376178016 L 211.22448979591834 175.25850205534428 L 216.32653061224488 175.34831915305148 L 221.42857142857142 184.52144605527315 L 226.53061224489795 190.15035471084013 L 231.6326530612245 191.28551832691204 L 236.73469387755102 187.1850565692092 L 241.83673469387756 198.2876948352946 L 246.9387755102041 203.31100503998422 L 252.0408163265306 205.40036415942097 L 257.14285714285717 195.0020342238714 L 262.2448979591836 210.21224847322054 L 267.34693877551024 215.08260282834934 L 272.4489795918367 215.11372756517858 L 277.5510204081633 206.5550918957855 L 282.65306122448976 218.28444896988242 L 287.75510204081627 212.36341242721815 L 292.85714285714283 223.7904149149739 L 297.9591836734694 229.83706200269896 L 303.0612244897959 216.0525830196775 L 308.1632653061224 232.24722823102562 L 313.265306122449 224.38356347111963 L 318.36734693877554 235.21141477491258 L 323.46938775510205 240.05753629922432 L 328.57142857142856 227.16611494365313 L 333.6734693877551 238.51597254798216 L 338.77551020408157 233.2601160952684 L 343.8775510204082 241.17313579500362 L 348.97959183673464 248.6835347918978 L 354.0816326530612 248.28980687100798 L 359.1836734693877 253.75419906047762 L 364.28571428571433 244.042836530659 L 369.3877551020408 252.779550158625 L 374.48979591836724 259.5062727460689 L 379.59183673469386 245.9667899058032 L 384.6938775510205 255.15725773282972 L 389.7959183673469 262.8744139100896 L 394.8979591836734 250.86871363685884 L 400 262.4606772298095 L 405.1020408163266 267.39594889318215 L 410.2040816326531 260.20835788111685 L 415.3061224489795 266.58225934464645 L 420.40816326530614 270.20851350480103 L 425.5102040816326 271.4917419403606 L 430.6122448979592 267.82680417871825 L 435.71428571428567 271.9137044439455 L 440.8163265306121 274.3329857737721 L 445.91836734693874 269.05134025339987 L 451.02040816326536 272.18271109796956 L 456.1224489795918 276.49971209618434 L 461.22448979591826 270.49130397084946 L 466.3265306122449 275.24827535610035 L 471.4285714285715 280.91297745902096 L 476.53061224489795 269.5982463433993 L 481.6326530612244 278.08373888124356 L 486.734693877551 282.7482253342019 L 491.8367346938776 285.2724414910528 L 496.9387755102041 287.4320535879041 L 502.04081632653055 282.53368696962895 L 507.14285714285717 287.42160456911137 L 512.2448979591837 287.6714917419404 L 517.3469387755102 287.92471370800104 L 522.4489795918366 292.4335764768132 L 527.5510204081631 278.9510074410353 L 532.6530612244898 286.4994230807709 L 537.7551020408164 294.3184016113721 L 542.8571428571429 294.6954555661034 L 547.9591836734693 295.1943406335663 L 553.0612244897959 298.1127293504045 L 558.1632653061224 293.26794174338545 L 563.2653061224489 297.25190805752743 L 568.3673469387754 299.61649877835407 L 573.469387755102 301.278782044584 L 578.5714285714287 297.5511501701856 L 583.6734693877552 302.172061991583 L 588.7755102040816 304.12958561859307 L 593.877551020408 291.88044543944795 L 598.9795918367347 298.4217535232091 L 604.0816326530612 304.4161555169708 L 609.1836734693877 305.9915118396276 L 614.2857142857142 297.2038870349909 L 619.3877551020407 301.9317345593516 L 624.4897959183675 303.28521597232566 L 629.5918367346939 305.9797289035422 L 634.6938775510203 307.5081758014064 L 639.795918367347 309.3469807893678 L 644.8979591836735 310.99414632628066 L 650 299.64517800014676 L 650 400 Z" /><text  class="poloto_text" alignment-baseline="middle" text-anchor="start" font-size="large" x="675" y="150" >Level 1</text><rect  class="poloto1fill" x="680" y="126.25" width="50" height="7.5" rx="5" ry="5" /><path  class="poloto1fill" d=" M 150 400 L 150 142.0017207533076 L 155.10204081632654 139.76207361889539 L 160.20408163265307 159.16212208455707 L 165.3061224489796 163.70210959019838 L 170.40816326530614 168.65094274604664 L 175.51020408163268 160.86153271543324 L 180.61224489795921 148.31648521686168 L 185.71428571428567 148.43453689726394 L 190.8163265306123 182.4176361651657 L 195.91836734693874 177.1528869305007 L 201.02040816326527 191.34799012011928 L 206.1224489795918 193.5131602056901 L 211.22448979591834 198.17875825639226 L 216.32653061224488 197.83216207984387 L 221.42857142857142 204.65448207326324 L 226.53061224489795 208.50905841001511 L 231.6326530612245 209.3912223795751 L 236.73469387755102 205.7823091442254 L 241.83673469387756 215.29803047111739 L 246.9387755102041 219.4838629355518 L 252.0408163265306 222.4729492689022 L 257.14285714285717 212.1039655137916 L 262.2448979591836 225.71103349688647 L 267.34693877551024 230.15831375068643 L 272.4489795918367 231.27702572014863 L 277.5510204081633 222.1812660209025 L 282.65306122448976 232.95042496381754 L 287.75510204081627 227.40155134581138 L 292.85714285714283 237.86746642419016 L 297.9591836734694 243.1406638017088 L 303.0612244897959 230.7527962241248 L 308.1632653061224 246.01992427796174 L 313.265306122449 238.26363986011657 L 318.36734693877554 248.3740659799957 L 323.46938775510205 252.77754928268604 L 328.57142857142856 240.15402298339498 L 333.6734693877551 252.71085341805193 L 338.77551020408157 245.9614542366325 L 343.8775510204082 253.1074714930759 L 348.97959183673464 260.59408229825056 L 354.0816326530612 259.6994684339589 L 359.1836734693877 265.11339408585536 L 364.28571428571433 256.23817537899924 L 369.3877551020408 263.9202050675518 L 374.48979591836724 270.30966889949605 L 379.59183673469386 257.3428812168883 L 384.6938775510205 265.90018296898864 L 389.7959183673469 272.91236385706634 L 394.8979591836734 261.75347874513955 L 400 272.59689241734714 L 405.1020408163266 276.98347943433015 L 410.2040816326531 270.015317816911 L 415.3061224489795 275.53751308906345 L 420.40816326530614 279.457229053608 L 425.5102040816326 280.59194803058233 L 430.6122448979592 276.8725419794888 L 435.71428571428567 280.3013763803265 L 440.8163265306121 282.9529816386285 L 445.91836734693874 277.9149983437194 L 451.02040816326536 280.5597116960092 L 456.1224489795918 284.5563502244316 L 461.22448979591826 279.0281523244621 L 466.3265306122449 283.0717002776771 L 471.4285714285715 288.769527993366 L 476.53061224489795 278.5301565351943 L 481.6326530612244 286.1277047952104 L 486.734693877551 290.2928615416082 L 491.8367346938776 292.9513587059224 L 496.9387755102041 294.90465826150563 L 502.04081632653055 290.40780074832765 L 507.14285714285717 294.7730450886277 L 512.2448979591837 294.91688583668855 L 517.3469387755102 295.16721764861506 L 522.4489795918366 299.7098729888418 L 527.5510204081631 286.9198293475144 L 532.6530612244898 293.9233397731896 L 537.7551020408164 301.188742627328 L 542.8571428571429 301.37660264604733 L 547.9591836734693 302.1389363788147 L 553.0612244897959 304.8156637461289 L 558.1632653061224 299.7510021053661 L 563.2653061224489 303.46573944593524 L 568.3673469387754 305.8948028359082 L 573.469387755102 307.6935903050892 L 578.5714285714287 304.19539220503196 L 583.6734693877552 308.1886959402227 L 588.7755102040816 310.04439721389144 L 593.877551020408 299.23566539129354 L 598.9795918367347 305.116017456531 L 604.0816326530612 310.8720928940003 L 609.1836734693877 312.1593230814379 L 614.2857142857142 305.1506993061407 L 619.3877551020407 308.20870469961295 L 624.4897959183675 310.0795237025987 L 629.5918367346939 312.119750201755 L 634.6938775510203 313.260916445644 L 639.795918367347 314.61084074583766 L 644.8979591836735 315.9572079332508 L 650 305.44949677970135 L 650 400 Z" /><text  class="poloto_text" alignment-baseline="middle" text-anchor="start" font-size="large" x="675" y="200" >Level 2</text><rect  class="poloto2fill" x="680" y="176.25" width="50" height="7.5" rx="5" ry="5" /><path  class="poloto2fill" d=" M 150 400 L 150 175.66979322058774 L 155.10204081632654 174.3243153113697 L 160.20408163265307 190.7784074361443 L 165.3061224489796 194.66055139694495 L 170.40816326530614 198.45021042545298 L 175.51020408163268 193.32196539373908 L 180.61224489795921 179.36852355364465 L 185.71428571428567 179.58039408363226 L 190.8163265306123 210.15666858602546 L 195.91836734693874 204.99596490018968 L 201.02040816326527 217.67484876712697 L 206.1224489795918 219.5812388979176 L 211.22448979591834 223.35111148658416 L 216.32653061224488 224.0033970427054 L 221.42857142857142 229.5789490065651 L 226.53061224489795 232.6678568173178 L 231.6326530612245 232.9424214600614 L 236.73469387755102 229.74168691627224 L 241.83673469387756 239.3261049837374 L 246.9387755102041 243.21202837686724 L 252.0408163265306 244.45790712823174 L 257.14285714285717 235.8165685866924 L 262.2448979591836 248.12506808536182 L 267.34693877551024 252.57079210232038 L 272.4489795918367 252.33735657610112 L 277.5510204081633 242.90078100857488 L 282.65306122448976 253.5674506395022 L 287.75510204081627 247.31804812328954 L 292.85714285714283 256.69148493896216 L 297.9591836734694 261.36330793703024 L 303.0612244897959 249.40296085175066 L 308.1632653061224 264.3586192177464 L 313.265306122449 256.8159838862791 L 318.36734693877554 265.3870694504038 L 323.46938775510205 269.1691696142534 L 328.57142857142856 257.175252277108 L 333.6734693877551 268.94596078727807 L 338.77551020408157 262.4846877410778 L 343.8775510204082 269.0037638699609 L 348.97959183673464 276.4194547390747 L 354.0816326530612 274.9790463825275 L 359.1836734693877 280.39741842539956 L 364.28571428571433 271.85767991765283 L 369.3877551020408 278.9732393959133 L 374.48979591836724 284.864485119041 L 379.59183673469386 272.9059165901517 L 384.6938775510205 280.6157362223018 L 389.7959183673469 286.9903046444777 L 394.8979591836734 276.7213646863182 L 400 286.6623833100269 L 405.1020408163266 290.68481090610777 L 410.2040816326531 284.93940680698 L 415.3061224489795 289.08766726767055 L 420.40816326530614 292.7679450781787 L 425.5102040816326 293.9851446077505 L 430.6122448979592 290.6534638497298 L 435.71428571428567 293.5891934913729 L 440.8163265306121 295.57828649430974 L 445.91836734693874 291.28863080059494 L 451.02040816326536 293.3406402358366 L 456.1224489795918 297.1994406440153 L 461.22448979591826 292.2434932626061 L 466.3265306122449 295.63764581383407 L 471.4285714285715 300.97220338681603 L 476.53061224489795 291.35399274793633 L 481.6326530612244 298.4993430457334 L 486.734693877551 302.21986069457074 L 491.8367346938776 304.73829654315335 L 496.9387755102041 306.47038814770025 L 502.04081632653055 302.4339544200461 L 507.14285714285717 306.85188849340716 L 512.2448979591837 305.99551359150564 L 517.3469387755102 306.4034699635174 L 522.4489795918366 310.87942943911 L 527.5510204081631 298.7467847035258 L 532.6530612244898 305.0628830843725 L 537.7551020408164 311.937670491304 L 542.8571428571429 311.97168538226737 L 547.9591836734693 313.0199220547662 L 553.0612244897959 315.46943884322695 L 558.1632653061224 310.5419483640616 L 563.2653061224489 314.0219162611188 L 568.3673469387754 317.11571510194466 L 573.469387755102 317.75621772198053 L 578.5714285714287 314.54058776842305 L 583.6734693877552 318.15305811655327 L 588.7755102040816 319.97407754061226 L 593.877551020408 310.0586256650134 L 598.9795918367347 315.18664837717847 L 604.0816326530612 320.6461495365749 L 609.1836734693877 321.69149605493965 L 614.2857142857142 315.4500970424831 L 619.3877551020407 317.72331442876106 L 624.4897959183675 319.8182315369173 L 629.5918367346939 321.66659626547624 L 634.6938775510203 322.6999375282068 L 639.795918367347 324.8935645160215 L 644.8979591836735 324.95225687689947 L 650 315.2426729034711 L 650 400 Z" /><text  class="poloto_text" alignment-baseline="middle" text-anchor="start" font-size="large" x="675" y="250" >Level 3</text><rect  class="poloto3fill" x="680" y="226.25" width="50" height="7.5" rx="5" ry="5" /><path  class="poloto3fill" d=" M 150 400 L 150 228.8997627850415 L 155.10204081632654 228.04516643953022 L 160.20408163265307 237.90681698432428 L 165.3061224489796 240.7042638666261 L 170.40816326530614 241.84609706916143 L 175.51020408163268 237.3836990860443 L 180.61224489795921 224.498502677839 L 185.71428571428567 224.28107415913192 L 190.8163265306123 247.75913010806957 L 195.91836734693874 243.93167675626887 L 201.02040816326527 252.2982283355158 L 206.1224489795918 253.10680453442959 L 211.22448979591834 257.0576452358032 L 216.32653061224488 256.0992256610116 L 221.42857142857142 259.9549135955074 L 226.53061224489795 262.0404932826149 L 231.6326530612245 261.84974310976145 L 236.73469387755102 259.0522962274596 L 241.83673469387756 266.93641438585337 L 246.9387755102041 270.4550658843983 L 252.0408163265306 270.9559518278002 L 257.14285714285717 263.28881754901596 L 262.2448979591836 273.15535912388316 L 267.34693877551024 276.85364481784245 L 272.4489795918367 276.4410197353063 L 277.5510204081633 268.9495179000585 L 282.65306122448976 276.80740235169617 L 287.75510204081627 271.28098300811695 L 292.85714285714283 279.10374097104733 L 297.9591836734694 282.5512502139826 L 303.0612244897959 272.2994288610792 L 308.1632653061224 285.1145946114188 L 313.265306122449 279.1417576138888 L 318.36734693877554 286.31489785528333 L 323.46938775510205 288.83488994070746 L 328.57142857142856 278.1457660353533 L 333.6734693877551 288.58077869645155 L 338.77551020408157 281.8151501879712 L 343.8775510204082 289.1434694744144 L 348.97959183673464 294.6654424270181 L 354.0816326530612 292.52361589406917 L 359.1836734693877 297.2685820236859 L 364.28571428571433 289.8869060455355 L 369.3877551020408 295.852184178407 L 374.48979591836724 300.84637052220637 L 379.59183673469386 289.7810819403161 L 384.6938775510205 296.365075377443 L 389.7959183673469 302.4159465365949 L 394.8979591836734 293.48714881848275 L 400 301.21052994310844 L 405.1020408163266 304.41660015606834 L 410.2040816326531 298.92508498164756 L 415.3061224489795 302.640489280863 L 420.40816326530614 306.1718129936884 L 425.5102040816326 306.7678517039682 L 430.6122448979592 303.7165158969593 L 435.71428571428567 306.4185876928344 L 440.8163265306121 307.8876752711743 L 445.91836734693874 304.19339132909295 L 451.02040816326536 305.6831546254694 L 456.1224489795918 308.90656576323414 L 461.22448979591826 304.45283824251953 L 466.3265306122449 307.3407691811749 L 471.4285714285715 312.49146848731556 L 476.53061224489795 303.69984193080086 L 481.6326530612244 309.7867288568551 L 486.734693877551 312.98724108109553 L 491.8367346938776 315.45476575300745 L 496.9387755102041 316.90717936518877 L 502.04081632653055 313.21689717498555 L 507.14285714285717 317.23487838009083 L 512.2448979591837 316.1855301098481 L 517.3469387755102 316.46787593679903 L 522.4489795918366 320.68327690122123 L 527.5510204081631 309.90144574402575 L 532.6530612244898 315.57281743340974 L 537.7551020408164 321.3755799761229 L 542.8571428571429 321.27620313781813 L 547.9591836734693 322.40825428020713 L 553.0612244897959 324.32798358392455 L 558.1632653061224 319.84668843916114 L 563.2653061224489 323.0567604039991 L 568.3673469387754 325.77973023745955 L 573.469387755102 325.9546957223496 L 578.5714285714287 322.75662901314575 L 583.6734693877552 325.6974720044108 L 588.7755102040816 327.2597114736896 L 593.877551020408 318.3618161728579 L 598.9795918367347 322.97472449049917 L 604.0816326530612 327.7788276200915 L 609.1836734693877 328.7250196197002 L 614.2857142857142 323.0696549378284 L 619.3877551020407 325.2884040346552 L 624.4897959183675 328.1838938379691 L 629.5918367346939 328.4920287325785 L 634.6938775510203 329.21056551423624 L 639.795918367347 331.24212155099013 L 644.8979591836735 331.19965851717313 L 650 322.4227050508778 L 650 400 Z" /><text  class="poloto_text" alignment-baseline="middle" text-anchor="start" font-size="large" x="675" y="300" >Level 4</text><rect  class="poloto4fill" x="680" y="276.25" width="50" height="7.5" rx="5" ry="5" /><path  class="poloto4fill" d=" M 150 400 L 150 275.95769703625814 L 155.10204081632654 274.57731495788164 L 160.20408163265307 281.87673270298336 L 165.3061224489796 284.12927437122477 L 170.40816326530614 284.18663281481 L 175.51020408163268 280.4896810381434 L 180.61224489795921 269.6080284035455 L 185.71428571428567 268.54267312579066 L 190.8163265306123 286.3197888853565 L 195.91836734693874 284.121937826115 L 201.02040816326527 290.2117149063034 L 206.1224489795918 290.15413414316936 L 211.22448979591834 294.0551752656163 L 216.32653061224488 291.3288706389242 L 221.42857142857142 294.7503684946521 L 226.53061224489795 295.27348639293206 L 231.6326530612245 294.79972343448134 L 236.73469387755102 292.0618581912526 L 241.83673469387756 298.54225071864795 L 246.9387755102041 301.3946105294985 L 252.0408163265306 301.96397089392474 L 257.14285714285717 294.7290258179692 L 262.2448979591836 302.66116499889955 L 267.34693877551024 305.6044535052012 L 272.4489795918367 305.45505476842084 L 277.5510204081633 298.53647041037965 L 282.65306122448976 304.93994037389706 L 287.75510204081627 299.78546163542705 L 292.85714285714283 306.8232092716145 L 297.9591836734694 310.2931727889765 L 303.0612244897959 299.80858286850025 L 308.1632653061224 311.45279155541425 L 313.265306122449 305.80298486226195 L 318.36734693877554 312.44455906252296 L 323.46938775510205 313.5317016560583 L 328.57142857142856 304.46484349815364 L 333.6734693877551 313.18755099454654 L 338.77551020408157 306.86033663626074 L 343.8775510204082 313.3522897801927 L 348.97959183673464 318.2066371278093 L 354.0816326530612 316.292910451909 L 359.1836734693877 320.30955773972164 L 364.28571428571433 314.02880816713093 L 369.3877551020408 319.218635713857 L 374.48979591836724 323.0278588626577 L 379.59183673469386 315.007014181764 L 384.6938775510205 319.2048519018326 L 389.7959183673469 324.1278959900223 L 394.8979591836734 316.4211888315552 L 400 323.9807204487298 L 405.1020408163266 325.95691891783736 L 410.2040816326531 321.2619746866962 L 415.3061224489795 324.49472324550976 L 420.40816326530614 327.2170261203238 L 425.5102040816326 327.53472075553077 L 430.6122448979592 324.8073045310947 L 435.71428571428567 327.07674248504344 L 440.8163265306121 328.2670413492129 L 445.91836734693874 325.601207639789 L 451.02040816326536 326.6425524062756 L 456.1224489795918 329.92376662672325 L 461.22448979591826 325.6361118089475 L 466.3265306122449 327.7161335073355 L 471.4285714285715 331.9808894115869 L 476.53061224489795 324.3395442004611 L 481.6326530612244 329.70433723207714 L 486.734693877551 333.314139745622 L 491.8367346938776 334.4797611398768 L 496.9387755102041 336.0877984362043 L 502.04081632653055 331.99800801684296 L 507.14285714285717 335.3730410868758 L 512.2448979591837 333.9690931363286 L 517.3469387755102 335.09380773360783 L 522.4489795918366 337.8465683866048 L 527.5510204081631 328.24125228155435 L 532.6530612244898 333.34793231703657 L 537.7551020408164 338.3027681007019 L 542.8571428571429 338.612236912604 L 547.9591836734693 339.01285673950593 L 553.0612244897959 341.0079523702599 L 558.1632653061224 336.5935754096794 L 563.2653061224489 340.5224064757238 L 568.3673469387754 341.6786904489299 L 573.469387755102 341.447922757296 L 578.5714285714287 338.7854238411038 L 583.6734693877552 341.2560609866986 L 588.7755102040816 342.4192368659169 L 593.877551020408 335.3216852711076 L 598.9795918367347 338.77230698772576 L 604.0816326530612 342.94702347472116 L 609.1836734693877 343.8436382149519 L 614.2857142857142 338.69271658926243 L 619.3877551020407 340.32431975776063 L 624.4897959183675 343.35586912492806 L 629.5918367346939 343.65933530901304 L 634.6938775510203 344.02994199682973 L 639.795918367347 345.74691587205956 L 644.8979591836735 345.6021858458036 L 650 337.92260167228767 L 650 400 Z" /><text  class="poloto_text" alignment-baseline="middle" text-anchor="start" font-size="large" x="675" y="350" >Level 5</text><rect  class="poloto5fill" x="680" y="326.25" width="50" height="7.5" rx="5" ry="5" /><path  class="poloto5fill" d=" M 150 400 L 150 351.7691078094188 L 155.10204081632654 350.5776973475055 L 160.20408163265307 351.25488269309017 L 165.3061224489796 353.04477738031983 L 170.40816326530614 351.5763567606263 L 175.51020408163268 348.24178584847147 L 180.61224489795921 338.32922412700674 L 185.71428571428567 339.5762144761151 L 190.8163265306123 348.2446760026056 L 195.91836734693874 347.02569791664354 L 201.02040816326527 350.75999937750527 L 206.1224489795918 349.49011011487255 L 211.22448979591834 351.15906296756583 L 216.32653061224488 348.7500083369831 L 221.42857142857142 349.912517257555 L 226.53061224489795 348.09927901770334 L 231.6326530612245 348.703543551288 L 236.73469387755102 346.468787446949 L 241.83673469387756 348.03124923577656 L 246.9387755102041 350.0056691484939 L 252.0408163265306 349.8282581485673 L 257.14285714285717 344.6010809176462 L 262.2448979591836 348.88362238580004 L 267.34693877551024 350.9129552270661 L 272.4489795918367 350.11216021235964 L 277.5510204081633 345.2073463271699 L 282.65306122448976 349.16307805861675 L 287.75510204081627 345.1268666505115 L 292.85714285714283 348.4598813258249 L 297.9591836734694 350.2613366295912 L 303.0612244897959 342.0192839976612 L 308.1632653061224 348.8889580549707 L 313.265306122449 344.56106339886577 L 318.36734693877554 349.20131702100696 L 323.46938775510205 350.3598241897009 L 328.57142857142856 343.0719670611357 L 333.6734693877551 348.66485994980025 L 338.77551020408157 343.5266105383913 L 343.8775510204082 347.6995484689964 L 348.97959183673464 350.00233435526224 L 354.0816326530612 347.202219638375 L 359.1836734693877 349.2611209796289 L 364.28571428571433 344.3578633312806 L 369.3877551020408 346.9621145256924 L 374.48979591836724 350.06814094170113 L 379.59183673469386 343.79495023376904 L 384.6938775510205 345.73402133823026 L 389.7959183673469 348.85761099859275 L 394.8979591836734 343.4703636925499 L 400 348.47944544611755 L 405.1020408163266 349.1510728029827 L 410.2040816326531 345.154656594109 L 415.3061224489795 347.75935242761835 L 420.40816326530614 349.4565398630067 L 425.5102040816326 349.462320171275 L 430.6122448979592 347.52213746906983 L 435.71428571428567 349.61616529903097 L 440.8163265306121 349.14106842328755 L 445.91836734693874 347.0997303263874 L 451.02040816326536 347.4049750668626 L 456.1224489795918 349.4476470810555 L 461.22448979591826 345.8229491577424 L 466.3265306122449 347.3971938826553 L 471.4285714285715 351.0994813284927 L 476.53061224489795 345.55838889469396 L 481.6326530612244 348.31337274317866 L 486.734693877551 350.59770610689566 L 491.8367346938776 351.12371415930977 L 496.9387755102041 352.47541701589364 L 502.04081632653055 347.82338045766704 L 507.14285714285717 350.53812446782257 L 512.2448979591837 349.0861554947388 L 517.3469387755102 349.7684541899454 L 522.4489795918366 351.9007209822967 L 527.5510204081631 344.9743554400482 L 532.6530612244898 348.3665071153372 L 537.7551020408164 351.95096520032104 L 542.8571428571429 352.12793156115015 L 547.9591836734693 352.3353557001621 L 553.0612244897959 353.9169369701848 L 558.1632653061224 349.5683665960432 L 563.2653061224489 353.2128509591977 L 568.3673469387754 353.9560652107701 L 573.469387755102 353.4582917410511 L 578.5714285714287 350.8700475541515 L 583.6734693877552 352.4489609895888 L 588.7755102040816 353.7413045266484 L 593.877551020408 348.38006860781275 L 598.9795918367347 351.3751575689802 L 604.0816326530612 353.85090806419703 L 609.1836734693877 354.4787384699524 L 614.2857142857142 350.4196281483228 L 619.3877551020407 352.15816701978423 L 624.4897959183675 354.0414359175017 L 629.5918367346939 354.0007514400749 L 634.6938775510203 354.30621850009896 L 639.795918367347 355.79175772504857 L 644.8979591836735 355.5712167326585 L 650 349.33204091568973 L 650 400 Z" /><text  class="poloto_text" alignment-baseline="middle" text-anchor="start" font-size="large" x="675" y="400" >Level 6</text><rect  class="poloto6fill" x="680" y="376.25" width="50" height="7.5" rx="5" ry="5" /><path  class="poloto6fill" d=" M 150 400 L 150 399.03179836506206 L 155.10204081632654 398.8261527824403 L 160.20408163265307 400 L 165.3061224489796 399.7456664361954 L 170.40816326530614 397.9995687000754 L 175.51020408163268 395.3212850959198 L 180.61224489795921 394.695900205201 L 185.71428571428567 392.25216372500853 L 190.8163265306123 396.9453293997595 L 195.91836734693874 393.1836826343977 L 201.02040816326527 395.4751302236757 L 206.1224489795918 394.0742947468114 L 211.22448979591834 394.98224778402994 L 216.32653061224488 393.2001342810075 L 221.42857142857142 393.75304299882396 L 226.53061224489795 391.857101886826 L 231.6326530612245 393.08808522842224 L 236.73469387755102 390.06075993268166 L 241.83673469387756 391.78818282670414 L 246.9387755102041 392.03362360855755 L 252.0408163265306 391.4956103005093 L 257.14285714285717 387.94072071551324 L 262.2448979591836 390.72349450759555 L 267.34693877551024 390.93958910900994 L 272.4489795918367 390.0589813762914 L 277.5510204081633 386.1710571072225 L 282.65306122448976 388.7221739294758 L 287.75510204081627 386.1619420057225 L 292.85714285714283 387.7999924411354 L 297.9591836734694 388.99407073763405 L 303.0612244897959 383.70820114583495 L 308.1632653061224 387.5352098585381 L 313.265306122449 383.9496401758103 L 318.36734693877554 387.095239471502 L 323.46938775510205 387.65281689984283 L 328.57142857142856 382.17197306376346 L 333.6734693877551 385.913611069735 L 338.77551020408157 383.1157195483356 L 343.8775510204082 384.16395622083445 L 348.97959183673464 386.3164540921248 L 354.0816326530612 383.79023705933486 L 359.1836734693877 385.7946701111375 L 364.28571428571433 381.03747640633793 L 369.3877551020408 382.7551172402141 L 374.48979591836724 384.96875298741895 L 379.59183673469386 379.9807915909854 L 384.6938775510205 381.5221330226788 L 389.7959183673469 383.5467971534205 L 394.8979591836734 379.9374392789733 L 400 383.7295438225179 L 405.1020408163266 384.6779590176144 L 410.2040816326531 382.0001200525563 L 415.3061224489795 381.9603248533247 L 420.40816326530614 382.6295066951532 L 425.5102040816326 382.2257743945683 L 430.6122448979592 380.9805626018502 L 435.71428571428567 382.2244404772756 L 440.8163265306121 382.2482286689951 L 445.91836734693874 380.2406831435095 L 451.02040816326536 381.65018908277625 L 456.1224489795918 381.5372507519959 L 461.22448979591826 380.02303230525365 L 466.3265306122449 379.51703301222983 L 471.4285714285715 381.91697254131253 L 476.53061224489795 377.7802726971585 L 481.6326530612244 379.4552281776689 L 486.734693877551 381.0590414025696 L 491.8367346938776 381.59861094745924 L 496.9387755102041 381.56948708656904 L 502.04081632653055 378.5310458133894 L 507.14285714285717 380.0963977563511 L 512.2448979591837 378.8522975613769 L 517.3469387755102 379.2855983619496 L 522.4489795918366 380.2502428841071 L 527.5510204081631 375.1964749012345 L 532.6530612244898 377.79072171595124 L 537.7551020408164 380.24913128636314 L 542.8571428571429 380.3760757487167 L 547.9591836734693 380.2060012938998 L 553.0612244897959 381.14485674839875 L 558.1632653061224 378.56572766299917 L 563.2653061224489 380.7220049666187 L 568.3673469387754 380.96122080110626 L 573.469387755102 381.15708432358167 L 578.5714285714287 378.5775105990845 L 583.6734693877552 380.58038741404573 L 588.7755102040816 380.62929771477735 L 593.877551020408 376.22848224667246 L 598.9795918367347 378.5786221968284 L 604.0816326530612 380.4976845418995 L 609.1836734693877 379.9438865458879 L 614.2857142857142 377.3060650996103 L 619.3877551020407 377.9181108174023 L 624.4897959183675 380.02881261352195 L 629.5918367346939 380.67442858317975 L 634.6938775510203 380.6328548275579 L 639.795918367347 380.74112444781383 L 644.8979591836735 380.31026916227773 L 650 375.29985349141737 L 650 400 Z" /><text  class="poloto_text" alignment-baseline="start" text-anchor="middle" font-size="x-large" x="400" y="37.5" >Bench of query levels with abspiral(5000,x)</text><text  class="poloto_text" alignment-baseline="start" text-anchor="middle" font-size="x-large" x="400" y="481.25" >Spiral Grow</text><text  class="poloto_text" alignment-baseline="start" text-anchor="middle" font-size="x-large" transform="rotate(-90,37.5,250)" x="37.5" y="250" >Time taken in Seconds</text><path  stroke="black" fill="none" class="poloto_axis_lines" d=" M 150 100 L 150 400 L 650 400" /><line  class="poloto_axis_lines" stroke="black" x1="258.27664399092976" x2="258.27664399092976" y1="400" y2="405" /><text  class="poloto_text" alignment-baseline="start" text-anchor="middle" x="258.27664399092976" y="430" > 0.8</text><line  class="poloto_axis_lines" stroke="black" x1="371.6553287981859" x2="371.6553287981859" y1="400" y2="405" /><text  class="poloto_text" alignment-baseline="start" text-anchor="middle" x="371.6553287981859" y="430" > 1.0</text><line  class="poloto_axis_lines" stroke="black" x1="485.03401360544217" x2="485.03401360544217" y1="400" y2="405" /><text  class="poloto_text" alignment-baseline="start" text-anchor="middle" x="485.03401360544217" y="430" > 1.2</text><line  class="poloto_axis_lines" stroke="black" x1="598.4126984126984" x2="598.4126984126984" y1="400" y2="405" /><text  class="poloto_text" alignment-baseline="start" text-anchor="middle" x="598.4126984126984" y="430" > 1.4</text><line  class="poloto_axis_lines" stroke="black" x1="150" x2="144" y1="388.9460497150975" y2="388.9460497150975" /><text  class="poloto_text" alignment-baseline="middle" text-anchor="end" x="135" y="388.9460497150975" > 0.0002</text><line  class="poloto_axis_lines" stroke="black" x1="150" x2="144" y1="344.48213995904877" y2="344.48213995904877" /><text  class="poloto_text" alignment-baseline="middle" text-anchor="end" x="135" y="344.48213995904877" > 0.0004</text><line  class="poloto_axis_lines" stroke="black" x1="150" x2="144" y1="300.01823020300003" y2="300.01823020300003" /><text  class="poloto_text" alignment-baseline="middle" text-anchor="end" x="135" y="300.01823020300003" > 0.0006</text><line  class="poloto_axis_lines" stroke="black" x1="150" x2="144" y1="255.55432044695124" y2="255.55432044695124" /><text  class="poloto_text" alignment-baseline="middle" text-anchor="end" x="135" y="255.55432044695124" > 0.0008</text><line  class="poloto_axis_lines" stroke="black" x1="150" x2="144" y1="211.09041069090244" y2="211.09041069090244" /><text  class="poloto_text" alignment-baseline="middle" text-anchor="end" x="135" y="211.09041069090244" > 0.0010</text><line  class="poloto_axis_lines" stroke="black" x1="150" x2="144" y1="166.6265009348537" y2="166.6265009348537" /><text  class="poloto_text" alignment-baseline="middle" text-anchor="end" x="135" y="166.6265009348537" > 0.0012</text><line  class="poloto_axis_lines" stroke="black" x1="150" x2="144" y1="122.16259117880492" y2="122.16259117880492" /><text  class="poloto_text" alignment-baseline="middle" text-anchor="end" x="135" y="122.16259117880492" > 0.0014</text></svg>