<svg class="poloto" width="800" height="500" viewBox="0 0 800 500" xmlns="http://www.w3.org/2000/svg"><circle  r="1e5" class="poloto_background" /><text  class="poloto_text poloto_legend_text" x="675" y="100" >Level 0</text><rect  class="poloto_linefill poloto_legend_icon poloto0fill poloto0legend" x="680" y="76.25" width="50" height="7.5" rx="5" ry="5" /><path  class="poloto_linefill poloto0fill" d=" M 150.00 400.00 L 150.00 100.00 L 155.10 106.78 L 160.20 115.80 L 165.31 125.73 L 170.41 133.46 L 175.51 139.66 L 180.61 146.70 L 185.71 153.85 L 190.82 161.51 L 195.92 167.57 L 201.02 174.71 L 206.12 182.38 L 211.22 187.12 L 216.33 194.99 L 221.43 201.06 L 226.53 205.66 L 231.63 210.58 L 236.73 216.53 L 241.84 221.16 L 246.94 224.23 L 252.04 227.62 L 257.14 230.98 L 262.24 235.28 L 267.35 235.53 L 272.45 240.89 L 277.55 243.35 L 282.65 248.77 L 287.76 251.07 L 292.86 254.97 L 297.96 257.79 L 303.06 260.43 L 308.16 264.17 L 313.27 267.47 L 318.37 269.67 L 323.47 271.84 L 328.57 273.13 L 333.67 276.46 L 338.78 278.29 L 343.88 280.56 L 348.98 284.84 L 354.08 285.11 L 359.18 288.63 L 364.29 290.20 L 369.39 292.28 L 374.49 295.25 L 379.59 298.11 L 384.69 299.64 L 389.80 301.17 L 394.90 302.46 L 400.00 304.55 L 405.10 305.73 L 410.20 306.40 L 415.31 308.63 L 420.41 310.15 L 425.51 312.06 L 430.61 313.59 L 435.71 313.88 L 440.82 314.94 L 445.92 316.90 L 451.02 317.57 L 456.12 318.79 L 461.22 320.46 L 466.33 320.87 L 471.43 321.20 L 476.53 322.75 L 481.63 324.62 L 486.73 326.49 L 491.84 328.19 L 496.94 328.77 L 502.04 330.33 L 507.14 330.91 L 512.24 334.32 L 517.35 335.13 L 522.45 334.37 L 527.55 335.17 L 532.65 336.72 L 537.76 337.68 L 542.86 339.15 L 547.96 339.77 L 553.06 341.03 L 558.16 343.33 L 563.27 344.05 L 568.37 344.79 L 573.47 344.43 L 578.57 344.57 L 583.67 345.81 L 588.78 347.28 L 593.88 349.05 L 598.98 349.75 L 604.08 350.87 L 609.18 350.10 L 614.29 350.79 L 619.39 352.99 L 624.49 353.70 L 629.59 353.84 L 634.69 354.90 L 639.80 355.10 L 644.90 356.36 L 650.00 357.65 L 650.00 400.00 Z" /><text  class="poloto_text poloto_legend_text" x="675" y="150" >Level 1</text><rect  class="poloto_linefill poloto_legend_icon poloto1fill poloto1legend" x="680" y="126.25" width="50" height="7.5" rx="5" ry="5" /><path  class="poloto_linefill poloto1fill" d=" M 150.00 400.00 L 150.00 337.28 L 155.10 336.62 L 160.20 334.97 L 165.31 336.37 L 170.41 335.90 L 175.51 334.71 L 180.61 335.05 L 185.71 334.58 L 190.82 334.93 L 195.92 336.92 L 201.02 336.66 L 206.12 333.97 L 211.22 333.21 L 216.33 335.57 L 221.43 334.31 L 226.53 336.26 L 231.63 334.46 L 236.73 333.82 L 241.84 333.29 L 246.94 332.61 L 252.04 333.78 L 257.14 333.66 L 262.24 330.97 L 267.35 334.96 L 272.45 333.52 L 277.55 333.69 L 282.65 331.59 L 287.76 331.83 L 292.86 331.49 L 297.96 332.13 L 303.06 332.84 L 308.16 333.30 L 313.27 332.43 L 318.37 332.74 L 323.47 331.74 L 328.57 333.70 L 333.67 332.34 L 338.78 332.40 L 343.88 332.61 L 348.98 330.68 L 354.08 332.94 L 359.18 332.62 L 364.29 332.31 L 369.39 332.53 L 374.49 332.40 L 379.59 330.01 L 384.69 330.22 L 389.80 330.45 L 394.90 330.74 L 400.00 329.75 L 405.10 330.97 L 410.20 331.87 L 415.31 330.26 L 420.41 330.32 L 425.51 329.70 L 430.61 329.76 L 435.71 331.66 L 440.82 331.15 L 445.92 330.40 L 451.02 331.40 L 456.12 331.55 L 461.22 331.01 L 466.33 331.51 L 471.43 331.83 L 476.53 331.56 L 481.63 331.20 L 486.73 330.35 L 491.84 329.83 L 496.94 330.71 L 502.04 330.93 L 507.14 331.40 L 512.24 327.81 L 517.35 328.12 L 522.45 330.46 L 527.55 330.02 L 532.65 330.22 L 537.76 330.09 L 542.86 329.64 L 547.96 329.88 L 553.06 329.83 L 558.16 328.81 L 563.27 328.42 L 568.37 328.41 L 573.47 330.33 L 578.57 331.13 L 583.67 330.91 L 588.78 330.30 L 593.88 328.10 L 598.98 328.99 L 604.08 328.61 L 609.18 330.82 L 614.29 330.88 L 619.39 328.26 L 624.49 328.31 L 629.59 328.84 L 634.69 328.78 L 639.80 329.13 L 644.90 328.68 L 650.00 328.73 L 650.00 400.00 Z" /><text  class="poloto_text poloto_legend_text" x="675" y="200" >Level 2</text><rect  class="poloto_linefill poloto_legend_icon poloto2fill poloto2legend" x="680" y="176.25" width="50" height="7.5" rx="5" ry="5" /><path  class="poloto_linefill poloto2fill" d=" M 150.00 400.00 L 150.00 344.98 L 155.10 344.11 L 160.20 344.30 L 165.31 344.95 L 170.41 344.06 L 175.51 343.93 L 180.61 342.88 L 185.71 342.46 L 190.82 344.21 L 195.92 344.28 L 201.02 343.89 L 206.12 342.71 L 211.22 342.43 L 216.33 343.66 L 221.43 342.09 L 226.53 344.10 L 231.63 344.25 L 236.73 341.43 L 241.84 341.46 L 246.94 341.95 L 252.04 341.75 L 257.14 341.74 L 262.24 341.84 L 267.35 342.67 L 272.45 341.28 L 277.55 341.44 L 282.65 340.84 L 287.76 341.19 L 292.86 340.77 L 297.96 340.92 L 303.06 341.95 L 308.16 342.37 L 313.27 341.20 L 318.37 340.73 L 323.47 341.28 L 328.57 341.40 L 333.67 340.20 L 338.78 339.45 L 343.88 339.69 L 348.98 339.62 L 354.08 340.97 L 359.18 340.91 L 364.29 340.70 L 369.39 340.95 L 374.49 340.79 L 379.59 339.96 L 384.69 341.21 L 389.80 341.16 L 394.90 340.09 L 400.00 338.95 L 405.10 338.34 L 410.20 339.31 L 415.31 340.01 L 420.41 340.07 L 425.51 339.27 L 430.61 338.53 L 435.71 338.52 L 440.82 339.46 L 445.92 338.18 L 451.02 339.90 L 456.12 340.42 L 461.22 339.60 L 466.33 340.36 L 471.43 341.16 L 476.53 340.56 L 481.63 340.22 L 486.73 339.10 L 491.84 338.08 L 496.94 339.68 L 502.04 338.60 L 507.14 339.24 L 512.24 336.93 L 517.35 337.24 L 522.45 338.80 L 527.55 338.67 L 532.65 337.35 L 537.76 337.21 L 542.86 336.76 L 547.96 337.00 L 553.06 336.99 L 558.16 336.05 L 563.27 336.76 L 568.37 336.81 L 573.47 337.01 L 578.57 338.32 L 583.67 337.73 L 588.78 337.20 L 593.88 338.06 L 598.98 336.63 L 604.08 336.46 L 609.18 338.17 L 614.29 338.25 L 619.39 337.89 L 624.49 337.76 L 629.59 338.48 L 634.69 338.17 L 639.80 338.56 L 644.90 338.11 L 650.00 336.72 L 650.00 400.00 Z" /><text  class="poloto_text poloto_legend_text" x="675" y="250" >Level 3</text><rect  class="poloto_linefill poloto_legend_icon poloto3fill poloto3legend" x="680" y="226.25" width="50" height="7.5" rx="5" ry="5" /><path  class="poloto_linefill poloto3fill" d=" M 150.00 400.00 L 150.00 355.73 L 155.10 355.71 L 160.20 355.57 L 165.31 354.94 L 170.41 355.29 L 175.51 355.27 L 180.61 354.49 L 185.71 353.49 L 190.82 354.30 L 195.92 354.76 L 201.02 354.36 L 206.12 353.25 L 211.22 353.16 L 216.33 353.66 L 221.43 354.06 L 226.53 354.21 L 231.63 354.57 L 236.73 353.56 L 241.84 352.76 L 246.94 352.54 L 252.04 352.57 L 257.14 352.80 L 262.24 352.65 L 267.35 353.35 L 272.45 351.88 L 277.55 352.65 L 282.65 351.73 L 287.76 352.01 L 292.86 351.82 L 297.96 351.81 L 303.06 352.05 L 308.16 352.74 L 313.27 352.04 L 318.37 351.61 L 323.47 351.05 L 328.57 352.74 L 333.67 350.17 L 338.78 352.12 L 343.88 352.32 L 348.98 351.10 L 354.08 352.53 L 359.18 351.23 L 364.29 351.21 L 369.39 351.02 L 374.49 350.38 L 379.59 349.67 L 384.69 350.29 L 389.80 349.94 L 394.90 349.51 L 400.00 349.12 L 405.10 349.10 L 410.20 350.24 L 415.31 349.50 L 420.41 349.57 L 425.51 349.23 L 430.61 348.91 L 435.71 349.99 L 440.82 349.88 L 445.92 348.87 L 451.02 349.88 L 456.12 349.56 L 461.22 349.18 L 466.33 349.62 L 471.43 349.61 L 476.53 349.61 L 481.63 348.98 L 486.73 348.58 L 491.84 348.44 L 496.94 348.76 L 502.04 348.10 L 507.14 348.50 L 512.24 347.61 L 517.35 347.98 L 522.45 349.07 L 527.55 348.64 L 532.65 348.21 L 537.76 347.93 L 542.86 347.49 L 547.96 347.78 L 553.06 347.54 L 558.16 346.49 L 563.27 346.70 L 568.37 346.61 L 573.47 347.20 L 578.57 347.79 L 583.67 347.77 L 588.78 347.04 L 593.88 347.03 L 598.98 346.91 L 604.08 346.98 L 609.18 347.97 L 614.29 348.01 L 619.39 347.66 L 624.49 347.69 L 629.59 347.84 L 634.69 348.24 L 639.80 348.62 L 644.90 348.11 L 650.00 347.40 L 650.00 400.00 Z" /><text  class="poloto_text poloto_legend_text" x="675" y="300" >Level 4</text><rect  class="poloto_linefill poloto_legend_icon poloto4fill poloto4legend" x="680" y="276.25" width="50" height="7.5" rx="5" ry="5" /><path  class="poloto_linefill poloto4fill" d=" M 150.00 400.00 L 150.00 364.68 L 155.10 363.95 L 160.20 364.30 L 165.31 364.05 L 170.41 362.95 L 175.51 363.56 L 180.61 363.03 L 185.71 362.32 L 190.82 362.72 L 195.92 362.57 L 201.02 362.88 L 206.12 362.26 L 211.22 362.77 L 216.33 362.19 L 221.43 361.99 L 226.53 362.40 L 231.63 362.44 L 236.73 361.96 L 241.84 361.57 L 246.94 361.27 L 252.04 361.40 L 257.14 360.94 L 262.24 360.89 L 267.35 360.73 L 272.45 360.32 L 277.55 360.83 L 282.65 360.36 L 287.76 360.25 L 292.86 360.46 L 297.96 359.55 L 303.06 359.85 L 308.16 360.43 L 313.27 359.93 L 318.37 360.25 L 323.47 359.80 L 328.57 360.06 L 333.67 359.58 L 338.78 359.47 L 343.88 359.72 L 348.98 359.93 L 354.08 360.48 L 359.18 359.75 L 364.29 358.97 L 369.39 358.78 L 374.49 358.58 L 379.59 358.24 L 384.69 358.98 L 389.80 358.39 L 394.90 358.73 L 400.00 358.36 L 405.10 358.18 L 410.20 358.61 L 415.31 358.39 L 420.41 358.52 L 425.51 357.69 L 430.61 357.47 L 435.71 357.94 L 440.82 358.48 L 445.92 357.95 L 451.02 357.66 L 456.12 357.63 L 461.22 357.49 L 466.33 357.84 L 471.43 357.36 L 476.53 357.79 L 481.63 357.64 L 486.73 356.69 L 491.84 356.79 L 496.94 357.03 L 502.04 356.56 L 507.14 356.25 L 512.24 356.91 L 517.35 357.35 L 522.45 357.28 L 527.55 357.18 L 532.65 356.98 L 537.76 356.94 L 542.86 356.32 L 547.96 356.64 L 553.06 356.82 L 558.16 356.06 L 563.27 355.99 L 568.37 356.15 L 573.47 356.01 L 578.57 355.85 L 583.67 356.38 L 588.78 355.19 L 593.88 355.04 L 598.98 354.94 L 604.08 355.61 L 609.18 355.97 L 614.29 356.01 L 619.39 355.76 L 624.49 356.22 L 629.59 356.41 L 634.69 356.29 L 639.80 356.98 L 644.90 356.35 L 650.00 355.34 L 650.00 400.00 Z" /><text  class="poloto_text poloto_legend_text" x="675" y="350" >Level 5</text><rect  class="poloto_linefill poloto_legend_icon poloto5fill poloto5legend" x="680" y="326.25" width="50" height="7.5" rx="5" ry="5" /><path  class="poloto_linefill poloto5fill" d=" M 150.00 400.00 L 150.00 377.01 L 155.10 376.73 L 160.20 376.33 L 165.31 376.04 L 170.41 375.55 L 175.51 375.83 L 180.61 375.27 L 185.71 375.15 L 190.82 374.53 L 195.92 374.49 L 201.02 375.13 L 206.12 374.04 L 211.22 373.88 L 216.33 373.99 L 221.43 373.64 L 226.53 373.38 L 231.63 373.70 L 236.73 373.74 L 241.84 373.54 L 246.94 373.25 L 252.04 373.09 L 257.14 372.70 L 262.24 372.77 L 267.35 372.51 L 272.45 371.96 L 277.55 372.34 L 282.65 371.79 L 287.76 371.71 L 292.86 371.80 L 297.96 370.98 L 303.06 371.44 L 308.16 371.55 L 313.27 371.39 L 318.37 370.91 L 323.47 370.67 L 328.57 370.85 L 333.67 370.70 L 338.78 370.40 L 343.88 370.65 L 348.98 370.87 L 354.08 370.57 L 359.18 370.54 L 364.29 370.08 L 369.39 370.17 L 374.49 369.53 L 379.59 369.61 L 384.69 369.91 L 389.80 369.63 L 394.90 369.13 L 400.00 368.63 L 405.10 368.91 L 410.20 370.05 L 415.31 369.26 L 420.41 368.69 L 425.51 368.57 L 430.61 368.38 L 435.71 368.28 L 440.82 368.49 L 445.92 368.05 L 451.02 368.15 L 456.12 368.11 L 461.22 367.77 L 466.33 368.04 L 471.43 368.01 L 476.53 367.67 L 481.63 367.98 L 486.73 367.93 L 491.84 367.29 L 496.94 367.66 L 502.04 367.22 L 507.14 367.27 L 512.24 367.30 L 517.35 367.35 L 522.45 367.41 L 527.55 367.09 L 532.65 367.09 L 537.76 367.29 L 542.86 366.95 L 547.96 367.14 L 553.06 366.93 L 558.16 366.36 L 563.27 366.37 L 568.37 366.80 L 573.47 366.27 L 578.57 366.41 L 583.67 366.24 L 588.78 365.73 L 593.88 366.11 L 598.98 365.71 L 604.08 366.62 L 609.18 366.23 L 614.29 366.32 L 619.39 366.04 L 624.49 366.23 L 629.59 366.16 L 634.69 366.10 L 639.80 365.89 L 644.90 365.65 L 650.00 365.74 L 650.00 400.00 Z" /><text  class="poloto_text poloto_legend_text" x="675" y="400" >Level 6</text><rect  class="poloto_linefill poloto_legend_icon poloto6fill poloto6legend" x="680" y="376.25" width="50" height="7.5" rx="5" ry="5" /><path  class="poloto_linefill poloto6fill" d=" M 150.00 400.00 L 150.00 384.94 L 155.10 384.67 L 160.20 384.44 L 165.31 384.75 L 170.41 384.33 L 175.51 384.13 L 180.61 383.58 L 185.71 383.22 L 190.82 383.27 L 195.92 382.66 L 201.02 382.83 L 206.12 382.39 L 211.22 382.38 L 216.33 382.09 L 221.43 381.94 L 226.53 381.77 L 231.63 381.59 L 236.73 381.42 L 241.84 381.23 L 246.94 380.97 L 252.04 380.71 L 257.14 380.45 L 262.24 380.45 L 267.35 380.27 L 272.45 379.94 L 277.55 379.71 L 282.65 379.89 L 287.76 380.03 L 292.86 379.86 L 297.96 379.42 L 303.06 379.58 L 308.16 379.48 L 313.27 379.15 L 318.37 378.63 L 323.47 378.68 L 328.57 378.49 L 333.67 378.52 L 338.78 378.29 L 343.88 378.06 L 348.98 378.18 L 354.08 378.53 L 359.18 378.11 L 364.29 378.12 L 369.39 377.81 L 374.49 377.66 L 379.59 377.69 L 384.69 377.79 L 389.80 377.65 L 394.90 377.28 L 400.00 377.47 L 405.10 377.56 L 410.20 377.67 L 415.31 377.01 L 420.41 376.69 L 425.51 377.16 L 430.61 376.71 L 435.71 376.68 L 440.82 376.72 L 445.92 376.73 L 451.02 376.25 L 456.12 376.37 L 461.22 376.27 L 466.33 376.30 L 471.43 376.48 L 476.53 376.00 L 481.63 375.88 L 486.73 376.10 L 491.84 375.71 L 496.94 375.98 L 502.04 376.07 L 507.14 375.76 L 512.24 375.66 L 517.35 375.76 L 522.45 375.66 L 527.55 375.28 L 532.65 375.33 L 537.76 375.42 L 542.86 374.94 L 547.96 374.92 L 553.06 374.95 L 558.16 374.68 L 563.27 374.89 L 568.37 374.85 L 573.47 374.81 L 578.57 374.48 L 583.67 375.13 L 588.78 374.68 L 593.88 374.68 L 598.98 374.21 L 604.08 374.61 L 609.18 374.40 L 614.29 374.69 L 619.39 374.47 L 624.49 374.45 L 629.59 374.63 L 634.69 374.35 L 639.80 374.39 L 644.90 374.02 L 650.00 374.12 L 650.00 400.00 Z" /><text  class="poloto_text poloto_legend_text" x="675" y="450" >Level 7</text><rect  class="poloto_linefill poloto_legend_icon poloto7fill poloto7legend" x="680" y="426.25" width="50" height="7.5" rx="5" ry="5" /><path  class="poloto_linefill poloto7fill" d=" M 150.00 400.00 L 150.00 395.79 L 155.10 395.53 L 160.20 395.53 L 165.31 395.24 L 170.41 395.05 L 175.51 395.03 L 180.61 394.77 L 185.71 394.96 L 190.82 394.71 L 195.92 394.74 L 201.02 394.42 L 206.12 394.35 L 211.22 394.21 L 216.33 394.10 L 221.43 394.15 L 226.53 394.01 L 231.63 393.87 L 236.73 393.64 L 241.84 393.47 L 246.94 393.47 L 252.04 393.26 L 257.14 393.17 L 262.24 392.90 L 267.35 392.90 L 272.45 392.70 L 277.55 392.84 L 282.65 392.53 L 287.76 392.35 L 292.86 392.15 L 297.96 392.08 L 303.06 392.14 L 308.16 391.93 L 313.27 391.99 L 318.37 391.76 L 323.47 391.49 L 328.57 391.61 L 333.67 391.28 L 338.78 391.39 L 343.88 391.19 L 348.98 390.99 L 354.08 390.75 L 359.18 390.65 L 364.29 390.67 L 369.39 390.57 L 374.49 390.52 L 379.59 389.94 L 384.69 389.87 L 389.80 389.79 L 394.90 389.76 L 400.00 389.53 L 405.10 389.18 L 410.20 389.23 L 415.31 389.31 L 420.41 389.04 L 425.51 388.60 L 430.61 388.80 L 435.71 388.78 L 440.82 388.25 L 445.92 388.00 L 451.02 388.17 L 456.12 388.12 L 461.22 387.79 L 466.33 387.56 L 471.43 387.33 L 476.53 387.32 L 481.63 387.09 L 486.73 387.00 L 491.84 386.96 L 496.94 386.99 L 502.04 386.47 L 507.14 386.37 L 512.24 386.35 L 517.35 386.15 L 522.45 386.11 L 527.55 386.14 L 532.65 385.93 L 537.76 385.85 L 542.86 385.66 L 547.96 385.70 L 553.06 385.59 L 558.16 385.40 L 563.27 385.37 L 568.37 385.08 L 573.47 384.73 L 578.57 385.01 L 583.67 384.77 L 588.78 384.69 L 593.88 384.46 L 598.98 384.28 L 604.08 384.57 L 609.18 384.21 L 614.29 384.16 L 619.39 384.22 L 624.49 383.79 L 629.59 383.97 L 634.69 383.81 L 639.80 383.53 L 644.90 383.59 L 650.00 383.82 L 650.00 400.00 Z" /><text  class="poloto_labels poloto_text poloto_title" x="400" y="37.5" >Complexity of rebal levels with abspiral(5000,x)</text><text  class="poloto_labels poloto_text poloto_xname" x="400" y="481.25" >Spiral Grow</text><text  class="poloto_labels poloto_text poloto_yname" transform="rotate(-90,37.5,250)" x="37.5" y="250" >Number of Comparisons</text><text  class="poloto_tick_labels poloto_text" dominant-baseline="middle" text-anchor="start" x="150" y="70" ></text><line  class="poloto_axis_lines" stroke="black" x1="150" x2="144" y1="400" y2="400" /><text  class="poloto_tick_labels poloto_text" dominant-baseline="middle" text-anchor="end" x="135" y="400" >0</text><line  class="poloto_axis_lines" stroke="black" x1="150" x2="144" y1="307.0358376845726" y2="307.0358376845726" /><text  class="poloto_tick_labels poloto_text" dominant-baseline="middle" text-anchor="end" x="135" y="307.0358376845726" >2e5</text><line  class="poloto_axis_lines" stroke="black" x1="150" x2="144" y1="214.07167536914517" y2="214.07167536914517" /><text  class="poloto_tick_labels poloto_text" dominant-baseline="middle" text-anchor="end" x="135" y="214.07167536914517" >4e5</text><line  class="poloto_axis_lines" stroke="black" x1="150" x2="144" y1="121.10751305371781" y2="121.10751305371781" /><text  class="poloto_tick_labels poloto_text" dominant-baseline="middle" text-anchor="end" x="135" y="121.10751305371781" >6e5</text><text  class="poloto_tick_labels poloto_text" dominant-baseline="middle" text-anchor="start" x="440.00000000000006" y="70" ></text><line  class="poloto_axis_lines" stroke="black" x1="201.58730158730162" x2="201.58730158730162" y1="400" y2="405" /><text  class="poloto_tick_labels poloto_text" dominant-baseline="start" text-anchor="middle" x="201.58730158730162" y="430" >0.7</text><line  class="poloto_axis_lines" stroke="black" x1="258.2766439909297" x2="258.2766439909297" y1="400" y2="405" /><text  class="poloto_tick_labels poloto_text" dominant-baseline="start" text-anchor="middle" x="258.2766439909297" y="430" >0.8</text><line  class="poloto_axis_lines" stroke="black" x1="314.9659863945579" x2="314.9659863945579" y1="400" y2="405" /><text  class="poloto_tick_labels poloto_text" dominant-baseline="start" text-anchor="middle" x="314.9659863945579" y="430" >0.9</text><line  class="poloto_axis_lines" stroke="black" x1="371.6553287981859" x2="371.6553287981859" y1="400" y2="405" /><text  class="poloto_tick_labels poloto_text" dominant-baseline="start" text-anchor="middle" x="371.6553287981859" y="430" >1.0</text><line  class="poloto_axis_lines" stroke="black" x1="428.3446712018141" x2="428.3446712018141" y1="400" y2="405" /><text  class="poloto_tick_labels poloto_text" dominant-baseline="start" text-anchor="middle" x="428.3446712018141" y="430" >1.1</text><line  class="poloto_axis_lines" stroke="black" x1="485.03401360544217" x2="485.03401360544217" y1="400" y2="405" /><text  class="poloto_tick_labels poloto_text" dominant-baseline="start" text-anchor="middle" x="485.03401360544217" y="430" >1.2</text><line  class="poloto_axis_lines" stroke="black" x1="541.7233560090704" x2="541.7233560090704" y1="400" y2="405" /><text  class="poloto_tick_labels poloto_text" dominant-baseline="start" text-anchor="middle" x="541.7233560090704" y="430" >1.3</text><line  class="poloto_axis_lines" stroke="black" x1="598.4126984126984" x2="598.4126984126984" y1="400" y2="405" /><text  class="poloto_tick_labels poloto_text" dominant-baseline="start" text-anchor="middle" x="598.4126984126984" y="430" >1.4</text><path  stroke="black" fill="none" class="poloto_axis_lines" style="stroke-dasharray:14.172335600907028;stroke-dashoffset:-51.587301587301624;" d=" M 150 400 L 650 400" /><path  stroke="black" fill="none" class="poloto_axis_lines" style="stroke-dasharray:11.620520289428425;stroke-dashoffset:-0;" d=" M 150 400 L 150 100" /></svg>