<svg class="poloto" width="800" height="500" viewBox="0 0 800 500" xmlns="http://www.w3.org/2000/svg"><circle  r="1e5" class="poloto_background" /><text  class="poloto_text poloto_legend_text" x="675" y="100" >Level 0</text><rect  class="poloto_linefill poloto_legend_icon poloto0fill poloto0legend" x="680" y="76.25" width="50" height="7.5" rx="5" ry="5" /><path  class="poloto_linefill poloto0fill" d=" M 150.00 400.00 L 150.00 100.00 L 155.10 137.10 L 160.20 135.98 L 165.31 143.62 L 170.41 148.35 L 175.51 152.61 L 180.61 149.75 L 185.71 151.58 L 190.82 155.18 L 195.92 153.77 L 201.02 164.76 L 206.12 169.26 L 211.22 169.95 L 216.33 175.35 L 221.43 178.11 L 226.53 181.86 L 231.63 183.36 L 236.73 185.64 L 241.84 178.76 L 246.94 185.86 L 252.04 185.81 L 257.14 191.04 L 262.24 194.72 L 267.35 192.94 L 272.45 195.23 L 277.55 195.97 L 282.65 197.35 L 287.76 202.11 L 292.86 199.71 L 297.96 201.17 L 303.06 202.00 L 308.16 198.53 L 313.27 204.28 L 318.37 186.41 L 323.47 199.67 L 328.57 208.98 L 333.67 206.52 L 338.78 204.33 L 343.88 212.12 L 348.98 205.74 L 354.08 213.44 L 359.18 215.20 L 364.29 210.79 L 369.39 216.82 L 374.49 216.76 L 379.59 218.06 L 384.69 216.16 L 389.80 221.24 L 394.90 224.55 L 400.00 218.38 L 405.10 222.49 L 410.20 225.83 L 415.31 227.37 L 420.41 228.41 L 425.51 227.65 L 430.61 230.23 L 435.71 231.30 L 440.82 230.90 L 445.92 227.93 L 451.02 224.90 L 456.12 229.43 L 461.22 233.48 L 466.33 227.66 L 471.43 233.20 L 476.53 234.63 L 481.63 233.14 L 486.73 236.28 L 491.84 237.94 L 496.94 237.83 L 502.04 234.70 L 507.14 238.91 L 512.24 240.21 L 517.35 233.16 L 522.45 240.05 L 527.55 243.84 L 532.65 237.71 L 537.76 242.26 L 542.86 245.88 L 547.96 237.37 L 553.06 241.38 L 558.16 245.77 L 563.27 248.16 L 568.37 244.30 L 573.47 248.55 L 578.57 244.20 L 583.67 248.42 L 588.78 249.65 L 593.88 247.53 L 598.98 250.88 L 604.08 244.61 L 609.18 250.55 L 614.29 254.46 L 619.39 252.24 L 624.49 253.74 L 629.59 255.93 L 634.69 254.69 L 639.80 256.47 L 644.90 258.14 L 650.00 253.81 L 650.00 400.00 Z" /><text  class="poloto_text poloto_legend_text" x="675" y="150" >Level 1</text><rect  class="poloto_linefill poloto_legend_icon poloto1fill poloto1legend" x="680" y="126.25" width="50" height="7.5" rx="5" ry="5" /><path  class="poloto_linefill poloto1fill" d=" M 150.00 400.00 L 150.00 108.35 L 155.10 144.45 L 160.20 143.48 L 165.31 150.75 L 170.41 155.58 L 175.51 159.37 L 180.61 156.48 L 185.71 158.18 L 190.82 161.85 L 195.92 160.04 L 201.02 170.88 L 206.12 175.05 L 211.22 175.75 L 216.33 180.66 L 221.43 183.11 L 226.53 186.51 L 231.63 188.04 L 236.73 190.19 L 241.84 183.49 L 246.94 190.23 L 252.04 190.61 L 257.14 195.26 L 262.24 198.92 L 267.35 197.17 L 272.45 199.26 L 277.55 200.26 L 282.65 201.24 L 287.76 205.98 L 292.86 203.64 L 297.96 205.01 L 303.06 205.87 L 308.16 202.32 L 313.27 207.96 L 318.37 190.01 L 323.47 203.70 L 328.57 212.90 L 333.67 210.05 L 338.78 207.92 L 343.88 215.54 L 348.98 209.23 L 354.08 216.74 L 359.18 218.61 L 364.29 214.12 L 369.39 220.07 L 374.49 219.84 L 379.59 221.17 L 384.69 219.29 L 389.80 224.17 L 394.90 227.61 L 400.00 221.35 L 405.10 225.30 L 410.20 228.64 L 415.31 230.27 L 420.41 231.13 L 425.51 230.37 L 430.61 233.04 L 435.71 233.97 L 440.82 233.70 L 445.92 230.55 L 451.02 227.65 L 456.12 232.01 L 461.22 236.09 L 466.33 230.38 L 471.43 235.75 L 476.53 237.19 L 481.63 235.75 L 486.73 238.78 L 491.84 240.53 L 496.94 240.29 L 502.04 237.27 L 507.14 241.30 L 512.24 242.65 L 517.35 235.67 L 522.45 242.44 L 527.55 246.16 L 532.65 240.37 L 537.76 244.57 L 542.86 248.23 L 547.96 239.83 L 553.06 243.66 L 558.16 248.07 L 563.27 250.35 L 568.37 246.57 L 573.47 250.86 L 578.57 246.47 L 583.67 250.53 L 588.78 251.78 L 593.88 249.68 L 598.98 252.92 L 604.08 246.74 L 609.18 252.69 L 614.29 256.45 L 619.39 254.21 L 624.49 255.74 L 629.59 257.88 L 634.69 256.62 L 639.80 258.65 L 644.90 260.06 L 650.00 255.84 L 650.00 400.00 Z" /><text  class="poloto_text poloto_legend_text" x="675" y="200" >Level 2</text><rect  class="poloto_linefill poloto_legend_icon poloto2fill poloto2legend" x="680" y="176.25" width="50" height="7.5" rx="5" ry="5" /><path  class="poloto_linefill poloto2fill" d=" M 150.00 400.00 L 150.00 177.20 L 155.10 204.16 L 160.20 203.21 L 165.31 208.64 L 170.41 211.88 L 175.51 214.37 L 180.61 212.45 L 185.71 213.76 L 190.82 215.80 L 195.92 214.62 L 201.02 222.31 L 206.12 225.14 L 211.22 225.63 L 216.33 228.97 L 221.43 230.55 L 226.53 232.99 L 231.63 234.03 L 236.73 235.73 L 241.84 230.64 L 246.94 235.26 L 252.04 235.68 L 257.14 238.78 L 262.24 241.64 L 267.35 240.25 L 272.45 241.73 L 277.55 241.97 L 282.65 242.52 L 287.76 246.26 L 292.86 244.23 L 297.96 244.99 L 303.06 245.57 L 308.16 243.04 L 313.27 246.90 L 318.37 232.25 L 323.47 243.54 L 328.57 250.49 L 333.67 248.07 L 338.78 246.58 L 343.88 252.39 L 348.98 247.32 L 354.08 253.12 L 359.18 254.31 L 364.29 250.94 L 369.39 255.52 L 374.49 255.00 L 379.59 256.24 L 384.69 254.52 L 389.80 258.33 L 394.90 260.94 L 400.00 255.89 L 405.10 258.92 L 410.20 261.60 L 415.31 262.66 L 420.41 263.26 L 425.51 262.62 L 430.61 264.91 L 435.71 265.60 L 440.82 265.20 L 445.92 262.60 L 451.02 260.32 L 456.12 264.01 L 461.22 267.01 L 466.33 262.59 L 471.43 266.58 L 476.53 267.59 L 481.63 266.53 L 486.73 268.80 L 491.84 270.23 L 496.94 270.23 L 502.04 267.58 L 507.14 270.78 L 512.24 271.78 L 517.35 266.23 L 522.45 271.50 L 527.55 274.39 L 532.65 269.81 L 537.76 273.15 L 542.86 276.18 L 547.96 269.28 L 553.06 272.23 L 558.16 276.06 L 563.27 277.76 L 568.37 274.73 L 573.47 278.03 L 578.57 274.52 L 583.67 277.71 L 588.78 278.76 L 593.88 277.04 L 598.98 279.67 L 604.08 274.72 L 609.18 279.52 L 614.29 282.44 L 619.39 280.59 L 624.49 281.81 L 629.59 283.49 L 634.69 282.56 L 639.80 284.19 L 644.90 285.23 L 650.00 281.86 L 650.00 400.00 Z" /><text  class="poloto_text poloto_legend_text" x="675" y="250" >Level 3</text><rect  class="poloto_linefill poloto_legend_icon poloto3fill poloto3legend" x="680" y="226.25" width="50" height="7.5" rx="5" ry="5" /><path  class="poloto_linefill poloto3fill" d=" M 150.00 400.00 L 150.00 246.52 L 155.10 265.57 L 160.20 265.19 L 165.31 268.28 L 170.41 269.80 L 175.51 270.84 L 180.61 269.54 L 185.71 270.01 L 190.82 270.92 L 195.92 270.67 L 201.02 275.31 L 206.12 277.07 L 211.22 277.39 L 216.33 278.85 L 221.43 279.48 L 226.53 281.11 L 231.63 281.71 L 236.73 282.76 L 241.84 279.13 L 246.94 282.02 L 252.04 282.30 L 257.14 284.03 L 262.24 286.02 L 267.35 284.74 L 272.45 285.65 L 277.55 285.66 L 282.65 285.86 L 287.76 288.46 L 292.86 286.94 L 297.96 287.16 L 303.06 287.47 L 308.16 285.36 L 313.27 288.17 L 318.37 276.91 L 323.47 285.44 L 328.57 290.49 L 333.67 288.61 L 338.78 287.37 L 343.88 291.60 L 348.98 287.52 L 354.08 291.82 L 359.18 292.31 L 364.29 289.93 L 369.39 293.27 L 374.49 292.40 L 379.59 293.38 L 384.69 291.95 L 389.80 294.86 L 394.90 296.52 L 400.00 292.61 L 405.10 294.79 L 410.20 296.79 L 415.31 297.41 L 420.41 297.68 L 425.51 297.13 L 430.61 299.24 L 435.71 299.73 L 440.82 298.98 L 445.92 296.90 L 451.02 295.19 L 456.12 298.01 L 461.22 300.36 L 466.33 296.60 L 471.43 299.56 L 476.53 300.14 L 481.63 299.50 L 486.73 300.90 L 491.84 301.99 L 496.94 301.89 L 502.04 299.88 L 507.14 302.43 L 512.24 303.07 L 517.35 298.90 L 522.45 302.55 L 527.55 304.58 L 532.65 301.25 L 537.76 303.75 L 542.86 306.19 L 547.96 300.69 L 553.06 302.74 L 558.16 306.27 L 563.27 307.22 L 568.37 304.83 L 573.47 307.13 L 578.57 304.56 L 583.67 306.75 L 588.78 307.64 L 593.88 306.32 L 598.98 308.39 L 604.08 304.46 L 609.18 308.23 L 614.29 310.23 L 619.39 308.81 L 624.49 309.69 L 629.59 310.85 L 634.69 310.29 L 639.80 311.50 L 644.90 312.17 L 650.00 309.81 L 650.00 400.00 Z" /><text  class="poloto_text poloto_legend_text" x="675" y="300" >Level 4</text><rect  class="poloto_linefill poloto_legend_icon poloto4fill poloto4legend" x="680" y="276.25" width="50" height="7.5" rx="5" ry="5" /><path  class="poloto_linefill poloto4fill" d=" M 150.00 400.00 L 150.00 301.05 L 155.10 311.72 L 160.20 310.90 L 165.31 313.66 L 170.41 313.79 L 175.51 314.09 L 180.61 313.96 L 185.71 313.81 L 190.82 313.81 L 195.92 313.29 L 201.02 316.09 L 206.12 316.89 L 211.22 317.15 L 216.33 317.36 L 221.43 317.19 L 226.53 318.11 L 231.63 318.57 L 236.73 318.95 L 241.84 316.64 L 246.94 317.89 L 252.04 318.03 L 257.14 319.09 L 262.24 320.60 L 267.35 319.23 L 272.45 319.69 L 277.55 319.61 L 282.65 319.46 L 287.76 321.16 L 292.86 319.96 L 297.96 319.87 L 303.06 320.08 L 308.16 318.52 L 313.27 320.34 L 318.37 312.43 L 323.47 318.25 L 328.57 321.51 L 333.67 319.99 L 338.78 319.46 L 343.88 322.07 L 348.98 319.13 L 354.08 322.08 L 359.18 322.08 L 364.29 320.61 L 369.39 322.76 L 374.49 321.93 L 379.59 322.52 L 384.69 321.75 L 389.80 323.84 L 394.90 324.63 L 400.00 321.75 L 405.10 323.27 L 410.20 324.60 L 415.31 324.86 L 420.41 324.96 L 425.51 324.56 L 430.61 326.08 L 435.71 326.37 L 440.82 325.75 L 445.92 324.32 L 451.02 323.01 L 456.12 325.08 L 461.22 326.55 L 466.33 323.80 L 471.43 325.94 L 476.53 326.20 L 481.63 325.81 L 486.73 326.61 L 491.84 327.40 L 496.94 327.18 L 502.04 325.79 L 507.14 327.58 L 512.24 327.92 L 517.35 324.89 L 522.45 327.47 L 527.55 328.89 L 532.65 326.49 L 537.76 328.35 L 542.86 330.11 L 547.96 325.96 L 553.06 327.37 L 558.16 330.09 L 563.27 330.81 L 568.37 329.03 L 573.47 330.58 L 578.57 328.69 L 583.67 330.23 L 588.78 330.88 L 593.88 329.93 L 598.98 331.42 L 604.08 328.64 L 609.18 331.38 L 614.29 332.72 L 619.39 331.62 L 624.49 332.23 L 629.59 333.03 L 634.69 332.82 L 639.80 333.61 L 644.90 334.04 L 650.00 332.42 L 650.00 400.00 Z" /><text  class="poloto_text poloto_legend_text" x="675" y="350" >Level 5</text><rect  class="poloto_linefill poloto_legend_icon poloto5fill poloto5legend" x="680" y="326.25" width="50" height="7.5" rx="5" ry="5" /><path  class="poloto_linefill poloto5fill" d=" M 150.00 400.00 L 150.00 355.41 L 155.10 360.86 L 160.20 358.81 L 165.31 360.62 L 170.41 360.09 L 175.51 360.44 L 180.61 359.74 L 185.71 359.46 L 190.82 358.95 L 195.92 358.91 L 201.02 360.05 L 206.12 360.15 L 211.22 359.85 L 216.33 359.20 L 221.43 358.74 L 226.53 359.73 L 231.63 359.56 L 236.73 359.60 L 241.84 357.67 L 246.94 358.01 L 252.04 358.06 L 257.14 358.71 L 262.24 359.02 L 267.35 358.25 L 272.45 358.38 L 277.55 357.89 L 282.65 357.94 L 287.76 358.53 L 292.86 357.82 L 297.96 357.10 L 303.06 357.25 L 308.16 356.15 L 313.27 357.17 L 318.37 355.73 L 323.47 355.36 L 328.57 356.93 L 333.67 355.79 L 338.78 355.89 L 343.88 357.04 L 348.98 354.95 L 354.08 356.72 L 359.18 355.95 L 364.29 355.59 L 369.39 356.74 L 374.49 356.14 L 379.59 355.98 L 384.69 355.37 L 389.80 356.62 L 394.90 357.00 L 400.00 355.11 L 405.10 355.95 L 410.20 356.76 L 415.31 356.39 L 420.41 356.24 L 425.51 356.22 L 430.61 356.98 L 435.71 356.99 L 440.82 356.53 L 445.92 356.01 L 451.02 354.79 L 456.12 356.29 L 461.22 356.59 L 466.33 354.81 L 471.43 356.18 L 476.53 356.10 L 481.63 356.10 L 486.73 356.05 L 491.84 356.41 L 496.94 356.05 L 502.04 355.32 L 507.14 356.41 L 512.24 356.57 L 517.35 354.50 L 522.45 356.06 L 527.55 356.72 L 532.65 355.43 L 537.76 356.63 L 542.86 357.61 L 547.96 355.03 L 553.06 355.64 L 558.16 357.70 L 563.27 358.25 L 568.37 357.13 L 573.47 357.58 L 578.57 356.39 L 583.67 357.18 L 588.78 357.70 L 593.88 357.19 L 598.98 358.14 L 604.08 356.40 L 609.18 358.35 L 614.29 358.67 L 619.39 358.08 L 624.49 358.36 L 629.59 358.70 L 634.69 359.33 L 639.80 359.20 L 644.90 359.33 L 650.00 358.48 L 650.00 400.00 Z" /><text  class="poloto_text poloto_legend_text" x="675" y="400" >Level 6</text><rect  class="poloto_linefill poloto_legend_icon poloto6fill poloto6legend" x="680" y="376.25" width="50" height="7.5" rx="5" ry="5" /><path  class="poloto_linefill poloto6fill" d=" M 150.00 400.00 L 150.00 382.38 L 155.10 383.69 L 160.20 381.98 L 165.31 383.43 L 170.41 382.52 L 175.51 382.66 L 180.61 382.26 L 185.71 382.41 L 190.82 381.77 L 195.92 381.12 L 201.02 381.73 L 206.12 381.60 L 211.22 381.22 L 216.33 380.59 L 221.43 380.11 L 226.53 380.56 L 231.63 380.45 L 236.73 380.38 L 241.84 379.51 L 246.94 379.07 L 252.04 379.02 L 257.14 379.40 L 262.24 379.53 L 267.35 378.86 L 272.45 378.77 L 277.55 378.39 L 282.65 378.33 L 287.76 378.50 L 292.86 378.22 L 297.96 377.47 L 303.06 377.62 L 308.16 376.84 L 313.27 377.31 L 318.37 376.76 L 323.47 376.27 L 328.57 376.82 L 333.67 376.25 L 338.78 376.44 L 343.88 376.67 L 348.98 375.55 L 354.08 376.33 L 359.18 375.65 L 364.29 375.74 L 369.39 376.06 L 374.49 375.65 L 379.59 375.40 L 384.69 375.09 L 389.80 375.70 L 394.90 375.78 L 400.00 374.79 L 405.10 375.39 L 410.20 375.47 L 415.31 375.12 L 420.41 374.93 L 425.51 374.82 L 430.61 375.27 L 435.71 375.25 L 440.82 374.90 L 445.92 374.65 L 451.02 373.95 L 456.12 374.75 L 461.22 374.79 L 466.33 373.74 L 471.43 374.46 L 476.53 374.26 L 481.63 374.87 L 486.73 374.14 L 491.84 374.53 L 496.94 374.02 L 502.04 373.81 L 507.14 374.24 L 512.24 374.23 L 517.35 373.15 L 522.45 373.88 L 527.55 374.19 L 532.65 373.47 L 537.76 374.13 L 542.86 374.64 L 547.96 373.32 L 553.06 373.41 L 558.16 374.67 L 563.27 375.00 L 568.37 374.34 L 573.47 374.54 L 578.57 374.03 L 583.67 374.26 L 588.78 374.54 L 593.88 374.36 L 598.98 374.72 L 604.08 373.89 L 609.18 374.86 L 614.29 374.97 L 619.39 374.55 L 624.49 374.70 L 629.59 374.89 L 634.69 375.35 L 639.80 375.24 L 644.90 375.26 L 650.00 374.73 L 650.00 400.00 Z" /><text  class="poloto_labels poloto_text poloto_title" x="400" y="37.5" >Bench of query levels with abspiral(5000,x)</text><text  class="poloto_labels poloto_text poloto_xname" x="400" y="481.25" >Spiral Grow</text><text  class="poloto_labels poloto_text poloto_yname" transform="rotate(-90,37.5,250)" x="37.5" y="250" >Time taken in Seconds</text><text  class="poloto_tick_labels poloto_text" dominant-baseline="middle" text-anchor="start" x="150" y="70" ></text><line  class="poloto_axis_lines" stroke="black" x1="150" x2="144" y1="400" y2="400" /><text  class="poloto_tick_labels poloto_text" dominant-baseline="middle" text-anchor="end" x="135" y="400" >0e0</text><line  class="poloto_axis_lines" stroke="black" x1="150" x2="144" y1="312.04571980756776" y2="312.04571980756776" /><text  class="poloto_tick_labels poloto_text" dominant-baseline="middle" text-anchor="end" x="135" y="312.04571980756776" >0.002</text><line  class="poloto_axis_lines" stroke="black" x1="150" x2="144" y1="224.09143961513553" y2="224.09143961513553" /><text  class="poloto_tick_labels poloto_text" dominant-baseline="middle" text-anchor="end" x="135" y="224.09143961513553" >0.004</text><line  class="poloto_axis_lines" stroke="black" x1="150" x2="144" y1="136.1371594227033" y2="136.1371594227033" /><text  class="poloto_tick_labels poloto_text" dominant-baseline="middle" text-anchor="end" x="135" y="136.1371594227033" >0.006</text><text  class="poloto_tick_labels poloto_text" dominant-baseline="middle" text-anchor="start" x="440.00000000000006" y="70" ></text><line  class="poloto_axis_lines" stroke="black" x1="201.58730158730162" x2="201.58730158730162" y1="400" y2="405" /><text  class="poloto_tick_labels poloto_text" dominant-baseline="start" text-anchor="middle" x="201.58730158730162" y="430" >0.7</text><line  class="poloto_axis_lines" stroke="black" x1="258.2766439909297" x2="258.2766439909297" y1="400" y2="405" /><text  class="poloto_tick_labels poloto_text" dominant-baseline="start" text-anchor="middle" x="258.2766439909297" y="430" >0.8</text><line  class="poloto_axis_lines" stroke="black" x1="314.9659863945579" x2="314.9659863945579" y1="400" y2="405" /><text  class="poloto_tick_labels poloto_text" dominant-baseline="start" text-anchor="middle" x="314.9659863945579" y="430" >0.9</text><line  class="poloto_axis_lines" stroke="black" x1="371.6553287981859" x2="371.6553287981859" y1="400" y2="405" /><text  class="poloto_tick_labels poloto_text" dominant-baseline="start" text-anchor="middle" x="371.6553287981859" y="430" >1.0</text><line  class="poloto_axis_lines" stroke="black" x1="428.3446712018141" x2="428.3446712018141" y1="400" y2="405" /><text  class="poloto_tick_labels poloto_text" dominant-baseline="start" text-anchor="middle" x="428.3446712018141" y="430" >1.1</text><line  class="poloto_axis_lines" stroke="black" x1="485.03401360544217" x2="485.03401360544217" y1="400" y2="405" /><text  class="poloto_tick_labels poloto_text" dominant-baseline="start" text-anchor="middle" x="485.03401360544217" y="430" >1.2</text><line  class="poloto_axis_lines" stroke="black" x1="541.7233560090704" x2="541.7233560090704" y1="400" y2="405" /><text  class="poloto_tick_labels poloto_text" dominant-baseline="start" text-anchor="middle" x="541.7233560090704" y="430" >1.3</text><line  class="poloto_axis_lines" stroke="black" x1="598.4126984126984" x2="598.4126984126984" y1="400" y2="405" /><text  class="poloto_tick_labels poloto_text" dominant-baseline="start" text-anchor="middle" x="598.4126984126984" y="430" >1.4</text><path  stroke="black" fill="none" class="poloto_axis_lines" style="stroke-dasharray:14.172335600907028;stroke-dashoffset:-51.587301587301624;" d=" M 150 400 L 650 400" /><path  stroke="black" fill="none" class="poloto_axis_lines" style="stroke-dasharray:10.99428502405403;stroke-dashoffset:-0;" d=" M 150 400 L 150 100" /></svg>