<svg class="poloto" width="800" height="500" viewBox="0 0 800 500" xmlns="http://www.w3.org/2000/svg"><circle  r="1e5" class="poloto_background" /><text  class="poloto_text poloto_legend_text" x="675" y="100" >Level 0</text><rect  class="poloto_linefill poloto_legend_icon poloto0fill poloto0legend" x="680" y="76.25" width="50" height="7.5" rx="5" ry="5" /><path  class="poloto_linefill poloto0fill" d=" M 150.00 400.00 L 150.00 130.82 L 155.10 135.79 L 160.20 100.00 L 165.31 140.17 L 170.41 149.21 L 175.51 149.55 L 180.61 153.66 L 185.71 156.08 L 190.82 158.12 L 195.92 159.50 L 201.02 139.25 L 206.12 160.23 L 211.22 159.25 L 216.33 173.75 L 221.43 177.80 L 226.53 180.22 L 231.63 181.54 L 236.73 183.08 L 241.84 186.18 L 246.94 185.11 L 252.04 185.14 L 257.14 192.29 L 262.24 190.80 L 267.35 191.76 L 272.45 195.02 L 277.55 196.85 L 282.65 195.98 L 287.76 198.67 L 292.86 197.12 L 297.96 171.95 L 303.06 171.07 L 308.16 193.72 L 313.27 188.74 L 318.37 201.48 L 323.47 187.73 L 328.57 201.96 L 333.67 205.04 L 338.78 206.21 L 343.88 201.98 L 348.98 213.15 L 354.08 214.91 L 359.18 209.07 L 364.29 213.80 L 369.39 210.93 L 374.49 218.36 L 379.59 214.41 L 384.69 220.82 L 389.80 223.11 L 394.90 216.21 L 400.00 221.86 L 405.10 226.43 L 410.20 223.76 L 415.31 223.54 L 420.41 225.23 L 425.51 227.28 L 430.61 229.95 L 435.71 222.91 L 440.82 225.59 L 445.92 224.57 L 451.02 231.78 L 456.12 234.11 L 461.22 226.40 L 466.33 226.92 L 471.43 236.95 L 476.53 228.69 L 481.63 232.34 L 486.73 236.97 L 491.84 233.79 L 496.94 237.53 L 502.04 239.90 L 507.14 239.04 L 512.24 241.00 L 517.35 239.21 L 522.45 239.70 L 527.55 241.77 L 532.65 242.18 L 537.76 242.72 L 542.86 245.57 L 547.96 240.04 L 553.06 242.70 L 558.16 245.42 L 563.27 242.15 L 568.37 246.70 L 573.47 244.46 L 578.57 248.00 L 583.67 250.65 L 588.78 246.98 L 593.88 251.37 L 598.98 246.41 L 604.08 249.81 L 609.18 251.50 L 614.29 248.17 L 619.39 252.18 L 624.49 248.31 L 629.59 253.09 L 634.69 255.62 L 639.80 254.39 L 644.90 257.75 L 650.00 255.72 L 650.00 400.00 Z" /><text  class="poloto_text poloto_legend_text" x="675" y="150" >Level 1</text><rect  class="poloto_linefill poloto_legend_icon poloto1fill poloto1legend" x="680" y="126.25" width="50" height="7.5" rx="5" ry="5" /><path  class="poloto_linefill poloto1fill" d=" M 150.00 400.00 L 150.00 138.36 L 155.10 143.03 L 160.20 107.91 L 165.31 147.27 L 170.41 156.20 L 175.51 156.26 L 180.61 160.35 L 185.71 162.68 L 190.82 164.58 L 195.92 165.57 L 201.02 145.39 L 206.12 166.15 L 211.22 165.47 L 216.33 178.91 L 221.43 182.57 L 226.53 184.98 L 231.63 186.12 L 236.73 187.72 L 241.84 190.71 L 246.94 189.55 L 252.04 189.70 L 257.14 196.47 L 262.24 195.08 L 267.35 195.97 L 272.45 199.06 L 277.55 200.85 L 282.65 199.89 L 287.76 202.54 L 292.86 201.14 L 297.96 175.64 L 303.06 175.65 L 308.16 197.48 L 313.27 192.57 L 318.37 205.22 L 323.47 193.09 L 328.57 205.57 L 333.67 208.54 L 338.78 209.72 L 343.88 205.43 L 348.98 217.34 L 354.08 218.22 L 359.18 212.66 L 364.29 217.08 L 369.39 214.07 L 374.49 221.50 L 379.59 217.60 L 384.69 223.82 L 389.80 226.07 L 394.90 219.23 L 400.00 224.70 L 405.10 229.28 L 410.20 226.64 L 415.31 226.38 L 420.41 228.07 L 425.51 230.02 L 430.61 232.63 L 435.71 225.72 L 440.82 228.24 L 445.92 227.62 L 451.02 234.41 L 456.12 236.69 L 461.22 229.07 L 466.33 229.50 L 471.43 239.62 L 476.53 231.36 L 481.63 234.87 L 486.73 239.47 L 491.84 236.34 L 496.94 239.99 L 502.04 242.34 L 507.14 241.53 L 512.24 243.37 L 517.35 241.56 L 522.45 242.08 L 527.55 244.12 L 532.65 244.48 L 537.76 245.12 L 542.86 247.87 L 547.96 242.48 L 553.06 245.00 L 558.16 247.66 L 563.27 244.45 L 568.37 248.85 L 573.47 246.65 L 578.57 250.29 L 583.67 252.77 L 588.78 249.16 L 593.88 253.41 L 598.98 248.54 L 604.08 251.82 L 609.18 253.55 L 614.29 250.25 L 619.39 254.16 L 624.49 250.34 L 629.59 255.04 L 634.69 257.83 L 639.80 256.44 L 644.90 259.69 L 650.00 257.69 L 650.00 400.00 Z" /><text  class="poloto_text poloto_legend_text" x="675" y="200" >Level 2</text><rect  class="poloto_linefill poloto_legend_icon poloto2fill poloto2legend" x="680" y="176.25" width="50" height="7.5" rx="5" ry="5" /><path  class="poloto_linefill poloto2fill" d=" M 150.00 400.00 L 150.00 200.12 L 155.10 202.86 L 160.20 177.02 L 165.31 205.88 L 170.41 213.66 L 175.51 213.86 L 180.61 214.87 L 185.71 216.25 L 190.82 217.40 L 195.92 218.10 L 201.02 201.21 L 206.12 218.78 L 211.22 216.84 L 216.33 227.78 L 221.43 230.25 L 226.53 231.92 L 231.63 232.54 L 236.73 233.78 L 241.84 236.03 L 246.94 235.10 L 252.04 234.89 L 257.14 240.43 L 262.24 238.54 L 267.35 239.12 L 272.45 241.28 L 277.55 242.39 L 282.65 241.36 L 287.76 243.48 L 292.86 242.20 L 297.96 221.74 L 303.06 221.83 L 308.16 238.32 L 313.27 234.57 L 318.37 244.70 L 323.47 235.42 L 328.57 244.58 L 333.67 247.13 L 338.78 247.56 L 343.88 244.90 L 348.98 253.79 L 354.08 254.28 L 359.18 249.61 L 364.29 253.56 L 369.39 250.55 L 374.49 256.57 L 379.59 253.10 L 384.69 258.14 L 389.80 259.77 L 394.90 254.12 L 400.00 258.67 L 405.10 262.19 L 410.20 260.09 L 415.31 259.69 L 420.41 261.07 L 425.51 262.46 L 430.61 264.58 L 435.71 258.91 L 440.82 260.75 L 445.92 260.30 L 451.02 265.79 L 456.12 267.62 L 461.22 261.61 L 466.33 261.66 L 471.43 269.73 L 476.53 262.95 L 481.63 265.73 L 486.73 269.41 L 491.84 266.79 L 496.94 269.73 L 502.04 271.65 L 507.14 270.94 L 512.24 272.30 L 517.35 270.74 L 522.45 271.23 L 527.55 272.83 L 532.65 273.04 L 537.76 273.74 L 542.86 275.85 L 547.96 271.49 L 553.06 273.39 L 558.16 275.51 L 563.27 272.98 L 568.37 276.52 L 573.47 274.70 L 578.57 277.58 L 583.67 279.58 L 588.78 276.67 L 593.88 280.06 L 598.98 276.16 L 604.08 278.71 L 609.18 280.22 L 614.29 277.59 L 619.39 280.49 L 624.49 277.36 L 629.59 281.33 L 634.69 283.60 L 639.80 282.44 L 644.90 284.95 L 650.00 283.34 L 650.00 400.00 Z" /><text  class="poloto_text poloto_legend_text" x="675" y="250" >Level 3</text><rect  class="poloto_linefill poloto_legend_icon poloto3fill poloto3legend" x="680" y="226.25" width="50" height="7.5" rx="5" ry="5" /><path  class="poloto_linefill poloto3fill" d=" M 150.00 400.00 L 150.00 264.58 L 155.10 264.37 L 160.20 248.35 L 165.31 266.66 L 170.41 270.63 L 175.51 270.29 L 180.61 271.14 L 185.71 271.27 L 190.82 271.64 L 195.92 272.48 L 201.02 258.64 L 206.12 274.83 L 211.22 269.78 L 216.33 278.65 L 221.43 279.56 L 226.53 280.41 L 231.63 280.63 L 236.73 281.63 L 241.84 283.18 L 246.94 281.90 L 252.04 282.12 L 257.14 285.40 L 262.24 283.64 L 267.35 283.89 L 272.45 285.25 L 277.55 285.92 L 282.65 284.81 L 287.76 286.40 L 292.86 285.29 L 297.96 270.85 L 303.06 270.78 L 308.16 281.51 L 313.27 278.88 L 318.37 286.22 L 323.47 280.19 L 328.57 286.01 L 333.67 288.15 L 338.78 287.86 L 343.88 286.34 L 348.98 292.58 L 354.08 292.68 L 359.18 289.07 L 364.29 292.21 L 369.39 289.52 L 374.49 294.18 L 379.59 290.98 L 384.69 294.80 L 389.80 295.95 L 394.90 291.41 L 400.00 295.30 L 405.10 297.36 L 410.20 295.94 L 415.31 295.33 L 420.41 296.38 L 425.51 297.24 L 430.61 298.78 L 435.71 294.54 L 440.82 295.66 L 445.92 295.24 L 451.02 299.39 L 456.12 300.83 L 461.22 296.12 L 466.33 296.10 L 471.43 301.92 L 476.53 296.71 L 481.63 298.77 L 486.73 301.44 L 491.84 299.32 L 496.94 301.58 L 502.04 303.00 L 507.14 302.36 L 512.24 303.22 L 517.35 301.91 L 522.45 302.52 L 527.55 303.74 L 532.65 303.79 L 537.76 304.33 L 542.86 305.82 L 547.96 302.62 L 553.06 303.83 L 558.16 305.38 L 563.27 303.50 L 568.37 306.26 L 573.47 304.76 L 578.57 306.89 L 583.67 308.30 L 588.78 306.07 L 593.88 308.50 L 598.98 305.67 L 604.08 307.59 L 609.18 308.78 L 614.29 307.00 L 619.39 308.60 L 624.49 306.21 L 629.59 309.36 L 634.69 311.17 L 639.80 310.32 L 644.90 311.96 L 650.00 310.77 L 650.00 400.00 Z" /><text  class="poloto_text poloto_legend_text" x="675" y="300" >Level 4</text><rect  class="poloto_linefill poloto_legend_icon poloto4fill poloto4legend" x="680" y="276.25" width="50" height="7.5" rx="5" ry="5" /><path  class="poloto_linefill poloto4fill" d=" M 150.00 400.00 L 150.00 311.71 L 155.10 310.93 L 160.20 300.98 L 165.31 312.03 L 170.41 314.25 L 175.51 313.61 L 180.61 314.08 L 185.71 313.93 L 190.82 313.74 L 195.92 314.59 L 201.02 304.04 L 206.12 315.55 L 211.22 311.76 L 216.33 317.17 L 221.43 317.46 L 226.53 317.85 L 231.63 317.72 L 236.73 318.32 L 241.84 319.13 L 246.94 317.93 L 252.04 317.74 L 257.14 320.06 L 262.24 318.66 L 267.35 318.84 L 272.45 319.33 L 277.55 319.72 L 282.65 318.57 L 287.76 319.83 L 292.86 318.85 L 297.96 308.60 L 303.06 308.50 L 308.16 315.57 L 313.27 313.56 L 318.37 318.58 L 323.47 314.49 L 328.57 318.40 L 333.67 319.74 L 338.78 319.34 L 343.88 318.30 L 348.98 322.66 L 354.08 322.67 L 359.18 319.80 L 364.29 322.09 L 369.39 320.02 L 374.49 323.56 L 379.59 320.80 L 384.69 323.60 L 389.80 324.21 L 394.90 320.87 L 400.00 323.74 L 405.10 325.14 L 410.20 324.06 L 415.31 323.53 L 420.41 324.50 L 425.51 324.77 L 430.61 325.94 L 435.71 322.55 L 440.82 323.27 L 445.92 323.03 L 451.02 326.14 L 456.12 327.04 L 461.22 323.51 L 466.33 323.57 L 471.43 327.63 L 476.53 323.75 L 481.63 325.22 L 486.73 327.06 L 491.84 325.41 L 496.94 327.08 L 502.04 328.07 L 507.14 327.56 L 512.24 328.09 L 517.35 327.01 L 522.45 327.48 L 527.55 328.31 L 532.65 328.30 L 537.76 328.84 L 542.86 329.84 L 547.96 327.47 L 553.06 328.24 L 558.16 329.35 L 563.27 328.04 L 568.37 330.09 L 573.47 328.92 L 578.57 330.40 L 583.67 331.41 L 588.78 329.78 L 593.88 331.55 L 598.98 329.68 L 604.08 330.80 L 609.18 331.92 L 614.29 330.40 L 619.39 331.46 L 624.49 329.61 L 629.59 332.61 L 634.69 333.45 L 639.80 332.74 L 644.90 333.89 L 650.00 333.02 L 650.00 400.00 Z" /><text  class="poloto_text poloto_legend_text" x="675" y="350" >Level 5</text><rect  class="poloto_linefill poloto_legend_icon poloto5fill poloto5legend" x="680" y="326.25" width="50" height="7.5" rx="5" ry="5" /><path  class="poloto_linefill poloto5fill" d=" M 150.00 400.00 L 150.00 361.17 L 155.10 360.04 L 160.20 355.71 L 165.31 360.57 L 170.41 360.63 L 175.51 360.09 L 180.61 359.94 L 185.71 359.27 L 190.82 358.78 L 195.92 359.13 L 201.02 353.61 L 206.12 359.14 L 211.22 355.74 L 216.33 359.13 L 221.43 359.41 L 226.53 359.13 L 231.63 358.83 L 236.73 358.96 L 241.84 359.19 L 246.94 358.16 L 252.04 357.68 L 257.14 359.02 L 262.24 358.27 L 267.35 357.79 L 272.45 357.85 L 277.55 358.03 L 282.65 356.89 L 287.76 357.62 L 292.86 356.98 L 297.96 351.79 L 303.06 351.71 L 308.16 354.53 L 313.27 353.04 L 318.37 355.51 L 323.47 353.56 L 328.57 355.59 L 333.67 356.14 L 338.78 355.42 L 343.88 354.82 L 348.98 357.13 L 354.08 356.99 L 359.18 355.13 L 364.29 356.21 L 369.39 355.22 L 374.49 356.79 L 379.59 355.23 L 384.69 356.74 L 389.80 356.64 L 394.90 354.85 L 400.00 356.41 L 405.10 357.04 L 410.20 356.41 L 415.31 356.13 L 420.41 356.42 L 425.51 356.37 L 430.61 357.07 L 435.71 354.56 L 440.82 354.84 L 445.92 354.86 L 451.02 356.80 L 456.12 357.02 L 461.22 354.83 L 466.33 355.17 L 471.43 357.04 L 476.53 354.70 L 481.63 355.55 L 486.73 356.41 L 491.84 355.24 L 496.94 356.51 L 502.04 356.78 L 507.14 356.43 L 512.24 356.67 L 517.35 355.89 L 522.45 356.22 L 527.55 356.62 L 532.65 356.41 L 537.76 357.05 L 542.86 357.49 L 547.96 356.17 L 553.06 356.44 L 558.16 356.97 L 563.27 356.29 L 568.37 357.50 L 573.47 357.06 L 578.57 357.59 L 583.67 358.03 L 588.78 357.06 L 593.88 358.08 L 598.98 356.97 L 604.08 357.64 L 609.18 358.65 L 614.29 357.50 L 619.39 357.87 L 624.49 356.64 L 629.59 358.62 L 634.69 359.36 L 639.80 358.72 L 644.90 359.28 L 650.00 358.81 L 650.00 400.00 Z" /><text  class="poloto_text poloto_legend_text" x="675" y="400" >Level 6</text><rect  class="poloto_linefill poloto_legend_icon poloto6fill poloto6legend" x="680" y="376.25" width="50" height="7.5" rx="5" ry="5" /><path  class="poloto_linefill poloto6fill" d=" M 150.00 400.00 L 150.00 383.86 L 155.10 383.07 L 160.20 381.23 L 165.31 383.07 L 170.41 383.12 L 175.51 383.04 L 180.61 382.01 L 185.71 381.90 L 190.82 381.31 L 195.92 381.27 L 201.02 377.85 L 206.12 381.00 L 211.22 378.58 L 216.33 380.61 L 221.43 380.55 L 226.53 380.28 L 231.63 379.88 L 236.73 379.90 L 241.84 380.00 L 246.94 379.67 L 252.04 378.90 L 257.14 379.58 L 262.24 379.02 L 267.35 378.76 L 272.45 378.44 L 277.55 378.40 L 282.65 377.81 L 287.76 378.26 L 292.86 377.64 L 297.96 374.92 L 303.06 374.92 L 308.16 375.79 L 313.27 374.90 L 318.37 376.15 L 323.47 375.29 L 328.57 376.22 L 333.67 376.34 L 338.78 375.69 L 343.88 375.57 L 348.98 376.68 L 354.08 376.42 L 359.18 375.23 L 364.29 375.86 L 369.39 375.23 L 374.49 376.02 L 379.59 374.96 L 384.69 375.84 L 389.80 375.62 L 394.90 374.55 L 400.00 375.54 L 405.10 375.78 L 410.20 375.57 L 415.31 375.03 L 420.41 375.08 L 425.51 375.06 L 430.61 375.37 L 435.71 373.81 L 440.82 374.14 L 445.92 373.94 L 451.02 375.08 L 456.12 375.15 L 461.22 373.79 L 466.33 373.98 L 471.43 374.97 L 476.53 373.50 L 481.63 373.94 L 486.73 374.38 L 491.84 373.59 L 496.94 374.32 L 502.04 374.46 L 507.14 374.24 L 512.24 374.55 L 517.35 373.78 L 522.45 373.98 L 527.55 374.13 L 532.65 374.09 L 537.76 374.40 L 542.86 374.58 L 547.96 373.80 L 553.06 373.89 L 558.16 374.28 L 563.27 373.97 L 568.37 374.70 L 573.47 374.26 L 578.57 374.53 L 583.67 374.77 L 588.78 374.23 L 593.88 374.77 L 598.98 374.07 L 604.08 374.43 L 609.18 375.03 L 614.29 374.28 L 619.39 374.44 L 624.49 373.69 L 629.59 375.05 L 634.69 375.39 L 639.80 374.95 L 644.90 375.26 L 650.00 375.03 L 650.00 400.00 Z" /><text  class="poloto_labels poloto_text poloto_title" x="400" y="37.5" >Bench of query levels with abspiral(5000,x)</text><text  class="poloto_labels poloto_text poloto_xname" x="400" y="481.25" >Spiral Grow</text><text  class="poloto_labels poloto_text poloto_yname" transform="rotate(-90,37.5,250)" x="37.5" y="250" >Time taken in Seconds</text><text  class="poloto_tick_labels poloto_text" dominant-baseline="middle" text-anchor="start" x="150" y="70" ></text><line  class="poloto_axis_lines" stroke="black" x1="150" x2="144" y1="400" y2="400" /><text  class="poloto_tick_labels poloto_text" dominant-baseline="middle" text-anchor="end" x="135" y="400" >0e0</text><line  class="poloto_axis_lines" stroke="black" x1="150" x2="144" y1="311.84623515104926" y2="311.84623515104926" /><text  class="poloto_tick_labels poloto_text" dominant-baseline="middle" text-anchor="end" x="135" y="311.84623515104926" >0.002</text><line  class="poloto_axis_lines" stroke="black" x1="150" x2="144" y1="223.6924703020985" y2="223.6924703020985" /><text  class="poloto_tick_labels poloto_text" dominant-baseline="middle" text-anchor="end" x="135" y="223.6924703020985" >0.004</text><line  class="poloto_axis_lines" stroke="black" x1="150" x2="144" y1="135.53870545314783" y2="135.53870545314783" /><text  class="poloto_tick_labels poloto_text" dominant-baseline="middle" text-anchor="end" x="135" y="135.53870545314783" >0.006</text><text  class="poloto_tick_labels poloto_text" dominant-baseline="middle" text-anchor="start" x="440.00000000000006" y="70" ></text><line  class="poloto_axis_lines" stroke="black" x1="201.58730158730162" x2="201.58730158730162" y1="400" y2="405" /><text  class="poloto_tick_labels poloto_text" dominant-baseline="start" text-anchor="middle" x="201.58730158730162" y="430" >0.7</text><line  class="poloto_axis_lines" stroke="black" x1="258.2766439909297" x2="258.2766439909297" y1="400" y2="405" /><text  class="poloto_tick_labels poloto_text" dominant-baseline="start" text-anchor="middle" x="258.2766439909297" y="430" >0.8</text><line  class="poloto_axis_lines" stroke="black" x1="314.9659863945579" x2="314.9659863945579" y1="400" y2="405" /><text  class="poloto_tick_labels poloto_text" dominant-baseline="start" text-anchor="middle" x="314.9659863945579" y="430" >0.9</text><line  class="poloto_axis_lines" stroke="black" x1="371.6553287981859" x2="371.6553287981859" y1="400" y2="405" /><text  class="poloto_tick_labels poloto_text" dominant-baseline="start" text-anchor="middle" x="371.6553287981859" y="430" >1.0</text><line  class="poloto_axis_lines" stroke="black" x1="428.3446712018141" x2="428.3446712018141" y1="400" y2="405" /><text  class="poloto_tick_labels poloto_text" dominant-baseline="start" text-anchor="middle" x="428.3446712018141" y="430" >1.1</text><line  class="poloto_axis_lines" stroke="black" x1="485.03401360544217" x2="485.03401360544217" y1="400" y2="405" /><text  class="poloto_tick_labels poloto_text" dominant-baseline="start" text-anchor="middle" x="485.03401360544217" y="430" >1.2</text><line  class="poloto_axis_lines" stroke="black" x1="541.7233560090704" x2="541.7233560090704" y1="400" y2="405" /><text  class="poloto_tick_labels poloto_text" dominant-baseline="start" text-anchor="middle" x="541.7233560090704" y="430" >1.3</text><line  class="poloto_axis_lines" stroke="black" x1="598.4126984126984" x2="598.4126984126984" y1="400" y2="405" /><text  class="poloto_tick_labels poloto_text" dominant-baseline="start" text-anchor="middle" x="598.4126984126984" y="430" >1.4</text><path  stroke="black" fill="none" class="poloto_axis_lines" style="stroke-dasharray:14.172335600907028;stroke-dashoffset:-51.587301587301624;" d=" M 150 400 L 650 400" /><path  stroke="black" fill="none" class="poloto_axis_lines" style="stroke-dasharray:11.019220606118841;stroke-dashoffset:-0;" d=" M 150 400 L 150 100" /></svg>