<svg class="poloto" width="800" height="500" viewBox="0 0 800 500" xmlns="http://www.w3.org/2000/svg"><style>.poloto {
                    font-family: "Arial";
                    stroke-width:2;
                    }
                    .poloto_text{fill: var(--poloto_fg_color,black);  }
                    .poloto_axis_lines{stroke: var(--poloto_fg_color,black);stoke-width:3;fill:none}
                    .poloto_background{fill: var(--poloto_bg_color,aliceblue); }
                    .poloto0stroke{stroke:  var(--poloto_color0,blue); }
                    .poloto1stroke{stroke:  var(--poloto_color1,red); }
                    .poloto2stroke{stroke:  var(--poloto_color2,green); }
                    .poloto3stroke{stroke:  var(--poloto_color3,gold); }
                    .poloto4stroke{stroke:  var(--poloto_color4,aqua); }
                    .poloto5stroke{stroke:  var(--poloto_color5,brown); }
                    .poloto6stroke{stroke:  var(--poloto_color6,lime); }
                    .poloto7stroke{stroke:  var(--poloto_color7,chocolate); }
                    .poloto0fill{fill:var(--poloto_color0,blue);}
                    .poloto1fill{fill:var(--poloto_color1,red);}
                    .poloto2fill{fill:var(--poloto_color2,green);}
                    .poloto3fill{fill:var(--poloto_color3,gold);}
                    .poloto4fill{fill:var(--poloto_color4,aqua);}
                    .poloto5fill{fill:var(--poloto_color5,brown);}
                    .poloto6fill{fill:var(--poloto_color6,lime);}
                    .poloto7fill{fill:var(--poloto_color7,chocolate);}</style><rect class="poloto_background" fill="white" x="0" y="0" width="800" height="500"/><line class="poloto_axis_lines" stroke="black" x1="258.27664399092976" x2="258.27664399092976" y1="400" y2="405"/><text class="poloto_text" alignment-baseline="start" text-anchor="middle" x="258.27664399092976" y="430">0.8</text><line class="poloto_axis_lines" stroke="black" x1="371.6553287981859" x2="371.6553287981859" y1="400" y2="405"/><text class="poloto_text" alignment-baseline="start" text-anchor="middle" x="371.6553287981859" y="430">1.0</text><line class="poloto_axis_lines" stroke="black" x1="485.03401360544217" x2="485.03401360544217" y1="400" y2="405"/><text class="poloto_text" alignment-baseline="start" text-anchor="middle" x="485.03401360544217" y="430">1.2</text><line class="poloto_axis_lines" stroke="black" x1="598.4126984126984" x2="598.4126984126984" y1="400" y2="405"/><text class="poloto_text" alignment-baseline="start" text-anchor="middle" x="598.4126984126984" y="430">1.4</text><line class="poloto_axis_lines" stroke="black" x1="150" x2="144" y1="385.8174780506066" y2="385.8174780506066"/><text class="poloto_text" alignment-baseline="middle" text-anchor="end" x="135" y="385.8174780506066">5e-5</text><line class="poloto_axis_lines" stroke="black" x1="150" x2="144" y1="350.5006745509468" y2="350.5006745509468"/><text class="poloto_text" alignment-baseline="middle" text-anchor="end" x="135" y="350.5006745509468">0.00010</text><line class="poloto_axis_lines" stroke="black" x1="150" x2="144" y1="315.18387105128704" y2="315.18387105128704"/><text class="poloto_text" alignment-baseline="middle" text-anchor="end" x="135" y="315.18387105128704">0.00015</text><line class="poloto_axis_lines" stroke="black" x1="150" x2="144" y1="279.86706755162726" y2="279.86706755162726"/><text class="poloto_text" alignment-baseline="middle" text-anchor="end" x="135" y="279.86706755162726">0.00020</text><line class="poloto_axis_lines" stroke="black" x1="150" x2="144" y1="244.55026405196747" y2="244.55026405196747"/><text class="poloto_text" alignment-baseline="middle" text-anchor="end" x="135" y="244.55026405196747">0.00025</text><line class="poloto_axis_lines" stroke="black" x1="150" x2="144" y1="209.2334605523077" y2="209.2334605523077"/><text class="poloto_text" alignment-baseline="middle" text-anchor="end" x="135" y="209.2334605523077">0.00030</text><line class="poloto_axis_lines" stroke="black" x1="150" x2="144" y1="173.9166570526479" y2="173.9166570526479"/><text class="poloto_text" alignment-baseline="middle" text-anchor="end" x="135" y="173.9166570526479">0.00035</text><line class="poloto_axis_lines" stroke="black" x1="150" x2="144" y1="138.59985355298812" y2="138.59985355298812"/><text class="poloto_text" alignment-baseline="middle" text-anchor="end" x="135" y="138.59985355298812">0.00040</text><line class="poloto_axis_lines" stroke="black" x1="150" x2="144" y1="103.28305005332834" y2="103.28305005332834"/><text class="poloto_text" alignment-baseline="middle" text-anchor="end" x="135" y="103.28305005332834">0.00045</text><text class="poloto_text" alignment-baseline="middle" text-anchor="start" font-size="large" x="675" y="100">Level 0</text><rect class="poloto0fill" x="680" y="76.25" width="50" height="7.5" rx="5" ry="5"/><path class="poloto0fill" d=" M 150 400 L 150 100.7670809720126 L 155.10204081632654 102.1981178498188 L 160.20408163265307 100 L 165.3061224489796 152.9978080037294 L 170.40816326530614 152.9518961591799 L 175.51020408163268 147.83237232386918 L 180.61224489795921 148.16152493248606 L 185.71428571428567 142.53273279071027 L 190.8163265306123 145.58834262950083 L 195.91836734693874 153.11011543885834 L 201.02040816326527 157.2231103744287 L 206.1224489795918 153.39264986685563 L 211.22448979591834 142.33919670753215 L 216.32653061224488 154.93034349123081 L 221.42857142857142 147.03491890084686 L 226.53061224489795 160.8409637249339 L 231.6326530612245 148.78168800194004 L 236.73469387755102 144.69200215667945 L 241.83673469387756 147.2877872139044 L 246.9387755102041 147.97293320179782 L 252.0408163265306 142.0905664108945 L 257.14285714285717 143.2383625246335 L 262.2448979591836 136.84884643547497 L 267.34693877551024 151.2489198944263 L 272.4489795918367 142.98408153943586 L 277.5510204081633 145.60529469518065 L 282.65306122448976 137.60957038285767 L 287.75510204081627 137.33975000412028 L 292.85714285714283 138.33992187923064 L 297.9591836734694 140.62703807386862 L 303.0612244897959 142.22900828061313 L 308.1632653061224 149.3276857840448 L 313.265306122449 149.8687392136596 L 318.36734693877554 148.8586786335693 L 323.46938775510205 142.20216750995343 L 328.57142857142856 150.763667014341 L 333.6734693877551 149.0253739460877 L 338.77551020408157 152.26675017128645 L 343.8775510204082 151.13378711501736 L 348.97959183673464 146.05028641927638 L 354.0816326530612 153.5388614333442 L 359.1836734693877 155.27150381303755 L 364.28571428571433 140.28163973564193 L 369.3877551020408 142.5171933971704 L 374.48979591836724 143.51877794442072 L 379.59183673469386 135.10560901473178 L 384.6938775510205 138.31378744464087 L 389.7959183673469 138.27352628865128 L 394.8979591836734 139.33726841006103 L 400 136.8368387222851 L 405.1020408163266 134.23893465685012 L 410.2040816326531 139.0872254412834 L 415.3061224489795 138.5737191183984 L 420.40816326530614 145.02398010957626 L 425.5102040816326 140.18063367763284 L 430.6122448979592 138.26363758367143 L 435.71428571428567 141.20270197091304 L 440.8163265306121 141.19493227414313 L 445.91836734693874 140.32048821949155 L 451.02040816326536 144.64820932033987 L 456.1224489795918 151.40855184624473 L 461.22448979591826 146.810304030589 L 466.3265306122449 145.07695531482574 L 471.4285714285715 145.775521688049 L 476.53061224489795 148.8424329039595 L 481.6326530612244 149.48873040800325 L 486.734693877551 145.40469525130254 L 491.8367346938776 143.94399225855665 L 496.9387755102041 140.2477356042823 L 502.04081632653055 140.63692677884853 L 507.14285714285717 144.98936964214658 L 512.2448979591837 137.61945908783758 L 517.3469387755102 141.05931574870448 L 522.4489795918366 147.7066445034104 L 527.5510204081631 148.99641416721798 L 532.6530612244898 136.2562304727507 L 537.7551020408164 136.9703362395138 L 542.8571428571429 138.44375328151966 L 547.9591836734693 141.13065569177377 L 553.0612244897959 141.4075394312111 L 558.1632653061224 137.5460001365583 L 563.2653061224489 134.58362665900682 L 568.3673469387754 135.48279247610816 L 573.469387755102 141.22459838908287 L 578.5714285714287 148.374132089554 L 583.6734693877552 145.32558561146337 L 588.7755102040816 142.6372705290692 L 593.877551020408 139.25462708987186 L 598.9795918367347 140.32755158019148 L 604.0816326530612 134.4176376825584 L 609.1836734693877 145.74726824524927 L 614.2857142857142 146.7446147760797 L 619.3877551020407 136.7224122789462 L 624.4897959183675 141.6660584328286 L 629.5918367346939 143.89666774186708 L 634.6938775510203 142.82515592368742 L 639.795918367347 145.59046163771077 L 644.8979591836735 142.85835371897713 L 650 140.5133179665997 L 650 400Z"/><text class="poloto_text" alignment-baseline="middle" text-anchor="start" font-size="large" x="675" y="150">Level 1</text><rect class="poloto1fill" x="680" y="126.25" width="50" height="7.5" rx="5" ry="5"/><path class="poloto1fill" d=" M 150 400 L 150 160.08589046611115 L 155.10204081632654 149.99658604232832 L 160.20408163265307 161.16587831713076 L 165.3061224489796 193.21234581272202 L 170.40816326530614 193.51112597032918 L 175.51020408163268 192.075144740033 L 180.61224489795921 188.39584015143842 L 185.71428571428567 183.11174001181936 L 190.8163265306123 187.98122087835247 L 195.91836734693874 189.98368363678316 L 201.02040816326527 194.5981771820487 L 206.1224489795918 194.25701686024195 L 211.22448979591834 185.6488991752349 L 216.32653061224488 193.70960640599725 L 221.42857142857142 194.48798875512978 L 226.53061224489795 197.65519969297927 L 231.6326530612245 192.0023921248237 L 236.73469387755102 184.62400553767478 L 241.83673469387756 187.66195697471548 L 246.9387755102041 189.9787392842932 L 252.0408163265306 181.1827362046679 L 257.14285714285717 183.1534138399489 L 262.2448979591836 183.43241658759626 L 267.34693877551024 189.57400871618708 L 272.4489795918367 181.7689951427623 L 277.5510204081633 184.55690361102543 L 282.65306122448976 180.03776543520897 L 287.75510204081627 179.93181502471 L 292.85714285714283 181.61289487129378 L 297.9591836734694 181.93145243886076 L 303.0612244897959 183.40204413658654 L 308.1632653061224 190.81645386330516 L 313.265306122449 192.79278218714606 L 318.36734693877554 187.9656814848126 L 323.46938775510205 186.12073166999033 L 328.57142857142856 188.8168164491544 L 333.6734693877551 186.9789299950321 L 338.77551020408157 189.91870071834376 L 343.8775510204082 188.71863573542532 L 348.97959183673464 188.48413216018758 L 354.0816326530612 192.8146786053159 L 359.1836734693877 193.65733753681778 L 364.28571428571433 179.6916607609123 L 369.3877551020408 181.14388772081827 L 374.48979591836724 181.45396925554533 L 379.59183673469386 178.1002855952176 L 384.6938775510205 182.94575103537093 L 389.7959183673469 181.8078436266119 L 394.8979591836734 179.7651197121916 L 400 178.77271753385114 L 405.1020408163266 171.63448521049995 L 410.2040816326531 176.52444982306278 L 415.3061224489795 183.05523312621992 L 420.40816326530614 186.7416010755144 L 425.5102040816326 182.03810918542973 L 430.6122448979592 180.3323075763961 L 435.71428571428567 176.6826691027413 L 440.8163265306121 180.29345909254647 L 445.91836734693874 178.82357373089062 L 451.02040816326536 183.00367059311037 L 456.1224489795918 189.6213332328766 L 461.22448979591826 189.64181697890643 L 466.3265306122449 183.73543476162328 L 471.4285714285715 184.8429697193727 L 476.53061224489795 189.14738172991122 L 481.6326530612244 188.01512500971214 L 486.734693877551 183.76086286014305 L 491.8367346938776 182.3383020151768 L 496.9387755102041 178.9775549941492 L 502.04081632653055 177.56558919023277 L 507.14285714285717 180.552684430234 L 512.2448979591837 179.22124093829683 L 517.3469387755102 182.52760008193496 L 522.4489795918366 186.06422478439092 L 527.5510204081631 188.13449580554095 L 532.6530612244898 172.94050060391731 L 537.7551020408164 173.5161645009618 L 542.8571428571429 174.86526639464876 L 547.9591836734693 177.33885531176497 L 553.0612244897959 177.6517621907719 L 558.1632653061224 174.3023165468642 L 563.2653061224489 173.18983723662495 L 568.3673469387754 177.32684759857506 L 573.469387755102 174.88645647674858 L 578.5714285714287 181.94063480777066 L 583.6734693877552 178.88078695256013 L 588.7755102040816 177.86790102818986 L 593.877551020408 179.9586557953697 L 598.9795918367347 176.94260077649875 L 604.0816326530612 172.13598382019512 L 609.1836734693877 180.19104036239744 L 614.2857142857142 181.18768055715785 L 619.3877551020407 177.9286459302093 L 624.4897959183675 182.76634167359268 L 629.5918367346939 184.187489846419 L 634.6938775510203 184.70170250537404 L 639.795918367347 185.7513179053839 L 644.8979591836735 184.85780277684253 L 650 178.7126789679017 L 650 400Z"/><text class="poloto_text" alignment-baseline="middle" text-anchor="start" font-size="large" x="675" y="200">Level 2</text><rect class="poloto2fill" x="680" y="176.25" width="50" height="7.5" rx="5" ry="5"/><path class="poloto2fill" d=" M 150 400 L 150 208.73196194261251 L 155.10204081632654 200.15845472503514 L 160.20408163265307 205.37615927407484 L 165.3061224489796 237.10195019388925 L 170.40816326530614 235.24923068229708 L 175.51020408163268 234.63824998175298 L 180.61224489795921 231.70554261914123 L 185.71428571428567 225.26234498866324 L 190.8163265306123 227.1708650497849 L 195.91836734693874 230.09368370741674 L 201.02040816326527 233.48904119587402 L 206.1224489795918 237.7920405342726 L 211.22448979591834 227.41313832179256 L 216.32653061224488 233.18390401363698 L 221.42857142857142 238.30272151287767 L 226.53061224489795 236.04880311352937 L 231.6326530612245 230.78801206422006 L 236.73469387755102 232.94516242197932 L 241.83673469387756 230.8155591709498 L 246.9387755102041 230.90455751576891 L 252.0408163265306 224.01495548905532 L 257.14285714285717 225.07234058583515 L 262.2448979591836 224.58850037788977 L 267.34693877551024 228.76012120726963 L 272.4489795918367 222.97169711367533 L 277.5510204081633 227.2259592632444 L 282.65306122448976 223.22950977922284 L 287.75510204081627 222.71529712026782 L 292.85714285714283 223.03738636818474 L 297.9591836734694 222.71176543991788 L 303.0612244897959 222.34235167531142 L 308.1632653061224 229.79137186945965 L 313.265306122449 233.2743150305961 L 318.36734693877554 229.22842202167507 L 323.46938775510205 224.4825499673908 L 328.57142857142856 230.2985211677148 L 333.6734693877551 227.53039010941143 L 338.77551020408157 233.9170808542899 L 343.8775510204082 232.70783350246154 L 348.97959183673464 232.90136958563969 L 354.0816326530612 234.44683290678483 L 359.1836734693877 232.66474700219197 L 364.28571428571433 220.208510407862 L 369.3877551020408 223.0508067535146 L 374.48979591836724 220.2593666049015 L 379.59183673469386 217.86700633583453 L 384.6938775510205 220.28196935914124 L 389.7959183673469 221.44671753856005 L 394.8979591836734 218.5133038398783 L 400 219.91820628309475 L 405.1020408163266 214.92229126003295 L 410.2040816326531 219.44425478012937 L 415.3061224489795 221.7815208357368 L 420.40816326530614 224.95014444572632 L 425.5102040816326 221.75538640114712 L 430.6122448979592 221.28920459495154 L 435.71428571428567 219.91891261916476 L 440.8163265306121 220.85056989548576 L 445.91836734693874 220.43312527811977 L 451.02040816326536 221.7341963190473 L 456.1224489795918 226.2208430356441 L 461.22448979591826 227.89415318545792 L 466.3265306122449 220.96217099454475 L 471.4285714285715 219.68652805213702 L 476.53061224489795 225.93972127978674 L 481.6326530612244 224.82441662526747 L 486.734693877551 221.97858859926495 L 491.8367346938776 222.74708224341754 L 496.9387755102041 217.52090166153786 L 502.04081632653055 216.6203231722965 L 507.14285714285717 217.6642878837465 L 512.2448979591837 224.04532794006505 L 517.3469387755102 224.47266126241092 L 522.4489795918366 224.96003315070624 L 527.5510204081631 226.72940500603917 L 532.6530612244898 217.81120578630512 L 537.7551020408164 215.3750526808985 L 542.8571428571429 216.6273865329965 L 547.9591836734693 218.80431430071548 L 553.0612244897959 219.03952421202325 L 558.1632653061224 216.11246753797147 L 563.2653061224489 213.9546108441422 L 568.3673469387754 217.53220303865777 L 573.469387755102 216.1428399889812 L 578.5714285714287 220.31092913801103 L 583.6734693877552 221.0024321505343 L 588.7755102040816 217.4340223249287 L 593.877551020408 216.4543341958481 L 598.9795918367347 217.35632535722945 L 604.0816326530612 213.9383651145324 L 609.1836734693877 218.78383055468575 L 614.2857142857142 219.81861289722576 L 619.3877551020407 219.31146359897062 L 624.4897959183675 221.87758254125595 L 629.5918367346939 223.11084531946403 L 634.6938775510203 223.50498084652023 L 639.795918367347 226.19612127319434 L 644.8979591836735 223.76208717599775 L 650 219.83556496290555 L 650 400Z"/><text class="poloto_text" alignment-baseline="middle" text-anchor="start" font-size="large" x="675" y="250">Level 3</text><rect class="poloto3fill" x="680" y="226.25" width="50" height="7.5" rx="5" ry="5"/><path class="poloto3fill" d=" M 150 400 L 150 260.9422052282996 L 155.10204081632654 250.78226719751743 L 160.20408163265307 258.0073788574778 L 165.3061224489796 282.84992477520854 L 170.40816326530614 277.68872711176823 L 175.51020408163268 277.98680093330535 L 180.61224489795921 277.6555293164786 L 185.71428571428567 272.21744791360095 L 190.8163265306123 275.114838472713 L 195.91836734693874 272.5381244893779 L 201.02040816326527 277.5199127910399 L 206.1224489795918 282.0213925651065 L 211.22448979591834 273.46554374927894 L 216.32653061224488 276.62851667070845 L 221.42857142857142 279.99773972457604 L 226.53061224489795 277.3623998474314 L 231.6326530612245 272.85880106515475 L 236.73469387755102 276.19694533194263 L 241.83673469387756 273.91971784228457 L 246.9387755102041 274.79345556086616 L 252.0408163265306 267.96389210010193 L 257.14285714285717 267.9059725423625 L 262.2448979591836 267.80637915649345 L 267.34693877551024 269.56091795435657 L 272.4489795918367 269.53054550334684 L 277.5510204081633 269.52136313443697 L 282.65306122448976 266.94818083145174 L 287.75510204081627 267.956828739402 L 292.85714285714283 266.23901941717855 L 297.9591836734694 264.66318364502376 L 303.0612244897959 264.10447181365913 L 308.1632653061224 270.67198459245583 L 313.265306122449 273.5842082090378 L 318.36734693877554 271.10638127550163 L 323.46938775510205 267.4744012035967 L 328.57142857142856 269.17949647656025 L 333.6734693877551 271.7851702387651 L 338.77551020408157 272.41663468533903 L 343.8775510204082 271.16500716931114 L 348.97959183673464 274.7489563884566 L 354.0816326530612 276.2478015289821 L 359.1836734693877 273.7099360294966 L 364.28571428571433 260.9513875972094 L 369.3877551020408 264.1645103796085 L 374.48979591836724 261.94096443127 L 379.59183673469386 260.81506473570084 L 384.6938775510205 262.65507019803306 L 389.7959183673469 263.79792195928206 L 394.8979591836734 261.85691043894076 L 400 263.28865365281695 L 405.1020408163266 261.64289060973283 L 410.2040816326531 263.6156872532239 L 415.3061224489795 264.61162111191425 L 420.40816326530614 269.8964275876033 L 425.5102040816326 263.7654305000624 L 430.6122448979592 263.6870271962931 L 435.71428571428567 260.38349339693497 L 440.8163265306121 261.70716719210225 L 445.91836734693874 263.51326852307477 L 451.02040816326536 260.5282922912836 L 456.1224489795918 265.40978087100655 L 461.22448979591826 266.9502998396617 L 466.3265306122449 260.85179421134046 L 471.4285714285715 261.20143056598704 L 476.53061224489795 264.94006738446103 L 481.6326530612244 265.0368354260502 L 486.734693877551 262.3315682779762 L 491.8367346938776 263.03013465119943 L 496.9387755102041 258.7822295262604 L 502.04081632653055 258.5222978525029 L 507.14285714285717 257.055944171197 L 512.2448979591837 266.45657092673645 L 517.3469387755102 266.7687714696734 L 522.4489795918366 265.02270870465026 L 527.5510204081631 266.7525257400636 L 532.6530612244898 259.653141900562 L 537.7551020408164 257.8505722499393 L 542.8571428571429 258.97435293729853 L 547.9591836734693 260.58056116046305 L 553.0612244897959 261.6979848231923 L 558.1632653061224 259.8523286723001 L 563.2653061224489 259.749909942151 L 568.3673469387754 261.1625820821374 L 573.469387755102 257.4310086243634 L 578.5714285714287 260.0585788047381 L 583.6734693877552 261.4698382725845 L 588.7755102040816 257.8788256927391 L 593.877551020408 258.66003338615155 L 598.9795918367347 257.7213127491306 L 604.0816326530612 255.9766626562474 L 609.1836734693877 257.4642064196531 L 614.2857142857142 258.4001017123941 L 619.3877551020407 258.4431882126637 L 624.4897959183675 261.33845976356577 L 629.5918367346939 262.59715064029365 L 634.6938775510203 261.57508234701345 L 639.795918367347 264.0197114852599 L 644.8979591836735 261.91412366061024 L 650 258.506758458963 L 650 400Z"/><text class="poloto_text" alignment-baseline="middle" text-anchor="start" font-size="large" x="675" y="300">Level 4</text><rect class="poloto4fill" x="680" y="276.25" width="50" height="7.5" rx="5" ry="5"/><path class="poloto4fill" d=" M 150 400 L 150 307.41064260101194 L 155.10204081632654 305.89484539480657 L 160.20408163265307 301.09246645492277 L 165.3061224489796 323.52923171825665 L 170.40816326530614 322.76073807410404 L 175.51020408163268 319.24883513409793 L 180.61224489795921 318.98466544392045 L 185.71428571428567 315.1146501164277 L 190.8163265306123 317.11146218629847 L 195.91836734693874 314.25150743889606 L 201.02040816326527 318.6533938270936 L 206.1224489795918 321.834731486343 L 211.22448979591834 312.8430733153296 L 216.32653061224488 317.06484400567894 L 221.42857142857142 320.0081464093406 L 226.53061224489795 319.51583016855534 L 231.6326530612245 312.5139207067128 L 236.73469387755102 316.78725393017163 L 241.83673469387756 315.1294831738976 L 246.9387755102041 316.41572115735516 L 252.0408163265306 309.72318689416966 L 257.14285714285717 310.0537521749265 L 262.2448979591836 310.04739515029655 L 267.34693877551024 312.8360099546297 L 272.4489795918367 312.0894127286469 L 277.5510204081633 309.91954832162776 L 282.65306122448976 311.0171945743972 L 287.75510204081627 309.5282381388515 L 292.85714285714283 310.29320010265417 L 297.9591836734694 308.2257544257841 L 303.0612244897959 308.6001125428805 L 308.1632653061224 311.0073058694173 L 313.265306122449 313.8785619939396 L 318.36734693877554 309.4194623840726 L 323.46938775510205 307.7546282670986 L 328.57142857142856 308.51959023090126 L 333.6734693877551 311.60133450428157 L 338.77551020408157 312.03573118732737 L 343.8775510204082 310.5905675881213 L 348.97959183673464 314.0367812736181 L 354.0816326530612 313.84395152650995 L 359.1836734693877 313.1390281286567 L 364.28571428571433 302.94236062223496 L 369.3877551020408 305.80937873033736 L 374.48979591836724 303.87966858711593 L 379.59183673469386 305.4837578020705 L 384.6938775510205 303.253854829102 L 389.7959183673469 306.30452031540256 L 394.8979591836734 302.008584337704 L 400 303.56958705238895 L 405.1020408163266 303.3866460102607 L 410.2040816326531 306.23741838875327 L 415.3061224489795 304.3712784918312 L 420.40816326530614 308.57468444436074 L 425.5102040816326 305.05359913544464 L 430.6122448979592 304.9222206264259 L 435.71428571428567 301.15250502087224 L 440.8163265306121 300.97309565909393 L 445.91836734693874 303.356979895321 L 451.02040816326536 301.31213697269067 L 456.1224489795918 305.7140233608883 L 461.22448979591826 307.12881450908463 L 466.3265306122449 301.42797608816954 L 471.4285714285715 302.2784047164414 L 476.53061224489795 303.7150922828075 L 481.6326530612244 304.40094460677096 L 486.734693877551 304.2285986056926 L 491.8367346938776 303.97078594014505 L 496.9387755102041 300.45464498371894 L 502.04081632653055 300.52951660713825 L 507.14285714285717 299.75042792193574 L 512.2448979591837 306.6372046043694 L 517.3469387755102 305.92168616546627 L 522.4489795918366 304.68701071511816 L 527.5510204081631 305.5459153762299 L 532.6530612244898 299.4219816493889 L 537.7551020408164 297.9040654349735 L 542.8571428571429 299.9927011939434 L 547.9591836734693 302.34338763488074 L 553.0612244897959 302.6591198581677 L 558.1632653061224 300.02024830067313 L 563.2653061224489 300.4913744593586 L 568.3673469387754 301.88568186152514 L 573.469387755102 297.71688637642535 L 578.5714285714287 300.57966646810775 L 583.6734693877552 300.96956397874396 L 588.7755102040816 298.8357227112945 L 593.877551020408 300.7061006246365 L 598.9795918367347 299.0214890977027 L 604.0816326530612 297.42446324344814 L 609.1836734693877 297.70417232716545 L 614.2857142857142 298.478316659878 L 619.3877551020407 298.7601447518052 L 624.4897959183675 300.4906681232886 L 629.5918367346939 301.0514989628632 L 634.6938775510203 300.35293258963986 L 639.795918367347 300.6305226651472 L 644.8979591836735 299.84719596352477 L 650 299.0885910243521 L 650 400Z"/><text class="poloto_text" alignment-baseline="middle" text-anchor="start" font-size="large" x="675" y="350">Level 5</text><rect class="poloto5fill" x="680" y="326.25" width="50" height="7.5" rx="5" ry="5"/><path class="poloto5fill" d=" M 150 400 L 150 356.816025352756 L 155.10204081632654 355.51777965610853 L 160.20408163265307 352.55893785890703 L 165.3061224489796 367.07343776119717 L 170.40816326530614 366.73651545581043 L 175.51020408163268 362.72523291431907 L 180.61224489795921 363.99663784030685 L 185.71428571428567 362.9512604567169 L 190.8163265306123 362.86367478403776 L 195.91836734693874 359.1617674412034 L 201.02040816326527 364.2565695140643 L 206.1224489795918 364.8922719770582 L 211.22448979591834 358.1976187056627 L 216.32653061224488 360.3236902763422 L 221.42857142857142 362.82200095590815 L 226.53061224489795 362.22797232104386 L 231.6326530612245 357.87270411346583 L 236.73469387755102 359.1405773591036 L 241.83673469387756 359.21756799073285 L 246.9387755102041 358.372790051021 L 252.0408163265306 351.93100509268305 L 257.14285714285717 354.32830971423994 L 262.2448979591836 353.6085532589169 L 267.34693877551024 356.8280330659459 L 272.4489795918367 356.4635636538294 L 277.5510204081633 353.33308219161955 L 282.65306122448976 355.4718678115589 L 287.75510204081627 355.45209040159915 L 292.85714285714283 355.5198986643185 L 297.9591836734694 354.71750088880617 L 303.0612244897959 355.1271758094023 L 308.1632653061224 355.1660242932519 L 313.265306122449 356.3512562187005 L 318.36734693877554 352.48265356334775 L 323.46938775510205 352.51443868649744 L 328.57142857142856 350.98663376710215 L 333.6734693877551 354.0761477372524 L 338.77551020408157 354.98661493147364 L 343.8775510204082 354.87077581599476 L 348.97959183673464 354.8736011602747 L 354.0816326530612 355.8186788219256 L 359.1836734693877 354.11287721289204 L 364.28571428571433 348.0892432079901 L 369.3877551020408 349.73006189858427 L 374.48979591836724 349.0830580584705 L 379.59183673469386 349.92995500639233 L 384.6938775510205 349.9341930228123 L 389.7959183673469 350.5487054037063 L 394.8979591836734 347.161823948089 L 400 349.70957815255446 L 405.1020408163266 349.30414124837836 L 410.2040816326531 348.6486613754247 L 415.3061224489795 346.8150129377224 L 420.40816326530614 351.17169381744037 L 425.5102040816326 349.24339634635896 L 430.6122448979592 349.08164538633054 L 435.71428571428567 346.51199476369527 L 440.8163265306121 348.4000310787871 L 445.91836734693874 349.0950657716604 L 451.02040816326536 345.6686294961234 L 456.1224489795918 348.89870434420226 L 461.22448979591826 350.7429478229545 L 466.3265306122449 346.3424741068969 L 471.4285714285715 346.9873589388007 L 476.53061224489795 347.3603043837571 L 481.6326530612244 348.87963327031247 L 486.734693877551 348.95097321338176 L 491.8367346938776 346.72177657648325 L 496.9387755102041 344.8450416385113 L 502.04081632653055 345.3147551250568 L 507.14285714285717 342.82138879798083 L 512.2448979591837 348.26794623369835 L 517.3469387755102 348.9990040661413 L 522.4489795918366 348.74966743343373 L 527.5510204081631 347.7014647055638 L 532.6530612244898 344.1464752652881 L 537.7551020408164 344.70236175237267 L 542.8571428571429 343.322887407676 L 547.9591836734693 344.84927965493125 L 553.0612244897959 345.4856884539951 L 558.1632653061224 343.8893689358105 L 563.2653061224489 344.565332554794 L 568.3673469387754 344.256663692207 L 573.469387755102 344.2651397250469 L 578.5714285714287 343.1710251526274 L 583.6734693877552 344.5589755301641 L 588.7755102040816 343.5835254175035 L 593.877551020408 344.2149898640774 L 598.9795918367347 342.72391442032176 L 604.0816326530612 339.16892498004603 L 609.1836734693877 340.43821089782375 L 614.2857142857142 343.9246857393102 L 619.3877551020407 342.3248345407756 L 624.4897959183675 343.01280587294895 L 629.5918367346939 343.71066591010225 L 634.6938775510203 342.6059562966329 L 639.795918367347 343.1413590376877 L 644.8979591836735 342.51978329609375 L 650 342.1496631954173 L 650 400Z"/><text class="poloto_text" alignment-baseline="middle" text-anchor="start" font-size="large" x="675" y="400">Level 6</text><rect class="poloto6fill" x="680" y="376.25" width="50" height="7.5" rx="5" ry="5"/><path class="poloto6fill" d=" M 150 400 L 150 396.8342017342905 L 155.10204081632654 395.48015548811355 L 160.20408163265307 398.7632055414419 L 165.3061224489796 400 L 170.40816326530614 399.81776529394176 L 175.51020408163268 399.3699482255661 L 180.61224489795921 398.6833895655327 L 185.71428571428567 398.89458405046065 L 190.8163265306123 398.28784136633647 L 195.91836734693874 395.4745047995536 L 201.02040816326527 398.0632264960787 L 206.1224489795918 398.4043868178854 L 211.22448979591834 397.30674056511594 L 216.32653061224488 395.3982205039943 L 221.42857142857142 397.98129151195945 L 226.53061224489795 397.53488711572373 L 231.6326530612245 396.23593508300627 L 236.73469387755102 396.05299404087805 L 241.83673469387756 395.59811361180243 L 246.9387755102041 395.85451360520995 L 252.0408163265306 390.0109952981562 L 257.14285714285717 395.12698745311695 L 262.2448979591836 394.92850701744885 L 267.34693877551024 395.1969147240463 L 272.4489795918367 395.2626039785556 L 277.5510204081633 394.5167130886428 L 282.65306122448976 394.14094229940645 L 287.75510204081627 393.667697132511 L 292.85714285714283 393.8668839042491 L 297.9591836734694 394.0427615856774 L 303.0612244897959 393.9911990525679 L 308.1632653061224 393.7340927230904 L 313.265306122449 394.289272874105 L 318.36734693877554 391.27392419130405 L 323.46938775510205 393.17326188351575 L 328.57142857142856 394.0724277006171 L 333.6734693877551 392.46904482173255 L 338.77551020408157 393.7206723377605 L 343.8775510204082 393.79554396117976 L 348.97959183673464 393.558921377732 L 354.0816326530612 393.20716601487544 L 359.1836734693877 393.08143819441665 L 364.28571428571433 391.06979306707603 L 369.3877551020408 390.7484101552291 L 374.48979591836724 391.280987552004 L 379.59183673469386 390.5216762767613 L 384.6938775510205 390.66011814648 L 389.7959183673469 390.8529478935881 L 394.8979591836734 389.00446639841596 L 400 390.8458845328882 L 405.1020408163266 390.17769061067463 L 410.2040816326531 390.03642339667596 L 415.3061224489795 388.58490277283994 L 420.40816326530614 391.9124519985779 L 425.5102040816326 390.3641633331528 L 430.6122448979592 390.8593049182181 L 435.71428571428567 389.8040388296482 L 440.8163265306121 389.7475319440488 L 445.91836734693874 390.13319143826504 L 451.02040816326536 388.47188900164105 L 456.1224489795918 390.20382504526435 L 461.22448979591826 390.9165181398875 L 466.3265306122449 388.8681435369072 L 471.4285714285715 388.4909600755309 L 476.53061224489795 389.19870881766406 L 481.6326530612244 390.42420189910223 L 486.734693877551 389.8782041169975 L 491.8367346938776 388.31508239410255 L 496.9387755102041 387.6412377833291 L 502.04081632653055 387.56707249597974 L 507.14285714285717 387.83901188292714 L 512.2448979591837 389.202946834084 L 517.3469387755102 389.20082782587406 L 522.4489795918366 388.9154680535968 L 527.5510204081631 388.7975099299079 L 532.6530612244898 386.97940088574546 L 537.7551020408164 387.4469953640809 L 542.8571428571429 387.04791548453477 L 547.9591836734693 387.5741358566797 L 553.0612244897959 387.855963948607 L 558.1632653061224 386.71876287591795 L 563.2653061224489 387.05992319772463 L 568.3673469387754 386.80776122073706 L 573.469387755102 386.24975572544247 L 578.5714285714287 386.4538868496705 L 583.6734693877552 386.189010823423 L 588.7755102040816 386.21090724159285 L 593.877551020408 386.1332102738936 L 598.9795918367347 385.989824051685 L 604.0816326530612 381.38945722781926 L 609.1836734693877 383.2379387229915 L 614.2857142857142 386.1649953970433 L 619.3877551020407 385.92060311682565 L 624.4897959183675 385.3279871541013 L 629.5918367346939 385.7284797057875 L 634.6938775510203 385.19590230901264 L 639.795918367347 384.9402086516751 L 644.8979591836735 385.41910450713044 L 650 385.2997337113016 L 650 400Z"/><text class="poloto_text" alignment-baseline="start" text-anchor="middle" font-size="x-large" x="400" y="37.5">Bench of rebal levels with abspiral(5000,x)</text><text class="poloto_text" alignment-baseline="start" text-anchor="middle" font-size="x-large" x="400" y="481.25">Spiral Grow</text><text class="poloto_text" alignment-baseline="start" text-anchor="middle" font-size="x-large" transform="rotate(-90,37.5,250)" x="37.5" y="250">Time taken in Seconds</text><path stroke="black" fill="none" class="poloto_axis_lines" d=" M 150 100 L 150 400 L 650 400"/></svg>