<svg  width="800" class="poloto_background poloto" height="500" viewBox="0 0 800 500" xmlns="http://www.w3.org/2000/svg" ><text  class="poloto_text" alignment-baseline="middle" text-anchor="start" font-size="large" x="675" y="100" >Level 0</text><rect  class="poloto0fill poloto0legend" x="680" y="76.25" width="50" height="7.5" rx="5" ry="5" /><path  class="poloto0fill" d=" M 150 400 L 150 100 L 155.10204081632654 125.27847585887378 L 160.20408163265307 133.76711078664 L 165.3061224489796 144.0944445224424 L 170.40816326530614 141.33902873910176 L 175.51020408163268 149.25737431030373 L 180.61224489795921 148.9688601232679 L 185.71428571428567 162.02128406362763 L 190.8163265306123 168.80452637342586 L 195.91836734693874 170.30269420304103 L 201.02040816326527 176.51880607073167 L 206.1224489795918 169.29984416022015 L 211.22448979591834 182.61824869782532 L 216.32653061224488 193.89515211928068 L 221.42857142857142 184.47484802111566 L 226.53061224489795 198.74871888469264 L 231.6326530612245 199.24466845437829 L 236.73469387755102 195.29665716652397 L 241.83673469387756 206.65105928931447 L 246.9387755102041 213.21001867269436 L 252.0408163265306 205.13499094444524 L 257.14285714285717 213.70596824238004 L 262.2448979591836 220.58376739157907 L 267.34693877551024 213.59982871663837 L 272.4489795918367 220.01031912055825 L 277.5510204081633 226.00972945652634 L 282.65306122448976 229.5135973717832 L 287.75510204081627 227.56454715206314 L 292.85714285714283 231.56394344841144 L 297.9591836734694 236.75740940935322 L 303.0612244897959 226.78619062995776 L 308.1632653061224 237.12847656085475 L 313.265306122449 244.0168054249091 L 318.36734693877554 234.58428685751193 L 323.46938775510205 243.64763362208154 L 328.57142857142856 237.4270992741517 L 333.6734693877551 244.8777149114802 L 338.77551020408157 251.7245566990046 L 343.8775510204082 213.213177587151 L 348.97959183673464 252.02023109214204 L 354.0816326530612 257.21790893902596 L 359.1836734693877 251.27788619484187 L 364.28571428571433 257.7315484296686 L 369.3877551020408 263.29460738203215 L 374.48979591836724 256.68321001867275 L 379.59183673469386 262.77570303396186 L 384.6938775510205 263.87037219032106 L 389.7959183673469 268.7639518721833 L 394.8979591836734 259.42935965294066 L 400 264.35326491358614 L 405.1020408163266 268.94780069355727 L 410.2040816326531 271.3725834304407 L 415.3061224489795 275.0080727813891 L 420.40816326530614 270.0426804442136 L 425.5102040816326 274.08777570303397 L 430.6122448979592 272.1235626939223 L 435.71428571428567 276.12527552753875 L 440.8163265306121 278.51846911985626 L 445.91836734693874 278.0286267847867 L 451.02040816326536 280.86048829797693 L 456.1224489795918 273.9738441882994 L 461.22448979591826 279.9039690005195 L 466.3265306122449 285.05426313055443 L 471.4285714285715 276.5626798826288 L 476.53061224489795 283.17513021747374 L 481.6326530612244 288.27488171620314 L 486.734693877551 279.4236034088197 L 491.8367346938776 286.9220239515914 L 496.9387755102041 290.26457663526475 L 502.04081632653055 292.0575764808289 L 507.14285714285717 294.475620200205 L 512.2448979591837 285.8656829573055 L 517.3469387755102 292.0158788100018 L 522.4489795918366 296.60409676105974 L 527.5510204081631 298.1936625156191 L 532.6530612244898 291.31291504626057 L 537.7551020408164 295.4123436337344 L 542.8571428571429 297.5732517163435 L 547.9591836734693 292.1369705308381 L 553.0612244897959 297.5585101155461 L 558.1632653061224 299.08237044940824 L 563.2653061224489 302.3055161666222 L 568.3673469387754 292.809608715796 L 573.469387755102 296.83259157342025 L 578.5714285714287 300.35014811798897 L 583.6734693877552 305.33449394190404 L 588.7755102040816 301.0735395285496 L 593.877551020408 303.4132421694021 L 598.9795918367347 303.8889746865655 L 604.0816326530612 305.32059471829507 L 609.1836734693877 308.1806758672975 L 614.2857142857142 307.44001572437423 L 619.3877551020407 307.60133095595774 L 624.4897959183675 309.7496033807405 L 629.5918367346939 307.979768907858 L 634.6938775510203 310.2653488143541 L 639.795918367347 309.4591938450307 L 644.8979591836735 312.1267918064779 L 650 311.2637763769357 L 650 400 Z" /><text  class="poloto_text" alignment-baseline="middle" text-anchor="start" font-size="large" x="675" y="150" >Level 1</text><rect  class="poloto1fill poloto1legend" x="680" y="126.25" width="50" height="7.5" rx="5" ry="5" /><path  class="poloto1fill" d=" M 150 400 L 150 143.22637482976967 L 155.10204081632654 160.17942634113476 L 160.20408163265307 167.57907815856348 L 165.3061224489796 174.60682044730237 L 170.40816326530614 173.04336838558416 L 175.51020408163268 178.5209260533225 L 180.61224489795921 178.0077077512741 L 185.71428571428567 189.46319513667578 L 190.8163265306123 194.33508360593598 L 195.91836734693874 194.43174638830786 L 201.02040816326527 200.47727687534226 L 206.1224489795918 192.88914316200322 L 211.22448979591834 205.866595532593 L 216.32653061224488 213.16284555014252 L 221.42857142857142 204.4050711106744 L 226.53061224489795 216.63028065199995 L 231.6326530612245 216.02376907633342 L 236.73469387755102 213.77967624636727 L 241.83673469387756 224.1784014488888 L 246.9387755102041 228.58255998427566 L 252.0408163265306 221.57524534235617 L 257.14285714285717 229.0197537450686 L 262.2448979591836 235.0381175677763 L 267.34693877551024 228.64952897075548 L 272.4489795918367 234.32673003215075 L 277.5510204081633 239.77606806407684 L 282.65306122448976 242.95646313897825 L 287.75510204081627 241.11186769062297 L 292.85714285714283 244.43104440731747 L 297.9591836734694 249.40844061942806 L 303.0612244897959 240.50746205792748 L 308.1632653061224 250.14846897946006 L 313.265306122449 256.45113510326144 L 318.36734693877554 248.52141744001577 L 323.46938775510205 255.78881603886168 L 328.57142857142856 249.72075196203687 L 333.6734693877551 256.5507462057928 L 338.77551020408157 263.0779058503096 L 343.8775510204082 224.84240526766536 L 348.97959183673464 263.1059148918248 L 354.0816326530612 268.1045811279431 L 359.1836734693877 262.62491751723365 L 364.28571428571433 268.1111095511534 L 369.3877551020408 273.6179398261895 L 374.48979591836724 267.22324399455266 L 379.59183673469386 272.5554915972876 L 384.6938775510205 273.9681581422775 L 389.7959183673469 278.22174175523327 L 394.8979591836734 269.25316242436156 L 400 273.399342945793 L 405.1020408163266 278.01472756117766 L 410.2040816326531 279.9117609895124 L 415.3061224489795 284.5079815238604 L 420.40816326530614 279.09128560798575 L 425.5102040816326 282.8977775281846 L 430.6122448979592 280.4719418198155 L 435.71428571428567 284.4523846294243 L 440.8163265306121 286.6924761677454 L 445.91836734693874 285.7664930433684 L 451.02040816326536 288.79905092170105 L 456.1224489795918 282.2007104047623 L 461.22448979591826 287.32952391649235 L 466.3265306122449 292.58974826961685 L 471.4285714285715 284.52019599309256 L 476.53061224489795 290.466957754784 L 481.6326530612244 295.56986816797 L 486.734693877551 286.89443609867044 L 491.8367346938776 294.0129445294622 L 496.9387755102041 297.3363331320988 L 502.04081632653055 299.0499389276539 L 507.14285714285717 301.3799542308394 L 512.2448979591837 293.3403063445042 L 517.3469387755102 298.93516503573085 L 522.4489795918366 303.3810212419448 L 527.5510204081631 304.7374591096073 L 532.6530612244898 298.1378550268859 L 537.7551020408164 301.7994580706755 L 542.8571428571429 304.6568014938156 L 547.9591836734693 299.2139918850998 L 553.0612244897959 303.8851839892176 L 558.1632653061224 304.9493169724964 L 563.2653061224489 308.24890841956 L 568.3673469387754 299.6235977929718 L 573.469387755102 303.20306906088985 L 578.5714285714287 306.63996798966684 L 583.6734693877552 311.2498771533267 L 588.7755102040816 307.34967077091557 L 593.877551020408 309.66410209611524 L 598.9795918367347 309.98125710755755 L 604.0816326530612 311.48216266303507 L 609.1836734693877 314.133334269308 L 614.2857142857142 313.2090358993079 L 619.3877551020407 313.56325550704094 L 624.4897959183675 316.329622193831 L 629.5918367346939 313.5980035660634 L 634.6938775510203 315.7532256026507 L 639.795918367347 314.4972412147079 L 644.8979591836735 316.9475058615413 L 650 315.9926713184607 L 650 400 Z" /><text  class="poloto_text" alignment-baseline="middle" text-anchor="start" font-size="large" x="675" y="200" >Level 2</text><rect  class="poloto2fill poloto2legend" x="680" y="176.25" width="50" height="7.5" rx="5" ry="5" /><path  class="poloto2fill" d=" M 150 400 L 150 176.30736939643677 L 155.10204081632654 191.92546365844416 L 160.20408163265307 198.06365563620537 L 165.3061224489796 203.9674561612872 L 170.40816326530614 202.48213458379553 L 175.51020408163268 207.26072977943758 L 180.61224489795921 206.72455669900467 L 185.71428571428567 216.37209204374753 L 190.8163265306123 220.57702837407166 L 195.91836734693874 221.1325761298384 L 201.02040816326527 225.7692307692308 L 206.1224489795918 218.5365802294074 L 211.22448979591834 231.48391761551102 L 216.32653061224488 237.04992488803404 L 221.42857142857142 229.14042427731061 L 226.53061224489795 239.76869726367815 L 231.6326530612245 239.5770564533113 L 236.73469387755102 237.96895840060654 L 241.83673469387756 246.18234658205458 L 246.9387755102041 250.14846897946006 L 252.0408163265306 243.391340362503 L 257.14285714285717 250.14257233914108 L 262.2448979591836 255.57737936456684 L 267.34693877551024 249.74939278644337 L 272.4489795918367 254.48629031125841 L 277.5510204081633 258.5815070127901 L 282.65306122448976 261.58289693515104 L 287.75510204081627 260.50739185982843 L 292.85714285714283 264.5779690285987 L 297.9591836734694 267.4700605107614 L 303.0612244897959 258.2361323655356 L 308.1632653061224 266.96147528324934 L 313.265306122449 272.5441195052438 L 318.36734693877554 265.91819113538406 L 323.46938775510205 271.9129683968158 L 328.57142857142856 266.13678801578055 L 333.6734693877551 272.19074227469923 L 338.77551020408157 278.23690454462496 L 343.8775510204082 240.77491681525265 L 348.97959183673464 278.16804020947114 L 354.0816326530612 282.63074395945364 L 359.1836734693877 278.5563760933354 L 364.28571428571433 282.54060960029204 L 369.3877551020408 287.64036109902145 L 374.48979591836724 282.3651845508024 L 379.59183673469386 286.7093237115139 L 384.6938775510205 287.9722577112612 L 389.7959183673469 291.65576256194987 L 394.8979591836734 284.4521740351272 L 400 286.95045418170076 L 405.1020408163266 291.71093826779173 L 410.2040816326531 293.0663231639687 L 415.3061224489795 297.24661996153145 L 420.40816326530614 292.6699846968144 L 425.5102040816326 295.7398177657349 L 430.6122448979592 292.9507068948573 L 435.71428571428567 297.13879568141294 L 440.8163265306121 299.0768949976835 L 445.91836734693874 297.90472713998906 L 451.02040816326536 300.78291939854273 L 456.1224489795918 294.8188889044885 L 461.22448979591826 299.4422761031631 L 466.3265306122449 304.3006865374086 L 471.4285714285715 296.83385513920285 L 476.53061224489795 302.2360200485771 L 481.6326530612244 306.8787819225856 L 486.734693877551 299.40963398711165 L 491.8367346938776 305.39493450517364 L 496.9387755102041 308.37400143204127 L 502.04081632653055 309.75255170089997 L 507.14285714285717 311.94252179650977 L 512.2448979591837 305.8041192244514 L 517.3469387755102 309.7192778019571 L 522.4489795918366 313.79827874261167 L 527.5510204081631 315.08416752074356 L 532.6530612244898 309.24501944487344 L 537.7551020408164 312.3915088379407 L 542.8571428571429 314.85356676541204 L 547.9591836734693 310.13372737866257 L 553.0612244897959 314.21757198815055 L 558.1632653061224 315.164193353644 L 563.2653061224489 318.17000575624417 L 568.3673469387754 310.31820798292785 L 573.469387755102 313.31222710489 L 578.5714285714287 316.68826428180324 L 583.6734693877552 320.95511533547676 L 588.7755102040816 317.0338495233549 L 593.877551020408 319.04060258048213 L 598.9795918367347 319.3802911817148 L 604.0816326530612 320.8921476406419 L 609.1836734693877 323.4087494910638 L 614.2857142857142 322.3829446698584 L 619.3877551020407 322.84477796341275 L 624.4897959183675 325.4635180479313 L 629.5918367346939 322.63207772333527 L 634.6938775510203 324.62851165990423 L 639.795918367347 323.36220815140325 L 644.8979591836735 325.7516110463729 L 650 324.7074845213192 L 650 400 Z" /><text  class="poloto_text" alignment-baseline="middle" text-anchor="start" font-size="large" x="675" y="250" >Level 3</text><rect  class="poloto3fill poloto3legend" x="680" y="226.25" width="50" height="7.5" rx="5" ry="5" /><path  class="poloto3fill" d=" M 150 400 L 150 226.92623583753357 L 155.10204081632654 239.52946214216522 L 160.20408163265307 243.569292543558 L 165.3061224489796 246.97249638479792 L 170.40816326530614 245.18897328260354 L 175.51020408163268 247.56447695396412 L 180.61224489795921 247.84751568927518 L 185.71428571428567 254.69183034523428 L 190.8163265306123 255.87873980372615 L 195.91836734693874 256.3578418296433 L 201.02040816326527 258.6345767756609 L 206.1224489795918 251.25893270810226 L 211.22448979591834 262.59080124110244 L 216.32653061224488 266.39813553848967 L 221.42857142857142 260.37661280132534 L 226.53061224489795 267.81332921504486 L 231.6326530612245 267.65411992643243 L 236.73469387755102 265.92577253007994 L 241.83673469387756 272.42429135019023 L 246.9387755102041 275.3559745602089 L 252.0408163265306 269.1691352998161 L 257.14285714285717 274.8191696968846 L 262.2448979591836 279.671472896514 L 267.34693877551024 273.8394850267455 L 272.4489795918367 278.1284484816151 L 277.5510204081633 280.7928875286058 L 282.65306122448976 282.99444031055646 L 287.75510204081627 283.3421314950791 L 292.85714285714283 285.3033961840313 L 297.9591836734694 287.675109158044 L 303.0612244897959 279.45182304463196 L 308.1632653061224 287.9267693430862 L 313.265306122449 291.65513077905854 L 318.36734693877554 286.0337372063965 L 323.46938775510205 291.3805158156317 L 328.57142857142856 286.20726690721216 L 333.6734693877551 291.20635433192473 L 338.77551020408157 295.912083900768 L 343.8775510204082 259.5083325143555 L 348.97959183673464 294.80435789798815 L 354.0816326530612 299.03014306372586 L 359.1836734693877 295.21438499445435 L 364.28571428571433 298.793013885184 L 369.3877551020408 304.08967105170797 L 374.48979591836724 298.19829559015545 L 379.59183673469386 301.87063894309745 L 384.6938775510205 302.4685161525826 L 389.7959183673469 305.60784533954825 L 394.8979591836734 299.1362825894675 L 400 300.8279865781235 L 405.1020408163266 304.82906762884863 L 410.2040816326531 305.8847768402432 L 415.3061224489795 309.5807067544611 L 420.40816326530614 305.53329495837255 L 425.5102040816326 308.10359835455654 L 430.6122448979592 304.9503699439819 L 435.71428571428567 309.20205820826374 L 440.8163265306121 310.9645218807475 L 445.91836734693874 309.675474188159 L 451.02040816326536 312.0219158465189 L 456.1224489795918 306.632386594971 L 461.22448979591826 311.62410321928485 L 466.3265306122449 315.11280834515003 L 471.4285714285715 308.39379729596925 L 476.53061224489795 313.1616521824589 L 481.6326530612244 317.1387254833139 L 486.734693877551 310.3032557878333 L 491.8367346938776 315.77175790079605 L 496.9387755102041 318.468417875244 L 502.04081632653055 319.54455473345786 L 507.14285714285717 321.4550661968074 L 512.2448979591837 315.9964620158086 L 517.3469387755102 319.28152245637193 L 522.4489795918366 324.020525924158 L 527.5510204081631 324.1043424544064 L 532.6530612244898 318.86433515380406 L 537.7551020408164 321.57489435186096 L 542.8571428571429 323.7155853819479 L 547.9591836734693 319.5114914288121 L 553.0612244897959 322.89047692588485 L 558.1632653061224 324.0072584834403 L 563.2653061224489 326.50743397868786 L 568.3673469387754 319.5668777289511 L 573.469387755102 321.9710222247181 L 578.5714285714287 325.69432939755995 L 583.6734693877552 328.1669170398866 L 588.7755102040816 324.6135594648097 L 593.877551020408 326.3303241748214 L 598.9795918367347 326.58598565150857 L 604.0816326530612 327.83565221053817 L 609.1836734693877 330.1481881870639 L 614.2857142857142 329.1006921532565 L 619.3877551020407 329.64992208011006 L 624.4897959183675 332.2056944697938 L 629.5918367346939 329.18703581507015 L 634.6938775510203 330.8637876086316 L 639.795918367347 329.58969211113765 L 644.8979591836735 331.7617616914934 L 650 330.81134962865207 L 650 400 Z" /><text  class="poloto_text" alignment-baseline="middle" text-anchor="start" font-size="large" x="675" y="300" >Level 4</text><rect  class="poloto4fill poloto4legend" x="680" y="276.25" width="50" height="7.5" rx="5" ry="5" /><path  class="poloto4fill" d=" M 150 400 L 150 277.6716694511913 L 155.10204081632654 284.4671262302217 L 160.20408163265307 285.92064806885026 L 165.3061224489796 289.73809089249863 L 170.40816326530614 286.71690510620977 L 175.51020408163268 289.2943687084954 L 180.61224489795921 287.47525517009 L 185.71428571428567 292.06515787552473 L 190.8163265306123 293.7770789167029 L 195.91836734693874 293.8665814929732 L 201.02040816326527 294.48572872646616 L 206.1224489795918 287.99036882081236 L 211.22448979591834 298.46385499880665 L 216.32653061224488 299.2160978280708 L 221.42857142857142 294.0822300532102 L 226.53061224489795 300.7100537717439 L 231.6326530612245 300.7188987322223 L 236.73469387755102 297.12552824069525 L 241.83673469387756 302.6323585157314 L 246.9387755102041 305.1942381400312 L 252.0408163265306 299.50461201510666 L 257.14285714285717 304.20528732081937 L 262.2448979591836 307.9142740814579 L 267.34693877551024 302.87854324904885 L 272.4489795918367 306.16170834093816 L 277.5510204081633 309.05443160599214 L 282.65306122448976 309.5592261361562 L 287.75510204081627 310.04380361379816 L 292.85714285714283 311.45436421581707 L 297.9591836734694 313.31433304786106 L 303.0612244897959 306.30301711429655 L 308.1632653061224 313.5411431058447 L 313.265306122449 315.99119715838094 L 318.36734693877554 311.13405028991815 L 323.46938775510205 315.42490909346174 L 328.57142857142856 311.45204767854887 L 333.6734693877551 314.81945048928077 L 338.77551020408157 318.77251604026566 L 343.8775510204082 283.65718056355036 L 348.97959183673464 317.89138950117234 L 354.0816326530612 321.35819282013847 L 359.1836734693877 318.2041220323754 L 364.28571428571433 322.1354963707583 L 369.3877551020408 325.65579064118947 L 374.48979591836724 321.5915313013324 L 379.59183673469386 323.8337287826246 L 384.6938775510205 323.9516615890042 L 389.7959183673469 326.92546365844413 L 394.8979591836734 321.1174835385458 L 400 322.0243025818861 L 405.1020408163266 326.11657096325837 L 410.2040816326531 326.5329158886378 L 415.3061224489795 329.8790486753619 L 420.40816326530614 327.18091454083424 L 425.5102040816326 328.35034467266627 L 430.6122448979592 331.1339800918191 L 435.71428571428567 329.8655706403471 L 440.8163265306121 330.361941398627 L 445.91836734693874 329.4077386384377 L 451.02040816326536 331.3666867901217 L 456.1224489795918 326.9661083577857 L 461.22448979591826 331.541269462423 L 466.3265306122449 334.2090780181673 L 471.4285714285715 328.1336431409438 L 476.53061224489795 332.3017254692743 L 481.6326530612244 335.54298229603944 L 486.734693877551 330.5108315666812 L 491.8367346938776 334.23392814522583 L 496.9387755102041 336.2707961868393 L 502.04081632653055 336.6414421497466 L 507.14285714285717 339.1683631207267 L 512.2448979591837 333.75019304477235 L 517.3469387755102 337.13486458786696 L 522.4489795918366 340.5730270824266 L 527.5510204081631 340.10255942269083 L 532.6530612244898 336.87541241383184 L 537.7551020408164 338.3198786976849 L 542.8571428571429 340.90808260912297 L 547.9591836734693 336.1442290142783 L 553.0612244897959 339.113608603479 L 558.1632653061224 340.7901498027433 L 563.2653061224489 341.8309068190434 L 568.3673469387754 335.80074971569775 L 573.469387755102 337.57879736616735 L 578.5714285714287 340.98516012186394 L 583.6734693877552 342.906622488663 L 588.7755102040816 340.51953613096157 L 593.877551020408 341.11299086020756 L 598.9795918367347 341.52259676807955 L 604.0816326530612 342.69855532312187 L 609.1836734693877 344.56336782399933 L 614.2857142857142 343.6656043354346 L 619.3877551020407 343.99686916478305 L 624.4897959183675 346.33362348547604 L 629.5918367346939 344.1396520982212 L 634.6938775510203 345.4638690384264 L 639.795918367347 343.80965083465543 L 644.8979591836735 345.7435382649838 L 650 344.83166495851293 L 650 400 Z" /><text  class="poloto_text" alignment-baseline="middle" text-anchor="start" font-size="large" x="675" y="350" >Level 5</text><rect  class="poloto5fill poloto5legend" x="680" y="326.25" width="50" height="7.5" rx="5" ry="5" /><path  class="poloto5fill" d=" M 150 400 L 150 348.6918584244739 L 155.10204081632654 352.5886952981313 L 160.20408163265307 353.4186474230278 L 165.3061224489796 354.6403049405422 L 170.40816326530614 352.5067741165569 L 175.51020408163268 352.22626251281116 L 180.61224489795921 350.8921476406419 L 185.71428571428567 353.2088955031098 L 190.8163265306123 353.4538166706446 L 195.91836734693874 351.54751709323716 L 201.02040816326527 350.92879104833844 L 206.1224489795918 349.2389824083564 L 211.22448979591834 352.55879090794224 L 216.32653061224488 351.3143892063403 L 221.42857142857142 348.7207098431775 L 226.53061224489795 350.8397096606624 L 231.6326530612245 350.7853763320089 L 236.73469387755102 348.0739747567636 L 241.83673469387756 349.80653403905825 L 246.9387755102041 352.7053645387283 L 252.0408163265306 346.75923455992813 L 257.14285714285717 349.95416064132985 L 262.2448979591836 351.65091889311634 L 267.34693877551024 347.4636724837491 L 272.4489795918367 349.06376795316385 L 277.5510204081633 350.2399371025033 L 282.65306122448976 351.3668271863198 L 287.75510204081627 349.8745559970236 L 292.85714285714283 350.8660339478007 L 297.9591836734694 350.8757212854676 L 303.0612244897959 346.69458211071645 L 308.1632653061224 349.4099849776068 L 313.265306122449 351.2406812023531 L 318.36734693877554 347.41376163533494 L 323.46938775510205 349.76525755682536 L 328.57142857142856 346.790613110197 L 333.6734693877551 349.0233338481194 L 338.77551020408157 351.3741979867185 L 343.8775510204082 316.8211492832774 L 348.97959183673464 348.6164656661098 L 354.0816326530612 350.2803712075477 L 359.1836734693877 347.5586505117442 L 364.28571428571433 349.61805214314796 L 369.3877551020408 351.5386721327586 L 374.48979591836724 347.32952391649235 L 379.59183673469386 348.9704746795457 L 384.6938775510205 348.5960380192904 L 389.7959183673469 350.3077484661715 L 394.8979591836734 345.9166467772053 L 400 345.7740744380642 L 405.1020408163266 348.60656773414576 L 410.2040816326531 348.85843851348505 L 415.3061224489795 351.82634394260606 L 420.40816326530614 349.11704831033177 L 425.5102040816326 349.69260252432366 L 430.6122448979592 351.8082328330549 L 435.71428571428567 350.4983363050529 L 440.8163265306121 350.6303789293386 L 445.91836734693874 349.67701854633776 L 451.02040816326536 350.62595644909936 L 456.1224489795918 347.83726676681596 L 461.22448979591826 350.2441489884454 L 466.3265306122449 352.3511449309953 L 471.4285714285715 348.3917615510972 L 476.53061224489795 350.16959860726973 L 481.6326530612244 352.1761410700998 L 486.734693877551 347.7574515282126 L 491.8367346938776 350.8980442809609 L 496.9387755102041 351.4190545720022 L 502.04081632653055 351.17623934743847 L 507.14285714285717 353.3179833490109 L 512.2448979591837 349.1859126454856 L 517.3469387755102 351.288064919202 L 522.4489795918366 353.9419742513373 L 527.5510204081631 353.66167324188865 L 532.6530612244898 350.3943027222823 L 537.7551020408164 351.6424951212322 L 542.8571428571429 353.75117581815886 L 547.9591836734693 350.63143190082417 L 553.0612244897959 352.02893565642245 L 558.1632653061224 353.10865261768714 L 563.2653061224489 353.81877658753 L 568.3673469387754 349.32153537282215 L 573.469387755102 350.63395903238944 L 578.5714285714287 352.7017844356775 L 583.6734693877552 353.87458407626326 L 588.7755102040816 352.3435635362995 L 593.877551020408 352.6329201005237 L 598.9795918367347 352.60196273884907 L 604.0816326530612 354.3065129796285 L 609.1836734693877 354.9174470355343 L 614.2857142857142 353.9190194729527 L 619.3877551020407 354.1818411557415 L 624.4897959183675 356.2787285720303 L 629.5918367346939 354.410335968102 L 634.6938775510203 355.4534095216702 L 639.795918367347 353.884060819633 L 644.8979591836735 355.53364594886773 L 650 354.6405155348393 L 650 400 Z" /><text  class="poloto_text" alignment-baseline="middle" text-anchor="start" font-size="large" x="675" y="400" >Level 6</text><rect  class="poloto6fill poloto6legend" x="680" y="376.25" width="50" height="7.5" rx="5" ry="5" /><path  class="poloto6fill" d=" M 150 400 L 150 400 L 155.10204081632654 398.43233605233974 L 160.20408163265307 398.1014924115855 L 165.3061224489796 399.0382158451149 L 170.40816326530614 397.5118283796875 L 175.51020408163268 397.15044856585286 L 180.61224489795921 396.3440830022323 L 185.71428571428567 397.11169921518524 L 190.8163265306123 396.656183750544 L 195.91836734693874 395.5191851404664 L 201.02040816326527 393.571398486529 L 206.1224489795918 392.58750193044773 L 211.22448979591834 394.27688938183553 L 216.32653061224488 394.279837701995 L 221.42857142857142 391.96308983952713 L 226.53061224489795 392.6064554171873 L 231.6326530612245 392.423870161596 L 236.73469387755102 389.96560293147263 L 241.83673469387756 391.9852022407233 L 246.9387755102041 392.2238055793449 L 252.0408163265306 388.3208614710714 L 257.14285714285717 390.3992165892148 L 262.2448979591836 390.0239375517711 L 267.34693877551024 387.56061605851716 L 272.4489795918367 389.22725932581744 L 277.5510204081633 389.6941468825024 L 282.65306122448976 388.83450096171396 L 287.75510204081627 388.3185449338032 L 292.85714285714283 388.6205371558538 L 297.9591836734694 388.95159139090515 L 303.0612244897959 385.66905808190717 L 308.1632653061224 387.27505019164084 L 313.265306122449 387.6444325887655 L 318.36734693877554 384.78961629719066 L 323.46938775510205 386.62894688811826 L 328.57142857142856 383.59365128392324 L 333.6734693877551 384.58555042329453 L 338.77551020408157 385.7375012284667 L 343.8775510204082 384.76308141575527 L 348.97959183673464 383.96577140691033 L 354.0816326530612 385.8735451443975 L 359.1836734693877 382.80876633860754 L 364.28571428571433 384.5996602412007 L 369.3877551020408 384.9799935417749 L 374.48979591836724 383.1332921504486 L 379.59183673469386 383.5420556811322 L 384.6938775510205 382.6042792761172 L 389.7959183673469 383.6511435270333 L 394.8979591836734 380.79253653811054 L 400 379.67933508360596 L 405.1020408163266 382.15571342328053 L 410.2040816326531 383.51804793126206 L 415.3061224489795 383.8368876970812 L 420.40816326530614 381.96344083002236 L 425.5102040816326 381.66292276805143 L 430.6122448979592 383.1147598523032 L 435.71428571428567 381.8952082777598 L 440.8163265306121 382.354514439749 L 445.91836734693874 380.65207014194056 L 451.02040816326536 382.09758939727914 L 456.1224489795918 379.82738287447177 L 461.22448979591826 381.0557794094936 L 466.3265306122449 381.88867985454954 L 471.4285714285715 379.157061226782 L 476.53061224489795 380.8163336936836 L 481.6326530612244 381.6464964128771 L 486.734693877551 379.1574824153762 L 491.8367346938776 380.06724977887603 L 496.9387755102041 379.9090934617491 L 502.04081632653055 380.7982225841324 L 507.14285714285717 380.95637890125937 L 512.2448979591837 378.4688390638382 L 517.3469387755102 380.207716175046 L 522.4489795918366 381.18150420486614 L 527.5510204081631 380.44631951366756 L 532.6530612244898 379.05492299268536 L 537.7551020408164 379.32448369298163 L 542.8571428571429 380.4012523340868 L 547.9591836734693 378.5227512038974 L 553.0612244897959 378.7796762463673 L 558.1632653061224 380.0939952546085 L 563.2653061224489 380.1752846532916 L 568.3673469387754 376.6771027840566 L 573.469387755102 377.23475648279447 L 578.5714285714287 378.98837519479974 L 583.6734693877552 379.9061451415896 L 588.7755102040816 378.47768402431666 L 593.877551020408 378.13925898886663 L 598.9795918367347 378.4675754980555 L 604.0816326530612 379.70881828520083 L 609.1836734693877 380.22582728459713 L 614.2857142857142 379.612155502829 L 619.3877551020407 379.8048492846814 L 624.4897959183675 380.50802364271976 L 629.5918367346939 379.56224465441477 L 634.6938775510203 379.96574332767074 L 639.795918367347 378.9580496160164 L 644.8979591836735 379.76167745377455 L 650 378.771252474483 L 650 400 Z" /><text  class="poloto_text" alignment-baseline="start" text-anchor="middle" font-size="x-large" x="400" y="37.5" >Bench of query levels with abspiral(5000,x)</text><text  class="poloto_text" alignment-baseline="start" text-anchor="middle" font-size="x-large" x="400" y="481.25" >Spiral Grow</text><text  class="poloto_text" alignment-baseline="start" text-anchor="middle" font-size="x-large" transform="rotate(-90,37.5,250)" x="37.5" y="250" >Time taken in Seconds</text><line  class="poloto_axis_lines" stroke="black" x1="258.27664399092976" x2="258.27664399092976" y1="400" y2="405" /><text  class="poloto_text" alignment-baseline="start" text-anchor="middle" x="258.27664399092976" y="430" > 0.8</text><line  class="poloto_axis_lines" stroke="black" x1="371.6553287981859" x2="371.6553287981859" y1="400" y2="405" /><text  class="poloto_text" alignment-baseline="start" text-anchor="middle" x="371.6553287981859" y="430" > 1.0</text><line  class="poloto_axis_lines" stroke="black" x1="485.03401360544217" x2="485.03401360544217" y1="400" y2="405" /><text  class="poloto_text" alignment-baseline="start" text-anchor="middle" x="485.03401360544217" y="430" > 1.2</text><line  class="poloto_axis_lines" stroke="black" x1="598.4126984126984" x2="598.4126984126984" y1="400" y2="405" /><text  class="poloto_text" alignment-baseline="start" text-anchor="middle" x="598.4126984126984" y="430" > 1.4</text><line  class="poloto_axis_lines" stroke="black" x1="150" x2="144" y1="326.15953219986807" y2="326.15953219986807" /><text  class="poloto_text" alignment-baseline="middle" text-anchor="end" x="135" y="326.15953219986807" > 0.0005</text><line  class="poloto_axis_lines" stroke="black" x1="150" x2="144" y1="220.86238364665087" y2="220.86238364665087" /><text  class="poloto_text" alignment-baseline="middle" text-anchor="end" x="135" y="220.86238364665087" > 0.0010</text><line  class="poloto_axis_lines" stroke="black" x1="150" x2="144" y1="115.56523509343373" y2="115.56523509343373" /><text  class="poloto_text" alignment-baseline="middle" text-anchor="end" x="135" y="115.56523509343373" > 0.0015</text><path  stroke="black" fill="none" class="poloto_axis_lines" style="stroke-dasharray:9.448223733938018;stroke-dashoffset:-108.27664399092973;" d=" M 150 400 L 650 400" /><path  stroke="black" fill="none" class="poloto_axis_lines" style="stroke-dasharray:5.264857427660859;stroke-dashoffset:-73.84046780013196;" d=" M 150 400 L 150 100" /></svg>