<svg class="poloto" width="800" height="500" viewBox="0 0 800 500" xmlns="http://www.w3.org/2000/svg"><circle  r="1e5" class="poloto_background" /><text  class="poloto_text poloto_legend_text" x="675" y="100" >Level 0</text><rect  class="poloto_linefill poloto_legend_icon poloto0fill poloto0legend" x="680" y="76.25" width="50" height="7.5" rx="5" ry="5" /><path  class="poloto_linefill poloto0fill" d=" M 150.00 400.00 L 150.00 100.00 L 155.10 105.43 L 160.20 111.17 L 165.31 114.06 L 170.41 116.54 L 175.51 108.49 L 180.61 110.52 L 185.71 115.01 L 190.82 113.97 L 195.92 116.02 L 201.02 122.09 L 206.12 129.99 L 211.22 130.13 L 216.33 134.09 L 221.43 137.30 L 226.53 119.08 L 231.63 135.07 L 236.73 140.50 L 241.84 139.07 L 246.94 150.72 L 252.04 152.11 L 257.14 148.79 L 262.24 156.54 L 267.35 154.95 L 272.45 157.84 L 277.55 158.37 L 282.65 161.42 L 287.76 161.69 L 292.86 162.85 L 297.96 161.78 L 303.06 163.75 L 308.16 163.61 L 313.27 168.28 L 318.37 167.29 L 323.47 170.78 L 328.57 171.71 L 333.67 167.63 L 338.78 170.17 L 343.88 169.31 L 348.98 155.67 L 354.08 175.98 L 359.18 167.54 L 364.29 168.89 L 369.39 179.18 L 374.49 179.38 L 379.59 178.23 L 384.69 181.10 L 389.80 182.63 L 394.90 181.83 L 400.00 182.35 L 405.10 176.19 L 410.20 179.64 L 415.31 182.28 L 420.41 182.68 L 425.51 183.68 L 430.61 184.81 L 435.71 183.36 L 440.82 185.90 L 445.92 189.46 L 451.02 193.93 L 456.12 183.41 L 461.22 188.52 L 466.33 189.80 L 471.43 195.46 L 476.53 197.36 L 481.63 198.21 L 486.73 197.84 L 491.84 198.43 L 496.94 201.07 L 502.04 198.81 L 507.14 198.94 L 512.24 201.55 L 517.35 205.18 L 522.45 206.98 L 527.55 205.96 L 532.65 203.81 L 537.76 208.67 L 542.86 200.98 L 547.96 204.38 L 553.06 197.68 L 558.16 203.99 L 563.27 209.99 L 568.37 211.50 L 573.47 212.90 L 578.57 213.56 L 583.67 215.39 L 588.78 214.48 L 593.88 215.89 L 598.98 216.75 L 604.08 216.98 L 609.18 217.94 L 614.29 215.05 L 619.39 218.38 L 624.49 220.35 L 629.59 220.53 L 634.69 221.91 L 639.80 221.59 L 644.90 222.39 L 650.00 222.93 L 650.00 400.00 Z" /><text  class="poloto_text poloto_legend_text" x="675" y="150" >Level 1</text><rect  class="poloto_linefill poloto_legend_icon poloto1fill poloto1legend" x="680" y="126.25" width="50" height="7.5" rx="5" ry="5" /><path  class="poloto_linefill poloto1fill" d=" M 150.00 400.00 L 150.00 108.49 L 155.10 113.54 L 160.20 119.00 L 165.31 121.94 L 170.41 124.15 L 175.51 116.15 L 180.61 118.19 L 185.71 122.73 L 190.82 121.32 L 195.92 123.03 L 201.02 128.99 L 206.12 136.55 L 211.22 136.62 L 216.33 140.01 L 221.43 142.59 L 226.53 125.74 L 231.63 140.38 L 236.73 146.13 L 241.84 144.13 L 246.94 155.65 L 252.04 156.96 L 257.14 153.51 L 262.24 161.28 L 267.35 159.72 L 272.45 162.42 L 277.55 162.83 L 282.65 166.00 L 287.76 165.97 L 292.86 167.09 L 297.96 166.21 L 303.06 167.96 L 308.16 167.82 L 313.27 172.38 L 318.37 171.29 L 323.47 174.67 L 328.57 175.57 L 333.67 171.68 L 338.78 173.99 L 343.88 173.18 L 348.98 159.52 L 354.08 179.64 L 359.18 171.38 L 364.29 172.48 L 369.39 183.10 L 374.49 182.84 L 379.59 181.61 L 384.69 184.46 L 389.80 185.92 L 394.90 185.06 L 400.00 185.86 L 405.10 179.54 L 410.20 182.79 L 415.31 185.64 L 420.41 185.76 L 425.51 186.89 L 430.61 187.83 L 435.71 186.37 L 440.82 189.14 L 445.92 192.42 L 451.02 196.88 L 456.12 186.42 L 461.22 191.37 L 466.33 192.86 L 471.43 198.54 L 476.53 200.17 L 481.63 200.99 L 486.73 200.74 L 491.84 201.19 L 496.94 203.88 L 502.04 201.56 L 507.14 201.75 L 512.24 204.25 L 517.35 207.89 L 522.45 209.61 L 527.55 208.57 L 532.65 206.49 L 537.76 211.27 L 542.86 203.70 L 547.96 206.94 L 553.06 200.39 L 558.16 206.74 L 563.27 212.50 L 568.37 213.94 L 573.47 215.28 L 578.57 215.95 L 583.67 217.75 L 588.78 216.86 L 593.88 218.25 L 598.98 219.03 L 604.08 219.25 L 609.18 220.18 L 614.29 217.30 L 619.39 220.67 L 624.49 222.57 L 629.59 222.74 L 634.69 224.06 L 639.80 223.77 L 644.90 224.54 L 650.00 225.09 L 650.00 400.00 Z" /><text  class="poloto_text poloto_legend_text" x="675" y="200" >Level 2</text><rect  class="poloto_linefill poloto_legend_icon poloto2fill poloto2legend" x="680" y="176.25" width="50" height="7.5" rx="5" ry="5" /><path  class="poloto_linefill poloto2fill" d=" M 150.00 400.00 L 150.00 176.25 L 155.10 179.76 L 160.20 184.40 L 165.31 185.42 L 170.41 186.68 L 175.51 180.11 L 180.61 181.53 L 185.71 184.50 L 190.82 182.94 L 195.92 184.07 L 201.02 188.52 L 206.12 194.36 L 211.22 194.25 L 216.33 196.36 L 221.43 198.34 L 226.53 185.01 L 231.63 196.99 L 236.73 200.30 L 241.84 198.19 L 246.94 207.58 L 252.04 208.08 L 257.14 204.75 L 262.24 211.16 L 267.35 209.94 L 272.45 211.57 L 277.55 211.40 L 282.65 213.94 L 287.76 213.61 L 292.86 214.40 L 297.96 213.55 L 303.06 214.53 L 308.16 214.25 L 313.27 217.95 L 318.37 216.67 L 323.47 219.33 L 328.57 220.18 L 333.67 217.13 L 338.78 218.53 L 343.88 217.84 L 348.98 206.66 L 354.08 222.59 L 359.18 216.08 L 364.29 216.55 L 369.39 225.30 L 374.49 224.56 L 379.59 223.54 L 384.69 225.80 L 389.80 227.10 L 394.90 226.08 L 400.00 227.03 L 405.10 221.78 L 410.20 223.99 L 415.31 226.29 L 420.41 226.19 L 425.51 227.13 L 430.61 227.92 L 435.71 226.49 L 440.82 228.70 L 445.92 231.33 L 451.02 234.88 L 456.12 226.39 L 461.22 230.12 L 466.33 231.45 L 471.43 235.96 L 476.53 237.18 L 481.63 237.74 L 486.73 237.46 L 491.84 237.71 L 496.94 240.06 L 502.04 237.84 L 507.14 238.11 L 512.24 240.11 L 517.35 243.02 L 522.45 244.29 L 527.55 243.53 L 532.65 241.57 L 537.76 245.49 L 542.86 239.75 L 547.96 242.05 L 553.06 236.75 L 558.16 241.82 L 563.27 246.53 L 568.37 247.54 L 573.47 248.65 L 578.57 249.19 L 583.67 250.84 L 588.78 249.82 L 593.88 250.94 L 598.98 251.56 L 604.08 251.71 L 609.18 252.47 L 614.29 250.14 L 619.39 252.81 L 624.49 254.37 L 629.59 254.36 L 634.69 255.47 L 639.80 255.21 L 644.90 255.77 L 650.00 256.33 L 650.00 400.00 Z" /><text  class="poloto_text poloto_legend_text" x="675" y="250" >Level 3</text><rect  class="poloto_linefill poloto_legend_icon poloto3fill poloto3legend" x="680" y="226.25" width="50" height="7.5" rx="5" ry="5" /><path  class="poloto_linefill poloto3fill" d=" M 150.00 400.00 L 150.00 246.74 L 155.10 248.88 L 160.20 251.84 L 165.31 251.42 L 170.41 251.99 L 175.51 246.47 L 180.61 247.62 L 185.71 248.76 L 190.82 246.91 L 195.92 247.31 L 201.02 250.37 L 206.12 254.45 L 211.22 254.36 L 216.33 255.03 L 221.43 256.81 L 226.53 246.23 L 231.63 254.62 L 236.73 256.82 L 241.84 254.97 L 246.94 262.27 L 252.04 262.39 L 257.14 258.78 L 262.24 263.94 L 267.35 262.92 L 272.45 263.23 L 277.55 262.82 L 282.65 264.96 L 287.76 264.03 L 292.86 264.48 L 297.96 263.94 L 303.06 264.14 L 308.16 263.78 L 313.27 266.80 L 318.37 265.14 L 323.47 267.06 L 328.57 268.06 L 333.67 265.36 L 338.78 266.11 L 343.88 265.86 L 348.98 256.83 L 354.08 268.49 L 359.18 263.60 L 364.29 263.59 L 369.39 270.79 L 374.49 269.18 L 379.59 268.53 L 384.69 270.03 L 389.80 271.69 L 394.90 270.08 L 400.00 270.51 L 405.10 266.90 L 410.20 267.82 L 415.31 269.80 L 420.41 269.23 L 425.51 269.98 L 430.61 270.91 L 435.71 269.21 L 440.82 270.83 L 445.92 272.91 L 451.02 275.48 L 456.12 268.73 L 461.22 271.29 L 466.33 272.69 L 471.43 276.01 L 476.53 276.78 L 481.63 277.02 L 486.73 276.70 L 491.84 276.67 L 496.94 278.95 L 502.04 276.60 L 507.14 276.93 L 512.24 278.48 L 517.35 280.53 L 522.45 281.36 L 527.55 280.90 L 532.65 279.05 L 537.76 282.06 L 542.86 278.22 L 547.96 279.33 L 553.06 275.26 L 558.16 279.19 L 563.27 282.89 L 568.37 283.48 L 573.47 284.28 L 578.57 284.77 L 583.67 285.89 L 588.78 284.95 L 593.88 285.75 L 598.98 286.21 L 604.08 286.29 L 609.18 286.93 L 614.29 285.19 L 619.39 287.03 L 624.49 288.22 L 629.59 288.03 L 634.69 288.95 L 639.80 288.71 L 644.90 289.00 L 650.00 289.86 L 650.00 400.00 Z" /><text  class="poloto_text poloto_legend_text" x="675" y="300" >Level 4</text><rect  class="poloto_linefill poloto_legend_icon poloto4fill poloto4legend" x="680" y="276.25" width="50" height="7.5" rx="5" ry="5" /><path  class="poloto_linefill poloto4fill" d=" M 150.00 400.00 L 150.00 299.05 L 155.10 300.04 L 160.20 301.43 L 165.31 300.88 L 170.41 300.77 L 175.51 296.71 L 180.61 297.31 L 185.71 297.84 L 190.82 295.99 L 195.92 296.26 L 201.02 298.18 L 206.12 300.68 L 211.22 300.54 L 216.33 299.89 L 221.43 301.17 L 226.53 293.80 L 231.63 299.05 L 236.73 299.90 L 241.84 298.24 L 246.94 303.77 L 252.04 303.45 L 257.14 300.22 L 262.24 303.90 L 267.35 303.07 L 272.45 302.94 L 277.55 302.46 L 282.65 303.88 L 287.76 302.99 L 292.86 303.31 L 297.96 302.74 L 303.06 302.62 L 308.16 302.35 L 313.27 304.42 L 318.37 302.78 L 323.47 304.11 L 328.57 304.94 L 333.67 303.11 L 338.78 303.34 L 343.88 302.97 L 348.98 296.70 L 354.08 304.46 L 359.18 301.05 L 364.29 300.78 L 369.39 305.87 L 374.49 304.34 L 379.59 303.89 L 384.69 304.92 L 389.80 306.28 L 394.90 304.92 L 400.00 305.15 L 405.10 302.49 L 410.20 303.00 L 415.31 304.40 L 420.41 303.83 L 425.51 304.70 L 430.61 304.96 L 435.71 303.58 L 440.82 304.77 L 445.92 306.18 L 451.02 308.28 L 456.12 303.09 L 461.22 304.73 L 466.33 305.75 L 471.43 308.21 L 476.53 308.68 L 481.63 308.72 L 486.73 308.38 L 491.84 308.21 L 496.94 309.93 L 502.04 307.99 L 507.14 308.34 L 512.24 309.45 L 517.35 310.87 L 522.45 311.36 L 527.55 311.22 L 532.65 309.51 L 537.76 311.77 L 542.86 309.10 L 547.96 309.82 L 553.06 306.76 L 558.16 309.63 L 563.27 312.40 L 568.37 312.70 L 573.47 313.24 L 578.57 313.59 L 583.67 314.40 L 588.78 313.65 L 593.88 314.22 L 598.98 314.53 L 604.08 314.57 L 609.18 315.08 L 614.29 313.77 L 619.39 315.04 L 624.49 315.96 L 629.59 315.67 L 634.69 316.39 L 639.80 316.24 L 644.90 316.36 L 650.00 317.04 L 650.00 400.00 Z" /><text  class="poloto_text poloto_legend_text" x="675" y="350" >Level 5</text><rect  class="poloto_linefill poloto_legend_icon poloto5fill poloto5legend" x="680" y="326.25" width="50" height="7.5" rx="5" ry="5" /><path  class="poloto_linefill poloto5fill" d=" M 150.00 400.00 L 150.00 355.18 L 155.10 355.29 L 160.20 355.48 L 165.31 355.14 L 170.41 354.15 L 175.51 351.71 L 180.61 351.60 L 185.71 352.07 L 190.82 350.26 L 195.92 349.55 L 201.02 350.49 L 206.12 351.79 L 211.22 351.20 L 216.33 350.28 L 221.43 351.14 L 226.53 347.02 L 231.63 348.94 L 236.73 349.47 L 241.84 348.07 L 246.94 350.94 L 252.04 350.37 L 257.14 348.00 L 262.24 350.08 L 267.35 349.77 L 272.45 348.82 L 277.55 348.27 L 282.65 349.02 L 287.76 348.37 L 292.86 348.77 L 297.96 347.88 L 303.06 347.36 L 308.16 347.24 L 313.27 348.20 L 318.37 346.56 L 323.47 347.09 L 328.57 347.90 L 333.67 346.70 L 338.78 346.32 L 343.88 345.80 L 348.98 345.42 L 354.08 346.14 L 359.18 344.23 L 364.29 344.09 L 369.39 346.52 L 374.49 345.00 L 379.59 345.04 L 384.69 345.36 L 389.80 346.44 L 394.90 345.56 L 400.00 345.61 L 405.10 343.32 L 410.20 343.40 L 415.31 344.12 L 420.41 343.44 L 425.51 343.92 L 430.61 343.95 L 435.71 343.01 L 440.82 343.52 L 445.92 344.55 L 451.02 345.96 L 456.12 342.23 L 461.22 342.86 L 466.33 343.82 L 471.43 345.40 L 476.53 345.57 L 481.63 345.12 L 486.73 344.66 L 491.84 344.27 L 496.94 345.46 L 502.04 344.05 L 507.14 344.65 L 512.24 345.31 L 517.35 345.95 L 522.45 345.87 L 527.55 346.17 L 532.65 344.54 L 537.76 345.91 L 542.86 344.50 L 547.96 345.01 L 553.06 342.96 L 558.16 344.76 L 563.27 346.52 L 568.37 346.47 L 573.47 346.67 L 578.57 346.79 L 583.67 347.28 L 588.78 346.65 L 593.88 347.01 L 598.98 347.12 L 604.08 347.18 L 609.18 347.49 L 614.29 346.77 L 619.39 347.36 L 624.49 347.87 L 629.59 347.47 L 634.69 348.07 L 639.80 348.09 L 644.90 347.90 L 650.00 348.35 L 650.00 400.00 Z" /><text  class="poloto_text poloto_legend_text" x="675" y="400" >Level 6</text><rect  class="poloto_linefill poloto_legend_icon poloto6fill poloto6legend" x="680" y="376.25" width="50" height="7.5" rx="5" ry="5" /><path  class="poloto_linefill poloto6fill" d=" M 150.00 400.00 L 150.00 380.08 L 155.10 379.95 L 160.20 379.78 L 165.31 379.47 L 170.41 378.92 L 175.51 377.74 L 180.61 377.25 L 185.71 377.35 L 190.82 376.12 L 195.92 375.59 L 201.02 375.81 L 206.12 376.50 L 211.22 376.01 L 216.33 375.51 L 221.43 375.57 L 226.53 373.56 L 231.63 374.27 L 236.73 374.23 L 241.84 373.10 L 246.94 374.73 L 252.04 374.29 L 257.14 373.06 L 262.24 373.81 L 267.35 373.55 L 272.45 372.70 L 277.55 372.54 L 282.65 372.78 L 287.76 372.20 L 292.86 372.62 L 297.96 371.85 L 303.06 371.44 L 308.16 371.22 L 313.27 371.70 L 318.37 370.77 L 323.47 370.79 L 328.57 371.22 L 333.67 370.86 L 338.78 370.17 L 343.88 369.83 L 348.98 369.49 L 354.08 369.96 L 359.18 368.79 L 364.29 368.40 L 369.39 369.66 L 374.49 368.60 L 379.59 368.59 L 384.69 368.99 L 389.80 369.29 L 394.90 368.82 L 400.00 368.80 L 405.10 367.58 L 410.20 367.95 L 415.31 367.78 L 420.41 367.30 L 425.51 367.53 L 430.61 367.50 L 435.71 366.83 L 440.82 367.12 L 445.92 367.52 L 451.02 368.32 L 456.12 366.29 L 461.22 366.48 L 466.33 367.16 L 471.43 367.82 L 476.53 367.84 L 481.63 367.44 L 486.73 367.42 L 491.84 366.83 L 496.94 367.51 L 502.04 366.54 L 507.14 366.90 L 512.24 367.32 L 517.35 367.60 L 522.45 367.50 L 527.55 367.70 L 532.65 366.58 L 537.76 367.38 L 542.86 366.67 L 547.96 366.88 L 553.06 365.71 L 558.16 366.74 L 563.27 367.68 L 568.37 367.61 L 573.47 367.69 L 578.57 367.74 L 583.67 368.03 L 588.78 367.59 L 593.88 367.74 L 598.98 367.77 L 604.08 367.80 L 609.18 368.25 L 614.29 367.54 L 619.39 367.82 L 624.49 368.43 L 629.59 367.85 L 634.69 368.26 L 639.80 368.22 L 644.90 368.08 L 650.00 368.35 L 650.00 400.00 Z" /><text  class="poloto_labels poloto_text poloto_title" x="400" y="37.5" >Bench of query levels with abspiral(5000,x)</text><text  class="poloto_labels poloto_text poloto_xname" x="400" y="481.25" >Spiral Grow</text><text  class="poloto_labels poloto_text poloto_yname" transform="rotate(-90,37.5,250)" x="37.5" y="250" >Time taken in Seconds</text><text  class="poloto_tick_labels poloto_text" dominant-baseline="middle" text-anchor="start" x="150" y="70" ></text><line  class="poloto_axis_lines" stroke="black" x1="150" x2="144" y1="400" y2="400" /><text  class="poloto_tick_labels poloto_text" dominant-baseline="middle" text-anchor="end" x="135" y="400" >0e0</text><line  class="poloto_axis_lines" stroke="black" x1="150" x2="144" y1="344.0196364187346" y2="344.0196364187346" /><text  class="poloto_tick_labels poloto_text" dominant-baseline="middle" text-anchor="end" x="135" y="344.0196364187346" >0.001</text><line  class="poloto_axis_lines" stroke="black" x1="150" x2="144" y1="288.03927283746924" y2="288.03927283746924" /><text  class="poloto_tick_labels poloto_text" dominant-baseline="middle" text-anchor="end" x="135" y="288.03927283746924" >0.002</text><line  class="poloto_axis_lines" stroke="black" x1="150" x2="144" y1="232.05890925620383" y2="232.05890925620383" /><text  class="poloto_tick_labels poloto_text" dominant-baseline="middle" text-anchor="end" x="135" y="232.05890925620383" >0.003</text><line  class="poloto_axis_lines" stroke="black" x1="150" x2="144" y1="176.07854567493848" y2="176.07854567493848" /><text  class="poloto_tick_labels poloto_text" dominant-baseline="middle" text-anchor="end" x="135" y="176.07854567493848" >0.004</text><line  class="poloto_axis_lines" stroke="black" x1="150" x2="144" y1="120.09818209367307" y2="120.09818209367307" /><text  class="poloto_tick_labels poloto_text" dominant-baseline="middle" text-anchor="end" x="135" y="120.09818209367307" >0.005</text><text  class="poloto_tick_labels poloto_text" dominant-baseline="middle" text-anchor="start" x="440.00000000000006" y="70" ></text><line  class="poloto_axis_lines" stroke="black" x1="201.58730158730162" x2="201.58730158730162" y1="400" y2="405" /><text  class="poloto_tick_labels poloto_text" dominant-baseline="start" text-anchor="middle" x="201.58730158730162" y="430" >0.7</text><line  class="poloto_axis_lines" stroke="black" x1="258.2766439909297" x2="258.2766439909297" y1="400" y2="405" /><text  class="poloto_tick_labels poloto_text" dominant-baseline="start" text-anchor="middle" x="258.2766439909297" y="430" >0.8</text><line  class="poloto_axis_lines" stroke="black" x1="314.9659863945579" x2="314.9659863945579" y1="400" y2="405" /><text  class="poloto_tick_labels poloto_text" dominant-baseline="start" text-anchor="middle" x="314.9659863945579" y="430" >0.9</text><line  class="poloto_axis_lines" stroke="black" x1="371.6553287981859" x2="371.6553287981859" y1="400" y2="405" /><text  class="poloto_tick_labels poloto_text" dominant-baseline="start" text-anchor="middle" x="371.6553287981859" y="430" >1.0</text><line  class="poloto_axis_lines" stroke="black" x1="428.3446712018141" x2="428.3446712018141" y1="400" y2="405" /><text  class="poloto_tick_labels poloto_text" dominant-baseline="start" text-anchor="middle" x="428.3446712018141" y="430" >1.1</text><line  class="poloto_axis_lines" stroke="black" x1="485.03401360544217" x2="485.03401360544217" y1="400" y2="405" /><text  class="poloto_tick_labels poloto_text" dominant-baseline="start" text-anchor="middle" x="485.03401360544217" y="430" >1.2</text><line  class="poloto_axis_lines" stroke="black" x1="541.7233560090704" x2="541.7233560090704" y1="400" y2="405" /><text  class="poloto_tick_labels poloto_text" dominant-baseline="start" text-anchor="middle" x="541.7233560090704" y="430" >1.3</text><line  class="poloto_axis_lines" stroke="black" x1="598.4126984126984" x2="598.4126984126984" y1="400" y2="405" /><text  class="poloto_tick_labels poloto_text" dominant-baseline="start" text-anchor="middle" x="598.4126984126984" y="430" >1.4</text><path  stroke="black" fill="none" class="poloto_axis_lines" style="stroke-dasharray:14.172335600907028;stroke-dashoffset:-51.587301587301624;" d=" M 150 400 L 650 400" /><path  stroke="black" fill="none" class="poloto_axis_lines" style="stroke-dasharray:13.995090895316347;stroke-dashoffset:-0;" d=" M 150 400 L 150 100" /></svg>