<svg class="poloto" width="800" height="500" viewBox="0 0 800 500" xmlns="http://www.w3.org/2000/svg"><circle  r="1e5" class="poloto_background" /><text  class="poloto_text poloto_legend_text" x="675" y="100" >Level 0</text><rect  class="poloto_linefill poloto_legend_icon poloto0fill poloto0legend" x="680" y="76.25" width="50" height="7.5" rx="5" ry="5" /><path  class="poloto_linefill poloto0fill" d=" M 150.00 400.00 L 150.00 100.00 L 155.10 160.30 L 160.20 165.02 L 165.31 180.31 L 170.41 176.15 L 175.51 180.75 L 180.61 179.03 L 185.71 165.77 L 190.82 175.51 L 195.92 161.66 L 201.02 176.96 L 206.12 174.06 L 211.22 172.77 L 216.33 176.44 L 221.43 174.89 L 226.53 176.70 L 231.63 170.30 L 236.73 170.91 L 241.84 169.35 L 246.94 173.05 L 252.04 172.03 L 257.14 169.59 L 262.24 168.11 L 267.35 173.31 L 272.45 172.15 L 277.55 169.66 L 282.65 167.00 L 287.76 163.73 L 292.86 168.98 L 297.96 163.97 L 303.06 164.82 L 308.16 169.22 L 313.27 166.00 L 318.37 170.57 L 323.47 165.55 L 328.57 168.55 L 333.67 159.24 L 338.78 164.54 L 343.88 167.09 L 348.98 165.89 L 354.08 166.87 L 359.18 166.64 L 364.29 160.68 L 369.39 167.30 L 374.49 165.45 L 379.59 157.01 L 384.69 158.12 L 389.80 162.46 L 394.90 159.57 L 400.00 157.50 L 405.10 154.65 L 410.20 162.69 L 415.31 164.86 L 420.41 163.61 L 425.51 155.20 L 430.61 152.67 L 435.71 157.44 L 440.82 164.41 L 445.92 152.15 L 451.02 160.33 L 456.12 166.00 L 461.22 156.00 L 466.33 160.85 L 471.43 163.06 L 476.53 161.28 L 481.63 156.83 L 486.73 156.44 L 491.84 154.46 L 496.94 154.24 L 502.04 150.31 L 507.14 158.45 L 512.24 152.15 L 517.35 136.21 L 522.45 159.58 L 527.55 153.67 L 532.65 153.15 L 537.76 154.33 L 542.86 150.40 L 547.96 157.73 L 553.06 158.01 L 558.16 147.56 L 563.27 150.65 L 568.37 151.69 L 573.47 157.20 L 578.57 154.43 L 583.67 152.89 L 588.78 152.90 L 593.88 146.98 L 598.98 148.46 L 604.08 150.84 L 609.18 159.65 L 614.29 157.88 L 619.39 150.47 L 624.49 154.08 L 629.59 155.95 L 634.69 154.60 L 639.80 157.94 L 644.90 155.94 L 650.00 149.64 L 650.00 400.00 Z" /><text  class="poloto_text poloto_legend_text" x="675" y="150" >Level 1</text><rect  class="poloto_linefill poloto_legend_icon poloto1fill poloto1legend" x="680" y="126.25" width="50" height="7.5" rx="5" ry="5" /><path  class="poloto_linefill poloto1fill" d=" M 150.00 400.00 L 150.00 110.56 L 155.10 171.98 L 160.20 175.44 L 165.31 188.07 L 170.41 183.91 L 175.51 188.53 L 180.61 186.75 L 185.71 173.62 L 190.82 183.19 L 195.92 169.48 L 201.02 184.76 L 206.12 181.73 L 211.22 180.33 L 216.33 184.10 L 221.43 182.50 L 226.53 184.24 L 231.63 177.99 L 236.73 178.45 L 241.84 176.91 L 246.94 180.55 L 252.04 179.55 L 257.14 177.13 L 262.24 175.61 L 267.35 180.82 L 272.45 179.70 L 277.55 177.13 L 282.65 174.46 L 287.76 171.25 L 292.86 176.41 L 297.96 171.42 L 303.06 172.30 L 308.16 176.66 L 313.27 174.31 L 318.37 177.90 L 323.47 172.97 L 328.57 175.90 L 333.67 166.61 L 338.78 171.87 L 343.88 174.39 L 348.98 173.87 L 354.08 174.21 L 359.18 173.92 L 364.29 167.92 L 369.39 175.71 L 374.49 172.65 L 379.59 164.26 L 384.69 165.34 L 389.80 169.62 L 394.90 166.75 L 400.00 164.63 L 405.10 161.83 L 410.20 169.81 L 415.31 172.00 L 420.41 170.71 L 425.51 162.41 L 430.61 159.78 L 435.71 164.54 L 440.82 171.47 L 445.92 159.29 L 451.02 167.43 L 456.12 173.08 L 461.22 163.12 L 466.33 167.93 L 471.43 170.13 L 476.53 168.40 L 481.63 163.99 L 486.73 163.46 L 491.84 161.52 L 496.94 161.28 L 502.04 157.37 L 507.14 165.47 L 512.24 159.19 L 517.35 144.86 L 522.45 166.56 L 527.55 160.72 L 532.65 160.10 L 537.76 161.27 L 542.86 157.39 L 547.96 164.68 L 553.06 164.96 L 558.16 154.55 L 563.27 157.57 L 568.37 158.60 L 573.47 164.11 L 578.57 161.37 L 583.67 159.78 L 588.78 159.81 L 593.88 153.91 L 598.98 155.31 L 604.08 158.37 L 609.18 166.53 L 614.29 164.74 L 619.39 157.33 L 624.49 160.94 L 629.59 162.80 L 634.69 161.44 L 639.80 164.78 L 644.90 163.19 L 650.00 156.95 L 650.00 400.00 Z" /><text  class="poloto_text poloto_legend_text" x="675" y="200" >Level 2</text><rect  class="poloto_linefill poloto_legend_icon poloto2fill poloto2legend" x="680" y="176.25" width="50" height="7.5" rx="5" ry="5" /><path  class="poloto_linefill poloto2fill" d=" M 150.00 400.00 L 150.00 185.03 L 155.10 229.73 L 160.20 235.14 L 165.31 243.22 L 170.41 239.71 L 175.51 244.60 L 180.61 242.15 L 185.71 231.36 L 190.82 239.86 L 195.92 227.85 L 201.02 239.49 L 206.12 238.08 L 211.22 237.85 L 216.33 238.98 L 221.43 238.46 L 226.53 238.41 L 231.63 234.85 L 236.73 235.16 L 241.84 233.85 L 246.94 237.05 L 252.04 235.42 L 257.14 234.64 L 262.24 234.29 L 267.35 235.71 L 272.45 235.20 L 277.55 233.23 L 282.65 232.39 L 287.76 229.49 L 292.86 233.62 L 297.96 229.12 L 303.06 229.52 L 308.16 233.01 L 313.27 231.53 L 318.37 233.78 L 323.47 230.14 L 328.57 231.28 L 333.67 224.08 L 338.78 228.23 L 343.88 230.28 L 348.98 231.23 L 354.08 230.18 L 359.18 229.90 L 364.29 224.92 L 369.39 231.25 L 374.49 228.66 L 379.59 223.21 L 384.69 224.02 L 389.80 228.48 L 394.90 224.58 L 400.00 223.25 L 405.10 219.73 L 410.20 227.26 L 415.31 229.03 L 420.41 227.94 L 425.51 222.71 L 430.61 218.69 L 435.71 221.28 L 440.82 227.68 L 445.92 218.16 L 451.02 224.94 L 456.12 228.47 L 461.22 220.79 L 466.33 224.64 L 471.43 225.75 L 476.53 224.52 L 481.63 221.05 L 486.73 220.74 L 491.84 219.12 L 496.94 219.78 L 502.04 215.18 L 507.14 221.24 L 512.24 218.25 L 517.35 208.63 L 522.45 223.18 L 527.55 218.59 L 532.65 217.88 L 537.76 218.62 L 542.86 215.45 L 547.96 221.30 L 553.06 221.48 L 558.16 213.11 L 563.27 216.00 L 568.37 217.37 L 573.47 220.08 L 578.57 217.44 L 583.67 216.44 L 588.78 216.39 L 593.88 213.07 L 598.98 213.34 L 604.08 216.38 L 609.18 221.83 L 614.29 220.30 L 619.39 216.12 L 624.49 219.05 L 629.59 220.11 L 634.69 219.31 L 639.80 221.83 L 644.90 220.51 L 650.00 215.02 L 650.00 400.00 Z" /><text  class="poloto_text poloto_legend_text" x="675" y="250" >Level 3</text><rect  class="poloto_linefill poloto_legend_icon poloto3fill poloto3legend" x="680" y="226.25" width="50" height="7.5" rx="5" ry="5" /><path  class="poloto_linefill poloto3fill" d=" M 150.00 400.00 L 150.00 251.93 L 155.10 281.66 L 160.20 289.94 L 165.31 291.87 L 170.41 289.66 L 175.51 293.56 L 180.61 291.95 L 185.71 283.37 L 190.82 289.81 L 195.92 281.07 L 201.02 288.97 L 206.12 288.15 L 211.22 289.31 L 216.33 287.81 L 221.43 288.90 L 226.53 287.18 L 231.63 284.06 L 236.73 286.40 L 241.84 284.96 L 246.94 286.73 L 252.04 285.82 L 257.14 284.94 L 262.24 284.46 L 267.35 284.93 L 272.45 285.00 L 277.55 283.81 L 282.65 284.51 L 287.76 281.03 L 292.86 283.79 L 297.96 281.15 L 303.06 279.93 L 308.16 282.45 L 313.27 282.92 L 318.37 283.69 L 323.47 280.15 L 328.57 281.20 L 333.67 276.13 L 338.78 279.68 L 343.88 281.20 L 348.98 281.78 L 354.08 280.29 L 359.18 279.77 L 364.29 275.74 L 369.39 280.55 L 374.49 278.61 L 379.59 274.77 L 384.69 274.41 L 389.80 277.76 L 394.90 275.47 L 400.00 274.89 L 405.10 272.65 L 410.20 278.29 L 415.31 278.51 L 420.41 277.78 L 425.51 273.88 L 430.61 271.13 L 435.71 273.53 L 440.82 277.74 L 445.92 271.73 L 451.02 274.99 L 456.12 277.09 L 461.22 272.78 L 466.33 275.42 L 471.43 274.42 L 476.53 274.12 L 481.63 271.55 L 486.73 271.58 L 491.84 270.71 L 496.94 270.33 L 502.04 267.61 L 507.14 271.48 L 512.24 270.47 L 517.35 264.94 L 522.45 273.48 L 527.55 269.83 L 532.65 271.26 L 537.76 270.79 L 542.86 268.30 L 547.96 272.77 L 553.06 272.84 L 558.16 266.44 L 563.27 268.31 L 568.37 270.68 L 573.47 271.69 L 578.57 268.73 L 583.67 268.64 L 588.78 268.40 L 593.88 264.65 L 598.98 265.83 L 604.08 268.80 L 609.18 272.06 L 614.29 270.79 L 619.39 267.49 L 624.49 269.87 L 629.59 270.04 L 634.69 270.53 L 639.80 271.81 L 644.90 270.74 L 650.00 267.20 L 650.00 400.00 Z" /><text  class="poloto_text poloto_legend_text" x="675" y="300" >Level 4</text><rect  class="poloto_linefill poloto_legend_icon poloto4fill poloto4legend" x="680" y="276.25" width="50" height="7.5" rx="5" ry="5" /><path  class="poloto_linefill poloto4fill" d=" M 150.00 400.00 L 150.00 307.35 L 155.10 324.34 L 160.20 330.76 L 165.31 332.59 L 170.41 330.18 L 175.51 333.12 L 180.61 332.25 L 185.71 326.29 L 190.82 330.62 L 195.92 329.80 L 201.02 330.06 L 206.12 330.12 L 211.22 330.35 L 216.33 328.47 L 221.43 330.02 L 226.53 327.75 L 231.63 325.04 L 236.73 327.60 L 241.84 326.49 L 246.94 327.90 L 252.04 327.05 L 257.14 326.15 L 262.24 326.03 L 267.35 325.68 L 272.45 326.27 L 277.55 325.08 L 282.65 325.83 L 287.76 323.79 L 292.86 325.22 L 297.96 322.87 L 303.06 322.67 L 308.16 323.55 L 313.27 323.84 L 318.37 325.23 L 323.47 322.27 L 328.57 321.82 L 333.67 319.94 L 338.78 320.85 L 343.88 322.09 L 348.98 323.30 L 354.08 321.03 L 359.18 321.63 L 364.29 318.17 L 369.39 321.89 L 374.49 321.36 L 379.59 318.27 L 384.69 317.52 L 389.80 320.18 L 394.90 319.34 L 400.00 318.30 L 405.10 316.65 L 410.20 320.37 L 415.31 320.73 L 420.41 320.58 L 425.51 317.23 L 430.61 315.21 L 435.71 316.47 L 440.82 319.54 L 445.92 315.77 L 451.02 317.08 L 456.12 318.79 L 461.22 315.75 L 466.33 317.57 L 471.43 316.63 L 476.53 316.36 L 481.63 315.03 L 486.73 314.95 L 491.84 313.90 L 496.94 313.86 L 502.04 312.38 L 507.14 314.40 L 512.24 314.32 L 517.35 310.89 L 522.45 316.06 L 527.55 313.43 L 532.65 314.65 L 537.76 314.63 L 542.86 312.74 L 547.96 315.86 L 553.06 316.03 L 558.16 311.68 L 563.27 312.79 L 568.37 314.74 L 573.47 314.87 L 578.57 312.20 L 583.67 313.34 L 588.78 313.02 L 593.88 309.33 L 598.98 310.11 L 604.08 312.89 L 609.18 314.51 L 614.29 313.52 L 619.39 311.40 L 624.49 313.09 L 629.59 312.92 L 634.69 313.04 L 639.80 314.26 L 644.90 313.07 L 650.00 310.83 L 650.00 400.00 Z" /><text  class="poloto_text poloto_legend_text" x="675" y="350" >Level 5</text><rect  class="poloto_linefill poloto_legend_icon poloto5fill poloto5legend" x="680" y="326.25" width="50" height="7.5" rx="5" ry="5" /><path  class="poloto_linefill poloto5fill" d=" M 150.00 400.00 L 150.00 353.06 L 155.10 360.58 L 160.20 364.47 L 165.31 366.70 L 170.41 364.61 L 175.51 366.42 L 180.61 365.78 L 185.71 362.18 L 190.82 364.82 L 195.92 363.84 L 201.02 364.38 L 206.12 363.85 L 211.22 363.54 L 216.33 362.48 L 221.43 363.53 L 226.53 361.77 L 231.63 359.79 L 236.73 362.48 L 241.84 361.24 L 246.94 362.12 L 252.04 361.44 L 257.14 360.89 L 262.24 361.60 L 267.35 361.45 L 272.45 361.04 L 277.55 359.76 L 282.65 360.33 L 287.76 359.34 L 292.86 359.82 L 297.96 358.48 L 303.06 358.51 L 308.16 359.02 L 313.27 358.96 L 318.37 359.20 L 323.47 357.66 L 328.57 356.68 L 333.67 356.28 L 338.78 356.50 L 343.88 358.10 L 348.98 357.78 L 354.08 355.65 L 359.18 356.79 L 364.29 354.72 L 369.39 357.48 L 374.49 356.90 L 379.59 355.38 L 384.69 353.77 L 389.80 356.24 L 394.90 355.13 L 400.00 354.83 L 405.10 353.47 L 410.20 355.94 L 415.31 355.72 L 420.41 355.46 L 425.51 353.72 L 430.61 352.38 L 435.71 353.80 L 440.82 354.53 L 445.92 352.39 L 451.02 353.43 L 456.12 354.40 L 461.22 352.29 L 466.33 353.39 L 471.43 352.82 L 476.53 352.80 L 481.63 352.13 L 486.73 351.97 L 491.84 350.91 L 496.94 350.88 L 502.04 350.41 L 507.14 351.53 L 512.24 350.97 L 517.35 349.10 L 522.45 352.23 L 527.55 350.24 L 532.65 351.03 L 537.76 352.43 L 542.86 350.95 L 547.96 352.04 L 553.06 351.95 L 558.16 349.10 L 563.27 349.90 L 568.37 351.21 L 573.47 351.29 L 578.57 349.61 L 583.67 349.95 L 588.78 350.15 L 593.88 347.89 L 598.98 348.13 L 604.08 350.06 L 609.18 350.87 L 614.29 350.24 L 619.39 349.94 L 624.49 350.26 L 629.59 349.18 L 634.69 349.47 L 639.80 349.63 L 644.90 349.09 L 650.00 348.35 L 650.00 400.00 Z" /><text  class="poloto_text poloto_legend_text" x="675" y="400" >Level 6</text><rect  class="poloto_linefill poloto_legend_icon poloto6fill poloto6legend" x="680" y="376.25" width="50" height="7.5" rx="5" ry="5" /><path  class="poloto_linefill poloto6fill" d=" M 150.00 400.00 L 150.00 384.03 L 155.10 384.46 L 160.20 387.09 L 165.31 388.68 L 170.41 388.42 L 175.51 388.47 L 180.61 388.13 L 185.71 385.82 L 190.82 387.95 L 195.92 387.21 L 201.02 386.97 L 206.12 387.08 L 211.22 386.81 L 216.33 385.96 L 221.43 386.67 L 226.53 386.56 L 231.63 384.35 L 236.73 385.67 L 241.84 385.24 L 246.94 385.54 L 252.04 385.05 L 257.14 385.02 L 262.24 385.29 L 267.35 385.22 L 272.45 384.93 L 277.55 383.97 L 282.65 384.67 L 287.76 384.21 L 292.86 384.24 L 297.96 383.97 L 303.06 383.95 L 308.16 383.82 L 313.27 383.68 L 318.37 383.91 L 323.47 383.20 L 328.57 382.10 L 333.67 382.12 L 338.78 382.92 L 343.88 382.96 L 348.98 382.76 L 354.08 381.55 L 359.18 382.17 L 364.29 381.14 L 369.39 382.60 L 374.49 382.50 L 379.59 381.65 L 384.69 380.33 L 389.80 382.03 L 394.90 381.66 L 400.00 381.71 L 405.10 380.83 L 410.20 381.43 L 415.31 381.47 L 420.41 381.50 L 425.51 380.67 L 430.61 380.71 L 435.71 380.80 L 440.82 381.02 L 445.92 380.17 L 451.02 380.18 L 456.12 380.84 L 461.22 380.09 L 466.33 380.36 L 471.43 379.86 L 476.53 380.04 L 481.63 379.41 L 486.73 379.24 L 491.84 378.61 L 496.94 378.62 L 502.04 378.60 L 507.14 379.07 L 512.24 378.52 L 517.35 377.99 L 522.45 379.35 L 527.55 378.34 L 532.65 378.82 L 537.76 379.42 L 542.86 378.65 L 547.96 379.06 L 553.06 379.41 L 558.16 377.50 L 563.27 378.12 L 568.37 378.60 L 573.47 378.80 L 578.57 377.92 L 583.67 378.18 L 588.78 378.47 L 593.88 376.77 L 598.98 377.01 L 604.08 377.80 L 609.18 378.45 L 614.29 378.06 L 619.39 378.13 L 624.49 377.94 L 629.59 377.30 L 634.69 377.38 L 639.80 377.49 L 644.90 377.26 L 650.00 376.86 L 650.00 400.00 Z" /><text  class="poloto_labels poloto_text poloto_title" x="400" y="37.5" >Bench of rebal levels with abspiral(5000,x)</text><text  class="poloto_labels poloto_text poloto_xname" x="400" y="481.25" >Spiral Grow</text><text  class="poloto_labels poloto_text poloto_yname" transform="rotate(-90,37.5,250)" x="37.5" y="250" >Time taken in Seconds</text><text  class="poloto_tick_labels poloto_text" dominant-baseline="middle" text-anchor="start" x="150" y="70" ></text><line  class="poloto_axis_lines" stroke="black" x1="150" x2="144" y1="400" y2="400" /><text  class="poloto_tick_labels poloto_text" dominant-baseline="middle" text-anchor="end" x="135" y="400" >0e0</text><line  class="poloto_axis_lines" stroke="black" x1="150" x2="144" y1="319.61518179830483" y2="319.61518179830483" /><text  class="poloto_tick_labels poloto_text" dominant-baseline="middle" text-anchor="end" x="135" y="319.61518179830483" >0.0005</text><line  class="poloto_axis_lines" stroke="black" x1="150" x2="144" y1="239.23036359660966" y2="239.23036359660966" /><text  class="poloto_tick_labels poloto_text" dominant-baseline="middle" text-anchor="end" x="135" y="239.23036359660966" >0.0010</text><line  class="poloto_axis_lines" stroke="black" x1="150" x2="144" y1="158.84554539491455" y2="158.84554539491455" /><text  class="poloto_tick_labels poloto_text" dominant-baseline="middle" text-anchor="end" x="135" y="158.84554539491455" >0.0015</text><text  class="poloto_tick_labels poloto_text" dominant-baseline="middle" text-anchor="start" x="440.00000000000006" y="70" ></text><line  class="poloto_axis_lines" stroke="black" x1="201.58730158730162" x2="201.58730158730162" y1="400" y2="405" /><text  class="poloto_tick_labels poloto_text" dominant-baseline="start" text-anchor="middle" x="201.58730158730162" y="430" >0.7</text><line  class="poloto_axis_lines" stroke="black" x1="258.2766439909297" x2="258.2766439909297" y1="400" y2="405" /><text  class="poloto_tick_labels poloto_text" dominant-baseline="start" text-anchor="middle" x="258.2766439909297" y="430" >0.8</text><line  class="poloto_axis_lines" stroke="black" x1="314.9659863945579" x2="314.9659863945579" y1="400" y2="405" /><text  class="poloto_tick_labels poloto_text" dominant-baseline="start" text-anchor="middle" x="314.9659863945579" y="430" >0.9</text><line  class="poloto_axis_lines" stroke="black" x1="371.6553287981859" x2="371.6553287981859" y1="400" y2="405" /><text  class="poloto_tick_labels poloto_text" dominant-baseline="start" text-anchor="middle" x="371.6553287981859" y="430" >1.0</text><line  class="poloto_axis_lines" stroke="black" x1="428.3446712018141" x2="428.3446712018141" y1="400" y2="405" /><text  class="poloto_tick_labels poloto_text" dominant-baseline="start" text-anchor="middle" x="428.3446712018141" y="430" >1.1</text><line  class="poloto_axis_lines" stroke="black" x1="485.03401360544217" x2="485.03401360544217" y1="400" y2="405" /><text  class="poloto_tick_labels poloto_text" dominant-baseline="start" text-anchor="middle" x="485.03401360544217" y="430" >1.2</text><line  class="poloto_axis_lines" stroke="black" x1="541.7233560090704" x2="541.7233560090704" y1="400" y2="405" /><text  class="poloto_tick_labels poloto_text" dominant-baseline="start" text-anchor="middle" x="541.7233560090704" y="430" >1.3</text><line  class="poloto_axis_lines" stroke="black" x1="598.4126984126984" x2="598.4126984126984" y1="400" y2="405" /><text  class="poloto_tick_labels poloto_text" dominant-baseline="start" text-anchor="middle" x="598.4126984126984" y="430" >1.4</text><path  stroke="black" fill="none" class="poloto_axis_lines" style="stroke-dasharray:14.172335600907028;stroke-dashoffset:-51.587301587301624;" d=" M 150 400 L 650 400" /><path  stroke="black" fill="none" class="poloto_axis_lines" style="stroke-dasharray:8.038481820169517;stroke-dashoffset:-0;" d=" M 150 400 L 150 100" /></svg>