<svg class="poloto" height="500" viewBox="0 0 800 500" width="800" xmlns="http://www.w3.org/2000/svg">
<rect class="poloto_background" fill="white" height="500" width="800" x="0" y="0"/>
<style>
.poloto {
font-family: "Arial";
stroke-width:2;
}
.poloto_text{fill: var(--poloto_fg_color,black);  }
.poloto_axis_lines{stroke: var(--poloto_fg_color,black);stoke-width:3;fill:none}
.poloto_background{fill: var(--poloto_bg_color,aliceblue); }
.poloto0stroke{stroke:  var(--poloto_color0,blue); }
.poloto1stroke{stroke:  var(--poloto_color1,red); }
.poloto2stroke{stroke:  var(--poloto_color2,green); }
.poloto3stroke{stroke:  var(--poloto_color3,gold); }
.poloto4stroke{stroke:  var(--poloto_color4,aqua); }
.poloto5stroke{stroke:  var(--poloto_color5,brown); }
.poloto6stroke{stroke:  var(--poloto_color6,lime); }
.poloto7stroke{stroke:  var(--poloto_color7,chocolate); }
.poloto0fill{fill:var(--poloto_color0,blue);}
.poloto1fill{fill:var(--poloto_color1,red);}
.poloto2fill{fill:var(--poloto_color2,green);}
.poloto3fill{fill:var(--poloto_color3,gold);}
.poloto4fill{fill:var(--poloto_color4,aqua);}
.poloto5fill{fill:var(--poloto_color5,brown);}
.poloto6fill{fill:var(--poloto_color6,lime);}
.poloto7fill{fill:var(--poloto_color7,chocolate);}
</style>
<line class="poloto_axis_lines" stroke="black" x1="246.93878" x2="246.93878" y1="400" y2="405"/>
<text alignment-baseline="start" class="poloto_text" text-anchor="middle" x="246.93878" y="440">
0.10
</text>
<line class="poloto_axis_lines" stroke="black" x1="348.97958" x2="348.97958" y1="400" y2="405"/>
<text alignment-baseline="start" class="poloto_text" text-anchor="middle" x="348.97958" y="440">
0.15
</text>
<line class="poloto_axis_lines" stroke="black" x1="451.0204" x2="451.0204" y1="400" y2="405"/>
<text alignment-baseline="start" class="poloto_text" text-anchor="middle" x="451.0204" y="440">
0.20
</text>
<line class="poloto_axis_lines" stroke="black" x1="553.06116" x2="553.06116" y1="400" y2="405"/>
<text alignment-baseline="start" class="poloto_text" text-anchor="middle" x="553.06116" y="440">
0.25
</text>
<line class="poloto_axis_lines" stroke="black" x1="150" x2="144" y1="362.31403" y2="362.31403"/>
<text alignment-baseline="middle" class="poloto_text" text-anchor="end" x="120" y="362.31403">
0.0001
</text>
<line class="poloto_axis_lines" stroke="black" x1="150" x2="144" y1="297.42657" y2="297.42657"/>
<text alignment-baseline="middle" class="poloto_text" text-anchor="end" x="120" y="297.42657">
0.0002
</text>
<line class="poloto_axis_lines" stroke="black" x1="150" x2="144" y1="232.53912" y2="232.53912"/>
<text alignment-baseline="middle" class="poloto_text" text-anchor="end" x="120" y="232.53912">
0.0003
</text>
<line class="poloto_axis_lines" stroke="black" x1="150" x2="144" y1="167.65167" y2="167.65167"/>
<text alignment-baseline="middle" class="poloto_text" text-anchor="end" x="120" y="167.65167">
0.0004
</text>
<line class="poloto_axis_lines" stroke="black" x1="150" x2="144" y1="102.76422" y2="102.76422"/>
<text alignment-baseline="middle" class="poloto_text" text-anchor="end" x="120" y="102.76422">
0.0005
</text>
<text alignment-baseline="middle" class="poloto_text" font-size="large" text-anchor="start" x="675" y="100">
Level 0
</text>
<rect class="poloto0fill" height="7.5" rx="5" ry="5" width="50" x="680" y="76.25"/>
<path class="poloto0fill" d="M150,400 L150,133.35022 L155.10205,125.39438 L160.20409,133.29053 L165.30612,132.14526 L170.40817,124.16345 L175.5102,131.13043 L180.61224,122.59317 L185.7143,128.03918 L190.81631,124.036285 L195.91837,120.06064 L201.02042,120.08011 L206.12244,118.367065 L211.22449,118.12958 L216.32654,121.3999 L221.42856,124.75717 L226.53061,110.32623 L231.63266,120.33966 L236.73468,118.02057 L241.83673,116.31271 L246.93878,116.70401 L252.0408,120.95868 L257.14285,118.20032 L262.2449,120.23712 L267.34692,121.76196 L272.44897,120.28708 L277.55103,122.41278 L282.65305,115.52176 L287.75507,109.50409 L292.85715,113.71399 L297.95917,117.57089 L303.06122,117.365845 L308.16327,114.85602 L313.2653,116.18036 L318.36737,116.907104 L323.4694,116.18555 L328.5714,113.355804 L333.67346,119.42734 L338.7755,114.08188 L343.87753,113.21045 L348.9796,119.31442 L354.08163,111.212585 L359.18365,118.20224 L364.2857,109.01291 L369.38776,111.548035 L374.48978,117.397 L379.59186,114.60748 L384.69388,118.75833 L389.7959,107.93704 L394.89795,113.69061 L400,107.796875 L405.10202,112.28128 L410.20407,109.863556 L415.30612,114.52118 L420.40814,112.32733 L425.5102,114.357025 L430.6122,117.016754 L435.71426,111.32416 L440.8163,111.528564 L445.91837,118.01666 L451.0204,109.06741 L456.12244,113.90216 L461.22446,111.91724 L466.3265,105.86258 L471.42856,111.696625 L476.5306,107.279724 L481.63263,104.94638 L486.73468,107.51526 L491.8367,113.414856 L496.93875,112.22287 L502.0408,105.08719 L507.14285,116.45679 L512.2449,113.44144 L517.3469,113.14557 L522.449,109.45349 L527.551,112.04376 L532.653,112.819855 L537.7551,110.26065 L542.8571,112.96454 L547.95917,111.18985 L553.06116,113.41354 L558.1632,111.018555 L563.26526,113.6199 L568.3673,110.399536 L573.46936,106.660736 L578.5714,110.76874 L583.67346,110.85568 L588.7755,109.97839 L593.87756,106.45633 L598.9796,109.275024 L604.0816,105.04892 L609.18365,108.65277 L614.28564,108.29135 L619.3877,100 L624.48975,109.94403 L629.5918,113.14493 L634.69385,111.06204 L639.7959,100.23947 L644.89795,107.93704 L650,104.49542 L650,400 z"/>
<text alignment-baseline="middle" class="poloto_text" font-size="large" text-anchor="start" x="675" y="150">
Level 1
</text>
<rect class="poloto1fill" height="7.5" rx="5" ry="5" width="50" x="680" y="126.25"/>
<path class="poloto1fill" d="M150,400 L150,173.58044 L155.10205,164.6662 L160.20409,169.43025 L165.30612,167.0878 L170.40817,158.19498 L175.5102,166.01003 L180.61224,157.59477 L185.7143,163.87976 L190.81631,163.65915 L195.91837,157.60968 L201.02042,159.41747 L206.12244,156.82649 L211.22449,155.90898 L216.32654,157.89326 L221.42856,160.66005 L226.53061,145.73465 L231.63266,155.19977 L236.73468,155.78181 L241.83673,153.20255 L246.93878,151.00804 L252.0408,155.84929 L257.14285,154.62163 L262.2449,157.48251 L267.34692,155.31007 L272.44897,157.319 L277.55103,155.23677 L282.65305,148.93748 L287.75507,151.04178 L292.85715,150.16191 L297.95917,153.61847 L303.06122,153.61198 L308.16327,150.80429 L313.2653,152.90082 L318.36737,152.35185 L323.4694,150.60962 L328.5714,148.68767 L333.67346,153.3174 L338.7755,145.0488 L343.87753,145.93968 L348.9796,152.75221 L354.08163,148.65848 L359.18365,150.12817 L364.2857,144.1767 L369.38776,146.8559 L374.48978,150.5337 L379.59186,150.12688 L384.69388,150.60768 L389.7959,139.935 L394.89795,147.21991 L400,145.0741 L405.10202,144.75288 L410.20407,145.94617 L415.30612,148.71492 L420.40814,145.58865 L425.5102,146.29398 L430.6122,148.77982 L435.71426,143.49731 L440.8163,144.96571 L445.91837,146.27905 L451.0204,144.34021 L456.12244,148.52415 L461.22446,145.30249 L466.3265,143.53949 L471.42856,144.86969 L476.5306,147.8052 L481.63263,142.21838 L486.73468,144.02097 L491.8367,144.14294 L496.93875,146.59375 L502.0408,141.93549 L507.14285,149.70447 L512.2449,144.54266 L517.3469,142.52466 L522.449,141.33072 L527.551,146.55481 L532.653,145.9332 L537.7551,143.66605 L542.8571,146.93831 L547.95917,145.35893 L553.06116,149.1873 L558.1632,144.70033 L563.26526,148.56828 L568.3673,143.59464 L573.46936,143.54471 L578.5714,145.36479 L583.67346,142.06073 L588.7755,145.46082 L593.87756,142.53375 L598.9796,143.09763 L604.0816,141.22562 L609.18365,142.16064 L614.28564,143.41818 L619.3877,136.28961 L624.48975,146.30565 L629.5918,144.57835 L634.69385,144.03653 L639.7959,132.55664 L644.89795,138.85266 L650,137.8281 L650,400 z"/>
<text alignment-baseline="middle" class="poloto_text" font-size="large" text-anchor="start" x="675" y="200">
Level 2
</text>
<rect class="poloto2fill" height="7.5" rx="5" ry="5" width="50" x="680" y="176.25"/>
<path class="poloto2fill" d="M150,400 L150,210.50594 L155.10205,202.79341 L160.20409,207.58276 L165.30612,204.96585 L170.40817,199.721 L175.5102,203.56557 L180.61224,196.98212 L185.7143,201.7974 L190.81631,203.77386 L195.91837,194.98552 L201.02042,196.4377 L206.12244,193.77925 L211.22449,195.15877 L216.32654,197.31627 L221.42856,195.97765 L226.53061,191.89493 L231.63266,191.8177 L236.73468,192.30826 L241.83673,188.57204 L246.93878,189.18848 L252.0408,191.50883 L257.14285,188.2729 L262.2449,190.79573 L267.34692,191.57309 L272.44897,193.32375 L277.55103,190.60432 L282.65305,185.1849 L287.75507,186.17574 L292.85715,186.36392 L297.95917,189.01457 L303.06122,189.15215 L308.16327,186.23544 L313.2653,187.56369 L318.36737,188.05554 L323.4694,186.4684 L328.5714,184.52242 L333.67346,186.36911 L338.7755,184.43936 L343.87753,179.53906 L348.9796,184.10648 L354.08163,184.61586 L359.18365,185.36855 L364.2857,179.52544 L369.38776,183.63087 L374.48978,186.78178 L379.59186,185.36336 L384.69388,183.8943 L389.7959,177.02597 L394.89795,180.842 L400,182.65625 L405.10202,179.78302 L410.20407,179.3165 L415.30612,181.99828 L420.40814,183.4083 L425.5102,181.02757 L430.6122,181.74977 L435.71426,177.41853 L440.8163,179.6857 L445.91837,179.9154 L451.0204,181.0386 L456.12244,183.2331 L461.22446,179.6299 L466.3265,180.79332 L471.42856,177.97202 L476.5306,182.31364 L481.63263,177.58011 L486.73468,177.97269 L491.8367,177.91751 L496.93875,179.25938 L502.0408,177.38869 L507.14285,182.35127 L512.2449,178.1628 L517.3469,177.15639 L522.449,176.60031 L527.551,179.82846 L532.653,182.04047 L537.7551,180.18144 L542.8571,182.35063 L547.95917,181.14696 L553.06116,180.15419 L558.1632,175.82034 L563.26526,181.88864 L568.3673,174.58945 L573.46936,181.37798 L578.5714,178.50798 L583.67346,175.29932 L588.7755,180.96399 L593.87756,176.44781 L598.9796,178.34578 L604.0816,175.57379 L609.18365,177.50095 L614.28564,177.89804 L619.3877,172.1568 L624.48975,181.53629 L629.5918,175.65102 L634.69385,175.38042 L639.7959,168.06891 L644.89795,175.2513 L650,174.47525 L650,400 z"/>
<text alignment-baseline="middle" class="poloto_text" font-size="large" text-anchor="start" x="675" y="250">
Level 3
</text>
<rect class="poloto3fill" height="7.5" rx="5" ry="5" width="50" x="680" y="226.25"/>
<path class="poloto3fill" d="M150,400 L150,256.3379 L155.10205,249.7992 L160.20409,253.53279 L165.30612,249.125 L170.40817,246.56128 L175.5102,246.8695 L180.61224,242.4708 L185.7143,244.81322 L190.81631,245.32324 L195.91837,239.07718 L201.02042,240.3373 L206.12244,239.3244 L211.22449,240.49757 L216.32654,240.23154 L221.42856,240.57738 L226.53061,236.26495 L231.63266,235.91522 L236.73468,235.05675 L241.83673,235.01004 L246.93878,231.62032 L252.0408,234.05101 L257.14285,232.58975 L262.2449,233.34308 L267.34692,233.7259 L272.44897,235.85358 L277.55103,233.55785 L282.65305,227.07495 L287.75507,228.87688 L292.85715,230.47571 L297.95917,232.2705 L303.06122,230.07211 L308.16327,231.1421 L313.2653,227.15411 L318.36737,229.80347 L323.4694,228.44537 L328.5714,229.3817 L333.67346,227.91719 L338.7755,228.40904 L343.87753,222.67494 L348.9796,224.02135 L354.08163,226.31252 L359.18365,225.40799 L364.2857,221.55498 L369.38776,224.78314 L374.48978,227.62067 L379.59186,225.2925 L384.69388,225.30157 L389.7959,218.15877 L394.89795,223.1006 L400,223.7326 L405.10202,221.16954 L410.20407,220.10994 L415.30612,221.92029 L420.40814,223.49835 L425.5102,221.29024 L430.6122,220.48822 L435.71426,218.9147 L440.8163,219.36829 L445.91837,220.66797 L451.0204,221.33241 L456.12244,224.80064 L461.22446,218.7726 L466.3265,223.2732 L471.42856,217.9758 L476.5306,219.78226 L481.63263,218.48775 L486.73468,218.61493 L491.8367,218.38846 L496.93875,218.20224 L502.0408,218.00627 L507.14285,223.2946 L512.2449,215.91885 L517.3469,216.51062 L522.449,216.70659 L527.551,218.14774 L532.653,221.1358 L537.7551,219.84845 L542.8571,219.64795 L547.95917,221.45634 L553.06116,219.79459 L558.1632,216.24913 L563.26526,220.86977 L568.3673,216.04149 L573.46936,219.89905 L578.5714,218.39821 L583.67346,215.30373 L588.7755,219.87958 L593.87756,217.7344 L598.9796,216.8967 L604.0816,217.98747 L609.18365,217.40802 L614.28564,217.80966 L619.3877,211.94904 L624.48975,220.00871 L629.5918,215.96883 L634.69385,215.5743 L639.7959,210.91473 L644.89795,215.1136 L650,213.39085 L650,400 z"/>
<text alignment-baseline="middle" class="poloto_text" font-size="large" text-anchor="start" x="675" y="300">
Level 4
</text>
<rect class="poloto4fill" height="7.5" rx="5" ry="5" width="50" x="680" y="276.25"/>
<path class="poloto4fill" d="M150,400 L150,302.15558 L155.10205,295.48706 L160.20409,299.78198 L165.30612,294.81873 L170.40817,294.61694 L175.5102,291.8326 L180.61224,288.93604 L185.7143,290.74188 L190.81631,290.18124 L195.91837,286.65137 L201.02042,285.1239 L206.12244,286.73767 L211.22449,286.54883 L216.32654,284.93118 L221.42856,286.26984 L226.53061,282.7568 L231.63266,281.25272 L236.73468,282.12677 L241.83673,279.8985 L246.93878,279.41055 L252.0408,278.82788 L257.14285,279.33594 L262.2449,277.0136 L267.34692,277.68002 L272.44897,280.45914 L277.55103,278.60013 L282.65305,275.25323 L287.75507,275.3804 L292.85715,273.32477 L297.95917,277.2563 L303.06122,274.2118 L308.16327,276.32907 L313.2653,272.0932 L318.36737,273.49414 L323.4694,272.64993 L328.5714,273.8971 L333.67346,272.94388 L338.7755,272.9627 L343.87753,267.54913 L348.9796,268.7288 L354.08163,270.69226 L359.18365,271.12054 L364.2857,266.3072 L369.38776,269.43738 L374.48978,272.13342 L379.59186,269.90717 L384.69388,269.81824 L389.7959,263.22827 L394.89795,268.12015 L400,267.1501 L405.10202,265.08017 L410.20407,264.9919 L415.30612,265.92694 L420.40814,267.78207 L425.5102,267.0268 L430.6122,264.99582 L435.71426,262.4477 L440.8163,264.18604 L445.91837,264.52603 L451.0204,264.84528 L456.12244,265.31635 L461.22446,264.3885 L466.3265,266.11902 L471.42856,262.739 L476.5306,262.04797 L481.63263,262.44315 L486.73468,262.6242 L491.8367,262.72736 L496.93875,262.83832 L502.0408,262.02332 L507.14285,265.01398 L512.2449,262.8727 L517.3469,261.37445 L522.449,260.0235 L527.551,261.13437 L532.653,263.87262 L537.7551,263.9018 L542.8571,262.73126 L547.95917,264.3028 L553.06116,262.1278 L558.1632,260.71454 L563.26526,266.14886 L568.3673,260.59906 L573.46936,261.69952 L578.5714,260.5199 L583.67346,260.7379 L588.7755,261.00134 L593.87756,260.4829 L598.9796,263.43463 L604.0816,262.16025 L609.18365,259.47064 L614.28564,260.99292 L619.3877,255.91093 L624.48975,261.89746 L629.5918,259.2098 L634.69385,260.36804 L639.7959,257.21387 L644.89795,259.68283 L650,257.83612 L650,400 z"/>
<text alignment-baseline="middle" class="poloto_text" font-size="large" text-anchor="start" x="675" y="350">
Level 5
</text>
<rect class="poloto5fill" height="7.5" rx="5" ry="5" width="50" x="680" y="326.25"/>
<path class="poloto5fill" d="M150,400 L150,358.36823 L155.10205,353.33426 L160.20409,355.19458 L165.30612,352.05725 L170.40817,351.4246 L175.5102,348.96213 L180.61224,347.6715 L185.7143,346.97983 L190.81631,346.03052 L195.91837,343.02557 L201.02042,343.5784 L206.12244,343.2319 L211.22449,342.6875 L216.32654,341.73627 L221.42856,339.85126 L226.53061,339.6326 L231.63266,339.2128 L236.73468,339.75134 L241.83673,338.9539 L246.93878,336.5641 L252.0408,336.5044 L257.14285,334.22165 L262.2449,333.17825 L267.34692,335.62906 L272.44897,335.30722 L277.55103,333.249 L282.65305,333.1101 L287.75507,332.10632 L292.85715,331.01166 L297.95917,331.8182 L303.06122,331.43213 L308.16327,331.84286 L313.2653,328.5219 L318.36737,328.082 L323.4694,327.81464 L328.5714,330.14996 L333.67346,328.96317 L338.7755,328.9541 L343.87753,326.1211 L348.9796,325.81418 L354.08163,326.6882 L359.18365,327.02432 L364.2857,323.4289 L369.38776,325.7149 L374.48978,326.76218 L379.59186,325.10236 L384.69388,325.19385 L389.7959,319.26962 L394.89795,323.6833 L400,322.36346 L405.10202,322.53998 L410.20407,320.472 L415.30612,321.86642 L420.40814,321.95532 L425.5102,322.5672 L430.6122,320.99368 L435.71426,319.77057 L440.8163,320.53235 L445.91837,320.71533 L451.0204,319.81274 L456.12244,320.42334 L461.22446,320.7231 L466.3265,320.69263 L471.42856,318.27686 L476.5306,317.42554 L481.63263,318.63763 L486.73468,316.7416 L491.8367,318.842 L496.93875,318.6188 L502.0408,317.4158 L507.14285,319.53372 L512.2449,318.07764 L517.3469,316.5515 L522.449,315.7709 L527.551,316.2277 L532.653,319.42667 L537.7551,317.43137 L542.8571,315.96036 L547.95917,318.48126 L553.06116,317.6299 L558.1632,315.06363 L563.26526,319.33322 L568.3673,315.40167 L573.46936,315.44385 L578.5714,314.86636 L583.67346,315.4231 L588.7755,314.62564 L593.87756,314.45822 L598.9796,316.45352 L604.0816,315.69885 L609.18365,315.21936 L614.28564,314.9358 L619.3877,312.92947 L624.48975,316.5729 L629.5918,313.06573 L634.69385,315.42633 L639.7959,313.99493 L644.89795,312.8075 L650,311.01984 L650,400 z"/>
<text alignment-baseline="middle" class="poloto_text" font-size="large" text-anchor="start" x="675" y="400">
Level 6
</text>
<rect class="poloto6fill" height="7.5" rx="5" ry="5" width="50" x="680" y="376.25"/>
<path class="poloto6fill" d="M150,400 L150,400 L155.10205,397.74905 L160.20409,398.55624 L165.30612,396.86398 L170.40817,396.827 L175.5102,395.83228 L180.61224,395.4092 L185.7143,395.57532 L190.81631,394.11212 L195.91837,393.3075 L201.02042,393.2426 L206.12244,392.03183 L211.22449,392.5003 L216.32654,391.73657 L221.42856,391.35504 L226.53061,390.36615 L231.63266,390.44598 L236.73468,391.07993 L241.83673,391.06628 L246.93878,389.28644 L252.0408,387.06534 L257.14285,389.04117 L262.2449,387.70706 L267.34692,388.2625 L272.44897,387.63376 L277.55103,386.80774 L282.65305,387.4709 L287.75507,386.23932 L292.85715,384.56912 L297.95917,386.52936 L303.06122,386.57153 L308.16327,386.13614 L313.2653,384.4906 L318.36737,385.5431 L323.4694,384.38742 L328.5714,383.66718 L333.67346,383.44073 L338.7755,384.27194 L343.87753,382.24484 L348.9796,381.95868 L354.08163,382.80548 L359.18365,384.525 L364.2857,380.9497 L369.38776,380.88934 L374.48978,382.02682 L379.59186,381.8886 L384.69388,381.46686 L389.7959,379.4443 L394.89795,379.87128 L400,379.49103 L405.10202,380.1094 L410.20407,379.18607 L415.30612,379.4378 L420.40814,379.58252 L425.5102,379.87842 L430.6122,379.56046 L435.71426,379.6883 L440.8163,378.02002 L445.91837,378.71237 L451.0204,378.28802 L456.12244,379.19708 L461.22446,378.24844 L466.3265,378.32047 L471.42856,377.42242 L476.5306,375.71976 L481.63263,378.01028 L486.73468,377.6586 L491.8367,378.38858 L496.93875,377.37894 L502.0408,376.89813 L507.14285,377.41656 L512.2449,376.0935 L517.3469,377.36206 L522.449,375.0547 L527.551,375.43167 L532.653,376.07794 L537.7551,376.56006 L542.8571,375.56857 L547.95917,375.6672 L553.06116,375.05338 L558.1632,375.3181 L563.26526,376.71838 L568.3673,375.49655 L573.46936,374.11703 L578.5714,374.3026 L583.67346,374.28445 L588.7755,373.91394 L593.87756,374.2462 L598.9796,374.9768 L604.0816,375.4005 L609.18365,374.53232 L614.28564,375.5011 L619.3877,372.74014 L624.48975,373.96912 L629.5918,374.21307 L634.69385,374.6394 L639.7959,373.87762 L644.89795,374.3623 L650,372.84265 L650,400 z"/>
<text alignment-baseline="start" class="poloto_text" font-size="x-large" text-anchor="middle" x="400" y="37.5">
Bench of rebal levels with abspiral(5000,x)
</text>
<text alignment-baseline="start" class="poloto_text" font-size="large" text-anchor="middle" x="400" y="481.25">
Spiral Grow
</text>
<text alignment-baseline="start" class="poloto_text" font-size="large" text-anchor="middle" transform="rotate(-90,37.5,250)" x="37.5" y="250">
Time taken in Seconds
</text>
<path class="poloto_axis_lines" d="M150,100 L150,400 L650,400" stroke="black"/>
</svg>