<svg class="poloto" width="800" height="500" viewBox="0 0 800 500" xmlns="http://www.w3.org/2000/svg" ><rect class="poloto_background" fill="white" x="0" y="0" width="800" height="500" /><style><style>.poloto {
            font-family: "Arial";
            stroke-width:2;
            }
            .poloto_text{fill: var(--poloto_fg_color,black);  }
            .poloto_axis_lines{stroke: var(--poloto_fg_color,black);stoke-width:3;fill:none}
            .poloto_background{fill: var(--poloto_bg_color,aliceblue); }
            .poloto0stroke{stroke:  var(--poloto_color0,blue); }
            .poloto1stroke{stroke:  var(--poloto_color1,red); }
            .poloto2stroke{stroke:  var(--poloto_color2,green); }
            .poloto3stroke{stroke:  var(--poloto_color3,gold); }
            .poloto4stroke{stroke:  var(--poloto_color4,aqua); }
            .poloto5stroke{stroke:  var(--poloto_color5,brown); }
            .poloto6stroke{stroke:  var(--poloto_color6,lime); }
            .poloto7stroke{stroke:  var(--poloto_color7,chocolate); }
            .poloto0fill{fill:var(--poloto_color0,blue);}
            .poloto1fill{fill:var(--poloto_color1,red);}
            .poloto2fill{fill:var(--poloto_color2,green);}
            .poloto3fill{fill:var(--poloto_color3,gold);}
            .poloto4fill{fill:var(--poloto_color4,aqua);}
            .poloto5fill{fill:var(--poloto_color5,brown);}
            .poloto6fill{fill:var(--poloto_color6,lime);}
            .poloto7fill{fill:var(--poloto_color7,chocolate);}</style></style><line class="poloto_axis_lines" stroke="black" x1="246.93878" x2="246.93878" y1="400" y2="405" /><text class="poloto_text" alignment-baseline="start" text-anchor="middle" x="246.93878" y="430" >0.10</text><line class="poloto_axis_lines" stroke="black" x1="348.97958" x2="348.97958" y1="400" y2="405" /><text class="poloto_text" alignment-baseline="start" text-anchor="middle" x="348.97958" y="430" >0.15</text><line class="poloto_axis_lines" stroke="black" x1="451.0204" x2="451.0204" y1="400" y2="405" /><text class="poloto_text" alignment-baseline="start" text-anchor="middle" x="451.0204" y="430" >0.20</text><line class="poloto_axis_lines" stroke="black" x1="553.06116" x2="553.06116" y1="400" y2="405" /><text class="poloto_text" alignment-baseline="start" text-anchor="middle" x="553.06116" y="430" >0.25</text><line class="poloto_axis_lines" stroke="black" x1="150" x2="144" y1="363.51184" y2="363.51184" /><text class="poloto_text" alignment-baseline="middle" text-anchor="end" x="135" y="363.51184" >0.0001</text><line class="poloto_axis_lines" stroke="black" x1="150" x2="144" y1="298.54694" y2="298.54694" /><text class="poloto_text" alignment-baseline="middle" text-anchor="end" x="135" y="298.54694" >0.0002</text><line class="poloto_axis_lines" stroke="black" x1="150" x2="144" y1="233.58209" y2="233.58209" /><text class="poloto_text" alignment-baseline="middle" text-anchor="end" x="135" y="233.58209" >0.0003</text><line class="poloto_axis_lines" stroke="black" x1="150" x2="144" y1="168.61722" y2="168.61722" /><text class="poloto_text" alignment-baseline="middle" text-anchor="end" x="135" y="168.61722" >0.0004</text><line class="poloto_axis_lines" stroke="black" x1="150" x2="144" y1="103.65234" y2="103.65234" /><text class="poloto_text" alignment-baseline="middle" text-anchor="end" x="135" y="103.65234" >0.0005</text><text class="poloto_text" alignment-baseline="middle" text-anchor="start" font-size="large" x="675" y="100" >Level 0</text><rect class="poloto0fill" x="680" y="76.25" width="50" height="7.5" rx="5" ry="5" /><path class="poloto0fill"  d="M 150 400 L 150 132.28366 L 155.10205 121.73273 L 160.20409 128.90482 L 165.30612 133.62906 L 170.40817 128.79764 L 175.5102 130.82129 L 180.61224 122.85986 L 185.7143 127.26642 L 190.81631 123.94931 L 195.91837 119.39526 L 201.02042 119.690216 L 206.12244 120.35608 L 211.22449 119.87665 L 216.32654 122.31348 L 221.42856 124.64572 L 226.53061 119.48361 L 231.63266 120.38144 L 236.73468 119.43683 L 241.83673 120.5419 L 246.93878 115.97943 L 252.0408 122.8631 L 257.14285 119.81885 L 262.2449 120.691956 L 267.34692 122.76239 L 272.44897 117.21893 L 277.55103 122.771484 L 282.65305 118.107025 L 287.75507 110.62955 L 292.85715 115.48633 L 297.95917 116.13858 L 303.06122 118.24994 L 308.16327 116.68039 L 313.2653 116.54593 L 318.36737 118.90674 L 323.4694 114.72299 L 328.5714 114.22214 L 333.67346 106.52701 L 338.7755 115.50452 L 343.87753 116.173645 L 348.9796 119.94031 L 354.08163 111.92041 L 359.18365 114.30658 L 364.2857 110.13583 L 369.38776 111.31949 L 374.48978 116.639465 L 379.59186 113.135895 L 384.69388 118.62543 L 389.7959 111.83856 L 394.89795 114.04996 L 400 107.92377 L 405.10202 113.80115 L 410.20407 111.13562 L 415.30612 115.25766 L 420.40814 112.306305 L 425.5102 115.39798 L 430.6122 114.99844 L 435.71426 111.39288 L 440.8163 111.323395 L 445.91837 120.161865 L 451.0204 109.25491 L 456.12244 112.739624 L 461.22446 112.3024 L 466.3265 107.04675 L 471.42856 112.127014 L 476.5306 107.176025 L 481.63263 106.43933 L 486.73468 101.2103 L 491.8367 113.28339 L 496.93875 110.52884 L 502.0408 105.95468 L 507.14285 117.93747 L 512.2449 113.94992 L 517.3469 112.94751 L 522.449 110.7926 L 527.551 112.06723 L 532.653 113.51401 L 537.7551 108.90668 L 542.8571 112.39334 L 547.95917 112.59671 L 553.06116 114.253296 L 558.1632 111.62091 L 563.26526 113.097565 L 568.3673 109.27765 L 573.46936 107.60022 L 578.5714 109.683014 L 583.67346 111.57611 L 588.7755 107.96341 L 593.87756 106.831726 L 598.9796 107.686005 L 604.0816 104.9971 L 609.18365 108.4357 L 614.28564 108.11865 L 619.3877 100 L 624.48975 109.67978 L 629.5918 115.55649 L 634.69385 111.891174 L 639.7959 104.01419 L 644.89795 108.184265 L 650 107.63272 L 650 400 z"/><text class="poloto_text" alignment-baseline="middle" text-anchor="start" font-size="large" x="675" y="150" >Level 1</text><rect class="poloto1fill" x="680" y="126.25" width="50" height="7.5" rx="5" ry="5" /><path class="poloto1fill"  d="M 150 400 L 150 172.8841 L 155.10205 160.88834 L 160.20409 165.26178 L 165.30612 168.01044 L 170.40817 162.28833 L 175.5102 165.58336 L 180.61224 157.67776 L 185.7143 163.87152 L 190.81631 163.3661 L 195.91837 156.85986 L 201.02042 159.03879 L 206.12244 158.66005 L 211.22449 157.38153 L 216.32654 158.81856 L 221.42856 160.60379 L 226.53061 154.60817 L 231.63266 155.38582 L 236.73468 157.37828 L 241.83673 157.4335 L 246.93878 150.26204 L 252.0408 157.38023 L 257.14285 155.83667 L 262.2449 158.00323 L 267.34692 156.25114 L 272.44897 154.03064 L 277.55103 155.21495 L 282.65305 151.11502 L 287.75507 151.85303 L 292.85715 151.89981 L 297.95917 151.9875 L 303.06122 154.62898 L 308.16327 152.9204 L 313.2653 152.58842 L 318.36737 154.31714 L 323.4694 149.08421 L 328.5714 149.31679 L 333.67346 152.65793 L 338.7755 145.85286 L 343.87753 148.78928 L 348.9796 152.99315 L 354.08163 149.23819 L 359.18365 145.91524 L 364.2857 144.76405 L 369.38776 145.93082 L 374.48978 150.04701 L 379.59186 148.69833 L 384.69388 150.14899 L 389.7959 143.5765 L 394.89795 147.58029 L 400 145.29092 L 405.10202 146.15689 L 410.20407 147.21777 L 415.30612 149.23105 L 420.40814 145.3572 L 425.5102 146.71365 L 430.6122 146.54474 L 435.71426 143.38354 L 440.8163 144.71338 L 445.91837 148.21825 L 451.0204 144.15663 L 456.12244 147.21388 L 461.22446 145.88145 L 466.3265 144.37425 L 471.42856 145.18958 L 476.5306 145.07654 L 481.63263 143.49854 L 486.73468 137.7706 L 491.8367 144.17027 L 496.93875 143.00546 L 502.0408 142.33112 L 507.14285 150.61479 L 512.2449 145.22401 L 517.3469 142.12714 L 522.449 142.64166 L 527.551 146.40182 L 532.653 146.32971 L 537.7551 142.18365 L 542.8571 146.1673 L 547.95917 146.5181 L 553.06116 149.60393 L 558.1632 145.42995 L 563.26526 147.93369 L 568.3673 144.56267 L 573.46936 144.24693 L 578.5714 143.69147 L 583.67346 142.60138 L 588.7755 143.11264 L 593.87756 142.75143 L 598.9796 143.39328 L 604.0816 141.00974 L 609.18365 139.47006 L 614.28564 143.66483 L 619.3877 136.22183 L 624.48975 146.16405 L 629.5918 146.90788 L 634.69385 145.09991 L 639.7959 136.50638 L 644.89795 138.94775 L 650 140.87332 L 650 400 z"/><text class="poloto_text" alignment-baseline="middle" text-anchor="start" font-size="large" x="675" y="200" >Level 2</text><rect class="poloto2fill" x="680" y="176.25" width="50" height="7.5" rx="5" ry="5" /><path class="poloto2fill"  d="M 150 400 L 150 210.37143 L 155.10205 199.37547 L 160.20409 204.31865 L 165.30612 205.54324 L 170.40817 200.38437 L 175.5102 203.47865 L 180.61224 197.24658 L 185.7143 201.68044 L 190.81631 203.60208 L 195.91837 194.12178 L 201.02042 195.79266 L 206.12244 195.17874 L 211.22449 194.1653 L 216.32654 197.46681 L 221.42856 195.7277 L 226.53061 192.15334 L 231.63266 191.71222 L 236.73468 193.39221 L 241.83673 192.7588 L 246.93878 187.81563 L 252.0408 192.34042 L 257.14285 189.30072 L 262.2449 190.88457 L 267.34692 192.56522 L 272.44897 190.11668 L 277.55103 190.22581 L 282.65305 187.52199 L 287.75507 186.48709 L 292.85715 187.33098 L 297.95917 186.76904 L 303.06122 189.532 L 308.16327 188.4107 L 313.2653 187.1231 L 318.36737 189.5307 L 323.4694 185.03319 L 328.5714 184.99614 L 333.67346 185.83029 L 338.7755 184.5245 L 343.87753 182.08638 L 348.9796 184.25749 L 354.08163 184.93118 L 359.18365 180.74356 L 364.2857 179.97827 L 369.38776 182.78409 L 374.48978 186.43901 L 379.59186 183.82613 L 384.69388 183.1713 L 389.7959 180.4473 L 394.89795 181.2886 L 400 182.89583 L 405.10202 180.76953 L 410.20407 180.43497 L 415.30612 182.47552 L 420.40814 183.38503 L 425.5102 181.48221 L 430.6122 179.62616 L 435.71426 177.40565 L 440.8163 179.89056 L 445.91837 181.35812 L 451.0204 180.95923 L 456.12244 181.55692 L 461.22446 179.41698 L 466.3265 178.71469 L 471.42856 177.84027 L 476.5306 179.6333 L 481.63263 178.13068 L 486.73468 171.13199 L 491.8367 178.28593 L 496.93875 178.88556 L 502.0408 177.77011 L 507.14285 183.17259 L 512.2449 178.47952 L 517.3469 176.81253 L 522.449 177.58171 L 527.551 179.51831 L 532.653 182.38976 L 537.7551 178.66467 L 542.8571 181.3198 L 547.95917 182.15395 L 553.06116 180.43042 L 558.1632 176.80992 L 563.26526 181.23273 L 568.3673 175.15138 L 573.46936 181.2756 L 578.5714 176.86646 L 583.67346 175.4801 L 588.7755 178.76537 L 593.87756 176.6865 L 598.9796 178.68222 L 604.0816 175.04874 L 609.18365 174.36595 L 614.28564 178.21317 L 619.3877 171.92717 L 624.48975 181.63292 L 629.5918 177.8877 L 634.69385 176.29475 L 639.7959 171.79594 L 644.89795 175.05003 L 650 177.52779 L 650 400 z"/><text class="poloto_text" alignment-baseline="middle" text-anchor="start" font-size="large" x="675" y="250" >Level 3</text><rect class="poloto3fill" x="680" y="226.25" width="50" height="7.5" rx="5" ry="5" /><path class="poloto3fill"  d="M 150 400 L 150 256.03912 L 155.10205 246.52893 L 160.20409 251.18237 L 165.30612 249.37764 L 170.40817 246.6173 L 175.5102 246.91353 L 180.61224 242.26204 L 185.7143 244.86583 L 190.81631 245.21924 L 195.91837 239.0963 L 201.02042 239.93176 L 206.12244 240.22214 L 211.22449 239.55496 L 216.32654 240.41898 L 221.42856 239.98633 L 226.53061 236.56331 L 231.63266 235.82791 L 236.73468 235.97668 L 241.83673 236.08127 L 246.93878 230.65736 L 252.0408 234.53772 L 257.14285 233.13123 L 262.2449 232.99416 L 267.34692 233.99655 L 272.44897 232.66153 L 277.55103 232.98442 L 282.65305 229.56271 L 287.75507 229.37822 L 292.85715 231.03287 L 297.95917 230.05124 L 303.06122 229.78099 L 308.16327 230.38841 L 313.2653 226.56328 L 318.36737 230.81068 L 323.4694 227.19539 L 328.5714 229.63222 L 333.67346 227.28438 L 338.7755 227.89766 L 343.87753 224.65462 L 348.9796 223.75354 L 354.08163 226.29173 L 359.18365 220.62094 L 364.2857 222.02809 L 369.38776 223.43456 L 374.48978 227.23112 L 379.59186 225.49785 L 384.69388 224.70918 L 389.7959 221.18484 L 394.89795 223.24358 L 400 224.08878 L 405.10202 221.68767 L 410.20407 221.33424 L 415.30612 222.17296 L 420.40814 223.47614 L 425.5102 220.98734 L 430.6122 218.7389 L 435.71426 218.5739 L 440.8163 219.7777 L 445.91837 221.85138 L 451.0204 221.40051 L 456.12244 222.75699 L 461.22446 218.35756 L 466.3265 220.47672 L 471.42856 217.5442 L 476.5306 216.9946 L 481.63263 218.4914 L 486.73468 211.54666 L 491.8367 218.81816 L 496.93875 218.112 L 502.0408 217.97427 L 507.14285 223.86009 L 512.2449 216 L 517.3469 215.82913 L 522.449 217.6228 L 527.551 217.29993 L 532.653 221.14197 L 537.7551 218.22374 L 542.8571 218.3894 L 547.95917 222.21973 L 553.06116 219.56332 L 558.1632 216.92639 L 563.26526 220.37993 L 568.3673 216.41252 L 573.46936 219.79588 L 578.5714 216.05 L 583.67346 214.90143 L 588.7755 217.27849 L 593.87756 217.76118 L 598.9796 217.43506 L 604.0816 217.20769 L 609.18365 214.29076 L 614.28564 217.96907 L 619.3877 211.38489 L 624.48975 219.7751 L 629.5918 218.01129 L 634.69385 216.08574 L 639.7959 213.92305 L 644.89795 214.854 L 650 216.27284 L 650 400 z"/><text class="poloto_text" alignment-baseline="middle" text-anchor="start" font-size="large" x="675" y="300" >Level 4</text><rect class="poloto4fill" x="680" y="276.25" width="50" height="7.5" rx="5" ry="5" /><path class="poloto4fill"  d="M 150 400 L 150 302.28046 L 155.10205 295.02457 L 160.20409 297.75244 L 165.30612 295.3364 L 170.40817 294.68677 L 175.5102 292.30643 L 180.61224 289.0101 L 185.7143 290.85318 L 190.81631 289.98914 L 195.91837 286.75 L 201.02042 284.87054 L 206.12244 287.70886 L 211.22449 285.55267 L 216.32654 285.5663 L 221.42856 285.7963 L 226.53061 283.0385 L 231.63266 281.45404 L 236.73468 282.8443 L 241.83673 281.46313 L 246.93878 278.83594 L 252.0408 279.44794 L 257.14285 279.78442 L 262.2449 277.27292 L 267.34692 277.7686 L 272.44897 277.3671 L 277.55103 278.06808 L 282.65305 275.14465 L 287.75507 276.0022 L 292.85715 274.29492 L 297.95917 275.51367 L 303.06122 274.69055 L 308.16327 275.6189 L 313.2653 271.4079 L 318.36737 274.67627 L 323.4694 271.5794 L 328.5714 274.32285 L 333.67346 272.01334 L 338.7755 272.25113 L 343.87753 269.86365 L 348.9796 268.6261 L 354.08163 270.89725 L 359.18365 269.64343 L 364.2857 266.7278 L 369.38776 268.8736 L 374.48978 271.51636 L 379.59186 270.2541 L 384.69388 269.33942 L 389.7959 266.17432 L 394.89795 268.53903 L 400 267.20337 L 405.10202 265.74554 L 410.20407 266.31723 L 415.30612 266.27563 L 420.40814 268.05505 L 425.5102 266.8636 L 430.6122 263.336 L 435.71426 262.46545 L 440.8163 264.41895 L 445.91837 265.5565 L 451.0204 265.16608 L 456.12244 263.19632 L 461.22446 263.59976 L 466.3265 266.1139 L 471.42856 262.70193 L 476.5306 259.64795 L 481.63263 262.2842 L 486.73468 255.21214 L 491.8367 262.89423 L 496.93875 263.14697 L 502.0408 262.381 L 507.14285 265.87744 L 512.2449 262.81757 L 517.3469 260.88354 L 522.449 261.14734 L 527.551 260.68024 L 532.653 263.91156 L 537.7551 262.41412 L 542.8571 261.68134 L 547.95917 264.47937 L 553.06116 261.9581 L 558.1632 261.32794 L 563.26526 265.5182 L 568.3673 260.72635 L 573.46936 261.98343 L 578.5714 258.24988 L 583.67346 259.8617 L 588.7755 258.71826 L 593.87756 260.31903 L 598.9796 263.52893 L 604.0816 261.6651 L 609.18365 260.24042 L 614.28564 261.21747 L 619.3877 255.41418 L 624.48975 261.97693 L 629.5918 261.48517 L 634.69385 260.8543 L 639.7959 257.4794 L 644.89795 259.74994 L 650 260.67114 L 650 400 z"/><text class="poloto_text" alignment-baseline="middle" text-anchor="start" font-size="large" x="675" y="350" >Level 5</text><rect class="poloto5fill" x="680" y="326.25" width="50" height="7.5" rx="5" ry="5" /><path class="poloto5fill"  d="M 150 400 L 150 357.76437 L 155.10205 352.6861 L 160.20409 354.00616 L 165.30612 351.52127 L 170.40817 351.20358 L 175.5102 349.14874 L 180.61224 347.64612 L 185.7143 346.33902 L 190.81631 345.8128 L 195.91837 343.09143 L 201.02042 343.5663 L 206.12244 343.2298 L 211.22449 342.17996 L 216.32654 341.68622 L 221.42856 339.5086 L 226.53061 339.6119 L 231.63266 339.13895 L 236.73468 339.7048 L 241.83673 339.09088 L 246.93878 335.5386 L 252.0408 336.3773 L 257.14285 334.10547 L 262.2449 332.72888 L 267.34692 335.2716 L 272.44897 332.5827 L 277.55103 332.56384 L 282.65305 331.96228 L 287.75507 332.2072 L 292.85715 330.90012 L 297.95917 329.4085 L 303.06122 330.9495 L 308.16327 330.94104 L 313.2653 327.64862 L 318.36737 328.47433 L 323.4694 326.72287 L 328.5714 329.9016 L 333.67346 328.2229 L 338.7755 328.2411 L 343.87753 325.94913 L 348.9796 325.63925 L 354.08163 326.11154 L 359.18365 325.4099 L 364.2857 323.33105 L 369.38776 325.22412 L 374.48978 326.05307 L 379.59186 324.52252 L 384.69388 324.63098 L 389.7959 321.1963 L 394.89795 323.67535 L 400 321.8583 L 405.10202 322.2799 L 410.20407 320.35565 L 415.30612 322.18832 L 420.40814 321.42432 L 425.5102 321.69653 L 430.6122 320.06268 L 435.71426 319.31686 L 440.8163 319.9938 L 445.91837 320.88513 L 451.0204 319.52734 L 456.12244 317.66415 L 461.22446 319.51306 L 466.3265 320.38425 L 471.42856 317.64337 L 476.5306 316.4935 L 481.63263 317.61737 L 486.73468 318.05527 L 491.8367 318.26315 L 496.93875 318.1397 L 502.0408 317.08728 L 507.14285 319.05768 L 512.2449 317.49915 L 517.3469 315.762 L 522.449 315.38068 L 527.551 315.27734 L 532.653 318.61786 L 537.7551 315.88153 L 542.8571 314.49713 L 547.95917 317.76422 L 553.06116 316.4818 L 558.1632 314.92072 L 563.26526 318.43204 L 568.3673 315.24423 L 573.46936 314.9467 L 578.5714 311.8732 L 583.67346 314.97916 L 588.7755 311.5711 L 593.87756 313.8988 L 598.9796 316.37524 L 604.0816 315.18445 L 609.18365 314.7674 L 614.28564 314.42178 L 619.3877 309.70078 L 624.48975 315.83737 L 629.5918 314.04498 L 634.69385 314.757 L 639.7959 313.16144 L 644.89795 312.51895 L 650 312.43643 L 650 400 z"/><text class="poloto_text" alignment-baseline="middle" text-anchor="start" font-size="large" x="675" y="400" >Level 6</text><rect class="poloto6fill" x="680" y="376.25" width="50" height="7.5" rx="5" ry="5" /><path class="poloto6fill"  d="M 150 400 L 150 400 L 155.10205 397.81784 L 160.20409 398.5987 L 165.30612 397.17078 L 170.40817 397.27667 L 175.5102 396.1268 L 180.61224 395.7877 L 185.7143 395.17245 L 190.81631 394.76837 L 195.91837 393.56784 L 201.02042 393.48532 L 206.12244 392.07104 L 211.22449 392.94678 L 216.32654 392.25293 L 221.42856 391.43048 L 226.53061 390.50214 L 231.63266 390.52164 L 236.73468 391.25052 L 241.83673 391.43307 L 246.93878 389.24573 L 252.0408 387.41174 L 257.14285 389.069 L 262.2449 387.65018 L 267.34692 387.9464 L 272.44897 387.6794 L 277.55103 386.69974 L 282.65305 387.0369 L 287.75507 386.4522 L 292.85715 384.67285 L 297.95917 386.75952 L 303.06122 386.28983 L 308.16327 385.70447 L 313.2653 383.98355 L 318.36737 385.50894 L 323.4694 384.04266 L 328.5714 383.75098 L 333.67346 383.26636 L 338.7755 384.26422 L 343.87753 382.32047 L 348.9796 381.85205 L 354.08163 382.5355 L 359.18365 384.14206 L 364.2857 380.60083 L 369.38776 381.22125 L 374.48978 381.73837 L 379.59186 381.3752 L 384.69388 381.15305 L 389.7959 379.1807 L 394.89795 380.22144 L 400 379.40158 L 405.10202 379.89273 L 410.20407 379.2801 L 415.30612 379.68808 L 420.40814 378.902 L 425.5102 379.90442 L 430.6122 379.07675 L 435.71426 379.15146 L 440.8163 377.38574 L 445.91837 378.4882 L 451.0204 378.12372 L 456.12244 379.05273 L 461.22446 377.53644 L 466.3265 377.92493 L 471.42856 377.2246 L 476.5306 375.3088 L 481.63263 377.3656 L 486.73468 377.2558 L 491.8367 378.08994 L 496.93875 377.17395 L 502.0408 376.79843 L 507.14285 377.10443 L 512.2449 375.63428 L 517.3469 376.84198 L 522.449 374.7696 L 527.551 375.1964 L 532.653 375.34842 L 537.7551 375.479 L 542.8571 375.13275 L 547.95917 374.97552 L 553.06116 374.88135 L 558.1632 374.84753 L 563.26526 376.01303 L 568.3673 375.25552 L 573.46936 373.78146 L 578.5714 371.56488 L 583.67346 373.87177 L 588.7755 370.92303 L 593.87756 373.73795 L 598.9796 374.55197 L 604.0816 374.60654 L 609.18365 373.9517 L 614.28564 375.09247 L 619.3877 372.55884 L 624.48975 373.78992 L 629.5918 373.31113 L 634.69385 374.13617 L 639.7959 373.21304 L 644.89795 374.2252 L 650 372.30612 L 650 400 z"/><text class="poloto_text" alignment-baseline="start" text-anchor="middle" font-size="x-large" x="400" y="37.5" >Bench of rebal levels with abspiral(5000,x)</text><text class="poloto_text" alignment-baseline="start" text-anchor="middle" font-size="x-large" x="400" y="481.25" >Spiral Grow</text><text class="poloto_text" alignment-baseline="start" text-anchor="middle" font-size="x-large" transform="rotate(-90,37.5,250)" x="37.5" y="250" >Time taken in Seconds</text><path stroke="black" fill="none" class="poloto_axis_lines"  d="M 150 100 L 150 400 L 650 400 "/></svg>