<svg class="poloto" width="800" height="500" viewBox="0 0 800 500" xmlns="http://www.w3.org/2000/svg" ><style><style>.poloto {
            font-family: "Arial";
            stroke-width:2;
            }
            .poloto_text{fill: var(--poloto_fg_color,black);  }
            .poloto_axis_lines{stroke: var(--poloto_fg_color,black);stoke-width:3;fill:none}
            .poloto_background{fill: var(--poloto_bg_color,aliceblue); }
            .poloto0stroke{stroke:  var(--poloto_color0,blue); }
            .poloto1stroke{stroke:  var(--poloto_color1,red); }
            .poloto2stroke{stroke:  var(--poloto_color2,green); }
            .poloto3stroke{stroke:  var(--poloto_color3,gold); }
            .poloto4stroke{stroke:  var(--poloto_color4,aqua); }
            .poloto5stroke{stroke:  var(--poloto_color5,brown); }
            .poloto6stroke{stroke:  var(--poloto_color6,lime); }
            .poloto7stroke{stroke:  var(--poloto_color7,chocolate); }
            .poloto0fill{fill:var(--poloto_color0,blue);}
            .poloto1fill{fill:var(--poloto_color1,red);}
            .poloto2fill{fill:var(--poloto_color2,green);}
            .poloto3fill{fill:var(--poloto_color3,gold);}
            .poloto4fill{fill:var(--poloto_color4,aqua);}
            .poloto5fill{fill:var(--poloto_color5,brown);}
            .poloto6fill{fill:var(--poloto_color6,lime);}
            .poloto7fill{fill:var(--poloto_color7,chocolate);}</style></style><rect class="poloto_background" fill="white" x="0" y="0" width="800" height="500" /><line class="poloto_axis_lines" stroke="black" x1="246.9387755102041" x2="246.9387755102041" y1="400" y2="405" /><text class="poloto_text" alignment-baseline="start" text-anchor="middle" x="246.9387755102041" y="430" >0.10</text><line class="poloto_axis_lines" stroke="black" x1="348.9795918367347" x2="348.9795918367347" y1="400" y2="405" /><text class="poloto_text" alignment-baseline="start" text-anchor="middle" x="348.9795918367347" y="430" >0.15</text><line class="poloto_axis_lines" stroke="black" x1="451.02040816326536" x2="451.02040816326536" y1="400" y2="405" /><text class="poloto_text" alignment-baseline="start" text-anchor="middle" x="451.02040816326536" y="430" >0.20</text><line class="poloto_axis_lines" stroke="black" x1="553.0612244897959" x2="553.0612244897959" y1="400" y2="405" /><text class="poloto_text" alignment-baseline="start" text-anchor="middle" x="553.0612244897959" y="430" >0.25</text><line class="poloto_axis_lines" stroke="black" x1="150" x2="144" y1="367.94728173221256" y2="367.94728173221256" /><text class="poloto_text" alignment-baseline="middle" text-anchor="end" x="135" y="367.94728173221256" >0.0002</text><line class="poloto_axis_lines" stroke="black" x1="150" x2="144" y1="324.99844310459974" y2="324.99844310459974" /><text class="poloto_text" alignment-baseline="middle" text-anchor="end" x="135" y="324.99844310459974" >0.0004</text><line class="poloto_axis_lines" stroke="black" x1="150" x2="144" y1="282.04960447698693" y2="282.04960447698693" /><text class="poloto_text" alignment-baseline="middle" text-anchor="end" x="135" y="282.04960447698693" >0.0006</text><line class="poloto_axis_lines" stroke="black" x1="150" x2="144" y1="239.1007658493741" y2="239.1007658493741" /><text class="poloto_text" alignment-baseline="middle" text-anchor="end" x="135" y="239.1007658493741" >0.0008</text><line class="poloto_axis_lines" stroke="black" x1="150" x2="144" y1="196.1519272217613" y2="196.1519272217613" /><text class="poloto_text" alignment-baseline="middle" text-anchor="end" x="135" y="196.1519272217613" >0.0010</text><line class="poloto_axis_lines" stroke="black" x1="150" x2="144" y1="153.20308859414848" y2="153.20308859414848" /><text class="poloto_text" alignment-baseline="middle" text-anchor="end" x="135" y="153.20308859414848" >0.0012</text><line class="poloto_axis_lines" stroke="black" x1="150" x2="144" y1="110.25424996653567" y2="110.25424996653567" /><text class="poloto_text" alignment-baseline="middle" text-anchor="end" x="135" y="110.25424996653567" >0.0014</text><text class="poloto_text" alignment-baseline="middle" text-anchor="start" font-size="large" x="675" y="100" >Level 0</text><rect class="poloto0fill" x="680" y="76.25" width="50" height="7.5" rx="5" ry="5" /><path class="poloto0fill"  d="M 150 400 L 150 100 L 155.1020408163265 133.78570390641164 L 160.20408163265304 230.14378555358547 L 165.30612244897958 269.429302990456 L 170.40816326530611 294.4216616762502 L 175.51020408163265 301.65768200823044 L 180.6122448979592 294.81442880549974 L 185.71428571428572 302.22031179425215 L 190.81632653061226 301.30636050825655 L 195.9183673469388 299.9485329750446 L 201.0204081632653 296.7348861247334 L 206.12244897959184 299.4473200282603 L 211.22448979591837 281.18933923927585 L 216.32653061224488 291.86577628952097 L 221.4285714285714 302.53426780462 L 226.53061224489795 300.3279859643195 L 231.63265306122446 300.0728698628715 L 236.73469387755102 301.1414369679265 L 241.83673469387753 300.9296991934924 L 246.9387755102041 299.9685041850064 L 252.0408163265306 301.8898204810127 L 257.14285714285717 301.173219108511 L 262.2448979591837 301.71974308004735 L 267.3469387755102 301.593258750289 L 272.44897959183675 300.24165879867803 L 277.55102040816325 301.97034955343946 L 282.65306122448976 301.00786607979467 L 287.7551020408163 298.58769902312866 L 292.85714285714283 299.5817498931648 L 297.9591836734694 297.6056738279083 L 303.0612244897959 298.5245642303461 L 308.1632653061224 287.3254398140029 L 313.265306122449 289.4737407221561 L 318.36734693877554 300.6213265321461 L 323.46938775510205 299.429711004423 L 328.57142857142856 299.19714304325447 L 333.6734693877551 298.75519949377633 L 338.7755102040817 299.36679095583355 L 343.8775510204082 287.2721832541047 L 348.9795918367347 294.84964685317436 L 354.08163265306126 294.61858210135784 L 359.1836734693877 300.7619839786516 L 364.2857142857143 297.76114862374027 L 369.38775510204084 294.0548785943704 L 374.48979591836735 295.41227663919614 L 379.59183673469386 285.38050165675145 L 384.6938775510204 299.81066720304995 L 389.79591836734687 298.437378087932 L 394.89795918367344 299.28475867405484 L 400 296.98592208651183 L 405.1020408163265 256.78323220074856 L 410.2040816326531 294.8651084350803 L 415.3061224489796 291.3439479001955 L 420.40816326530614 291.43113404260953 L 425.51020408163265 293.04429242146267 L 430.6122448979592 300.2511075431761 L 435.7142857142857 298.6315068385288 L 440.8163265306123 298.6276414430523 L 445.9183673469388 300.97372175308567 L 451.02040816326536 297.6567829458752 L 456.12244897959187 298.4899904152508 L 461.22448979591843 298.96113917499576 L 466.32653061224494 296.1181408020409 L 471.4285714285715 298.53959632386574 L 476.530612244898 297.0758999034367 L 481.6326530612246 295.7706846975435 L 486.7346938775511 295.39273491762054 L 491.83673469387764 298.6059522795454 L 496.93877551020415 279.8667297537385 L 502.0408163265307 291.3922653436515 L 507.1428571428571 300.84616370236165 L 512.2448979591836 298.47646153108315 L 517.3469387755101 299.5514709619323 L 522.4489795918367 265.40671476459386 L 527.5510204081633 297.6846996909831 L 532.6530612244899 298.19321394033403 L 537.7551020408164 297.6977990867645 L 542.8571428571429 298.75970912183226 L 547.9591836734694 297.57453591990327 L 553.0612244897959 299.1514025301161 L 558.1632653061224 286.1649621942848 L 563.265306122449 269.65564337002354 L 568.3673469387755 282.475871700366 L 573.4693877551022 293.98293928966916 L 578.5714285714287 297.3761122854437 L 583.6734693877552 296.39193964829195 L 588.7755102040817 298.3164771071953 L 593.8775510204082 296.8188511042504 L 598.9795918367347 297.97438960752635 L 604.0816326530613 296.3294490880888 L 609.1836734693878 298.18140300971146 L 614.2857142857144 297.12915646333494 L 619.387755102041 295.69015562511674 L 624.4897959183675 296.65628975004495 L 629.591836734694 299.9075168341552 L 634.6938775510205 298.2477589653911 L 639.795918367347 295.1236604436185 L 644.8979591836735 295.1891574225257 L 650 294.82581024773606 L 650 400 z"/><text class="poloto_text" alignment-baseline="middle" text-anchor="start" font-size="large" x="675" y="150" >Level 1</text><rect class="poloto1fill" x="680" y="126.25" width="50" height="7.5" rx="5" ry="5" /><path class="poloto1fill"  d="M 150 400 L 150 145.4211885232113 L 155.1020408163265 171.07989844031292 L 160.20408163265304 253.5687263736649 L 165.30612244897958 286.795236401145 L 170.40816326530611 307.89728928405003 L 175.51020408163265 315.7446863338943 L 180.6122448979592 309.57186450214067 L 185.71428571428572 316.38827468072907 L 190.81632653061226 317.5365118814383 L 195.9183673469388 314.3559356368704 L 201.0204081632653 312.9826465217525 L 206.12244897959184 314.01148595107696 L 211.22448979591837 301.4027806509755 L 216.32653061224488 307.3883455463128 L 221.4285714285714 315.69357721592746 L 226.53061224489795 313.4716190495279 L 231.63265306122446 313.5152121207349 L 236.73469387755102 315.1805533385206 L 241.83673469387753 314.4929424320925 L 246.9387755102041 312.76339270055854 L 252.0408163265306 314.6823468104403 L 257.14285714285717 314.4304518718893 L 262.2448979591837 315.3046754821544 L 267.3469387755102 314.1405472111529 L 272.44897959183675 313.8865048306706 L 277.55102040816325 313.86417143458425 L 282.65306122448976 313.19545801715236 L 287.7551020408163 313.6352541246991 L 292.85714285714283 312.92380661283266 L 297.9591836734694 311.3883856318955 L 303.0612244897959 312.3925294790091 L 308.1632653061224 303.1995453149617 L 313.265306122449 305.5698917188197 L 318.36734693877554 313.64706505532166 L 323.46938775510205 312.1281793772562 L 328.57142857142856 312.123240260814 L 333.6734693877551 312.16490063428273 L 338.7755102040817 310.96319212948214 L 343.8775510204082 303.9350441764596 L 348.9795918367347 309.64509227200074 L 354.08163265306126 309.63456980653694 L 359.1836734693877 312.4434238527828 L 364.2857142857143 310.6470886771829 L 369.38775510204084 308.13157519876364 L 374.48979591836735 308.4274926969079 L 379.59183673469386 300.68102541783855 L 384.6938775510204 312.0802914221864 L 389.79591836734687 310.1362122417075 L 394.89795918367344 311.6381331285151 L 400 310.74930691311664 L 405.1020408163265 281.7944883755389 L 410.2040816326531 308.81317326778384 L 415.3061224489796 307.130437770354 L 420.40816326530614 305.55550385787944 L 425.51020408163265 306.7786867819938 L 430.6122448979592 312.1685512855661 L 435.7142857142857 310.4121585298899 L 440.8163265306123 310.88416626640736 L 445.9183673469388 311.24128585959596 L 451.02040816326536 310.47293113654797 L 456.12244897959187 311.1336990188338 L 461.22448979591843 311.15388497298875 L 466.32653061224494 310.91465994183295 L 471.4285714285715 310.68789007387915 L 476.530612244898 310.9174516163438 L 481.6326530612246 309.41918138081945 L 486.7346938775511 310.1523180561928 L 491.83673469387764 310.18066428968706 L 496.93877551020415 300.2025753555269 L 502.0408163265307 306.77976050295956 L 507.1428571428571 312.94678424149845 L 512.2448979591836 310.06062228572284 L 517.3469387755101 310.4151649485938 L 522.4489795918367 289.5783211442143 L 527.5510204081633 310.6243257927103 L 532.6530612244899 310.7568229598765 L 537.7551020408164 309.97773102717156 L 542.8571428571429 311.29797832658437 L 547.9591836734694 310.2553952688991 L 553.0612244897959 312.1346217030503 L 558.1632653061224 304.2505033961794 L 563.265306122449 293.4879539244859 L 568.3673469387755 300.0608441880558 L 573.4693877551022 308.8879042469959 L 578.5714285714287 310.0565421460533 L 583.6734693877552 308.40064967276567 L 588.7755102040817 311.232051859291 L 593.8775510204082 310.01209009807366 L 598.9795918367347 310.38810718025843 L 604.0816326530613 309.7150988789637 L 609.1836734693878 309.7984196259013 L 614.2857142857144 310.1070070314407 L 619.387755102041 309.0418758334759 L 624.4897959183675 310.46412662462933 L 629.591836734694 311.5545976373844 L 634.6938775510205 310.3659885283652 L 639.795918367347 307.0810466059322 L 644.8979591836735 306.693433337318 L 650 307.4209866636698 L 650 400 z"/><text class="poloto_text" alignment-baseline="middle" text-anchor="start" font-size="large" x="675" y="200" >Level 2</text><rect class="poloto2fill" x="680" y="176.25" width="50" height="7.5" rx="5" ry="5" /><path class="poloto2fill"  d="M 150 400 L 150 190.48010359259877 L 155.1020408163265 207.4058114073547 L 160.20408163265304 278.14168965026045 L 165.30612244897958 305.6467701399631 L 170.40816326530611 323.43918551822424 L 175.51020408163265 330.613789010967 L 180.6122448979592 325.63150898597075 L 185.71428571428572 330.6477185934828 L 190.81632653061226 332.25701157685944 L 195.9183673469388 328.43263224126366 L 201.0204081632653 327.9071532006548 L 206.12244897959184 327.88245761844394 L 211.22448979591837 318.9761569522359 L 216.32653061224488 323.3608038877289 L 221.4285714285714 328.95660807252057 L 226.53061224489795 327.70744110103647 L 231.63265306122446 327.2502507138455 L 236.73469387755102 328.56126401295336 L 241.83673469387753 327.8096593369701 L 246.9387755102041 326.7410922319151 L 252.0408163265306 328.1077242770458 L 257.14285714285717 327.03765396263884 L 262.2448979591837 327.79956635989265 L 267.3469387755102 328.0089419482023 L 272.44897959183675 327.4231197893216 L 277.55102040816325 327.1808883394619 L 282.65306122448976 326.72434218485034 L 287.7551020408163 326.41103040706196 L 292.85714285714283 326.35455268426665 L 297.9591836734694 324.9683789175604 L 303.0612244897959 326.0775326751185 L 308.1632653061224 318.4820305638252 L 313.265306122449 321.67055234353916 L 318.36734693877554 326.91997414479914 L 323.46938775510205 326.27123193732905 L 328.57142857142856 325.7925671308243 L 333.6734693877551 325.2232802748153 L 338.7755102040817 325.36286400035505 L 343.8775510204082 319.65560757932474 L 348.9795918367347 323.0135625274246 L 354.08163265306126 323.5791987321503 L 359.1836734693877 325.3723127448531 L 364.2857142857143 323.8710360906249 L 369.38775510204084 322.8791326625202 L 374.48979591836735 322.89760066313005 L 379.59183673469386 319.7148769766308 L 384.6938775510204 324.73881737509583 L 389.79591836734687 324.03681860772747 L 394.89795918367344 324.0853507953767 L 400 324.720349374486 L 405.1020408163265 303.8817876165614 L 410.2040816326531 323.2671754195207 L 415.3061224489796 321.7592416953052 L 420.40816326530614 321.3954650321293 L 425.51020408163265 320.8184473851673 L 430.6122448979592 324.63810234851405 L 435.7142857142857 323.1477776481359 L 440.8163265306123 324.0518507012472 L 445.9183673469388 323.93438562760065 L 451.02040816326536 324.227296707041 L 456.12244897959187 324.0063249323019 L 461.22448979591843 323.84354883390324 L 466.32653061224494 323.9099047895829 L 471.4285714285715 322.85078642902596 L 476.530612244898 323.8545007877533 L 481.6326530612246 322.74405856503637 L 486.7346938775511 323.23882918602646 L 491.83673469387764 323.021937550957 L 496.93877551020415 317.24510401134995 L 502.0408163265307 321.44872159202754 L 507.1428571428571 325.0763952467089 L 512.2448979591836 322.7713310775649 L 517.3469387755101 323.4043969589359 L 522.4489795918367 307.33036461416555 L 527.5510204081633 323.43231370404385 L 532.6530612244899 324.4633005752997 L 537.7551020408164 323.69451636386543 L 542.8571428571429 324.45041592371143 L 547.9591836734694 323.7447665050597 L 553.0612244897959 323.8259398100659 L 558.1632653061224 318.0398722701539 L 563.265306122449 311.4987641471685 L 568.3673469387755 315.35406664657614 L 573.4693877551022 323.74176008635584 L 578.5714285714287 322.62938516590066 L 583.6734693877552 321.58701685240845 L 588.7755102040817 324.70832369967025 L 593.8775510204082 322.7045456334989 L 598.9795918367347 323.56910575507277 L 604.0816326530613 322.5778465595475 L 609.1836734693878 323.1286654149466 L 614.2857142857144 323.0906556927612 L 619.387755102041 322.2935252478327 L 624.4897959183675 324.0649500970286 L 629.591836734694 323.1207198798005 L 634.6938775510205 322.1056240788369 L 639.795918367347 320.6191647739352 L 644.8979591836735 320.320240857087 L 650 321.5533020140858 L 650 400 z"/><text class="poloto_text" alignment-baseline="middle" text-anchor="start" font-size="large" x="675" y="250" >Level 3</text><rect class="poloto3fill" x="680" y="226.25" width="50" height="7.5" rx="5" ry="5" /><path class="poloto3fill"  d="M 150 400 L 150 238.8716337952958 L 155.1020408163265 251.5557143071887 L 160.20408163265304 306.79801375937626 L 165.30612244897958 327.0511828468065 L 170.40816326530611 341.9033207326213 L 175.51020408163265 346.9306970381765 L 180.6122448979592 343.26243673099214 L 185.71428571428572 346.57400693337416 L 190.81632653061226 347.3784386808694 L 195.9183673469388 344.69585422018866 L 201.0204081632653 344.4860491434928 L 206.12244897959184 344.4340810487534 L 211.22448979591837 337.5558245425412 L 216.32653061224488 342.74662117907445 L 221.4285714285714 345.23486214496523 L 226.53061224489795 344.02026898857633 L 231.63265306122446 343.4503378999879 L 236.73469387755102 343.90817251975824 L 241.83673469387753 343.77288367808126 L 246.9387755102041 342.2546422325952 L 252.0408163265306 343.4565654815889 L 257.14285714285717 343.1292953312465 L 262.2448979591837 342.9985161176254 L 267.3469387755102 343.1694524953633 L 272.44897959183675 342.8816952765583 L 277.55102040816325 342.78677834319126 L 282.65306122448976 341.9074008722909 L 287.7551020408163 341.9359618499783 L 292.85714285714283 342.3416136308161 L 297.9591836734694 341.87583347589964 L 303.0612244897959 341.064529914224 L 308.1632653061224 335.75605345985105 L 313.265306122449 337.59684068343057 L 318.36734693877554 342.09444306451417 L 323.46938775510205 341.54405369750134 L 328.57142857142856 342.035173667208 L 333.6734693877551 340.51693222172196 L 338.7755102040817 341.417569367743 L 343.8775510204082 336.36034361934156 L 348.9795918367347 338.19597698228574 L 354.08163265306126 338.94929961181407 L 359.1836734693877 339.95838257536985 L 364.2857142857143 339.4041278128805 L 369.38775510204084 338.2775797756782 L 374.48979591836735 339.77262884830543 L 379.59183673469386 335.7270629937774 L 384.6938775510204 340.26074239930824 L 389.79591836734687 339.048726173237 L 394.89795918367344 339.46189400083466 L 400 339.81622191951243 L 405.1020408163265 327.9024288284058 L 410.2040816326531 338.47170852627505 L 415.3061224489796 337.6432254291484 L 420.40816326530614 337.42697802665833 L 425.51020408163265 337.211804345134 L 430.6122448979592 338.8694147719667 L 435.7142857142857 338.21637768063385 L 440.8163265306123 338.5475132264528 L 445.9183673469388 338.8457929107215 L 451.02040816326536 339.0272517539232 L 456.12244897959187 340.21629035132867 L 461.22448979591843 338.19103786584355 L 466.32653061224494 339.2701274363624 L 471.4285714285715 337.46369928368495 L 476.530612244898 337.493333982338 L 481.6326530612246 337.72568719931337 L 486.7346938775511 338.57693318091265 L 491.83673469387764 337.7864598059715 L 496.93877551020415 333.76881069655144 L 502.0408163265307 336.8695021012719 L 507.1428571428571 339.8767797819774 L 512.2448979591836 336.82891544876884 L 517.3469387755101 337.7516712466831 L 522.4489795918367 326.2763857979644 L 527.5510204081633 337.5992028695551 L 532.6530612244899 338.8101453746606 L 537.7551020408164 338.2110090758054 L 542.8571428571429 338.13219795692373 L 547.9591836734694 338.59819285603334 L 553.0612244897959 338.29390033435675 L 558.1632653061224 333.6908585544423 L 563.265306122449 328.2286252577825 L 568.3673469387755 332.66652875317374 L 573.4693877551022 338.1199575379149 L 578.5714285714287 337.3737214667601 L 583.6734693877552 336.60364879016703 L 588.7755102040817 338.78158439697324 L 593.8775510204082 337.67801398843676 L 598.9795918367347 337.63012603336693 L 604.0816326530613 338.0654125128578 L 609.1836734693878 337.8143765510794 L 614.2857142857144 337.65847226686117 L 619.387755102041 336.7054375377145 L 624.4897959183675 338.28509582243805 L 629.591836734694 337.7621937121469 L 634.6938775510205 336.6661393503702 L 639.795918367347 336.3835359922005 L 644.8979591836735 334.76157310142867 L 650 336.275519663052 L 650 400 z"/><text class="poloto_text" alignment-baseline="middle" text-anchor="start" font-size="large" x="675" y="300" >Level 4</text><rect class="poloto4fill" x="680" y="276.25" width="50" height="7.5" rx="5" ry="5" /><path class="poloto4fill"  d="M 150 400 L 150 285.33304319006794 L 155.1020408163265 293.10162912103056 L 160.20408163265304 337.32669248846287 L 165.30612244897958 348.9744175242715 L 170.40816326530611 360.5965880010966 L 175.51020408163265 363.27466283372144 L 180.6122448979592 361.0550668534464 L 185.71428571428572 363.0882648740776 L 190.81632653061226 363.438942141472 L 195.9183673469388 361.7426777598745 L 201.0204081632653 361.00181029354815 L 206.12244897959184 361.67009422259383 L 211.22448979591837 355.99483468634105 L 216.32653061224488 359.7653132294592 L 221.4285714285714 361.7066007354273 L 226.53061224489795 360.65693111936844 L 231.63265306122446 359.87247058183505 L 236.73469387755102 360.58477707047405 L 241.83673469387753 359.9227207230294 L 246.9387755102041 359.3049016793712 L 252.0408163265306 359.5069759651141 L 257.14285714285717 359.8121274635633 L 262.2448979591837 358.97698729644935 L 267.3469387755102 358.98364436643664 L 272.44897959183675 358.87369533954995 L 277.55102040816325 359.0085546928407 L 282.65306122448976 358.21743708532 L 287.7551020408163 358.51893793248587 L 292.85714285714283 357.7626088842536 L 297.9591836734694 358.58035477172336 L 303.0612244897959 357.21629965691034 L 308.1632653061224 353.366151018138 L 313.265306122449 353.7930624740965 L 318.36734693877554 357.85430465472353 L 323.46938775510205 357.4727042235172 L 328.57142857142856 357.96790433289357 L 333.6734693877551 356.8808692272287 L 338.7755102040817 357.3483673356903 L 343.8775510204082 354.3166088169671 L 348.9795918367347 355.2593358248432 L 354.08163265306126 355.2239030329754 L 359.1836734693877 356.41916921198185 L 364.2857142857143 355.3886118291123 L 369.38775510204084 354.83586027597494 L 374.48979591836735 356.63691982382386 L 379.59183673469386 353.9816078756717 L 384.6938775510204 356.26605660227443 L 389.79591836734687 355.0875404703327 L 394.89795918367344 355.73585318941656 L 400 355.31989368730814 L 405.1020408163265 347.48538128905216 L 410.2040816326531 354.78754283251885 L 415.3061224489796 354.2777401180091 L 420.40816326530614 353.90064931485864 L 425.51020408163265 354.69670603882145 L 430.6122448979592 354.845309020473 L 435.7142857142857 353.84889596431236 L 440.8163265306123 354.8156743218199 L 445.9183673469388 354.5199715678688 L 451.02040816326536 354.7780940880208 L 456.12244897959187 354.84230260176906 L 461.22448979591843 354.56227617391704 L 466.32653061224494 354.72870292359903 L 471.4285714285715 353.6053760492938 L 476.530612244898 352.74081592771995 L 481.6326530612246 353.53944958200043 L 486.7346938775511 354.62455198992706 L 491.83673469387764 353.8074503350367 L 496.93877551020415 351.52214263166144 L 502.0408163265307 353.341240691734 L 507.1428571428571 354.9569760009048 L 512.2448979591836 353.80809456761614 L 517.3469387755101 353.7803925667013 L 522.4489795918367 345.64416457708637 L 527.5510204081633 353.39127608873514 L 532.6530612244899 354.17723983562047 L 537.7551020408164 354.25454774515015 L 542.8571428571429 353.76536047318166 L 547.9591836734694 354.0400182962053 L 553.0612244897959 353.6244882824831 L 558.1632653061224 350.6940890229211 L 563.265306122449 351.2603694602262 L 568.3673469387755 350.3743349193385 L 573.4693877551022 353.41554218255976 L 578.5714285714287 352.81619113951143 L 583.6734693877552 352.9173356544795 L 588.7755102040817 353.7226263787472 L 593.8775510204082 353.10759900959977 L 598.9795918367347 354.28224974606496 L 604.0816326530613 353.9253448970695 L 609.1836734693878 352.91776514286573 L 614.2857142857144 353.38955813519004 L 619.387755102041 352.593071922841 L 624.4897959183675 353.58347214159375 L 629.591836734694 353.54009381457985 L 634.6938775510205 353.01268207623275 L 639.795918367347 352.08799358058025 L 644.8979591836735 351.1499909449532 L 650 352.5183409436289 L 650 400 z"/><text class="poloto_text" alignment-baseline="middle" text-anchor="start" font-size="large" x="675" y="350" >Level 5</text><rect class="poloto5fill" x="680" y="326.25" width="50" height="7.5" rx="5" ry="5" /><path class="poloto5fill"  d="M 150 400 L 150 344.391561698512 L 155.1020408163265 345.8619151889284 L 160.20408163265304 369.63860699736796 L 165.30612244897958 375.7379863150684 L 170.40816326530611 382.3935530929964 L 175.51020408163265 383.5031363389408 L 180.6122448979592 382.65446728765914 L 185.71428571428572 382.9078654355621 L 190.81632653061226 382.9022820865405 L 195.9183673469388 381.71496144268013 L 201.0204081632653 381.5811758103551 L 206.12244897959184 381.4950633889068 L 211.22448979591837 379.7796867741199 L 216.32653061224488 380.28047023251787 L 221.4285714285714 380.5506184274855 L 226.53061224489795 380.78533383058544 L 231.63265306122446 380.3884865616663 L 236.73469387755102 380.74775359678625 L 241.83673469387753 380.54116968298746 L 246.9387755102041 379.30445787470535 L 252.0408163265306 379.54346816166805 L 257.14285714285717 378.9355273508942 L 262.2448979591837 378.5225742674897 L 267.3469387755102 379.12171056634486 L 272.44897959183675 378.1506373249745 L 277.55102040816325 378.1796277910482 L 282.65306122448976 378.5202120813652 L 287.7551020408163 378.24383630479645 L 292.85714285714283 377.73510731125236 L 297.9591836734694 377.732959869321 L 303.0612244897959 377.64019037788535 L 308.1632653061224 373.97235955908724 L 313.265306122449 374.0286225376894 L 318.36734693877554 376.89567226027566 L 323.46938775510205 376.66288955491405 L 328.57142857142856 377.5923024228156 L 333.6734693877551 376.7863674659684 L 338.7755102040817 377.0142110548879 L 343.8775510204082 375.0834460143836 L 348.9795918367347 375.38344365219746 L 354.08163265306126 374.8094324239394 L 359.1836734693877 376.01114092874 L 364.2857142857143 375.51873249387444 L 369.38775510204084 375.25996574114305 L 374.48979591836735 375.8466468767962 L 379.59183673469386 373.83148736838865 L 384.6938775510204 375.7257458960595 L 389.79591836734687 374.7804419578658 L 394.89795918367344 375.3928923966955 L 400 374.6728551171036 L 405.1020408163265 369.7126937440006 L 410.2040816326531 374.19032491512235 L 415.3061224489796 374.0226097002815 L 420.40816326530614 373.72304155085396 L 425.51020408163265 374.116667656876 L 430.6122448979592 374.43126789982324 L 435.7142857142857 373.8834554631281 L 440.8163265306123 374.35224203674846 L 445.9183673469388 374.0962669585279 L 451.02040816326536 374.19354607801944 L 456.12244897959187 374.0612636550464 L 461.22448979591843 374.2040685434832 L 466.32653061224494 374.297052779112 L 471.4285714285715 373.1271264148958 L 476.530612244898 372.04030605342405 L 481.6326530612246 373.17759130028327 L 486.7346938775511 373.59054438368776 L 491.83673469387764 373.6622689441959 L 496.93877551020415 371.7671514397524 L 502.0408163265307 372.76120230978853 L 507.1428571428571 374.03399114251783 L 512.2448979591836 373.0463825982759 L 517.3469387755101 373.1039340420369 L 522.4489795918367 367.4059116213115 L 527.5510204081633 372.4908393706277 L 532.6530612244899 373.656256106788 L 537.7551020408164 373.04122873764055 L 542.8571428571429 372.4002173211235 L 547.9591836734694 372.9957029686953 L 553.0612244897959 373.02147227187186 L 558.1632653061224 370.6056000990687 L 563.265306122449 370.9552036454974 L 568.3673469387755 370.8383828044303 L 573.4693877551022 372.37466276214 L 578.5714285714287 372.12448577713417 L 583.6734693877552 372.4745188119492 L 588.7755102040817 372.4304962523559 L 593.8775510204082 372.1438127545166 L 598.9795918367347 372.90271873306654 L 604.0816326530613 372.9759465029266 L 609.1836734693878 372.47859895161884 L 614.2857142857144 372.1680788483412 L 619.387755102041 371.8047316735516 L 624.4897959183675 372.89541743049983 L 629.591836734694 372.29756959680344 L 634.6938775510205 372.2644989910602 L 639.795918367347 372.05254647243294 L 644.8979591836735 369.8853480752836 L 650 371.3230604483429 L 650 400 z"/><text class="poloto_text" alignment-baseline="middle" text-anchor="start" font-size="large" x="675" y="400" >Level 6</text><rect class="poloto6fill" x="680" y="376.25" width="50" height="7.5" rx="5" ry="5" /><path class="poloto6fill"  d="M 150 400 L 150 385.13390374163123 L 155.1020408163265 385.01107006315624 L 160.20408163265304 394.62602656671993 L 165.30612244897958 396.74877291588973 L 170.40816326530611 399.49427742515985 L 175.51020408163265 400 L 180.6122448979592 399.80973664487965 L 185.71428571428572 399.76936473656974 L 190.81632653061226 399.6001463123769 L 195.9183673469388 399.1521899254909 L 201.0204081632653 399.11847508716824 L 206.12244897959184 398.5180503231542 L 211.22448979591837 398.2483316165728 L 216.32653061224488 398.15770956706854 L 221.4285714285714 398.5101047880081 L 226.53061224489795 398.3511940850859 L 231.63265306122446 398.3039503625956 L 236.73469387755102 398.4660822284148 L 241.83673469387753 398.4654379958354 L 246.9387755102041 397.71941666887375 L 252.0408163265306 397.1531362315687 L 257.14285714285717 397.8197022070692 L 262.2448979591837 397.318489260285 L 267.3469387755102 397.354351540539 L 272.44897959183675 397.14261376610494 L 277.55102040816325 397.0006678544407 L 282.65306122448976 397.2903577709839 L 287.7551020408163 396.90338873494915 L 292.85714285714283 396.2956626683684 L 297.9591836734694 396.7723947771349 L 303.0612244897959 396.749202404276 L 308.1632653061224 395.90847888814045 L 313.265306122449 394.2188715765302 L 318.36734693877554 396.65450021510213 L 323.46938775510205 396.2544317832859 L 328.57142857142856 396.1051845690549 L 333.6734693877551 395.83718381601864 L 338.7755102040817 396.2550760158653 L 343.8775510204082 395.2283840284722 L 348.9795918367347 395.26617900646454 L 354.08163265306126 395.09330993098837 L 359.1836734693877 396.05235749754297 L 364.2857142857143 395.1854351898446 L 369.38775510204084 394.8072706657285 L 374.48979591836735 395.1841467246858 L 379.59183673469386 394.7037639646359 L 384.6938775510204 395.2477110058546 L 389.79591836734687 394.6530843350553 L 394.89795918367344 394.8966042500739 L 400 394.5439942849412 L 405.1020408163265 393.0214579555923 L 410.2040816326531 394.47269921281935 L 415.3061224489796 394.44650042125653 L 420.40816326530614 394.25494860097734 L 425.51020408163265 394.3762790701004 L 430.6122448979592 394.64277661378475 L 435.7142857142857 394.53132437754607 L 440.8163265306123 393.98522989439596 L 445.9183673469388 394.2414197168097 L 451.02040816326536 394.1918138081948 L 456.12244897959187 394.37048097688563 L 461.22448979591843 394.0294671981824 L 466.32653061224494 394.1709836214604 L 471.4285714285715 393.72238300199496 L 476.530612244898 392.27328918669934 L 481.6326530612246 393.96633240539984 L 486.7346938775511 393.8742071465436 L 491.83673469387764 394.2371248329469 L 496.93877551020415 393.29847796474047 L 502.0408163265307 393.6598924417918 L 507.1428571428571 393.9717010102283 L 512.2448979591836 393.2722791731776 L 517.3469387755101 393.90169440326525 L 522.4489795918367 390.9953464933347 L 527.5510204081633 393.15975321597324 L 532.6530612244899 393.3620422459093 L 537.7551020408164 393.4885265756676 L 542.8571428571429 393.313295314067 L 547.9591836734694 392.95231032540187 L 553.0612244897959 393.1150864238005 L 558.1632653061224 392.4229658893166 L 563.265306122449 392.57865542934167 L 568.3673469387755 392.7178096664951 L 573.4693877551022 392.6692774788459 L 578.5714285714287 392.5833798015907 L 583.6734693877552 392.75753734222565 L 588.7755102040817 392.8258259956436 L 593.8775510204082 392.70664296845194 L 598.9795918367347 393.1041344699505 L 604.0816326530613 393.2368463813098 L 609.1836734693878 392.9102204635468 L 614.2857142857144 393.2458656374216 L 619.387755102041 392.4287639825313 L 624.4897959183675 392.7199571084265 L 629.591836734694 392.697408968147 L 634.6938775510205 392.947800697346 L 639.795918367347 392.6235369657075 L 644.8979591836735 391.1450231959519 L 650 392.15732732240474 L 650 400 z"/><text class="poloto_text" alignment-baseline="start" text-anchor="middle" font-size="x-large" x="400" y="37.5" >Bench of rebal levels with abspiral(5000,x)</text><text class="poloto_text" alignment-baseline="start" text-anchor="middle" font-size="x-large" x="400" y="481.25" >Spiral Grow</text><text class="poloto_text" alignment-baseline="start" text-anchor="middle" font-size="x-large" transform="rotate(-90,37.5,250)" x="37.5" y="250" >Time taken in Seconds</text><path stroke="black" fill="none" class="poloto_axis_lines"  d="M 150 100 L 150 400 L 650 400 "/></svg>