<svg class="poloto" width="800" height="500" viewBox="0 0 800 500" xmlns="http://www.w3.org/2000/svg"><text  class="poloto_text poloto_legend_text" alignment-baseline="middle" text-anchor="start" font-size="large" x="675" y="100" >Level 0</text><rect  class="poloto_linefill poloto_legend_icon poloto0fill poloto0legend" x="680" y="76.25" width="50" height="7.5" rx="5" ry="5" /><path  class="poloto_linefill poloto0fill" d=" M 150 400 L 150 142.58190127229216 L 155.1020408163265 134.81023782804454 L 160.20408163265307 135.27264369059367 L 165.30612244897958 134.4451805681373 L 170.40816326530614 138.2296074958424 L 175.51020408163265 135.8689038817755 L 180.61224489795921 134.33160719838833 L 185.71428571428567 130.81894511972524 L 190.8163265306123 128.52314057408637 L 195.91836734693874 134.15313476021146 L 201.02040816326524 132.52660185773584 L 206.1224489795918 131.7315882694934 L 211.22448979591832 132.18182555671234 L 216.32653061224488 131.32191290004192 L 221.4285714285714 130.3565392571761 L 226.53061224489795 126.85198956206648 L 231.63265306122446 129.56558186071038 L 236.73469387755102 130.85139465393922 L 241.83673469387753 128.2959938345885 L 246.9387755102041 123.28254079852894 L 252.0408163265306 125.37959194710726 L 257.14285714285717 125.51344627573991 L 262.2448979591836 125.22545665959086 L 267.34693877551024 127.49286786279254 L 272.4489795918367 127.40768783548089 L 277.5510204081633 124.81983748191612 L 282.65306122448976 125.7081434810238 L 287.75510204081627 125.72031205635403 L 292.85714285714283 122.97021403171942 L 297.95918367346934 122.93776449750544 L 303.0612244897959 122.04945849839783 L 308.1632653061224 125.31874907045608 L 313.265306122449 123.28254079852894 L 318.36734693877554 118.89374129608848 L 323.46938775510205 120.89344384202485 L 328.57142857142856 124.95369181054883 L 333.67346938775506 122.70656156623085 L 338.77551020408157 123.41639512716159 L 343.8775510204082 120.79609523938291 L 348.9795918367347 116.08280039480269 L 354.0816326530612 116.65877962710078 L 359.1836734693877 123.67599140087344 L 364.28571428571433 121.85070510133721 L 369.3877551020407 119.8672273225078 L 374.48979591836724 122.11841375860251 L 379.59183673469386 111.93331620719027 L 384.6938775510205 121.22199537594139 L 389.79591836734687 120.3377455686105 L 394.8979591836734 125.00236611186978 L 400 123.12029312745909 L 405.1020408163266 116.09496897013292 L 410.204081632653 115.11742675193682 L 415.3061224489795 121.92777274509541 L 420.40816326530614 119.18173091223753 L 425.51020408163265 118.49217831019052 L 430.61224489795916 117.30777031138035 L 435.71428571428567 112.59041927502335 L 440.8163265306122 111.02878544097564 L 445.9183673469387 113.74237773961954 L 451.0204081632653 113.16234231554466 L 456.1224489795918 115.15393247792758 L 461.2244897959183 113.64097294520087 L 466.3265306122448 113.32053379483784 L 471.42857142857144 119.71714822676819 L 476.53061224489795 111.89681048119957 L 481.63265306122446 113.36515190438206 L 486.73469387755097 110.21754708562622 L 491.8367346938776 110.22971566095646 L 496.9387755102041 102.51889509336002 L 502.0408163265306 112.51335163126515 L 507.1428571428571 109.65373642865836 L 512.2448979591837 106.58725544543745 L 517.3469387755102 105.43529698084126 L 522.4489795918366 113.9614120955639 L 527.5510204081631 111.18697692026882 L 532.6530612244898 109.95795081191437 L 537.7551020408164 110.42035667446356 L 542.8571428571428 108.07182163572696 L 547.9591836734693 108.81410473087169 L 553.0612244897959 107.20379659550304 L 558.1632653061225 108.20973215613634 L 563.2653061224489 107.27680804748451 L 568.3673469387754 105.82063519963225 L 573.469387755102 108.24218169035032 L 578.5714285714287 105.73951136409732 L 583.6734693877551 103.78442692770517 L 588.7755102040816 102.84744662727655 L 593.8775510204081 102.1295006827923 L 598.9795918367346 108.86683522396942 L 604.0816326530612 111.7467313854599 L 609.1836734693877 107.70270818404293 L 614.2857142857142 105.46369032327851 L 619.3877551020407 105.42718459728775 L 624.4897959183673 101.2736442178986 L 629.5918367346939 100 L 634.6938775510204 101.96725301172239 L 639.7959183673469 102.70953610686712 L 644.8979591836735 103.289571530942 L 650 101.1316775057125 L 650 400 Z" /><text  class="poloto_text poloto_legend_text" alignment-baseline="middle" text-anchor="start" font-size="large" x="675" y="150" >Level 1</text><rect  class="poloto_linefill poloto_legend_icon poloto1fill poloto1legend" x="680" y="126.25" width="50" height="7.5" rx="5" ry="5" /><path  class="poloto_linefill poloto1fill" d=" M 150 400 L 150 194.2456159327213 L 155.1020408163265 186.96475169346007 L 160.20408163265307 185.73166939332893 L 165.30612244897958 184.7662957504631 L 170.40816326530614 188.2140587606982 L 175.51020408163265 187.71920336393504 L 180.61224489795921 185.4720731196171 L 185.71428571428567 183.3993591216993 L 190.8163265306123 180.9088573707765 L 195.91836734693874 184.79874528467707 L 201.02040816326524 182.40964832817295 L 206.1224489795918 183.5737753680994 L 211.22448979591832 182.65301983477778 L 216.32653061224488 180.8155649599113 L 221.4285714285714 182.47860358837767 L 226.53061224489795 178.7266261948865 L 231.63265306122446 180.13006854964104 L 236.73469387755102 180.32882194670165 L 241.83673469387753 181.14817268560458 L 246.9387755102041 173.94437609010154 L 252.0408163265306 173.9930503914225 L 257.14285714285717 175.3843241708468 L 262.2448979591836 175.09633455469776 L 267.34693877551024 177.36374575789944 L 272.4489795918367 177.0514189910899 L 277.5510204081633 175.0152107191628 L 282.65306122448976 174.08228661051095 L 287.75510204081627 174.09445518584118 L 292.85714285714283 175.092278362921 L 297.95918367346934 171.46198672273226 L 303.0612244897959 170.57368072362462 L 308.1632653061224 174.58931058260436 L 313.265306122449 172.55310231067725 L 318.36734693877554 169.84762239558685 L 323.46938775510205 170.56151214829438 L 328.57142857142856 174.43517529508796 L 333.67346938775506 172.18804505077 L 338.77551020408157 171.2510647503414 L 343.8775510204082 168.6307648625627 L 348.9795918367347 164.3758196887549 L 354.0816326530612 166.1808250294074 L 359.1836734693877 170.17211773772664 L 364.28571428571433 169.16618217709333 L 369.3877551020407 169.00393450602346 L 374.48979591836724 169.55152039588432 L 379.59183673469386 164.63947215424346 L 384.6938775510205 169.6164194643123 L 389.79591836734687 169.92469003934505 L 394.8979591836734 171.4741552980625 L 400 170.61424264139208 L 405.1020408163266 165.11810278389962 L 410.204081632653 164.14056056570354 L 415.3061224489795 168.32655047930666 L 420.40816326530614 165.5805086464488 L 425.51020408163265 164.89095604440178 L 430.61224489795916 165.5805086464488 L 435.71428571428567 160.91183191141278 L 440.8163265306122 159.3501980773651 L 445.9183673469387 162.063790376009 L 451.0204081632653 161.48375495193415 L 456.1224489795918 161.04163004826867 L 461.2244897959183 159.528670515542 L 466.3265306122448 159.20823136517896 L 471.42857142857144 165.02886656481118 L 476.53061224489795 157.2085288192426 L 481.63265306122446 158.67687024242505 L 486.73469387755097 161.84069982828788 L 491.8367346938776 161.85286840361812 L 496.9387755102041 154.40570030151025 L 502.0408163265306 161.41885588350618 L 507.1428571428571 157.1517421343681 L 512.2448979591837 155.9713903273347 L 517.3469387755102 154.81943186273847 L 522.4489795918366 161.25660821243628 L 527.5510204081631 162.11246467732994 L 532.6530612244898 159.84910966590502 L 537.7551020408164 160.31151552845418 L 542.8571428571428 157.96298048971755 L 547.9591836734693 158.7052635848623 L 553.0612244897959 157.09495544949365 L 558.1632653061225 157.28154027122403 L 563.2653061224489 156.20259325860928 L 568.3673469387754 155.11959005421778 L 573.469387755102 156.22693040926976 L 578.5714285714287 153.72426008301673 L 583.6734693877551 151.76917564662457 L 588.7755102040816 150.83219534619596 L 593.8775510204081 150.5685428807074 L 598.9795918367346 156.2309866010465 L 604.0816326530612 157.18013547680536 L 609.1836734693877 155.7158502453996 L 614.2857142857142 153.47683238463514 L 619.3877551020407 153.44032665864444 L 624.4897959183673 153.13205608361164 L 629.5918367346939 152.06933383810386 L 634.6938775510204 154.03658684982625 L 639.7959183673469 154.778869944971 L 644.8979591836735 155.35890536904586 L 650 155.61850164275768 L 650 400 Z" /><text  class="poloto_text poloto_legend_text" alignment-baseline="middle" text-anchor="start" font-size="large" x="675" y="200" >Level 2</text><rect  class="poloto_linefill poloto_legend_icon poloto2fill poloto2legend" x="680" y="176.25" width="50" height="7.5" rx="5" ry="5" /><path  class="poloto_linefill poloto2fill" d=" M 150 400 L 150 244.25440434823759 L 155.1020408163265 239.15577128486635 L 160.20408163265307 236.73828098592503 L 165.30612244897958 236.2028636713944 L 170.40816326530614 237.4927326564 L 175.51020408163265 235.59037871310557 L 180.61224489795921 235.10769189167263 L 185.71428571428567 233.80159813956004 L 190.8163265306123 233.49332756452725 L 195.91836734693874 233.91517150930898 L 201.02040816326524 232.65775205851733 L 206.1224489795918 231.86273847027488 L 211.22448979591832 231.04744392314868 L 216.32653061224488 233.39192277010858 L 221.4285714285714 232.52389772988468 L 226.53061224489795 230.96632008761375 L 231.63265306122446 230.4633523072971 L 236.73469387755102 228.72324603507255 L 241.83673469387753 231.13262395046038 L 246.9387755102041 228.058030583686 L 252.0408163265306 225.81090033936806 L 257.14285714285717 226.18812617460554 L 262.2448979591836 225.9001365584565 L 267.34693877551024 226.54912724273603 L 272.4489795918367 226.70731872202919 L 277.5510204081633 224.6629980665486 L 282.65306122448976 225.08889820310705 L 287.75510204081627 226.21246332526601 L 292.85714285714283 226.21651951704277 L 297.95918367346934 221.76282094617434 L 303.0612244897959 220.8745149470667 L 308.1632653061224 222.06703532943038 L 313.265306122449 220.03082705750327 L 318.36734693877554 218.74501426427443 L 323.46938775510205 220.00243371506605 L 328.57142857142856 222.80120604102163 L 333.67346938775506 221.896675274807 L 338.77551020408157 221.5194494395695 L 343.8775510204082 218.4773056070091 L 348.9795918367347 216.41676018442152 L 354.0816326530612 216.25856870512837 L 359.1836734693877 216.89944700585443 L 364.28571428571433 217.74313489541785 L 369.3877551020407 216.46949067751925 L 374.48979591836724 219.59681453739134 L 379.59183673469386 215.85294952745366 L 384.6938775510205 217.22799853977097 L 389.79591836734687 217.90943875826449 L 394.8979591836734 220.44861481050825 L 400 219.26015061992132 L 405.1020408163266 212.98927813307014 L 410.204081632653 213.01767147550737 L 415.3061224489795 215.34592555536025 L 420.40816326530614 214.1290680223361 L 425.51020408163265 212.55120942118143 L 430.61224489795916 213.73561741999163 L 435.71428571428567 209.27786265734645 L 440.8163265306122 207.3998458647125 L 445.9183673469387 212.01984829842755 L 451.0204081632653 211.4398128743527 L 456.1224489795918 212.4863103527535 L 461.2244897959183 210.97335082002678 L 466.3265306122448 212.15775881883695 L 471.42857142857144 214.27103473452226 L 476.53061224489795 209.52529035572803 L 481.63265306122446 211.5249929016644 L 486.73469387755097 208.53963575397844 L 491.8367346938776 208.54774813753195 L 496.9387755102041 206.32495504387447 L 502.0408163265306 209.4725598626303 L 507.1428571428571 207.6148240288801 L 512.2448979591837 204.3495896485986 L 517.3469387755102 204.62946688119413 L 522.4489795918366 208.29220805559686 L 527.5510204081631 208.88035586322522 L 532.6530612244898 208.40983761712255 L 537.7551020408164 208.8722434796717 L 542.8571428571428 206.52370844093508 L 547.9591836734693 207.26599153607984 L 553.0612244897959 205.65568340071118 L 558.1632653061225 206.41824745473966 L 563.2653061224489 205.10404131907356 L 568.3673469387754 203.81417233406796 L 573.469387755102 205.13649085328754 L 578.5714285714287 203.12056354024418 L 583.6734693877551 200.81259041927504 L 588.7755102040816 199.87561011884642 L 593.8775510204081 200.6381741728749 L 598.9795918367346 201.76985167858737 L 604.0816326530612 203.64786847122133 L 609.1836734693877 203.4410026906072 L 614.2857142857142 201.20198482984276 L 619.3877551020407 201.33178296669868 L 624.4897959183673 202.19980800692258 L 629.5918367346939 200.2933978718514 L 634.6938775510204 200.70307324130286 L 639.7959183673469 201.4453563364476 L 644.8979591836735 202.02539176052244 L 650 202.4512918970809 L 650 400 Z" /><text  class="poloto_text poloto_legend_text" alignment-baseline="middle" text-anchor="start" font-size="large" x="675" y="250" >Level 3</text><rect  class="poloto_linefill poloto_legend_icon poloto3fill poloto3legend" x="680" y="226.25" width="50" height="7.5" rx="5" ry="5" /><path  class="poloto_linefill poloto3fill" d=" M 150 400 L 150 291.2656670407377 L 155.1020408163265 288.8603453171266 L 160.20408163265307 286.479360744176 L 165.30612244897958 287.29871148307893 L 170.40816326530614 288.03288219467015 L 175.51020408163265 285.86687578588715 L 180.61224489795921 284.682467787077 L 185.71428571428567 283.8063303632996 L 190.8163265306123 284.28901718473253 L 195.91836734693874 283.60352077446225 L 201.02040816326524 283.7617122537554 L 206.1224489795918 283.08838441881534 L 211.22448979591832 282.47184326874975 L 216.32653061224488 282.54891091250795 L 221.4285714285714 280.0259596273712 L 226.53061224489795 279.9367234082828 L 231.63265306122446 279.06464217628206 L 236.73469387755102 278.64279823150036 L 241.83673469387753 279.06464217628206 L 246.9387755102041 278.776652560133 L 252.0408163265306 276.1117345628101 L 257.14285714285717 274.9557199064372 L 262.2448979591836 275.4100133854329 L 267.34693877551024 275.8764754397588 L 272.4489795918367 274.73262935871605 L 277.5510204081633 275.8440259055448 L 282.65306122448976 276.0427793026054 L 287.75510204081627 273.57661470234314 L 292.85714285714283 273.70641283919906 L 297.95918367346934 270.56692040399673 L 303.0612244897959 269.4920295831587 L 308.1632653061224 269.57315341869366 L 313.265306122449 268.5712740498371 L 318.36734693877554 267.2935736401617 L 323.46938775510205 268.9687808439583 L 328.57142857142856 270.9684833898947 L 333.67346938775506 269.8733116101729 L 338.77551020408157 271.0374386500994 L 343.8775510204082 269.20809615878636 L 348.9795918367347 265.96719892916536 L 354.0816326530612 265.02616243696 L 359.1836734693877 266.96907829802194 L 364.28571428571433 265.70760265545357 L 369.3877551020407 266.96096591446843 L 374.48979591836724 267.8776652560133 L 379.59183673469386 264.401508903341 L 384.6938775510205 263.3468990413867 L 389.79591836734687 264.6692175606063 L 394.8979591836734 265.82928840875593 L 400 266.81899920228227 L 405.1020408163266 264.0202268763267 L 410.204081632653 265.3587701626533 L 415.3061224489795 263.8944849312476 L 420.40816326530614 263.2414380551912 L 425.51020408163265 260.4670028798962 L 430.61224489795916 263.17248279498654 L 435.71428571428567 259.8423493462771 L 440.8163265306122 257.3640161706845 L 445.9183673469387 260.22363137329137 L 451.0204081632653 259.6435959492165 L 456.1224489795918 258.11441164938276 L 461.2244897959183 258.3618393477644 L 466.3265306122448 260.51973337299387 L 471.42857142857144 260.020821784454 L 476.53061224489795 257.08819512986577 L 481.63265306122446 258.3212774299969 L 486.73469387755097 257.3153418693636 L 491.8367346938776 257.3315666364706 L 496.9387755102041 255.89161855572533 L 502.0408163265306 256.9786779518936 L 507.1428571428571 255.04387447438515 L 512.2448979591837 253.70127499628182 L 517.3469387755102 254.99520017306418 L 522.4489795918366 254.30159137924042 L 527.5510204081631 255.74153945998566 L 532.6530612244898 254.41922094076608 L 537.7551020408164 254.88162680331527 L 542.8571428571428 255.49005556982735 L 547.9591836734693 254.69909817336165 L 553.0612244897959 255.4170441178459 L 558.1632653061225 255.61985370668324 L 563.2653061224489 251.4906504779546 L 568.3673469387754 250.4238720406701 L 573.469387755102 253.47412825678398 L 578.5714285714287 251.26755993023352 L 583.6734693877551 250.07503954786984 L 588.7755102040816 249.5923527264369 L 593.8775510204081 249.25568880896688 L 598.9795918367346 250.46443395843755 L 604.0816326530612 253.74589310582604 L 609.1836734693877 252.6263841754438 L 614.2857142857142 250.05881478076284 L 619.3877551020407 248.99609253525506 L 624.4897959183673 248.57830478225011 L 629.5918367346939 248.10778653614744 L 634.6938775510204 248.95147442571084 L 639.7959183673469 249.50311650734847 L 644.8979591836735 250.08315193142332 L 650 248.27003420721732 L 650 400 Z" /><text  class="poloto_text poloto_legend_text" alignment-baseline="middle" text-anchor="start" font-size="large" x="675" y="300" >Level 4</text><rect  class="poloto_linefill poloto_legend_icon poloto4fill poloto4legend" x="680" y="276.25" width="50" height="7.5" rx="5" ry="5" /><path  class="poloto_linefill poloto4fill" d=" M 150 400 L 150 332.76050891686157 L 155.1020408163265 330.2375576317248 L 160.20408163265307 328.0634388393883 L 165.30612244897958 329.7670393856222 L 170.40816326530614 330.3551871932505 L 175.51020408163265 327.97825881207666 L 180.61224489795921 328.8381714687471 L 185.71428571428567 326.6032097997593 L 190.8163265306123 326.7979070050432 L 195.91836734693874 326.66405267641056 L 201.02040816326524 325.08213788347916 L 206.1224489795918 325.3985208420654 L 211.22448979591832 324.72113681534864 L 216.32653061224488 324.74953015778584 L 221.4285714285714 322.50645610524464 L 226.53061224489795 322.40099511904924 L 231.63265306122446 321.79256635253716 L 236.73469387755102 321.15980043536456 L 241.83673469387753 322.32392747529104 L 246.9387755102041 320.91642892875973 L 252.0408163265306 319.92671813523344 L 257.14285714285717 319.93483051878695 L 262.2448979591836 319.84965049147524 L 267.34693877551024 318.778815862414 L 272.4489795918367 318.06898230148323 L 277.5510204081633 317.72014980868295 L 282.65306122448976 318.52733197225564 L 287.75510204081627 317.79721745244115 L 292.85714285714283 316.2720893443842 L 297.95918367346934 315.5500872081232 L 303.0612244897959 314.799691729425 L 308.1632653061224 314.70639931855976 L 313.265306122449 314.077689593164 L 318.36734693877554 313.611227538838 L 323.46938775510205 314.4914211543922 L 328.57142857142856 315.537918632793 L 333.67346938775506 314.7429050445505 L 338.77551020408157 314.9132650991739 L 343.8775510204082 312.94195589567477 L 348.9795918367347 312.09015562255786 L 354.0816326530612 311.173456281013 L 359.1836734693877 312.81215775881884 L 364.28571428571433 311.46955828071555 L 369.3877551020407 311.124781979692 L 374.48979591836724 311.3397601438596 L 379.59183673469386 309.51447384432333 L 384.6938775510205 308.654561187653 L 389.79591836734687 309.1169670502021 L 394.8979591836734 309.64427198117926 L 400 309.1331918173091 L 405.1020408163266 309.2832709130488 L 410.204081632653 309.71322724138395 L 415.3061224489795 308.06235718824786 L 420.40816326530614 308.84114600938335 L 425.51020408163265 306.39526236800475 L 430.61224489795916 307.95689620205246 L 435.71428571428567 307.17810738091697 L 440.8163265306122 305.8801260123579 L 445.9183673469387 306.4195995186652 L 451.0204081632653 306.1762280120604 L 456.1224489795918 303.6289395762632 L 461.2244897959183 303.46263571341655 L 466.3265306122448 303.8033558226633 L 471.42857142857144 304.176525466124 L 476.53061224489795 302.49726207055073 L 481.63265306122446 303.8114682062168 L 486.73469387755097 302.95966793309987 L 491.8367346938776 303.5964900420492 L 496.9387755102041 301.29662930463354 L 502.0408163265306 302.8420383715742 L 507.1428571428571 301.3128540717405 L 512.2448979591837 301.0086396884845 L 517.3469387755102 301.3818093319452 L 522.4489795918366 299.9945917442977 L 527.5510204081631 301.02486445559146 L 532.6530612244898 300.20956990846526 L 537.7551020408164 299.58897256662294 L 542.8571428571428 298.5303065128919 L 547.9591836734693 298.8385770879247 L 553.0612244897959 299.812063114344 L 558.1632653061225 300.26635659333976 L 563.2653061224489 298.07601303389623 L 568.3673469387754 297.22826895255605 L 573.469387755102 299.2239153067157 L 578.5714285714287 297.7799110341937 L 583.6734693877551 297.26883087032354 L 588.7755102040816 297.28505563743056 L 593.8775510204081 297.04168413082573 L 598.9795918367346 297.39457281540274 L 604.0816326530612 299.9945917442977 L 609.1836734693877 297.7799110341937 L 614.2857142857142 296.68473925447194 L 619.3877551020407 297.3661794729655 L 624.4897959183673 297.7555738835332 L 629.5918367346939 297.21610037722587 L 634.6938775510204 297.2039318018956 L 639.7959183673469 296.5914468436068 L 644.8979591836735 296.73341355579294 L 650 294.8837901055962 L 650 400 Z" /><text  class="poloto_text poloto_legend_text" alignment-baseline="middle" text-anchor="start" font-size="large" x="675" y="350" >Level 5</text><rect  class="poloto_linefill poloto_legend_icon poloto5fill poloto5legend" x="680" y="326.25" width="50" height="7.5" rx="5" ry="5" /><path  class="poloto_linefill poloto5fill" d=" M 150 400 L 150 371.85408526115117 L 155.1020408163265 371.41601654926245 L 160.20408163265307 370.21132759156853 L 165.30612244897958 370.6737334541177 L 170.40816326530614 370.4587552899501 L 175.51020408163265 369.61101120860997 L 180.61224489795921 369.20133583915845 L 185.71428571428567 368.75109855193955 L 190.8163265306123 369.1161558118468 L 195.91836734693874 367.55857816957587 L 201.02040816326524 367.1083408823569 L 206.1224489795918 366.31738348589124 L 211.22448979591832 365.72923567826285 L 216.32653061224488 366.0131691026352 L 221.4285714285714 364.8368734873785 L 226.53061224489795 364.7435810765133 L 231.63265306122446 364.0134665566988 L 236.73469387755102 363.7011397898893 L 241.83673469387753 362.4923946404186 L 246.9387755102041 363.18194724246564 L 252.0408163265306 361.7622801206041 L 257.14285714285717 361.68115628506916 L 262.2448979591836 361.6973810521761 L 267.34693877551024 361.44184097024106 L 272.4489795918367 361.9529211341112 L 277.5510204081633 361.40533524425035 L 282.65306122448976 361.21469423074325 L 287.75510204081627 360.35478157407283 L 292.85714285714283 359.7950271088817 L 297.95918367346934 358.16038182285257 L 303.0612244897959 357.96568461756874 L 308.1632653061224 358.1279322886386 L 313.265306122449 358.22528089128053 L 318.36734693877554 358.1279322886386 L 323.46938775510205 358.0062465353362 L 328.57142857142856 357.89267316558727 L 333.67346938775506 358.45648382255513 L 338.77551020408157 357.2112329470937 L 343.8775510204082 356.12011735914876 L 348.9795918367347 356.8664566460702 L 354.0816326530612 355.6252619623856 L 359.1836734693877 356.4283879341815 L 364.28571428571433 355.99031922229284 L 369.3877551020407 355.5400819350739 L 374.48979591836724 355.8524087018834 L 379.59183673469386 353.97844810102623 L 384.6938775510205 353.5403793891375 L 389.79591836734687 353.19965927989074 L 394.8979591836734 352.76970295155553 L 400 352.9644001568394 L 405.1020408163266 352.6439610064764 L 410.204081632653 352.69263530779733 L 415.3061224489795 352.5790619380484 L 420.40816326530614 352.0598693906248 L 425.51020408163265 350.5550222414516 L 430.61224489795916 351.735374048485 L 435.71428571428567 350.11695352956286 L 440.8163265306122 349.9465934749395 L 445.9183673469387 349.4314571192926 L 451.0204081632653 349.6261543245765 L 456.1224489795918 348.7459607090223 L 461.2244897959183 348.68917402414786 L 466.3265306122448 348.5390949284082 L 471.42857142857144 348.84330931166426 L 476.53061224489795 348.35251010667787 L 481.63265306122446 348.30789199713365 L 486.73469387755097 348.1780938602777 L 491.8367346938776 348.2470491204824 L 496.9387755102041 346.52316761536486 L 502.0408163265306 346.98557347791404 L 507.1428571428571 345.56185016427577 L 512.2448979591837 346.40148186206244 L 517.3469387755102 346.3203580265275 L 522.4489795918366 345.52534443828506 L 527.5510204081631 344.65731939806113 L 532.6530612244898 344.3774421654656 L 537.7551020408164 344.1543516177445 L 542.8571428571428 344.00832871378157 L 547.9591836734693 344.0529468233258 L 553.0612244897959 344.8804099457822 L 558.1632653061225 344.16246400129796 L 563.2653061224489 344.7262746582658 L 568.3673469387754 344.1705763848515 L 573.469387755102 343.5378104676789 L 578.5714285714287 343.86636200159546 L 583.6734693877551 343.8379686591582 L 588.7755102040816 343.7081705223023 L 593.8775510204081 343.6432714538743 L 598.9795918367346 342.5927177836968 L 604.0816326530612 343.15652844066466 L 609.1836734693877 343.440461865037 L 614.2857142857142 342.3777396195292 L 619.3877551020407 342.26011005800353 L 624.4897959183673 343.2944389610741 L 629.5918367346939 341.9842890171847 L 634.6938775510204 342.1303119211476 L 639.7959183673469 341.83826611322183 L 644.8979591836735 342.06946904449643 L 650 341.46104027798435 L 650 400 Z" /><text  class="poloto_labels poloto_text poloto_title" alignment-baseline="start" text-anchor="middle" font-size="x-large" x="400" y="37.5" >Complexity of rebal levels with abspiral(3000,x)</text><text  class="poloto_labels poloto_text poloto_xname" alignment-baseline="start" text-anchor="middle" font-size="x-large" x="400" y="481.25" >Spiral Grow</text><text  class="poloto_labels poloto_text poloto_yname" alignment-baseline="start" text-anchor="middle" font-size="x-large" transform="rotate(-90,37.5,250)" x="37.5" y="250" >Number of Comparisons</text><line  class="poloto_axis_lines" stroke="black" x1="201.58730158730162" x2="201.58730158730162" y1="400" y2="405" /><text  class="poloto_tick_labels poloto_text" alignment-baseline="start" text-anchor="middle" x="201.58730158730162" y="430" > 0.7</text><line  class="poloto_axis_lines" stroke="black" x1="258.2766439909297" x2="258.2766439909297" y1="400" y2="405" /><text  class="poloto_tick_labels poloto_text" alignment-baseline="start" text-anchor="middle" x="258.2766439909297" y="430" > 0.8</text><line  class="poloto_axis_lines" stroke="black" x1="314.9659863945579" x2="314.9659863945579" y1="400" y2="405" /><text  class="poloto_tick_labels poloto_text" alignment-baseline="start" text-anchor="middle" x="314.9659863945579" y="430" > 0.9</text><line  class="poloto_axis_lines" stroke="black" x1="371.6553287981859" x2="371.6553287981859" y1="400" y2="405" /><text  class="poloto_tick_labels poloto_text" alignment-baseline="start" text-anchor="middle" x="371.6553287981859" y="430" > 1.0</text><line  class="poloto_axis_lines" stroke="black" x1="428.3446712018141" x2="428.3446712018141" y1="400" y2="405" /><text  class="poloto_tick_labels poloto_text" alignment-baseline="start" text-anchor="middle" x="428.3446712018141" y="430" > 1.1</text><line  class="poloto_axis_lines" stroke="black" x1="485.03401360544217" x2="485.03401360544217" y1="400" y2="405" /><text  class="poloto_tick_labels poloto_text" alignment-baseline="start" text-anchor="middle" x="485.03401360544217" y="430" > 1.2</text><line  class="poloto_axis_lines" stroke="black" x1="541.7233560090704" x2="541.7233560090704" y1="400" y2="405" /><text  class="poloto_tick_labels poloto_text" alignment-baseline="start" text-anchor="middle" x="541.7233560090704" y="430" > 1.3</text><line  class="poloto_axis_lines" stroke="black" x1="598.4126984126984" x2="598.4126984126984" y1="400" y2="405" /><text  class="poloto_tick_labels poloto_text" alignment-baseline="start" text-anchor="middle" x="598.4126984126984" y="430" > 1.4</text><line  class="poloto_axis_lines" stroke="black" x1="150" x2="144" y1="400" y2="400" /><text  class="poloto_tick_labels poloto_text" alignment-baseline="middle" text-anchor="end" x="135" y="400" > 0</text><line  class="poloto_axis_lines" stroke="black" x1="150" x2="144" y1="318.8761644650559" y2="318.8761644650559" /><text  class="poloto_tick_labels poloto_text" alignment-baseline="middle" text-anchor="end" x="135" y="318.8761644650559" > 20000</text><line  class="poloto_axis_lines" stroke="black" x1="150" x2="144" y1="237.75232893011184" y2="237.75232893011184" /><text  class="poloto_tick_labels poloto_text" alignment-baseline="middle" text-anchor="end" x="135" y="237.75232893011184" > 40000</text><line  class="poloto_axis_lines" stroke="black" x1="150" x2="144" y1="156.62849339516777" y2="156.62849339516777" /><text  class="poloto_tick_labels poloto_text" alignment-baseline="middle" text-anchor="end" x="135" y="156.62849339516777" > 60000</text><path  stroke="black" fill="none" class="poloto_axis_lines" style="stroke-dasharray:14.172335600907028;stroke-dashoffset:-51.587301587301624;" d=" M 150 400 L 650 400" /><path  stroke="black" fill="none" class="poloto_axis_lines" style="stroke-dasharray:10.140479441868012;stroke-dashoffset:-0;" d=" M 150 400 L 150 100" /></svg>