<svg class="poloto" width="800" height="500" viewBox="0 0 800 500" xmlns="http://www.w3.org/2000/svg"><circle  r="1e5" class="poloto_background" /><text  class="poloto_text poloto_legend_text" x="675" y="100" >Level 0</text><rect  class="poloto_linefill poloto_legend_icon poloto0fill poloto0legend" x="680" y="76.25" width="50" height="7.5" rx="5" ry="5" /><path  class="poloto_linefill poloto0fill" d=" M 150.00 400.00 L 150.00 100.00 L 155.10 103.15 L 160.20 108.82 L 165.31 113.64 L 170.41 116.69 L 175.51 120.61 L 180.61 123.89 L 185.71 128.13 L 190.82 131.54 L 195.92 135.01 L 201.02 139.36 L 206.12 142.04 L 211.22 145.42 L 216.33 150.39 L 221.43 153.98 L 226.53 157.05 L 231.63 159.25 L 236.73 162.36 L 241.84 165.02 L 246.94 167.35 L 252.04 169.95 L 257.14 172.49 L 262.24 174.88 L 267.35 177.26 L 272.45 179.75 L 277.55 181.32 L 282.65 183.51 L 287.76 185.53 L 292.86 187.20 L 297.96 189.11 L 303.06 191.72 L 308.16 193.73 L 313.27 196.11 L 318.37 198.16 L 323.47 199.46 L 328.57 201.67 L 333.67 203.50 L 338.78 205.21 L 343.88 206.91 L 348.98 208.45 L 354.08 209.82 L 359.18 211.59 L 364.29 213.37 L 369.39 214.62 L 374.49 215.86 L 379.59 217.35 L 384.69 218.80 L 389.80 220.49 L 394.90 222.02 L 400.00 223.16 L 405.10 224.32 L 410.20 226.04 L 415.31 227.48 L 420.41 228.77 L 425.51 230.12 L 430.61 231.52 L 435.71 232.75 L 440.82 233.96 L 445.92 235.02 L 451.02 236.07 L 456.12 237.02 L 461.22 238.02 L 466.33 239.31 L 471.43 240.57 L 476.53 241.85 L 481.63 243.24 L 486.73 244.16 L 491.84 245.21 L 496.94 246.23 L 502.04 247.08 L 507.14 247.96 L 512.24 249.08 L 517.35 250.03 L 522.45 251.16 L 527.55 252.06 L 532.65 252.87 L 537.76 253.77 L 542.86 254.68 L 547.96 255.53 L 553.06 256.48 L 558.16 257.47 L 563.27 258.30 L 568.37 258.92 L 573.47 259.69 L 578.57 260.44 L 583.67 261.30 L 588.78 262.11 L 593.88 263.14 L 598.98 263.86 L 604.08 264.44 L 609.18 265.37 L 614.29 266.13 L 619.39 266.84 L 624.49 267.53 L 629.59 268.14 L 634.69 268.78 L 639.80 269.68 L 644.90 270.37 L 650.00 270.87 L 650.00 400.00 Z" /><text  class="poloto_text poloto_legend_text" x="675" y="150" >Level 1</text><rect  class="poloto_linefill poloto_legend_icon poloto1fill poloto1legend" x="680" y="126.25" width="50" height="7.5" rx="5" ry="5" /><path  class="poloto_linefill poloto1fill" d=" M 150.00 400.00 L 150.00 107.48 L 155.10 110.34 L 160.20 115.82 L 165.31 120.47 L 170.41 123.40 L 175.51 127.20 L 180.61 130.25 L 185.71 134.35 L 190.82 137.66 L 195.92 140.71 L 201.02 144.94 L 206.12 147.45 L 211.22 150.72 L 216.33 154.94 L 221.43 158.23 L 226.53 161.23 L 231.63 163.32 L 236.73 166.33 L 241.84 168.92 L 246.94 171.18 L 252.04 173.73 L 257.14 176.17 L 262.24 178.53 L 267.35 180.87 L 272.45 183.30 L 277.55 184.77 L 282.65 186.89 L 287.76 188.87 L 292.86 190.48 L 297.96 192.33 L 303.06 194.92 L 308.16 196.92 L 313.27 199.27 L 318.37 201.26 L 323.47 202.49 L 328.57 204.65 L 333.67 206.47 L 338.78 208.12 L 343.88 209.78 L 348.98 211.27 L 354.08 212.61 L 359.18 214.35 L 364.29 216.10 L 369.39 217.33 L 374.49 218.50 L 379.59 219.93 L 384.69 221.35 L 389.80 222.98 L 394.90 224.46 L 400.00 225.57 L 405.10 226.69 L 410.20 228.40 L 415.31 229.82 L 420.41 231.10 L 425.51 232.45 L 430.61 233.80 L 435.71 234.99 L 440.82 236.17 L 445.92 237.21 L 451.02 238.25 L 456.12 239.15 L 461.22 240.14 L 466.33 241.44 L 471.43 242.66 L 476.53 243.93 L 481.63 245.31 L 486.73 246.17 L 491.84 247.24 L 496.94 248.24 L 502.04 249.04 L 507.14 249.91 L 512.24 251.00 L 517.35 251.95 L 522.45 253.05 L 527.55 253.92 L 532.65 254.72 L 537.76 255.62 L 542.86 256.52 L 547.96 257.37 L 553.06 258.31 L 558.16 259.25 L 563.27 260.05 L 568.37 260.66 L 573.47 261.40 L 578.57 262.14 L 583.67 262.99 L 588.78 263.80 L 593.88 264.81 L 598.98 265.52 L 604.08 266.07 L 609.18 266.98 L 614.29 267.73 L 619.39 268.42 L 624.49 269.10 L 629.59 269.70 L 634.69 270.33 L 639.80 271.24 L 644.90 271.93 L 650.00 272.41 L 650.00 400.00 Z" /><text  class="poloto_text poloto_legend_text" x="675" y="200" >Level 2</text><rect  class="poloto_linefill poloto_legend_icon poloto2fill poloto2legend" x="680" y="176.25" width="50" height="7.5" rx="5" ry="5" /><path  class="poloto_linefill poloto2fill" d=" M 150.00 400.00 L 150.00 177.58 L 155.10 179.34 L 160.20 183.12 L 165.31 186.27 L 170.41 188.04 L 175.51 190.73 L 180.61 192.72 L 185.71 195.52 L 190.82 197.77 L 195.92 199.79 L 201.02 202.88 L 206.12 204.58 L 211.22 207.00 L 216.33 210.02 L 221.43 212.33 L 226.53 214.40 L 231.63 215.80 L 236.73 217.98 L 241.84 219.84 L 246.94 221.41 L 252.04 222.97 L 257.14 224.75 L 262.24 226.52 L 267.35 228.20 L 272.45 229.98 L 277.55 230.79 L 282.65 232.25 L 287.76 233.72 L 292.86 234.73 L 297.96 235.94 L 303.06 237.77 L 308.16 239.17 L 313.27 240.94 L 318.37 242.43 L 323.47 243.33 L 328.57 244.92 L 333.67 246.26 L 338.78 247.40 L 343.88 248.67 L 348.98 249.73 L 354.08 250.65 L 359.18 251.91 L 364.29 253.25 L 369.39 254.16 L 374.49 254.93 L 379.59 255.94 L 384.69 257.01 L 389.80 258.17 L 394.90 259.33 L 400.00 260.16 L 405.10 260.99 L 410.20 262.28 L 415.31 263.34 L 420.41 264.31 L 425.51 265.35 L 430.61 266.43 L 435.71 267.32 L 440.82 268.20 L 445.92 269.02 L 451.02 269.78 L 456.12 270.44 L 461.22 271.17 L 466.33 272.20 L 471.43 273.16 L 476.53 274.12 L 481.63 275.21 L 486.73 275.86 L 491.84 276.62 L 496.94 277.36 L 502.04 277.94 L 507.14 278.58 L 512.24 279.42 L 517.35 280.14 L 522.45 280.98 L 527.55 281.63 L 532.65 282.24 L 537.76 282.92 L 542.86 283.63 L 547.96 284.29 L 553.06 285.04 L 558.16 285.74 L 563.27 286.36 L 568.37 286.82 L 573.47 287.41 L 578.57 287.95 L 583.67 288.62 L 588.78 289.23 L 593.88 290.04 L 598.98 290.60 L 604.08 291.02 L 609.18 291.73 L 614.29 292.34 L 619.39 292.86 L 624.49 293.41 L 629.59 293.87 L 634.69 294.35 L 639.80 295.05 L 644.90 295.61 L 650.00 295.93 L 650.00 400.00 Z" /><text  class="poloto_text poloto_legend_text" x="675" y="250" >Level 3</text><rect  class="poloto_linefill poloto_legend_icon poloto3fill poloto3legend" x="680" y="226.25" width="50" height="7.5" rx="5" ry="5" /><path  class="poloto_linefill poloto3fill" d=" M 150.00 400.00 L 150.00 245.05 L 155.10 245.85 L 160.20 247.72 L 165.31 249.23 L 170.41 249.90 L 175.51 251.50 L 180.61 252.75 L 185.71 254.06 L 190.82 255.31 L 195.92 256.41 L 201.02 258.51 L 206.12 259.39 L 211.22 261.01 L 216.33 262.85 L 221.43 264.31 L 226.53 265.63 L 231.63 266.46 L 236.73 267.70 L 241.84 268.97 L 246.94 269.87 L 252.04 270.79 L 257.14 271.93 L 262.24 272.99 L 267.35 274.12 L 272.45 275.41 L 277.55 275.85 L 282.65 276.74 L 287.76 277.70 L 292.86 278.25 L 297.96 278.99 L 303.06 280.20 L 308.16 281.11 L 313.27 282.34 L 318.37 283.39 L 323.47 283.97 L 328.57 285.11 L 333.67 286.04 L 338.78 286.83 L 343.88 287.72 L 348.98 288.26 L 354.08 288.82 L 359.18 289.66 L 364.29 290.54 L 369.39 291.13 L 374.49 291.50 L 379.59 292.19 L 384.69 292.89 L 389.80 293.72 L 394.90 294.54 L 400.00 295.12 L 405.10 295.61 L 410.20 296.51 L 415.31 297.32 L 420.41 297.99 L 425.51 298.72 L 430.61 299.50 L 435.71 300.13 L 440.82 300.71 L 445.92 301.29 L 451.02 301.77 L 456.12 302.21 L 461.22 302.69 L 466.33 303.45 L 471.43 304.17 L 476.53 304.87 L 481.63 305.71 L 486.73 306.11 L 491.84 306.60 L 496.94 307.09 L 502.04 307.44 L 507.14 307.89 L 512.24 308.52 L 517.35 308.99 L 522.45 309.64 L 527.55 310.08 L 532.65 310.51 L 537.76 310.96 L 542.86 311.49 L 547.96 311.97 L 553.06 312.52 L 558.16 313.04 L 563.27 313.48 L 568.37 313.76 L 573.47 314.16 L 578.57 314.57 L 583.67 315.05 L 588.78 315.47 L 593.88 316.01 L 598.98 316.42 L 604.08 316.70 L 609.18 317.24 L 614.29 317.70 L 619.39 317.99 L 624.49 318.42 L 629.59 318.74 L 634.69 319.08 L 639.80 319.56 L 644.90 319.97 L 650.00 320.19 L 650.00 400.00 Z" /><text  class="poloto_text poloto_legend_text" x="675" y="300" >Level 4</text><rect  class="poloto_linefill poloto_legend_icon poloto4fill poloto4legend" x="680" y="276.25" width="50" height="7.5" rx="5" ry="5" /><path  class="poloto_linefill poloto4fill" d=" M 150.00 400.00 L 150.00 301.59 L 155.10 301.55 L 160.20 302.30 L 165.31 302.98 L 170.41 302.98 L 175.51 303.65 L 180.61 304.13 L 185.71 304.81 L 190.82 305.13 L 195.92 305.70 L 201.02 306.67 L 206.12 306.89 L 211.22 307.74 L 216.33 308.38 L 221.43 309.02 L 226.53 309.51 L 231.63 309.98 L 236.73 310.28 L 241.84 311.09 L 246.94 311.44 L 252.04 311.71 L 257.14 312.37 L 262.24 312.88 L 267.35 313.45 L 272.45 314.22 L 277.55 314.35 L 282.65 314.62 L 287.76 315.13 L 292.86 315.43 L 297.96 315.69 L 303.06 316.31 L 308.16 316.86 L 313.27 317.49 L 318.37 318.06 L 323.47 318.40 L 328.57 319.10 L 333.67 319.60 L 338.78 320.04 L 343.88 320.58 L 348.98 320.79 L 354.08 321.16 L 359.18 321.54 L 364.29 322.05 L 369.39 322.45 L 374.49 322.54 L 379.59 323.02 L 384.69 323.43 L 389.80 323.91 L 394.90 324.43 L 400.00 324.73 L 405.10 325.02 L 410.20 325.60 L 415.31 326.17 L 420.41 326.54 L 425.51 327.03 L 430.61 327.48 L 435.71 327.85 L 440.82 328.23 L 445.92 328.61 L 451.02 328.96 L 456.12 329.21 L 461.22 329.47 L 466.33 329.96 L 471.43 330.42 L 476.53 330.90 L 481.63 331.46 L 486.73 331.68 L 491.84 331.95 L 496.94 332.25 L 502.04 332.40 L 507.14 332.70 L 512.24 333.05 L 517.35 333.32 L 522.45 333.77 L 527.55 334.08 L 532.65 334.40 L 537.76 334.66 L 542.86 335.00 L 547.96 335.32 L 553.06 335.70 L 558.16 336.02 L 563.27 336.35 L 568.37 336.50 L 573.47 336.72 L 578.57 336.96 L 583.67 337.29 L 588.78 337.55 L 593.88 337.92 L 598.98 338.22 L 604.08 338.38 L 609.18 338.77 L 614.29 339.10 L 619.39 339.27 L 624.49 339.58 L 629.59 339.80 L 634.69 340.03 L 639.80 340.33 L 644.90 340.62 L 650.00 340.76 L 650.00 400.00 Z" /><text  class="poloto_text poloto_legend_text" x="675" y="350" >Level 5</text><rect  class="poloto_linefill poloto_legend_icon poloto5fill poloto5legend" x="680" y="326.25" width="50" height="7.5" rx="5" ry="5" /><path  class="poloto_linefill poloto5fill" d=" M 150.00 400.00 L 150.00 351.21 L 155.10 350.94 L 160.20 350.87 L 165.31 350.89 L 170.41 350.47 L 175.51 350.56 L 180.61 350.63 L 185.71 350.84 L 190.82 350.68 L 195.92 350.71 L 201.02 351.12 L 206.12 350.98 L 211.22 351.15 L 216.33 351.24 L 221.43 351.44 L 226.53 351.43 L 231.63 351.39 L 236.73 351.46 L 241.84 351.70 L 246.94 351.77 L 252.04 351.69 L 257.14 351.90 L 262.24 352.13 L 267.35 352.35 L 272.45 352.59 L 277.55 352.41 L 282.65 352.42 L 287.76 352.62 L 292.86 352.76 L 297.96 352.72 L 303.06 352.92 L 308.16 353.06 L 313.27 353.33 L 318.37 353.58 L 323.47 353.52 L 328.57 353.86 L 333.67 354.06 L 338.78 354.19 L 343.88 354.38 L 348.98 354.35 L 354.08 354.42 L 359.18 354.56 L 364.29 354.73 L 369.39 354.96 L 374.49 354.79 L 379.59 355.02 L 384.69 355.24 L 389.80 355.37 L 394.90 355.67 L 400.00 355.66 L 405.10 355.80 L 410.20 356.10 L 415.31 356.34 L 420.41 356.45 L 425.51 356.67 L 430.61 356.85 L 435.71 357.01 L 440.82 357.21 L 445.92 357.32 L 451.02 357.47 L 456.12 357.58 L 461.22 357.60 L 466.33 357.84 L 471.43 358.11 L 476.53 358.31 L 481.63 358.58 L 486.73 358.58 L 491.84 358.61 L 496.94 358.78 L 502.04 358.87 L 507.14 359.05 L 512.24 359.21 L 517.35 359.36 L 522.45 359.59 L 527.55 359.81 L 532.65 359.96 L 537.76 360.06 L 542.86 360.25 L 547.96 360.46 L 553.06 360.66 L 558.16 360.84 L 563.27 361.01 L 568.37 361.03 L 573.47 361.12 L 578.57 361.19 L 583.67 361.33 L 588.78 361.49 L 593.88 361.70 L 598.98 361.88 L 604.08 361.95 L 609.18 362.17 L 614.29 362.36 L 619.39 362.47 L 624.49 362.63 L 629.59 362.72 L 634.69 362.87 L 639.80 362.98 L 644.90 363.14 L 650.00 363.24 L 650.00 400.00 Z" /><text  class="poloto_text poloto_legend_text" x="675" y="400" >Level 6</text><rect  class="poloto_linefill poloto_legend_icon poloto6fill poloto6legend" x="680" y="376.25" width="50" height="7.5" rx="5" ry="5" /><path  class="poloto_linefill poloto6fill" d=" M 150.00 400.00 L 150.00 380.47 L 155.10 380.15 L 160.20 379.91 L 165.31 379.73 L 170.41 379.35 L 175.51 379.17 L 180.61 378.91 L 185.71 378.98 L 190.82 378.79 L 195.92 378.57 L 201.02 378.51 L 206.12 378.31 L 211.22 378.26 L 216.33 378.17 L 221.43 378.07 L 226.53 377.96 L 231.63 377.73 L 236.73 377.55 L 241.84 377.57 L 246.94 377.46 L 252.04 377.26 L 257.14 377.26 L 262.24 377.22 L 267.35 377.21 L 272.45 377.14 L 277.55 376.90 L 282.65 376.79 L 287.76 376.80 L 292.86 376.77 L 297.96 376.60 L 303.06 376.58 L 308.16 376.53 L 313.27 376.54 L 318.37 376.56 L 323.47 376.45 L 328.57 376.51 L 333.67 376.55 L 338.78 376.48 L 343.88 376.55 L 348.98 376.36 L 354.08 376.33 L 359.18 376.29 L 364.29 376.28 L 369.39 376.31 L 374.49 376.16 L 379.59 376.17 L 384.69 376.25 L 389.80 376.22 L 394.90 376.34 L 400.00 376.33 L 405.10 376.30 L 410.20 376.43 L 415.31 376.41 L 420.41 376.40 L 425.51 376.45 L 430.61 376.49 L 435.71 376.53 L 440.82 376.57 L 445.92 376.58 L 451.02 376.61 L 456.12 376.67 L 461.22 376.63 L 466.33 376.71 L 471.43 376.76 L 476.53 376.78 L 481.63 376.88 L 486.73 376.83 L 491.84 376.79 L 496.94 376.83 L 502.04 376.86 L 507.14 376.97 L 512.24 377.00 L 517.35 377.10 L 522.45 377.14 L 527.55 377.23 L 532.65 377.25 L 537.76 377.27 L 542.86 377.32 L 547.96 377.42 L 553.06 377.50 L 558.16 377.58 L 563.27 377.63 L 568.37 377.66 L 573.47 377.67 L 578.57 377.67 L 583.67 377.73 L 588.78 377.79 L 593.88 377.81 L 598.98 377.90 L 604.08 377.92 L 609.18 378.02 L 614.29 378.11 L 619.39 378.13 L 624.49 378.19 L 629.59 378.26 L 634.69 378.35 L 639.80 378.34 L 644.90 378.42 L 650.00 378.50 L 650.00 400.00 Z" /><text  class="poloto_labels poloto_text poloto_title" x="400" y="37.5" >Complexity of query levels with abspiral(5000,x)</text><text  class="poloto_labels poloto_text poloto_xname" x="400" y="481.25" >Spiral Grow</text><text  class="poloto_labels poloto_text poloto_yname" transform="rotate(-90,37.5,250)" x="37.5" y="250" >Number of Comparisons</text><text  class="poloto_tick_labels poloto_text" dominant-baseline="middle" text-anchor="start" x="150" y="70" ></text><line  class="poloto_axis_lines" stroke="black" x1="150" x2="144" y1="400" y2="400" /><text  class="poloto_tick_labels poloto_text" dominant-baseline="middle" text-anchor="end" x="135" y="400" >0</text><line  class="poloto_axis_lines" stroke="black" x1="150" x2="144" y1="344.3293298698754" y2="344.3293298698754" /><text  class="poloto_tick_labels poloto_text" dominant-baseline="middle" text-anchor="end" x="135" y="344.3293298698754" >5e5</text><line  class="poloto_axis_lines" stroke="black" x1="150" x2="144" y1="288.65865973975076" y2="288.65865973975076" /><text  class="poloto_tick_labels poloto_text" dominant-baseline="middle" text-anchor="end" x="135" y="288.65865973975076" >1e6</text><line  class="poloto_axis_lines" stroke="black" x1="150" x2="144" y1="232.98798960962614" y2="232.98798960962614" /><text  class="poloto_tick_labels poloto_text" dominant-baseline="middle" text-anchor="end" x="135" y="232.98798960962614" >1.5e6</text><line  class="poloto_axis_lines" stroke="black" x1="150" x2="144" y1="177.31731947950152" y2="177.31731947950152" /><text  class="poloto_tick_labels poloto_text" dominant-baseline="middle" text-anchor="end" x="135" y="177.31731947950152" >2.0e6</text><line  class="poloto_axis_lines" stroke="black" x1="150" x2="144" y1="121.6466493493769" y2="121.6466493493769" /><text  class="poloto_tick_labels poloto_text" dominant-baseline="middle" text-anchor="end" x="135" y="121.6466493493769" >2.5e6</text><text  class="poloto_tick_labels poloto_text" dominant-baseline="middle" text-anchor="start" x="440.00000000000006" y="70" ></text><line  class="poloto_axis_lines" stroke="black" x1="201.58730158730162" x2="201.58730158730162" y1="400" y2="405" /><text  class="poloto_tick_labels poloto_text" dominant-baseline="start" text-anchor="middle" x="201.58730158730162" y="430" >0.7</text><line  class="poloto_axis_lines" stroke="black" x1="258.2766439909297" x2="258.2766439909297" y1="400" y2="405" /><text  class="poloto_tick_labels poloto_text" dominant-baseline="start" text-anchor="middle" x="258.2766439909297" y="430" >0.8</text><line  class="poloto_axis_lines" stroke="black" x1="314.9659863945579" x2="314.9659863945579" y1="400" y2="405" /><text  class="poloto_tick_labels poloto_text" dominant-baseline="start" text-anchor="middle" x="314.9659863945579" y="430" >0.9</text><line  class="poloto_axis_lines" stroke="black" x1="371.6553287981859" x2="371.6553287981859" y1="400" y2="405" /><text  class="poloto_tick_labels poloto_text" dominant-baseline="start" text-anchor="middle" x="371.6553287981859" y="430" >1.0</text><line  class="poloto_axis_lines" stroke="black" x1="428.3446712018141" x2="428.3446712018141" y1="400" y2="405" /><text  class="poloto_tick_labels poloto_text" dominant-baseline="start" text-anchor="middle" x="428.3446712018141" y="430" >1.1</text><line  class="poloto_axis_lines" stroke="black" x1="485.03401360544217" x2="485.03401360544217" y1="400" y2="405" /><text  class="poloto_tick_labels poloto_text" dominant-baseline="start" text-anchor="middle" x="485.03401360544217" y="430" >1.2</text><line  class="poloto_axis_lines" stroke="black" x1="541.7233560090704" x2="541.7233560090704" y1="400" y2="405" /><text  class="poloto_tick_labels poloto_text" dominant-baseline="start" text-anchor="middle" x="541.7233560090704" y="430" >1.3</text><line  class="poloto_axis_lines" stroke="black" x1="598.4126984126984" x2="598.4126984126984" y1="400" y2="405" /><text  class="poloto_tick_labels poloto_text" dominant-baseline="start" text-anchor="middle" x="598.4126984126984" y="430" >1.4</text><path  stroke="black" fill="none" class="poloto_axis_lines" style="stroke-dasharray:14.172335600907028;stroke-dashoffset:-51.587301587301624;" d=" M 150 400 L 650 400" /><path  stroke="black" fill="none" class="poloto_axis_lines" style="stroke-dasharray:5.567067013012463;stroke-dashoffset:-0;" d=" M 150 400 L 150 100" /></svg>