<svg  width="800" class="poloto_background poloto" height="500" viewBox="0 0 800 500" xmlns="http://www.w3.org/2000/svg" ><text  class="poloto_text" alignment-baseline="middle" text-anchor="start" font-size="large" x="675" y="100" >Level 0</text><rect  class="poloto0fill poloto0legend" x="680" y="76.25" width="50" height="7.5" rx="5" ry="5" /><path  class="poloto0fill" d=" M 150 400 L 150 100 L 155.1020408163265 152.4819612849423 L 160.20408163265307 238.3651113742458 L 165.30612244897958 279.67910944649464 L 170.40816326530614 301.03067884590394 L 175.51020408163265 301.28555897076 L 180.61224489795921 304.39029546861013 L 185.71428571428567 306.80394858645036 L 190.8163265306123 304.6351918097737 L 195.91836734693874 308.2060095036811 L 201.02040816326524 310.0465493914663 L 206.1224489795918 312.9812679258469 L 211.22448979591832 313.1085611679265 L 216.32653061224488 316.8924151873905 L 221.4285714285714 317.11609598820735 L 226.53061224489795 318.7142354807522 L 231.63265306122446 320.23830410751947 L 236.73469387755102 320.7110656294298 L 241.83673469387753 317.36715878400446 L 246.9387755102041 299.19094647003504 L 252.0408163265306 306.4684640903121 L 257.14285714285717 304.73297416182095 L 262.2448979591836 315.27107807979536 L 267.34693877551024 325.3469915409456 L 272.4489795918367 327.19766203277175 L 277.5510204081633 328.8623111431506 L 282.65306122448976 328.82134826594154 L 287.75510204081627 329.1580807350414 L 292.85714285714283 331.2890312720001 L 297.95918367346934 328.87310243875936 L 303.0612244897959 332.2357288786082 L 308.1632653061224 334.0520434089042 L 313.265306122449 333.00169063631205 L 318.36734693877554 334.44434737988075 L 323.46938775510205 334.4070550113822 L 328.57142857142856 334.20701228666087 L 333.67346938775506 335.53507574828825 L 338.77551020408157 336.94601929659837 L 343.8775510204082 337.37576245642185 L 348.9795918367347 337.9794877291223 L 354.0816326530612 339.01273593112364 L 359.1836734693877 337.25889345908007 L 364.28571428571433 339.00840473084526 L 369.3877551020407 340.9514986320014 L 374.48979591836724 339.39931390851183 L 379.59183673469386 341.2544624209648 L 384.6938775510205 343.1230449952981 L 389.79591836734687 340.8605434261556 L 394.8979591836734 342.72325318655214 L 400 343.0798064026886 L 405.1020408163266 344.3942889820872 L 410.204081632653 342.3369688498608 L 415.3061224489795 344.5362642590087 L 420.40816326530614 344.35839140689865 L 425.51020408163265 344.9077197405097 L 430.61224489795916 346.2948049822017 L 435.71428571428567 345.32329473671075 L 440.8163265306122 346.46350156253555 L 445.9183673469387 345.9113836423045 L 451.0204081632653 347.06164766199606 L 456.1224489795918 345.1304462090619 L 461.2244897959183 346.801849055468 L 466.3265306122448 348.06655953675244 L 471.42857142857144 348.3793602890599 L 476.53061224489795 348.42993989909036 L 481.63265306122446 349.2808372283548 L 486.73469387755097 350.1290183811735 L 491.8367346938776 348.11207384476245 L 496.9387755102041 350.12505423176617 L 502.0408163265306 351.31951117633196 L 507.1428571428571 349.5520144118854 L 512.2448979591837 351.11065923070544 L 517.3469387755102 350.88587727727537 L 522.4489795918366 352.37184602362777 L 527.5510204081631 352.01066796651617 L 532.6530612244898 352.93541593103555 L 537.7551020408164 353.34401696068664 L 542.8571428571428 351.33595505535493 L 547.9591836734693 353.020645143293 L 553.0612244897959 353.3724266981058 L 558.1632653061225 354.4155852736254 L 563.2653061224489 353.916542909348 L 568.3673469387754 354.8454018436231 L 573.469387755102 353.72362097152495 L 578.5714285714287 355.0181359835385 L 583.6734693877551 353.16731867136394 L 588.7755102040816 354.9386327648694 L 593.8775510204081 355.1267096311946 L 598.9795918367346 355.9016274301521 L 604.0816326530612 356.7472392268734 L 609.1836734693877 355.00506897252916 L 614.2857142857142 356.211785416188 L 619.3877551020407 356.3589728154784 L 624.4897959183673 357.16457606725544 L 629.5918367346939 357.2390139839041 L 634.6938775510204 356.99250261890796 L 639.7959183673469 357.78371747653995 L 644.8979591836735 358.4162929477048 L 650 357.61575499794816 L 650 400 Z" /><text  class="poloto_text" alignment-baseline="middle" text-anchor="start" font-size="large" x="675" y="150" >Level 1</text><rect  class="poloto1fill poloto1legend" x="680" y="126.25" width="50" height="7.5" rx="5" ry="5" /><path  class="poloto1fill" d=" M 150 400 L 150 139.0909911768311 L 155.1020408163265 182.06369213534776 L 160.20408163265307 261.1617600529728 L 165.30612244897958 292.6553854804953 L 170.40816326530614 311.37843018215267 L 175.51020408163265 311.5107153160785 L 180.61224489795921 314.1688977242112 L 185.71428571428567 316.2776049783844 L 190.8163265306123 314.35734164140746 L 195.91836734693874 316.68914241500386 L 201.02040816326524 318.1666689913222 L 206.1224489795918 320.659311456612 L 211.22448979591832 320.9045014384724 L 216.32653061224488 323.56907053176127 L 221.4285714285714 323.64027840074465 L 226.53061224489795 324.8155018796675 L 231.63265306122446 326.1906946731375 L 236.73469387755102 326.47266315227694 L 241.83673469387753 323.300462704328 L 246.9387755102041 307.4029756080014 L 252.0408163265306 313.0965218993561 L 257.14285714285717 311.41939305936165 L 262.2448979591836 321.61672694865473 L 267.34693877551024 330.5520665331091 L 272.4489795918367 332.04831270385085 L 277.5510204081633 333.68161566984213 L 282.65306122448976 333.6084257261551 L 287.75510204081627 333.82248979415056 L 292.85714285714283 335.80772113530304 L 297.95918367346934 333.533840989158 L 303.0612244897959 336.63732951404666 L 308.1632653061224 338.4173794182831 L 313.265306122449 337.47985808345123 L 318.36734693877554 338.6880427305942 L 323.46938775510205 338.6169816819592 L 328.57142857142856 338.439402470546 L 333.67346938775506 339.8714147388543 L 338.77551020408157 340.9045895306814 L 343.8775510204082 341.34446329454585 L 348.9795918367347 341.7980647609875 L 354.0816326530612 342.8548776289101 L 359.1836734693877 341.1312067384667 L 364.28571428571433 342.8545839882133 L 369.3877551020407 344.5687849661836 L 374.48979591836724 343.080320273908 L 379.59183673469386 344.6908660858943 L 384.6938775510205 346.51349389117235 L 389.79591836734687 344.2702257876728 L 394.8979591836734 345.9549158756109 L 400 346.2337277172592 L 405.1020408163266 347.5320600583317 L 410.204081632653 345.8122064969472 L 415.3061224489795 347.4744330715771 L 420.40816326530614 347.426789868515 L 425.51020408163265 347.80353088255913 L 430.61224489795916 349.5233844439436 L 435.71428571428567 348.2406150598036 L 440.8163265306122 349.34301564591044 L 445.9183673469387 348.79376072247356 L 451.0204081632653 349.773492907476 L 456.1224489795918 347.95659109578634 L 461.2244897959183 349.41598535907485 L 466.3265306122448 350.74492974279275 L 471.42857142857144 350.93454822277636 L 476.53061224489795 351.03130283238477 L 481.63265306122446 351.8949001217875 L 486.73469387755097 352.64214228506785 L 491.8367346938776 350.750949377078 L 496.9387755102041 352.6033817130851 L 502.0408163265306 353.8266888561153 L 507.1428571428571 352.1475779414172 L 512.2448979591837 353.48026624401984 L 517.3469387755102 353.3726469286284 L 522.4489795918366 354.68478038245235 L 527.5510204081631 354.25371583949305 L 532.6530612244898 355.23205323118555 L 537.7551020408164 355.60372894320915 L 542.8571428571428 354.02188650933886 L 547.9591836734693 355.2233908306288 L 553.0612244897959 355.55094702795236 L 558.1632653061225 356.50872957086614 L 563.2653061224489 356.01181610164076 L 568.3673469387754 356.9510992806537 L 573.469387755102 355.9171169769103 L 578.5714285714287 357.0979196290731 L 583.6734693877551 355.3384979837896 L 588.7755102040816 356.96813044107034 L 593.8775510204081 357.21911982669326 L 598.9795918367346 358.0783125056434 L 604.0816326530612 358.83979624272047 L 609.1836734693877 357.14637034405143 L 614.2857142857142 358.23775940402686 L 619.3877551020407 358.48331643675823 L 624.4897959183673 359.1810801426213 L 629.5918367346939 359.22395168435975 L 634.6938775510204 358.85726786418235 L 639.7959183673469 359.580798541193 L 644.8979591836735 360.0780056511152 L 650 359.2972884483952 L 650 400 Z" /><text  class="poloto_text" alignment-baseline="middle" text-anchor="start" font-size="large" x="675" y="200" >Level 2</text><rect  class="poloto2fill poloto2legend" x="680" y="176.25" width="50" height="7.5" rx="5" ry="5" /><path  class="poloto2fill" d=" M 150 400 L 150 170.1271978088531 L 155.1020408163265 210.4919289183965 L 160.20408163265307 277.63896729503324 L 165.30612244897958 305.00539931831315 L 170.40816326530614 321.71781275854147 L 175.51020408163265 321.46601586100223 L 180.61224489795921 323.7652959274238 L 185.71428571428567 325.8296634363743 L 190.8163265306123 323.8843672299919 L 195.91836734693874 326.0580424883406 L 201.02040816326524 327.1406223274108 L 206.1224489795918 329.289925407922 L 211.22448979591832 329.83506936160313 L 216.32653061224488 331.9865747473405 L 221.4285714285714 331.96308349159347 L 226.53061224489795 332.84415240245806 L 231.63265306122446 334.1080553718262 L 236.73469387755102 334.7503209859867 L 241.83673469387753 331.2151072265709 L 246.9387755102041 320.20233312215674 L 252.0408163265306 323.1108442243444 L 257.14285714285717 320.75364353047144 L 262.2448979591836 330.1972751611537 L 267.34693877551024 337.79860505986966 L 272.4489795918367 339.2555033772351 L 277.5510204081633 340.24375114244583 L 282.65306122448976 340.17276350398504 L 287.75510204081627 340.32105205588863 L 292.85714285714283 342.00075025198043 L 297.95918367346934 339.9062845716039 L 303.0612244897959 342.6342066452358 L 308.1632653061224 344.1967422032889 L 313.265306122449 343.3125166549333 L 318.36734693877554 344.3550879490592 L 323.46938775510205 344.23117157499325 L 328.57142857142856 344.1612116789714 L 333.67346938775506 345.27484402173235 L 338.77551020408157 346.1593632107848 L 343.8775510204082 346.68542051917143 L 348.9795918367347 347.0268512394207 L 354.0816326530612 347.94741482401014 L 359.1836734693877 346.6034947647534 L 364.28571428571433 347.97523728003557 L 369.3877551020407 349.5157497858258 L 374.48979591836724 348.32760611624207 L 379.59183673469386 349.5908483940423 L 384.6938775510205 351.2832465502724 L 389.79591836734687 349.2701193429202 L 394.8979591836734 350.7192361818194 L 400 350.9174436521855 L 405.1020408163266 352.1936795308209 L 410.204081632653 350.70176456035745 L 415.3061224489795 352.0038408203146 L 420.40816326530614 352.09259372093413 L 425.51020408163265 352.2947653407076 L 430.61224489795916 353.92388392676895 L 435.71428571428567 352.8016625936255 L 440.8163265306122 353.62723341278763 L 445.9183673469387 353.2137139014645 L 451.0204081632653 353.9476688232129 L 456.1224489795918 352.3984939168659 L 461.2244897959183 353.6144600424751 L 466.3265306122448 354.9207940925364 L 471.42857142857144 355.0043348707871 L 476.53061224489795 355.0662930578201 L 481.63265306122446 355.9742300924454 L 486.73469387755097 356.6826382735689 L 491.8367346938776 354.93011718466107 L 496.9387755102041 356.882240537245 L 502.0408163265306 357.6840998701374 L 507.1428571428571 356.5438930443126 L 512.2448979591837 357.28350054947515 L 517.3469387755102 357.2837207799978 L 522.4489795918366 358.3514717638776 L 527.5510204081631 357.9649671966637 L 532.6530612244898 358.886191472821 L 537.7551020408164 359.17946511878864 L 542.8571428571428 357.8644686681706 L 547.9591836734693 358.8069084846745 L 553.0612244897959 359.20978352073723 L 558.1632653061225 360.18467063424185 L 563.2653061224489 359.5191339948569 L 568.3673469387754 360.42318029024915 L 573.469387755102 359.5170050998048 L 578.5714285714287 360.48998354877995 L 583.6734693877551 358.90131396870817 L 588.7755102040816 360.3181303309551 L 593.8775510204081 360.5675046927454 L 598.9795918367346 361.4287528565734 L 604.0816326530612 362.0533266187494 L 609.1836734693877 360.6778401845825 L 614.2857142857142 361.53556466004846 L 619.3877551020407 361.7327443879757 L 624.4897959183673 362.64104847347215 L 629.5918367346939 362.34630662402026 L 634.6938775510204 362.01500650781196 L 639.7959183673469 362.67327553995017 L 644.8979591836735 363.11652617182824 L 650 362.4125960113316 L 650 400 Z" /><text  class="poloto_text" alignment-baseline="middle" text-anchor="start" font-size="large" x="675" y="250" >Level 3</text><rect  class="poloto3fill poloto3legend" x="680" y="226.25" width="50" height="7.5" rx="5" ry="5" /><path  class="poloto3fill" d=" M 150 400 L 150 217.521026509148 L 155.1020408163265 247.79046387154978 L 160.20408163265307 300.4368639467218 L 165.30612244897958 323.45594545330414 L 170.40816326530614 335.9998355612098 L 175.51020408163265 335.9304629465816 L 180.61224489795921 337.3781849921708 L 185.71428571428567 339.00605560527055 L 190.8163265306123 337.34214059663384 L 195.91836734693874 337.9951975064032 L 201.02040816326524 338.73047381128737 L 206.1224489795918 340.1466294819664 L 211.22448979591832 340.64559843606963 L 216.32653061224488 342.3350601853313 L 221.4285714285714 342.06931535469226 L 226.53061224489795 342.6874290215378 L 231.63265306122446 343.4856912558939 L 236.73469387755102 344.0002231669296 L 241.83673469387753 340.7946944998895 L 246.9387755102041 331.4261614774238 L 252.0408163265306 333.67882608322213 L 257.14285714285717 331.96638694943283 L 262.2448979591836 339.5771867606219 L 267.34693877551024 346.23497569022084 L 272.4489795918367 347.0984995694493 L 277.5510204081633 347.8698936800447 L 282.65306122448976 347.7603657001238 L 287.75510204081627 347.9342744028266 L 292.85714285714283 349.11258110906624 L 297.95918367346934 347.2111841868612 L 303.0612244897959 349.60318130330955 L 308.1632653061224 350.930217022498 L 313.265306122449 350.1674853124594 L 318.36734693877554 351.0807812898021 L 323.46938775510205 350.87677441567337 L 328.57142857142856 350.637530657924 L 333.67346938775506 351.70887874034014 L 338.77551020408157 352.4810803628518 L 343.8775510204082 352.77281239516105 L 348.9795918367347 352.8129677604538 L 354.0816326530612 353.8630268923491 L 359.1836734693877 352.34108716063395 L 364.28571428571433 353.6257652093034 L 369.3877551020407 355.3054634053952 L 374.48979591836724 353.85818182085126 L 379.59183673469386 355.00037072137974 L 384.6938775510205 356.1402104963335 L 389.79591836734687 354.29027410624946 L 394.8979591836734 355.69974945107543 L 400 355.62046646292896 L 405.1020408163266 356.6596608890412 L 410.204081632653 355.2742640813561 L 415.3061224489795 356.3845195561033 L 420.40816326530614 356.54271848152524 L 425.51020408163265 356.5850761520442 L 430.61224489795916 358.1132557485672 L 435.71428571428567 357.158115971925 L 440.8163265306122 357.6077532889593 L 445.9183673469387 357.34927606556704 L 451.0204081632653 357.8732778890758 L 456.1224489795918 356.5592357707224 L 461.2244897959183 357.50909001482154 L 466.3265306122448 358.7095665936725 L 471.42857142857144 358.72608388286966 L 476.53061224489795 358.79905359603407 L 481.63265306122446 359.66522024153414 L 486.73469387755097 360.228129457374 L 491.8367346938776 358.9494710429897 L 496.9387755102041 360.4344854570774 L 502.0408163265306 361.07418171514064 L 507.1428571428571 359.98345334673314 L 512.2448979591837 360.646494040195 L 517.3469387755102 360.67725290318884 L 522.4489795918366 361.6168297228986 L 527.5510204081631 361.30946132348265 L 532.6530612244898 362.0916467296869 L 537.7551020408164 362.29396516980876 L 542.8571428571428 361.0798342985548 L 547.9591836734693 361.9034230430132 L 553.0612244897959 362.2721623480685 L 558.1632653061225 363.17951210130013 L 563.2653061224489 362.50347780700315 L 568.3673469387754 363.3427029185683 L 573.469387755102 362.35937363502956 L 578.5714285714287 363.1018441369863 L 583.6734693877551 361.8089441488054 L 588.7755102040816 362.87684195303365 L 593.8775510204081 363.09824703845004 L 598.9795918367346 363.8795515225637 L 604.0816326530612 364.4185290216112 L 609.1836734693877 363.1439815769827 L 614.2857142857142 363.90994333468655 L 619.3877551020407 364.1691546598209 L 624.4897959183673 364.88409634644904 L 629.5918367346939 364.6410352596408 L 634.6938775510204 364.2521815668521 L 639.7959183673469 364.7913792964222 L 644.8979591836735 365.51410246151653 L 650 364.57496610285204 L 650 400 Z" /><text  class="poloto_text" alignment-baseline="middle" text-anchor="start" font-size="large" x="675" y="300" >Level 4</text><rect  class="poloto4fill poloto4legend" x="680" y="276.25" width="50" height="7.5" rx="5" ry="5" /><path  class="poloto4fill" d=" M 150 400 L 150 259.8977836734304 L 155.1020408163265 283.9914433100941 L 160.20408163265307 325.29509054777935 L 165.30612244897958 341.24756186458904 L 170.40816326530614 350.0197840419495 L 175.51020408163265 350.049368342156 L 180.61224489795921 350.9308777140659 L 185.71428571428567 352.03636152748953 L 190.8163265306123 350.6421554988992 L 195.91836734693874 350.9261794629165 L 201.02040816326524 351.5895872072494 L 206.1224489795918 352.69154733231096 L 211.22448979591832 352.92873560518245 L 216.32653061224488 354.15732828075573 L 221.4285714285714 353.3548082562955 L 226.53061224489795 353.7581971635777 L 231.63265306122446 354.31816997244914 L 236.73469387755102 354.6042494213443 L 241.83673469387753 351.82347202228146 L 246.9387755102041 344.585375665555 L 252.0408163265306 346.06950915755215 L 257.14285714285717 345.1441005014649 L 262.2448979591836 351.16256022387165 L 267.34693877551024 356.1104059656044 L 272.4489795918367 357.1844702244663 L 277.5510204081633 357.3951574244481 L 282.65306122448976 357.0601867995293 L 287.75510204081627 357.18270838028525 L 292.85714285714283 358.1117141349088 L 297.95918367346934 356.4829625997185 L 303.0612244897959 358.48639966407507 L 308.1632653061224 359.9025553347541 L 313.265306122449 358.8742256144248 L 318.36734693877554 359.74927489100423 L 323.46938775510205 359.8831750487627 L 328.57142857142856 359.1145705247873 L 333.67346938775506 359.8544716706467 L 338.77551020408157 360.48462460606265 L 343.8775510204082 360.7493416942628 L 348.9795918367347 360.73135620158143 L 354.0816326530612 361.6923687921604 L 359.1836734693877 360.56721105204855 L 364.28571428571433 361.4763226494613 L 369.3877551020407 362.8076895689281 L 374.48979591836724 361.7801673605152 L 379.59183673469386 362.6707061838529 L 384.6938775510205 363.4700695708221 L 389.79591836734687 362.16057888326975 L 394.8979591836734 363.155653794682 L 400 363.0409136923923 L 405.1020408163266 363.90869536172494 L 410.204081632653 362.998115560828 L 415.3061224489795 363.67429667547344 L 420.40816326530614 364.1545460351532 L 425.51020408163265 363.7035873349831 L 430.61224489795916 364.96000246658184 L 435.71428571428567 364.18596558971495 L 440.8163265306122 364.73191705531235 L 445.9183673469387 364.77934002785184 L 451.0204081632653 364.7777984141934 L 456.1224489795918 363.6802428995844 L 461.2244897959183 364.3176634422471 L 466.3265306122448 365.42938712047857 L 471.42857142857144 365.3341741245286 L 476.53061224489795 365.4492078675152 L 481.63265306122446 366.18712693867093 L 486.73469387755097 366.5958013784963 L 491.8367346938776 365.6079206641565 L 496.9387755102041 366.85148901526856 L 502.0408163265306 367.16186723182716 L 507.1428571428571 366.26626310646895 L 512.2448979591837 366.6390399711058 L 517.3469387755102 366.8343844446777 L 522.4489795918366 367.3473013318808 L 527.5510204081631 367.14857999029516 L 532.6530612244898 367.78299071581523 L 537.7551020408164 367.8657239821496 L 542.8571428571428 366.9047113915706 L 547.9591836734693 367.45682931180164 L 553.0612244897959 367.91843248723217 L 558.1632653061225 368.59644885623277 L 563.2653061224489 368.0864683759981 L 568.3673469387754 368.71456582653616 L 573.469387755102 367.89640943496926 L 578.5714285714287 368.39383677541406 L 583.6734693877551 367.6811708041864 L 588.7755102040816 368.17881837515387 L 593.8775510204081 368.4561620133181 L 598.9795918367346 369.0960050917297 L 604.0816326530612 369.4632027831265 L 609.1836734693877 368.56194607435424 L 614.2857142857142 369.1737464662177 L 619.3877551020407 369.3029483728268 L 624.4897959183673 369.8632882325693 L 629.5918367346939 369.632119593983 L 634.6938775510204 369.6570790532143 L 639.7959183673469 369.7207256742541 L 644.8979591836735 370.3599080610978 L 650 369.5722903020021 L 650 400 Z" /><text  class="poloto_text" alignment-baseline="middle" text-anchor="start" font-size="large" x="675" y="350" >Level 5</text><rect  class="poloto5fill poloto5legend" x="680" y="326.25" width="50" height="7.5" rx="5" ry="5" /><path  class="poloto5fill" d=" M 150 400 L 150 325.5940167771612 L 155.1020408163265 338.1531762013025 L 160.20408163265307 359.06024699587215 L 165.30612244897958 368.4011043826608 L 170.40816326530614 372.09378296575636 L 175.51020408163265 371.9545238652806 L 180.61224489795921 372.2309865813543 L 185.71428571428567 372.83427139300943 L 190.8163265306123 371.7168217211896 L 195.91836734693874 371.8819212029872 L 201.02040816326524 371.4551144501321 L 206.1224489795918 372.3710531937463 L 211.22448979591832 372.2087432985687 L 216.32653061224488 372.28340144573997 L 221.4285714285714 371.3893389340402 L 226.53061224489795 371.67079354196017 L 231.63265306122446 371.9211956461894 L 236.73469387755102 371.90563268925695 L 241.83673469387753 369.50724888765234 L 246.9387755102041 364.5068414611855 L 252.0408163265306 365.35260007825525 L 257.14285714285717 364.51682524487796 L 262.2448979591836 368.35610394587025 L 267.34693877551024 371.2564665187207 L 272.4489795918367 371.983374063745 L 277.5510204081633 371.80484052006705 L 282.65306122448976 371.4264110720161 L 287.75510204081627 371.50378539563314 L 292.85714285714283 371.8852980710009 L 297.95918367346934 370.3289289675813 L 303.0612244897959 371.5073090839952 L 308.1632653061224 372.0571512888257 L 313.265306122449 371.4334584487402 L 318.36734693877554 371.9885861861139 L 323.46938775510205 371.74743376383503 L 328.57142857142856 371.2074285223486 L 333.67346938775506 371.87252470068836 L 338.77551020408157 371.86342183908636 L 343.8775510204082 371.8416190173461 L 348.9795918367347 371.3839799913229 L 354.0816326530612 371.7735677858537 L 359.1836734693877 370.44858755154314 L 364.28571428571433 371.3888984729949 L 369.3877551020407 371.993871718657 L 374.48979591836724 370.81123381213894 L 379.59183673469386 371.7439834856472 L 384.6938775510205 371.80440005902176 L 389.79591836734687 370.6045107615645 L 394.8979591836734 371.26667053293585 L 400 371.4023325348753 L 405.1020408163266 371.6232971592465 L 410.204081632653 370.8690810294162 L 415.3061224489795 371.481688933196 L 420.40816326530614 371.6865767294152 L 425.51020408163265 371.11882244207754 L 430.61224489795916 372.14685852170993 L 435.71428571428567 371.3249582112583 L 440.8163265306122 371.6688848774307 L 445.9183673469387 371.8433808615271 L 451.0204081632653 371.85527330974907 L 456.1224489795918 370.9178987952656 L 461.2244897959183 370.944987149549 L 466.3265306122448 371.8070428252933 L 471.42857142857144 371.64062196035997 L 476.53061224489795 371.9159101136463 L 481.63265306122446 372.13415856157167 L 486.73469387755097 372.27811591319687 L 491.8367346938776 371.37810717738614 L 496.9387755102041 372.16058622428716 L 502.0408163265306 372.1494278778073 L 507.1428571428571 371.32048019063154 L 512.2448979591837 371.62058098280073 L 517.3469387755102 371.7840654407657 L 522.4489795918366 372.09613209133107 L 527.5510204081631 372.0423958438096 L 532.6530612244898 372.71064865964036 L 537.7551020408164 372.40210569743704 L 542.8571428571428 371.6763727152001 L 547.9591836734693 371.9697931815162 L 553.0612244897959 372.37868785186413 L 558.1632653061225 372.8286188095953 L 563.2653061224489 372.6619043039651 L 568.3673469387754 372.8445488173988 L 573.469387755102 372.3384590763972 L 578.5714285714287 372.3383122560488 L 583.6734693877551 371.7341465223031 L 588.7755102040816 372.1747543879096 L 593.8775510204081 372.3839733844072 L 598.9795918367346 372.90753474687074 L 604.0816326530612 373.0964925352864 L 609.1836734693877 372.27811591319687 L 614.2857142857142 372.84932047872246 L 619.3877551020407 372.96707039815476 L 624.4897959183673 373.4455579136535 L 629.5918367346939 373.479693644661 L 634.6938775510204 373.2115996884472 L 639.7959183673469 373.17305934698715 L 644.8979591836735 373.7772250807328 L 650 373.0008390782912 L 650 400 Z" /><text  class="poloto_text" alignment-baseline="middle" text-anchor="start" font-size="large" x="675" y="400" >Level 6</text><rect  class="poloto6fill poloto6legend" x="680" y="376.25" width="50" height="7.5" rx="5" ry="5" /><path  class="poloto6fill" d=" M 150 400 L 150 370.67872844769045 L 155.1020408163265 374.9630930349161 L 160.20408163265307 382.9929915306682 L 165.30612244897958 386.6020559253389 L 170.40816326530614 387.9240263425069 L 175.51020408163265 387.5736395810041 L 180.61224489795921 387.8489277342904 L 185.71428571428567 387.74630031074526 L 190.8163265306123 387.251515736572 L 195.91836734693874 387.262013391484 L 201.02040816326524 386.35598502138805 L 206.1224489795918 387.05117937115375 L 211.22448979591832 386.8934209067771 L 216.32653061224488 386.8478331885929 L 221.4285714285714 386.52967349356817 L 226.53061224489795 386.0456068048295 L 231.63265306122446 386.28639217623726 L 236.73469387755102 386.1650451582687 L 241.83673469387753 385.0253522036633 L 246.9387755102041 382.6398885927196 L 252.0408163265306 382.49850059719176 L 257.14285714285717 382.1963443201447 L 262.2448979591836 384.23868877683236 L 267.34693877551024 385.36120375067264 L 272.4489795918367 385.4680889643219 L 277.5510204081633 385.4458456815364 L 282.65306122448976 385.16108761577703 L 287.75510204081627 385.03335391265216 L 292.85714285714283 384.7888980325339 L 297.95918367346934 383.73399382914073 L 303.0612244897959 384.37457100929447 L 308.1632653061224 384.69596075198444 L 313.265306122449 384.5324762940195 L 318.36734693877554 384.5194826931844 L 323.46938775510205 384.28875451564335 L 328.57142857142856 383.83229005240753 L 333.67346938775506 384.1057429513386 L 338.77551020408157 383.9852768554605 L 343.8775510204082 384.1853929903561 L 348.9795918367347 383.5639758656711 L 354.0816326530612 384.0260929123211 L 359.1836734693877 383.0075267451617 L 364.28571428571433 383.453640373834 L 369.3877551020407 383.6303386631567 L 374.48979591836724 383.0586202264117 L 379.59183673469386 383.4387381084694 L 384.6938775510205 383.2698947077871 L 389.79591836734687 382.8496948706109 L 394.8979591836734 383.0522335412554 L 400 383.24897280813735 L 405.1020408163266 383.19663135392585 L 410.204081632653 382.84573072120355 L 415.3061224489795 382.94696335143874 L 420.40816326530614 383.0363769436261 L 425.51020408163265 382.46634694088795 L 430.61224489795916 382.9422651002893 L 435.71428571428567 382.51956931718996 L 440.8163265306122 382.64994578658633 L 445.9183673469387 382.7284946729907 L 451.0204081632653 382.801758026852 L 456.1224489795918 381.9514479789812 L 461.2244897959183 382.273131362368 L 466.3265306122448 382.3230502808306 L 471.42857142857144 381.96913983096573 L 476.53061224489795 382.24310660111627 L 481.63265306122446 382.44608573280607 L 486.73469387755097 382.22240493198916 L 491.8367346938776 381.7862016768352 L 496.9387755102041 382.2602111717071 L 502.0408163265306 381.9755999262962 L 507.1428571428571 381.77702540505896 L 512.2448979591837 381.8142443633833 L 517.3469387755102 381.7552959934929 L 522.4489795918366 381.68188581928325 L 527.5510204081631 381.96040402023476 L 532.6530612244898 382.1302017531818 L 537.7551020408164 382.0954787407806 L 542.8571428571428 381.50159043142423 L 547.9591836734693 381.49938812619797 L 553.0612244897959 381.72035275056913 L 558.1632653061225 381.98132591988457 L 563.2653061224489 382.06457305743834 L 568.3673469387754 381.9182665802384 L 573.469387755102 381.7428162638773 L 578.5714285714287 381.54849953274424 L 583.6734693877551 381.1614810943108 L 588.7755102040816 381.22586181709266 L 593.8775510204081 381.37275557568626 L 598.9795918367346 381.95937627779585 L 604.0816326530612 381.9021163419123 L 609.1836734693877 381.46980382599145 L 614.2857142857142 381.7719601030385 L 619.3877551020407 381.7229955168407 L 624.4897959183673 381.9784629230904 L 629.5918367346939 382.0157552915889 L 634.6938775510204 381.84705871125504 L 639.7959183673469 381.69928403057094 L 644.8979591836735 382.2165321180524 L 650 381.6174316863271 L 650 400 Z" /><text  class="poloto_text" alignment-baseline="start" text-anchor="middle" font-size="x-large" x="400" y="37.5" >Bench of query levels with abspiral(5000,x)</text><text  class="poloto_text" alignment-baseline="start" text-anchor="middle" font-size="x-large" x="400" y="481.25" >Spiral Grow</text><text  class="poloto_text" alignment-baseline="start" text-anchor="middle" font-size="x-large" transform="rotate(-90,37.5,250)" x="37.5" y="250" >Time taken in Seconds</text><line  class="poloto_axis_lines" stroke="black" x1="201.58730158730162" x2="201.58730158730162" y1="400" y2="405" /><text  class="poloto_text" alignment-baseline="start" text-anchor="middle" x="201.58730158730162" y="430" > 0.7</text><line  class="poloto_axis_lines" stroke="black" x1="258.2766439909297" x2="258.2766439909297" y1="400" y2="405" /><text  class="poloto_text" alignment-baseline="start" text-anchor="middle" x="258.2766439909297" y="430" > 0.8</text><line  class="poloto_axis_lines" stroke="black" x1="314.9659863945579" x2="314.9659863945579" y1="400" y2="405" /><text  class="poloto_text" alignment-baseline="start" text-anchor="middle" x="314.9659863945579" y="430" > 0.9</text><line  class="poloto_axis_lines" stroke="black" x1="371.6553287981859" x2="371.6553287981859" y1="400" y2="405" /><text  class="poloto_text" alignment-baseline="start" text-anchor="middle" x="371.6553287981859" y="430" > 1.0</text><line  class="poloto_axis_lines" stroke="black" x1="428.3446712018141" x2="428.3446712018141" y1="400" y2="405" /><text  class="poloto_text" alignment-baseline="start" text-anchor="middle" x="428.3446712018141" y="430" > 1.1</text><line  class="poloto_axis_lines" stroke="black" x1="485.03401360544217" x2="485.03401360544217" y1="400" y2="405" /><text  class="poloto_text" alignment-baseline="start" text-anchor="middle" x="485.03401360544217" y="430" > 1.2</text><line  class="poloto_axis_lines" stroke="black" x1="541.7233560090704" x2="541.7233560090704" y1="400" y2="405" /><text  class="poloto_text" alignment-baseline="start" text-anchor="middle" x="541.7233560090704" y="430" > 1.3</text><line  class="poloto_axis_lines" stroke="black" x1="598.4126984126984" x2="598.4126984126984" y1="400" y2="405" /><text  class="poloto_text" alignment-baseline="start" text-anchor="middle" x="598.4126984126984" y="430" > 1.4</text><line  class="poloto_axis_lines" stroke="black" x1="150" x2="144" y1="400" y2="400" /><text  class="poloto_text" alignment-baseline="middle" text-anchor="end" x="135" y="400" > 0e0</text><line  class="poloto_axis_lines" stroke="black" x1="150" x2="144" y1="326.58982579031556" y2="326.58982579031556" /><text  class="poloto_text" alignment-baseline="middle" text-anchor="end" x="135" y="326.58982579031556" > 0.001</text><line  class="poloto_axis_lines" stroke="black" x1="150" x2="144" y1="253.17965158063112" y2="253.17965158063112" /><text  class="poloto_text" alignment-baseline="middle" text-anchor="end" x="135" y="253.17965158063112" > 0.002</text><line  class="poloto_axis_lines" stroke="black" x1="150" x2="144" y1="179.76947737094673" y2="179.76947737094673" /><text  class="poloto_text" alignment-baseline="middle" text-anchor="end" x="135" y="179.76947737094673" > 0.003</text><line  class="poloto_axis_lines" stroke="black" x1="150" x2="144" y1="106.35930316126229" y2="106.35930316126229" /><text  class="poloto_text" alignment-baseline="middle" text-anchor="end" x="135" y="106.35930316126229" > 0.004</text><path  stroke="black" fill="none" class="poloto_axis_lines" style="stroke-dasharray:14.172335600907028;stroke-dashoffset:-51.587301587301624;" d=" M 150 400 L 650 400" /><path  stroke="black" fill="none" class="poloto_axis_lines" style="stroke-dasharray:9.176271776210553;stroke-dashoffset:-0;" d=" M 150 400 L 150 100" /></svg>