<svg class="poloto" width="800" height="500" viewBox="0 0 800 500" xmlns="http://www.w3.org/2000/svg" ><style><style>.poloto {
            font-family: "Arial";
            stroke-width:2;
            }
            .poloto_text{fill: var(--poloto_fg_color,black);  }
            .poloto_axis_lines{stroke: var(--poloto_fg_color,black);stoke-width:3;fill:none}
            .poloto_background{fill: var(--poloto_bg_color,aliceblue); }
            .poloto0stroke{stroke:  var(--poloto_color0,blue); }
            .poloto1stroke{stroke:  var(--poloto_color1,red); }
            .poloto2stroke{stroke:  var(--poloto_color2,green); }
            .poloto3stroke{stroke:  var(--poloto_color3,gold); }
            .poloto4stroke{stroke:  var(--poloto_color4,aqua); }
            .poloto5stroke{stroke:  var(--poloto_color5,brown); }
            .poloto6stroke{stroke:  var(--poloto_color6,lime); }
            .poloto7stroke{stroke:  var(--poloto_color7,chocolate); }
            .poloto0fill{fill:var(--poloto_color0,blue);}
            .poloto1fill{fill:var(--poloto_color1,red);}
            .poloto2fill{fill:var(--poloto_color2,green);}
            .poloto3fill{fill:var(--poloto_color3,gold);}
            .poloto4fill{fill:var(--poloto_color4,aqua);}
            .poloto5fill{fill:var(--poloto_color5,brown);}
            .poloto6fill{fill:var(--poloto_color6,lime);}
            .poloto7fill{fill:var(--poloto_color7,chocolate);}</style></style><rect class="poloto_background" fill="white" x="0" y="0" width="800" height="500" /><line class="poloto_axis_lines" stroke="black" x1="246.9387755102041" x2="246.9387755102041" y1="400" y2="405" /><text class="poloto_text" alignment-baseline="start" text-anchor="middle" x="246.9387755102041" y="430" >0.10</text><line class="poloto_axis_lines" stroke="black" x1="348.9795918367347" x2="348.9795918367347" y1="400" y2="405" /><text class="poloto_text" alignment-baseline="start" text-anchor="middle" x="348.9795918367347" y="430" >0.15</text><line class="poloto_axis_lines" stroke="black" x1="451.02040816326536" x2="451.02040816326536" y1="400" y2="405" /><text class="poloto_text" alignment-baseline="start" text-anchor="middle" x="451.02040816326536" y="430" >0.20</text><line class="poloto_axis_lines" stroke="black" x1="553.0612244897959" x2="553.0612244897959" y1="400" y2="405" /><text class="poloto_text" alignment-baseline="start" text-anchor="middle" x="553.0612244897959" y="430" >0.25</text><line class="poloto_axis_lines" stroke="black" x1="150" x2="144" y1="382.333537467988" y2="382.333537467988" /><text class="poloto_text" alignment-baseline="middle" text-anchor="end" x="135" y="382.333537467988" >10000</text><line class="poloto_axis_lines" stroke="black" x1="150" x2="144" y1="340.578721745908" y2="340.578721745908" /><text class="poloto_text" alignment-baseline="middle" text-anchor="end" x="135" y="340.578721745908" >20000</text><line class="poloto_axis_lines" stroke="black" x1="150" x2="144" y1="298.8239060238281" y2="298.8239060238281" /><text class="poloto_text" alignment-baseline="middle" text-anchor="end" x="135" y="298.8239060238281" >30000</text><line class="poloto_axis_lines" stroke="black" x1="150" x2="144" y1="257.06909030174813" y2="257.06909030174813" /><text class="poloto_text" alignment-baseline="middle" text-anchor="end" x="135" y="257.06909030174813" >40000</text><line class="poloto_axis_lines" stroke="black" x1="150" x2="144" y1="215.31427457966822" y2="215.31427457966822" /><text class="poloto_text" alignment-baseline="middle" text-anchor="end" x="135" y="215.31427457966822" >50000</text><line class="poloto_axis_lines" stroke="black" x1="150" x2="144" y1="173.55945885758825" y2="173.55945885758825" /><text class="poloto_text" alignment-baseline="middle" text-anchor="end" x="135" y="173.55945885758825" >60000</text><line class="poloto_axis_lines" stroke="black" x1="150" x2="144" y1="131.8046431355083" y2="131.8046431355083" /><text class="poloto_text" alignment-baseline="middle" text-anchor="end" x="135" y="131.8046431355083" >70000</text><text class="poloto_text" alignment-baseline="middle" text-anchor="start" font-size="large" x="675" y="100" >Level 0</text><rect class="poloto0fill" x="680" y="76.25" width="50" height="7.5" rx="5" ry="5" /><path class="poloto0fill"  d="M 150 400 L 150 145.34990535575105 L 155.1020408163265 138.5355194299076 L 160.20408163265304 150.24774523995103 L 165.30612244897958 142.70682552054336 L 170.40816326530611 146.29356419107003 L 175.51020408163265 144.8571985302305 L 180.6122448979592 137.84238948892107 L 185.71428571428572 152.6862264781205 L 190.81632653061226 138.79439928738446 L 195.9183673469388 136.62732435140856 L 201.0204081632653 139.98023605389153 L 206.12244897959184 146.85725420331812 L 211.22448979591837 146.81132390602383 L 216.32653061224488 140.13055339049106 L 221.4285714285714 140.88214007348847 L 226.53061224489795 142.0888542478566 L 231.63265306122446 128.56029395390271 L 236.73469387755102 140.49382028727314 L 241.83673469387753 130.0843447277586 L 246.9387755102041 136.33086515978175 L 252.0408163265306 141.2495824518428 L 257.14285714285717 137.5 L 262.2448979591837 134.91955238837545 L 267.3469387755102 132.50612403963925 L 272.44897959183675 131.07810934194413 L 277.55102040816325 138.19730542255877 L 282.65306122448976 135.86321122369446 L 287.7551020408163 131.10733771294957 L 292.85714285714283 131.94660950896338 L 297.9591836734694 131.89232824852468 L 303.0612244897959 132.9612515310099 L 308.1632653061224 129.871395167576 L 313.265306122449 129.1365104108674 L 318.36734693877554 130.25971495379133 L 323.46938775510205 116.01714731098986 L 328.57142857142856 130.63968377686228 L 333.6734693877551 129.95490479902014 L 338.7755102040817 139.77563745685336 L 343.8775510204082 124.96520432023163 L 348.9795918367347 132.5896336710834 L 354.08163265306126 124.89004565193187 L 359.1836734693877 126.00072375013917 L 364.2857142857143 130.6563857031511 L 369.38775510204084 127.0445941431912 L 374.48979591836735 129.97160672530902 L 379.59183673469386 135.512470771629 L 384.6938775510204 128.94861374011805 L 389.79591836734687 122.88998997884426 L 394.89795918367344 123.69585792228037 L 400 117.14452733548603 L 405.1020408163265 122.06742010911927 L 410.2040816326531 117.41175815610734 L 415.3061224489796 127.62498608172808 L 420.40816326530614 125.82117804253426 L 425.51020408163265 125.09464424897004 L 430.6122448979592 125.35352410644697 L 435.7142857142857 123.7042088854248 L 440.8163265306123 116.50567865493821 L 445.9183673469388 116.15493820287276 L 451.02040816326536 116.45139739449951 L 456.12244897959187 111.89177151764835 L 461.22448979591843 117.22386148535799 L 466.32653061224494 118.85647478009133 L 471.4285714285715 120.92333815833427 L 476.530612244898 122.94844672085515 L 481.6326530612246 112.01286048324243 L 486.7346938775511 127.74607504732211 L 491.83673469387764 114.22586571651266 L 496.93877551020415 111.47004787885538 L 502.0408163265307 126.06335597372231 L 507.1428571428571 114.60583453958355 L 512.2448979591836 118.96503730096873 L 517.3469387755101 102.20882975169803 L 522.4489795918367 119.64146531566644 L 527.5510204081633 112.0546152989645 L 532.6530612244899 106.75592918383256 L 537.7551020408164 123.17809820732657 L 542.8571428571429 118.07565972608842 L 547.9591836734694 111.02744683220135 L 553.0612244897959 115.97539249526778 L 558.1632653061224 112.60160338492375 L 563.265306122449 113.29055784433808 L 568.3673469387755 116.2927290947556 L 573.4693877551022 115.81254871395168 L 578.5714285714287 110.09631444159896 L 583.6734693877552 100 L 588.7755102040817 123.42862710165906 L 593.8775510204082 111.04832424006236 L 598.9795918367347 115.60377463534127 L 604.0816326530613 115.4534572987418 L 609.1836734693878 123.89210555617416 L 614.2857142857144 121.01102327135067 L 619.387755102041 111.7331032179045 L 624.4897959183675 112.19658167241954 L 629.591836734694 122.96514864714396 L 634.6938775510205 119.09865271127939 L 639.795918367347 115.46180826188623 L 644.8979591836735 118.29696024941546 L 650 106.56385703151096 L 650 400 z"/><text class="poloto_text" alignment-baseline="middle" text-anchor="start" font-size="large" x="675" y="150" >Level 1</text><rect class="poloto1fill" x="680" y="126.25" width="50" height="7.5" rx="5" ry="5" /><path class="poloto1fill"  d="M 150 400 L 150 201.32641131277143 L 155.1020408163265 205.7190179267342 L 160.20408163265304 211.67743013027504 L 165.30612244897958 201.98196191960807 L 170.40816326530611 202.6291615633003 L 175.51020408163265 202.683442823739 L 180.6122448979592 203.2972386148536 L 185.71428571428572 204.79623649927626 L 190.81632653061226 198.74178821957466 L 195.9183673469388 196.17386705266674 L 201.0204081632653 197.69791782652266 L 206.12244897959184 199.6436922391716 L 211.22448979591837 200.9005121924062 L 216.32653061224488 195.78972274802362 L 221.4285714285714 196.29913149983298 L 226.53061224489795 199.68127157332145 L 231.63265306122446 185.64330252755818 L 236.73469387755102 195.998496826634 L 241.83673469387753 193.19674869168244 L 246.9387755102041 191.17999109230598 L 252.0408163265306 193.55584010689233 L 257.14285714285717 195.13417214118695 L 262.2448979591837 192.1403518539138 L 267.3469387755102 184.59943213450617 L 272.44897959183675 189.0337935641911 L 277.55102040816325 189.44716623983967 L 282.65306122448976 191.77290947555952 L 287.7551020408163 190.52444048546934 L 292.85714285714283 189.3594811268233 L 297.9591836734694 186.3239060238281 L 303.0612244897959 194.07359982184613 L 308.1632653061224 185.48045874624208 L 313.265306122449 185.1798240730431 L 318.36734693877554 184.46164124262333 L 323.46938775510205 180.0565081839439 L 328.57142857142856 180.70370782763612 L 333.6734693877551 181.6891214786772 L 338.7755102040817 189.53902683442826 L 343.8775510204082 183.9271796013807 L 348.9795918367347 183.350963144416 L 354.08163265306126 181.59308540251644 L 359.1836734693877 184.57020376350073 L 364.2857142857143 183.98146086181941 L 369.38775510204084 182.6160783877074 L 374.48979591836735 183.62236944660953 L 379.59183673469386 184.38230709275138 L 384.6938775510204 183.5096314441599 L 389.79591836734687 179.8018038080392 L 394.89795918367344 184.17353301414096 L 400 176.27769736109565 L 405.1020408163265 173.6387930074602 L 410.2040816326531 174.11062242511971 L 415.3061224489796 182.528393274691 L 420.40816326530614 180.26528226255428 L 425.51020408163265 175.45930297294288 L 430.6122448979592 180.76634005121926 L 435.7142857142857 175.4091971940764 L 440.8163265306123 177.7683442823739 L 445.9183673469388 178.1357866607282 L 451.02040816326536 172.78281928515756 L 456.12244897959187 167.471606725309 L 461.22448979591843 176.43636566083956 L 466.32653061224494 174.35280035630777 L 471.4285714285715 173.91855027279814 L 476.530612244898 177.56792116690792 L 481.6326530612246 171.9101436365661 L 486.7346938775511 179.78510188175036 L 491.83673469387764 169.3547489143748 L 496.93877551020415 174.60750473221245 L 502.0408163265307 178.29863044204433 L 507.1428571428571 165.19179378688344 L 512.2448979591836 177.22553167798688 L 517.3469387755101 172.16067253089858 L 522.4489795918367 171.04164346954684 L 527.5510204081633 167.6845562854916 L 532.6530612244899 166.9580224919274 L 537.7551020408164 174.578276361207 L 542.8571428571429 164.69073599821846 L 547.9591836734694 173.6847233047545 L 553.0612244897959 168.21484244516202 L 558.1632653061224 172.29846342278142 L 563.265306122449 170.16061685781094 L 568.3673469387755 171.76817726311103 L 573.4693877551022 172.39867498051441 L 578.5714285714287 169.65955906914598 L 583.6734693877552 163.52160115800024 L 588.7755102040817 173.64714397060462 L 593.8775510204082 169.7764725531678 L 598.9795918367347 168.44449393163345 L 604.0816326530613 173.09180492150097 L 609.1836734693878 171.0833982852689 L 614.2857142857144 172.88720632446277 L 619.387755102041 167.25865716512638 L 624.4897959183675 166.87033737891105 L 629.591836734694 175.14614185502728 L 634.6938775510205 170.703429462198 L 639.795918367347 168.2064914820176 L 644.8979591836735 165.60934194410422 L 650 167.8515755483799 L 650 400 z"/><text class="poloto_text" alignment-baseline="middle" text-anchor="start" font-size="large" x="675" y="200" >Level 2</text><rect class="poloto2fill" x="680" y="176.25" width="50" height="7.5" rx="5" ry="5" /><path class="poloto2fill"  d="M 150 400 L 150 259.63701146865606 L 155.1020408163265 258.129662621089 L 160.20408163265304 260.01280481015476 L 165.30612244897958 254.4928181716958 L 170.40816326530611 254.97299855249972 L 175.51020408163265 255.741287161786 L 180.6122448979592 254.76422447388933 L 185.71428571428572 256.02521990869616 L 190.81632653061226 252.94788998997885 L 195.9183673469388 249.7912259213896 L 201.0204081632653 249.02711279367554 L 206.12244897959184 251.52405077385592 L 211.22448979591837 250.86850016701928 L 216.32653061224488 246.7640017815388 L 221.4285714285714 245.96648480124708 L 226.53061224489795 251.49064692127826 L 231.63265306122446 239.14374791225922 L 236.73469387755102 246.31304977174034 L 241.83673469387753 244.60110232713507 L 246.9387755102041 241.0728203986193 L 252.0408163265306 243.2064914820176 L 257.14285714285717 242.08328693909365 L 262.2448979591837 245.31093419441044 L 267.3469387755102 244.38397728538024 L 272.44897959183675 241.25654158779648 L 277.55102040816325 239.8160004453847 L 282.65306122448976 240.57176260995436 L 287.7551020408163 244.06664068589245 L 292.85714285714283 240.4423226812159 L 297.9591836734694 239.62810377463535 L 303.0612244897959 240.77218572542034 L 308.1632653061224 236.94326912370562 L 313.265306122449 240.1208106001559 L 318.36734693877554 240.92667854359203 L 323.46938775510205 231.41493152210222 L 328.57142857142856 231.63205656385705 L 333.6734693877551 235.61546598374346 L 338.7755102040817 240.14586348958915 L 343.8775510204082 231.28966707493598 L 348.9795918367347 237.7783654381472 L 354.08163265306126 234.17492484133172 L 359.1836734693877 234.76784322458525 L 364.2857142857143 235.64886983632113 L 369.38775510204084 233.10182607727424 L 374.48979591836735 231.79490034517315 L 379.59183673469386 232.95568422224696 L 384.6938775510204 232.3836432468545 L 389.79591836734687 231.5067921166908 L 394.89795918367344 231.3021935196526 L 400 228.1664068589244 L 405.1020408163265 227.89500055673088 L 410.2040816326531 227.71127936755374 L 415.3061224489796 231.51931856140743 L 420.40816326530614 232.2959581338381 L 425.51020408163265 230.38776305533906 L 430.6122448979592 228.29584678766284 L 435.7142857142857 228.8428348736221 L 440.8163265306123 229.19357532568756 L 445.9183673469388 227.7446832201314 L 451.02040816326536 224.30408640463202 L 456.12244897959187 225.47322124485024 L 461.22448979591843 228.85953679991093 L 466.32653061224494 225.64441598931077 L 471.4285714285715 222.6213673310322 L 476.530612244898 225.648591470883 L 481.6326530612246 224.604721077831 L 486.7346938775511 225.48992317113908 L 491.83673469387764 224.2915599599154 L 496.93877551020415 226.2289834094199 L 502.0408163265307 225.89912036521545 L 507.1428571428571 218.28304197750808 L 512.2448979591836 225.42311546598376 L 517.3469387755101 219.88642690123595 L 522.4489795918367 221.8990090190402 L 527.5510204081633 225.12248079278478 L 532.6530612244899 220.87601603384925 L 537.7551020408164 222.98045874624208 L 542.8571428571429 217.79451063355975 L 547.9591836734694 225.67781984188844 L 553.0612244897959 222.09525665293398 L 558.1632653061224 222.09108117136176 L 563.265306122449 229.02655606279924 L 568.3673469387755 222.30403073154437 L 573.4693877551022 219.2893330364102 L 578.5714285714287 218.80080169246187 L 583.6734693877552 221.92823739004567 L 588.7755102040817 223.0556174145418 L 593.8775510204082 223.49821846119588 L 598.9795918367347 223.06396837768622 L 604.0816326530613 219.09726088408863 L 609.1836734693878 223.6652377240842 L 614.2857142857144 223.4773410533348 L 619.387755102041 219.92400623538583 L 624.4897959183675 216.27045985970383 L 629.591836734694 222.64642022046544 L 634.6938775510205 219.10561184723306 L 639.795918367347 218.0283376016034 L 644.8979591836735 220.62131165794455 L 650 223.1516534907026 L 650 400 z"/><text class="poloto_text" alignment-baseline="middle" text-anchor="start" font-size="large" x="675" y="250" >Level 3</text><rect class="poloto3fill" x="680" y="226.25" width="50" height="7.5" rx="5" ry="5" /><path class="poloto3fill"  d="M 150 400 L 150 312.9579111457522 L 155.1020408163265 312.53201202538696 L 160.20408163265304 312.12281483131056 L 165.30612244897958 307.1999220576773 L 170.40816326530611 309.1832758044761 L 175.51020408163265 306.953568644917 L 180.6122448979592 305.6341164680993 L 185.71428571428572 305.3293063133282 L 190.81632653061226 304.85330141409645 L 195.9183673469388 300.8740674757822 L 201.0204081632653 302.72380581227037 L 206.12244897959184 302.0223249081394 L 211.22448979591837 303.6507627213005 L 216.32653061224488 300.6569424340274 L 221.4285714285714 297.1829417659503 L 226.53061224489795 300.3771851686895 L 231.63265306122446 294.66930185948115 L 236.73469387755102 297.8927736332257 L 241.83673469387753 296.5774969379802 L 246.9387755102041 295.76327803139964 L 252.0408163265306 295.42088854247856 L 257.14285714285717 294.47722970715955 L 262.2448979591837 296.60254982741344 L 267.3469387755102 294.40207103885984 L 272.44897959183675 294.7611624540697 L 277.55102040816325 293.1076717514753 L 282.65306122448976 291.1284934862488 L 287.7551020408163 296.13907137289834 L 292.85714285714283 290.932245852355 L 297.9591836734694 291.7214118695023 L 303.0612244897959 293.29556842222473 L 308.1632653061224 289.4290724863601 L 313.265306122449 292.8237390045652 L 318.36734693877554 290.410310655829 L 323.46938775510205 285.11162454069705 L 328.57142857142856 285.6544371450841 L 333.6734693877551 288.8904353635453 L 338.7755102040817 290.4854693241287 L 343.8775510204082 285.85486026055 L 348.9795918367347 286.1972497494711 L 354.08163265306126 284.72330475448166 L 359.1836734693877 284.4644248970048 L 364.2857142857143 283.7128382140073 L 369.38775510204084 284.8861485357978 L 374.48979591836735 283.08234049660393 L 379.59183673469386 283.6710833982853 L 384.6938775510204 284.4435474891437 L 389.79591836734687 283.59592472998554 L 394.89795918367344 284.1178599265115 L 400 279.63339271796013 L 405.1020408163265 281.1616189733883 L 410.2040816326531 281.32863823627656 L 415.3061224489796 281.4204988308652 L 420.40816326530614 282.73995100768286 L 425.51020408163265 280.95284489477785 L 430.6122448979592 281.4455517202984 L 435.7142857142857 281.3035853468433 L 440.8163265306123 278.6187506959136 L 445.9183673469388 280.9236165237724 L 451.02040816326536 277.1907359982185 L 456.12244897959187 278.8651041086739 L 461.22448979591843 279.2325464870282 L 466.32653061224494 280.8860371896225 L 471.4285714285715 276.74813495156445 L 476.530612244898 278.8859815165349 L 481.6326530612246 277.19908696136287 L 486.7346938775511 278.6020487696248 L 491.83673469387764 276.55188731767066 L 496.93877551020415 277.61245963701145 L 502.0408163265307 276.55606279924285 L 507.1428571428571 274.7480792784768 L 512.2448979591836 276.4224473889322 L 517.3469387755101 272.9818505734328 L 522.4489795918367 275.35769958801916 L 527.5510204081633 277.6249860817281 L 532.6530612244899 271.59559069145973 L 537.7551020408164 272.2469658167242 L 542.8571428571429 270.576773187841 L 547.9591836734694 276.9485580670304 L 553.0612244897959 274.4223917158446 L 558.1632653061224 273.8545262220243 L 563.265306122449 276.8942768065917 L 568.3673469387755 271.5747132835987 L 573.4693877551022 272.55595145306756 L 578.5714285714287 271.3659392049883 L 583.6734693877552 273.57894443825853 L 588.7755102040817 274.32218015811156 L 593.8775510204082 275.73349292951787 L 598.9795918367347 276.41409642578776 L 604.0816326530613 274.1342834873622 L 609.1836734693878 274.7480792784768 L 614.2857142857144 274.8983966150763 L 619.387755102041 271.0861819396504 L 624.4897959183675 270.85653045317895 L 629.591836734694 272.30542255873513 L 634.6938775510205 269.85859035742124 L 639.795918367347 272.37223026389046 L 644.8979591836735 270.17592695690905 L 650 272.83988419997775 L 650 400 z"/><text class="poloto_text" alignment-baseline="middle" text-anchor="start" font-size="large" x="675" y="300" >Level 4</text><rect class="poloto4fill" x="680" y="276.25" width="50" height="7.5" rx="5" ry="5" /><path class="poloto4fill"  d="M 150 400 L 150 355.9570203763501 L 155.1020408163265 354.6667965705378 L 160.20408163265304 355.18455628549157 L 165.30612244897958 354.78788553613185 L 170.40816326530611 351.81076717514753 L 175.51020408163265 351.20114686560515 L 180.6122448979592 350.77524774523994 L 185.71428571428572 351.2261997550384 L 190.81632653061226 348.47038191738113 L 195.9183673469388 347.142578777419 L 201.0204081632653 347.9317447945663 L 206.12244897959184 347.51837211891774 L 211.22448979591837 349.3889878632669 L 216.32653061224488 346.00267230820623 L 221.4285714285714 344.1696358980069 L 226.53061224489795 344.60388598151656 L 231.63265306122446 342.1737557064915 L 236.73469387755102 344.2030397505846 L 241.83673469387753 341.8063133281372 L 246.9387755102041 341.63929406524886 L 252.0408163265306 340.85430352967376 L 257.14285714285717 340.6664068589244 L 262.2448979591837 342.05266674089745 L 267.3469387755102 338.74568533570874 L 272.44897959183675 340.34071929629215 L 277.55102040816325 339.91064469435474 L 282.65306122448976 338.1611179155996 L 287.7551020408163 339.90646921278255 L 292.85714285714283 337.13812493040865 L 297.9591836734694 337.92311546598376 L 303.0612244897959 337.35942545373564 L 308.1632653061224 336.63706714174367 L 313.265306122449 338.5619641465316 L 318.36734693877554 336.0023939427681 L 323.46938775510205 333.0378020265004 L 328.57142857142856 335.1798240730431 L 333.6734693877551 336.08172809264 L 338.7755102040817 337.2592138960027 L 343.8775510204082 332.10249415432577 L 348.9795918367347 333.15471551052224 L 354.08163265306126 332.307092751364 L 359.1836734693877 333.1338381026612 L 364.2857142857143 334.04826856697474 L 369.38775510204084 332.11919608061464 L 374.48979591836735 330.46152989644804 L 379.59183673469386 332.54509520097986 L 384.6938775510204 331.5179267342167 L 389.79591836734687 328.9875849014586 L 394.89795918367344 329.7015922503062 L 400 327.93536354526225 L 405.1020408163265 329.7141186950228 L 410.2040816326531 327.8393274691014 L 415.3061224489796 329.97717403407194 L 420.40816326530614 330.4991092305979 L 425.51020408163265 326.9833537467988 L 430.6122448979592 328.2276472553168 L 435.7142857142857 328.7495824518428 L 440.8163265306123 326.63678877630554 L 445.9183673469388 327.88943324796793 L 451.02040816326536 324.93736777641686 L 456.12244897959187 326.45724306870056 L 461.22448979591843 327.730764948224 L 466.32653061224494 326.25681995323464 L 471.4285714285715 324.84550718182834 L 476.530612244898 326.344505066251 L 481.6326530612246 323.6763723416101 L 486.7346938775511 323.9644805700924 L 491.83673469387764 326.11485357977955 L 496.93877551020415 325.1753702260327 L 502.0408163265307 324.1231488698363 L 507.1428571428571 324.84968266340053 L 512.2448979591836 324.96659614742236 L 517.3469387755101 323.35068477897784 L 522.4489795918367 322.5406413539695 L 527.5510204081633 324.27346620643584 L 532.6530612244899 321.5176483687785 L 537.7551020408164 320.06040530007795 L 542.8571428571429 320.4445496047211 L 547.9591836734694 325.45930297294285 L 553.0612244897959 322.52393942768066 L 558.1632653061224 322.11474223360426 L 563.265306122449 323.7431800467654 L 568.3673469387755 321.1335040641354 L 573.4693877551022 321.6262108896559 L 578.5714285714287 321.3965594031845 L 583.6734693877552 320.89550161451956 L 588.7755102040817 322.9456630664737 L 593.8775510204082 323.0542255873511 L 598.9795918367347 323.71812715733216 L 604.0816326530613 321.7598262999666 L 609.1836734693878 323.03334817949 L 614.2857142857144 323.755706491482 L 619.387755102041 318.9956574991649 L 624.4897959183675 320.2107226366774 L 629.591836734694 318.87874401514307 L 634.6938775510205 318.72007571539916 L 639.795918367347 320.87879968823074 L 644.8979591836735 318.48207326578336 L 650 319.22113350406414 L 650 400 z"/><text class="poloto_text" alignment-baseline="middle" text-anchor="start" font-size="large" x="675" y="350" >Level 5</text><rect class="poloto5fill" x="680" y="326.25" width="50" height="7.5" rx="5" ry="5" /><path class="poloto5fill"  d="M 150 400 L 150 400 L 155.1020408163265 399.03546375682 L 160.20408163265304 398.4926511524329 L 165.30612244897958 396.9268455628549 L 170.40816326530611 396.246242066585 L 175.51020408163265 395.803641019931 L 180.6122448979592 395.624095312326 L 185.71428571428572 395.0478788553613 L 190.81632653061226 393.43614296848904 L 195.9183673469388 392.793118806369 L 201.0204081632653 394.0875180937535 L 206.12244897959184 393.1772631110121 L 211.22448979591837 392.46743124373677 L 216.32653061224488 391.39433247967935 L 221.4285714285714 391.4444382585458 L 226.53061224489795 391.75342389488924 L 231.63265306122446 390.20432023160004 L 236.73469387755102 389.5111902906135 L 241.83673469387753 388.8138848680548 L 246.9387755102041 388.48402182385036 L 252.0408163265306 387.74913706714176 L 257.14285714285717 387.9286827747467 L 262.2448979591837 387.64057454626436 L 267.3469387755102 386.9223917158446 L 272.44897959183675 387.48190624652045 L 277.55102040816325 386.8180046765394 L 282.65306122448976 385.1895668633782 L 287.7551020408163 386.4714397060461 L 292.85714285714283 384.09141520988754 L 297.9591836734694 385.2772519763946 L 303.0612244897959 384.6718071484245 L 308.1632653061224 384.73026389043537 L 313.265306122449 384.4880859592473 L 318.36734693877554 383.19786215343504 L 323.46938775510205 382.32518650484354 L 328.57142857142856 382.4170470994321 L 333.6734693877551 381.84083064246744 L 338.7755102040817 383.8492372786995 L 343.8775510204082 382.23332591025496 L 348.9795918367347 381.0975949226144 L 354.08163265306126 379.523438369892 L 359.1836734693877 380.55478231822735 L 364.2857142857143 380.98068143859257 L 369.38775510204084 379.86165237724083 L 374.48979591836735 380.5088520209331 L 379.59183673469386 379.8658278588131 L 384.6938775510204 380.07460193742344 L 389.79591836734687 378.3710054559626 L 394.89795918367344 378.078721745908 L 400 377.24780091303865 L 405.1020408163265 378.3334261218127 L 410.2040816326531 376.60477675091863 L 415.3061224489796 377.8073154437145 L 420.40816326530614 377.87412314886984 L 425.51020408163265 376.8511301636789 L 430.6122448979592 376.4168800801692 L 435.7142857142857 376.8260772742456 L 440.8163265306123 375.3521322792562 L 445.9183673469388 375.20599042422896 L 451.02040816326536 375.0932524217793 L 456.12244897959187 375.4648702817058 L 461.22448979591843 375.4523438369892 L 466.32653061224494 373.54414875849017 L 471.4285714285715 372.29567976839996 L 476.530612244898 373.60678098207325 L 481.6326530612246 373.66106224251195 L 486.7346938775511 372.70487696247636 L 491.83673469387764 374.2748580336266 L 496.93877551020415 373.69029061351745 L 502.0408163265307 373.37295401402963 L 507.1428571428571 372.3958913261329 L 512.2448979591836 373.6735886872286 L 517.3469387755101 372.3958913261329 L 522.4489795918367 372.08273020821736 L 527.5510204081633 372.8092640017815 L 532.6530612244899 370.4334149871952 L 537.7551020408164 370.46264335820064 L 542.8571428571429 370.0367442378354 L 547.9591836734694 372.22887206324464 L 553.0612244897959 371.1098430018929 L 558.1632653061224 372.3123816946888 L 563.265306122449 370.50857365549496 L 568.3673469387755 370.8217347734105 L 573.4693877551022 370.97205211001 L 578.5714285714287 370.34990535575105 L 583.6734693877552 370.94282373900455 L 588.7755102040817 369.77786438035855 L 593.8775510204082 370.89271796013804 L 598.9795918367347 370.2246409085848 L 604.0816326530613 369.26428014697694 L 609.1836734693878 371.05138625988195 L 614.2857142857144 368.8258545818951 L 619.387755102041 368.2371116802138 L 624.4897959183675 369.88225141966376 L 629.591836734694 368.65465983743456 L 634.6938775510205 368.1243736777642 L 639.795918367347 368.38742901681326 L 644.8979591836735 368.13690012248077 L 650 368.26216456964704 L 650 400 z"/><text class="poloto_text" alignment-baseline="start" text-anchor="middle" font-size="x-large" x="400" y="37.5" >Complexity of rebal levels with abspiral(3000,x)</text><text class="poloto_text" alignment-baseline="start" text-anchor="middle" font-size="x-large" x="400" y="481.25" >Spiral Grow</text><text class="poloto_text" alignment-baseline="start" text-anchor="middle" font-size="x-large" transform="rotate(-90,37.5,250)" x="37.5" y="250" >Number of Comparisons</text><path stroke="black" fill="none" class="poloto_axis_lines"  d="M 150 100 L 150 400 L 650 400 "/></svg>