<svg class="poloto" width="800" height="500" viewBox="0 0 800 500" xmlns="http://www.w3.org/2000/svg"><style>.poloto {
    font-family: "Arial";
    stroke-width:2;
    }
    .poloto_text{fill: var(--poloto_fg_color,black);  }
    .poloto_axis_lines{stroke: var(--poloto_fg_color,black);stoke-width:3;fill:none}
    .poloto_background{fill: var(--poloto_bg_color,aliceblue); }
    .poloto0stroke{stroke:  var(--poloto_color0,blue); }
    .poloto1stroke{stroke:  var(--poloto_color1,red); }
    .poloto2stroke{stroke:  var(--poloto_color2,green); }
    .poloto3stroke{stroke:  var(--poloto_color3,gold); }
    .poloto4stroke{stroke:  var(--poloto_color4,aqua); }
    .poloto5stroke{stroke:  var(--poloto_color5,brown); }
    .poloto6stroke{stroke:  var(--poloto_color6,lime); }
    .poloto7stroke{stroke:  var(--poloto_color7,chocolate); }
    .poloto0fill{fill:var(--poloto_color0,blue);}
    .poloto1fill{fill:var(--poloto_color1,red);}
    .poloto2fill{fill:var(--poloto_color2,green);}
    .poloto3fill{fill:var(--poloto_color3,gold);}
    .poloto4fill{fill:var(--poloto_color4,aqua);}
    .poloto5fill{fill:var(--poloto_color5,brown);}
    .poloto6fill{fill:var(--poloto_color6,lime);}
    .poloto7fill{fill:var(--poloto_color7,chocolate);}</style><rect class="poloto_background" fill="white" x="0" y="0" width="800" height="500"/><line class="poloto_axis_lines" stroke="black" x1="258.27664399092976" x2="258.27664399092976" y1="400" y2="405"/><text class="poloto_text" alignment-baseline="start" text-anchor="middle" x="258.27664399092976" y="430">0.8</text><line class="poloto_axis_lines" stroke="black" x1="371.6553287981859" x2="371.6553287981859" y1="400" y2="405"/><text class="poloto_text" alignment-baseline="start" text-anchor="middle" x="371.6553287981859" y="430">1.0</text><line class="poloto_axis_lines" stroke="black" x1="485.03401360544217" x2="485.03401360544217" y1="400" y2="405"/><text class="poloto_text" alignment-baseline="start" text-anchor="middle" x="485.03401360544217" y="430">1.2</text><line class="poloto_axis_lines" stroke="black" x1="598.4126984126984" x2="598.4126984126984" y1="400" y2="405"/><text class="poloto_text" alignment-baseline="start" text-anchor="middle" x="598.4126984126984" y="430">1.4</text><line class="poloto_axis_lines" stroke="black" x1="150" x2="144" y1="387.4831775361001" y2="387.4831775361001"/><text class="poloto_text" alignment-baseline="middle" text-anchor="end" x="135" y="387.4831775361001">0.0002</text><line class="poloto_axis_lines" stroke="black" x1="150" x2="144" y1="342.01705888771687" y2="342.01705888771687"/><text class="poloto_text" alignment-baseline="middle" text-anchor="end" x="135" y="342.01705888771687">0.0004</text><line class="poloto_axis_lines" stroke="black" x1="150" x2="144" y1="296.5509402393336" y2="296.5509402393336"/><text class="poloto_text" alignment-baseline="middle" text-anchor="end" x="135" y="296.5509402393336">0.0006</text><line class="poloto_axis_lines" stroke="black" x1="150" x2="144" y1="251.08482159095036" y2="251.08482159095036"/><text class="poloto_text" alignment-baseline="middle" text-anchor="end" x="135" y="251.08482159095036">0.0008</text><line class="poloto_axis_lines" stroke="black" x1="150" x2="144" y1="205.61870294256715" y2="205.61870294256715"/><text class="poloto_text" alignment-baseline="middle" text-anchor="end" x="135" y="205.61870294256715">0.0010</text><line class="poloto_axis_lines" stroke="black" x1="150" x2="144" y1="160.15258429418395" y2="160.15258429418395"/><text class="poloto_text" alignment-baseline="middle" text-anchor="end" x="135" y="160.15258429418395">0.0012</text><line class="poloto_axis_lines" stroke="black" x1="150" x2="144" y1="114.6864656458007" y2="114.6864656458007"/><text class="poloto_text" alignment-baseline="middle" text-anchor="end" x="135" y="114.6864656458007">0.0014</text><text class="poloto_text" alignment-baseline="middle" text-anchor="start" font-size="large" x="675" y="100">Level 0</text><rect class="poloto0fill" x="680" y="76.25" width="50" height="7.5" rx="5" ry="5"/><path class="poloto0fill" d=" M 150 400 L 150 100 L 155.10204081632654 110.21009893427413 L 160.20408163265307 108.69994180336812 L 165.3061224489796 120.9287364056305 L 170.40816326530614 117.93115520314262 L 175.51020408163268 109.0034281453461 L 180.61224489795921 126.55744189430038 L 185.71428571428567 137.64890153857345 L 190.8163265306123 146.1408358491252 L 195.91836734693874 154.44749572618485 L 201.02040816326527 154.17492634488775 L 206.1224489795918 155.92650856581673 L 211.22448979591834 165.84676099370748 L 216.32653061224488 175.95183319390392 L 221.42857142857142 175.09388753500892 L 226.53061224489795 176.49151602226019 L 231.6326530612245 181.2345415196595 L 236.73469387755102 185.9041392354417 L 241.83673469387756 192.1530025824755 L 246.9387755102041 196.83055686902117 L 252.0408163265306 188.91104099225254 L 257.14285714285717 198.57077256028805 L 262.2448979591836 204.18151893209176 L 267.34693877551024 199.32028152620666 L 272.4489795918367 205.9394664096315 L 277.5510204081633 207.6180755101298 L 282.65306122448976 204.1712890553959 L 287.75510204081627 209.75384643363762 L 292.85714285714283 218.00367366238675 L 297.9591836734694 224.21252682500997 L 303.0612244897959 217.1279962172189 L 308.1632653061224 224.54101953224455 L 313.265306122449 230.764194522242 L 318.36734693877554 225.9775215509402 L 323.46938775510205 230.7512366784272 L 328.57142857142856 230.03946459098677 L 333.6734693877551 233.83315753100786 L 338.77551020408157 236.59386025533772 L 343.8775510204082 237.6016167751791 L 348.97959183673464 242.96320881678972 L 354.0816326530612 235.18304659367837 L 359.1836734693877 245.21105372276577 L 364.28571428571433 249.9236169206707 L 369.3877551020408 244.92461717528096 L 374.48979591836724 251.53561815734912 L 379.59183673469386 245.63002400611063 L 384.6938775510205 251.8175080929691 L 389.7959183673469 258.25937511366527 L 394.8979591836734 257.6512657767431 L 400 261.51634052304223 L 405.1020408163266 252.90528498163167 L 410.2040816326531 260.1371258138435 L 415.3061224489795 265.1402175099116 L 420.40816326530614 253.12966027716143 L 425.5102040816326 263.9262721419998 L 430.6122448979592 256.25 L 435.71428571428567 261.63159713381583 L 440.8163265306121 266.6367348052231 L 445.91836734693874 269.0048375950242 L 451.02040816326536 269.58975921143565 L 456.1224489795918 272.798303204452 L 461.22448979591826 271.19130324082494 L 466.3265306122449 275.80247699414394 L 471.4285714285715 276.69634088677117 L 476.53061224489795 265.281617138908 L 481.6326530612244 274.29050121849195 L 486.734693877551 279.2604026479467 L 491.8367346938776 281.1822554832139 L 496.9387755102041 267.8818244644091 L 502.04081632653055 280.04901247590294 L 507.14285714285717 280.208825882952 L 512.2448979591837 284.5278798239552 L 517.3469387755102 280.834667006147 L 522.4489795918366 285.9323282290037 L 527.5510204081631 272.93902084166876 L 532.6530612244898 285.19145782562833 L 537.7551020408164 290.8865438475248 L 542.8571428571429 282.7374240715818 L 547.9591836734693 287.78120794384023 L 553.0612244897959 292.58584003200815 L 558.1632653061224 281.2547739424581 L 563.2653061224489 291.6908394864147 L 568.3673469387754 296.5873131342523 L 573.469387755102 287.9555705088568 L 578.5714285714287 292.60811843014585 L 583.6734693877552 297.5357363692576 L 588.7755102040816 298.96996508202085 L 593.877551020408 297.3620557960208 L 598.9795918367347 299.86905757829265 L 604.0816326530612 299.2311679336558 L 609.1836734693877 300.20437020332446 L 614.2857142857142 298.93245553413595 L 619.3877551020407 300.5076292147092 L 624.4897959183675 299.1879751209399 L 629.5918367346939 303.0505492307133 L 634.6938775510203 305.6662150365547 L 639.795918367347 303.6816189575528 L 644.8979591836735 306.0722274760848 L 650 307.1927399701742 L 650 400Z"/><text class="poloto_text" alignment-baseline="middle" text-anchor="start" font-size="large" x="675" y="150">Level 1</text><rect class="poloto1fill" x="680" y="126.25" width="50" height="7.5" rx="5" ry="5"/><path class="poloto1fill" d=" M 150 400 L 150 139.04653002582472 L 155.10204081632654 146.90239333648566 L 160.20408163265307 145.88349761757536 L 165.3061224489796 154.731431637144 L 170.40816326530614 152.76070272432983 L 175.51020408163268 142.56197031971777 L 180.61224489795921 158.14048121339977 L 185.71428571428567 168.574273451424 L 190.8163265306123 173.39777397883097 L 195.91836734693874 179.59503328119882 L 201.02040816326527 179.30495944422216 L 206.1224489795918 179.58480340450294 L 211.22448979591834 189.86605681446184 L 216.32653061224488 196.45932601025712 L 221.42857142857142 194.96417269850508 L 226.53061224489795 196.1892572654857 L 231.6326530612245 200.82748335940053 L 236.73469387755102 203.59023205906956 L 241.83673469387756 209.03048048594184 L 246.9387755102041 213.54640272069253 L 252.0408163265306 210.18804786672965 L 257.14285714285717 214.44185792747243 L 262.2448979591836 220.01509475139122 L 267.34693877551024 215.68672025606514 L 272.4489795918367 222.50641072272938 L 277.5510204081633 222.48481431637143 L 282.65306122448976 219.71797366602405 L 287.75510204081627 224.68060051649508 L 292.85714285714283 232.58511257410976 L 297.9591836734694 237.86713890808568 L 303.0612244897959 231.6639690102935 L 308.1632653061224 238.10083475793837 L 313.265306122449 244.28399956352524 L 318.36734693877554 239.93971192667223 L 323.46938775510205 243.87707780162222 L 328.57142857142856 243.06800822027424 L 333.6734693877551 247.17337140363 L 338.77551020408157 248.924044302186 L 343.8775510204082 250.79565707634669 L 348.97959183673464 255.87763248826974 L 354.0816326530612 247.615984068672 L 359.1836734693877 257.41415996799185 L 364.28571428571433 261.12510457207287 L 369.3877551020408 256.38730767831805 L 374.48979591836724 262.35405375913865 L 379.59183673469386 256.9499508965918 L 384.6938775510205 262.5900229149238 L 389.7959183673469 268.4749299821773 L 394.8979591836734 267.55037645946237 L 400 271.5479849416215 L 405.1020408163266 263.2290492125268 L 410.2040816326531 269.67546284508785 L 415.3061224489795 274.5232877459717 L 420.40816326530614 263.52707962026693 L 425.5102040816326 273.3043411050085 L 430.6122448979592 266.12319499508965 L 435.71428571428567 270.49817226203027 L 440.8163265306121 275.6913123340487 L 445.91836734693874 277.90664896519115 L 451.02040816326536 278.0346360891863 L 456.1224489795918 281.25227330593236 L 461.22448979591826 279.3642927290583 L 466.3265306122449 283.96409995271523 L 471.4285714285715 284.7390699450769 L 476.53061224489795 274.5730731458916 L 481.6326530612244 282.4216618775688 L 486.734693877551 287.03442694504054 L 491.8367346938776 289.4443585639981 L 496.9387755102041 276.61586585676355 L 502.04081632653055 288.8405685083476 L 507.14285714285717 288.0608245735278 L 512.2448979591837 291.79609355108573 L 517.3469387755102 288.3797693958462 L 522.4489795918366 293.07232750154583 L 527.5510204081631 281.1095096933765 L 532.6530612244898 292.5201414905612 L 537.7551020408164 298.0663259738842 L 542.8571428571429 290.4150601971411 L 547.9591836734693 294.7886734805223 L 553.0612244897959 299.7333412141272 L 558.1632653061224 288.64711017349873 L 563.2653061224489 298.97382970210595 L 568.3673469387754 302.8793692940021 L 573.469387755102 295.2274215254792 L 578.5714285714287 299.2711781180664 L 583.6734693877552 304.1533299385298 L 588.7755102040816 305.17108900447386 L 593.877551020408 303.7830084021387 L 598.9795918367347 306.474602626123 L 604.0816326530612 305.60051649510785 L 609.1836734693877 306.62736878478154 L 614.2857142857142 305.5286800276434 L 619.3877551020407 306.8187811442913 L 624.4897959183675 305.46320881678975 L 629.5918367346939 309.46877386971227 L 634.6938775510203 311.5070199687193 L 639.795918367347 309.0877677954388 L 644.8979591836735 311.2292219837777 L 650 312.296084457862 L 650 400Z"/><text class="poloto_text" alignment-baseline="middle" text-anchor="start" font-size="large" x="675" y="200">Level 2</text><rect class="poloto2fill" x="680" y="176.25" width="50" height="7.5" rx="5" ry="5"/><path class="poloto2fill" d=" M 150 400 L 150 175.2989397301131 L 155.10204081632654 179.59935256247041 L 160.20408163265307 179.09354199250714 L 165.3061224489796 186.74298912450442 L 170.40816326530614 183.7442712690503 L 175.51020408163268 175.96729167424436 L 180.61224489795921 192.05547775797473 L 185.71428571428567 198.46506383443054 L 190.8163265306123 202.1928309024115 L 195.91836734693874 207.40347543010947 L 201.02040816326527 206.77013239733742 L 206.1224489795918 206.13769868693848 L 211.22448979591834 216.26413996289963 L 216.32653061224488 222.32227294220343 L 221.42857142857142 220.87258574909976 L 226.53061224489795 223.0197232022696 L 231.6326530612245 225.03546357254572 L 236.73469387755102 228.09828865529403 L 241.83673469387756 232.58738588004218 L 246.9387755102041 237.08784963445237 L 252.0408163265306 233.64947441166842 L 257.14285714285717 237.2051522205652 L 262.2448979591836 242.43011857563744 L 267.34693877551024 237.87191285054374 L 272.4489795918367 244.30127668861164 L 277.5510204081633 245.06306150656528 L 282.65306122448976 241.66628778234457 L 287.75510204081627 244.58180264067215 L 292.85714285714283 251.89411850289164 L 297.9591836734694 256.4405030371367 L 303.0612244897959 250.51581311606589 L 308.1632653061224 256.16270505219507 L 313.265306122449 261.6438729858509 L 318.36734693877554 257.7324227985305 L 323.46938775510205 261.2039882879278 L 328.57142857142856 260.8973193176445 L 333.6734693877551 263.7491816098643 L 338.77551020408157 265.11930309533335 L 343.8775510204082 267.2593933001127 L 348.97959183673464 271.80191321427264 L 354.0816326530612 263.8987651402175 L 359.1836734693877 273.16680609609716 L 364.28571428571433 277.5983886807551 L 369.3877551020408 272.9483413959917 L 374.48979591836724 277.4979085585421 L 379.59183673469386 272.63348852435166 L 384.6938775510205 277.66272323864257 L 389.7959183673469 283.0479576619503 L 394.8979591836734 283.7051704070127 L 400 285.83207543738405 L 405.1020408163266 278.1398901538573 L 410.2040816326531 283.87157640126577 L 415.3061224489795 289.92470810751826 L 420.40816326530614 278.0876041174117 L 425.5102040816326 287.0721638235187 L 430.6122448979592 280.2754337467719 L 435.71428571428567 284.0920870767104 L 440.8163265306121 288.82420070563415 L 445.91836734693874 291.2830084021387 L 451.02040816326536 290.9411031899029 L 456.1224489795918 293.89844687738696 L 461.22448979591826 292.160049830866 L 466.3265306122449 296.4884243261921 L 471.4285714285715 297.22588477066887 L 476.53061224489795 288.49979994907795 L 481.6326530612244 295.0341905212236 L 486.734693877551 299.54965809478773 L 491.8367346938776 302.5840668533808 L 496.9387755102041 289.5418833884989 L 502.04081632653055 300.98843341941586 L 507.14285714285717 300.40010184410573 L 512.2448979591837 303.4088222456625 L 517.3469387755102 300.2368784781581 L 522.4489795918366 304.2626759538791 L 527.5510204081631 293.45674353471793 L 532.6530612244898 304.0396646419088 L 537.7551020408164 309.20916233223 L 542.8571428571429 302.12122176554027 L 547.9591836734693 306.2334048666933 L 553.0612244897959 310.8134343287382 L 558.1632653061224 300.2102807987487 L 563.2653061224489 309.95798930636886 L 568.3673469387754 313.42887280398645 L 573.469387755102 306.36207398246825 L 578.5714285714287 309.95526133925 L 583.6734693877552 314.8724220710726 L 588.7755102040816 315.56259775215506 L 593.877551020408 314.1679245626159 L 598.9795918367347 316.80336813006943 L 604.0816326530612 316.5010184410577 L 609.1836734693877 316.753128068963 L 614.2857142857142 315.8169806859928 L 619.3877551020407 316.7504001018441 L 624.4897959183675 315.4496144473138 L 629.5918367346939 319.32196377259663 L 634.6938775510203 321.06672607572835 L 639.795918367347 318.8943549267086 L 644.8979591836735 320.77187829629355 L 650 321.6261866656967 L 650 400Z"/><text class="poloto_text" alignment-baseline="middle" text-anchor="start" font-size="large" x="675" y="250">Level 3</text><rect class="poloto3fill" x="680" y="226.25" width="50" height="7.5" rx="5" ry="5"/><path class="poloto3fill" d=" M 150 400 L 150 228.46929218346486 L 155.10204081632654 230.69008474884512 L 160.20408163265307 227.55974247990395 L 165.3061224489796 233.94227621576397 L 170.40816326530614 229.6143563816244 L 175.51020408163268 226.13369766849738 L 180.61224489795921 235.2282853817335 L 185.71428571428567 239.81354344742294 L 190.8163265306123 240.4950805659622 L 195.91836734693874 244.0152948023133 L 201.02040816326527 244.13782599207067 L 206.1224489795918 247.79080129487505 L 211.22448979591834 249.45326992325317 L 216.32653061224488 254.84782490088384 L 221.42857142857142 251.9088949914523 L 226.53061224489795 254.09604262903284 L 231.6326530612245 255.83944094860504 L 236.73469387755102 256.83333030225873 L 241.83673469387756 260.66771541847015 L 246.9387755102041 265.5128123522351 L 252.0408163265306 261.0398555996071 L 257.14285714285717 263.4588804422944 L 262.2448979591836 267.79043756592586 L 267.34693877551024 264.003564543702 L 272.4489795918367 269.0143854799403 L 277.5510204081633 269.8727858000218 L 282.65306122448976 266.52011421089003 L 287.75510204081627 269.18874804495687 L 292.85714285714283 274.3475611973957 L 297.9591836734694 279.239942894555 L 303.0612244897959 273.0004001018441 L 308.1632653061224 277.6977321500018 L 313.265306122449 283.35303531808097 L 318.36734693877554 279.1249136143746 L 323.46938775510205 281.8340122940385 L 328.57142857142856 280.88854435674534 L 333.6734693877551 283.8122431164296 L 338.77551020408157 284.22302949841776 L 343.8775510204082 286.13419779580255 L 348.97959183673464 289.59848870621613 L 354.0816326530612 282.68695667988214 L 359.1836734693877 290.6971774633543 L 364.28571428571433 294.825046375441 L 369.3877551020408 290.37959662459537 L 374.48979591836724 294.0302986214673 L 379.59183673469386 289.67509911613865 L 384.6938775510205 293.63860800931144 L 389.7959183673469 298.19613174262537 L 394.8979591836734 298.6351071181755 L 400 300.4096497290219 L 405.1020408163266 292.9436583857709 L 410.2040816326531 297.7498817880915 L 415.3061224489795 303.4013203360855 L 420.40816326530614 292.72246571854646 L 425.5102040816326 301.1482468264649 L 430.6122448979592 294.269677736151 L 435.71428571428567 297.62712326774084 L 440.8163265306121 301.8954824864511 L 445.91836734693874 304.01011166478736 L 451.02040816326536 303.2894736842105 L 456.1224489795918 305.8437602298767 L 461.22448979591826 304.77689775579233 L 466.3265306122449 308.0479576619503 L 471.4285714285715 309.52515185683626 L 476.53061224489795 301.1568853890081 L 481.6326530612244 306.5937238569818 L 486.734693877551 310.5222238387953 L 491.8367346938776 313.3149801767722 L 496.9387755102041 302.85481758993194 L 502.04081632653055 311.6431909940712 L 507.14285714285717 311.69820499763574 L 512.2448979591837 314.2415796748263 L 517.3469387755102 310.76387625941146 L 522.4489795918366 314.55597788527984 L 527.5510204081631 304.8632833812243 L 532.6530612244898 314.56347979485685 L 537.7551020408164 318.9275451933219 L 542.8571428571429 312.5043192812716 L 547.9591836734693 316.14160877314225 L 553.0612244897959 320.07806532571925 L 558.1632653061224 311.51065725821115 L 563.2653061224489 319.06985414469136 L 568.3673469387754 322.11835740006546 L 573.469387755102 315.535318080966 L 578.5714285714287 318.371267231659 L 583.6734693877552 322.84331466191395 L 588.7755102040816 323.12133997744877 L 593.877551020408 321.7769068490161 L 598.9795918367347 324.1879751209399 L 604.0816326530612 323.99156148837886 L 609.1836734693877 323.98587822354784 L 614.2857142857142 323.2134088677118 L 619.3877551020407 324.1677426981413 L 624.4897959183675 322.4266176845015 L 629.5918367346939 326.18257374604445 L 634.6938775510203 327.53450878405414 L 639.795918367347 325.4751209398756 L 644.8979591836735 327.1889662823264 L 650 327.9900792929109 L 650 400Z"/><text class="poloto_text" alignment-baseline="middle" text-anchor="start" font-size="large" x="675" y="300">Level 4</text><rect class="poloto4fill" x="680" y="276.25" width="50" height="7.5" rx="5" ry="5"/><path class="poloto4fill" d=" M 150 400 L 150 277.50222783981377 L 155.10204081632654 277.9828047139272 L 160.20408163265307 274.2579929436584 L 165.3061224489796 279.82827446986505 L 170.40816326530614 273.8301567671771 L 175.51020408163268 272.7157821991052 L 180.61224489795921 279.28336303786415 L 185.71428571428567 281.5550776561306 L 190.8163265306123 280.9158240279344 L 195.91836734693874 284.519241261412 L 201.02040816326527 284.5415196595497 L 206.1224489795918 286.050994798676 L 211.22448979591834 288.4843414687375 L 216.32653061224488 290.70240606699883 L 221.42857142857142 287.435210780926 L 226.53061224489795 288.92468082784706 L 231.6326530612245 290.39778307205466 L 236.73469387755102 290.5537318590186 L 241.83673469387756 294.69160331720803 L 246.9387755102041 297.9640272069254 L 252.0408163265306 292.94115774924524 L 257.14285714285717 296.3327028698214 L 262.2448979591836 298.4609718837522 L 267.34693877551024 294.9050667442622 L 272.4489795918367 299.7174280726003 L 277.5510204081633 299.54852144182155 L 282.65306122448976 296.06809005928784 L 287.75510204081627 297.97312043065506 L 292.85714285714283 303.4895246062634 L 297.9591836734694 306.3145618884807 L 303.0612244897959 301.8543356490743 L 308.1632653061224 304.96330884225074 L 313.265306122449 309.6695067835449 L 318.36734693877554 306.1133743134616 L 323.46938775510205 307.8197177463354 L 328.57142857142856 306.95427017786346 L 333.6734693877551 309.1100461935765 L 338.77551020408157 309.0727639762849 L 343.8775510204082 310.9687011239224 L 348.97959183673464 313.83420325173677 L 354.0816326530612 307.83835885498127 L 359.1836734693877 315.065425744735 L 364.28571428571433 318.3187538646201 L 369.3877551020408 314.70647073800603 L 374.48979591836724 317.2921289055396 L 379.59183673469386 313.7850998435965 L 384.6938775510205 317.09957989306366 L 389.7959183673469 320.3335849125232 L 394.8979591836734 321.0646801003892 L 400 322.35273524169787 L 405.1020408163266 316.26004801222126 L 410.2040816326531 320.23378678208996 L 415.3061224489795 325.23710580875127 L 420.40816326530614 315.30730549594443 L 425.5102040816326 323.0174498963372 L 430.6122448979592 317.3475975702906 L 435.71428571428567 319.3494707743789 L 440.8163265306121 323.1338431600771 L 445.91836734693874 325.8197541192303 L 451.02040816326536 324.8097242934565 L 456.1224489795918 326.36034626995956 L 461.22448979591826 325.8313479794857 L 466.3265306122449 328.4415578510894 L 471.4285714285715 329.850780198596 L 476.53061224489795 322.52596115374826 L 481.6326530612244 327.26898665114754 L 486.734693877551 330.30521405448656 L 491.8367346938776 332.8363128796421 L 496.9387755102041 323.3866347797621 L 502.04081632653055 330.9740206598043 L 507.14285714285717 331.07063616193216 L 512.2448979591837 332.628532717419 L 517.3469387755102 329.3313297930382 L 522.4489795918366 333.4162332230022 L 527.5510204081631 323.80946968319205 L 532.6530612244898 333.5721820099662 L 537.7551020408164 336.2508183901357 L 542.8571428571429 330.5971065362092 L 547.9591836734693 333.62219474047936 L 553.0612244897959 337.1708253009857 L 558.1632653061224 329.322691230495 L 563.2653061224489 336.2853726403084 L 568.3673469387754 338.49616265958605 L 573.469387755102 332.84790673989744 L 578.5714285714287 335.16054086494745 L 583.6734693877552 339.36547484814315 L 588.7755102040816 339.2734059578802 L 593.877551020408 338.3508984105045 L 598.9795918367347 340.9281453460881 L 604.0816326530612 340.1872749427127 L 609.1836734693877 340.08656748990654 L 614.2857142857142 339.39480049467136 L 619.3877551020407 340.13339759211436 L 624.4897959183675 338.9358200269159 L 629.5918367346939 341.5821754628451 L 634.6938775510203 343.6074637180373 L 639.795918367347 341.0111210126214 L 644.8979591836735 342.532190012003 L 650 343.0145855308624 L 650 400Z"/><text class="poloto_text" alignment-baseline="middle" text-anchor="start" font-size="large" x="675" y="350">Level 5</text><rect class="poloto5fill" x="680" y="326.25" width="50" height="7.5" rx="5" ry="5"/><path class="poloto5fill" d=" M 150 400 L 150 351.20598879714834 L 155.10204081632654 350.1845924417124 L 160.20408163265307 348.23159531517115 L 165.3061224489796 350.0056832648311 L 170.40816326530614 345.8212090350271 L 175.51020408163268 344.65363910813664 L 180.61224489795921 347.88355217691776 L 185.71428571428567 347.26589495507943 L 190.8163265306123 345.5829665733096 L 195.91836734693874 347.4941348706943 L 201.02040816326527 346.66869748663294 L 206.1224489795918 348.3550358273015 L 211.22448979591834 347.42843632924746 L 216.32653061224488 347.3381860837304 L 221.42857142857142 345.5079474775397 L 226.53061224489795 344.25785654530245 L 231.6326530612245 344.9644000290983 L 236.73469387755102 344.48086785727276 L 241.83673469387756 345.73436874840866 L 246.9387755102041 347.62325864765575 L 252.0408163265306 344.07758338486155 L 257.14285714285717 346.41476921398174 L 262.2448979591836 345.83939548248645 L 267.34693877551024 343.8893536536573 L 272.4489795918367 346.30201323973375 L 277.5510204081633 344.7225202778889 L 282.65306122448976 343.0416378714582 L 287.75510204081627 344.2667224384388 L 292.85714285714283 346.1449277998036 L 297.9591836734694 347.05629614811045 L 303.0612244897959 343.701123922453 L 308.1632653061224 343.9534608809515 L 313.265306122449 346.92126177572476 L 318.36734693877554 344.0987251300331 L 323.46938775510205 344.847552104172 L 328.57142857142856 343.9782399156149 L 333.6734693877551 346.93808423962463 L 338.77551020408157 346.6873385952788 L 343.8775510204082 345.8382588295202 L 348.97959183673464 347.35000727457896 L 354.0816326530612 341.7929109227803 L 359.1836734693877 345.31767177099624 L 364.28571428571433 347.76943221911034 L 369.3877551020408 343.5429018295566 L 374.48979591836724 345.09920707089077 L 379.59183673469386 342.24143418324667 L 384.6938775510205 344.9757665587604 L 389.7959183673469 346.56344342196195 L 394.8979591836734 346.4661459280544 L 400 346.76417633579456 L 405.1020408163266 341.9463590732186 L 410.2040816326531 345.4036027352417 L 415.3061224489795 348.35048921543665 L 420.40816326530614 340.55032190012 L 425.5102040816326 345.98375040919507 L 430.6122448979592 341.7617666315062 L 435.71428571428567 343.7522733059325 L 440.8163265306121 345.4645273342305 L 445.91836734693874 347.37205834212347 L 451.02040816326536 346.3743043683847 L 456.1224489795918 347.3984286909395 L 461.22448979591826 346.89807405521407 L 466.3265306122449 348.78810060742734 L 471.4285714285715 349.15683082966575 L 476.53061224489795 343.12802349689014 L 481.6326530612244 345.65048375950244 L 486.734693877551 348.0817844542247 L 491.8367346938776 349.5885316262321 L 496.9387755102041 341.87543192812717 L 502.04081632653055 346.7173462335867 L 507.14285714285717 346.5373004037391 L 512.2448979591837 347.86991234132324 L 517.3469387755102 344.8807423707853 L 522.4489795918366 348.1392990943149 L 527.5510204081631 341.0688629833048 L 532.6530612244898 347.92424435310807 L 537.7551020408164 350.13321572763977 L 542.8571428571429 345.4870330629615 L 547.9591836734693 347.9497053795511 L 553.0612244897959 350.5583239370021 L 558.1632653061224 344.35310806387076 L 563.2653061224489 349.19047575746555 L 568.3673469387754 351.0011639326374 L 573.469387755102 346.5057014512785 L 578.5714285714287 348.903357218201 L 583.6734693877552 350.9513785327174 L 588.7755102040816 350.8943185538137 L 593.877551020408 349.9893154621176 L 598.9795918367347 352.3494616811552 L 604.0816326530612 351.42081620776196 L 609.1836734693877 351.17507183646745 L 614.2857142857142 351.9373113156076 L 619.3877551020407 352.47994944167607 L 624.4897959183675 349.8304113774415 L 629.5918367346939 352.13440693994835 L 634.6938775510203 354.006019714109 L 639.795918367347 351.4690102935292 L 644.8979591836735 353.6409267813625 L 650 353.15239333648566 L 650 400Z"/><text class="poloto_text" alignment-baseline="middle" text-anchor="start" font-size="large" x="675" y="400">Level 6</text><rect class="poloto6fill" x="680" y="376.25" width="50" height="7.5" rx="5" ry="5"/><path class="poloto6fill" d=" M 150 400 L 150 400 L 155.10204081632654 398.37276761357435 L 160.20408163265307 398.4662004873968 L 165.3061224489796 398.2375059105954 L 170.40816326530614 394.62204015567596 L 175.51020408163268 394.5370185138035 L 180.61224489795921 394.9878150802022 L 185.71428571428567 395.7664223620558 L 190.8163265306123 394.3603826428545 L 195.91836734693874 395.10784563343395 L 201.02040816326527 392.54037391335976 L 206.1224489795918 394.0152948023133 L 211.22448979591834 393.27942567198926 L 216.32653061224488 392.78748226821375 L 221.42857142857142 392.5242334412396 L 226.53061224489795 390.0763376132106 L 231.6326530612245 391.02180555050376 L 236.73469387755102 389.63145164223624 L 241.83673469387756 390.0272342050704 L 246.9387755102041 390.79765758556726 L 252.0408163265306 388.11424726293967 L 257.14285714285717 389.39661913941734 L 262.2448979591836 388.132433710399 L 267.34693877551024 386.6713799876332 L 272.4489795918367 388.6468828429055 L 277.5510204081633 387.26266686065543 L 282.65306122448976 385.6479376568581 L 287.75510204081627 385.4710744553159 L 292.85714285714283 386.8455152220565 L 297.9591836734694 386.8307387334958 L 303.0612244897959 384.9059306005165 L 308.1632653061224 384.7227021423635 L 313.265306122449 386.4847415705816 L 318.36734693877554 383.64242716327794 L 323.46938775510205 385.26283963190633 L 328.57142857142856 383.2862001236678 L 333.6734693877551 385.15826755901503 L 338.77551020408157 384.420579783945 L 343.8775510204082 383.78314480049465 L 348.97959183673464 384.6986050994799 L 354.0816326530612 380.9242352598843 L 359.1836734693877 382.84358745862585 L 364.28571428571433 384.3767049794493 L 369.3877551020408 381.1961226494016 L 374.48979591836724 382.03065325719274 L 379.59183673469386 379.317007965664 L 384.6938775510205 381.54530244062124 L 389.7959183673469 382.8226730440476 L 394.8979591836734 382.6178481795366 L 400 383.2345960790019 L 405.1020408163266 379.8791965227512 L 410.2040816326531 382.1197668497436 L 415.3061224489795 382.90655803295385 L 420.40816326530614 376.36352889826503 L 425.5102040816326 380.5168588367948 L 430.6122448979592 377.5176863201542 L 435.71428571428567 378.4547430254974 L 440.8163265306121 379.3497435710908 L 445.91836734693874 380.51867748154075 L 451.02040816326536 380.0997071981959 L 456.1224489795918 380.1472192921835 L 461.22448979591826 380.15540319354017 L 466.3265306122449 380.898546902848 L 471.4285714285715 381.046084457862 L 476.53061224489795 377.2126086640236 L 481.6326530612244 378.1803549994544 L 486.734693877551 379.4374931800822 L 491.8367346938776 380.2627032335503 L 496.9387755102041 374.8958825882952 L 502.04081632653055 378.1051085730913 L 507.14285714285717 378.18308296657335 L 512.2448979591837 378.5752282399156 L 517.3469387755102 376.2548648746954 L 522.4489795918366 378.1933128432692 L 527.5510204081631 373.4236896664606 L 532.6530612244898 378.25855672352964 L 537.7551020408164 379.2551740443022 L 542.8571428571429 376.7372603935547 L 547.9591836734693 377.78752773433234 L 553.0612244897959 379.28472702142363 L 558.1632653061224 374.7224293456516 L 563.2653061224489 378.10510857309134 L 568.3673469387754 378.98396864656456 L 573.469387755102 376.22803986469285 L 578.5714285714287 377.62725966609685 L 583.6734693877552 379.37179463863527 L 588.7755102040816 379.38066053177175 L 593.877551020408 378.40632160913685 L 598.9795918367347 380.0558323937002 L 604.0816326530612 379.36702069617724 L 609.1836734693877 379.54524788127884 L 614.2857142857142 379.7475721092642 L 619.3877551020407 379.7628032590114 L 624.4897959183675 379.1474193431055 L 629.5918367346939 378.97964936529297 L 634.6938775510203 380.215418470156 L 639.795918367347 378.39222711235584 L 644.8979591836735 380.1328974648092 L 650 379.05876041174116 L 650 400Z"/><text class="poloto_text" alignment-baseline="start" text-anchor="middle" font-size="x-large" x="400" y="37.5">Bench of query levels with abspiral(5000,x)</text><text class="poloto_text" alignment-baseline="start" text-anchor="middle" font-size="x-large" x="400" y="481.25">Spiral Grow</text><text class="poloto_text" alignment-baseline="start" text-anchor="middle" font-size="x-large" transform="rotate(-90,37.5,250)" x="37.5" y="250">Time taken in Seconds</text><path stroke="black" fill="none" class="poloto_axis_lines" d=" M 150 100 L 150 400 L 650 400"/></svg>