<svg class="poloto" width="800" height="500" viewBox="0 0 800 500" xmlns="http://www.w3.org/2000/svg"><circle  r="1e5" class="poloto_background" /><text  class="poloto_text poloto_legend_text" x="675" y="100" >Level 0</text><rect  class="poloto_linefill poloto_legend_icon poloto0fill poloto0legend" x="680" y="76.25" width="50" height="7.5" rx="5" ry="5" /><path  class="poloto_linefill poloto0fill" d=" M 150.00 400.00 L 150.00 100.00 L 155.10 109.26 L 160.20 115.29 L 165.31 123.92 L 170.41 130.16 L 175.51 135.25 L 180.61 139.56 L 185.71 146.40 L 190.82 150.96 L 195.92 155.17 L 201.02 160.50 L 206.12 165.62 L 211.22 170.81 L 216.33 176.44 L 221.43 181.58 L 226.53 187.23 L 231.63 192.35 L 236.73 197.11 L 241.84 200.59 L 246.94 202.85 L 252.04 207.38 L 257.14 211.47 L 262.24 213.99 L 267.35 216.46 L 272.45 219.59 L 277.55 222.72 L 282.65 225.41 L 287.76 227.88 L 292.86 231.33 L 297.96 234.53 L 303.06 236.36 L 308.16 239.91 L 313.27 241.76 L 318.37 243.39 L 323.47 246.91 L 328.57 249.29 L 333.67 251.71 L 338.78 253.93 L 343.88 255.48 L 348.98 256.78 L 354.08 258.57 L 359.18 259.81 L 364.29 261.82 L 369.39 263.65 L 374.49 265.59 L 379.59 267.23 L 384.69 268.95 L 389.80 270.35 L 394.90 271.57 L 400.00 273.16 L 405.10 274.79 L 410.20 276.49 L 415.31 278.25 L 420.41 279.79 L 425.51 281.23 L 430.61 282.51 L 435.71 283.64 L 440.82 285.01 L 445.92 286.59 L 451.02 287.51 L 456.12 289.21 L 461.22 290.37 L 466.33 291.44 L 471.43 292.65 L 476.53 293.78 L 481.63 295.32 L 486.73 296.51 L 491.84 297.69 L 496.94 298.85 L 502.04 300.12 L 507.14 301.24 L 512.24 301.98 L 517.35 302.75 L 522.45 303.75 L 527.55 304.77 L 532.65 305.55 L 537.76 306.38 L 542.86 307.17 L 547.96 307.86 L 553.06 308.50 L 558.16 309.45 L 563.27 310.14 L 568.37 310.85 L 573.47 311.31 L 578.57 311.99 L 583.67 312.72 L 588.78 313.30 L 593.88 313.96 L 598.98 314.56 L 604.08 315.04 L 609.18 315.60 L 614.29 316.20 L 619.39 317.02 L 624.49 317.59 L 629.59 318.04 L 634.69 318.72 L 639.80 319.20 L 644.90 319.74 L 650.00 320.33 L 650.00 400.00 Z" /><text  class="poloto_text poloto_legend_text" x="675" y="150" >Level 1</text><rect  class="poloto_linefill poloto_legend_icon poloto1fill poloto1legend" x="680" y="126.25" width="50" height="7.5" rx="5" ry="5" /><path  class="poloto_linefill poloto1fill" d=" M 150.00 400.00 L 150.00 138.85 L 155.10 146.32 L 160.20 151.41 L 165.31 158.84 L 170.41 164.46 L 175.51 168.62 L 180.61 171.79 L 185.71 177.89 L 190.82 181.93 L 195.92 185.51 L 201.02 190.29 L 206.12 194.34 L 211.22 198.72 L 216.33 203.73 L 221.43 208.07 L 226.53 213.07 L 231.63 217.59 L 236.73 221.63 L 241.84 224.56 L 246.94 226.23 L 252.04 230.17 L 257.14 233.70 L 262.24 236.01 L 267.35 238.34 L 272.45 240.99 L 277.55 243.38 L 282.65 245.38 L 287.76 247.69 L 292.86 249.91 L 297.96 252.81 L 303.06 255.13 L 308.16 257.75 L 313.27 259.46 L 318.37 260.85 L 323.47 262.58 L 328.57 264.07 L 333.67 266.34 L 338.78 268.37 L 343.88 269.91 L 348.98 270.90 L 354.08 272.40 L 359.18 273.31 L 364.29 275.21 L 369.39 276.74 L 374.49 278.29 L 379.59 279.52 L 384.69 280.98 L 389.80 282.19 L 394.90 283.15 L 400.00 284.54 L 405.10 285.99 L 410.20 287.57 L 415.31 289.17 L 420.41 290.69 L 425.51 292.07 L 430.61 293.22 L 435.71 294.15 L 440.82 295.44 L 445.92 296.90 L 451.02 297.76 L 456.12 299.16 L 461.22 300.28 L 466.33 301.36 L 471.43 302.39 L 476.53 303.43 L 481.63 304.97 L 486.73 305.93 L 491.84 307.06 L 496.94 308.06 L 502.04 309.10 L 507.14 310.09 L 512.24 310.79 L 517.35 311.50 L 522.45 312.29 L 527.55 313.12 L 532.65 313.79 L 537.76 314.55 L 542.86 315.31 L 547.96 315.94 L 553.06 316.56 L 558.16 317.33 L 563.27 317.92 L 568.37 318.54 L 573.47 318.94 L 578.57 319.58 L 583.67 320.25 L 588.78 320.79 L 593.88 321.37 L 598.98 321.89 L 604.08 322.29 L 609.18 322.73 L 614.29 323.31 L 619.39 324.13 L 624.49 324.61 L 629.59 324.97 L 634.69 325.62 L 639.80 326.08 L 644.90 326.58 L 650.00 327.08 L 650.00 400.00 Z" /><text  class="poloto_text poloto_legend_text" x="675" y="200" >Level 2</text><rect  class="poloto_linefill poloto_legend_icon poloto2fill poloto2legend" x="680" y="176.25" width="50" height="7.5" rx="5" ry="5" /><path  class="poloto_linefill poloto2fill" d=" M 150.00 400.00 L 150.00 176.08 L 155.10 181.74 L 160.20 185.32 L 165.31 191.60 L 170.41 195.59 L 175.51 198.71 L 180.61 201.36 L 185.71 206.19 L 190.82 209.45 L 195.92 212.04 L 201.02 215.94 L 206.12 219.71 L 211.22 223.23 L 216.33 227.43 L 221.43 230.33 L 226.53 233.96 L 231.63 237.78 L 236.73 241.74 L 241.84 244.12 L 246.94 245.19 L 252.04 248.69 L 257.14 252.06 L 262.24 254.18 L 267.35 255.98 L 272.45 257.98 L 277.55 260.03 L 282.65 261.84 L 287.76 263.66 L 292.86 265.50 L 297.96 267.47 L 303.06 269.65 L 308.16 271.99 L 313.27 273.49 L 318.37 274.55 L 323.47 275.87 L 328.57 277.17 L 333.67 279.21 L 338.78 280.72 L 343.88 282.03 L 348.98 282.85 L 354.08 284.15 L 359.18 284.96 L 364.29 286.68 L 369.39 287.84 L 374.49 289.12 L 379.59 290.41 L 384.69 291.45 L 389.80 292.54 L 394.90 293.32 L 400.00 294.60 L 405.10 295.88 L 410.20 296.96 L 415.31 298.21 L 420.41 299.45 L 425.51 300.73 L 430.61 301.73 L 435.71 302.57 L 440.82 303.72 L 445.92 305.06 L 451.02 305.88 L 456.12 306.75 L 461.22 307.80 L 466.33 308.83 L 471.43 309.85 L 476.53 310.73 L 481.63 312.08 L 486.73 312.98 L 491.84 313.99 L 496.94 314.74 L 502.04 315.75 L 507.14 316.53 L 512.24 317.14 L 517.35 317.74 L 522.45 318.38 L 527.55 319.04 L 532.65 319.62 L 537.76 320.30 L 542.86 320.94 L 547.96 321.54 L 553.06 322.12 L 558.16 322.77 L 563.27 323.29 L 568.37 323.85 L 573.47 324.22 L 578.57 324.75 L 583.67 325.31 L 588.78 325.81 L 593.88 326.34 L 598.98 326.75 L 604.08 327.13 L 609.18 327.56 L 614.29 328.11 L 619.39 328.78 L 624.49 329.23 L 629.59 329.53 L 634.69 330.04 L 639.80 330.44 L 644.90 330.89 L 650.00 331.36 L 650.00 400.00 Z" /><text  class="poloto_text poloto_legend_text" x="675" y="250" >Level 3</text><rect  class="poloto_linefill poloto_legend_icon poloto3fill poloto3legend" x="680" y="226.25" width="50" height="7.5" rx="5" ry="5" /><path  class="poloto_linefill poloto3fill" d=" M 150.00 400.00 L 150.00 238.31 L 155.10 241.05 L 160.20 243.31 L 165.31 248.11 L 170.41 250.73 L 175.51 252.40 L 180.61 253.25 L 185.71 256.79 L 190.82 259.22 L 195.92 260.67 L 201.02 263.20 L 206.12 264.97 L 211.22 267.52 L 216.33 269.71 L 221.43 272.07 L 226.53 273.54 L 231.63 275.69 L 236.73 277.38 L 241.84 279.05 L 246.94 279.85 L 252.04 281.99 L 257.14 283.60 L 262.24 285.15 L 267.35 286.20 L 272.45 287.21 L 277.55 288.49 L 282.65 289.98 L 287.76 291.29 L 292.86 291.73 L 297.96 293.17 L 303.06 295.01 L 308.16 296.11 L 313.27 297.24 L 318.37 297.83 L 323.47 299.16 L 328.57 300.26 L 333.67 301.96 L 338.78 303.24 L 343.88 304.10 L 348.98 304.83 L 354.08 305.85 L 359.18 306.78 L 364.29 307.88 L 369.39 308.88 L 374.49 309.72 L 379.59 310.99 L 384.69 311.66 L 389.80 312.52 L 394.90 313.21 L 400.00 314.16 L 405.10 314.98 L 410.20 315.83 L 415.31 316.86 L 420.41 317.87 L 425.51 318.92 L 430.61 319.68 L 435.71 319.96 L 440.82 320.80 L 445.92 321.68 L 451.02 322.37 L 456.12 323.04 L 461.22 323.88 L 466.33 324.69 L 471.43 325.32 L 476.53 325.91 L 481.63 326.68 L 486.73 327.60 L 491.84 328.63 L 496.94 329.04 L 502.04 329.75 L 507.14 330.44 L 512.24 331.06 L 517.35 331.58 L 522.45 332.18 L 527.55 332.73 L 532.65 333.34 L 537.76 333.89 L 542.86 334.28 L 547.96 334.75 L 553.06 335.12 L 558.16 335.65 L 563.27 336.12 L 568.37 336.70 L 573.47 337.06 L 578.57 337.56 L 583.67 337.82 L 588.78 338.14 L 593.88 338.63 L 598.98 339.06 L 604.08 339.34 L 609.18 339.70 L 614.29 340.17 L 619.39 340.66 L 624.49 341.07 L 629.59 341.24 L 634.69 341.66 L 639.80 341.98 L 644.90 342.39 L 650.00 342.81 L 650.00 400.00 Z" /><text  class="poloto_text poloto_legend_text" x="675" y="300" >Level 4</text><rect  class="poloto_linefill poloto_legend_icon poloto4fill poloto4legend" x="680" y="276.25" width="50" height="7.5" rx="5" ry="5" /><path  class="poloto_linefill poloto4fill" d=" M 150.00 400.00 L 150.00 292.36 L 155.10 293.32 L 160.20 294.43 L 165.31 295.22 L 170.41 296.41 L 175.51 297.17 L 180.61 297.52 L 185.71 298.74 L 190.82 299.49 L 195.92 300.46 L 201.02 301.82 L 206.12 302.31 L 211.22 303.53 L 216.33 304.56 L 221.43 305.43 L 226.53 306.21 L 231.63 307.23 L 236.73 308.10 L 241.84 308.77 L 246.94 309.14 L 252.04 310.03 L 257.14 311.07 L 262.24 312.10 L 267.35 312.77 L 272.45 313.33 L 277.55 314.10 L 282.65 314.77 L 287.76 315.78 L 292.86 315.72 L 297.96 316.58 L 303.06 317.67 L 308.16 318.15 L 313.27 318.85 L 318.37 319.19 L 323.47 320.25 L 328.57 321.02 L 333.67 321.65 L 338.78 322.58 L 343.88 323.19 L 348.98 323.63 L 354.08 324.20 L 359.18 324.82 L 364.29 325.03 L 369.39 325.71 L 374.49 326.03 L 379.59 326.93 L 384.69 327.47 L 389.80 327.95 L 394.90 328.55 L 400.00 329.01 L 405.10 329.71 L 410.20 330.29 L 415.31 331.14 L 420.41 331.90 L 425.51 332.56 L 430.61 332.68 L 435.71 333.17 L 440.82 333.60 L 445.92 334.11 L 451.02 334.61 L 456.12 334.78 L 461.22 335.56 L 466.33 335.96 L 471.43 336.45 L 476.53 336.79 L 481.63 337.20 L 486.73 337.90 L 491.84 338.70 L 496.94 339.00 L 502.04 339.53 L 507.14 340.15 L 512.24 340.63 L 517.35 341.04 L 522.45 341.42 L 527.55 341.82 L 532.65 342.33 L 537.76 342.58 L 542.86 342.83 L 547.96 343.22 L 553.06 343.52 L 558.16 344.05 L 563.27 344.33 L 568.37 344.79 L 573.47 345.00 L 578.57 345.42 L 583.67 345.64 L 588.78 345.81 L 593.88 346.22 L 598.98 346.62 L 604.08 346.84 L 609.18 347.01 L 614.29 347.35 L 619.39 347.69 L 624.49 348.06 L 629.59 348.20 L 634.69 348.39 L 639.80 348.65 L 644.90 349.00 L 650.00 349.34 L 650.00 400.00 Z" /><text  class="poloto_text poloto_legend_text" x="675" y="350" >Level 5</text><rect  class="poloto_linefill poloto_legend_icon poloto5fill poloto5legend" x="680" y="326.25" width="50" height="7.5" rx="5" ry="5" /><path  class="poloto_linefill poloto5fill" d=" M 150.00 400.00 L 150.00 354.80 L 155.10 354.80 L 160.20 354.56 L 165.31 354.47 L 170.41 354.76 L 175.51 354.85 L 180.61 354.58 L 185.71 354.85 L 190.82 354.98 L 195.92 354.85 L 201.02 354.73 L 206.12 354.55 L 211.22 354.77 L 216.33 355.05 L 221.43 354.71 L 226.53 354.70 L 231.63 355.01 L 236.73 354.95 L 241.84 354.86 L 246.94 354.93 L 252.04 355.15 L 257.14 354.96 L 262.24 355.39 L 267.35 355.49 L 272.45 355.84 L 277.55 355.91 L 282.65 355.95 L 287.76 355.97 L 292.86 355.71 L 297.96 355.77 L 303.06 356.07 L 308.16 356.37 L 313.27 356.49 L 318.37 356.55 L 323.47 357.03 L 328.57 357.41 L 333.67 357.71 L 338.78 357.93 L 343.88 357.78 L 348.98 357.90 L 354.08 357.82 L 359.18 358.06 L 364.29 358.31 L 369.39 358.33 L 374.49 358.62 L 379.59 358.73 L 384.69 358.62 L 389.80 359.11 L 394.90 359.23 L 400.00 359.39 L 405.10 359.54 L 410.20 359.97 L 415.31 360.13 L 420.41 360.54 L 425.51 361.00 L 430.61 360.73 L 435.71 360.93 L 440.82 361.10 L 445.92 361.56 L 451.02 361.94 L 456.12 361.92 L 461.22 362.09 L 466.33 362.15 L 471.43 362.46 L 476.53 362.73 L 481.63 362.86 L 486.73 363.07 L 491.84 363.14 L 496.94 363.27 L 502.04 363.30 L 507.14 363.51 L 512.24 363.89 L 517.35 364.07 L 522.45 364.20 L 527.55 364.24 L 532.65 364.36 L 537.76 364.67 L 542.86 364.84 L 547.96 364.92 L 553.06 365.01 L 558.16 365.25 L 563.27 365.45 L 568.37 365.76 L 573.47 365.57 L 578.57 365.77 L 583.67 365.83 L 588.78 365.93 L 593.88 366.08 L 598.98 366.22 L 604.08 366.36 L 609.18 366.57 L 614.29 366.59 L 619.39 366.76 L 624.49 366.97 L 629.59 366.98 L 634.69 367.17 L 639.80 367.34 L 644.90 367.43 L 650.00 367.60 L 650.00 400.00 Z" /><text  class="poloto_labels poloto_text poloto_title" x="400" y="37.5" >Complexity of query levels with abspiral(3000,x)</text><text  class="poloto_labels poloto_text poloto_xname" x="400" y="481.25" >Spiral Grow</text><text  class="poloto_labels poloto_text poloto_yname" transform="rotate(-90,37.5,250)" x="37.5" y="250" >Number of Comparisons</text><text  class="poloto_tick_labels poloto_text" dominant-baseline="middle" text-anchor="start" x="440.00000000000006" y="70" ></text><line  class="poloto_axis_lines" stroke="black" x1="201.58730158730162" x2="201.58730158730162" y1="400" y2="405" /><text  class="poloto_tick_labels poloto_text" dominant-baseline="start" text-anchor="middle" x="201.58730158730162" y="430" >0.7</text><line  class="poloto_axis_lines" stroke="black" x1="258.2766439909297" x2="258.2766439909297" y1="400" y2="405" /><text  class="poloto_tick_labels poloto_text" dominant-baseline="start" text-anchor="middle" x="258.2766439909297" y="430" >0.8</text><line  class="poloto_axis_lines" stroke="black" x1="314.9659863945579" x2="314.9659863945579" y1="400" y2="405" /><text  class="poloto_tick_labels poloto_text" dominant-baseline="start" text-anchor="middle" x="314.9659863945579" y="430" >0.9</text><line  class="poloto_axis_lines" stroke="black" x1="371.6553287981859" x2="371.6553287981859" y1="400" y2="405" /><text  class="poloto_tick_labels poloto_text" dominant-baseline="start" text-anchor="middle" x="371.6553287981859" y="430" >1.0</text><line  class="poloto_axis_lines" stroke="black" x1="428.3446712018141" x2="428.3446712018141" y1="400" y2="405" /><text  class="poloto_tick_labels poloto_text" dominant-baseline="start" text-anchor="middle" x="428.3446712018141" y="430" >1.1</text><line  class="poloto_axis_lines" stroke="black" x1="485.03401360544217" x2="485.03401360544217" y1="400" y2="405" /><text  class="poloto_tick_labels poloto_text" dominant-baseline="start" text-anchor="middle" x="485.03401360544217" y="430" >1.2</text><line  class="poloto_axis_lines" stroke="black" x1="541.7233560090704" x2="541.7233560090704" y1="400" y2="405" /><text  class="poloto_tick_labels poloto_text" dominant-baseline="start" text-anchor="middle" x="541.7233560090704" y="430" >1.3</text><line  class="poloto_axis_lines" stroke="black" x1="598.4126984126984" x2="598.4126984126984" y1="400" y2="405" /><text  class="poloto_tick_labels poloto_text" dominant-baseline="start" text-anchor="middle" x="598.4126984126984" y="430" >1.4</text><text  class="poloto_tick_labels poloto_text" dominant-baseline="middle" text-anchor="start" x="150" y="70" ></text><line  class="poloto_axis_lines" stroke="black" x1="150" x2="144" y1="400" y2="400" /><text  class="poloto_tick_labels poloto_text" dominant-baseline="middle" text-anchor="end" x="135" y="400" >0</text><line  class="poloto_axis_lines" stroke="black" x1="150" x2="144" y1="336.0109208028496" y2="336.0109208028496" /><text  class="poloto_tick_labels poloto_text" dominant-baseline="middle" text-anchor="end" x="135" y="336.0109208028496" >1e5</text><line  class="poloto_axis_lines" stroke="black" x1="150" x2="144" y1="272.0218416056993" y2="272.0218416056993" /><text  class="poloto_tick_labels poloto_text" dominant-baseline="middle" text-anchor="end" x="135" y="272.0218416056993" >2.0e5</text><line  class="poloto_axis_lines" stroke="black" x1="150" x2="144" y1="208.03276240854893" y2="208.03276240854893" /><text  class="poloto_tick_labels poloto_text" dominant-baseline="middle" text-anchor="end" x="135" y="208.03276240854893" >3.0e5</text><line  class="poloto_axis_lines" stroke="black" x1="150" x2="144" y1="144.0436832113986" y2="144.0436832113986" /><text  class="poloto_tick_labels poloto_text" dominant-baseline="middle" text-anchor="end" x="135" y="144.0436832113986" >4.0e5</text><path  stroke="black" fill="none" class="poloto_axis_lines" style="stroke-dasharray:14.172335600907028;stroke-dashoffset:-51.587301587301624;" d=" M 150 400 L 650 400" /><path  stroke="black" fill="none" class="poloto_axis_lines" style="stroke-dasharray:6.398907919715035;stroke-dashoffset:-0;" d=" M 150 400 L 150 100" /></svg>