<svg class="poloto" width="800" height="500" viewBox="0 0 800 500" xmlns="http://www.w3.org/2000/svg"><circle  r="1e5" class="poloto_background" /><text  class="poloto_text poloto_legend_text" x="675" y="100" >Level 0</text><rect  class="poloto_linefill poloto_legend_icon poloto0fill poloto0legend" x="680" y="76.25" width="50" height="7.5" rx="5" ry="5" /><path  class="poloto_linefill poloto0fill" d=" M 150.00 400.00 L 150.00 100.00 L 155.10 146.33 L 160.20 153.72 L 165.31 156.67 L 170.41 151.35 L 175.51 155.13 L 180.61 155.03 L 185.71 156.83 L 190.82 151.50 L 195.92 152.22 L 201.02 131.40 L 206.12 171.49 L 211.22 178.47 L 216.33 183.08 L 221.43 177.54 L 226.53 182.04 L 231.63 183.21 L 236.73 190.34 L 241.84 190.56 L 246.94 186.87 L 252.04 196.32 L 257.14 196.95 L 262.24 188.88 L 267.35 195.62 L 272.45 199.14 L 277.55 202.44 L 282.65 204.11 L 287.76 206.24 L 292.86 199.36 L 297.96 206.49 L 303.06 192.86 L 308.16 209.17 L 313.27 210.60 L 318.37 213.65 L 323.47 213.06 L 328.57 212.08 L 333.67 214.29 L 338.78 217.16 L 343.88 216.66 L 348.98 218.22 L 354.08 213.95 L 359.18 218.47 L 364.29 218.48 L 369.39 219.08 L 374.49 223.97 L 379.59 222.03 L 384.69 221.78 L 389.80 224.67 L 394.90 229.46 L 400.00 224.09 L 405.10 224.07 L 410.20 228.36 L 415.31 227.61 L 420.41 201.77 L 425.51 232.20 L 430.61 233.40 L 435.71 229.84 L 440.82 234.32 L 445.92 226.42 L 451.02 233.65 L 456.12 238.01 L 461.22 230.23 L 466.33 234.47 L 471.43 238.76 L 476.53 233.91 L 481.63 236.83 L 486.73 239.26 L 491.84 242.00 L 496.94 234.67 L 502.04 235.07 L 507.14 245.49 L 512.24 238.07 L 517.35 243.95 L 522.45 246.09 L 527.55 248.39 L 532.65 239.97 L 537.76 245.09 L 542.86 250.64 L 547.96 250.50 L 553.06 250.66 L 558.16 250.60 L 563.27 248.94 L 568.37 245.30 L 573.47 249.00 L 578.57 249.51 L 583.67 246.24 L 588.78 252.15 L 593.88 256.72 L 598.98 237.03 L 604.08 249.57 L 609.18 252.58 L 614.29 250.54 L 619.39 253.88 L 624.49 251.28 L 629.59 256.92 L 634.69 259.04 L 639.80 259.22 L 644.90 262.17 L 650.00 257.47 L 650.00 400.00 Z" /><text  class="poloto_text poloto_legend_text" x="675" y="150" >Level 1</text><rect  class="poloto_linefill poloto_legend_icon poloto1fill poloto1legend" x="680" y="126.25" width="50" height="7.5" rx="5" ry="5" /><path  class="poloto_linefill poloto1fill" d=" M 150.00 400.00 L 150.00 109.25 L 155.10 153.50 L 160.20 160.66 L 165.31 163.44 L 170.41 158.19 L 175.51 162.03 L 180.61 161.55 L 185.71 163.35 L 190.82 157.95 L 195.92 159.01 L 201.02 137.52 L 206.12 177.29 L 211.22 183.99 L 216.33 188.18 L 221.43 182.36 L 226.53 186.77 L 231.63 187.92 L 236.73 194.84 L 241.84 195.02 L 246.94 191.22 L 252.04 200.72 L 257.14 201.20 L 262.24 193.22 L 267.35 199.74 L 272.45 203.16 L 277.55 206.27 L 282.65 207.88 L 287.76 210.06 L 292.86 203.23 L 297.96 210.26 L 303.06 196.40 L 308.16 212.75 L 313.27 214.23 L 318.37 217.09 L 323.47 216.60 L 328.57 215.47 L 333.67 217.71 L 338.78 220.56 L 343.88 219.97 L 348.98 221.41 L 354.08 217.29 L 359.18 221.58 L 364.29 221.64 L 369.39 222.09 L 374.49 227.19 L 379.59 224.99 L 384.69 224.77 L 389.80 227.50 L 394.90 232.31 L 400.00 226.96 L 405.10 226.97 L 410.20 231.19 L 415.31 230.40 L 420.41 204.43 L 425.51 234.87 L 430.61 236.26 L 435.71 232.41 L 440.82 236.93 L 445.92 229.10 L 451.02 236.33 L 456.12 240.53 L 461.22 232.86 L 466.33 236.95 L 471.43 241.25 L 476.53 236.47 L 481.63 239.61 L 486.73 241.70 L 491.84 244.43 L 496.94 237.22 L 502.04 238.14 L 507.14 248.29 L 512.24 240.51 L 517.35 246.28 L 522.45 248.39 L 527.55 250.63 L 532.65 242.38 L 537.76 247.46 L 542.86 253.07 L 547.96 252.69 L 553.06 252.90 L 558.16 252.76 L 563.27 251.14 L 568.37 247.50 L 573.47 251.08 L 578.57 251.59 L 583.67 248.53 L 588.78 254.43 L 593.88 258.78 L 598.98 239.02 L 604.08 251.62 L 609.18 254.54 L 614.29 252.57 L 619.39 255.83 L 624.49 253.46 L 629.59 258.85 L 634.69 261.14 L 639.80 261.15 L 644.90 264.03 L 650.00 259.44 L 650.00 400.00 Z" /><text  class="poloto_text poloto_legend_text" x="675" y="200" >Level 2</text><rect  class="poloto_linefill poloto_legend_icon poloto2fill poloto2legend" x="680" y="176.25" width="50" height="7.5" rx="5" ry="5" /><path  class="poloto_linefill poloto2fill" d=" M 150.00 400.00 L 150.00 178.17 L 155.10 211.63 L 160.20 216.51 L 165.31 218.19 L 170.41 214.22 L 175.51 216.89 L 180.61 216.32 L 185.71 217.26 L 190.82 212.34 L 195.92 223.17 L 201.02 193.88 L 206.12 227.10 L 211.22 231.90 L 216.33 234.89 L 221.43 230.54 L 226.53 233.38 L 231.63 234.21 L 236.73 239.38 L 241.84 239.32 L 246.94 236.83 L 252.04 243.29 L 257.14 243.63 L 262.24 237.46 L 267.35 242.20 L 272.45 244.82 L 277.55 246.63 L 282.65 247.68 L 287.76 249.43 L 292.86 244.34 L 297.96 249.31 L 303.06 238.12 L 308.16 250.63 L 313.27 251.81 L 318.37 253.97 L 323.47 253.74 L 328.57 252.43 L 333.67 254.16 L 338.78 256.44 L 343.88 255.86 L 348.98 256.77 L 354.08 253.61 L 359.18 256.87 L 364.29 256.71 L 369.39 256.90 L 374.49 261.00 L 379.59 259.02 L 384.69 258.94 L 389.80 261.03 L 394.90 264.76 L 400.00 260.21 L 405.10 260.28 L 410.20 263.60 L 415.31 262.94 L 420.41 240.46 L 425.51 266.38 L 430.61 267.46 L 435.71 264.45 L 440.82 267.72 L 445.92 261.86 L 451.02 267.37 L 456.12 270.58 L 461.22 264.56 L 466.33 267.73 L 471.43 271.14 L 476.53 267.33 L 481.63 269.70 L 486.73 271.25 L 491.84 273.35 L 496.94 267.64 L 502.04 268.53 L 507.14 276.37 L 512.24 270.22 L 517.35 274.74 L 522.45 276.25 L 527.55 278.04 L 532.65 271.54 L 537.76 275.51 L 542.86 280.01 L 547.96 279.69 L 553.06 279.93 L 558.16 279.72 L 563.27 278.47 L 568.37 275.59 L 573.47 278.32 L 578.57 278.63 L 583.67 276.28 L 588.78 281.04 L 593.88 284.47 L 598.98 268.61 L 604.08 278.64 L 609.18 280.80 L 614.29 279.52 L 619.39 282.04 L 624.49 280.13 L 629.59 284.46 L 634.69 286.25 L 639.80 286.21 L 644.90 288.50 L 650.00 284.86 L 650.00 400.00 Z" /><text  class="poloto_text poloto_legend_text" x="675" y="250" >Level 3</text><rect  class="poloto_linefill poloto_legend_icon poloto3fill poloto3legend" x="680" y="226.25" width="50" height="7.5" rx="5" ry="5" /><path  class="poloto_linefill poloto3fill" d=" M 150.00 400.00 L 150.00 248.92 L 155.10 270.85 L 160.20 274.01 L 165.31 274.41 L 170.41 271.04 L 175.51 272.83 L 180.61 272.22 L 185.71 272.12 L 190.82 268.21 L 195.92 276.05 L 201.02 250.89 L 206.12 278.11 L 211.22 281.28 L 216.33 283.05 L 221.43 279.83 L 226.53 281.39 L 231.63 282.07 L 236.73 285.57 L 241.84 285.18 L 246.94 282.97 L 252.04 287.74 L 257.14 287.96 L 262.24 282.89 L 267.35 286.22 L 272.45 287.77 L 277.55 288.85 L 282.65 289.38 L 287.76 290.71 L 292.86 287.10 L 297.96 290.48 L 303.06 282.53 L 308.16 290.76 L 313.27 291.66 L 318.37 293.09 L 323.47 293.01 L 328.57 291.74 L 333.67 292.89 L 338.78 294.64 L 343.88 294.08 L 348.98 294.38 L 354.08 292.13 L 359.18 294.45 L 364.29 294.11 L 369.39 294.03 L 374.49 296.99 L 379.59 295.50 L 384.69 295.37 L 389.80 296.57 L 394.90 299.39 L 400.00 295.63 L 405.10 295.73 L 410.20 298.21 L 415.31 297.64 L 420.41 278.69 L 425.51 300.19 L 430.61 300.89 L 435.71 299.24 L 440.82 300.70 L 445.92 296.53 L 451.02 300.46 L 456.12 302.70 L 461.22 298.12 L 466.33 300.61 L 471.43 303.14 L 476.53 299.93 L 481.63 301.91 L 486.73 302.87 L 491.84 304.24 L 496.94 299.83 L 502.04 300.85 L 507.14 306.30 L 512.24 301.69 L 517.35 305.05 L 522.45 306.03 L 527.55 307.31 L 532.65 302.50 L 537.76 305.43 L 542.86 308.80 L 547.96 308.55 L 553.06 308.80 L 558.16 308.58 L 563.27 307.77 L 568.37 305.52 L 573.47 307.41 L 578.57 307.43 L 583.67 305.79 L 588.78 309.44 L 593.88 311.96 L 598.98 299.93 L 604.08 307.42 L 609.18 308.78 L 614.29 308.35 L 619.39 309.99 L 624.49 308.50 L 629.59 311.86 L 634.69 313.14 L 639.80 313.04 L 644.90 314.65 L 650.00 311.91 L 650.00 400.00 Z" /><text  class="poloto_text poloto_legend_text" x="675" y="300" >Level 4</text><rect  class="poloto_linefill poloto_legend_icon poloto4fill poloto4legend" x="680" y="276.25" width="50" height="7.5" rx="5" ry="5" /><path  class="poloto_linefill poloto4fill" d=" M 150.00 400.00 L 150.00 301.98 L 155.10 315.38 L 160.20 317.15 L 165.31 317.13 L 170.41 315.27 L 175.51 316.26 L 180.61 315.58 L 185.71 315.12 L 190.82 311.87 L 195.92 317.74 L 201.02 296.58 L 206.12 318.04 L 211.22 319.82 L 216.33 320.14 L 221.43 318.20 L 226.53 318.58 L 231.63 319.11 L 236.73 320.85 L 241.84 320.62 L 246.94 319.12 L 252.04 321.76 L 257.14 322.09 L 262.24 318.71 L 267.35 320.30 L 272.45 321.24 L 277.55 321.76 L 282.65 321.78 L 287.76 322.69 L 292.86 320.65 L 297.96 322.31 L 303.06 316.41 L 308.16 322.17 L 313.27 322.66 L 318.37 323.51 L 323.47 323.45 L 328.57 322.33 L 333.67 323.09 L 338.78 324.57 L 343.88 323.85 L 348.98 323.76 L 354.08 322.51 L 359.18 323.78 L 364.29 323.37 L 369.39 323.14 L 374.49 325.22 L 379.59 323.94 L 384.69 323.95 L 389.80 324.70 L 394.90 326.75 L 400.00 323.74 L 405.10 323.89 L 410.20 325.64 L 415.31 325.22 L 420.41 309.90 L 425.51 326.87 L 430.61 327.29 L 435.71 326.05 L 440.82 326.90 L 445.92 324.27 L 451.02 326.90 L 456.12 328.36 L 461.22 325.17 L 466.33 326.85 L 471.43 328.61 L 476.53 326.24 L 481.63 327.62 L 486.73 328.18 L 491.84 329.02 L 496.94 325.95 L 502.04 326.79 L 507.14 330.38 L 512.24 327.15 L 517.35 329.40 L 522.45 329.98 L 527.55 330.97 L 532.65 327.57 L 537.76 329.62 L 542.86 332.01 L 547.96 331.83 L 553.06 331.97 L 558.16 331.76 L 563.27 331.22 L 568.37 329.71 L 573.47 330.89 L 578.57 330.83 L 583.67 329.70 L 588.78 332.33 L 593.88 334.12 L 598.98 326.03 L 604.08 330.76 L 609.18 331.61 L 614.29 331.49 L 619.39 332.79 L 624.49 331.53 L 629.59 334.00 L 634.69 334.88 L 639.80 334.76 L 644.90 335.90 L 650.00 333.98 L 650.00 400.00 Z" /><text  class="poloto_text poloto_legend_text" x="675" y="350" >Level 5</text><rect  class="poloto_linefill poloto_legend_icon poloto5fill poloto5legend" x="680" y="326.25" width="50" height="7.5" rx="5" ry="5" /><path  class="poloto_linefill poloto5fill" d=" M 150.00 400.00 L 150.00 357.00 L 155.10 362.81 L 160.20 362.71 L 165.31 362.23 L 170.41 360.62 L 175.51 361.21 L 180.61 360.37 L 185.71 360.17 L 190.82 358.34 L 195.92 360.62 L 201.02 344.43 L 206.12 360.60 L 211.22 361.15 L 216.33 360.94 L 221.43 359.54 L 226.53 359.47 L 231.63 359.27 L 236.73 360.21 L 241.84 359.95 L 246.94 359.26 L 252.04 360.01 L 257.14 359.95 L 262.24 358.18 L 267.35 358.35 L 272.45 359.00 L 277.55 358.92 L 282.65 358.45 L 287.76 358.96 L 292.86 357.73 L 297.96 358.52 L 303.06 355.23 L 308.16 358.07 L 313.27 358.12 L 318.37 358.49 L 323.47 358.49 L 328.57 357.39 L 333.67 357.74 L 338.78 358.52 L 343.88 357.82 L 348.98 357.31 L 354.08 356.66 L 359.18 357.23 L 364.29 356.81 L 369.39 356.39 L 374.49 357.62 L 379.59 356.52 L 384.69 356.52 L 389.80 356.83 L 394.90 358.16 L 400.00 355.86 L 405.10 356.18 L 410.20 357.11 L 415.31 356.74 L 420.41 345.10 L 425.51 357.57 L 430.61 357.56 L 435.71 356.79 L 440.82 356.88 L 445.92 355.50 L 451.02 357.32 L 456.12 357.75 L 461.22 355.82 L 466.33 356.75 L 471.43 357.69 L 476.53 356.12 L 481.63 357.12 L 486.73 357.26 L 491.84 357.39 L 496.94 355.45 L 502.04 356.01 L 507.14 357.90 L 512.24 355.94 L 517.35 357.38 L 522.45 357.45 L 527.55 358.03 L 532.65 356.08 L 537.76 357.36 L 542.86 358.65 L 547.96 358.69 L 553.06 358.62 L 558.16 358.48 L 563.27 358.41 L 568.37 357.73 L 573.47 357.65 L 578.57 357.65 L 583.67 356.96 L 588.78 358.80 L 593.88 359.63 L 598.98 359.40 L 604.08 357.64 L 609.18 357.68 L 614.29 357.98 L 619.39 358.89 L 624.49 358.20 L 629.59 359.89 L 634.69 360.10 L 639.80 359.90 L 644.90 360.51 L 650.00 359.34 L 650.00 400.00 Z" /><text  class="poloto_text poloto_legend_text" x="675" y="400" >Level 6</text><rect  class="poloto_linefill poloto_legend_icon poloto6fill poloto6legend" x="680" y="376.25" width="50" height="7.5" rx="5" ry="5" /><path  class="poloto_linefill poloto6fill" d=" M 150.00 400.00 L 150.00 382.91 L 155.10 384.36 L 160.20 384.15 L 165.31 383.93 L 170.41 383.11 L 175.51 383.19 L 180.61 382.75 L 185.71 382.33 L 190.82 381.18 L 195.92 382.37 L 201.02 371.54 L 206.12 381.88 L 211.22 381.86 L 216.33 381.81 L 221.43 381.00 L 226.53 380.89 L 231.63 380.56 L 236.73 380.58 L 241.84 380.33 L 246.94 380.07 L 252.04 380.12 L 257.14 380.01 L 262.24 379.32 L 267.35 379.23 L 272.45 379.10 L 277.55 378.86 L 282.65 378.46 L 287.76 378.68 L 292.86 378.36 L 297.96 378.30 L 303.06 376.37 L 308.16 377.80 L 313.27 377.68 L 318.37 377.82 L 323.47 377.78 L 328.57 377.00 L 333.67 377.36 L 338.78 377.53 L 343.88 377.23 L 348.98 376.70 L 354.08 376.37 L 359.18 376.52 L 364.29 376.11 L 369.39 376.23 L 374.49 376.45 L 379.59 375.63 L 384.69 375.72 L 389.80 375.75 L 394.90 376.47 L 400.00 375.15 L 405.10 375.24 L 410.20 375.69 L 415.31 375.46 L 420.41 367.67 L 425.51 375.70 L 430.61 375.62 L 435.71 375.36 L 440.82 375.04 L 445.92 374.65 L 451.02 375.36 L 456.12 375.55 L 461.22 374.84 L 466.33 374.98 L 471.43 375.64 L 476.53 374.44 L 481.63 374.91 L 486.73 374.91 L 491.84 374.86 L 496.94 373.92 L 502.04 374.39 L 507.14 375.09 L 512.24 374.17 L 517.35 374.73 L 522.45 374.64 L 527.55 375.03 L 532.65 374.01 L 537.76 374.63 L 542.86 375.28 L 547.96 375.33 L 553.06 375.24 L 558.16 375.16 L 563.27 375.05 L 568.37 374.79 L 573.47 374.66 L 578.57 374.63 L 583.67 374.30 L 588.78 375.26 L 593.88 375.68 L 598.98 375.50 L 604.08 374.52 L 609.18 374.44 L 614.29 374.77 L 619.39 375.22 L 624.49 374.78 L 629.59 375.72 L 634.69 375.83 L 639.80 375.70 L 644.90 375.99 L 650.00 375.46 L 650.00 400.00 Z" /><text  class="poloto_labels poloto_text poloto_title" x="400" y="37.5" >Bench of query levels with abspiral(5000,x)</text><text  class="poloto_labels poloto_text poloto_xname" x="400" y="481.25" >Spiral Grow</text><text  class="poloto_labels poloto_text poloto_yname" transform="rotate(-90,37.5,250)" x="37.5" y="250" >Time taken in Seconds</text><text  class="poloto_tick_labels poloto_text" dominant-baseline="middle" text-anchor="start" x="150" y="70" ></text><line  class="poloto_axis_lines" stroke="black" x1="150" x2="144" y1="400" y2="400" /><text  class="poloto_tick_labels poloto_text" dominant-baseline="middle" text-anchor="end" x="135" y="400" >0e0</text><line  class="poloto_axis_lines" stroke="black" x1="150" x2="144" y1="314.06711329807126" y2="314.06711329807126" /><text  class="poloto_tick_labels poloto_text" dominant-baseline="middle" text-anchor="end" x="135" y="314.06711329807126" >0.002</text><line  class="poloto_axis_lines" stroke="black" x1="150" x2="144" y1="228.13422659614247" y2="228.13422659614247" /><text  class="poloto_tick_labels poloto_text" dominant-baseline="middle" text-anchor="end" x="135" y="228.13422659614247" >0.004</text><line  class="poloto_axis_lines" stroke="black" x1="150" x2="144" y1="142.20133989421373" y2="142.20133989421373" /><text  class="poloto_tick_labels poloto_text" dominant-baseline="middle" text-anchor="end" x="135" y="142.20133989421373" >0.006</text><text  class="poloto_tick_labels poloto_text" dominant-baseline="middle" text-anchor="start" x="440.00000000000006" y="70" ></text><line  class="poloto_axis_lines" stroke="black" x1="201.58730158730162" x2="201.58730158730162" y1="400" y2="405" /><text  class="poloto_tick_labels poloto_text" dominant-baseline="start" text-anchor="middle" x="201.58730158730162" y="430" >0.7</text><line  class="poloto_axis_lines" stroke="black" x1="258.2766439909297" x2="258.2766439909297" y1="400" y2="405" /><text  class="poloto_tick_labels poloto_text" dominant-baseline="start" text-anchor="middle" x="258.2766439909297" y="430" >0.8</text><line  class="poloto_axis_lines" stroke="black" x1="314.9659863945579" x2="314.9659863945579" y1="400" y2="405" /><text  class="poloto_tick_labels poloto_text" dominant-baseline="start" text-anchor="middle" x="314.9659863945579" y="430" >0.9</text><line  class="poloto_axis_lines" stroke="black" x1="371.6553287981859" x2="371.6553287981859" y1="400" y2="405" /><text  class="poloto_tick_labels poloto_text" dominant-baseline="start" text-anchor="middle" x="371.6553287981859" y="430" >1.0</text><line  class="poloto_axis_lines" stroke="black" x1="428.3446712018141" x2="428.3446712018141" y1="400" y2="405" /><text  class="poloto_tick_labels poloto_text" dominant-baseline="start" text-anchor="middle" x="428.3446712018141" y="430" >1.1</text><line  class="poloto_axis_lines" stroke="black" x1="485.03401360544217" x2="485.03401360544217" y1="400" y2="405" /><text  class="poloto_tick_labels poloto_text" dominant-baseline="start" text-anchor="middle" x="485.03401360544217" y="430" >1.2</text><line  class="poloto_axis_lines" stroke="black" x1="541.7233560090704" x2="541.7233560090704" y1="400" y2="405" /><text  class="poloto_tick_labels poloto_text" dominant-baseline="start" text-anchor="middle" x="541.7233560090704" y="430" >1.3</text><line  class="poloto_axis_lines" stroke="black" x1="598.4126984126984" x2="598.4126984126984" y1="400" y2="405" /><text  class="poloto_tick_labels poloto_text" dominant-baseline="start" text-anchor="middle" x="598.4126984126984" y="430" >1.4</text><path  stroke="black" fill="none" class="poloto_axis_lines" style="stroke-dasharray:14.172335600907028;stroke-dashoffset:-51.587301587301624;" d=" M 150 400 L 650 400" /><path  stroke="black" fill="none" class="poloto_axis_lines" style="stroke-dasharray:10.741610837741096;stroke-dashoffset:-0;" d=" M 150 400 L 150 100" /></svg>