<svg class="poloto" width="800" height="500" viewBox="0 0 800 500" xmlns="http://www.w3.org/2000/svg"><circle  r="1e5" class="poloto_background" /><text  class="poloto_text poloto_legend_text" x="675" y="100" >Level 0</text><rect  class="poloto_linefill poloto_legend_icon poloto0fill poloto0legend" x="680" y="76.25" width="50" height="7.5" rx="5" ry="5" /><path  class="poloto_linefill poloto0fill" d=" M 150.00 400.00 L 150.00 367.20 L 155.10 374.34 L 160.20 381.85 L 165.31 388.73 L 170.41 390.72 L 175.51 391.44 L 180.61 391.12 L 185.71 392.04 L 190.82 391.40 L 195.92 393.15 L 201.02 393.52 L 206.12 393.59 L 211.22 393.64 L 216.33 394.59 L 221.43 394.81 L 226.53 395.04 L 231.63 395.21 L 236.73 395.45 L 241.84 395.32 L 246.94 395.72 L 252.04 395.77 L 257.14 396.06 L 262.24 395.79 L 267.35 395.80 L 272.45 395.75 L 277.55 396.06 L 282.65 396.32 L 287.76 396.20 L 292.86 396.46 L 297.96 396.30 L 303.06 396.46 L 308.16 396.32 L 313.27 395.70 L 318.37 396.50 L 323.47 396.52 L 328.57 396.72 L 333.67 396.81 L 338.78 396.88 L 343.88 396.81 L 348.98 396.40 L 354.08 397.01 L 359.18 396.95 L 364.29 397.20 L 369.39 397.04 L 374.49 397.22 L 379.59 397.34 L 384.69 397.36 L 389.80 397.39 L 394.90 397.32 L 400.00 397.48 L 405.10 397.50 L 410.20 397.38 L 415.31 397.65 L 420.41 397.37 L 425.51 397.54 L 430.61 397.46 L 435.71 397.57 L 440.82 397.84 L 445.92 397.65 L 451.02 397.84 L 456.12 397.90 L 461.22 397.78 L 466.33 397.39 L 471.43 397.91 L 476.53 398.03 L 481.63 397.84 L 486.73 398.01 L 491.84 398.02 L 496.94 397.75 L 502.04 397.87 L 507.14 397.27 L 512.24 398.11 L 517.35 398.03 L 522.45 398.00 L 527.55 398.18 L 532.65 398.21 L 537.76 398.16 L 542.86 398.08 L 547.96 397.48 L 553.06 398.19 L 558.16 398.20 L 563.27 398.37 L 568.37 398.30 L 573.47 398.27 L 578.57 398.19 L 583.67 398.41 L 588.78 398.26 L 593.88 397.55 L 598.98 398.23 L 604.08 398.31 L 609.18 398.27 L 614.29 398.41 L 619.39 398.44 L 624.49 398.28 L 629.59 398.40 L 634.69 398.37 L 639.80 398.01 L 644.90 398.65 L 650.00 398.68 L 650.00 400.00 Z" /><text  class="poloto_text poloto_legend_text" x="675" y="150" >Level 1</text><rect  class="poloto_linefill poloto_legend_icon poloto1fill poloto1legend" x="680" y="126.25" width="50" height="7.5" rx="5" ry="5" /><path  class="poloto_linefill poloto1fill" d=" M 150.00 400.00 L 150.00 100.00 L 155.10 211.39 L 160.20 272.86 L 165.31 304.64 L 170.41 308.70 L 175.51 310.59 L 180.61 311.81 L 185.71 305.34 L 190.82 312.01 L 195.92 316.77 L 201.02 317.92 L 206.12 318.86 L 211.22 319.35 L 216.33 306.11 L 221.43 322.98 L 226.53 324.28 L 231.63 324.59 L 236.73 325.85 L 241.84 326.25 L 246.94 311.98 L 252.04 328.87 L 257.14 330.62 L 262.24 329.28 L 267.35 329.13 L 272.45 330.07 L 277.55 318.52 L 282.65 334.56 L 287.76 334.19 L 292.86 336.10 L 297.96 335.13 L 303.06 336.94 L 308.16 339.17 L 313.27 327.40 L 318.37 340.75 L 323.47 338.29 L 328.57 340.26 L 333.67 341.61 L 338.78 342.28 L 343.88 340.47 L 348.98 333.16 L 354.08 343.61 L 359.18 343.20 L 364.29 343.99 L 369.39 343.40 L 374.49 346.00 L 379.59 346.71 L 384.69 337.66 L 389.80 347.46 L 394.90 346.22 L 400.00 347.47 L 405.10 348.54 L 410.20 346.97 L 415.31 348.91 L 420.41 350.84 L 425.51 341.71 L 430.61 346.99 L 435.71 349.74 L 440.82 351.90 L 445.92 348.49 L 451.02 350.56 L 456.12 351.78 L 461.22 346.65 L 466.33 346.10 L 471.43 349.51 L 476.53 353.90 L 481.63 351.70 L 486.73 352.99 L 491.84 354.29 L 496.94 352.25 L 502.04 354.87 L 507.14 347.77 L 512.24 355.82 L 517.35 355.70 L 522.45 354.49 L 527.55 356.30 L 532.65 357.08 L 537.76 357.73 L 542.86 355.96 L 547.96 349.78 L 553.06 358.82 L 558.16 356.56 L 563.27 358.02 L 568.37 357.98 L 573.47 359.07 L 578.57 358.42 L 583.67 359.70 L 588.78 358.44 L 593.88 353.75 L 598.98 360.39 L 604.08 361.24 L 609.18 359.31 L 614.29 360.90 L 619.39 360.37 L 624.49 360.99 L 629.59 361.73 L 634.69 354.87 L 639.80 354.92 L 644.90 361.94 L 650.00 362.31 L 650.00 400.00 Z" /><text  class="poloto_text poloto_legend_text" x="675" y="200" >Level 2</text><rect  class="poloto_linefill poloto_legend_icon poloto2fill poloto2legend" x="680" y="176.25" width="50" height="7.5" rx="5" ry="5" /><path  class="poloto_linefill poloto2fill" d=" M 150.00 400.00 L 150.00 112.04 L 155.10 225.66 L 160.20 281.56 L 165.31 312.00 L 170.41 315.37 L 175.51 316.87 L 180.61 317.31 L 185.71 311.14 L 190.82 320.64 L 195.92 322.96 L 201.02 324.40 L 206.12 325.49 L 211.22 326.13 L 216.33 310.23 L 221.43 330.15 L 226.53 330.58 L 231.63 330.53 L 236.73 332.22 L 241.84 332.61 L 246.94 315.16 L 252.04 335.02 L 257.14 336.28 L 262.24 335.38 L 267.35 334.68 L 272.45 336.42 L 277.55 332.69 L 282.65 339.85 L 287.76 339.61 L 292.86 341.32 L 297.96 340.43 L 303.06 342.13 L 308.16 344.21 L 313.27 333.93 L 318.37 345.30 L 323.47 342.86 L 328.57 344.65 L 333.67 345.71 L 338.78 346.79 L 343.88 345.86 L 348.98 335.92 L 354.08 347.90 L 359.18 347.88 L 364.29 348.75 L 369.39 347.83 L 374.49 350.32 L 379.59 350.90 L 384.69 341.38 L 389.80 351.90 L 394.90 350.74 L 400.00 352.32 L 405.10 352.89 L 410.20 351.58 L 415.31 353.15 L 420.41 355.02 L 425.51 344.63 L 430.61 351.38 L 435.71 354.01 L 440.82 355.90 L 445.92 352.59 L 451.02 354.55 L 456.12 357.02 L 461.22 351.06 L 466.33 350.45 L 471.43 355.56 L 476.53 357.88 L 481.63 355.94 L 486.73 357.00 L 491.84 359.20 L 496.94 356.35 L 502.04 358.82 L 507.14 351.83 L 512.24 359.60 L 517.35 359.58 L 522.45 358.55 L 527.55 359.96 L 532.65 360.76 L 537.76 361.31 L 542.86 359.73 L 547.96 353.51 L 553.06 362.69 L 558.16 360.52 L 563.27 361.87 L 568.37 361.90 L 573.47 362.82 L 578.57 362.38 L 583.67 363.63 L 588.78 362.47 L 593.88 356.92 L 598.98 364.38 L 604.08 365.14 L 609.18 363.25 L 614.29 364.64 L 619.39 364.01 L 624.49 365.74 L 629.59 365.43 L 634.69 358.91 L 639.80 358.73 L 644.90 365.69 L 650.00 366.14 L 650.00 400.00 Z" /><text  class="poloto_text poloto_legend_text" x="675" y="250" >Level 3</text><rect  class="poloto_linefill poloto_legend_icon poloto3fill poloto3legend" x="680" y="226.25" width="50" height="7.5" rx="5" ry="5" /><path  class="poloto_linefill poloto3fill" d=" M 150.00 400.00 L 150.00 161.60 L 155.10 255.15 L 160.20 297.49 L 165.31 325.21 L 170.41 327.60 L 175.51 328.00 L 180.61 329.04 L 185.71 322.52 L 190.82 329.82 L 195.92 331.55 L 201.02 332.71 L 206.12 332.64 L 211.22 333.19 L 216.33 319.93 L 221.43 336.89 L 226.53 337.27 L 231.63 337.15 L 236.73 338.30 L 241.84 339.03 L 246.94 328.34 L 252.04 340.43 L 257.14 341.80 L 262.24 340.79 L 267.35 340.54 L 272.45 341.53 L 277.55 337.95 L 282.65 343.97 L 287.76 344.01 L 292.86 345.28 L 297.96 344.31 L 303.06 345.96 L 308.16 347.78 L 313.27 335.65 L 318.37 348.91 L 323.47 346.59 L 328.57 347.71 L 333.67 348.99 L 338.78 349.96 L 343.88 348.50 L 348.98 340.88 L 354.08 350.52 L 359.18 350.39 L 364.29 351.64 L 369.39 350.41 L 374.49 352.68 L 379.59 353.07 L 384.69 344.39 L 389.80 353.67 L 394.90 352.56 L 400.00 353.59 L 405.10 354.29 L 410.20 352.93 L 415.31 354.06 L 420.41 356.17 L 425.51 347.80 L 430.61 352.52 L 435.71 354.86 L 440.82 356.74 L 445.92 353.51 L 451.02 355.27 L 456.12 357.64 L 461.22 351.57 L 466.33 353.41 L 471.43 356.17 L 476.53 358.24 L 481.63 356.47 L 486.73 357.20 L 491.84 359.66 L 496.94 357.05 L 502.04 359.32 L 507.14 354.02 L 512.24 359.99 L 517.35 360.18 L 522.45 359.05 L 527.55 360.44 L 532.65 361.29 L 537.76 361.75 L 542.86 360.43 L 547.96 353.24 L 553.06 362.96 L 558.16 360.88 L 563.27 361.97 L 568.37 361.99 L 573.47 362.71 L 578.57 362.06 L 583.67 363.20 L 588.78 362.04 L 593.88 356.23 L 598.98 363.82 L 604.08 364.60 L 609.18 362.62 L 614.29 363.74 L 619.39 363.51 L 624.49 364.91 L 629.59 364.75 L 634.69 354.86 L 639.80 357.15 L 644.90 364.78 L 650.00 365.24 L 650.00 400.00 Z" /><text  class="poloto_text poloto_legend_text" x="675" y="300" >Level 4</text><rect  class="poloto_linefill poloto_legend_icon poloto4fill poloto4legend" x="680" y="276.25" width="50" height="7.5" rx="5" ry="5" /><path  class="poloto_linefill poloto4fill" d=" M 150.00 400.00 L 150.00 173.88 L 155.10 270.21 L 160.20 304.81 L 165.31 332.35 L 170.41 334.59 L 175.51 334.87 L 180.61 335.41 L 185.71 328.24 L 190.82 335.51 L 195.92 338.18 L 201.02 338.18 L 206.12 338.12 L 211.22 339.62 L 216.33 332.66 L 221.43 342.00 L 226.53 341.99 L 231.63 342.52 L 236.73 343.20 L 241.84 344.10 L 246.94 336.56 L 252.04 344.92 L 257.14 346.22 L 262.24 345.51 L 267.35 345.31 L 272.45 346.28 L 277.55 343.24 L 282.65 349.10 L 287.76 348.96 L 292.86 349.80 L 297.96 349.18 L 303.06 350.96 L 308.16 353.32 L 313.27 344.90 L 318.37 354.15 L 323.47 351.77 L 328.57 353.27 L 333.67 354.16 L 338.78 354.59 L 343.88 354.30 L 348.98 346.66 L 354.08 355.81 L 359.18 356.08 L 364.29 357.50 L 369.39 356.52 L 374.49 358.85 L 379.59 359.10 L 384.69 349.26 L 389.80 359.36 L 394.90 358.90 L 400.00 360.21 L 405.10 360.44 L 410.20 359.15 L 415.31 360.84 L 420.41 362.19 L 425.51 354.30 L 430.61 358.97 L 435.71 361.10 L 440.82 362.73 L 445.92 360.03 L 451.02 361.66 L 456.12 363.85 L 461.22 358.05 L 466.33 360.92 L 471.43 362.79 L 476.53 364.59 L 481.63 363.14 L 486.73 364.35 L 491.84 365.96 L 496.94 363.63 L 502.04 365.90 L 507.14 361.76 L 512.24 366.17 L 517.35 366.13 L 522.45 365.25 L 527.55 366.70 L 532.65 367.51 L 537.76 367.89 L 542.86 366.73 L 547.96 360.11 L 553.06 368.87 L 558.16 367.25 L 563.27 368.37 L 568.37 368.15 L 573.47 368.73 L 578.57 368.14 L 583.67 369.35 L 588.78 368.15 L 593.88 363.84 L 598.98 369.87 L 604.08 370.50 L 609.18 368.86 L 614.29 370.11 L 619.39 369.66 L 624.49 370.76 L 629.59 370.91 L 634.69 368.19 L 639.80 364.64 L 644.90 370.81 L 650.00 371.14 L 650.00 400.00 Z" /><text  class="poloto_text poloto_legend_text" x="675" y="350" >Level 5</text><rect  class="poloto_linefill poloto_legend_icon poloto5fill poloto5legend" x="680" y="326.25" width="50" height="7.5" rx="5" ry="5" /><path  class="poloto_linefill poloto5fill" d=" M 150.00 400.00 L 150.00 275.10 L 155.10 319.75 L 160.20 343.59 L 165.31 357.67 L 170.41 357.97 L 175.51 357.85 L 180.61 357.83 L 185.71 348.83 L 190.82 357.79 L 195.92 358.16 L 201.02 359.21 L 206.12 358.26 L 211.22 358.17 L 216.33 352.25 L 221.43 359.10 L 226.53 359.41 L 231.63 358.61 L 236.73 359.30 L 241.84 359.69 L 246.94 353.23 L 252.04 359.55 L 257.14 360.22 L 262.24 359.37 L 267.35 359.55 L 272.45 360.14 L 277.55 357.33 L 282.65 360.92 L 287.76 360.47 L 292.86 361.31 L 297.96 360.18 L 303.06 361.07 L 308.16 362.19 L 313.27 359.50 L 318.37 362.53 L 323.47 361.19 L 328.57 362.00 L 333.67 362.86 L 338.78 362.80 L 343.88 362.09 L 348.98 356.11 L 354.08 362.53 L 359.18 361.69 L 364.29 362.86 L 369.39 361.15 L 374.49 362.51 L 379.59 362.82 L 384.69 354.12 L 389.80 363.49 L 394.90 362.08 L 400.00 363.36 L 405.10 363.46 L 410.20 362.40 L 415.31 363.60 L 420.41 364.99 L 425.51 356.33 L 430.61 362.20 L 435.71 363.62 L 440.82 364.98 L 445.92 362.91 L 451.02 363.74 L 456.12 365.63 L 461.22 359.04 L 466.33 360.90 L 471.43 364.28 L 476.53 365.97 L 481.63 364.22 L 486.73 364.95 L 491.84 366.81 L 496.94 364.09 L 502.04 365.72 L 507.14 360.15 L 512.24 365.72 L 517.35 366.32 L 522.45 364.70 L 527.55 366.26 L 532.65 366.92 L 537.76 367.42 L 542.86 366.02 L 547.96 359.00 L 553.06 368.25 L 558.16 366.19 L 563.27 367.34 L 568.37 366.92 L 573.47 367.71 L 578.57 367.38 L 583.67 367.70 L 588.78 366.61 L 593.88 363.47 L 598.98 368.46 L 604.08 368.97 L 609.18 366.69 L 614.29 368.71 L 619.39 367.93 L 624.49 369.23 L 629.59 369.31 L 634.69 366.35 L 639.80 360.30 L 644.90 368.99 L 650.00 369.48 L 650.00 400.00 Z" /><text  class="poloto_text poloto_legend_text" x="675" y="400" >Level 6</text><rect  class="poloto_linefill poloto_legend_icon poloto6fill poloto6legend" x="680" y="376.25" width="50" height="7.5" rx="5" ry="5" /><path  class="poloto_linefill poloto6fill" d=" M 150.00 400.00 L 150.00 341.63 L 155.10 364.09 L 160.20 372.63 L 165.31 380.29 L 170.41 380.22 L 175.51 379.85 L 180.61 379.74 L 185.71 379.90 L 190.82 379.62 L 195.92 378.67 L 201.02 379.45 L 206.12 379.35 L 211.22 378.33 L 216.33 372.36 L 221.43 379.39 L 226.53 378.80 L 231.63 378.59 L 236.73 378.76 L 241.84 378.31 L 246.94 372.70 L 252.04 378.86 L 257.14 378.79 L 262.24 377.20 L 267.35 377.69 L 272.45 377.68 L 277.55 371.40 L 282.65 378.09 L 287.76 378.16 L 292.86 377.99 L 297.96 377.18 L 303.06 377.95 L 308.16 378.37 L 313.27 376.80 L 318.37 378.29 L 323.47 377.05 L 328.57 377.53 L 333.67 377.83 L 338.78 378.15 L 343.88 377.85 L 348.98 373.32 L 354.08 377.79 L 359.18 377.48 L 364.29 377.73 L 369.39 376.52 L 374.49 377.67 L 379.59 377.92 L 384.69 366.68 L 389.80 377.64 L 394.90 377.15 L 400.00 377.77 L 405.10 377.61 L 410.20 376.98 L 415.31 377.77 L 420.41 378.12 L 425.51 371.54 L 430.61 375.99 L 435.71 377.14 L 440.82 377.96 L 445.92 375.84 L 451.02 377.00 L 456.12 378.23 L 461.22 370.31 L 466.33 376.56 L 471.43 377.19 L 476.53 378.13 L 481.63 377.19 L 486.73 377.85 L 491.84 378.58 L 496.94 376.43 L 502.04 377.96 L 507.14 374.26 L 512.24 377.71 L 517.35 378.13 L 522.45 377.59 L 527.55 378.18 L 532.65 378.42 L 537.76 378.12 L 542.86 377.50 L 547.96 373.84 L 553.06 378.98 L 558.16 378.00 L 563.27 378.76 L 568.37 378.54 L 573.47 378.30 L 578.57 378.35 L 583.67 378.80 L 588.78 377.82 L 593.88 376.31 L 598.98 379.15 L 604.08 379.39 L 609.18 378.74 L 614.29 379.39 L 619.39 378.74 L 624.49 379.47 L 629.59 379.50 L 634.69 377.56 L 639.80 375.06 L 644.90 379.44 L 650.00 379.59 L 650.00 400.00 Z" /><text  class="poloto_text poloto_legend_text" x="675" y="450" >Level 7</text><rect  class="poloto_linefill poloto_legend_icon poloto7fill poloto7legend" x="680" y="426.25" width="50" height="7.5" rx="5" ry="5" /><path  class="poloto_linefill poloto7fill" d=" M 150.00 400.00 L 150.00 373.14 L 155.10 381.72 L 160.20 385.88 L 165.31 389.20 L 170.41 389.45 L 175.51 389.16 L 180.61 389.02 L 185.71 388.95 L 190.82 388.73 L 195.92 388.54 L 201.02 388.25 L 206.12 388.12 L 211.22 387.89 L 216.33 385.05 L 221.43 387.34 L 226.53 386.88 L 231.63 386.93 L 236.73 386.67 L 241.84 386.61 L 246.94 385.43 L 252.04 386.21 L 257.14 386.14 L 262.24 385.48 L 267.35 385.72 L 272.45 385.72 L 277.55 385.46 L 282.65 385.25 L 287.76 385.15 L 292.86 385.09 L 297.96 384.54 L 303.06 384.18 L 308.16 384.73 L 313.27 382.01 L 318.37 384.49 L 323.47 384.05 L 328.57 384.01 L 333.67 384.06 L 338.78 383.96 L 343.88 383.44 L 348.98 377.00 L 354.08 383.19 L 359.18 382.71 L 364.29 382.71 L 369.39 382.30 L 374.49 382.25 L 379.59 382.38 L 384.69 378.39 L 389.80 381.82 L 394.90 381.17 L 400.00 381.75 L 405.10 381.47 L 410.20 380.52 L 415.31 381.22 L 420.41 381.38 L 425.51 376.85 L 430.61 380.46 L 435.71 379.99 L 440.82 380.59 L 445.92 380.00 L 451.02 379.05 L 456.12 380.43 L 461.22 379.59 L 466.33 379.61 L 471.43 379.49 L 476.53 379.68 L 481.63 378.94 L 486.73 379.15 L 491.84 379.43 L 496.94 377.44 L 502.04 378.60 L 507.14 374.54 L 512.24 377.48 L 517.35 378.23 L 522.45 377.77 L 527.55 378.42 L 532.65 378.42 L 537.76 378.53 L 542.86 377.03 L 547.96 370.39 L 553.06 378.24 L 558.16 377.31 L 563.27 377.78 L 568.37 377.06 L 573.47 377.49 L 578.57 377.35 L 583.67 377.11 L 588.78 375.85 L 593.88 374.72 L 598.98 377.41 L 604.08 377.57 L 609.18 376.60 L 614.29 377.20 L 619.39 376.09 L 624.49 377.20 L 629.59 377.20 L 634.69 374.65 L 639.80 373.80 L 644.90 376.86 L 650.00 376.76 L 650.00 400.00 Z" /><text  class="poloto_labels poloto_text poloto_title" x="400" y="37.5" >Bench of query levels with abspiral(5000,x)</text><text  class="poloto_labels poloto_text poloto_xname" x="400" y="481.25" >Spiral Grow</text><text  class="poloto_labels poloto_text poloto_yname" transform="rotate(-90,37.5,250)" x="37.5" y="250" >Time taken in Seconds</text><text  class="poloto_tick_labels poloto_text" dominant-baseline="middle" text-anchor="start" x="150" y="70" ></text><line  class="poloto_axis_lines" stroke="black" x1="150" x2="144" y1="400" y2="400" /><text  class="poloto_tick_labels poloto_text" dominant-baseline="middle" text-anchor="end" x="135" y="400" >0e0</text><line  class="poloto_axis_lines" stroke="black" x1="150" x2="144" y1="335.50198589385434" y2="335.50198589385434" /><text  class="poloto_tick_labels poloto_text" dominant-baseline="middle" text-anchor="end" x="135" y="335.50198589385434" >0.001</text><line  class="poloto_axis_lines" stroke="black" x1="150" x2="144" y1="271.0039717877086" y2="271.0039717877086" /><text  class="poloto_tick_labels poloto_text" dominant-baseline="middle" text-anchor="end" x="135" y="271.0039717877086" >0.002</text><line  class="poloto_axis_lines" stroke="black" x1="150" x2="144" y1="206.50595768156296" y2="206.50595768156296" /><text  class="poloto_tick_labels poloto_text" dominant-baseline="middle" text-anchor="end" x="135" y="206.50595768156296" >0.003</text><line  class="poloto_axis_lines" stroke="black" x1="150" x2="144" y1="142.00794357541724" y2="142.00794357541724" /><text  class="poloto_tick_labels poloto_text" dominant-baseline="middle" text-anchor="end" x="135" y="142.00794357541724" >0.004</text><text  class="poloto_tick_labels poloto_text" dominant-baseline="middle" text-anchor="start" x="440.00000000000006" y="70" ></text><line  class="poloto_axis_lines" stroke="black" x1="201.58730158730162" x2="201.58730158730162" y1="400" y2="405" /><text  class="poloto_tick_labels poloto_text" dominant-baseline="start" text-anchor="middle" x="201.58730158730162" y="430" >0.7</text><line  class="poloto_axis_lines" stroke="black" x1="258.2766439909297" x2="258.2766439909297" y1="400" y2="405" /><text  class="poloto_tick_labels poloto_text" dominant-baseline="start" text-anchor="middle" x="258.2766439909297" y="430" >0.8</text><line  class="poloto_axis_lines" stroke="black" x1="314.9659863945579" x2="314.9659863945579" y1="400" y2="405" /><text  class="poloto_tick_labels poloto_text" dominant-baseline="start" text-anchor="middle" x="314.9659863945579" y="430" >0.9</text><line  class="poloto_axis_lines" stroke="black" x1="371.6553287981859" x2="371.6553287981859" y1="400" y2="405" /><text  class="poloto_tick_labels poloto_text" dominant-baseline="start" text-anchor="middle" x="371.6553287981859" y="430" >1.0</text><line  class="poloto_axis_lines" stroke="black" x1="428.3446712018141" x2="428.3446712018141" y1="400" y2="405" /><text  class="poloto_tick_labels poloto_text" dominant-baseline="start" text-anchor="middle" x="428.3446712018141" y="430" >1.1</text><line  class="poloto_axis_lines" stroke="black" x1="485.03401360544217" x2="485.03401360544217" y1="400" y2="405" /><text  class="poloto_tick_labels poloto_text" dominant-baseline="start" text-anchor="middle" x="485.03401360544217" y="430" >1.2</text><line  class="poloto_axis_lines" stroke="black" x1="541.7233560090704" x2="541.7233560090704" y1="400" y2="405" /><text  class="poloto_tick_labels poloto_text" dominant-baseline="start" text-anchor="middle" x="541.7233560090704" y="430" >1.3</text><line  class="poloto_axis_lines" stroke="black" x1="598.4126984126984" x2="598.4126984126984" y1="400" y2="405" /><text  class="poloto_tick_labels poloto_text" dominant-baseline="start" text-anchor="middle" x="598.4126984126984" y="430" >1.4</text><path  stroke="black" fill="none" class="poloto_axis_lines" style="stroke-dasharray:14.172335600907028;stroke-dashoffset:-51.587301587301624;" d=" M 150 400 L 650 400" /><path  stroke="black" fill="none" class="poloto_axis_lines" style="stroke-dasharray:6.449801410614569;stroke-dashoffset:-0;" d=" M 150 400 L 150 100" /></svg>