<svg class="poloto" width="800" height="500" viewBox="0 0 800 500" xmlns="http://www.w3.org/2000/svg" ><style><style>.poloto {
            font-family: "Arial";
            stroke-width:2;
            }
            .poloto_text{fill: var(--poloto_fg_color,black);  }
            .poloto_axis_lines{stroke: var(--poloto_fg_color,black);stoke-width:3;fill:none}
            .poloto_background{fill: var(--poloto_bg_color,aliceblue); }
            .poloto0stroke{stroke:  var(--poloto_color0,blue); }
            .poloto1stroke{stroke:  var(--poloto_color1,red); }
            .poloto2stroke{stroke:  var(--poloto_color2,green); }
            .poloto3stroke{stroke:  var(--poloto_color3,gold); }
            .poloto4stroke{stroke:  var(--poloto_color4,aqua); }
            .poloto5stroke{stroke:  var(--poloto_color5,brown); }
            .poloto6stroke{stroke:  var(--poloto_color6,lime); }
            .poloto7stroke{stroke:  var(--poloto_color7,chocolate); }
            .poloto0fill{fill:var(--poloto_color0,blue);}
            .poloto1fill{fill:var(--poloto_color1,red);}
            .poloto2fill{fill:var(--poloto_color2,green);}
            .poloto3fill{fill:var(--poloto_color3,gold);}
            .poloto4fill{fill:var(--poloto_color4,aqua);}
            .poloto5fill{fill:var(--poloto_color5,brown);}
            .poloto6fill{fill:var(--poloto_color6,lime);}
            .poloto7fill{fill:var(--poloto_color7,chocolate);}</style></style><rect class="poloto_background" fill="white" x="0" y="0" width="800" height="500" /><line class="poloto_axis_lines" stroke="black" x1="246.9387755102041" x2="246.9387755102041" y1="400" y2="405" /><text class="poloto_text" alignment-baseline="start" text-anchor="middle" x="246.9387755102041" y="430" >0.10</text><line class="poloto_axis_lines" stroke="black" x1="348.9795918367347" x2="348.9795918367347" y1="400" y2="405" /><text class="poloto_text" alignment-baseline="start" text-anchor="middle" x="348.9795918367347" y="430" >0.15</text><line class="poloto_axis_lines" stroke="black" x1="451.02040816326536" x2="451.02040816326536" y1="400" y2="405" /><text class="poloto_text" alignment-baseline="start" text-anchor="middle" x="451.02040816326536" y="430" >0.20</text><line class="poloto_axis_lines" stroke="black" x1="553.0612244897959" x2="553.0612244897959" y1="400" y2="405" /><text class="poloto_text" alignment-baseline="start" text-anchor="middle" x="553.0612244897959" y="430" >0.25</text><line class="poloto_axis_lines" stroke="black" x1="150" x2="144" y1="366.4312811781223" y2="366.4312811781223" /><text class="poloto_text" alignment-baseline="middle" text-anchor="end" x="135" y="366.4312811781223" >0.0001</text><line class="poloto_axis_lines" stroke="black" x1="150" x2="144" y1="306.6887713952863" y2="306.6887713952863" /><text class="poloto_text" alignment-baseline="middle" text-anchor="end" x="135" y="306.6887713952863" >0.0002</text><line class="poloto_axis_lines" stroke="black" x1="150" x2="144" y1="246.94626161245037" y2="246.94626161245037" /><text class="poloto_text" alignment-baseline="middle" text-anchor="end" x="135" y="246.94626161245037" >0.0003</text><line class="poloto_axis_lines" stroke="black" x1="150" x2="144" y1="187.20375182961436" y2="187.20375182961436" /><text class="poloto_text" alignment-baseline="middle" text-anchor="end" x="135" y="187.20375182961436" >0.0004</text><line class="poloto_axis_lines" stroke="black" x1="150" x2="144" y1="127.46124204677835" y2="127.46124204677835" /><text class="poloto_text" alignment-baseline="middle" text-anchor="end" x="135" y="127.46124204677835" >0.0005</text><text class="poloto_text" alignment-baseline="middle" text-anchor="start" font-size="large" x="675" y="100" >Level 0</text><rect class="poloto0fill" x="680" y="76.25" width="50" height="7.5" rx="5" ry="5" /><path class="poloto0fill"  d="M 150 400 L 150 134.41706246079394 L 155.1020408163265 127.96248170385633 L 160.20408163265304 135.23672969501445 L 165.30612244897958 130.64671266839918 L 170.40816326530611 128.39442004958624 L 175.51020408163265 131.45682110105446 L 180.6122448979592 116.94118349911878 L 185.71428571428572 129.94234847805956 L 190.81632653061226 125.49870060041218 L 195.9183673469388 120.31066105087069 L 201.0204081632653 121.63156794216923 L 206.12244897959184 103.25656420826243 L 211.22448979591837 120.53170833706724 L 216.32653061224488 122.28993039997607 L 221.4285714285714 125.42999671416197 L 226.53061224489795 120.66911610956771 L 231.63265306122446 121.42187173283145 L 236.73469387755102 120.692415688383 L 241.83673469387753 121.17692744272188 L 246.9387755102041 117.63897601338232 L 252.0408163265306 122.55100516772711 L 257.14285714285717 121.37587000029868 L 262.2448979591837 121.32269916659197 L 267.3469387755102 120.77127580129638 L 272.44897959183675 120.87283806792726 L 277.55102040816325 122.42136392149831 L 282.65306122448976 119.90560683454311 L 287.7551020408163 112.1886668458942 L 292.85714285714283 100 L 297.9591836734694 119.90142485885832 L 303.0612244897959 117.52666009499058 L 308.1632653061224 118.27045434178689 L 313.265306122449 116.98300325596676 L 318.36734693877554 116.10180123666993 L 323.46938775510205 118.82187770708242 L 328.57142857142856 116.08089135824588 L 333.6734693877551 121.16497894076531 L 338.7755102040817 117.2625982017504 L 343.8775510204082 117.8659975505571 L 348.9795918367347 121.61065806374523 L 354.08163265306126 109.81270723183076 L 359.1836734693877 121.04668877139522 L 364.2857142857143 112.29978791409025 L 369.38775510204084 113.54063984227975 L 374.48979591836735 119.98685664784773 L 379.59183673469386 118.66774203184275 L 384.6938775510204 120.92481405143826 L 389.79591836734687 113.7401798249544 L 394.89795918367344 115.86283119753853 L 400 111.19036950742299 L 405.1020408163265 114.64826597365357 L 410.2040816326531 109.89873644591808 L 415.3061224489796 117.14669773277171 L 420.40816326530614 113.32257968157239 L 425.51020408163265 116.94237834931442 L 430.6122448979592 120.13681034740267 L 435.7142857142857 115.21104041580787 L 440.8163265306123 113.81485796218294 L 445.9183673469388 119.3786778982585 L 451.02040816326536 111.6055799504137 L 456.12244897959187 115.53126026824384 L 461.22448979591843 114.44394659019622 L 466.32653061224494 110.81279684559547 L 471.4285714285715 114.02276189622722 L 476.530612244898 111.7316366460555 L 481.6326530612246 108.54736087463033 L 486.7346938775511 112.71260865668961 L 491.83673469387764 116.43576186635596 L 496.93877551020415 118.08823968694924 L 502.0408163265307 108.42249902918417 L 507.1428571428571 119.88947635690175 L 512.2448979591836 116.08208620844158 L 517.3469387755101 116.08328105863728 L 522.4489795918367 112.408519281895 L 527.5510204081633 115.5850285270484 L 532.6530612244899 115.78636078501654 L 537.7551020408164 111.05654628550946 L 542.8571428571429 115.05929444095943 L 547.9591836734694 113.83815754099828 L 553.0612244897959 115.49362248708064 L 558.1632653061224 112.7179854825701 L 563.265306122449 114.26292678555421 L 568.3673469387755 113.58066732383423 L 573.4693877551022 110.03972876900554 L 578.5714285714287 113.03999761029962 L 583.6734693877552 113.43429817486634 L 588.7755102040817 112.42345490934076 L 593.8775510204082 110.0552618215491 L 598.9795918367347 112.62777429279805 L 604.0816326530613 106.54777907219886 L 609.1836734693878 114.15120829226038 L 614.2857142857144 108.85085282432715 L 619.387755102041 104.94190040923621 L 624.4897959183675 109.93398452668998 L 629.591836734694 118.3379633778415 L 634.6938775510205 115.3299280102757 L 639.795918367347 104.93592615825793 L 644.8979591836735 110.14487558622335 L 650 109.18600830420888 L 650 400 z"/><text class="poloto_text" alignment-baseline="middle" text-anchor="start" font-size="large" x="675" y="150" >Level 1</text><rect class="poloto1fill" x="680" y="126.25" width="50" height="7.5" rx="5" ry="5" /><path class="poloto1fill"  d="M 150 400 L 150 175.8843385010604 L 155.1020408163265 167.9780147563999 L 160.20408163265304 172.19583594706813 L 165.30612244897958 167.02751142575497 L 170.40816326530611 163.08092122950083 L 175.51020408163265 167.52337425695254 L 180.6122448979592 153.6368252830301 L 185.71428571428572 167.08785136063563 L 190.81632653061226 166.86560922424349 L 195.9183673469388 159.44140753353045 L 201.0204081632653 162.20270633569314 L 206.12244897959184 142.99787914090268 L 211.22448979591837 159.36433969591062 L 216.32653061224488 159.996415449413 L 221.4285714285714 162.5725124712489 L 226.53061224489795 156.99793888341244 L 231.63265306122446 157.32592526212025 L 236.73469387755102 160.05436568390235 L 241.83673469387753 159.63736296561817 L 246.9387755102041 153.25387579532213 L 252.0408163265306 158.68805448516886 L 257.14285714285717 158.3761985841025 L 262.2448979591837 159.88529438121694 L 267.3469387755102 155.23015801893837 L 272.44897959183675 159.49995519311764 L 277.55102040816325 156.03190250022402 L 282.65306122448976 154.10460913462973 L 287.7551020408163 154.16733876990168 L 292.85714285714283 137.5487648236102 L 297.9591836734694 156.8509723093467 L 303.0612244897959 154.7994145234041 L 308.1632653061224 154.8663261343609 L 313.265306122449 154.92726349433937 L 318.36734693877554 152.8774979836903 L 323.46938775510205 154.23425038085847 L 328.57142857142856 152.49932789676492 L 333.6734693877551 155.8819488006691 L 338.7755102040817 148.35797711861875 L 343.8775510204082 151.51835588613073 L 348.9795918367347 156.29058756758369 L 354.08163265306126 148.09033067479163 L 359.1836734693877 153.7270364728022 L 364.2857142857143 148.13274785673744 L 369.38775510204084 149.7643157989067 L 374.48979591836735 154.32924097141318 L 379.59183673469386 155.2821340024494 L 384.6938775510204 153.50957373719265 L 389.79591836734687 146.48564686202465 L 394.89795918367344 150.34441556889803 L 400 149.8485527377005 L 405.1020408163265 147.93500014935623 L 410.2040816326531 147.5568300624309 L 415.3061224489796 152.168354392568 L 420.40816326530614 149.98476566000537 L 425.51020408163265 149.9100875227768 L 430.6122448979592 152.86614690683152 L 435.7142857142857 148.08734354930246 L 440.8163265306123 148.08435642381335 L 445.9183673469388 148.35857454371657 L 451.02040816326536 147.62613137377897 L 456.12244897959187 151.4287421214565 L 461.22448979591843 149.08564088777368 L 466.32653061224494 149.72189861696089 L 471.4285714285715 148.32691101353166 L 476.530612244898 150.78651014129102 L 481.6326530612246 146.9014547301132 L 486.7346938775511 150.3838456253547 L 491.83673469387764 147.82746363174712 L 496.93877551020415 151.03683125728108 L 502.0408163265307 146.24368969740414 L 507.1428571428571 153.87997729784624 L 512.2448979591836 148.33646981509693 L 517.3469387755101 145.903157391642 L 522.4489795918367 145.02255279744298 L 527.5510204081633 151.1640828031185 L 532.6530612244899 149.85870896436356 L 537.7551020408164 145.4377632404337 L 542.8571428571429 150.2781013830391 L 547.9591836734694 148.85563222510976 L 553.0612244897959 151.6754786868596 L 558.1632653061224 147.99892463482388 L 563.265306122449 150.24046360187592 L 568.3673469387755 148.38426382292317 L 573.4693877551022 148.17098306299846 L 578.5714285714287 148.58021925501086 L 583.6734693877552 145.47480359649907 L 588.7755102040817 148.54616602443468 L 593.8775510204082 146.95522298891774 L 598.9795918367347 147.49230815186544 L 604.0816326530613 144.0744391671894 L 609.1836734693878 146.1624398840995 L 614.2857142857144 145.23404128207426 L 619.387755102041 142.48827553245508 L 624.4897959183675 148.50315141739102 L 629.591836734694 150.81100457030198 L 634.6938775510205 149.530125160558 L 639.795918367347 138.66415748125576 L 644.8979591836735 141.94163156794212 L 650 143.31750156824086 L 650 400 z"/><text class="poloto_text" alignment-baseline="middle" text-anchor="start" font-size="large" x="675" y="200" >Level 2</text><rect class="poloto2fill" x="680" y="176.25" width="50" height="7.5" rx="5" ry="5" /><path class="poloto2fill"  d="M 150 400 L 150 214.2748752875108 L 155.1020408163265 207.02691400065714 L 160.20408163265304 210.82952474833468 L 165.30612244897958 208.9350897631209 L 170.40816326530611 203.1896525973056 L 175.51020408163265 206.51731039220957 L 180.6122448979592 199.56148997819398 L 185.71428571428572 205.94019774770734 L 190.81632653061226 207.8895958419213 L 195.9183673469388 198.08405771126445 L 201.0204081632653 200.39310571437107 L 206.12244897959184 181.53657735161454 L 211.22448979591837 197.34862741583774 L 216.32653061224488 200.70914359112223 L 221.4285714285714 199.2484392269319 L 226.53061224489795 196.20515577859425 L 231.63265306122446 194.7886608716432 L 236.73469387755102 197.4699047106969 L 241.83673469387753 196.46981509693222 L 246.9387755102041 192.39238880425364 L 252.0408163265306 195.73796935209245 L 257.14285714285717 193.3709711144965 L 262.2448979591837 194.48696119723985 L 267.3469387755102 193.08480449263672 L 272.44897959183675 196.80616542700957 L 277.55102040816325 193.02207485736474 L 282.65306122448976 192.05842817456758 L 287.7551020408163 190.20641037129968 L 292.85714285714283 174.68530632971888 L 297.9591836734694 193.1236371239956 L 303.0612244897959 191.82483496131667 L 308.1632653061224 192.2950085133076 L 313.265306122449 190.81219942049768 L 318.36734693877554 189.82824028437435 L 323.46938775510205 190.97230934671563 L 328.57142857142856 189.58269856916687 L 333.6734693877551 190.3730919735938 L 338.7755102040817 188.38605609821664 L 343.8775510204082 186.50416704005733 L 348.9795918367347 189.11730441795856 L 354.08163265306126 185.75439854228273 L 359.1836734693877 189.66753293305848 L 364.2857142857143 184.5953938524957 L 369.38775510204084 187.51321803028944 L 374.48979591836735 191.9007079487409 L 379.59183673469386 191.51656361083727 L 384.6938775510204 188.3758998715536 L 389.79591836734687 184.43827105176686 L 394.89795918367344 185.13307644054126 L 400 188.47208531230396 L 405.1020408163265 184.34567016160344 L 410.2040816326531 182.61134510260774 L 415.3061224489796 186.8208023419064 L 420.40816326530614 188.85204767452282 L 425.51020408163265 185.45747826866207 L 430.6122448979592 186.95163843833078 L 435.7142857142857 183.10302595812047 L 440.8163265306123 184.2554589718314 L 445.9183673469388 183.06658302715297 L 451.02040816326536 185.95453595005526 L 456.12244897959187 187.2348179347014 L 461.22448979591843 184.57030199838695 L 466.32653061224494 185.4156585118141 L 471.4285714285715 182.26782567135643 L 476.530612244898 186.61588553335122 L 481.6326530612246 183.31630671804518 L 486.7346938775511 185.19461122561756 L 491.83673469387764 182.87062759506523 L 496.93877551020415 184.8749887982794 L 502.0408163265307 182.89034262329358 L 507.1428571428571 187.56818113928963 L 512.2448979591836 182.86465334408697 L 517.3469387755101 181.65964692176715 L 522.4489795918367 181.24861845446128 L 527.5510204081633 185.11395883741073 L 532.6530612244899 186.84828389640646 L 537.7551020408164 183.28285091256683 L 542.8571428571429 186.89488305403705 L 547.9591836734694 185.26809451265044 L 553.0612244897959 184.0176837828957 L 558.1632653061224 180.50064223198015 L 563.265306122449 185.07691848134536 L 568.3673469387755 180.29930997401198 L 573.4693877551022 186.75030618036263 L 578.5714285714287 183.05284224990288 L 583.6734693877552 180.0089613764674 L 588.7755102040817 185.31588852047673 L 593.8775510204082 182.19434238432353 L 598.9795918367347 184.2662126235923 L 604.0816326530613 179.67679302207483 L 609.1836734693878 182.56952534575976 L 614.2857142857144 181.29223048660273 L 619.387755102041 179.10864175404004 L 624.4897959183675 185.64566717447798 L 629.591836734694 182.70394599277117 L 634.6938775510205 181.67816709979985 L 639.795918367347 175.9165994563431 L 644.8979591836735 179.75266600949905 L 650 181.10344415568895 L 650 400 z"/><text class="poloto_text" alignment-baseline="middle" text-anchor="start" font-size="large" x="675" y="250" >Level 3</text><rect class="poloto3fill" x="680" y="226.25" width="50" height="7.5" rx="5" ry="5" /><path class="poloto3fill"  d="M 150 400 L 150 259.84108492397763 L 155.1020408163265 254.07951728052092 L 160.20408163265304 256.92445559637963 L 165.30612244897958 253.45341577799687 L 170.40816326530611 250.00388326313586 L 175.51020408163265 250.3665202975177 L 180.6122448979592 245.98261492965318 L 185.71428571428572 249.81091495653732 L 190.81632653061226 249.3891328374705 L 195.9183673469388 242.49126265794422 L 201.0204081632653 244.55118439525643 L 206.12244897959184 234.79344027242584 L 211.22448979591837 243.00564566717446 L 216.32653061224488 244.2739791498641 L 221.4285714285714 243.4967290975894 L 226.53061224489795 240.4910834304149 L 231.63265306122446 239.056665770529 L 236.73469387755102 240.35666278340355 L 241.83673469387753 239.96475191922812 L 246.9387755102041 235.29706962989513 L 252.0408163265306 238.33258655196101 L 257.14285714285717 237.82955461958957 L 262.2448979591837 237.23929862293514 L 267.3469387755102 237.86958210114403 L 272.44897959183675 239.70965140245542 L 277.55102040816325 236.52776533142156 L 282.65306122448976 234.70681363324076 L 287.7551020408163 233.87937987274847 L 292.85714285714283 219.04292499327894 L 297.9591836734694 236.9280401469666 L 303.0612244897959 233.1541058039848 L 308.1632653061224 234.92427636885023 L 313.265306122449 230.89285180870445 L 318.36734693877554 232.02198524360006 L 323.46938775510205 233.40621919526836 L 328.57142857142856 234.27845983809777 L 333.6734693877551 232.25557845685097 L 338.7755102040817 232.75681811392892 L 343.8775510204082 229.32222122651368 L 348.9795918367347 229.20452848224156 L 354.08163265306126 227.35370552916928 L 359.1836734693877 230.14965498700602 L 364.2857142857143 227.16252949786417 L 369.38775510204084 229.3383517041551 L 374.48979591836735 233.209068912985 L 379.59183673469386 231.28237297248856 L 384.6938775510204 230.68375302446455 L 389.79591836734687 225.98440720494668 L 394.89795918367344 228.19010066612896 L 400 230.19924127012573 L 405.1020408163265 225.73767063954352 L 410.2040816326531 223.86713265824298 L 415.3061224489796 227.22645398333182 L 420.40816326530614 229.58867282014515 L 425.51020408163265 225.65821310153237 L 430.6122448979592 225.86014278459837 L 435.7142857142857 224.8702093974968 L 440.8163265306123 224.45858350509306 L 445.9183673469388 224.35642381336442 L 451.02040816326536 226.6278340353078 L 456.12244897959187 228.88729575529464 L 461.22448979591843 224.0033455805478 L 466.32653061224494 227.81193057920362 L 471.4285714285715 222.45183260148758 L 476.530612244898 224.30026585416852 L 481.6326530612246 223.8850554111778 L 486.7346938775511 226.08716432177312 L 491.83673469387764 223.73032231084025 L 496.93877551020415 223.94838247154763 L 502.0408163265307 223.85159960569942 L 507.1428571428571 228.5766347044239 L 512.2448979591836 221.65785464647368 L 517.3469387755101 221.53956447710368 L 522.4489795918367 221.9045912118768 L 527.5510204081633 223.55587418227438 L 532.6530612244899 226.21501329270842 L 537.7551020408164 223.88087343549302 L 542.8571428571429 224.46993458195178 L 547.9591836734694 226.59497565492723 L 553.0612244897959 224.22976969262476 L 558.1632653061224 221.6094632135496 L 563.265306122449 224.70532007049616 L 568.3673469387755 222.1495355019864 L 573.4693877551022 225.7460345909131 L 578.5714285714287 223.16515816829462 L 583.6734693877552 220.2150730352182 L 588.7755102040817 224.584042775637 L 593.8775510204082 223.61979866774197 L 598.9795918367347 223.18427577142512 L 604.0816326530613 222.41419482032438 L 609.1836734693878 223.0958568569465 L 614.2857142857144 221.8442512769961 L 619.387755102041 219.17734564029035 L 624.4897959183675 224.7148788720614 L 629.591836734694 223.26492815963198 L 634.6938775510205 221.62380141589747 L 639.795918367347 219.04292499327894 L 644.8979591836735 220.10634166741346 L 650 220.9803745855363 L 650 400 z"/><text class="poloto_text" alignment-baseline="middle" text-anchor="start" font-size="large" x="675" y="300" >Level 4</text><rect class="poloto4fill" x="680" y="276.25" width="50" height="7.5" rx="5" ry="5" /><path class="poloto4fill"  d="M 150 400 L 150 305.0560086029214 L 155.1020408163265 298.8834124921588 L 160.20408163265304 302.6519700092601 L 165.30612244897958 298.79798070316934 L 170.40816326530611 297.3731218448487 L 175.51020408163265 294.92188666845897 L 180.6122448979592 292.44078023717776 L 185.71428571428572 294.7289183618604 L 190.81632653061226 294.2211070287063 L 195.9183673469388 289.5235534844819 L 201.0204081632653 288.9291155121427 L 206.12244897959184 289.8605012396571 L 211.22448979591837 289.37419721002476 L 216.32653061224488 288.931505212534 L 221.4285714285714 289.59643934641696 L 226.53061224489795 286.77002120859095 L 231.63265306122446 284.8600531708337 L 236.73469387755102 286.7210323505691 L 241.83673469387753 284.87259909788816 L 246.9387755102041 283.2965916898169 L 252.0408163265306 283.0612062012725 L 257.14285714285717 284.09236192012423 L 262.2448979591837 281.440989335962 L 267.3469387755102 281.77017056486545 L 272.44897959183675 284.03859366131974 L 277.55102040816325 281.77256026525674 L 282.65306122448976 279.97610299608687 L 287.7551020408163 280.45643277474085 L 292.85714285714283 262.102338919258 L 297.9591836734694 281.67995937509335 L 303.0612244897959 277.8659975505571 L 308.1632653061224 279.8446694745646 L 313.265306122449 275.45120530513486 L 318.36734693877554 278.1061624398841 L 323.46938775510205 277.514711593034 L 328.57142857142856 278.47357887504853 L 333.6734693877551 276.853362009738 L 338.7755102040817 277.05110971711923 L 343.8775510204082 274.53176807957703 L 348.9795918367347 273.81963736296564 L 354.08163265306126 274.8274935030021 L 359.1836734693877 275.3167846581235 L 364.2857142857143 271.48370523045674 L 369.38775510204084 274.5658213101532 L 374.48979591836735 277.59894853182783 L 379.59183673469386 275.78755563521224 L 384.6938775510204 274.84302655554563 L 389.79591836734687 270.89285180870445 L 394.89795918367344 273.2066792125937 L 400 272.7191803327658 L 405.1020408163265 269.808525256146 L 410.2040816326531 268.7271858290767 L 415.3061224489796 270.9878423992592 L 420.40816326530614 273.09257101890853 L 425.51020408163265 271.9395405800998 L 430.6122448979592 270.28228335872393 L 435.7142857142857 268.25223287630314 L 440.8163265306123 269.6878453863847 L 445.9183673469388 268.96376616781674 L 451.02040816326536 270.45553663709416 L 456.12244897959187 269.98655793529883 L 461.22448979591843 269.19795680616545 L 466.32653061224494 271.1993308838904 L 471.4285714285715 267.56758371419187 L 476.530612244898 267.10039728769004 L 481.6326530612246 267.612390596529 L 486.7346938775511 270.0982764285928 L 491.83673469387764 267.9648714042477 L 496.93877551020415 268.8950622815664 L 502.0408163265307 267.8788421901604 L 507.1428571428571 270.60011351076855 L 512.2448979591836 268.5945574573588 L 517.3469387755101 266.3589927412851 L 522.4489795918367 265.09125668369325 L 527.5510204081633 266.7592675568301 L 532.6530612244899 269.07488723601284 L 537.7551020408164 268.0574722944111 L 542.8571428571429 267.40568151268036 L 547.9591836734694 269.3849508617857 L 553.0612244897959 267.1553603966903 L 558.1632653061224 266.0118887594468 L 563.265306122449 270.2625683304956 L 568.3673469387755 266.3082116079696 L 573.4693877551022 267.5753502404636 L 578.5714285714287 264.963407712758 L 583.6734693877552 265.0177733966604 L 588.7755102040817 265.9796278041641 L 593.8775510204082 266.1702064103713 L 598.9795918367347 269.33416972847033 L 604.0816326530613 266.9217671834394 L 609.1836734693878 265.40609971024884 L 614.2857142857144 265.2967709173462 L 619.387755102041 263.11557188517486 L 624.4897959183675 266.7819697105475 L 629.591836734694 266.6457567882427 L 634.6938775510205 266.3793051946112 L 639.795918367347 262.6268781551513 L 644.8979591836735 265.1533888938675 L 650 265.3481494757595 L 650 400 z"/><text class="poloto_text" alignment-baseline="middle" text-anchor="start" font-size="large" x="675" y="350" >Level 5</text><rect class="poloto5fill" x="680" y="326.25" width="50" height="7.5" rx="5" ry="5" /><path class="poloto5fill"  d="M 150 400 L 150 359.71741792872723 L 155.1020408163265 355.40042417181945 L 160.20408163265304 357.0505122920214 L 165.30612244897958 354.4152701855005 L 170.40816326530611 353.3500612360725 L 175.51020408163265 351.21725363682526 L 180.6122448979592 349.6185440750366 L 185.71428571428572 349.2672581175135 L 190.81632653061226 348.3950174746841 L 195.9183673469388 345.25256146010696 L 201.0204081632653 345.7239298622935 L 206.12244897959184 345.1145562625086 L 211.22448979591837 344.61869343131104 L 216.32653061224488 344.3134092063208 L 221.4285714285714 341.9440212683335 L 226.53061224489795 342.1130925710189 L 231.63265306122446 341.13988708665653 L 236.73469387755102 342.8556919676196 L 241.83673469387753 342.32219135525884 L 246.9387755102041 339.2185679720405 L 252.0408163265306 339.08892672581175 L 257.14285714285717 337.4089673507184 L 262.2448979591837 336.1997789527138 L 267.3469387755102 337.8659975505571 L 272.44897959183675 337.86659497565495 L 277.55102040816325 335.395047345939 L 282.65306122448976 336.07850165785464 L 287.7551020408163 335.31200525734084 L 292.85714285714283 317.963975266601 L 297.9591836734694 335.14353137975326 L 303.0612244897959 333.67028108850855 L 308.1632653061224 334.1356752397168 L 313.265306122449 330.689129850345 L 318.36734693877554 331.3994682916629 L 323.46938775510205 330.9059951608567 L 328.57142857142856 332.93007139229917 L 333.6734693877551 331.9084744750127 L 338.7755102040817 331.7083370672402 L 343.8775510204082 329.6752994593303 L 348.9795918367347 329.33596200376377 L 354.08163265306126 329.3461182304269 L 359.1836734693877 329.84377333691793 L 364.2857142857143 326.90922125638497 L 369.38775510204084 329.66813035815636 L 374.48979591836735 330.2757116826478 L 379.59183673469386 328.6082982346088 L 384.6938775510204 329.0975893897303 L 389.79591836734687 325.7149684858261 L 394.89795918367344 327.4863339008872 L 400 325.9443797233922 L 405.1020408163265 325.5530662843146 L 410.2040816326531 322.3891029662156 L 415.3061224489796 325.5715864623473 L 420.40816326530614 325.7926337485438 L 425.51020408163265 325.8350509304896 L 430.6122448979592 324.6760462407026 L 435.7142857142857 323.9997610299609 L 440.8163265306123 324.4358813513756 L 445.9183673469388 323.9203034919497 L 451.02040816326536 324.4000358455059 L 456.12244897959187 323.38859515488247 L 461.22448979591843 323.84980733040595 L 466.32653061224494 324.5332616423216 L 471.4285714285715 321.5485258535711 L 476.530612244898 320.9134629745796 L 481.6326530612246 321.68593362607163 L 486.7346938775511 322.76727305314097 L 491.83673469387764 323.05164739970724 L 496.93877551020415 322.9841383636527 L 502.0408163265307 321.37825970069 L 507.1428571428571 323.57379693520926 L 512.2448979591836 321.980464199301 L 517.3469387755101 320.42596409475163 L 522.4489795918367 319.5166830958569 L 527.5510204081633 319.95160856707594 L 532.6530612244899 323.4065179078174 L 537.7551020408164 320.403859366132 L 542.8571428571429 319.401380051976 L 547.9591836734694 322.0210891059533 L 553.0612244897959 321.221734325059 L 558.1632653061224 318.799175553365 L 563.265306122449 322.70095886728205 L 568.3673469387755 319.69830032559673 L 573.4693877551022 319.8602025271082 L 578.5714285714287 318.48254025151596 L 583.6734693877552 319.8112136690862 L 588.7755102040817 318.77288884906056 L 593.8775510204082 318.6767034083102 L 598.9795918367347 321.1213669086238 L 604.0816326530613 319.4575380111719 L 609.1836734693878 319.79448576634707 L 614.2857142857144 318.6790931087015 L 619.387755102041 316.65800400274816 L 624.4897959183675 320.4319383457299 L 629.591836734694 319.00170266152884 L 634.6938775510205 319.37569077276936 L 639.795918367347 317.95142933954656 L 644.8979591836735 317.00928996027125 L 650 317.28709263076144 L 650 400 z"/><text class="poloto_text" alignment-baseline="middle" text-anchor="start" font-size="large" x="675" y="400" >Level 6</text><rect class="poloto6fill" x="680" y="376.25" width="50" height="7.5" rx="5" ry="5" /><path class="poloto6fill"  d="M 150 400 L 150 400 L 155.1020408163265 398.0147563999164 L 160.20408163265304 399.0178331391702 L 165.30612244897958 397.46632016010994 L 170.40816326530611 397.08098097201065 L 175.51020408163265 396.2015712280073 L 180.6122448979592 395.610717806255 L 185.71428571428572 395.57248259999403 L 190.81632653061226 394.8669235594587 L 195.9183673469388 393.68939869163904 L 201.0204081632653 393.6589300116498 L 206.12244897959184 391.9257998028497 L 211.22448979591837 393.15470322908266 L 216.32653061224488 392.4479493383517 L 221.4285714285714 391.78122292917527 L 226.53061224489795 391.1879798070317 L 231.63265306122446 390.9460226424112 L 236.73469387755102 391.9443199808824 L 241.83673469387753 391.65695850882696 L 246.9387755102041 390.094094452908 L 252.0408163265306 388.10705857753084 L 257.14285714285717 389.9053081219942 L 262.2448979591837 388.4559548346626 L 267.3469387755102 388.6620664934134 L 272.44897959183675 388.17098306299846 L 277.55102040816325 387.4409295934522 L 282.65306122448976 388.06523882068285 L 287.7551020408163 387.36565403112587 L 292.85714285714283 385.36009797771607 L 297.9591836734694 387.5478686859635 L 303.0612244897959 386.7957104877976 L 308.1632653061224 386.8405173701347 L 313.265306122449 385.4771932968904 L 318.36734693877554 386.5328434447531 L 323.46938775510205 385.2083520028677 L 328.57142857142856 384.95803088687757 L 333.6734693877551 384.67903336619173 L 338.7755102040817 385.48675209845567 L 343.8775510204082 383.51524927562207 L 348.9795918367347 383.20578307494696 L 354.08163265306126 383.88386056098216 L 359.1836734693877 385.3385906741942 L 364.2857142857143 382.31263255369356 L 369.38775510204084 382.35206261015026 L 374.48979591836735 382.95068255817426 L 379.59183673469386 382.71410221943427 L 384.6938775510204 382.9459031573916 L 389.79591836734687 381.26833348268957 L 394.89795918367344 381.6524778205933 L 400 380.9062938734056 L 405.1020408163265 381.31971204110283 L 410.2040816326531 378.91149147175673 L 415.3061224489796 380.8537204647967 L 420.40816326530614 380.45523792454526 L 425.51020408163265 381.41171550616843 L 430.6122448979592 380.7390148460137 L 435.7142857142857 380.99769991337337 L 440.8163265306123 379.3452220927801 L 445.9183673469388 380.0549631090002 L 451.02040816326536 379.93308838904323 L 456.12244897959187 380.81130328285093 L 461.22448979591843 379.45694058607404 L 466.32653061224494 379.46291483705227 L 471.4285714285715 378.65997550557097 L 476.530612244898 377.0821758222063 L 481.6326530612246 379.21916539713834 L 486.7346938775511 379.2502315022254 L 491.83673469387764 379.9115810855214 L 496.93877551020415 379.08892672581175 L 502.0408163265307 378.381575409983 L 507.1428571428571 378.8541386623652 L 512.2448979591836 377.6622755921976 L 517.3469387755101 378.63727335185354 L 522.4489795918367 376.64665292588944 L 527.5510204081633 377.0887474982824 L 532.6530612244899 377.7769812109807 L 537.7551020408164 377.5631030259581 L 542.8571428571429 376.9668727783254 L 547.9591836734694 376.8820384144338 L 553.0612244897959 376.86590793679244 L 558.1632653061224 376.8426083579771 L 563.265306122449 378.01176927442725 L 568.3673469387755 376.8927920661947 L 573.4693877551022 376.0092003465066 L 578.5714285714287 375.2934850793082 L 583.6734693877552 376.0886578845177 L 588.7755102040817 375.4261134510261 L 593.8775510204082 375.5766645756788 L 598.9795918367347 376.6735370552917 L 604.0816326530613 376.3867730083341 L 609.1836734693878 376.4859455745736 L 614.2857142857144 376.67652418078086 L 619.387755102041 374.73549003793653 L 624.4897959183675 375.8001015622666 L 629.591836734694 375.6842010932879 L 634.6938775510205 376.63052244824803 L 639.795918367347 375.51393494040684 L 644.8979591836735 376.0301102249305 L 650 374.86094930848043 L 650 400 z"/><text class="poloto_text" alignment-baseline="start" text-anchor="middle" font-size="x-large" x="400" y="37.5" >Bench of rebal levels with abspiral(5000,x)</text><text class="poloto_text" alignment-baseline="start" text-anchor="middle" font-size="x-large" x="400" y="481.25" >Spiral Grow</text><text class="poloto_text" alignment-baseline="start" text-anchor="middle" font-size="x-large" transform="rotate(-90,37.5,250)" x="37.5" y="250" >Time taken in Seconds</text><path stroke="black" fill="none" class="poloto_axis_lines"  d="M 150 100 L 150 400 L 650 400 "/></svg>