<svg class="poloto" width="800" height="500" viewBox="0 0 800 500" xmlns="http://www.w3.org/2000/svg"><circle  r="1e5" class="poloto_background" /><text  class="poloto_text poloto_legend_text" x="675" y="100" >cached_pairs</text><line  class="poloto_scatter poloto_legend_icon poloto0stroke poloto0legend" stroke="black" x1="685" x2="685" y1="81.25" y2="81.25" /><path  class="poloto_scatter poloto0stroke" d=" M 150.00 399.97 h 0 M 155.05 397.14 h 0 M 160.10 395.68 h 0 M 165.15 397.77 h 0 M 170.20 397.55 h 0 M 175.25 396.83 h 0 M 180.30 396.41 h 0 M 185.35 395.87 h 0 M 190.40 395.37 h 0 M 195.45 394.46 h 0 M 200.51 394.00 h 0 M 205.56 392.46 h 0 M 210.61 392.59 h 0 M 215.66 391.68 h 0 M 220.71 391.09 h 0 M 225.76 390.64 h 0 M 230.81 389.59 h 0 M 235.86 389.31 h 0 M 240.91 387.69 h 0 M 245.96 387.55 h 0 M 251.01 387.21 h 0 M 256.06 387.25 h 0 M 261.11 381.61 h 0 M 266.16 385.96 h 0 M 271.21 385.11 h 0 M 276.26 383.96 h 0 M 281.31 382.70 h 0 M 286.36 382.43 h 0 M 291.41 381.55 h 0 M 296.46 379.74 h 0 M 301.52 379.77 h 0 M 306.57 379.45 h 0 M 311.62 378.67 h 0 M 316.67 377.92 h 0 M 321.72 377.11 h 0 M 326.77 375.59 h 0 M 331.82 375.28 h 0 M 336.87 375.39 h 0 M 341.92 374.16 h 0 M 346.97 374.11 h 0 M 352.02 372.57 h 0 M 357.07 372.54 h 0 M 362.12 363.08 h 0 M 367.17 373.09 h 0 M 372.22 372.32 h 0 M 377.27 371.74 h 0 M 382.32 370.92 h 0 M 387.37 371.01 h 0 M 392.42 369.65 h 0 M 397.47 368.66 h 0 M 402.53 366.67 h 0 M 407.58 367.16 h 0 M 412.63 365.24 h 0 M 417.68 365.59 h 0 M 422.73 364.79 h 0 M 427.78 363.94 h 0 M 432.83 363.86 h 0 M 437.88 362.97 h 0 M 442.93 362.04 h 0 M 447.98 359.42 h 0 M 453.03 358.59 h 0 M 458.08 358.47 h 0 M 463.13 357.06 h 0 M 468.18 357.11 h 0 M 473.23 356.37 h 0 M 478.28 355.63 h 0 M 483.33 352.23 h 0 M 488.38 352.19 h 0 M 493.43 352.05 h 0 M 498.48 352.38 h 0 M 503.54 351.37 h 0 M 508.59 350.83 h 0 M 513.64 350.55 h 0 M 518.69 348.70 h 0 M 523.74 348.55 h 0 M 528.79 348.10 h 0 M 533.84 345.36 h 0 M 538.89 346.00 h 0 M 543.94 344.17 h 0 M 548.99 343.73 h 0 M 554.04 344.55 h 0 M 559.09 343.27 h 0 M 564.14 344.66 h 0 M 569.19 345.36 h 0 M 574.24 345.27 h 0 M 579.29 325.48 h 0 M 584.34 344.95 h 0 M 589.39 347.17 h 0 M 594.44 345.48 h 0 M 599.49 347.45 h 0 M 604.55 346.90 h 0 M 609.60 345.19 h 0 M 614.65 342.34 h 0 M 619.70 343.06 h 0 M 624.75 341.29 h 0 M 629.80 340.66 h 0 M 634.85 339.83 h 0 M 639.90 338.27 h 0 M 644.95 336.84 h 0 M 650.00 339.16 h 0" /><text  class="poloto_text poloto_legend_text" x="675" y="150" >non_cached_pairs</text><line  class="poloto_scatter poloto_legend_icon poloto1stroke poloto1legend" stroke="black" x1="685" x2="685" y1="131.25" y2="131.25" /><path  class="poloto_scatter poloto1stroke" d=" M 150.00 399.98 h 0 M 155.05 391.06 h 0 M 160.10 380.07 h 0 M 165.15 390.60 h 0 M 170.20 386.85 h 0 M 175.25 382.20 h 0 M 180.30 381.51 h 0 M 185.35 377.03 h 0 M 190.40 373.26 h 0 M 195.45 372.35 h 0 M 200.51 365.70 h 0 M 205.56 363.82 h 0 M 210.61 357.33 h 0 M 215.66 356.83 h 0 M 220.71 354.41 h 0 M 225.76 349.39 h 0 M 230.81 346.31 h 0 M 235.86 340.96 h 0 M 240.91 335.21 h 0 M 245.96 332.35 h 0 M 251.01 328.36 h 0 M 256.06 335.66 h 0 M 261.11 335.62 h 0 M 266.16 332.17 h 0 M 271.21 324.77 h 0 M 276.26 325.83 h 0 M 281.31 320.64 h 0 M 286.36 319.44 h 0 M 291.41 310.74 h 0 M 296.46 312.44 h 0 M 301.52 309.10 h 0 M 306.57 304.19 h 0 M 311.62 302.68 h 0 M 316.67 294.25 h 0 M 321.72 292.59 h 0 M 326.77 292.24 h 0 M 331.82 287.83 h 0 M 336.87 286.07 h 0 M 341.92 282.07 h 0 M 346.97 278.71 h 0 M 352.02 273.61 h 0 M 357.07 270.51 h 0 M 362.12 266.28 h 0 M 367.17 262.68 h 0 M 372.22 258.28 h 0 M 377.27 255.29 h 0 M 382.32 251.94 h 0 M 387.37 246.59 h 0 M 392.42 243.61 h 0 M 397.47 239.65 h 0 M 402.53 234.93 h 0 M 407.58 231.22 h 0 M 412.63 228.73 h 0 M 417.68 224.02 h 0 M 422.73 219.90 h 0 M 427.78 216.25 h 0 M 432.83 212.31 h 0 M 437.88 207.36 h 0 M 442.93 204.70 h 0 M 447.98 199.61 h 0 M 453.03 196.96 h 0 M 458.08 191.72 h 0 M 463.13 187.59 h 0 M 468.18 184.33 h 0 M 473.23 179.98 h 0 M 478.28 173.84 h 0 M 483.33 170.90 h 0 M 488.38 166.11 h 0 M 493.43 162.31 h 0 M 498.48 158.74 h 0 M 503.54 154.35 h 0 M 508.59 149.83 h 0 M 513.64 146.95 h 0 M 518.69 142.28 h 0 M 523.74 137.10 h 0 M 528.79 132.98 h 0 M 533.84 129.49 h 0 M 538.89 124.50 h 0 M 543.94 119.72 h 0 M 548.99 117.04 h 0 M 554.04 111.49 h 0 M 559.09 106.81 h 0 M 564.14 153.43 h 0 M 569.19 150.69 h 0 M 574.24 145.68 h 0 M 579.29 138.78 h 0 M 584.34 140.94 h 0 M 589.39 137.89 h 0 M 594.44 133.12 h 0 M 599.49 128.47 h 0 M 604.55 128.67 h 0 M 609.60 126.23 h 0 M 614.65 120.11 h 0 M 619.70 118.20 h 0 M 624.75 113.46 h 0 M 629.80 110.24 h 0 M 634.85 108.94 h 0 M 639.90 102.22 h 0 M 644.95 103.49 h 0 M 650.00 100.00 h 0" /><text  class="poloto_labels poloto_text poloto_title" x="400" y="37.5" >Bench of cached pairs 10 iter with abspiral(1.5,n)</text><text  class="poloto_labels poloto_text poloto_xname" x="400" y="481.25" >Number of Elements</text><text  class="poloto_labels poloto_text poloto_yname" transform="rotate(-90,37.5,250)" x="37.5" y="250" >Time in Seconds</text><text  class="poloto_tick_labels poloto_text" dominant-baseline="middle" text-anchor="start" x="150" y="70" ></text><line  class="poloto_axis_lines" stroke="black" x1="150" x2="144" y1="400" y2="400" /><text  class="poloto_tick_labels poloto_text" dominant-baseline="middle" text-anchor="end" x="135" y="400" >0e0</text><line  class="poloto_axis_lines" stroke="black" x1="150" x2="144" y1="328.33386386181337" y2="328.33386386181337" /><text  class="poloto_tick_labels poloto_text" dominant-baseline="middle" text-anchor="end" x="135" y="328.33386386181337" >0.01</text><line  class="poloto_axis_lines" stroke="black" x1="150" x2="144" y1="256.66772772362674" y2="256.66772772362674" /><text  class="poloto_tick_labels poloto_text" dominant-baseline="middle" text-anchor="end" x="135" y="256.66772772362674" >0.02</text><line  class="poloto_axis_lines" stroke="black" x1="150" x2="144" y1="185.0015915854401" y2="185.0015915854401" /><text  class="poloto_tick_labels poloto_text" dominant-baseline="middle" text-anchor="end" x="135" y="185.0015915854401" >0.03</text><line  class="poloto_axis_lines" stroke="black" x1="150" x2="144" y1="113.33545544725342" y2="113.33545544725342" /><text  class="poloto_tick_labels poloto_text" dominant-baseline="middle" text-anchor="end" x="135" y="113.33545544725342" >0.04</text><text  class="poloto_tick_labels poloto_text" dominant-baseline="middle" text-anchor="start" x="440.00000000000006" y="70" ></text><line  class="poloto_axis_lines" stroke="black" x1="150" x2="150" y1="400" y2="405" /><text  class="poloto_tick_labels poloto_text" dominant-baseline="start" text-anchor="middle" x="150" y="430" >0</text><line  class="poloto_axis_lines" stroke="black" x1="213.13131313131314" x2="213.13131313131314" y1="400" y2="405" /><text  class="poloto_tick_labels poloto_text" dominant-baseline="start" text-anchor="middle" x="213.13131313131314" y="430" >5000</text><line  class="poloto_axis_lines" stroke="black" x1="276.26262626262627" x2="276.26262626262627" y1="400" y2="405" /><text  class="poloto_tick_labels poloto_text" dominant-baseline="start" text-anchor="middle" x="276.26262626262627" y="430" >10000</text><line  class="poloto_axis_lines" stroke="black" x1="339.3939393939394" x2="339.3939393939394" y1="400" y2="405" /><text  class="poloto_tick_labels poloto_text" dominant-baseline="start" text-anchor="middle" x="339.3939393939394" y="430" >15000</text><line  class="poloto_axis_lines" stroke="black" x1="402.52525252525254" x2="402.52525252525254" y1="400" y2="405" /><text  class="poloto_tick_labels poloto_text" dominant-baseline="start" text-anchor="middle" x="402.52525252525254" y="430" >20000</text><line  class="poloto_axis_lines" stroke="black" x1="465.65656565656565" x2="465.65656565656565" y1="400" y2="405" /><text  class="poloto_tick_labels poloto_text" dominant-baseline="start" text-anchor="middle" x="465.65656565656565" y="430" >25000</text><line  class="poloto_axis_lines" stroke="black" x1="528.7878787878788" x2="528.7878787878788" y1="400" y2="405" /><text  class="poloto_tick_labels poloto_text" dominant-baseline="start" text-anchor="middle" x="528.7878787878788" y="430" >30000</text><line  class="poloto_axis_lines" stroke="black" x1="591.9191919191919" x2="591.9191919191919" y1="400" y2="405" /><text  class="poloto_tick_labels poloto_text" dominant-baseline="start" text-anchor="middle" x="591.9191919191919" y="430" >35000</text><path  stroke="black" fill="none" class="poloto_axis_lines" style="stroke-dasharray:6.313131313131313;stroke-dashoffset:-0;" d=" M 150 400 L 650 400" /><path  stroke="black" fill="none" class="poloto_axis_lines" style="stroke-dasharray:7.166613613818664;stroke-dashoffset:-0;" d=" M 150 400 L 150 100" /></svg>