<svg class="poloto" height="500" viewBox="0 0 800 500" width="800" xmlns="http://www.w3.org/2000/svg">
<rect class="poloto_background" fill="white" height="500" width="800" x="0" y="0"/>
<style>
.poloto {
font-family: "Arial";
stroke-width:2;
}
.poloto_text{fill: var(--poloto_fg_color,black);  }
.poloto_axis_lines{stroke: var(--poloto_fg_color,black);stoke-width:3;fill:none}
.poloto_background{fill: var(--poloto_bg_color,aliceblue); }
.poloto0stroke{stroke:  var(--poloto_color0,blue); }
.poloto1stroke{stroke:  var(--poloto_color1,red); }
.poloto2stroke{stroke:  var(--poloto_color2,green); }
.poloto3stroke{stroke:  var(--poloto_color3,gold); }
.poloto4stroke{stroke:  var(--poloto_color4,aqua); }
.poloto5stroke{stroke:  var(--poloto_color5,brown); }
.poloto6stroke{stroke:  var(--poloto_color6,lime); }
.poloto7stroke{stroke:  var(--poloto_color7,chocolate); }
.poloto0fill{fill:var(--poloto_color0,blue);}
.poloto1fill{fill:var(--poloto_color1,red);}
.poloto2fill{fill:var(--poloto_color2,green);}
.poloto3fill{fill:var(--poloto_color3,gold);}
.poloto4fill{fill:var(--poloto_color4,aqua);}
.poloto5fill{fill:var(--poloto_color5,brown);}
.poloto6fill{fill:var(--poloto_color6,lime);}
.poloto7fill{fill:var(--poloto_color7,chocolate);}
</style>
<line class="poloto_axis_lines" stroke="black" x1="150" x2="150" y1="400" y2="405"/>
<text alignment-baseline="start" class="poloto_text" text-anchor="middle" x="150" y="440">
0
</text>
<line class="poloto_axis_lines" stroke="black" x1="213.13132" x2="213.13132" y1="400" y2="405"/>
<text alignment-baseline="start" class="poloto_text" text-anchor="middle" x="213.13132" y="440">
5000
</text>
<line class="poloto_axis_lines" stroke="black" x1="276.26263" x2="276.26263" y1="400" y2="405"/>
<text alignment-baseline="start" class="poloto_text" text-anchor="middle" x="276.26263" y="440">
10000
</text>
<line class="poloto_axis_lines" stroke="black" x1="339.39392" x2="339.39392" y1="400" y2="405"/>
<text alignment-baseline="start" class="poloto_text" text-anchor="middle" x="339.39392" y="440">
15000
</text>
<line class="poloto_axis_lines" stroke="black" x1="402.52527" x2="402.52527" y1="400" y2="405"/>
<text alignment-baseline="start" class="poloto_text" text-anchor="middle" x="402.52527" y="440">
20000
</text>
<line class="poloto_axis_lines" stroke="black" x1="465.65656" x2="465.65656" y1="400" y2="405"/>
<text alignment-baseline="start" class="poloto_text" text-anchor="middle" x="465.65656" y="440">
25000
</text>
<line class="poloto_axis_lines" stroke="black" x1="528.78784" x2="528.78784" y1="400" y2="405"/>
<text alignment-baseline="start" class="poloto_text" text-anchor="middle" x="528.78784" y="440">
30000
</text>
<line class="poloto_axis_lines" stroke="black" x1="591.9192" x2="591.9192" y1="400" y2="405"/>
<text alignment-baseline="start" class="poloto_text" text-anchor="middle" x="591.9192" y="440">
35000
</text>
<line class="poloto_axis_lines" stroke="black" x1="150" x2="144" y1="344.95966" y2="344.95966"/>
<text alignment-baseline="middle" class="poloto_text" text-anchor="end" x="120" y="344.95966">
0.0002
</text>
<line class="poloto_axis_lines" stroke="black" x1="150" x2="144" y1="289.851" y2="289.851"/>
<text alignment-baseline="middle" class="poloto_text" text-anchor="end" x="120" y="289.851">
0.0004
</text>
<line class="poloto_axis_lines" stroke="black" x1="150" x2="144" y1="234.74234" y2="234.74234"/>
<text alignment-baseline="middle" class="poloto_text" text-anchor="end" x="120" y="234.74234">
0.0006
</text>
<line class="poloto_axis_lines" stroke="black" x1="150" x2="144" y1="179.6337" y2="179.6337"/>
<text alignment-baseline="middle" class="poloto_text" text-anchor="end" x="120" y="179.6337">
0.0008
</text>
<line class="poloto_axis_lines" stroke="black" x1="150" x2="144" y1="124.525024" y2="124.525024"/>
<text alignment-baseline="middle" class="poloto_text" text-anchor="end" x="120" y="124.525024">
0.0010
</text>
<text alignment-baseline="middle" class="poloto_text" font-size="large" text-anchor="start" x="675" y="100">
optimal
</text>
<line class="poloto0stroke" x1="680" x2="730" y1="81.25" y2="81.25"/>
<polyline class="poloto0stroke" fill="none" points="150,400 155.0505,396.2584 160.10101,390.6161 165.15152,388.18665 170.20203,384.01407 175.25253,373.82394 180.30302,372.67465 185.35353,370.0275 190.40404,236.57307 195.45454,377.43823 200.50505,366.44543 205.55556,381.75766 210.60606,379.97296 215.65656,378.65973 220.70706,376.71466 225.75757,374.96442 230.80807,373.20175 235.85858,371.52426 240.90909,370.0173 245.9596,368.5236 251.0101,362.962 256.0606,365.0658 261.1111,363.04797 266.16162,354.47308 271.21213,359.56815 276.26263,358.1353 281.3131,356.06766 286.36365,354.31738 291.41412,352.27203 296.46466,350.85547 301.51514,348.75693 306.56567,346.96423 311.61615,345.53555 316.66666,342.7851 321.71716,342.1078 326.76767,340.13904 331.81818,338.0124 336.86868,337.21057 341.9192,335.64273 346.9697,322.52466 352.0202,324.8629 357.0707,330.59448 362.12122,328.52405 367.1717,300.97635 372.22223,310.46936 377.2727,292.92828 382.32324,315.51236 387.37372,318.00244 392.42426,313.61688 397.47473,290.6096 402.52527,300.53162 407.57574,296.6864 412.62625,308.8905 417.67676,273.508 422.72726,290.59222 427.77777,299.22333 432.82828,288.2209 437.87878,285.18082 442.9293,289.07672 447.9798,294.28864 453.0303,292.4298 458.0808,289.72012 463.13132,287.28625 468.18182,287.1992 473.23233,283.31348 478.28284,282.1369 483.3333,277.26694 488.38382,278.27435 493.43433,277.1997 498.48483,276.5139 503.53534,269.75372 508.58585,267.33664 513.63635,265.22046 518.6869,265.96802 523.73737,257.83868 528.78784,251.2857 533.8384,234.52742 538.8889,238.3415 543.9394,229.89471 548.98987,244.30287 554.0404,236.93623 559.09094,239.88234 564.1414,243.6909 569.1919,242.40796 574.24243,237.9822 579.2929,237.88466 584.3434,236.6064 589.3939,235.54584 594.44446,231.80754 599.49493,229.40343 604.5454,223.76416 609.59595,223.20067 614.6465,219.71724 619.69696,221.57138 624.74744,214.37225 629.798,187.2216 634.8485,188.85088 639.899,206.09274 644.94946,204.37665 650,205.57831 " stroke="black"/>
<text alignment-baseline="middle" class="poloto_text" font-size="large" text-anchor="start" x="675" y="150">
optimal_par
</text>
<line class="poloto1stroke" x1="680" x2="730" y1="131.25" y2="131.25"/>
<polyline class="poloto1stroke" fill="none" points="150,313.76294 155.0505,375.65353 160.10101,348.21494 165.15152,349.83374 170.20203,325.94443 175.25253,341.2434 180.30302,331.1905 185.35353,358.42932 190.40404,275.25464 195.45454,309.77087 200.50505,359.34387 205.55556,325.00372 210.60606,370.66428 215.65656,352.90854 220.70706,361.00372 225.75757,377.45313 230.80807,367.5435 235.85858,348.6189 240.90909,359.4403 245.9596,365.32837 251.0101,366.24457 256.0606,360.81168 261.1111,351.29468 266.16162,365.29065 271.21213,334.7177 276.26263,366.88135 281.3131,363.72775 286.36365,366.15472 291.41412,369.15045 296.46466,371.00705 301.51514,360.23193 306.56567,365.42593 311.61615,355.71136 316.66666,370.29892 321.71716,343.79715 326.76767,342.7953 331.81818,343.22348 336.86868,336.63248 341.9192,345.09027 346.9697,100 352.0202,364.6985 357.0707,361.04837 362.12122,356.1258 367.1717,353.71893 372.22223,333.50644 377.2727,338.71118 382.32324,351.5672 387.37372,354.4312 392.42426,285.8628 397.47473,359.34744 402.52527,361.5664 407.57574,356.11615 412.62625,350.07043 417.67676,299.4427 422.72726,337.65613 427.77777,319.90976 432.82828,350.04538 437.87878,355.97342 442.9293,356.93616 447.9798,354.6431 453.0303,351.1503 458.0808,333.84204 463.13132,345.6929 468.18182,351.7766 473.23233,332.2406 478.28284,329.1578 483.3333,342.9829 488.38382,338.96497 493.43433,349.94397 498.48483,338.89084 503.53534,352.989 508.58585,307.13666 513.63635,335.97696 518.6869,335.8615 523.73737,330.63086 528.78784,345.13104 533.8384,345.1884 538.8889,307.12344 543.9394,354.982 548.98987,320.45587 554.0404,296.7812 559.09094,345.50662 564.1414,361.62204 569.1919,337.72638 574.24243,342.52002 579.2929,360.43417 584.3434,358.22046 589.3939,359.14188 594.44446,359.0427 599.49493,362.5388 604.5454,362.7311 609.59595,370.2843 614.6465,364.73267 619.69696,365.59372 624.74744,365.1391 629.798,365.75162 634.8485,363.7801 639.899,364.14383 644.94946,364.35187 650,363.76108 " stroke="black"/>
<text alignment-baseline="start" class="poloto_text" font-size="x-large" text-anchor="middle" x="400" y="37.5">
Bench of optimal with abspiral(0.2,n)
</text>
<text alignment-baseline="start" class="poloto_text" font-size="large" text-anchor="middle" x="400" y="481.25">
Number of Elements
</text>
<text alignment-baseline="start" class="poloto_text" font-size="large" text-anchor="middle" transform="rotate(-90,37.5,250)" x="37.5" y="250">
Time in Seconds
</text>
<path class="poloto_axis_lines" d="M150,100 L150,400 L650,400" stroke="black"/>
</svg>