<svg class="poloto" width="800" height="500" viewBox="0 0 800 500" xmlns="http://www.w3.org/2000/svg"><circle  r="1e5" class="poloto_background" /><text  class="poloto_text poloto_legend_text" x="675" y="100" >cached_pairs</text><line  class="poloto_scatter poloto_legend_icon poloto0stroke poloto0legend" stroke="black" x1="685" x2="685" y1="81.25" y2="81.25" /><path  class="poloto_scatter poloto0stroke" d=" M 150.00 399.96 h 0 M 155.05 397.80 h 0 M 160.10 395.64 h 0 M 165.15 393.99 h 0 M 170.20 397.56 h 0 M 175.25 397.01 h 0 M 180.30 396.52 h 0 M 185.35 395.93 h 0 M 190.40 395.49 h 0 M 195.45 394.87 h 0 M 200.51 394.20 h 0 M 205.56 393.61 h 0 M 210.61 391.17 h 0 M 215.66 392.16 h 0 M 220.71 391.26 h 0 M 225.76 390.87 h 0 M 230.81 390.15 h 0 M 235.86 389.64 h 0 M 240.91 388.87 h 0 M 245.96 388.37 h 0 M 251.01 386.56 h 0 M 256.06 387.97 h 0 M 261.11 387.29 h 0 M 266.16 386.84 h 0 M 271.21 386.12 h 0 M 276.26 385.72 h 0 M 281.31 384.85 h 0 M 286.36 384.48 h 0 M 291.41 383.76 h 0 M 296.46 382.94 h 0 M 301.52 382.36 h 0 M 306.57 381.48 h 0 M 311.62 381.21 h 0 M 316.67 381.12 h 0 M 321.72 379.83 h 0 M 326.77 379.99 h 0 M 331.82 379.29 h 0 M 336.87 378.68 h 0 M 341.92 378.15 h 0 M 346.97 377.42 h 0 M 352.02 375.90 h 0 M 357.07 376.11 h 0 M 362.12 369.40 h 0 M 367.17 373.80 h 0 M 372.22 374.47 h 0 M 377.27 373.84 h 0 M 382.32 372.17 h 0 M 387.37 371.67 h 0 M 392.42 370.43 h 0 M 397.47 369.27 h 0 M 402.53 367.66 h 0 M 407.58 367.56 h 0 M 412.63 366.21 h 0 M 417.68 366.93 h 0 M 422.73 365.47 h 0 M 427.78 364.55 h 0 M 432.83 362.92 h 0 M 437.88 363.52 h 0 M 442.93 361.27 h 0 M 447.98 359.16 h 0 M 453.03 360.01 h 0 M 458.08 359.06 h 0 M 463.13 358.55 h 0 M 468.18 356.67 h 0 M 473.23 357.41 h 0 M 478.28 356.62 h 0 M 483.33 355.34 h 0 M 488.38 355.30 h 0 M 493.43 353.91 h 0 M 498.48 353.01 h 0 M 503.54 351.56 h 0 M 508.59 350.37 h 0 M 513.64 350.27 h 0 M 518.69 350.60 h 0 M 523.74 349.16 h 0 M 528.79 348.31 h 0 M 533.84 347.84 h 0 M 538.89 347.55 h 0 M 543.94 345.51 h 0 M 548.99 344.27 h 0 M 554.04 344.37 h 0 M 559.09 344.35 h 0 M 564.14 345.41 h 0 M 569.19 347.05 h 0 M 574.24 345.05 h 0 M 579.29 327.94 h 0 M 584.34 347.65 h 0 M 589.39 350.26 h 0 M 594.44 349.15 h 0 M 599.49 347.18 h 0 M 604.55 348.78 h 0 M 609.60 348.00 h 0 M 614.65 344.43 h 0 M 619.70 345.09 h 0 M 624.75 340.30 h 0 M 629.80 340.20 h 0 M 634.85 342.59 h 0 M 639.90 337.84 h 0 M 644.95 341.35 h 0 M 650.00 339.83 h 0" /><text  class="poloto_text poloto_legend_text" x="675" y="150" >non_cached_pairs</text><line  class="poloto_scatter poloto_legend_icon poloto1stroke poloto1legend" stroke="black" x1="685" x2="685" y1="131.25" y2="131.25" /><path  class="poloto_scatter poloto1stroke" d=" M 150.00 399.97 h 0 M 155.05 391.64 h 0 M 160.10 377.92 h 0 M 165.15 383.10 h 0 M 170.20 387.26 h 0 M 175.25 382.74 h 0 M 180.30 381.49 h 0 M 185.35 379.94 h 0 M 190.40 376.70 h 0 M 195.45 373.10 h 0 M 200.51 364.60 h 0 M 205.56 366.12 h 0 M 210.61 362.36 h 0 M 215.66 359.06 h 0 M 220.71 354.88 h 0 M 225.76 350.30 h 0 M 230.81 347.35 h 0 M 235.86 342.24 h 0 M 240.91 338.68 h 0 M 245.96 333.34 h 0 M 251.01 330.98 h 0 M 256.06 336.42 h 0 M 261.11 333.34 h 0 M 266.16 333.76 h 0 M 271.21 326.91 h 0 M 276.26 322.50 h 0 M 281.31 324.11 h 0 M 286.36 318.88 h 0 M 291.41 313.89 h 0 M 296.46 311.39 h 0 M 301.52 308.33 h 0 M 306.57 307.75 h 0 M 311.62 304.40 h 0 M 316.67 300.72 h 0 M 321.72 293.15 h 0 M 326.77 288.96 h 0 M 331.82 289.55 h 0 M 336.87 281.73 h 0 M 341.92 283.28 h 0 M 346.97 277.10 h 0 M 352.02 276.90 h 0 M 357.07 271.48 h 0 M 362.12 268.91 h 0 M 367.17 265.06 h 0 M 372.22 263.01 h 0 M 377.27 259.29 h 0 M 382.32 254.87 h 0 M 387.37 251.17 h 0 M 392.42 246.32 h 0 M 397.47 243.57 h 0 M 402.53 240.67 h 0 M 407.58 237.04 h 0 M 412.63 233.21 h 0 M 417.68 228.95 h 0 M 422.73 224.89 h 0 M 427.78 220.68 h 0 M 432.83 216.95 h 0 M 437.88 211.09 h 0 M 442.93 210.02 h 0 M 447.98 204.43 h 0 M 453.03 201.19 h 0 M 458.08 197.66 h 0 M 463.13 193.41 h 0 M 468.18 190.70 h 0 M 473.23 185.57 h 0 M 478.28 183.25 h 0 M 483.33 178.07 h 0 M 488.38 174.46 h 0 M 493.43 168.31 h 0 M 498.48 164.54 h 0 M 503.54 161.80 h 0 M 508.59 156.89 h 0 M 513.64 152.62 h 0 M 518.69 148.94 h 0 M 523.74 144.42 h 0 M 528.79 140.04 h 0 M 533.84 137.03 h 0 M 538.89 130.69 h 0 M 543.94 127.72 h 0 M 548.99 124.61 h 0 M 554.04 121.15 h 0 M 559.09 115.62 h 0 M 564.14 155.78 h 0 M 569.19 149.71 h 0 M 574.24 150.91 h 0 M 579.29 145.52 h 0 M 584.34 141.93 h 0 M 589.39 139.03 h 0 M 594.44 139.35 h 0 M 599.49 135.33 h 0 M 604.55 128.18 h 0 M 609.60 126.88 h 0 M 614.65 127.30 h 0 M 619.70 120.73 h 0 M 624.75 116.03 h 0 M 629.80 114.11 h 0 M 634.85 114.30 h 0 M 639.90 107.23 h 0 M 644.95 105.30 h 0 M 650.00 100.00 h 0" /><text  class="poloto_labels poloto_text poloto_title" x="400" y="37.5" >Bench of cached pairs 10 iter with abspiral(1.5,n)</text><text  class="poloto_labels poloto_text poloto_xname" x="400" y="481.25" >Number of Elements</text><text  class="poloto_labels poloto_text poloto_yname" transform="rotate(-90,37.5,250)" x="37.5" y="250" >Time in Seconds</text><text  class="poloto_tick_labels poloto_text" dominant-baseline="middle" text-anchor="start" x="150" y="70" ></text><line  class="poloto_axis_lines" stroke="black" x1="150" x2="144" y1="400" y2="400" /><text  class="poloto_tick_labels poloto_text" dominant-baseline="middle" text-anchor="end" x="135" y="400" >0e0</text><line  class="poloto_axis_lines" stroke="black" x1="150" x2="144" y1="330.62224171377494" y2="330.62224171377494" /><text  class="poloto_tick_labels poloto_text" dominant-baseline="middle" text-anchor="end" x="135" y="330.62224171377494" >0.01</text><line  class="poloto_axis_lines" stroke="black" x1="150" x2="144" y1="261.2444834275499" y2="261.2444834275499" /><text  class="poloto_tick_labels poloto_text" dominant-baseline="middle" text-anchor="end" x="135" y="261.2444834275499" >0.02</text><line  class="poloto_axis_lines" stroke="black" x1="150" x2="144" y1="191.86672514132482" y2="191.86672514132482" /><text  class="poloto_tick_labels poloto_text" dominant-baseline="middle" text-anchor="end" x="135" y="191.86672514132482" >0.03</text><line  class="poloto_axis_lines" stroke="black" x1="150" x2="144" y1="122.48896685509976" y2="122.48896685509976" /><text  class="poloto_tick_labels poloto_text" dominant-baseline="middle" text-anchor="end" x="135" y="122.48896685509976" >0.04</text><text  class="poloto_tick_labels poloto_text" dominant-baseline="middle" text-anchor="start" x="440.00000000000006" y="70" ></text><line  class="poloto_axis_lines" stroke="black" x1="150" x2="150" y1="400" y2="405" /><text  class="poloto_tick_labels poloto_text" dominant-baseline="start" text-anchor="middle" x="150" y="430" >0</text><line  class="poloto_axis_lines" stroke="black" x1="213.13131313131314" x2="213.13131313131314" y1="400" y2="405" /><text  class="poloto_tick_labels poloto_text" dominant-baseline="start" text-anchor="middle" x="213.13131313131314" y="430" >5000</text><line  class="poloto_axis_lines" stroke="black" x1="276.26262626262627" x2="276.26262626262627" y1="400" y2="405" /><text  class="poloto_tick_labels poloto_text" dominant-baseline="start" text-anchor="middle" x="276.26262626262627" y="430" >10000</text><line  class="poloto_axis_lines" stroke="black" x1="339.3939393939394" x2="339.3939393939394" y1="400" y2="405" /><text  class="poloto_tick_labels poloto_text" dominant-baseline="start" text-anchor="middle" x="339.3939393939394" y="430" >15000</text><line  class="poloto_axis_lines" stroke="black" x1="402.52525252525254" x2="402.52525252525254" y1="400" y2="405" /><text  class="poloto_tick_labels poloto_text" dominant-baseline="start" text-anchor="middle" x="402.52525252525254" y="430" >20000</text><line  class="poloto_axis_lines" stroke="black" x1="465.65656565656565" x2="465.65656565656565" y1="400" y2="405" /><text  class="poloto_tick_labels poloto_text" dominant-baseline="start" text-anchor="middle" x="465.65656565656565" y="430" >25000</text><line  class="poloto_axis_lines" stroke="black" x1="528.7878787878788" x2="528.7878787878788" y1="400" y2="405" /><text  class="poloto_tick_labels poloto_text" dominant-baseline="start" text-anchor="middle" x="528.7878787878788" y="430" >30000</text><line  class="poloto_axis_lines" stroke="black" x1="591.9191919191919" x2="591.9191919191919" y1="400" y2="405" /><text  class="poloto_tick_labels poloto_text" dominant-baseline="start" text-anchor="middle" x="591.9191919191919" y="430" >35000</text><path  stroke="black" fill="none" class="poloto_axis_lines" style="stroke-dasharray:6.313131313131313;stroke-dashoffset:-0;" d=" M 150 400 L 650 400" /><path  stroke="black" fill="none" class="poloto_axis_lines" style="stroke-dasharray:6.937775828622506;stroke-dashoffset:-0;" d=" M 150 400 L 150 100" /></svg>