<svg class="poloto" width="800" height="500" viewBox="0 0 800 500" xmlns="http://www.w3.org/2000/svg" ><rect class="poloto_background" fill="white" x="0" y="0" width="800" height="500" /><style><style>.poloto {
            font-family: "Arial";
            stroke-width:2;
            }
            .poloto_text{fill: var(--poloto_fg_color,black);  }
            .poloto_axis_lines{stroke: var(--poloto_fg_color,black);stoke-width:3;fill:none}
            .poloto_background{fill: var(--poloto_bg_color,aliceblue); }
            .poloto0stroke{stroke:  var(--poloto_color0,blue); }
            .poloto1stroke{stroke:  var(--poloto_color1,red); }
            .poloto2stroke{stroke:  var(--poloto_color2,green); }
            .poloto3stroke{stroke:  var(--poloto_color3,gold); }
            .poloto4stroke{stroke:  var(--poloto_color4,aqua); }
            .poloto5stroke{stroke:  var(--poloto_color5,brown); }
            .poloto6stroke{stroke:  var(--poloto_color6,lime); }
            .poloto7stroke{stroke:  var(--poloto_color7,chocolate); }
            .poloto0fill{fill:var(--poloto_color0,blue);}
            .poloto1fill{fill:var(--poloto_color1,red);}
            .poloto2fill{fill:var(--poloto_color2,green);}
            .poloto3fill{fill:var(--poloto_color3,gold);}
            .poloto4fill{fill:var(--poloto_color4,aqua);}
            .poloto5fill{fill:var(--poloto_color5,brown);}
            .poloto6fill{fill:var(--poloto_color6,lime);}
            .poloto7fill{fill:var(--poloto_color7,chocolate);}</style></style><line class="poloto_axis_lines" stroke="black" x1="150" x2="150" y1="400" y2="405" /><text class="poloto_text" alignment-baseline="start" text-anchor="middle" x="150" y="430" >0</text><line class="poloto_axis_lines" stroke="black" x1="213.13132" x2="213.13132" y1="400" y2="405" /><text class="poloto_text" alignment-baseline="start" text-anchor="middle" x="213.13132" y="430" >5000</text><line class="poloto_axis_lines" stroke="black" x1="276.26263" x2="276.26263" y1="400" y2="405" /><text class="poloto_text" alignment-baseline="start" text-anchor="middle" x="276.26263" y="430" >10000</text><line class="poloto_axis_lines" stroke="black" x1="339.39392" x2="339.39392" y1="400" y2="405" /><text class="poloto_text" alignment-baseline="start" text-anchor="middle" x="339.39392" y="430" >15000</text><line class="poloto_axis_lines" stroke="black" x1="402.52527" x2="402.52527" y1="400" y2="405" /><text class="poloto_text" alignment-baseline="start" text-anchor="middle" x="402.52527" y="430" >20000</text><line class="poloto_axis_lines" stroke="black" x1="465.65656" x2="465.65656" y1="400" y2="405" /><text class="poloto_text" alignment-baseline="start" text-anchor="middle" x="465.65656" y="430" >25000</text><line class="poloto_axis_lines" stroke="black" x1="528.78784" x2="528.78784" y1="400" y2="405" /><text class="poloto_text" alignment-baseline="start" text-anchor="middle" x="528.78784" y="430" >30000</text><line class="poloto_axis_lines" stroke="black" x1="591.9192" x2="591.9192" y1="400" y2="405" /><text class="poloto_text" alignment-baseline="start" text-anchor="middle" x="591.9192" y="430" >35000</text><line class="poloto_axis_lines" stroke="black" x1="150" x2="144" y1="362.62454" y2="362.62454" /><text class="poloto_text" alignment-baseline="middle" text-anchor="end" x="135" y="362.62454" >0.0001</text><line class="poloto_axis_lines" stroke="black" x1="150" x2="144" y1="325.07068" y2="325.07068" /><text class="poloto_text" alignment-baseline="middle" text-anchor="end" x="135" y="325.07068" >0.0002</text><line class="poloto_axis_lines" stroke="black" x1="150" x2="144" y1="287.51685" y2="287.51685" /><text class="poloto_text" alignment-baseline="middle" text-anchor="end" x="135" y="287.51685" >0.0003</text><line class="poloto_axis_lines" stroke="black" x1="150" x2="144" y1="249.96301" y2="249.96301" /><text class="poloto_text" alignment-baseline="middle" text-anchor="end" x="135" y="249.96301" >0.0004</text><line class="poloto_axis_lines" stroke="black" x1="150" x2="144" y1="212.40918" y2="212.40918" /><text class="poloto_text" alignment-baseline="middle" text-anchor="end" x="135" y="212.40918" >0.0005</text><line class="poloto_axis_lines" stroke="black" x1="150" x2="144" y1="174.85535" y2="174.85535" /><text class="poloto_text" alignment-baseline="middle" text-anchor="end" x="135" y="174.85535" >0.0006</text><line class="poloto_axis_lines" stroke="black" x1="150" x2="144" y1="137.30148" y2="137.30148" /><text class="poloto_text" alignment-baseline="middle" text-anchor="end" x="135" y="137.30148" >0.0007</text><text class="poloto_text" alignment-baseline="middle" text-anchor="start" font-size="large" x="675" y="100" >optimal</text><line class="poloto0stroke" stroke="black" x1="680" x2="730" y1="81.25" y2="81.25" /><polyline class="poloto0stroke" fill="none" stroke="black"  points="150,400 155.0505,394.87277 160.10101,389.61786 165.15152,383.92056 170.20203,380.3368 175.25253,374.98575 180.30302,369.7744 185.35353,364.0418 190.40404,362.5697 195.45454,378.16583 200.50505,377.39108 205.55556,375.18744 210.60606,373.33228 215.65656,371.04825 220.70706,368.50735 225.75757,366.2868 230.80807,363.87885 235.85858,361.72363 240.90909,359.4486 245.9596,357.15295 251.0101,349.1029 256.0606,352.25555 261.1111,350.22464 266.16162,347.41486 271.21213,345.45868 276.26263,343.18555 281.3131,340.615 286.36365,338.27237 291.41412,335.19446 296.46466,332.776 301.51514,330.90656 306.56567,328.37054 311.61615,324.42514 316.66666,323.3361 321.71716,321.46588 326.76767,319.06958 331.81818,316.13513 336.86868,313.7775 341.9192,311.55618 346.9697,291.13065 352.0202,306.81012 357.0707,304.59296 362.12122,302.96463 367.1717,300.91418 372.22223,297.43445 377.2727,295.5158 382.32324,292.1251 387.37372,288.20972 392.42426,273.95016 397.47473,281.82593 402.52527,280.66815 407.57574,281.2694 412.62625,277.53317 417.67676,275.11694 422.72726,254.92989 427.77777,264.76486 432.82828,263.2169 437.87878,262.46283 442.9293,258.9455 447.9798,260.14386 453.0303,257.35773 458.0808,253.7612 463.13132,251.2203 468.18182,248.391 473.23233,247.0447 478.28284,244.16846 483.3333,243.11093 488.38382,232.98041 493.43433,234.56255 498.48483,231.91237 503.53534,231.44257 508.58585,227.14342 513.63635,221.32031 518.6869,223.62537 523.73737,214.02734 528.78784,188.69276 533.8384,201.40926 538.8889,182.26094 543.9394,181.84744 548.98987,178.97871 554.0404,159.11836 559.09094,168.54402 564.1414,178.50931 569.1919,189.48329 574.24243,181.08138 579.2929,172.16872 584.3434,179.42747 589.3939,175.52377 594.44446,168.49406 599.49493,165.44695 604.5454,158.81793 609.59595,157.1036 614.6465,152.90959 619.69696,145.4082 624.74744,145.85698 629.798,146.97722 634.8485,136.74454 639.899,141.37494 644.94946,100 650,117.793 "/><text class="poloto_text" alignment-baseline="middle" text-anchor="start" font-size="large" x="675" y="150" >optimal_par</text><line class="poloto1stroke" stroke="black" x1="680" x2="730" y1="131.25" y2="131.25" /><polyline class="poloto1stroke" fill="none" stroke="black"  points="150,324.34967 155.0505,355.6955 160.10101,334.61838 165.15152,326.23862 170.20203,320.44705 175.25253,282.33215 180.30302,322.1922 185.35353,321.38742 190.40404,345.77637 195.45454,342.2482 200.50505,329.8727 205.55556,351.8173 210.60606,316.88208 215.65656,351.06433 220.70706,353.621 225.75757,348.9493 230.80807,354.72845 235.85858,353.08624 240.90909,343.22122 245.9596,341.7814 251.0101,311.47394 256.0606,335.5381 261.1111,357.7001 266.16162,325.7677 271.21213,287.5097 276.26263,346.2379 281.3131,350.71848 286.36365,354.2012 291.41412,352.239 296.46466,344.93893 301.51514,354.15765 306.56567,347.1749 311.61615,350.3801 316.66666,347.85538 321.71716,321.75317 326.76767,341.7645 331.81818,344.74554 336.86868,335.23578 341.9192,348.50015 346.9697,325.2716 352.0202,286.3437 357.0707,332.9863 362.12122,342.14868 367.1717,348.08444 372.22223,344.2547 377.2727,338.07483 382.32324,340.0096 387.37372,360.3803 392.42426,353.16772 397.47473,360.18954 402.52527,349.18515 407.57574,349.42398 412.62625,348.478 417.67676,351.4534 422.72726,341.47272 427.77777,342.5584 432.82828,336.46454 437.87878,323.50357 442.9293,339.13837 447.9798,339.06702 453.0303,341.6421 458.0808,319.1143 463.13132,340.36374 468.18182,334.93573 473.23233,333.1857 478.28284,304.99292 483.3333,320.5282 488.38382,326.97168 493.43433,339.82034 498.48483,320.63635 503.53534,321.6379 508.58585,310.89487 513.63635,287.40268 518.6869,328.3285 523.73737,323.63464 528.78784,325.96973 533.8384,286.13712 538.8889,287.77597 543.9394,329.6598 548.98987,323.6031 554.0404,325.25397 559.09094,315.11066 564.1414,358.89468 569.1919,341.30258 574.24243,357.6111 579.2929,352.65775 584.3434,356.51828 589.3939,355.48557 594.44446,355.65155 599.49493,349.2306 604.5454,354.0679 609.59595,350.62534 614.6465,349.3297 619.69696,348.91925 624.74744,350.95016 629.798,348.69168 634.8485,347.2714 639.899,348.26358 644.94946,337.61182 650,349.24786 "/><text class="poloto_text" alignment-baseline="start" text-anchor="middle" font-size="x-large" x="400" y="37.5" >Bench of optimal with abspiral(0.2,n)</text><text class="poloto_text" alignment-baseline="start" text-anchor="middle" font-size="x-large" x="400" y="481.25" >Number of Elements</text><text class="poloto_text" alignment-baseline="start" text-anchor="middle" font-size="x-large" transform="rotate(-90,37.5,250)" x="37.5" y="250" >Time in Seconds</text><path stroke="black" fill="none" class="poloto_axis_lines"  d="M 150 100 L 150 400 L 650 400 "/></svg>