<svg class="poloto" height="500" viewBox="0 0 800 500" width="800" xmlns="http://www.w3.org/2000/svg">
<rect class="poloto_background" fill="white" height="500" width="800" x="0" y="0"/>
<style>
.poloto {
font-family: "Arial";
stroke-width:2;
}
.poloto_text{fill: var(--poloto_fg_color,black);  }
.poloto_axis_lines{stroke: var(--poloto_fg_color,black);stoke-width:3;fill:none}
.poloto_background{fill: var(--poloto_bg_color,aliceblue); }
.poloto0stroke{stroke:  var(--poloto_color0,blue); }
.poloto1stroke{stroke:  var(--poloto_color1,red); }
.poloto2stroke{stroke:  var(--poloto_color2,green); }
.poloto3stroke{stroke:  var(--poloto_color3,gold); }
.poloto4stroke{stroke:  var(--poloto_color4,aqua); }
.poloto5stroke{stroke:  var(--poloto_color5,brown); }
.poloto6stroke{stroke:  var(--poloto_color6,lime); }
.poloto7stroke{stroke:  var(--poloto_color7,chocolate); }
.poloto0fill{fill:var(--poloto_color0,blue);}
.poloto1fill{fill:var(--poloto_color1,red);}
.poloto2fill{fill:var(--poloto_color2,green);}
.poloto3fill{fill:var(--poloto_color3,gold);}
.poloto4fill{fill:var(--poloto_color4,aqua);}
.poloto5fill{fill:var(--poloto_color5,brown);}
.poloto6fill{fill:var(--poloto_color6,lime);}
.poloto7fill{fill:var(--poloto_color7,chocolate);}
</style>
<text alignment-baseline="start" class="poloto_text" text-anchor="middle" x="150" y="440">
0e0
</text>
<text alignment-baseline="start" class="poloto_text" text-anchor="middle" x="212.65665" y="440">
5e3
</text>
<text alignment-baseline="start" class="poloto_text" text-anchor="middle" x="275.3133" y="440">
1e4
</text>
<text alignment-baseline="start" class="poloto_text" text-anchor="middle" x="337.9699" y="440">
1.5e4
</text>
<text alignment-baseline="start" class="poloto_text" text-anchor="middle" x="400.62656" y="440">
2e4
</text>
<text alignment-baseline="start" class="poloto_text" text-anchor="middle" x="463.2832" y="440">
2.5e4
</text>
<text alignment-baseline="start" class="poloto_text" text-anchor="middle" x="525.9398" y="440">
3e4
</text>
<text alignment-baseline="start" class="poloto_text" text-anchor="middle" x="588.59644" y="440">
3.5e4
</text>
<text alignment-baseline="middle" class="poloto_text" text-anchor="end" x="120" y="400">
5e-4
</text>
<text alignment-baseline="middle" class="poloto_text" text-anchor="end" x="120" y="328.58643">
1e-3
</text>
<text alignment-baseline="middle" class="poloto_text" text-anchor="end" x="120" y="257.17285">
1.5e-3
</text>
<text alignment-baseline="middle" class="poloto_text" text-anchor="end" x="120" y="185.75928">
2e-3
</text>
<text alignment-baseline="middle" class="poloto_text" text-anchor="end" x="120" y="114.34567">
2.5e-3
</text>
<text alignment-baseline="middle" class="poloto_text" font-size="large" text-anchor="start" x="675" y="100">
optimal
</text>
<line class="poloto0stroke" x1="680" x2="730" y1="81.25" y2="81.25"/>
<polyline class="poloto0stroke" fill="none" points="150,400 151.25313,399.5658 152.50627,399.05392 153.7594,398.52316 155.01253,397.98615 156.26567,397.49823 157.5188,397.01535 158.77193,396.47702 160.02505,398.41705 161.2782,398.23294 162.53133,398.02213 163.78445,397.8166 165.0376,397.63907 166.29073,397.36298 167.54385,397.22516 168.797,396.9482 170.05013,396.75125 171.30325,396.4996 172.5564,396.33905 173.80952,396.1284 175.06265,395.88116 176.3158,395.5692 177.56892,395.29813 178.82205,395.08405 180.0752,394.96405 181.32832,394.63828 182.58145,394.5373 183.8346,394.34418 185.08772,394.11224 186.34085,393.93683 187.59398,393.66248 188.84712,393.39294 190.10025,393.22357 191.35338,393.01917 192.6065,392.8322 193.85965,391.32697 195.11278,392.3803 196.3659,392.10938 197.61905,391.96054 198.87218,391.31125 200.1253,391.5348 201.37845,391.29398 202.63158,391.173 203.8847,390.97318 205.13785,390.6998 206.39098,390.54355 207.6441,390.25162 208.89725,390.04553 210.15038,389.73874 211.4035,389.57648 212.65665,389.4365 213.90977,389.19397 215.1629,388.9946 216.41605,388.7685 217.66917,388.4473 218.9223,388.3373 220.17545,388.00436 221.42856,387.8634 222.6817,387.60718 223.93484,387.26538 225.18796,387.098 226.4411,386.85632 227.69424,386.71536 228.94736,386.44156 230.2005,386.1312 231.45363,385.96738 232.70676,385.763 233.9599,385.61487 235.21303,385.49432 236.46616,385.08514 237.7193,384.78677 238.97243,384.73962 240.22556,384.54553 241.4787,384.28302 242.73183,384.1569 243.98495,383.90137 245.2381,383.7433 246.49123,383.53845 247.74435,381.35178 248.9975,383.0127 250.25063,382.7692 251.50375,382.5811 252.7569,382.16574 254.01003,381.89594 255.26315,381.95178 256.5163,381.64413 257.7694,381.36148 259.02255,381.18967 260.2757,380.98712 261.5288,380.87772 262.78195,380.4044 264.0351,380.1933 265.2882,380.10446 266.54135,379.7731 267.7945,379.70596 269.0476,379.3966 270.30075,379.18707 271.5539,377.3289 272.807,377.41232 274.06015,376.61533 275.3133,377.74496 276.5664,377.97034 277.81955,377.68567 279.0727,377.53256 280.3258,377.32675 281.57895,376.97226 282.8321,376.99298 284.0852,376.74173 285.33835,376.41425 286.5915,376.1233 287.8446,375.84537 289.09775,375.6064 290.3509,375.3203 291.604,375.2779 292.85712,372.58618 294.1103,374.33395 295.3634,373.59726 296.61652,374.06302 297.8697,374.02002 299.1228,373.7875 300.37592,373.64923 301.6291,372.57248 302.8822,373.2719 304.1353,372.849 305.3885,372.759 306.6416,372.42722 307.8947,369.51382 309.1479,369.04993 310.401,371.11578 311.6541,370.78827 312.90726,370.8107 314.1604,370.95724 315.4135,370.3348 316.66666,370.77472 317.9198,370.75687 319.1729,370.24652 320.42606,370.04114 321.6792,369.99915 322.9323,369.68835 324.18546,369.36273 325.4386,368.53146 326.6917,368.28638 327.94485,368.66858 329.198,368.26453 330.4511,368.36334 331.70425,368.2211 332.9574,367.84802 334.2105,367.71634 335.46365,367.3537 336.7168,367.26486 337.9699,366.95795 339.22305,366.08398 340.4762,366.35278 341.7293,366.14484 342.98245,360.15878 344.2356,365.43283 345.4887,365.66064 346.74185,365.20087 347.995,364.96594 349.2481,364.90952 350.50125,364.69955 351.7544,362.66797 353.0075,363.68793 354.26065,363.53708 355.5138,363.7886 356.7669,363.43567 358.02005,363.1146 359.2732,363.23972 360.5263,363.23672 361.77945,362.92877 363.0326,362.65598 364.2857,360.67026 365.53885,358.17834 366.792,360.22394 368.0451,361.67575 369.29822,361.0646 370.5514,361.43237 371.8045,361.0092 373.05762,360.36102 374.3108,354.11536 375.5639,355.82526 376.81702,357.78757 378.0702,359.26712 379.3233,358.42 380.57642,359.11786 381.8296,358.534 383.0827,359.121 384.33582,358.85934 385.589,358.18207 386.8421,356.96075 388.0952,347.56458 389.34836,350.74234 390.6015,355.15585 391.8546,357.00275 393.10776,356.5938 394.3609,356.47827 395.614,356.2619 396.86716,350.1819 398.1203,347.31522 399.3734,354.73608 400.62656,354.84134 401.8797,355.33636 403.1328,354.9886 404.38596,354.6158 405.6391,351.84024 406.8922,350.87204 408.14536,351.90466 409.3985,353.13928 410.6516,353.664 411.90475,353.5606 413.1579,352.98016 414.411,353.0997 415.66415,352.84918 416.9173,349.29837 418.1704,348.27414 419.42355,350.8979 420.6767,350.2246 421.9298,351.4212 423.18295,350.96072 424.4361,350.14746 425.6892,342.07645 426.94235,347.9742 428.1955,348.5505 429.4486,349.57587 430.70175,349.69714 431.9549,349.9568 433.208,349.3969 434.46115,342.95782 435.71426,346.6295 436.9674,346.9213 438.22055,347.5139 439.47366,347.00485 440.7268,346.41895 441.97995,346.73346 443.23306,344.3614 444.4862,344.45636 445.73935,343.5837 446.99246,343.07565 448.2456,343.3766 449.49875,344.59805 450.75186,345.33575 452.005,338.73544 453.25815,342.81143 454.51126,343.25507 455.7644,344.4394 457.01755,344.24872 458.27066,342.7236 459.5238,342.86514 460.77695,337.21646 462.03006,336.4552 463.2832,339.04678 464.53635,340.9374 465.78946,326.81537 467.0426,335.35272 468.29575,338.63516 469.54886,332.94064 470.802,338.1444 472.0551,339.2456 473.30826,339.94077 474.5614,339.30176 475.8145,340.2354 477.06766,336.86755 478.3208,337.6811 479.5739,339.0221 480.82706,338.76514 482.0802,338.4765 483.3333,338.21783 484.58646,335.12277 485.8396,334.44562 487.0927,337.25616 488.34586,336.81268 489.599,337.1822 490.8521,338.08743 492.10526,330.76297 493.3584,333.91574 494.6115,335.3687 495.86465,335.7652 497.1178,336.43176 498.3709,336.1287 499.62405,332.74542 500.8772,331.86902 502.1303,328.54044 503.38345,335.2219 504.6366,334.64716 505.8897,331.2633 507.14285,321.29022 508.396,332.27307 509.6491,332.78854 510.90225,331.0559 512.1554,330.05554 513.4085,325.85587 514.6616,326.35132 515.9148,330.36676 517.1679,332.07324 518.421,330.51117 519.6742,330.6064 520.9273,324.2532 522.1804,325.4975 523.4336,329.91473 524.6867,329.78946 525.9398,330.47318 527.193,311.4476 528.4461,309.48773 529.6992,326.13837 530.9524,328.01068 532.2055,314.28143 533.4586,320.48114 534.7118,321.97308 535.9649,325.826 537.218,325.58777 538.4712,328.27664 539.7243,320.35614 540.9774,311.36133 542.2306,319.6983 543.4837,321.97223 544.7368,324.0758 545.99,319.739 547.2431,319.33365 548.4962,324.9842 549.7494,322.6554 551.0025,324.99976 552.2556,317.43948 553.5088,318.83633 554.7619,324.3309 556.015,321.9361 557.2682,321.4432 558.5213,317.13525 559.7744,318.89374 561.0276,321.2544 562.2807,322.16806 563.5338,322.17908 564.787,306.55148 566.0401,314.52438 567.2932,319.39993 568.5464,318.84976 569.7995,316.86816 571.0526,314.5718 572.3058,307.8732 573.5589,311.59528 574.812,316.7072 576.0652,308.6606 577.3183,310.45996 578.5714,315.28894 579.8246,304.54477 581.0777,310.2353 582.3308,305.76978 583.584,308.03445 584.8371,308.6249 586.0902,308.12372 587.3434,309.69925 588.59644,311.03296 589.8496,315.39447 591.1028,312.92856 592.35583,298.9872 593.609,306.7566 594.8622,313.66168 596.11523,311.74225 597.3684,310.9647 598.6216,304.63474 599.87463,301.78348 601.1278,305.6658 602.381,308.17886 603.63403,303.03363 604.8872,301.9839 606.1404,307.09692 607.39343,304.2004 608.6466,299.71478 609.8998,300.22894 611.15283,303.7979 612.406,304.1494 613.6592,299.32843 614.91223,302.5109 616.1654,301.63693 617.4186,302.89682 618.67163,303.7549 619.9248,299.9273 621.178,301.392 622.431,301.2843 623.6842,300.0193 624.9373,290.88492 626.1904,292.6757 627.4436,296.46445 628.6967,299.13776 629.9498,298.03485 631.203,299.14417 632.4561,301.84662 633.7092,299.6882 634.9624,292.81793 636.2155,295.74033 637.4686,298.20438 638.7218,297.94916 639.9749,291.92184 641.228,298.81226 642.4812,295.6112 643.7343,298.35535 644.9874,293.5658 646.2406,294.8465 647.4937,295.5268 648.7468,291.0813 650,290.8709 " stroke="black"/>
<text alignment-baseline="middle" class="poloto_text" font-size="large" text-anchor="start" x="675" y="150">
optimal_par
</text>
<line class="poloto1stroke" x1="680" x2="730" y1="131.25" y2="131.25"/>
<polyline class="poloto1stroke" fill="none" points="150,368.605 151.25313,376.63962 152.50627,376.48178 153.7594,374.7493 155.01253,375.36304 156.26567,380.69876 157.5188,375.81836 158.77193,378.40353 160.02505,390.0351 161.2782,389.52576 162.53133,376.4538 163.78445,381.59473 165.0376,381.33606 166.29073,368.4192 167.54385,386.24817 168.797,386.94574 170.05013,386.6115 171.30325,384.53552 172.5564,386.66708 173.80952,386.1952 175.06265,386.31573 176.3158,386.5307 177.56892,385.57574 178.82205,376.3197 180.0752,376.45667 181.32832,382.6422 182.58145,389.92984 183.8346,382.0089 185.08772,378.305 186.34085,384.56882 187.59398,383.88867 188.84712,374.90054 190.10025,365.50766 191.35338,382.99356 192.6065,380.39798 193.85965,380.55865 195.11278,381.8721 196.3659,382.30957 197.61905,371.7412 198.87218,380.63464 200.1253,372.57147 201.37845,381.5146 202.63158,383.97452 203.8847,378.83273 205.13785,383.76627 206.39098,383.61972 207.6441,382.51096 208.89725,380.21573 210.15038,387.91983 211.4035,384.44183 212.65665,383.2194 213.90977,386.11478 215.1629,375.8765 216.41605,385.82654 217.66917,379.14966 218.9223,388.07437 220.17545,381.1061 221.42856,381.623 222.6817,387.16498 223.93484,380.88528 225.18796,384.36243 226.4411,381.31708 227.69424,380.73004 228.94736,380.0579 230.2005,376.75104 231.45363,383.75742 232.70676,385.43036 233.9599,384.37027 235.21303,376.42325 236.46616,381.31577 237.7193,385.34308 238.97243,386.29816 240.22556,383.99866 241.4787,381.9141 242.73183,379.85138 243.98495,380.7279 245.2381,379.46973 246.49123,384.0032 247.74435,385.049 248.9975,381.35263 250.25063,374.33566 251.50375,384.06577 252.7569,388.2099 254.01003,380.39868 255.26315,378.38153 256.5163,387.9298 257.7694,379.4449 259.02255,378.08316 260.2757,379.5293 261.5288,382.255 262.78195,386.429 264.0351,388.1175 265.2882,388.47943 266.54135,380.8566 267.7945,374.55948 269.0476,379.9212 270.30075,379.60187 271.5539,379.51672 272.807,385.75314 274.06015,379.20807 275.3133,378.97784 276.5664,374.86786 277.81955,378.49524 279.0727,375.11295 280.3258,382.7992 281.57895,373.57013 282.8321,378.43124 284.0852,376.99496 285.33835,375.43658 286.5915,381.4119 287.8446,374.16714 289.09775,369.2186 290.3509,378.0839 291.604,374.101 292.85712,386.97302 294.1103,383.83453 295.3634,378.86758 296.61652,380.74234 297.8697,366.2511 299.1228,369.66638 300.37592,364.6103 301.6291,367.6388 302.8822,375.9359 304.1353,379.77997 305.3885,370.79742 306.6416,379.6881 307.8947,385.73056 309.1479,384.32416 310.401,386.7655 311.6541,378.35855 312.90726,383.09842 314.1604,376.73618 315.4135,371.05008 316.66666,383.3492 317.9198,382.0629 319.1729,364.93823 320.42606,365.89203 321.6792,386.3076 322.9323,366.12567 324.18546,379.25864 325.4386,377.56384 326.6917,382.46368 327.94485,379.87537 329.198,380.77618 330.4511,380.54694 331.70425,378.2863 332.9574,379.99463 334.2105,381.53687 335.46365,382.92645 336.7168,381.4272 337.9699,359.0039 339.22305,382.88287 340.4762,363.55222 341.7293,378.0589 342.98245,365.08633 344.2356,359.70117 345.4887,349.63672 346.74185,357.36453 347.995,366.83853 349.2481,359.07043 350.50125,371.04266 351.7544,363.23688 353.0075,380.19745 354.26065,369.07593 355.5138,372.71487 356.7669,372.96198 358.02005,373.56827 359.2732,374.15985 360.5263,379.543 361.77945,379.45404 363.0326,373.77866 364.2857,373.6134 365.53885,381.1204 366.792,379.93494 368.0451,368.29767 369.29822,365.99728 370.5514,373.0821 371.8045,373.40787 373.05762,371.90588 374.3108,378.38898 375.5639,374.35468 376.81702,378.0396 378.0702,373.96417 379.3233,358.48486 380.57642,364.4986 381.8296,373.29517 383.0827,365.19116 384.33582,374.61218 385.589,376.23956 386.8421,374.79156 388.0952,371.93903 389.34836,376.0653 390.6015,374.69217 391.8546,375.1982 393.10776,382.06134 394.3609,374.54434 395.614,381.6397 396.86716,382.9023 398.1203,383.27136 399.3734,375.4653 400.62656,380.72604 401.8797,378.81946 403.1328,379.46216 404.38596,382.35513 405.6391,366.36148 406.8922,380.22043 408.14536,378.38968 409.3985,380.22314 410.6516,383.12796 411.90475,362.89706 413.1579,376.5559 414.411,374.4928 415.66415,368.81226 416.9173,358.82263 418.1704,374.23557 419.42355,381.07925 420.6767,365.9553 421.9298,370.07986 423.18295,367.8502 424.4361,367.1579 425.6892,372.70215 426.94235,375.0391 428.1955,368.02457 429.4486,368.4172 430.70175,378.42697 431.9549,371.83276 433.208,374.9087 434.46115,383.75983 435.71426,368.03043 436.9674,363.9957 438.22055,363.29086 439.47366,373.60638 440.7268,377.02097 441.97995,359.79916 443.23306,373.1905 444.4862,365.76004 445.73935,376.05945 446.99246,376.34424 448.2456,368.76685 449.49875,368.2164 450.75186,372.03073 452.005,362.99435 453.25815,375.44202 454.51126,377.86008 455.7644,362.51517 457.01755,367.13275 458.27066,371.5524 459.5238,352.45126 460.77695,373.36346 462.03006,375.44086 463.2832,364.23422 464.53635,350.21332 465.78946,345.50574 467.0426,366.73242 468.29575,379.37503 469.54886,371.00708 470.802,370.15656 472.0551,364.79382 473.30826,375.0334 474.5614,375.7558 475.8145,374.09814 477.06766,366.627 478.3208,364.636 479.5739,338.99338 480.82706,372.12015 482.0802,358.37103 483.3333,364.4596 484.58646,100 485.8396,375.18478 487.0927,349.75626 488.34586,376.7643 489.599,377.47202 490.8521,366.35864 492.10526,362.93463 493.3584,379.33478 494.6115,373.6488 495.86465,347.59128 497.1178,374.96082 498.3709,370.44864 499.62405,371.8632 500.8772,373.84506 502.1303,371.9549 503.38345,377.54828 504.6366,374.795 505.8897,377.9869 507.14285,373.25476 508.396,373.03024 509.6491,376.62177 510.90225,352.367 512.1554,369.04993 513.4085,353.6093 514.6616,376.9557 515.9148,344.96143 517.1679,376.37738 518.421,351.80698 519.6742,373.9486 520.9273,361.58105 522.1804,358.7331 523.4336,361.62518 524.6867,361.83945 525.9398,349.7397 527.193,349.72485 528.4461,375.0514 529.6992,350.0819 530.9524,373.91348 532.2055,357.75516 533.4586,372.5939 534.7118,363.72418 535.9649,360.62927 537.218,377.02982 538.4712,363.97726 539.7243,369.338 540.9774,370.92197 542.2306,362.03827 543.4837,372.8814 544.7368,373.6778 545.99,364.8575 547.2431,362.25793 548.4962,357.33725 549.7494,373.71408 551.0025,358.62512 552.2556,365.58978 553.5088,339.34787 554.7619,342.8053 556.015,375.9712 557.2682,358.529 558.5213,369.31628 559.7744,361.15402 561.0276,380.76303 562.2807,379.39633 563.5338,376.3567 564.787,380.88586 566.0401,378.8483 567.2932,379.13425 568.5464,353.39764 569.7995,384.4631 571.0526,354.78693 572.3058,371.76608 573.5589,377.09323 574.812,370.68887 576.0652,353.30124 577.3183,373.36844 578.5714,351.56216 579.8246,380.74506 581.0777,368.24667 582.3308,381.5863 583.584,382.82904 584.8371,375.37247 586.0902,372.9704 587.3434,381.44275 588.59644,381.7391 589.8496,382.73462 591.1028,383.60516 592.35583,382.84518 593.609,382.70178 594.8622,375.8015 596.11523,373.54483 597.3684,377.18036 598.6216,375.23535 599.87463,359.92227 601.1278,382.54282 602.381,378.71677 603.63403,374.54578 604.8872,376.3324 606.1404,366.2411 607.39343,375.8368 608.6466,378.11145 609.8998,374.72488 611.15283,373.44543 612.406,369.0085 613.6592,377.06152 614.91223,378.4651 616.1654,367.77676 617.4186,374.31226 618.67163,379.46774 619.9248,381.33463 621.178,378.12173 622.431,384.1909 623.6842,377.441 624.9373,368.6293 626.1904,371.42273 627.4436,379.10538 628.6967,379.57956 629.9498,380.69748 631.203,376.7639 632.4561,376.96896 633.7092,372.97195 634.9624,360.90335 636.2155,376.6085 637.4686,368.67242 638.7218,376.02032 639.9749,374.37494 641.228,355.1097 642.4812,376.92157 643.7343,375.7865 644.9874,369.32043 646.2406,373.69553 647.4937,378.10944 648.7468,376.64304 650,371.50983 " stroke="black"/>
<text alignment-baseline="start" class="poloto_text" font-size="x-large" text-anchor="middle" x="400" y="37.5">
Bench of optimal with abspiral(0.2,n)
</text>
<text alignment-baseline="start" class="poloto_text" font-size="large" text-anchor="middle" x="400" y="481.25">
Number of Elements
</text>
<text alignment-baseline="start" class="poloto_text" font-size="large" text-anchor="middle" transform="rotate(-90,37.5,250)" x="37.5" y="250">
Time in Seconds
</text>
<path class="poloto_axis_lines" d="M150,100 L150,400 L650,400" stroke="black"/>
</svg>