<svg class="poloto" width="800" height="500" viewBox="0 0 800 500" xmlns="http://www.w3.org/2000/svg" ><style><style>.poloto {
            font-family: "Arial";
            stroke-width:2;
            }
            .poloto_text{fill: var(--poloto_fg_color,black);  }
            .poloto_axis_lines{stroke: var(--poloto_fg_color,black);stoke-width:3;fill:none}
            .poloto_background{fill: var(--poloto_bg_color,aliceblue); }
            .poloto0stroke{stroke:  var(--poloto_color0,blue); }
            .poloto1stroke{stroke:  var(--poloto_color1,red); }
            .poloto2stroke{stroke:  var(--poloto_color2,green); }
            .poloto3stroke{stroke:  var(--poloto_color3,gold); }
            .poloto4stroke{stroke:  var(--poloto_color4,aqua); }
            .poloto5stroke{stroke:  var(--poloto_color5,brown); }
            .poloto6stroke{stroke:  var(--poloto_color6,lime); }
            .poloto7stroke{stroke:  var(--poloto_color7,chocolate); }
            .poloto0fill{fill:var(--poloto_color0,blue);}
            .poloto1fill{fill:var(--poloto_color1,red);}
            .poloto2fill{fill:var(--poloto_color2,green);}
            .poloto3fill{fill:var(--poloto_color3,gold);}
            .poloto4fill{fill:var(--poloto_color4,aqua);}
            .poloto5fill{fill:var(--poloto_color5,brown);}
            .poloto6fill{fill:var(--poloto_color6,lime);}
            .poloto7fill{fill:var(--poloto_color7,chocolate);}</style></style><rect class="poloto_background" fill="white" x="0" y="0" width="800" height="500" /><line class="poloto_axis_lines" stroke="black" x1="150" x2="150" y1="400" y2="405" /><text class="poloto_text" alignment-baseline="start" text-anchor="middle" x="150" y="430" >0</text><line class="poloto_axis_lines" stroke="black" x1="213.13131313131314" x2="213.13131313131314" y1="400" y2="405" /><text class="poloto_text" alignment-baseline="start" text-anchor="middle" x="213.13131313131314" y="430" >5000</text><line class="poloto_axis_lines" stroke="black" x1="276.26262626262627" x2="276.26262626262627" y1="400" y2="405" /><text class="poloto_text" alignment-baseline="start" text-anchor="middle" x="276.26262626262627" y="430" >10000</text><line class="poloto_axis_lines" stroke="black" x1="339.3939393939394" x2="339.3939393939394" y1="400" y2="405" /><text class="poloto_text" alignment-baseline="start" text-anchor="middle" x="339.3939393939394" y="430" >15000</text><line class="poloto_axis_lines" stroke="black" x1="402.52525252525254" x2="402.52525252525254" y1="400" y2="405" /><text class="poloto_text" alignment-baseline="start" text-anchor="middle" x="402.52525252525254" y="430" >20000</text><line class="poloto_axis_lines" stroke="black" x1="465.65656565656565" x2="465.65656565656565" y1="400" y2="405" /><text class="poloto_text" alignment-baseline="start" text-anchor="middle" x="465.65656565656565" y="430" >25000</text><line class="poloto_axis_lines" stroke="black" x1="528.7878787878788" x2="528.7878787878788" y1="400" y2="405" /><text class="poloto_text" alignment-baseline="start" text-anchor="middle" x="528.7878787878788" y="430" >30000</text><line class="poloto_axis_lines" stroke="black" x1="591.9191919191919" x2="591.9191919191919" y1="400" y2="405" /><text class="poloto_text" alignment-baseline="start" text-anchor="middle" x="591.9191919191919" y="430" >35000</text><line class="poloto_axis_lines" stroke="black" x1="150" x2="144" y1="338.6325825245102" y2="338.6325825245102" /><text class="poloto_text" alignment-baseline="middle" text-anchor="end" x="135" y="338.6325825245102" >0.0005</text><line class="poloto_axis_lines" stroke="black" x1="150" x2="144" y1="277.24183656555607" y2="277.24183656555607" /><text class="poloto_text" alignment-baseline="middle" text-anchor="end" x="135" y="277.24183656555607" >0.0010</text><line class="poloto_axis_lines" stroke="black" x1="150" x2="144" y1="215.85109060660193" y2="215.85109060660193" /><text class="poloto_text" alignment-baseline="middle" text-anchor="end" x="135" y="215.85109060660193" >0.0015</text><line class="poloto_axis_lines" stroke="black" x1="150" x2="144" y1="154.46034464764776" y2="154.46034464764776" /><text class="poloto_text" alignment-baseline="middle" text-anchor="end" x="135" y="154.46034464764776" >0.0020</text><text class="poloto_text" alignment-baseline="middle" text-anchor="start" font-size="large" x="675" y="100" >optimal</text><line class="poloto0stroke" stroke="black" x1="680" x2="730" y1="81.25" y2="81.25" /><polyline class="poloto0stroke" fill="none" stroke="black"  points="150,400 155.05050505050505,398.1748531226403 160.1010101010101,396.441792364219 165.15151515151516,394.6216795280279 170.2020202020202,390.77689989011054 175.25252525252526,387.42754357208196 180.3030303030303,388.68826393109504 185.35353535353534,386.3069168953472 190.40404040404042,384.09967401513893 195.45454545454544,382.12461093614746 200.50505050505052,374.8331092571106 205.55555555555554,370.12836804980014 210.6060606060606,377.1603096549226 215.65656565656565,375.28641852527153 220.7070707070707,377.24625669926513 225.75757575757575,380.3313872466864 230.8080808080808,330.03861477920816 235.85858585858585,381.8990613354943 240.9090909090909,357.14176964964304 245.95959595959596,384.7459957885948 251.010101010101,382.6896513619537 256.06060606060606,384.39312178082275 261.1111111111111,295.20464605165415 266.16161616161617,354.2366367693734 271.2121212121212,375.9611028233604 276.26262626262627,381.0085271746137 281.3131313131313,350.2037558858378 286.3636363636364,344.09758672977637 291.4141414141414,364.00279941801574 296.4646464646464,378.0550183865284 301.5151515151515,372.3746554444383 306.5656565656566,221.12909859967706 311.6161616161616,370.1697454125765 316.66666666666663,373.7545966321037 321.7171717171717,374.1063656064485 326.7676767676768,370.9508812641582 331.8181818181818,232.3604127913758 336.86868686868684,362.63157571627653 341.9191919191919,362.95854282925393 346.969696969697,367.28438035250565 352.020202020202,330.8493409703421 357.07070707070704,357.411029461419 362.1212121212121,357.9596171673082 367.1717171717172,352.0943452983897 372.22222222222223,356.18567017207823 377.27272727272725,365.18272955534684 382.32323232323233,362.01877329011427 387.37373737373736,354.00863153888184 392.4242424242424,353.6654572689713 397.47474747474746,360.8781332301969 402.52525252525254,356.1041432614448 407.57575757575756,344.2475029314081 412.62626262626264,346.10690584501293 417.67676767676767,177.8198918295056 422.72727272727275,287.21648218747504 427.77777777777777,342.852214057253 432.8282828282828,134.49631962477974 437.8787878787879,232.99261469326112 442.9292929292929,325.9265398333855 447.979797979798,279.85634565445605 453.030303030303,338.73215831445566 458.0808080808081,336.6839174662811 463.1313131313131,194.4673431926871 468.1818181818182,336.93684733963204 473.2323232323232,334.0384674414179 478.2828282828283,308.07079580823984 483.3333333333333,291.6470523233328 488.3838383838384,332.65177327169704 493.4343434343434,229.20640182698855 498.4848484848485,317.8171906366834 503.5353535353535,325.6354249160481 508.5858585858586,260.68413847296654 513.6363636363636,323.7328029172882 518.6868686868687,325.2265625479615 523.7373737373737,187.22912868114256 528.7878787878788,322.56060801394796 533.8383838383838,111.34660601260964 538.8888888888889,211.0398978457987 543.939393939394,114.32847732532798 548.989898989899,174.15510985873985 554.040404040404,315.9014310182883 559.090909090909,308.1485164926239 564.1414141414141,212.69143169358648 569.1919191919192,316.9465470774935 574.2424242424242,317.76132505786074 579.2929292929293,317.3290114248178 584.3434343434344,316.1213326703133 589.3939393939394,313.1425308948929 594.4444444444445,301.3998317893561 599.4949494949494,315.0563260094173 604.5454545454545,305.08131204302265 609.5959595959596,305.40435014825863 614.6464646464647,309.633558637371 619.6969696969697,190.62894819234947 624.7474747474747,304.5655069954755 629.7979797979798,304.3623036263513 634.8484848484848,193.30619862361945 639.8989898989898,299.2922874805852 644.9494949494949,301.89574623521247 650,304.5026428716135 "/><text class="poloto_text" alignment-baseline="middle" text-anchor="start" font-size="large" x="675" y="150" >optimal_par</text><line class="poloto1stroke" stroke="black" x1="680" x2="730" y1="131.25" y2="131.25" /><polyline class="poloto1stroke" fill="none" stroke="black"  points="150,388.1163477417414 155.05050505050505,322.3256042384171 160.1010101010101,378.96753043446233 165.15151515151516,366.5934888974836 170.2020202020202,373.60455764898 175.25252525252526,366.42515547206415 180.3030303030303,369.0919694765211 185.35353535353534,369.62926128515386 190.40404040404042,329.5068481377117 195.45454545454544,328.7069267178665 200.50505050505052,334.2455998182834 205.55555555555554,356.49495675021944 210.6060606060606,359.2348257423676 215.65656565656565,351.359498069261 220.7070707070707,361.8311631704637 225.75757575757575,343.10551227507966 230.8080808080808,364.832433958905 235.85858585858585,383.25825245102556 240.9090909090909,353.1724895789209 245.95959595959596,375.97031143525425 251.010101010101,384.6525590732453 256.06060606060606,370.87610733558023 261.1111111111111,382.4796950107741 266.16161616161617,385.3870379578982 271.2121212121212,378.16576729223834 276.26262626262627,382.8527051832207 281.3131313131313,377.41066111694323 286.3636363636364,384.59804409083375 291.4141414141414,389.29713734951594 296.4646464646464,374.4512588172459 301.5151515151515,341.56706018134827 306.5656565656566,374.62757303964 311.6161616161616,378.3710579467251 316.66666666666663,385.1920609487326 321.7171717171717,381.05346520065564 326.7676767676768,379.18927380886606 331.8181818181818,352.9889312485036 336.86868686868684,368.8197629089391 341.9191919191919,383.2943502096494 346.969696969697,367.12341381660127 352.020202020202,366.8144955829358 357.07070707070704,369.82497498327103 362.1212121212121,369.4848702506584 367.1717171717172,377.42883277774706 372.22222222222223,383.36396731556687 377.27272727272725,386.3247202116753 382.32323232323233,374.91156663044615 387.37373737373736,366.45155349282646 392.4242424242424,375.27229865370094 397.47474747474746,370.7258227894727 402.52525252525254,360.4838818596485 407.57575757575756,161.24205757224155 412.62626262626264,237.810314873136 417.67676767676767,341.97015181931476 422.72727272727275,374.40226900197064 427.77777777777777,330.1415056694354 432.8282828282828,348.25717811297125 437.8787878787879,371.7584151365023 442.9292929292929,344.1358945552547 447.979797979798,379.12002504742435 453.030303030303,369.6282790332185 458.0808080808081,199.1191655769809 463.1313131313131,381.8573156282422 468.1818181818182,348.14335966996333 473.2323232323232,373.8470510955179 478.2828282828283,335.42319710726804 483.3333333333333,347.9373323265251 488.3838383838384,381.9798515571763 493.4343434343434,353.1772780571057 498.4848484848485,337.02082988010386 503.5353535353535,319.6893628254477 508.5858585858586,100 513.6363636363636,366.39163612477057 518.6868686868687,312.59664438182585 523.7373737373737,375.11538390702987 528.7878787878788,340.57879195290104 533.8383838383838,374.5410120878379 538.8888888888889,375.8467932543848 543.939393939394,284.2402588233849 548.989898989899,348.34877310594203 554.040404040404,377.1174589142433 559.090909090909,372.71488295854283 564.1414141414141,386.68557501642204 569.1919191919192,381.6117526444064 574.2424242424242,377.10505798355956 579.2929292929293,373.9476091373986 584.3434343434344,382.5311404558877 589.3939393939394,376.32343100601014 594.4444444444445,379.89575851336167 599.4949494949494,380.33494790995206 604.5454545454545,379.9546936294823 609.5959595959596,353.9438029111492 614.6464646464647,383.50504324978056 619.6969696969697,383.7395558993437 624.7474747474747,381.02191035723274 629.7979797979798,381.59947449521457 634.8484848484848,378.16576729223834 639.8989898989898,361.5664462738887 644.9494949494949,379.92485772694624 650,380.39891706724126 "/><text class="poloto_text" alignment-baseline="start" text-anchor="middle" font-size="x-large" x="400" y="37.5" >Bench of optimal with abspiral(0.2,n)</text><text class="poloto_text" alignment-baseline="start" text-anchor="middle" font-size="x-large" x="400" y="481.25" >Number of Elements</text><text class="poloto_text" alignment-baseline="start" text-anchor="middle" font-size="x-large" transform="rotate(-90,37.5,250)" x="37.5" y="250" >Time in Seconds</text><path stroke="black" fill="none" class="poloto_axis_lines"  d="M 150 100 L 150 400 L 650 400 "/></svg>