<svg  width="800" class="poloto_background poloto" height="500" viewBox="0 0 800 500" xmlns="http://www.w3.org/2000/svg" ><text  class="poloto_text" alignment-baseline="middle" text-anchor="start" font-size="large" x="675" y="100" >optimal</text><line  class="poloto0stroke poloto0legend" stroke="black" x1="680" x2="730" y1="81.25" y2="81.25" /><path  class="poloto0stroke" fill="none" stroke="black" d=" M 150 399.8936916065904 L 155.05050505050505 392.9007712121443 L 160.1010101010101 387.1149654783497 L 165.15151515151516 381.98358506957675 L 170.2020202020202 391.5759171480392 L 175.25252525252526 391.27585313438294 L 180.3030303030303 389.3851640730975 L 185.35353535353534 387.32586761366235 L 190.40404040404042 385.6763728643063 L 195.45454545454544 382.4774047034796 L 200.50505050505052 381.7395330051363 L 205.55555555555554 374.52427946533356 L 210.6060606060606 377.9107161908826 L 215.65656565656565 368.64816875219094 L 220.7070707070707 375.07068174543906 L 225.75757575757575 372.88621572602153 L 230.8080808080808 368.26408681471094 L 235.85858585858585 368.2703738702352 L 240.9090909090909 367.165566749478 L 245.95959595959596 363.93001935651034 L 251.010101010101 360.93966712898754 L 256.06060606060606 357.4572099190685 L 261.1111111111111 358.3911234396671 L 266.16161616161617 357.73898431665424 L 271.2121212121212 354.0427672189115 L 276.26262626262627 353.72269893767816 L 281.3131313131313 352.9139549770618 L 286.3636363636364 350.96382466354726 L 291.4141414141414 345.4352166557437 L 296.4646464646464 347.42021154989254 L 301.5151515151515 344.77278962369115 L 306.5656565656566 342.48258676136624 L 311.6161616161616 335.2936245446648 L 316.66666666666663 340.0849324046273 L 321.7171717171717 334.4985977961013 L 326.7676767676768 332.797663501547 L 331.8181818181818 330.9875630610721 L 336.86868686868684 331.6162686134947 L 341.9191919191919 329.2380469738306 L 346.969696969697 326.2957049884928 L 352.020202020202 326.3848668668364 L 357.07070707070704 323.37565347274085 L 362.1212121212121 307.5522778192681 L 367.1717171717172 314.7446693389828 L 372.22222222222223 290.2583027236287 L 377.27272727272725 308.9051378579811 L 382.32323232323233 310.01280273124934 L 387.37373737373736 310.4786163905443 L 392.4242424242424 307.667731020713 L 397.47474747474746 304.6590891771197 L 402.52525252525254 304.4167517641859 L 407.57575757575756 301.0023090640289 L 412.62626262626264 297.5455716267089 L 417.67676767676767 297.743328100471 L 422.72727272727275 293.74476078706317 L 427.77777777777777 290.27659233969916 L 432.8282828282828 281.00718629498107 L 437.8787878787879 286.47235219704015 L 442.9292929292929 285.5430110804591 L 447.979797979798 285.05490695157823 L 453.030303030303 278.52265626190734 L 458.0808080808081 278.54323207998664 L 463.1313131313131 280.52422612062 L 468.1818181818182 277.04005425919433 L 473.2323232323232 275.02248098641996 L 478.2828282828283 274.2388852479005 L 483.3333333333333 267.23396229290825 L 488.3838383838384 253.99742421240342 L 493.4343434343434 254.15117129749586 L 498.4848484848485 253.67964213317893 L 503.5353535353535 248.36250781119023 L 508.5858585858586 255.18281995397118 L 513.6363636363636 249.1003795095335 L 518.6868686868687 246.68729328923507 L 523.7373737373737 241.71023151605678 L 528.7878787878788 242.82132569233818 L 533.8383838383838 246.07916355489175 L 538.8888888888889 226.46583652131505 L 543.939393939394 226.48755544039875 L 548.989898989899 216.43341055615676 L 554.040404040404 224.8174848729634 L 559.090909090909 211.78899117526026 L 564.1414141414141 218.58586974745091 L 569.1919191919192 215.52578835865938 L 574.2424242424242 211.66496471628236 L 579.2929292929293 208.50429043910324 L 584.3434343434344 210.9762463611285 L 589.3939393939394 212.56172745423788 L 594.4444444444445 212.85836216488093 L 599.4949494949494 205.6562542866288 L 604.5454545454545 205.3419015104175 L 609.5959595959596 206.43127676761523 L 614.6464646464647 204.68518998338695 L 619.6969696969697 196.07878252122362 L 624.7474747474747 191.99448263248541 L 629.7979797979798 195.9038880675497 L 634.8484848484848 207.1765786224871 L 639.8989898989898 207.90759171480397 L 644.9494949494949 178.57276218926708 L 650 173.794028440353" /><text  class="poloto_text" alignment-baseline="middle" text-anchor="start" font-size="large" x="675" y="150" >optimal_par</text><line  class="poloto1stroke poloto1legend" stroke="black" x1="680" x2="730" y1="131.25" y2="131.25" /><path  class="poloto1stroke" fill="none" stroke="black" d=" M 150 100 L 155.05050505050505 200.18194357653445 L 160.1010101010101 258.84188626907076 L 165.15151515151516 248.6431391077716 L 170.2020202020202 348.3009708737864 L 175.25252525252526 345.9558991632501 L 180.3030303030303 385.0499535138925 L 185.35353535353534 368.7127539589398 L 190.40404040404042 370.38168142537074 L 195.45454545454544 365.74126289798966 L 200.50505050505052 356.5781652466812 L 205.55555555555554 354.71548216000366 L 210.6060606060606 375.72510707046075 L 215.65656565656565 371.1275548307448 L 220.7070707070707 368.3200987639268 L 225.75757575757575 368.33095822346866 L 230.8080808080808 361.1345658502385 L 235.85858585858585 327.4353766898843 L 240.9090909090909 364.4381277529683 L 245.95959595959596 362.84807425584125 L 251.010101010101 356.775350169941 L 256.06060606060606 370.7686211153618 L 261.1111111111111 366.7329030193108 L 266.16161616161617 172.39430126045943 L 271.2121212121212 362.5400085351542 L 276.26262626262627 367.9577357455305 L 281.3131313131313 365.40176189968145 L 286.3636363636364 357.14228559235494 L 291.4141414141414 364.15178095136486 L 296.4646464646464 356.4118440505403 L 301.5151515151515 353.38777034338756 L 306.5656565656566 362.26966514761244 L 311.6161616161616 363.5808019996647 L 316.66666666666663 361.051119476917 L 321.7171717171717 344.36584566612305 L 326.7676767676768 348.336407004923 L 331.8181818181818 342.66262516956 L 336.86868686868684 348.4084223682005 L 341.9191919191919 347.3116169544741 L 346.969696969697 356.6244608373596 L 352.020202020202 340.8405221685388 L 357.07070707070704 362.3291063998415 L 362.1212121212121 357.7464144731829 L 367.1717171717172 331.0321440002439 L 372.22222222222223 336.0743625306732 L 377.27272727272725 339.96433524866256 L 382.32323232323233 357.73098260962337 L 387.37373737373736 344.90196003718887 L 392.4242424242424 357.12113822377347 L 397.47474747474746 345.49751566048377 L 402.52525252525254 343.32962460563016 L 407.57575757575756 348.1718004602887 L 412.62626262626264 344.4990169331362 L 417.67676767676767 347.5076587767295 L 422.72727272727275 354.6817606803737 L 427.77777777777777 339.3876407919404 L 432.8282828282828 350.3619819847282 L 437.8787878787879 340.1443736568563 L 442.9292929292929 336.17266921705203 L 447.979797979798 331.535108442182 L 453.030303030303 328.46302449284417 L 458.0808080808081 333.5532532654586 L 463.1313131313131 345.84959076984046 L 468.1818181818182 334.81295057231256 L 473.2323232323232 331.44194571032295 L 478.2828282828283 326.4637408361403 L 483.3333333333333 326.2494093978144 L 488.3838383838384 330.90297358674616 L 493.4343434343434 323.265915776318 L 498.4848484848485 336.96369511210014 L 503.5353535353535 321.6027038149091 L 508.5858585858586 318.2608480285318 L 513.6363636363636 319.365655149289 L 518.6868686868687 315.1561857005685 L 523.7373737373737 312.8259743030894 L 528.7878787878788 315.1281797259606 L 533.8383838383838 307.45568578439594 L 538.8888888888889 308.4130328755849 L 543.939393939394 312.7939674749661 L 548.989898989899 322.96242245964856 L 554.040404040404 318.52604746155373 L 559.090909090909 323.172753044459 L 564.1414141414141 358.0939171785219 L 569.1919191919192 354.9892548505586 L 574.2424242424242 362.11191720900456 L 579.2929292929293 348.4621481154075 L 584.3434343434344 360.99796528021216 L 589.3939393939394 351.9057398911768 L 594.4444444444445 360.237803112283 L 599.4949494949494 354.25138315221534 L 604.5454545454545 351.65597232171433 L 609.5959595959596 357.8001402203899 L 614.6464646464647 345.34948408041333 L 619.6969696969697 349.9476078706315 L 624.7474747474747 358.53972657023974 L 629.7979797979798 343.7451418207313 L 634.8484848484848 339.52195515995794 L 639.8989898989898 350.99926079468383 L 644.9494949494949 342.6186157808904 L 650 346.2793967474966" /><text  class="poloto_text" alignment-baseline="start" text-anchor="middle" font-size="x-large" x="400" y="37.5" >Bench of optimal with abspiral(1.5,n)</text><text  class="poloto_text" alignment-baseline="start" text-anchor="middle" font-size="x-large" x="400" y="481.25" >Number of Elements</text><text  class="poloto_text" alignment-baseline="start" text-anchor="middle" font-size="x-large" transform="rotate(-90,37.5,250)" x="37.5" y="250" >Time in Seconds</text><line  class="poloto_axis_lines" stroke="black" x1="150" x2="150" y1="400" y2="405" /><text  class="poloto_text" alignment-baseline="start" text-anchor="middle" x="150" y="430" > 0</text><line  class="poloto_axis_lines" stroke="black" x1="213.13131313131314" x2="213.13131313131314" y1="400" y2="405" /><text  class="poloto_text" alignment-baseline="start" text-anchor="middle" x="213.13131313131314" y="430" > 5000</text><line  class="poloto_axis_lines" stroke="black" x1="276.26262626262627" x2="276.26262626262627" y1="400" y2="405" /><text  class="poloto_text" alignment-baseline="start" text-anchor="middle" x="276.26262626262627" y="430" > 10000</text><line  class="poloto_axis_lines" stroke="black" x1="339.3939393939394" x2="339.3939393939394" y1="400" y2="405" /><text  class="poloto_text" alignment-baseline="start" text-anchor="middle" x="339.3939393939394" y="430" > 15000</text><line  class="poloto_axis_lines" stroke="black" x1="402.52525252525254" x2="402.52525252525254" y1="400" y2="405" /><text  class="poloto_text" alignment-baseline="start" text-anchor="middle" x="402.52525252525254" y="430" > 20000</text><line  class="poloto_axis_lines" stroke="black" x1="465.65656565656565" x2="465.65656565656565" y1="400" y2="405" /><text  class="poloto_text" alignment-baseline="start" text-anchor="middle" x="465.65656565656565" y="430" > 25000</text><line  class="poloto_axis_lines" stroke="black" x1="528.7878787878788" x2="528.7878787878788" y1="400" y2="405" /><text  class="poloto_text" alignment-baseline="start" text-anchor="middle" x="528.7878787878788" y="430" > 30000</text><line  class="poloto_axis_lines" stroke="black" x1="591.9191919191919" x2="591.9191919191919" y1="400" y2="405" /><text  class="poloto_text" alignment-baseline="start" text-anchor="middle" x="591.9191919191919" y="430" > 35000</text><line  class="poloto_axis_lines" stroke="black" x1="150" x2="144" y1="400" y2="400" /><text  class="poloto_text" alignment-baseline="middle" text-anchor="end" x="135" y="400" > 0e0</text><line  class="poloto_axis_lines" stroke="black" x1="150" x2="144" y1="342.84494977976254" y2="342.84494977976254" /><text  class="poloto_text" alignment-baseline="middle" text-anchor="end" x="135" y="342.84494977976254" > 0.0001</text><line  class="poloto_axis_lines" stroke="black" x1="150" x2="144" y1="285.6898995595251" y2="285.6898995595251" /><text  class="poloto_text" alignment-baseline="middle" text-anchor="end" x="135" y="285.6898995595251" > 0.0002</text><line  class="poloto_axis_lines" stroke="black" x1="150" x2="144" y1="228.53484933928763" y2="228.53484933928763" /><text  class="poloto_text" alignment-baseline="middle" text-anchor="end" x="135" y="228.53484933928763" > 0.0003</text><line  class="poloto_axis_lines" stroke="black" x1="150" x2="144" y1="171.37979911905018" y2="171.37979911905018" /><text  class="poloto_text" alignment-baseline="middle" text-anchor="end" x="135" y="171.37979911905018" > 0.0004</text><line  class="poloto_axis_lines" stroke="black" x1="150" x2="144" y1="114.22474889881272" y2="114.22474889881272" /><text  class="poloto_text" alignment-baseline="middle" text-anchor="end" x="135" y="114.22474889881272" > 0.0005</text><path  stroke="black" fill="none" class="poloto_axis_lines" style="stroke-dasharray:6.313131313131313;stroke-dashoffset:-0;" d=" M 150 400 L 650 400" /><path  stroke="black" fill="none" class="poloto_axis_lines" style="stroke-dasharray:14.288762555059364;stroke-dashoffset:-0;" d=" M 150 400 L 150 100" /></svg>