<svg class="poloto" width="800" height="500" viewBox="0 0 800 500" xmlns="http://www.w3.org/2000/svg"><style>.poloto {
                    font-family: "Arial";
                    stroke-width:2;
                    }
                    .poloto_text{fill: var(--poloto_fg_color,black);  }
                    .poloto_axis_lines{stroke: var(--poloto_fg_color,black);stoke-width:3;fill:none}
                    .poloto_background{fill: var(--poloto_bg_color,aliceblue); }
                    .poloto0stroke{stroke:  var(--poloto_color0,blue); }
                    .poloto1stroke{stroke:  var(--poloto_color1,red); }
                    .poloto2stroke{stroke:  var(--poloto_color2,green); }
                    .poloto3stroke{stroke:  var(--poloto_color3,gold); }
                    .poloto4stroke{stroke:  var(--poloto_color4,aqua); }
                    .poloto5stroke{stroke:  var(--poloto_color5,brown); }
                    .poloto6stroke{stroke:  var(--poloto_color6,lime); }
                    .poloto7stroke{stroke:  var(--poloto_color7,chocolate); }
                    .poloto0fill{fill:var(--poloto_color0,blue);}
                    .poloto1fill{fill:var(--poloto_color1,red);}
                    .poloto2fill{fill:var(--poloto_color2,green);}
                    .poloto3fill{fill:var(--poloto_color3,gold);}
                    .poloto4fill{fill:var(--poloto_color4,aqua);}
                    .poloto5fill{fill:var(--poloto_color5,brown);}
                    .poloto6fill{fill:var(--poloto_color6,lime);}
                    .poloto7fill{fill:var(--poloto_color7,chocolate);}</style><rect class="poloto_background" fill="white" x="0" y="0" width="800" height="500"/><line class="poloto_axis_lines" stroke="black" x1="150" x2="150" y1="400" y2="405"/><text class="poloto_text" alignment-baseline="start" text-anchor="middle" x="150" y="430">0</text><line class="poloto_axis_lines" stroke="black" x1="213.13131313131314" x2="213.13131313131314" y1="400" y2="405"/><text class="poloto_text" alignment-baseline="start" text-anchor="middle" x="213.13131313131314" y="430">5000</text><line class="poloto_axis_lines" stroke="black" x1="276.26262626262627" x2="276.26262626262627" y1="400" y2="405"/><text class="poloto_text" alignment-baseline="start" text-anchor="middle" x="276.26262626262627" y="430">10000</text><line class="poloto_axis_lines" stroke="black" x1="339.3939393939394" x2="339.3939393939394" y1="400" y2="405"/><text class="poloto_text" alignment-baseline="start" text-anchor="middle" x="339.3939393939394" y="430">15000</text><line class="poloto_axis_lines" stroke="black" x1="402.52525252525254" x2="402.52525252525254" y1="400" y2="405"/><text class="poloto_text" alignment-baseline="start" text-anchor="middle" x="402.52525252525254" y="430">20000</text><line class="poloto_axis_lines" stroke="black" x1="465.65656565656565" x2="465.65656565656565" y1="400" y2="405"/><text class="poloto_text" alignment-baseline="start" text-anchor="middle" x="465.65656565656565" y="430">25000</text><line class="poloto_axis_lines" stroke="black" x1="528.7878787878788" x2="528.7878787878788" y1="400" y2="405"/><text class="poloto_text" alignment-baseline="start" text-anchor="middle" x="528.7878787878788" y="430">30000</text><line class="poloto_axis_lines" stroke="black" x1="591.9191919191919" x2="591.9191919191919" y1="400" y2="405"/><text class="poloto_text" alignment-baseline="start" text-anchor="middle" x="591.9191919191919" y="430">35000</text><line class="poloto_axis_lines" stroke="black" x1="150" x2="144" y1="363.3145698286768" y2="363.3145698286768"/><text class="poloto_text" alignment-baseline="middle" text-anchor="end" x="135" y="363.3145698286768">0.0002</text><line class="poloto_axis_lines" stroke="black" x1="150" x2="144" y1="326.5394082631336" y2="326.5394082631336"/><text class="poloto_text" alignment-baseline="middle" text-anchor="end" x="135" y="326.5394082631336">0.0004</text><line class="poloto_axis_lines" stroke="black" x1="150" x2="144" y1="289.76424669759047" y2="289.76424669759047"/><text class="poloto_text" alignment-baseline="middle" text-anchor="end" x="135" y="289.76424669759047">0.0006</text><line class="poloto_axis_lines" stroke="black" x1="150" x2="144" y1="252.9890851320473" y2="252.9890851320473"/><text class="poloto_text" alignment-baseline="middle" text-anchor="end" x="135" y="252.9890851320473">0.0008</text><line class="poloto_axis_lines" stroke="black" x1="150" x2="144" y1="216.21392356650415" y2="216.21392356650415"/><text class="poloto_text" alignment-baseline="middle" text-anchor="end" x="135" y="216.21392356650415">0.0010</text><line class="poloto_axis_lines" stroke="black" x1="150" x2="144" y1="179.43876200096105" y2="179.43876200096105"/><text class="poloto_text" alignment-baseline="middle" text-anchor="end" x="135" y="179.43876200096105">0.0012</text><line class="poloto_axis_lines" stroke="black" x1="150" x2="144" y1="142.6636004354179" y2="142.6636004354179"/><text class="poloto_text" alignment-baseline="middle" text-anchor="end" x="135" y="142.6636004354179">0.0014</text><line class="poloto_axis_lines" stroke="black" x1="150" x2="144" y1="105.88843886987473" y2="105.88843886987473"/><text class="poloto_text" alignment-baseline="middle" text-anchor="end" x="135" y="105.88843886987473">0.0016</text><text class="poloto_text" alignment-baseline="middle" text-anchor="start" font-size="large" x="675" y="100">optimal</text><line class="poloto0stroke" stroke="black" x1="680" x2="730" y1="81.25" y2="81.25"/><polyline class="poloto0stroke" fill="none" stroke="black" points="150,400 155.05050505050505,397.5882849045317 160.1010101010101,394.79190161908775 165.15151515151516,392.20219474164224 170.2020202020202,389.4253022918281 175.25252525252526,387.96091535828816 180.3030303030303,393.3150111306156 185.35353535353534,392.4748825646507 190.40404040404042,391.28208019927234 195.45454545454544,390.35405899716585 200.50505050505052,388.72786135273753 205.55555555555554,387.87063233664475 210.6060606060606,386.97957017191163 215.65656565656565,385.80809740024125 220.7070707070707,384.5121407066715 225.75757575757575,383.4340768453776 230.8080808080808,382.16386276490374 235.85858585858585,381.2441159741495 240.9090909090909,379.97518902433046 245.95959595959596,379.17312275058595 251.010101010101,375.52612997813105 256.06060606060606,376.486697198223 261.1111111111111,375.3435413009581 266.16161616161617,374.26694844612683 271.2121212121212,373.2295211383629 276.26262626262627,372.08765237175277 281.3131313131313,370.6979190161909 286.3636363636364,369.76603642212 291.4141414141414,368.6466005040649 296.4646464646464,367.41518421904266 301.5151515151515,366.3207554108521 306.5656565656566,365.03270537701894 311.6161616161616,364.1359430622432 316.66666666666663,362.8721646350433 321.7171717171717,361.53649076698275 326.7676767676768,360.601298408371 331.8181818181818,358.7765148914888 336.86868686868684,358.21385491953595 341.9191919191919,357.0320851026272 346.969696969697,348.5984373008012 352.020202020202,354.56171362446185 357.07070707070704,353.7208495552657 362.1212121212121,351.8982725480774 367.1717171717172,349.0733885124202 372.22222222222223,348.6238121622814 377.27272727272725,346.08246462229454 382.32323232323233,346.5691838856145 387.37373737373736,335.5645845387414 392.4242424242424,335.8324915907464 397.47474747474746,342.6153023898952 402.52525252525254,341.22170764236887 407.57575757575756,340.150079434349 412.62626262626264,339.4548450049524 417.67676767676767,338.48949701385686 422.72727272727275,337.5543046552451 427.77777777777777,335.05745506075255 432.8282828282828,334.1036912455502 437.8787878787879,330.6698105343676 442.9292929292929,331.022668209589 447.979797979798,328.0740357552637 453.030303030303,327.72963636720243 458.0808080808081,324.3674672210726 463.1313131313131,325.61267419168195 468.1818181818182,322.833391356366 473.2323232323232,320.95123858744154 478.2828282828283,321.93938717870765 483.3333333333333,319.34011875925506 488.3838383838384,319.2680394425866 493.4343434343434,317.7141049906346 498.4848484848485,314.1255847250689 503.5353535353535,313.7927695129007 508.5858585858586,296.1015264143727 513.6363636363636,296.10649106118404 518.6868686868687,309.9319291759422 523.7373737373737,308.8224225515097 528.7878787878788,305.895671318316 533.8383838383838,304.9610305871277 538.8888888888889,288.1832825018878 543.939393939394,288.7407939512214 548.989898989899,285.28613527375427 554.040404040404,300.815366623844 559.090909090909,298.4474139706387 564.1414141414141,297.30297094271896 569.1919191919192,290.46481352541406 574.2424242424242,289.55352502181995 579.2929292929293,290.38298879093077 584.3434343434344,289.4564385952869 589.3939393939394,286.020719126026 594.4444444444445,278.5132537682282 599.4949494949494,280.7670195447725 604.5454545454545,278.0752615939826 609.5959595959596,277.82886801149346 614.6464646464647,270.8005830088947 619.6969696969697,270.97342626825275 624.7474747474747,269.55353728020714 629.7979797979798,265.5911974973277 634.8484848484848,267.3207333457551 639.8989898989898,264.75787233625243 644.9494949494949,263.05040158476424 650,262.0521398240676 "/><text class="poloto_text" alignment-baseline="middle" text-anchor="start" font-size="large" x="675" y="150">optimal_par</text><line class="poloto1stroke" stroke="black" x1="680" x2="730" y1="131.25" y2="131.25"/><polyline class="poloto1stroke" fill="none" stroke="black" points="150,362.8784164125094 155.05050505050505,366.4783369781604 160.1010101010101,367.26054466465956 165.15151515151516,364.1072584362221 170.2020202020202,342.74015406341016 175.25252525252526,353.2931544262584 180.3030303030303,383.6771606633258 185.35353535353534,367.0159898402487 190.40404040404042,363.48134518637653 195.45454545454544,364.7311490521815 200.50505050505052,384.223455688382 205.55555555555554,367.80334604936695 210.6060606060606,378.031070108168 215.65656565656565,371.0355149993626 220.7070707070707,379.47633395769384 225.75757575757575,376.3875881378039 230.8080808080808,379.18305204420864 235.85858585858585,366.06498416216374 240.9090909090909,375.49928411018817 245.95959595959596,367.74947043767344 251.010101010101,365.8013062537388 256.06060606060606,374.90058447990117 261.1111111111111,372.2706088005413 266.16161616161617,377.14147894989753 271.2121212121212,376.0578988143688 276.26262626262627,361.54016828313934 281.3131313131313,373.9534401937806 286.3636363636364,365.34492649871044 291.4141414141414,379.9922894744584 296.4646464646464,375.3792132076767 301.5151515151515,373.73444410665775 306.5656565656566,360.67944562669777 311.6161616161616,376.7216904806269 316.66666666666663,371.67338017671693 321.7171717171717,360.83390130527306 326.7676767676768,364.8716301693619 331.8181818181818,370.37337821537494 336.86868686868684,340.95747810652045 341.9191919191919,353.7077943729099 346.969696969697,361.8172691255357 352.020202020202,375.7028346294535 357.07070707070704,372.057496739269 362.1212121212121,374.402281040688 367.1717171717172,355.97461533181 372.22222222222223,375.8105858528405 377.27272727272725,372.5466063880907 382.32323232323233,374.7806974531975 387.37373737373736,317.13324131370683 392.4242424242424,380.41244569534473 397.47474747474746,371.0059109943023 402.52525252525254,363.30041139147403 407.57575757575756,359.5237861745006 412.62626262626264,362.84807690421786 417.67676767676767,371.58603916799876 422.72727272727275,369.04892077159195 427.77777777777777,369.02630404722913 432.8282828282828,369.4962906120368 437.8787878787879,369.2465872650067 442.9292929292929,368.4005746731914 447.979797979798,377.0499087975993 453.030303030303,366.30255170587714 458.0808080808081,352.5000980670975 463.1313131313131,336.8355341224466 468.1818181818182,362.7541163664179 473.2323232323232,367.95338870855437 478.2828282828283,366.8409400711967 483.3333333333333,356.8892135999451 488.3838383838384,367.27617410832494 493.4343434343434,360.38671534063604 498.4848484848485,365.2862701160134 503.5353535353535,369.15207509978325 508.5858585858586,320.0241367643742 513.6363636363636,362.48381892891115 518.6868686868687,358.41997970011084 523.7373737373737,356.58379588314324 528.7878787878788,349.4150297633641 533.8383838383838,355.0528459071697 538.8888888888889,327.2550529071991 543.939393939394,329.5134155789391 548.989898989899,349.09968275293954 554.040404040404,361.66318119857607 559.090909090909,360.62759264889036 564.1414141414141,359.7422306341999 569.1919191919192,363.1354747918526 574.2424242424242,363.4162531504055 579.2929292929293,368.5815084680939 584.3434343434344,374.04078120249875 589.3939393939394,374.86472869737474 594.4444444444445,376.94804160006277 599.4949494949494,357.61386815859413 604.5454545454545,350.6517784468133 609.5959595959596,100 614.6464646464647,375.48420629394633 619.6969696969697,374.6069348148003 624.7474747474747,372.8573565033196 629.7979797979798,373.9032420982436 634.8484848484848,373.9549112002432 639.8989898989898,373.48731502093733 644.9494949494949,374.92467221072656 650,363.31107618832806 "/><text class="poloto_text" alignment-baseline="start" text-anchor="middle" font-size="x-large" x="400" y="37.5">Bench of optimal with abspiral(0.2,n)</text><text class="poloto_text" alignment-baseline="start" text-anchor="middle" font-size="x-large" x="400" y="481.25">Number of Elements</text><text class="poloto_text" alignment-baseline="start" text-anchor="middle" font-size="x-large" transform="rotate(-90,37.5,250)" x="37.5" y="250">Time in Seconds</text><path stroke="black" fill="none" class="poloto_axis_lines" d=" M 150 100 L 150 400 L 650 400"/></svg>