<svg class="poloto" width="800" height="500" viewBox="0 0 800 500" xmlns="http://www.w3.org/2000/svg"><style>.poloto {
    font-family: "Arial";
    stroke-width:2;
    }
    .poloto_text{fill: var(--poloto_fg_color,black);  }
    .poloto_axis_lines{stroke: var(--poloto_fg_color,black);stoke-width:3;fill:none}
    .poloto_background{fill: var(--poloto_bg_color,aliceblue); }
    .poloto0stroke{stroke:  var(--poloto_color0,blue); }
    .poloto1stroke{stroke:  var(--poloto_color1,red); }
    .poloto2stroke{stroke:  var(--poloto_color2,green); }
    .poloto3stroke{stroke:  var(--poloto_color3,gold); }
    .poloto4stroke{stroke:  var(--poloto_color4,aqua); }
    .poloto5stroke{stroke:  var(--poloto_color5,brown); }
    .poloto6stroke{stroke:  var(--poloto_color6,lime); }
    .poloto7stroke{stroke:  var(--poloto_color7,chocolate); }
    .poloto0fill{fill:var(--poloto_color0,blue);}
    .poloto1fill{fill:var(--poloto_color1,red);}
    .poloto2fill{fill:var(--poloto_color2,green);}
    .poloto3fill{fill:var(--poloto_color3,gold);}
    .poloto4fill{fill:var(--poloto_color4,aqua);}
    .poloto5fill{fill:var(--poloto_color5,brown);}
    .poloto6fill{fill:var(--poloto_color6,lime);}
    .poloto7fill{fill:var(--poloto_color7,chocolate);}</style><rect class="poloto_background" fill="white" x="0" y="0" width="800" height="500"/><line class="poloto_axis_lines" stroke="black" x1="205.55555555555554" x2="205.55555555555554" y1="400" y2="405"/><text class="poloto_text" alignment-baseline="start" text-anchor="middle" x="205.55555555555554" y="430">2</text><line class="poloto_axis_lines" stroke="black" x1="316.6666666666667" x2="316.6666666666667" y1="400" y2="405"/><text class="poloto_text" alignment-baseline="start" text-anchor="middle" x="316.6666666666667" y="430">4</text><line class="poloto_axis_lines" stroke="black" x1="427.77777777777777" x2="427.77777777777777" y1="400" y2="405"/><text class="poloto_text" alignment-baseline="start" text-anchor="middle" x="427.77777777777777" y="430">6</text><line class="poloto_axis_lines" stroke="black" x1="538.8888888888889" x2="538.8888888888889" y1="400" y2="405"/><text class="poloto_text" alignment-baseline="start" text-anchor="middle" x="538.8888888888889" y="430">8</text><line class="poloto_axis_lines" stroke="black" x1="650" x2="650" y1="400" y2="405"/><text class="poloto_text" alignment-baseline="start" text-anchor="middle" x="650" y="430">10</text><line class="poloto_axis_lines" stroke="black" x1="150" x2="144" y1="361.94499911007983" y2="361.94499911007983"/><text class="poloto_text" alignment-baseline="middle" text-anchor="end" x="135" y="361.94499911007983">0.005</text><line class="poloto_axis_lines" stroke="black" x1="150" x2="144" y1="315.32791251203537" y2="315.32791251203537"/><text class="poloto_text" alignment-baseline="middle" text-anchor="end" x="135" y="315.32791251203537">0.010</text><line class="poloto_axis_lines" stroke="black" x1="150" x2="144" y1="268.7108259139909" y2="268.7108259139909"/><text class="poloto_text" alignment-baseline="middle" text-anchor="end" x="135" y="268.7108259139909">0.015</text><line class="poloto_axis_lines" stroke="black" x1="150" x2="144" y1="222.09373931594644" y2="222.09373931594644"/><text class="poloto_text" alignment-baseline="middle" text-anchor="end" x="135" y="222.09373931594644">0.020</text><line class="poloto_axis_lines" stroke="black" x1="150" x2="144" y1="175.47665271790197" y2="175.47665271790197"/><text class="poloto_text" alignment-baseline="middle" text-anchor="end" x="135" y="175.47665271790197">0.025</text><line class="poloto_axis_lines" stroke="black" x1="150" x2="144" y1="128.85956611985745" y2="128.85956611985745"/><text class="poloto_text" alignment-baseline="middle" text-anchor="end" x="135" y="128.85956611985745">0.030</text><text class="poloto_text" alignment-baseline="middle" text-anchor="start" font-size="large" x="675" y="100">Rebal Par</text><circle class="poloto0fill" cx="685" cy="81.25" r="5"/><g class="poloto0fill"><circle cx="150" cy="375.5101610797487" r="5"/><circle cx="150" cy="397.08260016310385" r="5"/><circle cx="150" cy="384.0427381720564" r="5"/><circle cx="150" cy="397.2226285678271" r="5"/><circle cx="150" cy="398.0181025335361" r="5"/><circle cx="150" cy="398.375739498499" r="5"/><circle cx="150" cy="397.3275449829246" r="5"/><circle cx="150" cy="398.72756797447175" r="5"/><circle cx="150" cy="397.245321765583" r="5"/><circle cx="150" cy="398.9795519743688" r="5"/><circle cx="150" cy="398.8012975586352" r="5"/><circle cx="150" cy="396.9212491029707" r="5"/><circle cx="150" cy="398.6104099124335" r="5"/><circle cx="150" cy="398.9922038516715" r="5"/><circle cx="150" cy="397.0672165245265" r="5"/><circle cx="150" cy="398.38783197076253" r="5"/><circle cx="205.55555555555554" cy="398.65981470081016" r="5"/><circle cx="205.55555555555554" cy="398.70546215200693" r="5"/><circle cx="205.55555555555554" cy="397.2539738968556" r="5"/><circle cx="205.55555555555554" cy="398.287409442813" r="5"/><circle cx="205.55555555555554" cy="399.0417951083945" r="5"/><circle cx="205.55555555555554" cy="399.05393419774464" r="5"/><circle cx="205.55555555555554" cy="398.61992912151686" r="5"/><circle cx="205.55555555555554" cy="398.84511762003734" r="5"/><circle cx="205.55555555555554" cy="398.1723398262544" r="5"/><circle cx="205.55555555555554" cy="399.02540454074665" r="5"/><circle cx="205.55555555555554" cy="397.2461329028898" r="5"/><circle cx="205.55555555555554" cy="398.97839587062117" r="5"/><circle cx="205.55555555555554" cy="399.10648097775794" r="5"/><circle cx="205.55555555555554" cy="397.96961144005684" r="5"/><circle cx="205.55555555555554" cy="398.4226829047032" r="5"/><circle cx="205.55555555555554" cy="397.43668490606797" r="5"/><circle cx="261.1111111111111" cy="398.52261129153476" r="5"/><circle cx="261.1111111111111" cy="397.4295618152358" r="5"/><circle cx="261.1111111111111" cy="396.26155206368713" r="5"/><circle cx="261.1111111111111" cy="397.4701093571588" r="5"/><circle cx="261.1111111111111" cy="389.329330230873" r="5"/><circle cx="261.1111111111111" cy="390.8251233651271" r="5"/><circle cx="261.1111111111111" cy="399.1111893035044" r="5"/><circle cx="261.1111111111111" cy="398.8658529001562" r="5"/><circle cx="261.1111111111111" cy="399.25647611559583" r="5"/><circle cx="261.1111111111111" cy="397.858998416977" r="5"/><circle cx="261.1111111111111" cy="399.10956702889075" r="5"/><circle cx="261.1111111111111" cy="398.49335440798586" r="5"/><circle cx="261.1111111111111" cy="396.66903201764063" r="5"/><circle cx="261.1111111111111" cy="391.8127529617933" r="5"/><circle cx="261.1111111111111" cy="399.5715796507466" r="5"/><circle cx="261.1111111111111" cy="399.08656615836327" r="5"/><circle cx="316.6666666666667" cy="399.9069709419849" r="5"/><circle cx="316.6666666666667" cy="399.6471552715394" r="5"/><circle cx="316.6666666666667" cy="399.40963189190506" r="5"/><circle cx="316.6666666666667" cy="399.7832398707364" r="5"/><circle cx="316.6666666666667" cy="399.2827495056025" r="5"/><circle cx="316.6666666666667" cy="397.5386271510406" r="5"/><circle cx="316.6666666666667" cy="399.15292091942695" r="5"/><circle cx="316.6666666666667" cy="399.21934094441184" r="5"/><circle cx="316.6666666666667" cy="398.74402380604084" r="5"/><circle cx="316.6666666666667" cy="397.54085544777996" r="5"/><circle cx="316.6666666666667" cy="399.20337925396063" r="5"/><circle cx="316.6666666666667" cy="399.3506239836892" r="5"/><circle cx="316.6666666666667" cy="399.1694979554212" r="5"/><circle cx="316.6666666666667" cy="399.6556768749695" r="5"/><circle cx="316.6666666666667" cy="399.1386747377626" r="5"/><circle cx="316.6666666666667" cy="398.2953529943693" r="5"/><circle cx="372.22222222222223" cy="399.5168138974113" r="5"/><circle cx="372.22222222222223" cy="399.67009087814563" r="5"/><circle cx="372.22222222222223" cy="399.5827770749475" r="5"/><circle cx="372.22222222222223" cy="399.51272091720796" r="5"/><circle cx="372.22222222222223" cy="400" r="5"/><circle cx="372.22222222222223" cy="399.5286266671552" r="5"/><circle cx="372.22222222222223" cy="399.43183094854305" r="5"/><circle cx="372.22222222222223" cy="399.40800961729144" r="5"/><circle cx="372.22222222222223" cy="398.79637479429044" r="5"/><circle cx="372.22222222222223" cy="399.30437983378397" r="5"/><circle cx="372.22222222222223" cy="399.5610908062621" r="5"/><circle cx="372.22222222222223" cy="399.4936172351201" r="5"/><circle cx="372.22222222222223" cy="399.4187408706263" r="5"/><circle cx="372.22222222222223" cy="399.1202703119737" r="5"/><circle cx="372.22222222222223" cy="399.05507165465764" r="5"/><circle cx="372.22222222222223" cy="399.1218086758314" r="5"/><circle cx="427.77777777777777" cy="398.30352963135863" r="5"/><circle cx="427.77777777777777" cy="398.8982424519245" r="5"/><circle cx="427.77777777777777" cy="398.65435117826087" r="5"/><circle cx="427.77777777777777" cy="398.89634979820863" r="5"/><circle cx="427.77777777777777" cy="399.3869853112357" r="5"/><circle cx="427.77777777777777" cy="398.09990619709833" r="5"/><circle cx="427.77777777777777" cy="399.2771834254627" r="5"/><circle cx="427.77777777777777" cy="399.04168322738667" r="5"/><circle cx="427.77777777777777" cy="399.0716580140692" r="5"/><circle cx="427.77777777777777" cy="398.8214081697936" r="5"/><circle cx="427.77777777777777" cy="399.2768104887699" r="5"/><circle cx="427.77777777777777" cy="398.6368884176212" r="5"/><circle cx="427.77777777777777" cy="399.5156018531597" r="5"/><circle cx="427.77777777777777" cy="398.9676832641209" r="5"/><circle cx="427.77777777777777" cy="399.286730604798" r="5"/><circle cx="427.77777777777777" cy="398.6928941854601" r="5"/><circle cx="483.33333333333337" cy="399.2458101261822" r="5"/><circle cx="483.33333333333337" cy="398.79546109939315" r="5"/><circle cx="483.33333333333337" cy="397.2427578258201" r="5"/><circle cx="483.33333333333337" cy="398.8198884527705" r="5"/><circle cx="483.33333333333337" cy="399.058232293129" r="5"/><circle cx="483.33333333333337" cy="396.6286150035601" r="5"/><circle cx="483.33333333333337" cy="399.02113441561426" r="5"/><circle cx="483.33333333333337" cy="399.0113634742633" r="5"/><circle cx="483.33333333333337" cy="396.919244568247" r="5"/><circle cx="483.33333333333337" cy="399.115263636873" r="5"/><circle cx="483.33333333333337" cy="398.9860317494059" r="5"/><circle cx="483.33333333333337" cy="397.1740535635919" r="5"/><circle cx="483.33333333333337" cy="399.0183467138357" r="5"/><circle cx="483.33333333333337" cy="396.5575892104194" r="5"/><circle cx="483.33333333333337" cy="398.83112317064064" r="5"/><circle cx="483.33333333333337" cy="398.9345385155497" r="5"/><circle cx="538.8888888888889" cy="398.4594264923598" r="5"/><circle cx="538.8888888888889" cy="398.4624193093194" r="5"/><circle cx="538.8888888888889" cy="398.55528986924" r="5"/><circle cx="538.8888888888889" cy="396.74956769644746" r="5"/><circle cx="538.8888888888889" cy="396.8206960471787" r="5"/><circle cx="538.8888888888889" cy="398.81857385092843" r="5"/><circle cx="538.8888888888889" cy="398.5365964175142" r="5"/><circle cx="538.8888888888889" cy="398.82327285325755" r="5"/><circle cx="538.8888888888889" cy="398.55941081969524" r="5"/><circle cx="538.8888888888889" cy="398.6350703512439" r="5"/><circle cx="538.8888888888889" cy="396.86439490415574" r="5"/><circle cx="538.8888888888889" cy="398.332506812388" r="5"/><circle cx="538.8888888888889" cy="398.4464016783643" r="5"/><circle cx="538.8888888888889" cy="396.68410798344644" r="5"/><circle cx="538.8888888888889" cy="396.76274168512003" r="5"/><circle cx="538.8888888888889" cy="398.55593318503503" r="5"/><circle cx="594.4444444444445" cy="398.13575473669226" r="5"/><circle cx="594.4444444444445" cy="398.5865233172607" r="5"/><circle cx="594.4444444444445" cy="398.4007076100809" r="5"/><circle cx="594.4444444444445" cy="398.67739866587493" r="5"/><circle cx="594.4444444444445" cy="398.3939481325242" r="5"/><circle cx="594.4444444444445" cy="398.4809076458642" r="5"/><circle cx="594.4444444444445" cy="398.2305459205807" r="5"/><circle cx="594.4444444444445" cy="398.3398629886531" r="5"/><circle cx="594.4444444444445" cy="398.34720984150096" r="5"/><circle cx="594.4444444444445" cy="398.3588361428985" r="5"/><circle cx="594.4444444444445" cy="398.4345422915338" r="5"/><circle cx="594.4444444444445" cy="397.56118982095404" r="5"/><circle cx="594.4444444444445" cy="398.3910205794858" r="5"/><circle cx="594.4444444444445" cy="398.2007203085753" r="5"/><circle cx="594.4444444444445" cy="398.5929564752112" r="5"/><circle cx="594.4444444444445" cy="398.38029864956826" r="5"/><circle cx="650" cy="391.27070812566586" r="5"/><circle cx="650" cy="391.3491646824104" r="5"/><circle cx="650" cy="391.27079203642177" r="5"/><circle cx="650" cy="391.3231709949233" r="5"/><circle cx="650" cy="391.37068312958405" r="5"/><circle cx="650" cy="391.4150719194427" r="5"/><circle cx="650" cy="391.32758097131546" r="5"/><circle cx="650" cy="391.22810010851526" r="5"/><circle cx="650" cy="391.40060197576264" r="5"/><circle cx="650" cy="391.2282492831924" r="5"/><circle cx="650" cy="391.39915684607814" r="5"/><circle cx="650" cy="391.3370908569815" r="5"/><circle cx="650" cy="391.37006778404094" r="5"/><circle cx="650" cy="391.3861786491692" r="5"/><circle cx="650" cy="391.36564848423143" r="5"/><circle cx="650" cy="391.41914625281134" r="5"/></g><text class="poloto_text" alignment-baseline="middle" text-anchor="start" font-size="large" x="675" y="150">Query Par</text><circle class="poloto1fill" cx="685" cy="131.25" r="5"/><g class="poloto1fill"><circle cx="150" cy="251.39496503765116" r="5"/><circle cx="150" cy="251.6526736157825" r="5"/><circle cx="150" cy="235.15109203788546" r="5"/><circle cx="150" cy="247.84788956524062" r="5"/><circle cx="150" cy="242.97434354051734" r="5"/><circle cx="150" cy="242.0661308125796" r="5"/><circle cx="150" cy="245.85761967002372" r="5"/><circle cx="150" cy="245.4905101130641" r="5"/><circle cx="150" cy="250.45120211947378" r="5"/><circle cx="150" cy="251.0586693749329" r="5"/><circle cx="150" cy="247.23360689172085" r="5"/><circle cx="150" cy="250.70958198365207" r="5"/><circle cx="150" cy="247.98850534525496" r="5"/><circle cx="150" cy="253.05457993762818" r="5"/><circle cx="150" cy="246.72642231295146" r="5"/><circle cx="150" cy="245.89375723555452" r="5"/><circle cx="205.55555555555554" cy="247.1800438592197" r="5"/><circle cx="205.55555555555554" cy="250.73390677943894" r="5"/><circle cx="205.55555555555554" cy="247.15628779188935" r="5"/><circle cx="205.55555555555554" cy="252.18507803840143" r="5"/><circle cx="205.55555555555554" cy="252.33508249965664" r="5"/><circle cx="205.55555555555554" cy="250.6508164842866" r="5"/><circle cx="205.55555555555554" cy="250.31311298555303" r="5"/><circle cx="205.55555555555554" cy="246.03837276159896" r="5"/><circle cx="205.55555555555554" cy="247.92334398160818" r="5"/><circle cx="205.55555555555554" cy="251.78107571910814" r="5"/><circle cx="205.55555555555554" cy="248.2959543547864" r="5"/><circle cx="205.55555555555554" cy="251.2509089166459" r="5"/><circle cx="205.55555555555554" cy="246.03784132681173" r="5"/><circle cx="205.55555555555554" cy="247.2166009785299" r="5"/><circle cx="205.55555555555554" cy="250.7770555547941" r="5"/><circle cx="205.55555555555554" cy="248.75967316201175" r="5"/><circle cx="261.1111111111111" cy="250.72919845369256" r="5"/><circle cx="261.1111111111111" cy="250.75816631130456" r="5"/><circle cx="261.1111111111111" cy="245.49421150973998" r="5"/><circle cx="261.1111111111111" cy="247.0436236169992" r="5"/><circle cx="261.1111111111111" cy="245.32220378361052" r="5"/><circle cx="261.1111111111111" cy="245.6128053780454" r="5"/><circle cx="261.1111111111111" cy="247.74203148499376" r="5"/><circle cx="261.1111111111111" cy="241.6427824023481" r="5"/><circle cx="261.1111111111111" cy="246.68087741934517" r="5"/><circle cx="261.1111111111111" cy="247.18560993935952" r="5"/><circle cx="261.1111111111111" cy="251.60587938425536" r="5"/><circle cx="261.1111111111111" cy="245.39434838682965" r="5"/><circle cx="261.1111111111111" cy="248.23753382186172" r="5"/><circle cx="261.1111111111111" cy="251.06612810878858" r="5"/><circle cx="261.1111111111111" cy="251.9074639642928" r="5"/><circle cx="261.1111111111111" cy="246.46116176679126" r="5"/><circle cx="316.6666666666667" cy="251.60457410583064" r="5"/><circle cx="316.6666666666667" cy="246.03317029473462" r="5"/><circle cx="316.6666666666667" cy="246.1603417069741" r="5"/><circle cx="316.6666666666667" cy="252.27634497054308" r="5"/><circle cx="316.6666666666667" cy="252.00277725955112" r="5"/><circle cx="316.6666666666667" cy="251.92504792935756" r="5"/><circle cx="316.6666666666667" cy="247.04339053156622" r="5"/><circle cx="316.6666666666667" cy="252.82745216830517" r="5"/><circle cx="316.6666666666667" cy="248.43509703486424" r="5"/><circle cx="316.6666666666667" cy="246.02421049069048" r="5"/><circle cx="316.6666666666667" cy="246.03413060671855" r="5"/><circle cx="316.6666666666667" cy="250.43388853351124" r="5"/><circle cx="316.6666666666667" cy="252.84565147891306" r="5"/><circle cx="316.6666666666667" cy="251.7216296102783" r="5"/><circle cx="316.6666666666667" cy="247.2591530551766" r="5"/><circle cx="316.6666666666667" cy="251.90504919920699" r="5"/><circle cx="372.22222222222223" cy="244.85144579630884" r="5"/><circle cx="372.22222222222223" cy="236.00012903609567" r="5"/><circle cx="372.22222222222223" cy="248.67950109648046" r="5"/><circle cx="372.22222222222223" cy="247.9349329893365" r="5"/><circle cx="372.22222222222223" cy="246.5369797964343" r="5"/><circle cx="372.22222222222223" cy="246.6294867430795" r="5"/><circle cx="372.22222222222223" cy="243.81305019233739" r="5"/><circle cx="372.22222222222223" cy="247.00191064791127" r="5"/><circle cx="372.22222222222223" cy="246.8674762935798" r="5"/><circle cx="372.22222222222223" cy="251.73635128622598" r="5"/><circle cx="372.22222222222223" cy="247.21319793120824" r="5"/><circle cx="372.22222222222223" cy="250.7183832896018" r="5"/><circle cx="372.22222222222223" cy="250.83961568500865" r="5"/><circle cx="372.22222222222223" cy="247.74097793883666" r="5"/><circle cx="372.22222222222223" cy="254.02985600634582" r="5"/><circle cx="372.22222222222223" cy="246.13877664271385" r="5"/><circle cx="427.77777777777777" cy="248.74826129921257" r="5"/><circle cx="427.77777777777777" cy="250.12390355446888" r="5"/><circle cx="427.77777777777777" cy="245.13659319161175" r="5"/><circle cx="427.77777777777777" cy="249.36626401624284" r="5"/><circle cx="427.77777777777777" cy="252.13620468481204" r="5"/><circle cx="427.77777777777777" cy="244.8636035324936" r="5"/><circle cx="427.77777777777777" cy="243.79568066587098" r="5"/><circle cx="427.77777777777777" cy="247.62809932534816" r="5"/><circle cx="427.77777777777777" cy="244.148683892426" r="5"/><circle cx="427.77777777777777" cy="252.84126947277284" r="5"/><circle cx="427.77777777777777" cy="246.0704453171784" r="5"/><circle cx="427.77777777777777" cy="247.9385504752565" r="5"/><circle cx="427.77777777777777" cy="252.69010890777002" r="5"/><circle cx="427.77777777777777" cy="245.41593209792455" r="5"/><circle cx="427.77777777777777" cy="252.28593876696496" r="5"/><circle cx="427.77777777777777" cy="244.5079524554198" r="5"/><circle cx="483.33333333333337" cy="245.44396761380463" r="5"/><circle cx="483.33333333333337" cy="242.24607276684804" r="5"/><circle cx="483.33333333333337" cy="242.26629525901427" r="5"/><circle cx="483.33333333333337" cy="241.61598690097154" r="5"/><circle cx="483.33333333333337" cy="239.67735009087065" r="5"/><circle cx="483.33333333333337" cy="238.21710714685616" r="5"/><circle cx="483.33333333333337" cy="240.87174511343378" r="5"/><circle cx="483.33333333333337" cy="242.01626917675432" r="5"/><circle cx="483.33333333333337" cy="241.57989595252735" r="5"/><circle cx="483.33333333333337" cy="240.52724484347422" r="5"/><circle cx="483.33333333333337" cy="242.56892406179148" r="5"/><circle cx="483.33333333333337" cy="240.99507527773756" r="5"/><circle cx="483.33333333333337" cy="241.11703489969534" r="5"/><circle cx="483.33333333333337" cy="241.9113154679875" r="5"/><circle cx="483.33333333333337" cy="242.08667030093468" r="5"/><circle cx="483.33333333333337" cy="241.81572247020955" r="5"/><circle cx="538.8888888888889" cy="242.02408220046817" r="5"/><circle cx="538.8888888888889" cy="244.76054247744264" r="5"/><circle cx="538.8888888888889" cy="240.7342526782215" r="5"/><circle cx="538.8888888888889" cy="244.02980099818365" r="5"/><circle cx="538.8888888888889" cy="245.3039392090814" r="5"/><circle cx="538.8888888888889" cy="240.52483007838845" r="5"/><circle cx="538.8888888888889" cy="242.5107459377171" r="5"/><circle cx="538.8888888888889" cy="245.46961633485085" r="5"/><circle cx="538.8888888888889" cy="242.6857091871369" r="5"/><circle cx="538.8888888888889" cy="238.08712006258617" r="5"/><circle cx="538.8888888888889" cy="241.00996477519698" r="5"/><circle cx="538.8888888888889" cy="241.4693668402034" r="5"/><circle cx="538.8888888888889" cy="244.50431632266518" r="5"/><circle cx="538.8888888888889" cy="243.01677441273887" r="5"/><circle cx="538.8888888888889" cy="242.93045821519394" r="5"/><circle cx="538.8888888888889" cy="246.41464723778375" r="5"/><circle cx="594.4444444444445" cy="182.9050108799618" r="5"/><circle cx="594.4444444444445" cy="201.5527219204076" r="5"/><circle cx="594.4444444444445" cy="183.76586997133325" r="5"/><circle cx="594.4444444444445" cy="184.44399940665767" r="5"/><circle cx="594.4444444444445" cy="184.85973990835635" r="5"/><circle cx="594.4444444444445" cy="188.67808953109827" r="5"/><circle cx="594.4444444444445" cy="183.49730893544188" r="5"/><circle cx="594.4444444444445" cy="200.25419364980175" r="5"/><circle cx="594.4444444444445" cy="196.11850287175233" r="5"/><circle cx="594.4444444444445" cy="180.94131272410576" r="5"/><circle cx="594.4444444444445" cy="200.3454046414395" r="5"/><circle cx="594.4444444444445" cy="201.81757223620573" r="5"/><circle cx="594.4444444444445" cy="183.56009282767215" r="5"/><circle cx="594.4444444444445" cy="178.42122099286743" r="5"/><circle cx="594.4444444444445" cy="183.34366834143205" r="5"/><circle cx="594.4444444444445" cy="198.49516315094579" r="5"/><circle cx="650" cy="100" r="5"/><circle cx="650" cy="103.40187257107493" r="5"/><circle cx="650" cy="104.91852218987304" r="5"/><circle cx="650" cy="103.72600117419114" r="5"/><circle cx="650" cy="104.4959196530271" r="5"/><circle cx="650" cy="104.377335108139" r="5"/><circle cx="650" cy="103.87316199316382" r="5"/><circle cx="650" cy="104.58122892150152" r="5"/><circle cx="650" cy="105.22582202472734" r="5"/><circle cx="650" cy="103.54343933965583" r="5"/><circle cx="650" cy="105.5810721948564" r="5"/><circle cx="650" cy="106.09373894300973" r="5"/><circle cx="650" cy="105.09294468108828" r="5"/><circle cx="650" cy="104.59711602461414" r="5"/><circle cx="650" cy="105.39494881490504" r="5"/><circle cx="650" cy="105.004577331733" r="5"/></g><text class="poloto_text" alignment-baseline="middle" text-anchor="start" font-size="large" x="675" y="200">Rebal</text><circle class="poloto2fill" cx="685" cy="181.25" r="5"/><g class="poloto2fill"><circle cx="650" cy="391.18482080531766" r="5"/><circle cx="650" cy="391.2761902950498" r="5"/><circle cx="650" cy="391.3416313612161" r="5"/><circle cx="650" cy="391.3393844176421" r="5"/><circle cx="650" cy="391.33879704235096" r="5"/><circle cx="650" cy="391.33284870210105" r="5"/><circle cx="650" cy="391.3161784319336" r="5"/><circle cx="650" cy="391.3191246318066" r="5"/><circle cx="650" cy="391.344633501593" r="5"/><circle cx="650" cy="391.44391857262957" r="5"/><circle cx="650" cy="391.02701264376594" r="5"/><circle cx="650" cy="391.3351702330136" r="5"/><circle cx="650" cy="391.1801870669098" r="5"/><circle cx="650" cy="391.26218652223577" r="5"/><circle cx="650" cy="391.3566980036046" r="5"/><circle cx="650" cy="391.16314386004956" r="5"/><circle cx="650" cy="391.31907801472" r="5"/><circle cx="650" cy="391.3688277695374" r="5"/><circle cx="650" cy="391.20569593669626" r="5"/><circle cx="650" cy="391.15506045723345" r="5"/><circle cx="650" cy="391.3264341909852" r="5"/><circle cx="650" cy="391.259277616032" r="5"/><circle cx="650" cy="391.3037409932292" r="5"/><circle cx="650" cy="391.268116215651" r="5"/><circle cx="650" cy="391.30459874762266" r="5"/><circle cx="650" cy="391.1350803739175" r="5"/><circle cx="650" cy="391.27232107686217" r="5"/><circle cx="650" cy="391.3345735343052" r="5"/><circle cx="650" cy="391.1519091421794" r="5"/><circle cx="650" cy="391.3354779057852" r="5"/><circle cx="650" cy="391.18400966801084" r="5"/><circle cx="650" cy="391.3244110094268" r="5"/><circle cx="650" cy="391.3130271168796" r="5"/><circle cx="650" cy="391.4457832560935" r="5"/><circle cx="650" cy="391.27088527059493" r="5"/><circle cx="650" cy="391.2964034637987" r="5"/><circle cx="650" cy="391.21268849968595" r="5"/><circle cx="650" cy="391.23802954796065" r="5"/><circle cx="650" cy="391.3510853063782" r="5"/><circle cx="650" cy="391.23860759983444" r="5"/><circle cx="650" cy="390.1140449729952" r="5"/><circle cx="650" cy="391.26855441626503" r="5"/><circle cx="650" cy="390.9074677868939" r="5"/><circle cx="650" cy="391.2527512239083" r="5"/><circle cx="650" cy="390.9657577919761" r="5"/><circle cx="650" cy="391.189762216497" r="5"/><circle cx="650" cy="391.2998158345377" r="5"/><circle cx="650" cy="391.10684906627375" r="5"/><circle cx="650" cy="391.0720727196716" r="5"/><circle cx="650" cy="391.2297969704674" r="5"/><circle cx="650" cy="391.19192524931515" r="5"/><circle cx="650" cy="391.26356638799905" r="5"/><circle cx="650" cy="391.1691201705514" r="5"/><circle cx="650" cy="391.2802832752531" r="5"/><circle cx="650" cy="391.3514489196537" r="5"/><circle cx="650" cy="391.3168403945633" r="5"/><circle cx="650" cy="391.2836676757401" r="5"/><circle cx="650" cy="391.1970344820063" r="5"/><circle cx="650" cy="391.294165843642" r="5"/><circle cx="650" cy="391.34164068463343" r="5"/><circle cx="650" cy="391.0450627796967" r="5"/><circle cx="650" cy="391.2791831120094" r="5"/><circle cx="650" cy="391.3238982214742" r="5"/><circle cx="650" cy="390.87677509707777" r="5"/><circle cx="650" cy="391.08878028350836" r="5"/><circle cx="650" cy="391.37069245300137" r="5"/><circle cx="650" cy="391.3182668774132" r="5"/><circle cx="650" cy="391.23096239763237" r="5"/><circle cx="650" cy="391.1440122077097" r="5"/><circle cx="650" cy="391.15485534205243" r="5"/><circle cx="650" cy="391.3456124604116" r="5"/><circle cx="650" cy="391.3146214212412" r="5"/><circle cx="650" cy="391.27550968558546" r="5"/><circle cx="650" cy="391.29252492219376" r="5"/><circle cx="650" cy="391.2544480858605" r="5"/><circle cx="650" cy="391.3365780690289" r="5"/><circle cx="650" cy="391.27277792431084" r="5"/><circle cx="650" cy="391.3235066379468" r="5"/><circle cx="650" cy="391.28605447057396" r="5"/><circle cx="650" cy="391.3277394694099" r="5"/><circle cx="650" cy="391.28163517076445" r="5"/><circle cx="650" cy="391.3200290032866" r="5"/><circle cx="650" cy="391.23082254637256" r="5"/><circle cx="650" cy="391.3218284228293" r="5"/><circle cx="650" cy="391.269048557383" r="5"/><circle cx="650" cy="391.3210359323571" r="5"/><circle cx="650" cy="391.3231709949233" r="5"/><circle cx="650" cy="386.08723306240415" r="5"/><circle cx="650" cy="386.1716006657293" r="5"/><circle cx="650" cy="391.26503948793555" r="5"/><circle cx="650" cy="387.7007156934837" r="5"/><circle cx="650" cy="387.0060931329209" r="5"/><circle cx="650" cy="387.8370333781137" r="5"/><circle cx="650" cy="387.72477011016827" r="5"/><circle cx="650" cy="391.193640758102" r="5"/><circle cx="650" cy="391.1969226009985" r="5"/><circle cx="650" cy="391.2057145835309" r="5"/><circle cx="650" cy="391.3102767087703" r="5"/><circle cx="650" cy="391.2619441133854" r="5"/><circle cx="650" cy="391.3654806627197" r="5"/></g><text class="poloto_text" alignment-baseline="middle" text-anchor="start" font-size="large" x="675" y="250">Query</text><circle class="poloto3fill" cx="685" cy="231.25" r="5"/><g class="poloto3fill"><circle cx="650" cy="384.32528433392713" r="5"/><circle cx="650" cy="384.8665460029997" r="5"/><circle cx="650" cy="384.96712702904364" r="5"/><circle cx="650" cy="384.95599486876404" r="5"/><circle cx="650" cy="387.3272475659121" r="5"/><circle cx="650" cy="385.1087404147112" r="5"/><circle cx="650" cy="385.13326100226175" r="5"/><circle cx="650" cy="385.0448843294892" r="5"/><circle cx="650" cy="384.88184573082117" r="5"/><circle cx="650" cy="384.9218804847916" r="5"/><circle cx="650" cy="384.941524925084" r="5"/><circle cx="650" cy="385.0874923466398" r="5"/><circle cx="650" cy="387.6167676439379" r="5"/><circle cx="650" cy="385.0467490129531" r="5"/><circle cx="650" cy="387.45306708264025" r="5"/><circle cx="650" cy="385.1216719945335" r="5"/><circle cx="650" cy="385.2381308002727" r="5"/><circle cx="650" cy="385.8972684345171" r="5"/><circle cx="650" cy="385.682242460875" r="5"/><circle cx="650" cy="385.8067380523437" r="5"/><circle cx="650" cy="385.29672847812645" r="5"/><circle cx="650" cy="387.2241678640265" r="5"/><circle cx="650" cy="385.6514938305549" r="5"/><circle cx="650" cy="385.1964085077675" r="5"/><circle cx="650" cy="387.2484833363961" r="5"/><circle cx="650" cy="387.6049082571074" r="5"/><circle cx="650" cy="384.81663775008786" r="5"/><circle cx="650" cy="387.29059721242874" r="5"/><circle cx="650" cy="385.203307836584" r="5"/><circle cx="650" cy="385.68451737470093" r="5"/><circle cx="650" cy="385.43764260749504" r="5"/><circle cx="650" cy="385.0001505731897" r="5"/><circle cx="650" cy="384.9731686034668" r="5"/><circle cx="650" cy="387.4535146066716" r="5"/><circle cx="650" cy="385.0594661541771" r="5"/><circle cx="650" cy="385.117951951023" r="5"/><circle cx="650" cy="387.2758941833157" r="5"/><circle cx="650" cy="385.2381587705247" r="5"/><circle cx="650" cy="387.2226388235861" r="5"/><circle cx="650" cy="385.1397687475509" r="5"/><circle cx="650" cy="385.1400391266531" r="5"/><circle cx="650" cy="385.4026797925465" r="5"/><circle cx="650" cy="387.63040780347654" r="5"/><circle cx="650" cy="384.1556074621276" r="5"/><circle cx="650" cy="387.4186636727309" r="5"/><circle cx="650" cy="385.1326176864667" r="5"/><circle cx="650" cy="387.41171772682776" r="5"/><circle cx="650" cy="384.6601814840475" r="5"/><circle cx="650" cy="384.86662991375556" r="5"/><circle cx="650" cy="385.5711819137638" r="5"/><circle cx="650" cy="385.43716711321173" r="5"/><circle cx="650" cy="387.3797756990908" r="5"/><circle cx="650" cy="385.19520578693323" r="5"/><circle cx="650" cy="384.9112331422126" r="5"/><circle cx="650" cy="384.9018631078064" r="5"/><circle cx="650" cy="387.50051395337977" r="5"/><circle cx="650" cy="385.1501643578622" r="5"/><circle cx="650" cy="387.12203915070756" r="5"/><circle cx="650" cy="385.25116493768553" r="5"/><circle cx="650" cy="385.0539373677065" r="5"/><circle cx="650" cy="384.91706960145467" r="5"/><circle cx="650" cy="385.1154346283467" r="5"/><circle cx="650" cy="386.2585135619827" r="5"/><circle cx="650" cy="385.2158198626269" r="5"/><circle cx="650" cy="387.1821192519151" r="5"/><circle cx="650" cy="385.2808973155178" r="5"/><circle cx="650" cy="387.4189433752505" r="5"/><circle cx="650" cy="385.1816588615679" r="5"/><circle cx="650" cy="385.5960567911725" r="5"/><circle cx="650" cy="385.5597980212166" r="5"/><circle cx="650" cy="385.13975942413356" r="5"/><circle cx="650" cy="387.43494235937095" r="5"/><circle cx="650" cy="385.241086323563" r="5"/><circle cx="650" cy="387.4989942363566" r="5"/><circle cx="650" cy="384.77289227602427" r="5"/><circle cx="650" cy="384.84598786781" r="5"/><circle cx="650" cy="385.1381278261026" r="5"/><circle cx="650" cy="387.1998803619089" r="5"/><circle cx="650" cy="384.9452169983426" r="5"/><circle cx="650" cy="386.7803079356919" r="5"/><circle cx="650" cy="385.2493561947255" r="5"/><circle cx="650" cy="385.74410333479057" r="5"/><circle cx="650" cy="384.9672482334688" r="5"/><circle cx="650" cy="387.43185630823814" r="5"/><circle cx="650" cy="385.18787758092003" r="5"/><circle cx="650" cy="385.11532274733884" r="5"/><circle cx="650" cy="382.15775762862984" r="5"/><circle cx="650" cy="381.97595099089745" r="5"/><circle cx="650" cy="383.136753740858" r="5"/><circle cx="650" cy="384.9296282445842" r="5"/><circle cx="650" cy="383.4478761768134" r="5"/><circle cx="650" cy="383.4256771201754" r="5"/><circle cx="650" cy="383.465133822272" r="5"/><circle cx="650" cy="386.41427989514136" r="5"/><circle cx="650" cy="384.81167769207383" r="5"/><circle cx="650" cy="387.1950228614854" r="5"/><circle cx="650" cy="384.91786209192685" r="5"/><circle cx="650" cy="387.05610394342324" r="5"/><circle cx="650" cy="384.9878809559971" r="5"/><circle cx="650" cy="387.3658931307019" r="5"/></g><text class="poloto_text" alignment-baseline="start" text-anchor="middle" font-size="x-large" x="400" y="37.5">Bench of differing parallel switch levels with abspiral(20,000,1.5)</text><text class="poloto_text" alignment-baseline="start" text-anchor="middle" font-size="x-large" x="400" y="481.25">Height at which to switch to sequential</text><text class="poloto_text" alignment-baseline="start" text-anchor="middle" font-size="x-large" transform="rotate(-90,37.5,250)" x="37.5" y="250">Time in Seconds</text><path stroke="black" fill="none" class="poloto_axis_lines" d=" M 150 100 L 150 400 L 650 400"/></svg>