<svg class="poloto" width="800" height="500" viewBox="0 0 800 500" xmlns="http://www.w3.org/2000/svg"><circle  r="1e5" class="poloto_background" /><text  class="poloto_text poloto_legend_text" x="675" y="100" >Rebal Par</text><line  class="poloto_scatter poloto_legend_icon poloto0stroke poloto0legend" stroke="black" x1="685" x2="685" y1="81.25" y2="81.25" /><path  class="poloto_scatter poloto0stroke" d=" M 150.00 336.18 h 0 M 152.51 313.40 h 0 M 155.03 335.70 h 0 M 157.54 347.54 h 0 M 160.05 350.03 h 0 M 162.56 331.61 h 0 M 165.08 326.88 h 0 M 167.59 318.28 h 0 M 170.10 348.47 h 0 M 172.61 348.35 h 0 M 175.13 350.50 h 0 M 177.64 344.37 h 0 M 180.15 349.03 h 0 M 182.66 347.51 h 0 M 185.18 349.74 h 0 M 187.69 349.44 h 0 M 190.20 336.59 h 0 M 192.71 349.15 h 0 M 195.23 347.31 h 0 M 197.74 336.37 h 0 M 200.25 331.80 h 0 M 202.76 336.17 h 0 M 205.28 322.11 h 0 M 207.79 335.20 h 0 M 210.30 195.99 h 0 M 212.81 316.77 h 0 M 215.33 349.27 h 0 M 217.84 332.68 h 0 M 220.35 348.84 h 0 M 222.86 345.48 h 0 M 225.38 349.95 h 0 M 227.89 349.87 h 0 M 230.40 348.74 h 0 M 232.91 350.57 h 0 M 235.43 349.47 h 0 M 237.94 350.17 h 0 M 240.45 349.25 h 0 M 242.96 344.97 h 0 M 245.48 345.87 h 0 M 247.99 348.48 h 0 M 250.50 347.55 h 0 M 253.02 344.46 h 0 M 255.53 347.09 h 0 M 258.04 335.67 h 0 M 260.55 326.46 h 0 M 263.07 317.11 h 0 M 265.58 331.68 h 0 M 268.09 332.17 h 0 M 270.60 331.64 h 0 M 273.12 324.85 h 0 M 275.63 325.52 h 0 M 278.14 322.69 h 0 M 280.65 330.90 h 0 M 283.17 329.60 h 0 M 285.68 265.50 h 0 M 288.19 298.76 h 0 M 290.70 290.89 h 0 M 293.22 264.93 h 0 M 295.73 247.99 h 0 M 298.24 287.85 h 0 M 300.75 258.65 h 0 M 303.27 306.66 h 0 M 305.78 286.60 h 0 M 308.29 324.24 h 0 M 310.80 282.00 h 0 M 313.32 268.07 h 0 M 315.83 327.12 h 0 M 318.34 322.86 h 0 M 320.85 326.92 h 0 M 323.37 319.63 h 0 M 325.88 270.37 h 0 M 328.39 274.93 h 0 M 330.90 256.22 h 0 M 333.42 265.97 h 0 M 335.93 259.56 h 0 M 338.44 279.55 h 0 M 340.95 268.84 h 0 M 343.47 242.21 h 0 M 345.98 246.88 h 0 M 348.49 290.39 h 0 M 351.01 258.11 h 0 M 353.52 272.87 h 0 M 356.03 295.55 h 0 M 358.54 270.90 h 0 M 361.06 288.44 h 0 M 363.57 265.19 h 0 M 366.08 285.68 h 0 M 368.59 304.80 h 0 M 371.11 303.70 h 0 M 373.62 244.68 h 0 M 376.13 264.06 h 0 M 378.64 254.47 h 0 M 381.16 245.67 h 0 M 383.67 238.46 h 0 M 386.18 232.31 h 0 M 388.69 260.30 h 0 M 391.21 248.78 h 0 M 393.72 257.40 h 0 M 396.23 284.47 h 0 M 398.74 284.48 h 0 M 401.26 235.24 h 0 M 403.77 238.18 h 0 M 406.28 244.83 h 0 M 408.79 247.51 h 0 M 411.31 233.57 h 0 M 413.82 259.07 h 0 M 416.33 249.85 h 0 M 418.84 255.64 h 0 M 421.36 241.47 h 0 M 423.87 216.21 h 0 M 426.38 252.68 h 0 M 428.89 226.33 h 0 M 431.41 231.32 h 0 M 433.92 238.92 h 0 M 436.43 219.20 h 0 M 438.94 270.99 h 0 M 441.46 211.73 h 0 M 443.97 252.45 h 0 M 446.48 243.63 h 0 M 448.99 297.34 h 0 M 451.51 318.53 h 0 M 454.02 320.35 h 0 M 456.53 320.32 h 0 M 459.05 324.83 h 0 M 461.56 329.77 h 0 M 464.07 323.61 h 0 M 466.58 326.58 h 0 M 469.10 317.25 h 0 M 471.61 319.06 h 0 M 474.12 248.24 h 0 M 476.63 228.35 h 0 M 479.15 262.48 h 0 M 481.66 248.69 h 0 M 484.17 264.81 h 0 M 486.68 271.20 h 0 M 489.20 269.29 h 0 M 491.71 256.34 h 0 M 494.22 275.94 h 0 M 496.73 258.63 h 0 M 499.25 274.12 h 0 M 501.76 256.89 h 0 M 504.27 275.64 h 0 M 506.78 300.06 h 0 M 509.30 324.80 h 0 M 511.81 325.07 h 0 M 514.32 332.79 h 0 M 516.83 323.60 h 0 M 519.35 336.82 h 0 M 521.86 324.94 h 0 M 524.37 336.49 h 0 M 526.88 325.12 h 0 M 529.40 337.60 h 0 M 531.91 325.41 h 0 M 534.42 326.29 h 0 M 536.93 324.66 h 0 M 539.45 335.80 h 0 M 541.96 337.11 h 0 M 544.47 335.92 h 0 M 546.98 335.37 h 0 M 549.50 333.37 h 0 M 552.01 324.78 h 0 M 554.52 336.06 h 0 M 557.04 325.49 h 0 M 559.55 336.01 h 0 M 562.06 324.23 h 0 M 564.57 311.50 h 0 M 567.09 334.94 h 0 M 569.60 320.87 h 0 M 572.11 335.46 h 0 M 574.62 326.70 h 0 M 577.14 333.60 h 0 M 579.65 326.24 h 0 M 582.16 334.15 h 0 M 584.67 335.54 h 0 M 587.19 334.05 h 0 M 589.70 325.08 h 0 M 592.21 332.95 h 0 M 594.72 325.21 h 0 M 597.24 324.73 h 0 M 599.75 324.01 h 0 M 602.26 337.25 h 0 M 604.77 324.75 h 0 M 607.29 337.67 h 0 M 609.80 324.83 h 0 M 612.31 337.68 h 0 M 614.82 327.18 h 0 M 617.34 323.45 h 0 M 619.85 319.89 h 0 M 622.36 338.55 h 0 M 624.87 324.00 h 0 M 627.39 325.94 h 0 M 629.90 324.67 h 0 M 632.41 336.17 h 0 M 634.92 337.06 h 0 M 637.44 323.92 h 0 M 639.95 335.21 h 0 M 642.46 325.34 h 0 M 644.97 324.24 h 0 M 647.49 333.21 h 0 M 650.00 337.22 h 0" /><text  class="poloto_text poloto_legend_text" x="675" y="150" >Query Par</text><line  class="poloto_scatter poloto_legend_icon poloto1stroke poloto1legend" stroke="black" x1="685" x2="685" y1="131.25" y2="131.25" /><path  class="poloto_scatter poloto1stroke" d=" M 150.00 340.15 h 0 M 152.51 341.45 h 0 M 155.03 342.27 h 0 M 157.54 341.43 h 0 M 160.05 338.23 h 0 M 162.56 328.22 h 0 M 165.08 340.58 h 0 M 167.59 339.56 h 0 M 170.10 339.30 h 0 M 172.61 340.20 h 0 M 175.13 341.04 h 0 M 177.64 339.76 h 0 M 180.15 339.53 h 0 M 182.66 337.18 h 0 M 185.18 339.66 h 0 M 187.69 339.64 h 0 M 190.20 339.41 h 0 M 192.71 342.07 h 0 M 195.23 339.39 h 0 M 197.74 339.22 h 0 M 200.25 330.12 h 0 M 202.76 340.66 h 0 M 205.28 340.36 h 0 M 207.79 339.83 h 0 M 210.30 340.21 h 0 M 212.81 334.21 h 0 M 215.33 341.70 h 0 M 217.84 340.25 h 0 M 220.35 338.07 h 0 M 222.86 339.44 h 0 M 225.38 340.35 h 0 M 227.89 339.08 h 0 M 230.40 340.87 h 0 M 232.91 340.03 h 0 M 235.43 339.17 h 0 M 237.94 339.05 h 0 M 240.45 340.92 h 0 M 242.96 342.03 h 0 M 245.48 341.21 h 0 M 247.99 340.81 h 0 M 250.50 341.13 h 0 M 253.02 339.42 h 0 M 255.53 337.39 h 0 M 258.04 338.99 h 0 M 260.55 338.37 h 0 M 263.07 341.10 h 0 M 265.58 338.33 h 0 M 268.09 338.05 h 0 M 270.60 340.90 h 0 M 273.12 340.06 h 0 M 275.63 342.83 h 0 M 278.14 342.35 h 0 M 280.65 336.41 h 0 M 283.17 341.34 h 0 M 285.68 338.32 h 0 M 288.19 340.52 h 0 M 290.70 338.45 h 0 M 293.22 341.50 h 0 M 295.73 337.91 h 0 M 298.24 337.89 h 0 M 300.75 341.79 h 0 M 303.27 338.21 h 0 M 305.78 339.91 h 0 M 308.29 341.40 h 0 M 310.80 339.96 h 0 M 313.32 338.19 h 0 M 315.83 341.65 h 0 M 318.34 340.26 h 0 M 320.85 341.45 h 0 M 323.37 340.67 h 0 M 325.88 339.74 h 0 M 328.39 341.54 h 0 M 330.90 338.69 h 0 M 333.42 340.19 h 0 M 335.93 341.90 h 0 M 338.44 338.51 h 0 M 340.95 341.69 h 0 M 343.47 340.67 h 0 M 345.98 340.57 h 0 M 348.49 339.37 h 0 M 351.01 329.74 h 0 M 353.52 339.51 h 0 M 356.03 340.43 h 0 M 358.54 341.28 h 0 M 361.06 338.95 h 0 M 363.57 338.03 h 0 M 366.08 339.95 h 0 M 368.59 340.57 h 0 M 371.11 327.78 h 0 M 373.62 315.44 h 0 M 376.13 340.71 h 0 M 378.64 339.61 h 0 M 381.16 338.37 h 0 M 383.67 328.65 h 0 M 386.18 339.49 h 0 M 388.69 341.28 h 0 M 391.21 340.41 h 0 M 393.72 303.11 h 0 M 396.23 313.59 h 0 M 398.74 294.96 h 0 M 401.26 289.94 h 0 M 403.77 312.63 h 0 M 406.28 316.36 h 0 M 408.79 295.41 h 0 M 411.31 314.60 h 0 M 413.82 316.95 h 0 M 416.33 313.74 h 0 M 418.84 294.00 h 0 M 421.36 313.00 h 0 M 423.87 314.72 h 0 M 426.38 295.41 h 0 M 428.89 313.15 h 0 M 431.41 313.97 h 0 M 433.92 317.16 h 0 M 436.43 312.54 h 0 M 438.94 313.93 h 0 M 441.46 313.20 h 0 M 443.97 294.95 h 0 M 446.48 313.24 h 0 M 448.99 313.48 h 0 M 451.51 316.38 h 0 M 454.02 315.20 h 0 M 456.53 295.10 h 0 M 459.05 294.74 h 0 M 461.56 293.00 h 0 M 464.07 295.25 h 0 M 466.58 296.02 h 0 M 469.10 312.25 h 0 M 471.61 314.70 h 0 M 474.12 318.31 h 0 M 476.63 294.06 h 0 M 479.15 295.10 h 0 M 481.66 295.61 h 0 M 484.17 311.91 h 0 M 486.68 288.11 h 0 M 489.20 312.91 h 0 M 491.71 294.34 h 0 M 494.22 314.21 h 0 M 496.73 309.75 h 0 M 499.25 311.70 h 0 M 501.76 315.97 h 0 M 504.27 315.19 h 0 M 506.78 312.21 h 0 M 509.30 314.91 h 0 M 511.81 314.40 h 0 M 514.32 295.70 h 0 M 516.83 293.38 h 0 M 519.35 286.89 h 0 M 521.86 290.75 h 0 M 524.37 296.14 h 0 M 526.88 304.13 h 0 M 529.40 303.74 h 0 M 531.91 298.44 h 0 M 534.42 303.34 h 0 M 536.93 288.82 h 0 M 539.45 295.13 h 0 M 541.96 305.20 h 0 M 544.47 294.75 h 0 M 546.98 245.83 h 0 M 549.50 286.95 h 0 M 552.01 292.84 h 0 M 554.52 252.58 h 0 M 557.04 220.70 h 0 M 559.55 253.52 h 0 M 562.06 295.87 h 0 M 564.57 277.94 h 0 M 567.09 197.86 h 0 M 569.60 297.83 h 0 M 572.11 100.00 h 0 M 574.62 299.97 h 0 M 577.14 299.36 h 0 M 579.65 301.02 h 0 M 582.16 302.00 h 0 M 584.67 288.21 h 0 M 587.19 302.18 h 0 M 589.70 305.47 h 0 M 592.21 313.95 h 0 M 594.72 314.38 h 0 M 597.24 311.42 h 0 M 599.75 314.32 h 0 M 602.26 317.87 h 0 M 604.77 313.72 h 0 M 607.29 293.30 h 0 M 609.80 282.36 h 0 M 612.31 291.34 h 0 M 614.82 304.13 h 0 M 617.34 295.66 h 0 M 619.85 308.00 h 0 M 622.36 313.13 h 0 M 624.87 314.01 h 0 M 627.39 306.59 h 0 M 629.90 312.88 h 0 M 632.41 313.86 h 0 M 634.92 313.63 h 0 M 637.44 314.31 h 0 M 639.95 315.20 h 0 M 642.46 313.45 h 0 M 644.97 314.95 h 0 M 647.49 244.73 h 0 M 650.00 245.50 h 0" /><text  class="poloto_text poloto_legend_text" x="675" y="200" >Rebal</text><line  class="poloto_scatter poloto_legend_icon poloto2stroke poloto2legend" stroke="black" x1="685" x2="685" y1="181.25" y2="181.25" /><path  class="poloto_scatter poloto2stroke" d=" M 150.23 288.46 h 0 M 150.23 288.73 h 0 M 150.23 289.20 h 0 M 150.23 289.05 h 0 M 150.23 288.85 h 0 M 150.23 289.97 h 0 M 150.23 289.15 h 0 M 150.23 289.01 h 0 M 150.23 289.35 h 0 M 150.23 289.79 h 0 M 150.23 289.31 h 0 M 150.23 288.44 h 0 M 150.23 289.65 h 0 M 150.23 288.64 h 0 M 150.23 288.96 h 0 M 150.23 289.21 h 0 M 150.23 289.23 h 0 M 150.23 289.93 h 0 M 150.23 288.11 h 0 M 150.23 288.55 h 0 M 150.23 289.21 h 0 M 150.23 289.28 h 0 M 150.23 288.29 h 0 M 150.23 288.37 h 0 M 150.23 289.07 h 0 M 150.23 289.43 h 0 M 150.23 287.32 h 0 M 150.23 288.56 h 0 M 150.23 288.99 h 0 M 150.23 289.33 h 0 M 150.23 289.12 h 0 M 150.23 288.88 h 0 M 150.23 289.27 h 0 M 150.23 289.53 h 0 M 150.23 289.08 h 0 M 150.23 285.93 h 0 M 150.23 287.49 h 0 M 150.23 287.42 h 0 M 150.23 288.37 h 0 M 150.23 288.64 h 0 M 150.23 289.08 h 0 M 150.23 288.99 h 0 M 150.23 288.81 h 0 M 150.23 288.17 h 0 M 150.23 289.13 h 0 M 150.23 288.98 h 0 M 150.23 288.06 h 0 M 150.23 289.32 h 0 M 150.23 289.51 h 0 M 150.23 289.56 h 0 M 150.23 289.14 h 0 M 150.23 276.95 h 0 M 150.23 288.66 h 0 M 150.23 287.91 h 0 M 150.23 286.76 h 0 M 150.23 288.57 h 0 M 150.23 289.19 h 0 M 150.23 289.24 h 0 M 150.23 286.91 h 0 M 150.23 288.30 h 0 M 150.23 287.18 h 0 M 150.23 286.92 h 0 M 150.23 288.39 h 0 M 150.23 288.61 h 0 M 150.23 284.85 h 0 M 150.23 289.10 h 0 M 150.23 288.68 h 0 M 150.23 288.71 h 0 M 150.23 289.51 h 0 M 150.23 287.39 h 0 M 150.23 288.16 h 0 M 150.23 288.76 h 0 M 150.23 288.61 h 0 M 150.23 288.70 h 0 M 150.23 289.54 h 0 M 150.23 287.22 h 0 M 150.23 287.30 h 0 M 150.23 287.58 h 0 M 150.23 288.90 h 0 M 150.23 286.08 h 0 M 150.23 289.01 h 0 M 150.23 289.30 h 0 M 150.23 288.63 h 0 M 150.23 288.53 h 0 M 150.23 289.04 h 0 M 150.23 287.67 h 0 M 150.23 289.52 h 0 M 150.23 289.48 h 0 M 150.23 288.79 h 0 M 150.23 289.74 h 0 M 150.23 288.61 h 0 M 150.23 283.36 h 0 M 150.23 288.88 h 0 M 150.23 287.65 h 0 M 150.23 289.08 h 0 M 150.23 289.45 h 0 M 150.23 288.93 h 0 M 150.23 287.94 h 0 M 150.23 288.76 h 0 M 150.23 289.41 h 0" /><text  class="poloto_text poloto_legend_text" x="675" y="250" >Query</text><line  class="poloto_scatter poloto_legend_icon poloto3stroke poloto3legend" stroke="black" x1="685" x2="685" y1="231.25" y2="231.25" /><path  class="poloto_scatter poloto3stroke" d=" M 150.23 243.17 h 0 M 150.23 249.21 h 0 M 150.23 246.74 h 0 M 150.23 239.09 h 0 M 150.23 249.79 h 0 M 150.23 244.16 h 0 M 150.23 241.85 h 0 M 150.23 250.61 h 0 M 150.23 250.29 h 0 M 150.23 241.76 h 0 M 150.23 241.79 h 0 M 150.23 243.39 h 0 M 150.23 249.64 h 0 M 150.23 249.60 h 0 M 150.23 248.66 h 0 M 150.23 251.38 h 0 M 150.23 249.88 h 0 M 150.23 250.95 h 0 M 150.23 250.23 h 0 M 150.23 250.51 h 0 M 150.23 250.43 h 0 M 150.23 246.32 h 0 M 150.23 238.55 h 0 M 150.23 250.77 h 0 M 150.23 241.50 h 0 M 150.23 247.64 h 0 M 150.23 249.79 h 0 M 150.23 246.13 h 0 M 150.23 241.46 h 0 M 150.23 250.17 h 0 M 150.23 250.87 h 0 M 150.23 250.89 h 0 M 150.23 242.02 h 0 M 150.23 250.10 h 0 M 150.23 241.22 h 0 M 150.23 245.27 h 0 M 150.23 245.93 h 0 M 150.23 241.40 h 0 M 150.23 249.05 h 0 M 150.23 241.44 h 0 M 150.23 250.03 h 0 M 150.23 250.18 h 0 M 150.23 242.37 h 0 M 150.23 251.01 h 0 M 150.23 246.15 h 0 M 150.23 242.25 h 0 M 150.23 251.41 h 0 M 150.23 246.87 h 0 M 150.23 243.25 h 0 M 150.23 250.69 h 0 M 150.23 217.75 h 0 M 150.23 249.95 h 0 M 150.23 249.86 h 0 M 150.23 250.25 h 0 M 150.23 250.63 h 0 M 150.23 251.29 h 0 M 150.23 250.69 h 0 M 150.23 246.96 h 0 M 150.23 250.41 h 0 M 150.23 250.15 h 0 M 150.23 241.67 h 0 M 150.23 240.41 h 0 M 150.23 249.95 h 0 M 150.23 242.30 h 0 M 150.23 249.17 h 0 M 150.23 247.63 h 0 M 150.23 251.28 h 0 M 150.23 241.94 h 0 M 150.23 249.68 h 0 M 150.23 242.56 h 0 M 150.23 249.68 h 0 M 150.23 249.67 h 0 M 150.23 251.75 h 0 M 150.23 241.53 h 0 M 150.23 250.67 h 0 M 150.23 249.85 h 0 M 150.23 247.39 h 0 M 150.23 247.54 h 0 M 150.23 243.70 h 0 M 150.23 244.24 h 0 M 150.23 250.31 h 0 M 150.23 251.09 h 0 M 150.23 243.26 h 0 M 150.23 240.82 h 0 M 150.23 249.98 h 0 M 150.23 250.36 h 0 M 150.23 250.91 h 0 M 150.23 250.07 h 0 M 150.23 241.04 h 0 M 150.23 250.17 h 0 M 150.23 250.69 h 0 M 150.23 250.08 h 0 M 150.23 245.46 h 0 M 150.23 243.09 h 0 M 150.23 251.14 h 0 M 150.23 251.13 h 0 M 150.23 248.00 h 0 M 150.23 248.04 h 0 M 150.23 242.28 h 0 M 150.23 250.73 h 0" /><text  class="poloto_labels poloto_text poloto_title" x="400" y="37.5" >Bench of differing parallel switch levels with abspiral(20,000,1.5)</text><text  class="poloto_labels poloto_text poloto_xname" x="400" y="481.25" >problem size at which to switch to sequential</text><text  class="poloto_labels poloto_text poloto_yname" transform="rotate(-90,37.5,250)" x="37.5" y="250" >Time in Seconds</text><text  class="poloto_tick_labels poloto_text" dominant-baseline="middle" text-anchor="start" x="150" y="70" ></text><line  class="poloto_axis_lines" stroke="black" x1="150" x2="144" y1="400" y2="400" /><text  class="poloto_tick_labels poloto_text" dominant-baseline="middle" text-anchor="end" x="135" y="400" >0e0</text><line  class="poloto_axis_lines" stroke="black" x1="150" x2="144" y1="338.401860920847" y2="338.401860920847" /><text  class="poloto_tick_labels poloto_text" dominant-baseline="middle" text-anchor="end" x="135" y="338.401860920847" >0.001</text><line  class="poloto_axis_lines" stroke="black" x1="150" x2="144" y1="276.803721841694" y2="276.803721841694" /><text  class="poloto_tick_labels poloto_text" dominant-baseline="middle" text-anchor="end" x="135" y="276.803721841694" >0.002</text><line  class="poloto_axis_lines" stroke="black" x1="150" x2="144" y1="215.20558276254098" y2="215.20558276254098" /><text  class="poloto_tick_labels poloto_text" dominant-baseline="middle" text-anchor="end" x="135" y="215.20558276254098" >0.003</text><line  class="poloto_axis_lines" stroke="black" x1="150" x2="144" y1="153.60744368338803" y2="153.60744368338803" /><text  class="poloto_tick_labels poloto_text" dominant-baseline="middle" text-anchor="end" x="135" y="153.60744368338803" >0.004</text><text  class="poloto_tick_labels poloto_text" dominant-baseline="middle" text-anchor="start" x="440.00000000000006" y="70" ></text><line  class="poloto_axis_lines" stroke="black" x1="150" x2="150" y1="400" y2="405" /><text  class="poloto_tick_labels poloto_text" dominant-baseline="start" text-anchor="middle" x="150" y="430" >0</text><line  class="poloto_axis_lines" stroke="black" x1="275.6281407035176" x2="275.6281407035176" y1="400" y2="405" /><text  class="poloto_tick_labels poloto_text" dominant-baseline="start" text-anchor="middle" x="275.6281407035176" y="430" >5000</text><line  class="poloto_axis_lines" stroke="black" x1="401.2562814070352" x2="401.2562814070352" y1="400" y2="405" /><text  class="poloto_tick_labels poloto_text" dominant-baseline="start" text-anchor="middle" x="401.2562814070352" y="430" >10000</text><line  class="poloto_axis_lines" stroke="black" x1="526.8844221105528" x2="526.8844221105528" y1="400" y2="405" /><text  class="poloto_tick_labels poloto_text" dominant-baseline="start" text-anchor="middle" x="526.8844221105528" y="430" >15000</text><path  stroke="black" fill="none" class="poloto_axis_lines" style="stroke-dasharray:12.56281407035176;stroke-dashoffset:-0;" d=" M 150 400 L 650 400" /><path  stroke="black" fill="none" class="poloto_axis_lines" style="stroke-dasharray:6.159813907915299;stroke-dashoffset:-0;" d=" M 150 400 L 150 100" /></svg>