<svg class="poloto" width="800" height="500" viewBox="0 0 800 500" xmlns="http://www.w3.org/2000/svg"><circle  r="1e5" class="poloto_background" /><text  class="poloto_text poloto_legend_text" x="675" y="100" >Rebal Par</text><line  class="poloto_scatter poloto_legend_icon poloto0stroke poloto0legend" stroke="black" x1="685" x2="685" y1="81.25" y2="81.25" /><path  class="poloto_scatter poloto0stroke" d=" M 150.00 100.00 h 0 M 152.51 326.19 h 0 M 155.03 335.37 h 0 M 157.54 334.75 h 0 M 160.05 309.42 h 0 M 162.56 328.83 h 0 M 165.08 320.87 h 0 M 167.59 338.27 h 0 M 170.10 335.00 h 0 M 172.61 334.17 h 0 M 175.13 331.41 h 0 M 177.64 332.03 h 0 M 180.15 303.21 h 0 M 182.66 332.10 h 0 M 185.18 327.29 h 0 M 187.69 332.82 h 0 M 190.20 328.28 h 0 M 192.71 333.68 h 0 M 195.23 333.89 h 0 M 197.74 329.99 h 0 M 200.25 334.35 h 0 M 202.76 319.89 h 0 M 205.28 330.54 h 0 M 207.79 333.58 h 0 M 210.30 334.04 h 0 M 212.81 334.10 h 0 M 215.33 328.60 h 0 M 217.84 333.68 h 0 M 220.35 331.30 h 0 M 222.86 330.25 h 0 M 225.38 333.46 h 0 M 227.89 327.31 h 0 M 230.40 333.58 h 0 M 232.91 333.66 h 0 M 235.43 332.95 h 0 M 237.94 333.38 h 0 M 240.45 327.10 h 0 M 242.96 332.73 h 0 M 245.48 334.32 h 0 M 247.99 332.35 h 0 M 250.50 333.61 h 0 M 253.02 334.25 h 0 M 255.53 334.29 h 0 M 258.04 334.05 h 0 M 260.55 333.21 h 0 M 263.07 334.43 h 0 M 265.58 321.31 h 0 M 268.09 323.31 h 0 M 270.60 308.50 h 0 M 273.12 311.41 h 0 M 275.63 313.25 h 0 M 278.14 315.27 h 0 M 280.65 300.91 h 0 M 283.17 301.58 h 0 M 285.68 315.10 h 0 M 288.19 302.04 h 0 M 290.70 300.77 h 0 M 293.22 315.47 h 0 M 295.73 315.73 h 0 M 298.24 312.60 h 0 M 300.75 302.86 h 0 M 303.27 300.76 h 0 M 305.78 302.34 h 0 M 308.29 299.92 h 0 M 310.80 314.39 h 0 M 313.32 314.34 h 0 M 315.83 298.17 h 0 M 318.34 301.17 h 0 M 320.85 315.73 h 0 M 323.37 302.03 h 0 M 325.88 301.15 h 0 M 328.39 314.19 h 0 M 330.90 302.86 h 0 M 333.42 300.53 h 0 M 335.93 300.96 h 0 M 338.44 313.75 h 0 M 340.95 300.34 h 0 M 343.47 301.75 h 0 M 345.98 314.91 h 0 M 348.49 301.57 h 0 M 351.01 301.65 h 0 M 353.52 316.20 h 0 M 356.03 301.48 h 0 M 358.54 301.72 h 0 M 361.06 315.79 h 0 M 363.57 314.34 h 0 M 366.08 316.09 h 0 M 368.59 300.06 h 0 M 371.11 299.82 h 0 M 373.62 312.10 h 0 M 376.13 312.21 h 0 M 378.64 310.96 h 0 M 381.16 315.15 h 0 M 383.67 299.46 h 0 M 386.18 300.22 h 0 M 388.69 313.54 h 0 M 391.21 316.15 h 0 M 393.72 313.49 h 0 M 396.23 256.23 h 0 M 398.74 256.50 h 0 M 401.26 255.00 h 0 M 403.77 256.04 h 0 M 406.28 254.89 h 0 M 408.79 254.82 h 0 M 411.31 256.04 h 0 M 413.82 256.05 h 0 M 416.33 256.27 h 0 M 418.84 255.99 h 0 M 421.36 256.95 h 0 M 423.87 256.10 h 0 M 426.38 256.30 h 0 M 428.89 256.43 h 0 M 431.41 255.69 h 0 M 433.92 254.70 h 0 M 436.43 255.67 h 0 M 438.94 256.04 h 0 M 441.46 256.00 h 0 M 443.97 257.13 h 0 M 446.48 257.11 h 0 M 448.99 256.87 h 0 M 451.51 255.74 h 0 M 454.02 255.96 h 0 M 456.53 255.68 h 0 M 459.05 255.15 h 0 M 461.56 256.13 h 0 M 464.07 255.18 h 0 M 466.58 254.63 h 0 M 469.10 253.88 h 0 M 471.61 257.04 h 0 M 474.12 256.64 h 0 M 476.63 253.61 h 0 M 479.15 255.48 h 0 M 481.66 256.53 h 0 M 484.17 255.42 h 0 M 486.68 254.80 h 0 M 489.20 254.99 h 0 M 491.71 256.17 h 0 M 494.22 256.38 h 0 M 496.73 255.88 h 0 M 499.25 256.78 h 0 M 501.76 256.72 h 0 M 504.27 255.39 h 0 M 506.78 256.43 h 0 M 509.30 254.04 h 0 M 511.81 255.50 h 0 M 514.32 255.87 h 0 M 516.83 256.25 h 0 M 519.35 255.95 h 0 M 521.86 255.85 h 0 M 524.37 255.62 h 0 M 526.88 256.68 h 0 M 529.40 255.48 h 0 M 531.91 257.01 h 0 M 534.42 256.69 h 0 M 536.93 254.36 h 0 M 539.45 256.32 h 0 M 541.96 256.28 h 0 M 544.47 255.34 h 0 M 546.98 256.66 h 0 M 549.50 255.35 h 0 M 552.01 255.39 h 0 M 554.52 256.75 h 0 M 557.04 255.10 h 0 M 559.55 256.10 h 0 M 562.06 255.28 h 0 M 564.57 256.92 h 0 M 567.09 252.61 h 0 M 569.60 253.49 h 0 M 572.11 256.01 h 0 M 574.62 256.23 h 0 M 577.14 254.64 h 0 M 579.65 256.40 h 0 M 582.16 255.74 h 0 M 584.67 256.98 h 0 M 587.19 255.36 h 0 M 589.70 253.94 h 0 M 592.21 255.19 h 0 M 594.72 255.06 h 0 M 597.24 256.39 h 0 M 599.75 256.08 h 0 M 602.26 256.94 h 0 M 604.77 256.18 h 0 M 607.29 257.50 h 0 M 609.80 257.03 h 0 M 612.31 254.93 h 0 M 614.82 256.20 h 0 M 617.34 257.01 h 0 M 619.85 256.37 h 0 M 622.36 255.37 h 0 M 624.87 256.89 h 0 M 627.39 255.25 h 0 M 629.90 256.45 h 0 M 632.41 255.76 h 0 M 634.92 255.93 h 0 M 637.44 256.73 h 0 M 639.95 255.20 h 0 M 642.46 255.87 h 0 M 644.97 255.95 h 0 M 647.49 256.99 h 0 M 650.00 254.00 h 0" /><text  class="poloto_text poloto_legend_text" x="675" y="150" >Query Par</text><line  class="poloto_scatter poloto_legend_icon poloto1stroke poloto1legend" stroke="black" x1="685" x2="685" y1="131.25" y2="131.25" /><path  class="poloto_scatter poloto1stroke" d=" M 150.00 318.76 h 0 M 152.51 305.46 h 0 M 155.03 319.15 h 0 M 157.54 320.54 h 0 M 160.05 316.37 h 0 M 162.56 316.90 h 0 M 165.08 316.92 h 0 M 167.59 320.22 h 0 M 170.10 308.37 h 0 M 172.61 317.52 h 0 M 175.13 316.24 h 0 M 177.64 316.44 h 0 M 180.15 318.38 h 0 M 182.66 316.50 h 0 M 185.18 317.21 h 0 M 187.69 319.17 h 0 M 190.20 314.81 h 0 M 192.71 318.29 h 0 M 195.23 319.80 h 0 M 197.74 318.47 h 0 M 200.25 317.19 h 0 M 202.76 316.63 h 0 M 205.28 316.98 h 0 M 207.79 315.35 h 0 M 210.30 315.63 h 0 M 212.81 318.89 h 0 M 215.33 314.59 h 0 M 217.84 319.42 h 0 M 220.35 310.82 h 0 M 222.86 319.64 h 0 M 225.38 315.92 h 0 M 227.89 315.25 h 0 M 230.40 315.31 h 0 M 232.91 315.24 h 0 M 235.43 314.36 h 0 M 237.94 317.46 h 0 M 240.45 316.75 h 0 M 242.96 262.65 h 0 M 245.48 254.23 h 0 M 247.99 261.84 h 0 M 250.50 254.57 h 0 M 253.02 252.97 h 0 M 255.53 267.78 h 0 M 258.04 317.92 h 0 M 260.55 317.19 h 0 M 263.07 313.61 h 0 M 265.58 319.58 h 0 M 268.09 318.12 h 0 M 270.60 262.85 h 0 M 273.12 250.91 h 0 M 275.63 275.80 h 0 M 278.14 253.20 h 0 M 280.65 251.00 h 0 M 283.17 272.36 h 0 M 285.68 278.66 h 0 M 288.19 278.94 h 0 M 290.70 248.55 h 0 M 293.22 275.39 h 0 M 295.73 252.35 h 0 M 298.24 243.55 h 0 M 300.75 252.43 h 0 M 303.27 261.86 h 0 M 305.78 281.05 h 0 M 308.29 280.41 h 0 M 310.80 272.00 h 0 M 313.32 280.68 h 0 M 315.83 280.71 h 0 M 318.34 251.56 h 0 M 320.85 251.02 h 0 M 323.37 251.02 h 0 M 325.88 279.66 h 0 M 328.39 271.06 h 0 M 330.90 278.05 h 0 M 333.42 275.56 h 0 M 335.93 279.62 h 0 M 338.44 270.69 h 0 M 340.95 250.01 h 0 M 343.47 242.44 h 0 M 345.98 275.75 h 0 M 348.49 276.45 h 0 M 351.01 279.88 h 0 M 353.52 245.76 h 0 M 356.03 249.49 h 0 M 358.54 250.92 h 0 M 361.06 241.67 h 0 M 363.57 250.56 h 0 M 366.08 250.47 h 0 M 368.59 272.19 h 0 M 371.11 247.32 h 0 M 373.62 250.18 h 0 M 376.13 245.51 h 0 M 378.64 278.23 h 0 M 381.16 279.98 h 0 M 383.67 250.07 h 0 M 386.18 274.52 h 0 M 388.69 276.02 h 0 M 391.21 251.28 h 0 M 393.72 277.42 h 0 M 396.23 178.85 h 0 M 398.74 179.86 h 0 M 401.26 181.45 h 0 M 403.77 183.44 h 0 M 406.28 179.50 h 0 M 408.79 181.21 h 0 M 411.31 179.28 h 0 M 413.82 180.06 h 0 M 416.33 183.26 h 0 M 418.84 175.83 h 0 M 421.36 183.89 h 0 M 423.87 180.11 h 0 M 426.38 182.00 h 0 M 428.89 174.51 h 0 M 431.41 174.17 h 0 M 433.92 179.21 h 0 M 436.43 177.83 h 0 M 438.94 181.48 h 0 M 441.46 184.67 h 0 M 443.97 175.53 h 0 M 446.48 169.15 h 0 M 448.99 176.71 h 0 M 451.51 182.47 h 0 M 454.02 179.93 h 0 M 456.53 179.98 h 0 M 459.05 180.56 h 0 M 461.56 179.33 h 0 M 464.07 177.04 h 0 M 466.58 181.00 h 0 M 469.10 180.68 h 0 M 471.61 181.05 h 0 M 474.12 182.03 h 0 M 476.63 183.91 h 0 M 479.15 182.22 h 0 M 481.66 182.16 h 0 M 484.17 172.46 h 0 M 486.68 183.28 h 0 M 489.20 183.30 h 0 M 491.71 182.60 h 0 M 494.22 185.01 h 0 M 496.73 182.57 h 0 M 499.25 180.55 h 0 M 501.76 178.26 h 0 M 504.27 181.22 h 0 M 506.78 173.29 h 0 M 509.30 177.04 h 0 M 511.81 182.61 h 0 M 514.32 183.24 h 0 M 516.83 182.31 h 0 M 519.35 183.15 h 0 M 521.86 179.90 h 0 M 524.37 178.21 h 0 M 526.88 181.41 h 0 M 529.40 177.10 h 0 M 531.91 183.50 h 0 M 534.42 178.19 h 0 M 536.93 181.17 h 0 M 539.45 181.46 h 0 M 541.96 180.34 h 0 M 544.47 183.89 h 0 M 546.98 176.71 h 0 M 549.50 183.20 h 0 M 552.01 183.57 h 0 M 554.52 182.56 h 0 M 557.04 174.76 h 0 M 559.55 186.34 h 0 M 562.06 183.22 h 0 M 564.57 182.30 h 0 M 567.09 181.30 h 0 M 569.60 183.46 h 0 M 572.11 179.89 h 0 M 574.62 181.32 h 0 M 577.14 182.36 h 0 M 579.65 180.92 h 0 M 582.16 174.94 h 0 M 584.67 183.84 h 0 M 587.19 181.47 h 0 M 589.70 178.08 h 0 M 592.21 180.25 h 0 M 594.72 181.13 h 0 M 597.24 180.07 h 0 M 599.75 184.30 h 0 M 602.26 180.30 h 0 M 604.77 181.41 h 0 M 607.29 178.31 h 0 M 609.80 182.22 h 0 M 612.31 181.35 h 0 M 614.82 185.54 h 0 M 617.34 180.89 h 0 M 619.85 180.53 h 0 M 622.36 172.24 h 0 M 624.87 181.94 h 0 M 627.39 184.57 h 0 M 629.90 181.71 h 0 M 632.41 180.60 h 0 M 634.92 182.57 h 0 M 637.44 175.03 h 0 M 639.95 181.09 h 0 M 642.46 181.90 h 0 M 644.97 176.56 h 0 M 647.49 184.70 h 0 M 650.00 174.12 h 0" /><text  class="poloto_text poloto_legend_text" x="675" y="200" >Rebal</text><line  class="poloto_scatter poloto_legend_icon poloto2stroke poloto2legend" stroke="black" x1="685" x2="685" y1="181.25" y2="181.25" /><path  class="poloto_scatter poloto2stroke" d=" M 150.23 252.47 h 0 M 150.23 251.87 h 0 M 150.23 251.92 h 0 M 150.23 253.53 h 0 M 150.23 251.85 h 0 M 150.23 253.76 h 0 M 150.23 253.39 h 0 M 150.23 252.85 h 0 M 150.23 253.92 h 0 M 150.23 252.42 h 0 M 150.23 253.02 h 0 M 150.23 253.56 h 0 M 150.23 253.46 h 0 M 150.23 255.08 h 0 M 150.23 253.83 h 0 M 150.23 253.52 h 0 M 150.23 253.31 h 0 M 150.23 252.20 h 0 M 150.23 252.64 h 0 M 150.23 254.07 h 0 M 150.23 253.74 h 0 M 150.23 254.15 h 0 M 150.23 252.12 h 0 M 150.23 253.87 h 0 M 150.23 253.05 h 0 M 150.23 251.83 h 0 M 150.23 254.19 h 0 M 150.23 253.38 h 0 M 150.23 253.36 h 0 M 150.23 253.81 h 0 M 150.23 251.71 h 0 M 150.23 254.48 h 0 M 150.23 251.44 h 0 M 150.23 253.56 h 0 M 150.23 253.47 h 0 M 150.23 253.67 h 0 M 150.23 254.38 h 0 M 150.23 253.13 h 0 M 150.23 254.41 h 0 M 150.23 253.71 h 0 M 150.23 251.31 h 0 M 150.23 253.72 h 0 M 150.23 253.13 h 0 M 150.23 253.64 h 0 M 150.23 253.01 h 0 M 150.23 252.73 h 0 M 150.23 253.50 h 0 M 150.23 251.82 h 0 M 150.23 252.28 h 0 M 150.23 254.20 h 0 M 150.23 253.90 h 0 M 150.23 253.52 h 0 M 150.23 252.83 h 0 M 150.23 252.84 h 0 M 150.23 253.44 h 0 M 150.23 253.14 h 0 M 150.23 251.58 h 0 M 150.23 253.67 h 0 M 150.23 252.71 h 0 M 150.23 252.82 h 0 M 150.23 252.81 h 0 M 150.23 252.70 h 0 M 150.23 243.28 h 0 M 150.23 252.74 h 0 M 150.23 252.32 h 0 M 150.23 252.98 h 0 M 150.23 252.97 h 0 M 150.23 253.74 h 0 M 150.23 252.65 h 0 M 150.23 253.45 h 0 M 150.23 254.15 h 0 M 150.23 253.03 h 0 M 150.23 251.82 h 0 M 150.23 253.90 h 0 M 150.23 252.96 h 0 M 150.23 252.63 h 0 M 150.23 253.11 h 0 M 150.23 253.27 h 0 M 150.23 253.08 h 0 M 150.23 253.29 h 0 M 150.23 252.27 h 0 M 150.23 252.99 h 0 M 150.23 253.61 h 0 M 150.23 253.64 h 0 M 150.23 253.94 h 0 M 150.23 253.75 h 0 M 150.23 252.56 h 0 M 150.23 252.35 h 0 M 150.23 250.54 h 0 M 150.23 252.51 h 0 M 150.23 253.17 h 0 M 150.23 252.52 h 0 M 150.23 252.30 h 0 M 150.23 251.15 h 0 M 150.23 253.66 h 0 M 150.23 250.03 h 0 M 150.23 249.16 h 0 M 150.23 252.26 h 0 M 150.23 253.07 h 0 M 150.23 253.59 h 0" /><text  class="poloto_text poloto_legend_text" x="675" y="250" >Query</text><line  class="poloto_scatter poloto_legend_icon poloto3stroke poloto3legend" stroke="black" x1="685" x2="685" y1="231.25" y2="231.25" /><path  class="poloto_scatter poloto3stroke" d=" M 150.23 166.42 h 0 M 150.23 182.85 h 0 M 150.23 173.55 h 0 M 150.23 182.72 h 0 M 150.23 167.52 h 0 M 150.23 186.18 h 0 M 150.23 167.00 h 0 M 150.23 186.02 h 0 M 150.23 166.09 h 0 M 150.23 184.48 h 0 M 150.23 187.77 h 0 M 150.23 168.14 h 0 M 150.23 180.75 h 0 M 150.23 185.09 h 0 M 150.23 168.43 h 0 M 150.23 183.12 h 0 M 150.23 185.51 h 0 M 150.23 172.60 h 0 M 150.23 187.73 h 0 M 150.23 166.46 h 0 M 150.23 167.82 h 0 M 150.23 185.51 h 0 M 150.23 183.95 h 0 M 150.23 184.17 h 0 M 150.23 184.53 h 0 M 150.23 166.77 h 0 M 150.23 184.99 h 0 M 150.23 167.46 h 0 M 150.23 182.88 h 0 M 150.23 169.52 h 0 M 150.23 187.44 h 0 M 150.23 167.54 h 0 M 150.23 184.98 h 0 M 150.23 167.59 h 0 M 150.23 185.00 h 0 M 150.23 166.68 h 0 M 150.23 185.78 h 0 M 150.23 166.22 h 0 M 150.23 185.39 h 0 M 150.23 185.80 h 0 M 150.23 178.03 h 0 M 150.23 166.32 h 0 M 150.23 181.32 h 0 M 150.23 170.49 h 0 M 150.23 187.14 h 0 M 150.23 183.68 h 0 M 150.23 174.65 h 0 M 150.23 189.25 h 0 M 150.23 186.71 h 0 M 150.23 168.27 h 0 M 150.23 184.98 h 0 M 150.23 170.76 h 0 M 150.23 179.42 h 0 M 150.23 186.44 h 0 M 150.23 168.76 h 0 M 150.23 181.18 h 0 M 150.23 177.71 h 0 M 150.23 167.04 h 0 M 150.23 186.47 h 0 M 150.23 167.43 h 0 M 150.23 183.35 h 0 M 150.23 185.49 h 0 M 150.23 178.78 h 0 M 150.23 184.73 h 0 M 150.23 167.65 h 0 M 150.23 181.15 h 0 M 150.23 185.40 h 0 M 150.23 170.86 h 0 M 150.23 175.83 h 0 M 150.23 186.18 h 0 M 150.23 167.09 h 0 M 150.23 184.87 h 0 M 150.23 168.19 h 0 M 150.23 182.71 h 0 M 150.23 179.43 h 0 M 150.23 183.73 h 0 M 150.23 166.94 h 0 M 150.23 180.25 h 0 M 150.23 182.49 h 0 M 150.23 166.36 h 0 M 150.23 184.21 h 0 M 150.23 187.84 h 0 M 150.23 165.71 h 0 M 150.23 183.76 h 0 M 150.23 167.63 h 0 M 150.23 184.59 h 0 M 150.23 165.22 h 0 M 150.23 182.81 h 0 M 150.23 186.85 h 0 M 150.23 184.38 h 0 M 150.23 167.63 h 0 M 150.23 183.60 h 0 M 150.23 173.22 h 0 M 150.23 189.82 h 0 M 150.23 169.53 h 0 M 150.23 184.12 h 0 M 150.23 186.63 h 0 M 150.23 185.40 h 0 M 150.23 167.10 h 0 M 150.23 184.30 h 0" /><text  class="poloto_labels poloto_text poloto_title" x="400" y="37.5" >Bench of differing parallel switch levels with abspiral(20,000,1.5)</text><text  class="poloto_labels poloto_text poloto_xname" x="400" y="481.25" >problem size at which to switch to sequential</text><text  class="poloto_labels poloto_text poloto_yname" transform="rotate(-90,37.5,250)" x="37.5" y="250" >Time in Seconds</text><text  class="poloto_tick_labels poloto_text" dominant-baseline="middle" text-anchor="start" x="150" y="70" ></text><line  class="poloto_axis_lines" stroke="black" x1="150" x2="144" y1="400" y2="400" /><text  class="poloto_tick_labels poloto_text" dominant-baseline="middle" text-anchor="end" x="135" y="400" >0e0</text><line  class="poloto_axis_lines" stroke="black" x1="150" x2="144" y1="354.4992506026574" y2="354.4992506026574" /><text  class="poloto_tick_labels poloto_text" dominant-baseline="middle" text-anchor="end" x="135" y="354.4992506026574" >0.0005</text><line  class="poloto_axis_lines" stroke="black" x1="150" x2="144" y1="308.9985012053148" y2="308.9985012053148" /><text  class="poloto_tick_labels poloto_text" dominant-baseline="middle" text-anchor="end" x="135" y="308.9985012053148" >0.0010</text><line  class="poloto_axis_lines" stroke="black" x1="150" x2="144" y1="263.49775180797224" y2="263.49775180797224" /><text  class="poloto_tick_labels poloto_text" dominant-baseline="middle" text-anchor="end" x="135" y="263.49775180797224" >0.0015</text><line  class="poloto_axis_lines" stroke="black" x1="150" x2="144" y1="217.9970024106297" y2="217.9970024106297" /><text  class="poloto_tick_labels poloto_text" dominant-baseline="middle" text-anchor="end" x="135" y="217.9970024106297" >0.0020</text><line  class="poloto_axis_lines" stroke="black" x1="150" x2="144" y1="172.49625301328712" y2="172.49625301328712" /><text  class="poloto_tick_labels poloto_text" dominant-baseline="middle" text-anchor="end" x="135" y="172.49625301328712" >0.0025</text><line  class="poloto_axis_lines" stroke="black" x1="150" x2="144" y1="126.99550361594453" y2="126.99550361594453" /><text  class="poloto_tick_labels poloto_text" dominant-baseline="middle" text-anchor="end" x="135" y="126.99550361594453" >0.0030</text><text  class="poloto_tick_labels poloto_text" dominant-baseline="middle" text-anchor="start" x="440.00000000000006" y="70" ></text><line  class="poloto_axis_lines" stroke="black" x1="150" x2="150" y1="400" y2="405" /><text  class="poloto_tick_labels poloto_text" dominant-baseline="start" text-anchor="middle" x="150" y="430" >0</text><line  class="poloto_axis_lines" stroke="black" x1="275.6281407035176" x2="275.6281407035176" y1="400" y2="405" /><text  class="poloto_tick_labels poloto_text" dominant-baseline="start" text-anchor="middle" x="275.6281407035176" y="430" >5000</text><line  class="poloto_axis_lines" stroke="black" x1="401.2562814070352" x2="401.2562814070352" y1="400" y2="405" /><text  class="poloto_tick_labels poloto_text" dominant-baseline="start" text-anchor="middle" x="401.2562814070352" y="430" >10000</text><line  class="poloto_axis_lines" stroke="black" x1="526.8844221105528" x2="526.8844221105528" y1="400" y2="405" /><text  class="poloto_tick_labels poloto_text" dominant-baseline="start" text-anchor="middle" x="526.8844221105528" y="430" >15000</text><path  stroke="black" fill="none" class="poloto_axis_lines" style="stroke-dasharray:12.56281407035176;stroke-dashoffset:-0;" d=" M 150 400 L 650 400" /><path  stroke="black" fill="none" class="poloto_axis_lines" style="stroke-dasharray:4.550074939734257;stroke-dashoffset:-0;" d=" M 150 400 L 150 100" /></svg>