<svg  width="800" class="poloto_background poloto" height="500" viewBox="0 0 800 500" xmlns="http://www.w3.org/2000/svg" ><text  class="poloto_text" alignment-baseline="middle" text-anchor="start" font-size="large" x="675" y="100" >Rebal Par</text><line  class="scatter poloto0stroke poloto0legend" stroke="black" x1="685" x2="685" y1="81.25" y2="81.25" /><path  class="scatter poloto0stroke" d=" M 150 371.25980250845896 h 0 M 150 399.3934745299513 h 0 M 150 399.3141822223778 h 0 M 150 399.4544056665804 h 0 M 150 398.7666202922721 h 0 M 150 398.21326590463264 h 0 M 150 399.71517658812485 h 0 M 150 399.4568513708724 h 0 M 150 399.4925347481559 h 0 M 150 399.2921616893724 h 0 M 150 399.46397701307666 h 0 M 150 399.48100499935055 h 0 M 150 399.5388927971802 h 0 M 150 399.47118540467426 h 0 M 150 399.53552765518435 h 0 M 150 399.50263936852036 h 0 M 205.55555555555554 399.50840424292306 h 0 M 205.55555555555554 399.50263936852036 h 0 M 205.55555555555554 399.6647270413187 h 0 M 205.55555555555554 399.4184556523628 h 0 M 205.55555555555554 399.64450860621275 h 0 M 205.55555555555554 398.97177442711524 h 0 M 205.55555555555554 399.51525405381614 h 0 M 205.55555555555554 399.4974077679859 h 0 M 205.55555555555554 399.58438657476296 h 0 M 205.55555555555554 399.54514497356587 h 0 M 205.55555555555554 399.5982608897129 h 0 M 205.55555555555554 399.6970452766064 h 0 M 205.55555555555554 399.2738372959362 h 0 M 205.55555555555554 399.3364326148091 h 0 M 205.55555555555554 399.5339370279568 h 0 M 205.55555555555554 399.3824964437682 h 0 M 261.1111111111111 399.51590685458586 h 0 M 261.1111111111111 399.5948221927008 h 0 M 261.1111111111111 399.9059874947891 h 0 M 261.1111111111111 399.6240695060578 h 0 M 261.1111111111111 399.6015616710694 h 0 M 261.1111111111111 399.5960726279779 h 0 M 261.1111111111111 399.6167048100506 h 0 M 261.1111111111111 399.64761630565147 h 0 M 261.1111111111111 399.7682557267637 h 0 M 261.1111111111111 399.57800567709876 h 0 M 261.1111111111111 399.59135591255756 h 0 M 261.1111111111111 399.61253056287546 h 0 M 261.1111111111111 399.23748272912894 h 0 M 261.1111111111111 399.58411993782886 h 0 M 261.1111111111111 399.60619563709645 h 0 M 261.1111111111111 399.5175066761904 h 0 M 316.6666666666667 398.83684694408635 h 0 M 316.6666666666667 398.64394891383455 h 0 M 316.6666666666667 397.55861706516833 h 0 M 316.6666666666667 399.24667710616666 h 0 M 316.6666666666667 399.6403067759065 h 0 M 316.6666666666667 399.50685039320365 h 0 M 316.6666666666667 399.639939000825 h 0 M 316.6666666666667 399.60597497204753 h 0 M 316.6666666666667 399.62535671884314 h 0 M 316.6666666666667 399.55105695800114 h 0 M 316.6666666666667 399.94780352155675 h 0 M 316.6666666666667 399.91862976321596 h 0 M 316.6666666666667 399.79725479194076 h 0 M 316.6666666666667 399.9947040388263 h 0 M 316.6666666666667 399.97095496293775 h 0 M 316.6666666666667 399.61672319880466 h 0 M 372.22222222222223 399.43914300069775 h 0 M 372.22222222222223 399.34684064961584 h 0 M 372.22222222222223 399.4112104832571 h 0 M 372.22222222222223 399.94616692244404 h 0 M 372.22222222222223 400 h 0 M 372.22222222222223 398.13151869839004 h 0 M 372.22222222222223 399.8801145178049 h 0 M 372.22222222222223 399.95617040466107 h 0 M 372.22222222222223 399.4878364214896 h 0 M 372.22222222222223 399.43839825615765 h 0 M 372.22222222222223 399.35797504020854 h 0 M 372.22222222222223 398.09805116597266 h 0 M 372.22222222222223 399.400471450877 h 0 M 372.22222222222223 399.7189278939562 h 0 M 372.22222222222223 399.7587303521526 h 0 M 372.22222222222223 399.8230634082857 h 0 M 427.77777777777777 399.41224944786234 h 0 M 427.77777777777777 399.35164011442953 h 0 M 427.77777777777777 399.3775314801678 h 0 M 427.77777777777777 399.2913801673242 h 0 M 427.77777777777777 399.3441466971438 h 0 M 427.77777777777777 399.4463146147872 h 0 M 427.77777777777777 399.80199909049225 h 0 M 427.77777777777777 399.40365270533204 h 0 M 427.77777777777777 398.9556934616762 h 0 M 427.77777777777777 399.66504884451507 h 0 M 427.77777777777777 399.35406742996753 h 0 M 427.77777777777777 398.3773579516252 h 0 M 427.77777777777777 398.8856323086486 h 0 M 427.77777777777777 399.36104596213914 h 0 M 427.77777777777777 399.89860441002776 h 0 M 427.77777777777777 399.4003611183525 h 0 M 483.33333333333337 399.4670019631221 h 0 M 483.33333333333337 399.9669186314182 h 0 M 483.33333333333337 399.4485396540303 h 0 M 483.33333333333337 399.8950829636223 h 0 M 483.33333333333337 399.9024292708755 h 0 M 483.33333333333337 399.91754482672553 h 0 M 483.33333333333337 399.96534639294475 h 0 M 483.33333333333337 399.7574615281214 h 0 M 483.33333333333337 399.9365771871937 h 0 M 483.33333333333337 399.4567962046102 h 0 M 483.33333333333337 399.3910012425281 h 0 M 483.33333333333337 399.40311943146384 h 0 M 483.33333333333337 399.34845885997447 h 0 M 483.33333333333337 399.3609540183688 h 0 M 483.33333333333337 399.52051323748174 h 0 M 483.33333333333337 399.6379438210078 h 0 M 538.8888888888889 399.86909965411365 h 0 M 538.8888888888889 399.95927810409984 h 0 M 538.8888888888889 399.7106713433763 h 0 M 538.8888888888889 399.7631620418848 h 0 M 538.8888888888889 399.3657075112973 h 0 M 538.8888888888889 399.2336578682812 h 0 M 538.8888888888889 398.6027121328203 h 0 M 538.8888888888889 399.2873714189357 h 0 M 538.8888888888889 399.4390142794192 h 0 M 538.8888888888889 399.46652385551613 h 0 M 538.8888888888889 399.242364943336 h 0 M 538.8888888888889 396.8144149933564 h 0 M 538.8888888888889 399.42057955345854 h 0 M 538.8888888888889 399.2774322973579 h 0 M 538.8888888888889 399.3765017099396 h 0 M 538.8888888888889 399.3705805311273 h 0 M 594.4444444444445 395.41621688285 h 0 M 594.4444444444445 395.35097358339016 h 0 M 594.4444444444445 397.1841484771752 h 0 M 594.4444444444445 395.1898421258037 h 0 M 594.4444444444445 397.33181017240133 h 0 M 594.4444444444445 395.38856019672045 h 0 M 594.4444444444445 395.3600944054116 h 0 M 594.4444444444445 395.277115152646 h 0 M 594.4444444444445 397.06075993732867 h 0 M 594.4444444444445 394.7351250150251 h 0 M 594.4444444444445 395.31657741889194 h 0 M 594.4444444444445 395.3970925786115 h 0 M 594.4444444444445 395.1795812010296 h 0 M 594.4444444444445 397.13088545099555 h 0 M 594.4444444444445 395.2923962072827 h 0 M 594.4444444444445 395.4396441555421 h 0 M 650 389.99675683673956 h 0 M 650 390.0667076572427 h 0 M 650 390.1800191598558 h 0 M 650 390.14202799393587 h 0 M 650 389.9284977816113 h 0 M 650 389.94486377273853 h 0 M 650 390.13686075404064 h 0 M 650 389.97012072646123 h 0 M 650 390.12680210556135 h 0 M 650 390.18044210119956 h 0 M 650 390.0576328071064 h 0 M 650 389.61913457742247 h 0 M 650 390.09949480575926 h 0 M 650 390.0443469322869 h 0 M 650 390.1041563549174 h 0 M 650 389.9362486414542 h 0" /><text  class="poloto_text" alignment-baseline="middle" text-anchor="start" font-size="large" x="675" y="150" >Query Par</text><line  class="scatter poloto1stroke poloto1legend" stroke="black" x1="685" x2="685" y1="131.25" y2="131.25" /><path  class="scatter poloto1stroke" d=" M 150 226.21106648705344 h 0 M 150 232.109011108585 h 0 M 150 230.03858450971808 h 0 M 150 249.24611624916733 h 0 M 150 246.21718503849286 h 0 M 150 246.8324635554815 h 0 M 150 247.27255241239303 h 0 M 150 237.81665051418938 h 0 M 150 245.92946539785078 h 0 M 150 244.23390274518962 h 0 M 150 246.02093106062222 h 0 M 150 247.17201189948534 h 0 M 150 246.52937091643233 h 0 M 150 247.20191201361206 h 0 M 150 245.79707556288434 h 0 M 150 243.11771456718478 h 0 M 205.55555555555554 247.51659876210584 h 0 M 205.55555555555554 248.0518034494728 h 0 M 205.55555555555554 247.04523982888892 h 0 M 205.55555555555554 245.82377603380192 h 0 M 205.55555555555554 247.09301381197704 h 0 M 205.55555555555554 246.5915065164534 h 0 M 205.55555555555554 246.68322042740485 h 0 M 205.55555555555554 247.58984116958848 h 0 M 205.55555555555554 246.31134465373634 h 0 M 205.55555555555554 247.95311100634964 h 0 M 205.55555555555554 247.33263766633468 h 0 M 205.55555555555554 247.30212152894643 h 0 M 205.55555555555554 246.68562935418876 h 0 M 205.55555555555554 247.01171713020932 h 0 M 205.55555555555554 245.85838366897198 h 0 M 205.55555555555554 244.32399844578248 h 0 M 261.1111111111111 246.6888749692831 h 0 M 261.1111111111111 247.14201064721118 h 0 M 261.1111111111111 239.52359580562322 h 0 M 261.1111111111111 245.51851352177184 h 0 M 261.1111111111111 246.33048734672892 h 0 M 261.1111111111111 244.5985701272606 h 0 M 261.1111111111111 247.35765556625438 h 0 M 261.1111111111111 247.46281165643504 h 0 M 261.1111111111111 247.98830708165013 h 0 M 261.1111111111111 246.69842792702528 h 0 M 261.1111111111111 247.0916622385525 h 0 M 261.1111111111111 245.40101857760652 h 0 M 261.1111111111111 247.23651964878212 h 0 M 261.1111111111111 247.63850700724925 h 0 M 261.1111111111111 247.5233658236056 h 0 M 261.1111111111111 248.09537560225465 h 0 M 316.6666666666667 247.23496579906273 h 0 M 316.6666666666667 247.20809063498143 h 0 M 316.6666666666667 247.19399565498256 h 0 M 316.6666666666667 247.0778522842418 h 0 M 316.6666666666667 244.60012397697994 h 0 M 316.6666666666667 247.33653608219865 h 0 M 316.6666666666667 246.8012578398154 h 0 M 316.6666666666667 246.77345404365326 h 0 M 316.6666666666667 246.71751545375565 h 0 M 316.6666666666667 248.0998256807409 h 0 M 316.6666666666667 247.55470945492723 h 0 M 316.6666666666667 249.39865096422346 h 0 M 316.6666666666667 246.89983995041408 h 0 M 316.6666666666667 246.9015041326579 h 0 M 316.6666666666667 247.08090481741831 h 0 M 316.6666666666667 246.02534436160033 h 0 M 372.22222222222223 249.50984776011794 h 0 M 372.22222222222223 248.67693833864593 h 0 M 372.22222222222223 248.2552014583017 h 0 M 372.22222222222223 250.0537503281626 h 0 M 372.22222222222223 247.73732817165092 h 0 M 372.22222222222223 245.4032528112267 h 0 M 372.22222222222223 248.32232041067724 h 0 M 372.22222222222223 248.7825909251866 h 0 M 372.22222222222223 249.59291895665393 h 0 M 372.22222222222223 250.20157752217543 h 0 M 372.22222222222223 248.0599128900201 h 0 M 372.22222222222223 248.78156115495838 h 0 M 372.22222222222223 248.08155645356692 h 0 M 372.22222222222223 246.85868591879316 h 0 M 372.22222222222223 250.23668165370552 h 0 M 372.22222222222223 250.62660598949913 h 0 M 427.77777777777777 249.9850591373136 h 0 M 427.77777777777777 247.51559657500871 h 0 M 427.77777777777777 230.69395970496834 h 0 M 427.77777777777777 246.8422831501578 h 0 M 427.77777777777777 247.03722233211204 h 0 M 427.77777777777777 248.50225436930583 h 0 M 427.77777777777777 247.09779488803667 h 0 M 427.77777777777777 246.4010358017395 h 0 M 427.77777777777777 243.03142533868558 h 0 M 427.77777777777777 244.36660518897537 h 0 M 427.77777777777777 246.15508621597994 h 0 M 427.77777777777777 245.00339854823235 h 0 M 427.77777777777777 234.22167667556332 h 0 M 427.77777777777777 248.3551995029642 h 0 M 427.77777777777777 248.8375457167412 h 0 M 427.77777777777777 247.23084671814985 h 0 M 483.33333333333337 240.36827402970357 h 0 M 483.33333333333337 241.46476785209356 h 0 M 483.33333333333337 241.514325544327 h 0 M 483.33333333333337 247.21339579053222 h 0 M 483.33333333333337 242.11564699697237 h 0 M 483.33333333333337 240.07547909293666 h 0 M 483.33333333333337 241.10378741521478 h 0 M 483.33333333333337 245.98910012731756 h 0 M 483.33333333333337 239.74251392289187 h 0 M 483.33333333333337 241.74709039341448 h 0 M 483.33333333333337 237.71720413214916 h 0 M 483.33333333333337 245.48713311294202 h 0 M 483.33333333333337 247.02572016643782 h 0 M 483.33333333333337 245.88650926833043 h 0 M 483.33333333333337 242.22237532562647 h 0 M 483.33333333333337 241.86283840594263 h 0 M 538.8888888888889 242.40305402879517 h 0 M 538.8888888888889 241.0204036098595 h 0 M 538.8888888888889 238.6155591293758 h 0 M 538.8888888888889 238.67461461308923 h 0 M 538.8888888888889 238.30261931251923 h 0 M 538.8888888888889 240.16556559915247 h 0 M 538.8888888888889 241.4016024818443 h 0 M 538.8888888888889 240.18378885444127 h 0 M 538.8888888888889 240.21195123130786 h 0 M 538.8888888888889 245.83630796970436 h 0 M 538.8888888888889 236.90685771192776 h 0 M 538.8888888888889 240.23762193199724 h 0 M 538.8888888888889 241.15440246080755 h 0 M 538.8888888888889 241.40877409593372 h 0 M 538.8888888888889 241.05764083686236 h 0 M 538.8888888888889 239.8836200272901 h 0 M 594.4444444444445 201.020900719178 h 0 M 594.4444444444445 185.84694218618623 h 0 M 594.4444444444445 185.26856070425 h 0 M 594.4444444444445 202.9815556505913 h 0 M 594.4444444444445 186.96824243782405 h 0 M 594.4444444444445 185.23649071714235 h 0 M 594.4444444444445 201.18344811082824 h 0 M 594.4444444444445 201.8473740767236 h 0 M 594.4444444444445 201.2018828367889 h 0 M 594.4444444444445 202.3205902741021 h 0 M 594.4444444444445 183.9931167215744 h 0 M 594.4444444444445 183.15739382072886 h 0 M 594.4444444444445 183.26843431221366 h 0 M 594.4444444444445 184.8958850197792 h 0 M 594.4444444444445 184.03672565186443 h 0 M 594.4444444444445 185.79481006838222 h 0 M 650 103.17424833975599 h 0 M 650 103.09167363958005 h 0 M 650 101.53564485284369 h 0 M 650 103.45055775849426 h 0 M 650 104.6097296491505 h 0 M 650 103.03131255432726 h 0 M 650 103.56395201050066 h 0 M 650 102.7705692159139 h 0 M 650 103.30027566581236 h 0 M 650 104.1703487592709 h 0 M 650 101.78260582007738 h 0 M 650 102.19410935877858 h 0 M 650 100 h 0 M 650 100.31813463988289 h 0 M 650 102.2254897676084 h 0 M 650 103.43215061566468 h 0" /><text  class="poloto_text" alignment-baseline="middle" text-anchor="start" font-size="large" x="675" y="200" >Rebal</text><line  class="scatter poloto2stroke poloto2legend" stroke="black" x1="685" x2="685" y1="181.25" y2="181.25" /><path  class="scatter poloto2stroke" d=" M 650 390.04944981154284 h 0 M 650 390.106979028668 h 0 M 650 389.92833228282467 h 0 M 650 390.0737229669225 h 0 M 650 390.1509741227936 h 0 M 650 390.12373118363075 h 0 M 650 390.0827334564195 h 0 M 650 390.11444486282267 h 0 M 650 390.1226830246485 h 0 M 650 390.22419814152215 h 0 M 650 390.01349060294825 h 0 M 650 390.122324443944 h 0 M 650 390.16348766994196 h 0 M 650 390.13233712053807 h 0 M 650 390.150587958958 h 0 M 650 390.1593777834061 h 0 M 650 390.12931217049265 h 0 M 650 390.20443942526805 h 0 M 650 390.1349483236168 h 0 M 650 390.0344078107091 h 0 M 650 390.0072292321855 h 0 M 650 390.08116121794603 h 0 M 650 389.88939409606985 h 0 M 650 390.11683540085244 h 0 M 650 390.17961460726616 h 0 M 650 390.0073119815789 h 0 M 650 390.08174965807643 h 0 M 650 390.1182513349163 h 0 M 650 390.1438852580975 h 0 M 650 389.1019600634265 h 0 M 650 389.8297961441112 h 0 M 650 390.0042318652712 h 0 M 650 390.18684138761785 h 0 M 650 390.1525003893819 h 0 M 650 390.17966057915135 h 0 M 650 389.8480929544163 h 0 M 650 390.0799843376852 h 0 M 650 390.0987684499733 h 0 M 650 390.08752372685615 h 0 M 650 390.1686641042142 h 0 M 650 390.04475148487654 h 0 M 650 390.0701463542548 h 0 M 650 390.1358125950584 h 0 M 650 390.02638111955514 h 0 M 650 390.1433244010982 h 0 M 650 390.1214969500106 h 0 M 650 390.0542124988484 h 0 M 650 389.84430487107676 h 0 M 650 390.04076112524217 h 0 M 650 390.099669498923 h 0 M 650 390.12599300038204 h 0 M 650 390.14141197067437 h 0 M 650 390.1895445344669 h 0 M 650 390.13121540653947 h 0 M 650 389.9928676152526 h 0 M 650 390.1479491727482 h 0 M 650 390.0719208690231 h 0 M 650 389.837547003954 h 0 M 650 389.2824364903003 h 0 M 650 390.11786517108067 h 0 M 650 389.9754718538972 h 0 M 650 389.89053419882254 h 0 M 650 390.0859514883827 h 0 M 650 390.1269308268399 h 0 M 650 390.0314839988111 h 0 M 650 390.168112441592 h 0 M 650 390.0637378734595 h 0 M 650 390.1235932679752 h 0 M 650 390.1018945381661 h 0 M 650 390.13503107301017 h 0 M 650 390.17076961655584 h 0 M 650 390.1720660237182 h 0 M 650 390.00705453902185 h 0 M 650 390.1093419835667 h 0 M 650 390.03301026539935 h 0 M 650 390.0445216254506 h 0 M 650 390.0726104473009 h 0 M 650 390.02241834305187 h 0 M 650 390.1273997400688 h 0 M 650 390.1448138901783 h 0 M 650 390.10620670099684 h 0 M 650 389.84049839898313 h 0 M 650 390.1046620456545 h 0 M 650 389.8892837635454 h 0 M 650 390.04652599964487 h 0 M 650 390.1113187746298 h 0 M 650 389.8280032405888 h 0 M 650 390.10509418137525 h 0 M 650 389.9671601370551 h 0 M 650 390.15303366325 h 0 M 650 390.12373118363075 h 0 M 650 390.0707256000082 h 0 M 650 390.1160538788043 h 0 M 650 390.1421383264603 h 0 M 650 389.8004660813608 h 0 M 650 389.5394653003904 h 0 M 650 390.0086819437575 h 0 M 650 390.0912382551794 h 0 M 650 390.14734234386367 h 0 M 650 390.13318300322555 h 0" /><text  class="poloto_text" alignment-baseline="middle" text-anchor="start" font-size="large" x="675" y="250" >Query</text><line  class="scatter poloto3stroke poloto3legend" stroke="black" x1="685" x2="685" y1="231.25" y2="231.25" /><path  class="scatter poloto3stroke" d=" M 650 384.1063424100019 h 0 M 650 385.33797518609265 h 0 M 650 386.2565210352942 h 0 M 650 384.20498888123984 h 0 M 650 385.893977554319 h 0 M 650 385.2824595375388 h 0 M 650 384.38718465661975 h 0 M 650 384.1189111234125 h 0 M 650 384.1388813103385 h 0 M 650 385.2674267310821 h 0 M 650 384.65382159071424 h 0 M 650 384.32967382824864 h 0 M 650 384.2473473762527 h 0 M 650 384.2790128107707 h 0 M 650 384.2317721015508 h 0 M 650 386.01177591292657 h 0 M 650 384.4321451603343 h 0 M 650 384.27450756602224 h 0 M 650 385.20172371277033 h 0 M 650 384.5460542974549 h 0 M 650 386.2343166147481 h 0 M 650 384.846949480392 h 0 M 650 384.5596251979626 h 0 M 650 384.36769257729975 h 0 M 650 385.97121032143605 h 0 M 650 384.6310103412836 h 0 M 650 384.28894273797147 h 0 M 650 384.4156320591745 h 0 M 650 384.229629811701 h 0 M 650 382.69511586723297 h 0 M 650 383.7292350357989 h 0 M 650 385.8662381187961 h 0 M 650 384.2510343214449 h 0 M 650 384.16153625535947 h 0 M 650 384.29500183243937 h 0 M 650 385.9068220990407 h 0 M 650 384.31374916721927 h 0 M 650 384.28820718780844 h 0 M 650 384.32316420930596 h 0 M 650 384.3248008084187 h 0 M 650 386.22826671465725 h 0 M 650 384.3967835862471 h 0 M 650 386.0393406552857 h 0 M 650 384.45064424693425 h 0 M 650 384.24698879554825 h 0 M 650 385.23758178321754 h 0 M 650 384.38357126644394 h 0 M 650 386.2385092506773 h 0 M 650 385.15121899970205 h 0 M 650 384.34886249312643 h 0 M 650 384.36798679736495 h 0 M 650 384.2290137884395 h 0 M 650 384.1328681877558 h 0 M 650 385.3792671333692 h 0 M 650 384.42305192144397 h 0 M 650 385.9516538814768 h 0 M 650 384.4245965767863 h 0 M 650 386.360251997034 h 0 M 650 383.9791106205536 h 0 M 650 385.3700175900692 h 0 M 650 385.43477358754603 h 0 M 650 385.304682346839 h 0 M 650 384.3079842928166 h 0 M 650 386.0286292060367 h 0 M 650 384.53025835770404 h 0 M 650 384.04905224667976 h 0 M 650 384.1753370152931 h 0 M 650 384.21861494800976 h 0 M 650 384.2327283167627 h 0 M 650 384.47264639118555 h 0 M 650 384.47627817011545 h 0 M 650 385.3555548349888 h 0 M 650 384.6036019033341 h 0 M 650 385.38820406784987 h 0 M 650 384.64003002515767 h 0 M 650 386.20129960680555 h 0 M 650 385.4884135831842 h 0 M 650 384.6143133525831 h 0 M 650 384.3418104059385 h 0 M 650 384.2755189474964 h 0 M 650 384.6714288227415 h 0 M 650 385.5131924293009 h 0 M 650 384.49408767843755 h 0 M 650 385.24696004779605 h 0 M 650 384.5339453028962 h 0 M 650 385.9542007239162 h 0 M 650 385.5050002393603 h 0 M 650 385.3480890008342 h 0 M 650 384.4577882778926 h 0 M 650 384.3069085507032 h 0 M 650 385.5298434461163 h 0 M 650 384.3882052324709 h 0 M 650 384.40562857695744 h 0 M 650 384.4553609623546 h 0 M 650 386.2721974481436 h 0 M 650 386.0895511482888 h 0 M 650 384.4001855057511 h 0 M 650 384.0707509764888 h 0 M 650 384.49106272839214 h 0 M 650 384.1908203462247 h 0" /><text  class="poloto_text" alignment-baseline="start" text-anchor="middle" font-size="x-large" x="400" y="37.5" >Bench of differing parallel switch levels with abspiral(20,000,1.5)</text><text  class="poloto_text" alignment-baseline="start" text-anchor="middle" font-size="x-large" x="400" y="481.25" >Height at which to switch to sequential</text><text  class="poloto_text" alignment-baseline="start" text-anchor="middle" font-size="x-large" transform="rotate(-90,37.5,250)" x="37.5" y="250" >Time in Seconds</text><line  class="poloto_axis_lines" stroke="black" x1="205.55555555555554" x2="205.55555555555554" y1="400" y2="405" /><text  class="poloto_text" alignment-baseline="start" text-anchor="middle" x="205.55555555555554" y="430" > 2</text><line  class="poloto_axis_lines" stroke="black" x1="316.6666666666667" x2="316.6666666666667" y1="400" y2="405" /><text  class="poloto_text" alignment-baseline="start" text-anchor="middle" x="316.6666666666667" y="430" > 4</text><line  class="poloto_axis_lines" stroke="black" x1="427.77777777777777" x2="427.77777777777777" y1="400" y2="405" /><text  class="poloto_text" alignment-baseline="start" text-anchor="middle" x="427.77777777777777" y="430" > 6</text><line  class="poloto_axis_lines" stroke="black" x1="538.8888888888889" x2="538.8888888888889" y1="400" y2="405" /><text  class="poloto_text" alignment-baseline="start" text-anchor="middle" x="538.8888888888889" y="430" > 8</text><line  class="poloto_axis_lines" stroke="black" x1="650" x2="650" y1="400" y2="405" /><text  class="poloto_text" alignment-baseline="start" text-anchor="middle" x="650" y="430" > 10</text><line  class="poloto_axis_lines" stroke="black" x1="150" x2="144" y1="315.18809642008347" y2="315.18809642008347" /><text  class="poloto_text" alignment-baseline="middle" text-anchor="end" x="135" y="315.18809642008347" > 0.01</text><line  class="poloto_axis_lines" stroke="black" x1="150" x2="144" y1="223.24432604266224" y2="223.24432604266224" /><text  class="poloto_text" alignment-baseline="middle" text-anchor="end" x="135" y="223.24432604266224" > 0.02</text><line  class="poloto_axis_lines" stroke="black" x1="150" x2="144" y1="131.300555665241" y2="131.300555665241" /><text  class="poloto_text" alignment-baseline="middle" text-anchor="end" x="135" y="131.300555665241" > 0.03</text><path  stroke="black" fill="none" class="poloto_axis_lines" style="stroke-dasharray:9.25925925925926;stroke-dashoffset:-55.55555555555556;" d=" M 150 400 L 650 400" /><path  stroke="black" fill="none" class="poloto_axis_lines" style="stroke-dasharray:9.194377037742123;stroke-dashoffset:-84.81190357991652;" d=" M 150 400 L 150 100" /></svg>