<svg class="poloto" width="800" height="500" viewBox="0 0 800 500" xmlns="http://www.w3.org/2000/svg"><circle  r="1e5" class="poloto_background" /><text  class="poloto_text poloto_legend_text" x="675" y="100" >Rebal Par</text><line  class="poloto_scatter poloto_legend_icon poloto0stroke poloto0legend" stroke="black" x1="685" x2="685" y1="81.25" y2="81.25" /><path  class="poloto_scatter poloto0stroke" d=" M 150.00 244.52 h 0 M 152.51 346.95 h 0 M 155.03 364.50 h 0 M 157.54 363.25 h 0 M 160.05 363.64 h 0 M 162.56 362.89 h 0 M 165.08 353.62 h 0 M 167.59 363.52 h 0 M 170.10 362.26 h 0 M 172.61 361.73 h 0 M 175.13 356.77 h 0 M 177.64 362.20 h 0 M 180.15 359.99 h 0 M 182.66 361.87 h 0 M 185.18 361.86 h 0 M 187.69 354.55 h 0 M 190.20 342.61 h 0 M 192.71 349.47 h 0 M 195.23 357.32 h 0 M 197.74 358.31 h 0 M 200.25 359.68 h 0 M 202.76 363.33 h 0 M 205.28 358.51 h 0 M 207.79 361.82 h 0 M 210.30 359.39 h 0 M 212.81 359.74 h 0 M 215.33 353.42 h 0 M 217.84 354.03 h 0 M 220.35 357.09 h 0 M 222.86 358.99 h 0 M 225.38 357.65 h 0 M 227.89 355.35 h 0 M 230.40 356.22 h 0 M 232.91 354.13 h 0 M 235.43 359.04 h 0 M 237.94 359.59 h 0 M 240.45 358.35 h 0 M 242.96 355.08 h 0 M 245.48 359.14 h 0 M 247.99 358.75 h 0 M 250.50 353.48 h 0 M 253.02 358.77 h 0 M 255.53 359.10 h 0 M 258.04 354.29 h 0 M 260.55 360.16 h 0 M 263.07 355.43 h 0 M 265.58 355.16 h 0 M 268.09 353.70 h 0 M 270.60 359.85 h 0 M 273.12 357.69 h 0 M 275.63 357.66 h 0 M 278.14 356.09 h 0 M 280.65 353.70 h 0 M 283.17 356.09 h 0 M 285.68 357.79 h 0 M 288.19 356.00 h 0 M 290.70 352.91 h 0 M 293.22 356.17 h 0 M 295.73 357.59 h 0 M 298.24 351.95 h 0 M 300.75 353.81 h 0 M 303.27 356.83 h 0 M 305.78 352.77 h 0 M 308.29 356.74 h 0 M 310.80 357.63 h 0 M 313.32 356.98 h 0 M 315.83 353.67 h 0 M 318.34 357.79 h 0 M 320.85 356.05 h 0 M 323.37 356.45 h 0 M 325.88 357.26 h 0 M 328.39 357.57 h 0 M 330.90 352.10 h 0 M 333.42 356.17 h 0 M 335.93 357.51 h 0 M 338.44 356.61 h 0 M 340.95 357.74 h 0 M 343.47 357.34 h 0 M 345.98 355.76 h 0 M 348.49 357.66 h 0 M 351.01 352.73 h 0 M 353.52 356.26 h 0 M 356.03 357.26 h 0 M 358.54 357.53 h 0 M 361.06 352.39 h 0 M 363.57 356.27 h 0 M 366.08 357.57 h 0 M 368.59 353.15 h 0 M 371.11 352.07 h 0 M 373.62 355.80 h 0 M 376.13 357.54 h 0 M 378.64 356.77 h 0 M 381.16 356.13 h 0 M 383.67 356.68 h 0 M 386.18 357.29 h 0 M 388.69 352.87 h 0 M 391.21 356.07 h 0 M 393.72 357.79 h 0 M 396.23 322.60 h 0 M 398.74 322.27 h 0 M 401.26 323.14 h 0 M 403.77 322.53 h 0 M 406.28 323.41 h 0 M 408.79 323.39 h 0 M 411.31 323.56 h 0 M 413.82 334.04 h 0 M 416.33 321.87 h 0 M 418.84 323.31 h 0 M 421.36 322.96 h 0 M 423.87 336.26 h 0 M 426.38 336.33 h 0 M 428.89 335.78 h 0 M 431.41 337.10 h 0 M 433.92 337.03 h 0 M 436.43 336.01 h 0 M 438.94 336.31 h 0 M 441.46 336.66 h 0 M 443.97 336.23 h 0 M 446.48 335.67 h 0 M 448.99 336.59 h 0 M 451.51 337.16 h 0 M 454.02 322.52 h 0 M 456.53 336.76 h 0 M 459.05 323.06 h 0 M 461.56 322.39 h 0 M 464.07 323.14 h 0 M 466.58 328.51 h 0 M 469.10 336.51 h 0 M 471.61 336.90 h 0 M 474.12 337.11 h 0 M 476.63 336.82 h 0 M 479.15 337.22 h 0 M 481.66 336.80 h 0 M 484.17 333.40 h 0 M 486.68 336.68 h 0 M 489.20 336.38 h 0 M 491.71 336.21 h 0 M 494.22 335.59 h 0 M 496.73 336.66 h 0 M 499.25 336.27 h 0 M 501.76 334.61 h 0 M 504.27 336.77 h 0 M 506.78 335.99 h 0 M 509.30 336.82 h 0 M 511.81 336.91 h 0 M 514.32 336.42 h 0 M 516.83 336.63 h 0 M 519.35 336.93 h 0 M 521.86 336.56 h 0 M 524.37 337.20 h 0 M 526.88 334.11 h 0 M 529.40 334.00 h 0 M 531.91 336.57 h 0 M 534.42 336.38 h 0 M 536.93 334.26 h 0 M 539.45 336.62 h 0 M 541.96 336.49 h 0 M 544.47 337.00 h 0 M 546.98 337.06 h 0 M 549.50 331.99 h 0 M 552.01 335.89 h 0 M 554.52 336.54 h 0 M 557.04 337.14 h 0 M 559.55 336.47 h 0 M 562.06 336.69 h 0 M 564.57 336.94 h 0 M 567.09 336.74 h 0 M 569.60 336.29 h 0 M 572.11 336.48 h 0 M 574.62 336.28 h 0 M 577.14 336.38 h 0 M 579.65 337.08 h 0 M 582.16 336.54 h 0 M 584.67 334.44 h 0 M 587.19 336.98 h 0 M 589.70 336.21 h 0 M 592.21 336.82 h 0 M 594.72 337.16 h 0 M 597.24 100.00 h 0 M 599.75 303.67 h 0 M 602.26 322.70 h 0 M 604.77 320.46 h 0 M 607.29 323.42 h 0 M 609.80 323.30 h 0 M 612.31 323.11 h 0 M 614.82 323.63 h 0 M 617.34 335.55 h 0 M 619.85 336.39 h 0 M 622.36 336.04 h 0 M 624.87 336.99 h 0 M 627.39 336.81 h 0 M 629.90 337.15 h 0 M 632.41 337.18 h 0 M 634.92 336.60 h 0 M 637.44 336.94 h 0 M 639.95 322.51 h 0 M 642.46 323.27 h 0 M 644.97 322.92 h 0 M 647.49 323.38 h 0 M 650.00 323.02 h 0" /><text  class="poloto_text poloto_legend_text" x="675" y="150" >Query Par</text><line  class="poloto_scatter poloto_legend_icon poloto1stroke poloto1legend" stroke="black" x1="685" x2="685" y1="131.25" y2="131.25" /><path  class="poloto_scatter poloto1stroke" d=" M 150.00 351.47 h 0 M 152.51 346.44 h 0 M 155.03 354.40 h 0 M 157.54 350.76 h 0 M 160.05 351.04 h 0 M 162.56 352.35 h 0 M 165.08 348.48 h 0 M 167.59 351.82 h 0 M 170.10 349.12 h 0 M 172.61 352.27 h 0 M 175.13 352.02 h 0 M 177.64 350.08 h 0 M 180.15 347.86 h 0 M 182.66 352.01 h 0 M 185.18 350.68 h 0 M 187.69 351.94 h 0 M 190.20 350.11 h 0 M 192.71 352.02 h 0 M 195.23 350.75 h 0 M 197.74 350.10 h 0 M 200.25 352.08 h 0 M 202.76 351.64 h 0 M 205.28 349.84 h 0 M 207.79 351.62 h 0 M 210.30 337.76 h 0 M 212.81 338.60 h 0 M 215.33 337.21 h 0 M 217.84 336.87 h 0 M 220.35 335.69 h 0 M 222.86 337.09 h 0 M 225.38 336.79 h 0 M 227.89 335.68 h 0 M 230.40 337.71 h 0 M 232.91 337.70 h 0 M 235.43 336.98 h 0 M 237.94 336.05 h 0 M 240.45 337.98 h 0 M 242.96 338.77 h 0 M 245.48 336.72 h 0 M 247.99 337.32 h 0 M 250.50 336.07 h 0 M 253.02 336.48 h 0 M 255.53 341.29 h 0 M 258.04 338.63 h 0 M 260.55 337.59 h 0 M 263.07 338.57 h 0 M 265.58 334.70 h 0 M 268.09 344.30 h 0 M 270.60 342.18 h 0 M 273.12 336.49 h 0 M 275.63 334.11 h 0 M 278.14 340.02 h 0 M 280.65 331.60 h 0 M 283.17 337.75 h 0 M 285.68 336.96 h 0 M 288.19 334.37 h 0 M 290.70 340.61 h 0 M 293.22 336.86 h 0 M 295.73 335.22 h 0 M 298.24 334.10 h 0 M 300.75 339.17 h 0 M 303.27 338.74 h 0 M 305.78 340.79 h 0 M 308.29 338.92 h 0 M 310.80 339.90 h 0 M 313.32 339.42 h 0 M 315.83 339.09 h 0 M 318.34 339.60 h 0 M 320.85 340.63 h 0 M 323.37 339.51 h 0 M 325.88 339.97 h 0 M 328.39 340.62 h 0 M 330.90 338.92 h 0 M 333.42 339.44 h 0 M 335.93 332.35 h 0 M 338.44 334.15 h 0 M 340.95 339.68 h 0 M 343.47 336.44 h 0 M 345.98 334.75 h 0 M 348.49 334.18 h 0 M 351.01 335.11 h 0 M 353.52 336.64 h 0 M 356.03 338.19 h 0 M 358.54 337.40 h 0 M 361.06 332.59 h 0 M 363.57 336.31 h 0 M 366.08 333.21 h 0 M 368.59 338.17 h 0 M 371.11 334.71 h 0 M 373.62 339.07 h 0 M 376.13 339.75 h 0 M 378.64 338.14 h 0 M 381.16 334.08 h 0 M 383.67 338.49 h 0 M 386.18 338.34 h 0 M 388.69 335.47 h 0 M 391.21 334.51 h 0 M 393.72 335.40 h 0 M 396.23 305.62 h 0 M 398.74 307.22 h 0 M 401.26 306.56 h 0 M 403.77 281.33 h 0 M 406.28 307.09 h 0 M 408.79 306.46 h 0 M 411.31 307.67 h 0 M 413.82 300.27 h 0 M 416.33 306.21 h 0 M 418.84 305.51 h 0 M 421.36 297.88 h 0 M 423.87 305.25 h 0 M 426.38 307.08 h 0 M 428.89 285.50 h 0 M 431.41 306.14 h 0 M 433.92 285.96 h 0 M 436.43 306.32 h 0 M 438.94 301.71 h 0 M 441.46 299.84 h 0 M 443.97 306.77 h 0 M 446.48 285.05 h 0 M 448.99 286.38 h 0 M 451.51 286.60 h 0 M 454.02 305.64 h 0 M 456.53 287.98 h 0 M 459.05 286.63 h 0 M 461.56 306.38 h 0 M 464.07 306.97 h 0 M 466.58 306.42 h 0 M 469.10 306.52 h 0 M 471.61 307.15 h 0 M 474.12 304.38 h 0 M 476.63 305.74 h 0 M 479.15 307.94 h 0 M 481.66 306.34 h 0 M 484.17 306.87 h 0 M 486.68 306.11 h 0 M 489.20 306.51 h 0 M 491.71 306.29 h 0 M 494.22 285.94 h 0 M 496.73 307.06 h 0 M 499.25 306.73 h 0 M 501.76 285.79 h 0 M 504.27 305.80 h 0 M 506.78 285.87 h 0 M 509.30 284.33 h 0 M 511.81 305.83 h 0 M 514.32 286.78 h 0 M 516.83 306.69 h 0 M 519.35 305.51 h 0 M 521.86 285.39 h 0 M 524.37 305.63 h 0 M 526.88 285.22 h 0 M 529.40 286.07 h 0 M 531.91 287.26 h 0 M 534.42 282.95 h 0 M 536.93 302.25 h 0 M 539.45 305.36 h 0 M 541.96 306.17 h 0 M 544.47 306.35 h 0 M 546.98 306.57 h 0 M 549.50 306.09 h 0 M 552.01 306.91 h 0 M 554.52 304.99 h 0 M 557.04 304.96 h 0 M 559.55 304.55 h 0 M 562.06 306.96 h 0 M 564.57 306.20 h 0 M 567.09 306.70 h 0 M 569.60 305.41 h 0 M 572.11 303.82 h 0 M 574.62 306.62 h 0 M 577.14 284.44 h 0 M 579.65 286.68 h 0 M 582.16 285.08 h 0 M 584.67 287.98 h 0 M 587.19 287.98 h 0 M 589.70 306.41 h 0 M 592.21 306.22 h 0 M 594.72 307.17 h 0 M 597.24 306.77 h 0 M 599.75 306.81 h 0 M 602.26 306.21 h 0 M 604.77 305.34 h 0 M 607.29 305.82 h 0 M 609.80 307.37 h 0 M 612.31 306.85 h 0 M 614.82 305.62 h 0 M 617.34 305.72 h 0 M 619.85 306.44 h 0 M 622.36 306.47 h 0 M 624.87 306.70 h 0 M 627.39 305.45 h 0 M 629.90 306.93 h 0 M 632.41 306.73 h 0 M 634.92 286.76 h 0 M 637.44 306.11 h 0 M 639.95 306.66 h 0 M 642.46 306.65 h 0 M 644.97 305.94 h 0 M 647.49 304.46 h 0 M 650.00 306.08 h 0" /><text  class="poloto_text poloto_legend_text" x="675" y="200" >Rebal</text><line  class="poloto_scatter poloto_legend_icon poloto2stroke poloto2legend" stroke="black" x1="685" x2="685" y1="181.25" y2="181.25" /><path  class="poloto_scatter poloto2stroke" d=" M 150.23 337.02 h 0 M 150.23 337.02 h 0 M 150.23 337.04 h 0 M 150.23 337.04 h 0 M 150.23 333.03 h 0 M 150.23 336.36 h 0 M 150.23 331.62 h 0 M 150.23 336.78 h 0 M 150.23 331.79 h 0 M 150.23 336.31 h 0 M 150.23 336.18 h 0 M 150.23 337.00 h 0 M 150.23 336.41 h 0 M 150.23 337.33 h 0 M 150.23 336.44 h 0 M 150.23 337.13 h 0 M 150.23 337.39 h 0 M 150.23 335.87 h 0 M 150.23 336.20 h 0 M 150.23 332.34 h 0 M 150.23 336.08 h 0 M 150.23 336.85 h 0 M 150.23 336.67 h 0 M 150.23 337.18 h 0 M 150.23 336.25 h 0 M 150.23 336.95 h 0 M 150.23 336.93 h 0 M 150.23 336.98 h 0 M 150.23 337.28 h 0 M 150.23 336.82 h 0 M 150.23 337.09 h 0 M 150.23 336.90 h 0 M 150.23 337.39 h 0 M 150.23 336.67 h 0 M 150.23 336.44 h 0 M 150.23 337.25 h 0 M 150.23 337.13 h 0 M 150.23 336.40 h 0 M 150.23 337.09 h 0 M 150.23 336.79 h 0 M 150.23 337.05 h 0 M 150.23 337.56 h 0 M 150.23 336.99 h 0 M 150.23 337.03 h 0 M 150.23 336.37 h 0 M 150.23 337.20 h 0 M 150.23 337.06 h 0 M 150.23 337.52 h 0 M 150.23 337.28 h 0 M 150.23 337.30 h 0 M 150.23 337.11 h 0 M 150.23 337.18 h 0 M 150.23 336.63 h 0 M 150.23 337.15 h 0 M 150.23 337.20 h 0 M 150.23 336.81 h 0 M 150.23 336.77 h 0 M 150.23 336.56 h 0 M 150.23 337.13 h 0 M 150.23 337.15 h 0 M 150.23 336.22 h 0 M 150.23 337.43 h 0 M 150.23 337.28 h 0 M 150.23 337.00 h 0 M 150.23 336.48 h 0 M 150.23 337.28 h 0 M 150.23 337.04 h 0 M 150.23 337.54 h 0 M 150.23 335.98 h 0 M 150.23 337.15 h 0 M 150.23 337.49 h 0 M 150.23 337.32 h 0 M 150.23 336.84 h 0 M 150.23 337.21 h 0 M 150.23 337.04 h 0 M 150.23 337.05 h 0 M 150.23 336.35 h 0 M 150.23 337.47 h 0 M 150.23 337.16 h 0 M 150.23 337.24 h 0 M 150.23 337.13 h 0 M 150.23 337.25 h 0 M 150.23 336.49 h 0 M 150.23 337.00 h 0 M 150.23 336.03 h 0 M 150.23 336.99 h 0 M 150.23 336.66 h 0 M 150.23 336.44 h 0 M 150.23 337.13 h 0 M 150.23 337.20 h 0 M 150.23 337.07 h 0 M 150.23 336.31 h 0 M 150.23 336.55 h 0 M 150.23 337.14 h 0 M 150.23 337.06 h 0 M 150.23 336.49 h 0 M 150.23 336.98 h 0 M 150.23 336.74 h 0 M 150.23 337.32 h 0 M 150.23 336.91 h 0" /><text  class="poloto_text poloto_legend_text" x="675" y="250" >Query</text><line  class="poloto_scatter poloto_legend_icon poloto3stroke poloto3legend" stroke="black" x1="685" x2="685" y1="231.25" y2="231.25" /><path  class="poloto_scatter poloto3stroke" d=" M 150.23 299.82 h 0 M 150.23 307.27 h 0 M 150.23 304.71 h 0 M 150.23 306.26 h 0 M 150.23 307.24 h 0 M 150.23 308.46 h 0 M 150.23 297.79 h 0 M 150.23 304.05 h 0 M 150.23 305.77 h 0 M 150.23 298.67 h 0 M 150.23 307.26 h 0 M 150.23 302.05 h 0 M 150.23 304.01 h 0 M 150.23 300.83 h 0 M 150.23 305.88 h 0 M 150.23 307.37 h 0 M 150.23 307.01 h 0 M 150.23 294.49 h 0 M 150.23 298.91 h 0 M 150.23 307.73 h 0 M 150.23 303.04 h 0 M 150.23 297.86 h 0 M 150.23 308.38 h 0 M 150.23 304.57 h 0 M 150.23 299.60 h 0 M 150.23 303.28 h 0 M 150.23 300.48 h 0 M 150.23 307.26 h 0 M 150.23 302.58 h 0 M 150.23 300.17 h 0 M 150.23 308.06 h 0 M 150.23 306.87 h 0 M 150.23 307.19 h 0 M 150.23 307.09 h 0 M 150.23 301.54 h 0 M 150.23 307.09 h 0 M 150.23 300.17 h 0 M 150.23 308.00 h 0 M 150.23 301.58 h 0 M 150.23 308.10 h 0 M 150.23 300.35 h 0 M 150.23 307.12 h 0 M 150.23 307.65 h 0 M 150.23 307.76 h 0 M 150.23 306.87 h 0 M 150.23 307.54 h 0 M 150.23 300.39 h 0 M 150.23 307.95 h 0 M 150.23 307.26 h 0 M 150.23 307.36 h 0 M 150.23 307.80 h 0 M 150.23 308.11 h 0 M 150.23 307.02 h 0 M 150.23 299.68 h 0 M 150.23 307.47 h 0 M 150.23 304.31 h 0 M 150.23 306.54 h 0 M 150.23 299.81 h 0 M 150.23 308.06 h 0 M 150.23 307.29 h 0 M 150.23 300.94 h 0 M 150.23 307.26 h 0 M 150.23 307.46 h 0 M 150.23 307.92 h 0 M 150.23 301.78 h 0 M 150.23 307.84 h 0 M 150.23 299.30 h 0 M 150.23 307.14 h 0 M 150.23 307.54 h 0 M 150.23 299.78 h 0 M 150.23 307.99 h 0 M 150.23 307.39 h 0 M 150.23 299.92 h 0 M 150.23 307.50 h 0 M 150.23 308.11 h 0 M 150.23 307.49 h 0 M 150.23 299.75 h 0 M 150.23 307.67 h 0 M 150.23 299.64 h 0 M 150.23 307.60 h 0 M 150.23 307.76 h 0 M 150.23 302.25 h 0 M 150.23 306.57 h 0 M 150.23 307.85 h 0 M 150.23 307.29 h 0 M 150.23 307.39 h 0 M 150.23 306.84 h 0 M 150.23 307.70 h 0 M 150.23 300.11 h 0 M 150.23 306.97 h 0 M 150.23 307.19 h 0 M 150.23 298.32 h 0 M 150.23 307.17 h 0 M 150.23 301.16 h 0 M 150.23 307.50 h 0 M 150.23 308.58 h 0 M 150.23 302.10 h 0 M 150.23 304.35 h 0 M 150.23 307.46 h 0 M 150.23 299.49 h 0" /><text  class="poloto_labels poloto_text poloto_title" x="400" y="37.5" >Bench of differing parallel switch levels with abspiral(20,000,1.5)</text><text  class="poloto_labels poloto_text poloto_xname" x="400" y="481.25" >problem size at which to switch to sequential</text><text  class="poloto_labels poloto_text poloto_yname" transform="rotate(-90,37.5,250)" x="37.5" y="250" >Time in Seconds</text><text  class="poloto_tick_labels poloto_text" dominant-baseline="middle" text-anchor="start" x="150" y="70" ></text><line  class="poloto_axis_lines" stroke="black" x1="150" x2="144" y1="400" y2="400" /><text  class="poloto_tick_labels poloto_text" dominant-baseline="middle" text-anchor="end" x="135" y="400" >0e0</text><line  class="poloto_axis_lines" stroke="black" x1="150" x2="144" y1="320.43471290258543" y2="320.43471290258543" /><text  class="poloto_tick_labels poloto_text" dominant-baseline="middle" text-anchor="end" x="135" y="320.43471290258543" >0.002</text><line  class="poloto_axis_lines" stroke="black" x1="150" x2="144" y1="240.86942580517086" y2="240.86942580517086" /><text  class="poloto_tick_labels poloto_text" dominant-baseline="middle" text-anchor="end" x="135" y="240.86942580517086" >0.004</text><line  class="poloto_axis_lines" stroke="black" x1="150" x2="144" y1="161.3041387077563" y2="161.3041387077563" /><text  class="poloto_tick_labels poloto_text" dominant-baseline="middle" text-anchor="end" x="135" y="161.3041387077563" >0.006</text><text  class="poloto_tick_labels poloto_text" dominant-baseline="middle" text-anchor="start" x="440.00000000000006" y="70" ></text><line  class="poloto_axis_lines" stroke="black" x1="150" x2="150" y1="400" y2="405" /><text  class="poloto_tick_labels poloto_text" dominant-baseline="start" text-anchor="middle" x="150" y="430" >0</text><line  class="poloto_axis_lines" stroke="black" x1="275.6281407035176" x2="275.6281407035176" y1="400" y2="405" /><text  class="poloto_tick_labels poloto_text" dominant-baseline="start" text-anchor="middle" x="275.6281407035176" y="430" >5000</text><line  class="poloto_axis_lines" stroke="black" x1="401.2562814070352" x2="401.2562814070352" y1="400" y2="405" /><text  class="poloto_tick_labels poloto_text" dominant-baseline="start" text-anchor="middle" x="401.2562814070352" y="430" >10000</text><line  class="poloto_axis_lines" stroke="black" x1="526.8844221105528" x2="526.8844221105528" y1="400" y2="405" /><text  class="poloto_tick_labels poloto_text" dominant-baseline="start" text-anchor="middle" x="526.8844221105528" y="430" >15000</text><path  stroke="black" fill="none" class="poloto_axis_lines" style="stroke-dasharray:12.56281407035176;stroke-dashoffset:-0;" d=" M 150 400 L 650 400" /><path  stroke="black" fill="none" class="poloto_axis_lines" style="stroke-dasharray:9.945660887176821;stroke-dashoffset:-0;" d=" M 150 400 L 150 100" /></svg>