<svg class="poloto" width="800" height="500" viewBox="0 0 800 500" xmlns="http://www.w3.org/2000/svg"><style>.poloto {
                    font-family: "Arial";
                    stroke-width:2;
                    }
                    .poloto_text{fill: var(--poloto_fg_color,black);  }
                    .poloto_axis_lines{stroke: var(--poloto_fg_color,black);stoke-width:3;fill:none}
                    .poloto_background{fill: var(--poloto_bg_color,aliceblue); }
                    .poloto0stroke{stroke:  var(--poloto_color0,blue); }
                    .poloto1stroke{stroke:  var(--poloto_color1,red); }
                    .poloto2stroke{stroke:  var(--poloto_color2,green); }
                    .poloto3stroke{stroke:  var(--poloto_color3,gold); }
                    .poloto4stroke{stroke:  var(--poloto_color4,aqua); }
                    .poloto5stroke{stroke:  var(--poloto_color5,brown); }
                    .poloto6stroke{stroke:  var(--poloto_color6,lime); }
                    .poloto7stroke{stroke:  var(--poloto_color7,chocolate); }
                    .poloto0fill{fill:var(--poloto_color0,blue);}
                    .poloto1fill{fill:var(--poloto_color1,red);}
                    .poloto2fill{fill:var(--poloto_color2,green);}
                    .poloto3fill{fill:var(--poloto_color3,gold);}
                    .poloto4fill{fill:var(--poloto_color4,aqua);}
                    .poloto5fill{fill:var(--poloto_color5,brown);}
                    .poloto6fill{fill:var(--poloto_color6,lime);}
                    .poloto7fill{fill:var(--poloto_color7,chocolate);}</style><rect class="poloto_background" fill="white" x="0" y="0" width="800" height="500"/><line class="poloto_axis_lines" stroke="black" x1="205.55555555555554" x2="205.55555555555554" y1="400" y2="405"/><text class="poloto_text" alignment-baseline="start" text-anchor="middle" x="205.55555555555554" y="430">2</text><line class="poloto_axis_lines" stroke="black" x1="316.6666666666667" x2="316.6666666666667" y1="400" y2="405"/><text class="poloto_text" alignment-baseline="start" text-anchor="middle" x="316.6666666666667" y="430">4</text><line class="poloto_axis_lines" stroke="black" x1="427.77777777777777" x2="427.77777777777777" y1="400" y2="405"/><text class="poloto_text" alignment-baseline="start" text-anchor="middle" x="427.77777777777777" y="430">6</text><line class="poloto_axis_lines" stroke="black" x1="538.8888888888889" x2="538.8888888888889" y1="400" y2="405"/><text class="poloto_text" alignment-baseline="start" text-anchor="middle" x="538.8888888888889" y="430">8</text><line class="poloto_axis_lines" stroke="black" x1="650" x2="650" y1="400" y2="405"/><text class="poloto_text" alignment-baseline="start" text-anchor="middle" x="650" y="430">10</text><line class="poloto_axis_lines" stroke="black" x1="150" x2="144" y1="369.28845143931443" y2="369.28845143931443"/><text class="poloto_text" alignment-baseline="middle" text-anchor="end" x="135" y="369.28845143931443">0.005</text><line class="poloto_axis_lines" stroke="black" x1="150" x2="144" y1="331.8183722343116" y2="331.8183722343116"/><text class="poloto_text" alignment-baseline="middle" text-anchor="end" x="135" y="331.8183722343116">0.010</text><line class="poloto_axis_lines" stroke="black" x1="150" x2="144" y1="294.34829302930876" y2="294.34829302930876"/><text class="poloto_text" alignment-baseline="middle" text-anchor="end" x="135" y="294.34829302930876">0.015</text><line class="poloto_axis_lines" stroke="black" x1="150" x2="144" y1="256.87821382430593" y2="256.87821382430593"/><text class="poloto_text" alignment-baseline="middle" text-anchor="end" x="135" y="256.87821382430593">0.020</text><line class="poloto_axis_lines" stroke="black" x1="150" x2="144" y1="219.4081346193031" y2="219.4081346193031"/><text class="poloto_text" alignment-baseline="middle" text-anchor="end" x="135" y="219.4081346193031">0.025</text><line class="poloto_axis_lines" stroke="black" x1="150" x2="144" y1="181.93805541430027" y2="181.93805541430027"/><text class="poloto_text" alignment-baseline="middle" text-anchor="end" x="135" y="181.93805541430027">0.030</text><line class="poloto_axis_lines" stroke="black" x1="150" x2="144" y1="144.4679762092975" y2="144.4679762092975"/><text class="poloto_text" alignment-baseline="middle" text-anchor="end" x="135" y="144.4679762092975">0.035</text><line class="poloto_axis_lines" stroke="black" x1="150" x2="144" y1="106.9978970042946" y2="106.9978970042946"/><text class="poloto_text" alignment-baseline="middle" text-anchor="end" x="135" y="106.9978970042946">0.040</text><text class="poloto_text" alignment-baseline="middle" text-anchor="start" font-size="large" x="675" y="100">Rebal Par</text><circle class="poloto0fill" cx="685" cy="81.25" r="5"/><g class="poloto0fill"><circle cx="150" cy="387.04542455235935" r="5"/><circle cx="150" cy="399.5742424780252" r="5"/><circle cx="150" cy="399.4297653466266" r="5"/><circle cx="150" cy="399.59912261061737" r="5"/><circle cx="150" cy="399.51656103809705" r="5"/><circle cx="150" cy="397.69921723255936" r="5"/><circle cx="150" cy="399.60588221290595" r="5"/><circle cx="150" cy="399.11017554707126" r="5"/><circle cx="150" cy="399.2208321849795" r="5"/><circle cx="150" cy="399.3907589941742" r="5"/><circle cx="150" cy="399.46491977493673" r="5"/><circle cx="150" cy="399.51399808467943" r="5"/><circle cx="150" cy="399.61800753053666" r="5"/><circle cx="150" cy="399.49349445733844" r="5"/><circle cx="150" cy="399.4201655123343" r="5"/><circle cx="150" cy="399.68797166242825" r="5"/><circle cx="205.55555555555554" cy="399.36857670728483" r="5"/><circle cx="205.55555555555554" cy="399.5308071622108" r="5"/><circle cx="205.55555555555554" cy="399.56575925209324" r="5"/><circle cx="205.55555555555554" cy="399.69469379463766" r="5"/><circle cx="205.55555555555554" cy="399.30261437985234" r="5"/><circle cx="205.55555555555554" cy="399.58950778829336" r="5"/><circle cx="205.55555555555554" cy="399.499549622138" r="5"/><circle cx="205.55555555555554" cy="399.5059495116662" r="5"/><circle cx="205.55555555555554" cy="399.3924751238018" r="5"/><circle cx="205.55555555555554" cy="399.5320511688404" r="5"/><circle cx="205.55555555555554" cy="399.383886981648" r="5"/><circle cx="205.55555555555554" cy="399.6747821945481" r="5"/><circle cx="205.55555555555554" cy="399.35221727070393" r="5"/><circle cx="205.55555555555554" cy="399.72297621042156" r="5"/><circle cx="205.55555555555554" cy="399.4931572266256" r="5"/><circle cx="205.55555555555554" cy="399.64171110264175" r="5"/><circle cx="261.1111111111111" cy="399.5129039583666" r="5"/><circle cx="261.1111111111111" cy="399.4567662857017" r="5"/><circle cx="261.1111111111111" cy="399.5616600254282" r="5"/><circle cx="261.1111111111111" cy="399.700426716756" r="5"/><circle cx="261.1111111111111" cy="399.6829356837831" r="5"/><circle cx="261.1111111111111" cy="399.7770979928253" r="5"/><circle cx="261.1111111111111" cy="399.72950349821906" r="5"/><circle cx="261.1111111111111" cy="399.71399837944404" r="5"/><circle cx="261.1111111111111" cy="399.4445210638175" r="5"/><circle cx="261.1111111111111" cy="399.61935645338804" r="5"/><circle cx="261.1111111111111" cy="399.6151598045171" r="5"/><circle cx="261.1111111111111" cy="399.98645081935945" r="5"/><circle cx="261.1111111111111" cy="399.78396251133563" r="5"/><circle cx="261.1111111111111" cy="399.62646827442114" r="5"/><circle cx="261.1111111111111" cy="399.6331529365513" r="5"/><circle cx="261.1111111111111" cy="399.5623944389806" r="5"/><circle cx="316.6666666666667" cy="399.4483654939439" r="5"/><circle cx="316.6666666666667" cy="399.625486558346" r="5"/><circle cx="316.6666666666667" cy="399.6149949361686" r="5"/><circle cx="316.6666666666667" cy="399.43158639247594" r="5"/><circle cx="316.6666666666667" cy="399.6435771125862" r="5"/><circle cx="316.6666666666667" cy="399.6633763024381" r="5"/><circle cx="316.6666666666667" cy="399.79122421268556" r="5"/><circle cx="316.6666666666667" cy="399.7855812187573" r="5"/><circle cx="316.6666666666667" cy="399.4471289813302" r="5"/><circle cx="316.6666666666667" cy="399.5822610749751" r="5"/><circle cx="316.6666666666667" cy="400" r="5"/><circle cx="316.6666666666667" cy="399.8531172895164" r="5"/><circle cx="316.6666666666667" cy="399.52786201398527" r="5"/><circle cx="316.6666666666667" cy="399.51204964056075" r="5"/><circle cx="316.6666666666667" cy="399.4282515554267" r="5"/><circle cx="316.6666666666667" cy="399.43643502072507" r="5"/><circle cx="372.22222222222223" cy="399.6738829126472" r="5"/><circle cx="372.22222222222223" cy="399.51542944170507" r="5"/><circle cx="372.22222222222223" cy="399.73418725811973" r="5"/><circle cx="372.22222222222223" cy="399.7122897438323" r="5"/><circle cx="372.22222222222223" cy="399.5820962066266" r="5"/><circle cx="372.22222222222223" cy="399.6052901856545" r="5"/><circle cx="372.22222222222223" cy="399.6946863006218" r="5"/><circle cx="372.22222222222223" cy="399.49197317212275" r="5"/><circle cx="372.22222222222223" cy="399.5913063520952" r="5"/><circle cx="372.22222222222223" cy="399.59392925763956" r="5"/><circle cx="372.22222222222223" cy="398.73474783548465" r="5"/><circle cx="372.22222222222223" cy="399.4159688634633" r="5"/><circle cx="372.22222222222223" cy="399.61949134567317" r="5"/><circle cx="372.22222222222223" cy="399.3814589205155" r="5"/><circle cx="372.22222222222223" cy="399.56453772751115" r="5"/><circle cx="372.22222222222223" cy="399.3859178599409" r="5"/><circle cx="427.77777777777777" cy="399.39183063843944" r="5"/><circle cx="427.77777777777777" cy="399.3760707231258" r="5"/><circle cx="427.77777777777777" cy="399.56854702598605" r="5"/><circle cx="427.77777777777777" cy="399.28354960355284" r="5"/><circle cx="427.77777777777777" cy="399.5488527523559" r="5"/><circle cx="427.77777777777777" cy="398.8019616635626" r="5"/><circle cx="427.77777777777777" cy="399.3522547407831" r="5"/><circle cx="427.77777777777777" cy="399.1842913637388" r="5"/><circle cx="427.77777777777777" cy="399.6314443009396" r="5"/><circle cx="427.77777777777777" cy="399.61520476861216" r="5"/><circle cx="427.77777777777777" cy="398.6561206212809" r="5"/><circle cx="427.77777777777777" cy="399.2517225182761" r="5"/><circle cx="427.77777777777777" cy="399.89500134405176" r="5"/><circle cx="427.77777777777777" cy="399.2370192591961" r="5"/><circle cx="427.77777777777777" cy="398.97017983714557" r="5"/><circle cx="427.77777777777777" cy="399.1274267715373" r="5"/><circle cx="483.33333333333337" cy="399.482440783973" r="5"/><circle cx="483.33333333333337" cy="399.59255785274064" r="5"/><circle cx="483.33333333333337" cy="398.58961872470786" r="5"/><circle cx="483.33333333333337" cy="398.4531601902591" r="5"/><circle cx="483.33333333333337" cy="399.42709747698717" r="5"/><circle cx="483.33333333333337" cy="399.24763827964273" r="5"/><circle cx="483.33333333333337" cy="398.5726822489072" r="5"/><circle cx="483.33333333333337" cy="398.57863249748493" r="5"/><circle cx="483.33333333333337" cy="398.50461410302336" r="5"/><circle cx="483.33333333333337" cy="399.21660556004514" r="5"/><circle cx="483.33333333333337" cy="398.43047580430834" r="5"/><circle cx="483.33333333333337" cy="399.64218322563977" r="5"/><circle cx="483.33333333333337" cy="399.4625291838834" r="5"/><circle cx="483.33333333333337" cy="398.5466780139389" r="5"/><circle cx="483.33333333333337" cy="398.4499002933682" r="5"/><circle cx="483.33333333333337" cy="399.361779634917" r="5"/><circle cx="538.8888888888889" cy="399.06241618411656" r="5"/><circle cx="538.8888888888889" cy="399.2888328847207" r="5"/><circle cx="538.8888888888889" cy="399.0322078062615" r="5"/><circle cx="538.8888888888889" cy="399.4290009570108" r="5"/><circle cx="538.8888888888889" cy="399.42968291245234" r="5"/><circle cx="538.8888888888889" cy="399.4693337502671" r="5"/><circle cx="538.8888888888889" cy="399.5290011043931" r="5"/><circle cx="538.8888888888889" cy="399.60654918031577" r="5"/><circle cx="538.8888888888889" cy="399.16672539060744" r="5"/><circle cx="538.8888888888889" cy="399.4052599148265" r="5"/><circle cx="538.8888888888889" cy="399.70706641479114" r="5"/><circle cx="538.8888888888889" cy="399.2869743687922" r="5"/><circle cx="538.8888888888889" cy="399.3574031296659" r="5"/><circle cx="538.8888888888889" cy="399.5745047685797" r="5"/><circle cx="538.8888888888889" cy="399.41803721183544" r="5"/><circle cx="538.8888888888889" cy="399.5478335662016" r="5"/><circle cx="594.4444444444445" cy="395.6029911215147" r="5"/><circle cx="594.4444444444445" cy="395.88391929334625" r="5"/><circle cx="594.4444444444445" cy="395.82070726972745" r="5"/><circle cx="594.4444444444445" cy="395.049880294338" r="5"/><circle cx="594.4444444444445" cy="395.86645823643676" r="5"/><circle cx="594.4444444444445" cy="396.17610347697104" r="5"/><circle cx="594.4444444444445" cy="395.8970787851631" r="5"/><circle cx="594.4444444444445" cy="395.54976862101194" r="5"/><circle cx="594.4444444444445" cy="395.0859864626599" r="5"/><circle cx="594.4444444444445" cy="394.5219343723553" r="5"/><circle cx="594.4444444444445" cy="395.02539734458543" r="5"/><circle cx="594.4444444444445" cy="394.9126723583051" r="5"/><circle cx="594.4444444444445" cy="395.13494486814915" r="5"/><circle cx="594.4444444444445" cy="395.3492812152176" r="5"/><circle cx="594.4444444444445" cy="394.9742356984389" r="5"/><circle cx="594.4444444444445" cy="394.9575615131927" r="5"/><circle cx="650" cy="387.618049796786" r="5"/><circle cx="650" cy="387.64113885959216" r="5"/><circle cx="650" cy="387.6162362449525" r="5"/><circle cx="650" cy="387.6310968783652" r="5"/><circle cx="650" cy="387.6293058085792" r="5"/><circle cx="650" cy="387.6966095648472" r="5"/><circle cx="650" cy="387.67193926469866" r="5"/><circle cx="650" cy="387.63744430978255" r="5"/><circle cx="650" cy="387.6846865856442" r="5"/><circle cx="650" cy="387.6780393935932" r="5"/><circle cx="650" cy="387.6127065634914" r="5"/><circle cx="650" cy="387.78343523238107" r="5"/><circle cx="650" cy="387.70708619899295" r="5"/><circle cx="650" cy="387.65490536669205" r="5"/><circle cx="650" cy="387.6767429288527" r="5"/><circle cx="650" cy="387.6456952212235" r="5"/></g><text class="poloto_text" alignment-baseline="middle" text-anchor="start" font-size="large" x="675" y="150">Query Par</text><circle class="poloto1fill" cx="685" cy="131.25" r="5"/><g class="poloto1fill"><circle cx="150" cy="223.5502570310043" r="5"/><circle cx="150" cy="221.43435163436115" r="5"/><circle cx="150" cy="228.52025836069254" r="5"/><circle cx="150" cy="227.54811963776623" r="5"/><circle cx="150" cy="223.91174587312665" r="5"/><circle cx="150" cy="223.20924933417544" r="5"/><circle cx="150" cy="220.98620199305347" r="5"/><circle cx="150" cy="227.76160166702883" r="5"/><circle cx="150" cy="226.21295579947022" r="5"/><circle cx="150" cy="226.5063090495662" r="5"/><circle cx="150" cy="228.7149004341308" r="5"/><circle cx="150" cy="222.369559847223" r="5"/><circle cx="150" cy="228.65421389385043" r="5"/><circle cx="150" cy="230.91981975093336" r="5"/><circle cx="150" cy="224.71159717186833" r="5"/><circle cx="150" cy="218.6184751821052" r="5"/><circle cx="205.55555555555554" cy="217.33220230315584" r="5"/><circle cx="205.55555555555554" cy="226.36997041937084" r="5"/><circle cx="205.55555555555554" cy="226.21665784329568" r="5"/><circle cx="205.55555555555554" cy="220.76774393727248" r="5"/><circle cx="205.55555555555554" cy="227.25065217297356" r="5"/><circle cx="205.55555555555554" cy="226.34300695037496" r="5"/><circle cx="205.55555555555554" cy="219.84436128140777" r="5"/><circle cx="205.55555555555554" cy="229.81559899880946" r="5"/><circle cx="205.55555555555554" cy="229.02788051171436" r="5"/><circle cx="205.55555555555554" cy="226.01460418819062" r="5"/><circle cx="205.55555555555554" cy="229.52930511163572" r="5"/><circle cx="205.55555555555554" cy="223.64680993109977" r="5"/><circle cx="205.55555555555554" cy="224.63670197755337" r="5"/><circle cx="205.55555555555554" cy="219.0272962282793" r="5"/><circle cx="205.55555555555554" cy="223.84672779169014" r="5"/><circle cx="205.55555555555554" cy="222.77419173854196" r="5"/><circle cx="261.1111111111111" cy="227.57839546176388" r="5"/><circle cx="261.1111111111111" cy="230.22204444196197" r="5"/><circle cx="261.1111111111111" cy="230.69841654692684" r="5"/><circle cx="261.1111111111111" cy="220.83582707118796" r="5"/><circle cx="261.1111111111111" cy="224.16897047285318" r="5"/><circle cx="261.1111111111111" cy="214.55578184430277" r="5"/><circle cx="261.1111111111111" cy="222.72271534373013" r="5"/><circle cx="261.1111111111111" cy="227.18609122650335" r="5"/><circle cx="261.1111111111111" cy="223.5571290435305" r="5"/><circle cx="261.1111111111111" cy="229.10069236962553" r="5"/><circle cx="261.1111111111111" cy="228.99502674626743" r="5"/><circle cx="261.1111111111111" cy="226.80461584413305" r="5"/><circle cx="261.1111111111111" cy="220.98097866401233" r="5"/><circle cx="261.1111111111111" cy="224.73313497339535" r="5"/><circle cx="261.1111111111111" cy="225.98646415870766" r="5"/><circle cx="261.1111111111111" cy="220.76599033756568" r="5"/><circle cx="316.6666666666667" cy="226.67158956893945" r="5"/><circle cx="316.6666666666667" cy="226.20952354021503" r="5"/><circle cx="316.6666666666667" cy="225.76856066009887" r="5"/><circle cx="316.6666666666667" cy="218.957744267259" r="5"/><circle cx="316.6666666666667" cy="224.11892543506693" r="5"/><circle cx="316.6666666666667" cy="230.91533083544462" r="5"/><circle cx="316.6666666666667" cy="227.94695116082428" r="5"/><circle cx="316.6666666666667" cy="228.51088334687543" r="5"/><circle cx="316.6666666666667" cy="224.97575373624775" r="5"/><circle cx="316.6666666666667" cy="230.79886633525965" r="5"/><circle cx="316.6666666666667" cy="226.7219568494068" r="5"/><circle cx="316.6666666666667" cy="228.134361508976" r="5"/><circle cx="316.6666666666667" cy="226.4969939878758" r="5"/><circle cx="316.6666666666667" cy="220.39429464586792" r="5"/><circle cx="316.6666666666667" cy="217.770055166698" r="5"/><circle cx="316.6666666666667" cy="227.59279146619446" r="5"/><circle cx="372.22222222222223" cy="225.43306855892897" r="5"/><circle cx="372.22222222222223" cy="225.82629455813796" r="5"/><circle cx="372.22222222222223" cy="228.03781610289641" r="5"/><circle cx="372.22222222222223" cy="226.8393506075561" r="5"/><circle cx="372.22222222222223" cy="225.68407312550744" r="5"/><circle cx="372.22222222222223" cy="230.1794409619059" r="5"/><circle cx="372.22222222222223" cy="227.82458887017242" r="5"/><circle cx="372.22222222222223" cy="228.78737506132913" r="5"/><circle cx="372.22222222222223" cy="225.02320584455296" r="5"/><circle cx="372.22222222222223" cy="225.7549665153633" r="5"/><circle cx="372.22222222222223" cy="222.57587759734156" r="5"/><circle cx="372.22222222222223" cy="228.42859905294122" r="5"/><circle cx="372.22222222222223" cy="229.99002971152458" r="5"/><circle cx="372.22222222222223" cy="227.62810326883726" r="5"/><circle cx="372.22222222222223" cy="229.80959629212083" r="5"/><circle cx="372.22222222222223" cy="228.85587036611588" r="5"/><circle cx="427.77777777777777" cy="227.8837841013005" r="5"/><circle cx="427.77777777777777" cy="229.41118443394987" r="5"/><circle cx="427.77777777777777" cy="226.20459247779166" r="5"/><circle cx="427.77777777777777" cy="221.5776372172411" r="5"/><circle cx="427.77777777777777" cy="213.83858204627148" r="5"/><circle cx="427.77777777777777" cy="226.6443263393099" r="5"/><circle cx="427.77777777777777" cy="227.94480037827793" r="5"/><circle cx="427.77777777777777" cy="227.89287434251563" r="5"/><circle cx="427.77777777777777" cy="226.6023298745369" r="5"/><circle cx="427.77777777777777" cy="221.530979474615" r="5"/><circle cx="427.77777777777777" cy="221.08659182925953" r="5"/><circle cx="427.77777777777777" cy="224.13096831852343" r="5"/><circle cx="427.77777777777777" cy="227.3744533146669" r="5"/><circle cx="427.77777777777777" cy="229.14655574657246" r="5"/><circle cx="427.77777777777777" cy="226.09147030867175" r="5"/><circle cx="427.77777777777777" cy="225.97240538498994" r="5"/><circle cx="483.33333333333337" cy="226.89249816790047" r="5"/><circle cx="483.33333333333337" cy="226.98763469900197" r="5"/><circle cx="483.33333333333337" cy="228.58425725597465" r="5"/><circle cx="483.33333333333337" cy="227.25525349869991" r="5"/><circle cx="483.33333333333337" cy="226.82810958379457" r="5"/><circle cx="483.33333333333337" cy="226.18677920213761" r="5"/><circle cx="483.33333333333337" cy="219.324763693072" r="5"/><circle cx="483.33333333333337" cy="227.18492216003216" r="5"/><circle cx="483.33333333333337" cy="228.74480905135226" r="5"/><circle cx="483.33333333333337" cy="223.76652683415972" r="5"/><circle cx="483.33333333333337" cy="222.72993957500086" r="5"/><circle cx="483.33333333333337" cy="229.2570699981797" r="5"/><circle cx="483.33333333333337" cy="229.40421499921774" r="5"/><circle cx="483.33333333333337" cy="227.3762968425638" r="5"/><circle cx="483.33333333333337" cy="228.49474873076974" r="5"/><circle cx="483.33333333333337" cy="225.6910500542554" r="5"/><circle cx="538.8888888888889" cy="226.79966229966215" r="5"/><circle cx="538.8888888888889" cy="229.6377809909342" r="5"/><circle cx="538.8888888888889" cy="225.26103593128298" r="5"/><circle cx="538.8888888888889" cy="225.98102350320707" r="5"/><circle cx="538.8888888888889" cy="225.84096784115462" r="5"/><circle cx="538.8888888888889" cy="225.13602825303923" r="5"/><circle cx="538.8888888888889" cy="222.07323896685398" r="5"/><circle cx="538.8888888888889" cy="225.3432377910429" r="5"/><circle cx="538.8888888888889" cy="228.4543035272759" r="5"/><circle cx="538.8888888888889" cy="228.85271538544683" r="5"/><circle cx="538.8888888888889" cy="225.32789004660052" r="5"/><circle cx="538.8888888888889" cy="221.48363977654742" r="5"/><circle cx="538.8888888888889" cy="230.3361783032204" r="5"/><circle cx="538.8888888888889" cy="227.93773352133985" r="5"/><circle cx="538.8888888888889" cy="228.9056306313001" r="5"/><circle cx="538.8888888888889" cy="229.97062770451225" r="5"/><circle cx="594.4444444444445" cy="182.84012508911323" r="5"/><circle cx="594.4444444444445" cy="182.3478656705654" r="5"/><circle cx="594.4444444444445" cy="179.62430799945471" r="5"/><circle cx="594.4444444444445" cy="181.68235959380533" r="5"/><circle cx="594.4444444444445" cy="183.47142847757493" r="5"/><circle cx="594.4444444444445" cy="183.48883707637356" r="5"/><circle cx="594.4444444444445" cy="180.89199571911837" r="5"/><circle cx="594.4444444444445" cy="182.80987174716307" r="5"/><circle cx="594.4444444444445" cy="183.31200078457348" r="5"/><circle cx="594.4444444444445" cy="183.073676092798" r="5"/><circle cx="594.4444444444445" cy="181.3543764965081" r="5"/><circle cx="594.4444444444445" cy="183.33780268111406" r="5"/><circle cx="594.4444444444445" cy="181.69483713018062" r="5"/><circle cx="594.4444444444445" cy="183.6827522302753" r="5"/><circle cx="594.4444444444445" cy="181.9408132121298" r="5"/><circle cx="594.4444444444445" cy="179.58414007454695" r="5"/><circle cx="650" cy="100.55976551324352" r="5"/><circle cx="650" cy="100.52432631233143" r="5"/><circle cx="650" cy="100.83704409936058" r="5"/><circle cx="650" cy="100.7596159276913" r="5"/><circle cx="650" cy="100.89161552271469" r="5"/><circle cx="650" cy="100.93311738244216" r="5"/><circle cx="650" cy="100.6410980671659" r="5"/><circle cx="650" cy="100" r="5"/><circle cx="650" cy="100.77163632910032" r="5"/><circle cx="650" cy="101.0159262574852" r="5"/><circle cx="650" cy="100.85001624078131" r="5"/><circle cx="650" cy="101.1265379312984" r="5"/><circle cx="650" cy="100.88430885726973" r="5"/><circle cx="650" cy="100.59923649467811" r="5"/><circle cx="650" cy="101.00763038194924" r="5"/><circle cx="650" cy="100.71258348427318" r="5"/></g><text class="poloto_text" alignment-baseline="middle" text-anchor="start" font-size="large" x="675" y="200">Rebal</text><circle class="poloto2fill" cx="685" cy="181.25" r="5"/><g class="poloto2fill"><circle cx="650" cy="387.657453332078" r="5"/><circle cx="650" cy="387.66142516047375" r="5"/><circle cx="650" cy="387.61472994776847" r="5"/><circle cx="650" cy="387.6495021812707" r="5"/><circle cx="650" cy="387.63533099731535" r="5"/><circle cx="650" cy="387.6486328754331" r="5"/><circle cx="650" cy="387.6450132657819" r="5"/><circle cx="650" cy="387.63328513099077" r="5"/><circle cx="650" cy="387.63758669608353" r="5"/><circle cx="650" cy="387.61503720241797" r="5"/><circle cx="650" cy="387.6296580273237" r="5"/><circle cx="650" cy="387.66088559133317" r="5"/><circle cx="650" cy="387.67061282389477" r="5"/><circle cx="650" cy="387.61920387522554" r="5"/><circle cx="650" cy="387.59792836425294" r="5"/><circle cx="650" cy="387.6104733467708" r="5"/><circle cx="650" cy="387.62003571098387" r="5"/><circle cx="650" cy="387.6352935272362" r="5"/><circle cx="650" cy="387.64794342597577" r="5"/><circle cx="650" cy="387.6098363554243" r="5"/><circle cx="650" cy="387.63466402990554" r="5"/><circle cx="650" cy="387.62681030130415" r="5"/><circle cx="650" cy="387.6439940796276" r="5"/><circle cx="650" cy="387.6455228588591" r="5"/><circle cx="650" cy="387.65499529488216" r="5"/><circle cx="650" cy="387.63512865888765" r="5"/><circle cx="650" cy="387.60375870857723" r="5"/><circle cx="650" cy="387.63174136372754" r="5"/><circle cx="650" cy="387.6394452120121" r="5"/><circle cx="650" cy="387.678474046512" r="5"/><circle cx="650" cy="387.60524252371374" r="5"/><circle cx="650" cy="387.62660796287645" r="5"/><circle cx="650" cy="387.63845600192104" r="5"/><circle cx="650" cy="387.61372574964577" r="5"/><circle cx="650" cy="387.66847702938014" r="5"/><circle cx="650" cy="387.6817789074979" r="5"/><circle cx="650" cy="387.6347164880164" r="5"/><circle cx="650" cy="387.64362687285137" r="5"/><circle cx="650" cy="387.6277695353318" r="5"/><circle cx="650" cy="387.67384274472226" r="5"/><circle cx="650" cy="387.65423839928224" r="5"/><circle cx="650" cy="387.65375878226837" r="5"/><circle cx="650" cy="387.64072668872086" r="5"/><circle cx="650" cy="387.61622875093667" r="5"/><circle cx="650" cy="387.6348588743174" r="5"/><circle cx="650" cy="387.66101298960245" r="5"/><circle cx="650" cy="387.67327319951835" r="5"/><circle cx="650" cy="387.64135618605155" r="5"/><circle cx="650" cy="387.6267653372091" r="5"/><circle cx="650" cy="387.63015263236923" r="5"/><circle cx="650" cy="387.63112685442854" r="5"/><circle cx="650" cy="387.6516604578329" r="5"/><circle cx="650" cy="387.6848439599769" r="5"/><circle cx="650" cy="387.63627524331133" r="5"/><circle cx="650" cy="387.6069961234206" r="5"/><circle cx="650" cy="387.60253718399514" r="5"/><circle cx="650" cy="387.6530543447793" r="5"/><circle cx="650" cy="387.67289100471044" r="5"/><circle cx="650" cy="387.6276796071417" r="5"/><circle cx="650" cy="387.6333450831175" r="5"/><circle cx="650" cy="387.63285797208783" r="5"/><circle cx="650" cy="387.60793287540065" r="5"/><circle cx="650" cy="387.661222822046" r="5"/><circle cx="650" cy="387.67477200268655" r="5"/><circle cx="650" cy="387.6115225089885" r="5"/><circle cx="650" cy="387.64219551582573" r="5"/><circle cx="650" cy="387.64115384762385" r="5"/><circle cx="650" cy="387.6282416583298" r="5"/><circle cx="650" cy="387.6718418424927" r="5"/><circle cx="650" cy="387.6701856649919" r="5"/><circle cx="650" cy="387.6000566647518" r="5"/><circle cx="650" cy="387.65181033814974" r="5"/><circle cx="650" cy="387.61257167120624" r="5"/><circle cx="650" cy="387.65501028291385" r="5"/><circle cx="650" cy="387.6834800490938" r="5"/><circle cx="650" cy="387.6306247553672" r="5"/><circle cx="650" cy="387.58036239112164" r="5"/><circle cx="650" cy="387.61297634806164" r="5"/><circle cx="650" cy="387.6468867697422" r="5"/><circle cx="650" cy="387.68056487693167" r="5"/><circle cx="650" cy="387.6654569409962" r="5"/><circle cx="650" cy="387.62928332653166" r="5"/><circle cx="650" cy="387.6211523193442" r="5"/><circle cx="650" cy="387.6243522641083" r="5"/><circle cx="650" cy="387.61218198238254" r="5"/><circle cx="650" cy="387.675506416239" r="5"/><circle cx="650" cy="387.65824769775713" r="5"/><circle cx="650" cy="387.64403154970677" r="5"/><circle cx="650" cy="387.62010315712644" r="5"/><circle cx="650" cy="387.62355789842917" r="5"/><circle cx="650" cy="387.6584725182324" r="5"/><circle cx="650" cy="387.67163201004917" r="5"/><circle cx="650" cy="387.5822883531928" r="5"/><circle cx="650" cy="387.6047704007158" r="5"/><circle cx="650" cy="387.60350391203866" r="5"/><circle cx="650" cy="387.62566371688047" r="5"/><circle cx="650" cy="387.64117632967134" r="5"/><circle cx="650" cy="387.67083764437" r="5"/><circle cx="650" cy="387.61354589326555" r="5"/><circle cx="650" cy="387.62660796287645" r="5"/></g><text class="poloto_text" alignment-baseline="middle" text-anchor="start" font-size="large" x="675" y="250">Query</text><circle class="poloto3fill" cx="685" cy="231.25" r="5"/><g class="poloto3fill"><circle cx="650" cy="376.5007147667409" r="5"/><circle cx="650" cy="376.5895413365043" r="5"/><circle cx="650" cy="376.6103522184947" r="5"/><circle cx="650" cy="376.55626041215436" r="5"/><circle cx="650" cy="376.6459937578345" r="5"/><circle cx="650" cy="376.5940976981356" r="5"/><circle cx="650" cy="376.5943000365633" r="5"/><circle cx="650" cy="376.65011546654705" r="5"/><circle cx="650" cy="376.6311631004852" r="5"/><circle cx="650" cy="376.5902382799775" r="5"/><circle cx="650" cy="376.54835422544215" r="5"/><circle cx="650" cy="376.5942400844366" r="5"/><circle cx="650" cy="376.5857643525204" r="5"/><circle cx="650" cy="376.6208663227196" r="5"/><circle cx="650" cy="376.59756742747" r="5"/><circle cx="650" cy="376.5953267167335" r="5"/><circle cx="650" cy="376.55163660438046" r="5"/><circle cx="650" cy="376.55473912693867" r="5"/><circle cx="650" cy="376.58898677933206" r="5"/><circle cx="650" cy="376.53948131068637" r="5"/><circle cx="650" cy="376.57334676827185" r="5"/><circle cx="650" cy="376.6199445587712" r="5"/><circle cx="650" cy="376.65153932955684" r="5"/><circle cx="650" cy="376.67837540028347" r="5"/><circle cx="650" cy="376.60551857827727" r="5"/><circle cx="650" cy="376.59839176921247" r="5"/><circle cx="650" cy="376.59044811242103" r="5"/><circle cx="650" cy="376.57116600966214" r="5"/><circle cx="650" cy="376.5919693976368" r="5"/><circle cx="650" cy="376.5865437301679" r="5"/><circle cx="650" cy="376.55274571872496" r="5"/><circle cx="650" cy="376.5786900015665" r="5"/><circle cx="650" cy="376.611940949853" r="5"/><circle cx="650" cy="376.5170742033218" r="5"/><circle cx="650" cy="376.68029386833877" r="5"/><circle cx="650" cy="376.5814852694752" r="5"/><circle cx="650" cy="376.6661826365102" r="5"/><circle cx="650" cy="376.6129226659282" r="5"/><circle cx="650" cy="376.61450390327064" r="5"/><circle cx="650" cy="376.6670969064428" r="5"/><circle cx="650" cy="376.61742656944864" r="5"/><circle cx="650" cy="376.6352173630552" r="5"/><circle cx="650" cy="376.63947396405285" r="5"/><circle cx="650" cy="376.62682406531326" r="5"/><circle cx="650" cy="376.6590108633503" r="5"/><circle cx="650" cy="376.66427915648654" r="5"/><circle cx="650" cy="376.6829917140415" r="5"/><circle cx="650" cy="376.62993408188726" r="5"/><circle cx="650" cy="376.6398111947657" r="5"/><circle cx="650" cy="376.5967505797433" r="5"/><circle cx="650" cy="376.58227963515435" r="5"/><circle cx="650" cy="376.5381698579142" r="5"/><circle cx="650" cy="376.6478148036839" r="5"/><circle cx="650" cy="376.58785518294" r="5"/><circle cx="650" cy="376.65696499702574" r="5"/><circle cx="650" cy="376.6681985267714" r="5"/><circle cx="650" cy="376.6452518502663" r="5"/><circle cx="650" cy="376.6070098874296" r="5"/><circle cx="650" cy="376.6134322590054" r="5"/><circle cx="650" cy="376.61878298631586" r="5"/><circle cx="650" cy="376.5621432145896" r="5"/><circle cx="650" cy="376.6575420362455" r="5"/><circle cx="650" cy="376.6253027800975" r="5"/><circle cx="650" cy="376.60633542600397" r="5"/><circle cx="650" cy="376.636356453463" r="5"/><circle cx="650" cy="376.6310881603268" r="5"/><circle cx="650" cy="376.5805934815901" r="5"/><circle cx="650" cy="376.48413050968475" r="5"/><circle cx="650" cy="376.63124553465946" r="5"/><circle cx="650" cy="376.60938549045125" r="5"/><circle cx="650" cy="376.6324970353049" r="5"/><circle cx="650" cy="376.57235755818084" r="5"/><circle cx="650" cy="376.51962966272356" r="5"/><circle cx="650" cy="376.5213233103036" r="5"/><circle cx="650" cy="376.58870200673005" r="5"/><circle cx="650" cy="376.5890467314588" r="5"/><circle cx="650" cy="376.56263032561924" r="5"/><circle cx="650" cy="376.5170592152901" r="5"/><circle cx="650" cy="376.571975363373" r="5"/><circle cx="650" cy="376.49045545905454" r="5"/><circle cx="650" cy="376.59555153720873" r="5"/><circle cx="650" cy="376.6263219662519" r="5"/><circle cx="650" cy="376.56539561746456" r="5"/><circle cx="650" cy="376.63912174530833" r="5"/><circle cx="650" cy="376.5450268824087" r="5"/><circle cx="650" cy="376.55916059628487" r="5"/><circle cx="650" cy="376.5652382431319" r="5"/><circle cx="650" cy="376.4995981583806" r="5"/><circle cx="650" cy="376.5013367700557" r="5"/><circle cx="650" cy="376.51776365277914" r="5"/><circle cx="650" cy="376.6039073648715" r="5"/><circle cx="650" cy="376.6323096849089" r="5"/><circle cx="650" cy="376.54673551802045" r="5"/><circle cx="650" cy="376.6164748294368" r="5"/><circle cx="650" cy="376.5254225369687" r="5"/><circle cx="650" cy="376.623774000866" r="5"/><circle cx="650" cy="376.6399161109875" r="5"/><circle cx="650" cy="376.6222077515552" r="5"/><circle cx="650" cy="376.4972450374065" r="5"/><circle cx="650" cy="376.5807733379703" r="5"/></g><text class="poloto_text" alignment-baseline="start" text-anchor="middle" font-size="x-large" x="400" y="37.5">Bench of differing parallel switch levels with abspiral(20,000,1.5)</text><text class="poloto_text" alignment-baseline="start" text-anchor="middle" font-size="x-large" x="400" y="481.25">Height at which to switch to sequential</text><text class="poloto_text" alignment-baseline="start" text-anchor="middle" font-size="x-large" transform="rotate(-90,37.5,250)" x="37.5" y="250">Time in Seconds</text><path stroke="black" fill="none" class="poloto_axis_lines" d=" M 150 100 L 150 400 L 650 400"/></svg>