<svg class="poloto" height="500" viewBox="0 0 800 500" width="800" xmlns="http://www.w3.org/2000/svg">
<rect class="poloto_background" fill="white" height="500" width="800" x="0" y="0"/>
<style>
.poloto {
font-family: "Arial";
stroke-width:2;
}
.poloto_text{fill: var(--poloto_fg_color,black);  }
.poloto_axis_lines{stroke: var(--poloto_fg_color,black);stoke-width:3;fill:none}
.poloto_background{fill: var(--poloto_bg_color,aliceblue); }
.poloto0stroke{stroke:  var(--poloto_color0,blue); }
.poloto1stroke{stroke:  var(--poloto_color1,red); }
.poloto2stroke{stroke:  var(--poloto_color2,green); }
.poloto3stroke{stroke:  var(--poloto_color3,gold); }
.poloto4stroke{stroke:  var(--poloto_color4,aqua); }
.poloto5stroke{stroke:  var(--poloto_color5,brown); }
.poloto6stroke{stroke:  var(--poloto_color6,lime); }
.poloto7stroke{stroke:  var(--poloto_color7,chocolate); }
.poloto0fill{fill:var(--poloto_color0,blue);}
.poloto1fill{fill:var(--poloto_color1,red);}
.poloto2fill{fill:var(--poloto_color2,green);}
.poloto3fill{fill:var(--poloto_color3,gold);}
.poloto4fill{fill:var(--poloto_color4,aqua);}
.poloto5fill{fill:var(--poloto_color5,brown);}
.poloto6fill{fill:var(--poloto_color6,lime);}
.poloto7fill{fill:var(--poloto_color7,chocolate);}
</style>
<line class="poloto_axis_lines" stroke="black" x1="205.55556" x2="205.55556" y1="400" y2="405"/>
<text alignment-baseline="start" class="poloto_text" text-anchor="middle" x="205.55556" y="440">
2
</text>
<line class="poloto_axis_lines" stroke="black" x1="316.6667" x2="316.6667" y1="400" y2="405"/>
<text alignment-baseline="start" class="poloto_text" text-anchor="middle" x="316.6667" y="440">
4
</text>
<line class="poloto_axis_lines" stroke="black" x1="427.77777" x2="427.77777" y1="400" y2="405"/>
<text alignment-baseline="start" class="poloto_text" text-anchor="middle" x="427.77777" y="440">
6
</text>
<line class="poloto_axis_lines" stroke="black" x1="538.8889" x2="538.8889" y1="400" y2="405"/>
<text alignment-baseline="start" class="poloto_text" text-anchor="middle" x="538.8889" y="440">
8
</text>
<line class="poloto_axis_lines" stroke="black" x1="650" x2="650" y1="400" y2="405"/>
<text alignment-baseline="start" class="poloto_text" text-anchor="middle" x="650" y="440">
10
</text>
<line class="poloto_axis_lines" stroke="black" x1="150" x2="144" y1="387.551" y2="387.551"/>
<text alignment-baseline="middle" class="poloto_text" text-anchor="end" x="120" y="387.551">
0.001
</text>
<line class="poloto_axis_lines" stroke="black" x1="150" x2="144" y1="323.61917" y2="323.61917"/>
<text alignment-baseline="middle" class="poloto_text" text-anchor="end" x="120" y="323.61917">
0.002
</text>
<line class="poloto_axis_lines" stroke="black" x1="150" x2="144" y1="259.68732" y2="259.68732"/>
<text alignment-baseline="middle" class="poloto_text" text-anchor="end" x="120" y="259.68732">
0.003
</text>
<line class="poloto_axis_lines" stroke="black" x1="150" x2="144" y1="195.7555" y2="195.7555"/>
<text alignment-baseline="middle" class="poloto_text" text-anchor="end" x="120" y="195.7555">
0.004
</text>
<line class="poloto_axis_lines" stroke="black" x1="150" x2="144" y1="131.82364" y2="131.82364"/>
<text alignment-baseline="middle" class="poloto_text" text-anchor="end" x="120" y="131.82364">
0.005
</text>
<text alignment-baseline="middle" class="poloto_text" font-size="large" text-anchor="start" x="675" y="100">
Rebal Par
</text>
<circle class="poloto0fill" cx="685" cy="81.25" r="5"/>
<circle class="poloto0fill" cx="150" cy="315.73062" r="3"/>
<circle class="poloto0fill" cx="150" cy="396.79892" r="3"/>
<circle class="poloto0fill" cx="150" cy="388.89838" r="3"/>
<circle class="poloto0fill" cx="150" cy="398.32346" r="3"/>
<circle class="poloto0fill" cx="150" cy="393.00037" r="3"/>
<circle class="poloto0fill" cx="150" cy="396.93472" r="3"/>
<circle class="poloto0fill" cx="150" cy="385.4848" r="3"/>
<circle class="poloto0fill" cx="150" cy="394.52277" r="3"/>
<circle class="poloto0fill" cx="150" cy="352.14215" r="3"/>
<circle class="poloto0fill" cx="150" cy="396.81976" r="3"/>
<circle class="poloto0fill" cx="150" cy="396.10815" r="3"/>
<circle class="poloto0fill" cx="150" cy="397.7067" r="3"/>
<circle class="poloto0fill" cx="150" cy="396.29587" r="3"/>
<circle class="poloto0fill" cx="150" cy="397.7498" r="3"/>
<circle class="poloto0fill" cx="150" cy="397.75452" r="3"/>
<circle class="poloto0fill" cx="150" cy="397.07782" r="3"/>
<circle class="poloto0fill" cx="205.55556" cy="398.58392" r="3"/>
<circle class="poloto0fill" cx="205.55556" cy="397.49606" r="3"/>
<circle class="poloto0fill" cx="205.55556" cy="400" r="3"/>
<circle class="poloto0fill" cx="205.55556" cy="397.0904" r="3"/>
<circle class="poloto0fill" cx="205.55556" cy="397.2301" r="3"/>
<circle class="poloto0fill" cx="205.55556" cy="397.07703" r="3"/>
<circle class="poloto0fill" cx="205.55556" cy="398.03256" r="3"/>
<circle class="poloto0fill" cx="205.55556" cy="397.94135" r="3"/>
<circle class="poloto0fill" cx="205.55556" cy="398.3477" r="3"/>
<circle class="poloto0fill" cx="205.55556" cy="397.54898" r="3"/>
<circle class="poloto0fill" cx="205.55556" cy="397.50793" r="3"/>
<circle class="poloto0fill" cx="205.55556" cy="398.99768" r="3"/>
<circle class="poloto0fill" cx="205.55556" cy="398.5114" r="3"/>
<circle class="poloto0fill" cx="205.55556" cy="397.91415" r="3"/>
<circle class="poloto0fill" cx="205.55556" cy="398.06607" r="3"/>
<circle class="poloto0fill" cx="205.55556" cy="396.79196" r="3"/>
<circle class="poloto0fill" cx="261.1111" cy="397.6131" r="3"/>
<circle class="poloto0fill" cx="261.1111" cy="397.93674" r="3"/>
<circle class="poloto0fill" cx="261.1111" cy="398.1289" r="3"/>
<circle class="poloto0fill" cx="261.1111" cy="398.13602" r="3"/>
<circle class="poloto0fill" cx="261.1111" cy="395.31033" r="3"/>
<circle class="poloto0fill" cx="261.1111" cy="397.47797" r="3"/>
<circle class="poloto0fill" cx="261.1111" cy="398.283" r="3"/>
<circle class="poloto0fill" cx="261.1111" cy="399.11423" r="3"/>
<circle class="poloto0fill" cx="261.1111" cy="398.48853" r="3"/>
<circle class="poloto0fill" cx="261.1111" cy="399.13794" r="3"/>
<circle class="poloto0fill" cx="261.1111" cy="396.344" r="3"/>
<circle class="poloto0fill" cx="261.1111" cy="395.19226" r="3"/>
<circle class="poloto0fill" cx="261.1111" cy="398.90152" r="3"/>
<circle class="poloto0fill" cx="261.1111" cy="399.04147" r="3"/>
<circle class="poloto0fill" cx="261.1111" cy="399.52908" r="3"/>
<circle class="poloto0fill" cx="261.1111" cy="398.7011" r="3"/>
<circle class="poloto0fill" cx="316.6667" cy="398.5235" r="3"/>
<circle class="poloto0fill" cx="316.6667" cy="395.24866" r="3"/>
<circle class="poloto0fill" cx="316.6667" cy="397.55435" r="3"/>
<circle class="poloto0fill" cx="316.6667" cy="398.6797" r="3"/>
<circle class="poloto0fill" cx="316.6667" cy="399.26862" r="3"/>
<circle class="poloto0fill" cx="316.6667" cy="398.8812" r="3"/>
<circle class="poloto0fill" cx="316.6667" cy="398.5664" r="3"/>
<circle class="poloto0fill" cx="316.6667" cy="398.3884" r="3"/>
<circle class="poloto0fill" cx="316.6667" cy="398.47678" r="3"/>
<circle class="poloto0fill" cx="316.6667" cy="398.3037" r="3"/>
<circle class="poloto0fill" cx="316.6667" cy="398.08148" r="3"/>
<circle class="poloto0fill" cx="316.6667" cy="398.61325" r="3"/>
<circle class="poloto0fill" cx="316.6667" cy="398.41846" r="3"/>
<circle class="poloto0fill" cx="316.6667" cy="399.32806" r="3"/>
<circle class="poloto0fill" cx="316.6667" cy="396.9395" r="3"/>
<circle class="poloto0fill" cx="316.6667" cy="398.77698" r="3"/>
<circle class="poloto0fill" cx="372.22223" cy="398.69464" r="3"/>
<circle class="poloto0fill" cx="372.22223" cy="399.20328" r="3"/>
<circle class="poloto0fill" cx="372.22223" cy="398.85748" r="3"/>
<circle class="poloto0fill" cx="372.22223" cy="398.95023" r="3"/>
<circle class="poloto0fill" cx="372.22223" cy="391.5135" r="3"/>
<circle class="poloto0fill" cx="372.22223" cy="394.92712" r="3"/>
<circle class="poloto0fill" cx="372.22223" cy="394.79633" r="3"/>
<circle class="poloto0fill" cx="372.22223" cy="397.85425" r="3"/>
<circle class="poloto0fill" cx="372.22223" cy="398.07635" r="3"/>
<circle class="poloto0fill" cx="372.22223" cy="392.05313" r="3"/>
<circle class="poloto0fill" cx="372.22223" cy="389.94415" r="3"/>
<circle class="poloto0fill" cx="372.22223" cy="398.66043" r="3"/>
<circle class="poloto0fill" cx="372.22223" cy="398.88126" r="3"/>
<circle class="poloto0fill" cx="372.22223" cy="397.30478" r="3"/>
<circle class="poloto0fill" cx="372.22223" cy="398.36316" r="3"/>
<circle class="poloto0fill" cx="372.22223" cy="392.16306" r="3"/>
<circle class="poloto0fill" cx="427.77777" cy="394.00504" r="3"/>
<circle class="poloto0fill" cx="427.77777" cy="397.45206" r="3"/>
<circle class="poloto0fill" cx="427.77777" cy="390.2602" r="3"/>
<circle class="poloto0fill" cx="427.77777" cy="398.1961" r="3"/>
<circle class="poloto0fill" cx="427.77777" cy="397.70862" r="3"/>
<circle class="poloto0fill" cx="427.77777" cy="392.08768" r="3"/>
<circle class="poloto0fill" cx="427.77777" cy="397.99304" r="3"/>
<circle class="poloto0fill" cx="427.77777" cy="392.20108" r="3"/>
<circle class="poloto0fill" cx="427.77777" cy="398.7968" r="3"/>
<circle class="poloto0fill" cx="427.77777" cy="393.7598" r="3"/>
<circle class="poloto0fill" cx="427.77777" cy="392.46622" r="3"/>
<circle class="poloto0fill" cx="427.77777" cy="392.93802" r="3"/>
<circle class="poloto0fill" cx="427.77777" cy="395.13235" r="3"/>
<circle class="poloto0fill" cx="427.77777" cy="399.2804" r="3"/>
<circle class="poloto0fill" cx="427.77777" cy="398.24756" r="3"/>
<circle class="poloto0fill" cx="427.77777" cy="398.537" r="3"/>
<circle class="poloto0fill" cx="483.33334" cy="397.55908" r="3"/>
<circle class="poloto0fill" cx="483.33334" cy="398.45938" r="3"/>
<circle class="poloto0fill" cx="483.33334" cy="391.92682" r="3"/>
<circle class="poloto0fill" cx="483.33334" cy="395.69504" r="3"/>
<circle class="poloto0fill" cx="483.33334" cy="397.31262" r="3"/>
<circle class="poloto0fill" cx="483.33334" cy="396.3817" r="3"/>
<circle class="poloto0fill" cx="483.33334" cy="394.74954" r="3"/>
<circle class="poloto0fill" cx="483.33334" cy="392.50168" r="3"/>
<circle class="poloto0fill" cx="483.33334" cy="388.03357" r="3"/>
<circle class="poloto0fill" cx="483.33334" cy="394.94025" r="3"/>
<circle class="poloto0fill" cx="483.33334" cy="390.86023" r="3"/>
<circle class="poloto0fill" cx="483.33334" cy="394.64917" r="3"/>
<circle class="poloto0fill" cx="483.33334" cy="393.0143" r="3"/>
<circle class="poloto0fill" cx="483.33334" cy="398.92014" r="3"/>
<circle class="poloto0fill" cx="483.33334" cy="397.98123" r="3"/>
<circle class="poloto0fill" cx="483.33334" cy="392.9275" r="3"/>
<circle class="poloto0fill" cx="538.8889" cy="393.31497" r="3"/>
<circle class="poloto0fill" cx="538.8889" cy="396.89923" r="3"/>
<circle class="poloto0fill" cx="538.8889" cy="367.28143" r="3"/>
<circle class="poloto0fill" cx="538.8889" cy="367.74805" r="3"/>
<circle class="poloto0fill" cx="538.8889" cy="366.07477" r="3"/>
<circle class="poloto0fill" cx="538.8889" cy="392.80237" r="3"/>
<circle class="poloto0fill" cx="538.8889" cy="368.25912" r="3"/>
<circle class="poloto0fill" cx="538.8889" cy="365.1375" r="3"/>
<circle class="poloto0fill" cx="538.8889" cy="389.4247" r="3"/>
<circle class="poloto0fill" cx="538.8889" cy="396.77426" r="3"/>
<circle class="poloto0fill" cx="538.8889" cy="393.94897" r="3"/>
<circle class="poloto0fill" cx="538.8889" cy="392.1135" r="3"/>
<circle class="poloto0fill" cx="538.8889" cy="397.24377" r="3"/>
<circle class="poloto0fill" cx="538.8889" cy="396.86057" r="3"/>
<circle class="poloto0fill" cx="538.8889" cy="395.82986" r="3"/>
<circle class="poloto0fill" cx="538.8889" cy="392.81003" r="3"/>
<circle class="poloto0fill" cx="594.44446" cy="366.72107" r="3"/>
<circle class="poloto0fill" cx="594.44446" cy="366.8608" r="3"/>
<circle class="poloto0fill" cx="594.44446" cy="369.96246" r="3"/>
<circle class="poloto0fill" cx="594.44446" cy="366.88983" r="3"/>
<circle class="poloto0fill" cx="594.44446" cy="366.93344" r="3"/>
<circle class="poloto0fill" cx="594.44446" cy="370.056" r="3"/>
<circle class="poloto0fill" cx="594.44446" cy="370.1519" r="3"/>
<circle class="poloto0fill" cx="594.44446" cy="366.76855" r="3"/>
<circle class="poloto0fill" cx="594.44446" cy="362.01834" r="3"/>
<circle class="poloto0fill" cx="594.44446" cy="364.16928" r="3"/>
<circle class="poloto0fill" cx="594.44446" cy="359.4229" r="3"/>
<circle class="poloto0fill" cx="594.44446" cy="367.61456" r="3"/>
<circle class="poloto0fill" cx="594.44446" cy="360.12924" r="3"/>
<circle class="poloto0fill" cx="594.44446" cy="360.3051" r="3"/>
<circle class="poloto0fill" cx="594.44446" cy="362.68216" r="3"/>
<circle class="poloto0fill" cx="594.44446" cy="363.8498" r="3"/>
<circle class="poloto0fill" cx="650" cy="307.64255" r="3"/>
<circle class="poloto0fill" cx="650" cy="307.6673" r="3"/>
<circle class="poloto0fill" cx="650" cy="307.58078" r="3"/>
<circle class="poloto0fill" cx="650" cy="306.69565" r="3"/>
<circle class="poloto0fill" cx="650" cy="307.24695" r="3"/>
<circle class="poloto0fill" cx="650" cy="307.71838" r="3"/>
<circle class="poloto0fill" cx="650" cy="307.61185" r="3"/>
<circle class="poloto0fill" cx="650" cy="307.7574" r="3"/>
<circle class="poloto0fill" cx="650" cy="307.1587" r="3"/>
<circle class="poloto0fill" cx="650" cy="306.72992" r="3"/>
<circle class="poloto0fill" cx="650" cy="307.36456" r="3"/>
<circle class="poloto0fill" cx="650" cy="307.53033" r="3"/>
<circle class="poloto0fill" cx="650" cy="307.0882" r="3"/>
<circle class="poloto0fill" cx="650" cy="306.9641" r="3"/>
<circle class="poloto0fill" cx="650" cy="306.94403" r="3"/>
<circle class="poloto0fill" cx="650" cy="307.5318" r="3"/>
<text alignment-baseline="middle" class="poloto_text" font-size="large" text-anchor="start" x="675" y="150">
Query Par
</text>
<circle class="poloto1fill" cx="685" cy="131.25" r="5"/>
<circle class="poloto1fill" cx="150" cy="337.3133" r="3"/>
<circle class="poloto1fill" cx="150" cy="337.2274" r="3"/>
<circle class="poloto1fill" cx="150" cy="337.89746" r="3"/>
<circle class="poloto1fill" cx="150" cy="337.2355" r="3"/>
<circle class="poloto1fill" cx="150" cy="337.31842" r="3"/>
<circle class="poloto1fill" cx="150" cy="304.28796" r="3"/>
<circle class="poloto1fill" cx="150" cy="335.24542" r="3"/>
<circle class="poloto1fill" cx="150" cy="335.9834" r="3"/>
<circle class="poloto1fill" cx="150" cy="337.39438" r="3"/>
<circle class="poloto1fill" cx="150" cy="331.35666" r="3"/>
<circle class="poloto1fill" cx="150" cy="336.77365" r="3"/>
<circle class="poloto1fill" cx="150" cy="335.2375" r="3"/>
<circle class="poloto1fill" cx="150" cy="334.62473" r="3"/>
<circle class="poloto1fill" cx="150" cy="336.76465" r="3"/>
<circle class="poloto1fill" cx="150" cy="333.85416" r="3"/>
<circle class="poloto1fill" cx="150" cy="334.9304" r="3"/>
<circle class="poloto1fill" cx="205.55556" cy="339.63513" r="3"/>
<circle class="poloto1fill" cx="205.55556" cy="340.77795" r="3"/>
<circle class="poloto1fill" cx="205.55556" cy="341.88947" r="3"/>
<circle class="poloto1fill" cx="205.55556" cy="341.22684" r="3"/>
<circle class="poloto1fill" cx="205.55556" cy="340.91458" r="3"/>
<circle class="poloto1fill" cx="205.55556" cy="339.4435" r="3"/>
<circle class="poloto1fill" cx="205.55556" cy="341.0438" r="3"/>
<circle class="poloto1fill" cx="205.55556" cy="341.29773" r="3"/>
<circle class="poloto1fill" cx="205.55556" cy="340.7919" r="3"/>
<circle class="poloto1fill" cx="205.55556" cy="341.81027" r="3"/>
<circle class="poloto1fill" cx="205.55556" cy="340.0008" r="3"/>
<circle class="poloto1fill" cx="205.55556" cy="340.75125" r="3"/>
<circle class="poloto1fill" cx="205.55556" cy="339.43918" r="3"/>
<circle class="poloto1fill" cx="205.55556" cy="341.11935" r="3"/>
<circle class="poloto1fill" cx="205.55556" cy="340.2086" r="3"/>
<circle class="poloto1fill" cx="205.55556" cy="341.38614" r="3"/>
<circle class="poloto1fill" cx="261.1111" cy="344.58344" r="3"/>
<circle class="poloto1fill" cx="261.1111" cy="344.65677" r="3"/>
<circle class="poloto1fill" cx="261.1111" cy="342.7973" r="3"/>
<circle class="poloto1fill" cx="261.1111" cy="344.2611" r="3"/>
<circle class="poloto1fill" cx="261.1111" cy="343.90857" r="3"/>
<circle class="poloto1fill" cx="261.1111" cy="342.8709" r="3"/>
<circle class="poloto1fill" cx="261.1111" cy="344.04865" r="3"/>
<circle class="poloto1fill" cx="261.1111" cy="344.68124" r="3"/>
<circle class="poloto1fill" cx="261.1111" cy="344.05045" r="3"/>
<circle class="poloto1fill" cx="261.1111" cy="343.15802" r="3"/>
<circle class="poloto1fill" cx="261.1111" cy="343.51495" r="3"/>
<circle class="poloto1fill" cx="261.1111" cy="343.82944" r="3"/>
<circle class="poloto1fill" cx="261.1111" cy="340.0329" r="3"/>
<circle class="poloto1fill" cx="261.1111" cy="344.4678" r="3"/>
<circle class="poloto1fill" cx="261.1111" cy="342.99786" r="3"/>
<circle class="poloto1fill" cx="261.1111" cy="343.04523" r="3"/>
<circle class="poloto1fill" cx="316.6667" cy="318.84985" r="3"/>
<circle class="poloto1fill" cx="316.6667" cy="330.5176" r="3"/>
<circle class="poloto1fill" cx="316.6667" cy="333.74854" r="3"/>
<circle class="poloto1fill" cx="316.6667" cy="343.00125" r="3"/>
<circle class="poloto1fill" cx="316.6667" cy="340.70584" r="3"/>
<circle class="poloto1fill" cx="316.6667" cy="343.61053" r="3"/>
<circle class="poloto1fill" cx="316.6667" cy="340.40344" r="3"/>
<circle class="poloto1fill" cx="316.6667" cy="345.4251" r="3"/>
<circle class="poloto1fill" cx="316.6667" cy="344.74493" r="3"/>
<circle class="poloto1fill" cx="316.6667" cy="345.1498" r="3"/>
<circle class="poloto1fill" cx="316.6667" cy="344.7913" r="3"/>
<circle class="poloto1fill" cx="316.6667" cy="342.18997" r="3"/>
<circle class="poloto1fill" cx="316.6667" cy="343.7613" r="3"/>
<circle class="poloto1fill" cx="316.6667" cy="344.42917" r="3"/>
<circle class="poloto1fill" cx="316.6667" cy="343.422" r="3"/>
<circle class="poloto1fill" cx="316.6667" cy="345.48834" r="3"/>
<circle class="poloto1fill" cx="372.22223" cy="345.43597" r="3"/>
<circle class="poloto1fill" cx="372.22223" cy="344.77768" r="3"/>
<circle class="poloto1fill" cx="372.22223" cy="328.6037" r="3"/>
<circle class="poloto1fill" cx="372.22223" cy="340.72418" r="3"/>
<circle class="poloto1fill" cx="372.22223" cy="340.9564" r="3"/>
<circle class="poloto1fill" cx="372.22223" cy="343.82285" r="3"/>
<circle class="poloto1fill" cx="372.22223" cy="344.07486" r="3"/>
<circle class="poloto1fill" cx="372.22223" cy="339.161" r="3"/>
<circle class="poloto1fill" cx="372.22223" cy="342.39575" r="3"/>
<circle class="poloto1fill" cx="372.22223" cy="344.53555" r="3"/>
<circle class="poloto1fill" cx="372.22223" cy="345.25293" r="3"/>
<circle class="poloto1fill" cx="372.22223" cy="338.80988" r="3"/>
<circle class="poloto1fill" cx="372.22223" cy="344.9609" r="3"/>
<circle class="poloto1fill" cx="372.22223" cy="337.66028" r="3"/>
<circle class="poloto1fill" cx="372.22223" cy="344.3219" r="3"/>
<circle class="poloto1fill" cx="372.22223" cy="334.58865" r="3"/>
<circle class="poloto1fill" cx="427.77777" cy="342.13434" r="3"/>
<circle class="poloto1fill" cx="427.77777" cy="340.34598" r="3"/>
<circle class="poloto1fill" cx="427.77777" cy="339.5207" r="3"/>
<circle class="poloto1fill" cx="427.77777" cy="333.48322" r="3"/>
<circle class="poloto1fill" cx="427.77777" cy="338.66272" r="3"/>
<circle class="poloto1fill" cx="427.77777" cy="341.12946" r="3"/>
<circle class="poloto1fill" cx="427.77777" cy="341.2487" r="3"/>
<circle class="poloto1fill" cx="427.77777" cy="341.4301" r="3"/>
<circle class="poloto1fill" cx="427.77777" cy="342.64087" r="3"/>
<circle class="poloto1fill" cx="427.77777" cy="334.51215" r="3"/>
<circle class="poloto1fill" cx="427.77777" cy="344.17996" r="3"/>
<circle class="poloto1fill" cx="427.77777" cy="341.12216" r="3"/>
<circle class="poloto1fill" cx="427.77777" cy="345.28632" r="3"/>
<circle class="poloto1fill" cx="427.77777" cy="338.8834" r="3"/>
<circle class="poloto1fill" cx="427.77777" cy="339.7761" r="3"/>
<circle class="poloto1fill" cx="427.77777" cy="345.68857" r="3"/>
<circle class="poloto1fill" cx="483.33334" cy="337.78" r="3"/>
<circle class="poloto1fill" cx="483.33334" cy="341.28436" r="3"/>
<circle class="poloto1fill" cx="483.33334" cy="342.20517" r="3"/>
<circle class="poloto1fill" cx="483.33334" cy="342.1421" r="3"/>
<circle class="poloto1fill" cx="483.33334" cy="340.4359" r="3"/>
<circle class="poloto1fill" cx="483.33334" cy="330.90875" r="3"/>
<circle class="poloto1fill" cx="483.33334" cy="340.68674" r="3"/>
<circle class="poloto1fill" cx="483.33334" cy="343.58835" r="3"/>
<circle class="poloto1fill" cx="483.33334" cy="342.1334" r="3"/>
<circle class="poloto1fill" cx="483.33334" cy="341.28348" r="3"/>
<circle class="poloto1fill" cx="483.33334" cy="331.50574" r="3"/>
<circle class="poloto1fill" cx="483.33334" cy="342.27136" r="3"/>
<circle class="poloto1fill" cx="483.33334" cy="340.6872" r="3"/>
<circle class="poloto1fill" cx="483.33334" cy="345.97992" r="3"/>
<circle class="poloto1fill" cx="483.33334" cy="335.86536" r="3"/>
<circle class="poloto1fill" cx="483.33334" cy="345.27365" r="3"/>
<circle class="poloto1fill" cx="538.8889" cy="338.9538" r="3"/>
<circle class="poloto1fill" cx="538.8889" cy="344.00876" r="3"/>
<circle class="poloto1fill" cx="538.8889" cy="335.59534" r="3"/>
<circle class="poloto1fill" cx="538.8889" cy="340.03424" r="3"/>
<circle class="poloto1fill" cx="538.8889" cy="339.80945" r="3"/>
<circle class="poloto1fill" cx="538.8889" cy="341.7649" r="3"/>
<circle class="poloto1fill" cx="538.8889" cy="338.87677" r="3"/>
<circle class="poloto1fill" cx="538.8889" cy="339.33725" r="3"/>
<circle class="poloto1fill" cx="538.8889" cy="343.7519" r="3"/>
<circle class="poloto1fill" cx="538.8889" cy="339.87134" r="3"/>
<circle class="poloto1fill" cx="538.8889" cy="340.56552" r="3"/>
<circle class="poloto1fill" cx="538.8889" cy="340.42935" r="3"/>
<circle class="poloto1fill" cx="538.8889" cy="345.63922" r="3"/>
<circle class="poloto1fill" cx="538.8889" cy="333.79788" r="3"/>
<circle class="poloto1fill" cx="538.8889" cy="338.02786" r="3"/>
<circle class="poloto1fill" cx="538.8889" cy="337.7435" r="3"/>
<circle class="poloto1fill" cx="594.44446" cy="262.8739" r="3"/>
<circle class="poloto1fill" cx="594.44446" cy="262.49106" r="3"/>
<circle class="poloto1fill" cx="594.44446" cy="262.45023" r="3"/>
<circle class="poloto1fill" cx="594.44446" cy="262.35043" r="3"/>
<circle class="poloto1fill" cx="594.44446" cy="262.64758" r="3"/>
<circle class="poloto1fill" cx="594.44446" cy="263.1713" r="3"/>
<circle class="poloto1fill" cx="594.44446" cy="262.53372" r="3"/>
<circle class="poloto1fill" cx="594.44446" cy="261.71497" r="3"/>
<circle class="poloto1fill" cx="594.44446" cy="262.5012" r="3"/>
<circle class="poloto1fill" cx="594.44446" cy="262.54242" r="3"/>
<circle class="poloto1fill" cx="594.44446" cy="263.76215" r="3"/>
<circle class="poloto1fill" cx="594.44446" cy="262.67853" r="3"/>
<circle class="poloto1fill" cx="594.44446" cy="262.9519" r="3"/>
<circle class="poloto1fill" cx="594.44446" cy="262.50317" r="3"/>
<circle class="poloto1fill" cx="594.44446" cy="262.7124" r="3"/>
<circle class="poloto1fill" cx="594.44446" cy="261.59616" r="3"/>
<circle class="poloto1fill" cx="650" cy="111.40015" r="3"/>
<circle class="poloto1fill" cx="650" cy="111.7738" r="3"/>
<circle class="poloto1fill" cx="650" cy="111.20419" r="3"/>
<circle class="poloto1fill" cx="650" cy="110.95535" r="3"/>
<circle class="poloto1fill" cx="650" cy="111.84357" r="3"/>
<circle class="poloto1fill" cx="650" cy="111.87796" r="3"/>
<circle class="poloto1fill" cx="650" cy="111.37021" r="3"/>
<circle class="poloto1fill" cx="650" cy="112.22583" r="3"/>
<circle class="poloto1fill" cx="650" cy="111.573395" r="3"/>
<circle class="poloto1fill" cx="650" cy="110.3739" r="3"/>
<circle class="poloto1fill" cx="650" cy="112.15045" r="3"/>
<circle class="poloto1fill" cx="650" cy="112.69678" r="3"/>
<circle class="poloto1fill" cx="650" cy="111.76819" r="3"/>
<circle class="poloto1fill" cx="650" cy="111.73828" r="3"/>
<circle class="poloto1fill" cx="650" cy="111.910706" r="3"/>
<circle class="poloto1fill" cx="650" cy="107.59012" r="3"/>
<text alignment-baseline="middle" class="poloto_text" font-size="large" text-anchor="start" x="675" y="200">
Rebal
</text>
<circle class="poloto2fill" cx="685" cy="181.25" r="5"/>
<circle class="poloto2fill" cx="650" cy="306.9912" r="3"/>
<circle class="poloto2fill" cx="650" cy="306.37036" r="3"/>
<circle class="poloto2fill" cx="650" cy="307.3291" r="3"/>
<circle class="poloto2fill" cx="650" cy="307.11163" r="3"/>
<circle class="poloto2fill" cx="650" cy="307.593" r="3"/>
<circle class="poloto2fill" cx="650" cy="307.32895" r="3"/>
<circle class="poloto2fill" cx="650" cy="307.14163" r="3"/>
<circle class="poloto2fill" cx="650" cy="307.26987" r="3"/>
<circle class="poloto2fill" cx="650" cy="306.66772" r="3"/>
<circle class="poloto2fill" cx="650" cy="307.60635" r="3"/>
<circle class="poloto2fill" cx="650" cy="307.46393" r="3"/>
<circle class="poloto2fill" cx="650" cy="307.69293" r="3"/>
<circle class="poloto2fill" cx="650" cy="307.61237" r="3"/>
<circle class="poloto2fill" cx="650" cy="307.21735" r="3"/>
<circle class="poloto2fill" cx="650" cy="307.13678" r="3"/>
<circle class="poloto2fill" cx="650" cy="307.2706" r="3"/>
<circle class="poloto2fill" cx="650" cy="307.4558" r="3"/>
<circle class="poloto2fill" cx="650" cy="307.48776" r="3"/>
<circle class="poloto2fill" cx="650" cy="307.7578" r="3"/>
<circle class="poloto2fill" cx="650" cy="307.40964" r="3"/>
<circle class="poloto2fill" cx="650" cy="307.13647" r="3"/>
<circle class="poloto2fill" cx="650" cy="307.0474" r="3"/>
<circle class="poloto2fill" cx="650" cy="307.24783" r="3"/>
<circle class="poloto2fill" cx="650" cy="306.33545" r="3"/>
<circle class="poloto2fill" cx="650" cy="307.19138" r="3"/>
<circle class="poloto2fill" cx="650" cy="307.67273" r="3"/>
<circle class="poloto2fill" cx="650" cy="307.46918" r="3"/>
<circle class="poloto2fill" cx="650" cy="307.57855" r="3"/>
<circle class="poloto2fill" cx="650" cy="307.16165" r="3"/>
<circle class="poloto2fill" cx="650" cy="307.3542" r="3"/>
<circle class="poloto2fill" cx="650" cy="307.4131" r="3"/>
<circle class="poloto2fill" cx="650" cy="307.20416" r="3"/>
<circle class="poloto2fill" cx="650" cy="307.31503" r="3"/>
<circle class="poloto2fill" cx="650" cy="307.51923" r="3"/>
<circle class="poloto2fill" cx="650" cy="307.65045" r="3"/>
<circle class="poloto2fill" cx="650" cy="307.52386" r="3"/>
<circle class="poloto2fill" cx="650" cy="307.23306" r="3"/>
<circle class="poloto2fill" cx="650" cy="307.18787" r="3"/>
<circle class="poloto2fill" cx="650" cy="306.74786" r="3"/>
<circle class="poloto2fill" cx="650" cy="307.34265" r="3"/>
<circle class="poloto2fill" cx="650" cy="307.6033" r="3"/>
<circle class="poloto2fill" cx="650" cy="307.32928" r="3"/>
<circle class="poloto2fill" cx="650" cy="307.64636" r="3"/>
<circle class="poloto2fill" cx="650" cy="307.47836" r="3"/>
<circle class="poloto2fill" cx="650" cy="307.28018" r="3"/>
<circle class="poloto2fill" cx="650" cy="307.32678" r="3"/>
<circle class="poloto2fill" cx="650" cy="307.16797" r="3"/>
<circle class="poloto2fill" cx="650" cy="307.09415" r="3"/>
<circle class="poloto2fill" cx="650" cy="307.51608" r="3"/>
<circle class="poloto2fill" cx="650" cy="307.51227" r="3"/>
<circle class="poloto2fill" cx="650" cy="307.42267" r="3"/>
<circle class="poloto2fill" cx="650" cy="307.2298" r="3"/>
<circle class="poloto2fill" cx="650" cy="307.1818" r="3"/>
<circle class="poloto2fill" cx="650" cy="307.25708" r="3"/>
<circle class="poloto2fill" cx="650" cy="307.08716" r="3"/>
<circle class="poloto2fill" cx="650" cy="307.18268" r="3"/>
<circle class="poloto2fill" cx="650" cy="307.70422" r="3"/>
<circle class="poloto2fill" cx="650" cy="307.5487" r="3"/>
<circle class="poloto2fill" cx="650" cy="307.52267" r="3"/>
<circle class="poloto2fill" cx="650" cy="307.38138" r="3"/>
<circle class="poloto2fill" cx="650" cy="307.1885" r="3"/>
<circle class="poloto2fill" cx="650" cy="307.2248" r="3"/>
<circle class="poloto2fill" cx="650" cy="307.31686" r="3"/>
<circle class="poloto2fill" cx="650" cy="307.63205" r="3"/>
<circle class="poloto2fill" cx="650" cy="307.60272" r="3"/>
<circle class="poloto2fill" cx="650" cy="307.61472" r="3"/>
<circle class="poloto2fill" cx="650" cy="307.56863" r="3"/>
<circle class="poloto2fill" cx="650" cy="307.3888" r="3"/>
<circle class="poloto2fill" cx="650" cy="307.3572" r="3"/>
<circle class="poloto2fill" cx="650" cy="307.2092" r="3"/>
<circle class="poloto2fill" cx="650" cy="307.25256" r="3"/>
<circle class="poloto2fill" cx="650" cy="305.34357" r="3"/>
<circle class="poloto2fill" cx="650" cy="307.62375" r="3"/>
<circle class="poloto2fill" cx="650" cy="307.5102" r="3"/>
<circle class="poloto2fill" cx="650" cy="307.18262" r="3"/>
<circle class="poloto2fill" cx="650" cy="307.20532" r="3"/>
<circle class="poloto2fill" cx="650" cy="307.23108" r="3"/>
<circle class="poloto2fill" cx="650" cy="307.34412" r="3"/>
<circle class="poloto2fill" cx="650" cy="307.283" r="3"/>
<circle class="poloto2fill" cx="650" cy="307.55017" r="3"/>
<circle class="poloto2fill" cx="650" cy="307.65878" r="3"/>
<circle class="poloto2fill" cx="650" cy="307.68134" r="3"/>
<circle class="poloto2fill" cx="650" cy="307.53296" r="3"/>
<circle class="poloto2fill" cx="650" cy="307.03397" r="3"/>
<circle class="poloto2fill" cx="650" cy="307.18347" r="3"/>
<circle class="poloto2fill" cx="650" cy="307.1355" r="3"/>
<circle class="poloto2fill" cx="650" cy="307.33524" r="3"/>
<circle class="poloto2fill" cx="650" cy="307.65582" r="3"/>
<circle class="poloto2fill" cx="650" cy="307.51025" r="3"/>
<circle class="poloto2fill" cx="650" cy="307.65622" r="3"/>
<circle class="poloto2fill" cx="650" cy="307.3094" r="3"/>
<circle class="poloto2fill" cx="650" cy="307.3127" r="3"/>
<circle class="poloto2fill" cx="650" cy="307.38892" r="3"/>
<circle class="poloto2fill" cx="650" cy="307.24136" r="3"/>
<circle class="poloto2fill" cx="650" cy="307.41705" r="3"/>
<circle class="poloto2fill" cx="650" cy="307.59152" r="3"/>
<circle class="poloto2fill" cx="650" cy="307.42044" r="3"/>
<circle class="poloto2fill" cx="650" cy="307.7084" r="3"/>
<circle class="poloto2fill" cx="650" cy="307.37122" r="3"/>
<circle class="poloto2fill" cx="650" cy="307.29022" r="3"/>
<text alignment-baseline="middle" class="poloto_text" font-size="large" text-anchor="start" x="675" y="250">
Query
</text>
<circle class="poloto3fill" cx="685" cy="231.25" r="5"/>
<circle class="poloto3fill" cx="650" cy="100.60434" r="3"/>
<circle class="poloto3fill" cx="650" cy="103.42261" r="3"/>
<circle class="poloto3fill" cx="650" cy="103.55609" r="3"/>
<circle class="poloto3fill" cx="650" cy="102.82251" r="3"/>
<circle class="poloto3fill" cx="650" cy="102.674805" r="3"/>
<circle class="poloto3fill" cx="650" cy="103.07083" r="3"/>
<circle class="poloto3fill" cx="650" cy="104.11734" r="3"/>
<circle class="poloto3fill" cx="650" cy="104.04471" r="3"/>
<circle class="poloto3fill" cx="650" cy="103.66382" r="3"/>
<circle class="poloto3fill" cx="650" cy="104.346466" r="3"/>
<circle class="poloto3fill" cx="650" cy="103.47015" r="3"/>
<circle class="poloto3fill" cx="650" cy="103.22946" r="3"/>
<circle class="poloto3fill" cx="650" cy="103.32446" r="3"/>
<circle class="poloto3fill" cx="650" cy="104.052124" r="3"/>
<circle class="poloto3fill" cx="650" cy="104.068115" r="3"/>
<circle class="poloto3fill" cx="650" cy="103.97153" r="3"/>
<circle class="poloto3fill" cx="650" cy="104.12903" r="3"/>
<circle class="poloto3fill" cx="650" cy="104.04318" r="3"/>
<circle class="poloto3fill" cx="650" cy="104.640594" r="3"/>
<circle class="poloto3fill" cx="650" cy="103.67551" r="3"/>
<circle class="poloto3fill" cx="650" cy="104.155" r="3"/>
<circle class="poloto3fill" cx="650" cy="103.757355" r="3"/>
<circle class="poloto3fill" cx="650" cy="103.834076" r="3"/>
<circle class="poloto3fill" cx="650" cy="103.95413" r="3"/>
<circle class="poloto3fill" cx="650" cy="103.55878" r="3"/>
<circle class="poloto3fill" cx="650" cy="103.00357" r="3"/>
<circle class="poloto3fill" cx="650" cy="103.29755" r="3"/>
<circle class="poloto3fill" cx="650" cy="103.83896" r="3"/>
<circle class="poloto3fill" cx="650" cy="104.01785" r="3"/>
<circle class="poloto3fill" cx="650" cy="103.74271" r="3"/>
<circle class="poloto3fill" cx="650" cy="104.101105" r="3"/>
<circle class="poloto3fill" cx="650" cy="103.60498" r="3"/>
<circle class="poloto3fill" cx="650" cy="104.61429" r="3"/>
<circle class="poloto3fill" cx="650" cy="102.9624" r="3"/>
<circle class="poloto3fill" cx="650" cy="103.220184" r="3"/>
<circle class="poloto3fill" cx="650" cy="104.04932" r="3"/>
<circle class="poloto3fill" cx="650" cy="103.74301" r="3"/>
<circle class="poloto3fill" cx="650" cy="104.16165" r="3"/>
<circle class="poloto3fill" cx="650" cy="103.65683" r="3"/>
<circle class="poloto3fill" cx="650" cy="103.85635" r="3"/>
<circle class="poloto3fill" cx="650" cy="104.21481" r="3"/>
<circle class="poloto3fill" cx="650" cy="104.3837" r="3"/>
<circle class="poloto3fill" cx="650" cy="103.01395" r="3"/>
<circle class="poloto3fill" cx="650" cy="104.46103" r="3"/>
<circle class="poloto3fill" cx="650" cy="104.12796" r="3"/>
<circle class="poloto3fill" cx="650" cy="103.91519" r="3"/>
<circle class="poloto3fill" cx="650" cy="103.98941" r="3"/>
<circle class="poloto3fill" cx="650" cy="102.846954" r="3"/>
<circle class="poloto3fill" cx="650" cy="103.58389" r="3"/>
<circle class="poloto3fill" cx="650" cy="103.6745" r="3"/>
<circle class="poloto3fill" cx="650" cy="103.80759" r="3"/>
<circle class="poloto3fill" cx="650" cy="104.95068" r="3"/>
<circle class="poloto3fill" cx="650" cy="103.67276" r="3"/>
<circle class="poloto3fill" cx="650" cy="104.01074" r="3"/>
<circle class="poloto3fill" cx="650" cy="103.243256" r="3"/>
<circle class="poloto3fill" cx="650" cy="104.117096" r="3"/>
<circle class="poloto3fill" cx="650" cy="104.21158" r="3"/>
<circle class="poloto3fill" cx="650" cy="103.463135" r="3"/>
<circle class="poloto3fill" cx="650" cy="104.10968" r="3"/>
<circle class="poloto3fill" cx="650" cy="103.64264" r="3"/>
<circle class="poloto3fill" cx="650" cy="104.471954" r="3"/>
<circle class="poloto3fill" cx="650" cy="103.372406" r="3"/>
<circle class="poloto3fill" cx="650" cy="103.663025" r="3"/>
<circle class="poloto3fill" cx="650" cy="104.390594" r="3"/>
<circle class="poloto3fill" cx="650" cy="104.13922" r="3"/>
<circle class="poloto3fill" cx="650" cy="103.89844" r="3"/>
<circle class="poloto3fill" cx="650" cy="104.6543" r="3"/>
<circle class="poloto3fill" cx="650" cy="103.96741" r="3"/>
<circle class="poloto3fill" cx="650" cy="105.09912" r="3"/>
<circle class="poloto3fill" cx="650" cy="104.51474" r="3"/>
<circle class="poloto3fill" cx="650" cy="100" r="3"/>
<circle class="poloto3fill" cx="650" cy="103.594055" r="3"/>
<circle class="poloto3fill" cx="650" cy="102.6069" r="3"/>
<circle class="poloto3fill" cx="650" cy="103.54886" r="3"/>
<circle class="poloto3fill" cx="650" cy="103.36716" r="3"/>
<circle class="poloto3fill" cx="650" cy="103.91284" r="3"/>
<circle class="poloto3fill" cx="650" cy="103.47067" r="3"/>
<circle class="poloto3fill" cx="650" cy="104.189026" r="3"/>
<circle class="poloto3fill" cx="650" cy="103.569824" r="3"/>
<circle class="poloto3fill" cx="650" cy="104.15564" r="3"/>
<circle class="poloto3fill" cx="650" cy="103.43692" r="3"/>
<circle class="poloto3fill" cx="650" cy="103.948425" r="3"/>
<circle class="poloto3fill" cx="650" cy="104.27966" r="3"/>
<circle class="poloto3fill" cx="650" cy="104.26926" r="3"/>
<circle class="poloto3fill" cx="650" cy="103.19986" r="3"/>
<circle class="poloto3fill" cx="650" cy="103.96149" r="3"/>
<circle class="poloto3fill" cx="650" cy="104.35812" r="3"/>
<circle class="poloto3fill" cx="650" cy="104.105316" r="3"/>
<circle class="poloto3fill" cx="650" cy="103.28677" r="3"/>
<circle class="poloto3fill" cx="650" cy="104.237976" r="3"/>
<circle class="poloto3fill" cx="650" cy="103.48575" r="3"/>
<circle class="poloto3fill" cx="650" cy="103.469696" r="3"/>
<circle class="poloto3fill" cx="650" cy="104.837494" r="3"/>
<circle class="poloto3fill" cx="650" cy="103.84665" r="3"/>
<circle class="poloto3fill" cx="650" cy="103.574615" r="3"/>
<circle class="poloto3fill" cx="650" cy="103.99658" r="3"/>
<circle class="poloto3fill" cx="650" cy="103.37323" r="3"/>
<circle class="poloto3fill" cx="650" cy="103.72916" r="3"/>
<circle class="poloto3fill" cx="650" cy="103.41672" r="3"/>
<circle class="poloto3fill" cx="650" cy="103.99219" r="3"/>
<text alignment-baseline="start" class="poloto_text" font-size="x-large" text-anchor="middle" x="400" y="37.5">
Bench of differing parallel switch levels with abspiral(20,000,0.2)
</text>
<text alignment-baseline="start" class="poloto_text" font-size="large" text-anchor="middle" x="400" y="481.25">
Height at which to switch to sequential
</text>
<text alignment-baseline="start" class="poloto_text" font-size="large" text-anchor="middle" transform="rotate(-90,37.5,250)" x="37.5" y="250">
Time in Seconds
</text>
<path class="poloto_axis_lines" d="M150,100 L150,400 L650,400" stroke="black"/>
</svg>