<svg class="poloto" width="800" height="500" viewBox="0 0 800 500" xmlns="http://www.w3.org/2000/svg" ><rect class="poloto_background" fill="white" x="0" y="0" width="800" height="500" /><style><style>.poloto {
            font-family: "Arial";
            stroke-width:2;
            }
            .poloto_text{fill: var(--poloto_fg_color,black);  }
            .poloto_axis_lines{stroke: var(--poloto_fg_color,black);stoke-width:3;fill:none}
            .poloto_background{fill: var(--poloto_bg_color,aliceblue); }
            .poloto0stroke{stroke:  var(--poloto_color0,blue); }
            .poloto1stroke{stroke:  var(--poloto_color1,red); }
            .poloto2stroke{stroke:  var(--poloto_color2,green); }
            .poloto3stroke{stroke:  var(--poloto_color3,gold); }
            .poloto4stroke{stroke:  var(--poloto_color4,aqua); }
            .poloto5stroke{stroke:  var(--poloto_color5,brown); }
            .poloto6stroke{stroke:  var(--poloto_color6,lime); }
            .poloto7stroke{stroke:  var(--poloto_color7,chocolate); }
            .poloto0fill{fill:var(--poloto_color0,blue);}
            .poloto1fill{fill:var(--poloto_color1,red);}
            .poloto2fill{fill:var(--poloto_color2,green);}
            .poloto3fill{fill:var(--poloto_color3,gold);}
            .poloto4fill{fill:var(--poloto_color4,aqua);}
            .poloto5fill{fill:var(--poloto_color5,brown);}
            .poloto6fill{fill:var(--poloto_color6,lime);}
            .poloto7fill{fill:var(--poloto_color7,chocolate);}</style></style><line class="poloto_axis_lines" stroke="black" x1="150" x2="150" y1="400" y2="405" /><text class="poloto_text" alignment-baseline="start" text-anchor="middle" x="150" y="430" >0</text><line class="poloto_axis_lines" stroke="black" x1="230.64516" x2="230.64516" y1="400" y2="405" /><text class="poloto_text" alignment-baseline="start" text-anchor="middle" x="230.64516" y="430" >10</text><line class="poloto_axis_lines" stroke="black" x1="311.2903" x2="311.2903" y1="400" y2="405" /><text class="poloto_text" alignment-baseline="start" text-anchor="middle" x="311.2903" y="430" >20</text><line class="poloto_axis_lines" stroke="black" x1="391.9355" x2="391.9355" y1="400" y2="405" /><text class="poloto_text" alignment-baseline="start" text-anchor="middle" x="391.9355" y="430" >30</text><line class="poloto_axis_lines" stroke="black" x1="472.58063" x2="472.58063" y1="400" y2="405" /><text class="poloto_text" alignment-baseline="start" text-anchor="middle" x="472.58063" y="430" >40</text><line class="poloto_axis_lines" stroke="black" x1="553.2258" x2="553.2258" y1="400" y2="405" /><text class="poloto_text" alignment-baseline="start" text-anchor="middle" x="553.2258" y="430" >50</text><line class="poloto_axis_lines" stroke="black" x1="633.871" x2="633.871" y1="400" y2="405" /><text class="poloto_text" alignment-baseline="start" text-anchor="middle" x="633.871" y="430" >60</text><line class="poloto_axis_lines" stroke="black" x1="150" x2="144" y1="400" y2="400" /><text class="poloto_text" alignment-baseline="middle" text-anchor="end" x="135" y="400" >0</text><line class="poloto_axis_lines" stroke="black" x1="150" x2="144" y1="356.7598" y2="356.7598" /><text class="poloto_text" alignment-baseline="middle" text-anchor="end" x="135" y="356.7598" >500000</text><line class="poloto_axis_lines" stroke="black" x1="150" x2="144" y1="313.5196" y2="313.5196" /><text class="poloto_text" alignment-baseline="middle" text-anchor="end" x="135" y="313.5196" >1000000</text><line class="poloto_axis_lines" stroke="black" x1="150" x2="144" y1="270.27942" y2="270.27942" /><text class="poloto_text" alignment-baseline="middle" text-anchor="end" x="135" y="270.27942" >1500000</text><line class="poloto_axis_lines" stroke="black" x1="150" x2="144" y1="227.03918" y2="227.03918" /><text class="poloto_text" alignment-baseline="middle" text-anchor="end" x="135" y="227.03918" >2000000</text><line class="poloto_axis_lines" stroke="black" x1="150" x2="144" y1="183.79901" y2="183.79901" /><text class="poloto_text" alignment-baseline="middle" text-anchor="end" x="135" y="183.79901" >2500000</text><line class="poloto_axis_lines" stroke="black" x1="150" x2="144" y1="140.5588" y2="140.5588" /><text class="poloto_text" alignment-baseline="middle" text-anchor="end" x="135" y="140.5588" >3000000</text><text class="poloto_text" alignment-baseline="middle" text-anchor="start" font-size="large" x="675" y="100" >query</text><rect class="poloto0fill" x="680" y="76.25" width="50" height="7.5" rx="5" ry="5" /><g class="poloto0fill" ><rect x="150" y="400" width="5.064514" height="0" /><rect x="158.06451" y="399.99966" width="5.064514" height="0.00033569336" /><rect x="166.12903" y="400" width="5.064514" height="0" /><rect x="174.19354" y="399.99896" width="5.064514" height="0.0010375977" /><rect x="182.25806" y="400" width="5.064514" height="0" /><rect x="190.32257" y="399.99966" width="5.0645294" height="0.00033569336" /><rect x="198.3871" y="400" width="5.064514" height="0" /><rect x="206.45161" y="395.26138" width="5.064514" height="4.738617" /><rect x="214.51613" y="400" width="5.064514" height="0" /><rect x="222.58064" y="399.99966" width="5.064514" height="0.00033569336" /><rect x="230.64516" y="400" width="5.0645294" height="0" /><rect x="238.70969" y="398.76556" width="5.064514" height="1.234436" /><rect x="246.7742" y="400" width="5.064514" height="0" /><rect x="254.83871" y="399.712" width="5.064514" height="0.28799438" /><rect x="262.90323" y="399.93323" width="5.064514" height="0.06677246" /><rect x="270.96774" y="348.06635" width="5.064514" height="51.933655" /><rect x="279.03226" y="400" width="5.064514" height="0" /><rect x="287.09677" y="399.99966" width="5.064514" height="0.00033569336" /><rect x="295.1613" y="400" width="5.064514" height="0" /><rect x="303.2258" y="399.99896" width="5.064514" height="0.0010375977" /><rect x="311.2903" y="400" width="5.0645447" height="0" /><rect x="319.35486" y="399.99966" width="5.064514" height="0.00033569336" /><rect x="327.41937" y="400" width="5.064514" height="0" /><rect x="335.4839" y="381.502" width="5.064514" height="18.497986" /><rect x="343.5484" y="400" width="5.064514" height="0" /><rect x="351.6129" y="399.94968" width="5.064514" height="0.050323486" /><rect x="359.67743" y="399.99033" width="5.064514" height="0.009674072" /><rect x="367.74194" y="394.8033" width="5.064514" height="5.196686" /><rect x="375.80646" y="400" width="5.064514" height="0" /><rect x="383.87097" y="398.57394" width="5.064514" height="1.4260559" /><rect x="391.9355" y="399.6366" width="5.064514" height="0.36340332" /><rect x="400" y="100" width="5.064514" height="300" /><rect x="408.0645" y="400" width="5.064514" height="0" /><rect x="416.12903" y="399.99966" width="5.064514" height="0.00033569336" /><rect x="424.19354" y="400" width="5.064514" height="0" /><rect x="432.25806" y="399.99896" width="5.064514" height="0.0010375977" /><rect x="440.32257" y="400" width="5.064514" height="0" /><rect x="448.3871" y="399.99966" width="5.064514" height="0.00033569336" /><rect x="456.4516" y="400" width="5.064514" height="0" /><rect x="464.5161" y="380.72076" width="5.064514" height="19.279236" /><rect x="472.58063" y="400" width="5.0645447" height="0" /><rect x="480.64517" y="399.99966" width="5.064514" height="0.00033569336" /><rect x="488.7097" y="400" width="5.064514" height="0" /><rect x="496.7742" y="394.3452" width="5.064514" height="5.654785" /><rect x="504.8387" y="400" width="5.0644836" height="0" /><rect x="512.9032" y="398.5985" width="5.064575" height="1.4014893" /><rect x="520.9678" y="399.6533" width="5.064453" height="0.3467102" /><rect x="529.0322" y="277.93076" width="5.064575" height="122.069244" /><rect x="537.0968" y="400" width="5.064453" height="0" /><rect x="545.16125" y="399.99515" width="5.064575" height="0.004852295" /><rect x="553.2258" y="399.9994" width="5.064453" height="0.00061035156" /><rect x="561.2903" y="399.84045" width="5.064575" height="0.1595459" /><rect x="569.35486" y="400" width="5.064453" height="0" /><rect x="577.4193" y="399.96133" width="5.064575" height="0.03866577" /><rect x="585.4839" y="399.99255" width="5.064453" height="0.007446289" /><rect x="593.54834" y="352.4159" width="5.064575" height="47.584106" /><rect x="601.6129" y="400" width="5.064514" height="0" /><rect x="609.6774" y="399.99966" width="5.064514" height="0.00033569336" /><rect x="617.74194" y="400" width="5.064514" height="0" /><rect x="625.80646" y="382.9434" width="5.064514" height="17.05661" /><rect x="633.871" y="400" width="5.064514" height="0" /><rect x="641.9355" y="395.34036" width="5.064514" height="4.6596375" /></g><text class="poloto_text" alignment-baseline="start" text-anchor="middle" font-size="x-large" x="400" y="37.5" >Complexity of query evenness with abspiral(3000,0.007)</text><text class="poloto_text" alignment-baseline="start" text-anchor="middle" font-size="x-large" x="400" y="481.25" >dfs inorder iteration</text><text class="poloto_text" alignment-baseline="start" text-anchor="middle" font-size="x-large" transform="rotate(-90,37.5,250)" x="37.5" y="250" >Number of comparisons</text><path stroke="black" fill="none" class="poloto_axis_lines"  d="M 150 100 L 150 400 L 650 400 "/></svg>