<svg class="poloto" width="800" height="500" viewBox="0 0 800 500" xmlns="http://www.w3.org/2000/svg" ><rect class="poloto_background" fill="white" x="0" y="0" width="800" height="500" /><style><style>.poloto {
            font-family: "Arial";
            stroke-width:2;
            }
            .poloto_text{fill: var(--poloto_fg_color,black);  }
            .poloto_axis_lines{stroke: var(--poloto_fg_color,black);stoke-width:3;fill:none}
            .poloto_background{fill: var(--poloto_bg_color,aliceblue); }
            .poloto0stroke{stroke:  var(--poloto_color0,blue); }
            .poloto1stroke{stroke:  var(--poloto_color1,red); }
            .poloto2stroke{stroke:  var(--poloto_color2,green); }
            .poloto3stroke{stroke:  var(--poloto_color3,gold); }
            .poloto4stroke{stroke:  var(--poloto_color4,aqua); }
            .poloto5stroke{stroke:  var(--poloto_color5,brown); }
            .poloto6stroke{stroke:  var(--poloto_color6,lime); }
            .poloto7stroke{stroke:  var(--poloto_color7,chocolate); }
            .poloto0fill{fill:var(--poloto_color0,blue);}
            .poloto1fill{fill:var(--poloto_color1,red);}
            .poloto2fill{fill:var(--poloto_color2,green);}
            .poloto3fill{fill:var(--poloto_color3,gold);}
            .poloto4fill{fill:var(--poloto_color4,aqua);}
            .poloto5fill{fill:var(--poloto_color5,brown);}
            .poloto6fill{fill:var(--poloto_color6,lime);}
            .poloto7fill{fill:var(--poloto_color7,chocolate);}</style></style><line class="poloto_axis_lines" stroke="black" x1="150" x2="150" y1="400" y2="405" /><text class="poloto_text" alignment-baseline="start" text-anchor="middle" x="150" y="430" >0</text><line class="poloto_axis_lines" stroke="black" x1="229.36508" x2="229.36508" y1="400" y2="405" /><text class="poloto_text" alignment-baseline="start" text-anchor="middle" x="229.36508" y="430" >20</text><line class="poloto_axis_lines" stroke="black" x1="308.73016" x2="308.73016" y1="400" y2="405" /><text class="poloto_text" alignment-baseline="start" text-anchor="middle" x="308.73016" y="430" >40</text><line class="poloto_axis_lines" stroke="black" x1="388.0952" x2="388.0952" y1="400" y2="405" /><text class="poloto_text" alignment-baseline="start" text-anchor="middle" x="388.0952" y="430" >60</text><line class="poloto_axis_lines" stroke="black" x1="467.4603" x2="467.4603" y1="400" y2="405" /><text class="poloto_text" alignment-baseline="start" text-anchor="middle" x="467.4603" y="430" >80</text><line class="poloto_axis_lines" stroke="black" x1="546.8254" x2="546.8254" y1="400" y2="405" /><text class="poloto_text" alignment-baseline="start" text-anchor="middle" x="546.8254" y="430" >100</text><line class="poloto_axis_lines" stroke="black" x1="626.1904" x2="626.1904" y1="400" y2="405" /><text class="poloto_text" alignment-baseline="start" text-anchor="middle" x="626.1904" y="430" >120</text><line class="poloto_axis_lines" stroke="black" x1="150" x2="144" y1="366.1654" y2="366.1654" /><text class="poloto_text" alignment-baseline="middle" text-anchor="end" x="135" y="366.1654" >20</text><line class="poloto_axis_lines" stroke="black" x1="150" x2="144" y1="321.05264" y2="321.05264" /><text class="poloto_text" alignment-baseline="middle" text-anchor="end" x="135" y="321.05264" >40</text><line class="poloto_axis_lines" stroke="black" x1="150" x2="144" y1="275.93985" y2="275.93985" /><text class="poloto_text" alignment-baseline="middle" text-anchor="end" x="135" y="275.93985" >60</text><line class="poloto_axis_lines" stroke="black" x1="150" x2="144" y1="230.82709" y2="230.82709" /><text class="poloto_text" alignment-baseline="middle" text-anchor="end" x="135" y="230.82709" >80</text><line class="poloto_axis_lines" stroke="black" x1="150" x2="144" y1="185.7143" y2="185.7143" /><text class="poloto_text" alignment-baseline="middle" text-anchor="end" x="135" y="185.7143" >100</text><line class="poloto_axis_lines" stroke="black" x1="150" x2="144" y1="140.6015" y2="140.6015" /><text class="poloto_text" alignment-baseline="middle" text-anchor="end" x="135" y="140.6015" >120</text><text class="poloto_text" alignment-baseline="middle" text-anchor="start" font-size="large" x="675" y="100" >query</text><rect class="poloto0fill" x="680" y="76.25" width="50" height="7.5" rx="5" ry="5" /><g class="poloto0fill" ><rect x="150" y="400" width="3" height="0" /><rect x="153.96825" y="386.46616" width="3" height="13.533844" /><rect x="157.93651" y="377.4436" width="3" height="22.556396" /><rect x="161.90475" y="361.65414" width="3" height="38.345856" /><rect x="165.87302" y="370.6767" width="3" height="29.323303" /><rect x="169.84126" y="393.2331" width="3" height="6.7669067" /><rect x="173.80952" y="354.8872" width="3" height="45.112793" /><rect x="177.77777" y="352.6316" width="3" height="47.36841" /><rect x="181.74603" y="386.46616" width="3" height="13.533844" /><rect x="185.71428" y="384.21054" width="3" height="15.789459" /><rect x="189.68254" y="363.9098" width="3" height="36.09021" /><rect x="193.65079" y="363.9098" width="3" height="36.09021" /><rect x="197.61905" y="372.93234" width="3" height="27.067657" /><rect x="201.5873" y="377.4436" width="3" height="22.556396" /><rect x="205.55556" y="341.3534" width="3" height="58.646606" /><rect x="209.5238" y="287.21805" width="3" height="112.78195" /><rect x="213.49207" y="381.9549" width="3" height="18.045105" /><rect x="217.46031" y="395.4887" width="3" height="4.5112915" /><rect x="221.42856" y="368.42105" width="3" height="31.578949" /><rect x="225.39682" y="348.1203" width="3" height="51.8797" /><rect x="229.36508" y="361.65414" width="3" height="38.345856" /><rect x="233.33333" y="384.21054" width="3" height="15.789459" /><rect x="237.30157" y="339.09775" width="3" height="60.902252" /><rect x="241.26984" y="357.14285" width="3" height="42.857147" /><rect x="245.2381" y="372.93234" width="3" height="27.067657" /><rect x="249.20634" y="388.7218" width="3" height="11.278198" /><rect x="253.17459" y="352.6316" width="3" height="47.36841" /><rect x="257.14285" y="354.8872" width="3" height="45.112793" /><rect x="261.1111" y="357.14285" width="3" height="42.857147" /><rect x="265.07935" y="377.4436" width="3" height="22.556396" /><rect x="269.0476" y="325.5639" width="3" height="74.4361" /><rect x="273.01587" y="282.7068" width="3" height="117.29321" /><rect x="276.98413" y="395.4887" width="3" height="4.5112915" /><rect x="280.9524" y="381.9549" width="3" height="18.045105" /><rect x="284.92062" y="370.6767" width="3" height="29.323303" /><rect x="288.8889" y="368.42105" width="3" height="31.578949" /><rect x="292.85712" y="375.18796" width="3" height="24.812042" /><rect x="296.82538" y="384.21054" width="3" height="15.789459" /><rect x="300.79364" y="350.37595" width="3" height="49.624054" /><rect x="304.7619" y="345.86465" width="3" height="54.135345" /><rect x="308.73016" y="386.46616" width="3" height="13.533844" /><rect x="312.69843" y="386.46616" width="3" height="13.533844" /><rect x="316.66666" y="366.1654" width="3" height="33.834595" /><rect x="320.63492" y="348.1203" width="3" height="51.8797" /><rect x="324.60315" y="357.14285" width="3" height="42.857147" /><rect x="328.5714" y="386.46616" width="3" height="13.533844" /><rect x="332.53967" y="334.58646" width="3" height="65.41354" /><rect x="336.50793" y="273.6842" width="3" height="126.315796" /><rect x="340.4762" y="384.21054" width="3" height="15.789459" /><rect x="344.44446" y="388.7218" width="3" height="11.278198" /><rect x="348.4127" y="363.9098" width="3" height="36.09021" /><rect x="352.38095" y="343.609" width="3" height="56.39099" /><rect x="356.34918" y="350.37595" width="3" height="49.624054" /><rect x="360.31744" y="388.7218" width="3" height="11.278198" /><rect x="364.2857" y="332.3308" width="3" height="67.66919" /><rect x="368.25397" y="352.6316" width="3" height="47.36841" /><rect x="372.22223" y="372.93234" width="3" height="27.067657" /><rect x="376.1905" y="386.46616" width="3" height="13.533844" /><rect x="380.15872" y="352.6316" width="3" height="47.36841" /><rect x="384.12698" y="341.3534" width="3" height="58.646606" /><rect x="388.0952" y="341.3534" width="3" height="58.646606" /><rect x="392.06348" y="384.21054" width="3" height="15.789459" /><rect x="396.03174" y="318.797" width="3" height="81.203" /><rect x="400" y="100" width="3" height="300" /><rect x="403.96826" y="381.9549" width="3" height="18.045105" /><rect x="407.9365" y="395.4887" width="3" height="4.5112915" /><rect x="411.90475" y="370.6767" width="3" height="29.323303" /><rect x="415.87302" y="357.14285" width="3" height="42.857147" /><rect x="419.84125" y="361.65414" width="3" height="38.345856" /><rect x="423.8095" y="390.97745" width="3" height="9.0225525" /><rect x="427.77777" y="345.86465" width="3" height="54.135345" /><rect x="431.74603" y="359.3985" width="3" height="40.6015" /><rect x="435.71426" y="381.9549" width="3" height="18.045105" /><rect x="439.68253" y="395.4887" width="3" height="4.5112915" /><rect x="443.6508" y="368.42105" width="3" height="31.578949" /><rect x="447.61905" y="336.8421" width="3" height="63.157898" /><rect x="451.58728" y="354.8872" width="3" height="45.112793" /><rect x="455.55554" y="386.46616" width="3" height="13.533844" /><rect x="459.5238" y="332.3308" width="3" height="67.66919" /><rect x="463.49207" y="287.21805" width="3" height="112.78195" /><rect x="467.4603" y="375.18796" width="3" height="24.812042" /><rect x="471.42856" y="393.2331" width="3" height="6.7669067" /><rect x="475.39682" y="361.65414" width="3" height="38.345856" /><rect x="479.36508" y="357.14285" width="3" height="42.857147" /><rect x="483.3333" y="366.1654" width="3" height="33.834595" /><rect x="487.30157" y="377.4436" width="3" height="22.556396" /><rect x="491.26984" y="336.8421" width="3" height="63.157898" /><rect x="495.2381" y="336.8421" width="3" height="63.157898" /><rect x="499.20633" y="361.65414" width="3" height="38.345856" /><rect x="503.1746" y="386.46616" width="3" height="13.533844" /><rect x="507.14285" y="341.3534" width="3" height="58.646606" /><rect x="511.1111" y="361.65414" width="3" height="38.345856" /><rect x="515.07935" y="363.9098" width="3" height="36.09021" /><rect x="519.0476" y="361.65414" width="3" height="38.345856" /><rect x="523.01587" y="318.797" width="3" height="81.203" /><rect x="526.98413" y="262.406" width="3" height="137.594" /><rect x="530.9524" y="384.21054" width="3" height="15.789459" /><rect x="534.92065" y="393.2331" width="3" height="6.7669067" /><rect x="538.8889" y="370.6767" width="3" height="29.323303" /><rect x="542.8571" y="339.09775" width="3" height="60.902252" /><rect x="546.8254" y="368.42105" width="3" height="31.578949" /><rect x="550.79364" y="375.18796" width="3" height="24.812042" /><rect x="554.7619" y="334.58646" width="3" height="65.41354" /><rect x="558.7301" y="361.65414" width="3" height="38.345856" /><rect x="562.69836" y="366.1654" width="3" height="33.834595" /><rect x="566.6666" y="397.74435" width="3" height="2.2556458" /><rect x="570.6349" y="357.14285" width="3" height="42.857147" /><rect x="574.60315" y="343.609" width="3" height="56.39099" /><rect x="578.5714" y="354.8872" width="3" height="45.112793" /><rect x="582.5397" y="377.4436" width="3" height="22.556396" /><rect x="586.50793" y="323.3083" width="3" height="76.69171" /><rect x="590.4762" y="287.21805" width="3" height="112.78195" /><rect x="594.44446" y="372.93234" width="3" height="27.067657" /><rect x="598.4127" y="379.69925" width="3" height="20.30075" /><rect x="602.381" y="343.609" width="3" height="56.39099" /><rect x="606.3492" y="375.18796" width="3" height="24.812042" /><rect x="610.31744" y="377.4436" width="3" height="22.556396" /><rect x="614.2857" y="359.3985" width="3" height="40.6015" /><rect x="618.25397" y="327.81955" width="3" height="72.18045" /><rect x="622.22217" y="330.0752" width="3" height="69.924805" /><rect x="626.1904" y="357.14285" width="3" height="42.857147" /><rect x="630.1587" y="393.2331" width="3" height="6.7669067" /><rect x="634.12695" y="341.3534" width="3" height="58.646606" /><rect x="638.0952" y="341.3534" width="3" height="58.646606" /><rect x="642.0635" y="354.8872" width="3" height="45.112793" /><rect x="646.03174" y="361.65414" width="3" height="38.345856" /></g><text class="poloto_text" alignment-baseline="start" text-anchor="middle" font-size="x-large" x="400" y="37.5" >Num per node with abspiral(3000,0.2)</text><text class="poloto_text" alignment-baseline="start" text-anchor="middle" font-size="x-large" x="400" y="481.25" >DFS inorder iteration</text><text class="poloto_text" alignment-baseline="start" text-anchor="middle" font-size="x-large" transform="rotate(-90,37.5,250)" x="37.5" y="250" >Number of comparisons</text><path stroke="black" fill="none" class="poloto_axis_lines"  d="M 150 100 L 150 400 L 650 400 "/></svg>