<svg class="poloto" width="800" height="500" viewBox="0 0 800 500" xmlns="http://www.w3.org/2000/svg"><text  class="poloto_text poloto_legend_text" alignment-baseline="middle" text-anchor="start" font-size="large" x="675" y="100" ></text><g  class="poloto_histo poloto0fill" ><rect  x="150" y="355.7894736842105" width="3" height="44.21052631578948" /><rect  x="153.96825396825398" y="371.57894736842104" width="3" height="28.42105263157896" /><rect  x="157.93650793650795" y="333.6842105263158" width="3" height="66.31578947368422" /><rect  x="161.9047619047619" y="343.1578947368421" width="3" height="56.84210526315792" /><rect  x="165.87301587301587" y="330.5263157894737" width="3" height="69.4736842105263" /><rect  x="169.84126984126985" y="371.57894736842104" width="3" height="28.42105263157896" /><rect  x="173.8095238095238" y="305.2631578947368" width="3" height="94.73684210526318" /><rect  x="177.77777777777777" y="327.36842105263156" width="3" height="72.63157894736844" /><rect  x="181.74603174603175" y="336.8421052631579" width="3" height="63.15789473684208" /><rect  x="185.71428571428572" y="368.42105263157896" width="3" height="31.57894736842104" /><rect  x="189.6825396825397" y="308.42105263157896" width="3" height="91.57894736842104" /><rect  x="193.65079365079364" y="355.7894736842105" width="3" height="44.21052631578948" /><rect  x="197.61904761904762" y="321.0526315789474" width="3" height="78.9473684210526" /><rect  x="201.5873015873016" y="365.2631578947368" width="3" height="34.73684210526318" /><rect  x="205.55555555555554" y="289.4736842105263" width="3" height="110.5263157894737" /><rect  x="209.52380952380952" y="270.52631578947364" width="3" height="129.47368421052636" /><rect  x="213.4920634920635" y="330.5263157894737" width="3" height="69.4736842105263" /><rect  x="217.46031746031747" y="377.89473684210526" width="3" height="22.10526315789474" /><rect  x="221.42857142857144" y="314.7368421052631" width="3" height="85.26315789473688" /><rect  x="225.3968253968254" y="346.3157894736842" width="3" height="53.68421052631578" /><rect  x="229.36507936507937" y="308.42105263157896" width="3" height="91.57894736842104" /><rect  x="233.33333333333334" y="374.7368421052632" width="3" height="25.26315789473682" /><rect  x="237.3015873015873" y="289.4736842105263" width="3" height="110.5263157894737" /><rect  x="241.26984126984127" y="336.8421052631579" width="3" height="63.15789473684208" /><rect  x="245.23809523809524" y="321.0526315789474" width="3" height="78.9473684210526" /><rect  x="249.20634920634922" y="374.7368421052632" width="3" height="25.26315789473682" /><rect  x="253.1746031746032" y="302.10526315789474" width="3" height="97.89473684210526" /><rect  x="257.1428571428571" y="340" width="3" height="60" /><rect  x="261.1111111111111" y="302.10526315789474" width="3" height="97.89473684210526" /><rect  x="265.07936507936506" y="368.42105263157896" width="3" height="31.57894736842104" /><rect  x="269.04761904761904" y="273.6842105263158" width="3" height="126.31578947368422" /><rect  x="273.015873015873" y="261.0526315789474" width="3" height="138.9473684210526" /><rect  x="276.984126984127" y="346.3157894736842" width="3" height="53.68421052631578" /><rect  x="280.95238095238096" y="365.2631578947368" width="3" height="34.73684210526318" /><rect  x="284.92063492063494" y="317.89473684210526" width="3" height="82.10526315789474" /><rect  x="288.8888888888889" y="355.7894736842105" width="3" height="44.21052631578948" /><rect  x="292.8571428571429" y="330.5263157894737" width="3" height="69.4736842105263" /><rect  x="296.82539682539687" y="362.10526315789474" width="3" height="37.89473684210526" /><rect  x="300.7936507936508" y="298.9473684210526" width="3" height="101.0526315789474" /><rect  x="304.76190476190476" y="333.6842105263158" width="3" height="66.31578947368422" /><rect  x="308.73015873015873" y="333.6842105263158" width="3" height="66.31578947368422" /><rect  x="312.6984126984127" y="371.57894736842104" width="3" height="28.42105263157896" /><rect  x="316.6666666666667" y="311.57894736842104" width="3" height="88.42105263157896" /><rect  x="320.6349206349206" y="340" width="3" height="60" /><rect  x="324.6031746031746" y="302.10526315789474" width="3" height="97.89473684210526" /><rect  x="328.57142857142856" y="374.7368421052632" width="3" height="25.26315789473682" /><rect  x="332.53968253968253" y="283.1578947368421" width="3" height="116.84210526315792" /><rect  x="336.5079365079365" y="261.0526315789474" width="3" height="138.9473684210526" /><rect  x="340.4761904761905" y="317.89473684210526" width="3" height="82.10526315789474" /><rect  x="344.44444444444446" y="381.0526315789474" width="3" height="18.9473684210526" /><rect  x="348.41269841269843" y="305.2631578947368" width="3" height="94.73684210526318" /><rect  x="352.3809523809524" y="343.1578947368421" width="3" height="56.84210526315792" /><rect  x="356.3492063492064" y="302.10526315789474" width="3" height="97.89473684210526" /><rect  x="360.31746031746036" y="371.57894736842104" width="3" height="28.42105263157896" /><rect  x="364.2857142857143" y="280" width="3" height="120" /><rect  x="368.25396825396825" y="343.1578947368421" width="3" height="56.84210526315792" /><rect  x="372.22222222222223" y="317.89473684210526" width="3" height="82.10526315789474" /><rect  x="376.1904761904762" y="374.7368421052632" width="3" height="25.26315789473682" /><rect  x="380.1587301587302" y="298.9473684210526" width="3" height="101.0526315789474" /><rect  x="384.1269841269841" y="330.5263157894737" width="3" height="69.4736842105263" /><rect  x="388.0952380952381" y="289.4736842105263" width="3" height="110.5263157894737" /><rect  x="392.06349206349205" y="371.57894736842104" width="3" height="28.42105263157896" /><rect  x="396.031746031746" y="267.36842105263156" width="3" height="132.63157894736844" /><rect  x="400" y="100" width="3" height="300" /><rect  x="403.968253968254" y="340" width="3" height="60" /><rect  x="407.93650793650795" y="384.2105263157895" width="3" height="15.78947368421052" /><rect  x="411.9047619047619" y="330.5263157894737" width="3" height="69.4736842105263" /><rect  x="415.8730158730159" y="327.36842105263156" width="3" height="72.63157894736844" /><rect  x="419.8412698412699" y="317.89473684210526" width="3" height="82.10526315789474" /><rect  x="423.8095238095238" y="371.57894736842104" width="3" height="28.42105263157896" /><rect  x="427.77777777777777" y="295.7894736842105" width="3" height="104.21052631578948" /><rect  x="431.74603174603175" y="346.3157894736842" width="3" height="53.68421052631578" /><rect  x="435.7142857142857" y="327.36842105263156" width="3" height="72.63157894736844" /><rect  x="439.6825396825397" y="384.2105263157895" width="3" height="15.78947368421052" /><rect  x="443.6507936507937" y="317.89473684210526" width="3" height="82.10526315789474" /><rect  x="447.61904761904765" y="327.36842105263156" width="3" height="72.63157894736844" /><rect  x="451.58730158730157" y="308.42105263157896" width="3" height="91.57894736842104" /><rect  x="455.55555555555554" y="368.42105263157896" width="3" height="31.57894736842104" /><rect  x="459.5238095238095" y="283.1578947368421" width="3" height="116.84210526315792" /><rect  x="463.4920634920635" y="261.0526315789474" width="3" height="138.9473684210526" /><rect  x="467.46031746031747" y="324.2105263157895" width="3" height="75.78947368421052" /><rect  x="471.42857142857144" y="381.0526315789474" width="3" height="18.9473684210526" /><rect  x="475.3968253968254" y="308.42105263157896" width="3" height="91.57894736842104" /><rect  x="479.3650793650794" y="343.1578947368421" width="3" height="56.84210526315792" /><rect  x="483.33333333333337" y="317.89473684210526" width="3" height="82.10526315789474" /><rect  x="487.3015873015873" y="362.10526315789474" width="3" height="37.89473684210526" /><rect  x="491.26984126984127" y="283.1578947368421" width="3" height="116.84210526315792" /><rect  x="495.23809523809524" y="324.2105263157895" width="3" height="75.78947368421052" /><rect  x="499.2063492063492" y="324.2105263157895" width="3" height="75.78947368421052" /><rect  x="503.1746031746032" y="358.9473684210526" width="3" height="41.0526315789474" /><rect  x="507.14285714285717" y="289.4736842105263" width="3" height="110.5263157894737" /><rect  x="511.11111111111114" y="349.4736842105263" width="3" height="50.5263157894737" /><rect  x="515.0793650793651" y="305.2631578947368" width="3" height="94.73684210526318" /><rect  x="519.047619047619" y="355.7894736842105" width="3" height="44.21052631578948" /><rect  x="523.015873015873" y="267.36842105263156" width="3" height="132.63157894736844" /><rect  x="526.984126984127" y="245.26315789473685" width="3" height="154.73684210526315" /><rect  x="530.952380952381" y="333.6842105263158" width="3" height="66.31578947368422" /><rect  x="534.9206349206349" y="381.0526315789474" width="3" height="18.9473684210526" /><rect  x="538.8888888888889" y="317.89473684210526" width="3" height="82.10526315789474" /><rect  x="542.8571428571429" y="330.5263157894737" width="3" height="69.4736842105263" /><rect  x="546.8253968253969" y="305.2631578947368" width="3" height="94.73684210526318" /><rect  x="550.7936507936508" y="374.7368421052632" width="3" height="25.26315789473682" /><rect  x="554.7619047619048" y="286.3157894736842" width="3" height="113.68421052631578" /><rect  x="558.7301587301588" y="346.3157894736842" width="3" height="53.68421052631578" /><rect  x="562.6984126984128" y="324.2105263157895" width="3" height="75.78947368421052" /><rect  x="566.6666666666667" y="381.0526315789474" width="3" height="18.9473684210526" /><rect  x="570.6349206349207" y="311.57894736842104" width="3" height="88.42105263157896" /><rect  x="574.6031746031747" y="321.0526315789474" width="3" height="78.9473684210526" /><rect  x="578.5714285714286" y="302.10526315789474" width="3" height="97.89473684210526" /><rect  x="582.5396825396825" y="368.42105263157896" width="3" height="31.57894736842104" /><rect  x="586.5079365079365" y="273.6842105263158" width="3" height="126.31578947368422" /><rect  x="590.4761904761905" y="257.89473684210526" width="3" height="142.10526315789474" /><rect  x="594.4444444444445" y="327.36842105263156" width="3" height="72.63157894736844" /><rect  x="598.4126984126984" y="365.2631578947368" width="3" height="34.73684210526318" /><rect  x="602.3809523809524" y="298.9473684210526" width="3" height="101.0526315789474" /><rect  x="606.3492063492064" y="352.63157894736844" width="3" height="47.36842105263156" /><rect  x="610.3174603174604" y="321.0526315789474" width="3" height="78.9473684210526" /><rect  x="614.2857142857142" y="349.4736842105263" width="3" height="50.5263157894737" /><rect  x="618.2539682539682" y="276.8421052631579" width="3" height="123.15789473684208" /><rect  x="622.2222222222222" y="314.7368421052631" width="3" height="85.26315789473688" /><rect  x="626.1904761904761" y="305.2631578947368" width="3" height="94.73684210526318" /><rect  x="630.1587301587301" y="377.89473684210526" width="3" height="22.10526315789474" /><rect  x="634.1269841269841" y="289.4736842105263" width="3" height="110.5263157894737" /><rect  x="638.0952380952381" y="330.5263157894737" width="3" height="69.4736842105263" /><rect  x="642.063492063492" y="295.7894736842105" width="3" height="104.21052631578948" /><rect  x="646.031746031746" y="355.7894736842105" width="3" height="44.21052631578948" /></g><text  class="poloto_labels poloto_text poloto_title" alignment-baseline="start" text-anchor="middle" font-size="x-large" x="400" y="37.5" >Num per node with abspiral(3000,1.5)</text><text  class="poloto_labels poloto_text poloto_xname" alignment-baseline="start" text-anchor="middle" font-size="x-large" x="400" y="481.25" >DFS inorder iteration</text><text  class="poloto_labels poloto_text poloto_yname" alignment-baseline="start" text-anchor="middle" font-size="x-large" transform="rotate(-90,37.5,250)" x="37.5" y="250" >Number of comparisons</text><line  class="poloto_axis_lines" stroke="black" x1="150" x2="150" y1="400" y2="405" /><text  class="poloto_tick_labels poloto_text" alignment-baseline="start" text-anchor="middle" x="150" y="430" > 0</text><line  class="poloto_axis_lines" stroke="black" x1="229.36507936507937" x2="229.36507936507937" y1="400" y2="405" /><text  class="poloto_tick_labels poloto_text" alignment-baseline="start" text-anchor="middle" x="229.36507936507937" y="430" > 20</text><line  class="poloto_axis_lines" stroke="black" x1="308.73015873015873" x2="308.73015873015873" y1="400" y2="405" /><text  class="poloto_tick_labels poloto_text" alignment-baseline="start" text-anchor="middle" x="308.73015873015873" y="430" > 40</text><line  class="poloto_axis_lines" stroke="black" x1="388.0952380952381" x2="388.0952380952381" y1="400" y2="405" /><text  class="poloto_tick_labels poloto_text" alignment-baseline="start" text-anchor="middle" x="388.0952380952381" y="430" > 60</text><line  class="poloto_axis_lines" stroke="black" x1="467.46031746031747" x2="467.46031746031747" y1="400" y2="405" /><text  class="poloto_tick_labels poloto_text" alignment-baseline="start" text-anchor="middle" x="467.46031746031747" y="430" > 80</text><line  class="poloto_axis_lines" stroke="black" x1="546.8253968253969" x2="546.8253968253969" y1="400" y2="405" /><text  class="poloto_tick_labels poloto_text" alignment-baseline="start" text-anchor="middle" x="546.8253968253969" y="430" > 100</text><line  class="poloto_axis_lines" stroke="black" x1="626.1904761904761" x2="626.1904761904761" y1="400" y2="405" /><text  class="poloto_tick_labels poloto_text" alignment-baseline="start" text-anchor="middle" x="626.1904761904761" y="430" > 120</text><line  class="poloto_axis_lines" stroke="black" x1="150" x2="144" y1="400" y2="400" /><text  class="poloto_tick_labels poloto_text" alignment-baseline="middle" text-anchor="end" x="135" y="400" > 0</text><line  class="poloto_axis_lines" stroke="black" x1="150" x2="144" y1="336.8421052631579" y2="336.8421052631579" /><text  class="poloto_tick_labels poloto_text" alignment-baseline="middle" text-anchor="end" x="135" y="336.8421052631579" > 20</text><line  class="poloto_axis_lines" stroke="black" x1="150" x2="144" y1="273.6842105263158" y2="273.6842105263158" /><text  class="poloto_tick_labels poloto_text" alignment-baseline="middle" text-anchor="end" x="135" y="273.6842105263158" > 40</text><line  class="poloto_axis_lines" stroke="black" x1="150" x2="144" y1="210.52631578947364" y2="210.52631578947364" /><text  class="poloto_tick_labels poloto_text" alignment-baseline="middle" text-anchor="end" x="135" y="210.52631578947364" > 60</text><line  class="poloto_axis_lines" stroke="black" x1="150" x2="144" y1="147.36842105263156" y2="147.36842105263156" /><text  class="poloto_tick_labels poloto_text" alignment-baseline="middle" text-anchor="end" x="135" y="147.36842105263156" > 80</text><path  stroke="black" fill="none" class="poloto_axis_lines" style="stroke-dasharray:9.920634920634921;stroke-dashoffset:-0;" d=" M 150 400 L 650 400" /><path  stroke="black" fill="none" class="poloto_axis_lines" style="stroke-dasharray:7.894736842105264;stroke-dashoffset:-0;" d=" M 150 400 L 150 100" /></svg>