<svg class="poloto" width="800" height="500" viewBox="0 0 800 500" xmlns="http://www.w3.org/2000/svg" ><rect class="poloto_background" fill="white" x="0" y="0" width="800" height="500" /><style><style>.poloto {
            font-family: "Arial";
            stroke-width:2;
            }
            .poloto_text{fill: var(--poloto_fg_color,black);  }
            .poloto_axis_lines{stroke: var(--poloto_fg_color,black);stoke-width:3;fill:none}
            .poloto_background{fill: var(--poloto_bg_color,aliceblue); }
            .poloto0stroke{stroke:  var(--poloto_color0,blue); }
            .poloto1stroke{stroke:  var(--poloto_color1,red); }
            .poloto2stroke{stroke:  var(--poloto_color2,green); }
            .poloto3stroke{stroke:  var(--poloto_color3,gold); }
            .poloto4stroke{stroke:  var(--poloto_color4,aqua); }
            .poloto5stroke{stroke:  var(--poloto_color5,brown); }
            .poloto6stroke{stroke:  var(--poloto_color6,lime); }
            .poloto7stroke{stroke:  var(--poloto_color7,chocolate); }
            .poloto0fill{fill:var(--poloto_color0,blue);}
            .poloto1fill{fill:var(--poloto_color1,red);}
            .poloto2fill{fill:var(--poloto_color2,green);}
            .poloto3fill{fill:var(--poloto_color3,gold);}
            .poloto4fill{fill:var(--poloto_color4,aqua);}
            .poloto5fill{fill:var(--poloto_color5,brown);}
            .poloto6fill{fill:var(--poloto_color6,lime);}
            .poloto7fill{fill:var(--poloto_color7,chocolate);}</style></style><line class="poloto_axis_lines" stroke="black" x1="150" x2="150" y1="400" y2="405" /><text class="poloto_text" alignment-baseline="start" text-anchor="middle" x="150" y="430" >0</text><line class="poloto_axis_lines" stroke="black" x1="229.36508" x2="229.36508" y1="400" y2="405" /><text class="poloto_text" alignment-baseline="start" text-anchor="middle" x="229.36508" y="430" >20</text><line class="poloto_axis_lines" stroke="black" x1="308.73016" x2="308.73016" y1="400" y2="405" /><text class="poloto_text" alignment-baseline="start" text-anchor="middle" x="308.73016" y="430" >40</text><line class="poloto_axis_lines" stroke="black" x1="388.0952" x2="388.0952" y1="400" y2="405" /><text class="poloto_text" alignment-baseline="start" text-anchor="middle" x="388.0952" y="430" >60</text><line class="poloto_axis_lines" stroke="black" x1="467.4603" x2="467.4603" y1="400" y2="405" /><text class="poloto_text" alignment-baseline="start" text-anchor="middle" x="467.4603" y="430" >80</text><line class="poloto_axis_lines" stroke="black" x1="546.8254" x2="546.8254" y1="400" y2="405" /><text class="poloto_text" alignment-baseline="start" text-anchor="middle" x="546.8254" y="430" >100</text><line class="poloto_axis_lines" stroke="black" x1="626.1904" x2="626.1904" y1="400" y2="405" /><text class="poloto_text" alignment-baseline="start" text-anchor="middle" x="626.1904" y="430" >120</text><line class="poloto_axis_lines" stroke="black" x1="150" x2="144" y1="400" y2="400" /><text class="poloto_text" alignment-baseline="middle" text-anchor="end" x="135" y="400" >0</text><line class="poloto_axis_lines" stroke="black" x1="150" x2="144" y1="356.83453" y2="356.83453" /><text class="poloto_text" alignment-baseline="middle" text-anchor="end" x="135" y="356.83453" >100</text><line class="poloto_axis_lines" stroke="black" x1="150" x2="144" y1="313.66907" y2="313.66907" /><text class="poloto_text" alignment-baseline="middle" text-anchor="end" x="135" y="313.66907" >200</text><line class="poloto_axis_lines" stroke="black" x1="150" x2="144" y1="270.5036" y2="270.5036" /><text class="poloto_text" alignment-baseline="middle" text-anchor="end" x="135" y="270.5036" >300</text><line class="poloto_axis_lines" stroke="black" x1="150" x2="144" y1="227.33813" y2="227.33813" /><text class="poloto_text" alignment-baseline="middle" text-anchor="end" x="135" y="227.33813" >400</text><line class="poloto_axis_lines" stroke="black" x1="150" x2="144" y1="184.17267" y2="184.17267" /><text class="poloto_text" alignment-baseline="middle" text-anchor="end" x="135" y="184.17267" >500</text><line class="poloto_axis_lines" stroke="black" x1="150" x2="144" y1="141.0072" y2="141.0072" /><text class="poloto_text" alignment-baseline="middle" text-anchor="end" x="135" y="141.0072" >600</text><text class="poloto_text" alignment-baseline="middle" text-anchor="start" font-size="large" x="675" y="100" >query</text><rect class="poloto0fill" x="680" y="76.25" width="50" height="7.5" rx="5" ry="5" /><g class="poloto0fill" ><rect x="150" y="400" width="3" height="0" /><rect x="153.96825" y="400" width="3" height="0" /><rect x="157.93651" y="400" width="3" height="0" /><rect x="161.90475" y="400" width="3" height="0" /><rect x="165.87302" y="400" width="3" height="0" /><rect x="169.84126" y="400" width="3" height="0" /><rect x="173.80952" y="400" width="3" height="0" /><rect x="177.77777" y="400" width="3" height="0" /><rect x="181.74603" y="400" width="3" height="0" /><rect x="185.71428" y="400" width="3" height="0" /><rect x="189.68254" y="400" width="3" height="0" /><rect x="193.65079" y="400" width="3" height="0" /><rect x="197.61905" y="400" width="3" height="0" /><rect x="201.5873" y="400" width="3" height="0" /><rect x="205.55556" y="400" width="3" height="0" /><rect x="209.5238" y="361.1511" width="3" height="38.848907" /><rect x="213.49207" y="400" width="3" height="0" /><rect x="217.46031" y="400" width="3" height="0" /><rect x="221.42856" y="400" width="3" height="0" /><rect x="225.39682" y="400" width="3" height="0" /><rect x="229.36508" y="400" width="3" height="0" /><rect x="233.33333" y="400" width="3" height="0" /><rect x="237.30157" y="400" width="3" height="0" /><rect x="241.26984" y="380.57553" width="3" height="19.424469" /><rect x="245.2381" y="400" width="3" height="0" /><rect x="249.20634" y="400" width="3" height="0" /><rect x="253.17459" y="400" width="3" height="0" /><rect x="257.14285" y="390.07193" width="3" height="9.92807" /><rect x="261.1111" y="400" width="3" height="0" /><rect x="265.07935" y="395.2518" width="3" height="4.7481995" /><rect x="269.0476" y="395.68344" width="3" height="4.316559" /><rect x="273.01587" y="302.8777" width="3" height="97.122314" /><rect x="276.98413" y="400" width="3" height="0" /><rect x="280.9524" y="400" width="3" height="0" /><rect x="284.92062" y="400" width="3" height="0" /><rect x="288.8889" y="400" width="3" height="0" /><rect x="292.85712" y="400" width="3" height="0" /><rect x="296.82538" y="400" width="3" height="0" /><rect x="300.79364" y="400" width="3" height="0" /><rect x="304.7619" y="400" width="3" height="0" /><rect x="308.73016" y="400" width="3" height="0" /><rect x="312.69843" y="400" width="3" height="0" /><rect x="316.66666" y="400" width="3" height="0" /><rect x="320.63492" y="400" width="3" height="0" /><rect x="324.60315" y="400" width="3" height="0" /><rect x="328.5714" y="400" width="3" height="0" /><rect x="332.53967" y="400" width="3" height="0" /><rect x="336.50793" y="312.80576" width="3" height="87.194244" /><rect x="340.4762" y="400" width="3" height="0" /><rect x="344.44446" y="400" width="3" height="0" /><rect x="348.4127" y="400" width="3" height="0" /><rect x="352.38095" y="395.68344" width="3" height="4.316559" /><rect x="356.34918" y="400" width="3" height="0" /><rect x="360.31744" y="397.84174" width="3" height="2.1582642" /><rect x="364.2857" y="398.70505" width="3" height="1.2949524" /><rect x="368.25397" y="364.17267" width="3" height="35.82733" /><rect x="372.22223" y="400" width="3" height="0" /><rect x="376.1905" y="400" width="3" height="0" /><rect x="380.15872" y="400" width="3" height="0" /><rect x="384.12698" y="378.41727" width="3" height="21.582733" /><rect x="388.0952" y="400" width="3" height="0" /><rect x="392.06348" y="389.20862" width="3" height="10.791382" /><rect x="396.03174" y="389.6403" width="3" height="10.359711" /><rect x="400" y="100" width="3" height="300" /><rect x="403.96826" y="400" width="3" height="0" /><rect x="407.9365" y="400" width="3" height="0" /><rect x="411.90475" y="400" width="3" height="0" /><rect x="415.87302" y="400" width="3" height="0" /><rect x="419.84125" y="400" width="3" height="0" /><rect x="423.8095" y="400" width="3" height="0" /><rect x="427.77777" y="400" width="3" height="0" /><rect x="431.74603" y="400" width="3" height="0" /><rect x="435.71426" y="400" width="3" height="0" /><rect x="439.68253" y="400" width="3" height="0" /><rect x="443.6508" y="400" width="3" height="0" /><rect x="447.61905" y="400" width="3" height="0" /><rect x="451.58728" y="400" width="3" height="0" /><rect x="455.55554" y="400" width="3" height="0" /><rect x="459.5238" y="400" width="3" height="0" /><rect x="463.49207" y="314.1007" width="3" height="85.89929" /><rect x="467.4603" y="400" width="3" height="0" /><rect x="471.42856" y="400" width="3" height="0" /><rect x="475.39682" y="400" width="3" height="0" /><rect x="479.36508" y="400" width="3" height="0" /><rect x="483.3333" y="400" width="3" height="0" /><rect x="487.30157" y="400" width="3" height="0" /><rect x="491.26984" y="400" width="3" height="0" /><rect x="495.2381" y="357.26617" width="3" height="42.733826" /><rect x="499.20633" y="400" width="3" height="0" /><rect x="503.1746" y="400" width="3" height="0" /><rect x="507.14285" y="400" width="3" height="0" /><rect x="511.1111" y="378.41727" width="3" height="21.582733" /><rect x="515.07935" y="400" width="3" height="0" /><rect x="519.0476" y="389.20862" width="3" height="10.791382" /><rect x="523.01587" y="390.07193" width="3" height="9.92807" /><rect x="526.98413" y="247.19424" width="3" height="152.80576" /><rect x="530.9524" y="400" width="3" height="0" /><rect x="534.92065" y="400" width="3" height="0" /><rect x="538.8889" y="400" width="3" height="0" /><rect x="542.8571" y="398.70505" width="3" height="1.2949524" /><rect x="546.8254" y="400" width="3" height="0" /><rect x="550.79364" y="399.1367" width="3" height="0.86331177" /><rect x="554.7619" y="400" width="3" height="0" /><rect x="558.7301" y="394.3885" width="3" height="5.611511" /><rect x="562.69836" y="400" width="3" height="0" /><rect x="566.6666" y="400" width="3" height="0" /><rect x="570.6349" y="400" width="3" height="0" /><rect x="574.60315" y="396.1151" width="3" height="3.8848877" /><rect x="578.5714" y="400" width="3" height="0" /><rect x="582.5397" y="398.27338" width="3" height="1.7266235" /><rect x="586.50793" y="398.70505" width="3" height="1.2949524" /><rect x="590.4762" y="252.80576" width="3" height="147.19424" /><rect x="594.44446" y="400" width="3" height="0" /><rect x="598.4127" y="400" width="3" height="0" /><rect x="602.381" y="400" width="3" height="0" /><rect x="606.3492" y="400" width="3" height="0" /><rect x="610.31744" y="400" width="3" height="0" /><rect x="614.2857" y="400" width="3" height="0" /><rect x="618.25397" y="400" width="3" height="0" /><rect x="622.22217" y="318.84894" width="3" height="81.15106" /><rect x="626.1904" y="400" width="3" height="0" /><rect x="630.1587" y="400" width="3" height="0" /><rect x="634.12695" y="400" width="3" height="0" /><rect x="638.0952" y="359.42447" width="3" height="40.57553" /><rect x="642.0635" y="400" width="3" height="0" /><rect x="646.03174" y="379.71222" width="3" height="20.28778" /></g><text class="poloto_text" alignment-baseline="start" text-anchor="middle" font-size="x-large" x="400" y="37.5" >Num per node with abspiral(3000,0.007)</text><text class="poloto_text" alignment-baseline="start" text-anchor="middle" font-size="x-large" x="400" y="481.25" >DFS inorder iteration</text><text class="poloto_text" alignment-baseline="start" text-anchor="middle" font-size="x-large" transform="rotate(-90,37.5,250)" x="37.5" y="250" >Number of comparisons</text><path stroke="black" fill="none" class="poloto_axis_lines"  d="M 150 100 L 150 400 L 650 400 "/></svg>