<svg class="poloto" width="800" height="500" viewBox="0 0 800 500" xmlns="http://www.w3.org/2000/svg"><circle  r="1e5" class="poloto_background" /><text  class="poloto_text poloto_legend_text" x="675" y="100" ></text><g  class="poloto_histo poloto0fill" ><rect  x="150.00" y="396.64" width="5.064516129032256" height="3.3556892829252547" /><rect  x="158.06" y="389.39" width="5.064516129032256" height="10.607974642840759" /><rect  x="166.13" y="396.21" width="5.064516129032256" height="3.786347558454679" /><rect  x="174.19" y="373.06" width="5.064516129032256" height="26.935091184712178" /><rect  x="182.26" y="395.86" width="5.064516129032256" height="4.144655243695183" /><rect  x="190.32" y="385.77" width="5.064516129032256" height="14.22894942349211" /><rect  x="198.39" y="394.26" width="5.064516129032256" height="5.73636823005188" /><rect  x="206.45" y="337.86" width="5.064516129032256" height="62.14226652579356" /><rect  x="214.52" y="396.92" width="5.064516129032256" height="3.076622720382204" /><rect  x="222.58" y="388.29" width="5.064516129032256" height="11.710459828196065" /><rect  x="230.65" y="395.98" width="5.064516129032256" height="4.020625660342716" /><rect  x="238.71" y="373.97" width="5.064516129032285" height="26.028986172998316" /><rect  x="246.77" y="396.48" width="5.064516129032256" height="3.524507326932792" /><rect  x="254.84" y="387.43" width="5.064516129032228" height="12.568331113050647" /><rect  x="262.90" y="395.04" width="5.064516129032313" height="4.957738067894695" /><rect  x="270.97" y="267.01" width="5.064516129032199" height="132.99416601589417" /><rect  x="279.03" y="395.73" width="5.064516129032313" height="4.27213009325186" /><rect  x="287.10" y="386.74" width="5.064516129032199" height="13.264274886306225" /><rect  x="295.16" y="394.50" width="5.064516129032313" height="5.495199595755423" /><rect  x="303.23" y="371.66" width="5.064516129032199" height="28.34075979604023" /><rect  x="311.29" y="395.25" width="5.064516129032313" height="4.747576829436355" /><rect  x="319.35" y="387.17" width="5.064516129032199" height="12.8336166107768" /><rect  x="327.42" y="395.84" width="5.064516129032313" height="4.15843630851208" /><rect  x="335.48" y="334.80" width="5.064516129032256" height="65.20166291515454" /><rect  x="343.55" y="396.75" width="5.064516129032256" height="3.248886030593951" /><rect  x="351.61" y="387.39" width="5.064516129032256" height="12.609674307501507" /><rect  x="359.68" y="395.15" width="5.064516129032256" height="4.850934815563392" /><rect  x="367.74" y="372.07" width="5.064516129032256" height="27.930773117736237" /><rect  x="375.81" y="396.11" width="5.064516129032256" height="3.886260278377506" /><rect  x="383.87" y="386.78" width="5.064516129032256" height="13.216041159446945" /><rect  x="391.94" y="395.28" width="5.064516129032256" height="4.723459966006715" /><rect  x="400.00" y="100.00" width="5.064516129032256" height="300" /><rect  x="408.06" y="397.16" width="5.064516129032256" height="2.8423446184941668" /><rect  x="416.13" y="388.95" width="5.064516129032256" height="11.05241398318708" /><rect  x="424.19" y="395.40" width="5.064516129032256" height="4.595985116449981" /><rect  x="432.26" y="375.00" width="5.064516129032256" height="25.00229684413614" /><rect  x="440.32" y="396.93" width="5.064516129032256" height="3.0662869217694606" /><rect  x="448.39" y="387.69" width="5.064516129032256" height="12.313381413937236" /><rect  x="456.45" y="395.16" width="5.064516129032256" height="4.837153750746495" /><rect  x="464.52" y="332.80" width="5.064516129032256" height="67.20336257981535" /><rect  x="472.58" y="397.08" width="5.064516129032256" height="2.9181404749873536" /><rect  x="480.65" y="386.78" width="5.064516129032256" height="13.219486425651155" /><rect  x="488.71" y="393.89" width="5.064516129032256" height="6.108456980109338" /><rect  x="496.77" y="366.82" width="5.064516129032256" height="33.1848040791952" /><rect  x="504.84" y="394.39" width="5.064516129032256" height="5.605448114290937" /><rect  x="512.90" y="383.06" width="5.064516129032313" height="16.94037392622539" /><rect  x="520.97" y="392.96" width="5.064516129032199" height="7.038678855252897" /><rect  x="529.03" y="255.93" width="5.064516129032313" height="144.07414212871515" /><rect  x="537.10" y="397.25" width="5.064516129032313" height="2.7458771647756066" /><rect  x="545.16" y="388.42" width="5.064516129032199" height="11.576094446230854" /><rect  x="553.23" y="395.66" width="5.064516129032199" height="4.344480683540837" /><rect  x="561.29" y="374.20" width="5.064516129032313" height="25.798153337314545" /><rect  x="569.35" y="397.06" width="5.064516129032313" height="2.935366806008517" /><rect  x="577.42" y="387.66" width="5.064516129032199" height="12.340943543571143" /><rect  x="585.48" y="395.37" width="5.064516129032199" height="4.6304377784923645" /><rect  x="593.55" y="328.79" width="5.064516129032313" height="71.21020717534111" /><rect  x="601.61" y="394.77" width="5.064516129032313" height="5.233359364233536" /><rect  x="609.68" y="383.15" width="5.064516129032199" height="16.85079700491525" /><rect  x="617.74" y="393.27" width="5.064516129032199" height="6.728604896871673" /><rect  x="625.81" y="365.04" width="5.064516129032313" height="34.96256144058066" /><rect  x="633.87" y="395.87" width="5.064516129032313" height="4.13087417887823" /><rect  x="641.94" y="384.96" width="5.064516129032199" height="15.035141715283203" /></g><text  class="poloto_labels poloto_text poloto_title" x="400" y="37.5" >Complexity of query evenness with abspiral(3000,2.1)</text><text  class="poloto_labels poloto_text poloto_xname" x="400" y="481.25" >DFS inorder iteration</text><text  class="poloto_labels poloto_text poloto_yname" transform="rotate(-90,37.5,250)" x="37.5" y="250" >Number of comparisons</text><text  class="poloto_tick_labels poloto_text" dominant-baseline="middle" text-anchor="start" x="440.00000000000006" y="70" ></text><line  class="poloto_axis_lines" stroke="black" x1="150" x2="150" y1="400" y2="405" /><text  class="poloto_tick_labels poloto_text" dominant-baseline="start" text-anchor="middle" x="150" y="430" >0</text><line  class="poloto_axis_lines" stroke="black" x1="230.64516129032256" x2="230.64516129032256" y1="400" y2="405" /><text  class="poloto_tick_labels poloto_text" dominant-baseline="start" text-anchor="middle" x="230.64516129032256" y="430" >10</text><line  class="poloto_axis_lines" stroke="black" x1="311.2903225806451" x2="311.2903225806451" y1="400" y2="405" /><text  class="poloto_tick_labels poloto_text" dominant-baseline="start" text-anchor="middle" x="311.2903225806451" y="430" >20</text><line  class="poloto_axis_lines" stroke="black" x1="391.93548387096774" x2="391.93548387096774" y1="400" y2="405" /><text  class="poloto_tick_labels poloto_text" dominant-baseline="start" text-anchor="middle" x="391.93548387096774" y="430" >30</text><line  class="poloto_axis_lines" stroke="black" x1="472.5806451612903" x2="472.5806451612903" y1="400" y2="405" /><text  class="poloto_tick_labels poloto_text" dominant-baseline="start" text-anchor="middle" x="472.5806451612903" y="430" >40</text><line  class="poloto_axis_lines" stroke="black" x1="553.2258064516129" x2="553.2258064516129" y1="400" y2="405" /><text  class="poloto_tick_labels poloto_text" dominant-baseline="start" text-anchor="middle" x="553.2258064516129" y="430" >50</text><line  class="poloto_axis_lines" stroke="black" x1="633.8709677419355" x2="633.8709677419355" y1="400" y2="405" /><text  class="poloto_tick_labels poloto_text" dominant-baseline="start" text-anchor="middle" x="633.8709677419355" y="430" >60</text><text  class="poloto_tick_labels poloto_text" dominant-baseline="middle" text-anchor="start" x="150" y="70" ></text><line  class="poloto_axis_lines" stroke="black" x1="150" x2="144" y1="400" y2="400" /><text  class="poloto_tick_labels poloto_text" dominant-baseline="middle" text-anchor="end" x="135" y="400" >0</text><line  class="poloto_axis_lines" stroke="black" x1="150" x2="144" y1="331.0946759152924" y2="331.0946759152924" /><text  class="poloto_tick_labels poloto_text" dominant-baseline="middle" text-anchor="end" x="135" y="331.0946759152924" >20000</text><line  class="poloto_axis_lines" stroke="black" x1="150" x2="144" y1="262.18935183058477" y2="262.18935183058477" /><text  class="poloto_tick_labels poloto_text" dominant-baseline="middle" text-anchor="end" x="135" y="262.18935183058477" >40000</text><line  class="poloto_axis_lines" stroke="black" x1="150" x2="144" y1="193.28402774587715" y2="193.28402774587715" /><text  class="poloto_tick_labels poloto_text" dominant-baseline="middle" text-anchor="end" x="135" y="193.28402774587715" >60000</text><line  class="poloto_axis_lines" stroke="black" x1="150" x2="144" y1="124.37870366116954" y2="124.37870366116954" /><text  class="poloto_tick_labels poloto_text" dominant-baseline="middle" text-anchor="end" x="135" y="124.37870366116954" >80000</text><path  stroke="black" fill="none" class="poloto_axis_lines" style="stroke-dasharray:8.064516129032258;stroke-dashoffset:-0;" d=" M 150 400 L 650 400" /><path  stroke="black" fill="none" class="poloto_axis_lines" style="stroke-dasharray:8.613165510588452;stroke-dashoffset:-0;" d=" M 150 400 L 150 100" /></svg>