<svg class="poloto" width="800" height="500" viewBox="0 0 800 500" xmlns="http://www.w3.org/2000/svg" ><rect class="poloto_background" fill="white" x="0" y="0" width="800" height="500" /><style><style>.poloto {
            font-family: "Arial";
            stroke-width:2;
            }
            .poloto_text{fill: var(--poloto_fg_color,black);  }
            .poloto_axis_lines{stroke: var(--poloto_fg_color,black);stoke-width:3;fill:none}
            .poloto_background{fill: var(--poloto_bg_color,aliceblue); }
            .poloto0stroke{stroke:  var(--poloto_color0,blue); }
            .poloto1stroke{stroke:  var(--poloto_color1,red); }
            .poloto2stroke{stroke:  var(--poloto_color2,green); }
            .poloto3stroke{stroke:  var(--poloto_color3,gold); }
            .poloto4stroke{stroke:  var(--poloto_color4,aqua); }
            .poloto5stroke{stroke:  var(--poloto_color5,brown); }
            .poloto6stroke{stroke:  var(--poloto_color6,lime); }
            .poloto7stroke{stroke:  var(--poloto_color7,chocolate); }
            .poloto0fill{fill:var(--poloto_color0,blue);}
            .poloto1fill{fill:var(--poloto_color1,red);}
            .poloto2fill{fill:var(--poloto_color2,green);}
            .poloto3fill{fill:var(--poloto_color3,gold);}
            .poloto4fill{fill:var(--poloto_color4,aqua);}
            .poloto5fill{fill:var(--poloto_color5,brown);}
            .poloto6fill{fill:var(--poloto_color6,lime);}
            .poloto7fill{fill:var(--poloto_color7,chocolate);}</style></style><line class="poloto_axis_lines" stroke="black" x1="150" x2="150" y1="400" y2="405" /><text class="poloto_text" alignment-baseline="start" text-anchor="middle" x="150" y="430" >0</text><line class="poloto_axis_lines" stroke="black" x1="229.36507936507937" x2="229.36507936507937" y1="400" y2="405" /><text class="poloto_text" alignment-baseline="start" text-anchor="middle" x="229.36507936507937" y="430" >20</text><line class="poloto_axis_lines" stroke="black" x1="308.73015873015873" x2="308.73015873015873" y1="400" y2="405" /><text class="poloto_text" alignment-baseline="start" text-anchor="middle" x="308.73015873015873" y="430" >40</text><line class="poloto_axis_lines" stroke="black" x1="388.0952380952381" x2="388.0952380952381" y1="400" y2="405" /><text class="poloto_text" alignment-baseline="start" text-anchor="middle" x="388.0952380952381" y="430" >60</text><line class="poloto_axis_lines" stroke="black" x1="467.46031746031747" x2="467.46031746031747" y1="400" y2="405" /><text class="poloto_text" alignment-baseline="start" text-anchor="middle" x="467.46031746031747" y="430" >80</text><line class="poloto_axis_lines" stroke="black" x1="546.8253968253969" x2="546.8253968253969" y1="400" y2="405" /><text class="poloto_text" alignment-baseline="start" text-anchor="middle" x="546.8253968253969" y="430" >100</text><line class="poloto_axis_lines" stroke="black" x1="626.1904761904761" x2="626.1904761904761" y1="400" y2="405" /><text class="poloto_text" alignment-baseline="start" text-anchor="middle" x="626.1904761904761" y="430" >120</text><line class="poloto_axis_lines" stroke="black" x1="150" x2="144" y1="400" y2="400" /><text class="poloto_text" alignment-baseline="middle" text-anchor="end" x="135" y="400" >0</text><line class="poloto_axis_lines" stroke="black" x1="150" x2="144" y1="356.8345323741007" y2="356.8345323741007" /><text class="poloto_text" alignment-baseline="middle" text-anchor="end" x="135" y="356.8345323741007" >100</text><line class="poloto_axis_lines" stroke="black" x1="150" x2="144" y1="313.66906474820144" y2="313.66906474820144" /><text class="poloto_text" alignment-baseline="middle" text-anchor="end" x="135" y="313.66906474820144" >200</text><line class="poloto_axis_lines" stroke="black" x1="150" x2="144" y1="270.50359712230215" y2="270.50359712230215" /><text class="poloto_text" alignment-baseline="middle" text-anchor="end" x="135" y="270.50359712230215" >300</text><line class="poloto_axis_lines" stroke="black" x1="150" x2="144" y1="227.33812949640287" y2="227.33812949640287" /><text class="poloto_text" alignment-baseline="middle" text-anchor="end" x="135" y="227.33812949640287" >400</text><line class="poloto_axis_lines" stroke="black" x1="150" x2="144" y1="184.1726618705036" y2="184.1726618705036" /><text class="poloto_text" alignment-baseline="middle" text-anchor="end" x="135" y="184.1726618705036" >500</text><line class="poloto_axis_lines" stroke="black" x1="150" x2="144" y1="141.0071942446043" y2="141.0071942446043" /><text class="poloto_text" alignment-baseline="middle" text-anchor="end" x="135" y="141.0071942446043" >600</text><text class="poloto_text" alignment-baseline="middle" text-anchor="start" font-size="large" x="675" y="100" >query</text><rect class="poloto0fill" x="680" y="76.25" width="50" height="7.5" rx="5" ry="5" /><g class="poloto0fill" ><rect x="150" y="400" width="3" height="0" /><rect x="153.96825396825398" y="400" width="3" height="0" /><rect x="157.93650793650795" y="400" width="3" height="0" /><rect x="161.9047619047619" y="400" width="3" height="0" /><rect x="165.87301587301587" y="400" width="3" height="0" /><rect x="169.84126984126985" y="400" width="3" height="0" /><rect x="173.8095238095238" y="400" width="3" height="0" /><rect x="177.77777777777777" y="400" width="3" height="0" /><rect x="181.74603174603175" y="400" width="3" height="0" /><rect x="185.71428571428572" y="400" width="3" height="0" /><rect x="189.6825396825397" y="400" width="3" height="0" /><rect x="193.65079365079364" y="400" width="3" height="0" /><rect x="197.61904761904762" y="400" width="3" height="0" /><rect x="201.5873015873016" y="400" width="3" height="0" /><rect x="205.55555555555554" y="400" width="3" height="0" /><rect x="209.52380952380952" y="361.15107913669067" width="3" height="38.84892086330933" /><rect x="213.4920634920635" y="400" width="3" height="0" /><rect x="217.46031746031747" y="400" width="3" height="0" /><rect x="221.42857142857144" y="400" width="3" height="0" /><rect x="225.3968253968254" y="400" width="3" height="0" /><rect x="229.36507936507937" y="400" width="3" height="0" /><rect x="233.33333333333334" y="400" width="3" height="0" /><rect x="237.3015873015873" y="400" width="3" height="0" /><rect x="241.26984126984127" y="380.57553956834533" width="3" height="19.424460431654666" /><rect x="245.23809523809524" y="400" width="3" height="0" /><rect x="249.20634920634922" y="400" width="3" height="0" /><rect x="253.1746031746032" y="400" width="3" height="0" /><rect x="257.1428571428571" y="390.0719424460432" width="3" height="9.928057553956819" /><rect x="261.1111111111111" y="400" width="3" height="0" /><rect x="265.07936507936506" y="395.2517985611511" width="3" height="4.748201438848923" /><rect x="269.04761904761904" y="395.68345323741005" width="3" height="4.316546762589951" /><rect x="273.015873015873" y="302.8776978417266" width="3" height="97.12230215827338" /><rect x="276.984126984127" y="400" width="3" height="0" /><rect x="280.95238095238096" y="400" width="3" height="0" /><rect x="284.92063492063494" y="400" width="3" height="0" /><rect x="288.8888888888889" y="400" width="3" height="0" /><rect x="292.8571428571429" y="400" width="3" height="0" /><rect x="296.82539682539687" y="400" width="3" height="0" /><rect x="300.7936507936508" y="400" width="3" height="0" /><rect x="304.76190476190476" y="400" width="3" height="0" /><rect x="308.73015873015873" y="400" width="3" height="0" /><rect x="312.6984126984127" y="400" width="3" height="0" /><rect x="316.6666666666667" y="400" width="3" height="0" /><rect x="320.6349206349206" y="400" width="3" height="0" /><rect x="324.6031746031746" y="400" width="3" height="0" /><rect x="328.57142857142856" y="400" width="3" height="0" /><rect x="332.53968253968253" y="400" width="3" height="0" /><rect x="336.5079365079365" y="312.8057553956835" width="3" height="87.19424460431651" /><rect x="340.4761904761905" y="400" width="3" height="0" /><rect x="344.44444444444446" y="400" width="3" height="0" /><rect x="348.41269841269843" y="400" width="3" height="0" /><rect x="352.3809523809524" y="395.68345323741005" width="3" height="4.316546762589951" /><rect x="356.3492063492064" y="400" width="3" height="0" /><rect x="360.31746031746036" y="397.841726618705" width="3" height="2.1582733812949755" /><rect x="364.2857142857143" y="398.705035971223" width="3" height="1.294964028776974" /><rect x="368.25396825396825" y="364.1726618705036" width="3" height="35.82733812949641" /><rect x="372.22222222222223" y="400" width="3" height="0" /><rect x="376.1904761904762" y="400" width="3" height="0" /><rect x="380.1587301587302" y="400" width="3" height="0" /><rect x="384.1269841269841" y="378.41726618705036" width="3" height="21.58273381294964" /><rect x="388.0952380952381" y="400" width="3" height="0" /><rect x="392.06349206349205" y="389.2086330935252" width="3" height="10.79136690647482" /><rect x="396.031746031746" y="389.64028776978415" width="3" height="10.359712230215848" /><rect x="400" y="100" width="3" height="300" /><rect x="403.968253968254" y="400" width="3" height="0" /><rect x="407.93650793650795" y="400" width="3" height="0" /><rect x="411.9047619047619" y="400" width="3" height="0" /><rect x="415.8730158730159" y="400" width="3" height="0" /><rect x="419.8412698412699" y="400" width="3" height="0" /><rect x="423.8095238095238" y="400" width="3" height="0" /><rect x="427.77777777777777" y="400" width="3" height="0" /><rect x="431.74603174603175" y="400" width="3" height="0" /><rect x="435.7142857142857" y="400" width="3" height="0" /><rect x="439.6825396825397" y="400" width="3" height="0" /><rect x="443.6507936507937" y="400" width="3" height="0" /><rect x="447.61904761904765" y="400" width="3" height="0" /><rect x="451.58730158730157" y="400" width="3" height="0" /><rect x="455.55555555555554" y="400" width="3" height="0" /><rect x="459.5238095238095" y="400" width="3" height="0" /><rect x="463.4920634920635" y="314.1007194244604" width="3" height="85.89928057553959" /><rect x="467.46031746031747" y="400" width="3" height="0" /><rect x="471.42857142857144" y="400" width="3" height="0" /><rect x="475.3968253968254" y="400" width="3" height="0" /><rect x="479.3650793650794" y="400" width="3" height="0" /><rect x="483.33333333333337" y="400" width="3" height="0" /><rect x="487.3015873015873" y="400" width="3" height="0" /><rect x="491.26984126984127" y="400" width="3" height="0" /><rect x="495.23809523809524" y="357.2661870503597" width="3" height="42.73381294964031" /><rect x="499.2063492063492" y="400" width="3" height="0" /><rect x="503.1746031746032" y="400" width="3" height="0" /><rect x="507.14285714285717" y="400" width="3" height="0" /><rect x="511.11111111111114" y="378.41726618705036" width="3" height="21.58273381294964" /><rect x="515.0793650793651" y="400" width="3" height="0" /><rect x="519.047619047619" y="389.2086330935252" width="3" height="10.79136690647482" /><rect x="523.015873015873" y="390.0719424460432" width="3" height="9.928057553956819" /><rect x="526.984126984127" y="247.19424460431657" width="3" height="152.80575539568343" /><rect x="530.952380952381" y="400" width="3" height="0" /><rect x="534.9206349206349" y="400" width="3" height="0" /><rect x="538.8888888888889" y="400" width="3" height="0" /><rect x="542.8571428571429" y="398.705035971223" width="3" height="1.294964028776974" /><rect x="546.8253968253969" y="400" width="3" height="0" /><rect x="550.7936507936508" y="399.136690647482" width="3" height="0.8633093525180016" /><rect x="554.7619047619048" y="400" width="3" height="0" /><rect x="558.7301587301588" y="394.3884892086331" width="3" height="5.611510791366925" /><rect x="562.6984126984128" y="400" width="3" height="0" /><rect x="566.6666666666667" y="400" width="3" height="0" /><rect x="570.6349206349207" y="400" width="3" height="0" /><rect x="574.6031746031747" y="396.1151079136691" width="3" height="3.8848920863309218" /><rect x="578.5714285714286" y="400" width="3" height="0" /><rect x="582.5396825396825" y="398.27338129496405" width="3" height="1.7266187050359463" /><rect x="586.5079365079365" y="398.705035971223" width="3" height="1.294964028776974" /><rect x="590.4761904761905" y="252.80575539568346" width="3" height="147.19424460431654" /><rect x="594.4444444444445" y="400" width="3" height="0" /><rect x="598.4126984126984" y="400" width="3" height="0" /><rect x="602.3809523809524" y="400" width="3" height="0" /><rect x="606.3492063492064" y="400" width="3" height="0" /><rect x="610.3174603174604" y="400" width="3" height="0" /><rect x="614.2857142857142" y="400" width="3" height="0" /><rect x="618.2539682539682" y="400" width="3" height="0" /><rect x="622.2222222222222" y="318.84892086330933" width="3" height="81.15107913669067" /><rect x="626.1904761904761" y="400" width="3" height="0" /><rect x="630.1587301587301" y="400" width="3" height="0" /><rect x="634.1269841269841" y="400" width="3" height="0" /><rect x="638.0952380952381" y="359.42446043165467" width="3" height="40.575539568345334" /><rect x="642.063492063492" y="400" width="3" height="0" /><rect x="646.031746031746" y="379.71223021582733" width="3" height="20.287769784172667" /></g><text class="poloto_text" alignment-baseline="start" text-anchor="middle" font-size="x-large" x="400" y="37.5" >Num per node with abspiral(3000,0.007)</text><text class="poloto_text" alignment-baseline="start" text-anchor="middle" font-size="x-large" x="400" y="481.25" >DFS inorder iteration</text><text class="poloto_text" alignment-baseline="start" text-anchor="middle" font-size="x-large" transform="rotate(-90,37.5,250)" x="37.5" y="250" >Number of comparisons</text><path stroke="black" fill="none" class="poloto_axis_lines"  d="M 150 100 L 150 400 L 650 400 "/></svg>