<svg class="poloto" width="800" height="500" viewBox="0 0 800 500" xmlns="http://www.w3.org/2000/svg" ><rect class="poloto_background" fill="white" x="0" y="0" width="800" height="500" /><style><style>.poloto {
            font-family: "Arial";
            stroke-width:2;
            }
            .poloto_text{fill: var(--poloto_fg_color,black);  }
            .poloto_axis_lines{stroke: var(--poloto_fg_color,black);stoke-width:3;fill:none}
            .poloto_background{fill: var(--poloto_bg_color,aliceblue); }
            .poloto0stroke{stroke:  var(--poloto_color0,blue); }
            .poloto1stroke{stroke:  var(--poloto_color1,red); }
            .poloto2stroke{stroke:  var(--poloto_color2,green); }
            .poloto3stroke{stroke:  var(--poloto_color3,gold); }
            .poloto4stroke{stroke:  var(--poloto_color4,aqua); }
            .poloto5stroke{stroke:  var(--poloto_color5,brown); }
            .poloto6stroke{stroke:  var(--poloto_color6,lime); }
            .poloto7stroke{stroke:  var(--poloto_color7,chocolate); }
            .poloto0fill{fill:var(--poloto_color0,blue);}
            .poloto1fill{fill:var(--poloto_color1,red);}
            .poloto2fill{fill:var(--poloto_color2,green);}
            .poloto3fill{fill:var(--poloto_color3,gold);}
            .poloto4fill{fill:var(--poloto_color4,aqua);}
            .poloto5fill{fill:var(--poloto_color5,brown);}
            .poloto6fill{fill:var(--poloto_color6,lime);}
            .poloto7fill{fill:var(--poloto_color7,chocolate);}</style></style><line class="poloto_axis_lines" stroke="black" x1="150" x2="150" y1="400" y2="405" /><text class="poloto_text" alignment-baseline="start" text-anchor="middle" x="150" y="430" >0</text><line class="poloto_axis_lines" stroke="black" x1="230.64516129032256" x2="230.64516129032256" y1="400" y2="405" /><text class="poloto_text" alignment-baseline="start" text-anchor="middle" x="230.64516129032256" y="430" >10</text><line class="poloto_axis_lines" stroke="black" x1="311.2903225806451" x2="311.2903225806451" y1="400" y2="405" /><text class="poloto_text" alignment-baseline="start" text-anchor="middle" x="311.2903225806451" y="430" >20</text><line class="poloto_axis_lines" stroke="black" x1="391.93548387096774" x2="391.93548387096774" y1="400" y2="405" /><text class="poloto_text" alignment-baseline="start" text-anchor="middle" x="391.93548387096774" y="430" >30</text><line class="poloto_axis_lines" stroke="black" x1="472.5806451612903" x2="472.5806451612903" y1="400" y2="405" /><text class="poloto_text" alignment-baseline="start" text-anchor="middle" x="472.5806451612903" y="430" >40</text><line class="poloto_axis_lines" stroke="black" x1="553.2258064516129" x2="553.2258064516129" y1="400" y2="405" /><text class="poloto_text" alignment-baseline="start" text-anchor="middle" x="553.2258064516129" y="430" >50</text><line class="poloto_axis_lines" stroke="black" x1="633.8709677419355" x2="633.8709677419355" y1="400" y2="405" /><text class="poloto_text" alignment-baseline="start" text-anchor="middle" x="633.8709677419355" y="430" >60</text><line class="poloto_axis_lines" stroke="black" x1="150" x2="144" y1="345.85820824352936" y2="345.85820824352936" /><text class="poloto_text" alignment-baseline="middle" text-anchor="end" x="135" y="345.85820824352936" >10000</text><line class="poloto_axis_lines" stroke="black" x1="150" x2="144" y1="288.6379675370501" y2="288.6379675370501" /><text class="poloto_text" alignment-baseline="middle" text-anchor="end" x="135" y="288.6379675370501" >20000</text><line class="poloto_axis_lines" stroke="black" x1="150" x2="144" y1="231.41772683057087" y2="231.41772683057087" /><text class="poloto_text" alignment-baseline="middle" text-anchor="end" x="135" y="231.41772683057087" >30000</text><line class="poloto_axis_lines" stroke="black" x1="150" x2="144" y1="174.1974861240916" y2="174.1974861240916" /><text class="poloto_text" alignment-baseline="middle" text-anchor="end" x="135" y="174.1974861240916" >40000</text><line class="poloto_axis_lines" stroke="black" x1="150" x2="144" y1="116.97724541761238" y2="116.97724541761238" /><text class="poloto_text" alignment-baseline="middle" text-anchor="end" x="135" y="116.97724541761238" >50000</text><text class="poloto_text" alignment-baseline="middle" text-anchor="start" font-size="large" x="675" y="100" >query</text><rect class="poloto0fill" x="680" y="76.25" width="50" height="7.5" rx="5" ry="5" /><g class="poloto0fill" ><rect x="150" y="398.7468767285281" width="5.064516129032256" height="1.2531232714719067" /><rect x="158.06451612903226" y="391.11941864235445" width="5.064516129032256" height="8.880581357645553" /><rect x="166.1290322580645" y="399.44496366514716" width="5.064516129032256" height="0.5550363348528435" /><rect x="174.19354838709677" y="374.40538633199185" width="5.064516129032256" height="25.59461366800815" /><rect x="182.25806451612902" y="397.95151538270807" width="5.064516129032256" height="2.0484846172919333" /><rect x="190.32258064516128" y="387.88647504243835" width="5.064516129032256" height="12.113524957561651" /><rect x="198.38709677419354" y="396.749890327872" width="5.064516129032256" height="3.250109672128019" /><rect x="206.4516129032258" y="337.36672452268783" width="5.064516129032256" height="62.63327547731217" /><rect x="214.51612903225805" y="398.7525987525988" width="5.064516129032256" height="1.2474012474012284" /><rect x="222.5806451612903" y="390.9878120887295" width="5.064516129032256" height="9.012187911270473" /><rect x="230.64516129032256" y="398.63243624711515" width="5.064516129032256" height="1.3675637528848483" /><rect x="238.70967741935482" y="376.4882030937077" width="5.064516129032285" height="23.511796906292318" /><rect x="246.7741935483871" y="399.1588624616148" width="5.064516129032256" height="0.841137538385226" /><rect x="254.83870967741936" y="390.0722882374258" width="5.064516129032228" height="9.927711762574177" /><rect x="262.9032258064516" y="398.11745408075683" width="5.064516129032313" height="1.8825459192431708" /><rect x="270.9677419354839" y="265.13189265482845" width="5.064516129032199" height="134.86810734517155" /><rect x="279.0322580645161" y="398.14034217703943" width="5.064516129032313" height="1.8596578229605711" /><rect x="287.0967741935484" y="388.12680005340553" width="5.064516129032199" height="11.873199946594468" /><rect x="295.1612903225806" y="396.7041141353068" width="5.064516129032313" height="3.2958858646932185" /><rect x="303.2258064516129" y="373.16370710866124" width="5.064516129032199" height="26.836292891338758" /><rect x="311.2903225806451" y="398.6496023193271" width="5.064516129032313" height="1.350397680672927" /><rect x="319.35483870967744" y="390.22678288733334" width="5.064516129032199" height="9.773217112666657" /><rect x="327.41935483870964" y="398.8441511377291" width="5.064516129032313" height="1.1558488622708865" /><rect x="335.48387096774195" y="335.1408571592058" width="5.064516129032256" height="64.85914284079422" /><rect x="343.5483870967742" y="399.284746991169" width="5.064516129032256" height="0.7152530088309845" /><rect x="351.61290322580646" y="390.232504911404" width="5.064516129032256" height="9.767495088595979" /><rect x="359.6774193548387" y="398.27767075473497" width="5.064516129032256" height="1.7223292452650298" /><rect x="367.741935483871" y="374.49121669305157" width="5.064516129032256" height="25.50878330694843" /><rect x="375.80645161290323" y="398.57521600640865" width="5.064516129032256" height="1.4247839935913476" /><rect x="383.8709677419355" y="389.11671021762766" width="5.064516129032256" height="10.883289782372344" /><rect x="391.93548387096774" y="397.9229052623548" width="5.064516129032256" height="2.0770947376452114" /><rect x="400" y="100" width="5.064516129032256" height="300" /><rect x="408.06451612903226" y="400" width="5.064516129032256" height="0" /><rect x="416.1290322580645" y="390.57582635564285" width="5.064516129032256" height="9.424173644357154" /><rect x="424.19354838709677" y="398.374945163936" width="5.064516129032256" height="1.6250548360640096" /><rect x="432.258064516129" y="375.93888878292546" width="5.064516129032256" height="24.06111121707454" /><rect x="440.3225806451613" y="399.37629937629936" width="5.064516129032256" height="0.6237006237006426" /><rect x="448.38709677419354" y="390.0665662133552" width="5.064516129032256" height="9.933433786644798" /><rect x="456.4516129032258" y="398.4035552842892" width="5.064516129032256" height="1.5964447157107884" /><rect x="464.51612903225805" y="333.6016326842015" width="5.064516129032256" height="66.39836731579851" /><rect x="472.5806451612903" y="399.6280684354079" width="5.064516129032256" height="0.37193156459210286" /><rect x="480.64516129032256" y="389.305537011959" width="5.064516129032256" height="10.694462988040982" /><rect x="488.7096774193548" y="397.05887962768696" width="5.064516129032256" height="2.941120372313037" /><rect x="496.7741935483871" y="370.00514982166357" width="5.064516129032256" height="29.994850178336435" /><rect x="504.83870967741933" y="396.3321825707147" width="5.064516129032256" height="3.6678174292853214" /><rect x="512.9032258064516" y="385.92954281027676" width="5.064516129032313" height="14.070457189723243" /><rect x="520.9677419354839" y="396.3092944744321" width="5.064516129032199" height="3.690705525567921" /><rect x="529.0322580645161" y="259.7245799080662" width="5.064516129032313" height="140.27542009193382" /><rect x="537.0967741935484" y="399.2733029430277" width="5.064516129032313" height="0.7266970569722844" /><rect x="545.1612903225807" y="390.5586602834309" width="5.064516129032199" height="9.441339716569075" /><rect x="553.2258064516129" y="398.61527017490323" width="5.064516129032199" height="1.3847298250967697" /><rect x="561.2903225806451" y="376.76858227316944" width="5.064516129032313" height="23.231417726830557" /><rect x="569.3548387096774" y="399.9198916630109" width="5.064516129032313" height="0.08010833698909892" /><rect x="577.4193548387098" y="390.8161513666101" width="5.064516129032199" height="9.183848633389914" /><rect x="585.483870967742" y="397.91718323828417" width="5.064516129032199" height="2.082816761715833" /><rect x="593.5483870967741" y="333.2869213603159" width="5.064516129032313" height="66.71307863968411" /><rect x="601.6129032258065" y="396.3379045947853" width="5.064516129032313" height="3.6620954052147" /><rect x="609.6774193548388" y="385.7178279196628" width="5.064516129032199" height="14.282172080337205" /><rect x="617.741935483871" y="395.9030307654161" width="5.064516129032199" height="4.0969692345839235" /><rect x="625.8064516129032" y="369.0209616815121" width="5.064516129032313" height="30.97903831848788" /><rect x="633.8709677419355" y="399.2218047263919" width="5.064516129032313" height="0.7781952736081053" /><rect x="641.9354838709678" y="388.086745884911" width="5.064516129032199" height="11.91325411508899" /></g><text class="poloto_text" alignment-baseline="start" text-anchor="middle" font-size="x-large" x="400" y="37.5" >Complexity of query evenness with abspiral(3000,2)</text><text class="poloto_text" alignment-baseline="start" text-anchor="middle" font-size="x-large" x="400" y="481.25" >dfs inorder iteration</text><text class="poloto_text" alignment-baseline="start" text-anchor="middle" font-size="x-large" transform="rotate(-90,37.5,250)" x="37.5" y="250" >Number of comparisons</text><path stroke="black" fill="none" class="poloto_axis_lines"  d="M 150 100 L 150 400 L 650 400 "/></svg>