<svg  width="800" class="poloto_background poloto" height="500" viewBox="0 0 800 500" xmlns="http://www.w3.org/2000/svg" ><text  class="poloto_text" alignment-baseline="middle" text-anchor="start" font-size="large" x="675" y="100" ></text><path  class="scatter poloto0stroke" d=" M 400.92330916182254 249.76930217441807 h 0 M 396.3502510951519 245.58960308345084 h 0 M 401.6900985296314 258.4864576392549 h 0 M 407.4591199103885 241.26402252655078 h 0 M 388.70919963364463 251.92485670654995 h 0 M 412.62432079893057 257.1954770605903 h 0 M 396.97955863181284 235.13235383905487 h 0 M 393.36048063136104 264.2977103733217 h 0 M 417.4004200752678 243.765672003964 h 0 M 383.7253265188561 242.68648697937988 h 0 M 409.2357770836343 267.4918712999715 h 0 M 407.07935072473265 230.18783089230172 h 0 M 382.3352230288856 260.516800712149 h 0 M 422.7628749058206 254.55967021564476 h 0 M 387.57729796055145 230.82945995732706 h 0 M 397.83652128658423 273.53526367185503 h 0 M 419.89229058681155 233.81884666534728 h 0 M 375.37422696124895 248.715187446868 h 0 M 419.5742127847207 268.2869255128983 h 0 M 399.67460293760377 222.82674114137185 h 0 M 383.1528844595336 271.0154302627353 h 0 M 429.089985572169 245.98819679657777 h 0 M 377.0451160059549 233.19353535454732 h 0 M 407.4513592765071 278.7206676119115 h 0 M 416.0290464984869 223.46816268771948 h 0 M 371.3809765448775 259.1725222558373 h 0 M 429.6307512529522 263.00248500502164 h 0 M 388.4821793443068 220.10995775457368 h 0 M 389.8162680669246 280.5789649154564 h 0 M 430.4868967135427 234.2671027452577 h 0 M 368.0763221380381 241.13077609593924 h 0 M 419.5987010088967 278.7472929467149 h 0 M 406.8655356624723 215.2723924914248 h 0 M 372.7558027424287 271.53383158972184 h 0 M 436.9625799851395 252.74824262824154 h 0 M 376.0074154309499 222.89764958510165 h 0 M 401.1048356892272 286.8947752186532 h 0 M 426.26979818017855 221.89250188923955 h 0 M 362.8556243752588 253.2893244681529 h 0 M 431.77453253075555 273.1306435573168 h 0 M 393.902857042291 211.26708924506946 h 0 M 379.7728628653663 283.3024872500262 h 0 M 439.6865849035247 239.1702306333079 h 0 M 364.74127086779436 231.2438118127001 h 0 M 415.2237366276539 288.25389076867225 h 0 M 416.60954122278383 211.32473222943798 h 0 M 362.91278262300943 267.7419342571387 h 0 M 441.55386473504876 262.2674420464916 h 0 M 379.19785980425615 212.7835924678837 h 0 M 391.80864268245887 292.1174794116556 h 0 M 436.67496312078566 224.4311772074965 h 0 M 356.9731826771184 244.30442958550972 h 0 M 429.91090197891504 283.74710044281665 h 0 M 402.5687286593042 204.75243867557526 h 0 M 368.93417690467163 282.1556937958511 h 0 M 446.8575239722122 247.42603519626925 h 0 M 365.1454754163018 220.2755930654326 h 0 M 407.3933179119449 296.03691516646944 h 0 M 427.7095267478992 210.95654098609938 h 0 M 354.4990420262956 260.42694807519445 h 0 M 442.7205617280423 273.3957068693311 h 0 M 385.97634457128345 203.80061442838223 h 0 M 380.65794429457696 294.09752231746995 h 0 M 446.23948070322945 230.58791018345096 h 0 M 354.15516592636607 233.24293070085213 h 0 M 424.4009440915895 293.8145140490866 h 0 M 413.527910345564 201.0990280965996 h 0 M 358.3584421475414 277.36921156645246 h 0 M 451.3678838257563 258.16624943501154 h 0 M 369.18127513258196 209.28646607375816 h 0 M 396.89144558108444 301.3823956706241 h 0 M 439.110347672192 214.1771226793773 h 0 M 348.3012954660293 250.28155367063758 h 0 M 440.34288942092417 285.0986351683431 h 0 M 395.7408154734401 196.79284047055086 h 0 M 368.6616697537132 292.6117790670002 h 0 M 454.068961962164 239.85566076890933 h 0 M 354.7224307796113 221.07524416129644 h 0 M 415.65809751437854 302.40264403841917 h 0 M 425.8515544525103 200.71726060763356 h 0 M 349.00624324525097 269.2607408389257 h 0 M 452.7225887113407 270.5145155807253 h 0 M 376.62488301669794 199.2537051361666 h 0 M 384.5400760175254 303.71967362039356 h 0 M 449.82235571998075 220.85672797714753 h 0 M 344.9615086097239 238.06431098238934 h 0 M 434.4585806953065 296.3870847403733 h 0 M 407.79722315938693 192.4636467927985 h 0 M 356.8050200839846 287.60768744122925 h 0 M 459.40237140485164 251.61204442864081 h 0 M 358.81569630043873 208.77056480591278 h 0 M 404.23254981224056 308.7033320326644 h 0 M 438.58921042389375 203.8326057437813 h 0 M 341.72950069547267 258.3029285140708 h 0 M 450.61361261102735 283.5502861882544 h 0 M 387.0812975658273 191.06202433637426 h 0 M 371.22765948173685 302.6631576755369 h 0 M 458.93106032913204 230.68154634814596 h 0 M 344.94064206398053 224.62147281847578 h 0 M 425.3004974481461 306.32802407232396 h 0 M 421.3432725788616 191.34295938498204 h 0 M 346.0368296898192 279.2354122827663 h 0 M 461.64304095967816 265.1076351189845 h 0 M 366.3669963798199 197.28224622570406 h 0 M 390.8194651066825 312.0608072081852 h 0 M 450.7854934869722 210.45925935620087 h 0 M 337.2408669694883 245.12909872992537 h 0 M 444.94534479141 296.32724461512305 h 0 M 399.9801004838 185.47221861896654 h 0 M 357.8891656783228 298.03756438193216 h 0 M 465.62973805045897 243.15018869414376 h 0 M 348.4926785973118 210.86595269051472 h 0 M 413.3002303370397 314.07840804416617 h 0 M 435.4901597071471 193.7600503951077 h 0 M 337.2342663274675 267.85218273456144 h 0 M 460.38759017262976 279.4878218729433 h 0 M 377.09392881831894 187.51132271736404 h 0 M 376.23741468387607 312.0025682223062 h 0 M 461.51770762199874 220.39257262262012 h 0 M 336.08060501100977 230.51254156340124 h 0 M 435.84448879512763 307.91168466665533 h 0 M 414.5949195060774 183.08591511920895 h 0 M 345.46713986952335 289.8904401043004 h 0 M 469.2569761636122 257.59137745666055 h 0 M 355.64913095226893 197.73833097231935 h 0 M 399.07254769325306 318.9247067947949 h 0 M 449.3014254810648 199.82497750143472 h 0 M 331.16122616217956 254.0093306823046 h 0 M 455.4477745689644 293.8309503151635 h 0 M 390.50977709913167 180.26331097578023 h 0 M 361.3911611436213 308.2643995407392 h 0 M 469.94060394796725 233.21594638824132 h 0 M 338.588233865347 215.33081637546212 h 0 M 423.65660538417865 317.4282905931842 h 0 M 430.07739666788234 184.31403229103398 h 0 M 334.8649591709152 278.49236952838487 h 0 M 469.331341819833 273.19564706198923 h 0 M 366.2150514931567 186.15975651981066 h 0 M 383.38616037525503 320.32046758619884 h 0 M 461.8402282397389 209.42070213672508 h 0 M 328.42803199873487 238.42599292540305 h 0 M 446.8623778493494 307.1951885670099 h 0 M 405.9466786810093 176.20544551040783 h 0 M 347.22538687359156 300.80630021722516 h 0 M 475.3314515939512 248.3205046248406 h 0 M 344.8825887470909 200.5206430532398 h 0 M 408.93008902796646 324.1069930371812 h 0 M 445.5009264294175 189.3530381967074 h 0 M 326.89835489709543 264.3248628645765 h 0 M 465.5790542675819 289.05713951061733 h 0 M 379.7770562839978 176.98236396780223 h 0 M 367.1240356057189 317.9175232521892 h 0 M 472.21991131113464 222.20688973549807 h 0 M 329.4565886735927 221.95207253525902 h 0 M 434.89771856996924 318.6694214481549 h 0 M 422.5898604070675 175.82878435781512 h 0 M 334.67361152695537 289.8172833776451 h 0 M 477.1310018985981 264.93606143003956 h 0 M 354.85262588049966 187.02730654682676 h 0 M 392.38860016812055 327.3265813946084 h 0 M 459.91063661260205 198.1713899972142 h 0 M 322.24926327003743 248.0565772562991 h 0 M 457.9518034315663 304.2223527029147 h 0 M 395.7232571347788 170.94119037381896 h 0 M 351.2360694514769 311.5879950792437 h 0 M 479.65387452954985 237.63566148352106 h 0 M 334.4543550752155 205.52288963143056 h 0 M 420.03611281961395 327.4243649823555 h 0 M 439.52084333440564 179.41824771202297 h 0 M 324.6060000282847 275.7082989479583 h 0 M 474.9772171388312 282.1716461795136 h 0 M 368.1600446183422 175.7519729420297 h 0 M 374.89336190965327 326.6517660606605 h 0 M 472.3763906890308 210.5076279276263 h 0 M 321.42548421926074 230.50891342879393 h 0 M 446.63324014975757 317.7427984265455 h 0 M 413.2742242904993 168.61098576210745 h 0 M 336.6868862040378 301.4352608079006 h 0 M 483.5015204609125 254.97876647908114 h 0 M 343.39882041190845 190.10811900139888 h 0 M 402.95264185242354 332.76067532465623 h 0 M 455.7672353908813 187.03284562357072 h 0 M 317.7792091290007 259.09318717689047 h 0 M 468.72935459285077 299.0634069025184 h 0 M 384.2540245384059 167.5000940226805 h 0 M 357.39727984151307 321.8613065538555 h 0 M 482.04567276261764 225.88065779840898 h 0 M 324.72860478515264 212.61272099854025 h 0 M 432.0332252555968 328.7285657793426 h 0 M 431.5235642131538 170.3705631851034 h 0 M 324.4017744292232 287.79283344179817 h 0 M 483.3073496032806 273.3649311609732 h 0 M 356.034042226339 176.65783622785935 h 0 M 384.48112960301467 334.15111734350495 h 0 M 470.3564089079594 198.4975542825587 h 0 M 314.79127907719504 240.75841244248028 h 0 M 458.48066311558614 314.6273903463439 h 0 M 402.3976541341916 162.93391991596548 h 0 M 340.89326165139494 312.96517163873114 h 0 M 488.19335459663614 243.6119722134523 h 0 M 332.2323833964123 195.3582982739324 h 0 M 414.7698537704124 336.3998172734115 h 0 M 449.48608179317915 176.3769877273257 h 0 M 315.2136413058136 271.21085188010477 h 0 M 478.83094717451775 291.8255999656745 h 0 M 371.8795615996045 166.0485490635 h 0 M 365.5709526432456 331.2742750956238 h 0 M 482.3702319298947 213.40760604932223 h 0 M 316.04423392254733 221.6229656153943 h 0 M 444.55878532835266 327.91436083801403 h 0 M 421.70483220884086 162.53179395956337 h 0 M 326.3593655539647 300.20963386020827 h 0 M 490.26558554581896 262.85891748606275 h 0 M 343.7729908563101 179.7412529926619 h 0 M 395.6399407871677 340.1332336789084 h 0 M 466.1510783651038 186.55124886510558 h 0 M 309.81400857594525 252.43070266178339 h 0 M 470.06584659582205 309.34676975573876 h 0 M 390.25165019993557 159.03225405437075 h 0 M 347.2368256206062 324.0378253899423 h 0 M 490.9978467344066 231.14525716029263 h 0 M 321.71649603748557 202.6903599975011 h 0 M 427.51352040707695 338.06380628254044 h 0 M 441.1859104866721 166.5566177306371 h 0 M 314.70383042800813 284.06970445511195 h 0 M 487.91518130315444 282.6574287175637 h 0 M 358.95186510064707 166.70709335951244 h 0 M 375.5793239712343 339.50101573344324 h 0 M 480.5380293453346 200.57633280493548 h 0 M 308.710668283066 232.34881139858066 h 0 M 457.2462247666078 324.92424289711755 h 0 M 410.2958463662717 156.19118763312994 h 0 M 330.5041192369837 312.5898755853076 h 0 M 495.58369995242595 250.9083289224413 h 0 M 331.7468852776873 184.99516563439292 h 0 M 408.0923633361516 344.3541517819278 h 0 M 459.7997860456171 175.03533915226632 h 0 M 306.71268469902833 265.22906600098435 h 0 M 481.0266503484566 301.9721224456975 h 0 M 377.1512763317906 157.09740891326618 h 0 M 355.6148856858703 334.29995642697867 h 0 M 491.751699987335 217.90815114482908 h 0 M 312.1944508657514 211.9713958352752 h 0 M 440.8406838969623 337.61943699795887 h 0 M 431.02939535858417 157.9008661573898 h 0 M 316.35253200995936 297.31757882129807 h 0 M 495.66808091971785 271.7492792512427 h 0 M 345.8311806548142 169.5468222196077 h 0 M 387.2049215974637 346.2465175546508 h 0 M 476.5098081439673 187.75075403042578 h 0 M 303.0030292504389 244.5484110652185 h 0 M 469.72911921989714 319.75124877068953 h 0 M 397.56203473162674 151.60063057353204 h 0 M 336.81074484630756 324.56910467695826 h 0 M 499.03379323676825 237.79888008693518 h 0 M 320.31701797977036 192.36238161206958 h 0 M 421.5333219782663 346.6127496643115 h 0 M 451.3914158637375 164.3035431889839 h 0 M 305.66106126442014 278.8328457179868 h 0 M 491.0180429640547 292.622876890505 h 0 M 363.43172557185454 157.27366013221712 h 0 M 365.8778706681085 343.4194797894249 h 0 M 490.3405584295614 204.24624259404195 h 0 M 303.9843562418284 223.02356916494588 h 0 M 454.3964862924039 334.9836390045209 h 0 M 419.2220316655221 150.7099486067045 h 0 M 320.21128153028906 310.5947300405585 h 0 M 501.8082709856123 259.3317490752076 h 0 M 332.88098913630535 174.58715388441655 h 0 M 400.19282529664645 351.2517264373786 h 0 M 470.2983240467829 175.29357500143328 h 0 M 299.15726809021476 257.9456846186081 h 0 M 481.64669273661775 312.4401080770387 h 0 M 383.7997237193637 148.97006480457523 h 0 M 345.20269622688795 335.7929657816715 h 0 M 500.43260886445984 223.8434626751464 h 0 M 309.8302144533083 201.73552230372718 h 0 M 435.63438807264254 346.7546885058755 h 0 M 441.0638045238398 154.69085316416349 h 0 M 306.78406942014294 292.90215572369425 h 0 M 499.71795727399956 281.46560272682035 h 0 M 349.44323413689074 159.65499891972266 h 0 M 377.8310359979721 351.0912269679183 h 0 M 486.7016410442063 190.51576043052472 h 0 M 297.37347809987943 235.62640024293256 h 0 M 467.81986577169914 330.12560905584496 h 0 M 406.0093019764546 145.24970929026435 h 0 M 326.2788329896671 323.53975695937 h 0 M 506.09220594823256 245.67226337874553 h 0 M 320.4618456867157 181.79479094942135 h 0 M 414.2545477792638 354.29840747871873 h 0 M 461.96875937949653 163.56004802421498 h 0 M 297.3655999142416 272.2346762569626 h 0 M 492.6501916814877 303.0870858786117 h 0 M 369.33132341899903 148.46331009456347 h 0 M 355.5529603077713 345.92349653799835 h 0 M 499.64524769283776 209.37693241523834 h 0 M 300.61250856098803 212.95840580860317 h 0 M 450.0493720662828 344.6756385372662 h 0 M 429.0017739455442 146.50733935536581 h 0 M 310.15511272166896 307.083781525595 h 0 M 506.8332916510632 268.71146545349694 h 0 M 335.5448726154951 164.2830076913962 h 0 M 391.2375885717572 357.0427367571087 h 0 M 480.8253189377125 177.07717738300548 h 0 M 292.61278278598826 249.5204100750036 h 0 M 480.75015678824906 323.067802443163 h 0 M 391.6725093695733 141.74645568589114 h 0 M 334.5007251768675 335.79627034450175 h 0 M 508.3189802447069 231.07044520171968 h 0 M 308.924680497119 191.08397607517492 h 0 M 429.07314092299737 355.21351960646956 h 0 M 451.63791869323376 152.89125905889512 h 0 M 297.77260007517003 287.08505902762244 h 0 M 502.40947354845946 291.83855857277297 h 0 M 354.49944421595285 150.1946807134016 h 0 M 367.68606805038485 354.6456383521058 h 0 M 496.58803061499214 194.74990858687502 h 0 M 292.96283762310225 225.828656174872 h 0 M 464.4207993143534 340.3236315739753 h 0 M 415.4339388833123 140.0320799616083 h 0 M 315.7942927657857 321.0178483634729 h 0 M 512.1057693606872 254.6124665078623 h 0 M 322.0977245160673 171.1456641329412 h 0 M 405.8229649453072 361.0397156523346 h 0 M 472.755706795223 164.28826351989758 h 0 M 289.9117559090467 264.4118987551187 h 0 M 492.83406332946686 313.88587005126635 h 0 M 376.5235193939796 140.38226133752232 h 0 M 344.77001507343743 347.0198718049926 h 0 M 508.33451580597466 215.85244161820978 h 0 M 298.6038393497839 202.31778627440912 h 0 M 444.30925819035576 353.87296075034345 h 0 M 439.4722513320495 143.60733369564628 h 0 M 300.4720024213395 302.14851922277313 h 0 M 510.6197180077449 278.88844105360164 h 0 M 339.6602191371092 154.22635751834463 h 0 M 381.38127844998945 361.67368029529575 h 0 M 491.2305568244829 180.32190008795905 h 0 M 287.14686762340136 240.10145213604318 h 0 M 478.38698499548684 333.7004221815056 h 0 M 400.6283996526554 135.50734664638537 h 0 M 323.66768367199893 334.3450007655571 h 0 M 515.3173168618881 239.4566505431757 h 0 M 309.45759756503344 180.17727432209384 h 0 M 421.28013077420144 362.89102616589565 h 0 M 462.59007142520295 152.4968594851103 h 0 M 289.4339388241667 279.97865960532295 h 0 M 503.7329062166797 302.7074506194718 h 0 M 360.89864047803894 141.29103971984858 h 0 M 356.929103479298 356.8852743382495 h 0 M 506.0350319283385 200.3644749214891 h 0 M 289.81014387506946 215.31059953214734 h 0 M 459.6079179209245 350.20436885236575 h 0 M 425.6847827652742 136.0007336129483 h 0 M 305.50446753848416 317.06573284267046 h 0 M 517.0078067378281 264.4745261217561 h 0 M 325.1760920382378 160.56678288062307 h 0 M 396.3768113846696 366.7572702611533 h 0 M 483.5966580300162 166.45397958273233 h 0 M 283.39129157924737 255.4942704125862 h 0 M 491.589459834055 324.86183386766714 h 0 M 384.88748704909875 133.1333801811939 h 0 M 333.6876238671855 346.71385355090223 h 0 M 516.2948506527854 223.56239780442746 h 0 M 297.9676384006899 191.25941688943178 h 0 M 437.27571026299154 362.4529591547117 h 0 M 450.47722300081114 142.03355925178192 h 0 M 291.2931985207622 295.8764668390529 h 0 M 513.12973634181 289.70990475568027 h 0 M 345.1517995200747 144.55534195957114 h 0 M 370.7726331440974 365.0931474959098 h 0 M 501.3695767024833 184.96576289321084 h 0 M 282.824275137261 229.83162262322597 h 0 M 474.605802876492 344.1890495285254 h 0 M 410.53101148904705 130.32997004020393 h 0 M 312.85634463647494 331.47383135053445 h 0 M 521.338285295678 248.8738438357498 h 0 M 311.4083041491725 169.17007845294424 h 0 M 412.37500929570706 369.6869697783042 h 0 M 473.76429199347643 153.50120267728337 h 0 M 281.87882977214986 271.6925273186373 h 0 M 503.68051904231334 313.91699588592417 h 0 M 368.54167528658115 133.0638427376383 h 0 M 345.71417500886 357.7883956237307 h 0 M 514.9143228253881 207.27196326543051 h 0 M 287.9510024695496 204.22304771017662 h 0 M 453.4567938166048 359.6326091952136 h 0 M 436.61476676390896 133.2046328502185 h 0 M 295.5509280670918 311.74616561870937 h 0 M 520.7362231510145 275.11697890152027 h 0 M 329.64721079895526 150.2042482095957 h 0 M 386.0514554612808 371.3767029054818 h 0 M 494.34150170888546 170.02104272175544 h 0 M 277.89055152399123 245.60937390913364 h 0 M 488.9388801578392 335.8628100774899 h 0 M 394.3038588599253 126.81381290477941 h 0 M 322.45946651145476 345.0140100350656 h 0 M 523.4186862151519 232.3971268609606 h 0 M 298.70918149567973 179.9365487219236 h 0 M 429.04834908506064 370.29904562651865 h 0 M 461.86441876470786 141.80504873207332 h 0 M 282.7439002943976 288.3559781561053 h 0 M 514.3306904303098 301.02649818781447 h 0 M 351.94281525504846 135.40211205625684 h 0 M 359.5575982116913 367.255299351692 h 0 M 511.1037335449885 190.9444212396527 h 0 M 279.7038117643051 218.8516136678607 h 0 M 469.4582839161412 354.3903530054658 h 0 M 421.24537587041857 126.2852795521153 h 0 M 302.2142249276939 327.2211737083316 h 0 M 526.299042362768 259.1944621926278 h 0 M 314.7517304275718 158.2122110520422 h 0 M 402.47751243935807 375.5076975594859 h 0 M 485.0089746124745 155.89283281760297 h 0 M 275.21136117961333 262.3370975101483 h 0 M 502.25015912778366 325.3157313084091 h 0 M 377.3277804172752 125.62626317569851 h 0 M 334.1920958744437 357.339305535106 h 0 M 523.1040477260854 215.38250131172785 h 0 M 287.4145445554377 192.7142546094324 h 0 M 446.0461418261629 368.47941957609385 h 0 M 448.0786821764317 131.68595018953766 h 0 M 286.06926746858204 305.1257296986149 h 0 M 523.2360132500726 286.39948419445955 h 0 M 335.45680885271486 140.19858272021014 h 0 M 374.98191066584366 374.8308916198332 h 0 M 504.84530760595317 174.9481301655759 h 0 M 273.488491093234 234.88521433814142 h 0 M 484.9105879818265 346.741249950366 h 0 M 404.65204939682855 121.51335706918638 h 0 M 311.23518121693337 341.93526686626575 h 0 M 529.6057274330726 242.2449495625362 h 0 M 300.82695450898507 168.49902402621746 h 0 M 419.7295969844082 377.30171324797664 h 0 M 473.48429307439403 142.9336277506486 h 0 M 274.9423830457449 279.67895936064366 h 0 M 514.1974710209208 312.69083784777706 h 0 M 359.9521423223546 126.89224906395634 h 0 M 347.88089686926634 368.1221176540814 h 0 M 520.3005965497805 198.1885304498942 h 0 M 277.8362638063429 207.30170039689898 h 0 M 463.0018111152288 364.16671330646216 h 0 M 432.63612923841526 123.43617989599437 h 0 M 291.8836681400127 321.63175745725744 h 0 M 530.1248438754953 270.2897285952057 h 0 M 319.45590626552075 147.44894306180544 h 0 M 391.7094220997276 380.2675741240981 h 0 M 496.1764249881853 159.65293750195715 h 0 M 269.52772734927 252.0256586583821 h 0 M 499.44749655864973 336.75535676191447 h 0 M 387.1525107648822 119.08385034442722 h 0 M 322.51123857222774 355.5304822579333 h 0 M 530.4896929831364 224.60176542859733 h 0 M 288.22143952668426 180.93085627150163 h 0 M 437.4598677810702 376.6227357384641 h 0 M 459.93212615801053 131.47820333961215 h 0 M 277.1886438254135 297.27690909446636 h 0 M 524.4609488826409 298.1816551233391 h 0 M 342.5440293841341 130.68442374377696 h 0 M 363.30409344427176 377.06151873826127 h 0 M 514.9683897330286 181.18675925667057 h 0 M 270.2553120973339 223.45156316050276 h 0 M 479.5405753372991 357.35419967186215 h 0 M 415.8088447039009 117.31318689993662 h 0 M 300.1605262470285 337.50070090826694 h 0 M 534.7641094572033 252.99072181041365 h 0 M 304.31080806631576 157.09359292999795 h 0 M 409.4261729657628 383.3595906202659 h 0 M 485.189581426766 145.42222320601445 h 0 M 267.99923315838697 269.9424013387361 h 0 M 512.71414824879 324.5569643425606 h 0 M 369.09281706621624 119.14411140803804 h 0 M 335.886702279816 367.6648763104755 h 0 M 528.8344380755946 206.6221996649383 h 0 M 277.263017367706 195.32248704126175 h 0 M 455.3009714010558 373.3865852268522 h 0 M 444.5666832291697 121.8361499136434 h 0 M 282.0015685922368 314.7581015422919 h 0 M 532.7502748690295 282.02874350712415 h 0 M 325.4805496087273 137.02083642261874 h 0 M 380.19553462229953 383.89011457863495 h 0 M 507.12286820423685 164.75389215868677 h 0 M 264.915258639231 240.87537005530527 h 0 M 495.2873886940124 348.0906996541067 h 0 M 397.9067004244862 113.53364037093138 h 0 M 310.8177556692049 352.363869189877 h 0 M 536.964836058821 234.82991798678268 h 0 M 290.38262536475054 169.01813150680877 h 0 M 427.7881843986479 383.9480860522848 h 0 M 472.03114635565964 132.60503566069144 h 0 M 269.0311887301516 288.2791982123469 h 0 M 524.3747620049276 310.3226307635182 h 0 M 350.8403306009497 121.79006699817552 h 0 M 351.1553200202073 378.0201566792899 h 0 M 524.5767479596235 188.68016232642063 h 0 M 268.2514297316575 211.44051191559788 h 0 M 472.8736705988898 367.56359145972976 h 0 M 427.64778866400326 114.2849248623715 h 0 M 289.3771748800016 331.742673272785 h 0 M 538.8112651167452 264.51517027756597 h 0 M 309.14094024160926 145.86379934820383 h 0 M 398.24979777483446 388.38019719218113 h 0 M 496.83534570987445 149.26378536413318 h 0 M 262.0164964002448 259.249113367434 h 0 M 509.87501259799956 336.48033845437413 h 0 M 379.2712515306208 112.26811869507111 h 0 M 323.7187144420312 365.86519565713303 h 0 M 536.586872413927 216.16219717550098 h 0 M 278.01502527985434 183.05506859879034 h 0 M 446.4283994371027 381.9250956316879 h 0 M 456.89898920012996 121.52836135803682 h 0 M 272.69890604938985 306.6613561118073 h 0 M 534.1201486135471 294.2782071582181 h 0 M 332.7761438129272 127.06333100248003 h 0 M 368.06398832188444 386.30878705811506 h 0 M 517.7088311963744 171.15842603987116 h 0 M 261.4515539951181 229.00765053503233 h 0 M 489.79477917868877 359.17996276754303 h 0 M 409.47602710925213 109.06336153034619 h 0 M 299.2552761894207 347.8517876294897 h 0 M 542.4319104739493 245.9611205266382 h 0 M 293.89840962643314 157.11983273247114 h 0 M 417.12812535536614 390.34927603060527 h 0 M 484.23234638444904 135.07939789186725 h 0 M 261.71138428580343 278.21964081080546 h 0 M 522.9519569470956 322.6811449880089 h 0 M 360.2689139938185 113.63681354329441 h 0 M 338.67431033805644 377.669070482601 h 0 M 533.5426121519002 197.3627005286094 h 0 M 267.5266366529787 198.98653123134463 h 0 M 464.9641693703187 377.2367707203564 h 0 M 440.03908047983276 112.48979191692393 h 0 M 279.02225801680964 324.70347449603975 h 0 M 541.6747214126877 276.69475029280784 h 0 M 315.2871631523615 134.94953644064697 h 0 M 386.31739351450517 392.2806985887786 h 0 M 508.27935273436657 154.4405876058227 h 0 M 257.0871022403436 247.7079689899824 h 0 M 505.6852767619495 348.31812438888534 h 0 M 390.3869495607379 106.36603572421251 h 0 M 311.5199078360057 362.71574271177354 h 0 M 543.4475261051318 226.71762488323222 h 0 M 280.11215255742417 170.64080561255344 h 0 M 436.46512461018494 389.6646492922544 h 0 M 469.49373969454723 122.54489209264796 h 0 M 264.1000911787611 297.4117116539185 h 0 M 534.190247904973 306.9025616603886 h 0 M 341.2835512263709 117.706154496495 h 0 M 355.4461789537885 387.46782313077534 h 0 M 527.7996908344447 178.81916194293396 h 0 M 259.203786975753 216.54812684003173 h 0 M 483.0051553353718 369.88528288815013 h 0 M 421.74101350584414 105.75075759725553 h 0 M 287.96449553824465 342.0174403286435 h 0 M 546.8028918960993 257.8834988438489 h 0 M 298.75797262134654 145.3777138918943 h 0 M 405.58362537976035 395.7291043181772 h 0 M 496.39332350448404 138.90291871053438 h 0 M 255.33530604293378 267.1929775259829 h 0 M 520.1784491850717 335.1158687257695 h 0 M 370.7445153554171 106.33835607650616 h 0 M 326.0008568479781 375.9819495336606 h 0 M 541.7450809444802 207.15962386521704 h 0 M 268.1194326633835 186.22616249668428 h 0 M 455.8760868386878 386.24710188528456 h 0 M 452.84983047837386 111.9780095506062 h 0 M 269.22774118143974 316.4356156550045 h 0 M 543.2927540617607 289.40183688583454 h 0 M 322.7086111749737 124.48648798353423 h 0 M 373.7509185302024 394.98863046799585 h 0 M 519.382634144577 160.92389597047378 h 0 M 253.29398060878054 235.433779635962 h 0 M 500.16146994694304 359.92977594172305 h 0 M 402.3325866493958 101.53035878268088 h 0 M 299.4319872842877 358.2206560459416 h 0 M 549.3147634570162 238.18995001861833 h 0 M 283.5626322592802 158.2208186514142 h 0 M 425.5005966601856 396.4956842147171 h 0 M 482.21081499028674 124.9062697470577 h 0 M 256.32231100595413 287.0884580065335 h 0 M 532.9278455457127 319.76440407795644 h 0 M 350.93387518356803 109.07264577829773 h 0 M 342.4763747749381 387.3226898784755 h 0 M 537.2663521245629 187.67843131248475 h 0 M 258.22810641170753 203.6262948050856 h 0 M 474.96480051892456 380.07337598177645 h 0 M 434.5773252200727 103.66288759309225 h 0 M 277.0824736419882 334.8951554007388 h 0 M 550 270.4793927986442 h 0 M 304.9390046526246 133.9309364202636 h 0 M 393.2653174325243 400 h 0 M 508.37324430414014 144.06559001212145 h 0 M 250 255.30147277546402 h 0 M 516.0519202137735 347.48603546824 h 0 M 382.17354870125075 100 h 0 M 313.27524487961307 372.9441750759486 h 0 M 549.0708630311841 217.98714986648778 h 0 M 270.0566304066842 173.29751676790255 h 0 M 445.6831577744812 394.4747394758722 h 0" /><text  class="poloto_text" alignment-baseline="start" text-anchor="middle" font-size="x-large" x="400" y="37.5" >abspiral(600,1.5)</text><text  class="poloto_text" alignment-baseline="start" text-anchor="middle" font-size="x-large" x="400" y="481.25" >x</text><text  class="poloto_text" alignment-baseline="start" text-anchor="middle" font-size="x-large" transform="rotate(-90,37.5,250)" x="37.5" y="250" >y</text><line  class="poloto_axis_lines" stroke="black" x1="326.5009994018677" x2="326.5009994018677" y1="400" y2="405" /><text  class="poloto_text" alignment-baseline="start" text-anchor="middle" x="326.5009994018677" y="430" > -20</text><line  class="poloto_axis_lines" stroke="black" x1="409.1924546907064" x2="409.1924546907064" y1="400" y2="405" /><text  class="poloto_text" alignment-baseline="start" text-anchor="middle" x="409.1924546907064" y="430" > 0</text><line  class="poloto_axis_lines" stroke="black" x1="491.88390997954514" x2="491.88390997954514" y1="400" y2="405" /><text  class="poloto_text" alignment-baseline="start" text-anchor="middle" x="491.88390997954514" y="430" > 20</text><line  class="poloto_axis_lines" stroke="black" x1="250" x2="244" y1="324.0211294796431" y2="324.0211294796431" /><text  class="poloto_text" alignment-baseline="middle" text-anchor="end" x="235" y="324.0211294796431" > -20</text><line  class="poloto_axis_lines" stroke="black" x1="250" x2="244" y1="241.51909914050418" y2="241.51909914050418" /><text  class="poloto_text" alignment-baseline="middle" text-anchor="end" x="235" y="241.51909914050418" > 0</text><line  class="poloto_axis_lines" stroke="black" x1="250" x2="244" y1="159.01706880136533" y2="159.01706880136533" /><text  class="poloto_text" alignment-baseline="middle" text-anchor="end" x="235" y="159.01706880136533" > 20</text><path  stroke="black" fill="none" class="poloto_axis_lines" style="stroke-dasharray:6.8909546074032235;stroke-dashoffset:-76.50099940186774;" d=" M 250 400 L 550 400" /><path  stroke="black" fill="none" class="poloto_axis_lines" style="stroke-dasharray:6.875169194928241;stroke-dashoffset:-75.97887052035692;" d=" M 250 400 L 250 100" /></svg>