<svg class="poloto" width="800" height="500" viewBox="0 0 800 500" xmlns="http://www.w3.org/2000/svg"><style>.poloto {
    font-family: "Arial";
    stroke-width:2;
    }
    .poloto_text{fill: var(--poloto_fg_color,black);  }
    .poloto_axis_lines{stroke: var(--poloto_fg_color,black);stoke-width:3;fill:none}
    .poloto_background{fill: var(--poloto_bg_color,aliceblue); }
    .poloto0stroke{stroke:  var(--poloto_color0,blue); }
    .poloto1stroke{stroke:  var(--poloto_color1,red); }
    .poloto2stroke{stroke:  var(--poloto_color2,green); }
    .poloto3stroke{stroke:  var(--poloto_color3,gold); }
    .poloto4stroke{stroke:  var(--poloto_color4,aqua); }
    .poloto5stroke{stroke:  var(--poloto_color5,brown); }
    .poloto6stroke{stroke:  var(--poloto_color6,lime); }
    .poloto7stroke{stroke:  var(--poloto_color7,chocolate); }
    .poloto0fill{fill:var(--poloto_color0,blue);}
    .poloto1fill{fill:var(--poloto_color1,red);}
    .poloto2fill{fill:var(--poloto_color2,green);}
    .poloto3fill{fill:var(--poloto_color3,gold);}
    .poloto4fill{fill:var(--poloto_color4,aqua);}
    .poloto5fill{fill:var(--poloto_color5,brown);}
    .poloto6fill{fill:var(--poloto_color6,lime);}
    .poloto7fill{fill:var(--poloto_color7,chocolate);}</style><rect class="poloto_background" fill="white" x="0" y="0" width="800" height="500"/><line class="poloto_axis_lines" stroke="black" x1="150.00000000000003" x2="150.00000000000003" y1="400" y2="405"/><text class="poloto_text" alignment-baseline="start" text-anchor="middle" x="150.00000000000003" y="430">0.6</text><line class="poloto_axis_lines" stroke="black" x1="217.34006734006738" x2="217.34006734006738" y1="400" y2="405"/><text class="poloto_text" alignment-baseline="start" text-anchor="middle" x="217.34006734006738" y="430">0.8</text><line class="poloto_axis_lines" stroke="black" x1="284.68013468013476" x2="284.68013468013476" y1="400" y2="405"/><text class="poloto_text" alignment-baseline="start" text-anchor="middle" x="284.68013468013476" y="430">1.0</text><line class="poloto_axis_lines" stroke="black" x1="352.0202020202021" x2="352.0202020202021" y1="400" y2="405"/><text class="poloto_text" alignment-baseline="start" text-anchor="middle" x="352.0202020202021" y="430">1.2</text><line class="poloto_axis_lines" stroke="black" x1="419.36026936026946" x2="419.36026936026946" y1="400" y2="405"/><text class="poloto_text" alignment-baseline="start" text-anchor="middle" x="419.36026936026946" y="430">1.4</text><line class="poloto_axis_lines" stroke="black" x1="486.7003367003367" x2="486.7003367003367" y1="400" y2="405"/><text class="poloto_text" alignment-baseline="start" text-anchor="middle" x="486.7003367003367" y="430">1.6</text><line class="poloto_axis_lines" stroke="black" x1="554.0404040404042" x2="554.0404040404042" y1="400" y2="405"/><text class="poloto_text" alignment-baseline="start" text-anchor="middle" x="554.0404040404042" y="430">1.8</text><line class="poloto_axis_lines" stroke="black" x1="621.3804713804716" x2="621.3804713804716" y1="400" y2="405"/><text class="poloto_text" alignment-baseline="start" text-anchor="middle" x="621.3804713804716" y="430">2.0</text><line class="poloto_axis_lines" stroke="black" x1="150" x2="144" y1="365.9293992209318" y2="365.9293992209318"/><text class="poloto_text" alignment-baseline="middle" text-anchor="end" x="135" y="365.9293992209318">1e5</text><line class="poloto_axis_lines" stroke="black" x1="150" x2="144" y1="305.34867237337113" y2="305.34867237337113"/><text class="poloto_text" alignment-baseline="middle" text-anchor="end" x="135" y="305.34867237337113">2.0e5</text><line class="poloto_axis_lines" stroke="black" x1="150" x2="144" y1="244.76794552581043" y2="244.76794552581043"/><text class="poloto_text" alignment-baseline="middle" text-anchor="end" x="135" y="244.76794552581043">3.0e5</text><line class="poloto_axis_lines" stroke="black" x1="150" x2="144" y1="184.18721867824968" y2="184.18721867824968"/><text class="poloto_text" alignment-baseline="middle" text-anchor="end" x="135" y="184.18721867824968">4.0e5</text><line class="poloto_axis_lines" stroke="black" x1="150" x2="144" y1="123.60649183068898" y2="123.60649183068898"/><text class="poloto_text" alignment-baseline="middle" text-anchor="end" x="135" y="123.60649183068898">5.0e5</text><text class="poloto_text" alignment-baseline="middle" text-anchor="start" font-size="large" x="675" y="100"></text><polyline class="poloto0stroke" fill="none" stroke="black" points="150,100 155.05050505050505,115.52865771283524 160.1010101010101,129.18658258061782 165.15151515151516,141.69710848190755 170.20202020202018,153.5103502171819 175.25252525252523,164.71475564763827 180.30303030303028,175.3406151367004 185.35353535353534,185.88044999363902 190.40404040404042,197.4871114503632 195.45454545454547,208.6079154777699 200.50505050505052,218.2511555773646 205.55555555555554,227.0559584173891 210.60606060606062,235.2585888325488 215.65656565656565,243.18073048240433 220.7070707070707,250.52674941993953 225.75757575757575,256.9155928732833 230.80808080808083,262.69923486541995 235.85858585858585,268.09031374758433 240.90909090909093,273.07913660348095 245.95959595959596,277.8462339991155 251.01010101010098,282.2128927902877 256.0606060606061,286.5310869999818 261.1111111111111,290.5469833827066 266.16161616161617,294.46595060247535 271.21212121212125,298.235889234199 276.26262626262627,301.98038396064675 281.3131313131313,305.68247217830117 286.3636363636364,309.24522472420625 291.41414141414145,312.6583428747978 296.4646464646464,316.02239063664285 301.5151515151515,319.54091925194916 306.5656565656566,323.0903440379478 311.61616161616166,326.8324155353216 316.6666666666667,330.0450114800477 321.7171717171717,333.06677813520406 326.7676767676768,336.0315989071237 331.81818181818187,338.77105937517035 336.86868686868684,341.5395985921039 341.9191919191919,344.32812944889713 346.969696969697,347.1530087417989 352.020202020202,350.13176308089345 357.07070707070704,352.65131551048347 362.1212121212121,354.8855327166215 367.1717171717172,356.91438125874635 372.2222222222222,358.8753793868019 377.27272727272725,360.63524950172354 382.32323232323233,362.3811860494702 387.3737373737374,363.9544675257014 392.4242424242424,365.4780728059175 397.47474747474746,366.94594381743394 402.52525252525254,368.3047695206247 407.5757575757576,369.5854460861821 412.6262626262626,370.8570355427124 417.6767676767677,372.0141274255009 422.72727272727275,373.1076095450993 427.7777777777777,374.18715809752285 432.82828282828285,375.21581883939444 437.87878787878793,376.1596665636794 442.92929292929296,377.13380465138823 447.979797979798,378.0794697974786 453.03030303030306,378.96091937311064 458.0808080808081,379.76300819657234 463.1313131313131,380.54813441651675 468.1818181818182,381.30721092391667 473.23232323232327,382.0620467804373 478.2828282828283,382.7617541755266 483.3333333333333,383.4554034979312 488.3838383838384,384.1660154238531 493.4343434343435,384.8160466229274 498.4848484848484,385.45214425482675 503.5353535353535,386.08339542857834 508.5858585858586,386.6776923589529 513.6363636363637,387.2556324930787 518.6868686868686,387.793589347485 523.7373737373737,388.3491146126771 528.7878787878788,388.91433279416486 533.8383838383838,389.4322980087115 538.8888888888889,389.99145811751447 543.939393939394,390.53910788821645 548.9898989898991,391.07585312808584 554.0404040404039,391.54898860476527 559.090909090909,392.04877960125765 564.1414141414141,392.524338307011 569.1919191919192,393.0065608927176 574.2424242424242,393.4700034531014 579.2929292929293,393.9195124463103 584.3434343434344,394.373867897667 589.3939393939393,394.8215594690705 594.4444444444443,395.28742525852823 599.4949494949495,395.716336804609 604.5454545454545,396.1452483506897 609.5959595959596,396.5923341148247 614.6464646464647,397.0315443844695 619.6969696969697,397.4622733523557 624.7474747474746,397.88815586209404 629.7979797979798,398.30555707007375 634.8484848484849,398.74173830337617 639.8989898989898,399.16519758404064 644.9494949494949,399.58320459928876 650,400 "/><text class="poloto_text" alignment-baseline="start" text-anchor="middle" font-size="x-large" x="400" y="37.5">Number of Intersections with abspiral(20_000,grow)</text><text class="poloto_text" alignment-baseline="start" text-anchor="middle" font-size="x-large" x="400" y="481.25">Grow</text><text class="poloto_text" alignment-baseline="start" text-anchor="middle" font-size="x-large" transform="rotate(-90,37.5,250)" x="37.5" y="250">Number of Intersections</text><path stroke="black" fill="none" class="poloto_axis_lines" d=" M 150 100 L 150 400 L 650 400"/></svg>