<svg class="poloto" width="800" height="500" viewBox="0 0 800 500" xmlns="http://www.w3.org/2000/svg"><circle  r="1e5" class="poloto_background" /><text  class="poloto_text poloto_legend_text" x="675" y="100" ></text><path  class="poloto_scatter poloto0stroke" d=" M 400.92 249.77 h 0 M 396.35 245.59 h 0 M 401.69 258.49 h 0 M 407.46 241.26 h 0 M 388.71 251.92 h 0 M 412.62 257.20 h 0 M 396.98 235.13 h 0 M 393.36 264.30 h 0 M 417.40 243.77 h 0 M 383.73 242.69 h 0 M 409.24 267.49 h 0 M 407.08 230.19 h 0 M 382.34 260.52 h 0 M 422.76 254.56 h 0 M 387.58 230.83 h 0 M 397.84 273.54 h 0 M 419.89 233.82 h 0 M 375.37 248.72 h 0 M 419.57 268.29 h 0 M 399.67 222.83 h 0 M 383.15 271.02 h 0 M 429.09 245.99 h 0 M 377.05 233.19 h 0 M 407.45 278.72 h 0 M 416.03 223.47 h 0 M 371.38 259.17 h 0 M 429.63 263.00 h 0 M 388.48 220.11 h 0 M 389.82 280.58 h 0 M 430.49 234.27 h 0 M 368.08 241.13 h 0 M 419.60 278.75 h 0 M 406.87 215.27 h 0 M 372.76 271.53 h 0 M 436.96 252.75 h 0 M 376.01 222.90 h 0 M 401.10 286.89 h 0 M 426.27 221.89 h 0 M 362.86 253.29 h 0 M 431.77 273.13 h 0 M 393.90 211.27 h 0 M 379.77 283.30 h 0 M 439.69 239.17 h 0 M 364.74 231.24 h 0 M 415.22 288.25 h 0 M 416.61 211.32 h 0 M 362.91 267.74 h 0 M 441.55 262.27 h 0 M 379.20 212.78 h 0 M 391.81 292.12 h 0 M 436.67 224.43 h 0 M 356.97 244.30 h 0 M 429.91 283.75 h 0 M 402.57 204.75 h 0 M 368.93 282.16 h 0 M 446.86 247.43 h 0 M 365.15 220.28 h 0 M 407.39 296.04 h 0 M 427.71 210.96 h 0 M 354.50 260.43 h 0 M 442.72 273.40 h 0 M 385.98 203.80 h 0 M 380.66 294.10 h 0 M 446.24 230.59 h 0 M 354.16 233.24 h 0 M 424.40 293.81 h 0 M 413.53 201.10 h 0 M 358.36 277.37 h 0 M 451.37 258.17 h 0 M 369.18 209.29 h 0 M 396.89 301.38 h 0 M 439.11 214.18 h 0 M 348.30 250.28 h 0 M 440.34 285.10 h 0 M 395.74 196.79 h 0 M 368.66 292.61 h 0 M 454.07 239.86 h 0 M 354.72 221.08 h 0 M 415.66 302.40 h 0 M 425.85 200.72 h 0 M 349.01 269.26 h 0 M 452.72 270.51 h 0 M 376.62 199.25 h 0 M 384.54 303.72 h 0 M 449.82 220.86 h 0 M 344.96 238.06 h 0 M 434.46 296.39 h 0 M 407.80 192.46 h 0 M 356.81 287.61 h 0 M 459.40 251.61 h 0 M 358.82 208.77 h 0 M 404.23 308.70 h 0 M 438.59 203.83 h 0 M 341.73 258.30 h 0 M 450.61 283.55 h 0 M 387.08 191.06 h 0 M 371.23 302.66 h 0 M 458.93 230.68 h 0 M 344.94 224.62 h 0 M 425.30 306.33 h 0 M 421.34 191.34 h 0 M 346.04 279.24 h 0 M 461.64 265.11 h 0 M 366.37 197.28 h 0 M 390.82 312.06 h 0 M 450.79 210.46 h 0 M 337.24 245.13 h 0 M 444.95 296.33 h 0 M 399.98 185.47 h 0 M 357.89 298.04 h 0 M 465.63 243.15 h 0 M 348.49 210.87 h 0 M 413.30 314.08 h 0 M 435.49 193.76 h 0 M 337.23 267.85 h 0 M 460.39 279.49 h 0 M 377.09 187.51 h 0 M 376.24 312.00 h 0 M 461.52 220.39 h 0 M 336.08 230.51 h 0 M 435.84 307.91 h 0 M 414.59 183.09 h 0 M 345.47 289.89 h 0 M 469.26 257.59 h 0 M 355.65 197.74 h 0 M 399.07 318.92 h 0 M 449.30 199.82 h 0 M 331.16 254.01 h 0 M 455.45 293.83 h 0 M 390.51 180.26 h 0 M 361.39 308.26 h 0 M 469.94 233.22 h 0 M 338.59 215.33 h 0 M 423.66 317.43 h 0 M 430.08 184.31 h 0 M 334.86 278.49 h 0 M 469.33 273.20 h 0 M 366.22 186.16 h 0 M 383.39 320.32 h 0 M 461.84 209.42 h 0 M 328.43 238.43 h 0 M 446.86 307.20 h 0 M 405.95 176.21 h 0 M 347.23 300.81 h 0 M 475.33 248.32 h 0 M 344.88 200.52 h 0 M 408.93 324.11 h 0 M 445.50 189.35 h 0 M 326.90 264.32 h 0 M 465.58 289.06 h 0 M 379.78 176.98 h 0 M 367.12 317.92 h 0 M 472.22 222.21 h 0 M 329.46 221.95 h 0 M 434.90 318.67 h 0 M 422.59 175.83 h 0 M 334.67 289.82 h 0 M 477.13 264.94 h 0 M 354.85 187.03 h 0 M 392.39 327.33 h 0 M 459.91 198.17 h 0 M 322.25 248.06 h 0 M 457.95 304.22 h 0 M 395.72 170.94 h 0 M 351.24 311.59 h 0 M 479.65 237.64 h 0 M 334.45 205.52 h 0 M 420.04 327.42 h 0 M 439.52 179.42 h 0 M 324.61 275.71 h 0 M 474.98 282.17 h 0 M 368.16 175.75 h 0 M 374.89 326.65 h 0 M 472.38 210.51 h 0 M 321.43 230.51 h 0 M 446.63 317.74 h 0 M 413.27 168.61 h 0 M 336.69 301.44 h 0 M 483.50 254.98 h 0 M 343.40 190.11 h 0 M 402.95 332.76 h 0 M 455.77 187.03 h 0 M 317.78 259.09 h 0 M 468.73 299.06 h 0 M 384.25 167.50 h 0 M 357.40 321.86 h 0 M 482.05 225.88 h 0 M 324.73 212.61 h 0 M 432.03 328.73 h 0 M 431.52 170.37 h 0 M 324.40 287.79 h 0 M 483.31 273.36 h 0 M 356.03 176.66 h 0 M 384.48 334.15 h 0 M 470.36 198.50 h 0 M 314.79 240.76 h 0 M 458.48 314.63 h 0 M 402.40 162.93 h 0 M 340.89 312.97 h 0 M 488.19 243.61 h 0 M 332.23 195.36 h 0 M 414.77 336.40 h 0 M 449.49 176.38 h 0 M 315.21 271.21 h 0 M 478.83 291.83 h 0 M 371.88 166.05 h 0 M 365.57 331.27 h 0 M 482.37 213.41 h 0 M 316.04 221.62 h 0 M 444.56 327.91 h 0 M 421.70 162.53 h 0 M 326.36 300.21 h 0 M 490.27 262.86 h 0 M 343.77 179.74 h 0 M 395.64 340.13 h 0 M 466.15 186.55 h 0 M 309.81 252.43 h 0 M 470.07 309.35 h 0 M 390.25 159.03 h 0 M 347.24 324.04 h 0 M 491.00 231.15 h 0 M 321.72 202.69 h 0 M 427.51 338.06 h 0 M 441.19 166.56 h 0 M 314.70 284.07 h 0 M 487.92 282.66 h 0 M 358.95 166.71 h 0 M 375.58 339.50 h 0 M 480.54 200.58 h 0 M 308.71 232.35 h 0 M 457.25 324.92 h 0 M 410.30 156.19 h 0 M 330.50 312.59 h 0 M 495.58 250.91 h 0 M 331.75 185.00 h 0 M 408.09 344.35 h 0 M 459.80 175.04 h 0 M 306.71 265.23 h 0 M 481.03 301.97 h 0 M 377.15 157.10 h 0 M 355.61 334.30 h 0 M 491.75 217.91 h 0 M 312.19 211.97 h 0 M 440.84 337.62 h 0 M 431.03 157.90 h 0 M 316.35 297.32 h 0 M 495.67 271.75 h 0 M 345.83 169.55 h 0 M 387.20 346.25 h 0 M 476.51 187.75 h 0 M 303.00 244.55 h 0 M 469.73 319.75 h 0 M 397.56 151.60 h 0 M 336.81 324.57 h 0 M 499.03 237.80 h 0 M 320.32 192.36 h 0 M 421.53 346.61 h 0 M 451.39 164.30 h 0 M 305.66 278.83 h 0 M 491.02 292.62 h 0 M 363.43 157.27 h 0 M 365.88 343.42 h 0 M 490.34 204.25 h 0 M 303.98 223.02 h 0 M 454.40 334.98 h 0 M 419.22 150.71 h 0 M 320.21 310.59 h 0 M 501.81 259.33 h 0 M 332.88 174.59 h 0 M 400.19 351.25 h 0 M 470.30 175.29 h 0 M 299.16 257.95 h 0 M 481.65 312.44 h 0 M 383.80 148.97 h 0 M 345.20 335.79 h 0 M 500.43 223.84 h 0 M 309.83 201.74 h 0 M 435.63 346.75 h 0 M 441.06 154.69 h 0 M 306.78 292.90 h 0 M 499.72 281.47 h 0 M 349.44 159.65 h 0 M 377.83 351.09 h 0 M 486.70 190.52 h 0 M 297.37 235.63 h 0 M 467.82 330.13 h 0 M 406.01 145.25 h 0 M 326.28 323.54 h 0 M 506.09 245.67 h 0 M 320.46 181.79 h 0 M 414.25 354.30 h 0 M 461.97 163.56 h 0 M 297.37 272.23 h 0 M 492.65 303.09 h 0 M 369.33 148.46 h 0 M 355.55 345.92 h 0 M 499.65 209.38 h 0 M 300.61 212.96 h 0 M 450.05 344.68 h 0 M 429.00 146.51 h 0 M 310.16 307.08 h 0 M 506.83 268.71 h 0 M 335.54 164.28 h 0 M 391.24 357.04 h 0 M 480.83 177.08 h 0 M 292.61 249.52 h 0 M 480.75 323.07 h 0 M 391.67 141.75 h 0 M 334.50 335.80 h 0 M 508.32 231.07 h 0 M 308.92 191.08 h 0 M 429.07 355.21 h 0 M 451.64 152.89 h 0 M 297.77 287.09 h 0 M 502.41 291.84 h 0 M 354.50 150.19 h 0 M 367.69 354.65 h 0 M 496.59 194.75 h 0 M 292.96 225.83 h 0 M 464.42 340.32 h 0 M 415.43 140.03 h 0 M 315.79 321.02 h 0 M 512.11 254.61 h 0 M 322.10 171.15 h 0 M 405.82 361.04 h 0 M 472.76 164.29 h 0 M 289.91 264.41 h 0 M 492.83 313.89 h 0 M 376.52 140.38 h 0 M 344.77 347.02 h 0 M 508.33 215.85 h 0 M 298.60 202.32 h 0 M 444.31 353.87 h 0 M 439.47 143.61 h 0 M 300.47 302.15 h 0 M 510.62 278.89 h 0 M 339.66 154.23 h 0 M 381.38 361.67 h 0 M 491.23 180.32 h 0 M 287.15 240.10 h 0 M 478.39 333.70 h 0 M 400.63 135.51 h 0 M 323.67 334.35 h 0 M 515.32 239.46 h 0 M 309.46 180.18 h 0 M 421.28 362.89 h 0 M 462.59 152.50 h 0 M 289.43 279.98 h 0 M 503.73 302.71 h 0 M 360.90 141.29 h 0 M 356.93 356.89 h 0 M 506.04 200.36 h 0 M 289.81 215.31 h 0 M 459.61 350.20 h 0 M 425.68 136.00 h 0 M 305.50 317.07 h 0 M 517.01 264.47 h 0 M 325.18 160.57 h 0 M 396.38 366.76 h 0 M 483.60 166.45 h 0 M 283.39 255.49 h 0 M 491.59 324.86 h 0 M 384.89 133.13 h 0 M 333.69 346.71 h 0 M 516.29 223.56 h 0 M 297.97 191.26 h 0 M 437.28 362.45 h 0 M 450.48 142.03 h 0 M 291.29 295.88 h 0 M 513.13 289.71 h 0 M 345.15 144.56 h 0 M 370.77 365.09 h 0 M 501.37 184.97 h 0 M 282.82 229.83 h 0 M 474.61 344.19 h 0 M 410.53 130.33 h 0 M 312.86 331.47 h 0 M 521.34 248.87 h 0 M 311.41 169.17 h 0 M 412.38 369.69 h 0 M 473.76 153.50 h 0 M 281.88 271.69 h 0 M 503.68 313.92 h 0 M 368.54 133.06 h 0 M 345.71 357.79 h 0 M 514.91 207.27 h 0 M 287.95 204.22 h 0 M 453.46 359.63 h 0 M 436.61 133.20 h 0 M 295.55 311.75 h 0 M 520.74 275.12 h 0 M 329.65 150.20 h 0 M 386.05 371.38 h 0 M 494.34 170.02 h 0 M 277.89 245.61 h 0 M 488.94 335.86 h 0 M 394.30 126.81 h 0 M 322.46 345.01 h 0 M 523.42 232.40 h 0 M 298.71 179.94 h 0 M 429.05 370.30 h 0 M 461.86 141.81 h 0 M 282.74 288.36 h 0 M 514.33 301.03 h 0 M 351.94 135.40 h 0 M 359.56 367.26 h 0 M 511.10 190.94 h 0 M 279.70 218.85 h 0 M 469.46 354.39 h 0 M 421.25 126.29 h 0 M 302.21 327.22 h 0 M 526.30 259.19 h 0 M 314.75 158.21 h 0 M 402.48 375.51 h 0 M 485.01 155.89 h 0 M 275.21 262.34 h 0 M 502.25 325.32 h 0 M 377.33 125.63 h 0 M 334.19 357.34 h 0 M 523.10 215.38 h 0 M 287.41 192.71 h 0 M 446.05 368.48 h 0 M 448.08 131.69 h 0 M 286.07 305.13 h 0 M 523.24 286.40 h 0 M 335.46 140.20 h 0 M 374.98 374.83 h 0 M 504.85 174.95 h 0 M 273.49 234.89 h 0 M 484.91 346.74 h 0 M 404.65 121.51 h 0 M 311.24 341.94 h 0 M 529.61 242.24 h 0 M 300.83 168.50 h 0 M 419.73 377.30 h 0 M 473.48 142.93 h 0 M 274.94 279.68 h 0 M 514.20 312.69 h 0 M 359.95 126.89 h 0 M 347.88 368.12 h 0 M 520.30 198.19 h 0 M 277.84 207.30 h 0 M 463.00 364.17 h 0 M 432.64 123.44 h 0 M 291.88 321.63 h 0 M 530.12 270.29 h 0 M 319.46 147.45 h 0 M 391.71 380.27 h 0 M 496.18 159.65 h 0 M 269.53 252.03 h 0 M 499.45 336.76 h 0 M 387.15 119.08 h 0 M 322.51 355.53 h 0 M 530.49 224.60 h 0 M 288.22 180.93 h 0 M 437.46 376.62 h 0 M 459.93 131.48 h 0 M 277.19 297.28 h 0 M 524.46 298.18 h 0 M 342.54 130.68 h 0 M 363.30 377.06 h 0 M 514.97 181.19 h 0 M 270.26 223.45 h 0 M 479.54 357.35 h 0 M 415.81 117.31 h 0 M 300.16 337.50 h 0 M 534.76 252.99 h 0 M 304.31 157.09 h 0 M 409.43 383.36 h 0 M 485.19 145.42 h 0 M 268.00 269.94 h 0 M 512.71 324.56 h 0 M 369.09 119.14 h 0 M 335.89 367.66 h 0 M 528.83 206.62 h 0 M 277.26 195.32 h 0 M 455.30 373.39 h 0 M 444.57 121.84 h 0 M 282.00 314.76 h 0 M 532.75 282.03 h 0 M 325.48 137.02 h 0 M 380.20 383.89 h 0 M 507.12 164.75 h 0 M 264.92 240.88 h 0 M 495.29 348.09 h 0 M 397.91 113.53 h 0 M 310.82 352.36 h 0 M 536.96 234.83 h 0 M 290.38 169.02 h 0 M 427.79 383.95 h 0 M 472.03 132.61 h 0 M 269.03 288.28 h 0 M 524.37 310.32 h 0 M 350.84 121.79 h 0 M 351.16 378.02 h 0 M 524.58 188.68 h 0 M 268.25 211.44 h 0 M 472.87 367.56 h 0 M 427.65 114.28 h 0 M 289.38 331.74 h 0 M 538.81 264.52 h 0 M 309.14 145.86 h 0 M 398.25 388.38 h 0 M 496.84 149.26 h 0 M 262.02 259.25 h 0 M 509.88 336.48 h 0 M 379.27 112.27 h 0 M 323.72 365.87 h 0 M 536.59 216.16 h 0 M 278.02 183.06 h 0 M 446.43 381.93 h 0 M 456.90 121.53 h 0 M 272.70 306.66 h 0 M 534.12 294.28 h 0 M 332.78 127.06 h 0 M 368.06 386.31 h 0 M 517.71 171.16 h 0 M 261.45 229.01 h 0 M 489.79 359.18 h 0 M 409.48 109.06 h 0 M 299.26 347.85 h 0 M 542.43 245.96 h 0 M 293.90 157.12 h 0 M 417.13 390.35 h 0 M 484.23 135.08 h 0 M 261.71 278.22 h 0 M 522.95 322.68 h 0 M 360.27 113.64 h 0 M 338.67 377.67 h 0 M 533.54 197.36 h 0 M 267.53 198.99 h 0 M 464.96 377.24 h 0 M 440.04 112.49 h 0 M 279.02 324.70 h 0 M 541.67 276.69 h 0 M 315.29 134.95 h 0 M 386.32 392.28 h 0 M 508.28 154.44 h 0 M 257.09 247.71 h 0 M 505.69 348.32 h 0 M 390.39 106.37 h 0 M 311.52 362.72 h 0 M 543.45 226.72 h 0 M 280.11 170.64 h 0 M 436.47 389.66 h 0 M 469.49 122.54 h 0 M 264.10 297.41 h 0 M 534.19 306.90 h 0 M 341.28 117.71 h 0 M 355.45 387.47 h 0 M 527.80 178.82 h 0 M 259.20 216.55 h 0 M 483.01 369.89 h 0 M 421.74 105.75 h 0 M 287.96 342.02 h 0 M 546.80 257.88 h 0 M 298.76 145.38 h 0 M 405.58 395.73 h 0 M 496.39 138.90 h 0 M 255.34 267.19 h 0 M 520.18 335.12 h 0 M 370.74 106.34 h 0 M 326.00 375.98 h 0 M 541.75 207.16 h 0 M 268.12 186.23 h 0 M 455.88 386.25 h 0 M 452.85 111.98 h 0 M 269.23 316.44 h 0 M 543.29 289.40 h 0 M 322.71 124.49 h 0 M 373.75 394.99 h 0 M 519.38 160.92 h 0 M 253.29 235.43 h 0 M 500.16 359.93 h 0 M 402.33 101.53 h 0 M 299.43 358.22 h 0 M 549.31 238.19 h 0 M 283.56 158.22 h 0 M 425.50 396.50 h 0 M 482.21 124.91 h 0 M 256.32 287.09 h 0 M 532.93 319.76 h 0 M 350.93 109.07 h 0 M 342.48 387.32 h 0 M 537.27 187.68 h 0 M 258.23 203.63 h 0 M 474.96 380.07 h 0 M 434.58 103.66 h 0 M 277.08 334.90 h 0 M 550.00 270.48 h 0 M 304.94 133.93 h 0 M 393.27 400.00 h 0 M 508.37 144.07 h 0 M 250.00 255.30 h 0 M 516.05 347.49 h 0 M 382.17 100.00 h 0 M 313.28 372.94 h 0 M 549.07 217.99 h 0 M 270.06 173.30 h 0 M 445.68 394.47 h 0" /><text  class="poloto_labels poloto_text poloto_title" x="400" y="37.5" >abspiral(600,1.5)</text><text  class="poloto_labels poloto_text poloto_xname" x="400" y="481.25" >x</text><text  class="poloto_labels poloto_text poloto_yname" transform="rotate(-90,37.5,250)" x="37.5" y="250" >y</text><text  class="poloto_tick_labels poloto_text" dominant-baseline="middle" text-anchor="start" x="150" y="70" ></text><line  class="poloto_axis_lines" stroke="black" x1="250" x2="244" y1="365.2721446492125" y2="365.2721446492125" /><text  class="poloto_tick_labels poloto_text" dominant-baseline="middle" text-anchor="end" x="235" y="365.2721446492125" >-30</text><line  class="poloto_axis_lines" stroke="black" x1="250" x2="244" y1="324.0211294796431" y2="324.0211294796431" /><text  class="poloto_tick_labels poloto_text" dominant-baseline="middle" text-anchor="end" x="235" y="324.0211294796431" >-20</text><line  class="poloto_axis_lines" stroke="black" x1="250" x2="244" y1="282.7701143100736" y2="282.7701143100736" /><text  class="poloto_tick_labels poloto_text" dominant-baseline="middle" text-anchor="end" x="235" y="282.7701143100736" >-10</text><line  class="poloto_axis_lines" stroke="black" x1="250" x2="244" y1="241.51909914050418" y2="241.51909914050418" /><text  class="poloto_tick_labels poloto_text" dominant-baseline="middle" text-anchor="end" x="235" y="241.51909914050418" >0</text><line  class="poloto_axis_lines" stroke="black" x1="250" x2="244" y1="200.26808397093475" y2="200.26808397093475" /><text  class="poloto_tick_labels poloto_text" dominant-baseline="middle" text-anchor="end" x="235" y="200.26808397093475" >10</text><line  class="poloto_axis_lines" stroke="black" x1="250" x2="244" y1="159.01706880136527" y2="159.01706880136527" /><text  class="poloto_tick_labels poloto_text" dominant-baseline="middle" text-anchor="end" x="235" y="159.01706880136527" >20</text><line  class="poloto_axis_lines" stroke="black" x1="250" x2="244" y1="117.76605363179584" y2="117.76605363179584" /><text  class="poloto_tick_labels poloto_text" dominant-baseline="middle" text-anchor="end" x="235" y="117.76605363179584" >30</text><text  class="poloto_tick_labels poloto_text" dominant-baseline="middle" text-anchor="start" x="440.00000000000006" y="70" ></text><line  class="poloto_axis_lines" stroke="black" x1="326.5009994018677" x2="326.5009994018677" y1="400" y2="405" /><text  class="poloto_tick_labels poloto_text" dominant-baseline="start" text-anchor="middle" x="326.5009994018677" y="430" >-20</text><line  class="poloto_axis_lines" stroke="black" x1="409.1924546907064" x2="409.1924546907064" y1="400" y2="405" /><text  class="poloto_tick_labels poloto_text" dominant-baseline="start" text-anchor="middle" x="409.1924546907064" y="430" >0</text><line  class="poloto_axis_lines" stroke="black" x1="491.88390997954514" x2="491.88390997954514" y1="400" y2="405" /><text  class="poloto_tick_labels poloto_text" dominant-baseline="start" text-anchor="middle" x="491.88390997954514" y="430" >20</text><path  stroke="black" fill="none" class="poloto_axis_lines" style="stroke-dasharray:10.336431911104835;stroke-dashoffset:-76.50099940186774;" d=" M 250 400 L 550 400" /><path  stroke="black" fill="none" class="poloto_axis_lines" style="stroke-dasharray:10.312753792392362;stroke-dashoffset:-34.72785535078748;" d=" M 250 400 L 250 100" /></svg>