<svg  width="800" class="poloto_background poloto" height="500" viewBox="0 0 800 500" xmlns="http://www.w3.org/2000/svg" ><text  class="poloto_text" alignment-baseline="middle" text-anchor="start" font-size="large" x="675" y="100" >default_par</text><line  class="poloto0stroke poloto0legend" stroke="black" x1="680" x2="730" y1="81.25" y2="81.25" /><path  class="poloto0stroke" fill="none" stroke="black" d=" M 650 311.90878580641186 L 644.9494949494949 325.6629724154211 L 639.8989898989898 323.91853774020615 L 634.8484848484848 258.67851119222996 L 629.7979797979798 340.16882425992384 L 624.7474747474747 346.4754653593385 L 619.6969696969697 347.51198251117853 L 614.6464646464647 346.68188784848496 L 609.5959595959596 345.3817725563717 L 604.5454545454545 346.8906196010277 L 599.4949494949494 349.07672228285224 L 594.4444444444445 350.63581718844614 L 589.3939393939394 347.51211080358945 L 584.3434343434344 343.7279550873928 L 579.2929292929293 348.6584034950274 L 574.2424242424242 338.03403854246136 L 569.1919191919192 350.85523997523103 L 564.1414141414141 351.5395516949993 L 559.090909090909 355.74164132178817 L 554.040404040404 350.14009531270847 L 548.989898989899 355.79265893719145 L 543.939393939394 354.762128764527 L 538.8888888888889 351.3185038710097 L 533.8383838383838 356.2534852771629 L 528.7878787878788 356.3877219031067 L 523.7373737373737 349.56637165114046 L 518.6868686868687 353.58470378137605 L 513.6363636363636 353.69135753897524 L 508.5858585858586 353.0361681964824 L 503.5353535353535 355.6860907078662 L 498.4848484848485 357.6276680545054 L 493.4343434343434 359.18432540429217 L 488.3838383838384 358.7687862853702 L 483.3333333333333 357.16769699727337 L 478.2828282828283 360.3728262989179 L 473.2323232323232 358.0624082709262 L 468.1818181818182 358.1551209198737 L 463.1313131313131 362.0476409591483 L 458.0808080808081 366.05070629248615 L 453.030303030303 363.98220498732474 L 447.979797979798 364.5857780164967 L 442.9292929292929 359.685221740603 L 437.8787878787879 367.4608964731561 L 432.8282828282828 364.57923510354055 L 427.77777777777777 367.11279639823334 L 422.72727272727275 368.9127816873702 L 417.67676767676767 364.67588205308914 L 412.62626262626264 366.3738321114194 L 407.57575757575756 370.34555133235943 L 402.52525252525254 368.82545731968077 L 397.47474747474746 367.07717387213864 L 392.4242424242424 372.0895156020677 L 387.37373737373736 372.327369731886 L 382.32323232323233 373.6298370515325 L 377.27272727272725 372.8163776381196 L 372.22222222222223 371.41448370002155 L 367.1717171717172 375.44928002299 L 362.1212121212121 374.1278254265295 L 357.07070707070704 374.99627952008376 L 352.020202020202 374.49114953421304 L 346.969696969697 372.1074337754575 L 341.9191919191919 379.08867913554866 L 336.86868686868684 370.87424435769975 L 331.8181818181818 378.16997718105654 L 326.7676767676768 373.88513894923386 L 321.7171717171717 382.4798324330057 L 316.66666666666663 381.08589262438375 L 311.6161616161616 380.68318274655235 L 306.5656565656566 374.925633165812 L 301.5151515151515 380.76426355024444 L 296.4646464646464 381.9696990431097 L 291.4141414141414 381.9058094224789 L 286.3636363636364 384.432186342161 L 281.3131313131313 383.1658547182528 L 276.26262626262627 385.04418390631577 L 271.2121212121212 383.3516648933805 L 266.16161616161617 385.9923503511791 L 261.1111111111111 387.9224669091108 L 256.06060606060606 386.76826285233375 L 251.010101010101 388.2783928210988 L 245.95959595959596 387.84626121703315 L 240.9090909090909 388.6619871297053 L 235.85858585858585 389.6912771423977 L 230.8080808080808 389.3151665577607 L 225.75757575757575 391.5276547120947 L 220.7070707070707 391.14115244217436 L 215.65656565656565 391.6781417100865 L 210.6060606060606 393.09025627692 L 205.55555555555554 392.53475013770054 L 200.50505050505052 392.70170132842514 L 195.45454545454544 392.08273320994454 L 190.40404040404042 392.15517565796904 L 185.35353535353534 391.50067054166766 L 180.3030303030303 395.4464746956049 L 175.25252525252526 396.5390128668735 L 170.2020202020202 397.2139164765088 L 165.15151515151516 398.1766227279414 L 160.1010101010101 398.8669214268853 L 155.05050505050505 399.4657048727168 L 150 399.99952959449337" /><text  class="poloto_text" alignment-baseline="middle" text-anchor="start" font-size="large" x="675" y="150" >default_seq</text><line  class="poloto1stroke poloto1legend" stroke="black" x1="680" x2="730" y1="131.25" y2="131.25" /><path  class="poloto1stroke" fill="none" stroke="black" d=" M 650 257.51340228052595 L 644.9494949494949 273.2688222072453 L 639.8989898989898 290.36583863893725 L 634.8484848484848 271.7579652481518 L 629.7979797979798 294.17176130085085 L 624.7474747474747 293.1981501944913 L 619.6969696969697 295.7447117868225 L 614.6464646464647 298.2696347258477 L 609.5959595959596 299.65459406570625 L 604.5454545454545 298.34233375869394 L 599.4949494949494 302.9667620021827 L 594.4444444444445 301.5604205938399 L 589.3939393939394 304.6577415061871 L 584.3434343434344 303.82845936209594 L 579.2929292929293 307.96828440545875 L 574.2424242424242 307.532175736655 L 569.1919191919192 308.9240201025655 L 564.1414141414141 307.4124361531435 L 559.090909090909 311.6418948275921 L 554.040404040404 313.11122780968935 L 548.989898989899 312.2186975070219 L 543.939393939394 314.25546782255276 L 538.8888888888889 315.8447542088463 L 533.8383838383838 316.1376885470799 L 528.7878787878788 318.08221661916997 L 523.7373737373737 317.52880592266195 L 518.6868686868687 317.82255277949787 L 513.6363636363636 319.0272612820346 L 508.5858585858586 319.7332544192459 L 503.5353535353535 322.44604021197324 L 498.4848484848485 321.83049322445015 L 493.4343434343434 323.2965761321378 L 488.3838383838384 326.73143437757653 L 483.3333333333333 325.5734243126093 L 478.2828282828283 328.67408082764 L 473.2323232323232 330.3333293420139 L 468.1818181818182 330.08546840414505 L 463.1313131313131 332.403583976791 L 458.0808080808081 330.774313122432 L 453.030303030303 333.4783750312178 L 447.979797979798 335.1997170724698 L 442.9292929292929 336.86529467911504 L 437.8787878787879 337.2470501298319 L 432.8282828282828 338.20783199510095 L 427.77777777777777 339.6101108104317 L 422.72727272727275 344.3746343666289 L 417.67676767676767 345.73645830838757 L 412.62626262626264 346.3171097601445 L 407.57575757575756 348.2909740301949 L 402.52525252525254 348.2866120882241 L 397.47474747474746 349.6403963722327 L 392.4242424242424 349.3598208695831 L 387.37373737373736 352.1161833178812 L 382.32323232323233 352.92220177146163 L 377.27272727272725 353.6419649607767 L 372.22222222222223 354.97368295010966 L 367.1717171717172 356.29017690668184 L 362.1212121212121 356.7995405421124 L 357.07070707070704 357.96597514206246 L 352.020202020202 359.3653887602164 L 346.969696969697 360.8556761694281 L 341.9191919191919 360.7090807079004 L 336.86868686868684 357.65982668550566 L 331.8181818181818 361.4412027327994 L 326.7676767676768 363.6548455188316 L 321.7171717171717 365.3340221210328 L 316.66666666666663 367.2596484445828 L 311.6161616161616 367.3908060526649 L 306.5656565656566 366.62857807534016 L 301.5151515151515 369.89220871635746 L 296.4646464646464 371.05979794800567 L 291.4141414141414 371.3279718509345 L 286.3636363636364 375.2095015070082 L 281.3131313131313 375.9398274381545 L 276.26262626262627 377.13431531195585 L 271.2121212121212 377.60386553586886 L 266.16161616161617 379.18126349208524 L 261.1111111111111 380.50186280580635 L 256.06060606060606 381.01528903424895 L 251.010101010101 382.26661044608124 L 245.95959595959596 382.12373546446986 L 240.9090909090909 383.25749826377603 L 235.85858585858585 383.75390436570524 L 230.8080808080808 384.98931751858527 L 225.75757575757575 387.09378346293715 L 220.7070707070707 387.09587890564865 L 215.65656565656565 389.0200084844048 L 210.6060606060606 390.0366830766915 L 205.55555555555554 390.50730240402874 L 200.50505050505052 391.15278428742977 L 195.45454545454544 392.0414230536331 L 190.40404040404042 393.1940876014793 L 185.35353535353534 394.2617798091693 L 180.3030303030303 395.40606258616975 L 175.25252525252526 396.2468910472424 L 170.2020202020202 397.0470935781951 L 165.15151515151516 398.01317819644817 L 160.1010101010101 398.7797253516067 L 155.05050505050505 399.41883537859945 L 150 399.9995723586303" /><text  class="poloto_text" alignment-baseline="middle" text-anchor="start" font-size="large" x="675" y="200" >direct_par</text><line  class="poloto2stroke poloto2legend" stroke="black" x1="680" x2="730" y1="181.25" y2="181.25" /><path  class="poloto2stroke" fill="none" stroke="black" d=" M 650 309.9974854687463 L 644.9494949494949 285.59605509389297 L 639.8989898989898 278.6517151840055 L 634.8484848484848 308.8080009989703 L 629.7979797979798 118.8635601657196 L 624.7474747474747 331.3311449498975 L 619.6969696969697 341.0006294880962 L 614.6464646464647 333.97242910561374 L 609.5959595959596 342.2654643672105 L 604.5454545454545 346.3560678889227 L 599.4949494949494 343.206617493611 L 594.4444444444445 345.4186780065754 L 589.3939393939394 344.94887119784056 L 584.3434343434344 343.43326741954354 L 579.2929292929293 346.7978641879433 L 574.2424242424242 346.577671646693 L 569.1919191919192 346.9758912901427 L 564.1414141414141 343.73907376300457 L 559.090909090909 350.2928488099596 L 554.040404040404 348.17055022049186 L 548.989898989899 346.0699330484672 L 543.939393939394 355.34825402581583 L 538.8888888888889 342.27093817674245 L 533.8383838383838 352.023085791701 L 528.7878787878788 360.2894789959665 L 523.7373737373737 351.9052278302161 L 518.6868686868687 346.924103920274 L 513.6363636363636 350.9645023451853 L 508.5858585858586 351.6676302852197 L 503.5353535353535 353.05695156704905 L 498.4848484848485 352.73758899216904 L 493.4343434343434 348.02566532444297 L 488.3838383838384 351.69957509553507 L 483.3333333333333 353.1860564965566 L 478.2828282828283 357.14682809843276 L 473.2323232323232 355.35774766422287 L 468.1818181818182 352.5924475112983 L 463.1313131313131 359.0984550172596 L 458.0808080808081 358.86979517688957 L 453.030303030303 359.93141487713007 L 447.979797979798 362.5759063431189 L 442.9292929292929 363.0812501496745 L 437.8787878787879 352.0769686042812 L 432.8282828282828 362.15023212373546 L 427.77777777777777 364.80528633155546 L 422.72727272727275 364.40334620818953 L 417.67676767676767 362.07582252541044 L 412.62626262626264 365.8962849938933 L 407.57575757575756 366.8837089164936 L 402.52525252525254 369.5196475550888 L 397.47474747474746 364.13765262520485 L 392.4242424242424 365.34633819247966 L 387.37373737373736 368.52486820092986 L 382.32323232323233 371.55115788177255 L 377.27272727272725 366.99002056099704 L 372.22222222222223 371.4510898012665 L 367.1717171717172 371.34208401613404 L 362.1212121212121 371.309711564449 L 357.07070707070704 372.2914478568325 L 352.020202020202 370.794147129158 L 346.969696969697 372.2679275814999 L 341.9191919191919 375.65843941690247 L 336.86868686868684 373.53502895987356 L 331.8181818181818 359.526866141409 L 326.7676767676768 373.1659316936993 L 321.7171717171717 360.9456091494726 L 316.66666666666663 382.72469988128677 L 311.6161616161616 378.99391380802666 L 306.5656565656566 332.6351517784749 L 301.5151515151515 376.1172558424364 L 296.4646464646464 381.012509365346 L 291.4141414141414 381.32421715970867 L 286.3636363636364 383.2514257563265 L 281.3131313131313 383.64733613638 L 276.26262626262627 385.0230584226534 L 271.2121212121212 385.872054833887 L 266.16161616161617 385.0458944717945 L 261.1111111111111 386.1063595403368 L 256.06060606060606 387.3668752416174 L 251.010101010101 387.33001255555064 L 245.95959595959596 383.7476608017078 L 240.9090909090909 388.6004067724708 L 235.85858585858585 389.00324494271314 L 230.8080808080808 389.5782087642533 L 225.75757575757575 391.12148093916886 L 220.7070707070707 391.0246629330724 L 215.65656565656565 390.79420699894973 L 210.6060606060606 392.0934670083236 L 205.55555555555554 392.9150088436235 L 200.50505050505052 392.55082945320066 L 195.45454545454544 393.0089616525431 L 190.40404040404042 392.24262831806936 L 185.35353535353534 394.0967102404713 L 180.3030303030303 395.4996732819936 L 175.25252525252526 396.48799525147024 L 170.2020202020202 397.08776227245204 L 165.15151515151516 398.05718249338867 L 160.1010101010101 398.79229800787544 L 155.05050505050505 399.4450497945611 L 150 399.99940130208245" /><text  class="poloto_text" alignment-baseline="middle" text-anchor="start" font-size="large" x="675" y="250" >direct_seq</text><line  class="poloto3stroke poloto3legend" stroke="black" x1="680" x2="730" y1="231.25" y2="231.25" /><path  class="poloto3stroke" fill="none" stroke="black" d=" M 650 278.82153157190703 L 644.9494949494949 253.53980143755922 L 639.8989898989898 281.52845867786976 L 634.8484848484848 287.3382232698485 L 629.7979797979798 258.1179588848482 L 624.7474747474747 286.0781352099377 L 619.6969696969697 290.3589963770223 L 614.6464646464647 290.1500508037947 L 609.5959595959596 291.4313926397789 L 604.5454545454545 292.045528410782 L 599.4949494949494 296.4894919962641 L 594.4444444444445 294.57220467942295 L 589.3939393939394 298.2170776015135 L 584.3434343434344 295.83032558903324 L 579.2929292929293 301.8739672460922 L 574.2424242424242 301.8854707989367 L 569.1919191919192 302.6467152011112 L 564.1414141414141 301.80229455253317 L 559.090909090909 305.18669111634927 L 554.040404040404 306.3090358910849 L 548.989898989899 306.8614202483057 L 543.939393939394 309.12599512146727 L 538.8888888888889 309.31364415448456 L 533.8383838383838 309.70497877188245 L 528.7878787878788 311.5674852292671 L 523.7373737373737 311.55213290409546 L 518.6868686868687 313.50914810418027 L 513.6363636363636 313.80879641191785 L 508.5858585858586 314.1450508209004 L 503.5353535353535 318.3699764968303 L 498.4848484848485 317.3091265510552 L 493.4343434343434 319.72440224289346 L 488.3838383838384 322.4299181323362 L 483.3333333333333 321.763011416314 L 478.2828282828283 323.57565488999353 L 473.2323232323232 325.46886599772154 L 468.1818181818182 324.44847092551856 L 463.1313131313131 327.87028610918196 L 458.0808080808081 326.7803565502684 L 453.030303030303 329.8958094566902 L 447.979797979798 330.8131429587993 L 442.9292929292929 332.12322229482623 L 437.8787878787879 334.0716846675174 L 432.8282828282828 333.28426861351824 L 427.77777777777777 333.0831916414928 L 422.72727272727275 340.1270864622427 L 417.67676767676767 341.9159103116308 L 412.62626262626264 343.6651773343232 L 407.57575757575756 344.5830240060759 L 402.52525252525254 345.32168894393106 L 397.47474747474746 346.8062031946521 L 392.4242424242424 345.99967157142805 L 387.37373737373736 349.788916219924 L 382.32323232323233 349.8622139506878 L 377.27272727272725 351.7472998723918 L 372.22222222222223 351.579236814106 L 367.1717171717172 353.5602426950301 L 362.1212121212121 353.90338213006453 L 357.07070707070704 355.21974779422584 L 352.020202020202 356.8916117290054 L 346.969696969697 358.46451945084004 L 341.9191919191919 358.00429180878615 L 336.86868686868684 358.9164508503221 L 331.8181818181818 352.97599905576783 L 326.7676767676768 360.9201217238395 L 321.7171717171717 364.0598646600593 L 316.66666666666663 364.26983657257415 L 311.6161616161616 365.68062545116163 L 306.5656565656566 367.03765980957985 L 301.5151515151515 367.4130006397515 L 296.4646464646464 369.5096835111751 L 291.4141414141414 370.30141874300807 L 286.3636363636364 373.74239226003334 L 281.3131313131313 374.4869158846532 L 276.26262626262627 375.8127324230844 L 271.2121212121212 376.84428893503616 L 266.16161616161617 377.9157016226424 L 261.1111111111111 379.54565670319295 L 256.06060606060606 379.67266618998906 L 251.010101010101 380.99078518376604 L 245.95959595959596 381.5691273721267 L 240.9090909090909 382.2952624178501 L 235.85858585858585 383.0100222031399 L 230.8080808080808 384.51155658037436 L 225.75757575757575 386.1371497189541 L 220.7070707070707 386.15682122195955 L 215.65656565656565 388.1999206297618 L 210.6060606060606 389.40249092545014 L 205.55555555555554 390.359381254255 L 200.50505050505052 390.64247984098586 L 195.45454545454544 391.61502184392117 L 190.40404040404042 392.92835125435766 L 185.35353535353534 393.8881495444764 L 180.3030303030303 395.14793825542847 L 175.25252525252526 396.1712412889453 L 170.2020202020202 396.9793979493741 L 165.15151515151516 397.8656419239072 L 160.1010101010101 398.69731885966866 L 155.05050505050505 399.349044307067 L 150 399.9987598400279" /><text  class="poloto_text" alignment-baseline="middle" text-anchor="start" font-size="large" x="675" y="300" >indirect_par</text><line  class="poloto4stroke poloto4legend" stroke="black" x1="680" x2="730" y1="281.25" y2="281.25" /><path  class="poloto4stroke" fill="none" stroke="black" d=" M 650 234.886897410546 L 644.9494949494949 225.1290621653706 L 639.8989898989898 256.97731105949003 L 634.8484848484848 255.3547114104981 L 629.7979797979798 276.43627630422066 L 624.7474747474747 292.51995374630945 L 619.6969696969697 304.26649241706326 L 614.6464646464647 212.6074235120646 L 609.5959595959596 294.990224118289 L 604.5454545454545 299.196162517405 L 599.4949494949494 306.83272551239986 L 594.4444444444445 295.82634852429516 L 589.3939393939394 312.58488681188226 L 584.3434343434344 302.4366149961854 L 579.2929292929293 307.476796179281 L 574.2424242424242 305.95537647835624 L 569.1919191919192 313.92682542995067 L 564.1414141414141 316.141580083544 L 559.090909090909 320.98051323806624 L 554.040404040404 314.868192377036 L 548.989898989899 314.1258924875385 L 543.939393939394 322.0212212753292 L 538.8888888888889 312.5720148066548 L 533.8383838383838 326.7868566990876 L 528.7878787878788 328.08444890711974 L 523.7373737373737 312.2037728232199 L 518.6868686868687 315.8016051946453 L 513.6363636363636 316.2572143099066 L 508.5858585858586 327.6213988320259 L 503.5353535353535 321.2822997526522 L 498.4848484848485 330.1546607777599 L 493.4343434343434 322.15361904338334 L 488.3838383838384 326.55246646436376 L 483.3333333333333 328.27154200635647 L 478.2828282828283 338.33569676463645 L 473.2323232323232 333.57562067868395 L 468.1818181818182 339.6605724920544 L 463.1313131313131 336.93444428859294 L 458.0808080808081 338.37533911960617 L 453.030303030303 341.28539587616876 L 447.979797979798 348.2148111022542 L 442.9292929292929 341.27440549296784 L 437.8787878787879 343.99878036681366 L 432.8282828282828 348.6186328476468 L 427.77777777777777 341.70786278527953 L 422.72727272727275 345.6714568201956 L 417.67676767676767 347.55970728803527 L 412.62626262626264 353.7884321298935 L 407.57575757575756 349.2160906052323 L 402.52525252525254 353.75345106585337 L 397.47474747474746 351.3482249462027 L 392.4242424242424 352.27411127570554 L 387.37373737373736 352.9556005624339 L 382.32323232323233 359.3029531202425 L 377.27272727272725 355.4530689255254 L 372.22222222222223 359.2500538828126 L 367.1717171717172 358.8926312260307 L 362.1212121212121 359.0718129599283 L 357.07070707070704 360.42850520525076 L 352.020202020202 358.4164097967506 L 346.969696969697 362.3317658851663 L 341.9191919191919 363.67579994594615 L 336.86868686868684 360.4845689888163 L 331.8181818181818 311.7585553932419 L 326.7676767676768 363.14513977030526 L 321.7171717171717 375.8147851016589 L 316.66666666666663 370.57536580442763 L 311.6161616161616 372.55936517493956 L 306.5656565656566 359.99611701636326 L 301.5151515151515 365.58333703955856 L 296.4646464646464 376.573848532848 L 291.4141414141414 374.92114293143027 L 286.3636363636364 377.68926551739474 L 281.3131313131313 371.68338459327884 L 276.26262626262627 375.8179068836576 L 271.2121212121212 379.0835474391124 L 266.16161616161617 374.48511979090046 L 261.1111111111111 380.3292667490019 L 256.06060606060606 377.6986308633908 L 251.010101010101 383.50009921279775 L 245.95959595959596 384.70361031949943 L 240.9090909090909 386.42623528486047 L 235.85858585858585 386.08129975607335 L 230.8080808080808 387.76988446840755 L 225.75757575757575 387.1136687866275 L 220.7070707070707 388.1867920397125 L 215.65656565656565 388.412159041536 L 210.6060606060606 389.7199291141666 L 205.55555555555554 389.9165158518103 L 200.50505050505052 390.60484740045365 L 195.45454545454544 390.7152216379691 L 190.40404040404042 391.6746778149921 L 185.35353535353534 392.4235206174457 L 180.3030303030303 394.53132216448114 L 175.25252525252526 395.8561978918991 L 170.2020202020202 396.6318965723689 L 165.15151515151516 397.83857222520624 L 160.1010101010101 398.6851738447696 L 155.05050505050505 399.39608485773226 L 150 399.999957235863" /><text  class="poloto_text" alignment-baseline="middle" text-anchor="start" font-size="large" x="675" y="350" >indirect_seq</text><line  class="poloto5stroke poloto5legend" stroke="black" x1="680" x2="730" y1="331.25" y2="331.25" /><path  class="poloto5stroke" fill="none" stroke="black" d=" M 650 164.2230953708677 L 644.9494949494949 167.15808361928285 L 639.8989898989898 212.98361962497563 L 634.8484848484848 227.79707390669208 L 629.7979797979798 100 L 624.7474747474747 225.0210827195254 L 619.6969696969697 229.30840127129227 L 614.6464646464647 229.11314022189455 L 609.5959595959596 234.63758249202021 L 604.5454545454545 236.06573361021688 L 599.4949494949494 239.27988614476175 L 594.4444444444445 238.1377843387467 L 589.3939393939394 243.7415968470857 L 584.3434343434344 241.13170156790434 L 579.2929292929293 251.44889172462635 L 574.2424242424242 251.9565447945782 L 569.1919191919192 253.34479697298335 L 564.1414141414141 248.75560637835656 L 559.090909090909 258.3026144282777 L 554.040404040404 261.7404233991673 L 548.989898989899 256.675610073178 L 543.939393939394 263.6479604927797 L 538.8888888888889 266.88319574685 L 533.8383838383838 266.18977526590743 L 528.7878787878788 269.5479146496249 L 523.7373737373737 267.23621369752414 L 518.6868686868687 271.9994115654753 L 513.6363636363636 270.3038562988153 L 508.5858585858586 273.8369010027335 L 503.5353535353535 279.726891115665 L 498.4848484848485 276.6383796155333 L 493.4343434343434 284.0441017991728 L 488.3838383838384 286.03015384825915 L 483.3333333333333 285.01454835939666 L 478.2828282828283 290.44195880274106 L 473.2323232323232 286.05179250156516 L 468.1818181818182 288.8588304521709 L 463.1313131313131 294.76960393566907 L 458.0808080808081 290.95089479680195 L 453.030303030303 297.55774013773475 L 447.979797979798 299.1828201066709 L 442.9292929292929 300.72459553679255 L 437.8787878787879 303.7290755077814 L 432.8282828282828 304.4120187751667 L 427.77777777777777 306.3828895556293 L 422.72727272727275 311.965448287895 L 417.67676767676767 314.7899340063839 L 412.62626262626264 317.2049103492633 L 407.57575757575756 319.08473628212016 L 402.52525252525254 320.80441052203037 L 397.47474747474746 323.47349136677605 L 392.4242424242424 322.204209017417 L 387.37373737373736 326.6249944406622 L 382.32323232323233 327.01171053126745 L 377.27272727272725 330.3433361500645 L 372.22222222222223 329.67027139831885 L 367.1717171717172 334.6032001258976 L 362.1212121212121 334.4652857841745 L 357.07070707070704 335.85114317090944 L 352.020202020202 338.92434511000647 L 346.969696969697 342.51751619050225 L 341.9191919191919 341.1955911885351 L 336.86868686868684 342.05091669204006 L 331.8181818181818 333.3592341456239 L 326.7676767676768 344.0731472010017 L 321.7171717171717 349.21108720120696 L 316.66666666666663 351.1395787219339 L 311.6161616161616 352.5526340997807 L 306.5656565656566 347.6963387056493 L 301.5151515151515 356.0361579330895 L 296.4646464646464 357.885407508014 L 291.4141414141414 359.50270440402187 L 286.3636363636364 363.46599908997916 L 281.3131313131313 363.68037570860173 L 276.26262626262627 366.9448616323584 L 271.2121212121212 367.5784550856822 L 266.16161616161617 368.8107464565636 L 261.1111111111111 371.637156561216 L 256.06060606060606 372.51185421876767 L 251.010101010101 374.46608974994956 L 245.95959595959596 374.56431897256596 L 240.9090909090909 376.47976743151753 L 235.85858585858585 377.7694482742105 L 230.8080808080808 379.9577319270204 L 225.75757575757575 381.460420935953 L 220.7070707070707 382.39558708317793 L 215.65656565656565 385.0302000335271 L 210.6060606060606 386.1344128141881 L 205.55555555555554 387.41468554674805 L 200.50505050505052 388.11866876952183 L 195.45454545454544 389.3190580942248 L 190.40404040404042 391.1289218990014 L 185.35353535353534 392.5820045090506 L 180.3030303030303 393.86116537404934 L 175.25252525252526 395.31634342681 L 170.2020202020202 396.42478985703093 L 165.15151515151516 397.56813182301806 L 160.1010101010101 398.53507172401055 L 155.05050505050505 399.30504001012656 L 150 400" /><text  class="poloto_text" alignment-baseline="start" text-anchor="middle" font-size="x-large" x="400" y="37.5" >Bench of rebal:16_bytes with abspiral(num,1.5)</text><text  class="poloto_text" alignment-baseline="start" text-anchor="middle" font-size="x-large" x="400" y="481.25" >Number of Elements</text><text  class="poloto_text" alignment-baseline="start" text-anchor="middle" font-size="x-large" transform="rotate(-90,37.5,250)" x="37.5" y="250" >Time in Seconds</text><line  class="poloto_axis_lines" stroke="black" x1="150" x2="150" y1="400" y2="405" /><text  class="poloto_text" alignment-baseline="start" text-anchor="middle" x="150" y="430" > 0</text><line  class="poloto_axis_lines" stroke="black" x1="234.17508417508418" x2="234.17508417508418" y1="400" y2="405" /><text  class="poloto_text" alignment-baseline="start" text-anchor="middle" x="234.17508417508418" y="430" > 5000</text><line  class="poloto_axis_lines" stroke="black" x1="318.35016835016836" x2="318.35016835016836" y1="400" y2="405" /><text  class="poloto_text" alignment-baseline="start" text-anchor="middle" x="318.35016835016836" y="430" > 10000</text><line  class="poloto_axis_lines" stroke="black" x1="402.52525252525254" x2="402.52525252525254" y1="400" y2="405" /><text  class="poloto_text" alignment-baseline="start" text-anchor="middle" x="402.52525252525254" y="430" > 15000</text><line  class="poloto_axis_lines" stroke="black" x1="486.7003367003367" x2="486.7003367003367" y1="400" y2="405" /><text  class="poloto_text" alignment-baseline="start" text-anchor="middle" x="486.7003367003367" y="430" > 20000</text><line  class="poloto_axis_lines" stroke="black" x1="570.8754208754208" x2="570.8754208754208" y1="400" y2="405" /><text  class="poloto_text" alignment-baseline="start" text-anchor="middle" x="570.8754208754208" y="430" > 25000</text><line  class="poloto_axis_lines" stroke="black" x1="150" x2="144" y1="314.4750616658855" y2="314.4750616658855" /><text  class="poloto_text" alignment-baseline="middle" text-anchor="end" x="135" y="314.4750616658855" > 0.002</text><line  class="poloto_axis_lines" stroke="black" x1="150" x2="144" y1="228.94678772908753" y2="228.94678772908753" /><text  class="poloto_text" alignment-baseline="middle" text-anchor="end" x="135" y="228.94678772908753" > 0.004</text><line  class="poloto_axis_lines" stroke="black" x1="150" x2="144" y1="143.4185137922895" y2="143.4185137922895" /><text  class="poloto_text" alignment-baseline="middle" text-anchor="end" x="135" y="143.4185137922895" > 0.006</text><path  stroke="black" fill="none" class="poloto_axis_lines" style="stroke-dasharray:8.417508417508419;stroke-dashoffset:-0;" d=" M 150 400 L 650 400" /><path  stroke="black" fill="none" class="poloto_axis_lines" style="stroke-dasharray:7.1273561613998355;stroke-dashoffset:-85.52493833411448;" d=" M 150 400 L 150 100" /></svg>