<svg  width="800" class="poloto_background poloto" height="500" viewBox="0 0 800 500" xmlns="http://www.w3.org/2000/svg" ><text  class="poloto_text" alignment-baseline="middle" text-anchor="start" font-size="large" x="675" y="100" >default_par</text><line  class="poloto0stroke poloto0legend" stroke="black" x1="680" x2="730" y1="81.25" y2="81.25" /><path  class="poloto0stroke" fill="none" stroke="black" d=" M 650 314.5948202515482 L 644.9494949494949 317.21017988155376 L 639.8989898989898 321.8475741712962 L 634.8484848484848 310.2341541146752 L 629.7979797979798 312.59891071049384 L 624.7474747474747 321.67540840102095 L 619.6969696969697 329.20656198597123 L 614.6464646464647 327.1598879962921 L 609.5959595959596 324.5941784733562 L 604.5454545454545 331.4421787771174 L 599.4949494949494 318.4234502036872 L 594.4444444444445 323.65683150185794 L 589.3939393939394 245.78670553379953 L 584.3434343434344 318.68383468041407 L 579.2929292929293 331.9886394942045 L 574.2424242424242 332.78335074663977 L 569.1919191919192 333.55905628477285 L 564.1414141414141 311.64899644256775 L 559.090909090909 332.34095714923365 L 554.040404040404 338.44730124015894 L 548.989898989899 336.2857881624322 L 543.939393939394 337.31822561330574 L 538.8888888888889 334.96393144653297 L 533.8383838383838 335.1264395899966 L 528.7878787878788 335.7774626896779 L 523.7373737373737 337.8518714025082 L 518.6868686868687 335.25124584417665 L 513.6363636363636 324.9604253978251 L 508.5858585858586 339.7181458759767 L 503.5353535353535 333.5796096956795 L 498.4848484848485 339.51775011963696 L 493.4343434343434 344.3417347120077 L 488.3838383838384 346.7349070174834 L 483.3333333333333 345.5024452574552 L 478.2828282828283 343.19520106745665 L 473.2323232323232 342.2483202848752 L 468.1818181818182 348.46523182121996 L 463.1313131313131 350.00816152009395 L 458.0808080808081 349.75817756454876 L 453.030303030303 350.97813393601325 L 447.979797979798 352.581980973237 L 442.9292929292929 349.9850079788919 L 437.8787878787879 349.31733166374704 L 432.8282828282828 347.24744222500163 L 427.77777777777777 352.52793540781084 L 422.72727272727275 349.85004883498686 L 417.67676767676767 351.66772563507664 L 412.62626262626264 355.4389050892598 L 407.57575757575756 353.5091750550103 L 402.52525252525254 355.77487906814633 L 397.47474747474746 358.33575977767646 L 392.4242424242424 358.25218416103803 L 387.37373737373736 355.2709490537486 L 382.32323232323233 361.3598351269761 L 377.27272727272725 356.3479601668293 L 372.22222222222223 363.3645974926077 L 367.1717171717172 358.41896394712984 L 362.1212121212121 359.89429025832294 L 357.07070707070704 364.361561737308 L 352.020202020202 365.0804977639911 L 346.969696969697 365.1731738366635 L 341.9191919191919 361.71995317289156 L 336.86868686868684 367.4071191154769 L 331.8181818181818 362.6677625734356 L 326.7676767676768 368.6805019737259 L 321.7171717171717 369.8110633893194 L 316.66666666666663 368.7702064689178 L 311.6161616161616 364.4049591500958 L 306.5656565656566 362.8405474223526 L 301.5151515151515 372.46691076249647 L 296.4646464646464 372.6829073006087 L 291.4141414141414 373.059802377716 L 286.3636363636364 374.75075377983626 L 281.3131313131313 371.5712277835891 L 276.26262626262627 375.4987865026824 L 271.2121212121212 376.89059910510116 L 266.16161616161617 375.4465362653173 L 261.1111111111111 356.42893565317235 L 256.06060606060606 376.6009941164829 L 251.010101010101 377.7827533357505 L 245.95959595959596 379.90377867030577 L 240.9090909090909 375.17568935954455 L 235.85858585858585 380.7553213420552 L 230.8080808080808 381.7712913010577 L 225.75757575757575 383.1272592501183 L 220.7070707070707 382.5608022929022 L 215.65656565656565 382.11265126412763 L 210.6060606060606 383.1955436243051 L 205.55555555555554 387.36101426542916 L 200.50505050505052 388.6303731125066 L 195.45454545454544 388.73190200975625 L 190.40404040404042 389.07109519758 L 185.35353535353534 389.70534126606947 L 180.3030303030303 393.6288759739913 L 175.25252525252526 395.0794391395137 L 170.2020202020202 395.8689501313582 L 165.15151515151516 397.3383332875903 L 160.1010101010101 398.3717612642907 L 155.05050505050505 399.2210752529297 L 150 399.9955426337793" /><text  class="poloto_text" alignment-baseline="middle" text-anchor="start" font-size="large" x="675" y="150" >default_seq</text><line  class="poloto1stroke poloto1legend" stroke="black" x1="680" x2="730" y1="131.25" y2="131.25" /><path  class="poloto1stroke" fill="none" stroke="black" d=" M 650 241.03273873581253 L 644.9494949494949 243.79593434547186 L 639.8989898989898 240.95324903820972 L 634.8484848484848 248.74416802124512 L 629.7979797979798 244.35719104209713 L 624.7474747474747 246.81666667010597 L 619.6969696969697 250.24772431850275 L 614.6464646464647 251.85720497136657 L 609.5959595959596 254.70936218184775 L 604.5454545454545 254.6506735266083 L 599.4949494949494 258.35530202680155 L 594.4444444444445 255.9540816989829 L 589.3939393939394 224.21231013116005 L 584.3434343434344 259.45880970574984 L 579.2929292929293 266.9463801543198 L 574.2424242424242 266.271027264017 L 569.1919191919192 268.36914668882696 L 564.1414141414141 266.18590395077416 L 559.090909090909 268.6811623242771 L 554.040404040404 273.5869272052252 L 548.989898989899 271.1936929918853 L 543.939393939394 276.45809013000854 L 538.8888888888889 279.32238128186833 L 533.8383838383838 278.6109980146148 L 528.7878787878788 280.75071952415135 L 523.7373737373737 280.61600801170306 L 518.6868686868687 283.9400888708026 L 513.6363636363636 281.94114584440365 L 508.5858585858586 285.22226264576466 L 503.5353535353535 287.08630843612275 L 498.4848484848485 287.30948628647945 L 493.4343434343434 292.6772076499135 L 488.3838383838384 294.1723444776431 L 483.3333333333333 293.6699002519856 L 478.2828282828283 297.82119399221324 L 473.2323232323232 298.804290875338 L 468.1818181818182 298.36010194987074 L 463.1313131313131 301.64549039385986 L 458.0808080808081 298.4841653096807 L 453.030303030303 303.95793484444926 L 447.979797979798 298.7592838580816 L 442.9292929292929 305.8983130313371 L 437.8787878787879 309.54029077298367 L 432.8282828282828 308.7575896461986 L 427.77777777777777 311.5635016821399 L 422.72727272727275 318.6742389614667 L 417.67676767676767 321.66228393381556 L 412.62626262626264 322.496306680003 L 407.57575757575756 323.9020485518615 L 402.52525252525254 324.9532440855806 L 397.47474747474746 326.9033418071442 L 392.4242424242424 328.0338413148735 L 387.37373737373736 330.09419694253563 L 382.32323232323233 331.8190738542247 L 377.27272727272725 332.79399889927817 L 372.22222222222223 334.38366903560546 L 367.1717171717172 337.42229273298665 L 362.1212121212121 337.845123445313 L 357.07070707070704 337.44878929885425 L 352.020202020202 341.36384262938384 L 346.969696969697 341.0895907910814 L 341.9191919191919 342.2142090517139 L 336.86868686868684 344.4430778856648 L 331.8181818181818 346.6767136251574 L 326.7676767676768 347.63622361203085 L 321.7171717171717 350.94748954324587 L 316.66666666666663 351.70753239174223 L 311.6161616161616 351.7922842578 L 306.5656565656566 353.4482577166605 L 301.5151515151515 355.67545503827864 L 296.4646464646464 358.460380308264 L 291.4141414141414 359.7244769868865 L 286.3636363636364 363.44359192729706 L 281.3131313131313 364.9325998764732 L 276.26262626262627 366.4419755129634 L 271.2121212121212 367.47732263345324 L 266.16161616161617 369.2341440030574 L 261.1111111111111 371.4569458663191 L 256.06060606060606 371.58565231594224 L 251.010101010101 373.26843187999117 L 245.95959595959596 373.69627712931583 L 240.9090909090909 375.81501187289655 L 235.85858585858585 376.3391238510158 L 230.8080808080808 379.1324685905292 L 225.75757575757575 380.7042473541095 L 220.7070707070707 380.7625026542997 L 215.65656565656565 384.22816679877116 L 210.6060606060606 385.74063782847026 L 205.55555555555554 385.8543006670985 L 200.50505050505052 387.5708200171237 L 195.45454545454544 388.753879301539 L 190.40404040404042 390.078831410647 L 185.35353535353534 391.6620012212358 L 180.3030303030303 393.26287668097905 L 175.25252525252526 394.57482813861003 L 170.2020202020202 395.7136852080032 L 165.15151515151516 397.0716342087174 L 160.1010101010101 398.2177964060834 L 155.05050505050505 399.15111936641017 L 150 399.99529500232256" /><text  class="poloto_text" alignment-baseline="middle" text-anchor="start" font-size="large" x="675" y="200" >direct_par</text><line  class="poloto2stroke poloto2legend" stroke="black" x1="680" x2="730" y1="181.25" y2="181.25" /><path  class="poloto2stroke" fill="none" stroke="black" d=" M 650 307.1772056894978 L 644.9494949494949 314.56330914868227 L 639.8989898989898 324.22799345675145 L 634.8484848484848 326.7368715603733 L 629.7979797979798 318.042035852495 L 624.7474747474747 302.698109808455 L 619.6969696969697 325.80472484946586 L 614.6464646464647 327.0799649436401 L 609.5959595959596 325.55771247140115 L 604.5454545454545 320.7249988701815 L 599.4949494949494 318.5985256435787 L 594.4444444444445 323.3192479185028 L 589.3939393939394 323.1643544423329 L 584.3434343434344 318.3078682212694 L 579.2929292929293 315.32149476125335 L 574.2424242424242 330.57385907417614 L 569.1919191919192 334.34429563398913 L 564.1414141414141 332.873488596881 L 559.090909090909 333.8441419993062 L 554.040404040404 336.7857560735226 L 548.989898989899 335.41573503929396 L 543.939393939394 335.69277273148435 L 538.8888888888889 331.3764326253619 L 533.8383838383838 337.69598740051146 L 528.7878787878788 334.8748460299828 L 523.7373737373737 334.49336977092645 L 518.6868686868687 329.6427028890956 L 513.6363636363636 338.20932741026405 L 508.5858585858586 325.21251422075227 L 503.5353535353535 336.09820733397703 L 498.4848484848485 339.8784872441941 L 493.4343434343434 343.72352278034 L 488.3838383838384 346.4337871661283 L 483.3333333333333 348.0990468046153 L 478.2828282828283 345.7898215629631 L 473.2323232323232 342.5336536308653 L 468.1818181818182 347.056889819066 L 463.1313131313131 351.17927258672313 L 458.0808080808081 344.65777435862935 L 453.030303030303 350.8541943919317 L 447.979797979798 353.52960465018856 L 442.9292929292929 353.32598968491163 L 437.8787878787879 343.3966492574874 L 432.8282828282828 352.9476707269283 L 427.77777777777777 352.712730382378 L 422.72727272727275 345.39002057611043 L 417.67676767676767 345.70457443399187 L 412.62626262626264 352.36047463521305 L 407.57575757575756 353.47506382184895 L 402.52525252525254 359.50519933197285 L 397.47474747474746 358.79920204890266 L 392.4242424242424 355.9632027909716 L 387.37373737373736 355.8661312599427 L 382.32323232323233 358.6779245429807 L 377.27272727272725 360.6950065735834 L 372.22222222222223 359.3042464048556 L 367.1717171717172 358.4982679211401 L 362.1212121212121 360.3026964382961 L 357.07070707070704 361.50989978974025 L 352.020202020202 364.21861647892416 L 346.969696969697 367.2528447179488 L 341.9191919191919 363.04119081014903 L 336.86868686868684 365.7996195142668 L 331.8181818181818 368.82542828376336 L 326.7676767676768 369.07776473814727 L 321.7171717171717 368.95617769290436 L 316.66666666666663 370.13075559992745 L 311.6161616161616 368.36068594738947 L 306.5656565656566 371.20720954223054 L 301.5151515151515 371.5488171367572 L 296.4646464646464 375.32142047181634 L 291.4141414141414 372.4869070026255 L 286.3636363636364 373.8647903356046 L 281.3131313131313 374.6520107364745 L 276.26262626262627 375.8337080478779 L 271.2121212121212 376.1025119941328 L 266.16161616161617 376.4108131577324 L 261.1111111111111 375.3466788804004 L 256.06060606060606 377.3727994591729 L 251.010101010101 375.3906334639658 L 245.95959595959596 378.47215931122133 L 240.9090909090909 380.4015178982858 L 235.85858585858585 376.15600038878137 L 230.8080808080808 381.6285936741306 L 225.75757575757575 383.6844300277079 L 220.7070707070707 385.0863955198517 L 215.65656565656565 383.1556130519112 L 210.6060606060606 385.7609436079202 L 205.55555555555554 374.86113550166317 L 200.50505050505052 390.3103668226676 L 195.45454545454544 390.4629077999988 L 190.40404040404042 390.51472468231464 L 185.35353535353534 390.5519313086848 L 180.3030303030303 393.672954373285 L 175.25252525252526 395.1074214941215 L 170.2020202020202 395.8940228163497 L 165.15151515151516 397.33820947186194 L 160.1010101010101 398.3231016830478 L 155.05050505050505 399.213460585636 L 150 399.9932520428047" /><text  class="poloto_text" alignment-baseline="middle" text-anchor="start" font-size="large" x="675" y="250" >direct_seq</text><line  class="poloto3stroke poloto3legend" stroke="black" x1="680" x2="730" y1="231.25" y2="231.25" /><path  class="poloto3stroke" fill="none" stroke="black" d=" M 650 153.28447014400385 L 644.9494949494949 243.53994532710152 L 639.8989898989898 241.21357160707242 L 634.8484848484848 243.62946409870094 L 629.7979797979798 243.3250012226803 L 624.7474747474747 245.32289181538826 L 619.6969696969697 251.4527608947007 L 614.6464646464647 252.84822606110595 L 609.5959595959596 254.13436193937525 L 604.5454545454545 254.72131039963384 L 599.4949494949494 259.41405031995015 L 594.4444444444445 256.3887987212312 L 589.3939393939394 260.0313955415194 L 584.3434343434344 258.1623971220272 L 579.2929292929293 265.7056846483561 L 574.2424242424242 267.02036005201086 L 569.1919191919192 263.61257976054446 L 564.1414141414141 266.0107666030185 L 559.090909090909 269.32104200840666 L 554.040404040404 273.46063516230487 L 548.989898989899 272.7992115414419 L 543.939393939394 276.5542330430749 L 538.8888888888889 278.3485086705059 L 533.8383838383838 278.1658804711849 L 528.7878787878788 280.3775389188947 L 523.7373737373737 280.8203039634859 L 518.6868686868687 282.25068516528677 L 513.6363636363636 282.9218283208255 L 508.5858585858586 284.31178368731906 L 503.5353535353535 289.1144100665489 L 498.4848484848485 287.3793183572707 L 493.4343434343434 291.40995367021804 L 488.3838383838384 293.36320869285464 L 483.3333333333333 293.34965087059993 L 478.2828282828283 297.07328508509545 L 473.2323232323232 297.8678106139382 L 468.1818181818182 297.81500320579556 L 463.1313131313131 301.75011468431836 L 458.0808080808081 299.8566007506122 L 453.030303030303 303.05859930155543 L 447.979797979798 305.45375265868483 L 442.9292929292929 308.05939275401465 L 437.8787878787879 309.96213095948315 L 432.8282828282828 309.8659261385527 L 427.77777777777777 311.2956882617118 L 422.72727272727275 318.86423419662475 L 417.67676767676767 321.83865943885473 L 412.62626262626264 323.4252960898374 L 407.57575757575756 324.95398697995074 L 402.52525252525254 324.8029936992239 L 397.47474747474746 327.31341949945016 L 392.4242424242424 328.0349556564287 L 387.37373737373736 331.52934504987815 L 382.32323232323233 330.53776678936117 L 377.27272727272725 333.10384775948216 L 372.22222222222223 333.6977299005285 L 367.1717171717172 336.62293839073806 L 362.1212121212121 336.9925902477367 L 357.07070707070704 339.5687621997185 L 352.020202020202 340.99270498364496 L 346.969696969697 343.0559702809234 L 341.9191919191919 343.1356457021187 L 336.86868686868684 343.9308522174675 L 331.8181818181818 347.3400563898099 L 326.7676767676768 347.90793722790204 L 321.7171717171717 349.90886130595464 L 316.66666666666663 351.8289337133926 L 311.6161616161616 353.37737321217827 L 306.5656565656566 353.68517911286443 L 301.5151515151515 355.6995991053075 L 296.4646464646464 357.9903138955709 L 291.4141414141414 358.2708184281552 L 286.3636363636364 363.52778662257725 L 281.3131313131313 364.98571682393674 L 276.26262626262627 366.7742350199993 L 271.2121212121212 368.2250458169785 L 266.16161616161617 369.23302966150226 L 261.1111111111111 371.8227594357387 L 256.06060606060606 369.87829532981516 L 251.010101010101 373.76443768777426 L 245.95959595959596 373.9411227321344 L 240.9090909090909 375.75917097940925 L 235.85858585858585 376.16609137064216 L 230.8080808080808 378.57591689158136 L 225.75757575757575 380.7335916817292 L 220.7070707070707 381.22780216145117 L 215.65656565656565 384.38206974911424 L 210.6060606060606 385.68368259342776 L 205.55555555555554 386.7105483365254 L 200.50505050505052 387.1026108403559 L 195.45454545454544 388.6217060115219 L 190.40404040404042 390.25619744151305 L 185.35353535353534 391.5456144365838 L 180.3030303030303 393.20629289312166 L 175.25252525252526 394.6072678594386 L 170.2020202020202 395.75194426806434 L 165.15151515151516 397.0883493320451 L 160.1010101010101 397.8749506542733 L 155.05050505050505 399.14480476426417 L 150 399.9863802698811" /><text  class="poloto_text" alignment-baseline="middle" text-anchor="start" font-size="large" x="675" y="300" >indirect_par</text><line  class="poloto4stroke poloto4legend" stroke="black" x1="680" x2="730" y1="281.25" y2="281.25" /><path  class="poloto4stroke" fill="none" stroke="black" d=" M 650 251.40342032695193 L 644.9494949494949 258.4404253400444 L 639.8989898989898 262.3991856226827 L 634.8484848484848 260.73497841788674 L 629.7979797979798 271.3251852953964 L 624.7474747474747 262.74277426886295 L 619.6969696969697 282.02682632842414 L 614.6464646464647 280.30454954703043 L 609.5959595959596 262.9881770424591 L 604.5454545454545 276.80898390416166 L 599.4949494949494 260.65127898552 L 594.4444444444445 257.10228685586674 L 589.3939393939394 255.07245180524362 L 584.3434343434344 264.7074203385081 L 579.2929292929293 282.90028438409206 L 574.2424242424242 279.7375354190368 L 569.1919191919192 290.54268640096774 L 564.1414141414141 285.5594128740705 L 559.090909090909 288.6951081024806 L 554.040404040404 299.59435903796003 L 548.989898989899 292.36587300096926 L 543.939393939394 294.1436811365293 L 538.8888888888889 291.2313494820685 L 533.8383838383838 296.6139906407691 L 528.7878787878788 299.3364508758002 L 523.7373737373737 280.7380284119952 L 518.6868686868687 294.07310617136795 L 513.6363636363636 297.13711209306155 L 508.5858585858586 286.0822247870421 L 503.5353535353535 296.07031577757 L 498.4848484848485 305.50476473876637 L 493.4343434343434 308.66937093974695 L 488.3838383838384 311.4375191785404 L 483.3333333333333 313.28299260964553 L 478.2828282828283 316.4466701926635 L 473.2323232323232 305.6949456975169 L 468.1818181818182 317.4136710311023 L 463.1313131313131 322.64996199888935 L 458.0808080808081 317.09893144962837 L 453.030303030303 321.41069037380174 L 447.979797979798 330.27577270816573 L 442.9292929292929 302.0930223439927 L 437.8787878787879 320.628794049251 L 432.8282828282828 325.4550692325963 L 427.77777777777777 323.9796191056749 L 422.72727272727275 330.14137073503827 L 417.67676767676767 326.62624220708966 L 412.62626262626264 336.9228819926738 L 407.57575757575756 329.60357711893596 L 402.52525252525254 335.73121751513804 L 397.47474747474746 332.0118549432707 L 392.4242424242424 334.18884498704165 L 387.37373737373736 335.2069817212904 L 382.32323232323233 341.74426645474915 L 377.27272727272725 343.7458096114435 L 372.22222222222223 346.83135946987056 L 367.1717171717172 339.84264259083585 L 362.1212121212121 344.6237250333322 L 357.07070707070704 352.0944565428461 L 352.020202020202 347.9970226444522 L 346.969696969697 344.0089799420584 L 341.9191919191919 347.0468607450694 L 336.86868686868684 351.6658064912872 L 331.8181818181818 348.76368963441547 L 326.7676767676768 356.61633075803496 L 321.7171717171717 359.33420981111703 L 316.66666666666663 352.6257498332099 L 311.6161616161616 353.14206142044293 L 306.5656565656566 359.2297712442511 L 301.5151515151515 362.25527047442677 L 296.4646464646464 366.26919066404645 L 291.4141414141414 363.52314353276404 L 286.3636363636364 367.46079323371805 L 281.3131313131313 364.3172976144217 L 276.26262626262627 366.55650506169013 L 271.2121212121212 361.0379761411219 L 266.16161616161617 371.15848805312356 L 261.1111111111111 371.344768816431 L 256.06060606060606 370.660934548736 L 251.010101010101 373.0011756303407 L 245.95959595959596 374.66036829813834 L 240.9090909090909 372.7792359372675 L 235.85858585858585 371.44505955639715 L 230.8080808080808 372.94948256375324 L 225.75757575757575 379.90254051302225 L 220.7070707070707 379.0387400841658 L 215.65656565656565 381.4769813147621 L 210.6060606060606 382.13369993794765 L 205.55555555555554 383.3361363838502 L 200.50505050505052 387.85367704854673 L 195.45454545454544 388.12396678354185 L 190.40404040404042 388.27304092047916 L 185.35353535353534 387.9146562947607 L 180.3030303030303 392.12160520488305 L 175.25252525252526 393.89223202819863 L 170.2020202020202 395.00409726881077 L 165.15151515151516 396.85006596282926 L 160.1010101010101 398.102338239394 L 155.05050505050505 399.1088362951775 L 150 399.9941187529032" /><text  class="poloto_text" alignment-baseline="middle" text-anchor="start" font-size="large" x="675" y="350" >indirect_seq</text><line  class="poloto5stroke poloto5legend" stroke="black" x1="680" x2="730" y1="331.25" y2="331.25" /><path  class="poloto5stroke" fill="none" stroke="black" d=" M 650 100 L 644.9494949494949 140.84947082189495 L 639.8989898989898 141.48885524311112 L 634.8484848484848 159.22743938136708 L 629.7979797979798 149.77249891712827 L 624.7474747474747 153.6585793672232 L 619.6969696969697 161.22087260785432 L 614.6464646464647 165.49034846079508 L 609.5959595959596 168.5896418650693 L 604.5454545454545 167.3220164381888 L 599.4949494949494 175.65518640354722 L 594.4444444444445 170.98578574802548 L 589.3939393939394 179.8727215584438 L 584.3434343434344 173.89006938014336 L 579.2929292929293 191.14682461151264 L 574.2424242424242 189.0300709195856 L 569.1919191919192 191.92283968896663 L 564.1414141414141 175.71579420257612 L 559.090909090909 196.51349354125568 L 554.040404040404 204.1025309792111 L 548.989898989899 199.95148487044023 L 543.939393939394 206.72643389447308 L 538.8888888888889 212.05521521134003 L 533.8383838383838 209.19327655831896 L 528.7878787878788 214.572574692354 L 523.7373737373737 212.8840996048008 L 518.6868686868687 217.42448427137847 L 513.6363636363636 214.76547959712835 L 508.5858585858586 220.99136777377876 L 503.5353535353535 228.60052526759156 L 498.4848484848485 223.05556168901987 L 493.4343434343434 234.87321578955945 L 488.3838383838384 237.67231796044126 L 483.3333333333333 232.41144957057608 L 478.2828282828283 243.97348609993043 L 473.2323232323232 245.92240757207466 L 468.1818181818182 241.8709093088998 L 463.1313131313131 251.73524647893862 L 458.0808080808081 243.6485936287315 L 453.030303030303 253.19193852301456 L 447.979797979798 258.886471501437 L 442.9292929292929 254.80723851511098 L 437.8787878787879 264.8722809808104 L 432.8282828282828 262.78592405019407 L 427.77777777777777 266.85642802767114 L 422.72727272727275 275.571445699271 L 417.67676767676767 279.21781889927405 L 412.62626262626264 281.71666792889926 L 407.57575757575756 284.46302459950255 L 402.52525252525254 284.5778636875502 L 397.47474747474746 290.7872224644654 L 392.4242424242424 289.6289263257208 L 387.37373737373736 294.0508193402644 L 382.32323232323233 296.27473554508117 L 377.27272727272725 299.13797426325 L 372.22222222222223 297.923094336648 L 367.1717171717172 307.11467874667943 L 362.1212121212121 306.3316680805735 L 357.07070707070704 308.58090460183854 L 352.020202020202 313.4329334566813 L 346.969696969697 317.62570546590723 L 341.9191919191919 316.85872893662304 L 336.86868686868684 318.01102001254253 L 331.8181818181818 324.0651757739669 L 326.7676767676768 324.66766310813387 L 321.7171717171717 329.77989071611097 L 316.66666666666663 328.72677603860245 L 311.6161616161616 332.7368579406432 L 306.5656565656566 333.21187698247036 L 301.5151515151515 337.89093526480366 L 296.4646464646464 340.50679015772266 L 291.4141414141414 342.05844886544554 L 286.3636363636364 347.27759135485564 L 281.3131313131313 349.64723867194425 L 276.26262626262627 350.99664438740206 L 271.2121212121212 353.72220001564204 L 266.16161616161617 355.30722706215613 L 261.1111111111111 359.9968715892636 L 256.06060606060606 360.11214403236045 L 251.010101010101 362.8737919454154 L 245.95959595959596 363.61111460775896 L 240.9090909090909 366.5132314646307 L 235.85858585858585 367.0652638894936 L 230.8080808080808 370.86634484207406 L 225.75757575757575 374.26192928429765 L 220.7070707070707 374.3586293681415 L 215.65656565656565 378.1949978033026 L 210.6060606060606 380.44739162564065 L 205.55555555555554 381.15908443221514 L 200.50505050505052 383.17907613243415 L 195.45454545454544 385.1528845659774 L 190.40404040404042 387.3640477507738 L 185.35353535353534 389.4046547697636 L 180.3030303030303 391.53527582326626 L 175.25252525252526 393.16475271625916 L 170.2020202020202 394.7749762634931 L 165.15151515151516 396.48654298438413 L 160.1010101010101 397.88875610798465 L 155.05050505050505 398.97641537370373 L 150 399.9938711214465" /><text  class="poloto_text" alignment-baseline="start" text-anchor="middle" font-size="x-large" x="400" y="37.5" >Bench of rebal:8_bytes with abspiral(num,1.5)</text><text  class="poloto_text" alignment-baseline="start" text-anchor="middle" font-size="x-large" x="400" y="481.25" >Number of Elements</text><text  class="poloto_text" alignment-baseline="start" text-anchor="middle" font-size="x-large" transform="rotate(-90,37.5,250)" x="37.5" y="250" >Time in Seconds</text><line  class="poloto_axis_lines" stroke="black" x1="150" x2="150" y1="400" y2="405" /><text  class="poloto_text" alignment-baseline="start" text-anchor="middle" x="150" y="430" > 0</text><line  class="poloto_axis_lines" stroke="black" x1="234.17508417508418" x2="234.17508417508418" y1="400" y2="405" /><text  class="poloto_text" alignment-baseline="start" text-anchor="middle" x="234.17508417508418" y="430" > 5000</text><line  class="poloto_axis_lines" stroke="black" x1="318.35016835016836" x2="318.35016835016836" y1="400" y2="405" /><text  class="poloto_text" alignment-baseline="start" text-anchor="middle" x="318.35016835016836" y="430" > 10000</text><line  class="poloto_axis_lines" stroke="black" x1="402.52525252525254" x2="402.52525252525254" y1="400" y2="405" /><text  class="poloto_text" alignment-baseline="start" text-anchor="middle" x="402.52525252525254" y="430" > 15000</text><line  class="poloto_axis_lines" stroke="black" x1="486.7003367003367" x2="486.7003367003367" y1="400" y2="405" /><text  class="poloto_text" alignment-baseline="start" text-anchor="middle" x="486.7003367003367" y="430" > 20000</text><line  class="poloto_axis_lines" stroke="black" x1="570.8754208754208" x2="570.8754208754208" y1="400" y2="405" /><text  class="poloto_text" alignment-baseline="start" text-anchor="middle" x="570.8754208754208" y="430" > 25000</text><line  class="poloto_axis_lines" stroke="black" x1="150" x2="144" y1="400" y2="400" /><text  class="poloto_text" alignment-baseline="middle" text-anchor="end" x="135" y="400" > 0e0</text><line  class="poloto_axis_lines" stroke="black" x1="150" x2="144" y1="338.0921358233777" y2="338.0921358233777" /><text  class="poloto_text" alignment-baseline="middle" text-anchor="end" x="135" y="338.0921358233777" > 0.001</text><line  class="poloto_axis_lines" stroke="black" x1="150" x2="144" y1="276.18427164675535" y2="276.18427164675535" /><text  class="poloto_text" alignment-baseline="middle" text-anchor="end" x="135" y="276.18427164675535" > 0.002</text><line  class="poloto_axis_lines" stroke="black" x1="150" x2="144" y1="214.27640747013305" y2="214.27640747013305" /><text  class="poloto_text" alignment-baseline="middle" text-anchor="end" x="135" y="214.27640747013305" > 0.003</text><line  class="poloto_axis_lines" stroke="black" x1="150" x2="144" y1="152.36854329351073" y2="152.36854329351073" /><text  class="poloto_text" alignment-baseline="middle" text-anchor="end" x="135" y="152.36854329351073" > 0.004</text><path  stroke="black" fill="none" class="poloto_axis_lines" style="stroke-dasharray:8.417508417508419;stroke-dashoffset:-0;" d=" M 150 400 L 650 400" /><path  stroke="black" fill="none" class="poloto_axis_lines" style="stroke-dasharray:7.73848302207779;stroke-dashoffset:-0;" d=" M 150 400 L 150 100" /></svg>