<svg class="poloto" width="800" height="500" viewBox="0 0 800 500" xmlns="http://www.w3.org/2000/svg"><style>.poloto {
                    font-family: "Arial";
                    stroke-width:2;
                    }
                    .poloto_text{fill: var(--poloto_fg_color,black);  }
                    .poloto_axis_lines{stroke: var(--poloto_fg_color,black);stoke-width:3;fill:none}
                    .poloto_background{fill: var(--poloto_bg_color,aliceblue); }
                    .poloto0stroke{stroke:  var(--poloto_color0,blue); }
                    .poloto1stroke{stroke:  var(--poloto_color1,red); }
                    .poloto2stroke{stroke:  var(--poloto_color2,green); }
                    .poloto3stroke{stroke:  var(--poloto_color3,gold); }
                    .poloto4stroke{stroke:  var(--poloto_color4,aqua); }
                    .poloto5stroke{stroke:  var(--poloto_color5,brown); }
                    .poloto6stroke{stroke:  var(--poloto_color6,lime); }
                    .poloto7stroke{stroke:  var(--poloto_color7,chocolate); }
                    .poloto0fill{fill:var(--poloto_color0,blue);}
                    .poloto1fill{fill:var(--poloto_color1,red);}
                    .poloto2fill{fill:var(--poloto_color2,green);}
                    .poloto3fill{fill:var(--poloto_color3,gold);}
                    .poloto4fill{fill:var(--poloto_color4,aqua);}
                    .poloto5fill{fill:var(--poloto_color5,brown);}
                    .poloto6fill{fill:var(--poloto_color6,lime);}
                    .poloto7fill{fill:var(--poloto_color7,chocolate);}</style><rect class="poloto_background" fill="white" x="0" y="0" width="800" height="500"/><line class="poloto_axis_lines" stroke="black" x1="150" x2="150" y1="400" y2="405"/><text class="poloto_text" alignment-baseline="start" text-anchor="middle" x="150" y="430">0</text><line class="poloto_axis_lines" stroke="black" x1="234.17508417508418" x2="234.17508417508418" y1="400" y2="405"/><text class="poloto_text" alignment-baseline="start" text-anchor="middle" x="234.17508417508418" y="430">5000</text><line class="poloto_axis_lines" stroke="black" x1="318.35016835016836" x2="318.35016835016836" y1="400" y2="405"/><text class="poloto_text" alignment-baseline="start" text-anchor="middle" x="318.35016835016836" y="430">10000</text><line class="poloto_axis_lines" stroke="black" x1="402.52525252525254" x2="402.52525252525254" y1="400" y2="405"/><text class="poloto_text" alignment-baseline="start" text-anchor="middle" x="402.52525252525254" y="430">15000</text><line class="poloto_axis_lines" stroke="black" x1="486.7003367003367" x2="486.7003367003367" y1="400" y2="405"/><text class="poloto_text" alignment-baseline="start" text-anchor="middle" x="486.7003367003367" y="430">20000</text><line class="poloto_axis_lines" stroke="black" x1="570.8754208754208" x2="570.8754208754208" y1="400" y2="405"/><text class="poloto_text" alignment-baseline="start" text-anchor="middle" x="570.8754208754208" y="430">25000</text><line class="poloto_axis_lines" stroke="black" x1="150" x2="144" y1="353.0295758532737" y2="353.0295758532737"/><text class="poloto_text" alignment-baseline="middle" text-anchor="end" x="135" y="353.0295758532737">0.001</text><line class="poloto_axis_lines" stroke="black" x1="150" x2="144" y1="306.053702505239" y2="306.053702505239"/><text class="poloto_text" alignment-baseline="middle" text-anchor="end" x="135" y="306.053702505239">0.002</text><line class="poloto_axis_lines" stroke="black" x1="150" x2="144" y1="259.0778291572043" y2="259.0778291572043"/><text class="poloto_text" alignment-baseline="middle" text-anchor="end" x="135" y="259.0778291572043">0.003</text><line class="poloto_axis_lines" stroke="black" x1="150" x2="144" y1="212.10195580916957" y2="212.10195580916957"/><text class="poloto_text" alignment-baseline="middle" text-anchor="end" x="135" y="212.10195580916957">0.004</text><line class="poloto_axis_lines" stroke="black" x1="150" x2="144" y1="165.12608246113496" y2="165.12608246113496"/><text class="poloto_text" alignment-baseline="middle" text-anchor="end" x="135" y="165.12608246113496">0.005</text><line class="poloto_axis_lines" stroke="black" x1="150" x2="144" y1="118.15020911310017" y2="118.15020911310017"/><text class="poloto_text" alignment-baseline="middle" text-anchor="end" x="135" y="118.15020911310017">0.006</text><text class="poloto_text" alignment-baseline="middle" text-anchor="start" font-size="large" x="675" y="100">default_par</text><line class="poloto0stroke" stroke="black" x1="680" x2="730" y1="81.25" y2="81.25"/><polyline class="poloto0stroke" fill="none" stroke="black" points="650,287.16442197675417 644.9494949494949,320.6494351855868 639.8989898989898,293.9138684835264 634.8484848484848,323.1075886861428 629.7979797979798,314.68439181198 624.7474747474747,322.5194507518254 619.6969696969697,327.54798311436576 614.6464646464647,327.5627805144704 609.5959595959596,327.18279267495814 604.5454545454545,326.3308852117915 599.4949494949494,328.8608648226966 594.4444444444445,329.50170968691054 589.3939393939394,334.0765020887822 584.3434343434344,327.8951348184077 579.2929292929293,331.18236550768313 574.2424242424242,329.6754264665515 569.1919191919192,334.1694203662646 564.1414141414141,331.4452424949387 559.090909090909,331.9149542525457 554.040404040404,335.2458725040348 548.989898989899,338.1330566558784 543.939393939394,333.8966314697326 538.8888888888889,333.5682701150298 533.8383838383838,337.87412564198405 528.7878787878788,334.925731927168 523.7373737373737,332.9326395727576 518.6868686868687,341.0098121638387 513.6363636363636,342.75552956919836 508.5858585858586,341.4092949907904 503.5353535353535,339.09714250460013 498.4848484848485,343.16966886863463 493.4343434343434,345.0166192810593 488.3838383838384,339.46078274018726 483.3333333333333,345.3593552530066 478.2828282828283,346.50692886302573 473.2323232323232,346.12116299109164 468.1818181818182,351.0962837856353 463.1313131313131,350.2554156527055 458.0808080808081,348.7385177264241 453.030303030303,352.80564186502363 447.979797979798,347.97877692676633 442.9292929292929,351.7672401846653 437.8787878787879,351.6430829514064 432.8282828282828,350.25574448381894 427.77777777777777,344.82162243079165 422.72727272727275,348.78925166963995 417.67676767676767,350.59960787672657 412.62626262626264,351.52033499434805 407.57575757575756,350.4804770619159 402.52525252525254,354.955304805303 397.47474747474746,356.90795093276074 392.4242424242424,356.2091378408354 387.37373737373736,357.5698879641079 382.32323232323233,355.58933816788146 377.27272727272725,358.2359588723097 372.22222222222223,360.2643770834778 367.1717171717172,361.4270299488417 362.1212121212121,361.9629307119961 357.07070707070704,362.3339461596989 352.020202020202,363.7570802427776 346.969696969697,363.921401847749 341.9191919191919,363.33457923788535 336.86868686868684,363.8917600716664 331.8181818181818,366.4108882558281 326.7676767676768,365.5343654350271 321.7171717171717,364.47008004845407 316.66666666666663,368.95186022109664 311.6161616161616,367.64043476483954 306.5656565656566,367.54413422447607 301.5151515151515,368.0785787355567 296.4646464646464,368.96416789991383 291.4141414141414,371.88996621964947 286.3636363636364,370.1277133068713 281.3131313131313,374.655529835395 276.26262626262627,377.22473430054566 271.2121212121212,376.1632204905001 266.16161616161617,372.02041821993697 261.1111111111111,375.4276252897433 256.06060606060606,378.30475660469034 251.010101010101,380.4523995824158 245.95959595959596,380.0237917139883 240.9090909090909,379.2245911807182 235.85858585858585,380.47349174954905 230.8080808080808,379.2691243086522 225.75757575757575,379.74644615774156 220.7070707070707,380.9570144139204 215.65656565656565,373.87422710987045 210.6060606060606,374.76503059616925 205.55555555555554,376.30818803565217 200.50505050505052,378.32481530261 195.45454545454544,378.7918494354361 190.40404040404042,380.0666806863551 185.35353535353534,381.70346104142067 180.3030303030303,384.9143089606322 175.25252525252526,387.5824915909272 170.2020202020202,390.1519309354447 165.15151515151516,392.4104369742715 160.1010101010101,395.1307628239828 155.05050505050505,397.69714873673263 150,399.99896653078633 "/><text class="poloto_text" alignment-baseline="middle" text-anchor="start" font-size="large" x="675" y="150">default_seq</text><line class="poloto1stroke" stroke="black" x1="680" x2="730" y1="131.25" y2="131.25"/><polyline class="poloto1stroke" fill="none" stroke="black" points="650,143.82628196766905 644.9494949494949,144.16873608437615 639.8989898989898,148.91494344809485 634.8484848484848,152.42563836688686 629.7979797979798,154.19705157496793 624.7474747474747,156.64524619037408 619.6969696969697,160.2594759340252 614.6464646464647,162.64181037499745 609.5959595959596,166.31889383718817 604.5454545454545,168.82820406382015 599.4949494949494,171.87383783646663 594.4444444444445,174.91961253673318 589.3939393939394,176.86990987052351 584.3434343434344,180.24169713182542 579.2929292929293,183.9928145704127 574.2424242424242,185.3991312908328 569.1919191919192,188.93570991583957 564.1414141414141,191.73091530766771 559.090909090909,195.36849206037277 554.040404040404,197.80691569412255 548.989898989899,199.6608655116761 543.939393939394,202.7118075580109 538.8888888888889,205.59185137710554 533.8383838383838,208.1885837040382 528.7878787878788,211.055286375102 523.7373737373737,213.94918807683436 518.6868686868687,216.56405309087938 513.6363636363636,219.39345691850485 508.5858585858586,221.7438477656004 503.5353535353535,224.16456149509798 498.4848484848485,227.17914421546143 493.4343434343434,231.2227804173869 488.3838383838384,233.31400537122136 483.3333333333333,234.92227137116467 478.2828282828283,237.5738245422945 473.2323232323232,240.2209619813296 468.1818181818182,243.02363653702005 463.1313131313131,245.6599695251851 458.0808080808081,248.34135237589092 453.030303030303,250.83065088047664 447.979797979798,252.4069732865433 442.9292929292929,256.00034574242784 437.8787878787879,259.1287979797869 432.8282828282828,259.14989014692014 427.77777777777777,261.1154546395486 422.72727272727275,257.730608085456 417.67676767676767,260.7201996411983 412.62626262626264,263.3858455743325 407.57575757575756,265.6449153236395 402.52525252525254,268.5651235144467 397.47474747474746,271.39307108999844 392.4242424242424,273.8121406639288 387.37373737373736,276.7377980560444 382.32323232323233,279.4635731070641 377.27272727272725,281.9368058629648 372.22222222222223,285.68656100122496 367.1717171717172,288.0536282833591 362.1212121212121,290.1565972055306 357.07070707070704,292.68441592626164 352.020202020202,296.2027209365361 346.969696969697,297.9242457671215 341.9191919191919,300.9606722685918 336.86868686868684,303.4450383064759 331.8181818181818,306.52491749079314 326.7676767676768,308.60500916264414 321.7171717171717,312.31873380604634 316.66666666666663,315.1242269141377 311.6161616161616,317.0551232122353 306.5656565656566,319.17758712184616 301.5151515151515,322.4217409352615 296.4646464646464,325.485742274387 291.4141414141414,327.87892814210267 286.3636363636364,329.99641260913864 281.3131313131313,333.21360227125217 276.26262626262627,335.74804459012535 271.2121212121212,337.7498744569785 266.16161616161617,341.1242453913145 261.1111111111111,344.15743055752375 256.06060606060606,346.3185556109001 251.010101010101,349.8028031129972 245.95959595959596,352.6214024897526 240.9090909090909,354.789151141271 235.85858585858585,357.92413302502547 230.8080808080808,360.7002192364009 225.75757575757575,362.7010156340404 220.7070707070707,365.4446415169324 215.65656565656565,366.03733611096453 210.6060606060606,368.81614692299416 205.55555555555554,371.5916224480161 200.50505050505052,374.3343088134411 195.45454545454544,376.60164631645733 190.40404040404042,379.4751604891566 185.35353535353534,382.0604776788657 180.3030303030303,384.7000520022918 175.25252525252526,387.11465886825414 170.2020202020202,390.00860754585983 165.15151515151516,392.2993860096767 160.1010101010101,394.9534758779673 155.05050505050505,397.586520554998 150,399.99798003744604 "/><text class="poloto_text" alignment-baseline="middle" text-anchor="start" font-size="large" x="675" y="200">direct_par</text><line class="poloto2stroke" stroke="black" x1="680" x2="730" y1="181.25" y2="181.25"/><polyline class="poloto2stroke" fill="none" stroke="black" points="650,281.1151978381077 644.9494949494949,292.32758719231 639.8989898989898,326.59545333048766 634.8484848484848,319.5872637133144 629.7979797979798,318.5760140877513 624.7474747474747,324.83794498091765 619.6969696969697,323.25072417223424 614.6464646464647,325.60167872981 609.5959595959596,328.1461738855796 604.5454545454545,330.1591840102896 599.4949494949494,324.06481605735564 594.4444444444445,324.2619737977974 589.3939393939394,327.9069257626181 584.3434343434344,327.2850591512368 579.2929292929293,320.25159651420233 574.2424242424242,328.07373708887695 569.1919191919192,326.79416127474985 564.1414141414141,328.05489976366437 559.090909090909,334.4217277820169 554.040404040404,337.063322067997 548.989898989899,337.6735856386613 543.939393939394,335.21369403079143 538.8888888888889,338.1941722671042 533.8383838383838,341.57295893353495 528.7878787878788,331.50903573094536 523.7373737373737,335.4001412721098 518.6868686868687,341.4249379566153 513.6363636363636,337.8647304673144 508.5858585858586,337.96779553344004 503.5353535353535,344.95259116568593 498.4848484848485,341.01963012136844 493.4343434343434,345.3192848330407 488.3838383838384,341.2562945712958 483.3333333333333,344.1528269219357 478.2828282828283,339.3044000578117 473.2323232323232,346.8474569689256 468.1818181818182,343.29927530320185 463.1313131313131,346.212718968247 458.0808080808081,353.2624352574599 453.030303030303,350.8795840818808 447.979797979798,348.69966867916526 442.9292929292929,349.8208888242362 437.8787878787879,355.39903890494855 432.8282828282828,353.05846601538275 427.77777777777777,352.7346143445214 422.72727272727275,347.45546569766924 417.67676767676767,351.9332059452039 412.62626262626264,352.6091417868088 407.57575757575756,352.9580315981646 402.52525252525254,353.77700897411427 397.47474747474746,350.9705293726826 392.4242424242424,354.7340954177071 387.37373737373736,358.304026912791 382.32323232323233,355.4636777066754 377.27272727272725,360.62191045552976 372.22222222222223,353.57097279360977 367.1717171717172,360.3976006602929 362.1212121212121,362.23092806944663 357.07070707070704,361.5233774650785 352.020202020202,363.7653010206135 346.969696969697,364.63379096707195 341.9191919191919,363.42233016929947 336.86868686868684,362.49728127133 331.8181818181818,366.28020137617386 326.7676767676768,363.54897712384576 321.7171717171717,357.51140300178963 316.66666666666663,368.0180738106844 311.6161616161616,369.1124707320736 306.5656565656566,369.06042146440393 301.5151515151515,369.1442264224568 296.4646464646464,372.6261721067599 291.4141414141414,366.3537186179635 286.3636363636364,375.89527010892294 281.3131313131313,372.7706698931784 276.26262626262627,367.2027605528559 271.2121212121212,377.7068946645899 266.16161616161617,377.4596606431592 261.1111111111111,378.36695266100315 256.06060606060606,380.37225874248406 251.010101010101,376.70987872865123 245.95959595959596,378.9925303663789 240.9090909090909,378.91732199314873 235.85858585858585,376.93531594484847 230.8080808080808,378.49519679524326 225.75757575757575,379.6527292904122 220.7070707070707,381.8221220974978 215.65656565656565,373.4530884053053 210.6060606060606,377.00465233391014 205.55555555555554,380.52258153719777 200.50505050505052,379.77815487225143 195.45454545454544,383.3347452193045 190.40404040404042,382.89848028352134 185.35353535353534,384.2278974992707 180.3030303030303,384.62568919478184 175.25252525252526,387.21227473307135 170.2020202020202,390.0272099917056 165.15151515151516,392.53384259355676 160.1010101010101,395.1542037847835 155.05050505050505,397.6170078968009 150,399.99887257903964 "/><text class="poloto_text" alignment-baseline="middle" text-anchor="start" font-size="large" x="675" y="250">direct_seq</text><line class="poloto3stroke" stroke="black" x1="680" x2="730" y1="231.25" y2="231.25"/><polyline class="poloto3stroke" fill="none" stroke="black" points="650,142.87760420540542 644.9494949494949,146.14543385898813 639.8989898989898,148.68823788331727 634.8484848484848,150.85561072784887 629.7979797979798,154.5799988945011 624.7474747474747,157.27016623352299 619.6969696969697,160.07147848888636 614.6464646464647,162.9317454653015 609.5959595959596,166.12187702436654 604.5454545454545,168.98026496584774 599.4949494949494,171.72356201762628 594.4444444444445,174.3060606549345 589.3939393939394,176.772387957453 584.3434343434344,179.9406757354112 579.2929292929293,183.018206126061 574.2424242424242,186.51213065806778 569.1919191919192,188.8478180568054 564.1414141414141,191.49941820380857 559.090909090909,195.66312473801165 554.040404040404,197.96663366350586 548.989898989899,199.16921602121553 543.939393939394,203.3272384747435 538.8888888888889,205.84063560235674 533.8383838383838,208.29564171939836 528.7878787878788,211.49765817442048 523.7373737373737,213.51287616517783 518.6868686868687,216.8960785637033 513.6363636363636,217.82507343503403 508.5858585858586,221.80158111394516 503.5353535353535,224.70915279482176 498.4848484848485,227.09425881232153 493.4343434343434,230.87985654194625 488.3838383838384,232.80229718284122 483.3333333333333,236.01666829255385 478.2828282828283,238.04555626245548 473.2323232323232,240.20654038821175 468.1818181818182,243.6256323539751 463.1313131313131,246.24289313756088 458.0808080808081,249.0132013165145 453.030303030303,250.9004570282718 447.979797979798,252.50162967133957 442.9292929292929,255.5917026201733 437.8787878787879,259.2312053836856 432.8282828282828,259.34709486323527 427.77777777777777,259.64078802340714 422.72727272727275,258.7180409432317 417.67676767676767,261.3023246637271 412.62626262626264,264.0854102802315 407.57575757575756,267.03324028456734 402.52525252525254,269.21465891523 397.47474747474746,271.693199944819 392.4242424242424,274.7816757139589 387.37373737373736,277.70592382987405 382.32323232323233,279.89269771009845 377.27272727272725,283.04957035083305 372.22222222222223,285.7442943495697 367.1717171717172,288.0971279420794 362.1212121212121,290.50327915083903 357.07070707070704,293.39868408051854 352.020202020202,296.40772364782686 346.969696969697,298.2075572592835 341.9191919191919,301.2844299877064 336.86868686868684,303.7553609258131 331.8181818181818,306.853560700736 326.7676767676768,309.76052169525906 321.7171717171717,311.7748471444228 316.66666666666663,314.5192716171617 311.6161616161616,317.3592919921638 306.5656565656566,319.44004132624167 301.5151515151515,322.48050775281985 296.4646464646464,325.1261889397812 291.4141414141414,327.8343480382954 286.3636363636364,329.9242106918027 281.3131313131313,332.79086638699323 276.26262626262627,335.3223022499721 271.2121212121212,337.7451768696437 266.16161616161617,341.02348214298297 261.1111111111111,343.64064897482206 256.06060606060606,346.6833232674476 251.010101010101,349.68494064676696 245.95959595959596,352.1890365514573 240.9090909090909,354.5495272113227 235.85858585858585,357.71086256002536 230.8080808080808,360.059233444567 225.75757575757575,362.8447618064854 220.7070707070707,365.5093272945326 215.65656565656565,366.05302605266274 210.6060606060606,369.0450133779458 205.55555555555554,371.49395960732556 200.50505050505052,374.3082841796063 195.45454545454544,377.06036571970094 190.40404040404042,379.4677383011676 185.35353535353534,382.0779527037512 180.3030303030303,384.5889540618237 175.25252525252526,387.2636193626407 170.2020202020202,390.16160796535434 165.15151515151516,392.257577482397 160.1010101010101,394.99260678046625 155.05050505050505,397.5863326515046 150,399.9984967720529 "/><text class="poloto_text" alignment-baseline="middle" text-anchor="start" font-size="large" x="675" y="300">indirect_par</text><line class="poloto4stroke" stroke="black" x1="680" x2="730" y1="281.25" y2="281.25"/><polyline class="poloto4stroke" fill="none" stroke="black" points="650,268.17804231805894 644.9494949494949,272.3269984280307 639.8989898989898,305.0570154004137 634.8484848484848,305.2747015975085 629.7979797979798,303.4106519671852 624.7474747474747,304.195102076224 619.6969696969697,305.16430829514064 614.6464646464647,305.5645427360659 609.5959595959596,308.9613681378623 604.5454545454545,309.6700931390641 599.4949494949494,310.92416105396325 594.4444444444445,311.53522321447446 589.3939393939394,311.8346944070682 584.3434343434344,309.6475916957304 579.2929292929293,319.6030945826327 574.2424242424242,315.14785577843173 569.1919191919192,316.4464568212648 564.1414141414141,317.345950844133 559.090909090909,318.0488508370396 554.040404040404,319.03623671894195 548.989898989899,322.69161732764593 543.939393939394,321.6761868493548 538.8888888888889,325.3873278197229 533.8383838383838,324.9525191360135 528.7878787878788,324.7990019819121 523.7373737373737,328.2464203993043 518.6868686868687,327.12266355707266 513.6363636363636,328.35127054861715 508.5858585858586,320.24332876049306 503.5353535353535,330.44733401740643 498.4848484848485,326.1273387525745 493.4343434343434,329.02744126958873 488.3838383838384,333.500812760902 483.3333333333333,331.217033702214 478.2828282828283,338.08128924344885 473.2323232323232,334.0742472468615 468.1818181818182,342.2919716509999 463.1313131313131,337.3539148205279 458.0808080808081,342.04271766701527 453.030303030303,340.0254327378306 447.979797979798,340.5130423031832 442.9292929292929,335.48366437492257 437.8787878787879,345.58873844256505 432.8282828282828,341.1093540394632 427.77777777777777,339.3225797207973 422.72727272727275,342.28821358113214 417.67676767676767,341.32859044037843 412.62626262626264,340.6609693283562 407.57575757575756,343.7577128512053 402.52525252525254,343.16027369396505 397.47474747474746,349.35390166728337 392.4242424242424,345.5835241206234 387.37373737373736,350.88987179814404 382.32323232323233,351.2894016009691 377.27272727272725,353.60653352973424 372.22222222222223,353.79518863709995 367.1717171717172,355.0217756660905 362.1212121212121,354.4995448820804 357.07070707070704,352.3922541795609 352.020202020202,357.7886546062897 346.969696969697,357.81195463947034 341.9191919191919,356.53308346344346 336.86868686868684,356.9976748508555 331.8181818181818,361.33584977867315 326.7676767676768,348.54953378794494 321.7171717171717,362.91757441017484 316.66666666666663,364.46439596777896 311.6161616161616,365.53211059310644 306.5656565656566,365.26514670486955 301.5151515151515,365.02730785810843 296.4646464646464,368.79477290062084 291.4141414141414,365.97983764198653 286.3636363636364,369.9965566684836 281.3131313131313,365.50824684944564 276.26262626262627,363.1413204949315 271.2121212121212,371.52731247740263 266.16161616161617,375.6435733795242 261.1111111111111,367.31103994092314 256.06060606060606,368.8205626550889 251.010101010101,377.1570420670512 245.95959595959596,367.2258257066698 240.9090909090909,373.19641223333167 235.85858585858585,375.1063572919161 230.8080808080808,378.3263185305571 225.75757575757575,378.9678210569979 220.7070707070707,377.2873531397186 215.65656565656565,370.69781250582304 210.6060606060606,369.40339231571795 205.55555555555554,373.0991721755012 200.50505050505052,376.08401916803535 195.45454545454544,377.14745898888816 190.40404040404042,376.2694799160134 185.35353535353534,379.73606448973163 180.3030303030303,383.23675354750054 175.25252525252526,386.1393927616756 170.2020202020202,389.2150910932648 165.15151515151516,391.8075486157228 160.1010101010101,394.7960597263781 155.05050505050505,397.4206017703328 150,399.99859072379957 "/><text class="poloto_text" alignment-baseline="middle" text-anchor="start" font-size="large" x="675" y="350">indirect_seq</text><line class="poloto5stroke" stroke="black" x1="680" x2="730" y1="331.25" y2="331.25"/><polyline class="poloto5stroke" fill="none" stroke="black" points="650,100 644.9494949494949,102.97874012899888 639.8989898989898,107.20553526110837 634.8484848484848,110.04475704626356 629.7979797979798,113.64686701459084 624.7474747474747,115.68143906516758 619.6969696969697,120.20826910035095 614.6464646464647,123.24742020247538 609.5959595959596,127.27555436619605 604.5454545454545,131.2821735799232 599.4949494949494,133.6117071392523 594.4444444444445,136.4688267321531 589.3939393939394,140.1929800194386 584.3434343434344,142.9422899830057 579.2929292929293,147.68863827434444 574.2424242424242,150.74878759185543 569.1919191919192,153.4927892817342 564.1414141414141,157.3187862624382 559.090909090909,161.2883884879672 554.040404040404,163.68815097795158 548.989898989899,166.48434286311993 543.939393939394,170.40377485591324 538.8888888888889,173.41412974767533 533.8383838383838,176.59683911875138 528.7878787878788,180.69374596105354 523.7373737373737,184.0128732683323 518.6868686868687,187.1737388583015 513.6363636363636,190.17493345476075 508.5858585858586,193.77784201293494 503.5353535353535,196.50718723032912 498.4848484848485,199.46845233444253 493.4343434343434,204.02445438697504 488.3838383838384,206.27243783017187 483.3333333333333,209.83189370549917 478.2828282828283,212.0550269116949 473.2323232323232,215.19043157830947 468.1818181818182,218.42965292502322 463.1313131313131,221.42708945161462 458.0808080808081,224.6816249330398 453.030303030303,228.23112192321733 447.979797979798,229.22071567116703 442.9292929292929,233.37061129860575 437.8787878787879,237.39484646483848 432.8282828282828,237.8351513257296 427.77777777777777,239.34504984688215 422.72727272727275,241.5302265474127 417.67676767676767,245.00479701960006 412.62626262626264,247.70994966221997 407.57575757575756,250.93831958219033 402.52525252525254,254.22057082889086 397.47474747474746,257.1102447020219 392.4242424242424,260.51406950894716 387.37373737373736,263.5536433939317 382.32323232323233,266.9318193740089 377.27272727272725,269.69418863036674 372.22222222222223,273.0590234624131 367.1717171717172,276.2873464065101 362.1212121212121,278.2641851087421 357.07070707070704,281.8698182675705 352.020202020202,284.8715765745099 346.969696969697,288.08529002199566 341.9191919191919,291.1046173055672 336.86868686868684,293.70214822234686 331.8181818181818,297.045092297413 326.7676767676768,300.2831862231664 321.7171717171717,303.45668832306626 316.66666666666663,305.9527043775407 311.6161616161616,309.59145552707946 306.5656565656566,312.1811884488833 301.5151515151515,315.0307449261751 296.4646464646464,318.23130512912337 291.4141414141414,321.2494110399879 286.3636363636364,319.05023552919965 281.3131313131313,322.5847002399058 276.26262626262627,325.7989773978717 271.2121212121212,328.16994367749373 266.16161616161617,332.0258173136471 261.1111111111111,335.31680607279037 256.06060606060606,338.75769484378725 251.010101010101,342.412511742011 245.95959595959596,345.6164542078404 240.9090909090909,348.4044253151729 235.85858585858585,352.0454782825057 230.8080808080808,354.95718384023695 225.75757575757575,357.6733758130936 220.7070707070707,360.15572188842384 215.65656565656565,363.00772111112974 210.6060606060606,365.9775358241925 205.55555555555554,368.94180738420016 200.50505050505052,372.0677229243984 195.45454545454544,375.10584055730925 190.40404040404042,377.6651800890569 185.35353535353534,380.77742565011084 180.3030303030303,382.5259616078714 175.25252525252526,385.5856881425223 170.2020202020202,388.6744927427756 165.15151515151516,391.4931390954044 160.1010101010101,394.5899295941269 155.05050505050505,397.2614475114296 150,400 "/><text class="poloto_text" alignment-baseline="start" text-anchor="middle" font-size="x-large" x="400" y="37.5">Bench of query:32_bytes with abspiral(num,1.5)</text><text class="poloto_text" alignment-baseline="start" text-anchor="middle" font-size="x-large" x="400" y="481.25">Number of Elements</text><text class="poloto_text" alignment-baseline="start" text-anchor="middle" font-size="x-large" transform="rotate(-90,37.5,250)" x="37.5" y="250">Time in Seconds</text><path stroke="black" fill="none" class="poloto_axis_lines" d=" M 150 100 L 150 400 L 650 400"/></svg>