<svg class="poloto" width="800" height="500" viewBox="0 0 800 500" xmlns="http://www.w3.org/2000/svg"><circle  r="1e5" class="poloto_background" /><text  class="poloto_text poloto_legend_text" x="675" y="100" >default_seq</text><line  class="poloto_scatter poloto_legend_icon poloto0stroke poloto0legend" stroke="black" x1="685" x2="685" y1="81.25" y2="81.25" /><path  class="poloto_scatter poloto0stroke" d=" M 650.00 118.69 h 0 M 644.95 106.12 h 0 M 639.90 118.24 h 0 M 634.85 105.16 h 0 M 629.80 115.51 h 0 M 624.75 123.37 h 0 M 619.70 127.30 h 0 M 614.65 128.05 h 0 M 609.60 139.41 h 0 M 604.55 146.77 h 0 M 599.49 150.82 h 0 M 594.44 152.68 h 0 M 589.39 143.87 h 0 M 584.34 161.01 h 0 M 579.29 149.22 h 0 M 574.24 150.91 h 0 M 569.19 161.75 h 0 M 564.14 162.05 h 0 M 559.09 176.69 h 0 M 554.04 176.27 h 0 M 548.99 185.99 h 0 M 543.94 186.31 h 0 M 538.89 176.76 h 0 M 533.84 181.19 h 0 M 528.79 196.56 h 0 M 523.74 185.33 h 0 M 518.69 185.98 h 0 M 513.64 202.45 h 0 M 508.59 194.68 h 0 M 503.54 208.99 h 0 M 498.48 202.28 h 0 M 493.43 212.20 h 0 M 488.38 220.83 h 0 M 483.33 223.60 h 0 M 478.28 215.98 h 0 M 473.23 230.59 h 0 M 468.18 234.41 h 0 M 463.13 226.42 h 0 M 458.08 230.77 h 0 M 453.03 231.06 h 0 M 447.98 239.60 h 0 M 442.93 247.32 h 0 M 437.88 242.57 h 0 M 432.83 250.61 h 0 M 427.78 247.83 h 0 M 422.73 257.53 h 0 M 417.68 253.59 h 0 M 412.63 265.71 h 0 M 407.58 258.36 h 0 M 402.53 270.29 h 0 M 397.47 273.28 h 0 M 392.42 275.22 h 0 M 387.37 272.48 h 0 M 382.32 259.54 h 0 M 377.27 277.74 h 0 M 372.22 281.51 h 0 M 367.17 290.13 h 0 M 362.12 287.71 h 0 M 357.07 292.13 h 0 M 352.02 295.71 h 0 M 346.97 300.93 h 0 M 341.92 297.93 h 0 M 336.87 300.59 h 0 M 331.82 304.30 h 0 M 326.77 308.12 h 0 M 321.72 310.63 h 0 M 316.67 313.52 h 0 M 311.62 313.90 h 0 M 306.57 320.68 h 0 M 301.52 320.25 h 0 M 296.46 324.68 h 0 M 291.41 325.09 h 0 M 286.36 319.89 h 0 M 281.31 320.36 h 0 M 276.26 327.78 h 0 M 271.21 332.24 h 0 M 266.16 335.55 h 0 M 261.11 338.53 h 0 M 256.06 340.04 h 0 M 251.01 343.52 h 0 M 245.96 348.42 h 0 M 240.91 347.45 h 0 M 235.86 354.22 h 0 M 230.81 356.74 h 0 M 225.76 356.42 h 0 M 220.71 360.83 h 0 M 215.66 366.04 h 0 M 210.61 367.69 h 0 M 205.56 371.84 h 0 M 200.51 375.26 h 0 M 195.45 376.44 h 0 M 190.40 378.94 h 0 M 185.35 381.47 h 0 M 180.30 382.42 h 0 M 175.25 386.28 h 0 M 170.20 389.59 h 0 M 165.15 392.12 h 0 M 160.10 395.10 h 0 M 155.05 397.52 h 0 M 150.00 400.00 h 0" /><text  class="poloto_text poloto_legend_text" x="675" y="150" >direct_seq</text><line  class="poloto_scatter poloto_legend_icon poloto1stroke poloto1legend" stroke="black" x1="685" x2="685" y1="131.25" y2="131.25" /><path  class="poloto_scatter poloto1stroke" d=" M 650.00 137.78 h 0 M 644.95 144.76 h 0 M 639.90 137.51 h 0 M 634.85 150.10 h 0 M 629.80 155.24 h 0 M 624.75 150.18 h 0 M 619.70 142.21 h 0 M 614.65 156.50 h 0 M 609.60 167.68 h 0 M 604.55 168.75 h 0 M 599.49 173.19 h 0 M 594.44 175.94 h 0 M 589.39 161.34 h 0 M 584.34 163.57 h 0 M 579.29 181.08 h 0 M 574.24 168.72 h 0 M 569.19 173.16 h 0 M 564.14 184.68 h 0 M 559.09 178.84 h 0 M 554.04 198.38 h 0 M 548.99 186.69 h 0 M 543.94 206.05 h 0 M 538.89 191.59 h 0 M 533.84 210.20 h 0 M 528.79 201.43 h 0 M 523.74 207.90 h 0 M 518.69 210.85 h 0 M 513.64 208.41 h 0 M 508.59 221.19 h 0 M 503.54 226.58 h 0 M 498.48 229.99 h 0 M 493.43 231.37 h 0 M 488.38 228.13 h 0 M 483.33 228.65 h 0 M 478.28 230.43 h 0 M 473.23 243.66 h 0 M 468.18 236.42 h 0 M 463.13 246.09 h 0 M 458.08 241.87 h 0 M 453.03 244.42 h 0 M 447.98 248.19 h 0 M 442.93 249.97 h 0 M 437.88 253.36 h 0 M 432.83 256.05 h 0 M 427.78 258.03 h 0 M 422.73 268.02 h 0 M 417.68 264.71 h 0 M 412.63 267.90 h 0 M 407.58 278.03 h 0 M 402.53 273.12 h 0 M 397.47 276.01 h 0 M 392.42 279.46 h 0 M 387.37 277.57 h 0 M 382.32 281.49 h 0 M 377.27 285.85 h 0 M 372.22 289.97 h 0 M 367.17 295.83 h 0 M 362.12 294.78 h 0 M 357.07 303.19 h 0 M 352.02 300.34 h 0 M 346.97 305.17 h 0 M 341.92 305.25 h 0 M 336.87 311.45 h 0 M 331.82 310.85 h 0 M 326.77 313.22 h 0 M 321.72 317.39 h 0 M 316.67 317.63 h 0 M 311.62 320.60 h 0 M 306.57 322.77 h 0 M 301.52 327.21 h 0 M 296.46 327.97 h 0 M 291.41 330.66 h 0 M 286.36 321.65 h 0 M 281.31 330.30 h 0 M 276.26 333.07 h 0 M 271.21 336.25 h 0 M 266.16 338.63 h 0 M 261.11 343.31 h 0 M 256.06 346.54 h 0 M 251.01 348.97 h 0 M 245.96 350.91 h 0 M 240.91 353.80 h 0 M 235.86 356.76 h 0 M 230.81 358.12 h 0 M 225.76 360.32 h 0 M 220.71 365.72 h 0 M 215.66 368.37 h 0 M 210.61 371.20 h 0 M 205.56 373.09 h 0 M 200.51 374.60 h 0 M 195.45 379.00 h 0 M 190.40 380.32 h 0 M 185.35 381.98 h 0 M 180.30 383.22 h 0 M 175.25 386.40 h 0 M 170.20 389.86 h 0 M 165.15 392.98 h 0 M 160.10 395.60 h 0 M 155.05 397.82 h 0 M 150.00 400.00 h 0" /><text  class="poloto_text poloto_legend_text" x="675" y="200" >indirect_seq</text><line  class="poloto_scatter poloto_legend_icon poloto2stroke poloto2legend" stroke="black" x1="685" x2="685" y1="181.25" y2="181.25" /><path  class="poloto_scatter poloto2stroke" d=" M 650.00 100.42 h 0 M 644.95 101.04 h 0 M 639.90 102.81 h 0 M 634.85 104.01 h 0 M 629.80 100.00 h 0 M 624.75 120.85 h 0 M 619.70 101.73 h 0 M 614.65 111.32 h 0 M 609.60 122.82 h 0 M 604.55 125.43 h 0 M 599.49 138.16 h 0 M 594.44 141.41 h 0 M 589.39 131.42 h 0 M 584.34 149.86 h 0 M 579.29 150.01 h 0 M 574.24 143.96 h 0 M 569.19 146.86 h 0 M 564.14 154.04 h 0 M 559.09 152.76 h 0 M 554.04 151.98 h 0 M 548.99 158.31 h 0 M 543.94 160.95 h 0 M 538.89 179.87 h 0 M 533.84 183.45 h 0 M 528.79 175.20 h 0 M 523.74 189.86 h 0 M 518.69 182.63 h 0 M 513.64 181.47 h 0 M 508.59 182.52 h 0 M 503.54 190.44 h 0 M 498.48 191.11 h 0 M 493.43 196.88 h 0 M 488.38 210.99 h 0 M 483.33 211.13 h 0 M 478.28 219.38 h 0 M 473.23 212.00 h 0 M 468.18 213.28 h 0 M 463.13 224.66 h 0 M 458.08 224.38 h 0 M 453.03 234.98 h 0 M 447.98 237.77 h 0 M 442.93 241.10 h 0 M 437.88 237.69 h 0 M 432.83 239.53 h 0 M 427.78 251.82 h 0 M 422.73 243.79 h 0 M 417.68 247.45 h 0 M 412.63 261.32 h 0 M 407.58 263.83 h 0 M 402.53 259.27 h 0 M 397.47 260.55 h 0 M 392.42 257.43 h 0 M 387.37 267.71 h 0 M 382.32 275.74 h 0 M 377.27 273.35 h 0 M 372.22 276.61 h 0 M 367.17 280.87 h 0 M 362.12 283.05 h 0 M 357.07 283.09 h 0 M 352.02 289.46 h 0 M 346.97 294.15 h 0 M 341.92 294.80 h 0 M 336.87 298.25 h 0 M 331.82 300.57 h 0 M 326.77 304.25 h 0 M 321.72 307.48 h 0 M 316.67 307.91 h 0 M 311.62 313.62 h 0 M 306.57 309.07 h 0 M 301.52 318.66 h 0 M 296.46 321.75 h 0 M 291.41 324.44 h 0 M 286.36 316.20 h 0 M 281.31 322.14 h 0 M 276.26 324.09 h 0 M 271.21 327.89 h 0 M 266.16 331.67 h 0 M 261.11 335.35 h 0 M 256.06 338.63 h 0 M 251.01 342.34 h 0 M 245.96 345.61 h 0 M 240.91 348.32 h 0 M 235.86 352.06 h 0 M 230.81 355.31 h 0 M 225.76 358.05 h 0 M 220.71 361.31 h 0 M 215.66 362.19 h 0 M 210.61 366.51 h 0 M 205.56 370.31 h 0 M 200.51 371.09 h 0 M 195.45 375.20 h 0 M 190.40 379.60 h 0 M 185.35 381.63 h 0 M 180.30 382.53 h 0 M 175.25 386.42 h 0 M 170.20 389.36 h 0 M 165.15 392.02 h 0 M 160.10 395.14 h 0 M 155.05 397.52 h 0 M 150.00 399.99 h 0" /><text  class="poloto_labels poloto_text poloto_title" x="400" y="37.5" >Bench of query:16_bytes with abspiral(num,1.5)</text><text  class="poloto_labels poloto_text poloto_xname" x="400" y="481.25" >Number of Elements</text><text  class="poloto_labels poloto_text poloto_yname" transform="rotate(-90,37.5,250)" x="37.5" y="250" >Time in Seconds</text><text  class="poloto_tick_labels poloto_text" dominant-baseline="middle" text-anchor="start" x="150" y="70" ></text><line  class="poloto_axis_lines" stroke="black" x1="150" x2="144" y1="400" y2="400" /><text  class="poloto_tick_labels poloto_text" dominant-baseline="middle" text-anchor="end" x="135" y="400" >0e0</text><line  class="poloto_axis_lines" stroke="black" x1="150" x2="144" y1="328.4385799065551" y2="328.4385799065551" /><text  class="poloto_tick_labels poloto_text" dominant-baseline="middle" text-anchor="end" x="135" y="328.4385799065551" >0.001</text><line  class="poloto_axis_lines" stroke="black" x1="150" x2="144" y1="256.8771598131102" y2="256.8771598131102" /><text  class="poloto_tick_labels poloto_text" dominant-baseline="middle" text-anchor="end" x="135" y="256.8771598131102" >0.002</text><line  class="poloto_axis_lines" stroke="black" x1="150" x2="144" y1="185.31573971966532" y2="185.31573971966532" /><text  class="poloto_tick_labels poloto_text" dominant-baseline="middle" text-anchor="end" x="135" y="185.31573971966532" >0.003</text><line  class="poloto_axis_lines" stroke="black" x1="150" x2="144" y1="113.75431962622037" y2="113.75431962622037" /><text  class="poloto_tick_labels poloto_text" dominant-baseline="middle" text-anchor="end" x="135" y="113.75431962622037" >0.004</text><text  class="poloto_tick_labels poloto_text" dominant-baseline="middle" text-anchor="start" x="440.00000000000006" y="70" ></text><line  class="poloto_axis_lines" stroke="black" x1="150" x2="150" y1="400" y2="405" /><text  class="poloto_tick_labels poloto_text" dominant-baseline="start" text-anchor="middle" x="150" y="430" >0</text><line  class="poloto_axis_lines" stroke="black" x1="234.17508417508418" x2="234.17508417508418" y1="400" y2="405" /><text  class="poloto_tick_labels poloto_text" dominant-baseline="start" text-anchor="middle" x="234.17508417508418" y="430" >5000</text><line  class="poloto_axis_lines" stroke="black" x1="318.35016835016836" x2="318.35016835016836" y1="400" y2="405" /><text  class="poloto_tick_labels poloto_text" dominant-baseline="start" text-anchor="middle" x="318.35016835016836" y="430" >10000</text><line  class="poloto_axis_lines" stroke="black" x1="402.52525252525254" x2="402.52525252525254" y1="400" y2="405" /><text  class="poloto_tick_labels poloto_text" dominant-baseline="start" text-anchor="middle" x="402.52525252525254" y="430" >15000</text><line  class="poloto_axis_lines" stroke="black" x1="486.7003367003367" x2="486.7003367003367" y1="400" y2="405" /><text  class="poloto_tick_labels poloto_text" dominant-baseline="start" text-anchor="middle" x="486.7003367003367" y="430" >20000</text><line  class="poloto_axis_lines" stroke="black" x1="570.8754208754208" x2="570.8754208754208" y1="400" y2="405" /><text  class="poloto_tick_labels poloto_text" dominant-baseline="start" text-anchor="middle" x="570.8754208754208" y="430" >25000</text><path  stroke="black" fill="none" class="poloto_axis_lines" style="stroke-dasharray:8.417508417508419;stroke-dashoffset:-0;" d=" M 150 400 L 650 400" /><path  stroke="black" fill="none" class="poloto_axis_lines" style="stroke-dasharray:7.1561420093444905;stroke-dashoffset:-0;" d=" M 150 400 L 150 100" /></svg>