<svg class="poloto" height="500" viewBox="0 0 800 500" width="800" xmlns="http://www.w3.org/2000/svg">
<rect class="poloto_background" fill="white" height="500" width="800" x="0" y="0"/>
<style>
.poloto {
font-family: "Arial";
stroke-width:2;
}
.poloto_text{fill: var(--poloto_fg_color,black);  }
.poloto_axis_lines{stroke: var(--poloto_fg_color,black);stoke-width:3;fill:none}
.poloto_background{fill: var(--poloto_bg_color,aliceblue); }
.poloto0stroke{stroke:  var(--poloto_color0,blue); }
.poloto1stroke{stroke:  var(--poloto_color1,red); }
.poloto2stroke{stroke:  var(--poloto_color2,green); }
.poloto3stroke{stroke:  var(--poloto_color3,gold); }
.poloto4stroke{stroke:  var(--poloto_color4,aqua); }
.poloto5stroke{stroke:  var(--poloto_color5,brown); }
.poloto6stroke{stroke:  var(--poloto_color6,lime); }
.poloto7stroke{stroke:  var(--poloto_color7,chocolate); }
.poloto0fill{fill:var(--poloto_color0,blue);}
.poloto1fill{fill:var(--poloto_color1,red);}
.poloto2fill{fill:var(--poloto_color2,green);}
.poloto3fill{fill:var(--poloto_color3,gold);}
.poloto4fill{fill:var(--poloto_color4,aqua);}
.poloto5fill{fill:var(--poloto_color5,brown);}
.poloto6fill{fill:var(--poloto_color6,lime);}
.poloto7fill{fill:var(--poloto_color7,chocolate);}
</style>
<text alignment-baseline="start" class="poloto_text" text-anchor="middle" x="150" y="440">
5e3
</text>
<text alignment-baseline="start" class="poloto_text" text-anchor="middle" x="233.89261" y="440">
1e4
</text>
<text alignment-baseline="start" class="poloto_text" text-anchor="middle" x="317.78522" y="440">
1.5e4
</text>
<text alignment-baseline="start" class="poloto_text" text-anchor="middle" x="401.67786" y="440">
2e4
</text>
<text alignment-baseline="start" class="poloto_text" text-anchor="middle" x="485.57047" y="440">
2.5e4
</text>
<text alignment-baseline="start" class="poloto_text" text-anchor="middle" x="569.4631" y="440">
3e4
</text>
<text alignment-baseline="middle" class="poloto_text" text-anchor="end" x="120" y="400">
5e-4
</text>
<text alignment-baseline="middle" class="poloto_text" text-anchor="end" x="120" y="361.1061">
1e-3
</text>
<text alignment-baseline="middle" class="poloto_text" text-anchor="end" x="120" y="322.2122">
1.5e-3
</text>
<text alignment-baseline="middle" class="poloto_text" text-anchor="end" x="120" y="283.3183">
2e-3
</text>
<text alignment-baseline="middle" class="poloto_text" text-anchor="end" x="120" y="244.42438">
2.5e-3
</text>
<text alignment-baseline="middle" class="poloto_text" text-anchor="end" x="120" y="205.53049">
3e-3
</text>
<text alignment-baseline="middle" class="poloto_text" text-anchor="end" x="120" y="166.6366">
3.5e-3
</text>
<text alignment-baseline="middle" class="poloto_text" text-anchor="end" x="120" y="127.74271">
4e-3
</text>
<text alignment-baseline="middle" class="poloto_text" font-size="large" text-anchor="start" x="675" y="100">
default_par
</text>
<line class="poloto0stroke" x1="680" x2="730" y1="81.25" y2="81.25"/>
<polyline class="poloto0stroke" fill="none" points="650,307.8261 646.6443,305.37994 643.2886,289.10797 639.93286,276.12076 636.57715,307.2705 633.22144,295.83325 629.8657,315.0026 626.5101,310.02673 623.15436,306.26968 619.79865,312.51144 616.44293,316.86996 613.0873,314.31152 609.73157,309.46674 606.37585,313.55713 603.02014,318.07935 599.6644,319.4483 596.3087,316.03024 592.953,318.64398 589.5973,289.2956 586.2416,301.30634 582.88586,317.3559 579.53015,319.64386 576.1745,319.80826 572.8188,313.4817 569.4631,324.73758 566.10736,317.35855 562.7517,325.9976 559.396,304.49075 556.0403,322.09506 552.6846,323.57544 549.32886,324.09677 545.97314,317.1836 542.61743,313.9152 539.2617,329.4149 535.906,275.55618 532.5503,326.60153 529.1946,326.27786 525.8389,331.0748 522.4832,332.37775 519.1275,328.79865 515.7718,317.32486 512.41614,331.45682 509.0604,222.002 505.70468,333.2303 502.349,329.668 498.9933,339.59216 495.63757,340.5429 492.28186,338.87854 488.92618,333.81223 485.57047,337.40594 482.21475,324.13745 478.85904,323.42288 475.50336,336.801 472.14764,330.64914 468.79193,336.86533 465.43625,331.81207 462.08054,338.6045 458.72482,340.85492 455.3691,343.96936 452.01343,345.7476 448.6577,343.76596 445.302,340.095 441.9463,273.48474 438.5906,342.13092 435.2349,344.91153 431.87918,335.77692 428.5235,346.45258 425.1678,347.39157 421.81207,349.353 418.45636,346.29507 415.10068,348.22412 411.74496,348.92523 408.38925,344.08817 405.03357,199.51947 401.67786,354.61823 398.32214,350.85553 394.96643,352.78046 391.61072,352.07648 388.25504,350.7127 384.89932,358.1227 381.54364,355.27676 378.18793,358.05035 374.8322,350.1178 371.4765,347.3148 368.1208,361.4826 364.76508,357.3208 361.4094,362.27774 358.05368,360.7353 354.698,359.73105 351.3423,361.82767 347.98657,362.42072 344.63086,359.43622 341.27515,354.20343 337.91946,355.75336 334.56375,361.66476 331.20807,360.42282 327.85236,359.50732 324.49664,360.99362 321.14093,360.93024 317.78522,362.23114 314.4295,366.89337 311.07382,367.19962 307.71814,369.64316 304.36243,364.98407 301.0067,363.6349 297.651,366.69827 294.2953,365.94116 290.93958,371.173 287.5839,360.6217 284.22818,365.16602 280.8725,364.74106 277.51678,370.6488 274.16107,365.581 270.80536,372.77722 267.44965,370.63986 264.09396,372.78525 260.73825,373.20264 257.38254,373.4455 254.02684,372.21802 250.67114,373.5394 247.31543,382.3392 243.95973,364.65625 240.60403,379.22382 237.24832,379.40878 233.89261,376.1144 230.53691,379.9099 227.18121,381.8577 223.8255,378.99652 220.46979,378.46967 217.11409,379.00757 213.75839,370.1375 210.40268,369.57562 207.04698,375.39804 203.69127,383.94135 200.33557,379.22818 196.97986,254.49458 193.62416,382.05545 190.26846,381.68378 186.91275,378.3834 183.55704,380.12296 180.20134,388.41165 176.84564,389.6193 173.48993,390.7172 170.13423,392.2384 166.77852,393.2793 163.42282,395.05637 160.06711,396.0567 156.71141,397.26498 153.3557,398.70172 150,399.883 " stroke="black"/>
<text alignment-baseline="middle" class="poloto_text" font-size="large" text-anchor="start" x="675" y="150">
default_seq
</text>
<line class="poloto1stroke" x1="680" x2="730" y1="131.25" y2="131.25"/>
<polyline class="poloto1stroke" fill="none" points="650,154.85753 646.6443,155.27237 643.2886,152.24402 639.93286,155.05774 636.57715,157.89677 633.22144,164.35277 629.8657,157.74562 626.5101,163.8925 623.15436,169.64 619.79865,168.4007 616.44293,172.68906 613.0873,171.48615 609.73157,175.42749 606.37585,169.82327 603.02014,175.49213 599.6644,175.73912 596.3087,179.25629 592.953,179.10661 589.5973,182.0393 586.2416,181.00012 582.88586,179.72629 579.53015,186.84636 576.1745,190.33102 572.8188,192.26505 569.4631,190.60133 566.10736,191.78052 562.7517,196.95184 559.396,194.21404 556.0403,197.35167 552.6846,202.73459 549.32886,201.05391 545.97314,201.00887 542.61743,207.81873 539.2617,203.47575 535.906,208.45667 532.5503,210.24251 529.1946,211.67342 525.8389,208.88062 522.4832,215.2522 519.1275,212.26717 515.7718,211.207 512.41614,221.67747 509.0604,220.01982 505.70468,222.26967 502.349,223.5468 498.9933,228.64508 495.63757,227.13406 492.28186,232.38916 488.92618,230.13394 485.57047,232.17447 482.21475,232.35252 478.85904,234.11513 475.50336,235.1476 472.14764,240.1044 468.79193,240.28284 465.43625,241.48201 462.08054,239.9454 458.72482,246.51761 455.3691,247.21863 452.01343,248.88864 448.6577,251.2282 445.302,248.91129 441.9463,256.92062 438.5906,256.13263 435.2349,259.74884 431.87918,258.6504 428.5235,261.74316 425.1678,263.237 421.81207,262.96567 418.45636,276.2061 415.10068,279.30515 411.74496,277.42267 408.38925,280.43564 405.03357,281.48724 401.67786,284.18564 398.32214,285.97186 394.96643,285.53348 391.61072,289.05383 388.25504,288.38788 384.89932,289.17612 381.54364,293.03354 378.18793,293.3789 374.8322,294.43668 371.4765,297.22995 368.1208,297.97314 364.76508,301.71948 361.4094,302.36487 358.05368,303.5626 354.698,303.64395 351.3423,305.43253 347.98657,307.47266 344.63086,308.09137 341.27515,309.05127 337.91946,308.77808 334.56375,314.66864 331.20807,313.8984 327.85236,315.3769 324.49664,317.16998 321.14093,319.66434 317.78522,319.0888 314.4295,322.33838 311.07382,323.97806 307.71814,327.0986 304.36243,325.7552 301.0067,328.87463 297.651,329.5207 294.2953,330.3228 290.93958,333.35175 287.5839,333.14676 284.22818,336.96902 280.8725,343.9864 277.51678,343.55096 274.16107,345.05762 270.80536,346.79767 267.44965,347.9448 264.09396,348.79034 260.73825,350.8872 257.38254,352.28607 254.02684,353.90924 250.67114,353.81662 247.31543,355.58286 243.95973,358.78305 240.60403,360.06552 237.24832,360.81244 233.89261,363.12836 230.53691,363.25687 227.18121,365.12003 223.8255,367.47412 220.46979,366.6916 217.11409,369.15372 213.75839,373.1076 210.40268,374.25116 207.04698,376.3529 203.69127,376.73508 200.33557,377.99664 196.97986,380.22144 193.62416,381.7447 190.26846,383.20273 186.91275,383.8907 183.55704,385.53226 180.20134,387.9412 176.84564,389.2362 173.48993,390.3739 170.13423,391.5187 166.77852,392.6404 163.42282,394.8096 160.06711,395.9745 156.71141,397.11276 153.3557,398.62704 150,399.8662 " stroke="black"/>
<text alignment-baseline="middle" class="poloto_text" font-size="large" text-anchor="start" x="675" y="200">
direct_par
</text>
<line class="poloto2stroke" x1="680" x2="730" y1="181.25" y2="181.25"/>
<polyline class="poloto2stroke" fill="none" points="650,297.39423 646.6443,285.4195 643.2886,297.4311 639.93286,225.66309 636.57715,300.20496 633.22144,296.07224 629.8657,275.34186 626.5101,294.5774 623.15436,277.92847 619.79865,295.29224 616.44293,301.04675 613.0873,296.47766 609.73157,310.53073 606.37585,297.88934 603.02014,284.0843 599.6644,301.73245 596.3087,305.54407 592.953,303.28232 589.5973,308.50723 586.2416,309.7323 582.88586,305.03595 579.53015,305.08652 576.1745,309.6935 572.8188,308.75476 569.4631,310.17828 566.10736,279.32413 562.7517,314.56247 559.396,314.94214 556.0403,306.35422 552.6846,314.18753 549.32886,314.5183 545.97314,315.13873 542.61743,297.46457 539.2617,315.94556 535.906,309.84372 532.5503,275.63293 529.1946,319.9334 525.8389,317.35318 522.4832,322.47125 519.1275,312.305 515.7718,324.52655 512.41614,310.7046 509.0604,323.50177 505.70468,312.21942 502.349,305.76825 498.9933,286.8042 495.63757,322.82556 492.28186,332.24744 488.92618,326.40472 485.57047,325.60056 482.21475,283.8566 478.85904,311.30035 475.50336,315.7013 472.14764,322.7921 468.79193,327.77466 465.43625,328.52866 462.08054,329.57272 458.72482,336.99103 455.3691,324.3169 452.01343,322.78082 448.6577,302.29968 445.302,326.2749 441.9463,329.39932 438.5906,326.227 435.2349,334.85327 431.87918,333.2152 428.5235,238.50398 425.1678,332.87442 421.81207,328.4371 418.45636,340.7666 415.10068,316.67004 411.74496,336.24637 408.38925,339.04752 405.03357,344.9048 401.67786,346.72974 398.32214,335.4652 394.96643,345.8408 391.61072,341.7378 388.25504,339.95187 384.89932,348.85367 381.54364,345.8422 378.18793,340.1016 374.8322,350.62878 371.4765,342.3915 368.1208,349.03305 364.76508,334.77136 361.4094,347.08936 358.05368,346.10977 354.698,355.7791 351.3423,357.1978 347.98657,330.85394 344.63086,358.34393 341.27515,350.94632 337.91946,349.95715 334.56375,353.32257 331.20807,343.75662 327.85236,358.5069 324.49664,354.30737 321.14093,357.88235 317.78522,351.14078 314.4295,355.35394 311.07382,299.90546 307.71814,365.54428 304.36243,365.05112 301.0067,362.25027 297.651,361.43942 294.2953,359.2602 290.93958,367.3762 287.5839,360.00775 284.22818,362.58197 280.8725,373.23315 277.51678,366.26007 274.16107,359.8108 270.80536,366.7052 267.44965,372.08716 264.09396,371.59943 260.73825,365.93423 257.38254,368.35663 254.02684,364.88162 250.67114,366.03558 247.31543,369.16025 243.95973,371.124 240.60403,370.9216 237.24832,378.77365 233.89261,375.19766 230.53691,374.09302 227.18121,374.44345 223.8255,376.61163 220.46979,382.3701 217.11409,376.4531 213.75839,375.94608 210.40268,372.91888 207.04698,372.92105 203.69127,371.61905 200.33557,378.1796 196.97986,377.8451 193.62416,371.34018 190.26846,381.3647 186.91275,382.2706 183.55704,388.73282 180.20134,387.3538 176.84564,388.6741 173.48993,389.43494 170.13423,391.48395 166.77852,392.71262 163.42282,394.69962 160.06711,395.69437 156.71141,396.96964 153.3557,398.50757 150,399.83005 " stroke="black"/>
<text alignment-baseline="middle" class="poloto_text" font-size="large" text-anchor="start" x="675" y="250">
direct_seq
</text>
<line class="poloto3stroke" x1="680" x2="730" y1="231.25" y2="231.25"/>
<polyline class="poloto3stroke" fill="none" points="650,120.92749 646.6443,119.31619 643.2886,118.407104 639.93286,100 636.57715,119.967834 633.22144,130.29507 629.8657,122.80817 626.5101,130.01599 623.15436,136.37967 619.79865,135.33994 616.44293,139.31131 613.0873,138.63046 609.73157,144.25885 606.37585,138.85385 603.02014,145.60918 599.6644,144.89804 596.3087,148.86327 592.953,147.74477 589.5973,154.62921 586.2416,146.97855 582.88586,149.25897 579.53015,155.02391 576.1745,161.0282 572.8188,161.42087 569.4631,161.02245 566.10736,162.45264 562.7517,168.83086 559.396,162.04651 556.0403,168.96132 552.6846,174.63716 549.32886,174.7432 545.97314,172.79243 542.61743,180.90268 539.2617,174.99452 535.906,181.71843 532.5503,182.88858 529.1946,185.4433 525.8389,181.49991 522.4832,189.57452 519.1275,184.91971 515.7718,189.38458 512.41614,197.92583 509.0604,197.96713 505.70468,196.3024 502.349,197.77998 498.9933,204.8214 495.63757,203.74132 492.28186,209.01479 488.92618,206.52753 485.57047,209.18623 482.21475,209.65918 478.85904,210.92384 475.50336,212.4054 472.14764,218.65355 468.79193,220.057 465.43625,219.82364 462.08054,218.68172 458.72482,224.40681 455.3691,227.26195 452.01343,227.19107 448.6577,232.5876 445.302,227.64365 441.9463,236.75797 438.5906,237.53964 435.2349,240.12376 431.87918,240.36646 428.5235,243.68294 425.1678,244.9246 421.81207,244.6692 418.45636,259.8338 415.10068,264.8585 411.74496,262.4585 408.38925,266.2987 405.03357,266.99304 401.67786,269.27878 398.32214,270.96716 394.96643,270.1636 391.61072,276.46527 388.25504,274.46848 384.89932,274.90695 381.54364,280.2666 378.18793,279.36566 374.8322,280.51538 371.4765,283.5382 368.1208,285.02652 364.76508,289.88568 361.4094,290.02805 358.05368,291.75665 354.698,291.04254 351.3423,293.8462 347.98657,296.0289 344.63086,297.69373 341.27515,296.87997 337.91946,298.5473 334.56375,304.43784 331.20807,301.89987 327.85236,304.30856 324.49664,307.8727 321.14093,309.34805 317.78522,309.7456 314.4295,312.98383 311.07382,315.44608 307.71814,319.10388 304.36243,318.3202 301.0067,321.4285 297.651,321.54773 294.2953,323.13385 290.93958,325.3717 287.5839,325.83478 284.22818,329.7069 280.8725,337.14288 277.51678,336.9273 274.16107,339.22977 270.80536,339.85324 267.44965,342.04755 264.09396,342.81165 260.73825,345.83853 257.38254,346.26956 254.02684,348.41837 250.67114,349.02713 247.31543,350.51202 243.95973,354.39246 240.60403,355.91113 237.24832,356.4841 233.89261,358.91986 230.53691,358.9464 227.18121,361.35486 223.8255,363.29535 220.46979,364.26132 217.11409,366.0064 213.75839,370.85626 210.40268,372.3956 207.04698,374.22635 203.69127,374.01007 200.33557,375.1849 196.97986,377.76303 193.62416,379.8812 190.26846,381.71155 186.91275,382.44165 183.55704,384.26788 180.20134,386.78168 176.84564,388.2506 173.48993,389.49997 170.13423,390.73492 166.77852,391.8466 163.42282,394.40518 160.06711,395.70758 156.71141,396.85574 153.3557,398.46158 150,399.8179 " stroke="black"/>
<text alignment-baseline="middle" class="poloto_text" font-size="large" text-anchor="start" x="675" y="300">
indirect_par
</text>
<line class="poloto4stroke" x1="680" x2="730" y1="281.25" y2="281.25"/>
<polyline class="poloto4stroke" fill="none" points="650,292.84457 646.6443,290.77536 643.2886,287.6637 639.93286,260.89636 636.57715,306.88815 633.22144,295.65942 629.8657,301.4784 626.5101,305.2025 623.15436,312.64142 619.79865,300.95465 616.44293,285.96884 613.0873,304.91296 609.73157,306.85947 606.37585,308.56418 603.02014,307.74484 599.6644,303.41852 596.3087,310.55142 592.953,313.95917 589.5973,197.67738 586.2416,270.6344 582.88586,259.2709 579.53015,319.37195 576.1745,311.42545 572.8188,316.49854 569.4631,307.92926 566.10736,282.55414 562.7517,324.0098 559.396,303.26053 556.0403,322.03897 552.6846,311.03583 549.32886,312.97507 545.97314,316.01688 542.61743,326.06393 539.2617,319.6131 535.906,319.1084 532.5503,324.16116 529.1946,327.29144 525.8389,328.16165 522.4832,322.96832 519.1275,323.03156 515.7718,325.90228 512.41614,328.7334 509.0604,299.34048 505.70468,325.4611 502.349,323.65103 498.9933,317.68146 495.63757,337.28656 492.28186,331.0097 488.92618,332.46262 485.57047,333.59747 482.21475,337.01614 478.85904,340.72888 475.50336,329.5293 472.14764,329.9177 468.79193,327.63953 465.43625,329.98422 462.08054,332.7603 458.72482,339.29395 455.3691,330.78046 452.01343,341.50467 448.6577,339.24896 445.302,332.8601 441.9463,332.96954 438.5906,332.36273 435.2349,339.76337 431.87918,306.74286 428.5235,339.4254 425.1678,346.69092 421.81207,345.43738 418.45636,340.86713 415.10068,349.55795 411.74496,344.61322 408.38925,335.5081 405.03357,354.63983 401.67786,344.30627 398.32214,346.0813 394.96643,347.77243 391.61072,349.93585 388.25504,350.03363 384.89932,349.68762 381.54364,349.81458 378.18793,354.80762 374.8322,354.4522 371.4765,352.5002 368.1208,352.21262 364.76508,342.8955 361.4094,357.8415 358.05368,342.64798 354.698,359.31302 351.3423,361.84842 347.98657,365.86206 344.63086,360.83212 341.27515,345.0328 337.91946,349.38208 334.56375,361.756 331.20807,359.2129 327.85236,361.39975 324.49664,362.63394 321.14093,362.0169 317.78522,365.94885 314.4295,362.9635 311.07382,352.1508 307.71814,366.80554 304.36243,364.77728 301.0067,361.2606 297.651,365.2848 294.2953,197.56108 290.93958,366.75854 287.5839,363.35898 284.22818,365.15457 280.8725,368.68652 277.51678,362.46527 274.16107,368.7752 270.80536,375.5526 267.44965,352.57028 264.09396,371.0547 260.73825,372.05646 257.38254,369.5751 254.02684,365.33783 250.67114,371.6714 247.31543,372.5659 243.95973,375.95844 240.60403,374.82266 237.24832,377.96753 233.89261,378.5193 230.53691,375.84488 227.18121,379.33987 223.8255,379.9403 220.46979,381.65018 217.11409,377.26962 213.75839,376.77325 210.40268,370.47122 207.04698,372.42517 203.69127,381.1044 200.33557,379.7827 196.97986,388.00623 193.62416,379.27594 190.26846,382.43045 186.91275,375.6469 183.55704,383.75183 180.20134,389.67358 176.84564,390.865 173.48993,391.81976 170.13423,393.1559 166.77852,394.05368 163.42282,395.6577 160.06711,396.63202 156.71141,397.67126 153.3557,398.90793 150,400 " stroke="black"/>
<text alignment-baseline="middle" class="poloto_text" font-size="large" text-anchor="start" x="675" y="350">
indirect_seq
</text>
<line class="poloto5stroke" x1="680" x2="730" y1="331.25" y2="331.25"/>
<polyline class="poloto5stroke" fill="none" points="650,151.22484 646.6443,152.57088 643.2886,153.95097 639.93286,152.48485 636.57715,154.34117 633.22144,162.70654 629.8657,159.58266 626.5101,160.59453 623.15436,169.31633 619.79865,167.75063 616.44293,171.28017 613.0873,168.87482 609.73157,177.24982 606.37585,169.27356 603.02014,178.44022 599.6644,171.52628 596.3087,182.05463 592.953,181.02402 589.5973,181.74394 586.2416,178.92017 582.88586,171.50426 579.53015,192.03961 576.1745,194.37901 572.8188,189.56154 569.4631,186.95065 566.10736,189.08852 562.7517,197.52866 559.396,196.5517 556.0403,196.76733 552.6846,202.63945 549.32886,201.49278 545.97314,203.7904 542.61743,212.78136 539.2617,205.54079 535.906,208.41287 532.5503,214.30234 529.1946,215.31987 525.8389,213.67537 522.4832,215.21945 519.1275,214.46935 515.7718,223.32712 512.41614,226.008 509.0604,222.49782 505.70468,222.51314 502.349,223.78467 498.9933,230.27101 495.63757,229.2708 492.28186,233.6361 488.92618,228.5421 485.57047,233.97067 482.21475,234.05257 478.85904,236.86337 475.50336,240.7883 472.14764,244.84268 468.79193,245.84421 465.43625,246.96729 462.08054,242.21393 458.72482,247.39427 455.3691,248.78526 452.01343,248.66508 448.6577,254.45958 445.302,252.3436 441.9463,258.12112 438.5906,259.61792 435.2349,263.22565 431.87918,261.09137 428.5235,264.3121 425.1678,267.99335 421.81207,266.45477 418.45636,279.0735 415.10068,284.98212 411.74496,279.66626 408.38925,285.2896 405.03357,284.50494 401.67786,288.5984 398.32214,288.8501 394.96643,289.87808 391.61072,292.45215 388.25504,292.85696 384.89932,291.85318 381.54364,294.46313 378.18793,296.89267 374.8322,296.0398 371.4765,299.35925 368.1208,301.73215 364.76508,302.06897 361.4094,305.5362 358.05368,307.81595 354.698,305.35138 351.3423,307.85965 347.98657,311.0965 344.63086,311.98776 341.27515,312.07413 337.91946,310.80237 334.56375,318.01035 331.20807,318.6695 327.85236,319.23108 324.49664,323.37924 321.14093,324.11792 317.78522,324.11902 314.4295,325.16595 311.07382,327.18884 307.71814,331.42072 304.36243,330.18265 301.0067,333.8271 297.651,333.4608 294.2953,334.85538 290.93958,336.5817 287.5839,337.7041 284.22818,339.70792 280.8725,347.5568 277.51678,345.97247 274.16107,347.9665 270.80536,349.19772 267.44965,349.8184 264.09396,350.7422 260.73825,353.98315 257.38254,355.0466 254.02684,356.85864 250.67114,356.9191 247.31543,359.04163 243.95973,362.00967 240.60403,363.4815 237.24832,363.93936 233.89261,365.69278 230.53691,366.17072 227.18121,368.40353 223.8255,369.9467 220.46979,370.29276 217.11409,371.6991 213.75839,375.33957 210.40268,376.8894 207.04698,378.4761 203.69127,378.98383 200.33557,380.1231 196.97986,381.98605 193.62416,383.412 190.26846,384.9706 186.91275,385.39276 183.55704,387.01108 180.20134,389.08133 176.84564,390.4209 173.48993,391.5068 170.13423,392.5043 166.77852,393.43182 163.42282,395.35623 160.06711,396.4564 156.71141,397.47284 153.3557,398.7957 150,399.97977 " stroke="black"/>
<text alignment-baseline="start" class="poloto_text" font-size="x-large" text-anchor="middle" x="400" y="37.5">
Bench of rebal:16_bytes with abspiral(num,0.1)
</text>
<text alignment-baseline="start" class="poloto_text" font-size="large" text-anchor="middle" x="400" y="481.25">
Number of Elements
</text>
<text alignment-baseline="start" class="poloto_text" font-size="large" text-anchor="middle" transform="rotate(-90,37.5,250)" x="37.5" y="250">
Time in Seconds
</text>
<path class="poloto_axis_lines" d="M150,100 L150,400 L650,400" stroke="black"/>
</svg>