<svg class="poloto" width="800" height="500" viewBox="0 0 800 500" xmlns="http://www.w3.org/2000/svg" ><rect class="poloto_background" fill="white" x="0" y="0" width="800" height="500" /><style><style>.poloto {
            font-family: "Arial";
            stroke-width:2;
            }
            .poloto_text{fill: var(--poloto_fg_color,black);  }
            .poloto_axis_lines{stroke: var(--poloto_fg_color,black);stoke-width:3;fill:none}
            .poloto_background{fill: var(--poloto_bg_color,aliceblue); }
            .poloto0stroke{stroke:  var(--poloto_color0,blue); }
            .poloto1stroke{stroke:  var(--poloto_color1,red); }
            .poloto2stroke{stroke:  var(--poloto_color2,green); }
            .poloto3stroke{stroke:  var(--poloto_color3,gold); }
            .poloto4stroke{stroke:  var(--poloto_color4,aqua); }
            .poloto5stroke{stroke:  var(--poloto_color5,brown); }
            .poloto6stroke{stroke:  var(--poloto_color6,lime); }
            .poloto7stroke{stroke:  var(--poloto_color7,chocolate); }
            .poloto0fill{fill:var(--poloto_color0,blue);}
            .poloto1fill{fill:var(--poloto_color1,red);}
            .poloto2fill{fill:var(--poloto_color2,green);}
            .poloto3fill{fill:var(--poloto_color3,gold);}
            .poloto4fill{fill:var(--poloto_color4,aqua);}
            .poloto5fill{fill:var(--poloto_color5,brown);}
            .poloto6fill{fill:var(--poloto_color6,lime);}
            .poloto7fill{fill:var(--poloto_color7,chocolate);}</style></style><line class="poloto_axis_lines" stroke="black" x1="150" x2="150" y1="400" y2="405" /><text class="poloto_text" alignment-baseline="start" text-anchor="middle" x="150" y="430" >0</text><line class="poloto_axis_lines" stroke="black" x1="234.17508417508418" x2="234.17508417508418" y1="400" y2="405" /><text class="poloto_text" alignment-baseline="start" text-anchor="middle" x="234.17508417508418" y="430" >5000</text><line class="poloto_axis_lines" stroke="black" x1="318.35016835016836" x2="318.35016835016836" y1="400" y2="405" /><text class="poloto_text" alignment-baseline="start" text-anchor="middle" x="318.35016835016836" y="430" >10000</text><line class="poloto_axis_lines" stroke="black" x1="402.52525252525254" x2="402.52525252525254" y1="400" y2="405" /><text class="poloto_text" alignment-baseline="start" text-anchor="middle" x="402.52525252525254" y="430" >15000</text><line class="poloto_axis_lines" stroke="black" x1="486.7003367003367" x2="486.7003367003367" y1="400" y2="405" /><text class="poloto_text" alignment-baseline="start" text-anchor="middle" x="486.7003367003367" y="430" >20000</text><line class="poloto_axis_lines" stroke="black" x1="570.8754208754208" x2="570.8754208754208" y1="400" y2="405" /><text class="poloto_text" alignment-baseline="start" text-anchor="middle" x="570.8754208754208" y="430" >25000</text><line class="poloto_axis_lines" stroke="black" x1="150" x2="144" y1="362.5448698843587" y2="362.5448698843587" /><text class="poloto_text" alignment-baseline="middle" text-anchor="end" x="135" y="362.5448698843587" >0.002</text><line class="poloto_axis_lines" stroke="black" x1="150" x2="144" y1="325.0869678839694" y2="325.0869678839694" /><text class="poloto_text" alignment-baseline="middle" text-anchor="end" x="135" y="325.0869678839694" >0.004</text><line class="poloto_axis_lines" stroke="black" x1="150" x2="144" y1="287.6290658835801" y2="287.6290658835801" /><text class="poloto_text" alignment-baseline="middle" text-anchor="end" x="135" y="287.6290658835801" >0.006</text><line class="poloto_axis_lines" stroke="black" x1="150" x2="144" y1="250.1711638831908" y2="250.1711638831908" /><text class="poloto_text" alignment-baseline="middle" text-anchor="end" x="135" y="250.1711638831908" >0.008</text><line class="poloto_axis_lines" stroke="black" x1="150" x2="144" y1="212.71326188280148" y2="212.71326188280148" /><text class="poloto_text" alignment-baseline="middle" text-anchor="end" x="135" y="212.71326188280148" >0.010</text><line class="poloto_axis_lines" stroke="black" x1="150" x2="144" y1="175.25535988241217" y2="175.25535988241217" /><text class="poloto_text" alignment-baseline="middle" text-anchor="end" x="135" y="175.25535988241217" >0.012</text><line class="poloto_axis_lines" stroke="black" x1="150" x2="144" y1="137.79745788202285" y2="137.79745788202285" /><text class="poloto_text" alignment-baseline="middle" text-anchor="end" x="135" y="137.79745788202285" >0.014</text><line class="poloto_axis_lines" stroke="black" x1="150" x2="144" y1="100.33955588163354" y2="100.33955588163354" /><text class="poloto_text" alignment-baseline="middle" text-anchor="end" x="135" y="100.33955588163354" >0.016</text><text class="poloto_text" alignment-baseline="middle" text-anchor="start" font-size="large" x="675" y="100" >default_par</text><line class="poloto0stroke" stroke="black" x1="680" x2="730" y1="81.25" y2="81.25" /><polyline class="poloto0stroke" fill="none" stroke="black"  points="650,377.7140840837504 644.9494949494949,377.57732528354694 639.8989898989898,377.45068011688363 634.8484848484848,378.99759782474473 629.7979797979798,379.50350424916195 624.7474747474747,379.1895321145947 619.6969696969697,380.4510393381638 614.6464646464647,378.447940570791 609.5959595959596,378.930229787997 604.5454545454545,373.57794508696537 599.4949494949494,379.11667649520393 594.4444444444445,378.3028473873925 589.3939393939394,380.04409669083157 584.3434343434344,379.13364492481014 579.2929292929293,381.5752446219505 574.2424242424242,380.25095795462875 569.1919191919192,379.26868066152156 564.1414141414141,381.047425324863 559.090909090909,381.9199696940601 554.040404040404,383.19902594471637 548.989898989899,379.8367484743084 543.939393939394,380.97494428449227 538.8888888888889,380.0660844793058 533.8383838383838,382.66695517575187 528.7878787878788,383.8799544162305 523.7373737373737,372.575346882023 518.6868686868687,381.8715928136266 513.6363636363636,383.43364351389584 508.5858585858586,383.4826946365653 503.5353535353535,380.9675463488472 498.4848484848485,382.28994139211795 493.4343434343434,384.9530483927376 488.3838383838384,384.9251609846983 483.3333333333333,385.4113645526634 478.2828282828283,383.4239044593757 473.2323232323232,384.89635585806 468.1818181818182,384.416445217631 463.1313131313131,384.37025962446455 458.0808080808081,386.30707663424766 453.030303030303,385.79030741825034 447.979797979798,385.21583430422135 442.9292929292929,386.4661603440433 437.8787878787879,386.91131005141597 432.8282828282828,387.7662304777219 427.77777777777777,387.10743962629 422.72727272727275,388.0869075767472 417.67676767676767,379.0045837234678 412.62626262626264,388.35334563367593 407.57575757575756,389.0800102035325 402.52525252525254,387.40882590578514 397.47474747474746,389.0235986031199 392.4242424242424,389.0883633156786 387.37373737373736,388.8764452351114 382.32323232323233,389.3280751595301 377.27272727272725,387.99442401670825 372.22222222222223,387.95900757036685 367.1717171717172,389.63412494782426 362.1212121212121,386.78457123999766 357.07070707070704,389.41321697077694 352.020202020202,387.393674184426 346.969696969697,389.99761642883607 341.9191919191919,391.2050906287696 336.86868686868684,390.1453878522276 331.8181818181818,390.48760324490314 326.7676767676768,390.60523978613537 321.7171717171717,390.61151398472043 316.66666666666663,390.8664150078331 311.6161616161616,389.1809405204726 306.5656565656566,391.44987801834213 301.5151515151515,390.4959750860002 296.4646464646464,390.42774551750654 291.4141414141414,391.917839588033 286.3636363636364,392.57882172673186 281.3131313131313,392.10612173243794 276.26262626262627,391.3234388701398 271.2121212121212,394.14518008573117 266.16161616161617,391.5524002961172 261.1111111111111,394.5573481103924 256.06060606060606,394.9899306916439 251.010101010101,393.6386743348819 245.95959595959596,392.2269047374382 240.9090909090909,393.9111805719347 235.85858585858585,394.2008612570547 230.8080808080808,392.8209870631644 225.75757575757575,392.691925861822 220.7070707070707,395.379605246154 215.65656565656565,391.88487663427264 210.6060606060606,392.87307227589594 205.55555555555554,393.0039876433873 200.50505050505052,393.33661381315073 195.45454545454544,393.6073595288096 190.40404040404042,393.9458478602361 185.35353535353534,396.60951672938575 180.3030303030303,397.33058134289325 175.25252525252526,397.78423399402 170.2020202020202,398.17712992810203 165.15151515151516,398.77625034164726 160.1010101010101,399.133186689809 155.05050505050505,399.619053136656 150,399.999400673568 "/><text class="poloto_text" alignment-baseline="middle" text-anchor="start" font-size="large" x="675" y="150" >default_seq</text><line class="poloto1stroke" stroke="black" x1="680" x2="730" y1="131.25" y2="131.25" /><polyline class="poloto1stroke" fill="none" stroke="black"  points="650,342.41064823271745 644.9494949494949,343.24663368956215 639.8989898989898,343.58562770266565 634.8484848484848,343.30744659345976 629.7979797979798,344.3000435385681 624.7474747474747,344.8379390112937 619.6969696969697,346.23131677885516 614.6464646464647,347.0629383901168 609.5959595959596,346.7539668854666 604.5454545454545,347.02566777762644 599.4949494949494,348.75790845563444 594.4444444444445,347.849591790027 589.3939393939394,350.0128792753045 584.3434343434344,349.8228366095055 579.2929292929293,350.8835694783525 574.2424242424242,350.76761854271035 569.1919191919192,350.3573046841981 564.1414141414141,351.38616087844275 559.090909090909,351.7901818094189 554.040404040404,352.53364624832267 548.989898989899,354.11043663302905 543.939393939394,354.39015351621697 538.8888888888889,354.9615925401839 533.8383838383838,355.70571249237264 528.7878787878788,355.6543764376811 523.7373737373737,357.00975316366316 518.6868686868687,357.2282638349825 513.6363636363636,358.3868554728055 508.5858585858586,357.67225234739306 503.5353535353535,358.6856571570626 498.4848484848485,359.6301394270514 493.4343434343434,359.74004091152057 488.3838383838384,360.737994336615 483.3333333333333,361.5633417492915 478.2828282828283,361.5521043786914 473.2323232323232,362.664266946985 468.1818181818182,363.47004260586635 463.1313131313131,363.82094823180597 458.0808080808081,363.61871301890585 453.030303030303,364.4854326843419 447.979797979798,365.1864760492302 442.9292929292929,366.00251517325967 437.8787878787879,366.1807398709775 432.8282828282828,366.902609829378 427.77777777777777,367.4869156426821 422.72727272727275,370.9121036594997 417.67676767676767,370.72818536067774 412.62626262626264,372.0369457276204 407.57575757575756,371.903539409646 402.52525252525254,372.8760214613801 397.47474747474746,373.0094839662075 392.4242424242424,373.51610209076273 387.37373737373736,374.6545601062606 382.32323232323233,375.36118469854694 377.27272727272725,375.47979514523115 372.22222222222223,375.6965827530584 367.1717171717172,376.94093425751134 362.1212121212121,377.3683289193358 357.07070707070704,377.28043395229184 352.020202020202,378.0038584136254 346.969696969697,378.54637993724805 341.9191919191919,378.88436258699755 336.86868686868684,379.9948208207501 331.8181818181818,379.8145733963242 326.7676767676768,380.12581110404545 321.7171717171717,380.8660916212791 316.66666666666663,381.50482376618976 311.6161616161616,382.6219120485964 306.5656565656566,382.8512105956918 301.5151515151515,383.2104506048265 296.4646464646464,383.85982079390527 291.4141414141414,384.3939892053818 286.3636363636364,386.1778468723463 281.3131313131313,386.87231637543357 276.26262626262627,386.55150817375124 271.2121212121212,387.66106741785575 266.16161616161617,388.16983937177605 261.1111111111111,388.55754738643105 256.06060606060606,389.1826823129156 251.010101010101,389.4244730703281 245.95959595959596,390.1946449933581 240.9090909090909,390.8492967466189 235.85858585858585,391.1191809305317 230.8080808080808,391.6878106118486 225.75757575757575,392.205122967425 220.7070707070707,392.6185271028523 215.65656565656565,393.55712848222703 210.6060606060606,394.2567109889373 205.55555555555554,394.6306344956562 200.50505050505052,395.08713394733496 195.45454545454544,395.5583730834508 190.40404040404042,395.92199566711963 185.35353535353534,396.3153410960257 180.3030303030303,397.1968753617029 175.25252525252526,397.63414018070443 170.2020202020202,398.08329788359106 165.15151515151516,398.6996489320565 160.1010101010101,399.0985943173116 155.05050505050505,399.57584544669857 150,400 "/><text class="poloto_text" alignment-baseline="middle" text-anchor="start" font-size="large" x="675" y="200" >direct_par</text><line class="poloto2stroke" stroke="black" x1="680" x2="730" y1="181.25" y2="181.25" /><polyline class="poloto2stroke" fill="none" stroke="black"  points="650,265.9400603646577 644.9494949494949,300.0890811339406 639.8989898989898,295.6705282850237 634.8484848484848,295.32312497292105 629.7979797979798,307.2291003947938 624.7474747474747,303.3213984133582 619.6969696969697,303.27186033796266 614.6464646464647,305.1110433261818 609.5959595959596,305.7453741676074 604.5454545454545,305.4046009041589 599.4949494949494,141.5534179024549 594.4444444444445,308.2896647030818 589.3939393939394,315.22520127691496 584.3434343434344,312.5964057145276 579.2929292929293,315.60292676068684 574.2424242424242,311.5579415684198 569.1919191919192,318.602068600152 564.1414141414141,314.8324177165388 559.090909090909,323.3419915192813 554.040404040404,321.8952362413693 548.989898989899,324.12855127443646 543.939393939394,323.9793377218179 538.8888888888889,324.6057087590684 533.8383838383838,329.6976610411973 528.7878787878788,332.00918817364135 523.7373737373737,332.64593504974596 518.6868686868687,326.8949858977242 513.6363636363636,329.6282890066926 508.5858585858586,337.01118530411634 503.5353535353535,332.6872323867014 498.4848484848485,338.24085331098513 493.4343434343434,336.4176461179692 488.3838383838384,340.6213217120609 483.3333333333333,342.84102079775096 478.2828282828283,343.2197201869749 473.2323232323232,340.61933644325484 468.1818181818182,344.5325260073335 463.1313131313131,345.449907485225 458.0808080808081,345.57739545468337 453.030303030303,343.8285047392362 447.979797979798,349.5644332725558 442.9292929292929,346.697873677221 437.8787878787879,346.49060037650185 432.8282828282828,348.31980083383786 427.77777777777777,350.38760812691635 422.72727272727275,352.86018550901105 417.67676767676767,329.7122321650755 412.62626262626264,333.44180309354823 407.57575757575756,353.12722289237183 402.52525252525254,339.4479716608497 397.47474747474746,358.93256091809815 392.4242424242424,355.0471651173038 387.37373737373736,356.99381482636204 382.32323232323233,357.2906874286661 377.27272727272725,360.70851496774065 372.22222222222223,358.4746567950944 367.1717171717172,361.63380006295426 362.1212121212121,359.65845760096374 357.07070707070704,362.47364368370495 352.020202020202,359.53819900659147 346.969696969697,362.12519155034636 341.9191919191919,363.64506465296313 336.86868686868684,366.0751273162874 331.8181818181818,366.12369148623094 326.7676767676768,367.5555197901958 321.7171717171717,363.7108594578268 316.66666666666663,371.0254138130509 311.6161616161616,369.4132444399051 306.5656565656566,370.55623486154497 301.5151515151515,371.16024353130126 296.4646464646464,369.49293612641094 291.4141414141414,372.05531882855155 286.3636363636364,371.8470154355274 281.3131313131313,376.63239351873415 276.26262626262627,377.0565480720355 271.2121212121212,377.5948743106341 266.16161616161617,378.8156273368268 261.1111111111111,376.9526398518865 256.06060606060606,378.76269932130026 251.010101010101,381.330082653358 245.95959595959596,380.54743724896184 240.9090909090909,381.48345403309855 235.85858585858585,383.01559459862045 230.8080808080808,373.926902902001 225.75757575757575,380.67589912387217 220.7070707070707,383.88767074404257 215.65656565656565,383.18769492936127 210.6060606060606,383.5383570789379 205.55555555555554,385.5867049919272 200.50505050505052,385.83842209336984 195.45454545454544,386.14750597172605 190.40404040404042,388.44813285468797 185.35353535353534,389.2506871339973 180.3030303030303,389.74095488432937 175.25252525252526,391.46753941913533 170.2020202020202,393.07294764097 165.15151515151516,395.5156336172684 160.1010101010101,396.8088114969788 155.05050505050505,398.5957407119074 150,399.996853536232 "/><text class="poloto_text" alignment-baseline="middle" text-anchor="start" font-size="large" x="675" y="250" >direct_seq</text><line class="poloto3stroke" stroke="black" x1="680" x2="730" y1="231.25" y2="231.25" /><polyline class="poloto3stroke" fill="none" stroke="black"  points="650,100 644.9494949494949,124.36404286132921 639.8989898989898,124.52157206819192 634.8484848484848,125.19122571120386 629.7979797979798,132.0567347372472 624.7474747474747,135.95134518193368 619.6969696969697,141.65605255393598 614.6464646464647,148.85006738052274 609.5959595959596,145.70588854451208 604.5454545454545,150.69646101487692 599.4949494949494,136.16687795004395 594.4444444444445,155.08785688484357 589.3939393939394,163.03361434667613 584.3434343434344,166.2497685413806 579.2929292929293,170.08609449055444 574.2424242424242,169.1961509258782 569.1919191919192,167.48447463606843 564.1414141414141,174.9432231850429 559.090909090909,183.70874683215405 554.040404040404,182.97627628748742 548.989898989899,192.40467369734841 543.939393939394,191.37774658505674 538.8888888888889,197.67466338768517 533.8383838383838,198.85867021201548 528.7878787878788,200.76995966158535 523.7373737373737,207.22642839778445 518.6868686868687,200.04189042040377 513.6363636363636,216.9577291321716 508.5858585858586,213.08617402616636 503.5353535353535,216.17266769309643 498.4848484848485,222.88197726779816 493.4343434343434,224.53870281537337 488.3838383838384,226.9739159402227 483.3333333333333,232.49256991298904 478.2828282828283,231.3207556357599 473.2323232323232,238.36344053826508 468.1818181818182,241.33452640913197 463.1313131313131,244.31932187213098 458.0808080808081,243.67598240527428 453.030303030303,247.30267520590297 447.979797979798,249.9667561119747 442.9292929292929,254.07693678267339 437.8787878787879,255.51908473863938 432.8282828282828,257.57664729552073 427.77777777777777,260.86502032528193 422.72727272727275,277.128023992036 417.67676767676767,276.1459901752918 412.62626262626264,277.25858350945833 407.57575757575756,279.07838203339224 402.52525252525254,284.8857989726796 397.47474747474746,284.158235413175 392.4242424242424,285.35203747887846 387.37373737373736,291.8797698736333 382.32323232323233,294.1343422660857 377.27272727272725,296.5197925681275 372.22222222222223,296.761171288618 367.1717171717172,302.6882849537476 362.1212121212121,304.80632329340864 357.07070707070704,303.69063968232706 352.020202020202,306.63754647745264 346.969696969697,310.4877880372197 341.9191919191919,311.47289340192793 336.86868686868684,315.85977559470354 331.8181818181818,315.86162976085257 326.7676767676768,318.93750411256553 321.7171717171717,320.5532132574503 316.66666666666663,323.0765460967555 311.6161616161616,328.221651141823 306.5656565656566,329.0257037372123 301.5151515151515,329.9981483310445 296.4646464646464,332.8673299795193 291.4141414141414,335.9921805380977 286.3636363636364,342.0891283308971 281.3131313131313,343.81608744472305 276.26262626262627,346.47138447277564 271.2121212121212,347.7033374116665 266.16161616161617,350.53674676373095 261.1111111111111,351.24144227406424 256.06060606060606,354.6405034042366 251.010101010101,355.71560137850076 245.95959595959596,359.5632958009317 240.9090909090909,361.8218949178492 235.85858585858585,363.11827544818067 230.8080808080808,366.4990945800788 225.75757575757575,368.02979301637373 220.7070707070707,369.9947970974122 215.65656565656565,374.12132814233405 210.6060606060606,376.6004793862298 205.55555555555554,378.45355925609107 200.50505050505052,380.078314484309 195.45454545454544,382.25004872648753 190.40404040404042,384.06012692485234 185.35353535353534,385.3919800883782 180.3030303030303,388.644674466484 175.25252525252526,390.3612577414558 170.2020202020202,392.3569211152816 165.15151515151516,394.93456791248735 160.1010101010101,396.46080885844424 155.05050505050505,398.2370251134007 150,399.999007365597 "/><text class="poloto_text" alignment-baseline="middle" text-anchor="start" font-size="large" x="675" y="300" >indirect_par</text><line class="poloto4stroke" stroke="black" x1="680" x2="730" y1="281.25" y2="281.25" /><polyline class="poloto4stroke" fill="none" stroke="black"  points="650,358.7134134624449 644.9494949494949,369.3679952942886 639.8989898989898,367.46532116217884 634.8484848484848,369.5747816422818 629.7979797979798,372.02248697744824 624.7474747474747,370.15566005755284 619.6969696969697,368.89398427342473 614.6464646464647,373.8858303124576 609.5959595959596,372.7881452232872 604.5454545454545,363.58610591521455 599.4949494949494,374.1688809489235 594.4444444444445,372.6670063682179 589.3939393939394,373.7105647889978 584.3434343434344,373.5908867921065 579.2929292929293,375.0195311744014 574.2424242424242,371.9629289132676 569.1919191919192,371.66830378508354 564.1414141414141,375.0184823531454 559.090909090909,376.2429249826851 554.040404040404,376.3540625779202 548.989898989899,375.59406047528336 543.939393939394,375.66461243370105 538.8888888888889,375.80657788228257 533.8383838383838,377.75300284392875 528.7878787878788,375.9997857408006 523.7373737373737,376.34651481066714 518.6868686868687,370.1154677287064 513.6363636363636,379.83989493807644 508.5858585858586,378.63243946709395 503.5353535353535,380.6298633623137 498.4848484848485,379.20230525917685 493.4343434343434,379.9772530647119 488.3838383838384,381.27029984176534 483.3333333333333,380.12120378209937 478.2828282828283,381.3195757118468 473.2323232323232,380.23149857453956 468.1818181818182,382.62972202116345 463.1313131313131,379.7396014054704 458.0808080808081,380.80539109108753 453.030303030303,379.6423045050244 447.979797979798,382.3823500363529 442.9292929292929,382.2693395460177 437.8787878787879,382.13819943111434 432.8282828282828,384.2693854943775 427.77777777777777,382.8939875197762 422.72727272727275,384.8273584025753 417.67676767676767,376.1585323294782 412.62626262626264,384.86077085115966 407.57575757575756,383.5253591869438 402.52525252525254,384.75349141983054 397.47474747474746,384.46070172884447 392.4242424242424,383.35589963829403 387.37373737373736,386.3682266592633 382.32323232323233,384.79415197245197 377.27272727272725,385.79113149209434 372.22222222222223,385.67813973071014 367.1717171717172,385.6160719870955 362.1212121212121,387.9582022254738 357.07070707070704,387.70914463507324 352.020202020202,385.9047225799105 346.969696969697,384.79074330336994 341.9191919191919,388.0124038096684 336.86868686868684,385.95845594033005 331.8181818181818,389.5513429844034 326.7676767676768,389.8605579654166 321.7171717171717,386.2189381908408 316.66666666666663,390.48897045832615 311.6161616161616,390.69180499765827 306.5656565656566,389.2802226897246 301.5151515151515,390.9058394496885 296.4646464646464,390.66116443382197 291.4141414141414,391.6874547617796 286.3636363636364,389.4457678876153 281.3131313131313,389.9632675327017 276.26262626262627,391.7738514127435 271.2121212121212,391.0323909715968 266.16161616161617,390.12570372472635 261.1111111111111,391.34271096071905 256.06060606060606,391.3811240392204 251.010101010101,390.08603580650794 245.95959595959596,390.8015004636664 240.9090909090909,392.43975926555544 235.85858585858585,391.728433706568 230.8080808080808,394.1395426714801 225.75757575757575,391.98959019931476 220.7070707070707,392.90268274742726 215.65656565656565,392.27973910820975 210.6060606060606,393.62236141856073 205.55555555555554,392.6497669931206 200.50505050505052,393.9719560179303 195.45454545454544,393.5731979221852 190.40404040404042,393.9106748902577 185.35353535353534,394.9347739309484 180.3030303030303,397.401695169841 175.25252525252526,397.8482870064406 170.2020202020202,398.266804145491 165.15151515151516,398.8816381489254 160.1010101010101,399.21439542134584 155.05050505050505,399.64770843168634 150,399.99861405762596 "/><text class="poloto_text" alignment-baseline="middle" text-anchor="start" font-size="large" x="675" y="350" >indirect_seq</text><line class="poloto5stroke" stroke="black" x1="680" x2="730" y1="331.25" y2="331.25" /><polyline class="poloto5stroke" fill="none" stroke="black"  points="650,313.5815672660888 644.9494949494949,317.26886695215416 639.8989898989898,317.81120118626677 634.8484848484848,320.15529796450016 629.7979797979798,320.40147129644674 624.7474747474747,322.4311839031908 619.6969696969697,321.6989942927892 614.6464646464647,327.1085146680774 609.5959595959596,328.47741369668165 604.5454545454545,327.2689843202471 599.4949494949494,314.90409341201655 594.4444444444445,329.27148376118794 589.3939393939394,333.900325271935 584.3434343434344,333.0103817072588 579.2929292929293,336.6694943220688 574.2424242424242,333.514171760213 569.1919191919192,337.40404378029643 564.1414141414141,339.00407679319403 559.090909090909,338.5357031865812 554.040404040404,339.30306576696114 548.989898989899,340.3011877526145 543.939393939394,342.748200116594 538.8888888888889,342.8959715399855 533.8383838383838,346.0688243999775 528.7878787878788,347.37771586957706 523.7373737373737,346.94243631938156 518.6868686868687,349.45432576962565 513.6363636363636,351.55595754821053 508.5858585858586,349.7560866281408 503.5353535353535,352.2346385456046 498.4848484848485,353.77902784508063 493.4343434343434,353.9312942167122 488.3838383838384,355.09983092751634 483.3333333333333,356.35064392006433 478.2828282828283,355.33495417837275 473.2323232323232,357.949665569608 468.1818181818182,358.72802204422504 463.1313131313131,358.8292520243811 458.0808080808081,359.2912016008009 453.030303030303,360.37251758679713 447.979797979798,360.8802032615594 442.9292929292929,361.97755122961183 437.8787878787879,362.10003856915307 432.8282828282828,363.31678359983175 427.77777777777777,363.5749060025164 422.72727272727275,367.74636780088775 417.67676767676767,365.05835129543783 412.62626262626264,367.3893565369221 407.57575757575756,366.50323367824984 402.52525252525254,368.26248150360016 397.47474747474746,369.81904462122634 392.4242424242424,368.12905645667473 387.37373737373736,370.4260873810446 382.32323232323233,371.28319909461754 377.27272727272725,371.37214288291744 372.22222222222223,371.6650824055115 367.1717171717172,374.2426355579623 362.1212121212121,374.8384971340335 357.07070707070704,373.2804544292783 352.020202020202,374.4705294337327 346.969696969697,376.34604658689216 341.9191919191919,376.3936930382367 336.86868686868684,377.8175802669775 331.8181818181818,377.53293766967647 326.7676767676768,378.26085707925006 321.7171717171717,378.8372780041831 316.66666666666663,379.5548964907065 311.6161616161616,381.1637508395252 306.5656565656566,381.2767800588114 301.5151515151515,381.7061412604909 296.4646464646464,382.5730294864859 291.4141414141414,382.94588544299774 286.3636363636364,385.07165883942184 281.3131313131313,385.5722836996571 276.26262626262627,385.4995966408253 271.2121212121212,386.3872740024305 266.16161616161617,386.6825921018016 261.1111111111111,387.01418817926003 256.06060606060606,388.2352034107667 251.010101010101,389.06304177392633 245.95959595959596,389.5220509050391 240.9090909090909,390.3308044671295 235.85858585858585,390.5813978315121 230.8080808080808,391.2722526470563 225.75757575757575,391.7161100568099 220.7070707070707,392.113763144446 215.65656565656565,393.4158934627346 210.6060606060606,393.9945244038856 205.55555555555554,394.5523662094264 200.50505050505052,395.0341684739064 195.45454545454544,395.48557365091307 190.40404040404042,395.92422441228865 185.35353535353534,396.33757236086296 180.3030303030303,397.2156043127031 175.25252525252526,397.6245322288413 170.2020202020202,398.14780039083576 165.15151515151516,398.78261818498737 160.1010101010101,399.15736576555025 155.05050505050505,399.6072726264769 150,399.998801347136 "/><text class="poloto_text" alignment-baseline="start" text-anchor="middle" font-size="x-large" x="400" y="37.5" >Bench of rebal:256_bytes with abspiral(num,0.1)</text><text class="poloto_text" alignment-baseline="start" text-anchor="middle" font-size="x-large" x="400" y="481.25" >Number of Elements</text><text class="poloto_text" alignment-baseline="start" text-anchor="middle" font-size="x-large" transform="rotate(-90,37.5,250)" x="37.5" y="250" >Time in Seconds</text><path stroke="black" fill="none" class="poloto_axis_lines"  d="M 150 100 L 150 400 L 650 400 "/></svg>