<svg class="poloto" width="800" height="500" viewBox="0 0 800 500" xmlns="http://www.w3.org/2000/svg"><circle  r="1e5" class="poloto_background" /><text  class="poloto_text poloto_legend_text" x="675" y="100" >default_seq</text><line  class="poloto_scatter poloto_legend_icon poloto0stroke poloto0legend" stroke="black" x1="685" x2="685" y1="81.25" y2="81.25" /><path  class="poloto_scatter poloto0stroke" d=" M 650.00 389.63 h 0 M 644.95 389.79 h 0 M 639.90 389.71 h 0 M 634.85 390.37 h 0 M 629.80 390.09 h 0 M 624.75 390.29 h 0 M 619.70 390.21 h 0 M 614.65 390.45 h 0 M 609.60 390.65 h 0 M 604.55 390.75 h 0 M 599.49 390.88 h 0 M 594.44 390.75 h 0 M 589.39 391.03 h 0 M 584.34 391.18 h 0 M 579.29 391.15 h 0 M 574.24 391.32 h 0 M 569.19 389.24 h 0 M 564.14 391.35 h 0 M 559.09 391.68 h 0 M 554.04 391.89 h 0 M 548.99 391.89 h 0 M 543.94 392.05 h 0 M 538.89 392.09 h 0 M 533.84 391.18 h 0 M 528.79 392.56 h 0 M 523.74 392.34 h 0 M 518.69 392.42 h 0 M 513.64 392.52 h 0 M 508.59 392.56 h 0 M 503.54 392.82 h 0 M 498.48 392.74 h 0 M 493.43 392.92 h 0 M 488.38 393.05 h 0 M 483.33 392.92 h 0 M 478.28 393.19 h 0 M 473.23 393.70 h 0 M 468.18 393.54 h 0 M 463.13 393.77 h 0 M 458.08 393.60 h 0 M 453.03 393.94 h 0 M 447.98 393.87 h 0 M 442.93 394.07 h 0 M 437.88 394.02 h 0 M 432.83 394.34 h 0 M 427.78 394.22 h 0 M 422.73 394.36 h 0 M 417.68 394.71 h 0 M 412.63 394.09 h 0 M 407.58 394.65 h 0 M 402.53 394.80 h 0 M 397.47 395.00 h 0 M 392.42 395.19 h 0 M 387.37 395.49 h 0 M 382.32 395.38 h 0 M 377.27 395.25 h 0 M 372.22 395.48 h 0 M 367.17 395.76 h 0 M 362.12 395.76 h 0 M 357.07 395.94 h 0 M 352.02 395.99 h 0 M 346.97 396.05 h 0 M 341.92 396.26 h 0 M 336.87 396.32 h 0 M 331.82 396.47 h 0 M 326.77 396.60 h 0 M 321.72 396.46 h 0 M 316.67 396.67 h 0 M 311.62 396.72 h 0 M 306.57 396.96 h 0 M 301.52 397.09 h 0 M 296.46 397.23 h 0 M 291.41 397.10 h 0 M 286.36 397.57 h 0 M 281.31 397.68 h 0 M 276.26 397.77 h 0 M 271.21 397.93 h 0 M 266.16 397.96 h 0 M 261.11 398.14 h 0 M 256.06 398.20 h 0 M 251.01 398.30 h 0 M 245.96 398.33 h 0 M 240.91 398.42 h 0 M 235.86 398.51 h 0 M 230.81 398.64 h 0 M 225.76 398.78 h 0 M 220.71 398.74 h 0 M 215.66 398.87 h 0 M 210.61 399.02 h 0 M 205.56 399.05 h 0 M 200.51 399.17 h 0 M 195.45 399.24 h 0 M 190.40 399.33 h 0 M 185.35 399.43 h 0 M 180.30 399.58 h 0 M 175.25 399.64 h 0 M 170.20 399.72 h 0 M 165.15 399.80 h 0 M 160.10 399.87 h 0 M 155.05 399.95 h 0 M 150.00 400.00 h 0" /><text  class="poloto_text poloto_legend_text" x="675" y="150" >direct_seq</text><line  class="poloto_scatter poloto_legend_icon poloto1stroke poloto1legend" stroke="black" x1="685" x2="685" y1="131.25" y2="131.25" /><path  class="poloto_scatter poloto1stroke" d=" M 650.00 105.71 h 0 M 644.95 100.00 h 0 M 639.90 100.01 h 0 M 634.85 111.12 h 0 M 629.80 119.19 h 0 M 624.75 122.42 h 0 M 619.70 109.28 h 0 M 614.65 117.76 h 0 M 609.60 119.96 h 0 M 604.55 131.65 h 0 M 599.49 128.78 h 0 M 594.44 142.75 h 0 M 589.39 137.62 h 0 M 584.34 144.78 h 0 M 579.29 137.73 h 0 M 574.24 131.78 h 0 M 569.19 150.47 h 0 M 564.14 153.46 h 0 M 559.09 153.61 h 0 M 554.04 168.34 h 0 M 548.99 167.72 h 0 M 543.94 162.98 h 0 M 538.89 175.26 h 0 M 533.84 170.46 h 0 M 528.79 180.76 h 0 M 523.74 181.01 h 0 M 518.69 175.31 h 0 M 513.64 185.78 h 0 M 508.59 183.54 h 0 M 503.54 184.92 h 0 M 498.48 199.31 h 0 M 493.43 194.72 h 0 M 488.38 198.90 h 0 M 483.33 198.02 h 0 M 478.28 201.79 h 0 M 473.23 208.62 h 0 M 468.18 211.56 h 0 M 463.13 219.23 h 0 M 458.08 214.42 h 0 M 453.03 222.84 h 0 M 447.98 226.11 h 0 M 442.93 223.18 h 0 M 437.88 233.09 h 0 M 432.83 237.42 h 0 M 427.78 236.26 h 0 M 422.73 236.51 h 0 M 417.68 242.81 h 0 M 412.63 242.56 h 0 M 407.58 247.22 h 0 M 402.53 242.18 h 0 M 397.47 248.45 h 0 M 392.42 254.05 h 0 M 387.37 261.38 h 0 M 382.32 261.89 h 0 M 377.27 264.14 h 0 M 372.22 262.95 h 0 M 367.17 271.90 h 0 M 362.12 271.98 h 0 M 357.07 276.29 h 0 M 352.02 282.60 h 0 M 346.97 279.59 h 0 M 341.92 286.63 h 0 M 336.87 288.33 h 0 M 331.82 292.02 h 0 M 326.77 300.04 h 0 M 321.72 297.73 h 0 M 316.67 298.23 h 0 M 311.62 299.55 h 0 M 306.57 308.20 h 0 M 301.52 314.30 h 0 M 296.46 317.10 h 0 M 291.41 320.32 h 0 M 286.36 327.35 h 0 M 281.31 327.70 h 0 M 276.26 332.60 h 0 M 271.21 338.40 h 0 M 266.16 343.04 h 0 M 261.11 345.24 h 0 M 256.06 341.97 h 0 M 251.01 346.46 h 0 M 245.96 348.03 h 0 M 240.91 351.39 h 0 M 235.86 353.30 h 0 M 230.81 357.51 h 0 M 225.76 359.48 h 0 M 220.71 361.08 h 0 M 215.66 365.46 h 0 M 210.61 366.74 h 0 M 205.56 367.53 h 0 M 200.51 372.19 h 0 M 195.45 374.08 h 0 M 190.40 377.19 h 0 M 185.35 380.51 h 0 M 180.30 384.21 h 0 M 175.25 387.19 h 0 M 170.20 389.59 h 0 M 165.15 392.41 h 0 M 160.10 395.13 h 0 M 155.05 397.98 h 0 M 150.00 400.00 h 0" /><text  class="poloto_text poloto_legend_text" x="675" y="200" >indirect_seq</text><line  class="poloto_scatter poloto_legend_icon poloto2stroke poloto2legend" stroke="black" x1="685" x2="685" y1="181.25" y2="181.25" /><path  class="poloto_scatter poloto2stroke" d=" M 650.00 366.29 h 0 M 644.95 369.74 h 0 M 639.90 370.07 h 0 M 634.85 372.98 h 0 M 629.80 372.82 h 0 M 624.75 367.57 h 0 M 619.70 373.54 h 0 M 614.65 374.66 h 0 M 609.60 375.26 h 0 M 604.55 376.08 h 0 M 599.49 375.50 h 0 M 594.44 375.45 h 0 M 589.39 376.95 h 0 M 584.34 376.44 h 0 M 579.29 377.13 h 0 M 574.24 377.47 h 0 M 569.19 378.58 h 0 M 564.14 378.69 h 0 M 559.09 379.79 h 0 M 554.04 380.47 h 0 M 548.99 380.59 h 0 M 543.94 381.41 h 0 M 538.89 381.20 h 0 M 533.84 381.33 h 0 M 528.79 382.93 h 0 M 523.74 382.59 h 0 M 518.69 382.43 h 0 M 513.64 382.51 h 0 M 508.59 382.96 h 0 M 503.54 383.66 h 0 M 498.48 377.80 h 0 M 493.43 383.86 h 0 M 488.38 380.52 h 0 M 483.33 384.71 h 0 M 478.28 385.11 h 0 M 473.23 386.23 h 0 M 468.18 385.01 h 0 M 463.13 386.61 h 0 M 458.08 385.96 h 0 M 453.03 386.95 h 0 M 447.98 386.79 h 0 M 442.93 387.30 h 0 M 437.88 388.10 h 0 M 432.83 387.91 h 0 M 427.78 387.94 h 0 M 422.73 387.59 h 0 M 417.68 388.36 h 0 M 412.63 388.41 h 0 M 407.58 388.70 h 0 M 402.53 389.17 h 0 M 397.47 389.90 h 0 M 392.42 390.27 h 0 M 387.37 390.98 h 0 M 382.32 390.88 h 0 M 377.27 390.93 h 0 M 372.22 390.96 h 0 M 367.17 391.71 h 0 M 362.12 391.63 h 0 M 357.07 392.03 h 0 M 352.02 392.47 h 0 M 346.97 392.44 h 0 M 341.92 392.85 h 0 M 336.87 392.97 h 0 M 331.82 393.39 h 0 M 326.77 393.63 h 0 M 321.72 393.43 h 0 M 316.67 393.81 h 0 M 311.62 393.96 h 0 M 306.57 394.47 h 0 M 301.52 394.77 h 0 M 296.46 395.02 h 0 M 291.41 394.95 h 0 M 286.36 395.40 h 0 M 281.31 395.69 h 0 M 276.26 396.10 h 0 M 271.21 396.19 h 0 M 266.16 396.43 h 0 M 261.11 396.62 h 0 M 256.06 396.80 h 0 M 251.01 396.99 h 0 M 245.96 397.04 h 0 M 240.91 397.25 h 0 M 235.86 397.46 h 0 M 230.81 397.69 h 0 M 225.76 397.92 h 0 M 220.71 397.92 h 0 M 215.66 398.19 h 0 M 210.61 398.45 h 0 M 205.56 398.49 h 0 M 200.51 398.71 h 0 M 195.45 398.85 h 0 M 190.40 398.99 h 0 M 185.35 399.16 h 0 M 180.30 399.37 h 0 M 175.25 399.48 h 0 M 170.20 399.62 h 0 M 165.15 399.72 h 0 M 160.10 399.84 h 0 M 155.05 399.94 h 0 M 150.00 400.00 h 0" /><text  class="poloto_labels poloto_text poloto_title" x="400" y="37.5" >Bench of rebal:256_bytes with abspiral(num,1.5)</text><text  class="poloto_labels poloto_text poloto_xname" x="400" y="481.25" >Number of Elements</text><text  class="poloto_labels poloto_text poloto_yname" transform="rotate(-90,37.5,250)" x="37.5" y="250" >Time in Seconds</text><text  class="poloto_tick_labels poloto_text" dominant-baseline="middle" text-anchor="start" x="150" y="70" ></text><line  class="poloto_axis_lines" stroke="black" x1="150" x2="144" y1="400" y2="400" /><text  class="poloto_tick_labels poloto_text" dominant-baseline="middle" text-anchor="end" x="135" y="400" >0e0</text><line  class="poloto_axis_lines" stroke="black" x1="150" x2="144" y1="316.7631000834242" y2="316.7631000834242" /><text  class="poloto_tick_labels poloto_text" dominant-baseline="middle" text-anchor="end" x="135" y="316.7631000834242" >0.02</text><line  class="poloto_axis_lines" stroke="black" x1="150" x2="144" y1="233.52620016684835" y2="233.52620016684835" /><text  class="poloto_tick_labels poloto_text" dominant-baseline="middle" text-anchor="end" x="135" y="233.52620016684835" >0.04</text><line  class="poloto_axis_lines" stroke="black" x1="150" x2="144" y1="150.28930025027253" y2="150.28930025027253" /><text  class="poloto_tick_labels poloto_text" dominant-baseline="middle" text-anchor="end" x="135" y="150.28930025027253" >0.06</text><text  class="poloto_tick_labels poloto_text" dominant-baseline="middle" text-anchor="start" x="440.00000000000006" y="70" ></text><line  class="poloto_axis_lines" stroke="black" x1="150" x2="150" y1="400" y2="405" /><text  class="poloto_tick_labels poloto_text" dominant-baseline="start" text-anchor="middle" x="150" y="430" >0</text><line  class="poloto_axis_lines" stroke="black" x1="234.17508417508418" x2="234.17508417508418" y1="400" y2="405" /><text  class="poloto_tick_labels poloto_text" dominant-baseline="start" text-anchor="middle" x="234.17508417508418" y="430" >5000</text><line  class="poloto_axis_lines" stroke="black" x1="318.35016835016836" x2="318.35016835016836" y1="400" y2="405" /><text  class="poloto_tick_labels poloto_text" dominant-baseline="start" text-anchor="middle" x="318.35016835016836" y="430" >10000</text><line  class="poloto_axis_lines" stroke="black" x1="402.52525252525254" x2="402.52525252525254" y1="400" y2="405" /><text  class="poloto_tick_labels poloto_text" dominant-baseline="start" text-anchor="middle" x="402.52525252525254" y="430" >15000</text><line  class="poloto_axis_lines" stroke="black" x1="486.7003367003367" x2="486.7003367003367" y1="400" y2="405" /><text  class="poloto_tick_labels poloto_text" dominant-baseline="start" text-anchor="middle" x="486.7003367003367" y="430" >20000</text><line  class="poloto_axis_lines" stroke="black" x1="570.8754208754208" x2="570.8754208754208" y1="400" y2="405" /><text  class="poloto_tick_labels poloto_text" dominant-baseline="start" text-anchor="middle" x="570.8754208754208" y="430" >25000</text><path  stroke="black" fill="none" class="poloto_axis_lines" style="stroke-dasharray:8.417508417508419;stroke-dashoffset:-0;" d=" M 150 400 L 650 400" /><path  stroke="black" fill="none" class="poloto_axis_lines" style="stroke-dasharray:10.404612489571978;stroke-dashoffset:-0;" d=" M 150 400 L 150 100" /></svg>