<svg  width="800" class="poloto_background poloto" height="500" viewBox="0 0 800 500" xmlns="http://www.w3.org/2000/svg" ><text  class="poloto_text" alignment-baseline="middle" text-anchor="start" font-size="large" x="675" y="100" >default_par</text><line  class="poloto0stroke poloto0legend" stroke="black" x1="680" x2="730" y1="81.25" y2="81.25" /><path  class="poloto0stroke" fill="none" stroke="black" d=" M 650 349.7827702095466 L 644.9494949494949 347.41180529365187 L 639.8989898989898 354.3614041791607 L 634.8484848484848 352.12694360220235 L 629.7979797979798 354.7127500485575 L 624.7474747474747 353.6307324465154 L 619.6969696969697 355.88706088274614 L 614.6464646464647 356.11225908568804 L 609.5959595959596 352.0268743766189 L 604.5454545454545 355.19571054922733 L 599.4949494949494 356.9044935960676 L 594.4444444444445 358.1580584419671 L 589.3939393939394 355.0725849937588 L 584.3434343434344 362.97842733419026 L 579.2929292929293 366.9690060446747 L 574.2424242424242 365.92491763332714 L 569.1919191919192 361.9137274467893 L 564.1414141414141 362.7357416350911 L 559.090909090909 363.32400063204 L 554.040404040404 363.86753917765077 L 548.989898989899 356.98690554397774 L 543.939393939394 360.1598504292756 L 538.8888888888889 358.3974503796541 L 533.8383838383838 356.64296214868244 L 528.7878787878788 363.23530676803455 L 523.7373737373737 359.3505358983774 L 518.6868686868687 357.3484722606432 L 513.6363636363636 361.92483115794164 L 508.5858585858586 364.5505362605779 L 503.5353535353535 365.2981182322258 L 498.4848484848485 370.43244710400273 L 493.4343434343434 359.661507723248 L 488.3838383838384 366.7480523796351 L 483.3333333333333 366.8856433202745 L 478.2828282828283 364.0748084524935 L 473.2323232323232 363.9666915830474 L 468.1818181818182 367.0348812729177 L 463.1313131313131 367.33614159506794 L 458.0808080808081 368.97707994807854 L 453.030303030303 368.91317418542224 L 447.979797979798 369.9009290897311 L 442.9292929292929 371.06658106659916 L 437.8787878787879 370.25570454575296 L 432.8282828282828 373.26796820422317 L 427.77777777777777 373.69364442136424 L 422.72727272727275 371.3447850588644 L 417.67676767676767 373.2618560696439 L 412.62626262626264 369.19779591899567 L 407.57575757575756 375.70969805602425 L 402.52525252525254 377.11986937236526 L 397.47474747474746 371.33001406696457 L 392.4242424242424 372.6326797273173 L 387.37373737373736 376.37120079901445 L 382.32323232323233 377.32394675470556 L 377.27272727272725 375.02558041509093 L 372.22222222222223 377.35447347129855 L 367.1717171717172 378.7509264411395 L 362.1212121212121 380.4076544751465 L 357.07070707070704 381.5800298000517 L 352.020202020202 380.4636823754562 L 346.969696969697 380.5897621293047 L 341.9191919191919 382.30557413091105 L 336.86868686868684 382.0759616085508 L 331.8181818181818 382.86252541629295 L 326.7676767676768 383.9044745805378 L 321.7171717171717 383.98607157717066 L 316.66666666666663 381.6404720197798 L 311.6161616161616 384.1442739938634 L 306.5656565656566 385.26333792271635 L 301.5151515151515 385.23216603636223 L 296.4646464646464 386.06908704177664 L 291.4141414141414 386.21343528675646 L 286.3636363636364 388.5236523761942 L 281.3131313131313 387.5845228980935 L 276.26262626262627 388.99605246656324 L 271.2121212121212 389.2781953900017 L 266.16161616161617 389.5660769286841 L 261.1111111111111 390.4520308359453 L 256.06060606060606 390.25868364542197 L 251.010101010101 391.28396026478674 L 245.95959595959596 391.3726880850954 L 240.9090909090909 391.2861674244959 L 235.85858585858585 392.0702863784063 L 230.8080808080808 392.2140913225346 L 225.75757575757575 393.56545032170203 L 220.7070707070707 393.236040224184 L 215.65656565656565 392.42696338740836 L 210.6060606060606 392.5329070534486 L 205.55555555555554 393.6854858535777 L 200.50505050505052 394.2421654885339 L 195.45454545454544 393.4877922562424 L 190.40404040404042 393.8899707115566 L 185.35353535353534 394.42569930742724 L 180.3030303030303 396.5766613347725 L 175.25252525252526 397.16712749143056 L 170.2020202020202 397.6362338203875 L 165.15151515151516 398.3876188979957 L 160.1010101010101 399.05716928484856 L 155.05050505050505 399.56169203806184 L 150 399.99989813109033" /><text  class="poloto_text" alignment-baseline="middle" text-anchor="start" font-size="large" x="675" y="150" >default_seq</text><line  class="poloto1stroke poloto1legend" stroke="black" x1="680" x2="730" y1="131.25" y2="131.25" /><path  class="poloto1stroke" fill="none" stroke="black" d=" M 650 312.1234642129993 L 644.9494949494949 314.1557489605975 L 639.8989898989898 312.11565426325916 L 634.8484848484848 314.82479000290215 L 629.7979797979798 315.1586483761417 L 624.7474747474747 315.0285957348167 L 619.6969696969697 317.8079191532113 L 614.6464646464647 318.92168589876223 L 609.5959595959596 319.816909876802 L 604.5454545454545 319.96821916394146 L 599.4949494949494 322.2991495983422 L 594.4444444444445 320.5227255954917 L 589.3939393939394 323.37634540532736 L 584.3434343434344 322.5269624366319 L 579.2929292929293 326.31264881349887 L 574.2424242424242 325.6591937143713 L 569.1919191919192 326.2229023040936 L 564.1414141414141 325.76092679881253 L 559.090909090909 328.9785581791453 L 554.040404040404 329.8490280121391 L 548.989898989899 329.95106670330927 L 543.939393939394 331.44769076764334 L 538.8888888888889 333.0993932687741 L 533.8383838383838 331.44470261296016 L 528.7878787878788 334.07920239812995 L 523.7373737373737 333.51641062859454 L 518.6868686868687 335.7274753126357 L 513.6363636363636 333.80327347818036 L 508.5858585858586 336.4582828704938 L 503.5353535353535 338.6077508204975 L 498.4848484848485 337.5612854679247 L 493.4343434343434 327.70091831426424 L 488.3838383838384 340.6372851075351 L 483.3333333333333 340.6298486771303 L 478.2828282828283 343.39219394391597 L 473.2323232323232 343.24536688880124 L 468.1818181818182 343.45117604260565 L 463.1313131313131 345.8760296117074 L 458.0808080808081 343.99929868915086 L 453.030303030303 346.1014655087718 L 447.979797979798 348.3124283239033 L 442.9292929292929 348.5045191312076 L 437.8787878787879 349.9118381180783 L 432.8282828282828 349.8737051895645 L 427.77777777777777 351.27932636127423 L 422.72727272727275 354.73709671796485 L 417.67676767676767 356.00105219264907 L 412.62626262626264 356.99624352736265 L 407.57575757575756 358.25008002368793 L 402.52525252525254 358.69232691679935 L 397.47474747474746 360.10215867010817 L 392.4242424242424 359.56031793965826 L 387.37373737373736 361.9379043346806 L 382.32323232323233 361.97240393875006 L 377.27272727272725 362.9093262571416 L 372.22222222222223 363.73493981358445 L 367.1717171717172 365.32463810503907 L 362.1212121212121 364.9950921823082 L 357.07070707070704 366.42495815451565 L 352.020202020202 367.4380444610252 L 346.969696969697 368.77728105994373 L 341.9191919191919 368.1428414906183 L 336.86868686868684 369.225572175028 L 331.8181818181818 370.6798527292492 L 326.7676767676768 370.75462450893525 L 321.7171717171717 372.6163127891662 L 316.66666666666663 373.0516665527244 L 311.6161616161616 373.91307005275905 L 306.5656565656566 374.438408019845 L 301.5151515151515 374.80119716342625 L 296.4646464646464 375.9921465861917 L 291.4141414141414 377.51692042589355 L 286.3636363636364 379.7800740790711 L 281.3131313131313 380.48595771036724 L 276.26262626262627 381.5272277485477 L 271.2121212121212 382.133925018144 L 266.16161616161617 382.9149879047648 L 261.1111111111111 384.21439376000865 L 256.06060606060606 384.5249920655438 L 251.010101010101 385.41841635951306 L 245.95959595959596 385.71957481275365 L 240.9090909090909 386.8654302648456 L 235.85858585858585 387.1934481539316 L 230.8080808080808 388.3561798887229 L 225.75757575757575 389.0961216921467 L 220.7070707070707 389.71198716361187 L 215.65656565656565 391.3212442857201 L 210.6060606060606 391.92705869143276 L 205.55555555555554 392.5502247680898 L 200.50505050505052 392.8839133598132 L 195.45454545454544 393.82463878416513 L 190.40404040404042 394.6357529991339 L 185.35353535353534 395.3938274684761 L 180.3030303030303 396.32314357494676 L 175.25252525252526 396.803829003301 L 170.2020202020202 397.55025646063945 L 165.15151515151516 398.3515912602814 L 160.1010101010101 398.9655212224631 L 155.05050505050505 399.5228120708772 L 150 399.99969439327106" /><text  class="poloto_text" alignment-baseline="middle" text-anchor="start" font-size="large" x="675" y="200" >direct_par</text><line  class="poloto2stroke poloto2legend" stroke="black" x1="680" x2="730" y1="181.25" y2="181.25" /><path  class="poloto2stroke" fill="none" stroke="black" d=" M 650 200.14735903719844 L 644.9494949494949 244.6644460753531 L 639.8989898989898 248.25070708342065 L 634.8484848484848 245.12275429988665 L 629.7979797979798 248.01454099453937 L 624.7474747474747 236.87972586850037 L 619.6969696969697 260.72224604194014 L 614.6464646464647 249.50613952599718 L 609.5959595959596 253.18842895956527 L 604.5454545454545 236.06246556264915 L 599.4949494949494 255.89566314622806 L 594.4444444444445 267.37218055154995 L 589.3939393939394 261.6579459334157 L 584.3434343434344 251.72579515475246 L 579.2929292929293 269.20748478418056 L 574.2424242424242 270.59704462446814 L 569.1919191919192 275.58705920756853 L 564.1414141414141 276.4343708417677 L 559.090909090909 282.3287436484735 L 554.040404040404 284.9151273519833 L 548.989898989899 284.81488834488374 L 543.939393939394 282.25336065532946 L 538.8888888888889 278.40461742338664 L 533.8383838383838 265.7315478052683 L 528.7878787878788 286.2461125692199 L 523.7373737373737 271.38170687923014 L 518.6868686868687 290.7551700735403 L 513.6363636363636 295.79231600550725 L 508.5858585858586 298.4178513266275 L 503.5353535353535 295.6306500458863 L 498.4848484848485 300.4107807187961 L 493.4343434343434 292.39427478617716 L 488.3838383838384 301.97300836094735 L 483.3333333333333 298.5829468728735 L 478.2828282828283 308.69353802494743 L 473.2323232323232 304.02396907531556 L 468.1818181818182 310.9292549851249 L 463.1313131313131 306.2724536055029 L 458.0808080808081 307.8034074923904 L 453.030303030303 317.6850992044717 L 447.979797979798 310.4533913518276 L 442.9292929292929 318.01121554057755 L 437.8787878787879 313.0932222766026 L 432.8282828282828 325.2003761452895 L 427.77777777777777 322.33490558563074 L 422.72727272727275 329.0804610451026 L 417.67676767676767 326.00850220557504 L 412.62626262626264 334.0657896583588 L 407.57575757575756 330.10906538218273 L 402.52525252525254 335.55541872423 L 397.47474747474746 328.13939605771844 L 392.4242424242424 331.32799479879986 L 387.37373737373736 340.0296370614487 L 382.32323232323233 342.04022373129067 L 377.27272727272725 342.2142837415862 L 372.22222222222223 345.4707271764972 L 367.1717171717172 344.9913660439684 L 362.1212121212121 347.03978003559524 L 357.07070707070704 352.3509533345316 L 352.020202020202 349.6428023276819 L 346.969696969697 352.0133597679381 L 341.9191919191919 352.2991360158209 L 336.86868686868684 355.8406426162471 L 331.8181818181818 356.87790581064786 L 326.7676767676768 354.82704696518937 L 321.7171717171717 360.17859430865195 L 316.66666666666663 359.4559702198693 L 311.6161616161616 352.8927940649815 L 306.5656565656566 361.68116072604914 L 301.5151515151515 364.87223827726547 L 296.4646464646464 365.7606030820552 L 291.4141414141414 365.00164574882933 L 286.3636363636364 370.22833576535925 L 281.3131313131313 369.44163613240426 L 276.26262626262627 371.81423095085347 L 271.2121212121212 372.3416402524357 L 266.16161616161617 372.1352538414766 L 261.1111111111111 375.01023216603636 L 256.06060606060606 374.5585454206303 L 251.010101010101 376.59639900195634 L 245.95959595959596 378.2800543844152 L 240.9090909090909 378.03842133071583 L 235.85858585858585 379.50275295068957 L 230.8080808080808 380.1695189206785 L 225.75757575757575 382.971253499197 L 220.7070707070707 383.6945227577408 L 215.65656565656565 384.1862779409441 L 210.6060606060606 384.1760910499787 L 205.55555555555554 384.86883359192944 L 200.50505050505052 386.2515682152703 L 195.45454545454544 386.56213256450224 L 190.40404040404042 388.152781632447 L 185.35353535353534 389.35327277641676 L 180.3030303030303 390.44547726942426 L 175.25252525252526 392.02902946999643 L 170.2020202020202 393.8687140657421 L 165.15151515151516 395.8686384563736 L 160.1010101010101 397.50220829158593 L 155.05050505050505 398.7539394971117 L 150 400" /><text  class="poloto_text" alignment-baseline="middle" text-anchor="start" font-size="large" x="675" y="250" >direct_seq</text><line  class="poloto3stroke poloto3legend" stroke="black" x1="680" x2="730" y1="231.25" y2="231.25" /><path  class="poloto3stroke" fill="none" stroke="black" d=" M 650 100 L 644.9494949494949 113.10183585885227 L 639.8989898989898 117.70749904582789 L 634.8484848484848 131.44214457145114 L 629.7979797979798 124.01814217368332 L 624.7474747474747 128.75311096331313 L 619.6969696969697 128.79745789531592 L 614.6464646464647 131.99390054244066 L 609.5959595959596 144.32105729967705 L 604.5454545454545 143.92488911003244 L 599.4949494949494 149.94557936470926 L 594.4444444444445 147.97726829237374 L 589.3939393939394 152.08061588584522 L 584.3434343434344 155.20996087781117 L 579.2929292929293 164.27221908063532 L 574.2424242424242 171.98637808940106 L 569.1919191919192 168.1247993748418 L 564.1414141414141 170.28825732177125 L 559.090909090909 179.9939195579704 L 554.040404040404 185.17310470629835 L 548.989898989899 187.80801196710675 L 543.939393939394 188.91529305874303 L 538.8888888888889 197.20117434479047 L 533.8383838383838 197.37862998540785 L 528.7878787878788 193.68941346598325 L 523.7373737373737 198.89179076940908 L 518.6868686868687 206.51100795437722 L 513.6363636363636 208.2879073454728 L 508.5858585858586 208.1045772643987 L 503.5353535353535 215.60980313946396 L 498.4848484848485 216.65789839459126 L 493.4343434343434 222.72582186704432 L 488.3838383838384 215.79343882726698 L 483.3333333333333 228.1623957937648 L 478.2828282828283 233.46277098827784 L 473.2323232323232 236.52596910157507 L 468.1818181818182 237.22747236975604 L 463.1313131313131 241.39801948729604 L 458.0808080808081 237.44455501622883 L 453.030303030303 244.53639685591796 L 447.979797979798 247.96133146739675 L 442.9292929292929 245.9321367433913 L 437.8787878787879 255.38737124335756 L 432.8282828282828 257.0299055426194 L 427.77777777777777 260.37463536589723 L 422.72727272727275 270.47242499165804 L 417.67676767676767 274.6984906649595 L 412.62626262626264 278.0292984039179 L 407.57575757575756 280.3997200189612 L 402.52525252525254 282.74498001331995 L 397.47474747474746 285.56501703927296 L 392.4242424242424 285.49065273522547 L 387.37373737373736 293.4193476677226 L 382.32323232323233 295.2736674301553 L 377.27272727272725 297.9170637667682 L 372.22222222222223 298.26796820422317 L 367.1717171717172 303.7615887203499 L 362.1212121212121 303.6473257600213 L 357.07070707070704 308.16860753350016 L 352.020202020202 312.31636997158085 L 346.969696969697 315.55481656578627 L 341.9191919191919 312.9337634766908 L 336.86868686868684 305.3266347356683 L 331.8181818181818 321.26623281075337 L 326.7676767676768 320.9777400586131 L 321.7171717171717 325.4479515520521 L 316.66666666666663 327.99728892875106 L 311.6161616161616 320.8599116864466 L 306.5656565656566 331.82840883932374 L 301.5151515151515 333.7273811404881 L 296.4646464646464 338.1166747633585 L 291.4141414141414 339.4844346569802 L 286.3636363636364 344.1451410114722 L 281.3131313131313 345.6535818693262 L 276.26262626262627 348.08729803356783 L 271.2121212121212 350.5811508108086 L 266.16161616161617 351.2873400488337 L 261.1111111111111 355.4415202282226 L 256.06060606060606 356.8266317927887 L 251.010101010101 358.8605464429414 L 245.95959595959596 359.3242537196866 L 240.9090909090909 363.67222252154073 L 235.85858585858585 364.8717628890204 L 230.8080808080808 367.4247335901637 L 225.75757575757575 369.04550189906286 L 220.7070707070707 370.54650632651203 L 215.65656565656565 374.68041459287974 L 210.6060606060606 377.90310546239203 L 205.55555555555554 378.8702488906476 L 200.50505050505052 381.28141806955244 L 195.45454545454544 382.6905367404937 L 190.40404040404042 385.0864595392537 L 185.35353535353534 386.99409069773867 L 180.3030303030303 389.405022182521 L 175.25252525252526 391.042123473268 L 170.2020202020202 393.31787491493947 L 165.15151515151516 394.98305806844775 L 160.1010101010101 397.09547969164055 L 155.05050505050505 398.4978750145446 L 150 399.99314082674994" /><text  class="poloto_text" alignment-baseline="middle" text-anchor="start" font-size="large" x="675" y="300" >indirect_par</text><line  class="poloto4stroke poloto4legend" stroke="black" x1="680" x2="730" y1="281.25" y2="281.25" /><path  class="poloto4stroke" fill="none" stroke="black" d=" M 650 263.2711419866973 L 644.9494949494949 273.09942043381665 L 639.8989898989898 273.5785438722229 L 634.8484848484848 275.9393558534555 L 629.7979797979798 287.02452686418974 L 624.7474747474747 277.8645084644009 L 619.6969696969697 292.2714548374376 L 614.6464646464647 295.2255853047986 L 609.5959595959596 283.64067937960476 L 604.5454545454545 236.44335341584562 L 599.4949494949494 295.4475576589347 L 594.4444444444445 287.652718473723 L 589.3939393939394 301.80635082475334 L 584.3434343434344 289.1500895767279 L 579.2929292929293 307.9046312322833 L 574.2424242424242 298.1892574933638 L 569.1919191919192 311.03173510823683 L 564.1414141414141 304.84747734095885 L 559.090909090909 311.73215177471485 L 554.040404040404 318.1413021382058 L 548.989898989899 309.59504391908257 L 543.939393939394 309.78662538183863 L 538.8888888888889 304.52614884360673 L 533.8383838383838 314.61320827755065 L 528.7878787878788 306.0740469258 L 523.7373737373737 297.51970710651096 L 518.6868686868687 316.3034851391371 L 513.6363636363636 317.73358880546704 L 508.5858585858586 322.6923635896068 L 503.5353535353535 308.8492955878085 L 498.4848484848485 333.78191496345625 L 493.4343434343434 319.4901144146318 L 488.3838383838384 322.8856089112206 L 483.3333333333333 318.5617830409545 L 478.2828282828283 330.86455917248037 L 473.2323232323232 327.8249267336164 L 468.1818181818182 330.569988242064 L 463.1313131313131 329.85109934663546 L 458.0808080808081 332.9152142801196 L 453.030303030303 332.57700950006813 L 447.979797979798 348.6661850908286 L 442.9292929292929 334.63126397584847 L 437.8787878787879 336.14313442032744 L 432.8282828282828 347.91446045018813 L 427.77777777777777 342.81636295394486 L 422.72727272727275 338.63943205139987 L 417.67676767676767 347.10001851750405 L 412.62626262626264 348.827918963056 L 407.57575757575756 351.78429054642936 L 402.52525252525254 353.041149153741 L 397.47474747474746 350.63337560515794 L 392.4242424242424 350.0641321380111 L 387.37373737373736 356.32003770507913 L 382.32323232323233 356.45209376829393 L 377.27272727272725 357.2271463892452 L 372.22222222222223 360.4297690835556 L 367.1717171717172 362.32283298796 L 362.1212121212121 362.3924434095569 L 357.07070707070704 364.9433088199007 L 352.020202020202 362.91700038166886 L 346.969696969697 363.32189534124046 L 341.9191919191919 367.32058960819404 L 336.86868686868684 367.2234406246873 L 331.8181818181818 368.0375429943393 L 326.7676767676768 371.2665157799469 L 321.7171717171717 370.2057887800225 L 316.66666666666663 371.41762132926704 L 311.6161616161616 370.5903778702697 L 306.5656565656566 372.00078688073324 L 301.5151515151515 374.8291771572779 L 296.4646464646464 377.20034581099196 L 291.4141414141414 375.7206319856605 L 286.3636363636364 380.0541693586469 L 281.3131313131313 378.37635446034153 L 276.26262626262627 380.44385189437685 L 271.2121212121212 381.8722917018492 L 266.16161616161617 380.2567526636456 L 261.1111111111111 384.2092324019195 L 256.06060606060606 384.4426140739369 L 251.010101010101 385.84246267409964 L 245.95959595959596 385.50059061330063 L 240.9090909090909 386.107457664413 L 235.85858585858585 387.3473381201157 L 230.8080808080808 387.1449585529363 L 225.75757575757575 389.77711535318406 L 220.7070707070707 389.4270598233095 L 215.65656565656565 388.83890269527024 L 210.6060606060606 389.3887571132796 L 205.55555555555554 390.03952966445286 L 200.50505050505052 390.55318666323177 L 195.45454545454544 391.46589813742884 L 190.40404040404042 392.0280447372031 L 185.35353535353534 392.9068678207886 L 180.3030303030303 394.9721241388116 L 175.25252525252526 396.26918700913336 L 170.2020202020202 397.0696049885884 L 165.15151515151516 398.2119289851457 L 160.1010101010101 398.7589310736847 L 155.05050505050505 399.5228799834837 L 150 399.99911713611635" /><text  class="poloto_text" alignment-baseline="middle" text-anchor="start" font-size="large" x="675" y="350" >indirect_seq</text><line  class="poloto5stroke poloto5legend" stroke="black" x1="680" x2="730" y1="331.25" y2="331.25" /><path  class="poloto5stroke" fill="none" stroke="black" d=" M 650 143.6725937771226 L 644.9494949494949 172.70502929070716 L 639.8989898989898 168.2363797872162 L 634.8484848484848 189.80532172239046 L 629.7979797979798 185.2178930702429 L 624.7474747474747 189.55238121971945 L 619.6969696969697 196.07348551492018 L 614.6464646464647 198.6726028321368 L 609.5959595959596 201.40238400413634 L 604.5454545454545 207.38008557893912 L 599.4949494949494 216.30821638405212 L 594.4444444444445 209.1313479611051 L 589.3939393939394 223.3705501962448 L 584.3434343434344 213.48040336466218 L 579.2929292929293 220.83489720974265 L 574.2424242424242 232.22176997456899 L 569.1919191919192 235.3069378160483 L 564.1414141414141 229.30988114841122 L 559.090909090909 241.95147327344648 L 554.040404040404 242.32023872639414 L 548.989898989899 241.32100659159758 L 543.939393939394 250.76944983092025 L 538.8888888888889 253.45243921708536 L 533.8383838383838 250.88211684499763 L 528.7878787878788 255.58954707271766 L 523.7373737373737 254.7607416237723 L 518.6868686868687 259.51387703562375 L 513.6363636363636 258.7247325488371 L 508.5858585858586 263.8338318873231 L 503.5353535353535 269.20082934874983 L 498.4848484848485 268.2287283002244 L 493.4343434343434 274.95136325502403 L 488.3838383838384 278.8641141185328 L 483.3333333333333 276.1542652965223 L 478.2828282828283 281.4813980579711 L 473.2323232323232 285.76855112076174 L 468.1818181818182 282.38942356232405 L 463.1313131313131 288.94251469515615 L 458.0808080808081 284.71234030916537 L 453.030303030303 293.8638017205432 L 447.979797979798 296.8025839388497 L 442.9292929292929 294.4272047035366 L 437.8787878787879 300.95031242062714 L 432.8282828282828 301.09486440342624 L 427.77777777777777 303.6084457928367 L 422.72727272727275 308.6659315504312 L 417.67676767676767 311.6364968685497 L 412.62626262626264 314.6112727682672 L 407.57575757575756 315.65247489384126 L 402.52525252525254 318.7031770875543 L 397.47474747474746 321.6915015522558 L 392.4242424242424 318.9512278825619 L 387.37373737373736 325.14995103501076 L 382.32323232323233 327.1353760841682 L 377.27272727272725 330.22543363331084 L 372.22222222222223 329.1690869965016 L 367.1717171717172 334.17271805719236 L 362.1212121212121 335.0785364018362 L 357.07070707070704 336.7379469837974 L 352.020202020202 339.4842988317673 L 346.969696969697 342.33184046332696 L 341.9191919191919 342.1888165141727 L 336.86868686868684 343.0980984017447 L 331.8181818181818 346.6675849960226 L 326.7676767676768 347.69944913821166 L 321.7171717171717 351.50455852051937 L 316.66666666666663 352.33726894433477 L 311.6161616161616 353.7801062243715 L 306.5656565656566 356.01599296606497 L 301.5151515151515 357.9705856919004 L 296.4646464646464 360.2628398969358 L 291.4141414141414 361.2434300212657 L 286.3636363636364 365.0137002364717 L 281.3131313131313 366.2724943530668 L 276.26262626262627 368.71038714260425 L 271.2121212121212 369.4603460554774 L 266.16161616161617 371.1876013312682 L 261.1111111111111 374.0620363549765 L 256.06060606060606 374.5340289697069 L 251.010101010101 375.94487941211224 L 245.95959595959596 376.21194573692196 L 240.9090909090909 378.51340210012944 L 235.85858585858585 378.8554778987477 L 230.8080808080808 381.6116431183477 L 225.75757575757575 383.7949994589629 L 220.7070707070707 383.65880072675543 L 215.65656565656565 386.09604834653175 L 210.6060606060606 387.6116200280615 L 205.55555555555554 388.6508526880489 L 200.50505050505052 389.56546571522614 L 195.45454545454544 390.53634433683567 L 190.40404040404042 392.2149741864183 L 185.35353535353534 393.25016604632276 L 180.3030303030303 394.7826140105518 L 175.25252525252526 395.8576705704342 L 170.2020202020202 396.9013175498399 L 165.15151515151516 397.98391240903675 L 160.1010101010101 398.8316315188745 L 155.05050505050505 399.3238960466261 L 150 400" /><text  class="poloto_text" alignment-baseline="start" text-anchor="middle" font-size="x-large" x="400" y="37.5" >Bench of rebal:256_bytes with abspiral(num,1.5)</text><text  class="poloto_text" alignment-baseline="start" text-anchor="middle" font-size="x-large" x="400" y="481.25" >Number of Elements</text><text  class="poloto_text" alignment-baseline="start" text-anchor="middle" font-size="x-large" transform="rotate(-90,37.5,250)" x="37.5" y="250" >Time in Seconds</text><line  class="poloto_axis_lines" stroke="black" x1="150" x2="150" y1="400" y2="405" /><text  class="poloto_text" alignment-baseline="start" text-anchor="middle" x="150" y="430" > 0</text><line  class="poloto_axis_lines" stroke="black" x1="234.17508417508418" x2="234.17508417508418" y1="400" y2="405" /><text  class="poloto_text" alignment-baseline="start" text-anchor="middle" x="234.17508417508418" y="430" > 5000</text><line  class="poloto_axis_lines" stroke="black" x1="318.35016835016836" x2="318.35016835016836" y1="400" y2="405" /><text  class="poloto_text" alignment-baseline="start" text-anchor="middle" x="318.35016835016836" y="430" > 10000</text><line  class="poloto_axis_lines" stroke="black" x1="402.52525252525254" x2="402.52525252525254" y1="400" y2="405" /><text  class="poloto_text" alignment-baseline="start" text-anchor="middle" x="402.52525252525254" y="430" > 15000</text><line  class="poloto_axis_lines" stroke="black" x1="486.7003367003367" x2="486.7003367003367" y1="400" y2="405" /><text  class="poloto_text" alignment-baseline="start" text-anchor="middle" x="486.7003367003367" y="430" > 20000</text><line  class="poloto_axis_lines" stroke="black" x1="570.8754208754208" x2="570.8754208754208" y1="400" y2="405" /><text  class="poloto_text" alignment-baseline="start" text-anchor="middle" x="570.8754208754208" y="430" > 25000</text><line  class="poloto_axis_lines" stroke="black" x1="150" x2="144" y1="332.09014402452823" y2="332.09014402452823" /><text  class="poloto_text" alignment-baseline="middle" text-anchor="end" x="135" y="332.09014402452823" > 0.002</text><line  class="poloto_axis_lines" stroke="black" x1="150" x2="144" y1="264.17753758849574" y2="264.17753758849574" /><text  class="poloto_text" alignment-baseline="middle" text-anchor="end" x="135" y="264.17753758849574" > 0.004</text><line  class="poloto_axis_lines" stroke="black" x1="150" x2="144" y1="196.2649311524633" y2="196.2649311524633" /><text  class="poloto_text" alignment-baseline="middle" text-anchor="end" x="135" y="196.2649311524633" > 0.006</text><line  class="poloto_axis_lines" stroke="black" x1="150" x2="144" y1="128.35232471643087" y2="128.35232471643087" /><text  class="poloto_text" alignment-baseline="middle" text-anchor="end" x="135" y="128.35232471643087" > 0.008</text><path  stroke="black" fill="none" class="poloto_axis_lines" style="stroke-dasharray:8.417508417508419;stroke-dashoffset:-0;" d=" M 150 400 L 650 400" /><path  stroke="black" fill="none" class="poloto_axis_lines" style="stroke-dasharray:8.489075804504054;stroke-dashoffset:-67.90985597547179;" d=" M 150 400 L 150 100" /></svg>