<svg class="poloto" width="800" height="500" viewBox="0 0 800 500" xmlns="http://www.w3.org/2000/svg" ><style><style>.poloto {
            font-family: "Arial";
            stroke-width:2;
            }
            .poloto_text{fill: var(--poloto_fg_color,black);  }
            .poloto_axis_lines{stroke: var(--poloto_fg_color,black);stoke-width:3;fill:none}
            .poloto_background{fill: var(--poloto_bg_color,aliceblue); }
            .poloto0stroke{stroke:  var(--poloto_color0,blue); }
            .poloto1stroke{stroke:  var(--poloto_color1,red); }
            .poloto2stroke{stroke:  var(--poloto_color2,green); }
            .poloto3stroke{stroke:  var(--poloto_color3,gold); }
            .poloto4stroke{stroke:  var(--poloto_color4,aqua); }
            .poloto5stroke{stroke:  var(--poloto_color5,brown); }
            .poloto6stroke{stroke:  var(--poloto_color6,lime); }
            .poloto7stroke{stroke:  var(--poloto_color7,chocolate); }
            .poloto0fill{fill:var(--poloto_color0,blue);}
            .poloto1fill{fill:var(--poloto_color1,red);}
            .poloto2fill{fill:var(--poloto_color2,green);}
            .poloto3fill{fill:var(--poloto_color3,gold);}
            .poloto4fill{fill:var(--poloto_color4,aqua);}
            .poloto5fill{fill:var(--poloto_color5,brown);}
            .poloto6fill{fill:var(--poloto_color6,lime);}
            .poloto7fill{fill:var(--poloto_color7,chocolate);}</style></style><rect class="poloto_background" fill="white" x="0" y="0" width="800" height="500" /><line class="poloto_axis_lines" stroke="black" x1="150" x2="150" y1="400" y2="405" /><text class="poloto_text" alignment-baseline="start" text-anchor="middle" x="150" y="430" >0</text><line class="poloto_axis_lines" stroke="black" x1="234.17508417508418" x2="234.17508417508418" y1="400" y2="405" /><text class="poloto_text" alignment-baseline="start" text-anchor="middle" x="234.17508417508418" y="430" >5000</text><line class="poloto_axis_lines" stroke="black" x1="318.35016835016836" x2="318.35016835016836" y1="400" y2="405" /><text class="poloto_text" alignment-baseline="start" text-anchor="middle" x="318.35016835016836" y="430" >10000</text><line class="poloto_axis_lines" stroke="black" x1="402.52525252525254" x2="402.52525252525254" y1="400" y2="405" /><text class="poloto_text" alignment-baseline="start" text-anchor="middle" x="402.52525252525254" y="430" >15000</text><line class="poloto_axis_lines" stroke="black" x1="486.7003367003367" x2="486.7003367003367" y1="400" y2="405" /><text class="poloto_text" alignment-baseline="start" text-anchor="middle" x="486.7003367003367" y="430" >20000</text><line class="poloto_axis_lines" stroke="black" x1="570.8754208754208" x2="570.8754208754208" y1="400" y2="405" /><text class="poloto_text" alignment-baseline="start" text-anchor="middle" x="570.8754208754208" y="430" >25000</text><line class="poloto_axis_lines" stroke="black" x1="150" x2="144" y1="346.48179844702344" y2="346.48179844702344" /><text class="poloto_text" alignment-baseline="middle" text-anchor="end" x="135" y="346.48179844702344" >0.002</text><line class="poloto_axis_lines" stroke="black" x1="150" x2="144" y1="292.96041237157544" y2="292.96041237157544" /><text class="poloto_text" alignment-baseline="middle" text-anchor="end" x="135" y="292.96041237157544" >0.004</text><line class="poloto_axis_lines" stroke="black" x1="150" x2="144" y1="239.4390262961274" y2="239.4390262961274" /><text class="poloto_text" alignment-baseline="middle" text-anchor="end" x="135" y="239.4390262961274" >0.006</text><line class="poloto_axis_lines" stroke="black" x1="150" x2="144" y1="185.91764022067935" y2="185.91764022067935" /><text class="poloto_text" alignment-baseline="middle" text-anchor="end" x="135" y="185.91764022067935" >0.008</text><line class="poloto_axis_lines" stroke="black" x1="150" x2="144" y1="132.39625414523135" y2="132.39625414523135" /><text class="poloto_text" alignment-baseline="middle" text-anchor="end" x="135" y="132.39625414523135" >0.010</text><text class="poloto_text" alignment-baseline="middle" text-anchor="start" font-size="large" x="675" y="100" >default_par</text><line class="poloto0stroke" stroke="black" x1="680" x2="730" y1="81.25" y2="81.25" /><polyline class="poloto0stroke" fill="none" stroke="black"  points="650,277.4313695266354 644.9494949494949,315.1662213687345 639.8989898989898,311.66394242811543 634.8484848484848,317.7072294547455 629.7979797979798,290.89788547707894 624.7474747474747,313.8339670265444 619.6969696969697,292.7482803578654 614.6464646464647,319.4005123067075 609.5959595959596,319.5495426062346 604.5454545454545,317.5009312721177 599.4949494949494,320.8293192293777 594.4444444444445,319.01994849101806 589.3939393939394,317.0853912306279 584.3434343434344,323.45275024994487 579.2929292929293,323.73237273149607 574.2424242424242,324.9748181878515 569.1919191919192,323.44726430787216 564.1414141414141,327.27602370355146 559.090909090909,329.3182124713393 554.040404040404,328.7441688449871 548.989898989899,326.90485289111825 543.939393939394,330.1901293718944 538.8888888888889,330.521801401404 533.8383838383838,295.9726762619807 528.7878787878788,329.5401121380081 523.7373737373737,335.1580914701897 518.6868686868687,332.6973387025988 513.6363636363636,332.1463627936451 508.5858585858586,334.84480403679703 503.5353535353535,336.83893059988907 498.4848484848485,325.14365140022653 493.4343434343434,338.261903691477 488.3838383838384,336.5336713744078 483.3333333333333,334.9698032339762 478.2828282828283,330.3944205025444 473.2323232323232,338.946442219382 468.1818181818182,336.0918255716619 463.1313131313131,341.80691945887736 458.0808080808081,336.73097796417494 453.030303030303,337.3362780799952 447.979797979798,341.2848183377114 442.9292929292929,341.40949640657414 437.8787878787879,341.86338452118696 432.8282828282828,344.13060395672903 427.77777777777777,344.57448357214577 422.72727272727275,342.10455188684296 417.67676767676767,342.95532783989825 412.62626262626264,346.3493865378728 407.57575757575756,329.32862238093094 402.52525252525254,319.9020344549275 397.47474747474746,347.15338479949816 392.4242424242424,349.89397413418453 387.37373737373736,349.15955367445724 382.32323232323233,352.01160129564573 377.27272727272725,350.9715469607346 372.22222222222223,354.0144250839751 367.1717171717172,356.94003785032425 362.1212121212121,353.9185682815139 357.07070707070704,352.2486742752669 352.020202020202,353.78216902910066 346.969696969697,354.3775141671109 341.9191919191919,354.38918182927534 336.86868686868684,357.63562854445377 331.8181818181818,360.8605596624299 326.7676767676768,359.5914070344228 321.7171717171717,362.2675566202743 316.66666666666663,360.8327553023637 311.6161616161616,362.5882032442523 306.5656565656566,362.39539245091555 301.5151515151515,365.1968623622627 296.4646464646464,363.8872475663826 291.4141414141414,364.5163914596995 286.3636363636364,368.9739200989932 281.3131313131313,373.1637080044444 276.26262626262627,373.8140463666472 271.2121212121212,375.5958000697919 266.16161616161617,374.2276328775452 261.1111111111111,373.82756051663125 256.06060606060606,375.24159553674457 251.010101010101,376.62969944530437 245.95959595959596,376.63834314915556 240.9090909090909,375.90592974140606 235.85858585858585,375.9331988876115 230.8080808080808,380.3940190921488 225.75757575757575,377.3479832071299 220.7070707070707,380.06141043838295 215.65656565656565,375.0911736811795 210.6060606060606,377.8158136428154 205.55555555555554,377.58013221923215 200.50505050505052,378.33946688417757 195.45454545454544,381.0941323434018 190.40404040404042,381.5801600503529 185.35353535353534,383.5680781326603 180.3030303030303,385.09956583451617 175.25252525252526,387.4726238110224 170.2020202020202,390.1130746323616 165.15151515151516,392.85187100061444 160.1010101010101,395.0441872563439 155.05050505050505,397.8248908698938 150,400 "/><text class="poloto_text" alignment-baseline="middle" text-anchor="start" font-size="large" x="675" y="150" >default_seq</text><line class="poloto1stroke" stroke="black" x1="680" x2="730" y1="131.25" y2="131.25" /><polyline class="poloto1stroke" fill="none" stroke="black"  points="650,121.71991509367308 644.9494949494949,127.66119035844343 639.8989898989898,132.9664174710931 634.8484848484848,135.58064281325534 629.7979797979798,139.9498611655245 624.7474747474747,139.0826809076371 619.6969696969697,144.9830390727527 614.6464646464647,146.7188981873377 609.5959595959596,150.5324039879855 604.5454545454545,153.4420406205912 599.4949494949494,158.13843520593957 594.4444444444445,157.26041686737187 589.3939393939394,161.9707270130999 584.3434343434344,165.5054934350668 579.2929292929293,168.99661316668917 574.2424242424242,170.29878848990478 569.1919191919192,173.16788267255828 564.1414141414141,175.36659473392376 559.090909090909,178.45633083067332 554.040404040404,181.40289721967102 548.989898989899,183.35594611895024 543.939393939394,185.1239180651805 538.8888888888889,188.58744752228094 533.8383838383838,190.1234577812602 528.7878787878788,192.60976701070214 523.7373737373737,197.03515605765753 518.6868686868687,199.4955609362389 513.6363636363636,202.60020273901046 508.5858585858586,205.45583629306597 503.5353535353535,207.7958983350567 498.4848484848485,210.4225673994815 493.4343434343434,211.8727025945027 488.3838383838384,214.009570694258 483.3333333333333,217.13315906770026 478.2828282828283,219.6076400708195 473.2323232323232,222.36463371033796 468.1818181818182,224.7264521957684 463.1313131313131,228.4955620066666 458.0808080808081,230.83591841628078 453.030303030303,232.3318946784756 447.979797979798,235.08880803591498 442.9292929292929,237.6073371397743 437.8787878787879,240.805721650257 432.8282828282828,242.53826243890535 427.77777777777777,243.72135267810313 422.72727272727275,252.89663093578932 417.67676767676767,255.26377479913424 412.62626262626264,258.03449667418107 407.57575757575756,261.77663170649726 402.52525252525254,263.4478102260101 397.47474747474746,265.3051628869864 392.4242424242424,269.7537266941124 387.37373737373736,272.4948244819665 382.32323232323233,275.16971631524524 377.27272727272725,278.06434019905674 372.22222222222223,280.94421894100446 367.1717171717172,283.5044679653096 362.1212121212121,285.82903556603145 357.07070707070704,287.74890120594387 352.020202020202,290.3839731279825 346.969696969697,293.2227206847312 341.9191919191919,295.87561522833295 336.86868686868684,298.1853306444189 331.8181818181818,301.02844019413277 326.7676767676768,303.1220897746322 321.7171717171717,305.8578621845717 316.66666666666663,308.65759265087144 311.6161616161616,312.17159277504106 306.5656565656566,314.89093411945544 301.5151515151515,318.17473876211454 296.4646464646464,319.7256814878089 291.4141414141414,322.6295378107184 286.3636363636364,328.1050432131671 281.3131313131313,331.2278555265113 276.26262626262627,334.2549983622456 271.2121212121212,336.7025313474758 266.16161616161617,338.51543449731645 261.1111111111111,342.32869945172695 256.06060606060606,344.0840403508434 251.010101010101,347.6672703879016 245.95959595959596,350.19048261304255 240.9090909090909,352.47011901015406 235.85858585858585,355.02670181951305 230.8080808080808,357.5391027246667 225.75757575757575,360.72300970021604 220.7070707070707,362.07025003050717 215.65656565656565,366.47321361669697 210.6060606060606,368.7227442341411 205.55555555555554,371.42784888985943 200.50505050505052,374.1150506419355 195.45454545454544,376.7569733013918 190.40404040404042,379.1544102692554 185.35353535353534,381.9416702525995 180.3030303030303,385.2208988167492 175.25252525252526,387.42046722029187 170.2020202020202,390.08460125496947 165.15151515151516,392.7828284125771 160.1010101010101,395.0039124133221 155.05050505050505,397.8246232629634 150,399.99983943584175 "/><text class="poloto_text" alignment-baseline="middle" text-anchor="start" font-size="large" x="675" y="200" >direct_par</text><line class="poloto2stroke" stroke="black" x1="680" x2="730" y1="181.25" y2="181.25" /><polyline class="poloto2stroke" fill="none" stroke="black"  points="650,272.8556121455011 644.9494949494949,312.56262002170826 639.8989898989898,315.60635448712594 634.8484848484848,318.0451634864259 629.7979797979798,320.21470639238026 624.7474747474747,319.6866376366669 619.6969696969697,317.5648625677848 614.6464646464647,320.69374955844853 609.5959595959596,317.9741138464108 604.5454545454545,317.82072155391853 599.4949494949494,320.8781307334785 594.4444444444445,322.5405049849819 589.3939393939394,323.94233712907004 584.3434343434344,325.4914066062517 579.2929292929293,326.6463445963738 574.2424242424242,328.52237622109044 569.1919191919192,326.5321834798749 564.1414141414141,326.5757498881403 559.090909090909,316.5616844678797 554.040404040404,328.8410425537836 548.989898989899,331.10159857675933 543.939393939394,329.8839602828498 538.8888888888889,330.29002703900426 533.8383838383838,330.51810842576475 528.7878787878788,331.84102328608463 523.7373737373737,325.51533066582743 518.6868686868687,335.96120662894475 513.6363636363636,335.19577052598675 508.5858585858586,338.2427965566481 503.5353535353535,335.5965119042267 498.4848484848485,337.8924723240913 493.4343434343434,336.91485068603714 488.3838383838384,337.0319554787702 483.3333333333333,332.70571479951957 478.2828282828283,336.86962511480334 473.2323232323232,332.7367036820573 468.1818181818182,341.05558624115025 463.1313131313131,339.5118689025761 458.0808080808081,338.59480671286633 453.030303030303,339.26395784227464 447.979797979798,341.05695103649515 442.9292929292929,337.7572505421716 437.8787878787879,343.7571852460806 432.8282828282828,343.9152606598544 427.77777777777777,343.7535190311345 422.72727272727275,346.7195939653567 417.67676767676767,344.9753052324648 412.62626262626264,346.42113195590696 407.57575757575756,346.33169771977487 402.52525252525254,304.3308167577601 397.47474747474746,335.0009794413652 392.4242424242424,350.6336664504403 387.37373737373736,354.31532231649123 382.32323232323233,353.8212931623218 377.27272727272725,351.36348407096506 372.22222222222223,351.81798768151776 367.1717171717172,357.2298026345367 362.1212121212121,358.0029458170896 357.07070707070704,357.13895008167367 352.020202020202,356.34386313082985 346.969696969697,356.29970798731756 341.9191919191919,356.48173422136017 336.86868686868684,360.7170153049756 331.8181818181818,359.59924791748284 326.7676767676768,359.74742187483275 321.7171717171717,362.24170579079987 316.66666666666663,359.16478806601543 311.6161616161616,363.79460204708596 306.5656565656566,363.31502366715694 301.5151515151515,366.57059577866124 296.4646464646464,368.22488830086724 291.4141414141414,369.22589878463634 286.3636363636364,370.71382007822683 281.3131313131313,371.1793223336181 276.26262626262627,373.89183970130784 271.2121212121212,376.30482463182636 266.16161616161617,375.9261608253426 261.1111111111111,373.43779102253677 256.06060606060606,377.9967694491365 251.010101010101,375.54827307895687 245.95959595959596,375.793775676885 240.9090909090909,379.275448883865 235.85858585858585,379.789013343952 230.8080808080808,377.132372303325 225.75757575757575,379.1799132097203 220.7070707070707,380.04604980057934 215.65656565656565,374.5816233250482 210.6060606060606,378.1524096398439 205.55555555555554,377.4022538926104 200.50505050505052,381.12311417396165 195.45454545454544,381.4222987221234 190.40404040404042,381.95381960723864 185.35353535353534,384.69756670370344 180.3030303030303,384.85639141688233 175.25252525252526,388.00422497821677 170.2020202020202,390.432597307232 165.15151515151516,393.0323986358469 160.1010101010101,395.14277364949487 155.05050505050505,397.9512548624179 150,399.9983140763386 "/><text class="poloto_text" alignment-baseline="middle" text-anchor="start" font-size="large" x="675" y="250" >direct_seq</text><line class="poloto3stroke" stroke="black" x1="680" x2="730" y1="231.25" y2="231.25" /><polyline class="poloto3stroke" fill="none" stroke="black"  points="650,130.34611745161135 644.9494949494949,133.12821262119917 639.8989898989898,135.39235457704189 634.8484848484848,138.26316144404979 629.7979797979798,141.66345538350214 624.7474747474747,144.0069427942017 619.6969696969697,148.15003329030216 614.6464646464647,149.78409472857163 609.5959595959596,153.02642029702227 604.5454545454545,155.9297681667641 599.4949494949494,159.02362541024144 594.4444444444445,160.07687276682017 589.3939393939394,163.72612143360246 584.3434343434344,166.7425867528147 579.2929292929293,170.40104109800197 574.2424242424242,172.16866515522273 569.1919191919192,174.95916318242442 564.1414141414141,177.69640743048106 559.090909090909,181.07451675540514 554.040404040404,182.78843210169921 548.989898989899,185.1792591783825 543.939393939394,187.93544999710986 538.8888888888889,189.89339610321494 533.8383838383838,192.73281267728962 528.7878787878788,196.41318403007475 523.7373737373737,198.78147860322028 518.6868686868687,201.46134792540403 513.6363636363636,203.75251818121484 508.5858585858586,206.50576532370803 503.5353535353535,209.52091936896144 498.4848484848485,211.55237709884116 493.4343434343434,213.4570961864942 488.3838383838384,214.93784561435058 483.3333333333333,217.98275755026194 478.2828282828283,220.75064279184676 473.2323232323232,224.4770425366568 468.1818181818182,226.5760174950707 463.1313131313131,229.8173261571859 458.0808080808081,231.5665923789828 453.030303030303,233.38249272644362 447.979797979798,236.6450761395238 442.9292929292929,239.42497693228262 437.8787878787879,242.30418665690436 432.8282828282828,243.9573017086167 427.77777777777777,245.01004061202775 422.72727272727275,254.53112054514745 417.67676767676767,256.8737516136698 412.62626262626264,259.7580458699687 407.57575757575756,263.35532527087173 402.52525252525254,265.1717340715003 397.47474747474746,267.9901167408473 392.4242424242424,271.29864826387325 387.37373737373736,273.1411487402136 382.32323232323233,276.8826415158969 377.27272727272725,279.52194162743547 372.22222222222223,282.1882165175561 367.1717171717172,285.19710856063864 362.1212121212121,286.7511287660323 357.07070707070704,288.8126922755795 352.020202020202,291.21719406640506 346.969696969697,294.28509343763585 341.9191919191919,296.8516312248048 336.86868686868684,299.0250276705566 331.8181818181818,301.5600948827132 326.7676767676768,304.5067950751761 321.7171717171717,306.8686938426857 316.66666666666663,309.8731168500309 311.6161616161616,312.6864149877008 306.5656565656566,315.145990284798 301.5151515151515,318.7779783045709 296.4646464646464,320.9607142321929 291.4141414141414,323.9817556299146 286.3636363636364,328.49706060547675 281.3131313131313,331.4674975326641 276.26262626262627,334.72563867070005 271.2121212121212,337.0311794186721 266.16161616161617,339.12035996343417 261.1111111111111,342.46426912265605 256.06060606060606,344.61224291002196 251.010101010101,347.6820155297654 245.95959595959596,350.3957371286419 240.9090909090909,352.8975675600457 235.85858585858585,355.42672065904094 230.8080808080808,357.95113711536857 225.75757575757575,361.0556183539819 220.7070707070707,362.83343823525 215.65656565656565,367.0491840129479 210.6060606060606,368.0865890392483 205.55555555555554,371.8451551370897 200.50505050505052,374.5891430797918 195.45454545454544,377.00673084951285 190.40404040404042,379.4870724444073 185.35353535353534,382.0665356463136 180.3030303030303,385.1979649028159 175.25252525252526,387.45600542064597 170.2020202020202,390.18714823069 165.15151515151516,392.9722673585911 160.1010101010101,395.0789493965999 155.05050505050505,397.8715079971655 150,399.99903661505067 "/><text class="poloto_text" alignment-baseline="middle" text-anchor="start" font-size="large" x="675" y="300" >indirect_par</text><line class="poloto4stroke" stroke="black" x1="680" x2="730" y1="281.25" y2="281.25" /><polyline class="poloto4stroke" fill="none" stroke="black"  points="650,261.57782651792 644.9494949494949,301.69689554552207 639.8989898989898,305.2442394932167 634.8484848484848,277.00590126802865 629.7979797979798,308.3156712759284 624.7474747474747,306.4910737032303 619.6969696969697,308.2977148509001 614.6464646464647,311.3902875811117 609.5959595959596,310.84070322819593 604.5454545454545,310.94547134143863 599.4949494949494,312.97866851636576 594.4444444444445,312.5564918230026 589.3939393939394,311.44950899480415 584.3434343434344,314.87485094293976 579.2929292929293,315.2355850850883 574.2424242424242,316.7526755340899 569.1919191919192,317.8154496973901 564.1414141414141,316.6814385692235 559.090909090909,320.5115627602477 554.040404040404,320.80483319524814 548.989898989899,320.7214468757426 543.939393939394,319.28429061684466 538.8888888888889,322.69028458391404 533.8383838383838,321.9498162075602 528.7878787878788,320.94891276656324 523.7373737373737,325.2236658724093 518.6868686868687,325.9622074788644 513.6363636363636,325.36525669927187 508.5858585858586,322.4368072994607 503.5353535353535,326.7995763247078 498.4848484848485,327.29261533323483 493.4343434343434,330.53207750753046 488.3838383838384,330.3080102247256 483.3333333333333,328.2886215674059 478.2828282828283,331.9854775071023 473.2323232323232,333.42346334748436 468.1818181818182,332.6353609375234 463.1313131313131,332.0226213490387 458.0808080808081,332.6350665699 453.030303030303,333.66730678244414 447.979797979798,334.42265410412693 442.9292929292929,337.6938276996722 437.8787878787879,334.0771735570099 432.8282828282828,336.06319163011153 427.77777777777777,339.1420896461808 422.72727272727275,340.54865843293663 417.67676767676767,339.52364360751267 412.62626262626264,341.1825924903073 407.57575757575756,343.37533691712537 402.52525252525254,323.99695570356005 397.47474747474746,342.41133647182744 392.4242424242424,348.14708961406797 387.37373737373736,346.93678375005084 382.32323232323233,347.52953310083643 377.27272727272725,350.7217358912274 372.22222222222223,348.718109282107 367.1717171717172,351.94063193770967 362.1212121212121,353.69996018008874 357.07070707070704,351.142092857464 352.020202020202,351.1407548228121 346.969696969697,352.60397599672876 341.9191919191919,355.3872218761173 336.86868686868684,354.8483953218027 331.8181818181818,358.9916999034474 326.7676767676768,356.72951147819646 321.7171717171717,360.20949876151514 316.66666666666663,360.7947283575571 311.6161616161616,358.5467766210022 306.5656565656566,359.29519292318827 301.5151515151515,361.9730551933942 296.4646464646464,362.19755064728764 291.4141414141414,360.84790185462305 286.3636363636364,366.11122172197565 281.3131313131313,367.02485854297663 276.26262626262627,369.4998212385705 271.2121212121212,370.1463595823619 266.16161616161617,372.55581210139945 261.1111111111111,371.3477541355975 256.06060606060606,374.4301042810686 251.010101010101,375.54656039460247 245.95959595959596,376.2545412896085 240.9090909090909,372.81656829435906 235.85858585858585,376.8707062468021 230.8080808080808,378.4479547337525 225.75757575757575,379.704636878804 220.7070707070707,378.8110973382744 215.65656565656565,372.7294889992143 210.6060606060606,374.6003825708677 205.55555555555554,375.32621284812984 200.50505050505052,378.0530471865948 195.45454545454544,379.72069329462664 190.40404040404042,381.3013403895929 185.35353535353534,383.47018751752825 180.3030303030303,383.722514092181 175.25252525252526,386.5042078513733 170.2020202020202,389.3267919495272 165.15151515151516,392.4073758892578 160.1010101010101,394.7297223524576 155.05050505050505,397.67192674849014 150,399.998554922576 "/><text class="poloto_text" alignment-baseline="middle" text-anchor="start" font-size="large" x="675" y="350" >indirect_seq</text><line class="poloto5stroke" stroke="black" x1="680" x2="730" y1="331.25" y2="331.25" /><polyline class="poloto5stroke" fill="none" stroke="black"  points="650,100 644.9494949494949,103.97144741095644 639.8989898989898,105.5888369374635 634.8484848484848,108.832527301259 629.7979797979798,113.0461322235139 624.7474747474747,116.06580882589066 619.6969696969697,119.59308225380698 614.6464646464647,122.14088755584959 609.5959595959596,126.41242937853104 604.5454545454545,129.37160005394952 599.4949494949494,132.82156183967987 594.4444444444445,134.36584115280783 589.3939393939394,138.68755927493504 584.3434343434344,142.061306606894 579.2929292929293,145.33745769134433 574.2424242424242,147.9024968797032 569.1919191919192,150.7879150851097 564.1414141414141,153.64542188767788 559.090909090909,157.53013789249908 554.040404040404,159.88534648674914 548.989898989899,163.00700809029271 543.939393939394,165.4178254046752 538.8888888888889,168.24487853856644 533.8383838383838,171.50890702907068 528.7878787878788,175.0640650991323 523.7373737373737,178.05294014382267 518.6868686868687,180.71388965602875 513.6363636363636,184.24488282027733 508.5858585858586,186.9940623374288 503.5353535353535,189.79665619788355 498.4848484848485,192.30820076086002 493.4343434343434,193.93035369072774 488.3838383838384,196.66650075036983 483.3333333333333,199.88950509844722 478.2828282828283,202.67344675585468 473.2323232323232,206.13084801424952 468.1818181818182,209.3392945453144 463.1313131313131,212.57083555447085 458.0808080808081,215.0033290302139 453.030303030303,217.26693577219586 447.979797979798,220.69618478151497 442.9292929292929,222.5588895810988 437.8787878787879,227.064293100237 432.8282828282828,228.74186742538583 427.77777777777777,229.88090956384352 422.72727272727275,240.94019413277158 417.67676767676767,243.57376745600007 412.62626262626264,246.57813694195926 407.57575757575756,250.79473906183432 402.52525252525254,252.74463019933506 397.47474747474746,256.24862182430854 392.4242424242424,259.19069241687595 387.37373737373736,262.63249219122974 382.32323232323233,265.6871717800999 377.27272727272725,267.82192578510524 372.22222222222223,271.493519630574 367.1717171717172,275.16701348524845 362.1212121212121,276.2160861737133 357.07070707070704,279.41976930141743 352.020202020202,282.1135809446739 346.969696969697,285.5188791337242 341.9191919191919,287.80635641389586 336.86868686868684,290.6536138710306 331.8181818181818,293.5471138057345 326.7676767676768,296.3198159720661 321.7171717171717,298.8625099817385 316.66666666666663,301.9955984012091 311.6161616161616,305.234525361644 306.5656565656566,308.1382478810883 301.5151515151515,311.8945660807145 296.4646464646464,314.4779631044973 291.4141414141414,317.65986302806874 286.3636363636364,321.16101801958024 281.3131313131313,324.2089806744979 276.26262626262627,327.2997336775829 271.2121212121212,330.413260030443 266.16161616161617,332.97201045593795 261.1111111111111,336.60357030462234 256.06060606060606,339.4938857168547 251.010101010101,342.5793668634113 245.95959595959596,345.7599822737169 240.9090909090909,348.4781729083307 235.85858585858585,351.1298899814388 230.8080808080808,353.9430810763365 225.75757575757575,357.4692840765313 220.7070707070707,359.3149958360362 215.65656565656565,363.68619447959014 210.6060606060606,366.5458688982944 205.55555555555554,369.30810763364826 200.50505050505052,372.3125841623796 195.45454545454544,375.27534077066514 190.40404040404042,377.67617634654454 185.35353535353534,380.4561038999964 180.3030303030303,383.722514092181 175.25252525252526,386.394810138235 170.2020202020202,389.3391286290176 165.15151515151516,392.3851377533435 160.1010101010101,394.6730432046037 155.05050505050505,397.63574629150315 150,399.99954506821837 "/><text class="poloto_text" alignment-baseline="start" text-anchor="middle" font-size="x-large" x="400" y="37.5" >Bench of query:32_bytes with abspiral(num,0.1)</text><text class="poloto_text" alignment-baseline="start" text-anchor="middle" font-size="x-large" x="400" y="481.25" >Number of Elements</text><text class="poloto_text" alignment-baseline="start" text-anchor="middle" font-size="x-large" transform="rotate(-90,37.5,250)" x="37.5" y="250" >Time in Seconds</text><path stroke="black" fill="none" class="poloto_axis_lines"  d="M 150 100 L 150 400 L 650 400 "/></svg>