<svg class="poloto" width="800" height="500" viewBox="0 0 800 500" xmlns="http://www.w3.org/2000/svg" ><style><style>.poloto {
            font-family: "Arial";
            stroke-width:2;
            }
            .poloto_text{fill: var(--poloto_fg_color,black);  }
            .poloto_axis_lines{stroke: var(--poloto_fg_color,black);stoke-width:3;fill:none}
            .poloto_background{fill: var(--poloto_bg_color,aliceblue); }
            .poloto0stroke{stroke:  var(--poloto_color0,blue); }
            .poloto1stroke{stroke:  var(--poloto_color1,red); }
            .poloto2stroke{stroke:  var(--poloto_color2,green); }
            .poloto3stroke{stroke:  var(--poloto_color3,gold); }
            .poloto4stroke{stroke:  var(--poloto_color4,aqua); }
            .poloto5stroke{stroke:  var(--poloto_color5,brown); }
            .poloto6stroke{stroke:  var(--poloto_color6,lime); }
            .poloto7stroke{stroke:  var(--poloto_color7,chocolate); }
            .poloto0fill{fill:var(--poloto_color0,blue);}
            .poloto1fill{fill:var(--poloto_color1,red);}
            .poloto2fill{fill:var(--poloto_color2,green);}
            .poloto3fill{fill:var(--poloto_color3,gold);}
            .poloto4fill{fill:var(--poloto_color4,aqua);}
            .poloto5fill{fill:var(--poloto_color5,brown);}
            .poloto6fill{fill:var(--poloto_color6,lime);}
            .poloto7fill{fill:var(--poloto_color7,chocolate);}</style></style><rect class="poloto_background" fill="white" x="0" y="0" width="800" height="500" /><line class="poloto_axis_lines" stroke="black" x1="150" x2="150" y1="400" y2="405" /><text class="poloto_text" alignment-baseline="start" text-anchor="middle" x="150" y="430" >0</text><line class="poloto_axis_lines" stroke="black" x1="234.17508417508418" x2="234.17508417508418" y1="400" y2="405" /><text class="poloto_text" alignment-baseline="start" text-anchor="middle" x="234.17508417508418" y="430" >5000</text><line class="poloto_axis_lines" stroke="black" x1="318.35016835016836" x2="318.35016835016836" y1="400" y2="405" /><text class="poloto_text" alignment-baseline="start" text-anchor="middle" x="318.35016835016836" y="430" >10000</text><line class="poloto_axis_lines" stroke="black" x1="402.52525252525254" x2="402.52525252525254" y1="400" y2="405" /><text class="poloto_text" alignment-baseline="start" text-anchor="middle" x="402.52525252525254" y="430" >15000</text><line class="poloto_axis_lines" stroke="black" x1="486.7003367003367" x2="486.7003367003367" y1="400" y2="405" /><text class="poloto_text" alignment-baseline="start" text-anchor="middle" x="486.7003367003367" y="430" >20000</text><line class="poloto_axis_lines" stroke="black" x1="570.8754208754208" x2="570.8754208754208" y1="400" y2="405" /><text class="poloto_text" alignment-baseline="start" text-anchor="middle" x="570.8754208754208" y="430" >25000</text><line class="poloto_axis_lines" stroke="black" x1="150" x2="144" y1="364.0181194437045" y2="364.0181194437045" /><text class="poloto_text" alignment-baseline="middle" text-anchor="end" x="135" y="364.0181194437045" >0.005</text><line class="poloto_axis_lines" stroke="black" x1="150" x2="144" y1="328.0348571301362" y2="328.0348571301362" /><text class="poloto_text" alignment-baseline="middle" text-anchor="end" x="135" y="328.0348571301362" >0.010</text><line class="poloto_axis_lines" stroke="black" x1="150" x2="144" y1="292.0515948165679" y2="292.0515948165679" /><text class="poloto_text" alignment-baseline="middle" text-anchor="end" x="135" y="292.0515948165679" >0.015</text><line class="poloto_axis_lines" stroke="black" x1="150" x2="144" y1="256.0683325029995" y2="256.0683325029995" /><text class="poloto_text" alignment-baseline="middle" text-anchor="end" x="135" y="256.0683325029995" >0.020</text><line class="poloto_axis_lines" stroke="black" x1="150" x2="144" y1="220.08507018943124" y2="220.08507018943124" /><text class="poloto_text" alignment-baseline="middle" text-anchor="end" x="135" y="220.08507018943124" >0.025</text><line class="poloto_axis_lines" stroke="black" x1="150" x2="144" y1="184.1018078758629" y2="184.1018078758629" /><text class="poloto_text" alignment-baseline="middle" text-anchor="end" x="135" y="184.1018078758629" >0.030</text><line class="poloto_axis_lines" stroke="black" x1="150" x2="144" y1="148.1185455622946" y2="148.1185455622946" /><text class="poloto_text" alignment-baseline="middle" text-anchor="end" x="135" y="148.1185455622946" >0.035</text><line class="poloto_axis_lines" stroke="black" x1="150" x2="144" y1="112.13528324872624" y2="112.13528324872624" /><text class="poloto_text" alignment-baseline="middle" text-anchor="end" x="135" y="112.13528324872624" >0.040</text><text class="poloto_text" alignment-baseline="middle" text-anchor="start" font-size="large" x="675" y="100" >default_par</text><line class="poloto0stroke" stroke="black" x1="680" x2="730" y1="81.25" y2="81.25" /><polyline class="poloto0stroke" fill="none" stroke="black"  points="650,391.2812411481175 644.9494949494949,379.9218937712685 639.8989898989898,380.6174286418324 634.8484848484848,390.9607238373856 629.7979797979798,378.0690940047855 624.7474747474747,380.0521891641059 619.6969696969697,381.32032568786565 614.6464646464647,367.6904848355978 609.5959595959596,386.46473035774466 604.5454545454545,388.478915055704 599.4949494949494,391.8678330937008 594.4444444444445,391.615532851663 589.3939393939394,391.9886001186776 584.3434343434344,392.5841734865344 579.2929292929293,392.48539943148364 574.2424242424242,388.55644459268484 569.1919191919192,386.1720928786533 564.1414141414141,392.2446786032583 559.090909090909,391.3553090952637 554.040404040404,390.3944480417045 548.989898989899,391.7651296664054 543.939393939394,392.5710827757047 538.8888888888889,391.3011902687441 533.8383838383838,385.8068195862558 528.7878787878788,390.89805538774027 523.7373737373737,389.90568019304686 518.6868686868687,393.2792693612981 513.6363636363636,393.2430701994106 508.5858585858586,392.82898201335854 503.5353535353535,387.86333499400087 498.4848484848485,384.5969543574867 493.4343434343434,390.865001162979 488.3838383838384,391.8173269867175 483.3333333333333,392.57014721088456 478.2828282828283,393.38796040344243 473.2323232323232,391.85723242462325 468.1818181818182,351.0723851778897 463.1313131313131,370.2781059984386 458.0808080808081,385.37392654731866 453.030303030303,392.2913560911315 447.979797979798,391.82946773942206 442.9292929292929,379.04457865614893 437.8787878787879,390.65307414125704 432.8282828282828,389.17488892206813 427.77777777777777,393.6507821513807 422.72727272727275,393.8089429825538 417.67676767676767,375.4322549357521 412.62626262626264,392.88077632113266 407.57575757575756,385.99003196465156 402.52525252525254,393.18677798384726 397.47474747474746,371.0295948419001 392.4242424242424,388.8236922818877 387.37373737373736,388.3417036798499 382.32323232323233,387.44192061574176 377.27272727272725,393.1739535491587 372.22222222222223,388.79216374744857 367.1717171717172,378.90178267798376 362.1212121212121,391.61864180552686 357.07070707070704,388.8980552917849 352.020202020202,387.15529953810926 346.969696969697,392.6579391742772 341.9191919191919,385.64436235356254 336.86868686868684,395.3790222570391 331.8181818181818,392.3642941638411 326.7676767676768,384.92442363449754 321.7171717171717,394.8127104780957 316.66666666666663,365.84007435773236 311.6161616161616,389.8682288136309 306.5656565656566,391.53716130634405 301.5151515151515,396.2640953635135 296.4646464646464,395.20556134273033 291.4141414141414,396.03855227533205 286.3636363636364,393.6803172130877 281.3131313131313,395.36359263415903 276.26262626262627,393.21883907056866 271.2121212121212,394.8670236142318 266.16161616161617,375.0333228997865 261.1111111111111,395.43023363596376 256.06060606060606,392.05640697818126 251.010101010101,395.892740899785 245.95959595959596,395.13199716125644 240.9090909090909,395.61094877595497 235.85858585858585,396.5233187852204 230.8080808080808,387.6772295613151 225.75757575757575,394.20755836581105 220.7070707070707,385.6255071241102 215.65656565656565,397.1649435321861 210.6060606060606,383.51046853853836 205.55555555555554,397.8540661854057 200.50505050505052,398.2322214857115 195.45454545454544,348.2117518072234 190.40404040404042,396.59552279937884 185.35353535353534,397.31855607900275 180.3030303030303,398.9187749340019 175.25252525252526,398.9190771934053 170.2020202020202,399.1047436302909 165.15151515151516,335.2394331072113 160.1010101010101,399.6284584233075 155.05050505050505,399.84668251593433 150,400 "/><text class="poloto_text" alignment-baseline="middle" text-anchor="start" font-size="large" x="675" y="150" >default_seq</text><line class="poloto1stroke" stroke="black" x1="680" x2="730" y1="131.25" y2="131.25" /><polyline class="poloto1stroke" fill="none" stroke="black"  points="650,374.6692658416552 644.9494949494949,367.65010441862944 639.8989898989898,373.4655537507417 634.8484848484848,375.47961610560924 629.7979797979798,377.7256913392222 624.7474747474747,372.1961650094535 619.6969696969697,377.2728491796584 614.6464646464647,367.9627341982622 609.5959595959596,378.6196091315732 604.5454545454545,378.78661464862296 599.4949494949494,379.23568576229627 594.4444444444445,379.248776473126 589.3939393939394,377.4502466628643 584.3434343434344,380.02801560848366 579.2929292929293,379.7585009737551 574.2424242424242,380.3833863070925 569.1919191919192,379.0026365655962 564.1414141414141,380.0838544349419 559.090909090909,380.9182703047312 554.040404040404,373.7023020268076 548.989898989899,381.71205387471605 543.939393939394,381.82730826390645 538.8888888888889,382.06528716754343 533.8383838383838,382.0879278361911 528.7878787878788,376.0946852049875 523.7373737373737,378.93112343007425 518.6868686868687,378.6534477914529 513.6363636363636,383.0529485548738 508.5858585858586,383.016245627314 503.5353535353535,383.2904308894909 498.4848484848485,381.2664803341396 493.4343434343434,381.23068418479005 488.3838383838384,381.0659815965284 483.3333333333333,383.27547624567336 478.2828282828283,382.4602898312644 473.2323232323232,383.6911045153525 468.1818181818182,384.12301161290225 463.1313131313131,385.1907357588803 458.0808080808081,379.35063069543077 453.030303030303,385.4920955807564 447.979797979798,359.46877717935746 442.9292929292929,386.1494378167007 437.8787878787879,385.9116244360703 432.8282828282828,375.7558883970004 427.77777777777777,376.2256858697663 422.72727272727275,383.7901952231116 417.67676767676767,379.72883637230376 412.62626262626264,387.8702509770175 407.57575757575756,388.09497364681823 402.52525252525254,388.7939269273019 397.47474747474746,379.4720670090866 392.4242424242424,379.3409440012159 387.37373737373736,389.63597844535417 382.32323232323233,387.07777000112844 377.27272727272725,390.02038043999755 372.22222222222223,386.31619145091423 367.1717171717172,362.0927126505252 362.1212121212121,385.95163062711055 357.07070707070704,389.7537516629065 352.020202020202,362.9336486874457 346.969696969697,388.3345933872167 341.9191919191919,360.87569394920814 336.86868686868684,391.8087557736344 331.8181818181818,391.6781005481738 326.7676767676768,390.66637355500814 321.7171717171717,392.3945776774042 316.66666666666663,392.20806203552803 311.6161616161616,392.8393307995999 306.5656565656566,392.65748578517207 301.5151515151515,389.12215185282133 296.4646464646464,393.3817928722819 291.4141414141414,393.6747757906914 286.3636363636364,393.1822800760581 281.3131313131313,394.6509297307339 276.26262626262627,392.2869301498669 271.2121212121212,394.78157056288956 266.16161616161617,373.90750737512946 261.1111111111111,387.67324261585077 256.06060606060606,392.61768829705323 251.010101010101,384.15472726030544 245.95959595959596,393.1410072741844 240.9090909090909,392.45158236156135 235.85858585858585,388.1388516368834 230.8080808080808,396.33447862459883 225.75757575757575,396.1382043219832 220.7070707070707,397.00240713631575 215.65656565656565,396.49397083647744 210.6060606060606,397.1628780929293 205.55555555555554,397.29972243950783 200.50505050505052,390.8393163103396 195.45454545454544,397.985261159801 190.40404040404042,398.3574432385627 185.35353535353534,398.3803429866991 180.3030303030303,398.6695188759558 175.25252525252526,398.3555145357027 170.2020202020202,399.1296944243791 165.15151515151516,399.42621089914786 160.1010101010101,399.58386076799604 155.05050505050505,399.82531565477257 150,399.999704937249 "/><text class="poloto_text" alignment-baseline="middle" text-anchor="start" font-size="large" x="675" y="200" >direct_par</text><line class="poloto2stroke" stroke="black" x1="680" x2="730" y1="181.25" y2="181.25" /><polyline class="poloto2stroke" fill="none" stroke="black"  points="650,313.985962401617 644.9494949494949,346.2423806641493 639.8989898989898,301.0984850374878 634.8484848484848,297.99514456251643 629.7979797979798,286.6200005335118 624.7474747474747,312.7394949984225 619.6969696969697,288.072947092514 614.6464646464647,341.7695316188284 609.5959595959596,337.9639274032405 604.5454545454545,330.1049166378161 599.4949494949494,319.2070258135288 594.4444444444445,361.8044291461738 589.3939393939394,365.4124708583553 584.3434343434344,361.6062765172654 579.2929292929293,354.088221555567 574.2424242424242,321.95538420912436 569.1919191919192,349.27548900773706 564.1414141414141,332.2276196582607 559.090909090909,367.23361974730733 554.040404040404,358.8168396294127 548.989898989899,364.87961631671106 543.939393939394,362.6325047651435 538.8888888888889,355.97371571418813 533.8383838383838,354.8579107331067 528.7878787878788,358.6731584629946 523.7373737373737,367.6982356303001 518.6868686868687,342.4953787895653 513.6363636363636,365.3694636632381 508.5858585858586,371.50080285854875 503.5353535353535,374.2872243490196 498.4848484848485,341.94318684275373 493.4343434343434,341.6065850137677 488.3838383838384,324.3235866350295 483.3333333333333,361.07709226837716 478.2828282828283,346.9454000532744 473.2323232323232,343.3967523138677 468.1818181818182,350.0720001090053 463.1313131313131,334.66068551281234 458.0808080808081,294.2694159926122 453.030303030303,331.4927334920307 447.979797979798,357.36255449305247 442.9292929292929,361.0489677505529 437.8787878787879,363.98796546988575 432.8282828282828,295.4786982925318 427.77777777777777,336.5730807583391 422.72727272727275,373.9304431065281 417.67676767676767,339.93531360900414 412.62626262626264,342.52585661274486 407.57575757575756,337.32333897422944 402.52525252525254,373.16290572807475 397.47474747474746,337.9076999575493 392.4242424242424,270.9130474541506 387.37373737373736,315.9449991517546 382.32323232323233,349.0993437420597 377.27272727272725,361.6508165993572 372.22222222222223,340.62239241292434 367.1717171717172,371.5788073745921 362.1212121212121,241.41867562019792 357.07070707070704,368.1050839839747 352.020202020202,343.9748234229352 346.969696969697,333.2642110856851 341.9191919191919,371.36703867922427 336.86868686868684,348.47457355516167 331.8181818181818,377.73311108791125 326.7676767676768,374.86681395175674 321.7171717171717,343.46148620276983 316.66666666666663,382.22411009074307 311.6161616161616,351.61743084880584 306.5656565656566,379.85918933836086 301.5151515151515,370.1064442472455 296.4646464646464,362.263467623508 291.4141414141414,382.8995591042835 286.3636363636364,371.9841084479872 281.3131313131313,380.6812125726094 276.26262626262627,307.951187889051 271.2121212121212,248.4925316019403 266.16161616161617,353.52354341673265 261.1111111111111,375.5001769416952 256.06060606060606,388.90788591904897 251.010101010101,369.96323805989 245.95959595959596,378.5116809345899 240.9090909090909,384.5732269943171 235.85858585858585,388.4225580702685 230.8080808080808,384.0664963011125 225.75757575757575,379.9672614683935 220.7070707070707,378.98098183833594 215.65656565656565,384.8751769416952 210.6060606060606,381.02118963160046 205.55555555555554,394.20620539514806 200.50505050505052,391.72757753385497 195.45454545454544,393.59242449656057 190.40404040404042,390.44653741222965 185.35353535353534,395.6966824967433 180.3030303030303,377.0538262586082 175.25252525252526,390.8194535495425 170.2020202020202,395.5932018309819 165.15151515151516,397.7605600799577 160.1010101010101,398.60600841797236 155.05050505050505,399.3976905654381 150,399.9995753975047 "/><text class="poloto_text" alignment-baseline="middle" text-anchor="start" font-size="large" x="675" y="250" >direct_seq</text><line class="poloto3stroke" stroke="black" x1="680" x2="730" y1="231.25" y2="231.25" /><polyline class="poloto3stroke" fill="none" stroke="black"  points="650,226.62176803135668 644.9494949494949,293.786347892705 639.8989898989898,210.77822248825314 634.8484848484848,273.19453741453253 629.7979797979798,131.99920270686255 624.7474747474747,237.1956655617726 619.6969696969697,222.8414960324375 614.6464646464647,237.7736934909253 609.5959595959596,239.35981410375 604.5454545454545,235.10169157795912 599.4949494949494,294.98533897960294 594.4444444444445,303.04082555391193 589.3939393939394,305.71700872195896 584.3434343434344,309.1709773015662 579.2929292929293,270.83920260323066 574.2424242424242,306.6014269330592 569.1919191919192,303.8870295404352 564.1414141414141,293.46175727667924 559.090909090909,312.4957947560776 554.040404040404,309.78482297002586 548.989898989899,311.08123514131154 543.939393939394,318.99963987951077 538.8888888888889,318.2680713700661 533.8383838383838,309.9110810408317 528.7878787878788,284.93422787403597 523.7373737373737,321.48239861931745 518.6868686868687,310.9231822599254 513.6363636363636,319.58880103002326 508.5858585858586,327.1317995891575 503.5353535353535,326.0934161952699 498.4848484848485,305.75317909723657 493.4343434343434,296.82552301431883 488.3838383838384,288.9560123329513 483.3333333333333,305.2729248884423 478.2828282828283,302.28889051799774 473.2323232323232,308.2410474602917 468.1818181818182,302.62330456463513 463.1313131313131,331.017480956698 458.0808080808081,235.71584670247464 453.030303030303,100 447.979797979798,324.4717081360171 442.9292929292929,329.0919518204268 437.8787878787879,327.4050276965569 432.8282828282828,256.4361534103689 427.77777777777777,277.4355463007671 422.72727272727275,263.8525700493364 417.67676767676767,338.75469557584347 412.62626262626264,255.44401570520668 407.57575757575756,327.98240792698795 402.52525252525254,315.05275098277485 397.47474747474746,318.54795638099347 392.4242424242424,344.0886312849805 387.37373737373736,324.50464721433895 382.32323232323233,305.5173447960334 377.27272727272725,249.19397492417608 372.22222222222223,233.60444242639647 367.1717171717172,311.1817363929533 362.1212121212121,356.70049125309265 357.07070707070704,336.72703154782147 352.020202020202,259.85333989923913 346.969696969697,330.5972252394854 341.9191919191919,340.5702022892647 336.86868686868684,331.78298168250444 331.8181818181818,322.3201897191118 326.7676767676768,312.1880443068146 321.7171717171717,347.44799267131293 316.66666666666663,366.942709464807 311.6161616161616,355.25198502865993 306.5656565656566,367.4437548025661 301.5151515151515,355.9053906957071 296.4646464646464,359.15195175133897 291.4141414141414,368.7088327490291 286.3636363636364,238.39816861507236 281.3131313131313,376.25073022033655 276.26262626262627,307.0114130272076 271.2121212121212,298.20753216999606 266.16161616161617,338.6078406856894 261.1111111111111,350.101686300414 256.06060606060606,359.9365164095191 251.010101010101,366.1671550155102 245.95959595959596,379.4149543751425 240.9090909090909,343.9032886974558 235.85858585858585,341.61774702173733 230.8080808080808,383.96701697412044 225.75757575757575,385.5792254521225 220.7070707070707,375.69146396415414 215.65656565656565,389.4472318412146 210.6060606060606,389.8409678941021 205.55555555555554,390.9267700310665 200.50505050505052,390.22547064188 195.45454545454544,392.7270486278766 190.40404040404042,391.85040280143613 185.35353535353534,349.4463375372019 180.3030303030303,394.3900366856556 175.25252525252526,395.3366123840763 170.2020202020202,383.45380209704695 165.15151515151516,397.36303858787477 160.1010101010101,396.5894848079626 155.05050505050505,398.5155896764308 150,399.9984167364582 "/><text class="poloto_text" alignment-baseline="middle" text-anchor="start" font-size="large" x="675" y="300" >indirect_par</text><line class="poloto4stroke" stroke="black" x1="680" x2="730" y1="281.25" y2="281.25" /><polyline class="poloto4stroke" fill="none" stroke="black"  points="650,381.6349993167978 644.9494949494949,376.75833170848915 639.8989898989898,385.7269295472672 634.8484848484848,373.2966771040517 629.7979797979798,373.34252697689163 624.7474747474747,379.01425196267104 619.6969696969697,383.7186964808945 614.6464646464647,382.2077520996953 609.5959595959596,384.2264778853587 604.5454545454545,382.3378819695261 599.4949494949494,388.6288069331974 594.4444444444445,388.26295071195045 589.3939393939394,386.6569313550663 584.3434343434344,387.90270787962436 579.2929292929293,385.0568420398115 574.2424242424242,390.65639179804236 569.1919191919192,385.18951952461407 564.1414141414141,389.679431832924 559.090909090909,387.51750705655763 554.040404040404,390.6907342235944 548.989898989899,389.09501327638446 543.939393939394,379.82153645267596 538.8888888888889,384.6967431405347 533.8383838383838,389.44980104614376 528.7878787878788,387.28529267154323 523.7373737373737,387.22092581191674 518.6868686868687,390.01321977079715 513.6363636363636,391.0169656763817 508.5858585858586,392.1099284825465 503.5353535353535,391.4562925226205 498.4848484848485,387.8916034448744 493.4343434343434,386.86506574094045 488.3838383838384,380.13348255032474 483.3333333333333,390.5724068638025 478.2828282828283,383.52407740834536 473.2323232323232,384.7317476581133 468.1818181818182,380.355679195111 463.1313131313131,388.6574064300842 458.0808080808081,304.48041512594335 453.030303030303,389.8041714100603 447.979797979798,386.21693522014846 442.9292929292929,388.4232705388623 437.8787878787879,380.38557408944115 432.8282828282828,389.7785081473782 427.77777777777777,385.5048336556154 422.72727272727275,371.6924353203259 417.67676767676767,362.50265556475875 412.62626262626264,356.0575063388115 407.57575757575756,387.47755124208464 402.52525252525254,385.61471214541615 397.47474747474746,383.07475441183584 392.4242424242424,307.2558041481889 387.37373737373736,386.48580215615544 382.32323232323233,361.2529352746511 377.27272727272725,354.8596955029174 372.22222222222223,349.5179442292059 367.1717171717172,383.636381170026 362.1212121212121,385.26060805764075 357.07070707070704,386.3085558026513 352.020202020202,379.47780274109937 346.969696969697,389.9525735804939 341.9191919191919,387.0682848131826 336.86868686868684,376.2795528134497 331.8181818181818,387.5868827862982 326.7676767676768,386.9942600459511 321.7171717171717,394.16070815827874 316.66666666666663,345.6137530715313 311.6161616161616,391.44347528458445 306.5656565656566,386.3120101958334 301.5151515151515,395.176285360512 296.4646464646464,388.9642932810517 291.4141414141414,394.13137460284076 286.3636363636364,360.5871297754107 281.3131313131313,394.8113071308655 276.26262626262627,395.0934734806235 271.2121212121212,392.3218123243537 266.16161616161617,318.29465580426336 261.1111111111111,344.6286464958252 256.06060606060606,388.3423801651814 251.010101010101,396.1749000528906 245.95959595959596,396.54771543706903 240.9090909090909,389.35527301604606 235.85858585858585,394.03311151011485 230.8080808080808,371.2602691432875 225.75757575757575,390.7191250175598 220.7070707070707,364.0586150071122 215.65656565656565,397.22125733770685 210.6060606060606,396.45546874580197 205.55555555555554,397.6241187459171 200.50505050505052,398.33221177502844 195.45454545454544,397.3248675432125 190.40404040404042,374.9776855795973 185.35353535353534,393.35173245494514 180.3030303030303,398.4430042396919 175.25252525252526,398.77934698918926 170.2020202020202,399.0851903255497 165.15151515151516,399.26787734831566 160.1010101010101,399.6224132352388 155.05050505050505,399.86414879146133 150,399.9995394142424 "/><text class="poloto_text" alignment-baseline="middle" text-anchor="start" font-size="large" x="675" y="350" >indirect_seq</text><line class="poloto5stroke" stroke="black" x1="680" x2="730" y1="331.25" y2="331.25" /><polyline class="poloto5stroke" fill="none" stroke="black"  points="650,286.84475918657483 644.9494949494949,345.96433799625237 639.8989898989898,348.2085996734447 634.8484848484848,361.1037918490139 629.7979797979798,336.89931221112636 624.7474747474747,362.6058267744642 619.6969696969697,324.3517615294211 614.6464646464647,347.8151083067409 609.5959595959596,359.30264245725573 604.5454545454545,323.63918498582547 599.4949494949494,371.6813308855759 594.4444444444445,371.9190866929866 589.3939393939394,373.4455902368102 584.3434343434344,374.04783490149987 579.2929292929293,363.05499144461953 574.2424242424242,369.189641100063 569.1919191919192,374.60299906577853 564.1414141414141,364.5054119786073 559.090909090909,375.8172902358122 554.040404040404,373.64408830503675 548.989898989899,377.8120007922075 543.939393939394,376.7102796599956 538.8888888888889,378.3810329057818 533.8383838383838,374.0347297973653 528.7878787878788,377.413723651616 523.7373737373737,377.7283397073285 518.6868686868687,377.8338282391269 513.6363636363636,379.05283321652365 508.5858585858586,379.14364777395065 503.5353535353535,380.62772705150655 498.4848484848485,356.178330937008 493.4343434343434,365.4764347054439 488.3838383838384,373.4153499031618 483.3333333333333,369.927621826852 478.2828282828283,374.35313129227313 473.2323232323232,368.57155660330284 468.1818181818182,374.9029051638572 463.1313131313131,376.8229000743846 458.0808080808081,379.56668859566634 453.030303030303,380.6067488095777 447.979797979798,380.95903934093246 442.9292929292929,376.60257455923863 437.8787878787879,382.88214320532376 432.8282828282828,358.35113705189804 427.77777777777777,381.9397055820691 422.72727272727275,379.0994387378722 417.67676767676767,384.83191786374186 412.62626262626264,354.8629627831355 407.57575757575756,384.3271806432694 402.52525252525254,386.6293106029144 397.47474747474746,387.535088478524 392.4242424242424,274.6170205436601 387.37373737373736,384.15472726030544 382.32323232323233,379.98785828774174 377.27272727272725,370.50038900305447 372.22222222222223,376.2638065378613 367.1717171717172,361.09585394134746 362.1212121212121,388.7210752144219 357.07070707070704,387.21968798769313 352.020202020202,346.2417113754703 346.969696969697,389.89021458690445 341.9191919191919,388.9841488451964 336.86868686868684,386.5595750405507 331.8181818181818,390.7897529648289 326.7676767676768,390.2735802635932 321.7171717171717,388.7271851723627 316.66666666666663,391.3628367937397 311.6161616161616,390.2428361642725 306.5656565656566,377.87756949279526 301.5151515151515,392.060415513603 296.4646464646464,392.6238342382564 291.4141414141414,383.39780494423457 286.3636363636364,393.306875720145 281.3131313131313,393.7228926090571 276.26262626262627,390.0221508165034 271.2121212121212,332.40084308303824 266.16161616161617,278.2789004129151 261.1111111111111,394.1989511694656 256.06060606060606,394.8734430282285 251.010101010101,393.3069404900172 245.95959595959596,395.53095078717945 240.9090909090909,396.2374173728342 235.85858585858585,394.1851335967372 230.8080808080808,396.6249643046038 225.75757575757575,396.60033016322393 220.7070707070707,396.7837080646263 215.65656565656565,395.943786755703 210.6060606060606,396.64483426205334 205.55555555555554,385.8324396690231 200.50505050505052,396.5526811272683 195.45454545454544,397.4877421817487 190.40404040404042,384.08946801577355 185.35353535353534,398.5770706784198 180.3030303030303,398.86966497759636 175.25252525252526,398.8565238901994 170.2020202020202,398.7724885793923 165.15151515151516,399.3880470511381 160.1010101010101,399.6470185900088 155.05050505050505,399.83469289293146 150,399.9993594979308 "/><text class="poloto_text" alignment-baseline="start" text-anchor="middle" font-size="x-large" x="400" y="37.5" >Bench of rebal:256_bytes with abspiral(num,0.1)</text><text class="poloto_text" alignment-baseline="start" text-anchor="middle" font-size="x-large" x="400" y="481.25" >Number of Elements</text><text class="poloto_text" alignment-baseline="start" text-anchor="middle" font-size="x-large" transform="rotate(-90,37.5,250)" x="37.5" y="250" >Time in Seconds</text><path stroke="black" fill="none" class="poloto_axis_lines"  d="M 150 100 L 150 400 L 650 400 "/></svg>