<svg class="poloto" width="800" height="500" viewBox="0 0 800 500" xmlns="http://www.w3.org/2000/svg"><style>.poloto {
                    font-family: "Arial";
                    stroke-width:2;
                    }
                    .poloto_text{fill: var(--poloto_fg_color,black);  }
                    .poloto_axis_lines{stroke: var(--poloto_fg_color,black);stoke-width:3;fill:none}
                    .poloto_background{fill: var(--poloto_bg_color,aliceblue); }
                    .poloto0stroke{stroke:  var(--poloto_color0,blue); }
                    .poloto1stroke{stroke:  var(--poloto_color1,red); }
                    .poloto2stroke{stroke:  var(--poloto_color2,green); }
                    .poloto3stroke{stroke:  var(--poloto_color3,gold); }
                    .poloto4stroke{stroke:  var(--poloto_color4,aqua); }
                    .poloto5stroke{stroke:  var(--poloto_color5,brown); }
                    .poloto6stroke{stroke:  var(--poloto_color6,lime); }
                    .poloto7stroke{stroke:  var(--poloto_color7,chocolate); }
                    .poloto0fill{fill:var(--poloto_color0,blue);}
                    .poloto1fill{fill:var(--poloto_color1,red);}
                    .poloto2fill{fill:var(--poloto_color2,green);}
                    .poloto3fill{fill:var(--poloto_color3,gold);}
                    .poloto4fill{fill:var(--poloto_color4,aqua);}
                    .poloto5fill{fill:var(--poloto_color5,brown);}
                    .poloto6fill{fill:var(--poloto_color6,lime);}
                    .poloto7fill{fill:var(--poloto_color7,chocolate);}</style><rect class="poloto_background" fill="white" x="0" y="0" width="800" height="500"/><line class="poloto_axis_lines" stroke="black" x1="150" x2="150" y1="400" y2="405"/><text class="poloto_text" alignment-baseline="start" text-anchor="middle" x="150" y="430">0</text><line class="poloto_axis_lines" stroke="black" x1="234.17508417508418" x2="234.17508417508418" y1="400" y2="405"/><text class="poloto_text" alignment-baseline="start" text-anchor="middle" x="234.17508417508418" y="430">5000</text><line class="poloto_axis_lines" stroke="black" x1="318.35016835016836" x2="318.35016835016836" y1="400" y2="405"/><text class="poloto_text" alignment-baseline="start" text-anchor="middle" x="318.35016835016836" y="430">10000</text><line class="poloto_axis_lines" stroke="black" x1="402.52525252525254" x2="402.52525252525254" y1="400" y2="405"/><text class="poloto_text" alignment-baseline="start" text-anchor="middle" x="402.52525252525254" y="430">15000</text><line class="poloto_axis_lines" stroke="black" x1="486.7003367003367" x2="486.7003367003367" y1="400" y2="405"/><text class="poloto_text" alignment-baseline="start" text-anchor="middle" x="486.7003367003367" y="430">20000</text><line class="poloto_axis_lines" stroke="black" x1="570.8754208754208" x2="570.8754208754208" y1="400" y2="405"/><text class="poloto_text" alignment-baseline="start" text-anchor="middle" x="570.8754208754208" y="430">25000</text><line class="poloto_axis_lines" stroke="black" x1="150" x2="144" y1="350.974169397956" y2="350.974169397956"/><text class="poloto_text" alignment-baseline="middle" text-anchor="end" x="135" y="350.974169397956">0.002</text><line class="poloto_axis_lines" stroke="black" x1="150" x2="144" y1="301.945789320148" y2="301.945789320148"/><text class="poloto_text" alignment-baseline="middle" text-anchor="end" x="135" y="301.945789320148">0.004</text><line class="poloto_axis_lines" stroke="black" x1="150" x2="144" y1="252.9174092423399" y2="252.9174092423399"/><text class="poloto_text" alignment-baseline="middle" text-anchor="end" x="135" y="252.9174092423399">0.006</text><line class="poloto_axis_lines" stroke="black" x1="150" x2="144" y1="203.8890291645319" y2="203.8890291645319"/><text class="poloto_text" alignment-baseline="middle" text-anchor="end" x="135" y="203.8890291645319">0.008</text><line class="poloto_axis_lines" stroke="black" x1="150" x2="144" y1="154.8606490867238" y2="154.8606490867238"/><text class="poloto_text" alignment-baseline="middle" text-anchor="end" x="135" y="154.8606490867238">0.010</text><line class="poloto_axis_lines" stroke="black" x1="150" x2="144" y1="105.83226900891583" y2="105.83226900891583"/><text class="poloto_text" alignment-baseline="middle" text-anchor="end" x="135" y="105.83226900891583">0.012</text><text class="poloto_text" alignment-baseline="middle" text-anchor="start" font-size="large" x="675" y="100">default_par</text><line class="poloto0stroke" stroke="black" x1="680" x2="730" y1="81.25" y2="81.25"/><polyline class="poloto0stroke" fill="none" stroke="black" points="650,282.9613876992697 644.9494949494949,312.04855280479103 639.8989898989898,312.41800616286736 634.8484848484848,316.14646738264446 629.7979797979798,316.27590230604983 624.7474747474747,314.64296307917834 619.6969696969697,314.2120526466745 614.6464646464647,314.3418062545504 609.5959595959596,317.6451178764828 604.5454545454545,319.3815560136985 599.4949494949494,317.4328004765558 594.4444444444445,318.947066509449 589.3939393939394,320.87098917208226 584.3434343434344,317.70532472721834 579.2929292929293,319.3197312264204 574.2424242424242,322.7664753742704 569.1919191919192,322.0945659394941 564.1414141414141,322.73852919762606 559.090909090909,321.79429162570756 554.040404040404,322.5021633772709 548.989898989899,324.28446756404946 543.939393939394,324.9176445785643 538.8888888888889,328.1276551932086 533.8383838383838,328.35276900033585 528.7878787878788,329.65748773677643 523.7373737373737,324.7955884263606 518.6868686868687,330.5571585112042 513.6363636363636,330.32309702471275 508.5858585858586,330.4632446491652 503.5353535353535,330.54860305888064 498.4848484848485,330.1142606397713 493.4343434343434,333.37413311695474 488.3838383838384,334.3017500680269 483.3333333333333,336.26722428277606 478.2828282828283,337.3719562568793 473.2323232323232,334.38585825405033 468.1818181818182,336.049807931321 463.1313131313131,334.8620954239361 458.0808080808081,329.3262029725907 453.030303030303,340.501584842386 447.979797979798,337.132330049249 442.9292929292929,341.39566638148494 437.8787878787879,341.9164458346714 432.8282828282828,338.47482515253955 427.77777777777777,342.4239631110468 422.72727272727275,344.27167115684915 417.67676767676767,344.4979861592883 412.62626262626264,335.0202854922572 407.57575757575756,347.64148977635705 402.52525252525254,346.8376204566013 397.47474747474746,346.6829604316458 392.4242424242424,348.2402733822473 387.37373737373736,349.6167451529318 382.32323232323233,349.1590161965254 377.27272727272725,353.10070184126084 372.22222222222223,353.59120626974925 367.1717171717172,352.56366948007854 362.1212121212121,354.45614043689187 357.07070707070704,354.67127696867334 352.020202020202,357.47425397191165 346.969696969697,354.50926268670617 341.9191919191919,356.77194694148704 336.86868686868684,357.9706663201994 331.8181818181818,359.09196988676894 326.7676767676768,358.9192183895648 321.7171717171717,360.49479441174526 316.66666666666663,362.08515249051914 311.6161616161616,362.8881392994335 306.5656565656566,361.8040727875331 301.5151515151515,362.4319057086194 296.4646464646464,364.13000365261433 291.4141414141414,365.44830325033644 286.3636363636364,369.08807213055275 281.3131313131313,371.79157055061324 276.26262626262627,371.5139963768027 271.2121212121212,370.3926437818531 266.16161616161617,374.87910827182316 261.1111111111111,373.8242871886391 256.06060606060606,375.6996717549954 251.010101010101,377.47824978488796 245.95959595959596,375.3778249539746 240.9090909090909,379.4056534625068 235.85858585858585,377.4526079421073 230.8080808080808,378.2359098564204 225.75757575757575,377.96066453066356 220.7070707070707,382.1277826669968 215.65656565656565,374.0536909790232 210.6060606060606,375.3824091075119 205.55555555555554,377.3146420805683 200.50505050505052,379.4072468848593 195.45454545454544,381.6379156074494 190.40404040404042,381.7531077864422 185.35353535353534,384.6700267449813 180.3030303030303,385.68464455650155 175.25252525252526,387.834906735764 170.2020202020202,390.0508669443307 165.15151515151516,392.75586072998357 160.1010101010101,395.20110215798417 155.05050505050505,397.85010553358813 150,400 "/><text class="poloto_text" alignment-baseline="middle" text-anchor="start" font-size="large" x="675" y="150">default_seq</text><line class="poloto1stroke" stroke="black" x1="680" x2="730" y1="131.25" y2="131.25"/><polyline class="poloto1stroke" fill="none" stroke="black" points="650,119.25324874303493 644.9494949494949,116.15526797686846 639.8989898989898,129.8490171035504 634.8484848484848,131.89342701022485 629.7979797979798,136.2240547941176 624.7474747474747,138.69800233865374 619.6969696969697,141.0527864054108 614.6464646464647,143.97431403167724 609.5959595959596,146.96553550022432 604.5454545454545,149.8982906255286 599.4949494949494,152.58431042809133 594.4444444444445,155.278517970127 589.3939393939394,158.0366094914041 584.3434343434344,159.42906451399395 579.2929292929293,162.73845565505593 574.2424242424242,165.47588171413025 569.1919191919192,168.04844984519292 564.1414141414141,171.23551517796076 559.090909090909,173.2528614188323 554.040404040404,176.18522431709596 548.989898989899,179.02504614796277 543.939393939394,181.25061591902474 538.8888888888889,181.46467382644443 533.8383838383838,186.68685818786207 528.7878787878788,189.29266756061747 523.7373737373737,192.13221973539387 518.6868686868687,194.61300673895084 513.6363636363636,197.25566093933475 508.5858585858586,199.55217477636933 503.5353535353535,202.45767012235035 498.4848484848485,204.04099262858307 493.4343434343434,207.36695536211138 488.3838383838384,209.47176823304167 483.3333333333333,212.043478367453 478.2828282828283,213.77263579022716 473.2323232323232,216.86147276350914 468.1818181818182,219.0102150629892 463.1313131313131,221.63014460920704 458.0808080808081,224.10325867128188 453.030303030303,227.72498510762955 447.979797979798,229.14590110485454 442.9292929292929,232.70393967548114 437.8787878787879,235.6136024337688 432.8282828282828,237.88712196054684 427.77777777777777,239.91500930313512 422.72727272727275,251.28074385858255 417.67676767676767,254.90256835169038 412.62626262626264,256.6812199241531 407.57575757575756,260.0121100098792 402.52525252525254,262.30065673515116 397.47474747474746,265.003762928171 392.4242424242424,267.8781497669926 387.37373737373736,270.273480304074 382.32323232323233,273.1622324582585 377.27272727272725,276.00222588845554 372.22222222222223,278.5389297594913 367.1717171717172,281.693758932358 362.1212121212121,284.05074927621854 357.07070707070704,286.398865483285 352.020202020202,289.2828128562218 346.969696969697,291.94167093622144 341.9191919191919,294.78193402250895 336.86868686868684,297.5786599072873 331.8181818181818,300.43279802513683 326.7676767676768,303.19057086194346 321.7171717171717,305.7976794867709 316.66666666666663,307.49018819543693 311.6161616161616,310.3998019253445 306.5656565656566,313.52879314191017 301.5151515151515,315.8735263907513 296.4646464646464,319.0719663076972 291.4141414141414,321.96179708624334 286.3636363636364,327.4416500991599 281.3131313131313,327.9978770711426 276.26262626262627,333.09185221865675 271.2121212121212,335.4350165593354 266.16161616161617,338.7486486552741 261.1111111111111,341.5950157748813 256.06060606060606,344.0181454034668 251.010101010101,346.28516866988457 245.95959595959596,348.901715257877 240.9090909090909,351.74830300519454 235.85858585858585,353.71414493279434 230.8080808080808,356.5258980160666 225.75757575757575,358.2935182030118 220.7070707070707,361.2307103967131 215.65656565656565,365.7035695112116 210.6060606060606,368.18862198383533 205.55555555555554,371.31749062945084 200.50505050505052,373.3316500256173 195.45454545454544,376.2493289240477 190.40404040404042,378.79348510885524 185.35353535353534,381.5039210446967 180.3030303030303,384.92279255847245 175.25252525252526,387.46525726416735 170.2020202020202,389.8427414709004 165.15151515151516,392.6422129449632 160.1010101010101,395.189065690675 155.05050505050505,397.7680075111478 150,399.9997058297195 "/><text class="poloto_text" alignment-baseline="middle" text-anchor="start" font-size="large" x="675" y="200">direct_par</text><line class="poloto2stroke" stroke="black" x1="680" x2="730" y1="181.25" y2="181.25"/><polyline class="poloto2stroke" fill="none" stroke="black" points="650,289.47652398590924 644.9494949494949,311.9322084588664 639.8989898989898,315.8635736295955 634.8484848484848,318.0161891711017 629.7979797979798,315.088876195986 624.7474747474747,318.86511557214897 619.6969696969697,315.5404520906927 614.6464646464647,315.43111880311915 609.5959595959596,319.62495740659483 604.5454545454545,317.30439514913206 599.4949494949494,318.41952113981176 594.4444444444445,320.608074483915 589.3939393939394,323.02286928788726 584.3434343434344,322.66873729858526 579.2929292929293,319.5480073640627 574.2424242424242,323.6162107435889 569.1919191919192,320.2143765918902 564.1414141414141,323.6909299948275 559.090909090909,324.3182726321131 554.040404040404,323.8458596758734 548.989898989899,326.43828430086756 543.939393939394,326.04424321018223 538.8888888888889,327.9230107347638 533.8383838383838,329.2735219781971 528.7878787878788,333.53026399331253 523.7373737373737,331.57761069995365 518.6868686868687,329.0770652592253 513.6363636363636,330.6233958526893 508.5858585858586,331.46418354264364 503.5353535353535,332.4046459292962 498.4848484848485,332.7025423666489 493.4343434343434,330.5815256161029 488.3838383838384,333.68367379457595 483.3333333333333,337.8267925388611 478.2828282828283,334.9598089854312 473.2323232323232,338.54635755907304 468.1818181818182,338.7665685281925 463.1313131313131,339.4444103969583 458.0808080808081,338.1432707322634 453.030303030303,340.42441417214354 447.979797979798,337.9838794686304 442.9292929292929,338.43976986078394 437.8787878787879,340.89265971607665 432.8282828282828,339.7675809642412 427.77777777777777,342.07657252400554 422.72727272727275,344.3807838167123 417.67676767676767,346.3388792602598 412.62626262626264,346.2825456515504 407.57575757575756,350.0697673848507 402.52525252525254,348.6929524155057 397.47474747474746,349.6339541143391 392.4242424242424,349.5737962919836 387.37373737373736,339.5829891132482 382.32323232323233,352.25209412468405 377.27272727272725,353.78428003049567 372.22222222222223,354.1509632850976 367.1717171717172,352.39253591941696 362.1212121212121,356.5604875382115 357.07070707070704,354.6746108985186 352.020202020202,356.3458658044209 346.969696969697,357.4679538250716 341.9191919191919,357.51928653901314 336.86868686868684,360.39681119415974 331.8181818181818,360.0219402000848 326.7676767676768,361.0086363491507 321.7171717171717,363.7570447653624 316.66666666666663,360.8195093730005 311.6161616161616,361.8465068504904 306.5656565656566,360.04861163884715 301.5151515151515,362.67609155559694 296.4646464646464,363.4444888423664 291.4141414141414,366.866400115707 286.3636363636364,368.35580875990064 281.3131313131313,371.2178404469427 276.26262626262627,370.7312582888605 271.2121212121212,373.6398669369765 266.16161616161617,370.8414250588953 261.1111111111111,375.0463685904586 256.06060606060606,377.0726379965043 251.010101010101,377.1033052482429 245.95959595959596,377.0807767075972 240.9090909090909,381.2458601661572 235.85858585858585,378.69381041215706 230.8080808080808,378.5066935995901 225.75757575757575,377.998759581984 220.7070707070707,381.43910552623385 215.65656565656565,374.2672831168322 210.6060606060606,375.1396941119367 205.55555555555554,377.92511895510717 200.50505050505052,378.2530452752576 195.45454545454544,380.86101189673644 190.40404040404042,382.29362116260995 185.35353535353534,383.6383715713841 180.3030303030303,385.837416988824 175.25252525252526,388.0959093171082 170.2020202020202,390.347218987711 165.15151515151516,392.75718449624566 160.1010101010101,395.26878583668156 155.05050505050505,397.91793629742574 150,399.99865171954787 "/><text class="poloto_text" alignment-baseline="middle" text-anchor="start" font-size="large" x="675" y="250">direct_seq</text><line class="poloto3stroke" stroke="black" x1="680" x2="730" y1="231.25" y2="231.25"/><polyline class="poloto3stroke" fill="none" stroke="black" points="650,139.44928872077605 644.9494949494949,140.4635633336357 639.8989898989898,145.2119619441714 634.8484848484848,147.31081786692226 629.7979797979798,150.7021354310943 624.7474747474747,153.5411237794998 619.6969696969697,155.43459981810472 614.6464646464647,157.78786400507937 609.5959595959596,160.56853309538226 604.5454545454545,162.43359718773212 599.4949494949494,166.1374216465201 594.4444444444445,167.84191779411512 589.3939393939394,170.55257435766694 584.3434343434344,172.64961623035495 579.2929292929293,175.13724269293283 574.2424242424242,177.582851833784 569.1919191919192,179.3762364344601 564.1414141414141,182.91584033417743 559.090909090909,184.59354247205997 554.040404040404,186.7150495064068 548.989898989899,189.26727085973718 543.939393939394,191.31859376800261 538.8888888888889,193.93582675331618 533.8383838383838,195.99859778832982 528.7878787878788,198.38350979464465 523.7373737373737,201.41449327943482 518.6868686868687,203.5199680334962 513.6363636363636,206.2924248701361 508.5858585858586,208.0404337050502 503.5353535353535,211.16606647758056 498.4848484848485,212.50275171783184 493.4343434343434,214.71155378290723 488.3838383838384,217.5172028328598 483.3333333333333,220.03387861063376 478.2828282828283,221.87104555471936 473.2323232323232,223.8799098858374 468.1818181818182,225.9172106774006 463.1313131313131,228.31401206588433 458.0808080808081,230.77180475918485 453.030303030303,233.6676170001005 447.979797979798,235.2754291821821 442.9292929292929,238.65390131077373 437.8787878787879,241.14231222743283 432.8282828282828,243.62748727100683 427.77777777777777,245.61534294126153 422.72727272727275,252.16278893037236 417.67676767676767,255.03595005969203 412.62626262626264,257.23639278596414 407.57575757575756,260.42358068968224 402.52525252525254,262.2805305851292 397.47474747474746,265.0807129707031 392.4242424242424,267.65847811005403 387.37373737373736,270.5124936569533 382.32323232323233,273.4270837674388 377.27272727272725,276.18863178951136 372.22222222222223,279.2607745993769 367.1717171717172,281.9146808129886 362.1212121212121,284.41427020030545 357.07070707070704,287.2874803580052 352.020202020202,290.35587249679475 346.969696969697,292.7930487562726 341.9191919191919,295.66897998906666 336.86868686868684,298.2745687341117 331.8181818181818,301.32996835218063 326.7676767676768,303.9996126757974 321.7171717171717,306.8590458586953 316.66666666666663,308.61480117766166 311.6161616161616,311.2441441728545 306.5656565656566,314.42454164593175 301.5151515151515,316.59686659622923 296.4646464646464,319.8113387934606 291.4141414141414,322.849431393362 286.3636363636364,332.1018956823157 281.3131313131313,334.35023913592386 276.26262626262627,336.8223726303971 271.2121212121212,338.9629026762141 266.16161616161617,341.66480767392204 261.1111111111111,344.8107381958047 256.06060606060606,346.4928283737041 251.010101010101,348.79304385343454 245.95959595959596,351.52819009283525 240.9090909090909,353.78175506892165 235.85858585858585,355.77267501293124 230.8080808080808,358.4630828555109 225.75757575757575,359.7446111681747 220.7070707070707,362.6112760371341 215.65656565656565,365.63961198940007 210.6060606060606,368.33202999556295 205.55555555555554,371.0759278008075 200.50505050505052,372.7784382990094 195.45454545454544,376.4768206076087 190.40404040404042,379.0791734795686 185.35353535353534,381.78674125517557 180.3030303030303,385.9473876453385 175.25252525252526,388.07759721714916 170.2020202020202,390.28132484488646 165.15151515151516,392.6801609111434 160.1010101010101,395.0908128169991 155.05050505050505,397.87650731626 150,399.99894588982835 "/><text class="poloto_text" alignment-baseline="middle" text-anchor="start" font-size="large" x="675" y="300">indirect_par</text><line class="poloto4stroke" stroke="black" x1="680" x2="730" y1="281.25" y2="281.25"/><polyline class="poloto4stroke" fill="none" stroke="black" points="650,269.4866238322053 644.9494949494949,295.23993263500574 639.8989898989898,295.9725882326985 634.8484848484848,300.70706278329214 629.7979797979798,299.5373927197758 624.7474747474747,297.9679452451051 619.6969696969697,298.3946637511123 614.6464646464647,300.86316914545984 609.5959595959596,303.1577463614814 604.5454545454545,303.3402054779409 599.4949494949494,306.79427936861254 594.4444444444445,306.1621809784594 589.3939393939394,305.73896800162777 584.3434343434344,290.4610874004417 579.2929292929293,309.3678280672767 574.2424242424242,309.63687130295375 569.1919191919192,310.0365996857281 564.1414141414141,313.3126760425272 559.090909090909,308.53816981960006 554.040404040404,311.6851789658444 548.989898989899,311.1952138495368 543.939393939394,312.6063486849363 538.8888888888889,314.7255758996095 533.8383838383838,314.09095254788235 528.7878787878788,320.7170155444479 523.7373737373737,320.1186977081684 518.6868686868687,317.94791715184334 513.6363636363636,319.400137769748 508.5858585858586,321.23897167875623 503.5353535353535,321.24546793911657 498.4848484848485,319.82616987843414 493.4343434343434,321.4541817531078 488.3838383838384,322.1815667999422 483.3333333333333,324.07185599384206 478.2828282828283,324.71626050739474 473.2323232323232,323.3527322290508 468.1818181818182,329.22758238606417 463.1313131313131,325.24767911905803 458.0808080808081,328.5395916426223 453.030303030303,327.90210013066064 447.979797979798,329.27442900322853 442.9292929292929,327.7285151509951 437.8787878787879,331.2307594250932 432.8282828282828,331.8781546698306 427.77777777777777,331.9499077040745 422.72727272727275,338.3322506232733 417.67676767676767,338.0909329365303 412.62626262626264,338.132974772447 407.57575757575756,337.62371698857885 402.52525252525254,342.6243421004248 397.47474747474746,342.56376753683867 392.4242424242424,343.25631791962775 387.37373737373736,343.1042318846264 382.32323232323233,343.3041696185837 377.27272727272725,344.8804075238952 372.22222222222223,347.87104065188134 367.1717171717172,347.17773032920104 362.1212121212121,348.28981656031596 357.07070707070704,347.71831724793896 352.020202020202,342.9752382166417 346.969696969697,350.17125613161176 341.9191919191919,352.56170834487546 336.86868686868684,350.29328776962546 331.8181818181818,354.293660385314 326.7676767676768,355.3509328875019 321.7171717171717,357.9595613921118 316.66666666666663,358.4560227687797 311.6161616161616,359.0316649792733 306.5656565656566,357.0092688152537 301.5151515151515,358.203526611379 296.4646464646464,360.3657762295705 291.4141414141414,363.58068968222256 286.3636363636364,365.2006363883734 281.3131313131313,366.41678535620343 276.26262626262627,366.9853429657757 271.2121212121212,366.9045196812175 266.16161616161617,370.4146820386981 261.1111111111111,372.133568015846 256.06060606060606,370.46165122681265 251.010101010101,370.4592978645689 245.95959595959596,373.8791499459462 240.9090909090909,376.10859295903435 235.85858585858585,375.79346304608424 230.8080808080808,377.46403155466544 225.75757575757575,373.9843648495932 220.7070707070707,377.08599823007546 215.65656565656565,372.3770429513124 210.6060606060606,373.1510785017908 205.55555555555554,375.3127397794213 200.50505050505052,376.74797206362905 195.45454545454544,378.429130702307 190.40404040404042,380.114701895192 185.35353535353534,383.0690540219206 180.3030303030303,384.08531428417336 175.25252525252526,386.59993086998406 170.2020202020202,389.32095693592237 165.15151515151516,392.3941783701496 160.1010101010101,395.0153091116793 155.05050505050505,397.71265447004 150,399.99857817697773 "/><text class="poloto_text" alignment-baseline="middle" text-anchor="start" font-size="large" x="675" y="350">indirect_seq</text><line class="poloto5stroke" stroke="black" x1="680" x2="730" y1="331.25" y2="331.25"/><polyline class="poloto5stroke" fill="none" stroke="black" points="650,100 644.9494949494949,106.01043814211857 639.8989898989898,107.92460415711633 634.8484848484848,110.41963390508596 629.7979797979798,114.38539248443965 624.7474747474747,117.23994734351982 619.6969696969697,120.04062001289446 614.6464646464647,122.28879186717234 609.5959595959596,126.82004378234342 604.5454545454545,129.7079869682566 599.4949494949494,132.79672588477843 594.4444444444445,135.24172217087863 589.3939393939394,138.58489386581425 584.3434343434344,141.08793975392655 579.2929292929293,143.91854424933877 574.2424242424242,147.07092200320156 569.1919191919192,149.92655548664348 564.1414141414141,154.00203958061127 559.090909090909,156.15232627406377 554.040404040404,158.3417131006283 548.989898989899,161.24556599587672 543.939393939394,163.88066982572863 538.8888888888889,167.7256469907606 533.8383838383838,169.3248056637585 528.7878787878788,172.87245021780862 523.7373737373737,176.6317502886546 518.6868686868687,177.84591360709146 513.6363636363636,181.76426174290992 508.5858585858586,183.6164313712993 503.5353535353535,187.55473405780938 498.4848484848485,189.23375996195398 493.4343434343434,192.04112500520927 488.3838383838384,195.01935395303573 483.3333333333333,197.4321876218049 478.2828282828283,200.14500143408014 473.2323232323232,202.90419609390895 468.1818181818182,205.25361155304748 463.1313131313131,208.07012038918728 458.0808080808081,211.02273200842305 453.030303030303,214.61933139998087 447.979797979798,216.00350062633754 442.9292929292929,219.6409651726902 437.8787878787879,222.90282329926677 432.8282828282828,225.61384757566915 427.77777777777777,227.72699527121273 422.72727272727275,238.7821105246772 417.67676767676767,242.36069198655642 412.62626262626264,244.58363873928423 407.57575757575756,248.82049974627813 402.52525252525254,250.87591652428006 397.47474747474746,253.96835708349778 392.4242424242424,256.33039735050636 387.37373737373736,259.14408705479167 382.32323232323233,262.5185633704069 377.27272727272725,264.5567221586215 372.22222222222223,268.5003689385601 367.1717171717172,271.3689214001525 362.1212121212121,274.0493029390062 357.07070707070704,276.83264407602337 352.020202020202,280.4995011362327 346.969696969697,283.16399747994126 341.9191919191919,286.2034628744849 336.86868686868684,289.03411639827715 331.8181818181818,292.2297126691785 326.7676767676768,295.30195353580416 321.7171717171717,298.5563103202289 316.66666666666663,300.5371794463225 311.6161616161616,303.37758961775023 306.5656565656566,306.2483483564461 301.5151515151515,309.1117283239403 296.4646464646464,312.4696330470893 291.4141414141414,315.55116479173967 286.3636363636364,321.86533374844026 281.3131313131313,324.3533769522488 276.26262626262627,327.21705109002346 271.2121212121212,330.42188921056953 266.16161616161617,333.78182861149173 261.1111111111111,337.07616803986986 256.06060606060606,339.10670291498235 251.010101010101,342.3406148649145 245.95959595959596,345.21343279557374 240.9090909090909,348.665422980092 235.85858585858585,350.45853792467767 230.8080808080808,353.5263907512864 225.75757575757575,355.42545602522017 220.7070707070707,358.52726100503276 215.65656565656565,362.9069171690033 210.6060606060606,366.08447099603603 205.55555555555554,368.8902916453189 200.50505050505052,371.5335832146438 195.45454545454544,374.50891948804565 190.40404040404042,377.6520799064539 185.35353535353534,380.1385051737198 180.3030303030303,384.25630075969474 175.25252525252526,386.71409345299526 170.2020202020202,389.3373569290584 165.15151515151516,392.28629141978837 160.1010101010101,394.93272080543824 155.05050505050505,397.66529305488484 150,399.99813692155703 "/><text class="poloto_text" alignment-baseline="start" text-anchor="middle" font-size="x-large" x="400" y="37.5">Bench of query:128_bytes with abspiral(num,0.6)</text><text class="poloto_text" alignment-baseline="start" text-anchor="middle" font-size="x-large" x="400" y="481.25">Number of Elements</text><text class="poloto_text" alignment-baseline="start" text-anchor="middle" font-size="x-large" transform="rotate(-90,37.5,250)" x="37.5" y="250">Time in Seconds</text><path stroke="black" fill="none" class="poloto_axis_lines" d=" M 150 100 L 150 400 L 650 400"/></svg>