<svg class="poloto" width="800" height="500" viewBox="0 0 800 500" xmlns="http://www.w3.org/2000/svg" ><rect class="poloto_background" fill="white" x="0" y="0" width="800" height="500" /><style><style>.poloto {
            font-family: "Arial";
            stroke-width:2;
            }
            .poloto_text{fill: var(--poloto_fg_color,black);  }
            .poloto_axis_lines{stroke: var(--poloto_fg_color,black);stoke-width:3;fill:none}
            .poloto_background{fill: var(--poloto_bg_color,aliceblue); }
            .poloto0stroke{stroke:  var(--poloto_color0,blue); }
            .poloto1stroke{stroke:  var(--poloto_color1,red); }
            .poloto2stroke{stroke:  var(--poloto_color2,green); }
            .poloto3stroke{stroke:  var(--poloto_color3,gold); }
            .poloto4stroke{stroke:  var(--poloto_color4,aqua); }
            .poloto5stroke{stroke:  var(--poloto_color5,brown); }
            .poloto6stroke{stroke:  var(--poloto_color6,lime); }
            .poloto7stroke{stroke:  var(--poloto_color7,chocolate); }
            .poloto0fill{fill:var(--poloto_color0,blue);}
            .poloto1fill{fill:var(--poloto_color1,red);}
            .poloto2fill{fill:var(--poloto_color2,green);}
            .poloto3fill{fill:var(--poloto_color3,gold);}
            .poloto4fill{fill:var(--poloto_color4,aqua);}
            .poloto5fill{fill:var(--poloto_color5,brown);}
            .poloto6fill{fill:var(--poloto_color6,lime);}
            .poloto7fill{fill:var(--poloto_color7,chocolate);}</style></style><line class="poloto_axis_lines" stroke="black" x1="150" x2="150" y1="400" y2="405" /><text class="poloto_text" alignment-baseline="start" text-anchor="middle" x="150" y="430" >0</text><line class="poloto_axis_lines" stroke="black" x1="234.17508417508418" x2="234.17508417508418" y1="400" y2="405" /><text class="poloto_text" alignment-baseline="start" text-anchor="middle" x="234.17508417508418" y="430" >5000</text><line class="poloto_axis_lines" stroke="black" x1="318.35016835016836" x2="318.35016835016836" y1="400" y2="405" /><text class="poloto_text" alignment-baseline="start" text-anchor="middle" x="318.35016835016836" y="430" >10000</text><line class="poloto_axis_lines" stroke="black" x1="402.52525252525254" x2="402.52525252525254" y1="400" y2="405" /><text class="poloto_text" alignment-baseline="start" text-anchor="middle" x="402.52525252525254" y="430" >15000</text><line class="poloto_axis_lines" stroke="black" x1="486.7003367003367" x2="486.7003367003367" y1="400" y2="405" /><text class="poloto_text" alignment-baseline="start" text-anchor="middle" x="486.7003367003367" y="430" >20000</text><line class="poloto_axis_lines" stroke="black" x1="570.8754208754208" x2="570.8754208754208" y1="400" y2="405" /><text class="poloto_text" alignment-baseline="start" text-anchor="middle" x="570.8754208754208" y="430" >25000</text><line class="poloto_axis_lines" stroke="black" x1="150" x2="144" y1="353.69476069557317" y2="353.69476069557317" /><text class="poloto_text" alignment-baseline="middle" text-anchor="end" x="135" y="353.69476069557317" >0.002</text><line class="poloto_axis_lines" stroke="black" x1="150" x2="144" y1="307.38681237616964" y2="307.38681237616964" /><text class="poloto_text" alignment-baseline="middle" text-anchor="end" x="135" y="307.38681237616964" >0.004</text><line class="poloto_axis_lines" stroke="black" x1="150" x2="144" y1="261.0788640567661" y2="261.0788640567661" /><text class="poloto_text" alignment-baseline="middle" text-anchor="end" x="135" y="261.0788640567661" >0.006</text><line class="poloto_axis_lines" stroke="black" x1="150" x2="144" y1="214.77091573736266" y2="214.77091573736266" /><text class="poloto_text" alignment-baseline="middle" text-anchor="end" x="135" y="214.77091573736266" >0.008</text><line class="poloto_axis_lines" stroke="black" x1="150" x2="144" y1="168.46296741795902" y2="168.46296741795902" /><text class="poloto_text" alignment-baseline="middle" text-anchor="end" x="135" y="168.46296741795902" >0.010</text><line class="poloto_axis_lines" stroke="black" x1="150" x2="144" y1="122.15501909855556" y2="122.15501909855556" /><text class="poloto_text" alignment-baseline="middle" text-anchor="end" x="135" y="122.15501909855556" >0.012</text><text class="poloto_text" alignment-baseline="middle" text-anchor="start" font-size="large" x="675" y="100" >default_par</text><line class="poloto0stroke" stroke="black" x1="680" x2="730" y1="81.25" y2="81.25" /><polyline class="poloto0stroke" fill="none" stroke="black"  points="650,292.5858427803477 644.9494949494949,322.64403103280847 639.8989898989898,325.5794918767755 634.8484848484848,324.12282905444033 629.7979797979798,326.7876199404804 624.7474747474747,326.45473525398637 619.6969696969697,328.4891823475027 614.6464646464647,331.27638829492514 609.5959595959596,326.2446129384871 604.5454545454545,330.52971893622305 599.4949494949494,329.3646804184294 594.4444444444445,329.2741483794649 589.3939393939394,330.42619751775504 584.3434343434344,334.06815557525704 579.2929292929293,330.58061137142613 574.2424242424242,333.74015637731065 569.1919191919192,333.6762051006816 564.1414141414141,335.9113045342659 559.090909090909,336.4933491366925 554.040404040404,338.7862177358053 548.989898989899,336.23807657158176 543.939393939394,337.1139219521208 538.8888888888889,326.69963483867355 533.8383838383838,338.00236309460274 528.7878787878788,339.0184520966271 523.7373737373737,342.17334315370556 518.6868686868687,340.6611802553096 513.6363636363636,340.55071264459366 508.5858585858586,342.8659248287706 503.5353535353535,343.43595251860825 498.4848484848485,342.5179437511244 493.4343434343434,343.3835319211107 488.3838383838384,342.47045495012287 483.3333333333333,343.21497098922805 478.2828282828283,343.86821406219576 473.2323232323232,344.6428302677086 468.1818181818182,344.5786242973637 463.1313131313131,347.51072781507753 458.0808080808081,349.13720188389993 453.030303030303,345.9166693100787 447.979797979798,348.57395830849106 442.9292929292929,346.9682070465416 437.8787878787879,350.5608934470317 432.8282828282828,351.4229853669199 427.77777777777777,351.02631148161583 422.72727272727275,347.35186839836786 417.67676767676767,351.3375935102189 412.62626262626264,354.12586454045265 407.57575757575756,353.66936078592 402.52525252525254,352.65366540145635 397.47474747474746,357.29983447223873 392.4242424242424,355.72550315322394 387.37373737373736,356.57564762244573 382.32323232323233,356.98913129298967 377.27272727272725,357.31974689001606 372.22222222222223,358.81338660908426 367.1717171717172,358.363319659368 362.1212121212121,348.07672671341146 357.07070707070704,359.68024824764933 352.020202020202,362.5323779386156 346.969696969697,362.6553255414036 341.9191919191919,363.578497645125 336.86868686868684,363.6051247154087 331.8181818181818,361.45557921634446 326.7676767676768,367.0279998694116 321.7171717171717,367.5143490966361 316.66666666666663,364.07841510120716 311.6161616161616,366.50208050034814 306.5656565656566,369.86723279677085 301.5151515151515,369.5632674240023 296.4646464646464,369.50151577491835 291.4141414141414,373.2091616571114 286.3636363636364,374.06444630859664 281.3131313131313,376.83562970590054 276.26262626262627,377.2851872681853 271.2121212121212,377.4423795987555 266.16161616161617,376.26805633732374 261.1111111111111,379.42368832157536 256.06060606060606,371.62420266395736 251.010101010101,378.7711630218066 245.95959595959596,380.4803199323533 240.9090909090909,381.6024541360291 235.85858585858585,382.0859322704579 230.8080808080808,382.684300424667 225.75757575757575,382.1884812220112 220.7070707070707,382.85216673732486 215.65656565656565,379.0514881869582 210.6060606060606,378.7342092790478 205.55555555555554,381.21587538345875 200.50505050505052,382.49654484820604 195.45454545454544,384.02723092592976 190.40404040404042,385.10407595614913 185.35353535353534,386.4112798752834 180.3030303030303,386.9906386167075 175.25252525252526,389.1251108785938 170.2020202020202,391.19431208732385 165.15151515151516,393.76477368263727 160.1010101010101,395.66085262657526 155.05050505050505,398.0960487048477 150,400 "/><text class="poloto_text" alignment-baseline="middle" text-anchor="start" font-size="large" x="675" y="150" >default_seq</text><line class="poloto1stroke" stroke="black" x1="680" x2="730" y1="131.25" y2="131.25" /><polyline class="poloto1stroke" fill="none" stroke="black"  points="650,160.97992712518175 644.9494949494949,159.27616509061426 639.8989898989898,166.27646817613598 634.8484848484848,170.78505633246144 629.7979797979798,174.28345975017325 624.7474747474747,177.4028557648649 619.6969696969697,180.97146203222894 614.6464646464647,183.60580544224902 609.5959595959596,184.86214008015443 604.5454545454545,186.12417059570313 599.4949494949494,190.46609644602705 594.4444444444445,190.46862022921044 589.3939393939394,193.48220258199228 584.3434343434344,197.63910502480604 579.2929292929293,200.05746816386437 574.2424242424242,201.9081421644752 569.1919191919192,204.60488553485564 564.1414141414141,206.79261193730923 559.090909090909,209.30623052606063 554.040404040404,211.82246551389204 548.989898989899,213.94070683989239 543.939393939394,208.9351186282289 538.8888888888889,217.83543683329577 533.8383838383838,220.00267196861802 528.7878787878788,223.06571121020497 523.7373737373737,224.66940176845424 518.6868686868687,227.68240527188206 513.6363636363636,230.19488931589962 508.5858585858586,231.1300551782358 503.5353535353535,234.3792292180926 498.4848484848485,236.82838714278338 493.4343434343434,238.0994245542802 488.3838383838384,240.05459244027372 483.3333333333333,241.9436557300413 478.2828282828283,244.12360239717722 473.2323232323232,247.38710874703887 468.1818181818182,249.7386726706465 463.1313131313131,251.4725580255958 458.0808080808081,253.42006194614245 453.030303030303,255.78355016644232 447.979797979798,257.671177909812 442.9292929292929,260.34828671010507 437.8787878787879,258.3194891862837 432.8282828282828,264.280201986009 427.77777777777777,260.57690905095797 422.72727272727275,272.5714085928565 417.67676767676767,274.6797400179165 412.62626262626264,277.32028869301143 407.57575757575756,279.8412933995197 402.52525252525254,282.0823202504889 397.47474747474746,284.95480228474156 392.4242424242424,287.35841634226017 387.37373737373736,289.6451259842465 382.32323232323233,292.1533728509928 377.27272727272725,294.48460758528824 372.22222222222223,296.83024409151096 367.1717171717172,299.7374107790548 362.1212121212121,300.9776765588934 357.07070707070704,302.84682743088365 352.020202020202,305.07148442212196 346.969696969697,307.68989789792016 341.9191919191919,309.8646580748443 336.86868686868684,311.7691650653764 331.8181818181818,311.2615836438474 326.7676767676768,314.3934133426628 321.7171717171717,318.31222346919236 316.66666666666663,321.0448323455462 311.6161616161616,323.9683457388468 306.5656565656566,326.0666978010439 301.5151515151515,329.19206754106875 296.4646464646464,331.2002117199397 291.4141414141414,333.53142330026094 286.3636363636364,338.25481087486594 281.3131313131313,340.4138263493615 276.26262626262627,342.6834946663663 271.2121212121212,345.5526425283399 266.16161616161617,347.4386958014667 261.1111111111111,348.82934664347255 256.06060606060606,350.82003272582705 251.010101010101,354.82462832661827 245.95959595959596,357.02770581393975 240.9090909090909,359.5220834501644 235.85858585858585,361.2938255528648 230.8080808080808,363.68630254881265 225.75757575757575,365.9563181754298 220.7070707070707,367.78971931131747 215.65656565656565,371.1425768474614 210.6060606060606,373.04101749676363 205.55555555555554,375.0257761617333 200.50505050505052,377.5866983196929 195.45454545454544,379.78695102216693 190.40404040404042,381.8291778510009 185.35353535353534,384.3282788979542 180.3030303030303,386.95838513070305 175.25252525252526,388.9687289371191 170.2020202020202,391.5005697035342 165.15151515151516,393.8303688914317 160.1010101010101,395.6020415322096 155.05050505050505,398.1187164455501 150,399.9996063824393 "/><text class="poloto_text" alignment-baseline="middle" text-anchor="start" font-size="large" x="675" y="200" >direct_par</text><line class="poloto2stroke" stroke="black" x1="680" x2="730" y1="181.25" y2="181.25" /><polyline class="poloto2stroke" fill="none" stroke="black"  points="650,300.63416419826007 644.9494949494949,326.37101048342487 639.8989898989898,326.17746641342393 634.8484848484848,329.6453297392191 629.7979797979798,328.03842077856166 624.7474747474747,100 619.6969696969697,327.10228244931074 614.6464646464647,330.2132504174083 609.5959595959596,325.65583052958004 604.5454545454545,333.1310447790914 599.4949494949494,332.3280418012588 594.4444444444445,329.7161577461736 589.3939393939394,335.1194849259524 584.3434343434344,333.8976728635191 579.2929292929293,334.4529977797654 574.2424242424242,336.50492612377235 569.1919191919192,334.91123808236006 564.1414141414141,337.1881999012251 559.090909090909,337.89485919257925 554.040404040404,337.8986332903673 548.989898989899,339.1380655271361 543.939393939394,339.12780831658336 538.8888888888889,340.16401812215247 533.8383838383838,340.4228332453096 528.7878787878788,341.3286167144372 523.7373737373737,343.6589252897662 518.6868686868687,341.90031149041437 513.6363636363636,343.1679452677097 508.5858585858586,344.9610121806112 503.5353535353535,344.8589494625152 498.4848484848485,345.5053621131058 493.4343434343434,344.3447923123249 488.3838383838384,344.97309855512253 483.3333333333333,346.8400729535418 478.2828282828283,343.5918019186772 473.2323232323232,348.68417122549124 468.1818181818182,345.976730719049 463.1313131313131,348.5867856101755 458.0808080808081,348.68806109315005 453.030303030303,349.37978607117117 447.979797979798,348.865073225601 442.9292929292929,351.53590729889675 437.8787878787879,351.7865027612272 432.8282828282828,350.6074329350927 427.77777777777777,352.7179408337237 422.72727272727275,350.66631349138083 417.67676767676767,352.2745885365137 412.62626262626264,353.38308504940943 407.57575757575756,352.8916187938956 402.52525252525254,357.25172051393486 397.47474747474746,358.1503262510729 392.4242424242424,354.89925358533503 387.37373737373736,356.46249415072725 382.32323232323233,356.7640978181316 377.27272727272725,360.35456143710235 372.22222222222223,361.11206685571113 367.1717171717172,360.38734746451246 362.1212121212121,362.25763288123653 357.07070707070704,362.26031874223906 352.020202020202,362.9671864193606 346.969696969697,365.23199240179184 341.9191919191919,362.44335090797153 336.86868686868684,363.2080803665182 331.8181818181818,362.4976932853243 326.7676767676768,364.69296788335396 321.7171717171717,365.9747024309126 316.66666666666663,368.5854056333156 311.6161616161616,367.05027399255323 306.5656565656566,369.3275599670565 301.5151515151515,369.79885911107726 296.4646464646464,370.6737551786757 291.4141414141414,374.4606571144175 286.3636363636364,376.2848661225637 281.3131313131313,377.54520639799875 276.26262626262627,377.9118495788176 271.2121212121212,377.6344186604361 266.16161616161617,379.22926440055636 261.1111111111111,379.2614252706642 256.06060606060606,372.993806543452 251.010101010101,382.7701090529029 245.95959595959596,380.3863842591874 240.9090909090909,383.9306325457355 235.85858585858585,382.5547539392435 230.8080808080808,382.5423897170422 225.75757575757575,382.53014126471174 220.7070707070707,383.8749703918555 215.65656565656565,378.1071070429064 210.6060606060606,379.7693771557797 205.55555555555554,380.1843426806699 200.50505050505052,381.4765428245487 195.45454545454544,382.8785159599186 190.40404040404042,384.1908369073422 185.35353535353534,385.5192961747551 180.3030303030303,387.35049768309756 175.25252525252526,389.53484360532383 170.2020202020202,391.6170341935575 165.15151515151516,393.8049226738302 160.1010101010101,395.7335792594109 155.05050505050505,398.20061205215296 150,399.9994906125685 "/><text class="poloto_text" alignment-baseline="middle" text-anchor="start" font-size="large" x="675" y="250" >direct_seq</text><line class="poloto3stroke" stroke="black" x1="680" x2="730" y1="231.25" y2="231.25" /><polyline class="poloto3stroke" fill="none" stroke="black"  points="650,170.33878663450736 644.9494949494949,175.70483591588902 639.8989898989898,177.2631446847853 634.8484848484848,180.22896038887563 629.7979797979798,182.35907970361987 624.7474747474747,181.7514499597468 619.6969696969697,188.179572035834 614.6464646464647,189.78587899316332 609.5959595959596,192.82761657852336 604.5454545454545,194.90151804400784 599.4949494949494,198.01422256016733 594.4444444444445,198.5093934515467 589.3939393939394,201.29187598824058 584.3434343434344,204.63718532880844 579.2929292929293,206.90303324007687 574.2424242424242,208.8441235097813 569.1919191919192,210.8968159349355 564.1414141414141,213.30323162332746 559.090909090909,215.9590850753419 554.040404040404,217.4555958872059 548.989898989899,219.03407176759524 543.939393939394,221.55850326227917 538.8888888888889,223.4715540692762 533.8383838383838,225.84259048515216 528.7878787878788,228.35213397445142 523.7373737373737,230.45940031670006 518.6868686868687,232.7459015729189 513.6363636363636,235.68828545515967 508.5858585858586,237.29718565759487 503.5353535353535,239.53140524016112 498.4848484848485,241.05537666537853 493.4343434343434,242.3820067688328 488.3838383838384,244.5866124184488 483.3333333333333,246.57408009839511 478.2828282828283,248.4905576935678 473.2323232323232,251.44007299984972 468.1818181818182,252.40533902859352 463.1313131313131,256.1503554250803 458.0808080808081,257.6361691008825 453.030303030303,259.45058397795924 447.979797979798,262.0402170638769 442.9292929292929,264.1893920993546 437.8787878787879,266.80405463133894 432.8282828282828,268.13994632445707 427.77777777777777,268.91947117249174 422.72727272727275,272.7539776791058 417.67676767676767,275.47498641440563 412.62626262626264,277.97962126118307 407.57575757575756,280.4630933755785 402.52525252525254,282.575268360349 397.47474747474746,285.13998777007083 392.4242424242424,287.8594683430761 387.37373737373736,290.2757476244601 382.32323232323233,292.82157339126763 377.27272727272725,295.3943966919454 372.22222222222223,297.51502287728414 367.1717171717172,300.2245472414008 362.1212121212121,301.47611216062927 357.07070707070704,303.50446975894164 352.020202020202,305.6881905238656 346.969696969697,308.2227171512832 341.9191919191919,310.65149957871347 336.86868686868684,312.7520049605074 331.8181818181818,314.9240561224549 326.7676767676768,317.3689768698744 321.7171717171717,319.76161594364135 316.66666666666663,322.2602770650856 311.6161616161616,324.6941302128568 306.5656565656566,327.20649848700356 301.5151515151515,329.8545953576745 296.4646464646464,332.0166671567591 291.4141414141414,334.5419785024611 286.3636363636364,340.0356524894111 281.3131313131313,342.33123010350056 276.26262626262627,344.6806407075114 271.2121212121212,346.9849010619107 266.16161616161617,348.98366788124696 261.1111111111111,351.40610611975745 256.06060606060606,353.40804503355355 251.010101010101,355.7604888081793 245.95959595959596,357.9731288868287 240.9090909090909,360.4296266213281 235.85858585858585,362.1966453132999 230.8080808080808,364.58208350110317 225.75757575757575,366.96036711089107 220.7070707070707,368.14818913925797 215.65656565656565,371.05709237486377 210.6060606060606,372.625542584442 205.55555555555554,375.3617171728164 200.50505050505052,377.7423624879686 195.45454545454544,379.842057480667 190.40404040404042,382.21677537843436 185.35353535353534,384.53610897001164 180.3030303030303,387.2084480516278 175.25252525252526,389.53088427574255 170.2020202020202,391.69744794581413 165.15151515151516,393.7579664142343 160.1010101010101,395.66786828074567 155.05050505050505,398.1652096256627 150,399.9996063824393 "/><text class="poloto_text" alignment-baseline="middle" text-anchor="start" font-size="large" x="675" y="300" >indirect_par</text><line class="poloto4stroke" stroke="black" x1="680" x2="730" y1="281.25" y2="281.25" /><polyline class="poloto4stroke" fill="none" stroke="black"  points="650,277.39352471327857 644.9494949494949,314.41008420405785 639.8989898989898,313.8529301238529 634.8484848484848,314.02482522801455 629.7979797979798,315.64284809626866 624.7474747474747,315.85885152120454 619.6969696969697,319.5547583384986 614.6464646464647,297.78608645277177 609.5959595959596,321.53481674671383 604.5454545454545,321.28542529103964 599.4949494949494,320.36676821227934 594.4444444444445,320.54746182662166 589.3939393939394,324.07258493051376 584.3434343434344,325.7564345473039 579.2929292929293,325.5927359499948 574.2424242424242,324.44547968435575 569.1919191919192,325.6633555711819 564.1414141414141,327.7815968971822 559.090909090909,327.9669213063565 554.040404040404,329.6575087296271 548.989898989899,329.9147956904897 543.939393939394,302.3230382274429 538.8888888888889,333.90373920474894 533.8383838383838,330.8196993085992 528.7878787878788,333.1925648884337 523.7373737373737,332.78463817168813 518.6868686868687,335.35130251523935 513.6363636363636,337.0776628285867 508.5858585858586,329.46357104206544 503.5353535353535,337.91873093993786 498.4848484848485,336.3340266404996 493.4343434343434,336.88386406487 488.3838383838384,337.2828070396417 483.3333333333333,339.2092871516513 478.2828282828283,338.57192770495726 473.2323232323232,337.07926045280374 468.1818181818182,341.7465922559681 463.1313131313131,337.64375434281726 458.0808080808081,341.4527451699073 453.030303030303,344.8428111425259 447.979797979798,342.6119488862128 442.9292929292929,343.5950897830079 437.8787878787879,330.60327911212846 432.8282828282828,348.82441484697654 427.77777777777777,216.6859577861374 422.72727272727275,343.7112532713671 417.67676767676767,347.8800105489506 412.62626262626264,348.4448517485765 407.57575757575756,349.897786781072 402.52525252525254,351.0101036997041 397.47474747474746,351.40962552382973 392.4242424242424,350.9545341617208 387.37373737373736,352.274495920617 382.32323232323233,355.0955761322351 377.27272727272725,347.4177877628005 372.22222222222223,354.61802541519125 367.1717171717172,354.1204928184476 362.1212121212121,357.2675346782859 357.07070707070704,358.8922490450722 352.020202020202,359.7018740595145 346.969696969697,360.76920280635426 341.9191919191919,359.5408150152596 336.86868686868684,358.8946339044107 331.8181818181818,362.483291513397 326.7676767676768,362.4264716608091 321.7171717171717,365.4174094268627 316.66666666666663,361.131330962212 311.6161616161616,364.10008722102066 306.5656565656566,367.97034346373727 301.5151515151515,367.9561269236032 296.4646464646464,368.0112102281292 291.4141414141414,368.2085515498923 286.3636363636364,372.9127907878672 281.3131313131313,369.70080203051094 276.26262626262627,373.4129166297168 271.2121212121212,373.600116510798 266.16161616161617,374.7570279836616 261.1111111111111,376.8031215261803 256.06060606060606,368.46576904883244 251.010101010101,375.5718394883157 245.95959595959596,378.3434859651028 240.9090909090909,380.27274455401164 235.85858585858585,382.33794012521207 230.8080808080808,380.8001689313955 225.75757575757575,380.26501112664226 220.7070707070707,383.69416100764244 215.65656565656565,377.65879979522623 210.6060606060606,378.2613588187583 205.55555555555554,378.8231900017435 200.50505050505052,380.2691325340427 195.45454545454544,382.7009018241395 190.40404040404042,383.3167280748651 185.35353535353534,384.6914952905974 180.3030303030303,386.0108318921914 175.25252525252526,388.42391592514133 170.2020202020202,390.8426726817604 165.15151515151516,393.39688018721375 160.1010101010101,395.4828448732355 155.05050505050505,398.0220486034333 150,399.99921276487856 "/><text class="poloto_text" alignment-baseline="middle" text-anchor="start" font-size="large" x="675" y="350" >indirect_seq</text><line class="poloto5stroke" stroke="black" x1="680" x2="730" y1="331.25" y2="331.25" /><polyline class="poloto5stroke" fill="none" stroke="black"  points="650,133.03349708595658 644.9494949494949,138.81921214898284 639.8989898989898,139.74715397138124 634.8484848484848,142.36121450003736 629.7979797979798,146.1296627183738 624.7474747474747,148.52846074926723 619.6969696969697,153.2116298707568 614.6464646464647,155.0417431423138 609.5959595959596,157.55668150759232 604.5454545454545,160.37167222400637 599.4949494949494,164.2734641795285 594.4444444444445,165.43528429491406 589.3939393939394,168.43680342715862 584.3434343434344,172.20525164549505 579.2929292929293,175.62377385235592 574.2424242424242,177.97494415840282 569.1919191919192,181.07797031336358 564.1414141414141,183.74023741622025 559.090909090909,186.29585731409733 554.040404040404,188.7542536744778 548.989898989899,191.73164636564803 543.939393939394,186.7159398672768 538.8888888888889,196.21939594522973 533.8383838383838,198.7486666205131 528.7878787878788,202.07466554663176 523.7373737373737,204.24194698990232 518.6868686868687,207.4062617144638 513.6363636363636,210.21136568391168 508.5858585858586,212.69101739257079 503.5353535353535,214.0169760307744 498.4848484848485,216.85549118493475 493.4343434343434,219.68995439361709 488.3838383838384,221.36419511113095 483.3333333333333,223.9143275171322 478.2828282828283,226.56017845230963 473.2323232323232,229.89724497807666 468.1818181818182,232.28564687457236 463.1313131313131,235.70097383299918 458.0808080808081,237.51129045664962 453.030303030303,239.3719669740974 447.979797979798,242.71505353314595 442.9292929292929,244.78388427828946 437.8787878787879,245.73192375025843 432.8282828282828,249.57874817112545 427.77777777777777,245.6267352456509 422.72727272727275,257.94251933298955 417.67676767676767,261.17946807449005 412.62626262626264,263.71631009932355 407.57575757575756,267.0786144569247 402.52525252525254,269.1920397562998 397.47474747474746,272.0513934872038 392.4242424242424,274.95402199581235 387.37373737373736,277.9297012928947 382.32323232323233,281.0472681436278 377.27272727272725,283.71029932763173 372.22222222222223,286.2393153091993 367.1717171717172,289.0330506773348 362.1212121212121,290.81611507339926 357.07070707070704,292.9309296112239 352.020202020202,295.5418411993944 346.969696969697,298.111307173819 341.9191919191919,300.4779674885787 336.86868686868684,303.0854059806252 331.8181818181818,305.93378472777755 326.7676767676768,308.0969447636477 321.7171717171717,310.9657916239572 316.66666666666663,313.5619309766138 311.6161616161616,316.2229014569175 306.5656565656566,319.07547107339275 301.5151515151515,322.517818719664 296.4646464646464,324.5835931402184 291.4141414141414,327.49187121852185 286.3636363636364,329.7675827227823 281.3131313131313,332.75138906479475 276.26262626262627,335.66374224255037 271.2121212121212,337.73806047956975 266.16161616161617,340.38541642306757 261.1111111111111,343.5918019186772 256.06060606060606,346.19340560923547 251.010101010101,349.3153022531364 245.95959595959596,351.7272980493008 240.9090909090909,354.47935626394883 235.85858585858585,356.7940590606942 230.8080808080808,359.57762983417354 225.75757575757575,362.1401264623761 220.7070707070707,364.12030064046206 215.65656565656565,367.84320499162635 210.6060606060606,369.4578936876015 205.55555555555554,372.8345998171299 200.50505050505052,375.4889251068498 195.45454545454544,377.96292724581394 190.40404040404042,380.5977337353172 185.35353535353534,382.66170214588715 180.3030303030303,385.5556016062375 175.25252525252526,388.12353941836756 170.2020202020202,390.6340785285557 165.15151515151516,393.2147278724994 160.1010101010101,395.2779785098704 155.05050505050505,397.8987536910329 150,399.9996758443618 "/><text class="poloto_text" alignment-baseline="start" text-anchor="middle" font-size="x-large" x="400" y="37.5" >Bench of query:128_bytes with abspiral(num,0.1)</text><text class="poloto_text" alignment-baseline="start" text-anchor="middle" font-size="x-large" x="400" y="481.25" >Number of Elements</text><text class="poloto_text" alignment-baseline="start" text-anchor="middle" font-size="x-large" transform="rotate(-90,37.5,250)" x="37.5" y="250" >Time in Seconds</text><path stroke="black" fill="none" class="poloto_axis_lines"  d="M 150 100 L 150 400 L 650 400 "/></svg>