<svg class="poloto" width="800" height="500" viewBox="0 0 800 500" xmlns="http://www.w3.org/2000/svg"><circle  r="1e5" class="poloto_background" /><text  class="poloto_text poloto_legend_text" x="675" y="100" >default_par</text><line  class="poloto_scatter poloto_legend_icon poloto0stroke poloto0legend" stroke="black" x1="685" x2="685" y1="81.25" y2="81.25" /><path  class="poloto_scatter poloto0stroke" d=" M 650.00 282.32 h 0 M 644.95 296.43 h 0 M 639.90 300.17 h 0 M 634.85 293.32 h 0 M 629.80 299.07 h 0 M 624.75 302.27 h 0 M 619.70 300.03 h 0 M 614.65 303.13 h 0 M 609.60 304.62 h 0 M 604.55 300.91 h 0 M 599.49 306.54 h 0 M 594.44 309.63 h 0 M 589.39 308.85 h 0 M 584.34 306.70 h 0 M 579.29 309.02 h 0 M 574.24 276.35 h 0 M 569.19 311.97 h 0 M 564.14 316.19 h 0 M 559.09 314.57 h 0 M 554.04 316.64 h 0 M 548.99 318.88 h 0 M 543.94 319.14 h 0 M 538.89 319.14 h 0 M 533.84 322.68 h 0 M 528.79 320.38 h 0 M 523.74 323.17 h 0 M 518.69 324.66 h 0 M 513.64 326.25 h 0 M 508.59 326.64 h 0 M 503.54 325.92 h 0 M 498.48 327.53 h 0 M 493.43 325.39 h 0 M 488.38 332.87 h 0 M 483.33 331.12 h 0 M 478.28 331.55 h 0 M 473.23 311.19 h 0 M 468.18 333.31 h 0 M 463.13 335.77 h 0 M 458.08 336.80 h 0 M 453.03 335.11 h 0 M 447.98 337.96 h 0 M 442.93 339.17 h 0 M 437.88 342.18 h 0 M 432.83 336.57 h 0 M 427.78 312.72 h 0 M 422.73 342.77 h 0 M 417.68 342.68 h 0 M 412.63 339.79 h 0 M 407.58 345.08 h 0 M 402.53 347.83 h 0 M 397.47 348.73 h 0 M 392.42 349.04 h 0 M 387.37 350.00 h 0 M 382.32 349.83 h 0 M 377.27 352.02 h 0 M 372.22 352.65 h 0 M 367.17 353.96 h 0 M 362.12 348.40 h 0 M 357.07 345.89 h 0 M 352.02 358.75 h 0 M 346.97 359.11 h 0 M 341.92 359.02 h 0 M 336.87 359.94 h 0 M 331.82 354.43 h 0 M 326.77 360.18 h 0 M 321.72 360.71 h 0 M 316.67 362.32 h 0 M 311.62 362.36 h 0 M 306.57 367.51 h 0 M 301.52 367.75 h 0 M 296.46 366.48 h 0 M 291.41 365.54 h 0 M 286.36 368.84 h 0 M 281.31 372.88 h 0 M 276.26 370.57 h 0 M 271.21 372.73 h 0 M 266.16 371.93 h 0 M 261.11 375.17 h 0 M 256.06 376.88 h 0 M 251.01 377.37 h 0 M 245.96 380.01 h 0 M 240.91 380.57 h 0 M 235.86 380.94 h 0 M 230.81 381.29 h 0 M 225.76 381.90 h 0 M 220.71 383.62 h 0 M 215.66 384.26 h 0 M 210.61 385.85 h 0 M 205.56 386.49 h 0 M 200.51 387.86 h 0 M 195.45 388.17 h 0 M 190.40 388.98 h 0 M 185.35 390.14 h 0 M 180.30 388.65 h 0 M 175.25 389.61 h 0 M 170.20 390.33 h 0 M 165.15 392.68 h 0 M 160.10 395.21 h 0 M 155.05 397.80 h 0 M 150.00 399.99 h 0" /><text  class="poloto_text poloto_legend_text" x="675" y="150" >default_seq</text><line  class="poloto_scatter poloto_legend_icon poloto1stroke poloto1legend" stroke="black" x1="685" x2="685" y1="131.25" y2="131.25" /><path  class="poloto_scatter poloto1stroke" d=" M 650.00 107.11 h 0 M 644.95 100.00 h 0 M 639.90 113.36 h 0 M 634.85 115.85 h 0 M 629.80 103.88 h 0 M 624.75 129.71 h 0 M 619.70 133.68 h 0 M 614.65 127.52 h 0 M 609.60 124.27 h 0 M 604.55 136.70 h 0 M 599.49 132.18 h 0 M 594.44 135.03 h 0 M 589.39 137.16 h 0 M 584.34 151.23 h 0 M 579.29 149.02 h 0 M 574.24 164.32 h 0 M 569.19 173.55 h 0 M 564.14 165.98 h 0 M 559.09 154.04 h 0 M 554.04 166.18 h 0 M 548.99 173.58 h 0 M 543.94 160.15 h 0 M 538.89 167.29 h 0 M 533.84 184.37 h 0 M 528.79 179.73 h 0 M 523.74 202.31 h 0 M 518.69 200.65 h 0 M 513.64 186.56 h 0 M 508.59 202.27 h 0 M 503.54 205.68 h 0 M 498.48 207.22 h 0 M 493.43 189.58 h 0 M 488.38 213.51 h 0 M 483.33 235.13 h 0 M 478.28 215.84 h 0 M 473.23 217.60 h 0 M 468.18 222.41 h 0 M 463.13 222.35 h 0 M 458.08 228.69 h 0 M 453.03 234.99 h 0 M 447.98 236.63 h 0 M 442.93 241.80 h 0 M 437.88 247.28 h 0 M 432.83 246.22 h 0 M 427.78 233.34 h 0 M 422.73 240.47 h 0 M 417.68 260.83 h 0 M 412.63 246.49 h 0 M 407.58 263.73 h 0 M 402.53 264.13 h 0 M 397.47 269.09 h 0 M 392.42 278.17 h 0 M 387.37 264.21 h 0 M 382.32 279.35 h 0 M 377.27 283.77 h 0 M 372.22 287.50 h 0 M 367.17 292.88 h 0 M 362.12 277.38 h 0 M 357.07 285.19 h 0 M 352.02 294.23 h 0 M 346.97 297.75 h 0 M 341.92 302.78 h 0 M 336.87 309.05 h 0 M 331.82 307.16 h 0 M 326.77 310.09 h 0 M 321.72 313.87 h 0 M 316.67 317.14 h 0 M 311.62 322.31 h 0 M 306.57 323.87 h 0 M 301.52 321.98 h 0 M 296.46 320.40 h 0 M 291.41 323.37 h 0 M 286.36 333.18 h 0 M 281.31 336.91 h 0 M 276.26 336.46 h 0 M 271.21 335.13 h 0 M 266.16 345.75 h 0 M 261.11 345.50 h 0 M 256.06 347.12 h 0 M 251.01 348.17 h 0 M 245.96 353.79 h 0 M 240.91 356.70 h 0 M 235.86 360.98 h 0 M 230.81 361.42 h 0 M 225.76 358.80 h 0 M 220.71 366.33 h 0 M 215.66 367.46 h 0 M 210.61 368.11 h 0 M 205.56 372.93 h 0 M 200.51 375.51 h 0 M 195.45 375.71 h 0 M 190.40 379.17 h 0 M 185.35 381.29 h 0 M 180.30 384.91 h 0 M 175.25 386.56 h 0 M 170.20 389.85 h 0 M 165.15 392.46 h 0 M 160.10 395.08 h 0 M 155.05 397.60 h 0 M 150.00 399.99 h 0" /><text  class="poloto_text poloto_legend_text" x="675" y="200" >direct_par</text><line  class="poloto_scatter poloto_legend_icon poloto2stroke poloto2legend" stroke="black" x1="685" x2="685" y1="181.25" y2="181.25" /><path  class="poloto_scatter poloto2stroke" d=" M 650.00 301.78 h 0 M 644.95 307.61 h 0 M 639.90 308.35 h 0 M 634.85 308.11 h 0 M 629.80 309.45 h 0 M 624.75 309.84 h 0 M 619.70 311.43 h 0 M 614.65 310.00 h 0 M 609.60 314.83 h 0 M 604.55 312.46 h 0 M 599.49 316.16 h 0 M 594.44 313.30 h 0 M 589.39 282.64 h 0 M 584.34 317.94 h 0 M 579.29 320.22 h 0 M 574.24 320.90 h 0 M 569.19 319.58 h 0 M 564.14 320.58 h 0 M 559.09 325.59 h 0 M 554.04 293.18 h 0 M 548.99 325.62 h 0 M 543.94 325.48 h 0 M 538.89 320.68 h 0 M 533.84 327.97 h 0 M 528.79 328.23 h 0 M 523.74 333.68 h 0 M 518.69 332.56 h 0 M 513.64 331.72 h 0 M 508.59 330.04 h 0 M 503.54 334.43 h 0 M 498.48 334.49 h 0 M 493.43 335.44 h 0 M 488.38 336.38 h 0 M 483.33 338.68 h 0 M 478.28 312.03 h 0 M 473.23 338.95 h 0 M 468.18 338.88 h 0 M 463.13 342.12 h 0 M 458.08 342.12 h 0 M 453.03 342.26 h 0 M 447.98 339.97 h 0 M 442.93 341.03 h 0 M 437.88 342.81 h 0 M 432.83 340.66 h 0 M 427.78 342.17 h 0 M 422.73 344.23 h 0 M 417.68 343.40 h 0 M 412.63 346.08 h 0 M 407.58 346.97 h 0 M 402.53 348.17 h 0 M 397.47 347.62 h 0 M 392.42 348.80 h 0 M 387.37 347.60 h 0 M 382.32 353.40 h 0 M 377.27 350.85 h 0 M 372.22 352.57 h 0 M 367.17 355.26 h 0 M 362.12 352.64 h 0 M 357.07 357.54 h 0 M 352.02 357.17 h 0 M 346.97 359.01 h 0 M 341.92 361.57 h 0 M 336.87 362.60 h 0 M 331.82 363.57 h 0 M 326.77 356.04 h 0 M 321.72 362.07 h 0 M 316.67 366.23 h 0 M 311.62 362.62 h 0 M 306.57 367.35 h 0 M 301.52 366.17 h 0 M 296.46 367.48 h 0 M 291.41 368.75 h 0 M 286.36 371.10 h 0 M 281.31 371.48 h 0 M 276.26 372.44 h 0 M 271.21 373.58 h 0 M 266.16 375.10 h 0 M 261.11 375.77 h 0 M 256.06 376.72 h 0 M 251.01 377.14 h 0 M 245.96 380.11 h 0 M 240.91 380.44 h 0 M 235.86 377.24 h 0 M 230.81 376.53 h 0 M 225.76 382.80 h 0 M 220.71 383.80 h 0 M 215.66 384.46 h 0 M 210.61 384.39 h 0 M 205.56 380.54 h 0 M 200.51 382.45 h 0 M 195.45 387.31 h 0 M 190.40 389.63 h 0 M 185.35 390.40 h 0 M 180.30 380.40 h 0 M 175.25 381.43 h 0 M 170.20 383.69 h 0 M 165.15 393.42 h 0 M 160.10 395.54 h 0 M 155.05 397.82 h 0 M 150.00 399.99 h 0" /><text  class="poloto_text poloto_legend_text" x="675" y="250" >direct_seq</text><line  class="poloto_scatter poloto_legend_icon poloto3stroke poloto3legend" stroke="black" x1="685" x2="685" y1="231.25" y2="231.25" /><path  class="poloto_scatter poloto3stroke" d=" M 650.00 145.81 h 0 M 644.95 150.80 h 0 M 639.90 145.99 h 0 M 634.85 159.22 h 0 M 629.80 158.48 h 0 M 624.75 164.21 h 0 M 619.70 163.19 h 0 M 614.65 171.27 h 0 M 609.60 173.80 h 0 M 604.55 171.34 h 0 M 599.49 180.48 h 0 M 594.44 184.08 h 0 M 589.39 172.40 h 0 M 584.34 189.14 h 0 M 579.29 191.40 h 0 M 574.24 193.38 h 0 M 569.19 196.33 h 0 M 564.14 196.54 h 0 M 559.09 198.79 h 0 M 554.04 195.75 h 0 M 548.99 210.76 h 0 M 543.94 202.73 h 0 M 538.89 215.65 h 0 M 533.84 213.86 h 0 M 528.79 220.77 h 0 M 523.74 225.12 h 0 M 518.69 224.28 h 0 M 513.64 220.85 h 0 M 508.59 229.31 h 0 M 503.54 234.43 h 0 M 498.48 237.80 h 0 M 493.43 226.73 h 0 M 488.38 242.21 h 0 M 483.33 241.50 h 0 M 478.28 247.06 h 0 M 473.23 249.26 h 0 M 468.18 247.87 h 0 M 463.13 255.25 h 0 M 458.08 257.43 h 0 M 453.03 260.75 h 0 M 447.98 257.00 h 0 M 442.93 266.45 h 0 M 437.88 267.47 h 0 M 432.83 270.85 h 0 M 427.78 265.47 h 0 M 422.73 266.25 h 0 M 417.68 259.95 h 0 M 412.63 271.54 h 0 M 407.58 275.06 h 0 M 402.53 276.35 h 0 M 397.47 279.20 h 0 M 392.42 283.55 h 0 M 387.37 278.56 h 0 M 382.32 288.78 h 0 M 377.27 289.45 h 0 M 372.22 290.30 h 0 M 367.17 296.71 h 0 M 362.12 298.10 h 0 M 357.07 301.16 h 0 M 352.02 302.21 h 0 M 346.97 299.87 h 0 M 341.92 309.37 h 0 M 336.87 312.77 h 0 M 331.82 314.85 h 0 M 326.77 315.58 h 0 M 321.72 320.09 h 0 M 316.67 322.90 h 0 M 311.62 325.90 h 0 M 306.57 328.47 h 0 M 301.52 327.39 h 0 M 296.46 331.79 h 0 M 291.41 335.55 h 0 M 286.36 339.12 h 0 M 281.31 337.13 h 0 M 276.26 341.04 h 0 M 271.21 343.43 h 0 M 266.16 349.14 h 0 M 261.11 350.07 h 0 M 256.06 352.73 h 0 M 251.01 355.97 h 0 M 245.96 358.15 h 0 M 240.91 355.32 h 0 M 235.86 360.57 h 0 M 230.81 361.95 h 0 M 225.76 367.60 h 0 M 220.71 369.76 h 0 M 215.66 362.46 h 0 M 210.61 371.87 h 0 M 205.56 374.23 h 0 M 200.51 376.88 h 0 M 195.45 379.02 h 0 M 190.40 381.48 h 0 M 185.35 384.41 h 0 M 180.30 386.39 h 0 M 175.25 389.06 h 0 M 170.20 391.48 h 0 M 165.15 393.07 h 0 M 160.10 395.20 h 0 M 155.05 397.62 h 0 M 150.00 399.99 h 0" /><text  class="poloto_text poloto_legend_text" x="675" y="300" >indirect_par</text><line  class="poloto_scatter poloto_legend_icon poloto4stroke poloto4legend" stroke="black" x1="685" x2="685" y1="281.25" y2="281.25" /><path  class="poloto_scatter poloto4stroke" d=" M 650.00 281.55 h 0 M 644.95 289.86 h 0 M 639.90 295.12 h 0 M 634.85 294.80 h 0 M 629.80 288.69 h 0 M 624.75 293.25 h 0 M 619.70 297.37 h 0 M 614.65 297.71 h 0 M 609.60 295.96 h 0 M 604.55 294.63 h 0 M 599.49 302.25 h 0 M 594.44 301.26 h 0 M 589.39 297.61 h 0 M 584.34 298.40 h 0 M 579.29 300.71 h 0 M 574.24 302.04 h 0 M 569.19 302.36 h 0 M 564.14 294.12 h 0 M 559.09 309.70 h 0 M 554.04 309.37 h 0 M 548.99 315.78 h 0 M 543.94 308.26 h 0 M 538.89 309.32 h 0 M 533.84 318.80 h 0 M 528.79 318.07 h 0 M 523.74 314.66 h 0 M 518.69 314.11 h 0 M 513.64 320.23 h 0 M 508.59 319.12 h 0 M 503.54 321.27 h 0 M 498.48 319.67 h 0 M 493.43 326.65 h 0 M 488.38 326.59 h 0 M 483.33 295.63 h 0 M 478.28 324.73 h 0 M 473.23 326.16 h 0 M 468.18 330.36 h 0 M 463.13 330.14 h 0 M 458.08 327.22 h 0 M 453.03 326.43 h 0 M 447.98 333.31 h 0 M 442.93 331.75 h 0 M 437.88 336.19 h 0 M 432.83 333.45 h 0 M 427.78 333.41 h 0 M 422.73 335.77 h 0 M 417.68 335.22 h 0 M 412.63 337.45 h 0 M 407.58 337.91 h 0 M 402.53 342.31 h 0 M 397.47 343.34 h 0 M 392.42 343.28 h 0 M 387.37 344.92 h 0 M 382.32 339.99 h 0 M 377.27 347.87 h 0 M 372.22 346.15 h 0 M 367.17 348.04 h 0 M 362.12 349.34 h 0 M 357.07 351.66 h 0 M 352.02 351.28 h 0 M 346.97 351.50 h 0 M 341.92 348.97 h 0 M 336.87 353.34 h 0 M 331.82 354.94 h 0 M 326.77 355.59 h 0 M 321.72 359.43 h 0 M 316.67 359.73 h 0 M 311.62 359.70 h 0 M 306.57 361.36 h 0 M 301.52 359.29 h 0 M 296.46 363.63 h 0 M 291.41 366.07 h 0 M 286.36 365.66 h 0 M 281.31 369.15 h 0 M 276.26 367.49 h 0 M 271.21 370.35 h 0 M 266.16 370.56 h 0 M 261.11 373.13 h 0 M 256.06 371.53 h 0 M 251.01 373.02 h 0 M 245.96 374.55 h 0 M 240.91 378.41 h 0 M 235.86 378.01 h 0 M 230.81 375.16 h 0 M 225.76 380.39 h 0 M 220.71 381.91 h 0 M 215.66 383.63 h 0 M 210.61 383.57 h 0 M 205.56 385.22 h 0 M 200.51 385.05 h 0 M 195.45 386.57 h 0 M 190.40 388.80 h 0 M 185.35 389.16 h 0 M 180.30 385.06 h 0 M 175.25 387.60 h 0 M 170.20 391.28 h 0 M 165.15 392.41 h 0 M 160.10 395.38 h 0 M 155.05 397.64 h 0 M 150.00 399.99 h 0" /><text  class="poloto_text poloto_legend_text" x="675" y="350" >indirect_seq</text><line  class="poloto_scatter poloto_legend_icon poloto5stroke poloto5legend" stroke="black" x1="685" x2="685" y1="331.25" y2="331.25" /><path  class="poloto_scatter poloto5stroke" d=" M 650.00 103.98 h 0 M 644.95 109.52 h 0 M 639.90 130.48 h 0 M 634.85 138.68 h 0 M 629.80 124.82 h 0 M 624.75 101.00 h 0 M 619.70 152.02 h 0 M 614.65 121.58 h 0 M 609.60 159.71 h 0 M 604.55 132.11 h 0 M 599.49 138.66 h 0 M 594.44 134.30 h 0 M 589.39 159.07 h 0 M 584.34 144.37 h 0 M 579.29 149.37 h 0 M 574.24 144.80 h 0 M 569.19 184.62 h 0 M 564.14 171.76 h 0 M 559.09 179.99 h 0 M 554.04 166.23 h 0 M 548.99 197.93 h 0 M 543.94 175.18 h 0 M 538.89 181.89 h 0 M 533.84 179.64 h 0 M 528.79 164.05 h 0 M 523.74 184.43 h 0 M 518.69 183.82 h 0 M 513.64 193.82 h 0 M 508.59 211.24 h 0 M 503.54 201.35 h 0 M 498.48 204.39 h 0 M 493.43 192.60 h 0 M 488.38 205.36 h 0 M 483.33 214.39 h 0 M 478.28 235.85 h 0 M 473.23 224.76 h 0 M 468.18 235.33 h 0 M 463.13 226.15 h 0 M 458.08 218.55 h 0 M 453.03 221.41 h 0 M 447.98 223.55 h 0 M 442.93 237.42 h 0 M 437.88 216.23 h 0 M 432.83 246.89 h 0 M 427.78 262.05 h 0 M 422.73 254.46 h 0 M 417.68 243.42 h 0 M 412.63 258.90 h 0 M 407.58 261.04 h 0 M 402.53 264.67 h 0 M 397.47 263.40 h 0 M 392.42 270.06 h 0 M 387.37 270.95 h 0 M 382.32 261.72 h 0 M 377.27 274.73 h 0 M 372.22 284.38 h 0 M 367.17 271.63 h 0 M 362.12 291.89 h 0 M 357.07 286.51 h 0 M 352.02 274.41 h 0 M 346.97 283.49 h 0 M 341.92 300.64 h 0 M 336.87 305.05 h 0 M 331.82 295.83 h 0 M 326.77 300.70 h 0 M 321.72 310.15 h 0 M 316.67 310.49 h 0 M 311.62 311.78 h 0 M 306.57 309.48 h 0 M 301.52 312.39 h 0 M 296.46 315.72 h 0 M 291.41 329.34 h 0 M 286.36 329.57 h 0 M 281.31 323.37 h 0 M 276.26 334.97 h 0 M 271.21 334.74 h 0 M 266.16 336.02 h 0 M 261.11 343.78 h 0 M 256.06 340.07 h 0 M 251.01 343.84 h 0 M 245.96 351.09 h 0 M 240.91 349.39 h 0 M 235.86 359.37 h 0 M 230.81 359.60 h 0 M 225.76 363.42 h 0 M 220.71 366.66 h 0 M 215.66 364.06 h 0 M 210.61 367.31 h 0 M 205.56 369.44 h 0 M 200.51 373.69 h 0 M 195.45 376.53 h 0 M 190.40 379.87 h 0 M 185.35 382.53 h 0 M 180.30 384.49 h 0 M 175.25 387.22 h 0 M 170.20 389.56 h 0 M 165.15 392.01 h 0 M 160.10 395.18 h 0 M 155.05 397.60 h 0 M 150.00 399.99 h 0" /><text  class="poloto_labels poloto_text poloto_title" x="400" y="37.5" >Bench of query:256_bytes with abspiral(num,1.5)</text><text  class="poloto_labels poloto_text poloto_xname" x="400" y="481.25" >Number of Elements</text><text  class="poloto_labels poloto_text poloto_yname" transform="rotate(-90,37.5,250)" x="37.5" y="250" >Time in Seconds</text><text  class="poloto_tick_labels poloto_text" dominant-baseline="middle" text-anchor="start" x="150" y="70" ></text><line  class="poloto_axis_lines" stroke="black" x1="150" x2="144" y1="400" y2="400" /><text  class="poloto_tick_labels poloto_text" dominant-baseline="middle" text-anchor="end" x="135" y="400" >0e0</text><line  class="poloto_axis_lines" stroke="black" x1="150" x2="144" y1="361.47720040947166" y2="361.47720040947166" /><text  class="poloto_tick_labels poloto_text" dominant-baseline="middle" text-anchor="end" x="135" y="361.47720040947166" >0.0005</text><line  class="poloto_axis_lines" stroke="black" x1="150" x2="144" y1="322.9544008189433" y2="322.9544008189433" /><text  class="poloto_tick_labels poloto_text" dominant-baseline="middle" text-anchor="end" x="135" y="322.9544008189433" >0.0010</text><line  class="poloto_axis_lines" stroke="black" x1="150" x2="144" y1="284.43160122841505" y2="284.43160122841505" /><text  class="poloto_tick_labels poloto_text" dominant-baseline="middle" text-anchor="end" x="135" y="284.43160122841505" >0.0015</text><line  class="poloto_axis_lines" stroke="black" x1="150" x2="144" y1="245.9088016378867" y2="245.9088016378867" /><text  class="poloto_tick_labels poloto_text" dominant-baseline="middle" text-anchor="end" x="135" y="245.9088016378867" >0.0020</text><line  class="poloto_axis_lines" stroke="black" x1="150" x2="144" y1="207.38600204735837" y2="207.38600204735837" /><text  class="poloto_tick_labels poloto_text" dominant-baseline="middle" text-anchor="end" x="135" y="207.38600204735837" >0.0025</text><line  class="poloto_axis_lines" stroke="black" x1="150" x2="144" y1="168.86320245683004" y2="168.86320245683004" /><text  class="poloto_tick_labels poloto_text" dominant-baseline="middle" text-anchor="end" x="135" y="168.86320245683004" >0.0030</text><line  class="poloto_axis_lines" stroke="black" x1="150" x2="144" y1="130.3404028663017" y2="130.3404028663017" /><text  class="poloto_tick_labels poloto_text" dominant-baseline="middle" text-anchor="end" x="135" y="130.3404028663017" >0.0035</text><text  class="poloto_tick_labels poloto_text" dominant-baseline="middle" text-anchor="start" x="440.00000000000006" y="70" ></text><line  class="poloto_axis_lines" stroke="black" x1="150" x2="150" y1="400" y2="405" /><text  class="poloto_tick_labels poloto_text" dominant-baseline="start" text-anchor="middle" x="150" y="430" >0</text><line  class="poloto_axis_lines" stroke="black" x1="234.17508417508418" x2="234.17508417508418" y1="400" y2="405" /><text  class="poloto_tick_labels poloto_text" dominant-baseline="start" text-anchor="middle" x="234.17508417508418" y="430" >5000</text><line  class="poloto_axis_lines" stroke="black" x1="318.35016835016836" x2="318.35016835016836" y1="400" y2="405" /><text  class="poloto_tick_labels poloto_text" dominant-baseline="start" text-anchor="middle" x="318.35016835016836" y="430" >10000</text><line  class="poloto_axis_lines" stroke="black" x1="402.52525252525254" x2="402.52525252525254" y1="400" y2="405" /><text  class="poloto_tick_labels poloto_text" dominant-baseline="start" text-anchor="middle" x="402.52525252525254" y="430" >15000</text><line  class="poloto_axis_lines" stroke="black" x1="486.7003367003367" x2="486.7003367003367" y1="400" y2="405" /><text  class="poloto_tick_labels poloto_text" dominant-baseline="start" text-anchor="middle" x="486.7003367003367" y="430" >20000</text><line  class="poloto_axis_lines" stroke="black" x1="570.8754208754208" x2="570.8754208754208" y1="400" y2="405" /><text  class="poloto_tick_labels poloto_text" dominant-baseline="start" text-anchor="middle" x="570.8754208754208" y="430" >25000</text><path  stroke="black" fill="none" class="poloto_axis_lines" style="stroke-dasharray:8.417508417508419;stroke-dashoffset:-0;" d=" M 150 400 L 650 400" /><path  stroke="black" fill="none" class="poloto_axis_lines" style="stroke-dasharray:3.852279959052832;stroke-dashoffset:-0;" d=" M 150 400 L 150 100" /></svg>