<svg class="poloto" width="800" height="500" viewBox="0 0 800 500" xmlns="http://www.w3.org/2000/svg"><style>.poloto {font-family: sans-serif;stroke-width:2;}.poloto_text{fill: var(--poloto_fg_color,black);}.poloto_axis_lines{stroke: var(--poloto_fg_color,black);stoke-width:3;fill:none}.poloto_background{fill: var(--poloto_bg_color,aliceblue);}.poloto0stroke{stroke:  var(--poloto_color0,blue);}.poloto1stroke{stroke:  var(--poloto_color1,red);}.poloto2stroke{stroke:  var(--poloto_color2,green);}.poloto3stroke{stroke:  var(--poloto_color3,gold);}.poloto4stroke{stroke:  var(--poloto_color4,aqua);}.poloto5stroke{stroke:  var(--poloto_color5,brown);}.poloto6stroke{stroke:  var(--poloto_color6,lime);}.poloto7stroke{stroke:  var(--poloto_color7,chocolate);}.poloto0fill{fill:var(--poloto_color0,blue);}.poloto1fill{fill:var(--poloto_color1,red);}.poloto2fill{fill:var(--poloto_color2,green);}.poloto3fill{fill:var(--poloto_color3,gold);}.poloto4fill{fill:var(--poloto_color4,aqua);}.poloto5fill{fill:var(--poloto_color5,brown);}.poloto6fill{fill:var(--poloto_color6,lime);}.poloto7fill{fill:var(--poloto_color7,chocolate);}</style><rect class="poloto_background" fill="white" x="0" y="0" width="800" height="500"/><line class="poloto_axis_lines" stroke="black" x1="150" x2="150" y1="400" y2="405"/><text class="poloto_text" alignment-baseline="start" text-anchor="middle" x="150" y="430">0</text><line class="poloto_axis_lines" stroke="black" x1="234.17508417508418" x2="234.17508417508418" y1="400" y2="405"/><text class="poloto_text" alignment-baseline="start" text-anchor="middle" x="234.17508417508418" y="430">5000</text><line class="poloto_axis_lines" stroke="black" x1="318.35016835016836" x2="318.35016835016836" y1="400" y2="405"/><text class="poloto_text" alignment-baseline="start" text-anchor="middle" x="318.35016835016836" y="430">10000</text><line class="poloto_axis_lines" stroke="black" x1="402.52525252525254" x2="402.52525252525254" y1="400" y2="405"/><text class="poloto_text" alignment-baseline="start" text-anchor="middle" x="402.52525252525254" y="430">15000</text><line class="poloto_axis_lines" stroke="black" x1="486.7003367003367" x2="486.7003367003367" y1="400" y2="405"/><text class="poloto_text" alignment-baseline="start" text-anchor="middle" x="486.7003367003367" y="430">20000</text><line class="poloto_axis_lines" stroke="black" x1="570.8754208754208" x2="570.8754208754208" y1="400" y2="405"/><text class="poloto_text" alignment-baseline="start" text-anchor="middle" x="570.8754208754208" y="430">25000</text><line class="poloto_axis_lines" stroke="black" x1="150" x2="144" y1="365.52565300395486" y2="365.52565300395486"/><text class="poloto_text" alignment-baseline="middle" text-anchor="end" x="135" y="365.52565300395486">0.001</text><line class="poloto_axis_lines" stroke="black" x1="150" x2="144" y1="331.0488581553954" y2="331.0488581553954"/><text class="poloto_text" alignment-baseline="middle" text-anchor="end" x="135" y="331.0488581553954">0.002</text><line class="poloto_axis_lines" stroke="black" x1="150" x2="144" y1="296.57206330683596" y2="296.57206330683596"/><text class="poloto_text" alignment-baseline="middle" text-anchor="end" x="135" y="296.57206330683596">0.003</text><line class="poloto_axis_lines" stroke="black" x1="150" x2="144" y1="262.09526845827656" y2="262.09526845827656"/><text class="poloto_text" alignment-baseline="middle" text-anchor="end" x="135" y="262.09526845827656">0.004</text><line class="poloto_axis_lines" stroke="black" x1="150" x2="144" y1="227.6184736097171" y2="227.6184736097171"/><text class="poloto_text" alignment-baseline="middle" text-anchor="end" x="135" y="227.6184736097171">0.005</text><line class="poloto_axis_lines" stroke="black" x1="150" x2="144" y1="193.14167876115766" y2="193.14167876115766"/><text class="poloto_text" alignment-baseline="middle" text-anchor="end" x="135" y="193.14167876115766">0.006</text><line class="poloto_axis_lines" stroke="black" x1="150" x2="144" y1="158.6648839125982" y2="158.6648839125982"/><text class="poloto_text" alignment-baseline="middle" text-anchor="end" x="135" y="158.6648839125982">0.007</text><line class="poloto_axis_lines" stroke="black" x1="150" x2="144" y1="124.18808906403876" y2="124.18808906403876"/><text class="poloto_text" alignment-baseline="middle" text-anchor="end" x="135" y="124.18808906403876">0.008</text><text class="poloto_text" alignment-baseline="middle" text-anchor="start" font-size="large" x="675" y="100">default_par</text><line class="poloto0stroke" stroke="black" x1="680" x2="730" y1="81.25" y2="81.25"/><polyline class="poloto0stroke" fill="none" stroke="black" points="650,273.61158642252997 644.9494949494949,273.24016536441655 639.8989898989898,274.2496166788954 634.8484848484848,278.30387780819905 629.7979797979798,284.92290288854315 624.7474747474747,279.4405771584076 619.6969696969697,283.45274336597475 614.6464646464647,279.3733167943287 609.5959595959596,279.24550685079544 604.5454545454545,281.80168966695106 599.4949494949494,275.0549589973801 594.4444444444445,290.63912675551273 589.3939393939394,286.6382629220502 584.3434343434344,292.65091723712897 579.2929292929293,290.91511178682885 574.2424242424242,289.3758215499213 569.1919191919192,293.37727137295025 564.1414141414141,300.7275552415148 559.090909090909,285.9520691396705 554.040404040404,295.98271744896414 548.989898989899,299.19723144770023 543.939393939394,298.50073067075346 538.8888888888889,306.8211162530432 533.8383838383838,300.83246342842824 528.7878787878788,297.7770656651346 523.7373737373737,302.22377925891124 518.6868686868687,305.6853480643376 513.6363636363636,301.32678977767574 508.5858585858586,306.44263121111436 503.5353535353535,308.96078089622733 498.4848484848485,303.26562857188907 493.4343434343434,303.55875179121193 488.3838383838384,314.6182211796965 483.3333333333333,307.85800472284154 478.2828282828283,314.7162660641529 473.2323232323232,301.03677310578075 468.1818181818182,315.13891705943684 463.1313131313131,316.60877154634045 458.0808080808081,310.13299281961713 453.030303030303,316.9489184215619 447.979797979798,321.6187977131257 442.9292929292929,321.96015670375186 437.8787878787879,325.67185475427897 432.8282828282828,324.0769597265879 427.77777777777777,327.3483227405295 422.72727272727275,324.9125086031379 417.67676767676767,330.3854585002094 412.62626262626264,326.5600865010342 407.57575757575756,331.9022643977226 402.52525252525254,331.9570423813095 397.47474747474746,330.10557222328606 392.4242424242424,334.79045043957615 387.37373737373736,335.2791256017713 382.32323232323233,337.40834277343754 377.27272727272725,337.10770604405644 372.22222222222223,338.0484079387771 367.1717171717172,339.70818726326365 362.1212121212121,338.8099655984876 357.07070707070704,341.0412332545238 352.020202020202,343.55100649973747 346.969696969697,346.7912719303825 341.9191919191919,344.57082902681805 336.86868686868684,348.91039081609443 331.8181818181818,346.8513318473223 326.7676767676768,356.1661698193646 321.7171717171717,358.1840248916315 316.66666666666663,358.5567222831843 311.6161616161616,361.6374299793984 306.5656565656566,356.02143441006456 301.5151515151515,355.98844239474477 296.4646464646464,353.9263130011892 291.4141414141414,359.5411727140346 286.3636363636364,354.6320892705209 281.3131313131313,356.75999799973044 276.26262626262627,362.3675769928933 271.2121212121212,363.32896512203706 266.16161616161617,363.62711741620126 261.1111111111111,365.0394967620612 256.06060606060606,364.1630971881968 251.010101010101,365.67604197637456 245.95959595959596,369.2936565924599 240.9090909090909,369.05500832787277 235.85858585858585,370.56998802502466 230.8080808080808,372.3070999109679 225.75757575757575,373.4305964346078 220.7070707070707,374.27613924280575 215.65656565656565,373.40522027683903 210.6060606060606,374.83597400787346 205.55555555555554,379.1804284086674 200.50505050505052,377.6053908013893 195.45454545454544,381.7485015953078 190.40404040404042,382.74691543507504 185.35353535353534,384.89861192910166 180.3030303030303,385.2558949855163 175.25252525252526,387.63017419798393 170.2020202020202,390.26396049543007 165.15151515151516,392.83030932749847 160.1010101010101,395.29936482679767 155.05050505050505,397.9462863462798 150,399.9999310464046 "/><text class="poloto_text" alignment-baseline="middle" text-anchor="start" font-size="large" x="675" y="150">default_seq</text><line class="poloto1stroke" stroke="black" x1="680" x2="730" y1="131.25" y2="131.25"/><polyline class="poloto1stroke" fill="none" stroke="black" points="650,123.463696532305 644.9494949494949,133.76878061282798 639.8989898989898,125.36268803599586 634.8484848484848,135.67424208351338 629.7979797979798,134.84273091589426 624.7474747474747,147.33423036885262 619.6969696969697,146.65640901274503 614.6464646464647,147.23889869636167 609.5959595959596,137.9981803772282 604.5454545454545,154.91383683927978 599.4949494949494,162.19482944841843 594.4444444444445,160.86336482626248 589.3939393939394,168.84592340983374 584.3434343434344,162.73024731261046 579.2929292929293,165.09374391569165 574.2424242424242,173.11531495533447 569.1919191919192,167.8730201843454 564.1414141414141,180.3835763390967 559.090909090909,183.9090019527636 554.040404040404,182.85690183599908 548.989898989899,185.7958080843728 543.939393939394,190.70702677753977 538.8888888888889,185.2760433661354 533.8383838383838,196.2537631964651 528.7878787878788,194.93364911193981 523.7373737373737,190.83649033546612 518.6868686868687,192.40856387908073 513.6363636363636,195.76143563354717 508.5858585858586,187.38130319723672 503.5353535353535,205.57714618074775 498.4848484848485,194.23217946455924 493.4343434343434,201.9748355250534 488.3838383838384,212.78417566843714 483.3333333333333,221.89374470623378 478.2828282828283,223.8816300244383 473.2323232323232,224.19899555185503 468.1818181818182,218.89232220109352 463.1313131313131,228.39585282717826 458.0808080808081,229.46352581735403 453.030303030303,231.72889726343547 447.979797979798,241.03667526528952 442.9292929292929,237.9274146254033 437.8787878787879,249.34472295766523 432.8282828282828,246.95403001689468 427.77777777777777,241.67538783827348 422.72727272727275,255.54478155246554 417.67676767676767,257.29730777354695 412.62626262626264,261.0749336639333 407.57575757575756,268.4197991358212 402.52525252525254,267.33239515448827 397.47474747474746,270.7451181172817 392.4242424242424,273.2039303383451 387.37373737373736,272.81410278603994 382.32323232323233,278.77245272553756 377.27272727272725,274.68474202741703 372.22222222222223,280.0430225963028 367.1717171717172,283.082462177977 362.1212121212121,279.82289120065457 357.07070707070704,284.6470944568224 352.020202020202,280.4551980246787 346.969696969697,292.1310000010592 341.9191919191919,291.0981492401918 336.86868686868684,299.3469959318416 331.8181818181818,303.0121198527129 326.7676767676768,305.73182586694134 321.7171717171717,307.5285100141235 316.66666666666663,301.6389456170286 311.6161616161616,313.0501130997237 306.5656565656566,314.67748639845706 301.5151515151515,314.5819460173534 296.4646464646464,320.0176655088158 291.4141414141414,320.79335514978436 286.3636363636364,334.52467206214783 281.3131313131313,337.21296341653346 276.26262626262627,337.936837130765 271.2121212121212,338.8165479470429 266.16161616161617,340.208032349867 261.1111111111111,343.73045577041233 256.06060606060606,346.13642056255657 251.010101010101,346.6680856853467 245.95959595959596,350.260257918815 240.9090909090909,353.2513975111512 235.85858585858585,354.82677828355213 230.8080808080808,357.328138966222 225.75757575757575,358.9373104657491 220.7070707070707,361.182991056945 215.65656565656565,366.23428935189736 210.6060606060606,369.9050684734481 205.55555555555554,372.8461099714752 200.50505050505052,375.42497580156993 195.45454545454544,377.8216992171602 190.40404040404042,379.52023211876605 185.35353535353534,382.36012017809514 180.3030303030303,385.7757710819076 175.25252525252526,388.02403745240645 170.2020202020202,390.4422739096164 165.15151515151516,393.05533935510505 160.1010101010101,395.357734003293 155.05050505050505,397.9258070645075 150,399.9997241856184 "/><text class="poloto_text" alignment-baseline="middle" text-anchor="start" font-size="large" x="675" y="200">direct_par</text><line class="poloto2stroke" stroke="black" x1="680" x2="730" y1="181.25" y2="181.25"/><polyline class="poloto2stroke" fill="none" stroke="black" points="650,294.3346579158077 644.9494949494949,292.41943530385004 639.8989898989898,298.1300722018019 634.8484848484848,299.9494092607195 629.7979797979798,298.0276765454956 624.7474747474747,299.8761846466691 619.6969696969697,300.4972773963862 614.6464646464647,301.1844745855579 609.5959595959596,305.41743042362884 604.5454545454545,300.4472194383487 599.4949494949494,305.130167099971 594.4444444444445,301.5323757884677 589.3939393939394,306.9836761805957 584.3434343434344,308.6590765420196 579.2929292929293,308.55875191733185 574.2424242424242,309.50358383440823 569.1919191919192,314.49806923679955 564.1414141414141,312.9042739429525 559.090909090909,311.0285293678179 554.040404040404,316.3619816390433 548.989898989899,320.80893605045003 543.939393939394,318.6342163875818 538.8888888888889,316.4755191243676 533.8383838383838,315.39301176817946 528.7878787878788,322.01035112511306 523.7373737373737,321.44507187479223 518.6868686868687,318.1195088395759 513.6363636363636,320.61742181650857 508.5858585858586,321.27148249978245 503.5353535353535,322.4028035895861 498.4848484848485,325.6358284368203 493.4343434343434,325.2808873318581 488.3838383838384,319.97273696629884 483.3333333333333,327.05731068909694 478.2828282828283,329.5138511971834 473.2323232323232,322.828729704639 468.1818181818182,330.464093483682 463.1313131313131,331.30440252205307 458.0808080808081,330.8256570734712 453.030303030303,335.3413568910089 447.979797979798,336.16455985039056 442.9292929292929,340.15673016740743 437.8787878787879,330.86937350058344 432.8282828282828,332.5661504403034 427.77777777777777,340.35128271711494 422.72727272727275,340.1195639798331 417.67676767676767,341.8729531307556 412.62626262626264,340.24675181115526 407.57575757575756,341.50684210138525 402.52525252525254,340.1903121859209 397.47474747474746,343.3033937988709 392.4242424242424,346.7902404282004 387.37373737373736,344.8238882197514 382.32323232323233,346.6636064774273 377.27272727272725,348.0017537888178 372.22222222222223,348.49418570604206 367.1717171717172,350.00747566615627 362.1212121212121,351.34300207900606 357.07070707070704,348.9087693107186 352.020202020202,352.32797026776103 346.969696969697,355.10866334680503 341.9191919191919,354.18695794946984 336.86868686868684,356.3280353894171 331.8181818181818,357.1314511668612 326.7676767676768,359.4821483129041 321.7171717171717,350.44784682538625 316.66666666666663,366.20725757292183 311.6161616161616,366.0433570938952 306.5656565656566,352.9639294925078 301.5151515151515,362.86083973094134 296.4646464646464,363.2093630460621 291.4141414141414,365.08066052229475 286.3636363636364,358.69418098642905 281.3131313131313,370.22880563399383 276.26262626262627,370.24325067817097 271.2121212121212,369.92399473235815 266.16161616161617,369.7454063847108 261.1111111111111,371.85700573992375 256.06060606060606,371.59691266537874 251.010101010101,372.7536440287821 245.95959595959596,373.5152358043236 240.9090909090909,373.87969121248716 235.85858585858585,376.19029021630956 230.8080808080808,377.71902662057926 225.75757575757575,376.98480778232255 220.7070707070707,370.0733137038839 215.65656565656565,377.6691051258655 210.6060606060606,378.3650881449076 205.55555555555554,381.0283846361054 200.50505050505052,384.69564782025714 195.45454545454544,384.3538443204221 190.40404040404042,385.83313986183134 185.35353535353534,387.2001792683896 180.3030303030303,388.78628445258306 175.25252525252526,389.58476748223785 170.2020202020202,392.0044518554487 165.15151515151516,394.3574242263923 160.1010101010101,396.16842146975847 155.05050505050505,398.22809966594707 150,400 "/><text class="poloto_text" alignment-baseline="middle" text-anchor="start" font-size="large" x="675" y="250">direct_seq</text><line class="poloto3stroke" stroke="black" x1="680" x2="730" y1="231.25" y2="231.25"/><polyline class="poloto3stroke" fill="none" stroke="black" points="650,170.11803451343144 644.9494949494949,190.23536136728197 639.8989898989898,193.19163859403818 634.8484848484848,193.80704002043123 629.7979797979798,196.9079523158083 624.7474747474747,199.3240274347884 619.6969696969697,201.58625219717024 614.6464646464647,196.04275878899654 609.5959595959596,206.61479723970797 604.5454545454545,206.30826850564443 599.4949494949494,211.50488819946332 594.4444444444445,217.6069661278419 589.3939393939394,214.53946326501006 584.3434343434344,217.0061421953225 579.2929292929293,218.36255552395386 574.2424242424242,220.7623513711411 569.1919191919192,223.72638292558563 564.1414141414141,224.52682861892552 559.090909090909,225.65284369361325 554.040404040404,223.66625879061112 548.989898989899,230.07860615357367 543.939393939394,231.44285408243667 538.8888888888889,233.7518295740697 533.8383838383838,233.95816211951487 528.7878787878788,238.73990120024678 523.7373737373737,238.7996079179958 518.6868686868687,240.3638147523614 513.6363636363636,243.30389297986815 508.5858585858586,239.84510963169635 503.5353535353535,247.782844027057 498.4848484848485,248.14771484563246 493.4343434343434,247.04300410395172 488.3838383838384,248.47256177409008 483.3333333333333,255.94913040786403 478.2828282828283,257.2102923365478 473.2323232323232,259.986421921502 468.1818181818182,262.34850572782005 463.1313131313131,263.5783934736119 458.0808080808081,261.61479862702726 453.030303030303,267.24627074272036 447.979797979798,274.0567137299539 442.9292929292929,280.62878739968846 437.8787878787879,277.90846328687616 432.8282828282828,277.9163942141598 427.77777777777777,276.4359276970244 422.72727272727275,282.3160119067488 417.67676767676767,287.82199395541176 412.62626262626264,291.03777626033286 407.57575757575756,291.96355147561627 402.52525252525254,296.1468587456208 397.47474747474746,296.7329285846712 392.4242424242424,299.64384379717626 387.37373737373736,299.2592901509696 382.32323232323233,302.10137968480035 377.27272727272725,305.5095833034028 372.22222222222223,306.2563186379825 367.1717171717172,307.2770081085313 362.1212121212121,309.32850941734637 357.07070707070704,309.74357465728303 352.020202020202,312.4107021556125 346.969696969697,316.16074640010135 341.9191919191919,317.8673486991282 336.86868686868684,318.8387267462927 331.8181818181818,322.14019196399323 326.7676767676768,324.23172519018044 321.7171717171717,325.7250192597444 316.66666666666663,325.75701589552654 311.6161616161616,328.1113694559193 306.5656565656566,331.72463731378195 301.5151515151515,334.09901887374235 296.4646464646464,335.42024071936595 291.4141414141414,338.2090332980347 286.3636363636364,347.26174529337146 281.3131313131313,350.964344451109 276.26262626262627,351.59451201185266 271.2121212121212,352.7441392551689 266.16161616161617,355.1218681801873 261.1111111111111,355.9378305561581 256.06060606060606,357.5065567347147 251.010101010101,358.8708046635777 245.95959595959596,360.5868510273305 240.9090909090909,362.77188972564727 235.85858585858585,363.8867990939616 230.8080808080808,366.426048417096 225.75757575757575,367.61463593933064 220.7070707070707,369.80663627397007 215.65656565656565,372.94106034938517 210.6060606060606,375.2525905147105 205.55555555555554,378.1796364948032 200.50505050505052,380.309130606744 195.45454545454544,381.7494668726417 190.40404040404042,384.2882696797537 185.35353535353534,385.76194614312794 180.3030303030303,388.9132284560548 175.25252525252526,390.0901282959766 170.2020202020202,392.45313322972976 165.15151515151516,393.97018094827985 160.1010101010101,396.17890230455225 155.05050505050505,398.2542675116747 150,399.9999310464046 "/><text class="poloto_text" alignment-baseline="middle" text-anchor="start" font-size="large" x="675" y="300">indirect_par</text><line class="poloto4stroke" stroke="black" x1="680" x2="730" y1="281.25" y2="281.25"/><polyline class="poloto4stroke" fill="none" stroke="black" points="650,272.0632334154774 644.9494949494949,273.0565098124698 639.8989898989898,270.6186567524769 634.8484848484848,278.06350970437046 629.7979797979798,278.53918071454177 624.7474747474747,273.4970856666854 619.6969696969697,278.93059766320545 614.6464646464647,280.1953076383056 609.5959595959596,284.94704084233064 604.5454545454545,283.25723155937413 599.4949494949494,279.89098639918444 594.4444444444445,289.50428972831 589.3939393939394,284.4213680649022 584.3434343434344,291.10549417790895 579.2929292929293,295.74938121993364 574.2424242424242,279.79786222163585 569.1919191919192,291.00471199972407 564.1414141414141,295.5232454380423 559.090909090909,290.70283907317526 554.040404040404,295.8076430319023 548.989898989899,287.40151031879844 543.939393939394,303.76792598469194 538.8888888888889,296.1506556369216 533.8383838383838,296.00699186607534 528.7878787878788,298.1406521230164 523.7373737373737,299.01502080153386 518.6868686868687,304.7015197456983 513.6363636363636,304.98857436074337 508.5858585858586,300.2111940791158 503.5353535353535,305.97298866894914 498.4848484848485,308.03121681689754 493.4343434343434,309.0441118234864 488.3838383838384,306.08110775759684 483.3333333333333,311.36364315457087 478.2828282828283,301.7085178303562 473.2323232323232,314.52134024711876 468.1818181818182,309.8211821522007 463.1313131313131,314.70513226238927 458.0808080808081,310.2036727940431 453.030303030303,312.82421813546244 447.979797979798,322.82628139206656 442.9292929292929,320.24320727388636 437.8787878787879,324.04686555008334 432.8282828282828,322.9876292042144 427.77777777777777,326.0682726823938 422.72727272727275,325.90826542172005 417.67676767676767,326.40886908385806 412.62626262626264,322.8026973188283 407.57575757575756,318.6127675639967 402.52525252525254,330.2018671662973 397.47474747474746,331.75511679849467 392.4242424242424,328.9961815923276 387.37373737373736,330.3295005102351 382.32323232323233,332.3178112729194 377.27272727272725,334.6289300414601 372.22222222222223,335.29026341716207 367.1717171717172,335.3922777788875 362.1212121212121,338.38914080356506 357.07070707070704,336.5178072046879 352.020202020202,341.761799739969 346.969696969697,341.7469051695491 341.9191919191919,346.0214060624345 336.86868686868684,345.62140797888594 331.8181818181818,345.67787971313766 326.7676767676768,356.3573750040141 321.7171717171717,357.5433456413353 316.66666666666663,354.99857758084505 311.6161616161616,358.66187530135494 306.5656565656566,355.8366028653576 301.5151515151515,354.4788409579978 296.4646464646464,354.04249948044435 291.4141414141414,356.4381893870389 286.3636363636364,353.800128576659 281.3131313131313,356.66477068154586 276.26262626262627,356.114626819275 271.2121212121212,363.6672175652353 266.16161616161617,363.9741637165243 261.1111111111111,364.3952614380943 256.06060606060606,364.7587836779413 251.010101010101,367.9366151311768 245.95959595959596,367.3999831447665 240.9090909090909,369.60484314085176 235.85858585858585,370.8368039250758 230.8080808080808,372.6515935444122 225.75757575757575,372.5905683501385 220.7070707070707,373.6530737953357 215.65656565656565,370.51272159259366 210.6060606060606,372.06048861007974 205.55555555555554,375.7711912810692 200.50505050505052,381.80121657453043 195.45454545454544,379.70244276493236 190.40404040404042,381.56901620198846 185.35353535353534,385.00004331148097 180.3030303030303,386.46123839776993 175.25252525252526,387.4482746079231 170.2020202020202,390.3735616159095 165.15151515151516,393.0914364127426 160.1010101010101,395.2181721594123 155.05050505050505,398.0296511385181 150,399.9998620928092 "/><text class="poloto_text" alignment-baseline="middle" text-anchor="start" font-size="large" x="675" y="350">indirect_seq</text><line class="poloto5stroke" stroke="black" x1="680" x2="730" y1="331.25" y2="331.25"/><polyline class="poloto5stroke" fill="none" stroke="black" points="650,139.2790572425605 644.9494949494949,143.01041403895573 639.8989898989898,148.0565869320147 634.8484848484848,149.9361524802131 629.7979797979798,154.24595322403982 624.7474747474747,155.3695280134095 619.6969696969697,157.65756842573498 614.6464646464647,156.0862654985366 609.5959595959596,161.1649327171465 604.5454545454545,166.73841594751843 599.4949494949494,174.17475198256182 594.4444444444445,164.42847718536513 589.3939393939394,172.48987946102176 584.3434343434344,180.0245011981516 579.2929292929293,180.10845022399448 574.2424242424242,175.57420744894125 569.1919191919192,177.02036548104587 564.1414141414141,187.52492683181129 559.090909090909,195.16515512698177 554.040404040404,190.40083518815834 548.989898989899,196.13754460819263 543.939393939394,100 538.8888888888889,194.2779348142728 533.8383838383838,199.52478906572458 528.7878787878788,196.94201998320906 523.7373737373737,207.89477505255465 518.6868686868687,210.45972363044487 513.6363636363636,207.41220863090896 508.5858585858586,206.2488989325775 503.5353535353535,205.96184431753244 498.4848484848485,214.6661333384276 493.4343434343434,214.0586146757922 488.3838383838384,207.81769735642314 483.3333333333333,220.53058848396043 478.2828282828283,213.73246733213222 473.2323232323232,219.95500223907248 468.1818181818182,237.28053030750556 463.1313131313131,235.10369947674704 458.0808080808081,231.83981786384635 453.030303030303,239.75953910047764 447.979797979798,243.10982607904796 442.9292929292929,241.35975619779327 437.8787878787879,246.4845961833422 432.8282828282828,254.65513700894718 427.77777777777777,243.66752760127594 422.72727272727275,251.0208778809967 417.67676767676767,256.10713888220823 412.62626262626264,255.29474863441675 407.57575757575756,263.68692195223076 402.52525252525254,262.95464370270975 397.47474747474746,271.24199713340795 392.4242424242424,271.6168297746141 387.37373737373736,277.872950713695 382.32323232323233,274.0761637672093 377.27272727272725,283.72424918937156 372.22222222222223,278.75014498573864 367.1717171717172,287.11125282927344 362.1212121212121,286.18089405176437 357.07070707070704,287.3560038139693 352.020202020202,288.74920604922124 346.969696969697,289.1964445245354 341.9191919191919,295.348997828177 336.86868686868684,297.78237168025055 331.8181818181818,302.26646017021426 326.7676767676768,304.67287047497416 321.7171717171717,309.03394129224307 316.66666666666663,308.4580740934534 311.6161616161616,311.27900378485515 306.5656565656566,316.8351481458619 301.5151515151515,313.52226817249596 296.4646464646464,319.88144300273876 291.4141414141414,320.7488440244929 286.3636363636364,337.7327000393807 281.3131313131313,338.80606836650765 276.26262626262627,337.1655223434094 271.2121212121212,337.1502866146802 266.16161616161617,343.5189416322935 261.1111111111111,346.70118606859995 256.06060606060606,349.1676201676552 251.010101010101,349.553518378963 245.95959595959596,351.51903976658826 240.9090909090909,353.00437079985113 235.85858585858585,357.4037837974546 230.8080808080808,356.4071961580487 225.75757575757575,360.16226947737886 220.7070707070707,363.0580814108513 215.65656565656565,365.1444089626018 210.6060606060606,370.7473361618771 205.55555555555554,374.5024797196827 200.50505050505052,376.35567573738825 195.45454545454544,378.62507686514624 190.40404040404042,381.2150423811737 185.35353535353534,382.9900449143951 180.3030303030303,386.11874555746886 175.25252525252526,387.6511704851058 170.2020202020202,390.4008673249392 165.15151515151516,393.27740431564143 160.1010101010101,395.36487073410086 155.05050505050505,397.92508310650715 150,399.9997931392138 "/><text class="poloto_text" alignment-baseline="start" text-anchor="middle" font-size="x-large" x="400" y="37.5">Bench of query:128_bytes with abspiral(num,0.6)</text><text class="poloto_text" alignment-baseline="start" text-anchor="middle" font-size="x-large" x="400" y="481.25">Number of Elements</text><text class="poloto_text" alignment-baseline="start" text-anchor="middle" font-size="x-large" transform="rotate(-90,37.5,250)" x="37.5" y="250">Time in Seconds</text><path stroke="black" fill="none" class="poloto_axis_lines" d=" M 150 100 L 150 400 L 650 400"/></svg>