<svg class="poloto" width="800" height="500" viewBox="0 0 800 500" xmlns="http://www.w3.org/2000/svg"><style>.poloto {font-family: sans-serif;stroke-width:2;}.poloto_text{fill: var(--poloto_fg_color,black);}.poloto_axis_lines{stroke: var(--poloto_fg_color,black);stoke-width:3;fill:none}.poloto_background{fill: var(--poloto_bg_color,aliceblue);}.poloto0stroke{stroke:  var(--poloto_color0,blue);}.poloto1stroke{stroke:  var(--poloto_color1,red);}.poloto2stroke{stroke:  var(--poloto_color2,green);}.poloto3stroke{stroke:  var(--poloto_color3,gold);}.poloto4stroke{stroke:  var(--poloto_color4,aqua);}.poloto5stroke{stroke:  var(--poloto_color5,brown);}.poloto6stroke{stroke:  var(--poloto_color6,lime);}.poloto7stroke{stroke:  var(--poloto_color7,chocolate);}.poloto0fill{fill:var(--poloto_color0,blue);}.poloto1fill{fill:var(--poloto_color1,red);}.poloto2fill{fill:var(--poloto_color2,green);}.poloto3fill{fill:var(--poloto_color3,gold);}.poloto4fill{fill:var(--poloto_color4,aqua);}.poloto5fill{fill:var(--poloto_color5,brown);}.poloto6fill{fill:var(--poloto_color6,lime);}.poloto7fill{fill:var(--poloto_color7,chocolate);}</style><rect class="poloto_background" fill="white" x="0" y="0" width="800" height="500"/><line class="poloto_axis_lines" stroke="black" x1="150" x2="150" y1="400" y2="405"/><text class="poloto_text" alignment-baseline="start" text-anchor="middle" x="150" y="430">0</text><line class="poloto_axis_lines" stroke="black" x1="234.17508417508418" x2="234.17508417508418" y1="400" y2="405"/><text class="poloto_text" alignment-baseline="start" text-anchor="middle" x="234.17508417508418" y="430">5000</text><line class="poloto_axis_lines" stroke="black" x1="318.35016835016836" x2="318.35016835016836" y1="400" y2="405"/><text class="poloto_text" alignment-baseline="start" text-anchor="middle" x="318.35016835016836" y="430">10000</text><line class="poloto_axis_lines" stroke="black" x1="402.52525252525254" x2="402.52525252525254" y1="400" y2="405"/><text class="poloto_text" alignment-baseline="start" text-anchor="middle" x="402.52525252525254" y="430">15000</text><line class="poloto_axis_lines" stroke="black" x1="486.7003367003367" x2="486.7003367003367" y1="400" y2="405"/><text class="poloto_text" alignment-baseline="start" text-anchor="middle" x="486.7003367003367" y="430">20000</text><line class="poloto_axis_lines" stroke="black" x1="570.8754208754208" x2="570.8754208754208" y1="400" y2="405"/><text class="poloto_text" alignment-baseline="start" text-anchor="middle" x="570.8754208754208" y="430">25000</text><line class="poloto_axis_lines" stroke="black" x1="150" x2="144" y1="344.678262908986" y2="344.678262908986"/><text class="poloto_text" alignment-baseline="middle" text-anchor="end" x="135" y="344.678262908986">0.002</text><line class="poloto_axis_lines" stroke="black" x1="150" x2="144" y1="289.3544511749586" y2="289.3544511749586"/><text class="poloto_text" alignment-baseline="middle" text-anchor="end" x="135" y="289.3544511749586">0.004</text><line class="poloto_axis_lines" stroke="black" x1="150" x2="144" y1="234.03063944093128" y2="234.03063944093128"/><text class="poloto_text" alignment-baseline="middle" text-anchor="end" x="135" y="234.03063944093128">0.006</text><line class="poloto_axis_lines" stroke="black" x1="150" x2="144" y1="178.70682770690394" y2="178.70682770690394"/><text class="poloto_text" alignment-baseline="middle" text-anchor="end" x="135" y="178.70682770690394">0.008</text><line class="poloto_axis_lines" stroke="black" x1="150" x2="144" y1="123.38301597287654" y2="123.38301597287654"/><text class="poloto_text" alignment-baseline="middle" text-anchor="end" x="135" y="123.38301597287654">0.010</text><text class="poloto_text" alignment-baseline="middle" text-anchor="start" font-size="large" x="675" y="100">default_par</text><line class="poloto0stroke" stroke="black" x1="680" x2="730" y1="81.25" y2="81.25"/><polyline class="poloto0stroke" fill="none" stroke="black" points="650,361.0471132320573 644.9494949494949,366.28876872207843 639.8989898989898,362.2097980383419 634.8484848484848,364.4703017588707 629.7979797979798,367.4019096794308 624.7474747474747,366.0887159091295 619.6969696969697,369.2171950162008 614.6464646464647,365.5074829951561 609.5959595959596,365.2900890300136 604.5454545454545,247.14912785510484 599.4949494949494,223.19383801610917 594.4444444444445,350.04826927992764 589.3939393939394,365.9540313502902 584.3434343434344,366.2075245384767 579.2929292929293,366.0343319948775 574.2424242424242,370.16884588994867 569.1919191919192,365.7646279691528 564.1414141414141,360.2734080199473 559.090909090909,371.4584737267766 554.040404040404,371.42098978777295 548.989898989899,371.20412072658723 543.939393939394,363.4249023943775 538.8888888888889,369.55071512605224 533.8383838383838,373.5472517365426 528.7878787878788,373.6882995482574 523.7373737373737,372.0174642381127 518.6868686868687,373.0475946939473 513.6363636363636,374.0474063108025 508.5858585858586,374.13636626054273 503.5353535353535,374.31968172186174 498.4848484848485,375.0567611968362 493.4343434343434,375.17579041465603 488.3838383838384,375.81773990319516 483.3333333333333,375.6750046701712 478.2828282828283,378.0860447270088 473.2323232323232,374.68764100574026 468.1818181818182,376.76958721339315 463.1313131313131,377.51847702739644 458.0808080808081,375.7235792179316 453.030303030303,378.3039925785353 447.979797979798,378.6514532358049 442.9292929292929,376.76906069930146 437.8787878787879,375.6140111524136 432.8282828282828,373.81977671850154 427.77777777777777,376.33653983886666 422.72727272727275,377.70074107066694 417.67676767676767,380.3984962277814 412.62626262626264,378.931806693341 407.57575757575756,379.5482258839058 402.52525252525254,382.33402804430796 397.47474747474746,381.24813217853125 392.4242424242424,380.67196313861996 387.37373737373736,380.916880748665 382.32323232323233,383.73460544234405 377.27272727272725,382.7227886601447 372.22222222222223,383.9227899514099 367.1717171717172,382.6515868875209 362.1212121212121,382.2388980578726 357.07070707070704,384.77884228948494 352.020202020202,383.5938345738212 346.969696969697,383.5589799850062 341.9191919191919,385.6239972349836 336.86868686868684,385.2245034603239 331.8181818181818,386.1279130842226 326.7676767676768,384.7932546064103 321.7171717171717,383.73623811906873 316.66666666666663,384.6138952463856 311.6161616161616,383.92295579529815 306.5656565656566,385.09084133710604 301.5151515151515,382.5986424338131 296.4646464646464,388.9484321669112 291.4141414141414,387.72240143587214 286.3636363636364,389.54631709536807 281.3131313131313,388.0672625304475 276.26262626262627,387.7503678678547 271.2121212121212,388.1417280463857 266.16161616161617,388.7105403802271 261.1111111111111,389.3485063951796 256.06060606060606,389.74728043956725 251.010101010101,391.03261887718963 245.95959595959596,389.73217737479683 240.9090909090909,391.8181336232611 235.85858585858585,391.73193908010325 230.8080808080808,391.6752880960008 225.75757575757575,392.09746384010833 220.7070707070707,393.2465671590435 215.65656565656565,392.3544429702168 210.6060606060606,392.8853028158169 205.55555555555554,393.1039148479636 200.50505050505052,394.7812494673776 195.45454545454544,395.024729629547 190.40404040404042,394.7154142741653 185.35353535353534,394.628279009729 180.3030303030303,397.09834902489064 175.25252525252526,397.7281830538493 170.2020202020202,398.15730210190736 165.15151515151516,398.8128339834968 160.1010101010101,399.2262964829343 155.05050505050505,399.6412250856159 150,399.9998616905575 "/><text class="poloto_text" alignment-baseline="middle" text-anchor="start" font-size="large" x="675" y="150">default_seq</text><line class="poloto1stroke" stroke="black" x1="680" x2="730" y1="131.25" y2="131.25"/><polyline class="poloto1stroke" fill="none" stroke="black" points="650,328.11779806457065 644.9494949494949,330.33224226795426 639.8989898989898,328.97346236014994 634.8484848484848,332.6198574388672 629.7979797979798,331.0705985798544 624.7474747474747,331.1120048073208 619.6969696969697,333.27344981241214 614.6464646464647,333.77156112556395 609.5959595959596,334.53981442111615 604.5454545454545,317.94590648360816 599.4949494949494,319.13315550696495 594.4444444444445,331.1329172385828 589.3939393939394,335.5826407901399 584.3434343434344,336.76836984621065 579.2929292929293,339.8122846716464 574.2424242424242,339.4249055514997 569.1919191919192,340.8962982897988 564.1414141414141,339.3791519599736 559.090909090909,341.440575388995 554.040404040404,343.03492446398116 548.989898989899,343.0964187336731 543.939393939394,344.70227061193424 538.8888888888889,345.5092830732809 533.8383838383838,345.23680961563673 528.7878787878788,346.2509240602484 523.7373737373737,346.24633195569345 518.6868686868687,347.8553429185047 513.6363636363636,347.2741679693854 508.5858585858586,347.80181881625555 503.5353535353535,350.0613789977699 498.4848484848485,349.4877555810358 493.4343434343434,351.5044462440177 488.3838383838384,352.15851199720464 483.3333333333333,351.1655064203051 478.2828282828283,353.9643909262573 473.2323232323232,353.7130295565949 468.1818181818182,354.2405966764535 463.1313131313131,355.55213200787273 458.0808080808081,354.4421694566884 453.030303030303,356.9663456378428 447.979797979798,357.9017341497377 442.9292929292929,358.42935601418077 437.8787878787879,359.9092116211827 432.8282828282828,358.58824734015843 427.77777777777777,360.73580654241607 422.72727272727275,363.8788058454467 417.67676767676767,364.74584091324436 412.62626262626264,365.48361113606387 407.57575757575756,366.33391046236653 402.52525252525254,366.2691282973376 397.47474747474746,367.35267175611756 392.4242424242424,367.6344646741979 387.37373737373736,369.03315982460964 382.32323232323233,368.7691814383651 377.27272727272725,370.3343194471397 372.22222222222223,369.53232094567517 367.1717171717172,371.7978837098616 362.1212121212121,370.99093243363865 357.07070707070704,371.92413438242505 352.020202020202,373.7482432581014 346.969696969697,374.32136914317084 341.9191919191919,373.27312145015117 336.86868686868684,375.1217945428997 331.8181818181818,376.71019738993306 326.7676767676768,376.7826985413702 321.7171717171717,377.90969953939884 316.66666666666663,378.1175518454978 311.6161616161616,378.6717860185256 306.5656565656566,376.65785995705875 301.5151515151515,379.9806082727446 296.4646464646464,380.65113282423465 291.4141414141414,381.9760548166881 286.3636363636364,383.46794457146115 281.3131313131313,384.2256047899212 276.26262626262627,384.68606471004637 271.2121212121212,384.8662259172198 266.16161616161617,385.47520306456835 261.1111111111111,387.2564646420992 256.06060606060606,387.67133761965385 251.010101010101,388.0326848848245 245.95959595959596,388.3090001241896 240.9090909090909,388.8801906271851 235.85858585858585,389.53682857077405 230.8080808080808,390.40585537536504 225.75757575757575,391.29360885317686 220.7070707070707,391.3766217698969 215.65656565656565,392.83990908942684 210.6060606060606,393.3876149707583 205.55555555555554,393.7609400289809 200.50505050505052,394.44247427995214 195.45454545454544,394.94608661877436 190.40404040404042,395.3317215603589 185.35353535353534,396.1473880939204 180.3030303030303,396.9566370325556 175.25252525252526,397.531119657492 170.2020202020202,398.039019785385 165.15151515151516,398.703597102588 160.1010101010101,399.16328264849 155.05050505050505,399.6029963334583 150,400 "/><text class="poloto_text" alignment-baseline="middle" text-anchor="start" font-size="large" x="675" y="200">direct_par</text><line class="poloto2stroke" stroke="black" x1="680" x2="730" y1="181.25" y2="181.25"/><polyline class="poloto2stroke" fill="none" stroke="black" points="650,354.9273868100662 644.9494949494949,363.0333755668909 639.8989898989898,363.13503303995515 634.8484848484848,361.72801027216684 629.7979797979798,363.98959278303636 624.7474747474747,362.9437232591708 619.6969696969697,361.4028725242764 614.6464646464647,365.2612643961629 609.5959595959596,364.0906706075593 604.5454545454545,366.6898661910357 599.4949494949494,355.5466543291575 594.4444444444445,261.70778671550056 589.3939393939394,363.75283533634484 584.3434343434344,364.03279914125045 579.2929292929293,364.4833309699711 574.2424242424242,363.86209908637875 569.1919191919192,366.0847871801275 564.1414141414141,366.3565392973647 559.090909090909,368.989869739384 554.040404040404,369.6254833473398 548.989898989899,368.79607069014173 543.939393939394,368.05699947837405 538.8888888888889,367.1480848034679 533.8383838383838,370.6776871416538 528.7878787878788,370.3512226426578 523.7373737373737,369.7357163985455 518.6868686868687,368.41026950213524 513.6363636363636,371.2459455891112 508.5858585858586,372.79725253963664 503.5353535353535,370.9209463128168 498.4848484848485,371.14442658764295 493.4343434343434,371.52156847049645 488.3838383838384,373.47309053608853 483.3333333333333,371.4616263707873 478.2828282828283,373.8350456271601 473.2323232323232,368.3715135566104 468.1818181818182,364.3068762931922 463.1313131313131,375.8279755303535 458.0808080808081,374.2815086451479 453.030303030303,373.49668545198887 447.979797979798,374.8722011012882 442.9292929292929,373.67015332864526 437.8787878787879,373.372482870938 432.8282828282828,376.69974117430206 427.77777777777777,375.8213095721286 422.72727272727275,376.75777526422945 417.67676767676767,377.53905777088204 412.62626262626264,379.30845104452993 407.57575757575756,377.7117785449741 402.52525252525254,380.15404877710876 397.47474747474746,378.10562879703036 392.4242424242424,378.82176846845056 387.37373737373736,379.6340331896353 382.32323232323233,381.53811263225737 377.27272727272725,378.36609386906076 372.22222222222223,382.0454596788338 367.1717171717172,379.5977117679839 362.1212121212121,382.1266748800084 357.07070707070704,382.95954610683617 352.020202020202,379.5261509352915 346.969696969697,382.69305268997635 341.9191919191919,384.75272912269963 336.86868686868684,384.4665405365145 331.8181818181818,384.71997736998173 326.7676767676768,386.74220206639814 321.7171717171717,382.2218869833205 316.66666666666663,386.1695721028584 311.6161616161616,386.5731322730488 306.5656565656566,383.955984491208 301.5151515151515,384.8228521049827 296.4646464646464,384.681279389311 291.4141414141414,385.6743960655143 286.3636363636364,387.1520683296773 281.3131313131313,386.6877634075616 276.26262626262627,387.7303683830453 271.2121212121212,386.82538082700637 266.16161616161617,386.89060819431774 261.1111111111111,388.8563179630254 256.06060606060606,388.69787103426273 251.010101010101,389.2775260160959 245.95959595959596,388.0038610560412 240.9090909090909,391.1003347078914 235.85858585858585,390.3226484373971 230.8080808080808,390.51464977109396 225.75757575757575,391.30486691595667 220.7070707070707,392.0905209386915 215.65656565656565,392.9053852225705 210.6060606060606,392.2007258125376 205.55555555555554,392.3274724066308 200.50505050505052,393.819334386578 195.45454545454544,394.1811244388288 190.40404040404042,395.1947948887592 185.35353535353534,395.66189379735073 180.3030303030303,397.0116565475345 175.25252525252526,397.69108836494246 170.2020202020202,397.94613110664267 165.15151515151516,398.744592041237 160.1010101010101,399.2185235066923 155.05050505050505,399.6242130047294 150,399.99917014295187 "/><text class="poloto_text" alignment-baseline="middle" text-anchor="start" font-size="large" x="675" y="250">direct_seq</text><line class="poloto3stroke" stroke="black" x1="680" x2="730" y1="231.25" y2="231.25"/><polyline class="poloto3stroke" fill="none" stroke="black" points="650,316.13867182102285 644.9494949494949,325.2751758559082 639.8989898989898,322.76895589845526 634.8484848484848,327.49842427658007 629.7979797979798,326.0024930833663 624.7474747474747,325.2590487453815 619.6969696969697,327.8871816721472 614.6464646464647,328.4235433484851 609.5959595959596,329.6663098210191 604.5454545454545,329.2367773708417 599.4949494949494,317.77011840265175 594.4444444444445,309.71740256704163 589.3939393939394,308.83582154112713 584.3434343434344,332.74461068603233 579.2929292929293,335.38397591342044 574.2424242424242,335.8200648326539 569.1919191919192,336.0934979306609 564.1414141414141,334.9027967782137 559.090909090909,337.557316594687 554.040404040404,338.1271755161723 548.989898989899,338.4922059647825 543.939393939394,340.2352091284531 538.8888888888889,339.8617415732975 533.8383838383838,340.83215051789557 528.7878787878788,342.24050325705923 523.7373737373737,342.2062846715048 518.6868686868687,343.72934985699055 513.6363636363636,343.2066485646091 508.5858585858586,344.6381550427278 503.5353535353535,346.2321981920949 498.4848484848485,345.8398115526054 493.4343434343434,348.02596246663455 488.3838383838384,348.6330316042013 483.3333333333333,347.805911779011 478.2828282828283,350.6550324918753 473.2323232323232,347.352974408844 468.1818181818182,350.82230295954434 463.1313131313131,351.7316620316655 458.0808080808081,350.79812839510276 453.030303030303,353.3317657285589 447.979797979798,354.17431708602624 442.9292929292929,355.65121648546756 437.8787878787879,355.9697687818749 432.8282828282828,356.73094392468397 427.77777777777777,358.2239124697978 422.72727272727275,361.26757933446873 417.67676767676767,361.92006715551554 412.62626262626264,363.1660152544873 407.57575757575756,363.74542227555565 402.52525252525254,364.0801854095012 397.47474747474746,365.3597982076435 392.4242424242424,364.8017737772096 387.37373737373736,366.7189098032242 382.32323232323233,367.3252865828111 377.27272727272725,367.4100698427843 372.22222222222223,368.17005348581404 367.1717171717172,369.2369449301105 362.1212121212121,369.713367727009 357.07070707070704,370.48828698078603 352.020202020202,371.51078056708906 346.969696969697,373.1272045906895 341.9191919191919,372.6889291083475 336.86868686868684,373.62747026425313 331.8181818181818,374.7153304945309 326.7676767676768,375.35113892880196 321.7171717171717,376.318309892243 316.66666666666663,376.8509956307482 311.6161616161616,377.54019291594204 306.5656565656566,378.40128014565215 301.5151515151515,379.0843621387354 296.4646464646464,380.2361221801514 291.4141414141414,380.34782045405876 286.3636363636364,382.5797764839288 281.3131313131313,383.5978180474077 276.26262626262627,383.95656413974933 271.2121212121212,384.79853745881024 266.16161616161617,385.3020958581154 261.1111111111111,386.2808839444049 256.06060606060606,386.8044410234521 251.010101010101,387.547494903739 245.95959595959596,387.6956796381185 240.9090909090909,388.3071460539249 235.85858585858585,388.61482994018303 230.8080808080808,389.7042664924661 225.75757575757575,390.8143385328193 220.7070707070707,390.9172961897644 215.65656565656565,392.37087439622763 210.6060606060606,393.01943509840714 205.55555555555554,393.60257561962857 200.50505050505052,394.0162872874321 195.45454545454544,394.63190302071325 190.40404040404042,395.51924148627086 185.35353535353534,395.86935806095397 180.3030303030303,396.7713022608842 175.25252525252526,397.46539495978294 170.2020202020202,397.998854770611 165.15151515151516,398.6189240362176 160.1010101010101,399.1437257494938 155.05050505050505,399.5659293690607 150,399.98190911304886 "/><text class="poloto_text" alignment-baseline="middle" text-anchor="start" font-size="large" x="675" y="300">indirect_par</text><line class="poloto4stroke" stroke="black" x1="680" x2="730" y1="281.25" y2="281.25"/><polyline class="poloto4stroke" fill="none" stroke="black" points="650,322.4490156658184 644.9494949494949,337.96134450904754 639.8989898989898,335.7100217773589 634.8484848484848,333.0490871836953 629.7979797979798,336.6389407674791 624.7474747474747,333.25644034799484 619.6969696969697,344.52806046311804 614.6464646464647,330.7181014208149 609.5959595959596,332.9206241858659 604.5454545454545,100 599.4949494949494,324.21669897626947 594.4444444444445,155.68753094035065 589.3939393939394,340.9085546361774 584.3434343434344,329.2040014661012 579.2929292929293,344.42601655769295 574.2424242424242,341.0592568163745 569.1919191919192,341.781672793389 564.1414141414141,346.8617287106368 559.090909090909,352.309932297539 554.040404040404,353.88633158936307 548.989898989899,350.18666036916153 543.939393939394,352.30589407936793 538.8888888888889,349.50341253219005 533.8383838383838,355.00777118166496 528.7878787878788,353.4089137291354 523.7373737373737,349.8837070590543 518.6868686868687,353.1099149101876 513.6363636363636,354.61917801985123 508.5858585858586,354.8297385727459 503.5353535353535,355.19570611983113 498.4848484848485,357.32581146045646 493.4343434343434,355.78742101159287 488.3838383838384,360.13407661196857 483.3333333333333,360.4793796885567 478.2828282828283,360.6633601355634 473.2323232323232,356.11455210641145 468.1818181818182,361.5352900132653 463.1313131313131,362.435796564053 458.0808080808081,363.00195217541346 453.030303030303,364.1952875084538 447.979797979798,365.6659589063459 442.9292929292929,360.391994450687 437.8787878787879,361.9887233049621 432.8282828282828,365.2282920549723 427.77777777777777,365.61478560095867 422.72727272727275,367.7136865284444 417.67676767676767,367.1300223108672 412.62626262626264,369.01819523143524 407.57575757575756,367.55067647755385 402.52525252525254,368.81482554072227 397.47474747474746,367.43828584566666 392.4242424242424,372.30240980020375 387.37373737373736,373.35818165331636 382.32323232323233,370.38206638559393 377.27272727272725,372.8660503809489 372.22222222222223,372.9093662283319 367.1717171717172,373.009919148898 362.1212121212121,376.4834243893654 357.07070707070704,376.3741880116237 352.020202020202,375.44992070104746 346.969696969697,373.1375513171516 341.9191919191919,375.384610411792 336.86868686868684,378.3427195416331 331.8181818181818,378.67706887092555 326.7676767676768,380.91809801060174 321.7171717171717,380.1545736810656 316.66666666666663,380.68670553318685 311.6161616161616,380.23374240086247 306.5656565656566,380.24563646690285 301.5151515151515,373.61139950844574 296.4646464646464,381.6459111595896 291.4141414141414,383.8363192701276 286.3636363636364,385.643276989521 281.3131313131313,383.0307205071677 276.26262626262627,385.94376840346257 271.2121212121212,381.56806919089837 266.16161616161617,384.0278222670924 261.1111111111111,383.2204265936545 256.06060606060606,386.42281733028005 251.010101010101,387.02039794325276 245.95959595959596,387.2685527293874 240.9090909090909,387.84372670596946 235.85858585858585,389.31899101348387 230.8080808080808,387.68041072945994 225.75757575757575,390.27470989289725 220.7070707070707,390.7366913904433 215.65656565656565,391.16506373847074 210.6060606060606,391.8758915750639 205.55555555555554,393.04289234777895 200.50505050505052,393.6590889372025 195.45454545454544,393.4187899989372 190.40404040404042,394.00378418788966 185.35353535353534,395.1061384494357 180.3030303030303,396.4784459050725 175.25252525252526,397.1597032128518 170.2020202020202,397.81894172546924 165.15151515151516,398.60680807347 160.1010101010101,399.18129054745634 155.05050505050505,399.61762946528154 150,399.99919780476176 "/><text class="poloto_text" alignment-baseline="middle" text-anchor="start" font-size="large" x="675" y="350">indirect_seq</text><line class="poloto5stroke" stroke="black" x1="680" x2="730" y1="331.25" y2="331.25"/><polyline class="poloto5stroke" fill="none" stroke="black" points="650,275.2011030813129 644.9494949494949,284.42399407046906 639.8989898989898,280.5943463256914 634.8484848484848,288.4967077702293 629.7979797979798,284.7988978658992 624.7474747474747,287.0393167644722 619.6969696969697,289.86417596561364 614.6464646464647,292.14415265686023 609.5959595959596,292.15939741349627 604.5454545454545,293.53120653240103 599.4949494949494,273.04792772874407 594.4444444444445,264.2295541349388 589.3939393939394,293.436517722911 584.3434343434344,297.89011203861605 579.2929292929293,303.91570675777075 574.2424242424242,304.4684467256699 569.1919191919192,304.8408837945299 564.1414141414141,302.5892068331771 559.090909090909,307.1536170688989 554.040404040404,309.6891028371478 548.989898989899,307.63106069128395 543.939393939394,310.3854668325008 538.8888888888889,312.80079145813954 533.8383838383838,312.4612977480431 528.7878787878788,314.28800860161584 523.7373737373737,314.48739481874225 518.6868686868687,317.8149831997479 513.6363636363636,314.0054428188138 508.5858585858586,318.68016661248316 503.5353535353535,321.2402488005009 498.4848484848485,318.69787165515 493.4343434343434,323.19987306459245 488.3838383838384,325.0366762433231 483.3333333333333,325.4129905168704 478.2828282828283,329.2222281924552 473.2323232323232,330.0975876573598 468.1818181818182,327.1638253763879 463.1313131313131,332.4933008406847 458.0808080808081,329.04560928192296 453.030303030303,332.9518285990056 447.979797979798,335.934055938569 442.9292929292929,334.80274299944705 437.8787878787879,338.5996148394842 432.8282828282828,337.6795515909672 427.77777777777777,338.7939130305259 422.72727272727275,342.99774967086614 417.67676767676767,345.33415192733804 412.62626262626264,346.47249793542767 407.57575757575756,348.0408980773819 402.52525252525254,348.62188303059037 397.47474747474746,348.9867717873349 392.4242424242424,349.6694109933379 387.37373737373736,351.4628983246856 382.32323232323233,352.7440858346984 377.27272727272725,353.94901091829496 372.22222222222223,353.9234806203207 367.1717171717172,356.60823554876174 362.1212121212121,357.4774281972409 357.07070707070704,357.43023514517057 352.020202020202,360.723385962284 346.969696969697,361.8709934659556 341.9191919191919,361.04285281527876 336.86868686868684,362.9974985424545 331.8181818181818,365.4038064130064 326.7676767676768,365.7034138629225 321.7171717171717,367.7718059555181 316.66666666666663,368.2636345225363 311.6161616161616,368.8890978404801 306.5656565656566,370.4784393961234 301.5151515151515,371.4596362441289 296.4646464646464,372.11452960662206 291.4141414141414,373.8736888632464 286.3636363636364,375.93317368992416 281.3131313131313,377.164211940306 276.26262626262627,378.07522945130916 271.2121212121212,379.15830275071676 266.16161616161617,380.157975895976 261.1111111111111,378.5257033151757 256.06060606060606,381.9315474695257 251.010101010101,383.4082504325169 245.95959595959596,383.55449897975507 240.9090909090909,384.6922878811911 235.85858585858585,385.03081551038537 230.8080808080808,386.89868543572715 225.75757575757575,388.24142196001634 220.7070707070707,388.2494436517739 215.65656565656565,390.1433438219569 210.6060606060606,391.31482559992304 205.55555555555554,391.9496107935052 200.50505050505052,392.3687715601306 195.45454545454544,393.26922215873276 190.40404040404042,394.41533787247795 185.35353535353534,395.1596090147015 180.3030303030303,396.204869505065 175.25252525252526,396.8595714627794 170.2020202020202,397.6779766344316 165.15151515151516,398.43522133747035 160.1010101010101,399.0605740592775 155.05050505050505,399.5585713044395 150,399.99914248094547 "/><text class="poloto_text" alignment-baseline="start" text-anchor="middle" font-size="x-large" x="400" y="37.5">Bench of rebal:16_bytes with abspiral(num,1.5)</text><text class="poloto_text" alignment-baseline="start" text-anchor="middle" font-size="x-large" x="400" y="481.25">Number of Elements</text><text class="poloto_text" alignment-baseline="start" text-anchor="middle" font-size="x-large" transform="rotate(-90,37.5,250)" x="37.5" y="250">Time in Seconds</text><path stroke="black" fill="none" class="poloto_axis_lines" d=" M 150 100 L 150 400 L 650 400"/></svg>