<svg class="poloto" width="800" height="500" viewBox="0 0 800 500" xmlns="http://www.w3.org/2000/svg" ><rect class="poloto_background" fill="white" x="0" y="0" width="800" height="500" /><style><style>.poloto {
            font-family: "Arial";
            stroke-width:2;
            }
            .poloto_text{fill: var(--poloto_fg_color,black);  }
            .poloto_axis_lines{stroke: var(--poloto_fg_color,black);stoke-width:3;fill:none}
            .poloto_background{fill: var(--poloto_bg_color,aliceblue); }
            .poloto0stroke{stroke:  var(--poloto_color0,blue); }
            .poloto1stroke{stroke:  var(--poloto_color1,red); }
            .poloto2stroke{stroke:  var(--poloto_color2,green); }
            .poloto3stroke{stroke:  var(--poloto_color3,gold); }
            .poloto4stroke{stroke:  var(--poloto_color4,aqua); }
            .poloto5stroke{stroke:  var(--poloto_color5,brown); }
            .poloto6stroke{stroke:  var(--poloto_color6,lime); }
            .poloto7stroke{stroke:  var(--poloto_color7,chocolate); }
            .poloto0fill{fill:var(--poloto_color0,blue);}
            .poloto1fill{fill:var(--poloto_color1,red);}
            .poloto2fill{fill:var(--poloto_color2,green);}
            .poloto3fill{fill:var(--poloto_color3,gold);}
            .poloto4fill{fill:var(--poloto_color4,aqua);}
            .poloto5fill{fill:var(--poloto_color5,brown);}
            .poloto6fill{fill:var(--poloto_color6,lime);}
            .poloto7fill{fill:var(--poloto_color7,chocolate);}</style></style><line class="poloto_axis_lines" stroke="black" x1="150" x2="150" y1="400" y2="405" /><text class="poloto_text" alignment-baseline="start" text-anchor="middle" x="150" y="430" >0</text><line class="poloto_axis_lines" stroke="black" x1="234.17508" x2="234.17508" y1="400" y2="405" /><text class="poloto_text" alignment-baseline="start" text-anchor="middle" x="234.17508" y="430" >5000</text><line class="poloto_axis_lines" stroke="black" x1="318.35016" x2="318.35016" y1="400" y2="405" /><text class="poloto_text" alignment-baseline="start" text-anchor="middle" x="318.35016" y="430" >10000</text><line class="poloto_axis_lines" stroke="black" x1="402.52527" x2="402.52527" y1="400" y2="405" /><text class="poloto_text" alignment-baseline="start" text-anchor="middle" x="402.52527" y="430" >15000</text><line class="poloto_axis_lines" stroke="black" x1="486.70035" x2="486.70035" y1="400" y2="405" /><text class="poloto_text" alignment-baseline="start" text-anchor="middle" x="486.70035" y="430" >20000</text><line class="poloto_axis_lines" stroke="black" x1="570.8754" x2="570.8754" y1="400" y2="405" /><text class="poloto_text" alignment-baseline="start" text-anchor="middle" x="570.8754" y="430" >25000</text><line class="poloto_axis_lines" stroke="black" x1="150" x2="144" y1="364.02164" y2="364.02164" /><text class="poloto_text" alignment-baseline="middle" text-anchor="end" x="135" y="364.02164" >0.0005</text><line class="poloto_axis_lines" stroke="black" x1="150" x2="144" y1="328.03192" y2="328.03192" /><text class="poloto_text" alignment-baseline="middle" text-anchor="end" x="135" y="328.03192" >0.0010</text><line class="poloto_axis_lines" stroke="black" x1="150" x2="144" y1="292.04218" y2="292.04218" /><text class="poloto_text" alignment-baseline="middle" text-anchor="end" x="135" y="292.04218" >0.0015</text><line class="poloto_axis_lines" stroke="black" x1="150" x2="144" y1="256.05246" y2="256.05246" /><text class="poloto_text" alignment-baseline="middle" text-anchor="end" x="135" y="256.05246" >0.0020</text><line class="poloto_axis_lines" stroke="black" x1="150" x2="144" y1="220.06274" y2="220.06274" /><text class="poloto_text" alignment-baseline="middle" text-anchor="end" x="135" y="220.06274" >0.0025</text><line class="poloto_axis_lines" stroke="black" x1="150" x2="144" y1="184.073" y2="184.073" /><text class="poloto_text" alignment-baseline="middle" text-anchor="end" x="135" y="184.073" >0.0030</text><line class="poloto_axis_lines" stroke="black" x1="150" x2="144" y1="148.08328" y2="148.08328" /><text class="poloto_text" alignment-baseline="middle" text-anchor="end" x="135" y="148.08328" >0.0035</text><line class="poloto_axis_lines" stroke="black" x1="150" x2="144" y1="112.09354" y2="112.09354" /><text class="poloto_text" alignment-baseline="middle" text-anchor="end" x="135" y="112.09354" >0.0040</text><text class="poloto_text" alignment-baseline="middle" text-anchor="start" font-size="large" x="675" y="100" >default_par</text><line class="poloto0stroke" stroke="black" x1="680" x2="730" y1="81.25" y2="81.25" /><polyline class="poloto0stroke" fill="none" stroke="black"  points="650,289.80292 644.94946,320.39908 639.899,319.62817 634.8485,314.35504 629.798,318.16742 624.7475,314.5912 619.697,321.5436 614.6465,319.89377 609.59595,324.5075 604.5455,322.47778 599.495,320.53052 594.44446,324.74597 589.3939,318.82935 584.34344,322.04425 579.29297,322.1944 574.24243,322.69882 569.1919,318.9921 564.1414,329.404 559.09094,334.43652 554.0404,327.68268 548.98987,324.04175 543.9394,326.10733 538.8889,324.77383 533.8384,332.9615 528.78784,329.5555 523.73737,338.1677 518.6869,328.67065 513.63635,332.50717 508.58588,332.7717 503.53537,338.21838 498.48486,336.54926 493.43436,339.59454 488.38385,336.21973 483.33334,344.79218 478.28284,343.85156 473.23233,341.07748 468.18182,341.5169 463.13132,330.82983 458.0808,347.45264 453.0303,344.98904 447.9798,344.23456 442.9293,341.67474 437.87878,347.3404 432.82828,348.9533 427.77777,341.8358 422.72726,349.16437 417.67676,338.36047 412.62628,350.73907 407.57578,355.5916 402.52527,351.889 397.47473,358.7484 392.42426,355.2333 387.37375,353.20184 382.32324,355.9854 377.27274,359.79034 372.22223,354.24734 367.17172,364.21744 362.12122,360.27872 357.0707,355.88184 352.0202,355.44168 346.9697,366.61053 341.9192,312.46378 336.86868,362.24475 331.81818,358.85892 326.7677,357.44202 321.71716,364.24255 316.6667,361.5685 311.61615,365.7768 306.56567,363.3588 301.51514,362.38785 296.46466,364.8181 291.41412,371.06628 286.36365,375.22382 281.31314,373.75882 276.26263,372.50696 271.21213,372.46722 266.16162,365.512 261.1111,373.89542 256.0606,374.0055 251.0101,377.3259 245.9596,375.0281 240.90909,378.60245 235.85858,377.21417 230.80807,378.3398 225.75757,374.19247 220.70706,379.62378 215.65657,371.32562 210.60606,371.29453 205.55556,376.5193 200.50505,377.84033 195.45454,377.5746 190.40404,375.7221 185.35353,380.4244 180.30302,389.77185 175.25253,391.49182 170.20203,392.9322 165.15152,395.3852 160.10101,396.72516 155.0505,398.54178 150,400 "/><text class="poloto_text" alignment-baseline="middle" text-anchor="start" font-size="large" x="675" y="150" >default_seq</text><line class="poloto1stroke" stroke="black" x1="680" x2="730" y1="131.25" y2="131.25" /><polyline class="poloto1stroke" fill="none" stroke="black"  points="650,180.09744 644.94946,181.64845 639.899,183.43262 634.8485,183.59601 629.798,186.06699 624.7475,189.39145 619.697,193.89656 614.6465,195.89082 609.59595,195.95374 604.5455,198.12355 599.495,202.82834 594.44446,201.23285 589.3939,208.1302 584.34344,207.57993 579.29297,211.1894 574.24243,211.4193 569.1919,210.20422 564.1414,213.81198 559.09094,218.9467 554.0404,213.23895 548.98987,223.7023 543.9394,224.63698 538.8889,227.37456 533.8384,229.54454 528.78784,230.2387 523.73737,235.0154 518.6869,235.52444 513.63635,239.14536 508.58588,237.96469 503.53537,241.41019 498.48486,245.16342 493.43436,244.98311 488.38385,248.38307 483.33334,251.38324 478.28284,252.58882 473.23233,257.0633 468.18182,259.54047 463.13132,259.96103 458.0808,260.54153 453.0303,264.18405 447.9798,266.3462 442.9293,268.43616 437.87878,269.62262 432.82828,272.54324 427.77777,274.58508 422.72726,288.9881 417.67676,288.59222 412.62628,292.1339 407.57578,291.60074 402.52527,296.4872 397.47473,296.12357 392.42426,297.57864 387.37375,302.72733 382.32324,305.0034 377.27274,306.25372 372.22223,307.14246 367.17172,310.73035 362.12122,312.9872 357.0707,312.73233 352.0202,315.7381 346.9697,317.98798 341.9192,317.59302 336.86868,322.7312 331.81818,321.8786 326.7677,325.0489 321.71716,327.1023 316.6667,328.74365 311.61615,332.54834 306.56567,333.58124 301.51514,334.7281 296.46466,337.76685 291.41412,340.07913 286.36365,347.25928 281.31314,349.0212 276.26263,351.19562 271.21213,352.2001 266.16162,354.0635 261.1111,355.57355 256.0606,357.61728 251.0101,359.71237 245.9596,362.2385 240.90909,364.24796 235.85858,364.6594 230.80807,368.04984 225.75757,369.92023 220.70706,371.34555 215.65657,375.25864 210.60606,377.93994 205.55556,379.52063 200.50505,381.21487 195.45454,382.91214 190.40404,384.45108 185.35353,386.01318 180.30302,389.25354 175.25253,390.91174 170.20203,392.64636 165.15152,395.03925 160.10101,396.555 155.0505,398.37198 150,399.99704 "/><text class="poloto_text" alignment-baseline="middle" text-anchor="start" font-size="large" x="675" y="200" >direct_par</text><line class="poloto2stroke" stroke="black" x1="680" x2="730" y1="181.25" y2="181.25" /><polyline class="poloto2stroke" fill="none" stroke="black"  points="650,257.06573 644.94946,280.94202 639.899,289.52728 634.8485,285.39423 629.798,287.26398 624.7475,297.10968 619.697,289.406 614.6465,297.98898 609.59595,291.43274 604.5455,294.61475 599.495,298.28333 594.44446,294.838 589.3939,301.32452 584.34344,289.61023 579.29297,301.77792 574.24243,302.1643 569.1919,288.28918 564.1414,302.4494 559.09094,298.15326 554.0404,302.88913 548.98987,305.4429 543.9394,305.16418 538.8889,304.37305 533.8384,311.58087 528.78784,306.68115 523.73737,312.42395 518.6869,317.48477 513.63635,317.15848 508.58588,311.6558 503.53537,317.63464 498.48486,315.40967 493.43436,298.3137 488.38385,319.47983 483.33334,326.2953 478.28284,321.96173 473.23233,317.09314 468.18182,317.0495 463.13132,329.02496 458.0808,325.8313 453.0303,322.198 447.9798,327.8873 442.9293,323.63348 437.87878,323.85092 432.82828,329.25894 427.77777,317.67572 422.72726,327.3155 417.67676,326.88623 412.62628,338.90375 407.57578,340.03082 402.52527,326.4101 397.47473,350.59216 392.42426,342.77475 387.37375,341.55902 382.32324,337.05267 377.27274,350.2244 372.22223,346.2397 367.17172,346.72147 362.12122,347.85318 357.0707,344.3308 352.0202,345.5569 346.9697,350.62863 341.9192,327.87097 336.86868,348.63086 331.81818,351.73 326.7677,346.88672 321.71716,352.70734 316.6667,358.18246 311.61615,348.9454 306.56567,355.1123 301.51514,354.5302 296.46466,359.75333 291.41412,363.1568 286.36365,356.61978 281.31314,372.11148 276.26263,362.5062 271.21213,362.7528 266.16162,365.31036 261.1111,370.29904 256.0606,365.72137 251.0101,370.3534 245.9596,374.60825 240.90909,375.1971 235.85858,376.0024 230.80807,367.70514 225.75757,374.6636 220.70706,373.76422 215.65657,371.60016 210.60606,373.06348 205.55556,370.134 200.50505,372.1315 195.45454,372.92075 190.40404,378.09088 185.35353,379.58267 180.30302,386.99326 175.25253,389.7764 170.20203,391.58307 165.15152,394.61746 160.10101,396.1881 155.0505,398.29453 150,399.99524 "/><text class="poloto_text" alignment-baseline="middle" text-anchor="start" font-size="large" x="675" y="250" >direct_seq</text><line class="poloto3stroke" stroke="black" x1="680" x2="730" y1="231.25" y2="231.25" /><polyline class="poloto3stroke" fill="none" stroke="black"  points="650,100 644.94946,108.13022 639.899,110.19983 634.8485,108.28549 629.798,112.91043 624.7475,116.72461 619.697,124.00552 614.6465,127.30426 609.59595,125.116516 604.5455,128.69879 599.495,138.45099 594.44446,132.15512 589.3939,143.93204 584.34344,143.29544 579.29297,149.18645 574.24243,147.66739 569.1919,142.93936 564.1414,150.64102 559.09094,158.73453 554.0404,157.11873 548.98987,165.8278 543.9394,166.4421 538.8889,171.12679 533.8384,174.21918 528.78784,175.5107 523.73737,180.16547 518.6869,182.67145 513.63635,188.00073 508.58588,184.27089 503.53537,189.82402 498.48486,194.98589 493.43436,195.2618 488.38385,199.37901 483.33334,205.25362 478.28284,204.6626 473.23233,211.62755 468.18182,214.47462 463.13132,215.8657 458.0808,215.90024 453.0303,220.41508 447.9798,224.68037 442.9293,228.14597 437.87878,229.05377 432.82828,233.16518 427.77777,235.1341 422.72726,253.80254 417.67676,252.56111 412.62628,260.2734 407.57578,258.3026 402.52527,264.49683 397.47473,264.74152 392.42426,264.75458 387.37375,273.5052 382.32324,275.67206 377.27274,277.6275 372.22223,277.98886 367.17172,284.42618 362.12122,286.641 357.0707,286.18314 352.0202,288.97766 346.9697,294.38132 341.9192,294.3824 336.86868,297.3686 331.81818,300.2875 326.7677,302.87775 321.71716,305.73694 316.6667,309.05856 311.61615,314.389 306.56567,315.7296 301.51514,316.92023 296.46466,320.1434 291.41412,323.62274 286.36365,332.47665 281.31314,333.86758 276.26263,337.0559 271.21213,339.01578 266.16162,341.60278 261.1111,343.22656 256.0606,346.90955 251.0101,348.40067 245.9596,352.39264 240.90909,355.4427 235.85858,356.77136 230.80807,360.2978 225.75757,362.6228 220.70706,364.125 215.65657,370.3357 210.60606,372.96927 205.55556,374.79208 200.50505,377.02878 195.45454,379.22675 190.40404,381.2125 185.35353,382.8288 180.30302,386.94257 175.25253,388.47473 170.20203,391.18567 165.15152,394.17075 160.10101,395.989 155.0505,398.10025 150,399.99222 "/><text class="poloto_text" alignment-baseline="middle" text-anchor="start" font-size="large" x="675" y="300" >indirect_par</text><line class="poloto4stroke" stroke="black" x1="680" x2="730" y1="281.25" y2="281.25" /><polyline class="poloto4stroke" fill="none" stroke="black"  points="650,269.86603 644.94946,308.35822 639.899,298.0995 634.8485,310.45483 629.798,312.78802 624.7475,303.2291 619.697,311.4958 614.6465,309.14883 609.59595,304.81934 604.5455,315.2493 599.495,310.70804 594.44446,307.87805 589.3939,311.65738 584.34344,311.07825 579.29297,320.47797 574.24243,306.659 569.1919,323.4875 564.1414,319.7281 559.09094,322.99026 554.0404,314.3623 548.98987,319.6839 543.9394,320.93143 538.8889,322.24628 533.8384,324.33377 528.78784,329.19733 523.73737,327.68137 518.6869,332.1505 513.63635,328.0584 508.58588,329.00946 503.53537,333.83325 498.48486,330.69135 493.43436,330.56314 488.38385,337.80743 483.33334,340.3363 478.28284,332.3275 473.23233,334.025 468.18182,340.50244 463.13132,338.95898 458.0808,333.45493 453.0303,343.5304 447.9798,345.1155 442.9293,334.585 437.87878,338.71503 432.82828,347.86743 427.77777,333.6089 422.72726,349.64273 417.67676,342.76013 412.62628,355.8183 407.57578,347.70276 402.52527,349.90424 397.47473,349.28247 392.42426,354.17105 387.37375,357.32468 382.32324,349.84775 377.27274,349.87827 372.22223,357.85992 367.17172,358.88043 362.12122,352.38553 357.0707,360.48132 352.0202,358.6835 346.9697,364.42386 341.9192,336.06497 336.86868,350.4569 331.81818,356.99896 326.7677,364.14868 321.71716,360.13037 316.6667,367.17822 311.61615,366.14066 306.56567,368.21265 301.51514,362.91992 296.46466,361.01462 291.41412,362.54224 286.36365,367.8313 281.31314,373.9492 276.26263,375.742 271.21213,365.27115 266.16162,366.14606 261.1111,376.4049 256.0606,367.5264 251.0101,377.57208 245.9596,375.41196 240.90909,379.3491 235.85858,379.53308 230.80807,376.34085 225.75757,377.37564 220.70706,379.69647 215.65657,371.51923 210.60606,375.8936 205.55556,375.0838 200.50505,374.52893 195.45454,379.52084 190.40404,379.16016 185.35353,381.26865 180.30302,390.50726 175.25253,392.1613 170.20203,393.5236 165.15152,395.7897 160.10101,397.0109 155.0505,398.66544 150,399.9974 "/><text class="poloto_text" alignment-baseline="middle" text-anchor="start" font-size="large" x="675" y="350" >indirect_seq</text><line class="poloto5stroke" stroke="black" x1="680" x2="730" y1="331.25" y2="331.25" /><polyline class="poloto5stroke" fill="none" stroke="black"  points="650,163.46185 644.94946,170.86414 639.899,173.46318 634.8485,170.86276 629.798,176.59975 624.7475,178.56169 619.697,183.06755 614.6465,186.27026 609.59595,178.22362 604.5455,187.48903 599.495,195.78796 594.44446,190.93475 589.3939,200.0015 584.34344,198.14493 579.29297,205.30667 574.24243,201.88641 569.1919,196.44939 564.1414,205.56824 559.09094,210.44406 554.0404,209.14772 548.98987,215.89925 543.9394,219.15314 538.8889,221.64183 533.8384,224.94786 528.78784,224.78273 523.73737,229.27835 518.6869,228.81912 513.63635,234.93752 508.58588,231.482 503.53537,236.04823 498.48486,239.41277 493.43436,234.4803 488.38385,244.82475 483.33334,249.57562 478.28284,245.75223 473.23233,253.57185 468.18182,255.62901 463.13132,251.94662 458.0808,253.92842 453.0303,260.70837 447.9798,259.55536 442.9293,266.3908 437.87878,262.41956 432.82828,270.49426 427.77777,271.85144 422.72726,285.1418 417.67676,282.71933 412.62628,286.68677 407.57578,284.54156 402.52527,289.19836 397.47473,292.81424 392.42426,292.45837 387.37375,301.2778 382.32324,303.14502 377.27274,304.1352 372.22223,302.34232 367.17172,310.35767 362.12122,312.41547 357.0707,309.27487 352.0202,311.89822 346.9697,317.19122 341.9192,315.58417 336.86868,322.51685 331.81818,321.125 326.7677,324.02316 321.71716,326.2145 316.6667,328.0255 311.61615,333.7257 306.56567,332.98483 301.51514,334.26593 296.46466,336.75497 291.41412,339.72986 286.36365,346.40323 281.31314,348.63998 276.26263,350.7716 271.21213,351.51477 266.16162,354.10297 261.1111,356.2237 256.0606,358.74988 251.0101,361.25085 245.9596,362.69348 240.90909,365.40424 235.85858,365.75153 230.80807,369.51807 225.75757,370.77945 220.70706,372.77148 215.65657,376.89972 210.60606,378.8381 205.55556,380.7201 200.50505,382.33063 195.45454,383.8242 190.40404,385.24463 185.35353,386.86914 180.30302,389.9097 175.25253,391.35165 170.20203,393.1503 165.15152,395.3885 160.10101,396.89114 155.0505,398.51837 150,399.9967 "/><text class="poloto_text" alignment-baseline="start" text-anchor="middle" font-size="x-large" x="400" y="37.5" >Bench of rebal:32_bytes with abspiral(num,0.1)</text><text class="poloto_text" alignment-baseline="start" text-anchor="middle" font-size="x-large" x="400" y="481.25" >Number of Elements</text><text class="poloto_text" alignment-baseline="start" text-anchor="middle" font-size="x-large" transform="rotate(-90,37.5,250)" x="37.5" y="250" >Time in Seconds</text><path stroke="black" fill="none" class="poloto_axis_lines"  d="M 150 100 L 150 400 L 650 400 "/></svg>