<svg  width="800" class="poloto" height="500" viewBox="0 0 800 500" xmlns="http://www.w3.org/2000/svg" ><rect  class="poloto_background" fill="white" x="0" y="0" width="800" height="500" /><text  class="poloto_text" alignment-baseline="middle" text-anchor="start" font-size="large" x="675" y="100" >default_par</text><line  class="poloto0stroke" stroke="black" x1="680" x2="730" y1="81.25" y2="81.25" /><path  class="poloto0stroke" fill="none" stroke="black" d=" M 650 284.49271995519115 L 644.9494949494949 287.35288713962063 L 639.8989898989898 285.1436603327047 L 634.8484848484848 290.2622245726153 L 629.7979797979798 286.77984851877767 L 624.7474747474747 292.2890104913283 L 619.6969696969697 289.70007544464033 L 614.6464646464647 293.0575573918157 L 609.5959595959596 295.048910576043 L 604.5454545454545 294.0850229265708 L 599.4949494949494 293.49322087186306 L 594.4444444444445 299.44717674540425 L 589.3939393939394 300.93426264451614 L 584.3434343434344 299.83475892617315 L 579.2929292929293 302.3387559284912 L 574.2424242424242 299.6317955321807 L 569.1919191919192 300.65013064599265 L 564.1414141414141 305.7783278988249 L 559.090909090909 302.99162290858914 L 554.040404040404 305.2780813495376 L 548.989898989899 309.05564642542623 L 543.939393939394 307.1121232444881 L 538.8888888888889 311.7525549821664 L 533.8383838383838 312.91706059639796 L 528.7878787878788 303.5044342573394 L 523.7373737373737 313.75069315810373 L 518.6868686868687 311.06190983834966 L 513.6363636363636 313.1551216635571 L 508.5858585858586 316.1760345157834 L 503.5353535353535 317.6695703452863 L 498.4848484848485 315.8926564052276 L 493.4343434343434 305.8032899670914 L 488.3838383838384 308.74395563341386 L 483.3333333333333 309.3146488250237 L 478.2828282828283 309.60539828459775 L 473.2323232323232 312.2608430031099 L 468.1818181818182 325.01327680476595 L 463.1313131313131 323.2636703622069 L 458.0808080808081 326.36206614445496 L 453.030303030303 324.80528749098823 L 447.979797979798 326.85276344615033 L 442.9292929292929 310.4910491160803 L 437.8787878787879 330.1800061092847 L 432.8282828282828 330.54924368283764 L 427.77777777777777 318.8387668179841 L 422.72727272727275 323.20603981533657 L 417.67676767676767 319.83071585292373 L 412.62626262626264 324.77220018573564 L 407.57575757575756 325.0389927610002 L 402.52525252525254 329.69441849270436 L 397.47474747474746 328.39304032965566 L 392.4242424242424 331.01849706011615 L 387.37373737373736 332.67512398664894 L 382.32323232323233 333.59453224602214 L 377.27272727272725 335.79471239732464 L 372.22222222222223 337.25851153476515 L 367.1717171717172 338.6813494259562 L 362.1212121212121 339.20077823575696 L 357.07070707070704 341.77446799242983 L 352.020202020202 342.9310159003349 L 346.969696969697 343.45027717947613 L 341.9191919191919 344.43276073215367 L 336.86868686868684 347.37903867556963 L 331.8181818181818 348.49177731601367 L 326.7676767676768 350.21776193558225 L 321.7171717171717 351.30855405963086 L 316.66666666666663 348.39578224811623 L 311.6161616161616 352.73407244137405 L 306.5656565656566 356.45945171682627 L 301.5151515151515 357.1172608513796 L 296.4646464646464 357.97434770541633 L 291.4141414141414 358.42969603795575 L 286.3636363636364 348.0768038724153 L 281.3131313131313 360.89331815133266 L 276.26262626262627 359.9205513769066 L 271.2121212121212 353.97639604694655 L 266.16161616161617 355.04172351075016 L 261.1111111111111 362.17124202205036 L 256.06060606060606 358.81677562674616 L 251.010101010101 366.00183055167287 L 245.95959595959596 363.9637363134432 L 240.9090909090909 370.20040017490203 L 235.85858585858585 371.52230084374025 L 230.8080808080808 368.3327683827205 L 225.75757575757575 372.7852307204321 L 220.7070707070707 371.3511682750541 L 215.65656565656565 375.5174882463281 L 210.6060606060606 375.83990100054893 L 205.55555555555554 378.31592038272936 L 200.50505050505052 380.0766676141456 L 195.45454545454544 381.51935788848823 L 190.40404040404042 382.52537949882645 L 185.35353535353534 379.26498156883525 L 180.3030303030303 383.527547903996 L 175.25252525252526 386.09495526093735 L 170.2020202020202 389.6390663628033 L 165.15151515151516 391.997814283329 L 160.1010101010101 395.2360144009355 L 155.05050505050505 397.6025524971283 L 150 399.9976545707669" /><text  class="poloto_text" alignment-baseline="middle" text-anchor="start" font-size="large" x="675" y="150" >default_seq</text><line  class="poloto1stroke" stroke="black" x1="680" x2="730" y1="131.25" y2="131.25" /><path  class="poloto1stroke" fill="none" stroke="black" d=" M 650 136.71493038821882 L 644.9494949494949 118.23311556209052 L 639.8989898989898 120.27598442411619 L 634.8484848484848 120.86510598827175 L 629.7979797979798 127.55695065161052 L 624.7474747474747 142.14761461470465 L 619.6969696969697 147.35497010415386 L 614.6464646464647 157.00783540894514 L 609.5959595959596 153.78940390916043 L 604.5454545454545 142.77476563856828 L 599.4949494949494 128.61666583832067 L 594.4444444444445 152.5680216360263 L 589.3939393939394 171.3658830513141 L 584.3434343434344 151.7348079009693 L 579.2929292929293 158.5242391734708 L 574.2424242424242 171.19491801328743 L 569.1919191919192 173.64019551944838 L 564.1414141414141 167.49609234736704 L 559.090909090909 173.34173964953703 L 554.040404040404 175.34121807075044 L 548.989898989899 172.85397413438307 L 543.939393939394 201.88971791745988 L 538.8888888888889 196.5064552355286 L 533.8383838383838 181.5473075868493 L 528.7878787878788 179.73521220829426 L 523.7373737373737 191.64429666999308 L 518.6868686868687 206.19835518398497 L 513.6363636363636 202.0543167904253 L 508.5858585858586 202.56051067812504 L 503.5353535353535 205.59390456448452 L 498.4848484848485 221.2267767603703 L 493.4343434343434 228.5682215559466 L 488.3838383838384 231.70824870708213 L 483.3333333333333 215.97251268625922 L 478.2828282828283 235.498629878423 L 473.2323232323232 224.2161100832795 L 468.1818181818182 231.31739967845283 L 463.1313131313131 228.2129727924625 L 458.0808080808081 232.94018541176524 L 453.030303030303 239.44305549118036 L 447.979797979798 237.3385353464562 L 442.9292929292929 240.40635678334434 L 437.8787878787879 240.73488440663715 L 432.8282828282828 246.54568533162976 L 427.77777777777777 259.93565705803877 L 422.72727272727275 252.34827725430654 L 417.67676767676767 253.36652860278872 L 412.62626262626264 258.94127882853627 L 407.57575757575756 261.6866875112036 L 402.52525252525254 263.71506497118196 L 397.47474747474746 271.0395054048183 L 392.4242424242424 274.33659254924146 L 387.37373737373736 273.5631872596284 L 382.32323232323233 275.74359879310913 L 377.27272727272725 277.0413750469784 L 372.22222222222223 285.02714275901775 L 367.1717171717172 286.74449954962176 L 362.1212121212121 290.6361530046345 L 357.07070707070704 291.6446038095355 L 352.020202020202 292.799979002824 L 346.969696969697 296.2387970851899 L 341.9191919191919 299.07416973201236 L 336.86868686868684 302.59775832808873 L 331.8181818181818 305.71248834963876 L 326.7676767676768 306.6127143484984 L 321.7171717171717 312.63862464029773 L 316.66666666666663 314.3316894852732 L 311.6161616161616 316.1305499417273 L 306.5656565656566 319.318742157471 L 301.5151515151515 319.7668029063219 L 296.4646464646464 323.99452286430517 L 291.4141414141414 328.27434485739514 L 286.3636363636364 325.8332556177219 L 281.3131313131313 332.6177447357679 L 276.26262626262627 328.5584768559186 L 271.2121212121212 336.3724418766338 L 266.16161616161617 337.9111272188738 L 261.1111111111111 343.7776320881524 L 256.06060606060606 338.91363068536236 L 251.010101010101 347.9347378731536 L 245.95959595959596 351.3864558163015 L 240.9090909090909 351.09671154068457 L 235.85858585858585 356.3551638812833 L 230.8080808080808 359.36493594465236 L 225.75757575757575 361.5197152872285 L 220.7070707070707 364.8405917853016 L 215.65656565656565 365.2158604625968 L 210.6060606060606 367.5244329506002 L 205.55555555555554 370.66563281635234 L 200.50505050505052 372.63202393231313 L 195.45454545454544 375.12555026841204 L 190.40404040404042 379.1154604552255 L 185.35353535353534 380.6601769012077 L 180.3030303030303 384.0931314104909 L 175.25252525252526 385.6646527619942 L 170.2020202020202 389.2586042350634 L 165.15151515151516 391.83338294102305 L 160.1010101010101 395.05223326745653 L 155.05050505050505 397.5114995836863 L 150 399.9992461120322" /><text  class="poloto_text" alignment-baseline="middle" text-anchor="start" font-size="large" x="675" y="200" >direct_par</text><line  class="poloto2stroke" stroke="black" x1="680" x2="730" y1="181.25" y2="181.25" /><path  class="poloto2stroke" fill="none" stroke="black" d=" M 650 287.2183600200367 L 644.9494949494949 286.1522786682653 L 639.8989898989898 289.19647828216296 L 634.8484848484848 293.52362768656354 L 629.7979797979798 292.0171919962786 L 624.7474747474747 295.8706484609238 L 619.6969696969697 288.1257060719254 L 614.6464646464647 288.1600498571243 L 609.5959595959596 296.40054793694367 L 604.5454545454545 299.052558276936 L 599.4949494949494 301.3686696446172 L 594.4444444444445 303.2901625438302 L 589.3939393939394 302.36949780451073 L 584.3434343434344 289.91660882205286 L 579.2929292929293 308.1000515435996 L 574.2424242424242 308.4544626537862 L 569.1919191919192 297.229908466832 L 564.1414141414141 307.48203094067907 L 559.090909090909 307.35211091423156 L 554.040404040404 308.9118213542397 L 548.989898989899 308.7859220636203 L 543.939393939394 310.2136183439371 L 538.8888888888889 307.57006830224987 L 533.8383838383838 306.4889091911229 L 528.7878787878788 314.99586478488783 L 523.7373737373737 318.37479065648006 L 518.6868686868687 316.6555072632917 L 513.6363636363636 316.9940029608252 L 508.5858585858586 318.8209248027466 L 503.5353535353535 319.9027540365116 L 498.4848484848485 319.88239906138153 L 493.4343434343434 320.64784664466805 L 488.3838383838384 310.07364647791917 L 483.3333333333333 308.0451014872814 L 478.2828282828283 308.8817496008582 L 473.2323232323232 325.3648398937409 L 468.1818181818182 329.32978801228785 L 463.1313131313131 328.54113743265964 L 458.0808080808081 332.9483664923045 L 453.030303030303 332.4548211693975 L 447.979797979798 332.1150689919178 L 442.9292929292929 329.42762591743974 L 437.8787878787879 336.2912732721027 L 432.8282828282828 332.8796789219067 L 427.77777777777777 327.9789045393549 L 422.72727272727275 306.55994219075376 L 417.67676767676767 326.3918866018472 L 412.62626262626264 328.2148714732702 L 407.57575757575756 328.5703715327436 L 402.52525252525254 330.9051625689598 L 397.47474747474746 333.8464145925906 L 392.4242424242424 335.5487773891687 L 387.37373737373736 337.7953635331546 L 382.32323232323233 335.7342338292427 L 377.27272727272725 336.9830073652062 L 372.22222222222223 337.83079626764027 L 367.1717171717172 339.88480591852317 L 362.1212121212121 342.48471422340884 L 357.07070707070704 344.62274050003435 L 352.020202020202 345.05614231617835 L 346.969696969697 346.11024522579504 L 341.9191919191919 347.93272750523954 L 336.86868686868684 348.27985103173756 L 331.8181818181818 348.92199604962707 L 326.7676767676768 351.1034127670648 L 321.7171717171717 353.9470781815329 L 316.66666666666663 354.7962910945727 L 311.6161616161616 356.34913277754106 L 306.5656565656566 356.20321357311065 L 301.5151515151515 356.68938754699934 L 296.4646464646464 351.70283746678007 L 291.4141414141414 360.01688150612296 L 286.3636363636364 359.2541144133886 L 281.3131313131313 363.2467888560839 L 276.26262626262627 352.23893557720174 L 271.2121212121212 356.0076215281365 L 266.16161616161617 355.45636189302945 L 261.1111111111111 361.1369914955853 L 256.06060606060606 362.16286548907505 L 251.010101010101 361.9189408488332 L 245.95959595959596 365.7438333360324 L 240.9090909090909 367.00106717030104 L 235.85858585858585 368.30830890643244 L 230.8080808080808 370.1786211891661 L 225.75757575757575 377.61455327670427 L 220.7070707070707 375.762083009208 L 215.65656565656565 376.6538487097626 L 210.6060606060606 377.8155900681124 L 205.55555555555554 379.6191413830326 L 200.50505050505052 380.25349622525505 L 195.45454545454544 381.0327650879508 L 190.40404040404042 382.5872820775142 L 185.35353535353534 383.2520437344371 L 180.3030303030303 385.4418369848502 L 175.25252525252526 387.9274056146225 L 170.2020202020202 390.85977851329943 L 165.15151515151516 393.0053436696027 L 160.1010101010101 395.6941269893568 L 155.05050505050505 397.750398304143 L 150 399.9992461120322" /><text  class="poloto_text" alignment-baseline="middle" text-anchor="start" font-size="large" x="675" y="250" >direct_seq</text><line  class="poloto3stroke" stroke="black" x1="680" x2="730" y1="231.25" y2="231.25" /><path  class="poloto3stroke" fill="none" stroke="black" d=" M 650 149.32982151841975 L 644.9494949494949 148.2523480818019 L 639.8989898989898 160.42252907634207 L 634.8484848484848 132.21162249534683 L 629.7979797979798 169.22969961194318 L 624.7474747474747 156.2781556214634 L 619.6969696969697 152.10940645562647 L 614.6464646464647 163.46522091430415 L 609.5959595959596 158.35134753285976 L 604.5454545454545 177.67718182158322 L 599.4949494949494 177.00236832508992 L 594.4444444444445 175.31566964517566 L 589.3939393939394 179.61995111455357 L 584.3434343434344 174.93705035469034 L 579.2929292929293 178.1020395740924 L 574.2424242424242 158.53345335974365 L 569.1919191919192 189.5428758424698 L 564.1414141414141 204.97471124694746 L 559.090909090909 196.5962516690242 L 554.040404040404 195.65213263737377 L 548.989898989899 197.96129148268543 L 543.939393939394 210.63682871162783 L 538.8888888888889 220.38920722816616 L 533.8383838383838 219.48487672814855 L 528.7878787878788 221.55480179168458 L 523.7373737373737 218.5862422705542 L 518.6868686868687 227.67017345566052 L 513.6363636363636 221.27536065162727 L 508.5858585858586 230.92001695410278 L 503.5353535353535 227.24154626331242 L 498.4848484848485 226.78443885884818 L 493.4343434343434 237.45170230695302 L 488.3838383838384 232.51867827244618 L 483.3333333333333 245.25519666144902 L 478.2828282828283 238.97128915400927 L 473.2323232323232 239.98041008154834 L 468.1818181818182 244.11707712608973 L 463.1313131313131 249.56056708011374 L 458.0808080808081 245.14630173276964 L 453.030303030303 236.2518477235655 L 447.979797979798 249.44555728236233 L 442.9292929292929 261.1175858608591 L 437.8787878787879 260.38019966304 L 432.8282828282828 258.2662978013835 L 427.77777777777777 270.00651135829946 L 422.72727272727275 258.48685191462414 L 417.67676767676767 263.4207136024285 L 412.62626262626264 269.6363523661193 L 407.57575757575756 267.4210944554611 L 402.52525252525254 276.5386155377986 L 397.47474747474746 277.4686619940504 L 392.4242424242424 277.7086496637939 L 387.37373737373736 284.5127398690022 L 382.32323232323233 281.51327094119284 L 377.27272727272725 282.48729419556525 L 372.22222222222223 286.01255809823664 L 367.1717171717172 274.4454037125911 L 362.1212121212121 290.13716293529353 L 357.07070707070704 296.64304856657975 L 352.020202020202 301.981831858412 L 346.969696969697 304.54362693825993 L 341.9191919191919 307.75016376121965 L 336.86868686868684 304.69147274527467 L 331.8181818181818 307.9377980998673 L 326.7676767676768 312.8530638844664 L 321.7171717171717 314.48791182526327 L 316.66666666666663 314.7746405490092 L 311.6161616161616 318.78632972155845 L 306.5656565656566 322.8386450790382 L 301.5151515151515 322.3286817514995 L 296.4646464646464 327.5414819873827 L 291.4141414141414 328.25491130089233 L 286.3636363636364 331.2940849950048 L 281.3131313131313 337.125073364468 L 276.26262626262627 335.56871353765 L 271.2121212121212 341.364101641968 L 266.16161616161617 342.49535242028753 L 261.1111111111111 346.4673368265337 L 256.06060606060606 348.9282784493586 L 251.010101010101 349.6442207227608 L 245.95959595959596 351.4347046462395 L 240.9090909090909 356.19299420288075 L 235.85858585858585 357.1725459690169 L 230.8080808080808 363.05848439479826 L 225.75757575757575 364.2413346162459 L 220.7070707070707 367.0852513267032 L 215.65656565656565 367.45700186014875 L 210.6060606060606 370.3203521271089 L 205.55555555555554 372.8712577140888 L 200.50505050505052 375.18225939665507 L 195.45454545454544 376.3360430486783 L 190.40404040404042 378.89465504599553 L 185.35353535353534 383.26980198434484 L 180.3030303030303 385.39141025633865 L 175.25252525252526 386.88678892309616 L 170.2020202020202 391.12665485389374 L 165.15151515151516 391.82140449886833 L 160.1010101010101 395.5454435290445 L 155.05050505050505 397.1044838464146 L 150 400" /><text  class="poloto_text" alignment-baseline="middle" text-anchor="start" font-size="large" x="675" y="300" >indirect_par</text><line  class="poloto4stroke" stroke="black" x1="680" x2="730" y1="281.25" y2="281.25" /><path  class="poloto4stroke" fill="none" stroke="black" d=" M 650 260.2566458016538 L 644.9494949494949 274.25483758740216 L 639.8989898989898 274.4190176337188 L 634.8484848484848 273.5069807233639 L 629.7979797979798 271.9848809164151 L 624.7474747474747 274.9300699105442 L 619.6969696969697 264.93946279618723 L 614.6464646464647 271.7144864319711 L 609.5959595959596 279.6987463680749 L 604.5454545454545 284.50696006124923 L 599.4949494949494 283.84965351867436 L 594.4444444444445 288.7236229957051 L 589.3939393939394 285.85817859550116 L 584.3434343434344 248.86506354717133 L 579.2929292929293 287.949882644773 L 574.2424242424242 292.0372119100897 L 569.1919191919192 290.57651208985004 L 564.1414141414141 295.2072270492769 L 559.090909090909 293.2804569342895 L 554.040404040404 295.0162420974392 L 548.989898989899 297.51898261981097 L 543.939393939394 290.56285834110025 L 538.8888888888889 294.17331158413083 L 533.8383838383838 286.1723823474061 L 528.7878787878788 300.20223742780126 L 523.7373737373737 297.5355681551021 L 518.6868686868687 298.8383703287566 L 513.6363636363636 305.7912277596069 L 508.5858585858586 307.2941453060422 L 503.5353535353535 310.53452332222236 L 498.4848484848485 300.92362444763745 L 493.4343434343434 303.85231167180524 L 488.3838383838384 296.2964276320603 L 483.3333333333333 299.17720108760903 L 478.2828282828283 269.9838947192661 L 473.2323232323232 301.2905165919573 L 468.1818181818182 319.07238832266626 L 463.1313131313131 319.7366473876107 L 458.0808080808081 318.58797342070244 L 453.030303030303 320.37267753642817 L 447.979797979798 320.0981785508263 L 442.9292929292929 323.3331955859022 L 437.8787878787879 324.4619334043291 L 432.8282828282828 326.43385303205366 L 427.77777777777777 320.3973883087054 L 422.72727272727275 311.1468478827196 L 417.67676767676767 313.11851621445487 L 412.62626262626264 317.2107038688972 L 407.57575757575756 318.273937199457 L 402.52525252525254 318.6904184189908 L 397.47474747474746 320.08502739405503 L 392.4242424242424 323.9097523505948 L 387.37373737373736 324.8712108055042 L 382.32323232323233 316.223026865775 L 377.27272727272725 325.3139943385806 L 372.22222222222223 330.5804043855059 L 367.1717171717172 331.4493859163676 L 362.1212121212121 332.9146928297436 L 357.07070707070704 336.56258917517397 L 352.020202020202 334.50598279906876 L 346.969696969697 334.9483475054964 L 341.9191919191919 338.33598497138297 L 336.86868686868684 340.30983120169185 L 331.8181818181818 342.83527212842677 L 326.7676767676768 342.43261218830224 L 321.7171717171717 347.1337737900517 L 316.66666666666663 348.03508873819817 L 311.6161616161616 348.06147481707046 L 306.5656565656566 349.1972489231967 L 301.5151515151515 351.393073277352 L 296.4646464646464 352.9679452420455 L 291.4141414141414 352.97540035639355 L 286.3636363636364 348.0281362158286 L 281.3131313131313 353.24554354484826 L 276.26262626262627 354.6271688938007 L 271.2121212121212 349.35137712994293 L 266.16161616161617 354.3086093447485 L 261.1111111111111 356.02697131930955 L 256.06060606060606 360.9450851251203 L 251.010101010101 356.2352956944062 L 245.95959595959596 364.7867306782702 L 240.9090909090909 361.0839680418514 L 235.85858585858585 363.5088068075525 L 230.8080808080808 364.58033290575787 L 225.75757575757575 365.52168768152643 L 220.7070707070707 369.33920881970744 L 215.65656565656565 372.6818643035164 L 210.6060606060606 374.53693129623497 L 205.55555555555554 375.65209913124187 L 200.50505050505052 376.46931368831594 L 195.45454545454544 376.46261246193563 L 190.40404040404042 377.8241341317472 L 185.35353535353534 378.4227211781649 L 180.3030303030303 383.231353697988 L 175.25252525252526 385.49452537726506 L 170.2020202020202 389.58964481824876 L 165.15151515151516 391.5067819203146 L 160.1010101010101 395.02852767913635 L 155.05050505050505 397.45772224198464 L 150 399.9992461120322" /><text  class="poloto_text" alignment-baseline="middle" text-anchor="start" font-size="large" x="675" y="350" >indirect_seq</text><line  class="poloto5stroke" stroke="black" x1="680" x2="730" y1="331.25" y2="331.25" /><path  class="poloto5stroke" fill="none" stroke="black" d=" M 650 106.00647673529653 L 644.9494949494949 119.74013760968376 L 639.8989898989898 100 L 634.8484848484848 118.52629421622737 L 629.7979797979798 115.0225580033026 L 624.7474747474747 112.19330022555215 L 619.6969696969697 139.0503915470731 L 614.6464646464647 124.84429421287678 L 609.5959595959596 123.65122462119928 L 604.5454545454545 133.90125296180247 L 599.4949494949494 117.08427406452279 L 594.4444444444445 142.17793766407533 L 589.3939393939394 146.82783488401577 L 584.3434343434344 139.58414422826166 L 579.2929292929293 160.88725912581387 L 574.2424242424242 149.82730381182512 L 569.1919191919192 148.83468465424744 L 564.1414141414141 167.24965474723257 L 559.090909090909 124.10632165774939 L 554.040404040404 173.2950823608644 L 548.989898989899 147.41193052838614 L 543.939393939394 175.6586886705158 L 538.8888888888889 176.94381635959232 L 533.8383838383838 175.85302423554367 L 528.7878787878788 166.89273067715334 L 523.7373737373737 183.2905478643471 L 518.6868686868687 183.92523776788852 L 513.6363636363636 190.96169299783273 L 508.5858585858586 191.64580444592866 L 503.5353535353535 219.9574807186172 L 498.4848484848485 217.61054370958675 L 493.4343434343434 213.19644589290215 L 488.3838383838384 203.79831095589086 L 483.3333333333333 211.46183344436895 L 478.2828282828283 210.33736765775944 L 473.2323232323232 227.40321334973646 L 468.1818181818182 209.49334819516432 L 463.1313131313131 227.1749528261585 L 458.0808080808081 227.10048544800773 L 453.030303030303 226.34584359225943 L 447.979797979798 230.94757574759163 L 442.9292929292929 234.56799706486285 L 437.8787878787879 235.9579989467906 L 432.8282828282828 241.4194984467116 L 427.77777777777777 257.59994460319524 L 422.72727272727275 244.31962169343342 L 417.67676767676767 246.88518621312025 L 412.62626262626264 248.92118631810612 L 407.57575757575756 251.09908489169425 L 402.52525252525254 256.91591692042914 L 397.47474747474746 252.26065871938448 L 392.4242424242424 268.84141938675964 L 387.37373737373736 271.5902624479468 L 382.32323232323233 270.61347493769256 L 377.27272727272725 273.64402080284043 L 372.22222222222223 280.51436938388366 L 367.1717171717172 281.40454354317296 L 362.1212121212121 284.8958824872942 L 357.07070707070704 288.79666636325004 L 352.020202020202 280.56437728574645 L 346.969696969697 293.6062203017004 L 341.9191919191919 286.0557810083894 L 336.86868686868684 288.44862141812473 L 331.8181818181818 299.80653001004623 L 326.7676767676768 303.3483794480088 L 321.7171717171717 308.821689859425 L 316.66666666666663 301.8818160546865 L 311.6161616161616 312.18067958253596 L 306.5656565656566 317.68205137941953 L 301.5151515151515 318.94841563463126 L 296.4646464646464 321.12731939217645 L 291.4141414141414 321.88581445309336 L 286.3636363636364 322.75990566907 L 281.3131313131313 326.50069776519683 L 276.26262626262627 331.20303208156287 L 271.2121212121212 335.7514894871719 L 266.16161616161617 334.7506613272784 L 261.1111111111111 337.8630459195953 L 256.06060606060606 338.60621192516743 L 251.010101010101 346.5385373568241 L 245.95959595959596 350.0476345508531 L 240.9090909090909 353.0763375787464 L 235.85858585858585 353.5016141579043 L 230.8080808080808 358.63835547437145 L 225.75757575757575 361.45228419677704 L 220.7070707070707 364.3235921700637 L 215.65656565656565 363.12524536261174 L 210.6060606060606 367.0759533751006 L 205.55555555555554 369.8030174505519 L 200.50505050505052 372.2643779000255 L 195.45454545454544 374.05930138598114 L 190.40404040404042 377.3067994551903 L 185.35353535353534 379.53026636816423 L 180.3030303030303 381.01601202200015 L 175.25252525252526 385.92591682549505 L 170.2020202020202 389.71210973034823 L 165.15151515151516 391.8437698419125 L 160.1010101010101 395.0787031116586 L 155.05050505050505 397.4142480358426 L 150 399.99899481604297" /><text  class="poloto_text" alignment-baseline="start" text-anchor="middle" font-size="x-large" x="400" y="37.5" >Bench of query:8_bytes with abspiral(num,1.5)</text><text  class="poloto_text" alignment-baseline="start" text-anchor="middle" font-size="x-large" x="400" y="481.25" >Number of Elements</text><text  class="poloto_text" alignment-baseline="start" text-anchor="middle" font-size="x-large" transform="rotate(-90,37.5,250)" x="37.5" y="250" >Time in Seconds</text><path  stroke="black" fill="none" class="poloto_axis_lines" d=" M 150 100 L 150 400 L 650 400" /><line  class="poloto_axis_lines" stroke="black" x1="150" x2="150" y1="400" y2="405" /><text  class="poloto_text" alignment-baseline="start" text-anchor="middle" x="150" y="430" > 0</text><line  class="poloto_axis_lines" stroke="black" x1="234.17508417508418" x2="234.17508417508418" y1="400" y2="405" /><text  class="poloto_text" alignment-baseline="start" text-anchor="middle" x="234.17508417508418" y="430" > 5000</text><line  class="poloto_axis_lines" stroke="black" x1="318.35016835016836" x2="318.35016835016836" y1="400" y2="405" /><text  class="poloto_text" alignment-baseline="start" text-anchor="middle" x="318.35016835016836" y="430" > 10000</text><line  class="poloto_axis_lines" stroke="black" x1="402.52525252525254" x2="402.52525252525254" y1="400" y2="405" /><text  class="poloto_text" alignment-baseline="start" text-anchor="middle" x="402.52525252525254" y="430" > 15000</text><line  class="poloto_axis_lines" stroke="black" x1="486.7003367003367" x2="486.7003367003367" y1="400" y2="405" /><text  class="poloto_text" alignment-baseline="start" text-anchor="middle" x="486.7003367003367" y="430" > 20000</text><line  class="poloto_axis_lines" stroke="black" x1="570.8754208754208" x2="570.8754208754208" y1="400" y2="405" /><text  class="poloto_text" alignment-baseline="start" text-anchor="middle" x="570.8754208754208" y="430" > 25000</text><line  class="poloto_axis_lines" stroke="black" x1="150" x2="144" y1="358.1224448084203" y2="358.1224448084203" /><text  class="poloto_text" alignment-baseline="middle" text-anchor="end" x="135" y="358.1224448084203" > 0.0005</text><line  class="poloto_axis_lines" stroke="black" x1="150" x2="144" y1="316.2397799317257" y2="316.2397799317257" /><text  class="poloto_text" alignment-baseline="middle" text-anchor="end" x="135" y="316.2397799317257" > 0.0010</text><line  class="poloto_axis_lines" stroke="black" x1="150" x2="144" y1="274.35711505503104" y2="274.35711505503104" /><text  class="poloto_text" alignment-baseline="middle" text-anchor="end" x="135" y="274.35711505503104" > 0.0015</text><line  class="poloto_axis_lines" stroke="black" x1="150" x2="144" y1="232.47445017833638" y2="232.47445017833638" /><text  class="poloto_text" alignment-baseline="middle" text-anchor="end" x="135" y="232.47445017833638" > 0.0020</text><line  class="poloto_axis_lines" stroke="black" x1="150" x2="144" y1="190.59178530164172" y2="190.59178530164172" /><text  class="poloto_text" alignment-baseline="middle" text-anchor="end" x="135" y="190.59178530164172" > 0.0025</text><line  class="poloto_axis_lines" stroke="black" x1="150" x2="144" y1="148.70912042494712" y2="148.70912042494712" /><text  class="poloto_text" alignment-baseline="middle" text-anchor="end" x="135" y="148.70912042494712" > 0.0030</text><line  class="poloto_axis_lines" stroke="black" x1="150" x2="144" y1="106.82645554825245" y2="106.82645554825245" /><text  class="poloto_text" alignment-baseline="middle" text-anchor="end" x="135" y="106.82645554825245" > 0.0035</text></svg>