<svg class="poloto" width="800" height="500" viewBox="0 0 800 500" xmlns="http://www.w3.org/2000/svg"><style>.poloto {
                    font-family: "Arial";
                    stroke-width:2;
                    }
                    .poloto_text{fill: var(--poloto_fg_color,black);  }
                    .poloto_axis_lines{stroke: var(--poloto_fg_color,black);stoke-width:3;fill:none}
                    .poloto_background{fill: var(--poloto_bg_color,aliceblue); }
                    .poloto0stroke{stroke:  var(--poloto_color0,blue); }
                    .poloto1stroke{stroke:  var(--poloto_color1,red); }
                    .poloto2stroke{stroke:  var(--poloto_color2,green); }
                    .poloto3stroke{stroke:  var(--poloto_color3,gold); }
                    .poloto4stroke{stroke:  var(--poloto_color4,aqua); }
                    .poloto5stroke{stroke:  var(--poloto_color5,brown); }
                    .poloto6stroke{stroke:  var(--poloto_color6,lime); }
                    .poloto7stroke{stroke:  var(--poloto_color7,chocolate); }
                    .poloto0fill{fill:var(--poloto_color0,blue);}
                    .poloto1fill{fill:var(--poloto_color1,red);}
                    .poloto2fill{fill:var(--poloto_color2,green);}
                    .poloto3fill{fill:var(--poloto_color3,gold);}
                    .poloto4fill{fill:var(--poloto_color4,aqua);}
                    .poloto5fill{fill:var(--poloto_color5,brown);}
                    .poloto6fill{fill:var(--poloto_color6,lime);}
                    .poloto7fill{fill:var(--poloto_color7,chocolate);}</style><rect class="poloto_background" fill="white" x="0" y="0" width="800" height="500"/><line class="poloto_axis_lines" stroke="black" x1="150" x2="150" y1="400" y2="405"/><text class="poloto_text" alignment-baseline="start" text-anchor="middle" x="150" y="430">0</text><line class="poloto_axis_lines" stroke="black" x1="234.17508417508418" x2="234.17508417508418" y1="400" y2="405"/><text class="poloto_text" alignment-baseline="start" text-anchor="middle" x="234.17508417508418" y="430">5000</text><line class="poloto_axis_lines" stroke="black" x1="318.35016835016836" x2="318.35016835016836" y1="400" y2="405"/><text class="poloto_text" alignment-baseline="start" text-anchor="middle" x="318.35016835016836" y="430">10000</text><line class="poloto_axis_lines" stroke="black" x1="402.52525252525254" x2="402.52525252525254" y1="400" y2="405"/><text class="poloto_text" alignment-baseline="start" text-anchor="middle" x="402.52525252525254" y="430">15000</text><line class="poloto_axis_lines" stroke="black" x1="486.7003367003367" x2="486.7003367003367" y1="400" y2="405"/><text class="poloto_text" alignment-baseline="start" text-anchor="middle" x="486.7003367003367" y="430">20000</text><line class="poloto_axis_lines" stroke="black" x1="570.8754208754208" x2="570.8754208754208" y1="400" y2="405"/><text class="poloto_text" alignment-baseline="start" text-anchor="middle" x="570.8754208754208" y="430">25000</text><line class="poloto_axis_lines" stroke="black" x1="150" x2="144" y1="352.61982251207723" y2="352.61982251207723"/><text class="poloto_text" alignment-baseline="middle" text-anchor="end" x="135" y="352.61982251207723">0.001</text><line class="poloto_axis_lines" stroke="black" x1="150" x2="144" y1="305.23495392216404" y2="305.23495392216404"/><text class="poloto_text" alignment-baseline="middle" text-anchor="end" x="135" y="305.23495392216404">0.002</text><line class="poloto_axis_lines" stroke="black" x1="150" x2="144" y1="257.85008533225084" y2="257.85008533225084"/><text class="poloto_text" alignment-baseline="middle" text-anchor="end" x="135" y="257.85008533225084">0.003</text><line class="poloto_axis_lines" stroke="black" x1="150" x2="144" y1="210.4652167423377" y2="210.4652167423377"/><text class="poloto_text" alignment-baseline="middle" text-anchor="end" x="135" y="210.4652167423377">0.004</text><line class="poloto_axis_lines" stroke="black" x1="150" x2="144" y1="163.08034815242445" y2="163.08034815242445"/><text class="poloto_text" alignment-baseline="middle" text-anchor="end" x="135" y="163.08034815242445">0.005</text><line class="poloto_axis_lines" stroke="black" x1="150" x2="144" y1="115.69547956251131" y2="115.69547956251131"/><text class="poloto_text" alignment-baseline="middle" text-anchor="end" x="135" y="115.69547956251131">0.006</text><text class="poloto_text" alignment-baseline="middle" text-anchor="start" font-size="large" x="675" y="100">default_par</text><line class="poloto0stroke" stroke="black" x1="680" x2="730" y1="81.25" y2="81.25"/><polyline class="poloto0stroke" fill="none" stroke="black" points="650,287.724870817002 644.9494949494949,321.07969582073355 639.8989898989898,321.85022116887416 634.8484848484848,308.5137025193745 629.7979797979798,326.5335520408268 624.7474747474747,317.4556063012398 619.6969696969697,324.9380087456673 614.6464646464647,324.25917311824816 609.5959595959596,325.0477521013215 604.5454545454545,328.2284614054194 599.4949494949494,328.8773024110211 594.4444444444445,327.2758360072878 589.3939393939394,326.08751827278996 584.3434343434344,332.4828170620276 579.2929292929293,323.50561155306275 574.2424242424242,329.1831243529004 569.1919191919192,333.5027289735569 564.1414141414141,329.77150226618136 559.090909090909,332.3386722917771 554.040404040404,336.256690151134 548.989898989899,337.43671553362867 543.939393939394,336.3799381943364 538.8888888888889,336.4231058096218 533.8383838383838,341.326492011306 528.7878787878788,343.380483910073 523.7373737373737,343.59319458517314 518.6868686868687,343.1935032186172 513.6363636363636,337.08298748960493 508.5858585858586,340.95722173038484 503.5353535353535,346.9632064392877 498.4848484848485,343.5278508513876 493.4343434343434,345.06999139964637 488.3838383838384,347.43572834886635 483.3333333333333,341.67292278556687 478.2828282828283,345.9305953829764 473.2323232323232,348.92266552521784 468.1818181818182,342.79722356259975 463.1313131313131,351.28887632312376 458.0808080808081,352.472408185894 453.030303030303,346.48111278625396 447.979797979798,351.10085316455894 442.9292929292929,337.1219852364544 437.8787878787879,351.66937681790074 432.8282828282828,348.46416953674185 427.77777777777777,353.16455896138683 422.72727272727275,348.79614792608277 417.67676767676767,348.65664687295407 412.62626262626264,346.33829479232395 407.57575757575756,348.7552547844897 402.52525252525254,354.8077714343479 397.47474747474746,353.1078866585533 392.4242424242424,352.1962017868834 387.37373737373736,353.37608501477223 382.32323232323233,358.2653031407481 377.27272727272725,354.33814000175323 372.22222222222223,357.9878173502855 367.1717171717172,359.3361537860115 362.1212121212121,358.2322285024723 357.07070707070704,359.7096413202372 352.020202020202,361.5597361294618 346.969696969697,360.0329482786262 341.9191919191919,360.7752796299558 336.86868686868684,361.6381107021095 331.8181818181818,360.92477889035695 326.7676767676768,355.01896579365314 321.7171717171717,360.84104982755855 316.66666666666663,364.64723939704334 311.6161616161616,365.8103483814514 306.5656565656566,365.1592329021573 301.5151515151515,371.4428929409971 296.4646464646464,359.579901550038 291.4141414141414,370.5628611615453 286.3636363636364,373.9015042326534 281.3131313131313,374.407764168668 276.26262626262627,370.53357731275673 271.2121212121212,365.3059364553117 266.16161616161617,378.127381583239 261.1111111111111,378.0740262212068 256.06060606060606,369.2215850712392 251.010101010101,378.12690773455313 245.95959595959596,381.3378485848114 240.9090909090909,375.8594470027886 235.85858585858585,379.84257167158813 230.8080808080808,382.69044965871046 225.75757575757575,381.3114078281383 220.7070707070707,379.2160489390923 215.65656565656565,375.8585466902854 210.6060606060606,374.8137577227464 205.55555555555554,376.1113449642126 200.50505050505052,379.5499227231768 195.45454545454544,379.2311173273039 190.40404040404042,381.05860955421105 185.35353535353534,384.0368906996929 180.3030303030303,384.75576654107044 175.25252525252526,387.34407021805725 170.2020202020202,390.1830872347533 165.15151515151516,392.40259447950484 160.1010101010101,395.1383124826749 155.05050505050505,397.6573394817833 150,400 "/><text class="poloto_text" alignment-baseline="middle" text-anchor="start" font-size="large" x="675" y="150">default_seq</text><line class="poloto1stroke" stroke="black" x1="680" x2="730" y1="131.25" y2="131.25"/><polyline class="poloto1stroke" fill="none" stroke="black" points="650,125.13331337903867 644.9494949494949,135.4244065242646 639.8989898989898,138.89165212872575 634.8484848484848,141.90035435984225 629.7979797979798,144.59337859641283 624.7474747474747,147.6567629658821 619.6969696969697,150.5844370717099 614.6464646464647,153.82011282337209 609.5959595959596,155.7874851823567 604.5454545454545,160.63363046278434 599.4949494949494,163.12981795523237 594.4444444444445,165.49508105576646 589.3939393939394,167.1156909464101 584.3434343434344,171.3773912576497 579.2929292929293,173.75137317400433 574.2424242424242,177.68763420776844 569.1919191919192,179.40192398361432 564.1414141414141,182.75392958766477 559.090909090909,186.68189826942563 554.040404040404,188.98304964275758 548.989898989899,190.86399200143418 543.939393939394,194.75348416990005 538.8888888888889,197.52118695936826 533.8383838383838,200.24444274209918 528.7878787878788,201.28165013066376 523.7373737373737,205.7443570544618 518.6868686868687,209.6992403415817 513.6363636363636,211.88818434609277 508.5858585858586,214.35252920684837 503.5353535353535,217.44984114222805 498.4848484848485,220.74266304540973 493.4343434343434,223.75425575351022 488.3838383838384,226.42875250646213 483.3333333333333,229.4461735533992 478.2828282828283,230.48418648472983 473.2323232323232,233.66034684144313 468.1818181818182,237.2208932521578 463.1313131313131,239.56478577695785 458.0808080808081,242.14792450326837 453.030303030303,243.92466753591575 447.979797979798,245.7851870162301 442.9292929292929,249.47599443069845 437.8787878787879,252.65163355385724 432.8282828282828,253.3804128327701 427.77777777777777,255.73942113065036 422.72727272727275,255.31660594822256 417.67676767676767,258.1200369286076 412.62626262626264,260.75501470115546 407.57575757575756,264.4046920496878 402.52525252525254,267.2146621419382 397.47474747474746,269.7400860983062 392.4242424242424,273.1306156005203 387.37373737373736,275.322023618198 382.32323232323233,278.4081527245905 377.27272727272725,280.7494390816181 372.22222222222223,283.9526088134276 367.1717171717172,286.5936044642864 362.1212121212121,288.94702134767306 357.07070707070704,291.9293775918536 352.020202020202,294.3957600019586 346.969696969697,297.1705705217153 341.9191919191919,300.05436623922884 336.86868686868684,302.5378072020262 331.8181818181818,305.31100663625085 326.7676767676768,308.27710987050506 321.7171717171717,310.61351558606793 316.66666666666663,313.48598631998846 311.6161616161616,316.20445623099175 306.5656565656566,318.4520153179485 301.5151515151515,321.45896430892725 296.4646464646464,324.12985981186625 291.4141414141414,326.7873453969944 286.3636363636364,327.7437615846132 281.3131313131313,327.97604221044094 276.26262626262627,333.22149977847573 271.2121212121212,335.7288227150424 266.16161616161617,338.8372227096721 261.1111111111111,342.2234875737131 256.06060606060606,344.5122241114745 251.010101010101,347.9272042058809 245.95959595959596,350.44419365563994 240.9090909090909,353.0962299808802 235.85858585858585,355.9802152378681 230.8080808080808,358.73711427729785 225.75757575757575,361.2049656183291 220.7070707070707,364.1743857933846 215.65656565656565,365.75978872666593 210.6060606060606,368.535831253006 205.55555555555554,370.76846410635693 200.50505050505052,374.0158913054294 195.45454545454544,376.1009202931228 190.40404040404042,379.2516349754033 185.35353535353534,382.00156843915033 180.3030303030303,384.15255716392085 175.25252525252526,386.69447105455816 170.2020202020202,389.74482458516525 165.15151515151516,392.10482796528584 160.1010101010101,394.89527549167724 155.05050505050505,397.4955675404173 150,399.9976307565705 "/><text class="poloto_text" alignment-baseline="middle" text-anchor="start" font-size="large" x="675" y="200">direct_par</text><line class="poloto2stroke" stroke="black" x1="680" x2="730" y1="181.25" y2="181.25"/><polyline class="poloto2stroke" fill="none" stroke="black" points="650,284.43503416054153 644.9494949494949,291.6361600250192 639.8989898989898,323.6000022112939 634.8484848484848,323.80167221201253 629.7979797979798,325.25785660864915 624.7474747474747,317.11708880003346 619.6969696969697,326.5277237019902 614.6464646464647,323.70477015574613 609.5959595959596,326.41603756672384 604.5454545454545,324.61811349781675 599.4949494949494,325.7439305906445 594.4444444444445,330.07026386264073 589.3939393939394,327.4702561231122 584.3434343434344,327.4552825046378 579.2929292929293,327.5713754326831 574.2424242424242,328.7532488250527 569.1919191919192,334.56718266156065 564.1414141414141,327.0661105789088 559.090909090909,338.36872851392366 554.040404040404,328.6889949432448 548.989898989899,335.51056801031723 543.939393939394,340.5443099854923 538.8888888888889,340.88898751961534 533.8383838383838,339.4848317086905 528.7878787878788,341.4135380149057 523.7373737373737,343.67156915782084 518.6868686868687,342.0958801226004 513.6363636363636,345.39708914752254 508.5858585858586,341.6136916998295 503.5353535353535,344.9061345240624 498.4848484848485,346.0221429490921 493.4343434343434,346.93932446551844 488.3838383838384,350.3546836388736 483.3333333333333,343.32907132765297 478.2828282828283,343.3588290251274 473.2323232323232,349.1929014307861 468.1818181818182,351.97273474661336 463.1313131313131,346.5552701055972 458.0808080808081,349.2722237008056 453.030303030303,349.6944702648103 447.979797979798,348.58713327073264 442.9292929292929,349.0032671866893 437.8787878787879,357.73331322108913 432.8282828282828,351.0653145131165 427.77777777777777,348.71862628106965 422.72727272727275,349.2121870723022 417.67676767676767,347.111426308237 412.62626262626264,347.9443575283105 407.57575757575756,347.0508210613105 402.52525252525254,352.6847397820454 397.47474747474746,354.68902495366154 392.4242424242424,353.05666361560765 387.37373737373736,354.77033738816186 382.32323232323233,352.50363481429474 377.27272727272725,357.3684497329468 372.22222222222223,353.4434662979071 367.1717171717172,356.1292406495834 362.1212121212121,353.60443269650705 357.07070707070704,357.75601057314367 352.020202020202,356.00537660308936 346.969696969697,359.2997622069345 341.9191919191919,360.51414161915676 336.86868686868684,360.8701441368728 331.8181818181818,362.3151930893908 326.7676767676768,363.073161447355 321.7171717171717,363.05491827294793 316.66666666666663,364.10510911550614 311.6161616161616,363.9589741807749 306.5656565656566,366.18004512618984 301.5151515151515,367.6539514636791 296.4646464646464,365.2757996788885 291.4141414141414,370.14208352846686 286.3636363636364,371.4214749803945 281.3131313131313,368.7570238195837 276.26262626262627,374.698944186153 271.2121212121212,348.25179055572187 266.16161616161617,376.5627806072687 261.1111111111111,373.159030726718 256.06060606060606,377.270473619659 251.010101010101,373.901551617522 245.95959595959596,380.20459206761507 240.9090909090909,383.42311449684775 235.85858585858585,382.7564567806562 230.8080808080808,383.368195434152 225.75757575757575,383.96524477838494 220.7070707070707,382.66798923099884 215.65656565656565,375.70942650883296 210.6060606060606,371.48980396090116 205.55555555555554,373.1653802991091 200.50505050505052,377.0639703623442 195.45454545454544,380.77567450386067 190.40404040404042,379.8707182835305 185.35353535353534,384.9994669202284 180.3030303030303,384.6482502742399 175.25252525252526,387.44746400132044 170.2020202020202,390.28951364960625 165.15151515151516,392.04156916571833 160.1010101010101,394.92489103454596 155.05050505050505,397.7033501891841 150,399.9982941447308 "/><text class="poloto_text" alignment-baseline="middle" text-anchor="start" font-size="large" x="675" y="250">direct_seq</text><line class="poloto3stroke" stroke="black" x1="680" x2="730" y1="231.25" y2="231.25"/><polyline class="poloto3stroke" fill="none" stroke="black" points="650,146.50464727098696 644.9494949494949,149.6932698481394 639.8989898989898,153.75666448433023 634.8484848484848,154.85476142903286 629.7979797979798,158.78149810421039 624.7474747474747,161.55090674894785 619.6969696969697,163.5510220521281 614.6464646464647,167.56641581643734 609.5959595959596,170.6182856628393 604.5454545454545,173.68977284483748 599.4949494949494,175.79342408588667 594.4444444444445,178.52227128311117 589.3939393939394,180.53769189884594 584.3434343434344,182.5944321199911 579.2929292929293,186.45857338376138 574.2424242424242,189.46078388788106 569.1919191919192,192.2427969076635 564.1414141414141,194.64042387344452 559.090909090909,198.03213799737333 554.040404040404,200.76013226696318 548.989898989899,201.87310806040307 543.939393939394,205.69327616612188 538.8888888888889,207.59539956105817 533.8383838383838,210.26596336991707 528.7878787878788,214.6084548821025 523.7373737373737,215.82207613642734 518.6868686868687,218.42132571805845 513.6363636363636,221.9458122437762 508.5858585858586,223.87086991511 503.5353535353535,226.90051625814328 498.4848484848485,229.22569175985032 493.4343434343434,232.81466909171894 488.3838383838384,235.38297635416083 483.3333333333333,238.44583949007563 478.2828282828283,239.48214656613703 473.2323232323232,241.91507525901753 468.1818181818182,245.03702732606396 463.1313131313131,247.378266298223 458.0808080808081,249.80778328056502 453.030303030303,252.3515925659459 447.979797979798,253.3758165005169 442.9292929292929,257.21664440894085 437.8787878787879,260.1663998635316 432.8282828282828,260.1246064094353 427.77777777777777,262.4467966644212 422.72727272727275,249.8130430009785 417.67676767676767,253.32066051347823 412.62626262626264,255.8217760322596 407.57575757575756,258.84398295092427 402.52525252525254,260.23420761048374 397.47474747474746,264.31096477961694 392.4242424242424,266.9903421740336 387.37373737373736,270.0520206882336 382.32323232323233,273.22088377518406 377.27272727272725,275.98176314357534 372.22222222222223,279.48492647842767 367.1717171717172,282.0330951717188 362.1212121212121,284.4121946538812 357.07070707070704,287.0217267519963 352.020202020202,290.7882078016027 346.969696969697,293.29576766251233 341.9191919191919,296.2420640216959 336.86868686868684,299.0185803967219 331.8181818181818,301.81272394286333 326.7676767676768,304.5173100873698 321.7171717171717,307.52686524612096 316.66666666666663,310.29281479545136 311.6161616161616,312.93262582459545 306.5656565656566,315.81499999605126 301.5151515151515,318.39937072894514 296.4646464646464,320.7906955072037 291.4141414141414,324.14544943363234 286.3636363636364,331.66002620383233 281.3131313131313,333.4020361278033 276.26262626262627,336.7746541496904 271.2121212121212,339.239804553212 266.16161616161617,342.01257752361937 261.1111111111111,345.2224285219001 256.06060606060606,347.6576790733415 251.010101010101,350.0793775523662 245.95959595959596,353.4414287485577 240.9090909090909,355.4084694134622 235.85858585858585,358.2796607559308 230.8080808080808,361.25870005931006 225.75757575757575,363.35472233651626 220.7070707070707,365.8276438584867 215.65656565656565,364.36624712630515 210.6060606060606,367.0110335666512 205.55555555555554,369.9521175902899 200.50505050505052,372.8979874856562 195.45454545454544,375.6926996502207 190.40404040404042,378.4821994792403 185.35353535353534,381.36770105202305 180.3030303030303,385.0966532857063 175.25252525252526,387.62596280129867 170.2020202020202,390.2464881889266 165.15151515151516,391.82573108929125 160.1010101010101,394.70602032652914 155.05050505050505,397.61137615925105 150,399.998151990125 "/><text class="poloto_text" alignment-baseline="middle" text-anchor="start" font-size="large" x="675" y="300">indirect_par</text><line class="poloto4stroke" stroke="black" x1="680" x2="730" y1="281.25" y2="281.25"/><polyline class="poloto4stroke" fill="none" stroke="black" points="650,265.6320549159037 644.9494949494949,296.3211967522411 639.8989898989898,300.9143542192671 634.8484848484848,302.1539897664479 629.7979797979798,302.3433397013332 624.7474747474747,307.9307738659814 619.6969696969697,302.6968782058825 614.6464646464647,305.79618030574295 609.5959595959596,312.0593226964833 604.5454545454545,309.04853553114884 599.4949494949494,306.59158270989326 594.4444444444445,315.6218118868102 589.3939393939394,307.26800170901424 584.3434343434344,315.1363065232379 579.2929292929293,309.73808013886924 574.2424242424242,315.2379944512319 569.1919191919192,312.6379393268347 564.1414141414141,314.6225597779861 559.090909090909,318.9857110928767 554.040404040404,308.06492042895945 548.989898989899,320.08513481389986 543.939393939394,323.1629715682891 538.8888888888889,325.61537544216003 533.8383838383838,328.432453264699 528.7878787878788,325.46592356662745 523.7373737373737,321.6675998853286 518.6868686868687,331.68300786509843 513.6363636363636,328.44335178447466 508.5858585858586,333.08422581417074 503.5353535353535,333.22941305153023 498.4848484848485,332.57071599326184 493.4343434343434,332.78584329666006 488.3838383838384,331.26393608728927 483.3333333333333,339.4560690934564 478.2828282828283,333.23637862721296 473.2323232323232,331.08671667876297 468.1818181818182,334.19772284116516 463.1313131313131,341.40562474185117 458.0808080808081,338.29248626036247 453.030303030303,343.4927386637625 447.979797979798,338.31333560254205 442.9292929292929,342.33313615963016 437.8787878787879,342.16814204720004 432.8282828282828,338.532538004639 427.77777777777777,346.474289365177 422.72727272727275,341.557588015419 417.67676767676767,339.3893038136132 412.62626262626264,340.1379847373338 407.57575757575756,343.4641182031342 402.52525252525254,347.6313804712741 397.47474747474746,343.9266419054403 392.4242424242424,350.3036975202709 387.37373737373736,343.947017398934 382.32323232323233,348.5832003266397 377.27272727272725,333.90237295524423 372.22222222222223,351.8419525093052 367.1717171717172,351.5137649094515 362.1212121212121,349.1510132069526 357.07070707070704,350.41116640223277 352.020202020202,347.76168885989637 346.969696969697,354.8935380464956 341.9191919191919,352.15582987884477 336.86868686868684,357.0720573799169 331.8181818181818,357.0798284983656 326.7676767676768,358.8297990802597 321.7171717171717,359.72977988938794 316.66666666666663,359.3620259242616 311.6161616161616,361.0020636110271 306.5656565656566,360.56057879037485 301.5151515151515,363.01701037807595 296.4646464646464,364.02242251981676 291.4141414141414,366.7017051444962 286.3636363636364,363.21863299392606 281.3131313131313,365.4755742848636 276.26262626262627,365.12416809940083 271.2121212121212,366.657589831839 266.16161616161617,372.3461906909267 261.1111111111111,374.4800734781362 256.06060606060606,374.9930620654906 251.010101010101,370.1522238903451 245.95959595959596,374.2058572436064 240.9090909090909,374.29944235907146 235.85858585858585,375.220414664985 230.8080808080808,375.8363705717853 225.75757575757575,376.10447415826707 220.7070707070707,381.8081434055663 215.65656565656565,369.8867738565044 210.6060606060606,371.53581466830195 205.55555555555554,371.5522572177027 200.50505050505052,374.7624872949321 195.45454545454544,374.5632813073801 190.40404040404042,378.92231013870344 185.35353535353534,378.64401880547484 180.3030303030303,382.6324505795564 175.25252525252526,385.8827682556129 170.2020202020202,389.0878807670347 165.15151515151516,391.76654738842245 160.1010101010101,394.79207124788843 155.05050505050505,397.41979913554206 150,399.99725167762176 "/><text class="poloto_text" alignment-baseline="middle" text-anchor="start" font-size="large" x="675" y="350">indirect_seq</text><line class="poloto5stroke" stroke="black" x1="680" x2="730" y1="331.25" y2="331.25"/><polyline class="poloto5stroke" fill="none" stroke="black" points="650,100.57894832443156 644.9494949494949,100.4904807747742 639.8989898989898,100 634.8484848484848,112.38725757703793 629.7979797979798,114.96049286581314 624.7474747474747,117.7554419547206 619.6969696969697,120.85753976182787 614.6464646464647,125.06834872420188 609.5959595959596,127.49862386444136 604.5454545454545,132.8750058243901 599.4949494949494,135.0866945658243 594.4444444444445,139.07275709647638 589.3939393939394,140.10574723173653 584.3434343434344,144.85977632762533 579.2929292929293,149.016898233887 574.2424242424242,152.20225125510672 569.1919191919192,155.88850972219043 564.1414141414141,159.61499794270696 559.090909090909,163.22942094900836 554.040404040404,165.74328299744045 548.989898989899,167.87138483068202 543.939393939394,172.40227858038094 538.8888888888889,175.40221461080833 533.8383838383838,178.8993600673497 528.7878787878788,182.15977072041585 523.7373737373737,185.17667053379847 518.6868686868687,188.72167470761565 513.6363636363636,192.51786606982793 508.5858585858586,195.2566167045877 503.5353535353535,196.0413575133053 498.4848484848485,201.73540763228075 493.4343434343434,205.71218272868924 488.3838383838384,208.12260360898955 483.3333333333333,210.6093141277196 478.2828282828283,213.55347816781668 473.2323232323232,215.7622764322669 468.1818181818182,219.08973667438778 463.1313131313131,222.845840437773 458.0808080808081,226.2807221769872 453.030303030303,229.58875462298624 447.979797979798,230.16647094083447 442.9292929292929,233.63963965386932 437.8787878787879,238.48763294417193 432.8282828282828,239.38595528289952 427.77777777777777,242.2750581056951 422.72727272727275,237.86646470182677 417.67676767676767,241.54338834979825 412.62626262626264,244.41704370543354 407.57575757575756,248.3459600845662 402.52525252525254,251.88437776164938 397.47474747474746,254.48874490908818 392.4242424242424,257.75247250295564 387.37373737373736,260.7238354576233 382.32323232323233,263.820341850237 377.27272727272725,267.2396339676851 372.22222222222223,271.3780862357223 367.1717171717172,273.32953727886076 362.1212121212121,276.2728483913232 357.07070707070704,279.580217449162 352.020202020202,282.6548320324871 346.969696969697,285.31672441039404 341.9191919191919,288.45232331959437 336.86868686868684,291.3934547281017 331.8181818181818,295.025220596307 326.7676767676768,298.0851458703692 321.7171717171717,301.33015644114363 316.66666666666663,304.52455997226406 311.6161616161616,307.63831445704443 306.5656565656566,310.8020599781872 301.5151515151515,313.61207745530623 296.4646464646464,316.6706759530479 291.4141414141414,319.9600387608225 286.3636363636364,319.01428416863644 281.3131313131313,321.8326887674959 276.26262626262627,325.24648424018756 271.2121212121212,328.7097021308186 266.16161616161617,332.3424156963957 261.1111111111111,335.6331052804908 256.06060606060606,339.1334729080963 251.010101010101,341.91363791800364 245.95959595959596,345.5381539013147 240.9090909090909,348.57078549106916 235.85858585858585,351.540395205599 230.8080808080808,355.1151570768906 225.75757575757575,357.45217879574517 220.7070707070707,360.6816945144907 215.65656565656565,362.248143500336 210.6060606060606,365.18922752397475 205.55555555555554,368.2241809722901 200.50505050505052,371.020930686204 195.45454545454544,374.55086647180957 190.40404040404042,377.4046201826371 185.35353535353534,380.54296741421564 180.3030303030303,382.5926472899409 175.25252525252526,385.43299108295747 170.2020202020202,388.9593256185502 165.15151515151516,391.5481505290916 160.1010101010101,394.61229305645827 155.05050505050505,397.3184429016282 150,399.99715690788463 "/><text class="poloto_text" alignment-baseline="start" text-anchor="middle" font-size="x-large" x="400" y="37.5">Bench of query:128_bytes with abspiral(num,1.5)</text><text class="poloto_text" alignment-baseline="start" text-anchor="middle" font-size="x-large" x="400" y="481.25">Number of Elements</text><text class="poloto_text" alignment-baseline="start" text-anchor="middle" font-size="x-large" transform="rotate(-90,37.5,250)" x="37.5" y="250">Time in Seconds</text><path stroke="black" fill="none" class="poloto_axis_lines" d=" M 150 100 L 150 400 L 650 400"/></svg>