<svg class="poloto" height="500" viewBox="0 0 800 500" width="800" xmlns="http://www.w3.org/2000/svg">
<rect class="poloto_background" fill="white" height="500" width="800" x="0" y="0"/>
<style>
.poloto {
font-family: "Arial";
stroke-width:2;
}
.poloto_text{fill: var(--poloto_fg_color,black);  }
.poloto_axis_lines{stroke: var(--poloto_fg_color,black);stoke-width:3;fill:none}
.poloto_background{fill: var(--poloto_bg_color,aliceblue); }
.poloto0stroke{stroke:  var(--poloto_color0,blue); }
.poloto1stroke{stroke:  var(--poloto_color1,red); }
.poloto2stroke{stroke:  var(--poloto_color2,green); }
.poloto3stroke{stroke:  var(--poloto_color3,gold); }
.poloto4stroke{stroke:  var(--poloto_color4,aqua); }
.poloto5stroke{stroke:  var(--poloto_color5,brown); }
.poloto6stroke{stroke:  var(--poloto_color6,lime); }
.poloto7stroke{stroke:  var(--poloto_color7,chocolate); }
.poloto0fill{fill:var(--poloto_color0,blue);}
.poloto1fill{fill:var(--poloto_color1,red);}
.poloto2fill{fill:var(--poloto_color2,green);}
.poloto3fill{fill:var(--poloto_color3,gold);}
.poloto4fill{fill:var(--poloto_color4,aqua);}
.poloto5fill{fill:var(--poloto_color5,brown);}
.poloto6fill{fill:var(--poloto_color6,lime);}
.poloto7fill{fill:var(--poloto_color7,chocolate);}
</style>
<line class="poloto_axis_lines" stroke="black" x1="150" x2="150" y1="400" y2="405"/>
<text alignment-baseline="start" class="poloto_text" text-anchor="middle" x="150" y="440">
0
</text>
<line class="poloto_axis_lines" stroke="black" x1="234.17508" x2="234.17508" y1="400" y2="405"/>
<text alignment-baseline="start" class="poloto_text" text-anchor="middle" x="234.17508" y="440">
5000
</text>
<line class="poloto_axis_lines" stroke="black" x1="318.35016" x2="318.35016" y1="400" y2="405"/>
<text alignment-baseline="start" class="poloto_text" text-anchor="middle" x="318.35016" y="440">
10000
</text>
<line class="poloto_axis_lines" stroke="black" x1="402.52527" x2="402.52527" y1="400" y2="405"/>
<text alignment-baseline="start" class="poloto_text" text-anchor="middle" x="402.52527" y="440">
15000
</text>
<line class="poloto_axis_lines" stroke="black" x1="486.70035" x2="486.70035" y1="400" y2="405"/>
<text alignment-baseline="start" class="poloto_text" text-anchor="middle" x="486.70035" y="440">
20000
</text>
<line class="poloto_axis_lines" stroke="black" x1="570.8754" x2="570.8754" y1="400" y2="405"/>
<text alignment-baseline="start" class="poloto_text" text-anchor="middle" x="570.8754" y="440">
25000
</text>
<line class="poloto_axis_lines" stroke="black" x1="150" x2="144" y1="353.9712" y2="353.9712"/>
<text alignment-baseline="middle" class="poloto_text" text-anchor="end" x="120" y="353.9712">
0.002
</text>
<line class="poloto_axis_lines" stroke="black" x1="150" x2="144" y1="307.93967" y2="307.93967"/>
<text alignment-baseline="middle" class="poloto_text" text-anchor="end" x="120" y="307.93967">
0.004
</text>
<line class="poloto_axis_lines" stroke="black" x1="150" x2="144" y1="261.90814" y2="261.90814"/>
<text alignment-baseline="middle" class="poloto_text" text-anchor="end" x="120" y="261.90814">
0.006
</text>
<line class="poloto_axis_lines" stroke="black" x1="150" x2="144" y1="215.87665" y2="215.87665"/>
<text alignment-baseline="middle" class="poloto_text" text-anchor="end" x="120" y="215.87665">
0.008
</text>
<line class="poloto_axis_lines" stroke="black" x1="150" x2="144" y1="169.84512" y2="169.84512"/>
<text alignment-baseline="middle" class="poloto_text" text-anchor="end" x="120" y="169.84512">
0.010
</text>
<line class="poloto_axis_lines" stroke="black" x1="150" x2="144" y1="123.8136" y2="123.8136"/>
<text alignment-baseline="middle" class="poloto_text" text-anchor="end" x="120" y="123.8136">
0.012
</text>
<text alignment-baseline="middle" class="poloto_text" font-size="large" text-anchor="start" x="675" y="100">
default_par
</text>
<line class="poloto0stroke" x1="680" x2="730" y1="81.25" y2="81.25"/>
<polyline class="poloto0stroke" fill="none" points="650,309.28632 644.94946,254.74509 639.899,324.797 634.8485,328.66003 629.798,328.91837 624.7475,329.32788 619.697,327.6394 614.6465,327.9453 609.59595,328.93417 604.5455,329.79407 599.495,330.58496 594.44446,329.4467 589.3939,331.68402 584.34344,332.59427 579.29297,334.75436 574.24243,335.23218 569.1919,334.858 564.1414,335.2548 559.09094,337.40985 554.0404,336.17712 548.98987,337.42996 543.9394,337.4765 538.8889,312.11707 533.8384,339.33536 528.78784,342.12598 523.73737,340.65067 518.6869,340.9417 513.63635,342.4075 508.58588,344.1806 503.53537,345.0058 498.48486,343.43823 493.43436,343.97852 488.38385,345.61746 483.33334,344.65277 478.28284,345.66965 473.23233,346.01126 468.18182,346.56082 463.13132,345.47348 458.0808,348.42203 453.0303,350.44797 447.9798,348.775 442.9293,351.06982 437.87878,348.23093 432.82828,351.69458 427.77777,335.29538 422.72726,354.79013 417.67676,355.84723 412.62628,356.3655 407.57578,355.7587 402.52527,353.54102 397.47473,356.1407 392.42426,356.5084 387.37375,359.0315 382.32324,360.02197 377.27274,357.79453 372.22223,360.86255 367.17172,358.46005 362.12122,359.77884 357.0707,361.49893 352.0202,359.47342 346.9697,365.6955 341.9192,364.02042 336.86868,364.41602 331.81818,364.65768 326.7677,366.20416 321.71716,367.14355 316.6667,365.37115 311.61615,367.82413 306.56567,366.56378 301.51514,368.47342 296.46466,369.3015 291.41412,371.86725 286.36365,374.4348 281.31314,375.9008 276.26263,377.54398 271.21213,376.1092 266.16162,376.98474 261.1111,375.7239 256.0606,378.97067 251.0101,367.194 245.9596,381.74423 240.90909,378.38113 235.85858,382.8513 230.80807,382.20358 225.75757,375.38837 220.70706,376.36667 215.65657,378.95218 210.60606,379.96597 205.55556,381.2637 200.50505,382.58145 195.45454,384.01645 190.40404,385.5418 185.35353,386.43402 180.30302,387.17316 175.25253,389.35184 170.20203,391.55646 165.15152,393.87177 160.10101,395.69885 155.0505,398.1392 150,400 " stroke="black"/>
<text alignment-baseline="middle" class="poloto_text" font-size="large" text-anchor="start" x="675" y="150">
default_seq
</text>
<line class="poloto1stroke" x1="680" x2="730" y1="131.25" y2="131.25"/>
<polyline class="poloto1stroke" fill="none" points="650,135.0867 644.94946,136.23135 639.899,148.45331 634.8485,173.61241 629.798,176.97365 624.7475,178.95146 619.697,182.25726 614.6465,183.24493 609.59595,186.90018 604.5455,189.1348 599.495,192.53468 594.44446,192.67532 589.3939,196.04018 584.34344,198.76445 579.29297,201.31996 574.24243,203.17279 569.1919,205.76965 564.1414,207.82217 559.09094,210.42683 554.0404,211.92415 548.98987,214.85773 543.9394,216.36153 538.8889,216.58324 533.8384,221.18037 528.78784,217.19662 523.73737,226.26128 518.6869,228.43674 513.63635,230.78531 508.58588,232.91132 503.53537,235.01666 498.48486,236.87138 493.43436,238.80147 488.38385,240.21751 483.33334,242.56328 478.28284,245.0338 473.23233,247.52748 468.18182,249.80743 463.13132,252.45996 458.0808,254.27 453.0303,256.03204 447.9798,258.5794 442.9293,260.7459 437.87878,263.70465 432.82828,264.76447 427.77777,264.0612 422.72726,273.37598 417.67676,275.7319 412.62628,277.95233 407.57578,281.0931 402.52527,282.94745 397.47473,285.23154 392.42426,287.66568 387.37375,289.79382 382.32324,292.68854 377.27274,295.08936 372.22223,297.74487 367.17172,300.00336 362.12122,301.6552 357.0707,303.47516 352.0202,305.54013 346.9697,307.85626 341.9192,310.44843 336.86868,312.50946 331.81818,314.69928 326.7677,313.64862 321.71716,319.11386 316.6667,321.5988 311.61615,324.1526 306.56567,326.57556 301.51514,329.4274 296.46466,331.5671 291.41412,333.98016 286.36365,338.84186 281.31314,338.6488 276.26263,343.52057 271.21213,345.7481 266.16162,347.83463 261.1111,350.18723 256.0606,352.3908 251.0101,354.36475 245.9596,357.16928 240.90909,359.17114 235.85858,361.12555 230.80807,362.67932 225.75757,365.56778 220.70706,367.48984 215.65657,371.17212 210.60606,372.5603 205.55556,375.38074 200.50505,377.47955 195.45454,379.9841 190.40404,382.11792 185.35353,384.37653 180.30302,387.18933 175.25253,389.25714 170.20203,391.46707 165.15152,393.81488 160.10101,395.65054 155.0505,398.10083 150,399.99997 " stroke="black"/>
<text alignment-baseline="middle" class="poloto_text" font-size="large" text-anchor="start" x="675" y="200">
direct_par
</text>
<line class="poloto2stroke" x1="680" x2="730" y1="181.25" y2="181.25"/>
<polyline class="poloto2stroke" fill="none" points="650,328.38602 644.94946,327.51703 639.899,305.02393 634.8485,331.4132 629.798,331.17432 624.7475,332.63068 619.697,311.79773 614.6465,333.47937 609.59595,333.92908 604.5455,334.2099 599.495,332.5238 594.44446,333.1526 589.3939,334.2956 584.34344,336.7951 579.29297,337.26523 574.24243,335.6737 569.1919,339.75897 564.1414,338.99777 559.09094,338.56012 554.0404,340.71835 548.98987,339.7605 543.9394,339.94724 538.8889,341.32407 533.8384,319.95316 528.78784,341.71222 523.73737,343.60904 518.6869,344.36368 513.63635,346.0382 508.58588,344.53363 503.53537,347.72562 498.48486,345.4598 493.43436,346.0736 488.38385,346.46667 483.33334,347.24725 478.28284,347.0516 473.23233,346.00174 468.18182,348.2169 463.13132,347.86804 458.0808,349.6858 453.0303,351.28705 447.9798,349.1839 442.9293,350.48624 437.87878,351.0643 432.82828,354.81284 427.77777,334.83667 422.72726,354.5947 417.67676,356.86328 412.62628,354.92093 407.57578,357.06714 402.52527,356.28348 397.47473,355.97202 392.42426,357.73325 387.37375,357.75717 382.32324,360.33218 377.27274,358.69443 372.22223,361.7648 367.17172,359.57318 362.12122,360.14975 357.0707,361.71573 352.0202,361.3909 346.9697,366.82703 341.9192,367.25626 336.86868,367.14038 331.81818,365.9069 326.7677,367.7912 321.71716,366.6852 316.6667,369.01636 311.61615,367.1764 306.56567,372.00522 301.51514,371.1822 296.46466,369.05215 291.41412,374.04446 286.36365,375.34305 281.31314,377.10242 276.26263,375.586 271.21213,377.85596 266.16162,378.26077 261.1111,379.31818 256.0606,381.07886 251.0101,380.32303 245.9596,375.39203 240.90909,380.99924 235.85858,379.34256 230.80807,381.36954 225.75757,381.37555 220.70706,379.4614 215.65657,380.3091 210.60606,381.9302 205.55556,380.61325 200.50505,382.01727 195.45454,383.41467 190.40404,384.67673 185.35353,386.95972 180.30302,387.57434 175.25253,389.68002 170.20203,391.83524 165.15152,394.11057 160.10101,395.9021 155.0505,398.2133 150,399.9989 " stroke="black"/>
<text alignment-baseline="middle" class="poloto_text" font-size="large" text-anchor="start" x="675" y="250">
direct_seq
</text>
<line class="poloto3stroke" x1="680" x2="730" y1="231.25" y2="231.25"/>
<polyline class="poloto3stroke" fill="none" points="650,153.14554 644.94946,154.99355 639.899,158.55978 634.8485,172.34148 629.798,175.15985 624.7475,178.77957 619.697,178.16913 614.6465,184.26219 609.59595,186.24156 604.5455,188.65225 599.495,192.0415 594.44446,191.64275 589.3939,195.35262 584.34344,199.11505 579.29297,201.15224 574.24243,202.88402 569.1919,205.26338 564.1414,208.06863 559.09094,210.61859 554.0404,212.27956 548.98987,215.00475 543.9394,216.9844 538.8889,218.78772 533.8384,220.70702 528.78784,223.74146 523.73737,225.74785 518.6869,228.18936 513.63635,230.80353 508.58588,232.7386 503.53537,235.70172 498.48486,236.93884 493.43436,238.43974 488.38385,240.25378 483.33334,242.70639 478.28284,243.68343 473.23233,247.71129 468.18182,250.32642 463.13132,253.10957 458.0808,254.81175 453.0303,256.50342 447.9798,259.0196 442.9293,261.45718 437.87878,264.10303 432.82828,264.74292 427.77777,266.1714 422.72726,274.79297 417.67676,277.1731 412.62628,279.39105 407.57578,282.34518 402.52527,284.41794 397.47473,286.2806 392.42426,289.54218 387.37375,291.72403 382.32324,294.00848 377.27274,296.1248 372.22223,298.73904 367.17172,301.17764 362.12122,302.612 357.0707,304.5605 352.0202,306.4771 346.9697,309.40384 341.9192,311.25186 336.86868,313.20547 331.81818,315.5765 326.7677,317.49188 321.71716,319.67343 316.6667,322.3731 311.61615,324.77713 306.56567,327.48355 301.51514,329.86874 296.46466,331.90048 291.41412,334.70093 286.36365,337.9161 281.31314,340.63092 276.26263,343.37845 271.21213,345.58456 266.16162,347.0853 261.1111,349.811 256.0606,351.98975 251.0101,354.59036 245.9596,356.91745 240.90909,359.2429 235.85858,361.05072 230.80807,363.52655 225.75757,366.03384 220.70706,367.5704 215.65657,371.31137 210.60606,373.3368 205.55556,375.72012 200.50505,377.74832 195.45454,380.22617 190.40404,382.15082 185.35353,384.55807 180.30302,387.17764 175.25253,389.20526 170.20203,391.5317 165.15152,393.9564 160.10101,395.71808 155.0505,398.13022 150,399.99927 " stroke="black"/>
<text alignment-baseline="middle" class="poloto_text" font-size="large" text-anchor="start" x="675" y="300">
indirect_par
</text>
<line class="poloto4stroke" x1="680" x2="730" y1="281.25" y2="281.25"/>
<polyline class="poloto4stroke" fill="none" points="650,269.2281 644.94946,307.72125 639.899,316.84372 634.8485,316.49146 629.798,317.727 624.7475,318.12967 619.697,319.7425 614.6465,322.28656 609.59595,321.86444 604.5455,320.82455 599.495,322.15497 594.44446,320.62897 589.3939,324.18527 584.34344,324.79626 579.29297,324.45255 574.24243,326.2248 569.1919,328.247 564.1414,325.9932 559.09094,329.48077 554.0404,308.8648 548.98987,330.366 543.9394,331.20917 538.8889,332.1908 533.8384,331.47394 528.78784,331.748 523.73737,335.45428 518.6869,333.15955 513.63635,333.84473 508.58588,336.83542 503.53537,337.20203 498.48486,336.07935 493.43436,337.60727 488.38385,338.32083 483.33334,338.7789 478.28284,338.27637 473.23233,339.81268 468.18182,338.364 463.13132,340.59222 458.0808,342.84982 453.0303,344.23694 447.9798,344.6913 442.9293,343.47943 437.87878,342.0504 432.82828,344.28955 427.77777,329.95062 422.72726,348.1447 417.67676,347.64767 412.62628,349.42267 407.57578,349.42 402.52527,349.42282 397.47473,349.90427 392.42426,349.87823 387.37375,353.45248 382.32324,354.63998 377.27274,353.651 372.22223,356.63162 367.17172,354.4492 362.12122,357.26804 357.0707,357.25775 352.0202,357.87833 346.9697,361.56494 341.9192,359.50858 336.86868,362.98425 331.81818,362.1471 326.7677,360.92593 321.71716,365.11407 316.6667,363.76093 311.61615,366.8969 306.56567,367.6053 301.51514,366.1733 296.46466,369.04007 291.41412,369.08484 286.36365,370.9743 281.31314,372.6541 276.26263,372.09375 271.21213,373.6337 266.16162,374.10455 261.1111,375.17603 256.0606,376.43994 251.0101,368.4827 245.9596,378.8237 240.90909,378.47342 235.85858,378.96936 230.80807,377.53348 225.75757,373.7959 220.70706,373.14606 215.65657,377.95596 210.60606,377.9768 205.55556,378.4982 200.50505,380.14105 195.45454,381.6999 190.40404,385.0146 185.35353,384.6193 180.30302,385.8579 175.25253,388.09775 170.20203,390.775 165.15152,393.398 160.10101,395.4536 155.0505,397.97775 150,399.99982 " stroke="black"/>
<text alignment-baseline="middle" class="poloto_text" font-size="large" text-anchor="start" x="675" y="350">
indirect_seq
</text>
<line class="poloto5stroke" x1="680" x2="730" y1="331.25" y2="331.25"/>
<polyline class="poloto5stroke" fill="none" points="650,100 644.94946,108.45032 639.899,117.95294 634.8485,149.49684 629.798,152.07608 624.7475,155.36145 619.697,154.48749 614.6465,160.54422 609.59595,164.07364 604.5455,166.34038 599.495,169.50902 594.44446,170.308 589.3939,174.34708 584.34344,177.34961 579.29297,180.73666 574.24243,183.37659 569.1919,185.90648 564.1414,188.19757 559.09094,179.36057 554.0404,193.47972 548.98987,195.83145 543.9394,198.32895 538.8889,200.67679 533.8384,203.20808 528.78784,206.41714 523.73737,208.73404 518.6869,211.22333 513.63635,213.75948 508.58588,216.65277 503.53537,219.21617 498.48486,221.35925 493.43436,223.46683 488.38385,225.2055 483.33334,226.93675 478.28284,229.47473 473.23233,233.57355 468.18182,235.74768 463.13132,238.52928 458.0808,239.88498 453.0303,242.68884 447.9798,245.37904 442.9293,247.3915 437.87878,250.94987 432.82828,252.73315 427.77777,253.39467 422.72726,260.6609 417.67676,262.93927 412.62628,265.93134 407.57578,269.03165 402.52527,271.61212 397.47473,274.44037 392.42426,277.1682 387.37375,279.9682 382.32324,282.6645 377.27274,285.3064 372.22223,288.07336 367.17172,291.0841 362.12122,292.57022 357.0707,294.6611 352.0202,296.78125 346.9697,299.66675 341.9192,302.31522 336.86868,304.6408 331.81818,306.93057 326.7677,309.6326 321.71716,312.28455 316.6667,315.02798 311.61615,317.47717 306.56567,320.4387 301.51514,323.65863 296.46466,325.85092 291.41412,328.56537 286.36365,331.86118 281.31314,334.4275 276.26263,337.2035 271.21213,339.62653 266.16162,342.13666 261.1111,345.2074 256.0606,347.2423 251.0101,350.34018 245.9596,353.0719 240.90909,355.39587 235.85858,357.47714 230.80807,360.2868 225.75757,362.94778 220.70706,364.79382 215.65657,368.62668 210.60606,370.81317 205.55556,373.37616 200.50505,375.9759 195.45454,378.47272 190.40404,380.8934 185.35353,383.36725 180.30302,386.05972 175.25253,388.47806 170.20203,390.88727 165.15152,393.43192 160.10101,395.44305 155.0505,397.99597 150,399.9997 " stroke="black"/>
<text alignment-baseline="start" class="poloto_text" font-size="x-large" text-anchor="middle" x="400" y="37.5">
Bench of query:128_bytes with abspiral(num,0.1)
</text>
<text alignment-baseline="start" class="poloto_text" font-size="large" text-anchor="middle" x="400" y="481.25">
Number of Elements
</text>
<text alignment-baseline="start" class="poloto_text" font-size="large" text-anchor="middle" transform="rotate(-90,37.5,250)" x="37.5" y="250">
Time in Seconds
</text>
<path class="poloto_axis_lines" d="M150,100 L150,400 L650,400" stroke="black"/>
</svg>