<svg class="poloto" height="500" viewBox="0 0 800 500" width="800" xmlns="http://www.w3.org/2000/svg">
<rect class="poloto_background" fill="white" height="500" width="800" x="0" y="0"/>
<style>
.poloto {
font-family: "Arial";
stroke-width:2;
}
.poloto_text{fill: var(--poloto_fg_color,black);  }
.poloto_axis_lines{stroke: var(--poloto_fg_color,black);stoke-width:3;fill:none}
.poloto_background{fill: var(--poloto_bg_color,aliceblue); }
.poloto0stroke{stroke:  var(--poloto_color0,blue); }
.poloto1stroke{stroke:  var(--poloto_color1,red); }
.poloto2stroke{stroke:  var(--poloto_color2,green); }
.poloto3stroke{stroke:  var(--poloto_color3,gold); }
.poloto4stroke{stroke:  var(--poloto_color4,aqua); }
.poloto5stroke{stroke:  var(--poloto_color5,brown); }
.poloto6stroke{stroke:  var(--poloto_color6,lime); }
.poloto7stroke{stroke:  var(--poloto_color7,chocolate); }
.poloto0fill{fill:var(--poloto_color0,blue);}
.poloto1fill{fill:var(--poloto_color1,red);}
.poloto2fill{fill:var(--poloto_color2,green);}
.poloto3fill{fill:var(--poloto_color3,gold);}
.poloto4fill{fill:var(--poloto_color4,aqua);}
.poloto5fill{fill:var(--poloto_color5,brown);}
.poloto6fill{fill:var(--poloto_color6,lime);}
.poloto7fill{fill:var(--poloto_color7,chocolate);}
</style>
<line class="poloto_axis_lines" stroke="black" x1="150" x2="150" y1="400" y2="405"/>
<text alignment-baseline="start" class="poloto_text" text-anchor="middle" x="150" y="440">
0
</text>
<line class="poloto_axis_lines" stroke="black" x1="234.17508" x2="234.17508" y1="400" y2="405"/>
<text alignment-baseline="start" class="poloto_text" text-anchor="middle" x="234.17508" y="440">
5000
</text>
<line class="poloto_axis_lines" stroke="black" x1="318.35016" x2="318.35016" y1="400" y2="405"/>
<text alignment-baseline="start" class="poloto_text" text-anchor="middle" x="318.35016" y="440">
10000
</text>
<line class="poloto_axis_lines" stroke="black" x1="402.52527" x2="402.52527" y1="400" y2="405"/>
<text alignment-baseline="start" class="poloto_text" text-anchor="middle" x="402.52527" y="440">
15000
</text>
<line class="poloto_axis_lines" stroke="black" x1="486.70035" x2="486.70035" y1="400" y2="405"/>
<text alignment-baseline="start" class="poloto_text" text-anchor="middle" x="486.70035" y="440">
20000
</text>
<line class="poloto_axis_lines" stroke="black" x1="570.8754" x2="570.8754" y1="400" y2="405"/>
<text alignment-baseline="start" class="poloto_text" text-anchor="middle" x="570.8754" y="440">
25000
</text>
<line class="poloto_axis_lines" stroke="black" x1="150" x2="144" y1="334.52704" y2="334.52704"/>
<text alignment-baseline="middle" class="poloto_text" text-anchor="end" x="120" y="334.52704">
0.005
</text>
<line class="poloto_axis_lines" stroke="black" x1="150" x2="144" y1="269.05237" y2="269.05237"/>
<text alignment-baseline="middle" class="poloto_text" text-anchor="end" x="120" y="269.05237">
0.010
</text>
<line class="poloto_axis_lines" stroke="black" x1="150" x2="144" y1="203.57776" y2="203.57776"/>
<text alignment-baseline="middle" class="poloto_text" text-anchor="end" x="120" y="203.57776">
0.015
</text>
<line class="poloto_axis_lines" stroke="black" x1="150" x2="144" y1="138.10309" y2="138.10309"/>
<text alignment-baseline="middle" class="poloto_text" text-anchor="end" x="120" y="138.10309">
0.020
</text>
<text alignment-baseline="middle" class="poloto_text" font-size="large" text-anchor="start" x="675" y="100">
default_par
</text>
<line class="poloto0stroke" x1="680" x2="730" y1="81.25" y2="81.25"/>
<polyline class="poloto0stroke" fill="none" points="650,358.76932 644.94946,358.67844 639.899,359.41827 634.8485,358.08902 629.798,351.90857 624.7475,359.6462 619.697,360.06497 614.6465,360.7246 609.59595,360.17566 604.5455,360.14078 599.495,360.78836 594.44446,360.37683 589.3939,361.14972 584.34344,363.6131 579.29297,362.4194 574.24243,363.15347 569.1919,363.78995 564.1414,363.21835 559.09094,363.54816 554.0404,364.14825 548.98987,365.68494 543.9394,365.10284 538.8889,353.6479 533.8384,366.03714 528.78784,367.5932 523.73737,366.09348 518.6869,366.5655 513.63635,368.32587 508.58588,367.8308 503.53537,365.4363 498.48486,367.4067 493.43436,368.4965 488.38385,367.89883 483.33334,368.304 478.28284,367.52975 473.23233,369.19095 468.18182,370.62537 463.13132,370.52884 458.0808,371.55103 453.0303,370.07507 447.9798,370.48004 442.9293,371.57513 437.87878,371.502 432.82828,372.78976 427.77777,372.85638 422.72726,373.2247 417.67676,373.22186 412.62628,373.71936 407.57578,374.24026 402.52527,375.9919 397.47473,370.19095 392.42426,375.09525 387.37375,376.8107 382.32324,375.88687 377.27274,376.0091 372.22223,376.4543 367.17172,376.72107 362.12122,378.5558 357.0707,377.38837 352.0202,379.39374 346.9697,379.19223 341.9192,380.0006 336.86868,379.26285 331.81818,381.58307 326.7677,379.69257 321.71716,380.91107 316.6667,379.7119 311.61615,381.55573 306.56567,380.11545 301.51514,382.2124 296.46466,383.2242 291.41412,383.15356 286.36365,384.94437 281.31314,386.096 276.26263,386.1686 271.21213,386.58868 266.16162,386.40472 261.1111,387.37198 256.0606,387.82718 251.0101,387.6561 245.9596,389.43683 240.90909,389.31274 235.85858,389.57883 230.80807,382.92633 225.75757,389.35254 220.70706,390.43744 215.65657,388.09488 210.60606,388.01236 205.55556,389.1678 200.50505,390.3928 195.45454,389.9541 190.40404,390.83514 185.35353,393.39716 180.30302,392.72824 175.25253,393.82288 170.20203,395.1203 165.15152,396.46136 160.10101,397.56213 155.0505,398.9191 150,400 " stroke="black"/>
<text alignment-baseline="middle" class="poloto_text" font-size="large" text-anchor="start" x="675" y="150">
default_seq
</text>
<line class="poloto1stroke" x1="680" x2="730" y1="131.25" y2="131.25"/>
<polyline class="poloto1stroke" fill="none" points="650,268.2468 644.94946,270.11176 639.899,270.86456 634.8485,272.16248 629.798,272.72803 624.7475,275.00012 619.697,276.7098 614.6465,277.9942 609.59595,279.40546 604.5455,280.59286 599.495,282.3244 594.44446,282.62845 589.3939,284.40848 584.34344,286.0545 579.29297,287.64203 574.24243,288.76498 569.1919,289.9864 564.1414,291.1366 559.09094,292.7738 554.0404,293.98044 548.98987,295.06052 543.9394,295.91116 538.8889,297.35428 533.8384,298.3066 528.78784,299.7608 523.73737,301.3189 518.6869,302.75034 513.63635,304.27502 508.58588,305.3013 503.53537,306.44257 498.48486,307.6374 493.43436,308.1734 488.38385,309.40323 483.33334,310.55334 478.28284,311.99454 473.23233,313.80206 468.18182,314.77637 463.13132,316.22638 458.0808,317.3402 453.0303,318.29755 447.9798,319.76498 442.9293,321.08618 437.87878,322.6004 432.82828,323.09537 427.77777,323.7462 422.72726,327.90686 417.67676,329.1097 412.62628,330.6675 407.57578,332.514 402.52527,333.51804 397.47473,334.52512 392.42426,336.35632 387.37375,337.65778 382.32324,339.09354 377.27274,340.42987 372.22223,341.9361 367.17172,343.34558 362.12122,344.18658 357.0707,345.24023 352.0202,346.51752 346.9697,347.90985 341.9192,349.16983 336.86868,350.25055 331.81818,351.52832 326.7677,352.84064 321.71716,354.11642 316.6667,355.59958 311.61615,357.11755 306.56567,358.4031 301.51514,359.99512 296.46466,360.9708 291.41412,362.46973 286.36365,365.0007 281.31314,366.3129 276.26263,367.81598 271.21213,369.1294 266.16162,370.19424 261.1111,371.8231 256.0606,372.9054 251.0101,374.2496 245.9596,375.64502 240.90909,376.81393 235.85858,378.00305 230.80807,379.26453 225.75757,380.6517 220.70706,381.68173 215.65657,383.6369 210.60606,384.77612 205.55556,385.9807 200.50505,386.9244 195.45454,388.62656 190.40404,389.74213 185.35353,391.0537 180.30302,392.66534 175.25253,393.8497 170.20203,395.07965 165.15152,396.47656 160.10101,397.50735 155.0505,398.92874 150,399.99976 " stroke="black"/>
<text alignment-baseline="middle" class="poloto_text" font-size="large" text-anchor="start" x="675" y="200">
direct_par
</text>
<line class="poloto2stroke" x1="680" x2="730" y1="181.25" y2="181.25"/>
<polyline class="poloto2stroke" fill="none" points="650,357.91663 644.94946,358.29178 639.899,358.7104 634.8485,358.49786 629.798,318.5866 624.7475,100 619.697,359.6518 614.6465,360.2891 609.59595,361.48224 604.5455,360.07428 599.495,361.75858 594.44446,361.1089 589.3939,361.76038 584.34344,362.46948 579.29297,364.21527 574.24243,363.82187 569.1919,362.814 564.1414,364.22235 559.09094,364.7766 554.0404,365.49368 548.98987,364.6874 543.9394,364.8566 538.8889,366.17883 533.8384,366.4962 528.78784,358.73633 523.73737,364.27435 518.6869,366.88638 513.63635,367.01572 508.58588,367.50253 503.53537,366.95062 498.48486,367.87863 493.43436,369.0546 488.38385,369.28683 483.33334,367.45816 478.28284,368.33038 473.23233,370.2329 468.18182,370.708 463.13132,371.1931 458.0808,371.201 453.0303,370.48572 447.9798,370.4388 442.9293,370.664 437.87878,370.98123 432.82828,372.9684 427.77777,372.90796 422.72726,369.1529 417.67676,372.101 412.62628,373.92938 407.57578,373.2379 402.52527,375.95016 397.47473,376.25842 392.42426,371.68546 387.37375,374.324 382.32324,375.96786 377.27274,375.8154 372.22223,376.43015 367.17172,377.66263 362.12122,377.50455 357.0707,378.6747 352.0202,377.51437 346.9697,380.4766 341.9192,379.0267 336.86868,380.57736 331.81818,381.54547 326.7677,381.9636 321.71716,379.7228 316.6667,381.51556 311.61615,381.1901 306.56567,381.98816 301.51514,382.02682 296.46466,383.2411 291.41412,383.6915 286.36365,385.60715 281.31314,386.54047 276.26263,386.04425 271.21213,385.70255 266.16162,386.5095 261.1111,387.6714 256.0606,387.99374 251.0101,387.65076 245.9596,387.62292 240.90909,387.95728 235.85858,389.7701 230.80807,388.78094 225.75757,383.22247 220.70706,389.6183 215.65657,308.9301 210.60606,387.57773 205.55556,389.46945 200.50505,390.27176 195.45454,390.9834 190.40404,390.70703 185.35353,392.5614 180.30302,392.84924 175.25253,393.95694 170.20203,395.1763 165.15152,396.51877 160.10101,397.57324 155.0505,398.95337 150,399.99976 " stroke="black"/>
<text alignment-baseline="middle" class="poloto_text" font-size="large" text-anchor="start" x="675" y="250">
direct_seq
</text>
<line class="poloto3stroke" x1="680" x2="730" y1="231.25" y2="231.25"/>
<polyline class="poloto3stroke" fill="none" points="650,269.16284 644.94946,270.58322 639.899,271.35394 634.8485,272.9214 629.798,272.70667 624.7475,268.46356 619.697,277.5574 614.6465,278.36914 609.59595,280.03543 604.5455,280.6977 599.495,282.6728 594.44446,283.2335 589.3939,284.95413 584.34344,286.5705 579.29297,288.06573 574.24243,289.08508 569.1919,290.10703 564.1414,291.38843 559.09094,293.32092 554.0404,294.34552 548.98987,295.09912 543.9394,296.24243 538.8889,297.34985 533.8384,298.40735 528.78784,300.2288 523.73737,301.3599 518.6869,302.645 513.63635,303.9871 508.58588,305.2444 503.53537,306.3769 498.48486,307.51584 493.43436,308.2014 488.38385,309.22113 483.33334,310.58276 478.28284,311.6872 473.23233,313.43646 468.18182,314.51593 463.13132,316.19104 458.0808,317.07788 453.0303,317.84875 447.9798,318.8619 442.9293,320.66196 437.87878,322.3192 432.82828,323.04034 427.77777,323.3942 422.72726,328.1789 417.67676,329.413 412.62628,330.65717 407.57578,332.441 402.52527,333.48938 397.47473,334.72665 392.42426,336.14188 387.37375,337.4486 382.32324,338.96744 377.27274,340.36523 372.22223,341.59338 367.17172,343.24225 362.12122,343.98325 357.0707,345.25903 352.0202,346.16895 346.9697,347.6729 341.9192,348.93054 336.86868,349.9356 331.81818,351.2754 326.7677,352.67023 321.71716,353.8194 316.6667,355.23682 311.61615,356.7709 306.56567,357.86798 301.51514,359.7261 296.46466,360.7824 291.41412,361.8929 286.36365,365.46878 281.31314,366.7327 276.26263,368.15552 271.21213,369.28503 266.16162,370.43344 261.1111,371.8794 256.0606,373.20944 251.0101,374.41953 245.9596,375.63538 240.90909,376.9493 235.85858,378.0656 230.80807,379.53558 225.75757,380.6728 220.70706,381.50668 215.65657,383.7927 210.60606,384.4898 205.55556,386.06104 200.50505,387.23184 195.45454,388.31824 190.40404,389.65945 185.35353,391.1002 180.30302,392.76068 175.25253,393.8335 170.20203,395.04645 165.15152,396.46976 160.10101,397.478 155.0505,398.93228 150,399.9999 " stroke="black"/>
<text alignment-baseline="middle" class="poloto_text" font-size="large" text-anchor="start" x="675" y="300">
indirect_par
</text>
<line class="poloto4stroke" x1="680" x2="730" y1="281.25" y2="281.25"/>
<polyline class="poloto4stroke" fill="none" points="650,345.8974 644.94946,354.47296 639.899,353.63 634.8485,355.46536 629.798,341.4085 624.7475,354.78375 619.697,355.446 614.6465,355.96774 609.59595,356.4579 604.5455,357.5714 599.495,356.8999 594.44446,357.15692 589.3939,357.58157 584.34344,359.77115 579.29297,358.8999 574.24243,359.18634 569.1919,354.6075 564.1414,360.00302 559.09094,361.52936 554.0404,361.04565 548.98987,361.05295 543.9394,361.2472 538.8889,362.20285 533.8384,363.63028 528.78784,351.3661 523.73737,363.2204 518.6869,363.37964 513.63635,364.5678 508.58588,365.97607 503.53537,360.6317 498.48486,366.1126 493.43436,365.22443 488.38385,366.14365 483.33334,366.23468 478.28284,365.48474 473.23233,366.40402 468.18182,367.10532 463.13132,368.06342 458.0808,368.1728 453.0303,367.37338 447.9798,368.05347 442.9293,368.391 437.87878,369.1015 432.82828,370.09827 427.77777,371.15244 422.72726,371.33936 417.67676,369.74353 412.62628,372.1319 407.57578,370.99136 402.52527,373.52435 397.47473,360.3236 392.42426,361.68915 387.37375,374.40768 382.32324,373.0926 377.27274,374.13266 372.22223,375.16727 367.17172,377.23688 362.12122,377.45618 357.0707,377.68164 352.0202,378.34875 346.9697,379.00836 341.9192,377.2863 336.86868,379.42676 331.81818,379.35553 326.7677,378.4897 321.71716,379.1995 316.6667,380.37534 311.61615,379.95053 306.56567,381.52682 301.51514,382.84668 296.46466,381.1063 291.41412,380.64868 286.36365,383.87897 281.31314,383.7983 276.26263,384.00616 271.21213,385.10596 266.16162,385.8486 261.1111,386.29343 256.0606,385.99857 251.0101,385.9132 245.9596,387.6362 240.90909,387.80582 235.85858,387.77652 230.80807,387.1511 225.75757,385.2677 220.70706,388.8007 215.65657,386.64536 210.60606,387.59744 205.55556,387.85687 200.50505,388.60043 195.45454,389.59122 190.40404,391.44867 185.35353,391.01093 180.30302,392.261 175.25253,391.72858 170.20203,394.85773 165.15152,396.27106 160.10101,397.43848 155.0505,398.90067 150,399.9999 " stroke="black"/>
<text alignment-baseline="middle" class="poloto_text" font-size="large" text-anchor="start" x="675" y="350">
indirect_seq
</text>
<line class="poloto5stroke" x1="680" x2="730" y1="331.25" y2="331.25"/>
<polyline class="poloto5stroke" fill="none" points="650,256.49884 644.94946,258.2452 639.899,259.15216 634.8485,260.5349 629.798,261.8423 624.7475,112.29285 619.697,265.849 614.6465,267.32617 609.59595,268.72873 604.5455,270.50824 599.495,272.49985 594.44446,272.86426 589.3939,274.92856 584.34344,276.46255 579.29297,278.26196 574.24243,279.41168 569.1919,280.5499 564.1414,282.05295 559.09094,284.0738 554.0404,285.0908 548.98987,286.3083 543.9394,287.81247 538.8889,289.0064 533.8384,290.27417 528.78784,292.22388 523.73737,293.643 518.6869,294.94833 513.63635,296.5606 508.58588,298.1317 503.53537,299.19354 498.48486,300.5373 493.43436,301.50275 488.38385,302.80765 483.33334,304.09842 478.28284,305.5045 473.23233,307.3229 468.18182,308.4782 463.13132,310.08936 458.0808,311.0954 453.0303,312.0327 447.9798,313.9803 442.9293,315.2928 437.87878,317.05948 432.82828,317.9206 427.77777,318.48047 422.72726,322.8437 417.67676,324.09064 412.62628,325.73483 407.57578,327.50684 402.52527,328.89444 397.47473,330.19672 392.42426,331.7946 387.37375,333.25162 382.32324,334.58185 377.27274,336.24402 372.22223,337.92725 367.17172,339.60147 362.12122,340.50278 357.0707,341.59134 352.0202,342.8874 346.9697,344.4591 341.9192,345.81686 336.86868,347.1112 331.81818,348.5472 326.7677,349.85 321.71716,351.26062 316.6667,352.68933 311.61615,354.20322 306.56567,355.09766 301.51514,357.48853 296.46466,358.74768 291.41412,360.05273 286.36365,362.2446 281.31314,363.7074 276.26263,365.29306 271.21213,366.39084 266.16162,367.97174 261.1111,369.58722 256.0606,371.02136 251.0101,372.3306 245.9596,373.85803 240.90909,375.21017 235.85858,376.59164 230.80807,378.0742 225.75757,379.29688 220.70706,380.46167 215.65657,382.4105 210.60606,383.555 205.55556,384.96878 200.50505,386.1156 195.45454,387.98065 190.40404,389.29373 185.35353,390.42545 180.30302,392.1099 175.25253,393.46506 170.20203,394.8354 165.15152,396.26904 160.10101,397.37247 155.0505,398.8756 150,399.9988 " stroke="black"/>
<text alignment-baseline="start" class="poloto_text" font-size="x-large" text-anchor="middle" x="400" y="37.5">
Bench of query:8_bytes with abspiral(num,0.1)
</text>
<text alignment-baseline="start" class="poloto_text" font-size="large" text-anchor="middle" x="400" y="481.25">
Number of Elements
</text>
<text alignment-baseline="start" class="poloto_text" font-size="large" text-anchor="middle" transform="rotate(-90,37.5,250)" x="37.5" y="250">
Time in Seconds
</text>
<path class="poloto_axis_lines" d="M150,100 L150,400 L650,400" stroke="black"/>
</svg>