<svg class="poloto" width="800" height="500" viewBox="0 0 800 500" xmlns="http://www.w3.org/2000/svg"><circle  r="1e5" class="poloto_background" /><text  class="poloto_text poloto_legend_text" x="675" y="100" >default_seq</text><line  class="poloto_scatter poloto_legend_icon poloto0stroke poloto0legend" stroke="black" x1="685" x2="685" y1="81.25" y2="81.25" /><path  class="poloto_scatter poloto0stroke" d=" M 650.00 290.02 h 0 M 644.95 293.92 h 0 M 639.90 292.03 h 0 M 634.85 295.55 h 0 M 629.80 297.84 h 0 M 624.75 297.05 h 0 M 619.70 297.90 h 0 M 614.65 303.53 h 0 M 609.60 301.60 h 0 M 604.55 301.69 h 0 M 599.49 301.47 h 0 M 594.44 304.12 h 0 M 589.39 305.15 h 0 M 584.34 306.91 h 0 M 579.29 306.53 h 0 M 574.24 310.03 h 0 M 569.19 311.36 h 0 M 564.14 311.66 h 0 M 559.09 314.29 h 0 M 554.04 314.62 h 0 M 548.99 313.80 h 0 M 543.94 315.24 h 0 M 538.89 316.68 h 0 M 533.84 318.21 h 0 M 528.79 320.54 h 0 M 523.74 320.98 h 0 M 518.69 319.16 h 0 M 513.64 321.78 h 0 M 508.59 321.94 h 0 M 503.54 325.33 h 0 M 498.48 327.52 h 0 M 493.43 327.35 h 0 M 488.38 328.20 h 0 M 483.33 326.34 h 0 M 478.28 330.92 h 0 M 473.23 333.51 h 0 M 468.18 331.44 h 0 M 463.13 333.63 h 0 M 458.08 334.91 h 0 M 453.03 336.95 h 0 M 447.98 339.45 h 0 M 442.93 337.13 h 0 M 437.88 340.40 h 0 M 432.83 340.05 h 0 M 427.78 341.36 h 0 M 422.73 340.18 h 0 M 417.68 344.55 h 0 M 412.63 344.92 h 0 M 407.58 345.63 h 0 M 402.53 346.92 h 0 M 397.47 348.34 h 0 M 392.42 350.37 h 0 M 387.37 350.64 h 0 M 382.32 351.41 h 0 M 377.27 351.81 h 0 M 372.22 352.91 h 0 M 367.17 354.49 h 0 M 362.12 355.70 h 0 M 357.07 358.08 h 0 M 352.02 357.16 h 0 M 346.97 359.95 h 0 M 341.92 360.62 h 0 M 336.87 362.95 h 0 M 331.82 363.05 h 0 M 326.77 363.95 h 0 M 321.72 365.45 h 0 M 316.67 366.14 h 0 M 311.62 367.53 h 0 M 306.57 368.94 h 0 M 301.52 370.30 h 0 M 296.46 371.16 h 0 M 291.41 371.78 h 0 M 286.36 374.68 h 0 M 281.31 376.90 h 0 M 276.26 378.03 h 0 M 271.21 378.48 h 0 M 266.16 379.43 h 0 M 261.11 380.66 h 0 M 256.06 381.07 h 0 M 251.01 382.50 h 0 M 245.96 383.06 h 0 M 240.91 383.29 h 0 M 235.86 384.88 h 0 M 230.81 385.54 h 0 M 225.76 386.85 h 0 M 220.71 387.39 h 0 M 215.66 388.40 h 0 M 210.61 389.39 h 0 M 205.56 390.36 h 0 M 200.51 391.03 h 0 M 195.45 392.17 h 0 M 190.40 392.81 h 0 M 185.35 394.17 h 0 M 180.30 395.52 h 0 M 175.25 396.56 h 0 M 170.20 397.09 h 0 M 165.15 397.93 h 0 M 160.10 398.60 h 0 M 155.05 399.41 h 0 M 150.00 399.99 h 0" /><text  class="poloto_text poloto_legend_text" x="675" y="150" >direct_seq</text><line  class="poloto_scatter poloto_legend_icon poloto1stroke poloto1legend" stroke="black" x1="685" x2="685" y1="131.25" y2="131.25" /><path  class="poloto_scatter poloto1stroke" d=" M 650.00 135.15 h 0 M 644.95 157.39 h 0 M 639.90 155.56 h 0 M 634.85 157.88 h 0 M 629.80 100.00 h 0 M 624.75 165.61 h 0 M 619.70 171.55 h 0 M 614.65 181.28 h 0 M 609.60 174.58 h 0 M 604.55 179.06 h 0 M 599.49 181.43 h 0 M 594.44 184.11 h 0 M 589.39 188.69 h 0 M 584.34 187.42 h 0 M 579.29 190.94 h 0 M 574.24 197.82 h 0 M 569.19 201.40 h 0 M 564.14 200.54 h 0 M 559.09 204.42 h 0 M 554.04 202.69 h 0 M 548.99 200.64 h 0 M 543.94 205.62 h 0 M 538.89 208.53 h 0 M 533.84 211.28 h 0 M 528.79 216.96 h 0 M 523.74 216.14 h 0 M 518.69 222.57 h 0 M 513.64 227.72 h 0 M 508.59 224.37 h 0 M 503.54 234.23 h 0 M 498.48 239.01 h 0 M 493.43 238.64 h 0 M 488.38 242.61 h 0 M 483.33 240.45 h 0 M 478.28 246.19 h 0 M 473.23 251.60 h 0 M 468.18 249.26 h 0 M 463.13 254.40 h 0 M 458.08 255.84 h 0 M 453.03 259.67 h 0 M 447.98 264.93 h 0 M 442.93 262.30 h 0 M 437.88 267.20 h 0 M 432.83 268.66 h 0 M 427.78 271.82 h 0 M 422.73 274.47 h 0 M 417.68 271.11 h 0 M 412.63 275.54 h 0 M 407.58 277.22 h 0 M 402.53 283.79 h 0 M 397.47 284.29 h 0 M 392.42 289.70 h 0 M 387.37 292.68 h 0 M 382.32 288.94 h 0 M 377.27 286.05 h 0 M 372.22 298.28 h 0 M 367.17 300.70 h 0 M 362.12 302.73 h 0 M 357.07 307.23 h 0 M 352.02 308.79 h 0 M 346.97 311.51 h 0 M 341.92 313.29 h 0 M 336.87 317.49 h 0 M 331.82 319.01 h 0 M 326.77 320.92 h 0 M 321.72 323.93 h 0 M 316.67 325.38 h 0 M 311.62 328.69 h 0 M 306.57 332.17 h 0 M 301.52 331.96 h 0 M 296.46 335.92 h 0 M 291.41 337.63 h 0 M 286.36 341.76 h 0 M 281.31 349.39 h 0 M 276.26 350.08 h 0 M 271.21 351.73 h 0 M 266.16 355.69 h 0 M 261.11 357.32 h 0 M 256.06 359.05 h 0 M 251.01 361.72 h 0 M 245.96 363.07 h 0 M 240.91 363.98 h 0 M 235.86 366.78 h 0 M 230.81 368.65 h 0 M 225.76 371.35 h 0 M 220.71 372.99 h 0 M 215.66 374.75 h 0 M 210.61 376.41 h 0 M 205.56 378.43 h 0 M 200.51 380.62 h 0 M 195.45 382.20 h 0 M 190.40 384.85 h 0 M 185.35 386.50 h 0 M 180.30 389.46 h 0 M 175.25 392.39 h 0 M 170.20 393.59 h 0 M 165.15 395.54 h 0 M 160.10 396.90 h 0 M 155.05 398.79 h 0 M 150.00 399.99 h 0" /><text  class="poloto_text poloto_legend_text" x="675" y="200" >indirect_seq</text><line  class="poloto_scatter poloto_legend_icon poloto2stroke poloto2legend" stroke="black" x1="685" x2="685" y1="181.25" y2="181.25" /><path  class="poloto_scatter poloto2stroke" d=" M 650.00 159.18 h 0 M 644.95 145.85 h 0 M 639.90 155.34 h 0 M 634.85 166.58 h 0 M 629.80 174.47 h 0 M 624.75 179.33 h 0 M 619.70 172.69 h 0 M 614.65 202.18 h 0 M 609.60 192.56 h 0 M 604.55 191.07 h 0 M 599.49 187.94 h 0 M 594.44 202.19 h 0 M 589.39 204.71 h 0 M 584.34 205.07 h 0 M 579.29 209.24 h 0 M 574.24 218.21 h 0 M 569.19 217.90 h 0 M 564.14 215.37 h 0 M 559.09 232.93 h 0 M 554.04 231.47 h 0 M 548.99 228.09 h 0 M 543.94 230.71 h 0 M 538.89 235.48 h 0 M 533.84 238.12 h 0 M 528.79 245.69 h 0 M 523.74 239.39 h 0 M 518.69 236.99 h 0 M 513.64 248.19 h 0 M 508.59 244.43 h 0 M 503.54 255.69 h 0 M 498.48 256.33 h 0 M 493.43 261.83 h 0 M 488.38 231.65 h 0 M 483.33 249.87 h 0 M 478.28 267.58 h 0 M 473.23 275.51 h 0 M 468.18 270.71 h 0 M 463.13 275.36 h 0 M 458.08 278.39 h 0 M 453.03 282.28 h 0 M 447.98 287.48 h 0 M 442.93 280.29 h 0 M 437.88 289.67 h 0 M 432.83 287.64 h 0 M 427.78 290.37 h 0 M 422.73 293.77 h 0 M 417.68 298.04 h 0 M 412.63 299.69 h 0 M 407.58 300.14 h 0 M 402.53 303.97 h 0 M 397.47 307.70 h 0 M 392.42 312.36 h 0 M 387.37 311.58 h 0 M 382.32 312.92 h 0 M 377.27 314.25 h 0 M 372.22 318.27 h 0 M 367.17 321.76 h 0 M 362.12 323.17 h 0 M 357.07 326.97 h 0 M 352.02 329.75 h 0 M 346.97 331.90 h 0 M 341.92 332.74 h 0 M 336.87 337.31 h 0 M 331.82 337.39 h 0 M 326.77 340.43 h 0 M 321.72 342.46 h 0 M 316.67 344.33 h 0 M 311.62 346.43 h 0 M 306.57 348.22 h 0 M 301.52 352.34 h 0 M 296.46 354.14 h 0 M 291.41 355.18 h 0 M 286.36 358.32 h 0 M 281.31 363.39 h 0 M 276.26 365.33 h 0 M 271.21 365.11 h 0 M 266.16 368.07 h 0 M 261.11 369.61 h 0 M 256.06 370.30 h 0 M 251.01 372.76 h 0 M 245.96 373.68 h 0 M 240.91 373.95 h 0 M 235.86 376.16 h 0 M 230.81 378.07 h 0 M 225.76 380.30 h 0 M 220.71 381.47 h 0 M 215.66 383.03 h 0 M 210.61 384.92 h 0 M 205.56 386.67 h 0 M 200.51 387.10 h 0 M 195.45 389.11 h 0 M 190.40 390.76 h 0 M 185.35 391.95 h 0 M 180.30 394.03 h 0 M 175.25 395.47 h 0 M 170.20 396.26 h 0 M 165.15 397.23 h 0 M 160.10 398.37 h 0 M 155.05 399.35 h 0 M 150.00 399.99 h 0" /><text  class="poloto_labels poloto_text poloto_title" x="400" y="37.5" >Bench of rebal:128_bytes with abspiral(num,0.6)</text><text  class="poloto_labels poloto_text poloto_xname" x="400" y="481.25" >Number of Elements</text><text  class="poloto_labels poloto_text poloto_yname" transform="rotate(-90,37.5,250)" x="37.5" y="250" >Time in Seconds</text><text  class="poloto_tick_labels poloto_text" dominant-baseline="middle" text-anchor="start" x="150" y="70" ></text><line  class="poloto_axis_lines" stroke="black" x1="150" x2="144" y1="400" y2="400" /><text  class="poloto_tick_labels poloto_text" dominant-baseline="middle" text-anchor="end" x="135" y="400" >0e0</text><line  class="poloto_axis_lines" stroke="black" x1="150" x2="144" y1="304.92718055849576" y2="304.92718055849576" /><text  class="poloto_tick_labels poloto_text" dominant-baseline="middle" text-anchor="end" x="135" y="304.92718055849576" >0.002</text><line  class="poloto_axis_lines" stroke="black" x1="150" x2="144" y1="209.85436111699153" y2="209.85436111699153" /><text  class="poloto_tick_labels poloto_text" dominant-baseline="middle" text-anchor="end" x="135" y="209.85436111699153" >0.004</text><line  class="poloto_axis_lines" stroke="black" x1="150" x2="144" y1="114.78154167548729" y2="114.78154167548729" /><text  class="poloto_tick_labels poloto_text" dominant-baseline="middle" text-anchor="end" x="135" y="114.78154167548729" >0.006</text><text  class="poloto_tick_labels poloto_text" dominant-baseline="middle" text-anchor="start" x="440.00000000000006" y="70" ></text><line  class="poloto_axis_lines" stroke="black" x1="150" x2="150" y1="400" y2="405" /><text  class="poloto_tick_labels poloto_text" dominant-baseline="start" text-anchor="middle" x="150" y="430" >0</text><line  class="poloto_axis_lines" stroke="black" x1="234.17508417508418" x2="234.17508417508418" y1="400" y2="405" /><text  class="poloto_tick_labels poloto_text" dominant-baseline="start" text-anchor="middle" x="234.17508417508418" y="430" >5000</text><line  class="poloto_axis_lines" stroke="black" x1="318.35016835016836" x2="318.35016835016836" y1="400" y2="405" /><text  class="poloto_tick_labels poloto_text" dominant-baseline="start" text-anchor="middle" x="318.35016835016836" y="430" >10000</text><line  class="poloto_axis_lines" stroke="black" x1="402.52525252525254" x2="402.52525252525254" y1="400" y2="405" /><text  class="poloto_tick_labels poloto_text" dominant-baseline="start" text-anchor="middle" x="402.52525252525254" y="430" >15000</text><line  class="poloto_axis_lines" stroke="black" x1="486.7003367003367" x2="486.7003367003367" y1="400" y2="405" /><text  class="poloto_tick_labels poloto_text" dominant-baseline="start" text-anchor="middle" x="486.7003367003367" y="430" >20000</text><line  class="poloto_axis_lines" stroke="black" x1="570.8754208754208" x2="570.8754208754208" y1="400" y2="405" /><text  class="poloto_tick_labels poloto_text" dominant-baseline="start" text-anchor="middle" x="570.8754208754208" y="430" >25000</text><path  stroke="black" fill="none" class="poloto_axis_lines" style="stroke-dasharray:8.417508417508419;stroke-dashoffset:-0;" d=" M 150 400 L 650 400" /><path  stroke="black" fill="none" class="poloto_axis_lines" style="stroke-dasharray:11.88410243018803;stroke-dashoffset:-0;" d=" M 150 400 L 150 100" /></svg>