<svg class="poloto" height="500" viewBox="0 0 800 500" width="800" xmlns="http://www.w3.org/2000/svg">
<rect class="poloto_background" fill="white" height="500" width="800" x="0" y="0"/>
<style>
.poloto {
font-family: "Arial";
stroke-width:2;
}
.poloto_text{fill: var(--poloto_fg_color,black);  }
.poloto_axis_lines{stroke: var(--poloto_fg_color,black);stoke-width:3;fill:none}
.poloto_background{fill: var(--poloto_bg_color,aliceblue); }
.poloto0stroke{stroke:  var(--poloto_color0,blue); }
.poloto1stroke{stroke:  var(--poloto_color1,red); }
.poloto2stroke{stroke:  var(--poloto_color2,green); }
.poloto3stroke{stroke:  var(--poloto_color3,gold); }
.poloto4stroke{stroke:  var(--poloto_color4,aqua); }
.poloto5stroke{stroke:  var(--poloto_color5,brown); }
.poloto6stroke{stroke:  var(--poloto_color6,lime); }
.poloto7stroke{stroke:  var(--poloto_color7,chocolate); }
.poloto0fill{fill:var(--poloto_color0,blue);}
.poloto1fill{fill:var(--poloto_color1,red);}
.poloto2fill{fill:var(--poloto_color2,green);}
.poloto3fill{fill:var(--poloto_color3,gold);}
.poloto4fill{fill:var(--poloto_color4,aqua);}
.poloto5fill{fill:var(--poloto_color5,brown);}
.poloto6fill{fill:var(--poloto_color6,lime);}
.poloto7fill{fill:var(--poloto_color7,chocolate);}
</style>
<line class="poloto_axis_lines" stroke="black" x1="150" x2="150" y1="400" y2="405"/>
<text alignment-baseline="start" class="poloto_text" text-anchor="middle" x="150" y="440">
0
</text>
<line class="poloto_axis_lines" stroke="black" x1="234.17508" x2="234.17508" y1="400" y2="405"/>
<text alignment-baseline="start" class="poloto_text" text-anchor="middle" x="234.17508" y="440">
5000
</text>
<line class="poloto_axis_lines" stroke="black" x1="318.35016" x2="318.35016" y1="400" y2="405"/>
<text alignment-baseline="start" class="poloto_text" text-anchor="middle" x="318.35016" y="440">
10000
</text>
<line class="poloto_axis_lines" stroke="black" x1="402.52527" x2="402.52527" y1="400" y2="405"/>
<text alignment-baseline="start" class="poloto_text" text-anchor="middle" x="402.52527" y="440">
15000
</text>
<line class="poloto_axis_lines" stroke="black" x1="486.70035" x2="486.70035" y1="400" y2="405"/>
<text alignment-baseline="start" class="poloto_text" text-anchor="middle" x="486.70035" y="440">
20000
</text>
<line class="poloto_axis_lines" stroke="black" x1="570.8754" x2="570.8754" y1="400" y2="405"/>
<text alignment-baseline="start" class="poloto_text" text-anchor="middle" x="570.8754" y="440">
25000
</text>
<line class="poloto_axis_lines" stroke="black" x1="150" x2="144" y1="346.5408" y2="346.5408"/>
<text alignment-baseline="middle" class="poloto_text" text-anchor="end" x="120" y="346.5408">
0.002
</text>
<line class="poloto_axis_lines" stroke="black" x1="150" x2="144" y1="293.0786" y2="293.0786"/>
<text alignment-baseline="middle" class="poloto_text" text-anchor="end" x="120" y="293.0786">
0.004
</text>
<line class="poloto_axis_lines" stroke="black" x1="150" x2="144" y1="239.61642" y2="239.61642"/>
<text alignment-baseline="middle" class="poloto_text" text-anchor="end" x="120" y="239.61642">
0.006
</text>
<line class="poloto_axis_lines" stroke="black" x1="150" x2="144" y1="186.15424" y2="186.15424"/>
<text alignment-baseline="middle" class="poloto_text" text-anchor="end" x="120" y="186.15424">
0.008
</text>
<line class="poloto_axis_lines" stroke="black" x1="150" x2="144" y1="132.69205" y2="132.69205"/>
<text alignment-baseline="middle" class="poloto_text" text-anchor="end" x="120" y="132.69205">
0.010
</text>
<text alignment-baseline="middle" class="poloto_text" font-size="large" text-anchor="start" x="675" y="100">
default_par
</text>
<line class="poloto0stroke" x1="680" x2="730" y1="81.25" y2="81.25"/>
<polyline class="poloto0stroke" fill="none" points="650,306.71133 644.94946,311.00253 639.899,313.4011 634.8485,286.48373 629.798,315.3033 624.7475,314.15634 619.697,318.54343 614.6465,317.69693 609.59595,315.97513 604.5455,319.7428 599.495,319.28 594.44446,318.8452 589.3939,320.1252 584.34344,319.88287 579.29297,323.36407 574.24243,325.81186 569.1919,322.79263 564.1414,325.31924 559.09094,324.4481 554.0404,324.73175 548.98987,328.90955 543.9394,329.37595 538.8889,298.57678 533.8384,329.20956 528.78784,330.31122 523.73737,331.512 518.6869,333.312 513.63635,334.4135 508.58588,330.9845 503.53537,332.71472 498.48486,331.71384 493.43436,333.94934 488.38385,333.6676 483.33334,332.76917 478.28284,338.24454 473.23233,337.46945 468.18182,337.2903 463.13132,338.59143 458.0808,338.92358 453.0303,338.06158 447.9798,341.31143 442.9293,341.8564 437.87878,340.9999 432.82828,342.4113 427.77777,342.161 422.72726,344.9475 417.67676,344.62704 412.62628,203.04454 407.57578,349.57065 402.52527,347.68365 397.47473,346.977 392.42426,352.47147 387.37375,350.04202 382.32324,353.72617 377.27274,353.30435 372.22223,354.2456 367.17172,352.38486 362.12122,355.64047 357.0707,356.21988 352.0202,356.40607 346.9697,357.199 341.9192,360.32867 336.86868,358.4078 331.81818,358.31122 326.7677,358.83017 321.71716,362.36667 316.6667,358.66452 311.61615,361.88104 306.56567,365.80127 301.51514,362.2689 296.46466,367.84372 291.41412,366.0592 286.36365,369.8807 281.31314,369.7159 276.26263,371.12097 271.21213,369.9045 266.16162,370.28128 261.1111,375.35895 256.0606,373.3844 251.0101,371.76456 245.9596,375.49353 240.90909,375.39148 235.85858,379.51343 230.80807,375.4195 225.75757,379.45203 220.70706,377.97546 215.65657,374.5928 210.60606,376.60147 205.55556,378.2638 200.50505,380.79022 195.45454,381.27002 190.40404,380.28098 185.35353,383.44473 180.30302,384.85086 175.25253,387.42673 170.20203,390.07864 165.15152,392.70755 160.10101,395.01837 155.0505,397.8237 150,399.99933 " stroke="black"/>
<text alignment-baseline="middle" class="poloto_text" font-size="large" text-anchor="start" x="675" y="150">
default_seq
</text>
<line class="poloto1stroke" x1="680" x2="730" y1="131.25" y2="131.25"/>
<polyline class="poloto1stroke" fill="none" points="650,124.40741 644.94946,127.74786 639.899,129.60605 634.8485,132.63733 629.798,135.06152 624.7475,138.24466 619.697,142.44223 614.6465,145.02112 609.59595,148.05804 604.5455,148.95743 599.495,154.24965 594.44446,155.05348 589.3939,159.06401 584.34344,162.0618 579.29297,165.06175 574.24243,167.7626 569.1919,169.6795 564.1414,172.83197 559.09094,176.5228 554.0404,178.65956 548.98987,180.91917 543.9394,183.65205 538.8889,185.49696 533.8384,188.00957 528.78784,192.13963 523.73737,194.76755 518.6869,197.38936 513.63635,200.00629 508.58588,202.14215 503.53537,205.29323 498.48486,207.55356 493.43436,209.0294 488.38385,211.83437 483.33334,213.05557 478.28284,216.95161 473.23233,220.40819 468.18182,222.863 463.13132,226.13138 458.0808,227.86224 453.0303,230.3764 447.9798,233.15283 442.9293,235.92447 437.87878,238.76666 432.82828,240.6298 427.77777,242.25897 422.72726,252.30478 417.67676,254.57518 412.62628,256.7888 407.57578,259.49713 402.52527,263.3819 397.47473,266.06946 392.42426,269.75012 387.37375,272.24557 382.32324,275.07748 377.27274,277.61572 372.22223,280.52606 367.17172,283.5561 362.12122,285.2949 357.0707,287.72034 352.0202,289.8382 346.9697,292.71933 341.9192,295.53027 336.86868,298.102 331.81818,300.5689 326.7677,303.16638 321.71716,305.72638 316.6667,308.87592 311.61615,311.90863 306.56567,314.76056 301.51514,317.9819 296.46466,320.2982 291.41412,323.16833 286.36365,326.48456 281.31314,329.71332 276.26263,332.5262 271.21213,335.35065 266.16162,337.66443 261.1111,341.13635 256.0606,343.4376 251.0101,346.6154 245.9596,349.48813 240.90909,352.15414 235.85858,354.0348 230.80807,357.2269 225.75757,360.13818 220.70706,362.23248 215.65657,366.43777 210.60606,368.85266 205.55556,371.4561 200.50505,374.16797 195.45454,376.7862 190.40404,379.37927 185.35353,381.94672 180.30302,384.86713 175.25253,387.3414 170.20203,389.95462 165.15152,392.79605 160.10101,394.96606 155.0505,397.81198 150,400 " stroke="black"/>
<text alignment-baseline="middle" class="poloto_text" font-size="large" text-anchor="start" x="675" y="200">
direct_par
</text>
<line class="poloto2stroke" x1="680" x2="730" y1="181.25" y2="181.25"/>
<polyline class="poloto2stroke" fill="none" points="650,311.63135 644.94946,314.0494 639.899,316.69214 634.8485,319.32803 629.798,295.4306 624.7475,317.41602 619.697,318.48218 614.6465,319.7962 609.59595,323.096 604.5455,320.56567 599.495,320.2773 594.44446,323.30624 589.3939,324.42236 584.34344,321.88306 579.29297,324.28363 574.24243,326.84735 569.1919,329.19424 564.1414,326.4471 559.09094,331.16705 554.0404,297.88553 548.98987,328.865 543.9394,330.12814 538.8889,334.06683 533.8384,315.59613 528.78784,332.71188 523.73737,335.81818 518.6869,333.6324 513.63635,336.6497 508.58588,334.46863 503.53537,326.1991 498.48486,336.7273 493.43436,334.67175 488.38385,337.4763 483.33334,339.73215 478.28284,336.3339 473.23233,337.4409 468.18182,341.7831 463.13132,340.83865 458.0808,339.53125 453.0303,340.20163 447.9798,340.03186 442.9293,343.44318 437.87878,341.94254 432.82828,343.3313 427.77777,346.54434 422.72726,343.87198 417.67676,344.735 412.62628,350.62735 407.57578,303.47736 402.52527,351.917 397.47473,350.00824 392.42426,351.6831 387.37375,354.38605 382.32324,355.06793 377.27274,356.03088 372.22223,356.8606 367.17172,357.5548 362.12122,357.3849 357.0707,357.74884 352.0202,357.0696 346.9697,361.22546 341.9192,360.56927 336.86868,362.08817 331.81818,359.74915 326.7677,358.74554 321.71716,364.72736 316.6667,361.14658 311.61615,363.68613 306.56567,367.05487 301.51514,362.75406 296.46466,365.78946 291.41412,368.4348 286.36365,370.14563 281.31314,371.1593 276.26263,372.54572 271.21213,372.02902 266.16162,374.35855 261.1111,375.6491 256.0606,375.51547 251.0101,368.56625 245.9596,376.3759 240.90909,376.12415 235.85858,376.31958 230.80807,376.11475 225.75757,383.50613 220.70706,377.1929 215.65657,374.91547 210.60606,376.08054 205.55556,378.6238 200.50505,378.7931 195.45454,380.81796 190.40404,381.93173 185.35353,383.4949 180.30302,385.49008 175.25253,387.72635 170.20203,390.44226 165.15152,392.98984 160.10101,395.1217 155.0505,397.89374 150,399.99872 " stroke="black"/>
<text alignment-baseline="middle" class="poloto_text" font-size="large" text-anchor="start" x="675" y="250">
direct_seq
</text>
<line class="poloto3stroke" x1="680" x2="730" y1="231.25" y2="231.25"/>
<polyline class="poloto3stroke" fill="none" points="650,134.44324 644.94946,139.79056 639.899,141.2832 634.8485,143.42056 629.798,145.70262 624.7475,149.99048 619.697,153.51715 614.6465,155.10716 609.59595,159.41772 604.5455,160.78958 599.495,164.71413 594.44446,164.98697 589.3939,168.57896 584.34344,171.21771 579.29297,175.3715 574.24243,177.2214 569.1919,179.23096 564.1414,182.21886 559.09094,184.4628 554.0404,187.8073 548.98987,189.89175 543.9394,192.1965 538.8889,193.82347 533.8384,195.83644 528.78784,200.1861 523.73737,202.49205 518.6869,204.62335 513.63635,207.75154 508.58588,209.81674 503.53537,212.55765 498.48486,214.45819 493.43436,215.9123 488.38385,218.67587 483.33334,221.3406 478.28284,223.4786 473.23233,227.00482 468.18182,228.75333 463.13132,231.9834 458.0808,233.85 453.0303,234.84013 447.9798,238.93768 442.9293,241.30219 437.87878,245.0364 432.82828,246.37248 427.77777,247.68994 422.72726,255.87108 417.67676,258.04092 412.62628,261.266 407.57578,263.2343 402.52527,266.5937 397.47473,269.43314 392.42426,271.56177 387.37375,275.1483 382.32324,277.5824 377.27274,280.62424 372.22223,283.33853 367.17172,286.66803 362.12122,288.24963 357.0707,289.94638 352.0202,292.69113 346.9697,295.63025 341.9192,298.33514 336.86868,300.60913 331.81818,302.7454 326.7677,305.54416 321.71716,308.10754 316.6667,311.02786 311.61615,313.79453 306.56567,316.24786 301.51514,319.95837 296.46466,322.08038 291.41412,325.25757 286.36365,330.4259 281.31314,333.12634 276.26263,335.1958 271.21213,337.97086 266.16162,340.6012 261.1111,342.68237 256.0606,345.75287 251.0101,348.45914 245.9596,351.3549 240.90909,354.1366 235.85858,355.9733 230.80807,358.4713 225.75757,361.70108 220.70706,363.00537 215.65657,367.41937 210.60606,369.4713 205.55556,371.74353 200.50505,374.45273 195.45454,377.11047 190.40404,379.66278 185.35353,382.3401 180.30302,385.37668 175.25253,387.805 170.20203,390.31277 165.15152,392.92395 160.10101,395.0649 155.0505,397.88428 150,399.99878 " stroke="black"/>
<text alignment-baseline="middle" class="poloto_text" font-size="large" text-anchor="start" x="675" y="300">
indirect_par
</text>
<line class="poloto4stroke" x1="680" x2="730" y1="281.25" y2="281.25"/>
<polyline class="poloto4stroke" fill="none" points="650,303.844 644.94946,303.26456 639.899,307.20718 634.8485,309.9066 629.798,311.32513 624.7475,309.5272 619.697,310.27216 614.6465,311.7947 609.59595,309.46634 604.5455,313.01877 599.495,313.47217 594.44446,312.47305 589.3939,313.3977 584.34344,314.5562 579.29297,318.13712 574.24243,316.95657 569.1919,317.4346 564.1414,320.41483 559.09094,321.3069 554.0404,299.54382 548.98987,321.72754 543.9394,323.16772 538.8889,326.10767 533.8384,322.91434 528.78784,314.20392 523.73737,325.31476 518.6869,324.41785 513.63635,327.81888 508.58588,306.83154 503.53537,328.81583 498.48486,326.71515 493.43436,327.58417 488.38385,331.1366 483.33334,314.8663 478.28284,332.73654 473.23233,331.37408 468.18182,333.19217 463.13132,336.6698 458.0808,335.07062 453.0303,332.8753 447.9798,338.42334 442.9293,336.40204 437.87878,337.3957 432.82828,338.64288 427.77777,337.47025 422.72726,339.9686 417.67676,343.26978 412.62628,341.111 407.57578,330.60458 402.52527,344.40564 397.47473,346.07355 392.42426,347.67783 387.37375,349.25238 382.32324,348.42444 377.27274,347.9278 372.22223,350.78824 367.17172,353.6351 362.12122,352.4071 357.0707,350.98615 352.0202,345.65836 346.9697,357.15988 341.9192,357.67902 336.86868,358.31 331.81818,356.02216 326.7677,356.54584 321.71716,357.5724 316.6667,356.8437 311.61615,359.72354 306.56567,361.67554 301.51514,360.75555 296.46466,362.182 291.41412,364.36627 286.36365,365.17056 281.31314,366.71484 276.26263,370.00256 271.21213,370.16086 266.16162,368.44415 261.1111,370.9333 256.0606,372.92078 251.0101,371.33188 245.9596,375.42798 240.90909,376.3694 235.85858,375.82104 230.80807,378.40112 225.75757,377.713 220.70706,374.91434 215.65657,374.1227 210.60606,373.33658 205.55556,376.22955 200.50505,378.0741 195.45454,378.62012 190.40404,380.24738 185.35353,383.5397 180.30302,384.027 175.25253,386.63162 170.20203,389.47885 165.15152,392.43433 160.10101,394.74796 155.0505,397.71457 150,399.99933 " stroke="black"/>
<text alignment-baseline="middle" class="poloto_text" font-size="large" text-anchor="start" x="675" y="350">
indirect_seq
</text>
<line class="poloto5stroke" x1="680" x2="730" y1="331.25" y2="331.25"/>
<polyline class="poloto5stroke" fill="none" points="650,100 644.94946,104.52411 639.899,108.058014 634.8485,111.417206 629.798,110.56055 624.7475,118.09711 619.697,122.30948 614.6465,124.80197 609.59595,119.91736 604.5455,130.06891 599.495,135.14508 594.44446,135.80878 589.3939,139.98312 584.34344,143.44138 579.29297,147.05627 574.24243,149.77248 569.1919,152.4055 564.1414,155.79631 559.09094,159.20415 554.0404,161.59161 548.98987,164.23167 543.9394,166.99586 538.8889,169.54343 533.8384,171.87082 528.78784,176.26736 523.73737,178.61435 518.6869,182.06836 513.63635,185.37874 508.58588,187.22278 503.53537,190.99026 498.48486,193.62848 493.43436,195.61708 488.38385,197.08182 483.33334,200.36734 478.28284,203.40887 473.23233,207.20338 468.18182,209.43614 463.13132,213.07278 458.0808,215.1631 453.0303,217.70605 447.9798,221.12192 442.9293,223.53183 437.87878,227.83061 432.82828,228.92114 427.77777,230.55164 422.72726,238.9742 417.67676,242.72125 412.62628,246.00047 407.57578,249.57 402.52527,252.22214 397.47473,255.94977 392.42426,257.86493 387.37375,261.9682 382.32324,262.02295 377.27274,267.64374 372.22223,270.96417 367.17172,274.5381 362.12122,276.30768 357.0707,278.55194 352.0202,281.04477 346.9697,284.53833 341.9192,287.1617 336.86868,289.8567 331.81818,292.65823 326.7677,295.38373 321.71716,298.21643 316.6667,301.6536 311.61615,304.76398 306.56567,307.93274 301.51514,311.66315 296.46466,314.1683 291.41412,317.72815 286.36365,320.9314 281.31314,324.4306 276.26263,327.7113 271.21213,330.3518 266.16162,333.29755 261.1111,336.64874 256.0606,339.40228 251.0101,342.52902 245.9596,345.9098 240.90909,348.67624 235.85858,351.1329 230.80807,354.087 225.75757,357.56464 220.70706,359.27615 215.65657,363.88367 210.60606,366.44843 205.55556,369.31247 200.50505,372.22324 195.45454,374.8166 190.40404,377.65384 185.35353,380.6306 180.30302,383.64566 175.25253,386.40292 170.20203,389.33246 165.15152,392.27005 160.10101,394.67868 155.0505,397.63925 150,399.99945 " stroke="black"/>
<text alignment-baseline="start" class="poloto_text" font-size="x-large" text-anchor="middle" x="400" y="37.5">
Bench of query:16_bytes with abspiral(num,0.1)
</text>
<text alignment-baseline="start" class="poloto_text" font-size="large" text-anchor="middle" x="400" y="481.25">
Number of Elements
</text>
<text alignment-baseline="start" class="poloto_text" font-size="large" text-anchor="middle" transform="rotate(-90,37.5,250)" x="37.5" y="250">
Time in Seconds
</text>
<path class="poloto_axis_lines" d="M150,100 L150,400 L650,400" stroke="black"/>
</svg>