<svg class="poloto" width="800" height="500" viewBox="0 0 800 500" xmlns="http://www.w3.org/2000/svg"><circle  r="1e5" class="poloto_background" /><text  class="poloto_text poloto_legend_text" x="675" y="100" >default_par</text><line  class="poloto_line poloto_legend_icon poloto0stroke poloto0legend" stroke="black" x1="680" x2="730" y1="81.25" y2="81.25" /><path  class="poloto_line poloto0stroke" fill="none" stroke="black" d=" M 650.00 359.66 L 644.95 359.59 L 639.90 353.96 L 634.85 355.29 L 629.80 362.64 L 624.75 357.63 L 619.70 361.62 L 614.65 364.11 L 609.60 357.64 L 604.55 361.07 L 599.49 358.53 L 594.44 357.33 L 589.39 359.81 L 584.34 332.07 L 579.29 360.65 L 574.24 360.32 L 569.19 353.94 L 564.14 362.47 L 559.09 362.50 L 554.04 364.64 L 548.99 364.75 L 543.94 346.90 L 538.89 362.56 L 533.84 368.44 L 528.79 364.10 L 523.74 364.62 L 518.69 337.91 L 513.64 367.44 L 508.59 366.63 L 503.54 367.78 L 498.48 370.46 L 493.43 371.39 L 488.38 372.06 L 483.33 372.01 L 478.28 366.63 L 473.23 367.91 L 468.18 371.23 L 463.13 372.06 L 458.08 372.77 L 453.03 371.08 L 447.98 375.57 L 442.93 371.79 L 437.88 376.18 L 432.83 372.20 L 427.78 372.72 L 422.73 372.93 L 417.68 376.73 L 412.63 377.38 L 407.58 375.39 L 402.53 369.87 L 397.47 378.87 L 392.42 377.05 L 387.37 381.52 L 382.32 380.66 L 377.27 377.14 L 372.22 378.95 L 367.17 381.95 L 362.12 382.07 L 357.07 381.77 L 352.02 381.27 L 346.97 382.87 L 341.92 384.74 L 336.87 383.38 L 331.82 384.95 L 326.77 383.81 L 321.72 384.15 L 316.67 383.86 L 311.62 378.37 L 306.57 386.66 L 301.52 386.84 L 296.46 384.76 L 291.41 385.44 L 286.36 389.16 L 281.31 386.89 L 276.26 388.70 L 271.21 386.81 L 266.16 388.42 L 261.11 389.82 L 256.06 388.45 L 251.01 389.59 L 245.96 389.62 L 240.91 389.26 L 235.86 389.38 L 230.81 392.98 L 225.76 392.59 L 220.71 391.66 L 215.66 392.52 L 210.61 391.43 L 205.56 391.95 L 200.51 393.46 L 195.45 394.18 L 190.40 394.18 L 185.35 394.47 L 180.30 396.22 L 175.25 397.00 L 170.20 397.33 L 165.15 398.49 L 160.10 399.03 L 155.05 399.48 L 150.00 400.00" /><text  class="poloto_text poloto_legend_text" x="675" y="150" >default_seq</text><line  class="poloto_line poloto_legend_icon poloto1stroke poloto1legend" stroke="black" x1="680" x2="730" y1="131.25" y2="131.25" /><path  class="poloto_line poloto1stroke" fill="none" stroke="black" d=" M 650.00 309.54 L 644.95 310.42 L 639.90 308.28 L 634.85 309.21 L 629.80 310.92 L 624.75 311.87 L 619.70 314.31 L 614.65 318.66 L 609.60 315.08 L 604.55 316.37 L 599.49 317.38 L 594.44 317.44 L 589.39 316.89 L 584.34 320.49 L 579.29 318.73 L 574.24 324.15 L 569.19 312.54 L 564.14 324.97 L 559.09 328.02 L 554.04 326.25 L 548.99 323.33 L 543.94 328.26 L 538.89 328.31 L 533.84 330.18 L 528.79 331.80 L 523.74 332.30 L 518.69 330.89 L 513.64 335.99 L 508.59 335.32 L 503.54 335.80 L 498.48 337.69 L 493.43 334.54 L 488.38 339.12 L 483.33 337.85 L 478.28 340.16 L 473.23 338.52 L 468.18 328.82 L 463.13 343.03 L 458.08 342.50 L 453.03 346.87 L 447.98 347.81 L 442.93 347.17 L 437.88 349.62 L 432.83 349.76 L 427.78 350.97 L 422.73 354.08 L 417.68 354.55 L 412.63 356.46 L 407.58 355.46 L 402.53 357.65 L 397.47 357.69 L 392.42 359.83 L 387.37 360.72 L 382.32 360.28 L 377.27 362.14 L 372.22 363.35 L 367.17 361.56 L 362.12 364.16 L 357.07 366.49 L 352.02 365.99 L 346.97 367.54 L 341.92 367.66 L 336.87 369.57 L 331.82 370.05 L 326.77 371.28 L 321.72 370.60 L 316.67 371.65 L 311.62 373.57 L 306.57 375.20 L 301.52 375.62 L 296.46 376.79 L 291.41 376.10 L 286.36 378.91 L 281.31 380.08 L 276.26 380.89 L 271.21 381.36 L 266.16 381.85 L 261.11 383.80 L 256.06 383.58 L 251.01 384.72 L 245.96 385.06 L 240.91 385.60 L 235.86 386.42 L 230.81 387.58 L 225.76 389.11 L 220.71 389.39 L 215.66 390.87 L 210.61 391.70 L 205.56 392.30 L 200.51 392.89 L 195.45 393.67 L 190.40 394.72 L 185.35 395.01 L 180.30 395.97 L 175.25 396.88 L 170.20 397.39 L 165.15 398.36 L 160.10 398.88 L 155.05 399.49 L 150.00 400.00" /><text  class="poloto_text poloto_legend_text" x="675" y="200" >direct_par</text><line  class="poloto_line poloto_legend_icon poloto2stroke poloto2legend" stroke="black" x1="680" x2="730" y1="181.25" y2="181.25" /><path  class="poloto_line poloto2stroke" fill="none" stroke="black" d=" M 650.00 293.00 L 644.95 264.84 L 639.90 288.80 L 634.85 287.13 L 629.80 304.72 L 624.75 295.43 L 619.70 308.58 L 614.65 309.50 L 609.60 294.84 L 604.55 308.32 L 599.49 308.99 L 594.44 300.22 L 589.39 302.15 L 584.34 289.64 L 579.29 282.91 L 574.24 302.59 L 569.19 308.57 L 564.14 308.60 L 559.09 283.41 L 554.04 293.51 L 548.99 307.27 L 543.94 316.30 L 538.89 309.63 L 533.84 320.09 L 528.79 307.94 L 523.74 320.85 L 518.69 318.49 L 513.64 325.67 L 508.59 320.88 L 503.54 327.07 L 498.48 328.35 L 493.43 328.15 L 488.38 330.53 L 483.33 328.90 L 478.28 327.64 L 473.23 332.24 L 468.18 331.63 L 463.13 326.04 L 458.08 320.79 L 453.03 333.05 L 447.98 339.97 L 442.93 335.30 L 437.88 341.52 L 432.83 339.25 L 427.78 338.87 L 422.73 340.80 L 417.68 341.36 L 412.63 343.48 L 407.58 339.83 L 402.53 341.74 L 397.47 321.30 L 392.42 353.18 L 387.37 354.31 L 382.32 354.29 L 377.27 353.41 L 372.22 358.22 L 367.17 353.56 L 362.12 359.71 L 357.07 358.91 L 352.02 357.47 L 346.97 361.87 L 341.92 358.39 L 336.87 360.19 L 331.82 362.12 L 326.77 360.75 L 321.72 364.95 L 316.67 362.50 L 311.62 368.87 L 306.57 363.69 L 301.52 368.43 L 296.46 361.45 L 291.41 369.81 L 286.36 366.95 L 281.31 370.55 L 276.26 375.55 L 271.21 373.02 L 266.16 375.11 L 261.11 376.49 L 256.06 373.35 L 251.01 374.43 L 245.96 379.18 L 240.91 378.46 L 235.86 378.34 L 230.81 379.76 L 225.76 383.20 L 220.71 383.54 L 215.66 383.19 L 210.61 385.93 L 205.56 384.73 L 200.51 385.29 L 195.45 388.23 L 190.40 388.80 L 185.35 389.92 L 180.30 391.72 L 175.25 393.13 L 170.20 394.61 L 165.15 396.55 L 160.10 397.65 L 155.05 398.83 L 150.00 400.00" /><text  class="poloto_text poloto_legend_text" x="675" y="250" >direct_seq</text><line  class="poloto_line poloto_legend_icon poloto3stroke poloto3legend" stroke="black" x1="680" x2="730" y1="231.25" y2="231.25" /><path  class="poloto_line poloto3stroke" fill="none" stroke="black" d=" M 650.00 155.46 L 644.95 193.11 L 639.90 194.04 L 634.85 179.19 L 629.80 198.48 L 624.75 198.46 L 619.70 204.18 L 614.65 213.96 L 609.60 208.83 L 604.55 213.92 L 599.49 215.56 L 594.44 212.35 L 589.39 219.80 L 584.34 222.52 L 579.29 219.22 L 574.24 222.89 L 569.19 206.73 L 564.14 230.07 L 559.09 235.30 L 554.04 235.73 L 548.99 213.08 L 543.94 238.40 L 538.89 241.83 L 533.84 233.87 L 528.79 240.89 L 523.74 249.36 L 518.69 246.43 L 513.64 255.56 L 508.59 254.51 L 503.54 257.40 L 498.48 246.51 L 493.43 259.20 L 488.38 253.85 L 483.33 265.06 L 478.28 269.25 L 473.23 271.65 L 468.18 269.10 L 463.13 275.39 L 458.08 276.01 L 453.03 279.10 L 447.98 284.24 L 442.93 279.67 L 437.88 287.32 L 432.83 289.63 L 427.78 292.53 L 422.73 299.72 L 417.68 299.56 L 412.63 304.26 L 407.58 304.73 L 402.53 307.55 L 397.47 307.48 L 392.42 312.12 L 387.37 315.70 L 382.32 315.13 L 377.27 318.22 L 372.22 319.79 L 367.17 321.85 L 362.12 321.78 L 357.07 325.86 L 352.02 327.33 L 346.97 328.03 L 341.92 330.83 L 336.87 333.62 L 331.82 334.98 L 326.77 337.56 L 321.72 333.52 L 316.67 336.60 L 311.62 338.64 L 306.57 342.35 L 301.52 346.17 L 296.46 348.88 L 291.41 349.86 L 286.36 354.25 L 281.31 355.95 L 276.26 359.00 L 271.21 360.08 L 266.16 362.13 L 261.11 363.83 L 256.06 364.80 L 251.01 366.67 L 245.96 367.75 L 240.91 369.09 L 235.86 371.21 L 230.81 372.88 L 225.76 375.78 L 220.71 377.07 L 215.66 379.80 L 210.61 382.28 L 205.56 382.82 L 200.51 384.06 L 195.45 385.82 L 190.40 388.22 L 185.35 389.53 L 180.30 391.26 L 175.25 393.12 L 170.20 394.22 L 165.15 396.39 L 160.10 397.33 L 155.05 398.64 L 150.00 400.00" /><text  class="poloto_text poloto_legend_text" x="675" y="300" >indirect_par</text><line  class="poloto_line poloto_legend_icon poloto4stroke poloto4legend" stroke="black" x1="680" x2="730" y1="281.25" y2="281.25" /><path  class="poloto_line poloto4stroke" fill="none" stroke="black" d=" M 650.00 288.04 L 644.95 221.12 L 639.90 280.32 L 634.85 293.32 L 629.80 314.54 L 624.75 306.89 L 619.70 317.55 L 614.65 313.14 L 609.60 308.23 L 604.55 305.60 L 599.49 307.23 L 594.44 312.33 L 589.39 288.87 L 584.34 260.15 L 579.29 288.02 L 574.24 316.66 L 569.19 320.58 L 564.14 294.85 L 559.09 257.66 L 554.04 331.84 L 548.99 312.10 L 543.94 282.41 L 538.89 326.23 L 533.84 327.00 L 528.79 331.05 L 523.74 332.30 L 518.69 301.11 L 513.64 327.33 L 508.59 336.82 L 503.54 322.87 L 498.48 324.93 L 493.43 341.85 L 488.38 329.10 L 483.33 333.91 L 478.28 342.56 L 473.23 344.36 L 468.18 344.96 L 463.13 346.02 L 458.08 344.24 L 453.03 345.47 L 447.98 352.46 L 442.93 354.53 L 437.88 352.27 L 432.83 354.33 L 427.78 352.15 L 422.73 351.99 L 417.68 349.85 L 412.63 354.49 L 407.58 354.68 L 402.53 356.24 L 397.47 360.10 L 392.42 358.32 L 387.37 360.71 L 382.32 362.18 L 377.27 359.92 L 372.22 362.73 L 367.17 363.03 L 362.12 363.98 L 357.07 369.91 L 352.02 368.89 L 346.97 368.62 L 341.92 367.31 L 336.87 369.67 L 331.82 369.79 L 326.77 324.21 L 321.72 366.78 L 316.67 376.30 L 311.62 377.04 L 306.57 373.85 L 301.52 376.09 L 296.46 377.74 L 291.41 376.36 L 286.36 378.13 L 281.31 379.61 L 276.26 382.58 L 271.21 381.37 L 266.16 381.75 L 261.11 384.77 L 256.06 384.27 L 251.01 383.88 L 245.96 382.29 L 240.91 385.28 L 235.86 384.93 L 230.81 386.82 L 225.76 388.93 L 220.71 386.29 L 215.66 388.56 L 210.61 389.55 L 205.56 389.88 L 200.51 391.10 L 195.45 391.48 L 190.40 394.24 L 185.35 393.63 L 180.30 395.10 L 175.25 396.29 L 170.20 397.09 L 165.15 398.22 L 160.10 398.83 L 155.05 399.41 L 150.00 400.00" /><text  class="poloto_text poloto_legend_text" x="675" y="350" >indirect_seq</text><line  class="poloto_line poloto_legend_icon poloto5stroke poloto5legend" stroke="black" x1="680" x2="730" y1="331.25" y2="331.25" /><path  class="poloto_line poloto5stroke" fill="none" stroke="black" d=" M 650.00 100.00 L 644.95 205.82 L 639.90 209.18 L 634.85 194.94 L 629.80 208.42 L 624.75 209.68 L 619.70 222.00 L 614.65 233.78 L 609.60 222.61 L 604.55 226.06 L 599.49 228.32 L 594.44 232.94 L 589.39 229.82 L 584.34 232.81 L 579.29 228.07 L 574.24 241.11 L 569.19 185.55 L 564.14 231.65 L 559.09 256.55 L 554.04 258.43 L 548.99 190.96 L 543.94 259.19 L 538.89 240.97 L 533.84 259.24 L 528.79 266.49 L 523.74 266.61 L 518.69 266.44 L 513.64 265.20 L 508.59 274.93 L 503.54 277.11 L 498.48 281.79 L 493.43 283.60 L 488.38 260.55 L 483.33 273.40 L 478.28 289.78 L 473.23 293.06 L 468.18 291.03 L 463.13 293.33 L 458.08 289.28 L 453.03 298.99 L 447.98 297.16 L 442.93 301.17 L 437.88 307.75 L 432.83 309.95 L 427.78 310.86 L 422.73 315.48 L 417.68 316.81 L 412.63 321.15 L 407.58 318.96 L 402.53 322.91 L 397.47 325.17 L 392.42 329.45 L 387.37 331.15 L 382.32 328.31 L 377.27 334.79 L 372.22 335.54 L 367.17 338.58 L 362.12 337.69 L 357.07 340.17 L 352.02 342.06 L 346.97 346.12 L 341.92 345.35 L 336.87 347.50 L 331.82 349.62 L 326.77 352.52 L 321.72 352.20 L 316.67 354.23 L 311.62 357.26 L 306.57 359.30 L 301.52 360.50 L 296.46 362.31 L 291.41 351.37 L 286.36 364.61 L 281.31 367.94 L 276.26 369.24 L 271.21 370.94 L 266.16 373.05 L 261.11 374.23 L 256.06 375.09 L 251.01 376.72 L 245.96 377.14 L 240.91 377.94 L 235.86 379.64 L 230.81 381.83 L 225.76 383.97 L 220.71 384.90 L 215.66 386.58 L 210.61 388.18 L 205.56 388.99 L 200.51 389.48 L 195.45 391.03 L 190.40 392.84 L 185.35 393.51 L 180.30 394.74 L 175.25 396.15 L 170.20 396.65 L 165.15 397.83 L 160.10 398.65 L 155.05 399.42 L 150.00 400.00" /><text  class="poloto_labels poloto_text poloto_title" x="400" y="37.5" >Bench of rebal:128_bytes with abspiral(num,0.6)</text><text  class="poloto_labels poloto_text poloto_xname" x="400" y="481.25" >Number of Elements</text><text  class="poloto_labels poloto_text poloto_yname" transform="rotate(-90,37.5,250)" x="37.5" y="250" >Time in Seconds</text><text  class="poloto_tick_labels poloto_text" dominant-baseline="middle" text-anchor="start" x="440.00000000000006" y="70" ></text><line  class="poloto_axis_lines" stroke="black" x1="150" x2="150" y1="400" y2="405" /><text  class="poloto_tick_labels poloto_text" dominant-baseline="start" text-anchor="middle" x="150" y="430" >0</text><line  class="poloto_axis_lines" stroke="black" x1="234.17508417508418" x2="234.17508417508418" y1="400" y2="405" /><text  class="poloto_tick_labels poloto_text" dominant-baseline="start" text-anchor="middle" x="234.17508417508418" y="430" >5000</text><line  class="poloto_axis_lines" stroke="black" x1="318.35016835016836" x2="318.35016835016836" y1="400" y2="405" /><text  class="poloto_tick_labels poloto_text" dominant-baseline="start" text-anchor="middle" x="318.35016835016836" y="430" >10000</text><line  class="poloto_axis_lines" stroke="black" x1="402.52525252525254" x2="402.52525252525254" y1="400" y2="405" /><text  class="poloto_tick_labels poloto_text" dominant-baseline="start" text-anchor="middle" x="402.52525252525254" y="430" >15000</text><line  class="poloto_axis_lines" stroke="black" x1="486.7003367003367" x2="486.7003367003367" y1="400" y2="405" /><text  class="poloto_tick_labels poloto_text" dominant-baseline="start" text-anchor="middle" x="486.7003367003367" y="430" >20000</text><line  class="poloto_axis_lines" stroke="black" x1="570.8754208754208" x2="570.8754208754208" y1="400" y2="405" /><text  class="poloto_tick_labels poloto_text" dominant-baseline="start" text-anchor="middle" x="570.8754208754208" y="430" >25000</text><text  class="poloto_tick_labels poloto_text" dominant-baseline="middle" text-anchor="start" x="150" y="70" ></text><line  class="poloto_axis_lines" stroke="black" x1="150" x2="144" y1="400" y2="400" /><text  class="poloto_tick_labels poloto_text" dominant-baseline="middle" text-anchor="end" x="135" y="400" >0e0</text><line  class="poloto_axis_lines" stroke="black" x1="150" x2="144" y1="325.58954473575176" y2="325.58954473575176" /><text  class="poloto_tick_labels poloto_text" dominant-baseline="middle" text-anchor="end" x="135" y="325.58954473575176" >0.002</text><line  class="poloto_axis_lines" stroke="black" x1="150" x2="144" y1="251.17908947150352" y2="251.17908947150352" /><text  class="poloto_tick_labels poloto_text" dominant-baseline="middle" text-anchor="end" x="135" y="251.17908947150352" >0.004</text><line  class="poloto_axis_lines" stroke="black" x1="150" x2="144" y1="176.76863420725522" y2="176.76863420725522" /><text  class="poloto_tick_labels poloto_text" dominant-baseline="middle" text-anchor="end" x="135" y="176.76863420725522" >0.006</text><line  class="poloto_axis_lines" stroke="black" x1="150" x2="144" y1="102.35817894300698" y2="102.35817894300698" /><text  class="poloto_tick_labels poloto_text" dominant-baseline="middle" text-anchor="end" x="135" y="102.35817894300698" >0.008</text><path  stroke="black" fill="none" class="poloto_axis_lines" style="stroke-dasharray:8.417508417508419;stroke-dashoffset:-0;" d=" M 150 400 L 650 400" /><path  stroke="black" fill="none" class="poloto_axis_lines" style="stroke-dasharray:9.301306908031032;stroke-dashoffset:-0;" d=" M 150 400 L 150 100" /></svg>