<svg  width="800" class="poloto_background poloto" height="500" viewBox="0 0 800 500" xmlns="http://www.w3.org/2000/svg" ><text  class="poloto_text" alignment-baseline="middle" text-anchor="start" font-size="large" x="675" y="100" >default_par</text><line  class="poloto0stroke poloto0legend" stroke="black" x1="680" x2="730" y1="81.25" y2="81.25" /><path  class="poloto0stroke" fill="none" stroke="black" d=" M 650 276.50263191277793 L 644.9494949494949 273.883350133744 L 639.8989898989898 281.83441387936716 L 634.8484848484848 287.3031180561902 L 629.7979797979798 282.2483723607555 L 624.7474747474747 281.76353842565373 L 619.6969696969697 287.0340204905902 L 614.6464646464647 288.23194660606697 L 609.5959595959596 275.99250869915716 L 604.5454545454545 292.4325039523023 L 599.4949494949494 292.48267329771375 L 594.4444444444445 295.7028414291307 L 589.3939393939394 297.4365892483737 L 584.3434343434344 313.313427461101 L 579.2929292929293 313.5108311497346 L 574.2424242424242 316.9028681642903 L 569.1919191919192 315.65477270340205 L 564.1414141414141 319.6765864111731 L 559.090909090909 319.36910479500546 L 554.040404040404 298.13396770229036 L 548.989898989899 302.6823549310683 L 543.939393939394 305.3383839141638 L 538.8888888888889 301.04378973615394 L 533.8383838383838 310.59683515728045 L 528.7878787878788 311.5032389100239 L 523.7373737373737 309.4225614738166 L 518.6868686868687 313.0052911063309 L 513.6363636363636 313.8320622765534 L 508.5858585858586 312.6061460858226 L 503.5353535353535 301.0916674964569 L 498.4848484848485 315.10552885828594 L 493.4343434343434 314.82137230482994 L 488.3838383838384 319.4868759011181 L 483.3333333333333 315.12991787122655 L 478.2828282828283 322.1475698967559 L 473.2323232323232 322.16827600505786 L 468.1818181818182 317.3683873106203 L 463.1313131313131 327.476896593586 L 458.0808080808081 329.3130291617845 L 453.030303030303 329.3286610459176 L 447.979797979798 330.33744954761653 L 442.9292929292929 324.40068911237904 L 437.8787878787879 329.44765978690987 L 432.8282828282828 329.34069186773735 L 427.77777777777777 330.42821268637886 L 422.72727272727275 324.60496755633824 L 417.67676767676767 326.838608298539 L 412.62626262626264 326.6582278135686 L 407.57575757575756 327.324588026195 L 402.52525252525254 315.749218746803 L 397.47474747474746 331.9562907421326 L 392.4242424242424 327.24822913668623 L 387.37373737373736 335.4387635261493 L 382.32323232323233 328.8235302141404 L 377.27272727272725 336.8227990893677 L 372.22222222222223 311.40952944755065 L 367.1717171717172 338.4404944913295 L 362.1212121212121 338.2439092259489 L 357.07070707070704 338.1779443117538 L 352.020202020202 340.0545888309779 L 346.969696969697 342.8585068958979 L 341.9191919191919 341.5476383715014 L 336.86868686868684 345.8390406988243 L 331.8181818181818 348.230064232585 L 326.7676767676768 350.74237809244636 L 321.7171717171717 348.2696759180322 L 316.66666666666663 350.4945595314254 L 311.6161616161616 353.901655533837 L 306.5656565656566 351.8031364707134 L 301.5151515151515 356.0996130222052 L 296.4646464646464 355.1274898822425 L 291.4141414141414 360.5284286137138 L 286.3636363636364 352.63882845439406 L 281.3131313131313 354.77253971739844 L 276.26262626262627 356.9749985336583 L 271.2121212121212 364.24202412438945 L 266.16161616161617 360.09098138496313 L 261.1111111111111 355.4542044448567 L 256.06060606060606 362.8583977727975 L 251.010101010101 365.9702885078371 L 245.95959595959596 368.55085886700215 L 240.9090909090909 355.83640810402704 L 235.85858585858585 370.1222315128417 L 230.8080808080808 359.6325006786093 L 225.75757575757575 358.80098265351916 L 220.7070707070707 370.51728441708485 L 215.65656565656565 372.77727838803355 L 210.6060606060606 375.88998754632615 L 205.55555555555554 373.09138923255085 L 200.50505050505052 375.95022349775 L 195.45454545454544 377.06630728792265 L 190.40404040404042 376.75743435222483 L 185.35353535353534 380.7952891557555 L 180.3030303030303 385.0627116817643 L 175.25252525252526 386.45263989240465 L 170.2020202020202 389.6858209535449 L 165.15151515151516 392.7794608500417 L 160.1010101010101 395.56029937922597 L 155.05050505050505 397.7972138144389 L 150 399.9997544730241" /><text  class="poloto_text" alignment-baseline="middle" text-anchor="start" font-size="large" x="675" y="150" >default_seq</text><line  class="poloto1stroke poloto1legend" stroke="black" x1="680" x2="730" y1="131.25" y2="131.25" /><path  class="poloto1stroke" fill="none" stroke="black" d=" M 650 127.4477880065528 L 644.9494949494949 115.7607039531207 L 639.8989898989898 144.29069302717028 L 634.8484848484848 119.25799019801747 L 629.7979797979798 128.28347999023345 L 624.7474747474747 146.10816554519943 L 619.6969696969697 123.22333270132867 L 614.6464646464647 128.93486305732915 L 609.5959595959596 147.88504426987777 L 604.5454545454545 133.86005235180738 L 599.4949494949494 146.16889255057512 L 594.4444444444445 148.07058082134228 L 589.3939393939394 154.1445089937895 L 584.3434343434344 162.2065509325251 L 579.2929292929293 175.57410345142725 L 574.2424242424242 173.12660871320676 L 569.1919191919192 171.13292966879771 L 564.1414141414141 181.66276324242924 L 559.090909090909 172.50247914043732 L 554.040404040404 191.90107445332737 L 548.989898989899 197.8434001666855 L 543.939393939394 184.15846311025385 L 538.8888888888889 184.96346422194546 L 533.8383838383838 190.98730489130656 L 528.7878787878788 209.03165524738887 L 523.7373737373737 193.68924741889765 L 518.6868686868687 218.64698267807182 L 513.6363636363636 205.9647777912666 L 508.5858585858586 203.6990548575466 L 503.5353535353535 209.11791705825945 L 498.4848484848485 230.5993177078147 L 493.4343434343434 221.33141094804782 L 488.3838383838384 223.05108188733857 L 483.3333333333333 237.2210984058479 L 478.2828282828283 220.4322093199312 L 473.2323232323232 227.0936835457369 L 468.1818181818182 230.27522209961026 L 463.1313131313131 246.10393702505874 L 458.0808080808081 242.87533913413546 L 453.030303030303 241.31362388268175 L 447.979797979798 255.21511573186817 L 442.9292929292929 247.29858944752337 L 437.8787878787879 250.60010885029266 L 432.8282828282828 251.058998768273 L 427.77777777777777 250.22731705853226 L 422.72727272727275 238.94780778511478 L 417.67676767676767 258.6142730287253 L 412.62626262626264 258.08729029609185 L 407.57575757575756 268.23254678311923 L 402.52525252525254 264.29691304389337 L 397.47474747474746 274.23191659721437 L 392.4242424242424 277.2353662512259 L 387.37373737373736 280.84207568505434 L 382.32323232323233 275.14699563644 L 377.27272727272725 281.61614039778095 L 372.22222222222223 289.2296045515245 L 367.1717171717172 286.5845424400198 L 362.1212121212121 293.7501653896991 L 357.07070707070704 296.0824261338913 L 352.020202020202 296.1512555294721 L 346.969696969697 301.79551149407257 L 341.9191919191919 303.5578222848468 L 336.86868686868684 304.48255871845834 L 331.8181818181818 306.30134071369235 L 326.7676767676768 308.48235684072256 L 321.7171717171717 307.5163718751577 L 316.66666666666663 316.0397590016328 L 311.6161616161616 317.3870473607896 L 306.5656565656566 318.46319209621385 L 301.5151515151515 323.6079643494831 L 296.4646464646464 324.0548234456437 L 291.4141414141414 328.2111859362148 L 286.3636363636364 331.2262572004196 L 281.3131313131313 332.4050322117752 L 276.26262626262627 336.1314769675236 L 271.2121212121212 336.37978658249637 L 266.16161616161617 342.3278412586258 L 261.1111111111111 342.43055337688253 L 256.06060606060606 348.5700372518984 L 251.010101010101 341.27674027474467 L 245.95959595959596 352.4164628565427 L 240.9090909090909 354.98819424457486 L 235.85858585858585 359.07196259260115 L 230.8080808080808 361.01187122928536 L 225.75757575757575 363.187894974472 L 220.7070707070707 366.08642276744365 L 215.65656565656565 365.7363831421178 L 210.6060606060606 367.99711369399427 L 205.55555555555554 370.5573871564839 L 200.50505050505052 373.92462594647236 L 195.45454545454544 377.49278764508256 L 190.40404040404042 379.0146456841132 L 185.35353535353534 381.9973073874975 L 180.3030303030303 383.3921461376561 L 175.25252525252526 386.3437077574248 L 170.2020202020202 389.5331031745274 L 165.15151515151516 392.0652228771124 L 160.1010101010101 395.43933642242644 L 155.05050505050505 397.68836352178437 L 150 400" /><text  class="poloto_text" alignment-baseline="middle" text-anchor="start" font-size="large" x="675" y="200" >direct_par</text><line  class="poloto2stroke poloto2legend" stroke="black" x1="680" x2="730" y1="181.25" y2="181.25" /><path  class="poloto2stroke" fill="none" stroke="black" d=" M 650 288.14511189891925 L 644.9494949494949 270.16623540308024 L 639.8989898989898 293.5443319415591 L 634.8484848484848 289.9971218782268 L 629.7979797979798 291.6226741434177 L 624.7474747474747 293.8631077986188 L 619.6969696969697 292.9083352316206 L 614.6464646464647 295.99763748487624 L 609.5959595959596 300.004310362466 L 604.5454545454545 295.8991811675353 L 599.4949494949494 289.22420295805443 L 594.4444444444445 304.31887406785 L 589.3939393939394 304.21337931053296 L 584.3434343434344 309.84003917519306 L 579.2929292929293 320.0534703191987 L 574.2424242424242 325.2204218426254 L 569.1919191919192 322.3048708459905 L 564.1414141414141 325.56538724378237 L 559.090909090909 325.64993036582155 L 554.040404040404 319.9104917768924 L 548.989898989899 311.51805237090394 L 543.939393939394 314.7741492831294 L 538.8888888888889 311.8349458544816 L 533.8383838383838 318.25228442390505 L 528.7878787878788 318.81593251827474 L 523.7373737373737 320.36586247488464 L 518.6868686868687 319.6718395563055 L 513.6363636363636 320.07646801260915 L 508.5858585858586 321.58187574425364 L 503.5353535353535 324.6040672907599 L 498.4848484848485 322.6279025039659 L 493.4343434343434 325.90838842913206 L 488.3838383838384 326.68433551534065 L 483.3333333333333 328.05609472976346 L 478.2828282828283 326.14843196924915 L 473.2323232323232 323.9570218669053 L 468.1818181818182 330.12433213252456 L 463.1313131313131 331.77844736924663 L 458.0808080808081 326.77288891131974 L 453.030303030303 332.31140459162725 L 447.979797979798 333.5088396531522 L 442.9292929292929 328.4551579079465 L 437.8787878787879 337.61519648296246 L 432.8282828282828 335.55064198484007 L 427.77777777777777 335.3091252828675 L 422.72727272727275 324.87087327125136 L 417.67676767676767 329.85597114785224 L 412.62626262626264 330.75247197923386 L 407.57575757575756 331.8863973963228 L 402.52525252525254 332.489739018465 L 397.47474747474746 334.21251996611727 L 392.4242424242424 336.10225925739 L 387.37373737373736 337.52197807444105 L 382.32323232323233 339.49797917658435 L 377.27272727272725 339.51336553374153 L 372.22222222222223 339.8856662715501 L 367.1717171717172 336.05691860917153 L 362.1212121212121 340.11908058331755 L 357.07070707070704 342.2604031825752 L 352.020202020202 342.03754653077203 L 346.969696969697 346.18236925347526 L 341.9191919191919 347.22896890946464 L 336.86868686868684 347.93354948800805 L 331.8181818181818 349.98410894850343 L 326.7676767676768 351.408001724145 L 321.7171717171717 355.59538245600635 L 316.66666666666663 353.88013100228204 L 311.6161616161616 354.6905337074437 L 306.5656565656566 355.2849545161277 L 301.5151515151515 357.30244967720023 L 296.4646464646464 358.7591612252887 L 291.4141414141414 359.4025237445046 L 286.3636363636364 348.78438230187 L 281.3131313131313 359.2218158902331 L 276.26262626262627 359.83055910584534 L 271.2121212121212 362.05667035411807 L 266.16161616161617 366.7290487057318 L 261.1111111111111 366.3199189215364 L 256.06060606060606 366.31500838201816 L 251.010101010101 369.24291756977397 L 245.95959595959596 362.7651793642761 L 240.9090909090909 355.7067698607453 L 235.85858585858585 368.0531756868276 L 230.8080808080808 361.47755406026596 L 225.75757575757575 365.3409210262482 L 220.7070707070707 367.7253153316592 L 215.65656565656565 376.0002291585108 L 210.6060606060606 373.8670907917836 L 205.55555555555554 375.53258211172295 L 200.50505050505052 376.7250247914044 L 195.45454545454544 378.3301164752693 L 190.40404040404042 380.1654306202148 L 185.35353535353534 381.74793382229575 L 180.3030303030303 385.52119238811815 L 175.25252525252526 387.8122046003571 L 170.2020202020202 391.3627701990269 L 165.15151515151516 392.3693489579426 L 160.1010101010101 395.044201675858 L 155.05050505050505 397.76652294244985 L 150 399.9995907883735" /><text  class="poloto_text" alignment-baseline="middle" text-anchor="start" font-size="large" x="675" y="250" >direct_seq</text><line  class="poloto3stroke poloto3legend" stroke="black" x1="680" x2="730" y1="231.25" y2="231.25" /><path  class="poloto3stroke" fill="none" stroke="black" d=" M 650 157.10507326934172 L 644.9494949494949 165.67568341751723 L 639.8989898989898 168.70024839145728 L 634.8484848484848 171.31502884259945 L 629.7979797979798 172.43389527183245 L 624.7474747474747 176.0624566065171 L 619.6969696969697 178.0795425559631 L 614.6464646464647 179.53887305846132 L 609.5959595959596 185.24565655959415 L 604.5454545454545 189.21697355265255 L 599.4949494949494 190.4221836350814 L 594.4444444444445 193.11258639480462 L 589.3939393939394 190.72041706848972 L 584.3434343434344 195.56752878462783 L 579.2929292929293 201.4136897657536 L 574.2424242424242 201.38103467795725 L 569.1919191919192 199.48409326205774 L 564.1414141414141 209.54226951496145 L 559.090909090909 208.61581439251847 L 554.040404040404 211.7677260246318 L 548.989898989899 216.73825596732854 L 543.939393939394 219.00111441966288 L 538.8888888888889 219.8069339546075 L 533.8383838383838 224.26725884135817 L 528.7878787878788 221.41120721521938 L 523.7373737373737 229.86617415774015 L 518.6868686868687 231.723913099819 L 513.6363636363636 234.76476469649455 L 508.5858585858586 237.37610776997394 L 503.5353535353535 240.84425814706248 L 498.4848484848485 242.6231010875481 L 493.4343434343434 244.00394480007964 L 488.3838383838384 246.33023105452472 L 483.3333333333333 247.3605440877786 L 478.2828282828283 251.85164168884364 L 473.2323232323232 254.75614397156252 L 468.1818181818182 254.67953955507784 L 463.1313131313131 258.8691300297224 L 458.0808080808081 260.18499093596245 L 453.030303030303 264.5491510904808 L 447.979797979798 264.56699271739706 L 442.9292929292929 268.4875674687669 L 437.8787878787879 264.96343694117036 L 432.8282828282828 269.34552056493027 L 427.77777777777777 273.9327010559024 L 422.72727272727275 265.9220560974578 L 417.67676767676767 270.24717746280606 L 412.62626262626264 268.65419844308616 L 407.57575757575756 275.3134629261086 L 402.52525252525254 277.4034703874006 L 397.47474747474746 277.2546810399977 L 392.4242424242424 280.96369338045633 L 387.37373737373736 285.03215721365075 L 382.32323232323233 286.22206278124776 L 377.27272727272725 289.55664648343986 L 372.22222222222223 291.7248952077226 L 367.1717171717172 293.8495219726183 L 362.1212121212121 296.8682761414617 L 357.07070707070704 301.12497732285567 L 352.020202020202 302.6582114451036 L 346.969696969697 303.4660770381808 L 341.9191919191919 308.021257179959 L 336.86868686868684 310.2279717971347 L 331.8181818181818 312.22762533129094 L 326.7676767676768 313.9513065445215 L 321.7171717171717 318.7980908913584 L 316.66666666666663 318.6282680663523 L 311.6161616161616 322.86074391945624 L 306.5656565656566 325.32640765389425 L 301.5151515151515 326.2068673895163 L 296.4646464646464 330.1474116682603 L 291.4141414141414 331.76821707858363 L 286.3636363636364 335.5738033629011 L 281.3131313131313 338.4449139768959 L 276.26262626262627 339.84597274377757 L 271.2121212121212 343.29317148558823 L 266.16161616161617 345.90877035998346 L 261.1111111111111 349.14178773647313 L 256.06060606060606 350.7905832220505 L 251.010101010101 354.11059899033853 L 245.95959595959596 356.6585142617072 L 240.9090909090909 357.1242789350131 L 235.85858585858585 361.553176368847 L 230.8080808080808 359.6379841144047 L 225.75757575757575 365.9804369561748 L 220.7070707070707 367.76255358967256 L 215.65656565656565 366.51764997947123 L 210.6060606060606 370.0699342669724 L 205.55555555555554 372.5547491055316 L 200.50505050505052 374.78192430403334 L 195.45454545454544 377.0351253619818 L 190.40404040404042 379.92792419218216 L 185.35353535353534 382.6561381061959 L 180.3030303030303 384.50315570365984 L 175.25252525252526 387.66112366784563 L 170.2020202020202 390.00713392268904 L 165.15151515151516 392.07586237940194 L 160.1010101010101 395.0972355026551 L 155.05050505050505 397.6724861106754 L 150 399.9984449958192" /><text  class="poloto_text" alignment-baseline="middle" text-anchor="start" font-size="large" x="675" y="300" >indirect_par</text><line  class="poloto4stroke poloto4legend" stroke="black" x1="680" x2="730" y1="281.25" y2="281.25" /><path  class="poloto4stroke" fill="none" stroke="black" d=" M 650 230.11284692620686 L 644.9494949494949 266.41556531904183 L 639.8989898989898 265.5896944143977 L 634.8484848484848 259.71898073568065 L 629.7979797979798 271.7579867879206 L 624.7474747474747 273.19006379609255 L 619.6969696969697 270.4462179979457 L 614.6464646464647 271.06969283211276 L 609.5959595959596 279.9530225052754 L 604.5454545454545 281.8358051988973 L 599.4949494949494 273.32600389842275 L 594.4444444444445 279.6580627648793 L 589.3939393939394 285.0509809484707 L 584.3434343434344 301.1687629668934 L 579.2929292929293 306.27588775052277 L 574.2424242424242 291.3677353000953 L 569.1919191919192 301.2935725129822 L 564.1414141414141 310.1021801431422 L 559.090909090909 307.74217485067186 L 554.040404040404 306.1705566778563 L 548.989898989899 290.4617407589784 L 543.939393939394 299.0832568334931 L 538.8888888888889 296.51692703893104 L 533.8383838383838 282.3431457734577 L 528.7878787878788 301.97392776323557 L 523.7373737373737 290.2219427458373 L 518.6868686868687 290.9224312081155 L 513.6363636363636 300.4600084297595 L 508.5858585858586 301.61005678493336 L 503.5353535353535 305.29034246921026 L 498.4848484848485 308.07543679931035 L 493.4343434343434 312.01696318595805 L 488.3838383838384 307.7604256892147 L 483.3333333333333 314.98734854054675 L 478.2828282828283 317.12507007749105 L 473.2323232323232 305.8625840077368 L 468.1818181818182 311.2454355853158 L 463.1313131313131 320.6906128216915 L 458.0808080808081 319.2442952489166 L 453.030303030303 320.2194465549155 L 447.979797979798 320.8867888754455 L 442.9292929292929 321.88411945160186 L 437.8787878787879 321.84663566661254 L 432.8282828282828 323.175509502576 L 427.77777777777777 324.6818993421241 L 422.72727272727275 314.27753005318385 L 417.67676767676767 318.3347814878116 L 412.62626262626264 317.90298137950697 L 407.57575757575756 320.0358742192583 L 402.52525252525254 322.17973393060043 L 397.47474747474746 322.824896980973 L 392.4242424242424 326.786147368019 L 387.37373737373736 327.6815842491717 L 382.32323232323233 328.9709282420132 L 377.27272727272725 326.0232950538591 L 372.22222222222223 329.78116726252426 L 367.1717171717172 333.9204247071068 L 362.1212121212121 308.89917980349657 L 357.07070707070704 324.5682203522766 L 352.020202020202 329.1419787018989 L 346.969696969697 339.2582630057685 L 341.9191919191919 338.32730655543384 L 336.86868686868684 339.652333802108 L 331.8181818181818 343.0382326422658 L 326.7676767676768 342.91047677246604 L 321.7171717171717 342.0440120744711 L 316.66666666666663 347.519672848945 L 311.6161616161616 347.58629250174255 L 306.5656565656566 349.44992409124325 L 301.5151515151515 349.8676473195956 L 296.4646464646464 351.7933153916769 L 291.4141414141414 353.7740633486879 L 286.3636363636364 351.7003425101314 L 281.3131313131313 349.73391696004865 L 276.26262626262627 351.6081062095136 L 271.2121212121212 355.1126764213625 L 266.16161616161617 344.6469253884441 L 261.1111111111111 358.11972713768745 L 256.06060606060606 361.26427296052333 L 251.010101010101 360.99386591771844 L 245.95959595959596 361.930715015475 L 240.9090909090909 364.63544018212644 L 235.85858585858585 366.77095197628756 L 230.8080808080808 366.55791640352084 L 225.75757575757575 355.6220630540555 L 220.7070707070707 363.0536735609732 L 215.65656565656565 369.4066022203823 L 210.6060606060606 371.1220173587572 L 205.55555555555554 371.0540063864295 L 200.50505050505052 376.55315590826564 L 195.45454545454544 375.7161544473802 L 190.40404040404042 377.3872110454402 L 185.35353535353534 379.85164714499865 L 180.3030303030303 383.46351264532126 L 175.25252525252526 386.42923298736764 L 170.2020202020202 389.7116012860157 L 165.15151515151516 391.66558680265223 L 160.1010101010101 394.7753496372339 L 155.05050505050505 397.4650158160294 L 150 399.9995907883735" /><text  class="poloto_text" alignment-baseline="middle" text-anchor="start" font-size="large" x="675" y="350" >indirect_seq</text><line  class="poloto5stroke poloto5legend" stroke="black" x1="680" x2="730" y1="331.25" y2="331.25" /><path  class="poloto5stroke" fill="none" stroke="black" d=" M 650 100 L 644.9494949494949 119.28688053884986 L 639.8989898989898 101.88212795501943 L 634.8484848484848 113.75630356409681 L 629.7979797979798 105.85098967831874 L 624.7474747474747 128.12945273401107 L 619.6969696969697 142.6527825708584 L 614.6464646464647 115.0113556226359 L 609.5959595959596 136.31393079140162 L 604.5454545454545 104.13107321205206 L 599.4949494949494 155.95330622533643 L 594.4444444444445 140.68938518681193 L 589.3939393939394 127.7418474813706 L 584.3434343434344 141.2815962527127 L 579.2929292929293 158.8694301182485 L 574.2424242424242 159.74481562970163 L 569.1919191919192 142.0794770821028 L 564.1414141414141 137.5295348491441 L 559.090909090909 176.76769192366294 L 554.040404040404 159.05112008042371 L 548.989898989899 187.12377424067373 L 543.939393939394 169.25039250215175 L 538.8888888888889 172.5892320052597 L 533.8383838383838 188.2328195908702 L 528.7878787878788 164.95301568508162 L 523.7373737373737 189.5197901562779 L 518.6868686868687 190.62638023671525 L 513.6363636363636 191.66937883039134 L 508.5858585858586 193.1080850669129 L 503.5353535353535 215.3062608014819 L 498.4848484848485 217.92349652238318 L 493.4343434343434 211.39861713751012 L 488.3838383838384 209.52360946479212 L 483.3333333333333 209.44463162087362 L 478.2828282828283 227.8339473781129 L 473.2323232323232 233.11122235604955 L 468.1818181818182 222.07535768506253 L 463.1313131313131 238.99290290635736 L 458.0808080808081 232.0522645089392 L 453.030303030303 232.46581377870106 L 447.979797979798 228.12334184038838 L 442.9292929292929 248.75742889606977 L 437.8787878787879 240.4563255251208 L 432.8282828282828 227.73778264588051 L 427.77777777777777 240.82608915084495 L 422.72727272727275 240.92487283748704 L 417.67676767676767 244.1448772842534 L 412.62626262626264 253.09343529068346 L 407.57575757575756 250.90161597671312 L 402.52525252525254 254.58026481448388 L 397.47474747474746 255.1547160957937 L 392.4242424242424 258.61787409103863 L 387.37373737373736 262.57666920832554 L 382.32323232323233 263.30653906538794 L 377.27272727272725 265.84880721631066 L 372.22222222222223 278.341874489338 L 367.1717171717172 275.523715859815 L 362.1212121212121 278.1826911666214 L 357.07070707070704 285.5815647434175 L 352.020202020202 284.1230526641723 L 346.969696969697 288.4202657965918 L 341.9191919191919 295.5644460570413 L 336.86868686868684 287.156947663197 L 331.8181818181818 298.18962048349715 L 326.7676767676768 295.42580515797613 L 321.7171717171717 302.95161618131897 L 316.66666666666663 308.751290721672 L 311.6161616161616 302.3339521522485 L 306.5656565656566 307.98729261495777 L 301.5151515151515 318.11077904345416 L 296.4646464646464 320.1634664044075 L 291.4141414141414 321.59366103909747 L 286.3636363636364 322.3489020170041 L 281.3131313131313 327.0103953393524 L 276.26262626262627 332.2316083244557 L 271.2121212121212 335.2202445175872 L 266.16161616161617 336.1489093828134 L 261.1111111111111 339.96300726896254 L 256.06060606060606 340.5201079773079 L 251.010101010101 344.5253895353675 L 245.95959595959596 349.3483577655408 L 240.9090909090909 352.39583859056603 L 235.85858585858585 352.8625035294503 L 230.8080808080808 357.80569813549545 L 225.75757575757575 361.3229539077664 L 220.7070707070707 360.78091218727707 L 215.65656565656565 362.7942333897591 L 210.6060606060606 366.8429732225552 L 205.55555555555554 369.7662173977687 L 200.50505050505052 373.36572470697035 L 195.45454545454544 374.95272923694307 L 190.40404040404042 377.5525325425546 L 185.35353535353534 381.69277209504077 L 180.3030303030303 383.8241917729367 L 175.25252525252526 387.02226247652146 L 170.2020202020202 389.5486532163352 L 165.15151515151516 391.59569345684247 L 160.1010101010101 394.5840841229981 L 155.05050505050505 397.42327623012426 L 150 399.99909973442163" /><text  class="poloto_text" alignment-baseline="start" text-anchor="middle" font-size="x-large" x="400" y="37.5" >Bench of query:128_bytes with abspiral(num,1.5)</text><text  class="poloto_text" alignment-baseline="start" text-anchor="middle" font-size="x-large" x="400" y="481.25" >Number of Elements</text><text  class="poloto_text" alignment-baseline="start" text-anchor="middle" font-size="x-large" transform="rotate(-90,37.5,250)" x="37.5" y="250" >Time in Seconds</text><line  class="poloto_axis_lines" stroke="black" x1="150" x2="150" y1="400" y2="405" /><text  class="poloto_text" alignment-baseline="start" text-anchor="middle" x="150" y="430" > 0</text><line  class="poloto_axis_lines" stroke="black" x1="234.17508417508418" x2="234.17508417508418" y1="400" y2="405" /><text  class="poloto_text" alignment-baseline="start" text-anchor="middle" x="234.17508417508418" y="430" > 5000</text><line  class="poloto_axis_lines" stroke="black" x1="318.35016835016836" x2="318.35016835016836" y1="400" y2="405" /><text  class="poloto_text" alignment-baseline="start" text-anchor="middle" x="318.35016835016836" y="430" > 10000</text><line  class="poloto_axis_lines" stroke="black" x1="402.52525252525254" x2="402.52525252525254" y1="400" y2="405" /><text  class="poloto_text" alignment-baseline="start" text-anchor="middle" x="402.52525252525254" y="430" > 15000</text><line  class="poloto_axis_lines" stroke="black" x1="486.7003367003367" x2="486.7003367003367" y1="400" y2="405" /><text  class="poloto_text" alignment-baseline="start" text-anchor="middle" x="486.7003367003367" y="430" > 20000</text><line  class="poloto_axis_lines" stroke="black" x1="570.8754208754208" x2="570.8754208754208" y1="400" y2="405" /><text  class="poloto_text" alignment-baseline="start" text-anchor="middle" x="570.8754208754208" y="430" > 25000</text><line  class="poloto_axis_lines" stroke="black" x1="150" x2="144" y1="318.16299444699825" y2="318.16299444699825" /><text  class="poloto_text" alignment-baseline="middle" text-anchor="end" x="135" y="318.16299444699825" > 0.001</text><line  class="poloto_axis_lines" stroke="black" x1="150" x2="144" y1="236.32066914285167" y2="236.32066914285167" /><text  class="poloto_text" alignment-baseline="middle" text-anchor="end" x="135" y="236.32066914285167" > 0.002</text><line  class="poloto_axis_lines" stroke="black" x1="150" x2="144" y1="154.47834383870511" y2="154.47834383870511" /><text  class="poloto_text" alignment-baseline="middle" text-anchor="end" x="135" y="154.47834383870511" > 0.003</text><path  stroke="black" fill="none" class="poloto_axis_lines" style="stroke-dasharray:8.417508417508419;stroke-dashoffset:-0;" d=" M 150 400 L 650 400" /><path  stroke="black" fill="none" class="poloto_axis_lines" style="stroke-dasharray:8.184232530414656;stroke-dashoffset:-81.83700555300177;" d=" M 150 400 L 150 100" /></svg>