<svg class="poloto" width="800" height="500" viewBox="0 0 800 500" xmlns="http://www.w3.org/2000/svg"><circle  r="1e5" class="poloto_background" /><text  class="poloto_text poloto_legend_text" x="675" y="100" >default_par</text><line  class="poloto_scatter poloto_legend_icon poloto0stroke poloto0legend" stroke="black" x1="685" x2="685" y1="81.25" y2="81.25" /><path  class="poloto_scatter poloto0stroke" d=" M 650.00 330.92 h 0 M 644.95 335.79 h 0 M 639.90 309.75 h 0 M 634.85 334.86 h 0 M 629.80 338.54 h 0 M 624.75 339.34 h 0 M 619.70 334.45 h 0 M 614.65 321.73 h 0 M 609.60 322.75 h 0 M 604.55 338.82 h 0 M 599.49 342.99 h 0 M 594.44 337.06 h 0 M 589.39 336.38 h 0 M 584.34 338.81 h 0 M 579.29 341.91 h 0 M 574.24 346.15 h 0 M 569.19 334.07 h 0 M 564.14 342.31 h 0 M 559.09 341.75 h 0 M 554.04 343.06 h 0 M 548.99 338.97 h 0 M 543.94 344.58 h 0 M 538.89 344.33 h 0 M 533.84 339.59 h 0 M 528.79 348.66 h 0 M 523.74 356.50 h 0 M 518.69 346.99 h 0 M 513.64 345.38 h 0 M 508.59 345.86 h 0 M 503.54 349.13 h 0 M 498.48 355.89 h 0 M 493.43 350.33 h 0 M 488.38 353.55 h 0 M 483.33 355.84 h 0 M 478.28 345.81 h 0 M 473.23 356.64 h 0 M 468.18 351.33 h 0 M 463.13 355.91 h 0 M 458.08 355.26 h 0 M 453.03 356.18 h 0 M 447.98 353.73 h 0 M 442.93 352.66 h 0 M 437.88 358.43 h 0 M 432.83 358.04 h 0 M 427.78 359.93 h 0 M 422.73 360.57 h 0 M 417.68 370.35 h 0 M 412.63 368.20 h 0 M 407.58 367.55 h 0 M 402.53 360.75 h 0 M 397.47 369.56 h 0 M 392.42 366.38 h 0 M 387.37 370.19 h 0 M 382.32 337.46 h 0 M 377.27 366.61 h 0 M 372.22 366.42 h 0 M 367.17 371.50 h 0 M 362.12 370.01 h 0 M 357.07 370.42 h 0 M 352.02 372.15 h 0 M 346.97 369.96 h 0 M 341.92 370.73 h 0 M 336.87 373.12 h 0 M 331.82 370.24 h 0 M 326.77 367.37 h 0 M 321.72 375.89 h 0 M 316.67 376.95 h 0 M 311.62 377.99 h 0 M 306.57 378.14 h 0 M 301.52 377.94 h 0 M 296.46 377.73 h 0 M 291.41 377.81 h 0 M 286.36 383.01 h 0 M 281.31 383.00 h 0 M 276.26 382.54 h 0 M 271.21 383.23 h 0 M 266.16 385.75 h 0 M 261.11 385.65 h 0 M 256.06 385.79 h 0 M 251.01 380.68 h 0 M 245.96 387.50 h 0 M 240.91 385.79 h 0 M 235.86 386.85 h 0 M 230.81 386.39 h 0 M 225.76 388.44 h 0 M 220.71 387.25 h 0 M 215.66 384.59 h 0 M 210.61 387.50 h 0 M 205.56 387.75 h 0 M 200.51 389.35 h 0 M 195.45 390.19 h 0 M 190.40 388.57 h 0 M 185.35 389.34 h 0 M 180.30 394.57 h 0 M 175.25 395.48 h 0 M 170.20 396.39 h 0 M 165.15 397.68 h 0 M 160.10 398.36 h 0 M 155.05 399.36 h 0 M 150.00 400.00 h 0" /><text  class="poloto_text poloto_legend_text" x="675" y="150" >default_seq</text><line  class="poloto_scatter poloto_legend_icon poloto1stroke poloto1legend" stroke="black" x1="685" x2="685" y1="131.25" y2="131.25" /><path  class="poloto_scatter poloto1stroke" d=" M 650.00 255.16 h 0 M 644.95 255.72 h 0 M 639.90 255.07 h 0 M 634.85 256.68 h 0 M 629.80 261.30 h 0 M 624.75 262.23 h 0 M 619.70 258.94 h 0 M 614.65 264.11 h 0 M 609.60 267.61 h 0 M 604.55 265.15 h 0 M 599.49 270.12 h 0 M 594.44 270.39 h 0 M 589.39 274.32 h 0 M 584.34 269.76 h 0 M 579.29 273.43 h 0 M 574.24 278.22 h 0 M 569.19 276.89 h 0 M 564.14 278.22 h 0 M 559.09 285.03 h 0 M 554.04 285.40 h 0 M 548.99 284.92 h 0 M 543.94 283.50 h 0 M 538.89 288.46 h 0 M 533.84 290.32 h 0 M 528.79 288.98 h 0 M 523.74 293.31 h 0 M 518.69 293.22 h 0 M 513.64 291.13 h 0 M 508.59 296.60 h 0 M 503.54 297.72 h 0 M 498.48 298.91 h 0 M 493.43 299.56 h 0 M 488.38 305.07 h 0 M 483.33 303.35 h 0 M 478.28 305.80 h 0 M 473.23 309.72 h 0 M 468.18 305.35 h 0 M 463.13 311.00 h 0 M 458.08 310.24 h 0 M 453.03 312.17 h 0 M 447.98 313.52 h 0 M 442.93 316.90 h 0 M 437.88 317.10 h 0 M 432.83 319.12 h 0 M 427.78 317.85 h 0 M 422.73 327.70 h 0 M 417.68 326.85 h 0 M 412.63 330.54 h 0 M 407.58 331.77 h 0 M 402.53 323.87 h 0 M 397.47 333.65 h 0 M 392.42 335.40 h 0 M 387.37 337.17 h 0 M 382.32 321.91 h 0 M 377.27 339.76 h 0 M 372.22 340.03 h 0 M 367.17 343.78 h 0 M 362.12 343.46 h 0 M 357.07 344.03 h 0 M 352.02 348.29 h 0 M 346.97 349.17 h 0 M 341.92 349.14 h 0 M 336.87 351.49 h 0 M 331.82 352.07 h 0 M 326.77 352.45 h 0 M 321.72 353.50 h 0 M 316.67 354.54 h 0 M 311.62 355.98 h 0 M 306.57 359.26 h 0 M 301.52 360.26 h 0 M 296.46 362.02 h 0 M 291.41 363.56 h 0 M 286.36 366.96 h 0 M 281.31 368.01 h 0 M 276.26 369.19 h 0 M 271.21 370.07 h 0 M 266.16 372.10 h 0 M 261.11 373.92 h 0 M 256.06 375.07 h 0 M 251.01 376.15 h 0 M 245.96 376.68 h 0 M 240.91 378.22 h 0 M 235.86 378.60 h 0 M 230.81 380.42 h 0 M 225.76 382.57 h 0 M 220.71 382.78 h 0 M 215.66 385.51 h 0 M 210.61 387.26 h 0 M 205.56 387.96 h 0 M 200.51 389.08 h 0 M 195.45 390.07 h 0 M 190.40 391.60 h 0 M 185.35 392.40 h 0 M 180.30 393.53 h 0 M 175.25 395.16 h 0 M 170.20 396.05 h 0 M 165.15 397.05 h 0 M 160.10 398.38 h 0 M 155.05 399.23 h 0 M 150.00 399.99 h 0" /><text  class="poloto_text poloto_legend_text" x="675" y="200" >direct_par</text><line  class="poloto_scatter poloto_legend_icon poloto2stroke poloto2legend" stroke="black" x1="685" x2="685" y1="181.25" y2="181.25" /><path  class="poloto_scatter poloto2stroke" d=" M 650.00 302.43 h 0 M 644.95 318.44 h 0 M 639.90 303.32 h 0 M 634.85 320.24 h 0 M 629.80 326.36 h 0 M 624.75 324.90 h 0 M 619.70 328.13 h 0 M 614.65 325.00 h 0 M 609.60 317.93 h 0 M 604.55 297.13 h 0 M 599.49 324.92 h 0 M 594.44 322.27 h 0 M 589.39 321.87 h 0 M 584.34 323.64 h 0 M 579.29 323.67 h 0 M 574.24 325.51 h 0 M 569.19 330.53 h 0 M 564.14 327.14 h 0 M 559.09 328.81 h 0 M 554.04 334.13 h 0 M 548.99 329.67 h 0 M 543.94 321.63 h 0 M 538.89 331.63 h 0 M 533.84 331.13 h 0 M 528.79 334.26 h 0 M 523.74 335.52 h 0 M 518.69 340.25 h 0 M 513.64 331.49 h 0 M 508.59 333.96 h 0 M 503.54 335.06 h 0 M 498.48 343.43 h 0 M 493.43 347.50 h 0 M 488.38 343.12 h 0 M 483.33 345.13 h 0 M 478.28 347.93 h 0 M 473.23 341.42 h 0 M 468.18 346.06 h 0 M 463.13 343.43 h 0 M 458.08 342.60 h 0 M 453.03 344.58 h 0 M 447.98 349.95 h 0 M 442.93 348.99 h 0 M 437.88 342.26 h 0 M 432.83 353.50 h 0 M 427.78 357.22 h 0 M 422.73 354.18 h 0 M 417.68 355.76 h 0 M 412.63 352.86 h 0 M 407.58 353.47 h 0 M 402.53 360.50 h 0 M 397.47 357.94 h 0 M 392.42 359.83 h 0 M 387.37 361.19 h 0 M 382.32 349.07 h 0 M 377.27 361.58 h 0 M 372.22 358.20 h 0 M 367.17 362.19 h 0 M 362.12 361.98 h 0 M 357.07 357.96 h 0 M 352.02 364.55 h 0 M 346.97 369.70 h 0 M 341.92 363.57 h 0 M 336.87 364.94 h 0 M 331.82 369.00 h 0 M 326.77 366.76 h 0 M 321.72 369.29 h 0 M 316.67 371.09 h 0 M 311.62 372.00 h 0 M 306.57 373.98 h 0 M 301.52 375.78 h 0 M 296.46 377.29 h 0 M 291.41 375.94 h 0 M 286.36 379.22 h 0 M 281.31 378.73 h 0 M 276.26 379.90 h 0 M 271.21 381.23 h 0 M 266.16 381.98 h 0 M 261.11 382.60 h 0 M 256.06 382.33 h 0 M 251.01 381.53 h 0 M 245.96 375.56 h 0 M 240.91 384.44 h 0 M 235.86 382.58 h 0 M 230.81 384.82 h 0 M 225.76 385.07 h 0 M 220.71 386.27 h 0 M 215.66 382.73 h 0 M 210.61 385.55 h 0 M 205.56 385.54 h 0 M 200.51 385.68 h 0 M 195.45 388.88 h 0 M 190.40 389.54 h 0 M 185.35 388.29 h 0 M 180.30 393.63 h 0 M 175.25 394.86 h 0 M 170.20 395.75 h 0 M 165.15 397.32 h 0 M 160.10 398.08 h 0 M 155.05 398.98 h 0 M 150.00 399.99 h 0" /><text  class="poloto_text poloto_legend_text" x="675" y="250" >direct_seq</text><line  class="poloto_scatter poloto_legend_icon poloto3stroke poloto3legend" stroke="black" x1="685" x2="685" y1="231.25" y2="231.25" /><path  class="poloto_scatter poloto3stroke" d=" M 650.00 225.94 h 0 M 644.95 230.31 h 0 M 639.90 228.50 h 0 M 634.85 231.72 h 0 M 629.80 235.81 h 0 M 624.75 236.43 h 0 M 619.70 238.20 h 0 M 614.65 239.03 h 0 M 609.60 240.30 h 0 M 604.55 204.91 h 0 M 599.49 247.02 h 0 M 594.44 246.97 h 0 M 589.39 252.48 h 0 M 584.34 249.32 h 0 M 579.29 254.41 h 0 M 574.24 256.35 h 0 M 569.19 258.00 h 0 M 564.14 253.33 h 0 M 559.09 262.59 h 0 M 554.04 263.86 h 0 M 548.99 265.60 h 0 M 543.94 266.70 h 0 M 538.89 268.35 h 0 M 533.84 269.70 h 0 M 528.79 269.93 h 0 M 523.74 273.47 h 0 M 518.69 272.57 h 0 M 513.64 267.51 h 0 M 508.59 273.09 h 0 M 503.54 277.68 h 0 M 498.48 282.47 h 0 M 493.43 285.67 h 0 M 488.38 283.68 h 0 M 483.33 283.72 h 0 M 478.28 289.07 h 0 M 473.23 293.58 h 0 M 468.18 291.71 h 0 M 463.13 293.63 h 0 M 458.08 293.76 h 0 M 453.03 295.96 h 0 M 447.98 293.80 h 0 M 442.93 302.51 h 0 M 437.88 300.52 h 0 M 432.83 301.88 h 0 M 427.78 306.52 h 0 M 422.73 313.93 h 0 M 417.68 315.25 h 0 M 412.63 317.70 h 0 M 407.58 320.41 h 0 M 402.53 320.24 h 0 M 397.47 323.28 h 0 M 392.42 323.83 h 0 M 387.37 326.34 h 0 M 382.32 315.08 h 0 M 377.27 329.03 h 0 M 372.22 329.74 h 0 M 367.17 335.17 h 0 M 362.12 334.33 h 0 M 357.07 335.85 h 0 M 352.02 338.81 h 0 M 346.97 341.08 h 0 M 341.92 340.41 h 0 M 336.87 342.87 h 0 M 331.82 344.20 h 0 M 326.77 345.93 h 0 M 321.72 347.05 h 0 M 316.67 347.88 h 0 M 311.62 350.77 h 0 M 306.57 353.18 h 0 M 301.52 353.20 h 0 M 296.46 356.11 h 0 M 291.41 357.21 h 0 M 286.36 361.72 h 0 M 281.31 362.34 h 0 M 276.26 364.30 h 0 M 271.21 365.31 h 0 M 266.16 368.42 h 0 M 261.11 370.48 h 0 M 256.06 370.43 h 0 M 251.01 372.63 h 0 M 245.96 372.48 h 0 M 240.91 374.35 h 0 M 235.86 375.90 h 0 M 230.81 377.71 h 0 M 225.76 379.67 h 0 M 220.71 380.35 h 0 M 215.66 383.48 h 0 M 210.61 384.97 h 0 M 205.56 386.21 h 0 M 200.51 386.54 h 0 M 195.45 388.63 h 0 M 190.40 390.39 h 0 M 185.35 390.02 h 0 M 180.30 393.01 h 0 M 175.25 394.26 h 0 M 170.20 395.51 h 0 M 165.15 396.92 h 0 M 160.10 398.12 h 0 M 155.05 399.07 h 0 M 150.00 399.98 h 0" /><text  class="poloto_text poloto_legend_text" x="675" y="300" >indirect_par</text><line  class="poloto_scatter poloto_legend_icon poloto4stroke poloto4legend" stroke="black" x1="685" x2="685" y1="281.25" y2="281.25" /><path  class="poloto_scatter poloto4stroke" d=" M 650.00 254.50 h 0 M 644.95 241.74 h 0 M 639.90 237.26 h 0 M 634.85 256.70 h 0 M 629.80 284.07 h 0 M 624.75 281.87 h 0 M 619.70 245.21 h 0 M 614.65 256.82 h 0 M 609.60 277.44 h 0 M 604.55 276.96 h 0 M 599.49 280.50 h 0 M 594.44 271.33 h 0 M 589.39 281.77 h 0 M 584.34 284.15 h 0 M 579.29 280.44 h 0 M 574.24 291.72 h 0 M 569.19 301.01 h 0 M 564.14 284.06 h 0 M 559.09 297.93 h 0 M 554.04 299.80 h 0 M 548.99 281.11 h 0 M 543.94 299.56 h 0 M 538.89 290.16 h 0 M 533.84 303.30 h 0 M 528.79 300.96 h 0 M 523.74 307.91 h 0 M 518.69 294.17 h 0 M 513.64 299.89 h 0 M 508.59 301.01 h 0 M 503.54 299.82 h 0 M 498.48 317.87 h 0 M 493.43 310.23 h 0 M 488.38 313.91 h 0 M 483.33 312.18 h 0 M 478.28 315.17 h 0 M 473.23 318.31 h 0 M 468.18 323.05 h 0 M 463.13 318.31 h 0 M 458.08 322.51 h 0 M 453.03 323.65 h 0 M 447.98 311.80 h 0 M 442.93 306.96 h 0 M 437.88 323.35 h 0 M 432.83 330.86 h 0 M 427.78 336.72 h 0 M 422.73 328.04 h 0 M 417.68 307.76 h 0 M 412.63 339.23 h 0 M 407.58 335.44 h 0 M 402.53 293.14 h 0 M 397.47 337.44 h 0 M 392.42 343.76 h 0 M 387.37 349.82 h 0 M 382.32 321.47 h 0 M 377.27 351.35 h 0 M 372.22 343.08 h 0 M 367.17 348.57 h 0 M 362.12 348.52 h 0 M 357.07 345.80 h 0 M 352.02 349.64 h 0 M 346.97 352.94 h 0 M 341.92 351.94 h 0 M 336.87 353.10 h 0 M 331.82 362.86 h 0 M 326.77 354.45 h 0 M 321.72 365.07 h 0 M 316.67 361.81 h 0 M 311.62 362.10 h 0 M 306.57 364.68 h 0 M 301.52 368.77 h 0 M 296.46 370.87 h 0 M 291.41 370.11 h 0 M 286.36 371.42 h 0 M 281.31 370.51 h 0 M 276.26 373.76 h 0 M 271.21 376.70 h 0 M 266.16 378.54 h 0 M 261.11 378.40 h 0 M 256.06 377.85 h 0 M 251.01 377.34 h 0 M 245.96 380.52 h 0 M 240.91 378.47 h 0 M 235.86 382.16 h 0 M 230.81 382.72 h 0 M 225.76 383.43 h 0 M 220.71 383.23 h 0 M 215.66 379.80 h 0 M 210.61 384.72 h 0 M 205.56 379.22 h 0 M 200.51 384.07 h 0 M 195.45 387.60 h 0 M 190.40 386.33 h 0 M 185.35 387.60 h 0 M 180.30 392.85 h 0 M 175.25 394.54 h 0 M 170.20 395.59 h 0 M 165.15 397.15 h 0 M 160.10 398.02 h 0 M 155.05 399.28 h 0 M 150.00 400.00 h 0" /><text  class="poloto_text poloto_legend_text" x="675" y="350" >indirect_seq</text><line  class="poloto_scatter poloto_legend_icon poloto5stroke poloto5legend" stroke="black" x1="685" x2="685" y1="331.25" y2="331.25" /><path  class="poloto_scatter poloto5stroke" d=" M 650.00 138.87 h 0 M 644.95 100.00 h 0 M 639.90 139.98 h 0 M 634.85 140.74 h 0 M 629.80 151.00 h 0 M 624.75 152.15 h 0 M 619.70 154.11 h 0 M 614.65 152.65 h 0 M 609.60 165.21 h 0 M 604.55 162.57 h 0 M 599.49 173.84 h 0 M 594.44 173.91 h 0 M 589.39 183.12 h 0 M 584.34 177.84 h 0 M 579.29 187.12 h 0 M 574.24 191.70 h 0 M 569.19 190.76 h 0 M 564.14 193.08 h 0 M 559.09 205.16 h 0 M 554.04 205.16 h 0 M 548.99 208.04 h 0 M 543.94 207.40 h 0 M 538.89 214.07 h 0 M 533.84 215.48 h 0 M 528.79 219.10 h 0 M 523.74 219.60 h 0 M 518.69 207.41 h 0 M 513.64 215.91 h 0 M 508.59 227.85 h 0 M 503.54 229.50 h 0 M 498.48 234.83 h 0 M 493.43 239.39 h 0 M 488.38 244.30 h 0 M 483.33 241.95 h 0 M 478.28 246.33 h 0 M 473.23 254.55 h 0 M 468.18 248.39 h 0 M 463.13 256.64 h 0 M 458.08 249.24 h 0 M 453.03 259.67 h 0 M 447.98 261.48 h 0 M 442.93 267.59 h 0 M 437.88 266.57 h 0 M 432.83 268.99 h 0 M 427.78 270.23 h 0 M 422.73 281.21 h 0 M 417.68 281.57 h 0 M 412.63 287.41 h 0 M 407.58 289.57 h 0 M 402.53 291.86 h 0 M 397.47 295.27 h 0 M 392.42 299.24 h 0 M 387.37 298.52 h 0 M 382.32 275.12 h 0 M 377.27 303.69 h 0 M 372.22 305.50 h 0 M 367.17 313.58 h 0 M 362.12 310.73 h 0 M 357.07 313.90 h 0 M 352.02 320.66 h 0 M 346.97 320.48 h 0 M 341.92 321.02 h 0 M 336.87 324.72 h 0 M 331.82 327.40 h 0 M 326.77 328.76 h 0 M 321.72 330.66 h 0 M 316.67 332.86 h 0 M 311.62 335.04 h 0 M 306.57 338.67 h 0 M 301.52 339.26 h 0 M 296.46 345.03 h 0 M 291.41 345.09 h 0 M 286.36 349.44 h 0 M 281.31 351.65 h 0 M 276.26 353.50 h 0 M 271.21 355.30 h 0 M 266.16 358.92 h 0 M 261.11 363.22 h 0 M 256.06 363.56 h 0 M 251.01 365.20 h 0 M 245.96 364.93 h 0 M 240.91 368.02 h 0 M 235.86 369.67 h 0 M 230.81 371.77 h 0 M 225.76 375.47 h 0 M 220.71 376.84 h 0 M 215.66 379.25 h 0 M 210.61 381.76 h 0 M 205.56 383.22 h 0 M 200.51 384.70 h 0 M 195.45 386.34 h 0 M 190.40 389.01 h 0 M 185.35 389.85 h 0 M 180.30 392.03 h 0 M 175.25 393.92 h 0 M 170.20 394.88 h 0 M 165.15 396.62 h 0 M 160.10 398.07 h 0 M 155.05 399.11 h 0 M 150.00 399.99 h 0" /><text  class="poloto_labels poloto_text poloto_title" x="400" y="37.5" >Bench of rebal:32_bytes with abspiral(num,1.5)</text><text  class="poloto_labels poloto_text poloto_xname" x="400" y="481.25" >Number of Elements</text><text  class="poloto_labels poloto_text poloto_yname" transform="rotate(-90,37.5,250)" x="37.5" y="250" >Time in Seconds</text><text  class="poloto_tick_labels poloto_text" dominant-baseline="middle" text-anchor="start" x="150" y="70" ></text><line  class="poloto_axis_lines" stroke="black" x1="150" x2="144" y1="400" y2="400" /><text  class="poloto_tick_labels poloto_text" dominant-baseline="middle" text-anchor="end" x="135" y="400" >0e0</text><line  class="poloto_axis_lines" stroke="black" x1="150" x2="144" y1="342.9015708729493" y2="342.9015708729493" /><text  class="poloto_tick_labels poloto_text" dominant-baseline="middle" text-anchor="end" x="135" y="342.9015708729493" >0.001</text><line  class="poloto_axis_lines" stroke="black" x1="150" x2="144" y1="285.80314174589864" y2="285.80314174589864" /><text  class="poloto_tick_labels poloto_text" dominant-baseline="middle" text-anchor="end" x="135" y="285.80314174589864" >0.002</text><line  class="poloto_axis_lines" stroke="black" x1="150" x2="144" y1="228.70471261884802" y2="228.70471261884802" /><text  class="poloto_tick_labels poloto_text" dominant-baseline="middle" text-anchor="end" x="135" y="228.70471261884802" >0.003</text><line  class="poloto_axis_lines" stroke="black" x1="150" x2="144" y1="171.60628349179734" y2="171.60628349179734" /><text  class="poloto_tick_labels poloto_text" dominant-baseline="middle" text-anchor="end" x="135" y="171.60628349179734" >0.004</text><line  class="poloto_axis_lines" stroke="black" x1="150" x2="144" y1="114.50785436474666" y2="114.50785436474666" /><text  class="poloto_tick_labels poloto_text" dominant-baseline="middle" text-anchor="end" x="135" y="114.50785436474666" >0.005</text><text  class="poloto_tick_labels poloto_text" dominant-baseline="middle" text-anchor="start" x="440.00000000000006" y="70" ></text><line  class="poloto_axis_lines" stroke="black" x1="150" x2="150" y1="400" y2="405" /><text  class="poloto_tick_labels poloto_text" dominant-baseline="start" text-anchor="middle" x="150" y="430" >0</text><line  class="poloto_axis_lines" stroke="black" x1="234.17508417508418" x2="234.17508417508418" y1="400" y2="405" /><text  class="poloto_tick_labels poloto_text" dominant-baseline="start" text-anchor="middle" x="234.17508417508418" y="430" >5000</text><line  class="poloto_axis_lines" stroke="black" x1="318.35016835016836" x2="318.35016835016836" y1="400" y2="405" /><text  class="poloto_tick_labels poloto_text" dominant-baseline="start" text-anchor="middle" x="318.35016835016836" y="430" >10000</text><line  class="poloto_axis_lines" stroke="black" x1="402.52525252525254" x2="402.52525252525254" y1="400" y2="405" /><text  class="poloto_tick_labels poloto_text" dominant-baseline="start" text-anchor="middle" x="402.52525252525254" y="430" >15000</text><line  class="poloto_axis_lines" stroke="black" x1="486.7003367003367" x2="486.7003367003367" y1="400" y2="405" /><text  class="poloto_tick_labels poloto_text" dominant-baseline="start" text-anchor="middle" x="486.7003367003367" y="430" >20000</text><line  class="poloto_axis_lines" stroke="black" x1="570.8754208754208" x2="570.8754208754208" y1="400" y2="405" /><text  class="poloto_tick_labels poloto_text" dominant-baseline="start" text-anchor="middle" x="570.8754208754208" y="430" >25000</text><path  stroke="black" fill="none" class="poloto_axis_lines" style="stroke-dasharray:8.417508417508419;stroke-dashoffset:-0;" d=" M 150 400 L 650 400" /><path  stroke="black" fill="none" class="poloto_axis_lines" style="stroke-dasharray:14.274607281762666;stroke-dashoffset:-0;" d=" M 150 400 L 150 100" /></svg>