<svg class="poloto" width="800" height="500" viewBox="0 0 800 500" xmlns="http://www.w3.org/2000/svg"><style>.poloto {
                    font-family: "Arial";
                    stroke-width:2;
                    }
                    .poloto_text{fill: var(--poloto_fg_color,black);  }
                    .poloto_axis_lines{stroke: var(--poloto_fg_color,black);stoke-width:3;fill:none}
                    .poloto_background{fill: var(--poloto_bg_color,aliceblue); }
                    .poloto0stroke{stroke:  var(--poloto_color0,blue); }
                    .poloto1stroke{stroke:  var(--poloto_color1,red); }
                    .poloto2stroke{stroke:  var(--poloto_color2,green); }
                    .poloto3stroke{stroke:  var(--poloto_color3,gold); }
                    .poloto4stroke{stroke:  var(--poloto_color4,aqua); }
                    .poloto5stroke{stroke:  var(--poloto_color5,brown); }
                    .poloto6stroke{stroke:  var(--poloto_color6,lime); }
                    .poloto7stroke{stroke:  var(--poloto_color7,chocolate); }
                    .poloto0fill{fill:var(--poloto_color0,blue);}
                    .poloto1fill{fill:var(--poloto_color1,red);}
                    .poloto2fill{fill:var(--poloto_color2,green);}
                    .poloto3fill{fill:var(--poloto_color3,gold);}
                    .poloto4fill{fill:var(--poloto_color4,aqua);}
                    .poloto5fill{fill:var(--poloto_color5,brown);}
                    .poloto6fill{fill:var(--poloto_color6,lime);}
                    .poloto7fill{fill:var(--poloto_color7,chocolate);}</style><rect class="poloto_background" fill="white" x="0" y="0" width="800" height="500"/><line class="poloto_axis_lines" stroke="black" x1="150" x2="150" y1="400" y2="405"/><text class="poloto_text" alignment-baseline="start" text-anchor="middle" x="150" y="430">0</text><line class="poloto_axis_lines" stroke="black" x1="234.17508417508418" x2="234.17508417508418" y1="400" y2="405"/><text class="poloto_text" alignment-baseline="start" text-anchor="middle" x="234.17508417508418" y="430">5000</text><line class="poloto_axis_lines" stroke="black" x1="318.35016835016836" x2="318.35016835016836" y1="400" y2="405"/><text class="poloto_text" alignment-baseline="start" text-anchor="middle" x="318.35016835016836" y="430">10000</text><line class="poloto_axis_lines" stroke="black" x1="402.52525252525254" x2="402.52525252525254" y1="400" y2="405"/><text class="poloto_text" alignment-baseline="start" text-anchor="middle" x="402.52525252525254" y="430">15000</text><line class="poloto_axis_lines" stroke="black" x1="486.7003367003367" x2="486.7003367003367" y1="400" y2="405"/><text class="poloto_text" alignment-baseline="start" text-anchor="middle" x="486.7003367003367" y="430">20000</text><line class="poloto_axis_lines" stroke="black" x1="570.8754208754208" x2="570.8754208754208" y1="400" y2="405"/><text class="poloto_text" alignment-baseline="start" text-anchor="middle" x="570.8754208754208" y="430">25000</text><line class="poloto_axis_lines" stroke="black" x1="150" x2="144" y1="348.7252998208596" y2="348.7252998208596"/><text class="poloto_text" alignment-baseline="middle" text-anchor="end" x="135" y="348.7252998208596">0.0005</text><line class="poloto_axis_lines" stroke="black" x1="150" x2="144" y1="297.444651086466" y2="297.444651086466"/><text class="poloto_text" alignment-baseline="middle" text-anchor="end" x="135" y="297.444651086466">0.0010</text><line class="poloto_axis_lines" stroke="black" x1="150" x2="144" y1="246.16400235207243" y2="246.16400235207243"/><text class="poloto_text" alignment-baseline="middle" text-anchor="end" x="135" y="246.16400235207243">0.0015</text><line class="poloto_axis_lines" stroke="black" x1="150" x2="144" y1="194.88335361767884" y2="194.88335361767884"/><text class="poloto_text" alignment-baseline="middle" text-anchor="end" x="135" y="194.88335361767884">0.0020</text><line class="poloto_axis_lines" stroke="black" x1="150" x2="144" y1="143.6027048832853" y2="143.6027048832853"/><text class="poloto_text" alignment-baseline="middle" text-anchor="end" x="135" y="143.6027048832853">0.0025</text><text class="poloto_text" alignment-baseline="middle" text-anchor="start" font-size="large" x="675" y="100">default_par</text><line class="poloto0stroke" stroke="black" x1="680" x2="730" y1="81.25" y2="81.25"/><polyline class="poloto0stroke" fill="none" stroke="black" points="650,278.17369097597333 644.9494949494949,280.6857248348763 639.8989898989898,267.68310610308095 634.8484848484848,278.2841494933472 629.7979797979798,281.1727884365556 624.7474747474747,283.2937560682101 619.6969696969697,274.84639736349095 614.6464646464647,294.05182080490107 609.5959595959596,288.1496232581673 604.5454545454545,281.4094999111135 599.4949494949494,294.6014467980363 594.4444444444445,294.3888372283835 589.3939393939394,299.55843942729774 584.3434343434344,301.7917116796806 579.2929292929293,303.2356721867436 574.2424242424242,296.4094999111135 569.1919191919192,299.4990564360633 564.1414141414141,300.99983590192403 559.090909090909,304.7835272881426 554.040404040404,307.84528970147824 548.989898989899,301.7370465081297 543.939393939394,301.0577830349939 538.8888888888889,306.88705949922735 533.8383838383838,303.9083717368414 528.7878787878788,309.31909554610473 523.7373737373737,314.81474010967224 518.6868686868687,318.4154621412064 513.6363636363636,317.2436993176255 508.5858585858586,316.70914983521817 503.5353535353535,308.20907462360003 498.4848484848485,318.6489942155428 493.4343434343434,320.1333638738086 488.3838383838384,320.77714113802017 483.3333333333333,323.16312716233404 478.2828282828283,321.00595539267306 473.2323232323232,319.77563006823743 468.1818181818182,324.8303636139866 463.1313131313131,305.7122198367224 458.0808080808081,327.08137897083157 453.030303030303,323.5094766638861 447.979797979798,323.92741395107146 442.9292929292929,324.00259138211607 437.8787878787879,321.7440890505559 432.8282828282828,328.58215843669234 427.77777777777777,334.6370697553571 422.72727272727275,328.55128748615425 417.67676767676767,328.0760184336839 412.62626262626264,333.3080804627566 407.57575757575756,333.50151106978274 402.52525252525254,320.4891490147278 397.47474747474746,331.64679256635714 392.4242424242424,336.1964117220726 387.37373737373736,338.13974318651117 382.32323232323233,337.47535110150835 377.27272727272725,339.82903031711953 372.22222222222223,336.9434682128352 367.1717171717172,338.78536655407714 362.1212121212121,342.6177745565933 357.07070707070704,343.1650416398868 352.020202020202,345.01647818179333 346.969696969697,346.49366854923625 341.9191919191919,343.44482885938163 336.86868686868684,348.00972964841986 331.8181818181818,349.7774761715919 326.7676767676768,351.32225443406674 321.7171717171717,351.87946996321466 316.66666666666663,353.23163810904316 311.6161616161616,353.08282166641595 306.5656565656566,356.39309010351855 301.5151515151515,357.0786098157999 296.4646464646464,359.087683071916 291.4141414141414,359.60407920467134 286.3636363636364,361.62043431290766 281.3131313131313,362.9942428925021 276.26262626262627,364.48209963488176 271.2121212121212,354.9405144474681 266.16161616161617,357.35183311225677 261.1111111111111,361.1515240608804 256.06060606060606,356.15217361576435 251.010101010101,362.5942538323738 245.95959595959596,365.789140809824 240.9090909090909,365.2180795055178 235.85858585858585,368.14948650977067 230.8080808080808,375.73891996116345 225.75757575757575,376.3881329741409 220.7070707070707,377.99988376386284 215.65656565656565,377.9709614779767 210.6060606060606,376.0173738837912 205.55555555555554,381.0687229067239 200.50505050505052,382.1296169677411 195.45454545454544,383.06477087806144 190.40404040404042,385.04779356462046 185.35353535353534,384.32658252081995 180.3030303030303,385.4179372871853 175.25252525252526,387.87510085194253 170.2020202020202,390.30652153103506 165.15151515151516,392.6965074459502 160.1010101010101,395.5793003952029 155.05050505050505,397.69165287787 150,399.9987692644304 "/><text class="poloto_text" alignment-baseline="middle" text-anchor="start" font-size="large" x="675" y="150">default_seq</text><line class="poloto1stroke" stroke="black" x1="680" x2="730" y1="131.25" y2="131.25"/><polyline class="poloto1stroke" fill="none" stroke="black" points="650,132.1699919318446 644.9494949494949,130.94058965908624 639.8989898989898,100 634.8484848484848,130.0591778686395 629.7979797979798,146.88999958975478 624.7474747474747,139.68373514570544 619.6969696969697,139.25810576120995 614.6464646464647,144.4892447386054 609.5959595959596,166.14198586021575 604.5454545454545,151.28177690866573 599.4949494949494,158.78239227645054 594.4444444444445,157.243152324039 589.3939393939394,178.15488807143734 584.3434343434344,168.23782597399043 579.2929292929293,169.3180015589317 574.2424242424242,171.63137418463768 569.1919191919192,177.00117603621095 564.1414141414141,185.6323245859942 559.090909090909,194.1868598465683 554.040404040404,194.8818151982168 548.989898989899,189.7680063451256 543.939393939394,205.30829926019118 538.8888888888889,196.47038713471085 533.8383838383838,200.9068811793182 528.7878787878788,201.62234879046045 523.7373737373737,193.11191488779792 518.6868686868687,207.9668932131771 513.6363636363636,212.3701573974045 508.5858585858586,224.37721361467038 503.5353535353535,216.20174490954093 498.4848484848485,224.72458872919717 493.4343434343434,230.43899654026558 488.3838383838384,206.72415797174781 483.3333333333333,227.941936630793 478.2828282828283,226.04516799540525 473.2323232323232,237.5258796340613 468.1818181818182,237.485778166751 463.1313131313131,242.0853446743337 458.0808080808081,224.25598616106225 453.030303030303,247.90015999562405 447.979797979798,249.96994953984165 442.9292929292929,249.05325666306564 437.8787878787879,254.803971173438 432.8282828282828,258.9097050337085 427.77777777777777,255.40733928644687 422.72727272727275,263.25307342021415 417.67676767676767,266.3666292887716 412.62626262626264,273.4050008888646 407.57575757575756,274.50497080421735 402.52525252525254,280.52449847525537 397.47474747474746,281.1142259357009 392.4242424242424,279.75251958920785 387.37373737373736,281.41544846636674 382.32323232323233,283.34780587197616 377.27272727272725,289.17708233620965 372.22222222222223,292.09679735255105 367.1717171717172,297.51911058842836 362.1212121212121,288.35454073050994 357.07070707070704,298.12083772067774 352.020202020202,305.2790009162143 346.969696969697,300.13760307410394 341.9191919191919,297.38639626950373 336.86868686868684,298.53528792374914 331.8181818181818,308.09512902211225 326.7676767676768,314.4872618868544 321.7171717171717,315.4389281660673 316.66666666666663,318.2369029223132 311.6161616161616,320.3464862499487 306.5656565656566,309.5222694763904 301.5151515151515,318.45679434408635 296.4646464646464,327.1870171072244 291.4141414141414,331.4342855580019 286.3636363636364,332.52676849863934 281.3131313131313,335.0786987022577 276.26262626262627,336.95854472356314 271.2121212121212,340.1717901732602 266.16161616161617,343.20811738482365 261.1111111111111,346.08157725600665 256.06060606060606,348.648378847758 251.010101010101,349.09052060114595 245.95959595959596,353.7664952753429 240.9090909090909,356.4134998017148 235.85858585858585,356.89697375798266 230.8080808080808,358.92358499596594 225.75757575757575,363.6493018994352 220.7070707070707,365.9763151777045 215.65656565656565,366.9575191105884 210.6060606060606,369.0614615668631 205.55555555555554,373.57487658457205 200.50505050505052,374.1441943468213 195.45454545454544,376.54494919797065 190.40404040404042,379.5031247008629 185.35353535353534,381.612195222011 180.3030303030303,385.3293243261723 175.25252525252526,387.4414716862445 170.2020202020202,389.703768785811 165.15151515151516,392.17262433847964 160.1010101010101,395.3015644016574 155.05050505050505,397.620988143914 150,399.9989743870253 "/><text class="poloto_text" alignment-baseline="middle" text-anchor="start" font-size="large" x="675" y="200">direct_par</text><line class="poloto2stroke" stroke="black" x1="680" x2="730" y1="181.25" y2="181.25"/><polyline class="poloto2stroke" fill="none" stroke="black" points="650,274.71296511548405 644.9494949494949,290.27725737415733 639.8989898989898,274.9742913014345 634.8484848484848,281.7806692466531 629.7979797979798,294.3796067116113 624.7474747474747,294.7031876051253 619.6969696969697,298.0283274303609 614.6464646464647,293.6780874369248 609.5959595959596,293.7996225744253 604.5454545454545,299.53997839375336 599.4949494949494,304.3245654819697 594.4444444444445,294.32124933335155 589.3939393939394,288.4968958113966 584.3434343434344,305.95713621507787 579.2929292929293,307.54273387394534 574.2424242424242,307.29699700521013 569.1919191919192,295.70572428788273 564.1414141414141,310.6626485429458 559.090909090909,289.64589002693947 554.040404040404,293.73500895702 548.989898989899,313.91507240827605 543.939393939394,316.3956199488561 538.8888888888889,315.2208828476486 533.8383838383838,316.3585953204699 528.7878787878788,313.1518112325133 523.7373737373737,318.9165766406389 518.6868686868687,318.3465409493074 513.6363636363636,317.6080996075321 508.5858585858586,309.79385179208776 503.5353535353535,313.7909732383388 498.4848484848485,322.65965375305973 493.4343434343434,325.99976752772574 488.3838383838384,325.3838869364257 483.3333333333333,320.9035992177992 478.2828282828283,316.09019240499407 473.2323232323232,324.91138703898696 468.1818181818182,315.70179277147975 463.1313131313131,330.91799198654394 458.0808080808081,329.4849029770126 453.030303030303,331.7389951727816 447.979797979798,327.86053714770196 442.9292929292929,334.44517756779305 437.8787878787879,325.0549728554433 432.8282828282828,318.9554473723796 427.77777777777777,338.71347108455154 422.72727272727275,323.8729539021155 417.67676767676767,328.0174559328292 412.62626262626264,334.0495986434559 407.57575757575756,335.5875052990004 402.52525252525254,335.12823580893513 397.47474747474746,334.6266085030153 392.4242424242424,332.19795697895444 387.37373737373736,328.7403079573892 382.32323232323233,339.1246393261039 377.27272727272725,340.90418039848487 372.22222222222223,341.4713443734872 367.1717171717172,343.5219549550782 362.1212121212121,342.81264102178403 357.07070707070704,346.142908911893 352.020202020202,345.8586089953095 346.969696969697,347.8906559820586 341.9191919191919,349.0273428419052 336.86868686868684,346.70135517661055 331.8181818181818,351.2429745511234 326.7676767676768,352.21484540593764 321.7171717171717,350.04731494523224 316.66666666666663,353.5397322466394 311.6161616161616,354.9655394040505 306.5656565656566,354.7871853077523 301.5151515151515,358.1583751555513 296.4646464646464,343.4346752909322 291.4141414141414,359.76920289359606 286.3636363636364,362.2603142478155 281.3131313131313,345.5141055971119 276.26262626262627,352.23176802001996 271.2121212121212,365.69755357118436 266.16161616161617,362.0631914340804 261.1111111111111,367.71062671790173 256.06060606060606,358.0808388146649 251.010101010101,364.0682647995952 245.95959595959596,358.34719050419136 240.9090909090909,367.460172029483 235.85858585858585,369.2616612195222 230.8080808080808,377.13488178101113 225.75757575757575,378.23218510262967 220.7070707070707,378.8446811711133 215.65656565656565,378.79227234810674 210.6060606060606,375.6288716889794 205.55555555555554,380.74278310336814 200.50505050505052,382.6085782269203 195.45454545454544,381.24153869295884 190.40404040404042,385.6994680487371 185.35353535353534,383.9832072968944 180.3030303030303,386.4052948979173 175.25252525252526,388.2550904590644 170.2020202020202,390.9665034802467 165.15151515151516,393.3326951741491 160.1010101010101,395.5983767965321 155.05050505050505,397.77554801919945 150,399.9981538966456 "/><text class="poloto_text" alignment-baseline="middle" text-anchor="start" font-size="large" x="675" y="250">direct_seq</text><line class="poloto3stroke" stroke="black" x1="680" x2="730" y1="231.25" y2="231.25"/><polyline class="poloto3stroke" fill="none" stroke="black" points="650,159.76031424781544 644.9494949494949,163.63395189191408 639.8989898989898,167.8265551711406 634.8484848484848,169.69850397254092 629.7979797979798,173.3494810398348 624.7474747474747,176.0208951550043 619.6969696969697,180.383955310624 614.6464646464647,182.69466134259574 609.5959595959596,186.90049502919575 604.5454545454545,189.90348981908184 599.4949494949494,185.06341706893488 594.4444444444445,191.06468882902348 589.3939393939394,195.06878444350238 584.3434343434344,198.1238803725026 579.2929292929293,202.7074473176802 574.2424242424242,203.42496615477185 569.1919191919192,204.96246256512643 564.1414141414141,208.02001996526593 559.090909090909,210.9126587990756 554.040404040404,213.5469457245614 548.989898989899,215.4439194825441 543.939393939394,218.74434203508963 538.8888888888889,218.54280908556348 533.8383838383838,224.27947269818262 528.7878787878788,226.98401411243452 523.7373737373737,228.75124782911922 518.6868686868687,230.4109973060566 513.6363636363636,233.80218660686205 508.5858585858586,236.43134546747442 503.5353535353535,235.2974277626595 498.4848484848485,241.27490530173534 493.4343434343434,243.50602376687135 488.3838383838384,242.79322274946327 483.3333333333333,245.19695187823922 478.2828282828283,250.65187960671162 473.2323232323232,251.86815403339395 468.1818181818182,255.72066405021403 463.1313131313131,257.4779493210442 458.0808080808081,257.31579990974603 453.030303030303,259.35953888440656 447.979797979798,262.28212561707716 442.9292929292929,266.12673841399214 437.8787878787879,270.99009257866453 432.8282828282828,270.88958250714506 427.77777777777777,272.8210168610773 422.72727272727275,275.2002338397582 417.67676767676767,276.4369179646369 412.62626262626264,279.0059759049325 407.57575757575756,279.39878567423796 402.52525252525254,284.6821283520451 397.47474747474746,286.66022809632557 392.4242424242424,288.8216048791828 387.37373737373736,289.6042501401671 382.32323232323233,291.3775349734025 377.27272727272725,294.69364940446076 372.22222222222223,298.7742557468514 367.1717171717172,300.32077755138323 362.1212121212121,302.59886909075993 357.07070707070704,304.9689581139661 352.020202020202,304.9664966428269 346.969696969697,310.44665445047656 341.9191919191919,311.0786371654792 336.86868686868684,314.58777195837376 331.8181818181818,315.00386314220464 326.7676767676768,318.7200691946887 321.7171717171717,320.81857590219755 316.66666666666663,324.36750447851 311.6161616161616,325.2157889698743 306.5656565656566,326.34016847402467 301.5151515151515,329.20614137049245 296.4646464646464,330.7926620810371 291.4141414141414,333.1240854950976 286.3636363636364,336.0475952794454 281.3131313131313,338.76085440398214 276.26262626262627,340.3970147825017 271.2121212121212,343.37683071915984 266.16161616161617,346.11060210319033 261.1111111111111,349.69942702421815 256.06060606060606,350.7912945970709 251.010101010101,354.4948856099662 245.95959595959596,355.23742940364025 240.9090909090909,358.7966141096996 235.85858585858585,361.1534727255323 230.8080808080808,361.7435078698702 225.75757575757575,365.4270994297592 220.7070707070707,367.9193389582507 215.65656565656565,368.780956418286 210.6060606060606,370.87751446114294 205.55555555555554,373.2524238653302 200.50505050505052,375.6231282563212 195.45454545454544,378.22951850889547 190.40404040404042,380.3785879360564 185.35353535353534,382.1636673185007 180.3030303030303,385.6632639107306 175.25252525252526,388.2806282221341 170.2020202020202,389.93740342144486 165.15151515151516,393.0370109535466 160.1010101010101,395.4317146881453 155.05050505050505,397.7665226250222 150,399.99805133534807 "/><text class="poloto_text" alignment-baseline="middle" text-anchor="start" font-size="large" x="675" y="300">indirect_par</text><line class="poloto4stroke" stroke="black" x1="680" x2="730" y1="281.25" y2="281.25"/><polyline class="poloto4stroke" fill="none" stroke="black" points="650,266.17832674661895 644.9494949494949,265.5500362383251 639.8989898989898,267.93089419776555 634.8484848484848,260.5256608366267 629.7979797979798,273.90478209143 624.7474747474747,273.0934196671544 619.6969696969697,266.411346014468 614.6464646464647,273.2045961136106 609.5959595959596,273.21085235275615 604.5454545454545,278.8568517784129 599.4949494949494,281.0173055095929 594.4444444444445,266.5522652371901 589.3939393939394,283.1330425150765 584.3434343434344,285.0181191625528 579.2929292929293,289.81470592257307 574.2424242424242,293.4685547061961 569.1919191919192,290.0648529270994 564.1414141414141,289.7078370506106 559.090909090909,296.4219098281073 554.040404040404,297.3420897889972 548.989898989899,275.3561270119108 543.939393939394,279.92400207857565 538.8888888888889,301.62453676480646 533.8383838383838,298.0889411571649 528.7878787878788,300.8528655626513 523.7373737373737,302.58635661246876 518.6868686868687,306.947570664734 513.6363636363636,307.4274549755904 508.5858585858586,299.27013962011296 503.5353535353535,294.4468869227508 498.4848484848485,312.0099963077933 493.4343434343434,309.4224773339533 488.3838383838384,314.7092045345768 483.3333333333333,312.6596195659606 478.2828282828283,312.2678354096298 473.2323232323232,307.46673595252093 468.1818181818182,309.80410792183466 463.1313131313131,318.22828777332586 458.0808080808081,306.1788737402054 453.030303030303,318.3274645479782 447.979797979798,318.5028443666498 442.9292929292929,324.79692863101184 437.8787878787879,319.6799403776991 432.8282828282828,324.62636919332124 427.77777777777777,324.3159161458832 422.72727272727275,318.8370916351006 417.67676767676767,319.0309324873166 412.62626262626264,324.43345139278244 407.57575757575756,323.4546063697403 402.52525252525254,324.20863702873083 397.47474747474746,325.2856332134506 392.4242424242424,329.8437649568559 387.37373737373736,327.34608967959855 382.32323232323233,326.73964472766556 377.27272727272725,329.93524963419804 372.22222222222223,328.7362055054905 367.1717171717172,331.7988909705034 362.1212121212121,333.2333132769018 357.07070707070704,338.28425205464464 352.020202020202,335.5286351142533 346.969696969697,337.4595566616981 341.9191919191919,339.6343689745238 336.86868686868684,341.5831361877282 331.8181818181818,343.6978475802371 326.7676767676768,345.56774515568804 321.7171717171717,344.79792005688734 316.66666666666663,346.59140946572404 311.6161616161616,349.7675277257374 306.5656565656566,348.9674470441834 301.5151515151515,349.74075922709807 296.4646464646464,342.77397541263826 291.4141414141414,355.16132892091844 286.3636363636364,334.62394190928114 281.3131313131313,339.1462797598698 276.26262626262627,359.8361754208432 271.2121212121212,360.9211713867655 266.16161616161617,358.6591819710914 261.1111111111111,349.5444569037428 256.06060606060606,364.7583997702627 251.010101010101,360.52066952014985 245.95959595959596,368.18671626075184 240.9090909090909,357.48803451529534 235.85858585858585,362.95547472205885 230.8080808080808,372.97386738140494 225.75757575757575,373.28729470646954 220.7070707070707,369.23396966920564 215.65656565656565,373.96040450175724 210.6060606060606,371.8907175188371 205.55555555555554,379.5658922149138 200.50505050505052,380.0885445868147 195.45454545454544,381.0729279199201 190.40404040404042,383.47019568695555 185.35353535353534,384.77795479098006 180.3030303030303,384.04166723645164 175.25252525252526,387.62967166709973 170.2020202020202,389.6591546214121 165.15151515151516,392.3623627387969 160.1010101010101,394.7419899626677 155.05050505050505,397.48899175407166 150,399.9989743870253 "/><text class="poloto_text" alignment-baseline="middle" text-anchor="start" font-size="large" x="675" y="350">indirect_seq</text><line class="poloto5stroke" stroke="black" x1="680" x2="730" y1="331.25" y2="331.25"/><polyline class="poloto5stroke" fill="none" stroke="black" points="650,104.95986434559052 644.9494949494949,112.51370902676166 639.8989898989898,129.51078261107392 634.8484848484848,137.2042132181 629.7979797979798,122.35641418354368 624.7474747474747,130.45516703816645 619.6969696969697,152.88604072367252 614.6464646464647,134.93545475679298 609.5959595959596,138.7060182969355 604.5454545454545,143.9038248526536 599.4949494949494,158.31184104366378 594.4444444444445,148.28339737716576 589.3939393939394,148.8447153582124 584.3434343434344,169.84721785387063 579.2929292929293,156.9443912645124 574.2424242424242,178.1061714551397 569.1919191919192,160.8509510850985 564.1414141414141,171.78613918251807 559.090909090909,168.74847867408752 554.040404040404,173.51101508334813 548.989898989899,181.9225798952507 543.939393939394,182.13477921971366 538.8888888888889,192.43870253121278 533.8383838383838,202.20489696008315 528.7878787878788,191.04612523418163 523.7373737373737,193.90738031096586 518.6868686868687,192.802795137227 513.6363636363636,198.3223364831047 508.5858585858586,214.07482872263324 503.5353535353535,217.48817126369195 498.4848484848485,219.7723139196193 493.4343434343434,223.4117015602992 488.3838383838384,211.60381938271775 483.3333333333333,211.82104421075664 478.2828282828283,216.7153718872646 473.2323232323232,229.12241716465874 468.1818181818182,233.2857904741067 463.1313131313131,238.2475009230517 458.0808080808081,242.45548839689855 453.030303030303,237.16271007972432 447.979797979798,248.7451625254694 442.9292929292929,250.38860475610926 437.8787878787879,242.08739590028307 432.8282828282828,253.63333652412928 427.77777777777777,248.46558042856947 422.72727272727275,256.5877172590151 417.67676767676767,252.47152214640286 412.62626262626264,257.0357050063588 407.57575757575756,258.34028471016177 402.52525252525254,270.3123675249908 397.47474747474746,264.6766242290809 392.4242424242424,270.42333884885204 387.37373737373736,276.2485128611867 382.32323232323233,279.9434887250947 377.27272727272725,281.8424111477293 372.22222222222223,278.5436295759432 367.1717171717172,280.7966961587376 362.1212121212121,285.36959672897837 357.07070707070704,294.43437444445965 352.020202020202,296.1993518126 346.969696969697,296.39667974892996 341.9191919191919,296.01186976082704 336.86868686868684,298.04535260574073 331.8181818181818,304.03708616516474 326.7676767676768,307.4735049981539 321.7171717171717,308.9206449054385 316.66666666666663,311.25565796491037 311.6161616161616,316.2668029592353 306.5656565656566,316.57089720623026 301.5151515151515,321.8498297482462 296.4646464646464,320.7733463700138 291.4141414141414,323.1207693464794 286.3636363636364,328.39221491378015 281.3131313131313,329.81597084524185 276.26262626262627,332.7504546884188 271.2121212121212,335.2019773818152 266.16161616161617,338.2378943481888 261.1111111111111,331.8853501442696 256.06060606060606,344.3944439126451 251.010101010101,348.1191625528191 245.95959595959596,350.3426914819424 240.9090909090909,352.78477853597167 235.85858585858585,355.5911633186101 230.8080808080808,358.98614738742185 225.75757575757575,361.9094520491747 220.7070707070707,362.661021237026 215.65656565656565,366.0379545174833 210.6060606060606,368.52209170347476 205.55555555555554,370.36183625746986 200.50505050505052,373.28893568722907 195.45454545454544,377.42625842711993 190.40404040404042,378.3353617678833 185.35353535353534,382.0357733805571 180.3030303030303,383.15153773572007 175.25252525252526,387.0188165793756 170.2020202020202,389.61648912166504 165.15151515151516,392.10739535328946 160.1010101010101,394.8730633008328 155.05050505050505,397.46694107511587 150,400 "/><text class="poloto_text" alignment-baseline="start" text-anchor="middle" font-size="x-large" x="400" y="37.5">Bench of query:128_bytes with abspiral(num,2.1)</text><text class="poloto_text" alignment-baseline="start" text-anchor="middle" font-size="x-large" x="400" y="481.25">Number of Elements</text><text class="poloto_text" alignment-baseline="start" text-anchor="middle" font-size="x-large" transform="rotate(-90,37.5,250)" x="37.5" y="250">Time in Seconds</text><path stroke="black" fill="none" class="poloto_axis_lines" d=" M 150 100 L 150 400 L 650 400"/></svg>