<svg class="poloto" width="800" height="500" viewBox="0 0 800 500" xmlns="http://www.w3.org/2000/svg"><style>.poloto {
                    font-family: "Arial";
                    stroke-width:2;
                    }
                    .poloto_text{fill: var(--poloto_fg_color,black);  }
                    .poloto_axis_lines{stroke: var(--poloto_fg_color,black);stoke-width:3;fill:none}
                    .poloto_background{fill: var(--poloto_bg_color,aliceblue); }
                    .poloto0stroke{stroke:  var(--poloto_color0,blue); }
                    .poloto1stroke{stroke:  var(--poloto_color1,red); }
                    .poloto2stroke{stroke:  var(--poloto_color2,green); }
                    .poloto3stroke{stroke:  var(--poloto_color3,gold); }
                    .poloto4stroke{stroke:  var(--poloto_color4,aqua); }
                    .poloto5stroke{stroke:  var(--poloto_color5,brown); }
                    .poloto6stroke{stroke:  var(--poloto_color6,lime); }
                    .poloto7stroke{stroke:  var(--poloto_color7,chocolate); }
                    .poloto0fill{fill:var(--poloto_color0,blue);}
                    .poloto1fill{fill:var(--poloto_color1,red);}
                    .poloto2fill{fill:var(--poloto_color2,green);}
                    .poloto3fill{fill:var(--poloto_color3,gold);}
                    .poloto4fill{fill:var(--poloto_color4,aqua);}
                    .poloto5fill{fill:var(--poloto_color5,brown);}
                    .poloto6fill{fill:var(--poloto_color6,lime);}
                    .poloto7fill{fill:var(--poloto_color7,chocolate);}</style><rect class="poloto_background" fill="white" x="0" y="0" width="800" height="500"/><line class="poloto_axis_lines" stroke="black" x1="150" x2="150" y1="400" y2="405"/><text class="poloto_text" alignment-baseline="start" text-anchor="middle" x="150" y="430">0</text><line class="poloto_axis_lines" stroke="black" x1="234.17508417508418" x2="234.17508417508418" y1="400" y2="405"/><text class="poloto_text" alignment-baseline="start" text-anchor="middle" x="234.17508417508418" y="430">5000</text><line class="poloto_axis_lines" stroke="black" x1="318.35016835016836" x2="318.35016835016836" y1="400" y2="405"/><text class="poloto_text" alignment-baseline="start" text-anchor="middle" x="318.35016835016836" y="430">10000</text><line class="poloto_axis_lines" stroke="black" x1="402.52525252525254" x2="402.52525252525254" y1="400" y2="405"/><text class="poloto_text" alignment-baseline="start" text-anchor="middle" x="402.52525252525254" y="430">15000</text><line class="poloto_axis_lines" stroke="black" x1="486.7003367003367" x2="486.7003367003367" y1="400" y2="405"/><text class="poloto_text" alignment-baseline="start" text-anchor="middle" x="486.7003367003367" y="430">20000</text><line class="poloto_axis_lines" stroke="black" x1="570.8754208754208" x2="570.8754208754208" y1="400" y2="405"/><text class="poloto_text" alignment-baseline="start" text-anchor="middle" x="570.8754208754208" y="430">25000</text><line class="poloto_axis_lines" stroke="black" x1="150" x2="144" y1="343.5486065514074" y2="343.5486065514074"/><text class="poloto_text" alignment-baseline="middle" text-anchor="end" x="135" y="343.5486065514074">0.001</text><line class="poloto_axis_lines" stroke="black" x1="150" x2="144" y1="287.09139801033507" y2="287.09139801033507"/><text class="poloto_text" alignment-baseline="middle" text-anchor="end" x="135" y="287.09139801033507">0.002</text><line class="poloto_axis_lines" stroke="black" x1="150" x2="144" y1="230.63418946926265" y2="230.63418946926265"/><text class="poloto_text" alignment-baseline="middle" text-anchor="end" x="135" y="230.63418946926265">0.003</text><line class="poloto_axis_lines" stroke="black" x1="150" x2="144" y1="174.17698092819035" y2="174.17698092819035"/><text class="poloto_text" alignment-baseline="middle" text-anchor="end" x="135" y="174.17698092819035">0.004</text><line class="poloto_axis_lines" stroke="black" x1="150" x2="144" y1="117.71977238711804" y2="117.71977238711804"/><text class="poloto_text" alignment-baseline="middle" text-anchor="end" x="135" y="117.71977238711804">0.005</text><text class="poloto_text" alignment-baseline="middle" text-anchor="start" font-size="large" x="675" y="100">default_par</text><line class="poloto0stroke" stroke="black" x1="680" x2="730" y1="81.25" y2="81.25"/><polyline class="poloto0stroke" fill="none" stroke="black" points="650,299.6706851025799 644.9494949494949,323.4128043819827 639.8989898989898,318.14523391068354 634.8484848484848,328.98100948876305 629.7979797979798,327.65127285599516 624.7474747474747,328.3712151793109 619.6969696969697,329.145243508409 614.6464646464647,331.81459678543945 609.5959595959596,332.2199030855558 604.5454545454545,332.68940123178334 599.4949494949494,332.0732272577661 594.4444444444445,332.9917860407294 589.3939393939394,324.2266915003108 584.3434343434344,335.16499336910084 579.2929292929293,336.15316389019523 574.2424242424242,335.3427771187967 569.1919191919192,341.0577709677838 564.1414141414141,339.32080848980917 559.090909090909,338.4310993404104 554.040404040404,338.1084463935982 548.989898989899,337.4776500025688 543.939393939394,336.7127112840458 538.8888888888889,341.5328019204484 533.8383838383838,339.67829553429124 528.7878787878788,342.86219980996503 523.7373737373737,331.5837997169235 518.6868686868687,341.7413548487991 513.6363636363636,341.9605217323556 508.5858585858586,343.0728981122403 503.5353535353535,343.7314714498719 498.4848484848485,346.4924547763645 493.4343434343434,345.15927425387565 488.3838383838384,341.7361043284048 483.3333333333333,349.8770644284018 478.2828282828283,349.35082678759045 473.2323232323232,350.221001742834 468.1818181818182,350.7787989632198 463.1313131313131,346.69524906944406 458.0808080808081,348.89634625883485 453.030303030303,348.03695463042266 447.979797979798,352.8876450738545 442.9292929292929,357.14096179371325 437.8787878787879,352.1219159544119 432.8282828282828,352.212699145746 427.77777777777777,355.84826108974835 422.72727272727275,348.8021191777798 417.67676767676767,353.6966768722481 412.62626262626264,354.893174492859 407.57575757575756,352.47827385472317 402.52525252525254,351.74241059859884 397.47474747474746,357.03414475515353 392.4242424242424,356.0963340640778 387.37373737373736,352.84880251437824 382.32323232323233,357.13774373282644 377.27272727272725,354.6458354622406 372.22222222222223,359.24540424208175 367.1717171717172,360.87842899913227 362.1212121212121,357.43606362275744 357.07070707070704,357.9507839930264 352.020202020202,360.3212528080404 346.969696969697,364.43387816421483 341.9191919191919,363.16968835056315 336.86868686868684,361.0004330267895 331.8181818181818,363.5548394272303 326.7676767676768,365.12672102743085 321.7171717171717,362.1404734388594 316.66666666666663,362.9479244354138 311.6161616161616,367.1051509863357 306.5656565656566,369.0528682237941 301.5151515151515,368.28262252766825 296.4646464646464,369.8187102576538 291.4141414141414,371.7260041337968 286.3636363636364,367.38060570680756 281.3131313131313,373.0756701611797 276.26262626262627,374.0695993175453 271.2121212121212,371.95849491856893 266.16161616161617,379.94459289553777 261.1111111111111,378.32528724016277 256.06060606060606,374.9115456685183 251.010101010101,379.2460478542591 245.95959595959596,378.56861780897475 240.9090909090909,378.91165180807036 235.85858585858585,380.89883263429897 230.8080808080808,383.68973828131834 225.75757575757575,384.17589130406554 220.7070707070707,381.5349924601398 215.65656565656565,371.17628029423236 210.6060606060606,377.49943119362393 205.55555555555554,378.8728092485941 200.50505050505052,377.14770278441307 195.45454545454544,384.93699093240775 190.40404040404042,382.21039004591665 185.35353535353534,385.8951262185583 180.3030303030303,385.59635467095893 175.25252525252526,388.085891738786 170.2020202020202,390.48566184503284 165.15151515151516,392.96040712422223 160.1010101010101,395.316874551518 155.05050505050505,397.79551537809675 150,400 "/><text class="poloto_text" alignment-baseline="middle" text-anchor="start" font-size="large" x="675" y="150">default_seq</text><line class="poloto1stroke" stroke="black" x1="680" x2="730" y1="131.25" y2="131.25"/><polyline class="poloto1stroke" fill="none" stroke="black" points="650,152.98091238236435 644.9494949494949,159.3417202398528 639.8989898989898,159.68701252728997 634.8484848484848,163.62676591091164 629.7979797979798,163.98318026843143 624.7474747474747,169.03237425709372 619.6969696969697,172.11205852580068 614.6464646464647,173.43112474615427 609.5959595959596,177.53872541076854 604.5454545454545,179.2145447318932 599.4949494949494,182.48065070320274 594.4444444444445,184.0547905917449 589.3939393939394,186.16098321357813 584.3434343434344,189.29543097456994 579.2929292929293,192.26016836668728 574.2424242424242,194.92161763452197 569.1919191919192,196.32779732765445 564.1414141414141,198.8954147148939 559.090909090909,202.29227558118458 554.040404040404,204.28414235572217 548.989898989899,207.3536078696832 543.939393939394,209.13280033964654 538.8888888888889,211.3172426525177 533.8383838383838,214.8336798864984 528.7878787878788,218.0943095085795 523.7373737373737,219.02562762067302 518.6868686868687,222.41836711074023 513.6363636363636,224.53822237704043 508.5858585858586,226.44297567879912 503.5353535353535,229.33285081239097 498.4848484848485,231.38145708151234 493.4343434343434,234.9102584441635 488.3838383838384,236.98195571157817 483.3333333333333,238.41455737830788 478.2828282828283,242.60339996601272 473.2323232323232,244.54168884964483 468.1818181818182,247.66174002245864 463.1313131313131,249.4719839571196 458.0808080808081,252.56143532290415 453.030303030303,254.5845793909735 447.979797979798,256.8487957395132 442.9292929292929,258.9264774710332 437.8787878787879,262.0422378959979 432.8282828282828,264.1513662926753 427.77777777777777,265.6291901834464 422.72727272727275,267.68411965992436 417.67676767676767,270.7237757677757 412.62626262626264,273.1898266368497 407.57575757575756,275.13229335391384 402.52525252525254,277.4884220379584 397.47474747474746,280.28231991703046 392.4242424242424,282.3424999139027 387.37373737373736,284.9577107279423 382.32323232323233,287.28453812075406 377.27272727272725,289.6957690403347 372.22222222222223,292.76941238772775 367.1717171717172,295.0048355599115 362.1212121212121,297.5468213744733 357.07070707070704,299.8493721676124 352.020202020202,302.89924703020966 346.969696969697,304.5778892117614 341.9191919191919,306.9739331422445 336.86868686868684,308.78022507230753 331.8181818181818,311.431003927728 326.7676767676768,314.281980044635 321.7171717171717,317.2013822982939 316.66666666666663,319.0841172887216 311.6161616161616,320.89176419178966 306.5656565656566,323.9023448372423 301.5151515151515,326.5810700108906 296.4646464646464,328.85680362997266 291.4141414141414,330.5670618483074 286.3636363636364,333.63714839156233 281.3131313131313,336.1634391021497 276.26262626262627,338.60346319808633 271.2121212121212,340.94316283444545 266.16161616161617,343.87532441723454 261.1111111111111,346.3142758262089 256.06060606060606,348.96285285049623 251.010101010101,350.99548172960044 245.95959595959596,353.71829998311927 240.9090909090909,356.29060331866765 235.85858585858585,358.5429636534137 230.8080808080808,361.29067953589913 225.75757575757575,363.2869499727029 220.7070707070707,365.7648568555706 215.65656565656565,368.40728004412694 210.6060606060606,370.80688077874817 205.55555555555554,373.2558815708428 200.50505050505052,375.76608197699596 195.45454545454544,377.9849067298686 190.40404040404042,380.18453603183735 185.35353535353534,382.63308516626364 180.3030303030303,385.1688606878859 175.25252525252526,387.7262593203794 170.2020202020202,390.06951576087664 165.15151515151516,392.6660392388891 160.1010101010101,395.0494932118675 155.05050505050505,397.608980761077 150,399.99926605628895 "/><text class="poloto_text" alignment-baseline="middle" text-anchor="start" font-size="large" x="675" y="200">direct_par</text><line class="poloto2stroke" stroke="black" x1="680" x2="730" y1="181.25" y2="181.25"/><polyline class="poloto2stroke" fill="none" stroke="black" points="650,293.3232576035157 644.9494949494949,292.9778524016614 639.8989898989898,318.9951971852694 634.8484848484848,324.95944960996536 629.7979797979798,318.7187826922523 624.7474747474747,319.09027112445256 619.6969696969697,328.3781594159615 614.6464646464647,325.7496811579148 609.5959595959596,321.71711212345156 604.5454545454545,324.60354336732246 599.4949494949494,320.7106494667899 594.4444444444445,322.73108358884923 589.3939393939394,318.6801095044017 584.3434343434344,331.54998184900745 579.2929292929293,332.5336357934185 574.2424242424242,335.14647540469934 569.1919191919192,337.378962802039 564.1414141414141,338.2242965855245 559.090909090909,340.59922552001325 554.040404040404,332.40118718218116 548.989898989899,338.9326651810893 543.939393939394,333.56770602505685 538.8888888888889,341.92585700631133 533.8383838383838,338.96264395882463 528.7878787878788,342.08975228270606 523.7373737373737,335.85625543047774 518.6868686868687,341.16436217750936 513.6363636363636,333.556979155434 508.5858585858586,345.44562521559595 503.5353535353535,342.05260343948606 498.4848484848485,340.3729450281806 493.4343434343434,346.0609523314851 488.3838383838384,349.64457364362966 483.3333333333333,351.3214091945081 478.2828282828283,348.24477361506234 473.2323232323232,347.59585446009123 468.1818181818182,340.354935178656 463.1313131313131,345.48384674577824 458.0808080808081,347.9313231932423 453.030303030303,349.3617230288389 447.979797979798,347.03777495366273 442.9292929292929,352.2895374065704 437.8787878787879,353.32016374848763 432.8282828282828,351.9867573971646 427.77777777777777,354.25712758143527 422.72727272727275,351.16479689801514 417.67676767676767,349.03782802343875 412.62626262626264,350.32093100195175 407.57575757575756,351.17213633512546 402.52525252525254,353.42602101450217 397.47474747474746,358.6298512973584 392.4242424242424,355.89167668311643 387.37373737373736,358.16650698686186 382.32323232323233,356.8431500186591 377.27272727272725,357.3077363877436 372.22222222222223,357.82482796077124 367.1717171717172,357.23993128028576 362.1212121212121,361.02019304977887 357.07070707070704,360.0800111559444 352.020202020202,359.8640623332748 346.969696969697,366.56846876194425 341.9191919191919,360.2301308734551 336.86868686868684,359.1189400949497 331.8181818181818,362.2430561867785 326.7676767676768,363.6792711148548 321.7171717171717,367.01781168472263 316.66666666666663,367.1093288197677 311.6161616161616,365.73103898765453 306.5656565656566,365.9107422824407 301.5151515151515,368.0599552971823 296.4646464646464,368.2825096132512 291.4141414141414,365.1882593847406 286.3636363636364,375.8634706617293 281.3131313131313,375.28613924718826 276.26262626262627,371.43276539263445 271.2121212121212,375.4884818825995 266.16161616161617,374.73968992571923 261.1111111111111,378.96596364268686 256.06060606060606,382.8396056351069 251.010101010101,381.33727931582894 245.95959595959596,379.87989293454973 240.9090909090909,382.09781437208574 235.85858585858585,383.04070621193017 230.8080808080808,380.5674852773714 225.75757575757575,386.6852448520906 220.7070707070707,385.4544212486867 215.65656565656565,373.7294446360853 210.6060606060606,372.73912874106634 205.55555555555554,373.592197162122 200.50505050505052,376.8189524590784 195.45454545454544,381.1472443518797 190.40404040404042,376.5196163393936 185.35353535353534,377.2369616311165 180.3030303030303,385.14390660171074 175.25252525252526,387.47491182795454 170.2020202020202,390.26677724751914 165.15151515151516,392.9397437858962 160.1010101010101,395.3336987996633 155.05050505050505,397.74504263366106 150,399.9972335967815 "/><text class="poloto_text" alignment-baseline="middle" text-anchor="start" font-size="large" x="675" y="250">direct_seq</text><line class="poloto3stroke" stroke="black" x1="680" x2="730" y1="231.25" y2="231.25"/><polyline class="poloto3stroke" fill="none" stroke="black" points="650,147.1031524011533 644.9494949494949,151.43059743582648 639.8989898989898,152.41809047041838 634.8484848484848,155.93537456252722 629.7979797979798,157.89026186547034 624.7474747474747,162.15842683117543 619.6969696969697,164.03749210304795 614.6464646464647,166.82444574546943 609.5959595959596,170.32456684618174 604.5454545454545,172.1231241386747 599.4949494949494,175.18107238209336 594.4444444444445,176.74284814196503 589.3939393939394,180.2845782053721 584.3434343434344,183.21199738264377 579.2929292929293,185.81337618059078 574.2424242424242,188.0135700546449 569.1919191919192,190.73695288024916 564.1414141414141,192.12879244241222 559.090909090909,196.16034524712165 554.040404040404,199.05208346859536 548.989898989899,201.65030066286405 543.939393939394,203.94195521475473 538.8888888888889,207.070192682807 533.8383838383838,209.59795128081643 528.7878787878788,212.61779090846986 523.7373737373737,214.17363866144473 518.6868686868687,217.8871680104423 513.6363636363636,219.98167399010754 508.5858585858586,222.46957379888698 503.5353535353535,224.78420643465387 498.4848484848485,227.03684905544264 493.4343434343434,229.95732399606376 488.3838383838384,232.64920369930212 483.3333333333333,235.59418106843006 478.2828282828283,237.6255678889464 473.2323232323232,241.13562545836194 468.1818181818182,243.2245421743816 463.1313131313131,245.62380416575158 458.0808080808081,248.33058857204475 453.030303030303,250.85631471054668 447.979797979798,253.3630147697703 442.9292929292929,255.10206616446098 437.8787878787879,258.4998868032968 432.8282828282828,260.19631300553897 427.77777777777777,261.81906255063507 422.72727272727275,268.87271327133953 417.67676767676767,270.5050605418876 412.62626262626264,273.495994078768 407.57575757575756,275.6671124904234 402.52525252525254,278.3272067852531 397.47474747474746,279.75980845198285 392.4242424242424,283.1086242338051 387.37373737373736,285.1441324305449 382.32323232323233,287.54096676194763 377.27272727272725,289.85780122884756 372.22222222222223,292.72763405340737 367.1717171717172,295.04475080635007 362.1212121212121,298.11320009055737 357.07070707070704,299.6331410589001 352.020202020202,301.9660658302343 346.969696969697,304.5953909464091 341.9191919191919,306.7380549249599 336.86868686868684,308.9769784440732 331.8181818181818,311.6763669560475 326.7676767676768,314.0335118698458 321.7171717171717,316.3342560323116 316.66666666666663,318.2290164081585 311.6161616161616,321.14661203114406 306.5656565656566,323.6071865509896 301.5151515151515,325.81827666629215 296.4646464646464,328.27371358016046 291.4141414141414,329.8244237271581 286.3636363636364,331.84773716685305 281.3131313131313,334.1638941472506 276.26262626262627,336.8065431646411 271.2121212121212,339.66587494841224 266.16161616161617,342.1190535739389 261.1111111111111,344.78180135757003 256.06060606060606,347.75783019139556 251.010101010101,350.1577132120595 245.95959595959596,352.50943823383784 240.9090909090909,354.34345065329455 235.85858585858585,357.06220398779845 230.8080808080808,360.3820007644306 225.75757575757575,362.6605007867312 220.7070707070707,365.1531994582366 215.65656565656565,368.4631162233741 210.6060606060606,370.74782653861416 205.55555555555554,373.38178114588936 200.50505050505052,375.645884580012 195.45454545454544,378.1334456455402 190.40404040404042,380.09188975262146 185.35353535353534,382.6056469629127 180.3030303030303,385.01958782850335 175.25252525252526,387.635645500671 170.2020202020202,390.1999319126065 165.15151515151516,392.74682950431134 160.1010101010101,395.03086233304896 155.05050505050505,397.65719521717114 150,399.99740296840713 "/><text class="poloto_text" alignment-baseline="middle" text-anchor="start" font-size="large" x="675" y="300">indirect_par</text><line class="poloto4stroke" stroke="black" x1="680" x2="730" y1="281.25" y2="281.25"/><polyline class="poloto4stroke" fill="none" stroke="black" points="650,266.6702611089438 644.9494949494949,306.2047601330809 639.8989898989898,303.7362816040396 634.8484848484848,305.12778242295144 629.7979797979798,310.92170344947897 624.7474747474747,306.29209943469397 619.6969696969697,307.2017379787077 614.6464646464647,311.2095222986213 609.5959595959596,319.59974097432723 604.5454545454545,307.52552006969074 599.4949494949494,310.2833982497136 594.4444444444445,316.56499664361894 589.3939393939394,310.90380651437147 584.3434343434344,320.53489817660153 579.2929292929293,315.5008911770368 574.2424242424242,321.90810685994603 569.1919191919192,318.5119234801578 564.1414141414141,319.67420803239287 559.090909090909,325.16094538724843 554.040404040404,326.6133635341761 548.989898989899,316.4146510972741 543.939393939394,324.6939313581967 538.8888888888889,331.4460441280833 533.8383838383838,330.35534731627837 528.7878787878788,321.9876550667804 523.7373737373737,323.15773071379414 518.6868686868687,320.3821249702894 513.6363636363636,324.834509807464 508.5858585858586,331.60084979390297 503.5353535353535,333.1022727978442 498.4848484848485,336.47976884160533 493.4343434343434,333.7705567753449 488.3838383838384,336.64338183195736 483.3333333333333,332.4630642827422 478.2828282828283,339.86031357462764 473.2323232323232,340.88738311240684 468.1818181818182,339.7868627463157 463.1313131313131,337.39081881583263 458.0808080808081,337.4260481139623 453.030303030303,345.3860628605851 447.979797979798,344.92288792171416 442.9292929292929,344.8574540170151 437.8787878787879,344.40088457154343 432.8282828282828,347.35545966612335 427.77777777777777,337.3458788778339 422.72727272727275,340.66742582793086 417.67676767676767,341.1850819730439 412.62626262626264,346.2276704683069 407.57575757575756,345.9550950654706 402.52525252525254,342.29220783253436 397.47474747474746,346.2790465280793 392.4242424242424,346.1505499214398 387.37373737373736,352.3257264772452 382.32323232323233,350.38489701922873 377.27272727272725,350.4353697636645 372.22222222222223,352.43745529294796 367.1717171717172,354.1501976284585 362.1212121212121,354.9272746468178 357.07070707070704,356.48938914994073 352.020202020202,357.7301492220479 346.969696969697,357.5719561237158 341.9191919191919,357.67713590322785 336.86868686868684,359.9195597692707 331.8181818181818,355.71891762498075 326.7676767676768,351.82066028963675 321.7171717171717,357.7399163191255 316.66666666666663,361.9740375880803 311.6161616161616,363.3091376556596 306.5656565656566,368.06035049764205 301.5151515151515,366.23424208738106 296.4646464646464,357.9043761676056 291.4141414141414,367.1779807853536 286.3636363636364,373.08233211178754 281.3131313131313,365.73617659363174 276.26262626262627,371.23420539019554 271.2121212121212,372.54164142558966 266.16161616161617,370.3526260788267 261.1111111111111,377.75602920644315 256.06060606060606,377.9502420038244 251.010101010101,375.61229254093007 245.95959595959596,375.1652079064933 240.9090909090909,379.42208143049015 235.85858585858585,371.39476969128634 230.8080808080808,382.64347329263524 225.75757575757575,375.3056734413435 220.7070707070707,383.8632312831651 215.65656565656565,369.28417340718687 210.6060606060606,373.27027815902073 205.55555555555554,376.17946165793364 200.50505050505052,372.9203563804832 195.45454545454544,376.9521914712353 190.40404040404042,375.40633664417226 185.35353535353534,381.588852637088 180.3030303030303,384.0009868720053 175.25252525252526,386.81069276946886 170.2020202020202,389.5593684244995 165.15151515151516,392.3481851548028 160.1010101010101,394.9557177884808 155.05050505050505,397.58007467030404 150,399.9978546260754 "/><text class="poloto_text" alignment-baseline="middle" text-anchor="start" font-size="large" x="675" y="350">indirect_seq</text><line class="poloto5stroke" stroke="black" x1="680" x2="730" y1="331.25" y2="331.25"/><polyline class="poloto5stroke" fill="none" stroke="black" points="650,117.8462929914586 644.9494949494949,100 639.8989898989898,122.94511286642842 634.8484848484848,126.74270699894367 629.7979797979798,128.9916799011773 624.7474747474747,134.51607421412973 619.6969696969697,136.56061556423612 614.6464646464647,139.0389176475636 609.5959595959596,143.38234007225395 604.5454545454545,145.829929434135 599.4949494949494,148.87173091591092 594.4444444444445,150.95494545386794 589.3939393939394,154.72927921646428 584.3434343434344,158.1576996623294 579.2929292929293,161.09324867763104 574.2424242424242,163.24641369697045 569.1919191919192,166.18969734984213 564.1414141414141,165.44062310691922 559.090909090909,172.5789031832268 554.040404040404,175.35371852581196 548.989898989899,177.48808329470717 543.939393939394,181.17637627148687 538.8888888888889,183.80948402063396 533.8383838383838,187.0985116186112 528.7878787878788,190.94804638298422 523.7373737373737,193.02403439824798 518.6868686868687,196.09942791910584 513.6363636363636,199.31748880594697 508.5858585858586,201.60592529695077 503.5353535353535,204.1979886554885 498.4848484848485,207.33695299316358 493.4343434343434,210.49392718036324 488.3838383838384,213.98563615700294 483.3333333333333,216.91994311371664 478.2828282828283,220.07076346518537 473.2323232323232,222.1480499962456 468.1818181818182,225.74730995515603 463.1313131313131,228.44274646253243 458.0808080808081,230.90089332241072 453.030303030303,234.4922492721254 447.979797979798,236.49331857165518 442.9292929292929,239.43778782590627 437.8787878787879,242.23654102491287 432.8282828282828,245.2979331580525 427.77777777777777,247.25474000608608 422.72727272727275,252.34080055192564 417.67676767676767,255.06147343151994 412.62626262626264,258.63995713768725 407.57575757575756,261.1635943594732 402.52525252525254,263.0815586480305 397.47474747474746,265.6001711782563 392.4242424242424,269.7111028181745 387.37373737373736,270.570212160544 382.32323232323233,274.8933099901595 377.27272727272725,277.2273639056645 372.22222222222223,280.2599628624482 367.1717171717172,282.4521398128895 362.1212121212121,285.84877485034605 357.07070707070704,288.85427434703 352.020202020202,291.393042100705 346.969696969697,293.70603747742416 341.9191919191919,296.99235512939146 336.86868686868684,299.55235079347784 331.8181818181818,301.33718898429527 326.7676767676768,303.97893468634913 321.7171717171717,307.2664379396958 316.66666666666663,310.1762424679026 311.6161616161616,312.03656394653956 306.5656565656566,315.7646592553407 301.5151515151515,318.68332756528855 296.4646464646464,321.3206131478676 291.4141414141414,323.2372789206285 286.3636363636364,323.2616684347182 281.3131313131313,326.7435538570718 276.26262626262627,329.6087571905312 271.2121212121212,332.40632478815843 266.16161616161617,335.61574772209275 261.1111111111111,338.6410636989747 256.06060606060606,341.38488403407075 251.010101010101,344.60661463946707 245.95959595959596,347.3798491802131 240.9090909090909,350.3161321392257 235.85858585858585,353.0678564835176 230.8080808080808,355.89162022590784 225.75757575757575,358.9038945876168 220.7070707070707,361.25381297872184 215.65656565656565,364.3362071934388 210.6060606060606,367.61100757486366 205.55555555555554,370.68702212501546 200.50505050505052,373.10762494121394 195.45454545454544,375.4265483248299 190.40404040404042,378.29096125736976 185.35353535353534,381.03579782221965 180.3030303030303,383.55232143572937 175.25252525252526,386.4169601971034 170.2020202020202,389.2430951422524 165.15151515151516,392.0381221654953 160.1010101010101,394.6249914608472 155.05050505050505,397.4557558970966 150,399.9969513107388 "/><text class="poloto_text" alignment-baseline="start" text-anchor="middle" font-size="x-large" x="400" y="37.5">Bench of query:128_bytes with abspiral(num,2.1)</text><text class="poloto_text" alignment-baseline="start" text-anchor="middle" font-size="x-large" x="400" y="481.25">Number of Elements</text><text class="poloto_text" alignment-baseline="start" text-anchor="middle" font-size="x-large" transform="rotate(-90,37.5,250)" x="37.5" y="250">Time in Seconds</text><path stroke="black" fill="none" class="poloto_axis_lines" d=" M 150 100 L 150 400 L 650 400"/></svg>