<svg class="poloto" height="500" viewBox="0 0 800 500" width="800" xmlns="http://www.w3.org/2000/svg">
<rect class="poloto_background" fill="white" height="500" width="800" x="0" y="0"/>
<style>
.poloto {
font-family: "Arial";
stroke-width:2;
}
.poloto_text{fill: var(--poloto_fg_color,black);  }
.poloto_axis_lines{stroke: var(--poloto_fg_color,black);stoke-width:3;fill:none}
.poloto_background{fill: var(--poloto_bg_color,aliceblue); }
.poloto0stroke{stroke:  var(--poloto_color0,blue); }
.poloto1stroke{stroke:  var(--poloto_color1,red); }
.poloto2stroke{stroke:  var(--poloto_color2,green); }
.poloto3stroke{stroke:  var(--poloto_color3,gold); }
.poloto4stroke{stroke:  var(--poloto_color4,aqua); }
.poloto5stroke{stroke:  var(--poloto_color5,brown); }
.poloto6stroke{stroke:  var(--poloto_color6,lime); }
.poloto7stroke{stroke:  var(--poloto_color7,chocolate); }
.poloto0fill{fill:var(--poloto_color0,blue);}
.poloto1fill{fill:var(--poloto_color1,red);}
.poloto2fill{fill:var(--poloto_color2,green);}
.poloto3fill{fill:var(--poloto_color3,gold);}
.poloto4fill{fill:var(--poloto_color4,aqua);}
.poloto5fill{fill:var(--poloto_color5,brown);}
.poloto6fill{fill:var(--poloto_color6,lime);}
.poloto7fill{fill:var(--poloto_color7,chocolate);}
</style>
<line class="poloto_axis_lines" stroke="black" x1="150" x2="150" y1="400" y2="405"/>
<text alignment-baseline="start" class="poloto_text" text-anchor="middle" x="150" y="440">
0
</text>
<line class="poloto_axis_lines" stroke="black" x1="234.17508" x2="234.17508" y1="400" y2="405"/>
<text alignment-baseline="start" class="poloto_text" text-anchor="middle" x="234.17508" y="440">
5000
</text>
<line class="poloto_axis_lines" stroke="black" x1="318.35016" x2="318.35016" y1="400" y2="405"/>
<text alignment-baseline="start" class="poloto_text" text-anchor="middle" x="318.35016" y="440">
10000
</text>
<line class="poloto_axis_lines" stroke="black" x1="402.52527" x2="402.52527" y1="400" y2="405"/>
<text alignment-baseline="start" class="poloto_text" text-anchor="middle" x="402.52527" y="440">
15000
</text>
<line class="poloto_axis_lines" stroke="black" x1="486.70035" x2="486.70035" y1="400" y2="405"/>
<text alignment-baseline="start" class="poloto_text" text-anchor="middle" x="486.70035" y="440">
20000
</text>
<line class="poloto_axis_lines" stroke="black" x1="570.8754" x2="570.8754" y1="400" y2="405"/>
<text alignment-baseline="start" class="poloto_text" text-anchor="middle" x="570.8754" y="440">
25000
</text>
<line class="poloto_axis_lines" stroke="black" x1="150" x2="144" y1="335.06955" y2="335.06955"/>
<text alignment-baseline="middle" class="poloto_text" text-anchor="end" x="120" y="335.06955">
0.002
</text>
<line class="poloto_axis_lines" stroke="black" x1="150" x2="144" y1="270.13425" y2="270.13425"/>
<text alignment-baseline="middle" class="poloto_text" text-anchor="end" x="120" y="270.13425">
0.004
</text>
<line class="poloto_axis_lines" stroke="black" x1="150" x2="144" y1="205.19897" y2="205.19897"/>
<text alignment-baseline="middle" class="poloto_text" text-anchor="end" x="120" y="205.19897">
0.006
</text>
<line class="poloto_axis_lines" stroke="black" x1="150" x2="144" y1="140.26367" y2="140.26367"/>
<text alignment-baseline="middle" class="poloto_text" text-anchor="end" x="120" y="140.26367">
0.008
</text>
<text alignment-baseline="middle" class="poloto_text" font-size="large" text-anchor="start" x="675" y="100">
default_par
</text>
<line class="poloto0stroke" x1="680" x2="730" y1="81.25" y2="81.25"/>
<polyline class="poloto0stroke" fill="none" points="650,361.6479 644.94946,357.65594 639.899,354.21738 634.8485,362.64627 629.798,362.87076 624.7475,360.76343 619.697,363.07617 614.6465,356.12082 609.59595,356.87527 604.5455,365.54462 599.495,364.86618 594.44446,365.82486 589.3939,367.5336 584.34344,367.62115 579.29297,368.1621 574.24243,358.7076 569.1919,368.83005 564.1414,364.15048 559.09094,368.14063 554.0404,366.52496 548.98987,370.00336 543.9394,368.4834 538.8889,367.94177 533.8384,368.62607 528.78784,368.4672 523.73737,372.1696 518.6869,368.0556 513.63635,372.31238 508.58588,374.42468 503.53537,367.14725 498.48486,371.49213 493.43436,372.46417 488.38385,373.50854 483.33334,369.53168 478.28284,368.54376 473.23233,372.80038 468.18182,376.22012 463.13132,375.13568 458.0808,375.04697 453.0303,373.07526 447.9798,377.77655 442.9293,378.36435 437.87878,375.55762 432.82828,379.2508 427.77777,374.6455 422.72726,376.59045 417.67676,375.9313 412.62628,377.8349 407.57578,378.2471 402.52527,375.8225 397.47473,378.157 392.42426,376.69113 387.37375,379.2126 382.32324,376.50064 377.27274,380.4294 372.22223,380.0954 367.17172,380.0015 362.12122,383.89398 357.0707,382.67383 352.0202,381.34155 346.9697,380.29764 341.9192,382.87918 336.86868,382.47452 331.81818,381.1134 326.7677,380.8839 321.71716,384.15118 316.6667,381.5885 311.61615,380.0493 306.56567,384.59586 301.51514,382.26495 296.46466,382.04453 291.41412,382.54608 286.36365,384.1962 281.31314,385.07968 276.26263,385.3104 271.21213,383.10443 266.16162,379.1438 261.1111,385.04556 256.0606,385.06876 251.0101,388.4572 245.9596,385.63702 240.90909,386.42947 235.85858,386.54532 230.80807,387.46725 225.75757,387.8624 220.70706,387.59995 215.65657,387.5014 210.60606,387.77753 205.55556,389.50354 200.50505,388.50516 195.45454,390.4696 190.40404,387.1799 185.35353,389.4831 180.30302,395.8444 175.25253,396.3929 170.20203,397.06702 165.15152,397.85968 160.10101,398.6054 155.0505,399.32697 150,399.99963 " stroke="black"/>
<text alignment-baseline="middle" class="poloto_text" font-size="large" text-anchor="start" x="675" y="150">
default_seq
</text>
<line class="poloto1stroke" x1="680" x2="730" y1="131.25" y2="131.25"/>
<polyline class="poloto1stroke" fill="none" points="650,310.74915 644.94946,312.79172 639.899,310.21643 634.8485,313.87814 629.798,314.22757 624.7475,314.99634 619.697,316.52274 614.6465,314.91583 609.59595,317.93594 604.5455,318.28574 599.495,321.4049 594.44446,321.42337 589.3939,320.57227 584.34344,324.66245 579.29297,323.45258 574.24243,325.7087 569.1919,324.84662 564.1414,325.7328 559.09094,328.05548 554.0404,330.41095 548.98987,329.75043 543.9394,331.84354 538.8889,331.9156 533.8384,332.33685 528.78784,333.28165 523.73737,334.83002 518.6869,334.4532 513.63635,337.4613 508.58588,337.9835 503.53537,338.56375 498.48486,339.9944 493.43436,340.66644 488.38385,340.79147 483.33334,343.3796 478.28284,342.48514 473.23233,345.83435 468.18182,345.52838 463.13132,344.95074 458.0808,346.5382 453.0303,348.69244 447.9798,348.5985 442.9293,349.78204 437.87878,351.02444 432.82828,351.58963 427.77777,352.4779 422.72726,354.22827 417.67676,355.9288 412.62628,355.43262 407.57578,357.42218 402.52527,357.8657 397.47473,357.80267 392.42426,359.6114 387.37375,360.22574 382.32324,361.99326 377.27274,362.5811 372.22223,362.99756 367.17172,363.73035 362.12122,364.89554 357.0707,365.89093 352.0202,368.2843 346.9697,366.5661 341.9192,369.0752 336.86868,370.2422 331.81818,370.3822 326.7677,371.492 321.71716,372.6161 316.6667,373.01862 311.61615,373.7295 306.56567,375.59497 301.51514,375.2033 296.46466,376.72214 291.41412,377.11926 286.36365,378.84595 281.31314,379.6283 276.26263,379.64267 271.21213,380.99625 266.16162,381.2213 261.1111,382.67334 256.0606,383.20447 251.0101,384.1215 245.9596,384.9136 240.90909,385.57703 235.85858,386.72153 230.80807,387.55145 225.75757,388.38217 220.70706,389.20477 215.65657,389.92157 210.60606,390.6639 205.55556,391.7067 200.50505,392.69894 195.45454,393.0189 190.40404,393.971 185.35353,394.81146 180.30302,395.7103 175.25253,396.18448 170.20203,397.03232 165.15152,397.77567 160.10101,398.53076 155.0505,399.278 150,400 " stroke="black"/>
<text alignment-baseline="middle" class="poloto_text" font-size="large" text-anchor="start" x="675" y="200">
direct_par
</text>
<line class="poloto2stroke" x1="680" x2="730" y1="181.25" y2="181.25"/>
<polyline class="poloto2stroke" fill="none" points="650,216.25238 644.94946,291.5316 639.899,286.08084 634.8485,284.31235 629.798,291.34656 624.7475,286.88467 619.697,295.21533 614.6465,290.03516 609.59595,292.0778 604.5455,298.50702 599.495,303.1058 594.44446,297.3452 589.3939,297.49948 584.34344,297.8452 579.29297,303.75006 574.24243,298.8054 569.1919,309.4191 564.1414,307.52002 559.09094,311.71213 554.0404,314.71756 548.98987,316.13516 543.9394,317.747 538.8889,293.2075 533.8384,314.4965 528.78784,319.97574 523.73737,319.40118 518.6869,321.3479 513.63635,320.50702 508.58588,323.93298 503.53537,322.8733 498.48486,324.62158 493.43436,319.09503 488.38385,324.3199 483.33334,326.89856 478.28284,327.39377 473.23233,329.85947 468.18182,333.43488 463.13132,332.26877 458.0808,305.51282 453.0303,330.37482 447.9798,333.2678 442.9293,334.8722 437.87878,336.33945 432.82828,336.13113 427.77777,320.46423 422.72726,338.90878 417.67676,322.6672 412.62628,332.69012 407.57578,339.30045 402.52527,339.41202 397.47473,336.67307 392.42426,340.8558 387.37375,343.50092 382.32324,344.41135 377.27274,345.17053 372.22223,346.65137 367.17172,351.469 362.12122,349.53464 357.0707,352.5357 352.0202,350.21085 346.9697,348.81586 341.9192,353.5464 336.86868,351.45087 331.81818,351.3422 326.7677,358.15118 321.71716,355.13864 316.6667,357.5663 311.61615,358.9344 306.56567,348.54745 301.51514,361.11646 296.46466,365.03342 291.41412,364.9216 286.36365,361.17502 281.31314,363.5916 276.26263,366.66016 271.21213,364.92133 266.16162,367.4961 261.1111,367.06555 256.0606,370.201 251.0101,370.6473 245.9596,373.01065 240.90909,370.8485 235.85858,373.41293 230.80807,374.61932 225.75757,375.89825 220.70706,376.8911 215.65657,375.5656 210.60606,378.8984 205.55556,378.91342 200.50505,381.95105 195.45454,382.97287 190.40404,379.93195 185.35353,386.78925 180.30302,388.492 175.25253,390.09537 170.20203,391.98413 165.15152,394.44324 160.10101,396.44827 155.0505,398.35226 150,399.99692 " stroke="black"/>
<text alignment-baseline="middle" class="poloto_text" font-size="large" text-anchor="start" x="675" y="250">
direct_seq
</text>
<line class="poloto3stroke" x1="680" x2="730" y1="231.25" y2="231.25"/>
<polyline class="poloto3stroke" fill="none" points="650,104.271576 644.94946,129.51868 639.899,130.40399 634.8485,100 629.798,136.47311 624.7475,120.565125 619.697,143.73996 614.6465,131.21234 609.59595,148.86908 604.5455,149.47798 599.495,159.14505 594.44446,156.69374 589.3939,154.35013 584.34344,162.68808 579.29297,164.41432 574.24243,173.37143 569.1919,168.94368 564.1414,172.09853 559.09094,181.10596 554.0404,186.24538 548.98987,184.03395 543.9394,192.71104 538.8889,194.2738 533.8384,192.05945 528.78784,195.47414 523.73737,201.76137 518.6869,199.32986 513.63635,208.92274 508.58588,213.25302 503.53537,214.6944 498.48486,218.5165 493.43436,213.44615 488.38385,220.19133 483.33334,229.94858 478.28284,226.39603 473.23233,234.45908 468.18182,235.14868 463.13132,229.37491 458.0808,235.84254 453.0303,243.62802 447.9798,243.61679 442.9293,246.5037 437.87878,252.61998 432.82828,252.51738 427.77777,255.47873 422.72726,260.89365 417.67676,266.73343 412.62628,264.36395 407.57578,269.56726 402.52527,273.7047 397.47473,272.08173 392.42426,277.6242 387.37375,280.0668 382.32324,283.38345 377.27274,285.13608 372.22223,287.1426 367.17172,290.06232 362.12122,295.72757 357.0707,296.63318 352.0202,303.49747 346.9697,302.0069 341.9192,306.79993 336.86868,310.9708 331.81818,311.61664 326.7677,314.30212 321.71716,318.5224 316.6667,319.66092 311.61615,321.7072 306.56567,326.99533 301.51514,326.89795 296.46466,331.18555 291.41412,331.20776 286.36365,337.69128 281.31314,339.29904 276.26263,340.91022 271.21213,344.32892 266.16162,346.24707 261.1111,348.92053 256.0606,351.9437 251.0101,353.71066 245.9596,356.57693 240.90909,357.4692 235.85858,360.8604 230.80807,364.47452 225.75757,367.14423 220.70706,369.01816 215.65657,371.31412 210.60606,373.2917 205.55556,376.54376 200.50505,379.00342 195.45454,380.59518 190.40404,382.90436 185.35353,385.31116 180.30302,388.06274 175.25253,389.63266 170.20203,392.28842 165.15152,393.78452 160.10101,396.16522 155.0505,398.15637 150,399.9957 " stroke="black"/>
<text alignment-baseline="middle" class="poloto_text" font-size="large" text-anchor="start" x="675" y="300">
indirect_par
</text>
<line class="poloto4stroke" x1="680" x2="730" y1="281.25" y2="281.25"/>
<polyline class="poloto4stroke" fill="none" points="650,351.64676 644.94946,350.3042 639.899,355.82233 634.8485,354.9759 629.798,355.74847 624.7475,348.5011 619.697,354.3814 614.6465,355.95285 609.59595,353.75897 604.5455,357.20172 599.495,360.1366 594.44446,356.08145 589.3939,355.16937 584.34344,362.9595 579.29297,360.48132 574.24243,361.06744 569.1919,362.20782 564.1414,354.83432 559.09094,348.40945 554.0404,361.97397 548.98987,365.19574 543.9394,362.482 538.8889,363.87994 533.8384,363.81842 528.78784,359.57895 523.73737,364.00195 518.6869,364.7981 513.63635,367.0394 508.58588,362.25616 503.53537,360.0196 498.48486,365.7695 493.43436,367.9146 488.38385,365.7692 483.33334,369.52228 478.28284,370.5611 473.23233,369.05243 468.18182,374.11386 463.13132,366.95517 458.0808,361.02542 453.0303,371.18683 447.9798,370.7234 442.9293,369.30792 437.87878,374.20358 432.82828,374.7227 427.77777,368.96002 422.72726,372.6126 417.67676,373.22687 412.62628,374.80814 407.57578,371.71002 402.52527,374.62607 397.47473,372.98013 392.42426,375.17514 387.37375,374.8551 382.32324,377.1804 377.27274,375.65198 372.22223,377.19952 367.17172,375.6273 362.12122,377.8404 357.0707,378.10934 352.0202,381.9798 346.9697,378.6014 341.9192,378.6596 336.86868,380.0379 331.81818,379.35242 326.7677,379.61298 321.71716,376.37924 316.6667,378.7519 311.61615,381.25458 306.56567,374.1819 301.51514,384.2997 296.46466,384.47937 291.41412,383.54153 286.36365,381.20886 281.31314,384.59576 276.26263,386.99908 271.21213,383.30054 266.16162,386.68973 261.1111,381.95712 256.0606,389.32336 251.0101,382.57297 245.9596,385.0587 240.90909,388.5874 235.85858,389.26532 230.80807,391.05466 225.75757,387.65656 220.70706,389.56247 215.65657,389.55444 210.60606,386.98428 205.55556,388.25766 200.50505,388.83887 195.45454,389.2184 190.40404,388.71472 185.35353,389.14444 180.30302,396.30463 175.25253,396.8084 170.20203,397.4384 165.15152,398.13992 160.10101,398.79886 155.0505,399.42947 150,399.99716 " stroke="black"/>
<text alignment-baseline="middle" class="poloto_text" font-size="large" text-anchor="start" x="675" y="350">
indirect_seq
</text>
<line class="poloto5stroke" x1="680" x2="730" y1="331.25" y2="331.25"/>
<polyline class="poloto5stroke" fill="none" points="650,303.0333 644.94946,306.2892 639.899,302.3268 634.8485,299.7865 629.798,308.30478 624.7475,304.08633 619.697,309.8587 614.6465,309.29855 609.59595,311.52853 604.5455,307.15314 599.495,311.67142 594.44446,311.4978 589.3939,310.30695 584.34344,316.2205 579.29297,314.25946 574.24243,315.928 569.1919,314.7059 564.1414,315.492 559.09094,319.7748 554.0404,322.56046 548.98987,321.38937 543.9394,324.62976 538.8889,323.99463 533.8384,324.20673 528.78784,324.679 523.73737,327.64734 518.6869,325.3281 513.63635,329.8425 508.58588,331.837 503.53537,331.65457 498.48486,333.18588 493.43436,336.7704 488.38385,337.10568 483.33334,340.51868 478.28284,337.8515 473.23233,343.16812 468.18182,339.28644 463.13132,340.30573 458.0808,338.11914 453.0303,342.79755 447.9798,342.0082 442.9293,343.927 437.87878,346.9092 432.82828,345.66452 427.77777,347.2466 422.72726,350.11115 417.67676,353.04062 412.62628,349.6428 407.57578,353.56638 402.52527,353.7495 397.47473,352.73337 392.42426,357.10413 387.37375,356.8499 382.32324,358.86923 377.27274,359.34604 372.22223,360.28568 367.17172,361.26816 362.12122,361.98096 357.0707,363.2237 352.0202,366.06924 346.9697,365.9631 341.9192,367.83957 336.86868,369.95673 331.81818,368.39456 326.7677,370.59613 321.71716,371.89886 316.6667,372.23425 311.61615,372.4023 306.56567,373.58115 301.51514,372.91663 296.46466,375.3913 291.41412,375.38593 286.36365,378.58255 281.31314,379.07486 276.26263,378.62262 271.21213,380.43677 266.16162,380.8668 261.1111,382.70874 256.0606,383.08527 251.0101,383.64462 245.9596,384.99622 240.90909,385.60226 235.85858,386.51328 230.80807,387.9865 225.75757,388.7992 220.70706,389.27585 215.65657,390.07706 210.60606,390.6951 205.55556,391.9428 200.50505,392.942 195.45454,393.32343 190.40404,394.4275 185.35353,395.11108 180.30302,395.95224 175.25253,396.58047 170.20203,397.39197 165.15152,398.0366 160.10101,398.7232 155.0505,399.36453 150,399.99915 " stroke="black"/>
<text alignment-baseline="start" class="poloto_text" font-size="x-large" text-anchor="middle" x="400" y="37.5">
Bench of rebal:128_bytes with abspiral(num,0.01)
</text>
<text alignment-baseline="start" class="poloto_text" font-size="large" text-anchor="middle" x="400" y="481.25">
Number of Elements
</text>
<text alignment-baseline="start" class="poloto_text" font-size="large" text-anchor="middle" transform="rotate(-90,37.5,250)" x="37.5" y="250">
Time in Seconds
</text>
<path class="poloto_axis_lines" d="M150,100 L150,400 L650,400" stroke="black"/>
</svg>