<svg class="poloto" width="800" height="500" viewBox="0 0 800 500" xmlns="http://www.w3.org/2000/svg"><style>.poloto {
                    font-family: "Arial";
                    stroke-width:2;
                    }
                    .poloto_text{fill: var(--poloto_fg_color,black);  }
                    .poloto_axis_lines{stroke: var(--poloto_fg_color,black);stoke-width:3;fill:none}
                    .poloto_background{fill: var(--poloto_bg_color,aliceblue); }
                    .poloto0stroke{stroke:  var(--poloto_color0,blue); }
                    .poloto1stroke{stroke:  var(--poloto_color1,red); }
                    .poloto2stroke{stroke:  var(--poloto_color2,green); }
                    .poloto3stroke{stroke:  var(--poloto_color3,gold); }
                    .poloto4stroke{stroke:  var(--poloto_color4,aqua); }
                    .poloto5stroke{stroke:  var(--poloto_color5,brown); }
                    .poloto6stroke{stroke:  var(--poloto_color6,lime); }
                    .poloto7stroke{stroke:  var(--poloto_color7,chocolate); }
                    .poloto0fill{fill:var(--poloto_color0,blue);}
                    .poloto1fill{fill:var(--poloto_color1,red);}
                    .poloto2fill{fill:var(--poloto_color2,green);}
                    .poloto3fill{fill:var(--poloto_color3,gold);}
                    .poloto4fill{fill:var(--poloto_color4,aqua);}
                    .poloto5fill{fill:var(--poloto_color5,brown);}
                    .poloto6fill{fill:var(--poloto_color6,lime);}
                    .poloto7fill{fill:var(--poloto_color7,chocolate);}</style><rect class="poloto_background" fill="white" x="0" y="0" width="800" height="500"/><line class="poloto_axis_lines" stroke="black" x1="150" x2="150" y1="400" y2="405"/><text class="poloto_text" alignment-baseline="start" text-anchor="middle" x="150" y="430">0</text><line class="poloto_axis_lines" stroke="black" x1="234.17508417508418" x2="234.17508417508418" y1="400" y2="405"/><text class="poloto_text" alignment-baseline="start" text-anchor="middle" x="234.17508417508418" y="430">5000</text><line class="poloto_axis_lines" stroke="black" x1="318.35016835016836" x2="318.35016835016836" y1="400" y2="405"/><text class="poloto_text" alignment-baseline="start" text-anchor="middle" x="318.35016835016836" y="430">10000</text><line class="poloto_axis_lines" stroke="black" x1="402.52525252525254" x2="402.52525252525254" y1="400" y2="405"/><text class="poloto_text" alignment-baseline="start" text-anchor="middle" x="402.52525252525254" y="430">15000</text><line class="poloto_axis_lines" stroke="black" x1="486.7003367003367" x2="486.7003367003367" y1="400" y2="405"/><text class="poloto_text" alignment-baseline="start" text-anchor="middle" x="486.7003367003367" y="430">20000</text><line class="poloto_axis_lines" stroke="black" x1="570.8754208754208" x2="570.8754208754208" y1="400" y2="405"/><text class="poloto_text" alignment-baseline="start" text-anchor="middle" x="570.8754208754208" y="430">25000</text><line class="poloto_axis_lines" stroke="black" x1="150" x2="144" y1="359.2253339598139" y2="359.2253339598139"/><text class="poloto_text" alignment-baseline="middle" text-anchor="end" x="135" y="359.2253339598139">0.0005</text><line class="poloto_axis_lines" stroke="black" x1="150" x2="144" y1="318.43883983633197" y2="318.43883983633197"/><text class="poloto_text" alignment-baseline="middle" text-anchor="end" x="135" y="318.43883983633197">0.0010</text><line class="poloto_axis_lines" stroke="black" x1="150" x2="144" y1="277.65234571285004" y2="277.65234571285004"/><text class="poloto_text" alignment-baseline="middle" text-anchor="end" x="135" y="277.65234571285004">0.0015</text><line class="poloto_axis_lines" stroke="black" x1="150" x2="144" y1="236.8658515893681" y2="236.8658515893681"/><text class="poloto_text" alignment-baseline="middle" text-anchor="end" x="135" y="236.8658515893681">0.0020</text><line class="poloto_axis_lines" stroke="black" x1="150" x2="144" y1="196.07935746588618" y2="196.07935746588618"/><text class="poloto_text" alignment-baseline="middle" text-anchor="end" x="135" y="196.07935746588618">0.0025</text><line class="poloto_axis_lines" stroke="black" x1="150" x2="144" y1="155.29286334240425" y2="155.29286334240425"/><text class="poloto_text" alignment-baseline="middle" text-anchor="end" x="135" y="155.29286334240425">0.0030</text><line class="poloto_axis_lines" stroke="black" x1="150" x2="144" y1="114.50636921892232" y2="114.50636921892232"/><text class="poloto_text" alignment-baseline="middle" text-anchor="end" x="135" y="114.50636921892232">0.0035</text><text class="poloto_text" alignment-baseline="middle" text-anchor="start" font-size="large" x="675" y="100">default_par</text><line class="poloto0stroke" stroke="black" x1="680" x2="730" y1="81.25" y2="81.25"/><polyline class="poloto0stroke" fill="none" stroke="black" points="650,267.7879689631094 644.9494949494949,277.3040290530355 639.8989898989898,300.71686342071433 634.8484848484848,307.7083210973851 629.7979797979798,309.36270287202177 624.7474747474747,305.31717209290184 619.6969696969697,307.7019584043018 614.6464646464647,310.27844123808217 609.5959595959596,306.38300475733666 604.5454545454545,313.9713319890105 599.4949494949494,308.3821955532933 594.4444444444445,313.57929220749554 589.3939393939394,310.458391250155 584.3434343434344,315.08749518719367 579.2929292929293,313.22608116838626 574.2424242424242,263.00224488863654 569.1919191919192,181.53195703387564 564.1414141414141,310.4311458720805 559.090909090909,313.05779609363276 554.040404040404,318.8469494965315 548.989898989899,320.310368905682 543.939393939394,325.1823972017202 538.8888888888889,322.4305324432089 533.8383838383838,318.0879128408935 528.7878787878788,309.5664721966627 523.7373737373737,322.45883827013057 518.6868686868687,324.33175408028086 513.6363636363636,323.8282855968206 508.5858585858586,323.02780986315315 503.5353535353535,326.3394284670152 498.4848484848485,329.6304091048506 493.4343434343434,316.32512056487667 488.3838383838384,326.4883807435541 483.3333333333333,325.37531731892426 478.2828282828283,331.3466232045785 473.2323232323232,331.27231021228556 468.1818181818182,336.43898014187175 463.1313131313131,337.2934571937587 458.0808080808081,338.6140423004888 453.030303030303,337.9981662392242 447.979797979798,323.1535138380417 442.9292929292929,335.05068945489666 437.8787878787879,338.6986334893009 432.8282828282828,335.9571285002969 427.77777777777777,342.987659638338 422.72727272727275,345.13319237520966 417.67676767676767,352.07228019342585 412.62626262626264,352.1229370191272 407.57575757575756,352.96419924691816 402.52525252525254,346.6196153670458 397.47474747474746,345.02168210027605 392.4242424242424,347.17447483310167 387.37373737373736,348.73749486090173 382.32323232323233,353.3214889354399 377.27272727272725,351.0730110874006 372.22222222222223,348.0403721033432 367.1717171717172,351.8704686205029 362.1212121212121,352.35745936033726 357.07070707070704,352.0577602015179 352.020202020202,354.9544170141676 346.969696969697,350.8420779576734 341.9191919191919,358.67936594947696 336.86868686868684,355.4948380613037 331.8181818181818,361.8855106795356 326.7676767676768,356.3064077213728 321.7171717171717,362.21147634057047 316.66666666666663,358.0213166532887 311.6161616161616,362.7767771491219 306.5656565656566,365.22258005573065 301.5151515151515,364.2322839784125 296.4646464646464,365.9207632621364 291.4141414141414,359.98640994015807 286.3636363636364,368.3805967227236 281.3131313131313,365.23416342006175 276.26262626262627,370.15195416250646 271.2121212121212,370.0645079191057 266.16161616161617,375.35965530518087 261.1111111111111,373.7914961791212 256.06060606060606,373.0020327988671 251.010101010101,374.10922296834315 245.95959595959596,367.3308339369735 240.9090909090909,377.4009377630729 235.85858585858585,379.42615034228027 230.8080808080808,375.2231836958437 225.75757575757575,377.4099107917801 220.7070707070707,378.4424616770101 215.65656565656565,375.15376508284555 210.6060606060606,373.3980696568061 205.55555555555554,369.2078283965361 200.50505050505052,378.16250318134655 195.45454545454544,371.40695458668597 190.40404040404042,373.5588500166409 185.35353535353534,382.91078525421403 180.3030303030303,388.177789959344 175.25252525252526,389.7009207958913 170.2020202020202,391.8776959872616 165.15151515151516,394.5545135965857 160.1010101010101,396.32750249613343 155.05050505050505,398.29594027552093 150,399.9979606752938 "/><text class="poloto_text" alignment-baseline="middle" text-anchor="start" font-size="large" x="675" y="150">default_seq</text><line class="poloto1stroke" stroke="black" x1="680" x2="730" y1="131.25" y2="131.25"/><polyline class="poloto1stroke" fill="none" stroke="black" points="650,143.0118052428591 644.9494949494949,147.138582718273 639.8989898989898,142.8130934434895 634.8484848484848,150.99886124108406 629.7979797979798,149.84737693898992 624.7474747474747,152.6816304156307 619.6969696969697,156.61149069741643 614.6464646464647,158.26489359619413 609.5959595959596,162.12655885980539 604.5454545454545,163.01823319433296 599.4949494949494,166.47880407473392 594.4444444444445,165.9403407793157 589.3939393939394,171.94427586026873 584.3434343434344,172.3571167537866 579.2929292929293,177.71597264368265 574.2424242424242,180.3690525134269 569.1919191919192,180.8925063790077 564.1414141414141,181.11528220991013 559.090909090909,188.39134804257458 554.040404040404,189.58272153592148 548.989898989899,192.1003086721875 543.939393939394,194.55622662933885 538.8888888888889,199.00268864569261 533.8383838383838,199.14168901766544 528.7878787878788,200.80643056180946 523.7373737373737,200.49237455705867 518.6868686868687,206.1482376971619 513.6363636363636,205.71475883761755 508.5858585858586,210.8913806717699 503.5353535353535,214.52031819991254 498.4848484848485,215.06759137806142 493.4343434343434,216.98031480647626 488.3838383838384,221.05684332113003 483.3333333333333,221.02339839594876 478.2828282828283,226.64565346489425 473.2323232323232,229.8701521173085 468.1818181818182,230.64860314414926 463.1313131313131,234.4096073402638 458.0808080808081,232.68866200721757 453.030303030303,237.70156685395824 447.979797979798,242.59545671084658 442.9292929292929,244.60827019584042 437.8787878787879,245.68617566253582 432.8282828282828,247.4165018892304 427.77777777777777,252.56644935622597 422.72727272727275,268.2640289225187 417.67676767676767,269.18221447822657 412.62626262626264,273.45043951526065 407.57575757575756,275.52459588741624 402.52525252525254,275.90643904540025 397.47474747474746,279.4839040179591 392.4242424242424,280.54541331401686 387.37373737373736,284.6175368873053 382.32323232323233,286.49787583938604 377.27272727272725,288.46354013717314 372.22222222222223,289.87067418443326 367.1717171717172,292.698972832932 362.1212121212121,294.4961889099891 357.07070707070704,296.5346978862807 352.020202020202,300.0084020177894 346.969696969697,302.3201805047084 341.9191919191919,302.8420844835125 336.86868686868684,305.05173358914624 331.8181818181818,309.9687901746967 326.7676767676768,310.8250618323251 321.7171717171717,314.59397860829955 316.66666666666663,315.7156071966953 311.6161616161616,319.2646847693442 306.5656565656566,320.85078995281816 301.5151515151515,324.17121843941084 296.4646464646464,327.2715630037132 291.4141414141414,328.7650012725386 286.3636363636364,338.39852646554033 281.3131313131313,340.4358934199965 276.26262626262627,341.05348251401426 271.2121212121212,345.0225794031468 266.16161616161617,346.5292324960682 261.1111111111111,350.0090546016954 256.06060606060606,351.81483584251845 251.010101010101,353.4735409855322 245.95959595959596,353.8823032296377 240.9090909090909,357.4254259741446 235.85858585858585,359.6888316790331 230.8080808080808,362.6184439789346 225.75757575757575,365.04972689363535 220.7070707070707,366.09916338743255 215.65656565656565,371.95716439241176 210.6060606060606,373.98139809576014 205.55555555555554,375.9220194861554 200.50505050505052,377.4700300841181 195.45454545454544,378.7812342971998 190.40404040404042,381.9678830830674 185.35353535353534,384.19107330475015 180.3030303030303,387.72416257170266 175.25252525252526,389.7585928985819 170.2020202020202,391.4009834439463 165.15151515151516,394.1590477495644 160.1010101010101,396.14893922486084 155.05050505050505,398.1377702513101 150,400 "/><text class="poloto_text" alignment-baseline="middle" text-anchor="start" font-size="large" x="675" y="200">direct_par</text><line class="poloto2stroke" stroke="black" x1="680" x2="730" y1="181.25" y2="181.25"/><polyline class="poloto2stroke" fill="none" stroke="black" points="650,250.7685806952629 644.9494949494949,273.1428277765814 639.8989898989898,287.1833336596253 634.8484848484848,287.24451340081055 629.7979797979798,291.54887527163805 624.7474747474747,292.8653817289558 619.6969696969697,290.4090559068632 614.6464646464647,296.95414619184663 609.5959595959596,292.23180432924164 604.5454545454545,296.6597492772633 599.4949494949494,300.57305024243493 594.4444444444445,285.1744356780673 589.3939393939394,281.72495872406796 584.3434343434344,302.1140455634083 579.2929292929293,304.6238832657909 574.2424242424242,274.78986798227584 569.1919191919192,305.65920763262136 564.1414141414141,294.2010578385116 559.090909090909,311.16212141976155 554.040404040404,306.34229983620145 548.989898989899,295.73683248823716 543.939393939394,310.9829871375712 538.8888888888889,312.75589446413073 533.8383838383838,306.0019773292351 528.7878787878788,298.8886496081234 523.7373737373737,310.0789952818184 518.6868686868687,303.81239517871006 513.6363636363636,319.82639636641284 508.5858585858586,317.0686583527477 503.5353535353535,317.8024889550174 498.4848484848485,319.69359554154676 493.4343434343434,307.6212827189256 488.3838383838384,321.4307738992541 483.3333333333333,317.9972036779629 478.2828282828283,309.7887585896357 473.2323232323232,321.876651853012 468.1818181818182,320.0330207456424 463.1313131313131,325.38331147177246 458.0808080808081,327.3918015883892 453.030303030303,323.6587769272434 447.979797979798,329.75333959813884 442.9292929292929,328.20679731396467 437.8787878787879,325.91484106318967 432.8282828282828,329.5950064279515 427.77777777777777,332.51336165547485 422.72727272727275,338.16220951858884 417.67676767676767,336.1691366967508 412.62626262626264,344.6586007295888 407.57575757575756,347.05203377774296 402.52525252525254,339.6306864530107 397.47474747474746,335.7673081566462 392.4242424242424,334.07801314303987 387.37373737373736,340.5085749525245 382.32323232323233,343.97273504440835 377.27272727272725,345.38770009854017 372.22222222222223,344.01792647989714 367.1717171717172,344.4421875917696 362.1212121212121,348.0412694062139 357.07070707070704,349.77363495761466 352.020202020202,348.12553430307304 346.969696969697,348.951297663097 341.9191919191919,349.7497340720583 336.86868686868684,350.2365616659162 331.8181818181818,356.6257659703596 326.7676767676768,349.3309383503984 321.7171717171717,350.7326885804342 316.66666666666663,350.86035030704073 311.6161616161616,358.9572035474461 306.5656565656566,361.3539810881184 301.5151515151515,357.86853044630215 296.4646464646464,364.22265836579936 291.4141414141414,359.2229683431547 286.3636363636364,363.3948556810692 281.3131313131313,361.64503351018357 276.26262626262627,370.91303014285063 271.2121212121212,369.5701756103291 266.16161616161617,362.9745916456208 261.1111111111111,363.19973309318243 256.06060606060606,372.49946161827756 251.010101010101,373.7149807161456 245.95959595959596,373.9349014924594 240.9090909090909,377.49727546219253 235.85858585858585,378.9449512846114 230.8080808080808,376.50648994694495 225.75757575757575,374.95750047312333 220.7070707070707,377.0971599548412 215.65656565656565,376.1092294941822 210.6060606060606,374.46463647813516 205.55555555555554,375.37996697925433 200.50505050505052,373.7255852046177 195.45454545454544,374.5312816095329 190.40404040404042,376.8354738085449 185.35353535353534,374.00138347788067 180.3030303030303,387.0542851922186 175.25252525252526,388.74635368742537 170.2020202020202,391.1026710259272 165.15151515151516,394.0973785704497 160.1010101010101,395.9720074133532 155.05050505050505,398.1673812460437 150,399.99086382531635 "/><text class="poloto_text" alignment-baseline="middle" text-anchor="start" font-size="large" x="675" y="250">direct_seq</text><line class="poloto3stroke" stroke="black" x1="680" x2="730" y1="231.25" y2="231.25"/><polyline class="poloto3stroke" fill="none" stroke="black" points="650,100 644.9494949494949,106.61083811351045 639.8989898989898,102.2725418795722 634.8484848484848,111.2984298831222 629.7979797979798,111.04889811207477 624.7474747474747,112.22762779224342 619.6969696969697,118.87256341484107 614.6464646464647,120.53583664519664 609.5959595959596,125.06093502222052 604.5454545454545,125.46676063874912 599.4949494949494,128.94788791218832 594.4444444444445,128.97072834889747 589.3939393939394,137.03266835033315 584.3434343434344,135.95639434340268 579.2929292929293,141.95445616920193 574.2424242424242,146.26028635381795 569.1919191919192,141.76063874912717 564.1414141414141,146.41266469586327 559.090909090909,156.0907287404478 554.040404040404,154.94014174122438 548.989898989899,159.43897361603268 543.939393939394,161.9103088679627 538.8888888888889,167.02077500864672 533.8383838383838,166.9622056030854 528.7878787878788,168.7456358451288 523.7373737373737,169.82566220951858 518.6868686868687,176.19512585080625 513.6363636363636,176.33314734692013 508.5858585858586,181.34360500401337 503.5353535353535,185.3923987026632 498.4848484848485,187.23896643760972 493.4343434343434,188.88837225996332 488.3838383838384,195.82362614773194 483.3333333333333,194.8880655455275 478.2828282828283,201.2509217747672 473.2323232323232,205.37370217375698 468.1818181818182,204.42011394114996 463.1313131313131,208.59485633365313 458.0808080808081,207.72700131169364 453.030303030303,213.66469912619016 447.979797979798,218.11099799656742 442.9292929292929,221.50810509211223 437.8787878787879,223.4308619980814 432.8282828282828,225.09413522843698 427.77777777777777,229.6707877340329 422.72727272727275,247.9940386460189 417.67676767676767,249.30565072404184 412.62626262626264,253.91256680827738 407.57575757575756,256.1019042398376 402.52525252525254,257.9631551126686 397.47474747474746,260.8456997983516 392.4242424242424,262.1347977316184 387.37373737373736,268.01849422789536 382.32323232323233,269.88300802025617 377.27272727272725,272.8262430091949 372.22222222222223,273.12015048584874 367.1717171717172,277.49866220299276 362.1212121212121,279.52860601551845 357.07070707070704,282.01209564269726 352.020202020202,285.8514914805171 346.969696969697,288.58826523620274 341.9191919191919,289.0816186691204 336.86868686868684,292.9026605845847 331.8181818181818,298.10253072038734 326.7676767676768,297.5785874168771 321.7171717171717,302.79705619400016 316.66666666666663,305.42346169658765 311.6161616161616,308.3790142067516 306.5656565656566,311.1743573679986 301.5151515151515,312.97532580251504 296.4646464646464,317.41934062922144 291.4141414141414,319.1712021248132 286.3636363636364,330.16348858304457 281.3131313131313,332.46335741367943 276.26262626262627,334.43212148501993 271.2121212121212,337.87009664767646 266.16161616161617,339.5955284950762 261.1111111111111,343.9140024928705 256.06060606060606,345.41682165534434 251.010101010101,348.15759248745405 245.95959595959596,349.26168288337675 240.9090909090909,352.2638135698297 235.85858585858585,354.7390643251956 230.8080808080808,357.932891534029 225.75757575757575,360.510597962633 220.7070707070707,362.3698095107578 215.65656565656565,368.70419676709935 210.6060606060606,371.0504806280467 205.55555555555554,373.3927674125701 200.50505050505052,375.29659938526595 195.45454545454544,377.30239759327054 190.40404040404042,380.0966803056703 185.35353535353534,382.58147510066107 180.3030303030303,386.34745524905867 175.25252525252526,388.6001748924868 170.2020202020202,390.5776672735697 165.15151515151516,393.58681323701194 160.1010101010101,395.8055169443411 155.05050505050505,397.9530074329307 150,399.9750386655964 "/><text class="poloto_text" alignment-baseline="middle" text-anchor="start" font-size="large" x="675" y="300">indirect_par</text><line class="poloto4stroke" stroke="black" x1="680" x2="730" y1="281.25" y2="281.25"/><polyline class="poloto4stroke" fill="none" stroke="black" points="650,249.87380658718195 644.9494949494949,268.33507899528183 639.8989898989898,286.29255662796845 634.8484848484848,292.03056376723634 629.7979797979798,290.3238937071334 624.7474747474747,284.41115722704046 619.6969696969697,289.2997448396928 614.6464646464647,281.917552549319 609.5959595959596,289.6574423931557 604.5454545454545,296.00757323622884 599.4949494949494,300.9275664493562 594.4444444444445,290.64259937221425 589.3939393939394,300.9329502665805 584.3434343434344,291.8700281263663 579.2929292929293,290.885931596155 574.2424242424242,302.30533422084744 569.1919191919192,304.22825427279315 564.1414141414141,294.9895423429067 559.090909090909,306.4112290112701 554.040404040404,307.49753649575496 548.989898989899,303.3292383693233 543.939393939394,312.56313749290314 538.8888888888889,308.3895371222355 533.8383838383838,316.7904128898373 528.7878787878788,310.84765755006947 523.7373737373737,306.62437922955945 518.6868686868687,306.2896036857939 513.6363636363636,315.2426470108394 508.5858585858586,317.5890124447751 503.5353535353535,315.8128421986857 498.4848484848485,322.39088797092086 493.4343434343434,319.3008216031376 488.3838383838384,322.0216886261151 483.3333333333333,320.78071875591405 478.2828282828283,305.3784334070753 473.2323232323232,306.3234564759164 468.1818181818182,319.74792315171925 463.1313131313131,323.6794148932699 458.0808080808081,311.927928633424 453.030303030303,325.0294478487572 447.979797979798,325.22359156078494 442.9292929292929,312.7391720015401 437.8787878787879,327.59606035095965 432.8282828282828,334.38595117367214 427.77777777777777,334.141803219849 422.72727272727275,337.2945176426059 417.67676767676767,335.87180315459057 412.62626262626264,343.5363195572871 407.57575757575756,342.52734326566036 402.52525252525254,332.17980970653304 397.47474747474746,329.4866774995595 392.4242424242424,342.819537709561 387.37373737373736,339.56249143483626 382.32323232323233,340.59112681663044 377.27272727272725,347.57271416172335 372.22222222222223,338.607842753382 367.1717171717172,345.80176458688175 362.1212121212121,351.3505223934167 357.07070707070704,340.94735605630495 352.020202020202,353.03263898405737 346.969696969697,332.56671038978834 341.9191919191919,340.1342365094592 336.86868686868684,354.29547041510864 331.8181818181818,350.3925292194444 326.7676767676768,357.2185568759503 321.7171717171717,357.5802515058374 316.66666666666663,338.93478729027584 311.6161616161616,355.0501021293813 306.5656565656566,359.754171642619 301.5151515151515,359.95573849657717 296.4646464646464,365.11971651755124 291.4141414141414,349.7778767530035 286.3636363636364,364.25023003582686 281.3131313131313,373.1973185327303 276.26262626262627,369.8890444213865 271.2121212121212,370.60182919268846 266.16161616161617,372.3112727343918 261.1111111111111,370.86473893380844 256.06060606060606,373.40198516024196 251.010101010101,374.20229774793296 245.95959595959596,378.9108537755242 240.9090909090909,379.8960107545828 235.85858585858585,382.7582437661922 230.8080808080808,378.63097685284885 225.75757575757575,375.8080620215744 220.7070707070707,381.3285140011877 215.65656565656565,378.47443828840295 210.6060606060606,369.27390251701615 205.55555555555554,378.0172216892787 200.50505050505052,376.62827841839766 195.45454545454544,373.70013443228464 190.40404040404042,374.1031049942246 185.35353535353534,382.33129074570763 180.3030303030303,389.47414788856474 175.25252525252526,391.06392385650986 170.2020202020202,392.86342397723786 165.15151515151516,395.2343428806359 160.1010101010101,396.82444514053395 155.05050505050505,398.49677297258495 150,399.9952687666817 "/><text class="poloto_text" alignment-baseline="middle" text-anchor="start" font-size="large" x="675" y="350">indirect_seq</text><line class="poloto5stroke" stroke="black" x1="680" x2="730" y1="331.25" y2="331.25"/><polyline class="poloto5stroke" fill="none" stroke="black" points="650,131.97049341869132 644.9494949494949,136.70286875885068 639.8989898989898,131.5056905316601 634.8484848484848,142.08758328602102 629.7979797979798,140.104788660702 624.7474747474747,129.2499526876668 619.6969696969697,132.1429387158454 614.6464646464647,134.4125439678407 609.5959595959596,139.67481743965232 604.5454545454545,138.96880322637486 599.4949494949494,156.70848098044206 594.4444444444445,156.6388992214674 589.3939393939394,163.6670647428493 584.3434343434344,161.71747032374685 579.2929292929293,158.38562161879963 574.2424242424242,160.4572492283195 569.1919191919192,161.96838883559454 564.1414141414141,158.80188857782392 559.090909090909,168.1766642521062 554.040404040404,183.5076548092171 548.989898989899,185.60669094278796 543.939393939394,188.50236887957868 538.8888888888889,194.3900624522798 533.8383838383838,193.43166141336621 528.7878787878788,196.69768071679817 523.7373737373737,184.95076254429412 518.6868686868687,191.13807370282635 513.6363636363636,201.46554030684496 508.5858585858586,207.88606863877524 503.5353535353535,210.91258964871406 498.4848484848485,211.41369251551518 493.4343434343434,214.2473749812382 488.3838383838384,219.4548314049479 483.3333333333333,218.81252569549127 478.2828282828283,216.2667143052918 473.2323232323232,221.22806502346037 468.1818181818182,219.2457598360709 463.1313131313131,225.64361087726857 458.0808080808081,222.61733458629445 453.030303030303,230.4489124689207 447.979797979798,234.5347403042346 442.9292929292929,238.57937378048382 437.8787878787879,240.5182821381259 432.8282828282828,247.8325241292899 427.77777777777777,252.7858806946103 422.72727272727275,266.5644557123932 417.67676767676767,262.08993258808255 412.62626262626264,266.140928757415 407.57575757575756,267.8572244301311 402.52525252525254,270.8283573810503 397.47474747474746,273.88155275814586 392.4242424242424,273.7383105907842 387.37373737373736,279.3445773540333 382.32323232323233,281.2896036857939 377.27272727272725,284.60081442471466 372.22222222222223,286.07443045739603 367.1717171717172,290.335313925488 362.1212121212121,290.77629749995106 357.07070707070704,295.680628699335 352.020202020202,297.99248875924224 346.969696969697,300.913617468366 341.9191919191919,302.17873294308816 336.86868686868684,308.1229565966444 331.8181818181818,309.6183526171878 326.7676767676768,310.1117876230936 321.7171717171717,316.5581745922982 316.66666666666663,317.3639525702017 311.6161616161616,322.74246755026525 306.5656565656566,325.2953757904423 301.5151515151515,325.7533265464607 296.4646464646464,328.7210334318735 291.4141414141414,331.25558774969494 286.3636363636364,339.4541625064443 281.3131313131313,341.67099003504376 276.26262626262627,343.5211469814731 271.2121212121212,347.5360063170122 266.16161616161617,349.4633313103232 261.1111111111111,353.28404693383453 256.06060606060606,353.1536117256276 251.010101010101,356.68376436500324 245.95959595959596,357.18217532319215 240.9090909090909,360.6898138178116 235.85858585858585,362.86479440344044 230.8080808080808,365.87149317723527 225.75757575757575,368.2393123070799 220.7070707070707,369.41184244014175 215.65656565656565,374.7180021796303 210.6060606060606,376.2372175127417 205.55555555555554,378.2368977466278 200.50505050505052,379.9368788216945 195.45454545454544,381.81077350770374 190.40404040404042,383.9457017561033 185.35353535353534,386.0059091472686 180.3030303030303,389.05217082036324 175.25252525252526,390.8475922916789 170.2020202020202,392.4167302935975 165.15151515151516,394.86424623295943 160.1010101010101,396.6825081409842 155.05050505050505,398.3538570971763 150,399.9970633724231 "/><text class="poloto_text" alignment-baseline="start" text-anchor="middle" font-size="x-large" x="400" y="37.5">Bench of rebal:16_bytes with abspiral(num,1.5)</text><text class="poloto_text" alignment-baseline="start" text-anchor="middle" font-size="x-large" x="400" y="481.25">Number of Elements</text><text class="poloto_text" alignment-baseline="start" text-anchor="middle" font-size="x-large" transform="rotate(-90,37.5,250)" x="37.5" y="250">Time in Seconds</text><path stroke="black" fill="none" class="poloto_axis_lines" d=" M 150 100 L 150 400 L 650 400"/></svg>