<svg class="poloto" height="500" viewBox="0 0 800 500" width="800" xmlns="http://www.w3.org/2000/svg">
<rect class="poloto_background" fill="white" height="500" width="800" x="0" y="0"/>
<style>
.poloto {
font-family: "Arial";
stroke-width:2;
}
.poloto_text{fill: var(--poloto_fg_color,black);  }
.poloto_axis_lines{stroke: var(--poloto_fg_color,black);stoke-width:3;fill:none}
.poloto_background{fill: var(--poloto_bg_color,aliceblue); }
.poloto0stroke{stroke:  var(--poloto_color0,blue); }
.poloto1stroke{stroke:  var(--poloto_color1,red); }
.poloto2stroke{stroke:  var(--poloto_color2,green); }
.poloto3stroke{stroke:  var(--poloto_color3,gold); }
.poloto4stroke{stroke:  var(--poloto_color4,aqua); }
.poloto5stroke{stroke:  var(--poloto_color5,brown); }
.poloto6stroke{stroke:  var(--poloto_color6,lime); }
.poloto7stroke{stroke:  var(--poloto_color7,chocolate); }
.poloto0fill{fill:var(--poloto_color0,blue);}
.poloto1fill{fill:var(--poloto_color1,red);}
.poloto2fill{fill:var(--poloto_color2,green);}
.poloto3fill{fill:var(--poloto_color3,gold);}
.poloto4fill{fill:var(--poloto_color4,aqua);}
.poloto5fill{fill:var(--poloto_color5,brown);}
.poloto6fill{fill:var(--poloto_color6,lime);}
.poloto7fill{fill:var(--poloto_color7,chocolate);}
</style>
<line class="poloto_axis_lines" stroke="black" x1="150" x2="150" y1="400" y2="405"/>
<text alignment-baseline="start" class="poloto_text" text-anchor="middle" x="150" y="440">
0
</text>
<line class="poloto_axis_lines" stroke="black" x1="234.17508" x2="234.17508" y1="400" y2="405"/>
<text alignment-baseline="start" class="poloto_text" text-anchor="middle" x="234.17508" y="440">
5000
</text>
<line class="poloto_axis_lines" stroke="black" x1="318.35016" x2="318.35016" y1="400" y2="405"/>
<text alignment-baseline="start" class="poloto_text" text-anchor="middle" x="318.35016" y="440">
10000
</text>
<line class="poloto_axis_lines" stroke="black" x1="402.52527" x2="402.52527" y1="400" y2="405"/>
<text alignment-baseline="start" class="poloto_text" text-anchor="middle" x="402.52527" y="440">
15000
</text>
<line class="poloto_axis_lines" stroke="black" x1="486.70035" x2="486.70035" y1="400" y2="405"/>
<text alignment-baseline="start" class="poloto_text" text-anchor="middle" x="486.70035" y="440">
20000
</text>
<line class="poloto_axis_lines" stroke="black" x1="570.8754" x2="570.8754" y1="400" y2="405"/>
<text alignment-baseline="start" class="poloto_text" text-anchor="middle" x="570.8754" y="440">
25000
</text>
<line class="poloto_axis_lines" stroke="black" x1="150" x2="144" y1="346.99722" y2="346.99722"/>
<text alignment-baseline="middle" class="poloto_text" text-anchor="end" x="120" y="346.99722">
0.002
</text>
<line class="poloto_axis_lines" stroke="black" x1="150" x2="144" y1="293.9914" y2="293.9914"/>
<text alignment-baseline="middle" class="poloto_text" text-anchor="end" x="120" y="293.9914">
0.004
</text>
<line class="poloto_axis_lines" stroke="black" x1="150" x2="144" y1="240.98553" y2="240.98553"/>
<text alignment-baseline="middle" class="poloto_text" text-anchor="end" x="120" y="240.98553">
0.006
</text>
<line class="poloto_axis_lines" stroke="black" x1="150" x2="144" y1="187.97974" y2="187.97974"/>
<text alignment-baseline="middle" class="poloto_text" text-anchor="end" x="120" y="187.97974">
0.008
</text>
<line class="poloto_axis_lines" stroke="black" x1="150" x2="144" y1="134.9739" y2="134.9739"/>
<text alignment-baseline="middle" class="poloto_text" text-anchor="end" x="120" y="134.9739">
0.010
</text>
<text alignment-baseline="middle" class="poloto_text" font-size="large" text-anchor="start" x="675" y="100">
default_par
</text>
<line class="poloto0stroke" x1="680" x2="730" y1="81.25" y2="81.25"/>
<polyline class="poloto0stroke" fill="none" points="650,315.71835 644.94946,317.1786 639.899,317.89243 634.8485,318.65192 629.798,318.4933 624.7475,314.30887 619.697,320.1982 614.6465,321.28378 609.59595,318.80963 604.5455,319.44647 599.495,321.48843 594.44446,322.59436 589.3939,324.85645 584.34344,327.12946 579.29297,325.7779 574.24243,327.81573 569.1919,326.94214 564.1414,327.06012 559.09094,327.09552 554.0404,329.75378 548.98987,329.2293 543.9394,328.07208 538.8889,331.2825 533.8384,331.48676 528.78784,333.89572 523.73737,332.21985 518.6869,334.79138 513.63635,305.3331 508.58588,336.96368 503.53537,333.13385 498.48486,334.80032 493.43436,335.99286 488.38385,336.75995 483.33334,338.9295 478.28284,338.97696 473.23233,338.3093 468.18182,339.84616 463.13132,339.06152 458.0808,341.99286 453.0303,340.73248 447.9798,341.1691 442.9293,344.8518 437.87878,344.3511 432.82828,346.28024 427.77777,342.84033 422.72726,347.91513 417.67676,344.26093 412.62628,340.16446 407.57578,347.76068 402.52527,347.93732 397.47473,349.0349 392.42426,352.91852 387.37375,346.6366 382.32324,354.15903 377.27274,350.20718 372.22223,353.00366 367.17172,346.807 362.12122,357.96298 357.0707,357.4861 352.0202,357.3999 346.9697,356.82904 341.9192,357.61053 336.86868,356.04285 331.81818,358.9867 326.7677,358.71494 321.71716,359.2398 316.6667,362.1247 311.61615,360.85477 306.56567,360.93994 301.51514,363.41864 296.46466,366.3468 291.41412,366.97586 286.36365,370.6659 281.31314,370.24353 276.26263,373.44775 271.21213,371.08386 266.16162,373.6067 261.1111,375.14246 256.0606,371.22055 251.0101,373.75665 245.9596,375.06335 240.90909,379.52194 235.85858,379.2843 230.80807,380.7127 225.75757,382.49213 220.70706,379.0056 215.65657,376.13373 210.60606,375.6849 205.55556,378.56332 200.50505,378.60095 195.45454,380.6827 190.40404,383.11105 185.35353,384.72263 180.30302,385.28314 175.25253,387.64404 170.20203,390.2524 165.15152,392.88947 160.10101,395.07047 155.0505,397.87195 150,399.99982 " stroke="black"/>
<text alignment-baseline="middle" class="poloto_text" font-size="large" text-anchor="start" x="675" y="150">
default_seq
</text>
<line class="poloto1stroke" x1="680" x2="730" y1="131.25" y2="131.25"/>
<polyline class="poloto1stroke" fill="none" points="650,132.49628 644.94946,136.89612 639.899,138.50473 634.8485,140.62006 629.798,144.73988 624.7475,147.2985 619.697,150.87918 614.6465,150.11186 609.59595,154.87825 604.5455,158.75594 599.495,161.70024 594.44446,162.29274 589.3939,166.86346 584.34344,169.53458 579.29297,172.75491 574.24243,174.9005 569.1919,177.46733 564.1414,179.8652 559.09094,183.45413 554.0404,185.82689 548.98987,187.75179 543.9394,189.97388 538.8889,192.57527 533.8384,195.23975 528.78784,198.7635 523.73737,200.56721 518.6869,203.6529 513.63635,205.91167 508.58588,207.55923 503.53537,210.97888 498.48486,213.16393 493.43436,215.0339 488.38385,216.77666 483.33334,218.85579 478.28284,222.0336 473.23233,225.34691 468.18182,227.45593 463.13132,231.1201 458.0808,232.83589 453.0303,234.80386 447.9798,237.70403 442.9293,240.00122 437.87878,243.41106 432.82828,244.25246 427.77777,245.968 422.72726,254.41953 417.67676,256.89935 412.62628,259.82874 407.57578,263.0307 402.52527,265.3323 397.47473,268.06195 392.42426,271.09738 387.37375,274.0102 382.32324,276.6714 377.27274,279.22076 372.22223,282.30637 367.17172,284.6267 362.12122,286.7883 357.0707,289.04144 352.0202,291.505 346.9697,294.63898 341.9192,297.18207 336.86868,299.41888 331.81818,301.98044 326.7677,304.4643 321.71716,307.03778 316.6667,310.33704 311.61615,313.19943 306.56567,315.92908 301.51514,318.60217 296.46466,321.30658 291.41412,324.26764 286.36365,329.68015 281.31314,331.9829 276.26263,335.17926 271.21213,337.38132 266.16162,339.69263 261.1111,343.097 256.0606,345.11948 251.0101,347.86682 245.9596,350.59372 240.90909,353.25635 235.85858,355.29718 230.80807,358.32294 225.75757,361.19717 220.70706,362.68723 215.65657,366.92963 210.60606,369.0799 205.55556,371.72302 200.50505,374.4208 195.45454,377.04938 190.40404,379.39502 185.35353,382.17612 180.30302,385.31943 175.25253,387.648 170.20203,390.22922 165.15152,392.91827 160.10101,395.04895 155.0505,397.82507 150,400 " stroke="black"/>
<text alignment-baseline="middle" class="poloto_text" font-size="large" text-anchor="start" x="675" y="200">
direct_par
</text>
<line class="poloto2stroke" x1="680" x2="730" y1="181.25" y2="181.25"/>
<polyline class="poloto2stroke" fill="none" points="650,315.16394 644.94946,311.03857 639.899,318.18057 634.8485,313.33798 629.798,316.6202 624.7475,316.35004 619.697,320.31656 614.6465,322.517 609.59595,323.3405 604.5455,320.08218 599.495,323.04608 594.44446,319.8095 589.3939,322.78088 584.34344,325.5759 579.29297,324.6736 574.24243,329.1579 569.1919,329.1104 564.1414,328.78772 559.09094,306.42203 554.0404,326.42508 548.98987,329.62738 543.9394,328.73145 538.8889,317.9674 533.8384,332.13376 528.78784,329.5934 523.73737,332.95343 518.6869,333.66348 513.63635,334.10046 508.58588,312.53693 503.53537,336.02643 498.48486,334.21686 493.43436,339.19897 488.38385,336.88113 483.33334,337.08936 478.28284,337.68524 473.23233,336.85507 468.18182,337.00555 463.13132,340.1724 458.0808,340.4771 453.0303,342.74136 447.9798,341.6859 442.9293,343.2001 437.87878,342.69662 432.82828,344.596 427.77777,341.9416 422.72726,344.06616 417.67676,348.77176 412.62628,346.76764 407.57578,346.64688 402.52527,348.76016 397.47473,347.8785 392.42426,352.45053 387.37375,351.0865 382.32324,350.67303 377.27274,355.95398 372.22223,353.0651 367.17172,354.65833 362.12122,347.85083 357.0707,357.63437 352.0202,358.47433 346.9697,359.37524 341.9192,357.00552 336.86868,362.1212 331.81818,358.3534 326.7677,360.10852 321.71716,360.1214 316.6667,363.73004 311.61615,358.63843 306.56567,363.4467 301.51514,363.71423 296.46466,364.48706 291.41412,365.88553 286.36365,369.06152 281.31314,370.05014 276.26263,372.48874 271.21213,373.3306 266.16162,372.68488 261.1111,373.4552 256.0606,362.77704 251.0101,374.09485 245.9596,373.23108 240.90909,376.56934 235.85858,372.53973 230.80807,382.30997 225.75757,380.2123 220.70706,379.7142 215.65657,376.5116 210.60606,377.49738 205.55556,376.99173 200.50505,379.10574 195.45454,380.10922 190.40404,383.32205 185.35353,384.78827 180.30302,385.42545 175.25253,387.7548 170.20203,390.30725 165.15152,393.01373 160.10101,395.04745 155.0505,397.898 150,399.99905 " stroke="black"/>
<text alignment-baseline="middle" class="poloto_text" font-size="large" text-anchor="start" x="675" y="250">
direct_seq
</text>
<line class="poloto3stroke" x1="680" x2="730" y1="231.25" y2="231.25"/>
<polyline class="poloto3stroke" fill="none" points="650,135.07864 644.94946,138.0307 639.899,139.34708 634.8485,142.11935 629.798,145.79361 624.7475,148.23877 619.697,151.70943 614.6465,153.75987 609.59595,155.02596 604.5455,159.28307 599.495,162.03162 594.44446,163.07306 589.3939,167.00714 584.34344,170.24835 579.29297,173.2932 574.24243,175.36682 569.1919,177.50114 564.1414,180.30463 559.09094,183.08006 554.0404,185.64973 548.98987,187.76276 543.9394,189.91095 538.8889,192.07068 533.8384,194.63882 528.78784,198.42142 523.73737,200.45622 518.6869,202.89992 513.63635,205.52052 508.58588,207.56494 503.53537,210.5463 498.48486,212.74994 493.43436,213.7255 488.38385,216.51141 483.33334,219.06749 478.28284,221.58067 473.23233,224.97513 468.18182,226.4679 463.13132,229.9531 458.0808,231.75012 453.0303,233.8946 447.9798,237.08633 442.9293,239.15276 437.87878,242.367 432.82828,243.29797 427.77777,245.06926 422.72726,254.51854 417.67676,257.4787 412.62628,259.91013 407.57578,262.77905 402.52527,265.66504 397.47473,268.46835 392.42426,271.70093 387.37375,272.53217 382.32324,276.7719 377.27274,279.32254 372.22223,282.07553 367.17172,284.96582 362.12122,286.40225 357.0707,288.73965 352.0202,291.36414 346.9697,294.01572 341.9192,296.71063 336.86868,299.36145 331.81818,301.6389 326.7677,303.80862 321.71716,306.4207 316.6667,309.59207 311.61615,312.50165 306.56567,315.01782 301.51514,318.21323 296.46466,320.80637 291.41412,323.47324 286.36365,330.01013 281.31314,332.74146 276.26263,335.65424 271.21213,337.55048 266.16162,340.25955 261.1111,342.99408 256.0606,345.70963 251.0101,348.06787 245.9596,350.78928 240.90909,353.15805 235.85858,355.40738 230.80807,358.54193 225.75757,360.96274 220.70706,362.9764 215.65657,366.6843 210.60606,369.15594 205.55556,371.93292 200.50505,374.3797 195.45454,376.94876 190.40404,379.33307 185.35353,381.9412 180.30302,385.14325 175.25253,387.7432 170.20203,390.1022 165.15152,392.93698 160.10101,395.02115 155.0505,397.8442 150,399.9992 " stroke="black"/>
<text alignment-baseline="middle" class="poloto_text" font-size="large" text-anchor="start" x="675" y="300">
indirect_par
</text>
<line class="poloto4stroke" x1="680" x2="730" y1="281.25" y2="281.25"/>
<polyline class="poloto4stroke" fill="none" points="650,306.61572 644.94946,305.66037 639.899,308.20706 634.8485,308.71268 629.798,309.91574 624.7475,306.83957 619.697,311.47092 614.6465,100 609.59595,312.09875 604.5455,312.42072 599.495,312.5833 594.44446,305.30872 589.3939,310.1962 584.34344,317.59497 579.29297,300.26422 574.24243,320.95218 569.1919,321.3405 564.1414,320.0419 559.09094,320.26172 554.0404,320.06305 548.98987,320.81494 543.9394,322.283 538.8889,324.51904 533.8384,324.12244 528.78784,328.85327 523.73737,325.21445 518.6869,328.468 513.63635,329.41385 508.58588,332.261 503.53537,329.90503 498.48486,332.32516 493.43436,332.789 488.38385,332.3401 483.33334,328.36444 478.28284,333.41516 473.23233,333.2143 468.18182,333.298 463.13132,334.9255 458.0808,336.6535 453.0303,336.84363 447.9798,319.58685 442.9293,339.20758 437.87878,336.06436 432.82828,338.98126 427.77777,339.92316 422.72726,339.12018 417.67676,340.60986 412.62628,344.08395 407.57578,343.47183 402.52527,344.59177 397.47473,346.05304 392.42426,347.0699 387.37375,348.87387 382.32324,327.48953 377.27274,348.1806 372.22223,351.20285 367.17172,335.2971 362.12122,354.0346 357.0707,355.17627 352.0202,356.18073 346.9697,356.43378 341.9192,353.90295 336.86868,352.64792 331.81818,354.2532 326.7677,356.50784 321.71716,359.58908 316.6667,360.67267 311.61615,360.7959 306.56567,361.13486 301.51514,362.46362 296.46466,361.81216 291.41412,363.31302 286.36365,363.8701 281.31314,369.22702 276.26263,367.56345 271.21213,369.4524 266.16162,370.25415 261.1111,369.87195 256.0606,371.32147 251.0101,373.0301 245.9596,374.886 240.90909,376.5218 235.85858,377.1482 230.80807,378.3187 225.75757,378.17667 220.70706,371.16483 215.65657,373.53668 210.60606,374.91803 205.55556,376.6149 200.50505,377.24 195.45454,379.86835 190.40404,382.1268 185.35353,382.71057 180.30302,384.13873 175.25253,386.8755 170.20203,389.72363 165.15152,392.44794 160.10101,394.83194 155.0505,397.7786 150,399.99936 " stroke="black"/>
<text alignment-baseline="middle" class="poloto_text" font-size="large" text-anchor="start" x="675" y="350">
indirect_seq
</text>
<line class="poloto5stroke" x1="680" x2="730" y1="331.25" y2="331.25"/>
<polyline class="poloto5stroke" fill="none" points="650,108.32919 644.94946,112.3418 639.899,114.8056 634.8485,117.73865 629.798,121.71945 624.7475,124.407715 619.697,128.15927 614.6465,131.81363 609.59595,134.67792 604.5455,137.80057 599.495,141.71307 594.44446,142.03363 589.3939,146.61005 584.34344,149.86119 579.29297,153.05138 574.24243,155.6288 569.1919,158.41843 564.1414,161.85896 559.09094,165.04218 554.0404,167.50998 548.98987,170.13889 543.9394,172.66867 538.8889,175.0079 533.8384,178.60829 528.78784,181.947 523.73737,184.60925 518.6869,187.71156 513.63635,190.50244 508.58588,193.14682 503.53537,196.5838 498.48486,198.26346 493.43436,201.12701 488.38385,202.80374 483.33334,206.03014 478.28284,208.58623 473.23233,212.02748 468.18182,214.70795 463.13132,218.14319 458.0808,220.0366 453.0303,222.20776 447.9798,226.26825 442.9293,228.10258 437.87878,232.21506 432.82828,233.93022 427.77777,235.30382 422.72726,243.56125 417.67676,246.31723 412.62628,249.9714 407.57578,253.45378 402.52527,255.98116 397.47473,258.48483 392.42426,262.41925 387.37375,264.8648 382.32324,268.08136 377.27274,271.2373 372.22223,274.18317 367.17172,277.43716 362.12122,279.5605 357.0707,282.05975 352.0202,284.73663 346.9697,287.75018 341.9192,290.24326 336.86868,293.11682 331.81818,295.84802 326.7677,298.59442 321.71716,300.77655 316.6667,304.41104 311.61615,307.46588 306.56567,310.22284 301.51514,313.9978 296.46466,316.83813 291.41412,319.4037 286.36365,323.1814 281.31314,326.594 276.26263,329.331 271.21213,332.14957 266.16162,335.05103 261.1111,335.6018 256.0606,341.26123 251.0101,343.8177 245.9596,347.0108 240.90909,349.7941 235.85858,352.1864 230.80807,355.58994 225.75757,358.5024 220.70706,360.40613 215.65657,364.7793 210.60606,366.8643 205.55556,369.87964 200.50505,372.74536 195.45454,375.5532 190.40404,378.33307 185.35353,380.8066 180.30302,384.1286 175.25253,386.81763 170.20203,389.66522 165.15152,392.5408 160.10101,394.78162 155.0505,397.73145 150,399.99957 " stroke="black"/>
<text alignment-baseline="start" class="poloto_text" font-size="x-large" text-anchor="middle" x="400" y="37.5">
Bench of query:8_bytes with abspiral(num,0.1)
</text>
<text alignment-baseline="start" class="poloto_text" font-size="large" text-anchor="middle" x="400" y="481.25">
Number of Elements
</text>
<text alignment-baseline="start" class="poloto_text" font-size="large" text-anchor="middle" transform="rotate(-90,37.5,250)" x="37.5" y="250">
Time in Seconds
</text>
<path class="poloto_axis_lines" d="M150,100 L150,400 L650,400" stroke="black"/>
</svg>