<svg class="poloto" width="800" height="500" viewBox="0 0 800 500" xmlns="http://www.w3.org/2000/svg" ><style><style>.poloto {
            font-family: "Arial";
            stroke-width:2;
            }
            .poloto_text{fill: var(--poloto_fg_color,black);  }
            .poloto_axis_lines{stroke: var(--poloto_fg_color,black);stoke-width:3;fill:none}
            .poloto_background{fill: var(--poloto_bg_color,aliceblue); }
            .poloto0stroke{stroke:  var(--poloto_color0,blue); }
            .poloto1stroke{stroke:  var(--poloto_color1,red); }
            .poloto2stroke{stroke:  var(--poloto_color2,green); }
            .poloto3stroke{stroke:  var(--poloto_color3,gold); }
            .poloto4stroke{stroke:  var(--poloto_color4,aqua); }
            .poloto5stroke{stroke:  var(--poloto_color5,brown); }
            .poloto6stroke{stroke:  var(--poloto_color6,lime); }
            .poloto7stroke{stroke:  var(--poloto_color7,chocolate); }
            .poloto0fill{fill:var(--poloto_color0,blue);}
            .poloto1fill{fill:var(--poloto_color1,red);}
            .poloto2fill{fill:var(--poloto_color2,green);}
            .poloto3fill{fill:var(--poloto_color3,gold);}
            .poloto4fill{fill:var(--poloto_color4,aqua);}
            .poloto5fill{fill:var(--poloto_color5,brown);}
            .poloto6fill{fill:var(--poloto_color6,lime);}
            .poloto7fill{fill:var(--poloto_color7,chocolate);}</style></style><rect class="poloto_background" fill="white" x="0" y="0" width="800" height="500" /><line class="poloto_axis_lines" stroke="black" x1="150" x2="150" y1="400" y2="405" /><text class="poloto_text" alignment-baseline="start" text-anchor="middle" x="150" y="430" >0</text><line class="poloto_axis_lines" stroke="black" x1="234.17508417508418" x2="234.17508417508418" y1="400" y2="405" /><text class="poloto_text" alignment-baseline="start" text-anchor="middle" x="234.17508417508418" y="430" >5000</text><line class="poloto_axis_lines" stroke="black" x1="318.35016835016836" x2="318.35016835016836" y1="400" y2="405" /><text class="poloto_text" alignment-baseline="start" text-anchor="middle" x="318.35016835016836" y="430" >10000</text><line class="poloto_axis_lines" stroke="black" x1="402.52525252525254" x2="402.52525252525254" y1="400" y2="405" /><text class="poloto_text" alignment-baseline="start" text-anchor="middle" x="402.52525252525254" y="430" >15000</text><line class="poloto_axis_lines" stroke="black" x1="486.7003367003367" x2="486.7003367003367" y1="400" y2="405" /><text class="poloto_text" alignment-baseline="start" text-anchor="middle" x="486.7003367003367" y="430" >20000</text><line class="poloto_axis_lines" stroke="black" x1="570.8754208754208" x2="570.8754208754208" y1="400" y2="405" /><text class="poloto_text" alignment-baseline="start" text-anchor="middle" x="570.8754208754208" y="430" >25000</text><line class="poloto_axis_lines" stroke="black" x1="150" x2="144" y1="336.55825425678506" y2="336.55825425678506" /><text class="poloto_text" alignment-baseline="middle" text-anchor="end" x="135" y="336.55825425678506" >0.005</text><line class="poloto_axis_lines" stroke="black" x1="150" x2="144" y1="273.1145798258674" y2="273.1145798258674" /><text class="poloto_text" alignment-baseline="middle" text-anchor="end" x="135" y="273.1145798258674" >0.010</text><line class="poloto_axis_lines" stroke="black" x1="150" x2="144" y1="209.67090539494978" y2="209.67090539494978" /><text class="poloto_text" alignment-baseline="middle" text-anchor="end" x="135" y="209.67090539494978" >0.015</text><line class="poloto_axis_lines" stroke="black" x1="150" x2="144" y1="146.22723096403215" y2="146.22723096403215" /><text class="poloto_text" alignment-baseline="middle" text-anchor="end" x="135" y="146.22723096403215" >0.020</text><text class="poloto_text" alignment-baseline="middle" text-anchor="start" font-size="large" x="675" y="100" >default_par</text><line class="poloto0stroke" stroke="black" x1="680" x2="730" y1="81.25" y2="81.25" /><polyline class="poloto0stroke" fill="none" stroke="black"  points="650,350.3672267911302 644.9494949494949,376.25709305567113 639.8989898989898,375.1969873221351 634.8484848484848,381.2229563407279 629.7979797979798,384.21700291320667 624.7474747474747,384.48792009176157 619.6969696969697,384.2772617151811 614.6464646464647,383.7184498307936 609.5959595959596,375.63649972112273 604.5454545454545,357.71873718834297 599.4949494949494,386.2829446611704 594.4444444444445,383.76178186042995 589.3939393939394,379.7970724466279 584.3434343434344,385.9029170513292 579.2929292929293,383.1550065581726 574.2424242424242,382.01315999449986 569.1919191919192,383.9337015294028 564.1414141414141,382.9530018987846 559.090909090909,381.9484601353152 554.040404040404,387.2385079079791 548.989898989899,383.58936733079645 543.939393939394,356.8255010072952 538.8888888888889,308.0822208026818 533.8383838383838,380.7707425181192 528.7878787878788,383.0603485959217 523.7373737373737,373.6306391328451 518.6868686868687,362.5928482314378 513.6363636363636,376.03519245998154 508.5858585858586,385.22887876544024 503.5353535353535,387.5331783982409 498.4848484848485,389.83864539465117 493.4343434343434,386.70271338867514 488.3838383838384,387.04688263372793 483.3333333333333,377.5188354752834 478.2828282828283,388.3509546729206 473.2323232323232,377.7401650779031 468.1818181818182,382.00212079514887 463.1313131313131,388.80358722378054 458.0808080808081,385.8438636791689 453.030303030303,386.4506262926913 447.979797979798,385.96808639370465 442.9292929292929,390.3755945888298 437.8787878787879,377.94356549812863 432.8282828282828,388.2558906711533 427.77777777777777,381.8588015346094 422.72727272727275,390.8252325982566 417.67676767676767,387.1857354595875 412.62626262626264,388.4755580495029 407.57575757575756,391.2133175547505 402.52525252525254,390.8735893669078 397.47474747474746,388.8414884748855 392.4242424242424,385.7785040057702 387.37373737373736,387.6864710044009 382.32323232323233,392.7504308988628 377.27272727272725,391.43912628078505 372.22222222222223,389.4911897672628 367.1717171717172,392.80069097774697 362.1212121212121,393.3166149382192 357.07070707070704,385.07420308717764 352.020202020202,392.4081142091033 346.969696969697,392.3680051181281 341.9191919191919,392.38313009011245 336.86868686868684,389.75289492429033 331.8181818181818,393.6648699559054 326.7676767676768,390.30467724955093 321.7171717171717,391.592647284173 316.66666666666663,392.62851753407637 311.6161616161616,394.88782291297065 306.5656565656566,394.4670137092052 301.5151515151515,394.3890668107994 296.4646464646464,394.06816870552785 291.4141414141414,391.1985351786081 286.3636363636364,395.5070458641513 281.3131313131313,390.53093008130645 276.26262626262627,394.5071989325898 271.2121212121212,396.0030358221173 266.16161616161617,395.3973517510602 261.1111111111111,394.6041789333249 256.06060606060606,395.94311961598476 251.010101010101,394.4870745990603 245.95959595959596,394.7507211325254 240.9090909090909,395.73106547856685 235.85858585858585,396.44985693239937 230.8080808080808,395.32596492859057 225.75757575757575,396.059817910733 220.7070707070707,396.2760720193982 215.65656565656565,395.4441224278507 210.6060606060606,395.08196055672926 205.55555555555554,396.37583085307335 200.50505050505052,395.59062656084654 195.45454545454544,391.12482631765425 190.40404040404042,396.35361287828766 185.35353535353534,395.79500401365834 180.3030303030303,398.1244019640639 175.25252525252526,398.43366449944483 170.2020202020202,398.713133885313 165.15151515151516,399.15579309055244 160.1010101010101,399.40079987246975 155.05050505050505,399.7340948717251 150,399.99977160277206 "/><text class="poloto_text" alignment-baseline="middle" text-anchor="start" font-size="large" x="675" y="150" >default_seq</text><line class="poloto1stroke" stroke="black" x1="680" x2="730" y1="131.25" y2="131.25" /><polyline class="poloto1stroke" fill="none" stroke="black"  points="650,359.62303714259167 644.9494949494949,354.6499793448544 639.8989898989898,355.8308437683022 634.8484848484848,359.9948297634917 629.7979797979798,360.47474309435694 624.7474747474747,356.9482137623795 619.6969696969697,356.0655472974919 614.6464646464647,354.4638990477485 609.5959595959596,361.4142804690044 604.5454545454545,355.69247311436834 599.4949494949494,363.5619376696352 594.4444444444445,360.6161209784588 589.3939393939394,364.6392747051466 584.3434343434344,364.13888175617507 579.2929292929293,365.3099885424954 574.2424242424242,365.1878721579507 569.1919191919192,365.0423958124806 564.1414141414141,365.7362412135269 559.090909090909,363.7754383228301 554.040404040404,362.4778248496945 548.989898989899,365.4063594839559 543.939393939394,367.48323892139155 538.8888888888889,361.9378430478781 533.8383838383838,368.7508054703166 528.7878787878788,361.1982928237718 523.7373737373737,366.8286778435529 518.6868686868687,364.976465146012 513.6363636363636,368.39297045779136 508.5858585858586,365.3802841337648 503.5353535353535,368.7725793393813 498.4848484848485,366.3862089693368 493.4343434343434,368.60973211585207 488.3838383838384,372.17668775717686 483.3333333333333,372.02239274096087 478.2828282828283,370.86581455608524 473.2323232323232,373.79772439382634 468.1818181818182,371.04472571798044 463.1313131313131,370.00353888815977 458.0808080808081,367.6982622227728 453.030303030303,373.14808654512353 447.979797979798,375.4076964536551 442.9292929292929,375.9356747122692 437.8787878787879,374.9057935452321 432.8282828282828,374.9172387840994 427.77777777777777,377.0328569291426 422.72727272727275,379.50963453525117 417.67676767676767,379.48333078783213 412.62626262626264,380.37683343231254 407.57575757575756,380.054590321143 402.52525252525254,380.9364193295281 397.47474747474746,380.97207467455826 392.4242424242424,381.29316311085313 387.37373737373736,379.76066846623945 382.32323232323233,382.5382452215599 377.27272727272725,382.46045058797273 372.22222222222223,381.5750560450846 367.1717171717172,383.66385020457835 362.1212121212121,382.43266225857195 357.07070707070704,383.96138834892446 352.020202020202,382.3312412006267 346.969696969697,384.9387635310025 341.9191919191919,383.0722886954496 336.86868686868684,385.7440794680239 331.8181818181818,383.13805440836467 326.7676767676768,386.28620566603615 321.7171717171717,385.23474096095765 316.66666666666663,386.7114432382768 311.6161616161616,387.6221137410582 306.5656565656566,387.9117468035702 301.5151515151515,387.10266231228763 296.4646464646464,387.5198171604058 291.4141414141414,388.9944638626734 286.3636363636364,390.3091056180262 281.3131313131313,390.66225848737844 276.26262626262627,391.01108449813455 271.2121212121212,391.14303465221593 266.16161616161617,391.2286836126977 261.1111111111111,391.8231254646456 256.06060606060606,391.3429456703478 251.010101010101,392.20744186687836 245.95959595959596,392.93698067915943 240.9090909090909,393.39119932188015 235.85858585858585,392.95730803244714 230.8080808080808,394.03564747801454 225.75757575757575,394.4651738426467 220.7070707070707,394.7541851571493 215.65656565656565,395.5656424418557 210.6060606060606,395.8482967001803 205.55555555555554,396.22203069751794 200.50505050505052,396.4933919817939 195.45454545454544,396.860159863679 190.40404040404042,397.13844919720276 185.35353535353534,397.43059462922224 180.3030303030303,398.0202401393832 175.25252525252526,398.32409727370265 170.2020202020202,398.65578080362747 165.15151515151516,399.08973553673496 160.1010101010101,399.3710955441012 155.05050505050505,399.703337378361 150,400 "/><text class="poloto_text" alignment-baseline="middle" text-anchor="start" font-size="large" x="675" y="200" >direct_par</text><line class="poloto2stroke" stroke="black" x1="680" x2="730" y1="181.25" y2="181.25" /><polyline class="poloto2stroke" fill="none" stroke="black"  points="650,358.8202462638126 644.9494949494949,380.6018427680492 639.8989898989898,383.35373752396004 634.8484848484848,381.3896863171324 629.7979797979798,376.13223590439105 624.7474747474747,376.1087744335865 619.6969696969697,384.0281437831607 614.6464646464647,380.2830636815036 609.5959595959596,381.48379866378315 604.5454545454545,375.76949035146487 599.4949494949494,382.5874775129183 594.4444444444445,385.6056453704157 589.3939393939394,382.6222827127111 584.3434343434344,381.40503968634465 579.2929292929293,385.5091094754016 574.2424242424242,369.11890566936484 569.1919191919192,387.0069765625109 564.1414141414141,386.27045894604237 559.090909090909,382.77679343742017 554.040404040404,381.35625150070723 548.989898989899,385.4502337455297 543.939393939394,385.3062673595111 538.8888888888889,378.63356621250443 533.8383838383838,379.5380319239265 528.7878787878788,374.552399589917 523.7373737373737,383.0932758629514 518.6868686868687,377.1034697387842 513.6363636363636,381.4206722077244 508.5858585858586,366.4382708485748 503.5353535353535,384.52136759692155 498.4848484848485,383.03645570813103 493.4343434343434,387.727151088446 488.3838383838384,388.83150244053013 483.3333333333333,390.21732799859444 478.2828282828283,389.1873960766178 473.2323232323232,387.3641136946174 468.1818181818182,366.3602731952294 463.1313131313131,374.8390507997308 458.0808080808081,388.79201509756433 453.030303030303,387.1790611850373 447.979797979798,391.30578036586616 442.9292929292929,390.45983509973917 437.8787878787879,388.3479981976921 432.8282828282828,391.19390379037463 427.77777777777777,390.62680616210645 422.72727272727275,390.9263364378297 417.67676767676767,391.28550376751804 412.62626262626264,390.847260242019 407.57575757575756,384.21780230350447 402.52525252525254,389.6797570564064 397.47474747474746,391.19013523611346 392.4242424242424,391.8678025001799 387.37373737373736,391.92006739917605 382.32323232323233,391.5268561937881 377.27272727272725,391.6459780368996 372.22222222222223,384.64770933018326 367.1717171717172,392.7463070600248 362.1212121212121,391.8100687564477 357.07070707070704,392.3058683833905 352.020202020202,393.70983883234203 346.969696969697,393.8750842267648 341.9191919191919,392.3626758494759 336.86868686868684,391.8304849308796 331.8181818181818,391.85899651816885 326.7676767676768,394.2727491780978 321.7171717171717,395.11813613988977 316.66666666666663,394.3116655279937 311.6161616161616,393.6998527979866 306.5656565656566,393.08782435948643 301.5151515151515,393.99586829414636 296.4646464646464,394.7317387851357 291.4141414141414,393.9266512453422 286.3636363636364,395.6660610897449 281.3131313131313,393.2268548276343 276.26262626262627,393.74833645398667 271.2121212121212,394.2687776040784 266.16161616161617,395.7970595887099 261.1111111111111,394.5944974286067 256.06060606060606,395.7500351372217 251.010101010101,394.9004355154475 245.95959595959596,395.3536644368471 240.9090909090909,395.61274302575316 235.85858585858585,395.37930837005206 230.8080808080808,396.05589709165315 225.75757575757575,394.838730197696 220.7070707070707,396.8087451099202 215.65656565656565,394.89750441768876 210.6060606060606,397.33257415222647 205.55555555555554,395.25710316436323 200.50505050505052,395.1219554490905 195.45454545454544,394.63696662427077 190.40404040404042,396.328045077492 185.35353535353534,396.76229165150187 180.3030303030303,398.16189717565254 175.25252525252526,398.4873505367483 170.2020202020202,398.74479227885405 165.15151515151516,399.18341646639965 160.1010101010101,399.421507887804 155.05050505050505,399.7364295989442 150,399.99860423916255 "/><text class="poloto_text" alignment-baseline="middle" text-anchor="start" font-size="large" x="675" y="250" >direct_seq</text><line class="poloto3stroke" stroke="black" x1="680" x2="730" y1="231.25" y2="231.25" /><polyline class="poloto3stroke" fill="none" stroke="black"  points="650,261.16727309655334 644.9494949494949,350.26494289921266 639.8989898989898,352.53839621750507 634.8484848484848,360.2829148003476 629.7979797979798,361.154009139019 624.7474747474747,347.8399226427048 619.6969696969697,362.43055931224353 614.6464646464647,362.76168453783333 609.5959595959596,362.87673329704637 604.5454545454545,352.64639004012133 599.4949494949494,357.7741996485305 594.4444444444445,363.82903553898933 589.3939393939394,360.1308403127367 584.3434343434344,363.377671861618 579.2929292929293,364.40575122830126 574.2424242424242,363.38858417362013 569.1919191919192,363.9662388293136 564.1414141414141,366.1808798614086 559.090909090909,361.6606449455545 554.040404040404,366.8360499985218 548.989898989899,368.0765768534044 543.939393939394,360.8890302883908 538.8888888888889,345.9148385407126 533.8383838383838,367.50933964905244 528.7878787878788,369.22382881813866 523.7373737373737,369.7008237399801 518.6868686868687,362.71005407558147 513.6363636363636,370.30603832784635 508.5858585858586,336.44206351143225 503.5353535353535,370.8095146393953 498.4848484848485,371.92495594576985 493.4343434343434,371.60801672578276 488.3838383838384,372.65363192407875 483.3333333333333,372.93225116470956 478.2828282828283,369.46987607631667 473.2323232323232,372.69926061472944 468.1818181818182,373.98483247845803 463.1313131313131,372.2416921459988 458.0808080808081,370.1574151761245 453.030303030303,375.4807962553344 447.979797979798,375.9122766851391 442.9292929292929,373.000097830146 437.8787878787879,376.58721587120493 432.8282828282828,376.5467007407134 427.77777777777777,377.53507705593773 422.72727272727275,377.32686760519033 417.67676767676767,380.0261294887933 412.62626262626264,378.3976699422354 407.57575757575756,378.010752349351 402.52525252525254,380.722487259347 397.47474747474746,381.4663516533147 392.4242424242424,379.47890241935687 387.37373737373736,379.1489445573765 382.32323232323233,382.9080330223479 377.27272727272725,383.17554961995336 372.22222222222223,381.3646006882624 367.1717171717172,382.17648938995484 362.1212121212121,384.0282072268351 357.07070707070704,384.18932878241986 352.020202020202,383.42167301054064 346.969696969697,385.0503863317963 341.9191919191919,385.47056109881737 336.86868686868684,385.68039470763017 331.8181818181818,381.0227027267541 326.7676767676768,386.47298384356077 321.7171717171717,385.18715820513444 316.66666666666663,387.19474446135666 311.6161616161616,388.0239786636385 306.5656565656566,388.17182780253233 301.5151515151515,388.34382360391453 296.4646464646464,388.7598745320976 291.4141414141414,389.26860397988935 286.3636363636364,390.57259988667266 281.3131313131313,390.8554571647555 276.26262626262627,391.1457119752769 271.2121212121212,391.42138742941415 266.16161616161617,391.1370963242892 261.1111111111111,391.9821280015044 256.06060606060606,392.5080760625367 251.010101010101,392.809941065479 245.95959595959596,392.66147017857577 240.9090909090909,393.58130194794495 235.85858585858585,393.687658923761 230.8080808080808,394.29222638614806 225.75757575757575,394.31063774046794 220.7070707070707,394.80546033482443 215.65656565656565,395.7244419589563 210.6060606060606,396.074866750308 205.55555555555554,396.25004742414666 200.50505050505052,396.6320417878952 195.45454545454544,396.8793579195618 190.40404040404042,396.7655653451025 185.35353535353534,397.5167765165692 180.3030303030303,398.0688253052624 175.25252525252526,398.3709821491071 170.2020202020202,398.6894820834852 165.15151515151516,399.1259872523048 160.1010101010101,399.3913467649796 155.05050505050505,399.71059533471595 150,399.99906103361843 "/><text class="poloto_text" alignment-baseline="middle" text-anchor="start" font-size="large" x="675" y="300" >indirect_par</text><line class="poloto4stroke" stroke="black" x1="680" x2="730" y1="281.25" y2="281.25" /><polyline class="poloto4stroke" fill="none" stroke="black"  points="650,373.9478067500601 644.9494949494949,379.95598616234247 639.8989898989898,383.69460769794244 634.8484848484848,383.28199541691356 629.7979797979798,379.82696710601977 624.7474747474747,380.9760716260474 619.6969696969697,380.81807149924464 614.6464646464647,378.69360930598583 609.5959595959596,385.84987813950494 604.5454545454545,371.32236792602504 599.4949494949494,374.88337255068825 594.4444444444445,386.71865043969217 589.3939393939394,386.8622996073386 584.3434343434344,387.5638978254004 579.2929292929293,387.24260636934736 574.2424242424242,380.8732421185298 569.1919191919192,379.4509618251375 564.1414141414141,387.37692931685245 559.090909090909,386.47394818741213 554.040404040404,386.52802757549705 548.989898989899,385.445856131994 543.939393939394,367.98082765995326 538.8888888888889,380.24832192538526 533.8383838383838,385.25415472533354 528.7878787878788,383.99078814765573 523.7373737373737,100 518.6868686868687,383.06039935086125 513.6363636363636,382.57458575827394 508.5858585858586,378.14990970484774 503.5353535353535,385.33448710589795 498.4848484848485,378.7230091047171 493.4343434343434,386.9314151462637 488.3838383838384,389.62329218616287 483.3333333333333,383.6714761342449 478.2828282828283,389.77471954829457 473.2323232323232,388.5580221375282 468.1818181818182,379.89219989206964 463.1313131313131,368.2278773281872 458.0808080808081,387.17775424534403 453.030303030303,390.46951660445734 447.979797979798,388.193830068825 442.9292929292929,391.3138123350491 437.8787878787879,387.8519955509912 432.8282828282828,387.16557305985333 427.77777777777777,387.27186659199486 422.72727272727275,391.64080103306605 417.67676767676767,391.3621056600259 412.62626262626264,391.1873183369687 407.57575757575756,391.7949310957285 402.52525252525254,364.8847382815198 397.47474747474746,392.3860992540758 392.4242424242424,391.14892222520314 387.37373737373736,390.26267753707765 382.32323232323233,391.7449501690118 377.27272727272725,391.6041940329194 372.22222222222223,393.1444668720183 367.1717171717172,392.2314362645481 362.1212121212121,383.0532555931203 357.07070707070704,392.39320494561207 352.020202020202,387.65323920773403 346.969696969697,392.69920647612724 341.9191919191919,391.5265770416206 336.86868686868684,392.00591937941596 331.8181818181818,384.56386217005536 326.7676767676768,394.0622050001313 321.7171717171717,392.86159690520066 316.66666666666663,394.76061834573665 311.6161616161616,394.10114672749705 306.5656565656566,394.25658372985276 301.5151515151515,391.6244452537978 296.4646464646464,392.01930599472087 291.4141414141414,394.0800707388511 286.3636363636364,395.86829414636094 281.3131313131313,384.28753959043894 276.26262626262627,392.3974049168594 271.2121212121212,396.2144301453211 266.16161616161617,394.5518632793891 261.1111111111111,395.63858997871637 256.06060606060606,394.22430358830235 251.010101010101,395.35922210272724 245.95959595959596,395.53143361260254 240.9090909090909,393.60161661249776 235.85858585858585,395.79931818351963 230.8080808080808,393.026334750228 225.75757575757575,395.97184691176705 220.7070707070707,396.24177436900084 215.65656565656565,394.9964004173917 210.6060606060606,395.6686622803966 205.55555555555554,395.07175881388076 200.50505050505052,395.3854116515323 195.45454545454544,395.9073246948708 190.40404040404042,396.3956760344354 185.35353535353534,396.5640301689053 180.3030303030303,398.3702462024837 175.25252525252526,398.64739354986773 170.2020202020202,398.8862843615699 165.15151515151516,399.26508116412714 160.1010101010101,399.4850657608489 155.05050505050505,399.7709429578346 150,399.9996193379534 "/><text class="poloto_text" alignment-baseline="middle" text-anchor="start" font-size="large" x="675" y="350" >indirect_seq</text><line class="poloto5stroke" stroke="black" x1="680" x2="730" y1="331.25" y2="331.25" /><polyline class="poloto5stroke" fill="none" stroke="black"  points="650,354.1116470785732 644.9494949494949,343.37252361891683 639.8989898989898,362.3954495828134 634.8484848484848,354.3742531357776 629.7979797979798,362.0467504594062 624.7474747474747,357.126642752349 619.6969696969697,352.05338201521556 614.6464646464647,362.1718740741189 609.5959595959596,363.97463877180826 604.5454545454545,364.4368005625677 599.4949494949494,364.9953840497273 594.4444444444445,365.01860443456906 589.3939393939394,360.3518400082494 584.3434343434344,366.08738926276715 579.2929292929293,367.093440985688 574.2424242424242,352.1529124516628 569.1919191919192,367.3116237820559 564.1414141414141,360.6550500170896 559.090909090909,363.93162396054413 554.040404040404,360.3339996469994 548.989898989899,369.27538314798124 543.939393939394,368.7633165629144 538.8888888888889,369.7749893953898 533.8383838383838,365.72562074242717 528.7878787878788,370.17949357482644 523.7373737373737,359.15237389945844 518.6868686868687,364.13650896275135 513.6363636363636,370.6216579194053 508.5858585858586,359.9607478215874 503.5353535353535,372.1762817176605 498.4848484848485,366.2347435410004 493.4343434343434,368.26983897445587 488.3838383838384,373.71085731479553 483.3333333333333,374.3663573590158 478.2828282828283,374.1525648649185 473.2323232323232,375.23240158120245 468.1818181818182,370.6111770243893 463.1313131313131,371.79928671545713 458.0808080808081,374.6757214042758 453.030303030303,376.5500251892535 447.979797979798,376.82707102675846 442.9292929292929,377.49227795316665 437.8787878787879,373.82185836757986 432.8282828282828,378.43496213406587 427.77777777777777,378.811094302297 422.72727272727275,380.9000407266094 417.67676767676767,380.7421801758904 412.62626262626264,381.53305633261135 407.57575757575756,381.5742185885821 402.52525252525254,382.12088735368354 397.47474747474746,382.12329821331195 392.4242424242424,382.3226763045785 387.37373737373736,382.7749281933919 382.32323232323233,383.58169064619034 377.27272727272725,380.8431825055844 372.22222222222223,381.3729879420221 367.1717171717172,384.96636152938 362.1212121212121,385.1950379094988 357.07070707070704,384.91764947615195 352.020202020202,385.35084288516623 346.969696969697,385.91717918934125 341.9191919191919,385.9078910354046 336.86868686868684,385.640615523762 331.8181818181818,385.06594272076677 326.7676767676768,387.3945539696094 321.7171717171717,387.6312242527065 316.66666666666663,387.1930441708819 311.6161616161616,386.278084875709 306.5656565656566,387.42632656176437 301.5151515151515,389.22518312910887 296.4646464646464,389.3816479189904 291.4141414141414,390.0460808325705 286.3636363636364,391.30503173050784 281.3131313131313,390.43671622477655 276.26262626262627,391.3950329270555 271.2121212121212,391.1252450459055 266.16161616161617,391.5535025370491 261.1111111111111,392.68875095858107 256.06060606060606,393.0284918351586 251.010101010101,393.1514837424104 245.95959595959596,393.7986219103406 240.9090909090909,394.13125709538195 235.85858585858585,394.07098560467256 230.8080808080808,394.88065377775996 225.75757575757575,394.49218815921944 220.7070707070707,395.2991155655714 215.65656565656565,396.0705272029769 210.6060606060606,396.06839549551603 205.55555555555554,396.6839894685192 200.50505050505052,396.9492474713149 195.45454545454544,397.2018040504895 190.40404040404042,397.4643466640195 185.35353535353534,397.73356355209967 180.3030303030303,398.2623158235418 175.25252525252526,398.5370776887672 170.2020202020202,398.83469196552267 165.15151515151516,399.20464471986423 160.1010101010101,399.45739163006215 155.05050505050505,399.7479890364255 150,399.9992640533766 "/><text class="poloto_text" alignment-baseline="start" text-anchor="middle" font-size="x-large" x="400" y="37.5" >Bench of rebal:8_bytes with abspiral(num,0.1)</text><text class="poloto_text" alignment-baseline="start" text-anchor="middle" font-size="x-large" x="400" y="481.25" >Number of Elements</text><text class="poloto_text" alignment-baseline="start" text-anchor="middle" font-size="x-large" transform="rotate(-90,37.5,250)" x="37.5" y="250" >Time in Seconds</text><path stroke="black" fill="none" class="poloto_axis_lines"  d="M 150 100 L 150 400 L 650 400 "/></svg>