<svg  width="800" class="poloto_background poloto" height="500" viewBox="0 0 800 500" xmlns="http://www.w3.org/2000/svg" ><text  class="poloto_text" alignment-baseline="middle" text-anchor="start" font-size="large" x="675" y="100" >default_par</text><line  class="poloto0stroke poloto0legend" stroke="black" x1="680" x2="730" y1="81.25" y2="81.25" /><path  class="poloto0stroke" fill="none" stroke="black" d=" M 650 282.6578187154679 L 644.9494949494949 278.63611054291056 L 639.8989898989898 286.1146952645886 L 634.8484848484848 269.17033179259636 L 629.7979797979798 284.0047699122098 L 624.7474747474747 292.3451492422929 L 619.6969696969697 283.87835999293264 L 614.6464646464647 280.7688599084922 L 609.5959595959596 286.3721969520049 L 604.5454545454545 286.5381517732781 L 599.4949494949494 284.5870748644354 L 594.4444444444445 290.78901972674726 L 589.3939393939394 270.0475932231352 L 584.3434343434344 298.55854791342813 L 579.2929292929293 295.63063668128257 L 574.2424242424242 298.2466197329897 L 569.1919191919192 298.37269523449095 L 564.1414141414141 298.5321289091348 L 559.090909090909 299.43664538840676 L 554.040404040404 303.50793099623615 L 548.989898989899 300.04879712712835 L 543.939393939394 307.3984637962103 L 538.8888888888889 299.94295390106697 L 533.8383838383838 310.1551531271127 L 528.7878787878788 308.6593024156668 L 523.7373737373737 313.48879672582706 L 518.6868686868687 308.0583536724367 L 513.6363636363636 315.128697894227 L 508.5858585858586 309.8810141553471 L 503.5353535353535 310.33565512163614 L 498.4848484848485 312.4816139893644 L 493.4343434343434 317.17934769583366 L 488.3838383838384 318.3798239067465 L 483.3333333333333 318.3805763467422 L 478.2828282828283 323.0006415247667 L 473.2323232323232 321.12531024215747 L 468.1818181818182 323.4896439175259 L 463.1313131313131 323.20890019468686 L 458.0808080808081 327.16539690095044 L 453.030303030303 326.5595990999703 L 447.979797979798 325.63000128750843 L 442.9292929292929 326.9715181953925 L 437.8787878787879 330.1805911725969 L 432.8282828282828 326.6725487037688 L 427.77777777777777 332.26184020069525 L 422.72727272727275 309.8950597019334 L 417.67676767676767 328.5651025018351 L 412.62626262626264 326.7794787876018 L 407.57575757575756 327.641022582675 L 402.52525252525254 329.9480036094825 L 397.47474747474746 333.55043549554864 L 392.4242424242424 335.4500120669081 L 387.37373737373736 330.65053175213177 L 382.32323232323233 332.64098635408266 L 377.27272727272725 339.57037348334575 L 372.22222222222223 338.00889328338616 L 367.1717171717172 337.9839791590842 L 362.1212121212121 339.22968537418285 L 357.07070707070704 340.82126317397024 L 352.020202020202 339.2095367031869 L 346.969696969697 342.5091532932069 L 341.9191919191919 345.9225555314651 L 336.86868686868684 347.15722595996016 L 331.8181818181818 348.49105125899933 L 326.7676767676768 349.81994389584446 L 321.7171717171717 353.7576296022156 L 316.66666666666663 353.0632946950751 L 311.6161616161616 339.93998873012094 L 306.5656565656566 353.25959792950806 L 301.5151515151515 353.07182234835966 L 296.4646464646464 354.99071154627535 L 291.4141414141414 348.36204960195926 L 286.3636363636364 355.8005041905334 L 281.3131313131313 355.6857988934116 L 276.26262626262627 358.2586420520321 L 271.2121212121212 358.96693890131496 L 266.16161616161617 357.82690870338985 L 261.1111111111111 352.0278536565518 L 256.06060606060606 363.37197344945804 L 251.010101010101 363.48057562217036 L 245.95959595959596 367.2503836050571 L 240.9090909090909 355.1739724874496 L 235.85858585858585 361.94777174649124 L 230.8080808080808 361.3848630252658 L 225.75757575757575 363.2337753035817 L 220.7070707070707 365.382075095741 L 215.65656565656565 369.65568345796896 L 210.6060606060606 370.7731404560232 L 205.55555555555554 378.389003674694 L 200.50505050505052 376.831118465825 L 195.45454545454544 380.80258036755856 L 190.40404040404042 382.34775770094467 L 185.35353535353534 383.7916900526875 L 180.3030303030303 384.6467127011314 L 175.25252525252526 387.92258562906494 L 170.2020202020202 390.2325764158552 L 165.15151515151516 392.5912249890339 L 160.1010101010101 395.3983277996481 L 155.05050505050505 397.5335852985487 L 150 399.99414768892234" /><text  class="poloto_text" alignment-baseline="middle" text-anchor="start" font-size="large" x="675" y="150" >default_seq</text><line  class="poloto1stroke poloto1legend" stroke="black" x1="680" x2="730" y1="131.25" y2="131.25" /><path  class="poloto1stroke" fill="none" stroke="black" d=" M 650 126.3626548981336 L 644.9494949494949 151.12010447211318 L 639.8989898989898 125.88335062087447 L 634.8484848484848 148.38247695443505 L 629.7979797979798 133.87367814407054 L 624.7474747474747 130.0020399484328 L 619.6969696969697 165.32951576863417 L 614.6464646464647 143.36194648981166 L 609.5959595959596 142.72220528458115 L 604.5454545454545 146.5573919426496 L 599.4949494949494 149.95022748769205 L 594.4444444444445 155.81332353860827 L 589.3939393939394 148.08425990280705 L 584.3434343434344 156.36444403323446 L 579.2929292929293 160.96201961583202 L 574.2424242424242 168.28443123618086 L 569.1919191919192 193.9576838893679 L 564.1414141414141 170.04213106612946 L 559.090909090909 178.89024018442026 L 554.040404040404 176.80037989859338 L 548.989898989899 200.28001915099128 L 543.939393939394 198.16909054528492 L 538.8888888888889 196.24593752072693 L 533.8383838383838 190.11296632468733 L 528.7878787878788 192.45037936909858 L 523.7373737373737 196.95206065446675 L 518.6868686868687 220.57959616824112 L 513.6363636363636 210.400504302006 L 508.5858585858586 214.48608626975363 L 503.5353535353535 219.38070844176366 L 498.4848484848485 229.20556827891332 L 493.4343434343434 215.628206578778 L 488.3838383838384 215.69383606729153 L 483.3333333333333 216.5809628222185 L 478.2828282828283 223.8934255137354 L 473.2323232323232 225.68164096573165 L 468.1818181818182 237.91506122910795 L 463.1313131313131 234.71535194962775 L 458.0808080808081 240.7230000841618 L 453.030303030303 251.81839665626813 L 447.979797979798 239.77526010735926 L 442.9292929292929 241.1881752103906 L 437.8787878787879 244.90096496249225 L 432.8282828282828 262.7653953403342 L 427.77777777777777 262.2541541654799 L 422.72727272727275 250.29562531386503 L 417.67676767676767 252.59207218073274 L 412.62626262626264 263.0758186407812 L 407.57575757575756 266.76411229080077 L 402.52525252525254 265.72440742563526 L 397.47474747474746 269.4586835198363 L 392.4242424242424 271.8237696352004 L 387.37373737373736 278.7762315909981 L 382.32323232323233 275.3268794418344 L 377.27272727272725 282.3056767974816 L 372.22222222222223 282.5877581914241 L 367.1717171717172 285.8343695639694 L 362.1212121212121 286.4193498584019 L 357.07070707070704 295.4303204335392 L 352.020202020202 295.4056571225691 L 346.969696969697 294.5351676519915 L 341.9191919191919 299.76980909761267 L 336.86868686868684 304.1389773392941 L 331.8181818181818 303.8055628167564 L 326.7676767676768 300.1879985263323 L 321.7171717171717 309.70720051634106 L 316.66666666666663 311.2086527255328 L 311.6161616161616 313.64062239606994 L 306.5656565656566 319.4765470026971 L 301.5151515151515 323.2327274612173 L 296.4646464646464 323.7336016850197 L 291.4141414141414 325.1746078812237 L 286.3636363636364 326.2987532347953 L 281.3131313131313 331.45932114306225 L 276.26262626262627 331.95977734464486 L 271.2121212121212 328.4111867204931 L 266.16161616161617 338.116241389439 L 261.1111111111111 342.7460046829636 L 256.06060606060606 346.11242122371266 L 251.010101010101 349.8716950466596 L 245.95959595959596 349.92704118856534 L 240.9090909090909 352.38952648115026 L 235.85858585858585 357.1076596719473 L 230.8080808080808 359.9549762201093 L 225.75757575757575 361.0976817602414 L 220.7070707070707 362.60348140051934 L 215.65656565656565 365.77409633349924 L 210.6060606060606 367.33139631126045 L 205.55555555555554 370.3009425565013 L 200.50505050505052 374.0208386863401 L 195.45454545454544 376.32372309539323 L 190.40404040404042 379.032507079903 L 185.35353535353534 382.2138233817106 L 180.3030303030303 383.88373854549445 L 175.25252525252526 387.6497843284027 L 170.2020202020202 390.928750620763 L 165.15151515151516 392.30487976844915 L 160.1010101010101 395.0037148241269 L 155.05050505050505 397.52271672083305 L 150 399.99414768892234" /><text  class="poloto_text" alignment-baseline="middle" text-anchor="start" font-size="large" x="675" y="200" >direct_par</text><line  class="poloto2stroke poloto2legend" stroke="black" x1="680" x2="730" y1="181.25" y2="181.25" /><path  class="poloto2stroke" fill="none" stroke="black" d=" M 650 291.0497819874783 L 644.9494949494949 286.5556251020671 L 639.8989898989898 287.51373202992147 L 634.8484848484848 295.42873194910385 L 629.7979797979798 287.11335034776664 L 624.7474747474747 284.7133175748246 L 619.6969696969697 296.37195728593224 L 614.6464646464647 294.45574343022344 L 609.5959595959596 286.4509523382212 L 604.5454545454545 296.4239592500793 L 599.4949494949494 288.56622837501385 L 594.4444444444445 303.7858321679803 L 589.3939393939394 294.05226838364183 L 584.3434343434344 302.0823080177219 L 579.2929292929293 304.5924478433676 L 574.2424242424242 303.25243581547494 L 569.1919191919192 300.3443388365494 L 564.1414141414141 304.9521141613109 L 559.090909090909 306.1209878924044 L 554.040404040404 308.60011046933863 L 548.989898989899 306.2539189583109 L 543.939393939394 307.7591333674811 L 538.8888888888889 310.877579127426 L 533.8383838383838 313.1678392654402 L 528.7878787878788 313.78659575523517 L 523.7373737373737 317.12383434504 L 518.6868686868687 316.76901708484684 L 513.6363636363636 311.9417800946737 L 508.5858585858586 305.3570104834399 L 503.5353535353535 318.04156032645864 L 498.4848484848485 320.6909851557523 L 493.4343434343434 322.36190357286375 L 488.3838383838384 322.7377055484925 L 483.3333333333333 320.19303708748873 L 478.2828282828283 323.4985059885863 L 473.2323232323232 321.74950102081027 L 468.1818181818182 329.61550873582837 L 463.1313131313131 329.84132433898145 L 458.0808080808081 326.67012417489383 L 453.030303030303 327.0593864660011 L 447.979797979798 328.28678330787113 L 442.9292929292929 328.3694681029539 L 437.8787878787879 328.8699243045364 L 432.8282828282828 331.2197108066547 L 427.77777777777777 328.6426874258359 L 422.72727272727275 324.72531759934856 L 417.67676767676767 319.67134535713865 L 412.62626262626264 327.2174824695415 L 407.57575757575756 328.07058221577415 L 402.52525252525254 332.51131586149086 L 397.47474747474746 332.354390320166 L 392.4242424242424 334.08232696806255 L 387.37373737373736 338.1397342381935 L 382.32323232323233 335.95347802847346 L 377.27272727272725 333.8580162449008 L 372.22222222222223 339.0491833796595 L 367.1717171717172 338.0163340788992 L 362.1212121212121 341.89641632337754 L 357.07070707070704 342.95275847289236 L 352.020202020202 341.7041261022549 L 346.969696969697 345.06987380745227 L 341.9191919191919 346.7066816114255 L 336.86868686868684 346.2244511786276 L 331.8181818181818 350.36161708830247 L 326.7676767676768 351.87168055522267 L 321.7171717171717 354.0117035074294 L 316.66666666666663 354.31217787904444 L 311.6161616161616 342.4260504759044 L 306.5656565656566 351.2655483364666 L 301.5151515151515 357.25647558220743 L 296.4646464646464 358.5782618413154 L 291.4141414141414 359.1121598204845 L 286.3636363636364 361.15837858656096 L 281.3131313131313 362.8645780790263 L 276.26262626262627 359.32033488596073 L 271.2121212121212 361.37432886532605 L 266.16161616161617 364.67361103757014 L 261.1111111111111 363.87886719322603 L 256.06060606060606 366.04263380751917 L 251.010101010101 361.81810125389944 L 245.95959595959596 367.2162729919188 L 240.9090909090909 374.652219447174 L 235.85858585858585 368.2038922884933 L 230.8080808080808 363.94541633062323 L 225.75757575757575 362.37465603738343 L 220.7070707070707 373.4792490983261 L 215.65656565656565 371.3925657813699 L 210.6060606060606 371.76092696148567 L 205.55555555555554 368.3013750701581 L 200.50505050505052 380.3200155169848 L 195.45454545454544 381.941941729932 L 190.40404040404042 382.6232343438138 L 185.35353535353534 383.0172620882272 L 180.3030303030303 386.4053321799636 L 175.25252525252526 386.83840319970926 L 170.2020202020202 390.40655726374916 L 165.15151515151516 392.1223712672706 L 160.1010101010101 395.34632583550103 L 155.05050505050505 397.6801438888217 L 150 399.9933116444827" /><text  class="poloto_text" alignment-baseline="middle" text-anchor="start" font-size="large" x="675" y="250" >direct_seq</text><line  class="poloto3stroke poloto3legend" stroke="black" x1="680" x2="730" y1="231.25" y2="231.25" /><path  class="poloto3stroke" fill="none" stroke="black" d=" M 650 163.93181667440473 L 644.9494949494949 164.5892820217561 L 639.8989898989898 140.60450471891352 L 634.8484848484848 172.7454807617814 L 629.7979797979798 127.48086433618352 L 624.7474747474747 169.941304106706 L 619.6969696969697 173.09243920424177 L 614.6464646464647 177.09642323467824 L 609.5959595959596 157.51208223556054 L 604.5454545454545 164.54388480868238 L 599.4949494949494 166.74585865386814 L 594.4444444444445 189.63993238072572 L 589.3939393939394 192.44109927581832 L 584.3434343434344 173.32586281179582 L 579.2929292929293 186.68476609984714 L 574.2424242424242 180.359253869353 L 569.1919191919192 158.39043052387103 L 564.1414141414141 186.7782358682015 L 559.090909090909 169.2753111060701 L 554.040404040404 192.2227244681782 L 548.989898989899 195.11117440277167 L 543.939393939394 196.03408385971622 L 538.8888888888889 207.00273609476955 L 533.8383838383838 225.76123239638764 L 528.7878787878788 210.52607817684344 L 523.7373737373737 211.25636299488954 L 518.6868686868687 195.15740766028506 L 513.6363636363636 219.51012812102357 L 508.5858585858586 220.37426365385974 L 503.5353535353535 220.83876994453684 L 498.4848484848485 226.4010572060621 L 493.4343434343434 215.9252531681904 L 488.3838383838384 226.41827972151918 L 483.3333333333333 228.31183677291307 L 478.2828282828283 234.36722304495188 L 473.2323232323232 251.42211159186763 L 468.1818181818182 236.503651006068 L 463.1313131313131 237.0671449584012 L 458.0808080808081 244.09008546046263 L 453.030303030303 235.601726264559 L 447.979797979798 235.99048692900257 L 442.9292929292929 262.0260812423397 L 437.8787878787879 254.82406002130242 L 432.8282828282828 258.84493214942006 L 427.77777777777777 260.06923562686336 L 422.72727272727275 263.09362638734603 L 417.67676767676767 256.33136454157176 L 412.62626262626264 262.77250171807134 L 407.57575757575756 263.1254796804973 L 402.52525252525254 260.32623568761585 L 397.47474747474746 273.02249015278994 L 392.4242424242424 274.64625566350435 L 387.37373737373736 276.58203295910124 L 382.32323232323233 281.9306272618486 L 377.27272727272725 287.5600488918788 L 372.22222222222223 286.97331290412296 L 367.1717171717172 284.5579805179351 L 362.1212121212121 293.92326672660175 L 357.07070707070704 293.9206749888388 L 352.020202020202 302.2843799587886 L 346.969696969697 291.4641256117755 L 341.9191919191919 305.5732115755369 L 336.86868686868684 305.3873588965997 L 331.8181818181818 310.3627429614812 L 326.7676767676768 305.39521771433255 L 321.7171717171717 316.13604783957754 L 316.66666666666663 309.1721320749564 L 311.6161616161616 317.04992801657374 L 306.5656565656566 323.0799821420908 L 301.5151515151515 324.61897274662334 L 296.4646464646464 327.77086028415476 L 291.4141414141414 320.4522108637844 L 286.3636363636364 335.90431861542123 L 281.3131313131313 337.69044395631835 L 276.26262626262627 337.8605789997899 L 271.2121212121212 340.8809567469622 L 266.16161616161617 338.13739331376246 L 261.1111111111111 345.5012727383187 L 256.06060606060606 340.1755860532181 L 251.010101010101 349.7858332827062 L 245.95959595959596 355.81296125268443 L 240.9090909090909 357.5764297892666 L 235.85858585858585 357.51146913630475 L 230.8080808080808 363.70329786089667 L 225.75757575757575 364.2978926663854 L 220.7070707070707 366.3115893037589 L 215.65656565656565 364.9134721873096 L 210.6060606060606 368.54541644209587 L 205.55555555555554 372.02620386219087 L 200.50505050505052 372.83658173755674 L 195.45454545454544 375.735398623202 L 190.40404040404042 380.1666849667505 L 185.35353535353534 382.2826298390949 L 180.3030303030303 385.5337558516144 L 175.25252525252526 386.8654074351104 L 170.2020202020202 390.0457204835904 L 165.15151515151516 392.0427798366146 L 160.1010101010101 395.1598879254561 L 155.05050505050505 397.6791406354941 L 150 399.99448210669823" /><text  class="poloto_text" alignment-baseline="middle" text-anchor="start" font-size="large" x="675" y="300" >indirect_par</text><line  class="poloto4stroke poloto4legend" stroke="black" x1="680" x2="730" y1="281.25" y2="281.25" /><path  class="poloto4stroke" fill="none" stroke="black" d=" M 650 263.7714912190253 L 644.9494949494949 254.7677106260691 L 639.8989898989898 268.57699105376713 L 634.8484848484848 269.2179027212132 L 629.7979797979798 267.49322664663134 L 624.7474747474747 264.76120062669895 L 619.6969696969697 273.09773415235964 L 614.6464646464647 264.73553406240126 L 609.5959595959596 276.3960130712761 L 604.5454545454545 274.92357160414076 L 599.4949494949494 264.8865236882045 L 594.4444444444445 278.70767594694576 L 589.3939393939394 233.15704871853893 L 584.3434343434344 268.8814784386926 L 579.2929292929293 271.35600277120864 L 574.2424242424242 282.1349565229023 L 569.1919191919192 282.2571026155372 L 564.1414141414141 281.3590236784506 L 559.090909090909 290.43177793767904 L 554.040404040404 291.56369850453945 L 548.989898989899 276.0259798022811 L 543.939393939394 291.53276486027187 L 538.8888888888889 293.58550477297774 L 533.8383838383838 293.05520178489917 L 528.7878787878788 290.7998047000189 L 523.7373737373737 299.1335792790287 L 518.6868686868687 301.4574484035174 L 513.6363636363636 299.19285482980086 L 508.5858585858586 299.60928856519723 L 503.5353535353535 286.67894165691746 L 498.4848484848485 302.48218807321297 L 493.4343434343434 300.87798600238665 L 488.3838383838384 307.26444587253224 L 483.3333333333333 308.8766739699793 L 478.2828282828283 313.0869937681248 L 473.2323232323232 311.08416570846686 L 468.1818181818182 311.4839621595139 L 463.1313131313131 310.8309278476928 L 458.0808080808081 316.0647332488743 L 453.030303030303 312.3305407591172 L 447.979797979798 314.92169329096635 L 442.9292929292929 301.89887986765973 L 437.8787878787879 321.8798403489538 L 432.8282828282828 321.1605077130673 L 427.77777777777777 320.4609893304009 L 422.72727272727275 308.3693622039915 L 417.67676767676767 314.4882878534448 L 412.62626262626264 313.21315287407 L 407.57575757575756 314.9120787799102 L 402.52525252525254 315.83624230351427 L 397.47474747474746 319.4381725629165 L 392.4242424242424 320.3080768023864 L 387.37373737373736 320.7751748308264 L 382.32323232323233 318.16236874799 L 377.27272727272725 325.87287219723066 L 372.22222222222223 325.6767361716856 L 367.1717171717172 328.3554225563675 L 362.1212121212121 331.2745553218966 L 357.07070707070704 332.32972700919595 L 352.020202020202 332.8621201083737 L 346.969696969697 334.4014451306821 L 341.9191919191919 334.6223280716412 L 336.86868686868684 337.16072619934755 L 331.8181818181818 339.7283858824421 L 326.7676767676768 342.64183354578154 L 321.7171717171717 344.75861446256556 L 316.66666666666663 345.5155690982369 L 311.6161616161616 331.64049197313733 L 306.5656565656566 345.17421215352226 L 301.5151515151515 348.10162175900405 L 296.4646464646464 353.04205916630764 L 291.4141414141414 355.20139474507056 L 286.3636363636364 349.6360141191185 L 281.3131313131313 351.418711677813 L 276.26262626262627 353.44202282624263 L 271.2121212121212 346.9029012414145 L 266.16161616161617 344.3805551669497 L 261.1111111111111 349.5845137816352 L 256.06060606060606 359.5553469779502 L 251.010101010101 354.90133839567534 L 245.95959595959596 362.2803502245894 L 240.9090909090909 362.84852602578474 L 235.85858585858585 362.1783528029505 L 230.8080808080808 367.5672444476895 L 225.75757575757575 370.1286337974866 L 220.7070707070707 360.59120603869326 L 215.65656565656565 358.2814660652349 L 210.6060606060606 369.95264644293746 L 205.55555555555554 376.83914449244577 L 200.50505050505052 374.7349042422567 L 195.45454545454544 377.34762672064915 L 190.40404040404042 377.8908047930985 L 185.35353535353534 379.08576311070954 L 180.3030303030303 382.13590403993396 L 175.25252525252526 385.13972810720094 L 170.2020202020202 388.7318766466592 L 165.15151515151516 391.39543062698317 L 160.1010101010101 394.7011503414127 L 155.05050505050505 397.41837837476305 L 150 399.99414768892234" /><text  class="poloto_text" alignment-baseline="middle" text-anchor="start" font-size="large" x="675" y="350" >indirect_seq</text><line  class="poloto5stroke poloto5legend" stroke="black" x1="680" x2="730" y1="331.25" y2="331.25" /><path  class="poloto5stroke" fill="none" stroke="black" d=" M 650 127.26608451963398 L 644.9494949494949 130.19892841397353 L 639.8989898989898 104.01083959484174 L 634.8484848484848 112.66665849200996 L 629.7979797979798 110.98980415937683 L 624.7474747474747 100 L 619.6969696969697 110.72360760978796 L 614.6464646464647 111.59275940926216 L 609.5959595959596 152.86049818216068 L 604.5454545454545 153.89919979399863 L 599.4949494949494 127.4702465717998 L 594.4444444444445 127.81361002316959 L 589.3939393939394 131.5533204062284 L 584.3434343434344 154.34673438255052 L 579.2929292929293 159.8501641155235 L 574.2424242424242 138.77967052045994 L 569.1919191919192 145.45849513115587 L 564.1414141414141 178.11405652663666 L 559.090909090909 167.26612910867073 L 554.040404040404 152.91341979519143 L 548.989898989899 154.90922508155614 L 543.939393939394 171.7183165632108 L 538.8888888888889 194.24812572770702 L 533.8383838383838 182.476201995025 L 528.7878787878788 174.52625541826467 L 523.7373737373737 175.74729832239322 L 518.6868686868687 192.14087571753515 L 513.6363636363636 198.37425585077833 L 508.5858585858586 197.0249637296054 L 503.5353535353535 192.27104783679073 L 498.4848484848485 192.63037973695813 L 493.4343434343434 188.24933966423342 L 488.3838383838384 202.7365685280546 L 483.3333333333333 225.81565888940972 L 478.2828282828283 208.92563830599562 L 473.2323232323232 229.5453367391926 L 468.1818181818182 201.6753773207897 L 463.1313131313131 215.98528115895823 L 458.0808080808081 209.37191882788798 L 453.030303030303 214.14339165393557 L 447.979797979798 218.45963828258638 L 442.9292929292929 247.0517728879706 L 437.8787878787879 227.59777121699645 L 432.8282828282828 232.54155280205867 L 427.77777777777777 234.5886076125748 L 422.72727272727275 241.5287797151095 L 417.67676767676767 247.03730931916442 L 412.62626262626264 249.5457770559308 L 407.57575757575756 256.3760929190937 L 402.52525252525254 242.0610056053993 L 397.47474747474746 249.6715181396562 L 392.4242424242424 261.1990660826246 L 387.37373737373736 269.75455964703315 L 382.32323232323233 270.76600621013813 L 377.27272727272725 264.6749208405256 L 372.22222222222223 264.4859747971617 L 367.1717171717172 276.9290750060056 L 362.1212121212121 284.85276978736044 L 357.07070707070704 285.8904681458708 L 352.020202020202 287.94805711632665 L 346.969696969697 289.4889706230705 L 341.9191919191919 292.2041085453217 L 336.86868686868684 287.8409598236058 L 331.8181818181818 298.131580018092 L 326.7676767676768 300.44725590707196 L 321.7171717171717 304.1271891126949 L 316.66666666666663 293.42197448057954 L 311.6161616161616 309.1272364885465 L 306.5656565656566 313.69145389800144 L 301.5151515151515 315.3301846041859 L 296.4646464646464 317.94533161145335 L 291.4141414141414 323.1768796926478 L 286.3636363636364 321.0949618289977 L 281.3131313131313 321.50629569331215 L 276.26262626262627 321.0557513447775 L 271.2121212121212 330.0852821064753 L 266.16161616161617 328.96130396179166 L 261.1111111111111 340.87100781813024 L 256.06060606060606 343.6613061355072 L 251.010101010101 344.7992462223332 L 245.95959595959596 348.32225388663124 L 240.9090909090909 346.59874827426495 L 235.85858585858585 354.86563929810166 L 230.8080808080808 354.9232427599945 L 225.75757575757575 359.31189083712013 L 220.7070707070707 359.4173996454057 L 215.65656565656565 362.79827975496096 L 210.6060606060606 364.6166764112291 L 205.55555555555554 369.0595837724889 L 200.50505050505052 368.28022314583455 L 195.45454545454544 373.07970346061086 L 190.40404040404042 376.02375035044196 L 185.35353535353534 379.21919580327983 L 180.3030303030303 381.536878198915 L 175.25252525252526 384.09383651318194 L 170.2020202020202 388.0642951615879 L 165.15151515151516 390.8547606878528 L 160.1010101010101 394.46622185386724 L 155.05050505050505 397.28001301999876 L 150 399.99448210669823" /><text  class="poloto_text" alignment-baseline="start" text-anchor="middle" font-size="x-large" x="400" y="37.5" >Bench of query:8_bytes with abspiral(num,1.5)</text><text  class="poloto_text" alignment-baseline="start" text-anchor="middle" font-size="x-large" x="400" y="481.25" >Number of Elements</text><text  class="poloto_text" alignment-baseline="start" text-anchor="middle" font-size="x-large" transform="rotate(-90,37.5,250)" x="37.5" y="250" >Time in Seconds</text><line  class="poloto_axis_lines" stroke="black" x1="150" x2="150" y1="400" y2="405" /><text  class="poloto_text" alignment-baseline="start" text-anchor="middle" x="150" y="430" > 0</text><line  class="poloto_axis_lines" stroke="black" x1="234.17508417508418" x2="234.17508417508418" y1="400" y2="405" /><text  class="poloto_text" alignment-baseline="start" text-anchor="middle" x="234.17508417508418" y="430" > 5000</text><line  class="poloto_axis_lines" stroke="black" x1="318.35016835016836" x2="318.35016835016836" y1="400" y2="405" /><text  class="poloto_text" alignment-baseline="start" text-anchor="middle" x="318.35016835016836" y="430" > 10000</text><line  class="poloto_axis_lines" stroke="black" x1="402.52525252525254" x2="402.52525252525254" y1="400" y2="405" /><text  class="poloto_text" alignment-baseline="start" text-anchor="middle" x="402.52525252525254" y="430" > 15000</text><line  class="poloto_axis_lines" stroke="black" x1="486.7003367003367" x2="486.7003367003367" y1="400" y2="405" /><text  class="poloto_text" alignment-baseline="start" text-anchor="middle" x="486.7003367003367" y="430" > 20000</text><line  class="poloto_axis_lines" stroke="black" x1="570.8754208754208" x2="570.8754208754208" y1="400" y2="405" /><text  class="poloto_text" alignment-baseline="start" text-anchor="middle" x="570.8754208754208" y="430" > 25000</text><line  class="poloto_axis_lines" stroke="black" x1="150" x2="144" y1="400" y2="400" /><text  class="poloto_text" alignment-baseline="middle" text-anchor="end" x="135" y="400" > 0e0</text><line  class="poloto_axis_lines" stroke="black" x1="150" x2="144" y1="316.3955560336491" y2="316.3955560336491" /><text  class="poloto_text" alignment-baseline="middle" text-anchor="end" x="135" y="316.3955560336491" > 0.001</text><line  class="poloto_axis_lines" stroke="black" x1="150" x2="144" y1="232.79111206729823" y2="232.79111206729823" /><text  class="poloto_text" alignment-baseline="middle" text-anchor="end" x="135" y="232.79111206729823" > 0.002</text><line  class="poloto_axis_lines" stroke="black" x1="150" x2="144" y1="149.18666810094734" y2="149.18666810094734" /><text  class="poloto_text" alignment-baseline="middle" text-anchor="end" x="135" y="149.18666810094734" > 0.003</text><path  stroke="black" fill="none" class="poloto_axis_lines" style="stroke-dasharray:8.417508417508419;stroke-dashoffset:-0;" d=" M 150 400 L 650 400" /><path  stroke="black" fill="none" class="poloto_axis_lines" style="stroke-dasharray:10.45055549579386;stroke-dashoffset:-0;" d=" M 150 400 L 150 100" /></svg>