<svg class="poloto" width="800" height="500" viewBox="0 0 800 500" xmlns="http://www.w3.org/2000/svg" ><rect class="poloto_background" fill="white" x="0" y="0" width="800" height="500" /><style><style>.poloto {
            font-family: "Arial";
            stroke-width:2;
            }
            .poloto_text{fill: var(--poloto_fg_color,black);  }
            .poloto_axis_lines{stroke: var(--poloto_fg_color,black);stoke-width:3;fill:none}
            .poloto_background{fill: var(--poloto_bg_color,aliceblue); }
            .poloto0stroke{stroke:  var(--poloto_color0,blue); }
            .poloto1stroke{stroke:  var(--poloto_color1,red); }
            .poloto2stroke{stroke:  var(--poloto_color2,green); }
            .poloto3stroke{stroke:  var(--poloto_color3,gold); }
            .poloto4stroke{stroke:  var(--poloto_color4,aqua); }
            .poloto5stroke{stroke:  var(--poloto_color5,brown); }
            .poloto6stroke{stroke:  var(--poloto_color6,lime); }
            .poloto7stroke{stroke:  var(--poloto_color7,chocolate); }
            .poloto0fill{fill:var(--poloto_color0,blue);}
            .poloto1fill{fill:var(--poloto_color1,red);}
            .poloto2fill{fill:var(--poloto_color2,green);}
            .poloto3fill{fill:var(--poloto_color3,gold);}
            .poloto4fill{fill:var(--poloto_color4,aqua);}
            .poloto5fill{fill:var(--poloto_color5,brown);}
            .poloto6fill{fill:var(--poloto_color6,lime);}
            .poloto7fill{fill:var(--poloto_color7,chocolate);}</style></style><line class="poloto_axis_lines" stroke="black" x1="150" x2="150" y1="400" y2="405" /><text class="poloto_text" alignment-baseline="start" text-anchor="middle" x="150" y="430" >0</text><line class="poloto_axis_lines" stroke="black" x1="234.17508417508418" x2="234.17508417508418" y1="400" y2="405" /><text class="poloto_text" alignment-baseline="start" text-anchor="middle" x="234.17508417508418" y="430" >5000</text><line class="poloto_axis_lines" stroke="black" x1="318.35016835016836" x2="318.35016835016836" y1="400" y2="405" /><text class="poloto_text" alignment-baseline="start" text-anchor="middle" x="318.35016835016836" y="430" >10000</text><line class="poloto_axis_lines" stroke="black" x1="402.52525252525254" x2="402.52525252525254" y1="400" y2="405" /><text class="poloto_text" alignment-baseline="start" text-anchor="middle" x="402.52525252525254" y="430" >15000</text><line class="poloto_axis_lines" stroke="black" x1="486.7003367003367" x2="486.7003367003367" y1="400" y2="405" /><text class="poloto_text" alignment-baseline="start" text-anchor="middle" x="486.7003367003367" y="430" >20000</text><line class="poloto_axis_lines" stroke="black" x1="570.8754208754208" x2="570.8754208754208" y1="400" y2="405" /><text class="poloto_text" alignment-baseline="start" text-anchor="middle" x="570.8754208754208" y="430" >25000</text><line class="poloto_axis_lines" stroke="black" x1="150" x2="144" y1="347.64335745804357" y2="347.64335745804357" /><text class="poloto_text" alignment-baseline="middle" text-anchor="end" x="135" y="347.64335745804357" >0.002</text><line class="poloto_axis_lines" stroke="black" x1="150" x2="144" y1="295.28370423602684" y2="295.28370423602684" /><text class="poloto_text" alignment-baseline="middle" text-anchor="end" x="135" y="295.28370423602684" >0.004</text><line class="poloto_axis_lines" stroke="black" x1="150" x2="144" y1="242.92405101401016" y2="242.92405101401016" /><text class="poloto_text" alignment-baseline="middle" text-anchor="end" x="135" y="242.92405101401016" >0.006</text><line class="poloto_axis_lines" stroke="black" x1="150" x2="144" y1="190.56439779199343" y2="190.56439779199343" /><text class="poloto_text" alignment-baseline="middle" text-anchor="end" x="135" y="190.56439779199343" >0.008</text><line class="poloto_axis_lines" stroke="black" x1="150" x2="144" y1="138.2047445699767" y2="138.2047445699767" /><text class="poloto_text" alignment-baseline="middle" text-anchor="end" x="135" y="138.2047445699767" >0.010</text><text class="poloto_text" alignment-baseline="middle" text-anchor="start" font-size="large" x="675" y="100" >default_par</text><line class="poloto0stroke" stroke="black" x1="680" x2="730" y1="81.25" y2="81.25" /><polyline class="poloto0stroke" fill="none" stroke="black"  points="650,303.2109557338402 644.9494949494949,313.1257011284814 639.8989898989898,311.5377375655641 634.8484848484848,313.130439677098 629.7979797979798,314.55954405213976 624.7474747474747,315.5521521780961 619.6969696969697,318.6857465243008 614.6464646464647,319.1219286154668 609.5959595959596,315.1632770336162 604.5454545454545,283.18291713953977 599.4949494949494,321.40556871091843 594.4444444444445,322.31180958888507 589.3939393939394,320.50341188590306 584.3434343434344,324.1692944667627 579.2929292929293,324.80983628445426 574.2424242424242,326.6392302083783 569.1919191919192,327.4926140164174 564.1414141414141,326.78942387364566 559.090909090909,328.0362904756482 554.040404040404,322.90491356075745 548.989898989899,327.78417874538417 543.939393939394,327.8558329308185 538.8888888888889,327.8175842041398 533.8383838383838,331.1124986419215 528.7878787878788,325.6010430042922 523.7373737373737,300.0669418166444 518.6868686868687,315.24752371565046 513.6363636363636,332.81473714799586 508.5858585858586,331.68908314320237 503.5353535353535,330.0694681699123 498.4848484848485,333.13240316409383 493.4343434343434,335.47502640890013 488.3838383838384,336.7402188895303 483.3333333333333,335.3004331452313 478.2828282828283,336.5977482731132 473.2323232323232,338.630742708591 468.1818181818182,336.522585990913 463.1313131313131,340.8280679157062 458.0808080808081,326.05306389055784 453.030303030303,342.22415952939144 447.979797979798,344.197411600543 442.9292929292929,341.6224162147374 437.8787878787879,339.9379538109319 432.8282828282828,344.01399573530625 427.77777777777777,341.0399150726425 422.72727272727275,344.96476849833823 417.67676767676767,324.55034184308596 412.62626262626264,350.30966807906833 407.57575757575756,351.02835667919373 402.52525252525254,350.57748770529895 397.47474747474746,351.68054851972715 392.4242424242424,351.13187171361363 387.37373737373736,349.5539088444617 382.32323232323233,353.66613128921244 377.27272727272725,352.68409981320696 372.22222222222223,353.89038768396233 367.1717171717172,353.331134227898 362.1212121212121,352.8517030631706 357.07070707070704,347.16672753476354 352.020202020202,355.58699752731536 346.969696969697,355.71208473886276 341.9191919191919,359.4417675571735 336.86868686868684,360.9753294403931 331.8181818181818,360.913623589071 326.7676767676768,360.89752299570523 321.7171717171717,348.0626012013922 316.66666666666663,361.80067465413174 311.6161616161616,365.890722785743 306.5656565656566,364.27390905390035 301.5151515151515,367.0737891502945 296.4646464646464,364.5042129885974 291.4141414141414,368.0294575409027 286.3636363636364,372.95087224637314 281.3131313131313,357.65067471958133 276.26262626262627,370.994349084426 271.2121212121212,375.27153061665274 266.16161616161617,372.7679014381888 261.1111111111111,377.9017130769543 256.06060606060606,376.2657357120324 251.010101010101,373.23824820308215 245.95959595959596,378.9805837315939 240.9090909090909,378.23150035277314 235.85858585858585,376.6241898979903 230.8080808080808,373.5608098467564 225.75757575757575,374.4411850560314 220.7070707070707,369.86746462778177 215.65656565656565,375.23495739887716 210.6060606060606,377.17778851150666 205.55555555555554,378.9710280948809 200.50505050505052,380.0320179279453 195.45454545454544,381.61039967432293 190.40404040404042,382.15766276979946 185.35353535353534,386.85495197965304 180.3030303030303,385.42210388940595 175.25252525252526,387.64901230059155 170.2020202020202,390.3203494483256 165.15151515151516,393.0207723834245 160.1010101010101,395.13319641284016 155.05050505050505,397.90870309065946 150,400 "/><text class="poloto_text" alignment-baseline="middle" text-anchor="start" font-size="large" x="675" y="150" >default_seq</text><line class="poloto1stroke" stroke="black" x1="680" x2="730" y1="131.25" y2="131.25" /><polyline class="poloto1stroke" fill="none" stroke="black"  points="650,108.39034645073542 644.9494949494949,125.64594140693004 639.8989898989898,123.25742492607469 634.8484848484848,127.06177260988 629.7979797979798,133.9864938274514 624.7474747474747,136.1599430326973 619.6969696969697,142.6217001964796 614.6464646464647,142.1662759327545 609.5959595959596,145.21355539062264 604.5454545454545,129.9841742948136 599.4949494949494,151.62331941875547 594.4444444444445,154.27913192930922 589.3939393939394,156.85334192031647 584.3434343434344,159.8347529344313 579.2929292929293,164.54254025475586 574.2424242424242,166.13068707645948 569.1919191919192,166.93341292000625 564.1414141414141,174.15407089758844 559.090909090909,176.76058679463364 554.040404040404,179.63434636172403 548.989898989899,179.76516695529924 543.939393939394,185.14226772276086 538.8888888888889,186.79418860208887 533.8383838383838,190.46460029295224 528.7878787878788,193.5359651913025 523.7373737373737,183.44160000628315 518.6868686868687,199.91975883143726 513.6363636363636,202.93659115095681 508.5858585858586,202.49820995435545 503.5353535353535,208.81181547934605 498.4848484848485,212.0842676258955 493.4343434343434,212.84327315900185 488.3838383838384,214.32235482304398 483.3333333333333,216.05095641451567 478.2828282828283,219.2520947133767 473.2323232323232,222.55695748527057 468.1818181818182,226.52655223464456 463.1313131313131,230.23303972657789 458.0808080808081,232.79086114612662 453.030303030303,235.03921083530665 447.979797979798,235.7661460808145 442.9292929292929,238.91482000714709 437.8787878787879,243.81995086046544 432.8282828282828,243.88660469901708 427.77777777777777,245.34976902847973 422.72727272727275,254.31769481390725 417.67676767676767,252.65896717966038 412.62626262626264,259.90860622530096 407.57575757575756,264.23298998490736 402.52525252525254,265.67398000123046 397.47474747474746,268.9112988204679 392.4242424242424,272.42756369224566 387.37373737373736,275.4330077871894 382.32323232323233,278.1003656012786 377.27272727272725,280.18912306743795 372.22222222222223,283.19619031163154 367.1717171717172,286.59407000747433 362.1212121212121,288.24643594385475 357.07070707070704,290.4818266188623 352.020202020202,293.0735509138723 346.969696969697,295.97686750520654 341.9191919191919,298.1808947479341 336.86868686868684,300.70041508115094 331.8181818181818,303.2717191114043 326.7676767676768,305.75623701644224 321.7171717171717,308.3467570394281 316.66666666666663,311.10166019370456 311.6161616161616,314.27133034097915 306.5656565656566,316.82095747479866 301.5151515151515,319.98539165675106 296.4646464646464,322.2005191459617 291.4141414141414,325.23096497531895 286.3636363636364,329.9795928251567 281.3131313131313,332.21883193467613 276.26262626262627,335.074789219671 271.2121212121212,338.36135229276374 266.16161616161617,340.19181958957887 261.1111111111111,343.19922717151843 256.06060606060606,346.24572123458825 251.010101010101,349.07337812701667 245.95959595959596,351.20420657453985 240.9090909090909,350.9752901706532 235.85858585858585,355.8339256519104 230.8080808080808,358.0543676459231 225.75757575757575,361.0748651411682 220.7070707070707,363.2963543282453 215.65656565656565,367.3150886121681 210.6060606060606,369.3143896107976 205.55555555555554,371.02552925791974 200.50505050505052,374.7325665262119 195.45454545454544,377.2615377768353 190.40404040404042,379.81273570025144 185.35353535353534,382.31843308501766 180.3030303030303,385.3266784214088 175.25252525252526,387.69734026051543 170.2020202020202,390.30966807906833 165.15151515151516,392.95215505787706 160.1010101010101,394.71102052891104 155.05050505050505,397.81783291249263 150,399.9997905613871 "/><text class="poloto_text" alignment-baseline="middle" text-anchor="start" font-size="large" x="675" y="200" >direct_par</text><line class="poloto2stroke" stroke="black" x1="680" x2="730" y1="181.25" y2="181.25" /><polyline class="poloto2stroke" fill="none" stroke="black"  points="650,277.7253395850759 644.9494949494949,317.0119654897526 639.8989898989898,318.31142736341656 634.8484848484848,321.2762927271133 629.7979797979798,318.6130713256286 624.7474747474747,319.6889836598612 619.6969696969697,320.95373108343904 614.6464646464647,324.1342658587572 609.5959595959596,322.98706585666287 604.5454545454545,326.2800429872753 599.4949494949494,283.7573025353853 594.4444444444445,327.0034701360173 589.3939393939394,325.860432726354 584.3434343434344,326.5929966345833 579.2929292929293,327.63634126451177 574.2424242424242,329.40863698659723 569.1919191919192,331.262613767709 564.1414141414141,331.418148117605 559.090909090909,307.9171199049149 554.040404040404,328.94247899396163 548.989898989899,329.54995569064346 543.939393939394,331.69528776210916 538.8888888888889,328.0275725933867 533.8383838383838,332.8359428075508 528.7878787878788,319.9552848561484 523.7373737373737,334.8349296482609 518.6868686868687,334.92268442706103 513.6363636363636,339.0061876020195 508.5858585858586,338.071803410446 503.5353535353535,336.68764979769537 498.4848484848485,337.57839221830835 493.4343434343434,339.5680328609184 488.3838383838384,341.32268337986795 483.3333333333333,338.07719645472787 478.2828282828283,340.3050473396715 473.2323232323232,340.4230659980339 468.1818181818182,339.97560040159857 463.1313131313131,342.2743200771781 458.0808080808081,343.65153603587686 453.030303030303,344.778760830267 447.979797979798,343.97551139018805 442.9292929292929,347.8163275724625 437.8787878787879,344.68982795926945 432.8282828282828,344.4972491547189 427.77777777777777,345.53308017441003 422.72727272727275,349.27331346284495 417.67676767676767,325.0439101141833 412.62626262626264,330.130598065049 407.57575757575756,351.91768538916966 402.52525252525254,353.0098553957277 397.47474747474746,351.8574456081377 392.4242424242424,352.9023610276629 387.37373737373736,351.5282604683309 382.32323232323233,352.9172049893514 377.27272727272725,350.3213442817368 372.22222222222223,354.1648831659788 367.1717171717172,350.78438687500574 362.1212121212121,351.6799463837151 357.07070707070704,353.47151045818623 352.020202020202,355.61144948537003 346.969696969697,360.26096051165854 341.9191919191919,360.8121767609533 336.86868686868684,362.19276991728486 331.8181818181818,358.82758882487923 326.7676767676768,362.0654312406489 321.7171717171717,362.5001734413513 316.66666666666663,364.4881385750582 311.6161616161616,365.2807590055331 306.5656565656566,364.286449190847 301.5151515151515,369.04240739213583 296.4646464646464,367.72137334134436 291.4141414141414,367.65741602493364 286.3636363636364,372.25244683204465 281.3131313131313,370.9798978201367 276.26262626262627,371.57543651588395 271.2121212121212,372.06130791795766 266.16161616161617,370.7348808228843 261.1111111111111,375.7700730548062 256.06060606060606,374.1156389121235 251.010101010101,377.14804822847657 245.95959595959596,375.6933661628359 240.9090909090909,379.68521376482926 235.85858585858585,377.5517673346449 230.8080808080808,378.993097688714 225.75757575757575,375.49413768232614 220.7070707070707,381.6460042385139 215.65656565656565,375.79224736794566 210.6060606060606,377.9160596219371 205.55555555555554,378.39127583458014 200.50505050505052,380.89427669720544 195.45454545454544,381.1623843015288 190.40404040404042,386.88217899932846 185.35353535353534,383.9781555526758 180.3030303030303,385.88153366660254 175.25252525252526,388.39079150778787 170.2020202020202,390.7784702341916 165.15151515151516,393.2598989196895 160.1010101010101,395.3493894209939 155.05050505050505,398.0087100283135 150,399.99853392970977 "/><text class="poloto_text" alignment-baseline="middle" text-anchor="start" font-size="large" x="675" y="250" >direct_seq</text><line class="poloto3stroke" stroke="black" x1="680" x2="730" y1="231.25" y2="231.25" /><polyline class="poloto3stroke" fill="none" stroke="black"  points="650,137.11205096688644 644.9494949494949,141.2301638726247 639.8989898989898,145.23913308122158 634.8484848484848,146.43301171416343 629.7979797979798,150.15648991356733 624.7474747474747,154.1295404000539 619.6969696969697,157.26187811458124 614.6464646464647,159.1266671640834 609.5959595959596,162.56742941591497 604.5454545454545,163.84251787100413 599.4949494949494,168.20172080000313 594.4444444444445,169.16108054616353 589.3939393939394,173.27188928027726 584.3434343434344,176.53842478601263 579.2929292929293,179.50459914103988 574.2424242424242,181.86795680852208 569.1919191919192,184.6446153987122 564.1414141414141,186.72578071515434 559.090909090909,189.43976480043773 554.040404040404,187.48352961658335 548.989898989899,193.61966209697795 543.939393939394,196.92680251378692 538.8888888888889,197.579491771026 533.8383838383838,200.49451074485535 528.7878787878788,204.17756729197183 523.7373737373737,206.4648987429756 518.6868686868687,206.39026005730764 513.6363636363636,212.06869062906196 508.5858585858586,213.63131211981982 503.5353535353535,217.4072808715788 498.4848484848485,219.56442004484603 493.4343434343434,220.60019870488395 488.3838383838384,222.03849219906616 483.3333333333333,224.52911000370443 478.2828282828283,227.55753998641265 473.2323232323232,230.95659777445292 468.1818181818182,233.11695706639333 463.1313131313131,235.79939446061047 458.0808080808081,238.12701666476863 453.030303030303,240.457047412975 447.979797979798,243.24250242490643 442.9292929292929,245.58664409965613 437.8787878787879,248.6113827268122 432.8282828282828,250.2441923327142 427.77777777777777,251.05888235702216 422.72727272727275,257.72628205883393 417.67676767676767,256.81624510600864 412.62626262626264,260.1077299865043 407.57575757575756,266.1592230874655 402.52525252525254,268.7513662597013 397.47474747474746,270.80807961808864 392.4242424242424,274.05443047750697 387.37373737373736,277.02639057421527 382.32323232323233,279.9261205293037 377.27272727272725,282.3712377952921 372.22222222222223,285.4584938483952 367.1717171717172,288.0273369749472 362.1212121212121,289.7673267909947 357.07070707070704,291.63182786240407 352.020202020202,294.10658069211604 346.969696969697,296.88185175149584 341.9191919191919,299.57609624751456 336.86868686868684,301.8428241749755 331.8181818181818,304.45680132260486 326.7676767676768,307.0136802683956 321.7171717171717,309.497962554994 316.66666666666663,312.32297528493467 311.6161616161616,315.1727279510228 306.5656565656566,318.04622571984703 301.5151515151515,321.0459102529364 296.4646464646464,323.3028207454182 291.4141414141414,326.2037549725308 286.3636363636364,332.5767363442752 281.3131313131313,334.98588252850004 276.26262626262627,337.8474684762163 271.2121212121212,340.0050003468827 266.16161616161617,342.38417062963794 261.1111111111111,345.0922642539339 256.06060606060606,347.48250860334554 251.010101010101,350.2687490100753 245.95959595959596,352.81680535429814 240.9090909090909,355.04874029219303 235.85858585858585,357.0966834086658 230.8080808080808,359.78728890878557 225.75757575757575,362.5324008079094 220.7070707070707,364.29257527027397 215.65656565656565,367.8481360617949 210.6060606060606,369.9471560199857 205.55555555555554,372.3712247053788 200.50505050505052,375.0874864355773 195.45454545454544,377.6120856551567 190.40404040404042,379.974762647147 185.35353535353534,382.5948658742033 180.3030303030303,385.9713304718783 175.25252525252526,388.23190614008564 170.2020202020202,390.68880432804895 165.15151515151516,393.12431359767106 160.1010101010101,395.19233664115444 155.05050505050505,397.95873273931306 150,399.9990313464154 "/><text class="poloto_text" alignment-baseline="middle" text-anchor="start" font-size="large" x="675" y="300" >indirect_par</text><line class="poloto4stroke" stroke="black" x1="680" x2="730" y1="281.25" y2="281.25" /><polyline class="poloto4stroke" fill="none" stroke="black"  points="650,263.1224417400683 644.9494949494949,301.01488715840236 639.8989898989898,297.3842688039877 634.8484848484848,304.93081326322374 629.7979797979798,303.73714406889485 624.7474747474747,304.09470814074797 619.6969696969697,306.9213963795918 614.6464646464647,305.61565134754113 609.5959595959596,309.72067433997387 604.5454545454545,277.38963566844296 599.4949494949494,309.1454773695034 594.4444444444445,311.48951432494664 589.3939393939394,310.5783778194037 584.3434343434344,309.26174197948285 579.2929292929293,314.4143769135817 574.2424242424242,316.2795063008298 569.1919191919192,314.8033567773681 564.1414141414141,316.46732037693715 559.090909090909,314.9393871564389 554.040404040404,316.00501081881333 548.989898989899,305.66850841746873 543.939393939394,318.8036604633568 538.8888888888889,315.10751400293475 533.8383838383838,321.5679359955599 528.7878787878788,320.3949750440803 523.7373737373737,322.66471365160146 518.6868686868687,323.6817737356125 513.6363636363636,326.348712672476 508.5858585858586,325.39867294458907 503.5353535353535,320.88545409563756 498.4848484848485,326.10963849586426 493.4343434343434,328.8862185465746 488.3838383838384,326.78096778965033 483.3333333333333,327.6731762805535 478.2828282828283,327.37009242787786 473.2323232323232,331.42508577165694 468.1818181818182,331.9464046589619 463.1313131313131,331.831920277192 458.0808080808081,332.2597248238425 453.030303030303,335.0698412324415 447.979797979798,334.76476771294347 442.9292929292929,335.0686369604174 437.8787878787879,336.82663849717324 432.8282828282828,336.513632490212 427.77777777777777,335.4381128533786 422.72727272727275,335.91840795238414 417.67676767676767,316.85802810927987 412.62626262626264,341.90361373236624 407.57575757575756,343.03473932092146 402.52525252525254,342.98643754082417 397.47474747474746,342.86765966749005 392.4242424242424,346.17194648319844 387.37373737373736,347.5423556869783 382.32323232323233,346.584200212842 377.27272727272725,347.3645684844629 372.22222222222223,349.50427189320726 367.1717171717172,351.58478271398405 362.1212121212121,351.1508782677332 357.07070707070704,350.03627214976956 352.020202020202,352.46887545863785 346.969696969697,355.86264492170267 341.9191919191919,354.74429508853365 336.86868686868684,357.4149777406024 331.8181818181818,358.40625069540164 326.7676767676768,353.31602846794345 321.7171717171717,356.3954305730633 316.66666666666663,359.70704774022283 311.6161616161616,361.63663186058716 306.5656565656566,361.4226117780422 301.5151515151515,362.5741838111806 296.4646464646464,363.315622680631 291.4141414141414,361.7678451515616 286.3636363636364,364.95704544948796 281.3131313131313,360.48670915652525 276.26262626262627,368.7710273094861 271.2121212121212,370.5882999736893 266.16161616161617,363.8017297011442 261.1111111111111,373.4628711154046 256.06060606060606,374.07825411972294 251.010101010101,372.686246558989 245.95959595959596,373.99696575809577 240.9090909090909,372.8621226341618 235.85858585858585,377.2092043034399 230.8080808080808,372.7380826156788 225.75757575757575,371.3738256711526 220.7070707070707,378.0188939808652 215.65656565656565,374.3255225820639 210.6060606060606,374.9850971337017 205.55555555555554,375.91660154434794 200.50505050505052,377.05139230862875 195.45454545454544,380.1904058789419 190.40404040404042,381.0594714031209 185.35353535353534,382.5344428343851 180.3030303030303,383.7899225993426 175.25252525252526,386.47092010309615 170.2020202020202,389.43075894008354 165.15151515151516,392.48887684616864 160.1010101010101,394.819378831254 155.05050505050505,397.6862531039457 150,399.9991098858952 "/><text class="poloto_text" alignment-baseline="middle" text-anchor="start" font-size="large" x="675" y="350" >indirect_seq</text><line class="poloto5stroke" stroke="black" x1="680" x2="730" y1="331.25" y2="331.25" /><polyline class="poloto5stroke" fill="none" stroke="black"  points="650,100 644.9494949494949,100.15124085833179 639.8989898989898,107.48876558190557 634.8484848484848,110.5645286911265 629.7979797979798,114.70115073427866 624.7474747474747,116.95434369138172 619.6969696969697,122.48828780006988 614.6464646464647,124.84358208095591 609.5959595959596,126.30250527850751 604.5454545454545,131.2690278252287 599.4949494949494,134.18328758408632 594.4444444444445,136.42192455759363 589.3939393939394,141.0312495500342 584.3434343434344,143.4085872449267 579.2929292929293,146.9143540062334 574.2424242424242,149.18548014456502 569.1919191919192,153.39689795234486 564.1414141414141,156.52279542952587 559.090909090909,160.1334647560629 554.040404040404,161.81546625616699 548.989898989899,164.4186573152326 543.939393939394,168.21839734955435 538.8888888888889,170.9135319596778 533.8383838383838,172.34873623431992 528.7878787878788,177.84555734887365 523.7373737373737,179.56075486912047 518.6868686868687,184.27252152308992 513.6363636363636,185.2033190784177 508.5858585858586,189.1647980815423 503.5353535353535,192.72446910584108 498.4848484848485,194.56530361399413 493.4343434343434,196.7631262378149 488.3838383838384,198.32949144377818 483.3333333333333,201.28341363995145 478.2828282828283,203.62226698972572 473.2323232323232,207.72014288949362 468.1818181818182,211.14826028507213 463.1313131313131,214.01560579464282 458.0808080808081,216.42443782094833 453.030303030303,218.00410237882994 447.979797979798,222.50965053858448 442.9292929292929,224.73360062936302 437.8787878787879,228.6923045708668 432.8282828282828,230.39970050278356 427.77777777777777,230.87311030739042 422.72727272727275,239.59080931006994 417.67676767676767,238.07884578380438 412.62626262626264,244.93738439970312 407.57575757575756,249.5274933994112 402.52525252525254,252.2550124550525 397.47474747474746,255.251188891376 392.4242424242424,258.4668569940061 387.37373737373736,261.4327171911141 382.32323232323233,264.95712398896785 377.27272727272725,268.31400607633776 372.22222222222223,271.61329254516346 367.1717171717172,274.796026425917 362.1212121212121,276.76228848336336 357.07070707070704,279.3064963930744 352.020202020202,281.906257894854 346.969696969697,284.8218266450421 341.9191919191919,287.5194483386937 336.86868686868684,290.37896608010766 331.8181818181818,293.5909951868389 326.7676767676768,296.4612466571634 321.7171717171717,299.1352017875586 316.66666666666663,302.553763546424 311.6161616161616,305.87922984186076 306.5656565656566,308.59224527355957 301.5151515151515,312.29292084398526 296.4646464646464,315.1640624284145 291.4141414141414,318.0009084399834 286.3636363636364,322.36922194864303 281.3131313131313,325.07723703345914 276.26262626262627,328.0142470616417 271.2121212121212,330.93646548778906 266.16161616161617,333.52407955002116 261.1111111111111,336.865620258997 256.06060606060606,339.8557229755467 251.010101010101,342.92970585655814 245.95959595959596,345.8851726625015 240.9090909090909,348.92137805371317 235.85858585858585,351.0808210517222 230.8080808080808,354.9333657963183 225.75757575757575,357.79408780975643 220.7070707070707,359.83017146477437 215.65656565656565,363.8976264060203 210.6060606060606,366.1387766428823 205.55555555555554,369.413296995734 200.50505050505052,372.151942477685 195.45454545454544,375.03067621183146 190.40404040404042,377.659916198375 185.35353535353534,380.9024709829347 180.3030303030303,384.0480295099006 175.25252525252526,386.6482098889059 170.2020202020202,389.4972295198489 165.15151515151516,392.4329305567009 160.1010101010101,394.73083865765557 155.05050505050505,397.6833733230185 150,399.99887426745573 "/><text class="poloto_text" alignment-baseline="start" text-anchor="middle" font-size="x-large" x="400" y="37.5" >Bench of query:256_bytes with abspiral(num,0.1)</text><text class="poloto_text" alignment-baseline="start" text-anchor="middle" font-size="x-large" x="400" y="481.25" >Number of Elements</text><text class="poloto_text" alignment-baseline="start" text-anchor="middle" font-size="x-large" transform="rotate(-90,37.5,250)" x="37.5" y="250" >Time in Seconds</text><path stroke="black" fill="none" class="poloto_axis_lines"  d="M 150 100 L 150 400 L 650 400 "/></svg>