<svg class="poloto" width="800" height="500" viewBox="0 0 800 500" xmlns="http://www.w3.org/2000/svg"><style>.poloto {
            font-family: "Arial";
            stroke-width:2;
            }
            .poloto_text{fill: var(--poloto_fg_color,black);  }
            .poloto_axis_lines{stroke: var(--poloto_fg_color,black);stoke-width:3;fill:none}
            .poloto_background{fill: var(--poloto_bg_color,aliceblue); }
            .poloto0stroke{stroke:  var(--poloto_color0,blue); }
            .poloto1stroke{stroke:  var(--poloto_color1,red); }
            .poloto2stroke{stroke:  var(--poloto_color2,green); }
            .poloto3stroke{stroke:  var(--poloto_color3,gold); }
            .poloto4stroke{stroke:  var(--poloto_color4,aqua); }
            .poloto5stroke{stroke:  var(--poloto_color5,brown); }
            .poloto6stroke{stroke:  var(--poloto_color6,lime); }
            .poloto7stroke{stroke:  var(--poloto_color7,chocolate); }
            .poloto0fill{fill:var(--poloto_color0,blue);}
            .poloto1fill{fill:var(--poloto_color1,red);}
            .poloto2fill{fill:var(--poloto_color2,green);}
            .poloto3fill{fill:var(--poloto_color3,gold);}
            .poloto4fill{fill:var(--poloto_color4,aqua);}
            .poloto5fill{fill:var(--poloto_color5,brown);}
            .poloto6fill{fill:var(--poloto_color6,lime);}
            .poloto7fill{fill:var(--poloto_color7,chocolate);}</style><rect class="poloto_background" fill="white" x="0" y="0" width="800" height="500"/><line class="poloto_axis_lines" stroke="black" x1="150" x2="150" y1="400" y2="405"/><text class="poloto_text" alignment-baseline="start" text-anchor="middle" x="150" y="430">0</text><line class="poloto_axis_lines" stroke="black" x1="234.17508417508418" x2="234.17508417508418" y1="400" y2="405"/><text class="poloto_text" alignment-baseline="start" text-anchor="middle" x="234.17508417508418" y="430">5000</text><line class="poloto_axis_lines" stroke="black" x1="318.35016835016836" x2="318.35016835016836" y1="400" y2="405"/><text class="poloto_text" alignment-baseline="start" text-anchor="middle" x="318.35016835016836" y="430">10000</text><line class="poloto_axis_lines" stroke="black" x1="402.52525252525254" x2="402.52525252525254" y1="400" y2="405"/><text class="poloto_text" alignment-baseline="start" text-anchor="middle" x="402.52525252525254" y="430">15000</text><line class="poloto_axis_lines" stroke="black" x1="486.7003367003367" x2="486.7003367003367" y1="400" y2="405"/><text class="poloto_text" alignment-baseline="start" text-anchor="middle" x="486.7003367003367" y="430">20000</text><line class="poloto_axis_lines" stroke="black" x1="570.8754208754208" x2="570.8754208754208" y1="400" y2="405"/><text class="poloto_text" alignment-baseline="start" text-anchor="middle" x="570.8754208754208" y="430">25000</text><line class="poloto_axis_lines" stroke="black" x1="150" x2="144" y1="345.5079408617874" y2="345.5079408617874"/><text class="poloto_text" alignment-baseline="middle" text-anchor="end" x="135" y="345.5079408617874">0.002</text><line class="poloto_axis_lines" stroke="black" x1="150" x2="144" y1="291.01272100082286" y2="291.01272100082286"/><text class="poloto_text" alignment-baseline="middle" text-anchor="end" x="135" y="291.01272100082286">0.004</text><line class="poloto_axis_lines" stroke="black" x1="150" x2="144" y1="236.51750113985838" y2="236.51750113985838"/><text class="poloto_text" alignment-baseline="middle" text-anchor="end" x="135" y="236.51750113985838">0.006</text><line class="poloto_axis_lines" stroke="black" x1="150" x2="144" y1="182.02228127889384" y2="182.02228127889384"/><text class="poloto_text" alignment-baseline="middle" text-anchor="end" x="135" y="182.02228127889384">0.008</text><line class="poloto_axis_lines" stroke="black" x1="150" x2="144" y1="127.5270614179293" y2="127.5270614179293"/><text class="poloto_text" alignment-baseline="middle" text-anchor="end" x="135" y="127.5270614179293">0.010</text><text class="poloto_text" alignment-baseline="middle" text-anchor="start" font-size="large" x="675" y="100">default_par</text><line class="poloto0stroke" stroke="black" x1="680" x2="730" y1="81.25" y2="81.25"/><polyline class="poloto0stroke" fill="none" stroke="black" points="650,288.4561322562656 644.9494949494949,313.2096322117612 639.8989898989898,313.6390272966556 634.8484848484848,314.6707852942833 629.7979797979798,315.583362246075 624.7474747474747,317.5937726495758 619.6969696969697,314.9662583763694 614.6464646464647,311.40183503570347 609.5959595959596,319.05446252272907 604.5454545454545,320.8563469674318 599.4949494949494,320.13014366756465 594.4444444444445,322.2162479314523 589.3939393939394,321.5148399566218 584.3434343434344,320.8648209741202 579.2929292929293,323.14168575513116 574.2424242424242,322.7456144971817 569.1919191919192,324.66071276114565 564.1414141414141,322.9785543144774 559.090909090909,324.89564165396627 554.040404040404,328.779979182826 548.989898989899,324.14949310362994 543.939393939394,326.98983845800325 538.8888888888889,320.5547431731113 533.8383838383838,328.22794260563444 528.7878787878788,329.50114167485606 523.7373737373737,329.7374874433931 518.6868686868687,334.3848125455262 513.6363636363636,333.48337986619606 508.5858585858586,331.95473445387614 503.5353535353535,335.8324508135228 498.4848484848485,317.1760122941216 493.4343434343434,333.7284993651307 488.3838383838384,334.293969014018 483.3333333333333,304.5811860702952 478.2828282828283,335.23501971818706 473.2323232323232,338.42816712594026 468.1818181818182,336.7259271907533 463.1313131313131,336.7008593896172 458.0808080808081,336.9786487728585 453.030303030303,340.9757641592205 447.979797979798,338.89639005498566 442.9292929292929,338.38906680569005 437.8787878787879,339.5605232994312 432.8282828282828,341.2990570510457 427.77777777777777,342.28882648177046 422.72727272727275,343.17358362382316 417.67676767676767,343.1222491267141 412.62626262626264,346.20395380985167 407.57575757575756,347.114323705239 402.52525252525254,347.94480360831017 397.47474747474746,349.863089842636 392.4242424242424,349.9491105471865 387.37373737373736,349.77287300615615 382.32323232323233,352.5715022697259 377.27272727272725,345.2388979613338 372.22222222222223,352.0152423129951 367.1717171717172,350.0989724018042 362.1212121212121,355.7156584748241 357.07070707070704,356.182137556834 352.020202020202,356.79022246765254 346.969696969697,358.07437507606625 341.9191919191919,361.1032466435486 336.86868686868684,356.58741850693997 331.8181818181818,337.08535041334625 326.7676767676768,361.00352039120304 321.7171717171717,359.3066754827822 316.66666666666663,364.68047636088187 311.6161616161616,361.5443582007132 306.5656565656566,363.5559674990509 301.5151515151515,365.0210714850129 296.4646464646464,365.6640605841524 291.4141414141414,363.8394243851577 286.3636363636364,367.18761069341537 281.3131313131313,369.25477786840133 276.26262626262627,371.4743409257285 271.2121212121212,370.88543833230096 266.16161616161617,370.53506131620486 261.1111111111111,373.7546116579807 256.06060606060606,375.33660789054454 251.010101010101,375.2251924135388 245.95959595959596,372.248227542974 240.9090909090909,374.7046813210368 235.85858585858585,375.08642033616286 230.8080808080808,378.9687960371076 225.75757575757575,379.41532986864837 220.7070707070707,376.71021440236 215.65656565656565,375.1944298619273 210.6060606060606,374.55618184691565 205.55555555555554,376.01523686347315 200.50505050505052,377.61745082260535 195.45454545454544,379.6860893685276 190.40404040404042,381.1084963497285 185.35353535353534,384.940409477082 180.3030303030303,384.707605897836 175.25252525252526,387.1412534263869 170.2020202020202,389.9807813524624 165.15151515151516,392.75377061508755 160.1010101010101,394.9398191122002 155.05050505050505,397.8060769436174 150,400 "/><text class="poloto_text" alignment-baseline="middle" text-anchor="start" font-size="large" x="675" y="150">default_seq</text><line class="poloto1stroke" stroke="black" x1="680" x2="730" y1="131.25" y2="131.25"/><polyline class="poloto1stroke" fill="none" stroke="black" points="650,125.8161294951745 644.9494949494949,129.362296937187 639.8989898989898,130.94816233036096 634.8484848484848,134.27967310134113 629.7979797979798,136.98634168139552 624.7474747474747,139.7484319000485 619.6969696969697,143.90292948136897 614.6464646464647,145.67345192704178 609.5959595959596,149.1239530105884 604.5454545454545,151.32087330406335 599.4949494949494,154.95668538274714 594.4444444444445,155.74934560323481 589.3939393939394,159.6176070422356 584.3434343434344,162.8368031650824 579.2929292929293,166.2869500296999 574.2424242424242,168.27204740357521 569.1919191919192,170.94947929817423 564.1414141414141,173.7781626754973 559.090909090909,177.32253177525445 554.040404040404,179.20809363005375 548.989898989899,181.8298314099548 543.939393939394,184.09279990990123 538.8888888888889,186.40778409720494 533.8383838383838,189.30540392765215 528.7878787878788,192.3138125400767 523.7373737373737,194.76702385255774 518.6868686868687,197.9102536389183 513.6363636363636,200.4699758586176 508.5858585858586,203.01337675996854 503.5353535353535,205.20868944445758 498.4848484848485,207.6683311928822 493.4343434343434,209.3754756978567 488.3838383838384,211.0617757812344 483.3333333333333,214.38287796522113 478.2828282828283,216.70625441638344 473.2323232323232,220.17539286512252 468.1818181818182,222.6803201412516 463.1313131313131,225.8545032124932 458.0808080808081,227.83349712174413 453.030303030303,229.73221957213985 447.979797979798,232.8704085506633 442.9292929292929,235.6547600666295 437.8787878787879,239.3015529321153 432.8282828282828,240.63295289614845 427.77777777777777,241.3827798738254 422.72727272727275,250.26383860695685 417.67676767676767,252.91680214783824 412.62626262626264,255.36859658460293 407.57575757575756,259.1209194433495 402.52525252525254,260.9566726671959 397.47474747474746,264.0458704430643 392.4242424242424,267.4841101021422 387.37373737373736,270.10780970995825 382.32323232323233,273.29360026303027 377.27272727272725,275.8608973182902 372.22222222222223,279.1777488751278 367.1717171717172,281.8049906722349 362.1212121212121,283.2593590998843 357.07070707070704,285.87752744288446 352.020202020202,288.566130857555 346.969696969697,291.6236396630742 341.9191919191919,293.6326331908586 336.86868686868684,296.28001097170426 331.8181818181818,298.9868702850282 326.7676767676768,301.72135867482154 321.7171717171717,304.2270761316387 316.66666666666663,307.4351824772437 311.6161616161616,310.22770827618905 306.5656565656566,313.5507722880908 301.5151515151515,316.8842721345959 296.4646464646464,319.2789828285562 291.4141414141414,321.1577872760928 286.3636363636364,327.5008946298594 281.3131313131313,330.17195058373466 276.26262626262627,333.0817228482108 271.2121212121212,335.41796017126035 266.16161616161617,337.9296721022621 261.1111111111111,341.10794231499324 256.06060606060606,343.9302225039827 251.010101010101,346.49384113190206 245.95959595959596,349.19473321865115 240.9090909090909,351.9412650520338 235.85858585858585,354.14968383689944 230.8080808080808,356.77924168085053 225.75757575757575,360.1722775550538 220.7070707070707,361.6421226251437 215.65656565656565,365.894711602214 210.6060606060606,368.1772983813103 205.55555555555554,370.7620066593159 200.50505050505052,373.72766377175947 195.45454545454544,376.1577963586294 190.40404040404042,379.0542445418496 185.35353535353534,381.63952501966367 180.3030303030303,384.78684194751384 175.25252525252526,387.2611156624711 170.2020202020202,389.9407273658646 165.15151515151516,392.7231987967455 160.1010101010101,394.8682396409128 155.05050505050505,397.76972863197017 150,399.9994550478014 "/><text class="poloto_text" alignment-baseline="middle" text-anchor="start" font-size="large" x="675" y="200">direct_par</text><line class="poloto2stroke" stroke="black" x1="680" x2="730" y1="181.25" y2="181.25"/><polyline class="poloto2stroke" fill="none" stroke="black" points="650,285.6106915988353 644.9494949494949,270.15650118890403 639.8989898989898,311.57106994098166 634.8484848484848,314.2136521424796 629.7979797979798,309.68599854316113 624.7474747474747,316.29335321803353 619.6969696969697,317.6158977088393 614.6464646464647,317.8148870041616 609.5959595959596,319.70788745647195 604.5454545454545,319.5538022223151 599.4949494949494,315.0243230331313 594.4444444444445,321.5435861850985 589.3939393939394,323.2355265237318 584.3434343434344,323.2294775543272 579.2929292929293,323.3557157311351 574.2424242424242,324.06576119831357 569.1919191919192,324.36608435496737 564.1414141414141,325.44029412886664 559.090909090909,326.60965255664325 554.040404040404,328.25442728248686 548.989898989899,326.08102167638197 543.939393939394,328.4976939439462 538.8888888888889,327.81745736203175 533.8383838383838,329.4695889425566 528.7878787878788,330.6705818454625 523.7373737373737,329.2669212198937 518.6868686868687,333.0386171293008 513.6363636363636,332.45581800049774 508.5858585858586,334.55276681313774 503.5353535353535,335.17289516754556 498.4848484848485,335.90324010412223 493.4343434343434,328.2691137442394 488.3838383838384,332.23911775872057 483.3333333333333,334.2583836354488 478.2828282828283,337.3952919763055 473.2323232323232,337.24812763507094 468.1818181818182,339.13535159407604 463.1313131313131,340.4059076451344 458.0808080808081,337.37828946770884 453.030303030303,323.0589620113822 447.979797979798,339.95891060422485 442.9292929292929,340.3591779941036 437.8787878787879,340.92475663343066 432.8282828282828,340.478958487358 427.77777777777777,339.8608192084751 422.72727272727275,340.6716535847864 417.67676767676767,345.76308748117646 412.62626262626264,346.4556944779994 407.57575757575756,345.66314324795144 402.52525252525254,347.1732330379087 397.47474747474746,348.03820841515187 392.4242424242424,347.87891888749823 387.37373737373736,352.44221236060577 382.32323232323233,350.50289097141365 377.27272727272725,350.5719909101973 372.22222222222223,351.6569634900192 367.1717171717172,352.5870334073863 362.1212121212121,353.4771583285953 357.07070707070704,356.3514269573321 352.020202020202,356.75360167990596 346.969696969697,358.2997400578013 341.9191919191919,357.9360117128393 336.86868686868684,356.59872626506115 331.8181818181818,357.5533735265855 326.7676767676768,361.2189127477035 321.7171717171717,359.53544641575854 316.66666666666663,362.3956552777712 311.6161616161616,364.87148210649457 306.5656565656566,363.1071721158859 301.5151515151515,362.892351959194 296.4646464646464,363.2309035125802 291.4141414141414,368.6136416067371 286.3636363636364,370.52743198542436 281.3131313131313,369.82190962149434 276.26262626262627,371.87809600967836 271.2121212121212,369.3436595719945 266.16161616161617,374.4011974416311 261.1111111111111,372.1648226089768 256.06060606060606,374.75141097206756 251.010101010101,375.32399224714675 245.95959595959596,376.3023176817007 240.9090909090909,377.8412354429644 235.85858585858585,375.73483170967853 230.8080808080808,377.99477572492265 225.75757575757575,377.2748666229494 220.7070707070707,382.1013992555953 215.65656565656565,375.6734155968952 210.6060606060606,376.462887847021 205.55555555555554,377.8056500643952 200.50505050505052,379.28712986392543 195.45454545454544,379.5775348905645 190.40404040404042,381.2319825179335 185.35353535353534,383.2258263745965 180.3030303030303,384.891036807888 175.25252525252526,387.3872993440592 170.2020202020202,390.0947036095817 165.15151515151516,392.72676823364645 160.1010101010101,395.03883692668757 155.05050505050505,397.84713909178265 150,399.99896459082265 "/><text class="poloto_text" alignment-baseline="middle" text-anchor="start" font-size="large" x="675" y="250">direct_seq</text><line class="poloto3stroke" stroke="black" x1="680" x2="730" y1="231.25" y2="231.25"/><polyline class="poloto3stroke" fill="none" stroke="black" points="650,127.74923842930241 644.9494949494949,130.58320784295205 639.8989898989898,132.2611974053009 634.8484848484848,135.13475759617955 629.7979797979798,138.5340876682767 624.7474747474747,140.69869229637408 619.6969696969697,145.501301527501 614.6464646464647,147.96775517840825 609.5959595959596,150.26565511428555 604.5454545454545,152.95586613794194 599.4949494949494,156.12961324742466 594.4444444444445,157.33706383388403 589.3939393939394,161.1018116027589 584.3434343434344,164.5463999549506 579.2929292929293,167.5164984278129 574.2424242424242,169.70739699949317 569.1919191919192,172.4199510632926 564.1414141414141,175.45664269482498 559.090909090909,178.40551527955142 554.040404040404,180.90226827270135 548.989898989899,183.06346694955744 543.939393939394,185.5710644914597 538.8888888888889,187.98749153053458 533.8383838383838,190.70350604079513 528.7878787878788,194.09035670754412 523.7373737373737,196.00452855277044 518.6868686868687,198.78182293776462 513.6363636363636,202.13213455959686 508.5858585858586,204.3286188913129 503.5353535353535,206.85469031274806 498.4848484848485,209.1625628738599 493.4343434343434,210.75281513223266 488.3838383838384,213.157307718158 483.3333333333333,215.36648943610163 478.2828282828283,217.99637425137192 473.2323232323232,221.60673706238066 468.1818181818182,223.8901685173849 463.1313131313131,226.86408165563742 458.0808080808081,228.78362128002007 453.030303030303,231.06386476466238 447.979797979798,233.76440263248242 442.9292929292929,236.72828865028058 437.8787878787879,240.26083228732787 432.8282828282828,241.4164034244796 427.77777777777777,242.2990080053478 422.72727272727275,250.91017916211783 417.67676767676767,253.09451105980486 412.62626262626264,256.1947441176951 407.57575757575756,259.82785868299584 402.52525252525254,261.94834943061574 397.47474747474746,264.76727816358374 392.4242424242424,267.6282499586745 387.37373737373736,271.0137927401468 382.32323232323233,274.0171060495144 377.27272727272725,276.29116432670247 372.22222222222223,278.0760735104186 367.1717171717172,282.6081139749358 362.1212121212121,283.82559168184963 357.07070707070704,286.14060311676326 352.020202020202,288.93977733253166 346.969696969697,291.91333625185507 341.9191919191919,294.62736168659075 336.86868686868684,297.18329648850965 331.8181818181818,297.8391737071463 326.7676767676768,302.1500998170777 321.7171717171717,304.8569591304016 316.66666666666663,307.66616046662443 311.6161616161616,310.50615160206866 306.5656565656566,313.6249947775414 301.5151515151515,317.210344282634 296.4646464646464,319.70004014481196 291.4141414141414,322.2358117153824 286.3636363636364,327.98388576348714 281.3131313131313,330.53663259504424 276.26262626262627,333.8993146317849 271.2121212121212,336.11639815660834 266.16161616161617,338.46819386492814 261.1111111111111,341.4571204362524 256.06060606060606,344.226022557388 251.010101010101,346.99192744143124 245.95959595959596,349.6138287069919 240.9090909090909,352.21989911118294 235.85858585858585,354.48703649544876 230.8080808080808,357.5930732942542 225.75757575757575,360.1806698189124 220.7070707070707,362.2427144432314 215.65656565656565,366.0570801097897 210.6060606060606,368.33983037454567 205.55555555555554,371.06600824331025 200.50505050505052,373.7822134868403 195.45454545454544,376.52122497988216 190.40404040404042,378.78860759263733 185.35353535353534,381.55955328451773 180.3030303030303,384.7687767821299 175.25252525252526,387.32945266817677 170.2020202020202,389.98745701689535 165.15151515151516,392.73597792580296 160.1010101010101,394.9194378999722 155.05050505050505,397.7887747113116 150,399.99912807648224 "/><text class="poloto_text" alignment-baseline="middle" text-anchor="start" font-size="large" x="675" y="300">indirect_par</text><line class="poloto4stroke" stroke="black" x1="680" x2="730" y1="281.25" y2="281.25"/><polyline class="poloto4stroke" fill="none" stroke="black" points="650,265.34964133062795 644.9494949494949,303.0125956618172 639.8989898989898,304.28963664403904 634.8484848484848,306.7397144813781 629.7979797979798,309.20832069346983 624.7474747474747,308.3657428515895 619.6969696969697,306.72617241924263 614.6464646464647,309.96365168835274 609.5959595959596,312.12160789962707 604.5454545454545,308.04947984312645 599.4949494949494,309.62084950781735 594.4444444444445,314.14158221421343 589.3939393939394,313.9609305603743 584.3434343434344,314.9420080035313 579.2929292929293,315.5609374631022 574.2424242424242,315.0289551268195 569.1919191919192,313.58556748597204 564.1414141414141,318.3594032410124 559.090909090909,317.61211029105897 554.040404040404,320.64779376102393 548.989898989899,318.7562919272598 543.939393939394,319.9892190290042 538.8888888888889,321.4977284575855 533.8383838383838,321.75132196320845 528.7878787878788,323.10258543488095 523.7373737373737,326.30704060075533 518.6868686868687,325.19416646836464 513.6363636363636,326.2363330529857 508.5858585858586,327.1363761042094 503.5353535353535,324.1223544841392 498.4848484848485,328.21442779110896 493.4343434343434,330.8928133520555 488.3838383838384,327.5040553526113 483.3333333333333,329.2987464282925 478.2828282828283,329.60244828857765 473.2323232323232,330.5410739554629 468.1818181818182,329.0909561549626 463.1313131313131,333.4092936147951 458.0808080808081,333.1151011703757 453.030303030303,333.26499027260326 447.979797979798,333.0959461005946 442.9292929292929,334.8557874831746 437.8787878787879,337.2719965413701 432.8282828282828,339.2157320433709 427.77777777777777,336.38089070620356 422.72727272727275,338.34743245771625 417.67676767676767,339.1451879812609 412.62626262626264,341.26657790000854 407.57575757575756,340.8089542912261 402.52525252525254,342.2590993393363 397.47474747474746,343.3141267958446 392.4242424242424,344.01430862822815 387.37373737373736,344.19918366160647 382.32323232323233,348.6029968737909 377.27272727272725,345.9127586025246 372.22222222222223,345.07740137727586 367.1717171717172,349.26086316795244 362.1212121212121,353.37617868619293 357.07070707070704,353.4760411765881 352.020202020202,353.4439707396999 346.969696969697,356.09093980639665 341.9191919191919,353.5055503381428 336.86868686868684,356.06295651099805 331.8181818181818,358.021541960411 326.7676767676768,359.54866150657483 321.7171717171717,357.43435596640916 316.66666666666663,360.8095719037178 311.6161616161616,359.0341448882576 306.5656565656566,357.6936442225076 301.5151515151515,363.3948523815319 296.4646464646464,361.93961203036474 291.4141414141414,362.76055526996026 286.3636363636364,365.43136599534614 281.3131313131313,368.8505323274727 276.26262626262627,367.42510086156943 271.2121212121212,370.23977896738825 266.16161616161617,354.91169049621533 261.1111111111111,369.11461616291894 256.06060606060606,371.9861055354428 251.010101010101,371.6730849925614 245.95959595959596,371.9392941415822 240.9090909090909,374.12381677253876 235.85858585858585,378.0027865222422 230.8080808080808,375.118490773051 225.75757575757575,379.2458224872708 220.7070707070707,377.6359519497481 215.65656565656565,371.60905310922476 210.6060606060606,373.0728219623002 205.55555555555554,378.1822392812444 200.50505050505052,377.6367148828262 195.45454545454544,379.6602858819234 190.40404040404042,381.54211481416223 185.35353535353534,383.4539706125444 180.3030303030303,383.73821767933924 175.25252525252526,386.53406768669606 170.2020202020202,389.47062435173393 165.15151515151516,392.3230403973065 160.1010101010101,394.7771508809152 155.05050505050505,397.69972952205876 150,399.9994005525815 "/><text class="poloto_text" alignment-baseline="middle" text-anchor="start" font-size="large" x="675" y="350">indirect_seq</text><line class="poloto5stroke" stroke="black" x1="680" x2="730" y1="331.25" y2="331.25"/><polyline class="poloto5stroke" fill="none" stroke="black" points="650,100 644.9494949494949,103.63232438461273 639.8989898989898,106.55359514047962 634.8484848484848,109.02958545486251 629.7979797979798,112.96160630110063 624.7474747474747,115.91388483706834 619.6969696969697,118.64709258919504 614.6464646464647,122.40418377967944 609.5959595959596,125.98438348649518 604.5454545454545,128.61721104363795 599.4949494949494,131.90169243987816 594.4444444444445,134.41032539095778 589.3939393939394,137.3043757845041 584.3434343434344,141.65184093935227 579.2929292929293,145.77124359908228 574.2424242424242,148.47793942674664 569.1919191919192,151.25101043220158 564.1414141414141,153.76841711367882 559.090909090909,157.45605414645047 554.040404040404,160.246536374651 548.989898989899,162.82388779797532 543.939393939394,165.34611730641026 538.8888888888889,168.55367869981671 533.8383838383838,171.41159876259522 528.7878787878788,175.8806700005631 523.7373737373737,178.18211212573138 518.6868686868687,181.4009267820391 513.6363636363636,184.5508867280525 508.5858585858586,186.66611868695585 503.5353535353535,190.30070462319281 498.4848484848485,193.01903518029744 493.4343434343434,194.60389241190393 488.3838383838384,196.96440735540148 483.3333333333333,199.75968516294978 478.2828282828283,203.0641118096591 473.2323232323232,207.05239897040363 468.1818181818182,208.65235137791163 463.1313131313131,212.84960045921306 458.0808080808081,215.19758150214255 453.030303030303,217.4853180795158 447.979797979798,219.97218019026099 442.9292929292929,223.9105769772228 437.8787878787879,227.54595309414776 432.8282828282828,228.96865979905797 427.77777777777777,229.75750535415534 422.72727272727275,239.05509830029408 417.67676767676767,242.35573752922306 412.62626262626264,244.92415173649016 407.57575757575756,248.6800985273575 402.52525252525254,250.92799909901237 397.47474747474746,253.9894860555815 392.4242424242424,258.1360545824122 387.37373737373736,261.4490369786397 382.32323232323233,264.29886450126884 377.27272727272725,267.3167552819492 372.22222222222223,268.0867454909747 367.1717171717172,273.7859100792542 362.1212121212121,275.61174517308586 357.07070707070704,278.27449060593233 352.020202020202,280.98102294793705 346.969696969697,284.53313036891444 341.9191919191919,287.01876633721275 336.86868686868684,289.6191147433184 331.8181818181818,292.28038880522865 326.7676767676768,295.41961319292943 321.7171717171717,298.3407749583566 316.66666666666663,301.73939659259554 311.6161616161616,305.12515735494736 306.5656565656566,308.27476308203165 301.5151515151515,311.46826470871395 296.4646464646464,314.00185647048994 291.4141414141414,317.51984988383435 286.3636363636364,321.01868822739766 281.3131313131313,324.0993575013579 276.26262626262627,327.4814943315889 271.2121212121212,329.99241608190266 266.16161616161617,333.25139371524796 261.1111111111111,336.3186571651223 256.06060606060606,339.4360289696589 251.010101010101,342.72440677411913 245.95959595959596,345.42099373849925 240.9090909090909,348.0963275671336 235.85858585858585,351.17209227130627 230.8080808080808,354.3902802325856 225.75757575757575,357.09626762239174 220.7070707070707,359.52702690429004 215.65656565656565,363.48798471227434 210.6060606060606,365.761034827895 205.55555555555554,368.7729583820006 200.50505050505052,371.7770346244462 195.45454545454544,374.69756969484496 190.40404040404042,377.69761329102084 185.35353535353534,380.662670956046 180.3030303030303,383.73799969845976 175.25252525252526,386.4221890003215 170.2020202020202,389.34261508028055 165.15151515151516,392.1180566277995 160.1010101010101,394.7065795711953 155.05050505050505,397.6871683738808 150,399.9992370669219 "/><text class="poloto_text" alignment-baseline="start" text-anchor="middle" font-size="x-large" x="400" y="37.5">Bench of query:16_bytes with abspiral(num,0.1)</text><text class="poloto_text" alignment-baseline="start" text-anchor="middle" font-size="x-large" x="400" y="481.25">Number of Elements</text><text class="poloto_text" alignment-baseline="start" text-anchor="middle" font-size="x-large" transform="rotate(-90,37.5,250)" x="37.5" y="250">Time in Seconds</text><path stroke="black" fill="none" class="poloto_axis_lines" d=" M 150 100 L 150 400 L 650 400"/></svg>