<svg class="poloto" width="800" height="500" viewBox="0 0 800 500" xmlns="http://www.w3.org/2000/svg"><circle  r="1e5" class="poloto_background" /><text  class="poloto_text poloto_legend_text" x="675" y="100" >default_seq</text><line  class="poloto_scatter poloto_legend_icon poloto0stroke poloto0legend" stroke="black" x1="685" x2="685" y1="81.25" y2="81.25" /><path  class="poloto_scatter poloto0stroke" d=" M 650.00 238.13 h 0 M 644.95 238.97 h 0 M 639.90 238.08 h 0 M 634.85 241.01 h 0 M 629.80 244.28 h 0 M 624.75 245.94 h 0 M 619.70 245.31 h 0 M 614.65 247.79 h 0 M 609.60 252.72 h 0 M 604.55 248.67 h 0 M 599.49 254.85 h 0 M 594.44 255.66 h 0 M 589.39 256.95 h 0 M 584.34 256.79 h 0 M 579.29 260.97 h 0 M 574.24 249.29 h 0 M 569.19 264.04 h 0 M 564.14 264.41 h 0 M 559.09 271.31 h 0 M 554.04 270.95 h 0 M 548.99 270.81 h 0 M 543.94 255.80 h 0 M 538.89 275.35 h 0 M 533.84 277.73 h 0 M 528.79 279.51 h 0 M 523.74 280.18 h 0 M 518.69 281.45 h 0 M 513.64 279.34 h 0 M 508.59 285.25 h 0 M 503.54 285.50 h 0 M 498.48 288.17 h 0 M 493.43 291.75 h 0 M 488.38 293.11 h 0 M 483.33 292.78 h 0 M 478.28 295.27 h 0 M 473.23 299.39 h 0 M 468.18 271.45 h 0 M 463.13 285.23 h 0 M 458.08 275.56 h 0 M 453.03 274.11 h 0 M 447.98 298.94 h 0 M 442.93 307.20 h 0 M 437.88 285.50 h 0 M 432.83 309.38 h 0 M 427.78 282.92 h 0 M 422.73 290.01 h 0 M 417.68 311.35 h 0 M 412.63 315.55 h 0 M 407.58 317.70 h 0 M 402.53 318.03 h 0 M 397.47 322.60 h 0 M 392.42 319.92 h 0 M 387.37 319.27 h 0 M 382.32 322.01 h 0 M 377.27 326.00 h 0 M 372.22 320.62 h 0 M 367.17 322.37 h 0 M 362.12 328.56 h 0 M 357.07 326.84 h 0 M 352.02 336.11 h 0 M 346.97 319.60 h 0 M 341.92 336.73 h 0 M 336.87 331.20 h 0 M 331.82 332.66 h 0 M 326.77 344.10 h 0 M 321.72 345.15 h 0 M 316.67 347.21 h 0 M 311.62 341.69 h 0 M 306.57 343.54 h 0 M 301.52 340.35 h 0 M 296.46 350.23 h 0 M 291.41 354.66 h 0 M 286.36 362.72 h 0 M 281.31 363.93 h 0 M 276.26 365.44 h 0 M 271.21 366.55 h 0 M 266.16 369.48 h 0 M 261.11 366.79 h 0 M 256.06 371.97 h 0 M 251.01 367.41 h 0 M 245.96 363.54 h 0 M 240.91 369.28 h 0 M 235.86 375.92 h 0 M 230.81 376.44 h 0 M 225.76 375.16 h 0 M 220.71 380.94 h 0 M 215.66 377.01 h 0 M 210.61 379.39 h 0 M 205.56 381.77 h 0 M 200.51 386.88 h 0 M 195.45 383.48 h 0 M 190.40 389.72 h 0 M 185.35 391.11 h 0 M 180.30 393.27 h 0 M 175.25 394.19 h 0 M 170.20 395.44 h 0 M 165.15 395.72 h 0 M 160.10 397.56 h 0 M 155.05 399.19 h 0 M 150.00 399.99 h 0" /><text  class="poloto_text poloto_legend_text" x="675" y="150" >direct_seq</text><line  class="poloto_scatter poloto_legend_icon poloto1stroke poloto1legend" stroke="black" x1="685" x2="685" y1="131.25" y2="131.25" /><path  class="poloto_scatter poloto1stroke" d=" M 650.00 203.09 h 0 M 644.95 208.54 h 0 M 639.90 208.92 h 0 M 634.85 213.80 h 0 M 629.80 216.74 h 0 M 624.75 216.69 h 0 M 619.70 216.14 h 0 M 614.65 217.91 h 0 M 609.60 223.54 h 0 M 604.55 221.13 h 0 M 599.49 225.31 h 0 M 594.44 227.02 h 0 M 589.39 226.11 h 0 M 584.34 226.58 h 0 M 579.29 229.03 h 0 M 574.24 234.69 h 0 M 569.19 231.93 h 0 M 564.14 236.69 h 0 M 559.09 247.73 h 0 M 554.04 238.83 h 0 M 548.99 236.41 h 0 M 543.94 249.53 h 0 M 538.89 251.23 h 0 M 533.84 253.62 h 0 M 528.79 255.84 h 0 M 523.74 258.14 h 0 M 518.69 259.33 h 0 M 513.64 255.49 h 0 M 508.59 263.78 h 0 M 503.54 264.23 h 0 M 498.48 269.12 h 0 M 493.43 271.71 h 0 M 488.38 274.80 h 0 M 483.33 274.15 h 0 M 478.28 276.91 h 0 M 473.23 280.71 h 0 M 468.18 278.86 h 0 M 463.13 247.44 h 0 M 458.08 278.20 h 0 M 453.03 262.36 h 0 M 447.98 281.00 h 0 M 442.93 287.43 h 0 M 437.88 293.67 h 0 M 432.83 271.08 h 0 M 427.78 277.58 h 0 M 422.73 264.41 h 0 M 417.68 264.20 h 0 M 412.63 300.55 h 0 M 407.58 303.66 h 0 M 402.53 305.97 h 0 M 397.47 308.62 h 0 M 392.42 306.47 h 0 M 387.37 310.53 h 0 M 382.32 315.04 h 0 M 377.27 299.64 h 0 M 372.22 317.14 h 0 M 367.17 318.53 h 0 M 362.12 303.89 h 0 M 357.07 300.04 h 0 M 352.02 306.03 h 0 M 346.97 328.56 h 0 M 341.92 328.22 h 0 M 336.87 330.29 h 0 M 331.82 331.88 h 0 M 326.77 314.87 h 0 M 321.72 330.61 h 0 M 316.67 338.89 h 0 M 311.62 333.59 h 0 M 306.57 331.14 h 0 M 301.52 326.00 h 0 M 296.46 337.72 h 0 M 291.41 345.54 h 0 M 286.36 356.06 h 0 M 281.31 358.82 h 0 M 276.26 359.31 h 0 M 271.21 360.45 h 0 M 266.16 364.09 h 0 M 261.11 366.92 h 0 M 256.06 367.37 h 0 M 251.01 363.31 h 0 M 245.96 361.39 h 0 M 240.91 364.77 h 0 M 235.86 365.67 h 0 M 230.81 374.22 h 0 M 225.76 378.00 h 0 M 220.71 372.24 h 0 M 215.66 380.04 h 0 M 210.61 376.26 h 0 M 205.56 378.41 h 0 M 200.51 380.62 h 0 M 195.45 382.37 h 0 M 190.40 388.22 h 0 M 185.35 389.77 h 0 M 180.30 392.67 h 0 M 175.25 394.26 h 0 M 170.20 395.37 h 0 M 165.15 395.82 h 0 M 160.10 396.90 h 0 M 155.05 399.08 h 0 M 150.00 399.98 h 0" /><text  class="poloto_text poloto_legend_text" x="675" y="200" >indirect_seq</text><line  class="poloto_scatter poloto_legend_icon poloto2stroke poloto2legend" stroke="black" x1="685" x2="685" y1="181.25" y2="181.25" /><path  class="poloto_scatter poloto2stroke" d=" M 650.00 100.00 h 0 M 644.95 103.88 h 0 M 639.90 101.48 h 0 M 634.85 109.26 h 0 M 629.80 115.84 h 0 M 624.75 120.91 h 0 M 619.70 120.93 h 0 M 614.65 124.64 h 0 M 609.60 133.36 h 0 M 604.55 121.42 h 0 M 599.49 141.35 h 0 M 594.44 137.97 h 0 M 589.39 144.34 h 0 M 584.34 119.89 h 0 M 579.29 153.72 h 0 M 574.24 157.78 h 0 M 569.19 162.14 h 0 M 564.14 128.42 h 0 M 559.09 171.12 h 0 M 554.04 175.27 h 0 M 548.99 178.47 h 0 M 543.94 179.08 h 0 M 538.89 184.01 h 0 M 533.84 188.27 h 0 M 528.79 192.81 h 0 M 523.74 192.79 h 0 M 518.69 198.03 h 0 M 513.64 188.70 h 0 M 508.59 203.85 h 0 M 503.54 203.50 h 0 M 498.48 211.25 h 0 M 493.43 218.11 h 0 M 488.38 221.92 h 0 M 483.33 218.71 h 0 M 478.28 225.13 h 0 M 473.23 232.40 h 0 M 468.18 198.04 h 0 M 463.13 170.12 h 0 M 458.08 160.94 h 0 M 453.03 165.94 h 0 M 447.98 186.44 h 0 M 442.93 245.87 h 0 M 437.88 221.08 h 0 M 432.83 243.18 h 0 M 427.78 186.79 h 0 M 422.73 220.61 h 0 M 417.68 252.12 h 0 M 412.63 265.38 h 0 M 407.58 261.43 h 0 M 402.53 269.40 h 0 M 397.47 273.64 h 0 M 392.42 240.04 h 0 M 387.37 280.06 h 0 M 382.32 284.86 h 0 M 377.27 272.33 h 0 M 372.22 286.91 h 0 M 367.17 290.59 h 0 M 362.12 273.57 h 0 M 357.07 280.94 h 0 M 352.02 292.71 h 0 M 346.97 303.10 h 0 M 341.92 277.75 h 0 M 336.87 308.37 h 0 M 331.82 292.42 h 0 M 326.77 290.03 h 0 M 321.72 290.81 h 0 M 316.67 293.18 h 0 M 311.62 321.76 h 0 M 306.57 313.49 h 0 M 301.52 308.55 h 0 M 296.46 333.63 h 0 M 291.41 330.55 h 0 M 286.36 342.27 h 0 M 281.31 341.88 h 0 M 276.26 346.61 h 0 M 271.21 349.43 h 0 M 266.16 353.53 h 0 M 261.11 356.79 h 0 M 256.06 357.82 h 0 M 251.01 354.64 h 0 M 245.96 348.93 h 0 M 240.91 355.63 h 0 M 235.86 360.30 h 0 M 230.81 368.97 h 0 M 225.76 363.59 h 0 M 220.71 372.00 h 0 M 215.66 370.05 h 0 M 210.61 372.67 h 0 M 205.56 375.02 h 0 M 200.51 381.68 h 0 M 195.45 379.28 h 0 M 190.40 386.34 h 0 M 185.35 387.79 h 0 M 180.30 390.97 h 0 M 175.25 392.62 h 0 M 170.20 394.70 h 0 M 165.15 394.96 h 0 M 160.10 397.00 h 0 M 155.05 398.95 h 0 M 150.00 399.99 h 0" /><text  class="poloto_labels poloto_text poloto_title" x="400" y="37.5" >Bench of rebal:32_bytes with abspiral(num,1.5)</text><text  class="poloto_labels poloto_text poloto_xname" x="400" y="481.25" >Number of Elements</text><text  class="poloto_labels poloto_text poloto_yname" transform="rotate(-90,37.5,250)" x="37.5" y="250" >Time in Seconds</text><text  class="poloto_tick_labels poloto_text" dominant-baseline="middle" text-anchor="start" x="150" y="70" ></text><line  class="poloto_axis_lines" stroke="black" x1="150" x2="144" y1="400" y2="400" /><text  class="poloto_tick_labels poloto_text" dominant-baseline="middle" text-anchor="end" x="135" y="400" >0e0</text><line  class="poloto_axis_lines" stroke="black" x1="150" x2="144" y1="331.8960370303948" y2="331.8960370303948" /><text  class="poloto_tick_labels poloto_text" dominant-baseline="middle" text-anchor="end" x="135" y="331.8960370303948" >0.001</text><line  class="poloto_axis_lines" stroke="black" x1="150" x2="144" y1="263.79207406078956" y2="263.79207406078956" /><text  class="poloto_tick_labels poloto_text" dominant-baseline="middle" text-anchor="end" x="135" y="263.79207406078956" >0.002</text><line  class="poloto_axis_lines" stroke="black" x1="150" x2="144" y1="195.6881110911844" y2="195.6881110911844" /><text  class="poloto_tick_labels poloto_text" dominant-baseline="middle" text-anchor="end" x="135" y="195.6881110911844" >0.003</text><line  class="poloto_axis_lines" stroke="black" x1="150" x2="144" y1="127.58414812157918" y2="127.58414812157918" /><text  class="poloto_tick_labels poloto_text" dominant-baseline="middle" text-anchor="end" x="135" y="127.58414812157918" >0.004</text><text  class="poloto_tick_labels poloto_text" dominant-baseline="middle" text-anchor="start" x="440.00000000000006" y="70" ></text><line  class="poloto_axis_lines" stroke="black" x1="150" x2="150" y1="400" y2="405" /><text  class="poloto_tick_labels poloto_text" dominant-baseline="start" text-anchor="middle" x="150" y="430" >0</text><line  class="poloto_axis_lines" stroke="black" x1="234.17508417508418" x2="234.17508417508418" y1="400" y2="405" /><text  class="poloto_tick_labels poloto_text" dominant-baseline="start" text-anchor="middle" x="234.17508417508418" y="430" >5000</text><line  class="poloto_axis_lines" stroke="black" x1="318.35016835016836" x2="318.35016835016836" y1="400" y2="405" /><text  class="poloto_tick_labels poloto_text" dominant-baseline="start" text-anchor="middle" x="318.35016835016836" y="430" >10000</text><line  class="poloto_axis_lines" stroke="black" x1="402.52525252525254" x2="402.52525252525254" y1="400" y2="405" /><text  class="poloto_tick_labels poloto_text" dominant-baseline="start" text-anchor="middle" x="402.52525252525254" y="430" >15000</text><line  class="poloto_axis_lines" stroke="black" x1="486.7003367003367" x2="486.7003367003367" y1="400" y2="405" /><text  class="poloto_tick_labels poloto_text" dominant-baseline="start" text-anchor="middle" x="486.7003367003367" y="430" >20000</text><line  class="poloto_axis_lines" stroke="black" x1="570.8754208754208" x2="570.8754208754208" y1="400" y2="405" /><text  class="poloto_tick_labels poloto_text" dominant-baseline="start" text-anchor="middle" x="570.8754208754208" y="430" >25000</text><path  stroke="black" fill="none" class="poloto_axis_lines" style="stroke-dasharray:8.417508417508419;stroke-dashoffset:-0;" d=" M 150 400 L 650 400" /><path  stroke="black" fill="none" class="poloto_axis_lines" style="stroke-dasharray:6.810396296960521;stroke-dashoffset:-0;" d=" M 150 400 L 150 100" /></svg>