<svg class="poloto" width="800" height="500" viewBox="0 0 800 500" xmlns="http://www.w3.org/2000/svg"><circle  r="1e5" class="poloto_background" /><text  class="poloto_text poloto_legend_text" x="675" y="100" >default_par</text><line  class="poloto_scatter poloto_legend_icon poloto0stroke poloto0legend" stroke="black" x1="685" x2="685" y1="81.25" y2="81.25" /><path  class="poloto_scatter poloto0stroke" d=" M 650.00 321.65 h 0 M 644.95 314.35 h 0 M 639.90 324.44 h 0 M 634.85 313.23 h 0 M 629.80 322.49 h 0 M 624.75 324.38 h 0 M 619.70 321.21 h 0 M 614.65 284.60 h 0 M 609.60 264.73 h 0 M 604.55 329.76 h 0 M 599.49 327.17 h 0 M 594.44 329.58 h 0 M 589.39 280.54 h 0 M 584.34 323.29 h 0 M 579.29 310.71 h 0 M 574.24 305.33 h 0 M 569.19 280.45 h 0 M 564.14 334.66 h 0 M 559.09 338.80 h 0 M 554.04 335.13 h 0 M 548.99 338.00 h 0 M 543.94 318.62 h 0 M 538.89 342.08 h 0 M 533.84 339.30 h 0 M 528.79 335.62 h 0 M 523.74 331.60 h 0 M 518.69 342.47 h 0 M 513.64 342.77 h 0 M 508.59 343.47 h 0 M 503.54 343.76 h 0 M 498.48 344.11 h 0 M 493.43 345.45 h 0 M 488.38 348.57 h 0 M 483.33 347.18 h 0 M 478.28 312.99 h 0 M 473.23 311.29 h 0 M 468.18 348.97 h 0 M 463.13 338.61 h 0 M 458.08 326.54 h 0 M 453.03 331.73 h 0 M 447.98 352.64 h 0 M 442.93 354.66 h 0 M 437.88 353.12 h 0 M 432.83 352.15 h 0 M 427.78 357.91 h 0 M 422.73 334.39 h 0 M 417.68 354.20 h 0 M 412.63 359.40 h 0 M 407.58 353.75 h 0 M 402.53 359.44 h 0 M 397.47 338.91 h 0 M 392.42 361.58 h 0 M 387.37 362.56 h 0 M 382.32 364.28 h 0 M 377.27 364.94 h 0 M 372.22 364.46 h 0 M 367.17 366.63 h 0 M 362.12 365.53 h 0 M 357.07 365.36 h 0 M 352.02 367.85 h 0 M 346.97 368.64 h 0 M 341.92 366.56 h 0 M 336.87 369.89 h 0 M 331.82 370.47 h 0 M 326.77 363.87 h 0 M 321.72 373.15 h 0 M 316.67 374.15 h 0 M 311.62 374.49 h 0 M 306.57 372.69 h 0 M 301.52 374.09 h 0 M 296.46 376.02 h 0 M 291.41 376.78 h 0 M 286.36 376.46 h 0 M 281.31 374.87 h 0 M 276.26 376.51 h 0 M 271.21 378.30 h 0 M 266.16 379.07 h 0 M 261.11 381.80 h 0 M 256.06 381.52 h 0 M 251.01 380.90 h 0 M 245.96 381.97 h 0 M 240.91 382.41 h 0 M 235.86 381.63 h 0 M 230.81 384.83 h 0 M 225.76 385.18 h 0 M 220.71 385.75 h 0 M 215.66 387.49 h 0 M 210.61 386.57 h 0 M 205.56 388.78 h 0 M 200.51 389.95 h 0 M 195.45 390.36 h 0 M 190.40 390.79 h 0 M 185.35 391.48 h 0 M 180.30 388.18 h 0 M 175.25 390.85 h 0 M 170.20 390.77 h 0 M 165.15 394.38 h 0 M 160.10 396.61 h 0 M 155.05 398.41 h 0 M 150.00 400.00 h 0" /><text  class="poloto_text poloto_legend_text" x="675" y="150" >default_seq</text><line  class="poloto_scatter poloto_legend_icon poloto1stroke poloto1legend" stroke="black" x1="685" x2="685" y1="131.25" y2="131.25" /><path  class="poloto_scatter poloto1stroke" d=" M 650.00 194.79 h 0 M 644.95 186.89 h 0 M 639.90 193.35 h 0 M 634.85 194.93 h 0 M 629.80 188.47 h 0 M 624.75 203.58 h 0 M 619.70 202.22 h 0 M 614.65 208.33 h 0 M 609.60 100.00 h 0 M 604.55 210.37 h 0 M 599.49 204.89 h 0 M 594.44 214.87 h 0 M 589.39 235.00 h 0 M 584.34 223.56 h 0 M 579.29 171.09 h 0 M 574.24 226.15 h 0 M 569.19 194.32 h 0 M 564.14 249.13 h 0 M 559.09 251.71 h 0 M 554.04 235.72 h 0 M 548.99 243.37 h 0 M 543.94 247.38 h 0 M 538.89 256.56 h 0 M 533.84 243.78 h 0 M 528.79 235.35 h 0 M 523.74 257.39 h 0 M 518.69 251.65 h 0 M 513.64 254.26 h 0 M 508.59 253.76 h 0 M 503.54 273.52 h 0 M 498.48 263.51 h 0 M 493.43 267.99 h 0 M 488.38 268.47 h 0 M 483.33 280.44 h 0 M 478.28 231.98 h 0 M 473.23 283.71 h 0 M 468.18 274.91 h 0 M 463.13 255.02 h 0 M 458.08 216.76 h 0 M 453.03 284.77 h 0 M 447.98 279.45 h 0 M 442.93 296.26 h 0 M 437.88 272.62 h 0 M 432.83 287.50 h 0 M 427.78 300.93 h 0 M 422.73 292.93 h 0 M 417.68 283.99 h 0 M 412.63 302.58 h 0 M 407.58 303.62 h 0 M 402.53 295.22 h 0 M 397.47 276.67 h 0 M 392.42 299.93 h 0 M 387.37 314.44 h 0 M 382.32 316.20 h 0 M 377.27 316.48 h 0 M 372.22 316.26 h 0 M 367.17 317.17 h 0 M 362.12 318.21 h 0 M 357.07 320.53 h 0 M 352.02 323.72 h 0 M 346.97 326.36 h 0 M 341.92 327.71 h 0 M 336.87 332.76 h 0 M 331.82 331.96 h 0 M 326.77 319.84 h 0 M 321.72 336.00 h 0 M 316.67 339.37 h 0 M 311.62 340.32 h 0 M 306.57 344.25 h 0 M 301.52 343.41 h 0 M 296.46 345.91 h 0 M 291.41 347.88 h 0 M 286.36 351.47 h 0 M 281.31 352.01 h 0 M 276.26 353.43 h 0 M 271.21 356.76 h 0 M 266.16 355.66 h 0 M 261.11 354.92 h 0 M 256.06 361.51 h 0 M 251.01 364.39 h 0 M 245.96 364.73 h 0 M 240.91 367.09 h 0 M 235.86 369.34 h 0 M 230.81 370.80 h 0 M 225.76 372.21 h 0 M 220.71 374.81 h 0 M 215.66 375.87 h 0 M 210.61 378.07 h 0 M 205.56 380.03 h 0 M 200.51 381.79 h 0 M 195.45 383.78 h 0 M 190.40 384.80 h 0 M 185.35 387.03 h 0 M 180.30 389.23 h 0 M 175.25 390.96 h 0 M 170.20 392.45 h 0 M 165.15 393.99 h 0 M 160.10 396.53 h 0 M 155.05 398.27 h 0 M 150.00 400.00 h 0" /><text  class="poloto_text poloto_legend_text" x="675" y="200" >direct_par</text><line  class="poloto_scatter poloto_legend_icon poloto2stroke poloto2legend" stroke="black" x1="685" x2="685" y1="181.25" y2="181.25" /><path  class="poloto_scatter poloto2stroke" d=" M 650.00 336.30 h 0 M 644.95 297.74 h 0 M 639.90 332.27 h 0 M 634.85 337.41 h 0 M 629.80 332.97 h 0 M 624.75 339.56 h 0 M 619.70 315.34 h 0 M 614.65 337.42 h 0 M 609.60 335.76 h 0 M 604.55 337.91 h 0 M 599.49 322.53 h 0 M 594.44 342.08 h 0 M 589.39 342.83 h 0 M 584.34 340.73 h 0 M 579.29 309.32 h 0 M 574.24 296.22 h 0 M 569.19 292.00 h 0 M 564.14 346.73 h 0 M 559.09 345.41 h 0 M 554.04 345.86 h 0 M 548.99 348.07 h 0 M 543.94 347.38 h 0 M 538.89 347.29 h 0 M 533.84 346.96 h 0 M 528.79 348.65 h 0 M 523.74 331.60 h 0 M 518.69 351.33 h 0 M 513.64 350.10 h 0 M 508.59 347.01 h 0 M 503.54 353.22 h 0 M 498.48 352.93 h 0 M 493.43 353.84 h 0 M 488.38 354.99 h 0 M 483.33 354.50 h 0 M 478.28 356.25 h 0 M 473.23 341.03 h 0 M 468.18 353.68 h 0 M 463.13 354.14 h 0 M 458.08 311.82 h 0 M 453.03 304.37 h 0 M 447.98 357.55 h 0 M 442.93 343.51 h 0 M 437.88 361.07 h 0 M 432.83 359.95 h 0 M 427.78 344.27 h 0 M 422.73 356.70 h 0 M 417.68 346.91 h 0 M 412.63 363.11 h 0 M 407.58 362.93 h 0 M 402.53 346.47 h 0 M 397.47 364.37 h 0 M 392.42 366.29 h 0 M 387.37 366.13 h 0 M 382.32 366.48 h 0 M 377.27 368.42 h 0 M 372.22 368.38 h 0 M 367.17 368.33 h 0 M 362.12 370.23 h 0 M 357.07 355.74 h 0 M 352.02 370.93 h 0 M 346.97 371.42 h 0 M 341.92 369.65 h 0 M 336.87 371.87 h 0 M 331.82 373.68 h 0 M 326.77 373.51 h 0 M 321.72 372.63 h 0 M 316.67 375.33 h 0 M 311.62 376.14 h 0 M 306.57 376.06 h 0 M 301.52 376.12 h 0 M 296.46 375.31 h 0 M 291.41 378.45 h 0 M 286.36 380.21 h 0 M 281.31 381.45 h 0 M 276.26 378.66 h 0 M 271.21 380.41 h 0 M 266.16 381.29 h 0 M 261.11 382.48 h 0 M 256.06 382.81 h 0 M 251.01 381.80 h 0 M 245.96 384.39 h 0 M 240.91 383.55 h 0 M 235.86 385.94 h 0 M 230.81 385.68 h 0 M 225.76 386.08 h 0 M 220.71 387.64 h 0 M 215.66 388.30 h 0 M 210.61 388.88 h 0 M 205.56 389.34 h 0 M 200.51 389.86 h 0 M 195.45 390.77 h 0 M 190.40 391.35 h 0 M 185.35 391.81 h 0 M 180.30 388.99 h 0 M 175.25 389.61 h 0 M 170.20 392.46 h 0 M 165.15 394.90 h 0 M 160.10 396.56 h 0 M 155.05 398.51 h 0 M 150.00 400.00 h 0" /><text  class="poloto_text poloto_legend_text" x="675" y="250" >direct_seq</text><line  class="poloto_scatter poloto_legend_icon poloto3stroke poloto3legend" stroke="black" x1="685" x2="685" y1="231.25" y2="231.25" /><path  class="poloto_scatter poloto3stroke" d=" M 650.00 233.92 h 0 M 644.95 233.66 h 0 M 639.90 229.24 h 0 M 634.85 236.59 h 0 M 629.80 239.94 h 0 M 624.75 241.96 h 0 M 619.70 232.16 h 0 M 614.65 237.80 h 0 M 609.60 248.97 h 0 M 604.55 189.35 h 0 M 599.49 168.12 h 0 M 594.44 225.00 h 0 M 589.39 249.25 h 0 M 584.34 256.10 h 0 M 579.29 250.71 h 0 M 574.24 235.07 h 0 M 569.19 220.46 h 0 M 564.14 229.30 h 0 M 559.09 267.20 h 0 M 554.04 267.46 h 0 M 548.99 271.51 h 0 M 543.94 272.46 h 0 M 538.89 271.46 h 0 M 533.84 270.97 h 0 M 528.79 265.80 h 0 M 523.74 280.23 h 0 M 518.69 280.24 h 0 M 513.64 278.35 h 0 M 508.59 283.55 h 0 M 503.54 283.48 h 0 M 498.48 285.88 h 0 M 493.43 287.48 h 0 M 488.38 289.65 h 0 M 483.33 289.22 h 0 M 478.28 293.87 h 0 M 473.23 294.95 h 0 M 468.18 293.07 h 0 M 463.13 281.64 h 0 M 458.08 276.40 h 0 M 453.03 282.37 h 0 M 447.98 295.09 h 0 M 442.93 305.17 h 0 M 437.88 295.03 h 0 M 432.83 306.94 h 0 M 427.78 310.15 h 0 M 422.73 300.31 h 0 M 417.68 306.07 h 0 M 412.63 309.67 h 0 M 407.58 310.43 h 0 M 402.53 286.04 h 0 M 397.47 315.56 h 0 M 392.42 294.26 h 0 M 387.37 317.92 h 0 M 382.32 321.61 h 0 M 377.27 323.30 h 0 M 372.22 324.92 h 0 M 367.17 327.74 h 0 M 362.12 329.17 h 0 M 357.07 330.44 h 0 M 352.02 331.13 h 0 M 346.97 334.28 h 0 M 341.92 335.32 h 0 M 336.87 337.16 h 0 M 331.82 339.19 h 0 M 326.77 340.17 h 0 M 321.72 339.41 h 0 M 316.67 342.39 h 0 M 311.62 345.76 h 0 M 306.57 346.36 h 0 M 301.52 348.85 h 0 M 296.46 350.89 h 0 M 291.41 351.32 h 0 M 286.36 354.62 h 0 M 281.31 356.82 h 0 M 276.26 358.70 h 0 M 271.21 360.52 h 0 M 266.16 362.31 h 0 M 261.11 362.94 h 0 M 256.06 365.42 h 0 M 251.01 367.76 h 0 M 245.96 368.66 h 0 M 240.91 370.96 h 0 M 235.86 371.36 h 0 M 230.81 373.52 h 0 M 225.76 375.67 h 0 M 220.71 376.91 h 0 M 215.66 377.49 h 0 M 210.61 378.74 h 0 M 205.56 381.30 h 0 M 200.51 383.05 h 0 M 195.45 384.84 h 0 M 190.40 386.51 h 0 M 185.35 387.39 h 0 M 180.30 389.99 h 0 M 175.25 391.41 h 0 M 170.20 393.25 h 0 M 165.15 394.78 h 0 M 160.10 396.28 h 0 M 155.05 398.48 h 0 M 150.00 399.99 h 0" /><text  class="poloto_text poloto_legend_text" x="675" y="300" >indirect_par</text><line  class="poloto_scatter poloto_legend_icon poloto4stroke poloto4legend" stroke="black" x1="685" x2="685" y1="281.25" y2="281.25" /><path  class="poloto_scatter poloto4stroke" d=" M 650.00 315.45 h 0 M 644.95 313.67 h 0 M 639.90 321.09 h 0 M 634.85 320.97 h 0 M 629.80 325.64 h 0 M 624.75 323.20 h 0 M 619.70 315.29 h 0 M 614.65 329.21 h 0 M 609.60 267.18 h 0 M 604.55 326.92 h 0 M 599.49 256.57 h 0 M 594.44 333.26 h 0 M 589.39 326.59 h 0 M 584.34 328.84 h 0 M 579.29 256.39 h 0 M 574.24 282.04 h 0 M 569.19 321.44 h 0 M 564.14 330.00 h 0 M 559.09 331.57 h 0 M 554.04 334.37 h 0 M 548.99 333.50 h 0 M 543.94 336.70 h 0 M 538.89 335.12 h 0 M 533.84 338.20 h 0 M 528.79 340.92 h 0 M 523.74 338.48 h 0 M 518.69 341.40 h 0 M 513.64 316.44 h 0 M 508.59 341.71 h 0 M 503.54 341.93 h 0 M 498.48 343.44 h 0 M 493.43 342.87 h 0 M 488.38 341.78 h 0 M 483.33 343.58 h 0 M 478.28 326.06 h 0 M 473.23 344.94 h 0 M 468.18 346.55 h 0 M 463.13 348.46 h 0 M 458.08 333.43 h 0 M 453.03 325.98 h 0 M 447.98 339.73 h 0 M 442.93 351.43 h 0 M 437.88 354.55 h 0 M 432.83 352.15 h 0 M 427.78 355.49 h 0 M 422.73 352.08 h 0 M 417.68 347.50 h 0 M 412.63 358.24 h 0 M 407.58 357.44 h 0 M 402.53 357.12 h 0 M 397.47 335.11 h 0 M 392.42 336.06 h 0 M 387.37 359.78 h 0 M 382.32 362.36 h 0 M 377.27 362.23 h 0 M 372.22 360.15 h 0 M 367.17 362.86 h 0 M 362.12 364.39 h 0 M 357.07 366.34 h 0 M 352.02 366.76 h 0 M 346.97 367.05 h 0 M 341.92 366.62 h 0 M 336.87 367.24 h 0 M 331.82 370.09 h 0 M 326.77 370.77 h 0 M 321.72 370.46 h 0 M 316.67 369.89 h 0 M 311.62 371.91 h 0 M 306.57 371.90 h 0 M 301.52 371.36 h 0 M 296.46 372.22 h 0 M 291.41 375.91 h 0 M 286.36 376.63 h 0 M 281.31 376.20 h 0 M 276.26 376.90 h 0 M 271.21 369.40 h 0 M 266.16 379.80 h 0 M 261.11 379.38 h 0 M 256.06 381.16 h 0 M 251.01 381.47 h 0 M 245.96 382.17 h 0 M 240.91 381.75 h 0 M 235.86 382.89 h 0 M 230.81 383.97 h 0 M 225.76 384.80 h 0 M 220.71 384.83 h 0 M 215.66 386.59 h 0 M 210.61 385.89 h 0 M 205.56 388.15 h 0 M 200.51 389.61 h 0 M 195.45 390.46 h 0 M 190.40 390.61 h 0 M 185.35 391.36 h 0 M 180.30 387.30 h 0 M 175.25 388.68 h 0 M 170.20 392.22 h 0 M 165.15 394.50 h 0 M 160.10 396.64 h 0 M 155.05 398.35 h 0 M 150.00 400.00 h 0" /><text  class="poloto_text poloto_legend_text" x="675" y="350" >indirect_seq</text><line  class="poloto_scatter poloto_legend_icon poloto5stroke poloto5legend" stroke="black" x1="685" x2="685" y1="331.25" y2="331.25" /><path  class="poloto_scatter poloto5stroke" d=" M 650.00 191.46 h 0 M 644.95 200.08 h 0 M 639.90 200.45 h 0 M 634.85 206.64 h 0 M 629.80 199.52 h 0 M 624.75 193.93 h 0 M 619.70 188.67 h 0 M 614.65 178.82 h 0 M 609.60 110.53 h 0 M 604.55 202.72 h 0 M 599.49 165.04 h 0 M 594.44 216.72 h 0 M 589.39 170.94 h 0 M 584.34 199.11 h 0 M 579.29 168.11 h 0 M 574.24 166.15 h 0 M 569.19 224.01 h 0 M 564.14 237.69 h 0 M 559.09 226.08 h 0 M 554.04 250.91 h 0 M 548.99 232.10 h 0 M 543.94 233.43 h 0 M 538.89 197.78 h 0 M 533.84 236.02 h 0 M 528.79 241.45 h 0 M 523.74 240.19 h 0 M 518.69 245.92 h 0 M 513.64 260.58 h 0 M 508.59 266.98 h 0 M 503.54 253.93 h 0 M 498.48 258.56 h 0 M 493.43 269.04 h 0 M 488.38 260.22 h 0 M 483.33 265.07 h 0 M 478.28 263.93 h 0 M 473.23 266.98 h 0 M 468.18 246.54 h 0 M 463.13 273.92 h 0 M 458.08 248.63 h 0 M 453.03 260.91 h 0 M 447.98 282.33 h 0 M 442.93 279.97 h 0 M 437.88 291.02 h 0 M 432.83 288.09 h 0 M 427.78 278.10 h 0 M 422.73 290.61 h 0 M 417.68 285.13 h 0 M 412.63 296.55 h 0 M 407.58 293.16 h 0 M 402.53 280.97 h 0 M 397.47 298.59 h 0 M 392.42 295.57 h 0 M 387.37 302.46 h 0 M 382.32 311.82 h 0 M 377.27 309.15 h 0 M 372.22 307.01 h 0 M 367.17 308.40 h 0 M 362.12 309.17 h 0 M 357.07 321.86 h 0 M 352.02 318.61 h 0 M 346.97 324.46 h 0 M 341.92 324.13 h 0 M 336.87 321.20 h 0 M 331.82 329.40 h 0 M 326.77 331.28 h 0 M 321.72 331.62 h 0 M 316.67 334.52 h 0 M 311.62 338.21 h 0 M 306.57 342.41 h 0 M 301.52 337.24 h 0 M 296.46 344.45 h 0 M 291.41 341.67 h 0 M 286.36 344.93 h 0 M 281.31 348.27 h 0 M 276.26 348.36 h 0 M 271.21 355.70 h 0 M 266.16 357.28 h 0 M 261.11 357.81 h 0 M 256.06 359.02 h 0 M 251.01 359.09 h 0 M 245.96 364.83 h 0 M 240.91 366.73 h 0 M 235.86 368.65 h 0 M 230.81 369.61 h 0 M 225.76 372.41 h 0 M 220.71 374.66 h 0 M 215.66 373.19 h 0 M 210.61 376.91 h 0 M 205.56 379.18 h 0 M 200.51 381.28 h 0 M 195.45 383.17 h 0 M 190.40 384.39 h 0 M 185.35 386.49 h 0 M 180.30 388.13 h 0 M 175.25 390.50 h 0 M 170.20 392.49 h 0 M 165.15 394.18 h 0 M 160.10 396.60 h 0 M 155.05 398.33 h 0 M 150.00 400.00 h 0" /><text  class="poloto_labels poloto_text poloto_title" x="400" y="37.5" >Bench of query:128_bytes with abspiral(num,1.5)</text><text  class="poloto_labels poloto_text poloto_xname" x="400" y="481.25" >Number of Elements</text><text  class="poloto_labels poloto_text poloto_yname" transform="rotate(-90,37.5,250)" x="37.5" y="250" >Time in Seconds</text><text  class="poloto_tick_labels poloto_text" dominant-baseline="middle" text-anchor="start" x="150" y="70" ></text><line  class="poloto_axis_lines" stroke="black" x1="150" x2="144" y1="400" y2="400" /><text  class="poloto_tick_labels poloto_text" dominant-baseline="middle" text-anchor="end" x="135" y="400" >0e0</text><line  class="poloto_axis_lines" stroke="black" x1="150" x2="144" y1="349.26032548148146" y2="349.26032548148146" /><text  class="poloto_tick_labels poloto_text" dominant-baseline="middle" text-anchor="end" x="135" y="349.26032548148146" >0.001</text><line  class="poloto_axis_lines" stroke="black" x1="150" x2="144" y1="298.5206509629629" y2="298.5206509629629" /><text  class="poloto_tick_labels poloto_text" dominant-baseline="middle" text-anchor="end" x="135" y="298.5206509629629" >0.002</text><line  class="poloto_axis_lines" stroke="black" x1="150" x2="144" y1="247.78097644444438" y2="247.78097644444438" /><text  class="poloto_tick_labels poloto_text" dominant-baseline="middle" text-anchor="end" x="135" y="247.78097644444438" >0.003</text><line  class="poloto_axis_lines" stroke="black" x1="150" x2="144" y1="197.04130192592584" y2="197.04130192592584" /><text  class="poloto_tick_labels poloto_text" dominant-baseline="middle" text-anchor="end" x="135" y="197.04130192592584" >0.004</text><line  class="poloto_axis_lines" stroke="black" x1="150" x2="144" y1="146.30162740740727" y2="146.30162740740727" /><text  class="poloto_tick_labels poloto_text" dominant-baseline="middle" text-anchor="end" x="135" y="146.30162740740727" >0.005</text><text  class="poloto_tick_labels poloto_text" dominant-baseline="middle" text-anchor="start" x="440.00000000000006" y="70" ></text><line  class="poloto_axis_lines" stroke="black" x1="150" x2="150" y1="400" y2="405" /><text  class="poloto_tick_labels poloto_text" dominant-baseline="start" text-anchor="middle" x="150" y="430" >0</text><line  class="poloto_axis_lines" stroke="black" x1="234.17508417508418" x2="234.17508417508418" y1="400" y2="405" /><text  class="poloto_tick_labels poloto_text" dominant-baseline="start" text-anchor="middle" x="234.17508417508418" y="430" >5000</text><line  class="poloto_axis_lines" stroke="black" x1="318.35016835016836" x2="318.35016835016836" y1="400" y2="405" /><text  class="poloto_tick_labels poloto_text" dominant-baseline="start" text-anchor="middle" x="318.35016835016836" y="430" >10000</text><line  class="poloto_axis_lines" stroke="black" x1="402.52525252525254" x2="402.52525252525254" y1="400" y2="405" /><text  class="poloto_tick_labels poloto_text" dominant-baseline="start" text-anchor="middle" x="402.52525252525254" y="430" >15000</text><line  class="poloto_axis_lines" stroke="black" x1="486.7003367003367" x2="486.7003367003367" y1="400" y2="405" /><text  class="poloto_tick_labels poloto_text" dominant-baseline="start" text-anchor="middle" x="486.7003367003367" y="430" >20000</text><line  class="poloto_axis_lines" stroke="black" x1="570.8754208754208" x2="570.8754208754208" y1="400" y2="405" /><text  class="poloto_tick_labels poloto_text" dominant-baseline="start" text-anchor="middle" x="570.8754208754208" y="430" >25000</text><path  stroke="black" fill="none" class="poloto_axis_lines" style="stroke-dasharray:8.417508417508419;stroke-dashoffset:-0;" d=" M 150 400 L 650 400" /><path  stroke="black" fill="none" class="poloto_axis_lines" style="stroke-dasharray:12.684918629629635;stroke-dashoffset:-0;" d=" M 150 400 L 150 100" /></svg>