<svg class="poloto" width="800" height="500" viewBox="0 0 800 500" xmlns="http://www.w3.org/2000/svg"><style>.poloto {
    font-family: "Arial";
    stroke-width:2;
    }
    .poloto_text{fill: var(--poloto_fg_color,black);  }
    .poloto_axis_lines{stroke: var(--poloto_fg_color,black);stoke-width:3;fill:none}
    .poloto_background{fill: var(--poloto_bg_color,aliceblue); }
    .poloto0stroke{stroke:  var(--poloto_color0,blue); }
    .poloto1stroke{stroke:  var(--poloto_color1,red); }
    .poloto2stroke{stroke:  var(--poloto_color2,green); }
    .poloto3stroke{stroke:  var(--poloto_color3,gold); }
    .poloto4stroke{stroke:  var(--poloto_color4,aqua); }
    .poloto5stroke{stroke:  var(--poloto_color5,brown); }
    .poloto6stroke{stroke:  var(--poloto_color6,lime); }
    .poloto7stroke{stroke:  var(--poloto_color7,chocolate); }
    .poloto0fill{fill:var(--poloto_color0,blue);}
    .poloto1fill{fill:var(--poloto_color1,red);}
    .poloto2fill{fill:var(--poloto_color2,green);}
    .poloto3fill{fill:var(--poloto_color3,gold);}
    .poloto4fill{fill:var(--poloto_color4,aqua);}
    .poloto5fill{fill:var(--poloto_color5,brown);}
    .poloto6fill{fill:var(--poloto_color6,lime);}
    .poloto7fill{fill:var(--poloto_color7,chocolate);}</style><rect class="poloto_background" fill="white" x="0" y="0" width="800" height="500"/><line class="poloto_axis_lines" stroke="black" x1="150" x2="150" y1="400" y2="405"/><text class="poloto_text" alignment-baseline="start" text-anchor="middle" x="150" y="430">0</text><line class="poloto_axis_lines" stroke="black" x1="234.17508417508418" x2="234.17508417508418" y1="400" y2="405"/><text class="poloto_text" alignment-baseline="start" text-anchor="middle" x="234.17508417508418" y="430">5000</text><line class="poloto_axis_lines" stroke="black" x1="318.35016835016836" x2="318.35016835016836" y1="400" y2="405"/><text class="poloto_text" alignment-baseline="start" text-anchor="middle" x="318.35016835016836" y="430">10000</text><line class="poloto_axis_lines" stroke="black" x1="402.52525252525254" x2="402.52525252525254" y1="400" y2="405"/><text class="poloto_text" alignment-baseline="start" text-anchor="middle" x="402.52525252525254" y="430">15000</text><line class="poloto_axis_lines" stroke="black" x1="486.7003367003367" x2="486.7003367003367" y1="400" y2="405"/><text class="poloto_text" alignment-baseline="start" text-anchor="middle" x="486.7003367003367" y="430">20000</text><line class="poloto_axis_lines" stroke="black" x1="570.8754208754208" x2="570.8754208754208" y1="400" y2="405"/><text class="poloto_text" alignment-baseline="start" text-anchor="middle" x="570.8754208754208" y="430">25000</text><line class="poloto_axis_lines" stroke="black" x1="150" x2="144" y1="360.6792835085134" y2="360.6792835085134"/><text class="poloto_text" alignment-baseline="middle" text-anchor="end" x="135" y="360.6792835085134">0.001</text><line class="poloto_axis_lines" stroke="black" x1="150" x2="144" y1="321.35569639516746" y2="321.35569639516746"/><text class="poloto_text" alignment-baseline="middle" text-anchor="end" x="135" y="321.35569639516746">0.002</text><line class="poloto_axis_lines" stroke="black" x1="150" x2="144" y1="282.03210928182153" y2="282.03210928182153"/><text class="poloto_text" alignment-baseline="middle" text-anchor="end" x="135" y="282.03210928182153">0.003</text><line class="poloto_axis_lines" stroke="black" x1="150" x2="144" y1="242.7085221684756" y2="242.7085221684756"/><text class="poloto_text" alignment-baseline="middle" text-anchor="end" x="135" y="242.7085221684756">0.004</text><line class="poloto_axis_lines" stroke="black" x1="150" x2="144" y1="203.3849350551297" y2="203.3849350551297"/><text class="poloto_text" alignment-baseline="middle" text-anchor="end" x="135" y="203.3849350551297">0.005</text><line class="poloto_axis_lines" stroke="black" x1="150" x2="144" y1="164.06134794178377" y2="164.06134794178377"/><text class="poloto_text" alignment-baseline="middle" text-anchor="end" x="135" y="164.06134794178377">0.006</text><line class="poloto_axis_lines" stroke="black" x1="150" x2="144" y1="124.73776082843784" y2="124.73776082843784"/><text class="poloto_text" alignment-baseline="middle" text-anchor="end" x="135" y="124.73776082843784">0.007</text><text class="poloto_text" alignment-baseline="middle" text-anchor="start" font-size="large" x="675" y="100">default_par</text><line class="poloto0stroke" stroke="black" x1="680" x2="730" y1="81.25" y2="81.25"/><polyline class="poloto0stroke" fill="none" stroke="black" points="650,335.5639769202003 644.9494949494949,313.5785919245868 639.8989898989898,335.9065246875446 634.8484848484848,349.46848273478247 629.7979797979798,349.4058402605109 624.7474747474747,346.04674080211464 619.6969696969697,351.7428017190699 614.6464646464647,352.31153875949025 609.5959595959596,351.6781930654427 604.5454545454545,353.7092170162599 599.4949494949494,349.0245587598599 594.4444444444445,349.5259344955551 589.3939393939394,350.68747461170904 584.3434343434344,354.2144857870793 579.2929292929293,349.144967583601 574.2424242424242,351.253655618967 569.1919191919192,353.3431930674089 564.1414141414141,354.30312115243277 559.090909090909,353.25597335119147 554.040404040404,357.07087250781854 548.989898989899,358.78880205803927 543.939393939394,355.09651384603166 538.8888888888889,358.35345062510737 533.8383838383838,355.44492082785587 528.7878787878788,354.55243269473135 523.7373737373737,358.523997022418 518.6868686868687,356.7998150218462 513.6363636363636,359.53040558740986 508.5858585858586,362.677865499962 503.5353535353535,355.06768965667754 498.4848484848485,355.7737839868848 493.4343434343434,359.1410234278135 488.3838383838384,361.72969516748503 483.3333333333333,364.8307925708306 478.2828282828283,360.63917344965773 473.2323232323232,362.91321716883544 468.1818181818182,366.05112144971906 463.1313131313131,364.5887952157351 458.0808080808081,366.67632716123416 453.030303030303,357.0076795033274 447.979797979798,366.7082579139702 442.9292929292929,356.5463351793136 437.8787878787879,364.40869318675595 432.8282828282828,357.54181178708797 427.77777777777777,357.5842026139961 422.72727272727275,362.5995722380194 417.67676767676767,367.26476531879825 412.62626262626264,367.5246155824433 407.57575757575756,370.6961022067217 402.52525252525254,370.9334593785379 397.47474747474746,372.17856211730776 392.4242424242424,369.7828512196014 387.37373737373736,373.1594889978502 382.32323232323233,367.08045566599804 377.27272727272725,367.6472265270627 372.22222222222223,370.21619714959047 367.1717171717172,368.9939807385206 362.1212121212121,364.07176869236883 357.07070707070704,372.47105095825685 352.020202020202,372.58929698470666 346.969696969697,372.0410475331724 341.9191919191919,370.91187072921264 336.86868686868684,373.7191816132344 331.8181818181818,371.23212202266376 326.7676767676768,377.0378957476653 321.7171717171717,375.1596832563705 316.66666666666663,374.5276352406977 311.6161616161616,376.44800261737794 306.5656565656566,377.60529578612375 301.5151515151515,382.69829017110874 296.4646464646464,382.92754668397953 291.4141414141414,377.8479616422002 286.3636363636364,380.2754459982941 281.3131313131313,381.50474065504443 276.26262626262627,381.7783541741791 271.2121212121212,382.4312830146091 266.16161616161617,382.7807124096983 261.1111111111111,382.66730318446344 256.06060606060606,384.389007799047 251.010101010101,384.09734475342736 245.95959595959596,386.07150679727863 240.9090909090909,385.71236447617247 235.85858585858585,386.00367360950816 230.8080808080808,387.96985296517545 225.75757575757575,388.32231027647236 220.7070707070707,387.77834709593344 215.65656565656565,391.5845950633955 210.6060606060606,392.1465291232452 205.55555555555554,391.56607365386515 200.50505050505052,393.0801497284903 195.45454545454544,393.5385054598835 190.40404040404042,391.1246663885178 185.35353535353534,394.0784576345368 180.3030303030303,395.8386600409044 175.25252525252526,396.78852128762725 170.2020202020202,397.25930327254827 165.15151515151516,398.3337023196591 160.1010101010101,398.8853335996851 155.05050505050505,399.5117976659878 150,400 "/><text class="poloto_text" alignment-baseline="middle" text-anchor="start" font-size="large" x="675" y="150">default_seq</text><line class="poloto1stroke" stroke="black" x1="680" x2="730" y1="131.25" y2="131.25"/><polyline class="poloto1stroke" fill="none" stroke="black" points="650,288.3077605492404 644.9494949494949,297.41671559176297 639.8989898989898,274.56459941258424 634.8484848484848,294.98368660988604 629.7979797979798,300.2003536763425 624.7474747474747,302.5530445697469 619.6969696969697,301.59531860560134 614.6464646464647,304.237470423747 609.5959595959596,303.36503732005036 604.5454545454545,303.3069957054711 599.4949494949494,305.4441540179072 594.4444444444445,304.3633452260969 589.3939393939394,308.39204672585913 584.3434343434344,310.4946789288098 579.2929292929293,309.3253527424073 574.2424242424242,312.62593870317886 569.1919191919192,309.39994958716136 564.1414141414141,313.69573689059746 559.090909090909,313.0292020890262 554.040404040404,314.7660069610614 548.989898989899,315.8671067238222 543.939393939394,319.96372005852925 538.8888888888889,318.4363919350469 533.8383838383838,320.5835384386098 528.7878787878788,319.95727099024265 523.7373737373737,321.52077681386925 518.6868686868687,321.5759084830022 513.6363636363636,324.9750393530798 508.5858585858586,323.86261439723035 503.5353535353535,325.61613179378867 498.4848484848485,327.1883674537545 493.4343434343434,328.5131791036031 488.3838383838384,331.00397443494955 483.3333333333333,329.5531700119898 478.2828282828283,331.33079276744854 473.2323232323232,334.6213512135062 468.1818181818182,333.8465192530249 463.1313131313131,335.63652893842436 458.0808080808081,335.22544015874143 453.030303030303,336.3313767227172 447.979797979798,337.06425041574863 442.9292929292929,337.951154599503 437.8787878787879,340.82177645877726 432.8282828282828,340.824450462701 427.77777777777777,340.37793113102896 422.72727272727275,346.7867320644136 417.67676767676767,347.7275488861004 412.62626262626264,348.50525146844103 407.57575757575756,349.7190133082816 402.52525252525254,352.4798043887483 397.47474747474746,352.47339464404877 392.4242424242424,353.1484626640236 387.37373737373736,354.2545171987607 382.32323232323233,356.5463745029007 377.27272727272725,356.02470779625503 372.22222222222223,356.79116383268126 367.1717171717172,359.3384278351225 362.1212121212121,357.9221888452353 357.07070707070704,360.6667392842242 352.020202020202,361.2216737455677 346.969696969697,362.5744051422668 341.9191919191919,363.3035037709354 336.86868686868684,363.37444352208786 331.8181818181818,364.8026368824575 326.7676767676768,366.30739326693674 321.7171717171717,366.6092017980317 316.66666666666663,368.1773478049377 311.6161616161616,368.3430574010333 306.5656565656566,370.61395523324194 301.5151515151515,370.9494247549059 296.4646464646464,372.1181610875017 291.4141414141414,373.24836030472636 286.3636363636364,376.3118643587916 281.3131313131313,376.44800261737794 276.26262626262627,377.5678204076047 271.2121212121212,378.88496395796625 266.16161616161617,379.7533074086031 261.1111111111111,381.10938131020686 256.06060606060606,382.18118500056823 251.010101010101,382.9342710173759 245.95959595959596,383.53993290609566 240.9090909090909,384.27268862836576 235.85858585858585,384.35959375588624 230.8080808080808,386.0379244538839 225.75757575757575,386.58090454474495 220.7070707070707,387.7496802009278 215.65656565656565,389.49407452527583 210.6060606060606,390.486719834778 205.55555555555554,391.3216775599557 200.50505050505052,391.80504309275295 195.45454545454544,392.7470789456402 190.40404040404042,393.6248600571844 185.35353535353534,394.19941698849743 180.3030303030303,395.7072799363587 175.25252525252526,396.42898573064997 170.2020202020202,397.2396414789916 165.15151515151516,398.3060578379184 160.1010101010101,398.78183391840275 155.05050505050505,399.4424308583199 150,399.9999606764129 "/><text class="poloto_text" alignment-baseline="middle" text-anchor="start" font-size="large" x="675" y="200">direct_par</text><line class="poloto2stroke" stroke="black" x1="680" x2="730" y1="181.25" y2="181.25"/><polyline class="poloto2stroke" fill="none" stroke="black" points="650,228.94892377240606 644.9494949494949,260.3664250494396 639.8989898989898,259.51750745083666 634.8484848484848,271.0189881805094 629.7979797979798,282.1967571410651 624.7474747474747,280.9474467784741 619.6969696969697,288.0464159892851 614.6464646464647,284.00536688316924 609.5959595959596,277.56801702554026 604.5454545454545,288.6050075442302 599.4949494949494,290.6808997079437 594.4444444444445,279.6485886961203 589.3939393939394,283.31928825880266 584.3434343434344,288.4688692856438 579.2929292929293,288.45109502426857 574.2424242424242,289.69375970063743 569.1919191919192,292.6142438683714 564.1414141414141,296.7135705305892 559.090909090909,293.87346377491497 554.040404040404,300.30192650185626 548.989898989899,296.39831333270155 543.939393939394,297.94215736277147 538.8888888888889,294.7869113799709 533.8383838383838,304.66739520165726 528.7878787878788,304.3497785885428 523.7373737373737,306.5002675970103 518.6868686868687,309.7680970097165 513.6363636363636,304.02056151722985 508.5858585858586,313.7978209227437 503.5353535353535,307.12232742155635 498.4848484848485,313.28130560600994 493.4343434343434,309.4275547453149 488.3838383838384,311.26184278980406 483.3333333333333,312.7382075443875 478.2828282828283,318.83120074966484 473.2323232323232,321.081807610923 468.1818181818182,317.65601534878255 463.1313131313131,320.1150372217414 458.0808080808081,323.7091737603141 453.030303030303,321.977952837649 447.979797979798,323.4878999356273 442.9292929292929,316.8580611190785 437.8787878787879,316.523102804047 432.8282828282828,320.2827129971927 427.77777777777777,322.2123214168446 422.72727272727275,320.3378839899127 417.67676767676767,316.54418024673976 412.62626262626264,332.024460844128 407.57575757575756,335.06814581028806 402.52525252525254,333.80416774970377 397.47474747474746,330.4679939425946 392.4242424242424,339.4677080601163 387.37373737373736,339.190398123793 382.32323232323233,337.4162358440002 377.27272727272725,331.69811439467435 372.22222222222223,329.373185953772 367.1717171717172,338.61033589028403 362.1212121212121,335.04628189585304 357.07070707070704,334.0221383930731 352.020202020202,337.0600821155146 346.969696969697,337.9952363406571 341.9191919191919,338.08686029863117 336.86868686868684,340.3704203258903 331.8181818181818,341.25032491113853 326.7676767676768,342.4253530176724 321.7171717171717,356.7718559514086 316.66666666666663,347.8202345809266 311.6161616161616,352.7382783268443 306.5656565656566,351.92911687481296 301.5151515151515,364.7537969872627 296.4646464646464,365.7450659712159 291.4141414141414,368.07939274943834 286.3636363636364,362.054743938564 281.3131313131313,359.6808969552926 276.26262626262627,364.4742062828868 271.2121212121212,360.8477064321198 266.16161616161617,365.5363363708183 261.1111111111111,368.4055425809564 256.06060606060606,369.7675936678014 251.010101010101,368.2158455967217 245.95959595959596,371.61835829529105 240.9090909090909,372.262950535253 235.85858585858585,373.8015645282369 230.8080808080808,373.85225263202597 225.75757575757575,375.9246056728993 220.7070707070707,377.85901157017906 215.65656565656565,385.2437452885427 210.6060606060606,386.46045639741675 205.55555555555554,385.516179100064 200.50505050505052,387.85612915124364 195.45454545454544,387.7012728651913 190.40404040404042,389.26072835934525 185.35353535353534,386.72671640576124 180.3030303030303,391.45349022395965 175.25252525252526,393.23292186442563 170.2020202020202,394.12434826069807 165.15151515151516,396.47161249908083 160.1010101010101,397.4390907128305 155.05050505050505,398.9540319063721 150,399.999646087716 "/><text class="poloto_text" alignment-baseline="middle" text-anchor="start" font-size="large" x="675" y="250">direct_seq</text><line class="poloto3stroke" stroke="black" x1="680" x2="730" y1="231.25" y2="231.25"/><polyline class="poloto3stroke" fill="none" stroke="black" points="650,149.52459749359318 644.9494949494949,174.4855590024864 639.8989898989898,171.81348193454744 634.8484848484848,173.21945746819802 629.7979797979798,180.55601979234785 624.7474747474747,184.62569646988226 619.6969696969697,184.4944343360979 614.6464646464647,185.67335547775602 609.5959595959596,189.2026080975917 604.5454545454545,190.93504805145727 599.4949494949494,194.08396293673266 594.4444444444445,196.69422332572944 589.3939393939394,201.11958184870406 584.3434343434344,204.3452170524376 579.2929292929293,202.3377872538884 574.2424242424242,210.25511963611524 569.1919191919192,209.86593409445447 564.1414141414141,212.5063949983543 559.090909090909,212.9466618796753 554.040404040404,218.78251814881853 548.989898989899,219.5107516585706 543.939393939394,225.92246253740163 538.8888888888889,222.31810186617946 533.8383838383838,228.9908427162689 528.7878787878788,227.9603681159637 523.7373737373737,231.46425702211124 518.6868686868687,232.5493520849169 513.6363636363636,239.31422809961293 508.5858585858586,238.02732438774157 503.5353535353535,240.71308606399597 498.4848484848485,244.6448549215239 493.4343434343434,246.19259198671807 488.3838383838384,251.96199139363972 483.3333333333333,251.44004942188428 478.2828282828283,252.87893879794873 473.2323232323232,259.4666620526991 468.1818181818182,258.30067837120134 463.1313131313131,262.33810970730275 458.0808080808081,262.50582480634114 453.030303030303,265.82143237739 447.979797979798,268.83507412299554 442.9292929292929,254.86100488280982 437.8787878787879,273.2933071647969 432.8282828282828,275.16684014922515 427.77777777777777,277.94855137803614 422.72727272727275,287.5534555012322 417.67676767676767,289.9003658273309 412.62626262626264,291.7328056632257 407.57575757575756,293.76717211894754 402.52525252525254,298.98690642519887 397.47474747474746,298.4298484901512 392.4242424242424,300.4573726417153 387.37373737373736,303.11399553991873 382.32323232323233,306.280212803524 377.27272727272725,306.2307830545226 372.22222222222223,308.10388347949254 367.1717171717172,312.9527570356779 362.1212121212121,312.74969003182457 357.07070707070704,316.2581404740773 352.020202020202,318.7302177779578 346.969696969697,321.1861724111218 341.9191919191919,321.9786999858042 336.86868686868684,323.8856186956917 331.8181818181818,326.48644142378123 326.7676767676768,330.0072394723876 321.7171717171717,330.6425120222037 316.66666666666663,332.73177420553577 311.6161616161616,333.8962242671361 306.5656565656566,337.2505655714916 301.5151515151515,339.0568552219561 296.4646464646464,341.535656859233 291.4141414141414,343.41048752203596 286.3636363636364,349.19978466403694 281.3131313131313,350.4881826722186 276.26262626262627,352.58015818306154 271.2121212121212,351.47713156453216 266.16161616161617,357.61935790087546 261.1111111111111,359.66249351652357 256.06060606060606,361.5634743647569 251.010101010101,362.547743750204 245.95959595959596,364.778531523557 240.9090909090909,366.42689764817425 235.85858585858585,367.2405813127236 230.8080808080808,370.8209152722195 225.75757575757575,371.71796494144917 220.7070707070707,374.6157593994187 215.65656565656565,377.99220055973194 210.6060606060606,379.8032483642371 205.55555555555554,381.25476061176494 200.50505050505052,383.2374558740198 195.45454545454544,384.58656950070446 190.40404040404042,384.9503126815029 185.35353535353534,387.96580263570274 180.3030303030303,390.5880567187691 175.25252525252526,392.5170752846143 170.2020202020202,393.9624137289653 165.15151515151516,396.0080660541887 160.1010101010101,397.34262995364145 155.05050505050505,398.78985593017387 150,399.99256784203556 "/><text class="poloto_text" alignment-baseline="middle" text-anchor="start" font-size="large" x="675" y="300">indirect_par</text><line class="poloto4stroke" stroke="black" x1="680" x2="730" y1="281.25" y2="281.25"/><polyline class="poloto4stroke" fill="none" stroke="black" points="650,100 644.9494949494949,264.04239397279514 639.8989898989898,256.53607172307704 634.8484848484848,280.5870067789932 629.7979797979798,285.97598980418036 624.7474747474747,276.6128864181442 619.6969696969697,298.5606387408902 614.6464646464647,294.2528184197974 609.5959595959596,282.6592418491052 604.5454545454545,293.8237980843908 599.4949494949494,288.09364361740825 594.4444444444445,282.8535396930322 589.3939393939394,288.8709136402906 584.3434343434344,292.0754714013314 579.2929292929293,292.84314646895814 574.2424242424242,292.12442926728755 569.1919191919192,313.09286697656273 564.1414141414141,306.85347205646235 559.090909090909,293.4934406290516 554.040404040404,305.8520575870339 548.989898989899,302.15540445685673 543.939393939394,302.4111257438548 538.8888888888889,310.3680176547177 533.8383838383838,305.6275985517909 528.7878787878788,311.31398586631633 523.7373737373737,318.5662777432823 518.6868686868687,319.5647822672643 513.6363636363636,309.04843604195514 508.5858585858586,310.8828420572056 503.5353535353535,315.374382177292 498.4848484848485,313.57631115653425 493.4343434343434,319.76454608980015 488.3838383838384,317.51893332410543 483.3333333333333,326.607440101329 478.2828282828283,316.6529886122824 473.2323232323232,323.4831417815866 468.1818181818182,330.48624008701523 463.1313131313131,330.0830946719292 458.0808080808081,331.2394833981714 453.030303030303,333.9641361020809 447.979797979798,332.2250897855803 442.9292929292929,330.35269718517833 437.8787878787879,328.1628452660103 432.8282828282828,327.62517385940953 427.77777777777777,336.63322457739923 422.72727272727275,329.9613881698134 417.67676767676767,340.9357362142318 412.62626262626264,340.0970034246912 407.57575757575756,338.14682876897905 402.52525252525254,341.198103187452 397.47474747474746,344.957831351359 392.4242424242424,348.4256212045365 387.37373737373736,345.3487864544399 382.32323232323233,339.31277312688974 377.27272727272725,346.57674410922834 372.22222222222223,337.1480883034743 367.1717171717172,347.7660860014715 362.1212121212121,342.22126360055415 357.07070707070704,343.7551587630844 352.020202020202,347.38448991212357 346.969696969697,345.48012723539847 341.9191919191919,352.06659213536125 336.86868686868684,356.5858553843625 331.8181818181818,350.46376272462123 326.7676767676768,357.83213783074575 321.7171717171717,360.82839855084717 316.66666666666663,356.8020564663117 311.6161616161616,360.1746832386749 306.5656565656566,362.070709314932 301.5151515151515,372.48532542037896 296.4646464646464,370.26896940349656 291.4141414141414,369.768498110305 286.3636363636364,370.27856435875225 281.3131313131313,370.40416389599227 276.26262626262627,369.4519432340426 271.2121212121212,373.8441126494935 266.16161616161617,380.2377346782524 261.1111111111111,374.456970754655 256.06060606060606,377.4104474119771 251.010101010101,377.56683731792685 245.95959595959596,380.4365547346975 240.9090909090909,378.84646616618227 235.85858585858585,380.94894107478444 230.8080808080808,382.15955702765586 225.75757575757575,383.00595791668354 220.7070707070707,384.69557448418266 215.65656565656565,386.884836549544 210.6060606060606,387.9407928342987 205.55555555555554,389.8019388887862 200.50505050505052,390.2244708323191 195.45454545454544,391.3782642018118 190.40404040404042,391.88864503895593 185.35353535353534,394.0208092558286 180.3030303030303,394.6311506514149 175.25252525252526,395.84090148536984 170.2020202020202,396.5687810828379 165.15151515151516,397.9378710917761 160.1010101010101,398.6702729017622 155.05050505050505,399.444908244308 150,399.9990955574964 "/><text class="poloto_text" alignment-baseline="middle" text-anchor="start" font-size="large" x="675" y="350">indirect_seq</text><line class="poloto5stroke" stroke="black" x1="680" x2="730" y1="331.25" y2="331.25"/><polyline class="poloto5stroke" fill="none" stroke="black" points="650,155.26749280280046 644.9494949494949,177.51445829989188 639.8989898989898,138.99747660541493 634.8484848484848,180.02519068990478 629.7979797979798,139.14706353079407 624.7474747474747,194.87023806106401 619.6969696969697,193.46327943773562 614.6464646464647,199.7640584773199 609.5959595959596,198.08694681052282 604.5454545454545,197.47656609134944 599.4949494949494,206.66928037442347 594.4444444444445,213.17839577853425 589.3939393939394,214.99880259677238 584.3434343434344,220.84633797128828 579.2929292929293,217.535803142977 574.2424242424242,226.7506172820087 569.1919191919192,222.5780701005858 564.1414141414141,228.6569854616766 559.090909090909,225.20362736496966 554.040404040404,236.564447623538 548.989898989899,196.99736885878622 543.939393939394,215.09085911420473 538.8888888888889,242.39393347156883 533.8383838383838,242.66420448579885 528.7878787878788,241.2647566676091 523.7373737373737,246.59719237452728 518.6868686868687,245.64721315704304 513.6363636363636,257.4931685098287 508.5858585858586,253.765449745832 503.5353535353535,257.14708161964415 498.4848484848485,262.94554115744256 493.4343434343434,264.5806159096155 488.3838383838384,269.1947669743213 483.3333333333333,268.9169458313655 478.2828282828283,271.6188301783364 473.2323232323232,278.5425734849703 468.1818181818182,276.53011026727063 463.1313131313131,280.71999915061053 458.0808080808081,279.9200787415508 453.030303030303,284.951728330639 447.979797979798,288.0452362816717 442.9292929292929,286.5506647062548 437.8787878787879,289.89977597352424 432.8282828282828,293.78545758695526 427.77777777777777,296.16225383926013 422.72727272727275,301.5749096638895 417.67676767676767,304.0397514277411 412.62626262626264,305.12787440675453 407.57575757575756,307.9627511253428 402.52525252525254,315.47096090724233 397.47474747474746,313.6522450032501 392.4242424242424,314.16372690083335 387.37373737373736,317.83505564090956 382.32323232323233,322.43343794718294 377.27272727272725,320.58617311894636 372.22222222222223,322.666272906481 367.1717171717172,328.21781964079474 362.1212121212121,326.58463242080325 357.07070707070704,331.4346463610149 352.020202020202,333.5887531394969 346.969696969697,337.3229209717802 341.9191919191919,337.42449379729396 336.86868686868684,338.32846441785557 331.8181818181818,341.62295522262457 326.7676767676768,344.8857512161802 321.7171717171717,345.4752117870093 316.66666666666663,347.38763579909266 311.6161616161616,348.0409971989809 306.5656565656566,351.796596386241 301.5151515151515,352.893960408226 296.4646464646464,355.28302561971026 291.4141414141414,357.59973543090587 286.3636363636364,360.06957129032094 281.3131313131313,361.4335099093473 276.26262626262627,363.32658671657094 271.2121212121212,365.7947709853272 266.16161616161617,368.2675561137757 261.1111111111111,370.3539083516614 256.06060606060606,372.0138749344771 251.010101010101,373.81855231786983 245.95959595959596,374.40364797052933 240.9090909090909,375.7430879947841 235.85858585858585,375.6868159416249 230.8080808080808,379.9243650125462 225.75757575757575,380.0021863914435 220.7070707070707,382.65743296409795 215.65656565656565,384.59565324932765 210.6060606060606,386.07292244641474 205.55555555555554,387.53316453028174 200.50505050505052,388.4299782579887 195.45454545454544,388.3637573372898 190.40404040404042,391.2709894561666 185.35353535353534,392.2617079099002 180.3030303030303,394.21884284053147 175.25252525252526,395.54440163853525 170.2020202020202,396.4642196647035 165.15151515151516,397.65478058814716 160.1010101010101,398.52100056507993 155.05050505050505,399.35615490819316 150,399.99834840934125 "/><text class="poloto_text" alignment-baseline="start" text-anchor="middle" font-size="x-large" x="400" y="37.5">Bench of rebal:128_bytes with abspiral(num,2.1)</text><text class="poloto_text" alignment-baseline="start" text-anchor="middle" font-size="x-large" x="400" y="481.25">Number of Elements</text><text class="poloto_text" alignment-baseline="start" text-anchor="middle" font-size="x-large" transform="rotate(-90,37.5,250)" x="37.5" y="250">Time in Seconds</text><path stroke="black" fill="none" class="poloto_axis_lines" d=" M 150 100 L 150 400 L 650 400"/></svg>