<svg class="poloto" width="800" height="500" viewBox="0 0 800 500" xmlns="http://www.w3.org/2000/svg"><style>.poloto {
                    font-family: "Arial";
                    stroke-width:2;
                    }
                    .poloto_text{fill: var(--poloto_fg_color,black);  }
                    .poloto_axis_lines{stroke: var(--poloto_fg_color,black);stoke-width:3;fill:none}
                    .poloto_background{fill: var(--poloto_bg_color,aliceblue); }
                    .poloto0stroke{stroke:  var(--poloto_color0,blue); }
                    .poloto1stroke{stroke:  var(--poloto_color1,red); }
                    .poloto2stroke{stroke:  var(--poloto_color2,green); }
                    .poloto3stroke{stroke:  var(--poloto_color3,gold); }
                    .poloto4stroke{stroke:  var(--poloto_color4,aqua); }
                    .poloto5stroke{stroke:  var(--poloto_color5,brown); }
                    .poloto6stroke{stroke:  var(--poloto_color6,lime); }
                    .poloto7stroke{stroke:  var(--poloto_color7,chocolate); }
                    .poloto0fill{fill:var(--poloto_color0,blue);}
                    .poloto1fill{fill:var(--poloto_color1,red);}
                    .poloto2fill{fill:var(--poloto_color2,green);}
                    .poloto3fill{fill:var(--poloto_color3,gold);}
                    .poloto4fill{fill:var(--poloto_color4,aqua);}
                    .poloto5fill{fill:var(--poloto_color5,brown);}
                    .poloto6fill{fill:var(--poloto_color6,lime);}
                    .poloto7fill{fill:var(--poloto_color7,chocolate);}</style><rect class="poloto_background" fill="white" x="0" y="0" width="800" height="500"/><line class="poloto_axis_lines" stroke="black" x1="150" x2="150" y1="400" y2="405"/><text class="poloto_text" alignment-baseline="start" text-anchor="middle" x="150" y="430">0</text><line class="poloto_axis_lines" stroke="black" x1="234.17508417508418" x2="234.17508417508418" y1="400" y2="405"/><text class="poloto_text" alignment-baseline="start" text-anchor="middle" x="234.17508417508418" y="430">5000</text><line class="poloto_axis_lines" stroke="black" x1="318.35016835016836" x2="318.35016835016836" y1="400" y2="405"/><text class="poloto_text" alignment-baseline="start" text-anchor="middle" x="318.35016835016836" y="430">10000</text><line class="poloto_axis_lines" stroke="black" x1="402.52525252525254" x2="402.52525252525254" y1="400" y2="405"/><text class="poloto_text" alignment-baseline="start" text-anchor="middle" x="402.52525252525254" y="430">15000</text><line class="poloto_axis_lines" stroke="black" x1="486.7003367003367" x2="486.7003367003367" y1="400" y2="405"/><text class="poloto_text" alignment-baseline="start" text-anchor="middle" x="486.7003367003367" y="430">20000</text><line class="poloto_axis_lines" stroke="black" x1="570.8754208754208" x2="570.8754208754208" y1="400" y2="405"/><text class="poloto_text" alignment-baseline="start" text-anchor="middle" x="570.8754208754208" y="430">25000</text><line class="poloto_axis_lines" stroke="black" x1="150" x2="144" y1="365.1325000156953" y2="365.1325000156953"/><text class="poloto_text" alignment-baseline="middle" text-anchor="end" x="135" y="365.1325000156953">0.0005</text><line class="poloto_axis_lines" stroke="black" x1="150" x2="144" y1="330.25397841856596" y2="330.25397841856596"/><text class="poloto_text" alignment-baseline="middle" text-anchor="end" x="135" y="330.25397841856596">0.0010</text><line class="poloto_axis_lines" stroke="black" x1="150" x2="144" y1="295.3754568214366" y2="295.3754568214366"/><text class="poloto_text" alignment-baseline="middle" text-anchor="end" x="135" y="295.3754568214366">0.0015</text><line class="poloto_axis_lines" stroke="black" x1="150" x2="144" y1="260.49693522430726" y2="260.49693522430726"/><text class="poloto_text" alignment-baseline="middle" text-anchor="end" x="135" y="260.49693522430726">0.0020</text><line class="poloto_axis_lines" stroke="black" x1="150" x2="144" y1="225.61841362717792" y2="225.61841362717792"/><text class="poloto_text" alignment-baseline="middle" text-anchor="end" x="135" y="225.61841362717792">0.0025</text><line class="poloto_axis_lines" stroke="black" x1="150" x2="144" y1="190.7398920300485" y2="190.7398920300485"/><text class="poloto_text" alignment-baseline="middle" text-anchor="end" x="135" y="190.7398920300485">0.0030</text><line class="poloto_axis_lines" stroke="black" x1="150" x2="144" y1="155.8613704329192" y2="155.8613704329192"/><text class="poloto_text" alignment-baseline="middle" text-anchor="end" x="135" y="155.8613704329192">0.0035</text><line class="poloto_axis_lines" stroke="black" x1="150" x2="144" y1="120.98284883578981" y2="120.98284883578981"/><text class="poloto_text" alignment-baseline="middle" text-anchor="end" x="135" y="120.98284883578981">0.0040</text><text class="poloto_text" alignment-baseline="middle" text-anchor="start" font-size="large" x="675" y="100">default_par</text><line class="poloto0stroke" stroke="black" x1="680" x2="730" y1="81.25" y2="81.25"/><polyline class="poloto0stroke" fill="none" stroke="black" points="650,279.6308038731901 644.9494949494949,322.5044592189862 639.8989898989898,297.33402532320184 634.8484848484848,317.79160362373887 629.7979797979798,319.4961169741906 624.7474747474747,317.6880144145954 619.6969696969697,319.79432833384607 614.6464646464647,315.22831131452267 609.5959595959596,320.9992417409405 604.5454545454545,326.95460978956396 599.4949494949494,319.1337291347964 594.4444444444445,322.7595607259476 589.3939393939394,327.53059369521895 584.3434343434344,326.81962991098305 579.2929292929293,319.62642313087747 574.2424242424242,323.24506974657965 569.1919191919192,325.71572470243393 564.1414141414141,326.27217663599447 559.090909090909,327.4872745713953 554.040404040404,330.78796858421805 548.989898989899,324.29302980648697 543.939393939394,329.0546455749271 538.8888888888889,330.3009946656789 533.8383838383838,318.46768888637763 528.7878787878788,331.89006010964414 523.7373737373737,328.3851872313918 518.6868686868687,332.43646702898474 513.6363636363636,332.60137267909596 508.5858585858586,337.2105693081566 503.5353535353535,336.39503971617256 498.4848484848485,339.4517235919018 493.4343434343434,338.542580047951 488.3838383838384,338.19323677563415 483.3333333333333,337.0721713344592 478.2828282828283,343.9321487192258 473.2323232323232,337.4102139657786 468.1818181818182,348.0863899125735 463.1313131313131,342.42748929752565 458.0808080808081,340.1618502916193 453.030303030303,346.1634672598806 447.979797979798,345.3378228966333 442.9292929292929,338.0128450619338 437.8787878787879,347.26918615155273 432.8282828282828,345.28020357895485 427.77777777777777,348.4737507734312 422.72727272727275,352.18029126355816 417.67676767676767,352.6485702945212 412.62626262626264,354.9077916524537 407.57575757575756,351.0483437236449 402.52525252525254,351.6100274354451 397.47474747474746,352.5014526904245 392.4242424242424,354.1288147511034 387.37373737373736,361.01948523487545 382.32323232323233,356.339973506275 377.27272727272725,356.6185133797497 372.22222222222223,357.2869253676371 367.1717171717172,357.1855683838758 362.1212121212121,351.6516026331889 357.07070707070704,362.9055761687618 352.020202020202,362.77157288878567 346.969696969697,362.85388619975487 341.9191919191919,363.520414747476 336.86868686868684,360.76270955887736 331.8181818181818,365.6069176664595 326.7676767676768,352.42360383021975 321.7171717171717,368.79530283973946 316.66666666666663,363.19555619732034 311.6161616161616,368.5781491642757 306.5656565656566,368.65334725683914 301.5151515151515,365.4065056813624 296.4646464646464,374.7909904593292 291.4141414141414,372.883065570923 286.3636363636364,378.82287779891413 281.3131313131313,369.83886820592556 276.26262626262627,374.0645406115042 271.2121212121212,377.28117738727786 266.16161616161617,379.01247744231614 261.1111111111111,376.5552855957984 256.06060606060606,371.6028145571788 251.010101010101,381.2197298030689 245.95959595959596,379.7127683989433 240.9090909090909,372.80040347473783 235.85858585858585,380.6228187844556 230.8080808080808,381.2195902889825 225.75757575757575,380.69250607060667 220.7070707070707,384.6617515854032 215.65656565656565,372.85593008112045 210.6060606060606,373.196902508254 205.55555555555554,378.10954227520966 200.50505050505052,382.6705367874231 195.45454545454544,376.49124863014606 190.40404040404042,376.8427543708019 185.35353535353534,384.7816639426541 180.3030303030303,389.6334058109012 175.25252525252526,391.0820503269164 170.2020202020202,392.9373086477109 165.15151515151516,395.18076491388143 160.1010101010101,396.8354019784493 155.05050505050505,398.53642747674127 150,400 "/><text class="poloto_text" alignment-baseline="middle" text-anchor="start" font-size="large" x="675" y="150">default_seq</text><line class="poloto1stroke" stroke="black" x1="680" x2="730" y1="131.25" y2="131.25"/><polyline class="poloto1stroke" fill="none" stroke="black" points="650,174.917320464554 644.9494949494949,177.23757923528143 639.8989898989898,176.7823447713957 634.8484848484848,183.42921438920385 629.7979797979798,182.55829770492355 624.7474747474747,184.4051154234915 619.6969696969697,188.90521203699635 614.6464646464647,189.75854994639172 609.5959595959596,192.49665340585275 604.5454545454545,193.60104691370427 599.4949494949494,195.50785568941933 594.4444444444445,196.1058130636805 589.3939393939394,201.8339126655771 584.3434343434344,201.095952905625 579.2929292929293,206.2354425770484 574.2424242424242,208.38967958497352 569.1919191919192,208.5086153436197 564.1414141414141,209.24462190636234 559.090909090909,215.57221353747036 554.040404040404,216.68274566512295 548.989898989899,218.17749958668955 543.939393939394,220.0368038159893 538.8888888888889,224.50613757344547 533.8383838383838,224.39668877267366 528.7878787878788,225.8046649325066 523.7373737373737,225.57376911953358 518.6868686868687,230.89685932864427 513.6363636363636,230.73313954826736 508.5858585858586,234.8486655826422 503.5353535353535,237.4381167830563 498.4848484848485,239.31486027315464 493.4343434343434,240.14803839706687 488.3838383838384,244.2240819449938 483.3333333333333,243.60666235568138 478.2828282828283,248.90143120525522 473.2323232323232,251.59349501620804 468.1818181818182,252.40679238280993 463.1313131313131,256.024322885821 458.0808080808081,254.06924223621547 453.030303030303,259.5727241590265 447.979797979798,261.7726520302439 442.9292929292929,264.05482345538724 437.8787878787879,266.6663178814507 432.8282828282828,267.4557583392801 427.77777777777777,271.5731678138212 422.72727272727275,284.5694630172572 417.67676767676767,286.0894689884601 412.62626262626264,289.52870048906664 407.57575757575756,291.04145172777737 402.52525252525254,291.86835171780206 397.47474747474746,293.9639230524008 392.4242424242424,295.6803648572387 387.37373737373736,299.17456490788237 382.32323232323233,300.59844567356356 377.27272727272725,302.7468928469035 372.22222222222223,303.4810159694799 367.1717171717172,307.08319992298823 362.1212121212121,308.4754807481024 357.07070707070704,311.0236357789455 352.020202020202,312.58884431413827 346.969696969697,314.84227583748566 341.9191919191919,316.0053350186635 336.86868686868684,318.1560144173857 331.8181818181818,321.6942311622849 326.7676767676768,322.0878003999869 321.7171717171717,325.57955895411874 316.66666666666663,327.012787163588 311.6161616161616,329.6960615870983 306.5656565656566,331.7931675766473 301.5151515151515,333.5656242871702 296.4646464646464,336.4516126782031 291.4141414141414,337.9839656460514 286.3636363636364,346.4510755489705 281.3131313131313,347.88144371966877 276.26262626262627,348.5737823733718 271.2121212121212,352.06742436766984 266.16161616161617,352.9534085732801 261.1111111111111,356.39626744013276 256.06060606060606,357.51454259957995 251.010101010101,359.6517588889656 245.95959595959596,360.5152813266674 240.9090909090909,362.7732470578223 235.85858585858585,364.64859540705675 230.8080808080808,367.3539130562165 225.75757575757575,369.54881842032387 220.7070707070707,370.40403976988546 215.65656565656565,375.4594024472166 210.6060606060606,377.1814945725533 205.55555555555554,378.9717393290907 200.50505050505052,380.4542160110551 195.45454545454544,382.1161775651583 190.40404040404042,384.23609410783183 185.35353535353534,386.1309046721175 180.3030303030303,388.76311694000964 175.25252525252526,390.98257678332135 170.2020202020202,392.47251746890754 165.15151515151516,394.8751593076474 160.1010101010101,396.6540336661442 155.05050505050505,398.3665690765632 150,399.99797704574735 "/><text class="poloto_text" alignment-baseline="middle" text-anchor="start" font-size="large" x="675" y="200">direct_par</text><line class="poloto2stroke" stroke="black" x1="680" x2="730" y1="181.25" y2="181.25"/><polyline class="poloto2stroke" fill="none" stroke="black" points="650,239.59877143895528 644.9494949494949,240.80438241648164 639.8989898989898,293.5446832228033 634.8484848484848,281.4579501055773 629.7979797979798,295.2189220165087 624.7474747474747,287.1538219535181 619.6969696969697,292.05355666748284 614.6464646464647,295.60900340205103 609.5959595959596,290.0855709648864 604.5454545454545,301.2287703158669 599.4949494949494,294.8605800856198 594.4444444444445,296.6015066126189 589.3939393939394,296.61685316212163 584.3434343434344,302.0876190316746 579.2929292929293,297.22339065269574 574.2424242424242,287.0198186735419 569.1919191919192,308.0423592669093 564.1414141414141,303.8858160911362 559.090909090909,301.6947473644045 554.040404040404,311.3854655619941 548.989898989899,309.86280882314986 543.939393939394,313.05691407397177 538.8888888888889,308.8567029891591 533.8383838383838,313.57465084855954 528.7878787878788,311.53314122243637 523.7373737373737,304.9355200771234 518.6868686868687,303.49622300489625 513.6363636363636,307.23743274549076 508.5858585858586,315.81287533649055 503.5353535353535,312.7858382041189 498.4848484848485,319.48021236834234 493.4343434343434,319.83143908082536 488.3838383838384,323.08330316341215 483.3333333333333,323.08546563175116 478.2828282828283,319.96690725870866 473.2323232323232,319.4379396001666 468.1818181818182,327.8953532740817 463.1313131313131,323.74773899983745 458.0808080808081,331.4956537874238 453.030303030303,326.67865092668745 447.979797979798,333.86990450958353 442.9292929292929,328.9863534296399 437.8787878787879,331.1732367337799 432.8282828282828,333.54999870949473 427.77777777777777,328.0532832198735 422.72727272727275,340.2224691621551 417.67676767676767,339.9336052462877 412.62626262626264,341.2749634298701 407.57575757575756,340.6027845616502 402.52525252525254,342.55877205281723 397.47474747474746,338.396439042459 392.4242424242424,331.9047090887149 387.37373737373736,345.6548686579512 382.32323232323233,308.7681813013455 377.27272727272725,349.7992741082085 372.22222222222223,346.87561691385076 367.1717171717172,350.51421404390646 362.1212121212121,350.7977066674479 357.07070707070704,348.0755775708784 352.020202020202,352.74281205987666 346.969696969697,353.0012619049114 341.9191919191919,351.60158683321856 336.86868686868684,351.97757729603563 331.8181818181818,358.9071024528669 326.7676767676768,348.9733507167885 321.7171717171717,354.06826563761075 316.66666666666663,358.42194221745086 311.6161616161616,361.96950640613807 306.5656565656566,362.1575016375466 301.5151515151515,359.8681452369542 296.4646464646464,359.2665604964469 291.4141414141414,366.0454801970218 286.3636363636364,366.37640760993537 281.3131313131313,371.1016799588713 276.26262626262627,373.4798370754499 271.2121212121212,367.07069946084783 266.16161616161617,371.4014957305202 261.1111111111111,364.7224681157995 256.06060606060606,366.02308818615643 251.010101010101,367.66712218015874 245.95959595959596,371.41998134696667 240.9090909090909,373.27893679105046 235.85858585858585,365.894735226679 230.8080808080808,373.1876248215092 225.75757575757575,379.88478926746035 220.7070707070707,377.62291714188655 215.65656565656565,371.22208061542455 210.6060606060606,372.5065868088036 205.55555555555554,377.9975124638397 200.50505050505052,376.4138183122004 195.45454545454544,377.15226637145486 190.40404040404042,381.29311421250924 185.35353535353534,382.96491150970286 180.3030303030303,387.72059792947147 175.25252525252526,389.4743597524183 170.2020202020202,391.3384772176985 165.15151515151516,394.47377728110763 160.1010101010101,396.38721297592616 155.05050505050505,398.299323286924 150,399.99546579219236 "/><text class="poloto_text" alignment-baseline="middle" text-anchor="start" font-size="large" x="675" y="250">direct_seq</text><line class="poloto3stroke" stroke="black" x1="680" x2="730" y1="231.25" y2="231.25"/><polyline class="poloto3stroke" fill="none" stroke="black" points="650,100 644.9494949494949,108.12913702864296 639.8989898989898,103.49454883585963 634.8484848484848,113.67084581112448 629.7979797979798,113.48843114317145 624.7474747474747,113.03870748569807 619.6969696969697,120.52928854094074 614.6464646464647,122.9220946365902 609.5959595959596,127.34008721025538 604.5454545454545,127.83173485068852 599.4949494949494,131.0003090237014 594.4444444444445,131.7930978196041 589.3939393939394,139.6212332068638 584.3434343434344,137.49364338943894 579.2929292929293,145.41609029909728 574.2424242424242,150.27508689983657 569.1919191919192,149.12116589131713 564.1414141414141,149.64594812726756 559.090909090909,158.5244153139032 554.040404040404,161.1236325003645 548.989898989899,161.5629623584019 543.939393939394,165.6319604449662 538.8888888888889,170.2252524681786 533.8383838383838,169.56695525155436 528.7878787878788,168.7309170888712 523.7373737373737,173.16467475429826 518.6868686868687,180.04341678368414 513.6363636363636,180.6558836229297 508.5858585858586,184.1123451132052 503.5353535353535,188.5389178031833 498.4848484848485,190.542549354852 493.4343434343434,192.30461226593897 488.3838383838384,198.33015590001582 483.3333333333333,198.36705737586558 478.2828282828283,205.95550756270984 473.2323232323232,209.59340712233362 468.1818181818182,209.8148159774322 463.1313131313131,214.2787784425624 458.0808080808081,211.4321330238911 453.030303030303,217.67413276299976 447.979797979798,223.4665483587214 442.9292929292929,225.5820702076737 437.8787878787879,228.06339799113667 432.8282828282828,229.4090113543539 427.77777777777777,234.35534377317242 422.72727272727275,251.01499985699806 417.67676767676767,253.24429544340018 412.62626262626264,257.1765697253037 407.57575757575756,259.9460638542022 402.52525252525254,260.7392711923641 397.47474747474746,265.1756098683894 392.4242424242424,266.5718668449657 387.37373737373736,270.57571185318653 382.32323232323233,272.54634832342435 377.27272727272725,275.0635312270892 372.22222222222223,276.0729156421101 367.1717171717172,281.2522365851974 362.1212121212121,283.16399811097926 357.07070707070704,285.37564516545325 352.020202020202,289.7497605589492 346.969696969697,292.3372585621539 341.9191919191919,293.6212764562306 336.86868686868684,295.0149524222087 331.8181818181818,299.9479612457771 326.7676767676768,301.05514503535636 321.7171717171717,306.06621199025915 316.66666666666663,307.54743304544604 311.6161616161616,311.66512154815996 306.5656565656566,314.684066863521 301.5151515151515,316.0755803611601 296.4646464646464,320.8279881998986 291.4141414141414,322.9844574332059 286.3636363636364,331.80809558389086 281.3131313131313,334.3508095653648 276.26262626262627,336.0091437532219 271.2121212121212,339.7167305989968 266.16161616161617,341.56299026121917 261.1111111111111,345.5658586708353 256.06060606060606,347.21686836915705 251.010101010101,349.9968958115779 245.95959595959596,351.0597141216856 240.9090909090909,354.05536058461985 235.85858585858585,355.8864132114259 230.8080808080808,359.882794216025 225.75757575757575,362.9334789860395 220.7070707070707,363.92354070009566 215.65656565656565,370.1865373092058 210.6060606060606,372.4835669845495 205.55555555555554,374.8947889396023 200.50505050505052,376.6355061954718 195.45454545454544,378.6028640846795 190.40404040404042,381.3060192655002 185.35353535353534,383.7962061934488 180.3030303030303,387.0589523747739 175.25252525252526,389.3329622258635 170.2020202020202,391.200776814433 165.15151515151516,393.99970841555944 160.1010101010101,396.1668504764755 155.05050505050505,398.13553374950385 150,399.99595409149475 "/><text class="poloto_text" alignment-baseline="middle" text-anchor="start" font-size="large" x="675" y="300">indirect_par</text><line class="poloto4stroke" stroke="black" x1="680" x2="730" y1="281.25" y2="281.25"/><polyline class="poloto4stroke" fill="none" stroke="black" points="650,262.74715792366766 644.9494949494949,288.0017885705875 639.8989898989898,305.9645062212819 634.8484848484848,305.8707527552288 629.7979797979798,303.76332272328705 624.7474747474747,297.72145594110276 619.6969696969697,301.98591326269735 614.6464646464647,302.6047279928736 609.5959595959596,303.3984933873811 604.5454545454545,312.78876799993304 599.4949494949494,311.8014268105615 594.4444444444445,302.71285140982474 589.3939393939394,306.57055541255363 584.3434343434344,315.1963625887397 579.2929292929293,304.86297275220136 574.2424242424242,317.6082123571812 569.1919191919192,316.14512813322483 564.1414141414141,305.95432169297555 559.090909090909,319.1898137975246 554.040404040404,325.9515732654737 548.989898989899,315.4213290530412 543.939393939394,317.90977205491 538.8888888888889,323.1057649313207 533.8383838383838,323.1442708191639 528.7878787878788,318.30871258493795 523.7373737373737,320.81996613993124 518.6868686868687,319.54383079173545 513.6363636363636,322.6863158305936 508.5858585858586,326.48814444172393 503.5353535353535,324.6614865086391 498.4848484848485,328.0234969624296 493.4343434343434,330.67377630450903 488.3838383838384,330.7724127635857 483.3333333333333,328.5549061174834 478.2828282828283,320.1205122678224 473.2323232323232,332.7092170678743 468.1818181818182,339.76779275461496 463.1313131313131,334.450701651219 458.0808080808081,335.164944016485 453.030303030303,332.94673979995076 447.979797979798,338.3912770212626 442.9292929292929,328.86072099484704 437.8787878787879,335.3191070819443 432.8282828282828,341.64160644889915 427.77777777777777,337.0090412103684 422.72727272727275,345.7318804336377 417.67676767676767,345.91352777411555 412.62626262626264,345.4573167116251 407.57575757575756,348.1500083359667 402.52525252525254,352.21677419714877 397.47474747474746,339.4543046025 392.4242424242424,351.4203580349999 387.37373737373736,357.06809752313666 382.32323232323233,352.7665294545627 377.27272727272725,356.6764814826441 372.22222222222223,357.15215476018574 367.1717171717172,351.3884093092169 362.1212121212121,354.7382122804484 357.07070707070704,360.8630899440339 352.020202020202,360.24797233714696 346.969696969697,354.8565202257059 341.9191919191919,344.955275271756 336.86868686868684,358.5659207546038 331.8181818181818,367.7730133717276 326.7676767676768,360.2229295586402 321.7171717171717,366.1317696594531 316.66666666666663,364.55874833542254 311.6161616161616,367.8182856927607 306.5656565656566,368.24017628999957 301.5151515151515,365.4898653479795 296.4646464646464,376.02373692665816 291.4141414141414,371.25988893283585 286.3636363636364,376.6813365728504 281.3131313131313,364.631435174431 276.26262626262627,368.82125245980774 271.2121212121212,375.5894295757307 266.16161616161617,380.2711037726702 261.1111111111111,378.63969580348606 256.06060606060606,372.77696510822454 251.010101010101,380.3193756465606 245.95959595959596,375.9441441403735 240.9090909090909,376.48420316878344 235.85858585858585,376.81561888099935 230.8080808080808,377.28933896133157 225.75757575757575,378.5065296080282 220.7070707070707,381.55944660342493 215.65656565656565,376.61178880078575 210.6060606060606,373.4187996626549 205.55555555555554,377.0027072708464 200.50505050505052,375.7601948174702 195.45454545454544,380.3559980942376 190.40404040404042,378.13639873683945 185.35353535353534,381.77464708167923 180.3030303030303,390.98166994175983 175.25252525252526,392.3127738399927 170.2020202020202,393.8461034064457 165.15151515151516,395.7891858446218 160.1010101010101,397.2846373366203 155.05050505050505,398.7533718810754 150,399.99665166192665 "/><text class="poloto_text" alignment-baseline="middle" text-anchor="start" font-size="large" x="675" y="350">indirect_seq</text><line class="poloto5stroke" stroke="black" x1="680" x2="730" y1="331.25" y2="331.25"/><polyline class="poloto5stroke" fill="none" stroke="black" points="650,154.33738831025423 644.9494949494949,158.30872653634654 639.8989898989898,154.339829806766 634.8484848484848,163.7697264198523 629.7979797979798,175.14647235144716 624.7474747474747,166.51361971389846 619.6969696969697,169.03638318101886 614.6464646464647,169.85846993506317 609.5959595959596,174.7778761352087 604.5454545454545,186.29776351943815 599.4949494949494,178.58612239431284 594.4444444444445,190.46023604388276 589.3939393939394,196.15499177913247 584.3434343434344,184.53137567167315 579.2929292929293,191.63410756675574 574.2424242424242,203.93701776084077 569.1919191919192,203.91992728525818 564.1414141414141,204.01647103303904 559.090909090909,212.1062650893204 554.040404040404,202.39615443372278 548.989898989899,203.37142765462173 543.939393939394,204.98323389466825 538.8888888888889,220.79638825933156 533.8383838383838,210.04752547352825 528.7878787878788,213.00062014011402 523.7373737373737,212.44612140376285 518.6868686868687,218.13369216356352 513.6363636363636,226.52755717112868 508.5858585858586,223.10625323062305 503.5353535353535,235.07202763495022 498.4848484848485,234.46562965846255 493.4343434343434,229.68287750593458 488.3838383838384,235.0808867794359 483.3333333333333,241.27642832777718 478.2828282828283,247.33636218414884 473.2323232323232,243.4001815078264 468.1818181818182,250.0720939041413 463.1313131313131,247.24274823218212 458.0808080808081,251.50678701151762 453.030303030303,258.0519508603485 447.979797979798,262.31222275935147 442.9292929292929,263.5242513848517 437.8787878787879,267.32440582694534 432.8282828282828,266.9025849867496 427.77777777777777,270.3262606667239 422.72727272727275,282.2065826931381 417.67676767676767,284.13501615224334 412.62626262626264,288.89286504035096 407.57575757575756,284.73192717085664 402.52525252525254,285.9769508777878 397.47474747474746,294.55295152513315 392.4242424242424,295.29900310209575 387.37373737373736,299.5250940499335 382.32323232323233,296.5434687526813 377.27272727272725,299.40260068208437 372.22222222222223,299.90485139308305 367.1717171717172,302.79704816096023 362.1212121212121,304.8232809946238 357.07070707070704,308.27227848127757 352.020202020202,310.844987991325 346.969696969697,312.1618614527462 341.9191919191919,313.58804420085283 336.86868686868684,316.7152524472515 331.8181818181818,320.31171632321787 326.7676767676768,321.14831254224663 321.7171717171717,323.1350628894623 316.66666666666663,329.4512841225296 311.6161616161616,332.07777631287985 306.5656565656566,334.18722929907426 301.5151515151515,333.4699873809509 296.4646464646464,338.9387302962512 291.4141414141414,339.00346483233545 286.3636363636364,346.63404827326906 281.3131313131313,348.8519037045873 276.26262626262627,350.35767923897856 271.2121212121212,354.57881743674955 266.16161616161617,354.6108359195757 261.1111111111111,358.1687939076989 256.06060606060606,358.73536061252264 251.010101010101,361.74000573402895 245.95959595959596,362.49163787444706 240.9090909090909,365.1232223289505 235.85858585858585,366.86135857422187 230.8080808080808,369.77866787764896 225.75757575757575,371.88574912437474 220.7070707070707,372.8648589826493 215.65656565656565,377.5088643762639 210.6060606060606,379.1455738807308 205.55555555555554,381.2026393274863 200.50505050505052,382.4868664926926 195.45454545454544,383.95894937522104 190.40404040404042,386.0118293993849 185.35353535353534,387.7224116125945 180.3030303030303,390.6792731595127 175.25252525252526,392.1718646127403 170.2020202020202,393.31811234650837 165.15151515151516,395.5749619649722 160.1010101010101,397.07711013311734 155.05050505050505,398.5690737729562 150,399.9990931584385 "/><text class="poloto_text" alignment-baseline="start" text-anchor="middle" font-size="x-large" x="400" y="37.5">Bench of rebal:32_bytes with abspiral(num,1.5)</text><text class="poloto_text" alignment-baseline="start" text-anchor="middle" font-size="x-large" x="400" y="481.25">Number of Elements</text><text class="poloto_text" alignment-baseline="start" text-anchor="middle" font-size="x-large" transform="rotate(-90,37.5,250)" x="37.5" y="250">Time in Seconds</text><path stroke="black" fill="none" class="poloto_axis_lines" d=" M 150 100 L 150 400 L 650 400"/></svg>