<svg class="poloto" width="800" height="500" viewBox="0 0 800 500" xmlns="http://www.w3.org/2000/svg"><circle  r="1e5" class="poloto_background" /><text  class="poloto_text poloto_legend_text" x="675" y="100" >default_seq</text><line  class="poloto_scatter poloto_legend_icon poloto0stroke poloto0legend" stroke="black" x1="685" x2="685" y1="81.25" y2="81.25" /><path  class="poloto_scatter poloto0stroke" d=" M 650.00 392.30 h 0 M 644.95 392.37 h 0 M 639.90 392.41 h 0 M 634.85 392.51 h 0 M 629.80 392.62 h 0 M 624.75 392.74 h 0 M 619.70 392.75 h 0 M 614.65 392.85 h 0 M 609.60 393.06 h 0 M 604.55 392.93 h 0 M 599.49 393.15 h 0 M 594.44 393.20 h 0 M 589.39 393.39 h 0 M 584.34 393.33 h 0 M 579.29 393.40 h 0 M 574.24 393.57 h 0 M 569.19 393.63 h 0 M 564.14 393.58 h 0 M 559.09 393.92 h 0 M 554.04 393.90 h 0 M 548.99 393.99 h 0 M 543.94 394.03 h 0 M 538.89 394.11 h 0 M 533.84 394.20 h 0 M 528.79 394.30 h 0 M 523.74 394.27 h 0 M 518.69 394.41 h 0 M 513.64 394.28 h 0 M 508.59 394.55 h 0 M 503.54 394.60 h 0 M 498.48 394.74 h 0 M 493.43 394.90 h 0 M 488.38 394.92 h 0 M 483.33 394.95 h 0 M 478.28 395.03 h 0 M 473.23 395.16 h 0 M 468.18 395.11 h 0 M 463.13 395.34 h 0 M 458.08 395.22 h 0 M 453.03 395.43 h 0 M 447.98 395.55 h 0 M 442.93 395.68 h 0 M 437.88 395.66 h 0 M 432.83 395.71 h 0 M 427.78 395.77 h 0 M 422.73 395.95 h 0 M 417.68 395.98 h 0 M 412.63 396.08 h 0 M 407.58 396.17 h 0 M 402.53 396.23 h 0 M 397.47 396.35 h 0 M 392.42 396.42 h 0 M 387.37 396.50 h 0 M 382.32 396.57 h 0 M 377.27 396.62 h 0 M 372.22 396.68 h 0 M 367.17 396.88 h 0 M 362.12 396.84 h 0 M 357.07 396.94 h 0 M 352.02 397.13 h 0 M 346.97 397.18 h 0 M 341.92 397.15 h 0 M 336.87 397.27 h 0 M 331.82 397.38 h 0 M 326.77 397.39 h 0 M 321.72 397.38 h 0 M 316.67 397.47 h 0 M 311.62 397.60 h 0 M 306.57 397.75 h 0 M 301.52 397.79 h 0 M 296.46 397.93 h 0 M 291.41 397.94 h 0 M 286.36 398.28 h 0 M 281.31 398.36 h 0 M 276.26 398.32 h 0 M 271.21 398.45 h 0 M 266.16 398.58 h 0 M 261.11 398.68 h 0 M 256.06 398.69 h 0 M 251.01 398.74 h 0 M 245.96 398.79 h 0 M 240.91 398.87 h 0 M 235.86 398.89 h 0 M 230.81 398.97 h 0 M 225.76 399.11 h 0 M 220.71 399.15 h 0 M 215.66 399.20 h 0 M 210.61 399.21 h 0 M 205.56 399.32 h 0 M 200.51 399.38 h 0 M 195.45 399.41 h 0 M 190.40 399.53 h 0 M 185.35 399.57 h 0 M 180.30 399.69 h 0 M 175.25 399.76 h 0 M 170.20 399.79 h 0 M 165.15 399.85 h 0 M 160.10 399.91 h 0 M 155.05 399.96 h 0 M 150.00 400.00 h 0" /><text  class="poloto_text poloto_legend_text" x="675" y="150" >direct_seq</text><line  class="poloto_scatter poloto_legend_icon poloto1stroke poloto1legend" stroke="black" x1="685" x2="685" y1="131.25" y2="131.25" /><path  class="poloto_scatter poloto1stroke" d=" M 650.00 100.00 h 0 M 644.95 102.02 h 0 M 639.90 103.41 h 0 M 634.85 105.95 h 0 M 629.80 109.70 h 0 M 624.75 112.76 h 0 M 619.70 115.25 h 0 M 614.65 119.19 h 0 M 609.60 122.89 h 0 M 604.55 124.08 h 0 M 599.49 128.27 h 0 M 594.44 131.92 h 0 M 589.39 136.03 h 0 M 584.34 136.15 h 0 M 579.29 140.82 h 0 M 574.24 145.17 h 0 M 569.19 149.70 h 0 M 564.14 149.41 h 0 M 559.09 157.29 h 0 M 554.04 160.00 h 0 M 548.99 160.93 h 0 M 543.94 164.43 h 0 M 538.89 168.51 h 0 M 533.84 170.69 h 0 M 528.79 174.64 h 0 M 523.74 176.35 h 0 M 518.69 176.51 h 0 M 513.64 177.76 h 0 M 508.59 183.60 h 0 M 503.54 186.71 h 0 M 498.48 190.08 h 0 M 493.43 194.35 h 0 M 488.38 196.22 h 0 M 483.33 198.82 h 0 M 478.28 202.27 h 0 M 473.23 207.88 h 0 M 468.18 206.66 h 0 M 463.13 212.46 h 0 M 458.08 213.02 h 0 M 453.03 217.52 h 0 M 447.98 219.47 h 0 M 442.93 224.48 h 0 M 437.88 225.89 h 0 M 432.83 230.00 h 0 M 427.78 230.85 h 0 M 422.73 235.77 h 0 M 417.68 237.24 h 0 M 412.63 239.97 h 0 M 407.58 245.60 h 0 M 402.53 247.17 h 0 M 397.47 249.83 h 0 M 392.42 254.47 h 0 M 387.37 257.67 h 0 M 382.32 260.38 h 0 M 377.27 262.20 h 0 M 372.22 266.00 h 0 M 367.17 271.16 h 0 M 362.12 271.81 h 0 M 357.07 275.20 h 0 M 352.02 280.63 h 0 M 346.97 282.79 h 0 M 341.92 283.99 h 0 M 336.87 287.87 h 0 M 331.82 291.32 h 0 M 326.77 292.77 h 0 M 321.72 296.27 h 0 M 316.67 299.44 h 0 M 311.62 301.88 h 0 M 306.57 306.44 h 0 M 301.52 309.39 h 0 M 296.46 313.39 h 0 M 291.41 315.52 h 0 M 286.36 329.06 h 0 M 281.31 331.20 h 0 M 276.26 334.32 h 0 M 271.21 336.10 h 0 M 266.16 340.36 h 0 M 261.11 344.11 h 0 M 256.06 346.09 h 0 M 251.01 348.44 h 0 M 245.96 350.02 h 0 M 240.91 352.77 h 0 M 235.86 354.95 h 0 M 230.81 358.33 h 0 M 225.76 362.12 h 0 M 220.71 363.87 h 0 M 215.66 366.07 h 0 M 210.61 369.49 h 0 M 205.56 371.48 h 0 M 200.51 374.86 h 0 M 195.45 376.77 h 0 M 190.40 380.04 h 0 M 185.35 382.15 h 0 M 180.30 387.25 h 0 M 175.25 389.81 h 0 M 170.20 391.78 h 0 M 165.15 393.67 h 0 M 160.10 396.19 h 0 M 155.05 398.42 h 0 M 150.00 400.00 h 0" /><text  class="poloto_text poloto_legend_text" x="675" y="200" >indirect_seq</text><line  class="poloto_scatter poloto_legend_icon poloto2stroke poloto2legend" stroke="black" x1="685" x2="685" y1="181.25" y2="181.25" /><path  class="poloto_scatter poloto2stroke" d=" M 650.00 376.77 h 0 M 644.95 378.00 h 0 M 639.90 378.61 h 0 M 634.85 378.78 h 0 M 629.80 378.66 h 0 M 624.75 380.10 h 0 M 619.70 380.33 h 0 M 614.65 380.27 h 0 M 609.60 381.73 h 0 M 604.55 381.91 h 0 M 599.49 382.25 h 0 M 594.44 382.49 h 0 M 589.39 383.56 h 0 M 584.34 383.00 h 0 M 579.29 384.08 h 0 M 574.24 384.22 h 0 M 569.19 384.73 h 0 M 564.14 384.75 h 0 M 559.09 385.30 h 0 M 554.04 385.72 h 0 M 548.99 385.49 h 0 M 543.94 386.10 h 0 M 538.89 385.85 h 0 M 533.84 386.64 h 0 M 528.79 387.07 h 0 M 523.74 387.27 h 0 M 518.69 387.02 h 0 M 513.64 386.53 h 0 M 508.59 387.71 h 0 M 503.54 387.83 h 0 M 498.48 388.33 h 0 M 493.43 388.84 h 0 M 488.38 389.07 h 0 M 483.33 388.98 h 0 M 478.28 389.32 h 0 M 473.23 384.95 h 0 M 468.18 389.27 h 0 M 463.13 389.90 h 0 M 458.08 389.92 h 0 M 453.03 390.21 h 0 M 447.98 390.50 h 0 M 442.93 390.73 h 0 M 437.88 391.00 h 0 M 432.83 391.17 h 0 M 427.78 391.29 h 0 M 422.73 391.63 h 0 M 417.68 391.62 h 0 M 412.63 392.11 h 0 M 407.58 392.25 h 0 M 402.53 392.49 h 0 M 397.47 392.83 h 0 M 392.42 393.05 h 0 M 387.37 393.09 h 0 M 382.32 393.27 h 0 M 377.27 393.47 h 0 M 372.22 393.40 h 0 M 367.17 394.06 h 0 M 362.12 393.94 h 0 M 357.07 394.01 h 0 M 352.02 394.55 h 0 M 346.97 394.65 h 0 M 341.92 394.61 h 0 M 336.87 394.97 h 0 M 331.82 395.04 h 0 M 326.77 395.22 h 0 M 321.72 395.35 h 0 M 316.67 395.54 h 0 M 311.62 395.73 h 0 M 306.57 395.96 h 0 M 301.52 396.05 h 0 M 296.46 396.38 h 0 M 291.41 396.45 h 0 M 286.36 396.84 h 0 M 281.31 397.02 h 0 M 276.26 397.12 h 0 M 271.21 397.22 h 0 M 266.16 397.50 h 0 M 261.11 397.71 h 0 M 256.06 397.77 h 0 M 251.01 397.88 h 0 M 245.96 397.89 h 0 M 240.91 398.06 h 0 M 235.86 398.16 h 0 M 230.81 398.34 h 0 M 225.76 398.55 h 0 M 220.71 398.62 h 0 M 215.66 398.70 h 0 M 210.61 398.87 h 0 M 205.56 398.96 h 0 M 200.51 399.07 h 0 M 195.45 399.17 h 0 M 190.40 399.32 h 0 M 185.35 399.37 h 0 M 180.30 399.56 h 0 M 175.25 399.66 h 0 M 170.20 399.74 h 0 M 165.15 399.81 h 0 M 160.10 399.88 h 0 M 155.05 399.96 h 0 M 150.00 400.00 h 0" /><text  class="poloto_labels poloto_text poloto_title" x="400" y="37.5" >Bench of rebal:256_bytes with abspiral(num,1.5)</text><text  class="poloto_labels poloto_text poloto_xname" x="400" y="481.25" >Number of Elements</text><text  class="poloto_labels poloto_text poloto_yname" transform="rotate(-90,37.5,250)" x="37.5" y="250" >Time in Seconds</text><text  class="poloto_tick_labels poloto_text" dominant-baseline="middle" text-anchor="start" x="150" y="70" ></text><line  class="poloto_axis_lines" stroke="black" x1="150" x2="144" y1="400" y2="400" /><text  class="poloto_tick_labels poloto_text" dominant-baseline="middle" text-anchor="end" x="135" y="400" >0e0</text><line  class="poloto_axis_lines" stroke="black" x1="150" x2="144" y1="335.69168225929013" y2="335.69168225929013" /><text  class="poloto_tick_labels poloto_text" dominant-baseline="middle" text-anchor="end" x="135" y="335.69168225929013" >0.02</text><line  class="poloto_axis_lines" stroke="black" x1="150" x2="144" y1="271.3833645185802" y2="271.3833645185802" /><text  class="poloto_tick_labels poloto_text" dominant-baseline="middle" text-anchor="end" x="135" y="271.3833645185802" >0.04</text><line  class="poloto_axis_lines" stroke="black" x1="150" x2="144" y1="207.07504677787028" y2="207.07504677787028" /><text  class="poloto_tick_labels poloto_text" dominant-baseline="middle" text-anchor="end" x="135" y="207.07504677787028" >0.06</text><line  class="poloto_axis_lines" stroke="black" x1="150" x2="144" y1="142.76672903716042" y2="142.76672903716042" /><text  class="poloto_tick_labels poloto_text" dominant-baseline="middle" text-anchor="end" x="135" y="142.76672903716042" >0.08</text><text  class="poloto_tick_labels poloto_text" dominant-baseline="middle" text-anchor="start" x="440.00000000000006" y="70" ></text><line  class="poloto_axis_lines" stroke="black" x1="150" x2="150" y1="400" y2="405" /><text  class="poloto_tick_labels poloto_text" dominant-baseline="start" text-anchor="middle" x="150" y="430" >0</text><line  class="poloto_axis_lines" stroke="black" x1="234.17508417508418" x2="234.17508417508418" y1="400" y2="405" /><text  class="poloto_tick_labels poloto_text" dominant-baseline="start" text-anchor="middle" x="234.17508417508418" y="430" >5000</text><line  class="poloto_axis_lines" stroke="black" x1="318.35016835016836" x2="318.35016835016836" y1="400" y2="405" /><text  class="poloto_tick_labels poloto_text" dominant-baseline="start" text-anchor="middle" x="318.35016835016836" y="430" >10000</text><line  class="poloto_axis_lines" stroke="black" x1="402.52525252525254" x2="402.52525252525254" y1="400" y2="405" /><text  class="poloto_tick_labels poloto_text" dominant-baseline="start" text-anchor="middle" x="402.52525252525254" y="430" >15000</text><line  class="poloto_axis_lines" stroke="black" x1="486.7003367003367" x2="486.7003367003367" y1="400" y2="405" /><text  class="poloto_tick_labels poloto_text" dominant-baseline="start" text-anchor="middle" x="486.7003367003367" y="430" >20000</text><line  class="poloto_axis_lines" stroke="black" x1="570.8754208754208" x2="570.8754208754208" y1="400" y2="405" /><text  class="poloto_tick_labels poloto_text" dominant-baseline="start" text-anchor="middle" x="570.8754208754208" y="430" >25000</text><path  stroke="black" fill="none" class="poloto_axis_lines" style="stroke-dasharray:8.417508417508419;stroke-dashoffset:-0;" d=" M 150 400 L 650 400" /><path  stroke="black" fill="none" class="poloto_axis_lines" style="stroke-dasharray:8.038539717588737;stroke-dashoffset:-0;" d=" M 150 400 L 150 100" /></svg>