<svg class="poloto" width="800" height="500" viewBox="0 0 800 500" xmlns="http://www.w3.org/2000/svg"><style>.poloto {font-family: sans-serif;stroke-width:2;}.poloto_text{fill: var(--poloto_fg_color,black);}.poloto_axis_lines{stroke: var(--poloto_fg_color,black);stoke-width:3;fill:none}.poloto_background{fill: var(--poloto_bg_color,aliceblue);}.poloto0stroke{stroke:  var(--poloto_color0,blue);}.poloto1stroke{stroke:  var(--poloto_color1,red);}.poloto2stroke{stroke:  var(--poloto_color2,green);}.poloto3stroke{stroke:  var(--poloto_color3,gold);}.poloto4stroke{stroke:  var(--poloto_color4,aqua);}.poloto5stroke{stroke:  var(--poloto_color5,brown);}.poloto6stroke{stroke:  var(--poloto_color6,lime);}.poloto7stroke{stroke:  var(--poloto_color7,chocolate);}.poloto0fill{fill:var(--poloto_color0,blue);}.poloto1fill{fill:var(--poloto_color1,red);}.poloto2fill{fill:var(--poloto_color2,green);}.poloto3fill{fill:var(--poloto_color3,gold);}.poloto4fill{fill:var(--poloto_color4,aqua);}.poloto5fill{fill:var(--poloto_color5,brown);}.poloto6fill{fill:var(--poloto_color6,lime);}.poloto7fill{fill:var(--poloto_color7,chocolate);}</style><rect class="poloto_background" fill="white" x="0" y="0" width="800" height="500"/><line class="poloto_axis_lines" stroke="black" x1="150" x2="150" y1="400" y2="405"/><text class="poloto_text" alignment-baseline="start" text-anchor="middle" x="150" y="430">0</text><line class="poloto_axis_lines" stroke="black" x1="234.17508417508418" x2="234.17508417508418" y1="400" y2="405"/><text class="poloto_text" alignment-baseline="start" text-anchor="middle" x="234.17508417508418" y="430">5000</text><line class="poloto_axis_lines" stroke="black" x1="318.35016835016836" x2="318.35016835016836" y1="400" y2="405"/><text class="poloto_text" alignment-baseline="start" text-anchor="middle" x="318.35016835016836" y="430">10000</text><line class="poloto_axis_lines" stroke="black" x1="402.52525252525254" x2="402.52525252525254" y1="400" y2="405"/><text class="poloto_text" alignment-baseline="start" text-anchor="middle" x="402.52525252525254" y="430">15000</text><line class="poloto_axis_lines" stroke="black" x1="486.7003367003367" x2="486.7003367003367" y1="400" y2="405"/><text class="poloto_text" alignment-baseline="start" text-anchor="middle" x="486.7003367003367" y="430">20000</text><line class="poloto_axis_lines" stroke="black" x1="570.8754208754208" x2="570.8754208754208" y1="400" y2="405"/><text class="poloto_text" alignment-baseline="start" text-anchor="middle" x="570.8754208754208" y="430">25000</text><line class="poloto_axis_lines" stroke="black" x1="150" x2="144" y1="360.6619797907335" y2="360.6619797907335"/><text class="poloto_text" alignment-baseline="middle" text-anchor="end" x="135" y="360.6619797907335">0.0005</text><line class="poloto_axis_lines" stroke="black" x1="150" x2="144" y1="321.31931714717047" y2="321.31931714717047"/><text class="poloto_text" alignment-baseline="middle" text-anchor="end" x="135" y="321.31931714717047">0.0010</text><line class="poloto_axis_lines" stroke="black" x1="150" x2="144" y1="281.97665450360745" y2="281.97665450360745"/><text class="poloto_text" alignment-baseline="middle" text-anchor="end" x="135" y="281.97665450360745">0.0015</text><line class="poloto_axis_lines" stroke="black" x1="150" x2="144" y1="242.63399186004438" y2="242.63399186004438"/><text class="poloto_text" alignment-baseline="middle" text-anchor="end" x="135" y="242.63399186004438">0.0020</text><line class="poloto_axis_lines" stroke="black" x1="150" x2="144" y1="203.29132921648136" y2="203.29132921648136"/><text class="poloto_text" alignment-baseline="middle" text-anchor="end" x="135" y="203.29132921648136">0.0025</text><line class="poloto_axis_lines" stroke="black" x1="150" x2="144" y1="163.94866657291834" y2="163.94866657291834"/><text class="poloto_text" alignment-baseline="middle" text-anchor="end" x="135" y="163.94866657291834">0.0030</text><line class="poloto_axis_lines" stroke="black" x1="150" x2="144" y1="124.60600392935532" y2="124.60600392935532"/><text class="poloto_text" alignment-baseline="middle" text-anchor="end" x="135" y="124.60600392935532">0.0035</text><text class="poloto_text" alignment-baseline="middle" text-anchor="start" font-size="large" x="675" y="100">default_par</text><line class="poloto0stroke" stroke="black" x1="680" x2="730" y1="81.25" y2="81.25"/><polyline class="poloto0stroke" fill="none" stroke="black" points="650,285.1086463958998 644.9494949494949,278.2572000581628 639.8989898989898,281.20845351480637 634.8484848484848,281.21253895395637 629.7979797979798,282.5048659510876 624.7474747474747,287.2161559061172 619.6969696969697,293.1690895963566 614.6464646464647,277.49843507809203 609.5959595959596,288.3906921812085 604.5454545454545,284.7976034098522 599.4949494949494,293.27437667615493 594.4444444444445,289.42374951533196 589.3939393939394,293.15350813448634 584.3434343434344,287.44355731171953 579.2929292929293,294.252115698559 574.2424242424242,300.63876547147555 569.1919191919192,297.41440132367256 564.1414141414141,296.4267418290724 559.090909090909,297.2893740614342 554.040404040404,309.8756411037592 548.989898989899,298.4884596121354 543.939393939394,310.6975838278155 538.8888888888889,303.2048517860137 533.8383838383838,311.53164546665977 528.7878787878788,311.38175748277774 523.7373737373737,299.8070671584176 518.6868686868687,311.01145730870024 513.6363636363636,310.5587796586678 508.5858585858586,308.2470073511281 503.5353535353535,314.30845250363404 498.4848484848485,317.31415405513764 493.4343434343434,318.91154244243097 488.3838383838384,320.3897294403546 483.3333333333333,322.6541344702157 478.2828282828283,320.8341446103124 473.2323232323232,317.95363520424155 468.1818181818182,316.8710762710899 463.1313131313131,324.5263739823871 458.0808080808081,321.3020831160038 453.030303030303,331.36743267887726 447.979797979798,329.90844999301186 442.9292929292929,334.2086815643274 437.8787878787879,327.8847423663455 432.8282828282828,331.2719103482581 427.77777777777777,325.4833423023863 422.72727272727275,325.3757010569791 417.67676767676767,330.05000679548823 412.62626262626264,328.16848344345465 407.57575757575756,327.92683796189215 402.52525252525254,333.27948690240623 397.47474747474746,331.2996840063361 392.4242424242424,334.0022890257441 387.37373737373736,333.9852144549468 382.32323232323233,338.53959973015515 377.27272727272725,341.3003535561196 372.22222222222223,343.7558078273078 367.1717171717172,343.24907597004636 362.1212121212121,343.2913272886099 357.07070707070704,342.7545363089926 352.020202020202,344.34641942962867 346.969696969697,345.7277421309343 341.9191919191919,348.5172131132558 336.86868686868684,336.4423221381677 331.8181818181818,350.4304489996779 326.7676767676768,347.05303660676697 321.7171717171717,346.2071720792573 316.66666666666663,352.3904979730418 311.6161616161616,350.75408264965307 306.5656565656566,351.79587421299067 301.5151515151515,353.4589685532502 296.4646464646464,349.1249817279712 291.4141414141414,356.39212149922025 286.3636363636364,356.85305704923866 281.3131313131313,354.83029750094005 276.26262626262627,356.27897040706705 271.2121212121212,362.3247585262386 266.16161616161617,362.0594316958812 261.1111111111111,363.85888672794925 256.06060606060606,359.7875519612075 251.010101010101,365.7157027913117 245.95959595959596,366.04476384643567 240.9090909090909,370.0953279107725 235.85858585858585,373.634513617828 230.8080808080808,374.2885479988816 225.75757575757575,375.17572492676453 220.7070707070707,376.9503146571002 215.65656565656565,372.5747795568782 210.6060606060606,379.3132351055676 205.55555555555554,380.0055086474546 200.50505050505052,380.1474570475176 195.45454545454544,380.5531590174582 190.40404040404042,383.0969757955535 185.35353535353534,381.2145868067493 180.3030303030303,384.73488995298015 175.25252525252526,388.30633780507225 170.2020202020202,389.9872922013468 165.15151515151516,392.4785484536512 160.1010101010101,395.21813539953524 155.05050505050505,397.6122150504211 150,399.99897709096615 "/><text class="poloto_text" alignment-baseline="middle" text-anchor="start" font-size="large" x="675" y="150">default_seq</text><line class="poloto1stroke" stroke="black" x1="680" x2="730" y1="131.25" y2="131.25"/><polyline class="poloto1stroke" fill="none" stroke="black" points="650,134.69613243180805 644.9494949494949,111.65762657114055 639.8989898989898,121.05737931895351 634.8484848484848,132.92107324237725 629.7979797979798,101.48328921677239 624.7474747474747,128.79340567426175 619.6969696969697,130.5387126072818 614.6464646464647,131.06780445773865 609.5959595959596,170.2844111877746 604.5454545454545,139.94634310771585 599.4949494949494,167.7392558787471 594.4444444444445,171.45139947663367 589.3939393939394,147.81652942219637 584.3434343434344,153.4877601748129 579.2929292929293,152.16043213958272 574.2424242424242,140.07883591458926 569.1919191919192,187.0536732701119 564.1414141414141,165.86937053218452 559.090909090909,183.0785592975211 554.040404040404,171.26553947584125 548.989898989899,196.55351011692227 543.939393939394,182.41107548590256 538.8888888888889,186.45983728532283 533.8383838383838,188.6063599913694 528.7878787878788,193.16468414288826 523.7373737373737,213.86978135684058 518.6868686868687,196.0676176633968 513.6363636363636,217.51811515849653 508.5858585858586,199.79817321799075 503.5353535353535,208.25818335953005 498.4848484848485,210.1830664116006 493.4343434343434,215.74336741509956 488.3838383838384,212.98283801348302 483.3333333333333,223.70442269004636 478.2828282828283,210.6041048086643 473.2323232323232,220.13133058609907 468.1818181818182,228.01276559850828 463.1313131313131,238.11699095454895 458.0808080808081,251.22249349637698 453.030303030303,243.83865764429524 447.979797979798,254.7026647601055 442.9292929292929,258.21660043797505 437.8787878787879,247.48588306447775 432.8282828282828,248.32679651606688 427.77777777777777,261.98177230321437 422.72727272727275,246.53591770015166 417.67676767676767,262.0581681832838 412.62626262626264,251.78218033957143 407.57575757575756,265.90147636231114 402.52525252525254,272.1797795561556 397.47474747474746,272.7666904467801 392.4242424242424,273.6278295702149 387.37373737373736,279.5863509687088 382.32323232323233,279.4975155676401 377.27272727272725,285.06945915669877 372.22222222222223,289.39581097405954 367.1717171717172,291.0387620840706 362.1212121212121,294.41711797526057 357.07070707070704,293.5865921649183 352.020202020202,284.4169247547053 346.969696969697,295.68568347204405 341.9191919191919,297.8783276716337 336.86868686868684,298.8134260679319 331.8181818181818,307.04728974818175 326.7676767676768,296.3858233163302 321.7171717171717,312.65504047095646 316.66666666666663,313.16657226121026 311.6161616161616,316.8670641133596 306.5656565656566,320.1127531543043 301.5151515151515,321.5868455529005 296.4646464646464,324.90988771245986 291.4141414141414,327.6082424095235 286.3636363636364,327.675436891328 281.3131313131313,333.16287326317075 276.26262626262627,334.60092952361424 271.2121212121212,337.92900062060266 266.16161616161617,343.436580222694 261.1111111111111,342.4235103958021 256.06060606060606,347.2639954938172 251.010101010101,349.32193012358664 245.95959595959596,350.5026037175804 240.9090909090909,356.58592337387597 235.85858585858585,357.2642665758809 230.8080808080808,361.02440492360245 225.75757575757575,362.6991418494217 220.7070707070707,363.6446255969224 215.65656565656565,364.58955744373077 210.6060606060606,369.5597941655124 205.55555555555554,370.32469417444133 200.50505050505052,374.3348137652198 195.45454545454544,378.34233644568656 190.40404040404042,379.2992291942216 185.35353535353534,382.63965622558993 180.3030303030303,384.99691110429444 175.25252525252526,388.2091609173982 170.2020202020202,390.1788120467912 165.15151515151516,392.3145681092482 160.1010101010101,395.1507806146251 155.05050505050505,397.53722812014826 150,399.99905577601845 "/><text class="poloto_text" alignment-baseline="middle" text-anchor="start" font-size="large" x="675" y="200">direct_par</text><line class="poloto2stroke" stroke="black" x1="680" x2="730" y1="181.25" y2="181.25"/><polyline class="poloto2stroke" fill="none" stroke="black" points="650,285.05788985255873 644.9494949494949,288.03266664493594 639.8989898989898,288.27446784951536 634.8484848484848,293.64379747319566 629.7979797979798,277.9113758782754 624.7474747474747,266.42300190618073 619.6969696969697,297.67665720453437 614.6464646464647,313.7796079779688 609.5959595959596,301.98845349990114 604.5454545454545,301.7552353816077 599.4949494949494,297.5149617518982 594.4444444444445,302.3796846794893 589.3939393939394,302.37125731622024 584.3434343434344,307.3266293600184 579.2929292929293,300.538049320233 574.2424242424242,297.41526238035436 569.1919191919192,308.0320454665251 564.1414141414141,311.6558941138135 559.090909090909,300.4818699518318 554.040404040404,311.0722076056571 548.989898989899,311.0822013592729 543.939393939394,310.80263274299966 538.8888888888889,316.87493270580325 533.8383838383838,316.172511977328 528.7878787878788,316.0919390563339 523.7373737373737,314.3437833081218 518.6868686868687,316.40014238736694 513.6363636363636,321.45340008757057 508.5858585858586,322.70669556851766 503.5353535353535,320.85656872475005 498.4848484848485,323.0525197484051 493.4343434343434,327.0855352027607 488.3838383838384,324.9628426983929 483.3333333333333,324.4533536277141 478.2828282828283,328.8920733420547 473.2323232323232,327.1282628505526 468.1818181818182,326.9173039635023 463.1313131313131,284.2892135604693 458.0808080808081,337.23979802821134 453.030303030303,333.1633450123103 447.979797979798,332.54377808901825 442.9292929292929,335.2098752211341 437.8787878787879,331.5881471549292 432.8282828282828,333.4745483014636 427.77777777777777,337.4826205925783 422.72727272727275,330.72496531191933 417.67676767676767,330.8515727047706 412.62626262626264,335.33537881260065 407.57575757575756,333.9750649783141 402.52525252525254,335.4584412167724 397.47474747474746,335.97689810119084 392.4242424242424,337.7505420432031 387.37373737373736,338.0969158337385 382.32323232323233,340.4862748444182 377.27272727272725,343.03300570396993 372.22222222222223,344.2853622667267 367.1717171717172,344.21296938421006 362.1212121212121,345.875353810716 357.07070707070704,346.70705670386263 352.020202020202,347.603050302557 346.969696969697,348.54601271121004 341.9191919191919,349.95864947918443 336.86868686868684,350.1914828700243 331.8181818181818,351.6985427473219 326.7676767676768,353.03595613794255 321.7171717171717,354.2277227068481 316.66666666666663,350.4059775855765 311.6161616161616,354.5958152781562 306.5656565656566,353.46117157593085 301.5151515151515,354.9531217404977 296.4646464646464,353.3818581793384 291.4141414141414,360.0851386465571 286.3636363636364,349.32106448681606 281.3131313131313,361.3065704501874 276.26262626262627,364.90068058133124 271.2121212121212,364.6612404124937 266.16161616161617,366.6811717559996 261.1111111111111,365.6266315156732 256.06060606060606,369.31649985200596 251.010101010101,373.5036604827211 245.95959595959596,374.04658878124087 240.9090909090909,370.28228484281647 235.85858585858585,376.2144501206953 230.8080808080808,377.9101180520252 225.75757575757575,378.51009364576106 220.7070707070707,376.8914582268345 215.65656565656565,375.3672436271868 210.6060606060606,380.6963646518785 205.55555555555554,378.46650265124305 200.50505050505052,380.39806805277533 195.45454545454544,381.9479334393732 190.40404040404042,384.2699376651428 185.35353535353534,381.7748266956583 180.3030303030303,386.9350890089352 175.25252525252526,388.827864493964 170.2020202020202,390.5642133459331 165.15151515151516,392.64205647640347 160.1010101010101,395.8260583059898 155.05050505050505,397.7543994681817 150,399.99913446162975 "/><text class="poloto_text" alignment-baseline="middle" text-anchor="start" font-size="large" x="675" y="250">direct_seq</text><line class="poloto3stroke" stroke="black" x1="680" x2="730" y1="231.25" y2="231.25"/><polyline class="poloto3stroke" fill="none" stroke="black" points="650,146.4191443497035 644.9494949494949,169.23601055639503 639.8989898989898,171.22069124696597 634.8484848484848,174.89441706055865 629.7979797979798,172.68721733897493 624.7474747474747,178.6356717024333 619.6969696969697,180.44779296989302 614.6464646464647,179.33180854916662 609.5959595959596,186.41451272721932 604.5454545454545,187.27523964266817 599.4949494949494,188.39745298407166 594.4444444444445,196.11389487995683 589.3939393939394,190.85448738587283 584.3434343434344,200.94383661370813 579.2929292929293,202.83196903378365 574.2424242424242,203.06251238025695 569.1919191919192,206.11668043073504 564.1414141414141,207.44937632996053 559.090909090909,207.7302090507241 554.040404040404,202.6156606030931 548.989898989899,215.35457284271746 543.939393939394,219.54024265454993 538.8888888888889,220.06594523934422 533.8383838383838,221.51083499217765 528.7878787878788,226.1450970148926 523.7373737373737,227.60596211722734 518.6868686868687,225.95773474499572 513.6363636363636,233.1533472704987 508.5858585858586,235.61651899120233 503.5353535353535,239.11887620475437 498.4848484848485,238.7168726564658 493.4343434343434,241.20184559953935 488.3838383838384,243.92608237803418 483.3333333333333,248.25935928955954 478.2828282828283,250.59529614525545 473.2323232323232,252.88306878783325 468.1818181818182,252.1519217428235 463.1313131313131,256.15803375596045 458.0808080808081,265.66243237114907 453.030303030303,269.99649705793655 447.979797979798,270.06393428444386 442.9292929292929,265.86394711523144 437.8787878787879,272.2871826369486 432.8282828282828,272.62663133331944 427.77777777777777,271.5056820964063 422.72727272727275,270.629840888138 417.67676767676767,271.6640798851546 412.62626262626264,274.5721247846893 407.57575757575756,279.1884420197477 402.52525252525254,280.5697601409646 397.47474747474746,280.01518467679637 392.4242424242424,282.6653064594109 387.37373737373736,284.362394218248 382.32323232323233,290.3648203473382 377.27272727272725,294.4225499604981 372.22222222222223,298.7184533479607 367.1717171717172,300.9236103499694 362.1212121212121,300.69337844953 357.07070707070704,303.0666796691112 352.020202020202,304.73858610009336 346.969696969697,307.0091284488569 341.9191919191919,310.0606308876923 336.86868686868684,309.71283726964964 331.8181818181818,311.11021318196504 326.7676767676768,315.1415706441993 321.7171717171717,316.90342085772363 316.66666666666663,321.3065716029623 311.6161616161616,322.7860135451989 306.5656565656566,325.0249258011711 301.5151515151515,328.18445421286725 296.4646464646464,330.11059220925074 291.4141414141414,333.7701701287466 286.3636363636364,335.68277396292353 281.3131313131313,335.69134788903204 276.26262626262627,342.0380272275741 271.2121212121212,343.9599973432104 266.16161616161617,345.3098410946529 261.1111111111111,349.0152931829003 256.06060606060606,350.24774009993394 251.010101010101,356.13387319599997 245.95959595959596,356.4155669734454 240.9090909090909,359.5600726940967 235.85858585858585,356.3063547576027 230.8080808080808,363.07030079013674 225.75757575757575,366.30851741631324 220.7070707070707,368.9906631793501 215.65656565656565,367.50359080928416 210.6060606060606,372.13414296012525 205.55555555555554,374.0066183468664 200.50505050505052,376.710638613693 195.45454545454544,379.0793024934318 190.40404040404042,380.27846819568583 185.35353535353534,383.684361870384 180.3030303030303,385.9537248462988 175.25252525252526,388.88011071116557 170.2020202020202,390.8167142103043 165.15151515151516,392.1380772524707 160.1010101010101,395.14661044383354 155.05050505050505,397.6595836162496 150,399.99889840535485 "/><text class="poloto_text" alignment-baseline="middle" text-anchor="start" font-size="large" x="675" y="300">indirect_par</text><line class="poloto4stroke" stroke="black" x1="680" x2="730" y1="281.25" y2="281.25"/><polyline class="poloto4stroke" fill="none" stroke="black" points="650,266.9743529878808 644.9494949494949,267.67032495141973 639.8989898989898,268.76688063574 634.8484848484848,266.4283514498211 629.7979797979798,278.55943095348783 624.7474747474747,272.3602075717105 619.6969696969697,267.76231145353694 614.6464646464647,280.42505681752857 609.5959595959596,276.6391096697955 604.5454545454545,280.4767568591487 599.4949494949494,279.2026860957079 594.4444444444445,274.0184195373804 589.3939393939394,286.01258186845746 584.3434343434344,285.4036407510264 579.2929292929293,286.7106789931686 574.2424242424242,289.7409298202821 569.1919191919192,281.9004041604376 564.1414141414141,298.8921852737877 559.090909090909,277.92027041059526 554.040404040404,288.94077915841825 548.989898989899,291.3627942017655 543.939393939394,296.49803549029303 538.8888888888889,302.2215983367749 533.8383838383838,302.8088298336107 528.7878787878788,301.52752252997146 523.7373737373737,291.1331119119741 518.6868686868687,306.30545277606876 513.6363636363636,305.8783411813449 508.5858585858586,304.75118134410957 503.5353535353535,311.16284756168676 498.4848484848485,307.7874046069311 493.4343434343434,311.86110956959226 488.3838383838384,306.7748111092675 483.3333333333333,310.64423495425143 478.2828282828283,313.75867697245815 473.2323232323232,315.56868223892315 468.1818181818182,313.52868323663284 463.1313131313131,319.62309586784016 458.0808080808081,320.8854507643015 453.030303030303,319.3137108739139 447.979797979798,324.4594909466165 442.9292929292929,327.64128774973335 437.8787878787879,324.8382047436969 432.8282828282828,321.9027709135377 427.77777777777777,311.38828868931125 422.72727272727275,316.0017662693551 417.67676767676767,315.8269259620547 412.62626262626264,319.3611514330122 407.57575757575756,321.459143518842 402.52525252525254,323.87918912403404 397.47474747474746,320.88253782786717 392.4242424242424,326.21047718966577 387.37373737373736,322.60645574650334 382.32323232323233,324.6172566831196 377.27272727272725,333.8868570494018 372.22222222222223,334.0944312508782 367.1717171717172,336.1289204064225 362.1212121212121,336.8513286421293 357.07070707070704,339.957824206384 352.020202020202,335.83030778119667 346.969696969697,339.42024545150457 341.9191919191919,342.0980676107774 336.86868686868684,338.4891637930254 331.8181818181818,342.9118302963562 326.7676767676768,344.68366510331884 321.7171717171717,343.61228616676493 316.66666666666663,348.97634410831336 311.6161616161616,341.389898870942 306.5656565656566,340.4891877808525 301.5151515151515,342.32774990056885 296.4646464646464,349.9732095812672 291.4141414141414,354.3452019828541 286.3636363636364,350.7647038754253 281.3131313131313,353.4590464147587 276.26262626262627,355.2978421190004 271.2121212121212,357.8446508400606 266.16161616161617,358.7271881380568 261.1111111111111,360.6423064409483 256.06060606060606,357.58381020661733 251.010101010101,362.991223268114 245.95959595959596,362.66609421916746 240.9090909090909,370.72803510864003 235.85858585858585,373.76623467974986 230.8080808080808,374.16477568095615 225.75757575757575,372.41308181419765 220.7070707070707,374.21773066688917 215.65656565656565,368.5742621221288 210.6060606060606,375.62194923177196 205.55555555555554,376.2563098416722 200.50505050505052,379.32110369801126 195.45454545454544,380.0290342732325 190.40404040404042,380.9732584963316 185.35353535353534,380.35565872115046 180.3030303030303,384.9148427843289 175.25252525252526,386.62011172666575 170.2020202020202,390.6430561384082 165.15151515151516,392.40064973196615 160.1010101010101,395.1791073184176 155.05050505050505,397.5899472315115 150,400 "/><text class="poloto_text" alignment-baseline="middle" text-anchor="start" font-size="large" x="675" y="350">indirect_seq</text><line class="poloto5stroke" stroke="black" x1="680" x2="730" y1="331.25" y2="331.25"/><polyline class="poloto5stroke" fill="none" stroke="black" points="650,100 644.9494949494949,102.81182639542811 639.8989898989898,129.95903825685576 634.8484848484848,111.6144271742092 629.7979797979798,106.65419107617646 624.7474747474747,120.39011535159415 619.6969696969697,102.49834680217441 614.6464646464647,131.44368317989318 609.5959595959596,132.32967386479424 604.5454545454545,109.53579970354326 599.4949494949494,137.28646573609967 594.4444444444445,136.18935128095399 589.3939393939394,136.8027717251661 584.3434343434344,147.2401527356582 579.2929292929293,151.16127662226228 574.2424242424242,139.4857144236426 569.1919191919192,178.97078763486255 564.1414141414141,163.18408282827664 559.090909090909,170.31352223176268 554.040404040404,164.68666337879318 548.989898989899,194.60187934664995 543.939393939394,152.82538774222056 538.8888888888889,174.2730455823057 533.8383838383838,183.184231104773 528.7878787878788,167.12424156365583 523.7373737373737,182.08303121047734 518.6868686868687,182.3300262356802 513.6363636363636,187.85319187973053 508.5858585858586,192.341642197536 503.5353535353535,183.2364074756214 498.4848484848485,192.08363663901858 493.4343434343434,222.29320574957927 488.3838383838384,221.48549794130568 483.3333333333333,225.11934034220985 478.2828282828283,211.04395821024386 473.2323232323232,219.78384841409027 468.1818181818182,240.70344034359482 463.1313131313131,235.05525659748366 458.0808080808081,231.52087540350922 453.030303030303,225.49499922010517 447.979797979798,244.01656661104684 442.9292929292929,254.79881914296988 437.8787878787879,234.05485529602777 432.8282828282828,233.43599370640064 427.77777777777777,231.90800282359243 422.72727272727275,235.1755663683268 417.67676767676767,235.25078974568052 412.62626262626264,257.69948093946675 407.57575757575756,254.07310408319768 402.52525252525254,258.86606618051724 397.47474747474746,246.0490084669274 392.4242424242424,262.8589508973928 387.37373737373736,263.7577749909242 382.32323232323233,269.4506604030712 377.27272727272725,274.930544208593 372.22222222222223,278.0696912254265 367.1717171717172,282.2739287169833 362.1212121212121,289.5206092318612 357.07070707070704,285.46753298885426 352.020202020202,286.54630876871227 346.969696969697,279.60814303090126 341.9191919191919,290.0414294420659 336.86868686868684,286.0611308090292 331.8181818181818,299.8325599323065 326.7676767676768,293.3995596614102 321.7171717171717,307.0196718131207 316.66666666666663,307.6100544110049 311.6161616161616,314.5024101013067 306.5656565656566,315.3011500958407 301.5151515151515,316.4710421609566 296.4646464646464,321.61643292611683 291.4141414141414,313.2648518052468 286.3636363636364,326.036346796119 281.3131313131313,332.41740886078105 276.26262626262627,334.1716973478069 271.2121212121212,338.4911286510919 266.16161616161617,334.80433126425476 261.1111111111111,342.053924715567 256.06060606060606,343.3609629577092 251.010101010101,347.39571426569466 245.95959595959596,345.48334401604313 240.9090909090909,352.6640117120098 235.85858585858585,357.07243413938045 230.8080808080808,359.184111530345 225.75757575757575,357.9830611215773 220.7070707070707,364.81066351736933 215.65656565656565,364.7151388967058 210.6060606060606,368.2588108006755 205.55555555555554,370.533919497906 200.50505050505052,372.97198317217436 195.45454545454544,375.6334360943148 190.40404040404042,379.73538188410475 185.35353535353534,381.3460697040571 180.3030303030303,383.81883442061235 175.25252525252526,386.6480445428272 170.2020202020202,390.15984933441365 165.15151515151516,392.32770895633485 160.1010101010101,394.7689208690961 155.05050505050505,397.5277856947137 150,399.99889840535485 "/><text class="poloto_text" alignment-baseline="start" text-anchor="middle" font-size="x-large" x="400" y="37.5">Bench of query:128_bytes with abspiral(num,1.5)</text><text class="poloto_text" alignment-baseline="start" text-anchor="middle" font-size="x-large" x="400" y="481.25">Number of Elements</text><text class="poloto_text" alignment-baseline="start" text-anchor="middle" font-size="x-large" transform="rotate(-90,37.5,250)" x="37.5" y="250">Time in Seconds</text><path stroke="black" fill="none" class="poloto_axis_lines" d=" M 150 100 L 150 400 L 650 400"/></svg>