<svg class="poloto" width="800" height="500" viewBox="0 0 800 500" xmlns="http://www.w3.org/2000/svg" ><rect class="poloto_background" fill="white" x="0" y="0" width="800" height="500" /><style><style>.poloto {
            font-family: "Arial";
            stroke-width:2;
            }
            .poloto_text{fill: var(--poloto_fg_color,black);  }
            .poloto_axis_lines{stroke: var(--poloto_fg_color,black);stoke-width:3;fill:none}
            .poloto_background{fill: var(--poloto_bg_color,aliceblue); }
            .poloto0stroke{stroke:  var(--poloto_color0,blue); }
            .poloto1stroke{stroke:  var(--poloto_color1,red); }
            .poloto2stroke{stroke:  var(--poloto_color2,green); }
            .poloto3stroke{stroke:  var(--poloto_color3,gold); }
            .poloto4stroke{stroke:  var(--poloto_color4,aqua); }
            .poloto5stroke{stroke:  var(--poloto_color5,brown); }
            .poloto6stroke{stroke:  var(--poloto_color6,lime); }
            .poloto7stroke{stroke:  var(--poloto_color7,chocolate); }
            .poloto0fill{fill:var(--poloto_color0,blue);}
            .poloto1fill{fill:var(--poloto_color1,red);}
            .poloto2fill{fill:var(--poloto_color2,green);}
            .poloto3fill{fill:var(--poloto_color3,gold);}
            .poloto4fill{fill:var(--poloto_color4,aqua);}
            .poloto5fill{fill:var(--poloto_color5,brown);}
            .poloto6fill{fill:var(--poloto_color6,lime);}
            .poloto7fill{fill:var(--poloto_color7,chocolate);}</style></style><line class="poloto_axis_lines" stroke="black" x1="150" x2="150" y1="400" y2="405" /><text class="poloto_text" alignment-baseline="start" text-anchor="middle" x="150" y="430" >0</text><line class="poloto_axis_lines" stroke="black" x1="234.17508" x2="234.17508" y1="400" y2="405" /><text class="poloto_text" alignment-baseline="start" text-anchor="middle" x="234.17508" y="430" >5000</text><line class="poloto_axis_lines" stroke="black" x1="318.35016" x2="318.35016" y1="400" y2="405" /><text class="poloto_text" alignment-baseline="start" text-anchor="middle" x="318.35016" y="430" >10000</text><line class="poloto_axis_lines" stroke="black" x1="402.52527" x2="402.52527" y1="400" y2="405" /><text class="poloto_text" alignment-baseline="start" text-anchor="middle" x="402.52527" y="430" >15000</text><line class="poloto_axis_lines" stroke="black" x1="486.70035" x2="486.70035" y1="400" y2="405" /><text class="poloto_text" alignment-baseline="start" text-anchor="middle" x="486.70035" y="430" >20000</text><line class="poloto_axis_lines" stroke="black" x1="570.8754" x2="570.8754" y1="400" y2="405" /><text class="poloto_text" alignment-baseline="start" text-anchor="middle" x="570.8754" y="430" >25000</text><line class="poloto_axis_lines" stroke="black" x1="150" x2="144" y1="333.44458" y2="333.44458" /><text class="poloto_text" alignment-baseline="middle" text-anchor="end" x="135" y="333.44458" >0.002</text><line class="poloto_axis_lines" stroke="black" x1="150" x2="144" y1="266.8839" y2="266.8839" /><text class="poloto_text" alignment-baseline="middle" text-anchor="end" x="135" y="266.8839" >0.004</text><line class="poloto_axis_lines" stroke="black" x1="150" x2="144" y1="200.32324" y2="200.32324" /><text class="poloto_text" alignment-baseline="middle" text-anchor="end" x="135" y="200.32324" >0.006</text><line class="poloto_axis_lines" stroke="black" x1="150" x2="144" y1="133.76257" y2="133.76257" /><text class="poloto_text" alignment-baseline="middle" text-anchor="end" x="135" y="133.76257" >0.008</text><text class="poloto_text" alignment-baseline="middle" text-anchor="start" font-size="large" x="675" y="100" >default_par</text><line class="poloto0stroke" stroke="black" x1="680" x2="730" y1="81.25" y2="81.25" /><polyline class="poloto0stroke" fill="none" stroke="black"  points="650,361.3439 644.94946,362.2318 639.899,362.29907 634.8485,363.61572 629.798,362.3261 624.7475,364.23248 619.697,361.66153 614.6465,363.24976 609.59595,364.34485 604.5455,365.1548 599.495,368.421 594.44446,362.1847 589.3939,363.96368 584.34344,365.53867 579.29297,367.45514 574.24243,365.65607 569.1919,358.21356 564.1414,368.43533 559.09094,365.91998 554.0404,371.2196 548.98987,370.09866 543.9394,367.39417 538.8889,371.26572 533.8384,370.1377 528.78784,370.06833 523.73737,373.1693 518.6869,372.97934 513.63635,371.54642 508.58588,371.585 503.53537,371.09738 498.48486,368.86798 493.43436,374.91647 488.38385,374.96323 483.33334,371.18033 478.28284,371.88165 473.23233,372.1326 468.18182,370.40274 463.13132,373.30032 458.0808,371.42038 453.0303,374.553 447.9798,378.1902 442.9293,378.53943 437.87878,377.13947 432.82828,379.2342 427.77777,374.69406 422.72726,375.76166 417.67676,377.10886 412.62628,374.51266 407.57578,375.69992 402.52527,379.3707 397.47473,377.7791 392.42426,376.33633 387.37375,379.3056 382.32324,379.05283 377.27274,379.29755 372.22223,377.2467 367.17172,378.79376 362.12122,380.06412 357.0707,383.12335 352.0202,383.91653 346.9697,381.61536 341.9192,381.14795 336.86868,379.61365 331.81818,383.31042 326.7677,383.0416 321.71716,382.7765 316.6667,383.68726 311.61615,381.6429 306.56567,382.0006 301.51514,381.57294 296.46466,382.6041 291.41412,382.83414 286.36365,383.90726 281.31314,385.68393 276.26263,384.70862 271.21213,383.15393 266.16162,389.166 261.1111,385.97018 256.0606,386.41055 251.0101,385.5083 245.9596,386.3082 240.90909,386.68427 235.85858,386.50183 230.80807,387.3057 225.75757,387.3286 220.70706,387.50177 215.65657,387.35074 210.60606,386.66705 205.55556,388.05737 200.50505,388.26782 195.45454,388.99948 190.40404,389.1345 185.35353,389.64902 180.30302,395.8288 175.25253,396.38397 170.20203,397.07455 165.15152,397.8822 160.10101,398.62668 155.0505,399.33136 150,399.99734 "/><text class="poloto_text" alignment-baseline="middle" text-anchor="start" font-size="large" x="675" y="150" >default_seq</text><line class="poloto1stroke" stroke="black" x1="680" x2="730" y1="131.25" y2="131.25" /><polyline class="poloto1stroke" fill="none" stroke="black"  points="650,311.20358 644.94946,312.16083 639.899,311.8464 634.8485,313.06067 629.798,314.21265 624.7475,315.30164 619.697,316.46558 614.6465,314.84125 609.59595,318.04053 604.5455,317.93246 599.495,322.01636 594.44446,320.73898 589.3939,320.5236 584.34344,324.62756 579.29297,323.4387 574.24243,325.58975 569.1919,324.70187 564.1414,325.38712 559.09094,328.55682 554.0404,330.4848 548.98987,328.97867 543.9394,331.8501 538.8889,332.19714 533.8384,332.0743 528.78784,333.11475 523.73737,334.9878 518.6869,334.38406 513.63635,337.53253 508.58588,338.52283 503.53537,338.3083 498.48486,340.45364 493.43436,340.73212 488.38385,340.98795 483.33334,342.57007 478.28284,342.4217 473.23233,345.58798 468.18182,345.4768 463.13132,345.1878 458.0808,346.71317 453.0303,348.68307 447.9798,348.79007 442.9293,349.72205 437.87878,351.2228 432.82828,351.30573 427.77777,352.357 422.72726,353.89172 417.67676,355.66946 412.62628,355.39005 407.57578,357.35855 402.52527,358.06073 397.47473,357.53433 392.42426,359.86725 387.37375,360.41968 382.32324,361.87524 377.27274,362.36353 372.22223,362.97873 367.17172,363.7187 362.12122,365.2254 357.0707,365.65726 352.0202,368.13678 346.9697,367.13095 341.9192,368.42725 336.86868,370.13934 331.81818,370.511 326.7677,371.35638 321.71716,372.44232 316.6667,372.6837 311.61615,373.87985 306.56567,375.4611 301.51514,375.13016 296.46466,376.62802 291.41412,377.04993 286.36365,378.65976 281.31314,379.56778 276.26263,379.39304 271.21213,380.94562 266.16162,381.29486 261.1111,382.68423 256.0606,383.59805 251.0101,384.25043 245.9596,384.9797 240.90909,385.31824 235.85858,386.7009 230.80807,387.8255 225.75757,388.392 220.70706,389.266 215.65657,389.88177 210.60606,390.27206 205.55556,391.6481 200.50505,392.69464 195.45454,393.00565 190.40404,394.0289 185.35353,394.80487 180.30302,395.7019 175.25253,396.2065 170.20203,397.0366 165.15152,397.81033 160.10101,398.5408 155.0505,399.28412 150,400 "/><text class="poloto_text" alignment-baseline="middle" text-anchor="start" font-size="large" x="675" y="200" >direct_par</text><line class="poloto2stroke" stroke="black" x1="680" x2="730" y1="181.25" y2="181.25" /><polyline class="poloto2stroke" fill="none" stroke="black"  points="650,249.37842 644.94946,289.7991 639.899,288.247 634.8485,291.0084 629.798,288.19894 624.7475,291.48193 619.697,288.49963 614.6465,292.98566 609.59595,292.02438 604.5455,295.1537 599.495,303.75433 594.44446,295.02597 589.3939,293.97415 584.34344,303.3668 579.29297,302.74496 574.24243,308.39578 569.1919,306.84253 564.1414,145.60068 559.09094,309.94815 554.0404,312.57718 548.98987,314.0239 543.9394,312.25616 538.8889,314.51324 533.8384,290.69666 528.78784,317.0613 523.73737,319.13748 518.6869,316.84167 513.63635,318.45493 508.58588,321.60977 503.53537,318.74045 498.48486,322.4185 493.43436,324.53516 488.38385,324.56055 483.33334,325.15234 478.28284,327.79355 473.23233,327.51993 468.18182,330.22028 463.13132,330.2612 458.0808,331.2011 453.0303,330.85287 447.9798,332.23517 442.9293,334.12308 437.87878,335.2576 432.82828,337.17188 427.77777,335.99332 422.72726,333.4609 417.67676,332.76614 412.62628,339.7365 407.57578,335.45154 402.52527,335.81433 397.47473,340.62463 392.42426,339.88586 387.37375,342.6159 382.32324,344.88934 377.27274,344.1565 372.22223,344.4863 367.17172,344.0404 362.12122,347.40143 357.0707,349.5433 352.0202,348.61957 346.9697,352.2043 341.9192,350.2689 336.86868,349.93112 331.81818,349.5597 326.7677,353.85895 321.71716,355.8852 316.6667,357.08734 311.61615,347.4803 306.56567,358.98245 301.51514,359.93182 296.46466,361.4361 291.41412,360.3793 286.36365,359.02484 281.31314,361.8371 276.26263,362.59366 271.21213,363.31677 266.16162,366.36423 261.1111,373.19794 256.0606,367.21457 251.0101,371.58337 245.9596,372.68515 240.90909,371.67654 235.85858,372.2087 230.80807,373.92642 225.75757,375.60144 220.70706,379.90448 215.65657,375.24063 210.60606,374.2092 205.55556,378.13174 200.50505,379.5248 195.45454,382.1435 190.40404,382.20734 185.35353,383.53363 180.30302,387.89517 175.25253,389.4684 170.20203,391.30576 165.15152,394.15918 160.10101,396.26126 155.0505,398.2886 150,399.9945 "/><text class="poloto_text" alignment-baseline="middle" text-anchor="start" font-size="large" x="675" y="250" >direct_seq</text><line class="poloto3stroke" stroke="black" x1="680" x2="730" y1="231.25" y2="231.25" /><polyline class="poloto3stroke" fill="none" stroke="black"  points="650,100 644.94946,117.1586 639.899,118.58414 634.8485,122.67789 629.798,127.81058 624.7475,128.19577 619.697,132.65842 614.6465,119.767426 609.59595,138.331 604.5455,138.0701 599.495,147.9728 594.44446,147.01718 589.3939,144.84915 584.34344,158.11888 579.29297,153.56696 574.24243,162.86792 569.1919,158.87112 564.1414,147.31792 559.09094,170.80661 554.0404,176.52654 548.98987,173.82643 543.9394,184.55649 538.8889,184.71385 533.8384,182.40558 528.78784,185.37419 523.73737,194.65178 518.6869,191.8697 513.63635,201.53181 508.58588,206.45697 503.53537,207.08331 498.48486,210.87338 493.43436,212.464 488.38385,212.60555 483.33334,221.72186 478.28284,218.43782 473.23233,226.38234 468.18182,228.5407 463.13132,223.26381 458.0808,229.28473 453.0303,237.44962 447.9798,237.08882 442.9293,240.2991 437.87878,245.86937 432.82828,246.39957 427.77777,249.48654 422.72726,253.40756 417.67676,259.33252 412.62628,257.83975 407.57578,263.226 402.52527,266.81702 397.47473,265.6852 392.42426,270.8639 387.37375,273.2558 382.32324,277.3966 377.27274,279.94458 372.22223,281.56476 367.17172,285.95416 362.12122,289.55173 357.0707,292.22675 352.0202,298.3386 346.9697,296.46805 341.9192,301.2771 336.86868,306.11334 331.81818,307.3544 326.7677,310.35104 321.71716,313.61963 316.6667,315.1541 311.61615,318.02026 306.56567,323.20337 301.51514,323.5452 296.46466,327.31433 291.41412,328.63797 286.36365,334.24 281.31314,336.1735 276.26263,337.35794 271.21213,341.3944 266.16162,343.31564 261.1111,346.93723 256.0606,349.57523 251.0101,351.81836 245.9596,354.29468 240.90909,355.6272 235.85858,358.97556 230.80807,362.7835 225.75757,365.5753 220.70706,367.8269 215.65657,369.8907 210.60606,371.54535 205.55556,375.2956 200.50505,378.09744 195.45454,379.14404 190.40404,382.63388 185.35353,384.6683 180.30302,387.5256 175.25253,388.97305 170.20203,391.5776 165.15152,393.72934 160.10101,396.05774 155.0505,398.12924 150,399.99573 "/><text class="poloto_text" alignment-baseline="middle" text-anchor="start" font-size="large" x="675" y="300" >indirect_par</text><line class="poloto4stroke" stroke="black" x1="680" x2="730" y1="281.25" y2="281.25" /><polyline class="poloto4stroke" fill="none" stroke="black"  points="650,348.96405 644.94946,351.26743 639.899,356.15738 634.8485,355.55307 629.798,356.19354 624.7475,355.32062 619.697,353.51077 614.6465,354.7719 609.59595,353.443 604.5455,359.25833 599.495,360.58575 594.44446,354.68637 589.3939,357.80237 584.34344,360.6995 579.29297,358.09503 574.24243,362.11584 569.1919,360.4194 564.1414,362.80203 559.09094,361.20514 554.0404,363.66498 548.98987,363.7983 543.9394,363.39148 538.8889,363.5331 533.8384,363.893 528.78784,365.79712 523.73737,366.21848 518.6869,368.71185 513.63635,367.4523 508.58588,366.4424 503.53537,368.18076 498.48486,369.32608 493.43436,370.4165 488.38385,367.51898 483.33334,372.4319 478.28284,369.18674 473.23233,368.98386 468.18182,368.85974 463.13132,372.15454 458.0808,370.7259 453.0303,368.77417 447.9798,373.7029 442.9293,365.32224 437.87878,375.2414 432.82828,375.05002 427.77777,371.8764 422.72726,372.62872 417.67676,371.6664 412.62628,370.22205 407.57578,370.11218 402.52527,373.87094 397.47473,374.773 392.42426,374.82144 387.37375,371.77426 382.32324,373.41516 377.27274,370.74356 372.22223,376.99857 367.17172,375.3468 362.12122,378.8128 357.0707,381.19263 352.0202,382.24316 346.9697,379.46118 341.9192,382.4187 336.86868,381.07928 331.81818,380.8059 326.7677,380.6473 321.71716,383.493 316.6667,371.02225 311.61615,380.94324 306.56567,379.22183 301.51514,382.0901 296.46466,380.78915 291.41412,380.54617 286.36365,380.1856 281.31314,384.48993 276.26263,383.65048 271.21213,381.93753 266.16162,384.07672 261.1111,384.23474 256.0606,385.99292 251.0101,389.59567 245.9596,384.31708 240.90909,387.09113 235.85858,388.51837 230.80807,387.14212 225.75757,386.11734 220.70706,387.97815 215.65657,386.99432 210.60606,390.5633 205.55556,387.8973 200.50505,388.67444 195.45454,388.45523 190.40404,389.68182 185.35353,391.43933 180.30302,396.17337 175.25253,396.76276 170.20203,397.3874 165.15152,398.1242 160.10101,398.77884 155.0505,399.42096 150,399.99838 "/><text class="poloto_text" alignment-baseline="middle" text-anchor="start" font-size="large" x="675" y="350" >indirect_seq</text><line class="poloto5stroke" stroke="black" x1="680" x2="730" y1="331.25" y2="331.25" /><polyline class="poloto5stroke" fill="none" stroke="black"  points="650,291.58972 644.94946,303.97278 639.899,302.76807 634.8485,306.1845 629.798,306.98428 624.7475,306.66266 619.697,308.58862 614.6465,309.2738 609.59595,305.37347 604.5455,305.1072 599.495,310.48553 594.44446,309.47928 589.3939,308.44452 584.34344,314.76212 579.29297,312.46887 574.24243,313.9574 569.1919,313.1938 564.1414,312.98926 559.09094,317.78534 554.0404,320.8959 548.98987,323.07626 543.9394,326.50702 538.8889,321.737 533.8384,321.9578 528.78784,322.21643 523.73737,328.84775 518.6869,327.1185 513.63635,332.16217 508.58588,334.10538 503.53537,333.9495 498.48486,335.65134 493.43436,336.15192 488.38385,336.01318 483.33334,339.5011 478.28284,337.14658 473.23233,342.54138 468.18182,340.91794 463.13132,342.3611 458.0808,343.48444 453.0303,345.4315 447.9798,344.61353 442.9293,345.88858 437.87878,348.7958 432.82828,348.02322 427.77777,349.1022 422.72726,351.28674 417.67676,350.7873 412.62628,348.43558 407.57578,352.682 402.52527,352.51007 397.47473,351.74893 392.42426,355.63165 387.37375,355.39682 382.32324,359.81277 377.27274,358.224 372.22223,358.96707 367.17172,360.22433 362.12122,362.65164 357.0707,362.10165 352.0202,364.87036 346.9697,363.7967 341.9192,365.53674 336.86868,367.78824 331.81818,367.8864 326.7677,368.92685 321.71716,369.86795 316.6667,370.23123 311.61615,371.4154 306.56567,373.46762 301.51514,372.6134 296.46466,374.458 291.41412,374.75934 286.36365,378.12686 281.31314,377.98108 276.26263,379.0047 271.21213,379.93665 266.16162,381.18488 261.1111,382.28387 256.0606,382.7531 251.0101,383.68692 245.9596,384.08252 240.90909,385.26566 235.85858,386.13925 230.80807,387.76437 225.75757,388.22263 220.70706,388.84665 215.65657,389.71048 210.60606,390.81598 205.55556,391.6093 200.50505,392.66458 195.45454,393.08734 190.40404,394.21698 185.35353,395.09134 180.30302,395.99045 175.25253,396.5083 170.20203,397.3095 165.15152,398.00098 160.10101,398.69702 155.0505,399.3596 150,399.99844 "/><text class="poloto_text" alignment-baseline="start" text-anchor="middle" font-size="x-large" x="400" y="37.5" >Bench of rebal:128_bytes with abspiral(num,0.01)</text><text class="poloto_text" alignment-baseline="start" text-anchor="middle" font-size="x-large" x="400" y="481.25" >Number of Elements</text><text class="poloto_text" alignment-baseline="start" text-anchor="middle" font-size="x-large" transform="rotate(-90,37.5,250)" x="37.5" y="250" >Time in Seconds</text><path stroke="black" fill="none" class="poloto_axis_lines"  d="M 150 100 L 150 400 L 650 400 "/></svg>