<svg class="poloto" width="800" height="500" viewBox="0 0 800 500" xmlns="http://www.w3.org/2000/svg"><style>.poloto {
                    font-family: "Arial";
                    stroke-width:2;
                    }
                    .poloto_text{fill: var(--poloto_fg_color,black);  }
                    .poloto_axis_lines{stroke: var(--poloto_fg_color,black);stoke-width:3;fill:none}
                    .poloto_background{fill: var(--poloto_bg_color,aliceblue); }
                    .poloto0stroke{stroke:  var(--poloto_color0,blue); }
                    .poloto1stroke{stroke:  var(--poloto_color1,red); }
                    .poloto2stroke{stroke:  var(--poloto_color2,green); }
                    .poloto3stroke{stroke:  var(--poloto_color3,gold); }
                    .poloto4stroke{stroke:  var(--poloto_color4,aqua); }
                    .poloto5stroke{stroke:  var(--poloto_color5,brown); }
                    .poloto6stroke{stroke:  var(--poloto_color6,lime); }
                    .poloto7stroke{stroke:  var(--poloto_color7,chocolate); }
                    .poloto0fill{fill:var(--poloto_color0,blue);}
                    .poloto1fill{fill:var(--poloto_color1,red);}
                    .poloto2fill{fill:var(--poloto_color2,green);}
                    .poloto3fill{fill:var(--poloto_color3,gold);}
                    .poloto4fill{fill:var(--poloto_color4,aqua);}
                    .poloto5fill{fill:var(--poloto_color5,brown);}
                    .poloto6fill{fill:var(--poloto_color6,lime);}
                    .poloto7fill{fill:var(--poloto_color7,chocolate);}</style><rect class="poloto_background" fill="white" x="0" y="0" width="800" height="500"/><line class="poloto_axis_lines" stroke="black" x1="150" x2="150" y1="400" y2="405"/><text class="poloto_text" alignment-baseline="start" text-anchor="middle" x="150" y="430">0</text><line class="poloto_axis_lines" stroke="black" x1="234.17508417508418" x2="234.17508417508418" y1="400" y2="405"/><text class="poloto_text" alignment-baseline="start" text-anchor="middle" x="234.17508417508418" y="430">5000</text><line class="poloto_axis_lines" stroke="black" x1="318.35016835016836" x2="318.35016835016836" y1="400" y2="405"/><text class="poloto_text" alignment-baseline="start" text-anchor="middle" x="318.35016835016836" y="430">10000</text><line class="poloto_axis_lines" stroke="black" x1="402.52525252525254" x2="402.52525252525254" y1="400" y2="405"/><text class="poloto_text" alignment-baseline="start" text-anchor="middle" x="402.52525252525254" y="430">15000</text><line class="poloto_axis_lines" stroke="black" x1="486.7003367003367" x2="486.7003367003367" y1="400" y2="405"/><text class="poloto_text" alignment-baseline="start" text-anchor="middle" x="486.7003367003367" y="430">20000</text><line class="poloto_axis_lines" stroke="black" x1="570.8754208754208" x2="570.8754208754208" y1="400" y2="405"/><text class="poloto_text" alignment-baseline="start" text-anchor="middle" x="570.8754208754208" y="430">25000</text><line class="poloto_axis_lines" stroke="black" x1="150" x2="144" y1="352.7750548861742" y2="352.7750548861742"/><text class="poloto_text" alignment-baseline="middle" text-anchor="end" x="135" y="352.7750548861742">0.002</text><line class="poloto_axis_lines" stroke="black" x1="150" x2="144" y1="305.54590637813124" y2="305.54590637813124"/><text class="poloto_text" alignment-baseline="middle" text-anchor="end" x="135" y="305.54590637813124">0.004</text><line class="poloto_axis_lines" stroke="black" x1="150" x2="144" y1="258.31675787008817" y2="258.31675787008817"/><text class="poloto_text" alignment-baseline="middle" text-anchor="end" x="135" y="258.31675787008817">0.006</text><line class="poloto_axis_lines" stroke="black" x1="150" x2="144" y1="211.0876093620452" y2="211.0876093620452"/><text class="poloto_text" alignment-baseline="middle" text-anchor="end" x="135" y="211.0876093620452">0.008</text><line class="poloto_axis_lines" stroke="black" x1="150" x2="144" y1="163.85846085400215" y2="163.85846085400215"/><text class="poloto_text" alignment-baseline="middle" text-anchor="end" x="135" y="163.85846085400215">0.010</text><line class="poloto_axis_lines" stroke="black" x1="150" x2="144" y1="116.62931234595919" y2="116.62931234595919"/><text class="poloto_text" alignment-baseline="middle" text-anchor="end" x="135" y="116.62931234595919">0.012</text><text class="poloto_text" alignment-baseline="middle" text-anchor="start" font-size="large" x="675" y="100">default_par</text><line class="poloto0stroke" stroke="black" x1="680" x2="730" y1="81.25" y2="81.25"/><polyline class="poloto0stroke" fill="none" stroke="black" points="650,358.8462910831604 644.9494949494949,373.35140163124754 639.8989898989898,373.86683694349006 634.8484848484848,370.6851036668003 629.7979797979798,370.1068299724678 624.7474747474747,373.45660455954925 619.6969696969697,373.55361323058474 614.6464646464647,372.58428218660566 609.5959595959596,373.97064661191075 604.5454545454545,372.6968528620746 599.4949494949494,375.82460322201973 594.4444444444445,372.63528966699437 589.3939393939394,373.6204660902979 584.3434343434344,376.14658794197334 579.2929292929293,369.123212111065 574.2424242424242,367.794868694702 569.1919191919192,333.03511274660406 564.1414141414141,376.72266548090016 559.090909090909,376.86253460420676 554.040404040404,378.85935938855255 548.989898989899,377.26544647012884 543.939393939394,377.8540869625589 538.8888888888889,377.2616209090997 533.8383838383838,377.04316248267577 528.7878787878788,378.20719569137924 523.7373737373737,378.3022915819002 518.6868686868687,379.17430696537843 513.6363636363636,380.2982898561471 508.5858585858586,378.35960415361467 503.5353535353535,378.7428450791832 498.4848484848485,380.23615991128474 493.4343434343434,379.6893880590072 488.3838383838384,378.65936755919523 483.3333333333333,379.9630101308885 478.2828282828283,381.2181011379155 473.2323232323232,380.4941255204357 468.1818181818182,382.0825834722067 463.1313131313131,381.4767043405713 458.0808080808081,382.7259389331833 453.030303030303,382.7730263942458 447.979797979798,382.8142102117448 442.9292929292929,381.98888084156675 437.8787878787879,382.0469018505089 432.8282828282828,381.88162344530497 427.77777777777777,383.5646813815376 422.72727272727275,382.7882105654911 417.67676767676767,384.11971833480413 412.62626262626264,384.9546588367036 407.57575757575756,383.2916024448641 402.52525252525254,383.7120363248827 397.47474747474746,384.3500785066521 392.4242424242424,385.3454328114591 387.37373737373736,387.04405275212514 382.32323232323233,387.7882188305921 377.27272727272725,387.33174911026185 372.22222222222223,385.79080368188994 367.1717171717172,386.8448402037182 362.1212121212121,386.4201793149081 357.07070707070704,386.984732941599 352.020202020202,386.8843946155937 346.969696969697,385.563324488101 341.9191919191919,383.9747956926072 336.86868686868684,386.47758634491964 331.8181818181818,388.05681099815735 326.7676767676768,388.50605465876583 321.7171717171717,389.78204456400766 316.66666666666663,387.6649035238376 311.6161616161616,390.3928355270879 306.5656565656566,389.89376511480344 301.5151515151515,390.0501644400878 296.4646464646464,388.9818411008359 291.4141414141414,390.59056035731686 286.3636363636364,391.1380406468221 281.3131313131313,390.7364511970582 276.26262626262627,391.2153311483555 271.2121212121212,393.60226869937776 266.16161616161617,390.3207638464647 261.1111111111111,392.21134666124163 256.06060606060606,392.63012752106243 251.010101010101,393.46117161820996 245.95959595959596,393.1996165937724 240.9090909090909,393.4711133539709 235.85858585858585,393.6992065266905 230.8080808080808,393.91058058083826 225.75757575757575,391.7649839786921 220.7070707070707,393.6250567635329 215.65656565656565,389.9608068911106 210.6060606060606,390.81546556251214 205.55555555555554,391.3619068107502 200.50505050505052,391.8826081730514 195.45454545454544,393.01865811126385 190.40404040404042,393.4932874391954 185.35353535353534,393.88703685030697 180.3030303030303,396.5601121975652 175.25252525252526,397.02838920502245 170.2020202020202,397.47614514745294 165.15151515151516,398.4155329112779 160.1010101010101,398.93677740878695 155.05050505050505,399.5046843050219 150,399.9995040939407 "/><text class="poloto_text" alignment-baseline="middle" text-anchor="start" font-size="large" x="675" y="150">default_seq</text><line class="poloto1stroke" stroke="black" x1="680" x2="730" y1="131.25" y2="131.25"/><polyline class="poloto1stroke" fill="none" stroke="black" points="650,325.6607534985582 644.9494949494949,326.5820052693561 639.8989898989898,325.8399881171462 634.8484848484848,327.8340736108786 629.7979797979798,327.6098059991881 624.7474747474747,328.32613049460963 619.6969696969697,329.6573548890316 614.6464646464647,329.8897931434139 609.5959595959596,331.0242372905771 604.5454545454545,331.2841156802426 599.4949494949494,332.28334277522725 594.4444444444445,332.38318519517327 589.3939393939394,334.2265388614422 584.3434343434344,333.9218872389911 579.2929292929293,334.98477922616456 574.2424242424242,335.4778279220143 569.1919191919192,329.3893530858227 564.1414141414141,336.5739692297375 559.090909090909,338.60720768758296 554.040404040404,339.13119147570546 548.989898989899,339.42701124738556 543.939393939394,340.3461140919263 538.8888888888889,341.47829123996115 533.8383838383838,341.56937265285893 528.7878787878788,342.17338623312827 523.7373737373737,341.91074493827506 518.6868686868687,343.8461718295604 513.6363636363636,343.63560067093727 508.5858585858586,345.2127472416406 503.5353535353535,346.0801577831393 498.4848484848485,346.42426935916893 493.4343434343434,347.1404993962934 488.3838383838384,348.4012579011414 483.3333333333333,348.2235818444541 478.2828282828283,349.70421565018125 473.2323232323232,350.68011154580296 468.1818181818182,351.08760463913035 463.1313131313131,351.9376820831266 458.0808080808081,351.5496473989845 453.030303030303,353.0534943312034 447.979797979798,354.45473593828854 442.9292929292929,354.76968351511437 437.8787878787879,355.4033097714983 432.8282828282828,355.51729732142246 427.77777777777777,357.27263946944663 422.72727272727275,361.8032372275262 417.67676767676767,361.8887456009 412.62626262626264,363.3217015812083 407.57575757575756,363.9638526988979 402.52525252525254,364.2188428716928 397.47474747474746,364.980318433088 392.4242424242424,365.42120253441055 387.37373737373736,366.4934931221372 382.32323232323233,367.1260803372539 377.27272727272725,367.83128236820176 372.22222222222223,368.2613037653675 367.1717171717172,369.23967919128586 362.1212121212121,369.6126950062024 357.07070707070704,370.4889610130463 352.020202020202,371.1372991491905 346.969696969697,371.53444905899465 341.9191919191919,372.241280495566 336.86868686868684,372.8586363102889 331.8181818181818,374.01943432231957 326.7676767676768,374.2523920973355 321.7171717171717,375.2166223932757 316.66666666666663,375.9510828817243 311.6161616161616,376.76129892437973 306.5656565656566,377.39216227557597 301.5151515151515,377.7986163276362 296.4646464646464,378.9598630165777 291.4141414141414,379.4532187018927 286.3636363636364,382.15210477881055 281.3131313131313,382.7928626366192 276.26262626262627,383.19211424353193 271.2121212121212,384.0923254286695 266.16161616161617,384.30738335640086 261.1111111111111,385.5996673178779 256.06060606060606,386.03939430506205 251.010101010101,386.68499315059273 245.95959595959596,386.9190135814501 240.9090909090909,387.7154387127412 235.85858585858585,388.31548504453593 230.8080808080808,389.1430341846938 225.75757575757575,389.8691351138565 220.7070707070707,390.1319653253037 215.65656565656565,391.8581907032727 210.6060606060606,392.4385660947138 205.55555555555554,393.0381873641719 200.50505050505052,393.505708705253 195.45454545454544,394.07087631087455 190.40404040404042,394.7932697518793 185.35353535353534,395.42420394679823 180.3030303030303,396.3970063331927 175.25252525252526,396.99802086253175 170.2020202020202,397.4961466918461 165.15151515151516,398.30041186178954 160.1010101010101,398.89502684150585 155.05050505050505,399.45426718898955 150,400 "/><text class="poloto_text" alignment-baseline="middle" text-anchor="start" font-size="large" x="675" y="200">direct_par</text><line class="poloto2stroke" stroke="black" x1="680" x2="730" y1="181.25" y2="181.25"/><polyline class="poloto2stroke" fill="none" stroke="black" points="650,354.16097063456846 644.9494949494949,357.8372639398603 639.8989898989898,362.11778335658977 634.8484848484848,360.7323398996806 629.7979797979798,361.3790958593497 624.7474747474747,364.845431984949 619.6969696969697,365.13081411480886 614.6464646464647,365.080160853034 609.5959595959596,362.83259651925897 604.5454545454545,363.59088411312985 599.4949494949494,365.7411091718298 594.4444444444445,363.8535726371316 589.3939393939394,363.41800181501617 584.3434343434344,366.1224137023095 579.2929292929293,365.177122294921 574.2424242424242,100 569.1919191919192,361.82524601073095 564.1414141414141,366.3331265483781 559.090909090909,369.3193075356704 554.040404040404,369.31831572355173 548.989898989899,367.56358755445814 543.939393939394,370.19141737744565 538.8888888888889,368.2148775123841 533.8383838383838,367.64756098050543 528.7878787878788,371.0952652070183 523.7373737373737,367.8405628958836 518.6868686868687,371.12211497794516 513.6363636363636,371.4241926118026 508.5858585858586,372.46866523105797 503.5353535353535,372.5979314105245 498.4848484848485,372.0127150313613 493.4343434343434,371.59971974223276 488.3838383838384,373.70127516339517 483.3333333333333,373.986751751552 478.2828282828283,371.5852203936408 473.2323232323232,371.8095116199055 468.1818181818182,375.45661731141934 463.1313131313131,374.61388400001607 458.0808080808081,375.9656058448905 453.030303030303,376.5860787834149 447.979797979798,375.92687794311394 442.9292929292929,374.8510923983977 437.8787878787879,376.9056548167946 432.8282828282828,377.39079263026923 427.77777777777777,377.91428051233237 422.72727272727275,378.4272599088525 417.67676767676767,380.3019265005822 412.62626262626264,378.42104927582363 407.57575757575756,379.4443868511217 402.52525252525254,379.1918998231977 397.47474747474746,379.7475035262463 392.4242424242424,376.1017202508907 387.37373737373736,378.11191088426426 382.32323232323233,382.7179572070854 377.27272727272725,383.1799055086426 372.22222222222223,382.5928944218361 367.1717171717172,382.01813929906746 362.1212121212121,383.96140622900515 357.07070707070704,384.2237877635416 352.020202020202,383.5282913226122 346.969696969697,383.1846284234934 341.9191919191919,381.2140866602923 336.86868686868684,383.84472661761606 331.8181818181818,385.3028085049306 326.7676767676768,384.85162844923326 321.7171717171717,386.9478705911885 316.66666666666663,387.00480532971494 311.6161616161616,386.5072934793312 306.5656565656566,387.4133610788838 301.5151515151515,385.34614124868676 296.4646464646464,387.0464378241248 291.4141414141414,387.83759690535726 286.3636363636364,389.4575803137574 281.3131313131313,389.91532522109736 276.26262626262627,390.0781713251531 271.2121212121212,389.01473620277176 266.16161616161617,389.1552665341574 261.1111111111111,390.9672364312427 256.06060606060606,391.3882134464692 251.010101010101,392.51701371038564 245.95959595959596,392.3342132910853 240.9090909090909,392.60167195908633 235.85858585858585,392.5573474032115 230.8080808080808,394.0857771072288 225.75757575757575,392.37310649488165 220.7070707070707,392.60724499861027 215.65656565656565,389.0200258674046 210.6060606060606,389.7744170565236 205.55555555555554,392.56431370261646 200.50505050505052,393.4190904468893 195.45454545454544,392.2247125102694 190.40404040404042,392.7006406397849 185.35353535353534,392.3449343077966 180.3030303030303,395.9080193441146 175.25252525252526,396.27390355760645 170.2020202020202,397.2260431915286 165.15151515151516,398.18101657436125 160.1010101010101,398.7923506726493 155.05050505050505,399.4327306972699 150,399.99867758384175 "/><text class="poloto_text" alignment-baseline="middle" text-anchor="start" font-size="large" x="675" y="250">direct_seq</text><line class="poloto3stroke" stroke="black" x1="680" x2="730" y1="231.25" y2="231.25"/><polyline class="poloto3stroke" fill="none" stroke="black" points="650,299.51292579143654 644.9494949494949,302.2318842564703 639.8989898989898,300.6502273020845 634.8484848484848,303.7652966356552 629.7979797979798,303.3343070409451 624.7474747474747,303.7016789726149 619.6969696969697,306.29507874634004 614.6464646464647,306.7701803657567 609.5959595959596,308.3277268398292 604.5454545454545,308.2968625912792 599.4949494949494,309.6306609742948 594.4444444444445,309.7111394433525 589.3939393939394,312.1623086363457 584.3434343434344,311.7543432515332 579.2929292929293,314.3541425748812 574.2424242424242,315.2715451700757 569.1919191919192,309.81076933213023 564.1414141414141,315.17618951923794 559.090909090909,318.55040519067234 554.040404040404,319.29459488371356 548.989898989899,319.95022992330223 543.939393939394,321.10387271933394 538.8888888888889,322.69417260789675 533.8383838383838,322.692519587699 528.7878787878788,323.01570865093953 523.7373737373737,323.69977563793003 518.6868686868687,325.8015435902607 513.6363636363636,325.9553216978029 508.5858585858586,327.4306186097486 503.5353535353535,328.8249411465773 498.4848484848485,329.32932483806894 493.4343434343434,330.3656740437809 488.3838383838384,332.2511324959448 483.3333333333333,331.9847600983594 478.2828282828283,334.3029556237282 473.2323232323232,335.7110926864955 468.1818181818182,335.46351749001633 463.1313131313131,337.341797111607 458.0808080808081,336.46708966666375 453.030303030303,338.9679203093131 447.979797979798,340.23994296608026 442.9292929292929,341.46551575528974 437.8787878787879,341.90802926223586 432.8282828282828,342.1852879785523 427.77777777777777,343.84373952841224 422.72727272727275,349.9895977800411 417.67676767676767,350.9063627817307 412.62626262626264,352.3648933459561 407.57575757575756,353.05930351646987 402.52525252525254,353.37854894581 397.47474747474746,354.87764934860377 392.4242424242424,355.38104122797677 387.37373737373736,356.8161697491164 382.32323232323233,357.81501901091303 377.27272727272725,358.8627268268412 372.22222222222223,358.6416235681008 367.1717171717172,360.18856709833324 362.1212121212121,360.87686109411516 357.07070707070704,362.2158074543182 352.020202020202,363.12048179398977 346.969696969697,363.6716931862271 341.9191919191919,364.3633640661274 336.86868686868684,365.23093990964594 331.8181818181818,366.67985934214994 326.7676767676768,367.1405088421231 321.7171717171717,368.6191117944644 316.66666666666663,369.63978092287175 311.6161616161616,370.48735522199706 306.5656565656566,371.3465715062296 301.5151515151515,372.2862426449457 296.4646464646464,373.2691992982693 291.4141414141414,374.19099420427506 286.3636363636364,376.93269350431547 281.3131313131313,377.87026294592283 276.26262626262627,378.2476002279279 271.2121212121212,379.60725656975166 266.16161616161617,380.21984224047526 261.1111111111111,381.7038529303207 256.06060606060606,382.2724918783575 251.010101010101,383.0682558015696 245.95959595959596,383.5367453401951 240.9090909090909,384.5981023800421 235.85858585858585,385.39528317770936 230.8080808080808,386.50996192622193 225.75757575757575,387.4974289632281 220.7070707070707,387.8426268096734 215.65656565656565,390.0857988326371 210.6060606060606,390.8408040006867 205.55555555555554,391.63286043574084 200.50505050505052,392.2784592812715 195.45454545454544,392.91213276680395 190.40404040404042,393.837399015225 185.35353535353534,394.6318405222788 180.3030303030303,395.654540504072 175.25252525252526,396.4102541093492 170.2020202020202,397.05195655012795 165.15151515151516,398.02421580131454 160.1010101010101,398.7315667585195 155.05050505050505,399.3750402923673 150,399.9938365961197 "/><text class="poloto_text" alignment-baseline="middle" text-anchor="start" font-size="large" x="675" y="300">indirect_par</text><line class="poloto4stroke" stroke="black" x1="680" x2="730" y1="281.25" y2="281.25"/><polyline class="poloto4stroke" fill="none" stroke="black" points="650,360.744926467758 644.9494949494949,353.2248652965648 639.8989898989898,366.0590085704374 634.8484848484848,366.6927765142669 629.7979797979798,368.58267450639045 624.7474747474747,366.4227674722464 619.6969696969697,366.2879518678302 614.6464646464647,367.3549527909239 609.5959595959596,366.5862747843812 604.5454545454545,370.5685421282824 599.4949494949494,367.5876980347715 594.4444444444445,369.0795015341208 589.3939393939394,366.6880772139903 584.3434343434344,369.4114043752611 579.2929292929293,365.2143152493711 574.2424242424242,246.33809977771602 569.1919191919192,369.0961970381184 564.1414141414141,369.26381328617344 559.090909090909,370.7567975142355 554.040404040404,373.0412714275695 548.989898989899,373.0396892510945 543.939393939394,373.5134448397787 538.8888888888889,374.46841822261126 533.8383838383838,373.9822413678695 528.7878787878788,372.27920550181796 523.7373737373737,373.2348400927297 518.6868686868687,373.9260622957192 513.6363636363636,374.7687011488254 508.5858585858586,375.88937799919853 503.5353535353535,373.58421771881797 498.4848484848485,376.9701698336566 493.4343434343434,376.23327704405983 488.3838383838384,376.72122499187066 483.3333333333333,375.155106427344 478.2828282828283,373.0247412255917 473.2323232323232,377.28745525333363 468.1818181818182,377.0549461552285 463.1313131313131,374.82185755547124 458.0808080808081,379.5312176406537 453.030303030303,378.78084092915793 447.979797979798,379.1596659293409 442.9292929292929,375.0890800777297 437.8787878787879,377.2744672374939 432.8282828282828,379.8852709524443 427.77777777777777,380.90709719499 422.72727272727275,377.85486624350926 417.67676767676767,380.44103995751266 412.62626262626264,382.37722251517414 407.57575757575756,382.66491887331085 402.52525252525254,381.45353844322807 397.47474747474746,382.1196583537855 392.4242424242424,382.51347860861983 387.37373737373736,383.01448541599314 382.32323232323233,381.2194943977965 377.27272727272725,383.051560297572 372.22222222222223,383.634627750478 367.1717171717172,382.6504667538674 362.1212121212121,382.9256237730753 357.07070707070704,384.5727403272933 352.020202020202,386.17862583486374 346.969696969697,384.37404729951993 341.9191919191919,384.8886324870893 336.86868686868684,387.26267648056887 331.8181818181818,387.16377864359305 326.7676767676768,388.03010291467604 321.7171717171717,388.6761976662661 316.66666666666663,389.05797448823085 311.6161616161616,387.363463483485 306.5656565656566,388.41438288151176 301.5151515151515,387.39161205599584 296.4646464646464,389.47583437965574 291.4141414141414,390.8868288059078 286.3636363636364,390.99018979741766 281.3131313131313,391.9174160555018 276.26262626262627,391.56777866909675 271.2121212121212,389.53243851414265 266.16161616161617,392.8684930335825 261.1111111111111,391.7904877188864 256.06060606060606,393.09498041525285 251.010101010101,394.40563651549957 245.95959595959596,393.49520021971 240.9090909090909,393.0119043430272 235.85858585858585,392.22905759193213 230.8080808080808,390.77879212869567 225.75757575757575,392.74472904991717 220.7070707070707,393.7306375250226 215.65656565656565,391.7451477363187 210.6060606060606,390.61984242939184 205.55555555555554,391.1492339550185 200.50505050505052,394.061997230955 195.45454545454544,393.4238133617401 190.40404040404042,392.3752318065645 185.35353535353534,394.12570935229235 180.3030303030303,396.93707164638215 175.25252525252526,397.3645426695284 170.2020202020202,397.9114325946773 165.15151515151516,398.5651548537514 160.1010101010101,399.073623866589 155.05050505050505,399.5692229364581 150,399.9992207190496 "/><text class="poloto_text" alignment-baseline="middle" text-anchor="start" font-size="large" x="675" y="350">indirect_seq</text><line class="poloto5stroke" stroke="black" x1="680" x2="730" y1="331.25" y2="331.25"/><polyline class="poloto5stroke" fill="none" stroke="black" points="650,320.7743549501933 644.9494949494949,322.06963796260067 639.8989898989898,320.3023468400039 634.8484848484848,319.37122417716785 629.7979797979798,318.80100305265603 624.7474747474747,320.0949400343309 619.6969696969697,321.01989929328664 614.6464646464647,321.331729746311 609.5959595959596,323.1432509664855 604.5454545454545,322.8221163712051 599.4949494949494,323.94787035504277 594.4444444444445,324.0358818732875 589.3939393939394,326.28387126939907 584.3434343434344,326.0489534847201 579.2929292929293,327.6425357991042 574.2424242424242,327.1272421743072 569.1919191919192,325.8510633524714 564.1414141414141,328.4974778453968 559.090909090909,331.84765388024056 554.040404040404,332.70231255164214 548.989898989899,333.307955537535 543.939393939394,333.8087261991658 538.8888888888889,335.6485376792966 533.8383838383838,338.8419601702422 528.7878787878788,339.9242633374525 523.7373737373737,339.7118974711861 518.6868686868687,338.2951410888161 513.6363636363636,337.9664498297743 508.5858585858586,339.91798186070093 503.5353535353535,344.0898033921391 498.4848484848485,343.93309707738945 493.4343434343434,342.1429234323406 488.3838383838384,343.99716341734063 483.3333333333333,343.8644967391815 478.2828282828283,348.2895845794941 473.2323232323232,346.95486522808255 468.1818181818182,349.03443548061443 463.1313131313131,348.0099644057522 458.0808080808081,349.765920532707 453.030303030303,351.77027836623984 447.979797979798,351.26757130952024 442.9292929292929,351.6637294072057 437.8787878787879,352.433210309273 432.8282828282828,352.57097773547093 427.77777777777777,354.1298702402759 422.72727272727275,359.83959092000725 417.67676767676767,358.8558786003075 412.62626262626264,359.97114771317644 407.57575757575756,360.56281087111097 402.52525252525254,361.05918922193047 397.47474747474746,362.3139023957694 392.4242424242424,362.37534751797835 387.37373737373736,365.3999966467305 382.32323232323233,364.41342696354593 377.27272727272725,366.9359357853605 372.22222222222223,365.8619213337134 367.1717171717172,367.09250041266466 362.1212121212121,368.8669703658346 357.07070707070704,369.8905440868752 352.020202020202,370.7707064984711 346.969696969697,370.04186627869495 341.9191919191919,370.51382715973585 336.86868686868684,371.3387314675773 331.8181818181818,373.850283126938 326.7676767676768,372.86822382743605 321.7171717171717,374.33976602207537 316.66666666666663,375.2029495547826 311.6161616161616,376.01800658516015 306.5656565656566,376.8497355049611 301.5151515151515,377.70026162586817 296.4646464646464,378.61683771096375 291.4141414141414,379.3295964056729 286.3636363636364,381.59123502570327 281.3131313131313,382.9404537257068 276.26262626262627,383.39361740564146 271.2121212121212,384.3923013654183 266.16161616161617,384.51977283724153 261.1111111111111,386.0956914500836 256.06060606060606,386.098147365806 251.010101010101,386.8633304153591 245.95959595959596,387.27089435240924 240.9090909090909,388.0999312107452 235.85858585858585,388.39402711850477 230.8080808080808,389.8422617283554 225.75757575757575,390.3572719782614 220.7070707070707,390.7429215904038 215.65656565656565,392.0517829830072 210.6060606060606,392.96323470548964 205.55555555555554,393.57919726033157 200.50505050505052,393.9989227031225 195.45454545454544,394.62000962057755 190.40404040404042,395.16078337099464 185.35353535353534,395.87229049326834 180.3030303030303,396.78589114200787 175.25252525252526,397.32170583183165 170.2020202020202,397.7752237303801 165.15151515151516,398.4772850229522 160.1010101010101,399.01607514913195 155.05050505050505,399.5236468081479 150,399.99858312554477 "/><text class="poloto_text" alignment-baseline="start" text-anchor="middle" font-size="x-large" x="400" y="37.5">Bench of rebal:32_bytes with abspiral(num,1.5)</text><text class="poloto_text" alignment-baseline="start" text-anchor="middle" font-size="x-large" x="400" y="481.25">Number of Elements</text><text class="poloto_text" alignment-baseline="start" text-anchor="middle" font-size="x-large" transform="rotate(-90,37.5,250)" x="37.5" y="250">Time in Seconds</text><path stroke="black" fill="none" class="poloto_axis_lines" d=" M 150 100 L 150 400 L 650 400"/></svg>