<svg class="poloto" width="800" height="500" viewBox="0 0 800 500" xmlns="http://www.w3.org/2000/svg"><circle  r="1e5" class="poloto_background" /><text  class="poloto_text poloto_legend_text" x="675" y="100" >default_par</text><line  class="poloto_scatter poloto_legend_icon poloto0stroke poloto0legend" stroke="black" x1="685" x2="685" y1="81.25" y2="81.25" /><path  class="poloto_scatter poloto0stroke" d=" M 650.00 293.97 h 0 M 644.95 297.02 h 0 M 639.90 296.41 h 0 M 634.85 297.90 h 0 M 629.80 301.10 h 0 M 624.75 302.31 h 0 M 619.70 301.90 h 0 M 614.65 303.55 h 0 M 609.60 306.58 h 0 M 604.55 305.71 h 0 M 599.49 308.65 h 0 M 594.44 307.05 h 0 M 589.39 312.67 h 0 M 584.34 311.99 h 0 M 579.29 308.96 h 0 M 574.24 316.29 h 0 M 569.19 266.17 h 0 M 564.14 314.95 h 0 M 559.09 308.88 h 0 M 554.04 318.13 h 0 M 548.99 318.67 h 0 M 543.94 318.54 h 0 M 538.89 310.19 h 0 M 533.84 323.51 h 0 M 528.79 325.41 h 0 M 523.74 326.23 h 0 M 518.69 327.58 h 0 M 513.64 327.28 h 0 M 508.59 328.30 h 0 M 503.54 279.31 h 0 M 498.48 329.30 h 0 M 493.43 333.01 h 0 M 488.38 335.02 h 0 M 483.33 336.40 h 0 M 478.28 334.16 h 0 M 473.23 338.18 h 0 M 468.18 337.24 h 0 M 463.13 333.11 h 0 M 458.08 339.92 h 0 M 453.03 341.42 h 0 M 447.98 340.83 h 0 M 442.93 344.38 h 0 M 437.88 346.33 h 0 M 432.83 345.23 h 0 M 427.78 344.27 h 0 M 422.73 339.18 h 0 M 417.68 346.37 h 0 M 412.63 349.09 h 0 M 407.58 350.62 h 0 M 402.53 351.34 h 0 M 397.47 351.02 h 0 M 392.42 355.05 h 0 M 387.37 351.89 h 0 M 382.32 353.36 h 0 M 377.27 350.47 h 0 M 372.22 356.54 h 0 M 367.17 358.03 h 0 M 362.12 359.64 h 0 M 357.07 328.77 h 0 M 352.02 359.26 h 0 M 346.97 360.59 h 0 M 341.92 361.84 h 0 M 336.87 362.70 h 0 M 331.82 363.96 h 0 M 326.77 365.27 h 0 M 321.72 348.58 h 0 M 316.67 367.18 h 0 M 311.62 366.83 h 0 M 306.57 367.08 h 0 M 301.52 370.25 h 0 M 296.46 371.39 h 0 M 291.41 370.70 h 0 M 286.36 370.45 h 0 M 281.31 372.51 h 0 M 276.26 372.75 h 0 M 271.21 373.40 h 0 M 266.16 375.23 h 0 M 261.11 374.40 h 0 M 256.06 376.80 h 0 M 251.01 378.68 h 0 M 245.96 378.20 h 0 M 240.91 379.54 h 0 M 235.86 381.47 h 0 M 230.81 381.46 h 0 M 225.76 380.40 h 0 M 220.71 384.45 h 0 M 215.66 385.40 h 0 M 210.61 384.98 h 0 M 205.56 372.99 h 0 M 200.51 387.30 h 0 M 195.45 389.56 h 0 M 190.40 389.81 h 0 M 185.35 390.08 h 0 M 180.30 384.48 h 0 M 175.25 388.03 h 0 M 170.20 390.75 h 0 M 165.15 393.62 h 0 M 160.10 395.62 h 0 M 155.05 397.90 h 0 M 150.00 400.00 h 0" /><text  class="poloto_text poloto_legend_text" x="675" y="150" >default_seq</text><line  class="poloto_scatter poloto_legend_icon poloto1stroke poloto1legend" stroke="black" x1="685" x2="685" y1="131.25" y2="131.25" /><path  class="poloto_scatter poloto1stroke" d=" M 650.00 119.45 h 0 M 644.95 121.50 h 0 M 639.90 120.05 h 0 M 634.85 120.31 h 0 M 629.80 139.75 h 0 M 624.75 135.43 h 0 M 619.70 144.09 h 0 M 614.65 140.16 h 0 M 609.60 149.81 h 0 M 604.55 151.02 h 0 M 599.49 148.13 h 0 M 594.44 157.51 h 0 M 589.39 154.02 h 0 M 584.34 165.44 h 0 M 579.29 166.67 h 0 M 574.24 170.55 h 0 M 569.19 158.32 h 0 M 564.14 168.42 h 0 M 559.09 187.75 h 0 M 554.04 184.59 h 0 M 548.99 181.39 h 0 M 543.94 188.20 h 0 M 538.89 194.04 h 0 M 533.84 195.30 h 0 M 528.79 198.74 h 0 M 523.74 201.81 h 0 M 518.69 206.06 h 0 M 513.64 208.92 h 0 M 508.59 212.44 h 0 M 503.54 129.21 h 0 M 498.48 219.83 h 0 M 493.43 221.72 h 0 M 488.38 228.95 h 0 M 483.33 229.17 h 0 M 478.28 231.11 h 0 M 473.23 241.51 h 0 M 468.18 237.31 h 0 M 463.13 220.73 h 0 M 458.08 243.86 h 0 M 453.03 245.78 h 0 M 447.98 249.97 h 0 M 442.93 258.25 h 0 M 437.88 256.50 h 0 M 432.83 263.71 h 0 M 427.78 270.48 h 0 M 422.73 268.85 h 0 M 417.68 268.33 h 0 M 412.63 270.62 h 0 M 407.58 281.75 h 0 M 402.53 275.85 h 0 M 397.47 278.76 h 0 M 392.42 289.48 h 0 M 387.37 283.16 h 0 M 382.32 292.80 h 0 M 377.27 295.33 h 0 M 372.22 300.11 h 0 M 367.17 300.63 h 0 M 362.12 303.09 h 0 M 357.07 308.07 h 0 M 352.02 307.60 h 0 M 346.97 309.17 h 0 M 341.92 312.87 h 0 M 336.87 317.77 h 0 M 331.82 319.87 h 0 M 326.77 323.00 h 0 M 321.72 292.38 h 0 M 316.67 324.73 h 0 M 311.62 325.29 h 0 M 306.57 331.31 h 0 M 301.52 333.18 h 0 M 296.46 335.38 h 0 M 291.41 339.05 h 0 M 286.36 332.73 h 0 M 281.31 335.59 h 0 M 276.26 337.63 h 0 M 271.21 340.66 h 0 M 266.16 343.52 h 0 M 261.11 346.14 h 0 M 256.06 348.89 h 0 M 251.01 352.51 h 0 M 245.96 354.96 h 0 M 240.91 357.49 h 0 M 235.86 360.36 h 0 M 230.81 363.48 h 0 M 225.76 365.08 h 0 M 220.71 366.94 h 0 M 215.66 369.61 h 0 M 210.61 372.99 h 0 M 205.56 375.83 h 0 M 200.51 377.58 h 0 M 195.45 380.53 h 0 M 190.40 382.10 h 0 M 185.35 384.37 h 0 M 180.30 384.18 h 0 M 175.25 387.68 h 0 M 170.20 390.38 h 0 M 165.15 393.46 h 0 M 160.10 395.02 h 0 M 155.05 397.88 h 0 M 150.00 400.00 h 0" /><text  class="poloto_text poloto_legend_text" x="675" y="200" >direct_par</text><line  class="poloto_scatter poloto_legend_icon poloto2stroke poloto2legend" stroke="black" x1="685" x2="685" y1="181.25" y2="181.25" /><path  class="poloto_scatter poloto2stroke" d=" M 650.00 302.93 h 0 M 644.95 297.30 h 0 M 639.90 301.82 h 0 M 634.85 306.66 h 0 M 629.80 303.75 h 0 M 624.75 309.26 h 0 M 619.70 311.60 h 0 M 614.65 310.43 h 0 M 609.60 312.03 h 0 M 604.55 309.79 h 0 M 599.49 316.47 h 0 M 594.44 313.59 h 0 M 589.39 315.85 h 0 M 584.34 316.26 h 0 M 579.29 320.06 h 0 M 574.24 318.04 h 0 M 569.19 273.83 h 0 M 564.14 319.14 h 0 M 559.09 319.82 h 0 M 554.04 322.87 h 0 M 548.99 326.37 h 0 M 543.94 320.34 h 0 M 538.89 327.03 h 0 M 533.84 324.35 h 0 M 528.79 328.89 h 0 M 523.74 329.23 h 0 M 518.69 326.92 h 0 M 513.64 331.10 h 0 M 508.59 325.38 h 0 M 503.54 334.92 h 0 M 498.48 334.49 h 0 M 493.43 338.80 h 0 M 488.38 337.62 h 0 M 483.33 339.33 h 0 M 478.28 339.36 h 0 M 473.23 341.52 h 0 M 468.18 341.50 h 0 M 463.13 342.63 h 0 M 458.08 341.62 h 0 M 453.03 345.65 h 0 M 447.98 344.66 h 0 M 442.93 346.07 h 0 M 437.88 339.32 h 0 M 432.83 347.29 h 0 M 427.78 348.81 h 0 M 422.73 349.39 h 0 M 417.68 345.29 h 0 M 412.63 348.09 h 0 M 407.58 353.28 h 0 M 402.53 354.81 h 0 M 397.47 353.06 h 0 M 392.42 357.38 h 0 M 387.37 315.79 h 0 M 382.32 357.03 h 0 M 377.27 357.14 h 0 M 372.22 359.88 h 0 M 367.17 359.31 h 0 M 362.12 359.33 h 0 M 357.07 363.08 h 0 M 352.02 361.44 h 0 M 346.97 361.53 h 0 M 341.92 363.40 h 0 M 336.87 364.68 h 0 M 331.82 367.29 h 0 M 326.77 367.33 h 0 M 321.72 352.65 h 0 M 316.67 366.78 h 0 M 311.62 367.59 h 0 M 306.57 369.58 h 0 M 301.52 369.34 h 0 M 296.46 369.68 h 0 M 291.41 372.43 h 0 M 286.36 369.23 h 0 M 281.31 372.87 h 0 M 276.26 365.69 h 0 M 271.21 368.84 h 0 M 266.16 373.23 h 0 M 261.11 375.67 h 0 M 256.06 376.20 h 0 M 251.01 377.99 h 0 M 245.96 377.93 h 0 M 240.91 379.31 h 0 M 235.86 379.78 h 0 M 230.81 382.83 h 0 M 225.76 382.17 h 0 M 220.71 384.29 h 0 M 215.66 385.22 h 0 M 210.61 384.85 h 0 M 205.56 385.64 h 0 M 200.51 387.27 h 0 M 195.45 389.30 h 0 M 190.40 389.39 h 0 M 185.35 390.83 h 0 M 180.30 386.66 h 0 M 175.25 388.85 h 0 M 170.20 391.86 h 0 M 165.15 393.96 h 0 M 160.10 396.12 h 0 M 155.05 398.09 h 0 M 150.00 399.99 h 0" /><text  class="poloto_text poloto_legend_text" x="675" y="250" >direct_seq</text><line  class="poloto_scatter poloto_legend_icon poloto3stroke poloto3legend" stroke="black" x1="685" x2="685" y1="231.25" y2="231.25" /><path  class="poloto_scatter poloto3stroke" d=" M 650.00 146.66 h 0 M 644.95 148.85 h 0 M 639.90 152.11 h 0 M 634.85 153.92 h 0 M 629.80 161.25 h 0 M 624.75 167.58 h 0 M 619.70 169.31 h 0 M 614.65 167.74 h 0 M 609.60 173.42 h 0 M 604.55 179.52 h 0 M 599.49 178.12 h 0 M 594.44 174.52 h 0 M 589.39 185.94 h 0 M 584.34 194.05 h 0 M 579.29 188.50 h 0 M 574.24 190.90 h 0 M 569.19 199.11 h 0 M 564.14 194.51 h 0 M 559.09 203.08 h 0 M 554.04 207.30 h 0 M 548.99 210.22 h 0 M 543.94 198.32 h 0 M 538.89 212.25 h 0 M 533.84 220.08 h 0 M 528.79 219.59 h 0 M 523.74 227.85 h 0 M 518.69 229.12 h 0 M 513.64 232.04 h 0 M 508.59 232.54 h 0 M 503.54 233.07 h 0 M 498.48 240.65 h 0 M 493.43 244.21 h 0 M 488.38 242.60 h 0 M 483.33 250.38 h 0 M 478.28 250.67 h 0 M 473.23 251.81 h 0 M 468.18 255.79 h 0 M 463.13 257.88 h 0 M 458.08 263.98 h 0 M 453.03 258.01 h 0 M 447.98 266.16 h 0 M 442.93 274.18 h 0 M 437.88 271.61 h 0 M 432.83 275.87 h 0 M 427.78 271.11 h 0 M 422.73 277.46 h 0 M 417.68 283.82 h 0 M 412.63 281.89 h 0 M 407.58 286.96 h 0 M 402.53 290.93 h 0 M 397.47 288.43 h 0 M 392.42 295.71 h 0 M 387.37 293.28 h 0 M 382.32 297.82 h 0 M 377.27 301.63 h 0 M 372.22 303.22 h 0 M 367.17 307.93 h 0 M 362.12 311.49 h 0 M 357.07 310.91 h 0 M 352.02 308.04 h 0 M 346.97 313.00 h 0 M 341.92 317.79 h 0 M 336.87 319.85 h 0 M 331.82 326.14 h 0 M 326.77 325.30 h 0 M 321.72 327.58 h 0 M 316.67 330.09 h 0 M 311.62 334.43 h 0 M 306.57 335.04 h 0 M 301.52 338.39 h 0 M 296.46 339.31 h 0 M 291.41 341.98 h 0 M 286.36 332.45 h 0 M 281.31 339.34 h 0 M 276.26 342.51 h 0 M 271.21 345.39 h 0 M 266.16 348.42 h 0 M 261.11 350.45 h 0 M 256.06 352.44 h 0 M 251.01 355.92 h 0 M 245.96 357.43 h 0 M 240.91 360.83 h 0 M 235.86 363.25 h 0 M 230.81 366.29 h 0 M 225.76 368.23 h 0 M 220.71 370.58 h 0 M 215.66 372.97 h 0 M 210.61 375.33 h 0 M 205.56 377.38 h 0 M 200.51 379.22 h 0 M 195.45 381.95 h 0 M 190.40 384.00 h 0 M 185.35 386.02 h 0 M 180.30 386.56 h 0 M 175.25 389.26 h 0 M 170.20 391.45 h 0 M 165.15 393.94 h 0 M 160.10 395.92 h 0 M 155.05 398.08 h 0 M 150.00 399.99 h 0" /><text  class="poloto_text poloto_legend_text" x="675" y="300" >indirect_par</text><line  class="poloto_scatter poloto_legend_icon poloto4stroke poloto4legend" stroke="black" x1="685" x2="685" y1="281.25" y2="281.25" /><path  class="poloto_scatter poloto4stroke" d=" M 650.00 285.76 h 0 M 644.95 281.60 h 0 M 639.90 285.18 h 0 M 634.85 288.48 h 0 M 629.80 290.69 h 0 M 624.75 283.11 h 0 M 619.70 292.55 h 0 M 614.65 293.82 h 0 M 609.60 295.58 h 0 M 604.55 298.58 h 0 M 599.49 296.05 h 0 M 594.44 303.74 h 0 M 589.39 299.34 h 0 M 584.34 304.73 h 0 M 579.29 307.05 h 0 M 574.24 306.17 h 0 M 569.19 243.87 h 0 M 564.14 304.77 h 0 M 559.09 311.42 h 0 M 554.04 310.78 h 0 M 548.99 312.49 h 0 M 543.94 311.43 h 0 M 538.89 315.71 h 0 M 533.84 313.52 h 0 M 528.79 318.38 h 0 M 523.74 318.50 h 0 M 518.69 318.53 h 0 M 513.64 319.79 h 0 M 508.59 321.70 h 0 M 503.54 293.22 h 0 M 498.48 324.20 h 0 M 493.43 326.09 h 0 M 488.38 328.49 h 0 M 483.33 325.54 h 0 M 478.28 320.20 h 0 M 473.23 328.52 h 0 M 468.18 331.73 h 0 M 463.13 335.38 h 0 M 458.08 327.75 h 0 M 453.03 333.73 h 0 M 447.98 336.84 h 0 M 442.93 337.50 h 0 M 437.88 332.61 h 0 M 432.83 342.39 h 0 M 427.78 341.44 h 0 M 422.73 343.92 h 0 M 417.68 341.61 h 0 M 412.63 342.40 h 0 M 407.58 345.07 h 0 M 402.53 339.33 h 0 M 397.47 342.46 h 0 M 392.42 349.73 h 0 M 387.37 324.83 h 0 M 382.32 347.89 h 0 M 377.27 337.07 h 0 M 372.22 353.30 h 0 M 367.17 352.74 h 0 M 362.12 351.86 h 0 M 357.07 355.76 h 0 M 352.02 356.87 h 0 M 346.97 352.20 h 0 M 341.92 359.99 h 0 M 336.87 361.28 h 0 M 331.82 362.22 h 0 M 326.77 362.65 h 0 M 321.72 347.87 h 0 M 316.67 364.51 h 0 M 311.62 365.86 h 0 M 306.57 365.61 h 0 M 301.52 367.07 h 0 M 296.46 368.54 h 0 M 291.41 370.66 h 0 M 286.36 364.90 h 0 M 281.31 367.73 h 0 M 276.26 369.00 h 0 M 271.21 370.34 h 0 M 266.16 370.04 h 0 M 261.11 373.12 h 0 M 256.06 372.81 h 0 M 251.01 374.72 h 0 M 245.96 376.01 h 0 M 240.91 377.79 h 0 M 235.86 375.88 h 0 M 230.81 380.38 h 0 M 225.76 380.37 h 0 M 220.71 382.15 h 0 M 215.66 381.64 h 0 M 210.61 384.71 h 0 M 205.56 385.65 h 0 M 200.51 387.13 h 0 M 195.45 388.79 h 0 M 190.40 388.53 h 0 M 185.35 389.14 h 0 M 180.30 384.22 h 0 M 175.25 387.50 h 0 M 170.20 390.86 h 0 M 165.15 393.11 h 0 M 160.10 395.62 h 0 M 155.05 397.81 h 0 M 150.00 400.00 h 0" /><text  class="poloto_text poloto_legend_text" x="675" y="350" >indirect_seq</text><line  class="poloto_scatter poloto_legend_icon poloto5stroke poloto5legend" stroke="black" x1="685" x2="685" y1="331.25" y2="331.25" /><path  class="poloto_scatter poloto5stroke" d=" M 650.00 105.71 h 0 M 644.95 102.66 h 0 M 639.90 103.47 h 0 M 634.85 108.70 h 0 M 629.80 100.00 h 0 M 624.75 115.41 h 0 M 619.70 120.52 h 0 M 614.65 143.27 h 0 M 609.60 120.83 h 0 M 604.55 129.13 h 0 M 599.49 133.38 h 0 M 594.44 142.03 h 0 M 589.39 145.77 h 0 M 584.34 159.97 h 0 M 579.29 158.97 h 0 M 574.24 148.35 h 0 M 569.19 129.99 h 0 M 564.14 178.26 h 0 M 559.09 165.17 h 0 M 554.04 183.98 h 0 M 548.99 176.89 h 0 M 543.94 178.55 h 0 M 538.89 187.99 h 0 M 533.84 175.70 h 0 M 528.79 191.84 h 0 M 523.74 199.00 h 0 M 518.69 185.75 h 0 M 513.64 203.70 h 0 M 508.59 205.82 h 0 M 503.54 187.97 h 0 M 498.48 220.26 h 0 M 493.43 221.03 h 0 M 488.38 197.59 h 0 M 483.33 217.37 h 0 M 478.28 222.93 h 0 M 473.23 224.39 h 0 M 468.18 240.71 h 0 M 463.13 234.99 h 0 M 458.08 238.97 h 0 M 453.03 249.83 h 0 M 447.98 248.59 h 0 M 442.93 242.19 h 0 M 437.88 247.20 h 0 M 432.83 258.40 h 0 M 427.78 265.35 h 0 M 422.73 262.16 h 0 M 417.68 268.95 h 0 M 412.63 263.92 h 0 M 407.58 270.04 h 0 M 402.53 269.22 h 0 M 397.47 282.50 h 0 M 392.42 278.89 h 0 M 387.37 280.54 h 0 M 382.32 284.18 h 0 M 377.27 280.23 h 0 M 372.22 282.85 h 0 M 367.17 292.66 h 0 M 362.12 298.67 h 0 M 357.07 301.01 h 0 M 352.02 301.43 h 0 M 346.97 303.02 h 0 M 341.92 311.61 h 0 M 336.87 310.91 h 0 M 331.82 305.93 h 0 M 326.77 314.67 h 0 M 321.72 298.76 h 0 M 316.67 320.11 h 0 M 311.62 317.74 h 0 M 306.57 323.41 h 0 M 301.52 327.68 h 0 M 296.46 333.11 h 0 M 291.41 333.73 h 0 M 286.36 326.06 h 0 M 281.31 330.33 h 0 M 276.26 333.79 h 0 M 271.21 336.80 h 0 M 266.16 338.45 h 0 M 261.11 342.10 h 0 M 256.06 345.14 h 0 M 251.01 348.69 h 0 M 245.96 352.07 h 0 M 240.91 354.04 h 0 M 235.86 357.08 h 0 M 230.81 359.55 h 0 M 225.76 363.19 h 0 M 220.71 364.40 h 0 M 215.66 367.63 h 0 M 210.61 370.58 h 0 M 205.56 373.99 h 0 M 200.51 376.94 h 0 M 195.45 378.07 h 0 M 190.40 381.07 h 0 M 185.35 384.29 h 0 M 180.30 384.06 h 0 M 175.25 387.32 h 0 M 170.20 390.35 h 0 M 165.15 392.88 h 0 M 160.10 395.57 h 0 M 155.05 397.66 h 0 M 150.00 399.99 h 0" /><text  class="poloto_labels poloto_text poloto_title" x="400" y="37.5" >Bench of query:256_bytes with abspiral(num,1.5)</text><text  class="poloto_labels poloto_text poloto_xname" x="400" y="481.25" >Number of Elements</text><text  class="poloto_labels poloto_text poloto_yname" transform="rotate(-90,37.5,250)" x="37.5" y="250" >Time in Seconds</text><text  class="poloto_tick_labels poloto_text" dominant-baseline="middle" text-anchor="start" x="150" y="70" ></text><line  class="poloto_axis_lines" stroke="black" x1="150" x2="144" y1="400" y2="400" /><text  class="poloto_tick_labels poloto_text" dominant-baseline="middle" text-anchor="end" x="135" y="400" >0e0</text><line  class="poloto_axis_lines" stroke="black" x1="150" x2="144" y1="338.54345530818614" y2="338.54345530818614" /><text  class="poloto_tick_labels poloto_text" dominant-baseline="middle" text-anchor="end" x="135" y="338.54345530818614" >0.001</text><line  class="poloto_axis_lines" stroke="black" x1="150" x2="144" y1="277.0869106163723" y2="277.0869106163723" /><text  class="poloto_tick_labels poloto_text" dominant-baseline="middle" text-anchor="end" x="135" y="277.0869106163723" >0.002</text><line  class="poloto_axis_lines" stroke="black" x1="150" x2="144" y1="215.63036592455842" y2="215.63036592455842" /><text  class="poloto_tick_labels poloto_text" dominant-baseline="middle" text-anchor="end" x="135" y="215.63036592455842" >0.003</text><line  class="poloto_axis_lines" stroke="black" x1="150" x2="144" y1="154.17382123274453" y2="154.17382123274453" /><text  class="poloto_tick_labels poloto_text" dominant-baseline="middle" text-anchor="end" x="135" y="154.17382123274453" >0.004</text><text  class="poloto_tick_labels poloto_text" dominant-baseline="middle" text-anchor="start" x="440.00000000000006" y="70" ></text><line  class="poloto_axis_lines" stroke="black" x1="150" x2="150" y1="400" y2="405" /><text  class="poloto_tick_labels poloto_text" dominant-baseline="start" text-anchor="middle" x="150" y="430" >0</text><line  class="poloto_axis_lines" stroke="black" x1="234.17508417508418" x2="234.17508417508418" y1="400" y2="405" /><text  class="poloto_tick_labels poloto_text" dominant-baseline="start" text-anchor="middle" x="234.17508417508418" y="430" >5000</text><line  class="poloto_axis_lines" stroke="black" x1="318.35016835016836" x2="318.35016835016836" y1="400" y2="405" /><text  class="poloto_tick_labels poloto_text" dominant-baseline="start" text-anchor="middle" x="318.35016835016836" y="430" >10000</text><line  class="poloto_axis_lines" stroke="black" x1="402.52525252525254" x2="402.52525252525254" y1="400" y2="405" /><text  class="poloto_tick_labels poloto_text" dominant-baseline="start" text-anchor="middle" x="402.52525252525254" y="430" >15000</text><line  class="poloto_axis_lines" stroke="black" x1="486.7003367003367" x2="486.7003367003367" y1="400" y2="405" /><text  class="poloto_tick_labels poloto_text" dominant-baseline="start" text-anchor="middle" x="486.7003367003367" y="430" >20000</text><line  class="poloto_axis_lines" stroke="black" x1="570.8754208754208" x2="570.8754208754208" y1="400" y2="405" /><text  class="poloto_tick_labels poloto_text" dominant-baseline="start" text-anchor="middle" x="570.8754208754208" y="430" >25000</text><path  stroke="black" fill="none" class="poloto_axis_lines" style="stroke-dasharray:8.417508417508419;stroke-dashoffset:-0;" d=" M 150 400 L 650 400" /><path  stroke="black" fill="none" class="poloto_axis_lines" style="stroke-dasharray:6.145654469181387;stroke-dashoffset:-0;" d=" M 150 400 L 150 100" /></svg>