<svg class="poloto" width="800" height="500" viewBox="0 0 800 500" xmlns="http://www.w3.org/2000/svg"><style>.poloto {font-family: sans-serif;stroke-width:2;}.poloto_text{fill: var(--poloto_fg_color,black);}.poloto_axis_lines{stroke: var(--poloto_fg_color,black);stoke-width:3;fill:none}.poloto_background{fill: var(--poloto_bg_color,aliceblue);}.poloto0stroke{stroke:  var(--poloto_color0,blue);}.poloto1stroke{stroke:  var(--poloto_color1,red);}.poloto2stroke{stroke:  var(--poloto_color2,green);}.poloto3stroke{stroke:  var(--poloto_color3,gold);}.poloto4stroke{stroke:  var(--poloto_color4,aqua);}.poloto5stroke{stroke:  var(--poloto_color5,brown);}.poloto6stroke{stroke:  var(--poloto_color6,lime);}.poloto7stroke{stroke:  var(--poloto_color7,chocolate);}.poloto0fill{fill:var(--poloto_color0,blue);}.poloto1fill{fill:var(--poloto_color1,red);}.poloto2fill{fill:var(--poloto_color2,green);}.poloto3fill{fill:var(--poloto_color3,gold);}.poloto4fill{fill:var(--poloto_color4,aqua);}.poloto5fill{fill:var(--poloto_color5,brown);}.poloto6fill{fill:var(--poloto_color6,lime);}.poloto7fill{fill:var(--poloto_color7,chocolate);}</style><rect class="poloto_background" fill="white" x="0" y="0" width="800" height="500"/><line class="poloto_axis_lines" stroke="black" x1="150" x2="150" y1="400" y2="405"/><text class="poloto_text" alignment-baseline="start" text-anchor="middle" x="150" y="430">0</text><line class="poloto_axis_lines" stroke="black" x1="234.17508417508418" x2="234.17508417508418" y1="400" y2="405"/><text class="poloto_text" alignment-baseline="start" text-anchor="middle" x="234.17508417508418" y="430">5000</text><line class="poloto_axis_lines" stroke="black" x1="318.35016835016836" x2="318.35016835016836" y1="400" y2="405"/><text class="poloto_text" alignment-baseline="start" text-anchor="middle" x="318.35016835016836" y="430">10000</text><line class="poloto_axis_lines" stroke="black" x1="402.52525252525254" x2="402.52525252525254" y1="400" y2="405"/><text class="poloto_text" alignment-baseline="start" text-anchor="middle" x="402.52525252525254" y="430">15000</text><line class="poloto_axis_lines" stroke="black" x1="486.7003367003367" x2="486.7003367003367" y1="400" y2="405"/><text class="poloto_text" alignment-baseline="start" text-anchor="middle" x="486.7003367003367" y="430">20000</text><line class="poloto_axis_lines" stroke="black" x1="570.8754208754208" x2="570.8754208754208" y1="400" y2="405"/><text class="poloto_text" alignment-baseline="start" text-anchor="middle" x="570.8754208754208" y="430">25000</text><line class="poloto_axis_lines" stroke="black" x1="150" x2="144" y1="362.3267904756025" y2="362.3267904756025"/><text class="poloto_text" alignment-baseline="middle" text-anchor="end" x="135" y="362.3267904756025">0.0005</text><line class="poloto_axis_lines" stroke="black" x1="150" x2="144" y1="324.6483813305805" y2="324.6483813305805"/><text class="poloto_text" alignment-baseline="middle" text-anchor="end" x="135" y="324.6483813305805">0.0010</text><line class="poloto_axis_lines" stroke="black" x1="150" x2="144" y1="286.9699721855585" y2="286.9699721855585"/><text class="poloto_text" alignment-baseline="middle" text-anchor="end" x="135" y="286.9699721855585">0.0015</text><line class="poloto_axis_lines" stroke="black" x1="150" x2="144" y1="249.29156304053652" y2="249.29156304053652"/><text class="poloto_text" alignment-baseline="middle" text-anchor="end" x="135" y="249.29156304053652">0.0020</text><line class="poloto_axis_lines" stroke="black" x1="150" x2="144" y1="211.61315389551447" y2="211.61315389551447"/><text class="poloto_text" alignment-baseline="middle" text-anchor="end" x="135" y="211.61315389551447">0.0025</text><line class="poloto_axis_lines" stroke="black" x1="150" x2="144" y1="173.93474475049243" y2="173.93474475049243"/><text class="poloto_text" alignment-baseline="middle" text-anchor="end" x="135" y="173.93474475049243">0.0030</text><line class="poloto_axis_lines" stroke="black" x1="150" x2="144" y1="136.25633560547044" y2="136.25633560547044"/><text class="poloto_text" alignment-baseline="middle" text-anchor="end" x="135" y="136.25633560547044">0.0035</text><text class="poloto_text" alignment-baseline="middle" text-anchor="start" font-size="large" x="675" y="100">default_par</text><line class="poloto0stroke" stroke="black" x1="680" x2="730" y1="81.25" y2="81.25"/><polyline class="poloto0stroke" fill="none" stroke="black" points="650,268.11283216773086 644.9494949494949,281.04828381454655 639.8989898989898,287.3224929077795 634.8484848484848,284.95236694975415 629.7979797979798,274.2913400048109 624.7474747474747,287.10259670402763 619.6969696969697,273.53973116603913 614.6464646464647,281.13622124159554 609.5959595959596,287.972671924969 604.5454545454545,292.6933256554624 599.4949494949494,297.09710111356594 594.4444444444445,285.0654819920895 589.3939393939394,297.11013732831003 584.3434343434344,299.3828952194144 579.2929292929293,292.5939310975549 574.2424242424242,300.3351793019755 569.1919191919192,296.66680952744014 564.1414141414141,302.00900822066495 559.090909090909,305.9222851331617 554.040404040404,293.26045363295987 548.989898989899,300.99026225189846 543.939393939394,306.8510584112046 538.8888888888889,322.47840944848076 533.8383838383838,325.0973551634286 528.7878787878788,269.0236740709843 523.7373737373737,298.8674559211041 518.6868686868687,307.6305468532446 513.6363636363636,311.9915993195556 508.5858585858586,312.30704764376014 503.5353535353535,316.0644865221291 498.4848484848485,311.3564215992789 493.4343434343434,319.5505686074535 488.3838383838384,316.5039631128559 483.3333333333333,317.7499129346891 478.2828282828283,324.2529049648744 473.2323232323232,322.5829272563281 468.1818181818182,325.65017488638523 463.1313131313131,334.6642085660053 458.0808080808081,324.9962323859352 453.030303030303,333.0472749169812 447.979797979798,317.468379823271 442.9292929292929,323.8302280721523 437.8787878787879,326.3286896866322 432.8282828282828,329.4696366707035 427.77777777777777,328.8710761511952 422.72727272727275,319.04929720067196 417.67676767676767,325.0874858891438 412.62626262626264,327.1126258816165 407.57575757575756,328.01140533852197 402.52525252525254,327.4330439337164 397.47474747474746,333.1143421186761 392.4242424242424,333.55277037315665 387.37373737373736,326.44044057594414 382.32323232323233,340.4794920186544 377.27272727272725,335.8351782213394 372.22222222222223,342.0181294250196 367.1717171717172,342.8164572150831 362.1212121212121,341.7939433767119 357.07070707070704,342.0392277402683 352.020202020202,341.75460664258503 346.969696969697,346.2243965797931 341.9191919191919,348.1404174894297 336.86868686868684,350.24241939003184 331.8181818181818,353.3245147949573 326.7676767676768,351.7513656330044 321.7171717171717,354.9899000012031 316.66666666666663,341.3239422172085 311.6161616161616,355.19457120449187 306.5656565656566,356.3833976667651 301.5151515151515,357.6256541868438 296.4646464646464,360.00836456616827 291.4141414141414,347.327768285793 286.3636363636364,358.789693418458 281.3131313131313,352.1640942972475 276.26262626262627,359.79736386830496 271.2121212121212,363.3017567471856 266.16161616161617,362.5698930364996 261.1111111111111,366.19116444097614 256.06060606060606,367.0634196749484 251.010101010101,366.4227348996209 245.95959595959596,372.4668802434166 240.9090909090909,372.9749351313898 235.85858585858585,374.22043315977805 230.8080808080808,375.47037674793853 225.75757575757575,376.4438359067705 220.7070707070707,378.9758991104317 215.65656565656565,378.3530009605373 210.6060606060606,380.0110763242963 205.55555555555554,380.9364589583293 200.50505050505052,383.29392044427533 195.45454545454544,383.9068736554488 190.40404040404042,383.85080740482334 185.35353535353534,385.7805455091297 180.3030303030303,384.91883943278174 175.25252525252526,386.83456097443167 170.2020202020202,389.2493706200742 165.15151515151516,391.6466211818851 160.1010101010101,395.1167276536076 155.05050505050505,397.6404271956056 150,399.9996232161451 "/><text class="poloto_text" alignment-baseline="middle" text-anchor="start" font-size="large" x="675" y="150">default_seq</text><line class="poloto1stroke" stroke="black" x1="680" x2="730" y1="131.25" y2="131.25"/><polyline class="poloto1stroke" fill="none" stroke="black" points="650,119.34181251589325 644.9494949494949,129.3319568993698 639.8989898989898,120.86318965812052 634.8484848484848,109.67008162525087 629.7979797979798,113.5838761263546 624.7474747474747,116.19273324981134 619.6969696969697,143.13739604024443 614.6464646464647,133.93549524168446 609.5959595959596,132.42806667377965 604.5454545454545,131.31195263809207 599.4949494949494,139.53578642331513 594.4444444444445,140.84284679151943 589.3939393939394,141.1123262292778 584.3434343434344,164.07159183708546 579.2929292929293,150.82046377617056 574.2424242424242,159.62357571212158 569.1919191919192,166.74856011213916 564.1414141414141,169.7283264949365 559.090909090909,172.57078276119648 554.040404040404,182.30123802700507 548.989898989899,174.97083235885316 543.939393939394,169.32516883357752 538.8888888888889,190.9214569582557 533.8383838383838,188.1058977541797 528.7878787878788,105.53086412679573 523.7373737373737,189.90896591621365 518.6868686868687,190.99672662346723 513.6363636363636,198.0141052293724 508.5858585858586,205.075277095037 503.5353535353535,200.4883015881442 498.4848484848485,204.84090595566747 493.4343434343434,201.16718484129777 488.3838383838384,212.3314482751913 483.3333333333333,215.414521834857 478.2828282828283,212.89526894921732 473.2323232323232,217.51826511407734 468.1818181818182,222.75059465962042 463.1313131313131,221.85625418297096 458.0808080808081,242.25173673956627 453.030303030303,252.03500358865847 447.979797979798,242.06937009616107 442.9292929292929,241.06244093847147 437.8787878787879,244.1010545140705 432.8282828282828,241.3879953995436 427.77777777777777,246.50389382659168 422.72727272727275,256.21926884129323 417.67676767676767,257.3343213817021 412.62626262626264,255.70962828991824 407.57575757575756,266.4466179424451 402.52525252525254,266.8974814825243 397.47474747474746,275.45454583104095 392.4242424242424,276.83433178486337 387.37373737373736,277.84441033763585 382.32323232323233,289.3644325982569 377.27272727272725,282.7233145915267 372.22222222222223,289.06895968520456 367.1717171717172,288.5948134305016 362.1212121212121,280.2283971431011 357.07070707070704,289.2719684640693 352.020202020202,294.8378268443066 346.969696969697,299.79540456645117 341.9191919191919,302.67267963238766 336.86868686868684,301.2995258308846 331.8181818181818,307.8150978960248 326.7676767676768,314.8373014804692 321.7171717171717,313.0161528079456 316.66666666666663,316.6771359789718 311.6161616161616,314.17385815864105 306.5656565656566,318.4896172355014 301.5151515151515,324.3604405774808 296.4646464646464,326.79024713369193 291.4141414141414,325.92138254372946 286.3636363636364,328.72872612525646 281.3131313131313,330.9436149782993 276.26262626262627,335.7629833833606 271.2121212121212,337.6235433578612 266.16161616161617,337.52128451723905 261.1111111111111,343.84651117900785 256.06060606060606,344.7870398593098 251.010101010101,339.83187462643485 245.95959595959596,345.4053433137317 240.9090909090909,355.60601905625 235.85858585858585,357.62957557849296 230.8080808080808,359.72780960949035 225.75757575757575,362.39868086620817 220.7070707070707,364.85870494710707 215.65656565656565,364.3510996594068 210.6060606060606,367.21300278235185 205.55555555555554,369.3517797921109 200.50505050505052,374.6406229953804 195.45454545454544,375.6942601385015 190.40404040404042,377.31036257531355 185.35353535353534,380.7608757961158 180.3030303030303,382.1316927727854 175.25252525252526,386.6071345144005 170.2020202020202,389.4396458419396 165.15151515151516,391.7589784832726 160.1010101010101,394.5642111366887 155.05050505050505,397.50470959613267 150,399.9993971454038 "/><text class="poloto_text" alignment-baseline="middle" text-anchor="start" font-size="large" x="675" y="200">direct_par</text><line class="poloto2stroke" stroke="black" x1="680" x2="730" y1="181.25" y2="181.25"/><polyline class="poloto2stroke" fill="none" stroke="black" points="650,276.0060847415127 644.9494949494949,275.518674182171 639.8989898989898,289.31605999522935 634.8484848484848,288.4042355508915 629.7979797979798,289.35170342760165 624.7474747474747,289.5963824756685 619.6969696969697,284.6782204418451 614.6464646464647,293.78772728772356 609.5959595959596,295.3478446212764 604.5454545454545,285.49395763174687 599.4949494949494,298.49255508860836 594.4444444444445,303.09504948102085 589.3939393939394,295.2165701142572 584.3434343434344,302.93845699570323 579.2929292929293,304.7930647012241 574.2424242424242,294.62072035541917 569.1919191919192,307.97485732180184 564.1414141414141,308.3223259581302 559.090909090909,310.0721877659091 554.040404040404,313.25442779358775 548.989898989899,306.9853419502946 543.939393939394,302.4853388747429 538.8888888888889,315.0590750395073 533.8383838383838,332.4405031612681 528.7878787878788,332.6070394887206 523.7373737373737,296.2324561866532 518.6868686868687,324.684021183696 513.6363636363636,322.53281766102646 508.5858585858586,313.26649023993576 503.5353535353535,319.88485189333744 498.4848484848485,323.66279254415383 493.4343434343434,318.84130553487944 488.3838383838384,314.76232131397006 483.3333333333333,324.18862747804405 478.2828282828283,326.1753343232799 473.2323232323232,326.5385543213667 468.1818181818182,326.10532827102026 463.1313131313131,329.0113163456091 458.0808080808081,340.7347246106898 453.030303030303,339.1155319944406 447.979797979798,334.6296924240735 442.9292929292929,339.64763062774347 437.8787878787879,333.46324508953387 432.8282828282828,333.0299444713373 427.77777777777777,332.29506514906427 422.72727272727275,328.50785615310843 417.67676767676767,331.5665153213658 412.62626262626264,331.39417147428975 407.57575757575756,329.6668423162888 402.52525252525254,332.5799889044922 397.47474747474746,324.3183141284895 392.4242424242424,335.26630886522366 387.37373737373736,337.27358766441307 382.32323232323233,342.95210052085235 377.27272727272725,341.0177666244875 372.22222222222223,344.40905104054895 367.1717171717172,345.54942594560043 362.1212121212121,344.6421282084012 357.07070707070704,341.79348719692274 352.020202020202,346.1981706282605 346.969696969697,344.8339123326461 341.9191919191919,347.43756286562456 336.86868686868684,348.9428903746928 331.8181818181818,332.38209898922315 326.7676767676768,349.95237238466405 321.7171717171717,353.676882977675 316.66666666666663,354.97505661267894 311.6161616161616,355.7539441255736 306.5656565656566,357.48187421271984 301.5151515151515,359.40716785383995 296.4646464646464,362.04970332750025 291.4141414141414,354.0008408094851 286.3636363636364,362.2289775982963 281.3131313131313,362.59701818857815 276.26262626262627,356.6789495340117 271.2121212121212,365.41340641169404 266.16161616161617,353.9731849097672 261.1111111111111,368.9037827279183 256.06060606060606,368.75412505266473 251.010101010101,371.21030450293676 245.95959595959596,372.90259335088274 240.9090909090909,374.4043021260466 235.85858585858585,376.4006567351888 230.8080808080808,376.11814327585836 225.75757575757575,377.94810850007633 220.7070707070707,379.9755074597741 215.65656565656565,379.10151961987185 210.6060606060606,379.6456719268345 205.55555555555554,379.6397942257049 200.50505050505052,382.5447986626234 195.45454545454544,383.7819319327623 190.40404040404042,385.3403857453052 185.35353535353534,386.93214835855906 180.3030303030303,385.302632481408 175.25252525252526,388.33054447392436 170.2020202020202,389.52125816075807 165.15151515151516,392.5781068654772 160.1010101010101,395.49712868749157 155.05050505050505,397.85142638566305 150,399.9999246434432 "/><text class="poloto_text" alignment-baseline="middle" text-anchor="start" font-size="large" x="675" y="250">direct_seq</text><line class="poloto3stroke" stroke="black" x1="680" x2="730" y1="231.25" y2="231.25"/><polyline class="poloto3stroke" fill="none" stroke="black" points="650,146.1692195551356 644.9494949494949,157.27667105990213 639.8989898989898,157.28533847589617 634.8484848484848,163.2853133343376 629.7979797979798,161.5838329022744 624.7474747474747,158.1379209564609 619.6969696969697,167.64319886018922 614.6464646464647,163.279435633208 609.5959595959596,174.70391454606465 604.5454545454545,173.40325824028514 599.4949494949494,161.33093384531435 594.4444444444445,177.16310960792367 589.3939393939394,183.91937792066392 584.3434343434344,184.78332980520466 579.2929292929293,190.6579254031329 574.2424242424242,195.2934314214418 569.1919191919192,207.0397451755513 564.1414141414141,200.2688615641814 559.090909090909,205.17730345942044 554.040404040404,206.27683711430964 548.989898989899,211.38210304319497 543.939393939394,214.73458585911305 538.8888888888889,216.34472506108506 533.8383838383838,223.34131239583044 528.7878787878788,228.43491064933914 523.7373737373737,210.69320138005637 518.6868686868687,233.17619774260382 513.6363636363636,227.8052246319089 508.5858585858586,232.03327437161482 503.5353535353535,228.1769585239453 498.4848484848485,236.6306367413993 493.4343434343434,233.56474010533313 488.3838383838384,247.29724311607157 483.3333333333333,242.73046233753738 478.2828282828283,226.40434913552608 473.2323232323232,245.29810537158107 468.1818181818182,251.56410322860916 463.1313131313131,251.24812854310937 458.0808080808081,256.3037410564822 453.030303030303,265.59817617073577 447.979797979798,266.5191856196746 442.9292929292929,267.08827867934076 437.8787878787879,271.3921332182416 432.8282828282828,262.5790818264999 427.77777777777777,265.9690854300764 422.72727272727275,269.0976716963992 417.67676767676767,272.6224150188549 412.62626262626264,270.857025552868 407.57575757575756,276.83463005626396 402.52525252525254,274.58651464646255 397.47474747474746,277.1927224180668 392.4242424242424,274.8598277489875 387.37373737373736,287.2723833124779 382.32323232323233,294.13414320146154 377.27272727272725,293.33815333281746 372.22222222222223,296.05295821230675 367.1717171717172,299.9247139913017 362.1212121212121,295.1018058065303 357.07070707070704,295.90902471613833 352.020202020202,299.9671387116936 346.969696969697,304.3159094144503 341.9191919191919,309.01591223679594 336.86868686868684,307.51698440380835 331.8181818181818,313.5782364896976 326.7676767676768,312.27856272500236 321.7171717171717,317.2797670258296 316.66666666666663,321.38935038336575 311.6161616161616,321.67751564710323 306.5656565656566,322.8970859953595 301.5151515151515,327.62783709003213 296.4646464646464,328.7065707010733 291.4141414141414,333.2216496413879 286.3636363636364,333.6447037597049 281.3131313131313,338.0930181560694 276.26262626262627,340.1342823495512 271.2121212121212,341.4482775278196 266.16161616161617,344.3370097246146 261.1111111111111,346.32725634956057 256.06060606060606,347.3948354874879 251.010101010101,350.1497315522938 245.95959595959596,357.0617589449676 240.9090909090909,358.50340989635083 235.85858585858585,361.67660966878464 230.8080808080808,362.48617088615623 225.75757575757575,358.44312398267556 220.7070707070707,368.2109530936144 215.65656565656565,367.9089225960929 210.6060606060606,370.514533824896 205.55555555555554,372.89822235896065 200.50505050505052,375.7401544570975 195.45454545454544,378.4461405917204 190.40404040404042,378.46603485550634 185.35353535353534,383.3974611939684 180.3030303030303,384.9897512651035 175.25252525252526,387.3743422894722 170.2020202020202,389.5862900987782 165.15151515151516,392.24992827403133 160.1010101010101,395.3820587064083 155.05050505050505,397.7700410601531 150,400 "/><text class="poloto_text" alignment-baseline="middle" text-anchor="start" font-size="large" x="675" y="300">indirect_par</text><line class="poloto4stroke" stroke="black" x1="680" x2="730" y1="281.25" y2="281.25"/><polyline class="poloto4stroke" fill="none" stroke="black" points="650,273.3973065722503 644.9494949494949,274.34416036078267 639.8989898989898,273.4802698850597 634.8484848484848,267.41653512839486 629.7979797979798,279.1887809489805 624.7474747474747,272.5230906424534 619.6969696969697,269.01425220380054 614.6464646464647,276.96793982695795 609.5959595959596,272.21623955273685 604.5454545454545,276.17495899038465 599.4949494949494,280.7924459070217 594.4444444444445,273.08863953606533 589.3939393939394,279.1845612859307 584.3434343434344,287.06529523357545 579.2929292929293,288.2201406879004 574.2424242424242,288.1688994158141 569.1919191919192,288.2046218023807 564.1414141414141,299.721705212437 559.090909090909,286.4836923204604 554.040404040404,295.06818886514446 548.989898989899,294.16707587316364 543.939393939394,296.3880661308865 538.8888888888889,317.68940770380755 533.8383838383838,314.40731693843225 528.7878787878788,280.84987192432646 523.7373737373737,299.4136434917415 518.6868686868687,308.06091739356464 513.6363636363636,307.5833761085077 508.5858585858586,309.10942909357385 503.5353535353535,300.92590581087376 498.4848484848485,309.90135720755677 493.4343434343434,310.76011566065165 488.3838383838384,311.0129445361057 483.3333333333333,314.65207494069347 478.2828282828283,314.55403137677695 473.2323232323232,313.2494536793483 468.1818181818182,316.48911972433166 463.1313131313131,327.88239418507203 458.0808080808081,329.86299962562794 453.030303030303,325.1323230988054 447.979797979798,320.48748294019515 442.9292929292929,326.096064312225 437.8787878787879,316.7540022734454 432.8282828282828,316.9479664107212 427.77777777777777,326.891150593979 422.72727272727275,311.6879853518044 417.67676767676767,316.31045515536925 412.62626262626264,317.43485060876765 407.57575757575756,313.49926475004327 402.52525252525254,321.68308630414396 397.47474747474746,320.51626613035353 392.4242424242424,324.1688099752803 387.37373737373736,329.88417250872675 382.32323232323233,331.75807135571614 377.27272727272725,331.0097785931041 372.22222222222223,331.01362103055897 367.1717171717172,334.85093962181645 362.1212121212121,331.4026108003892 357.07070707070704,334.0637619185226 352.020202020202,336.43546696043353 346.969696969697,338.1913599913865 341.9191919191919,339.62675601604525 336.86868686868684,331.58068321289454 331.8181818181818,343.9477129106955 326.7676767676768,346.98082601075987 321.7171717171717,345.90021065808844 316.66666666666663,347.2955900652807 311.6161616161616,348.8666293957087 306.5656565656566,350.2036134035443 301.5151515151515,350.61566218444773 296.4646464646464,352.9986708351728 291.4141414141414,347.4920456460204 286.3636363636364,353.66791729028034 281.3131313131313,355.113257157074 276.26262626262627,351.0697628464924 271.2121212121212,359.9886172449106 266.16161616161617,361.06592090776644 261.1111111111111,363.387663296904 256.06060606060606,362.79430278835775 251.010101010101,364.7623238076145 245.95959595959596,367.9249722292519 240.9090909090909,369.2534379567938 235.85858585858585,370.85296220597957 230.8080808080808,371.1886008721986 225.75757575757575,374.16956692011456 220.7070707070707,376.079032438454 215.65656565656565,374.9432544220472 210.6060606060606,377.35896765457977 205.55555555555554,377.8888775021635 200.50505050505052,380.2706053404036 195.45454545454544,382.02965982888577 190.40404040404042,383.9327201882145 185.35353535353534,385.6030049408497 180.3030303030303,382.6454751296019 175.25252525252526,386.3213806433466 170.2020202020202,389.5694860144294 165.15151515151516,391.771713685151 160.1010101010101,394.77747080177716 155.05050505050505,397.5214388384848 150,399.9992464317547 "/><text class="poloto_text" alignment-baseline="middle" text-anchor="start" font-size="large" x="675" y="350">indirect_seq</text><line class="poloto5stroke" stroke="black" x1="680" x2="730" y1="331.25" y2="331.25"/><polyline class="poloto5stroke" fill="none" stroke="black" points="650,127.55329435605597 644.9494949494949,132.4582798121233 639.8989898989898,104.20369675711538 634.8484848484848,100 629.7979797979798,103.0747570512018 624.7474747474747,106.83883685457835 619.6969696969697,143.11274478625324 614.6464646464647,119.39427319164673 609.5959595959596,121.45897800814083 604.5454545454545,104.89856384826606 599.4949494949494,137.6947500665218 594.4444444444445,130.4197176066234 589.3939393939394,136.63425487435887 584.3434343434344,144.6587030009657 579.2929292929293,141.33055562226167 574.2424242424242,156.76966231500307 569.1919191919192,161.04036486499552 564.1414141414141,164.0560641788775 559.090909090909,168.63896915842088 554.040404040404,164.40490135457335 548.989898989899,190.6380289461749 543.939393939394,168.32608245918618 538.8888888888889,175.73516159559182 533.8383838383838,178.86022124123681 528.7878787878788,182.41449343235246 523.7373737373737,191.56839008079152 518.6868686868687,184.55222210586527 513.6363636363636,194.10467952701867 508.5858585858586,202.88149094358695 503.5353535353535,200.76244809605322 498.4848484848485,198.6416858016219 493.4343434343434,187.56521943176529 488.3838383838384,207.7462974874551 483.3333333333333,202.84931272307463 478.2828282828283,228.8535959689061 473.2323232323232,218.6018149309694 468.1818181818182,224.47279618133737 463.1313131313131,217.63952121111154 458.0808080808081,229.49042295457434 453.030303030303,254.8329998708518 447.979797979798,249.3623163854723 442.9292929292929,243.90151094706576 437.8787878787879,247.71661270532223 432.8282828282828,234.23458748958603 427.77777777777777,238.4798141528915 422.72727272727275,245.12998557389886 417.67676767676767,250.03300594779748 412.62626262626264,251.1533308738465 407.57575757575756,249.93126030943813 402.52525252525254,258.43889933233686 397.47474747474746,257.1376377110679 392.4242424242424,264.1397167486597 387.37373737373736,259.31861573766844 382.32323232323233,275.76305495883736 377.27272727272725,283.38336288300087 372.22222222222223,270.12372531448045 367.1717171717172,274.25102072959965 362.1212121212121,274.2873484316557 357.07070707070704,271.63117142776184 352.020202020202,288.8853122293144 346.969696969697,287.9291155277924 341.9191919191919,290.32139252365687 336.86868686868684,295.2503274186551 331.8181818181818,296.9723798046718 326.7676767676768,299.0260047159022 321.7171717171717,300.4165635308994 316.66666666666663,300.3287050580447 311.6161616161616,309.7363955776457 306.5656565656566,313.34659365637475 301.5151515151515,318.04267508707125 296.4646464646464,315.6094822731944 291.4141414141414,323.3002436567184 286.3636363636364,324.20762034811196 281.3131313131313,329.5391909295181 276.26262626262627,332.8266286483837 271.2121212121212,332.252561474478 266.16161616161617,337.59099229809806 261.1111111111111,339.8229089390402 256.06060606060606,342.82941886197705 251.010101010101,345.92711210661656 245.95959595959596,346.25702220740635 240.9090909090909,348.41079612773405 235.85858585858585,354.64853276955483 230.8080808080808,353.4117021571606 225.75757575757575,360.27565521820753 220.7070707070707,361.332908902061 215.65656565656565,363.43830363984495 210.6060606060606,365.51935636089866 205.55555555555554,369.6235905717726 200.50505050505052,371.9048689363427 195.45454545454544,374.46639740667405 190.40404040404042,377.3813489754855 185.35353535353534,380.8104612232943 180.3030303030303,382.5258836501637 175.25252525252526,385.1292359117416 170.2020202020202,389.53776068394814 165.15151515151516,391.6650081881706 160.1010101010101,394.34077844298474 155.05050505050505,397.08873997187305 150,399.9992464317547 "/><text class="poloto_text" alignment-baseline="start" text-anchor="middle" font-size="x-large" x="400" y="37.5">Bench of query:256_bytes with abspiral(num,1.5)</text><text class="poloto_text" alignment-baseline="start" text-anchor="middle" font-size="x-large" x="400" y="481.25">Number of Elements</text><text class="poloto_text" alignment-baseline="start" text-anchor="middle" font-size="x-large" transform="rotate(-90,37.5,250)" x="37.5" y="250">Time in Seconds</text><path stroke="black" fill="none" class="poloto_axis_lines" d=" M 150 100 L 150 400 L 650 400"/></svg>