<svg class="poloto" width="800" height="500" viewBox="0 0 800 500" xmlns="http://www.w3.org/2000/svg"><circle  r="1e5" class="poloto_background" /><text  class="poloto_text poloto_legend_text" x="675" y="100" >default_par</text><line  class="poloto_scatter poloto_legend_icon poloto0stroke poloto0legend" stroke="black" x1="685" x2="685" y1="81.25" y2="81.25" /><path  class="poloto_scatter poloto0stroke" d=" M 650.00 315.27 h 0 M 644.95 312.81 h 0 M 639.90 310.97 h 0 M 634.85 317.91 h 0 M 629.80 315.70 h 0 M 624.75 321.39 h 0 M 619.70 318.84 h 0 M 614.65 320.48 h 0 M 609.60 320.63 h 0 M 604.55 312.76 h 0 M 599.49 322.40 h 0 M 594.44 311.24 h 0 M 589.39 294.90 h 0 M 584.34 328.10 h 0 M 579.29 325.53 h 0 M 574.24 326.46 h 0 M 569.19 324.55 h 0 M 564.14 327.19 h 0 M 559.09 329.51 h 0 M 554.04 328.32 h 0 M 548.99 320.90 h 0 M 543.94 329.93 h 0 M 538.89 330.58 h 0 M 533.84 332.81 h 0 M 528.79 332.49 h 0 M 523.74 336.52 h 0 M 518.69 336.67 h 0 M 513.64 337.15 h 0 M 508.59 339.36 h 0 M 503.54 335.67 h 0 M 498.48 337.98 h 0 M 493.43 336.86 h 0 M 488.38 340.90 h 0 M 483.33 306.60 h 0 M 478.28 336.35 h 0 M 473.23 338.39 h 0 M 468.18 342.24 h 0 M 463.13 341.33 h 0 M 458.08 341.86 h 0 M 453.03 328.40 h 0 M 447.98 337.28 h 0 M 442.93 345.33 h 0 M 437.88 346.30 h 0 M 432.83 347.73 h 0 M 427.78 347.60 h 0 M 422.73 350.97 h 0 M 417.68 351.98 h 0 M 412.63 353.24 h 0 M 407.58 353.44 h 0 M 402.53 353.31 h 0 M 397.47 353.99 h 0 M 392.42 355.97 h 0 M 387.37 356.52 h 0 M 382.32 355.13 h 0 M 377.27 359.93 h 0 M 372.22 353.77 h 0 M 367.17 361.26 h 0 M 362.12 361.83 h 0 M 357.07 361.27 h 0 M 352.02 362.13 h 0 M 346.97 362.34 h 0 M 341.92 365.27 h 0 M 336.87 364.20 h 0 M 331.82 365.41 h 0 M 326.77 366.24 h 0 M 321.72 366.39 h 0 M 316.67 368.41 h 0 M 311.62 367.28 h 0 M 306.57 368.86 h 0 M 301.52 369.25 h 0 M 296.46 371.26 h 0 M 291.41 371.68 h 0 M 286.36 374.78 h 0 M 281.31 376.30 h 0 M 276.26 375.40 h 0 M 271.21 376.65 h 0 M 266.16 377.54 h 0 M 261.11 378.99 h 0 M 256.06 378.80 h 0 M 251.01 379.82 h 0 M 245.96 374.99 h 0 M 240.91 382.18 h 0 M 235.86 381.50 h 0 M 230.81 382.41 h 0 M 225.76 382.13 h 0 M 220.71 384.72 h 0 M 215.66 385.55 h 0 M 210.61 385.88 h 0 M 205.56 387.22 h 0 M 200.51 387.29 h 0 M 195.45 389.23 h 0 M 190.40 389.62 h 0 M 185.35 391.17 h 0 M 180.30 389.28 h 0 M 175.25 391.56 h 0 M 170.20 392.91 h 0 M 165.15 394.05 h 0 M 160.10 396.28 h 0 M 155.05 398.29 h 0 M 150.00 400.00 h 0" /><text  class="poloto_text poloto_legend_text" x="675" y="150" >default_seq</text><line  class="poloto_scatter poloto_legend_icon poloto1stroke poloto1legend" stroke="black" x1="685" x2="685" y1="131.25" y2="131.25" /><path  class="poloto_scatter poloto1stroke" d=" M 650.00 173.65 h 0 M 644.95 185.32 h 0 M 639.90 182.12 h 0 M 634.85 188.46 h 0 M 629.80 184.97 h 0 M 624.75 186.62 h 0 M 619.70 188.46 h 0 M 614.65 190.71 h 0 M 609.60 201.91 h 0 M 604.55 193.81 h 0 M 599.49 199.35 h 0 M 594.44 100.00 h 0 M 589.39 206.11 h 0 M 584.34 204.41 h 0 M 579.29 210.19 h 0 M 574.24 208.20 h 0 M 569.19 211.90 h 0 M 564.14 217.69 h 0 M 559.09 219.38 h 0 M 554.04 220.53 h 0 M 548.99 222.09 h 0 M 543.94 228.19 h 0 M 538.89 225.01 h 0 M 533.84 230.48 h 0 M 528.79 231.91 h 0 M 523.74 235.53 h 0 M 518.69 239.48 h 0 M 513.64 239.29 h 0 M 508.59 245.18 h 0 M 503.54 238.68 h 0 M 498.48 248.58 h 0 M 493.43 250.64 h 0 M 488.38 244.65 h 0 M 483.33 236.60 h 0 M 478.28 231.50 h 0 M 473.23 256.50 h 0 M 468.18 259.45 h 0 M 463.13 262.23 h 0 M 458.08 265.02 h 0 M 453.03 263.38 h 0 M 447.98 267.51 h 0 M 442.93 269.84 h 0 M 437.88 272.82 h 0 M 432.83 269.72 h 0 M 427.78 269.92 h 0 M 422.73 282.37 h 0 M 417.68 285.09 h 0 M 412.63 283.39 h 0 M 407.58 291.51 h 0 M 402.53 293.21 h 0 M 397.47 288.25 h 0 M 392.42 296.61 h 0 M 387.37 294.45 h 0 M 382.32 297.39 h 0 M 377.27 298.28 h 0 M 372.22 303.67 h 0 M 367.17 305.59 h 0 M 362.12 305.15 h 0 M 357.07 311.52 h 0 M 352.02 315.11 h 0 M 346.97 312.27 h 0 M 341.92 317.94 h 0 M 336.87 319.57 h 0 M 331.82 319.77 h 0 M 326.77 324.03 h 0 M 321.72 322.93 h 0 M 316.67 325.98 h 0 M 311.62 327.99 h 0 M 306.57 332.24 h 0 M 301.52 334.48 h 0 M 296.46 333.96 h 0 M 291.41 337.86 h 0 M 286.36 345.01 h 0 M 281.31 345.53 h 0 M 276.26 346.85 h 0 M 271.21 348.53 h 0 M 266.16 349.23 h 0 M 261.11 354.34 h 0 M 256.06 353.48 h 0 M 251.01 356.17 h 0 M 245.96 353.18 h 0 M 240.91 359.47 h 0 M 235.86 359.30 h 0 M 230.81 367.17 h 0 M 225.76 365.53 h 0 M 220.71 367.20 h 0 M 215.66 373.49 h 0 M 210.61 375.87 h 0 M 205.56 377.33 h 0 M 200.51 379.34 h 0 M 195.45 381.27 h 0 M 190.40 383.51 h 0 M 185.35 385.53 h 0 M 180.30 388.51 h 0 M 175.25 389.79 h 0 M 170.20 391.85 h 0 M 165.15 393.98 h 0 M 160.10 396.17 h 0 M 155.05 398.30 h 0 M 150.00 400.00 h 0" /><text  class="poloto_text poloto_legend_text" x="675" y="200" >direct_par</text><line  class="poloto_scatter poloto_legend_icon poloto2stroke poloto2legend" stroke="black" x1="685" x2="685" y1="181.25" y2="181.25" /><path  class="poloto_scatter poloto2stroke" d=" M 650.00 329.41 h 0 M 644.95 328.27 h 0 M 639.90 332.35 h 0 M 634.85 330.61 h 0 M 629.80 331.03 h 0 M 624.75 334.90 h 0 M 619.70 334.38 h 0 M 614.65 334.30 h 0 M 609.60 335.99 h 0 M 604.55 333.85 h 0 M 599.49 335.58 h 0 M 594.44 336.45 h 0 M 589.39 325.73 h 0 M 584.34 339.47 h 0 M 579.29 340.05 h 0 M 574.24 339.69 h 0 M 569.19 338.89 h 0 M 564.14 340.82 h 0 M 559.09 339.65 h 0 M 554.04 341.85 h 0 M 548.99 341.46 h 0 M 543.94 333.61 h 0 M 538.89 343.36 h 0 M 533.84 343.79 h 0 M 528.79 345.93 h 0 M 523.74 346.61 h 0 M 518.69 346.23 h 0 M 513.64 344.75 h 0 M 508.59 347.77 h 0 M 503.54 348.80 h 0 M 498.48 347.38 h 0 M 493.43 346.35 h 0 M 488.38 349.24 h 0 M 483.33 349.90 h 0 M 478.28 329.26 h 0 M 473.23 350.09 h 0 M 468.18 339.59 h 0 M 463.13 351.75 h 0 M 458.08 349.97 h 0 M 453.03 336.54 h 0 M 447.98 351.72 h 0 M 442.93 354.85 h 0 M 437.88 354.91 h 0 M 432.83 355.00 h 0 M 427.78 356.07 h 0 M 422.73 358.08 h 0 M 417.68 358.54 h 0 M 412.63 359.07 h 0 M 407.58 359.58 h 0 M 402.53 360.17 h 0 M 397.47 361.76 h 0 M 392.42 361.12 h 0 M 387.37 361.80 h 0 M 382.32 362.55 h 0 M 377.27 364.33 h 0 M 372.22 364.95 h 0 M 367.17 365.58 h 0 M 362.12 366.17 h 0 M 357.07 358.29 h 0 M 352.02 366.55 h 0 M 346.97 367.44 h 0 M 341.92 367.52 h 0 M 336.87 369.66 h 0 M 331.82 370.17 h 0 M 326.77 370.73 h 0 M 321.72 371.04 h 0 M 316.67 371.71 h 0 M 311.62 372.63 h 0 M 306.57 373.02 h 0 M 301.52 372.70 h 0 M 296.46 373.70 h 0 M 291.41 375.56 h 0 M 286.36 377.83 h 0 M 281.31 378.54 h 0 M 276.26 379.61 h 0 M 271.21 379.49 h 0 M 266.16 380.75 h 0 M 261.11 381.85 h 0 M 256.06 382.27 h 0 M 251.01 380.79 h 0 M 245.96 383.48 h 0 M 240.91 384.07 h 0 M 235.86 384.09 h 0 M 230.81 384.32 h 0 M 225.76 384.18 h 0 M 220.71 385.18 h 0 M 215.66 387.86 h 0 M 210.61 387.96 h 0 M 205.56 387.65 h 0 M 200.51 389.35 h 0 M 195.45 390.25 h 0 M 190.40 390.48 h 0 M 185.35 392.00 h 0 M 180.30 390.23 h 0 M 175.25 392.01 h 0 M 170.20 393.84 h 0 M 165.15 395.34 h 0 M 160.10 396.58 h 0 M 155.05 398.54 h 0 M 150.00 400.00 h 0" /><text  class="poloto_text poloto_legend_text" x="675" y="250" >direct_seq</text><line  class="poloto_scatter poloto_legend_icon poloto3stroke poloto3legend" stroke="black" x1="685" x2="685" y1="231.25" y2="231.25" /><path  class="poloto_scatter poloto3stroke" d=" M 650.00 228.42 h 0 M 644.95 220.97 h 0 M 639.90 231.95 h 0 M 634.85 234.29 h 0 M 629.80 235.69 h 0 M 624.75 238.02 h 0 M 619.70 235.98 h 0 M 614.65 239.30 h 0 M 609.60 242.99 h 0 M 604.55 244.06 h 0 M 599.49 247.18 h 0 M 594.44 246.61 h 0 M 589.39 245.76 h 0 M 584.34 245.35 h 0 M 579.29 252.01 h 0 M 574.24 253.76 h 0 M 569.19 256.56 h 0 M 564.14 256.92 h 0 M 559.09 258.60 h 0 M 554.04 259.84 h 0 M 548.99 261.11 h 0 M 543.94 262.85 h 0 M 538.89 265.38 h 0 M 533.84 264.66 h 0 M 528.79 268.33 h 0 M 523.74 270.30 h 0 M 518.69 271.51 h 0 M 513.64 272.52 h 0 M 508.59 275.33 h 0 M 503.54 276.56 h 0 M 498.48 277.31 h 0 M 493.43 278.68 h 0 M 488.38 280.61 h 0 M 483.33 282.50 h 0 M 478.28 273.01 h 0 M 473.23 285.07 h 0 M 468.18 286.88 h 0 M 463.13 289.23 h 0 M 458.08 289.61 h 0 M 453.03 287.93 h 0 M 447.98 292.62 h 0 M 442.93 295.68 h 0 M 437.88 296.59 h 0 M 432.83 298.49 h 0 M 427.78 299.75 h 0 M 422.73 306.21 h 0 M 417.68 307.61 h 0 M 412.63 308.88 h 0 M 407.58 311.86 h 0 M 402.53 312.78 h 0 M 397.47 313.77 h 0 M 392.42 316.48 h 0 M 387.37 318.12 h 0 M 382.32 320.27 h 0 M 377.27 321.16 h 0 M 372.22 321.54 h 0 M 367.17 324.69 h 0 M 362.12 326.42 h 0 M 357.07 327.65 h 0 M 352.02 329.51 h 0 M 346.97 331.36 h 0 M 341.92 332.83 h 0 M 336.87 333.85 h 0 M 331.82 336.03 h 0 M 326.77 337.38 h 0 M 321.72 340.13 h 0 M 316.67 340.77 h 0 M 311.62 343.19 h 0 M 306.57 344.75 h 0 M 301.52 346.02 h 0 M 296.46 348.14 h 0 M 291.41 350.41 h 0 M 286.36 355.72 h 0 M 281.31 357.36 h 0 M 276.26 358.37 h 0 M 271.21 359.02 h 0 M 266.16 360.29 h 0 M 261.11 364.19 h 0 M 256.06 365.24 h 0 M 251.01 366.88 h 0 M 245.96 368.34 h 0 M 240.91 370.19 h 0 M 235.86 371.10 h 0 M 230.81 372.78 h 0 M 225.76 373.75 h 0 M 220.71 375.55 h 0 M 215.66 378.11 h 0 M 210.61 379.73 h 0 M 205.56 381.73 h 0 M 200.51 383.34 h 0 M 195.45 384.65 h 0 M 190.40 386.57 h 0 M 185.35 388.08 h 0 M 180.30 390.89 h 0 M 175.25 391.71 h 0 M 170.20 393.19 h 0 M 165.15 394.86 h 0 M 160.10 396.65 h 0 M 155.05 398.50 h 0 M 150.00 400.00 h 0" /><text  class="poloto_text poloto_legend_text" x="675" y="300" >indirect_par</text><line  class="poloto_scatter poloto_legend_icon poloto4stroke poloto4legend" stroke="black" x1="685" x2="685" y1="281.25" y2="281.25" /><path  class="poloto_scatter poloto4stroke" d=" M 650.00 309.86 h 0 M 644.95 303.29 h 0 M 639.90 308.29 h 0 M 634.85 308.62 h 0 M 629.80 310.26 h 0 M 624.75 315.14 h 0 M 619.70 314.31 h 0 M 614.65 318.22 h 0 M 609.60 319.97 h 0 M 604.55 318.68 h 0 M 599.49 322.29 h 0 M 594.44 320.24 h 0 M 589.39 322.80 h 0 M 584.34 324.33 h 0 M 579.29 322.23 h 0 M 574.24 319.72 h 0 M 569.19 324.34 h 0 M 564.14 314.29 h 0 M 559.09 327.39 h 0 M 554.04 326.79 h 0 M 548.99 330.27 h 0 M 543.94 328.00 h 0 M 538.89 329.79 h 0 M 533.84 329.46 h 0 M 528.79 329.34 h 0 M 523.74 332.63 h 0 M 518.69 333.05 h 0 M 513.64 330.43 h 0 M 508.59 334.68 h 0 M 503.54 335.63 h 0 M 498.48 336.63 h 0 M 493.43 337.65 h 0 M 488.38 333.54 h 0 M 483.33 330.31 h 0 M 478.28 326.93 h 0 M 473.23 337.76 h 0 M 468.18 338.74 h 0 M 463.13 338.96 h 0 M 458.08 340.12 h 0 M 453.03 329.05 h 0 M 447.98 341.48 h 0 M 442.93 341.01 h 0 M 437.88 340.92 h 0 M 432.83 344.79 h 0 M 427.78 345.07 h 0 M 422.73 339.91 h 0 M 417.68 346.77 h 0 M 412.63 350.24 h 0 M 407.58 348.56 h 0 M 402.53 350.28 h 0 M 397.47 352.01 h 0 M 392.42 350.91 h 0 M 387.37 353.52 h 0 M 382.32 353.55 h 0 M 377.27 353.93 h 0 M 372.22 355.88 h 0 M 367.17 357.36 h 0 M 362.12 358.06 h 0 M 357.07 358.44 h 0 M 352.02 359.55 h 0 M 346.97 361.88 h 0 M 341.92 360.88 h 0 M 336.87 361.53 h 0 M 331.82 363.78 h 0 M 326.77 364.09 h 0 M 321.72 365.14 h 0 M 316.67 366.67 h 0 M 311.62 365.75 h 0 M 306.57 368.26 h 0 M 301.52 367.90 h 0 M 296.46 368.97 h 0 M 291.41 370.80 h 0 M 286.36 370.45 h 0 M 281.31 373.85 h 0 M 276.26 373.15 h 0 M 271.21 375.41 h 0 M 266.16 376.83 h 0 M 261.11 369.13 h 0 M 256.06 377.84 h 0 M 251.01 378.77 h 0 M 245.96 379.79 h 0 M 240.91 380.43 h 0 M 235.86 380.53 h 0 M 230.81 381.71 h 0 M 225.76 381.60 h 0 M 220.71 383.14 h 0 M 215.66 383.95 h 0 M 210.61 384.93 h 0 M 205.56 386.04 h 0 M 200.51 387.24 h 0 M 195.45 387.97 h 0 M 190.40 389.15 h 0 M 185.35 390.35 h 0 M 180.30 387.91 h 0 M 175.25 391.31 h 0 M 170.20 394.01 h 0 M 165.15 393.48 h 0 M 160.10 396.38 h 0 M 155.05 398.09 h 0 M 150.00 400.00 h 0" /><text  class="poloto_text poloto_legend_text" x="675" y="350" >indirect_seq</text><line  class="poloto_scatter poloto_legend_icon poloto5stroke poloto5legend" stroke="black" x1="685" x2="685" y1="331.25" y2="331.25" /><path  class="poloto_scatter poloto5stroke" d=" M 650.00 187.77 h 0 M 644.95 191.18 h 0 M 639.90 188.39 h 0 M 634.85 195.75 h 0 M 629.80 192.07 h 0 M 624.75 201.86 h 0 M 619.70 198.04 h 0 M 614.65 206.71 h 0 M 609.60 203.98 h 0 M 604.55 204.96 h 0 M 599.49 206.24 h 0 M 594.44 208.88 h 0 M 589.39 203.20 h 0 M 584.34 211.19 h 0 M 579.29 219.46 h 0 M 574.24 217.38 h 0 M 569.19 214.23 h 0 M 564.14 215.81 h 0 M 559.09 221.22 h 0 M 554.04 229.21 h 0 M 548.99 220.53 h 0 M 543.94 233.84 h 0 M 538.89 231.36 h 0 M 533.84 232.16 h 0 M 528.79 241.92 h 0 M 523.74 230.39 h 0 M 518.69 237.90 h 0 M 513.64 242.88 h 0 M 508.59 240.53 h 0 M 503.54 251.85 h 0 M 498.48 245.31 h 0 M 493.43 250.81 h 0 M 488.38 254.02 h 0 M 483.33 259.39 h 0 M 478.28 243.00 h 0 M 473.23 258.27 h 0 M 468.18 264.68 h 0 M 463.13 265.21 h 0 M 458.08 267.92 h 0 M 453.03 219.13 h 0 M 447.98 272.09 h 0 M 442.93 266.26 h 0 M 437.88 274.83 h 0 M 432.83 272.02 h 0 M 427.78 277.49 h 0 M 422.73 280.90 h 0 M 417.68 282.18 h 0 M 412.63 289.81 h 0 M 407.58 283.87 h 0 M 402.53 290.59 h 0 M 397.47 290.71 h 0 M 392.42 291.88 h 0 M 387.37 296.15 h 0 M 382.32 304.69 h 0 M 377.27 303.21 h 0 M 372.22 299.94 h 0 M 367.17 307.14 h 0 M 362.12 307.35 h 0 M 357.07 309.16 h 0 M 352.02 311.82 h 0 M 346.97 311.73 h 0 M 341.92 318.58 h 0 M 336.87 319.51 h 0 M 331.82 321.72 h 0 M 326.77 325.44 h 0 M 321.72 323.75 h 0 M 316.67 327.98 h 0 M 311.62 331.33 h 0 M 306.57 328.76 h 0 M 301.52 335.01 h 0 M 296.46 337.55 h 0 M 291.41 340.44 h 0 M 286.36 340.69 h 0 M 281.31 346.32 h 0 M 276.26 349.58 h 0 M 271.21 347.93 h 0 M 266.16 354.48 h 0 M 261.11 355.60 h 0 M 256.06 357.42 h 0 M 251.01 352.17 h 0 M 245.96 360.98 h 0 M 240.91 364.77 h 0 M 235.86 364.64 h 0 M 230.81 367.99 h 0 M 225.76 368.06 h 0 M 220.71 370.64 h 0 M 215.66 372.41 h 0 M 210.61 374.87 h 0 M 205.56 378.49 h 0 M 200.51 379.51 h 0 M 195.45 379.15 h 0 M 190.40 382.78 h 0 M 185.35 385.44 h 0 M 180.30 389.15 h 0 M 175.25 390.65 h 0 M 170.20 391.87 h 0 M 165.15 394.49 h 0 M 160.10 396.40 h 0 M 155.05 398.34 h 0 M 150.00 400.00 h 0" /><text  class="poloto_labels poloto_text poloto_title" x="400" y="37.5" >Bench of query:128_bytes with abspiral(num,0.6)</text><text  class="poloto_labels poloto_text poloto_xname" x="400" y="481.25" >Number of Elements</text><text  class="poloto_labels poloto_text poloto_yname" transform="rotate(-90,37.5,250)" x="37.5" y="250" >Time in Seconds</text><text  class="poloto_tick_labels poloto_text" dominant-baseline="middle" text-anchor="start" x="150" y="70" ></text><line  class="poloto_axis_lines" stroke="black" x1="150" x2="144" y1="400" y2="400" /><text  class="poloto_tick_labels poloto_text" dominant-baseline="middle" text-anchor="end" x="135" y="400" >0e0</text><line  class="poloto_axis_lines" stroke="black" x1="150" x2="144" y1="340.5261296466935" y2="340.5261296466935" /><text  class="poloto_tick_labels poloto_text" dominant-baseline="middle" text-anchor="end" x="135" y="340.5261296466935" >0.002</text><line  class="poloto_axis_lines" stroke="black" x1="150" x2="144" y1="281.052259293387" y2="281.052259293387" /><text  class="poloto_tick_labels poloto_text" dominant-baseline="middle" text-anchor="end" x="135" y="281.052259293387" >0.004</text><line  class="poloto_axis_lines" stroke="black" x1="150" x2="144" y1="221.57838894008046" y2="221.57838894008046" /><text  class="poloto_tick_labels poloto_text" dominant-baseline="middle" text-anchor="end" x="135" y="221.57838894008046" >0.006</text><line  class="poloto_axis_lines" stroke="black" x1="150" x2="144" y1="162.10451858677396" y2="162.10451858677396" /><text  class="poloto_tick_labels poloto_text" dominant-baseline="middle" text-anchor="end" x="135" y="162.10451858677396" >0.008</text><line  class="poloto_axis_lines" stroke="black" x1="150" x2="144" y1="102.63064823346747" y2="102.63064823346747" /><text  class="poloto_tick_labels poloto_text" dominant-baseline="middle" text-anchor="end" x="135" y="102.63064823346747" >0.010</text><text  class="poloto_tick_labels poloto_text" dominant-baseline="middle" text-anchor="start" x="440.00000000000006" y="70" ></text><line  class="poloto_axis_lines" stroke="black" x1="150" x2="150" y1="400" y2="405" /><text  class="poloto_tick_labels poloto_text" dominant-baseline="start" text-anchor="middle" x="150" y="430" >0</text><line  class="poloto_axis_lines" stroke="black" x1="234.17508417508418" x2="234.17508417508418" y1="400" y2="405" /><text  class="poloto_tick_labels poloto_text" dominant-baseline="start" text-anchor="middle" x="234.17508417508418" y="430" >5000</text><line  class="poloto_axis_lines" stroke="black" x1="318.35016835016836" x2="318.35016835016836" y1="400" y2="405" /><text  class="poloto_tick_labels poloto_text" dominant-baseline="start" text-anchor="middle" x="318.35016835016836" y="430" >10000</text><line  class="poloto_axis_lines" stroke="black" x1="402.52525252525254" x2="402.52525252525254" y1="400" y2="405" /><text  class="poloto_tick_labels poloto_text" dominant-baseline="start" text-anchor="middle" x="402.52525252525254" y="430" >15000</text><line  class="poloto_axis_lines" stroke="black" x1="486.7003367003367" x2="486.7003367003367" y1="400" y2="405" /><text  class="poloto_tick_labels poloto_text" dominant-baseline="start" text-anchor="middle" x="486.7003367003367" y="430" >20000</text><line  class="poloto_axis_lines" stroke="black" x1="570.8754208754208" x2="570.8754208754208" y1="400" y2="405" /><text  class="poloto_tick_labels poloto_text" dominant-baseline="start" text-anchor="middle" x="570.8754208754208" y="430" >25000</text><path  stroke="black" fill="none" class="poloto_axis_lines" style="stroke-dasharray:8.417508417508419;stroke-dashoffset:-0;" d=" M 150 400 L 650 400" /><path  stroke="black" fill="none" class="poloto_axis_lines" style="stroke-dasharray:7.434233794163314;stroke-dashoffset:-0;" d=" M 150 400 L 150 100" /></svg>