<svg class="poloto" width="800" height="500" viewBox="0 0 800 500" xmlns="http://www.w3.org/2000/svg" ><rect class="poloto_background" fill="white" x="0" y="0" width="800" height="500" /><style><style>.poloto {
            font-family: "Arial";
            stroke-width:2;
            }
            .poloto_text{fill: var(--poloto_fg_color,black);  }
            .poloto_axis_lines{stroke: var(--poloto_fg_color,black);stoke-width:3;fill:none}
            .poloto_background{fill: var(--poloto_bg_color,aliceblue); }
            .poloto0stroke{stroke:  var(--poloto_color0,blue); }
            .poloto1stroke{stroke:  var(--poloto_color1,red); }
            .poloto2stroke{stroke:  var(--poloto_color2,green); }
            .poloto3stroke{stroke:  var(--poloto_color3,gold); }
            .poloto4stroke{stroke:  var(--poloto_color4,aqua); }
            .poloto5stroke{stroke:  var(--poloto_color5,brown); }
            .poloto6stroke{stroke:  var(--poloto_color6,lime); }
            .poloto7stroke{stroke:  var(--poloto_color7,chocolate); }
            .poloto0fill{fill:var(--poloto_color0,blue);}
            .poloto1fill{fill:var(--poloto_color1,red);}
            .poloto2fill{fill:var(--poloto_color2,green);}
            .poloto3fill{fill:var(--poloto_color3,gold);}
            .poloto4fill{fill:var(--poloto_color4,aqua);}
            .poloto5fill{fill:var(--poloto_color5,brown);}
            .poloto6fill{fill:var(--poloto_color6,lime);}
            .poloto7fill{fill:var(--poloto_color7,chocolate);}</style></style><line class="poloto_axis_lines" stroke="black" x1="150" x2="150" y1="400" y2="405" /><text class="poloto_text" alignment-baseline="start" text-anchor="middle" x="150" y="430" >0</text><line class="poloto_axis_lines" stroke="black" x1="234.17508" x2="234.17508" y1="400" y2="405" /><text class="poloto_text" alignment-baseline="start" text-anchor="middle" x="234.17508" y="430" >5000</text><line class="poloto_axis_lines" stroke="black" x1="318.35016" x2="318.35016" y1="400" y2="405" /><text class="poloto_text" alignment-baseline="start" text-anchor="middle" x="318.35016" y="430" >10000</text><line class="poloto_axis_lines" stroke="black" x1="402.52527" x2="402.52527" y1="400" y2="405" /><text class="poloto_text" alignment-baseline="start" text-anchor="middle" x="402.52527" y="430" >15000</text><line class="poloto_axis_lines" stroke="black" x1="486.70035" x2="486.70035" y1="400" y2="405" /><text class="poloto_text" alignment-baseline="start" text-anchor="middle" x="486.70035" y="430" >20000</text><line class="poloto_axis_lines" stroke="black" x1="570.8754" x2="570.8754" y1="400" y2="405" /><text class="poloto_text" alignment-baseline="start" text-anchor="middle" x="570.8754" y="430" >25000</text><line class="poloto_axis_lines" stroke="black" x1="150" x2="144" y1="363.86407" y2="363.86407" /><text class="poloto_text" alignment-baseline="middle" text-anchor="end" x="135" y="363.86407" >0.002</text><line class="poloto_axis_lines" stroke="black" x1="150" x2="144" y1="327.7253" y2="327.7253" /><text class="poloto_text" alignment-baseline="middle" text-anchor="end" x="135" y="327.7253" >0.004</text><line class="poloto_axis_lines" stroke="black" x1="150" x2="144" y1="291.58655" y2="291.58655" /><text class="poloto_text" alignment-baseline="middle" text-anchor="end" x="135" y="291.58655" >0.006</text><line class="poloto_axis_lines" stroke="black" x1="150" x2="144" y1="255.44781" y2="255.44781" /><text class="poloto_text" alignment-baseline="middle" text-anchor="end" x="135" y="255.44781" >0.008</text><line class="poloto_axis_lines" stroke="black" x1="150" x2="144" y1="219.30908" y2="219.30908" /><text class="poloto_text" alignment-baseline="middle" text-anchor="end" x="135" y="219.30908" >0.010</text><line class="poloto_axis_lines" stroke="black" x1="150" x2="144" y1="183.17029" y2="183.17029" /><text class="poloto_text" alignment-baseline="middle" text-anchor="end" x="135" y="183.17029" >0.012</text><line class="poloto_axis_lines" stroke="black" x1="150" x2="144" y1="147.03157" y2="147.03157" /><text class="poloto_text" alignment-baseline="middle" text-anchor="end" x="135" y="147.03157" >0.014</text><line class="poloto_axis_lines" stroke="black" x1="150" x2="144" y1="110.89282" y2="110.89282" /><text class="poloto_text" alignment-baseline="middle" text-anchor="end" x="135" y="110.89282" >0.016</text><text class="poloto_text" alignment-baseline="middle" text-anchor="start" font-size="large" x="675" y="100" >default_par</text><line class="poloto0stroke" stroke="black" x1="680" x2="730" y1="81.25" y2="81.25" /><polyline class="poloto0stroke" fill="none" stroke="black"  points="650,377.43066 644.94946,379.16977 639.899,372.4213 634.8485,372.04684 629.798,380.23456 624.7475,380.2099 619.697,380.472 614.6465,381.60336 609.59595,380.49274 604.5455,380.8501 599.495,381.1091 594.44446,380.0957 589.3939,379.49268 584.34344,378.5345 579.29297,381.1604 574.24243,380.05435 569.1919,381.3002 564.1414,381.44846 559.09094,379.83862 554.0404,382.34842 548.98987,381.43457 543.9394,383.36572 538.8889,380.69543 533.8384,382.2581 528.78784,384.70715 523.73737,382.8983 518.6869,383.54343 513.63635,383.96082 508.58588,382.32462 503.53537,384.92004 498.48486,383.5834 493.43436,385.0333 488.38385,385.1453 483.33334,381.61914 478.28284,382.6501 473.23233,383.81912 468.18182,384.18433 463.13132,385.01974 458.0808,386.74625 453.0303,386.42804 447.9798,386.91913 442.9293,386.01578 437.87878,386.8401 432.82828,388.08768 427.77777,386.30185 422.72726,387.37158 417.67676,388.20734 412.62628,387.38663 407.57578,387.21768 402.52527,386.12833 397.47473,388.73846 392.42426,388.69885 387.37375,389.1446 382.32324,389.31522 377.27274,390.3888 372.22223,389.0436 367.17172,389.7633 362.12122,390.0518 357.0707,386.81827 352.0202,388.84537 346.9697,389.0085 341.9192,389.45822 336.86868,389.55728 331.81818,391.8475 326.7677,390.44763 321.71716,390.78333 316.6667,391.27396 311.61615,390.8492 306.56567,391.5422 301.51514,391.4035 296.46466,391.87057 291.41412,390.24933 286.36365,392.01575 281.31314,391.9779 276.26263,393.03506 271.21213,394.34018 266.16162,390.70313 261.1111,391.9128 256.0606,393.77643 251.0101,394.16998 245.9596,391.93323 240.90909,393.47028 235.85858,395.0205 230.80807,393.44858 225.75757,394.45193 220.70706,394.2018 215.65657,393.01462 210.60606,392.76425 205.55556,393.1623 200.50505,393.27725 195.45454,393.39993 190.40404,393.97214 185.35353,395.1114 180.30302,397.36374 175.25253,397.8132 170.20203,398.18207 165.15152,398.80035 160.10101,399.13803 155.0505,399.62268 150,399.99908 "/><text class="poloto_text" alignment-baseline="middle" text-anchor="start" font-size="large" x="675" y="150" >default_seq</text><line class="poloto1stroke" stroke="black" x1="680" x2="730" y1="131.25" y2="131.25" /><polyline class="poloto1stroke" fill="none" stroke="black"  points="650,343.4712 644.94946,344.09464 639.899,344.21503 634.8485,342.80356 629.798,344.91586 624.7475,345.71408 619.697,346.7734 614.6465,347.339 609.59595,347.3511 604.5455,347.9428 599.495,349.53198 594.44446,348.86087 589.3939,350.7115 584.34344,350.65115 579.29297,351.50244 574.24243,351.39087 569.1919,351.0458 564.1414,352.17032 559.09094,353.5998 554.0404,353.06317 548.98987,354.67343 543.9394,355.08768 538.8889,355.51715 533.8384,356.01608 528.78784,356.5199 523.73737,357.61597 518.6869,357.61176 513.63635,358.80197 508.58588,358.21365 503.53537,359.40405 498.48486,360.33612 493.43436,360.3517 488.38385,360.94373 483.33334,362.15 478.28284,361.9262 473.23233,363.35687 468.18182,364.03247 463.13132,364.3157 458.0808,364.26178 453.0303,365.232 447.9798,365.59622 442.9293,366.34756 437.87878,366.84476 432.82828,367.49628 427.77777,368.03738 422.72726,371.4923 417.67676,371.19318 412.62628,372.48276 407.57578,372.15775 402.52527,373.42752 397.47473,373.4176 392.42426,373.83237 387.37375,375.03293 382.32324,375.44824 377.27274,375.87064 372.22223,376.11414 367.17172,377.1267 362.12122,377.6043 357.0707,377.53845 352.0202,378.2872 346.9697,378.92792 341.9192,379.08685 336.86868,380.0964 331.81818,380.10596 326.7677,380.81976 321.71716,381.3771 316.6667,381.7664 311.61615,382.72272 306.56567,383.20554 301.51514,383.34695 296.46466,384.09637 291.41412,384.6662 286.36365,386.4221 281.31314,386.9514 276.26263,387.42996 271.21213,387.78778 266.16162,388.27353 261.1111,388.48654 256.0606,389.24628 251.0101,389.56088 245.9596,390.32443 240.90909,390.93518 235.85858,391.2387 230.80807,391.88538 225.75757,392.3285 220.70706,392.69843 215.65657,393.77975 210.60606,394.3303 205.55556,394.73087 200.50505,395.16068 195.45454,395.61908 190.40404,395.99966 185.35353,396.3941 180.30302,397.22418 175.25253,397.65167 170.20203,398.11505 165.15152,398.71835 160.10101,399.11234 155.0505,399.5771 150,400 "/><text class="poloto_text" alignment-baseline="middle" text-anchor="start" font-size="large" x="675" y="200" >direct_par</text><line class="poloto2stroke" stroke="black" x1="680" x2="730" y1="181.25" y2="181.25" /><polyline class="poloto2stroke" fill="none" stroke="black"  points="650,271.27563 644.94946,305.87173 639.899,306.25327 634.8485,260.0586 629.798,253.59154 624.7475,311.24585 619.697,310.5616 614.6465,315.61328 609.59595,314.48438 604.5455,312.81976 599.495,319.57062 594.44446,315.7269 589.3939,323.31235 584.34344,318.84445 579.29297,320.2222 574.24243,319.58875 569.1919,324.4503 564.1414,324.6069 559.09094,327.45758 554.0404,330.35132 548.98987,327.9549 543.9394,329.73297 538.8889,330.0816 533.8384,334.4123 528.78784,336.27606 523.73737,334.83398 518.6869,337.56372 513.63635,335.01093 508.58588,338.66028 503.53537,339.5441 498.48486,341.3617 493.43436,340.1832 488.38385,342.1485 483.33334,344.28833 478.28284,343.77243 473.23233,343.3479 468.18182,348.11203 463.13132,347.83575 458.0808,348.21542 453.0303,345.92746 447.9798,349.98837 442.9293,346.70493 437.87878,349.05334 432.82828,353.1844 427.77777,352.3296 422.72726,355.70984 417.67676,356.78253 412.62628,355.96313 407.57578,358.0499 402.52527,355.5785 397.47473,360.9571 392.42426,357.5104 387.37375,359.1431 382.32324,360.48697 377.27274,362.67194 372.22223,362.21213 367.17172,361.5119 362.12122,360.71832 357.0707,342.1418 352.0202,363.26816 346.9697,364.536 341.9192,364.56418 336.86868,364.86823 331.81818,367.3094 326.7677,367.4732 321.71716,367.81918 316.6667,369.90778 311.61615,370.9436 306.56567,372.2954 301.51514,370.23865 296.46466,372.64908 291.41412,374.37415 286.36365,377.27054 281.31314,377.27982 276.26263,377.91168 271.21213,377.04025 266.16162,377.88022 261.1111,376.60544 256.0606,379.7742 251.0101,382.0591 245.9596,380.48267 240.90909,382.23874 235.85858,383.3359 230.80807,383.3282 225.75757,385.71146 220.70706,383.62286 215.65657,383.5672 210.60606,383.98016 205.55556,385.99118 200.50505,386.75 195.45454,386.59348 190.40404,387.63037 185.35353,389.4257 180.30302,390.1077 175.25253,391.74625 170.20203,393.33224 165.15152,395.68478 160.10101,396.93918 155.0505,398.6436 150,399.99765 "/><text class="poloto_text" alignment-baseline="middle" text-anchor="start" font-size="large" x="675" y="250" >direct_seq</text><line class="poloto3stroke" stroke="black" x1="680" x2="730" y1="231.25" y2="231.25" /><polyline class="poloto3stroke" fill="none" stroke="black"  points="650,123.157196 644.94946,140.71014 639.899,144.08928 634.8485,100 629.798,113.48477 624.7475,149.62419 619.697,157.33783 614.6465,157.43228 609.59595,161.25772 604.5455,163.8536 599.495,173.76656 594.44446,170.42444 589.3939,178.37807 584.34344,179.03703 579.29297,184.48404 574.24243,183.9749 569.1919,181.16217 564.1414,185.07526 559.09094,198.20802 554.0404,197.65997 548.98987,205.52907 543.9394,204.05257 538.8889,209.94835 533.8384,208.60695 528.78784,212.60136 523.73737,218.21674 518.6869,220.42699 513.63635,224.75401 508.58588,222.0856 503.53537,227.53053 498.48486,230.91866 493.43436,231.72536 488.38385,234.97934 483.33334,239.9982 478.28284,232.16255 473.23233,245.79747 468.18182,249.4858 463.13132,251.82648 458.0808,251.98703 453.0303,253.70485 447.9798,256.88242 442.9293,260.6138 437.87878,261.61224 432.82828,265.3111 427.77777,267.28162 422.72726,282.1723 417.67676,281.86908 412.62628,286.63608 407.57578,283.55554 402.52527,289.80368 397.47473,289.6359 392.42426,292.04224 387.37375,297.01398 382.32324,298.27002 377.27274,300.7693 372.22223,300.88626 367.17172,306.8764 362.12122,308.1399 357.0707,306.4993 352.0202,310.60065 346.9697,314.55508 341.9192,314.54358 336.86868,318.66284 331.81818,318.5739 326.7677,322.12875 321.71716,323.75836 316.6667,326.25342 311.61615,330.89456 306.56567,331.50116 301.51514,333.10504 296.46466,335.09238 291.41412,338.0227 286.36365,344.19257 281.31314,346.06323 276.26263,348.4635 271.21213,349.81958 266.16162,352.57434 261.1111,353.44385 256.0606,356.53717 251.0101,357.434 245.9596,361.1891 240.90909,363.20374 235.85858,364.53412 230.80807,367.5164 225.75757,369.23175 220.70706,371.00287 215.65657,375.2219 210.60606,377.5409 205.55556,379.1147 200.50505,381.0388 195.45454,382.38153 190.40404,384.42685 185.35353,385.91122 180.30302,389.11526 175.25253,390.7235 170.20203,392.63284 165.15152,395.02017 160.10101,396.6088 155.0505,398.30234 150,399.99756 "/><text class="poloto_text" alignment-baseline="middle" text-anchor="start" font-size="large" x="675" y="300" >indirect_par</text><line class="poloto4stroke" stroke="black" x1="680" x2="730" y1="281.25" y2="281.25" /><polyline class="poloto4stroke" fill="none" stroke="black"  points="650,363.83722 644.94946,362.01602 639.899,370.06772 634.8485,343.08456 629.798,373.8892 624.7475,370.8965 619.697,370.9903 614.6465,374.88306 609.59595,373.7144 604.5455,371.98856 599.495,375.22266 594.44446,372.62378 589.3939,375.51593 584.34344,374.96198 579.29297,370.43793 574.24243,374.9103 569.1919,367.51056 564.1414,376.84387 559.09094,377.2464 554.0404,377.13986 548.98987,377.06497 543.9394,376.576 538.8889,375.88132 533.8384,379.25073 528.78784,379.28656 523.73737,378.883 518.6869,377.9004 513.63635,379.05475 508.58588,379.8986 503.53537,379.3183 498.48486,380.95618 493.43436,380.81122 488.38385,380.66315 483.33334,382.83963 478.28284,380.15247 473.23233,380.64566 468.18182,383.3524 463.13132,382.59662 458.0808,382.7407 453.0303,383.5307 447.9798,381.64023 442.9293,381.8383 437.87878,382.20227 432.82828,382.68912 427.77777,383.76242 422.72726,384.36536 417.67676,384.8029 412.62628,384.215 407.57578,382.24228 402.52527,383.78958 397.47473,385.6345 392.42426,386.6547 387.37375,384.9044 382.32324,387.15607 377.27274,385.05707 372.22223,387.06204 367.17172,386.3382 362.12122,385.76697 357.0707,388.11606 352.0202,386.6079 346.9697,388.26392 341.9192,388.81293 336.86868,386.64246 331.81818,388.18048 326.7677,388.0154 321.71716,388.55832 316.6667,390.41232 311.61615,388.92657 306.56567,389.0226 301.51514,391.0265 296.46466,390.84525 291.41412,391.96405 286.36365,390.1217 281.31314,390.5334 276.26263,392.5951 271.21213,389.38712 266.16162,389.50098 261.1111,390.6045 256.0606,391.03778 251.0101,393.70612 245.9596,390.2752 240.90909,391.9404 235.85858,394.26642 230.80807,394.4464 225.75757,395.0904 220.70706,393.9336 215.65657,393.38275 210.60606,392.81558 205.55556,392.8546 200.50505,393.0997 195.45454,393.4581 190.40404,395.1035 185.35353,395.04956 180.30302,397.5139 175.25253,397.95358 170.20203,398.34653 165.15152,398.93707 160.10101,399.24713 155.0505,399.67267 150,399.99887 "/><text class="poloto_text" alignment-baseline="middle" text-anchor="start" font-size="large" x="675" y="350" >indirect_seq</text><line class="poloto5stroke" stroke="black" x1="680" x2="730" y1="331.25" y2="331.25" /><polyline class="poloto5stroke" fill="none" stroke="black"  points="650,322.65875 644.94946,324.3854 639.899,323.43948 634.8485,312.6209 629.798,323.51022 624.7475,324.00134 619.697,325.029 614.6465,329.63263 609.59595,332.77518 604.5455,330.43994 599.495,334.15628 594.44446,332.19357 589.3939,336.57382 584.34344,336.14645 579.29297,338.1735 574.24243,336.97037 569.1919,337.69046 564.1414,341.6483 559.09094,343.8906 554.0404,342.70123 548.98987,345.37482 543.9394,344.5415 538.8889,348.36844 533.8384,347.01236 528.78784,347.4081 523.73737,348.84964 518.6869,349.0946 513.63635,351.03735 508.58588,350.19687 503.53537,351.74533 498.48486,351.12592 493.43436,353.18298 488.38385,355.00714 483.33334,356.19888 478.28284,354.9031 473.23233,359.36783 468.18182,360.28836 463.13132,360.6972 458.0808,360.84735 453.0303,362.00394 447.9798,362.76178 442.9293,361.93674 437.87878,361.672 432.82828,363.00308 427.77777,363.23044 422.72726,367.4915 417.67676,368.56857 412.62628,370.17386 407.57578,367.11734 402.52527,369.78516 397.47473,371.015 392.42426,371.0946 387.37375,371.62442 382.32324,372.28302 377.27274,372.64996 372.22223,372.8574 367.17172,374.28336 362.12122,374.96402 357.0707,374.3932 352.0202,375.6042 346.9697,376.22614 341.9192,376.02856 336.86868,377.65115 331.81818,377.49475 326.7677,379.46216 321.71716,379.83707 316.6667,380.41272 311.61615,381.994 306.56567,382.12372 301.51514,381.57657 296.46466,382.6348 291.41412,383.22452 286.36365,385.06085 281.31314,385.7561 276.26263,386.15045 271.21213,386.59973 266.16162,387.70337 261.1111,387.5064 256.0606,388.8377 251.0101,389.2623 245.9596,389.7031 240.90909,390.43976 235.85858,391.08792 230.80807,391.72714 225.75757,391.95505 220.70706,392.40555 215.65657,393.49673 210.60606,393.9981 205.55556,394.6547 200.50505,395.10425 195.45454,395.60635 190.40404,395.99875 185.35353,396.46844 180.30302,397.3027 175.25253,397.75372 170.20203,398.25378 165.15152,398.83817 160.10101,399.2088 155.0505,399.63116 150,399.9977 "/><text class="poloto_text" alignment-baseline="start" text-anchor="middle" font-size="x-large" x="400" y="37.5" >Bench of rebal:256_bytes with abspiral(num,0.1)</text><text class="poloto_text" alignment-baseline="start" text-anchor="middle" font-size="x-large" x="400" y="481.25" >Number of Elements</text><text class="poloto_text" alignment-baseline="start" text-anchor="middle" font-size="x-large" transform="rotate(-90,37.5,250)" x="37.5" y="250" >Time in Seconds</text><path stroke="black" fill="none" class="poloto_axis_lines"  d="M 150 100 L 150 400 L 650 400 "/></svg>