<svg  width="800" class="poloto_background poloto" height="500" viewBox="0 0 800 500" xmlns="http://www.w3.org/2000/svg" ><text  class="poloto_text" alignment-baseline="middle" text-anchor="start" font-size="large" x="675" y="100" >default_par</text><line  class="poloto0stroke poloto0legend" stroke="black" x1="680" x2="730" y1="81.25" y2="81.25" /><path  class="poloto0stroke" fill="none" stroke="black" d=" M 650 338.96940829924444 L 644.9494949494949 344.98171406739056 L 639.8989898989898 341.4058636963374 L 634.8484848484848 340.98266704951726 L 629.7979797979798 344.42252593020345 L 624.7474747474747 344.6356867948298 L 619.6969696969697 345.4889855125547 L 614.6464646464647 344.08930141470466 L 609.5959595959596 339.6630253855823 L 604.5454545454545 342.70478908801863 L 599.4949494949494 339.5044526544131 L 594.4444444444445 347.4933226565284 L 589.3939393939394 346.71180002563915 L 584.3434343434344 347.8882927523458 L 579.2929292929293 349.5412597408903 L 574.2424242424242 349.02274807988044 L 569.1919191919192 352.84986515941364 L 564.1414141414141 349.25697804864814 L 559.090909090909 345.247094051372 L 554.040404040404 353.4758897370109 L 548.989898989899 349.31428802809484 L 543.939393939394 355.3225110272566 L 538.8888888888889 349.4297648644294 L 533.8383838383838 354.9562715279956 L 528.7878787878788 360.44603327070286 L 523.7373737373737 352.89361631346793 L 518.6868686868687 355.75609101248136 L 513.6363636363636 358.97603481812274 L 508.5858585858586 356.9170087315811 L 503.5353535353535 358.0052934864041 L 498.4848484848485 356.84084744842903 L 493.4343434343434 354.42258809582177 L 488.3838383838384 363.30548369639456 L 483.3333333333333 358.9597037421854 L 478.2828282828283 360.25938520219705 L 473.2323232323232 358.0250016675507 L 468.1818181818182 363.31853847623336 L 463.1313131313131 362.6866669702141 L 458.0808080808081 360.1998574223144 L 453.030303030303 359.51601881971686 L 447.979797979798 359.77827372126586 L 442.9292929292929 359.1055745254033 L 437.8787878787879 362.1452716410698 L 432.8282828282828 361.5519596199026 L 427.77777777777777 359.3336047338614 L 422.72727272727275 360.34199826843553 L 417.67676767676767 360.5455318629877 L 412.62626262626264 362.7337448249223 L 407.57575757575756 366.62527892620824 L 402.52525252525254 366.93894647422655 L 397.47474747474746 366.314686056067 L 392.4242424242424 363.3568963428639 L 387.37373737373736 368.27965724230296 L 382.32323232323233 367.8659870564462 L 377.27272727272725 368.3756779202677 L 372.22222222222223 369.5663847315865 L 367.1717171717172 368.95654001626053 L 362.1212121212121 370.8446442555692 L 357.07070707070704 373.18664151591366 L 352.020202020202 370.1948287278411 L 346.969696969697 370.930079976908 L 341.9191919191919 371.70247938327674 L 336.86868686868684 373.86105446665846 L 331.8181818181818 372.9707588052978 L 326.7676767676768 367.53548438693696 L 321.7171717171717 367.9165428254744 L 316.66666666666663 369.76271047472187 L 311.6161616161616 373.5711778687711 L 306.5656565656566 375.21991087466523 L 301.5151515151515 374.4135387979824 L 296.4646464646464 379.40253128316726 L 291.4141414141414 378.0992710997249 L 286.3636363636364 381.0856401958183 L 281.3131313131313 374.6380406875652 L 276.26262626262627 378.03767673307243 L 271.2121212121212 378.1826402342938 L 266.16161616161617 381.5783951290382 L 261.1111111111111 384.78346959084774 L 256.06060606060606 384.61723536726356 L 251.010101010101 386.2305843752935 L 245.95959595959596 385.9211508099256 L 240.9090909090909 386.26107913128754 L 235.85858585858585 387.3421560346938 L 230.8080808080808 386.90645905814387 L 225.75757575757575 388.3743405193988 L 220.7070707070707 390.668705474926 L 215.65656565656565 390.5733904607363 L 210.6060606060606 391.4750271470534 L 205.55555555555554 390.0465116435363 L 200.50505050505052 390.7036358317919 L 195.45454545454544 391.39206124892746 L 190.40404040404042 391.762282708062 L 185.35353535353534 392.2511060859636 L 180.3030303030303 394.82325054609134 L 175.25252525252526 395.65079253602624 L 170.2020202020202 396.61019284278836 L 165.15151515151516 397.81753315737666 L 160.1010101010101 398.63958105077705 L 155.05050505050505 399.34136367508347 L 150 399.9998487863339" /><text  class="poloto_text" alignment-baseline="middle" text-anchor="start" font-size="large" x="675" y="150" >default_seq</text><line  class="poloto1stroke poloto1legend" stroke="black" x1="680" x2="730" y1="131.25" y2="131.25" /><path  class="poloto1stroke" fill="none" stroke="black" d=" M 650 269.75210871657737 L 644.9494949494949 273.1542145852974 L 639.8989898989898 270.1376531605421 L 634.8484848484848 276.05066195462484 L 629.7979797979798 273.7050859708497 L 624.7474747474747 272.9898453302616 L 619.6969696969697 275.8957183514417 L 614.6464646464647 276.8186257601217 L 609.5959595959596 280.8067349894814 L 604.5454545454545 277.5258016718519 L 599.4949494949494 284.34412668479325 L 594.4444444444445 282.1687164799206 L 589.3939393939394 281.1585083813535 L 584.3434343434344 283.85822677110264 L 579.2929292929293 290.28455555699304 L 574.2424242424242 291.2823137303857 L 569.1919191919192 291.7791010280345 L 564.1414141414141 290.4403560376172 L 559.090909090909 292.5899591101445 L 554.040404040404 296.86991071505076 L 548.989898989899 295.6327309036882 L 543.939393939394 298.2943434495836 L 538.8888888888889 300.1883954264251 L 533.8383838383838 300.3094671684048 L 528.7878787878788 301.3961389774562 L 523.7373737373737 297.7779487798989 L 518.6868686868687 304.7141196432769 L 513.6363636363636 303.647559251815 L 508.5858585858586 304.0672779843151 L 503.5353535353535 307.5189819355114 L 498.4848484848485 306.2923870807748 L 493.4343434343434 311.62337447409146 L 488.3838383838384 313.2660085287868 L 483.3333333333333 311.35134108880226 L 478.2828282828283 315.28224114782597 L 473.2323232323232 312.8265312105847 L 468.1818181818182 316.44210037126317 L 463.1313131313131 319.4171788469555 L 458.0808080808081 316.6571262044379 L 453.030303030303 317.84808503853344 L 447.979797979798 323.1780643407429 L 442.9292929292929 324.13312985574385 L 437.8787878787879 326.0116068249784 L 432.8282828282828 326.05747497035793 L 427.77777777777777 328.14956644521703 L 422.72727272727275 333.6207793115511 L 417.67676767676767 335.71579425062123 L 412.62626262626264 337.24632857419124 L 407.57575757575756 338.27165803936697 L 402.52525252525254 339.48046008606076 L 397.47474747474746 339.8903499302653 L 392.4242424242424 340.8566052565567 L 387.37373737373736 343.75884914975074 L 382.32323232323233 343.2058607728732 L 377.27272727272725 344.13577441474854 L 372.22222222222223 346.46829561868486 L 367.1717171717172 348.8809600656469 L 362.1212121212121 349.09215515261405 L 357.07070707070704 350.21340448664387 L 352.020202020202 352.28488049835994 L 346.969696969697 353.5803783802765 L 341.9191919191919 352.5767228739065 L 336.86868686868684 354.18629154028423 L 331.8181818181818 357.58522192201644 L 326.7676767676768 357.5501907560398 L 321.7171717171717 359.638401080136 L 316.66666666666663 359.75433155746884 L 311.6161616161616 361.02709698491714 L 306.5656565656566 362.7688263954543 L 301.5151515151515 363.9406314985123 L 296.4646464646464 365.1340097512653 L 291.4141414141414 365.3896112515065 L 286.3636363636364 369.922946556218 L 281.3131313131313 371.6481432725964 L 276.26262626262627 373.0006487066275 L 271.2121212121212 373.7455776303239 L 266.16161616161617 374.1692279181423 L 261.1111111111111 376.3887925135122 L 256.06060606060606 377.272283559899 L 251.010101010101 378.13142920604594 L 245.95959595959596 378.5830540220903 L 240.9090909090909 379.88046727711065 L 235.85858585858585 380.9557476566502 L 230.8080808080808 382.2878392457597 L 225.75757575757575 384.3401615264381 L 220.7070707070707 384.3767048290756 L 215.65656565656565 386.978033526758 L 210.6060606060606 388.1542238261325 L 205.55555555555554 388.76079224536 L 200.50505050505052 389.7400015423794 L 195.45454545454544 390.84784326468287 L 190.40404040404042 392.0625930489094 L 185.35353535353534 393.25163650990123 L 180.3030303030303 394.2300897385902 L 175.25252525252526 395.6104184871812 L 170.2020202020202 396.48403024071706 L 165.15151515151516 397.6212578187966 L 160.1010101010101 398.536705353283 L 155.05050505050505 399.3033586403405 L 150 400" /><text  class="poloto_text" alignment-baseline="middle" text-anchor="start" font-size="large" x="675" y="200" >direct_par</text><line  class="poloto2stroke poloto2legend" stroke="black" x1="680" x2="730" y1="181.25" y2="181.25" /><path  class="poloto2stroke" fill="none" stroke="black" d=" M 650 336.74006522013434 L 644.9494949494949 343.6207406680586 L 639.8989898989898 346.5524712261395 L 634.8484848484848 342.64757991768266 L 629.7979797979798 346.6383101839212 L 624.7474747474747 345.07445844925684 L 619.6969696969697 348.10352020374194 L 614.6464646464647 333.679651832214 L 609.5959595959596 344.20195559593895 L 604.5454545454545 343.4094447719807 L 599.4949494949494 339.5329312281927 L 594.4444444444445 340.99743558423836 L 589.3939393939394 341.7800167107903 L 584.3434343434344 350.54642738392124 L 579.2929292929293 351.182129636148 L 574.2424242424242 348.0608779499056 L 569.1919191919192 351.9051829828173 L 564.1414141414141 349.71066945146237 L 559.090909090909 353.14710082238395 L 554.040404040404 354.3426464710175 L 548.989898989899 351.5130859466555 L 543.939393939394 355.66591726293854 L 538.8888888888889 355.75604060792597 L 533.8383838383838 354.8774388034093 L 528.7878787878788 359.74233527329267 L 523.7373737373737 352.63932533166616 L 518.6868686868687 355.9133028206557 L 513.6363636363636 360.54371729899464 L 508.5858585858586 360.9652505954878 L 503.5353535353535 356.97320981080986 L 498.4848484848485 359.2029057218075 L 493.4343434343434 358.3901826711491 L 488.3838383838384 355.91698235319717 L 483.3333333333333 361.10870196004834 L 478.2828282828283 364.9802758574109 L 473.2323232323232 354.94714830347505 L 468.1818181818182 363.22423155315084 L 463.1313131313131 359.95141336893465 L 458.0808080808081 363.9060539735339 L 453.030303030303 362.0668421529264 L 447.979797979798 360.5483041135326 L 442.9292929292929 356.60661747966134 L 437.8787878787879 362.30817916400014 L 432.8282828282828 361.03072611290315 L 427.77777777777777 361.1208494578906 L 422.72727272727275 361.2785653116186 L 417.67676767676767 364.7768430719695 L 412.62626262626264 362.7569813249442 L 407.57575757575756 358.37133136744364 L 402.52525252525254 368.9906134956853 L 397.47474747474746 364.7261864938306 L 392.4242424242424 367.9219865174535 L 387.37373737373736 366.0366041241343 L 382.32323232323233 367.72435025587873 L 377.27272727272725 368.88602404330896 L 372.22222222222223 368.2055121413653 L 367.1717171717172 372.01362670352694 L 362.1212121212121 372.2775449554029 L 357.07070707070704 370.51121812184897 L 352.020202020202 371.4674429416233 L 346.969696969697 373.44758589902324 L 341.9191919191919 372.7001367475587 L 336.86868686868684 374.23132633034845 L 331.8181818181818 371.36925486777795 L 326.7676767676768 372.4866734556002 L 321.7171717171717 372.6325442388181 L 316.66666666666663 367.66240305733874 L 311.6161616161616 374.4848108392644 L 306.5656565656566 371.36975891333157 L 301.5151515151515 373.8546026835721 L 296.4646464646464 374.76556421263126 L 291.4141414141414 378.71108159271 L 286.3636363636364 382.14428707208845 L 281.3131313131313 376.932909688646 L 276.26262626262627 377.7586371145879 L 271.2121212121212 379.2478901073163 L 266.16161616161617 380.54908370398886 L 261.1111111111111 378.6432370611926 L 256.06060606060606 384.66476686297 L 251.010101010101 385.4649895838986 L 245.95959595959596 385.84105797145526 L 240.9090909090909 386.4149138342527 L 235.85858585858585 388.5765635955115 L 230.8080808080808 388.7853392638213 L 225.75757575757575 388.4994446258075 L 220.7070707070707 389.4088940182058 L 215.65656565656565 388.31929874494335 L 210.6060606060606 389.9181816455844 L 205.55555555555554 391.47638807004824 L 200.50505050505052 390.02196462507493 L 195.45454545454544 391.11609630832 L 190.40404040404042 391.3207892076454 L 185.35353535353534 393.9223195235493 L 180.3030303030303 394.5747560881562 L 175.25252525252526 396.0531216969265 L 170.2020202020202 396.4919437559089 L 165.15151515151516 397.8659719350796 L 160.1010101010101 398.6698237839943 L 155.05050505050505 399.37437865884567 L 150 399.99742936767655" /><text  class="poloto_text" alignment-baseline="middle" text-anchor="start" font-size="large" x="675" y="250" >direct_seq</text><line  class="poloto3stroke poloto3legend" stroke="black" x1="680" x2="730" y1="231.25" y2="231.25" /><path  class="poloto3stroke" fill="none" stroke="black" d=" M 650 156.065440570257 L 644.9494949494949 271.69036548847134 L 639.8989898989898 270.1536314045918 L 634.8484848484848 275.8037804424613 L 629.7979797979798 275.10350995481565 L 624.7474747474747 275.5399125951407 L 619.6969696969697 278.2931102181291 L 614.6464646464647 279.18184333827355 L 609.5959595959596 281.3062441331198 L 604.5454545454545 282.01069819886044 L 599.4949494949494 284.2913531153291 L 594.4444444444445 284.0192189209292 L 589.3939393939394 286.2226540585832 L 584.3434343434344 283.84829707369636 L 579.2929292929293 290.6078503750855 L 574.2424242424242 290.4345595137506 L 569.1919191919192 290.65845654866905 L 564.1414141414141 291.2452663821946 L 559.090909090909 295.928656048219 L 554.040404040404 296.908923840901 L 548.989898989899 294.4927310750636 L 543.939393939394 298.6981847471447 L 538.8888888888889 301.74786196477294 L 533.8383838383838 300.29449701546224 L 528.7878787878788 303.7198393842042 L 523.7373737373737 301.2359028959601 L 518.6868686868687 304.29288877411585 L 513.6363636363636 304.42293252695004 L 508.5858585858586 305.86178096431644 L 503.5353535353535 310.00135588253926 L 498.4848484848485 307.7297737860357 L 493.4343434343434 312.88842800456933 L 488.3838383838384 314.6772856743701 L 483.3333333333333 313.1201377455689 L 478.2828282828283 316.20449329728626 L 473.2323232323232 317.996828881407 L 468.1818181818182 316.9425167968981 L 463.1313131313131 320.083476664287 L 458.0808080808081 317.59202989729397 L 453.030303030303 322.69362615915776 L 447.979797979798 324.5175149949352 L 442.9292929292929 324.43449869225384 L 437.8787878787879 326.7986235524022 L 432.8282828282828 326.6951430002438 L 427.77777777777777 328.0565196360186 L 422.72727272727275 334.4898546551043 L 417.67676767676767 335.44829727531453 L 412.62626262626264 337.0830682193734 L 407.57575757575756 338.26334128773226 L 402.52525252525254 339.14219511502574 L 397.47474747474746 340.4747907496888 L 392.4242424242424 341.50853777561 L 387.37373737373736 343.65168906505096 L 382.32323232323233 343.82064513462467 L 377.27272727272725 346.0260460499378 L 372.22222222222223 346.552672844361 L 367.1717171717172 349.5870270771591 L 362.1212121212121 349.23782431761055 L 357.07070707070704 351.07754018377165 L 352.020202020202 352.3846311134215 L 346.969696969697 354.099948536949 L 341.9191919191919 353.8236811690093 L 336.86868686868684 354.3692600762487 L 331.8181818181818 357.3446913838285 L 326.7676767676768 358.4484503371477 L 321.7171717171717 359.7251473199142 L 316.66666666666663 359.3495829779112 L 311.6161616161616 361.8011597416128 L 306.5656565656566 363.0084496516457 L 301.5151515151515 362.9328932231579 L 296.4646464646464 365.98060466312705 L 291.4141414141414 366.8188324187987 L 286.3636363636364 370.5489207292598 L 281.3131313131313 371.5326160317065 L 276.26262626262627 373.20302299640633 L 271.2121212121212 374.2267395158105 L 266.16161616161617 375.5192131244053 L 261.1111111111111 376.6826510712732 L 256.06060606060606 377.7106015733278 L 251.010101010101 378.52302219665404 L 245.95959595959596 378.87192252887047 L 240.9090909090909 380.5104234100261 L 235.85858585858585 381.1455208075885 L 230.8080808080808 382.5537232752947 L 225.75757575757575 384.8249525399107 L 220.7070707070707 384.6856343488899 L 215.65656565656565 387.1573729347364 L 210.6060606060606 388.13542292698247 L 205.55555555555554 388.82304187123214 L 200.50505050505052 389.77780495890096 L 195.45454545454544 390.81039268004884 L 190.40404040404042 392.16340215963356 L 185.35353535353534 393.10652179501375 L 180.3030303030303 394.58297203068025 L 175.25252525252526 395.61535813360666 L 170.2020202020202 396.511450318834 L 165.15151515151516 397.64157085460755 L 160.1010101010101 398.5277333424286 L 155.05050505050505 399.3088023323196 L 150 399.9943042852441" /><text  class="poloto_text" alignment-baseline="middle" text-anchor="start" font-size="large" x="675" y="300" >indirect_par</text><line  class="poloto4stroke poloto4legend" stroke="black" x1="680" x2="730" y1="281.25" y2="281.25" /><path  class="poloto4stroke" fill="none" stroke="black" d=" M 650 294.5800317649508 L 644.9494949494949 301.70900005258875 L 639.8989898989898 307.3159523865129 L 634.8484848484848 298.70176347057543 L 629.7979797979798 305.72921698371414 L 624.7474747474747 300.66522252015045 L 619.6969696969697 315.82313243141664 L 614.6464646464647 307.4187272748962 L 609.5959595959596 295.5001669230858 L 604.5454545454545 308.91891805613824 L 599.4949494949494 309.923783271837 L 594.4444444444445 303.03176679895626 L 589.3939393939394 313.95090562704695 L 584.3434343434344 312.40691328719527 L 579.2929292929293 314.99876592846954 L 574.2424242424242 311.4681788481316 L 569.1919191919192 325.92818728585416 L 564.1414141414141 318.3852463850273 L 559.090909090909 326.4637356865764 L 554.040404040404 323.63296545288574 L 548.989898989899 316.97790079476226 L 543.939393939394 326.5463487528149 L 538.8888888888889 320.7749767592996 L 533.8383838383838 330.5751848629072 L 528.7878787878788 334.3347094336998 L 523.7373737373737 323.3963160654607 L 518.6868686868687 327.9379177172516 L 513.6363636363636 328.8820958482944 L 508.5858585858586 330.09719846440845 L 503.5353535353535 314.747146388102 L 498.4848484848485 335.35988768520946 L 493.4343434343434 330.1567766488464 L 488.3838383838384 338.5998420993296 L 483.3333333333333 341.8423167412178 L 478.2828282828283 334.325838231956 L 473.2323232323232 332.72705614042576 L 468.1818181818182 340.3407146324256 L 463.1313131313131 340.1324934142248 L 458.0808080808081 337.96958353908195 L 453.030303030303 344.9604433450277 L 447.979797979798 344.06808109689723 L 442.9292929292929 331.6583283530832 L 437.8787878787879 335.032560502688 L 432.8282828282828 341.7153476662607 L 427.77777777777777 340.3482249111746 L 422.72727272727275 336.69213048798497 L 417.67676767676767 347.93285037928587 L 412.62626262626264 344.4802895506484 L 407.57575757575756 348.48951828870486 L 402.52525252525254 351.65683973854823 L 397.47474747474746 349.46827394472604 L 392.4242424242424 349.06811217970636 L 387.37373737373736 352.98812485477185 L 382.32323232323233 353.5825457761571 L 377.27272727272725 352.03149679855466 L 372.22222222222223 357.22256114618614 L 367.1717171717172 359.27442978586635 L 362.1212121212121 353.42084796255546 L 357.07070707070704 359.04196397653635 L 352.020202020202 356.191334348033 L 346.969696969697 357.2248797557328 L 341.9191919191919 359.1537108757741 L 336.86868686868684 359.8378519057038 L 331.8181818181818 363.4967689839937 L 326.7676767676768 366.7612200120198 L 321.7171717171717 356.28039919735784 L 316.66666666666663 359.1215023648977 L 311.6161616161616 367.70106335130146 L 306.5656565656566 364.0188593684343 L 301.5151515151515 362.7358618162475 L 296.4646464646464 372.66626488635535 L 291.4141414141414 371.1308917254706 L 286.3636363636364 368.88698172986085 L 281.3131313131313 368.7845092688097 L 276.26262626262627 371.8554572088007 L 271.2121212121212 376.06196937654437 L 266.16161616161617 374.4730161733097 L 261.1111111111111 377.1652746888653 L 256.06060606060606 374.00395138111 L 251.010101010101 380.41253776351294 L 245.95959595959596 382.2551266893297 L 240.9090909090909 381.3491552112514 L 235.85858585858585 383.3026845634201 L 230.8080808080808 381.9493726565032 L 225.75757575757575 384.2980233181554 L 220.7070707070707 385.24517531796454 L 215.65656565656565 384.7980869119028 L 210.6060606060606 387.6223045533963 L 205.55555555555554 388.8200680024658 L 200.50505050505052 387.7544652975557 L 195.45454545454544 389.29180423609967 L 190.40404040404042 390.44712704955424 L 185.35353535353534 390.70721455522266 L 180.3030303030303 393.6909122098819 L 175.25252525252526 394.8551062250802 L 170.2020202020202 396.0054893921093 L 165.15151515151516 397.453713076773 L 160.1010101010101 398.46805434887983 L 155.05050505050505 399.29216882905007 L 150 399.9986894815606" /><text  class="poloto_text" alignment-baseline="middle" text-anchor="start" font-size="large" x="675" y="350" >indirect_seq</text><line  class="poloto5stroke poloto5legend" stroke="black" x1="680" x2="730" y1="331.25" y2="331.25" /><path  class="poloto5stroke" fill="none" stroke="black" d=" M 650 100 L 644.9494949494949 196.89812046453514 L 639.8989898989898 188.3206764694566 L 634.8484848484848 204.27538159188674 L 629.7979797979798 197.4363403066916 L 624.7474747474747 200.24936813689476 L 619.6969696969697 206.27271250266514 L 614.6464646464647 209.35636239060742 L 609.5959595959596 211.9284060416244 L 604.5454545454545 212.35119945200168 L 599.4949494949494 218.10412337825443 L 594.4444444444445 212.41929600629587 L 589.3939393939394 220.94104296769925 L 584.3434343434344 218.58160573119955 L 579.2929292929293 229.57695624699778 L 574.2424242424242 230.38791513821852 L 569.1919191919192 231.39227630836365 L 564.1414141414141 227.32911469606978 L 559.090909090909 236.96455030819865 L 554.040404040404 240.61056382031583 L 548.989898989899 237.7372017373442 L 543.939393939394 244.73778962247493 L 538.8888888888889 246.92721229373825 L 533.8383838383838 245.7448726386096 L 528.7878787878788 250.613952686588 L 523.7373737373737 245.95773107590372 L 518.6868686868687 254.17059892204819 L 513.6363636363636 250.85105571501128 L 508.5858585858586 254.41002056001813 L 503.5353535353535 260.1231752920902 L 498.4848484848485 258.3944502568364 L 493.4343434343434 265.09034260480325 L 488.3838383838384 266.8164970077336 L 483.3333333333333 267.33062347242696 L 478.2828282828283 273.13042363516644 L 473.2323232323232 274.4848444423013 L 468.1818181818182 272.05942764283265 L 463.1313131313131 277.2111260327263 L 458.0808080808081 274.39703970686054 L 453.030303030303 281.5621480606931 L 447.979797979798 285.72460664705034 L 442.9292929292929 286.1350005368085 L 437.8787878787879 290.36001117637005 L 432.8282828282828 289.2731377490972 L 427.77777777777777 292.1265900327008 L 422.72727272727275 297.9870268755409 L 417.67676767676767 301.20500490352316 L 412.62626262626264 303.768530184684 L 407.57575757575756 306.95777761610987 L 402.52525252525254 308.32066638854553 L 397.47474747474746 311.97514786596355 L 392.4242424242424 310.17726778075297 L 387.37373737373736 314.9202356312154 L 382.32323232323233 314.0336699069515 L 377.27272727272725 318.7527964027277 L 372.22222222222223 319.7261083667698 L 367.1717171717172 324.24946356951955 L 362.1212121212121 324.3816747182343 L 357.07070707070704 324.63394951782163 L 352.020202020202 328.53097771564205 L 346.969696969697 331.87496713202955 L 341.9191919191919 332.6238276110442 L 336.86868686868684 333.4494038233199 L 331.8181818181818 338.14347925508116 L 326.7676767676768 338.24207056536943 L 321.7171717171717 342.6089700282753 L 316.66666666666663 343.7543127397682 L 311.6161616161616 344.79501559432936 L 306.5656565656566 347.41580045038154 L 301.5151515151515 348.4016127441534 L 296.4646464646464 351.1894382966755 L 291.4141414141414 351.8924306303106 L 286.3636363636364 356.906827011398 L 281.3131313131313 359.00657997867216 L 276.26262626262627 361.017620928509 L 271.2121212121212 362.475068646804 L 266.16161616161617 363.37594926479073 L 261.1111111111111 367.4728315246219 L 256.06060606060606 368.1351473820798 L 251.010101010101 369.734887160162 L 245.95959595959596 370.02950178625343 L 240.9090909090909 372.24316904864594 L 235.85858585858585 373.41578062458973 L 230.8080808080808 376.38768361329426 L 225.75757575757575 379.0673409900093 L 220.7070707070707 379.1022713468752 L 215.65656565656565 382.31037008200656 L 210.6060606060606 383.81630698255987 L 205.55555555555554 385.1122081009193 L 200.50505050505052 386.19449471365425 L 195.45454545454544 387.87412571198536 L 190.40404040404042 389.64468652818965 L 185.35353535353534 390.9060101215708 L 180.3030303030303 393.20516350985736 L 175.25252525252526 394.4509625001869 L 170.2020202020202 395.7504927465325 L 165.15151515151516 397.1421625200799 L 160.1010101010101 398.28800927712643 L 155.05050505050505 399.18400065324306 L 150 399.9982358405623" /><text  class="poloto_text" alignment-baseline="start" text-anchor="middle" font-size="x-large" x="400" y="37.5" >Bench of rebal:8_bytes with abspiral(num,1.5)</text><text  class="poloto_text" alignment-baseline="start" text-anchor="middle" font-size="x-large" x="400" y="481.25" >Number of Elements</text><text  class="poloto_text" alignment-baseline="start" text-anchor="middle" font-size="x-large" transform="rotate(-90,37.5,250)" x="37.5" y="250" >Time in Seconds</text><line  class="poloto_axis_lines" stroke="black" x1="150" x2="150" y1="400" y2="405" /><text  class="poloto_text" alignment-baseline="start" text-anchor="middle" x="150" y="430" > 0</text><line  class="poloto_axis_lines" stroke="black" x1="234.17508417508418" x2="234.17508417508418" y1="400" y2="405" /><text  class="poloto_text" alignment-baseline="start" text-anchor="middle" x="234.17508417508418" y="430" > 5000</text><line  class="poloto_axis_lines" stroke="black" x1="318.35016835016836" x2="318.35016835016836" y1="400" y2="405" /><text  class="poloto_text" alignment-baseline="start" text-anchor="middle" x="318.35016835016836" y="430" > 10000</text><line  class="poloto_axis_lines" stroke="black" x1="402.52525252525254" x2="402.52525252525254" y1="400" y2="405" /><text  class="poloto_text" alignment-baseline="start" text-anchor="middle" x="402.52525252525254" y="430" > 15000</text><line  class="poloto_axis_lines" stroke="black" x1="486.7003367003367" x2="486.7003367003367" y1="400" y2="405" /><text  class="poloto_text" alignment-baseline="start" text-anchor="middle" x="486.7003367003367" y="430" > 20000</text><line  class="poloto_axis_lines" stroke="black" x1="570.8754208754208" x2="570.8754208754208" y1="400" y2="405" /><text  class="poloto_text" alignment-baseline="start" text-anchor="middle" x="570.8754208754208" y="430" > 25000</text><line  class="poloto_axis_lines" stroke="black" x1="150" x2="144" y1="349.5993257886675" y2="349.5993257886675" /><text  class="poloto_text" alignment-baseline="middle" text-anchor="end" x="135" y="349.5993257886675" > 0.001</text><line  class="poloto_axis_lines" stroke="black" x1="150" x2="144" y1="299.19477042657206" y2="299.19477042657206" /><text  class="poloto_text" alignment-baseline="middle" text-anchor="end" x="135" y="299.19477042657206" > 0.002</text><line  class="poloto_axis_lines" stroke="black" x1="150" x2="144" y1="248.79021506447668" y2="248.79021506447668" /><text  class="poloto_text" alignment-baseline="middle" text-anchor="end" x="135" y="248.79021506447668" > 0.003</text><line  class="poloto_axis_lines" stroke="black" x1="150" x2="144" y1="198.3856597023813" y2="198.3856597023813" /><text  class="poloto_text" alignment-baseline="middle" text-anchor="end" x="135" y="198.3856597023813" > 0.004</text><line  class="poloto_axis_lines" stroke="black" x1="150" x2="144" y1="147.98110434028587" y2="147.98110434028587" /><text  class="poloto_text" alignment-baseline="middle" text-anchor="end" x="135" y="147.98110434028587" > 0.005</text><path  stroke="black" fill="none" class="poloto_axis_lines" style="stroke-dasharray:8.417508417508419;stroke-dashoffset:-0;" d=" M 150 400 L 650 400" /><path  stroke="black" fill="none" class="poloto_axis_lines" style="stroke-dasharray:5.0404555362095405;stroke-dashoffset:-50.40067421133252;" d=" M 150 400 L 150 100" /></svg>