<svg class="poloto" width="800" height="500" viewBox="0 0 800 500" xmlns="http://www.w3.org/2000/svg"><style>.poloto {
                    font-family: "Arial";
                    stroke-width:2;
                    }
                    .poloto_text{fill: var(--poloto_fg_color,black);  }
                    .poloto_axis_lines{stroke: var(--poloto_fg_color,black);stoke-width:3;fill:none}
                    .poloto_background{fill: var(--poloto_bg_color,aliceblue); }
                    .poloto0stroke{stroke:  var(--poloto_color0,blue); }
                    .poloto1stroke{stroke:  var(--poloto_color1,red); }
                    .poloto2stroke{stroke:  var(--poloto_color2,green); }
                    .poloto3stroke{stroke:  var(--poloto_color3,gold); }
                    .poloto4stroke{stroke:  var(--poloto_color4,aqua); }
                    .poloto5stroke{stroke:  var(--poloto_color5,brown); }
                    .poloto6stroke{stroke:  var(--poloto_color6,lime); }
                    .poloto7stroke{stroke:  var(--poloto_color7,chocolate); }
                    .poloto0fill{fill:var(--poloto_color0,blue);}
                    .poloto1fill{fill:var(--poloto_color1,red);}
                    .poloto2fill{fill:var(--poloto_color2,green);}
                    .poloto3fill{fill:var(--poloto_color3,gold);}
                    .poloto4fill{fill:var(--poloto_color4,aqua);}
                    .poloto5fill{fill:var(--poloto_color5,brown);}
                    .poloto6fill{fill:var(--poloto_color6,lime);}
                    .poloto7fill{fill:var(--poloto_color7,chocolate);}</style><rect class="poloto_background" fill="white" x="0" y="0" width="800" height="500"/><line class="poloto_axis_lines" stroke="black" x1="150" x2="150" y1="400" y2="405"/><text class="poloto_text" alignment-baseline="start" text-anchor="middle" x="150" y="430">0</text><line class="poloto_axis_lines" stroke="black" x1="234.17508417508418" x2="234.17508417508418" y1="400" y2="405"/><text class="poloto_text" alignment-baseline="start" text-anchor="middle" x="234.17508417508418" y="430">5000</text><line class="poloto_axis_lines" stroke="black" x1="318.35016835016836" x2="318.35016835016836" y1="400" y2="405"/><text class="poloto_text" alignment-baseline="start" text-anchor="middle" x="318.35016835016836" y="430">10000</text><line class="poloto_axis_lines" stroke="black" x1="402.52525252525254" x2="402.52525252525254" y1="400" y2="405"/><text class="poloto_text" alignment-baseline="start" text-anchor="middle" x="402.52525252525254" y="430">15000</text><line class="poloto_axis_lines" stroke="black" x1="486.7003367003367" x2="486.7003367003367" y1="400" y2="405"/><text class="poloto_text" alignment-baseline="start" text-anchor="middle" x="486.7003367003367" y="430">20000</text><line class="poloto_axis_lines" stroke="black" x1="570.8754208754208" x2="570.8754208754208" y1="400" y2="405"/><text class="poloto_text" alignment-baseline="start" text-anchor="middle" x="570.8754208754208" y="430">25000</text><line class="poloto_axis_lines" stroke="black" x1="150" x2="144" y1="341.43498900352296" y2="341.43498900352296"/><text class="poloto_text" alignment-baseline="middle" text-anchor="end" x="135" y="341.43498900352296">0.002</text><line class="poloto_axis_lines" stroke="black" x1="150" x2="144" y1="282.8652045696146" y2="282.8652045696146"/><text class="poloto_text" alignment-baseline="middle" text-anchor="end" x="135" y="282.8652045696146">0.004</text><line class="poloto_axis_lines" stroke="black" x1="150" x2="144" y1="224.2954201357062" y2="224.2954201357062"/><text class="poloto_text" alignment-baseline="middle" text-anchor="end" x="135" y="224.2954201357062">0.006</text><line class="poloto_axis_lines" stroke="black" x1="150" x2="144" y1="165.72563570179784" y2="165.72563570179784"/><text class="poloto_text" alignment-baseline="middle" text-anchor="end" x="135" y="165.72563570179784">0.008</text><line class="poloto_axis_lines" stroke="black" x1="150" x2="144" y1="107.15585126788937" y2="107.15585126788937"/><text class="poloto_text" alignment-baseline="middle" text-anchor="end" x="135" y="107.15585126788937">0.010</text><text class="poloto_text" alignment-baseline="middle" text-anchor="start" font-size="large" x="675" y="100">default_par</text><line class="poloto0stroke" stroke="black" x1="680" x2="730" y1="81.25" y2="81.25"/><polyline class="poloto0stroke" fill="none" stroke="black" points="650,356.07105100549677 644.9494949494949,366.97662772752165 639.8989898989898,365.84491306779745 634.8484848484848,366.7543846804872 629.7979797979798,366.8859909861102 624.7474747474747,364.8229581841024 619.6969696969697,366.3307494296767 614.6464646464647,365.05310815203546 609.5959595959596,367.4419060950646 604.5454545454545,363.71250435612774 599.4949494949494,367.4797128909167 594.4444444444445,367.80023603623124 589.3939393939394,367.1252485555227 584.3434343434344,369.3244268214471 579.2929292929293,369.65101193945054 574.2424242424242,365.68583753327493 569.1919191919192,369.4054581182114 564.1414141414141,369.74012586646677 559.090909090909,370.0293727468936 554.040404040404,373.7890257794906 548.989898989899,369.4894471890896 543.939393939394,371.82948578657755 538.8888888888889,370.95960734816515 533.8383838383838,368.1511276147748 528.7878787878788,371.8335856714879 523.7373737373737,370.4218488723852 518.6868686868687,370.671531863427 513.6363636363636,373.36998825675823 508.5858585858586,373.750340436872 503.5353535353535,373.6848594178749 498.4848484848485,374.90609799310636 493.4343434343434,375.8838326895538 488.3838383838384,373.15436359536477 483.3333333333333,373.79681556082033 478.2828282828283,376.8537776046715 473.2323232323232,377.734872156803 468.1818181818182,377.3591177047673 463.1313131313131,377.64944812620615 458.0808080808081,376.9994406585587 453.030303030303,378.3128973593813 447.979797979798,376.1203081942057 442.9292929292929,373.04108963226963 437.8787878787879,381.41284962500697 432.8282828282828,379.43494800467386 427.77777777777777,379.0048700775757 422.72727272727275,379.30624090338034 417.67676767676767,377.4751151628386 412.62626262626264,378.6618561350385 407.57575757575756,380.2007479361472 402.52525252525254,379.23592787716746 397.47474747474746,380.2151853880102 392.4242424242424,379.46745423503467 387.37373737373736,380.3053828560384 382.32323232323233,382.3897057746879 377.27272727272725,382.35184040905136 372.22222222222223,382.5192621378557 367.1717171717172,382.1313544555499 362.1212121212121,384.1773141653952 357.07070707070704,383.63085807662685 352.020202020202,383.51506561280104 346.969696969697,384.85774863605616 341.9191919191919,382.2310109437642 336.86868686868684,385.51583873395555 331.8181818181818,386.0809785839583 326.7676767676768,385.22120343336076 321.7171717171717,385.195989141162 316.66666666666663,386.7347052329174 311.6161616161616,385.71503457081525 306.5656565656566,386.1354777683741 301.5151515151515,387.920333379213 296.4646464646464,387.4283764748604 291.4141414141414,386.2332600234865 286.3636363636364,388.0578259481716 281.3131313131313,388.3219171061841 276.26262626262627,390.4900826712507 271.2121212121212,390.4965839173229 266.16161616161617,390.77976882506084 261.1111111111111,390.53723134772 256.06060606060606,392.1653249305216 251.010101010101,391.05885384788843 245.95959595959596,390.5953618587707 240.9090909090909,392.4475727217086 235.85858585858585,392.53091752495806 230.8080808080808,393.9211592131735 225.75757575757575,391.95866144614655 220.7070707070707,389.1777973661168 215.65656565656565,387.6736081622852 210.6060606060606,388.46954224784974 205.55555555555554,390.56525698957165 200.50505050505052,389.71666866780095 195.45454545454544,389.99592939998183 190.40404040404042,393.15544713637684 185.35353535353534,394.59769879316957 180.3030303030303,395.7254307075523 175.25252525252526,396.3120949533345 170.2020202020202,397.07306287759206 165.15151515151516,398.00801234651055 160.1010101010101,398.6406831579656 155.05050505050505,399.3945641383067 150,399.9993850172634 "/><text class="poloto_text" alignment-baseline="middle" text-anchor="start" font-size="large" x="675" y="150">default_seq</text><line class="poloto1stroke" stroke="black" x1="680" x2="730" y1="131.25" y2="131.25"/><polyline class="poloto1stroke" fill="none" stroke="black" points="650,307.6406333736489 644.9494949494949,309.2288116483587 639.8989898989898,307.84384124074234 634.8484848484848,310.6969511498713 629.7979797979798,310.38266568659895 624.7474747474747,310.9802824820703 619.6969696969697,312.79743932902454 614.6464646464647,313.11939743405776 609.5959595959596,314.3886925174172 604.5454545454545,314.9513724364738 599.4949494949494,315.7218286658096 594.4444444444445,316.02138382829685 589.3939393939394,317.8041016420039 584.3434343434344,317.90923440506276 579.2929292929293,320.0860390133334 574.2424242424242,321.34979925206386 569.1919191919192,320.92988318256494 564.1414141414141,321.2044583319911 559.090909090909,323.6696019890299 554.040404040404,324.6588749330108 548.989898989899,324.6874277029224 543.939393939394,325.60310771276204 538.8888888888889,327.29928866996806 533.8383838383838,327.2583191057565 528.7878787878788,328.3609538675093 523.7373737373737,328.05498531362656 518.6868686868687,330.2607526802998 513.6363636363636,330.20806915920144 508.5858585858586,332.0946897704943 503.5353535353535,333.1897983149473 498.4848484848485,333.7025767776662 493.4343434343434,334.0805275966182 488.3838383838384,335.7400731536608 483.3333333333333,336.1403390604821 478.2828282828283,337.94516696781295 473.2323232323232,338.9392719190097 468.1818181818182,338.8411382451907 463.1313131313131,340.4808579302024 458.0808080808081,339.6677921826909 453.030303030303,341.7858805820665 447.979797979798,343.46531058092444 442.9292929292929,343.87942824176434 437.8787878787879,344.77446240259115 432.8282828282828,344.983673672589 427.77777777777777,346.6158964251932 422.72727272727275,351.61040550790256 417.67676767676767,352.58374747051744 412.62626262626264,353.6739947228624 407.57575757575756,354.1280569766863 402.52525252525254,354.619076764488 397.47474747474746,355.6370489028415 392.4242424242424,356.4547416633233 387.37373737373736,357.8199447686933 382.32323232323233,358.45068277726205 377.27272727272725,359.3629950244968 372.22222222222223,359.64708776389347 367.1717171717172,361.07352557888913 362.1212121212121,361.425412843768 357.07070707070704,362.6716607169527 352.020202020202,363.5557716129826 346.969696969697,364.17631847905983 341.9191919191919,364.64801023799834 336.86868686868684,365.8037092244482 331.8181818181818,367.1533913369432 326.7676767676768,367.26607960219405 321.7171717171717,368.950517317621 316.66666666666663,369.6607345236666 311.6161616161616,370.33812336553694 306.5656565656566,371.45033428704465 301.5151515151515,372.0837665056974 296.4646464646464,373.1656089939761 291.4141414141414,374.0009605444647 286.3636363636364,378.02769179408034 281.3131313131313,378.5913673994723 276.26262626262627,379.1510602595227 271.2121212121212,380.3311242762971 266.16161616161617,380.7985404409719 261.1111111111111,382.0964175791351 256.06060606060606,382.55288119412074 251.010101010101,383.42287677210203 245.95959595959596,383.71218222231334 240.9090909090909,384.6723752683228 235.85858585858585,385.4749863093129 230.8080808080808,386.15325369794976 225.75757575757575,387.4418768101724 220.7070707070707,387.81279925499234 215.65656565656565,389.7552954406351 210.6060606060606,390.4554679286503 205.55555555555554,391.2248113320819 200.50505050505052,391.80734640806156 195.45454545454544,392.49779631186067 190.40404040404042,393.4111628152153 185.35353535353534,394.25324989091376 180.3030303030303,395.5741449543595 175.25252525252526,396.2923862208725 170.2020202020202,396.9029469387038 165.15151515151516,397.8487025328503 160.1010101010101,398.57540713321407 155.05050505050505,399.32047336099777 150,400 "/><text class="poloto_text" alignment-baseline="middle" text-anchor="start" font-size="large" x="675" y="200">direct_par</text><line class="poloto2stroke" stroke="black" x1="680" x2="730" y1="181.25" y2="181.25"/><polyline class="poloto2stroke" fill="none" stroke="black" points="650,257.6888070213457 644.9494949494949,279.71699080161534 639.8989898989898,302.1826030169296 634.8484848484848,296.01265693041614 629.7979797979798,299.8177894006261 624.7474747474747,299.93926313354206 619.6969696969697,303.69537269418083 614.6464646464647,298.53411543518814 609.5959595959596,298.71032263165756 604.5454545454545,302.83890673640377 599.4949494949494,306.229277278145 594.4444444444445,304.6239673414882 589.3939393939394,307.34573450902417 584.3434343434344,277.5815950309395 579.2929292929293,306.45149104028724 574.2424242424242,304.58504771973185 569.1919191919192,312.3573459687882 564.1414141414141,312.6118609670457 559.090909090909,314.15107490196885 554.040404040404,318.9626998327833 548.989898989899,317.48296351395277 543.939393939394,315.12564683005684 538.8888888888889,314.29776292708357 533.8383838383838,322.4665786167574 528.7878787878788,319.51937634893534 523.7373737373737,314.443338126294 518.6868686868687,324.1800669452636 513.6363636363636,321.5249229075213 508.5858585858586,325.2641936551353 503.5353535353535,326.2953439949864 498.4848484848485,326.0854591724675 493.4343434343434,327.6025337288746 488.3838383838384,327.5883012712572 483.3333333333333,334.33940604381604 478.2828282828283,330.6695990605407 473.2323232323232,325.5372167052739 468.1818181818182,336.2806429790935 463.1313131313131,329.0343892489304 458.0808080808081,337.8189197974657 453.030303030303,337.18636612557947 447.979797979798,335.2415271485593 442.9292929292929,334.2621232132555 437.8787878787879,335.8459673239173 432.8282828282828,341.479267760555 427.77777777777777,338.74265315266507 422.72727272727275,340.28699194372615 417.67676767676767,341.59954081289004 412.62626262626264,346.0614748457418 407.57575757575756,343.3605878063566 402.52525252525254,347.81063217296827 397.47474747474746,341.1129723287053 392.4242424242424,348.5062362177976 387.37373737373736,351.3743107068494 382.32323232323233,353.90912312247235 377.27272727272725,352.1143399331719 372.22222222222223,354.88056156709314 367.1717171717172,349.62957539834775 362.1212121212121,355.0554216585206 357.07070707070704,358.87423017339586 352.020202020202,353.8381658286307 346.969696969697,356.44903110934104 341.9191919191919,360.6011309825374 336.86868686868684,360.8673306527895 331.8181818181818,362.2725954907123 326.7676767676768,361.1280540481971 321.7171717171717,363.70822876186406 316.66666666666663,363.3449496739127 311.6161616161616,364.85807076987055 306.5656565656566,368.1092795037968 301.5151515151515,365.10892515660095 296.4646464646464,367.3605233795937 291.4141414141414,369.31745701709946 286.3636363636364,372.5259976630656 281.3131313131313,371.4561326957036 276.26262626262627,370.3121183812483 271.2121212121212,375.33453596624037 266.16161616161617,374.15801542142424 261.1111111111111,377.37068523719296 256.06060606060606,378.05407748196785 251.010101010101,380.17398154466093 245.95959595959596,381.25588260272406 240.9090909090909,378.790153247841 235.85858585858585,376.79541281448314 230.8080808080808,377.7501588705403 225.75757575757575,381.4065826580725 220.7070707070707,383.84033291065475 215.65656565656565,382.2916306706533 210.6060606060606,382.54766848330615 205.55555555555554,384.2672480693935 200.50505050505052,383.4164048109221 195.45454545454544,385.618892269667 190.40404040404042,385.9993615893497 185.35353535353534,388.21889285536486 180.3030303030303,389.0273901596905 175.25252525252526,390.59615255086055 170.2020202020202,392.5378873293057 165.15151515151516,395.12052197391887 160.1010101010101,396.7981363094593 155.05050505050505,398.51642736028913 150,399.99698365610163 "/><text class="poloto_text" alignment-baseline="middle" text-anchor="start" font-size="large" x="675" y="250">direct_seq</text><line class="poloto3stroke" stroke="black" x1="680" x2="730" y1="231.25" y2="231.25"/><polyline class="poloto3stroke" fill="none" stroke="black" points="650,100 644.9494949494949,117.72178180998202 639.8989898989898,114.75264515788945 634.8484848484848,121.3326675901169 629.7979797979798,121.6377868821254 624.7474747474747,121.40336131992865 619.6969696969697,129.21756624974745 614.6464646464647,130.6368585510421 609.5959595959596,134.92533816729286 604.5454545454545,135.99218679075648 599.4949494949494,138.9890855206707 594.4444444444445,139.19173697481204 589.3939393939394,146.40797369045282 584.3434343434344,145.5221935555666 579.2929292929293,153.18971046027062 574.2424242424242,156.85673537878543 569.1919191919192,158.5074368983785 564.1414141414141,158.7419503152518 559.090909090909,167.30652203834563 554.040404040404,169.54822196776902 548.989898989899,171.23321609614817 543.939393939394,172.8607239811054 538.8888888888889,177.970410544904 533.8383838383838,177.55749356464494 528.7878787878788,177.83892137884988 523.7373737373737,180.0747936147221 518.6868686868687,186.66401150310566 513.6363636363636,187.17418361041723 508.5858585858586,192.61361806057874 503.5353535353535,197.05306129620791 498.4848484848485,196.6975719895863 493.4343434343434,199.57803398804592 488.3838383838384,205.4333431925804 483.3333333333333,204.57734579307882 478.2828282828283,211.47531430010574 473.2323232323232,215.0956591004267 468.1818181818182,214.7458803477874 463.1313131313131,219.24690971174883 458.0808080808081,218.90099656488215 453.030303030303,223.8055717435932 447.979797979798,228.1225455599711 442.9292929292929,231.7063720996975 437.8787878787879,232.99402881047695 432.8282828282828,235.87431509958327 427.77777777777777,240.2528457594012 422.72727272727275,254.63685269406366 417.67676767676767,257.6833893162856 412.62626262626264,260.56991328743413 407.57575757575756,262.6086689137941 402.52525252525254,264.5018200560513 397.47474747474746,268.3258705666334 392.4242424242424,269.342642024406 387.37373737373736,274.19388941439 382.32323232323233,275.9681731791386 377.27272727272725,278.8664696769584 372.22222222222223,280.48135577337007 367.1717171717172,284.9633792422827 362.1212121212121,285.82365223604796 357.07070707070704,288.78110421614593 352.020202020202,292.13378510160396 346.969696969697,295.43846804871833 341.9191919191919,296.87975330406795 336.86868686868684,299.18731495608733 331.8181818181818,303.8029068184014 326.7676767676768,303.7747933218732 321.7171717171717,308.6585176573258 316.66666666666663,311.2655759020479 311.6161616161616,314.03824021225694 306.5656565656566,316.8180500361668 301.5151515151515,319.2751989176304 296.4646464646464,323.0498750999347 291.4141414141414,324.88972773835707 286.3636363636364,332.52722762853875 281.3131313131313,335.4295947263766 276.26262626262627,338.01389860984614 271.2121212121212,341.1166915100169 266.16161616161617,343.130496408208 261.1111111111111,346.8658136953727 256.06060606060606,348.738055424587 251.010101010101,351.13634167269447 245.95959595959596,352.3314581240684 240.9090909090909,355.07246546579086 235.85858585858585,357.76172640296596 230.8080808080808,360.97187771800407 225.75757575757575,364.0095703027765 220.7070707070707,365.0030602712367 215.65656565656565,370.7350800795378 210.6060606060606,373.1793728933181 205.55555555555554,375.36519724839155 200.50505050505052,377.4252722762854 195.45454545454544,379.17633312150593 190.40404040404042,382.0494153271269 185.35353535353534,384.40198785848366 180.3030303030303,387.5619448682619 175.25252525252526,389.8644109490355 170.2020202020202,391.72918503073447 165.15151515151516,394.25439200171024 160.1010101010101,396.4240218113877 155.05050505050505,398.21684291290967 150,399.98919387477196 "/><text class="poloto_text" alignment-baseline="middle" text-anchor="start" font-size="large" x="675" y="300">indirect_par</text><line class="poloto4stroke" stroke="black" x1="680" x2="730" y1="281.25" y2="281.25"/><polyline class="poloto4stroke" fill="none" stroke="black" points="650,341.65055509513195 644.9494949494949,362.5018376269866 639.8989898989898,354.2294119886492 634.8484848484848,357.3665560673904 629.7979797979798,360.0343511785705 624.7474747474747,357.9836766010783 619.6969696969697,359.5288060842292 614.6464646464647,360.46943682223775 609.5959595959596,357.9698541319519 604.5454545454545,363.37417599634523 599.4949494949494,358.66832809621843 594.4444444444445,359.64720490346235 589.3939393939394,358.1898129573934 584.3434343434344,363.118489602399 579.2929292929293,359.74030157582007 574.2424242424242,358.67884137252435 569.1919191919192,365.23499661759496 564.1414141414141,357.8631692696055 559.090909090909,365.2932442682145 554.040404040404,366.7559367797747 548.989898989899,363.4287044656532 543.939393939394,367.31888026286117 538.8888888888889,365.3646408354394 533.8383838383838,367.1953858723823 528.7878787878788,364.87739879873374 523.7373737373737,363.78056244563993 518.6868686868687,366.4937198548641 513.6363636363636,366.92499846254316 508.5858585858586,365.53197470956707 503.5353535353535,367.2438230841091 498.4848484848485,369.0472746015058 493.4343434343434,365.8512678894085 488.3838383838384,369.8311140265848 483.3333333333333,368.17801114583 478.2828282828283,370.92021916813337 473.2323232323232,367.7558108547382 468.1818181818182,369.3871550605758 463.1313131313131,371.23576388177105 458.0808080808081,373.99601139768004 453.030303030303,370.07903992409354 447.979797979798,370.3744659167782 442.9292929292929,370.3647726174544 437.8787878787879,372.3263625528226 432.8282828282828,374.84600539427714 427.77777777777777,374.6184910666436 422.72727272727275,377.1955322968434 417.67676767676767,377.5586942452258 412.62626262626264,378.4300954980335 407.57575757575756,377.64938955642174 402.52525252525254,378.6887396660937 397.47474747474746,376.5707684062869 392.4242424242424,377.9641728628618 387.37373737373736,377.09338659279064 382.32323232323233,377.25304782515747 377.27272727272725,378.2813868153558 372.22222222222223,379.78009974434286 367.1717171717172,378.48509252561695 362.1212121212121,378.58044413467536 357.07070707070704,375.91103835442334 352.020202020202,378.59186524264 346.969696969697,376.786217358327 341.9191919191919,379.05799287205724 336.86868686868684,382.0254310004012 331.8181818181818,384.5935110535826 326.7676767676768,382.89425518269377 321.7171717171717,383.82735970340264 316.66666666666663,383.89787772386103 311.6161616161616,385.412228785292 306.5656565656566,385.31842927552105 301.5151515151515,386.5701534235503 296.4646464646464,385.25514462344023 291.4141414141414,385.1200827005356 286.3636363636364,386.97513419801857 281.3131313131313,384.22165149221166 276.26262626262627,389.53820653463083 271.2121212121212,390.0999493371365 266.16161616161617,386.18684346932264 261.1111111111111,387.20789052135893 256.06060606060606,391.50088001101113 251.010101010101,390.91231224723475 245.95959595959596,389.9861482459814 240.9090909090909,390.35250224761546 235.85858585858585,393.0151725026576 230.8080808080808,393.7216998122838 225.75757575757575,393.0795406957505 220.7070707070707,389.3776081857131 215.65656565656565,387.51898393137964 210.6060606060606,389.77784480764217 205.55555555555554,388.5283755963136 200.50505050505052,390.0367818246245 195.45454545454544,390.23650478954414 190.40404040404042,389.9546084170637 185.35353535353534,393.51837480562153 180.3030303030303,396.0502001622383 175.25252525252526,396.6389143504757 170.2020202020202,397.36977740553425 165.15151515151516,398.1993012624717 160.1010101010101,398.82910215448953 155.05050505050505,399.4591373256451 150,399.9990921683413 "/><text class="poloto_text" alignment-baseline="middle" text-anchor="start" font-size="large" x="675" y="350">indirect_seq</text><line class="poloto5stroke" stroke="black" x1="680" x2="730" y1="331.25" y2="331.25"/><polyline class="poloto5stroke" fill="none" stroke="black" points="650,298.25359545264195 644.9494949494949,295.5116217094763 639.8989898989898,291.61591106763933 634.8484848484848,298.17057278320686 629.7979797979798,301.82740655923016 624.7474747474747,299.19205910862644 619.6969696969697,300.4873884611668 614.6464646464647,298.76490967074994 609.5959595959596,302.42350054030624 604.5454545454545,302.9558998808105 599.4949494949494,304.5870098075104 594.4444444444445,304.54422457998146 589.3939393939394,307.6734031680396 584.3434343434344,306.3414677002281 579.2929292929293,309.71312519584274 574.2424242424242,314.8351406992647 569.1919191919192,314.65861136898087 564.1414141414141,314.87362104763776 559.090909090909,317.9210362166262 554.040404040404,319.1923226726564 548.989898989899,319.0472746015058 543.939393939394,315.8292456504614 538.8888888888889,318.0081002011872 533.8383838383838,318.3789933611149 528.7878787878788,319.76935218889923 523.7373737373737,319.5905679219148 518.6868686868687,321.6862826636367 513.6363636363636,321.8200560512837 508.5858585858586,323.81315653067736 503.5353535353535,325.2069416908511 498.4848484848485,325.13636510060826 493.4343434343434,329.89226088153384 488.3838383838384,328.35266624301187 483.3333333333333,331.2774362833958 478.2828282828283,330.5788451795603 473.2323232323232,332.37392121778294 468.1818181818182,331.8667654543697 463.1313131313131,336.7020232932033 458.0808080808081,332.7762663519517 453.030303030303,335.57988479323404 447.979797979798,337.20086214722687 442.9292929292929,337.9071844626076 437.8787878787879,339.43310305646423 432.8282828282828,339.48622585094574 427.77777777777777,343.3763430783693 422.72727272727275,348.54916786978765 417.67676767676767,349.80710041496695 412.62626262626264,348.74921296852165 407.57575757575756,349.25282525997665 402.52525252525254,350.38044003479047 397.47474747474746,351.1501348569287 392.4242424242424,351.81127058361864 387.37373737373736,353.6348993917528 382.32323232323233,354.56595397000643 377.27272727272725,355.8482515455102 372.22222222222223,356.30415874754374 367.1717171717172,357.70980428906535 362.1212121212121,358.43185259156655 357.07070707070704,359.74803278736533 352.020202020202,360.7054730535064 346.969696969697,361.7585284927359 341.9191919191919,362.4218898712343 336.86868686868684,363.4882406515303 331.8181818181818,364.9780509732834 326.7676767676768,365.5112995756619 321.7171717171717,367.01663089029 316.66666666666663,367.83974135583196 311.6161616161616,368.9278508110451 306.5656565656566,370.8969669637131 301.5151515151515,370.8311638109016 296.4646464646464,372.15425524126357 291.4141414141414,372.9642753599845 286.3636363636364,375.70932401683297 281.3131313131313,376.89363434297877 276.26262626262627,378.4611960535679 271.2121212121212,379.5261411590375 266.16161616161617,379.5552210570089 261.1111111111111,381.0670536177092 256.06060606060606,381.64900299584446 251.010101010101,382.9978651313574 245.95959595959596,383.00805627384887 240.9090909090909,384.0839832138998 235.85858585858585,384.82339745748567 230.8080808080808,386.4585194144193 225.75757575757575,387.51807609972093 220.7070707070707,387.92642463679414 215.65656565656565,390.0338240505106 210.6060606060606,390.3149297309011 205.55555555555554,391.6276543094183 200.50505050505052,392.13601075341245 195.45454545454544,392.9338483569711 190.40404040404042,393.8042246385512 185.35353535353534,394.64686812720186 180.3030303030303,395.86614461465473 175.25252525252526,396.58221879914373 170.2020202020202,397.1824419500224 165.15151515151516,398.08886793392156 160.1010101010101,398.74616733973113 155.05050505050505,399.3950619814744 150,399.9982136215748 "/><text class="poloto_text" alignment-baseline="start" text-anchor="middle" font-size="x-large" x="400" y="37.5">Bench of rebal:128_bytes with abspiral(num,1.5)</text><text class="poloto_text" alignment-baseline="start" text-anchor="middle" font-size="x-large" x="400" y="481.25">Number of Elements</text><text class="poloto_text" alignment-baseline="start" text-anchor="middle" font-size="x-large" transform="rotate(-90,37.5,250)" x="37.5" y="250">Time in Seconds</text><path stroke="black" fill="none" class="poloto_axis_lines" d=" M 150 100 L 150 400 L 650 400"/></svg>