<svg class="poloto" width="800" height="500" viewBox="0 0 800 500" xmlns="http://www.w3.org/2000/svg"><text  class="poloto_text poloto_legend_text" alignment-baseline="middle" text-anchor="start" font-size="large" x="675" y="100" >default_par</text><line  class="poloto_line poloto_legend_icon poloto0stroke poloto0legend" stroke="black" x1="680" x2="730" y1="81.25" y2="81.25" /><path  class="poloto_line poloto0stroke" fill="none" stroke="black" d=" M 650 277.64835299784744 L 644.9494949494949 277.3207600364261 L 639.8989898989898 282.6089475773428 L 634.8484848484848 280.88735489439273 L 629.7979797979798 269.0297523248463 L 624.7474747474747 274.68955205035314 L 619.6969696969697 285.8463928019489 L 614.6464646464647 263.0762604934823 L 609.5959595959596 291.9712050283963 L 604.5454545454545 291.9038357261399 L 599.4949494949494 294.0269632876219 L 594.4444444444445 311.4552028732705 L 589.3939393939394 294.97860873310253 L 584.3434343434344 296.764111447333 L 579.2929292929293 291.8534168516656 L 574.2424242424242 296.68515358730724 L 569.1919191919192 296.1957532259864 L 564.1414141414141 297.64190145747733 L 559.090909090909 300.7220363344527 L 554.040404040404 301.6007776441154 L 548.989898989899 294.7061911437474 L 543.939393939394 306.82540108084925 L 538.8888888888889 301.9747248366143 L 533.8383838383838 300.35760213713763 L 528.7878787878788 305.42949876028376 L 523.7373737373737 304.35945976565165 L 518.6868686868687 308.55071248009835 L 513.6363636363636 311.08125568077156 L 508.5858585858586 315.13621311876625 L 503.5353535353535 312.7524294892473 L 498.4848484848485 314.7784380180799 L 493.4343434343434 318.6273958694575 L 488.3838383838384 316.6015603041737 L 483.3333333333333 319.38774362996867 L 478.2828282828283 318.09319794899824 L 473.2323232323232 319.2400327592961 L 468.1818181818182 313.65417495089997 L 463.1313131313131 322.1447825977914 L 458.0808080808081 321.74177752909463 L 453.030303030303 315.2569416758265 L 447.979797979798 326.54194841708085 L 442.9292929292929 325.0420950036885 L 437.8787878787879 322.4210053852201 L 432.8282828282828 325.6367436844522 L 427.77777777777777 326.23312200070393 L 422.72727272727275 320.5740141293923 L 417.67676767676767 318.25318923163536 L 412.62626262626264 321.36108475819265 L 407.57575757575756 322.62709145361157 L 402.52525252525254 324.77547169321804 L 397.47474747474746 326.24479704024776 L 392.4242424242424 327.80146897941995 L 387.37373737373736 330.49217642627906 L 382.32323232323233 332.1072235631702 L 377.27272727272725 334.9809264446564 L 372.22222222222223 330.17842054876144 L 367.1717171717172 332.4296276181276 L 362.1212121212121 330.2459628145666 L 357.07070707070704 340.23365645806973 L 352.020202020202 340.15530397046473 L 346.969696969697 341.2252564833224 L 341.9191919191919 337.7228311019594 L 336.86868686868684 339.0049234074165 L 331.8181818181818 344.5375949245576 L 326.7676767676768 346.00726619868493 L 321.7171717171717 349.2326039748753 L 316.66666666666663 347.3677974735214 L 311.6161616161616 350.4545049653511 L 306.5656565656566 354.15557898250734 L 301.5151515151515 352.86051441089046 L 296.4646464646464 355.2878848547063 L 291.4141414141414 355.50054353795207 L 286.3636363636364 345.01359061084673 L 281.3131313131313 357.81730379231226 L 276.26262626262627 358.4469775917074 L 271.2121212121212 363.01243694397624 L 266.16161616161617 363.751423706211 L 261.1111111111111 364.0050747505217 L 256.06060606060606 364.1109284423854 L 251.010101010101 360.977174865283 L 245.95959595959596 365.55742260097395 L 240.9090909090909 368.2471787483147 L 235.85858585858585 371.351615003896 L 230.8080808080808 372.53987458413076 L 225.75757575757575 374.1159184407682 L 220.7070707070707 374.32935545998356 L 215.65656565656565 373.73470677921983 L 210.6060606060606 376.7181550324177 L 205.55555555555554 379.82466685058455 L 200.50505050505052 381.6899922425848 L 195.45454545454544 382.4800032517147 L 190.40404040404042 384.43111856391823 L 185.35353535353534 386.4243505002538 L 180.3030303030303 382.60220199893973 L 175.25252525252526 385.642382296143 L 170.2020202020202 388.9515209117255 L 165.15151515151516 391.42948319356435 L 160.1010101010101 394.99452137959184 L 155.05050505050505 397.4602897312406 L 150 399.99385979401774" /><text  class="poloto_text poloto_legend_text" alignment-baseline="middle" text-anchor="start" font-size="large" x="675" y="150" >default_seq</text><line  class="poloto_line poloto_legend_icon poloto1stroke poloto1legend" stroke="black" x1="680" x2="730" y1="131.25" y2="131.25" /><path  class="poloto_line poloto1stroke" fill="none" stroke="black" d=" M 650 100 L 644.9494949494949 107.53904868318523 L 639.8989898989898 133.62039516981991 L 634.8484848484848 140.1119766014911 L 629.7979797979798 118.53148758164957 L 624.7474747474747 121.47437588265456 L 619.6969696969697 134.04943125261065 L 614.6464646464647 131.6410867991625 L 609.5959595959596 145.21889834326862 L 604.5454545454545 162.45713747056374 L 599.4949494949494 137.88844369993245 L 594.4444444444445 167.4267261545965 L 589.3939393939394 148.86436457948668 L 584.3434343434344 156.81178020138142 L 579.2929292929293 153.55340638737087 L 574.2424242424242 152.01671173808472 L 569.1919191919192 177.65432024028092 L 564.1414141414141 172.26762995832442 L 559.090909090909 166.370264798545 L 554.040404040404 169.1852465552147 L 548.989898989899 193.9400491043515 L 543.939393939394 181.375976919744 L 538.8888888888889 179.20571679121483 L 533.8383838383838 179.35576266979612 L 528.7878787878788 175.96974175677346 L 523.7373737373737 205.40208403779943 L 518.6868686868687 194.77062006567422 L 513.6363636363636 196.3991583593715 L 508.5858585858586 198.98764434889165 L 503.5353535353535 203.30576582638088 L 498.4848484848485 220.0133527859671 L 493.4343434343434 223.4149404183815 L 488.3838383838384 196.01275779135923 L 483.3333333333333 216.26661639192847 L 478.2828282828283 215.8052361255127 L 473.2323232323232 218.9998728717916 L 468.1818181818182 224.02178302933547 L 463.1313131313131 225.84620254204526 L 458.0808080808081 226.3913836478531 L 453.030303030303 232.83929178345306 L 447.979797979798 231.36970699110014 L 442.9292929292929 239.01962530906422 L 437.8787878787879 243.0104132704553 L 432.8282828282828 241.11092757756765 L 427.77777777777777 245.2206279787566 L 422.72727272727275 242.19004715851156 L 417.67676767676767 238.24535398287486 L 412.62626262626264 257.72286569466917 L 407.57575757575756 246.49208302596267 L 402.52525252525254 254.5441415948796 L 397.47474747474746 259.9362802286232 L 392.4242424242424 263.22855489819796 L 387.37373737373736 269.35388601529166 L 382.32323232323233 273.1529438828414 L 377.27272727272725 277.0241275502394 L 372.22222222222223 275.5908651031338 L 367.1717171717172 276.89976675865444 L 362.1212121212121 280.2589783216136 L 357.07070707070704 287.51332900347916 L 352.020202020202 286.9353713051743 L 346.969696969697 291.11719750621154 L 341.9191919191919 291.7017278193707 L 336.86868686868684 290.12732711644685 L 331.8181818181818 286.74519788327206 L 326.7676767676768 302.9251595372533 L 321.7171717171717 296.96016562989433 L 316.66666666666663 298.14894410077545 L 311.6161616161616 307.13154656221974 L 306.5656565656566 313.797648214627 L 301.5151515151515 311.50908101872074 L 296.4646464646464 309.0167627623316 L 291.4141414141414 318.3483191834737 L 286.3636363636364 326.3714063579671 L 281.3131313131313 319.7567613613269 L 276.26262626262627 329.70181949005155 L 271.2121212121212 336.18060161911177 L 266.16161616161617 334.3919855610029 L 261.1111111111111 332.08741923683294 L 256.06060606060606 342.2487682833281 L 251.010101010101 346.75187427625565 L 245.95959595959596 348.85000860493653 L 240.9090909090909 353.1450394486614 L 235.85858585858585 355.13273655143547 L 230.8080808080808 354.149438776525 L 225.75757575757575 356.81887170688213 L 220.7070707070707 363.08447626205015 L 215.65656565656565 364.4026314674314 L 210.6060606060606 366.79964680843335 L 205.55555555555554 367.4288017171821 L 200.50505050505052 371.3692572858733 L 195.45454545454544 374.3168156026958 L 190.40404040404042 377.80704705386864 L 185.35353535353534 380.8180829930996 L 180.3030303030303 382.2618962166818 L 175.25252525252526 385.8231292046358 L 170.2020202020202 388.7372190747661 L 165.15151515151516 390.97156219812456 L 160.1010101010101 394.71596358425444 L 155.05050505050505 397.357722346804 L 150 399.9939462757921" /><text  class="poloto_text poloto_legend_text" alignment-baseline="middle" text-anchor="start" font-size="large" x="675" y="200" >direct_par</text><line  class="poloto_line poloto_legend_icon poloto2stroke poloto2legend" stroke="black" x1="680" x2="730" y1="181.25" y2="181.25" /><path  class="poloto_line poloto2stroke" fill="none" stroke="black" d=" M 650 283.278143547638 L 644.9494949494949 288.0686284768916 L 639.8989898989898 280.7035811237961 L 634.8484848484848 286.838511717848 L 629.7979797979798 286.81446978456523 L 624.7474747474747 289.74568304602644 L 619.6969696969697 277.89439364601105 L 614.6464646464647 292.8641293490603 L 609.5959595959596 277.6629684177208 L 604.5454545454545 293.71372630075075 L 599.4949494949494 281.4018349702892 L 594.4444444444445 291.8452010830977 L 589.3939393939394 313.4663365369065 L 584.3434343434344 298.1350205350973 L 579.2929292929293 302.39286421583085 L 574.2424242424242 294.0762578990291 L 569.1919191919192 303.1495797418173 L 564.1414141414141 303.1662707242762 L 559.090909090909 296.9950177849769 L 554.040404040404 303.99744705801976 L 548.989898989899 301.0866434953166 L 543.939393939394 306.2717447611503 L 538.8888888888889 298.8427008949999 L 533.8383838383838 307.89284562224935 L 528.7878787878788 314.9074688254824 L 523.7373737373737 315.81561393844055 L 518.6868686868687 316.2208675332717 L 513.6363636363636 317.02004561048784 L 508.5858585858586 315.0186843873588 L 503.5353535353535 317.9139212306702 L 498.4848484848485 316.69072301357846 L 493.4343434343434 319.9181363523544 L 488.3838383838384 313.95599634355057 L 483.3333333333333 322.0714460531015 L 478.2828282828283 325.5883138907891 L 473.2323232323232 323.13785281320884 L 468.1818181818182 313.37440641072095 L 463.1313131313131 323.0118488679103 L 458.0808080808081 326.4604825855975 L 453.030303030303 327.7761298195212 L 447.979797979798 325.5981728130705 L 442.9292929292929 329.6227751482514 L 437.8787878787879 330.91498582131305 L 432.8282828282828 331.35578342542203 L 427.77777777777777 332.57240902765943 L 422.72727272727275 321.9473447068398 L 417.67676767676767 324.43170663998416 L 412.62626262626264 326.4482886554073 L 407.57575757575756 328.2071549831231 L 402.52525252525254 330.7238610998925 L 397.47474747474746 329.5516006479214 L 392.4242424242424 330.5502056969004 L 387.37373737373736 332.1691445136395 L 382.32323232323233 336.78536866748016 L 377.27272727272725 334.68576414863446 L 372.22222222222223 339.13066790739185 L 367.1717171717172 332.3209200277088 L 362.1212121212121 337.14392210413615 L 357.07070707070704 338.84225118977304 L 352.020202020202 343.1941005592776 L 346.969696969697 344.43182771446834 L 341.9191919191919 345.6889267871243 L 336.86868686868684 343.65859416957176 L 331.8181818181818 342.0413849883206 L 326.7676767676768 347.1004823088558 L 321.7171717171717 349.3271285542928 L 316.66666666666663 351.32710606903146 L 311.6161616161616 351.87496810984567 L 306.5656565656566 353.5503795252669 L 301.5151515151515 355.96045361420306 L 296.4646464646464 357.2186769499262 L 291.4141414141414 359.1714354158433 L 286.3636363636364 357.98879715094444 L 281.3131313131313 361.01617814553674 L 276.26262626262627 361.78093647654225 L 271.2121212121212 361.9163669352502 L 266.16161616161617 365.0620549972196 L 261.1111111111111 367.7756801142943 L 256.06060606060606 364.00066418002734 L 251.010101010101 369.71572575937483 L 245.95959595959596 365.22273813405195 L 240.9090909090909 371.126329981588 L 235.85858585858585 374.7466300214561 L 230.8080808080808 373.8055353524521 L 225.75757575757575 375.99776185167855 L 220.7070707070707 375.6249389222468 L 215.65656565656565 376.2761466834672 L 210.6060606060606 378.4708811541512 L 205.55555555555554 379.1674918469307 L 200.50505050505052 381.0377467000717 L 195.45454545454544 382.31629325277845 L 190.40404040404042 384.49208821486917 L 185.35353535353534 386.05792722212755 L 180.3030303030303 383.5654360021897 L 175.25252525252526 386.1296206131039 L 170.2020202020202 389.3780490230586 L 165.15151515151516 391.4324235738939 L 160.1010101010101 394.7966510797682 L 155.05050505050505 397.69621201179956 L 150 399.99117885901137" /><text  class="poloto_text poloto_legend_text" alignment-baseline="middle" text-anchor="start" font-size="large" x="675" y="250" >direct_seq</text><line  class="poloto_line poloto_legend_icon poloto3stroke poloto3legend" stroke="black" x1="680" x2="730" y1="231.25" y2="231.25" /><path  class="poloto_line poloto3stroke" fill="none" stroke="black" d=" M 650 131.77115538785773 L 644.9494949494949 102.80391208954666 L 639.8989898989898 129.54580636903677 L 634.8484848484848 159.5734027032473 L 629.7979797979798 157.49386195606203 L 624.7474747474747 161.29750335765488 L 619.6969696969697 161.26005674934035 L 614.6464646464647 161.38848218432204 L 609.5959595959596 142.07874511486074 L 604.5454545454545 148.78073670364336 L 599.4949494949494 155.47857716725488 L 594.4444444444445 167.28904716975418 L 589.3939393939394 173.67563972730565 L 584.3434343434344 169.8123259013779 L 579.2929292929293 176.81337146603036 L 574.2424242424242 187.61226415339098 L 569.1919191919192 159.1243893305705 L 564.1414141414141 199.51181038352073 L 559.090909090909 184.2591927964141 L 554.040404040404 185.28720164868852 L 548.989898989899 187.66173172834687 L 543.939393939394 209.0853428094296 L 538.8888888888889 191.72810476056222 L 533.8383838383838 196.01595761701196 L 528.7878787878788 197.4528522986423 L 523.7373737373737 213.58507601315557 L 518.6868686868687 187.78479529331588 L 513.6363636363636 218.50312155964687 L 508.5858585858586 192.9977436905059 L 503.5353535353535 216.48031285646704 L 498.4848484848485 215.319122071619 L 493.4343434343434 218.65187021161222 L 488.3838383838384 238.8819463242219 L 483.3333333333333 226.0389704171794 L 478.2828282828283 226.31847951203522 L 473.2323232323232 229.8396714384427 L 468.1818181818182 232.53816224499766 L 463.1313131313131 250.95903963719164 L 458.0808080808081 237.924593081631 L 453.030303030303 240.0550715939369 L 447.979797979798 245.72697876785955 L 442.9292929292929 251.3476022495639 L 437.8787878787879 255.19898159062467 L 432.8282828282828 250.56805553513624 L 427.77777777777777 265.88250759093773 L 422.72727272727275 251.7442941487296 L 417.67676767676767 259.432264447429 L 412.62626262626264 259.7314049050733 L 407.57575757575756 270.04435650208893 L 402.52525252525254 270.8696520751734 L 397.47474747474746 271.9631276306675 L 392.4242424242424 276.24025674709185 L 387.37373737373736 263.94540232618675 L 382.32323232323233 282.24312967163735 L 377.27272727272725 280.96665868151615 L 372.22222222222223 287.0119076755169 L 367.1717171717172 287.46896385321276 L 362.1212121212121 280.11066207852025 L 357.07070707070704 290.8573197741442 L 352.020202020202 297.560003217122 L 346.969696969697 293.98095498364194 L 341.9191919191919 293.20798088406855 L 336.86868686868684 290.8152896317865 L 331.8181818181818 308.0320812790309 L 326.7676767676768 309.15063654910045 L 321.7171717171717 312.69734059895546 L 316.66666666666663 305.51191589128547 L 311.6161616161616 314.4902807457842 L 306.5656565656566 317.4464007582722 L 301.5151515151515 315.27250839521827 L 296.4646464646464 326.53148412237863 L 291.4141414141414 328.73002379113615 L 286.3636363636364 329.72577494155996 L 281.3131313131313 333.22941106776454 L 276.26262626262627 333.41456854675164 L 271.2121212121212 337.7018160307806 L 266.16161616161617 338.818814628911 L 261.1111111111111 337.20385397379425 L 256.06060606060606 339.9453262222253 L 251.010101010101 348.44051740315984 L 245.95959595959596 351.6331650686276 L 240.9090909090909 352.71678170184026 L 235.85858585858585 358.92184901492936 L 230.8080808080808 356.52768757248253 L 225.75757575757575 359.9214053634267 L 220.7070707070707 362.916442174394 L 215.65656565656565 365.792047654917 L 210.6060606060606 368.4076024398238 L 205.55555555555554 370.9219735486845 L 200.50505050505052 373.098806292068 L 195.45454545454544 375.5036049927658 L 190.40404040404042 378.70161452824624 L 185.35353535353534 382.2139853136651 L 180.3030303030303 382.8269681306013 L 175.25252525252526 385.35431150562175 L 170.2020202020202 389.24720209839376 L 165.15151515151516 391.67604273237436 L 160.1010101010101 394.6914027603253 L 155.05050505050505 397.48882871679206 L 150 399.9929084944993" /><text  class="poloto_text poloto_legend_text" alignment-baseline="middle" text-anchor="start" font-size="large" x="675" y="300" >indirect_par</text><line  class="poloto_line poloto_legend_icon poloto4stroke poloto4legend" stroke="black" x1="680" x2="730" y1="281.25" y2="281.25" /><path  class="poloto_line poloto4stroke" fill="none" stroke="black" d=" M 650 256.48245760447213 L 644.9494949494949 262.88565466270813 L 639.8989898989898 241.4148245328038 L 634.8484848484848 263.82432784202894 L 629.7979797979798 261.74556543081326 L 624.7474747474747 269.5086019096905 L 619.6969696969697 266.2022307108888 L 614.6464646464647 269.42212013529206 L 609.5959595959596 271.57127871086806 L 604.5454545454545 272.3939798307206 L 599.4949494949494 277.61116583485614 L 594.4444444444445 294.5566641558125 L 589.3939393939394 277.68804813229633 L 584.3434343434344 280.72122340577334 L 579.2929292929293 274.0990544947605 L 574.2424242424242 276.2646446074722 L 569.1919191919192 281.2245473327723 L 564.1414141414141 282.71895239437765 L 559.090909090909 289.8097660408557 L 554.040404040404 284.1539444769712 L 548.989898989899 282.61007184041 L 543.939393939394 293.5428383145394 L 538.8888888888889 289.10286401692275 L 533.8383838383838 291.4567249524999 L 528.7878787878788 294.7289358504142 L 523.7373737373737 295.09120800336933 L 518.6868686868687 299.9389438672747 L 513.6363636363636 299.1862065029105 L 508.5858585858586 299.00554607619216 L 503.5353535353535 304.65124927247206 L 498.4848484848485 301.85728258698117 L 493.4343434343434 307.6753439596372 L 488.3838383838384 305.8799823231253 L 483.3333333333333 307.9573610259506 L 478.2828282828283 303.71880278090794 L 473.2323232323232 310.7865257936216 L 468.1818181818182 304.4664377205826 L 463.1313131313131 313.45639113285074 L 458.0808080808081 301.17744935843496 L 453.030303030303 315.4307700423674 L 447.979797979798 313.21830680793175 L 442.9292929292929 319.98948381623313 L 437.8787878787879 320.5462534798104 L 432.8282828282828 317.804262340733 L 427.77777777777777 317.87552332283735 L 422.72727272727275 312.59261117015893 L 417.67676767676767 312.01413458120766 L 412.62626262626264 313.1516293598705 L 407.57575757575756 311.9939843277728 L 402.52525252525254 317.75220031254514 L 397.47474747474746 318.00265153120307 L 392.4242424242424 318.52949850083843 L 387.37373737373736 320.76799274936803 L 382.32323232323233 323.3313125425382 L 377.27272727272725 324.2745692559022 L 372.22222222222223 315.62518107121514 L 367.1717171717172 303.4686974893476 L 362.1212121212121 326.25733689753554 L 357.07070707070704 331.21334794298775 L 352.020202020202 331.8585884617746 L 346.969696969697 334.422167700268 L 341.9191919191919 330.61809388980316 L 336.86868686868684 336.78130402408345 L 331.8181818181818 339.57163847504955 L 326.7676767676768 340.41154946800737 L 321.7171717171717 342.847568089263 L 316.66666666666663 340.4425964250164 L 311.6161616161616 345.26257163933985 L 306.5656565656566 347.82597791428446 L 301.5151515151515 346.59793671782637 L 296.4646464646464 350.8758441702204 L 291.4141414141414 352.93912634381866 L 286.3636363636364 342.915715727489 L 281.3131313131313 352.3096255079723 L 276.26262626262627 349.1763908215163 L 271.2121212121212 355.17217224056117 L 266.16161616161617 356.5919435308606 L 261.1111111111111 358.2683927275746 L 256.06060606060606 344.8795438605291 L 251.010101010101 364.8415264725036 L 245.95959595959596 361.83654425748045 L 240.9090909090909 368.19200337624846 L 235.85858585858585 369.22139593691327 L 230.8080808080808 370.8546042464281 L 225.75757575757575 371.95370111725805 L 220.7070707070707 371.9050118782717 L 215.65656565656565 371.6436639560396 L 210.6060606060606 372.82085386915134 L 205.55555555555554 376.90642585528315 L 200.50505050505052 379.10980850340695 L 195.45454545454544 380.90119197829654 L 190.40404040404042 382.4190336007638 L 185.35353535353534 383.19278603630676 L 180.3030303030303 382.8055206505505 L 175.25252525252526 385.9851960498585 L 170.2020202020202 389.5658874370521 L 165.15151515151516 391.0196460646901 L 160.1010101010101 394.79102976443227 L 155.05050505050505 397.44774987395283 L 150 399.9937733122433" /><text  class="poloto_text poloto_legend_text" alignment-baseline="middle" text-anchor="start" font-size="large" x="675" y="350" >indirect_seq</text><line  class="poloto_line poloto_legend_icon poloto5stroke poloto5legend" stroke="black" x1="680" x2="730" y1="331.25" y2="331.25" /><path  class="poloto_line poloto5stroke" fill="none" stroke="black" d=" M 650 120.67156557091374 L 644.9494949494949 116.34643906969819 L 639.8989898989898 121.26950055910464 L 634.8484848484848 117.95690267254628 L 629.7979797979798 118.18530103873258 L 624.7474747474747 119.29425683184394 L 619.6969696969697 122.82452934456325 L 614.6464646464647 125.8878867573053 L 609.5959595959596 118.04909224405498 L 604.5454545454545 143.54694619882332 L 599.4949494949494 137.22789590707703 L 594.4444444444445 156.40315381734874 L 589.3939393939394 157.46774446019373 L 584.3434343434344 144.9562531944205 L 579.2929292929293 165.24202356974277 L 574.2424242424242 156.1087698572964 L 569.1919191919192 170.44995602401772 L 564.1414141414141 150.43937065483132 L 559.090909090909 164.89237775584982 L 554.040404040404 159.17913229376475 L 548.989898989899 183.74730717374965 L 543.939393939394 173.58803368984002 L 538.8888888888889 175.06289387043125 L 533.8383838383838 195.17198198065748 L 528.7878787878788 185.13888540559515 L 523.7373737373737 191.2921501358196 L 518.6868686868687 184.20894688548861 L 513.6363636363636 185.76068936352007 L 508.5858585858586 187.41768016099445 L 503.5353535353535 195.16791733726075 L 498.4848484848485 169.939108182646 L 493.4343434343434 212.93317639774003 L 488.3838383838384 204.09767943454753 L 483.3333333333333 207.5246927086351 L 478.2828282828283 218.2515460779218 L 473.2323232323232 215.32422449630852 L 468.1818181818182 226.8509477970065 L 463.1313131313131 228.34760138474616 L 458.0808080808081 225.47977926391903 L 453.030303030303 205.44100083627873 L 447.979797979798 213.69879954648954 L 442.9292929292929 232.28624083617495 L 437.8787878787879 249.78184972407988 L 432.8282828282828 242.64260628393868 L 427.77777777777777 245.98573223685972 L 422.72727272727275 239.52675443413676 L 417.67676767676767 247.32827530262134 L 412.62626262626264 240.56358442739983 L 407.57575757575756 251.94839113630997 L 402.52525252525254 256.8089263028263 L 397.47474747474746 258.48131085614364 L 392.4242424242424 244.9234766019235 L 387.37373737373736 265.68584803595564 L 382.32323232323233 260.04204743871253 L 377.27272727272725 272.81843237946816 L 372.22222222222223 259.6953420051491 L 367.1717171717172 246.65051763666065 L 362.1212121212121 276.08234102704023 L 357.07070707070704 269.437081482263 L 352.020202020202 279.0557573944079 L 346.969696969697 275.16701792680703 L 341.9191919191919 286.14259287926365 L 336.86868686868684 286.07799099378803 L 331.8181818181818 289.86312529565953 L 326.7676767676768 296.0439777119171 L 321.7171717171717 293.9921111325394 L 316.66666666666663 299.64940288658863 L 311.6161616161616 299.83421443847817 L 306.5656565656566 297.3126653423424 L 301.5151515151515 312.2868980976604 L 296.4646464646464 318.5952246493813 L 291.4141414141414 318.0276447640042 L 286.3636363636364 322.0265620121887 L 281.3131313131313 325.55942897814 L 276.26262626262627 318.87032317374275 L 271.2121212121212 323.70915141488507 L 266.16161616161617 337.3467218651005 L 261.1111111111111 322.17375399221487 L 256.06060606060606 329.76832397456394 L 251.010101010101 345.58938626479164 L 245.95959595959596 347.3135734009736 L 240.9090909090909 350.4222472635004 L 235.85858585858585 354.24517410078414 L 230.8080808080808 353.2718217299295 L 225.75757575757575 355.39754374464354 L 220.7070707070707 360.5640514289816 L 215.65656565656565 361.1519545313423 L 210.6060606060606 366.4541521197115 L 205.55555555555554 367.83613087459884 L 200.50505050505052 371.6839644629093 L 195.45454545454544 374.7773310513676 L 190.40404040404042 375.8950215036932 L 185.35353535353534 379.6785991336256 L 180.3030303030303 383.6181034027984 L 175.25252525252526 387.13289567790036 L 170.2020202020202 389.65617440952406 L 165.15151515151516 391.0180029109765 L 160.1010101010101 394.5890948212119 L 155.05050505050505 397.3527928856633 L 150 399.9934273851457" /><text  class="poloto_labels poloto_text poloto_title" alignment-baseline="start" text-anchor="middle" font-size="x-large" x="400" y="37.5" >Bench of query:16_bytes with abspiral(num,1.5)</text><text  class="poloto_labels poloto_text poloto_xname" alignment-baseline="start" text-anchor="middle" font-size="x-large" x="400" y="481.25" >Number of Elements</text><text  class="poloto_labels poloto_text poloto_yname" alignment-baseline="start" text-anchor="middle" font-size="x-large" transform="rotate(-90,37.5,250)" x="37.5" y="250" >Time in Seconds</text><line  class="poloto_axis_lines" stroke="black" x1="150" x2="150" y1="400" y2="405" /><text  class="poloto_tick_labels poloto_text" alignment-baseline="start" text-anchor="middle" x="150" y="430" > 0</text><line  class="poloto_axis_lines" stroke="black" x1="234.17508417508418" x2="234.17508417508418" y1="400" y2="405" /><text  class="poloto_tick_labels poloto_text" alignment-baseline="start" text-anchor="middle" x="234.17508417508418" y="430" > 5000</text><line  class="poloto_axis_lines" stroke="black" x1="318.35016835016836" x2="318.35016835016836" y1="400" y2="405" /><text  class="poloto_tick_labels poloto_text" alignment-baseline="start" text-anchor="middle" x="318.35016835016836" y="430" > 10000</text><line  class="poloto_axis_lines" stroke="black" x1="402.52525252525254" x2="402.52525252525254" y1="400" y2="405" /><text  class="poloto_tick_labels poloto_text" alignment-baseline="start" text-anchor="middle" x="402.52525252525254" y="430" > 15000</text><line  class="poloto_axis_lines" stroke="black" x1="486.7003367003367" x2="486.7003367003367" y1="400" y2="405" /><text  class="poloto_tick_labels poloto_text" alignment-baseline="start" text-anchor="middle" x="486.7003367003367" y="430" > 20000</text><line  class="poloto_axis_lines" stroke="black" x1="570.8754208754208" x2="570.8754208754208" y1="400" y2="405" /><text  class="poloto_tick_labels poloto_text" alignment-baseline="start" text-anchor="middle" x="570.8754208754208" y="430" > 25000</text><line  class="poloto_axis_lines" stroke="black" x1="150" x2="144" y1="400" y2="400" /><text  class="poloto_tick_labels poloto_text" alignment-baseline="middle" text-anchor="end" x="135" y="400" > 0e0</text><line  class="poloto_axis_lines" stroke="black" x1="150" x2="144" y1="313.5182256015456" y2="313.5182256015456" /><text  class="poloto_tick_labels poloto_text" alignment-baseline="middle" text-anchor="end" x="135" y="313.5182256015456" > 0.001</text><line  class="poloto_axis_lines" stroke="black" x1="150" x2="144" y1="227.0364512030912" y2="227.0364512030912" /><text  class="poloto_tick_labels poloto_text" alignment-baseline="middle" text-anchor="end" x="135" y="227.0364512030912" > 0.002</text><line  class="poloto_axis_lines" stroke="black" x1="150" x2="144" y1="140.55467680463676" y2="140.55467680463676" /><text  class="poloto_tick_labels poloto_text" alignment-baseline="middle" text-anchor="end" x="135" y="140.55467680463676" > 0.003</text><path  stroke="black" fill="none" class="poloto_axis_lines" style="stroke-dasharray:8.417508417508419;stroke-dashoffset:-0;" d=" M 150 400 L 650 400" /><path  stroke="black" fill="none" class="poloto_axis_lines" style="stroke-dasharray:10.8102217998068;stroke-dashoffset:-0;" d=" M 150 400 L 150 100" /></svg>