<svg class="poloto" width="800" height="500" viewBox="0 0 800 500" xmlns="http://www.w3.org/2000/svg"><circle  r="1e5" class="poloto_background" /><text  class="poloto_text poloto_legend_text" x="675" y="100" >default_par</text><line  class="poloto_line poloto_legend_icon poloto0stroke poloto0legend" stroke="black" x1="680" x2="730" y1="81.25" y2="81.25" /><path  class="poloto_line poloto0stroke" fill="none" stroke="black" d=" M 650.00 298.22 L 644.95 301.92 L 639.90 306.10 L 634.85 307.57 L 629.80 306.53 L 624.75 304.59 L 619.70 305.92 L 614.65 307.63 L 609.60 311.07 L 604.55 301.23 L 599.49 312.75 L 594.44 313.29 L 589.39 312.62 L 584.34 314.30 L 579.29 313.89 L 574.24 317.73 L 569.19 311.71 L 564.14 314.28 L 559.09 317.66 L 554.04 320.37 L 548.99 323.70 L 543.94 323.78 L 538.89 323.75 L 533.84 323.26 L 528.79 319.81 L 523.74 327.21 L 518.69 324.77 L 513.64 327.91 L 508.59 328.91 L 503.54 329.58 L 498.48 330.56 L 493.43 332.16 L 488.38 333.41 L 483.33 335.78 L 478.28 333.48 L 473.23 331.94 L 468.18 334.91 L 463.13 335.59 L 458.08 336.01 L 453.03 337.81 L 447.98 338.59 L 442.93 339.69 L 437.88 340.06 L 432.83 339.97 L 427.78 337.31 L 422.73 340.33 L 417.68 338.44 L 412.63 340.60 L 407.58 344.56 L 402.53 345.06 L 397.47 345.32 L 392.42 348.08 L 387.37 349.28 L 382.32 345.43 L 377.27 348.22 L 372.22 349.63 L 367.17 353.30 L 362.12 355.05 L 357.07 353.85 L 352.02 355.26 L 346.97 354.85 L 341.92 354.50 L 336.87 358.56 L 331.82 361.05 L 326.77 356.85 L 321.72 358.25 L 316.67 363.02 L 311.62 362.45 L 306.57 364.59 L 301.52 364.48 L 296.46 366.11 L 291.41 365.11 L 286.36 366.71 L 281.31 369.58 L 276.26 371.65 L 271.21 369.29 L 266.16 372.62 L 261.11 370.99 L 256.06 373.60 L 251.01 375.08 L 245.96 376.43 L 240.91 364.89 L 235.86 364.53 L 230.81 371.69 L 225.76 377.21 L 220.71 380.82 L 215.66 361.93 L 210.61 377.97 L 205.56 376.32 L 200.51 377.14 L 195.45 380.66 L 190.40 383.21 L 185.35 383.89 L 180.30 380.77 L 175.25 386.83 L 170.20 390.56 L 165.15 392.22 L 160.10 395.23 L 155.05 397.14 L 150.00 399.99" /><text  class="poloto_text poloto_legend_text" x="675" y="150" >default_seq</text><line  class="poloto_line poloto_legend_icon poloto1stroke poloto1legend" stroke="black" x1="680" x2="730" y1="131.25" y2="131.25" /><path  class="poloto_line poloto1stroke" fill="none" stroke="black" d=" M 650.00 134.47 L 644.95 108.49 L 639.90 116.60 L 634.85 117.78 L 629.80 141.97 L 624.75 126.54 L 619.70 129.47 L 614.65 134.42 L 609.60 150.97 L 604.55 137.81 L 599.49 145.48 L 594.44 145.17 L 589.39 173.83 L 584.34 166.00 L 579.29 167.54 L 574.24 160.87 L 569.19 160.68 L 564.14 165.20 L 559.09 166.95 L 554.04 175.77 L 548.99 185.14 L 543.94 172.90 L 538.89 186.57 L 533.84 185.84 L 528.79 189.33 L 523.74 211.47 L 518.69 194.45 L 513.64 213.04 L 508.59 210.96 L 503.54 206.51 L 498.48 205.84 L 493.43 212.62 L 488.38 216.26 L 483.33 221.85 L 478.28 221.44 L 473.23 229.52 L 468.18 222.77 L 463.13 227.21 L 458.08 229.96 L 453.03 240.23 L 447.98 237.55 L 442.93 238.47 L 437.88 244.42 L 432.83 256.24 L 427.78 245.43 L 422.73 246.41 L 417.68 251.16 L 412.63 250.60 L 407.58 261.38 L 402.53 258.56 L 397.47 269.59 L 392.42 267.35 L 387.37 273.60 L 382.32 278.42 L 377.27 279.44 L 372.22 279.11 L 367.17 285.90 L 362.12 285.88 L 357.07 289.88 L 352.02 292.65 L 346.97 293.69 L 341.92 302.62 L 336.87 303.05 L 331.82 305.69 L 326.77 310.51 L 321.72 310.15 L 316.67 311.89 L 311.62 312.81 L 306.57 320.10 L 301.52 320.78 L 296.46 324.97 L 291.41 327.75 L 286.36 328.83 L 281.31 326.90 L 276.26 330.99 L 271.21 333.64 L 266.16 336.99 L 261.11 341.40 L 256.06 343.25 L 251.01 348.36 L 245.96 350.42 L 240.91 351.64 L 235.86 355.32 L 230.81 357.04 L 225.76 360.37 L 220.71 364.93 L 215.66 364.23 L 210.61 365.23 L 205.56 369.52 L 200.51 372.00 L 195.45 377.26 L 190.40 378.85 L 185.35 381.23 L 180.30 382.40 L 175.25 385.67 L 170.20 388.70 L 165.15 392.06 L 160.10 395.19 L 155.05 397.56 L 150.00 399.99" /><text  class="poloto_text poloto_legend_text" x="675" y="200" >direct_par</text><line  class="poloto_line poloto_legend_icon poloto2stroke poloto2legend" stroke="black" x1="680" x2="730" y1="181.25" y2="181.25" /><path  class="poloto_line poloto2stroke" fill="none" stroke="black" d=" M 650.00 300.85 L 644.95 307.99 L 639.90 305.78 L 634.85 309.10 L 629.80 306.45 L 624.75 308.10 L 619.70 306.07 L 614.65 307.41 L 609.60 312.50 L 604.55 306.54 L 599.49 309.40 L 594.44 311.66 L 589.39 313.84 L 584.34 315.86 L 579.29 319.95 L 574.24 289.64 L 569.19 318.53 L 564.14 319.26 L 559.09 319.71 L 554.04 320.59 L 548.99 321.62 L 543.94 322.98 L 538.89 321.55 L 533.84 323.24 L 528.79 325.97 L 523.74 328.19 L 518.69 328.74 L 513.64 329.30 L 508.59 333.39 L 503.54 332.94 L 498.48 333.11 L 493.43 332.27 L 488.38 334.39 L 483.33 334.88 L 478.28 337.39 L 473.23 336.05 L 468.18 339.04 L 463.13 337.16 L 458.08 338.98 L 453.03 339.28 L 447.98 336.96 L 442.93 339.52 L 437.88 341.96 L 432.83 340.06 L 427.78 342.69 L 422.73 341.62 L 417.68 342.58 L 412.63 341.34 L 407.58 347.00 L 402.53 344.88 L 397.47 347.42 L 392.42 345.77 L 387.37 340.14 L 382.32 349.41 L 377.27 346.15 L 372.22 348.21 L 367.17 353.62 L 362.12 355.01 L 357.07 355.63 L 352.02 355.25 L 346.97 358.03 L 341.92 358.64 L 336.87 354.64 L 331.82 357.05 L 326.77 356.99 L 321.72 353.24 L 316.67 359.82 L 311.62 360.73 L 306.57 358.25 L 301.52 366.32 L 296.46 365.19 L 291.41 367.33 L 286.36 371.52 L 281.31 371.52 L 276.26 368.07 L 271.21 368.93 L 266.16 369.44 L 261.11 369.77 L 256.06 374.58 L 251.01 372.66 L 245.96 377.12 L 240.91 365.99 L 235.86 363.79 L 230.81 367.57 L 225.76 380.29 L 220.71 382.41 L 215.66 377.48 L 210.61 377.63 L 205.56 380.24 L 200.51 366.98 L 195.45 381.83 L 190.40 382.05 L 185.35 385.34 L 180.30 384.86 L 175.25 388.49 L 170.20 390.16 L 165.15 392.04 L 160.10 395.17 L 155.05 397.69 L 150.00 399.99" /><text  class="poloto_text poloto_legend_text" x="675" y="250" >direct_seq</text><line  class="poloto_line poloto_legend_icon poloto3stroke poloto3legend" stroke="black" x1="680" x2="730" y1="231.25" y2="231.25" /><path  class="poloto_line poloto3stroke" fill="none" stroke="black" d=" M 650.00 158.05 L 644.95 146.83 L 639.90 158.57 L 634.85 139.60 L 629.80 145.47 L 624.75 150.66 L 619.70 147.97 L 614.65 165.67 L 609.60 162.60 L 604.55 166.88 L 599.49 159.68 L 594.44 181.08 L 589.39 174.15 L 584.34 196.04 L 579.29 196.93 L 574.24 200.13 L 569.19 193.91 L 564.14 183.38 L 559.09 190.37 L 554.04 195.28 L 548.99 206.99 L 543.94 208.20 L 538.89 197.91 L 533.84 204.84 L 528.79 203.05 L 523.74 224.53 L 518.69 209.89 L 513.64 214.34 L 508.59 227.43 L 503.54 220.42 L 498.48 228.23 L 493.43 239.38 L 488.38 231.21 L 483.33 230.09 L 478.28 242.26 L 473.23 239.81 L 468.18 239.29 L 463.13 242.79 L 458.08 242.64 L 453.03 248.56 L 447.98 255.57 L 442.93 263.39 L 437.88 254.30 L 432.83 260.30 L 427.78 258.68 L 422.73 265.59 L 417.68 268.41 L 412.63 268.97 L 407.58 272.13 L 402.53 270.32 L 397.47 279.50 L 392.42 273.31 L 387.37 279.51 L 382.32 279.45 L 377.27 282.92 L 372.22 286.48 L 367.17 293.04 L 362.12 289.58 L 357.07 290.10 L 352.02 297.50 L 346.97 298.48 L 341.92 307.08 L 336.87 309.15 L 331.82 308.03 L 326.77 305.78 L 321.72 312.15 L 316.67 312.05 L 311.62 316.77 L 306.57 324.58 L 301.52 326.15 L 296.46 320.56 L 291.41 331.29 L 286.36 334.97 L 281.31 333.49 L 276.26 337.12 L 271.21 335.74 L 266.16 343.39 L 261.11 343.22 L 256.06 348.87 L 251.01 351.51 L 245.96 355.32 L 240.91 357.58 L 235.86 357.93 L 230.81 363.40 L 225.76 364.23 L 220.71 365.02 L 215.66 367.03 L 210.61 364.23 L 205.56 371.13 L 200.51 373.61 L 195.45 375.20 L 190.40 378.93 L 185.35 381.68 L 180.30 383.94 L 175.25 387.37 L 170.20 389.88 L 165.15 390.63 L 160.10 394.92 L 155.05 397.57 L 150.00 399.99" /><text  class="poloto_text poloto_legend_text" x="675" y="300" >indirect_par</text><line  class="poloto_line poloto_legend_icon poloto4stroke poloto4legend" stroke="black" x1="680" x2="730" y1="281.25" y2="281.25" /><path  class="poloto_line poloto4stroke" fill="none" stroke="black" d=" M 650.00 286.67 L 644.95 251.07 L 639.90 291.35 L 634.85 292.11 L 629.80 291.72 L 624.75 297.33 L 619.70 294.59 L 614.65 296.79 L 609.60 298.96 L 604.55 296.59 L 599.49 300.43 L 594.44 301.92 L 589.39 300.37 L 584.34 302.90 L 579.29 306.31 L 574.24 306.05 L 569.19 305.60 L 564.14 309.15 L 559.09 310.23 L 554.04 307.97 L 548.99 311.24 L 543.94 310.67 L 538.89 315.02 L 533.84 313.13 L 528.79 315.92 L 523.74 315.94 L 518.69 320.66 L 513.64 318.24 L 508.59 321.19 L 503.54 320.48 L 498.48 320.42 L 493.43 324.16 L 488.38 324.61 L 483.33 326.19 L 478.28 324.31 L 473.23 328.47 L 468.18 327.63 L 463.13 331.64 L 458.08 331.98 L 453.03 334.06 L 447.98 329.65 L 442.93 333.11 L 437.88 333.09 L 432.83 333.02 L 427.78 335.04 L 422.73 335.32 L 417.68 334.50 L 412.63 335.55 L 407.58 335.60 L 402.53 338.56 L 397.47 336.45 L 392.42 339.33 L 387.37 339.19 L 382.32 339.36 L 377.27 345.14 L 372.22 344.05 L 367.17 344.92 L 362.12 349.30 L 357.07 346.78 L 352.02 348.63 L 346.97 348.74 L 341.92 349.52 L 336.87 347.82 L 331.82 353.81 L 326.77 353.77 L 321.72 355.52 L 316.67 355.10 L 311.62 356.68 L 306.57 359.16 L 301.52 356.75 L 296.46 362.82 L 291.41 352.65 L 286.36 362.11 L 281.31 365.42 L 276.26 365.94 L 271.21 367.15 L 266.16 365.66 L 261.11 343.18 L 256.06 368.50 L 251.01 371.63 L 245.96 366.53 L 240.91 361.32 L 235.86 364.42 L 230.81 367.44 L 225.76 377.66 L 220.71 379.11 L 215.66 373.42 L 210.61 367.58 L 205.56 374.01 L 200.51 375.75 L 195.45 379.89 L 190.40 381.38 L 185.35 382.42 L 180.30 383.49 L 175.25 376.98 L 170.20 388.77 L 165.15 391.39 L 160.10 394.99 L 155.05 397.51 L 150.00 399.99" /><text  class="poloto_text poloto_legend_text" x="675" y="350" >indirect_seq</text><line  class="poloto_line poloto_legend_icon poloto5stroke poloto5legend" stroke="black" x1="680" x2="730" y1="331.25" y2="331.25" /><path  class="poloto_line poloto5stroke" fill="none" stroke="black" d=" M 650.00 100.00 L 644.95 103.44 L 639.90 107.91 L 634.85 106.29 L 629.80 104.07 L 624.75 144.32 L 619.70 113.71 L 614.65 148.97 L 609.60 124.08 L 604.55 128.99 L 599.49 156.08 L 594.44 138.62 L 589.39 158.29 L 584.34 137.60 L 579.29 147.35 L 574.24 141.20 L 569.19 163.56 L 564.14 159.66 L 559.09 164.44 L 554.04 176.91 L 548.99 173.14 L 543.94 169.53 L 538.89 188.09 L 533.84 197.10 L 528.79 197.01 L 523.74 183.90 L 518.69 188.47 L 513.64 185.48 L 508.59 192.44 L 503.54 197.62 L 498.48 207.74 L 493.43 206.39 L 488.38 210.76 L 483.33 210.90 L 478.28 213.06 L 473.23 215.59 L 468.18 216.91 L 463.13 238.93 L 458.08 226.26 L 453.03 243.52 L 447.98 238.97 L 442.93 235.98 L 437.88 240.02 L 432.83 237.77 L 427.78 242.27 L 422.73 237.74 L 417.68 241.86 L 412.63 249.45 L 407.58 258.47 L 402.53 257.09 L 397.47 264.30 L 392.42 258.36 L 387.37 262.31 L 382.32 266.83 L 377.27 267.09 L 372.22 278.70 L 367.17 280.67 L 362.12 278.51 L 357.07 285.56 L 352.02 289.65 L 346.97 293.65 L 341.92 291.96 L 336.87 264.07 L 331.82 300.66 L 326.77 299.77 L 321.72 307.68 L 316.67 309.39 L 311.62 312.18 L 306.57 315.37 L 301.52 315.74 L 296.46 302.53 L 291.41 316.05 L 286.36 325.70 L 281.31 328.73 L 276.26 329.16 L 271.21 333.84 L 266.16 338.21 L 261.11 338.40 L 256.06 342.12 L 251.01 344.75 L 245.96 345.98 L 240.91 350.45 L 235.86 352.60 L 230.81 355.80 L 225.76 359.57 L 220.71 363.78 L 215.66 358.14 L 210.61 365.10 L 205.56 367.04 L 200.51 369.70 L 195.45 371.69 L 190.40 377.05 L 185.35 380.99 L 180.30 382.82 L 175.25 386.86 L 170.20 388.71 L 165.15 391.09 L 160.10 394.66 L 155.05 397.37 L 150.00 399.99" /><text  class="poloto_labels poloto_text poloto_title" x="400" y="37.5" >Bench of query:16_bytes with abspiral(num,1.5)</text><text  class="poloto_labels poloto_text poloto_xname" x="400" y="481.25" >Number of Elements</text><text  class="poloto_labels poloto_text poloto_yname" transform="rotate(-90,37.5,250)" x="37.5" y="250" >Time in Seconds</text><text  class="poloto_tick_labels poloto_text" dominant-baseline="middle" text-anchor="start" x="440.00000000000006" y="70" ></text><line  class="poloto_axis_lines" stroke="black" x1="150" x2="150" y1="400" y2="405" /><text  class="poloto_tick_labels poloto_text" dominant-baseline="start" text-anchor="middle" x="150" y="430" >0</text><line  class="poloto_axis_lines" stroke="black" x1="234.17508417508418" x2="234.17508417508418" y1="400" y2="405" /><text  class="poloto_tick_labels poloto_text" dominant-baseline="start" text-anchor="middle" x="234.17508417508418" y="430" >5000</text><line  class="poloto_axis_lines" stroke="black" x1="318.35016835016836" x2="318.35016835016836" y1="400" y2="405" /><text  class="poloto_tick_labels poloto_text" dominant-baseline="start" text-anchor="middle" x="318.35016835016836" y="430" >10000</text><line  class="poloto_axis_lines" stroke="black" x1="402.52525252525254" x2="402.52525252525254" y1="400" y2="405" /><text  class="poloto_tick_labels poloto_text" dominant-baseline="start" text-anchor="middle" x="402.52525252525254" y="430" >15000</text><line  class="poloto_axis_lines" stroke="black" x1="486.7003367003367" x2="486.7003367003367" y1="400" y2="405" /><text  class="poloto_tick_labels poloto_text" dominant-baseline="start" text-anchor="middle" x="486.7003367003367" y="430" >20000</text><line  class="poloto_axis_lines" stroke="black" x1="570.8754208754208" x2="570.8754208754208" y1="400" y2="405" /><text  class="poloto_tick_labels poloto_text" dominant-baseline="start" text-anchor="middle" x="570.8754208754208" y="430" >25000</text><text  class="poloto_tick_labels poloto_text" dominant-baseline="middle" text-anchor="start" x="150" y="70" ></text><line  class="poloto_axis_lines" stroke="black" x1="150" x2="144" y1="400" y2="400" /><text  class="poloto_tick_labels poloto_text" dominant-baseline="middle" text-anchor="end" x="135" y="400" >0e0</text><line  class="poloto_axis_lines" stroke="black" x1="150" x2="144" y1="357.75963882801585" y2="357.75963882801585" /><text  class="poloto_tick_labels poloto_text" dominant-baseline="middle" text-anchor="end" x="135" y="357.75963882801585" >0.0005</text><line  class="poloto_axis_lines" stroke="black" x1="150" x2="144" y1="315.5192776560317" y2="315.5192776560317" /><text  class="poloto_tick_labels poloto_text" dominant-baseline="middle" text-anchor="end" x="135" y="315.5192776560317" >0.0010</text><line  class="poloto_axis_lines" stroke="black" x1="150" x2="144" y1="273.2789164840475" y2="273.2789164840475" /><text  class="poloto_tick_labels poloto_text" dominant-baseline="middle" text-anchor="end" x="135" y="273.2789164840475" >0.0015</text><line  class="poloto_axis_lines" stroke="black" x1="150" x2="144" y1="231.03855531206335" y2="231.03855531206335" /><text  class="poloto_tick_labels poloto_text" dominant-baseline="middle" text-anchor="end" x="135" y="231.03855531206335" >0.0020</text><line  class="poloto_axis_lines" stroke="black" x1="150" x2="144" y1="188.7981941400792" y2="188.7981941400792" /><text  class="poloto_tick_labels poloto_text" dominant-baseline="middle" text-anchor="end" x="135" y="188.7981941400792" >0.0025</text><line  class="poloto_axis_lines" stroke="black" x1="150" x2="144" y1="146.557832968095" y2="146.557832968095" /><text  class="poloto_tick_labels poloto_text" dominant-baseline="middle" text-anchor="end" x="135" y="146.557832968095" >0.0030</text><line  class="poloto_axis_lines" stroke="black" x1="150" x2="144" y1="104.31747179611085" y2="104.31747179611085" /><text  class="poloto_tick_labels poloto_text" dominant-baseline="middle" text-anchor="end" x="135" y="104.31747179611085" >0.0035</text><path  stroke="black" fill="none" class="poloto_axis_lines" style="stroke-dasharray:8.417508417508419;stroke-dashoffset:-0;" d=" M 150 400 L 650 400" /><path  stroke="black" fill="none" class="poloto_axis_lines" style="stroke-dasharray:4.224036117198416;stroke-dashoffset:-0;" d=" M 150 400 L 150 100" /></svg>