<svg  width="800" class="poloto_background poloto" height="500" viewBox="0 0 800 500" xmlns="http://www.w3.org/2000/svg" ><text  class="poloto_text" alignment-baseline="middle" text-anchor="start" font-size="large" x="675" y="100" >default_par</text><line  class="poloto0stroke poloto0legend" stroke="black" x1="680" x2="730" y1="81.25" y2="81.25" /><path  class="poloto0stroke" fill="none" stroke="black" d=" M 650 359.4133304055738 L 644.9494949494949 358.7205789842257 L 639.8989898989898 359.4970089375794 L 634.8484848484848 360.5860167831836 L 629.7979797979798 358.2602580384803 L 624.7474747474747 354.4678994908072 L 619.6969696969697 359.8185481477965 L 614.6464646464647 353.4650627292258 L 609.5959595959596 358.3619778993721 L 604.5454545454545 359.41146099156094 L 599.4949494949494 361.4153244471876 L 594.4444444444445 357.61798079548015 L 589.3939393939394 364.96100936487403 L 584.3434343434344 363.56693095630914 L 579.2929292929293 364.0598924641844 L 574.2424242424242 364.75682781213277 L 569.1919191919192 361.2199261729831 L 564.1414141414141 365.14115559459236 L 559.090909090909 363.8311711433692 L 554.040404040404 362.23151653986304 L 548.989898989899 366.2966908404648 L 543.939393939394 366.8223522569465 L 538.8888888888889 364.3472481038801 L 533.8383838383838 365.47524658461026 L 528.7878787878788 368.54040308126906 L 523.7373737373737 368.7434867241932 L 518.6868686868687 368.8708442629761 L 513.6363636363636 362.09003453964937 L 508.5858585858586 369.77614509026597 L 503.5353535353535 368.8900725213944 L 498.4848484848485 369.5056141766863 L 493.4343434343434 370.12501335295724 L 488.3838383838384 369.21543957935216 L 483.3333333333333 372.0934766352922 L 478.2828282828283 372.07635517679313 L 473.2323232323232 372.45546046931196 L 468.1818181818182 370.9949140069554 L 463.1313131313131 371.76024616918494 L 458.0808080808081 372.44685523020496 L 453.030303030303 375.2257243237469 L 447.979797979798 372.3817521453751 L 442.9292929292929 374.5644858814732 L 437.8787878787879 375.11118562390953 L 432.8282828282828 372.88041091500395 L 427.77777777777777 370.99331165208724 L 422.72727272727275 369.67071607458666 L 417.67676767676767 374.52591067168345 L 412.62626262626264 369.8084889200128 L 407.57575757575756 374.7939490332459 L 402.52525252525254 375.10646757901986 L 397.47474747474746 374.1176959323925 L 392.4242424242424 366.1709653297884 L 387.37373737373736 375.6584491578735 L 382.32323232323233 375.9338761557726 L 377.27272727272725 375.22830589547897 L 372.22222222222223 377.1584313539305 L 367.1717171717172 375.231569951692 L 362.1212121212121 376.67671600337087 L 357.07070707070704 372.0684620954054 L 352.020202020202 376.64974302975634 L 346.969696969697 377.43747848690225 L 341.9191919191919 380.48224946884903 L 336.86868686868684 380.95218454380364 L 331.8181818181818 382.0648122870945 L 326.7676767676768 381.7292079619233 L 321.7171717171717 382.02558426606214 L 316.66666666666663 381.6140461240816 L 311.6161616161616 382.66539863028333 L 306.5656565656566 382.45783432837595 L 301.5151515151515 382.547210122135 L 296.4646464646464 384.793860013531 L 291.4141414141414 384.95267118491176 L 286.3636363636364 385.4107666377847 L 281.3131313131313 386.1475234715315 L 276.26262626262627 386.3386191261825 L 271.2121212121212 386.75796132983584 L 266.16161616161617 387.3613963039014 L 261.1111111111111 388.1303189279652 L 256.06060606060606 388.30070266228296 L 251.010101010101 387.03872951062897 L 245.95959595959596 385.36785913520316 L 240.9090909090909 387.30175309491875 L 235.85858585858585 387.4633535506997 L 230.8080808080808 388.6832797236828 L 225.75757575757575 391.73828797284307 L 220.7070707070707 388.7675517204544 L 215.65656565656565 390.4922493501561 L 210.6060606060606 391.12455638508743 L 205.55555555555554 391.2991240460054 L 200.50505050505052 392.8025186644669 L 195.45454545454544 393.9349681309421 L 190.40404040404042 394.16416422357 L 185.35353535353534 394.6499744810151 L 180.3030303030303 393.67859135203145 L 175.25252525252526 394.96709237872545 L 170.2020202020202 396.0148840963312 L 165.15151515151516 396.8270109553596 L 160.1010101010101 398.2539376387224 L 155.05050505050505 399.16680514177875 L 150 399.9980415662722" /><text  class="poloto_text" alignment-baseline="middle" text-anchor="start" font-size="large" x="675" y="150" >default_seq</text><line  class="poloto1stroke poloto1legend" stroke="black" x1="680" x2="730" y1="131.25" y2="131.25" /><path  class="poloto1stroke" fill="none" stroke="black" d=" M 650 301.73905947703884 L 644.9494949494949 305.36480279165824 L 639.8989898989898 304.7618722626438 L 634.8484848484848 309.5867704834364 L 629.7979797979798 306.45300945982837 L 624.7474747474747 304.89872523768264 L 619.6969696969697 311.0541121173636 L 614.6464646464647 306.8987311723303 L 609.5959595959596 311.15903668799183 L 604.5454545454545 314.5792334809082 L 599.4949494949494 313.2184187724775 L 594.4444444444445 310.8853307379141 L 589.3939393939394 317.21914279949203 L 584.3434343434344 316.74303569097106 L 579.2929292929293 316.04992819076335 L 574.2424242424242 317.67136295118155 L 569.1919191919192 320.74565880523676 L 564.1414141414141 322.84972878660193 L 559.090909090909 323.12862755338216 L 554.040404040404 325.869188496279 L 548.989898989899 322.1212804595791 L 543.939393939394 324.7624657274098 L 538.8888888888889 327.82839372826436 L 533.8383838383838 324.9754305586877 L 528.7878787878788 330.7707623648384 L 523.7373737373737 329.71614580242374 L 518.6868686868687 330.1741225623435 L 513.6363636363636 330.57533441739565 L 508.5858585858586 332.3574794364459 L 503.5353535353535 334.5799753118657 L 498.4848484848485 332.47424362915575 L 493.4343434343434 339.86080283913543 L 488.3838383838384 334.846114586177 L 483.3333333333333 337.55261065150563 L 478.2828282828283 337.43673665594474 L 473.2323232323232 342.67860322132674 L 468.1818181818182 341.1015892986433 L 463.1313131313131 343.23862624775967 L 458.0808080808081 340.62034871989647 L 453.030303030303 347.0208958944107 L 447.979797979798 343.76956950065875 L 442.9292929292929 344.74816322654925 L 437.8787878787879 347.1557904357218 L 432.8282828282828 347.3885176437075 L 427.77777777777777 346.4236923003881 L 422.72727272727275 346.58570818150525 L 417.67676767676767 347.2339497454036 L 412.62626262626264 351.5778744465941 L 407.57575757575756 352.7004723979537 L 402.52525252525254 353.12859788014384 L 397.47474747474746 354.25692276649534 L 392.4242424242424 354.0563316755884 L 387.37373737373736 354.42229172354035 L 382.32323232323233 357.1873627612729 L 377.27272727272725 356.4693594141316 L 372.22222222222223 358.26278026373575 L 367.1717171717172 359.21736833984164 L 362.1212121212121 359.99715136912323 L 357.07070707070704 359.4554664039596 L 352.020202020202 363.36862470475126 L 346.969696969697 362.41213754139415 L 341.9191919191919 362.7958125126111 L 336.86868686868684 363.8887965721475 L 331.8181818181818 365.2185434000783 L 326.7676767676768 367.4848073019905 L 321.7171717171717 368.55915656787454 L 316.66666666666663 368.69087607268756 L 311.6161616161616 369.5998860547649 L 306.5656565656566 370.42201279510033 L 301.5151515151515 371.9721130906458 L 296.4646464646464 373.3422451959027 L 291.4141414141414 374.3980783610877 L 286.3636363636364 374.30733759836676 L 281.3131313131313 375.5347711006398 L 276.26262626262627 376.6735112936345 L 271.2121212121212 377.31928997875394 L 266.16161616161617 378.41571613393313 L 261.1111111111111 379.5110740525335 L 256.06060606060606 380.80645927051313 L 251.010101010101 381.657131666093 L 245.95959595959596 382.90213172543946 L 240.9090909090909 382.94435674354014 L 235.85858585858585 384.80021008652716 L 230.8080808080808 385.5306761937544 L 225.75757575757575 386.3476101173873 L 220.7070707070707 386.2108461620634 L 215.65656565656565 387.40379936143194 L 210.6060606060606 387.86800750139463 L 205.55555555555554 389.6036842292673 L 200.50505050505052 389.4610746459983 L 195.45454545454544 390.73758768441917 L 190.40404040404042 391.9519056153636 L 185.35353535353534 393.80336731908227 L 180.3030303030303 393.7605191629773 L 175.25252525252526 394.7622283415034 L 170.2020202020202 396.1449418997994 L 165.15151515151516 396.94665345218453 L 160.1010101010101 398.08750044509856 L 155.05050505050505 399.128437644657 L 150 399.997922873319" /><text  class="poloto_text" alignment-baseline="middle" text-anchor="start" font-size="large" x="675" y="200" >direct_par</text><line  class="poloto2stroke poloto2legend" stroke="black" x1="680" x2="730" y1="181.25" y2="181.25" /><path  class="poloto2stroke" fill="none" stroke="black" d=" M 650 358.5807290121185 L 644.9494949494949 361.3483222751065 L 639.8989898989898 360.9023631766982 L 634.8484848484848 360.3066432445906 L 629.7979797979798 358.46945436849416 L 624.7474747474747 360.36910541121176 L 619.6969696969697 360.76423425241245 L 614.6464646464647 359.35525987822103 L 609.5959595959596 361.2762459792762 L 604.5454545454545 360.80028723694676 L 599.4949494949494 361.10743492658844 L 594.4444444444445 365.543999477751 L 589.3939393939394 360.4940890909307 L 584.3434343434344 366.8420256139393 L 579.2929292929293 362.86299272412197 L 574.2424242424242 366.45493822031784 L 569.1919191919192 362.4478344470689 L 564.1414141414141 363.1211498973306 L 559.090909090909 367.93610758329277 L 554.040404040404 368.5346464730389 L 548.989898989899 365.36515887051786 L 543.939393939394 368.0461359509086 L 538.8888888888889 363.87947917532136 L 533.8383838383838 369.49988724169447 L 528.7878787878788 369.50211273456694 L 523.7373737373737 370.4498759658639 L 518.6868686868687 368.2915633048866 L 513.6363636363636 370.53661084141436 L 508.5858585858586 371.8782269646651 L 503.5353535353535 368.7153861675232 L 498.4848484848485 369.1637487982338 L 493.4343434343434 370.60898386962765 L 488.3838383838384 369.7070954647423 L 483.3333333333333 370.0125221065625 L 478.2828282828283 373.0865212282347 L 473.2323232323232 374.5282548575091 L 468.1818181818182 374.5443377526676 L 463.1313131313131 373.61523898826124 L 458.0808080808081 372.9676799088438 L 453.030303030303 371.9739825046587 L 447.979797979798 374.1662116770127 L 442.9292929292929 375.2611838435152 L 437.8787878787879 377.4494961484137 L 432.8282828282828 376.33072604479474 L 427.77777777777777 376.16968938054146 L 422.72727272727275 371.80045340708125 L 417.67676767676767 374.55804678876217 L 412.62626262626264 371.40333645891445 L 407.57575757575756 371.85071987276115 L 402.52525252525254 373.4247664716146 L 397.47474747474746 376.05814767777235 L 392.4242424242424 376.8808382096355 L 387.37373737373736 371.69808073494676 L 382.32323232323233 375.4623980724264 L 377.27272727272725 377.84833414440186 L 372.22222222222223 379.14831871431795 L 367.1717171717172 376.8932119500065 L 362.1212121212121 378.67784952107394 L 357.07070707070704 378.5111155950671 L 352.020202020202 377.32023952237955 L 346.969696969697 380.7902576824014 L 341.9191919191919 381.82048284293364 L 336.86868686868684 380.55518628859005 L 331.8181818181818 382.3174799112177 L 326.7676767676768 383.52455757201693 L 321.7171717171717 381.48852832607326 L 316.66666666666663 383.46862351782175 L 311.6161616161616 383.44524100604144 L 306.5656565656566 384.67442522937415 L 301.5151515151515 384.91326512444954 L 296.4646464646464 385.5141185267831 L 291.4141414141414 385.2226976534403 L 286.3636363636364 385.0416315533347 L 281.3131313131313 385.5410915003976 L 276.26262626262627 386.264050278335 L 271.2121212121212 387.6894339533062 L 266.16161616161617 387.50869425882183 L 261.1111111111111 383.46657606437907 L 256.06060606060606 387.25270323200914 L 251.010101010101 389.8984878517762 L 245.95959595959596 387.5913045542486 L 240.9090909090909 389.60065755896073 L 235.85858585858585 391.08737581749773 L 230.8080808080808 388.9894185232223 L 225.75757575757575 389.74466178442987 L 220.7070707070707 391.62641986445266 L 215.65656565656565 391.0517382582996 L 210.6060606060606 391.1535174656681 L 205.55555555555554 392.067631244733 L 200.50505050505052 392.92094455852157 L 195.45454545454544 393.6095120532694 L 190.40404040404042 394.326061411734 L 185.35353535353534 394.93198893781675 L 180.3030303030303 394.25810969602736 L 175.25252525252526 395.2326975347474 L 170.2020202020202 396.8044592942517 L 165.15151515151516 397.13395093233316 L 160.1010101010101 398.27319557037896 L 155.05050505050505 399.2515519103631 L 150 399.99789320008074" /><text  class="poloto_text" alignment-baseline="middle" text-anchor="start" font-size="large" x="675" y="250" >direct_seq</text><line  class="poloto3stroke poloto3legend" stroke="black" x1="680" x2="730" y1="231.25" y2="231.25" /><path  class="poloto3stroke" fill="none" stroke="black" d=" M 650 314.03152484836977 L 644.9494949494949 305.46046931193695 L 639.8989898989898 315.38818530343855 L 634.8484848484848 312.45483733130766 L 629.7979797979798 312.3680727825189 L 624.7474747474747 314.9815729190158 L 619.6969696969697 320.9909971394998 L 614.6464646464647 308.83936095714 L 609.5959595959596 319.56214169564754 L 604.5454545454545 318.18708383283285 L 599.4949494949494 317.3394084343213 L 594.4444444444445 325.9659825996131 L 589.3939393939394 321.00547767979015 L 584.3434343434344 314.02965543435687 L 579.2929292929293 321.8685534889794 L 574.2424242424242 313.84746175119585 L 569.1919191919192 328.14530391330663 L 564.1414141414141 325.84188911704314 L 559.090909090909 327.08045008367856 L 554.040404040404 332.51916891194173 L 548.989898989899 329.9518700074776 L 543.939393939394 326.6159452113328 L 538.8888888888889 336.1466036011442 L 533.8383838383838 335.5828417466855 L 528.7878787878788 331.1275237089174 L 523.7373737373737 325.2303236756834 L 518.6868686868687 333.80600823729094 L 513.6363636363636 335.09836678496396 L 508.5858585858586 338.1141173398535 L 503.5353535353535 341.9603624882791 L 498.4848484848485 343.5502545963846 L 493.4343434343434 344.168615209315 L 488.3838383838384 336.07538782922455 L 483.3333333333333 335.6326037673143 L 478.2828282828283 343.65639576978316 L 473.2323232323232 344.23371829414486 L 468.1818181818182 348.20646045744263 L 463.1313131313131 341.6554402915099 L 458.0808080808081 349.1894754958398 L 453.030303030303 350.7882102289587 L 447.979797979798 350.55963727433505 L 442.9292929292929 351.35042907502583 L 437.8787878787879 343.22411603423103 L 432.8282828282828 352.00297325847765 L 427.77777777777777 351.68680490439283 L 422.72727272727275 350.36723599719886 L 417.67676767676767 351.51829058408805 L 412.62626262626264 349.2104841485561 L 407.57575757575756 352.6963478178301 L 402.52525252525254 354.83890398927014 L 397.47474747474746 357.38252364957094 L 392.4242424242424 356.3013198656396 L 387.37373737373736 348.9684395437443 L 382.32323232323233 358.99689617927385 L 377.27272727272725 360.27127274453716 L 372.22222222222223 361.7848749569738 L 367.1717171717172 361.64407544124106 L 362.1212121212121 358.9295676015715 L 357.07070707070704 360.99877152793437 L 352.020202020202 365.3766720869782 L 346.969696969697 361.704935252994 L 341.9191919191919 363.2125137980558 L 336.86868686868684 363.81336720038934 L 331.8181818181818 367.3111298382215 L 326.7676767676768 365.5922184899882 L 321.7171717171717 368.43197706852146 L 316.66666666666663 370.6200223142752 L 311.6161616161616 368.9840773403283 L 306.5656565656566 373.26227581868466 L 301.5151515151515 371.5384683861319 L 296.4646464646464 369.9578640016142 L 291.4141414141414 375.2986017970113 L 286.3636363636364 374.3152603529928 L 281.3131313131313 377.5314833058361 L 276.26262626262627 377.12896582829876 L 271.2121212121212 378.311889473122 L 266.16161616161617 379.41971015180826 L 261.1111111111111 380.4912701332922 L 256.06060606060606 379.05297859966055 L 251.010101010101 382.2184603150111 L 245.95959595959596 384.2037186502237 L 240.9090909090909 382.59898992296826 L 235.85858585858585 384.3553488979359 L 230.8080808080808 384.8912475816311 L 225.75757575757575 385.3563459187428 L 220.7070707070707 386.79793118182573 L 215.65656565656565 387.92041044023216 L 210.6060606060606 389.4879289266596 L 205.55555555555554 389.5575423437111 L 200.50505050505052 390.8058658057471 L 195.45454545454544 392.4855194597097 L 190.40404040404042 392.9444160900167 L 185.35353535353534 393.59868132129 L 180.3030303030303 394.23977163475803 L 175.25252525252526 395.23533845295606 L 170.2020202020202 396.17900677736765 L 165.15151515151516 397.1803005305575 L 160.1010101010101 398.2237896286097 L 155.05050505050505 399.2267450831444 L 150 399.9978635268424" /><text  class="poloto_text" alignment-baseline="middle" text-anchor="start" font-size="large" x="675" y="300" >indirect_par</text><line  class="poloto4stroke poloto4legend" stroke="black" x1="680" x2="730" y1="281.25" y2="281.25" /><path  class="poloto4stroke" fill="none" stroke="black" d=" M 650 352.08050943015513 L 644.9494949494949 349.63113197469465 L 639.8989898989898 351.339657689523 L 634.8484848484848 351.61327461988583 L 629.7979797979798 356.1015002789284 L 624.7474747474747 355.0361420042492 L 619.6969696969697 355.70352280685097 L 614.6464646464647 355.5811206988641 L 609.5959595959596 354.65911383841143 L 604.5454545454545 352.5032937294513 L 599.4949494949494 356.51428469691757 L 594.4444444444445 354.5868001566747 L 589.3939393939394 354.58920368897697 L 584.3434343434344 358.61787990646997 L 579.2929292929293 358.45642781688053 L 574.2424242424242 357.28593725890494 L 569.1919191919192 359.5793521738614 L 564.1414141414141 358.6990955596966 L 559.090909090909 361.57351248056403 L 554.040404040404 358.96084319473954 L 548.989898989899 358.8353847432078 L 543.939393939394 358.8633072604479 L 538.8888888888889 361.44401846862354 L 533.8383838383838 364.8277171784311 L 528.7878787878788 364.3790281420992 L 523.7373737373737 362.2059382084486 L 518.6868686868687 365.638508741736 L 513.6363636363636 360.9222739195974 L 508.5858585858586 365.40305159582675 L 503.5353535353535 366.78143286133104 L 498.4848484848485 366.80095785213234 L 493.4343434343434 364.2535696905675 L 488.3838383838384 365.36842292673083 L 483.3333333333333 364.97267094752584 L 478.2828282828283 367.3852535874945 L 473.2323232323232 368.0848001804133 L 468.1818181818182 367.79501133517704 L 463.1313131313131 368.3415330381835 L 458.0808080808081 368.54227249528196 L 453.030303030303 365.7220389075501 L 447.979797979798 370.19501252210654 L 442.9292929292929 370.58978528444766 L 437.8787878787879 373.12634271403306 L 432.8282828282828 371.6883479127844 L 427.77777777777777 369.3401265266881 L 422.72727272727275 367.8999952522819 L 417.67676767676767 367.9330512397479 L 412.62626262626264 369.9034432825723 L 407.57575757575756 370.54023097648695 L 402.52525252525254 371.207641452327 L 397.47474747474746 370.918772477478 L 392.4242424242424 370.52037958006434 L 387.37373737373736 371.3912594509264 L 382.32323232323233 373.03981555115075 L 377.27272727272725 371.34247664716145 L 372.22222222222223 371.8651113933366 L 367.1717171717172 369.976053696692 L 362.1212121212121 374.9983679718935 L 357.07070707070704 374.5851087820916 L 352.020202020202 375.8859538759184 L 346.969696969697 376.58920962362464 L 341.9191919191919 376.19170692335996 L 336.86868686868684 378.55568479899347 L 331.8181818181818 379.0373408030765 L 326.7676767676768 379.3599482498724 L 321.7171717171717 380.2277717771896 L 316.66666666666663 381.24820476908286 L 311.6161616161616 380.8900487828038 L 306.5656565656566 381.54603506189835 L 301.5151515151515 381.9117280507056 L 296.4646464646464 382.83103464647303 L 291.4141414141414 382.8202335877319 L 286.3636363636364 380.5430499341254 L 281.3131313131313 383.3885947941271 L 276.26262626262627 382.26237670769484 L 271.2121212121212 385.18062100153116 L 266.16161616161617 384.61395116971903 L 261.1111111111111 386.2798661143488 L 256.06060606060606 386.4118823515448 L 251.010101010101 387.4470035963965 L 245.95959595959596 385.05002907977354 L 240.9090909090909 384.46184615019405 L 235.85858585858585 387.61821818138657 L 230.8080808080808 384.4035679101732 L 225.75757575757575 388.31930778269697 L 220.7070707070707 390.92912843764464 L 215.65656565656565 389.48953128152783 L 210.6060606060606 390.0218098301504 L 205.55555555555554 390.9213243759718 L 200.50505050505052 392.4248673606248 L 195.45454545454544 392.90397146621405 L 190.40404040404042 393.9994480777676 L 185.35353535353534 394.31445917555874 L 180.3030303030303 393.56455709724514 L 175.25252525252526 394.65211095417266 L 170.2020202020202 396.2563055631387 L 165.15151515151516 396.9694721724371 L 160.1010101010101 398.10536373455506 L 155.05050505050505 399.11834874363507 L 150 399.9978635268424" /><text  class="poloto_text" alignment-baseline="middle" text-anchor="start" font-size="large" x="675" y="350" >indirect_seq</text><line  class="poloto5stroke poloto5legend" stroke="black" x1="680" x2="730" y1="331.25" y2="331.25" /><path  class="poloto5stroke" fill="none" stroke="black" d=" M 650 292.39976380102314 L 644.9494949494949 293.73197350773285 L 639.8989898989898 305.46376304138823 L 634.8484848484848 302.4588135452398 L 629.7979797979798 307.0245160294833 L 624.7474747474747 298.9999525228187 L 619.6969696969697 304.424131464315 L 614.6464646464647 303.80354535851205 L 609.5959595959596 304.5143381087465 L 604.5454545454545 297.7083358061032 L 599.4949494949494 100 L 594.4444444444445 309.8037708751231 L 589.3939393939394 307.9763444944274 L 584.3434343434344 306.60179107666374 L 579.2929292929293 316.69754661665735 L 574.2424242424242 312.25050741237493 L 569.1919191919192 315.4572349289623 L 564.1414141414141 319.2974860832512 L 559.090909090909 315.16498320494713 L 554.040404040404 316.2870767112556 L 548.989898989899 316.8917876345681 L 543.939393939394 322.71231202003537 L 538.8888888888889 319.82320684620953 L 533.8383838383838 328.08669926766447 L 528.7878787878788 317.90863016462714 L 523.7373737373737 324.2699196448707 L 518.6868686868687 325.3337942576349 L 513.6363636363636 332.6351022539792 L 508.5858585858586 332.5152817177244 L 503.5353535353535 327.76382476172387 L 498.4848484848485 329.3969507780323 L 493.4343434343434 327.09549441549655 L 488.3838383838384 338.2440267771302 L 483.3333333333333 337.96049898517526 L 478.2828282828283 337.64329206774994 L 473.2323232323232 335.4522498249279 L 468.1818181818182 342.1010136378203 L 463.1313131313131 337.6132924238288 L 458.0808080808081 338.8953246845735 L 453.030303030303 345.43649333539065 L 447.979797979798 338.927342108699 L 442.9292929292929 343.4407010005816 L 437.8787878787879 347.88940190620883 L 432.8282828282828 345.00439163926836 L 427.77777777777777 349.07374986647045 L 422.72727272727275 343.2789521786092 L 417.67676767676767 343.9410808180318 L 412.62626262626264 348.11067524421077 L 407.57575757575756 349.09090099820776 L 402.52525252525254 348.0696965021187 L 397.47474747474746 348.50467650235606 L 392.4242424242424 349.97602402345376 L 387.37373737373736 350.72408636099277 L 382.32323232323233 352.9494011940511 L 377.27272727272725 353.5170799159654 L 372.22222222222223 349.68596811907275 L 367.1717171717172 356.17049055797554 L 362.1212121212121 358.742477834091 L 357.07070707070704 355.48444528848324 L 352.020202020202 360.1596716952914 L 346.969696969697 360.13379663149396 L 341.9191919191919 355.08560729249507 L 336.86868686868684 358.35378808560137 L 331.8181818181818 363.13749985163383 L 326.7676767676768 361.2031014468671 L 321.7171717171717 362.054960771979 L 316.66666666666663 364.9972997353147 L 311.6161616161616 363.3980308839064 L 306.5656565656566 369.3591470724383 L 301.5151515151515 365.6261646746033 L 296.4646464646464 371.58742922932663 L 291.4141414141414 372.0731207938185 L 286.3636363636364 368.6813509631933 L 281.3131313131313 373.9838102811836 L 276.26262626262627 371.14304281254823 L 271.2121212121212 373.35058337586497 L 266.16161616161617 376.0101660514415 L 261.1111111111111 375.3253373847195 L 256.06060606060606 379.2780797854031 L 251.010101010101 380.42269527958126 L 245.95959595959596 381.9617868037175 L 240.9090909090909 380.96705083619185 L 235.85858585858585 383.1891016130372 L 230.8080808080808 383.9492706318026 L 225.75757575757575 384.7576289895669 L 220.7070707070707 383.2972012201636 L 215.65656565656565 385.44610746459983 L 210.6060606060606 388.1077969400957 L 205.55555555555554 388.74894660004037 L 200.50505050505052 389.6032984771694 L 195.45454545454544 390.86574640063617 L 190.40404040404042 392.3492896226751 L 185.35353535353534 392.6401467044902 L 180.3030303030303 393.35292756169065 L 175.25252525252526 394.62955929306474 L 170.2020202020202 396.0600764382619 L 165.15151515151516 396.96267700086645 L 160.1010101010101 398.1019216389123 L 155.05050505050505 399.07713261563663 L 150 399.9981009127488" /><text  class="poloto_text" alignment-baseline="start" text-anchor="middle" font-size="x-large" x="400" y="37.5" >Bench of query:32_bytes with abspiral(num,1.5)</text><text  class="poloto_text" alignment-baseline="start" text-anchor="middle" font-size="x-large" x="400" y="481.25" >Number of Elements</text><text  class="poloto_text" alignment-baseline="start" text-anchor="middle" font-size="x-large" transform="rotate(-90,37.5,250)" x="37.5" y="250" >Time in Seconds</text><line  class="poloto_axis_lines" stroke="black" x1="150" x2="150" y1="400" y2="405" /><text  class="poloto_text" alignment-baseline="start" text-anchor="middle" x="150" y="430" > 0</text><line  class="poloto_axis_lines" stroke="black" x1="234.17508417508418" x2="234.17508417508418" y1="400" y2="405" /><text  class="poloto_text" alignment-baseline="start" text-anchor="middle" x="234.17508417508418" y="430" > 5000</text><line  class="poloto_axis_lines" stroke="black" x1="318.35016835016836" x2="318.35016835016836" y1="400" y2="405" /><text  class="poloto_text" alignment-baseline="start" text-anchor="middle" x="318.35016835016836" y="430" > 10000</text><line  class="poloto_axis_lines" stroke="black" x1="402.52525252525254" x2="402.52525252525254" y1="400" y2="405" /><text  class="poloto_text" alignment-baseline="start" text-anchor="middle" x="402.52525252525254" y="430" > 15000</text><line  class="poloto_axis_lines" stroke="black" x1="486.7003367003367" x2="486.7003367003367" y1="400" y2="405" /><text  class="poloto_text" alignment-baseline="start" text-anchor="middle" x="486.7003367003367" y="430" > 20000</text><line  class="poloto_axis_lines" stroke="black" x1="570.8754208754208" x2="570.8754208754208" y1="400" y2="405" /><text  class="poloto_text" alignment-baseline="start" text-anchor="middle" x="570.8754208754208" y="430" > 25000</text><line  class="poloto_axis_lines" stroke="black" x1="150" x2="144" y1="400" y2="400" /><text  class="poloto_text" alignment-baseline="middle" text-anchor="end" x="135" y="400" > 0e0</text><line  class="poloto_axis_lines" stroke="black" x1="150" x2="144" y1="340.65352340031575" y2="340.65352340031575" /><text  class="poloto_text" alignment-baseline="middle" text-anchor="end" x="135" y="340.65352340031575" > 0.002</text><line  class="poloto_axis_lines" stroke="black" x1="150" x2="144" y1="281.30704680063144" y2="281.30704680063144" /><text  class="poloto_text" alignment-baseline="middle" text-anchor="end" x="135" y="281.30704680063144" > 0.004</text><line  class="poloto_axis_lines" stroke="black" x1="150" x2="144" y1="221.96057020094713" y2="221.96057020094713" /><text  class="poloto_text" alignment-baseline="middle" text-anchor="end" x="135" y="221.96057020094713" > 0.006</text><line  class="poloto_axis_lines" stroke="black" x1="150" x2="144" y1="162.61409360126288" y2="162.61409360126288" /><text  class="poloto_text" alignment-baseline="middle" text-anchor="end" x="135" y="162.61409360126288" > 0.008</text><line  class="poloto_axis_lines" stroke="black" x1="150" x2="144" y1="103.26761700157863" y2="103.26761700157863" /><text  class="poloto_text" alignment-baseline="middle" text-anchor="end" x="135" y="103.26761700157863" > 0.010</text><path  stroke="black" fill="none" class="poloto_axis_lines" style="stroke-dasharray:8.417508417508419;stroke-dashoffset:-0;" d=" M 150 400 L 650 400" /><path  stroke="black" fill="none" class="poloto_axis_lines" style="stroke-dasharray:14.83661914992107;stroke-dashoffset:-0;" d=" M 150 400 L 150 100" /></svg>