<svg class="poloto" height="500" viewBox="0 0 800 500" width="800" xmlns="http://www.w3.org/2000/svg">
<rect class="poloto_background" fill="white" height="500" width="800" x="0" y="0"/>
<style>
.poloto {
font-family: "Arial";
stroke-width:2;
}
.poloto_text{fill: var(--poloto_fg_color,black);  }
.poloto_axis_lines{stroke: var(--poloto_fg_color,black);stoke-width:3;fill:none}
.poloto_background{fill: var(--poloto_bg_color,aliceblue); }
.poloto0stroke{stroke:  var(--poloto_color0,blue); }
.poloto1stroke{stroke:  var(--poloto_color1,red); }
.poloto2stroke{stroke:  var(--poloto_color2,green); }
.poloto3stroke{stroke:  var(--poloto_color3,gold); }
.poloto4stroke{stroke:  var(--poloto_color4,aqua); }
.poloto5stroke{stroke:  var(--poloto_color5,brown); }
.poloto6stroke{stroke:  var(--poloto_color6,lime); }
.poloto7stroke{stroke:  var(--poloto_color7,chocolate); }
.poloto0fill{fill:var(--poloto_color0,blue);}
.poloto1fill{fill:var(--poloto_color1,red);}
.poloto2fill{fill:var(--poloto_color2,green);}
.poloto3fill{fill:var(--poloto_color3,gold);}
.poloto4fill{fill:var(--poloto_color4,aqua);}
.poloto5fill{fill:var(--poloto_color5,brown);}
.poloto6fill{fill:var(--poloto_color6,lime);}
.poloto7fill{fill:var(--poloto_color7,chocolate);}
</style>
<line class="poloto_axis_lines" stroke="black" x1="150" x2="150" y1="400" y2="405"/>
<text alignment-baseline="start" class="poloto_text" text-anchor="middle" x="150" y="440">
0
</text>
<line class="poloto_axis_lines" stroke="black" x1="234.17508" x2="234.17508" y1="400" y2="405"/>
<text alignment-baseline="start" class="poloto_text" text-anchor="middle" x="234.17508" y="440">
5000
</text>
<line class="poloto_axis_lines" stroke="black" x1="318.35016" x2="318.35016" y1="400" y2="405"/>
<text alignment-baseline="start" class="poloto_text" text-anchor="middle" x="318.35016" y="440">
10000
</text>
<line class="poloto_axis_lines" stroke="black" x1="402.52527" x2="402.52527" y1="400" y2="405"/>
<text alignment-baseline="start" class="poloto_text" text-anchor="middle" x="402.52527" y="440">
15000
</text>
<line class="poloto_axis_lines" stroke="black" x1="486.70035" x2="486.70035" y1="400" y2="405"/>
<text alignment-baseline="start" class="poloto_text" text-anchor="middle" x="486.70035" y="440">
20000
</text>
<line class="poloto_axis_lines" stroke="black" x1="570.8754" x2="570.8754" y1="400" y2="405"/>
<text alignment-baseline="start" class="poloto_text" text-anchor="middle" x="570.8754" y="440">
25000
</text>
<line class="poloto_axis_lines" stroke="black" x1="150" x2="144" y1="362.4451" y2="362.4451"/>
<text alignment-baseline="middle" class="poloto_text" text-anchor="end" x="120" y="362.4451">
0.002
</text>
<line class="poloto_axis_lines" stroke="black" x1="150" x2="144" y1="324.88672" y2="324.88672"/>
<text alignment-baseline="middle" class="poloto_text" text-anchor="end" x="120" y="324.88672">
0.004
</text>
<line class="poloto_axis_lines" stroke="black" x1="150" x2="144" y1="287.3283" y2="287.3283"/>
<text alignment-baseline="middle" class="poloto_text" text-anchor="end" x="120" y="287.3283">
0.006
</text>
<line class="poloto_axis_lines" stroke="black" x1="150" x2="144" y1="249.76996" y2="249.76996"/>
<text alignment-baseline="middle" class="poloto_text" text-anchor="end" x="120" y="249.76996">
0.008
</text>
<line class="poloto_axis_lines" stroke="black" x1="150" x2="144" y1="212.21155" y2="212.21155"/>
<text alignment-baseline="middle" class="poloto_text" text-anchor="end" x="120" y="212.21155">
0.010
</text>
<line class="poloto_axis_lines" stroke="black" x1="150" x2="144" y1="174.65317" y2="174.65317"/>
<text alignment-baseline="middle" class="poloto_text" text-anchor="end" x="120" y="174.65317">
0.012
</text>
<line class="poloto_axis_lines" stroke="black" x1="150" x2="144" y1="137.09479" y2="137.09479"/>
<text alignment-baseline="middle" class="poloto_text" text-anchor="end" x="120" y="137.09479">
0.014
</text>
<text alignment-baseline="middle" class="poloto_text" font-size="large" text-anchor="start" x="675" y="100">
default_par
</text>
<line class="poloto0stroke" x1="680" x2="730" y1="81.25" y2="81.25"/>
<polyline class="poloto0stroke" fill="none" points="650,376.64517 644.94946,378.53577 639.899,375.48483 634.8485,377.62418 629.798,377.92023 624.7475,378.0399 619.697,362.28983 614.6465,378.20224 609.59595,378.13132 604.5455,373.56042 599.495,380.36514 594.44446,377.95383 589.3939,378.75095 584.34344,372.0267 579.29297,373.6798 574.24243,378.23035 569.1919,378.95572 564.1414,379.7227 559.09094,381.34863 554.0404,381.82736 548.98987,380.45288 543.9394,372.85715 538.8889,381.71005 533.8384,382.11084 528.78784,381.68765 523.73737,380.06345 518.6869,382.82388 513.63635,381.78104 508.58588,381.97012 503.53537,384.5638 498.48486,383.40222 493.43436,383.67618 488.38385,384.18027 483.33334,384.92612 478.28284,384.0037 473.23233,382.89078 468.18182,384.76437 463.13132,385.46103 458.0808,386.1501 453.0303,384.52 447.9798,375.1452 442.9293,385.4585 437.87878,375.95743 432.82828,385.5648 427.77777,386.4491 422.72726,386.7927 417.67676,387.647 412.62628,385.68842 407.57578,386.91742 402.52527,388.02994 397.47473,387.03006 392.42426,387.69083 387.37375,384.72308 382.32324,387.93982 377.27274,390.02777 372.22223,390.44922 367.17172,389.7202 362.12122,389.31052 357.0707,388.98175 352.0202,388.67783 346.9697,389.49243 341.9192,391.22968 336.86868,390.193 331.81818,391.31842 326.7677,390.72427 321.71716,391.5356 316.6667,389.67584 311.61615,389.3949 306.56567,386.92273 301.51514,387.59677 296.46466,392.207 291.41412,391.9979 286.36365,392.05554 281.31314,392.37054 276.26263,392.4531 271.21213,391.94852 266.16162,392.45053 261.1111,393.67285 256.0606,394.40448 251.0101,394.06314 245.9596,392.57504 240.90909,394.7976 235.85858,393.05222 230.80807,394.83707 225.75757,395.08282 220.70706,395.2937 215.65657,392.59656 210.60606,392.55212 205.55556,392.82684 200.50505,393.20972 195.45454,394.3937 190.40404,393.61914 185.35353,393.92184 180.30302,397.20584 175.25253,397.66727 170.20203,398.07413 165.15152,398.74393 160.10101,399.121 155.0505,399.60468 150,400 " stroke="black"/>
<text alignment-baseline="middle" class="poloto_text" font-size="large" text-anchor="start" x="675" y="150">
default_seq
</text>
<line class="poloto1stroke" x1="680" x2="730" y1="131.25" y2="131.25"/>
<polyline class="poloto1stroke" fill="none" points="650,340.37573 644.94946,340.81274 639.899,341.24887 634.8485,340.94815 629.798,341.9915 624.7475,342.5097 619.697,343.92023 614.6465,344.55264 609.59595,344.52853 604.5455,344.98404 599.495,346.59344 594.44446,345.76456 589.3939,347.924 584.34344,347.3087 579.29297,348.7382 574.24243,348.5795 569.1919,348.2283 564.1414,349.34232 559.09094,350.66394 554.0404,350.45248 548.98987,352.06363 543.9394,352.43567 538.8889,353.2049 533.8384,353.71222 528.78784,353.82626 523.73737,354.773 518.6869,355.52087 513.63635,356.64636 508.58588,356.17368 503.53537,357.00287 498.48486,357.93054 493.43436,358.13617 488.38385,358.70624 483.33334,360.0937 478.28284,360.0373 473.23233,361.29895 468.18182,361.7871 463.13132,362.106 458.0808,362.50574 453.0303,362.8836 447.9798,363.73743 442.9293,364.73328 437.87878,364.8735 432.82828,365.6585 427.77777,366.0507 422.72726,369.89227 417.67676,369.7946 412.62628,370.92157 407.57578,370.44717 402.52527,371.7002 397.47473,371.84283 392.42426,372.15387 387.37375,373.29376 382.32324,373.92615 377.27274,374.47968 372.22223,374.22345 367.17172,375.78168 362.12122,376.38254 357.0707,376.2876 352.0202,377.13297 346.9697,377.73578 341.9192,377.9487 336.86868,379.08395 331.81818,379.01202 326.7677,379.716 321.71716,380.10535 316.6667,380.7117 311.61615,381.89185 306.56567,381.96042 301.51514,382.33127 296.46466,383.18143 291.41412,383.7771 286.36365,385.69922 281.31314,386.19153 276.26263,386.76184 271.21213,387.09076 266.16162,387.62015 261.1111,387.94568 256.0606,388.6629 251.0101,389.11414 245.9596,389.7428 240.90909,390.41318 235.85858,390.7114 230.80807,391.38382 225.75757,391.89127 220.70706,392.2928 215.65657,393.28888 210.60606,394.00552 205.55556,394.42932 200.50505,394.90897 195.45454,395.37213 190.40404,395.76306 185.35353,396.18167 180.30302,397.07028 175.25253,397.4491 170.20203,397.92322 165.15152,398.64526 160.10101,399.0697 155.0505,399.55835 150,399.99994 " stroke="black"/>
<text alignment-baseline="middle" class="poloto_text" font-size="large" text-anchor="start" x="675" y="200">
direct_par
</text>
<line class="poloto2stroke" x1="680" x2="730" y1="181.25" y2="181.25"/>
<polyline class="poloto2stroke" fill="none" points="650,233.3542 644.94946,301.60645 639.899,297.11697 634.8485,297.38235 629.798,304.8754 624.7475,262.87524 619.697,307.01556 614.6465,122.01047 609.59595,298.26462 604.5455,305.63312 599.495,312.92044 594.44446,307.85187 589.3939,314.841 584.34344,282.0392 579.29297,311.48904 574.24243,309.95215 569.1919,311.62564 564.1414,319.59134 559.09094,321.13586 554.0404,326.49713 548.98987,321.45914 543.9394,323.58298 538.8889,321.095 533.8384,331.40195 528.78784,332.9378 523.73737,333.15698 518.6869,334.838 513.63635,330.79956 508.58588,336.2747 503.53537,337.30844 498.48486,337.75824 493.43436,336.60037 488.38385,340.14117 483.33334,345.88046 478.28284,340.11166 473.23233,336.58237 468.18182,331.09 463.13132,330.70084 458.0808,340.3158 453.0303,344.257 447.9798,334.62555 442.9293,343.53864 437.87878,347.0677 432.82828,352.29205 427.77777,350.01892 422.72726,354.09036 417.67676,353.98047 412.62628,357.03232 407.57578,352.2712 402.52527,351.80316 397.47473,357.307 392.42426,354.09814 387.37375,357.58307 382.32324,358.7811 377.27274,357.22443 372.22223,358.1794 367.17172,357.77582 362.12122,361.81277 357.0707,362.32242 352.0202,360.38666 346.9697,363.66086 341.9192,365.49023 336.86868,368.3783 331.81818,366.2196 326.7677,368.79355 321.71716,366.05408 316.6667,368.79355 311.61615,369.99094 306.56567,370.96423 301.51514,361.02893 296.46466,371.08026 291.41412,373.31424 286.36365,375.1579 281.31314,376.45673 276.26263,378.2044 271.21213,375.42404 266.16162,363.1481 261.1111,376.72745 256.0606,379.00623 251.0101,380.45963 245.9596,371.84894 240.90909,380.9405 235.85858,384.4061 230.80807,383.9089 225.75757,382.45758 220.70706,385.32907 215.65657,382.13245 210.60606,383.4221 205.55556,385.5353 200.50505,385.36377 195.45454,385.87997 190.40404,387.81857 185.35353,388.30127 180.30302,389.63812 175.25253,391.42047 170.20203,393.00705 165.15152,395.47726 160.10101,396.72272 155.0505,398.6115 150,399.9972 " stroke="black"/>
<text alignment-baseline="middle" class="poloto_text" font-size="large" text-anchor="start" x="675" y="250">
direct_seq
</text>
<line class="poloto3stroke" x1="680" x2="730" y1="231.25" y2="231.25"/>
<polyline class="poloto3stroke" fill="none" points="650,100 644.94946,124.72089 639.899,132.72037 634.8485,133.9002 629.798,134.29898 624.7475,140.0036 619.697,148.10657 614.6465,114.93054 609.59595,130.58109 604.5455,149.5663 599.495,164.60605 594.44446,160.496 589.3939,167.64568 584.34344,168.79085 579.29297,157.78728 574.24243,172.25763 569.1919,166.21002 564.1414,179.31952 559.09094,186.37401 554.0404,188.0544 548.98987,195.91508 543.9394,194.36685 538.8889,188.67842 533.8384,204.61111 528.78784,204.64333 523.73737,211.80971 518.6869,212.93062 513.63635,220.95705 508.58588,214.73566 503.53537,217.5745 498.48486,226.39476 493.43436,227.85979 488.38385,230.16942 483.33334,235.08296 478.28284,235.53719 473.23233,238.7295 468.18182,244.03197 463.13132,245.71198 458.0808,244.67024 453.0303,248.60025 447.9798,251.90671 442.9293,254.49918 437.87878,257.97302 432.82828,259.84082 427.77777,262.96515 422.72726,278.01764 417.67676,276.15692 412.62628,282.2389 407.57578,279.98383 402.52527,285.40552 397.47473,285.73126 392.42426,286.94617 387.37375,291.83618 382.32324,294.79266 377.27274,297.20044 372.22223,297.02405 367.17172,303.0333 362.12122,304.75244 357.0707,304.3597 352.0202,306.81967 346.9697,311.1707 341.9192,311.12198 336.86868,315.60144 331.81818,315.5487 326.7677,318.46356 321.71716,320.94186 316.6667,323.3037 311.61615,328.4596 306.56567,329.26926 301.51514,328.81534 296.46466,332.5045 291.41412,335.86237 286.36365,342.5245 281.31314,344.12418 276.26263,346.85815 271.21213,348.15793 266.16162,350.31702 261.1111,351.62012 256.0606,354.96014 251.0101,356.00684 245.9596,359.80402 240.90909,362.21393 235.85858,363.05206 230.80807,366.42676 225.75757,368.34888 220.70706,370.14944 215.65657,374.24075 210.60606,376.5274 205.55556,378.4103 200.50505,380.1352 195.45454,382.24017 190.40404,384.06375 185.35353,385.5575 180.30302,388.69434 175.25253,390.52722 170.20203,392.40424 165.15152,395.02997 160.10101,396.5124 155.0505,398.2696 150,399.99875 " stroke="black"/>
<text alignment-baseline="middle" class="poloto_text" font-size="large" text-anchor="start" x="675" y="300">
indirect_par
</text>
<line class="poloto4stroke" x1="680" x2="730" y1="281.25" y2="281.25"/>
<polyline class="poloto4stroke" fill="none" points="650,366.7085 644.94946,369.0932 639.899,368.604 634.8485,370.2662 629.798,368.83252 624.7475,369.54572 619.697,372.5029 614.6465,366.20242 609.59595,357.44574 604.5455,370.24203 599.495,369.93182 594.44446,372.09735 589.3939,374.5847 584.34344,362.14343 579.29297,374.5945 574.24243,366.90314 569.1919,373.97498 564.1414,375.45987 559.09094,375.67993 554.0404,370.53363 548.98987,375.51486 543.9394,375.84448 538.8889,375.9165 533.8384,376.60947 528.78784,377.24127 523.73737,377.85815 518.6869,379.07437 513.63635,376.53683 508.58588,378.81943 503.53537,378.18884 498.48486,379.59818 493.43436,378.60468 488.38385,380.80878 483.33334,382.42426 478.28284,380.2102 473.23233,379.59558 468.18182,378.47592 463.13132,381.40262 458.0808,382.56482 453.0303,382.42004 447.9798,380.8406 442.9293,380.75528 437.87878,381.82498 432.82828,382.7408 427.77777,381.19424 422.72726,383.67175 417.67676,383.94904 412.62628,385.44992 407.57578,384.45636 402.52527,384.44724 397.47473,383.9925 392.42426,384.47815 387.37375,386.9293 382.32324,385.36606 377.27274,387.76837 372.22223,388.54404 367.17172,388.17487 362.12122,386.3382 357.0707,385.28052 352.0202,386.42365 346.9697,386.76428 341.9192,385.69327 336.86868,386.57678 331.81818,387.9335 326.7677,389.73853 321.71716,390.01175 316.6667,390.07947 311.61615,390.21484 306.56567,389.99295 301.51514,385.7119 296.46466,391.07813 291.41412,391.2254 286.36365,388.64227 281.31314,388.8829 276.26263,390.01996 271.21213,390.68942 266.16162,390.4062 261.1111,392.43954 256.0606,393.79105 251.0101,392.94196 245.9596,393.95502 240.90909,394.45334 235.85858,394.5994 230.80807,394.82803 225.75757,393.86716 220.70706,395.12814 215.65657,393.02322 210.60606,392.53363 205.55556,392.8326 200.50505,393.15305 195.45454,394.20694 190.40404,393.60074 185.35353,395.0795 180.30302,397.4141 175.25253,397.87347 170.20203,398.26758 165.15152,398.8792 160.10101,399.21524 155.0505,399.66058 150,399.99954 " stroke="black"/>
<text alignment-baseline="middle" class="poloto_text" font-size="large" text-anchor="start" x="675" y="350">
indirect_seq
</text>
<line class="poloto5stroke" x1="680" x2="730" y1="331.25" y2="331.25"/>
<polyline class="poloto5stroke" fill="none" points="650,257.0573 644.94946,314.91467 639.899,323.0266 634.8485,322.18924 629.798,320.4303 624.7475,322.93115 619.697,322.5638 614.6465,316.93994 609.59595,319.97485 604.5455,326.97476 599.495,329.9769 594.44446,329.15698 589.3939,334.5864 584.34344,335.84613 579.29297,327.95697 574.24243,326.37854 569.1919,333.7466 564.1414,338.02017 559.09094,340.4999 554.0404,336.81027 548.98987,340.2664 543.9394,344.1534 538.8889,346.0235 533.8384,346.42166 528.78784,347.47867 523.73737,348.37344 518.6869,349.67075 513.63635,351.3825 508.58588,349.68958 503.53537,351.73358 498.48486,353.78613 493.43436,353.5031 488.38385,353.9572 483.33334,356.31262 478.28284,352.6217 473.23233,355.60272 468.18182,358.09534 463.13132,358.52783 458.0808,356.55777 453.0303,358.02173 447.9798,357.14703 442.9293,361.22745 437.87878,361.92065 432.82828,363.34482 427.77777,363.48523 422.72726,367.80963 417.67676,367.10938 412.62628,369.31577 407.57578,368.57516 402.52527,368.40405 397.47473,370.12134 392.42426,368.2382 387.37375,370.47952 382.32324,371.4209 377.27274,371.23398 372.22223,371.81714 367.17172,373.08563 362.12122,373.87015 357.0707,373.448 352.0202,374.65533 346.9697,375.38132 341.9192,375.2286 336.86868,376.90118 331.81818,376.64294 326.7677,378.62152 321.71716,378.85724 316.6667,379.7256 311.61615,381.0754 306.56567,381.19345 301.51514,381.4863 296.46466,382.67535 291.41412,383.23364 286.36365,385.0814 281.31314,385.56482 276.26263,386.22583 271.21213,386.4097 266.16162,386.74854 261.1111,387.466 256.0606,388.28995 251.0101,388.7506 245.9596,389.57 240.90909,390.24564 235.85858,390.5464 230.80807,391.36136 225.75757,391.73727 220.70706,392.0868 215.65657,393.22006 210.60606,393.7965 205.55556,394.45258 200.50505,394.8795 195.45454,395.3328 190.40404,395.70294 185.35353,396.34955 180.30302,397.23367 175.25253,397.65982 170.20203,398.1755 165.15152,398.77707 160.10101,399.1671 155.0505,399.61584 150,399.99948 " stroke="black"/>
<text alignment-baseline="start" class="poloto_text" font-size="x-large" text-anchor="middle" x="400" y="37.5">
Bench of rebal:256_bytes with abspiral(num,0.1)
</text>
<text alignment-baseline="start" class="poloto_text" font-size="large" text-anchor="middle" x="400" y="481.25">
Number of Elements
</text>
<text alignment-baseline="start" class="poloto_text" font-size="large" text-anchor="middle" transform="rotate(-90,37.5,250)" x="37.5" y="250">
Time in Seconds
</text>
<path class="poloto_axis_lines" d="M150,100 L150,400 L650,400" stroke="black"/>
</svg>