<svg class="poloto" width="800" height="500" viewBox="0 0 800 500" xmlns="http://www.w3.org/2000/svg" ><style><style>.poloto {
            font-family: "Arial";
            stroke-width:2;
            }
            .poloto_text{fill: var(--poloto_fg_color,black);  }
            .poloto_axis_lines{stroke: var(--poloto_fg_color,black);stoke-width:3;fill:none}
            .poloto_background{fill: var(--poloto_bg_color,aliceblue); }
            .poloto0stroke{stroke:  var(--poloto_color0,blue); }
            .poloto1stroke{stroke:  var(--poloto_color1,red); }
            .poloto2stroke{stroke:  var(--poloto_color2,green); }
            .poloto3stroke{stroke:  var(--poloto_color3,gold); }
            .poloto4stroke{stroke:  var(--poloto_color4,aqua); }
            .poloto5stroke{stroke:  var(--poloto_color5,brown); }
            .poloto6stroke{stroke:  var(--poloto_color6,lime); }
            .poloto7stroke{stroke:  var(--poloto_color7,chocolate); }
            .poloto0fill{fill:var(--poloto_color0,blue);}
            .poloto1fill{fill:var(--poloto_color1,red);}
            .poloto2fill{fill:var(--poloto_color2,green);}
            .poloto3fill{fill:var(--poloto_color3,gold);}
            .poloto4fill{fill:var(--poloto_color4,aqua);}
            .poloto5fill{fill:var(--poloto_color5,brown);}
            .poloto6fill{fill:var(--poloto_color6,lime);}
            .poloto7fill{fill:var(--poloto_color7,chocolate);}</style></style><rect class="poloto_background" fill="white" x="0" y="0" width="800" height="500" /><line class="poloto_axis_lines" stroke="black" x1="150" x2="150" y1="400" y2="405" /><text class="poloto_text" alignment-baseline="start" text-anchor="middle" x="150" y="430" >0</text><line class="poloto_axis_lines" stroke="black" x1="234.17508417508418" x2="234.17508417508418" y1="400" y2="405" /><text class="poloto_text" alignment-baseline="start" text-anchor="middle" x="234.17508417508418" y="430" >5000</text><line class="poloto_axis_lines" stroke="black" x1="318.35016835016836" x2="318.35016835016836" y1="400" y2="405" /><text class="poloto_text" alignment-baseline="start" text-anchor="middle" x="318.35016835016836" y="430" >10000</text><line class="poloto_axis_lines" stroke="black" x1="402.52525252525254" x2="402.52525252525254" y1="400" y2="405" /><text class="poloto_text" alignment-baseline="start" text-anchor="middle" x="402.52525252525254" y="430" >15000</text><line class="poloto_axis_lines" stroke="black" x1="486.7003367003367" x2="486.7003367003367" y1="400" y2="405" /><text class="poloto_text" alignment-baseline="start" text-anchor="middle" x="486.7003367003367" y="430" >20000</text><line class="poloto_axis_lines" stroke="black" x1="570.8754208754208" x2="570.8754208754208" y1="400" y2="405" /><text class="poloto_text" alignment-baseline="start" text-anchor="middle" x="570.8754208754208" y="430" >25000</text><line class="poloto_axis_lines" stroke="black" x1="150" x2="144" y1="356.78827837350406" y2="356.78827837350406" /><text class="poloto_text" alignment-baseline="middle" text-anchor="end" x="135" y="356.78827837350406" >0.002</text><line class="poloto_axis_lines" stroke="black" x1="150" x2="144" y1="313.5733156248019" y2="313.5733156248019" /><text class="poloto_text" alignment-baseline="middle" text-anchor="end" x="135" y="313.5733156248019" >0.004</text><line class="poloto_axis_lines" stroke="black" x1="150" x2="144" y1="270.35835287609984" y2="270.35835287609984" /><text class="poloto_text" alignment-baseline="middle" text-anchor="end" x="135" y="270.35835287609984" >0.006</text><line class="poloto_axis_lines" stroke="black" x1="150" x2="144" y1="227.1433901273977" y2="227.1433901273977" /><text class="poloto_text" alignment-baseline="middle" text-anchor="end" x="135" y="227.1433901273977" >0.008</text><line class="poloto_axis_lines" stroke="black" x1="150" x2="144" y1="183.92842737869557" y2="183.92842737869557" /><text class="poloto_text" alignment-baseline="middle" text-anchor="end" x="135" y="183.92842737869557" >0.010</text><line class="poloto_axis_lines" stroke="black" x1="150" x2="144" y1="140.7134646299935" y2="140.7134646299935" /><text class="poloto_text" alignment-baseline="middle" text-anchor="end" x="135" y="140.7134646299935" >0.012</text><text class="poloto_text" alignment-baseline="middle" text-anchor="start" font-size="large" x="675" y="100" >default_par</text><line class="poloto0stroke" stroke="black" x1="680" x2="730" y1="81.25" y2="81.25" /><polyline class="poloto0stroke" fill="none" stroke="black"  points="650,367.93177509780986 644.9494949494949,373.44544255002853 639.8989898989898,372.95501754527487 634.8484848484848,373.4796904080069 629.7979797979798,373.79593750540187 624.7474747474747,363.69286261675245 619.6969696969697,373.64356154674994 614.6464646464647,373.23515854129334 609.5959595959596,370.17685723504906 604.5454545454545,376.01569567447035 599.4949494949494,361.05458914094413 594.4444444444445,372.4578077913697 589.3939393939394,367.74958081486136 584.3434343434344,348.7480913391453 579.2929292929293,371.2873953477652 574.2424242424242,372.3669915471533 569.1919191919192,376.51145772712346 564.1414141414141,371.2019809738924 559.090909090909,376.8738367972527 554.040404040404,378.9063661402124 548.989898989899,377.77789381795554 543.939393939394,376.455213453106 538.8888888888889,367.5413495168567 533.8383838383838,332.8463247114681 528.7878787878788,351.66395612816984 523.7373737373737,335.5675493082725 518.6868686868687,363.64238754026195 513.6363636363636,295.7982451844126 508.5858585858586,354.0833242101745 503.5353535353535,363.328106723672 498.4848484848485,352.6998403927376 493.4343434343434,365.20936208952986 488.3838383838384,372.25009507291804 483.3333333333333,377.62229834457884 478.2828282828283,383.5891395036617 473.2323232323232,381.4214553647055 468.1818181818182,383.85813103929104 463.1313131313131,383.44607636948217 458.0808080808081,361.6929173557052 453.030303030303,384.2765167011426 447.979797979798,385.54762000795154 442.9292929292929,380.9665098443685 437.8787878787879,385.1150598383184 432.8282828282828,381.44239301415723 427.77777777777777,382.8547228192289 422.72727272727275,364.6551301922778 417.67676767676767,385.1925658740082 412.62626262626264,385.67127962385695 407.57575757575756,385.25142465327195 402.52525252525254,384.0264317117159 397.47474747474746,387.78833743395313 392.4242424242424,387.68911587948213 387.37373737373736,387.7883158264718 382.32323232323233,387.8542834671076 377.27272727272725,386.48465004523166 372.22222222222223,380.51999124176757 367.1717171717172,388.1931319900202 362.1212121212121,385.9125271534016 357.07070707070704,386.5980677149656 352.020202020202,386.6565159520832 346.969696969697,387.2783576585557 341.9191919191919,387.3508291510853 336.86868686868684,388.1761052946972 331.8181818181818,386.764726218806 326.7676767676768,390.2161324336938 321.7171717171717,388.76603275117975 316.66666666666663,388.07662445044974 311.6161616161616,391.3213767134733 306.5656565656566,390.8070322268382 301.5151515151515,390.8906099647942 296.4646464646464,391.03341380919727 291.4141414141414,389.76805809243393 286.3636363636364,392.1513200730621 281.3131313131313,391.7274028959787 276.26262626262627,391.53777563943737 271.2121212121212,391.1841259917834 266.16161616161617,392.5670480147046 261.1111111111111,387.17619748661775 256.06060606060606,391.2760442175499 251.010101010101,392.8845699535007 245.95959595959596,393.16095124776 240.9090909090909,393.08577882005864 235.85858585858585,393.1972950314317 230.8080808080808,387.4742942996583 225.75757575757575,385.6030864126395 220.7070707070707,392.0894794613687 215.65656565656565,394.0334829531377 210.6060606060606,392.48742444584013 205.55555555555554,385.5268768258322 200.50505050505052,389.4210203340805 195.45454545454544,390.5109665170469 190.40404040404042,389.40879049962257 185.35353535353534,393.6577072445564 180.3030303030303,396.3723199520602 175.25252525252526,397.3049636706213 170.2020202020202,397.22276881147326 165.15151515151516,398.2474387932078 160.1010101010101,398.9779229160304 155.05050505050505,399.5396093943567 150,399.999135700745 "/><text class="poloto_text" alignment-baseline="middle" text-anchor="start" font-size="large" x="675" y="150" >default_seq</text><line class="poloto1stroke" stroke="black" x1="680" x2="730" y1="131.25" y2="131.25" /><polyline class="poloto1stroke" fill="none" stroke="black"  points="650,330.69698532419864 644.9494949494949,331.6708129022593 639.8989898989898,321.65885676256545 634.8484848484848,331.7704449988764 629.7979797979798,332.84878796434475 624.7474747474747,333.6612724789831 619.6969696969697,335.2119982022575 614.6464646464647,334.24350767209637 609.5959595959596,334.27689123081973 604.5454545454545,336.2586862075125 599.4949494949494,338.2780782017966 594.4444444444445,323.9907577599668 589.3939393939394,339.68580561333556 584.3434343434344,337.67332801309124 579.2929292929293,334.0178823515854 574.2424242424242,337.89992567026405 569.1919191919192,328.5277670540648 564.1414141414141,336.1600048400758 559.090909090909,343.05123565983484 554.040404040404,342.5653914411326 548.989898989899,344.45070901348885 543.939393939394,344.91520504059326 538.8888888888889,339.3563995597836 533.8383838383838,343.5611073978254 528.7878787878788,346.3821153436166 523.7373737373737,344.4254498677622 518.6868686868687,339.1304285195706 513.6363636363636,349.1714467217129 508.5858585858586,325.5506018403812 503.5353535353535,327.93591653173996 498.4848484848485,337.74932152508484 493.4343434343434,341.3921052025053 488.3838383838384,347.11860634626134 483.3333333333333,339.9888289321295 478.2828282828283,353.66096277175006 473.2323232323232,354.4227777425656 468.1818181818182,355.51183801879563 463.1313131313131,356.2224864737167 458.0808080808081,356.61846517738303 453.030303030303,357.24343996865474 447.979797979798,358.30220655599794 442.9292929292929,359.124198362441 437.8787878787879,359.58983958605825 432.8282828282828,360.3943941550322 427.77777777777777,360.80428807670364 422.72727272727275,363.19967185438287 417.67676767676767,365.07643286411485 412.62626262626264,366.3901893391568 407.57575757575756,355.64526421628227 402.52525252525254,357.8077409522273 397.47474747474746,366.63485085075854 392.4242424242424,368.16336408318017 387.37373737373736,369.58496349776146 382.32323232323233,369.7504551976076 377.27272727272725,370.6666124078801 372.22222222222223,360.96982299151256 367.1717171717172,372.19938231413244 362.1212121212121,372.66074525643756 357.07070707070704,372.38520665395185 352.020202020202,373.350002304798 346.969696969697,374.2180396540498 341.9191919191919,374.3879824950591 336.86868686868684,375.817295780491 331.8181818181818,374.3923688137781 326.7676767676768,376.6020578965261 321.7171717171717,377.18472523926687 316.66666666666663,377.7885463062731 311.6161616161616,379.09281709699167 306.5656565656566,379.46182966390285 301.5151515151515,379.87865958709546 296.4646464646464,380.57271349632094 291.4141414141414,381.2139371135862 286.3636363636364,382.3669771421657 281.3131313131313,383.8719382198893 276.26262626262627,384.65337278379263 271.2121212121212,385.0577351902323 266.16161616161617,385.6179307523437 261.1111111111111,386.0342420959833 256.06060606060606,386.85305760266436 251.010101010101,387.3803017556799 245.95959595959596,388.1078256535543 240.9090909090909,388.9164208215453 235.85858585858585,389.3201350035436 230.8080808080808,389.78374512391173 225.75757575757575,390.1615735432236 220.7070707070707,390.80035551509354 215.65656565656565,392.29548518879176 210.6060606060606,393.08061463201017 205.55555555555554,393.3622465442435 200.50505050505052,394.08553537576853 195.45454545454544,394.6104459207956 190.40404040404042,394.813815535491 185.35353535353534,395.129889773035 180.3030303030303,396.5698771542659 175.25252525252526,397.05213453106006 170.2020202020202,397.5494307148907 165.15151515151516,398.23231355624574 160.1010101010101,398.88777650373663 155.05050505050505,399.48760018668867 150,400 "/><text class="poloto_text" alignment-baseline="middle" text-anchor="start" font-size="large" x="675" y="200" >direct_par</text><line class="poloto2stroke" stroke="black" x1="680" x2="730" y1="181.25" y2="181.25" /><polyline class="poloto2stroke" fill="none" stroke="black"  points="650,302.03468288860336 644.9494949494949,306.25239843043255 639.8989898989898,291.1856097055044 634.8484848484848,302.94241318113984 629.7979797979798,332.7236806471873 624.7474747474747,330.7810384267449 619.6969696969697,288.65660526300627 614.6464646464647,330.5714242499323 609.5959595959596,330.91148279180186 604.5454545454545,333.0406191839862 599.4949494949494,335.27407649624604 594.4444444444445,143.09601356373628 589.3939393939394,255.46457525453613 584.3434343434344,156.18543684565344 579.2929292929293,270.9546329321064 574.2424242424242,330.026418747227 569.1919191919192,335.08993753997385 564.1414141414141,333.74392109524 559.090909090909,325.0804446531567 554.040404040404,239.30120684985968 548.989898989899,301.77746743032304 543.939393939394,311.6472031276109 538.8888888888889,336.31175418176787 533.8383838383838,294.34367275325405 528.7878787878788,128.56725112502954 523.7373737373737,292.86699586864955 518.6868686868687,323.31424912561727 513.6363636363636,296.0963419974532 508.5858585858586,322.5126331741102 503.5353535353535,227.83383558723375 498.4848484848485,248.87896065133592 493.4343434343434,298.8897571895293 488.3838383838384,315.2438764397785 483.3333333333333,348.15185449810144 478.2828282828283,335.96389533912225 473.2323232323232,345.6886880513509 468.1818181818182,329.82832135798697 463.1313131313131,348.2284314120921 458.0808080808081,341.5445027686386 453.030303030303,307.8517193793179 447.979797979798,358.6431726120852 442.9292929292929,357.5003313147144 437.8787878787879,353.4580036992008 432.8282828282828,357.8228229742266 427.77777777777777,355.90118322568003 422.72727272727275,359.4853674136133 417.67676767676767,354.71683395658914 412.62626262626264,355.0732709693404 407.57575757575756,361.2449510518522 402.52525252525254,361.8707901423789 397.47474747474746,364.2164767128971 392.4242424242424,365.0728892371695 387.37373737373736,367.63566617305577 382.32323232323233,359.2206757667775 377.27272727272725,366.7560256063059 372.22222222222223,357.5077426808258 367.1717171717172,366.3007991887111 362.1212121212121,365.52852619691043 357.07070707070704,368.1981305207115 352.020202020202,367.83343945007516 346.969696969697,368.83436280977924 341.9191919191919,368.8514111125836 336.86868686868684,370.7772211050354 331.8181818181818,371.71474811438713 326.7676767676768,371.25610771473515 321.7171717171717,372.8766256028487 316.66666666666663,373.33708103093613 311.6161616161616,374.4877442365645 306.5656565656566,375.5769773726455 301.5151515151515,372.2038334552956 296.4646464646464,373.1991604773237 291.4141414141414,374.29744714810056 286.3636363636364,377.341790021377 281.3131313131313,379.87280395964297 276.26262626262627,378.8832029201791 271.2121212121212,380.0734510316852 266.16161616161617,381.06968556793106 261.1111111111111,380.94991529867303 256.06060606060606,382.8771513848955 251.010101010101,384.00065398643625 245.95959595959596,385.36866684720917 240.9090909090909,384.5746783366273 235.85858585858585,387.344692626375 230.8080808080808,377.47430870464586 225.75757575757575,374.0219301530962 220.7070707070707,382.539059123831 215.65656565656565,384.8148454921032 210.6060606060606,384.8539550333908 205.55555555555554,383.00178333746277 200.50505050505052,387.78217930176146 195.45454545454544,389.04887468237 190.40404040404042,389.03340372570597 185.35353535353534,389.3816731104978 180.3030303030303,388.4885062604076 175.25252525252526,391.0337379214179 170.2020202020202,393.32821476107887 165.15151515151516,395.44427862703185 160.1010101010101,397.52064954970007 155.05050505050505,398.9768209344804 150,399.9960458309085 "/><text class="poloto_text" alignment-baseline="middle" text-anchor="start" font-size="large" x="675" y="250" >direct_seq</text><line class="poloto3stroke" stroke="black" x1="680" x2="730" y1="231.25" y2="231.25" /><polyline class="poloto3stroke" fill="none" stroke="black"  points="650,140.05128175579512 644.9494949494949,140.32435710540415 639.8989898989898,206.5413912913207 634.8484848484848,205.58007444497585 629.7979797979798,120.07095176633959 624.7474747474747,210.44478280159726 619.6969696969697,197.63450657155533 614.6464646464647,216.84623684104383 609.5959595959596,217.65150445690315 604.5454545454545,164.21345886799844 599.4949494949494,224.36168619022652 594.4444444444445,189.70501466427737 589.3939393939394,137.3707872613814 584.3434343434344,127.41714971391696 579.2929292929293,188.2919718123203 574.2424242424242,228.9916292617156 569.1919191919192,114.30540590374011 564.1414141414141,179.18279785192829 559.090909090909,185.521806270203 554.040404040404,208.0130552402464 548.989898989899,221.25450876111344 543.939393939394,229.89687469389403 538.8888888888889,186.95539783694704 533.8383838383838,243.3047706437877 528.7878787878788,100 523.7373737373737,231.78904183784593 518.6868686868687,148.51374379865285 513.6363636363636,201.5122500014405 508.5858585858586,183.14396776739977 503.5353535353535,107.23742588633888 498.4848484848485,199.42985059146878 493.4343434343434,106.86385414085771 488.3838383838384,230.61173660768304 483.3333333333333,261.7109307926777 478.2828282828283,199.68909715299827 473.2323232323232,270.5380622986903 468.1818181818182,275.1524047686271 463.1313131313131,270.3496234536246 458.0808080808081,277.2384342354697 453.030303030303,273.58212427470886 447.979797979798,282.6019296921366 442.9292929292929,285.87036375474645 437.8787878787879,286.28628616372134 432.8282828282828,289.0363351406791 427.77777777777777,290.59470991236003 422.72727272727275,301.9837972699668 417.67676767676767,238.50734798416602 412.62626262626264,272.416767981746 407.57575757575756,297.43929017983186 402.52525252525254,297.29713455987 397.47474747474746,304.6678137838445 392.4242424242424,311.06991604773236 387.37373737373736,315.6250756261848 382.32323232323233,315.5998164804582 377.27272727272725,318.8712755904604 372.22222222222223,305.7286114744369 367.1717171717172,323.08812683303466 362.1212121212121,322.4494312910902 357.07070707070704,324.1654758543598 352.020202020202,326.531538279814 346.969696969697,330.16073085145 341.9191919191919,329.5726184234029 336.86868686868684,333.4311528023463 331.8181818181818,333.5047910988701 326.7676767676768,335.62967081722377 321.7171717171717,337.1204789946471 316.66666666666663,338.9182862674372 311.6161616161616,342.80279283899256 306.5656565656566,343.8949429850591 301.5151515151515,344.59156818456825 296.4646464646464,346.7994422388808 291.4141414141414,349.097397883043 286.3636363636364,338.6762392610817 281.3131313131313,355.9024796745625 276.26262626262627,358.36195124199804 271.2121212121212,359.53432996640754 266.16161616161617,361.3372798197648 261.1111111111111,362.00529671393423 256.06060606060606,364.7257434414091 251.010101010101,365.25428404330717 245.95959595959596,368.49164654770067 240.9090909090909,370.1925226590455 235.85858585858585,371.18609947508224 230.8080808080808,373.717675207864 225.75757575757575,374.22653139422994 220.7070707070707,376.48892112404997 215.65656565656565,379.77105432985115 210.6060606060606,379.553034842784 205.55555555555554,382.083357341646 200.50505050505052,381.0699448577075 195.45454545454544,384.72837235164303 190.40404040404042,387.0601220966748 185.35353535353534,388.6894558371891 180.3030303030303,390.7671232087398 175.25252525252526,390.25694896601 170.2020202020202,393.56697743026547 165.15151515151516,395.77573739131435 160.1010101010101,397.08625274415016 155.05050505050505,398.7381230877379 150,399.9964347655732 "/><text class="poloto_text" alignment-baseline="middle" text-anchor="start" font-size="large" x="675" y="300" >indirect_par</text><line class="poloto4stroke" stroke="black" x1="680" x2="730" y1="281.25" y2="281.25" /><polyline class="poloto4stroke" fill="none" stroke="black"  points="650,356.02348157025887 644.9494949494949,367.7257477629054 639.8989898989898,334.11429493347777 634.8484848484848,351.87722196933464 629.7979797979798,370.35568075090316 624.7474747474747,358.0822856105698 619.6969696969697,366.8233761257498 614.6464646464647,331.99071166400654 609.5959595959596,365.7091431337186 604.5454545454545,368.89343766385673 599.4949494949494,373.32925912267865 594.4444444444445,349.52853195890543 589.3939393939394,355.83305483690674 584.3434343434344,347.5078219082575 579.2929292929293,305.8377940778215 574.2424242424242,345.4102756538424 569.1919191919192,365.34341490397634 564.1414141414141,366.4075401467004 559.090909090909,341.8406116933927 554.040404040404,373.2208759961049 548.989898989899,372.1893996577375 543.939393939394,359.05481673974793 538.8888888888889,344.0200070872539 533.8383838383838,357.66995004350304 528.7878787878788,361.829066095845 523.7373737373737,321.54716769134143 518.6868686868687,337.3838525851191 513.6363636363636,349.7154366727936 508.5858585858586,362.7676518717841 503.5353535353535,363.79688103208855 498.4848484848485,348.5241730096629 493.4343434343434,321.6956759108274 488.3838383838384,361.12842190480035 483.3333333333333,358.72316350813304 478.2828282828283,378.90656060754475 473.2323232323232,374.84627717500905 468.1818181818182,381.64911178846563 463.1313131313131,376.57336316126094 458.0808080808081,370.5650356379393 453.030303030303,381.66166573514414 447.979797979798,382.1654873783499 442.9292929292929,380.8258235331401 437.8787878787879,379.7380813132739 432.8282828282828,382.32220644075807 427.77777777777777,379.6555407344239 422.72727272727275,377.70241888551493 417.67676767676767,379.6515001354069 412.62626262626264,380.38351838940713 407.57575757575756,377.00417312490276 402.52525252525254,378.2138031472017 397.47474747474746,386.10613018651577 392.4242424242424,384.45302821648966 387.37373737373736,380.2076550985013 382.32323232323233,385.8312398084713 377.27272727272725,384.3781582935276 372.22222222222223,386.03456620820396 367.1717171717172,383.42382066366656 362.1212121212121,385.71847036317854 357.07070707070704,386.4387773622739 352.020202020202,383.93611243957105 346.969696969697,387.2228912538677 341.9191919191919,387.1383411792499 336.86868686868684,384.9186910475883 331.8181818181818,386.5314302424071 326.7676767676768,388.14356442774744 321.7171717171717,386.7469000466722 316.66666666666663,384.88597732078756 311.6161616161616,389.5643643655179 306.5656565656566,389.74083266590225 301.5151515151515,387.2392697247495 296.4646464646464,389.82034819735986 291.4141414141414,390.62310934537976 286.3636363636364,381.478455900571 281.3131313131313,391.5693657772067 276.26262626262627,390.9873466589072 271.2121212121212,389.44329764737745 266.16161616161617,392.64848661200455 261.1111111111111,393.0387393331067 256.06060606060606,388.14053938035505 251.010101010101,389.411988406866 245.95959595959596,392.82916837125686 240.9090909090909,393.21914019510115 235.85858585858585,393.5630016536926 230.8080808080808,374.26916295498154 225.75757575757575,360.44737569936217 220.7070707070707,393.50109621955505 215.65656565656565,391.7971518458551 210.6060606060606,389.7458888165438 205.55555555555554,393.03761574407525 200.50505050505052,393.7887350116104 195.45454545454544,394.6432244700405 190.40404040404042,394.0674283063768 185.35353535353534,388.41944874993516 180.3030303030303,397.0005358655381 175.25252525252526,397.5812153199924 170.2020202020202,397.1988493295919 165.15151515151516,398.2481950550559 160.1010101010101,399.09056271643493 155.05050505050505,399.596480285334 150,399.9989844483754 "/><text class="poloto_text" alignment-baseline="middle" text-anchor="start" font-size="large" x="675" y="350" >indirect_seq</text><line class="poloto5stroke" stroke="black" x1="680" x2="730" y1="331.25" y2="331.25" /><polyline class="poloto5stroke" fill="none" stroke="black"  points="650,326.33955580780287 644.9494949494949,291.09604669520775 639.8989898989898,311.30342809894495 634.8484848484848,308.111290053068 629.7979797979798,324.16804714464337 624.7474747474747,324.31549659754194 619.6969696969697,250.0105012359479 614.6464646464647,331.4536361069657 609.5959595959596,331.22578521587315 604.5454545454545,327.37708224095513 599.4949494949494,330.80653525476663 594.4444444444445,287.4416381928079 589.3939393939394,293.14221035891467 584.3434343434344,321.58567222315054 579.2929292929293,261.5559619362608 574.2424242424242,328.7380726702813 569.1919191919192,332.5185392190192 564.1414141414141,333.31133931812553 559.090909090909,339.2908424612938 554.040404040404,328.0257820467759 548.989898989899,301.0802372213355 543.939393939394,323.50128348439364 538.8888888888889,308.6861354875512 533.8383838383838,309.5308367569187 528.7878787878788,341.3581166343034 523.7373737373737,297.06262856451417 518.6868686868687,339.4187371435486 513.6363636363636,316.87580307805774 508.5858585858586,336.7757532368007 503.5353535353535,314.0128334034376 498.4848484848485,334.02803786783136 493.4343434343434,338.0820983457312 488.3838383838384,312.8513448496407 483.3333333333333,346.9799079233194 478.2828282828283,346.28786350986167 473.2323232323232,350.1353564658227 468.1818181818182,351.5208281715461 463.1313131313131,353.22131534822614 458.0808080808081,341.38549331320473 453.030303030303,352.323243599864 447.979797979798,353.4333495629527 442.9292929292929,354.98126631364846 437.8787878787879,354.7390896624047 432.8282828282828,356.60452835189653 427.77777777777777,356.82524877413556 422.72727272727275,363.5117487078726 417.67676767676767,362.8168953218362 412.62626262626264,358.0803409372461 407.57575757575756,364.2972670857558 402.52525252525254,344.5814774907664 397.47474747474746,365.68855120396887 392.4242424242424,366.2023987185323 387.37373737373736,358.4362809779258 382.32323232323233,368.90495445142926 377.27272727272725,368.60013771168127 372.22222222222223,369.69001907220354 367.1717171717172,371.11339030025755 362.1212121212121,371.7772585580031 357.07070707070704,370.04217780364274 352.020202020202,370.9767878030089 346.969696969697,373.26530097781057 341.9191919191919,373.5869499455491 336.86868686868684,375.0051785930361 331.8181818181818,373.01821942829486 326.7676767676768,375.676631076744 321.7171717171717,375.19407119521065 316.66666666666663,375.91137475439496 311.6161616161616,377.84736187057405 306.5656565656566,378.069465171621 301.5151515151515,379.1751416010279 296.4646464646464,379.68345760035953 291.4141414141414,380.37349251804943 286.3636363636364,382.4899237111858 281.3131313131313,383.03432420441254 276.26262626262627,383.63423431729 271.2121212121212,384.23066562566623 266.16161616161617,385.6173257428652 261.1111111111111,385.3676296881032 256.06060606060606,386.3749920772568 251.010101010101,387.10163006839485 245.95959595959596,388.3760825348169 240.9090909090909,389.14293204879255 235.85858585858585,389.5556997654868 230.8080808080808,389.97719690465624 225.75757575757575,390.7195219272721 220.7070707070707,390.96489648575925 215.65656565656565,392.1719984327373 210.6060606060606,392.6660318868805 205.55555555555554,393.75234801297603 200.50505050505052,394.22129518124353 195.45454545454544,394.8721989501645 190.40404040404042,395.37102926517275 185.35353535353534,394.3307370744046 180.3030303030303,396.61562019233537 175.25252525252526,397.34908614758774 170.2020202020202,397.7083969553618 165.15151515151516,398.2384932959188 160.1010101010101,398.9917084891473 155.05050505050505,399.55719788419543 150,399.9979905042322 "/><text class="poloto_text" alignment-baseline="start" text-anchor="middle" font-size="x-large" x="400" y="37.5" >Bench of rebal:128_bytes with abspiral(num,0.1)</text><text class="poloto_text" alignment-baseline="start" text-anchor="middle" font-size="x-large" x="400" y="481.25" >Number of Elements</text><text class="poloto_text" alignment-baseline="start" text-anchor="middle" font-size="x-large" transform="rotate(-90,37.5,250)" x="37.5" y="250" >Time in Seconds</text><path stroke="black" fill="none" class="poloto_axis_lines"  d="M 150 100 L 150 400 L 650 400 "/></svg>