<svg class="poloto" height="500" viewBox="0 0 800 500" width="800" xmlns="http://www.w3.org/2000/svg">
<rect class="poloto_background" fill="white" height="500" width="800" x="0" y="0"/>
<style>
.poloto {
font-family: "Arial";
stroke-width:2;
}
.poloto_text{fill: var(--poloto_fg_color,black);  }
.poloto_axis_lines{stroke: var(--poloto_fg_color,black);stoke-width:3;fill:none}
.poloto_background{fill: var(--poloto_bg_color,aliceblue); }
.poloto0stroke{stroke:  var(--poloto_color0,blue); }
.poloto1stroke{stroke:  var(--poloto_color1,red); }
.poloto2stroke{stroke:  var(--poloto_color2,green); }
.poloto3stroke{stroke:  var(--poloto_color3,gold); }
.poloto4stroke{stroke:  var(--poloto_color4,aqua); }
.poloto5stroke{stroke:  var(--poloto_color5,brown); }
.poloto6stroke{stroke:  var(--poloto_color6,lime); }
.poloto7stroke{stroke:  var(--poloto_color7,chocolate); }
.poloto0fill{fill:var(--poloto_color0,blue);}
.poloto1fill{fill:var(--poloto_color1,red);}
.poloto2fill{fill:var(--poloto_color2,green);}
.poloto3fill{fill:var(--poloto_color3,gold);}
.poloto4fill{fill:var(--poloto_color4,aqua);}
.poloto5fill{fill:var(--poloto_color5,brown);}
.poloto6fill{fill:var(--poloto_color6,lime);}
.poloto7fill{fill:var(--poloto_color7,chocolate);}
</style>
<line class="poloto_axis_lines" stroke="black" x1="150" x2="150" y1="400" y2="405"/>
<text alignment-baseline="start" class="poloto_text" text-anchor="middle" x="150" y="440">
0
</text>
<line class="poloto_axis_lines" stroke="black" x1="234.17508" x2="234.17508" y1="400" y2="405"/>
<text alignment-baseline="start" class="poloto_text" text-anchor="middle" x="234.17508" y="440">
5000
</text>
<line class="poloto_axis_lines" stroke="black" x1="318.35016" x2="318.35016" y1="400" y2="405"/>
<text alignment-baseline="start" class="poloto_text" text-anchor="middle" x="318.35016" y="440">
10000
</text>
<line class="poloto_axis_lines" stroke="black" x1="402.52527" x2="402.52527" y1="400" y2="405"/>
<text alignment-baseline="start" class="poloto_text" text-anchor="middle" x="402.52527" y="440">
15000
</text>
<line class="poloto_axis_lines" stroke="black" x1="486.70035" x2="486.70035" y1="400" y2="405"/>
<text alignment-baseline="start" class="poloto_text" text-anchor="middle" x="486.70035" y="440">
20000
</text>
<line class="poloto_axis_lines" stroke="black" x1="570.8754" x2="570.8754" y1="400" y2="405"/>
<text alignment-baseline="start" class="poloto_text" text-anchor="middle" x="570.8754" y="440">
25000
</text>
<line class="poloto_axis_lines" stroke="black" x1="150" x2="144" y1="363.58844" y2="363.58844"/>
<text alignment-baseline="middle" class="poloto_text" text-anchor="end" x="120" y="363.58844">
0.0005
</text>
<line class="poloto_axis_lines" stroke="black" x1="150" x2="144" y1="327.165" y2="327.165"/>
<text alignment-baseline="middle" class="poloto_text" text-anchor="end" x="120" y="327.165">
0.0010
</text>
<line class="poloto_axis_lines" stroke="black" x1="150" x2="144" y1="290.74158" y2="290.74158"/>
<text alignment-baseline="middle" class="poloto_text" text-anchor="end" x="120" y="290.74158">
0.0015
</text>
<line class="poloto_axis_lines" stroke="black" x1="150" x2="144" y1="254.31818" y2="254.31818"/>
<text alignment-baseline="middle" class="poloto_text" text-anchor="end" x="120" y="254.31818">
0.0020
</text>
<line class="poloto_axis_lines" stroke="black" x1="150" x2="144" y1="217.89471" y2="217.89471"/>
<text alignment-baseline="middle" class="poloto_text" text-anchor="end" x="120" y="217.89471">
0.0025
</text>
<line class="poloto_axis_lines" stroke="black" x1="150" x2="144" y1="181.47131" y2="181.47131"/>
<text alignment-baseline="middle" class="poloto_text" text-anchor="end" x="120" y="181.47131">
0.0030
</text>
<line class="poloto_axis_lines" stroke="black" x1="150" x2="144" y1="145.04788" y2="145.04788"/>
<text alignment-baseline="middle" class="poloto_text" text-anchor="end" x="120" y="145.04788">
0.0035
</text>
<line class="poloto_axis_lines" stroke="black" x1="150" x2="144" y1="108.62445" y2="108.62445"/>
<text alignment-baseline="middle" class="poloto_text" text-anchor="end" x="120" y="108.62445">
0.0040
</text>
<text alignment-baseline="middle" class="poloto_text" font-size="large" text-anchor="start" x="675" y="100">
default_par
</text>
<line class="poloto0stroke" x1="680" x2="730" y1="81.25" y2="81.25"/>
<polyline class="poloto0stroke" fill="none" points="650,306.1213 644.94946,315.42743 639.899,316.78464 634.8485,281.9423 629.798,314.91925 624.7475,317.84216 619.697,321.8834 614.6465,312.29333 609.59595,314.53912 604.5455,317.17313 599.495,319.85126 594.44446,310.73413 589.3939,316.50732 584.34344,324.62286 579.29297,325.4639 574.24243,322.8318 569.1919,318.18353 564.1414,318.73053 559.09094,323.63275 554.0404,329.42218 548.98987,323.90738 543.9394,321.9685 538.8889,298.30377 533.8384,329.64838 528.78784,325.54004 523.73737,327.6928 518.6869,333.4571 513.63635,334.8412 508.58588,329.1284 503.53537,339.57776 498.48486,337.94513 493.43436,337.17725 488.38385,334.6364 483.33334,341.93063 478.28284,344.27463 473.23233,342.76984 468.18182,338.91354 463.13132,334.2464 458.0808,346.52072 453.0303,343.60977 447.9798,342.65976 442.9293,336.8206 437.87878,346.40314 432.82828,315.3766 427.77777,347.50552 422.72726,348.0317 417.67676,352.98776 412.62628,349.03198 407.57578,354.6347 402.52527,346.72733 397.47473,354.13568 392.42426,356.6586 387.37375,354.74216 382.32324,351.4013 377.27274,350.96906 372.22223,356.58676 367.17172,361.29364 362.12122,355.4066 357.0707,360.348 352.0202,354.40604 346.9697,358.11618 341.9192,360.5951 336.86868,357.38968 331.81818,366.16956 326.7677,359.06735 321.71716,366.71313 316.6667,363.86978 311.61615,365.63522 306.56567,365.8923 301.51514,365.668 296.46466,363.98444 291.41412,367.20697 286.36365,372.373 281.31314,361.2881 276.26263,371.9898 271.21213,365.59656 266.16162,363.35934 261.1111,376.52808 256.0606,367.6683 251.0101,374.1385 245.9596,370.28876 240.90909,375.75665 235.85858,376.41714 230.80807,376.75726 225.75757,378.1079 220.70706,378.62296 215.65657,374.85632 210.60606,372.29028 205.55556,375.69354 200.50505,381.5736 195.45454,373.96695 190.40404,376.59918 185.35353,383.16226 180.30302,389.23242 175.25253,391.07037 170.20203,392.62454 165.15152,395.12253 160.10101,396.57846 155.0505,398.4648 150,400 " stroke="black"/>
<text alignment-baseline="middle" class="poloto_text" font-size="large" text-anchor="start" x="675" y="150">
default_seq
</text>
<line class="poloto1stroke" x1="680" x2="730" y1="131.25" y2="131.25"/>
<polyline class="poloto1stroke" fill="none" points="650,168.5029 644.94946,172.53352 639.899,173.06625 634.8485,172.21117 629.798,175.7395 624.7475,179.04297 619.697,183.45189 614.6465,186.53206 609.59595,185.86194 604.5455,188.79906 599.495,193.98051 594.44446,191.34491 589.3939,198.79263 584.34344,197.75887 579.29297,202.19151 574.24243,202.43954 569.1919,200.32715 564.1414,205.5421 559.09094,209.6237 554.0404,208.5852 548.98987,214.48216 543.9394,216.21658 538.8889,219.2934 533.8384,214.60396 528.78784,218.77597 523.73737,226.18034 518.6869,227.16304 513.63635,231.35945 508.58588,229.82866 503.53537,233.55324 498.48486,236.67212 493.43436,237.87852 488.38385,241.27887 483.33334,245.38496 478.28284,245.18297 473.23233,250.39726 468.18182,251.98619 463.13132,254.06102 458.0808,254.90349 453.0303,257.04926 447.9798,258.7871 442.9293,263.2553 437.87878,264.40906 432.82828,267.0417 427.77777,268.37842 422.72726,283.33942 417.67676,282.97662 412.62628,287.46246 407.57578,286.26553 402.52527,291.19485 397.47473,290.50964 392.42426,292.9186 387.37375,297.6443 382.32324,299.86514 377.27274,301.16525 372.22223,302.27484 367.17172,306.47192 362.12122,308.63037 357.0707,308.50055 352.0202,310.7862 346.9697,313.38873 341.9192,314.24112 336.86868,318.38412 331.81818,318.5881 326.7677,320.81445 321.71716,323.0094 316.6667,324.5684 311.61615,328.86758 306.56567,330.30786 301.51514,332.25488 296.46466,334.8838 291.41412,336.87683 286.36365,344.67923 281.31314,346.52814 276.26263,348.73294 271.21213,349.89667 266.16162,352.0482 261.1111,353.26254 256.0606,356.0207 251.0101,357.11572 245.9596,360.23523 240.90909,362.37903 235.85858,363.95953 230.80807,366.59302 225.75757,367.94528 220.70706,370.09906 215.65657,374.59518 210.60606,376.91476 205.55556,378.4308 200.50505,380.23798 195.45454,381.40387 190.40404,383.58557 185.35353,385.32492 180.30302,388.68286 175.25253,389.98218 170.20203,392.3159 165.15152,394.76523 160.10101,396.37506 155.0505,398.30115 150,399.99942 " stroke="black"/>
<text alignment-baseline="middle" class="poloto_text" font-size="large" text-anchor="start" x="675" y="200">
direct_par
</text>
<line class="poloto2stroke" x1="680" x2="730" y1="181.25" y2="181.25"/>
<polyline class="poloto2stroke" fill="none" points="650,295.42352 644.94946,305.2476 639.899,288.90533 634.8485,303.5748 629.798,100 624.7475,300.98264 619.697,307.3439 614.6465,308.36304 609.59595,297.69797 604.5455,301.57318 599.495,307.8035 594.44446,308.70023 589.3939,311.223 584.34344,308.38306 579.29297,308.3269 574.24243,308.73157 569.1919,309.97607 564.1414,316.5766 559.09094,314.81055 554.0404,322.37753 548.98987,246.16093 543.9394,319.6481 538.8889,312.70493 533.8384,303.57837 528.78784,316.17432 523.73737,326.22952 518.6869,326.8858 513.63635,326.52536 508.58588,320.28018 503.53537,318.87256 498.48486,324.16882 493.43436,327.59436 488.38385,330.87628 483.33334,322.03348 478.28284,325.54178 473.23233,337.43082 468.18182,335.54175 463.13132,335.1126 458.0808,332.85846 453.0303,330.24353 447.9798,333.68488 442.9293,333.7755 437.87878,325.53427 432.82828,338.0641 427.77777,341.01132 422.72726,343.3853 417.67676,341.36774 412.62628,340.9858 407.57578,319.3374 402.52527,345.47705 397.47473,348.04315 392.42426,345.90268 387.37375,340.5604 382.32324,346.48212 377.27274,354.89877 372.22223,351.58014 367.17172,357.3798 362.12122,352.01016 357.0707,356.2822 352.0202,349.83423 346.9697,349.08105 341.9192,362.96692 336.86868,356.40567 331.81818,358.19296 326.7677,361.4257 321.71716,361.15164 316.6667,362.78085 311.61615,363.18298 306.56567,364.17413 301.51514,363.53088 296.46466,364.0857 291.41412,366.6331 286.36365,370.51227 281.31314,366.34186 276.26263,364.28232 271.21213,366.04376 266.16162,368.96463 261.1111,371.90726 256.0606,367.3869 251.0101,369.0672 245.9596,366.31378 240.90909,369.83636 235.85858,376.674 230.80807,371.40164 225.75757,370.91904 220.70706,376.03107 215.65657,370.5019 210.60606,369.98373 205.55556,371.37585 200.50505,372.71274 195.45454,377.1845 190.40404,378.85846 185.35353,374.95963 180.30302,388.31683 175.25253,390.32187 170.20203,391.97882 165.15152,394.77216 160.10101,396.34344 155.0505,398.36285 150,399.99323 " stroke="black"/>
<text alignment-baseline="middle" class="poloto_text" font-size="large" text-anchor="start" x="675" y="250">
direct_seq
</text>
<line class="poloto3stroke" x1="680" x2="730" y1="231.25" y2="231.25"/>
<polyline class="poloto3stroke" fill="none" points="650,134.57367 644.94946,139.15561 639.899,140.92032 634.8485,139.35571 629.798,142.97598 624.7475,146.62933 619.697,153.69598 614.6465,157.71523 609.59595,156.28 604.5455,156.82877 599.495,165.8263 594.44446,161.22208 589.3939,169.3399 584.34344,168.9976 579.29297,174.02965 574.24243,173.51172 569.1919,172.08282 564.1414,177.04594 559.09094,182.19475 554.0404,181.97061 548.98987,189.57756 543.9394,190.72353 538.8889,193.60454 533.8384,194.6899 528.78784,196.86234 523.73737,202.49521 518.6869,203.81854 513.63635,208.35713 508.58588,206.7534 503.53537,210.84608 498.48486,214.71693 493.43436,216.31367 488.38385,218.95561 483.33334,223.55734 478.28284,221.40144 473.23233,229.71852 468.18182,232.8845 463.13132,234.15227 458.0808,234.53346 453.0303,235.3393 447.9798,240.01666 442.9293,244.1658 437.87878,247.0082 432.82828,250.21077 427.77777,251.15517 422.72726,267.69324 417.67676,267.2259 412.62628,273.14566 407.57578,270.47656 402.52527,276.27087 397.47473,276.70074 392.42426,279.52173 387.37375,284.8734 382.32324,286.81937 377.27274,288.47876 372.22223,289.77478 367.17172,295.092 362.12122,296.52368 357.0707,296.80298 352.0202,300.32452 346.9697,302.5763 341.9192,303.60147 336.86868,308.11325 331.81818,308.63855 326.7677,311.95197 321.71716,313.28192 316.6667,316.61804 311.61615,321.75482 306.56567,322.88446 301.51514,324.60992 296.46466,327.2574 291.41412,329.7256 286.36365,338.26477 281.31314,340.2518 276.26263,342.74274 271.21213,344.35876 266.16162,346.9026 261.1111,347.81775 256.0606,351.34296 251.0101,353.02463 245.9596,355.60947 240.90909,358.93207 235.85858,359.73273 230.80807,363.29654 225.75757,365.29504 220.70706,367.07578 215.65657,372.2574 210.60606,374.68185 205.55556,376.3904 200.50505,378.37177 195.45454,380.45438 190.40404,382.18588 185.35353,383.93 180.30302,387.51376 175.25253,389.52353 170.20203,391.57993 165.15152,394.3484 160.10101,396.09323 155.0505,398.17416 150,399.99805 " stroke="black"/>
<text alignment-baseline="middle" class="poloto_text" font-size="large" text-anchor="start" x="675" y="300">
indirect_par
</text>
<line class="poloto4stroke" x1="680" x2="730" y1="281.25" y2="281.25"/>
<polyline class="poloto4stroke" fill="none" points="650,305.06525 644.94946,312.37704 639.899,306.67874 634.8485,313.98206 629.798,316.30334 624.7475,313.00293 619.697,300.66437 614.6465,318.83405 609.59595,286.2237 604.5455,305.28262 599.495,315.24872 594.44446,312.5126 589.3939,313.71704 584.34344,317.4954 579.29297,312.87656 574.24243,320.04016 569.1919,316.52625 564.1414,314.96857 559.09094,324.941 554.0404,306.3881 548.98987,324.90298 543.9394,323.45624 538.8889,329.1434 533.8384,312.20947 528.78784,327.53915 523.73737,328.7085 518.6869,329.88147 513.63635,322.38205 508.58588,287.57867 503.53537,340.67804 498.48486,328.34564 493.43436,332.53815 488.38385,339.34537 483.33334,332.20953 478.28284,333.6511 473.23233,327.82742 468.18182,339.8087 463.13132,347.00348 458.0808,337.42603 453.0303,342.19128 447.9798,341.06516 442.9293,339.23743 437.87878,334.7719 432.82828,348.55658 427.77777,345.3838 422.72726,347.9577 417.67676,343.5707 412.62628,346.399 407.57578,344.5932 402.52527,347.01855 397.47473,353.7311 392.42426,356.54254 387.37375,354.2052 382.32324,345.88535 377.27274,354.09686 372.22223,359.90125 367.17172,360.75165 362.12122,360.75974 357.0707,359.7917 352.0202,349.11224 346.9697,366.2266 341.9192,366.89868 336.86868,355.28326 331.81818,363.6229 326.7677,365.35587 321.71716,362.58957 316.6667,363.9598 311.61615,366.0997 306.56567,367.46747 301.51514,366.0028 296.46466,366.57663 291.41412,367.7185 286.36365,368.6186 281.31314,368.7441 276.26263,371.30075 271.21213,375.7133 266.16162,371.6217 261.1111,375.4727 256.0606,378.89975 251.0101,374.72177 245.9596,370.86185 240.90909,378.7084 235.85858,379.47247 230.80807,378.42465 225.75757,378.05597 220.70706,378.1111 215.65657,371.80185 210.60606,373.2043 205.55556,378.08197 200.50505,375.0552 195.45454,374.9621 190.40404,376.48648 185.35353,381.32672 180.30302,390.3322 175.25253,392.02567 170.20203,393.4399 165.15152,395.74283 160.10101,396.9724 155.0505,398.64847 150,399.99628 " stroke="black"/>
<text alignment-baseline="middle" class="poloto_text" font-size="large" text-anchor="start" x="675" y="350">
indirect_seq
</text>
<line class="poloto5stroke" x1="680" x2="730" y1="331.25" y2="331.25"/>
<polyline class="poloto5stroke" fill="none" points="650,177.19856 644.94946,176.47052 639.899,178.05699 634.8485,176.44408 629.798,181.19312 624.7475,183.53651 619.697,188.20142 614.6465,191.70265 609.59595,191.76918 604.5455,188.50555 599.495,196.14952 594.44446,191.44601 589.3939,200.34491 584.34344,197.68309 579.29297,203.84863 574.24243,201.29185 569.1919,207.03073 564.1414,209.76569 559.09094,210.15659 554.0404,208.26613 548.98987,219.69966 543.9394,222.2641 538.8889,221.22144 533.8384,224.24553 528.78784,228.0619 523.73737,229.05035 518.6869,229.41809 513.63635,234.4784 508.58588,230.55238 503.53537,239.66655 498.48486,242.84349 493.43436,242.66158 488.38385,244.76584 483.33334,249.02905 478.28284,245.80476 473.23233,255.82742 468.18182,255.60457 463.13132,256.3466 458.0808,259.69543 453.0303,263.81085 447.9798,265.15063 442.9293,268.6009 437.87878,269.5945 432.82828,273.2694 427.77777,271.47522 422.72726,286.9513 417.67676,284.9099 412.62628,290.95087 407.57578,289.2173 402.52527,295.34268 397.47473,294.99228 392.42426,295.6546 387.37375,301.22034 382.32324,303.92798 377.27274,306.62863 372.22223,307.31686 367.17172,312.70157 362.12122,314.07043 357.0707,313.66125 352.0202,316.8035 346.9697,318.3773 341.9192,319.50125 336.86868,324.01987 331.81818,322.47134 326.7677,326.1558 321.71716,327.3861 316.6667,328.8231 311.61615,334.2874 306.56567,335.1507 301.51514,336.26514 296.46466,339.08118 291.41412,341.41983 286.36365,348.33694 281.31314,349.74448 276.26263,351.49506 271.21213,353.03607 266.16162,355.2013 261.1111,356.51233 256.0606,358.81815 251.0101,361.58078 245.9596,363.5765 240.90909,365.9492 235.85858,367.04752 230.80807,369.63998 225.75757,371.2837 220.70706,372.82477 215.65657,376.89706 210.60606,379.0362 205.55556,380.69028 200.50505,382.09875 195.45454,383.73535 190.40404,385.03574 185.35353,386.5848 180.30302,389.04465 175.25253,391.32672 170.20203,391.9349 165.15152,395.24457 160.10101,396.80063 155.0505,398.50476 150,399.9991 " stroke="black"/>
<text alignment-baseline="start" class="poloto_text" font-size="x-large" text-anchor="middle" x="400" y="37.5">
Bench of rebal:16_bytes with abspiral(num,0.1)
</text>
<text alignment-baseline="start" class="poloto_text" font-size="large" text-anchor="middle" x="400" y="481.25">
Number of Elements
</text>
<text alignment-baseline="start" class="poloto_text" font-size="large" text-anchor="middle" transform="rotate(-90,37.5,250)" x="37.5" y="250">
Time in Seconds
</text>
<path class="poloto_axis_lines" d="M150,100 L150,400 L650,400" stroke="black"/>
</svg>