<svg class="poloto" width="800" height="500" viewBox="0 0 800 500" xmlns="http://www.w3.org/2000/svg"><style>.poloto {
    font-family: "Arial";
    stroke-width:2;
    }
    .poloto_text{fill: var(--poloto_fg_color,black);  }
    .poloto_axis_lines{stroke: var(--poloto_fg_color,black);stoke-width:3;fill:none}
    .poloto_background{fill: var(--poloto_bg_color,aliceblue); }
    .poloto0stroke{stroke:  var(--poloto_color0,blue); }
    .poloto1stroke{stroke:  var(--poloto_color1,red); }
    .poloto2stroke{stroke:  var(--poloto_color2,green); }
    .poloto3stroke{stroke:  var(--poloto_color3,gold); }
    .poloto4stroke{stroke:  var(--poloto_color4,aqua); }
    .poloto5stroke{stroke:  var(--poloto_color5,brown); }
    .poloto6stroke{stroke:  var(--poloto_color6,lime); }
    .poloto7stroke{stroke:  var(--poloto_color7,chocolate); }
    .poloto0fill{fill:var(--poloto_color0,blue);}
    .poloto1fill{fill:var(--poloto_color1,red);}
    .poloto2fill{fill:var(--poloto_color2,green);}
    .poloto3fill{fill:var(--poloto_color3,gold);}
    .poloto4fill{fill:var(--poloto_color4,aqua);}
    .poloto5fill{fill:var(--poloto_color5,brown);}
    .poloto6fill{fill:var(--poloto_color6,lime);}
    .poloto7fill{fill:var(--poloto_color7,chocolate);}</style><rect class="poloto_background" fill="white" x="0" y="0" width="800" height="500"/><line class="poloto_axis_lines" stroke="black" x1="150" x2="150" y1="400" y2="405"/><text class="poloto_text" alignment-baseline="start" text-anchor="middle" x="150" y="430">0</text><line class="poloto_axis_lines" stroke="black" x1="234.17508417508418" x2="234.17508417508418" y1="400" y2="405"/><text class="poloto_text" alignment-baseline="start" text-anchor="middle" x="234.17508417508418" y="430">5000</text><line class="poloto_axis_lines" stroke="black" x1="318.35016835016836" x2="318.35016835016836" y1="400" y2="405"/><text class="poloto_text" alignment-baseline="start" text-anchor="middle" x="318.35016835016836" y="430">10000</text><line class="poloto_axis_lines" stroke="black" x1="402.52525252525254" x2="402.52525252525254" y1="400" y2="405"/><text class="poloto_text" alignment-baseline="start" text-anchor="middle" x="402.52525252525254" y="430">15000</text><line class="poloto_axis_lines" stroke="black" x1="486.7003367003367" x2="486.7003367003367" y1="400" y2="405"/><text class="poloto_text" alignment-baseline="start" text-anchor="middle" x="486.7003367003367" y="430">20000</text><line class="poloto_axis_lines" stroke="black" x1="570.8754208754208" x2="570.8754208754208" y1="400" y2="405"/><text class="poloto_text" alignment-baseline="start" text-anchor="middle" x="570.8754208754208" y="430">25000</text><line class="poloto_axis_lines" stroke="black" x1="150" x2="144" y1="359.64676232427405" y2="359.64676232427405"/><text class="poloto_text" alignment-baseline="middle" text-anchor="end" x="135" y="359.64676232427405">0.001</text><line class="poloto_axis_lines" stroke="black" x1="150" x2="144" y1="319.2905786471396" y2="319.2905786471396"/><text class="poloto_text" alignment-baseline="middle" text-anchor="end" x="135" y="319.2905786471396">0.002</text><line class="poloto_axis_lines" stroke="black" x1="150" x2="144" y1="278.93439497000526" y2="278.93439497000526"/><text class="poloto_text" alignment-baseline="middle" text-anchor="end" x="135" y="278.93439497000526">0.003</text><line class="poloto_axis_lines" stroke="black" x1="150" x2="144" y1="238.57821129287083" y2="238.57821129287083"/><text class="poloto_text" alignment-baseline="middle" text-anchor="end" x="135" y="238.57821129287083">0.004</text><line class="poloto_axis_lines" stroke="black" x1="150" x2="144" y1="198.22202761573647" y2="198.22202761573647"/><text class="poloto_text" alignment-baseline="middle" text-anchor="end" x="135" y="198.22202761573647">0.005</text><line class="poloto_axis_lines" stroke="black" x1="150" x2="144" y1="157.8658439386021" y2="157.8658439386021"/><text class="poloto_text" alignment-baseline="middle" text-anchor="end" x="135" y="157.8658439386021">0.006</text><line class="poloto_axis_lines" stroke="black" x1="150" x2="144" y1="117.50966026146767" y2="117.50966026146767"/><text class="poloto_text" alignment-baseline="middle" text-anchor="end" x="135" y="117.50966026146767">0.007</text><text class="poloto_text" alignment-baseline="middle" text-anchor="start" font-size="large" x="675" y="100">default_par</text><line class="poloto0stroke" stroke="black" x1="680" x2="730" y1="81.25" y2="81.25"/><polyline class="poloto0stroke" fill="none" stroke="black" points="650,339.89648638886814 644.9494949494949,341.19809438100674 639.8989898989898,334.87016406806475 634.8484848484848,332.3943929118399 629.7979797979798,337.3374200695337 624.7474747474747,337.96253735469253 619.6969696969697,344.5971343073971 614.6464646464647,337.0611012798964 609.5959595959596,347.0734704501934 604.5454545454545,346.7247526670393 599.4949494949494,340.72039823482055 594.4444444444445,345.3053046185634 589.3939393939394,349.5479905647243 584.3434343434344,354.68230603304767 579.2929292929293,354.86193140659464 574.2424242424242,351.0060998371628 569.1919191919192,359.2897311672824 564.1414141414141,353.40769632778904 559.090909090909,357.3446841825956 554.040404040404,359.2527245468505 548.989898989899,353.1000207834346 543.939393939394,355.6482312893599 538.8888888888889,348.47056117291214 533.8383838383838,347.70528686184264 528.7878787878788,350.2715365818716 523.7373737373737,349.3615449961359 518.6868686868687,350.36185372094104 513.6363636363636,351.15707232029894 508.5858585858586,351.6637038501817 503.5353535353535,345.9414794980498 498.4848484848485,356.3442140330558 493.4343434343434,359.90580866729755 488.3838383838384,356.0802038794399 483.3333333333333,360.1068228181934 478.2828282828283,362.11712575188614 473.2323232323232,359.61338776037303 468.1818181818182,362.05231372090066 463.1313131313131,360.86539800277245 458.0808080808081,364.5635579625777 453.030303030303,358.35427482964644 447.979797979798,361.1134271076521 442.9292929292929,365.14739087183483 437.8787878787879,360.9481281793106 432.8282828282828,360.5684572032761 427.77777777777777,368.77726816885837 422.72727272727275,368.1197448682068 417.67676767676767,368.3613573398818 412.62626262626264,368.44763886058354 407.57575757575756,367.5361944522354 402.52525252525254,368.18564651615156 397.47474747474746,364.9589274940626 392.4242424242424,360.32357588072324 387.37373737373736,365.0679699023582 382.32323232323233,365.3387598948318 377.27272727272725,369.53051633719207 372.22222222222223,366.87996254946154 367.1717171717172,366.06065130844837 362.1212121212121,365.38876120640776 357.07070707070704,366.0547593056315 352.020202020202,368.5287951459582 346.969696969697,371.8403832223202 341.9191919191919,371.7934893368874 336.86868686868684,378.2522947534943 331.8181818181818,378.6378577323457 326.7676767676768,380.54505061674337 321.7171717171717,376.4744434377819 316.66666666666663,379.1480809625757 311.6161616161616,373.25252680155046 306.5656565656566,374.69917491782473 301.5151515151515,375.7524309556143 296.4646464646464,379.39752253388406 291.4141414141414,379.35696456928855 286.3636363636364,380.5681747099904 281.3131313131313,376.33610244013664 276.26262626262627,381.86138861592417 271.2121212121212,381.3192436444055 266.16161616161617,382.5407849681287 261.1111111111111,384.2737602075922 256.06060606060606,387.97155696174434 251.010101010101,387.1233103370347 245.95959595959596,387.83301418318075 240.9090909090909,385.69752636772154 235.85858585858585,387.4208968354699 230.8080808080808,390.7686844085902 225.75757575757575,390.910455681848 220.7070707070707,391.97198473729134 215.65656565656565,392.44160964674217 210.6060606060606,393.22274393799677 205.55555555555554,392.4672358233771 200.50505050505052,392.4791408975619 195.45454545454544,393.3248047265162 190.40404040404042,393.3645152112545 185.35353535353534,394.17494809185877 180.3030303030303,395.7969841823938 175.25252525252526,396.6777578911473 170.2020202020202,397.1774885136212 165.15151515151516,398.20144596206114 160.1010101010101,398.87838058706143 155.05050505050505,399.47141470619687 150,399.99995964381634 "/><text class="poloto_text" alignment-baseline="middle" text-anchor="start" font-size="large" x="675" y="150">default_seq</text><line class="poloto1stroke" stroke="black" x1="680" x2="730" y1="131.25" y2="131.25"/><polyline class="poloto1stroke" fill="none" stroke="black" points="650,264.58660134345735 644.9494949494949,298.3303436127259 639.8989898989898,295.98556862871703 634.8484848484848,301.07904363915924 629.7979797979798,297.7808134595944 624.7474747474747,298.2147635026746 619.6969696969697,302.66851228946683 614.6464646464647,303.8170492769181 609.5959595959596,304.78914902933286 604.5454545454545,304.8633640511151 599.4949494949494,305.6878812398227 594.4444444444445,305.9468872266625 589.3939393939394,309.37244116572873 584.3434343434344,307.91521972933106 579.2929292929293,312.2534287622557 574.2424242424242,313.00001816028265 569.1919191919192,313.3604795928868 564.1414141414141,311.90567952750985 559.090909090909,315.8663968183185 554.040404040404,317.0739749024894 548.989898989899,315.87854402960534 543.939393939394,318.23800866447266 538.8888888888889,320.1675588746275 533.8383838383838,320.01945168053237 528.7878787878788,321.5765546715309 523.7373737373737,314.8555954857573 518.6868686868687,322.38747182633927 513.6363636363636,322.8128260022963 508.5858585858586,323.70082346792793 503.5353535353535,326.7115561949769 498.4848484848485,325.20275955583986 493.4343434343434,329.29366589519094 488.3838383838384,330.15567397853454 483.3333333333333,327.69144469084137 478.2828282828283,332.46174738239705 473.2323232323232,333.88531176160797 468.1818181818182,332.50020682544135 463.1313131313131,335.666714421484 458.0808080808081,333.94475642016437 453.030303030303,336.9614618623975 447.979797979798,338.3645656564841 442.9292929292929,339.29590566338504 437.8787878787879,340.6687423197138 432.8282828282828,341.17141894359617 427.77777777777777,342.44752182765086 422.72727272727275,346.59351435772123 417.67676767676767,348.0418170775263 412.62626262626264,349.35928504985 407.57575757575756,350.5481378647947 402.52525252525254,351.0121129085307 397.47474747474746,350.8516970784141 392.4242424242424,351.87718806183375 387.37373737373736,354.38419490422467 382.32323232323233,354.65696234969846 377.27272727272725,356.2375526395971 372.22222222222223,356.4318273078188 367.1717171717172,358.8990833092878 362.1212121212121,353.58724098896863 357.07070707070704,358.78104147203214 352.020202020202,361.6690106883352 346.969696969697,362.75975762076087 341.9191919191919,361.3623440485727 336.86868686868684,363.00048225639495 331.8181818181818,365.04411939780505 326.7676767676768,366.0494726455698 321.7171717171717,367.2387693785349 316.66666666666663,368.3173690996737 311.6161616161616,369.3696162328713 306.5656565656566,369.6869772613083 301.5151515151515,370.8711084027628 296.4646464646464,372.3786540002058 291.4141414141414,373.3631431010095 286.3636363636364,376.1724177591422 281.3131313131313,377.05617782548774 276.26262626262627,377.95959135328405 271.2121212121212,378.96018257137496 266.16161616161617,379.5817888685539 261.1111111111111,381.46977220952124 256.06060606060606,382.08548650388326 251.010101010101,382.4710898389183 245.95959595959596,383.1126320908337 240.9090909090909,384.3491455587011 235.85858585858585,384.4169439472787 230.8080808080808,386.27199664236554 225.75757575757575,387.4390571181246 220.7070707070707,387.3770700199965 215.65656565656565,389.6945642238396 210.6060606060606,390.36903712163553 205.55555555555554,390.8391059491068 200.50505050505052,391.5526839888859 195.45454545454544,392.43418410894554 190.40404040404042,393.8237685815003 185.35353535353534,394.54787958521916 180.3030303030303,395.6021445276006 175.25252525252526,396.2187870141872 170.2020202020202,397.07106925726464 165.15151515151516,398.046720353843 160.1010101010101,398.78955662678806 155.05050505050505,399.41588459745714 150,400 "/><text class="poloto_text" alignment-baseline="middle" text-anchor="start" font-size="large" x="675" y="200">direct_par</text><line class="poloto2stroke" stroke="black" x1="680" x2="730" y1="181.25" y2="181.25"/><polyline class="poloto2stroke" fill="none" stroke="black" points="650,100 644.9494949494949,332.32122715083324 639.8989898989898,330.9933876393045 634.8484848484848,330.6963661274408 629.7979797979798,328.33601365653254 624.7474747474747,331.2122392233856 619.6969696969697,335.37029825237545 614.6464646464647,328.9453920300573 609.5959595959596,330.9242574966656 604.5454545454545,335.0950690796974 599.4949494949494,340.9832380591097 594.4444444444445,333.41157052142205 589.3939393939394,337.6750399021766 584.3434343434344,347.3152443466031 579.2929292929293,346.6200687265808 574.2424242424242,346.0758655896947 569.1919191919192,350.2788410511172 564.1414141414141,346.98234618745045 559.090909090909,351.12192208431617 554.040404040404,345.98817160256425 548.989898989899,343.1096053770579 543.939393939394,344.8037983240077 538.8888888888889,345.21244503992233 533.8383838383838,344.41597539887044 528.7878787878788,347.7330115600288 523.7373737373737,348.85079713551806 518.6868686868687,343.14608736710204 513.6363636363636,350.6871649175624 508.5858585858586,348.04500521603677 503.5353535353535,344.2781993877967 498.4848484848485,350.5860323212675 493.4343434343434,346.91345818191354 488.3838383838384,350.9229660987879 483.3333333333333,352.36590144616383 478.2828282828283,355.7184510489581 473.2323232323232,351.78118070086583 468.1818181818182,356.6675074204933 463.1313131313131,353.06886580963584 458.0808080808081,353.91820205130483 453.030303030303,357.02849348348525 447.979797979798,359.1673308621897 442.9292929292929,359.68958023515546 437.8787878787879,356.40934891351066 432.8282828282828,364.5340979484934 427.77777777777777,364.25370318430464 422.72727272727275,362.1396041461943 417.67676767676767,362.8164580588272 412.62626262626264,366.09370302287994 407.57575757575756,364.9731732269006 402.52525252525254,367.1160462239728 397.47474747474746,357.1242587073511 392.4242424242424,361.0970828532629 387.37373737373736,362.22532068032456 382.32323232323233,360.376603906075 377.27272727272725,355.0894595701663 372.22222222222223,362.9462031893492 367.1717171717172,364.35988030355924 362.1212121212121,361.5700169697752 357.07070707070704,362.50837895263595 352.020202020202,363.0468111552563 346.969696969697,364.38946138619457 341.9191919191919,364.21964256528116 336.86868686868684,373.599065350786 331.8181818181818,373.5687578568445 326.7676767676768,375.7338267549391 321.7171717171717,375.3912431117039 316.66666666666663,374.92868053439656 311.6161616161616,369.9536509230468 306.5656565656566,370.7236872637902 301.5151515151515,374.535651661565 296.4646464646464,375.16472385272414 291.4141414141414,376.06377891268335 286.3636363636364,372.5679245016516 281.3131313131313,377.00024415491123 276.26262626262627,375.39826508766373 271.2121212121212,378.54011505547965 266.16161616161617,379.4632627570941 261.1111111111111,379.9778040989776 256.06060606060606,381.6445548410269 251.010101010101,386.0281645805883 245.95959595959596,386.4631638844441 240.9090909090909,387.511375399274 235.85858585858585,385.40115055479663 230.8080808080808,389.04446646098467 225.75757575757575,389.7384717516803 220.7070707070707,390.47755489954335 215.65656565656565,390.51678111007755 210.6060606060606,391.1024704037838 205.55555555555554,392.27582644419647 200.50505050505052,391.3515487694391 195.45454545454544,392.45290937817174 190.40404040404042,392.9901712514654 185.35353535353534,394.63028691228783 180.3030303030303,395.25031931830335 175.25252525252526,396.2339609392498 170.2020202020202,396.9676363585001 165.15151515151516,398.04131262523026 160.1010101010101,398.7929465462169 155.05050505050505,399.4386051288674 150,399.9973364918773 "/><text class="poloto_text" alignment-baseline="middle" text-anchor="start" font-size="large" x="675" y="250">direct_seq</text><line class="poloto3stroke" stroke="black" x1="680" x2="730" y1="231.25" y2="231.25"/><polyline class="poloto3stroke" fill="none" stroke="black" points="650,273.16099897697075 644.9494949494949,279.5544273760207 639.8989898989898,277.8555127555808 634.8484848484848,283.09644926117915 629.7979797979798,279.09311584040745 624.7474747474747,281.4412403876615 619.6969696969697,284.9028323987514 614.6464646464647,286.0318369933029 609.5959595959596,287.0680627215807 604.5454545454545,285.75923097256384 599.4949494949494,290.88846156174395 594.4444444444445,289.5732938918898 589.3939393939394,292.87612467639383 584.3434343434344,291.22967309473415 579.2929292929293,296.15131147507907 574.2424242424242,297.21760256019627 569.1919191919192,297.8441323117838 564.1414141414141,296.6131879972639 559.090909090909,301.37941471426814 554.040404040404,302.3448556963762 548.989898989899,301.1373583245727 543.939393939394,302.9988276528642 538.8888888888889,305.5877979043034 533.8383838383838,305.9319150825183 528.7878787878788,307.60213645636384 523.7373737373737,306.74602037583713 518.6868686868687,308.1511419791076 513.6363636363636,309.4359214426529 508.5858585858586,311.0491598851463 503.5353535353535,313.8202979497041 498.4848484848485,312.91393842049933 493.4343434343434,316.67388369751427 488.3838383838384,318.1997913585304 483.3333333333333,317.5670063984729 478.2828282828283,320.628224711302 473.2323232323232,322.1157536416411 468.1818181818182,321.25648977878757 463.1313131313131,322.985227618965 458.0808080808081,322.5848942768878 453.030303030303,325.5585800273211 447.979797979798,327.9333396558021 442.9292929292929,328.2034032369695 437.8787878787879,330.645719116926 432.8282828282828,330.39692324455643 427.77777777777777,332.8107880150206 422.72727272727275,338.20011420799983 417.67676767676767,339.5470421944078 412.62626262626264,340.3669184219925 407.57575757575756,341.61073635910543 402.52525252525254,342.92489512436765 397.47474747474746,344.31738524214717 392.4242424242424,344.705894222407 387.37373737373736,347.63785167891814 382.32323232323233,347.0494181647218 377.27272727272725,349.08805113935597 372.22222222222223,349.4678028277578 367.1717171717172,351.61047404391155 362.1212121212121,352.2646881375016 357.07070707070704,353.1656802942773 352.020202020202,355.6168341784591 346.969696969697,357.0248210707706 341.9191919191919,356.9733669365823 336.86868686868684,357.1484320613737 331.8181818181818,360.12986619907304 326.7676767676768,360.6588550547129 321.7171717171717,362.11446224376346 316.66666666666663,363.0978213714242 311.6161616161616,364.297529999778 306.5656565656566,364.4365974087294 301.5151515151515,367.2839279480697 296.4646464646464,368.37515915469936 291.4141414141414,369.13740675199307 286.3636363636364,372.50726915758486 281.3131313131313,373.5570949197618 276.26262626262627,374.2960569990738 271.2121212121212,375.8821760861362 266.16161616161617,376.87243612120574 261.1111111111111,379.0488854630973 256.06060606060606,379.2599483037287 251.010101010101,380.173491233628 245.95959595959596,380.72281960584115 240.9090909090909,382.04391963469584 235.85858585858585,382.59236017086806 230.8080808080808,384.193411045891 225.75757575757575,385.32524057329994 220.7070707070707,385.7274706560099 215.65656565656565,388.0486372725677 210.6060606060606,388.9607273798546 205.55555555555554,390.1630188039638 200.50505050505052,390.94899583725964 195.45454545454544,391.50901859814724 190.40404040404042,392.7938384178762 185.35353535353534,393.72917368696113 180.3030303030303,394.9956717993006 175.25252525252526,395.92882783446703 170.2020202020202,396.8022163616075 165.15151515151516,397.85571453649914 160.1010101010101,398.70194335202495 155.05050505050505,399.38299430776027 150,399.99281659930546 "/><text class="poloto_text" alignment-baseline="middle" text-anchor="start" font-size="large" x="675" y="300">indirect_par</text><line class="poloto4stroke" stroke="black" x1="680" x2="730" y1="281.25" y2="281.25"/><polyline class="poloto4stroke" fill="none" stroke="black" points="650,255.51929328251146 644.9494949494949,275.16625738770387 639.8989898989898,271.12805622423514 634.8484848484848,258.43087086626565 629.7979797979798,276.98430346235875 624.7474747474747,275.8796740027483 619.6969696969697,288.12281193816625 614.6464646464647,283.825806568776 609.5959595959596,286.78375340757526 604.5454545454545,298.35984398299394 599.4949494949494,287.17440126556994 594.4444444444445,282.6418772082399 589.3939393939394,296.9734476489496 584.3434343434344,299.5482932361018 579.2929292929293,309.79182262650147 574.2424242424242,306.67660773991247 569.1919191919192,319.30438046195724 564.1414141414141,313.9301071254896 559.090909090909,316.3676206195885 554.040404040404,314.39258899042954 548.989898989899,310.75080661922124 543.939393939394,315.63785975015486 538.8888888888889,312.5365273907508 533.8383838383838,315.8785036734216 528.7878787878788,316.90564926037206 523.7373737373737,312.22316162449783 518.6868686868687,323.37635975116376 513.6363636363636,315.0260600056095 508.5858585858586,314.5747971597318 503.5353535353535,311.90414599253006 498.4848484848485,324.92805501354957 493.4343434343434,322.5752087928053 488.3838383838384,323.4090482599422 483.3333333333333,329.4712331033703 478.2828282828283,334.2046905992288 473.2323232323232,324.7262337389802 468.1818181818182,333.4900632986741 463.1313131313131,330.1840040194759 458.0808080808081,331.3031213490265 453.030303030303,336.82760040114044 447.979797979798,340.2595709734113 442.9292929292929,332.8200295810826 437.8787878787879,336.3832788188552 432.8282828282828,341.66545934417167 427.77777777777777,344.0392907804281 422.72727272727275,343.58483979603983 417.67676767676767,346.5312851224911 412.62626262626264,348.9912366547145 407.57575757575756,348.0988807212457 402.52525252525254,347.9868115991743 397.47474747474746,337.2933107607746 392.4242424242424,345.52318765423627 387.37373737373736,349.3999640829965 382.32323232323233,343.29290316331947 377.27272727272725,343.50243246897116 372.22222222222223,348.0233743015858 367.1717171717172,351.3147842861092 362.1212121212121,347.6273187149784 357.07070707070704,355.1687191149082 352.020202020202,347.70383403923023 346.969696969697,351.9787645761491 341.9191919191919,358.3811116917918 336.86868686868684,364.6170299059499 331.8181818181818,365.22221123637223 326.7676767676768,369.3017774881101 321.7171717171717,365.98050392766555 316.66666666666663,366.77737713055427 311.6161616161616,357.3754355945576 306.5656565656566,363.65489813090335 301.5151515151515,365.3763315018352 296.4646464646464,367.54935056811416 291.4141414141414,369.0585104129043 286.3636363636364,367.2078565418383 281.3131313131313,365.02462736108896 276.26262626262627,372.0256988177656 271.2121212121212,374.8169746179783 266.16161616161617,374.1887499066763 261.1111111111111,383.24140867294744 256.06060606060606,382.0063480276924 251.010101010101,383.79582192430394 245.95959595959596,385.2600249804777 240.9090909090909,382.85737922907583 235.85858585858585,386.15189663974235 230.8080808080808,382.92602509751066 225.75757575757575,388.85204817721205 220.7070707070707,389.0035049345524 215.65656565656565,388.46894692556504 210.6060606060606,390.04780189956557 205.55555555555554,390.0535324776477 200.50505050505052,391.0658673451886 195.45454545454544,391.1999709435477 190.40404040404042,392.5403208720164 185.35353535353534,392.66312473894595 180.3030303030303,394.7923977021189 175.25252525252526,395.86123122680783 170.2020202020202,396.68328668831106 165.15151515151516,397.92617643319943 160.1010101010101,398.7756337434194 155.05050505050505,399.43715230625503 150,399.99955608197956 "/><text class="poloto_text" alignment-baseline="middle" text-anchor="start" font-size="large" x="675" y="350">indirect_seq</text><line class="poloto5stroke" stroke="black" x1="680" x2="730" y1="331.25" y2="331.25"/><polyline class="poloto5stroke" fill="none" stroke="black" points="650,213.01478852350849 644.9494949494949,220.58217830572633 639.8989898989898,166.8057475276793 634.8484848484848,224.98459402688124 629.7979797979798,222.27249705904313 624.7474747474747,224.45826867936407 619.6969696969697,229.51227534216997 614.6464646464647,228.55074890987856 609.5959595959596,235.5963332371511 604.5454545454545,233.03476483442867 599.4949494949494,235.66659335293298 594.4444444444445,236.6561269766963 589.3939393939394,243.05395419976716 584.3434343434344,241.18800533508747 579.2929292929293,252.12453111159093 574.2424242424242,252.14656558787863 569.1919191919192,250.1418318075333 564.1414141414141,248.94123534313854 559.090909090909,258.9034417771249 554.040404040404,261.0857831218333 548.989898989899,259.4447392687863 543.939393939394,265.21054829928954 538.8888888888889,268.1027549148787 533.8383838383838,267.2371551311879 528.7878787878788,270.89964022462254 523.7373737373737,269.5671597519709 518.6868686868687,272.5262769200968 513.6363636363636,270.9053708027047 508.5858585858586,276.52093376137793 503.5353535353535,280.93190499347236 498.4848484848485,277.50832850740636 493.4343434343434,285.60926739401964 488.3838383838384,288.48266802801527 483.3333333333333,286.63887470817434 478.2828282828283,290.030368028217 473.2323232323232,294.4129688631865 468.1818181818182,291.691791754021 463.1313131313131,297.01404596972884 458.0808080808081,293.338081910946 453.030303030303,299.03835249915755 447.979797979798,302.5265795914744 442.9292929292929,302.7750122581908 437.8787878787879,305.4034912134499 432.8282828282828,306.3036358903684 427.77777777777777,308.9374822180566 422.72727272727275,314.3267276986685 417.67676767676767,317.5409363038175 412.62626262626264,319.1618827773933 407.57575757575756,294.7782326816482 402.52525252525254,322.19178469168884 397.47474747474746,325.8899446514941 392.4242424242424,324.2663750259793 387.37373737373736,328.74885741554965 382.32323232323233,329.61925958509806 377.27272727272725,332.20225712135306 372.22222222222223,331.7434880253114 367.1717171717172,334.5777835173239 362.1212121212121,335.86877783315543 357.07070707070704,337.8710498862965 352.020202020202,341.6558545724565 346.969696969697,343.34815077877346 341.9191919191919,343.3175204353625 336.86868686868684,344.66303595534185 331.8181818181818,348.745185002835 326.7676767676768,348.855680233743 321.7171717171717,351.4405745106308 316.66666666666663,352.2870454632587 311.6161616161616,354.3200689283617 306.5656565656566,355.8421831081122 301.5151515151515,357.14302433276094 296.4646464646464,359.61762515965916 291.4141414141414,361.0202850357253 286.3636363636364,363.9602733727882 281.3131313131313,365.25498045751806 276.26262626262627,367.71864475863975 271.2121212121212,368.91883766119776 266.16161616161617,370.19110670780304 261.1111111111111,373.07116611210546 256.06060606060606,373.13783452754006 251.010101010101,375.2564131020386 245.95959595959596,375.8317308565398 240.9090909090909,377.71168331695543 235.85858585858585,377.970971797081 230.8080808080808,381.09720392181396 225.75757575757575,382.912102214142 220.7070707070707,383.1581538660215 215.65656565656565,385.306232810788 210.6060606060606,386.87116490141995 205.55555555555554,388.05396428881306 200.50505050505052,389.00931622500184 195.45454545454544,389.92096241426833 190.40404040404042,391.7511960563937 185.35353535353534,392.827737612165 180.3030303030303,394.3793521621834 175.25252525252526,395.51872829594 170.2020202020202,396.47323275227154 165.15151515151516,397.69170700603524 160.1010101010101,398.6322885789982 155.05050505050505,399.3687485749223 150,399.9994350134285 "/><text class="poloto_text" alignment-baseline="start" text-anchor="middle" font-size="x-large" x="400" y="37.5">Bench of rebal:32_bytes with abspiral(num,1.5)</text><text class="poloto_text" alignment-baseline="start" text-anchor="middle" font-size="x-large" x="400" y="481.25">Number of Elements</text><text class="poloto_text" alignment-baseline="start" text-anchor="middle" font-size="x-large" transform="rotate(-90,37.5,250)" x="37.5" y="250">Time in Seconds</text><path stroke="black" fill="none" class="poloto_axis_lines" d=" M 150 100 L 150 400 L 650 400"/></svg>