<svg class="poloto" width="800" height="500" viewBox="0 0 800 500" xmlns="http://www.w3.org/2000/svg" ><rect class="poloto_background" fill="white" x="0" y="0" width="800" height="500" /><style><style>.poloto {
            font-family: "Arial";
            stroke-width:2;
            }
            .poloto_text{fill: var(--poloto_fg_color,black);  }
            .poloto_axis_lines{stroke: var(--poloto_fg_color,black);stoke-width:3;fill:none}
            .poloto_background{fill: var(--poloto_bg_color,aliceblue); }
            .poloto0stroke{stroke:  var(--poloto_color0,blue); }
            .poloto1stroke{stroke:  var(--poloto_color1,red); }
            .poloto2stroke{stroke:  var(--poloto_color2,green); }
            .poloto3stroke{stroke:  var(--poloto_color3,gold); }
            .poloto4stroke{stroke:  var(--poloto_color4,aqua); }
            .poloto5stroke{stroke:  var(--poloto_color5,brown); }
            .poloto6stroke{stroke:  var(--poloto_color6,lime); }
            .poloto7stroke{stroke:  var(--poloto_color7,chocolate); }
            .poloto0fill{fill:var(--poloto_color0,blue);}
            .poloto1fill{fill:var(--poloto_color1,red);}
            .poloto2fill{fill:var(--poloto_color2,green);}
            .poloto3fill{fill:var(--poloto_color3,gold);}
            .poloto4fill{fill:var(--poloto_color4,aqua);}
            .poloto5fill{fill:var(--poloto_color5,brown);}
            .poloto6fill{fill:var(--poloto_color6,lime);}
            .poloto7fill{fill:var(--poloto_color7,chocolate);}</style></style><line class="poloto_axis_lines" stroke="black" x1="150" x2="150" y1="400" y2="405" /><text class="poloto_text" alignment-baseline="start" text-anchor="middle" x="150" y="430" >0</text><line class="poloto_axis_lines" stroke="black" x1="234.17508" x2="234.17508" y1="400" y2="405" /><text class="poloto_text" alignment-baseline="start" text-anchor="middle" x="234.17508" y="430" >5000</text><line class="poloto_axis_lines" stroke="black" x1="318.35016" x2="318.35016" y1="400" y2="405" /><text class="poloto_text" alignment-baseline="start" text-anchor="middle" x="318.35016" y="430" >10000</text><line class="poloto_axis_lines" stroke="black" x1="402.52527" x2="402.52527" y1="400" y2="405" /><text class="poloto_text" alignment-baseline="start" text-anchor="middle" x="402.52527" y="430" >15000</text><line class="poloto_axis_lines" stroke="black" x1="486.70035" x2="486.70035" y1="400" y2="405" /><text class="poloto_text" alignment-baseline="start" text-anchor="middle" x="486.70035" y="430" >20000</text><line class="poloto_axis_lines" stroke="black" x1="570.8754" x2="570.8754" y1="400" y2="405" /><text class="poloto_text" alignment-baseline="start" text-anchor="middle" x="570.8754" y="430" >25000</text><line class="poloto_axis_lines" stroke="black" x1="150" x2="144" y1="360.8897" y2="360.8897" /><text class="poloto_text" alignment-baseline="middle" text-anchor="end" x="135" y="360.8897" >0.002</text><line class="poloto_axis_lines" stroke="black" x1="150" x2="144" y1="321.77612" y2="321.77612" /><text class="poloto_text" alignment-baseline="middle" text-anchor="end" x="135" y="321.77612" >0.004</text><line class="poloto_axis_lines" stroke="black" x1="150" x2="144" y1="282.6625" y2="282.6625" /><text class="poloto_text" alignment-baseline="middle" text-anchor="end" x="135" y="282.6625" >0.006</text><line class="poloto_axis_lines" stroke="black" x1="150" x2="144" y1="243.54889" y2="243.54889" /><text class="poloto_text" alignment-baseline="middle" text-anchor="end" x="135" y="243.54889" >0.008</text><line class="poloto_axis_lines" stroke="black" x1="150" x2="144" y1="204.4353" y2="204.4353" /><text class="poloto_text" alignment-baseline="middle" text-anchor="end" x="135" y="204.4353" >0.010</text><line class="poloto_axis_lines" stroke="black" x1="150" x2="144" y1="165.32169" y2="165.32169" /><text class="poloto_text" alignment-baseline="middle" text-anchor="end" x="135" y="165.32169" >0.012</text><line class="poloto_axis_lines" stroke="black" x1="150" x2="144" y1="126.2081" y2="126.2081" /><text class="poloto_text" alignment-baseline="middle" text-anchor="end" x="135" y="126.2081" >0.014</text><text class="poloto_text" alignment-baseline="middle" text-anchor="start" font-size="large" x="675" y="100" >default_par</text><line class="poloto0stroke" stroke="black" x1="680" x2="730" y1="81.25" y2="81.25" /><polyline class="poloto0stroke" fill="none" stroke="black"  points="650,375.33133 644.94946,376.13107 639.899,374.6079 634.8485,377.27612 629.798,378.2361 624.7475,376.75443 619.697,377.67712 614.6465,379.42844 609.59595,377.36688 604.5455,377.93652 599.495,380.4169 594.44446,376.9105 589.3939,378.80847 584.34344,378.42795 579.29297,379.73834 574.24243,377.1353 569.1919,376.87585 564.1414,380.55167 559.09094,379.34317 554.0404,380.9535 548.98987,378.76236 543.9394,381.01028 538.8889,381.07645 533.8384,381.08426 528.78784,379.12207 523.73737,378.46457 518.6869,383.19495 513.63635,381.11014 508.58588,383.6386 503.53537,383.80063 498.48486,383.77704 493.43436,380.64624 488.38385,383.92825 483.33334,384.81265 478.28284,384.25092 473.23233,384.66888 468.18182,384.576 463.13132,383.3608 458.0808,385.18442 453.0303,385.169 447.9798,384.59985 442.9293,384.24564 437.87878,385.4084 432.82828,387.50903 427.77777,383.63748 422.72726,386.44144 417.67676,387.7052 412.62628,386.63107 407.57578,386.5755 402.52527,386.54456 397.47473,388.01083 392.42426,388.41458 387.37375,387.2133 382.32324,387.94147 377.27274,389.922 372.22223,389.98224 367.17172,385.73053 362.12122,387.66083 357.0707,390.62457 352.0202,387.60757 346.9697,389.40952 341.9192,388.54184 336.86868,386.5604 331.81818,389.90494 326.7677,390.26825 321.71716,391.65308 316.6667,390.95383 311.61615,390.39435 306.56567,388.2634 301.51514,391.37836 296.46466,392.54153 291.41412,392.53284 286.36365,391.8244 281.31314,390.67365 276.26263,390.05664 271.21213,393.23294 266.16162,391.33902 261.1111,391.45935 256.0606,394.21313 251.0101,393.4488 245.9596,391.09668 240.90909,394.57724 235.85858,391.1507 230.80807,393.4955 225.75757,394.2837 220.70706,394.35205 215.65657,392.3523 210.60606,392.1837 205.55556,392.6214 200.50505,393.63455 195.45454,393.98557 190.40404,393.48032 185.35353,393.53564 180.30302,397.11893 175.25253,397.63123 170.20203,398.0191 165.15152,398.70157 160.10101,399.07986 155.0505,399.5819 150,399.99902 "/><text class="poloto_text" alignment-baseline="middle" text-anchor="start" font-size="large" x="675" y="150" >default_seq</text><line class="poloto1stroke" stroke="black" x1="680" x2="730" y1="131.25" y2="131.25" /><polyline class="poloto1stroke" fill="none" stroke="black"  points="650,338.43454 644.94946,338.77792 639.899,339.40674 634.8485,339.03052 629.798,340.09686 624.7475,340.81345 619.697,342.16827 614.6465,342.91757 609.59595,343.05072 604.5455,343.4955 599.495,345.22498 594.44446,344.17233 589.3939,346.2996 584.34344,346.20938 579.29297,347.12592 574.24243,347.1703 569.1919,346.5171 564.1414,347.94254 559.09094,349.39676 554.0404,348.9085 548.98987,350.507 543.9394,350.9549 538.8889,351.74847 533.8384,352.27896 528.78784,352.3095 523.73737,353.90936 518.6869,353.89395 513.63635,355.27875 508.58588,354.68134 503.53537,355.6393 498.48486,356.67792 493.43436,356.81165 488.38385,357.81613 483.33334,358.98825 478.28284,358.65634 473.23233,360.06216 468.18182,360.79907 463.13132,361.02225 458.0808,361.3164 453.0303,361.96335 447.9798,362.72095 442.9293,363.43542 437.87878,363.8581 432.82828,364.51984 427.77777,364.8687 422.72726,368.93655 417.67676,368.812 412.62628,369.75662 407.57578,369.65958 402.52527,371.0714 397.47473,370.99396 392.42426,371.49884 387.37375,372.7745 382.32324,373.3792 377.27274,373.52704 372.22223,373.97827 367.17172,375.16418 362.12122,375.6855 357.0707,375.65347 352.0202,376.20557 346.9697,377.1299 341.9192,377.04443 336.86868,378.39874 331.81818,378.30984 326.7677,379.143 321.71716,379.58496 316.6667,380.16327 311.61615,381.3607 306.56567,381.6749 301.51514,381.9746 296.46466,382.62366 291.41412,383.25546 286.36365,385.00964 281.31314,385.77197 276.26263,386.3163 271.21213,386.6932 266.16162,387.22333 261.1111,387.39404 256.0606,388.32755 251.0101,388.60013 245.9596,389.4146 240.90909,390.02643 235.85858,390.3283 230.80807,391.06824 225.75757,391.64948 220.70706,392.0553 215.65657,393.25244 210.60606,393.875 205.55556,394.26907 200.50505,394.6058 195.45454,395.2228 190.40404,395.449 185.35353,396.07883 180.30302,396.9782 175.25253,397.44736 170.20203,397.93936 165.15152,398.61044 160.10101,399.02777 155.0505,399.5398 150,400 "/><text class="poloto_text" alignment-baseline="middle" text-anchor="start" font-size="large" x="675" y="200" >direct_par</text><line class="poloto2stroke" stroke="black" x1="680" x2="730" y1="181.25" y2="181.25" /><polyline class="poloto2stroke" fill="none" stroke="black"  points="650,263.6037 644.94946,298.89496 639.899,297.28076 634.8485,296.9328 629.798,304.55573 624.7475,305.71603 619.697,305.96185 614.6465,309.45496 609.59595,310.59213 604.5455,283.10248 599.495,310.67365 594.44446,313.30966 589.3939,274.5296 584.34344,312.99185 579.29297,317.44296 574.24243,313.54437 569.1919,315.07877 564.1414,324.69348 559.09094,322.28595 554.0404,323.58826 548.98987,321.30984 543.9394,320.94772 538.8889,324.49518 533.8384,326.00803 528.78784,332.9415 523.73737,331.09988 518.6869,335.0902 513.63635,331.61667 508.58588,336.27557 503.53537,311.6668 498.48486,338.56113 493.43436,336.29718 488.38385,336.63705 483.33334,342.5993 478.28284,341.42184 473.23233,341.32394 468.18182,344.2955 463.13132,344.77518 458.0808,343.87833 453.0303,340.62003 447.9798,345.24683 442.9293,342.0858 437.87878,345.54657 432.82828,348.148 427.77777,347.74152 422.72726,351.8298 417.67676,353.90097 412.62628,352.42026 407.57578,351.4386 402.52527,353.7933 397.47473,336.30798 392.42426,353.023 387.37375,356.59683 382.32324,356.0923 377.27274,358.53748 372.22223,362.7468 367.17172,360.13113 362.12122,359.17108 357.0707,362.38815 352.0202,361.74487 346.9697,361.91547 341.9192,363.01825 336.86868,361.6322 331.81818,363.72552 326.7677,366.33057 321.71716,365.52786 316.6667,371.7685 311.61615,369.02008 306.56567,369.2276 301.51514,367.45102 296.46466,373.6751 291.41412,369.00092 286.36365,374.11093 281.31314,373.71133 276.26263,376.23712 271.21213,377.64154 266.16162,377.46347 261.1111,374.2244 256.0606,377.97287 251.0101,380.5189 245.9596,378.61755 240.90909,380.75323 235.85858,383.4344 230.80807,382.2781 225.75757,381.7842 220.70706,384.86722 215.65657,382.41565 210.60606,382.8767 205.55556,385.47128 200.50505,384.12582 195.45454,386.1805 190.40404,387.3779 185.35353,387.21313 180.30302,389.34445 175.25253,391.1324 170.20203,392.72906 165.15152,395.29968 160.10101,396.74048 155.0505,398.55426 150,399.99872 "/><text class="poloto_text" alignment-baseline="middle" text-anchor="start" font-size="large" x="675" y="250" >direct_seq</text><line class="poloto3stroke" stroke="black" x1="680" x2="730" y1="231.25" y2="231.25" /><polyline class="poloto3stroke" fill="none" stroke="black"  points="650,100 644.94946,118.18326 639.899,123.53769 634.8485,122.58063 629.798,129.45197 624.7475,131.27502 619.697,138.25034 614.6465,146.38303 609.59595,145.5217 604.5455,147.27264 599.495,157.63306 594.44446,155.43442 589.3939,163.82767 584.34344,163.06567 579.29297,169.86082 574.24243,169.03691 569.1919,165.44604 564.1414,172.1023 559.09094,182.49739 554.0404,180.08234 548.98987,189.45712 543.9394,189.45415 538.8889,195.28749 533.8384,197.87286 528.78784,200.15962 523.73737,205.1686 518.6869,208.1383 513.63635,213.86813 508.58588,210.216 503.53537,211.54617 498.48486,220.25528 493.43436,220.83633 488.38385,224.41618 483.33334,228.70888 478.28284,229.00203 473.23233,234.66064 468.18182,237.49692 463.13132,238.44566 458.0808,239.5744 453.0303,243.10492 447.9798,246.0434 442.9293,250.41206 437.87878,251.12956 432.82828,254.44403 427.77777,256.96878 422.72726,272.34503 417.67676,271.79688 412.62628,277.14844 407.57578,274.82977 402.52527,281.18527 397.47473,275.45752 392.42426,282.84375 387.37375,288.36646 382.32324,290.24158 377.27274,292.64172 372.22223,293.03632 367.17172,299.1535 362.12122,300.97308 357.0707,300.30316 352.0202,303.2045 346.9697,307.35117 341.9192,306.11353 336.86868,312.054 331.81818,312.63657 326.7677,316.0589 321.71716,317.4227 316.6667,319.8764 311.61615,325.13113 306.56567,326.01544 301.51514,327.13834 296.46466,330.04504 291.41412,333.15613 286.36365,339.85596 281.31314,341.87936 276.26263,344.5011 271.21213,345.63647 266.16162,348.45157 261.1111,349.39337 256.0606,352.99707 251.0101,354.03082 245.9596,358.16202 240.90909,360.325 235.85858,361.68393 230.80807,365.00186 225.75757,366.86652 220.70706,368.88568 215.65657,373.38934 210.60606,375.8698 205.55556,377.42374 200.50505,379.5391 195.45454,381.50195 190.40404,383.4026 185.35353,384.99997 180.30302,388.18353 175.25253,390.03235 170.20203,392.05963 165.15152,394.81982 160.10101,396.3461 155.0505,398.13858 150,399.99683 "/><text class="poloto_text" alignment-baseline="middle" text-anchor="start" font-size="large" x="675" y="300" >indirect_par</text><line class="poloto4stroke" stroke="black" x1="680" x2="730" y1="281.25" y2="281.25" /><polyline class="poloto4stroke" fill="none" stroke="black"  points="650,358.65726 644.94946,365.74554 639.899,368.3652 634.8485,368.06158 629.798,370.95734 624.7475,370.29675 619.697,371.56076 614.6465,370.83728 609.59595,371.82623 604.5455,372.6845 599.495,373.44162 594.44446,371.80084 589.3939,373.55338 584.34344,373.0806 579.29297,369.90497 574.24243,370.5894 569.1919,369.88794 564.1414,372.9688 559.09094,372.67245 554.0404,373.7313 548.98987,374.75458 543.9394,375.7547 538.8889,375.45947 533.8384,377.05838 528.78784,377.79837 523.73737,377.66882 518.6869,377.71274 513.63635,377.5989 508.58588,367.54376 503.53537,378.15756 498.48486,380.51202 493.43436,376.8938 488.38385,378.55692 483.33334,381.83978 478.28284,379.27084 473.23233,378.88037 468.18182,380.94547 463.13132,379.90695 458.0808,380.1199 453.0303,380.40247 447.9798,379.73544 442.9293,381.3744 437.87878,378.761 432.82828,379.67255 427.77777,380.92972 422.72726,384.1326 417.67676,383.38263 412.62628,383.40976 407.57578,382.62625 402.52527,382.82233 397.47473,384.86353 392.42426,384.68677 387.37375,385.77393 382.32324,384.39713 377.27274,385.81073 372.22223,386.95786 367.17172,387.5908 362.12122,386.9343 357.0707,385.79593 352.0202,384.88553 346.9697,387.89355 341.9192,387.32394 336.86868,384.92154 331.81818,389.55075 326.7677,387.99326 321.71716,387.8077 316.6667,390.60352 311.61615,388.36417 306.56567,387.7425 301.51514,389.09564 296.46466,390.09622 291.41412,389.83435 286.36365,388.46057 281.31314,392.16528 276.26263,392.8502 271.21213,389.1043 266.16162,390.6452 261.1111,390.2846 256.0606,391.48615 251.0101,388.607 245.9596,392.071 240.90909,390.49008 235.85858,390.66815 230.80807,393.00595 225.75757,393.10614 220.70706,393.35275 215.65657,392.2545 210.60606,392.01126 205.55556,392.6143 200.50505,392.90686 195.45454,393.73282 190.40404,394.3023 185.35353,394.6055 180.30302,397.147 175.25253,397.76608 170.20203,398.19464 165.15152,398.81927 160.10101,399.18185 155.0505,399.63705 150,399.99878 "/><text class="poloto_text" alignment-baseline="middle" text-anchor="start" font-size="large" x="675" y="350" >indirect_seq</text><line class="poloto5stroke" stroke="black" x1="680" x2="730" y1="331.25" y2="331.25" /><polyline class="poloto5stroke" fill="none" stroke="black"  points="650,313.94992 644.94946,318.2536 639.899,316.5728 634.8485,315.51016 629.798,320.6864 624.7475,317.8573 619.697,317.99292 614.6465,323.17603 609.59595,326.10696 604.5455,326.14557 599.495,331.24713 594.44446,328.9469 589.3939,327.83618 584.34344,330.42725 579.29297,332.58032 574.24243,330.14453 569.1919,331.99518 564.1414,335.8991 559.09094,339.06375 554.0404,338.31387 548.98987,338.63107 543.9394,339.8033 538.8889,341.7987 533.8384,342.868 528.78784,345.4999 523.73737,347.20883 518.6869,347.47296 513.63635,349.46716 508.58588,348.6424 503.53537,346.83936 498.48486,351.68933 493.43436,351.96588 488.38385,353.14056 483.33334,354.9033 478.28284,350.7254 473.23233,356.55582 468.18182,354.53085 463.13132,354.57257 458.0808,355.18472 453.0303,356.4704 447.9798,357.1109 442.9293,358.72278 437.87878,358.3051 432.82828,359.92004 427.77777,359.95364 422.72726,365.66586 417.67676,365.24945 412.62628,367.02505 407.57578,364.51016 402.52527,366.4226 397.47473,367.81573 392.42426,367.88855 387.37375,368.98926 382.32324,369.7898 377.27274,370.26614 372.22223,370.43222 367.17172,371.85828 362.12122,372.5687 357.0707,372.19785 352.0202,373.69513 346.9697,374.27792 341.9192,374.35648 336.86868,375.59323 331.81818,376.7959 326.7677,377.48102 321.71716,378.04337 316.6667,377.9102 311.61615,380.35934 306.56567,379.64658 301.51514,379.1526 296.46466,381.222 291.41412,381.84604 286.36365,383.73294 281.31314,384.3825 276.26263,385.00327 271.21213,385.42795 266.16162,386.68604 261.1111,386.95435 256.0606,387.74854 251.0101,388.25412 245.9596,389.16528 240.90909,389.94598 235.85858,390.2133 230.80807,391.13577 225.75757,391.27908 220.70706,392.02197 215.65657,393.22437 210.60606,393.74393 205.55556,394.19238 200.50505,394.7084 195.45454,395.23254 190.40404,395.67487 185.35353,396.17902 180.30302,397.0884 175.25253,397.5349 170.20203,398.07755 165.15152,398.72574 160.10101,399.1268 155.0505,399.5912 150,399.99915 "/><text class="poloto_text" alignment-baseline="start" text-anchor="middle" font-size="x-large" x="400" y="37.5" >Bench of rebal:256_bytes with abspiral(num,0.1)</text><text class="poloto_text" alignment-baseline="start" text-anchor="middle" font-size="x-large" x="400" y="481.25" >Number of Elements</text><text class="poloto_text" alignment-baseline="start" text-anchor="middle" font-size="x-large" transform="rotate(-90,37.5,250)" x="37.5" y="250" >Time in Seconds</text><path stroke="black" fill="none" class="poloto_axis_lines"  d="M 150 100 L 150 400 L 650 400 "/></svg>