<svg class="poloto" width="800" height="500" viewBox="0 0 800 500" xmlns="http://www.w3.org/2000/svg"><style>.poloto {
    font-family: "Arial";
    stroke-width:2;
    }
    .poloto_text{fill: var(--poloto_fg_color,black);  }
    .poloto_axis_lines{stroke: var(--poloto_fg_color,black);stoke-width:3;fill:none}
    .poloto_background{fill: var(--poloto_bg_color,aliceblue); }
    .poloto0stroke{stroke:  var(--poloto_color0,blue); }
    .poloto1stroke{stroke:  var(--poloto_color1,red); }
    .poloto2stroke{stroke:  var(--poloto_color2,green); }
    .poloto3stroke{stroke:  var(--poloto_color3,gold); }
    .poloto4stroke{stroke:  var(--poloto_color4,aqua); }
    .poloto5stroke{stroke:  var(--poloto_color5,brown); }
    .poloto6stroke{stroke:  var(--poloto_color6,lime); }
    .poloto7stroke{stroke:  var(--poloto_color7,chocolate); }
    .poloto0fill{fill:var(--poloto_color0,blue);}
    .poloto1fill{fill:var(--poloto_color1,red);}
    .poloto2fill{fill:var(--poloto_color2,green);}
    .poloto3fill{fill:var(--poloto_color3,gold);}
    .poloto4fill{fill:var(--poloto_color4,aqua);}
    .poloto5fill{fill:var(--poloto_color5,brown);}
    .poloto6fill{fill:var(--poloto_color6,lime);}
    .poloto7fill{fill:var(--poloto_color7,chocolate);}</style><rect class="poloto_background" fill="white" x="0" y="0" width="800" height="500"/><line class="poloto_axis_lines" stroke="black" x1="150" x2="150" y1="400" y2="405"/><text class="poloto_text" alignment-baseline="start" text-anchor="middle" x="150" y="430">0</text><line class="poloto_axis_lines" stroke="black" x1="234.17508417508418" x2="234.17508417508418" y1="400" y2="405"/><text class="poloto_text" alignment-baseline="start" text-anchor="middle" x="234.17508417508418" y="430">5000</text><line class="poloto_axis_lines" stroke="black" x1="318.35016835016836" x2="318.35016835016836" y1="400" y2="405"/><text class="poloto_text" alignment-baseline="start" text-anchor="middle" x="318.35016835016836" y="430">10000</text><line class="poloto_axis_lines" stroke="black" x1="402.52525252525254" x2="402.52525252525254" y1="400" y2="405"/><text class="poloto_text" alignment-baseline="start" text-anchor="middle" x="402.52525252525254" y="430">15000</text><line class="poloto_axis_lines" stroke="black" x1="486.7003367003367" x2="486.7003367003367" y1="400" y2="405"/><text class="poloto_text" alignment-baseline="start" text-anchor="middle" x="486.7003367003367" y="430">20000</text><line class="poloto_axis_lines" stroke="black" x1="570.8754208754208" x2="570.8754208754208" y1="400" y2="405"/><text class="poloto_text" alignment-baseline="start" text-anchor="middle" x="570.8754208754208" y="430">25000</text><line class="poloto_axis_lines" stroke="black" x1="150" x2="144" y1="341.75602556077285" y2="341.75602556077285"/><text class="poloto_text" alignment-baseline="middle" text-anchor="end" x="135" y="341.75602556077285">0.001</text><line class="poloto_axis_lines" stroke="black" x1="150" x2="144" y1="283.5080320099907" y2="283.5080320099907"/><text class="poloto_text" alignment-baseline="middle" text-anchor="end" x="135" y="283.5080320099907">0.002</text><line class="poloto_axis_lines" stroke="black" x1="150" x2="144" y1="225.26003845920854" y2="225.26003845920854"/><text class="poloto_text" alignment-baseline="middle" text-anchor="end" x="135" y="225.26003845920854">0.003</text><line class="poloto_axis_lines" stroke="black" x1="150" x2="144" y1="167.01204490842645" y2="167.01204490842645"/><text class="poloto_text" alignment-baseline="middle" text-anchor="end" x="135" y="167.01204490842645">0.004</text><line class="poloto_axis_lines" stroke="black" x1="150" x2="144" y1="108.76405135764423" y2="108.76405135764423"/><text class="poloto_text" alignment-baseline="middle" text-anchor="end" x="135" y="108.76405135764423">0.005</text><text class="poloto_text" alignment-baseline="middle" text-anchor="start" font-size="large" x="675" y="100">default_par</text><line class="poloto0stroke" stroke="black" x1="680" x2="730" y1="81.25" y2="81.25"/><polyline class="poloto0stroke" fill="none" stroke="black" points="650,249.8391772898063 644.9494949494949,278.087590226142 639.8989898989898,321.90347841484686 634.8484848484848,315.6073945439493 629.7979797979798,324.5222499568965 624.7474747474747,322.79298352436086 619.6969696969697,305.3941913547551 614.6464646464647,294.44479177507264 609.5959595959596,325.0014561998388 604.5454545454545,331.2066732007971 599.4949494949494,324.61195186696466 594.4444444444445,330.6879165702339 589.3939393939394,317.6739751071375 584.3434343434344,325.51997983842784 579.2929292929293,327.30708652855935 574.2424242424242,325.9422195436774 569.1919191919192,334.3284744151513 564.1414141414141,338.5863444957199 559.090909090909,335.502637469148 554.040404040404,341.36710370783425 548.989898989899,338.80844409512906 543.939393939394,341.36320109226637 538.8888888888889,335.7140194377438 533.8383838383838,336.34933030340216 528.7878787878788,321.74335468057575 523.7373737373737,324.9698275393407 518.6868686868687,319.0301048929868 513.6363636363636,321.9167007093829 508.5858585858586,326.6294293715896 503.5353535353535,335.94520572414683 498.4848484848485,324.1023401713889 493.4343434343434,336.65431679763407 488.3838383838384,332.98009161244426 483.3333333333333,328.4521838337742 478.2828282828283,335.97124257726404 473.2323232323232,325.57356799249453 468.1818181818182,333.94619283347754 463.1313131313131,333.95836666412964 458.0808080808081,337.7455347088144 453.030303030303,346.3509185320263 447.979797979798,340.84025060616744 442.9292929292929,339.7304515850444 437.8787878787879,344.10988522815353 432.8282828282828,341.9422443961547 427.77777777777777,351.3481886427286 422.72727272727275,338.94043404851516 417.67676767676767,339.5095169455063 412.62626262626264,342.71909788614147 407.57575757575756,348.0593904308643 402.52525252525254,350.9406274318537 397.47474747474746,349.18031481875556 392.4242424242424,345.1426804018024 387.37373737373736,355.453332484207 382.32323232323233,352.86053954728106 377.27272727272725,351.45885983047503 372.22222222222223,353.3265817436809 367.1717171717172,359.35053098870924 362.1212121212121,355.0369175783125 357.07070707070704,350.5321342530821 352.020202020202,354.103260489687 346.969696969697,359.9436703070368 341.9191919191919,353.9859490306757 336.86868686868684,360.72535838048833 331.8181818181818,361.2266988609799 326.7676767676768,359.80445760245044 321.7171717171717,360.4557866663353 316.66666666666663,361.27586016753673 311.6161616161616,365.2507032474421 306.5656565656566,367.7637546811971 301.5151515151515,366.20480538180396 296.4646464646464,366.4817163431444 291.4141414141414,371.6530314585764 286.3636363636364,365.08714288155153 281.3131313131313,371.93885436293004 276.26262626262627,372.52453793808314 271.2121212121212,377.0406213740624 266.16161616161617,376.30821110315486 261.1111111111111,380.25515339414943 256.06060606060606,379.7211357892759 251.010101010101,381.2890552796758 245.95959595959596,381.4025806191063 240.9090909090909,382.74077002294194 235.85858585858585,383.235178992201 230.8080808080808,383.06259018731004 225.75757575757575,383.8598887230331 220.7070707070707,386.31370194734694 215.65656565656565,388.4593832857771 210.6060606060606,389.70361867601537 205.55555555555554,388.0436091078116 200.50505050505052,388.92146461861546 195.45454545454544,388.28813418473777 190.40404040404042,384.6647012499243 185.35353535353534,390.8338044948812 180.3030303030303,393.96673107600355 175.25252525252526,395.201472043293 170.2020202020202,395.95683202365956 165.15151515151516,397.39666417624136 160.1010101010101,398.3722598202234 155.05050505050505,399.2404461640978 150,399.9990680321032 "/><text class="poloto_text" alignment-baseline="middle" text-anchor="start" font-size="large" x="675" y="150">default_seq</text><line class="poloto1stroke" stroke="black" x1="680" x2="730" y1="131.25" y2="131.25"/><polyline class="poloto1stroke" fill="none" stroke="black" points="650,245.61858592511018 644.9494949494949,252.7652069978363 639.8989898989898,247.77090753480513 634.8484848484848,256.9789250992934 629.7979797979798,254.5497507762516 624.7474747474747,254.78652887003554 619.6969696969697,248.33579657626063 614.6464646464647,258.4444446170311 609.5959595959596,261.6887996098161 604.5454545454545,261.8184013954666 599.4949494949494,266.62694800706436 594.4444444444445,263.6270015952184 589.3939393939394,269.0130770628721 584.3434343434344,263.0848292712477 579.2929292929293,272.1982520942095 574.2424242424242,274.1542197176448 569.1919191919192,275.24782579656073 564.1414141414141,272.966717873125 559.090909090909,276.6106541016684 554.040404040404,280.4834466968728 548.989898989899,279.74404666673917 543.939393939394,279.9614281786707 538.8888888888889,285.48333796728485 533.8383838383838,282.8003188883487 528.7878787878788,286.67462593138544 523.7373737373737,285.52428630675104 518.6868686868687,290.0997244481585 513.6363636363636,286.99411617601146 508.5858585858586,289.5076918417084 503.5353535353535,292.60613561064866 498.4848484848485,293.39883255488127 493.4343434343434,297.2743628057825 488.3838383838384,299.9032112507165 483.3333333333333,299.3718730535462 478.2828282828283,302.9011772307816 473.2323232323232,283.673572807662 468.1818181818182,303.0778433952212 463.1313131313131,307.43496805680036 458.0808080808081,304.95395301949833 453.030303030303,309.647751083801 447.979797979798,310.98110590417195 442.9292929292929,311.8863962199382 437.8787878787879,312.21002207210637 432.8282828282828,315.3170282960986 427.77777777777777,315.0188568171122 422.72727272727275,323.33562183227997 417.67676767676767,325.53261965302835 412.62626262626264,326.8515872189923 407.57575757575756,328.1148697031216 402.52525252525254,329.8263122496307 397.47474747474746,331.9441510471436 392.4242424242424,330.1135331058296 387.37373737373736,334.45265913740155 382.32323232323233,334.9902298698818 377.27272727272725,336.2395328355589 372.22222222222223,338.11954507540395 367.1717171717172,338.3390235151033 362.1212121212121,339.47596610122105 357.07070707070704,342.7094869672056 352.020202020202,342.61238756195644 346.969696969697,344.8492270102936 341.9191919191919,345.90077803786585 336.86868686868684,347.28247869288396 331.8181818181818,347.86187148473357 326.7676767676768,350.79669663978973 321.7171717171717,353.7432878895432 316.66666666666663,354.4600294501855 311.6161616161616,355.6323868163821 306.5656565656566,356.25249495572376 301.5151515151515,357.40283458035816 296.4646464646464,359.76211131113905 291.4141414141414,361.3048094203315 286.3636363636364,366.0229551459384 281.3131313131313,366.4528835863367 276.26262626262627,367.83044863381275 271.2121212121212,369.61994349167986 266.16161616161617,370.2943387610108 261.1111111111111,372.84589211850283 256.06060606060606,373.4936680547811 251.010101010101,374.79918033423473 245.95959595959596,375.284094880545 240.9090909090909,377.0576297881792 235.85858585858585,377.75881913454356 230.8080808080808,380.1485595659515 225.75757575757575,381.6702883974657 220.7070707070707,381.64297008849036 215.65656565656565,385.21328085318555 210.6060606060606,386.20163280775523 205.55555555555554,387.28125936821897 200.50505050505052,388.1639494624875 195.45454545454544,389.0977812950937 190.40404040404042,390.7436948488581 185.35353535353534,391.7872659013139 180.3030303030303,393.6951789300698 175.25252525252526,394.73537159889963 170.2020202020202,395.8158136312731 165.15151515151516,397.1874373834069 160.1010101010101,398.25657930503155 155.05050505050505,399.1558118294685 150,400 "/><text class="poloto_text" alignment-baseline="middle" text-anchor="start" font-size="large" x="675" y="200">direct_par</text><line class="poloto2stroke" stroke="black" x1="680" x2="730" y1="181.25" y2="181.25"/><polyline class="poloto2stroke" fill="none" stroke="black" points="650,256.97793488340307 644.9494949494949,270.4731795172096 639.8989898989898,293.37366942166733 634.8484848484848,315.49666510820924 629.7979797979798,318.27754081631065 624.7474747474747,310.2909836765823 619.6969696969697,324.51473596572845 614.6464646464647,243.27020156912332 609.5959595959596,310.9905420791272 604.5454545454545,322.5778736841778 599.4949494949494,327.2809331794551 594.4444444444445,325.5073982718209 589.3939393939394,308.82127030330895 584.3434343434344,324.14183231101634 579.2929292929293,326.1847641888229 574.2424242424242,331.5879645665806 569.1919191919192,329.9110630802471 564.1414141414141,312.7791049690975 559.090909090909,336.2158841501773 554.040404040404,336.327953289769 548.989898989899,321.6030935121055 543.939393939394,336.1321817834448 538.8888888888889,327.17282490342484 533.8383838383838,335.07201005282707 528.7878787878788,325.7314783030107 523.7373737373737,324.24277608383983 518.6868686868687,327.1630392405083 513.6363636363636,322.81657396174893 508.5858585858586,323.37284230015894 503.5353535353535,327.53372947146545 498.4848484848485,330.17003365957385 493.4343434343434,342.28171370256865 488.3838383838384,331.3819414133915 483.3333333333333,329.27429601474995 478.2828282828283,328.11463671114745 473.2323232323232,322.09563854557086 468.1818181818182,320.8622372821331 463.1313131313131,327.72571485820885 458.0808080808081,329.639685678294 453.030303030303,334.5754459078066 447.979797979798,349.43048995105613 442.9292929292929,336.41229638443053 437.8787878787879,338.24454526956396 432.8282828282828,333.8917309595075 427.77777777777777,330.3503694476071 422.72727272727275,339.99181033210675 417.67676767676767,350.2300019105342 412.62626262626264,343.47003101899816 407.57575757575756,350.75161269278146 402.52525252525254,344.9850030832605 397.47474747474746,350.76798037896924 392.4242424242424,348.8543007988518 387.37373737373736,349.0425000660144 382.32323232323233,344.55128852328136 377.27272727272725,350.5221738461849 372.22222222222223,349.51570676562096 367.1717171717172,352.0279427274662 362.1212121212121,358.4122140605997 357.07070707070704,347.0023058439047 352.020202020202,347.7243479719602 346.969696969697,354.2721214229907 341.9191919191919,352.97878297418913 336.86868686868684,357.3272286847292 331.8181818181818,350.71945980034144 326.7676767676768,362.9092504026878 321.7171717171717,362.11620397049387 316.66666666666663,359.96551330461836 311.6161616161616,365.2025904047692 306.5656565656566,360.19967023869253 301.5151515151515,363.5268538783067 296.4646464646464,363.68913278833924 291.4141414141414,364.473500269494 286.3636363636364,362.8408672582592 281.3131313131313,360.3927040893198 276.26262626262627,371.12792579671606 271.2121212121212,374.4623321875306 266.16161616161617,374.3756009251335 261.1111111111111,376.05087146764754 256.06060606060606,380.63819219973936 251.010101010101,377.62682918115746 245.95959595959596,375.8624974565043 240.9090909090909,378.64855723603176 235.85858585858585,381.1370862645018 230.8080808080808,384.6832241118734 225.75757575757575,384.3348428624462 220.7070707070707,383.5091193058703 215.65656565656565,386.08950542017 210.6060606060606,386.0405188575937 205.55555555555554,389.1146149652298 200.50505050505052,388.2814356654794 195.45454545454544,387.76128108307097 190.40404040404042,388.4943903299011 185.35353535353534,390.212473147675 180.3030303030303,393.8245477237461 175.25252525252526,395.0780445449589 170.2020202020202,395.9642295188405 165.15151515151516,397.3655014996917 160.1010101010101,398.0779327088113 155.05050505050505,399.24213535591076 150,399.998835040129 "/><text class="poloto_text" alignment-baseline="middle" text-anchor="start" font-size="large" x="675" y="250">direct_seq</text><line class="poloto3stroke" stroke="black" x1="680" x2="730" y1="231.25" y2="231.25"/><polyline class="poloto3stroke" fill="none" stroke="black" points="650,235.49211399831313 644.9494949494949,242.1645964035359 639.8989898989898,239.6383809232385 634.8484848484848,247.27847899732683 629.7979797979798,244.64735888064445 624.7474747474747,245.05579381142255 619.6969696969697,249.48549547296597 614.6464646464647,250.61760347561895 609.5959595959596,253.1330430771095 604.5454545454545,253.76619876700647 599.4949494949494,257.95906408677246 594.4444444444445,255.38659969959568 589.3939393939394,258.15192319341907 584.3434343434344,258.87641173720374 579.2929292929293,264.5493003251015 574.2424242424242,264.4775387970469 569.1919191919192,265.45756128853884 564.1414141414141,264.96559873500894 559.090909090909,270.8242984223337 554.040404040404,270.85796576260606 548.989898989899,271.646468851303 543.939393939394,274.92303498452156 538.8888888888889,278.12684937379527 533.8383838383838,275.1814230839128 528.7878787878788,279.1888267922131 523.7373737373737,278.6526540115782 518.6868686868687,282.24905987738407 513.6363636363636,281.4706336915715 508.5858585858586,284.3685296187164 503.5353535353535,287.52597860512367 498.4848484848485,286.3330014492101 493.4343434343434,290.83504711874355 488.3838383838384,293.662346477705 483.3333333333333,292.726941949273 478.2828282828283,293.6581526221694 473.2323232323232,298.0677004779442 468.1818181818182,272.4294383806126 463.1313131313131,299.347525392242 458.0808080808081,296.79777772255005 453.030303030303,304.0880965953659 447.979797979798,306.13929968825676 442.9292929292929,307.15992103125353 437.8787878787879,309.48768559752347 432.8282828282828,309.82261156044046 427.77777777777777,311.9323538868498 422.72727272727275,318.35093328818465 417.67676767676767,320.24265337473344 412.62626262626264,322.76980082292766 407.57575757575756,323.4573018908075 402.52525252525254,324.8784364374595 397.47474747474746,327.5740370830026 392.4242424242424,326.82234672622974 387.37373737373736,329.9133929999891 382.32323232323233,329.5835928605046 377.27272727272725,332.7373722233182 372.22222222222223,332.2643985156858 367.1717171717172,336.39936532986223 362.1212121212121,337.16095784553875 357.07070707070704,339.07475392164326 352.020202020202,341.60667770530864 346.969696969697,343.98686546577426 341.9191919191919,342.9520898603446 336.86868686868684,344.33349927539496 331.8181818181818,347.7370460345543 326.7676767676768,346.79820487450274 321.7171717171717,349.82197471571095 316.66666666666663,351.4270564259963 311.6161616161616,352.3147558477102 306.5656565656566,354.5259079308915 301.5151515151515,355.41104444088916 296.4646464646464,357.5656377223326 291.4141414141414,359.2795266845708 286.3636363636364,363.7446431261931 281.3131313131313,364.99015997228946 276.26262626262627,366.4950551336675 271.2121212121212,368.50653309495664 266.16161616161617,369.4486943906406 261.1111111111111,371.9062354865416 256.06060606060606,372.4793957430813 251.010101010101,374.0249480039578 245.95959595959596,374.3037229010918 240.9090909090909,375.83284922778694 235.85858585858585,375.9886626105353 230.8080808080808,378.79458495586357 225.75757575757575,380.94935298128763 220.7070707070707,381.21327464006623 215.65656565656565,384.2008724772794 210.6060606060606,385.189748663791 205.55555555555554,386.56253737579584 200.50505050505052,387.29500589469694 195.45454545454544,388.36053644072143 190.40404040404042,390.5321963842752 185.35353535353534,391.3152824095719 180.3030303030303,393.4286361115814 175.25252525252526,394.53395003720107 170.2020202020202,395.7996789370595 165.15151515151516,396.83596899032153 160.1010101010101,398.24271628256645 155.05050505050505,399.1747424273725 150,399.9913210489609 "/><text class="poloto_text" alignment-baseline="middle" text-anchor="start" font-size="large" x="675" y="300">indirect_par</text><line class="poloto4stroke" stroke="black" x1="680" x2="730" y1="281.25" y2="281.25"/><polyline class="poloto4stroke" fill="none" stroke="black" points="650,154.78584931011082 644.9494949494949,192.91137451285263 639.8989898989898,259.9108378546721 634.8484848484848,246.83049367892778 629.7979797979798,260.5176654514841 624.7474747474747,258.0291946710076 619.6969696969697,245.00698199282698 614.6464646464647,229.74152258701864 609.5959595959596,254.82771020147595 604.5454545454545,281.3592635279024 599.4949494949494,275.0800715751345 594.4444444444445,267.94102274157 589.3939393939394,276.4050969324277 584.3434343434344,256.5023982640545 579.2929292929293,282.6228372519995 574.2424242424242,288.10787606069596 569.1919191919192,294.72939147156177 564.1414141414141,282.84633480325385 559.090909090909,298.73300906028123 554.040404040404,290.1365371800826 548.989898989899,286.62494039288663 543.939393939394,297.6535572437981 538.8888888888889,292.6053783867325 533.8383838383838,304.39686920917865 528.7878787878788,273.37095894836744 523.7373737373737,276.5980725350614 518.6868686868687,279.32070024961206 513.6363636363636,295.94461936101175 508.5858585858586,273.0962031627884 503.5353535353535,287.91618191392035 498.4848484848485,288.1196421553932 493.4343434343434,276.35436293004494 488.3838383838384,289.1369433627576 483.3333333333333,294.76399077973093 478.2828282828283,304.06596235781666 473.2323232323232,292.4836983282049 468.1818181818182,307.82423939770024 463.1313131313131,298.62554151218 458.0808080808081,297.71355267715546 453.030303030303,306.2954625589664 447.979797979798,321.3624710507472 442.9292929292929,302.12647891655627 437.8787878787879,305.45016767655744 432.8282828282828,309.79814740314913 427.77777777777777,326.5647158507547 422.72727272727275,314.5278262314791 417.67676767676767,314.7334416487133 412.62626262626264,313.59941146227317 407.57575757575756,322.04507928716885 402.52525252525254,326.535883093947 397.47474747474746,307.87153676846344 392.4242424242424,322.96895071287776 387.37373737373736,337.85801158436095 382.32323232323233,323.322516033731 377.27272727272725,332.7746509391906 372.22222222222223,330.5346660992018 367.1717171717172,338.9977500741691 362.1212121212121,327.0658815872656 357.07070707070704,331.6311263298017 352.020202020202,333.8310365502276 346.969696969697,337.9563341974747 341.9191919191919,341.25509281623613 336.86868686868684,337.7172844319423 331.8181818181818,336.16503365180745 326.7676767676768,340.4375822267509 321.7171717171717,346.61396647090163 316.66666666666663,344.358778904596 311.6161616161616,351.6363997148178 306.5656565656566,356.06056781697396 301.5151515151515,358.9631818315965 296.4646464646464,344.42215272157927 291.4141414141414,358.8035823292674 286.3636363636364,356.3631078954767 281.3131313131313,351.8262881737934 276.26262626262627,366.1758561290092 271.2121212121212,364.06221118703195 266.16161616161617,370.00339003322466 261.1111111111111,371.28851551493557 256.06060606060606,373.689090073144 251.010101010101,371.6237327178203 245.95959595959596,371.5491752860753 240.9090909090909,373.4127033437455 235.85858585858585,375.36121522400623 230.8080808080808,373.06455508629244 225.75757575757575,377.04399975768837 220.7070707070707,378.5812808034806 215.65656565656565,383.00393445780435 210.6060606060606,384.9370106197742 205.55555555555554,385.06142833399866 200.50505050505052,386.5310252112849 195.45454545454544,387.44790687776776 190.40404040404042,387.3633890391256 185.35353535353534,390.31568859224694 180.3030303030303,392.51985091620213 175.25252525252526,394.33089753168304 170.2020202020202,395.37068246455806 165.15151515151516,397.07152387624086 160.1010101010101,398.2807522223551 155.05050505050505,399.1972844008767 150,399.9997670080258 "/><text class="poloto_text" alignment-baseline="middle" text-anchor="start" font-size="large" x="675" y="350">indirect_seq</text><line class="poloto5stroke" stroke="black" x1="680" x2="730" y1="331.25" y2="331.25"/><polyline class="poloto5stroke" fill="none" stroke="black" points="650,147.1251314463055 644.9494949494949,156.2873078398693 639.8989898989898,100 634.8484848484848,158.75329489483522 629.7979797979798,157.27647526634868 624.7474747474747,161.9330528627724 619.6969696969697,120.50824480932715 614.6464646464647,149.79842311031862 609.5959595959596,169.7165574969828 604.5454545454545,174.27067687275067 599.4949494949494,182.48055681975276 594.4444444444445,179.80429450806852 589.3939393939394,186.67615979521563 584.3434343434344,175.49464196123327 579.2929292929293,198.20623362260582 574.2424242424242,197.02543029734437 569.1919191919192,198.94918678034605 564.1414141414141,194.4249486252697 559.090909090909,205.70042047284946 554.040404040404,209.5157805464128 548.989898989899,207.3594980731564 543.939393939394,215.99598632492442 538.8888888888889,218.82823676333766 533.8383838383838,217.68179975427114 528.7878787878788,223.60061137094033 523.7373737373737,220.1428939777788 518.6868686868687,227.1167515016333 513.6363636363636,222.80628348288832 508.5858585858586,229.62624980778162 503.5353535353535,235.4864056949452 498.4848484848485,232.10301274155444 493.4343434343434,242.67723699477634 488.3838383838384,245.03552350966686 483.3333333333333,242.48169848042636 478.2828282828283,250.85706097710624 473.2323232323232,252.99126746080688 468.1818181818182,247.19023328709739 463.1313131313131,257.35211999397325 458.0808080808081,251.54968786841857 453.030303030303,260.052438726994 447.979797979798,265.06025172452894 442.9292929292929,264.72119015406986 437.8787878787879,269.8009976716336 432.8282828282828,269.7700679870581 427.77777777777777,272.36973418722306 422.72727272727275,279.10960952098407 417.67676767676767,285.47390179232957 412.62626262626264,286.8833867402714 407.57575757575756,290.41071048572616 402.52525252525254,291.9790377120809 397.47474747474746,296.31373689614304 392.4242424242424,291.6036876416397 387.37373737373736,298.7854322544769 382.32323232323233,300.80145355926305 377.27272727272725,304.8849873951342 372.22222222222223,305.6833343947412 367.1717171717172,311.3775999962721 362.1212121212121,310.87614301979346 357.07070707070704,312.94639320657535 352.020202020202,314.00248757764456 346.969696969697,322.2045622935109 341.9191919191919,320.57361847408896 336.86868686868684,320.74498407111537 331.8181818181818,327.4560848960623 326.7676767676768,327.82974577469054 321.7171717171717,332.19327771556027 316.66666666666663,334.28909877151096 311.6161616161616,335.96069969043134 306.5656565656566,338.2257894156406 301.5151515151515,340.49763590810176 296.4646464646464,343.14564794291385 291.4141414141414,344.67384230171217 286.3636363636364,349.9678859395557 281.3131313131313,351.95367653568894 276.26262626262627,354.64036523821875 271.2121212121212,356.0442001307862 266.16161616161617,358.3671883615849 261.1111111111111,362.27842463253285 256.06060606060606,362.9246278729852 251.010101010101,365.1976975733109 245.95959595959596,365.8433183338278 240.9090909090909,368.1042142035014 235.85858585858585,369.1513383835638 230.8080808080808,372.5474293995486 225.75757575757575,375.1623565740239 220.7070707070707,375.25118476418885 215.65656565656565,379.09363015475327 210.6060606060606,381.2343604137316 205.55555555555554,382.54429954069514 200.50505050505052,383.90328347822845 195.45454545454544,385.56690442203234 190.40404040404042,387.9661975243826 185.35353535353534,389.737635504249 180.3030303030303,391.9555443546821 175.25252525252526,393.26635720154894 170.2020202020202,395.1014602383663 165.15151515151516,396.7413160008015 160.1010101010101,398.05737116708787 155.05050505050505,399.0707115108908 150,399.9986020481548 "/><text class="poloto_text" alignment-baseline="start" text-anchor="middle" font-size="x-large" x="400" y="37.5">Bench of rebal:16_bytes with abspiral(num,1.5)</text><text class="poloto_text" alignment-baseline="start" text-anchor="middle" font-size="x-large" x="400" y="481.25">Number of Elements</text><text class="poloto_text" alignment-baseline="start" text-anchor="middle" font-size="x-large" transform="rotate(-90,37.5,250)" x="37.5" y="250">Time in Seconds</text><path stroke="black" fill="none" class="poloto_axis_lines" d=" M 150 100 L 150 400 L 650 400"/></svg>