<svg  width="800" class="poloto_background poloto" height="500" viewBox="0 0 800 500" xmlns="http://www.w3.org/2000/svg" ><text  class="poloto_text" alignment-baseline="middle" text-anchor="start" font-size="large" x="675" y="100" >default_par</text><line  class="poloto0stroke poloto0legend" stroke="black" x1="680" x2="730" y1="81.25" y2="81.25" /><path  class="poloto0stroke" fill="none" stroke="black" d=" M 650 347.5751584907165 L 644.9494949494949 356.7721388604617 L 639.8989898989898 353.98605813319864 L 634.8484848484848 355.77620579205484 L 629.7979797979798 353.40249996677346 L 624.7474747474747 354.62656663255405 L 619.6969696969697 360.1788586010287 L 614.6464646464647 357.5266809319387 L 609.5959595959596 353.4519743225103 L 604.5454545454545 353.02660783349506 L 599.4949494949494 354.44205951542375 L 594.4444444444445 359.0521457715873 L 589.3939393939394 348.4643678313685 L 584.3434343434344 357.3643691604311 L 579.2929292929293 360.93376616472403 L 574.2424242424242 353.918874018155 L 569.1919191919192 359.1048763307239 L 564.1414141414141 361.38794008585745 L 559.090909090909 355.82232426469614 L 554.040404040404 363.6600723010061 L 548.989898989899 361.23227362741056 L 543.939393939394 361.49539479804895 L 538.8888888888889 359.7174412886591 L 533.8383838383838 361.5653034914475 L 528.7878787878788 366.7171488948844 L 523.7373737373737 360.24790340372937 L 518.6868686868687 364.11062452652146 L 513.6363636363636 367.38726226392527 L 508.5858585858586 368.86458181044907 L 503.5353535353535 366.55925625656226 L 498.4848484848485 369.21638468388244 L 493.4343434343434 366.7690820164538 L 488.3838383838384 367.0776903549926 L 483.3333333333333 366.23948379208144 L 478.2828282828283 367.53076779947105 L 473.2323232323232 361.14236254169936 L 468.1818181818182 370.5234845363565 L 463.1313131313131 362.5834983586077 L 458.0808080808081 367.61154157972385 L 453.030303030303 369.11374782366 L 447.979797979798 371.23084488510256 L 442.9292929292929 366.9871479645406 L 437.8787878787879 372.42646961098336 L 432.8282828282828 372.4298919472096 L 427.77777777777777 371.58005608644226 L 422.72727272727275 375.51860023125687 L 417.67676767676767 373.30006246594274 L 412.62626262626264 367.4734187477572 L 407.57575757575756 374.222033199984 L 402.52525252525254 376.79971690966363 L 397.47474747474746 361.4619688733536 L 392.4242424242424 370.52697332571336 L 387.37373737373736 374.5508432902274 L 382.32323232323233 377.7644502332505 L 377.27272727272725 378.03940006113686 L 372.22222222222223 380.11944950226604 L 367.1717171717172 380.22125569835595 L 362.1212121212121 376.5121742135272 L 357.07070707070704 377.66227854494224 L 352.020202020202 380.3459882245053 L 346.969696969697 379.85473345649314 L 341.9191919191919 382.6764662883268 L 336.86868686868684 377.7734214058824 L 331.8181818181818 382.4362714477479 L 326.7676767676768 384.35992344599356 L 321.7171717171717 384.4491367738334 L 316.66666666666663 384.09534030648183 L 311.6161616161616 384.3340731781874 L 306.5656565656566 385.8863186294706 L 301.5151515151515 385.63592323334353 L 296.4646464646464 387.25216304940125 L 291.4141414141414 386.203632328119 L 286.3636363636364 387.2952246780346 L 281.3131313131313 386.5904560013822 L 276.26262626262627 387.91951861352186 L 271.2121212121212 389.43308834279185 L 266.16161616161617 385.5053760582661 L 261.1111111111111 386.4208343855079 L 256.06060606060606 391.0996664052843 L 251.010101010101 391.55158091997714 L 245.95959595959596 391.7984543001821 L 240.9090909090909 391.4749936869526 L 235.85858585858585 392.1500578142236 L 230.8080808080808 391.97518640103135 L 225.75757575757575 393.3609667601441 L 220.7070707070707 393.2072274424848 L 215.65656565656565 392.4842506080461 L 210.6060606060606 392.4663747159129 L 205.55555555555554 392.4876729442724 L 200.50505050505052 393.21968740447363 L 195.45454545454544 394.55811990802886 L 190.40404040404042 394.5699153387116 L 185.35353535353534 394.59573237995244 L 180.3030303030303 396.67827381347934 L 175.25252525252526 397.2718331760609 L 170.2020202020202 397.58967849975414 L 165.15151515151516 398.57295224678035 L 160.1010101010101 398.8761114286094 L 155.05050505050505 399.5680878776199 L 150 399.99770736699406" /><text  class="poloto_text" alignment-baseline="middle" text-anchor="start" font-size="large" x="675" y="150" >default_seq</text><line  class="poloto1stroke poloto1legend" stroke="black" x1="680" x2="730" y1="131.25" y2="131.25" /><path  class="poloto1stroke" fill="none" stroke="black" d=" M 650 314.0115429087864 L 644.9494949494949 316.47130553820386 L 639.8989898989898 314.76847729296526 L 634.8484848484848 317.2337223056578 L 629.7979797979798 317.2222591406281 L 624.7474747474747 317.33586076740073 L 619.6969696969697 319.4156111694422 L 614.6464646464647 320.56026634414746 L 609.5959595959596 321.1898100769527 L 604.5454545454545 322.28828032588615 L 599.4949494949494 324.0093167289111 L 594.4444444444445 322.2183716324876 L 589.3939393939394 324.88171342751957 L 584.3434343434344 324.4252468733802 L 579.2929292929293 328.4096104517484 L 574.2424242424242 328.16556132959425 L 569.1919191919192 329.1494663813612 L 564.1414141414141 327.73617442617723 L 559.090909090909 330.80079345037944 L 554.040404040404 331.2116731569224 L 548.989898989899 330.2741191637538 L 543.939393939394 331.25430284020683 L 538.8888888888889 334.7834292473518 L 533.8383838383838 334.4068061296368 L 528.7878787878788 334.46392259539346 L 523.7373737373737 333.7362940418123 L 518.6868686868687 336.99100224611584 L 513.6363636363636 336.6528887175875 L 508.5858585858586 337.99833202642174 L 503.5353535353535 340.33631929400195 L 498.4848484848485 339.3612192820404 L 493.4343434343434 341.04849749471697 L 488.3838383838384 342.14926037665634 L 483.3333333333333 342.08297337887586 L 478.2828282828283 344.4643545407424 L 473.2323232323232 344.743490915857 L 468.1818181818182 344.615169920655 L 463.1313131313131 347.02273361598066 L 458.0808080808081 343.9113315878311 L 453.030303030303 348.2844459802501 L 447.979797979798 348.52480695365557 L 442.9292929292929 349.25074095240626 L 437.8787878787879 350.8334883906381 L 432.8282828282828 351.2135006180141 L 427.77777777777777 352.3056578195399 L 422.72727272727275 356.1864874204224 L 417.67676767676767 357.0469225555216 L 412.62626262626264 357.1881686846267 L 407.57575757575756 358.0235509894871 L 402.52525252525254 359.41703991175024 L 397.47474747474746 360.4565994604006 L 392.4242424242424 360.40094496351725 L 387.37373737373736 362.4504591911325 L 382.32323232323233 361.9254130062067 L 377.27272727272725 364.3120107388259 L 372.22222222222223 364.14983187357956 L 367.1717171717172 365.9632049015829 L 362.1212121212121 366.2604829813532 L 357.07070707070704 366.7728366183331 L 352.020202020202 368.43566007894634 L 346.969696969697 369.5623064552571 L 341.9191919191919 369.00808734599485 L 336.86868686868684 369.3943793942133 L 331.8181818181818 371.82098191145786 L 326.7676767676768 371.65847078055845 L 321.7171717171717 373.1015005116891 L 316.66666666666663 374.0567310375992 L 311.6161616161616 374.5613428848633 L 306.5656565656566 375.3913757127098 L 301.5151515151515 376.4588788027804 L 296.4646464646464 377.3798859664279 L 291.4141414141414 377.76335375659545 L 286.3636363636364 380.2178998152603 L 281.3131313131313 381.21595938384655 L 276.26262626262627 382.1383620632368 L 271.2121212121212 382.44819978469184 L 266.16161616161617 383.535472681118 L 261.1111111111111 384.61497056126314 L 256.06060606060606 385.16709639691123 L 251.010101010101 385.95107720524715 L 245.95959595959596 385.8673462606823 L 240.9090909090909 386.83995428024616 L 235.85858585858585 387.53824377666433 L 230.8080808080808 388.71652423545675 L 225.75757575757575 389.30549833202645 L 220.7070707070707 389.93979346367007 L 215.65656565656565 391.61477784718437 L 210.6060606060606 392.1757419492032 L 205.55555555555554 392.84818117781526 L 200.50505050505052 393.281256229981 L 195.45454545454544 393.98340000797435 L 190.40404040404042 394.8684228013982 L 185.35353535353534 395.2713613588336 L 180.3030303030303 396.237025026249 L 175.25252525252526 397.034595499794 L 170.2020202020202 397.6134022673808 L 165.15151515151516 398.41505960845814 L 160.1010101010101 399.00021265001794 L 155.05050505050505 399.52539174120494 L 150 399.99737510134105" /><text  class="poloto_text" alignment-baseline="middle" text-anchor="start" font-size="large" x="675" y="200" >direct_par</text><line  class="poloto2stroke poloto2legend" stroke="black" x1="680" x2="730" y1="181.25" y2="181.25" /><path  class="poloto2stroke" fill="none" stroke="black" d=" M 650 240.5785741816297 L 644.9494949494949 246.64813731874906 L 639.8989898989898 240.6490145000731 L 634.8484848484848 222.8504738108212 L 629.7979797979798 248.3119243497561 L 624.7474747474747 249.78545606783533 L 619.6969696969697 239.77063701970997 L 614.6464646464647 257.7366395980914 L 609.5959595959596 250.9032309512101 L 604.5454545454545 258.23826105447824 L 599.4949494949494 252.71377972116267 L 594.4444444444445 253.56474528515037 L 589.3939393939394 246.63481346606238 L 584.3434343434344 251.68797597054797 L 579.2929292929293 268.650204011111 L 574.2424242424242 270.99051713826236 L 569.1919191919192 263.5254382583963 L 564.1414141414141 248.01374915272257 L 559.090909090909 278.8097912042636 L 554.040404040404 284.4459802501296 L 548.989898989899 272.0793184566925 L 543.939393939394 280.9402121183929 L 538.8888888888889 279.3642096729177 L 533.8383838383838 295.1462965670313 L 528.7878787878788 294.19621615874325 L 523.7373737373737 289.4355471086243 L 518.6868686868687 285.454672319613 L 513.6363636363636 302.9085206204064 L 508.5858585858586 306.20250262489867 L 503.5353535353535 310.6816762137664 L 498.4848484848485 299.87310774710596 L 493.4343434343434 307.78049866429205 L 488.3838383838384 310.52282000505045 L 483.3333333333333 312.0010698954028 L 478.2828282828283 312.26957376962025 L 473.2323232323232 292.5279435414202 L 468.1818181818182 313.1941029491899 L 463.1313131313131 308.5342432982018 L 458.0808080808081 306.6028495102404 L 453.030303030303 318.21722863864113 L 447.979797979798 313.99376669634904 L 442.9292929292929 303.4524727209899 L 437.8787878787879 308.715128719714 L 432.8282828282828 320.7552730559137 L 427.77777777777777 325.87309445647986 L 422.72727272727275 332.01137013064687 L 417.67676767676767 329.4072380749857 L 412.62626262626264 329.1647173748355 L 407.57575757575756 335.27734214058825 L 402.52525252525254 328.62681250913727 L 397.47474747474746 324.48306109700826 L 392.4242424242424 340.87791230844886 L 387.37373737373736 332.3174864767879 L 382.32323232323233 333.9808747890113 L 377.27272727272725 335.2871772039181 L 372.22222222222223 348.3731609096104 L 367.1717171717172 344.4382052338486 L 362.1212121212121 345.3705758828298 L 357.07070707070704 351.7802793689611 L 352.020202020202 351.2449329487912 L 346.969696969697 344.24502598317406 L 341.9191919191919 351.7527013197592 L 336.86868686868684 347.6748049600617 L 331.8181818181818 348.0518600231257 L 326.7676767676768 356.6425220292128 L 321.7171717171717 358.2659387833761 L 316.66666666666663 358.5715567310376 L 311.6161616161616 361.3442471524834 L 306.5656565656566 361.0289935008838 L 301.5151515151515 364.7866522241863 L 296.4646464646464 350.72081710769396 L 291.4141414141414 355.4472627955503 L 286.3636363636364 365.67941680732577 L 281.3131313131313 368.6789449900985 L 276.26262626262627 369.9190268603554 L 271.2121212121212 370.7490596882019 L 266.16161616161617 363.3593386584442 L 261.1111111111111 365.8801384883242 L 256.06060606060606 366.8432437102112 L 251.010101010101 376.6795696495262 L 245.95959595959596 378.43526136016266 L 240.9090909090909 378.9134248614452 L 235.85858585858585 380.0322629949097 L 230.8080808080808 381.12993580627585 L 225.75757575757575 382.24737842399753 L 220.7070707070707 382.4099227814622 L 215.65656565656565 383.0925625656225 L 210.6060606060606 384.04682952113876 L 205.55555555555554 385.5044124878723 L 200.50505050505052 387.0723408779788 L 195.45454545454544 387.4279980329873 L 190.40404040404042 387.7027817280472 L 185.35353535353534 389.12275222285723 L 180.3030303030303 390.28026607833493 L 175.25252525252526 392.2307651413458 L 170.2020202020202 393.36714690129054 L 165.15151515151516 395.8041161069098 L 160.1010101010101 397.2848247630946 L 155.05050505050505 398.7609481532675 L 150 399.9956805465105" /><text  class="poloto_text" alignment-baseline="middle" text-anchor="start" font-size="large" x="675" y="250" >direct_seq</text><line  class="poloto3stroke poloto3legend" stroke="black" x1="680" x2="730" y1="231.25" y2="231.25" /><path  class="poloto3stroke" fill="none" stroke="black" d=" M 650 100 L 644.9494949494949 113.8231482835156 L 639.8989898989898 119.40806873911828 L 634.8484848484848 130.85501920495471 L 629.7979797979798 126.76924814928026 L 624.7474747474747 132.15573955689047 L 619.6969696969697 138.91345808801054 L 614.6464646464647 119.89367499102883 L 609.5959595959596 141.33394691723925 L 604.5454545454545 141.38797331242273 L 599.4949494949494 155.2287649021145 L 594.4444444444445 148.20795842692146 L 589.3939393939394 152.69062080514612 L 584.3434343434344 142.0864289416674 L 579.2929292929293 162.75278770882892 L 574.2424242424242 170.48414428303715 L 569.1919191919192 147.7561103653593 L 564.1414141414141 165.81428343589263 L 559.090909090909 180.6589160165335 L 554.040404040404 186.65837110086255 L 548.989898989899 176.76160603926047 L 543.939393939394 185.88877739530307 L 538.8888888888889 196.00144867824721 L 533.8383838383838 197.05393336080058 L 528.7878787878788 197.22661182068285 L 523.7373737373737 200.498797198336 L 518.6868686868687 205.49557422150156 L 513.6363636363636 206.3217859943382 L 508.5858585858586 210.66938238460412 L 503.5353535353535 216.7310708257466 L 498.4848484848485 217.97108624287287 L 493.4343434343434 222.42623702502624 L 488.3838383838384 228.68705227203253 L 483.3333333333333 226.46376310788 L 478.2828282828283 233.35631504100158 L 473.2323232323232 236.66691032814555 L 468.1818181818182 236.19579085870734 L 463.1313131313131 243.46755758163766 L 458.0808080808081 236.5713174997674 L 453.030303030303 245.60478994165413 L 447.979797979798 243.59680892066822 L 442.9292929292929 252.99274996345076 L 437.8787878787879 254.57034728406055 L 432.8282828282828 257.44617296420836 L 427.77777777777777 261.0548769952552 L 422.72727272727275 269.7425937985938 L 417.67676767676767 272.69075371140735 L 412.62626262626264 277.65470288805307 L 407.57575757575756 280.3903789157507 L 402.52525252525254 279.6571018460679 L 397.47474747474746 285.68386916707647 L 392.4242424242424 287.36559854334735 L 387.37373737373736 292.07988330830267 L 382.32323232323233 292.4867426004439 L 377.27272727272725 296.73465929479937 L 372.22222222222223 299.1146781674885 L 367.1717171717172 302.6821148044284 L 362.1212121212121 304.75139883839927 L 357.07070707070704 305.7561037200462 L 352.020202020202 309.41727249770736 L 346.969696969697 313.8946186254834 L 341.9191919191919 314.23990909211733 L 336.86868686868684 315.8968514506718 L 331.8181818181818 320.4928164165814 L 326.7676767676768 321.45249930224213 L 321.7171717171717 324.88912295158224 L 316.66666666666663 328.0729588920934 L 311.6161616161616 329.5895854653713 L 306.5656565656566 330.9619090655361 L 301.5151515151515 334.3489586794434 L 296.4646464646464 337.0022660517537 L 291.4141414141414 339.35620207067956 L 286.3636363636364 344.5304089525657 L 281.3131313131313 347.0876583245837 L 276.26262626262627 349.12713812947726 L 271.2121212121212 350.4483924987706 L 266.16161616161617 353.13150410015817 L 261.1111111111111 356.69581743995957 L 256.06060606060606 356.64189072447203 L 251.010101010101 358.13748488191277 L 245.95959595959596 361.05803351895906 L 240.9090909090909 362.69052112545023 L 235.85858585858585 363.3461144854534 L 230.8080808080808 367.89346898632397 L 225.75757575757575 369.38643824510575 L 220.7070707070707 370.4559349290945 L 215.65656565656565 375.57624832205846 L 210.6060606060606 377.91453462872636 L 205.55555555555554 379.0950080408288 L 200.50505050505052 380.9192129291211 L 195.45454545454544 382.314097367127 L 190.40404040404042 384.88526867000706 L 185.35353535353534 386.54094841908 L 180.3030303030303 388.7813492643638 L 175.25252525252526 391.16807990324423 L 170.2020202020202 393.48985260695633 L 165.15151515151516 395.2215547374437 L 160.1010101010101 397.11952260070973 L 155.05050505050505 398.5740819500007 L 150 399.99116173362927" /><text  class="poloto_text" alignment-baseline="middle" text-anchor="start" font-size="large" x="675" y="300" >indirect_par</text><line  class="poloto4stroke poloto4legend" stroke="black" x1="680" x2="730" y1="281.25" y2="281.25" /><path  class="poloto4stroke" fill="none" stroke="black" d=" M 650 269.054737443681 L 644.9494949494949 269.4577092276817 L 639.8989898989898 267.5534615435733 L 634.8484848484848 261.21688972767504 L 629.7979797979798 280.1778950306349 L 624.7474747474747 273.85953137252295 L 619.6969696969697 295.8034183490384 L 614.6464646464647 277.7342140588243 L 609.5959595959596 265.93502877420553 L 604.5454545454545 273.9220637684241 L 599.4949494949494 285.34568918541754 L 594.4444444444445 263.90508499355406 L 589.3939393939394 297.5887149293603 L 584.3434343434344 282.9283236533273 L 579.2929292929293 285.29631450937654 L 574.2424242424242 297.4277322204649 L 569.1919191919192 295.3028933693066 L 564.1414141414141 286.45180154437077 L 559.090909090909 305.9689863239457 L 554.040404040404 299.1916308927313 L 548.989898989899 302.22514985180953 L 543.939393939394 303.23028667880544 L 538.8888888888889 305.9594835262689 L 533.8383838383838 315.1658005608644 L 528.7878787878788 326.1190374928563 L 523.7373737373737 312.1096875373799 L 518.6868686868687 314.7905397323268 L 513.6363636363636 328.1034941056073 L 508.5858585858586 324.4483725628314 L 503.5353535353535 331.1334245956327 L 498.4848484848485 325.1845071171303 L 493.4343434343434 324.549381321354 L 488.3838383838384 328.50766204595897 L 483.3333333333333 332.00293058305977 L 478.2828282828283 336.57228107016124 L 473.2323232323232 322.6504831142595 L 468.1818181818182 331.1512008080701 L 463.1313131313131 322.55256442631014 L 458.0808080808081 333.70276843742107 L 453.030303030303 335.77816615940776 L 447.979797979798 340.80557807578316 L 442.9292929292929 330.31246262011405 L 437.8787878787879 335.8519291343815 L 432.8282828282828 342.79940457994974 L 427.77777777777777 339.27951515795905 L 422.72727272727275 344.66351457317154 L 417.67676767676767 347.2659188474369 L 412.62626262626264 343.4236985154371 L 407.57575757575756 346.9917996836831 L 402.52525252525254 354.05613295942373 L 397.47474747474746 338.7591539187411 L 392.4242424242424 345.7963743171941 L 387.37373737373736 349.8734067861937 L 382.32323232323233 356.5567642641645 L 377.27272727272725 359.32490264616365 L 372.22222222222223 360.9031977246448 L 367.1717171717172 361.4885501255964 L 362.1212121212121 362.1420169854202 L 357.07070707070704 365.1019058757858 L 352.020202020202 362.56691830252123 L 346.969696969697 362.62440026049626 L 341.9191919191919 360.04223096450073 L 336.86868686868684 362.33891761140865 L 331.8181818181818 368.5555747531266 L 326.7676767676768 372.52156404088197 L 321.7171717171717 370.6791177682381 L 316.66666666666663 370.9386172432583 L 311.6161616161616 373.8730545846015 L 306.5656565656566 375.9756316370064 L 301.5151515151515 368.5554086203001 L 296.4646464646464 378.16566100929015 L 291.4141414141414 376.54194521603915 L 286.3636363636364 376.523105753512 L 281.3131313131313 376.70395794845894 L 276.26262626262627 379.99930224212864 L 271.2121212121212 374.34686540582925 L 266.16161616161617 382.37071543440413 L 261.1111111111111 384.50097021570684 L 256.06060606060606 384.2071144721628 L 251.010101010101 385.15297510665727 L 245.95959595959596 386.36292048218394 L 240.9090909090909 385.2585691311918 L 235.85858585858585 381.6175688786699 L 230.8080808080808 387.1223136321952 L 225.75757575757575 389.9178307040045 L 220.7070707070707 389.7118592256881 L 215.65656565656565 388.7520434337662 L 210.6060606060606 390.38951502505284 L 205.55555555555554 390.02694674446116 L 200.50505050505052 391.1333913690674 L 195.45454545454544 392.40782950784813 L 190.40404040404042 392.26914182427134 L 185.35353535353534 392.826583910368 L 180.3030303030303 395.0665860368682 L 175.25252525252526 396.1893781316038 L 170.2020202020202 397.05802022833296 L 165.15151515151516 398.1682526813838 L 160.1010101010101 398.9651253970575 L 155.05050505050505 399.52864794460464 L 150 399.99671057003496" /><text  class="poloto_text" alignment-baseline="middle" text-anchor="start" font-size="large" x="675" y="350" >indirect_seq</text><line  class="poloto5stroke poloto5legend" stroke="black" x1="680" x2="730" y1="331.25" y2="331.25" /><path  class="poloto5stroke" fill="none" stroke="black" d=" M 650 134.27748833747557 L 644.9494949494949 170.5065057614864 L 639.8989898989898 179.24409563934555 L 634.8484848484848 183.3604019085339 L 629.7979797979798 190.58671469012904 L 624.7474747474747 197.3601826132029 L 619.6969696969697 192.39460533485732 L 614.6464646464647 203.08193006472533 L 609.5959595959596 200.778631331322 L 604.5454545454545 207.59924775056152 L 599.4949494949494 208.08129875998455 L 594.4444444444445 211.07757073935753 L 589.3939393939394 215.13204237051605 L 584.3434343434344 215.4730798367911 L 579.2929292929293 226.89733655852527 L 574.2424242424242 236.09135976395845 L 569.1919191919192 231.1717680519929 L 564.1414141414141 222.30173708483406 L 559.090909090909 239.67221993328104 L 554.040404040404 229.44285695299104 L 548.989898989899 239.55622599380655 L 543.939393939394 250.49540808867505 L 538.8888888888889 236.90501189511036 L 533.8383838383838 253.2776345343629 L 528.7878787878788 253.33049799976078 L 523.7373737373737 254.7871173961005 L 518.6868686868687 260.8098975292726 L 513.6363636363636 262.3308435560399 L 508.5858585858586 264.18113129809547 L 503.5353535353535 271.67458566473067 L 498.4848484848485 268.5815579271939 L 493.4343434343434 275.8652862136335 L 488.3838383838384 279.50090376257623 L 483.3333333333333 278.6146848128015 L 478.2828282828283 284.5207067954971 L 473.2323232323232 269.44598025012954 L 468.1818181818182 284.4753193072926 L 463.1313131313131 291.86882816549485 L 458.0808080808081 284.99581345277176 L 453.030303030303 295.14981858295346 L 447.979797979798 297.6348001754363 L 442.9292929292929 298.49413883388047 L 437.8787878787879 300.99483659175183 L 432.8282828282828 301.8760383301657 L 427.77777777777777 305.45952339814727 L 422.72727272727275 309.6307531797823 L 417.67676767676767 313.5895323028668 L 412.62626262626264 312.84857989659895 L 407.57575757575756 317.18464666870454 L 402.52525252525254 319.3385919910687 L 397.47474747474746 306.73964327959493 L 392.4242424242424 322.78265839103676 L 387.37373737373736 326.61447880809664 L 382.32323232323233 328.06398771946147 L 377.27272727272725 331.17047221594606 L 372.22222222222223 331.1362820802488 L 367.1717171717172 335.5404965377919 L 362.1212121212121 326.3934556956978 L 357.07070707070704 337.55007243391236 L 352.020202020202 340.230459456945 L 346.969696969697 344.0456665913531 L 341.9191919191919 343.64153187756676 L 336.86868686868684 344.94810010499594 L 331.8181818181818 347.98520753312687 L 326.7676767676768 348.9859252269374 L 321.7171717171717 351.58852886059464 L 316.66666666666663 353.15615821161333 L 311.6161616161616 355.2559110059675 L 306.5656565656566 356.65255645193446 L 301.5151515151515 359.00034555627917 L 296.4646464646464 360.8649871745458 L 291.4141414141414 351.0356388139445 L 286.3636363636364 365.13350433938945 L 281.3131313131313 367.09018354354674 L 276.26262626262627 368.8847835621536 L 271.2121212121212 369.975146529153 L 266.16161616161617 371.37651014739305 L 261.1111111111111 374.075869539214 L 256.06060606060606 374.6786326603846 L 251.010101010101 376.06896505894395 L 245.95959595959596 376.7608750548238 L 240.9090909090909 377.53103361199345 L 235.85858585858585 379.3023750348879 L 230.8080808080808 381.7651945083133 L 225.75757575757575 383.8608272085698 L 220.7070707070707 383.9507050677157 L 215.65656565656565 386.340160284951 L 210.6060606060606 387.8992504086867 L 205.55555555555554 388.8140774311878 L 200.50505050505052 389.74472029877325 L 195.45454545454544 390.87708164431626 L 190.40404040404042 392.3049268351032 L 185.35353535353534 393.4877261067769 L 180.3030303030303 394.89257851437384 L 175.25252525252526 395.9230672106963 L 170.2020202020202 396.9261107640781 L 165.15151515151516 398.0024188939541 L 160.1010101010101 398.83461144854533 L 155.05050505050505 399.4634574234792 L 150 399.9968434762962" /><text  class="poloto_text" alignment-baseline="start" text-anchor="middle" font-size="x-large" x="400" y="37.5" >Bench of rebal:256_bytes with abspiral(num,1.5)</text><text  class="poloto_text" alignment-baseline="start" text-anchor="middle" font-size="x-large" x="400" y="481.25" >Number of Elements</text><text  class="poloto_text" alignment-baseline="start" text-anchor="middle" font-size="x-large" transform="rotate(-90,37.5,250)" x="37.5" y="250" >Time in Seconds</text><line  class="poloto_axis_lines" stroke="black" x1="150" x2="150" y1="400" y2="405" /><text  class="poloto_text" alignment-baseline="start" text-anchor="middle" x="150" y="430" > 0</text><line  class="poloto_axis_lines" stroke="black" x1="234.17508417508418" x2="234.17508417508418" y1="400" y2="405" /><text  class="poloto_text" alignment-baseline="start" text-anchor="middle" x="234.17508417508418" y="430" > 5000</text><line  class="poloto_axis_lines" stroke="black" x1="318.35016835016836" x2="318.35016835016836" y1="400" y2="405" /><text  class="poloto_text" alignment-baseline="start" text-anchor="middle" x="318.35016835016836" y="430" > 10000</text><line  class="poloto_axis_lines" stroke="black" x1="402.52525252525254" x2="402.52525252525254" y1="400" y2="405" /><text  class="poloto_text" alignment-baseline="start" text-anchor="middle" x="402.52525252525254" y="430" > 15000</text><line  class="poloto_axis_lines" stroke="black" x1="486.7003367003367" x2="486.7003367003367" y1="400" y2="405" /><text  class="poloto_text" alignment-baseline="start" text-anchor="middle" x="486.7003367003367" y="430" > 20000</text><line  class="poloto_axis_lines" stroke="black" x1="570.8754208754208" x2="570.8754208754208" y1="400" y2="405" /><text  class="poloto_text" alignment-baseline="start" text-anchor="middle" x="570.8754208754208" y="430" > 25000</text><line  class="poloto_axis_lines" stroke="black" x1="150" x2="144" y1="400" y2="400" /><text  class="poloto_text" alignment-baseline="middle" text-anchor="end" x="135" y="400" > 0e0</text><line  class="poloto_axis_lines" stroke="black" x1="150" x2="144" y1="333.5468693930171" y2="333.5468693930171" /><text  class="poloto_text" alignment-baseline="middle" text-anchor="end" x="135" y="333.5468693930171" > 0.002</text><line  class="poloto_axis_lines" stroke="black" x1="150" x2="144" y1="267.09373878603424" y2="267.09373878603424" /><text  class="poloto_text" alignment-baseline="middle" text-anchor="end" x="135" y="267.09373878603424" > 0.004</text><line  class="poloto_axis_lines" stroke="black" x1="150" x2="144" y1="200.6406081790513" y2="200.6406081790513" /><text  class="poloto_text" alignment-baseline="middle" text-anchor="end" x="135" y="200.6406081790513" > 0.006</text><line  class="poloto_axis_lines" stroke="black" x1="150" x2="144" y1="134.18747757206842" y2="134.18747757206842" /><text  class="poloto_text" alignment-baseline="middle" text-anchor="end" x="135" y="134.18747757206842" > 0.008</text><path  stroke="black" fill="none" class="poloto_axis_lines" style="stroke-dasharray:8.417508417508419;stroke-dashoffset:-0;" d=" M 150 400 L 650 400" /><path  stroke="black" fill="none" class="poloto_axis_lines" style="stroke-dasharray:8.306641325872862;stroke-dashoffset:-0;" d=" M 150 400 L 150 100" /></svg>