<svg class="poloto" width="800" height="500" viewBox="0 0 800 500" xmlns="http://www.w3.org/2000/svg"><style>.poloto {
            font-family: "Arial";
            stroke-width:2;
            }
            .poloto_text{fill: var(--poloto_fg_color,black);  }
            .poloto_axis_lines{stroke: var(--poloto_fg_color,black);stoke-width:3;fill:none}
            .poloto_background{fill: var(--poloto_bg_color,aliceblue); }
            .poloto0stroke{stroke:  var(--poloto_color0,blue); }
            .poloto1stroke{stroke:  var(--poloto_color1,red); }
            .poloto2stroke{stroke:  var(--poloto_color2,green); }
            .poloto3stroke{stroke:  var(--poloto_color3,gold); }
            .poloto4stroke{stroke:  var(--poloto_color4,aqua); }
            .poloto5stroke{stroke:  var(--poloto_color5,brown); }
            .poloto6stroke{stroke:  var(--poloto_color6,lime); }
            .poloto7stroke{stroke:  var(--poloto_color7,chocolate); }
            .poloto0fill{fill:var(--poloto_color0,blue);}
            .poloto1fill{fill:var(--poloto_color1,red);}
            .poloto2fill{fill:var(--poloto_color2,green);}
            .poloto3fill{fill:var(--poloto_color3,gold);}
            .poloto4fill{fill:var(--poloto_color4,aqua);}
            .poloto5fill{fill:var(--poloto_color5,brown);}
            .poloto6fill{fill:var(--poloto_color6,lime);}
            .poloto7fill{fill:var(--poloto_color7,chocolate);}</style><rect class="poloto_background" fill="white" x="0" y="0" width="800" height="500"/><line class="poloto_axis_lines" stroke="black" x1="150" x2="150" y1="400" y2="405"/><text class="poloto_text" alignment-baseline="start" text-anchor="middle" x="150" y="430">0</text><line class="poloto_axis_lines" stroke="black" x1="234.17508417508418" x2="234.17508417508418" y1="400" y2="405"/><text class="poloto_text" alignment-baseline="start" text-anchor="middle" x="234.17508417508418" y="430">5000</text><line class="poloto_axis_lines" stroke="black" x1="318.35016835016836" x2="318.35016835016836" y1="400" y2="405"/><text class="poloto_text" alignment-baseline="start" text-anchor="middle" x="318.35016835016836" y="430">10000</text><line class="poloto_axis_lines" stroke="black" x1="402.52525252525254" x2="402.52525252525254" y1="400" y2="405"/><text class="poloto_text" alignment-baseline="start" text-anchor="middle" x="402.52525252525254" y="430">15000</text><line class="poloto_axis_lines" stroke="black" x1="486.7003367003367" x2="486.7003367003367" y1="400" y2="405"/><text class="poloto_text" alignment-baseline="start" text-anchor="middle" x="486.7003367003367" y="430">20000</text><line class="poloto_axis_lines" stroke="black" x1="570.8754208754208" x2="570.8754208754208" y1="400" y2="405"/><text class="poloto_text" alignment-baseline="start" text-anchor="middle" x="570.8754208754208" y="430">25000</text><line class="poloto_axis_lines" stroke="black" x1="150" x2="144" y1="345.56126437234303" y2="345.56126437234303"/><text class="poloto_text" alignment-baseline="middle" text-anchor="end" x="135" y="345.56126437234303">0.001</text><line class="poloto_axis_lines" stroke="black" x1="150" x2="144" y1="291.11283692460034" y2="291.11283692460034"/><text class="poloto_text" alignment-baseline="middle" text-anchor="end" x="135" y="291.11283692460034">0.002</text><line class="poloto_axis_lines" stroke="black" x1="150" x2="144" y1="236.6644094768577" y2="236.6644094768577"/><text class="poloto_text" alignment-baseline="middle" text-anchor="end" x="135" y="236.6644094768577">0.003</text><line class="poloto_axis_lines" stroke="black" x1="150" x2="144" y1="182.21598202911503" y2="182.21598202911503"/><text class="poloto_text" alignment-baseline="middle" text-anchor="end" x="135" y="182.21598202911503">0.004</text><line class="poloto_axis_lines" stroke="black" x1="150" x2="144" y1="127.76755458137234" y2="127.76755458137234"/><text class="poloto_text" alignment-baseline="middle" text-anchor="end" x="135" y="127.76755458137234">0.005</text><text class="poloto_text" alignment-baseline="middle" text-anchor="start" font-size="large" x="675" y="100">default_par</text><line class="poloto0stroke" stroke="black" x1="680" x2="730" y1="81.25" y2="81.25"/><polyline class="poloto0stroke" fill="none" stroke="black" points="650,271.77520567439734 644.9494949494949,290.6443082064125 639.8989898989898,256.5080844117601 634.8484848484848,188.91515319700292 629.7979797979798,271.9564644893709 624.7474747474747,328.236101449036 619.6969696969697,339.51002949108323 614.6464646464647,338.1319397923809 609.5959595959596,337.5177070823429 604.5454545454545,338.7835785720755 599.4949494949494,340.2788412866454 594.4444444444445,342.1668949568233 589.3939393939394,345.626929175845 584.3434343434344,314.1642320657316 579.2929292929293,335.60498827453114 574.2424242424242,341.7184032599363 569.1919191919192,343.7879335387975 564.1414141414141,343.6579106940523 559.090909090909,350.6519200965697 554.040404040404,349.69580571058736 548.989898989899,350.216604919125 543.939393939394,349.08799791498825 538.8888888888889,344.5641503204925 533.8383838383838,349.2396367854302 528.7878787878788,352.8840333797899 523.7373737373737,342.68600626411006 518.6868686868687,341.7955022332022 513.6363636363636,348.4140897284675 508.5858585858586,341.26141760836737 503.5353535353535,355.3402563903851 498.4848484848485,356.69493326528493 493.4343434343434,342.4671780341976 488.3838383838384,343.6715772493417 483.3333333333333,324.5859877697942 478.2828282828283,319.6672801794475 473.2323232323232,262.2753707438799 468.1818181818182,313.36792381430837 463.1313131313131,235.4251088197196 458.0808080808081,248.26579036157568 453.030303030303,348.51073568718726 447.979797979798,328.66450167619485 442.9292929292929,363.40842436959156 437.8787878787879,357.5256529228551 432.8282828282828,358.6261645384289 427.77777777777777,358.43951532913803 422.72727272727275,367.93646449300076 417.67676767676767,357.3280051312198 412.62626262626264,368.7867311360247 407.57575757575756,367.5136180054416 402.52525252525254,351.652409950922 397.47474747474746,369.33170544634913 392.4242424242424,367.8217416563684 387.37373737373736,369.91256127036166 382.32323232323233,359.275189793606 377.27272727272725,369.11984661515 372.22222222222223,370.73299017514427 367.1717171717172,365.6181593491308 362.1212121212121,357.7083273969423 357.07070707070704,367.4597140622683 352.020202020202,367.5167760142335 346.969696969697,362.0314236394382 341.9191919191919,373.1319878884918 336.86868686868684,371.39067273028553 331.8181818181818,375.1826245630287 326.7676767676768,373.64418424549274 321.7171717171717,373.73010386400523 316.66666666666663,376.6454904632672 311.6161616161616,368.66465776168684 306.5656565656566,379.3367128867268 301.5151515151515,378.4390761118233 296.4646464646464,379.3552798004864 291.4141414141414,378.0635997561436 286.3636363636364,379.8188537117765 281.3131313131313,373.3603990416351 276.26262626262627,378.3208141274068 271.2121212121212,379.00131057364865 266.16161616161617,379.2647865140683 261.1111111111111,378.5165562240814 256.06060606060606,379.9833968595236 251.010101010101,332.81902558731247 245.95959595959596,379.590170316496 240.9090909090909,381.7034226825978 235.85858585858585,384.21316849737406 230.8080808080808,380.0545609541978 225.75757575757575,386.0051206931067 220.7070707070707,386.10693925243396 215.65656565656565,378.3227742707949 210.6060606060606,373.25825379174313 205.55555555555554,382.46384942033296 200.50505050505052,385.4921076096941 195.45454545454544,386.29015821079565 190.40404040404042,384.6402619622741 185.35353535353534,385.57214679804224 180.3030303030303,392.15920865381526 175.25252525252526,393.5231417613812 170.2020202020202,394.59327115443915 165.15151515151516,396.3673098175415 160.1010101010101,397.4579662677472 155.05050505050505,398.87754566816477 150,399.9990199283059 "/><text class="poloto_text" alignment-baseline="middle" text-anchor="start" font-size="large" x="675" y="150">default_seq</text><line class="poloto1stroke" stroke="black" x1="680" x2="730" y1="131.25" y2="131.25"/><polyline class="poloto1stroke" fill="none" stroke="black" points="650,231.54462384394645 644.9494949494949,231.51674624909322 639.8989898989898,160.05117063211537 634.8484848484848,188.29226318700077 629.7979797979798,211.02333822945695 624.7474747474747,238.04217248499538 619.6969696969697,241.64186692042054 614.6464646464647,244.30973096850505 609.5959595959596,241.61812740605333 604.5454545454545,244.82394191732152 599.4949494949494,220.72887931887195 594.4444444444445,247.8503488601494 589.3939393939394,252.82072800814404 584.3434343434344,252.08447637219567 579.2929292929293,255.8555744572263 574.2424242424242,255.62340636258915 569.1919191919192,254.99686830794798 564.1414141414141,257.80177904791844 559.090909090909,261.4203126392405 554.040404040404,258.58491077989936 548.989898989899,265.39864143913724 543.939393939394,264.09775961055584 538.8888888888889,268.0512599275364 533.8383838383838,269.00938890533433 528.7878787878788,262.03405531343145 523.7373737373737,273.80585977606086 518.6868686868687,260.6015716357088 513.6363636363636,277.5305133524786 508.5858585858586,260.67818057312775 503.5353535353535,275.90174309380683 498.4848484848485,280.9603286942668 493.4343434343434,265.9658307078604 488.3838383838384,283.86711244199205 483.3333333333333,243.07734526165282 478.2828282828283,261.71781884681496 473.2323232323232,271.9639783723586 468.1818181818182,279.46512042812435 463.1313131313131,288.5615469596815 458.0808080808081,289.95058079230085 453.030303030303,288.89052435832076 447.979797979798,260.10538311637754 442.9292929292929,299.9849359350728 437.8787878787879,300.6855238510429 432.8282828282828,279.414973426445 427.77777777777777,304.38246317788975 422.72727272727275,314.64860527630674 417.67676767676767,301.14011377180407 412.62626262626264,317.4442053351836 407.57575757575756,316.15541105749554 402.52525252525254,295.38464274844046 397.47474747474746,320.46946886103507 392.4242424242424,321.86841230744994 387.37373737373736,325.1188745292253 382.32323232323233,326.85322028871826 377.27272727272725,325.34096966478467 372.22222222222223,328.5713948652592 367.1717171717172,331.5588167340345 362.1212121212121,333.21557348441445 357.07070707070704,302.362862106998 352.020202020202,334.69951092607516 346.969696969697,336.9744206732693 341.9191919191919,337.6901452520699 336.86868686868684,340.5460741685589 331.8181818181818,340.47975598392753 326.7676767676768,338.654372453742 321.7171717171717,339.60994235544985 316.66666666666663,344.6165297076972 311.6161616161616,348.384360887081 306.5656565656566,349.58870565379766 301.5151515151515,350.4873225003952 296.4646464646464,352.14810843440625 291.4141414141414,354.0742215553702 286.3636363636364,359.733645552716 281.3131313131313,361.1429886487733 276.26262626262627,362.7138802290682 271.2121212121212,351.9125100888399 266.16161616161617,364.78890979910165 261.1111111111111,366.2605418961592 256.06060606060606,368.1950945233775 251.010101010101,369.29968977100987 245.95959595959596,370.6407000906203 240.9090909090909,372.14979270576197 235.85858585858585,373.17516549145785 230.8080808080808,375.8104693799286 225.75757575757575,377.14423805868853 220.7070707070707,378.11902825528546 215.65656565656565,381.29271819435945 210.6060606060606,383.0371913613577 205.55555555555554,384.20941155588014 200.50505050505052,385.56425177606235 195.45454545454544,386.82135706897583 190.40404040404042,387.9480039297245 185.35353535353534,389.2382138665262 180.3030303030303,391.7500287215455 175.25252525252526,392.98132545984873 170.2020202020202,394.33099307942337 165.15151515151516,396.1500061435976 160.1010101010101,397.3331160236096 155.05050505050505,398.738702178173 150,400 "/><text class="poloto_text" alignment-baseline="middle" text-anchor="start" font-size="large" x="675" y="200">direct_par</text><line class="poloto2stroke" stroke="black" x1="680" x2="730" y1="181.25" y2="181.25"/><polyline class="poloto2stroke" fill="none" stroke="black" points="650,287.4660445994329 644.9494949494949,325.3404251805101 639.8989898989898,217.0286186379508 634.8484848484848,169.4567553347208 629.7979797979798,202.6505312986803 624.7474747474747,297.5613819809463 619.6969696969697,323.88278632930667 614.6464646464647,332.5828283090442 609.5959595959596,302.00840284431325 604.5454545454545,321.9936981390072 599.4949494949494,329.2444863253682 594.4444444444445,330.6312333240347 589.3939393939394,335.18736883600695 584.3434343434344,317.0441182902976 579.2929292929293,337.61005161529425 574.2424242424242,331.7323983207379 569.1919191919192,330.92100785491164 564.1414141414141,341.50752450043115 559.090909090909,336.5050752286698 554.040404040404,342.0147116021069 548.989898989899,340.17239461098507 543.939393939394,337.0616470540406 538.8888888888889,341.5752583441761 533.8383838383838,338.3138519884838 528.7878787878788,344.74502799647394 523.7373737373737,346.22090707087244 518.6868686868687,346.7609810227266 513.6363636363636,339.06202783004323 508.5858585858586,341.5766195548623 503.5353535353535,343.30601050745753 498.4848484848485,344.42274775441075 493.4343434343434,344.9150159869658 488.3838383838384,343.28755249055274 483.3333333333333,254.74961799890775 478.2828282828283,303.2487924700003 473.2323232323232,297.1140881494631 468.1818181818182,300.4243347445761 463.1313131313131,192.31894219047112 458.0808080808081,298.8580168321869 453.030303030303,312.3774524706065 447.979797979798,303.0127040885869 442.9292929292929,305.5875157741632 437.8787878787879,353.48884651187944 432.8282828282828,358.50376447352636 427.77777777777777,355.9789908927745 422.72727272727275,359.78564380092854 417.67676767676767,341.2229225701618 412.62626262626264,350.9194252206205 407.57575757575756,364.27655009681837 402.52525252525254,356.41452386392905 397.47474747474746,366.9647778567683 392.4242424242424,363.5285376005413 387.37373737373736,366.5018573266076 382.32323232323233,365.4383706416983 377.27272727272725,367.3453179162006 372.22222222222223,352.82054651338586 367.1717171717172,366.69406027549815 362.1212121212121,355.3464635111141 357.07070707070704,366.12295071999876 352.020202020202,358.10569202045593 346.969696969697,369.5412229951681 341.9191919191919,362.30535367792777 336.86868686868684,372.12790443792795 331.8181818181818,372.7128983424265 326.7676767676768,350.1519201873171 321.7171717171717,372.2253671230594 316.66666666666663,374.2647874215421 311.6161616161616,369.31885561747146 306.5656565656566,372.18229841694824 301.5151515151515,375.8505978709576 296.4646464646464,367.86470146562465 291.4141414141414,374.78618556278167 286.3636363636364,375.46668200902354 281.3131313131313,377.76952379949836 276.26262626262627,379.3825040142103 271.2121212121212,373.6427685863791 266.16161616161617,369.08810318194793 261.1111111111111,377.6925881715147 256.06060606060606,377.24170074382 251.010101010101,378.85963576542963 245.95959595959596,373.1909555354177 240.9090909090909,381.68561804682236 235.85858585858585,381.97615485568355 230.8080808080808,379.514650347626 225.75757575757575,383.1106967384122 220.7070707070707,383.0283162676837 215.65656565656565,377.3173296095449 210.6060606060606,382.8443350313378 205.55555555555554,382.2295033885979 200.50505050505052,383.49265245695807 195.45454545454544,383.05924297447405 190.40404040404042,381.9847032587928 185.35353535353534,391.9169131516728 180.3030303030303,391.3645338552155 175.25252525252526,392.74768725767046 170.2020202020202,394.02145376938296 165.15151515151516,396.09882462179667 160.1010101010101,395.09768138631506 155.05050505050505,398.7989765873577 150,399.99504519310227 "/><text class="poloto_text" alignment-baseline="middle" text-anchor="start" font-size="large" x="675" y="250">direct_seq</text><line class="poloto3stroke" stroke="black" x1="680" x2="730" y1="231.25" y2="231.25"/><polyline class="poloto3stroke" fill="none" stroke="black" points="650,202.13327123792675 644.9494949494949,205.43023241674246 639.8989898989898,197.33456798167484 634.8484848484848,106.59773374755275 629.7979797979798,164.33675190809979 624.7474747474747,100 619.6969696969697,212.49878171643584 614.6464646464647,216.31991790629098 609.5959595959596,217.4614291877329 604.5454545454545,220.66419458706403 599.4949494949494,225.36548960661193 594.4444444444445,220.8061416374203 589.3939393939394,228.47493040129763 584.3434343434344,228.15324909193635 579.2929292929293,227.56406265852434 574.2424242424242,229.9768902724436 569.1919191919192,226.51887064523746 564.1414141414141,230.55279128955837 559.090909090909,238.36652176730158 554.040404040404,238.60522367323247 548.989898989899,243.44775791357984 543.939393939394,244.30815196410907 538.8888888888889,243.82889690571403 533.8383838383838,248.83150952275773 528.7878787878788,248.9638736498832 523.7373737373737,253.50764936882476 518.6868686868687,230.35302000925262 513.6363636363636,257.49784792590515 508.5858585858586,256.7405247485345 503.5353535353535,228.7733622321387 498.4848484848485,263.2605605901193 493.4343434343434,262.81239558379696 488.3838383838384,260.04532650090266 483.3333333333333,204.77832139491065 478.2828282828283,223.48277188232387 473.2323232323232,251.8987527861714 468.1818181818182,259.5197902791771 463.1313131313131,193.91700353606237 458.0808080808081,239.12406273838204 453.030303030303,216.65994833570215 447.979797979798,209.07032758533387 442.9292929292929,284.40304831336016 437.8787878787879,282.51864268782117 432.8282828282828,287.62312831261966 427.77777777777777,288.82801756361073 422.72727272727275,301.78930237226353 417.67676767676767,300.452539029994 412.62626262626264,291.39667657688545 407.57575757575756,304.2612609783911 402.52525252525254,308.0038280874391 397.47474747474746,308.1794787143855 392.4242424242424,309.7949091083326 387.37373737373736,313.46299076863215 382.32323232323233,315.2045237205482 377.27272727272725,316.693089278542 372.22222222222223,316.3419513699315 367.1717171717172,319.5854441929935 362.1212121212121,323.208769245931 357.07070707070704,323.2752507758447 352.020202020202,325.4498665196801 346.969696969697,298.5198920977364 341.9191919191919,328.2984993468911 336.86868686868684,331.74034779114527 331.8181818181818,331.7398033068708 326.7676767676768,333.7317990250465 321.7171717171717,335.71687979293625 316.66666666666663,337.29321621597586 311.6161616161616,341.5767284517172 306.5656565656566,342.47665206057354 301.5151515151515,343.4861259054546 296.4646464646464,345.6128814815635 291.4141414141414,347.8293680661062 286.3636363636364,354.24344726787774 281.3131313131313,355.11908687809233 276.26262626262627,357.5373593347564 271.2121212121212,358.51721323510594 266.16161616161617,360.3808740097873 261.1111111111111,361.4002030200365 256.06060606060606,363.8978068354919 251.010101010101,365.01655867426064 245.95959595959596,367.2905972466156 240.9090909090909,369.4686976898077 235.85858585858585,360.7474208233655 230.8080808080808,372.66253354703736 225.75757575757575,372.68213498091853 220.7070707070707,375.17342277879004 215.65656565656565,379.2643509266487 210.6060606060606,381.1391191805294 205.55555555555554,381.950672991638 200.50505050505052,383.39426414856 195.45454545454544,385.3481459675222 190.40404040404042,386.78672786911903 185.35353535353534,388.0441598525972 180.3030303030303,390.79636451479826 175.25252525252526,392.18300261660994 170.2020202020202,393.7573788962614 165.15151515151516,395.78857748219946 160.1010101010101,397.09855219816467 155.05050505050505,398.6544160124839 150,399.99139714846325 "/><text class="poloto_text" alignment-baseline="middle" text-anchor="start" font-size="large" x="675" y="300">indirect_par</text><line class="poloto4stroke" stroke="black" x1="680" x2="730" y1="281.25" y2="281.25"/><polyline class="poloto4stroke" fill="none" stroke="black" points="650,288.1757798512142 644.9494949494949,327.607875493144 639.8989898989898,312.2908250225371 634.8484848484848,313.35757861309327 629.7979797979798,283.2600669243771 624.7474747474747,335.6714153560174 619.6969696969697,332.96287833262943 614.6464646464647,332.863346607255 609.5959595959596,335.1446268204605 604.5454545454545,340.15584228904095 599.4949494949494,344.49086273714784 594.4444444444445,339.5573451745353 589.3939393939394,337.43031735628927 584.3434343434344,322.7547238094443 579.2929292929293,341.10286378763954 574.2424242424242,338.0809760642898 569.1919191919192,346.71725893548603 564.1414141414141,346.75727852966014 559.090909090909,349.1378182261029 554.040404040404,338.58462401818144 548.989898989899,344.4252523820733 543.939393939394,343.6403238519867 538.8888888888889,348.29686226417255 533.8383838383838,336.43053533149384 528.7878787878788,353.0896306418326 523.7373737373737,346.4601534610778 518.6868686868687,353.2229748406521 513.6363636363636,351.31526528816556 508.5858585858586,343.00153490116975 503.5353535353535,351.5679604399505 498.4848484848485,351.21235776028936 493.4343434343434,352.12965041750147 488.3838383838384,349.7221043010446 483.3333333333333,296.99778630843474 478.2828282828283,257.7954630303345 473.2323232323232,263.17676446027724 468.1818181818182,210.19833565676873 463.1313131313131,325.7280979839381 458.0808080808081,333.8739638691125 453.030303030303,285.1007504626755 447.979797979798,290.99860412381497 442.9292929292929,354.5032751636584 437.8787878787879,360.1518639239421 432.8282828282828,360.0358887734784 427.77777777777777,358.91408782277256 422.72727272727275,354.5915905129786 417.67676767676767,354.4663591298488 412.62626262626264,354.00659660848004 407.57575757575756,363.52254827352203 402.52525252525254,360.83666179595235 397.47474747474746,368.97234582519405 392.4242424242424,363.9535075767709 387.37373737373736,368.08107951630194 382.32323232323233,365.89541074169466 377.27272727272725,370.38228785395336 372.22222222222223,371.4393496244238 367.1717171717172,356.05151619813495 362.1212121212121,369.70004905803313 357.07070707070704,360.6103741314795 352.020202020202,372.16166246294557 346.969696969697,372.7237335794886 341.9191919191919,371.6598113071597 336.86868686868684,371.81869181845224 331.8181818181818,375.53806389740754 326.7676767676768,345.8489698629769 321.7171717171717,365.0524401879487 316.66666666666663,376.7684350124442 311.6161616161616,368.1308453789892 306.5656565656566,377.1819163704823 301.5151515151515,378.5923484350887 296.4646464646464,370.37591738794197 291.4141414141414,378.3561511568204 286.3636363636364,380.2532977143821 281.3131313131313,377.1325860952147 276.26262626262627,380.4937419699913 271.2121212121212,331.2764471892905 266.16161616161617,368.44974981855063 261.1111111111111,385.00043830984094 256.06060606060606,379.19100889487663 251.010101010101,381.8539181360633 245.95959595959596,374.2625005875893 240.9090909090909,382.44555474871055 235.85858585858585,376.3264226784234 230.8080808080808,383.2534605151801 225.75757575757575,383.57840873018824 220.7070707070707,380.11951792814295 215.65656565656565,388.9780048317534 210.6060606060606,382.02178263788477 205.55555555555554,382.19117169567465 200.50505050505052,384.0981734186044 195.45454545454544,381.74496683274043 190.40404040404042,382.1773962435304 185.35353535353534,393.33023098293387 180.3030303030303,392.96346637564585 175.25252525252526,394.08259935340675 170.2020202020202,395.0957212429269 165.15151515151516,396.87270012111145 160.1010101010101,397.78868601606484 155.05050505050505,398.9764784608373 150,399.99809430503933 "/><text class="poloto_text" alignment-baseline="middle" text-anchor="start" font-size="large" x="675" y="350">indirect_seq</text><line class="poloto5stroke" stroke="black" x1="680" x2="730" y1="331.25" y2="331.25"/><polyline class="poloto5stroke" fill="none" stroke="black" points="650,231.7765196964464 644.9494949494949,217.92995790592076 639.8989898989898,154.51463673551913 634.8484848484848,151.26455565273594 629.7979797979798,190.96981905517094 624.7474747474747,237.26829698568062 619.6969696969697,244.580666343485 614.6464646464647,245.4454707166375 609.5959595959596,241.90975318346344 604.5454545454545,216.66120064953344 599.4949494949494,253.76780395517008 594.4444444444445,249.4582653711087 589.3939393939394,253.83630007689933 584.3434343434344,248.84147358498066 579.2929292929293,257.4860870655764 574.2424242424242,254.4548342127057 569.1919191919192,257.2785841085731 564.1414141414141,259.3745218747465 559.090909090909,260.73676708106154 554.040404040404,263.15030252453766 548.989898989899,264.86548243756897 543.939393939394,270.19445892873443 538.8888888888889,270.500241297281 533.8383838383838,270.9203653634678 528.7878787878788,242.27412205994375 523.7373737373737,277.65547249347117 518.6868686868687,246.7147724572993 513.6363636363636,281.7007728591287 508.5858585858586,279.395154198854 503.5353535353535,251.70665873413577 498.4848484848485,284.92172403322735 493.4343434343434,282.2765105309611 488.3838383838384,266.4523818555334 483.3333333333333,254.1070176581695 478.2828282828283,244.5071065180031 473.2323232323232,254.22272056649595 468.1818181818182,271.21906943644603 463.1313131313131,287.1150700361047 458.0808080808081,207.66408804964098 453.030303030303,270.2605048712286 447.979797979798,277.4432325232799 442.9292929292929,299.202784274786 437.8787878787879,301.93658536850967 432.8282828282828,304.98945424707716 427.77777777777777,305.85126395672 422.72727272727275,316.8655818966964 417.67676767676767,313.3625878684185 412.62626262626264,320.99598515445473 407.57575757575756,319.96876112222566 402.52525252525254,323.866778491637 397.47474747474746,321.9300479273208 392.4242424242424,322.6374963451493 387.37373737373736,327.5233170853176 382.32323232323233,329.3287724910573 377.27272727272725,330.9951666130955 372.22222222222223,331.9400101745961 367.1717171717172,324.36781292101114 362.1212121212121,321.429666879076 357.07070707070704,336.12959887299013 352.020202020202,338.4697378362667 346.969696969697,339.3203311698553 341.9191919191919,339.98868561677637 336.86868686868684,344.0355105384024 331.8181818181818,342.6463678089281 326.7676767676768,344.712086697868 321.7171717171717,344.687639353944 316.66666666666663,347.552443364107 311.6161616161616,351.21557021750874 306.5656565656566,352.0117695720771 301.5151515151515,352.9348337625987 296.4646464646464,354.15611199025153 291.4141414141414,356.4176274242935 286.3636363636364,361.113150910532 281.3131313131313,363.43161939968434 276.26262626262627,344.9264501567298 271.2121212121212,365.3158616799409 266.16161616161617,367.0300615212782 261.1111111111111,368.25123085207616 256.06060606060606,369.9158281760085 251.010101010101,372.1786503723093 245.95959595959596,373.2463840345595 240.9090909090909,374.02205633198 235.85858585858585,375.31820114737354 230.8080808080808,377.8381288180825 225.75757575757575,378.88685997915354 220.7070707070707,380.0083886877221 215.65656565656565,382.9156080228669 210.6060606060606,384.5563024871497 205.55555555555554,385.6215315217374 200.50505050505052,386.9110880774097 195.45454545454544,387.9083110261151 190.40404040404042,388.9953194316818 185.35353535353534,390.1330193232024 180.3030303030303,392.41500736596475 175.25252525252526,393.62893505591217 170.2020202020202,394.86039513949777 165.15151515151516,396.6197871756167 160.1010101010101,397.65828203232746 155.05050505050505,398.898726106442 150,399.9939017761259 "/><text class="poloto_text" alignment-baseline="start" text-anchor="middle" font-size="x-large" x="400" y="37.5">Bench of rebal:16_bytes with abspiral(num,0.1)</text><text class="poloto_text" alignment-baseline="start" text-anchor="middle" font-size="x-large" x="400" y="481.25">Number of Elements</text><text class="poloto_text" alignment-baseline="start" text-anchor="middle" font-size="x-large" transform="rotate(-90,37.5,250)" x="37.5" y="250">Time in Seconds</text><path stroke="black" fill="none" class="poloto_axis_lines" d=" M 150 100 L 150 400 L 650 400"/></svg>