<svg class="poloto" height="500" viewBox="0 0 800 500" width="800" xmlns="http://www.w3.org/2000/svg">
<rect class="poloto_background" fill="white" height="500" width="800" x="0" y="0"/>
<style>
.poloto {
font-family: "Arial";
stroke-width:2;
}
.poloto_text{fill: var(--poloto_fg_color,black);  }
.poloto_axis_lines{stroke: var(--poloto_fg_color,black);stoke-width:3;fill:none}
.poloto_background{fill: var(--poloto_bg_color,aliceblue); }
.poloto0stroke{stroke:  var(--poloto_color0,blue); }
.poloto1stroke{stroke:  var(--poloto_color1,red); }
.poloto2stroke{stroke:  var(--poloto_color2,green); }
.poloto3stroke{stroke:  var(--poloto_color3,gold); }
.poloto4stroke{stroke:  var(--poloto_color4,aqua); }
.poloto5stroke{stroke:  var(--poloto_color5,brown); }
.poloto6stroke{stroke:  var(--poloto_color6,lime); }
.poloto7stroke{stroke:  var(--poloto_color7,chocolate); }
.poloto0fill{fill:var(--poloto_color0,blue);}
.poloto1fill{fill:var(--poloto_color1,red);}
.poloto2fill{fill:var(--poloto_color2,green);}
.poloto3fill{fill:var(--poloto_color3,gold);}
.poloto4fill{fill:var(--poloto_color4,aqua);}
.poloto5fill{fill:var(--poloto_color5,brown);}
.poloto6fill{fill:var(--poloto_color6,lime);}
.poloto7fill{fill:var(--poloto_color7,chocolate);}
</style>
<line class="poloto_axis_lines" stroke="black" x1="150" x2="150" y1="400" y2="405"/>
<text alignment-baseline="start" class="poloto_text" text-anchor="middle" x="150" y="440">
0
</text>
<line class="poloto_axis_lines" stroke="black" x1="234.17508" x2="234.17508" y1="400" y2="405"/>
<text alignment-baseline="start" class="poloto_text" text-anchor="middle" x="234.17508" y="440">
5000
</text>
<line class="poloto_axis_lines" stroke="black" x1="318.35016" x2="318.35016" y1="400" y2="405"/>
<text alignment-baseline="start" class="poloto_text" text-anchor="middle" x="318.35016" y="440">
10000
</text>
<line class="poloto_axis_lines" stroke="black" x1="402.52527" x2="402.52527" y1="400" y2="405"/>
<text alignment-baseline="start" class="poloto_text" text-anchor="middle" x="402.52527" y="440">
15000
</text>
<line class="poloto_axis_lines" stroke="black" x1="486.70035" x2="486.70035" y1="400" y2="405"/>
<text alignment-baseline="start" class="poloto_text" text-anchor="middle" x="486.70035" y="440">
20000
</text>
<line class="poloto_axis_lines" stroke="black" x1="570.8754" x2="570.8754" y1="400" y2="405"/>
<text alignment-baseline="start" class="poloto_text" text-anchor="middle" x="570.8754" y="440">
25000
</text>
<line class="poloto_axis_lines" stroke="black" x1="150" x2="144" y1="335.69824" y2="335.69824"/>
<text alignment-baseline="middle" class="poloto_text" text-anchor="end" x="120" y="335.69824">
0.001
</text>
<line class="poloto_axis_lines" stroke="black" x1="150" x2="144" y1="271.38916" y2="271.38916"/>
<text alignment-baseline="middle" class="poloto_text" text-anchor="end" x="120" y="271.38916">
0.002
</text>
<line class="poloto_axis_lines" stroke="black" x1="150" x2="144" y1="207.08008" y2="207.08008"/>
<text alignment-baseline="middle" class="poloto_text" text-anchor="end" x="120" y="207.08008">
0.003
</text>
<line class="poloto_axis_lines" stroke="black" x1="150" x2="144" y1="142.771" y2="142.771"/>
<text alignment-baseline="middle" class="poloto_text" text-anchor="end" x="120" y="142.771">
0.004
</text>
<text alignment-baseline="middle" class="poloto_text" font-size="large" text-anchor="start" x="675" y="100">
default_par
</text>
<line class="poloto0stroke" x1="680" x2="730" y1="81.25" y2="81.25"/>
<polyline class="poloto0stroke" fill="none" points="650,314.8257 644.94946,320.19165 639.899,320.5626 634.8485,323.88486 629.798,319.20883 624.7475,317.79492 619.697,328.42175 614.6465,324.44943 609.59595,325.0074 604.5455,326.50803 599.495,328.00214 594.44446,327.2989 589.3939,328.12805 584.34344,329.85333 579.29297,330.65582 574.24243,324.57733 569.1919,332.11487 564.1414,332.3419 559.09094,324.53574 554.0404,334.13226 548.98987,337.63144 543.9394,336.48676 538.8889,333.8122 533.8384,311.08948 528.78784,338.04276 523.73737,317.10522 518.6869,335.41852 513.63635,340.1312 508.58588,331.15796 503.53537,341.0703 498.48486,332.0037 493.43436,332.60986 488.38385,331.42865 483.33334,346.16095 478.28284,348.59048 473.23233,350.0044 468.18182,351.0516 463.13132,339.8609 458.0808,341.11 453.0303,348.92432 447.9798,348.93796 442.9293,344.2992 437.87878,349.96188 432.82828,353.74182 427.77777,354.30725 422.72726,343.14355 417.67676,350.0278 412.62628,349.10303 407.57578,345.07953 402.52527,347.4058 397.47473,353.16962 392.42426,348.6674 387.37375,354.85336 382.32324,349.1584 377.27274,356.53702 372.22223,353.87167 367.17172,354.00833 362.12122,353.3959 357.0707,358.62933 352.0202,355.40976 346.9697,360.0557 341.9192,361.82324 336.86868,365.02866 331.81818,365.14063 326.7677,364.0266 321.71716,366.3841 316.6667,355.04654 311.61615,355.33124 306.56567,353.06744 301.51514,361.5792 296.46466,361.38394 291.41412,370.95544 286.36365,371.36594 281.31314,369.37466 276.26263,372.65378 271.21213,371.70285 266.16162,375.03625 261.1111,374.1754 256.0606,381.8013 251.0101,377.4403 245.9596,375.45053 240.90909,372.1087 235.85858,372.93024 230.80807,383.8482 225.75757,379.30322 220.70706,380.4101 215.65657,372.99243 210.60606,372.34363 205.55556,373.14197 200.50505,380.57886 195.45454,382.20413 190.40404,383.5069 185.35353,384.30838 180.30302,384.28513 175.25253,387.1951 170.20203,389.7344 165.15152,392.41937 160.10101,395.0275 155.0505,397.60553 150,399.99994 " stroke="black"/>
<text alignment-baseline="middle" class="poloto_text" font-size="large" text-anchor="start" x="675" y="150">
default_seq
</text>
<line class="poloto1stroke" x1="680" x2="730" y1="131.25" y2="131.25"/>
<polyline class="poloto1stroke" fill="none" points="650,123.835785 644.94946,131.57504 639.899,135.6196 634.8485,137.52795 629.798,140.74866 624.7475,144.54318 619.697,146.5421 614.6465,150.99684 609.59595,153.06876 604.5455,155.45514 599.495,159.27354 594.44446,162.55249 589.3939,165.0716 584.34344,168.1282 579.29297,171.21228 574.24243,173.39789 569.1919,177.32022 564.1414,179.3115 559.09094,182.70393 554.0404,185.74466 548.98987,187.3666 543.9394,190.16159 538.8889,193.53351 533.8384,185.55429 528.78784,199.21503 523.73737,196.93411 518.6869,204.54669 513.63635,207.35103 508.58588,211.14745 503.53537,214.0106 498.48486,215.55461 493.43436,217.48299 488.38385,220.36533 483.33334,225.1501 478.28284,226.12935 473.23233,229.66164 468.18182,232.16971 463.13132,234.72758 458.0808,238.54839 453.0303,240.74454 447.9798,242.73395 442.9293,245.75005 437.87878,248.253 432.82828,251.02397 427.77777,253.94604 422.72726,254.58386 417.67676,256.52094 412.62628,260.01727 407.57578,263.30173 402.52527,264.9052 397.47473,268.14502 392.42426,270.91708 387.37375,274.25375 382.32324,276.89523 377.27274,279.7844 372.22223,282.62576 367.17172,284.90988 362.12122,286.25177 357.0707,290.21075 352.0202,293.27472 346.9697,294.90598 341.9192,297.52368 336.86868,300.28207 331.81818,303.03958 326.7677,304.79837 321.71716,307.70398 316.6667,310.3462 311.61615,310.23077 306.56567,309.4861 301.51514,317.98392 296.46466,321.58856 291.41412,324.44577 286.36365,326.98642 281.31314,329.1775 276.26263,332.66446 271.21213,334.78345 266.16162,338.12445 261.1111,340.54614 256.0606,344.07623 251.0101,346.72116 245.9596,349.3638 240.90909,351.95264 235.85858,354.516 230.80807,357.49786 225.75757,360.12277 220.70706,362.93024 215.65657,364.71393 210.60606,368.11047 205.55556,370.72656 200.50505,373.28986 195.45454,376.01117 190.40404,378.43808 185.35353,381.02142 180.30302,384.02408 175.25253,386.87607 170.20203,389.3746 165.15152,392.01868 160.10101,394.661 155.0505,397.47845 150,399.99884 " stroke="black"/>
<text alignment-baseline="middle" class="poloto_text" font-size="large" text-anchor="start" x="675" y="200">
direct_par
</text>
<line class="poloto2stroke" x1="680" x2="730" y1="181.25" y2="181.25"/>
<polyline class="poloto2stroke" fill="none" points="650,283.4272 644.94946,317.42664 639.899,316.00256 634.8485,320.6264 629.798,319.4135 624.7475,317.29068 619.697,316.68417 614.6465,320.6198 609.59595,326.31232 604.5455,324.44916 599.495,327.71246 594.44446,325.8866 589.3939,329.63693 584.34344,312.3062 579.29297,327.90005 574.24243,329.66806 569.1919,330.97656 564.1414,324.4398 559.09094,326.3367 554.0404,327.436 548.98987,325.8288 543.9394,336.82733 538.8889,338.8099 533.8384,327.5859 528.78784,333.7489 523.73737,318.8361 518.6869,339.7743 513.63635,339.7458 508.58588,329.80246 503.53537,340.2121 498.48486,343.37265 493.43436,331.40665 488.38385,342.70285 483.33334,345.77286 478.28284,346.6454 473.23233,339.57126 468.18182,347.082 463.13132,345.25073 458.0808,332.96216 453.0303,340.19757 447.9798,345.92737 442.9293,348.64642 437.87878,345.18668 432.82828,349.67468 427.77777,343.91058 422.72726,346.61627 417.67676,345.74585 412.62628,348.11588 407.57578,346.67587 402.52527,343.82758 397.47473,355.5743 392.42426,352.21405 387.37375,354.2695 382.32324,357.4859 377.27274,356.6675 372.22223,358.86887 367.17172,356.6515 362.12122,353.35965 357.0707,354.44763 352.0202,354.5666 346.9697,355.70834 341.9192,365.70602 336.86868,365.48666 331.81818,365.80685 326.7677,362.87308 321.71716,361.84003 316.6667,358.34802 311.61615,355.96088 306.56567,359.37222 301.51514,366.5218 296.46466,365.5779 291.41412,370.73178 286.36365,367.28656 281.31314,369.44104 276.26263,370.32104 271.21213,377.2303 266.16162,374.9933 261.1111,378.62262 256.0606,379.5643 251.0101,374.39212 245.9596,376.3461 240.90909,381.4476 235.85858,377.6133 230.80807,382.3765 225.75757,382.15982 220.70706,378.54065 215.65657,371.1114 210.60606,371.09692 205.55556,372.9399 200.50505,378.6924 195.45454,379.59042 190.40404,380.76575 185.35353,384.84647 180.30302,383.86786 175.25253,386.78326 170.20203,389.49414 165.15152,392.5245 160.10101,395.1051 155.0505,397.56802 150,399.99756 " stroke="black"/>
<text alignment-baseline="middle" class="poloto_text" font-size="large" text-anchor="start" x="675" y="250">
direct_seq
</text>
<line class="poloto3stroke" x1="680" x2="730" y1="231.25" y2="231.25"/>
<polyline class="poloto3stroke" fill="none" points="650,111.07614 644.94946,122.83145 639.899,128.13477 634.8485,129.7492 629.798,133.38953 624.7475,135.8978 619.697,138.67447 614.6465,142.78146 609.59595,144.79051 604.5455,147.94919 599.495,152.15512 594.44446,154.90639 589.3939,157.8702 584.34344,160.12283 579.29297,163.34071 574.24243,166.98369 569.1919,169.85194 564.1414,172.10052 559.09094,175.72157 554.0404,178.36017 548.98987,180.99318 543.9394,183.67133 538.8889,186.49763 533.8384,189.49252 528.78784,190.88853 523.73737,195.29886 518.6869,197.15077 513.63635,202.35222 508.58588,205.21153 503.53537,207.70473 498.48486,210.81631 493.43436,213.54889 488.38385,215.20497 483.33334,219.66699 478.28284,221.70854 473.23233,225.52522 468.18182,227.49983 463.13132,229.71547 458.0808,232.96823 453.0303,235.682 447.9798,238.06741 442.9293,241.29503 437.87878,243.6063 432.82828,247.09738 427.77777,250.75484 422.72726,256.81937 417.67676,258.5487 412.62628,261.0587 407.57578,264.05124 402.52527,267.0539 397.47473,269.5691 392.42426,272.02127 387.37375,274.59485 382.32324,277.05087 377.27274,279.71005 372.22223,283.64597 367.17172,285.33337 362.12122,287.01093 357.0707,290.58093 352.0202,294.0311 346.9697,295.60153 341.9192,298.70337 336.86868,301.71063 331.81818,303.93167 326.7677,305.86133 321.71716,308.80316 316.6667,310.61765 311.61615,314.09406 306.56567,316.09213 301.51514,319.21918 296.46466,321.61996 291.41412,324.22125 286.36365,324.15863 281.31314,327.16656 276.26263,330.39114 271.21213,332.91592 266.16162,335.2566 261.1111,339.00018 256.0606,342.24634 251.0101,345.20398 245.9596,347.95023 240.90909,350.9934 235.85858,353.9905 230.80807,356.55878 225.75757,358.99127 220.70706,361.67242 215.65657,365.88904 210.60606,368.37415 205.55556,370.99814 200.50505,373.47354 195.45454,375.74655 190.40404,378.5967 185.35353,381.13898 180.30302,383.5687 175.25253,385.95535 170.20203,389.13242 165.15152,392.2463 160.10101,394.81302 155.0505,397.441 150,399.99664 " stroke="black"/>
<text alignment-baseline="middle" class="poloto_text" font-size="large" text-anchor="start" x="675" y="300">
indirect_par
</text>
<line class="poloto4stroke" x1="680" x2="730" y1="281.25" y2="281.25"/>
<polyline class="poloto4stroke" fill="none" points="650,261.19168 644.94946,296.0183 639.899,301.01675 634.8485,306.98462 629.798,305.34167 624.7475,306.69574 619.697,312.8401 614.6465,314.61966 609.59595,309.14413 604.5455,316.57306 599.495,316.7625 594.44446,316.83374 589.3939,315.96393 584.34344,315.555 579.29297,315.03445 574.24243,321.22485 569.1919,317.31665 564.1414,308.7735 559.09094,324.40372 554.0404,322.3147 548.98987,325.25607 543.9394,320.8847 538.8889,322.25824 533.8384,295.4647 528.78784,331.406 523.73737,298.36932 518.6869,333.27032 513.63635,331.3574 508.58588,332.19727 503.53537,330.07977 498.48486,328.52008 493.43436,334.02036 488.38385,333.221 483.33334,338.17017 478.28284,341.36676 473.23233,340.38837 468.18182,340.02832 463.13132,337.72156 458.0808,340.64548 453.0303,340.7392 447.9798,343.03162 442.9293,347.54895 437.87878,344.78583 432.82828,343.2866 427.77777,332.4972 422.72726,342.97772 417.67676,342.64197 412.62628,338.97665 407.57578,339.96252 402.52527,342.8707 397.47473,347.00854 392.42426,347.80405 387.37375,348.3022 382.32324,350.4084 377.27274,350.15488 372.22223,349.06952 367.17172,350.8538 362.12122,347.111 357.0707,352.8657 352.0202,352.88846 346.9697,354.18814 341.9192,358.5245 336.86868,360.73102 331.81818,361.62735 326.7677,359.30652 321.71716,361.21674 316.6667,356.16513 311.61615,351.66888 306.56567,345.97137 301.51514,363.32428 296.46466,362.83405 291.41412,364.20023 286.36365,370.5011 281.31314,366.15613 276.26263,367.06094 271.21213,368.90314 266.16162,371.98337 261.1111,371.18054 256.0606,377.83716 251.0101,371.94748 245.9596,379.1251 240.90909,373.8858 235.85858,373.22284 230.80807,371.66098 225.75757,382.7582 220.70706,383.05127 215.65657,368.5501 210.60606,366.76956 205.55556,369.3217 200.50505,372.35663 195.45454,378.17313 190.40404,378.9789 185.35353,377.75537 180.30302,382.57462 175.25253,385.95013 170.20203,388.80655 165.15152,391.89487 160.10101,394.64575 155.0505,397.4396 150,400 " stroke="black"/>
<text alignment-baseline="middle" class="poloto_text" font-size="large" text-anchor="start" x="675" y="350">
indirect_seq
</text>
<line class="poloto5stroke" x1="680" x2="730" y1="331.25" y2="331.25"/>
<polyline class="poloto5stroke" fill="none" points="650,100 644.94946,106.35449 639.899,109.691315 634.8485,113.12695 629.798,115.834045 624.7475,119.11801 619.697,122.62247 614.6465,126.462585 609.59595,129.15015 604.5455,132.33917 599.495,136.09082 594.44446,140.67068 589.3939,143.04999 584.34344,145.99971 579.29297,148.48318 574.24243,152.44046 569.1919,156.18484 564.1414,157.68222 559.09094,161.63408 554.0404,165.7098 548.98987,167.58434 543.9394,171.38477 538.8889,174.18689 533.8384,177.48563 528.78784,180.21574 523.73737,183.09744 518.6869,187.02884 513.63635,189.59413 508.58588,194.56007 503.53537,195.63019 498.48486,199.82533 493.43436,201.36359 488.38385,205.4606 483.33334,209.10782 478.28284,211.42879 473.23233,213.78598 468.18182,217.3927 463.13132,220.54616 458.0808,223.77678 453.0303,226.46825 447.9798,230.0461 442.9293,232.19182 437.87878,234.88193 432.82828,237.93109 427.77777,241.85034 422.72726,239.7655 417.67676,242.3567 412.62628,245.51672 407.57578,249.16743 402.52527,252.04404 397.47473,254.57646 392.42426,258.6292 387.37375,261.64236 382.32324,264.2297 377.27274,267.3479 372.22223,270.74493 367.17172,273.2807 362.12122,276.21216 357.0707,280.2882 352.0202,282.45398 346.9697,285.53766 341.9192,288.5296 336.86868,290.92004 331.81818,293.90396 326.7677,296.68387 321.71716,299.71906 316.6667,301.76105 311.61615,306.29916 306.56567,292.56982 301.51514,311.61603 296.46466,314.54004 291.41412,317.7779 286.36365,319.4163 281.31314,322.29764 276.26263,325.92236 271.21213,329.1692 266.16162,331.6529 261.1111,335.26218 256.0606,339.1288 251.0101,341.34595 245.9596,344.91156 240.90909,348.4234 235.85858,351.05057 230.80807,353.94846 225.75757,357.06354 220.70706,359.92148 215.65657,362.19455 210.60606,365.17285 205.55556,367.9439 200.50505,371.1248 195.45454,374.0271 190.40404,376.64642 185.35353,379.6513 180.30302,382.5339 175.25253,385.76828 170.20203,388.67813 165.15152,391.4698 160.10101,394.37796 155.0505,397.31735 150,399.99744 " stroke="black"/>
<text alignment-baseline="start" class="poloto_text" font-size="x-large" text-anchor="middle" x="400" y="37.5">
Bench of query:128_bytes with abspiral(num,1)
</text>
<text alignment-baseline="start" class="poloto_text" font-size="large" text-anchor="middle" x="400" y="481.25">
Number of Elements
</text>
<text alignment-baseline="start" class="poloto_text" font-size="large" text-anchor="middle" transform="rotate(-90,37.5,250)" x="37.5" y="250">
Time in Seconds
</text>
<path class="poloto_axis_lines" d="M150,100 L150,400 L650,400" stroke="black"/>
</svg>