<svg class="poloto" width="800" height="500" viewBox="0 0 800 500" xmlns="http://www.w3.org/2000/svg"><circle  r="1e5" class="poloto_background" /><text  class="poloto_text poloto_legend_text" x="675" y="100" >default_seq</text><line  class="poloto_scatter poloto_legend_icon poloto0stroke poloto0legend" stroke="black" x1="685" x2="685" y1="81.25" y2="81.25" /><path  class="poloto_scatter poloto0stroke" d=" M 650.00 132.26 h 0 M 644.95 159.76 h 0 M 639.90 141.82 h 0 M 634.85 169.03 h 0 M 629.80 163.35 h 0 M 624.75 174.56 h 0 M 619.70 176.10 h 0 M 614.65 177.24 h 0 M 609.60 183.46 h 0 M 604.55 185.49 h 0 M 599.49 186.66 h 0 M 594.44 193.19 h 0 M 589.39 194.57 h 0 M 584.34 189.68 h 0 M 579.29 200.33 h 0 M 574.24 186.69 h 0 M 569.19 205.04 h 0 M 564.14 208.18 h 0 M 559.09 212.14 h 0 M 554.04 196.28 h 0 M 548.99 216.34 h 0 M 543.94 220.73 h 0 M 538.89 206.50 h 0 M 533.84 224.27 h 0 M 528.79 211.46 h 0 M 523.74 216.66 h 0 M 518.69 225.60 h 0 M 513.64 221.06 h 0 M 508.59 230.59 h 0 M 503.54 230.32 h 0 M 498.48 233.45 h 0 M 493.43 234.21 h 0 M 488.38 247.67 h 0 M 483.33 251.17 h 0 M 478.28 242.56 h 0 M 473.23 243.74 h 0 M 468.18 247.98 h 0 M 463.13 261.18 h 0 M 458.08 253.48 h 0 M 453.03 256.28 h 0 M 447.98 259.96 h 0 M 442.93 270.83 h 0 M 437.88 273.22 h 0 M 432.83 275.18 h 0 M 427.78 278.48 h 0 M 422.73 264.63 h 0 M 417.68 278.24 h 0 M 412.63 279.76 h 0 M 407.58 279.89 h 0 M 402.53 287.38 h 0 M 397.47 285.28 h 0 M 392.42 288.45 h 0 M 387.37 292.20 h 0 M 382.32 299.25 h 0 M 377.27 288.92 h 0 M 372.22 299.15 h 0 M 367.17 297.65 h 0 M 362.12 305.37 h 0 M 357.07 307.79 h 0 M 352.02 308.08 h 0 M 346.97 315.81 h 0 M 341.92 317.18 h 0 M 336.87 317.12 h 0 M 331.82 320.39 h 0 M 326.77 320.95 h 0 M 321.72 326.01 h 0 M 316.67 326.19 h 0 M 311.62 328.77 h 0 M 306.57 321.04 h 0 M 301.52 333.58 h 0 M 296.46 335.08 h 0 M 291.41 339.28 h 0 M 286.36 329.97 h 0 M 281.31 324.43 h 0 M 276.26 335.66 h 0 M 271.21 341.60 h 0 M 266.16 338.46 h 0 M 261.11 342.29 h 0 M 256.06 349.59 h 0 M 251.01 351.88 h 0 M 245.96 353.32 h 0 M 240.91 357.09 h 0 M 235.86 359.94 h 0 M 230.81 362.72 h 0 M 225.76 365.95 h 0 M 220.71 368.35 h 0 M 215.66 368.58 h 0 M 210.61 372.70 h 0 M 205.56 373.47 h 0 M 200.51 378.06 h 0 M 195.45 381.20 h 0 M 190.40 383.60 h 0 M 185.35 385.35 h 0 M 180.30 384.63 h 0 M 175.25 387.90 h 0 M 170.20 390.70 h 0 M 165.15 393.07 h 0 M 160.10 395.69 h 0 M 155.05 397.85 h 0 M 150.00 400.00 h 0" /><text  class="poloto_text poloto_legend_text" x="675" y="150" >direct_seq</text><line  class="poloto_scatter poloto_legend_icon poloto1stroke poloto1legend" stroke="black" x1="685" x2="685" y1="131.25" y2="131.25" /><path  class="poloto_scatter poloto1stroke" d=" M 650.00 139.60 h 0 M 644.95 174.93 h 0 M 639.90 172.19 h 0 M 634.85 181.30 h 0 M 629.80 185.99 h 0 M 624.75 173.47 h 0 M 619.70 185.57 h 0 M 614.65 192.49 h 0 M 609.60 196.13 h 0 M 604.55 198.27 h 0 M 599.49 201.20 h 0 M 594.44 203.84 h 0 M 589.39 194.59 h 0 M 584.34 207.80 h 0 M 579.29 206.90 h 0 M 574.24 203.16 h 0 M 569.19 201.51 h 0 M 564.14 219.49 h 0 M 559.09 215.27 h 0 M 554.04 223.51 h 0 M 548.99 227.57 h 0 M 543.94 231.19 h 0 M 538.89 221.15 h 0 M 533.84 221.22 h 0 M 528.79 227.34 h 0 M 523.74 240.32 h 0 M 518.69 230.53 h 0 M 513.64 227.71 h 0 M 508.59 247.87 h 0 M 503.54 239.44 h 0 M 498.48 252.71 h 0 M 493.43 243.62 h 0 M 488.38 246.83 h 0 M 483.33 243.94 h 0 M 478.28 252.03 h 0 M 473.23 255.34 h 0 M 468.18 265.20 h 0 M 463.13 260.13 h 0 M 458.08 272.73 h 0 M 453.03 273.51 h 0 M 447.98 269.22 h 0 M 442.93 270.50 h 0 M 437.88 278.24 h 0 M 432.83 276.01 h 0 M 427.78 285.46 h 0 M 422.73 287.26 h 0 M 417.68 291.46 h 0 M 412.63 291.77 h 0 M 407.58 295.16 h 0 M 402.53 293.36 h 0 M 397.47 293.18 h 0 M 392.42 295.40 h 0 M 387.37 298.86 h 0 M 382.32 303.19 h 0 M 377.27 308.46 h 0 M 372.22 308.73 h 0 M 367.17 308.35 h 0 M 362.12 310.17 h 0 M 357.07 312.61 h 0 M 352.02 317.55 h 0 M 346.97 319.56 h 0 M 341.92 321.75 h 0 M 336.87 324.25 h 0 M 331.82 324.18 h 0 M 326.77 315.53 h 0 M 321.72 317.30 h 0 M 316.67 332.20 h 0 M 311.62 331.93 h 0 M 306.57 325.96 h 0 M 301.52 337.36 h 0 M 296.46 336.74 h 0 M 291.41 337.26 h 0 M 286.36 333.32 h 0 M 281.31 340.19 h 0 M 276.26 340.48 h 0 M 271.21 340.44 h 0 M 266.16 343.65 h 0 M 261.11 344.00 h 0 M 256.06 351.22 h 0 M 251.01 352.18 h 0 M 245.96 358.09 h 0 M 240.91 358.07 h 0 M 235.86 360.28 h 0 M 230.81 362.29 h 0 M 225.76 368.12 h 0 M 220.71 367.66 h 0 M 215.66 370.08 h 0 M 210.61 375.30 h 0 M 205.56 375.21 h 0 M 200.51 376.09 h 0 M 195.45 380.00 h 0 M 190.40 383.05 h 0 M 185.35 385.20 h 0 M 180.30 385.65 h 0 M 175.25 388.41 h 0 M 170.20 391.25 h 0 M 165.15 393.73 h 0 M 160.10 395.90 h 0 M 155.05 398.03 h 0 M 150.00 399.99 h 0" /><text  class="poloto_text poloto_legend_text" x="675" y="200" >indirect_seq</text><line  class="poloto_scatter poloto_legend_icon poloto2stroke poloto2legend" stroke="black" x1="685" x2="685" y1="181.25" y2="181.25" /><path  class="poloto_scatter poloto2stroke" d=" M 650.00 100.00 h 0 M 644.95 138.74 h 0 M 639.90 135.41 h 0 M 634.85 155.29 h 0 M 629.80 133.94 h 0 M 624.75 136.40 h 0 M 619.70 164.44 h 0 M 614.65 147.18 h 0 M 609.60 148.01 h 0 M 604.55 173.03 h 0 M 599.49 177.21 h 0 M 594.44 158.00 h 0 M 589.39 161.55 h 0 M 584.34 175.30 h 0 M 579.29 165.34 h 0 M 574.24 187.14 h 0 M 569.19 188.09 h 0 M 564.14 186.72 h 0 M 559.09 184.16 h 0 M 554.04 204.02 h 0 M 548.99 206.89 h 0 M 543.94 206.78 h 0 M 538.89 208.56 h 0 M 533.84 214.41 h 0 M 528.79 201.67 h 0 M 523.74 216.94 h 0 M 518.69 216.14 h 0 M 513.64 219.88 h 0 M 508.59 223.05 h 0 M 503.54 233.53 h 0 M 498.48 223.05 h 0 M 493.43 224.34 h 0 M 488.38 226.73 h 0 M 483.33 237.19 h 0 M 478.28 233.06 h 0 M 473.23 235.53 h 0 M 468.18 239.47 h 0 M 463.13 243.07 h 0 M 458.08 253.65 h 0 M 453.03 257.73 h 0 M 447.98 251.90 h 0 M 442.93 266.52 h 0 M 437.88 245.76 h 0 M 432.83 271.48 h 0 M 427.78 273.46 h 0 M 422.73 269.64 h 0 M 417.68 269.41 h 0 M 412.63 261.76 h 0 M 407.58 264.73 h 0 M 402.53 268.34 h 0 M 397.47 279.51 h 0 M 392.42 282.87 h 0 M 387.37 294.78 h 0 M 382.32 285.31 h 0 M 377.27 294.65 h 0 M 372.22 286.53 h 0 M 367.17 285.24 h 0 M 362.12 299.09 h 0 M 357.07 304.68 h 0 M 352.02 311.88 h 0 M 346.97 313.56 h 0 M 341.92 316.17 h 0 M 336.87 305.85 h 0 M 331.82 318.54 h 0 M 326.77 317.26 h 0 M 321.72 307.72 h 0 M 316.67 323.21 h 0 M 311.62 328.89 h 0 M 306.57 326.60 h 0 M 301.52 321.09 h 0 M 296.46 323.39 h 0 M 291.41 324.84 h 0 M 286.36 322.73 h 0 M 281.31 330.65 h 0 M 276.26 334.49 h 0 M 271.21 338.51 h 0 M 266.16 333.53 h 0 M 261.11 341.97 h 0 M 256.06 347.66 h 0 M 251.01 350.15 h 0 M 245.96 352.99 h 0 M 240.91 350.96 h 0 M 235.86 356.45 h 0 M 230.81 356.67 h 0 M 225.76 361.87 h 0 M 220.71 362.74 h 0 M 215.66 369.51 h 0 M 210.61 370.11 h 0 M 205.56 374.77 h 0 M 200.51 377.68 h 0 M 195.45 377.10 h 0 M 190.40 380.23 h 0 M 185.35 382.63 h 0 M 180.30 384.02 h 0 M 175.25 387.93 h 0 M 170.20 390.80 h 0 M 165.15 393.37 h 0 M 160.10 395.78 h 0 M 155.05 397.82 h 0 M 150.00 400.00 h 0" /><text  class="poloto_labels poloto_text poloto_title" x="400" y="37.5" >Bench of query:8_bytes with abspiral(num,1.5)</text><text  class="poloto_labels poloto_text poloto_xname" x="400" y="481.25" >Number of Elements</text><text  class="poloto_labels poloto_text poloto_yname" transform="rotate(-90,37.5,250)" x="37.5" y="250" >Time in Seconds</text><text  class="poloto_tick_labels poloto_text" dominant-baseline="middle" text-anchor="start" x="150" y="70" ></text><line  class="poloto_axis_lines" stroke="black" x1="150" x2="144" y1="400" y2="400" /><text  class="poloto_tick_labels poloto_text" dominant-baseline="middle" text-anchor="end" x="135" y="400" >0e0</text><line  class="poloto_axis_lines" stroke="black" x1="150" x2="144" y1="337.05431834652603" y2="337.05431834652603" /><text  class="poloto_tick_labels poloto_text" dominant-baseline="middle" text-anchor="end" x="135" y="337.05431834652603" >0.001</text><line  class="poloto_axis_lines" stroke="black" x1="150" x2="144" y1="274.10863669305206" y2="274.10863669305206" /><text  class="poloto_tick_labels poloto_text" dominant-baseline="middle" text-anchor="end" x="135" y="274.10863669305206" >0.002</text><line  class="poloto_axis_lines" stroke="black" x1="150" x2="144" y1="211.16295503957815" y2="211.16295503957815" /><text  class="poloto_tick_labels poloto_text" dominant-baseline="middle" text-anchor="end" x="135" y="211.16295503957815" >0.003</text><line  class="poloto_axis_lines" stroke="black" x1="150" x2="144" y1="148.21727338610418" y2="148.21727338610418" /><text  class="poloto_tick_labels poloto_text" dominant-baseline="middle" text-anchor="end" x="135" y="148.21727338610418" >0.004</text><text  class="poloto_tick_labels poloto_text" dominant-baseline="middle" text-anchor="start" x="440.00000000000006" y="70" ></text><line  class="poloto_axis_lines" stroke="black" x1="150" x2="150" y1="400" y2="405" /><text  class="poloto_tick_labels poloto_text" dominant-baseline="start" text-anchor="middle" x="150" y="430" >0</text><line  class="poloto_axis_lines" stroke="black" x1="234.17508417508418" x2="234.17508417508418" y1="400" y2="405" /><text  class="poloto_tick_labels poloto_text" dominant-baseline="start" text-anchor="middle" x="234.17508417508418" y="430" >5000</text><line  class="poloto_axis_lines" stroke="black" x1="318.35016835016836" x2="318.35016835016836" y1="400" y2="405" /><text  class="poloto_tick_labels poloto_text" dominant-baseline="start" text-anchor="middle" x="318.35016835016836" y="430" >10000</text><line  class="poloto_axis_lines" stroke="black" x1="402.52525252525254" x2="402.52525252525254" y1="400" y2="405" /><text  class="poloto_tick_labels poloto_text" dominant-baseline="start" text-anchor="middle" x="402.52525252525254" y="430" >15000</text><line  class="poloto_axis_lines" stroke="black" x1="486.7003367003367" x2="486.7003367003367" y1="400" y2="405" /><text  class="poloto_tick_labels poloto_text" dominant-baseline="start" text-anchor="middle" x="486.7003367003367" y="430" >20000</text><line  class="poloto_axis_lines" stroke="black" x1="570.8754208754208" x2="570.8754208754208" y1="400" y2="405" /><text  class="poloto_tick_labels poloto_text" dominant-baseline="start" text-anchor="middle" x="570.8754208754208" y="430" >25000</text><path  stroke="black" fill="none" class="poloto_axis_lines" style="stroke-dasharray:8.417508417508419;stroke-dashoffset:-0;" d=" M 150 400 L 650 400" /><path  stroke="black" fill="none" class="poloto_axis_lines" style="stroke-dasharray:6.294568165347395;stroke-dashoffset:-0;" d=" M 150 400 L 150 100" /></svg>