<svg  width="800" class="poloto" height="500" viewBox="0 0 800 500" xmlns="http://www.w3.org/2000/svg" ><rect  class="poloto_background" fill="white" x="0" y="0" width="800" height="500" /><text  class="poloto_text" alignment-baseline="middle" text-anchor="start" font-size="large" x="675" y="100" >default_par</text><line  class="poloto0stroke" stroke="black" x1="680" x2="730" y1="81.25" y2="81.25" /><path  class="poloto0stroke" fill="none" stroke="black" d=" M 650 290.5228960180221 L 644.9494949494949 287.8039916229651 L 639.8989898989898 293.26467442298446 L 634.8484848484848 271.61243970918497 L 629.7979797979798 299.2054227999761 L 624.7474747474747 298.2465904857107 L 619.6969696969697 289.02223108426415 L 614.6464646464647 302.92198038415347 L 609.5959595959596 306.1739141519888 L 604.5454545454545 284.19588715199814 L 599.4949494949494 306.7014595350106 L 594.4444444444445 308.3170717803749 L 589.3939393939394 310.7591790082493 L 584.3434343434344 311.5561614669384 L 579.2929292929293 303.3696471269065 L 574.2424242424242 311.93022729453855 L 569.1919191919192 311.50435219529163 L 564.1414141414141 310.380639399532 L 559.090909090909 308.9725528717947 L 554.040404040404 312.38907849008444 L 548.989898989899 317.2572017653637 L 543.939393939394 313.91463785102644 L 538.8888888888889 317.1535832220701 L 533.8383838383838 320.3635211736123 L 528.7878787878788 324.34756757393825 L 523.7373737373737 326.6570488390177 L 518.6868686868687 313.481763449064 L 513.6363636363636 324.1360010217539 L 508.5858585858586 328.377217678555 L 503.5353535353535 326.7182386194585 L 498.4848484848485 328.0513532346039 L 493.4343434343434 323.6689959993333 L 488.3838383838384 330.01137446822736 L 483.3333333333333 331.3123067224334 L 478.2828282828283 332.0558202809967 L 473.2323232323232 332.92481618411966 L 468.1818181818182 332.587334340816 L 463.1313131313131 334.26233242262225 L 458.0808080808081 335.8332068568152 L 453.030303030303 337.05014747843506 L 447.979797979798 337.88479628782 L 442.9292929292929 337.0146458605378 L 437.8787878787879 336.68185427163115 L 432.8282828282828 339.91820196331645 L 427.77777777777777 340.5181937373318 L 422.72727272727275 332.70004476186375 L 417.67676767676767 330.63799245566565 L 412.62626262626264 337.9475013812198 L 407.57575757575756 337.78204363764587 L 402.52525252525254 337.54255203235937 L 397.47474747474746 338.8359798795302 L 392.4242424242424 340.09491631744316 L 387.37373737373736 340.5495102051517 L 382.32323232323233 338.5273611402081 L 377.27272727272725 335.8466282001666 L 372.22222222222223 343.9311836253838 L 367.1717171717172 345.92086169834835 L 362.1212121212121 345.58886384480115 L 357.07070707070704 348.5967600684729 L 352.020202020202 349.77690023251637 L 346.969696969697 348.60166679614974 L 341.9191919191919 354.96230117831215 L 336.86868686868684 354.17989458713373 L 331.8181818181818 353.1867873368904 L 326.7676767676768 356.1939619829626 L 321.7171717171717 357.14925856699017 L 316.66666666666663 355.47592011366294 L 311.6161616161616 359.70054048567465 L 306.5656565656566 357.05566995233016 L 301.5151515151515 362.43972121127865 L 296.4646464646464 363.30106839184646 L 291.4141414141414 360.4530737642322 L 286.3636363636364 353.2424931275747 L 281.3131313131313 356.9377641725658 L 276.26262626262627 359.89031539435297 L 271.2121212121212 358.8822714877992 L 266.16161616161617 362.904056396581 L 261.1111111111111 364.0731564233515 L 256.06060606060606 364.43654290247855 L 251.010101010101 365.9893057389231 L 245.95959595959596 367.22652269109 L 240.9090909090909 369.20458336470193 L 235.85858585858585 369.99615399139446 L 230.8080808080808 376.74918227218535 L 225.75757575757575 372.6532913439311 L 220.7070707070707 377.80485030030854 L 215.65656565656565 378.9442213299782 L 210.6060606060606 379.4029282100041 L 205.55555555555554 381.84395307147923 L 200.50505050505052 381.91697672455246 L 195.45454545454544 383.9547118656461 L 190.40404040404042 383.3270836695684 L 185.35353535353534 385.374415792736 L 180.3030303030303 386.4217856784645 L 175.25252525252526 388.1567468587923 L 170.2020202020202 390.26101145456335 L 165.15151515151516 393.1694021272589 L 160.1010101010101 395.462287107549 L 155.05050505050505 397.9372982739623 L 150 400" /><text  class="poloto_text" alignment-baseline="middle" text-anchor="start" font-size="large" x="675" y="150" >default_seq</text><line  class="poloto1stroke" stroke="black" x1="680" x2="730" y1="131.25" y2="131.25" /><path  class="poloto1stroke" fill="none" stroke="black" d=" M 650 137.2121175969446 L 644.9494949494949 144.1876804094328 L 639.8989898989898 161.39492495232176 L 634.8484848484848 100 L 629.7979797979798 150.5156994840961 L 624.7474747474747 153.93222510238587 L 619.6969696969697 169.18197393324976 L 614.6464646464647 160.93650670333565 L 609.5959595959596 165.8539137286633 L 604.5454545454545 131.3224569140002 L 599.4949494949494 168.40764901118618 L 594.4444444444445 175.72466234377546 L 589.3939393939394 178.77195670438195 L 584.3434343434344 181.07119156754797 L 579.2929292929293 183.24898492071188 L 574.2424242424242 186.12555402126782 L 569.1919191919192 191.20899605224895 L 564.1414141414141 193.82659095233092 L 559.090909090909 197.0307562830768 L 554.040404040404 206.18440107976875 L 548.989898989899 216.99449941395875 L 543.939393939394 207.13738861547782 L 538.8888888888889 197.42264507738562 L 533.8383838383838 222.5875917034932 L 528.7878787878788 228.5893133876457 L 523.7373737373737 227.74052165730984 L 518.6868686868687 236.3998857983186 L 513.6363636363636 220.496099031234 L 508.5858585858586 224.2059459437357 L 503.5353535353535 233.08719519660227 L 498.4848484848485 245.38922737559582 L 493.4343434343434 235.84246710267595 L 488.3838383838384 249.54565866445128 L 483.3333333333333 242.34741700474584 L 478.2828282828283 243.11286652233514 L 473.2323232323232 246.22531934017982 L 468.1818181818182 254.51581301230507 L 463.1313131313131 253.8469105775339 L 458.0808080808081 266.5195450116498 L 453.030303030303 269.85864535350925 L 447.979797979798 259.44981632242207 L 442.9292929292929 264.0590375549872 L 437.8787878787879 257.07366128714534 L 432.8282828282828 261.9461140280217 L 427.77777777777777 266.9657685992038 L 422.72727272727275 264.8449077186434 L 417.67676767676767 270.6006435991136 L 412.62626262626264 274.53295288555273 L 407.57575757575756 279.14246274915774 L 402.52525252525254 281.3818066715622 L 397.47474747474746 282.67646120065217 L 392.4242424242424 288.39214952434804 L 387.37373737373736 289.9029887022595 L 382.32323232323233 295.3115014418323 L 377.27272727272725 297.2856655964067 L 372.22222222222223 299.87771664946507 L 367.1717171717172 299.0268323440905 L 362.1212121212121 302.7614293682564 L 357.07070707070704 303.6522890726453 L 352.020202020202 303.94799157293573 L 346.969696969697 304.1885655446215 L 341.9191919191919 303.1836965795057 L 336.86868686868684 316.2757119144728 L 331.8181818181818 316.31604810228697 L 326.7676767676768 315.4049120673511 L 321.7171717171717 322.3578895009738 L 316.66666666666663 326.6261653177575 L 311.6161616161616 326.87467664303824 L 306.5656565656566 327.01394111974895 L 301.5151515151515 332.08136412802037 L 296.4646464646464 334.6712504482801 L 291.4141414141414 328.8336876680223 L 286.3636363636364 337.6992786869789 L 281.3131313131313 337.6738791554752 L 276.26262626262627 342.10725192703313 L 271.2121212121212 344.3735828516602 L 266.16161616161617 348.53932249154974 L 261.1111111111111 350.8025506324988 L 256.06060606060606 351.02970326083323 L 251.010101010101 347.15598607547656 L 245.95959595959596 356.66868788569826 L 240.9090909090909 357.1748024140138 L 235.85858585858585 362.58995366750236 L 230.8080808080808 364.1205640716411 L 225.75757575757575 365.05067759744486 L 220.7070707070707 369.18625529367364 L 215.65656565656565 369.37206152555456 L 210.6060606060606 372.67695908919586 L 205.55555555555554 373.42112206759884 L 200.50505050505052 375.3848955047399 L 195.45454545454544 378.91557469927653 L 190.40404040404042 380.4900570214672 L 185.35353535353534 384.86144627722484 L 180.3030303030303 385.8709333389777 L 175.25252525252526 387.4161196106271 L 170.2020202020202 388.1935473163687 L 165.15151515151516 392.9511970611588 L 160.1010101010101 395.6428979807132 L 155.05050505050505 397.78107672366247 L 150 399.9998556844801" /><text  class="poloto_text" alignment-baseline="middle" text-anchor="start" font-size="large" x="675" y="200" >direct_par</text><line  class="poloto2stroke" stroke="black" x1="680" x2="730" y1="181.25" y2="181.25" /><path  class="poloto2stroke" fill="none" stroke="black" d=" M 650 232.17887331430455 L 644.9494949494949 296.66366570560547 L 639.8989898989898 290.716495287978 L 634.8484848484848 308.068849086134 L 629.7979797979798 297.77886388569055 L 624.7474747474747 305.95080235821183 L 619.6969696969697 306.78198759511895 L 614.6464646464647 308.42862767726336 L 609.5959595959596 298.22068584988733 L 604.5454545454545 303.0253824541672 L 599.4949494949494 303.0839745552496 L 594.4444444444445 304.1935444300583 L 589.3939393939394 312.06725488069077 L 584.3434343434344 316.53497474598663 L 579.2929292929293 305.91674389551366 L 574.2424242424242 319.4687649501859 L 569.1919191919192 308.6453895881644 L 564.1414141414141 318.2067978863549 L 559.090909090909 309.57153443717067 L 554.040404040404 317.24926441176876 L 548.989898989899 321.9336740302057 L 543.939393939394 314.76465626328155 L 538.8888888888889 324.29583046005143 L 533.8383838383838 324.8321790897876 L 528.7878787878788 328.1428492742252 L 523.7373737373737 329.7613478299877 L 518.6868686868687 330.9642176884165 L 513.6363636363636 330.0191675063024 L 508.5858585858586 332.66360509308714 L 503.5353535353535 333.4790599383244 L 498.4848484848485 330.1584319830131 L 493.4343434343434 334.6489537004544 L 488.3838383838384 335.808528902911 L 483.3333333333333 337.31020404530835 L 478.2828282828283 337.0411999162008 L 473.2323232323232 338.60976530207523 L 468.1818181818182 337.88270371278134 L 463.1313131313131 337.99281645447076 L 458.0808080808081 339.00468472230204 L 453.030303030303 341.93060973066633 L 447.979797979798 340.88547673549635 L 442.9292929292929 343.16450742587534 L 437.8787878787879 344.27580908692295 L 432.8282828282828 331.3177907121899 L 427.77777777777777 342.3594432980714 L 422.72727272727275 335.5774797555391 L 417.67676767676767 334.8832499470242 L 412.62626262626264 340.21780098264435 L 407.57575757575756 339.4451356890597 L 402.52525252525254 340.6025461587177 L 397.47474747474746 342.1868419362621 L 392.4242424242424 343.38754706189235 L 387.37373737373736 344.25365665461715 L 382.32323232323233 346.22111013751584 L 377.27272727272725 347.7645646229264 L 372.22222222222223 348.01018963780894 L 367.1717171717172 348.8265825339256 L 362.1212121212121 349.79811461394274 L 357.07070707070704 348.84563218255335 L 352.020202020202 352.1519007436338 L 346.969696969697 352.1384072425225 L 341.9191919191919 355.5402126777817 L 336.86868686868684 354.67872118169396 L 331.8181818181818 355.5809818121555 L 326.7676767676768 352.04063347778515 L 321.7171717171717 358.76963322451144 L 316.66666666666663 360.3088304020847 L 311.6161616161616 362.1869525781607 L 306.5656565656566 359.024494432668 L 301.5151515151515 359.63704165691536 L 296.4646464646464 358.22614097653985 L 291.4141414141414 365.21757849621787 L 286.3636363636364 359.5648117392017 L 281.3131313131313 359.87429637164325 L 276.26262626262627 364.91898968552925 L 271.2121212121212 369.8943393920997 L 266.16161616161617 370.3138646084708 L 261.1111111111111 363.25604194963535 L 256.06060606060606 368.99691333155505 L 251.010101010101 366.62725249467417 L 245.95959595959596 375.274061185451 L 240.9090909090909 371.9695244106094 L 235.85858585858585 373.6801684258328 L 230.8080808080808 373.8557282558002 L 225.75757575757575 353.35729612366106 L 220.7070707070707 376.68943564694365 L 215.65656565656565 379.509216590416 L 210.6060606060606 380.81253005070045 L 205.55555555555554 381.46801114212025 L 200.50505050505052 383.2415767240233 L 195.45454545454544 384.449353310129 L 190.40404040404042 385.09126874267747 L 185.35353535353534 386.0391330774298 L 180.3030303030303 387.86313693354055 L 175.25252525252526 389.67068882038177 L 170.2020202020202 391.4505321274008 L 165.15151515151516 393.5114299094396 L 160.1010101010101 396.1044911711373 L 155.05050505050505 398.1755631973296 L 150 400" /><text  class="poloto_text" alignment-baseline="middle" text-anchor="start" font-size="large" x="675" y="250" >direct_seq</text><line  class="poloto3stroke" stroke="black" x1="680" x2="730" y1="231.25" y2="231.25" /><path  class="poloto3stroke" fill="none" stroke="black" d=" M 650 170.14275450703383 L 644.9494949494949 194.05302200306576 L 639.8989898989898 196.87215352669853 L 634.8484848484848 195.12701810221725 L 629.7979797979798 194.28688530307582 L 624.7474747474747 201.91525936986557 L 619.6969696969697 205.2600601747613 L 614.6464646464647 208.1357633821978 L 609.5959595959596 209.95688092791033 L 604.5454545454545 210.45462515607124 L 599.4949494949494 172.70817934666923 L 594.4444444444445 216.6484307972206 L 589.3939393939394 218.82052368734813 L 584.3434343434344 221.19595714502532 L 579.2929292929293 224.63622266633988 L 574.2424242424242 215.68231054919997 L 569.1919191919192 229.78251410624077 L 564.1414141414141 232.85939314842827 L 559.090909090909 229.74455912450512 L 554.040404040404 237.60694080682478 L 548.989898989899 238.92078930006252 L 543.939393939394 240.6263101143292 L 538.8888888888889 236.64103703208403 L 533.8383838383838 244.9932255889697 L 528.7878787878788 246.42728891029034 L 523.7373737373737 249.81386905819934 L 518.6868686868687 252.6910154208349 L 513.6363636363636 253.6292827735134 L 508.5858585858586 256.90914159445083 L 503.5353535353535 255.71088983265898 L 498.4848484848485 259.90621415412943 L 493.4343434343434 261.6996952777797 L 488.3838383838384 265.2929352501962 L 483.3333333333333 265.28882225787885 L 478.2828282828283 270.5240842158027 L 473.2323232323232 271.3567126079089 L 468.1818181818182 271.0672156749745 L 463.1313131313131 266.63607979397517 L 458.0808080808081 275.9229278155417 L 453.030303030303 277.37423684149127 L 447.979797979798 279.0550075440938 L 442.9292929292929 282.2733879535506 L 437.8787878787879 284.6946415887984 L 432.8282828282828 284.4830028788541 L 427.77777777777777 286.93362472240307 L 422.72727272727275 282.9098193963426 L 417.67676767676767 286.14934202946586 L 412.62626262626264 287.1563035696203 L 407.57575757575756 290.47556052749246 L 402.52525252525254 292.2350553462045 L 397.47474747474746 295.18378220671417 L 392.4242424242424 296.8163515256676 L 387.37373737373736 298.8276769266182 L 382.32323232323233 300.09375698276654 L 377.27272727272725 302.4132681764796 L 372.22222222222223 305.0310795498414 L 367.1717171717172 307.2055536460474 L 362.1212121212121 308.4235766340666 L 357.07070707070704 312.328971076043 L 352.020202020202 313.74008822969836 L 346.969696969697 316.4815780036209 L 341.9191919191919 316.3255007688409 L 336.86868686868684 321.0505352061319 L 331.8181818181818 322.9775803434565 L 326.7676767676768 324.8198401128355 L 321.7171717171717 327.6250451887972 L 316.66666666666663 330.47332844745125 L 311.6161616161616 331.8301829656214 L 306.5656565656566 334.48876347335704 L 301.5151515151515 336.70638791001545 L 296.4646464646464 338.9535970282548 L 291.4141414141414 339.69480153849963 L 286.3636363636364 343.8294411838491 L 281.3131313131313 344.2079807925664 L 276.26262626262627 348.36130929774384 L 271.2121212121212 345.8707842129404 L 266.16161616161617 352.614937089257 L 261.1111111111111 354.2311265967009 L 256.06060606060606 355.5244101283518 L 251.010101010101 358.23111986197665 L 245.95959595959596 360.5276848880244 L 240.9090909090909 363.7059455829469 L 235.85858585858585 364.956872509505 L 230.8080808080808 368.11774318427865 L 225.75757575757575 369.46702113765366 L 220.7070707070707 371.9101385741675 L 215.65656565656565 372.13245663258493 L 210.6060606060606 374.4614204928519 L 205.55555555555554 376.98795229987223 L 200.50505050505052 379.01147236225506 L 195.45454545454544 380.9753179571561 L 190.40404040404042 382.7247106894746 L 185.35353535353534 384.177895817183 L 180.3030303030303 386.64684573176027 L 175.25252525252526 389.5063856009671 L 170.2020202020202 391.02739902303205 L 165.15151515151516 393.187946671567 L 160.1010101010101 395.8463107060228 L 155.05050505050505 398.0453184406131 L 150 399.99978352672014" /><text  class="poloto_text" alignment-baseline="middle" text-anchor="start" font-size="large" x="675" y="300" >indirect_par</text><line  class="poloto4stroke" stroke="black" x1="680" x2="730" y1="281.25" y2="281.25" /><path  class="poloto4stroke" fill="none" stroke="black" d=" M 650 276.71500354655393 L 644.9494949494949 276.3208057039266 L 639.8989898989898 284.962058247187 L 634.8484848484848 268.99325733838407 L 629.7979797979798 288.92546752816617 L 624.7474747474747 286.16788657377396 L 619.6969696969697 293.22347234205085 L 614.6464646464647 289.2060168988663 L 609.5959595959596 297.1184760665939 L 604.5454545454545 289.9608592257424 L 599.4949494949494 295.0830499738188 L 594.4444444444445 296.1576233350499 L 589.3939393939394 299.51743295401604 L 584.3434343434344 302.7133723001272 L 579.2929292929293 299.15960262240543 L 574.2424242424242 298.5313971642481 L 569.1919191919192 302.18156960926814 L 564.1414141414141 306.4050354571206 L 559.090909090909 292.1555374947355 L 554.040404040404 300.8055932847102 L 548.989898989899 294.1356907433861 L 543.939393939394 310.6587354063937 L 538.8888888888889 313.11224356034086 L 533.8383838383838 314.49774470921267 L 528.7878787878788 314.3404407925135 L 523.7373737373737 316.95320112267854 L 518.6868686868687 318.8723810641682 L 513.6363636363636 317.6285255980856 L 508.5858585858586 319.36016752145554 L 503.5353535353535 318.6774107967732 L 498.4848484848485 318.68174026237045 L 493.4343434343434 315.1807179071748 L 488.3838383838384 324.9753400855358 L 483.3333333333333 326.5627386467582 L 478.2828282828283 324.1466082124671 L 473.2323232323232 327.4313737610813 L 468.1818181818182 326.50349712583613 L 463.1313131313131 329.2012592972267 L 458.0808080808081 331.0255517843772 L 453.030303030303 329.66985179036635 L 447.979797979798 332.57853109410166 L 442.9292929292929 334.1156356966363 L 437.8787878787879 333.29347017972333 L 432.8282828282828 328.28817500277205 L 427.77777777777777 334.8423364971304 L 422.72727272727275 325.2469418940017 L 417.67676767676767 326.79039637941224 L 412.62626262626264 324.2234562268178 L 407.57575757575756 328.57832135554605 L 402.52525252525254 332.8001997326796 L 397.47474747474746 332.3217216264263 L 392.4242424242424 333.7956881890014 L 387.37373737373736 333.59148172833227 L 382.32323232323233 336.7204586732064 L 377.27272727272725 338.50427065702286 L 372.22222222222223 337.894104638854 L 367.1717171717172 338.94291767978166 L 362.1212121212121 339.5243649094889 L 357.07070707070704 338.7733469438904 L 352.020202020202 343.5154106125304 L 346.969696969697 343.84214094960095 L 341.9191919191919 347.3641612129431 L 336.86868686868684 346.7658290674067 L 331.8181818181818 346.19679297241146 L 326.7676767676768 344.86973960910217 L 321.7171717171717 351.8955963802781 L 316.66666666666663 352.5707765401653 L 311.6161616161616 350.1432451798015 L 306.5656565656566 343.54932475970867 L 301.5151515151515 354.1481451727541 L 296.4646464646464 351.2424243371769 L 291.4141414141414 355.19068048856576 L 286.3636363636364 360.3162626513599 L 281.3131313131313 358.9726130032613 L 276.26262626262627 360.2668345857916 L 271.2121212121212 354.4195305079401 L 266.16161616161617 358.4355427959256 L 261.1111111111111 356.88646000523863 L 256.06060606060606 363.7330769006895 L 251.010101010101 365.43722671751704 L 245.95959595959596 364.0259652483418 L 240.9090909090909 363.6469926930647 L 235.85858585858585 367.05608606207926 L 230.8080808080808 377.38633529257686 L 225.75757575757575 369.51074874018565 L 220.7070707070707 374.3725942903489 L 215.65656565656565 377.4168580250373 L 210.6060606060606 378.58898867772587 L 205.55555555555554 380.7137460773238 L 200.50505050505052 381.07208151325403 L 195.45454545454544 382.18201217686254 L 190.40404040404042 383.40378736839926 L 185.35353535353534 385.09444368411545 L 180.3030303030303 385.69825981940835 L 175.25252525252526 389.11442464889836 L 170.2020202020202 391.0646324271682 L 165.15151515151516 392.7732560251128 L 160.1010101010101 395.70379913011413 L 155.05050505050505 397.88534468679563 L 150 399.99992784224" /><text  class="poloto_text" alignment-baseline="middle" text-anchor="start" font-size="large" x="675" y="350" >indirect_seq</text><line  class="poloto5stroke" stroke="black" x1="680" x2="730" y1="331.25" y2="331.25" /><path  class="poloto5stroke" fill="none" stroke="black" d=" M 650 125.28198651275261 L 644.9494949494949 136.7713779991471 L 639.8989898989898 147.78077606632934 L 634.8484848484848 149.86296038755455 L 629.7979797979798 141.31522430119423 L 624.7474747474747 150.98869360059288 L 619.6969696969697 163.9070973651113 L 614.6464646464647 117.33770577288539 L 609.5959595959596 157.21114587244386 L 604.5454545454545 161.81618195493172 L 599.4949494949494 182.47732983576657 L 594.4444444444445 166.85091749794412 L 589.3939393939394 166.57051244276389 L 584.3434343434344 195.05774665266165 L 579.2929292929293 187.33881459713 L 574.2424242424242 184.44276290138657 L 569.1919191919192 184.48771718583774 L 564.1414141414141 191.0194376168505 L 559.090909090909 182.19504867882753 L 554.040404040404 211.06717238031857 L 548.989898989899 193.11129107790947 L 543.939393939394 213.7655839715487 L 538.8888888888889 202.19479853192635 L 533.8383838383838 216.3852714466693 L 528.7878787878788 227.66533327143802 L 523.7373737373737 209.3588374134137 L 518.6868686868687 214.71683972101886 L 513.6363636363636 214.1066015450901 L 508.5858585858586 217.2674000621038 L 503.5353535353535 221.86312779355762 L 498.4848484848485 223.19458278022407 L 493.4343434343434 244.36949391192954 L 488.3838383838384 235.86599053242085 L 483.3333333333333 231.55506947950445 L 478.2828282828283 238.342877800593 L 473.2323232323232 255.01052661454793 L 468.1818181818182 243.04936769357585 L 463.1313131313131 256.83142768698065 L 458.0808080808081 252.85589590232922 L 453.030303030303 248.61821497576585 L 447.979797979798 264.1554403222854 L 442.9292929292929 266.2348826486324 L 437.8787878787879 259.37917387542734 L 432.8282828282828 256.54308527820547 L 427.77777777777777 261.99662445998933 L 422.72727272727275 263.60408287847883 L 417.67676767676767 261.3206505647427 L 412.62626262626264 265.7709082521298 L 407.57575757575756 270.19425109505414 L 402.52525252525254 261.5257950762912 L 397.47474747474746 274.79640086714386 L 392.4242424242424 275.08048596808175 L 387.37373737373736 282.14148356835517 L 382.32323232323233 288.4028288728212 L 377.27272727272725 285.11330091205 L 372.22222222222223 290.2689728607449 L 367.1717171717172 295.29901814936034 L 362.1212121212121 296.3256066002222 L 357.07070707070704 299.56065545222833 L 352.020202020202 303.2809652399234 L 346.969696969697 301.71499753340726 L 341.9191919191919 307.3318297259665 L 336.86868686868684 305.74508058458366 L 331.8181818181818 305.18253868798433 L 326.7676767676768 314.1521811967942 L 321.7171717171717 319.26578517143605 L 316.66666666666663 318.4988203408877 L 311.6161616161616 321.6998107301956 L 306.5656565656566 326.76009012023167 L 301.5151515151515 328.5508292490037 L 296.4646464646464 331.49926747847354 L 291.4141414141414 331.65628276413287 L 286.3636363636364 334.3207080504248 L 281.3131313131313 336.3507944689634 L 276.26262626262627 340.06056922370516 L 271.2121212121212 343.31098767858145 L 266.16161616161617 345.9871025219859 L 261.1111111111111 347.125607658536 L 256.06060606060606 349.6065357612656 L 251.010101010101 352.5517268915375 L 245.95959595959596 351.84393142415126 L 240.9090909090909 357.49200792677044 L 235.85858585858585 361.1617351247379 L 230.8080808080808 363.800977352806 L 225.75757575757575 363.70089453975015 L 220.7070707070707 368.1072081513254 L 215.65656565656565 369.17615320728015 L 210.6060606060606 371.16063592152796 L 205.55555555555554 373.8144540171067 L 200.50505050505052 375.36173286379477 L 195.45454545454544 377.7475570389053 L 190.40404040404042 379.4590669472481 L 185.35353535353534 382.9874370934662 L 180.3030303030303 385.146613744562 L 175.25252525252526 388.3885897415237 L 170.2020202020202 390.8046480180548 L 165.15151515151516 392.94181655236474 L 160.1010101010101 395.7931304369369 L 155.05050505050505 397.81636186827984 L 150 400" /><text  class="poloto_text" alignment-baseline="start" text-anchor="middle" font-size="x-large" x="400" y="37.5" >Bench of query:128_bytes with abspiral(num,1.5)</text><text  class="poloto_text" alignment-baseline="start" text-anchor="middle" font-size="x-large" x="400" y="481.25" >Number of Elements</text><text  class="poloto_text" alignment-baseline="start" text-anchor="middle" font-size="x-large" transform="rotate(-90,37.5,250)" x="37.5" y="250" >Time in Seconds</text><path  stroke="black" fill="none" class="poloto_axis_lines" d=" M 150 100 L 150 400 L 650 400" /><line  class="poloto_axis_lines" stroke="black" x1="150" x2="150" y1="400" y2="405" /><text  class="poloto_text" alignment-baseline="start" text-anchor="middle" x="150" y="430" > 0</text><line  class="poloto_axis_lines" stroke="black" x1="234.17508417508418" x2="234.17508417508418" y1="400" y2="405" /><text  class="poloto_text" alignment-baseline="start" text-anchor="middle" x="234.17508417508418" y="430" > 5000</text><line  class="poloto_axis_lines" stroke="black" x1="318.35016835016836" x2="318.35016835016836" y1="400" y2="405" /><text  class="poloto_text" alignment-baseline="start" text-anchor="middle" x="318.35016835016836" y="430" > 10000</text><line  class="poloto_axis_lines" stroke="black" x1="402.52525252525254" x2="402.52525252525254" y1="400" y2="405" /><text  class="poloto_text" alignment-baseline="start" text-anchor="middle" x="402.52525252525254" y="430" > 15000</text><line  class="poloto_axis_lines" stroke="black" x1="486.7003367003367" x2="486.7003367003367" y1="400" y2="405" /><text  class="poloto_text" alignment-baseline="start" text-anchor="middle" x="486.7003367003367" y="430" > 20000</text><line  class="poloto_axis_lines" stroke="black" x1="570.8754208754208" x2="570.8754208754208" y1="400" y2="405" /><text  class="poloto_text" alignment-baseline="start" text-anchor="middle" x="570.8754208754208" y="430" > 25000</text><line  class="poloto_axis_lines" stroke="black" x1="150" x2="144" y1="363.9260989085658" y2="363.9260989085658" /><text  class="poloto_text" alignment-baseline="middle" text-anchor="end" x="135" y="363.9260989085658" > 0.0005</text><line  class="poloto_axis_lines" stroke="black" x1="150" x2="144" y1="327.8472189316948" y2="327.8472189316948" /><text  class="poloto_text" alignment-baseline="middle" text-anchor="end" x="135" y="327.8472189316948" > 0.0010</text><line  class="poloto_axis_lines" stroke="black" x1="150" x2="144" y1="291.7683389548237" y2="291.7683389548237" /><text  class="poloto_text" alignment-baseline="middle" text-anchor="end" x="135" y="291.7683389548237" > 0.0015</text><line  class="poloto_axis_lines" stroke="black" x1="150" x2="144" y1="255.68945897795265" y2="255.68945897795265" /><text  class="poloto_text" alignment-baseline="middle" text-anchor="end" x="135" y="255.68945897795265" > 0.0020</text><line  class="poloto_axis_lines" stroke="black" x1="150" x2="144" y1="219.61057900108165" y2="219.61057900108165" /><text  class="poloto_text" alignment-baseline="middle" text-anchor="end" x="135" y="219.61057900108165" > 0.0025</text><line  class="poloto_axis_lines" stroke="black" x1="150" x2="144" y1="183.53169902421064" y2="183.53169902421064" /><text  class="poloto_text" alignment-baseline="middle" text-anchor="end" x="135" y="183.53169902421064" > 0.0030</text><line  class="poloto_axis_lines" stroke="black" x1="150" x2="144" y1="147.4528190473396" y2="147.4528190473396" /><text  class="poloto_text" alignment-baseline="middle" text-anchor="end" x="135" y="147.4528190473396" > 0.0035</text><line  class="poloto_axis_lines" stroke="black" x1="150" x2="144" y1="111.37393907046857" y2="111.37393907046857" /><text  class="poloto_text" alignment-baseline="middle" text-anchor="end" x="135" y="111.37393907046857" > 0.0040</text></svg>