<svg class="poloto" width="800" height="500" viewBox="0 0 800 500" xmlns="http://www.w3.org/2000/svg"><circle  r="1e5" class="poloto_background" /><text  class="poloto_text poloto_legend_text" x="675" y="100" >default_par</text><line  class="poloto_scatter poloto_legend_icon poloto0stroke poloto0legend" stroke="black" x1="685" x2="685" y1="81.25" y2="81.25" /><path  class="poloto_scatter poloto0stroke" d=" M 650.00 286.57 h 0 M 644.95 322.97 h 0 M 639.90 324.96 h 0 M 634.85 311.28 h 0 M 629.80 321.43 h 0 M 624.75 324.89 h 0 M 619.70 329.82 h 0 M 614.65 329.47 h 0 M 609.60 326.60 h 0 M 604.55 322.56 h 0 M 599.49 329.01 h 0 M 594.44 326.52 h 0 M 589.39 326.27 h 0 M 584.34 333.86 h 0 M 579.29 330.36 h 0 M 574.24 326.06 h 0 M 569.19 335.12 h 0 M 564.14 339.37 h 0 M 559.09 336.72 h 0 M 554.04 339.42 h 0 M 548.99 335.83 h 0 M 543.94 337.21 h 0 M 538.89 336.15 h 0 M 533.84 336.70 h 0 M 528.79 333.50 h 0 M 523.74 336.72 h 0 M 518.69 343.90 h 0 M 513.64 346.74 h 0 M 508.59 344.14 h 0 M 503.54 346.69 h 0 M 498.48 347.17 h 0 M 493.43 347.58 h 0 M 488.38 343.95 h 0 M 483.33 323.09 h 0 M 478.28 341.98 h 0 M 473.23 348.57 h 0 M 468.18 345.32 h 0 M 463.13 354.23 h 0 M 458.08 353.59 h 0 M 453.03 347.47 h 0 M 447.98 333.94 h 0 M 442.93 340.04 h 0 M 437.88 336.70 h 0 M 432.83 358.21 h 0 M 427.78 355.72 h 0 M 422.73 358.96 h 0 M 417.68 352.91 h 0 M 412.63 362.45 h 0 M 407.58 363.15 h 0 M 402.53 362.15 h 0 M 397.47 363.37 h 0 M 392.42 363.63 h 0 M 387.37 361.41 h 0 M 382.32 366.38 h 0 M 377.27 365.84 h 0 M 372.22 365.42 h 0 M 367.17 365.21 h 0 M 362.12 361.24 h 0 M 357.07 370.36 h 0 M 352.02 365.11 h 0 M 346.97 364.04 h 0 M 341.92 371.50 h 0 M 336.87 366.93 h 0 M 331.82 370.24 h 0 M 326.77 369.85 h 0 M 321.72 373.77 h 0 M 316.67 371.23 h 0 M 311.62 373.67 h 0 M 306.57 373.04 h 0 M 301.52 376.32 h 0 M 296.46 374.78 h 0 M 291.41 373.84 h 0 M 286.36 374.21 h 0 M 281.31 376.87 h 0 M 276.26 379.55 h 0 M 271.21 379.36 h 0 M 266.16 379.40 h 0 M 261.11 380.57 h 0 M 256.06 380.85 h 0 M 251.01 381.93 h 0 M 245.96 383.43 h 0 M 240.91 384.24 h 0 M 235.86 384.96 h 0 M 230.81 383.24 h 0 M 225.76 387.97 h 0 M 220.71 387.79 h 0 M 215.66 388.52 h 0 M 210.61 385.05 h 0 M 205.56 386.04 h 0 M 200.51 387.38 h 0 M 195.45 387.86 h 0 M 190.40 386.51 h 0 M 185.35 389.87 h 0 M 180.30 393.41 h 0 M 175.25 394.69 h 0 M 170.20 395.48 h 0 M 165.15 397.15 h 0 M 160.10 398.17 h 0 M 155.05 398.80 h 0 M 150.00 399.99 h 0" /><text  class="poloto_text poloto_legend_text" x="675" y="150" >default_seq</text><line  class="poloto_scatter poloto_legend_icon poloto1stroke poloto1legend" stroke="black" x1="685" x2="685" y1="131.25" y2="131.25" /><path  class="poloto_scatter poloto1stroke" d=" M 650.00 210.08 h 0 M 644.95 234.65 h 0 M 639.90 230.26 h 0 M 634.85 231.42 h 0 M 629.80 236.17 h 0 M 624.75 236.71 h 0 M 619.70 240.87 h 0 M 614.65 242.09 h 0 M 609.60 244.77 h 0 M 604.55 244.55 h 0 M 599.49 250.31 h 0 M 594.44 246.96 h 0 M 589.39 251.29 h 0 M 584.34 249.51 h 0 M 579.29 255.70 h 0 M 574.24 257.71 h 0 M 569.19 258.55 h 0 M 564.14 257.15 h 0 M 559.09 260.84 h 0 M 554.04 265.21 h 0 M 548.99 264.37 h 0 M 543.94 268.08 h 0 M 538.89 270.94 h 0 M 533.84 263.98 h 0 M 528.79 270.83 h 0 M 523.74 272.65 h 0 M 518.69 266.70 h 0 M 513.64 274.26 h 0 M 508.59 276.54 h 0 M 503.54 282.30 h 0 M 498.48 278.60 h 0 M 493.43 285.24 h 0 M 488.38 286.38 h 0 M 483.33 285.52 h 0 M 478.28 290.52 h 0 M 473.23 292.95 h 0 M 468.18 289.36 h 0 M 463.13 296.18 h 0 M 458.08 292.82 h 0 M 453.03 297.14 h 0 M 447.98 300.60 h 0 M 442.93 300.67 h 0 M 437.88 304.83 h 0 M 432.83 302.05 h 0 M 427.78 306.05 h 0 M 422.73 313.22 h 0 M 417.68 314.33 h 0 M 412.63 316.76 h 0 M 407.58 319.07 h 0 M 402.53 320.36 h 0 M 397.47 323.07 h 0 M 392.42 322.88 h 0 M 387.37 326.00 h 0 M 382.32 326.74 h 0 M 377.27 328.56 h 0 M 372.22 330.04 h 0 M 367.17 332.48 h 0 M 362.12 333.07 h 0 M 357.07 335.15 h 0 M 352.02 337.11 h 0 M 346.97 339.66 h 0 M 341.92 339.36 h 0 M 336.87 339.07 h 0 M 331.82 344.09 h 0 M 326.77 344.59 h 0 M 321.72 345.12 h 0 M 316.67 348.78 h 0 M 311.62 349.34 h 0 M 306.57 351.44 h 0 M 301.52 353.40 h 0 M 296.46 355.91 h 0 M 291.41 355.59 h 0 M 286.36 360.81 h 0 M 281.31 363.18 h 0 M 276.26 364.17 h 0 M 271.21 365.93 h 0 M 266.16 367.64 h 0 M 261.11 369.72 h 0 M 256.06 370.41 h 0 M 251.01 371.31 h 0 M 245.96 372.23 h 0 M 240.91 374.44 h 0 M 235.86 375.49 h 0 M 230.81 377.82 h 0 M 225.76 379.55 h 0 M 220.71 379.80 h 0 M 215.66 383.08 h 0 M 210.61 384.43 h 0 M 205.56 385.63 h 0 M 200.51 386.72 h 0 M 195.45 387.82 h 0 M 190.40 389.71 h 0 M 185.35 390.35 h 0 M 180.30 392.21 h 0 M 175.25 393.32 h 0 M 170.20 394.54 h 0 M 165.15 396.85 h 0 M 160.10 398.01 h 0 M 155.05 398.68 h 0 M 150.00 399.99 h 0" /><text  class="poloto_text poloto_legend_text" x="675" y="200" >direct_par</text><line  class="poloto_scatter poloto_legend_icon poloto2stroke poloto2legend" stroke="black" x1="685" x2="685" y1="181.25" y2="181.25" /><path  class="poloto_scatter poloto2stroke" d=" M 650.00 298.42 h 0 M 644.95 318.39 h 0 M 639.90 310.06 h 0 M 634.85 308.01 h 0 M 629.80 309.63 h 0 M 624.75 309.40 h 0 M 619.70 322.50 h 0 M 614.65 323.80 h 0 M 609.60 317.35 h 0 M 604.55 316.30 h 0 M 599.49 314.68 h 0 M 594.44 314.63 h 0 M 589.39 322.98 h 0 M 584.34 319.17 h 0 M 579.29 321.19 h 0 M 574.24 317.16 h 0 M 569.19 328.56 h 0 M 564.14 328.61 h 0 M 559.09 325.99 h 0 M 554.04 328.41 h 0 M 548.99 330.79 h 0 M 543.94 328.21 h 0 M 538.89 325.31 h 0 M 533.84 332.32 h 0 M 528.79 339.11 h 0 M 523.74 331.64 h 0 M 518.69 332.19 h 0 M 513.64 336.86 h 0 M 508.59 329.18 h 0 M 503.54 341.13 h 0 M 498.48 334.18 h 0 M 493.43 335.42 h 0 M 488.38 343.24 h 0 M 483.33 346.26 h 0 M 478.28 302.86 h 0 M 473.23 339.92 h 0 M 468.18 341.25 h 0 M 463.13 341.34 h 0 M 458.08 340.39 h 0 M 453.03 346.74 h 0 M 447.98 350.89 h 0 M 442.93 342.85 h 0 M 437.88 348.17 h 0 M 432.83 323.52 h 0 M 427.78 352.68 h 0 M 422.73 346.99 h 0 M 417.68 349.79 h 0 M 412.63 357.12 h 0 M 407.58 360.13 h 0 M 402.53 359.56 h 0 M 397.47 360.56 h 0 M 392.42 357.82 h 0 M 387.37 353.35 h 0 M 382.32 358.74 h 0 M 377.27 358.04 h 0 M 372.22 366.60 h 0 M 367.17 359.10 h 0 M 362.12 360.61 h 0 M 357.07 364.22 h 0 M 352.02 358.63 h 0 M 346.97 365.67 h 0 M 341.92 364.08 h 0 M 336.87 365.02 h 0 M 331.82 365.20 h 0 M 326.77 367.81 h 0 M 321.72 366.98 h 0 M 316.67 366.93 h 0 M 311.62 364.75 h 0 M 306.57 368.47 h 0 M 301.52 372.70 h 0 M 296.46 373.69 h 0 M 291.41 367.25 h 0 M 286.36 373.65 h 0 M 281.31 373.43 h 0 M 276.26 377.84 h 0 M 271.21 377.89 h 0 M 266.16 376.43 h 0 M 261.11 378.24 h 0 M 256.06 378.62 h 0 M 251.01 380.83 h 0 M 245.96 383.34 h 0 M 240.91 380.53 h 0 M 235.86 381.89 h 0 M 230.81 379.87 h 0 M 225.76 385.23 h 0 M 220.71 384.63 h 0 M 215.66 382.56 h 0 M 210.61 387.70 h 0 M 205.56 382.59 h 0 M 200.51 386.00 h 0 M 195.45 386.85 h 0 M 190.40 385.02 h 0 M 185.35 387.13 h 0 M 180.30 392.45 h 0 M 175.25 394.31 h 0 M 170.20 395.26 h 0 M 165.15 397.03 h 0 M 160.10 398.15 h 0 M 155.05 398.65 h 0 M 150.00 399.99 h 0" /><text  class="poloto_text poloto_legend_text" x="675" y="250" >direct_seq</text><line  class="poloto_scatter poloto_legend_icon poloto3stroke poloto3legend" stroke="black" x1="685" x2="685" y1="231.25" y2="231.25" /><path  class="poloto_scatter poloto3stroke" d=" M 650.00 212.62 h 0 M 644.95 217.20 h 0 M 639.90 215.71 h 0 M 634.85 219.96 h 0 M 629.80 219.51 h 0 M 624.75 221.79 h 0 M 619.70 224.39 h 0 M 614.65 227.31 h 0 M 609.60 229.04 h 0 M 604.55 232.15 h 0 M 599.49 234.57 h 0 M 594.44 233.31 h 0 M 589.39 237.68 h 0 M 584.34 233.70 h 0 M 579.29 242.98 h 0 M 574.24 244.50 h 0 M 569.19 246.86 h 0 M 564.14 243.41 h 0 M 559.09 250.29 h 0 M 554.04 253.45 h 0 M 548.99 251.85 h 0 M 543.94 253.95 h 0 M 538.89 259.19 h 0 M 533.84 255.75 h 0 M 528.79 256.57 h 0 M 523.74 259.34 h 0 M 518.69 261.25 h 0 M 513.64 259.04 h 0 M 508.59 261.94 h 0 M 503.54 269.80 h 0 M 498.48 268.22 h 0 M 493.43 272.48 h 0 M 488.38 273.61 h 0 M 483.33 272.67 h 0 M 478.28 218.19 h 0 M 473.23 283.22 h 0 M 468.18 280.38 h 0 M 463.13 285.97 h 0 M 458.08 282.28 h 0 M 453.03 286.98 h 0 M 447.98 290.61 h 0 M 442.93 291.63 h 0 M 437.88 293.66 h 0 M 432.83 264.09 h 0 M 427.78 297.72 h 0 M 422.73 306.58 h 0 M 417.68 309.11 h 0 M 412.63 308.88 h 0 M 407.58 312.36 h 0 M 402.53 312.97 h 0 M 397.47 315.58 h 0 M 392.42 316.43 h 0 M 387.37 318.95 h 0 M 382.32 321.60 h 0 M 377.27 323.65 h 0 M 372.22 322.90 h 0 M 367.17 327.52 h 0 M 362.12 328.18 h 0 M 357.07 329.36 h 0 M 352.02 332.37 h 0 M 346.97 335.73 h 0 M 341.92 333.83 h 0 M 336.87 335.88 h 0 M 331.82 340.24 h 0 M 326.77 340.57 h 0 M 321.72 342.66 h 0 M 316.67 345.08 h 0 M 311.62 346.39 h 0 M 306.57 346.14 h 0 M 301.52 349.99 h 0 M 296.46 352.13 h 0 M 291.41 353.41 h 0 M 286.36 357.62 h 0 M 281.31 359.26 h 0 M 276.26 360.49 h 0 M 271.21 362.80 h 0 M 266.16 363.86 h 0 M 261.11 367.29 h 0 M 256.06 367.37 h 0 M 251.01 370.38 h 0 M 245.96 370.47 h 0 M 240.91 372.32 h 0 M 235.86 372.57 h 0 M 230.81 373.25 h 0 M 225.76 377.78 h 0 M 220.71 377.87 h 0 M 215.66 380.75 h 0 M 210.61 383.66 h 0 M 205.56 385.00 h 0 M 200.51 386.05 h 0 M 195.45 387.20 h 0 M 190.40 388.95 h 0 M 185.35 389.97 h 0 M 180.30 391.87 h 0 M 175.25 393.16 h 0 M 170.20 394.13 h 0 M 165.15 395.78 h 0 M 160.10 397.59 h 0 M 155.05 399.00 h 0 M 150.00 399.98 h 0" /><text  class="poloto_text poloto_legend_text" x="675" y="300" >indirect_par</text><line  class="poloto_scatter poloto_legend_icon poloto4stroke poloto4legend" stroke="black" x1="685" x2="685" y1="281.25" y2="281.25" /><path  class="poloto_scatter poloto4stroke" d=" M 650.00 196.05 h 0 M 644.95 265.04 h 0 M 639.90 251.80 h 0 M 634.85 255.70 h 0 M 629.80 265.89 h 0 M 624.75 260.13 h 0 M 619.70 276.85 h 0 M 614.65 271.98 h 0 M 609.60 257.73 h 0 M 604.55 272.01 h 0 M 599.49 267.78 h 0 M 594.44 263.55 h 0 M 589.39 272.05 h 0 M 584.34 274.35 h 0 M 579.29 273.15 h 0 M 574.24 279.55 h 0 M 569.19 288.72 h 0 M 564.14 287.03 h 0 M 559.09 295.03 h 0 M 554.04 293.35 h 0 M 548.99 289.35 h 0 M 543.94 280.95 h 0 M 538.89 294.30 h 0 M 533.84 303.84 h 0 M 528.79 296.53 h 0 M 523.74 293.92 h 0 M 518.69 300.61 h 0 M 513.64 303.50 h 0 M 508.59 297.98 h 0 M 503.54 301.12 h 0 M 498.48 310.15 h 0 M 493.43 305.39 h 0 M 488.38 315.11 h 0 M 483.33 307.16 h 0 M 478.28 305.98 h 0 M 473.23 306.45 h 0 M 468.18 314.75 h 0 M 463.13 319.96 h 0 M 458.08 314.36 h 0 M 453.03 319.02 h 0 M 447.98 324.88 h 0 M 442.93 318.17 h 0 M 437.88 306.55 h 0 M 432.83 292.94 h 0 M 427.78 327.69 h 0 M 422.73 328.60 h 0 M 417.68 326.83 h 0 M 412.63 338.59 h 0 M 407.58 334.35 h 0 M 402.53 340.43 h 0 M 397.47 331.92 h 0 M 392.42 341.30 h 0 M 387.37 344.69 h 0 M 382.32 334.14 h 0 M 377.27 338.78 h 0 M 372.22 349.36 h 0 M 367.17 349.28 h 0 M 362.12 340.62 h 0 M 357.07 350.84 h 0 M 352.02 344.22 h 0 M 346.97 346.92 h 0 M 341.92 353.74 h 0 M 336.87 349.76 h 0 M 331.82 348.85 h 0 M 326.77 360.13 h 0 M 321.72 357.70 h 0 M 316.67 354.80 h 0 M 311.62 358.17 h 0 M 306.57 358.42 h 0 M 301.52 357.85 h 0 M 296.46 368.09 h 0 M 291.41 359.77 h 0 M 286.36 365.73 h 0 M 281.31 368.76 h 0 M 276.26 373.68 h 0 M 271.21 367.53 h 0 M 266.16 373.06 h 0 M 261.11 375.39 h 0 M 256.06 373.19 h 0 M 251.01 377.30 h 0 M 245.96 379.83 h 0 M 240.91 378.57 h 0 M 235.86 379.35 h 0 M 230.81 379.80 h 0 M 225.76 382.53 h 0 M 220.71 382.42 h 0 M 215.66 381.73 h 0 M 210.61 381.68 h 0 M 205.56 381.71 h 0 M 200.51 385.66 h 0 M 195.45 386.19 h 0 M 190.40 385.39 h 0 M 185.35 387.15 h 0 M 180.30 391.43 h 0 M 175.25 393.59 h 0 M 170.20 394.68 h 0 M 165.15 396.67 h 0 M 160.10 397.98 h 0 M 155.05 398.76 h 0 M 150.00 400.00 h 0" /><text  class="poloto_text poloto_legend_text" x="675" y="350" >indirect_seq</text><line  class="poloto_scatter poloto_legend_icon poloto5stroke poloto5legend" stroke="black" x1="685" x2="685" y1="331.25" y2="331.25" /><path  class="poloto_scatter poloto5stroke" d=" M 650.00 100.00 h 0 M 644.95 122.25 h 0 M 639.90 111.42 h 0 M 634.85 134.08 h 0 M 629.80 122.91 h 0 M 624.75 127.55 h 0 M 619.70 135.25 h 0 M 614.65 139.51 h 0 M 609.60 141.50 h 0 M 604.55 141.17 h 0 M 599.49 150.84 h 0 M 594.44 146.76 h 0 M 589.39 154.91 h 0 M 584.34 153.67 h 0 M 579.29 149.43 h 0 M 574.24 161.13 h 0 M 569.19 169.72 h 0 M 564.14 164.12 h 0 M 559.09 178.48 h 0 M 554.04 183.80 h 0 M 548.99 179.22 h 0 M 543.94 188.22 h 0 M 538.89 192.05 h 0 M 533.84 191.77 h 0 M 528.79 197.76 h 0 M 523.74 194.14 h 0 M 518.69 201.42 h 0 M 513.64 198.08 h 0 M 508.59 204.58 h 0 M 503.54 211.47 h 0 M 498.48 205.82 h 0 M 493.43 219.14 h 0 M 488.38 222.57 h 0 M 483.33 218.15 h 0 M 478.28 176.75 h 0 M 473.23 232.03 h 0 M 468.18 225.81 h 0 M 463.13 236.40 h 0 M 458.08 229.17 h 0 M 453.03 236.99 h 0 M 447.98 244.36 h 0 M 442.93 246.28 h 0 M 437.88 251.56 h 0 M 432.83 221.59 h 0 M 427.78 254.80 h 0 M 422.73 263.24 h 0 M 417.68 266.32 h 0 M 412.63 270.70 h 0 M 407.58 273.13 h 0 M 402.53 276.13 h 0 M 397.47 279.45 h 0 M 392.42 278.28 h 0 M 387.37 284.88 h 0 M 382.32 283.95 h 0 M 377.27 290.52 h 0 M 372.22 291.36 h 0 M 367.17 296.70 h 0 M 362.12 292.49 h 0 M 357.07 297.81 h 0 M 352.02 303.86 h 0 M 346.97 310.89 h 0 M 341.92 307.78 h 0 M 336.87 311.05 h 0 M 331.82 316.34 h 0 M 326.77 316.42 h 0 M 321.72 322.44 h 0 M 316.67 317.00 h 0 M 311.62 326.32 h 0 M 306.57 328.49 h 0 M 301.52 331.37 h 0 M 296.46 334.22 h 0 M 291.41 335.95 h 0 M 286.36 342.38 h 0 M 281.31 344.38 h 0 M 276.26 347.58 h 0 M 271.21 349.33 h 0 M 266.16 351.27 h 0 M 261.11 355.66 h 0 M 256.06 356.48 h 0 M 251.01 359.71 h 0 M 245.96 360.87 h 0 M 240.91 363.73 h 0 M 235.86 365.02 h 0 M 230.81 368.73 h 0 M 225.76 370.93 h 0 M 220.71 371.64 h 0 M 215.66 375.35 h 0 M 210.61 377.62 h 0 M 205.56 380.42 h 0 M 200.51 381.83 h 0 M 195.45 383.93 h 0 M 190.40 386.50 h 0 M 185.35 387.79 h 0 M 180.30 390.42 h 0 M 175.25 392.22 h 0 M 170.20 393.37 h 0 M 165.15 396.21 h 0 M 160.10 397.72 h 0 M 155.05 398.63 h 0 M 150.00 399.99 h 0" /><text  class="poloto_labels poloto_text poloto_title" x="400" y="37.5" >Bench of rebal:16_bytes with abspiral(num,1.5)</text><text  class="poloto_labels poloto_text poloto_xname" x="400" y="481.25" >Number of Elements</text><text  class="poloto_labels poloto_text poloto_yname" transform="rotate(-90,37.5,250)" x="37.5" y="250" >Time in Seconds</text><text  class="poloto_tick_labels poloto_text" dominant-baseline="middle" text-anchor="start" x="150" y="70" ></text><line  class="poloto_axis_lines" stroke="black" x1="150" x2="144" y1="400" y2="400" /><text  class="poloto_tick_labels poloto_text" dominant-baseline="middle" text-anchor="end" x="135" y="400" >0e0</text><line  class="poloto_axis_lines" stroke="black" x1="150" x2="144" y1="333.5884716670711" y2="333.5884716670711" /><text  class="poloto_tick_labels poloto_text" dominant-baseline="middle" text-anchor="end" x="135" y="333.5884716670711" >0.001</text><line  class="poloto_axis_lines" stroke="black" x1="150" x2="144" y1="267.1769433341421" y2="267.1769433341421" /><text  class="poloto_tick_labels poloto_text" dominant-baseline="middle" text-anchor="end" x="135" y="267.1769433341421" >0.002</text><line  class="poloto_axis_lines" stroke="black" x1="150" x2="144" y1="200.7654150012131" y2="200.7654150012131" /><text  class="poloto_tick_labels poloto_text" dominant-baseline="middle" text-anchor="end" x="135" y="200.7654150012131" >0.003</text><line  class="poloto_axis_lines" stroke="black" x1="150" x2="144" y1="134.3538866682842" y2="134.3538866682842" /><text  class="poloto_tick_labels poloto_text" dominant-baseline="middle" text-anchor="end" x="135" y="134.3538866682842" >0.004</text><text  class="poloto_tick_labels poloto_text" dominant-baseline="middle" text-anchor="start" x="440.00000000000006" y="70" ></text><line  class="poloto_axis_lines" stroke="black" x1="150" x2="150" y1="400" y2="405" /><text  class="poloto_tick_labels poloto_text" dominant-baseline="start" text-anchor="middle" x="150" y="430" >0</text><line  class="poloto_axis_lines" stroke="black" x1="234.17508417508418" x2="234.17508417508418" y1="400" y2="405" /><text  class="poloto_tick_labels poloto_text" dominant-baseline="start" text-anchor="middle" x="234.17508417508418" y="430" >5000</text><line  class="poloto_axis_lines" stroke="black" x1="318.35016835016836" x2="318.35016835016836" y1="400" y2="405" /><text  class="poloto_tick_labels poloto_text" dominant-baseline="start" text-anchor="middle" x="318.35016835016836" y="430" >10000</text><line  class="poloto_axis_lines" stroke="black" x1="402.52525252525254" x2="402.52525252525254" y1="400" y2="405" /><text  class="poloto_tick_labels poloto_text" dominant-baseline="start" text-anchor="middle" x="402.52525252525254" y="430" >15000</text><line  class="poloto_axis_lines" stroke="black" x1="486.7003367003367" x2="486.7003367003367" y1="400" y2="405" /><text  class="poloto_tick_labels poloto_text" dominant-baseline="start" text-anchor="middle" x="486.7003367003367" y="430" >20000</text><line  class="poloto_axis_lines" stroke="black" x1="570.8754208754208" x2="570.8754208754208" y1="400" y2="405" /><text  class="poloto_tick_labels poloto_text" dominant-baseline="start" text-anchor="middle" x="570.8754208754208" y="430" >25000</text><path  stroke="black" fill="none" class="poloto_axis_lines" style="stroke-dasharray:8.417508417508419;stroke-dashoffset:-0;" d=" M 150 400 L 650 400" /><path  stroke="black" fill="none" class="poloto_axis_lines" style="stroke-dasharray:6.641152833292895;stroke-dashoffset:-0;" d=" M 150 400 L 150 100" /></svg>