<svg class="poloto" width="800" height="500" viewBox="0 0 800 500" xmlns="http://www.w3.org/2000/svg"><style>.poloto {
            font-family: "Arial";
            stroke-width:2;
            }
            .poloto_text{fill: var(--poloto_fg_color,black);  }
            .poloto_axis_lines{stroke: var(--poloto_fg_color,black);stoke-width:3;fill:none}
            .poloto_background{fill: var(--poloto_bg_color,aliceblue); }
            .poloto0stroke{stroke:  var(--poloto_color0,blue); }
            .poloto1stroke{stroke:  var(--poloto_color1,red); }
            .poloto2stroke{stroke:  var(--poloto_color2,green); }
            .poloto3stroke{stroke:  var(--poloto_color3,gold); }
            .poloto4stroke{stroke:  var(--poloto_color4,aqua); }
            .poloto5stroke{stroke:  var(--poloto_color5,brown); }
            .poloto6stroke{stroke:  var(--poloto_color6,lime); }
            .poloto7stroke{stroke:  var(--poloto_color7,chocolate); }
            .poloto0fill{fill:var(--poloto_color0,blue);}
            .poloto1fill{fill:var(--poloto_color1,red);}
            .poloto2fill{fill:var(--poloto_color2,green);}
            .poloto3fill{fill:var(--poloto_color3,gold);}
            .poloto4fill{fill:var(--poloto_color4,aqua);}
            .poloto5fill{fill:var(--poloto_color5,brown);}
            .poloto6fill{fill:var(--poloto_color6,lime);}
            .poloto7fill{fill:var(--poloto_color7,chocolate);}</style><rect class="poloto_background" fill="white" x="0" y="0" width="800" height="500"/><line class="poloto_axis_lines" stroke="black" x1="150" x2="150" y1="400" y2="405"/><text class="poloto_text" alignment-baseline="start" text-anchor="middle" x="150" y="430">0</text><line class="poloto_axis_lines" stroke="black" x1="234.17508417508418" x2="234.17508417508418" y1="400" y2="405"/><text class="poloto_text" alignment-baseline="start" text-anchor="middle" x="234.17508417508418" y="430">5000</text><line class="poloto_axis_lines" stroke="black" x1="318.35016835016836" x2="318.35016835016836" y1="400" y2="405"/><text class="poloto_text" alignment-baseline="start" text-anchor="middle" x="318.35016835016836" y="430">10000</text><line class="poloto_axis_lines" stroke="black" x1="402.52525252525254" x2="402.52525252525254" y1="400" y2="405"/><text class="poloto_text" alignment-baseline="start" text-anchor="middle" x="402.52525252525254" y="430">15000</text><line class="poloto_axis_lines" stroke="black" x1="486.7003367003367" x2="486.7003367003367" y1="400" y2="405"/><text class="poloto_text" alignment-baseline="start" text-anchor="middle" x="486.7003367003367" y="430">20000</text><line class="poloto_axis_lines" stroke="black" x1="570.8754208754208" x2="570.8754208754208" y1="400" y2="405"/><text class="poloto_text" alignment-baseline="start" text-anchor="middle" x="570.8754208754208" y="430">25000</text><line class="poloto_axis_lines" stroke="black" x1="150" x2="144" y1="347.1775855364019" y2="347.1775855364019"/><text class="poloto_text" alignment-baseline="middle" text-anchor="end" x="135" y="347.1775855364019">0.002</text><line class="poloto_axis_lines" stroke="black" x1="150" x2="144" y1="294.3516581486326" y2="294.3516581486326"/><text class="poloto_text" alignment-baseline="middle" text-anchor="end" x="135" y="294.3516581486326">0.004</text><line class="poloto_axis_lines" stroke="black" x1="150" x2="144" y1="241.52573076086327" y2="241.52573076086327"/><text class="poloto_text" alignment-baseline="middle" text-anchor="end" x="135" y="241.52573076086327">0.006</text><line class="poloto_axis_lines" stroke="black" x1="150" x2="144" y1="188.6998033730939" y2="188.6998033730939"/><text class="poloto_text" alignment-baseline="middle" text-anchor="end" x="135" y="188.6998033730939">0.008</text><line class="poloto_axis_lines" stroke="black" x1="150" x2="144" y1="135.87387598532462" y2="135.87387598532462"/><text class="poloto_text" alignment-baseline="middle" text-anchor="end" x="135" y="135.87387598532462">0.010</text><text class="poloto_text" alignment-baseline="middle" text-anchor="start" font-size="large" x="675" y="100">default_par</text><line class="poloto0stroke" stroke="black" x1="680" x2="730" y1="81.25" y2="81.25"/><polyline class="poloto0stroke" fill="none" stroke="black" points="650,312.4798259984386 644.9494949494949,317.3640320058207 639.8989898989898,315.5733123062664 634.8484848484848,319.09112287583645 629.7979797979798,320.1088671928892 624.7474747474747,318.001905079028 619.6969696969697,317.9795068858156 614.6464646464647,321.1248154284108 609.5959595959596,323.30399058501104 604.5454545454545,321.2815499549703 599.4949494949494,324.6371849274599 594.4444444444445,321.99657529512746 589.3939393939394,322.65740123378475 584.3434343434344,295.52671807744616 579.2929292929293,323.12395982447356 574.2424242424242,323.24170881662087 569.1919191919192,327.0597027185719 564.1414141414141,325.8770886821419 559.090909090909,329.61507771706414 554.040404040404,328.0624972981739 548.989898989899,328.6909937692699 543.939393939394,329.2858401246199 538.8888888888889,328.1925283184389 533.8383838383838,331.20244400913924 528.7878787878788,333.9924189511606 523.7373737373737,330.92579462740946 518.6868686868687,336.30548142072513 513.6363636363636,335.63842202263606 508.5858585858586,336.2717520660881 503.5353535353535,336.1714620429424 498.4848484848485,337.9382780103537 493.4343434343434,338.30000354814143 488.3838383838384,336.9186847858424 483.3333333333333,335.05007325635484 478.2828282828283,339.36719293322915 473.2323232323232,338.3812234115002 468.1818181818182,338.7788969928753 463.1313131313131,340.7681893534802 458.0808080808081,340.8745543582755 453.030303030303,343.37588843305 447.979797979798,344.7909893759136 442.9292929292929,346.09700477872144 437.8787878787879,344.1773105774499 432.8282828282828,341.6186075455322 427.77777777777777,343.2987625790639 422.72727272727275,343.4217413380226 417.67676767676767,348.2311722451873 412.62626262626264,347.5228293848447 407.57575757575756,347.43532323612686 402.52525252525254,351.09684674115533 397.47474747474746,349.37485357313255 392.4242424242424,349.23703072857785 387.37373737373736,353.69067901478587 382.32323232323233,350.90712242294217 377.27272727272725,353.07578521999227 372.22222222222223,355.0542746784464 367.1717171717172,356.8014922267969 362.1212121212121,353.45496972678166 357.07070707070704,356.8957336812566 352.020202020202,355.08380437185616 346.969696969697,355.935358321347 341.9191919191919,359.41154206013545 336.86868686868684,361.0028967097283 331.8181818181818,356.589131998698 326.7676767676768,357.87298692496665 321.7171717171717,363.37797681804614 316.66666666666663,358.7789779926306 311.6161616161616,361.76929526427006 306.5656565656566,362.1486382488416 301.5151515151515,362.7650375825658 296.4646464646464,363.8310119713236 291.4141414141414,368.2197900186995 286.3636363636364,372.6136393551046 281.3131313131313,265.0098401496242 276.26262626262627,371.7274580102111 271.2121212121212,370.68636463325294 266.16161616161617,372.0884968109428 261.1111111111111,375.1341228285572 256.06060606060606,375.84463155192276 251.010101010101,376.5250559096409 245.95959595959596,377.76313716982804 240.9090909090909,378.2061618098656 235.85858585858585,380.00300931699684 230.8080808080808,368.83111806339446 225.75757575757575,377.5272958170053 220.7070707070707,379.4423677496305 215.65656565656565,375.1223162337861 210.6060606060606,376.90804388320225 205.55555555555554,378.38043454431784 200.50505050505052,379.92664943895784 195.45454545454544,381.38916165165193 190.40404040404042,382.72362381635804 185.35353535353534,383.65600143475217 180.3030303030303,385.54716963523435 175.25252525252526,387.90896402281413 170.2020202020202,390.3130719782315 165.15151515151516,392.95262509201615 160.1010101010101,395.1237707076535 155.05050505050505,397.89969395298965 150,400 "/><text class="poloto_text" alignment-baseline="middle" text-anchor="start" font-size="large" x="675" y="150">default_seq</text><line class="poloto1stroke" stroke="black" x1="680" x2="730" y1="131.25" y2="131.25"/><polyline class="poloto1stroke" fill="none" stroke="black" points="650,130.331194793054 644.9494949494949,135.4864770468264 639.8989898989898,137.42569042826773 634.8484848484848,140.35412212597242 629.7979797979798,143.5109467207381 624.7474747474747,144.3483697346527 619.6969696969697,149.76873249205698 614.6464646464647,152.05651775536646 609.5959595959596,155.17359083977288 604.5454545454545,157.4208322038123 599.4949494949494,160.93262061766012 594.4444444444445,161.94914993838293 589.3939393939394,165.47195255809112 584.3434343434344,168.77230519756944 579.2929292929293,171.11389366792335 574.2424242424242,173.8892094150946 569.1919191919192,173.84008130262396 564.1414141414141,179.5433797271171 559.090909090909,182.53800231183865 554.040404040404,184.8150110859611 548.989898989899,187.32767632216033 543.939393939394,189.3718548213211 538.8888888888889,191.73985625536898 533.8383838383838,194.3409256810517 528.7878787878788,198.065708234127 523.7373737373737,200.02475775130242 518.6868686868687,203.01298839881008 513.6363636363636,205.5866675811422 508.5858585858586,207.5579463005079 503.5353535353535,210.58122695083728 498.4848484848485,212.76322829455282 493.4343434343434,214.26308843791006 488.3838383838384,216.69186610141753 483.3333333333333,219.18989855573037 478.2828282828283,221.66122750374868 473.2323232323232,224.90156988971444 468.1818181818182,226.473537423956 463.1313131313131,230.57549709857997 458.0808080808081,232.298335481441 453.030303030303,234.78292373723363 447.979797979798,237.2074225006227 442.9292929292929,239.80138683907174 437.8787878787879,243.65699280132284 432.8282828282828,244.63318952648513 427.77777777777777,245.9505625036813 422.72727272727275,253.4309779514264 417.67676767676767,256.44942502939983 412.62626262626264,259.50300134908616 407.57575757575756,262.2886445650617 402.52525252525254,265.3453112015002 397.47474747474746,268.079158595672 392.4242424242424,270.91839371498247 387.37373737373736,273.7781252941194 382.32323232323233,277.18793325514514 377.27272727272725,279.7764565230732 372.22222222222223,282.66526877523705 367.1717171717172,285.0397413853899 362.1212121212121,286.12964591925436 357.07070707070704,289.19790784675445 352.020202020202,291.1997991910414 346.969696969697,294.29790776751554 341.9191919191919,297.1623672671536 336.86868686868684,298.71156682669107 331.8181818181818,301.68239133112445 326.7676767676768,304.3319285451854 321.7171717171717,306.79918989679487 316.66666666666663,310.1345133002038 311.6161616161616,312.9107799140681 306.5656565656566,315.356514700267 301.5151515151515,319.23018712968474 296.4646464646464,321.04401817247117 291.4141414141414,322.62243046985407 286.3636363636364,329.10071166208945 281.3131313131313,331.5010425636986 276.26262626262627,334.13813927185976 271.2121212121212,336.8566935600528 266.16161616161617,339.6021098323226 261.1111111111111,342.47787408042166 256.06060606060606,345.18343319047733 251.010101010101,348.1038353472191 245.95959595959596,350.7979312310316 240.9090909090909,353.3738819282414 235.85858585858585,355.2860748478239 230.8080808080808,358.38014224085293 225.75757575757575,361.112246379421 220.7070707070707,362.9056602012721 215.65656565656565,366.75056891322714 210.6060606060606,369.1965942420267 205.55555555555554,371.6881026943072 200.50505050505052,374.494691390492 195.45454545454544,376.9988516523818 190.40404040404042,379.46576963546323 185.35353535353534,382.0990100509251 180.3030303030303,385.1313503478015 175.25252525252526,387.59052933252065 170.2020202020202,390.234678301988 165.15151515151516,392.9196353003625 160.1010101010101,394.98602710198986 155.05050505050505,397.83273709002566 150,399.99986793518156 "/><text class="poloto_text" alignment-baseline="middle" text-anchor="start" font-size="large" x="675" y="200">direct_par</text><line class="poloto2stroke" stroke="black" x1="680" x2="730" y1="181.25" y2="181.25"/><polyline class="poloto2stroke" fill="none" stroke="black" points="650,300.3427258125706 644.9494949494949,316.767521633758 639.8989898989898,315.08123879264934 634.8484848484848,316.30780400066595 629.7979797979798,319.2419673114922 624.7474747474747,316.630332700332 619.6969696969697,315.2900860965769 614.6464646464647,320.82545089790426 609.5959595959596,323.0360046553729 604.5454545454545,321.6794084270913 599.4949494949494,321.2166268902107 594.4444444444445,321.6449659224345 589.3939393939394,324.25723444472334 584.3434343434344,323.6869785585724 579.2929292929293,322.82425192543906 574.2424242424242,326.6559541555472 569.1919191919192,324.4574975354504 564.1414141414141,327.6528058183181 559.090909090909,326.9975001890728 554.040404040404,327.2916085398042 548.989898989899,328.945958107807 543.939393939394,329.00837194101564 538.8888888888889,327.43933624574413 533.8383838383838,330.9177914994102 528.7878787878788,333.2857665204944 523.7373737373737,335.8531594174674 518.6868686868687,336.73154893807117 513.6363636363636,336.0675270308069 508.5858585858586,334.84970451377296 503.5353535353535,336.7773754300801 498.4848484848485,336.4161781515662 493.4343434343434,337.9379346418257 488.3838383838384,336.5033673447197 483.3333333333333,338.5309320897171 478.2828282828283,331.98455827707886 473.2323232323232,336.8784050162092 468.1818181818182,323.9216841539562 463.1313131313131,338.41400189944426 458.0808080808081,342.09052796785085 453.030303030303,342.56120698087585 447.979797979798,340.0913835717881 442.9292929292929,341.3847207520229 437.8787878787879,343.7865043666352 432.8282828282828,341.51749872051204 427.77777777777777,344.1763861237206 422.72727272727275,347.35972933403497 417.67676767676767,345.0383996068342 412.62626262626264,348.03587479163474 407.57575757575756,349.9111688009368 402.52525252525254,350.81523172225116 397.47474747474746,348.96394709694675 392.4242424242424,350.9446288313875 387.37373737373736,352.2868035814922 382.32323232323233,351.44824481013876 377.27272727272725,350.9695098431871 372.22222222222223,353.4820166016042 367.1717171717172,352.72644736217694 362.1212121212121,355.72637895260095 357.07070707070704,353.1714265615278 352.020202020202,356.1405342233211 346.969696969697,357.2033390564356 341.9191919191919,355.63501651118384 336.86868686868684,355.1391923567222 331.8181818181818,358.5082187018046 326.7676767676768,360.4716263579895 321.7171717171717,361.75511150276645 316.66666666666663,359.3013471756046 311.6161616161616,360.30511903486325 306.5656565656566,360.82719767523656 301.5151515151515,369.52643933263596 296.4646464646464,367.27021756094064 291.4141414141414,364.6720535612643 286.3636363636364,371.7510447867897 281.3131313131313,374.0081645992506 276.26262626262627,374.3919449617228 271.2121212121212,370.50773375979117 266.16161616161617,372.6123715328473 261.1111111111111,374.4946385645646 256.06060606060606,378.04160904605266 251.010101010101,375.0985709794253 245.95959595959596,377.7880445945914 240.9090909090909,379.50084605124874 235.85858585858585,376.98281898341963 230.8080808080808,377.0372825145564 225.75757575757575,380.6433652087914 220.7070707070707,380.1342817465555 215.65656565656565,375.24941541508105 210.6060606060606,377.3288552207732 205.55555555555554,379.1397808375533 200.50505050505052,379.73523469106823 195.45454545454544,380.4062560337114 190.40404040404042,383.08920564684513 185.35353535353534,385.202665349775 180.3030303030303,385.26954297384793 175.25252525252526,387.74293213303434 170.2020202020202,390.3576570609468 165.15151515151516,393.0509869688122 160.1010101010101,395.00459541546667 155.05050505050505,397.870586866999 150,399.9995773925809 "/><text class="poloto_text" alignment-baseline="middle" text-anchor="start" font-size="large" x="675" y="250">direct_seq</text><line class="poloto3stroke" stroke="black" x1="680" x2="730" y1="231.25" y2="231.25"/><polyline class="poloto3stroke" fill="none" stroke="black" points="650,134.67330113358275 644.9494949494949,138.93619499599356 639.8989898989898,140.06756788285747 634.8484848484848,143.04911605055054 629.7979797979798,146.08433536046962 624.7474747474747,148.68976292516177 619.6969696969697,151.7268575555031 614.6464646464647,154.33714510551494 609.5959595959596,158.07104013106465 604.5454545454545,160.08864718874938 599.4949494949494,163.39222220979835 594.4444444444445,164.2886253716414 589.3939393939394,167.7971914039186 584.3434343434344,170.93193476103622 579.2929292929293,174.08944609285794 574.2424242424242,176.30628613568567 569.1919191919192,178.93178755278518 564.1414141414141,181.27807753067668 559.090909090909,184.84881967948922 554.040404040404,186.41497636171815 548.989898989899,189.22724384509712 543.939393939394,191.41698418717493 538.8888888888889,193.5523930629344 533.8383838383838,196.27063039556322 528.7878787878788,199.59269449119785 523.7373737373737,201.93391318006007 518.6868686868687,204.73844166507675 513.6363636363636,206.69292173953315 508.5858585858586,208.8007818941599 503.5353535353535,211.78336016743708 498.4848484848485,213.9831374357186 493.4343434343434,216.25032058734686 488.3838383838384,218.12059613354714 483.3333333333333,220.4776097746983 478.2828282828283,222.5957709851657 473.2323232323232,226.60768886655723 468.1818181818182,227.72112735107294 463.1313131313131,231.6192845978349 458.0808080808081,233.4895073181078 453.030303030303,235.17235647393628 447.979797979798,238.64550272189996 442.9292929292929,240.6781387559265 437.8787878787879,244.14800979639216 432.8282828282828,245.21633493891872 427.77777777777777,245.96854973195684 422.72727272727275,255.84945455909326 417.67676767676767,257.6461435884423 412.62626262626264,260.5921927329309 407.57575757575756,264.0292060465613 402.52525252525254,266.39464542313084 397.47474747474746,268.5794993669253 392.4242424242424,271.8018809375792 387.37373737373736,274.85381965351655 382.32323232323233,277.43571326755745 377.27272727272725,279.88467043532705 372.22222222222223,283.09735844830533 367.1717171717172,285.865991715662 362.1212121212121,287.279587119595 357.07070707070704,289.58277114073803 352.020202020202,291.8692093428992 346.969696969697,294.837577441709 341.9191919191919,297.41442617968437 336.86868686868684,300.01874439990144 331.8181818181818,302.12649890267346 326.7676767676768,304.3597678089188 321.7171717171717,307.241210844212 316.66666666666663,310.21568033763515 311.6161616161616,312.6710558555824 306.5656565656566,315.5350927478014 301.5151515151515,318.91362775981355 296.4646464646464,320.754637742241 291.4141414141414,323.74112513414485 286.3636363636364,330.04920118833684 281.3131313131313,332.81075578142355 276.26262626262627,335.3183497285936 271.2121212121212,337.8138993643192 266.16161616161617,340.13219160069514 261.1111111111111,343.0253884048322 256.06060606060606,344.7198856776497 251.010101010101,348.5923695237012 245.95959595959596,351.26826687552864 240.9090909090909,353.7152958969486 235.85858585858585,355.6906157997594 230.8080808080808,358.50452088688746 225.75757575757575,361.4279341214903 220.7070707070707,363.02095278779586 215.65656565656565,367.3184740456094 210.6060606060606,369.2213960149353 205.55555555555554,371.7113196893941 200.50505050505052,374.34165467884964 195.45454545454544,376.8206169733755 190.40404040404042,379.3784483774913 185.35353535353534,382.10817534932687 180.3030303030303,385.3187767381733 175.25252525252526,387.742879307107 170.2020202020202,390.24550761710253 165.15151515151516,392.95096107530344 160.1010101010101,395.0402793294171 155.05050505050505,397.81733833219215 150,399.99881141663377 "/><text class="poloto_text" alignment-baseline="middle" text-anchor="start" font-size="large" x="675" y="300">indirect_par</text><line class="poloto4stroke" stroke="black" x1="680" x2="730" y1="281.25" y2="281.25"/><polyline class="poloto4stroke" fill="none" stroke="black" points="650,304.4269095626286 644.9494949494949,304.8170818623147 639.8989898989898,305.64990902054654 634.8484848484848,307.7822011665902 629.7979797979798,310.51847855342186 624.7474747474747,310.4107664874782 619.6969696969697,310.6581767183988 614.6464646464647,311.5158320625029 609.5959595959596,313.9446097260104 604.5454545454545,312.9002675545179 599.4949494949494,303.1316442360442 594.4444444444445,314.0352854303715 589.3939393939394,313.75573062263544 584.3434343434344,316.55236163150767 579.2929292929293,317.39887070493296 574.2424242424242,317.99960715118664 569.1919191919192,319.397988688032 564.1414141414141,321.5127690391466 559.090909090909,322.14216355100814 554.040404040404,320.21618306437745 548.989898989899,321.1246569506286 543.939393939394,321.7705331518352 538.8888888888889,309.9863629868448 533.8383838383838,324.62482366045117 528.7878787878788,326.54811002478505 523.7373737373737,328.05800709434595 518.6868686868687,328.7572110692505 513.6363636363636,331.1546893707807 508.5858585858586,325.21665893794 503.5353535353535,331.6694252072471 498.4848484848485,329.6613532294558 493.4343434343434,331.97462700272996 488.3838383838384,329.10337937142253 483.3333333333333,331.1464221131445 478.2828282828283,331.1215146883812 473.2323232323232,334.271683216296 468.1818181818182,335.48995475371277 463.1313131313131,336.4066694846364 458.0808080808081,337.6739370697053 453.030303030303,338.5891990876258 447.979797979798,334.6335936448296 442.9292929292929,338.23011484620747 437.8787878787879,335.09238682419243 432.8282828282828,336.2381547762694 427.77777777777777,339.5873713985814 422.72727272727275,322.8086154509322 417.67676767676767,322.6403912851659 412.62626262626264,335.48176673496766 407.57575757575756,344.85512005176236 402.52525252525254,345.6313706417619 397.47474747474746,345.2181926506985 392.4242424242424,348.564345369222 387.37373737373736,343.997226990985 382.32323232323233,345.61465123574374 377.27272727272725,349.97635599533334 372.22222222222223,348.5112024862699 367.1717171717172,349.7230820864727 362.1212121212121,354.1164559895313 357.07070707070704,350.311166723117 352.020202020202,353.7534890424499 346.969696969697,353.4942193908308 341.9191919191919,354.45102900064177 336.86868686868684,357.01612396977333 331.8181818181818,351.79171899001403 326.7676767676768,357.5770296667767 321.7171717171717,358.1622352903784 316.66666666666663,359.9748777497986 311.6161616161616,352.8112329756343 306.5656565656566,341.09330652358824 301.5151515151515,364.0091409984752 296.4646464646464,362.7908166351311 291.4141414141414,339.37149824631126 286.3636363636364,366.6696924183965 281.3131313131313,367.7885983863968 276.26262626262627,369.4931061724543 271.2121212121212,367.65634867718154 266.16161616161617,367.80827604434876 261.1111111111111,373.018365197786 256.06060606060606,372.84934864310884 251.010101010101,372.8490316875445 245.95959595959596,374.01289251975186 240.9090909090909,374.6306653275881 235.85858585858585,374.2332822888136 230.8080808080808,376.2315814700381 225.75757575757575,375.78892661149234 220.7070707070707,365.4418329751589 215.65656565656565,372.3708513928304 210.6060606060606,373.5567670497221 205.55555555555554,378.28651004542235 200.50505050505052,378.9455134895848 195.45454545454544,378.85407180927655 190.40404040404042,380.7885836831804 185.35353535353534,384.3835729326639 180.3030303030303,383.7873795161656 175.25252525252526,386.6006771051286 170.2020202020202,389.42316640545715 165.15151515151516,392.444941516856 160.1010101010101,394.8072905766734 155.05050505050505,397.68831100454753 150,399.99981510925414 "/><text class="poloto_text" alignment-baseline="middle" text-anchor="start" font-size="large" x="675" y="350">indirect_seq</text><line class="poloto5stroke" stroke="black" x1="680" x2="730" y1="331.25" y2="331.25"/><polyline class="poloto5stroke" fill="none" stroke="black" points="650,100 644.9494949494949,112.07399961560333 639.8989898989898,113.89622998084445 634.8484848484848,117.56934877693453 629.7979797979798,120.6190688039215 624.7474747474747,119.06136427007465 619.6969696969697,127.77428784266749 614.6464646464647,130.7111452757905 609.5959595959596,133.06324610569465 604.5454545454545,136.34286456867324 599.4949494949494,140.26450294015905 594.4444444444445,141.6925726481963 589.3939393939394,145.3639217757189 584.3434343434344,148.7292503058841 579.2929292929293,151.1779169310531 574.2424242424242,154.5761824269446 569.1919191919192,157.99283134556703 564.1414141414141,160.02459575179176 559.090909090909,164.10513451286 554.040404040404,166.74384241180644 548.989898989899,169.21625429133618 543.939393939394,172.08969419863024 538.8888888888889,174.50521255436337 533.8383838383838,177.15939845003447 528.7878787878788,181.2334660349977 523.7373737373737,183.30899672206314 518.6868686868687,186.41505560060924 513.6363636363636,189.73120319237643 508.5858585858586,192.22490392064347 503.5353535353535,195.61667182746632 498.4848484848485,197.65694120800043 493.4343434343434,199.60582173415372 488.3838383838384,202.17775766088204 483.3333333333333,204.56422175655192 478.2828282828283,207.48515217256752 473.2323232323232,211.15547119450605 468.1818181818182,213.83366647417486 463.1313131313131,217.39453017456592 458.0808080808081,219.79504596692095 453.030303030303,221.53354723725244 447.979797979798,224.430494682234 442.9292929292929,227.44886252131636 437.8787878787879,230.96994829838445 432.8282828282828,232.54762103278387 427.77777777777777,234.3676591220384 422.72727272727275,245.28957808724186 417.67676767676767,247.6886411665937 412.62626262626264,250.21868613290354 407.57575757575756,254.61509752678694 402.52525252525254,256.9935584944576 397.47474747474746,259.77093445279695 392.4242424242424,262.50462336918656 387.37373737373736,265.6276921963515 382.32323232323233,268.95160519944477 377.27272727272725,271.5882264742594 372.22222222222223,274.24154074212856 367.1717171717172,277.85060810126095 362.1212121212121,279.90173320987327 357.07070707070704,282.0413945727875 352.020202020202,284.64344127812683 346.969696969697,287.8216075475572 341.9191919191919,290.5835583350994 336.86868686868684,293.10409463447934 331.8181818181818,295.4593650200268 326.7676767676768,298.6108541961263 321.7171717171717,300.95825351849294 316.66666666666663,304.45046992624356 311.6161616161616,307.535266369016 306.5656565656566,310.25067751452957 301.5151515151515,314.06999206466526 296.4646464646464,316.5480299054618 291.4141414141414,319.1143662838871 286.3636363636364,322.81664499189515 281.3131313131313,325.9116896645809 276.26262626262627,329.11846117369174 271.2121212121212,332.0223552281248 266.16161616161617,334.59231018257606 261.1111111111111,337.74461816055015 256.06060606060606,339.82255242731173 251.010101010101,343.845193971963 245.95959595959596,346.84789892357486 240.9090909090909,349.52379627540233 235.85858585858585,351.8593097641067 230.8080808080808,354.9786807763545 225.75757575757575,358.19572692834225 220.7070707070707,360.05292805751407 215.65656565656565,364.93224766661274 210.6060606060606,367.2450460065404 205.55555555555554,370.0680107402154 200.50505050505052,372.8374363964829 195.45454545454544,375.6072846601695 190.40404040404042,378.3106250812749 185.35353535353534,381.0801563893972 180.3030303030303,383.5757588510502 175.25252525252526,386.44584431195506 170.2020202020202,389.4574768452955 165.15151515151516,392.4764785955065 160.1010101010101,394.76674667740326 155.05050505050505,397.65827946482756 150,399.99941891479875 "/><text class="poloto_text" alignment-baseline="start" text-anchor="middle" font-size="x-large" x="400" y="37.5">Bench of query:8_bytes with abspiral(num,0.1)</text><text class="poloto_text" alignment-baseline="start" text-anchor="middle" font-size="x-large" x="400" y="481.25">Number of Elements</text><text class="poloto_text" alignment-baseline="start" text-anchor="middle" font-size="x-large" transform="rotate(-90,37.5,250)" x="37.5" y="250">Time in Seconds</text><path stroke="black" fill="none" class="poloto_axis_lines" d=" M 150 100 L 150 400 L 650 400"/></svg>