<svg class="poloto" width="800" height="500" viewBox="0 0 800 500" xmlns="http://www.w3.org/2000/svg"><style>.poloto {
                    font-family: "Arial";
                    stroke-width:2;
                    }
                    .poloto_text{fill: var(--poloto_fg_color,black);  }
                    .poloto_axis_lines{stroke: var(--poloto_fg_color,black);stoke-width:3;fill:none}
                    .poloto_background{fill: var(--poloto_bg_color,aliceblue); }
                    .poloto0stroke{stroke:  var(--poloto_color0,blue); }
                    .poloto1stroke{stroke:  var(--poloto_color1,red); }
                    .poloto2stroke{stroke:  var(--poloto_color2,green); }
                    .poloto3stroke{stroke:  var(--poloto_color3,gold); }
                    .poloto4stroke{stroke:  var(--poloto_color4,aqua); }
                    .poloto5stroke{stroke:  var(--poloto_color5,brown); }
                    .poloto6stroke{stroke:  var(--poloto_color6,lime); }
                    .poloto7stroke{stroke:  var(--poloto_color7,chocolate); }
                    .poloto0fill{fill:var(--poloto_color0,blue);}
                    .poloto1fill{fill:var(--poloto_color1,red);}
                    .poloto2fill{fill:var(--poloto_color2,green);}
                    .poloto3fill{fill:var(--poloto_color3,gold);}
                    .poloto4fill{fill:var(--poloto_color4,aqua);}
                    .poloto5fill{fill:var(--poloto_color5,brown);}
                    .poloto6fill{fill:var(--poloto_color6,lime);}
                    .poloto7fill{fill:var(--poloto_color7,chocolate);}</style><rect class="poloto_background" fill="white" x="0" y="0" width="800" height="500"/><line class="poloto_axis_lines" stroke="black" x1="150" x2="150" y1="400" y2="405"/><text class="poloto_text" alignment-baseline="start" text-anchor="middle" x="150" y="430">0</text><line class="poloto_axis_lines" stroke="black" x1="234.17508417508418" x2="234.17508417508418" y1="400" y2="405"/><text class="poloto_text" alignment-baseline="start" text-anchor="middle" x="234.17508417508418" y="430">5000</text><line class="poloto_axis_lines" stroke="black" x1="318.35016835016836" x2="318.35016835016836" y1="400" y2="405"/><text class="poloto_text" alignment-baseline="start" text-anchor="middle" x="318.35016835016836" y="430">10000</text><line class="poloto_axis_lines" stroke="black" x1="402.52525252525254" x2="402.52525252525254" y1="400" y2="405"/><text class="poloto_text" alignment-baseline="start" text-anchor="middle" x="402.52525252525254" y="430">15000</text><line class="poloto_axis_lines" stroke="black" x1="486.7003367003367" x2="486.7003367003367" y1="400" y2="405"/><text class="poloto_text" alignment-baseline="start" text-anchor="middle" x="486.7003367003367" y="430">20000</text><line class="poloto_axis_lines" stroke="black" x1="570.8754208754208" x2="570.8754208754208" y1="400" y2="405"/><text class="poloto_text" alignment-baseline="start" text-anchor="middle" x="570.8754208754208" y="430">25000</text><line class="poloto_axis_lines" stroke="black" x1="150" x2="144" y1="340.32862233197255" y2="340.32862233197255"/><text class="poloto_text" alignment-baseline="middle" text-anchor="end" x="135" y="340.32862233197255">0.002</text><line class="poloto_axis_lines" stroke="black" x1="150" x2="144" y1="280.6528883353633" y2="280.6528883353633"/><text class="poloto_text" alignment-baseline="middle" text-anchor="end" x="135" y="280.6528883353633">0.004</text><line class="poloto_axis_lines" stroke="black" x1="150" x2="144" y1="220.97715433875408" y2="220.97715433875408"/><text class="poloto_text" alignment-baseline="middle" text-anchor="end" x="135" y="220.97715433875408">0.006</text><line class="poloto_axis_lines" stroke="black" x1="150" x2="144" y1="161.30142034214487" y2="161.30142034214487"/><text class="poloto_text" alignment-baseline="middle" text-anchor="end" x="135" y="161.30142034214487">0.008</text><line class="poloto_axis_lines" stroke="black" x1="150" x2="144" y1="101.62568634553566" y2="101.62568634553566"/><text class="poloto_text" alignment-baseline="middle" text-anchor="end" x="135" y="101.62568634553566">0.010</text><text class="poloto_text" alignment-baseline="middle" text-anchor="start" font-size="large" x="675" y="100">default_par</text><line class="poloto0stroke" stroke="black" x1="680" x2="730" y1="81.25" y2="81.25"/><polyline class="poloto0stroke" fill="none" stroke="black" points="650,352.87816065065647 644.9494949494949,365.9661531171918 639.8989898989898,364.22976828509246 634.8484848484848,363.0638834700007 629.7979797979798,365.92169469536435 624.7474747474747,360.51662476435547 619.6969696969697,366.2395574924973 614.6464646464647,359.520875466888 609.5959595959596,366.4802595655726 604.5454545454545,362.6872400748811 599.4949494949494,368.09141486988005 594.4444444444445,369.68630853667344 589.3939393939394,364.8140235587863 584.3434343434344,364.70493631704045 579.2929292929293,363.29014401544885 574.2424242424242,366.32298416862454 569.1919191919192,368.849654746041 564.1414141414141,367.4784555681339 559.090909090909,370.63568978882546 554.040404040404,365.09802037687615 548.989898989899,362.4468662183428 543.939393939394,369.8585327049876 538.8888888888889,369.90761599619987 533.8383838383838,372.88012398230495 528.7878787878788,369.9154633552204 523.7373737373737,371.6666477693509 518.6868686868687,371.489201974312 513.6363636363636,371.119063234198 508.5858585858586,374.21017674162135 503.5353535353535,374.1004927425356 498.4848484848485,376.5951472886629 493.4343434343434,374.5323660294691 488.3838383838384,375.2818037348655 483.3333333333333,373.00484626635784 478.2828282828283,376.71097788835027 473.2323232323232,371.3043265503905 468.1818181818182,377.61628861094584 463.1313131313131,377.8839939536546 458.0808080808081,376.36521668557396 453.030303030303,370.16302813770534 447.979797979798,378.53687632144454 442.9292929292929,376.62218039616334 437.8787878787879,377.31892442844077 432.8282828282828,376.9728946848614 427.77777777777777,375.99764400202184 422.72727272727275,378.5884659934846 417.67676767676767,378.7181413634592 412.62626262626264,380.3497654445275 407.57575757575756,380.54496477043045 402.52525252525254,381.3698922793326 397.47474747474746,379.5103665701312 392.4242424242424,380.6212900342121 387.37373737373736,381.6191876581034 382.32323232323233,382.75642812087676 377.27272727272725,382.6735683642225 372.22222222222223,380.746251021201 367.1717171717172,381.96145783044096 362.1212121212121,382.06478636385606 357.07070707070704,383.3570345456857 352.020202020202,383.2895114526685 346.969696969697,383.5355545039365 341.9191919191919,383.76160618431567 336.86868686868684,382.5356875808233 331.8181818181818,382.5798476239808 326.7676767676768,384.21260554399504 321.7171717171717,382.3490517227489 316.66666666666663,382.61263943981197 311.6161616161616,383.98365959051705 306.5656565656566,387.48432766035916 301.5151515151515,387.27367231935114 296.4646464646464,385.37043413499725 291.4141414141414,387.0011034043216 286.3636363636364,389.6820357541193 281.3131313131313,387.26215490268976 276.26262626262627,388.6291171034831 271.2121212121212,390.09812480941065 266.16161616161617,388.3999622849361 261.1111111111111,392.59146648939 256.06060606060606,388.54953951219863 251.010101010101,387.0247946707183 245.95959595959596,388.3739735027806 240.9090909090909,391.38458444504255 235.85858585858585,390.80301457937856 230.8080808080808,392.75978189712737 225.75757575757575,391.3004416601073 220.7070707070707,391.2956079256536 215.65656565656565,390.41980685351933 210.6060606060606,388.18721829323823 205.55555555555554,390.6314766820053 200.50505050505052,389.3467476426593 195.45454545454544,389.87610124107624 190.40404040404042,390.6816938121635 185.35353535353534,391.1283368432611 180.3030303030303,395.6596943528256 175.25252525252526,396.25313968955487 170.2020202020202,397.0565242584843 165.15151515151516,397.9647292541786 160.1010101010101,398.6336345565466 155.05050505050505,399.3781788517553 150,399.999582269862 "/><text class="poloto_text" alignment-baseline="middle" text-anchor="start" font-size="large" x="675" y="150">default_seq</text><line class="poloto1stroke" stroke="black" x1="680" x2="730" y1="131.25" y2="131.25"/><polyline class="poloto1stroke" fill="none" stroke="black" points="650,305.6075795343264 644.9494949494949,306.9485827908312 639.8989898989898,305.8303490493357 634.8484848484848,308.8634875811814 629.7979797979798,308.693710117961 624.7474747474747,309.7623533245053 619.6969696969697,311.2189186398945 614.6464646464647,311.88367647874975 609.5959595959596,313.1431626826152 604.5454545454545,313.5057226045116 599.4949494949494,314.4594601852454 594.4444444444445,314.7176174105148 589.3939393939394,316.99266525553446 584.3434343434344,316.8235740632551 579.2929292929293,318.831304457837 574.2424242424242,319.73685388336855 569.1919191919192,319.6574553192861 564.1414141414141,320.2514078997543 559.090909090909,322.31779954085494 554.040404040404,323.20768408621234 548.989898989899,323.52853067004514 543.939393939394,324.54170528183954 538.8888888888889,326.2214876802431 533.8383838383838,326.39800850140506 528.7878787878788,326.8656573908695 523.7373737373737,327.02090381286166 518.6868686868687,329.43365341407855 513.6363636363636,328.8047905292223 508.5858585858586,330.6030292596091 503.5353535353535,331.8325880828753 498.4848484848485,332.4418474891137 493.4343434343434,333.09747494066744 488.3838383838384,334.8247890611993 483.3333333333333,334.77546706705107 478.2828282828283,336.5680366027082 473.2323232323232,337.8477827182655 468.1818181818182,337.8971047124137 463.1313131313131,339.300081218674 458.0808080808081,338.7764564907207 453.030303030303,341.03037912590565 447.979797979798,342.32080719784835 442.9292929292929,343.32186763564147 437.8787878787879,343.56999933759937 432.8282828282828,343.99623326767016 427.77777777777777,345.81688023617266 422.72727272727275,350.9836947992001 417.67676767676767,351.6279838612945 412.62626262626264,352.96448159988256 407.57575757575756,353.80226922946093 402.52525252525254,354.07889609440224 397.47474747474746,354.9057332267923 392.4242424242424,355.49923823925553 387.37373737373736,356.8960681449142 382.32323232323233,357.5041937122066 377.27272727272725,358.19350811560145 372.22222222222223,359.3288986306209 367.1717171717172,360.12548016587465 362.1212121212121,361.00041593986595 357.07070707070704,361.81006646086496 352.020202020202,362.74232077735996 346.969696969697,363.88764730208993 341.9191919191919,364.3768391315271 336.86868686868684,365.04708713791 331.8181818181818,366.63866880146657 326.7676767676768,366.88575617807953 321.7171717171717,368.3494825815484 316.66666666666663,369.0017383541313 311.6161616161616,370.06945658679865 306.5656565656566,370.925654180315 301.5151515151515,371.71173278638537 296.4646464646464,372.9488405900021 291.4141414141414,373.1353272587414 286.3636363636364,377.5339360980305 281.3131313131313,378.17768807851894 276.26262626262627,378.6217352151877 271.2121212121212,379.92776849157053 266.16161616161617,380.46034457962327 261.1111111111111,381.7387778290326 256.06060606060606,382.25542049610823 251.010101010101,383.0973257513324 245.95959595959596,383.4300776440975 240.9090909090909,384.44495301431084 235.85858585858585,385.2197230687888 230.8080808080808,386.26995631139516 225.75757575757575,387.2040307377771 220.7070707070707,387.5897448444642 215.65656565656565,389.5320706345858 210.6060606060606,390.33020373892344 205.55555555555554,391.0384950257292 200.50505050505052,391.63399917528136 195.45454545454544,392.36616075568577 190.40404040404042,393.2977586391068 185.35353535353534,394.15759645239694 180.3030303030303,395.48761937384637 175.25252525252526,396.2320443175871 170.2020202020202,396.8442875105253 165.15151515151516,397.82875809426736 160.1010101010101,398.56109870187373 155.05050505050505,399.3063591058904 150,400 "/><text class="poloto_text" alignment-baseline="middle" text-anchor="start" font-size="large" x="675" y="200">direct_par</text><line class="poloto2stroke" stroke="black" x1="680" x2="730" y1="181.25" y2="181.25"/><polyline class="poloto2stroke" fill="none" stroke="black" points="650,254.3353227233857 644.9494949494949,267.80911881020916 639.8989898989898,294.1971316261697 634.8484848484848,301.7647308057477 629.7979797979798,301.1151007654606 624.7474747474747,301.1318994845807 619.6969696969697,302.623315428624 614.6464646464647,295.78340214940056 609.5959595959596,299.39533562527936 604.5454545454545,302.1681686054318 599.4949494949494,307.48321769170684 594.4444444444445,302.03073539003765 589.3939393939394,307.02067107749906 584.3434343434344,302.6671770931115 579.2929292929293,304.681531494167 574.2424242424242,304.8244847149559 569.1919191919192,310.6541773312176 564.1414141414141,303.7508884224899 559.090909090909,313.9351790242182 554.040404040404,313.30094532330224 548.989898989899,315.5183165714143 543.939393939394,315.5595525036059 538.8888888888889,312.4811200896568 533.8383838383838,322.6204450258187 528.7878787878788,317.25777470381445 523.7373737373737,315.2821498541227 518.6868686868687,323.3028967198039 513.6363636363636,318.11692624616364 508.5858585858586,319.9998746809586 503.5353535353535,323.34523665307455 498.4848484848485,325.0300616510008 493.4343434343434,329.69148242281096 488.3838383838384,325.1131601105911 483.3333333333333,326.41286775917024 478.2828282828283,331.76061914767536 473.2323232323232,322.83456155939854 468.1818181818182,336.043874793149 463.1313131313131,336.0948975457161 458.0808080808081,334.3438324830536 453.030303030303,333.26229931796604 447.979797979798,305.5933170339012 442.9292929292929,333.0767674609706 437.8787878787879,334.055926904387 432.8282828282828,341.9382857429301 427.77777777777777,337.6837341255088 422.72727272727275,346.5607382604404 417.67676767676767,343.7735532662618 412.62626262626264,347.6796881107438 407.57575757575756,346.4438036596741 402.52525252525254,348.31034126762 397.47474747474746,349.2026426802043 392.4242424242424,349.3917550812396 387.37373737373736,348.7275939997243 382.32323232323233,352.5908816671968 377.27272727272725,353.05641206810435 372.22222222222223,354.258878108136 367.1717171717172,352.59350739949264 362.1212121212121,353.31689664699957 357.07070707070704,358.517666702671 352.020202020202,357.38036656416364 346.969696969697,352.3168208588174 341.9191919191919,356.98107622799233 336.86868686868684,356.23757625812857 331.8181818181818,359.6955463402961 326.7676767676768,359.98354143256375 321.7171717171717,358.1675790091799 316.66666666666663,362.3108353826975 311.6161616161616,364.3920564436962 306.5656565656566,365.9179052862555 301.5151515151515,364.3663063644767 296.4646464646464,359.52141254849397 291.4141414141414,364.9172327407334 286.3636363636364,371.4302423491233 281.3131313131313,370.6686904697256 276.26262626262627,374.8032938618137 271.2121212121212,360.77358847494486 266.16161616161617,370.4915132154897 261.1111111111111,377.2127612976608 256.06060606060606,377.66734120137994 251.010101010101,372.77998810065867 245.95959595959596,380.3750381178751 240.9090909090909,379.13151517285377 235.85858585858585,378.9374795237638 230.8080808080808,380.043062009652 225.75757575757575,382.6593655395313 220.7070707070707,385.2292711862283 215.65656565656565,382.04828602340604 210.6060606060606,379.4353840103645 205.55555555555554,380.1759001935284 200.50505050505052,382.85387859449327 195.45454545454544,383.88653733343756 190.40404040404042,386.56382946346145 185.35353535353534,386.68879045045037 180.3030303030303,388.824435780854 175.25252525252526,390.3995767796945 170.2020202020202,392.57711447536377 165.15151515151516,395.0281758978065 160.1010101010101,396.7387211370853 155.05050505050505,398.5065849188679 150,399.9975831327731 "/><text class="poloto_text" alignment-baseline="middle" text-anchor="start" font-size="large" x="675" y="250">direct_seq</text><line class="poloto3stroke" stroke="black" x1="680" x2="730" y1="231.25" y2="231.25"/><polyline class="poloto3stroke" fill="none" stroke="black" points="650,100 644.9494949494949,118.57657858727248 639.8989898989898,116.35661144473164 634.8484848484848,128.2896099176296 629.7979797979798,125.39417314198113 624.7474747474747,127.08025133032129 619.6969696969697,133.06698064059515 614.6464646464647,134.94840734417323 609.5959595959596,140.70568345723012 604.5454545454545,142.12530949327544 599.4949494949494,145.0143908032533 594.4444444444445,145.30023756909705 589.3939393939394,151.4679633805826 584.3434343434344,151.1762683928072 579.2929292929293,158.7606961293722 574.2424242424242,160.53067839971163 569.1919191919192,162.12026092617933 564.1414141414141,162.2722251828017 559.090909090909,171.32166235111652 554.040404040404,172.90366605936663 548.989898989899,173.26198900414929 543.939393939394,176.10321037546186 538.8888888888889,181.39871565885295 533.8383838383838,181.03484287080863 528.7878787878788,181.21387007279847 523.7373737373737,183.61608690696497 518.6868686868687,190.07249408165913 513.6363636363636,189.85587116725142 508.5858585858586,194.47912930717072 503.5353535353535,198.64330202545412 498.4848484848485,200.106700212386 493.4343434343434,204.24992674803653 488.3838383838384,209.62554670431808 483.3333333333333,208.68183464689574 478.2828282828283,213.79962559444493 473.2323232323232,219.25115308437017 468.1818181818182,219.17250046696265 463.1313131313131,219.57083599139 458.0808080808081,221.0280875777202 453.030303030303,226.3061973846513 447.979797979798,231.37729207034818 442.9292929292929,234.08749536767118 437.8787878787879,235.55441442290885 432.8282828282828,237.89268870809798 427.77777777777777,242.0468657409369 422.72727272727275,256.212482611983 417.67676767676767,259.081453199604 412.62626262626264,262.96494110303433 407.57575757575756,265.2999928985877 402.52525252525254,266.966437770443 397.47474747474746,271.18070826741655 392.4242424242424,271.81765721422937 387.37373737373736,276.59472955852493 382.32323232323233,278.3150019424452 377.27272727272725,281.38421445549176 372.22222222222223,282.40559448071076 367.1717171717172,287.2771931876569 362.1212121212121,287.98247084989583 357.07070707070704,290.88975325874264 352.020202020202,294.82315991366113 346.969696969697,297.6740785917482 341.9191919191919,298.39821378593 336.86868686868684,301.45948942635505 331.8181818181818,305.3801553120653 326.7676767676768,305.5031768376993 321.7171717171717,310.5156102768775 316.66666666666663,312.6650407018344 311.6161616161616,315.6791128366681 306.5656565656566,318.0978598491517 301.5151515151515,320.6177870686265 296.4646464646464,324.3899498902862 291.4141414141414,326.45308920388396 286.3636363636364,334.15964333007304 281.3131313131313,336.8308485352293 276.26262626262627,338.5678599625356 271.2121212121212,341.95663603113405 266.16161616161617,343.97343713728344 261.1111111111111,347.97594829217 256.06060606060606,349.3625438094482 251.010101010101,352.2490889007312 245.95959595959596,353.19706777313434 240.9090909090909,356.26935358648177 235.85858585858585,358.16328235633216 230.8080808080808,361.7821680552215 225.75757575757575,364.75760015229247 220.7070707070707,365.6735331555394 215.65656565656565,371.4497264762732 210.6060606060606,373.8509884986958 205.55555555555554,376.0591100080383 200.50505050505052,377.9410439553554 195.45454545454544,379.5120076528161 190.40404040404042,382.5483388364306 185.35353535353534,384.77627268946003 180.3030303030303,388.07267072183174 175.25252525252526,390.19661960837203 170.2020202020202,392.0224583657323 165.15151515151516,394.45704928559195 160.1010101010101,396.53525672202386 155.05050505050505,398.32003857439446 150,399.9964194559602 "/><text class="poloto_text" alignment-baseline="middle" text-anchor="start" font-size="large" x="675" y="300">indirect_par</text><line class="poloto4stroke" stroke="black" x1="680" x2="730" y1="281.25" y2="281.25"/><polyline class="poloto4stroke" fill="none" stroke="black" points="650,344.94868782012304 644.9494949494949,356.2493920534599 639.8989898989898,357.7487448701247 634.8484848484848,356.74720702645965 629.7979797979798,357.19044854071944 624.7474747474747,355.54805298966477 619.6969696969697,357.5414612080875 614.6464646464647,359.5356153731852 609.5959595959596,353.19662020512936 604.5454545454545,356.81204471144696 599.4949494949494,360.8785282531779 594.4444444444445,355.61691878669683 589.3939393939394,357.8193711013097 584.3434343434344,358.32694305681787 579.2929292929293,361.7809745405416 574.2424242424242,359.27426549614705 569.1919191919192,359.21605181763334 564.1414141414141,360.2865449719315 559.090909090909,356.4887812603873 554.040404040404,365.206063293277 548.989898989899,362.32133831188094 543.939393939394,364.45650623641257 538.8888888888889,365.42713204986745 533.8383838383838,363.5201641321388 528.7878787878788,362.67220178991397 523.7373737373737,365.93336130136066 518.6868686868687,366.42834167699556 513.6363636363636,366.90273392440156 508.5858585858586,364.3982328821649 503.5353535353535,366.76249594950957 498.4848484848485,367.94195699408556 493.4343434343434,368.5480535864221 488.3838383838384,371.2582867216121 483.3333333333333,370.34945513071074 478.2828282828283,372.0996847330973 473.2323232323232,369.1987577899211 468.1818181818182,370.23651880412217 463.1313131313131,367.59336119394436 458.0808080808081,372.3935877230306 453.030303030303,373.7496292645026 447.979797979798,373.1058176082801 442.9292929292929,370.7802542544323 437.8787878787879,373.8187934402046 432.8282828282828,375.3307676746097 427.77777777777777,375.5067812520327 422.72727272727275,373.72319291434206 417.67676767676767,376.17959531497746 412.62626262626264,377.16245465390165 407.57575757575756,373.3759994939498 402.52525252525254,379.51448419577696 397.47474747474746,372.6702145879719 392.4242424242424,377.7238839593417 387.37373737373736,379.23030835048513 382.32323232323233,379.58364837147906 377.27272727272725,378.9588732744016 372.22222222222223,378.34839051561625 367.1717171717172,380.0833132922327 362.1212121212121,376.3146713388788 357.07070707070704,379.00163093781015 352.020202020202,380.2241480244647 346.969696969697,380.8182497942679 341.9191919191919,379.7887837070924 336.86868686868684,381.8120596303804 331.8181818181818,385.7038722987033 326.7676767676768,380.2335171147021 321.7171717171717,381.4873639617049 316.66666666666663,384.829980850057 311.6161616161616,382.54389299424787 306.5656565656566,383.8506125415716 301.5151515151515,382.58393541175957 296.4646464646464,384.7569377516451 291.4141414141414,384.4496077215626 286.3636363636364,382.37172850166763 281.3131313131313,384.4363895464823 276.26262626262627,385.64365948310075 271.2121212121212,384.50665772326334 266.16161616161617,389.43217345587544 261.1111111111111,391.7002094021506 256.06060606060606,390.40029288850246 251.010101010101,388.9049383460154 245.95959595959596,392.04212152008415 240.9090909090909,389.43590318925027 235.85858585858585,389.4324121588115 230.8080808080808,392.1540731970618 225.75757575757575,390.49574422503 220.7070707070707,392.15380465625884 215.65656565656565,390.59919210991313 210.6060606060606,388.55309021837144 205.55555555555554,388.70004171333807 200.50505050505052,389.30637700861064 195.45454545454544,389.52998198389594 190.40404040404042,391.2939071672347 185.35353535353534,392.60841439784497 180.3030303030303,395.9668751935732 175.25252525252526,396.55632225612464 170.2020202020202,397.3408492931111 165.15151515151516,398.18063605977835 160.1010101010101,398.8222397138429 155.05050505050505,399.4437326455506 150,399.9985081066501 "/><text class="poloto_text" alignment-baseline="middle" text-anchor="start" font-size="large" x="675" y="350">indirect_seq</text><line class="poloto5stroke" stroke="black" x1="680" x2="730" y1="331.25" y2="331.25"/><polyline class="poloto5stroke" fill="none" stroke="black" points="650,291.88213087723926 644.9494949494949,287.2618863618868 639.8989898989898,296.65556300176104 634.8484848484848,301.2041667984506 629.7979797979798,299.8995359018167 624.7474747474747,301.9151136554192 619.6969696969697,298.46955612592296 614.6464646464647,303.5919122671229 609.5959595959596,305.61056332102623 604.5454545454545,305.6638537514852 599.4949494949494,307.15306169337055 594.4444444444445,307.1877929705566 589.3939393939394,305.8983197103579 584.3434343434344,309.37672873141923 579.2929292929293,307.86800682451695 574.2424242424242,309.0366963991065 569.1919191919192,313.18392120893486 564.1414141414141,313.08011526964776 559.090909090909,316.61184455903515 554.040404040404,316.92397848570437 548.989898989899,313.1151747633708 543.939393939394,314.36884258317156 538.8888888888889,316.561060509404 533.8383838383838,317.107093475473 528.7878787878788,317.70799827895183 523.7373737373737,318.11901489685346 518.6868686868687,319.80234800142983 513.6363636363636,320.12056885296676 508.5858585858586,322.1127238809756 503.5353535353535,323.2524408867098 498.4848484848485,326.8112927971986 493.4343434343434,328.48624146114844 488.3838383838384,329.97816464893066 483.3333333333333,330.0099121394168 478.2828282828283,332.38545392048684 473.2323232323232,331.01467247271773 468.1818181818182,333.32743538162333 463.1313131313131,332.5173671304864 458.0808080808081,331.29499923316683 453.030303030303,333.9235362885155 447.979797979798,335.8609089927154 442.9292929292929,336.8583292107347 437.8787878787879,337.8780383154018 432.8282828282828,340.61497634155523 427.77777777777777,339.493490272557 422.72727272727275,344.9738113041356 417.67676767676767,346.2218397670737 412.62626262626264,348.3298253947699 407.57575757575756,349.08934829921174 402.52525252525254,351.61673498543615 397.47474747474746,353.00565785634024 392.4242424242424,351.3488804533924 387.37373737373736,353.2188195781761 382.32323232323233,354.2271604555168 377.27272727272725,355.1409749702069 372.22222222222223,355.4689826421193 367.1717171717172,357.3519310769143 362.1212121212121,357.145482875153 357.07070707070704,360.66297950198214 352.020202020202,361.8293118850789 346.969696969697,362.5375136582836 341.9191919191919,363.0912447940382 336.86868686868684,364.23564634489117 331.8181818181818,365.69731393553707 326.7676767676768,365.7621217826574 321.7171717171717,367.6543497940889 316.66666666666663,367.8750903341423 311.6161616161616,367.9764197304686 306.5656565656566,369.2391880997038 301.5151515151515,370.3681037975847 296.4646464646464,371.4819812104984 291.4141414141414,373.06670016464534 286.3636363636364,376.3489848859268 281.3131313131313,377.3473002399561 276.26262626262627,377.6591357879554 271.2121212121212,379.2660839530161 266.16161616161617,379.7200074236613 261.1111111111111,380.6444740568698 256.06060606060606,381.18364431352916 251.010101010101,382.0101532293822 245.95959595959596,382.5654956099546 240.9090909090909,383.82149078338125 235.85858585858585,384.4737465559642 230.8080808080808,386.30218120775334 225.75757575757575,387.2388216906971 220.7070707070707,387.7639383120003 215.65656565656565,389.7853046118004 210.6060606060606,390.2408094893965 205.55555555555554,391.01799641110136 200.50505050505052,391.5455298996314 195.45454545454544,392.70801319788535 190.40404040404042,393.63471767111866 185.35353535353534,394.48357514935344 180.3030303030303,395.7640373737187 175.25252525252526,396.462541840149 170.2020202020202,397.12163048427453 165.15151515151516,398.07050449268763 160.1010101010101,398.7367840627598 155.05050505050505,399.3786264197603 150,399.99776215997514 "/><text class="poloto_text" alignment-baseline="start" text-anchor="middle" font-size="x-large" x="400" y="37.5">Bench of rebal:128_bytes with abspiral(num,1.5)</text><text class="poloto_text" alignment-baseline="start" text-anchor="middle" font-size="x-large" x="400" y="481.25">Number of Elements</text><text class="poloto_text" alignment-baseline="start" text-anchor="middle" font-size="x-large" transform="rotate(-90,37.5,250)" x="37.5" y="250">Time in Seconds</text><path stroke="black" fill="none" class="poloto_axis_lines" d=" M 150 100 L 150 400 L 650 400"/></svg>