<svg class="poloto" width="800" height="500" viewBox="0 0 800 500" xmlns="http://www.w3.org/2000/svg"><style>.poloto {
                    font-family: "Arial";
                    stroke-width:2;
                    }
                    .poloto_text{fill: var(--poloto_fg_color,black);  }
                    .poloto_axis_lines{stroke: var(--poloto_fg_color,black);stoke-width:3;fill:none}
                    .poloto_background{fill: var(--poloto_bg_color,aliceblue); }
                    .poloto0stroke{stroke:  var(--poloto_color0,blue); }
                    .poloto1stroke{stroke:  var(--poloto_color1,red); }
                    .poloto2stroke{stroke:  var(--poloto_color2,green); }
                    .poloto3stroke{stroke:  var(--poloto_color3,gold); }
                    .poloto4stroke{stroke:  var(--poloto_color4,aqua); }
                    .poloto5stroke{stroke:  var(--poloto_color5,brown); }
                    .poloto6stroke{stroke:  var(--poloto_color6,lime); }
                    .poloto7stroke{stroke:  var(--poloto_color7,chocolate); }
                    .poloto0fill{fill:var(--poloto_color0,blue);}
                    .poloto1fill{fill:var(--poloto_color1,red);}
                    .poloto2fill{fill:var(--poloto_color2,green);}
                    .poloto3fill{fill:var(--poloto_color3,gold);}
                    .poloto4fill{fill:var(--poloto_color4,aqua);}
                    .poloto5fill{fill:var(--poloto_color5,brown);}
                    .poloto6fill{fill:var(--poloto_color6,lime);}
                    .poloto7fill{fill:var(--poloto_color7,chocolate);}</style><rect class="poloto_background" fill="white" x="0" y="0" width="800" height="500"/><line class="poloto_axis_lines" stroke="black" x1="150" x2="150" y1="400" y2="405"/><text class="poloto_text" alignment-baseline="start" text-anchor="middle" x="150" y="430">0</text><line class="poloto_axis_lines" stroke="black" x1="234.17508417508418" x2="234.17508417508418" y1="400" y2="405"/><text class="poloto_text" alignment-baseline="start" text-anchor="middle" x="234.17508417508418" y="430">5000</text><line class="poloto_axis_lines" stroke="black" x1="318.35016835016836" x2="318.35016835016836" y1="400" y2="405"/><text class="poloto_text" alignment-baseline="start" text-anchor="middle" x="318.35016835016836" y="430">10000</text><line class="poloto_axis_lines" stroke="black" x1="402.52525252525254" x2="402.52525252525254" y1="400" y2="405"/><text class="poloto_text" alignment-baseline="start" text-anchor="middle" x="402.52525252525254" y="430">15000</text><line class="poloto_axis_lines" stroke="black" x1="486.7003367003367" x2="486.7003367003367" y1="400" y2="405"/><text class="poloto_text" alignment-baseline="start" text-anchor="middle" x="486.7003367003367" y="430">20000</text><line class="poloto_axis_lines" stroke="black" x1="570.8754208754208" x2="570.8754208754208" y1="400" y2="405"/><text class="poloto_text" alignment-baseline="start" text-anchor="middle" x="570.8754208754208" y="430">25000</text><line class="poloto_axis_lines" stroke="black" x1="150" x2="144" y1="351.0414131044051" y2="351.0414131044051"/><text class="poloto_text" alignment-baseline="middle" text-anchor="end" x="135" y="351.0414131044051">0.002</text><line class="poloto_axis_lines" stroke="black" x1="150" x2="144" y1="302.08001092818495" y2="302.08001092818495"/><text class="poloto_text" alignment-baseline="middle" text-anchor="end" x="135" y="302.08001092818495">0.004</text><line class="poloto_axis_lines" stroke="black" x1="150" x2="144" y1="253.11860875196487" y2="253.11860875196487"/><text class="poloto_text" alignment-baseline="middle" text-anchor="end" x="135" y="253.11860875196487">0.006</text><line class="poloto_axis_lines" stroke="black" x1="150" x2="144" y1="204.1572065757448" y2="204.1572065757448"/><text class="poloto_text" alignment-baseline="middle" text-anchor="end" x="135" y="204.1572065757448">0.008</text><line class="poloto_axis_lines" stroke="black" x1="150" x2="144" y1="155.19580439952475" y2="155.19580439952475"/><text class="poloto_text" alignment-baseline="middle" text-anchor="end" x="135" y="155.19580439952475">0.010</text><line class="poloto_axis_lines" stroke="black" x1="150" x2="144" y1="106.23440222330464" y2="106.23440222330464"/><text class="poloto_text" alignment-baseline="middle" text-anchor="end" x="135" y="106.23440222330464">0.012</text><text class="poloto_text" alignment-baseline="middle" text-anchor="start" font-size="large" x="675" y="100">default_par</text><line class="poloto0stroke" stroke="black" x1="680" x2="730" y1="81.25" y2="81.25"/><polyline class="poloto0stroke" fill="none" stroke="black" points="650,270.1483636568978 644.9494949494949,310.77501737925775 639.8989898989898,313.7653839785726 634.8484848484848,314.0370952799495 629.7979797979798,310.7346976645656 624.7474747474747,314.28755733278194 619.6969696969697,315.2598328571973 614.6464646464647,315.29182913351946 609.5959595959596,316.3202144248288 604.5454545454545,316.0345001624295 599.4949494949494,321.3012292331233 594.4444444444445,319.5495126667636 589.3939393939394,321.151113574051 584.3434343434344,320.6724179449741 579.2929292929293,321.30132715592765 574.2424242424242,323.27070163566174 569.1919191919192,319.5492433790516 564.1414141414141,324.0362621200891 559.090909090909,321.4375377767819 554.040404040404,320.97703130861345 548.989898989899,326.0931306255121 543.939393939394,325.7242554215165 538.8888888888889,329.290799801641 533.8383838383838,326.326211380572 528.7878787878788,327.8537092056657 523.7373737373737,329.35675081037243 518.6868686868687,331.0677314901215 513.6363636363636,330.3792607334206 508.5858585858586,330.25722443849634 503.5353535353535,333.4653468739899 498.4848484848485,329.08981324570766 493.4343434343434,332.00600332072554 488.3838383838384,335.19454119534856 483.3333333333333,334.4514050331179 478.2828282828283,334.61997914081064 473.2323232323232,335.08773189650117 468.1818181818182,335.44833262352904 463.1313131313131,335.9657567217273 458.0808080808081,336.7740605102545 453.030303030303,337.7463849960721 447.979797979798,338.57419990336655 442.9292929292929,340.5181389346701 437.8787878787879,340.24471398421696 432.8282828282828,340.08106049744293 427.77777777777777,341.19101548477784 422.72727272727275,342.4145854058627 417.67676767676767,344.2497566822318 412.62626262626264,345.88239911849894 407.57575757575756,345.98325960698196 402.52525252525254,347.6668708629145 397.47474747474746,349.5784953687818 392.4242424242424,351.46118368596285 387.37373737373736,349.4973173639736 382.32323232323233,349.5867453650485 377.27272727272725,350.6272975647986 372.22222222222223,351.4024544840525 367.1717171717172,354.5135109397317 362.1212121212121,354.2165355548318 357.07070707070704,356.3823921414991 352.020202020202,357.2686424822909 346.969696969697,356.059516174848 341.9191919191919,358.0766280217039 336.86868686868684,357.95510582150257 331.8181818181818,358.46396167432 326.7676767676768,359.88171251643575 321.7171717171717,358.716504586745 316.66666666666663,363.0704951980697 311.6161616161616,361.27001307514246 306.5656565656566,363.4665929416753 301.5151515151515,362.70448423610134 296.4646464646464,364.785147982982 291.4141414141414,365.2973576918485 286.3636363636364,368.72012691448265 281.3131313131313,368.87947179786516 276.26262626262627,369.270085864427 271.2121212121212,373.16969018285533 266.16161616161617,371.6843726057364 261.1111111111111,374.69850996580783 256.06060606060606,376.65209439334006 251.010101010101,375.9416889284642 245.95959595959596,378.12568571463777 240.9090909090909,375.9208558518382 235.85858585858585,377.9838200518322 230.8080808080808,379.2714070062624 225.75757575757575,377.3931007345761 220.7070707070707,379.22521192330913 215.65656565656565,373.73776485160494 210.6060606060606,376.1467392807782 205.55555555555554,378.4579377898056 200.50505050505052,379.62897212635534 195.45454545454544,381.6009170797037 190.40404040404042,383.0089735641885 185.35353535353534,384.0188269647741 180.3030303030303,385.4437016909065 175.25252525252526,387.6506613747007 170.2020202020202,390.1183405250833 165.15151515151516,392.6975292689222 160.1010101010101,395.2296171438676 155.05050505050505,397.83962709037644 150,399.99992655789674 "/><text class="poloto_text" alignment-baseline="middle" text-anchor="start" font-size="large" x="675" y="150">default_seq</text><line class="poloto1stroke" stroke="black" x1="680" x2="730" y1="131.25" y2="131.25"/><polyline class="poloto1stroke" fill="none" stroke="black" points="650,120.78034519583787 644.9494949494949,124.96380324338287 639.8989898989898,131.5961882242769 634.8484848484848,134.30928640306774 629.7979797979798,137.45214328946042 624.7474747474747,140.43438229601395 619.6969696969697,142.23667599082177 614.6464646464647,145.18608637721616 609.5959595959596,139.24190286531103 604.5454545454545,142.11809147475094 599.4949494949494,152.98681281754023 594.4444444444445,156.06530994077224 589.3939393939394,158.33856336311305 584.3434343434344,161.0301185249464 579.2929292929293,163.92016321120212 574.2424242424242,166.58505888955054 569.1919191919192,168.58150902468807 564.1414141414141,172.24318540924105 559.090909090909,174.21657472395358 554.040404040404,177.10872475050294 548.989898989899,179.71503811114746 543.939393939394,182.22690492699408 538.8888888888889,184.85662183787886 533.8383838383838,186.76481904559378 528.7878787878788,189.57718646729697 523.7373737373737,193.07413221422803 518.6868686868687,194.24695364195722 513.6363636363636,197.32175417932493 508.5858585858586,199.81748821315446 503.5353535353535,202.74807294041213 498.4848484848485,204.40627322861525 493.4343434343434,206.7239836041321 488.3838383838384,210.02787454228232 483.3333333333333,212.76080208895456 478.2828282828283,214.9874687371247 473.2323232323232,217.12125560536654 468.1818181818182,219.43546524062776 463.1313131313131,221.83185658944177 458.0808080808081,224.69575588693542 453.030303030303,227.96461494182856 447.979797979798,229.35835021617686 442.9292929292929,232.7663820567559 437.8787878787879,235.76169375769052 432.8282828282828,237.98343978494196 427.77777777777777,240.6045884504459 422.72727272727275,251.04430998736717 417.67676767676767,254.160825639389 412.62626262626264,255.8983433991176 407.57575757575756,259.3204516428224 402.52525252525254,261.14671194399534 397.47474747474746,264.18545240866024 392.4242424242424,266.6258355773296 387.37373737373736,269.55683647650574 382.32323232323233,272.6900234859686 377.27272727272725,275.06859288439045 372.22222222222223,278.13555959741 367.1717171717172,280.7700992064091 362.1212121212121,282.92496395828783 357.07070707070704,286.0350167052224 352.020202020202,288.91710516362457 346.969696969697,291.3322976908742 341.9191919191919,294.1642496734479 336.86868686868684,294.4981419555886 331.8181818181818,299.92749632361074 326.7676767676768,302.07367042660314 321.7171717171717,305.1719479563144 316.66666666666663,307.0883217181927 311.6161616161616,309.99175734794363 306.5656565656566,312.74023013980684 301.5151515151515,315.2085702691188 296.4646464646464,318.20752959451556 291.4141414141414,321.5172959009269 286.3636363636364,327.85924184411164 281.3131313131313,330.21893662199454 276.26262626262627,333.35097303850625 271.2121212121212,335.8566217562765 266.16161616161617,338.4930953406616 261.1111111111111,341.8444788389228 256.06060606060606,344.0043376538235 251.010101010101,346.6565278483071 245.95959595959596,348.9772248693567 240.9090909090909,351.6920122165227 235.85858585858585,353.73475535741784 230.8080808080808,356.2849099897663 225.75757575757575,358.01777641628814 220.7070707070707,360.97487374282423 215.65656565656565,365.51572554555446 210.6060606060606,368.2887035192069 205.55555555555554,371.002438196226 200.50505050505052,373.2177702797924 195.45454545454544,376.1556502559743 190.40404040404042,378.63287687978124 185.35353535353534,381.4929571879051 180.3030303030303,385.18163578575826 175.25252525252526,387.4455620609845 170.2020202020202,389.7531129455498 165.15151515151516,392.49921110940744 160.1010101010101,395.1490021951845 155.05050505050505,397.7687309800253 150,400 "/><text class="poloto_text" alignment-baseline="middle" text-anchor="start" font-size="large" x="675" y="200">direct_par</text><line class="poloto2stroke" stroke="black" x1="680" x2="730" y1="181.25" y2="181.25"/><polyline class="poloto2stroke" fill="none" stroke="black" points="650,287.1213722967084 644.9494949494949,316.0186121874233 639.8989898989898,318.0951631765211 634.8484848484848,319.8145652174445 629.7979797979798,315.2976065789763 624.7474747474747,319.12680440107516 619.6969696969697,316.4699139119826 614.6464646464647,320.23945226552974 609.5959595959596,299.9331024041599 604.5454545454545,322.63532951962094 599.4949494949494,302.3780145025305 594.4444444444445,321.6508136446615 589.3939393939394,322.0640478790288 584.3434343434344,324.92709035198436 579.2929292929293,325.5982287723149 574.2424242424242,328.9720365927728 569.1919191919192,326.0922982816751 564.1414141414141,329.38120703075947 559.090909090909,326.5382876940983 554.040404040404,327.6013131774473 548.989898989899,330.30151002676473 543.939393939394,326.51121203869485 538.8888888888889,331.40982480712677 533.8383838383838,330.54861822354815 528.7878787878788,332.6644362571913 523.7373737373737,334.41446365517595 518.6868686868687,333.35662808045765 513.6363636363636,333.6117414664968 508.5858585858586,331.6041526123642 503.5353535353535,337.1531196859028 498.4848484848485,332.2382517319484 493.4343434343434,335.4092369438913 488.3838383838384,336.583037599664 483.3333333333333,338.02896572873215 478.2828282828283,336.9168074782993 473.2323232323232,336.8752392478517 468.1818181818182,339.442310044652 463.1313131313131,340.83521297516324 458.0808080808081,337.87681817146955 453.030303030303,342.97698055195985 447.979797979798,338.4530449136815 442.9292929292929,341.7197496668789 437.8787878787879,344.0190015937753 432.8282828282828,341.86824959967936 427.77777777777777,345.8024206680441 422.72727272727275,346.35113110223296 417.67676767676767,344.6306274297606 412.62626262626264,349.04883092003945 407.57575757575756,349.0882693294924 402.52525252525254,351.1878566583141 397.47474747474746,351.6423163933138 392.4242424242424,352.48885903694065 387.37373737373736,352.7827008921012 382.32323232323233,351.9867598576235 377.27272727272725,355.00691947016253 372.22222222222223,354.7696769959177 367.1717171717172,354.386896753704 362.1212121212121,354.5730235240769 357.07070707070704,355.598299766348 352.020202020202,358.90045257472104 346.969696969697,359.8465337489721 341.9191919191919,357.8100821482566 336.86868686868684,361.63443279154006 331.8181818181818,359.75541657952215 326.7676767676768,363.1681487147101 321.7171717171717,364.92747877910824 316.66666666666663,362.39401998490195 311.6161616161616,361.33919553641744 306.5656565656566,363.5879927383712 301.5151515151515,365.07847574341974 296.4646464646464,365.9612008632548 291.4141414141414,364.7981227545587 286.3636363636364,372.33352735648987 281.3131313131313,371.7911819045839 276.26262626262627,374.7434320523045 271.2121212121212,371.78249125569755 266.16161616161617,373.19559076460655 261.1111111111111,375.2606603048941 256.06060606060606,376.8289919394028 251.010101010101,378.4409726639515 245.95959595959596,379.2389455966196 240.9090909090909,380.17310466944076 235.85858585858585,379.4765797620819 230.8080808080808,380.015644800042 225.75757575757575,379.0676051697039 220.7070707070707,380.05513217089714 215.65656565656565,374.89259296403435 210.6060606060606,375.49063201091576 205.55555555555554,378.1029921047291 200.50505050505052,378.91908075620233 195.45454545454544,381.0000627521971 190.40404040404042,382.342021343744 185.35353535353534,383.6240511790273 180.3030303030303,386.08252558580074 175.25252525252526,388.28314476801313 170.2020202020202,390.5363240154617 165.15151515151516,392.9557517039996 160.1010101010101,395.40629436362053 155.05050505050505,397.94325389808245 150,399.99904525265754 "/><text class="poloto_text" alignment-baseline="middle" text-anchor="start" font-size="large" x="675" y="250">direct_seq</text><line class="poloto3stroke" stroke="black" x1="680" x2="730" y1="231.25" y2="231.25"/><polyline class="poloto3stroke" fill="none" stroke="black" points="650,142.29736364881916 644.9494949494949,146.39643671971336 639.8989898989898,148.2168706140274 634.8484848484848,149.96540468924564 629.7979797979798,153.2596257504661 624.7474747474747,155.9367128179564 619.6969696969697,157.8424129941603 614.6464646464647,160.17814116567797 609.5959595959596,158.5706648901294 604.5454545454545,162.03370486605348 599.4949494949494,165.5042114558094 594.4444444444445,170.22325828176 589.3939393939394,172.95251372326905 584.3434343434344,174.72357004348837 579.2929292929293,178.08381555554342 574.2424242424242,180.26575596282558 569.1919191919192,182.42443970407408 564.1414141414141,185.54724689627554 559.090909090909,187.02531818587238 554.040404040404,189.48545728031982 548.989898989899,191.40124350537204 543.939393939394,193.77129361981522 538.8888888888889,196.71389837130715 533.8383838383838,198.25796963103753 528.7878787878788,200.8735122159923 523.7373737373737,204.1480018321357 518.6868686868687,205.8544780628846 513.6363636363636,208.13201560791578 508.5858585858586,208.61181286854168 503.5353535353535,212.81409657522337 498.4848484848485,214.56657204331682 493.4343434343434,216.77830546382322 488.3838383838384,219.29744304789298 483.3333333333333,222.5250276407516 478.2828282828283,224.43662766591777 473.2323232323232,226.45799915476303 468.1818181818182,228.3113106306384 463.1313131313131,230.51890681266087 458.0808080808081,233.2477705629525 453.030303030303,236.00938949130003 447.979797979798,237.91912898318347 442.9292929292929,241.09261122663736 437.8787878787879,243.44239132057962 432.8282828282828,245.70565661687647 427.77777777777777,247.77393312900654 422.72727272727275,255.1378504198155 417.67676767676767,257.93653312961044 412.62626262626264,260.35669523918097 407.57575757575756,263.34294908071297 402.52525252525254,265.215331022736 397.47474747474746,268.31985113122465 392.4242424242424,270.35816326522286 387.37373737373736,273.10247433790107 382.32323232323233,276.369595263017 377.27272727272725,279.08239967339483 372.22222222222223,281.5262591016187 367.1717171717172,284.10348938937057 362.1212121212121,286.45006251147026 357.07070707070704,289.5074083089621 352.020202020202,292.35647230159634 346.969696969697,294.7837338144825 341.9191919191919,297.58723922239176 336.86868686868684,300.5304559914109 331.8181818181818,303.3571201425495 326.7676767676768,305.7061902961602 321.7171717171717,308.2032462878485 316.66666666666663,310.27333437185905 311.6161616161616,313.10403783867724 306.5656565656566,315.6726509196461 301.5151515151515,318.1763167006282 296.4646464646464,321.51920539561183 291.4141414141414,324.0545981652041 286.3636363636364,332.878299661897 281.3131313131313,334.7007164929992 276.26262626262627,337.29395715926273 271.2121212121212,339.7954686385491 266.16161616161617,342.2792316095465 261.1111111111111,345.4299223202874 256.06060606060606,347.1482961717651 251.010101010101,349.3863708266423 245.95959595959596,351.5425330556787 240.9090909090909,354.4693722356698 235.85858585858585,356.01620981462315 230.8080808080808,358.49333851562574 225.75757575757575,360.045708733025 220.7070707070707,362.62624391542374 215.65656565656565,365.9902594554464 210.6060606060606,368.9830986055711 205.55555555555554,371.6822427847418 200.50505050505052,374.20821048441513 195.45454545454544,376.7769704495905 190.40404040404042,379.52620214318745 185.35353535353534,382.0819138946829 180.3030303030303,386.0563801970386 175.25252525252526,388.1217924671414 170.2020202020202,390.31984117573955 165.15151515151516,392.80162120994885 160.1010101010101,395.2553708414123 155.05050505050505,397.86599280544834 150,399.9988004456467 "/><text class="poloto_text" alignment-baseline="middle" text-anchor="start" font-size="large" x="675" y="300">indirect_par</text><line class="poloto4stroke" stroke="black" x1="680" x2="730" y1="281.25" y2="281.25"/><polyline class="poloto4stroke" fill="none" stroke="black" points="650,259.30554289585973 644.9494949494949,284.78642750762555 639.8989898989898,296.96381368848193 634.8484848484848,299.6548057941903 629.7979797979798,297.52074963823645 624.7474747474747,301.29452315307185 619.6969696969697,297.9756745065568 614.6464646464647,300.9776204774863 609.5959595959596,287.9069579946258 604.5454545454545,298.9760783565224 599.4949494949494,305.88485045270124 594.4444444444445,306.0719319704166 589.3939393939394,307.0377935511468 584.3434343434344,308.1842982252063 579.2929292929293,309.7882737604993 574.2424242424242,310.44797969342164 569.1919191919192,294.1393038390391 564.1414141414141,311.67377735830553 559.090909090909,310.65332381414873 554.040404040404,311.7222981078621 548.989898989899,312.7794727036511 543.939393939394,312.83663514069184 538.8888888888889,315.5777637222286 533.8383838383838,315.6225878859209 528.7878787878788,320.5442859554789 523.7373737373737,319.34492744777026 518.6868686868687,320.7802799139683 513.6363636363636,318.5301362734547 508.5858585858586,319.0374008807014 503.5353535353535,322.18623105815954 498.4848484848485,319.4120045687516 493.4343434343434,324.35642072891943 488.3838383838384,324.3527731044573 483.3333333333333,323.2267587772086 478.2828282828283,325.0280732439728 473.2323232323232,327.7992886071469 468.1818181818182,327.9780956478944 463.1313131313131,327.2187287808423 458.0808080808081,327.21517907918457 453.030303030303,329.80939897349157 447.979797979798,327.69593108715287 442.9292929292929,331.56290263103074 437.8787878787879,333.502043444921 432.8282828282828,334.1279170489396 427.77777777777777,333.38380165866545 422.72727272727275,337.9036735005632 417.67676767676767,337.3072501799536 412.62626262626264,338.58609752409535 407.57575757575756,339.41432860330826 402.52525252525254,338.9626596682327 397.47474747474746,341.73338541738497 392.4242424242424,341.5677489938228 387.37373737373736,342.84627808885045 382.32323232323233,344.1922759960769 377.27272727272725,347.13664335804714 372.22222222222223,343.99236659099137 367.1717171717172,346.1486267428321 362.1212121212121,347.7746838705066 357.07070707070704,347.4864480958952 352.020202020202,352.75471945075753 346.969696969697,352.6115807914953 341.9191919191919,353.53403808919643 336.86868686868684,353.2000478842513 331.8181818181818,355.0821976260085 326.7676767676768,354.045415454226 321.7171717171717,357.15901790281833 316.66666666666663,354.73175638993223 311.6161616161616,355.3921722631861 306.5656565656566,357.3204926071955 301.5151515151515,358.3063794014158 296.4646464646464,358.9626580361859 291.4141414141414,361.75345796023043 286.3636363636364,363.9761587348243 281.3131313131313,367.1796298371111 276.26262626262627,364.8706101104806 271.2121212121212,366.6878370329521 266.16161616161617,367.4502639876402 261.1111111111111,370.9458877767125 256.06060606060606,372.68071265932144 251.010101010101,373.0060611767824 245.95959595959596,374.13564968638997 240.9090909090909,374.1753573835549 235.85858585858585,375.8765702635698 230.8080808080808,376.5506463680309 225.75757575757575,377.4754538130365 220.7070707070707,376.7363080050832 215.65656565656565,372.1863004201459 210.6060606060606,372.55160144178274 205.55555555555554,375.35442139006153 200.50505050505052,376.5722628270918 195.45454545454544,378.85687529473745 190.40404040404042,380.29609571170744 185.35353535353534,381.79159726047897 180.3030303030303,383.6455941959848 175.25252525252526,386.41423908554464 170.2020202020202,389.1139708015414 165.15151515151516,392.2230932818346 160.1010101010101,394.9259340468696 155.05050505050505,397.6478452780522 150,399.9993635017717 "/><text class="poloto_text" alignment-baseline="middle" text-anchor="start" font-size="large" x="675" y="350">indirect_seq</text><line class="poloto5stroke" stroke="black" x1="680" x2="730" y1="331.25" y2="331.25"/><polyline class="poloto5stroke" fill="none" stroke="black" points="650,100 644.9494949494949,104.86358088517488 639.8989898989898,107.04162886098402 634.8484848484848,110.9727888031149 629.7979797979798,114.81160754074142 624.7474747474747,117.73854464353695 619.6969696969697,120.54552631100074 614.6464646464647,124.4091439988295 609.5959595959596,110.39416295219633 604.5454545454545,128.28571197753394 599.4949494949494,131.6280865777947 594.4444444444445,135.50350396354793 589.3939393939394,137.54343182381797 584.3434343434344,141.12422397197582 579.2929292929293,143.72098985919604 574.2424242424242,147.70441609815 569.1919191919192,148.89114256409724 564.1414141414141,153.2413141860522 559.090909090909,155.67704602151483 554.040404040404,158.34495282609706 548.989898989899,161.42450261947585 543.939393939394,161.94927092800057 538.8888888888889,166.70241937056693 533.8383838383838,169.2187171933105 528.7878787878788,173.1373430164843 523.7373737373737,175.8025324632457 518.6868686868687,177.22466535085624 513.6363636363636,180.50880036322832 508.5858585858586,183.73227219830414 503.5353535353535,187.39754724591705 498.4848484848485,189.05312809910376 493.4343434343434,191.9020207268304 488.3838383838384,194.95863210328963 483.3333333333333,197.82142976923433 478.2828282828283,200.665891390064 473.2323232323232,202.9355216686438 468.1818181818182,204.77894294127955 463.1313131313131,208.15333829856357 458.0808080808081,210.63112797849553 453.030303030303,214.36264780325288 447.979797979798,216.1207538325966 442.9292929292929,219.78328704168763 437.8787878787879,222.96773663922897 432.8282828282828,225.9968317076652 427.77777777777777,226.78121785122934 422.72727272727275,239.167620257976 417.67676767676767,241.83263833982986 412.62626262626264,244.51290789846158 407.57575757575756,248.073846198037 402.52525252525254,250.35052691853014 397.47474747474746,253.14296704954756 392.4242424242424,256.10111704623046 387.37373737373736,259.20404590914836 382.32323232323233,262.2129443991869 377.27272727272725,265.720465808988 372.22222222222223,268.47674794449836 367.1717171717172,271.0978721293012 362.1212121212121,273.64692513010067 357.07070707070704,276.75445636482317 352.020202020202,280.3832306871137 346.969696969697,283.03860337273886 341.9191919191919,286.09303596680127 336.86868686868684,288.7940161985535 331.8181818181818,292.246064339689 326.7676767676768,295.26994501879346 321.7171717171717,298.174384357289 316.66666666666663,300.3525057752014 311.6161616161616,303.32245546980874 306.5656565656566,306.31965218472715 301.5151515151515,309.1259239118594 296.4646464646464,312.47811527325644 291.4141414141414,315.7055285012074 286.3636363636364,321.82330466452834 281.3131313131313,324.70632338957176 276.26262626262627,327.62900085037796 271.2121212121212,330.3999958872422 266.16161616161617,333.34047081773946 261.1111111111111,337.0304468927503 256.06060606060606,339.86269264373703 251.010101010101,342.62198590548115 245.95959595959596,345.28237713482935 240.9090909090909,348.5621545824078 235.85858585858585,350.2214320214588 230.8080808080808,353.0753431929085 225.75757575757575,354.79574894257655 220.7070707070707,358.51657070095837 215.65656565656565,362.88571486625665 210.6060606060606,366.1359930690239 205.55555555555554,368.5009756783419 200.50505050505052,371.7361003271356 195.45454545454544,374.8145974503676 190.40404040404042,377.3625488196181 185.35353535353534,380.33438352820923 180.3030303030303,384.1890167987387 175.25252525252526,386.46528134731335 170.2020202020202,389.0839329813063 165.15151515151516,392.13816972975997 160.1010101010101,394.8730067711171 155.05050505050505,397.64566649565535 150,399.9995593473804 "/><text class="poloto_text" alignment-baseline="start" text-anchor="middle" font-size="x-large" x="400" y="37.5">Bench of query:128_bytes with abspiral(num,0.6)</text><text class="poloto_text" alignment-baseline="start" text-anchor="middle" font-size="x-large" x="400" y="481.25">Number of Elements</text><text class="poloto_text" alignment-baseline="start" text-anchor="middle" font-size="x-large" transform="rotate(-90,37.5,250)" x="37.5" y="250">Time in Seconds</text><path stroke="black" fill="none" class="poloto_axis_lines" d=" M 150 100 L 150 400 L 650 400"/></svg>