<svg class="poloto" width="800" height="500" viewBox="0 0 800 500" xmlns="http://www.w3.org/2000/svg"><circle  r="1e5" class="poloto_background" /><text  class="poloto_text poloto_legend_text" x="675" y="100" >default_seq</text><line  class="poloto_scatter poloto_legend_icon poloto0stroke poloto0legend" stroke="black" x1="685" x2="685" y1="81.25" y2="81.25" /><path  class="poloto_scatter poloto0stroke" d=" M 650.00 245.26 h 0 M 644.95 247.49 h 0 M 639.90 246.59 h 0 M 634.85 249.73 h 0 M 629.80 252.64 h 0 M 624.75 254.37 h 0 M 619.70 254.76 h 0 M 614.65 256.43 h 0 M 609.60 260.07 h 0 M 604.55 257.90 h 0 M 599.49 262.51 h 0 M 594.44 261.80 h 0 M 589.39 267.79 h 0 M 584.34 264.40 h 0 M 579.29 268.51 h 0 M 574.24 270.85 h 0 M 569.19 271.73 h 0 M 564.14 272.10 h 0 M 559.09 276.58 h 0 M 554.04 277.93 h 0 M 548.99 280.21 h 0 M 543.94 279.11 h 0 M 538.89 282.27 h 0 M 533.84 283.81 h 0 M 528.79 285.70 h 0 M 523.74 287.57 h 0 M 518.69 287.60 h 0 M 513.64 285.33 h 0 M 508.59 290.69 h 0 M 503.54 291.54 h 0 M 498.48 294.01 h 0 M 493.43 295.67 h 0 M 488.38 298.56 h 0 M 483.33 298.18 h 0 M 478.28 300.56 h 0 M 473.23 303.97 h 0 M 468.18 302.40 h 0 M 463.13 305.64 h 0 M 458.08 306.21 h 0 M 453.03 308.66 h 0 M 447.98 310.13 h 0 M 442.93 313.20 h 0 M 437.88 313.43 h 0 M 432.83 314.11 h 0 M 427.78 314.31 h 0 M 422.73 318.03 h 0 M 417.68 319.40 h 0 M 412.63 319.25 h 0 M 407.58 323.23 h 0 M 402.53 323.96 h 0 M 397.47 325.96 h 0 M 392.42 328.34 h 0 M 387.37 328.07 h 0 M 382.32 330.14 h 0 M 377.27 331.24 h 0 M 372.22 333.20 h 0 M 367.17 337.36 h 0 M 362.12 336.32 h 0 M 357.07 336.05 h 0 M 352.02 341.52 h 0 M 346.97 343.08 h 0 M 341.92 342.84 h 0 M 336.87 344.38 h 0 M 331.82 345.03 h 0 M 326.77 346.82 h 0 M 321.72 348.84 h 0 M 316.67 350.61 h 0 M 311.62 351.21 h 0 M 306.57 354.29 h 0 M 301.52 355.38 h 0 M 296.46 357.97 h 0 M 291.41 357.25 h 0 M 286.36 365.13 h 0 M 281.31 365.61 h 0 M 276.26 367.16 h 0 M 271.21 368.86 h 0 M 266.16 371.54 h 0 M 261.11 373.14 h 0 M 256.06 373.60 h 0 M 251.01 374.81 h 0 M 245.96 375.35 h 0 M 240.91 376.88 h 0 M 235.86 377.04 h 0 M 230.81 379.72 h 0 M 225.76 381.68 h 0 M 220.71 382.48 h 0 M 215.66 383.75 h 0 M 210.61 385.73 h 0 M 205.56 386.53 h 0 M 200.51 387.75 h 0 M 195.45 388.68 h 0 M 190.40 390.78 h 0 M 185.35 391.21 h 0 M 180.30 393.90 h 0 M 175.25 395.23 h 0 M 170.20 395.78 h 0 M 165.15 396.90 h 0 M 160.10 398.15 h 0 M 155.05 399.26 h 0 M 150.00 399.99 h 0" /><text  class="poloto_text poloto_legend_text" x="675" y="150" >direct_seq</text><line  class="poloto_scatter poloto_legend_icon poloto1stroke poloto1legend" stroke="black" x1="685" x2="685" y1="131.25" y2="131.25" /><path  class="poloto_scatter poloto1stroke" d=" M 650.00 229.37 h 0 M 644.95 232.30 h 0 M 639.90 232.99 h 0 M 634.85 235.46 h 0 M 629.80 238.68 h 0 M 624.75 239.76 h 0 M 619.70 240.14 h 0 M 614.65 242.21 h 0 M 609.60 247.50 h 0 M 604.55 244.10 h 0 M 599.49 248.83 h 0 M 594.44 250.82 h 0 M 589.39 255.46 h 0 M 584.34 252.14 h 0 M 579.29 256.05 h 0 M 574.24 258.62 h 0 M 569.19 261.52 h 0 M 564.14 260.43 h 0 M 559.09 267.43 h 0 M 554.04 266.55 h 0 M 548.99 268.67 h 0 M 543.94 268.61 h 0 M 538.89 273.11 h 0 M 533.84 274.62 h 0 M 528.79 275.25 h 0 M 523.74 276.92 h 0 M 518.69 277.54 h 0 M 513.64 274.79 h 0 M 508.59 273.52 h 0 M 503.54 281.37 h 0 M 498.48 284.58 h 0 M 493.43 287.49 h 0 M 488.38 289.25 h 0 M 483.33 290.20 h 0 M 478.28 291.74 h 0 M 473.23 295.92 h 0 M 468.18 292.59 h 0 M 463.13 298.75 h 0 M 458.08 296.44 h 0 M 453.03 301.24 h 0 M 447.98 303.36 h 0 M 442.93 304.57 h 0 M 437.88 304.94 h 0 M 432.83 306.24 h 0 M 427.78 306.81 h 0 M 422.73 311.12 h 0 M 417.68 311.98 h 0 M 412.63 313.55 h 0 M 407.58 315.75 h 0 M 402.53 316.90 h 0 M 397.47 319.80 h 0 M 392.42 321.45 h 0 M 387.37 322.06 h 0 M 382.32 321.65 h 0 M 377.27 325.23 h 0 M 372.22 323.23 h 0 M 367.17 331.39 h 0 M 362.12 328.45 h 0 M 357.07 332.74 h 0 M 352.02 335.32 h 0 M 346.97 337.41 h 0 M 341.92 337.36 h 0 M 336.87 339.59 h 0 M 331.82 340.97 h 0 M 326.77 342.93 h 0 M 321.72 344.85 h 0 M 316.67 345.96 h 0 M 311.62 345.71 h 0 M 306.57 350.03 h 0 M 301.52 351.04 h 0 M 296.46 354.12 h 0 M 291.41 354.72 h 0 M 286.36 361.70 h 0 M 281.31 362.88 h 0 M 276.26 364.06 h 0 M 271.21 365.70 h 0 M 266.16 369.00 h 0 M 261.11 370.64 h 0 M 256.06 371.06 h 0 M 251.01 371.77 h 0 M 245.96 372.89 h 0 M 240.91 374.52 h 0 M 235.86 375.74 h 0 M 230.81 377.70 h 0 M 225.76 380.11 h 0 M 220.71 381.02 h 0 M 215.66 381.68 h 0 M 210.61 383.94 h 0 M 205.56 384.87 h 0 M 200.51 386.51 h 0 M 195.45 387.37 h 0 M 190.40 389.87 h 0 M 185.35 390.92 h 0 M 180.30 393.44 h 0 M 175.25 394.80 h 0 M 170.20 395.82 h 0 M 165.15 396.79 h 0 M 160.10 398.00 h 0 M 155.05 399.20 h 0 M 150.00 399.98 h 0" /><text  class="poloto_text poloto_legend_text" x="675" y="200" >indirect_seq</text><line  class="poloto_scatter poloto_legend_icon poloto2stroke poloto2legend" stroke="black" x1="685" x2="685" y1="181.25" y2="181.25" /><path  class="poloto_scatter poloto2stroke" d=" M 650.00 132.96 h 0 M 644.95 133.72 h 0 M 639.90 100.00 h 0 M 634.85 141.45 h 0 M 629.80 147.61 h 0 M 624.75 150.48 h 0 M 619.70 148.14 h 0 M 614.65 154.00 h 0 M 609.60 164.27 h 0 M 604.55 153.61 h 0 M 599.49 167.61 h 0 M 594.44 169.70 h 0 M 589.39 178.03 h 0 M 584.34 170.14 h 0 M 579.29 179.16 h 0 M 574.24 185.25 h 0 M 569.19 188.22 h 0 M 564.14 184.78 h 0 M 559.09 196.26 h 0 M 554.04 198.50 h 0 M 548.99 202.75 h 0 M 543.94 202.28 h 0 M 538.89 205.89 h 0 M 533.84 209.59 h 0 M 528.79 214.48 h 0 M 523.74 211.04 h 0 M 518.69 217.24 h 0 M 513.64 200.32 h 0 M 508.59 222.45 h 0 M 503.54 221.54 h 0 M 498.48 227.85 h 0 M 493.43 234.08 h 0 M 488.38 238.56 h 0 M 483.33 235.13 h 0 M 478.28 240.44 h 0 M 473.23 246.50 h 0 M 468.18 239.72 h 0 M 463.13 250.57 h 0 M 458.08 244.42 h 0 M 453.03 252.87 h 0 M 447.98 257.68 h 0 M 442.93 262.67 h 0 M 437.88 262.20 h 0 M 432.83 262.36 h 0 M 427.78 264.51 h 0 M 422.73 268.82 h 0 M 417.68 272.21 h 0 M 412.63 276.79 h 0 M 407.58 279.04 h 0 M 402.53 282.22 h 0 M 397.47 286.74 h 0 M 392.42 281.38 h 0 M 387.37 287.10 h 0 M 382.32 294.07 h 0 M 377.27 292.86 h 0 M 372.22 294.84 h 0 M 367.17 305.07 h 0 M 362.12 302.44 h 0 M 357.07 304.64 h 0 M 352.02 310.87 h 0 M 346.97 312.43 h 0 M 341.92 313.60 h 0 M 336.87 315.72 h 0 M 331.82 320.25 h 0 M 326.77 321.00 h 0 M 321.72 324.37 h 0 M 316.67 325.72 h 0 M 311.62 327.70 h 0 M 306.57 333.15 h 0 M 301.52 333.65 h 0 M 296.46 337.72 h 0 M 291.41 340.10 h 0 M 286.36 347.85 h 0 M 281.31 349.52 h 0 M 276.26 351.22 h 0 M 271.21 353.10 h 0 M 266.16 357.61 h 0 M 261.11 361.64 h 0 M 256.06 361.15 h 0 M 251.01 362.94 h 0 M 245.96 363.76 h 0 M 240.91 366.08 h 0 M 235.86 368.03 h 0 M 230.81 370.75 h 0 M 225.76 374.35 h 0 M 220.71 374.93 h 0 M 215.66 376.34 h 0 M 210.61 379.54 h 0 M 205.56 381.53 h 0 M 200.51 383.12 h 0 M 195.45 384.90 h 0 M 190.40 386.98 h 0 M 185.35 388.71 h 0 M 180.30 391.87 h 0 M 175.25 393.47 h 0 M 170.20 395.06 h 0 M 165.15 396.34 h 0 M 160.10 397.72 h 0 M 155.05 399.12 h 0 M 150.00 399.99 h 0" /><text  class="poloto_labels poloto_text poloto_title" x="400" y="37.5" >Bench of rebal:16_bytes with abspiral(num,1.5)</text><text  class="poloto_labels poloto_text poloto_xname" x="400" y="481.25" >Number of Elements</text><text  class="poloto_labels poloto_text poloto_yname" transform="rotate(-90,37.5,250)" x="37.5" y="250" >Time in Seconds</text><text  class="poloto_tick_labels poloto_text" dominant-baseline="middle" text-anchor="start" x="150" y="70" ></text><line  class="poloto_axis_lines" stroke="black" x1="150" x2="144" y1="400" y2="400" /><text  class="poloto_tick_labels poloto_text" dominant-baseline="middle" text-anchor="end" x="135" y="400" >0e0</text><line  class="poloto_axis_lines" stroke="black" x1="150" x2="144" y1="335.2840029173972" y2="335.2840029173972" /><text  class="poloto_tick_labels poloto_text" dominant-baseline="middle" text-anchor="end" x="135" y="335.2840029173972" >0.001</text><line  class="poloto_axis_lines" stroke="black" x1="150" x2="144" y1="270.56800583479435" y2="270.56800583479435" /><text  class="poloto_tick_labels poloto_text" dominant-baseline="middle" text-anchor="end" x="135" y="270.56800583479435" >0.002</text><line  class="poloto_axis_lines" stroke="black" x1="150" x2="144" y1="205.85200875219147" y2="205.85200875219147" /><text  class="poloto_tick_labels poloto_text" dominant-baseline="middle" text-anchor="end" x="135" y="205.85200875219147" >0.003</text><line  class="poloto_axis_lines" stroke="black" x1="150" x2="144" y1="141.13601166958864" y2="141.13601166958864" /><text  class="poloto_tick_labels poloto_text" dominant-baseline="middle" text-anchor="end" x="135" y="141.13601166958864" >0.004</text><text  class="poloto_tick_labels poloto_text" dominant-baseline="middle" text-anchor="start" x="440.00000000000006" y="70" ></text><line  class="poloto_axis_lines" stroke="black" x1="150" x2="150" y1="400" y2="405" /><text  class="poloto_tick_labels poloto_text" dominant-baseline="start" text-anchor="middle" x="150" y="430" >0</text><line  class="poloto_axis_lines" stroke="black" x1="234.17508417508418" x2="234.17508417508418" y1="400" y2="405" /><text  class="poloto_tick_labels poloto_text" dominant-baseline="start" text-anchor="middle" x="234.17508417508418" y="430" >5000</text><line  class="poloto_axis_lines" stroke="black" x1="318.35016835016836" x2="318.35016835016836" y1="400" y2="405" /><text  class="poloto_tick_labels poloto_text" dominant-baseline="start" text-anchor="middle" x="318.35016835016836" y="430" >10000</text><line  class="poloto_axis_lines" stroke="black" x1="402.52525252525254" x2="402.52525252525254" y1="400" y2="405" /><text  class="poloto_tick_labels poloto_text" dominant-baseline="start" text-anchor="middle" x="402.52525252525254" y="430" >15000</text><line  class="poloto_axis_lines" stroke="black" x1="486.7003367003367" x2="486.7003367003367" y1="400" y2="405" /><text  class="poloto_tick_labels poloto_text" dominant-baseline="start" text-anchor="middle" x="486.7003367003367" y="430" >20000</text><line  class="poloto_axis_lines" stroke="black" x1="570.8754208754208" x2="570.8754208754208" y1="400" y2="405" /><text  class="poloto_tick_labels poloto_text" dominant-baseline="start" text-anchor="middle" x="570.8754208754208" y="430" >25000</text><path  stroke="black" fill="none" class="poloto_axis_lines" style="stroke-dasharray:8.417508417508419;stroke-dashoffset:-0;" d=" M 150 400 L 650 400" /><path  stroke="black" fill="none" class="poloto_axis_lines" style="stroke-dasharray:6.471599708260284;stroke-dashoffset:-0;" d=" M 150 400 L 150 100" /></svg>