<svg class="poloto" height="500" viewBox="0 0 800 500" width="800" xmlns="http://www.w3.org/2000/svg">
<rect class="poloto_background" fill="white" height="500" width="800" x="0" y="0"/>
<style>
.poloto {
font-family: "Arial";
stroke-width:2;
}
.poloto_text{fill: var(--poloto_fg_color,black);  }
.poloto_axis_lines{stroke: var(--poloto_fg_color,black);stoke-width:3;fill:none}
.poloto_background{fill: var(--poloto_bg_color,aliceblue); }
.poloto0stroke{stroke:  var(--poloto_color0,blue); }
.poloto1stroke{stroke:  var(--poloto_color1,red); }
.poloto2stroke{stroke:  var(--poloto_color2,green); }
.poloto3stroke{stroke:  var(--poloto_color3,gold); }
.poloto4stroke{stroke:  var(--poloto_color4,aqua); }
.poloto5stroke{stroke:  var(--poloto_color5,brown); }
.poloto6stroke{stroke:  var(--poloto_color6,lime); }
.poloto7stroke{stroke:  var(--poloto_color7,chocolate); }
.poloto0fill{fill:var(--poloto_color0,blue);}
.poloto1fill{fill:var(--poloto_color1,red);}
.poloto2fill{fill:var(--poloto_color2,green);}
.poloto3fill{fill:var(--poloto_color3,gold);}
.poloto4fill{fill:var(--poloto_color4,aqua);}
.poloto5fill{fill:var(--poloto_color5,brown);}
.poloto6fill{fill:var(--poloto_color6,lime);}
.poloto7fill{fill:var(--poloto_color7,chocolate);}
</style>
<line class="poloto_axis_lines" stroke="black" x1="150" x2="150" y1="400" y2="405"/>
<text alignment-baseline="start" class="poloto_text" text-anchor="middle" x="150" y="440">
0
</text>
<line class="poloto_axis_lines" stroke="black" x1="234.17508" x2="234.17508" y1="400" y2="405"/>
<text alignment-baseline="start" class="poloto_text" text-anchor="middle" x="234.17508" y="440">
5000
</text>
<line class="poloto_axis_lines" stroke="black" x1="318.35016" x2="318.35016" y1="400" y2="405"/>
<text alignment-baseline="start" class="poloto_text" text-anchor="middle" x="318.35016" y="440">
10000
</text>
<line class="poloto_axis_lines" stroke="black" x1="402.52527" x2="402.52527" y1="400" y2="405"/>
<text alignment-baseline="start" class="poloto_text" text-anchor="middle" x="402.52527" y="440">
15000
</text>
<line class="poloto_axis_lines" stroke="black" x1="486.70035" x2="486.70035" y1="400" y2="405"/>
<text alignment-baseline="start" class="poloto_text" text-anchor="middle" x="486.70035" y="440">
20000
</text>
<line class="poloto_axis_lines" stroke="black" x1="570.8754" x2="570.8754" y1="400" y2="405"/>
<text alignment-baseline="start" class="poloto_text" text-anchor="middle" x="570.8754" y="440">
25000
</text>
<line class="poloto_axis_lines" stroke="black" x1="150" x2="144" y1="364.8146" y2="364.8146"/>
<text alignment-baseline="middle" class="poloto_text" text-anchor="end" x="120" y="364.8146">
0.0005
</text>
<line class="poloto_axis_lines" stroke="black" x1="150" x2="144" y1="329.617" y2="329.617"/>
<text alignment-baseline="middle" class="poloto_text" text-anchor="end" x="120" y="329.617">
0.0010
</text>
<line class="poloto_axis_lines" stroke="black" x1="150" x2="144" y1="294.41943" y2="294.41943"/>
<text alignment-baseline="middle" class="poloto_text" text-anchor="end" x="120" y="294.41943">
0.0015
</text>
<line class="poloto_axis_lines" stroke="black" x1="150" x2="144" y1="259.22186" y2="259.22186"/>
<text alignment-baseline="middle" class="poloto_text" text-anchor="end" x="120" y="259.22186">
0.0020
</text>
<line class="poloto_axis_lines" stroke="black" x1="150" x2="144" y1="224.02429" y2="224.02429"/>
<text alignment-baseline="middle" class="poloto_text" text-anchor="end" x="120" y="224.02429">
0.0025
</text>
<line class="poloto_axis_lines" stroke="black" x1="150" x2="144" y1="188.82669" y2="188.82669"/>
<text alignment-baseline="middle" class="poloto_text" text-anchor="end" x="120" y="188.82669">
0.0030
</text>
<line class="poloto_axis_lines" stroke="black" x1="150" x2="144" y1="153.62912" y2="153.62912"/>
<text alignment-baseline="middle" class="poloto_text" text-anchor="end" x="120" y="153.62912">
0.0035
</text>
<line class="poloto_axis_lines" stroke="black" x1="150" x2="144" y1="118.43155" y2="118.43155"/>
<text alignment-baseline="middle" class="poloto_text" text-anchor="end" x="120" y="118.43155">
0.0040
</text>
<text alignment-baseline="middle" class="poloto_text" font-size="large" text-anchor="start" x="675" y="100">
default_par
</text>
<line class="poloto0stroke" x1="680" x2="730" y1="81.25" y2="81.25"/>
<polyline class="poloto0stroke" fill="none" points="650,315.28717 644.94946,317.98047 639.899,318.31134 634.8485,319.7988 629.798,321.77692 624.7475,324.48126 619.697,319.03705 614.6465,324.39096 609.59595,326.06876 604.5455,322.90463 599.495,323.48407 594.44446,267.34842 589.3939,320.3034 584.34344,316.9837 579.29297,324.48535 574.24243,324.1202 569.1919,329.85687 564.1414,320.87775 559.09094,320.2392 554.0404,329.7669 548.98987,322.59186 543.9394,326.72504 538.8889,325.3008 533.8384,332.65442 528.78784,334.75095 523.73737,333.56366 518.6869,333.30093 513.63635,334.78162 508.58588,331.65158 503.53537,342.154 498.48486,343.4895 493.43436,335.08517 488.38385,344.7627 483.33334,345.87155 478.28284,346.06168 473.23233,332.80466 468.18182,341.82178 463.13132,347.008 458.0808,346.89313 453.0303,343.78418 447.9798,345.78278 442.9293,346.51367 437.87878,348.56317 432.82828,346.25702 427.77777,295.88922 422.72726,331.7132 417.67676,356.36282 412.62628,356.78406 407.57578,347.68677 402.52527,357.31476 397.47473,347.12894 392.42426,353.56854 387.37375,360.237 382.32324,360.8514 377.27274,350.94022 372.22223,286.32422 367.17172,361.4804 362.12122,362.46423 357.0707,337.9474 352.0202,358.38104 346.9697,351.63016 341.9192,355.6134 336.86868,364.88034 331.81818,308.2071 326.7677,366.1516 321.71716,360.78012 316.6667,363.69806 311.61615,360.6247 306.56567,365.61902 301.51514,360.40216 296.46466,363.72488 291.41412,341.96075 286.36365,357.18137 281.31314,363.75107 276.26263,360.00177 271.21213,376.81747 266.16162,373.5769 261.1111,371.74213 256.0606,372.762 251.0101,362.78857 245.9596,374.04425 240.90909,372.88928 235.85858,373.9112 230.80807,377.26096 225.75757,383.35352 220.70706,364.47156 215.65657,371.78442 210.60606,380.5798 205.55556,376.9608 200.50505,386.59732 195.45454,378.80225 190.40404,382.97754 185.35353,385.94348 180.30302,389.57132 175.25253,387.12537 170.20203,392.7845 165.15152,394.96155 160.10101,396.67017 155.0505,398.54373 150,399.99994 " stroke="black"/>
<text alignment-baseline="middle" class="poloto_text" font-size="large" text-anchor="start" x="675" y="150">
default_seq
</text>
<line class="poloto1stroke" x1="680" x2="730" y1="131.25" y2="131.25"/>
<polyline class="poloto1stroke" fill="none" points="650,176.6204 644.94946,179.03545 639.899,180.86221 634.8485,179.33379 629.798,183.03952 624.7475,185.37045 619.697,190.41483 614.6465,192.94223 609.59595,192.58124 604.5455,194.79799 599.495,201.37155 594.44446,198.21255 589.3939,203.65953 584.34344,204.74522 579.29297,208.2769 574.24243,208.19376 569.1919,207.38759 564.1414,211.47888 559.09094,216.34488 554.0404,214.95956 548.98987,220.59921 543.9394,222.56754 538.8889,225.18376 533.8384,226.59836 528.78784,227.37834 523.73737,232.34428 518.6869,233.40782 513.63635,236.88683 508.58588,235.04668 503.53537,239.35219 498.48486,238.49585 493.43436,242.84212 488.38385,246.28719 483.33334,250.78888 478.28284,250.70735 473.23233,255.07256 468.18182,257.9077 463.13132,259.33032 458.0808,258.99384 453.0303,262.62146 447.9798,264.06458 442.9293,267.90405 437.87878,268.8807 432.82828,270.85486 427.77777,271.8363 422.72726,286.70978 417.67676,282.719 412.62628,289.24167 407.57578,287.10284 402.52527,283.12897 397.47473,279.09027 392.42426,294.30167 387.37375,299.26776 382.32324,283.33502 377.27274,302.94604 372.22223,305.1331 367.17172,308.4972 362.12122,308.85672 357.0707,309.61838 352.0202,312.66086 346.9697,313.6652 341.9192,313.29083 336.86868,320.93222 331.81818,320.9513 326.7677,322.95532 321.71716,325.63788 316.6667,320.4124 311.61615,330.6559 306.56567,331.8334 301.51514,334.19385 296.46466,336.71658 291.41412,339.09946 286.36365,338.21854 281.31314,347.03885 276.26263,348.8002 271.21213,346.0851 266.16162,347.9085 261.1111,354.56555 256.0606,356.6768 251.0101,359.20615 245.9596,361.55396 240.90909,357.74445 235.85858,365.07724 230.80807,367.691 225.75757,369.4138 220.70706,369.68103 215.65657,375.37964 210.60606,377.478 205.55556,379.09293 200.50505,380.65295 195.45454,382.59592 190.40404,383.5871 185.35353,384.85977 180.30302,389.08502 175.25253,390.60837 170.20203,392.23578 165.15152,392.87094 160.10101,396.27194 155.0505,398.34192 150,399.99796 " stroke="black"/>
<text alignment-baseline="middle" class="poloto_text" font-size="large" text-anchor="start" x="675" y="200">
direct_par
</text>
<line class="poloto2stroke" x1="680" x2="730" y1="181.25" y2="181.25"/>
<polyline class="poloto2stroke" fill="none" points="650,280.40784 644.94946,290.39496 639.899,284.10416 634.8485,288.4532 629.798,296.89636 624.7475,293.71002 619.697,296.3803 614.6465,299.953 609.59595,292.91708 604.5455,301.3079 599.495,299.81552 594.44446,296.7412 589.3939,302.21732 584.34344,295.27658 579.29297,297.89575 574.24243,303.24045 569.1919,301.54886 564.1414,308.18024 559.09094,311.06274 554.0404,309.6065 548.98987,302.35312 543.9394,300.33734 538.8889,308.49313 533.8384,311.0327 528.78784,316.63684 523.73737,311.86203 518.6869,320.78467 513.63635,318.31256 508.58588,311.22662 503.53537,318.5523 498.48486,317.9956 493.43436,316.6845 488.38385,302.1513 483.33334,325.39993 478.28284,311.83047 473.23233,318.9119 468.18182,328.86386 463.13132,321.73523 458.0808,330.70154 453.0303,321.8703 447.9798,332.0239 442.9293,325.7976 437.87878,312.199 432.82828,335.00964 427.77777,334.35257 422.72726,338.36786 417.67676,313.80908 412.62628,314.15106 407.57578,303.54575 402.52527,317.48703 397.47473,329.93512 392.42426,331.63596 387.37375,338.22458 382.32324,334.0373 377.27274,281.80484 372.22223,339.98157 367.17172,353.8372 362.12122,320.5639 357.0707,319.66962 352.0202,343.72443 346.9697,348.90656 341.9192,326.0159 336.86868,355.86014 331.81818,348.48505 326.7677,347.71835 321.71716,322.91843 316.6667,357.28748 311.61615,209.07228 306.56567,362.39145 301.51514,352.2519 296.46466,352.85974 291.41412,359.67703 286.36365,369.70813 281.31314,369.69516 276.26263,365.32715 271.21213,371.56555 266.16162,373.2642 261.1111,368.23587 256.0606,368.52597 251.0101,372.15906 245.9596,366.50586 240.90909,361.36545 235.85858,372.3532 230.80807,371.7947 225.75757,374.5858 220.70706,377.69458 215.65657,378.85687 210.60606,369.6806 205.55556,375.1845 200.50505,349.7206 195.45454,371.85495 190.40404,383.93942 185.35353,380.6973 180.30302,387.47086 175.25253,389.62848 170.20203,391.42673 165.15152,394.50412 160.10101,396.07187 155.0505,398.29596 150,399.99542 " stroke="black"/>
<text alignment-baseline="middle" class="poloto_text" font-size="large" text-anchor="start" x="675" y="250">
direct_seq
</text>
<line class="poloto3stroke" x1="680" x2="730" y1="231.25" y2="231.25"/>
<polyline class="poloto3stroke" fill="none" points="650,100 644.94946,104.09848 639.899,109.88568 634.8485,106.77664 629.798,110.30664 624.7475,114.40967 619.697,122.084656 614.6465,127.0014 609.59595,126.32526 604.5455,129.26144 599.495,138.52594 594.44446,134.9462 589.3939,140.08093 584.34344,139.40509 579.29297,148.33084 574.24243,146.5143 569.1919,142.94681 564.1414,149.96895 559.09094,157.52234 554.0404,157.754 548.98987,165.802 543.9394,166.14983 538.8889,169.99966 533.8384,173.35153 528.78784,174.03775 523.73737,179.87863 518.6869,181.29695 513.63635,188.228 508.58588,183.85385 503.53537,189.88306 498.48486,194.43657 493.43436,186.8351 488.38385,195.95668 483.33334,204.38298 478.28284,205.17282 473.23233,210.90433 468.18182,214.35664 463.13132,215.98996 458.0808,216.66074 453.0303,221.15553 447.9798,224.18558 442.9293,227.8009 437.87878,229.62837 432.82828,233.26773 427.77777,234.65578 422.72726,250.37495 417.67676,244.9092 412.62628,252.98822 407.57578,255.14226 402.52527,260.47095 397.47473,215.23051 392.42426,209.21526 387.37375,234.63086 382.32324,275.43036 377.27274,277.18967 372.22223,277.29968 367.17172,270.57 362.12122,241.08716 357.0707,286.3689 352.0202,287.87408 346.9697,257.5402 341.9192,293.69598 336.86868,297.9813 331.81818,280.69562 326.7677,301.6693 321.71716,305.14703 316.6667,297.06946 311.61615,313.8742 306.56567,306.72214 301.51514,316.2245 296.46466,318.747 291.41412,322.591 286.36365,323.68723 281.31314,332.16052 276.26263,336.73193 271.21213,338.5365 266.16162,340.96487 261.1111,342.59015 256.0606,346.52255 251.0101,344.89905 245.9596,351.59607 240.90909,354.94196 235.85858,356.21338 230.80807,355.11758 225.75757,353.74228 220.70706,364.25876 215.65657,366.45917 210.60606,372.87802 205.55556,374.60327 200.50505,377.0278 195.45454,377.5628 190.40404,381.16998 185.35353,382.80725 180.30302,386.68384 175.25253,388.796 170.20203,390.6861 165.15152,394.0381 160.10101,395.56854 155.0505,398.04407 150,399.99493 " stroke="black"/>
<text alignment-baseline="middle" class="poloto_text" font-size="large" text-anchor="start" x="675" y="300">
indirect_par
</text>
<line class="poloto4stroke" x1="680" x2="730" y1="281.25" y2="281.25"/>
<polyline class="poloto4stroke" fill="none" points="650,305.54926 644.94946,311.60635 639.899,305.29614 634.8485,311.40277 629.798,316.49994 624.7475,310.42035 619.697,308.51776 614.6465,321.81738 609.59595,313.20987 604.5455,319.31357 599.495,321.85773 594.44446,305.02863 589.3939,315.7606 584.34344,323.2519 579.29297,316.48242 574.24243,316.30896 569.1919,318.12558 564.1414,326.09784 559.09094,328.21167 554.0404,326.73096 548.98987,326.19342 543.9394,317.2987 538.8889,323.37366 533.8384,331.53992 528.78784,320.03186 523.73737,334.68716 518.6869,319.87772 513.63635,324.79138 508.58588,334.3511 503.53537,331.0592 498.48486,293.4189 493.43436,315.99408 488.38385,301.0085 483.33334,331.6965 478.28284,326.39905 473.23233,331.39832 468.18182,341.40497 463.13132,334.67035 458.0808,336.26428 453.0303,339.2483 447.9798,347.25107 442.9293,342.98605 437.87878,335.4284 432.82828,242.71167 427.77777,337.6039 422.72726,343.3806 417.67676,343.9919 412.62628,345.33353 407.57578,351.89752 402.52527,264.09418 397.47473,336.88406 392.42426,346.90283 387.37375,315.29626 382.32324,357.0713 377.27274,356.68896 372.22223,354.39655 367.17172,320.36258 362.12122,349.07437 357.0707,358.1622 352.0202,343.69 346.9697,295.1051 341.9192,359.9388 336.86868,352.2414 331.81818,367.88608 326.7677,342.39453 321.71716,371.7272 316.6667,341.65424 311.61615,365.29208 306.56567,329.47025 301.51514,358.47144 296.46466,369.67426 291.41412,365.13132 286.36365,373.6511 281.31314,374.2032 276.26263,366.6885 271.21213,364.27945 266.16162,366.1036 261.1111,367.9888 256.0606,363.17188 251.0101,366.84882 245.9596,380.5123 240.90909,365.65393 235.85858,345.30563 230.80807,376.27072 225.75757,380.1946 220.70706,360.5828 215.65657,375.6749 210.60606,382.13785 205.55556,378.77826 200.50505,387.39963 195.45454,374.80255 190.40404,363.66928 185.35353,384.54193 180.30302,390.277 175.25253,392.27112 170.20203,393.10107 165.15152,395.31216 160.10101,397.08923 155.0505,398.73224 150,399.99127 " stroke="black"/>
<text alignment-baseline="middle" class="poloto_text" font-size="large" text-anchor="start" x="675" y="350">
indirect_seq
</text>
<line class="poloto5stroke" x1="680" x2="730" y1="331.25" y2="331.25"/>
<polyline class="poloto5stroke" fill="none" points="650,175.26396 644.94946,176.59575 639.899,178.86545 634.8485,168.75261 629.798,176.16016 624.7475,177.16539 619.697,181.35376 614.6465,193.32129 609.59595,192.66028 604.5455,194.20378 599.495,202.25142 594.44446,197.74008 589.3939,205.63237 584.34344,204.40874 579.29297,209.53351 574.24243,200.74678 569.1919,202.41411 564.1414,204.85013 559.09094,210.2172 554.0404,214.89896 548.98987,214.98795 543.9394,218.85095 538.8889,227.01945 533.8384,224.29861 528.78784,224.33502 523.73737,230.1036 518.6869,229.49695 513.63635,239.80307 508.58588,231.29117 503.53537,236.22728 498.48486,238.8343 493.43436,240.68977 488.38385,245.02718 483.33334,253.57532 478.28284,131.14035 473.23233,258.55832 468.18182,260.799 463.13132,260.21317 458.0808,261.7818 453.0303,265.56186 447.9798,266.43988 442.9293,271.69214 437.87878,267.02383 432.82828,270.7533 427.77777,271.28033 422.72726,245.66284 417.67676,279.34747 412.62628,261.3429 407.57578,288.35046 402.52527,296.83447 397.47473,297.30438 392.42426,295.12268 387.37375,302.6953 382.32324,301.38406 377.27274,301.42523 372.22223,300.235 367.17172,310.81638 362.12122,313.00702 357.0707,302.0774 352.0202,289.5557 346.9697,317.01355 341.9192,308.35657 336.86868,317.6445 331.81818,321.35776 326.7677,323.3437 321.71716,320.91687 316.6667,328.7463 311.61615,326.81946 306.56567,335.4278 301.51514,335.5348 296.46466,331.2138 291.41412,341.60193 286.36365,348.41922 281.31314,349.8372 276.26263,352.5377 271.21213,353.97446 266.16162,356.28137 261.1111,357.53503 256.0606,359.85773 251.0101,362.01147 245.9596,362.74237 240.90909,366.20456 235.85858,367.80493 230.80807,370.48874 225.75757,371.57297 220.70706,368.99008 215.65657,377.5909 210.60606,378.7655 205.55556,381.18182 200.50505,382.52524 195.45454,384.13998 190.40404,385.54993 185.35353,386.4788 180.30302,390.15714 175.25253,391.62796 170.20203,393.10922 165.15152,395.49457 160.10101,396.6602 155.0505,398.56107 150,400 " stroke="black"/>
<text alignment-baseline="start" class="poloto_text" font-size="x-large" text-anchor="middle" x="400" y="37.5">
Bench of rebal:32_bytes with abspiral(num,0.1)
</text>
<text alignment-baseline="start" class="poloto_text" font-size="large" text-anchor="middle" x="400" y="481.25">
Number of Elements
</text>
<text alignment-baseline="start" class="poloto_text" font-size="large" text-anchor="middle" transform="rotate(-90,37.5,250)" x="37.5" y="250">
Time in Seconds
</text>
<path class="poloto_axis_lines" d="M150,100 L150,400 L650,400" stroke="black"/>
</svg>