<svg class="poloto" width="800" height="500" viewBox="0 0 800 500" xmlns="http://www.w3.org/2000/svg"><circle  r="1e5" class="poloto_background" /><text  class="poloto_text poloto_legend_text" x="675" y="100" >default_par</text><line  class="poloto_scatter poloto_legend_icon poloto0stroke poloto0legend" stroke="black" x1="685" x2="685" y1="81.25" y2="81.25" /><path  class="poloto_scatter poloto0stroke" d=" M 650.00 350.83 h 0 M 644.95 348.13 h 0 M 639.90 349.54 h 0 M 634.85 348.07 h 0 M 629.80 350.05 h 0 M 624.75 345.76 h 0 M 619.70 356.51 h 0 M 614.65 358.13 h 0 M 609.60 349.31 h 0 M 604.55 353.14 h 0 M 599.49 351.94 h 0 M 594.44 347.58 h 0 M 589.39 352.85 h 0 M 584.34 350.41 h 0 M 579.29 352.80 h 0 M 574.24 353.02 h 0 M 569.19 355.38 h 0 M 564.14 357.02 h 0 M 559.09 345.87 h 0 M 554.04 353.08 h 0 M 548.99 353.73 h 0 M 543.94 351.62 h 0 M 538.89 357.07 h 0 M 533.84 355.89 h 0 M 528.79 358.66 h 0 M 523.74 361.51 h 0 M 518.69 360.22 h 0 M 513.64 361.62 h 0 M 508.59 362.06 h 0 M 503.54 363.03 h 0 M 498.48 361.99 h 0 M 493.43 361.10 h 0 M 488.38 362.22 h 0 M 483.33 364.17 h 0 M 478.28 363.88 h 0 M 473.23 363.74 h 0 M 468.18 363.65 h 0 M 463.13 366.46 h 0 M 458.08 368.98 h 0 M 453.03 362.91 h 0 M 447.98 365.49 h 0 M 442.93 362.16 h 0 M 437.88 367.66 h 0 M 432.83 318.33 h 0 M 427.78 366.23 h 0 M 422.73 367.25 h 0 M 417.68 369.28 h 0 M 412.63 367.88 h 0 M 407.58 369.00 h 0 M 402.53 369.74 h 0 M 397.47 371.92 h 0 M 392.42 369.66 h 0 M 387.37 370.56 h 0 M 382.32 372.06 h 0 M 377.27 375.05 h 0 M 372.22 373.41 h 0 M 367.17 372.09 h 0 M 362.12 373.62 h 0 M 357.07 375.15 h 0 M 352.02 374.03 h 0 M 346.97 375.01 h 0 M 341.92 376.67 h 0 M 336.87 378.45 h 0 M 331.82 377.05 h 0 M 326.77 380.01 h 0 M 321.72 381.13 h 0 M 316.67 379.60 h 0 M 311.62 380.12 h 0 M 306.57 380.52 h 0 M 301.52 381.49 h 0 M 296.46 379.17 h 0 M 291.41 382.19 h 0 M 286.36 381.10 h 0 M 281.31 381.72 h 0 M 276.26 382.39 h 0 M 271.21 382.30 h 0 M 266.16 384.51 h 0 M 261.11 382.97 h 0 M 256.06 384.01 h 0 M 251.01 386.13 h 0 M 245.96 386.68 h 0 M 240.91 387.40 h 0 M 235.86 388.28 h 0 M 230.81 390.25 h 0 M 225.76 389.60 h 0 M 220.71 390.39 h 0 M 215.66 389.23 h 0 M 210.61 389.50 h 0 M 205.56 390.45 h 0 M 200.51 390.09 h 0 M 195.45 390.89 h 0 M 190.40 390.98 h 0 M 185.35 393.07 h 0 M 180.30 396.20 h 0 M 175.25 396.90 h 0 M 170.20 397.21 h 0 M 165.15 398.14 h 0 M 160.10 398.71 h 0 M 155.05 399.47 h 0 M 150.00 400.00 h 0" /><text  class="poloto_text poloto_legend_text" x="675" y="150" >default_seq</text><line  class="poloto_scatter poloto_legend_icon poloto1stroke poloto1legend" stroke="black" x1="685" x2="685" y1="131.25" y2="131.25" /><path  class="poloto_scatter poloto1stroke" d=" M 650.00 293.90 h 0 M 644.95 296.36 h 0 M 639.90 294.77 h 0 M 634.85 298.69 h 0 M 629.80 300.21 h 0 M 624.75 298.59 h 0 M 619.70 300.56 h 0 M 614.65 306.00 h 0 M 609.60 303.67 h 0 M 604.55 304.00 h 0 M 599.49 303.26 h 0 M 594.44 305.65 h 0 M 589.39 307.50 h 0 M 584.34 307.81 h 0 M 579.29 307.66 h 0 M 574.24 311.80 h 0 M 569.19 312.78 h 0 M 564.14 313.48 h 0 M 559.09 314.01 h 0 M 554.04 317.68 h 0 M 548.99 315.66 h 0 M 543.94 317.65 h 0 M 538.89 318.34 h 0 M 533.84 320.48 h 0 M 528.79 322.11 h 0 M 523.74 321.87 h 0 M 518.69 320.14 h 0 M 513.64 322.78 h 0 M 508.59 323.70 h 0 M 503.54 326.01 h 0 M 498.48 328.09 h 0 M 493.43 328.55 h 0 M 488.38 330.01 h 0 M 483.33 329.23 h 0 M 478.28 332.66 h 0 M 473.23 327.75 h 0 M 468.18 333.32 h 0 M 463.13 334.58 h 0 M 458.08 335.24 h 0 M 453.03 338.45 h 0 M 447.98 340.39 h 0 M 442.93 338.47 h 0 M 437.88 341.28 h 0 M 432.83 341.07 h 0 M 427.78 341.98 h 0 M 422.73 343.88 h 0 M 417.68 344.81 h 0 M 412.63 345.65 h 0 M 407.58 347.26 h 0 M 402.53 347.74 h 0 M 397.47 348.82 h 0 M 392.42 350.53 h 0 M 387.37 352.07 h 0 M 382.32 352.84 h 0 M 377.27 352.54 h 0 M 372.22 354.98 h 0 M 367.17 355.52 h 0 M 362.12 356.81 h 0 M 357.07 358.67 h 0 M 352.02 360.11 h 0 M 346.97 360.82 h 0 M 341.92 361.59 h 0 M 336.87 363.28 h 0 M 331.82 363.76 h 0 M 326.77 365.23 h 0 M 321.72 366.15 h 0 M 316.67 366.96 h 0 M 311.62 368.28 h 0 M 306.57 366.54 h 0 M 301.52 369.31 h 0 M 296.46 371.22 h 0 M 291.41 371.97 h 0 M 286.36 375.52 h 0 M 281.31 377.24 h 0 M 276.26 378.77 h 0 M 271.21 379.23 h 0 M 266.16 380.47 h 0 M 261.11 380.89 h 0 M 256.06 377.41 h 0 M 251.01 382.70 h 0 M 245.96 383.20 h 0 M 240.91 383.79 h 0 M 235.86 385.27 h 0 M 230.81 386.06 h 0 M 225.76 387.09 h 0 M 220.71 387.55 h 0 M 215.66 388.04 h 0 M 210.61 389.97 h 0 M 205.56 390.19 h 0 M 200.51 391.25 h 0 M 195.45 392.33 h 0 M 190.40 393.34 h 0 M 185.35 394.09 h 0 M 180.30 395.32 h 0 M 175.25 396.62 h 0 M 170.20 397.14 h 0 M 165.15 397.92 h 0 M 160.10 398.64 h 0 M 155.05 399.46 h 0 M 150.00 400.00 h 0" /><text  class="poloto_text poloto_legend_text" x="675" y="200" >direct_par</text><line  class="poloto_scatter poloto_legend_icon poloto2stroke poloto2legend" stroke="black" x1="685" x2="685" y1="181.25" y2="181.25" /><path  class="poloto_scatter poloto2stroke" d=" M 650.00 275.88 h 0 M 644.95 280.11 h 0 M 639.90 281.13 h 0 M 634.85 280.04 h 0 M 629.80 284.45 h 0 M 624.75 275.37 h 0 M 619.70 288.14 h 0 M 614.65 290.40 h 0 M 609.60 272.36 h 0 M 604.55 290.38 h 0 M 599.49 290.20 h 0 M 594.44 289.64 h 0 M 589.39 291.04 h 0 M 584.34 295.01 h 0 M 579.29 287.11 h 0 M 574.24 297.77 h 0 M 569.19 300.84 h 0 M 564.14 294.51 h 0 M 559.09 301.24 h 0 M 554.04 293.56 h 0 M 548.99 294.80 h 0 M 543.94 301.34 h 0 M 538.89 296.79 h 0 M 533.84 300.84 h 0 M 528.79 300.94 h 0 M 523.74 306.88 h 0 M 518.69 307.82 h 0 M 513.64 312.59 h 0 M 508.59 312.61 h 0 M 503.54 315.81 h 0 M 498.48 315.92 h 0 M 493.43 316.86 h 0 M 488.38 317.72 h 0 M 483.33 311.57 h 0 M 478.28 320.09 h 0 M 473.23 324.15 h 0 M 468.18 321.27 h 0 M 463.13 316.37 h 0 M 458.08 317.80 h 0 M 453.03 328.76 h 0 M 447.98 329.89 h 0 M 442.93 324.65 h 0 M 437.88 315.67 h 0 M 432.83 323.87 h 0 M 427.78 326.86 h 0 M 422.73 326.60 h 0 M 417.68 328.36 h 0 M 412.63 330.81 h 0 M 407.58 332.48 h 0 M 402.53 331.55 h 0 M 397.47 330.38 h 0 M 392.42 335.25 h 0 M 387.37 336.04 h 0 M 382.32 336.11 h 0 M 377.27 335.38 h 0 M 372.22 337.42 h 0 M 367.17 339.34 h 0 M 362.12 341.62 h 0 M 357.07 343.65 h 0 M 352.02 342.46 h 0 M 346.97 345.02 h 0 M 341.92 347.08 h 0 M 336.87 348.48 h 0 M 331.82 351.34 h 0 M 326.77 352.98 h 0 M 321.72 358.08 h 0 M 316.67 358.69 h 0 M 311.62 357.82 h 0 M 306.57 358.28 h 0 M 301.52 355.91 h 0 M 296.46 362.81 h 0 M 291.41 362.91 h 0 M 286.36 364.67 h 0 M 281.31 361.93 h 0 M 276.26 367.76 h 0 M 271.21 346.78 h 0 M 266.16 362.02 h 0 M 261.11 361.51 h 0 M 256.06 366.92 h 0 M 251.01 373.13 h 0 M 245.96 374.72 h 0 M 240.91 366.10 h 0 M 235.86 373.61 h 0 M 230.81 378.17 h 0 M 225.76 378.16 h 0 M 220.71 379.88 h 0 M 215.66 378.45 h 0 M 210.61 380.30 h 0 M 205.56 382.23 h 0 M 200.51 384.61 h 0 M 195.45 385.78 h 0 M 190.40 384.27 h 0 M 185.35 387.81 h 0 M 180.30 391.46 h 0 M 175.25 392.87 h 0 M 170.20 394.21 h 0 M 165.15 395.13 h 0 M 160.10 397.15 h 0 M 155.05 398.80 h 0 M 150.00 400.00 h 0" /><text  class="poloto_text poloto_legend_text" x="675" y="250" >direct_seq</text><line  class="poloto_scatter poloto_legend_icon poloto3stroke poloto3legend" stroke="black" x1="685" x2="685" y1="231.25" y2="231.25" /><path  class="poloto_scatter poloto3stroke" d=" M 650.00 149.38 h 0 M 644.95 159.07 h 0 M 639.90 163.19 h 0 M 634.85 170.09 h 0 M 629.80 174.68 h 0 M 624.75 174.06 h 0 M 619.70 173.46 h 0 M 614.65 188.38 h 0 M 609.60 184.34 h 0 M 604.55 184.88 h 0 M 599.49 185.99 h 0 M 594.44 190.71 h 0 M 589.39 193.87 h 0 M 584.34 196.78 h 0 M 579.29 198.88 h 0 M 574.24 204.53 h 0 M 569.19 209.27 h 0 M 564.14 206.07 h 0 M 559.09 214.37 h 0 M 554.04 129.38 h 0 M 548.99 214.72 h 0 M 543.94 218.58 h 0 M 538.89 220.79 h 0 M 533.84 225.20 h 0 M 528.79 230.08 h 0 M 523.74 229.98 h 0 M 518.69 224.01 h 0 M 513.64 232.50 h 0 M 508.59 232.16 h 0 M 503.54 238.71 h 0 M 498.48 243.53 h 0 M 493.43 242.75 h 0 M 488.38 247.43 h 0 M 483.33 246.29 h 0 M 478.28 252.14 h 0 M 473.23 256.29 h 0 M 468.18 252.18 h 0 M 463.13 258.36 h 0 M 458.08 259.44 h 0 M 453.03 264.24 h 0 M 447.98 268.99 h 0 M 442.93 266.81 h 0 M 437.88 271.13 h 0 M 432.83 272.83 h 0 M 427.78 273.66 h 0 M 422.73 278.31 h 0 M 417.68 281.29 h 0 M 412.63 282.21 h 0 M 407.58 285.06 h 0 M 402.53 287.04 h 0 M 397.47 288.57 h 0 M 392.42 293.48 h 0 M 387.37 295.79 h 0 M 382.32 296.62 h 0 M 377.27 298.51 h 0 M 372.22 301.52 h 0 M 367.17 303.68 h 0 M 362.12 305.40 h 0 M 357.07 310.08 h 0 M 352.02 311.76 h 0 M 346.97 314.68 h 0 M 341.92 316.25 h 0 M 336.87 320.01 h 0 M 331.82 321.25 h 0 M 326.77 324.23 h 0 M 321.72 326.52 h 0 M 316.67 327.16 h 0 M 311.62 330.50 h 0 M 306.57 333.86 h 0 M 301.52 336.89 h 0 M 296.46 335.99 h 0 M 291.41 339.83 h 0 M 286.36 347.37 h 0 M 281.31 351.12 h 0 M 276.26 354.04 h 0 M 271.21 354.32 h 0 M 266.16 357.48 h 0 M 261.11 358.58 h 0 M 256.06 359.35 h 0 M 251.01 362.14 h 0 M 245.96 363.91 h 0 M 240.91 365.12 h 0 M 235.86 367.79 h 0 M 230.81 369.69 h 0 M 225.76 372.57 h 0 M 220.71 373.56 h 0 M 215.66 375.45 h 0 M 210.61 377.81 h 0 M 205.56 380.12 h 0 M 200.51 381.48 h 0 M 195.45 382.80 h 0 M 190.40 385.54 h 0 M 185.35 387.17 h 0 M 180.30 390.41 h 0 M 175.25 392.63 h 0 M 170.20 393.64 h 0 M 165.15 395.35 h 0 M 160.10 397.06 h 0 M 155.05 398.68 h 0 M 150.00 399.99 h 0" /><text  class="poloto_text poloto_legend_text" x="675" y="300" >indirect_par</text><line  class="poloto_scatter poloto_legend_icon poloto4stroke poloto4legend" stroke="black" x1="685" x2="685" y1="281.25" y2="281.25" /><path  class="poloto_scatter poloto4stroke" d=" M 650.00 259.82 h 0 M 644.95 284.63 h 0 M 639.90 280.41 h 0 M 634.85 280.85 h 0 M 629.80 296.02 h 0 M 624.75 242.53 h 0 M 619.70 302.54 h 0 M 614.65 283.34 h 0 M 609.60 289.34 h 0 M 604.55 289.20 h 0 M 599.49 292.36 h 0 M 594.44 293.70 h 0 M 589.39 299.73 h 0 M 584.34 301.64 h 0 M 579.29 303.58 h 0 M 574.24 302.24 h 0 M 569.19 309.16 h 0 M 564.14 305.97 h 0 M 559.09 313.37 h 0 M 554.04 302.55 h 0 M 548.99 305.65 h 0 M 543.94 307.33 h 0 M 538.89 311.23 h 0 M 533.84 317.64 h 0 M 528.79 315.37 h 0 M 523.74 322.93 h 0 M 518.69 316.87 h 0 M 513.64 319.24 h 0 M 508.59 322.09 h 0 M 503.54 326.80 h 0 M 498.48 323.43 h 0 M 493.43 327.20 h 0 M 488.38 322.26 h 0 M 483.33 326.70 h 0 M 478.28 331.95 h 0 M 473.23 333.37 h 0 M 468.18 332.42 h 0 M 463.13 335.52 h 0 M 458.08 334.11 h 0 M 453.03 336.21 h 0 M 447.98 338.87 h 0 M 442.93 330.44 h 0 M 437.88 331.22 h 0 M 432.83 321.81 h 0 M 427.78 331.74 h 0 M 422.73 339.14 h 0 M 417.68 343.90 h 0 M 412.63 338.06 h 0 M 407.58 344.25 h 0 M 402.53 345.61 h 0 M 397.47 344.37 h 0 M 392.42 348.48 h 0 M 387.37 349.73 h 0 M 382.32 354.56 h 0 M 377.27 345.94 h 0 M 372.22 352.47 h 0 M 367.17 351.18 h 0 M 362.12 357.93 h 0 M 357.07 357.66 h 0 M 352.02 353.84 h 0 M 346.97 359.36 h 0 M 341.92 357.60 h 0 M 336.87 356.42 h 0 M 331.82 367.34 h 0 M 326.77 366.76 h 0 M 321.72 370.62 h 0 M 316.67 369.81 h 0 M 311.62 371.42 h 0 M 306.57 365.37 h 0 M 301.52 373.74 h 0 M 296.46 368.07 h 0 M 291.41 348.31 h 0 M 286.36 365.70 h 0 M 281.31 366.25 h 0 M 276.26 371.98 h 0 M 271.21 374.09 h 0 M 266.16 371.27 h 0 M 261.11 377.93 h 0 M 256.06 379.81 h 0 M 251.01 373.56 h 0 M 245.96 380.50 h 0 M 240.91 379.77 h 0 M 235.86 380.83 h 0 M 230.81 382.76 h 0 M 225.76 383.27 h 0 M 220.71 386.88 h 0 M 215.66 386.73 h 0 M 210.61 386.59 h 0 M 205.56 384.64 h 0 M 200.51 388.42 h 0 M 195.45 389.26 h 0 M 190.40 391.18 h 0 M 185.35 389.46 h 0 M 180.30 394.98 h 0 M 175.25 395.89 h 0 M 170.20 396.72 h 0 M 165.15 397.82 h 0 M 160.10 398.43 h 0 M 155.05 399.38 h 0 M 150.00 400.00 h 0" /><text  class="poloto_text poloto_legend_text" x="675" y="350" >indirect_seq</text><line  class="poloto_scatter poloto_legend_icon poloto5stroke poloto5legend" stroke="black" x1="685" x2="685" y1="331.25" y2="331.25" /><path  class="poloto_scatter poloto5stroke" d=" M 650.00 100.00 h 0 M 644.95 171.12 h 0 M 639.90 160.96 h 0 M 634.85 182.65 h 0 M 629.80 187.51 h 0 M 624.75 186.26 h 0 M 619.70 185.88 h 0 M 614.65 186.59 h 0 M 609.60 197.38 h 0 M 604.55 196.39 h 0 M 599.49 197.95 h 0 M 594.44 204.50 h 0 M 589.39 206.98 h 0 M 584.34 208.56 h 0 M 579.29 212.18 h 0 M 574.24 222.24 h 0 M 569.19 220.12 h 0 M 564.14 221.53 h 0 M 559.09 234.77 h 0 M 554.04 231.87 h 0 M 548.99 232.98 h 0 M 543.94 226.43 h 0 M 538.89 238.74 h 0 M 533.84 239.68 h 0 M 528.79 247.32 h 0 M 523.74 247.28 h 0 M 518.69 242.23 h 0 M 513.64 249.03 h 0 M 508.59 247.54 h 0 M 503.54 258.96 h 0 M 498.48 260.91 h 0 M 493.43 263.72 h 0 M 488.38 265.81 h 0 M 483.33 263.52 h 0 M 478.28 271.07 h 0 M 473.23 278.50 h 0 M 468.18 272.87 h 0 M 463.13 275.55 h 0 M 458.08 280.96 h 0 M 453.03 280.62 h 0 M 447.98 289.47 h 0 M 442.93 283.16 h 0 M 437.88 291.31 h 0 M 432.83 286.83 h 0 M 427.78 291.81 h 0 M 422.73 296.88 h 0 M 417.68 299.71 h 0 M 412.63 301.40 h 0 M 407.58 302.70 h 0 M 402.53 305.58 h 0 M 397.47 309.08 h 0 M 392.42 313.89 h 0 M 387.37 314.34 h 0 M 382.32 314.80 h 0 M 377.27 316.93 h 0 M 372.22 320.36 h 0 M 367.17 321.94 h 0 M 362.12 323.77 h 0 M 357.07 328.30 h 0 M 352.02 330.88 h 0 M 346.97 333.03 h 0 M 341.92 334.48 h 0 M 336.87 337.98 h 0 M 331.82 337.63 h 0 M 326.77 341.88 h 0 M 321.72 343.46 h 0 M 316.67 345.23 h 0 M 311.62 347.56 h 0 M 306.57 347.84 h 0 M 301.52 352.87 h 0 M 296.46 345.79 h 0 M 291.41 355.59 h 0 M 286.36 358.67 h 0 M 281.31 363.50 h 0 M 276.26 365.38 h 0 M 271.21 358.59 h 0 M 266.16 368.62 h 0 M 261.11 369.41 h 0 M 256.06 370.35 h 0 M 251.01 372.07 h 0 M 245.96 368.06 h 0 M 240.91 374.14 h 0 M 235.86 376.24 h 0 M 230.81 378.53 h 0 M 225.76 380.17 h 0 M 220.71 377.93 h 0 M 215.66 382.72 h 0 M 210.61 384.95 h 0 M 205.56 387.14 h 0 M 200.51 387.29 h 0 M 195.45 389.05 h 0 M 190.40 390.23 h 0 M 185.35 392.14 h 0 M 180.30 394.14 h 0 M 175.25 395.51 h 0 M 170.20 396.37 h 0 M 165.15 397.41 h 0 M 160.10 398.30 h 0 M 155.05 399.35 h 0 M 150.00 400.00 h 0" /><text  class="poloto_labels poloto_text poloto_title" x="400" y="37.5" >Bench of rebal:128_bytes with abspiral(num,0.6)</text><text  class="poloto_labels poloto_text poloto_xname" x="400" y="481.25" >Number of Elements</text><text  class="poloto_labels poloto_text poloto_yname" transform="rotate(-90,37.5,250)" x="37.5" y="250" >Time in Seconds</text><text  class="poloto_tick_labels poloto_text" dominant-baseline="middle" text-anchor="start" x="150" y="70" ></text><line  class="poloto_axis_lines" stroke="black" x1="150" x2="144" y1="400" y2="400" /><text  class="poloto_tick_labels poloto_text" dominant-baseline="middle" text-anchor="end" x="135" y="400" >0e0</text><line  class="poloto_axis_lines" stroke="black" x1="150" x2="144" y1="307.40312051483863" y2="307.40312051483863" /><text  class="poloto_tick_labels poloto_text" dominant-baseline="middle" text-anchor="end" x="135" y="307.40312051483863" >0.002</text><line  class="poloto_axis_lines" stroke="black" x1="150" x2="144" y1="214.80624102967727" y2="214.80624102967727" /><text  class="poloto_tick_labels poloto_text" dominant-baseline="middle" text-anchor="end" x="135" y="214.80624102967727" >0.004</text><line  class="poloto_axis_lines" stroke="black" x1="150" x2="144" y1="122.20936154451596" y2="122.20936154451596" /><text  class="poloto_tick_labels poloto_text" dominant-baseline="middle" text-anchor="end" x="135" y="122.20936154451596" >0.006</text><text  class="poloto_tick_labels poloto_text" dominant-baseline="middle" text-anchor="start" x="440.00000000000006" y="70" ></text><line  class="poloto_axis_lines" stroke="black" x1="150" x2="150" y1="400" y2="405" /><text  class="poloto_tick_labels poloto_text" dominant-baseline="start" text-anchor="middle" x="150" y="430" >0</text><line  class="poloto_axis_lines" stroke="black" x1="234.17508417508418" x2="234.17508417508418" y1="400" y2="405" /><text  class="poloto_tick_labels poloto_text" dominant-baseline="start" text-anchor="middle" x="234.17508417508418" y="430" >5000</text><line  class="poloto_axis_lines" stroke="black" x1="318.35016835016836" x2="318.35016835016836" y1="400" y2="405" /><text  class="poloto_tick_labels poloto_text" dominant-baseline="start" text-anchor="middle" x="318.35016835016836" y="430" >10000</text><line  class="poloto_axis_lines" stroke="black" x1="402.52525252525254" x2="402.52525252525254" y1="400" y2="405" /><text  class="poloto_tick_labels poloto_text" dominant-baseline="start" text-anchor="middle" x="402.52525252525254" y="430" >15000</text><line  class="poloto_axis_lines" stroke="black" x1="486.7003367003367" x2="486.7003367003367" y1="400" y2="405" /><text  class="poloto_tick_labels poloto_text" dominant-baseline="start" text-anchor="middle" x="486.7003367003367" y="430" >20000</text><line  class="poloto_axis_lines" stroke="black" x1="570.8754208754208" x2="570.8754208754208" y1="400" y2="405" /><text  class="poloto_tick_labels poloto_text" dominant-baseline="start" text-anchor="middle" x="570.8754208754208" y="430" >25000</text><path  stroke="black" fill="none" class="poloto_axis_lines" style="stroke-dasharray:8.417508417508419;stroke-dashoffset:-0;" d=" M 150 400 L 650 400" /><path  stroke="black" fill="none" class="poloto_axis_lines" style="stroke-dasharray:11.574609935645169;stroke-dashoffset:-0;" d=" M 150 400 L 150 100" /></svg>