<svg class="poloto" width="800" height="500" viewBox="0 0 800 500" xmlns="http://www.w3.org/2000/svg"><circle  r="1e5" class="poloto_background" /><text  class="poloto_text poloto_legend_text" x="675" y="100" >default_par</text><line  class="poloto_scatter poloto_legend_icon poloto0stroke poloto0legend" stroke="black" x1="685" x2="685" y1="81.25" y2="81.25" /><path  class="poloto_scatter poloto0stroke" d=" M 650.00 331.74 h 0 M 644.95 341.48 h 0 M 639.90 338.70 h 0 M 634.85 343.10 h 0 M 629.80 338.41 h 0 M 624.75 340.32 h 0 M 619.70 348.44 h 0 M 614.65 348.98 h 0 M 609.60 347.38 h 0 M 604.55 348.09 h 0 M 599.49 339.88 h 0 M 594.44 350.16 h 0 M 589.39 342.40 h 0 M 584.34 348.00 h 0 M 579.29 347.67 h 0 M 574.24 348.97 h 0 M 569.19 352.55 h 0 M 564.14 347.23 h 0 M 559.09 346.99 h 0 M 554.04 352.71 h 0 M 548.99 350.99 h 0 M 543.94 356.93 h 0 M 538.89 351.44 h 0 M 533.84 354.40 h 0 M 528.79 353.24 h 0 M 523.74 357.93 h 0 M 518.69 353.15 h 0 M 513.64 355.25 h 0 M 508.59 356.94 h 0 M 503.54 354.44 h 0 M 498.48 360.31 h 0 M 493.43 358.85 h 0 M 488.38 361.58 h 0 M 483.33 364.72 h 0 M 478.28 356.65 h 0 M 473.23 365.08 h 0 M 468.18 360.57 h 0 M 463.13 362.76 h 0 M 458.08 360.65 h 0 M 453.03 359.89 h 0 M 447.98 361.77 h 0 M 442.93 367.79 h 0 M 437.88 367.02 h 0 M 432.83 364.47 h 0 M 427.78 365.02 h 0 M 422.73 368.33 h 0 M 417.68 362.18 h 0 M 412.63 365.44 h 0 M 407.58 367.06 h 0 M 402.53 372.22 h 0 M 397.47 367.50 h 0 M 392.42 364.94 h 0 M 387.37 370.48 h 0 M 382.32 370.31 h 0 M 377.27 372.94 h 0 M 372.22 371.70 h 0 M 367.17 373.52 h 0 M 362.12 374.09 h 0 M 357.07 375.48 h 0 M 352.02 376.25 h 0 M 346.97 375.87 h 0 M 341.92 376.61 h 0 M 336.87 373.73 h 0 M 331.82 375.36 h 0 M 326.77 378.69 h 0 M 321.72 378.28 h 0 M 316.67 380.32 h 0 M 311.62 380.16 h 0 M 306.57 381.94 h 0 M 301.52 380.27 h 0 M 296.46 379.70 h 0 M 291.41 379.93 h 0 M 286.36 381.90 h 0 M 281.31 385.52 h 0 M 276.26 386.76 h 0 M 271.21 386.11 h 0 M 266.16 383.92 h 0 M 261.11 385.30 h 0 M 256.06 386.65 h 0 M 251.01 388.71 h 0 M 245.96 388.61 h 0 M 240.91 388.02 h 0 M 235.86 387.91 h 0 M 230.81 388.67 h 0 M 225.76 389.76 h 0 M 220.71 390.11 h 0 M 215.66 388.47 h 0 M 210.61 387.95 h 0 M 205.56 391.03 h 0 M 200.51 391.14 h 0 M 195.45 391.14 h 0 M 190.40 391.30 h 0 M 185.35 391.99 h 0 M 180.30 394.91 h 0 M 175.25 396.10 h 0 M 170.20 396.54 h 0 M 165.15 397.90 h 0 M 160.10 398.41 h 0 M 155.05 399.39 h 0 M 150.00 400.00 h 0" /><text  class="poloto_text poloto_legend_text" x="675" y="150" >default_seq</text><line  class="poloto_scatter poloto_legend_icon poloto1stroke poloto1legend" stroke="black" x1="685" x2="685" y1="131.25" y2="131.25" /><path  class="poloto_scatter poloto1stroke" d=" M 650.00 270.75 h 0 M 644.95 271.56 h 0 M 639.90 270.80 h 0 M 634.85 271.93 h 0 M 629.80 274.60 h 0 M 624.75 278.20 h 0 M 619.70 277.21 h 0 M 614.65 278.14 h 0 M 609.60 259.52 h 0 M 604.55 279.84 h 0 M 599.49 282.54 h 0 M 594.44 285.05 h 0 M 589.39 287.79 h 0 M 584.34 288.61 h 0 M 579.29 287.75 h 0 M 574.24 291.02 h 0 M 569.19 286.30 h 0 M 564.14 291.59 h 0 M 559.09 292.68 h 0 M 554.04 296.09 h 0 M 548.99 293.87 h 0 M 543.94 300.52 h 0 M 538.89 299.13 h 0 M 533.84 300.62 h 0 M 528.79 299.54 h 0 M 523.74 302.91 h 0 M 518.69 298.84 h 0 M 513.64 307.09 h 0 M 508.59 305.87 h 0 M 503.54 305.46 h 0 M 498.48 310.18 h 0 M 493.43 310.64 h 0 M 488.38 314.34 h 0 M 483.33 313.55 h 0 M 478.28 315.51 h 0 M 473.23 318.50 h 0 M 468.18 317.50 h 0 M 463.13 320.23 h 0 M 458.08 319.44 h 0 M 453.03 320.30 h 0 M 447.98 322.77 h 0 M 442.93 324.32 h 0 M 437.88 326.10 h 0 M 432.83 325.60 h 0 M 427.78 327.51 h 0 M 422.73 334.45 h 0 M 417.68 335.71 h 0 M 412.63 336.19 h 0 M 407.58 336.99 h 0 M 402.53 342.04 h 0 M 397.47 341.17 h 0 M 392.42 341.09 h 0 M 387.37 343.83 h 0 M 382.32 345.38 h 0 M 377.27 345.10 h 0 M 372.22 345.48 h 0 M 367.17 347.70 h 0 M 362.12 348.99 h 0 M 357.07 351.50 h 0 M 352.02 352.13 h 0 M 346.97 354.51 h 0 M 341.92 354.50 h 0 M 336.87 354.89 h 0 M 331.82 357.43 h 0 M 326.77 359.02 h 0 M 321.72 359.55 h 0 M 316.67 360.13 h 0 M 311.62 360.93 h 0 M 306.57 362.82 h 0 M 301.52 364.28 h 0 M 296.46 363.78 h 0 M 291.41 367.13 h 0 M 286.36 370.06 h 0 M 281.31 370.72 h 0 M 276.26 372.74 h 0 M 271.21 374.27 h 0 M 266.16 375.19 h 0 M 261.11 376.60 h 0 M 256.06 377.67 h 0 M 251.01 378.82 h 0 M 245.96 379.26 h 0 M 240.91 380.76 h 0 M 235.86 381.14 h 0 M 230.81 383.03 h 0 M 225.76 383.26 h 0 M 220.71 385.63 h 0 M 215.66 387.14 h 0 M 210.61 388.36 h 0 M 205.56 389.10 h 0 M 200.51 389.81 h 0 M 195.45 390.75 h 0 M 190.40 392.14 h 0 M 185.35 392.70 h 0 M 180.30 394.73 h 0 M 175.25 395.34 h 0 M 170.20 396.42 h 0 M 165.15 397.88 h 0 M 160.10 398.45 h 0 M 155.05 399.30 h 0 M 150.00 400.00 h 0" /><text  class="poloto_text poloto_legend_text" x="675" y="200" >direct_par</text><line  class="poloto_scatter poloto_legend_icon poloto2stroke poloto2legend" stroke="black" x1="685" x2="685" y1="181.25" y2="181.25" /><path  class="poloto_scatter poloto2stroke" d=" M 650.00 258.74 h 0 M 644.95 265.30 h 0 M 639.90 264.27 h 0 M 634.85 269.34 h 0 M 629.80 268.83 h 0 M 624.75 268.22 h 0 M 619.70 273.49 h 0 M 614.65 275.76 h 0 M 609.60 262.43 h 0 M 604.55 271.37 h 0 M 599.49 272.35 h 0 M 594.44 277.14 h 0 M 589.39 278.94 h 0 M 584.34 274.14 h 0 M 579.29 283.22 h 0 M 574.24 282.53 h 0 M 569.19 289.69 h 0 M 564.14 285.19 h 0 M 559.09 285.41 h 0 M 554.04 296.49 h 0 M 548.99 292.40 h 0 M 543.94 294.89 h 0 M 538.89 296.04 h 0 M 533.84 295.26 h 0 M 528.79 297.41 h 0 M 523.74 299.85 h 0 M 518.69 298.01 h 0 M 513.64 299.00 h 0 M 508.59 300.91 h 0 M 503.54 303.43 h 0 M 498.48 305.87 h 0 M 493.43 308.61 h 0 M 488.38 309.92 h 0 M 483.33 314.96 h 0 M 478.28 309.44 h 0 M 473.23 310.93 h 0 M 468.18 300.08 h 0 M 463.13 315.75 h 0 M 458.08 316.04 h 0 M 453.03 317.02 h 0 M 447.98 319.86 h 0 M 442.93 324.04 h 0 M 437.88 321.64 h 0 M 432.83 321.17 h 0 M 427.78 325.11 h 0 M 422.73 330.80 h 0 M 417.68 323.13 h 0 M 412.63 308.21 h 0 M 407.58 319.16 h 0 M 402.53 334.66 h 0 M 397.47 338.06 h 0 M 392.42 340.23 h 0 M 387.37 327.42 h 0 M 382.32 339.56 h 0 M 377.27 341.28 h 0 M 372.22 337.96 h 0 M 367.17 339.14 h 0 M 362.12 345.35 h 0 M 357.07 343.61 h 0 M 352.02 346.01 h 0 M 346.97 346.65 h 0 M 341.92 348.32 h 0 M 336.87 348.85 h 0 M 331.82 348.12 h 0 M 326.77 352.25 h 0 M 321.72 351.41 h 0 M 316.67 353.91 h 0 M 311.62 356.28 h 0 M 306.57 358.57 h 0 M 301.52 361.39 h 0 M 296.46 357.51 h 0 M 291.41 354.67 h 0 M 286.36 359.33 h 0 M 281.31 357.79 h 0 M 276.26 367.82 h 0 M 271.21 368.68 h 0 M 266.16 365.50 h 0 M 261.11 365.73 h 0 M 256.06 370.90 h 0 M 251.01 370.58 h 0 M 245.96 375.96 h 0 M 240.91 374.81 h 0 M 235.86 374.46 h 0 M 230.81 375.57 h 0 M 225.76 377.65 h 0 M 220.71 377.92 h 0 M 215.66 379.47 h 0 M 210.61 380.03 h 0 M 205.56 379.04 h 0 M 200.51 383.22 h 0 M 195.45 384.09 h 0 M 190.40 385.11 h 0 M 185.35 384.46 h 0 M 180.30 389.07 h 0 M 175.25 391.24 h 0 M 170.20 392.85 h 0 M 165.15 395.28 h 0 M 160.10 397.06 h 0 M 155.05 398.68 h 0 M 150.00 400.00 h 0" /><text  class="poloto_text poloto_legend_text" x="675" y="250" >direct_seq</text><line  class="poloto_scatter poloto_legend_icon poloto3stroke poloto3legend" stroke="black" x1="685" x2="685" y1="231.25" y2="231.25" /><path  class="poloto_scatter poloto3stroke" d=" M 650.00 108.53 h 0 M 644.95 124.87 h 0 M 639.90 122.49 h 0 M 634.85 123.73 h 0 M 629.80 132.10 h 0 M 624.75 138.51 h 0 M 619.70 137.33 h 0 M 614.65 141.08 h 0 M 609.60 141.09 h 0 M 604.55 145.48 h 0 M 599.49 150.31 h 0 M 594.44 153.45 h 0 M 589.39 157.58 h 0 M 584.34 161.24 h 0 M 579.29 158.89 h 0 M 574.24 169.05 h 0 M 569.19 167.44 h 0 M 564.14 172.95 h 0 M 559.09 171.20 h 0 M 554.04 181.76 h 0 M 548.99 177.41 h 0 M 543.94 186.62 h 0 M 538.89 183.74 h 0 M 533.84 191.03 h 0 M 528.79 186.42 h 0 M 523.74 193.84 h 0 M 518.69 196.47 h 0 M 513.64 204.95 h 0 M 508.59 201.62 h 0 M 503.54 205.89 h 0 M 498.48 210.24 h 0 M 493.43 213.73 h 0 M 488.38 219.94 h 0 M 483.33 219.94 h 0 M 478.28 223.72 h 0 M 473.23 229.56 h 0 M 468.18 226.77 h 0 M 463.13 233.09 h 0 M 458.08 231.90 h 0 M 453.03 235.34 h 0 M 447.98 241.20 h 0 M 442.93 241.84 h 0 M 437.88 245.79 h 0 M 432.83 248.58 h 0 M 427.78 252.71 h 0 M 422.73 263.62 h 0 M 417.68 267.20 h 0 M 412.63 265.08 h 0 M 407.58 269.61 h 0 M 402.53 277.33 h 0 M 397.47 277.53 h 0 M 392.42 277.03 h 0 M 387.37 279.83 h 0 M 382.32 286.31 h 0 M 377.27 286.94 h 0 M 372.22 288.83 h 0 M 367.17 280.16 h 0 M 362.12 293.06 h 0 M 357.07 298.38 h 0 M 352.02 292.87 h 0 M 346.97 304.68 h 0 M 341.92 305.99 h 0 M 336.87 307.83 h 0 M 331.82 310.91 h 0 M 326.77 315.93 h 0 M 321.72 316.19 h 0 M 316.67 318.34 h 0 M 311.62 319.79 h 0 M 306.57 324.02 h 0 M 301.52 325.81 h 0 M 296.46 328.73 h 0 M 291.41 331.65 h 0 M 286.36 338.31 h 0 M 281.31 339.04 h 0 M 276.26 342.42 h 0 M 271.21 344.72 h 0 M 266.16 348.69 h 0 M 261.11 351.32 h 0 M 256.06 353.61 h 0 M 251.01 355.71 h 0 M 245.96 357.49 h 0 M 240.91 359.68 h 0 M 235.86 360.24 h 0 M 230.81 364.54 h 0 M 225.76 365.76 h 0 M 220.71 369.61 h 0 M 215.66 373.97 h 0 M 210.61 376.11 h 0 M 205.56 377.53 h 0 M 200.51 379.52 h 0 M 195.45 381.35 h 0 M 190.40 383.57 h 0 M 185.35 385.47 h 0 M 180.30 389.11 h 0 M 175.25 390.86 h 0 M 170.20 392.64 h 0 M 165.15 395.52 h 0 M 160.10 396.82 h 0 M 155.05 398.53 h 0 M 150.00 399.99 h 0" /><text  class="poloto_text poloto_legend_text" x="675" y="300" >indirect_par</text><line  class="poloto_scatter poloto_legend_icon poloto4stroke poloto4legend" stroke="black" x1="685" x2="685" y1="281.25" y2="281.25" /><path  class="poloto_scatter poloto4stroke" d=" M 650.00 260.89 h 0 M 644.95 269.09 h 0 M 639.90 266.50 h 0 M 634.85 271.01 h 0 M 629.80 260.65 h 0 M 624.75 203.58 h 0 M 619.70 262.23 h 0 M 614.65 283.60 h 0 M 609.60 267.12 h 0 M 604.55 280.23 h 0 M 599.49 277.54 h 0 M 594.44 286.57 h 0 M 589.39 266.53 h 0 M 584.34 284.00 h 0 M 579.29 286.66 h 0 M 574.24 285.50 h 0 M 569.19 302.60 h 0 M 564.14 296.67 h 0 M 559.09 286.95 h 0 M 554.04 297.08 h 0 M 548.99 298.38 h 0 M 543.94 301.10 h 0 M 538.89 297.35 h 0 M 533.84 308.35 h 0 M 528.79 300.91 h 0 M 523.74 304.56 h 0 M 518.69 305.92 h 0 M 513.64 300.70 h 0 M 508.59 312.89 h 0 M 503.54 308.54 h 0 M 498.48 314.59 h 0 M 493.43 312.60 h 0 M 488.38 309.95 h 0 M 483.33 318.43 h 0 M 478.28 317.55 h 0 M 473.23 325.07 h 0 M 468.18 317.13 h 0 M 463.13 310.08 h 0 M 458.08 325.38 h 0 M 453.03 321.75 h 0 M 447.98 335.25 h 0 M 442.93 331.44 h 0 M 437.88 324.40 h 0 M 432.83 336.76 h 0 M 427.78 330.74 h 0 M 422.73 337.06 h 0 M 417.68 324.05 h 0 M 412.63 335.34 h 0 M 407.58 325.37 h 0 M 402.53 344.45 h 0 M 397.47 341.37 h 0 M 392.42 340.37 h 0 M 387.37 340.46 h 0 M 382.32 344.03 h 0 M 377.27 348.80 h 0 M 372.22 354.62 h 0 M 367.17 352.68 h 0 M 362.12 356.80 h 0 M 357.07 353.81 h 0 M 352.02 358.62 h 0 M 346.97 358.53 h 0 M 341.92 359.10 h 0 M 336.87 352.49 h 0 M 331.82 357.16 h 0 M 326.77 358.68 h 0 M 321.72 363.95 h 0 M 316.67 362.44 h 0 M 311.62 366.14 h 0 M 306.57 365.12 h 0 M 301.52 370.91 h 0 M 296.46 367.64 h 0 M 291.41 365.61 h 0 M 286.36 365.43 h 0 M 281.31 373.78 h 0 M 276.26 373.55 h 0 M 271.21 377.17 h 0 M 266.16 375.01 h 0 M 261.11 377.26 h 0 M 256.06 378.55 h 0 M 251.01 377.82 h 0 M 245.96 382.70 h 0 M 240.91 381.09 h 0 M 235.86 381.36 h 0 M 230.81 383.06 h 0 M 225.76 385.13 h 0 M 220.71 386.06 h 0 M 215.66 384.40 h 0 M 210.61 382.33 h 0 M 205.56 386.89 h 0 M 200.51 387.85 h 0 M 195.45 386.72 h 0 M 190.40 389.45 h 0 M 185.35 389.96 h 0 M 180.30 393.21 h 0 M 175.25 394.89 h 0 M 170.20 395.55 h 0 M 165.15 397.43 h 0 M 160.10 398.39 h 0 M 155.05 399.32 h 0 M 150.00 400.00 h 0" /><text  class="poloto_text poloto_legend_text" x="675" y="350" >indirect_seq</text><line  class="poloto_scatter poloto_legend_icon poloto5stroke poloto5legend" stroke="black" x1="685" x2="685" y1="331.25" y2="331.25" /><path  class="poloto_scatter poloto5stroke" d=" M 650.00 120.35 h 0 M 644.95 122.14 h 0 M 639.90 121.79 h 0 M 634.85 122.20 h 0 M 629.80 106.46 h 0 M 624.75 100.00 h 0 M 619.70 138.42 h 0 M 614.65 149.53 h 0 M 609.60 147.57 h 0 M 604.55 146.61 h 0 M 599.49 156.79 h 0 M 594.44 163.86 h 0 M 589.39 164.21 h 0 M 584.34 168.88 h 0 M 579.29 170.57 h 0 M 574.24 181.16 h 0 M 569.19 171.96 h 0 M 564.14 184.35 h 0 M 559.09 181.90 h 0 M 554.04 190.71 h 0 M 548.99 188.82 h 0 M 543.94 156.92 h 0 M 538.89 198.55 h 0 M 533.84 201.50 h 0 M 528.79 198.95 h 0 M 523.74 203.84 h 0 M 518.69 210.01 h 0 M 513.64 219.55 h 0 M 508.59 217.17 h 0 M 503.54 220.41 h 0 M 498.48 225.65 h 0 M 493.43 227.44 h 0 M 488.38 235.58 h 0 M 483.33 232.63 h 0 M 478.28 236.69 h 0 M 473.23 245.66 h 0 M 468.18 242.21 h 0 M 463.13 247.87 h 0 M 458.08 249.09 h 0 M 453.03 252.12 h 0 M 447.98 257.39 h 0 M 442.93 255.97 h 0 M 437.88 264.17 h 0 M 432.83 263.39 h 0 M 427.78 261.58 h 0 M 422.73 270.83 h 0 M 417.68 276.20 h 0 M 412.63 278.76 h 0 M 407.58 284.78 h 0 M 402.53 292.48 h 0 M 397.47 291.38 h 0 M 392.42 288.37 h 0 M 387.37 294.17 h 0 M 382.32 302.09 h 0 M 377.27 300.11 h 0 M 372.22 291.48 h 0 M 367.17 308.32 h 0 M 362.12 307.37 h 0 M 357.07 311.85 h 0 M 352.02 316.34 h 0 M 346.97 321.16 h 0 M 341.92 320.92 h 0 M 336.87 322.42 h 0 M 331.82 326.23 h 0 M 326.77 330.98 h 0 M 321.72 331.37 h 0 M 316.67 333.28 h 0 M 311.62 334.51 h 0 M 306.57 338.75 h 0 M 301.52 340.91 h 0 M 296.46 343.51 h 0 M 291.41 346.56 h 0 M 286.36 347.45 h 0 M 281.31 351.12 h 0 M 276.26 353.56 h 0 M 271.21 356.84 h 0 M 266.16 360.20 h 0 M 261.11 361.93 h 0 M 256.06 364.59 h 0 M 251.01 366.94 h 0 M 245.96 367.42 h 0 M 240.91 369.82 h 0 M 235.86 369.32 h 0 M 230.81 374.13 h 0 M 225.76 375.60 h 0 M 220.71 378.01 h 0 M 215.66 380.19 h 0 M 210.61 382.10 h 0 M 205.56 384.08 h 0 M 200.51 385.24 h 0 M 195.45 386.54 h 0 M 190.40 389.07 h 0 M 185.35 390.36 h 0 M 180.30 392.90 h 0 M 175.25 394.25 h 0 M 170.20 395.27 h 0 M 165.15 397.12 h 0 M 160.10 398.16 h 0 M 155.05 399.18 h 0 M 150.00 400.00 h 0" /><text  class="poloto_labels poloto_text poloto_title" x="400" y="37.5" >Bench of rebal:128_bytes with abspiral(num,2.1)</text><text  class="poloto_labels poloto_text poloto_xname" x="400" y="481.25" >Number of Elements</text><text  class="poloto_labels poloto_text poloto_yname" transform="rotate(-90,37.5,250)" x="37.5" y="250" >Time in Seconds</text><text  class="poloto_tick_labels poloto_text" dominant-baseline="middle" text-anchor="start" x="150" y="70" ></text><line  class="poloto_axis_lines" stroke="black" x1="150" x2="144" y1="400" y2="400" /><text  class="poloto_tick_labels poloto_text" dominant-baseline="middle" text-anchor="end" x="135" y="400" >0e0</text><line  class="poloto_axis_lines" stroke="black" x1="150" x2="144" y1="301.1870563607621" y2="301.1870563607621" /><text  class="poloto_tick_labels poloto_text" dominant-baseline="middle" text-anchor="end" x="135" y="301.1870563607621" >0.002</text><line  class="poloto_axis_lines" stroke="black" x1="150" x2="144" y1="202.37411272152417" y2="202.37411272152417" /><text  class="poloto_tick_labels poloto_text" dominant-baseline="middle" text-anchor="end" x="135" y="202.37411272152417" >0.004</text><line  class="poloto_axis_lines" stroke="black" x1="150" x2="144" y1="103.56116908228631" y2="103.56116908228631" /><text  class="poloto_tick_labels poloto_text" dominant-baseline="middle" text-anchor="end" x="135" y="103.56116908228631" >0.006</text><text  class="poloto_tick_labels poloto_text" dominant-baseline="middle" text-anchor="start" x="440.00000000000006" y="70" ></text><line  class="poloto_axis_lines" stroke="black" x1="150" x2="150" y1="400" y2="405" /><text  class="poloto_tick_labels poloto_text" dominant-baseline="start" text-anchor="middle" x="150" y="430" >0</text><line  class="poloto_axis_lines" stroke="black" x1="234.17508417508418" x2="234.17508417508418" y1="400" y2="405" /><text  class="poloto_tick_labels poloto_text" dominant-baseline="start" text-anchor="middle" x="234.17508417508418" y="430" >5000</text><line  class="poloto_axis_lines" stroke="black" x1="318.35016835016836" x2="318.35016835016836" y1="400" y2="405" /><text  class="poloto_tick_labels poloto_text" dominant-baseline="start" text-anchor="middle" x="318.35016835016836" y="430" >10000</text><line  class="poloto_axis_lines" stroke="black" x1="402.52525252525254" x2="402.52525252525254" y1="400" y2="405" /><text  class="poloto_tick_labels poloto_text" dominant-baseline="start" text-anchor="middle" x="402.52525252525254" y="430" >15000</text><line  class="poloto_axis_lines" stroke="black" x1="486.7003367003367" x2="486.7003367003367" y1="400" y2="405" /><text  class="poloto_tick_labels poloto_text" dominant-baseline="start" text-anchor="middle" x="486.7003367003367" y="430" >20000</text><line  class="poloto_axis_lines" stroke="black" x1="570.8754208754208" x2="570.8754208754208" y1="400" y2="405" /><text  class="poloto_tick_labels poloto_text" dominant-baseline="start" text-anchor="middle" x="570.8754208754208" y="430" >25000</text><path  stroke="black" fill="none" class="poloto_axis_lines" style="stroke-dasharray:8.417508417508419;stroke-dashoffset:-0;" d=" M 150 400 L 650 400" /><path  stroke="black" fill="none" class="poloto_axis_lines" style="stroke-dasharray:12.351617954904738;stroke-dashoffset:-0;" d=" M 150 400 L 150 100" /></svg>