<svg class="poloto" width="800" height="500" viewBox="0 0 800 500" xmlns="http://www.w3.org/2000/svg"><circle  r="1e5" class="poloto_background" /><text  class="poloto_text poloto_legend_text" x="675" y="100" >default_par</text><line  class="poloto_scatter poloto_legend_icon poloto0stroke poloto0legend" stroke="black" x1="685" x2="685" y1="81.25" y2="81.25" /><path  class="poloto_scatter poloto0stroke" d=" M 650.00 341.12 h 0 M 644.95 347.18 h 0 M 639.90 334.44 h 0 M 634.85 342.35 h 0 M 629.80 344.00 h 0 M 624.75 345.24 h 0 M 619.70 341.26 h 0 M 614.65 344.82 h 0 M 609.60 339.39 h 0 M 604.55 349.95 h 0 M 599.49 347.86 h 0 M 594.44 323.31 h 0 M 589.39 325.22 h 0 M 584.34 347.01 h 0 M 579.29 349.56 h 0 M 574.24 344.25 h 0 M 569.19 350.39 h 0 M 564.14 349.77 h 0 M 559.09 352.64 h 0 M 554.04 351.50 h 0 M 548.99 335.48 h 0 M 543.94 351.71 h 0 M 538.89 347.33 h 0 M 533.84 357.67 h 0 M 528.79 358.40 h 0 M 523.74 355.86 h 0 M 518.69 355.06 h 0 M 513.64 352.37 h 0 M 508.59 353.60 h 0 M 503.54 352.09 h 0 M 498.48 356.49 h 0 M 493.43 355.99 h 0 M 488.38 357.36 h 0 M 483.33 358.78 h 0 M 478.28 363.73 h 0 M 473.23 357.80 h 0 M 468.18 360.03 h 0 M 463.13 352.20 h 0 M 458.08 358.72 h 0 M 453.03 358.78 h 0 M 447.98 365.31 h 0 M 442.93 366.37 h 0 M 437.88 364.64 h 0 M 432.83 371.35 h 0 M 427.78 370.18 h 0 M 422.73 361.63 h 0 M 417.68 369.29 h 0 M 412.63 367.86 h 0 M 407.58 373.28 h 0 M 402.53 371.53 h 0 M 397.47 369.87 h 0 M 392.42 373.55 h 0 M 387.37 374.83 h 0 M 382.32 375.87 h 0 M 377.27 370.65 h 0 M 372.22 372.67 h 0 M 367.17 374.02 h 0 M 362.12 371.37 h 0 M 357.07 377.80 h 0 M 352.02 377.40 h 0 M 346.97 377.67 h 0 M 341.92 379.03 h 0 M 336.87 378.37 h 0 M 331.82 381.12 h 0 M 326.77 380.71 h 0 M 321.72 379.36 h 0 M 316.67 380.83 h 0 M 311.62 376.73 h 0 M 306.57 380.95 h 0 M 301.52 383.33 h 0 M 296.46 383.61 h 0 M 291.41 381.34 h 0 M 286.36 384.05 h 0 M 281.31 381.30 h 0 M 276.26 382.46 h 0 M 271.21 388.15 h 0 M 266.16 386.45 h 0 M 261.11 386.44 h 0 M 256.06 387.49 h 0 M 251.01 385.28 h 0 M 245.96 385.22 h 0 M 240.91 390.10 h 0 M 235.86 388.84 h 0 M 230.81 389.21 h 0 M 225.76 389.70 h 0 M 220.71 390.01 h 0 M 215.66 388.59 h 0 M 210.61 388.52 h 0 M 205.56 389.64 h 0 M 200.51 388.63 h 0 M 195.45 391.38 h 0 M 190.40 385.30 h 0 M 185.35 391.09 h 0 M 180.30 395.40 h 0 M 175.25 396.17 h 0 M 170.20 396.86 h 0 M 165.15 398.04 h 0 M 160.10 398.73 h 0 M 155.05 399.33 h 0 M 150.00 400.00 h 0" /><text  class="poloto_text poloto_legend_text" x="675" y="150" >default_seq</text><line  class="poloto_scatter poloto_legend_icon poloto1stroke poloto1legend" stroke="black" x1="685" x2="685" y1="131.25" y2="131.25" /><path  class="poloto_scatter poloto1stroke" d=" M 650.00 284.01 h 0 M 644.95 286.20 h 0 M 639.90 283.65 h 0 M 634.85 284.76 h 0 M 629.80 286.86 h 0 M 624.75 279.00 h 0 M 619.70 289.27 h 0 M 614.65 294.70 h 0 M 609.60 290.90 h 0 M 604.55 291.45 h 0 M 599.49 293.74 h 0 M 594.44 251.04 h 0 M 589.39 297.47 h 0 M 584.34 298.61 h 0 M 579.29 297.41 h 0 M 574.24 302.17 h 0 M 569.19 303.73 h 0 M 564.14 303.41 h 0 M 559.09 306.87 h 0 M 554.04 307.71 h 0 M 548.99 306.42 h 0 M 543.94 307.68 h 0 M 538.89 309.15 h 0 M 533.84 310.51 h 0 M 528.79 312.96 h 0 M 523.74 313.78 h 0 M 518.69 309.95 h 0 M 513.64 317.13 h 0 M 508.59 317.37 h 0 M 503.54 317.18 h 0 M 498.48 320.91 h 0 M 493.43 320.44 h 0 M 488.38 322.45 h 0 M 483.33 320.88 h 0 M 478.28 320.15 h 0 M 473.23 325.85 h 0 M 468.18 325.38 h 0 M 463.13 325.92 h 0 M 458.08 327.89 h 0 M 453.03 331.75 h 0 M 447.98 331.37 h 0 M 442.93 331.99 h 0 M 437.88 334.25 h 0 M 432.83 336.11 h 0 M 427.78 336.86 h 0 M 422.73 340.96 h 0 M 417.68 341.42 h 0 M 412.63 343.82 h 0 M 407.58 342.43 h 0 M 402.53 345.03 h 0 M 397.47 345.37 h 0 M 392.42 348.42 h 0 M 387.37 350.25 h 0 M 382.32 349.17 h 0 M 377.27 351.32 h 0 M 372.22 352.31 h 0 M 367.17 353.81 h 0 M 362.12 353.78 h 0 M 357.07 356.46 h 0 M 352.02 356.88 h 0 M 346.97 357.90 h 0 M 341.92 358.84 h 0 M 336.87 358.92 h 0 M 331.82 360.84 h 0 M 326.77 362.52 h 0 M 321.72 363.40 h 0 M 316.67 364.63 h 0 M 311.62 366.09 h 0 M 306.57 368.39 h 0 M 301.52 362.14 h 0 M 296.46 369.56 h 0 M 291.41 370.09 h 0 M 286.36 373.19 h 0 M 281.31 373.80 h 0 M 276.26 375.82 h 0 M 271.21 376.86 h 0 M 266.16 378.01 h 0 M 261.11 378.83 h 0 M 256.06 378.93 h 0 M 251.01 379.82 h 0 M 245.96 377.83 h 0 M 240.91 380.63 h 0 M 235.86 383.26 h 0 M 230.81 383.54 h 0 M 225.76 385.86 h 0 M 220.71 385.58 h 0 M 215.66 388.34 h 0 M 210.61 389.35 h 0 M 205.56 390.44 h 0 M 200.51 391.05 h 0 M 195.45 391.79 h 0 M 190.40 393.19 h 0 M 185.35 393.85 h 0 M 180.30 394.81 h 0 M 175.25 395.66 h 0 M 170.20 396.07 h 0 M 165.15 397.85 h 0 M 160.10 398.53 h 0 M 155.05 399.36 h 0 M 150.00 400.00 h 0" /><text  class="poloto_text poloto_legend_text" x="675" y="200" >direct_par</text><line  class="poloto_scatter poloto_legend_icon poloto2stroke poloto2legend" stroke="black" x1="685" x2="685" y1="181.25" y2="181.25" /><path  class="poloto_scatter poloto2stroke" d=" M 650.00 263.19 h 0 M 644.95 263.59 h 0 M 639.90 264.76 h 0 M 634.85 265.84 h 0 M 629.80 278.20 h 0 M 624.75 267.14 h 0 M 619.70 281.36 h 0 M 614.65 268.10 h 0 M 609.60 270.58 h 0 M 604.55 228.84 h 0 M 599.49 284.23 h 0 M 594.44 280.59 h 0 M 589.39 265.66 h 0 M 584.34 267.95 h 0 M 579.29 272.98 h 0 M 574.24 271.81 h 0 M 569.19 283.27 h 0 M 564.14 280.89 h 0 M 559.09 294.58 h 0 M 554.04 289.01 h 0 M 548.99 281.18 h 0 M 543.94 286.62 h 0 M 538.89 282.95 h 0 M 533.84 292.65 h 0 M 528.79 287.45 h 0 M 523.74 297.09 h 0 M 518.69 300.55 h 0 M 513.64 298.46 h 0 M 508.59 292.65 h 0 M 503.54 307.37 h 0 M 498.48 303.68 h 0 M 493.43 299.71 h 0 M 488.38 303.03 h 0 M 483.33 305.23 h 0 M 478.28 299.26 h 0 M 473.23 314.59 h 0 M 468.18 317.45 h 0 M 463.13 317.79 h 0 M 458.08 314.00 h 0 M 453.03 298.88 h 0 M 447.98 314.97 h 0 M 442.93 322.61 h 0 M 437.88 324.33 h 0 M 432.83 327.10 h 0 M 427.78 330.21 h 0 M 422.73 333.07 h 0 M 417.68 335.61 h 0 M 412.63 334.80 h 0 M 407.58 339.61 h 0 M 402.53 335.41 h 0 M 397.47 337.10 h 0 M 392.42 340.43 h 0 M 387.37 342.31 h 0 M 382.32 341.68 h 0 M 377.27 338.79 h 0 M 372.22 335.71 h 0 M 367.17 337.95 h 0 M 362.12 336.54 h 0 M 357.07 343.97 h 0 M 352.02 348.21 h 0 M 346.97 348.09 h 0 M 341.92 349.28 h 0 M 336.87 355.88 h 0 M 331.82 356.75 h 0 M 326.77 354.99 h 0 M 321.72 355.66 h 0 M 316.67 357.78 h 0 M 311.62 359.22 h 0 M 306.57 354.20 h 0 M 301.52 359.18 h 0 M 296.46 362.56 h 0 M 291.41 360.34 h 0 M 286.36 365.42 h 0 M 281.31 359.21 h 0 M 276.26 359.82 h 0 M 271.21 349.61 h 0 M 266.16 371.65 h 0 M 261.11 370.01 h 0 M 256.06 372.22 h 0 M 251.01 370.20 h 0 M 245.96 372.44 h 0 M 240.91 373.97 h 0 M 235.86 376.00 h 0 M 230.81 374.17 h 0 M 225.76 377.22 h 0 M 220.71 377.61 h 0 M 215.66 378.72 h 0 M 210.61 380.58 h 0 M 205.56 382.15 h 0 M 200.51 382.41 h 0 M 195.45 386.59 h 0 M 190.40 385.67 h 0 M 185.35 385.81 h 0 M 180.30 389.76 h 0 M 175.25 391.38 h 0 M 170.20 392.87 h 0 M 165.15 395.60 h 0 M 160.10 397.12 h 0 M 155.05 398.51 h 0 M 150.00 400.00 h 0" /><text  class="poloto_text poloto_legend_text" x="675" y="250" >direct_seq</text><line  class="poloto_scatter poloto_legend_icon poloto3stroke poloto3legend" stroke="black" x1="685" x2="685" y1="231.25" y2="231.25" /><path  class="poloto_scatter poloto3stroke" d=" M 650.00 120.30 h 0 M 644.95 100.00 h 0 M 639.90 132.71 h 0 M 634.85 139.74 h 0 M 629.80 144.35 h 0 M 624.75 140.50 h 0 M 619.70 149.04 h 0 M 614.65 159.71 h 0 M 609.60 152.87 h 0 M 604.55 155.85 h 0 M 599.49 159.08 h 0 M 594.44 158.57 h 0 M 589.39 160.25 h 0 M 584.34 115.76 h 0 M 579.29 171.49 h 0 M 574.24 176.74 h 0 M 569.19 184.01 h 0 M 564.14 181.49 h 0 M 559.09 190.48 h 0 M 554.04 194.23 h 0 M 548.99 189.37 h 0 M 543.94 195.25 h 0 M 538.89 195.11 h 0 M 533.84 201.07 h 0 M 528.79 204.70 h 0 M 523.74 206.13 h 0 M 518.69 205.26 h 0 M 513.64 214.62 h 0 M 508.59 214.60 h 0 M 503.54 216.11 h 0 M 498.48 222.02 h 0 M 493.43 222.81 h 0 M 488.38 228.74 h 0 M 483.33 225.57 h 0 M 478.28 182.44 h 0 M 473.23 233.80 h 0 M 468.18 235.06 h 0 M 463.13 238.75 h 0 M 458.08 240.27 h 0 M 453.03 246.94 h 0 M 447.98 251.20 h 0 M 442.93 250.40 h 0 M 437.88 256.11 h 0 M 432.83 259.05 h 0 M 427.78 261.31 h 0 M 422.73 271.29 h 0 M 417.68 273.80 h 0 M 412.63 276.89 h 0 M 407.58 277.89 h 0 M 402.53 281.73 h 0 M 397.47 281.71 h 0 M 392.42 285.60 h 0 M 387.37 291.20 h 0 M 382.32 290.73 h 0 M 377.27 294.81 h 0 M 372.22 297.22 h 0 M 367.17 299.62 h 0 M 362.12 299.55 h 0 M 357.07 305.49 h 0 M 352.02 305.87 h 0 M 346.97 310.34 h 0 M 341.92 311.00 h 0 M 336.87 315.52 h 0 M 331.82 317.47 h 0 M 326.77 319.43 h 0 M 321.72 320.39 h 0 M 316.67 324.43 h 0 M 311.62 326.97 h 0 M 306.57 329.68 h 0 M 301.52 331.97 h 0 M 296.46 333.61 h 0 M 291.41 335.80 h 0 M 286.36 340.78 h 0 M 281.31 343.35 h 0 M 276.26 346.79 h 0 M 271.21 348.47 h 0 M 266.16 350.91 h 0 M 261.11 353.58 h 0 M 256.06 354.50 h 0 M 251.01 357.18 h 0 M 245.96 358.33 h 0 M 240.91 358.21 h 0 M 235.86 362.69 h 0 M 230.81 365.66 h 0 M 225.76 369.28 h 0 M 220.71 370.21 h 0 M 215.66 374.60 h 0 M 210.61 377.08 h 0 M 205.56 379.01 h 0 M 200.51 380.18 h 0 M 195.45 382.49 h 0 M 190.40 384.40 h 0 M 185.35 386.51 h 0 M 180.30 387.98 h 0 M 175.25 391.24 h 0 M 170.20 391.12 h 0 M 165.15 394.35 h 0 M 160.10 396.80 h 0 M 155.05 398.49 h 0 M 150.00 399.98 h 0" /><text  class="poloto_text poloto_legend_text" x="675" y="300" >indirect_par</text><line  class="poloto_scatter poloto_legend_icon poloto4stroke poloto4legend" stroke="black" x1="685" x2="685" y1="281.25" y2="281.25" /><path  class="poloto_scatter poloto4stroke" d=" M 650.00 262.40 h 0 M 644.95 282.25 h 0 M 639.90 250.35 h 0 M 634.85 281.23 h 0 M 629.80 285.33 h 0 M 624.75 275.71 h 0 M 619.70 289.51 h 0 M 614.65 281.86 h 0 M 609.60 274.76 h 0 M 604.55 273.19 h 0 M 599.49 283.69 h 0 M 594.44 295.09 h 0 M 589.39 237.01 h 0 M 584.34 295.32 h 0 M 579.29 292.17 h 0 M 574.24 287.02 h 0 M 569.19 284.32 h 0 M 564.14 295.94 h 0 M 559.09 298.55 h 0 M 554.04 308.89 h 0 M 548.99 278.64 h 0 M 543.94 305.22 h 0 M 538.89 300.48 h 0 M 533.84 310.74 h 0 M 528.79 309.55 h 0 M 523.74 311.72 h 0 M 518.69 314.21 h 0 M 513.64 311.69 h 0 M 508.59 312.71 h 0 M 503.54 311.95 h 0 M 498.48 321.79 h 0 M 493.43 323.50 h 0 M 488.38 318.85 h 0 M 483.33 319.16 h 0 M 478.28 277.67 h 0 M 473.23 327.26 h 0 M 468.18 329.91 h 0 M 463.13 327.27 h 0 M 458.08 330.58 h 0 M 453.03 290.56 h 0 M 447.98 336.41 h 0 M 442.93 338.11 h 0 M 437.88 332.54 h 0 M 432.83 339.60 h 0 M 427.78 342.81 h 0 M 422.73 326.44 h 0 M 417.68 339.03 h 0 M 412.63 345.42 h 0 M 407.58 348.41 h 0 M 402.53 346.02 h 0 M 397.47 347.34 h 0 M 392.42 347.77 h 0 M 387.37 352.13 h 0 M 382.32 354.10 h 0 M 377.27 342.15 h 0 M 372.22 353.89 h 0 M 367.17 350.91 h 0 M 362.12 355.74 h 0 M 357.07 357.66 h 0 M 352.02 354.98 h 0 M 346.97 358.40 h 0 M 341.92 360.26 h 0 M 336.87 362.14 h 0 M 331.82 359.37 h 0 M 326.77 366.82 h 0 M 321.72 363.46 h 0 M 316.67 366.73 h 0 M 311.62 369.08 h 0 M 306.57 368.83 h 0 M 301.52 373.74 h 0 M 296.46 372.93 h 0 M 291.41 374.21 h 0 M 286.36 370.49 h 0 M 281.31 371.04 h 0 M 276.26 373.81 h 0 M 271.21 377.55 h 0 M 266.16 378.22 h 0 M 261.11 377.35 h 0 M 256.06 379.22 h 0 M 251.01 378.80 h 0 M 245.96 378.76 h 0 M 240.91 380.91 h 0 M 235.86 383.68 h 0 M 230.81 382.33 h 0 M 225.76 382.78 h 0 M 220.71 383.52 h 0 M 215.66 385.04 h 0 M 210.61 386.31 h 0 M 205.56 385.85 h 0 M 200.51 384.47 h 0 M 195.45 387.45 h 0 M 190.40 389.26 h 0 M 185.35 391.46 h 0 M 180.30 393.93 h 0 M 175.25 395.12 h 0 M 170.20 396.18 h 0 M 165.15 397.69 h 0 M 160.10 398.55 h 0 M 155.05 399.25 h 0 M 150.00 399.99 h 0" /><text  class="poloto_text poloto_legend_text" x="675" y="350" >indirect_seq</text><line  class="poloto_scatter poloto_legend_icon poloto5stroke poloto5legend" stroke="black" x1="685" x2="685" y1="331.25" y2="331.25" /><path  class="poloto_scatter poloto5stroke" d=" M 650.00 146.35 h 0 M 644.95 159.33 h 0 M 639.90 153.13 h 0 M 634.85 160.02 h 0 M 629.80 158.29 h 0 M 624.75 162.34 h 0 M 619.70 170.12 h 0 M 614.65 188.14 h 0 M 609.60 175.03 h 0 M 604.55 175.36 h 0 M 599.49 182.97 h 0 M 594.44 187.22 h 0 M 589.39 191.29 h 0 M 584.34 196.87 h 0 M 579.29 195.37 h 0 M 574.24 206.93 h 0 M 569.19 206.40 h 0 M 564.14 207.43 h 0 M 559.09 211.66 h 0 M 554.04 220.91 h 0 M 548.99 217.00 h 0 M 543.94 215.42 h 0 M 538.89 224.54 h 0 M 533.84 224.63 h 0 M 528.79 230.59 h 0 M 523.74 234.71 h 0 M 518.69 229.81 h 0 M 513.64 242.13 h 0 M 508.59 240.53 h 0 M 503.54 241.75 h 0 M 498.48 249.24 h 0 M 493.43 249.59 h 0 M 488.38 253.44 h 0 M 483.33 251.19 h 0 M 478.28 209.92 h 0 M 473.23 262.70 h 0 M 468.18 260.99 h 0 M 463.13 263.06 h 0 M 458.08 265.08 h 0 M 453.03 238.92 h 0 M 447.98 277.40 h 0 M 442.93 275.16 h 0 M 437.88 282.01 h 0 M 432.83 283.90 h 0 M 427.78 285.57 h 0 M 422.73 291.61 h 0 M 417.68 291.28 h 0 M 412.63 296.34 h 0 M 407.58 294.55 h 0 M 402.53 301.11 h 0 M 397.47 302.96 h 0 M 392.42 308.49 h 0 M 387.37 311.05 h 0 M 382.32 306.14 h 0 M 377.27 315.81 h 0 M 372.22 316.33 h 0 M 367.17 319.29 h 0 M 362.12 319.34 h 0 M 357.07 323.39 h 0 M 352.02 325.95 h 0 M 346.97 328.88 h 0 M 341.92 329.51 h 0 M 336.87 333.38 h 0 M 331.82 334.98 h 0 M 326.77 337.52 h 0 M 321.72 335.88 h 0 M 316.67 340.24 h 0 M 311.62 342.90 h 0 M 306.57 346.64 h 0 M 301.52 350.01 h 0 M 296.46 351.17 h 0 M 291.41 351.65 h 0 M 286.36 354.86 h 0 M 281.31 358.27 h 0 M 276.26 360.99 h 0 M 271.21 362.19 h 0 M 266.16 364.37 h 0 M 261.11 366.97 h 0 M 256.06 367.21 h 0 M 251.01 368.29 h 0 M 245.96 370.81 h 0 M 240.91 370.89 h 0 M 235.86 373.66 h 0 M 230.81 376.12 h 0 M 225.76 379.00 h 0 M 220.71 380.54 h 0 M 215.66 382.50 h 0 M 210.61 385.01 h 0 M 205.56 386.21 h 0 M 200.51 386.58 h 0 M 195.45 388.24 h 0 M 190.40 390.60 h 0 M 185.35 391.58 h 0 M 180.30 393.16 h 0 M 175.25 394.54 h 0 M 170.20 395.25 h 0 M 165.15 397.41 h 0 M 160.10 398.31 h 0 M 155.05 399.25 h 0 M 150.00 400.00 h 0" /><text  class="poloto_labels poloto_text poloto_title" x="400" y="37.5" >Bench of rebal:128_bytes with abspiral(num,0.6)</text><text  class="poloto_labels poloto_text poloto_xname" x="400" y="481.25" >Number of Elements</text><text  class="poloto_labels poloto_text poloto_yname" transform="rotate(-90,37.5,250)" x="37.5" y="250" >Time in Seconds</text><text  class="poloto_tick_labels poloto_text" dominant-baseline="middle" text-anchor="start" x="150" y="70" ></text><line  class="poloto_axis_lines" stroke="black" x1="150" x2="144" y1="400" y2="400" /><text  class="poloto_tick_labels poloto_text" dominant-baseline="middle" text-anchor="end" x="135" y="400" >0e0</text><line  class="poloto_axis_lines" stroke="black" x1="150" x2="144" y1="303.832638016593" y2="303.832638016593" /><text  class="poloto_tick_labels poloto_text" dominant-baseline="middle" text-anchor="end" x="135" y="303.832638016593" >0.002</text><line  class="poloto_axis_lines" stroke="black" x1="150" x2="144" y1="207.66527603318605" y2="207.66527603318605" /><text  class="poloto_tick_labels poloto_text" dominant-baseline="middle" text-anchor="end" x="135" y="207.66527603318605" >0.004</text><line  class="poloto_axis_lines" stroke="black" x1="150" x2="144" y1="111.49791404977907" y2="111.49791404977907" /><text  class="poloto_tick_labels poloto_text" dominant-baseline="middle" text-anchor="end" x="135" y="111.49791404977907" >0.006</text><text  class="poloto_tick_labels poloto_text" dominant-baseline="middle" text-anchor="start" x="440.00000000000006" y="70" ></text><line  class="poloto_axis_lines" stroke="black" x1="150" x2="150" y1="400" y2="405" /><text  class="poloto_tick_labels poloto_text" dominant-baseline="start" text-anchor="middle" x="150" y="430" >0</text><line  class="poloto_axis_lines" stroke="black" x1="234.17508417508418" x2="234.17508417508418" y1="400" y2="405" /><text  class="poloto_tick_labels poloto_text" dominant-baseline="start" text-anchor="middle" x="234.17508417508418" y="430" >5000</text><line  class="poloto_axis_lines" stroke="black" x1="318.35016835016836" x2="318.35016835016836" y1="400" y2="405" /><text  class="poloto_tick_labels poloto_text" dominant-baseline="start" text-anchor="middle" x="318.35016835016836" y="430" >10000</text><line  class="poloto_axis_lines" stroke="black" x1="402.52525252525254" x2="402.52525252525254" y1="400" y2="405" /><text  class="poloto_tick_labels poloto_text" dominant-baseline="start" text-anchor="middle" x="402.52525252525254" y="430" >15000</text><line  class="poloto_axis_lines" stroke="black" x1="486.7003367003367" x2="486.7003367003367" y1="400" y2="405" /><text  class="poloto_tick_labels poloto_text" dominant-baseline="start" text-anchor="middle" x="486.7003367003367" y="430" >20000</text><line  class="poloto_axis_lines" stroke="black" x1="570.8754208754208" x2="570.8754208754208" y1="400" y2="405" /><text  class="poloto_tick_labels poloto_text" dominant-baseline="start" text-anchor="middle" x="570.8754208754208" y="430" >25000</text><path  stroke="black" fill="none" class="poloto_axis_lines" style="stroke-dasharray:8.417508417508419;stroke-dashoffset:-0;" d=" M 150 400 L 650 400" /><path  stroke="black" fill="none" class="poloto_axis_lines" style="stroke-dasharray:12.020920247925872;stroke-dashoffset:-0;" d=" M 150 400 L 150 100" /></svg>