<svg class="poloto" width="800" height="500" viewBox="0 0 800 500" xmlns="http://www.w3.org/2000/svg"><style>.poloto {
    font-family: "Arial";
    stroke-width:2;
    }
    .poloto_text{fill: var(--poloto_fg_color,black);  }
    .poloto_axis_lines{stroke: var(--poloto_fg_color,black);stoke-width:3;fill:none}
    .poloto_background{fill: var(--poloto_bg_color,aliceblue); }
    .poloto0stroke{stroke:  var(--poloto_color0,blue); }
    .poloto1stroke{stroke:  var(--poloto_color1,red); }
    .poloto2stroke{stroke:  var(--poloto_color2,green); }
    .poloto3stroke{stroke:  var(--poloto_color3,gold); }
    .poloto4stroke{stroke:  var(--poloto_color4,aqua); }
    .poloto5stroke{stroke:  var(--poloto_color5,brown); }
    .poloto6stroke{stroke:  var(--poloto_color6,lime); }
    .poloto7stroke{stroke:  var(--poloto_color7,chocolate); }
    .poloto0fill{fill:var(--poloto_color0,blue);}
    .poloto1fill{fill:var(--poloto_color1,red);}
    .poloto2fill{fill:var(--poloto_color2,green);}
    .poloto3fill{fill:var(--poloto_color3,gold);}
    .poloto4fill{fill:var(--poloto_color4,aqua);}
    .poloto5fill{fill:var(--poloto_color5,brown);}
    .poloto6fill{fill:var(--poloto_color6,lime);}
    .poloto7fill{fill:var(--poloto_color7,chocolate);}</style><rect class="poloto_background" fill="white" x="0" y="0" width="800" height="500"/><line class="poloto_axis_lines" stroke="black" x1="150" x2="150" y1="400" y2="405"/><text class="poloto_text" alignment-baseline="start" text-anchor="middle" x="150" y="430">0</text><line class="poloto_axis_lines" stroke="black" x1="234.17508417508418" x2="234.17508417508418" y1="400" y2="405"/><text class="poloto_text" alignment-baseline="start" text-anchor="middle" x="234.17508417508418" y="430">5000</text><line class="poloto_axis_lines" stroke="black" x1="318.35016835016836" x2="318.35016835016836" y1="400" y2="405"/><text class="poloto_text" alignment-baseline="start" text-anchor="middle" x="318.35016835016836" y="430">10000</text><line class="poloto_axis_lines" stroke="black" x1="402.52525252525254" x2="402.52525252525254" y1="400" y2="405"/><text class="poloto_text" alignment-baseline="start" text-anchor="middle" x="402.52525252525254" y="430">15000</text><line class="poloto_axis_lines" stroke="black" x1="486.7003367003367" x2="486.7003367003367" y1="400" y2="405"/><text class="poloto_text" alignment-baseline="start" text-anchor="middle" x="486.7003367003367" y="430">20000</text><line class="poloto_axis_lines" stroke="black" x1="570.8754208754208" x2="570.8754208754208" y1="400" y2="405"/><text class="poloto_text" alignment-baseline="start" text-anchor="middle" x="570.8754208754208" y="430">25000</text><line class="poloto_axis_lines" stroke="black" x1="150" x2="144" y1="352.8680897276624" y2="352.8680897276624"/><text class="poloto_text" alignment-baseline="middle" text-anchor="end" x="135" y="352.8680897276624">0.001</text><line class="poloto_axis_lines" stroke="black" x1="150" x2="144" y1="305.7326442969175" y2="305.7326442969175"/><text class="poloto_text" alignment-baseline="middle" text-anchor="end" x="135" y="305.7326442969175">0.002</text><line class="poloto_axis_lines" stroke="black" x1="150" x2="144" y1="258.59719886617256" y2="258.59719886617256"/><text class="poloto_text" alignment-baseline="middle" text-anchor="end" x="135" y="258.59719886617256">0.003</text><line class="poloto_axis_lines" stroke="black" x1="150" x2="144" y1="211.46175343542768" y2="211.46175343542768"/><text class="poloto_text" alignment-baseline="middle" text-anchor="end" x="135" y="211.46175343542768">0.004</text><line class="poloto_axis_lines" stroke="black" x1="150" x2="144" y1="164.3263080046827" y2="164.3263080046827"/><text class="poloto_text" alignment-baseline="middle" text-anchor="end" x="135" y="164.3263080046827">0.005</text><line class="poloto_axis_lines" stroke="black" x1="150" x2="144" y1="117.19086257393786" y2="117.19086257393786"/><text class="poloto_text" alignment-baseline="middle" text-anchor="end" x="135" y="117.19086257393786">0.006</text><text class="poloto_text" alignment-baseline="middle" text-anchor="start" font-size="large" x="675" y="100">default_par</text><line class="poloto0stroke" stroke="black" x1="680" x2="730" y1="81.25" y2="81.25"/><polyline class="poloto0stroke" fill="none" stroke="black" points="650,324.57103209499616 644.9494949494949,315.0002270357288 639.8989898989898,313.2121439133135 634.8484848484848,312.95261615077186 629.7979797979798,329.0257559072104 624.7474747474747,328.8317464138175 619.6969696969697,324.20139593192823 614.6464646464647,320.1650934688027 609.5959595959596,332.02950930273005 604.5454545454545,350.4978838541774 599.4949494949494,348.4040802326983 594.4444444444445,337.0936944243639 589.3939393939394,342.40779167767147 584.3434343434344,342.44634847203383 579.2929292929293,345.61276628973496 574.2424242424242,338.98736094454404 569.1919191919192,347.1448568080159 564.1414141414141,342.15599412818045 559.090909090909,344.43961218840917 554.040404040404,348.22868924025045 548.989898989899,345.9005753195351 543.939393939394,353.2905647250582 538.8888888888889,349.47546890733906 533.8383838383838,351.11351990694834 528.7878787878788,345.73135907043877 523.7373737373737,346.2615856960892 518.6868686868687,355.4625660505069 513.6363636363636,353.3223340152785 508.5858585858586,352.13659475002265 503.5353535353535,350.9565117382185 498.4848484848485,354.86649120758966 493.4343434343434,354.9204612926079 488.3838383838384,353.7928400315682 483.3333333333333,357.63711269000885 478.2828282828283,359.45762499888053 473.2323232323232,356.9142906343284 468.1818181818182,355.30159850436087 463.1313131313131,358.5851479039574 458.0808080808081,358.44869078943543 453.030303030303,358.0796202517127 447.979797979798,353.75216214216147 442.9292929292929,361.5082525523451 437.8787878787879,358.21169376980964 432.8282828282828,363.72781354223343 427.77777777777777,358.6958219298288 422.72727272727275,362.05200705083416 417.67676767676767,365.27583584107 412.62626262626264,365.8788867299109 407.57575757575756,369.03286079001833 402.52525252525254,362.7564462827967 397.47474747474746,367.5165606459567 392.4242424242424,368.50164432001384 387.37373737373736,370.6565354787712 382.32323232323233,367.93003277327523 377.27272727272725,365.01913620525414 372.22222222222223,367.76128787863314 367.1717171717172,372.18843745527045 362.1212121212121,364.0072324627469 357.07070707070704,371.88073726749855 352.020202020202,371.66980614919595 346.969696969697,367.55389191873786 341.9191919191919,369.49643789582973 336.86868686868684,376.5852318050503 331.8181818181818,377.14534230310386 326.7676767676768,371.37379555189085 321.7171717171717,373.48791455035064 316.66666666666663,377.83168152402095 311.6161616161616,376.1672818104159 306.5656565656566,374.6557894817882 301.5151515151515,376.3265996159718 296.4646464646464,377.99623136401965 291.4141414141414,375.9867059189707 286.3636363636364,379.1781055227502 281.3131313131313,380.5225969682167 276.26262626262627,381.27275758224704 271.2121212121212,381.668223969411 266.16161616161617,382.57515707494395 261.1111111111111,381.0704993859037 256.06060606060606,381.7873823754599 251.010101010101,380.01028181182994 245.95959595959596,383.9664068822778 240.9090909090909,383.47346439396307 235.85858585858585,384.74692272316554 230.8080808080808,383.4363216629637 225.75757575757575,386.6566624302376 220.7070707070707,385.0873820455118 215.65656565656565,389.3464937591885 210.6060606060606,390.6759018621172 205.55555555555554,389.2203593072158 200.50505050505052,391.4991695520106 195.45454545454544,392.9458035077256 190.40404040404042,392.45837586652624 185.35353535353534,394.44574765222274 180.3030303030303,395.55324207806353 175.25252525252526,396.2892149230192 170.2020202020202,396.78682382043155 165.15151515151516,398.0313409861395 160.1010101010101,398.7359216244383 155.05050505050505,399.35250038611787 150,399.9992458328731 "/><text class="poloto_text" alignment-baseline="middle" text-anchor="start" font-size="large" x="675" y="150">default_seq</text><line class="poloto1stroke" stroke="black" x1="680" x2="730" y1="131.25" y2="131.25"/><polyline class="poloto1stroke" fill="none" stroke="black" points="650,285.71822713534175 644.9494949494949,287.3060317501218 639.8989898989898,285.05941501455624 634.8484848484848,287.24159759621796 629.7979797979798,288.5683661142026 624.7474747474747,287.753394262705 619.6969696969697,290.7940075765515 614.6464646464647,296.0686053265881 609.5959595959596,291.13498538879753 604.5454545454545,294.03537075248755 599.4949494949494,294.87810538134386 594.4444444444445,288.38515063781324 589.3939393939394,299.1088415568712 584.3434343434344,299.92631158697657 579.2929292929293,298.33591452269786 574.2424242424242,301.45599819754057 569.1919191919192,304.53446127406795 564.1414141414141,303.51034945119414 559.090909090909,307.93726335060427 554.040404040404,309.3650902635924 548.989898989899,307.61584674821205 543.939393939394,308.69180756105965 538.8888888888889,309.959562501365 533.8383838383838,311.4018599961003 528.7878787878788,314.10931998164233 523.7373737373737,313.66280590707686 518.6868686868687,312.5616276309238 513.6363636363636,317.88755588103453 508.5858585858586,318.0393320153215 503.5353535353535,318.61598705472124 498.4848484848485,321.14433234762646 493.4343434343434,321.280742326703 488.3838383838384,323.0494056456008 483.3333333333333,322.0652175450069 478.2828282828283,325.17271605591964 473.2323232323232,326.55548148307594 468.1818181818182,325.45369044613227 463.1313131313131,325.98240873752894 458.0808080808081,327.49281695091173 453.030303030303,332.7965444062246 447.979797979798,333.3422314579763 442.9292929292929,332.8501374076793 437.8787878787879,334.1147814085862 432.8282828282828,335.9448150774349 427.77777777777777,336.72344550050536 422.72727272727275,341.73224647375804 417.67676767676767,342.301265570998 412.62626262626264,344.17155291024454 407.57575757575756,344.0257158420818 402.52525252525254,346.35962742258516 397.47474747474746,345.48333235658214 392.4242424242424,348.7840390583155 387.37373737373736,350.45291663923643 382.32323232323233,309.2600724911727 377.27272727272725,352.46371474131206 372.22222222222223,352.8058238042484 367.1717171717172,354.36020938821804 362.1212121212121,354.42124979005087 357.07070707070704,356.3140678722133 352.020202020202,357.25993485567204 346.969696969697,357.6754809425895 341.9191919191919,359.3527014973517 336.86868686868684,361.35181000896046 331.8181818181818,362.33203873213824 326.7676767676768,363.2761145686706 321.7171717171717,363.5273464928165 316.66666666666663,364.86311788087835 311.6161616161616,365.0954956268519 306.5656565656566,367.84165381309253 301.5151515151515,369.2693393197444 296.4646464646464,369.00731337859486 291.4141414141414,370.1642528866925 286.3636363636364,372.31127242606294 281.3131313131313,374.21818400640916 276.26262626262627,375.6361124758568 271.2121212121212,376.1969771410373 266.16161616161617,377.06917142328774 261.1111111111111,378.4974696907302 256.06060606060606,379.2899107993119 251.010101010101,380.55804282318064 245.95959595959596,380.9533678040083 240.9090909090909,381.746138860708 235.85858585858585,383.3947010646483 230.8080808080808,384.27387139282257 225.75757575757575,386.0399422622217 220.7070707070707,386.3999156589763 215.65656565656565,387.8362740875874 210.6060606060606,389.8311875445528 205.55555555555554,390.395634503586 200.50505050505052,390.66982138965665 195.45454545454544,391.7505900179382 190.40404040404042,393.24313389750273 185.35353535353534,393.69417297482954 180.3030303030303,394.50754222118246 175.25252525252526,395.88950634576645 170.2020202020202,396.60714350244956 165.15151515151516,397.8460986855967 160.1010101010101,398.56491422841555 155.05050505050505,399.3683378957826 150,400 "/><text class="poloto_text" alignment-baseline="middle" text-anchor="start" font-size="large" x="675" y="200">direct_par</text><line class="poloto2stroke" stroke="black" x1="680" x2="730" y1="181.25" y2="181.25"/><polyline class="poloto2stroke" fill="none" stroke="black" points="650,165.5945342994424 644.9494949494949,241.2767609527456 639.8989898989898,165.53966864096103 634.8484848484848,229.62624577018295 629.7979797979798,249.57344778657446 624.7474747474747,222.40481271752026 619.6969696969697,228.92849977147165 614.6464646464647,251.12212998164702 609.5959595959596,245.4822325295221 604.5454545454545,265.7030558066391 599.4949494949494,271.52159659694655 594.4444444444445,263.9989680479814 589.3939393939394,260.31858533330336 584.3434343434344,257.1458513659145 579.2929292929293,267.5970994103827 574.2424242424242,269.08492974540417 569.1919191919192,282.15455178355023 564.1414141414141,264.59212049328187 559.090909090909,270.2239106487927 554.040404040404,275.9213604797885 548.989898989899,279.45491628194975 543.939393939394,287.052725866377 538.8888888888889,278.92794200203406 533.8383838383838,295.4376502540522 528.7878787878788,291.94439525773424 523.7373737373737,280.85747859618704 518.6868686868687,279.6168736724498 513.6363636363636,292.6831019585249 508.5858585858586,295.7911189593374 503.5353535353535,294.05959837143894 498.4848484848485,297.9033525399799 493.4343434343434,285.9516889965602 488.3838383838384,291.332011550698 483.3333333333333,302.71159219292474 478.2828282828283,303.1281752596417 473.2323232323232,303.7553594965432 468.1818181818182,291.58300779761674 463.1313131313131,296.1676368974381 458.0808080808081,299.30162552868296 453.030303030303,309.49127185101054 447.979797979798,316.3338301933009 442.9292929292929,304.1910324186595 437.8787878787879,308.7325325859118 432.8282828282828,323.2892779273979 427.77777777777777,325.3556487196363 422.72727272727275,316.60269077403785 417.67676767676767,318.5557008200153 412.62626262626264,324.6455060987767 407.57575757575756,326.72139825099214 402.52525252525254,323.5805749801599 397.47474747474746,327.63196078582325 392.4242424242424,333.967577412506 387.37373737373736,338.6040083668558 382.32323232323233,333.3132431590364 377.27272727272725,330.5573279355916 372.22222222222223,324.37084785825175 367.1717171717172,332.17261251505784 362.1212121212121,334.1690814417224 357.07070707070704,338.0196231144054 352.020202020202,324.46874817841143 346.969696969697,340.0134053206805 341.9191919191919,337.2197817408911 336.86868686868684,342.39313255414254 331.8181818181818,343.2717372569716 326.7676767676768,344.18361958427477 321.7171717171717,345.9675547874922 316.66666666666663,346.6417330634881 311.6161616161616,351.2487043644437 306.5656565656566,346.377774569076 301.5151515151515,357.0035651679742 296.4646464646464,353.2591725184013 291.4141414141414,355.4492738548954 286.3636363636364,355.7713974889691 281.3131313131313,356.69930586771875 276.26262626262627,357.9692761739593 271.2121212121212,361.35256417608736 266.16161616161617,361.95024162414916 261.1111111111111,359.13894225232326 256.06060606060606,358.53287469497474 251.010101010101,359.8300421532289 245.95959595959596,365.431335675546 240.9090909090909,364.0863257401797 235.85858585858585,363.5158925795768 230.8080808080808,374.79922264223393 225.75757575757575,371.5094042283951 220.7070707070707,376.3008165273212 215.65656565656565,379.4989093643518 210.6060606060606,383.0742743066101 205.55555555555554,382.5585182627069 200.50505050505052,384.992639800196 195.45454545454544,385.1301810299629 190.40404040404042,387.2455726854493 185.35353535353534,388.45421977718445 180.3030303030303,389.2768275708418 175.25252525252526,391.34145435159934 170.2020202020202,392.6876426731014 165.15151515151516,395.5929301231162 160.1010101010101,397.1313367910849 155.05050505050505,398.4866222535551 150,399.997596092283 "/><text class="poloto_text" alignment-baseline="middle" text-anchor="start" font-size="large" x="675" y="250">direct_seq</text><line class="poloto3stroke" stroke="black" x1="680" x2="730" y1="231.25" y2="231.25"/><polyline class="poloto3stroke" fill="none" stroke="black" points="650,107.28534871666682 644.9494949494949,136.8355493015548 639.8989898989898,132.54523392300302 634.8484848484848,137.7354592257186 629.7979797979798,147.53637952957885 624.7474747474747,143.10805156680578 619.6969696969697,150.61455979343364 614.6464646464647,160.79209230628553 609.5959595959596,151.56264214282766 604.5454545454545,158.4134963235138 599.4949494949494,158.64163187939866 594.4444444444445,158.53849952479618 589.3939393939394,164.14445945621097 584.3434343434344,169.1394497439524 579.2929292929293,168.25872394607893 574.2424242424242,177.44386679083195 569.1919191919192,183.6339762974699 564.1414141414141,181.23096415396512 559.090909090909,187.6917725237119 554.040404040404,193.70196603514074 548.989898989899,189.42503712309127 543.939393939394,194.47583577822272 538.8888888888889,194.37341045530172 533.8383838383838,201.2252073448965 528.7878787878788,203.35012036035994 523.7373737373737,205.37510623151013 518.6868686868687,203.07079571073731 513.6363636363636,212.3267831299727 508.5858585858586,213.24121077132918 503.5353535353535,214.86846775393477 498.4848484848485,218.8759704599021 493.4343434343434,221.38565011641668 488.3838383838384,223.47007378425508 483.3333333333333,224.34891416431134 478.2828282828283,230.98921431025838 473.2323232323232,233.75172849606346 468.1818181818182,232.72643828705392 463.1313131313131,237.3487286077745 458.0808080808081,238.74681305469582 453.030303030303,246.27769030661136 447.979797979798,250.36768004208253 442.9292929292929,248.14057738092527 437.8787878787879,253.71957583755366 432.8282828282828,258.15893349455746 427.77777777777777,260.9878615229745 422.72727272727275,269.8307538984549 417.67676767676767,272.201195449167 412.62626262626264,275.17577200396505 407.57575757575756,276.21355310601376 402.52525252525254,278.85676747943364 397.47474747474746,280.3374332267496 392.4242424242424,284.739318204636 387.37373737373736,289.81792677257164 382.32323232323233,288.9242387272047 377.27272727272725,291.38659439650684 372.22222222222223,296.36112790093136 367.1717171717172,296.938867055576 362.1212121212121,297.57335728651924 357.07070707070704,304.04557243406026 352.020202020202,303.7841121182559 346.969696969697,308.8875139304881 341.9191919191919,310.3367403357018 336.86868686868684,314.06835927956297 331.8181818181818,315.7664137012056 326.7676767676768,318.8061785770343 321.7171717171717,319.7736335945003 316.66666666666663,320.8350766901553 311.6161616161616,322.8965925315144 306.5656565656566,329.39378946513364 301.5151515151515,331.41194069669643 296.4646464646464,333.4139716059219 291.4141414141414,334.1238785495544 286.3636363636364,335.7919076924576 281.3131313131313,342.26836503008735 276.26262626262627,346.2781773728808 271.2121212121212,347.989759667362 266.16161616161617,350.7306386837144 261.1111111111111,352.78074774727924 256.06060606060606,354.17176187738596 251.010101010101,356.5278742526871 245.95959595959596,357.78092293401807 240.9090909090909,359.6174612943362 235.85858585858585,362.68244363347037 230.8080808080808,364.7015375739418 225.75757575757575,368.4256148465341 220.7070707070707,368.4847226951042 215.65656565656565,373.3267584624229 210.6060606060606,376.5945646232456 205.55555555555554,378.1435767664362 200.50505050505052,380.0052854546143 195.45454545454544,381.92836449274324 190.40404040404042,384.3777579145519 185.35353535353534,386.0724185841235 180.3030303030303,388.3234189161141 175.25252525252526,390.9799254851455 170.2020202020202,392.35057710282615 165.15151515151516,395.29296014839497 160.1010101010101,396.7381329053016 155.05050505050505,398.46625974112897 150,399.99684192515616 "/><text class="poloto_text" alignment-baseline="middle" text-anchor="start" font-size="large" x="675" y="300">indirect_par</text><line class="poloto4stroke" stroke="black" x1="680" x2="730" y1="281.25" y2="281.25"/><polyline class="poloto4stroke" fill="none" stroke="black" points="650,207.7160881288281 644.9494949494949,208.12013316706043 639.8989898989898,235.5208160339702 634.8484848484848,249.35181692215912 629.7979797979798,252.2260892490805 624.7474747474747,250.049185837307 619.6969696969697,274.4351798853572 614.6464646464647,260.6649837217739 609.5959595959596,244.58236974080376 604.5454545454545,274.751081640634 599.4949494949494,289.11485446852663 594.4444444444445,277.86027702758224 589.3939393939394,278.3609025935022 584.3434343434344,285.47646943572744 579.2929292929293,285.67839768395277 574.2424242424242,273.4160172842536 569.1919191919192,297.3427235520266 564.1414141414141,250.81574958634718 559.090909090909,291.54779761987993 554.040404040404,292.38247208756763 548.989898989899,292.42225440351115 543.939393939394,304.8900510743975 538.8888888888889,283.78209157882844 533.8383838383838,312.27240453776074 528.7878787878788,310.79536821974295 523.7373737373737,298.5171031749336 518.6868686868687,296.87476284979016 513.6363636363636,309.5979864994657 508.5858585858586,301.4585435115938 503.5353535353535,308.5022759349826 498.4848484848485,309.27935088835386 493.4343434343434,314.9132621389091 488.3838383838384,314.62875259028914 483.3333333333333,312.5044052001709 478.2828282828283,318.1825766339856 473.2323232323232,321.2039586860963 468.1818181818182,316.99556471170314 463.1313131313131,318.05559374399513 458.0808080808081,321.2477946503469 453.030303030303,320.34100295115024 447.979797979798,323.35309932051115 442.9292929292929,323.63129271944337 437.8787878787879,323.83916003379295 432.8282828282828,338.5222755044789 427.77777777777777,339.17114204627853 422.72727272727275,327.12916698941353 417.67676767676767,331.59289367170504 412.62626262626264,340.15094655044743 407.57575757575756,345.06924746847307 402.52525252525254,331.86835321480237 397.47474747474746,338.86264055593426 392.4242424242424,342.0032281495394 387.37373737373736,345.308884073043 382.32323232323233,325.8219125458372 377.27272727272725,337.09892645880666 372.22222222222223,342.6544514636106 367.1717171717172,342.4136836083503 362.1212121212121,351.39854794546807 357.07070707070704,338.4609522899735 352.020202020202,348.0562677808648 346.969696969697,349.9697783235713 341.9191919191919,348.3961614778659 336.86868686868684,351.7030900583961 331.8181818181818,357.2523931844031 326.7676767676768,358.95817781909636 321.7171717171717,357.16382568243876 316.66666666666663,361.7206920049015 311.6161616161616,357.3328533897534 306.5656565656566,360.3928865071174 301.5151515151515,360.6466637453165 296.4646464646464,363.5519511953313 291.4141414141414,361.16779322999884 286.3636363636364,366.2764270766738 281.3131313131313,364.90968770096396 276.26262626262627,370.1052393090132 271.2121212121212,373.7521558574354 266.16161616161617,373.88229682226967 261.1111111111111,375.6080197503801 256.06060606060606,371.62526315326386 251.010101010101,374.029736495577 245.95959595959596,372.596771819037 240.9090909090909,377.8218302159259 235.85858585858585,377.849310180612 230.8080808080808,377.95300816055965 225.75757575757575,380.8734732240032 220.7070707070707,380.68634550564315 215.65656565656565,384.80320244500984 210.6060606060606,387.0853593064302 205.55555555555554,385.8172744180069 200.50505050505052,388.92071928061256 195.45454545454544,388.4747708313923 190.40404040404042,390.22250601251886 185.35353535353534,391.37020697331207 180.3030303030303,394.20799646547005 175.25252525252526,395.24643746375483 170.2020202020202,395.9694951966624 165.15151515151516,397.732879345672 160.1010101010101,398.55030224033203 155.05050505050505,399.2722758579947 150,399.9981145821828 "/><text class="poloto_text" alignment-baseline="middle" text-anchor="start" font-size="large" x="675" y="350">indirect_seq</text><line class="poloto5stroke" stroke="black" x1="680" x2="730" y1="331.25" y2="331.25"/><polyline class="poloto5stroke" fill="none" stroke="black" points="650,100 644.9494949494949,156.07369281233167 639.8989898989898,160.21402320352283 634.8484848484848,160.0375952312756 629.7979797979798,166.68265605721112 624.7474747474747,168.60564082444924 619.6969696969697,174.7864646483374 614.6464646464647,192.03615225817276 609.5959595959596,178.59505577458702 604.5454545454545,179.35714165631128 599.4949494949494,186.54143197797458 594.4444444444445,186.79563343518257 589.3939393939394,200.7057747362497 584.3434343434344,203.23336586202794 579.2929292929293,199.0240763141716 574.2424242424242,210.8284415906202 569.1919191919192,213.03555882291482 564.1414141414141,214.9638698954866 559.090909090909,221.73256699478696 554.040404040404,225.03558333334644 548.989898989899,221.2199690257276 543.939393939394,223.84225526137627 538.8888888888889,229.43105789065424 533.8383838383838,228.44625702926967 528.7878787878788,235.71524974637202 523.7373737373737,238.12561501936403 518.6868686868687,233.10667992534374 513.6363636363636,247.00074803951898 508.5858585858586,244.94781084922832 503.5353535353535,246.1702686264747 498.4848484848485,251.34046136488223 493.4343434343434,254.71092852585306 488.3838383838384,255.60636058270094 483.3333333333333,254.95032945319585 478.2828282828283,261.36503935731133 473.2323232323232,266.66197930848216 468.1818181818182,263.7573988901488 463.1313131313131,267.12697047765647 458.0808080808081,268.189686230338 453.030303030303,279.22065311815896 447.979797979798,279.78184773145745 442.9292929292929,278.0926076381104 437.8787878787879,283.3091816548218 432.8282828282828,284.35695547130183 427.77777777777777,288.2827253148923 422.72727272727275,292.86952264520346 417.67676767676767,294.51266427291927 412.62626262626264,300.51630595743325 407.57575757575756,297.87936059825563 402.52525252525254,301.7968817388957 397.47474747474746,305.028864961191 392.4242424242424,310.97462431871605 387.37373737373736,312.94465026049403 382.32323232323233,309.69876208179664 377.27272727272725,317.1249043739651 372.22222222222223,318.1564164617715 367.1717171717172,321.94700184786655 362.1212121212121,318.7069584644026 357.07070707070704,323.4839473170269 352.020202020202,326.88005616031205 346.969696969697,331.46171572707135 341.9191919191919,331.27883019880005 336.86868686868684,334.2335155956263 331.8181818181818,335.86609888356554 326.7676767676768,340.2832086103261 321.7171717171717,339.3777367036015 316.66666666666663,341.1239164150289 311.6161616161616,345.1025722283926 306.5656565656566,348.7386947598111 301.5151515151515,350.4198275565441 296.4646464646464,352.73898574262756 291.4141414141414,352.78536702093146 286.3636363636364,356.091022944435 281.3131313131313,359.5532156822141 276.26262626262627,362.06383804763726 271.2121212121212,363.2849760324116 266.16161616161617,364.898422329506 261.1111111111111,367.2501982438276 256.06060606060606,367.27744253128657 251.010101010101,370.3497308644625 245.95959595959596,370.7765423228379 240.9090909090909,372.18791896537067 235.85858585858585,373.397791578687 230.8080808080808,377.34020023451455 225.75757575757575,379.8227770099065 220.7070707070707,380.88092062438125 215.65656565656565,382.48116899675506 210.6060606060606,385.3019425931125 205.55555555555554,386.2825955352992 200.50505050505052,387.2571680050253 195.45454545454544,388.80316347970825 190.40404040404042,390.75527795222257 185.35353535353534,391.5266023812513 180.3030303030303,393.1443851393253 175.25252525252526,394.7700866522317 170.2020202020202,395.87475295134664 165.15151515151516,397.44346771072725 160.1010101010101,398.2950638033245 155.05050505050505,399.2729357542308 150,399.9980203112919 "/><text class="poloto_text" alignment-baseline="start" text-anchor="middle" font-size="x-large" x="400" y="37.5">Bench of rebal:128_bytes with abspiral(num,0.6)</text><text class="poloto_text" alignment-baseline="start" text-anchor="middle" font-size="x-large" x="400" y="481.25">Number of Elements</text><text class="poloto_text" alignment-baseline="start" text-anchor="middle" font-size="x-large" transform="rotate(-90,37.5,250)" x="37.5" y="250">Time in Seconds</text><path stroke="black" fill="none" class="poloto_axis_lines" d=" M 150 100 L 150 400 L 650 400"/></svg>