<svg class="poloto" width="800" height="500" viewBox="0 0 800 500" xmlns="http://www.w3.org/2000/svg"><circle  r="1e5" class="poloto_background" /><text  class="poloto_text poloto_legend_text" x="675" y="100" >default_par</text><line  class="poloto_scatter poloto_legend_icon poloto0stroke poloto0legend" stroke="black" x1="685" x2="685" y1="81.25" y2="81.25" /><path  class="poloto_scatter poloto0stroke" d=" M 650.00 350.30 h 0 M 644.95 353.90 h 0 M 639.90 348.69 h 0 M 634.85 355.30 h 0 M 629.80 357.53 h 0 M 624.75 356.08 h 0 M 619.70 353.65 h 0 M 614.65 359.69 h 0 M 609.60 358.82 h 0 M 604.55 356.34 h 0 M 599.49 353.96 h 0 M 594.44 354.39 h 0 M 589.39 357.17 h 0 M 584.34 317.48 h 0 M 579.29 357.84 h 0 M 574.24 348.11 h 0 M 569.19 365.09 h 0 M 564.14 361.91 h 0 M 559.09 360.72 h 0 M 554.04 363.93 h 0 M 548.99 335.34 h 0 M 543.94 364.28 h 0 M 538.89 362.45 h 0 M 533.84 362.57 h 0 M 528.79 362.31 h 0 M 523.74 364.32 h 0 M 518.69 361.81 h 0 M 513.64 360.86 h 0 M 508.59 365.44 h 0 M 503.54 367.54 h 0 M 498.48 366.88 h 0 M 493.43 364.86 h 0 M 488.38 365.56 h 0 M 483.33 363.47 h 0 M 478.28 364.83 h 0 M 473.23 364.10 h 0 M 468.18 360.89 h 0 M 463.13 368.15 h 0 M 458.08 370.90 h 0 M 453.03 370.75 h 0 M 447.98 370.99 h 0 M 442.93 375.03 h 0 M 437.88 373.81 h 0 M 432.83 371.72 h 0 M 427.78 376.35 h 0 M 422.73 371.50 h 0 M 417.68 377.40 h 0 M 412.63 373.16 h 0 M 407.58 375.32 h 0 M 402.53 370.78 h 0 M 397.47 378.02 h 0 M 392.42 374.54 h 0 M 387.37 378.63 h 0 M 382.32 376.80 h 0 M 377.27 376.32 h 0 M 372.22 377.03 h 0 M 367.17 376.37 h 0 M 362.12 379.97 h 0 M 357.07 372.41 h 0 M 352.02 378.46 h 0 M 346.97 379.66 h 0 M 341.92 379.66 h 0 M 336.87 382.55 h 0 M 331.82 379.23 h 0 M 326.77 383.51 h 0 M 321.72 379.73 h 0 M 316.67 326.74 h 0 M 311.62 382.14 h 0 M 306.57 378.22 h 0 M 301.52 377.35 h 0 M 296.46 384.60 h 0 M 291.41 384.91 h 0 M 286.36 382.60 h 0 M 281.31 384.28 h 0 M 276.26 384.94 h 0 M 271.21 386.81 h 0 M 266.16 385.14 h 0 M 261.11 386.97 h 0 M 256.06 387.93 h 0 M 251.01 388.41 h 0 M 245.96 387.56 h 0 M 240.91 389.04 h 0 M 235.86 388.46 h 0 M 230.81 390.27 h 0 M 225.76 391.40 h 0 M 220.71 392.52 h 0 M 215.66 391.66 h 0 M 210.61 389.67 h 0 M 205.56 391.41 h 0 M 200.51 390.64 h 0 M 195.45 392.37 h 0 M 190.40 394.83 h 0 M 185.35 393.60 h 0 M 180.30 396.49 h 0 M 175.25 397.30 h 0 M 170.20 397.57 h 0 M 165.15 398.30 h 0 M 160.10 398.76 h 0 M 155.05 399.54 h 0 M 150.00 400.00 h 0" /><text  class="poloto_text poloto_legend_text" x="675" y="150" >default_seq</text><line  class="poloto_scatter poloto_legend_icon poloto1stroke poloto1legend" stroke="black" x1="685" x2="685" y1="131.25" y2="131.25" /><path  class="poloto_scatter poloto1stroke" d=" M 650.00 300.89 h 0 M 644.95 301.04 h 0 M 639.90 301.31 h 0 M 634.85 301.77 h 0 M 629.80 304.47 h 0 M 624.75 305.71 h 0 M 619.70 304.85 h 0 M 614.65 307.41 h 0 M 609.60 309.76 h 0 M 604.55 307.81 h 0 M 599.49 310.81 h 0 M 594.44 311.75 h 0 M 589.39 314.35 h 0 M 584.34 312.58 h 0 M 579.29 305.01 h 0 M 574.24 316.07 h 0 M 569.19 317.62 h 0 M 564.14 317.52 h 0 M 559.09 321.11 h 0 M 554.04 321.79 h 0 M 548.99 322.23 h 0 M 543.94 322.07 h 0 M 538.89 323.53 h 0 M 533.84 325.07 h 0 M 528.79 326.62 h 0 M 523.74 327.53 h 0 M 518.69 327.06 h 0 M 513.64 324.92 h 0 M 508.59 328.71 h 0 M 503.54 328.91 h 0 M 498.48 330.01 h 0 M 493.43 333.51 h 0 M 488.38 334.50 h 0 M 483.33 333.67 h 0 M 478.28 335.83 h 0 M 473.23 337.62 h 0 M 468.18 319.68 h 0 M 463.13 338.99 h 0 M 458.08 338.00 h 0 M 453.03 340.68 h 0 M 447.98 342.29 h 0 M 442.93 343.63 h 0 M 437.88 343.44 h 0 M 432.83 343.16 h 0 M 427.78 345.18 h 0 M 422.73 345.99 h 0 M 417.68 347.72 h 0 M 412.63 348.45 h 0 M 407.58 350.00 h 0 M 402.53 350.65 h 0 M 397.47 352.55 h 0 M 392.42 353.29 h 0 M 387.37 354.13 h 0 M 382.32 353.91 h 0 M 377.27 354.98 h 0 M 372.22 356.98 h 0 M 367.17 359.13 h 0 M 362.12 358.77 h 0 M 357.07 359.77 h 0 M 352.02 362.07 h 0 M 346.97 362.96 h 0 M 341.92 362.88 h 0 M 336.87 363.62 h 0 M 331.82 365.71 h 0 M 326.77 365.48 h 0 M 321.72 366.95 h 0 M 316.67 368.13 h 0 M 311.62 368.65 h 0 M 306.57 369.88 h 0 M 301.52 363.25 h 0 M 296.46 373.07 h 0 M 291.41 373.37 h 0 M 286.36 376.94 h 0 M 281.31 378.47 h 0 M 276.26 379.08 h 0 M 271.21 379.73 h 0 M 266.16 381.61 h 0 M 261.11 382.96 h 0 M 256.06 382.85 h 0 M 251.01 383.87 h 0 M 245.96 383.95 h 0 M 240.91 385.21 h 0 M 235.86 385.49 h 0 M 230.81 387.07 h 0 M 225.76 388.48 h 0 M 220.71 388.64 h 0 M 215.66 389.27 h 0 M 210.61 390.60 h 0 M 205.56 391.08 h 0 M 200.51 392.03 h 0 M 195.45 392.79 h 0 M 190.40 393.24 h 0 M 185.35 393.58 h 0 M 180.30 396.05 h 0 M 175.25 396.87 h 0 M 170.20 397.50 h 0 M 165.15 397.85 h 0 M 160.10 398.77 h 0 M 155.05 399.52 h 0 M 150.00 400.00 h 0" /><text  class="poloto_text poloto_legend_text" x="675" y="200" >direct_par</text><line  class="poloto_scatter poloto_legend_icon poloto2stroke poloto2legend" stroke="black" x1="685" x2="685" y1="181.25" y2="181.25" /><path  class="poloto_scatter poloto2stroke" d=" M 650.00 276.36 h 0 M 644.95 266.09 h 0 M 639.90 290.67 h 0 M 634.85 290.03 h 0 M 629.80 276.56 h 0 M 624.75 297.31 h 0 M 619.70 302.88 h 0 M 614.65 300.09 h 0 M 609.60 302.29 h 0 M 604.55 297.06 h 0 M 599.49 291.02 h 0 M 594.44 299.03 h 0 M 589.39 233.33 h 0 M 584.34 307.14 h 0 M 579.29 280.00 h 0 M 574.24 304.49 h 0 M 569.19 310.28 h 0 M 564.14 307.18 h 0 M 559.09 311.49 h 0 M 554.04 306.50 h 0 M 548.99 305.95 h 0 M 543.94 320.44 h 0 M 538.89 320.80 h 0 M 533.84 316.77 h 0 M 528.79 315.99 h 0 M 523.74 320.86 h 0 M 518.69 316.58 h 0 M 513.64 324.24 h 0 M 508.59 323.24 h 0 M 503.54 321.01 h 0 M 498.48 328.31 h 0 M 493.43 296.44 h 0 M 488.38 328.09 h 0 M 483.33 331.66 h 0 M 478.28 324.83 h 0 M 473.23 331.62 h 0 M 468.18 329.49 h 0 M 463.13 321.52 h 0 M 458.08 335.34 h 0 M 453.03 336.59 h 0 M 447.98 335.79 h 0 M 442.93 340.39 h 0 M 437.88 337.32 h 0 M 432.83 336.07 h 0 M 427.78 344.47 h 0 M 422.73 342.55 h 0 M 417.68 346.63 h 0 M 412.63 345.33 h 0 M 407.58 344.17 h 0 M 402.53 341.80 h 0 M 397.47 344.94 h 0 M 392.42 346.02 h 0 M 387.37 348.26 h 0 M 382.32 337.85 h 0 M 377.27 338.69 h 0 M 372.22 351.21 h 0 M 367.17 352.06 h 0 M 362.12 353.65 h 0 M 357.07 351.37 h 0 M 352.02 353.67 h 0 M 346.97 358.05 h 0 M 341.92 356.24 h 0 M 336.87 358.30 h 0 M 331.82 357.17 h 0 M 326.77 361.32 h 0 M 321.72 360.60 h 0 M 316.67 362.42 h 0 M 311.62 361.69 h 0 M 306.57 350.53 h 0 M 301.52 363.49 h 0 M 296.46 359.05 h 0 M 291.41 355.94 h 0 M 286.36 369.34 h 0 M 281.31 372.21 h 0 M 276.26 362.32 h 0 M 271.21 369.19 h 0 M 266.16 365.49 h 0 M 261.11 367.15 h 0 M 256.06 372.65 h 0 M 251.01 375.99 h 0 M 245.96 361.97 h 0 M 240.91 373.28 h 0 M 235.86 378.78 h 0 M 230.81 381.69 h 0 M 225.76 376.88 h 0 M 220.71 383.43 h 0 M 215.66 384.16 h 0 M 210.61 382.12 h 0 M 205.56 379.52 h 0 M 200.51 386.42 h 0 M 195.45 383.54 h 0 M 190.40 388.86 h 0 M 185.35 390.91 h 0 M 180.30 392.44 h 0 M 175.25 394.12 h 0 M 170.20 394.61 h 0 M 165.15 396.16 h 0 M 160.10 397.08 h 0 M 155.05 399.09 h 0 M 150.00 400.00 h 0" /><text  class="poloto_text poloto_legend_text" x="675" y="250" >direct_seq</text><line  class="poloto_scatter poloto_legend_icon poloto3stroke poloto3legend" stroke="black" x1="685" x2="685" y1="231.25" y2="231.25" /><path  class="poloto_scatter poloto3stroke" d=" M 650.00 170.03 h 0 M 644.95 183.66 h 0 M 639.90 182.81 h 0 M 634.85 187.85 h 0 M 629.80 184.35 h 0 M 624.75 191.48 h 0 M 619.70 195.68 h 0 M 614.65 198.95 h 0 M 609.60 202.84 h 0 M 604.55 201.27 h 0 M 599.49 205.20 h 0 M 594.44 206.66 h 0 M 589.39 204.83 h 0 M 584.34 209.48 h 0 M 579.29 213.24 h 0 M 574.24 218.69 h 0 M 569.19 221.04 h 0 M 564.14 221.35 h 0 M 559.09 229.16 h 0 M 554.04 228.48 h 0 M 548.99 231.70 h 0 M 543.94 233.00 h 0 M 538.89 235.74 h 0 M 533.84 238.58 h 0 M 528.79 240.83 h 0 M 523.74 241.61 h 0 M 518.69 241.65 h 0 M 513.64 243.03 h 0 M 508.59 249.06 h 0 M 503.54 248.37 h 0 M 498.48 252.78 h 0 M 493.43 173.01 h 0 M 488.38 258.44 h 0 M 483.33 259.94 h 0 M 478.28 263.26 h 0 M 473.23 266.83 h 0 M 468.18 262.54 h 0 M 463.13 262.76 h 0 M 458.08 269.96 h 0 M 453.03 274.06 h 0 M 447.98 276.47 h 0 M 442.93 279.87 h 0 M 437.88 278.80 h 0 M 432.83 282.46 h 0 M 427.78 283.66 h 0 M 422.73 285.87 h 0 M 417.68 288.90 h 0 M 412.63 291.62 h 0 M 407.58 294.18 h 0 M 402.53 295.74 h 0 M 397.47 298.42 h 0 M 392.42 301.60 h 0 M 387.37 298.86 h 0 M 382.32 305.09 h 0 M 377.27 305.47 h 0 M 372.22 308.37 h 0 M 367.17 313.81 h 0 M 362.12 312.79 h 0 M 357.07 315.51 h 0 M 352.02 319.45 h 0 M 346.97 321.90 h 0 M 341.92 321.60 h 0 M 336.87 324.91 h 0 M 331.82 327.30 h 0 M 326.77 328.25 h 0 M 321.72 329.71 h 0 M 316.67 332.25 h 0 M 311.62 331.53 h 0 M 306.57 335.97 h 0 M 301.52 337.60 h 0 M 296.46 339.36 h 0 M 291.41 322.53 h 0 M 286.36 352.90 h 0 M 281.31 353.58 h 0 M 276.26 356.38 h 0 M 271.21 357.52 h 0 M 266.16 358.03 h 0 M 261.11 363.62 h 0 M 256.06 362.16 h 0 M 251.01 365.39 h 0 M 245.96 362.74 h 0 M 240.91 368.70 h 0 M 235.86 370.32 h 0 M 230.81 372.61 h 0 M 225.76 375.03 h 0 M 220.71 376.37 h 0 M 215.66 377.74 h 0 M 210.61 380.01 h 0 M 205.56 381.56 h 0 M 200.51 383.45 h 0 M 195.45 384.58 h 0 M 190.40 386.98 h 0 M 185.35 388.15 h 0 M 180.30 390.42 h 0 M 175.25 393.37 h 0 M 170.20 394.62 h 0 M 165.15 395.84 h 0 M 160.10 397.45 h 0 M 155.05 399.00 h 0 M 150.00 399.99 h 0" /><text  class="poloto_text poloto_legend_text" x="675" y="300" >indirect_par</text><line  class="poloto_scatter poloto_legend_icon poloto4stroke poloto4legend" stroke="black" x1="685" x2="685" y1="281.25" y2="281.25" /><path  class="poloto_scatter poloto4stroke" d=" M 650.00 277.48 h 0 M 644.95 295.95 h 0 M 639.90 293.04 h 0 M 634.85 269.51 h 0 M 629.80 301.72 h 0 M 624.75 286.93 h 0 M 619.70 302.70 h 0 M 614.65 287.76 h 0 M 609.60 308.50 h 0 M 604.55 302.56 h 0 M 599.49 292.54 h 0 M 594.44 301.82 h 0 M 589.39 306.07 h 0 M 584.34 305.71 h 0 M 579.29 274.22 h 0 M 574.24 312.54 h 0 M 569.19 317.56 h 0 M 564.14 315.27 h 0 M 559.09 312.96 h 0 M 554.04 320.49 h 0 M 548.99 311.34 h 0 M 543.94 320.86 h 0 M 538.89 320.75 h 0 M 533.84 320.06 h 0 M 528.79 314.24 h 0 M 523.74 323.80 h 0 M 518.69 322.14 h 0 M 513.64 321.74 h 0 M 508.59 326.93 h 0 M 503.54 322.47 h 0 M 498.48 333.33 h 0 M 493.43 333.12 h 0 M 488.38 331.69 h 0 M 483.33 326.80 h 0 M 478.28 337.54 h 0 M 473.23 340.89 h 0 M 468.18 317.07 h 0 M 463.13 332.57 h 0 M 458.08 341.50 h 0 M 453.03 339.39 h 0 M 447.98 348.26 h 0 M 442.93 341.30 h 0 M 437.88 347.44 h 0 M 432.83 344.89 h 0 M 427.78 348.86 h 0 M 422.73 348.87 h 0 M 417.68 351.12 h 0 M 412.63 352.52 h 0 M 407.58 350.96 h 0 M 402.53 355.59 h 0 M 397.47 351.29 h 0 M 392.42 355.15 h 0 M 387.37 360.11 h 0 M 382.32 328.86 h 0 M 377.27 355.44 h 0 M 372.22 361.27 h 0 M 367.17 359.90 h 0 M 362.12 363.02 h 0 M 357.07 358.84 h 0 M 352.02 361.55 h 0 M 346.97 365.96 h 0 M 341.92 362.45 h 0 M 336.87 364.43 h 0 M 331.82 368.48 h 0 M 326.77 367.42 h 0 M 321.72 351.50 h 0 M 316.67 370.16 h 0 M 311.62 370.70 h 0 M 306.57 372.20 h 0 M 301.52 360.64 h 0 M 296.46 376.60 h 0 M 291.41 373.31 h 0 M 286.36 358.83 h 0 M 281.31 374.13 h 0 M 276.26 376.23 h 0 M 271.21 377.39 h 0 M 266.16 377.15 h 0 M 261.11 378.22 h 0 M 256.06 378.76 h 0 M 251.01 381.23 h 0 M 245.96 381.16 h 0 M 240.91 381.74 h 0 M 235.86 380.89 h 0 M 230.81 384.64 h 0 M 225.76 385.15 h 0 M 220.71 386.81 h 0 M 215.66 386.64 h 0 M 210.61 386.97 h 0 M 205.56 388.07 h 0 M 200.51 387.50 h 0 M 195.45 389.68 h 0 M 190.40 391.36 h 0 M 185.35 393.25 h 0 M 180.30 395.15 h 0 M 175.25 396.40 h 0 M 170.20 396.72 h 0 M 165.15 397.86 h 0 M 160.10 398.53 h 0 M 155.05 399.48 h 0 M 150.00 400.00 h 0" /><text  class="poloto_text poloto_legend_text" x="675" y="350" >indirect_seq</text><line  class="poloto_scatter poloto_legend_icon poloto5stroke poloto5legend" stroke="black" x1="685" x2="685" y1="331.25" y2="331.25" /><path  class="poloto_scatter poloto5stroke" d=" M 650.00 179.88 h 0 M 644.95 100.00 h 0 M 639.90 177.45 h 0 M 634.85 185.21 h 0 M 629.80 171.78 h 0 M 624.75 195.85 h 0 M 619.70 194.65 h 0 M 614.65 196.87 h 0 M 609.60 206.05 h 0 M 604.55 201.82 h 0 M 599.49 209.39 h 0 M 594.44 211.20 h 0 M 589.39 152.00 h 0 M 584.34 215.58 h 0 M 579.29 218.51 h 0 M 574.24 225.18 h 0 M 569.19 228.67 h 0 M 564.14 228.11 h 0 M 559.09 237.37 h 0 M 554.04 236.12 h 0 M 548.99 241.79 h 0 M 543.94 242.94 h 0 M 538.89 244.22 h 0 M 533.84 247.36 h 0 M 528.79 250.90 h 0 M 523.74 251.34 h 0 M 518.69 255.26 h 0 M 513.64 249.11 h 0 M 508.59 259.51 h 0 M 503.54 259.45 h 0 M 498.48 264.42 h 0 M 493.43 268.46 h 0 M 488.38 272.38 h 0 M 483.33 270.59 h 0 M 478.28 273.33 h 0 M 473.23 280.26 h 0 M 468.18 273.53 h 0 M 463.13 282.62 h 0 M 458.08 280.32 h 0 M 453.03 284.23 h 0 M 447.98 290.63 h 0 M 442.93 292.14 h 0 M 437.88 287.49 h 0 M 432.83 293.42 h 0 M 427.78 296.00 h 0 M 422.73 299.49 h 0 M 417.68 301.81 h 0 M 412.63 304.47 h 0 M 407.58 308.24 h 0 M 402.53 309.22 h 0 M 397.47 312.87 h 0 M 392.42 316.09 h 0 M 387.37 317.10 h 0 M 382.32 315.14 h 0 M 377.27 315.92 h 0 M 372.22 321.64 h 0 M 367.17 328.14 h 0 M 362.12 326.06 h 0 M 357.07 328.77 h 0 M 352.02 334.91 h 0 M 346.97 336.90 h 0 M 341.92 335.58 h 0 M 336.87 338.91 h 0 M 331.82 341.17 h 0 M 326.77 341.97 h 0 M 321.72 343.35 h 0 M 316.67 344.00 h 0 M 311.62 347.71 h 0 M 306.57 350.25 h 0 M 301.52 351.85 h 0 M 296.46 354.63 h 0 M 291.41 352.41 h 0 M 286.36 361.62 h 0 M 281.31 363.61 h 0 M 276.26 364.42 h 0 M 271.21 365.74 h 0 M 266.16 369.54 h 0 M 261.11 372.29 h 0 M 256.06 372.61 h 0 M 251.01 373.87 h 0 M 245.96 373.94 h 0 M 240.91 376.55 h 0 M 235.86 376.82 h 0 M 230.81 379.38 h 0 M 225.76 381.55 h 0 M 220.71 382.26 h 0 M 215.66 383.58 h 0 M 210.61 385.85 h 0 M 205.56 387.21 h 0 M 200.51 388.50 h 0 M 195.45 389.70 h 0 M 190.40 390.95 h 0 M 185.35 392.30 h 0 M 180.30 394.60 h 0 M 175.25 395.55 h 0 M 170.20 396.63 h 0 M 165.15 397.49 h 0 M 160.10 398.53 h 0 M 155.05 399.43 h 0 M 150.00 400.00 h 0" /><text  class="poloto_labels poloto_text poloto_title" x="400" y="37.5" >Bench of rebal:128_bytes with abspiral(num,1.5)</text><text  class="poloto_labels poloto_text poloto_xname" x="400" y="481.25" >Number of Elements</text><text  class="poloto_labels poloto_text poloto_yname" transform="rotate(-90,37.5,250)" x="37.5" y="250" >Time in Seconds</text><text  class="poloto_tick_labels poloto_text" dominant-baseline="middle" text-anchor="start" x="150" y="70" ></text><line  class="poloto_axis_lines" stroke="black" x1="150" x2="144" y1="400" y2="400" /><text  class="poloto_tick_labels poloto_text" dominant-baseline="middle" text-anchor="end" x="135" y="400" >0e0</text><line  class="poloto_axis_lines" stroke="black" x1="150" x2="144" y1="316.8470508212809" y2="316.8470508212809" /><text  class="poloto_tick_labels poloto_text" dominant-baseline="middle" text-anchor="end" x="135" y="316.8470508212809" >0.002</text><line  class="poloto_axis_lines" stroke="black" x1="150" x2="144" y1="233.6941016425618" y2="233.6941016425618" /><text  class="poloto_tick_labels poloto_text" dominant-baseline="middle" text-anchor="end" x="135" y="233.6941016425618" >0.004</text><line  class="poloto_axis_lines" stroke="black" x1="150" x2="144" y1="150.54115246384268" y2="150.54115246384268" /><text  class="poloto_tick_labels poloto_text" dominant-baseline="middle" text-anchor="end" x="135" y="150.54115246384268" >0.006</text><text  class="poloto_tick_labels poloto_text" dominant-baseline="middle" text-anchor="start" x="440.00000000000006" y="70" ></text><line  class="poloto_axis_lines" stroke="black" x1="150" x2="150" y1="400" y2="405" /><text  class="poloto_tick_labels poloto_text" dominant-baseline="start" text-anchor="middle" x="150" y="430" >0</text><line  class="poloto_axis_lines" stroke="black" x1="234.17508417508418" x2="234.17508417508418" y1="400" y2="405" /><text  class="poloto_tick_labels poloto_text" dominant-baseline="start" text-anchor="middle" x="234.17508417508418" y="430" >5000</text><line  class="poloto_axis_lines" stroke="black" x1="318.35016835016836" x2="318.35016835016836" y1="400" y2="405" /><text  class="poloto_tick_labels poloto_text" dominant-baseline="start" text-anchor="middle" x="318.35016835016836" y="430" >10000</text><line  class="poloto_axis_lines" stroke="black" x1="402.52525252525254" x2="402.52525252525254" y1="400" y2="405" /><text  class="poloto_tick_labels poloto_text" dominant-baseline="start" text-anchor="middle" x="402.52525252525254" y="430" >15000</text><line  class="poloto_axis_lines" stroke="black" x1="486.7003367003367" x2="486.7003367003367" y1="400" y2="405" /><text  class="poloto_tick_labels poloto_text" dominant-baseline="start" text-anchor="middle" x="486.7003367003367" y="430" >20000</text><line  class="poloto_axis_lines" stroke="black" x1="570.8754208754208" x2="570.8754208754208" y1="400" y2="405" /><text  class="poloto_tick_labels poloto_text" dominant-baseline="start" text-anchor="middle" x="570.8754208754208" y="430" >25000</text><path  stroke="black" fill="none" class="poloto_axis_lines" style="stroke-dasharray:8.417508417508419;stroke-dashoffset:-0;" d=" M 150 400 L 650 400" /><path  stroke="black" fill="none" class="poloto_axis_lines" style="stroke-dasharray:10.394118647339889;stroke-dashoffset:-0;" d=" M 150 400 L 150 100" /></svg>