<svg class="poloto" height="500" viewBox="0 0 800 500" width="800" xmlns="http://www.w3.org/2000/svg">
<rect class="poloto_background" fill="white" height="500" width="800" x="0" y="0"/>
<style>
.poloto {
font-family: "Arial";
stroke-width:2;
}
.poloto_text{fill: var(--poloto_fg_color,black);  }
.poloto_axis_lines{stroke: var(--poloto_fg_color,black);stoke-width:3;fill:none}
.poloto_background{fill: var(--poloto_bg_color,aliceblue); }
.poloto0stroke{stroke:  var(--poloto_color0,blue); }
.poloto1stroke{stroke:  var(--poloto_color1,red); }
.poloto2stroke{stroke:  var(--poloto_color2,green); }
.poloto3stroke{stroke:  var(--poloto_color3,gold); }
.poloto4stroke{stroke:  var(--poloto_color4,aqua); }
.poloto5stroke{stroke:  var(--poloto_color5,brown); }
.poloto6stroke{stroke:  var(--poloto_color6,lime); }
.poloto7stroke{stroke:  var(--poloto_color7,chocolate); }
.poloto0fill{fill:var(--poloto_color0,blue);}
.poloto1fill{fill:var(--poloto_color1,red);}
.poloto2fill{fill:var(--poloto_color2,green);}
.poloto3fill{fill:var(--poloto_color3,gold);}
.poloto4fill{fill:var(--poloto_color4,aqua);}
.poloto5fill{fill:var(--poloto_color5,brown);}
.poloto6fill{fill:var(--poloto_color6,lime);}
.poloto7fill{fill:var(--poloto_color7,chocolate);}
</style>
<line class="poloto_axis_lines" stroke="black" x1="150" x2="150" y1="400" y2="405"/>
<text alignment-baseline="start" class="poloto_text" text-anchor="middle" x="150" y="440">
0
</text>
<line class="poloto_axis_lines" stroke="black" x1="234.17508" x2="234.17508" y1="400" y2="405"/>
<text alignment-baseline="start" class="poloto_text" text-anchor="middle" x="234.17508" y="440">
5000
</text>
<line class="poloto_axis_lines" stroke="black" x1="318.35016" x2="318.35016" y1="400" y2="405"/>
<text alignment-baseline="start" class="poloto_text" text-anchor="middle" x="318.35016" y="440">
10000
</text>
<line class="poloto_axis_lines" stroke="black" x1="402.52527" x2="402.52527" y1="400" y2="405"/>
<text alignment-baseline="start" class="poloto_text" text-anchor="middle" x="402.52527" y="440">
15000
</text>
<line class="poloto_axis_lines" stroke="black" x1="486.70035" x2="486.70035" y1="400" y2="405"/>
<text alignment-baseline="start" class="poloto_text" text-anchor="middle" x="486.70035" y="440">
20000
</text>
<line class="poloto_axis_lines" stroke="black" x1="570.8754" x2="570.8754" y1="400" y2="405"/>
<text alignment-baseline="start" class="poloto_text" text-anchor="middle" x="570.8754" y="440">
25000
</text>
<line class="poloto_axis_lines" stroke="black" x1="150" x2="144" y1="351.3568" y2="351.3568"/>
<text alignment-baseline="middle" class="poloto_text" text-anchor="end" x="120" y="351.3568">
0.002
</text>
<line class="poloto_axis_lines" stroke="black" x1="150" x2="144" y1="302.71085" y2="302.71085"/>
<text alignment-baseline="middle" class="poloto_text" text-anchor="end" x="120" y="302.71085">
0.004
</text>
<line class="poloto_axis_lines" stroke="black" x1="150" x2="144" y1="254.06488" y2="254.06488"/>
<text alignment-baseline="middle" class="poloto_text" text-anchor="end" x="120" y="254.06488">
0.006
</text>
<line class="poloto_axis_lines" stroke="black" x1="150" x2="144" y1="205.41891" y2="205.41891"/>
<text alignment-baseline="middle" class="poloto_text" text-anchor="end" x="120" y="205.41891">
0.008
</text>
<line class="poloto_axis_lines" stroke="black" x1="150" x2="144" y1="156.77295" y2="156.77295"/>
<text alignment-baseline="middle" class="poloto_text" text-anchor="end" x="120" y="156.77295">
0.010
</text>
<line class="poloto_axis_lines" stroke="black" x1="150" x2="144" y1="108.12698" y2="108.12698"/>
<text alignment-baseline="middle" class="poloto_text" text-anchor="end" x="120" y="108.12698">
0.012
</text>
<text alignment-baseline="middle" class="poloto_text" font-size="large" text-anchor="start" x="675" y="100">
default_par
</text>
<line class="poloto0stroke" x1="680" x2="730" y1="81.25" y2="81.25"/>
<polyline class="poloto0stroke" fill="none" points="650,318.5363 644.94946,317.71085 639.899,323.2503 634.8485,317.45404 629.798,324.36694 624.7475,322.30487 619.697,308.35654 614.6465,326.01227 609.59595,326.2854 604.5455,301.818 599.495,325.41687 594.44446,329.058 589.3939,329.1355 584.34344,328.6502 579.29297,330.20578 574.24243,331.4137 569.1919,331.95532 564.1414,331.55002 559.09094,333.8744 554.0404,333.50635 548.98987,331.58884 543.9394,316.44067 538.8889,336.69043 533.8384,338.5529 528.78784,334.81622 523.73737,337.06174 518.6869,338.06033 513.63635,338.1627 508.58588,338.2846 503.53537,340.03592 498.48486,339.32834 493.43436,341.15363 488.38385,337.17725 483.33334,339.68222 478.28284,338.41354 473.23233,342.17133 468.18182,343.74487 463.13132,340.55487 458.0808,343.32022 453.0303,345.85037 447.9798,347.33765 442.9293,345.92606 437.87878,348.37604 432.82828,347.87897 427.77777,347.42252 422.72726,350.1183 417.67676,351.61017 412.62628,350.1157 407.57578,351.09464 402.52527,352.27548 397.47473,351.44586 392.42426,354.95193 387.37375,357.28998 382.32324,332.02905 377.27274,356.89307 372.22223,359.85675 367.17172,346.10547 362.12122,359.859 357.0707,362.14136 352.0202,359.80762 346.9697,360.13828 341.9192,363.31107 336.86868,364.81766 331.81818,363.0176 326.7677,363.74896 321.71716,366.9003 316.6667,365.6778 311.61615,367.56894 306.56567,366.97003 301.51514,371.01932 296.46466,370.85278 291.41412,373.13477 286.36365,372.6292 281.31314,374.46042 276.26263,374.28284 271.21213,374.6202 266.16162,374.83533 261.1111,378.18945 256.0606,376.27945 251.0101,374.2671 245.9596,379.15582 240.90909,380.09537 235.85858,380.8834 230.80807,380.149 225.75757,380.64038 220.70706,372.27957 215.65657,378.02286 210.60606,378.92862 205.55556,380.34326 200.50505,380.46555 195.45454,382.79312 190.40404,384.4735 185.35353,384.61395 180.30302,386.2292 175.25253,388.49283 170.20203,390.9251 165.15152,393.47937 160.10101,395.48303 155.0505,398.04654 150,399.99915 " stroke="black"/>
<text alignment-baseline="middle" class="poloto_text" font-size="large" text-anchor="start" x="675" y="150">
default_seq
</text>
<line class="poloto1stroke" x1="680" x2="730" y1="131.25" y2="131.25"/>
<polyline class="poloto1stroke" fill="none" points="650,144.27766 644.94946,152.73376 639.899,153.20503 634.8485,156.74973 629.798,160.05049 624.7475,162.62453 619.697,163.17517 614.6465,165.50589 609.59595,171.12444 604.5455,170.06602 599.495,173.02556 594.44446,177.7042 589.3939,181.30177 584.34344,183.54619 579.29297,186.39368 574.24243,188.64995 569.1919,191.16946 564.1414,193.58754 559.09094,196.75548 554.0404,196.27284 548.98987,199.0136 543.9394,202.01059 538.8889,203.94711 533.8384,208.11885 528.78784,211.11147 523.73737,213.21027 518.6869,213.85904 513.63635,217.88756 508.58588,220.93367 503.53537,223.52861 498.48486,225.11975 493.43436,227.04022 488.38385,228.71655 483.33334,231.37495 478.28284,233.931 473.23233,236.95868 468.18182,238.05399 463.13132,241.87048 458.0808,243.75043 453.0303,245.74567 447.9798,248.63173 442.9293,250.96742 437.87878,253.76962 432.82828,255.62257 427.77777,256.59683 422.72726,265.7271 417.67676,268.2013 412.62628,270.1457 407.57578,274.13217 402.52527,275.48294 397.47473,278.17453 392.42426,281.07056 387.37375,284.02853 382.32324,284.40524 377.27274,288.6947 372.22223,291.11868 367.17172,294.2864 362.12122,295.4811 357.0707,297.68335 352.0202,299.92145 346.9697,302.89703 341.9192,305.2644 336.86868,307.40112 331.81818,309.34283 326.7677,312.0755 321.71716,314.34415 316.6667,317.23224 311.61615,319.81583 306.56567,322.51376 301.51514,325.46204 296.46466,327.45874 291.41412,330.1515 286.36365,333.5175 281.31314,336.04016 276.26263,338.72653 271.21213,341.2602 266.16162,343.56985 261.1111,346.54062 256.0606,348.7606 251.0101,351.5375 245.9596,354.1084 240.90909,356.3742 235.85858,358.40323 230.80807,361.22177 225.75757,363.8658 220.70706,364.72562 215.65657,367.96664 210.60606,371.4567 205.55556,373.9417 200.50505,376.46664 195.45454,378.34103 190.40404,381.2956 185.35353,383.55118 180.30302,386.12952 175.25253,388.53912 170.20203,390.8544 165.15152,393.4138 160.10101,395.41632 155.0505,398.0083 150,400 " stroke="black"/>
<text alignment-baseline="middle" class="poloto_text" font-size="large" text-anchor="start" x="675" y="200">
direct_par
</text>
<line class="poloto2stroke" x1="680" x2="730" y1="181.25" y2="181.25"/>
<polyline class="poloto2stroke" fill="none" points="650,322.56284 644.94946,325.7137 639.899,323.78326 634.8485,323.77243 629.798,327.64435 624.7475,327.9037 619.697,325.5758 614.6465,306.23508 609.59595,330.74435 604.5455,328.4481 599.495,329.5744 594.44446,331.43317 589.3939,332.78766 584.34344,333.45474 579.29297,331.60123 574.24243,333.70377 569.1919,334.42484 564.1414,335.69174 559.09094,335.99353 554.0404,319.3189 548.98987,335.85522 543.9394,337.6306 538.8889,327.174 533.8384,337.63898 528.78784,340.6956 523.73737,335.20486 518.6869,324.0311 513.63635,341.78976 508.58588,342.4128 503.53537,342.9661 498.48486,340.84024 493.43436,342.09308 488.38385,342.92953 483.33334,342.7808 478.28284,343.49976 473.23233,343.04663 468.18182,341.9366 463.13132,344.8654 458.0808,347.88474 453.0303,347.07965 447.9798,349.25522 442.9293,348.9406 437.87878,347.59537 432.82828,350.8201 427.77777,349.63303 422.72726,352.10178 417.67676,354.19638 412.62628,354.54004 407.57578,355.23175 402.52527,351.37732 397.47473,353.25082 392.42426,357.0707 387.37375,356.73782 382.32324,298.913 377.27274,359.57077 372.22223,358.0085 367.17172,356.52417 362.12122,361.3016 357.0707,363.32712 352.0202,363.55493 346.9697,362.8969 341.9192,363.75006 336.86868,364.64417 331.81818,365.52625 326.7677,365.62964 321.71716,364.41714 316.6667,367.4696 311.61615,370.72415 306.56567,370.95798 301.51514,371.31424 296.46466,371.82214 291.41412,373.69647 286.36365,373.84894 281.31314,375.6683 276.26263,375.0823 271.21213,375.47607 266.16162,376.52945 261.1111,378.7226 256.0606,379.4671 251.0101,376.9318 245.9596,378.6318 240.90909,378.11868 235.85858,383.5699 230.80807,382.66077 225.75757,381.446 220.70706,379.6863 215.65657,379.69937 210.60606,378.93048 205.55556,379.7417 200.50505,380.9807 195.45454,383.44696 190.40404,385.51495 185.35353,386.38852 180.30302,386.7623 175.25253,388.85785 170.20203,391.23074 165.15152,393.65158 160.10101,395.45737 155.0505,398.1049 150,399.99887 " stroke="black"/>
<text alignment-baseline="middle" class="poloto_text" font-size="large" text-anchor="start" x="675" y="250">
direct_seq
</text>
<line class="poloto3stroke" x1="680" x2="730" y1="231.25" y2="231.25"/>
<polyline class="poloto3stroke" fill="none" points="650,159.3419 644.94946,163.7967 639.899,164.70625 634.8485,166.62372 629.798,170.00534 624.7475,172.18204 619.697,175.22075 614.6465,176.47205 609.59595,180.39717 604.5455,181.79712 599.495,182.82794 594.44446,185.05243 589.3939,190.0783 584.34344,191.75053 579.29297,195.61671 574.24243,196.84448 569.1919,200.35802 564.1414,201.78328 559.09094,205.03033 554.0404,204.76147 548.98987,207.46259 543.9394,209.79602 538.8889,211.92365 533.8384,214.46786 528.78784,218.23036 523.73737,220.09769 518.6869,222.09627 513.63635,225.0413 508.58588,227.28308 503.53537,228.31065 498.48486,231.23071 493.43436,232.71423 488.38385,235.42609 483.33334,236.63715 478.28284,239.68387 473.23233,241.88399 468.18182,236.2921 463.13132,247.18253 458.0808,249.20226 453.0303,250.90715 447.9798,253.61833 442.9293,255.9115 437.87878,259.01923 432.82828,260.34323 427.77777,261.58417 422.72726,268.8896 417.67676,271.46368 412.62628,273.90225 407.57578,277.0431 402.52527,278.84564 397.47473,281.5705 392.42426,284.43732 387.37375,286.70636 382.32324,289.21228 377.27274,291.39688 372.22223,294.45462 367.17172,296.63647 362.12122,298.37253 357.0707,300.37402 352.0202,302.5571 346.9697,305.0519 341.9192,307.37012 336.86868,309.70923 331.81818,312.0417 326.7677,314.3666 321.71716,316.65375 316.6667,319.16202 311.61615,321.86505 306.56567,324.51004 301.51514,327.35193 296.46466,329.3871 291.41412,331.8132 286.36365,336.91135 281.31314,339.34204 276.26263,341.73242 271.21213,344.20325 266.16162,345.894 261.1111,347.94293 256.0606,350.3871 251.0101,353.3159 245.9596,355.42163 240.90909,358.08087 235.85858,360.03748 230.80807,362.29938 225.75757,365.12878 220.70706,366.47556 215.65657,370.18344 210.60606,372.18875 205.55556,374.43668 200.50505,376.80078 195.45454,379.10663 190.40404,381.5684 185.35353,383.93097 180.30302,386.7292 175.25253,388.90518 170.20203,391.25916 165.15152,393.5931 160.10101,395.52032 155.0505,398.06866 150,399.99857 " stroke="black"/>
<text alignment-baseline="middle" class="poloto_text" font-size="large" text-anchor="start" x="675" y="300">
indirect_par
</text>
<line class="poloto4stroke" x1="680" x2="730" y1="281.25" y2="281.25"/>
<polyline class="poloto4stroke" fill="none" points="650,275.3981 644.94946,313.74377 639.899,315.1362 634.8485,317.24557 629.798,316.56262 624.7475,318.18744 619.697,294.77454 614.6465,287.7066 609.59595,318.67065 604.5455,294.47552 599.495,311.1366 594.44446,312.04266 589.3939,322.88297 584.34344,324.90582 579.29297,324.78595 574.24243,325.56757 569.1919,325.6986 564.1414,328.36316 559.09094,329.45984 554.0404,283.62872 548.98987,330.65533 543.9394,331.12473 538.8889,332.215 533.8384,329.80164 528.78784,330.78232 523.73737,333.35104 518.6869,310.79346 513.63635,333.16385 508.58588,330.05176 503.53537,337.452 498.48486,335.63504 493.43436,337.87405 488.38385,337.29938 483.33334,336.6327 478.28284,338.40753 473.23233,340.14523 468.18182,341.6226 463.13132,339.20758 458.0808,340.72855 453.0303,342.6327 447.9798,340.45834 442.9293,342.20343 437.87878,344.0876 432.82828,343.03323 427.77777,346.27545 422.72726,346.24167 417.67676,346.5036 412.62628,349.089 407.57578,349.72168 402.52527,348.86948 397.47473,343.98807 392.42426,349.84796 387.37375,352.12814 382.32324,318.1644 377.27274,351.67227 372.22223,354.44028 367.17172,355.41772 362.12122,356.4601 357.0707,359.1698 352.0202,359.86502 346.9697,360.8155 341.9192,353.29132 336.86868,362.1837 331.81818,361.354 326.7677,363.8294 321.71716,363.76065 316.6667,364.89954 311.61615,365.04538 306.56567,365.39737 301.51514,366.65588 296.46466,368.42862 291.41412,367.24017 286.36365,369.57104 281.31314,371.5608 276.26263,372.65152 271.21213,372.8964 266.16162,374.70642 261.1111,377.34784 256.0606,374.13104 251.0101,375.66498 245.9596,376.48297 240.90909,375.77396 235.85858,379.1073 230.80807,379.23273 225.75757,380.5854 220.70706,378.9641 215.65657,376.55884 210.60606,375.919 205.55556,378.71152 200.50505,380.19443 195.45454,382.44244 190.40404,383.2813 185.35353,383.5901 180.30302,385.4401 175.25253,387.90884 170.20203,390.4303 165.15152,393.12997 160.10101,395.22 155.0505,397.92526 150,399.9991 " stroke="black"/>
<text alignment-baseline="middle" class="poloto_text" font-size="large" text-anchor="start" x="675" y="350">
indirect_seq
</text>
<line class="poloto5stroke" x1="680" x2="730" y1="331.25" y2="331.25"/>
<polyline class="poloto5stroke" fill="none" points="650,100 644.94946,132.52466 639.899,133.90918 634.8485,137.10468 629.798,140.47339 624.7475,143.54172 619.697,147.28241 614.6465,149.01266 609.59595,153.11185 604.5455,151.8615 599.495,158.00761 594.44446,159.652 589.3939,163.90494 584.34344,166.33159 579.29297,170.15872 574.24243,172.28806 569.1919,174.67542 564.1414,177.74481 559.09094,180.91956 554.0404,181.07219 548.98987,184.88606 543.9394,187.49442 538.8889,174.56894 533.8384,193.14606 528.78784,196.46321 523.73737,199.01201 518.6869,200.40706 513.63635,204.75713 508.58588,206.6306 503.53537,210.0712 498.48486,211.62119 493.43436,213.5581 488.38385,216.25082 483.33334,218.55891 478.28284,221.5479 473.23233,224.77466 468.18182,225.26129 463.13132,230.42462 458.0808,232.17857 453.0303,234.84415 447.9798,237.49577 442.9293,239.31143 437.87878,242.66315 432.82828,244.91518 427.77777,245.81987 422.72726,254.13097 417.67676,257.43753 412.62628,259.89154 407.57578,263.7625 402.52527,265.5639 397.47473,268.7384 392.42426,271.54816 387.37375,274.1437 382.32324,276.88486 377.27274,279.8977 372.22223,282.94138 367.17172,286.00385 362.12122,287.5628 357.0707,289.50674 352.0202,292.25565 346.9697,295.35828 341.9192,297.53348 336.86868,300.4154 331.81818,302.7079 326.7677,305.0763 321.71716,307.349 316.6667,311.17163 311.61615,313.8164 306.56567,316.58728 301.51514,320.0432 296.46466,322.33682 291.41412,325.05774 286.36365,328.5364 281.31314,331.22607 276.26263,334.00958 271.21213,336.76056 266.16162,339.26578 261.1111,342.42114 256.0606,344.59155 251.0101,347.88907 245.9596,350.81235 240.90909,353.19656 235.85858,355.5883 230.80807,358.18097 225.75757,361.31876 220.70706,362.937 215.65657,366.90085 210.60606,369.5268 205.55556,371.88147 200.50505,374.71335 195.45454,377.16913 190.40404,379.78226 185.35353,382.46918 180.30302,384.90494 175.25253,387.53546 170.20203,390.31793 165.15152,393.0087 160.10101,395.12537 155.0505,397.83826 150,399.999 " stroke="black"/>
<text alignment-baseline="start" class="poloto_text" font-size="x-large" text-anchor="middle" x="400" y="37.5">
Bench of query:16_bytes with abspiral(num,0.1)
</text>
<text alignment-baseline="start" class="poloto_text" font-size="large" text-anchor="middle" x="400" y="481.25">
Number of Elements
</text>
<text alignment-baseline="start" class="poloto_text" font-size="large" text-anchor="middle" transform="rotate(-90,37.5,250)" x="37.5" y="250">
Time in Seconds
</text>
<path class="poloto_axis_lines" d="M150,100 L150,400 L650,400" stroke="black"/>
</svg>