<svg class="poloto" width="800" height="500" viewBox="0 0 800 500" xmlns="http://www.w3.org/2000/svg"><circle  r="1e5" class="poloto_background" /><text  class="poloto_text poloto_legend_text" x="675" y="100" >default_par</text><line  class="poloto_scatter poloto_legend_icon poloto0stroke poloto0legend" stroke="black" x1="685" x2="685" y1="81.25" y2="81.25" /><path  class="poloto_scatter poloto0stroke" d=" M 650.00 351.90 h 0 M 644.95 355.81 h 0 M 639.90 355.13 h 0 M 634.85 354.16 h 0 M 629.80 355.40 h 0 M 624.75 356.77 h 0 M 619.70 357.31 h 0 M 614.65 358.60 h 0 M 609.60 359.61 h 0 M 604.55 355.44 h 0 M 599.49 357.59 h 0 M 594.44 358.89 h 0 M 589.39 357.86 h 0 M 584.34 359.03 h 0 M 579.29 360.33 h 0 M 574.24 359.30 h 0 M 569.19 364.59 h 0 M 564.14 361.29 h 0 M 559.09 347.44 h 0 M 554.04 364.12 h 0 M 548.99 361.06 h 0 M 543.94 361.81 h 0 M 538.89 363.06 h 0 M 533.84 364.84 h 0 M 528.79 363.51 h 0 M 523.74 355.24 h 0 M 518.69 365.11 h 0 M 513.64 362.15 h 0 M 508.59 367.13 h 0 M 503.54 365.81 h 0 M 498.48 369.71 h 0 M 493.43 360.54 h 0 M 488.38 369.65 h 0 M 483.33 368.97 h 0 M 478.28 372.13 h 0 M 473.23 369.71 h 0 M 468.18 369.00 h 0 M 463.13 371.49 h 0 M 458.08 372.89 h 0 M 453.03 374.88 h 0 M 447.98 373.80 h 0 M 442.93 373.78 h 0 M 437.88 374.48 h 0 M 432.83 373.13 h 0 M 427.78 375.84 h 0 M 422.73 376.94 h 0 M 417.68 376.84 h 0 M 412.63 378.10 h 0 M 407.58 376.71 h 0 M 402.53 378.97 h 0 M 397.47 376.45 h 0 M 392.42 374.79 h 0 M 387.37 379.24 h 0 M 382.32 379.47 h 0 M 377.27 378.63 h 0 M 372.22 379.33 h 0 M 367.17 379.89 h 0 M 362.12 380.93 h 0 M 357.07 381.38 h 0 M 352.02 380.61 h 0 M 346.97 382.28 h 0 M 341.92 379.93 h 0 M 336.87 383.30 h 0 M 331.82 383.88 h 0 M 326.77 382.97 h 0 M 321.72 384.93 h 0 M 316.67 385.67 h 0 M 311.62 383.21 h 0 M 306.57 385.86 h 0 M 301.52 383.56 h 0 M 296.46 382.51 h 0 M 291.41 385.76 h 0 M 286.36 382.74 h 0 M 281.31 387.10 h 0 M 276.26 388.92 h 0 M 271.21 388.64 h 0 M 266.16 387.31 h 0 M 261.11 389.11 h 0 M 256.06 389.42 h 0 M 251.01 391.92 h 0 M 245.96 389.51 h 0 M 240.91 389.41 h 0 M 235.86 390.64 h 0 M 230.81 390.92 h 0 M 225.76 392.90 h 0 M 220.71 393.27 h 0 M 215.66 390.87 h 0 M 210.61 385.97 h 0 M 205.56 391.71 h 0 M 200.51 390.91 h 0 M 195.45 391.74 h 0 M 190.40 393.36 h 0 M 185.35 393.16 h 0 M 180.30 396.01 h 0 M 175.25 396.76 h 0 M 170.20 397.47 h 0 M 165.15 398.31 h 0 M 160.10 398.96 h 0 M 155.05 399.51 h 0 M 150.00 400.00 h 0" /><text  class="poloto_text poloto_legend_text" x="675" y="150" >default_seq</text><line  class="poloto_scatter poloto_legend_icon poloto1stroke poloto1legend" stroke="black" x1="685" x2="685" y1="131.25" y2="131.25" /><path  class="poloto_scatter poloto1stroke" d=" M 650.00 298.08 h 0 M 644.95 301.73 h 0 M 639.90 300.36 h 0 M 634.85 304.32 h 0 M 629.80 303.20 h 0 M 624.75 303.40 h 0 M 619.70 305.90 h 0 M 614.65 306.49 h 0 M 609.60 306.68 h 0 M 604.55 308.68 h 0 M 599.49 310.43 h 0 M 594.44 310.27 h 0 M 589.39 312.56 h 0 M 584.34 311.00 h 0 M 579.29 313.94 h 0 M 574.24 315.48 h 0 M 569.19 315.59 h 0 M 564.14 315.56 h 0 M 559.09 317.91 h 0 M 554.04 318.48 h 0 M 548.99 319.33 h 0 M 543.94 321.76 h 0 M 538.89 323.16 h 0 M 533.84 323.37 h 0 M 528.79 324.70 h 0 M 523.74 322.56 h 0 M 518.69 326.42 h 0 M 513.64 324.60 h 0 M 508.59 327.26 h 0 M 503.54 329.24 h 0 M 498.48 329.06 h 0 M 493.43 332.42 h 0 M 488.38 333.52 h 0 M 483.33 331.49 h 0 M 478.28 331.72 h 0 M 473.23 336.26 h 0 M 468.18 335.24 h 0 M 463.13 337.39 h 0 M 458.08 336.46 h 0 M 453.03 339.49 h 0 M 447.98 340.81 h 0 M 442.93 341.48 h 0 M 437.88 343.25 h 0 M 432.83 342.94 h 0 M 427.78 345.30 h 0 M 422.73 349.11 h 0 M 417.68 350.72 h 0 M 412.63 350.71 h 0 M 407.58 352.19 h 0 M 402.53 353.06 h 0 M 397.47 353.50 h 0 M 392.42 354.64 h 0 M 387.37 355.98 h 0 M 382.32 356.20 h 0 M 377.27 357.84 h 0 M 372.22 357.65 h 0 M 367.17 360.70 h 0 M 362.12 360.73 h 0 M 357.07 361.90 h 0 M 352.02 362.96 h 0 M 346.97 364.85 h 0 M 341.92 363.93 h 0 M 336.87 365.11 h 0 M 331.82 367.67 h 0 M 326.77 367.88 h 0 M 321.72 368.88 h 0 M 316.67 369.58 h 0 M 311.62 369.88 h 0 M 306.57 370.90 h 0 M 301.52 373.14 h 0 M 296.46 373.17 h 0 M 291.41 374.73 h 0 M 286.36 377.03 h 0 M 281.31 378.03 h 0 M 276.26 378.59 h 0 M 271.21 379.78 h 0 M 266.16 380.75 h 0 M 261.11 382.26 h 0 M 256.06 382.80 h 0 M 251.01 383.79 h 0 M 245.96 383.89 h 0 M 240.91 384.69 h 0 M 235.86 385.07 h 0 M 230.81 386.89 h 0 M 225.76 387.78 h 0 M 220.71 388.09 h 0 M 215.66 390.10 h 0 M 210.61 391.06 h 0 M 205.56 390.86 h 0 M 200.51 392.01 h 0 M 195.45 392.62 h 0 M 190.40 393.84 h 0 M 185.35 394.61 h 0 M 180.30 395.75 h 0 M 175.25 396.63 h 0 M 170.20 397.34 h 0 M 165.15 398.14 h 0 M 160.10 398.86 h 0 M 155.05 399.46 h 0 M 150.00 400.00 h 0" /><text  class="poloto_text poloto_legend_text" x="675" y="200" >direct_par</text><line  class="poloto_scatter poloto_legend_icon poloto2stroke poloto2legend" stroke="black" x1="685" x2="685" y1="181.25" y2="181.25" /><path  class="poloto_scatter poloto2stroke" d=" M 650.00 262.18 h 0 M 644.95 353.24 h 0 M 639.90 352.21 h 0 M 634.85 353.35 h 0 M 629.80 353.36 h 0 M 624.75 351.86 h 0 M 619.70 358.35 h 0 M 614.65 353.46 h 0 M 609.60 358.08 h 0 M 604.55 355.61 h 0 M 599.49 357.22 h 0 M 594.44 357.79 h 0 M 589.39 358.82 h 0 M 584.34 358.41 h 0 M 579.29 359.17 h 0 M 574.24 361.86 h 0 M 569.19 365.10 h 0 M 564.14 361.36 h 0 M 559.09 362.59 h 0 M 554.04 362.35 h 0 M 548.99 360.44 h 0 M 543.94 365.21 h 0 M 538.89 361.82 h 0 M 533.84 362.73 h 0 M 528.79 365.28 h 0 M 523.74 359.12 h 0 M 518.69 348.20 h 0 M 513.64 363.74 h 0 M 508.59 361.99 h 0 M 503.54 368.40 h 0 M 498.48 366.19 h 0 M 493.43 365.28 h 0 M 488.38 370.83 h 0 M 483.33 368.65 h 0 M 478.28 369.49 h 0 M 473.23 368.29 h 0 M 468.18 371.92 h 0 M 463.13 370.59 h 0 M 458.08 372.32 h 0 M 453.03 373.25 h 0 M 447.98 370.73 h 0 M 442.93 374.89 h 0 M 437.88 374.27 h 0 M 432.83 373.23 h 0 M 427.78 372.93 h 0 M 422.73 372.39 h 0 M 417.68 378.17 h 0 M 412.63 376.25 h 0 M 407.58 377.93 h 0 M 402.53 376.85 h 0 M 397.47 380.31 h 0 M 392.42 378.82 h 0 M 387.37 368.76 h 0 M 382.32 374.44 h 0 M 377.27 378.50 h 0 M 372.22 378.51 h 0 M 367.17 378.84 h 0 M 362.12 379.71 h 0 M 357.07 378.70 h 0 M 352.02 382.43 h 0 M 346.97 376.99 h 0 M 341.92 377.91 h 0 M 336.87 378.40 h 0 M 331.82 381.08 h 0 M 326.77 384.99 h 0 M 321.72 384.25 h 0 M 316.67 382.64 h 0 M 311.62 385.80 h 0 M 306.57 386.62 h 0 M 301.52 385.06 h 0 M 296.46 386.84 h 0 M 291.41 384.76 h 0 M 286.36 383.56 h 0 M 281.31 385.21 h 0 M 276.26 387.38 h 0 M 271.21 384.60 h 0 M 266.16 387.83 h 0 M 261.11 388.91 h 0 M 256.06 389.24 h 0 M 251.01 389.31 h 0 M 245.96 391.00 h 0 M 240.91 391.27 h 0 M 235.86 390.83 h 0 M 230.81 389.68 h 0 M 225.76 391.08 h 0 M 220.71 391.46 h 0 M 215.66 389.85 h 0 M 210.61 391.01 h 0 M 205.56 388.65 h 0 M 200.51 392.91 h 0 M 195.45 392.10 h 0 M 190.40 392.57 h 0 M 185.35 392.73 h 0 M 180.30 396.04 h 0 M 175.25 396.87 h 0 M 170.20 397.42 h 0 M 165.15 398.31 h 0 M 160.10 398.98 h 0 M 155.05 399.50 h 0 M 150.00 400.00 h 0" /><text  class="poloto_text poloto_legend_text" x="675" y="250" >direct_seq</text><line  class="poloto_scatter poloto_legend_icon poloto3stroke poloto3legend" stroke="black" x1="685" x2="685" y1="231.25" y2="231.25" /><path  class="poloto_scatter poloto3stroke" d=" M 650.00 100.00 h 0 M 644.95 301.00 h 0 M 639.90 299.13 h 0 M 634.85 303.85 h 0 M 629.80 302.57 h 0 M 624.75 300.49 h 0 M 619.70 305.83 h 0 M 614.65 306.49 h 0 M 609.60 301.11 h 0 M 604.55 306.20 h 0 M 599.49 310.08 h 0 M 594.44 309.81 h 0 M 589.39 311.78 h 0 M 584.34 311.12 h 0 M 579.29 315.18 h 0 M 574.24 315.61 h 0 M 569.19 316.26 h 0 M 564.14 314.42 h 0 M 559.09 318.25 h 0 M 554.04 318.85 h 0 M 548.99 319.13 h 0 M 543.94 321.14 h 0 M 538.89 322.52 h 0 M 533.84 322.76 h 0 M 528.79 323.33 h 0 M 523.74 324.01 h 0 M 518.69 308.57 h 0 M 513.64 324.00 h 0 M 508.59 327.34 h 0 M 503.54 326.93 h 0 M 498.48 328.78 h 0 M 493.43 330.54 h 0 M 488.38 333.26 h 0 M 483.33 332.61 h 0 M 478.28 334.04 h 0 M 473.23 335.57 h 0 M 468.18 335.77 h 0 M 463.13 336.88 h 0 M 458.08 335.96 h 0 M 453.03 339.72 h 0 M 447.98 340.79 h 0 M 442.93 340.13 h 0 M 437.88 342.98 h 0 M 432.83 342.45 h 0 M 427.78 344.70 h 0 M 422.73 349.03 h 0 M 417.68 349.38 h 0 M 412.63 351.43 h 0 M 407.58 352.26 h 0 M 402.53 352.88 h 0 M 397.47 354.01 h 0 M 392.42 353.97 h 0 M 387.37 356.42 h 0 M 382.32 356.36 h 0 M 377.27 358.21 h 0 M 372.22 358.02 h 0 M 367.17 360.55 h 0 M 362.12 360.30 h 0 M 357.07 361.31 h 0 M 352.02 362.42 h 0 M 346.97 364.81 h 0 M 341.92 363.86 h 0 M 336.87 365.15 h 0 M 331.82 366.49 h 0 M 326.77 367.14 h 0 M 321.72 369.07 h 0 M 316.67 369.70 h 0 M 311.62 369.17 h 0 M 306.57 370.64 h 0 M 301.52 372.51 h 0 M 296.46 372.87 h 0 M 291.41 373.56 h 0 M 286.36 376.93 h 0 M 281.31 377.89 h 0 M 276.26 378.17 h 0 M 271.21 379.78 h 0 M 266.16 380.02 h 0 M 261.11 382.07 h 0 M 256.06 382.66 h 0 M 251.01 383.28 h 0 M 245.96 383.09 h 0 M 240.91 384.65 h 0 M 235.86 385.35 h 0 M 230.81 386.61 h 0 M 225.76 388.22 h 0 M 220.71 387.46 h 0 M 215.66 390.01 h 0 M 210.61 390.91 h 0 M 205.56 391.49 h 0 M 200.51 391.73 h 0 M 195.45 392.92 h 0 M 190.40 393.52 h 0 M 185.35 394.55 h 0 M 180.30 395.53 h 0 M 175.25 396.44 h 0 M 170.20 397.27 h 0 M 165.15 397.99 h 0 M 160.10 398.87 h 0 M 155.05 399.40 h 0 M 150.00 399.99 h 0" /><text  class="poloto_text poloto_legend_text" x="675" y="300" >indirect_par</text><line  class="poloto_scatter poloto_legend_icon poloto4stroke poloto4legend" stroke="black" x1="685" x2="685" y1="281.25" y2="281.25" /><path  class="poloto_scatter poloto4stroke" d=" M 650.00 320.95 h 0 M 644.95 321.91 h 0 M 639.90 320.71 h 0 M 634.85 318.88 h 0 M 629.80 324.96 h 0 M 624.75 320.86 h 0 M 619.70 326.86 h 0 M 614.65 331.25 h 0 M 609.60 316.22 h 0 M 604.55 327.85 h 0 M 599.49 328.19 h 0 M 594.44 326.00 h 0 M 589.39 330.02 h 0 M 584.34 329.47 h 0 M 579.29 333.06 h 0 M 574.24 330.32 h 0 M 569.19 336.76 h 0 M 564.14 334.58 h 0 M 559.09 342.77 h 0 M 554.04 329.12 h 0 M 548.99 338.49 h 0 M 543.94 340.76 h 0 M 538.89 338.07 h 0 M 533.84 344.10 h 0 M 528.79 341.73 h 0 M 523.74 329.27 h 0 M 518.69 343.49 h 0 M 513.64 347.14 h 0 M 508.59 343.65 h 0 M 503.54 347.37 h 0 M 498.48 350.03 h 0 M 493.43 345.82 h 0 M 488.38 353.21 h 0 M 483.33 352.93 h 0 M 478.28 349.33 h 0 M 473.23 346.37 h 0 M 468.18 352.65 h 0 M 463.13 351.96 h 0 M 458.08 355.36 h 0 M 453.03 357.82 h 0 M 447.98 360.90 h 0 M 442.93 357.72 h 0 M 437.88 354.88 h 0 M 432.83 359.50 h 0 M 427.78 363.20 h 0 M 422.73 363.31 h 0 M 417.68 359.49 h 0 M 412.63 358.70 h 0 M 407.58 365.13 h 0 M 402.53 354.09 h 0 M 397.47 366.71 h 0 M 392.42 355.20 h 0 M 387.37 369.18 h 0 M 382.32 368.45 h 0 M 377.27 368.54 h 0 M 372.22 372.66 h 0 M 367.17 367.21 h 0 M 362.12 367.43 h 0 M 357.07 368.69 h 0 M 352.02 369.08 h 0 M 346.97 369.90 h 0 M 341.92 367.69 h 0 M 336.87 371.91 h 0 M 331.82 371.76 h 0 M 326.77 378.02 h 0 M 321.72 375.74 h 0 M 316.67 373.87 h 0 M 311.62 379.81 h 0 M 306.57 378.66 h 0 M 301.52 377.61 h 0 M 296.46 378.54 h 0 M 291.41 379.87 h 0 M 286.36 381.03 h 0 M 281.31 378.10 h 0 M 276.26 381.98 h 0 M 271.21 380.78 h 0 M 266.16 382.17 h 0 M 261.11 386.92 h 0 M 256.06 384.68 h 0 M 251.01 387.98 h 0 M 245.96 388.91 h 0 M 240.91 387.18 h 0 M 235.86 387.75 h 0 M 230.81 388.43 h 0 M 225.76 389.79 h 0 M 220.71 389.52 h 0 M 215.66 388.24 h 0 M 210.61 388.96 h 0 M 205.56 390.30 h 0 M 200.51 391.38 h 0 M 195.45 390.83 h 0 M 190.40 392.36 h 0 M 185.35 393.07 h 0 M 180.30 395.00 h 0 M 175.25 396.15 h 0 M 170.20 396.84 h 0 M 165.15 398.06 h 0 M 160.10 398.84 h 0 M 155.05 399.45 h 0 M 150.00 400.00 h 0" /><text  class="poloto_text poloto_legend_text" x="675" y="350" >indirect_seq</text><line  class="poloto_scatter poloto_legend_icon poloto5stroke poloto5legend" stroke="black" x1="685" x2="685" y1="331.25" y2="331.25" /><path  class="poloto_scatter poloto5stroke" d=" M 650.00 178.48 h 0 M 644.95 237.78 h 0 M 639.90 236.28 h 0 M 634.85 243.89 h 0 M 629.80 242.33 h 0 M 624.75 244.46 h 0 M 619.70 248.61 h 0 M 614.65 250.55 h 0 M 609.60 251.36 h 0 M 604.55 252.35 h 0 M 599.49 255.36 h 0 M 594.44 253.18 h 0 M 589.39 260.11 h 0 M 584.34 257.83 h 0 M 579.29 265.24 h 0 M 574.24 266.73 h 0 M 569.19 268.14 h 0 M 564.14 264.03 h 0 M 559.09 272.71 h 0 M 554.04 273.17 h 0 M 548.99 270.53 h 0 M 543.94 277.62 h 0 M 538.89 280.34 h 0 M 533.84 280.20 h 0 M 528.79 283.38 h 0 M 523.74 281.32 h 0 M 518.69 282.96 h 0 M 513.64 282.52 h 0 M 508.59 284.91 h 0 M 503.54 290.59 h 0 M 498.48 289.21 h 0 M 493.43 295.41 h 0 M 488.38 297.39 h 0 M 483.33 294.43 h 0 M 478.28 300.45 h 0 M 473.23 303.29 h 0 M 468.18 299.94 h 0 M 463.13 304.83 h 0 M 458.08 301.59 h 0 M 453.03 306.47 h 0 M 447.98 310.76 h 0 M 442.93 310.31 h 0 M 437.88 313.02 h 0 M 432.83 312.85 h 0 M 427.78 315.74 h 0 M 422.73 320.01 h 0 M 417.68 323.36 h 0 M 412.63 324.37 h 0 M 407.58 327.29 h 0 M 402.53 327.25 h 0 M 397.47 330.41 h 0 M 392.42 328.46 h 0 M 387.37 333.35 h 0 M 382.32 332.84 h 0 M 377.27 335.72 h 0 M 372.22 337.57 h 0 M 367.17 339.85 h 0 M 362.12 340.08 h 0 M 357.07 341.83 h 0 M 352.02 345.37 h 0 M 346.97 347.58 h 0 M 341.92 347.33 h 0 M 336.87 348.60 h 0 M 331.82 350.68 h 0 M 326.77 352.38 h 0 M 321.72 355.54 h 0 M 316.67 355.70 h 0 M 311.62 357.44 h 0 M 306.57 359.02 h 0 M 301.52 360.37 h 0 M 296.46 361.86 h 0 M 291.41 363.62 h 0 M 286.36 366.73 h 0 M 281.31 367.34 h 0 M 276.26 369.60 h 0 M 271.21 370.99 h 0 M 266.16 371.84 h 0 M 261.11 374.63 h 0 M 256.06 375.21 h 0 M 251.01 376.82 h 0 M 245.96 377.21 h 0 M 240.91 377.97 h 0 M 235.86 379.02 h 0 M 230.81 381.83 h 0 M 225.76 383.40 h 0 M 220.71 383.30 h 0 M 215.66 385.80 h 0 M 210.61 387.26 h 0 M 205.56 388.71 h 0 M 200.51 389.15 h 0 M 195.45 390.09 h 0 M 190.40 391.97 h 0 M 185.35 393.02 h 0 M 180.30 394.62 h 0 M 175.25 395.64 h 0 M 170.20 396.23 h 0 M 165.15 397.78 h 0 M 160.10 398.70 h 0 M 155.05 399.37 h 0 M 150.00 400.00 h 0" /><text  class="poloto_labels poloto_text poloto_title" x="400" y="37.5" >Bench of rebal:8_bytes with abspiral(num,1.5)</text><text  class="poloto_labels poloto_text poloto_xname" x="400" y="481.25" >Number of Elements</text><text  class="poloto_labels poloto_text poloto_yname" transform="rotate(-90,37.5,250)" x="37.5" y="250" >Time in Seconds</text><text  class="poloto_tick_labels poloto_text" dominant-baseline="middle" text-anchor="start" x="150" y="70" ></text><line  class="poloto_axis_lines" stroke="black" x1="150" x2="144" y1="400" y2="400" /><text  class="poloto_tick_labels poloto_text" dominant-baseline="middle" text-anchor="end" x="135" y="400" >0e0</text><line  class="poloto_axis_lines" stroke="black" x1="150" x2="144" y1="321.395492031468" y2="321.395492031468" /><text  class="poloto_tick_labels poloto_text" dominant-baseline="middle" text-anchor="end" x="135" y="321.395492031468" >0.002</text><line  class="poloto_axis_lines" stroke="black" x1="150" x2="144" y1="242.790984062936" y2="242.790984062936" /><text  class="poloto_tick_labels poloto_text" dominant-baseline="middle" text-anchor="end" x="135" y="242.790984062936" >0.004</text><line  class="poloto_axis_lines" stroke="black" x1="150" x2="144" y1="164.18647609440404" y2="164.18647609440404" /><text  class="poloto_tick_labels poloto_text" dominant-baseline="middle" text-anchor="end" x="135" y="164.18647609440404" >0.006</text><text  class="poloto_tick_labels poloto_text" dominant-baseline="middle" text-anchor="start" x="440.00000000000006" y="70" ></text><line  class="poloto_axis_lines" stroke="black" x1="150" x2="150" y1="400" y2="405" /><text  class="poloto_tick_labels poloto_text" dominant-baseline="start" text-anchor="middle" x="150" y="430" >0</text><line  class="poloto_axis_lines" stroke="black" x1="234.17508417508418" x2="234.17508417508418" y1="400" y2="405" /><text  class="poloto_tick_labels poloto_text" dominant-baseline="start" text-anchor="middle" x="234.17508417508418" y="430" >5000</text><line  class="poloto_axis_lines" stroke="black" x1="318.35016835016836" x2="318.35016835016836" y1="400" y2="405" /><text  class="poloto_tick_labels poloto_text" dominant-baseline="start" text-anchor="middle" x="318.35016835016836" y="430" >10000</text><line  class="poloto_axis_lines" stroke="black" x1="402.52525252525254" x2="402.52525252525254" y1="400" y2="405" /><text  class="poloto_tick_labels poloto_text" dominant-baseline="start" text-anchor="middle" x="402.52525252525254" y="430" >15000</text><line  class="poloto_axis_lines" stroke="black" x1="486.7003367003367" x2="486.7003367003367" y1="400" y2="405" /><text  class="poloto_tick_labels poloto_text" dominant-baseline="start" text-anchor="middle" x="486.7003367003367" y="430" >20000</text><line  class="poloto_axis_lines" stroke="black" x1="570.8754208754208" x2="570.8754208754208" y1="400" y2="405" /><text  class="poloto_tick_labels poloto_text" dominant-baseline="start" text-anchor="middle" x="570.8754208754208" y="430" >25000</text><path  stroke="black" fill="none" class="poloto_axis_lines" style="stroke-dasharray:8.417508417508419;stroke-dashoffset:-0;" d=" M 150 400 L 650 400" /><path  stroke="black" fill="none" class="poloto_axis_lines" style="stroke-dasharray:9.825563496066499;stroke-dashoffset:-0;" d=" M 150 400 L 150 100" /></svg>