<svg class="poloto" width="800" height="500" viewBox="0 0 800 500" xmlns="http://www.w3.org/2000/svg"><circle  r="1e5" class="poloto_background" /><text  class="poloto_text poloto_legend_text" x="675" y="100" >default_seq</text><line  class="poloto_scatter poloto_legend_icon poloto0stroke poloto0legend" stroke="black" x1="685" x2="685" y1="81.25" y2="81.25" /><path  class="poloto_scatter poloto0stroke" d=" M 650.00 124.30 h 0 M 644.95 149.83 h 0 M 639.90 128.25 h 0 M 634.85 146.07 h 0 M 629.80 158.41 h 0 M 624.75 159.52 h 0 M 619.70 164.46 h 0 M 614.65 166.33 h 0 M 609.60 160.34 h 0 M 604.55 175.17 h 0 M 599.49 179.77 h 0 M 594.44 167.36 h 0 M 589.39 185.70 h 0 M 584.34 186.85 h 0 M 579.29 191.49 h 0 M 574.24 192.55 h 0 M 569.19 193.44 h 0 M 564.14 186.52 h 0 M 559.09 196.67 h 0 M 554.04 194.88 h 0 M 548.99 206.83 h 0 M 543.94 209.89 h 0 M 538.89 213.12 h 0 M 533.84 216.65 h 0 M 528.79 209.74 h 0 M 523.74 210.54 h 0 M 518.69 217.47 h 0 M 513.64 226.80 h 0 M 508.59 229.16 h 0 M 503.54 232.01 h 0 M 498.48 219.82 h 0 M 493.43 218.32 h 0 M 488.38 239.83 h 0 M 483.33 234.45 h 0 M 478.28 246.45 h 0 M 473.23 235.16 h 0 M 468.18 251.84 h 0 M 463.13 255.51 h 0 M 458.08 257.14 h 0 M 453.03 259.07 h 0 M 447.98 259.91 h 0 M 442.93 264.16 h 0 M 437.88 267.41 h 0 M 432.83 265.57 h 0 M 427.78 261.95 h 0 M 422.73 269.28 h 0 M 417.68 273.53 h 0 M 412.63 275.77 h 0 M 407.58 282.02 h 0 M 402.53 279.25 h 0 M 397.47 286.55 h 0 M 392.42 278.67 h 0 M 387.37 292.07 h 0 M 382.32 295.03 h 0 M 377.27 285.93 h 0 M 372.22 295.85 h 0 M 367.17 298.38 h 0 M 362.12 300.99 h 0 M 357.07 297.47 h 0 M 352.02 307.64 h 0 M 346.97 310.40 h 0 M 341.92 311.35 h 0 M 336.87 315.82 h 0 M 331.82 307.28 h 0 M 326.77 320.64 h 0 M 321.72 321.17 h 0 M 316.67 322.73 h 0 M 311.62 328.07 h 0 M 306.57 328.21 h 0 M 301.52 329.98 h 0 M 296.46 332.78 h 0 M 291.41 336.66 h 0 M 286.36 329.45 h 0 M 281.31 326.81 h 0 M 276.26 335.36 h 0 M 271.21 338.46 h 0 M 266.16 341.55 h 0 M 261.11 344.23 h 0 M 256.06 347.61 h 0 M 251.01 347.78 h 0 M 245.96 352.10 h 0 M 240.91 355.29 h 0 M 235.86 355.74 h 0 M 230.81 361.07 h 0 M 225.76 362.81 h 0 M 220.71 367.48 h 0 M 215.66 368.49 h 0 M 210.61 372.91 h 0 M 205.56 373.31 h 0 M 200.51 377.60 h 0 M 195.45 380.18 h 0 M 190.40 382.67 h 0 M 185.35 384.60 h 0 M 180.30 384.68 h 0 M 175.25 388.02 h 0 M 170.20 390.82 h 0 M 165.15 393.45 h 0 M 160.10 395.62 h 0 M 155.05 397.86 h 0 M 150.00 400.00 h 0" /><text  class="poloto_text poloto_legend_text" x="675" y="150" >direct_seq</text><line  class="poloto_scatter poloto_legend_icon poloto1stroke poloto1legend" stroke="black" x1="685" x2="685" y1="131.25" y2="131.25" /><path  class="poloto_scatter poloto1stroke" d=" M 650.00 161.60 h 0 M 644.95 169.17 h 0 M 639.90 163.53 h 0 M 634.85 175.94 h 0 M 629.80 178.19 h 0 M 624.75 182.33 h 0 M 619.70 184.63 h 0 M 614.65 168.31 h 0 M 609.60 171.50 h 0 M 604.55 180.00 h 0 M 599.49 195.87 h 0 M 594.44 198.80 h 0 M 589.39 183.63 h 0 M 584.34 194.18 h 0 M 579.29 203.16 h 0 M 574.24 195.58 h 0 M 569.19 199.39 h 0 M 564.14 214.21 h 0 M 559.09 217.30 h 0 M 554.04 201.79 h 0 M 548.99 220.96 h 0 M 543.94 223.44 h 0 M 538.89 226.44 h 0 M 533.84 228.89 h 0 M 528.79 230.33 h 0 M 523.74 224.08 h 0 M 518.69 222.83 h 0 M 513.64 227.67 h 0 M 508.59 240.86 h 0 M 503.54 244.31 h 0 M 498.48 246.30 h 0 M 493.43 232.15 h 0 M 488.38 244.17 h 0 M 483.33 250.60 h 0 M 478.28 256.01 h 0 M 473.23 258.55 h 0 M 468.18 257.51 h 0 M 463.13 263.17 h 0 M 458.08 265.93 h 0 M 453.03 267.37 h 0 M 447.98 268.33 h 0 M 442.93 266.94 h 0 M 437.88 274.19 h 0 M 432.83 277.21 h 0 M 427.78 281.07 h 0 M 422.73 283.49 h 0 M 417.68 278.00 h 0 M 412.63 289.09 h 0 M 407.58 285.21 h 0 M 402.53 291.45 h 0 M 397.47 288.37 h 0 M 392.42 292.88 h 0 M 387.37 297.39 h 0 M 382.32 285.73 h 0 M 377.27 300.03 h 0 M 372.22 300.94 h 0 M 367.17 303.20 h 0 M 362.12 294.76 h 0 M 357.07 311.55 h 0 M 352.02 304.35 h 0 M 346.97 313.58 h 0 M 341.92 318.12 h 0 M 336.87 317.66 h 0 M 331.82 321.19 h 0 M 326.77 322.14 h 0 M 321.72 325.65 h 0 M 316.67 329.74 h 0 M 311.62 324.90 h 0 M 306.57 331.45 h 0 M 301.52 332.30 h 0 M 296.46 335.39 h 0 M 291.41 338.27 h 0 M 286.36 335.78 h 0 M 281.31 330.21 h 0 M 276.26 340.29 h 0 M 271.21 341.90 h 0 M 266.16 345.50 h 0 M 261.11 347.56 h 0 M 256.06 345.65 h 0 M 251.01 355.31 h 0 M 245.96 356.73 h 0 M 240.91 358.52 h 0 M 235.86 358.85 h 0 M 230.81 364.28 h 0 M 225.76 366.39 h 0 M 220.71 369.25 h 0 M 215.66 369.11 h 0 M 210.61 370.78 h 0 M 205.56 374.87 h 0 M 200.51 378.59 h 0 M 195.45 380.16 h 0 M 190.40 381.62 h 0 M 185.35 385.44 h 0 M 180.30 385.41 h 0 M 175.25 387.89 h 0 M 170.20 391.33 h 0 M 165.15 393.94 h 0 M 160.10 395.77 h 0 M 155.05 397.96 h 0 M 150.00 400.00 h 0" /><text  class="poloto_text poloto_legend_text" x="675" y="200" >indirect_seq</text><line  class="poloto_scatter poloto_legend_icon poloto2stroke poloto2legend" stroke="black" x1="685" x2="685" y1="181.25" y2="181.25" /><path  class="poloto_scatter poloto2stroke" d=" M 650.00 129.61 h 0 M 644.95 100.00 h 0 M 639.90 123.95 h 0 M 634.85 126.71 h 0 M 629.80 146.00 h 0 M 624.75 125.24 h 0 M 619.70 140.61 h 0 M 614.65 153.36 h 0 M 609.60 156.44 h 0 M 604.55 140.33 h 0 M 599.49 164.46 h 0 M 594.44 166.38 h 0 M 589.39 150.50 h 0 M 584.34 170.47 h 0 M 579.29 176.99 h 0 M 574.24 170.84 h 0 M 569.19 168.04 h 0 M 564.14 176.34 h 0 M 559.09 188.60 h 0 M 554.04 192.35 h 0 M 548.99 194.68 h 0 M 543.94 195.51 h 0 M 538.89 202.21 h 0 M 533.84 204.94 h 0 M 528.79 205.73 h 0 M 523.74 203.62 h 0 M 518.69 213.27 h 0 M 513.64 216.29 h 0 M 508.59 203.09 h 0 M 503.54 221.50 h 0 M 498.48 216.33 h 0 M 493.43 219.95 h 0 M 488.38 230.95 h 0 M 483.33 221.20 h 0 M 478.28 229.47 h 0 M 473.23 221.99 h 0 M 468.18 242.05 h 0 M 463.13 246.02 h 0 M 458.08 227.67 h 0 M 453.03 251.13 h 0 M 447.98 236.03 h 0 M 442.93 257.64 h 0 M 437.88 259.20 h 0 M 432.83 261.35 h 0 M 427.78 256.03 h 0 M 422.73 264.67 h 0 M 417.68 261.93 h 0 M 412.63 267.31 h 0 M 407.58 276.90 h 0 M 402.53 272.69 h 0 M 397.47 274.62 h 0 M 392.42 276.56 h 0 M 387.37 275.07 h 0 M 382.32 283.18 h 0 M 377.27 279.40 h 0 M 372.22 281.60 h 0 M 367.17 291.80 h 0 M 362.12 295.16 h 0 M 357.07 290.72 h 0 M 352.02 301.70 h 0 M 346.97 305.81 h 0 M 341.92 310.37 h 0 M 336.87 307.18 h 0 M 331.82 310.74 h 0 M 326.77 318.05 h 0 M 321.72 316.23 h 0 M 316.67 313.67 h 0 M 311.62 317.82 h 0 M 306.57 327.14 h 0 M 301.52 322.07 h 0 M 296.46 322.07 h 0 M 291.41 331.78 h 0 M 286.36 323.89 h 0 M 281.31 328.69 h 0 M 276.26 331.70 h 0 M 271.21 336.34 h 0 M 266.16 337.67 h 0 M 261.11 341.11 h 0 M 256.06 343.34 h 0 M 251.01 348.58 h 0 M 245.96 348.33 h 0 M 240.91 354.27 h 0 M 235.86 357.55 h 0 M 230.81 360.95 h 0 M 225.76 363.01 h 0 M 220.71 362.98 h 0 M 215.66 365.94 h 0 M 210.61 371.77 h 0 M 205.56 373.99 h 0 M 200.51 374.23 h 0 M 195.45 377.91 h 0 M 190.40 379.81 h 0 M 185.35 382.56 h 0 M 180.30 383.79 h 0 M 175.25 387.60 h 0 M 170.20 389.75 h 0 M 165.15 392.87 h 0 M 160.10 395.26 h 0 M 155.05 397.66 h 0 M 150.00 400.00 h 0" /><text  class="poloto_labels poloto_text poloto_title" x="400" y="37.5" >Bench of query:16_bytes with abspiral(num,1.5)</text><text  class="poloto_labels poloto_text poloto_xname" x="400" y="481.25" >Number of Elements</text><text  class="poloto_labels poloto_text poloto_yname" transform="rotate(-90,37.5,250)" x="37.5" y="250" >Time in Seconds</text><text  class="poloto_tick_labels poloto_text" dominant-baseline="middle" text-anchor="start" x="150" y="70" ></text><line  class="poloto_axis_lines" stroke="black" x1="150" x2="144" y1="400" y2="400" /><text  class="poloto_tick_labels poloto_text" dominant-baseline="middle" text-anchor="end" x="135" y="400" >0e0</text><line  class="poloto_axis_lines" stroke="black" x1="150" x2="144" y1="335.4164540791613" y2="335.4164540791613" /><text  class="poloto_tick_labels poloto_text" dominant-baseline="middle" text-anchor="end" x="135" y="335.4164540791613" >0.001</text><line  class="poloto_axis_lines" stroke="black" x1="150" x2="144" y1="270.83290815832265" y2="270.83290815832265" /><text  class="poloto_tick_labels poloto_text" dominant-baseline="middle" text-anchor="end" x="135" y="270.83290815832265" >0.002</text><line  class="poloto_axis_lines" stroke="black" x1="150" x2="144" y1="206.24936223748404" y2="206.24936223748404" /><text  class="poloto_tick_labels poloto_text" dominant-baseline="middle" text-anchor="end" x="135" y="206.24936223748404" >0.003</text><line  class="poloto_axis_lines" stroke="black" x1="150" x2="144" y1="141.66581631664536" y2="141.66581631664536" /><text  class="poloto_tick_labels poloto_text" dominant-baseline="middle" text-anchor="end" x="135" y="141.66581631664536" >0.004</text><text  class="poloto_tick_labels poloto_text" dominant-baseline="middle" text-anchor="start" x="440.00000000000006" y="70" ></text><line  class="poloto_axis_lines" stroke="black" x1="150" x2="150" y1="400" y2="405" /><text  class="poloto_tick_labels poloto_text" dominant-baseline="start" text-anchor="middle" x="150" y="430" >0</text><line  class="poloto_axis_lines" stroke="black" x1="234.17508417508418" x2="234.17508417508418" y1="400" y2="405" /><text  class="poloto_tick_labels poloto_text" dominant-baseline="start" text-anchor="middle" x="234.17508417508418" y="430" >5000</text><line  class="poloto_axis_lines" stroke="black" x1="318.35016835016836" x2="318.35016835016836" y1="400" y2="405" /><text  class="poloto_tick_labels poloto_text" dominant-baseline="start" text-anchor="middle" x="318.35016835016836" y="430" >10000</text><line  class="poloto_axis_lines" stroke="black" x1="402.52525252525254" x2="402.52525252525254" y1="400" y2="405" /><text  class="poloto_tick_labels poloto_text" dominant-baseline="start" text-anchor="middle" x="402.52525252525254" y="430" >15000</text><line  class="poloto_axis_lines" stroke="black" x1="486.7003367003367" x2="486.7003367003367" y1="400" y2="405" /><text  class="poloto_tick_labels poloto_text" dominant-baseline="start" text-anchor="middle" x="486.7003367003367" y="430" >20000</text><line  class="poloto_axis_lines" stroke="black" x1="570.8754208754208" x2="570.8754208754208" y1="400" y2="405" /><text  class="poloto_tick_labels poloto_text" dominant-baseline="start" text-anchor="middle" x="570.8754208754208" y="430" >25000</text><path  stroke="black" fill="none" class="poloto_axis_lines" style="stroke-dasharray:8.417508417508419;stroke-dashoffset:-0;" d=" M 150 400 L 650 400" /><path  stroke="black" fill="none" class="poloto_axis_lines" style="stroke-dasharray:6.458354592083866;stroke-dashoffset:-0;" d=" M 150 400 L 150 100" /></svg>