<svg class="poloto" width="800" height="500" viewBox="0 0 800 500" xmlns="http://www.w3.org/2000/svg"><style>.poloto {font-family: sans-serif;stroke-width:2;}.poloto_text{fill: var(--poloto_fg_color,black);}.poloto_axis_lines{stroke: var(--poloto_fg_color,black);stoke-width:3;fill:none}.poloto_background{fill: var(--poloto_bg_color,aliceblue);}.poloto0stroke{stroke:  var(--poloto_color0,blue);}.poloto1stroke{stroke:  var(--poloto_color1,red);}.poloto2stroke{stroke:  var(--poloto_color2,green);}.poloto3stroke{stroke:  var(--poloto_color3,gold);}.poloto4stroke{stroke:  var(--poloto_color4,aqua);}.poloto5stroke{stroke:  var(--poloto_color5,brown);}.poloto6stroke{stroke:  var(--poloto_color6,lime);}.poloto7stroke{stroke:  var(--poloto_color7,chocolate);}.poloto0fill{fill:var(--poloto_color0,blue);}.poloto1fill{fill:var(--poloto_color1,red);}.poloto2fill{fill:var(--poloto_color2,green);}.poloto3fill{fill:var(--poloto_color3,gold);}.poloto4fill{fill:var(--poloto_color4,aqua);}.poloto5fill{fill:var(--poloto_color5,brown);}.poloto6fill{fill:var(--poloto_color6,lime);}.poloto7fill{fill:var(--poloto_color7,chocolate);}</style><rect class="poloto_background" fill="white" x="0" y="0" width="800" height="500"/><line class="poloto_axis_lines" stroke="black" x1="150" x2="150" y1="400" y2="405"/><text class="poloto_text" alignment-baseline="start" text-anchor="middle" x="150" y="430">0</text><line class="poloto_axis_lines" stroke="black" x1="234.17508417508418" x2="234.17508417508418" y1="400" y2="405"/><text class="poloto_text" alignment-baseline="start" text-anchor="middle" x="234.17508417508418" y="430">5000</text><line class="poloto_axis_lines" stroke="black" x1="318.35016835016836" x2="318.35016835016836" y1="400" y2="405"/><text class="poloto_text" alignment-baseline="start" text-anchor="middle" x="318.35016835016836" y="430">10000</text><line class="poloto_axis_lines" stroke="black" x1="402.52525252525254" x2="402.52525252525254" y1="400" y2="405"/><text class="poloto_text" alignment-baseline="start" text-anchor="middle" x="402.52525252525254" y="430">15000</text><line class="poloto_axis_lines" stroke="black" x1="486.7003367003367" x2="486.7003367003367" y1="400" y2="405"/><text class="poloto_text" alignment-baseline="start" text-anchor="middle" x="486.7003367003367" y="430">20000</text><line class="poloto_axis_lines" stroke="black" x1="570.8754208754208" x2="570.8754208754208" y1="400" y2="405"/><text class="poloto_text" alignment-baseline="start" text-anchor="middle" x="570.8754208754208" y="430">25000</text><line class="poloto_axis_lines" stroke="black" x1="150" x2="144" y1="356.865330618365" y2="356.865330618365"/><text class="poloto_text" alignment-baseline="middle" text-anchor="end" x="135" y="356.865330618365">0.001</text><line class="poloto_axis_lines" stroke="black" x1="150" x2="144" y1="313.72716704534474" y2="313.72716704534474"/><text class="poloto_text" alignment-baseline="middle" text-anchor="end" x="135" y="313.72716704534474">0.002</text><line class="poloto_axis_lines" stroke="black" x1="150" x2="144" y1="270.58900347232446" y2="270.58900347232446"/><text class="poloto_text" alignment-baseline="middle" text-anchor="end" x="135" y="270.58900347232446">0.003</text><line class="poloto_axis_lines" stroke="black" x1="150" x2="144" y1="227.45083989930419" y2="227.45083989930419"/><text class="poloto_text" alignment-baseline="middle" text-anchor="end" x="135" y="227.45083989930419">0.004</text><line class="poloto_axis_lines" stroke="black" x1="150" x2="144" y1="184.3126763262839" y2="184.3126763262839"/><text class="poloto_text" alignment-baseline="middle" text-anchor="end" x="135" y="184.3126763262839">0.005</text><line class="poloto_axis_lines" stroke="black" x1="150" x2="144" y1="141.17451275326363" y2="141.17451275326363"/><text class="poloto_text" alignment-baseline="middle" text-anchor="end" x="135" y="141.17451275326363">0.006</text><text class="poloto_text" alignment-baseline="middle" text-anchor="start" font-size="large" x="675" y="100">default_par</text><line class="poloto0stroke" stroke="black" x1="680" x2="730" y1="81.25" y2="81.25"/><polyline class="poloto0stroke" fill="none" stroke="black" points="650,327.8506901782166 644.9494949494949,336.61127422676566 639.8989898989898,341.55991211731885 634.8484848484848,341.5691424489119 629.7979797979798,335.27968590073885 624.7474747474747,339.2507673947098 619.6969696969697,341.72694194799703 614.6464646464647,340.8313085107609 609.5959595959596,338.859763919461 604.5454545454545,341.6541237716641 599.4949494949494,343.39017438070323 594.4444444444445,345.99882779548454 589.3939393939394,346.0609040353226 584.3434343434344,346.33496151938067 579.2929292929293,345.60937610068316 574.2424242424242,348.97963231075926 569.1919191919192,350.0040785909568 564.1414141414141,347.698514513846 559.090909090909,349.98121368358824 554.040404040404,352.1728901329143 548.989898989899,345.26289215186137 543.939393939394,350.1842659128069 538.8888888888889,351.884510066863 533.8383838383838,352.4096345790307 528.7878787878788,351.69854248839505 523.7373737373737,354.3224676324335 518.6868686868687,351.9149229548542 513.6363636363636,353.9805536519195 508.5858585858586,347.12154346012926 503.5353535353535,356.3808868190702 498.4848484848485,357.9482277574323 493.4343434343434,357.2307954635125 488.3838383838384,360.18632202771323 483.3333333333333,359.88435509434686 478.2828282828283,355.26262059609667 473.2323232323232,355.25644862790955 468.1818181818182,355.1473117583876 463.1313131313131,360.24339390115705 458.0808080808081,363.50028225456913 453.030303030303,363.72244297764615 447.979797979798,363.8823994013337 442.9292929292929,363.00272569957247 437.8787878787879,361.90373871652594 432.8282828282828,364.0105644136229 427.77777777777777,361.4581642955446 422.72727272727275,365.3529800491789 417.67676767676767,367.25269829792694 412.62626262626264,363.2086680571 407.57575757575756,368.31825420512183 402.52525252525254,365.3475437956699 397.47474747474746,368.18409550362895 392.4242424242424,365.46207674315525 387.37373737373736,366.58336617593244 382.32323232323233,368.98404836813523 377.27272727272725,370.73209388849654 372.22222222222223,366.9020285594518 367.1717171717172,370.2270747259115 362.1212121212121,371.5090110995656 357.07070707070704,371.6030520078422 352.020202020202,370.2081796646389 346.969696969697,372.2039250001974 341.9191919191919,373.9477847309053 336.86868686868684,372.40736391904204 331.8181818181818,375.0289990569834 326.7676767676768,374.2894827678619 321.7171717171717,374.47786590100685 316.66666666666663,373.166812300706 311.6161616161616,374.68605055617115 306.5656565656566,379.38220146417626 301.5151515151515,374.51457630576505 296.4646464646464,378.14961447081737 291.4141414141414,380.806105660992 286.3636363636364,377.53588781485365 281.3131313131313,378.44908047647243 276.26262626262627,383.14742974011125 271.2121212121212,382.6073825237385 266.16161616161617,385.0925727205473 261.1111111111111,386.6688401629392 256.06060606060606,383.8839705278895 251.010101010101,386.5438264200051 245.95959595959596,387.7614015696672 240.9090909090909,386.6002077762596 235.85858585858585,388.5334876713823 230.8080808080808,388.70944902803353 225.75757575757575,389.277621637272 220.7070707070707,390.0514334042176 215.65656565656565,390.0057933567151 210.6060606060606,388.99592954407115 205.55555555555554,391.4637770877976 200.50505050505052,390.33226297867463 195.45454545454544,387.97597037011866 190.40404040404042,389.7740118459615 185.35353535353534,390.3981351798255 180.3030303030303,395.0649077201376 175.25252525252526,396.1505658382007 170.2020202020202,396.4543880657063 165.15151515151516,397.98579292017666 160.1010101010101,398.6521481284064 155.05050505050505,399.39835203727296 150,400 "/><text class="poloto_text" alignment-baseline="middle" text-anchor="start" font-size="large" x="675" y="150">default_seq</text><line class="poloto1stroke" stroke="black" x1="680" x2="730" y1="131.25" y2="131.25"/><polyline class="poloto1stroke" fill="none" stroke="black" points="650,276.93079256562123 644.9494949494949,282.13165755316226 639.8989898989898,282.3432521077562 634.8484848484848,281.80993178429367 629.7979797979798,284.59575433306463 624.7474747474747,287.79690162797965 619.6969696969697,286.4056526167918 614.6464646464647,286.36661203039097 609.5959595959596,284.8606216610752 604.5454545454545,288.42465457128804 599.4949494949494,288.2896245626508 594.4444444444445,291.00776136103445 589.3939393939394,292.9489332398888 584.3434343434344,294.15266289216123 579.2929292929293,294.66074292912384 574.2424242424242,299.5150436167519 569.1919191919192,297.84015525388924 564.1414141414141,295.74898797567545 559.090909090909,297.83114588779677 554.040404040404,301.8705559408839 548.989898989899,301.1730582504781 543.939393939394,305.3045707417685 538.8888888888889,303.58590107812853 533.8383838383838,306.0900327891845 528.7878787878788,305.33731381140234 523.7373737373737,307.1757769080248 518.6868686868687,307.34876276333273 513.6363636363636,312.0600083770973 508.5858585858586,310.96093602101644 503.5353535353535,314.01507095083 498.4848484848485,315.4922554539771 493.4343434343434,315.6069566365595 488.3838383838384,322.9162844746791 483.3333333333333,319.68592955813983 478.2828282828283,318.6240798450231 473.2323232323232,324.48038877065176 468.1818181818182,322.8902758308703 463.1313131313131,324.71846905365817 458.0808080808081,326.20850470944225 453.030303030303,326.4254476335393 447.979797979798,327.284415863506 442.9292929292929,327.41753753372905 437.8787878787879,326.4858415224069 432.8282828282828,329.4758311717859 427.77777777777777,332.0017028749346 422.72727272727275,337.7709112177827 417.67676767676767,339.64457813620476 412.62626262626264,338.9883156213762 407.57575757575756,342.3222481163201 402.52525252525254,344.4257944845105 397.47474747474746,343.2113680932319 392.4242424242424,343.8440776944741 387.37373737373736,344.9851686492707 382.32323232323233,347.33550837191143 377.27272727272725,348.039348776573 372.22222222222223,349.30044910790946 367.1717171717172,350.9524273659148 362.1212121212121,351.2766088650059 357.07070707070704,353.79730294472023 352.020202020202,355.0529645115761 346.969696969697,355.34867661469264 341.9191919191919,356.8343130482375 336.86868686868684,357.17911966803206 331.8181818181818,359.15851104557476 326.7676767676768,360.3582708517513 321.7171717171717,359.65166837833226 316.66666666666663,361.11987615801763 311.6161616161616,362.59360305327476 306.5656565656566,364.86832235527953 301.5151515151515,365.2868485902106 296.4646464646464,366.7796011172633 291.4141414141414,367.98850588199866 286.3636363636364,370.98371835230085 281.3131313131313,372.15319333003765 276.26262626262627,373.33876112474405 271.2121212121212,374.2955643410715 266.16161616161617,376.66902509018377 261.1111111111111,378.01459199509486 256.06060606060606,377.9197299991058 251.010101010101,379.02751919308804 245.95959595959596,380.131209225937 240.9090909090909,378.7320217780431 235.85858585858585,380.91865242994356 230.8080808080808,383.4025921628967 225.75757575757575,383.98267054396564 220.7070707070707,385.657897887994 215.65656565656565,387.3314855675691 210.6060606060606,388.3835399804832 205.55555555555554,388.93687274757934 200.50505050505052,390.15207502908163 195.45454545454544,390.8893923348265 190.40404040404042,392.35151728581644 185.35353535353534,392.5417133404549 180.3030303030303,394.86319383878055 175.25252525252526,395.6658654577842 170.2020202020202,396.49593020756134 165.15151515151516,397.8869201178675 160.1010101010101,398.496419239275 155.05050505050505,399.3083658380855 150,399.99974117130364 "/><text class="poloto_text" alignment-baseline="middle" text-anchor="start" font-size="large" x="675" y="200">direct_par</text><line class="poloto2stroke" stroke="black" x1="680" x2="730" y1="181.25" y2="181.25"/><polyline class="poloto2stroke" fill="none" stroke="black" points="650,238.5250099163221 644.9494949494949,248.07317025037236 639.8989898989898,255.2212937119204 634.8484848484848,268.48204607978914 629.7979797979798,261.1816472566709 624.7474747474747,257.5168440342996 619.6969696969697,270.8266105677552 614.6464646464647,273.4066137966069 609.5959595959596,259.20923889114135 604.5454545454545,275.0714482291924 599.4949494949494,259.96256050210695 594.4444444444445,266.7488027369962 589.3939393939394,277.8367712058399 584.3434343434344,281.830632234145 579.2929292929293,282.5814529173993 574.2424242424242,276.5108777633967 569.1919191919192,286.8357017003847 564.1414141414141,287.1045765390651 559.090909090909,287.9805038712026 554.040404040404,293.36146578561613 548.989898989899,292.9572596217067 543.939393939394,291.95745099482565 538.8888888888889,292.52027021261785 533.8383838383838,295.90623506100906 528.7878787878788,296.27967680090364 523.7373737373737,299.0415547245191 518.6868686868687,290.41443886027355 513.6363636363636,297.11547880691006 508.5858585858586,302.570554559001 503.5353535353535,273.3372105416468 498.4848484848485,303.9364427570522 493.4343434343434,307.7590856540541 488.3838383838384,311.401722019161 483.3333333333333,311.89487684094695 478.2828282828283,298.19695427403434 473.2323232323232,307.31468385680887 468.1818181818182,303.0520283409145 463.1313131313131,305.26195453181253 458.0808080808081,313.9112372533224 453.030303030303,316.7827291310633 447.979797979798,317.5262579527979 442.9292929292929,318.2264775364156 437.8787878787879,317.4365760912149 432.8282828282828,321.89511752338814 427.77777777777777,323.29995591286263 422.72727272727275,333.02541092948246 417.67676767676767,329.15747010485825 412.62626262626264,328.76763172043076 407.57575757575756,332.3922744630686 402.52525252525254,325.2894891046884 397.47474747474746,334.23949080668064 392.4242424242424,325.8923432536342 387.37373737373736,328.29164692242983 382.32323232323233,325.26352063642514 377.27272727272725,333.201676113697 372.22222222222223,339.1735951936264 367.1717171717172,342.9139736391449 362.1212121212121,334.91400306308117 357.07070707070704,342.24476957670186 352.020202020202,342.8009096100442 346.969696969697,339.92903104267725 341.9191919191919,346.4305090106159 336.86868686868684,346.36191931045346 331.8181818181818,346.78411407488875 326.7676767676768,347.37001916555005 321.7171717171717,353.9460830338264 316.66666666666663,354.31353359548893 311.6161616161616,340.942172928742 306.5656565656566,351.017436420579 301.5151515151515,357.61705822438483 296.4646464646464,361.79580711337087 291.4141414141414,357.19132801194 286.3636363636364,364.3664544620496 281.3131313131313,365.1031659958965 276.26262626262627,357.4650389819176 271.2121212121212,369.5363466149331 266.16161616161617,369.97756450019244 261.1111111111111,371.7972605950938 256.06060606060606,372.94848834223023 251.010101010101,373.7471932538524 245.95959595959596,373.1221622037559 240.9090909090909,370.85240458162815 235.85858585858585,378.3289405294094 230.8080808080808,375.02136319235484 225.75757575757575,379.8676777348165 220.7070707070707,381.4964458268586 215.65656565656565,380.9319831781557 210.6060606060606,382.19545637765196 205.55555555555554,385.4520861009895 200.50505050505052,384.4380804406951 195.45454545454544,382.9331183142486 190.40404040404042,385.90352615162305 185.35353535353534,385.4187403981722 180.3030303030303,389.2085134214746 175.25252525252526,391.5491042968873 170.2020202020202,392.6537001627402 165.15151515151516,395.4705790359743 160.1010101010101,397.0161332153976 155.05050505050505,398.663320853466 150,399.9979293682837 "/><text class="poloto_text" alignment-baseline="middle" text-anchor="start" font-size="large" x="675" y="250">direct_seq</text><line class="poloto3stroke" stroke="black" x1="680" x2="730" y1="231.25" y2="231.25"/><polyline class="poloto3stroke" fill="none" stroke="black" points="650,100 644.9494949494949,130.50985167041404 639.8989898989898,141.64126999178416 634.8484848484848,145.0565127690044 629.7979797979798,146.43232432680963 624.7474747474747,146.19307895298192 619.6969696969697,144.3635850469064 614.6464646464647,150.3914636398619 609.5959595959596,152.25356000116182 604.5454545454545,153.94103335367208 599.4949494949494,125.35281820308234 594.4444444444445,162.34513476449732 589.3939393939394,168.14017598314243 584.3434343434344,170.21741239093222 579.2929292929293,169.99749145452031 574.2424242424242,177.7334936304055 569.1919191919192,175.55955468444552 564.1414141414141,171.91545191192557 559.090909090909,180.06929984943883 554.040404040404,188.3270618355508 548.989898989899,187.1224784529351 543.939393939394,195.52613793275916 538.8888888888889,190.60873150693797 533.8383838383838,199.37216299727876 528.7878787878788,198.76952981383363 523.7373737373737,202.10976484748775 518.6868686868687,204.09644557557854 513.6363636363636,207.47510851856367 508.5858585858586,209.4853120285816 503.5353535353535,132.3817508648313 498.4848484848485,220.92766898483663 493.4343434343434,224.38137984693347 488.3838383838384,228.8221235124223 483.3333333333333,234.5033273227146 478.2828282828283,230.4238823384739 473.2323232323232,234.0091379806304 468.1818181818182,234.22378587668717 463.1313131313131,239.21863066658105 458.0808080808081,245.0697569468321 453.030303030303,245.7724774581611 447.979797979798,248.9773912104726 442.9292929292929,246.27046338930097 437.8787878787879,234.25359613149493 432.8282828282828,249.38275242131698 427.77777777777777,251.88619110421195 422.72727272727275,269.37173353628197 417.67676767676767,270.0508107390471 412.62626262626264,271.5381295235625 407.57575757575756,272.2454702226312 402.52525252525254,285.2623168533869 397.47474747474746,282.1561545920693 392.4242424242424,283.9870747300123 387.37373737373736,286.8926003167883 382.32323232323233,287.4785907804839 377.27272727272725,290.7192105489146 372.22222222222223,293.35753862603735 367.1717171717172,299.1095819670436 362.1212121212121,295.7065023362426 357.07070707070704,302.5530882405675 352.020202020202,304.7041271255565 346.969696969697,306.2454117116494 341.9191919191919,309.17039230636425 336.86868686868684,311.28895930665203 331.8181818181818,313.5970142675877 326.7676767676768,317.4642670859942 321.7171717171717,316.6741496972361 316.66666666666663,319.814350689532 311.6161616161616,320.5779371523889 306.5656565656566,325.8831982950754 301.5151515151515,325.26179308796594 296.4646464646464,329.72836460730855 291.4141414141414,332.21519070211326 286.3636363636364,338.4416670606731 281.3131313131313,340.3931540108507 276.26262626262627,342.739395827844 271.2121212121212,346.7088803438788 266.16161616161617,349.08527892976036 261.1111111111111,352.5761471495598 256.06060606060606,353.4610838477898 251.010101010101,355.7776007830097 245.95959595959596,357.46887574651885 240.9090909090909,359.7597280410388 235.85858585858585,360.13727521949556 230.8080808080808,364.68438113089087 225.75757575757575,366.007341758508 220.7070707070707,369.29145155501055 215.65656565656565,373.64292766923 210.6060606060606,375.72179871952994 205.55555555555554,377.5275187465185 200.50505050505052,379.74572612174575 195.45454545454544,381.0046707839656 190.40404040404042,383.86848411056076 185.35353535353534,384.78482427507726 180.3030303030303,388.5066127423723 175.25252525252526,390.64173646163226 170.2020202020202,392.5045716763248 165.15151515151516,395.0903162417346 160.1010101010101,396.5529587667452 155.05050505050505,398.59442920896896 150,399.9748073119215 "/><text class="poloto_text" alignment-baseline="middle" text-anchor="start" font-size="large" x="675" y="300">indirect_par</text><line class="poloto4stroke" stroke="black" x1="680" x2="730" y1="281.25" y2="281.25"/><polyline class="poloto4stroke" fill="none" stroke="black" points="650,242.15331365554937 644.9494949494949,254.60553316896255 639.8989898989898,245.63098923057456 634.8484848484848,262.14052704650965 629.7979797979798,255.4041125320049 624.7474747474747,260.61580482907505 619.6969696969697,266.6871131867842 614.6464646464647,274.64346818619606 609.5959595959596,261.8676748288184 604.5454545454545,271.7988989459256 599.4949494949494,271.2551832000486 594.4444444444445,283.50219607061234 589.3939393939394,276.2410989749411 584.3434343434344,276.1756128356734 579.2929292929293,285.967970179542 574.2424242424242,284.63634167796965 569.1919191919192,300.6532871297567 564.1414141414141,292.9064877760014 559.090909090909,295.08543862127044 554.040404040404,300.59802566683476 548.989898989899,301.1388487734312 543.939393939394,297.0466279657015 538.8888888888889,293.99215154375065 533.8383838383838,305.8080808104233 528.7878787878788,293.25340361193804 523.7373737373737,304.44745560884087 518.6868686868687,301.3505236791163 513.6363636363636,301.1471249358172 508.5858585858586,297.22565019673027 503.5353535353535,311.6616276672945 498.4848484848485,312.8791174439223 493.4343434343434,310.1020933396296 488.3838383838384,321.05746242034263 483.3333333333333,314.67594863145507 478.2828282828283,305.23718630797293 473.2323232323232,313.97029530530006 468.1818181818182,307.11399696283524 463.1313131313131,304.0734514113084 458.0808080808081,329.38032385609625 453.030303030303,326.52682057888114 447.979797979798,330.55808001816223 442.9292929292929,327.3140051528132 437.8787878787879,324.3050777556444 432.8282828282828,331.1182727596632 427.77777777777777,326.7906132110479 422.72727272727275,335.7674019580442 417.67676767676767,335.05747998017307 412.62626262626264,334.574243496198 407.57575757575756,340.0598225312576 402.52525252525254,334.1244883075065 397.47474747474746,337.1576164489338 392.4242424242424,337.0800525362812 387.37373737373736,331.1605073019364 382.32323232323233,339.51498689204806 377.27272727272725,342.8421899831102 372.22222222222223,337.12638498420176 367.1717171717172,346.586585983185 362.1212121212121,346.9761632265663 357.07070707070704,338.09846244075794 352.020202020202,348.51822621385446 346.969696969697,340.1747446793406 341.9191919191919,355.4293491101831 336.86868686868684,346.6185908271691 331.8181818181818,360.4246609407942 326.7676767676768,356.9372829715155 321.7171717171717,359.5393350419665 316.66666666666663,345.6601479463884 311.6161616161616,359.03060717433175 306.5656565656566,360.833221129454 301.5151515151515,361.7962390004857 296.4646464646464,364.715138021991 291.4141414141414,364.96797277410536 286.3636363636364,371.17154153877954 281.3131313131313,364.0425717685786 276.26262626262627,373.6471988319177 271.2121212121212,373.8995138129114 266.16161616161617,372.7573431403278 261.1111111111111,377.6326029078818 256.06060606060606,378.4050782101945 251.010101010101,378.8214475205232 245.95959595959596,381.20944679518607 240.9090909090909,381.282264971519 235.85858585858585,382.97056317819914 230.8080808080808,381.03089788230346 225.75757575757575,385.36602506045034 220.7070707070707,385.94446503255176 215.65656565656565,384.6687395471445 210.6060606060606,383.34966088161747 205.55555555555554,387.6065348854082 200.50505050505052,388.6771805320316 195.45454545454544,385.28272483318284 190.40404040404042,389.20389825567804 185.35353535353534,387.8594976970741 180.3030303030303,393.26074010133925 175.25252525252526,394.8874805838163 170.2020202020202,395.78988768080865 165.15151515151516,397.48724515914176 160.1010101010101,398.47040698594446 155.05050505050505,399.18667309049295 150,399.99879213162654 "/><text class="poloto_text" alignment-baseline="middle" text-anchor="start" font-size="large" x="675" y="350">indirect_seq</text><line class="poloto5stroke" stroke="black" x1="680" x2="730" y1="331.25" y2="331.25"/><polyline class="poloto5stroke" fill="none" stroke="black" points="650,129.08004417937212 644.9494949494949,145.1940336614666 639.8989898989898,144.45132843841603 634.8484848484848,143.51445480365942 629.7979797979798,155.68756475816 624.7474747474747,157.3558944632095 619.6969696969697,154.86444818066508 614.6464646464647,162.61883066864533 609.5959595959596,159.0965602380452 604.5454545454545,159.29715673704132 599.4949494949494,171.6041717849034 594.4444444444445,178.62434617771964 589.3939393939394,181.18153974057796 584.3434343434344,188.09494762106053 579.2929292929293,179.09787524549805 574.2424242424242,194.27850645307268 569.1919191919192,190.80884589938734 564.1414141414141,196.58345785311363 559.090909090909,194.95594650235614 554.040404040404,207.08634985192322 548.989898989899,201.7553361845309 543.939393939394,214.73936943844802 538.8888888888889,212.05604475029466 533.8383838383838,216.6858746209758 528.7878787878788,208.7423456644849 523.7373737373737,214.9463739369614 518.6868686868687,220.28869702042974 513.6363636363636,231.54011969639654 508.5858585858586,225.79192316387793 503.5353535353535,231.3681281858413 498.4848484848485,241.30203402061477 493.4343434343434,239.59746597346745 488.3838383838384,252.15710485182973 483.3333333333333,247.43825601606733 478.2828282828283,247.05432845878084 473.2323232323232,256.8428992574801 468.1818181818182,253.92986084368388 463.1313131313131,259.2531105868961 458.0808080808081,261.4519483272188 453.030303030303,265.62103499749696 447.979797979798,267.1300987960483 442.9292929292929,251.38151594473584 437.8787878787879,269.77968606981517 432.8282828282828,270.56894470628686 427.77777777777777,274.73763966499575 422.72727272727275,280.95040611863226 417.67676767676767,282.5195122700275 412.62626262626264,285.3531236302457 407.57575757575756,288.0284734726048 402.52525252525254,299.7758532146606 397.47474747474746,298.5643998137536 392.4242424242424,300.00823861408344 387.37373737373736,284.4825597334409 382.32323232323233,305.3134093617923 377.27272727272725,306.8289012476338 372.22222222222223,309.1156129499891 367.1717171717172,312.7773126114656 362.1212121212121,310.85964342676573 357.07070707070704,317.05005721123956 352.020202020202,319.06275160508244 346.969696969697,323.52682219671374 341.9191919191919,324.2043476190315 336.86868686868684,325.7330371715904 331.8181818181818,328.5130744418003 326.7676767676768,332.4799726570895 321.7171717171717,333.2562897459467 316.66666666666663,334.9903566874237 311.6161616161616,337.22137503974227 306.5656565656566,341.48765137668056 301.5151515151515,342.8149710509913 296.4646464646464,345.4138316765416 291.4141414141414,348.1932663135681 286.3636363636364,351.70514132175373 281.3131313131313,353.0267661124809 276.26262626262627,356.2166642546382 271.2121212121212,358.7153120037248 266.16161616161617,361.90870039640293 261.1111111111111,364.23238113359105 256.06060606060606,365.9944002108935 251.010101010101,367.5912902630172 245.95959595959596,368.9660597676094 240.9090909090909,370.1584423392319 235.85858585858585,370.7201441746631 230.8080808080808,373.98794521063877 225.75757575757575,376.4388844993693 220.7070707070707,379.33824313990135 215.65656565656565,381.2886918033233 210.6060606060606,383.17374346696926 205.55555555555554,384.5240975392313 200.50505050505052,386.1219781696503 195.45454545454544,387.1264936127912 190.40404040404042,389.7043436834979 185.35353535353534,390.17213392568976 180.3030303030303,393.2434420180028 175.25252525252526,394.5802073397211 170.2020202020202,395.57790675046004 165.15151515151516,397.43207142329004 160.1010101010101,398.25993593420475 155.05050505050505,399.25133720043385 150,399.9991372369637 "/><text class="poloto_text" alignment-baseline="start" text-anchor="middle" font-size="x-large" x="400" y="37.5">Bench of rebal:128_bytes with abspiral(num,2.1)</text><text class="poloto_text" alignment-baseline="start" text-anchor="middle" font-size="x-large" x="400" y="481.25">Number of Elements</text><text class="poloto_text" alignment-baseline="start" text-anchor="middle" font-size="x-large" transform="rotate(-90,37.5,250)" x="37.5" y="250">Time in Seconds</text><path stroke="black" fill="none" class="poloto_axis_lines" d=" M 150 100 L 150 400 L 650 400"/></svg>