<svg class="poloto" width="800" height="500" viewBox="0 0 800 500" xmlns="http://www.w3.org/2000/svg" ><style><style>.poloto {
            font-family: "Arial";
            stroke-width:2;
            }
            .poloto_text{fill: var(--poloto_fg_color,black);  }
            .poloto_axis_lines{stroke: var(--poloto_fg_color,black);stoke-width:3;fill:none}
            .poloto_background{fill: var(--poloto_bg_color,aliceblue); }
            .poloto0stroke{stroke:  var(--poloto_color0,blue); }
            .poloto1stroke{stroke:  var(--poloto_color1,red); }
            .poloto2stroke{stroke:  var(--poloto_color2,green); }
            .poloto3stroke{stroke:  var(--poloto_color3,gold); }
            .poloto4stroke{stroke:  var(--poloto_color4,aqua); }
            .poloto5stroke{stroke:  var(--poloto_color5,brown); }
            .poloto6stroke{stroke:  var(--poloto_color6,lime); }
            .poloto7stroke{stroke:  var(--poloto_color7,chocolate); }
            .poloto0fill{fill:var(--poloto_color0,blue);}
            .poloto1fill{fill:var(--poloto_color1,red);}
            .poloto2fill{fill:var(--poloto_color2,green);}
            .poloto3fill{fill:var(--poloto_color3,gold);}
            .poloto4fill{fill:var(--poloto_color4,aqua);}
            .poloto5fill{fill:var(--poloto_color5,brown);}
            .poloto6fill{fill:var(--poloto_color6,lime);}
            .poloto7fill{fill:var(--poloto_color7,chocolate);}</style></style><rect class="poloto_background" fill="white" x="0" y="0" width="800" height="500" /><line class="poloto_axis_lines" stroke="black" x1="150" x2="150" y1="400" y2="405" /><text class="poloto_text" alignment-baseline="start" text-anchor="middle" x="150" y="430" >0</text><line class="poloto_axis_lines" stroke="black" x1="234.17508417508418" x2="234.17508417508418" y1="400" y2="405" /><text class="poloto_text" alignment-baseline="start" text-anchor="middle" x="234.17508417508418" y="430" >5000</text><line class="poloto_axis_lines" stroke="black" x1="318.35016835016836" x2="318.35016835016836" y1="400" y2="405" /><text class="poloto_text" alignment-baseline="start" text-anchor="middle" x="318.35016835016836" y="430" >10000</text><line class="poloto_axis_lines" stroke="black" x1="402.52525252525254" x2="402.52525252525254" y1="400" y2="405" /><text class="poloto_text" alignment-baseline="start" text-anchor="middle" x="402.52525252525254" y="430" >15000</text><line class="poloto_axis_lines" stroke="black" x1="486.7003367003367" x2="486.7003367003367" y1="400" y2="405" /><text class="poloto_text" alignment-baseline="start" text-anchor="middle" x="486.7003367003367" y="430" >20000</text><line class="poloto_axis_lines" stroke="black" x1="570.8754208754208" x2="570.8754208754208" y1="400" y2="405" /><text class="poloto_text" alignment-baseline="start" text-anchor="middle" x="570.8754208754208" y="430" >25000</text><line class="poloto_axis_lines" stroke="black" x1="150" x2="144" y1="338.71070919360915" y2="338.71070919360915" /><text class="poloto_text" alignment-baseline="middle" text-anchor="end" x="135" y="338.71070919360915" >0.002</text><line class="poloto_axis_lines" stroke="black" x1="150" x2="144" y1="277.41718913433425" y2="277.41718913433425" /><text class="poloto_text" alignment-baseline="middle" text-anchor="end" x="135" y="277.41718913433425" >0.004</text><line class="poloto_axis_lines" stroke="black" x1="150" x2="144" y1="216.1236690750593" y2="216.1236690750593" /><text class="poloto_text" alignment-baseline="middle" text-anchor="end" x="135" y="216.1236690750593" >0.006</text><line class="poloto_axis_lines" stroke="black" x1="150" x2="144" y1="154.8301490157844" y2="154.8301490157844" /><text class="poloto_text" alignment-baseline="middle" text-anchor="end" x="135" y="154.8301490157844" >0.008</text><text class="poloto_text" alignment-baseline="middle" text-anchor="start" font-size="large" x="675" y="100" >default_par</text><line class="poloto0stroke" stroke="black" x1="680" x2="730" y1="81.25" y2="81.25" /><polyline class="poloto0stroke" fill="none" stroke="black"  points="650,341.6304873151528 644.9494949494949,344.64189924918503 639.8989898989898,336.4690212844813 634.8484848484848,356.43704036883173 629.7979797979798,361.1922223017903 624.7474747474747,366.5223680996649 619.6969696969697,364.48181487661157 614.6464646464647,321.1464993789434 609.5959595959596,358.80490098900157 604.5454545454545,338.11404742259214 599.4949494949494,361.3851743029369 594.4444444444445,321.21033658008514 589.3939393939394,366.5434530705653 584.3434343434344,363.9733544809598 579.2929292929293,367.1824073704232 574.2424242424242,358.7480206023866 569.1919191919192,349.1297494944051 564.1414141414141,363.2484666659788 559.090909090909,339.30881136234757 554.040404040404,354.25296836855955 548.989898989899,346.4707140071936 543.939393939394,349.71311057156925 538.8888888888889,309.0175843958139 533.8383838383838,283.56397914671857 528.7878787878788,327.9409473710341 523.7373737373737,204.97971031252237 518.6868686868687,341.28843882646197 513.6363636363636,372.07071882895053 508.5858585858586,372.2192943215742 503.5353535353535,372.7602709296174 498.4848484848485,370.3178467422954 493.4343434343434,372.66189482992223 488.3838383838384,372.3530674291036 483.3333333333333,376.13910686964493 478.2828282828283,376.3094722086497 473.2323232323232,370.9942513829095 468.1818181818182,373.73814774864303 463.1313131313131,376.12537712115164 458.0808080808081,376.6058570248963 453.030303030303,375.5482066895135 447.979797979798,376.75648585044195 442.9292929292929,373.21424138593636 437.8787878787879,376.14097632200674 432.8282828282828,376.19393392333797 427.77777777777777,377.79102852876247 422.72727272727275,379.16026447336657 417.67676767676767,379.7344928160419 412.62626262626264,381.1875782960871 407.57575757575756,379.3413561783817 402.52525252525254,372.91157398388367 397.47474747474746,374.95939048906405 392.4242424242424,380.5444253901052 387.37373737373736,378.29277728396767 382.32323232323233,379.23467480671854 377.27272727272725,384.1884477446692 372.22222222222223,381.3868435297998 367.1717171717172,382.5475282724023 362.1212121212121,382.1667729257941 357.07070707070704,382.47425186917144 352.020202020202,380.1720979025051 346.969696969697,380.56790080828785 341.9191919191919,380.8457136879565 336.86868686868684,379.14668795867345 331.8181818181818,377.8777895064063 326.7676767676768,367.7387073584812 321.7171717171717,384.4872536549581 316.66666666666663,356.23204419099346 311.6161616161616,379.61760607328887 306.5656565656566,386.9317311752021 301.5151515151515,385.13963123570903 296.4646464646464,386.543835133507 291.4141414141414,380.17329312614623 286.3636363636364,386.14030924419677 281.3131313131313,385.53252269928896 276.26262626262627,387.3058668216439 271.2121212121212,385.1562724264051 266.16161616161617,378.78830474688687 261.1111111111111,382.3958268102556 256.06060606060606,388.0605432873738 251.010101010101,388.1416959079322 245.95959595959596,388.983133351306 240.9090909090909,389.85886451915286 235.85858585858585,383.9055475028356 230.8080808080808,389.75917060877646 225.75757575757575,391.37664530962064 220.7070707070707,391.91228938141865 215.65656565656565,387.54371632623395 210.6060606060606,388.4049209298268 205.55555555555554,389.1007556162997 200.50505050505052,390.4242359481796 195.45454545454544,394.6524774891886 190.40404040404042,394.6383186860549 185.35353535353534,393.24772194971007 180.3030303030303,394.5791397924377 175.25252525252526,396.1767860395427 170.2020202020202,396.8711496815342 165.15151515151516,397.8875494779171 160.1010101010101,398.55322775252085 155.05050505050505,399.3482353544497 150,400 "/><text class="poloto_text" alignment-baseline="middle" text-anchor="start" font-size="large" x="675" y="150" >default_seq</text><line class="poloto1stroke" stroke="black" x1="680" x2="730" y1="131.25" y2="131.25" /><polyline class="poloto1stroke" fill="none" stroke="black"  points="650,301.2677236597993 644.9494949494949,301.2109352134644 639.8989898989898,286.65393872670677 634.8484848484848,294.2905903311719 629.7979797979798,303.7695106212987 624.7474747474747,288.5703419248801 619.6969696969697,308.2280625639304 614.6464646464647,301.3384563819477 609.5959595959596,301.1799513390744 604.5454545454545,266.0498154911812 599.4949494949494,296.7437715312643 594.4444444444445,286.9117699188361 589.3939393939394,310.2542731032899 584.3434343434344,306.54105036457895 579.2929292929293,312.60206009564035 574.2424242424242,303.8288733954761 569.1919191919192,303.06990638334213 564.1414141414141,300.9287704938715 559.090909090909,299.37617498401005 554.040404040404,298.82802703411994 548.989898989899,292.8218750035116 543.939393939394,314.3479140742487 538.8888888888889,303.20662157983435 533.8383838383838,313.60500596437026 528.7878787878788,323.0237053710388 523.7373737373737,310.6019605958261 518.6868686868687,307.11086557381 513.6363636363636,328.83227773973607 508.5858585858586,328.1716561805372 503.5353535353535,329.4237908550681 498.4848484848485,330.99167909818436 493.4343434343434,331.20945497495495 488.3838383838384,332.67639279053355 483.3333333333333,334.5271812754834 478.2828282828283,334.7168234265468 473.2323232323232,336.71048710675484 468.1818181818182,337.52287142162044 463.1313131313131,338.10813259790643 458.0808080808081,338.42909611569684 453.030303030303,340.06848324996224 447.979797979798,340.5851876240619 442.9292929292929,342.0915984665587 437.8787878787879,341.9892076412997 432.8282828282828,343.57303219963137 427.77777777777777,344.7052767489263 422.72727272727275,350.68203853666625 417.67676767676767,350.7136046994968 412.62626262626264,352.710608876548 407.57575757575756,351.86249043948783 402.52525252525254,353.40904853762345 397.47474747474746,353.8100920393713 392.4242424242424,355.0602040277402 387.37373737373736,356.62456789345305 382.32323232323233,357.9521548911769 377.27272727272725,358.5252186569711 372.22222222222223,358.55886879948366 367.1717171717172,360.40496833014896 362.1212121212121,361.5009577623289 357.07070707070704,361.0742322756762 352.020202020202,362.6675879763771 346.969696969697,363.6872056825631 341.9191919191919,363.72407373487874 336.86868686868684,357.80774735791726 331.8181818181818,357.9090042530552 326.7676767676768,358.00014771738336 321.7171717171717,366.86193420079326 316.66666666666663,364.38233549355533 311.6161616161616,369.9879037238163 306.5656565656566,370.8740854368333 301.5151515151515,371.5198739641778 296.4646464646464,372.4447012415922 291.4141414141414,363.1670688713401 286.3636363636364,376.5938434949647 281.3131313131313,377.32004912062695 276.26262626262627,378.1188569207995 271.2121212121212,378.8948022379899 266.16161616161617,379.6969198882456 261.1111111111111,379.3750063208943 256.06060606060606,381.3659117926996 251.010101010101,382.1797671520466 245.95959595959596,383.26334464641457 240.9090909090909,384.2551963880137 235.85858585858585,384.72583868178884 230.8080808080808,385.1483349155574 225.75757575757575,386.6831553046017 220.7070707070707,387.3263082105837 215.65656565656565,389.24032096147465 210.6060606060606,390.2669261289475 205.55555555555554,390.6822510208691 200.50505050505052,391.47137444487225 195.45454545454544,392.4046295812948 190.40404040404042,393.0597347236883 185.35353535353534,393.68382534493185 180.3030303030303,394.8796619212883 175.25252525252526,395.6299865470939 170.2020202020202,396.73440383828193 165.15151515151516,397.7852505929382 160.1010101010101,398.4307020059224 155.05050505050505,399.27186362845583 150,399.998927363399 "/><text class="poloto_text" alignment-baseline="middle" text-anchor="start" font-size="large" x="675" y="200" >direct_par</text><line class="poloto2stroke" stroke="black" x1="680" x2="730" y1="181.25" y2="181.25" /><polyline class="poloto2stroke" fill="none" stroke="black"  points="650,326.30379745025084 644.9494949494949,335.1869447254014 639.8989898989898,296.36770513894066 634.8484848484848,318.0165151303565 629.7979797979798,352.13006730130655 624.7474747474747,341.6804721807611 619.6969696969697,342.74777624555327 614.6464646464647,238.62556227866017 609.5959595959596,289.9875400489306 604.5454545454545,330.95361582222756 599.4949494949494,289.46259169638296 594.4444444444445,337.0828452411149 589.3939393939394,338.8702868730835 584.3434343434344,350.59916969754613 579.2929292929293,321.18085439693664 574.2424242424242,350.99616782697 569.1919191919192,339.7894444998924 564.1414141414141,332.9673224834949 559.090909090909,293.8951858332696 554.040404040404,290.1810130449977 548.989898989899,345.4800574892356 543.939393939394,323.48818766604796 538.8888888888889,265.8105868823899 533.8383838383838,327.6003086333046 528.7878787878788,313.6621928185856 523.7373737373737,326.9862088558308 518.6868686868687,358.2320211037676 513.6363636363636,345.78683155713225 508.5858585858586,361.98955905748136 503.5353535353535,365.5434186440382 498.4848484848485,366.4038877253903 493.4343434343434,367.3642652444391 488.3838383838384,347.69051634989324 483.3333333333333,362.27662725867896 478.2828282828283,369.90068304477194 473.2323232323232,367.8741660378122 468.1818181818182,358.2243900605202 463.1313131313131,369.94193358377186 458.0808080808081,367.01795685610415 453.030303030303,368.32810584737115 447.979797979798,368.12090310281076 442.9292929292929,367.1265689736492 437.8787878787879,366.55129864113286 432.8282828282828,368.5291485931656 427.77777777777777,371.5683877853047 422.72727272727275,373.8710321001315 417.67676767676767,371.69529601858744 412.62626262626264,375.79120484978847 407.57575757575756,362.4851171671606 402.52525252525254,370.84043529432074 397.47474747474746,374.5912922543481 392.4242424242424,373.40127856239724 387.37373737373736,372.62355573312516 382.32323232323233,377.39654343366095 377.27272727272725,376.5351243027479 372.22222222222223,378.2711100246267 367.1717171717172,376.6341133376436 362.1212121212121,373.65815970496567 357.07070707070704,377.2733128115818 352.020202020202,376.0296672895791 346.969696969697,379.1507639777574 341.9191919191919,379.4904833126859 336.86868686868684,378.1526909438722 331.8181818181818,364.3638554972575 326.7676767676768,354.42354823488455 321.7171717171717,380.45325127901697 316.66666666666663,348.7297479824982 311.6161616161616,377.11094627694473 306.5656565656566,380.0315518610092 301.5151515151515,382.5090665885651 296.4646464646464,383.34940074857775 291.4141414141414,375.1214199093408 286.3636363636364,383.64321123698187 281.3131313131313,383.6891507302663 276.26262626262627,381.86664920482383 271.2121212121212,389.00581195372786 266.16161616161617,379.6823933239915 261.1111111111111,384.4131804359665 256.06060606060606,378.362376075995 251.010101010101,386.7230880329203 245.95959595959596,387.1524797876956 240.9090909090909,381.0824905559455 235.85858585858585,387.50283354835443 230.8080808080808,389.7478313075655 225.75757575757575,386.83219049862583 220.7070707070707,387.78852264535067 215.65656565656565,389.3484120840992 210.6060606060606,386.9686298742778 205.55555555555554,389.2790891129122 200.50505050505052,387.81549179417675 195.45454545454544,389.9400784332314 190.40404040404042,394.22238085893264 185.35353535353534,392.5852002913894 180.3030303030303,394.6857292238208 175.25252525252526,395.2365127950734 170.2020202020202,396.37651097465584 165.15151515151516,397.64485778524244 160.1010101010101,398.3302112797852 155.05050505050505,399.27517347853905 150,399.9980386073581 "/><text class="poloto_text" alignment-baseline="middle" text-anchor="start" font-size="large" x="675" y="250" >direct_seq</text><line class="poloto3stroke" stroke="black" x1="680" x2="730" y1="231.25" y2="231.25" /><polyline class="poloto3stroke" fill="none" stroke="black"  points="650,268.8322961277921 644.9494949494949,185.8545997160271 639.8989898989898,247.53583193643698 634.8484848484848,258.67451945624885 629.7979797979798,259.25760471257274 624.7474747474747,244.2662823426751 619.6969696969697,280.66081156911105 614.6464646464647,247.28121865411075 609.5959595959596,226.27917788636037 604.5454545454545,227.10130787091543 599.4949494949494,277.83187044429525 594.4444444444445,263.73589316866355 589.3939393939394,244.18237151371395 584.3434343434344,288.42326812349785 579.2929292929293,292.0542043115292 574.2424242424242,292.2684251641364 569.1919191919192,241.5132225956927 564.1414141414141,253.13373847669052 559.090909090909,278.3044434839523 554.040404040404,260.1352666263015 548.989898989899,198.0596106043102 543.939393939394,184.4614899453599 538.8888888888889,259.79760062429494 533.8383838383838,100 528.7878787878788,240.03454707102276 523.7373737373737,305.7732877323165 518.6868686868687,295.00662123250436 513.6363636363636,287.18225822285774 508.5858585858586,308.0253648930944 503.5353535353535,309.3769789506815 498.4848484848485,312.3309895031782 493.4343434343434,312.7402156898539 488.3838383838384,313.88116391899734 483.3333333333333,316.39318689834664 478.2828282828283,316.20078653888055 473.2323232323232,318.84327277567604 468.1818181818182,304.76059619389713 463.1313131313131,321.3685045085981 458.0808080808081,321.51956238878415 453.030303030303,323.28487706001135 447.979797979798,325.08635490807353 442.9292929292929,326.5972401775346 437.8787878787879,327.0809073443224 432.8282828282828,329.07705341209277 427.77777777777777,329.77524789908796 422.72727272727275,337.71729446724845 417.67676767676767,336.9594000917155 412.62626262626264,339.7485004284928 407.57575757575756,338.8674673711607 402.52525252525254,340.19922232824865 397.47474747474746,340.65092492432547 392.4242424242424,342.5843370743152 387.37373737373736,345.51974504347396 382.32323232323233,346.5754952797349 377.27272727272725,347.60317308380877 372.22222222222223,347.7701979259703 367.1717171717172,350.65641784528145 362.1212121212121,351.4255595817453 357.07070707070704,351.5111866292681 352.020202020202,353.3964833660113 346.969696969697,354.71122937128274 341.9191919191919,354.0822352684345 336.86868686868684,356.63302639922125 331.8181818181818,356.44019698511477 326.7676767676768,358.14679246412516 321.7171717171717,359.00278711851297 316.66666666666663,355.4727094177391 311.6161616161616,357.41114763637376 306.5656565656566,357.0111461244669 301.5151515151515,364.354048534048 296.4646464646464,365.95433040251555 291.4141414141414,366.93763169806647 286.3636363636364,368.28081789664543 281.3131313131313,371.69952527147154 276.26262626262627,373.26962008130994 271.2121212121212,373.95803825185567 266.16161616161617,374.4514204415728 261.1111111111111,374.353320162718 256.06060606060606,375.67462457463574 251.010101010101,376.3028831552433 245.95959595959596,379.5831591150156 240.9090909090909,380.9452850112928 235.85858585858585,381.4197275033116 230.8080808080808,382.87213875463624 225.75757575757575,383.9744107726222 220.7070707070707,384.9437371455996 215.65656565656565,387.0250199127323 210.6060606060606,388.3351382572393 205.55555555555554,389.221013502656 200.50505050505052,390.12359123228885 195.45454545454544,390.2875207516874 190.40404040404042,391.9253142544312 185.35353535353534,392.481369068409 180.3030303030303,394.36286560690854 175.25252525252526,394.86979366455876 170.2020202020202,396.1097922221179 165.15151515151516,397.4591077727028 160.1010101010101,398.24608592350387 155.05050505050505,399.1811492187681 150,399.996874030477 "/><text class="poloto_text" alignment-baseline="middle" text-anchor="start" font-size="large" x="675" y="300" >indirect_par</text><line class="poloto4stroke" stroke="black" x1="680" x2="730" y1="281.25" y2="281.25" /><polyline class="poloto4stroke" fill="none" stroke="black"  points="650,351.0544886113064 644.9494949494949,352.32090467601114 639.8989898989898,355.846875710941 634.8484848484848,320.74150244515175 629.7979797979798,334.76901485887726 624.7474747474747,345.95161918581164 619.6969696969697,339.8744892589746 614.6464646464647,352.96234136343145 609.5959595959596,333.69886064540236 604.5454545454545,340.82220966613113 599.4949494949494,357.7900028838601 594.4444444444445,335.6475042351268 589.3939393939394,343.34036199748635 584.3434343434344,336.99645202459135 579.2929292929293,343.84943532833864 574.2424242424242,332.4975382990006 569.1919191919192,347.3198744340948 564.1414141414141,270.2285318679823 559.090909090909,139.4656410490059 554.040404040404,348.80152269448763 548.989898989899,339.20847387001055 543.939393939394,340.1350173659866 538.8888888888889,272.8307176153388 533.8383838383838,354.8620420773886 528.7878787878788,324.45055722449865 523.7373737373737,334.8312890752575 518.6868686868687,367.41057249884386 513.6363636363636,358.31620775356896 508.5858585858586,369.50929327243347 503.5353535353535,372.97492083686495 498.4848484848485,370.8431628559634 493.4343434343434,370.56602420501537 488.3838383838384,373.16952776305317 483.3333333333333,370.92842214236583 478.2828282828283,372.8286744980035 473.2323232323232,374.171400995182 468.1818181818182,370.02397496037116 463.1313131313131,373.20581352692824 458.0808080808081,371.09964559065145 453.030303030303,374.41194741465466 447.979797979798,376.8939365691749 442.9292929292929,373.5474329609786 437.8787878787879,357.9813306067251 432.8282828282828,375.25025888850536 427.77777777777777,377.80770036621857 422.72727272727275,376.19580337569977 417.67676767676767,376.45225546362775 412.62626262626264,376.8521037417344 407.57575757575756,376.732734611419 402.52525252525254,374.9909566518946 397.47474747474746,378.35575637582855 392.4242424242424,376.7897069383141 387.37373737373736,379.5854882687778 382.32323232323233,379.82385876828835 377.27272727272725,380.4211028277459 372.22222222222223,380.8915918877209 367.1717171717172,382.0089114648814 362.1212121212121,380.50240868210454 357.07070707070704,381.01592579316116 352.020202020202,377.5431575336427 346.969696969697,381.64608447289055 341.9191919191919,382.74228843239064 336.86868686868684,382.42586063508463 331.8181818181818,362.4344580728316 326.7676767676768,288.03402362436145 321.7171717171717,374.88948522943645 316.66666666666663,379.01484559702595 311.6161616161616,379.16476954709094 306.5656565656566,385.5378858822942 301.5151515151515,385.44404550308343 296.4646464646464,375.7998472361168 291.4141414141414,382.5246964361802 286.3636363636364,381.958865305753 281.3131313131313,389.3065792566587 276.26262626262627,385.2301004713165 271.2121212121212,351.60928690812295 266.16161616161617,388.4779521589774 261.1111111111111,386.5312393151348 256.06060606060606,388.06388378421696 251.010101010101,390.9648447951024 245.95959595959596,390.86015546284113 240.9090909090909,386.6280217833084 235.85858585858585,388.0396421970335 230.8080808080808,384.99675604045086 225.75757575757575,394.19896673427 220.7070707070707,392.8733717759481 215.65656565656565,389.5462369200905 210.6060606060606,388.6031748204585 205.55555555555554,389.5855260664485 200.50505050505052,389.7205556911391 195.45454545454544,380.28582802897506 190.40404040404042,392.13107660127025 185.35353535353534,388.13096954192184 180.3030303030303,395.3497525733829 175.25252525252526,396.1808007651066 170.2020202020202,397.26931238783925 165.15151515151516,398.22950602632784 160.1010101010101,398.7470991564684 155.05050505050505,399.44290319618125 150,399.99852895551857 "/><text class="poloto_text" alignment-baseline="middle" text-anchor="start" font-size="large" x="675" y="350" >indirect_seq</text><line class="poloto5stroke" stroke="black" x1="680" x2="730" y1="331.25" y2="331.25" /><polyline class="poloto5stroke" fill="none" stroke="black"  points="650,242.75579548109437 644.9494949494949,243.89870510287963 639.8989898989898,299.659442986964 634.8484848484848,256.2499316832641 629.7979797979798,248.76194751170272 624.7474747474747,303.0029738594374 619.6969696969697,260.5075941139015 614.6464646464647,268.18825446576926 609.5959595959596,290.15548429389304 604.5454545454545,258.67923905729344 599.4949494949494,262.7545226189945 594.4444444444445,280.84037093612466 589.3939393939394,310.5011021085686 584.3434343434344,288.57260978512227 579.2929292929293,314.0696721399396 574.2424242424242,293.34639430141885 569.1919191919192,270.55449080765754 564.1414141414141,245.0079952289124 559.090909090909,313.4757685773253 554.040404040404,247.69289658158885 548.989898989899,298.71490984285055 543.939393939394,267.7611305712362 538.8888888888889,258.23722083738596 533.8383838383838,205.11093973896928 528.7878787878788,289.39044922327315 523.7373737373737,294.556389680909 518.6868686868687,320.2828430345482 513.6363636363636,305.61879741500707 508.5858585858586,328.1356768842624 503.5353535353535,328.65235061160206 498.4848484848485,331.9636104457643 493.4343434343434,332.24405894679546 488.3838383838384,334.2662854073511 483.3333333333333,320.11496008310587 478.2828282828283,332.38432916745114 473.2323232323232,335.4462163152522 468.1818181818182,336.9361698476131 463.1313131313131,337.43770407549806 458.0808080808081,337.8752478684412 453.030303030303,340.83989284666825 447.979797979798,341.9664983921177 442.9292929292929,343.54894384624805 437.8787878787879,342.02534017137464 432.8282828282828,344.0757310043975 427.77777777777777,344.44971341703916 422.72727272727275,350.5007323043309 417.67676767676767,349.97360803182113 412.62626262626264,352.74573006354194 407.57575757575756,339.319599021878 402.52525252525254,354.01208483472664 397.47474747474746,354.9553308149188 392.4242424242424,354.17984519912886 387.37373737373736,358.04909059315065 382.32323232323233,358.86217978349697 377.27272727272725,358.1729954439505 372.22222222222223,359.96000802127867 367.1717171717172,361.82385202600113 362.1212121212121,362.7990625769042 357.07070707070704,362.178435039544 352.020202020202,363.9399188657675 346.969696969697,364.83878833743677 341.9191919191919,364.4177018546295 336.86868686868684,366.33070326243956 331.8181818181818,365.5667101816607 326.7676767676768,364.3631506217768 321.7171717171717,366.6672966278451 316.66666666666663,368.69788965388875 311.6161616161616,367.17471503365573 306.5656565656566,372.2444246647985 301.5151515151515,372.9023799558748 296.4646464646464,374.0717990250857 291.4141414141414,374.5706363380881 286.3636363636364,377.4895869971109 281.3131313131313,378.73571490667604 276.26262626262627,379.6765091460658 271.2121212121212,379.802865737668 266.16161616161617,381.0194195238045 261.1111111111111,379.34797587854814 256.06060606060606,380.11393035196886 251.010101010101,383.87005855472125 245.95959595959596,384.6712874489361 240.9090909090909,385.3871651164684 235.85858585858585,385.96455007542676 230.8080808080808,386.33491617038493 225.75757575757575,387.8471192505273 220.7070707070707,388.56146458005816 215.65656565656565,390.16919361121296 210.6060606060606,391.09331601314665 205.55555555555554,391.8801102833875 200.50505050505052,392.54873064695414 195.45454545454544,393.2084940968722 190.40404040404042,393.79292781063737 185.35353535353534,393.60659550965715 180.3030303030303,395.5035993087317 175.25252525252526,395.9946216979265 170.2020202020202,397.08763839438353 165.15151515151516,398.07835620586167 160.1010101010101,398.6452293261298 155.05050505050505,399.3778094778783 150,399.998958010159 "/><text class="poloto_text" alignment-baseline="start" text-anchor="middle" font-size="x-large" x="400" y="37.5" >Bench of rebal:32_bytes with abspiral(num,0.1)</text><text class="poloto_text" alignment-baseline="start" text-anchor="middle" font-size="x-large" x="400" y="481.25" >Number of Elements</text><text class="poloto_text" alignment-baseline="start" text-anchor="middle" font-size="x-large" transform="rotate(-90,37.5,250)" x="37.5" y="250" >Time in Seconds</text><path stroke="black" fill="none" class="poloto_axis_lines"  d="M 150 100 L 150 400 L 650 400 "/></svg>