<svg class="poloto" height="500" viewBox="0 0 800 500" width="800" xmlns="http://www.w3.org/2000/svg">
<rect class="poloto_background" fill="white" height="500" width="800" x="0" y="0"/>
<style>
.poloto {
font-family: "Arial";
stroke-width:2;
}
.poloto_text{fill: var(--poloto_fg_color,black);  }
.poloto_axis_lines{stroke: var(--poloto_fg_color,black);stoke-width:3;fill:none}
.poloto_background{fill: var(--poloto_bg_color,aliceblue); }
.poloto0stroke{stroke:  var(--poloto_color0,blue); }
.poloto1stroke{stroke:  var(--poloto_color1,red); }
.poloto2stroke{stroke:  var(--poloto_color2,green); }
.poloto3stroke{stroke:  var(--poloto_color3,gold); }
.poloto4stroke{stroke:  var(--poloto_color4,aqua); }
.poloto5stroke{stroke:  var(--poloto_color5,brown); }
.poloto6stroke{stroke:  var(--poloto_color6,lime); }
.poloto7stroke{stroke:  var(--poloto_color7,chocolate); }
.poloto0fill{fill:var(--poloto_color0,blue);}
.poloto1fill{fill:var(--poloto_color1,red);}
.poloto2fill{fill:var(--poloto_color2,green);}
.poloto3fill{fill:var(--poloto_color3,gold);}
.poloto4fill{fill:var(--poloto_color4,aqua);}
.poloto5fill{fill:var(--poloto_color5,brown);}
.poloto6fill{fill:var(--poloto_color6,lime);}
.poloto7fill{fill:var(--poloto_color7,chocolate);}
</style>
<line class="poloto_axis_lines" stroke="black" x1="150" x2="150" y1="400" y2="405"/>
<text alignment-baseline="start" class="poloto_text" text-anchor="middle" x="150" y="440">
0
</text>
<line class="poloto_axis_lines" stroke="black" x1="234.17508" x2="234.17508" y1="400" y2="405"/>
<text alignment-baseline="start" class="poloto_text" text-anchor="middle" x="234.17508" y="440">
5000
</text>
<line class="poloto_axis_lines" stroke="black" x1="318.35016" x2="318.35016" y1="400" y2="405"/>
<text alignment-baseline="start" class="poloto_text" text-anchor="middle" x="318.35016" y="440">
10000
</text>
<line class="poloto_axis_lines" stroke="black" x1="402.52527" x2="402.52527" y1="400" y2="405"/>
<text alignment-baseline="start" class="poloto_text" text-anchor="middle" x="402.52527" y="440">
15000
</text>
<line class="poloto_axis_lines" stroke="black" x1="486.70035" x2="486.70035" y1="400" y2="405"/>
<text alignment-baseline="start" class="poloto_text" text-anchor="middle" x="486.70035" y="440">
20000
</text>
<line class="poloto_axis_lines" stroke="black" x1="570.8754" x2="570.8754" y1="400" y2="405"/>
<text alignment-baseline="start" class="poloto_text" text-anchor="middle" x="570.8754" y="440">
25000
</text>
<line class="poloto_axis_lines" stroke="black" x1="150" x2="144" y1="351.0693" y2="351.0693"/>
<text alignment-baseline="middle" class="poloto_text" text-anchor="end" x="120" y="351.0693">
0.002
</text>
<line class="poloto_axis_lines" stroke="black" x1="150" x2="144" y1="302.13583" y2="302.13583"/>
<text alignment-baseline="middle" class="poloto_text" text-anchor="end" x="120" y="302.13583">
0.004
</text>
<line class="poloto_axis_lines" stroke="black" x1="150" x2="144" y1="253.20233" y2="253.20233"/>
<text alignment-baseline="middle" class="poloto_text" text-anchor="end" x="120" y="253.20233">
0.006
</text>
<line class="poloto_axis_lines" stroke="black" x1="150" x2="144" y1="204.26886" y2="204.26886"/>
<text alignment-baseline="middle" class="poloto_text" text-anchor="end" x="120" y="204.26886">
0.008
</text>
<line class="poloto_axis_lines" stroke="black" x1="150" x2="144" y1="155.33539" y2="155.33539"/>
<text alignment-baseline="middle" class="poloto_text" text-anchor="end" x="120" y="155.33539">
0.010
</text>
<line class="poloto_axis_lines" stroke="black" x1="150" x2="144" y1="106.401886" y2="106.401886"/>
<text alignment-baseline="middle" class="poloto_text" text-anchor="end" x="120" y="106.401886">
0.012
</text>
<text alignment-baseline="middle" class="poloto_text" font-size="large" text-anchor="start" x="675" y="100">
default_par
</text>
<line class="poloto0stroke" x1="680" x2="730" y1="81.25" y2="81.25"/>
<polyline class="poloto0stroke" fill="none" points="650,317.75922 644.94946,319.7414 639.899,320.3299 634.8485,318.62793 629.798,318.6363 624.7475,316.2223 619.697,282.17346 614.6465,319.77176 609.59595,322.5403 604.5455,323.49948 599.495,325.85583 594.44446,326.08334 589.3939,327.55194 584.34344,286.67853 579.29297,321.9633 574.24243,325.9028 569.1919,329.9444 564.1414,330.4398 559.09094,328.96985 554.0404,331.97125 548.98987,331.82608 543.9394,303.2597 538.8889,332.1678 533.8384,332.45642 528.78784,335.99268 523.73737,335.2411 518.6869,337.5476 513.63635,336.16345 508.58588,339.07364 503.53537,334.7589 498.48486,339.94205 493.43436,339.5817 488.38385,339.00485 483.33334,338.37457 478.28284,340.55984 473.23233,342.25027 468.18182,344.01535 463.13132,343.02844 458.0808,343.74298 453.0303,344.67688 447.9798,325.62225 442.9293,346.32013 437.87878,348.11478 432.82828,346.62003 427.77777,345.6015 422.72726,351.50104 417.67676,349.49274 412.62628,350.72852 407.57578,351.99673 402.52527,351.1797 397.47473,351.2011 392.42426,353.21436 387.37375,356.9026 382.32324,357.2421 377.27274,358.33734 372.22223,358.20944 367.17172,358.68582 362.12122,358.36484 357.0707,359.7587 352.0202,358.05432 346.9697,362.2121 341.9192,362.91992 336.86868,363.81656 331.81818,363.74356 326.7677,363.43933 321.71716,365.14352 316.6667,361.92438 311.61615,363.393 306.56567,357.312 301.51514,357.88904 296.46466,368.84418 291.41412,365.67987 286.36365,372.4936 281.31314,371.89743 276.26263,374.3029 271.21213,375.79398 266.16162,375.29303 261.1111,373.86313 256.0606,377.40155 251.0101,376.75494 245.9596,374.8736 240.90909,381.09137 235.85858,378.91098 230.80807,381.96347 225.75757,382.51965 220.70706,380.62082 215.65657,377.4351 210.60606,378.71237 205.55556,380.11127 200.50505,381.4546 195.45454,382.7499 190.40404,384.13574 185.35353,386.81653 180.30302,385.95618 175.25253,388.52863 170.20203,390.9011 165.15152,393.48782 160.10101,395.4304 155.0505,398.03918 150,400 " stroke="black"/>
<text alignment-baseline="middle" class="poloto_text" font-size="large" text-anchor="start" x="675" y="150">
default_seq
</text>
<line class="poloto1stroke" x1="680" x2="730" y1="131.25" y2="131.25"/>
<polyline class="poloto1stroke" fill="none" points="650,133.19788 644.94946,141.25189 639.899,141.12128 634.8485,144.09306 629.798,148.51103 624.7475,148.7781 619.697,154.62872 614.6465,142.55075 609.59595,153.84875 604.5455,162.3471 599.495,168.2457 594.44446,167.6262 589.3939,170.23969 584.34344,158.79462 579.29297,166.05225 574.24243,171.77647 569.1919,181.35849 564.1414,185.27776 559.09094,190.093 554.0404,192.99127 548.98987,193.23764 543.9394,184.99962 538.8889,200.10973 533.8384,201.2115 528.78784,206.58553 523.73737,206.05635 518.6869,212.17447 513.63635,212.56212 508.58588,216.0055 503.53537,213.35767 498.48486,220.85867 493.43436,221.89703 488.38385,223.68372 483.33334,224.52208 478.28284,227.30664 473.23233,231.73656 468.18182,234.2329 463.13132,237.2007 458.0808,237.79636 453.0303,239.63177 447.9798,234.0869 442.9293,244.49445 437.87878,249.66751 432.82828,250.91379 427.77777,251.3613 422.72726,262.5745 417.67676,264.04633 412.62628,266.52148 407.57578,270.28442 402.52527,272.28433 397.47473,275.3228 392.42426,280.29355 387.37375,281.27255 382.32324,283.55008 377.27274,286.0076 372.22223,288.66095 367.17172,291.66364 362.12122,293.25342 357.0707,295.3763 352.0202,297.7561 346.9697,300.39206 341.9192,304.494 336.86868,304.6965 331.81818,307.4662 326.7677,309.75388 321.71716,313.7199 316.6667,316.46973 311.61615,319.1792 306.56567,321.0072 301.51514,323.05588 296.46466,327.1024 291.41412,329.42957 286.36365,333.73984 281.31314,336.5451 276.26263,339.04642 271.21213,340.831 266.16162,343.81482 261.1111,346.24472 256.0606,348.77344 251.0101,351.40616 245.9596,353.9385 240.90909,356.24292 235.85858,358.12274 230.80807,361.12192 225.75757,363.75818 220.70706,365.48016 215.65657,369.4769 210.60606,371.10706 205.55556,373.70972 200.50505,376.31656 195.45454,378.34195 190.40404,381.06744 185.35353,383.4191 180.30302,386.20068 175.25253,388.56186 170.20203,390.85226 165.15152,393.46292 160.10101,395.4012 155.0505,398.00363 150,399.9999 " stroke="black"/>
<text alignment-baseline="middle" class="poloto_text" font-size="large" text-anchor="start" x="675" y="200">
direct_par
</text>
<line class="poloto2stroke" x1="680" x2="730" y1="181.25" y2="181.25"/>
<polyline class="poloto2stroke" fill="none" points="650,282.26138 644.94946,322.55005 639.899,324.36465 634.8485,323.06775 629.798,325.7873 624.7475,321.38782 619.697,307.73044 614.6465,274.17368 609.59595,329.08826 604.5455,326.98096 599.495,327.1363 594.44446,328.84766 589.3939,331.69867 584.34344,329.63678 579.29297,319.3573 574.24243,310.18307 569.1919,334.16266 564.1414,335.5653 559.09094,335.32355 554.0404,330.4785 548.98987,338.04367 543.9394,335.34024 538.8889,335.5097 533.8384,336.2329 528.78784,340.34128 523.73737,337.37454 518.6869,338.88467 513.63635,341.08932 508.58588,340.19394 503.53537,342.40918 498.48486,344.20972 493.43436,344.7218 488.38385,344.0014 483.33334,339.083 478.28284,340.2964 473.23233,343.85614 468.18182,345.14316 463.13132,345.96848 458.0808,346.75925 453.0303,344.93396 447.9798,332.35663 442.9293,345.98526 437.87878,345.61203 432.82828,348.82712 427.77777,350.43344 422.72726,347.19348 417.67676,344.2378 412.62628,349.84476 407.57578,353.1741 402.52527,353.41742 397.47473,355.08978 392.42426,350.0025 387.37375,356.23068 382.32324,356.78403 377.27274,357.47034 372.22223,358.25336 367.17172,359.24997 362.12122,358.87988 357.0707,359.35846 352.0202,362.69632 346.9697,363.20496 341.9192,363.7631 336.86868,363.7785 331.81818,363.35593 326.7677,366.8069 321.71716,365.93823 316.6667,365.72705 311.61615,368.95862 306.56567,365.87738 301.51514,356.87033 296.46466,368.64194 291.41412,371.3226 286.36365,373.54446 281.31314,373.53882 276.26263,377.25793 271.21213,375.0824 266.16162,375.13776 261.1111,378.8583 256.0606,375.39645 251.0101,379.72003 245.9596,379.69238 240.90909,378.35065 235.85858,378.65463 230.80807,380.05264 225.75757,379.78598 220.70706,381.05157 215.65657,377.098 210.60606,377.83798 205.55556,379.03537 200.50505,380.5434 195.45454,380.60892 190.40404,383.52194 185.35353,384.81357 180.30302,386.8776 175.25253,388.79962 170.20203,391.258 165.15152,393.463 160.10101,395.52426 155.0505,398.10037 150,399.999 " stroke="black"/>
<text alignment-baseline="middle" class="poloto_text" font-size="large" text-anchor="start" x="675" y="250">
direct_seq
</text>
<line class="poloto3stroke" x1="680" x2="730" y1="231.25" y2="231.25"/>
<polyline class="poloto3stroke" fill="none" points="650,133.1235 644.94946,149.28607 639.899,151.37978 634.8485,153.50937 629.798,157.70303 624.7475,126.49545 619.697,162.4303 614.6465,155.10356 609.59595,161.32268 604.5455,170.90852 599.495,173.34192 594.44446,175.6154 589.3939,179.41862 584.34344,144.59213 579.29297,179.6509 574.24243,179.57579 569.1919,188.29807 564.1414,193.21779 559.09094,195.31369 554.0404,196.93752 548.98987,196.93349 543.9394,202.80087 538.8889,198.76526 533.8384,206.71597 528.78784,210.82835 523.73737,212.9552 518.6869,215.92104 513.63635,217.90224 508.58588,219.89337 503.53537,222.8843 498.48486,224.50171 493.43436,226.31819 488.38385,228.267 483.33334,228.1349 478.28284,230.71658 473.23233,233.96729 468.18182,236.66168 463.13132,239.27579 458.0808,241.1927 453.0303,242.45644 447.9798,245.00516 442.9293,247.6206 437.87878,251.25136 432.82828,251.80692 427.77777,253.31358 422.72726,261.47937 417.67676,264.26895 412.62628,266.6882 407.57578,269.9965 402.52527,272.03543 397.47473,274.47003 392.42426,277.25128 387.37375,280.10202 382.32324,283.01715 377.27274,285.06073 372.22223,288.1096 367.17172,290.726 362.12122,290.958 357.0707,294.37543 352.0202,296.58215 346.9697,299.34024 341.9192,301.5281 336.86868,303.69568 331.81818,306.526 326.7677,308.79465 321.71716,313.3552 316.6667,316.17865 311.61615,319.04324 306.56567,321.46295 301.51514,319.9494 296.46466,326.4686 291.41412,329.23712 286.36365,334.16174 281.31314,336.6283 276.26263,339.58878 271.21213,341.6198 266.16162,343.59137 261.1111,346.3442 256.0606,348.97375 251.0101,351.48328 245.9596,353.73294 240.90909,356.2758 235.85858,358.4842 230.80807,361.3002 225.75757,363.9078 220.70706,365.6008 215.65657,369.02692 210.60606,371.02368 205.55556,373.65863 200.50505,376.0595 195.45454,378.51974 190.40404,380.89462 185.35353,383.3161 180.30302,386.10022 175.25253,388.5174 170.20203,390.90085 165.15152,393.3922 160.10101,395.37845 155.0505,398.01694 150,399.9988 " stroke="black"/>
<text alignment-baseline="middle" class="poloto_text" font-size="large" text-anchor="start" x="675" y="300">
indirect_par
</text>
<line class="poloto4stroke" x1="680" x2="730" y1="281.25" y2="281.25"/>
<polyline class="poloto4stroke" fill="none" points="650,304.40033 644.94946,305.7948 639.899,303.1175 634.8485,308.7178 629.798,311.3793 624.7475,311.85843 619.697,311.43906 614.6465,307.31308 609.59595,283.29254 604.5455,314.07062 599.495,317.52222 594.44446,317.22946 589.3939,316.3849 584.34344,277.82626 579.29297,289.08698 574.24243,319.85126 569.1919,322.5088 564.1414,321.25607 559.09094,321.2239 554.0404,324.90222 548.98987,323.79813 543.9394,326.48584 538.8889,324.68295 533.8384,324.0776 528.78784,326.61084 523.73737,327.3058 518.6869,328.41437 513.63635,329.20288 508.58588,331.6333 503.53537,328.24548 498.48486,331.39084 493.43436,332.27203 488.38385,332.22528 483.33334,332.9662 478.28284,322.0974 473.23233,335.62244 468.18182,335.50397 463.13132,335.37842 458.0808,335.20688 453.0303,339.2645 447.9798,325.65155 442.9293,340.94724 437.87878,337.3197 432.82828,340.34766 427.77777,340.66318 422.72726,341.60736 417.67676,345.8297 412.62628,345.41498 407.57578,344.61237 402.52527,345.24683 397.47473,324.4613 392.42426,349.92664 387.37375,349.1804 382.32324,349.18652 377.27274,353.35022 372.22223,354.65475 367.17172,355.37726 362.12122,356.21478 357.0707,354.84528 352.0202,357.12894 346.9697,356.90308 341.9192,359.12726 336.86868,359.6355 331.81818,360.27472 326.7677,359.5546 321.71716,363.26373 316.6667,360.4994 311.61615,361.43256 306.56567,363.00494 301.51514,351.95935 296.46466,366.83658 291.41412,365.22607 286.36365,368.93524 281.31314,369.7685 276.26263,372.1928 271.21213,370.7265 266.16162,371.96558 261.1111,373.28644 256.0606,375.84546 251.0101,375.42105 245.9596,375.98804 240.90909,378.83893 235.85858,375.26645 230.80807,379.21393 225.75757,381.1677 220.70706,380.54987 215.65657,374.6773 210.60606,375.9114 205.55556,377.35715 200.50505,379.0235 195.45454,380.69037 190.40404,381.93774 185.35353,383.6854 180.30302,384.8111 175.25253,387.28406 170.20203,390.11517 165.15152,393.06412 160.10101,395.18454 155.0505,397.86356 150,399.99896 " stroke="black"/>
<text alignment-baseline="middle" class="poloto_text" font-size="large" text-anchor="start" x="675" y="350">
indirect_seq
</text>
<line class="poloto5stroke" x1="680" x2="730" y1="331.25" y2="331.25"/>
<polyline class="poloto5stroke" fill="none" points="650,100 644.94946,122.63037 639.899,120.47339 634.8485,127.07489 629.798,130.43259 624.7475,130.48828 619.697,137.77332 614.6465,121.18857 609.59595,140.42377 604.5455,144.55492 599.495,150.9699 594.44446,150.18611 589.3939,155.24321 584.34344,149.89833 579.29297,154.15332 574.24243,162.6372 569.1919,165.22786 564.1414,169.58672 559.09094,173.62746 554.0404,175.70291 548.98987,177.8406 543.9394,180.3932 538.8889,183.21658 533.8384,185.98206 528.78784,189.87103 523.73737,193.0369 518.6869,195.56377 513.63635,197.8634 508.58588,200.95982 503.53537,203.69571 498.48486,205.40218 493.43436,207.70953 488.38385,210.58508 483.33334,210.62766 478.28284,213.57924 473.23233,216.95866 468.18182,219.97482 463.13132,222.91408 458.0808,224.28394 453.0303,227.0775 447.9798,228.56918 442.9293,232.71143 437.87878,235.94493 432.82828,238.0064 427.77777,241.80865 422.72726,250.0906 417.67676,250.6205 412.62628,254.18033 407.57578,257.3292 402.52527,260.145 397.47473,262.65546 392.42426,267.61658 387.37375,268.71268 382.32324,271.95508 377.27274,274.91803 372.22223,278.03015 367.17172,281.11948 362.12122,283.16302 357.0707,285.06293 352.0202,287.50662 346.9697,290.43954 341.9192,293.34195 336.86868,295.84662 331.81818,298.26108 326.7677,301.05756 321.71716,305.39017 316.6667,308.30225 311.61615,311.63623 306.56567,314.04462 301.51514,317.35782 296.46466,319.81018 291.41412,323.00027 286.36365,325.6449 281.31314,328.67776 276.26263,331.6832 271.21213,334.72488 266.16162,337.02444 261.1111,340.66702 256.0606,342.99023 251.0101,346.20166 245.9596,349.11697 240.90909,351.37094 235.85858,354.1157 230.80807,357.14874 225.75757,360.27225 220.70706,361.81958 215.65657,366.16547 210.60606,368.24686 205.55556,371.13467 200.50505,373.8552 195.45454,376.84818 190.40404,379.28256 185.35353,381.78152 180.30302,384.82205 175.25253,387.35748 170.20203,390.14557 165.15152,393.00037 160.10101,395.08344 155.0505,397.82803 150,399.99902 " stroke="black"/>
<text alignment-baseline="start" class="poloto_text" font-size="x-large" text-anchor="middle" x="400" y="37.5">
Bench of query:256_bytes with abspiral(num,0.1)
</text>
<text alignment-baseline="start" class="poloto_text" font-size="large" text-anchor="middle" x="400" y="481.25">
Number of Elements
</text>
<text alignment-baseline="start" class="poloto_text" font-size="large" text-anchor="middle" transform="rotate(-90,37.5,250)" x="37.5" y="250">
Time in Seconds
</text>
<path class="poloto_axis_lines" d="M150,100 L150,400 L650,400" stroke="black"/>
</svg>