<svg class="poloto" width="800" height="500" viewBox="0 0 800 500" xmlns="http://www.w3.org/2000/svg" ><style><style>.poloto {
            font-family: "Arial";
            stroke-width:2;
            }
            .poloto_text{fill: var(--poloto_fg_color,black);  }
            .poloto_axis_lines{stroke: var(--poloto_fg_color,black);stoke-width:3;fill:none}
            .poloto_background{fill: var(--poloto_bg_color,aliceblue); }
            .poloto0stroke{stroke:  var(--poloto_color0,blue); }
            .poloto1stroke{stroke:  var(--poloto_color1,red); }
            .poloto2stroke{stroke:  var(--poloto_color2,green); }
            .poloto3stroke{stroke:  var(--poloto_color3,gold); }
            .poloto4stroke{stroke:  var(--poloto_color4,aqua); }
            .poloto5stroke{stroke:  var(--poloto_color5,brown); }
            .poloto6stroke{stroke:  var(--poloto_color6,lime); }
            .poloto7stroke{stroke:  var(--poloto_color7,chocolate); }
            .poloto0fill{fill:var(--poloto_color0,blue);}
            .poloto1fill{fill:var(--poloto_color1,red);}
            .poloto2fill{fill:var(--poloto_color2,green);}
            .poloto3fill{fill:var(--poloto_color3,gold);}
            .poloto4fill{fill:var(--poloto_color4,aqua);}
            .poloto5fill{fill:var(--poloto_color5,brown);}
            .poloto6fill{fill:var(--poloto_color6,lime);}
            .poloto7fill{fill:var(--poloto_color7,chocolate);}</style></style><rect class="poloto_background" fill="white" x="0" y="0" width="800" height="500" /><line class="poloto_axis_lines" stroke="black" x1="150" x2="150" y1="400" y2="405" /><text class="poloto_text" alignment-baseline="start" text-anchor="middle" x="150" y="430" >0</text><line class="poloto_axis_lines" stroke="black" x1="234.17508417508418" x2="234.17508417508418" y1="400" y2="405" /><text class="poloto_text" alignment-baseline="start" text-anchor="middle" x="234.17508417508418" y="430" >5000</text><line class="poloto_axis_lines" stroke="black" x1="318.35016835016836" x2="318.35016835016836" y1="400" y2="405" /><text class="poloto_text" alignment-baseline="start" text-anchor="middle" x="318.35016835016836" y="430" >10000</text><line class="poloto_axis_lines" stroke="black" x1="402.52525252525254" x2="402.52525252525254" y1="400" y2="405" /><text class="poloto_text" alignment-baseline="start" text-anchor="middle" x="402.52525252525254" y="430" >15000</text><line class="poloto_axis_lines" stroke="black" x1="486.7003367003367" x2="486.7003367003367" y1="400" y2="405" /><text class="poloto_text" alignment-baseline="start" text-anchor="middle" x="486.7003367003367" y="430" >20000</text><line class="poloto_axis_lines" stroke="black" x1="570.8754208754208" x2="570.8754208754208" y1="400" y2="405" /><text class="poloto_text" alignment-baseline="start" text-anchor="middle" x="570.8754208754208" y="430" >25000</text><line class="poloto_axis_lines" stroke="black" x1="150" x2="144" y1="344.90243842770406" y2="344.90243842770406" /><text class="poloto_text" alignment-baseline="middle" text-anchor="end" x="135" y="344.90243842770406" >0.005</text><line class="poloto_axis_lines" stroke="black" x1="150" x2="144" y1="289.8030365353849" y2="289.8030365353849" /><text class="poloto_text" alignment-baseline="middle" text-anchor="end" x="135" y="289.8030365353849" >0.010</text><line class="poloto_axis_lines" stroke="black" x1="150" x2="144" y1="234.7036346430657" y2="234.7036346430657" /><text class="poloto_text" alignment-baseline="middle" text-anchor="end" x="135" y="234.7036346430657" >0.015</text><line class="poloto_axis_lines" stroke="black" x1="150" x2="144" y1="179.60423275074652" y2="179.60423275074652" /><text class="poloto_text" alignment-baseline="middle" text-anchor="end" x="135" y="179.60423275074652" >0.020</text><line class="poloto_axis_lines" stroke="black" x1="150" x2="144" y1="124.5048308584274" y2="124.5048308584274" /><text class="poloto_text" alignment-baseline="middle" text-anchor="end" x="135" y="124.5048308584274" >0.025</text><text class="poloto_text" alignment-baseline="middle" text-anchor="start" font-size="large" x="675" y="100" >default_par</text><line class="poloto0stroke" stroke="black" x1="680" x2="730" y1="81.25" y2="81.25" /><polyline class="poloto0stroke" fill="none" stroke="black"  points="650,370.2647371982601 644.9494949494949,386.20258081190514 639.8989898989898,375.58014343917097 634.8484848484848,364.0946510749563 629.7979797979798,375.61509849973146 624.7474747474747,376.34236652518854 619.6969696969697,382.96763982740515 614.6464646464647,381.9476176598138 609.5959595959596,374.82426780425135 604.5454545454545,381.1150326375797 599.4949494949494,382.1656570129821 594.4444444444445,375.3688813124354 589.3939393939394,382.53603519250225 584.3434343434344,385.44044588493057 579.2929292929293,369.776843014384 574.2424242424242,346.7076931915432 569.1919191919192,377.8820091122656 564.1414141414141,384.0634897918807 559.090909090909,380.2551072921267 554.040404040404,389.12226505853795 548.989898989899,380.8831963941776 543.939393939394,376.42118070965535 538.8888888888889,384.6481826050013 533.8383838383838,368.00527602486176 528.7878787878788,378.20114484802593 523.7373737373737,382.1982868787827 518.6868686868687,337.0750063750008 513.6363636363636,378.96407320638775 508.5858585858586,386.3984040862304 503.5353535353535,384.19268686943786 498.4848484848485,386.46689264278257 493.4343434343434,390.41732140061504 488.3838383838384,365.18901335558076 483.3333333333333,390.6609709557829 478.2828282828283,386.82268050068166 473.2323232323232,382.8549725704157 468.1818181818182,389.65428284344944 463.1313131313131,388.07582823767945 458.0808080808081,382.87952486389895 453.030303030303,392.09560510273354 447.979797979798,389.2093331334082 442.9292929292929,389.16464751847354 437.8787878787879,388.99965786944716 432.8282828282828,389.01522896042195 427.77777777777777,392.04765760320686 422.72727272727275,391.7749706632418 417.67676767676767,380.5685898292528 412.62626262626264,388.5709404432034 407.57575757575756,381.60635400425355 402.52525252525254,369.977812572846 397.47474747474746,383.1687746840729 392.4242424242424,390.8835504996671 387.37373737373736,389.8334109990014 382.32323232323233,349.9637152072072 377.27272727272725,389.4132449999313 372.22222222222223,386.5424008631358 367.1717171717172,383.49054417124364 362.1212121212121,390.33560898760874 357.07070707070704,388.79069889771074 352.020202020202,394.0947656817122 346.969696969697,363.71676835689834 341.9191919191919,391.7484898906923 336.86868686868684,364.4182168026287 331.8181818181818,393.00150538912555 326.7676767676768,387.63794227096076 321.7171717171717,393.02049264301763 316.66666666666663,385.97043601185237 311.6161616161616,387.98013159647286 306.5656565656566,378.27517640440846 301.5151515151515,395.1610493071324 296.4646464646464,389.0686643603771 291.4141414141414,366.79676982327715 286.3636363636364,392.9243992861175 281.3131313131313,396.03022033222294 276.26262626262627,396.22849001999225 271.2121212121212,395.9186881229125 266.16161616161617,395.34588576072036 261.1111111111111,393.7195387548255 256.06060606060606,393.8158304695725 251.010101010101,391.76014892413275 245.95959595959596,397.12318308803935 240.9090909090909,353.3448018452863 235.85858585858585,395.2694959499368 230.8080808080808,394.25621794913707 225.75757575757575,396.1367935953631 220.7070707070707,393.67592206828755 215.65656565656565,384.4865650393707 210.6060606060606,395.67832249209744 205.55555555555554,397.06887711753427 200.50505050505052,396.62919491031397 195.45454545454544,391.8959358901562 190.40404040404042,396.607066990514 185.35353535353534,385.67178623371564 180.3030303030303,398.32852658395535 175.25252525252526,398.6172364299907 170.2020202020202,398.895664727633 165.15151515151516,399.2723132190885 160.1010101010101,399.47201549130705 155.05050505050505,399.7585323811471 150,399.9993828866988 "/><text class="poloto_text" alignment-baseline="middle" text-anchor="start" font-size="large" x="675" y="150" >default_seq</text><line class="poloto1stroke" stroke="black" x1="680" x2="730" y1="131.25" y2="131.25" /><polyline class="poloto1stroke" fill="none" stroke="black"  points="650,358.4086903364391 644.9494949494949,354.2892717130029 639.8989898989898,357.05051211955424 634.8484848484848,364.73868594391485 629.7979797979798,350.83458329387605 624.7474747474747,359.841318865161 619.6969696969697,365.625257360123 614.6464646464647,354.46196425841384 609.5959595959596,361.6550038374897 604.5454545454545,362.55518480596527 599.4949494949494,358.0975329940728 594.4444444444445,360.25309873526305 589.3939393939394,338.3560233894757 584.3434343434344,362.4308254558943 579.2929292929293,366.9938603838459 574.2424242424242,366.36740222409105 569.1919191919192,367.1657484779892 564.1414141414141,357.8148400027241 559.090909090909,358.677410119468 554.040404040404,367.7699023998581 548.989898989899,370.4401406342441 543.939393939394,368.5655267433028 538.8888888888889,362.68494389742165 533.8383838383838,366.1239179671289 528.7878787878788,369.9391217728372 523.7373737373737,355.0058724942537 518.6868686868687,364.4643901014145 513.6363636363636,369.4925962199019 508.5858585858586,359.1909806246259 503.5353535353535,370.2082933709616 498.4848484848485,368.1910271285211 493.4343434343434,374.0276075920511 488.3838383838384,363.6742977379198 483.3333333333333,374.55553700134215 478.2828282828283,372.62511843616437 473.2323232323232,367.56194623723616 468.1818181818182,371.0756461157897 463.1313131313131,374.3698409970847 458.0808080808081,360.45590861374825 453.030303030303,370.78962512056665 447.979797979798,374.61458152040996 442.9292929292929,374.5519445203388 437.8787878787879,369.1496795822848 432.8282828282828,378.0232509190764 427.77777777777777,377.54648681438255 422.72727272727275,380.33115548661846 417.67676767676767,372.29175603483543 412.62626262626264,375.7553815769493 407.57575757575756,369.154693627857 402.52525252525254,379.86163144333324 397.47474747474746,376.30960442082335 392.4242424242424,382.5064357938057 387.37373737373736,383.6437205085043 382.32323232323233,379.1254262948892 377.27272727272725,381.200469770154 372.22222222222223,384.1044286474867 367.1717171717172,380.02862671058847 362.1212121212121,385.16866257515653 357.07070707070704,384.090576657851 352.020202020202,385.1859527674703 346.969696969697,383.02184661898684 341.9191919191919,386.6242455147067 336.86868686868684,386.96795558371093 331.8181818181818,387.25491326876613 326.7676767676768,387.3609134981266 321.7171717171717,387.9376389377335 316.66666666666663,388.23871308955347 311.6161616161616,384.9771039945377 306.5656565656566,388.81690417325075 301.5151515151515,389.14536272781123 296.4646464646464,389.2781963658932 291.4141414141414,386.1415086348477 286.3636363636364,390.13633649072494 281.3131313131313,391.629739659734 276.26262626262627,391.7275961974948 271.2121212121212,392.2024318231224 266.16161616161617,388.77715546472564 261.1111111111111,392.78326767811046 256.06060606060606,392.90598506600503 251.010101010101,393.118338160898 245.95959595959596,393.71128486442205 240.9090909090909,393.84657593582847 235.85858585858585,394.226486311876 230.8080808080808,393.0757463232353 225.75757575757575,394.80657281499833 220.7070707070707,395.0391033108643 215.65656565656565,394.2248002701781 210.6060606060606,395.8289091574692 205.55555555555554,396.5173651642333 200.50505050505052,396.8530748000828 195.45454545454544,397.06294842189067 190.40404040404042,397.42151328964513 185.35353535353534,397.7608925456607 180.3030303030303,397.4125100473759 175.25252525252526,398.5333971800714 170.2020202020202,398.80390218372156 165.15151515151516,399.2118471354519 160.1010101010101,399.440509653305 155.05050505050505,399.7300790500099 150,400 "/><text class="poloto_text" alignment-baseline="middle" text-anchor="start" font-size="large" x="675" y="200" >direct_par</text><line class="poloto2stroke" stroke="black" x1="680" x2="730" y1="181.25" y2="181.25" /><polyline class="poloto2stroke" fill="none" stroke="black"  points="650,248.73430061925117 644.9494949494949,296.69123316355126 639.8989898989898,311.9261957470168 634.8484848484848,320.20356951557267 629.7979797979798,298.5477083313896 624.7474747474747,337.83157626238426 619.6969696969697,317.6412159100919 614.6464646464647,350.02907411773185 609.5959595959596,337.779507327596 604.5454545454545,343.77136892553887 599.4949494949494,360.21040771867683 594.4444444444445,363.9505000197256 589.3939393939394,226.64082896535882 584.3434343434344,317.0143940942845 579.2929292929293,288.86379009096765 574.2424242424242,303.3287826125095 569.1919191919192,348.8778492543545 564.1414141414141,359.7011900662684 559.090909090909,352.9799776854769 554.040404040404,334.5051812906234 548.989898989899,304.3010446185406 543.939393939394,314.80619740440676 538.8888888888889,319.4446854533098 533.8383838383838,341.6243986910439 528.7878787878788,295.4732498648412 523.7373737373737,289.64205812281625 518.6868686868687,359.51272807203594 513.6363636363636,309.32188945693514 508.5858585858586,367.0442432769363 503.5353535353535,367.5605797720692 498.4848484848485,319.7927153154224 493.4343434343434,346.64694059101674 488.3838383838384,324.5439808201186 483.3333333333333,337.436359272491 478.2828282828283,312.9186131142601 473.2323232323232,343.3798986949743 468.1818181818182,320.0421392879085 463.1313131313131,347.41804570061936 458.0808080808081,358.28699779741976 453.030303030303,374.0050168372752 447.979797979798,348.9165731140044 442.9292929292929,327.61835112762395 437.8787878787879,349.01465004937273 432.8282828282828,341.0122773956614 427.77777777777777,347.7309662238462 422.72727272727275,348.5066666235667 417.67676767676767,368.49980417672566 412.62626262626264,380.328929470782 407.57575757575756,326.11095271053426 402.52525252525254,274.5924940068381 397.47474747474746,355.53084857560333 392.4242424242424,369.72142403596064 387.37373737373736,374.61904457196323 382.32323232323233,366.41682638758846 377.27272727272725,378.0870560264677 372.22222222222223,378.1351027049178 367.1717171717172,369.19457457494667 362.1212121212121,363.37162570344486 357.07070707070704,378.7345070583436 352.020202020202,357.8985690538397 346.969696969697,384.1591754132069 341.9191919191919,374.7260365905577 336.86868686868684,328.5666118341908 331.8181818181818,380.88101445786265 326.7676767676768,377.4198463490732 321.7171717171717,378.5910171959356 316.66666666666663,384.9148196306386 311.6161616161616,386.6627379568686 306.5656565656566,387.697493704526 301.5151515151515,366.3584981607452 296.4646464646464,348.2394124846282 291.4141414141414,389.0322987551282 286.3636363636364,388.95340743149876 281.3131313131313,384.1708124068866 276.26262626262627,383.3790670613351 271.2121212121212,375.46050059790196 266.16161616161617,386.54180578959534 261.1111111111111,384.31261622759666 256.06060606060606,387.5328236320306 251.010101010101,388.3365475875535 245.95959595959596,383.14319754171447 240.9090909090909,392.45383937407667 235.85858585858585,390.37629438596605 230.8080808080808,389.87599181678377 225.75757575757575,390.73217040290814 220.7070707070707,391.43486409512127 215.65656565656565,394.0178248769098 210.6060606060606,392.4066963258176 205.55555555555554,392.9217214551855 200.50505050505052,393.9303270267048 195.45454545454544,394.2589178198298 190.40404040404042,390.45119651289843 185.35353535353534,395.1964231231472 180.3030303030303,395.8203026308936 175.25252525252526,396.4055684777938 170.2020202020202,397.36613839074334 165.15151515151516,398.28717999277535 160.1010101010101,394.2423879992621 155.05050505050505,399.4769854573577 150,399.9986225149527 "/><text class="poloto_text" alignment-baseline="middle" text-anchor="start" font-size="large" x="675" y="250" >direct_seq</text><line class="poloto3stroke" stroke="black" x1="680" x2="730" y1="231.25" y2="231.25" /><polyline class="poloto3stroke" fill="none" stroke="black"  points="650,210.09022490326933 644.9494949494949,100 639.8989898989898,210.3943295221934 634.8484848484848,237.20292147314058 629.7979797979798,248.69146634422006 624.7474747474747,229.69195834514605 619.6969696969697,261.37370669765556 614.6464646464647,219.5462299777038 609.5959595959596,216.25005151794076 604.5454545454545,243.13885717816277 599.4949494949494,248.4461417672347 594.4444444444445,204.83780829860171 589.3939393939394,224.13898552303618 584.3434343434344,238.12836000744358 579.2929292929293,260.4829697666643 574.2424242424242,265.25678194661486 569.1919191919192,265.42014065334524 564.1414141414141,254.6574312232736 559.090909090909,223.27736311600486 554.040404040404,291.2968474399679 548.989898989899,301.9142597472495 543.939393939394,264.2935893021352 538.8888888888889,269.85278835665883 533.8383838383838,247.84176744775826 528.7878787878788,314.7176526655658 523.7373737373737,253.79687774463898 518.6868686868687,253.64474829601428 513.6363636363636,321.45897632804804 508.5858585858586,231.27809380753985 503.5353535353535,275.51921084726496 498.4848484848485,276.4540383196504 493.4343434343434,281.53409297531846 488.3838383838384,288.31398621912535 483.3333333333333,318.6981987564726 478.2828282828283,285.07159579548954 473.2323232323232,289.55912250308796 468.1818181818182,306.50386360679363 463.1313131313131,299.2886079488748 458.0808080808081,293.98340611719436 453.030303030303,306.90723530816695 447.979797979798,337.4461118666259 442.9292929292929,330.4649294878261 437.8787878787879,298.8688166257376 432.8282828282828,324.4537720793405 427.77777777777777,302.97594808255184 422.72727272727275,346.62477961157566 417.67676767676767,335.81806779915286 412.62626262626264,349.3535664704124 407.57575757575756,301.1706051596696 402.52525252525254,338.79267512959194 397.47474747474746,242.59989686861283 392.4242424242424,310.8169125483598 387.37373737373736,336.5805443424191 382.32323232323233,346.28235886857567 377.27272727272725,337.59356888597017 372.22222222222223,315.683512121097 367.1717171717172,338.2078390580265 362.1212121212121,349.74325148035564 357.07070707070704,324.4298699587996 352.020202020202,346.92488401392234 346.969696969697,352.0461089426843 341.9191919191919,363.7250883665841 336.86868686868684,363.1702594292892 331.8181818181818,365.0840049154544 326.7676767676768,366.6520016547452 321.7171717171717,359.92276680103816 316.66666666666663,355.82253378934087 311.6161616161616,358.19470629925013 306.5656565656566,366.6939433194657 301.5151515151515,368.32035644464275 296.4646464646464,370.598507335163 291.4141414141414,372.33596779491387 286.3636363636364,376.5857516032273 281.3131313131313,373.4886913620227 276.26262626262627,371.64794156348444 271.2121212121212,378.3034423975792 266.16161616161617,380.11148519115415 261.1111111111111,380.66938867507463 256.06060606060606,381.9280132926205 251.010101010101,374.3854120880594 245.95959595959596,382.4766931366642 240.9090909090909,377.62506958136134 235.85858585858585,384.6304075379508 230.8080808080808,385.5673287876082 225.75757575757575,385.0673127353158 220.7070707070707,387.5661036707736 215.65656565656565,385.791759671396 210.6060606060606,390.42205994917776 205.55555555555554,390.83634133212576 200.50505050505052,392.1182729966721 195.45454545454544,392.2160854549113 190.40404040404042,392.16013752222983 185.35353535353534,394.4466194423162 180.3030303030303,395.31497499625874 175.25252525252526,396.3153597370157 170.2020202020202,397.0030553720337 165.15151515151516,398.09080572443116 160.1010101010101,398.6914332845789 155.05050505050505,399.38460580014504 150,399.99587856473846 "/><text class="poloto_text" alignment-baseline="middle" text-anchor="start" font-size="large" x="675" y="300" >indirect_par</text><line class="poloto4stroke" stroke="black" x1="680" x2="730" y1="281.25" y2="281.25" /><polyline class="poloto4stroke" fill="none" stroke="black"  points="650,327.02288087149327 644.9494949494949,373.2294817357605 639.8989898989898,366.93158703982726 634.8484848484848,378.74475554709556 629.7979797979798,366.90422467684755 624.7474747474747,382.6638327452513 619.6969696969697,363.34538736826374 614.6464646464647,382.12385860670656 609.5959595959596,363.0861446823604 604.5454545454545,369.7548473331485 599.4949494949494,366.28966798790134 594.4444444444445,374.81774403506734 589.3939393939394,302.92271104044346 584.3434343434344,354.69738196293895 579.2929292929293,382.4268502177124 574.2424242424242,376.3091746454886 569.1919191919192,324.8293406225189 564.1414141414141,335.4539268719269 559.090909090909,350.61794346551585 554.040404040404,370.5214783713175 548.989898989899,353.3279304084269 543.939393939394,350.0202582134291 538.8888888888889,277.03939232559367 533.8383838383838,357.7856262998408 528.7878787878788,382.5616674342626 523.7373737373737,378.8655444559239 518.6868686868687,358.84598122961734 513.6363636363636,364.9713707181061 508.5858585858586,366.072675523369 503.5353535353535,370.26095737929023 498.4848484848485,366.42491497978625 493.4343434343434,371.9034154502984 488.3838383838384,364.7468847349164 483.3333333333333,371.83589664321954 478.2828282828283,387.949882024834 473.2323232323232,379.9547604524116 468.1818181818182,377.60453954421627 463.1313131313131,378.00110095951567 458.0808080808081,365.6680475556326 453.030303030303,374.2455918458175 447.979797979798,380.1020631934306 442.9292929292929,374.5083388536812 437.8787878787879,383.6034538656014 432.8282828282828,376.17796092982223 427.77777777777777,379.8512176563756 422.72727272727275,381.7480476261598 417.67676767676767,351.68100928586546 412.62626262626264,382.0641859544572 407.57575757575756,368.6258165088534 402.52525252525254,348.9397479224403 397.47474747474746,385.2811424941795 392.4242424242424,383.14397995322133 387.37373737373736,374.73349704957394 382.32323232323233,391.903793064866 377.27272727272725,386.75544821049266 372.22222222222223,388.36651064230256 367.1717171717172,378.1412407782886 362.1212121212121,388.958917371688 357.07070707070704,390.89487893669616 352.020202020202,391.43162425029 346.969696969697,389.5845380205341 341.9191919191919,386.1925417008803 336.86868686868684,390.1406893434745 331.8181818181818,378.95752739744296 326.7676767676768,394.240812156368 321.7171717171717,394.36251571526776 316.66666666666663,393.33779907863516 311.6161616161616,394.45272445604587 306.5656565656566,375.5961773651216 301.5151515151515,393.4727044542283 296.4646464646464,374.1242850026114 291.4141414141414,392.89302568667995 286.3636363636364,394.70124479834095 281.3131313131313,395.7838158069605 276.26262626262627,389.9399291627396 271.2121212121212,393.0377718154511 266.16161616161617,357.216328259609 261.1111111111111,395.74162068499135 256.06060606060606,391.77356011855335 251.010101010101,394.62644185033196 245.95959595959596,395.9574891217251 240.9090909090909,392.0806070455385 235.85858585858585,365.4875859945549 230.8080808080808,395.3311301408936 225.75757575757575,395.8525908804025 220.7070707070707,393.8007662930952 215.65656565656565,396.21032925712854 210.6060606060606,372.51864435194767 205.55555555555554,393.8365698844448 200.50505050505052,354.1639095538175 195.45454545454544,396.3542929743928 190.40404040404042,387.5211094991883 185.35353535353534,396.4290518428803 180.3030303030303,397.8736589815735 175.25252525252526,398.25376771546786 170.2020202020202,398.9816528542262 165.15151515151516,399.35481906348207 160.1010101010101,399.4995982518943 155.05050505050505,399.7839221855391 150,399.9999449005981 "/><text class="poloto_text" alignment-baseline="middle" text-anchor="start" font-size="large" x="675" y="350" >indirect_seq</text><line class="poloto5stroke" stroke="black" x1="680" x2="730" y1="331.25" y2="331.25" /><polyline class="poloto5stroke" fill="none" stroke="black"  points="650,323.1997978513143 644.9494949494949,305.5124710884255 639.8989898989898,326.1881028930639 634.8484848484848,329.36069339438245 629.7979797979798,328.05835291137527 624.7474747474747,316.32004245151785 619.6969696969697,350.3663265368344 614.6464646464647,332.9446009308273 609.5959595959596,327.6018102871759 604.5454545454545,326.2799535960184 599.4949494949494,340.2272431572604 594.4444444444445,347.0421686007904 589.3939393939394,360.69314459853587 584.3434343434344,343.20826405807975 579.2929292929293,338.03772516462413 574.2424242424242,337.1828579442648 569.1919191919192,331.4331471977583 564.1414141414141,334.66444060185296 559.090909090909,335.7373251356198 554.040404040404,353.4906279223345 548.989898989899,354.1065731162084 543.939393939394,354.4605757534862 538.8888888888889,326.79575011701274 533.8383838383838,364.848521091647 528.7878787878788,353.30538373317256 523.7373737373737,368.19130262553057 518.6868686868687,368.220780805543 513.6363636363636,361.2901245782784 508.5858585858586,346.0414532636221 503.5353535353535,360.7047926120959 498.4848484848485,343.46136867061233 493.4343434343434,332.24292106760896 488.3838383838384,348.379199667229 483.3333333333333,354.85463565593966 478.2828282828283,371.7797503526913 473.2323232323232,345.8679342271828 468.1818181818182,354.8377972787213 463.1313131313131,352.7399867305947 458.0808080808081,361.1416096504178 453.030303030303,347.52127994000483 447.979797979798,364.62427754582563 442.9292929292929,345.9732181643186 437.8787878787879,353.1461464617038 432.8282828282828,365.4149209033393 427.77777777777777,368.78616678824045 422.72727272727275,357.7714547336741 417.67676767676767,362.5761886979666 412.62626262626264,371.61935599378273 407.57575757575756,373.261031653284 402.52525252525254,368.6871201033988 397.47474747474746,380.45067710920324 392.4242424242424,369.0122286143243 387.37373737373736,373.77781996351246 382.32323232323233,383.01175240856014 377.27272727272725,381.4400860491033 372.22222222222223,378.98227804877297 367.1717171717172,368.36278298409985 362.1212121212121,380.10677970223253 357.07070707070704,384.2564809569488 352.020202020202,382.19273285907195 346.969696969697,384.8645138767109 341.9191919191919,378.4199445729403 336.86868686868684,385.8868061396602 331.8181818181818,378.44234798974975 326.7676767676768,383.45381490994225 321.7171717171717,387.6127067448941 316.66666666666663,388.0820544700933 311.6161616161616,388.07227983619754 306.5656565656566,387.9848481052748 301.5151515151515,388.56384364023967 296.4646464646464,388.63708176523494 291.4141414141414,389.7066272752472 286.3636363636364,387.515015505339 281.3131313131313,390.99383746249475 276.26262626262627,390.5191010157905 271.2121212121212,389.6802567015015 266.16161616161617,390.0999598655957 261.1111111111111,390.7502981061307 256.06060606060606,393.17460567011045 251.010101010101,392.8345762411526 245.95959595959596,392.6581479562934 240.9090909090909,393.81774792875837 235.85858585858585,389.76388657369364 230.8080808080808,394.4506196588936 225.75757575757575,391.6872634353096 220.7070707070707,393.3924246256712 215.65656565656565,391.03129403590117 210.6060606060606,396.4001136370065 205.55555555555554,396.64542719411145 200.50505050505052,389.5317968730428 195.45454545454544,397.25429762478234 190.40404040404042,397.18394670844623 185.35353535353534,397.90672964258926 180.3030303030303,398.19253024020475 175.25252525252526,379.1717208123591 170.2020202020202,398.9044145126535 165.15151515151516,399.2947937750606 160.1010101010101,399.49294224414575 155.05050505050505,399.75419054827796 150,399.99929472765575 "/><text class="poloto_text" alignment-baseline="start" text-anchor="middle" font-size="x-large" x="400" y="37.5" >Bench of rebal:128_bytes with abspiral(num,1)</text><text class="poloto_text" alignment-baseline="start" text-anchor="middle" font-size="x-large" x="400" y="481.25" >Number of Elements</text><text class="poloto_text" alignment-baseline="start" text-anchor="middle" font-size="x-large" transform="rotate(-90,37.5,250)" x="37.5" y="250" >Time in Seconds</text><path stroke="black" fill="none" class="poloto_axis_lines"  d="M 150 100 L 150 400 L 650 400 "/></svg>