<svg class="poloto" height="500" viewBox="0 0 800 500" width="800" xmlns="http://www.w3.org/2000/svg">
<rect class="poloto_background" fill="white" height="500" width="800" x="0" y="0"/>
<style>
.poloto {
font-family: "Arial";
stroke-width:2;
}
.poloto_text{fill: var(--poloto_fg_color,black);  }
.poloto_axis_lines{stroke: var(--poloto_fg_color,black);stoke-width:3;fill:none}
.poloto_background{fill: var(--poloto_bg_color,aliceblue); }
.poloto0stroke{stroke:  var(--poloto_color0,blue); }
.poloto1stroke{stroke:  var(--poloto_color1,red); }
.poloto2stroke{stroke:  var(--poloto_color2,green); }
.poloto3stroke{stroke:  var(--poloto_color3,gold); }
.poloto4stroke{stroke:  var(--poloto_color4,aqua); }
.poloto5stroke{stroke:  var(--poloto_color5,brown); }
.poloto6stroke{stroke:  var(--poloto_color6,lime); }
.poloto7stroke{stroke:  var(--poloto_color7,chocolate); }
.poloto0fill{fill:var(--poloto_color0,blue);}
.poloto1fill{fill:var(--poloto_color1,red);}
.poloto2fill{fill:var(--poloto_color2,green);}
.poloto3fill{fill:var(--poloto_color3,gold);}
.poloto4fill{fill:var(--poloto_color4,aqua);}
.poloto5fill{fill:var(--poloto_color5,brown);}
.poloto6fill{fill:var(--poloto_color6,lime);}
.poloto7fill{fill:var(--poloto_color7,chocolate);}
</style>
<line class="poloto_axis_lines" stroke="black" x1="150" x2="150" y1="400" y2="405"/>
<text alignment-baseline="start" class="poloto_text" text-anchor="middle" x="150" y="440">
0
</text>
<line class="poloto_axis_lines" stroke="black" x1="234.17508" x2="234.17508" y1="400" y2="405"/>
<text alignment-baseline="start" class="poloto_text" text-anchor="middle" x="234.17508" y="440">
5000
</text>
<line class="poloto_axis_lines" stroke="black" x1="318.35016" x2="318.35016" y1="400" y2="405"/>
<text alignment-baseline="start" class="poloto_text" text-anchor="middle" x="318.35016" y="440">
10000
</text>
<line class="poloto_axis_lines" stroke="black" x1="402.52527" x2="402.52527" y1="400" y2="405"/>
<text alignment-baseline="start" class="poloto_text" text-anchor="middle" x="402.52527" y="440">
15000
</text>
<line class="poloto_axis_lines" stroke="black" x1="486.70035" x2="486.70035" y1="400" y2="405"/>
<text alignment-baseline="start" class="poloto_text" text-anchor="middle" x="486.70035" y="440">
20000
</text>
<line class="poloto_axis_lines" stroke="black" x1="570.8754" x2="570.8754" y1="400" y2="405"/>
<text alignment-baseline="start" class="poloto_text" text-anchor="middle" x="570.8754" y="440">
25000
</text>
<line class="poloto_axis_lines" stroke="black" x1="150" x2="144" y1="352.9974" y2="352.9974"/>
<text alignment-baseline="middle" class="poloto_text" text-anchor="end" x="120" y="352.9974">
0.002
</text>
<line class="poloto_axis_lines" stroke="black" x1="150" x2="144" y1="305.9912" y2="305.9912"/>
<text alignment-baseline="middle" class="poloto_text" text-anchor="end" x="120" y="305.9912">
0.004
</text>
<line class="poloto_axis_lines" stroke="black" x1="150" x2="144" y1="258.98505" y2="258.98505"/>
<text alignment-baseline="middle" class="poloto_text" text-anchor="end" x="120" y="258.98505">
0.006
</text>
<line class="poloto_axis_lines" stroke="black" x1="150" x2="144" y1="211.97885" y2="211.97885"/>
<text alignment-baseline="middle" class="poloto_text" text-anchor="end" x="120" y="211.97885">
0.008
</text>
<line class="poloto_axis_lines" stroke="black" x1="150" x2="144" y1="164.97266" y2="164.97266"/>
<text alignment-baseline="middle" class="poloto_text" text-anchor="end" x="120" y="164.97266">
0.010
</text>
<line class="poloto_axis_lines" stroke="black" x1="150" x2="144" y1="117.96646" y2="117.96646"/>
<text alignment-baseline="middle" class="poloto_text" text-anchor="end" x="120" y="117.96646">
0.012
</text>
<text alignment-baseline="middle" class="poloto_text" font-size="large" text-anchor="start" x="675" y="100">
default_par
</text>
<line class="poloto0stroke" x1="680" x2="730" y1="81.25" y2="81.25"/>
<polyline class="poloto0stroke" fill="none" points="650,370.50104 644.94946,373.30637 639.899,370.30154 634.8485,372.63538 629.798,364.6988 624.7475,370.53665 619.697,371.79828 614.6465,374.3327 609.59595,372.47952 604.5455,373.44504 599.495,371.59915 594.44446,374.09866 589.3939,372.5492 584.34344,374.50256 579.29297,375.90408 574.24243,373.89093 569.1919,375.98013 564.1414,375.35117 559.09094,373.21558 554.0404,376.80557 548.98987,377.11176 543.9394,374.821 538.8889,374.4378 533.8384,376.31097 528.78784,365.57306 523.73737,375.23956 518.6869,378.4779 513.63635,376.58658 508.58588,378.65274 503.53537,380.0946 498.48486,380.57593 493.43436,378.59567 488.38385,380.77112 483.33334,379.25266 478.28284,381.84882 473.23233,381.10983 468.18182,381.92184 463.13132,380.9712 458.0808,382.15167 453.0303,381.76013 447.9798,380.60696 442.9293,379.76904 437.87878,382.4665 432.82828,380.96173 427.77777,381.99243 422.72726,384.01462 417.67676,384.59247 412.62628,381.11203 407.57578,383.45242 402.52527,383.10263 397.47473,381.30133 392.42426,385.03867 387.37375,386.7859 382.32324,383.40338 377.27274,385.18307 372.22223,384.62643 367.17172,382.90494 362.12122,388.15286 357.0707,385.2415 352.0202,386.99966 346.9697,386.27997 341.9192,386.6859 336.86868,386.0733 331.81818,387.71887 326.7677,387.7896 321.71716,387.93768 316.6667,387.2552 311.61615,389.1497 306.56567,386.70496 301.51514,388.36322 296.46466,388.57587 291.41412,388.10025 286.36365,391.17575 281.31314,391.6058 276.26263,390.98856 271.21213,391.84787 266.16162,388.84436 261.1111,392.21515 256.0606,390.57162 251.0101,392.09164 245.9596,391.63565 240.90909,392.75583 235.85858,392.09174 230.80807,390.83118 225.75757,392.38644 220.70706,392.04932 215.65657,393.2136 210.60606,390.9698 205.55556,392.5471 200.50505,392.05356 195.45454,391.86102 190.40404,393.3188 185.35353,395.0161 180.30302,396.5636 175.25253,397.09277 170.20203,397.57104 165.15152,398.43417 160.10101,398.89835 155.0505,399.50943 150,399.9997 " stroke="black"/>
<text alignment-baseline="middle" class="poloto_text" font-size="large" text-anchor="start" x="675" y="150">
default_seq
</text>
<line class="poloto1stroke" x1="680" x2="730" y1="131.25" y2="131.25"/>
<polyline class="poloto1stroke" fill="none" points="650,326.16998 644.94946,327.04865 639.899,327.3686 634.8485,327.0821 629.798,327.4038 624.7475,329.00732 619.697,330.4503 614.6465,331.70724 609.59595,331.34308 604.5455,332.37482 599.495,334.0042 594.44446,333.1484 589.3939,335.36914 584.34344,335.16998 579.29297,336.7639 574.24243,336.41632 569.1919,336.1827 564.1414,337.22687 559.09094,339.036 554.0404,338.62094 548.98987,340.4831 543.9394,341.24402 538.8889,341.77383 533.8384,342.6734 528.78784,342.86572 523.73737,344.31995 518.6869,344.584 513.63635,346.0479 508.58588,345.56378 503.53537,346.6691 498.48486,347.5888 493.43436,347.75534 488.38385,349.14743 483.33334,350.37088 478.28284,350.25293 473.23233,351.9095 468.18182,352.46646 463.13132,353.102 458.0808,353.40424 453.0303,354.00558 447.9798,354.74823 442.9293,355.83716 437.87878,356.1857 432.82828,357.31195 427.77777,357.71124 422.72726,362.64063 417.67676,362.46185 412.62628,363.9802 407.57578,363.58908 402.52527,364.7275 397.47473,364.89993 392.42426,365.64758 387.37375,367.10785 382.32324,367.82397 377.27274,368.22668 372.22223,368.56964 367.17172,369.97745 362.12122,370.68124 357.0707,370.58997 352.0202,371.43845 346.9697,372.2955 341.9192,372.54492 336.86868,373.83987 331.81818,373.7039 326.7677,374.72763 321.71716,375.10715 316.6667,376.00363 311.61615,377.44644 306.56567,377.75806 301.51514,378.23404 296.46466,378.9879 291.41412,379.76382 286.36365,382.2422 281.31314,382.89688 276.26263,383.55814 271.21213,384.01642 266.16162,384.65842 261.1111,385.041 256.0606,385.92484 251.0101,386.47253 245.9596,387.24524 240.90909,388.02808 235.85858,388.41913 230.80807,389.30298 225.75757,389.79916 220.70706,390.3689 215.65657,391.75055 210.60606,392.5309 205.55556,393.06793 200.50505,393.64066 195.45454,394.23105 190.40404,394.75974 185.35353,395.21878 180.30302,396.393 175.25253,396.90274 170.20203,397.44067 165.15152,398.31516 160.10101,398.8171 155.0505,399.44376 150,400 " stroke="black"/>
<text alignment-baseline="middle" class="poloto_text" font-size="large" text-anchor="start" x="675" y="200">
direct_par
</text>
<line class="poloto2stroke" x1="680" x2="730" y1="181.25" y2="181.25"/>
<polyline class="poloto2stroke" fill="none" points="650,368.96548 644.94946,369.42352 639.899,370.30646 634.8485,370.15985 629.798,100 624.7475,355.46738 619.697,368.20856 614.6465,372.6682 609.59595,373.86243 604.5455,373.82593 599.495,370.06525 594.44446,372.50568 589.3939,372.86304 584.34344,373.34476 579.29297,374.34854 574.24243,373.58868 569.1919,375.1625 564.1414,375.20648 559.09094,373.35907 554.0404,376.93008 548.98987,373.7313 543.9394,374.49216 538.8889,375.56335 533.8384,370.25787 528.78784,365.85812 523.73737,372.64258 518.6869,378.54837 513.63635,377.36694 508.58588,376.1751 503.53537,380.24902 498.48486,380.15485 493.43436,378.84085 488.38385,379.76593 483.33334,380.14197 478.28284,381.4505 473.23233,378.4961 468.18182,383.26273 463.13132,382.9199 458.0808,382.63104 453.0303,382.1061 447.9798,382.26617 442.9293,383.07892 437.87878,382.5075 432.82828,384.8519 427.77777,384.6449 422.72726,386.0878 417.67676,384.45135 412.62628,383.13797 407.57578,383.3936 402.52527,383.90656 397.47473,386.03986 392.42426,382.77 387.37375,385.27 382.32324,385.08493 377.27274,384.43713 372.22223,385.731 367.17172,385.0706 362.12122,385.97156 357.0707,386.4387 352.0202,386.1025 346.9697,386.96103 341.9192,387.51657 336.86868,387.39023 331.81818,387.51047 326.7677,387.22693 321.71716,387.66565 316.6667,389.6185 311.61615,389.15 306.56567,389.69666 301.51514,385.75598 296.46466,390.21304 291.41412,388.50842 286.36365,389.98376 281.31314,389.97876 276.26263,391.78284 271.21213,389.4038 266.16162,391.10138 261.1111,390.26492 256.0606,390.81268 251.0101,391.58975 245.9596,390.0931 240.90909,392.0799 235.85858,393.4261 230.80807,394.1194 225.75757,389.9533 220.70706,392.78772 215.65657,391.65216 210.60606,389.2546 205.55556,391.04742 200.50505,392.6291 195.45454,393.13068 190.40404,392.01785 185.35353,394.04437 180.30302,396.04672 175.25253,397.14386 170.20203,397.59045 165.15152,398.42682 160.10101,398.88107 155.0505,399.50595 150,399.99728 " stroke="black"/>
<text alignment-baseline="middle" class="poloto_text" font-size="large" text-anchor="start" x="675" y="250">
direct_seq
</text>
<line class="poloto3stroke" x1="680" x2="730" y1="231.25" y2="231.25"/>
<polyline class="poloto3stroke" fill="none" points="650,325.73444 644.94946,326.39246 639.899,326.9759 634.8485,326.71082 629.798,327.20193 624.7475,328.6939 619.697,330.35797 614.6465,331.4494 609.59595,331.1194 604.5455,331.79556 599.495,333.7547 594.44446,332.94058 589.3939,335.0202 584.34344,334.88086 579.29297,336.073 574.24243,336.01544 569.1919,335.49088 564.1414,337.30963 559.09094,338.4998 554.0404,338.34973 548.98987,340.24448 543.9394,340.86603 538.8889,341.82373 533.8384,342.1744 528.78784,342.9715 523.73737,344.39688 518.6869,344.6595 513.63635,346.12613 508.58588,345.47046 503.53537,346.4302 498.48486,347.5122 493.43436,347.5815 488.38385,349.0892 483.33334,350.1764 478.28284,350.12997 473.23233,351.74197 468.18182,352.76797 463.13132,352.90112 458.0808,353.26318 453.0303,354.40088 447.9798,354.92816 442.9293,355.77692 437.87878,356.23184 432.82828,356.86966 427.77777,357.91003 422.72726,362.395 417.67676,362.0564 412.62628,363.7563 407.57578,363.42224 402.52527,365.11844 397.47473,365.1387 392.42426,365.2681 387.37375,367.15527 382.32324,367.7454 377.27274,368.19208 372.22223,368.67352 367.17172,370.0177 362.12122,370.44128 357.0707,370.64163 352.0202,371.54092 346.9697,372.4877 341.9192,372.61435 336.86868,373.91513 331.81818,373.96118 326.7677,374.7761 321.71716,375.42072 316.6667,376.08084 311.61615,377.32727 306.56567,377.77902 301.51514,378.1826 296.46466,379.15314 291.41412,379.8625 286.36365,382.31332 281.31314,382.90558 276.26263,383.6143 271.21213,384.0283 266.16162,384.7146 261.1111,385.11987 256.0606,385.9555 251.0101,386.54642 245.9596,387.27917 240.90909,388.1237 235.85858,388.5311 230.80807,389.3624 225.75757,389.93066 220.70706,390.4472 215.65657,391.67963 210.60606,392.5995 205.55556,393.13153 200.50505,393.71973 195.45454,394.30847 190.40404,394.75684 185.35353,395.30338 180.30302,396.37204 175.25253,396.92673 170.20203,397.49176 165.15152,398.23004 160.10101,398.82367 155.0505,399.4294 150,399.997 " stroke="black"/>
<text alignment-baseline="middle" class="poloto_text" font-size="large" text-anchor="start" x="675" y="300">
indirect_par
</text>
<line class="poloto4stroke" x1="680" x2="730" y1="281.25" y2="281.25"/>
<polyline class="poloto4stroke" fill="none" points="650,369.81512 644.94946,373.2151 639.899,370.11032 634.8485,373.08286 629.798,364.6185 624.7475,363.9654 619.697,373.93655 614.6465,374.86435 609.59595,373.33902 604.5455,373.63705 599.495,376.31848 594.44446,372.9846 589.3939,375.7518 584.34344,374.29102 579.29297,374.3779 574.24243,372.61993 569.1919,376.4322 564.1414,375.87308 559.09094,376.1391 554.0404,377.7779 548.98987,375.1794 543.9394,375.66058 538.8889,377.51505 533.8384,379.4033 528.78784,374.66043 523.73737,375.854 518.6869,379.57925 513.63635,379.37442 508.58588,379.2582 503.53537,376.27997 498.48486,377.3631 493.43436,380.13928 488.38385,380.63086 483.33334,379.6394 478.28284,380.0779 473.23233,378.27054 468.18182,378.7018 463.13132,382.4937 458.0808,383.10498 453.0303,382.72424 447.9798,382.90036 442.9293,381.7629 437.87878,382.98584 432.82828,385.1109 427.77777,384.08984 422.72726,386.40982 417.67676,385.32648 412.62628,384.458 407.57578,382.88217 402.52527,384.6732 397.47473,386.92532 392.42426,380.2939 387.37375,382.90295 382.32324,386.01257 377.27274,385.251 372.22223,386.0504 367.17172,388.21997 362.12122,388.519 357.0707,386.61566 352.0202,388.07745 346.9697,386.81155 341.9192,387.50732 336.86868,387.11917 331.81818,388.60233 326.7677,388.40265 321.71716,388.37677 316.6667,389.2375 311.61615,388.61102 306.56567,390.17612 301.51514,391.04816 296.46466,389.62466 291.41412,388.8524 286.36365,391.44766 281.31314,389.38626 276.26263,392.2405 271.21213,392.3205 266.16162,391.47882 261.1111,391.09048 256.0606,392.3431 251.0101,391.93723 245.9596,392.00955 240.90909,392.99197 235.85858,393.60278 230.80807,393.18326 225.75757,391.65045 220.70706,393.0964 215.65657,380.93423 210.60606,391.15555 205.55556,391.93668 200.50505,390.7874 195.45454,393.10803 190.40404,396.2493 185.35353,395.1608 180.30302,396.95422 175.25253,397.44952 170.20203,397.86447 165.15152,398.21964 160.10101,399.03976 155.0505,399.56732 150,399.9957 " stroke="black"/>
<text alignment-baseline="middle" class="poloto_text" font-size="large" text-anchor="start" x="675" y="350">
indirect_seq
</text>
<line class="poloto5stroke" x1="680" x2="730" y1="331.25" y2="331.25"/>
<polyline class="poloto5stroke" fill="none" points="650,328.66364 644.94946,330.08878 639.899,330.51044 634.8485,330.02832 629.798,330.95966 624.7475,330.21667 619.697,333.5646 614.6465,334.50607 609.59595,333.39218 604.5455,335.10532 599.495,337.41714 594.44446,336.1001 589.3939,338.6477 584.34344,338.20853 579.29297,338.6553 574.24243,338.3909 569.1919,338.4443 564.1414,339.4888 559.09094,340.75363 554.0404,340.2776 548.98987,342.59384 543.9394,343.41125 538.8889,344.00784 533.8384,344.84106 528.78784,345.9313 523.73737,346.2319 518.6869,347.16238 513.63635,348.8805 508.58588,347.89224 503.53537,349.6635 498.48486,349.70215 493.43436,350.06308 488.38385,351.74915 483.33334,352.61322 478.28284,351.9064 473.23233,354.1147 468.18182,355.6709 463.13132,354.95798 458.0808,355.49493 453.0303,357.14572 447.9798,356.97015 442.9293,358.11133 437.87878,358.8233 432.82828,359.66525 427.77777,360.14603 422.72726,364.41595 417.67676,364.1164 412.62628,366.37085 407.57578,365.65778 402.52527,367.0704 397.47473,366.90735 392.42426,367.27313 387.37375,368.84235 382.32324,369.66382 377.27274,370.05792 372.22223,370.63885 367.17172,371.96417 362.12122,372.7502 357.0707,372.63354 352.0202,373.55826 346.9697,374.31134 341.9192,374.60822 336.86868,375.93933 331.81818,375.86627 326.7677,376.6126 321.71716,376.85037 316.6667,377.71988 311.61615,379.2157 306.56567,378.37943 301.51514,379.70605 296.46466,380.60974 291.41412,381.37338 286.36365,383.66595 281.31314,384.32425 276.26263,384.71664 271.21213,385.31274 266.16162,385.9362 261.1111,386.2167 256.0606,387.2184 251.0101,387.854 245.9596,388.44183 240.90909,389.19562 235.85858,389.59717 230.80807,390.3242 225.75757,390.82144 220.70706,391.35324 215.65657,392.60635 210.60606,393.28802 205.55556,393.78784 200.50505,393.61743 195.45454,394.80936 190.40404,395.24896 185.35353,395.7065 180.30302,396.7256 175.25253,397.23807 170.20203,397.7308 165.15152,398.4697 160.10101,398.9406 155.0505,399.49542 150,399.99963 " stroke="black"/>
<text alignment-baseline="start" class="poloto_text" font-size="x-large" text-anchor="middle" x="400" y="37.5">
Bench of rebal:8_bytes with abspiral(num,0.1)
</text>
<text alignment-baseline="start" class="poloto_text" font-size="large" text-anchor="middle" x="400" y="481.25">
Number of Elements
</text>
<text alignment-baseline="start" class="poloto_text" font-size="large" text-anchor="middle" transform="rotate(-90,37.5,250)" x="37.5" y="250">
Time in Seconds
</text>
<path class="poloto_axis_lines" d="M150,100 L150,400 L650,400" stroke="black"/>
</svg>