<svg class="poloto" width="800" height="500" viewBox="0 0 800 500" xmlns="http://www.w3.org/2000/svg"><circle  r="1e5" class="poloto_background" /><text  class="poloto_text poloto_legend_text" x="675" y="100" >default_seq</text><line  class="poloto_scatter poloto_legend_icon poloto0stroke poloto0legend" stroke="black" x1="685" x2="685" y1="81.25" y2="81.25" /><path  class="poloto_scatter poloto0stroke" d=" M 650.00 240.03 h 0 M 644.95 240.21 h 0 M 639.90 239.15 h 0 M 634.85 243.16 h 0 M 629.80 246.37 h 0 M 624.75 248.07 h 0 M 619.70 248.14 h 0 M 614.65 250.17 h 0 M 609.60 253.43 h 0 M 604.55 245.88 h 0 M 599.49 256.69 h 0 M 594.44 257.72 h 0 M 589.39 261.79 h 0 M 584.34 259.50 h 0 M 579.29 262.24 h 0 M 574.24 260.83 h 0 M 569.19 267.73 h 0 M 564.14 265.99 h 0 M 559.09 272.75 h 0 M 554.04 273.31 h 0 M 548.99 274.39 h 0 M 543.94 275.23 h 0 M 538.89 277.54 h 0 M 533.84 278.91 h 0 M 528.79 280.67 h 0 M 523.74 282.49 h 0 M 518.69 283.11 h 0 M 513.64 280.45 h 0 M 508.59 286.79 h 0 M 503.54 286.60 h 0 M 498.48 290.21 h 0 M 493.43 292.73 h 0 M 488.38 294.41 h 0 M 483.33 293.95 h 0 M 478.28 296.75 h 0 M 473.23 300.33 h 0 M 468.18 298.37 h 0 M 463.13 301.85 h 0 M 458.08 301.16 h 0 M 453.03 304.11 h 0 M 447.98 307.59 h 0 M 442.93 309.01 h 0 M 437.88 309.60 h 0 M 432.83 310.37 h 0 M 427.78 311.85 h 0 M 422.73 314.88 h 0 M 417.68 314.40 h 0 M 412.63 318.16 h 0 M 407.58 319.96 h 0 M 402.53 321.14 h 0 M 397.47 322.19 h 0 M 392.42 325.59 h 0 M 387.37 326.74 h 0 M 382.32 327.82 h 0 M 377.27 328.82 h 0 M 372.22 317.40 h 0 M 367.17 325.06 h 0 M 362.12 319.94 h 0 M 357.07 334.94 h 0 M 352.02 338.14 h 0 M 346.97 340.66 h 0 M 341.92 340.49 h 0 M 336.87 341.82 h 0 M 331.82 344.70 h 0 M 326.77 344.19 h 0 M 321.72 346.29 h 0 M 316.67 348.73 h 0 M 311.62 349.80 h 0 M 306.57 352.02 h 0 M 301.52 353.23 h 0 M 296.46 356.61 h 0 M 291.41 352.49 h 0 M 286.36 362.84 h 0 M 281.31 365.38 h 0 M 276.26 365.78 h 0 M 271.21 367.00 h 0 M 266.16 369.69 h 0 M 261.11 372.45 h 0 M 256.06 373.03 h 0 M 251.01 373.96 h 0 M 245.96 374.53 h 0 M 240.91 376.08 h 0 M 235.86 376.45 h 0 M 230.81 378.87 h 0 M 225.76 381.20 h 0 M 220.71 381.86 h 0 M 215.66 382.68 h 0 M 210.61 384.99 h 0 M 205.56 386.15 h 0 M 200.51 387.45 h 0 M 195.45 388.23 h 0 M 190.40 390.29 h 0 M 185.35 390.92 h 0 M 180.30 393.52 h 0 M 175.25 394.94 h 0 M 170.20 395.99 h 0 M 165.15 396.93 h 0 M 160.10 398.11 h 0 M 155.05 399.26 h 0 M 150.00 399.99 h 0" /><text  class="poloto_text poloto_legend_text" x="675" y="150" >direct_seq</text><line  class="poloto_scatter poloto_legend_icon poloto1stroke poloto1legend" stroke="black" x1="685" x2="685" y1="131.25" y2="131.25" /><path  class="poloto_scatter poloto1stroke" d=" M 650.00 197.27 h 0 M 644.95 213.23 h 0 M 639.90 208.14 h 0 M 634.85 214.77 h 0 M 629.80 218.14 h 0 M 624.75 220.05 h 0 M 619.70 221.81 h 0 M 614.65 223.82 h 0 M 609.60 228.40 h 0 M 604.55 225.33 h 0 M 599.49 228.69 h 0 M 594.44 232.77 h 0 M 589.39 236.40 h 0 M 584.34 234.52 h 0 M 579.29 238.47 h 0 M 574.24 241.80 h 0 M 569.19 243.82 h 0 M 564.14 241.24 h 0 M 559.09 250.06 h 0 M 554.04 250.63 h 0 M 548.99 252.27 h 0 M 543.94 252.87 h 0 M 538.89 255.07 h 0 M 533.84 257.84 h 0 M 528.79 259.46 h 0 M 523.74 261.77 h 0 M 518.69 262.33 h 0 M 513.64 259.81 h 0 M 508.59 266.65 h 0 M 503.54 266.07 h 0 M 498.48 271.01 h 0 M 493.43 273.85 h 0 M 488.38 276.11 h 0 M 483.33 276.01 h 0 M 478.28 277.98 h 0 M 473.23 282.44 h 0 M 468.18 280.16 h 0 M 463.13 283.98 h 0 M 458.08 283.41 h 0 M 453.03 287.32 h 0 M 447.98 290.73 h 0 M 442.93 293.75 h 0 M 437.88 293.35 h 0 M 432.83 295.26 h 0 M 427.78 296.13 h 0 M 422.73 299.93 h 0 M 417.68 300.61 h 0 M 412.63 303.83 h 0 M 407.58 305.15 h 0 M 402.53 307.63 h 0 M 397.47 309.70 h 0 M 392.42 312.67 h 0 M 387.37 311.57 h 0 M 382.32 316.02 h 0 M 377.27 316.40 h 0 M 372.22 318.33 h 0 M 367.17 321.69 h 0 M 362.12 313.98 h 0 M 357.07 313.70 h 0 M 352.02 321.79 h 0 M 346.97 330.13 h 0 M 341.92 328.34 h 0 M 336.87 332.00 h 0 M 331.82 333.17 h 0 M 326.77 332.34 h 0 M 321.72 337.10 h 0 M 316.67 337.89 h 0 M 311.62 340.71 h 0 M 306.57 344.13 h 0 M 301.52 345.15 h 0 M 296.46 347.25 h 0 M 291.41 348.24 h 0 M 286.36 356.19 h 0 M 281.31 358.75 h 0 M 276.26 360.73 h 0 M 271.21 361.92 h 0 M 266.16 364.15 h 0 M 261.11 367.31 h 0 M 256.06 367.13 h 0 M 251.01 369.50 h 0 M 245.96 369.73 h 0 M 240.91 371.65 h 0 M 235.86 372.86 h 0 M 230.81 374.92 h 0 M 225.76 377.78 h 0 M 220.71 378.52 h 0 M 215.66 379.52 h 0 M 210.61 382.38 h 0 M 205.56 383.22 h 0 M 200.51 385.29 h 0 M 195.45 386.66 h 0 M 190.40 388.91 h 0 M 185.35 389.72 h 0 M 180.30 392.80 h 0 M 175.25 394.33 h 0 M 170.20 395.31 h 0 M 165.15 396.44 h 0 M 160.10 397.83 h 0 M 155.05 399.14 h 0 M 150.00 399.99 h 0" /><text  class="poloto_text poloto_legend_text" x="675" y="200" >indirect_seq</text><line  class="poloto_scatter poloto_legend_icon poloto2stroke poloto2legend" stroke="black" x1="685" x2="685" y1="181.25" y2="181.25" /><path  class="poloto_scatter poloto2stroke" d=" M 650.00 105.75 h 0 M 644.95 102.31 h 0 M 639.90 100.00 h 0 M 634.85 113.51 h 0 M 629.80 120.65 h 0 M 624.75 128.44 h 0 M 619.70 123.73 h 0 M 614.65 128.35 h 0 M 609.60 141.73 h 0 M 604.55 132.41 h 0 M 599.49 141.50 h 0 M 594.44 146.70 h 0 M 589.39 156.44 h 0 M 584.34 149.95 h 0 M 579.29 158.99 h 0 M 574.24 165.36 h 0 M 569.19 166.97 h 0 M 564.14 164.46 h 0 M 559.09 180.31 h 0 M 554.04 180.12 h 0 M 548.99 184.92 h 0 M 543.94 184.56 h 0 M 538.89 186.81 h 0 M 533.84 192.11 h 0 M 528.79 196.98 h 0 M 523.74 198.79 h 0 M 518.69 199.51 h 0 M 513.64 191.52 h 0 M 508.59 205.63 h 0 M 503.54 207.21 h 0 M 498.48 213.65 h 0 M 493.43 220.96 h 0 M 488.38 225.32 h 0 M 483.33 221.61 h 0 M 478.28 227.25 h 0 M 473.23 233.42 h 0 M 468.18 228.80 h 0 M 463.13 234.93 h 0 M 458.08 229.18 h 0 M 453.03 241.19 h 0 M 447.98 249.17 h 0 M 442.93 252.38 h 0 M 437.88 252.19 h 0 M 432.83 253.31 h 0 M 427.78 254.87 h 0 M 422.73 261.54 h 0 M 417.68 261.73 h 0 M 412.63 268.05 h 0 M 407.58 271.00 h 0 M 402.53 273.71 h 0 M 397.47 278.86 h 0 M 392.42 281.49 h 0 M 387.37 283.02 h 0 M 382.32 286.84 h 0 M 377.27 284.96 h 0 M 372.22 289.08 h 0 M 367.17 274.03 h 0 M 362.12 270.96 h 0 M 357.07 277.66 h 0 M 352.02 304.83 h 0 M 346.97 309.07 h 0 M 341.92 304.94 h 0 M 336.87 311.72 h 0 M 331.82 314.60 h 0 M 326.77 312.83 h 0 M 321.72 317.09 h 0 M 316.67 319.30 h 0 M 311.62 323.06 h 0 M 306.57 328.99 h 0 M 301.52 328.22 h 0 M 296.46 333.50 h 0 M 291.41 333.45 h 0 M 286.36 342.46 h 0 M 281.31 346.94 h 0 M 276.26 347.69 h 0 M 271.21 350.49 h 0 M 266.16 355.06 h 0 M 261.11 358.69 h 0 M 256.06 359.38 h 0 M 251.01 360.94 h 0 M 245.96 361.47 h 0 M 240.91 364.66 h 0 M 235.86 366.63 h 0 M 230.81 369.66 h 0 M 225.76 373.04 h 0 M 220.71 374.51 h 0 M 215.66 375.51 h 0 M 210.61 379.06 h 0 M 205.56 380.67 h 0 M 200.51 382.23 h 0 M 195.45 384.27 h 0 M 190.40 386.85 h 0 M 185.35 388.24 h 0 M 180.30 391.23 h 0 M 175.25 393.36 h 0 M 170.20 394.17 h 0 M 165.15 396.03 h 0 M 160.10 397.67 h 0 M 155.05 399.08 h 0 M 150.00 399.99 h 0" /><text  class="poloto_labels poloto_text poloto_title" x="400" y="37.5" >Bench of rebal:32_bytes with abspiral(num,1.5)</text><text  class="poloto_labels poloto_text poloto_xname" x="400" y="481.25" >Number of Elements</text><text  class="poloto_labels poloto_text poloto_yname" transform="rotate(-90,37.5,250)" x="37.5" y="250" >Time in Seconds</text><text  class="poloto_tick_labels poloto_text" dominant-baseline="middle" text-anchor="start" x="150" y="70" ></text><line  class="poloto_axis_lines" stroke="black" x1="150" x2="144" y1="400" y2="400" /><text  class="poloto_tick_labels poloto_text" dominant-baseline="middle" text-anchor="end" x="135" y="400" >0e0</text><line  class="poloto_axis_lines" stroke="black" x1="150" x2="144" y1="332.5485279615581" y2="332.5485279615581" /><text  class="poloto_tick_labels poloto_text" dominant-baseline="middle" text-anchor="end" x="135" y="332.5485279615581" >0.001</text><line  class="poloto_axis_lines" stroke="black" x1="150" x2="144" y1="265.0970559231161" y2="265.0970559231161" /><text  class="poloto_tick_labels poloto_text" dominant-baseline="middle" text-anchor="end" x="135" y="265.0970559231161" >0.002</text><line  class="poloto_axis_lines" stroke="black" x1="150" x2="144" y1="197.64558388467412" y2="197.64558388467412" /><text  class="poloto_tick_labels poloto_text" dominant-baseline="middle" text-anchor="end" x="135" y="197.64558388467412" >0.003</text><line  class="poloto_axis_lines" stroke="black" x1="150" x2="144" y1="130.1941118462322" y2="130.1941118462322" /><text  class="poloto_tick_labels poloto_text" dominant-baseline="middle" text-anchor="end" x="135" y="130.1941118462322" >0.004</text><text  class="poloto_tick_labels poloto_text" dominant-baseline="middle" text-anchor="start" x="440.00000000000006" y="70" ></text><line  class="poloto_axis_lines" stroke="black" x1="150" x2="150" y1="400" y2="405" /><text  class="poloto_tick_labels poloto_text" dominant-baseline="start" text-anchor="middle" x="150" y="430" >0</text><line  class="poloto_axis_lines" stroke="black" x1="234.17508417508418" x2="234.17508417508418" y1="400" y2="405" /><text  class="poloto_tick_labels poloto_text" dominant-baseline="start" text-anchor="middle" x="234.17508417508418" y="430" >5000</text><line  class="poloto_axis_lines" stroke="black" x1="318.35016835016836" x2="318.35016835016836" y1="400" y2="405" /><text  class="poloto_tick_labels poloto_text" dominant-baseline="start" text-anchor="middle" x="318.35016835016836" y="430" >10000</text><line  class="poloto_axis_lines" stroke="black" x1="402.52525252525254" x2="402.52525252525254" y1="400" y2="405" /><text  class="poloto_tick_labels poloto_text" dominant-baseline="start" text-anchor="middle" x="402.52525252525254" y="430" >15000</text><line  class="poloto_axis_lines" stroke="black" x1="486.7003367003367" x2="486.7003367003367" y1="400" y2="405" /><text  class="poloto_tick_labels poloto_text" dominant-baseline="start" text-anchor="middle" x="486.7003367003367" y="430" >20000</text><line  class="poloto_axis_lines" stroke="black" x1="570.8754208754208" x2="570.8754208754208" y1="400" y2="405" /><text  class="poloto_tick_labels poloto_text" dominant-baseline="start" text-anchor="middle" x="570.8754208754208" y="430" >25000</text><path  stroke="black" fill="none" class="poloto_axis_lines" style="stroke-dasharray:8.417508417508419;stroke-dashoffset:-0;" d=" M 150 400 L 650 400" /><path  stroke="black" fill="none" class="poloto_axis_lines" style="stroke-dasharray:6.745147203844195;stroke-dashoffset:-0;" d=" M 150 400 L 150 100" /></svg>