<svg class="poloto" width="800" height="500" viewBox="0 0 800 500" xmlns="http://www.w3.org/2000/svg"><style>.poloto {
                    font-family: "Arial";
                    stroke-width:2;
                    }
                    .poloto_text{fill: var(--poloto_fg_color,black);  }
                    .poloto_axis_lines{stroke: var(--poloto_fg_color,black);stoke-width:3;fill:none}
                    .poloto_background{fill: var(--poloto_bg_color,aliceblue); }
                    .poloto0stroke{stroke:  var(--poloto_color0,blue); }
                    .poloto1stroke{stroke:  var(--poloto_color1,red); }
                    .poloto2stroke{stroke:  var(--poloto_color2,green); }
                    .poloto3stroke{stroke:  var(--poloto_color3,gold); }
                    .poloto4stroke{stroke:  var(--poloto_color4,aqua); }
                    .poloto5stroke{stroke:  var(--poloto_color5,brown); }
                    .poloto6stroke{stroke:  var(--poloto_color6,lime); }
                    .poloto7stroke{stroke:  var(--poloto_color7,chocolate); }
                    .poloto0fill{fill:var(--poloto_color0,blue);}
                    .poloto1fill{fill:var(--poloto_color1,red);}
                    .poloto2fill{fill:var(--poloto_color2,green);}
                    .poloto3fill{fill:var(--poloto_color3,gold);}
                    .poloto4fill{fill:var(--poloto_color4,aqua);}
                    .poloto5fill{fill:var(--poloto_color5,brown);}
                    .poloto6fill{fill:var(--poloto_color6,lime);}
                    .poloto7fill{fill:var(--poloto_color7,chocolate);}</style><rect class="poloto_background" fill="white" x="0" y="0" width="800" height="500"/><line class="poloto_axis_lines" stroke="black" x1="150" x2="150" y1="400" y2="405"/><text class="poloto_text" alignment-baseline="start" text-anchor="middle" x="150" y="430">0</text><line class="poloto_axis_lines" stroke="black" x1="234.17508417508418" x2="234.17508417508418" y1="400" y2="405"/><text class="poloto_text" alignment-baseline="start" text-anchor="middle" x="234.17508417508418" y="430">5000</text><line class="poloto_axis_lines" stroke="black" x1="318.35016835016836" x2="318.35016835016836" y1="400" y2="405"/><text class="poloto_text" alignment-baseline="start" text-anchor="middle" x="318.35016835016836" y="430">10000</text><line class="poloto_axis_lines" stroke="black" x1="402.52525252525254" x2="402.52525252525254" y1="400" y2="405"/><text class="poloto_text" alignment-baseline="start" text-anchor="middle" x="402.52525252525254" y="430">15000</text><line class="poloto_axis_lines" stroke="black" x1="486.7003367003367" x2="486.7003367003367" y1="400" y2="405"/><text class="poloto_text" alignment-baseline="start" text-anchor="middle" x="486.7003367003367" y="430">20000</text><line class="poloto_axis_lines" stroke="black" x1="570.8754208754208" x2="570.8754208754208" y1="400" y2="405"/><text class="poloto_text" alignment-baseline="start" text-anchor="middle" x="570.8754208754208" y="430">25000</text><line class="poloto_axis_lines" stroke="black" x1="150" x2="144" y1="353.63633033608846" y2="353.63633033608846"/><text class="poloto_text" alignment-baseline="middle" text-anchor="end" x="135" y="353.63633033608846">0.001</text><line class="poloto_axis_lines" stroke="black" x1="150" x2="144" y1="307.26885853948954" y2="307.26885853948954"/><text class="poloto_text" alignment-baseline="middle" text-anchor="end" x="135" y="307.26885853948954">0.002</text><line class="poloto_axis_lines" stroke="black" x1="150" x2="144" y1="260.9013867428907" y2="260.9013867428907"/><text class="poloto_text" alignment-baseline="middle" text-anchor="end" x="135" y="260.9013867428907">0.003</text><line class="poloto_axis_lines" stroke="black" x1="150" x2="144" y1="214.53391494629182" y2="214.53391494629182"/><text class="poloto_text" alignment-baseline="middle" text-anchor="end" x="135" y="214.53391494629182">0.004</text><line class="poloto_axis_lines" stroke="black" x1="150" x2="144" y1="168.1664431496929" y2="168.1664431496929"/><text class="poloto_text" alignment-baseline="middle" text-anchor="end" x="135" y="168.1664431496929">0.005</text><line class="poloto_axis_lines" stroke="black" x1="150" x2="144" y1="121.79897135309403" y2="121.79897135309403"/><text class="poloto_text" alignment-baseline="middle" text-anchor="end" x="135" y="121.79897135309403">0.006</text><text class="poloto_text" alignment-baseline="middle" text-anchor="start" font-size="large" x="675" y="100">default_par</text><line class="poloto0stroke" stroke="black" x1="680" x2="730" y1="81.25" y2="81.25"/><polyline class="poloto0stroke" fill="none" stroke="black" points="650,325.9945011269614 644.9494949494949,334.3198734229843 639.8989898989898,336.79524727231757 634.8484848484848,334.5403043839053 629.7979797979798,330.0914845674371 624.7474747474747,337.475829023348 619.6969696969697,337.868607876937 614.6464646464647,333.2451681616827 609.5959595959596,337.39667974899123 604.5454545454545,339.0656768963098 599.4949494949494,333.26116493945256 594.4444444444445,340.94221484738995 589.3939393939394,338.888274949216 584.3434343434344,342.9074074045452 579.2929292929293,342.15987102424043 574.2424242424242,340.2467491379128 569.1919191919192,343.2853022996875 564.1414141414141,341.15202765726957 559.090909090909,342.6975945946656 554.040404040404,349.38276394335566 548.989898989899,345.18099001661966 543.939393939394,343.5881282579911 538.8888888888889,348.25260318578535 533.8383838383838,350.22512180348446 528.7878787878788,350.1890479104267 523.7373737373737,347.540769758764 518.6868686868687,346.49972728198674 513.6363636363636,340.35061227473716 508.5858585858586,344.64544571736894 503.5353535353535,347.6788057223024 498.4848484848485,353.37069109016574 493.4343434343434,354.0032825078867 488.3838383838384,349.75778405524653 483.3333333333333,353.0848819940115 478.2828282828283,350.20615750751966 473.2323232323232,351.28536041358547 468.1818181818182,345.68412345308457 463.1313131313131,353.32789391369744 458.0808080808081,360.38024727154476 453.030303030303,355.1984040934441 447.979797979798,358.7886838021265 442.9292929292929,356.1406838552945 437.8787878787879,349.27593328833626 432.8282828282828,362.9168261836495 427.77777777777777,358.37777526706503 422.72727272727275,365.52944774950066 417.67676767676767,364.1455178187876 412.62626262626264,364.4297040534289 407.57575757575756,366.4033354904512 402.52525252525254,366.62613119243383 397.47474747474746,363.2338869557947 392.4242424242424,368.37599321056564 387.37373737373736,369.9164597260641 382.32323232323233,368.2026252335182 377.27272727272725,360.95260734340195 372.22222222222223,370.1178336560767 367.1717171717172,371.97540731119204 362.1212121212121,371.80472864750874 357.07070707070704,371.1471915299612 352.020202020202,374.190288703972 346.969696969697,375.46126747338855 341.9191919191919,372.9803758949115 336.86868686868684,374.2731010086007 331.8181818181818,376.6191559790932 326.7676767676768,372.4387110893837 321.7171717171717,377.11742083101944 316.66666666666663,376.9397870465667 311.6161616161616,377.02482498984165 306.5656565656566,378.9019657180552 301.5151515151515,379.73523555371185 296.4646464646464,379.6695328461761 291.4141414141414,376.6765125417056 286.3636363636364,380.74154879411344 281.3131313131313,378.3708263286251 276.26262626262627,382.4754140344755 271.2121212121212,383.43192861016746 266.16161616161617,379.0301717775728 261.1111111111111,380.3342569218521 256.06060606060606,386.27995783033 251.010101010101,381.243847616086 245.95959595959596,386.8103553402113 240.9090909090909,386.67936723238586 235.85858585858585,388.38536562219815 230.8080808080808,389.5206268016661 225.75757575757575,389.7579355223211 220.7070707070707,389.1742617873455 215.65656565656565,389.65226405409663 210.6060606060606,389.65754994588144 205.55555555555554,392.4214685722049 200.50505050505052,391.2771657357366 195.45454545454544,391.950699631054 190.40404040404042,393.7682581580089 185.35353535353534,392.9261321352391 180.3030303030303,394.9098253136412 175.25252525252526,396.0193061787902 170.2020202020202,396.56491221942076 165.15151515151516,397.91735863678394 160.1010101010101,398.5886668934551 155.05050505050505,399.3836835648796 150,399.9986553433179 "/><text class="poloto_text" alignment-baseline="middle" text-anchor="start" font-size="large" x="675" y="150">default_seq</text><line class="poloto1stroke" stroke="black" x1="680" x2="730" y1="131.25" y2="131.25"/><polyline class="poloto1stroke" fill="none" stroke="black" points="650,262.675545316244 644.9494949494949,265.90044934716923 639.8989898989898,243.3965533203515 634.8484848484848,267.07206262452564 629.7979797979798,269.98509904014696 624.7474747474747,270.3771360141872 619.6969696969697,272.02179023881257 614.6464646464647,274.90951001483296 609.5959595959596,273.7128119352345 604.5454545454545,274.05625579883196 599.4949494949494,276.7746415678512 594.4444444444445,279.2124577650291 589.3939393939394,280.1265461040273 584.3434343434344,283.5454516369495 579.2929292929293,281.94716488412075 574.2424242424242,286.9259185357524 569.1919191919192,283.63188060437835 564.1414141414141,286.5433868934304 559.090909090909,287.664135054226 554.040404040404,291.7864815017744 548.989898989899,290.18824111641743 543.939393939394,296.0964307402119 538.8888888888889,293.6407166989204 533.8383838383838,296.17061869508643 528.7878787878788,295.6973459104586 523.7373737373737,296.5431349635003 518.6868686868687,298.087635449045 513.6363636363636,302.8475810012685 508.5858585858586,301.83741926070775 503.5353535353535,302.5439204284726 498.4848484848485,305.03042247103696 493.4343434343434,306.76442681381434 488.3838383838384,308.49221791537104 483.3333333333333,309.62854554669025 478.2828282828283,291.46663868132146 473.2323232323232,314.2881518899459 468.1818181818182,314.34017619330166 463.1313131313131,316.4255996048255 458.0808080808081,314.5897722939828 453.030303030303,318.592258826937 447.979797979798,320.65667777373693 442.9292929292929,320.74630609671976 437.8787878787879,323.1787900346411 432.8282828282828,322.89353734814847 427.77777777777777,326.16990927276794 422.72727272727275,331.6509153789003 417.67676767676767,333.03618996629547 412.62626262626264,333.5731252897001 407.57575757575756,335.1621849156413 402.52525252525254,338.5212764099459 397.47474747474746,337.9696889654536 392.4242424242424,339.4110218262509 387.37373737373736,341.0751503890308 382.32323232323233,343.810413917784 377.27272727272725,343.16613789717024 372.22222222222223,344.60867631223425 367.1717171717172,346.8574523268975 362.1212121212121,345.78205155351895 357.07070707070704,349.5235819552019 352.020202020202,349.8728681202457 346.969696969697,352.0921544228463 341.9191919191919,351.7844598800041 336.86868686868684,353.2765651224186 331.8181818181818,355.3943066617847 326.7676767676768,357.27742879385994 321.7171717171717,357.3874124369615 316.66666666666663,359.27850977418575 311.6161616161616,359.624503848732 306.5656565656566,360.6627179097296 301.5151515151515,362.24282861361417 296.4646464646464,363.8899403142447 291.4141414141414,365.66136320676196 286.3636363636364,368.9060197806726 281.3131313131313,369.9080208461971 276.26262626262627,370.8051386905177 271.2121212121212,372.6615067913663 266.16161616161617,374.5252473202306 261.1111111111111,375.49511572780006 256.06060606060606,376.76020582829847 251.010101010101,378.1923115622082 245.95959595959596,378.5834675542843 240.9090909090909,379.51545373739594 235.85858585858585,380.0170570472916 230.8080808080808,382.42830468313014 225.75757575757575,383.211822221549 220.7070707070707,384.4376854409075 215.65656565656565,386.6003106929727 210.6060606060606,387.8704548478969 205.55555555555554,388.6042664565499 200.50505050505052,389.60575747988463 195.45454545454544,390.4569715271266 190.40404040404042,391.6282602321805 185.35353535353534,392.62001408643795 180.3030303030303,394.5604927811256 175.25252525252526,395.288508455804 170.2020202020202,396.41639720725624 165.15151515151516,397.84303157949404 160.1010101010101,398.4076482835612 155.05050505050505,399.2890475549427 150,400 "/><text class="poloto_text" alignment-baseline="middle" text-anchor="start" font-size="large" x="675" y="200">direct_par</text><line class="poloto2stroke" stroke="black" x1="680" x2="730" y1="181.25" y2="181.25"/><polyline class="poloto2stroke" fill="none" stroke="black" points="650,217.7422194223139 644.9494949494949,253.7192971989565 639.8989898989898,263.8756745887553 634.8484848484848,255.43642378199996 629.7979797979798,259.3554952331921 624.7474747474747,263.62705220498196 619.6969696969697,263.2103477359459 614.6464646464647,269.23997376837565 609.5959595959596,268.69710340858103 604.5454545454545,274.53356255350616 599.4949494949494,265.88398889468135 594.4444444444445,276.7335136203676 589.3939393939394,267.00682359170787 584.3434343434344,278.8235274115993 579.2929292929293,279.8216799769647 574.2424242424242,276.1510918071305 569.1919191919192,277.8824532040155 564.1414141414141,271.3534495003364 559.090909090909,256.45836286039696 554.040404040404,288.5680689169007 548.989898989899,284.2899277641157 543.939393939394,291.7608402898709 538.8888888888889,290.53683176938426 533.8383838383838,288.6797681564587 528.7878787878788,295.5568061034431 523.7373737373737,297.22506137121286 518.6868686868687,293.4369780278462 513.6363636363636,287.4226532611093 508.5858585858586,299.44759339683924 503.5353535353535,297.5004841536847 498.4848484848485,300.9208270782326 493.4343434343434,293.692787369748 488.3838383838384,305.6798452810201 483.3333333333333,304.9664817274295 478.2828282828283,289.8458637046714 473.2323232323232,308.00267014814256 468.1818181818182,300.9601466943161 463.1313131313131,305.08485788292614 458.0808080808081,310.1349247061809 453.030303030303,306.84612629912 447.979797979798,319.0183758927477 442.9292929292929,308.0031338228605 437.8787878787879,308.31973092028767 432.8282828282828,302.5932090509923 427.77777777777777,316.59252250329325 422.72727272727275,320.32579949499643 417.67676767676767,333.24938760161626 412.62626262626264,327.47162967598564 407.57575757575756,313.1837714466945 402.52525252525254,333.0149536642126 397.47474747474746,335.8174500270709 392.4242424242424,331.4181970379532 387.37373737373736,331.638906203705 382.32323232323233,335.61908998272503 377.27272727272725,327.1633323560101 372.22222222222223,341.203449183492 367.1717171717172,343.7341857941504 362.1212121212121,344.2452480682925 357.07070707070704,340.44306901349955 352.020202020202,345.9621428139769 346.969696969697,346.68552174147567 341.9191919191919,349.39880708859727 336.86868686868684,352.7326283107727 331.8181818181818,350.4689683376628 326.7676767676768,352.8175271516323 321.7171717171717,354.10250889753144 316.66666666666663,355.62108996634186 311.6161616161616,357.14546696912686 306.5656565656566,358.72441848621645 301.5151515151515,359.82059188695985 296.4646464646464,349.73399754221487 291.4141414141414,360.096849283924 286.3636363636364,363.2162209490401 281.3131313131313,360.3893352960169 276.26262626262627,361.2619711152289 271.2121212121212,367.35498148160457 266.16161616161617,370.1697652244889 261.1111111111111,362.31344627316037 256.06060606060606,364.2368153707551 251.010101010101,364.5285595032993 245.95959595959596,368.87105870693796 240.9090909090909,375.2463542416113 235.85858585858585,377.1934634847659 230.8080808080808,378.6471764605329 225.75757575757575,379.479658049169 220.7070707070707,379.75818745225115 215.65656565656565,381.4378027506112 210.6060606060606,382.8432935557097 205.55555555555554,384.3885359208031 200.50505050505052,386.39471732302655 195.45454545454544,386.2800969327454 190.40404040404042,387.4224059679264 185.35353535353534,387.5322041411407 180.3030303030303,389.8762189428742 175.25252525252526,392.046680297673 170.2020202020202,393.07218967139835 165.15151515151516,395.6688144594797 160.1010101010101,397.0357275280434 155.05050505050505,398.7981087635604 150,399.9976352589384 "/><text class="poloto_text" alignment-baseline="middle" text-anchor="start" font-size="large" x="675" y="250">direct_seq</text><line class="poloto3stroke" stroke="black" x1="680" x2="730" y1="231.25" y2="231.25"/><polyline class="poloto3stroke" fill="none" stroke="black" points="650,100 644.9494949494949,119.69078151291808 639.8989898989898,119.59456900894014 634.8484848484848,124.2251029473793 629.7979797979798,130.6033660002476 624.7474747474747,135.5879619533256 619.6969696969697,135.87182361566437 614.6464646464647,141.14732908679423 609.5959595959596,140.6973327730082 604.5454545454545,143.60155936898815 599.4949494949494,146.43985142007338 594.4444444444445,151.64404371958008 589.3939393939394,156.02136489453798 584.3434343434344,160.13156306447567 579.2929292929293,159.26384219727413 574.2424242424242,166.98379441404887 569.1919191919192,166.14574872879714 564.1414141414141,169.88904109440836 559.090909090909,169.23252406124033 554.040404040404,178.6341317451341 548.989898989899,177.57811257496655 543.939393939394,186.05260266028733 538.8888888888889,184.16934142579666 533.8383838383838,189.82844499109976 528.7878787878788,190.1417036305576 523.7373737373737,191.49730303600296 518.6868686868687,195.47182998346383 513.6363636363636,201.78740421446318 508.5858585858586,201.55533501812118 503.5353535353535,202.68748957697878 498.4848484848485,210.03538920005755 493.4343434343434,211.65509772485638 488.3838383838384,217.4949416952226 483.3333333333333,217.41551421603504 478.2828282828283,220.70366347849085 473.2323232323232,226.5721625464274 468.1818181818182,226.310325433192 463.1313131313131,231.49995834655454 458.0808080808081,224.3498159906882 453.030303030303,234.4696558127113 447.979797979798,239.64412656279634 442.9292929292929,239.99624114361973 437.8787878787879,245.5982663511412 432.8282828282828,247.11596643798745 427.77777777777777,251.1263354411471 422.72727272727275,263.3355399097967 417.67676767676767,266.020865671425 412.62626262626264,268.5268884196157 407.57575757575756,270.45299319804644 402.52525252525254,277.6918828949315 397.47474747474746,277.19570457923606 392.4242424242424,277.66614894808436 387.37373737373736,281.2840173024858 382.32323232323233,286.0623243735407 377.27272727272725,285.8834850348212 372.22222222222223,288.6435087935138 367.1717171717172,294.11992451993825 362.1212121212121,293.84937032200514 357.07070707070704,298.2349912744146 352.020202020202,301.3596024638438 346.969696969697,304.00931800713226 341.9191919191919,305.67831515445084 336.86868686868684,307.39177870722233 331.8181818181818,310.106872385744 326.7676767676768,315.09568777875546 321.7171717171717,315.34570118668273 316.66666666666663,318.40989556036095 311.6161616161616,319.94906378664905 306.5656565656566,323.75277296801124 301.5151515151515,326.10429930017574 296.4646464646464,327.9561697562601 291.4141414141414,331.5205300482083 286.3636363636364,337.5010065605336 281.3131313131313,339.338503100361 276.26262626262627,342.0269354825996 271.2121212121212,345.1112997065094 266.16161616161617,348.34617274387085 261.1111111111111,350.98999961824114 256.06060606060606,353.3335507452566 251.010101010101,355.47011747817214 245.95959595959596,357.20259169438026 240.9090909090909,359.3327597161878 235.85858585858585,360.2763841347204 230.8080808080808,364.7190834449115 225.75757575757575,365.8117792852702 220.7070707070707,368.8987864550723 215.65656565656565,373.6999526897229 210.6060606060606,376.0540292328363 205.55555555555554,377.7210789463394 200.50505050505052,379.5408631119405 195.45454545454544,381.16112804640085 190.40404040404042,383.3972921087354 185.35353535353534,385.58574404259133 180.3030303030303,388.7458263479449 175.25252525252526,390.7016526757972 170.2020202020202,392.74325882647327 165.15151515151516,395.3756329353098 160.1010101010101,396.8865633712738 155.05050505050505,398.5770286580342 150,399.99234936715357 "/><text class="poloto_text" alignment-baseline="middle" text-anchor="start" font-size="large" x="675" y="300">indirect_par</text><line class="poloto4stroke" stroke="black" x1="680" x2="730" y1="281.25" y2="281.25"/><polyline class="poloto4stroke" fill="none" stroke="black" points="650,231.69238335451038 644.9494949494949,257.99498087573625 639.8989898989898,230.38565526433865 634.8484848484848,255.07304190553 629.7979797979798,265.71428394790587 624.7474747474747,271.18893771040206 619.6969696969697,273.7722550340778 614.6464646464647,279.5902599252278 609.5959595959596,264.1430294311345 604.5454545454545,262.4150064922188 599.4949494949494,263.23450518875194 594.4444444444445,269.8999683619284 589.3939393939394,265.4201750743 584.3434343434344,279.28200897272404 579.2929292929293,280.5910090690138 574.2424242424242,274.58206292900536 569.1919191919192,292.02596949360384 564.1414141414141,288.8271703493001 559.090909090909,286.7407268533967 554.040404040404,296.2529209575254 548.989898989899,293.6269455597968 543.939393939394,292.82075432766936 538.8888888888889,291.15027342125325 533.8383838383838,300.2414972489406 528.7878787878788,291.73733198167 523.7373737373737,300.6113242039903 518.6868686868687,306.1479249088068 513.6363636363636,289.8642715909746 508.5858585858586,296.5629338739575 503.5353535353535,299.85154681113124 498.4848484848485,304.66124466059244 493.4343434343434,311.5628110001572 488.3838383838384,310.57254090499725 483.3333333333333,312.70748477639984 478.2828282828283,299.2693568352531 473.2323232323232,304.9903146079329 468.1818181818182,311.5157943837554 463.1313131313131,307.73364607677865 458.0808080808081,323.0154837989735 453.030303030303,324.75287296719205 447.979797979798,329.3384304579885 442.9292929292929,324.4376668939188 437.8787878787879,306.3659911286662 432.8282828282828,320.0342408323394 427.77777777777777,332.72923730300204 422.72727272727275,334.0724102260059 417.67676767676767,328.97240563562616 412.62626262626264,326.6363660390417 407.57575757575756,328.24745021408637 402.52525252525254,324.54454391640996 397.47474747474746,338.9365434873563 392.4242424242424,342.4695593683699 387.37373737373736,343.4308034261852 382.32323232323233,340.44362542316117 377.27272727272725,348.6064333630652 372.22222222222223,351.2685753887951 367.1717171717172,348.3107016279465 362.1212121212121,352.75840862509165 357.07070707070704,354.39675687355265 352.020202020202,353.52996335578706 346.969696969697,354.2116579261406 341.9191919191919,354.9989312297751 336.86868686868684,355.98275624635534 331.8181818181818,348.2802845664479 326.7676767676768,362.0440512620221 321.7171717171717,363.5491393965397 316.66666666666663,362.8131948841841 311.6161616161616,361.5098979869253 306.5656565656566,366.23427968828076 301.5151515151515,367.87503904527523 296.4646464646464,367.7344528707879 291.4141414141414,369.974372698338 286.3636363636364,370.4029936076258 281.3131313131313,366.3813109413478 276.26262626262627,370.0796732267881 271.2121212121212,374.6399140779836 266.16161616161617,369.45510338168793 261.1111111111111,376.799757281741 256.06060606060606,373.34496332564817 251.010101010101,378.48934158653725 245.95959595959596,376.2598544401414 240.9090909090909,376.1814470453333 235.85858585858585,382.6082568411727 230.8080808080808,382.6311623722402 225.75757575757575,384.5703427777176 220.7070707070707,386.53043491297524 215.65656565656565,386.3982876183549 210.6060606060606,386.32799453111124 205.55555555555554,388.9562883024297 200.50505050505052,388.48723495773527 195.45454545454544,389.40368803779506 190.40404040404042,390.3570032579331 185.35353535353534,391.4034707289106 180.3030303030303,393.44317581324293 175.25252525252526,394.9871662565979 170.2020202020202,396.03590573369337 165.15151515151516,397.6372991071325 160.1010101010101,398.51772466160634 155.05050505050505,399.3495571056373 150,399.9987017107897 "/><text class="poloto_text" alignment-baseline="middle" text-anchor="start" font-size="large" x="675" y="350">indirect_seq</text><line class="poloto5stroke" stroke="black" x1="680" x2="730" y1="331.25" y2="331.25"/><polyline class="poloto5stroke" fill="none" stroke="black" points="650,134.50463234226987 644.9494949494949,137.6960126910862 639.8989898989898,139.08754688717391 634.8484848484848,141.93168123970548 629.7979797979798,147.83504864643305 624.7474747474747,156.64630567941254 619.6969696969697,154.02380784206872 614.6464646464647,163.67825734966934 609.5959595959596,155.8678885628912 604.5454545454545,159.70947996871124 599.4949494949494,171.05077810027217 594.4444444444445,176.46737978807903 589.3939393939394,180.01602150708814 584.3434343434344,183.82079714030166 579.2929292929293,180.5471145290464 574.2424242424242,192.96038224107286 569.1919191919192,187.23423131155187 564.1414141414141,194.14813139861454 559.090909090909,188.98098670907333 554.040404040404,203.99101831159655 548.989898989899,195.73802563904812 543.939393939394,215.3569839381532 538.8888888888889,210.66816608766575 533.8383838383838,214.28241777926706 528.7878787878788,211.37897943030762 523.7373737373737,216.97460592672115 518.6868686868687,218.83570350969308 513.6363636363636,229.22823043335197 508.5858585858586,226.31853247569998 503.5353535353535,229.90032693704364 498.4848484848485,235.2586447128022 493.4343434343434,237.35737558873168 488.3838383838384,245.59733900170525 483.3333333333333,243.0635421379083 478.2828282828283,245.71715254882767 473.2323232323232,253.54235892658068 468.1818181818182,252.59252126682736 463.1313131313131,256.70986002742177 458.0808080808081,256.72465125092486 453.030303030303,260.9465950278924 447.979797979798,265.4440079548035 442.9292929292929,264.4403840277661 437.8787878787879,272.5248773078057 432.8282828282828,272.13715250864254 427.77777777777777,276.5971468858138 422.72727272727275,282.6225998457818 417.67676767676767,285.63500175346326 412.62626262626264,287.4636884736493 407.57575757575756,290.9330418158862 402.52525252525254,298.5956374700486 397.47474747474746,297.68808694457374 392.4242424242424,298.06950576757254 387.37373737373736,302.10639696459987 382.32323232323233,306.92838219408713 377.27272727272725,305.43534960223667 372.22222222222223,308.8876860823242 367.1717171717172,313.5889304152532 362.1212121212121,312.55169007116325 357.07070707070704,317.0770162160959 352.020202020202,321.71153775710957 346.969696969697,324.9839220791545 341.9191919191919,325.27826279011936 336.86868686868684,327.14334797566573 331.8181818181818,330.6533655906683 326.7676767676768,334.49852729181663 321.7171717171717,334.4783574415851 316.66666666666663,337.45922946844485 311.6161616161616,338.4266404000091 306.5656565656566,342.20470836946777 301.5151515151515,343.77934771168026 296.4646464646464,346.26659163379344 291.4141414141414,349.3942630763612 286.3636363636364,351.27043008766697 281.3131313131313,354.2720283744198 276.26262626262627,355.8575177050327 271.2121212121212,359.3858041039231 266.16161616161617,362.032227556714 261.1111111111111,364.66237602690427 256.06060606060606,366.36141929594703 251.010101010101,368.31177426212736 245.95959595959596,368.938523378402 240.9090909090909,371.05232368266536 235.85858585858585,370.7335936815355 230.8080808080808,375.60565578056315 225.75757575757575,376.2173818359757 220.7070707070707,379.4691326330712 215.65656565656565,381.63797112635706 210.6060606060606,383.512283438791 205.55555555555554,384.8730760010776 200.50505050505052,386.0109801264379 195.45454545454544,387.62999313915975 190.40404040404042,389.75408702216197 185.35353535353534,390.863336049952 180.3030303030303,393.4008423114927 175.25252525252526,394.47077172319916 170.2020202020202,395.6181811802778 165.15151515151516,397.5366353258621 160.1010101010101,398.279813163818 155.05050505050505,399.2505161858798 150,399.9999072650564 "/><text class="poloto_text" alignment-baseline="start" text-anchor="middle" font-size="x-large" x="400" y="37.5">Bench of rebal:128_bytes with abspiral(num,2.1)</text><text class="poloto_text" alignment-baseline="start" text-anchor="middle" font-size="x-large" x="400" y="481.25">Number of Elements</text><text class="poloto_text" alignment-baseline="start" text-anchor="middle" font-size="x-large" transform="rotate(-90,37.5,250)" x="37.5" y="250">Time in Seconds</text><path stroke="black" fill="none" class="poloto_axis_lines" d=" M 150 100 L 150 400 L 650 400"/></svg>