<svg class="poloto" width="800" height="500" viewBox="0 0 800 500" xmlns="http://www.w3.org/2000/svg"><circle  r="1e5" class="poloto_background" /><text  class="poloto_text poloto_legend_text" x="675" y="100" >default_par</text><line  class="poloto_scatter poloto_legend_icon poloto0stroke poloto0legend" stroke="black" x1="685" x2="685" y1="81.25" y2="81.25" /><path  class="poloto_scatter poloto0stroke" d=" M 650.00 296.71 h 0 M 644.95 296.02 h 0 M 639.90 303.37 h 0 M 634.85 296.43 h 0 M 629.80 301.84 h 0 M 624.75 297.09 h 0 M 619.70 303.19 h 0 M 614.65 303.83 h 0 M 609.60 301.71 h 0 M 604.55 305.17 h 0 M 599.49 307.81 h 0 M 594.44 310.02 h 0 M 589.39 292.18 h 0 M 584.34 308.87 h 0 M 579.29 307.21 h 0 M 574.24 314.50 h 0 M 569.19 311.07 h 0 M 564.14 313.06 h 0 M 559.09 292.54 h 0 M 554.04 259.56 h 0 M 548.99 315.74 h 0 M 543.94 316.57 h 0 M 538.89 320.66 h 0 M 533.84 320.51 h 0 M 528.79 321.80 h 0 M 523.74 322.61 h 0 M 518.69 321.99 h 0 M 513.64 322.72 h 0 M 508.59 329.35 h 0 M 503.54 326.20 h 0 M 498.48 327.19 h 0 M 493.43 331.28 h 0 M 488.38 326.90 h 0 M 483.33 328.75 h 0 M 478.28 331.11 h 0 M 473.23 330.48 h 0 M 468.18 331.35 h 0 M 463.13 333.77 h 0 M 458.08 333.58 h 0 M 453.03 336.76 h 0 M 447.98 337.79 h 0 M 442.93 339.47 h 0 M 437.88 337.84 h 0 M 432.83 337.82 h 0 M 427.78 331.30 h 0 M 422.73 338.10 h 0 M 417.68 337.81 h 0 M 412.63 339.02 h 0 M 407.58 340.62 h 0 M 402.53 342.88 h 0 M 397.47 341.27 h 0 M 392.42 341.32 h 0 M 387.37 346.00 h 0 M 382.32 343.35 h 0 M 377.27 345.35 h 0 M 372.22 345.43 h 0 M 367.17 348.34 h 0 M 362.12 348.31 h 0 M 357.07 350.21 h 0 M 352.02 354.10 h 0 M 346.97 349.68 h 0 M 341.92 350.45 h 0 M 336.87 351.17 h 0 M 331.82 353.89 h 0 M 326.77 357.69 h 0 M 321.72 361.83 h 0 M 316.67 361.20 h 0 M 311.62 361.06 h 0 M 306.57 361.01 h 0 M 301.52 358.05 h 0 M 296.46 364.23 h 0 M 291.41 366.44 h 0 M 286.36 363.82 h 0 M 281.31 370.02 h 0 M 276.26 366.46 h 0 M 271.21 371.02 h 0 M 266.16 370.93 h 0 M 261.11 372.15 h 0 M 256.06 371.63 h 0 M 251.01 370.30 h 0 M 245.96 374.97 h 0 M 240.91 372.92 h 0 M 235.86 372.43 h 0 M 230.81 378.85 h 0 M 225.76 379.29 h 0 M 220.71 381.19 h 0 M 215.66 381.27 h 0 M 210.61 382.17 h 0 M 205.56 383.75 h 0 M 200.51 383.94 h 0 M 195.45 384.75 h 0 M 190.40 386.76 h 0 M 185.35 387.23 h 0 M 180.30 380.95 h 0 M 175.25 382.70 h 0 M 170.20 385.09 h 0 M 165.15 391.65 h 0 M 160.10 395.19 h 0 M 155.05 397.53 h 0 M 150.00 399.99 h 0" /><text  class="poloto_text poloto_legend_text" x="675" y="150" >default_seq</text><line  class="poloto_scatter poloto_legend_icon poloto1stroke poloto1legend" stroke="black" x1="685" x2="685" y1="131.25" y2="131.25" /><path  class="poloto_scatter poloto1stroke" d=" M 650.00 116.34 h 0 M 644.95 141.44 h 0 M 639.90 137.54 h 0 M 634.85 133.87 h 0 M 629.80 136.03 h 0 M 624.75 137.52 h 0 M 619.70 139.04 h 0 M 614.65 130.36 h 0 M 609.60 143.98 h 0 M 604.55 166.39 h 0 M 599.49 148.15 h 0 M 594.44 149.05 h 0 M 589.39 169.63 h 0 M 584.34 160.27 h 0 M 579.29 134.98 h 0 M 574.24 177.11 h 0 M 569.19 177.60 h 0 M 564.14 167.08 h 0 M 559.09 185.21 h 0 M 554.04 186.41 h 0 M 548.99 177.32 h 0 M 543.94 186.12 h 0 M 538.89 179.82 h 0 M 533.84 202.50 h 0 M 528.79 200.73 h 0 M 523.74 211.58 h 0 M 518.69 203.58 h 0 M 513.64 211.50 h 0 M 508.59 208.40 h 0 M 503.54 208.87 h 0 M 498.48 220.46 h 0 M 493.43 216.11 h 0 M 488.38 217.34 h 0 M 483.33 222.12 h 0 M 478.28 201.12 h 0 M 473.23 228.43 h 0 M 468.18 232.19 h 0 M 463.13 229.29 h 0 M 458.08 245.50 h 0 M 453.03 244.93 h 0 M 447.98 248.64 h 0 M 442.93 245.21 h 0 M 437.88 248.48 h 0 M 432.83 254.35 h 0 M 427.78 257.28 h 0 M 422.73 251.21 h 0 M 417.68 247.41 h 0 M 412.63 252.23 h 0 M 407.58 259.08 h 0 M 402.53 263.83 h 0 M 397.47 259.33 h 0 M 392.42 251.98 h 0 M 387.37 264.23 h 0 M 382.32 267.96 h 0 M 377.27 272.22 h 0 M 372.22 283.22 h 0 M 367.17 278.48 h 0 M 362.12 279.76 h 0 M 357.07 290.99 h 0 M 352.02 276.89 h 0 M 346.97 291.40 h 0 M 341.92 293.22 h 0 M 336.87 297.46 h 0 M 331.82 304.83 h 0 M 326.77 296.94 h 0 M 321.72 307.67 h 0 M 316.67 307.21 h 0 M 311.62 310.53 h 0 M 306.57 311.39 h 0 M 301.52 316.23 h 0 M 296.46 323.29 h 0 M 291.41 322.06 h 0 M 286.36 326.26 h 0 M 281.31 329.99 h 0 M 276.26 332.09 h 0 M 271.21 336.54 h 0 M 266.16 338.12 h 0 M 261.11 339.98 h 0 M 256.06 344.31 h 0 M 251.01 348.25 h 0 M 245.96 344.51 h 0 M 240.91 351.77 h 0 M 235.86 355.77 h 0 M 230.81 358.76 h 0 M 225.76 361.44 h 0 M 220.71 358.26 h 0 M 215.66 362.70 h 0 M 210.61 366.78 h 0 M 205.56 369.53 h 0 M 200.51 372.02 h 0 M 195.45 374.52 h 0 M 190.40 377.54 h 0 M 185.35 381.33 h 0 M 180.30 382.88 h 0 M 175.25 386.85 h 0 M 170.20 390.29 h 0 M 165.15 392.06 h 0 M 160.10 395.22 h 0 M 155.05 397.44 h 0 M 150.00 399.99 h 0" /><text  class="poloto_text poloto_legend_text" x="675" y="200" >direct_par</text><line  class="poloto_scatter poloto_legend_icon poloto2stroke poloto2legend" stroke="black" x1="685" x2="685" y1="181.25" y2="181.25" /><path  class="poloto_scatter poloto2stroke" d=" M 650.00 296.24 h 0 M 644.95 294.27 h 0 M 639.90 302.79 h 0 M 634.85 300.97 h 0 M 629.80 303.86 h 0 M 624.75 303.83 h 0 M 619.70 304.34 h 0 M 614.65 307.44 h 0 M 609.60 305.43 h 0 M 604.55 307.81 h 0 M 599.49 316.96 h 0 M 594.44 312.97 h 0 M 589.39 294.77 h 0 M 584.34 317.06 h 0 M 579.29 316.63 h 0 M 574.24 310.89 h 0 M 569.19 311.06 h 0 M 564.14 317.91 h 0 M 559.09 319.03 h 0 M 554.04 315.55 h 0 M 548.99 307.48 h 0 M 543.94 323.07 h 0 M 538.89 318.39 h 0 M 533.84 319.14 h 0 M 528.79 325.02 h 0 M 523.74 324.91 h 0 M 518.69 326.40 h 0 M 513.64 326.35 h 0 M 508.59 327.25 h 0 M 503.54 329.41 h 0 M 498.48 330.51 h 0 M 493.43 328.24 h 0 M 488.38 332.31 h 0 M 483.33 332.32 h 0 M 478.28 334.58 h 0 M 473.23 332.68 h 0 M 468.18 336.20 h 0 M 463.13 329.79 h 0 M 458.08 336.98 h 0 M 453.03 338.13 h 0 M 447.98 337.68 h 0 M 442.93 340.35 h 0 M 437.88 338.52 h 0 M 432.83 337.36 h 0 M 427.78 339.56 h 0 M 422.73 337.99 h 0 M 417.68 342.04 h 0 M 412.63 336.22 h 0 M 407.58 343.01 h 0 M 402.53 344.71 h 0 M 397.47 345.35 h 0 M 392.42 346.08 h 0 M 387.37 347.51 h 0 M 382.32 341.14 h 0 M 377.27 348.73 h 0 M 372.22 349.80 h 0 M 367.17 350.77 h 0 M 362.12 351.18 h 0 M 357.07 305.66 h 0 M 352.02 354.93 h 0 M 346.97 352.21 h 0 M 341.92 353.10 h 0 M 336.87 354.87 h 0 M 331.82 356.93 h 0 M 326.77 357.01 h 0 M 321.72 356.38 h 0 M 316.67 363.02 h 0 M 311.62 359.91 h 0 M 306.57 363.28 h 0 M 301.52 362.52 h 0 M 296.46 364.23 h 0 M 291.41 366.02 h 0 M 286.36 364.99 h 0 M 281.31 369.02 h 0 M 276.26 357.38 h 0 M 271.21 365.90 h 0 M 266.16 371.07 h 0 M 261.11 374.20 h 0 M 256.06 375.14 h 0 M 251.01 374.65 h 0 M 245.96 375.27 h 0 M 240.91 377.82 h 0 M 235.86 373.14 h 0 M 230.81 380.28 h 0 M 225.76 377.87 h 0 M 220.71 381.34 h 0 M 215.66 381.93 h 0 M 210.61 382.57 h 0 M 205.56 383.12 h 0 M 200.51 384.66 h 0 M 195.45 385.82 h 0 M 190.40 386.99 h 0 M 185.35 388.21 h 0 M 180.30 384.04 h 0 M 175.25 385.74 h 0 M 170.20 385.59 h 0 M 165.15 392.52 h 0 M 160.10 395.13 h 0 M 155.05 397.60 h 0 M 150.00 399.99 h 0" /><text  class="poloto_text poloto_legend_text" x="675" y="250" >direct_seq</text><line  class="poloto_scatter poloto_legend_icon poloto3stroke poloto3legend" stroke="black" x1="685" x2="685" y1="231.25" y2="231.25" /><path  class="poloto_scatter poloto3stroke" d=" M 650.00 144.52 h 0 M 644.95 142.37 h 0 M 639.90 137.32 h 0 M 634.85 162.99 h 0 M 629.80 146.62 h 0 M 624.75 141.92 h 0 M 619.70 171.12 h 0 M 614.65 164.12 h 0 M 609.60 152.25 h 0 M 604.55 154.30 h 0 M 599.49 176.38 h 0 M 594.44 164.68 h 0 M 589.39 167.76 h 0 M 584.34 185.90 h 0 M 579.29 179.37 h 0 M 574.24 177.90 h 0 M 569.19 181.20 h 0 M 564.14 187.84 h 0 M 559.09 202.13 h 0 M 554.04 207.85 h 0 M 548.99 154.84 h 0 M 543.94 197.66 h 0 M 538.89 196.75 h 0 M 533.84 206.34 h 0 M 528.79 211.15 h 0 M 523.74 223.70 h 0 M 518.69 215.40 h 0 M 513.64 220.42 h 0 M 508.59 209.45 h 0 M 503.54 218.11 h 0 M 498.48 228.67 h 0 M 493.43 232.73 h 0 M 488.38 226.11 h 0 M 483.33 242.75 h 0 M 478.28 243.91 h 0 M 473.23 237.93 h 0 M 468.18 247.70 h 0 M 463.13 239.64 h 0 M 458.08 255.58 h 0 M 453.03 247.25 h 0 M 447.98 240.49 h 0 M 442.93 251.06 h 0 M 437.88 249.57 h 0 M 432.83 253.62 h 0 M 427.78 256.49 h 0 M 422.73 252.43 h 0 M 417.68 248.48 h 0 M 412.63 262.16 h 0 M 407.58 267.03 h 0 M 402.53 272.58 h 0 M 397.47 274.93 h 0 M 392.42 273.49 h 0 M 387.37 278.44 h 0 M 382.32 280.64 h 0 M 377.27 281.77 h 0 M 372.22 271.85 h 0 M 367.17 288.16 h 0 M 362.12 290.13 h 0 M 357.07 292.69 h 0 M 352.02 299.96 h 0 M 346.97 301.18 h 0 M 341.92 305.30 h 0 M 336.87 304.91 h 0 M 331.82 307.10 h 0 M 326.77 312.76 h 0 M 321.72 315.57 h 0 M 316.67 315.80 h 0 M 311.62 319.43 h 0 M 306.57 322.45 h 0 M 301.52 325.05 h 0 M 296.46 325.08 h 0 M 291.41 329.98 h 0 M 286.36 324.65 h 0 M 281.31 334.40 h 0 M 276.26 336.15 h 0 M 271.21 339.86 h 0 M 266.16 341.46 h 0 M 261.11 345.09 h 0 M 256.06 348.53 h 0 M 251.01 351.14 h 0 M 245.96 352.67 h 0 M 240.91 357.54 h 0 M 235.86 355.04 h 0 M 230.81 362.30 h 0 M 225.76 363.63 h 0 M 220.71 366.50 h 0 M 215.66 365.14 h 0 M 210.61 369.04 h 0 M 205.56 371.00 h 0 M 200.51 373.88 h 0 M 195.45 377.05 h 0 M 190.40 379.63 h 0 M 185.35 381.96 h 0 M 180.30 383.31 h 0 M 175.25 387.03 h 0 M 170.20 389.47 h 0 M 165.15 392.13 h 0 M 160.10 394.63 h 0 M 155.05 397.58 h 0 M 150.00 399.99 h 0" /><text  class="poloto_text poloto_legend_text" x="675" y="300" >indirect_par</text><line  class="poloto_scatter poloto_legend_icon poloto4stroke poloto4legend" stroke="black" x1="685" x2="685" y1="281.25" y2="281.25" /><path  class="poloto_scatter poloto4stroke" d=" M 650.00 281.73 h 0 M 644.95 282.37 h 0 M 639.90 280.42 h 0 M 634.85 285.70 h 0 M 629.80 282.63 h 0 M 624.75 288.95 h 0 M 619.70 287.40 h 0 M 614.65 287.82 h 0 M 609.60 293.20 h 0 M 604.55 297.84 h 0 M 599.49 296.78 h 0 M 594.44 303.22 h 0 M 589.39 299.09 h 0 M 584.34 301.64 h 0 M 579.29 254.32 h 0 M 574.24 306.03 h 0 M 569.19 307.88 h 0 M 564.14 302.56 h 0 M 559.09 305.23 h 0 M 554.04 284.88 h 0 M 548.99 308.56 h 0 M 543.94 305.26 h 0 M 538.89 310.42 h 0 M 533.84 309.39 h 0 M 528.79 298.90 h 0 M 523.74 314.44 h 0 M 518.69 314.51 h 0 M 513.64 320.34 h 0 M 508.59 318.01 h 0 M 503.54 318.99 h 0 M 498.48 319.70 h 0 M 493.43 324.79 h 0 M 488.38 318.41 h 0 M 483.33 318.99 h 0 M 478.28 327.40 h 0 M 473.23 323.57 h 0 M 468.18 327.57 h 0 M 463.13 327.79 h 0 M 458.08 330.93 h 0 M 453.03 328.53 h 0 M 447.98 328.85 h 0 M 442.93 331.41 h 0 M 437.88 331.57 h 0 M 432.83 331.30 h 0 M 427.78 331.39 h 0 M 422.73 329.11 h 0 M 417.68 332.66 h 0 M 412.63 333.81 h 0 M 407.58 334.07 h 0 M 402.53 336.24 h 0 M 397.47 338.05 h 0 M 392.42 338.93 h 0 M 387.37 333.48 h 0 M 382.32 340.50 h 0 M 377.27 342.10 h 0 M 372.22 343.49 h 0 M 367.17 343.58 h 0 M 362.12 343.78 h 0 M 357.07 333.39 h 0 M 352.02 346.82 h 0 M 346.97 347.81 h 0 M 341.92 349.12 h 0 M 336.87 351.79 h 0 M 331.82 351.12 h 0 M 326.77 354.42 h 0 M 321.72 356.80 h 0 M 316.67 349.84 h 0 M 311.62 357.97 h 0 M 306.57 361.32 h 0 M 301.52 359.33 h 0 M 296.46 361.02 h 0 M 291.41 357.67 h 0 M 286.36 355.90 h 0 M 281.31 344.28 h 0 M 276.26 368.23 h 0 M 271.21 368.26 h 0 M 266.16 364.52 h 0 M 261.11 367.28 h 0 M 256.06 370.65 h 0 M 251.01 370.65 h 0 M 245.96 373.04 h 0 M 240.91 374.83 h 0 M 235.86 369.11 h 0 M 230.81 375.51 h 0 M 225.76 377.75 h 0 M 220.71 379.39 h 0 M 215.66 379.61 h 0 M 210.61 379.87 h 0 M 205.56 382.06 h 0 M 200.51 382.74 h 0 M 195.45 384.71 h 0 M 190.40 385.82 h 0 M 185.35 385.91 h 0 M 180.30 379.18 h 0 M 175.25 381.44 h 0 M 170.20 385.52 h 0 M 165.15 391.48 h 0 M 160.10 394.52 h 0 M 155.05 397.36 h 0 M 150.00 399.99 h 0" /><text  class="poloto_text poloto_legend_text" x="675" y="350" >indirect_seq</text><line  class="poloto_scatter poloto_legend_icon poloto5stroke poloto5legend" stroke="black" x1="685" x2="685" y1="331.25" y2="331.25" /><path  class="poloto_scatter poloto5stroke" d=" M 650.00 107.22 h 0 M 644.95 129.27 h 0 M 639.90 100.00 h 0 M 634.85 135.27 h 0 M 629.80 114.73 h 0 M 624.75 108.78 h 0 M 619.70 142.13 h 0 M 614.65 145.15 h 0 M 609.60 130.72 h 0 M 604.55 147.42 h 0 M 599.49 129.05 h 0 M 594.44 153.62 h 0 M 589.39 129.79 h 0 M 584.34 146.73 h 0 M 579.29 137.62 h 0 M 574.24 173.35 h 0 M 569.19 130.28 h 0 M 564.14 154.91 h 0 M 559.09 163.09 h 0 M 554.04 165.48 h 0 M 548.99 161.30 h 0 M 543.94 171.12 h 0 M 538.89 194.10 h 0 M 533.84 175.69 h 0 M 528.79 158.80 h 0 M 523.74 177.53 h 0 M 518.69 188.71 h 0 M 513.64 181.10 h 0 M 508.59 207.16 h 0 M 503.54 195.57 h 0 M 498.48 181.98 h 0 M 493.43 201.03 h 0 M 488.38 208.30 h 0 M 483.33 224.49 h 0 M 478.28 213.76 h 0 M 473.23 225.79 h 0 M 468.18 221.81 h 0 M 463.13 230.50 h 0 M 458.08 221.88 h 0 M 453.03 226.87 h 0 M 447.98 230.07 h 0 M 442.93 239.49 h 0 M 437.88 234.26 h 0 M 432.83 242.97 h 0 M 427.78 239.60 h 0 M 422.73 243.60 h 0 M 417.68 237.09 h 0 M 412.63 244.12 h 0 M 407.58 248.40 h 0 M 402.53 251.83 h 0 M 397.47 251.00 h 0 M 392.42 265.93 h 0 M 387.37 259.68 h 0 M 382.32 262.45 h 0 M 377.27 268.66 h 0 M 372.22 259.45 h 0 M 367.17 261.84 h 0 M 362.12 275.96 h 0 M 357.07 283.87 h 0 M 352.02 289.57 h 0 M 346.97 281.04 h 0 M 341.92 290.76 h 0 M 336.87 292.78 h 0 M 331.82 293.83 h 0 M 326.77 296.43 h 0 M 321.72 305.94 h 0 M 316.67 292.99 h 0 M 311.62 306.30 h 0 M 306.57 314.20 h 0 M 301.52 316.72 h 0 M 296.46 316.02 h 0 M 291.41 321.61 h 0 M 286.36 322.93 h 0 M 281.31 324.99 h 0 M 276.26 327.99 h 0 M 271.21 331.14 h 0 M 266.16 335.36 h 0 M 261.11 338.73 h 0 M 256.06 342.40 h 0 M 251.01 344.90 h 0 M 245.96 348.45 h 0 M 240.91 351.36 h 0 M 235.86 354.77 h 0 M 230.81 357.60 h 0 M 225.76 360.81 h 0 M 220.71 363.34 h 0 M 215.66 361.69 h 0 M 210.61 363.33 h 0 M 205.56 368.38 h 0 M 200.51 369.67 h 0 M 195.45 375.37 h 0 M 190.40 375.66 h 0 M 185.35 379.48 h 0 M 180.30 382.98 h 0 M 175.25 385.13 h 0 M 170.20 389.87 h 0 M 165.15 391.27 h 0 M 160.10 394.37 h 0 M 155.05 397.32 h 0 M 150.00 399.99 h 0" /><text  class="poloto_labels poloto_text poloto_title" x="400" y="37.5" >Bench of query:8_bytes with abspiral(num,1.5)</text><text  class="poloto_labels poloto_text poloto_xname" x="400" y="481.25" >Number of Elements</text><text  class="poloto_labels poloto_text poloto_yname" transform="rotate(-90,37.5,250)" x="37.5" y="250" >Time in Seconds</text><text  class="poloto_tick_labels poloto_text" dominant-baseline="middle" text-anchor="start" x="150" y="70" ></text><line  class="poloto_axis_lines" stroke="black" x1="150" x2="144" y1="400" y2="400" /><text  class="poloto_tick_labels poloto_text" dominant-baseline="middle" text-anchor="end" x="135" y="400" >0e0</text><line  class="poloto_axis_lines" stroke="black" x1="150" x2="144" y1="357.3385634358497" y2="357.3385634358497" /><text  class="poloto_tick_labels poloto_text" dominant-baseline="middle" text-anchor="end" x="135" y="357.3385634358497" >0.0005</text><line  class="poloto_axis_lines" stroke="black" x1="150" x2="144" y1="314.67712687169944" y2="314.67712687169944" /><text  class="poloto_tick_labels poloto_text" dominant-baseline="middle" text-anchor="end" x="135" y="314.67712687169944" >0.0010</text><line  class="poloto_axis_lines" stroke="black" x1="150" x2="144" y1="272.0156903075491" y2="272.0156903075491" /><text  class="poloto_tick_labels poloto_text" dominant-baseline="middle" text-anchor="end" x="135" y="272.0156903075491" >0.0015</text><line  class="poloto_axis_lines" stroke="black" x1="150" x2="144" y1="229.35425374339889" y2="229.35425374339889" /><text  class="poloto_tick_labels poloto_text" dominant-baseline="middle" text-anchor="end" x="135" y="229.35425374339889" >0.0020</text><line  class="poloto_axis_lines" stroke="black" x1="150" x2="144" y1="186.69281717924855" y2="186.69281717924855" /><text  class="poloto_tick_labels poloto_text" dominant-baseline="middle" text-anchor="end" x="135" y="186.69281717924855" >0.0025</text><line  class="poloto_axis_lines" stroke="black" x1="150" x2="144" y1="144.03138061509827" y2="144.03138061509827" /><text  class="poloto_tick_labels poloto_text" dominant-baseline="middle" text-anchor="end" x="135" y="144.03138061509827" >0.0030</text><line  class="poloto_axis_lines" stroke="black" x1="150" x2="144" y1="101.36994405094799" y2="101.36994405094799" /><text  class="poloto_tick_labels poloto_text" dominant-baseline="middle" text-anchor="end" x="135" y="101.36994405094799" >0.0035</text><text  class="poloto_tick_labels poloto_text" dominant-baseline="middle" text-anchor="start" x="440.00000000000006" y="70" ></text><line  class="poloto_axis_lines" stroke="black" x1="150" x2="150" y1="400" y2="405" /><text  class="poloto_tick_labels poloto_text" dominant-baseline="start" text-anchor="middle" x="150" y="430" >0</text><line  class="poloto_axis_lines" stroke="black" x1="234.17508417508418" x2="234.17508417508418" y1="400" y2="405" /><text  class="poloto_tick_labels poloto_text" dominant-baseline="start" text-anchor="middle" x="234.17508417508418" y="430" >5000</text><line  class="poloto_axis_lines" stroke="black" x1="318.35016835016836" x2="318.35016835016836" y1="400" y2="405" /><text  class="poloto_tick_labels poloto_text" dominant-baseline="start" text-anchor="middle" x="318.35016835016836" y="430" >10000</text><line  class="poloto_axis_lines" stroke="black" x1="402.52525252525254" x2="402.52525252525254" y1="400" y2="405" /><text  class="poloto_tick_labels poloto_text" dominant-baseline="start" text-anchor="middle" x="402.52525252525254" y="430" >15000</text><line  class="poloto_axis_lines" stroke="black" x1="486.7003367003367" x2="486.7003367003367" y1="400" y2="405" /><text  class="poloto_tick_labels poloto_text" dominant-baseline="start" text-anchor="middle" x="486.7003367003367" y="430" >20000</text><line  class="poloto_axis_lines" stroke="black" x1="570.8754208754208" x2="570.8754208754208" y1="400" y2="405" /><text  class="poloto_tick_labels poloto_text" dominant-baseline="start" text-anchor="middle" x="570.8754208754208" y="430" >25000</text><path  stroke="black" fill="none" class="poloto_axis_lines" style="stroke-dasharray:8.417508417508419;stroke-dashoffset:-0;" d=" M 150 400 L 650 400" /><path  stroke="black" fill="none" class="poloto_axis_lines" style="stroke-dasharray:4.266143656415029;stroke-dashoffset:-0;" d=" M 150 400 L 150 100" /></svg>