<svg class="poloto" width="800" height="500" viewBox="0 0 800 500" xmlns="http://www.w3.org/2000/svg"><circle  r="1e5" class="poloto_background" /><text  class="poloto_text poloto_legend_text" x="675" y="100" >default_par</text><line  class="poloto_scatter poloto_legend_icon poloto0stroke poloto0legend" stroke="black" x1="685" x2="685" y1="81.25" y2="81.25" /><path  class="poloto_scatter poloto0stroke" d=" M 650.00 340.83 h 0 M 644.95 344.80 h 0 M 639.90 344.09 h 0 M 634.85 342.28 h 0 M 629.80 338.93 h 0 M 624.75 343.49 h 0 M 619.70 346.15 h 0 M 614.65 347.55 h 0 M 609.60 346.51 h 0 M 604.55 344.45 h 0 M 599.49 341.31 h 0 M 594.44 349.14 h 0 M 589.39 349.61 h 0 M 584.34 350.34 h 0 M 579.29 348.18 h 0 M 574.24 347.99 h 0 M 569.19 352.19 h 0 M 564.14 349.93 h 0 M 559.09 349.95 h 0 M 554.04 352.25 h 0 M 548.99 353.37 h 0 M 543.94 352.89 h 0 M 538.89 353.43 h 0 M 533.84 353.34 h 0 M 528.79 351.96 h 0 M 523.74 359.10 h 0 M 518.69 349.49 h 0 M 513.64 351.89 h 0 M 508.59 347.00 h 0 M 503.54 360.34 h 0 M 498.48 358.79 h 0 M 493.43 358.82 h 0 M 488.38 361.00 h 0 M 483.33 361.72 h 0 M 478.28 347.71 h 0 M 473.23 361.55 h 0 M 468.18 363.81 h 0 M 463.13 364.07 h 0 M 458.08 362.13 h 0 M 453.03 364.90 h 0 M 447.98 362.95 h 0 M 442.93 363.74 h 0 M 437.88 367.73 h 0 M 432.83 365.73 h 0 M 427.78 366.56 h 0 M 422.73 368.56 h 0 M 417.68 371.21 h 0 M 412.63 372.03 h 0 M 407.58 373.86 h 0 M 402.53 372.09 h 0 M 397.47 365.57 h 0 M 392.42 372.25 h 0 M 387.37 371.62 h 0 M 382.32 373.04 h 0 M 377.27 376.02 h 0 M 372.22 375.57 h 0 M 367.17 375.45 h 0 M 362.12 375.37 h 0 M 357.07 375.50 h 0 M 352.02 377.57 h 0 M 346.97 376.80 h 0 M 341.92 373.49 h 0 M 336.87 379.22 h 0 M 331.82 380.79 h 0 M 326.77 380.26 h 0 M 321.72 381.95 h 0 M 316.67 381.46 h 0 M 311.62 380.70 h 0 M 306.57 381.26 h 0 M 301.52 381.86 h 0 M 296.46 382.12 h 0 M 291.41 383.03 h 0 M 286.36 385.69 h 0 M 281.31 385.97 h 0 M 276.26 376.72 h 0 M 271.21 386.66 h 0 M 266.16 385.23 h 0 M 261.11 387.85 h 0 M 256.06 387.17 h 0 M 251.01 386.71 h 0 M 245.96 386.29 h 0 M 240.91 387.18 h 0 M 235.86 387.15 h 0 M 230.81 387.60 h 0 M 225.76 388.66 h 0 M 220.71 388.96 h 0 M 215.66 386.69 h 0 M 210.61 388.94 h 0 M 205.56 391.90 h 0 M 200.51 392.24 h 0 M 195.45 392.74 h 0 M 190.40 392.03 h 0 M 185.35 391.87 h 0 M 180.30 394.48 h 0 M 175.25 395.89 h 0 M 170.20 396.63 h 0 M 165.15 397.95 h 0 M 160.10 398.64 h 0 M 155.05 399.39 h 0 M 150.00 400.00 h 0" /><text  class="poloto_text poloto_legend_text" x="675" y="150" >default_seq</text><line  class="poloto_scatter poloto_legend_icon poloto1stroke poloto1legend" stroke="black" x1="685" x2="685" y1="131.25" y2="131.25" /><path  class="poloto_scatter poloto1stroke" d=" M 650.00 269.82 h 0 M 644.95 270.69 h 0 M 639.90 271.27 h 0 M 634.85 269.42 h 0 M 629.80 275.70 h 0 M 624.75 276.02 h 0 M 619.70 277.24 h 0 M 614.65 280.28 h 0 M 609.60 278.66 h 0 M 604.55 271.94 h 0 M 599.49 280.91 h 0 M 594.44 285.03 h 0 M 589.39 287.39 h 0 M 584.34 288.16 h 0 M 579.29 287.22 h 0 M 574.24 290.60 h 0 M 569.19 288.26 h 0 M 564.14 291.16 h 0 M 559.09 290.61 h 0 M 554.04 296.45 h 0 M 548.99 294.85 h 0 M 543.94 300.58 h 0 M 538.89 299.50 h 0 M 533.84 299.77 h 0 M 528.79 299.94 h 0 M 523.74 300.91 h 0 M 518.69 302.69 h 0 M 513.64 304.20 h 0 M 508.59 306.16 h 0 M 503.54 306.86 h 0 M 498.48 309.14 h 0 M 493.43 310.24 h 0 M 488.38 312.62 h 0 M 483.33 313.48 h 0 M 478.28 312.60 h 0 M 473.23 318.20 h 0 M 468.18 317.84 h 0 M 463.13 319.01 h 0 M 458.08 316.94 h 0 M 453.03 321.39 h 0 M 447.98 323.84 h 0 M 442.93 321.89 h 0 M 437.88 327.44 h 0 M 432.83 327.40 h 0 M 427.78 325.57 h 0 M 422.73 333.09 h 0 M 417.68 335.10 h 0 M 412.63 335.80 h 0 M 407.58 337.33 h 0 M 402.53 342.28 h 0 M 397.47 341.07 h 0 M 392.42 342.21 h 0 M 387.37 342.70 h 0 M 382.32 345.84 h 0 M 377.27 345.05 h 0 M 372.22 344.30 h 0 M 367.17 349.06 h 0 M 362.12 347.40 h 0 M 357.07 351.54 h 0 M 352.02 351.14 h 0 M 346.97 354.45 h 0 M 341.92 354.08 h 0 M 336.87 354.93 h 0 M 331.82 357.14 h 0 M 326.77 359.00 h 0 M 321.72 358.50 h 0 M 316.67 360.12 h 0 M 311.62 360.37 h 0 M 306.57 362.87 h 0 M 301.52 363.57 h 0 M 296.46 365.18 h 0 M 291.41 366.47 h 0 M 286.36 370.02 h 0 M 281.31 370.58 h 0 M 276.26 372.65 h 0 M 271.21 373.54 h 0 M 266.16 374.95 h 0 M 261.11 376.10 h 0 M 256.06 378.17 h 0 M 251.01 378.87 h 0 M 245.96 378.89 h 0 M 240.91 380.02 h 0 M 235.86 380.35 h 0 M 230.81 382.47 h 0 M 225.76 383.53 h 0 M 220.71 385.11 h 0 M 215.66 387.33 h 0 M 210.61 388.55 h 0 M 205.56 389.12 h 0 M 200.51 389.83 h 0 M 195.45 390.98 h 0 M 190.40 392.19 h 0 M 185.35 393.05 h 0 M 180.30 394.62 h 0 M 175.25 395.59 h 0 M 170.20 396.44 h 0 M 165.15 397.91 h 0 M 160.10 398.51 h 0 M 155.05 399.32 h 0 M 150.00 400.00 h 0" /><text  class="poloto_text poloto_legend_text" x="675" y="200" >direct_par</text><line  class="poloto_scatter poloto_legend_icon poloto2stroke poloto2legend" stroke="black" x1="685" x2="685" y1="181.25" y2="181.25" /><path  class="poloto_scatter poloto2stroke" d=" M 650.00 260.35 h 0 M 644.95 262.13 h 0 M 639.90 257.83 h 0 M 634.85 265.58 h 0 M 629.80 259.36 h 0 M 624.75 257.85 h 0 M 619.70 273.03 h 0 M 614.65 267.90 h 0 M 609.60 260.79 h 0 M 604.55 249.41 h 0 M 599.49 275.87 h 0 M 594.44 278.28 h 0 M 589.39 278.87 h 0 M 584.34 277.76 h 0 M 579.29 281.62 h 0 M 574.24 281.87 h 0 M 569.19 290.20 h 0 M 564.14 284.28 h 0 M 559.09 288.94 h 0 M 554.04 295.12 h 0 M 548.99 294.42 h 0 M 543.94 297.21 h 0 M 538.89 296.00 h 0 M 533.84 293.71 h 0 M 528.79 290.76 h 0 M 523.74 293.59 h 0 M 518.69 299.23 h 0 M 513.64 271.81 h 0 M 508.59 281.74 h 0 M 503.54 270.27 h 0 M 498.48 301.81 h 0 M 493.43 305.24 h 0 M 488.38 310.75 h 0 M 483.33 308.43 h 0 M 478.28 285.53 h 0 M 473.23 278.72 h 0 M 468.18 313.95 h 0 M 463.13 315.64 h 0 M 458.08 313.40 h 0 M 453.03 316.10 h 0 M 447.98 319.77 h 0 M 442.93 320.41 h 0 M 437.88 324.64 h 0 M 432.83 321.62 h 0 M 427.78 326.64 h 0 M 422.73 330.79 h 0 M 417.68 331.25 h 0 M 412.63 321.43 h 0 M 407.58 335.58 h 0 M 402.53 333.16 h 0 M 397.47 336.27 h 0 M 392.42 334.88 h 0 M 387.37 302.07 h 0 M 382.32 332.93 h 0 M 377.27 338.05 h 0 M 372.22 340.77 h 0 M 367.17 341.48 h 0 M 362.12 336.38 h 0 M 357.07 342.44 h 0 M 352.02 347.03 h 0 M 346.97 342.54 h 0 M 341.92 349.39 h 0 M 336.87 347.20 h 0 M 331.82 352.51 h 0 M 326.77 353.64 h 0 M 321.72 356.09 h 0 M 316.67 355.60 h 0 M 311.62 356.33 h 0 M 306.57 357.31 h 0 M 301.52 358.44 h 0 M 296.46 358.18 h 0 M 291.41 361.36 h 0 M 286.36 365.07 h 0 M 281.31 367.85 h 0 M 276.26 368.26 h 0 M 271.21 367.67 h 0 M 266.16 370.87 h 0 M 261.11 342.81 h 0 M 256.06 366.91 h 0 M 251.01 370.70 h 0 M 245.96 371.10 h 0 M 240.91 371.52 h 0 M 235.86 372.41 h 0 M 230.81 373.06 h 0 M 225.76 376.45 h 0 M 220.71 376.37 h 0 M 215.66 373.83 h 0 M 210.61 374.74 h 0 M 205.56 381.22 h 0 M 200.51 382.52 h 0 M 195.45 383.65 h 0 M 190.40 384.78 h 0 M 185.35 385.18 h 0 M 180.30 389.16 h 0 M 175.25 391.45 h 0 M 170.20 392.82 h 0 M 165.15 395.67 h 0 M 160.10 397.08 h 0 M 155.05 398.72 h 0 M 150.00 399.99 h 0" /><text  class="poloto_text poloto_legend_text" x="675" y="250" >direct_seq</text><line  class="poloto_scatter poloto_legend_icon poloto3stroke poloto3legend" stroke="black" x1="685" x2="685" y1="231.25" y2="231.25" /><path  class="poloto_scatter poloto3stroke" d=" M 650.00 100.72 h 0 M 644.95 114.97 h 0 M 639.90 116.07 h 0 M 634.85 121.13 h 0 M 629.80 122.41 h 0 M 624.75 118.58 h 0 M 619.70 129.28 h 0 M 614.65 134.90 h 0 M 609.60 135.03 h 0 M 604.55 136.36 h 0 M 599.49 143.06 h 0 M 594.44 144.85 h 0 M 589.39 151.67 h 0 M 584.34 153.82 h 0 M 579.29 153.32 h 0 M 574.24 163.33 h 0 M 569.19 150.68 h 0 M 564.14 164.92 h 0 M 559.09 167.33 h 0 M 554.04 174.31 h 0 M 548.99 173.63 h 0 M 543.94 183.19 h 0 M 538.89 180.85 h 0 M 533.84 184.60 h 0 M 528.79 187.32 h 0 M 523.74 189.82 h 0 M 518.69 192.27 h 0 M 513.64 177.85 h 0 M 508.59 173.84 h 0 M 503.54 198.83 h 0 M 498.48 206.47 h 0 M 493.43 208.22 h 0 M 488.38 215.69 h 0 M 483.33 215.62 h 0 M 478.28 217.25 h 0 M 473.23 220.57 h 0 M 468.18 222.48 h 0 M 463.13 230.32 h 0 M 458.08 227.68 h 0 M 453.03 224.03 h 0 M 447.98 237.74 h 0 M 442.93 238.56 h 0 M 437.88 243.36 h 0 M 432.83 244.82 h 0 M 427.78 249.49 h 0 M 422.73 263.58 h 0 M 417.68 266.46 h 0 M 412.63 263.97 h 0 M 407.58 268.86 h 0 M 402.53 275.34 h 0 M 397.47 275.02 h 0 M 392.42 276.25 h 0 M 387.37 280.29 h 0 M 382.32 284.80 h 0 M 377.27 285.35 h 0 M 372.22 287.13 h 0 M 367.17 293.32 h 0 M 362.12 293.39 h 0 M 357.07 297.31 h 0 M 352.02 299.47 h 0 M 346.97 303.68 h 0 M 341.92 305.33 h 0 M 336.87 306.51 h 0 M 331.82 309.96 h 0 M 326.77 314.30 h 0 M 321.72 314.30 h 0 M 316.67 318.69 h 0 M 311.62 320.02 h 0 M 306.57 322.75 h 0 M 301.52 325.65 h 0 M 296.46 328.52 h 0 M 291.41 331.39 h 0 M 286.36 337.55 h 0 M 281.31 339.01 h 0 M 276.26 340.94 h 0 M 271.21 344.39 h 0 M 266.16 347.96 h 0 M 261.11 350.56 h 0 M 256.06 352.27 h 0 M 251.01 354.92 h 0 M 245.96 356.94 h 0 M 240.91 358.76 h 0 M 235.86 360.07 h 0 M 230.81 363.98 h 0 M 225.76 365.91 h 0 M 220.71 368.72 h 0 M 215.66 373.73 h 0 M 210.61 375.97 h 0 M 205.56 377.53 h 0 M 200.51 379.70 h 0 M 195.45 381.46 h 0 M 190.40 383.78 h 0 M 185.35 384.86 h 0 M 180.30 388.93 h 0 M 175.25 390.73 h 0 M 170.20 391.97 h 0 M 165.15 395.47 h 0 M 160.10 396.76 h 0 M 155.05 398.55 h 0 M 150.00 399.98 h 0" /><text  class="poloto_text poloto_legend_text" x="675" y="300" >indirect_par</text><line  class="poloto_scatter poloto_legend_icon poloto4stroke poloto4legend" stroke="black" x1="685" x2="685" y1="281.25" y2="281.25" /><path  class="poloto_scatter poloto4stroke" d=" M 650.00 232.45 h 0 M 644.95 194.16 h 0 M 639.90 258.23 h 0 M 634.85 269.71 h 0 M 629.80 263.74 h 0 M 624.75 264.35 h 0 M 619.70 264.52 h 0 M 614.65 275.26 h 0 M 609.60 265.91 h 0 M 604.55 279.39 h 0 M 599.49 277.99 h 0 M 594.44 278.25 h 0 M 589.39 264.32 h 0 M 584.34 279.86 h 0 M 579.29 286.22 h 0 M 574.24 284.38 h 0 M 569.19 300.16 h 0 M 564.14 299.60 h 0 M 559.09 288.92 h 0 M 554.04 303.97 h 0 M 548.99 304.51 h 0 M 543.94 306.79 h 0 M 538.89 295.16 h 0 M 533.84 294.86 h 0 M 528.79 296.22 h 0 M 523.74 301.86 h 0 M 518.69 311.66 h 0 M 513.64 267.01 h 0 M 508.59 251.01 h 0 M 503.54 282.54 h 0 M 498.48 314.48 h 0 M 493.43 303.03 h 0 M 488.38 305.55 h 0 M 483.33 312.99 h 0 M 478.28 299.51 h 0 M 473.23 318.02 h 0 M 468.18 318.47 h 0 M 463.13 317.89 h 0 M 458.08 321.07 h 0 M 453.03 323.54 h 0 M 447.98 329.84 h 0 M 442.93 322.30 h 0 M 437.88 328.93 h 0 M 432.83 324.90 h 0 M 427.78 336.47 h 0 M 422.73 334.56 h 0 M 417.68 337.98 h 0 M 412.63 337.10 h 0 M 407.58 342.93 h 0 M 402.53 341.47 h 0 M 397.47 341.51 h 0 M 392.42 342.47 h 0 M 387.37 334.85 h 0 M 382.32 339.52 h 0 M 377.27 347.58 h 0 M 372.22 347.14 h 0 M 367.17 354.68 h 0 M 362.12 356.68 h 0 M 357.07 355.59 h 0 M 352.02 359.57 h 0 M 346.97 358.04 h 0 M 341.92 355.33 h 0 M 336.87 357.65 h 0 M 331.82 364.35 h 0 M 326.77 365.43 h 0 M 321.72 342.27 h 0 M 316.67 364.84 h 0 M 311.62 366.45 h 0 M 306.57 366.01 h 0 M 301.52 368.28 h 0 M 296.46 370.11 h 0 M 291.41 369.62 h 0 M 286.36 372.56 h 0 M 281.31 371.26 h 0 M 276.26 373.65 h 0 M 271.21 375.77 h 0 M 266.16 377.88 h 0 M 261.11 375.89 h 0 M 256.06 377.36 h 0 M 251.01 380.06 h 0 M 245.96 379.30 h 0 M 240.91 377.18 h 0 M 235.86 382.27 h 0 M 230.81 383.12 h 0 M 225.76 384.97 h 0 M 220.71 384.15 h 0 M 215.66 381.94 h 0 M 210.61 383.68 h 0 M 205.56 388.64 h 0 M 200.51 388.88 h 0 M 195.45 389.82 h 0 M 190.40 390.41 h 0 M 185.35 390.57 h 0 M 180.30 393.19 h 0 M 175.25 394.87 h 0 M 170.20 395.73 h 0 M 165.15 397.43 h 0 M 160.10 398.39 h 0 M 155.05 399.32 h 0 M 150.00 400.00 h 0" /><text  class="poloto_text poloto_legend_text" x="675" y="350" >indirect_seq</text><line  class="poloto_scatter poloto_legend_icon poloto5stroke poloto5legend" stroke="black" x1="685" x2="685" y1="331.25" y2="331.25" /><path  class="poloto_scatter poloto5stroke" d=" M 650.00 121.07 h 0 M 644.95 100.00 h 0 M 639.90 120.49 h 0 M 634.85 122.17 h 0 M 629.80 137.08 h 0 M 624.75 140.41 h 0 M 619.70 135.64 h 0 M 614.65 147.16 h 0 M 609.60 139.47 h 0 M 604.55 141.67 h 0 M 599.49 150.88 h 0 M 594.44 157.74 h 0 M 589.39 165.26 h 0 M 584.34 171.79 h 0 M 579.29 160.56 h 0 M 574.24 178.65 h 0 M 569.19 174.55 h 0 M 564.14 180.49 h 0 M 559.09 177.27 h 0 M 554.04 191.75 h 0 M 548.99 186.34 h 0 M 543.94 202.09 h 0 M 538.89 197.05 h 0 M 533.84 200.92 h 0 M 528.79 197.96 h 0 M 523.74 206.08 h 0 M 518.69 206.90 h 0 M 513.64 163.88 h 0 M 508.59 195.59 h 0 M 503.54 197.46 h 0 M 498.48 222.45 h 0 M 493.43 225.54 h 0 M 488.38 234.68 h 0 M 483.33 231.21 h 0 M 478.28 235.37 h 0 M 473.23 246.03 h 0 M 468.18 243.82 h 0 M 463.13 248.87 h 0 M 458.08 247.69 h 0 M 453.03 253.68 h 0 M 447.98 256.55 h 0 M 442.93 255.33 h 0 M 437.88 264.30 h 0 M 432.83 263.99 h 0 M 427.78 269.77 h 0 M 422.73 274.98 h 0 M 417.68 278.40 h 0 M 412.63 280.88 h 0 M 407.58 284.44 h 0 M 402.53 292.73 h 0 M 397.47 290.89 h 0 M 392.42 292.01 h 0 M 387.37 294.12 h 0 M 382.32 301.85 h 0 M 377.27 300.08 h 0 M 372.22 302.98 h 0 M 367.17 309.46 h 0 M 362.12 308.26 h 0 M 357.07 310.80 h 0 M 352.02 316.73 h 0 M 346.97 320.36 h 0 M 341.92 320.72 h 0 M 336.87 322.82 h 0 M 331.82 324.68 h 0 M 326.77 329.71 h 0 M 321.72 330.87 h 0 M 316.67 332.48 h 0 M 311.62 334.95 h 0 M 306.57 338.41 h 0 M 301.52 339.12 h 0 M 296.46 343.04 h 0 M 291.41 345.40 h 0 M 286.36 349.26 h 0 M 281.31 351.47 h 0 M 276.26 353.23 h 0 M 271.21 356.44 h 0 M 266.16 360.47 h 0 M 261.11 362.54 h 0 M 256.06 364.40 h 0 M 251.01 367.12 h 0 M 245.96 367.23 h 0 M 240.91 369.26 h 0 M 235.86 369.68 h 0 M 230.81 374.90 h 0 M 225.76 375.32 h 0 M 220.71 378.02 h 0 M 215.66 380.34 h 0 M 210.61 382.74 h 0 M 205.56 384.22 h 0 M 200.51 385.28 h 0 M 195.45 387.24 h 0 M 190.40 389.39 h 0 M 185.35 389.80 h 0 M 180.30 392.98 h 0 M 175.25 393.70 h 0 M 170.20 395.59 h 0 M 165.15 397.33 h 0 M 160.10 398.19 h 0 M 155.05 399.19 h 0 M 150.00 399.99 h 0" /><text  class="poloto_labels poloto_text poloto_title" x="400" y="37.5" >Bench of rebal:128_bytes with abspiral(num,2.1)</text><text  class="poloto_labels poloto_text poloto_xname" x="400" y="481.25" >Number of Elements</text><text  class="poloto_labels poloto_text poloto_yname" transform="rotate(-90,37.5,250)" x="37.5" y="250" >Time in Seconds</text><text  class="poloto_tick_labels poloto_text" dominant-baseline="middle" text-anchor="start" x="150" y="70" ></text><line  class="poloto_axis_lines" stroke="black" x1="150" x2="144" y1="400" y2="400" /><text  class="poloto_tick_labels poloto_text" dominant-baseline="middle" text-anchor="end" x="135" y="400" >0e0</text><line  class="poloto_axis_lines" stroke="black" x1="150" x2="144" y1="300.77077950837213" y2="300.77077950837213" /><text  class="poloto_tick_labels poloto_text" dominant-baseline="middle" text-anchor="end" x="135" y="300.77077950837213" >0.002</text><line  class="poloto_axis_lines" stroke="black" x1="150" x2="144" y1="201.54155901674426" y2="201.54155901674426" /><text  class="poloto_tick_labels poloto_text" dominant-baseline="middle" text-anchor="end" x="135" y="201.54155901674426" >0.004</text><line  class="poloto_axis_lines" stroke="black" x1="150" x2="144" y1="102.31233852511644" y2="102.31233852511644" /><text  class="poloto_tick_labels poloto_text" dominant-baseline="middle" text-anchor="end" x="135" y="102.31233852511644" >0.006</text><text  class="poloto_tick_labels poloto_text" dominant-baseline="middle" text-anchor="start" x="440.00000000000006" y="70" ></text><line  class="poloto_axis_lines" stroke="black" x1="150" x2="150" y1="400" y2="405" /><text  class="poloto_tick_labels poloto_text" dominant-baseline="start" text-anchor="middle" x="150" y="430" >0</text><line  class="poloto_axis_lines" stroke="black" x1="234.17508417508418" x2="234.17508417508418" y1="400" y2="405" /><text  class="poloto_tick_labels poloto_text" dominant-baseline="start" text-anchor="middle" x="234.17508417508418" y="430" >5000</text><line  class="poloto_axis_lines" stroke="black" x1="318.35016835016836" x2="318.35016835016836" y1="400" y2="405" /><text  class="poloto_tick_labels poloto_text" dominant-baseline="start" text-anchor="middle" x="318.35016835016836" y="430" >10000</text><line  class="poloto_axis_lines" stroke="black" x1="402.52525252525254" x2="402.52525252525254" y1="400" y2="405" /><text  class="poloto_tick_labels poloto_text" dominant-baseline="start" text-anchor="middle" x="402.52525252525254" y="430" >15000</text><line  class="poloto_axis_lines" stroke="black" x1="486.7003367003367" x2="486.7003367003367" y1="400" y2="405" /><text  class="poloto_tick_labels poloto_text" dominant-baseline="start" text-anchor="middle" x="486.7003367003367" y="430" >20000</text><line  class="poloto_axis_lines" stroke="black" x1="570.8754208754208" x2="570.8754208754208" y1="400" y2="405" /><text  class="poloto_tick_labels poloto_text" dominant-baseline="start" text-anchor="middle" x="570.8754208754208" y="430" >25000</text><path  stroke="black" fill="none" class="poloto_axis_lines" style="stroke-dasharray:8.417508417508419;stroke-dashoffset:-0;" d=" M 150 400 L 650 400" /><path  stroke="black" fill="none" class="poloto_axis_lines" style="stroke-dasharray:12.403652561453482;stroke-dashoffset:-0;" d=" M 150 400 L 150 100" /></svg>