<svg class="poloto" height="500" viewBox="0 0 800 500" width="800" xmlns="http://www.w3.org/2000/svg">
<rect class="poloto_background" fill="white" height="500" width="800" x="0" y="0"/>
<style>
.poloto {
font-family: "Arial";
stroke-width:2;
}
.poloto_text{fill: var(--poloto_fg_color,black);  }
.poloto_axis_lines{stroke: var(--poloto_fg_color,black);stoke-width:3;fill:none}
.poloto_background{fill: var(--poloto_bg_color,aliceblue); }
.poloto0stroke{stroke:  var(--poloto_color0,blue); }
.poloto1stroke{stroke:  var(--poloto_color1,red); }
.poloto2stroke{stroke:  var(--poloto_color2,green); }
.poloto3stroke{stroke:  var(--poloto_color3,gold); }
.poloto4stroke{stroke:  var(--poloto_color4,aqua); }
.poloto5stroke{stroke:  var(--poloto_color5,brown); }
.poloto6stroke{stroke:  var(--poloto_color6,lime); }
.poloto7stroke{stroke:  var(--poloto_color7,chocolate); }
.poloto0fill{fill:var(--poloto_color0,blue);}
.poloto1fill{fill:var(--poloto_color1,red);}
.poloto2fill{fill:var(--poloto_color2,green);}
.poloto3fill{fill:var(--poloto_color3,gold);}
.poloto4fill{fill:var(--poloto_color4,aqua);}
.poloto5fill{fill:var(--poloto_color5,brown);}
.poloto6fill{fill:var(--poloto_color6,lime);}
.poloto7fill{fill:var(--poloto_color7,chocolate);}
</style>
<line class="poloto_axis_lines" stroke="black" x1="150" x2="150" y1="400" y2="405"/>
<text alignment-baseline="start" class="poloto_text" text-anchor="middle" x="150" y="440">
0
</text>
<line class="poloto_axis_lines" stroke="black" x1="234.17508" x2="234.17508" y1="400" y2="405"/>
<text alignment-baseline="start" class="poloto_text" text-anchor="middle" x="234.17508" y="440">
5000
</text>
<line class="poloto_axis_lines" stroke="black" x1="318.35016" x2="318.35016" y1="400" y2="405"/>
<text alignment-baseline="start" class="poloto_text" text-anchor="middle" x="318.35016" y="440">
10000
</text>
<line class="poloto_axis_lines" stroke="black" x1="402.52527" x2="402.52527" y1="400" y2="405"/>
<text alignment-baseline="start" class="poloto_text" text-anchor="middle" x="402.52527" y="440">
15000
</text>
<line class="poloto_axis_lines" stroke="black" x1="486.70035" x2="486.70035" y1="400" y2="405"/>
<text alignment-baseline="start" class="poloto_text" text-anchor="middle" x="486.70035" y="440">
20000
</text>
<line class="poloto_axis_lines" stroke="black" x1="570.8754" x2="570.8754" y1="400" y2="405"/>
<text alignment-baseline="start" class="poloto_text" text-anchor="middle" x="570.8754" y="440">
25000
</text>
<line class="poloto_axis_lines" stroke="black" x1="150" x2="144" y1="342.99887" y2="342.99887"/>
<text alignment-baseline="middle" class="poloto_text" text-anchor="end" x="120" y="342.99887">
0.01
</text>
<line class="poloto_axis_lines" stroke="black" x1="150" x2="144" y1="285.99713" y2="285.99713"/>
<text alignment-baseline="middle" class="poloto_text" text-anchor="end" x="120" y="285.99713">
0.02
</text>
<line class="poloto_axis_lines" stroke="black" x1="150" x2="144" y1="228.99542" y2="228.99542"/>
<text alignment-baseline="middle" class="poloto_text" text-anchor="end" x="120" y="228.99542">
0.03
</text>
<line class="poloto_axis_lines" stroke="black" x1="150" x2="144" y1="171.99368" y2="171.99368"/>
<text alignment-baseline="middle" class="poloto_text" text-anchor="end" x="120" y="171.99368">
0.04
</text>
<line class="poloto_axis_lines" stroke="black" x1="150" x2="144" y1="114.991974" y2="114.991974"/>
<text alignment-baseline="middle" class="poloto_text" text-anchor="end" x="120" y="114.991974">
0.05
</text>
<text alignment-baseline="middle" class="poloto_text" font-size="large" text-anchor="start" x="675" y="100">
default_par
</text>
<line class="poloto0stroke" x1="680" x2="730" y1="81.25" y2="81.25"/>
<polyline class="poloto0stroke" fill="none" points="650,306.9592 644.94946,307.93948 639.899,306.56314 634.8485,281.78394 629.798,310.89532 624.7475,310.83655 619.697,312.1643 614.6465,311.43738 609.59595,287.97662 604.5455,311.8202 599.495,316.1429 594.44446,316.16855 589.3939,314.38663 584.34344,319.10028 579.29297,318.85577 574.24243,316.13623 569.1919,322.5277 564.1414,318.5279 559.09094,323.15045 554.0404,231.56584 548.98987,322.76636 543.9394,322.31555 538.8889,306.95746 533.8384,307.90857 528.78784,315.18323 523.73737,304.40558 518.6869,311.22632 513.63635,302.35193 508.58588,309.95612 503.53537,316.0796 498.48486,332.43124 493.43436,332.54095 488.38385,333.91077 483.33334,334.31915 478.28284,334.76535 473.23233,335.6075 468.18182,336.4305 463.13132,337.84106 458.0808,323.42175 453.0303,337.17767 447.9798,339.6973 442.9293,340.27548 437.87878,341.3368 432.82828,342.11407 427.77777,343.01505 422.72726,343.71283 417.67676,344.3937 412.62628,345.74988 407.57578,345.57092 402.52527,347.0274 397.47473,346.99054 392.42426,346.63892 387.37375,348.96542 382.32324,349.32587 377.27274,350.17645 372.22223,351.28064 367.17172,343.00513 362.12122,353.29916 357.0707,354.46127 352.0202,355.4352 346.9697,356.51343 341.9192,357.86914 336.86868,359.063 331.81818,359.5421 326.7677,360.7373 321.71716,361.32925 316.6667,361.52838 311.61615,362.33023 306.56567,362.85776 301.51514,357.1636 296.46466,364.1273 291.41412,364.44083 286.36365,367.30426 281.31314,368.51328 276.26263,369.29898 271.21213,370.24872 266.16162,371.77805 261.1111,371.92465 256.0606,373.28003 251.0101,370.83014 245.9596,374.54742 240.90909,376.28183 235.85858,377.546 230.80807,377.98547 225.75757,379.30582 220.70706,380.4032 215.65657,378.4858 210.60606,381.11453 205.55556,381.34665 200.50505,383.35468 195.45454,385.0537 190.40404,386.08292 185.35353,387.5727 180.30302,389.28906 175.25253,391.2937 170.20203,393.31317 165.15152,395.50342 160.10101,397.40994 155.0505,399.13596 150,399.99997 " stroke="black"/>
<text alignment-baseline="middle" class="poloto_text" font-size="large" text-anchor="start" x="675" y="150">
default_seq
</text>
<line class="poloto1stroke" x1="680" x2="730" y1="131.25" y2="131.25"/>
<polyline class="poloto1stroke" fill="none" points="650,167.72112 644.94946,171.04173 639.899,171.22478 634.8485,171.45381 629.798,176.65952 624.7475,179.24275 619.697,182.28186 614.6465,184.16574 609.59595,183.88884 604.5455,188.14142 599.495,190.18324 594.44446,193.69078 589.3939,195.61937 584.34344,198.60301 579.29297,200.4083 574.24243,202.84354 569.1919,205.46494 564.1414,207.78705 559.09094,209.86368 554.0404,206.6947 548.98987,214.00217 543.9394,216.9954 538.8889,209.50562 533.8384,205.50505 528.78784,208.79822 523.73737,211.24147 518.6869,212.68047 513.63635,216.591 508.58588,218.8435 503.53537,219.65982 498.48486,237.7832 493.43436,219.1451 488.38385,241.86858 483.33334,244.79195 478.28284,247.02525 473.23233,249.66579 468.18182,252.46211 463.13132,255.21613 458.0808,255.49962 453.0303,260.10352 447.9798,262.60242 442.9293,264.19226 437.87878,267.0953 432.82828,269.0891 427.77777,271.38928 422.72726,279.048 417.67676,281.7967 412.62628,283.72833 407.57578,285.43362 402.52527,288.146 397.47473,289.8941 392.42426,292.6417 387.37375,293.0814 382.32324,295.78577 377.27274,297.84613 372.22223,299.65918 367.17172,302.4655 362.12122,305.01233 357.0707,306.83817 352.0202,309.1734 346.9697,311.5111 341.9192,314.05273 336.86868,316.2472 331.81818,318.46326 326.7677,319.36386 321.71716,322.73834 316.6667,324.8554 311.61615,326.5026 306.56567,328.91925 301.51514,330.0439 296.46466,333.35968 291.41412,336.0859 286.36365,341.86603 281.31314,343.3051 276.26263,346.1858 271.21213,348.429 266.16162,351.04816 261.1111,352.878 256.0606,355.32144 251.0101,350.30005 245.9596,359.24057 240.90909,361.75003 235.85858,364.22205 230.80807,366.38144 225.75757,368.88766 220.70706,370.9724 215.65657,374.3157 210.60606,375.89087 205.55556,377.9242 200.50505,380.17313 195.45454,382.26236 190.40404,384.23352 185.35353,386.35016 180.30302,389.2489 175.25253,391.24194 170.20203,393.2186 165.15152,395.39777 160.10101,397.35666 155.0505,399.11475 150,400 " stroke="black"/>
<text alignment-baseline="middle" class="poloto_text" font-size="large" text-anchor="start" x="675" y="200">
direct_par
</text>
<line class="poloto2stroke" x1="680" x2="730" y1="181.25" y2="181.25"/>
<polyline class="poloto2stroke" fill="none" points="650,313.86047 644.94946,312.84393 639.899,315.08344 634.8485,314.4381 629.798,315.22665 624.7475,316.66492 619.697,315.34555 614.6465,317.96774 609.59595,320.5622 604.5455,320.92053 599.495,322.7786 594.44446,322.13794 589.3939,320.2449 584.34344,324.96826 579.29297,301.68637 574.24243,326.9751 569.1919,327.39392 564.1414,328.31158 559.09094,328.89078 554.0404,329.68066 548.98987,326.4182 543.9394,327.19836 538.8889,328.78268 533.8384,312.31192 528.78784,318.61447 523.73737,324.92102 518.6869,327.2177 513.63635,317.4604 508.58588,333.92218 503.53537,317.30713 498.48486,337.81537 493.43436,338.11844 488.38385,337.322 483.33334,337.1475 478.28284,339.46033 473.23233,340.3626 468.18182,340.92972 463.13132,342.05408 458.0808,343.07376 453.0303,343.2688 447.9798,332.86163 442.9293,344.441 437.87878,345.3464 432.82828,346.17093 427.77777,347.16516 422.72726,347.53766 417.67676,348.5006 412.62628,342.34665 407.57578,349.22855 402.52527,350.58392 397.47473,350.93408 392.42426,352.59387 387.37375,352.3056 382.32324,353.48544 377.27274,353.30423 372.22223,354.73145 367.17172,356.1805 362.12122,356.6217 357.0707,355.92276 352.0202,358.86194 346.9697,359.1745 341.9192,361.15173 336.86868,361.86914 331.81818,362.0992 326.7677,360.9088 321.71716,364.23245 316.6667,364.33594 311.61615,364.31894 306.56567,365.20602 301.51514,365.38217 296.46466,366.25424 291.41412,367.552 286.36365,369.75742 281.31314,370.32394 276.26263,371.28882 271.21213,372.41037 266.16162,373.79538 261.1111,373.95932 256.0606,375.4396 251.0101,367.89493 245.9596,368.78558 240.90909,377.78824 235.85858,378.67245 230.80807,379.3554 225.75757,380.69672 220.70706,381.9784 215.65657,380.80573 210.60606,382.13013 205.55556,382.62033 200.50505,384.09506 195.45454,385.59906 190.40404,386.8742 185.35353,388.17902 180.30302,389.9919 175.25253,391.81854 170.20203,393.76337 165.15152,395.84222 160.10101,397.60233 155.0505,399.21136 150,399.99973 " stroke="black"/>
<text alignment-baseline="middle" class="poloto_text" font-size="large" text-anchor="start" x="675" y="250">
direct_seq
</text>
<line class="poloto3stroke" x1="680" x2="730" y1="231.25" y2="231.25"/>
<polyline class="poloto3stroke" fill="none" points="650,184.33932 644.94946,186.89622 639.899,188.44617 634.8485,190.65652 629.798,193.27779 624.7475,195.34073 619.697,197.32544 614.6465,198.869 609.59595,200.59515 604.5455,203.22969 599.495,205.29132 594.44446,207.94998 589.3939,209.81381 584.34344,212.31978 579.29297,213.78065 574.24243,216.24324 569.1919,218.52875 564.1414,220.89464 559.09094,222.47859 554.0404,224.95514 548.98987,227.12616 543.9394,229.19925 538.8889,231.23845 533.8384,227.03828 528.78784,228.14278 523.73737,232.33778 518.6869,233.28467 513.63635,234.10028 508.58588,238.49417 503.53537,240.75943 498.48486,243.85982 493.43436,250.50996 488.38385,252.33673 483.33334,254.7422 478.28284,256.60962 473.23233,259.07147 468.18182,261.43115 463.13132,263.8969 458.0808,266.2237 453.0303,268.13348 447.9798,270.8871 442.9293,272.4603 437.87878,274.90607 432.82828,276.9973 427.77777,279.3226 422.72726,286.04602 417.67676,288.29578 412.62628,290.09723 407.57578,292.05035 402.52527,295.01822 397.47473,296.45828 392.42426,299.33948 387.37375,299.70767 382.32324,301.8644 377.27274,303.47418 372.22223,305.56732 367.17172,308.10092 362.12122,310.5995 357.0707,312.17328 352.0202,314.37415 346.9697,316.85 341.9192,319.08893 336.86868,321.17682 331.81818,323.06387 326.7677,324.99585 321.71716,326.94995 316.6667,328.6053 311.61615,330.4094 306.56567,332.7871 301.51514,335.38657 296.46466,337.25262 291.41412,339.7228 286.36365,345.4954 281.31314,347.5113 276.26263,349.5622 271.21213,351.60013 266.16162,353.88144 261.1111,355.6323 256.0606,357.98087 251.0101,359.34323 245.9596,361.86923 240.90909,364.03568 235.85858,363.37375 230.80807,368.58936 225.75757,370.85452 220.70706,372.55347 215.65657,375.76187 210.60606,377.4032 205.55556,379.06207 200.50505,381.21582 195.45454,383.1641 190.40404,385.05063 185.35353,387.0107 180.30302,389.77045 175.25253,391.71567 170.20203,393.552 165.15152,395.75 160.10101,397.5341 155.0505,399.16943 150,399.99976 " stroke="black"/>
<text alignment-baseline="middle" class="poloto_text" font-size="large" text-anchor="start" x="675" y="300">
indirect_par
</text>
<line class="poloto4stroke" x1="680" x2="730" y1="281.25" y2="281.25"/>
<polyline class="poloto4stroke" fill="none" points="650,278.8011 644.94946,280.11777 639.899,270.39725 634.8485,282.84436 629.798,280.87714 624.7475,282.91827 619.697,283.797 614.6465,286.76266 609.59595,285.4837 604.5455,289.13882 599.495,288.26303 594.44446,291.26166 589.3939,291.31552 584.34344,293.2101 579.29297,295.29913 574.24243,293.96072 569.1919,297.7756 564.1414,297.54205 559.09094,298.92545 554.0404,301.43518 548.98987,300.92328 543.9394,300.14435 538.8889,295.62628 533.8384,278.48206 528.78784,291.92963 523.73737,276.31702 518.6869,301.44275 513.63635,291.56152 508.58588,297.08957 503.53537,308.71146 498.48486,313.30548 493.43436,293.46603 488.38385,314.4041 483.33334,313.7454 478.28284,317.385 473.23233,318.4545 468.18182,319.52066 463.13132,321.29102 458.0808,322.18872 453.0303,320.65833 447.9798,323.88147 442.9293,324.5797 437.87878,325.90405 432.82828,326.80347 427.77777,328.089 422.72726,328.45416 417.67676,329.74954 412.62628,331.0836 407.57578,331.48535 402.52527,333.1424 397.47473,333.38177 392.42426,335.03906 387.37375,335.22147 382.32324,336.5546 377.27274,337.05722 372.22223,338.08725 367.17172,339.7729 362.12122,340.85123 357.0707,342.06277 352.0202,343.8313 346.9697,345.03467 341.9192,347.08142 336.86868,348.1101 331.81818,349.30365 326.7677,349.28467 321.71716,352.11285 316.6667,352.2628 311.61615,353.22397 306.56567,353.8523 301.51514,346.6187 296.46466,354.73782 291.41412,356.56604 286.36365,359.45056 281.31314,360.5518 276.26263,361.873 271.21213,363.44485 266.16162,365.3913 261.1111,365.6714 256.0606,367.65195 251.0101,335.57886 245.9596,365.34525 240.90909,370.80075 235.85858,372.03027 230.80807,373.90286 225.75757,374.77658 220.70706,376.7426 215.65657,375.40576 210.60606,377.26584 205.55556,377.23627 200.50505,379.8784 195.45454,382.13214 190.40404,383.68124 185.35353,385.574 180.30302,387.45938 175.25253,389.8553 170.20203,392.26672 165.15152,394.85706 160.10101,397.01355 155.0505,398.9877 150,399.9998 " stroke="black"/>
<text alignment-baseline="middle" class="poloto_text" font-size="large" text-anchor="start" x="675" y="350">
indirect_seq
</text>
<line class="poloto5stroke" x1="680" x2="730" y1="331.25" y2="331.25"/>
<polyline class="poloto5stroke" fill="none" points="650,100 644.94946,104.3978 639.899,101.81195 634.8485,109.38559 629.798,112.68817 624.7475,115.396515 619.697,110.948364 614.6465,121.305176 609.59595,124.11206 604.5455,127.2417 599.495,130.47906 594.44446,134.52744 589.3939,137.15564 584.34344,140.55331 579.29297,143.58499 574.24243,146.52832 569.1919,149.26846 564.1414,152.26129 559.09094,154.93784 554.0404,158.76202 548.98987,161.24716 543.9394,164.5845 538.8889,168.26831 533.8384,154.16537 528.78784,156.53867 523.73737,162.85098 518.6869,165.47131 513.63635,168.23485 508.58588,169.79486 503.53537,174.54091 498.48486,192.80074 493.43436,196.07518 488.38385,198.91843 483.33334,202.26305 478.28284,205.10158 473.23233,208.54338 468.18182,211.8389 463.13132,215.46056 458.0808,215.17526 453.0303,221.90572 447.9798,225.42401 442.9293,227.35101 437.87878,230.97705 432.82828,234.53152 427.77777,237.03622 422.72726,245.68457 417.67676,249.25179 412.62628,251.94254 407.57578,254.85274 402.52527,258.15652 397.47473,260.28595 392.42426,264.58704 387.37375,265.09924 382.32324,268.50568 377.27274,270.87354 372.22223,273.20886 367.17172,277.1925 362.12122,280.8789 357.0707,283.22467 352.0202,285.8265 346.9697,289.37912 341.9192,292.3438 336.86868,295.60016 331.81818,298.1895 326.7677,300.9974 321.71716,303.9324 316.6667,306.7166 311.61615,308.59436 306.56567,311.66614 301.51514,315.18 296.46466,317.78662 291.41412,321.11337 286.36365,328.06326 281.31314,330.75046 276.26263,333.90784 271.21213,336.67908 266.16162,340.0828 261.1111,342.3674 256.0606,345.6464 251.0101,344.52075 245.9596,350.5859 240.90909,353.69955 235.85858,354.72345 230.80807,359.91342 225.75757,363.03293 220.70706,365.3195 215.65657,369.3202 210.60606,371.60455 205.55556,373.72354 200.50505,376.67035 195.45454,379.13077 190.40404,381.56485 185.35353,384.242 180.30302,387.52222 175.25253,389.9714 170.20203,392.23734 165.15152,394.85352 160.10101,397.09488 155.0505,399.01413 150,399.99985 " stroke="black"/>
<text alignment-baseline="start" class="poloto_text" font-size="x-large" text-anchor="middle" x="400" y="37.5">
Bench of query:128_bytes with abspiral(num,0.01)
</text>
<text alignment-baseline="start" class="poloto_text" font-size="large" text-anchor="middle" x="400" y="481.25">
Number of Elements
</text>
<text alignment-baseline="start" class="poloto_text" font-size="large" text-anchor="middle" transform="rotate(-90,37.5,250)" x="37.5" y="250">
Time in Seconds
</text>
<path class="poloto_axis_lines" d="M150,100 L150,400 L650,400" stroke="black"/>
</svg>