<svg class="poloto" width="800" height="500" viewBox="0 0 800 500" xmlns="http://www.w3.org/2000/svg" ><style><style>.poloto {
            font-family: "Arial";
            stroke-width:2;
            }
            .poloto_text{fill: var(--poloto_fg_color,black);  }
            .poloto_axis_lines{stroke: var(--poloto_fg_color,black);stoke-width:3;fill:none}
            .poloto_background{fill: var(--poloto_bg_color,aliceblue); }
            .poloto0stroke{stroke:  var(--poloto_color0,blue); }
            .poloto1stroke{stroke:  var(--poloto_color1,red); }
            .poloto2stroke{stroke:  var(--poloto_color2,green); }
            .poloto3stroke{stroke:  var(--poloto_color3,gold); }
            .poloto4stroke{stroke:  var(--poloto_color4,aqua); }
            .poloto5stroke{stroke:  var(--poloto_color5,brown); }
            .poloto6stroke{stroke:  var(--poloto_color6,lime); }
            .poloto7stroke{stroke:  var(--poloto_color7,chocolate); }
            .poloto0fill{fill:var(--poloto_color0,blue);}
            .poloto1fill{fill:var(--poloto_color1,red);}
            .poloto2fill{fill:var(--poloto_color2,green);}
            .poloto3fill{fill:var(--poloto_color3,gold);}
            .poloto4fill{fill:var(--poloto_color4,aqua);}
            .poloto5fill{fill:var(--poloto_color5,brown);}
            .poloto6fill{fill:var(--poloto_color6,lime);}
            .poloto7fill{fill:var(--poloto_color7,chocolate);}</style></style><rect class="poloto_background" fill="white" x="0" y="0" width="800" height="500" /><line class="poloto_axis_lines" stroke="black" x1="150" x2="150" y1="400" y2="405" /><text class="poloto_text" alignment-baseline="start" text-anchor="middle" x="150" y="430" >0</text><line class="poloto_axis_lines" stroke="black" x1="234.17508417508418" x2="234.17508417508418" y1="400" y2="405" /><text class="poloto_text" alignment-baseline="start" text-anchor="middle" x="234.17508417508418" y="430" >5000</text><line class="poloto_axis_lines" stroke="black" x1="318.35016835016836" x2="318.35016835016836" y1="400" y2="405" /><text class="poloto_text" alignment-baseline="start" text-anchor="middle" x="318.35016835016836" y="430" >10000</text><line class="poloto_axis_lines" stroke="black" x1="402.52525252525254" x2="402.52525252525254" y1="400" y2="405" /><text class="poloto_text" alignment-baseline="start" text-anchor="middle" x="402.52525252525254" y="430" >15000</text><line class="poloto_axis_lines" stroke="black" x1="486.7003367003367" x2="486.7003367003367" y1="400" y2="405" /><text class="poloto_text" alignment-baseline="start" text-anchor="middle" x="486.7003367003367" y="430" >20000</text><line class="poloto_axis_lines" stroke="black" x1="570.8754208754208" x2="570.8754208754208" y1="400" y2="405" /><text class="poloto_text" alignment-baseline="start" text-anchor="middle" x="570.8754208754208" y="430" >25000</text><line class="poloto_axis_lines" stroke="black" x1="150" x2="144" y1="340.8044947882811" y2="340.8044947882811" /><text class="poloto_text" alignment-baseline="middle" text-anchor="end" x="135" y="340.8044947882811" >0.01</text><line class="poloto_axis_lines" stroke="black" x1="150" x2="144" y1="281.6083324991607" y2="281.6083324991607" /><text class="poloto_text" alignment-baseline="middle" text-anchor="end" x="135" y="281.6083324991607" >0.02</text><line class="poloto_axis_lines" stroke="black" x1="150" x2="144" y1="222.41217021004041" y2="222.41217021004041" /><text class="poloto_text" alignment-baseline="middle" text-anchor="end" x="135" y="222.41217021004041" >0.03</text><line class="poloto_axis_lines" stroke="black" x1="150" x2="144" y1="163.2160079209201" y2="163.2160079209201" /><text class="poloto_text" alignment-baseline="middle" text-anchor="end" x="135" y="163.2160079209201" >0.04</text><line class="poloto_axis_lines" stroke="black" x1="150" x2="144" y1="104.0198456317998" y2="104.0198456317998" /><text class="poloto_text" alignment-baseline="middle" text-anchor="end" x="135" y="104.0198456317998" >0.05</text><text class="poloto_text" alignment-baseline="middle" text-anchor="start" font-size="large" x="675" y="100" >default_par</text><line class="poloto0stroke" stroke="black" x1="680" x2="730" y1="81.25" y2="81.25" /><polyline class="poloto0stroke" fill="none" stroke="black"  points="650,301.9059565960715 644.9494949494949,303.4838717392016 639.8989898989898,304.67255435643204 634.8484848484848,303.53324133855074 629.7979797979798,304.56572304234885 624.7474747474747,306.857265680723 619.6969696969697,308.14390018769325 614.6464646464647,309.7777971415002 609.5959595959596,308.951028021273 604.5454545454545,310.48180526037225 599.4949494949494,312.9196571334602 594.4444444444445,312.285080193337 589.3939393939394,312.6733300629427 584.3434343434344,315.8808445184975 579.2929292929293,315.623524720643 574.2424242424242,298.68828999868407 569.1919191919192,315.8949391247386 564.1414141414141,319.642938220458 559.090909090909,313.787869486906 554.040404040404,320.8473966149385 548.989898989899,321.8128268257118 543.939393939394,316.90034450390567 538.8888888888889,322.83641134631785 533.8383838383838,324.49814825524936 528.7878787878788,324.7656024360878 523.7373737373737,322.1381570944203 518.6868686868687,321.4596092449488 513.6363636363636,326.71808129610235 508.5858585858586,323.55189168144153 503.5353535353535,328.8775632160257 498.4848484848485,323.55094454284495 493.4343434343434,267.12039735779115 488.3838383838384,328.518378662104 483.3333333333333,332.8726885304535 478.2828282828283,332.3019191336618 473.2323232323232,332.0408403795019 468.1818181818182,332.5880556233187 463.1313131313131,334.89233727581745 458.0808080808081,336.5078656604661 453.030303030303,334.90914306629134 447.979797979798,337.1659257181693 442.9292929292929,337.5306391936488 437.8787878787879,339.53490285643386 432.8282828282828,340.02066064456216 427.77777777777777,340.0014218918182 422.72727272727275,341.237230573847 417.67676767676767,342.2428786572795 412.62626262626264,342.88637645905965 407.57575757575756,343.40672848442966 402.52525252525254,344.75744875669415 397.47474747474746,344.57151953056024 392.4242424242424,347.22106871922654 387.37373737373736,346.42276703344413 382.32323232323233,347.2363827664107 377.27272727272725,348.1635248994154 372.22222222222223,345.81220597636167 367.1717171717172,350.6219829565961 362.1212121212121,351.02018962069883 357.07070707070704,350.9339704103247 352.020202020202,352.5621490148545 346.969696969697,352.8802395929151 341.9191919191919,347.85247274505093 336.86868686868684,357.0695046411863 331.8181818181818,357.80637254974505 326.7676767676768,358.54567342057385 321.7171717171717,360.12863207673104 316.66666666666663,359.6509190470578 311.6161616161616,359.61216331960713 306.5656565656566,360.53726910462905 301.5151515151515,362.8498263806158 296.4646464646464,337.9786712675503 291.4141414141414,363.8084845504232 286.3636363636364,365.95627522829443 281.3131313131313,366.9588806289853 276.26262626262627,368.36874970660904 271.2121212121212,369.06331603759594 266.16161616161617,370.77297815951675 261.1111111111111,370.8328491580559 256.06060606060606,372.74429323837165 251.010101010101,372.9040696000062 245.95959595959596,374.09602576501123 240.9090909090909,375.33338538649207 235.85858585858585,376.82845550049854 230.8080808080808,376.9887409491288 225.75757575757575,378.0994563010082 220.7070707070707,379.33062400391356 215.65656565656565,378.6937680115423 210.6060606060606,380.3366035858549 205.55555555555554,380.88879722692025 200.50505050505052,382.63222483981076 195.45454545454544,384.358864421076 190.40404040404042,384.92672728629935 185.35353535353534,387.2234140711764 180.3030303030303,388.89607267205025 175.25252525252526,390.92406215668075 170.2020202020202,393.11224237608184 165.15151515151516,395.32001060558446 160.1010101010101,397.2789477669047 155.05050505050505,399.10379378140766 150,399.99992304498903 "/><text class="poloto_text" alignment-baseline="middle" text-anchor="start" font-size="large" x="675" y="150" >default_seq</text><line class="poloto1stroke" stroke="black" x1="680" x2="730" y1="131.25" y2="131.25" /><polyline class="poloto1stroke" fill="none" stroke="black"  points="650,168.09523383875214 644.9494949494949,170.9478258640701 639.8989898989898,171.77247576168736 634.8484848484848,175.0691337180334 629.7979797979798,177.42486275517763 624.7474747474747,179.91123772249395 619.6969696969697,182.4749939131546 614.6464646464647,184.0099740797764 609.5959595959596,185.2378800741396 604.5454545454545,188.08237998407267 599.4949494949494,189.77224690932394 594.4444444444445,193.42299263001857 589.3939393939394,195.69388764698627 584.3434343434344,198.06464658973573 579.2929292929293,199.6324687871955 574.2424242424242,202.68181701673007 569.1919191919192,205.35973300636527 564.1414141414141,207.060782086673 559.090909090909,209.4056782261183 554.040404040404,211.73344299619717 548.989898989899,214.67890788053052 543.939393939394,216.41750508657825 538.8888888888889,219.35825203677717 533.8383838383838,221.7334921290119 528.7878787878788,222.21774041500183 523.7373737373737,226.01687315570658 518.6868686868687,227.33996065941446 513.6363636363636,229.7063154076896 508.5858585858586,232.63486202884073 503.5353535353535,235.0704052515994 498.4848484848485,237.05972780302264 493.4343434343434,238.82435356162887 488.3838383838384,241.81463586043134 483.3333333333333,244.486951893114 478.2828282828283,246.43395510811675 473.2323232323232,248.8020739020281 468.1818181818182,251.81412854932051 463.1313131313131,254.85497620995034 458.0808080808081,257.123752004308 453.030303030303,259.0336865824854 447.979797979798,262.14895565834513 442.9292929292929,263.6207320824908 437.8787878787879,266.2160043099542 432.8282828282828,268.6471847755521 427.77777777777777,270.8190327737777 422.72727272727275,278.55215303249804 417.67676767676767,280.96399411187616 412.62626262626264,282.91311654948885 407.57575757575756,285.0944892102267 402.52525252525254,287.61137979920306 397.47474747474746,289.70611295681454 392.4242424242424,292.5112533384416 387.37373737373736,292.8578942255742 382.32323232323233,295.4909987203566 377.27272727272725,297.47998385365474 372.22222222222223,299.46461806902477 367.1717171717172,301.99308742734485 362.1212121212121,304.4972863591264 357.07070707070704,306.6976432291104 352.020202020202,308.7654539721128 346.969696969697,311.21547657616736 341.9191919191919,313.7427324131606 336.86868686868684,316.1922163321383 331.8181818181818,318.2881570914605 326.7676767676768,320.4508296845312 321.7171717171717,322.5803701855687 316.66666666666663,323.6138345456609 311.6161616161616,326.02856439775866 306.5656565656566,328.5232741847253 301.5151515151515,331.5241289181126 296.4646464646464,331.944102011089 291.4141414141414,335.1194433524397 286.3636363636364,342.2364321952062 281.3131313131313,344.2217175683614 276.26262626262627,346.6242174933302 271.2121212121212,348.66348384687683 266.16161616161617,351.0075926773637 261.1111111111111,352.9563303399215 256.06060606060606,355.47518624148586 251.010101010101,357.0645736008676 245.95959595959596,359.54293340781 240.9090909090909,361.9009888541322 235.85858585858585,364.34484913769245 230.8080808080808,366.7183074254423 225.75757575757575,369.05163071516006 220.7070707070707,370.67485460090626 215.65656565656565,374.2849029600271 210.6060606060606,375.998679215227 205.55555555555554,377.8250110534034 200.50505050505052,380.13805965753716 195.45454545454544,382.243868417113 190.40404040404042,384.09435820911955 185.35353535353534,386.25872381243175 180.3030303030303,389.3016196602768 175.25252525252526,391.3218781261123 170.2020202020202,393.31800823619886 165.15151515151516,395.52146106547053 160.1010101010101,397.4186033529772 155.05050505050505,399.1348658469932 150,400 "/><text class="poloto_text" alignment-baseline="middle" text-anchor="start" font-size="large" x="675" y="200" >direct_par</text><line class="poloto2stroke" stroke="black" x1="680" x2="730" y1="181.25" y2="181.25" /><polyline class="poloto2stroke" fill="none" stroke="black"  points="650,283.5051847254722 644.9494949494949,305.644466546976 639.8989898989898,304.8390909198 634.8484848484848,304.1351064793929 629.7979797979798,306.84535541287045 624.7474747474747,309.1911276555177 619.6969696969697,310.2958701146221 614.6464646464647,311.7942552137168 609.5959595959596,312.1157436514928 604.5454545454545,309.56728374916764 599.4949494949494,311.20085512408195 594.4444444444445,314.14396992077246 589.3939393939394,314.6526425433229 584.3434343434344,300.6417515149926 579.2929292929293,317.4921048598451 574.2424242424242,316.16354171112545 569.1919191919192,318.4118770706448 564.1414141414141,318.7981616276624 559.090909090909,321.47678797124513 554.040404040404,320.0691150712423 548.989898989899,320.7405001850768 543.939393939394,321.747278915209 538.8888888888889,324.6089161141248 533.8383838383838,321.20158501276296 528.7878787878788,323.44536818740227 523.7373737373737,303.47667348586725 518.6868686868687,323.4865746359717 513.6363636363636,324.4410713155702 508.5858585858586,325.4763293193797 503.5353535353535,329.88486287238607 498.4848484848485,327.2949242191449 493.4343434343434,328.94564472227444 488.3838383838384,332.36102058209127 483.3333333333333,332.5376382518971 478.2828282828283,333.2421672969973 473.2323232323232,333.9433162412308 468.1818181818182,333.4748674109558 463.1313131313131,336.116164654599 458.0808080808081,336.13464569646567 453.030303030303,331.6776719238581 447.979797979798,338.47364589814697 442.9292929292929,337.5962167022327 437.8787878787879,339.8208795164526 432.8282828282828,340.8529409274985 427.77777777777777,340.97612814122215 422.72727272727275,342.2389657909522 417.67676767676767,342.8030578606377 412.62626262626264,343.71072445624924 407.57575757575756,343.9747334204425 402.52525252525254,345.5982177693027 397.47474747474746,345.6168645604238 392.4242424242424,347.56357179461514 387.37373737373736,338.4593737034191 382.32323232323233,348.30741893070774 377.27272727272725,349.18031370059066 372.22222222222223,348.74725233613214 367.1717171717172,350.2562039501954 362.1212121212121,352.28896464550644 357.07070707070704,352.8789076792636 352.020202020202,354.6840117736431 346.969696969697,355.18324260830843 341.9191919191919,356.76795939048554 336.86868686868684,357.9155953887847 331.8181818181818,358.4265115458859 326.7676767676768,358.0856896415063 321.7171717171717,360.60164493111847 316.66666666666663,360.5968263635081 311.6161616161616,359.3761600597929 306.5656565656566,360.51565066616104 301.5151515151515,363.5386151661633 296.4646464646464,362.1718349750698 291.4141414141414,364.0141912143779 286.3636363636364,366.6248485244202 281.3131313131313,368.0786648329274 276.26262626262627,368.63657682326993 271.2121212121212,369.680720171039 266.16161616161617,370.81765942281254 261.1111111111111,371.4995577750696 256.06060606060606,372.94974535882847 251.010101010101,373.2283876143396 245.95959595959596,373.98669045326324 240.9090909090909,375.412335308137 235.85858585858585,377.2209911722539 230.8080808080808,377.4604337290972 225.75757575757575,378.9724872220644 220.7070707070707,380.00566744057755 215.65656565656565,379.10538260640345 210.6060606060606,380.48912841760904 205.55555555555554,380.9280146844368 200.50505050505052,382.63009969758457 195.45454545454544,384.2213458164622 190.40404040404042,385.6001428285004 185.35353535353534,387.20115039453947 180.3030303030303,389.0610760548149 175.25252525252526,391.0862418825043 170.2020202020202,393.18605407084016 165.15151515151516,395.44574917390275 160.1010101010101,397.25793904890827 155.05050505050505,399.13162189729974 150,399.9996566622587 "/><text class="poloto_text" alignment-baseline="middle" text-anchor="start" font-size="large" x="675" y="250" >direct_seq</text><line class="poloto3stroke" stroke="black" x1="680" x2="730" y1="231.25" y2="231.25" /><polyline class="poloto3stroke" fill="none" stroke="black"  points="650,171.24564175654663 644.9494949494949,174.97437842105722 639.8989898989898,176.408298899419 634.8484848484848,177.68547977927173 629.7979797979798,181.31809371545717 624.7474747474747,183.6302958144702 619.6969696969697,185.82472714860907 614.6464646464647,187.33707070277148 609.5959595959596,188.43384535843188 604.5454545454545,191.3716443397488 599.4949494949494,193.7904528074283 594.4444444444445,196.70248369930079 589.3939393939394,198.057412818704 584.3434343434344,200.60014845213578 579.2929292929293,203.62226644701732 574.2424242424242,206.43648160032325 569.1919191919192,207.80508503321525 564.1414141414141,210.18931702250168 559.090909090909,211.93842746697194 554.040404040404,214.31753306860415 548.989898989899,216.69151820219835 543.939393939394,219.42577117948412 538.8888888888889,221.53490084376435 533.8383838383838,224.13113204905682 528.7878787878788,225.2433273049935 523.7373737373737,227.90575757857388 518.6868686868687,229.9195814215686 513.6363636363636,231.72782883216567 508.5858585858586,234.19865888726488 503.5353535353535,236.83366357885672 498.4848484848485,238.84468152375896 493.4343434343434,241.5482945674439 488.3838383838384,243.95249934188666 483.3333333333333,246.34758790733693 478.2828282828283,248.04046199763252 473.2323232323232,250.67919604744856 468.1818181818182,253.29925962767865 463.1313131313131,256.26677508246473 458.0808080808081,257.5209878513492 453.030303030303,260.30056733009974 447.979797979798,263.2071403358092 442.9292929292929,264.62999705143915 437.8787878787879,267.5001644173408 432.8282828282828,269.71029457371867 427.77777777777777,271.9278183307665 422.72727272727275,279.33425864827814 417.67676767676767,281.8628582381553 412.62626262626264,284.1822822689676 407.57575757575756,285.8176472875993 402.52525252525254,288.7248122549316 397.47474747474746,290.2345452583371 392.4242424242424,293.27630453986615 387.37373737373736,293.68647474836746 382.32323232323233,296.0330342999731 377.27272727272725,297.867369459291 372.22222222222223,299.75513507469105 367.1717171717172,302.76705357081016 362.1212121212121,305.6530085531943 357.07070707070704,307.0718932063347 352.020202020202,309.5715991493985 346.969696969697,311.95822266364144 341.9191919191919,314.3773507905973 336.86868686868684,316.5208319878539 331.8181818181818,318.740457208663 326.7676767676768,320.4504922664062 321.7171717171717,323.0539276446492 316.66666666666663,324.8663720631526 311.6161616161616,326.4647986765159 306.5656565656566,328.98376113117234 301.5151515151515,331.63142788187787 296.4646464646464,333.4950769807613 291.4141414141414,336.3104997357779 286.3636363636364,342.31935417934085 281.3131313131313,344.50411878017786 276.26262626262627,346.7449125486215 271.2121212121212,348.78030155353815 266.16161616161617,351.1855600196697 261.1111111111111,353.0141472316293 256.06060606060606,355.5967988372927 251.010101010101,357.07497436658184 245.95959595959596,359.6730524921377 240.9090909090909,362.03785630096087 235.85858585858585,364.39775274793027 230.8080808080808,366.77268502012106 225.75757575757575,369.1270466259164 220.7070707070707,371.0665378479247 215.65656565656565,374.40366230081156 210.6060606060606,376.0802278483965 205.55555555555554,377.85540236312266 200.50505050505052,380.1799823796703 195.45454545454544,382.1456146269455 190.40404040404042,384.05330567057206 185.35353535353534,386.21181677343384 180.3030303030303,389.3334908740532 175.25252525252526,391.2766700169721 170.2020202020202,393.2845801633542 165.15151515151516,395.49413019734163 160.1010101010101,397.3893900468875 155.05050505050505,399.13458762503046 150,399.9997513761184 "/><text class="poloto_text" alignment-baseline="middle" text-anchor="start" font-size="large" x="675" y="300" >indirect_par</text><line class="poloto4stroke" stroke="black" x1="680" x2="730" y1="281.25" y2="281.25" /><polyline class="poloto4stroke" fill="none" stroke="black"  points="650,277.22527697440364 644.9494949494949,278.9272021579132 639.8989898989898,278.06625317358026 634.8484848484848,280.25347441515225 629.7979797979798,280.37614662226406 624.7474747474747,282.0304188951309 619.6969696969697,284.06757194568377 614.6464646464647,285.3012022089403 609.5959595959596,285.56500398656556 604.5454545454545,287.863200273581 599.4949494949494,288.05639286882774 594.4444444444445,290.06992073101105 589.3939393939394,289.9323014929213 584.3434343434344,293.94363471658386 579.2929292929293,280.21728780114495 574.2424242424242,292.8895700920151 569.1919191919192,292.51008125442826 564.1414141414141,294.71059203443417 559.090909090909,293.78576447137505 554.040404040404,297.2243511464254 548.989898989899,301.87037970253573 543.939393939394,299.0694008111177 538.8888888888889,304.53938075013025 533.8383838383838,303.94438828372984 528.7878787878788,306.6782091290309 523.7373737373737,304.6032001326941 518.6868686868687,303.575116703754 513.6363636363636,308.5640449495403 508.5858585858586,308.8312801045783 503.5353535353535,311.46957610279344 498.4848484848485,309.07440466271595 493.4343434343434,314.7338004818213 488.3838383838384,315.0242168540117 483.3333333333333,314.9387435152824 478.2828282828283,316.591535884092 473.2323232323232,315.67723339868786 468.1818181818182,316.2132605678321 463.1313131313131,319.96124782431906 458.0808080808081,322.1552351872407 453.030303030303,321.8024083011489 447.979797979798,321.5211554948808 442.9292929292929,323.64679496882343 437.8787878787879,325.3924246789511 432.8282828282828,326.9415704872087 427.77777777777777,325.48230221215465 422.72727272727275,328.0382977859392 417.67676767676767,329.90775994795945 412.62626262626264,307.34869446119865 407.57575757575756,330.5504526819325 402.52525252525254,332.67882701857286 397.47474747474746,332.89314080452436 392.4242424242424,334.4937635955086 387.37373737373736,335.2619107562209 382.32323232323233,336.36062112638814 377.27272727272725,335.8391266150859 372.22222222222223,337.0176985277974 367.1717171717172,339.99146509732117 362.1212121212121,334.07009666200537 357.07070707070704,341.78180566882577 352.020202020202,343.5754493861861 346.969696969697,344.8430582465967 341.9191919191919,346.8692422482774 336.86868686868684,345.1197825464496 331.8181818181818,348.7617849939741 326.7676767676768,350.4484020499157 321.7171717171717,349.8508582289207 316.66666666666663,349.6446839152839 311.6161616161616,352.82656051295135 306.5656565656566,353.42678000048187 301.5151515151515,355.24756515825175 296.4646464646464,355.6140545185999 291.4141414141414,356.02848093116984 286.3636363636364,353.8555200450933 281.3131313131313,360.1381330607784 276.26262626262627,361.95697658442526 271.2121212121212,363.0342816223087 266.16161616161617,364.77278411449674 261.1111111111111,365.6513972336568 256.06060606060606,366.8515165494415 251.010101010101,367.9365466865037 245.95959595959596,368.7944825861762 240.9090909090909,370.82106320214416 235.85858585858585,372.48346902770953 230.8080808080808,371.3972016908555 225.75757575757575,375.2202674399738 220.7070707070707,376.0590060242158 215.65656565656565,374.9616453265488 210.6060606060606,376.1344219349722 205.55555555555554,377.5678274067221 200.50505050505052,379.59186850732794 195.45454545454544,381.74434752125245 190.40404040404042,383.4801329095914 185.35353535353534,385.2724920702301 180.3030303030303,387.4225085238034 175.25252525252526,389.7839440709923 170.2020202020202,392.25980579988607 165.15151515151516,394.75252067618356 160.1010101010101,396.9453773924055 155.05050505050505,398.96031412325124 150,399.99962706417756 "/><text class="poloto_text" alignment-baseline="middle" text-anchor="start" font-size="large" x="675" y="350" >indirect_seq</text><line class="poloto5stroke" stroke="black" x1="680" x2="730" y1="331.25" y2="331.25" /><polyline class="poloto5stroke" fill="none" stroke="black"  points="650,100 644.9494949494949,104.41389080569348 639.8989898989898,106.56735839552829 634.8484848484848,110.28058566551908 629.7979797979798,113.45931894696895 624.7474747474747,116.28275094274329 619.6969696969697,119.57952729141385 614.6464646464647,121.90204136189772 609.5959595959596,124.10853095429479 604.5454545454545,127.3287015493471 599.4949494949494,130.06248687695074 594.4444444444445,134.09771167171323 589.3939393939394,136.60766447046927 584.3434343434344,137.969821441288 579.2929292929293,143.72950147892732 574.2424242424242,146.80216707678755 569.1919191919192,149.47369580051176 564.1414141414141,152.75388538450895 559.090909090909,154.92314651044248 554.040404040404,158.9774679871594 548.989898989899,161.6697804834633 543.939393939394,164.8701558818461 538.8888888888889,168.79868551369864 533.8383838383838,171.5141377898414 528.7878787878788,173.8417900872119 523.7373737373737,177.1617180549538 518.6868686868687,179.77488528227718 513.6363636363636,182.5253994453438 508.5858585858586,185.92679317162793 503.5353535353535,189.55958469630028 498.4848484848485,192.84867738310578 493.4343434343434,196.47930824785456 488.3838383838384,198.88906562232006 483.3333333333333,201.35984832048945 478.2828282828283,204.25619222935526 473.2323232323232,208.27248609141768 468.1818181818182,211.57139942154694 463.1313131313131,215.88673453664532 458.0808080808081,218.78470633997412 453.030303030303,221.56292430699202 447.979797979798,225.59695925889247 442.9292929292929,227.32819838196764 437.8787878787879,231.13997542293737 432.8282828282828,234.27205028927094 427.77777777777777,236.9892488522012 422.72727272727275,245.32812343962618 417.67676767676767,248.75908564897375 412.62626262626264,252.16588990449114 407.57575757575756,254.45417675393938 402.52525252525254,257.82829880825693 397.47474747474746,260.3708035766558 392.4242424242424,264.5456780378745 387.37373737373736,264.9983984478293 382.32323232323233,268.30528550101883 377.27272727272725,270.80516903256955 372.22222222222223,273.6946698650748 367.1717171717172,276.90847095306475 362.1212121212121,280.66566321278765 357.07070707070704,283.04096842080094 352.020202020202,286.16228734444655 346.969696969697,289.14627709119765 341.9191919191919,292.70463536140767 336.86868686868684,295.6474068203569 331.8181818181818,298.40535010179076 326.7676767676768,300.9178305766766 321.7171717171717,304.30723116048097 316.66666666666663,306.80989099204305 311.6161616161616,308.4968869034233 306.5656565656566,311.78579608212567 301.5151515151515,315.5975139269331 296.4646464646464,318.11122568199454 291.4141414141414,321.4912791917735 286.3636363636364,328.40543238445633 281.3131313131313,330.9327592568443 276.26262626262627,334.15097045892475 271.2121212121212,337.0196105638393 266.16161616161617,340.15861730077694 261.1111111111111,342.32882556530706 256.06060606060606,345.6484161149239 251.010101010101,347.5787141729287 245.95959595959596,350.8596022716409 240.9090909090909,353.75283246237035 235.85858585858585,357.01460020066315 230.8080808080808,359.9729639287593 225.75757575757575,362.8120177917618 220.7070707070707,365.20211612073103 215.65656565656565,369.30747652857366 210.6060606060606,371.4548469136926 205.55555555555554,373.77357242978997 200.50505050505052,376.61064914097193 195.45454545454544,379.0441027392018 190.40404040404042,381.5169040265052 185.35353535353534,384.23145652098117 180.3030303030303,387.5966873117229 175.25252525252526,389.95676134717917 170.2020202020202,392.3184514378659 165.15151515151516,394.83384436393635 160.1010101010101,397.0398485478027 155.05050505050505,398.9736924559286 150,399.9996744211074 "/><text class="poloto_text" alignment-baseline="start" text-anchor="middle" font-size="x-large" x="400" y="37.5" >Bench of query:128_bytes with abspiral(num,0.01)</text><text class="poloto_text" alignment-baseline="start" text-anchor="middle" font-size="x-large" x="400" y="481.25" >Number of Elements</text><text class="poloto_text" alignment-baseline="start" text-anchor="middle" font-size="x-large" transform="rotate(-90,37.5,250)" x="37.5" y="250" >Time in Seconds</text><path stroke="black" fill="none" class="poloto_axis_lines"  d="M 150 100 L 150 400 L 650 400 "/></svg>