<svg class="poloto" width="800" height="500" viewBox="0 0 800 500" xmlns="http://www.w3.org/2000/svg"><circle  r="1e5" class="poloto_background" /><text  class="poloto_text poloto_legend_text" x="675" y="100" >default_seq</text><line  class="poloto_scatter poloto_legend_icon poloto0stroke poloto0legend" stroke="black" x1="685" x2="685" y1="81.25" y2="81.25" /><path  class="poloto_scatter poloto0stroke" d=" M 650.00 254.14 h 0 M 644.95 256.49 h 0 M 639.90 255.28 h 0 M 634.85 260.33 h 0 M 629.80 261.12 h 0 M 624.75 263.20 h 0 M 619.70 262.06 h 0 M 614.65 258.72 h 0 M 609.60 266.71 h 0 M 604.55 267.76 h 0 M 599.49 271.57 h 0 M 594.44 270.22 h 0 M 589.39 274.25 h 0 M 584.34 271.04 h 0 M 579.29 274.29 h 0 M 574.24 274.98 h 0 M 569.19 278.98 h 0 M 564.14 279.05 h 0 M 559.09 283.78 h 0 M 554.04 284.26 h 0 M 548.99 286.23 h 0 M 543.94 284.77 h 0 M 538.89 289.29 h 0 M 533.84 287.27 h 0 M 528.79 293.50 h 0 M 523.74 292.34 h 0 M 518.69 290.86 h 0 M 513.64 291.71 h 0 M 508.59 295.99 h 0 M 503.54 296.39 h 0 M 498.48 298.77 h 0 M 493.43 301.04 h 0 M 488.38 303.70 h 0 M 483.33 303.08 h 0 M 478.28 305.40 h 0 M 473.23 309.26 h 0 M 468.18 307.79 h 0 M 463.13 313.49 h 0 M 458.08 308.42 h 0 M 453.03 312.93 h 0 M 447.98 314.95 h 0 M 442.93 314.08 h 0 M 437.88 319.37 h 0 M 432.83 316.17 h 0 M 427.78 317.03 h 0 M 422.73 317.04 h 0 M 417.68 323.48 h 0 M 412.63 323.64 h 0 M 407.58 325.36 h 0 M 402.53 327.02 h 0 M 397.47 329.16 h 0 M 392.42 331.07 h 0 M 387.37 334.57 h 0 M 382.32 333.77 h 0 M 377.27 333.70 h 0 M 372.22 336.71 h 0 M 367.17 339.59 h 0 M 362.12 338.49 h 0 M 357.07 341.17 h 0 M 352.02 343.84 h 0 M 346.97 345.26 h 0 M 341.92 346.45 h 0 M 336.87 347.21 h 0 M 331.82 350.06 h 0 M 326.77 351.14 h 0 M 321.72 351.21 h 0 M 316.67 353.16 h 0 M 311.62 352.67 h 0 M 306.57 356.38 h 0 M 301.52 358.47 h 0 M 296.46 360.52 h 0 M 291.41 360.92 h 0 M 286.36 365.74 h 0 M 281.31 367.45 h 0 M 276.26 369.30 h 0 M 271.21 369.70 h 0 M 266.16 371.48 h 0 M 261.11 373.51 h 0 M 256.06 375.14 h 0 M 251.01 376.36 h 0 M 245.96 376.68 h 0 M 240.91 378.36 h 0 M 235.86 378.47 h 0 M 230.81 380.35 h 0 M 225.76 382.46 h 0 M 220.71 382.54 h 0 M 215.66 384.36 h 0 M 210.61 386.18 h 0 M 205.56 386.90 h 0 M 200.51 388.11 h 0 M 195.45 388.92 h 0 M 190.40 390.34 h 0 M 185.35 391.70 h 0 M 180.30 393.80 h 0 M 175.25 394.84 h 0 M 170.20 396.10 h 0 M 165.15 397.15 h 0 M 160.10 398.15 h 0 M 155.05 399.26 h 0 M 150.00 399.96 h 0" /><text  class="poloto_text poloto_legend_text" x="675" y="150" >direct_seq</text><line  class="poloto_scatter poloto_legend_icon poloto1stroke poloto1legend" stroke="black" x1="685" x2="685" y1="131.25" y2="131.25" /><path  class="poloto_scatter poloto1stroke" d=" M 650.00 232.74 h 0 M 644.95 240.47 h 0 M 639.90 240.45 h 0 M 634.85 245.57 h 0 M 629.80 242.77 h 0 M 624.75 244.26 h 0 M 619.70 243.55 h 0 M 614.65 247.88 h 0 M 609.60 251.52 h 0 M 604.55 249.47 h 0 M 599.49 254.66 h 0 M 594.44 252.86 h 0 M 589.39 257.56 h 0 M 584.34 256.19 h 0 M 579.29 260.32 h 0 M 574.24 258.69 h 0 M 569.19 262.51 h 0 M 564.14 263.71 h 0 M 559.09 268.11 h 0 M 554.04 265.66 h 0 M 548.99 271.43 h 0 M 543.94 272.12 h 0 M 538.89 276.01 h 0 M 533.84 274.84 h 0 M 528.79 278.66 h 0 M 523.74 278.22 h 0 M 518.69 276.49 h 0 M 513.64 279.82 h 0 M 508.59 282.67 h 0 M 503.54 284.49 h 0 M 498.48 288.34 h 0 M 493.43 290.85 h 0 M 488.38 293.40 h 0 M 483.33 293.21 h 0 M 478.28 296.15 h 0 M 473.23 300.42 h 0 M 468.18 298.01 h 0 M 463.13 304.05 h 0 M 458.08 299.17 h 0 M 453.03 303.56 h 0 M 447.98 305.89 h 0 M 442.93 308.41 h 0 M 437.88 310.35 h 0 M 432.83 310.04 h 0 M 427.78 311.81 h 0 M 422.73 312.98 h 0 M 417.68 314.24 h 0 M 412.63 315.42 h 0 M 407.58 316.85 h 0 M 402.53 319.52 h 0 M 397.47 321.63 h 0 M 392.42 324.20 h 0 M 387.37 328.67 h 0 M 382.32 327.90 h 0 M 377.27 329.35 h 0 M 372.22 330.42 h 0 M 367.17 326.43 h 0 M 362.12 331.04 h 0 M 357.07 334.52 h 0 M 352.02 338.36 h 0 M 346.97 338.62 h 0 M 341.92 339.04 h 0 M 336.87 340.97 h 0 M 331.82 342.62 h 0 M 326.77 344.79 h 0 M 321.72 344.23 h 0 M 316.67 348.90 h 0 M 311.62 348.09 h 0 M 306.57 352.03 h 0 M 301.52 354.17 h 0 M 296.46 354.51 h 0 M 291.41 356.86 h 0 M 286.36 362.21 h 0 M 281.31 364.35 h 0 M 276.26 366.74 h 0 M 271.21 364.28 h 0 M 266.16 369.25 h 0 M 261.11 371.91 h 0 M 256.06 372.34 h 0 M 251.01 373.90 h 0 M 245.96 373.60 h 0 M 240.91 375.44 h 0 M 235.86 376.85 h 0 M 230.81 379.00 h 0 M 225.76 381.36 h 0 M 220.71 381.39 h 0 M 215.66 382.25 h 0 M 210.61 384.62 h 0 M 205.56 385.13 h 0 M 200.51 387.11 h 0 M 195.45 388.11 h 0 M 190.40 389.74 h 0 M 185.35 391.10 h 0 M 180.30 393.39 h 0 M 175.25 394.64 h 0 M 170.20 395.69 h 0 M 165.15 396.53 h 0 M 160.10 397.97 h 0 M 155.05 399.03 h 0 M 150.00 399.96 h 0" /><text  class="poloto_text poloto_legend_text" x="675" y="200" >indirect_seq</text><line  class="poloto_scatter poloto_legend_icon poloto2stroke poloto2legend" stroke="black" x1="685" x2="685" y1="181.25" y2="181.25" /><path  class="poloto_scatter poloto2stroke" d=" M 650.00 116.26 h 0 M 644.95 122.73 h 0 M 639.90 100.00 h 0 M 634.85 135.86 h 0 M 629.80 135.94 h 0 M 624.75 144.30 h 0 M 619.70 138.50 h 0 M 614.65 142.05 h 0 M 609.60 149.06 h 0 M 604.55 150.14 h 0 M 599.49 160.33 h 0 M 594.44 154.23 h 0 M 589.39 166.18 h 0 M 584.34 157.93 h 0 M 579.29 170.34 h 0 M 574.24 171.24 h 0 M 569.19 175.20 h 0 M 564.14 176.30 h 0 M 559.09 184.58 h 0 M 554.04 187.41 h 0 M 548.99 195.05 h 0 M 543.94 193.22 h 0 M 538.89 200.84 h 0 M 533.84 198.28 h 0 M 528.79 206.03 h 0 M 523.74 207.40 h 0 M 518.69 202.12 h 0 M 513.64 204.41 h 0 M 508.59 210.49 h 0 M 503.54 214.63 h 0 M 498.48 217.74 h 0 M 493.43 225.78 h 0 M 488.38 232.57 h 0 M 483.33 229.89 h 0 M 478.28 235.24 h 0 M 473.23 243.19 h 0 M 468.18 237.38 h 0 M 463.13 251.41 h 0 M 458.08 238.53 h 0 M 453.03 246.66 h 0 M 447.98 253.13 h 0 M 442.93 258.21 h 0 M 437.88 261.43 h 0 M 432.83 259.81 h 0 M 427.78 262.24 h 0 M 422.73 264.55 h 0 M 417.68 266.66 h 0 M 412.63 268.19 h 0 M 407.58 272.56 h 0 M 402.53 276.49 h 0 M 397.47 278.16 h 0 M 392.42 284.86 h 0 M 387.37 293.56 h 0 M 382.32 289.15 h 0 M 377.27 293.28 h 0 M 372.22 292.69 h 0 M 367.17 299.42 h 0 M 362.12 297.84 h 0 M 357.07 303.21 h 0 M 352.02 306.70 h 0 M 346.97 311.08 h 0 M 341.92 311.03 h 0 M 336.87 314.14 h 0 M 331.82 316.72 h 0 M 326.77 319.86 h 0 M 321.72 319.01 h 0 M 316.67 325.09 h 0 M 311.62 325.64 h 0 M 306.57 330.71 h 0 M 301.52 335.22 h 0 M 296.46 336.40 h 0 M 291.41 339.23 h 0 M 286.36 344.94 h 0 M 281.31 347.42 h 0 M 276.26 352.23 h 0 M 271.21 352.13 h 0 M 266.16 355.95 h 0 M 261.11 359.69 h 0 M 256.06 361.67 h 0 M 251.01 363.39 h 0 M 245.96 363.73 h 0 M 240.91 364.61 h 0 M 235.86 368.81 h 0 M 230.81 371.35 h 0 M 225.76 374.73 h 0 M 220.71 374.46 h 0 M 215.66 376.79 h 0 M 210.61 379.75 h 0 M 205.56 380.50 h 0 M 200.51 383.29 h 0 M 195.45 385.04 h 0 M 190.40 386.47 h 0 M 185.35 388.73 h 0 M 180.30 391.50 h 0 M 175.25 393.29 h 0 M 170.20 394.76 h 0 M 165.15 396.24 h 0 M 160.10 397.67 h 0 M 155.05 399.10 h 0 M 150.00 399.98 h 0" /><text  class="poloto_labels poloto_text poloto_title" x="400" y="37.5" >Bench of rebal:32_bytes with abspiral(num,1.5)</text><text  class="poloto_labels poloto_text poloto_xname" x="400" y="481.25" >Number of Elements</text><text  class="poloto_labels poloto_text poloto_yname" transform="rotate(-90,37.5,250)" x="37.5" y="250" >Time in Seconds</text><text  class="poloto_tick_labels poloto_text" dominant-baseline="middle" text-anchor="start" x="150" y="70" ></text><line  class="poloto_axis_lines" stroke="black" x1="150" x2="144" y1="400" y2="400" /><text  class="poloto_tick_labels poloto_text" dominant-baseline="middle" text-anchor="end" x="135" y="400" >0e0</text><line  class="poloto_axis_lines" stroke="black" x1="150" x2="144" y1="333.42839758158686" y2="333.42839758158686" /><text  class="poloto_tick_labels poloto_text" dominant-baseline="middle" text-anchor="end" x="135" y="333.42839758158686" >0.001</text><line  class="poloto_axis_lines" stroke="black" x1="150" x2="144" y1="266.8567951631737" y2="266.8567951631737" /><text  class="poloto_tick_labels poloto_text" dominant-baseline="middle" text-anchor="end" x="135" y="266.8567951631737" >0.002</text><line  class="poloto_axis_lines" stroke="black" x1="150" x2="144" y1="200.28519274476048" y2="200.28519274476048" /><text  class="poloto_tick_labels poloto_text" dominant-baseline="middle" text-anchor="end" x="135" y="200.28519274476048" >0.003</text><line  class="poloto_axis_lines" stroke="black" x1="150" x2="144" y1="133.71359032634734" y2="133.71359032634734" /><text  class="poloto_tick_labels poloto_text" dominant-baseline="middle" text-anchor="end" x="135" y="133.71359032634734" >0.004</text><text  class="poloto_tick_labels poloto_text" dominant-baseline="middle" text-anchor="start" x="440.00000000000006" y="70" ></text><line  class="poloto_axis_lines" stroke="black" x1="150" x2="150" y1="400" y2="405" /><text  class="poloto_tick_labels poloto_text" dominant-baseline="start" text-anchor="middle" x="150" y="430" >0</text><line  class="poloto_axis_lines" stroke="black" x1="234.17508417508418" x2="234.17508417508418" y1="400" y2="405" /><text  class="poloto_tick_labels poloto_text" dominant-baseline="start" text-anchor="middle" x="234.17508417508418" y="430" >5000</text><line  class="poloto_axis_lines" stroke="black" x1="318.35016835016836" x2="318.35016835016836" y1="400" y2="405" /><text  class="poloto_tick_labels poloto_text" dominant-baseline="start" text-anchor="middle" x="318.35016835016836" y="430" >10000</text><line  class="poloto_axis_lines" stroke="black" x1="402.52525252525254" x2="402.52525252525254" y1="400" y2="405" /><text  class="poloto_tick_labels poloto_text" dominant-baseline="start" text-anchor="middle" x="402.52525252525254" y="430" >15000</text><line  class="poloto_axis_lines" stroke="black" x1="486.7003367003367" x2="486.7003367003367" y1="400" y2="405" /><text  class="poloto_tick_labels poloto_text" dominant-baseline="start" text-anchor="middle" x="486.7003367003367" y="430" >20000</text><line  class="poloto_axis_lines" stroke="black" x1="570.8754208754208" x2="570.8754208754208" y1="400" y2="405" /><text  class="poloto_tick_labels poloto_text" dominant-baseline="start" text-anchor="middle" x="570.8754208754208" y="430" >25000</text><path  stroke="black" fill="none" class="poloto_axis_lines" style="stroke-dasharray:8.417508417508419;stroke-dashoffset:-0;" d=" M 150 400 L 650 400" /><path  stroke="black" fill="none" class="poloto_axis_lines" style="stroke-dasharray:6.657160241841316;stroke-dashoffset:-0;" d=" M 150 400 L 150 100" /></svg>