<svg class="poloto" width="800" height="500" viewBox="0 0 800 500" xmlns="http://www.w3.org/2000/svg"><text  class="poloto_text poloto_legend_text" alignment-baseline="middle" text-anchor="start" font-size="large" x="675" y="100" >default_par</text><line  class="poloto_line poloto_legend_icon poloto0stroke poloto0legend" stroke="black" x1="680" x2="730" y1="81.25" y2="81.25" /><path  class="poloto_line poloto0stroke" fill="none" stroke="black" d=" M 650 282.0845185428862 L 644.9494949494949 272.97420622841696 L 639.8989898989898 283.9648059086129 L 634.8484848484848 286.67909170268604 L 629.7979797979798 288.87437998158026 L 624.7474747474747 293.03892662880327 L 619.6969696969697 306.14547792173124 L 614.6464646464647 309.85411101324735 L 609.5959595959596 311.03486177659397 L 604.5454545454545 292.55075899023217 L 599.4949494949494 292.33905491906876 L 594.4444444444445 292.3687956967748 L 589.3939393939394 296.2813416134637 L 584.3434343434344 297.55885462540306 L 579.2929292929293 292.2559482951693 L 574.2424242424242 292.2076090592922 L 569.1919191919192 286.74887780924684 L 564.1414141414141 303.1959467648457 L 559.090909090909 305.0455718076417 L 554.040404040404 309.69744832504966 L 548.989898989899 303.9357800265964 L 543.939393939394 310.7601575227971 L 538.8888888888889 310.82231993704454 L 533.8383838383838 310.2067277269501 L 528.7878787878788 305.74217622067044 L 523.7373737373737 313.84909333912697 L 518.6868686868687 313.8720481929057 L 513.6363636363636 314.30567710954267 L 508.5858585858586 314.107293555718 L 503.5353535353535 319.73190294620804 L 498.4848484848485 317.06771570162266 L 493.4343434343434 311.9126754915327 L 488.3838383838384 312.8911889664787 L 483.3333333333333 322.21002183224414 L 478.2828282828283 315.7817412289839 L 473.2323232323232 317.67291958372965 L 468.1818181818182 326.1486223457403 L 463.1313131313131 270.70150815064864 L 458.0808080808081 325.2728192749282 L 453.030303030303 328.75265782020483 L 447.979797979798 326.5844294601811 L 442.9292929292929 320.6748112647454 L 437.8787878787879 331.2678060689059 L 432.8282828282828 323.2228838110195 L 427.77777777777777 326.6437434619159 L 422.72727272727275 323.8953604945291 L 417.67676767676767 323.98692857912806 L 412.62626262626264 325.64973127182736 L 407.57575757575756 324.60964182050424 L 402.52525252525254 327.1111344445121 L 397.47474747474746 328.79630555311985 L 392.4242424242424 328.92029527426024 L 387.37373737373736 331.4944224173416 L 382.32323232323233 333.1274005554963 L 377.27272727272725 334.05472638205254 L 372.22222222222223 333.4489360620753 L 367.1717171717172 336.1865118172816 L 362.1212121212121 336.272215523178 L 357.07070707070704 336.080953000635 L 352.020202020202 338.5242207218101 L 346.969696969697 342.6151275278963 L 341.9191919191919 343.7405018009228 L 336.86868686868684 343.94474973345 L 331.8181818181818 345.6951829993337 L 326.7676767676768 344.8360515194047 L 321.7171717171717 349.6850549380582 L 316.66666666666663 351.21448490369295 L 311.6161616161616 352.485211991705 L 306.5656565656566 353.687493402574 L 301.5151515151515 356.0246158692322 L 296.4646464646464 356.68033718502005 L 291.4141414141414 358.7214760808748 L 286.3636363636364 348.55599448413295 L 281.3131313131313 351.6255778507443 L 276.26262626262627 359.2100626036389 L 271.2121212121212 361.4118854759446 L 266.16161616161617 362.47233269904956 L 261.1111111111111 364.20567548985713 L 256.06060606060606 365.0980663747137 L 251.010101010101 367.1033487836441 L 245.95959595959596 369.25105181820874 L 240.9090909090909 370.70131267135855 L 235.85858585858585 371.215283576221 L 230.8080808080808 373.51060140041363 L 225.75757575757575 374.3971279065676 L 220.7070707070707 375.7425839346183 L 215.65656565656565 369.6092815800982 L 210.6060606060606 371.0968231264287 L 205.55555555555554 373.95713195019636 L 200.50505050505052 375.72071817974154 L 195.45454545454544 376.7324072827764 L 190.40404040404042 379.64700349796226 L 185.35353535353534 380.31587777741163 L 180.3030303030303 382.62594032519934 L 175.25252525252526 386.0183996278074 L 170.2020202020202 388.81386517849216 L 165.15151515151516 391.01501783608893 L 160.1010101010101 394.88022983896417 L 155.05050505050505 397.5901592374297 L 150 399.994219398136" /><text  class="poloto_text poloto_legend_text" alignment-baseline="middle" text-anchor="start" font-size="large" x="675" y="150" >default_seq</text><line  class="poloto_line poloto_legend_icon poloto1stroke poloto1legend" stroke="black" x1="680" x2="730" y1="131.25" y2="131.25" /><path  class="poloto_line poloto1stroke" fill="none" stroke="black" d=" M 650 100 L 644.9494949494949 116.912114186714 L 639.8989898989898 132.07974326308556 L 634.8484848484848 121.03016468850933 L 629.7979797979798 147.7700560355348 L 624.7474747474747 122.26411374437231 L 619.6969696969697 124.01639010070534 L 614.6464646464647 157.77024592970233 L 609.5959595959596 145.25758864566922 L 604.5454545454545 148.32960154060024 L 599.4949494949494 141.34931534774927 L 594.4444444444445 158.1236166349525 L 589.3939393939394 171.06085493705288 L 584.3434343434344 156.27843176460274 L 579.2929292929293 171.96597990137792 L 574.2424242424242 161.63738479986552 L 569.1919191919192 152.60037721917865 L 564.1414141414141 169.75427136211647 L 559.090909090909 171.8301776459937 L 554.040404040404 179.6897855368783 L 548.989898989899 178.54329950052252 L 543.939393939394 200.45060768926166 L 538.8888888888889 185.49149916418642 L 533.8383838383838 189.43051856187563 L 528.7878787878788 204.30911754504822 L 523.7373737373737 212.69593308129538 L 518.6868686868687 204.49711277088545 L 513.6363636363636 191.23532299601615 L 508.5858585858586 211.8131765328788 L 503.5353535353535 211.55212790377504 L 498.4848484848485 211.6542518700387 L 493.4343434343434 200.6577040343016 L 488.3838383838384 232.63523955428488 L 483.3333333333333 204.7475217414859 L 478.2828282828283 220.42292223666286 L 473.2323232323232 228.86871666729036 L 468.1818181818182 229.17735054072367 L 463.1313131313131 221.71802838470995 L 458.0808080808081 226.90004473683183 L 453.030303030303 232.64411989917738 L 447.979797979798 239.8589812401318 L 442.9292929292929 251.12730114031447 L 437.8787878787879 251.4450666891561 L 432.8282828282828 233.8437204512109 L 427.77777777777777 251.3771236730447 L 422.72727272727275 249.86972701596397 L 417.67676767676767 253.6712686214968 L 412.62626262626264 255.26051524989794 L 407.57575757575756 263.66023241929076 L 402.52525252525254 249.95040411154383 L 397.47474747474746 271.6479350964076 L 392.4242424242424 274.46669060822546 L 387.37373737373736 266.32006326826854 L 382.32323232323233 280.9934089968506 L 377.27272727272725 275.3398965970407 L 372.22222222222223 280.2090064569602 L 367.1717171717172 280.8135401243584 L 362.1212121212121 285.78401995899407 L 357.07070707070704 289.4151594747974 L 352.020202020202 296.90304953277655 L 346.969696969697 293.7991176623358 L 341.9191919191919 298.4603771856679 L 336.86868686868684 301.8325624933328 L 331.8181818181818 305.3583945230054 L 326.7676767676768 306.0634603967336 L 321.7171717171717 307.6424862508245 L 316.66666666666663 314.00877199351453 L 311.6161616161616 313.7531688589204 L 306.5656565656566 316.2058195860196 L 301.5151515151515 318.6859491161823 L 296.4646464646464 322.22996071983295 L 291.4141414141414 324.1466072335156 L 286.3636363636364 325.87123723310793 L 281.3131313131313 331.2719949108363 L 276.26262626262627 333.8663122720223 L 271.2121212121212 334.8792580276363 L 266.16161616161617 340.1966577509493 L 261.1111111111111 338.91562611178847 L 256.06060606060606 343.8959916133799 L 251.010101010101 349.2604739199909 L 245.95959595959596 351.6554861821275 L 240.9090909090909 352.9517652059151 L 235.85858585858585 356.82225514962266 L 230.8080808080808 356.8756209958162 L 225.75757575757575 362.4075732028053 L 220.7070707070707 365.00574429856727 L 215.65656565656565 365.3952228212577 L 210.6060606060606 367.6740366082444 L 205.55555555555554 369.4062065233115 L 200.50505050505052 372.6622771326651 L 195.45454545454544 375.59421515344286 L 190.40404040404042 379.1701457326033 L 185.35353535353534 380.72847870755794 L 180.3030303030303 384.47162785658077 L 175.25252525252526 385.7694148634633 L 170.2020202020202 389.5727995594455 L 165.15151515151516 391.4223408254029 L 160.1010101010101 394.47324195700463 L 155.05050505050505 397.61051700921155 L 150 399.9939680676202" /><text  class="poloto_text poloto_legend_text" alignment-baseline="middle" text-anchor="start" font-size="large" x="675" y="200" >direct_par</text><line  class="poloto_line poloto_legend_icon poloto2stroke poloto2legend" stroke="black" x1="680" x2="730" y1="181.25" y2="181.25" /><path  class="poloto_line poloto2stroke" fill="none" stroke="black" d=" M 650 289.131574876108 L 644.9494949494949 284.2710940305651 L 639.8989898989898 273.46513850266217 L 634.8484848484848 291.2011141202511 L 629.7979797979798 288.39459002687005 L 624.7474747474747 287.64956260112564 L 619.6969696969697 292.4080032572435 L 614.6464646464647 311.7890208777467 L 609.5959595959596 314.5085846126522 L 604.5454545454545 291.590257535587 L 599.4949494949494 300.26241698413435 L 594.4444444444445 300.0412461302082 L 589.3939393939394 304.26921184425777 L 584.3434343434344 302.08406056283513 L 579.2929292929293 304.83227597654474 L 574.2424242424242 301.60200863348246 L 569.1919191919192 300.85656232354506 L 564.1414141414141 303.5205820144532 L 559.090909090909 309.8247891197344 L 554.040404040404 305.4000316117938 L 548.989898989899 305.7450246331831 L 543.939393939394 310.1698659179624 L 538.8888888888889 305.0516037400215 L 533.8383838383838 313.999053880236 L 528.7878787878788 303.9524516174794 L 523.7373737373737 314.40445000226197 L 518.6868686868687 315.84884647670924 L 513.6363636363636 305.5948127615583 L 508.5858585858586 317.5223726047504 L 503.5353535353535 316.64204558465343 L 498.4848484848485 322.5732782044501 L 493.4343434343434 322.1817890376331 L 488.3838383838384 324.73756905305925 L 483.3333333333333 317.51809998598134 L 478.2828282828283 305.0417180730657 L 473.2323232323232 326.469152530256 L 468.1818181818182 325.8396533649526 L 463.1313131313131 328.5435508310383 L 458.0808080808081 326.34566547014725 L 453.030303030303 330.3092314815487 L 447.979797979798 330.0237200155713 L 442.9292929292929 331.5363946134844 L 437.8787878787879 333.4169333097269 L 432.8282828282828 333.0287114396156 L 427.77777777777777 327.02216344191 L 422.72727272727275 326.69300424301764 L 417.67676767676767 327.3249329366407 L 412.62626262626264 327.85951294380084 L 407.57575757575756 327.7621642573379 L 402.52525252525254 328.9909191492071 L 397.47474747474746 330.3503659093054 L 392.4242424242424 332.8719649745793 L 387.37373737373736 334.0324417429827 L 382.32323232323233 335.0245270657833 L 377.27272727272725 336.03831058978335 L 372.22222222222223 339.0785720628818 L 367.1717171717172 338.65767722571326 L 362.1212121212121 342.31420112361496 L 357.07070707070704 340.57692082139283 L 352.020202020202 345.29908610639325 L 346.969696969697 343.36668954705215 L 341.9191919191919 340.89510525442745 L 336.86868686868684 346.583133711744 L 331.8181818181818 348.9678414227318 L 326.7676767676768 347.5569556837279 L 321.7171717171717 348.6260319212096 L 316.66666666666663 352.23513812845897 L 311.6161616161616 350.637513816197 L 306.5656565656566 356.02369432400747 L 301.5151515151515 357.58294884418683 L 296.4646464646464 358.9207811799242 L 291.4141414141414 359.53159811021794 L 286.3636363636364 358.8815736194554 L 281.3131313131313 363.8698141438761 L 276.26262626262627 355.64250970833933 L 271.2121212121212 363.1564543631257 L 266.16161616161617 363.62853684868395 L 261.1111111111111 364.89281312012315 L 256.06060606060606 368.3827886628714 L 251.010101010101 369.5643771946041 L 245.95959595959596 370.4951378715433 L 240.9090909090909 371.9761448244624 L 235.85858585858585 372.57682475728456 L 230.8080808080808 373.68167370485196 L 225.75757575757575 374.856978973689 L 220.7070707070707 376.9831513607313 L 215.65656565656565 371.2854047901362 L 210.6060606060606 373.0210095555862 L 205.55555555555554 375.11819515647 L 200.50505050505052 375.9699542746015 L 195.45454545454544 376.8399767435496 L 190.40404040404042 379.79470206442886 L 185.35353535353534 380.71373398396287 L 180.3030303030303 385.4710855411788 L 175.25252525252526 388.3860168637191 L 170.2020202020202 391.3495387526522 L 165.15151515151516 392.2477940162114 L 160.1010101010101 395.0634497850007 L 155.05050505050505 397.77195497720993 L 150 399.9917060929778" /><text  class="poloto_text poloto_legend_text" alignment-baseline="middle" text-anchor="start" font-size="large" x="675" y="250" >direct_seq</text><line  class="poloto_line poloto_legend_icon poloto3stroke poloto3legend" stroke="black" x1="680" x2="730" y1="231.25" y2="231.25" /><path  class="poloto_line poloto3stroke" fill="none" stroke="black" d=" M 650 133.13348833910186 L 644.9494949494949 140.50484481457676 L 639.8989898989898 157.78800661948728 L 634.8484848484848 139.64588088832494 L 629.7979797979798 141.18393986833632 L 624.7474747474747 168.5619593950419 L 619.6969696969697 158.35391916428696 L 614.6464646464647 168.77559033349328 L 609.5959595959596 156.16633835454473 L 604.5454545454545 158.8364737546713 L 599.4949494949494 186.4540112629582 L 594.4444444444445 166.96383242174824 L 589.3939393939394 191.1348745665247 L 584.3434343434344 170.55459150134243 L 579.2929292929293 172.0360173384545 L 574.2424242424242 191.01733566195713 L 569.1919191919192 177.5773525513678 L 564.1414141414141 180.59599960010524 L 559.090909090909 187.49904354775924 L 554.040404040404 188.05817016863162 L 548.989898989899 195.35705967871027 L 543.939393939394 207.47353629296427 L 538.8888888888889 203.8573928312718 L 533.8383838383838 200.30835461730462 L 528.7878787878788 221.91967923524035 L 523.7373737373737 204.0595463428338 L 518.6868686868687 205.86812073471174 L 513.6363636363636 212.2796459702503 L 508.5858585858586 223.45262782809664 L 503.5353535353535 223.65193292714602 L 498.4848484848485 224.9233302298669 L 493.4343434343434 227.84412593110977 L 488.3838383838384 229.0927359337292 L 483.3333333333333 230.7047698622318 L 478.2828282828283 246.9296626418412 L 473.2323232323232 236.21829116472705 L 468.1818181818182 248.70707204975673 L 463.1313131313131 246.78632047098225 L 458.0808080808081 240.002909848861 L 453.030303030303 249.94730436851535 L 447.979797979798 249.6695003716899 L 442.9292929292929 254.59071942522388 L 437.8787878787879 253.77649233078895 L 432.8282828282828 248.69031668203507 L 427.77777777777777 257.3344108896486 L 422.72727272727275 262.6705766248099 L 417.67676767676767 265.2074230747105 L 412.62626262626264 271.52662623410265 L 407.57575757575756 273.7469637877408 L 402.52525252525254 271.9626846790593 L 397.47474747474746 272.0151289800282 L 392.4242424242424 275.97584657891696 L 387.37373737373736 280.2537432887771 L 382.32323232323233 287.9535049715969 L 377.27272727272725 290.5683476582419 L 372.22222222222223 294.2393649492229 L 367.1717171717172 288.92917003403016 L 362.1212121212121 293.62435917699867 L 357.07070707070704 295.6350870804386 L 352.020202020202 303.0384463082619 L 346.969696969697 304.9200741034063 L 341.9191919191919 307.4833102574686 L 336.86868686868684 304.8477746916873 L 331.8181818181818 310.5648737120009 L 326.7676767676768 310.8237441433008 L 321.7171717171717 315.83376664575974 L 316.66666666666663 319.65977108816617 L 311.6161616161616 322.27427866745677 L 306.5656565656566 321.51291475818374 L 301.5151515151515 324.1383133264934 L 296.4646464646464 329.1107200284171 L 291.4141414141414 331.70327807599233 L 286.3636363636364 331.1402139437053 L 281.3131313131313 333.2924409275548 L 276.26262626262627 336.07224020941976 L 271.2121212121212 340.97553101949154 L 266.16161616161617 343.5531767897944 L 261.1111111111111 343.93369119075373 L 256.06060606060606 350.1062848825812 L 251.010101010101 352.9555351636525 L 245.95959595959596 354.6794949485359 L 240.9090909090909 357.04727973812476 L 235.85858585858585 360.0837712534858 L 230.8080808080808 361.63682628760813 L 225.75757575757575 361.8543947374741 L 220.7070707070707 366.6651121408836 L 215.65656565656565 366.99594687654815 L 210.6060606060606 368.6936007341085 L 205.55555555555554 372.0786876749191 L 200.50505050505052 375.40931967063415 L 195.45454545454544 377.7324514052448 L 190.40404040404042 380.8339537473659 L 185.35353535353534 382.03690537294375 L 180.3030303030303 385.8219429412708 L 175.25252525252526 386.66281107038316 L 170.2020202020202 390.4837051256345 L 165.15151515151516 392.01589972694336 L 160.1010101010101 394.96719019743966 L 155.05050505050505 397.80337129168805 L 150 399.9927951918797" /><text  class="poloto_text poloto_legend_text" alignment-baseline="middle" text-anchor="start" font-size="large" x="675" y="300" >indirect_par</text><line  class="poloto_line poloto_legend_icon poloto4stroke poloto4legend" stroke="black" x1="680" x2="730" y1="281.25" y2="281.25" /><path  class="poloto_line poloto4stroke" fill="none" stroke="black" d=" M 650 258.0351203677692 L 644.9494949494949 265.98353170757866 L 639.8989898989898 273.5355110470932 L 634.8484848484848 272.12621706802287 L 629.7979797979798 265.2330587873247 L 624.7474747474747 277.91519661586256 L 619.6969696969697 270.88958715332444 L 614.6464646464647 299.30635570193544 L 609.5959595959596 295.9536066208277 L 604.5454545454545 281.26208131826763 L 599.4949494949494 281.6148655856476 L 594.4444444444445 281.24298019906496 L 589.3939393939394 278.351087507142 L 584.3434343434344 283.6025548584702 L 579.2929292929293 285.57432653195724 L 574.2424242424242 285.859335336903 L 569.1919191919192 289.7697030557881 L 564.1414141414141 293.73000177048385 L 559.090909090909 293.05853040903764 L 554.040404040404 298.04207943049624 L 548.989898989899 291.18335343046607 L 543.939393939394 293.86387715858007 L 538.8888888888889 298.8319274648961 L 533.8383838383838 300.9470413092421 L 528.7878787878788 298.18140031310196 L 523.7373737373737 298.67367301676484 L 518.6868686868687 301.533227848985 L 513.6363636363636 302.2568921808843 L 508.5858585858586 305.4800384926648 L 503.5353535353535 310.7173475582682 L 498.4848484848485 306.3311273960874 L 493.4343434343434 304.7852771700854 L 488.3838383838384 219.2157817691546 L 483.3333333333333 295.5315389079187 L 478.2828282828283 307.08662692665786 L 473.2323232323232 299.94197057645727 L 468.1818181818182 316.224334267352 L 463.1313131313131 316.36675489298625 L 458.0808080808081 318.4564005783953 L 453.030303030303 319.0633637741131 L 447.979797979798 319.7317353925308 L 442.9292929292929 321.8597508700225 L 437.8787878787879 323.01319038398276 L 432.8282828282828 320.58248918859897 L 427.77777777777777 319.923584352944 L 422.72727272727275 309.69292437576485 L 417.67676767676767 312.9283021059822 L 412.62626262626264 314.55566719595015 L 407.57575757575756 315.35037428698934 L 402.52525252525254 317.3740038235749 L 397.47474747474746 316.6810855914449 L 392.4242424242424 321.1027433563571 L 387.37373737373736 320.0111311492898 L 382.32323232323233 322.4952819677057 L 377.27272727272725 324.78540562790465 L 372.22222222222223 328.0205320276061 L 367.1717171717172 329.32569139628623 L 362.1212121212121 330.2214333546871 L 357.07070707070704 329.6821618445649 L 352.020202020202 330.3418206717674 L 346.969696969697 331.88649802202883 L 341.9191919191919 336.64259292666566 L 336.86868686868684 339.1029511229168 L 331.8181818181818 337.969953157577 L 326.7676767676768 340.4949870732338 L 321.7171717171717 342.0276843355743 L 316.66666666666663 342.5794385946491 L 311.6161616161616 346.99506442718143 L 306.5656565656566 348.97739198233313 L 301.5151515151515 347.27186310194355 L 296.4646464646464 350.18017605423375 L 291.4141414141414 353.5359411015314 L 286.3636363636364 351.23040250302853 L 281.3131313131313 352.48479310751196 L 276.26262626262627 354.0833389649986 L 271.2121212121212 356.889779281541 L 266.16161616161617 357.37476340024494 L 261.1111111111111 359.87215095916105 L 256.06060606060606 361.0952928028435 L 251.010101010101 363.45076239715695 L 245.95959595959596 364.0949225092169 L 240.9090909090909 368.06100182577654 L 235.85858585858585 370.1325517140462 L 230.8080808080808 372.60204158570565 L 225.75757575757575 371.31464290681055 L 220.7070707070707 373.3502525313172 L 215.65656565656565 363.028024469539 L 210.6060606060606 366.5454788153508 L 205.55555555555554 370.51088791720167 L 200.50505050505052 372.1840789378884 L 195.45454545454544 376.1806530237016 L 190.40404040404042 376.6291104407723 L 185.35353535353534 379.1292626353624 L 180.3030303030303 383.84254757547035 L 175.25252525252526 386.1969280708819 L 170.2020202020202 389.4683298417009 L 165.15151515151516 391.3125093899873 L 160.1010101010101 394.4681315698495 L 155.05050505050505 397.4303130293649 L 150 399.9940518444588" /><text  class="poloto_text poloto_legend_text" alignment-baseline="middle" text-anchor="start" font-size="large" x="675" y="350" >indirect_seq</text><line  class="poloto_line poloto_legend_icon poloto5stroke poloto5legend" stroke="black" x1="680" x2="730" y1="331.25" y2="331.25" /><path  class="poloto_line poloto5stroke" fill="none" stroke="black" d=" M 650 101.39974341946896 L 644.9494949494949 103.48972421223243 L 639.8989898989898 116.69764547987654 L 634.8484848484848 115.268077505863 L 629.7979797979798 117.48816372898528 L 624.7474747474747 140.98187013361292 L 619.6969696969697 123.46471961846913 L 614.6464646464647 130.85366923005176 L 609.5959595959596 121.8992656122328 L 604.5454545454545 134.72122698440808 L 599.4949494949494 150.72503268692986 L 594.4444444444445 141.0247638749804 L 589.3939393939394 135.1753812265041 L 584.3434343434344 141.71550390930656 L 579.2929292929293 150.08531274731624 L 574.2424242424242 175.56528421851013 L 569.1919191919192 155.13378881869633 L 564.1414141414141 165.76934225686986 L 559.090909090909 162.04998573001183 L 554.040404040404 175.55255013904164 L 548.989898989899 165.47846907322153 L 543.939393939394 181.28883405539662 L 538.8888888888889 193.5107857094586 L 533.8383838383838 197.28845091598805 L 528.7878787878788 175.49172815421196 L 523.7373737373737 203.02909122795066 L 518.6868686868687 189.09775695892313 L 513.6363636363636 193.40564577700505 L 508.5858585858586 201.01258272264673 L 503.5353535353535 202.77491229961282 L 498.4848484848485 199.6329457444438 L 493.4343434343434 205.10792970117922 L 488.3838383838384 211.81376297074908 L 483.3333333333333 226.1707673567458 L 478.2828282828283 232.01545850226003 L 473.2323232323232 218.121237372736 L 468.1818181818182 235.6832922733739 L 463.1313131313131 217.38768737388096 L 458.0808080808081 225.36743125132998 L 453.030303030303 237.0457549996621 L 447.979797979798 232.07669937128276 L 442.9292929292929 237.3832081055767 L 437.8787878787879 249.23109617525222 L 432.8282828282828 243.36177463918713 L 427.77777777777777 246.93703500363873 L 422.72727272727275 237.2985097217436 L 417.67676767676767 242.43922409243154 L 412.62626262626264 246.622285420987 L 407.57575757575756 248.47618308255204 L 402.52525252525254 259.2075772240936 L 397.47474747474746 263.5285352289984 L 392.4242424242424 259.76368787877607 L 387.37373737373736 266.7703637757886 L 382.32323232323233 268.93775436742624 L 377.27272727272725 276.14557845393756 L 372.22222222222223 273.7989892045166 L 367.1717171717172 281.9906047068062 L 362.1212121212121 283.3238293164201 L 357.07070707070704 286.19745865752645 L 352.020202020202 287.8827973198114 L 346.969696969697 293.160067937431 L 341.9191919191919 290.62883453571715 L 336.86868686868684 294.6414099977045 L 331.8181818181818 298.0714013240092 L 326.7676767676768 302.3153684142329 L 321.7171717171717 304.0390768686005 L 316.66666666666663 307.76722996351236 L 311.6161616161616 311.4953830584243 L 306.5656565656566 313.5263849568074 L 301.5151515151515 313.7127884227111 L 296.4646464646464 321.275407420729 L 291.4141414141414 319.503862391516 L 286.3636363636364 324.11837443890465 L 281.3131313131313 330.84917320637976 L 276.26262626262627 330.7954722528318 L 271.2121212121212 335.53967084638623 L 266.16161616161617 334.9805442255139 L 261.1111111111111 341.3857024213182 L 256.06060606060606 344.48913163072734 L 251.010101010101 342.35307357672923 L 245.95959595959596 347.6743270346183 L 240.9090909090909 351.6263318422918 L 235.85858585858585 353.0564862541756 L 230.8080808080808 356.9226198022755 L 225.75757575757575 358.7822980657045 L 220.7070707070707 364.8395310507682 L 215.65656565656565 362.8561981735532 L 210.6060606060606 364.6048721258261 L 205.55555555555554 367.86035629730947 L 200.50505050505052 371.1563046818407 L 195.45454545454544 375.1751634067237 L 190.40404040404042 377.3205206898073 L 185.35353535353534 381.28752155159174 L 180.3030303030303 382.19247896223953 L 175.25252525252526 386.2976278308892 L 170.2020202020202 389.74303409549776 L 165.15151515151516 390.94523172952813 L 160.1010101010101 394.4820385250585 L 155.05050505050505 397.07618833256726 L 150 399.9940518444588" /><text  class="poloto_labels poloto_text poloto_title" alignment-baseline="start" text-anchor="middle" font-size="x-large" x="400" y="37.5" >Bench of query:32_bytes with abspiral(num,1.5)</text><text  class="poloto_labels poloto_text poloto_xname" alignment-baseline="start" text-anchor="middle" font-size="x-large" x="400" y="481.25" >Number of Elements</text><text  class="poloto_labels poloto_text poloto_yname" alignment-baseline="start" text-anchor="middle" font-size="x-large" transform="rotate(-90,37.5,250)" x="37.5" y="250" >Time in Seconds</text><line  class="poloto_axis_lines" stroke="black" x1="150" x2="150" y1="400" y2="405" /><text  class="poloto_tick_labels poloto_text" alignment-baseline="start" text-anchor="middle" x="150" y="430" > 0</text><line  class="poloto_axis_lines" stroke="black" x1="234.17508417508418" x2="234.17508417508418" y1="400" y2="405" /><text  class="poloto_tick_labels poloto_text" alignment-baseline="start" text-anchor="middle" x="234.17508417508418" y="430" > 5000</text><line  class="poloto_axis_lines" stroke="black" x1="318.35016835016836" x2="318.35016835016836" y1="400" y2="405" /><text  class="poloto_tick_labels poloto_text" alignment-baseline="start" text-anchor="middle" x="318.35016835016836" y="430" > 10000</text><line  class="poloto_axis_lines" stroke="black" x1="402.52525252525254" x2="402.52525252525254" y1="400" y2="405" /><text  class="poloto_tick_labels poloto_text" alignment-baseline="start" text-anchor="middle" x="402.52525252525254" y="430" > 15000</text><line  class="poloto_axis_lines" stroke="black" x1="486.7003367003367" x2="486.7003367003367" y1="400" y2="405" /><text  class="poloto_tick_labels poloto_text" alignment-baseline="start" text-anchor="middle" x="486.7003367003367" y="430" > 20000</text><line  class="poloto_axis_lines" stroke="black" x1="570.8754208754208" x2="570.8754208754208" y1="400" y2="405" /><text  class="poloto_tick_labels poloto_text" alignment-baseline="start" text-anchor="middle" x="570.8754208754208" y="430" > 25000</text><line  class="poloto_axis_lines" stroke="black" x1="150" x2="144" y1="400" y2="400" /><text  class="poloto_tick_labels poloto_text" alignment-baseline="middle" text-anchor="end" x="135" y="400" > 0e0</text><line  class="poloto_axis_lines" stroke="black" x1="150" x2="144" y1="316.2231613916115" y2="316.2231613916115" /><text  class="poloto_tick_labels poloto_text" alignment-baseline="middle" text-anchor="end" x="135" y="316.2231613916115" > 0.001</text><line  class="poloto_axis_lines" stroke="black" x1="150" x2="144" y1="232.44632278322297" y2="232.44632278322297" /><text  class="poloto_tick_labels poloto_text" alignment-baseline="middle" text-anchor="end" x="135" y="232.44632278322297" > 0.002</text><line  class="poloto_axis_lines" stroke="black" x1="150" x2="144" y1="148.66948417483445" y2="148.66948417483445" /><text  class="poloto_tick_labels poloto_text" alignment-baseline="middle" text-anchor="end" x="135" y="148.66948417483445" > 0.003</text><path  stroke="black" fill="none" class="poloto_axis_lines" style="stroke-dasharray:8.417508417508419;stroke-dashoffset:-0;" d=" M 150 400 L 650 400" /><path  stroke="black" fill="none" class="poloto_axis_lines" style="stroke-dasharray:10.472104826048565;stroke-dashoffset:-0;" d=" M 150 400 L 150 100" /></svg>