<svg class="poloto" width="800" height="500" viewBox="0 0 800 500" xmlns="http://www.w3.org/2000/svg"><style>.poloto {
                    font-family: "Arial";
                    stroke-width:2;
                    }
                    .poloto_text{fill: var(--poloto_fg_color,black);  }
                    .poloto_axis_lines{stroke: var(--poloto_fg_color,black);stoke-width:3;fill:none}
                    .poloto_background{fill: var(--poloto_bg_color,aliceblue); }
                    .poloto0stroke{stroke:  var(--poloto_color0,blue); }
                    .poloto1stroke{stroke:  var(--poloto_color1,red); }
                    .poloto2stroke{stroke:  var(--poloto_color2,green); }
                    .poloto3stroke{stroke:  var(--poloto_color3,gold); }
                    .poloto4stroke{stroke:  var(--poloto_color4,aqua); }
                    .poloto5stroke{stroke:  var(--poloto_color5,brown); }
                    .poloto6stroke{stroke:  var(--poloto_color6,lime); }
                    .poloto7stroke{stroke:  var(--poloto_color7,chocolate); }
                    .poloto0fill{fill:var(--poloto_color0,blue);}
                    .poloto1fill{fill:var(--poloto_color1,red);}
                    .poloto2fill{fill:var(--poloto_color2,green);}
                    .poloto3fill{fill:var(--poloto_color3,gold);}
                    .poloto4fill{fill:var(--poloto_color4,aqua);}
                    .poloto5fill{fill:var(--poloto_color5,brown);}
                    .poloto6fill{fill:var(--poloto_color6,lime);}
                    .poloto7fill{fill:var(--poloto_color7,chocolate);}</style><rect class="poloto_background" fill="white" x="0" y="0" width="800" height="500"/><line class="poloto_axis_lines" stroke="black" x1="150" x2="150" y1="400" y2="405"/><text class="poloto_text" alignment-baseline="start" text-anchor="middle" x="150" y="430">0</text><line class="poloto_axis_lines" stroke="black" x1="234.17508417508418" x2="234.17508417508418" y1="400" y2="405"/><text class="poloto_text" alignment-baseline="start" text-anchor="middle" x="234.17508417508418" y="430">5000</text><line class="poloto_axis_lines" stroke="black" x1="318.35016835016836" x2="318.35016835016836" y1="400" y2="405"/><text class="poloto_text" alignment-baseline="start" text-anchor="middle" x="318.35016835016836" y="430">10000</text><line class="poloto_axis_lines" stroke="black" x1="402.52525252525254" x2="402.52525252525254" y1="400" y2="405"/><text class="poloto_text" alignment-baseline="start" text-anchor="middle" x="402.52525252525254" y="430">15000</text><line class="poloto_axis_lines" stroke="black" x1="486.7003367003367" x2="486.7003367003367" y1="400" y2="405"/><text class="poloto_text" alignment-baseline="start" text-anchor="middle" x="486.7003367003367" y="430">20000</text><line class="poloto_axis_lines" stroke="black" x1="570.8754208754208" x2="570.8754208754208" y1="400" y2="405"/><text class="poloto_text" alignment-baseline="start" text-anchor="middle" x="570.8754208754208" y="430">25000</text><line class="poloto_axis_lines" stroke="black" x1="150" x2="144" y1="347.83738664573985" y2="347.83738664573985"/><text class="poloto_text" alignment-baseline="middle" text-anchor="end" x="135" y="347.83738664573985">0.002</text><line class="poloto_axis_lines" stroke="black" x1="150" x2="144" y1="295.6710173128877" y2="295.6710173128877"/><text class="poloto_text" alignment-baseline="middle" text-anchor="end" x="135" y="295.6710173128877">0.004</text><line class="poloto_axis_lines" stroke="black" x1="150" x2="144" y1="243.50464798003554" y2="243.50464798003554"/><text class="poloto_text" alignment-baseline="middle" text-anchor="end" x="135" y="243.50464798003554">0.006</text><line class="poloto_axis_lines" stroke="black" x1="150" x2="144" y1="191.33827864718342" y2="191.33827864718342"/><text class="poloto_text" alignment-baseline="middle" text-anchor="end" x="135" y="191.33827864718342">0.008</text><line class="poloto_axis_lines" stroke="black" x1="150" x2="144" y1="139.1719093143313" y2="139.1719093143313"/><text class="poloto_text" alignment-baseline="middle" text-anchor="end" x="135" y="139.1719093143313">0.010</text><text class="poloto_text" alignment-baseline="middle" text-anchor="start" font-size="large" x="675" y="100">default_par</text><line class="poloto0stroke" stroke="black" x1="680" x2="730" y1="81.25" y2="81.25"/><polyline class="poloto0stroke" fill="none" stroke="black" points="650,312.5490287795773 644.9494949494949,315.5280153835145 639.8989898989898,314.82468230898434 634.8484848484848,313.964119797285 629.7979797979798,317.56216470609513 624.7474747474747,317.51766679305416 619.6969696969697,317.08121686403086 614.6464646464647,319.58444617965245 609.5959595959596,318.0267583913735 604.5454545454545,321.767321821201 599.4949494949494,320.1826901031616 594.4444444444445,321.2171752902167 589.3939393939394,321.9343585358048 584.3434343434344,322.4417025607514 579.2929292929293,325.18474067619616 574.2424242424242,326.10138203492835 569.1919191919192,324.9944899272392 564.1414141414141,323.8412740835825 559.090909090909,326.21038366364934 554.040404040404,328.4026231684931 548.989898989899,327.9691988888911 543.939393939394,332.2458500131677 538.8888888888889,330.32213689446473 533.8383838383838,332.2259485432672 528.7878787878788,333.80032956973264 523.7373737373737,331.91044634154207 518.6868686868687,334.9129599780484 513.6363636363636,335.3189447473813 508.5858585858586,333.730322302088 503.5353535353535,334.43219471827683 498.4848484848485,337.90827465558675 493.4343434343434,337.98305514602544 488.3838383838384,335.9045644095119 483.3333333333333,336.9140097392873 478.2828282828283,336.3276075816167 473.2323232323232,338.41186270194146 468.1818181818182,337.3970442361248 463.1313131313131,338.3351259726528 458.0808080808081,341.46628187593393 453.030303030303,341.2355761075594 447.979797979798,342.4877776370252 442.9292929292929,342.1650503931475 437.8787878787879,342.6640477990009 432.8282828282828,344.89747265243295 427.77777777777777,345.68030727382643 422.72727272727275,348.28189627882506 417.67676767676767,347.8694689628795 412.62626262626264,349.88371681555964 407.57575757575756,346.38165802632193 402.52525252525254,349.5387145319768 397.47474747474746,349.11940125527934 392.4242424242424,350.39043484407426 387.37373737373736,351.7376313320952 382.32323232323233,353.3770638211187 377.27272727272725,356.13259578201865 372.22222222222223,355.53469093991015 367.1717171717172,357.23001969367385 362.1212121212121,357.8236208103124 357.07070707070704,354.92710923629045 352.020202020202,358.80479196790935 346.969696969697,357.81464819478714 341.9191919191919,358.13935776069945 336.86868686868684,359.6333764952077 331.8181818181818,361.011272891581 326.7676767676768,360.42779205059304 321.7171717171717,361.36981234800567 316.66666666666663,362.98029250204945 311.6161616161616,362.71273119374126 306.5656565656566,362.384109150129 301.5151515151515,363.4240457227794 296.4646464646464,367.95706846914226 291.4141414141414,369.82045118171175 286.3636363636364,369.5472298223309 281.3131313131313,370.696272356441 276.26262626262627,373.4117144625086 271.2121212121212,371.3496561323349 266.16161616161617,372.20570625308704 261.1111111111111,375.1668258755277 256.06060606060606,373.5115608934117 251.010101010101,375.19045724083554 245.95959595959596,377.90070879315454 240.9090909090909,375.51720129515184 235.85858585858585,376.13177329226215 230.8080808080808,382.24841051246244 225.75757575757575,381.0470451099115 220.7070707070707,377.8184685119013 215.65656565656565,376.2628934615803 210.6060606060606,377.1921851648757 205.55555555555554,378.7584282377253 200.50505050505052,380.164442307169 195.45454545454544,381.69795098326216 190.40404040404042,381.90591221460755 185.35353535353534,384.7761580216704 180.3030303030303,385.23394399575085 175.25252525252526,387.8882210337757 170.2020202020202,390.33701474299846 165.15151515151516,392.9737377977428 160.1010101010101,395.11542809070306 155.05050505050505,397.9268041499738 150,400 "/><text class="poloto_text" alignment-baseline="middle" text-anchor="start" font-size="large" x="675" y="150">default_seq</text><line class="poloto1stroke" stroke="black" x1="680" x2="730" y1="131.25" y2="131.25"/><polyline class="poloto1stroke" fill="none" stroke="black" points="650,102.20898490939965 644.9494949494949,126.72738716131744 639.8989898989898,128.9939898256452 634.8484848484848,132.35869456442953 629.7979797979798,136.31092303782503 624.7474747474747,139.1758739584006 619.6969696969697,142.347354465176 614.6464646464647,142.14528803356524 609.5959595959596,148.68590742051825 604.5454545454545,149.8887073982258 599.4949494949494,154.25119828323955 594.4444444444445,156.89827636229646 589.3939393939394,160.30338395412906 584.3434343434344,160.09617913513895 579.2929292929293,166.87368600523246 574.2424242424242,169.73954983727134 569.1919191919192,171.62627700011728 564.1414141414141,175.33421036592708 559.090909090909,179.54108897122092 554.040404040404,179.3933538132703 548.989898989899,183.4495498607462 543.939393939394,186.48706713107484 538.8888888888889,186.2826271296594 533.8383838383838,192.0806321659746 528.7878787878788,195.10857690753068 523.7373737373737,197.58767927733578 518.6868686868687,200.60067835407798 513.6363636363636,203.6611488269131 508.5858585858586,205.51887148840993 503.5353535353535,209.10872627723484 498.4848484848485,210.64992949280463 493.4343434343434,212.8616792197789 488.3838383838384,213.96559784441604 483.3333333333333,217.87215466146068 478.2828282828283,220.97774904376868 473.2323232323232,223.55463727288827 468.1818181818182,226.68292402585607 463.1313131313131,230.41634066308495 458.0808080808081,232.01490080173622 453.030303030303,234.35161506644732 447.979797979798,237.25762091968784 442.9292929292929,239.89637846283617 437.8787878787879,242.39016566560852 432.8282828282828,245.03142719448482 427.77777777777777,244.30148927159487 422.72727272727275,254.7216432962781 417.67676767676767,257.3489242381732 412.62626262626264,260.33250148261163 407.57575757575756,263.9918157922032 402.52525252525254,266.2708601356169 397.47474747474746,269.05915257645785 392.4242424242424,271.91210523208684 387.37373737373736,272.9523808861379 382.32323232323233,277.54975084907284 377.27272727272725,280.0803153422248 372.22222222222223,283.10979899167626 367.1717171717172,286.11810309517847 362.1212121212121,287.78664441828977 357.07070707070704,289.82183706825697 352.020202020202,292.2861502723562 346.969696969697,295.21406600071657 341.9191919191919,297.7376923667473 336.86868686868684,300.2825504450965 331.8181818181818,302.9162739336042 326.7676767676768,305.31449234775874 321.7171717171717,307.7590605810655 316.66666666666663,310.8245129421719 311.6161616161616,313.58265322153846 306.5656565656566,316.304903038804 301.5151515151515,319.6886485023948 296.4646464646464,321.89539025791316 291.4141414141414,324.9469141984076 286.3636363636364,329.33447102388584 281.3131313131313,331.81516446795564 276.26262626262627,334.8770434327627 271.2121212121212,337.1079121340975 266.16161616161617,339.72906352759594 261.1111111111111,342.4148229695132 256.06060606060606,345.1956034531702 251.010101010101,348.142559906337 245.95959595959596,351.1339360229908 240.9090909090909,350.8133476002557 235.85858585858585,355.55274050369934 230.8080808080808,358.4408011258894 225.75757575757575,361.28532891287114 220.7070707070707,363.04257914703294 215.65656565656565,366.8479853739411 210.6060606060606,369.1940895851322 205.55555555555554,371.8221269393826 200.50505050505052,374.59346531019037 195.45454545454544,377.15339946927674 190.40404040404042,379.67019204092486 185.35353535353534,382.255792053723 180.3030303030303,385.0152886586922 175.25252525252526,387.645021419946 170.2020202020202,390.09136330981005 165.15151515151516,392.9417337301571 160.1010101010101,395.0287797512412 155.05050505050505,397.80113536625095 150,399.99997391681535 "/><text class="poloto_text" alignment-baseline="middle" text-anchor="start" font-size="large" x="675" y="200">direct_par</text><line class="poloto2stroke" stroke="black" x1="680" x2="730" y1="181.25" y2="181.25"/><polyline class="poloto2stroke" fill="none" stroke="black" points="650,251.92753430525653 644.9494949494949,311.4400239339302 639.8989898989898,314.12995668539406 634.8484848484848,317.387094370614 629.7979797979798,317.4643266804113 624.7474747474747,319.2804988287346 619.6969696969697,319.86624890678854 614.6464646464647,314.62076397126225 609.5959595959596,318.80041173176437 604.5454545454545,320.06411594566805 599.4949494949494,323.14352281057097 594.4444444444445,321.23624209820787 589.3939393939394,324.7884066851898 584.3434343434344,323.6654995021155 579.2929292929293,326.52919842982703 574.2424242424242,327.63416038185085 569.1919191919192,326.459764992245 564.1414141414141,326.14496703650593 559.090909090909,328.6399018994036 554.040404040404,327.5365571048291 548.989898989899,328.33034666378245 543.939393939394,330.95538445179625 538.8888888888889,331.4568075938236 533.8383838383838,333.08079883752464 528.7878787878788,331.4256903545166 523.7373737373737,332.7561675211663 518.6868686868687,333.3097048661572 513.6363636363636,333.8770662990213 508.5858585858586,334.36203095152416 503.5353535353535,336.21145916029707 498.4848484848485,336.13339218859045 493.4343434343434,336.92770341123713 488.3838383838384,335.76814935370646 483.3333333333333,337.08834974559767 478.2828282828283,336.1075176694014 473.2323232323232,340.08363833995134 468.1818181818182,340.83660771490173 463.1313131313131,338.14044108230263 458.0808080808081,340.21788849142945 453.030303030303,339.20218319733414 447.979797979798,343.5653783283339 442.9292929292929,342.05187545487985 437.8787878787879,342.02237537302216 432.8282828282828,343.63668975521193 427.77777777777777,344.1196720856801 422.72727272727275,346.90465196206844 417.67676767676767,347.43093237908295 412.62626262626264,350.36419516029986 407.57575757575756,349.7716634542327 402.52525252525254,348.09670566769347 397.47474747474746,348.53245135073075 392.4242424242424,349.77547159919396 387.37373737373736,352.86291208497414 382.32323232323233,353.35460619912095 377.27272727272725,355.90595899045206 372.22222222222223,355.9097671354134 367.1717171717172,357.0159810803012 362.1212121212121,354.148265342151 357.07070707070704,358.01191532041935 352.020202020202,358.1044584596158 346.969696969697,359.70210568680375 341.9191919191919,356.5411888698182 336.86868686868684,358.50087070017616 331.8181818181818,360.78708791937305 326.7676767676768,343.66363368497235 321.7171717171717,360.95814144441545 316.66666666666663,360.245131508374 311.6161616161616,361.26652293672663 306.5656565656566,364.6547025417107 301.5151515151515,366.56949521125773 296.4646464646464,368.4098725549514 291.4141414141414,367.20013445012256 286.3636363636364,370.14283934418876 281.3131313131313,370.220775899972 276.26262626262627,371.5473666721065 271.2121212121212,373.1915463007393 266.16161616161617,373.9145200133233 261.1111111111111,375.19922119088346 256.06060606060606,374.3164618890329 251.010101010101,373.7595858964047 245.95959595959596,374.90169030339354 240.9090909090909,375.56545518678473 235.85858585858585,380.18434377706944 230.8080808080808,378.34800932699903 225.75757575757575,382.03069417005173 220.7070707070707,380.6531107718945 215.65656565656565,375.2903558381079 210.6060606060606,376.38138936951987 205.55555555555554,377.62279246053373 200.50505050505052,380.4801792575561 195.45454545454544,380.740254691865 190.40404040404042,382.3826084975712 185.35353535353534,383.89770244528984 180.3030303030303,385.44529604110295 175.25252525252526,387.91618220773813 170.2020202020202,390.39311967321595 165.15151515151516,393.13331472153203 160.1010101010101,395.1440935106515 155.05050505050505,397.93530726817505 150,399.9991131717213 "/><text class="poloto_text" alignment-baseline="middle" text-anchor="start" font-size="large" x="675" y="250">direct_seq</text><line class="poloto3stroke" stroke="black" x1="680" x2="730" y1="231.25" y2="231.25"/><polyline class="poloto3stroke" fill="none" stroke="black" points="650,124.3826392757291 644.9494949494949,134.6657261649902 639.8989898989898,137.02588921271644 634.8484848484848,139.15357283551083 629.7979797979798,143.19837053128754 624.7474747474747,144.68435564491847 619.6969696969697,149.51329212132194 614.6464646464647,151.69035121268985 609.5959595959596,155.01113186849585 604.5454545454545,157.25939805400313 599.4949494949494,161.38570570186238 594.4444444444445,161.36877771501386 589.3939393939394,165.9240755010819 584.3434343434344,168.54366190350038 579.2929292929293,171.40078786867602 574.2424242424242,172.47901455641676 569.1919191919192,176.58124742482892 564.1414141414141,179.19947750164474 559.090909090909,182.51506760370214 554.040404040404,184.76542044398278 548.989898989899,187.30180148731534 543.939393939394,189.62889105688456 538.8888888888889,191.9483904197158 533.8383838383838,194.90658872547388 528.7878787878788,197.1641926910917 523.7373737373737,200.94727171192545 518.6868686868687,203.65916650487844 513.6363636363636,205.98294350999498 508.5858585858586,208.3143107218495 503.5353535353535,211.71274101840748 498.4848484848485,213.30290237159613 493.4343434343434,215.1444012922305 488.3838383838384,217.39611045811372 483.3333333333333,219.85244220770508 478.2828282828283,222.12796532118875 473.2323232323232,226.14524525714234 468.1818181818182,228.44006992727918 463.1313131313131,231.58025061245488 458.0808080808081,232.96393747582414 453.030303030303,235.89824358442772 447.979797979798,238.6838755404327 442.9292929292929,241.19443423094552 437.8787878787879,244.38941568710538 432.8282828282828,245.98283743837735 427.77777777777777,247.05222192651615 422.72727272727275,255.70865708724034 417.67676767676767,258.4211778766253 412.62626262626264,261.0278791858186 407.57575757575756,264.7907176553512 402.52525252525254,266.5791894615587 397.47474747474746,269.39719064973474 392.4242424242424,272.50192428694874 387.37373737373736,274.47117864607924 382.32323232323233,277.9319216708053 377.27272727272725,280.6441033787896 372.22222222222223,283.6343057521334 367.1717171717172,286.41093900942843 362.1212121212121,288.0959127388796 357.07070707070704,290.0669407545674 352.020202020202,292.5236637519287 346.969696969697,295.3768772394044 341.9191919191919,297.94351477695005 336.86868686868684,300.11830463125204 331.8181818181818,302.95164273201186 326.7676767676768,305.249571301124 321.7171717171717,307.76511187990815 316.66666666666663,310.7860924111583 311.6161616161616,313.6836994789362 306.5656565656566,316.49473645680627 301.5151515151515,319.73849346829235 296.4646464646464,321.9891593067889 291.4141414141414,324.66597221636556 286.3636363636364,329.8505268325111 281.3131313131313,332.5124462436432 276.26262626262627,335.23067925047013 271.2121212121212,337.40826000553136 266.16161616161617,339.9254177417648 261.1111111111111,342.7318379959489 256.06060606060606,345.3692392134946 251.010101010101,348.43930829828696 245.95959595959596,350.8264413589583 240.9090909090909,353.45643495205866 235.85858585858585,355.8907003274222 230.8080808080808,358.63827691699885 225.75757575757575,361.5076880621524 220.7070707070707,363.2971771125619 215.65656565656565,367.3000852137643 210.6060606060606,369.25692397699356 205.55555555555554,371.997092942125 200.50505050505052,374.7614671026268 195.45454545454544,377.18553395278576 190.40404040404042,379.67619117339814 185.35353535353534,382.31481830062313 180.3030303030303,385.11409176220866 175.25252525252526,387.72614012425856 170.2020202020202,390.32832904250455 165.15151515151516,393.0581169001387 160.1010101010101,395.05528026686227 155.05050505050505,397.8831930652115 150,399.99921750446003 "/><text class="poloto_text" alignment-baseline="middle" text-anchor="start" font-size="large" x="675" y="300">indirect_par</text><line class="poloto4stroke" stroke="black" x1="680" x2="730" y1="281.25" y2="281.25"/><polyline class="poloto4stroke" fill="none" stroke="black" points="650,231.00555980469952 644.9494949494949,303.2467478833278 639.8989898989898,302.68285551402437 634.8484848484848,305.0591901362437 629.7979797979798,304.6648906336414 624.7474747474747,304.39550350240654 619.6969696969697,306.82927329726147 614.6464646464647,309.5585916575716 609.5959595959596,310.05633707056097 604.5454545454545,310.2614291515931 599.4949494949494,310.1867008275238 594.4444444444445,311.8393835743579 589.3939393939394,312.403693274616 584.3434343434344,312.93526857811776 579.2929292929293,315.0533014225856 574.2424242424242,313.55565712540874 569.1919191919192,316.5572578504517 564.1414141414141,315.658013975892 559.090909090909,318.9556588468989 554.040404040404,319.8252461404929 548.989898989899,317.91251404253455 543.939393939394,318.9755081504301 538.8888888888889,317.8854918632201 533.8383838383838,321.4123296778909 528.7878787878788,324.5912960586656 523.7373737373737,323.7043895304531 518.6868686868687,325.2688328635607 513.6363636363636,325.1418860037892 508.5858585858586,325.89331647084424 503.5353535353535,326.47953604622217 498.4848484848485,329.19004843038783 493.4343434343434,326.91243866213085 488.3838383838384,316.14704760520283 483.3333333333333,330.7485969637608 478.2828282828283,328.9542303578187 473.2323232323232,331.36697710583246 468.1818181818182,332.30972773241575 463.1313131313131,330.9316226705651 458.0808080808081,334.8418311334631 453.030303030303,336.6221649860546 447.979797979798,334.83429309309446 442.9292929292929,336.78977553072104 437.8787878787879,336.9603595584395 432.8282828282828,339.980218512749 427.77777777777777,337.8579341091806 422.72727272727275,341.1549529837555 417.67676767676767,340.30811022719064 412.62626262626264,341.3789032073014 407.57575757575756,343.21255108935117 402.52525252525254,341.2895161334496 397.47474747474746,343.86374387773316 392.4242424242424,344.5573218411981 387.37373737373736,348.7328745417076 382.32323232323233,349.8648847562305 377.27272727272725,348.4238148865951 372.22222222222223,352.29810680420735 367.1717171717172,351.6795440798431 362.1212121212121,351.9848216731789 357.07070707070704,352.42844447798547 352.020202020202,355.1420346779418 346.969696969697,356.90181498101623 341.9191919191919,353.2651147925304 336.86868686868684,356.0034318515505 331.8181818181818,357.5880635695899 326.7676767676768,359.2603869544778 321.7171717171717,356.81795754231365 316.66666666666663,360.4463111117062 311.6161616161616,360.12144504668584 306.5656565656566,359.4312057308582 301.5151515151515,361.51449577335035 296.4646464646464,361.9489372971543 291.4141414141414,364.9992092447849 286.3636363636364,367.7976219612764 281.3131313131313,367.333341274214 276.26262626262627,368.6564108164185 271.2121212121212,370.66108614032595 266.16161616161617,369.57665165463465 261.1111111111111,369.0059254909486 256.06060606060606,372.69116648609855 251.010101010101,374.56978177851323 245.95959595959596,375.03414071512964 240.9090909090909,376.1968247548202 235.85858585858585,376.71243714930614 230.8080808080808,378.82454911085466 225.75757575757575,378.79906583943557 220.7070707070707,378.50140453602233 215.65656565656565,374.595995379103 210.6060606060606,374.4541289377023 205.55555555555554,375.752158622627 200.50505050505052,377.51107818060746 195.45454545454544,379.1463373600844 190.40404040404042,380.7202749724105 185.35353535353534,382.56456479380415 180.3030303030303,383.1344041292116 175.25252525252526,386.59008701611236 170.2020202020202,389.41797373127696 165.15151515151516,392.5990789331943 160.1010101010101,394.81667129353383 155.05050505050505,397.7130002852631 150,399.9995826690453 "/><text class="poloto_text" alignment-baseline="middle" text-anchor="start" font-size="large" x="675" y="350">indirect_seq</text><line class="poloto5stroke" stroke="black" x1="680" x2="730" y1="331.25" y2="331.25"/><polyline class="poloto5stroke" fill="none" stroke="black" points="650,100 644.9494949494949,107.86308901591008 639.8989898989898,110.38428964576684 634.8484848484848,114.32472851969317 629.7979797979798,117.42489759959057 624.7474747474747,120.42999347137885 619.6969696969697,125.64850839396007 614.6464646464647,127.88728030024873 609.5959595959596,131.31941007139574 604.5454545454545,133.99416240938376 599.4949494949494,137.57929614178397 594.4444444444445,139.17863877597523 589.3939393939394,143.12771118402617 584.3434343434344,143.01187576092258 579.2929292929293,149.93607446158003 574.2424242424242,151.8777067281488 569.1919191919192,154.27083892129338 564.1414141414141,158.14901723342092 559.090909090909,161.029644147981 554.040404040404,163.64698739651823 548.989898989899,167.03699282442892 543.939393939394,168.86881488355206 538.8888888888889,171.6174869668847 533.8383838383838,176.3582101127463 528.7878787878788,179.41427252737276 523.7373737373737,181.9458281815421 518.6868686868687,184.7226440211298 513.6363636363636,187.89229870497854 508.5858585858586,190.33957958949065 503.5353535353535,194.05325125592705 498.4848484848485,195.8353326818913 493.4343434343434,198.45429308787777 488.3838383838384,199.89103314885853 483.3333333333333,203.31825928128825 478.2828282828283,206.3219988274739 473.2323232323232,209.61400973059284 468.1818181818182,212.42395121470693 463.1313131313131,215.54050053457485 458.0808080808081,217.9102621942583 453.030303030303,219.9342129916343 447.979797979798,223.3878092237618 442.9292929292929,225.7383475763461 437.8787878787879,228.350317688842 432.8282828282828,231.3928690138113 427.77777777777777,233.12661829858862 422.72727272727275,240.92812491550131 417.67676767676767,244.00614937161694 412.62626262626264,247.07893110761458 407.57575757575756,251.41126983115396 402.52525252525254,253.6745338478444 397.47474747474746,256.5547695146345 392.4242424242424,260.0198684311999 387.37373737373736,262.747778299538 382.32323232323233,266.2991082246106 377.27272727272725,269.28263330267976 372.22222222222223,272.6070656043391 367.1717171717172,276.01144286700105 362.1212121212121,277.62187085467554 357.07070707070704,280.0893922904888 352.020202020202,282.54611528785006 346.969696969697,285.9761062378544 341.9191919191919,288.38141927823824 336.86868686868684,291.3154123886259 331.8181818181818,294.38775071048417 326.7676767676768,296.5133476785053 321.7171717171717,299.5662801109718 316.66666666666663,302.8543524532061 311.6161616161616,305.8178195622668 306.5656565656566,309.25766995607506 301.5151515151515,312.86132274958845 296.4646464646464,315.1057025405804 291.4141414141414,318.42695269371046 286.3636363636364,321.87371513145536 281.3131313131313,325.1202891268854 276.26262626262627,328.2568181662078 271.2121212121212,331.2977784169124 266.16161616161617,334.23959648269994 261.1111111111111,337.5106625885318 256.06060606060606,340.3785869921593 251.010101010101,343.3196747287762 245.95959595959596,346.1685062412279 240.9090909090909,348.5792445840223 235.85858585858585,351.8279834837797 230.8080808080808,355.00175931080577 225.75757575757575,357.863762831514 220.7070707070707,359.94376639273815 215.65656565656565,364.0574236960342 210.6060606060606,366.2768157961157 205.55555555555554,369.535414139677 200.50505050505052,372.2853642990583 195.45454545454544,375.10693888353364 190.40404040404042,377.95365765802734 185.35353535353534,381.0482188532215 180.3030303030303,384.07324227809494 175.25252525252526,386.6657021684603 170.2020202020202,389.5579882665663 165.15151515151516,392.4619857145875 160.1010101010101,394.8054294409426 155.05050505050505,397.7000891088532 150,399.99887842305935 "/><text class="poloto_text" alignment-baseline="start" text-anchor="middle" font-size="x-large" x="400" y="37.5">Bench of query:256_bytes with abspiral(num,0.1)</text><text class="poloto_text" alignment-baseline="start" text-anchor="middle" font-size="x-large" x="400" y="481.25">Number of Elements</text><text class="poloto_text" alignment-baseline="start" text-anchor="middle" font-size="x-large" transform="rotate(-90,37.5,250)" x="37.5" y="250">Time in Seconds</text><path stroke="black" fill="none" class="poloto_axis_lines" d=" M 150 100 L 150 400 L 650 400"/></svg>