<svg class="poloto" width="800" height="500" viewBox="0 0 800 500" xmlns="http://www.w3.org/2000/svg"><style>.poloto {
                    font-family: "Arial";
                    stroke-width:2;
                    }
                    .poloto_text{fill: var(--poloto_fg_color,black);  }
                    .poloto_axis_lines{stroke: var(--poloto_fg_color,black);stoke-width:3;fill:none}
                    .poloto_background{fill: var(--poloto_bg_color,aliceblue); }
                    .poloto0stroke{stroke:  var(--poloto_color0,blue); }
                    .poloto1stroke{stroke:  var(--poloto_color1,red); }
                    .poloto2stroke{stroke:  var(--poloto_color2,green); }
                    .poloto3stroke{stroke:  var(--poloto_color3,gold); }
                    .poloto4stroke{stroke:  var(--poloto_color4,aqua); }
                    .poloto5stroke{stroke:  var(--poloto_color5,brown); }
                    .poloto6stroke{stroke:  var(--poloto_color6,lime); }
                    .poloto7stroke{stroke:  var(--poloto_color7,chocolate); }
                    .poloto0fill{fill:var(--poloto_color0,blue);}
                    .poloto1fill{fill:var(--poloto_color1,red);}
                    .poloto2fill{fill:var(--poloto_color2,green);}
                    .poloto3fill{fill:var(--poloto_color3,gold);}
                    .poloto4fill{fill:var(--poloto_color4,aqua);}
                    .poloto5fill{fill:var(--poloto_color5,brown);}
                    .poloto6fill{fill:var(--poloto_color6,lime);}
                    .poloto7fill{fill:var(--poloto_color7,chocolate);}</style><rect class="poloto_background" fill="white" x="0" y="0" width="800" height="500"/><line class="poloto_axis_lines" stroke="black" x1="150" x2="150" y1="400" y2="405"/><text class="poloto_text" alignment-baseline="start" text-anchor="middle" x="150" y="430">0</text><line class="poloto_axis_lines" stroke="black" x1="234.17508417508418" x2="234.17508417508418" y1="400" y2="405"/><text class="poloto_text" alignment-baseline="start" text-anchor="middle" x="234.17508417508418" y="430">5000</text><line class="poloto_axis_lines" stroke="black" x1="318.35016835016836" x2="318.35016835016836" y1="400" y2="405"/><text class="poloto_text" alignment-baseline="start" text-anchor="middle" x="318.35016835016836" y="430">10000</text><line class="poloto_axis_lines" stroke="black" x1="402.52525252525254" x2="402.52525252525254" y1="400" y2="405"/><text class="poloto_text" alignment-baseline="start" text-anchor="middle" x="402.52525252525254" y="430">15000</text><line class="poloto_axis_lines" stroke="black" x1="486.7003367003367" x2="486.7003367003367" y1="400" y2="405"/><text class="poloto_text" alignment-baseline="start" text-anchor="middle" x="486.7003367003367" y="430">20000</text><line class="poloto_axis_lines" stroke="black" x1="570.8754208754208" x2="570.8754208754208" y1="400" y2="405"/><text class="poloto_text" alignment-baseline="start" text-anchor="middle" x="570.8754208754208" y="430">25000</text><line class="poloto_axis_lines" stroke="black" x1="150" x2="144" y1="362.5073696748942" y2="362.5073696748942"/><text class="poloto_text" alignment-baseline="middle" text-anchor="end" x="135" y="362.5073696748942">0.0005</text><line class="poloto_axis_lines" stroke="black" x1="150" x2="144" y1="325.0026628341857" y2="325.0026628341857"/><text class="poloto_text" alignment-baseline="middle" text-anchor="end" x="135" y="325.0026628341857">0.0010</text><line class="poloto_axis_lines" stroke="black" x1="150" x2="144" y1="287.49795599347715" y2="287.49795599347715"/><text class="poloto_text" alignment-baseline="middle" text-anchor="end" x="135" y="287.49795599347715">0.0015</text><line class="poloto_axis_lines" stroke="black" x1="150" x2="144" y1="249.99324915276873" y2="249.99324915276873"/><text class="poloto_text" alignment-baseline="middle" text-anchor="end" x="135" y="249.99324915276873">0.0020</text><line class="poloto_axis_lines" stroke="black" x1="150" x2="144" y1="212.48854231206013" y2="212.48854231206013"/><text class="poloto_text" alignment-baseline="middle" text-anchor="end" x="135" y="212.48854231206013">0.0025</text><line class="poloto_axis_lines" stroke="black" x1="150" x2="144" y1="174.98383547135165" y2="174.98383547135165"/><text class="poloto_text" alignment-baseline="middle" text-anchor="end" x="135" y="174.98383547135165">0.0030</text><line class="poloto_axis_lines" stroke="black" x1="150" x2="144" y1="137.47912863064312" y2="137.47912863064312"/><text class="poloto_text" alignment-baseline="middle" text-anchor="end" x="135" y="137.47912863064312">0.0035</text><text class="poloto_text" alignment-baseline="middle" text-anchor="start" font-size="large" x="675" y="100">default_par</text><line class="poloto0stroke" stroke="black" x1="680" x2="730" y1="81.25" y2="81.25"/><polyline class="poloto0stroke" fill="none" stroke="black" points="650,298.7867977431168 644.9494949494949,316.3885817670118 639.8989898989898,310.8635383740659 634.8484848484848,297.12091367466616 629.7979797979798,314.2032575088174 624.7474747474747,313.9216721698573 619.6969696969697,317.5974334779015 614.6464646464647,323.81353859909416 609.5959595959596,314.56015229911355 604.5454545454545,321.70254866985806 599.4949494949494,313.724922477771 594.4444444444445,312.63166027336433 589.3939393939394,315.4974699324765 584.3434343434344,314.1497757968625 579.2929292929293,322.88117158703415 574.2424242424242,318.77553132918183 569.1919191919192,311.7348477233893 564.1414141414141,325.6202903464385 559.090909090909,326.9688845950167 554.040404040404,331.0767751352795 548.989898989899,318.12234935484406 543.939393939394,319.51159870563754 538.8888888888889,319.67189382267475 533.8383838383838,330.1260308168675 528.7878787878788,333.55883663399754 523.7373737373737,335.09465437912456 518.6868686868687,332.61266788982016 513.6363636363636,336.1768151903064 508.5858585858586,337.1346103936044 503.5353535353535,336.8916549026903 498.4848484848485,340.31043395946193 493.4343434343434,333.00414201982346 488.3838383838384,332.3316826261696 483.3333333333333,341.7878943807448 478.2828282828283,343.7962714320647 473.2323232323232,340.1065583730758 468.1818181818182,347.50398675033716 463.1313131313131,343.6611794780245 458.0808080808081,344.5057104666636 453.030303030303,334.97673958081737 447.979797979798,340.495932239496 442.9292929292929,338.105457234883 437.8787878787879,338.9275604088313 432.8282828282828,346.05863035810995 427.77777777777777,346.4822835265826 422.72727272727275,344.5342890532762 417.67676767676767,352.5332929282625 412.62626262626264,341.0821308074163 407.57575757575756,347.167344501735 402.52525252525254,347.2524051768497 397.47474747474746,350.7556448334266 392.4242424242424,351.1212407157098 387.37373737373736,350.8896866556753 382.32323232323233,353.3357436358263 377.27272727272725,351.98444904835554 372.22222222222223,354.42172992710584 367.1717171717172,351.1983503929743 362.1212121212121,354.28011215407537 357.07070707070704,356.9777507077138 352.020202020202,354.6858380726781 346.969696969697,356.49626528129284 341.9191919191919,355.57424956832085 336.86868686868684,359.9369470868594 331.8181818181818,362.0371356605254 326.7676767676768,367.85231546559095 321.7171717171717,357.1881521130902 316.66666666666663,366.0974702325142 311.6161616161616,359.7541491457178 306.5656565656566,361.43150965446165 301.5151515151515,348.35774389685906 296.4646464646464,369.56703066234815 291.4141414141414,368.48802024654094 286.3636363636364,365.7447009599705 281.3131313131313,373.3802842256703 276.26262626262627,370.82613868040437 271.2121212121212,366.8390883055823 266.16161616161617,370.09937247124515 261.1111111111111,376.6280418192483 256.06060606060606,375.55330694002095 251.010101010101,376.15803283312056 245.95959595959596,371.52380123705524 240.9090909090909,380.4355946671307 235.85858585858585,378.45857155072963 230.8080808080808,377.07104741645077 225.75757575757575,377.75693349515365 220.7070707070707,376.1769352053683 215.65656565656565,369.88252025629214 210.6060606060606,370.164855689389 205.55555555555554,376.0212156625656 200.50505050505052,375.94485607943795 195.45454545454544,376.8743727337781 190.40404040404042,378.1538833123557 185.35353535353534,378.1353559871764 180.3030303030303,389.1212347149567 175.25252525252526,390.9571651242231 170.2020202020202,392.56296665231486 165.15151515151516,395.0856082438346 160.1010101010101,396.5479167635538 155.05050505050505,398.4677827067297 150,400 "/><text class="poloto_text" alignment-baseline="middle" text-anchor="start" font-size="large" x="675" y="150">default_seq</text><line class="poloto1stroke" stroke="black" x1="680" x2="730" y1="131.25" y2="131.25"/><polyline class="poloto1stroke" fill="none" stroke="black" points="650,166.49854556746868 644.9494949494949,168.48824527478197 639.8989898989898,169.98835853899664 634.8484848484848,169.61308644234848 629.7979797979798,173.55145570769128 624.7474747474747,176.25074446843075 619.6969696969697,181.0738497681459 614.6464646464647,183.401691912335 609.5959595959596,183.47932665549524 604.5454545454545,186.1213832335958 599.4949494949494,192.41047251430052 594.4444444444445,188.2869050065783 589.3939393939394,195.97386972064993 584.3434343434344,195.6507291665104 579.2929292929293,199.3108135070951 574.2424242424242,199.6083758511693 569.1919191919192,196.82402641531513 564.1414141414141,201.75882073200185 559.090909090909,207.22745704585924 554.040404040404,205.8979901977698 548.989898989899,212.2715400782798 543.939393939394,214.0488131260473 538.8888888888889,216.14555126668395 533.8383838383838,219.11727421791434 528.7878787878788,219.54227755583324 523.7373737373737,224.99268658216604 518.6868686868687,225.85004418054464 513.6363636363636,229.22284246672953 508.5858585858586,227.2101148694161 503.5353535353535,232.22126876923053 498.4848484848485,234.32378263472063 493.4343434343434,235.49632978938857 488.3838383838384,238.9525385435872 483.3333333333333,242.96336690254626 478.2828282828283,242.37371790159665 473.2323232323232,247.68003384424745 468.1818181818182,250.41097657756046 463.1313131313131,252.43173018213784 458.0808080808081,252.35184515656712 453.030303030303,254.8800374446993 447.979797979798,257.344996797098 442.9292929292929,260.7750272659219 437.8787878787879,262.17515298169917 432.8282828282828,265.6413379879175 427.77777777777777,267.7913328122679 422.72727272727275,281.9723125252219 417.67676767676767,280.9086040298057 412.62626262626264,286.1474115001433 407.57575757575756,283.644197346767 402.52525252525254,289.65447663681795 397.47474747474746,289.5859180327131 392.4242424242424,291.51020953129614 387.37373737373736,296.05728018866364 382.32323232323233,298.48728515428684 377.27272727272725,299.7361168826688 372.22222222222223,300.09811231309527 367.1717171717172,305.47163669040464 362.1212121212121,307.84635971814464 357.07070707070704,306.21925551656733 352.020202020202,310.2891912935073 346.969696969697,312.74417439388645 341.9191919191919,313.2209342272455 336.86868686868684,317.1335002542819 331.8181818181818,317.4149355744146 326.7676767676768,319.93735213769327 321.7171717171717,322.27029492201274 316.66666666666663,324.20231239020495 311.6161616161616,328.9950388773791 306.5656565656566,330.07532445321885 301.5151515151515,331.2136673152481 296.4646464646464,333.64697269507326 291.4141414141414,336.22662144099087 286.3636363636364,343.8748062881892 281.3131313131313,345.9413906445259 276.26262626262627,348.44617999558943 271.2121212121212,349.53644182344885 266.16161616161617,351.52569147428005 261.1111111111111,352.6667346752017 256.06060606060606,355.41635475252144 251.010101010101,357.3483722207137 245.95959595959596,359.8024552081286 240.9090909090909,362.2644141839801 235.85858585858585,363.5668026337305 230.8080808080808,366.2250612451863 225.75757575757575,368.10644735914354 220.7070707070707,369.66161753300037 215.65656565656565,373.4809468588308 210.6060606060606,376.5215284518207 205.55555555555554,378.1730107128445 200.50505050505052,380.15085893279604 195.45454545454544,381.82356885789164 190.40404040404042,383.3907405379375 185.35353535353534,385.0795774869746 180.3030303030303,388.542912135473 175.25252525252526,390.35213919346876 170.2020202020202,392.2063718996734 165.15151515151516,394.69548428327755 160.1010101010101,396.3266389931936 155.05050505050505,398.27635868301473 150,399.9967745952117 "/><text class="poloto_text" alignment-baseline="middle" text-anchor="start" font-size="large" x="675" y="200">direct_par</text><line class="poloto2stroke" stroke="black" x1="680" x2="730" y1="181.25" y2="181.25"/><polyline class="poloto2stroke" fill="none" stroke="black" points="650,300.7905992202021 644.9494949494949,299.2424799312314 639.8989898989898,311.60530646596146 634.8484848484848,299.710388653776 629.7979797979798,316.5328998789348 624.7474747474747,314.9974571808762 619.6969696969697,305.612354350471 614.6464646464647,319.658167099971 609.5959595959596,322.5213514296044 604.5454545454545,306.0162800431454 599.4949494949494,319.4492658828683 594.4444444444445,313.15672616913423 589.3939393939394,315.6021080645621 584.3434343434344,314.25688923959956 579.2929292929293,317.815560852887 574.2424242424242,316.5393506885114 569.1919191919192,325.24381809917145 564.1414141414141,322.7009239659577 559.090909090909,326.5530324055669 554.040404040404,327.2552705364523 548.989898989899,315.5823805887639 543.939393939394,327.21844091433474 538.8888888888889,321.186933960212 533.8383838383838,330.9074788886005 528.7878787878788,328.1247046504336 523.7373737373737,328.2327182061349 518.6868686868687,332.41584318832014 513.6363636363636,328.9979642445127 508.5858585858586,314.10964576054295 503.5353535353535,336.7058565850014 498.4848484848485,338.23387335110556 493.4343434343434,328.458721569557 488.3838383838384,335.3043806997778 483.3333333333333,341.18324349705887 478.2828282828283,337.4894049203175 473.2323232323232,340.3761422058468 468.1818181818182,345.5417404884313 463.1313131313131,341.08490615572254 458.0808080808081,345.68133300729244 453.030303030303,341.1870689771566 447.979797979798,343.04205177749805 442.9292929292929,342.2561031409442 437.8787878787879,343.8326509977002 432.8282828282828,340.3807927894951 427.77777777777777,339.96824101424727 422.72727272727275,347.1707199253506 417.67676767676767,322.7191512534823 412.62626262626264,344.5555917267617 407.57575757575756,350.6200278134906 402.52525252525254,347.7593938039224 397.47474747474746,349.5390671529277 392.4242424242424,349.34171738553187 387.37373737373736,360.6877163083967 382.32323232323233,352.65090768891497 377.27272727272725,345.0004725593062 372.22222222222223,355.2868885045073 367.1717171717172,359.8299836629497 362.1212121212121,354.89511433684925 357.07070707070704,353.22367957178625 352.020202020202,363.68426737555563 346.969696969697,358.5479227643069 341.9191919191919,359.02775798362694 336.86868686868684,359.92539563715246 331.8181818181818,362.16735200267635 326.7676767676768,361.1764776479448 321.7171717171717,365.0486886104206 316.66666666666663,369.0520910374252 311.6161616161616,364.506595577745 306.5656565656566,360.7505741970617 301.5151515151515,364.4827425841943 296.4646464646464,369.3079481474925 291.4141414141414,367.4754681712555 286.3636363636364,368.962904844558 281.3131313131313,364.03291113034686 276.26262626262627,369.0319885145586 271.2121212121212,366.4436386766539 266.16161616161617,368.8019346427977 261.1111111111111,372.18373405862434 256.06060606060606,373.2190139862553 251.010101010101,376.40466378530505 245.95959595959596,371.72962706819703 240.9090909090909,376.7326799513339 235.85858585858585,379.5966143751041 230.8080808080808,374.81056372574756 225.75757575757575,372.60041135162464 220.7070707070707,379.5123037941262 215.65656565656565,373.610863163327 210.6060606060606,374.90560065288196 205.55555555555554,372.5612564376829 200.50505050505052,376.680623418239 195.45454545454544,375.03664209858334 190.40404040404042,375.7995628451371 185.35353535353534,379.7986897355618 180.3030303030303,389.24897574645615 175.25252525252526,391.0630034069276 170.2020202020202,392.6447269132276 165.15151515151516,395.221600310839 160.1010101010101,396.5467916223486 155.05050505050505,398.44535489203895 150,399.99444930338757 "/><text class="poloto_text" alignment-baseline="middle" text-anchor="start" font-size="large" x="675" y="250">direct_seq</text><line class="poloto3stroke" stroke="black" x1="680" x2="730" y1="231.25" y2="231.25"/><polyline class="poloto3stroke" fill="none" stroke="black" points="650,100 644.9494949494949,167.29829593613997 639.8989898989898,168.02063658989204 634.8484848484848,166.26406614030057 629.7979797979798,171.25661770552205 624.7474747474747,174.1088506607579 619.6969696969697,178.94155716542423 614.6464646464647,182.32283151535515 609.5959595959596,180.9600604875912 604.5454545454545,183.4154186350387 599.4949494949494,190.66357827907402 594.4444444444445,185.77033917756677 589.3939393939394,194.16599283210041 584.3434343434344,193.96399248105638 579.2929292929293,199.13229110253337 574.2424242424242,198.0184013093643 569.1919191919192,196.51183723557304 564.1414141414141,200.24010513319422 559.090909090909,204.7928014965878 554.040404040404,204.3209922845317 548.989898989899,210.75642493132884 543.939393939394,212.41338287955136 538.8888888888889,214.8572645867056 533.8383838383838,218.24221439790693 528.7878787878788,218.17155553021902 523.7373737373737,223.35388091205442 518.6868686868687,223.8436923833941 513.6363636363636,228.08990028248544 508.5858585858586,226.7446814575229 503.5353535353535,230.68695121237712 498.4848484848485,233.72423239116506 493.4343434343434,233.43777144031574 488.3838383838384,238.82172212612682 483.3333333333333,243.4794316686744 478.2828282828283,243.09425832942034 473.2323232323232,247.4593561491967 468.1818181818182,249.58872338478477 463.1313131313131,252.15869591633748 458.0808080808081,252.6264546200548 453.030303030303,254.84095754017127 447.979797979798,257.37237523309176 442.9292929292929,260.92692132862675 437.8787878787879,261.90009346172945 432.8282828282828,264.7845804648483 427.77777777777777,267.72554955646933 422.72727272727275,281.9662367627137 417.67676767676767,281.1853137568765 412.62626262626264,286.1808656986452 407.57575757575756,284.3381844421475 402.52525252525254,290.49270683470775 397.47474747474746,290.6709292016148 392.4242424242424,291.7620161330247 387.37373737373736,296.1790204670686 382.32323232323233,297.8810590729137 377.27272727272725,300.06000753094514 372.22222222222223,301.30523880747035 367.1717171717172,306.20335352086687 362.1212121212121,307.7354958047235 357.07070707070704,306.9166180355635 352.020202020202,310.75019914999336 346.969696969697,312.94639977317155 341.9191919191919,313.9972816588482 336.86868686868684,317.1682296128164 331.8181818181818,317.68106897415623 326.7676767676768,320.7162498893611 321.7171717171717,322.69327300576225 316.66666666666663,323.9812596480858 311.6161616161616,329.61559175676547 306.5656565656566,330.767511322671 301.5151515151515,331.42406872062446 296.4646464646464,333.89720409911445 291.4141414141414,336.866301720866 286.3636363636364,344.3529913004082 281.3131313131313,345.38894631276224 276.26262626262627,348.1671449766946 271.2121212121212,349.6864606508117 266.16161616161617,352.09073738754216 261.1111111111111,353.1879000814602 256.06060606060606,355.77805014529326 251.010101010101,357.6055795002273 245.95959595959596,360.25731229269275 240.9090909090909,362.601356470237 235.85858585858585,363.7742786719733 230.8080808080808,365.88391843176316 225.75757575757575,368.3816568979407 220.7070707070707,369.94365292844253 215.65656565656565,374.8141641776043 210.6060606060606,377.01351519615713 205.55555555555554,377.8014890868804 200.50505050505052,380.26427316628235 195.45454545454544,382.03344519737226 190.40404040404042,383.7637623521752 185.35353535353534,385.32290802495714 180.3030303030303,388.61289591843774 175.25252525252526,390.41807246809475 170.2020202020202,392.3015588456351 165.15151515151516,394.81782463699193 160.1010101010101,396.38469627938304 155.05050505050505,398.2977363659139 150,399.99017376680774 "/><text class="poloto_text" alignment-baseline="middle" text-anchor="start" font-size="large" x="675" y="300">indirect_par</text><line class="poloto4stroke" stroke="black" x1="680" x2="730" y1="281.25" y2="281.25"/><polyline class="poloto4stroke" fill="none" stroke="black" points="650,304.60317769880123 644.9494949494949,305.64198306887516 639.8989898989898,305.76019790483707 634.8484848484848,312.9543507710218 629.7979797979798,315.93537488954865 624.7474747474747,302.6473822464719 619.6969696969697,316.4505395427126 614.6464646464647,311.01888286980017 609.5959595959596,315.8179101477235 604.5454545454545,322.7156258110393 599.4949494949494,313.88431748184394 594.4444444444445,311.5874542255053 589.3939393939394,319.59200879710403 584.3434343434344,316.77465521923 579.2929292929293,321.97580796389946 574.2424242424242,322.23061494217524 569.1919191919192,319.00100962670814 564.1414141414141,328.15058289815374 559.090909090909,323.11737623071696 554.040404040404,314.7052955145871 548.989898989899,320.27811990404797 543.939393939394,321.0470414036962 538.8888888888889,322.8648945442653 533.8383838383838,334.2181693802572 528.7878787878788,331.25207213505297 523.7373737373737,329.77453670435636 518.6868686868687,329.0201670309624 513.6363636363636,322.03244007122896 508.5858585858586,331.74495899235353 503.5353535353535,335.5346595997798 498.4848484848485,338.9390368491246 493.4343434343434,332.0350203950596 488.3838383838384,335.0696762443687 483.3333333333333,337.00311889142085 478.2828282828283,329.8879509378427 473.2323232323232,339.3441626924179 468.1818181818182,346.63260239160013 463.1313131313131,345.20944878582264 458.0808080808081,341.52153595276206 453.030303030303,345.469281394815 447.979797979798,341.55874062194806 442.9292929292929,340.0335742135638 437.8787878787879,334.1489356914293 432.8282828282828,347.642004071511 427.77777777777777,348.46740765966126 422.72727272727275,349.8091010421808 417.67676767676767,352.8795363818159 412.62626262626264,347.70171156480137 407.57575757575756,345.84762887742414 402.52525252525254,344.41089856777023 397.47474747474746,351.81545283933133 392.4242424242424,342.9791188794194 387.37373737373736,354.10196479658197 382.32323232323233,351.1216907721919 377.27272727272725,349.794924262995 372.22222222222223,356.1879765910622 367.1717171717172,360.32564586855653 362.1212121212121,358.0254821980159 357.07070707070704,357.25656069836765 352.020202020202,363.1935557912518 346.969696969697,356.86598668132854 341.9191919191919,360.1116440113234 336.86868686868684,364.891318860517 331.8181818181818,360.1952795075782 326.7676767676768,363.7312982779339 321.7171717171717,361.7729525055395 316.66666666666663,365.97798023651967 311.6161616161616,364.1333487352663 306.5656565656566,369.3874581259948 301.5151515151515,369.15492894358243 296.4646464646464,370.1463283642097 291.4141414141414,371.49267233037745 286.3636363636364,370.24429065847767 281.3131313131313,369.23436391267103 276.26262626262627,372.19873594136067 271.2121212121212,374.8467932725557 266.16161616161617,369.87816971029866 261.1111111111111,366.6697170494897 256.06060606060606,376.2364176704176 251.010101010101,379.45409648910936 245.95959595959596,369.1279255546571 240.9090909090909,381.07655010703843 235.85858585858585,380.00706588676877 230.8080808080808,372.8155383500629 225.75757575757575,377.6401438380517 220.7070707070707,371.39260977252644 215.65656565656565,370.085045673232 210.6060606060606,372.2286646974195 205.55555555555554,376.22659143722535 200.50505050505052,378.3297053780249 195.45454545454544,375.21756480438296 190.40404040404042,375.6798478209015 185.35353535353534,379.74190760940496 180.3030303030303,390.0506013504695 175.25252525252526,391.9004085012669 170.2020202020202,393.31696127864046 165.15151515151516,395.6357272837741 160.1010101010101,396.95131739033246 155.05050505050505,398.60827533855496 150,399.99857482114004 "/><text class="poloto_text" alignment-baseline="middle" text-anchor="start" font-size="large" x="675" y="350">indirect_seq</text><line class="poloto5stroke" stroke="black" x1="680" x2="730" y1="331.25" y2="331.25"/><polyline class="poloto5stroke" fill="none" stroke="black" points="650,172.5611814282692 644.9494949494949,170.46774370183456 639.8989898989898,172.13482792090406 634.8484848484848,175.36368314223432 629.7979797979798,179.31255372549253 624.7474747474747,176.81421518400558 619.6969696969697,187.47830352709263 614.6464646464647,185.41554465085366 609.5959595959596,189.6577770510199 604.5454545454545,191.23905050083786 599.4949494949494,199.0155014454314 594.4444444444445,194.75114126822913 589.3939393939394,203.55702140618646 584.3434343434344,201.40110083815517 579.2929292929293,207.06273637341485 574.2424242424242,204.6919888446 569.1919191919192,203.0192039100907 564.1414141414141,205.55834757262036 559.090909090909,209.82698328640245 554.040404040404,207.28483924732552 548.989898989899,215.96815400332738 543.939393939394,218.56790527211166 538.8888888888889,220.85719257766849 533.8383838383838,225.0529941507659 528.7878787878788,224.34843072805637 523.7373737373737,230.0844005922743 518.6868686868687,228.3616593882532 513.6363636363636,236.35023695473782 508.5858585858586,225.76415840187943 503.5353535353535,235.70140552639353 498.4848484848485,238.4423245117262 493.4343434343434,238.94383745160013 488.3838383838384,245.73158931445894 483.3333333333333,249.93391670654665 478.2828282828283,245.63347700136367 473.2323232323232,254.6745866606259 468.1818181818182,255.6518093020674 463.1313131313131,257.911017832738 458.0808080808081,258.2177313252813 453.030303030303,261.3387980191514 447.979797979798,262.97332815268317 442.9292929292929,266.8081844271456 437.8787878787879,267.18900722040615 432.8282828282828,271.1264763727848 427.77777777777777,271.85436772314927 422.72727272727275,286.95901335617623 417.67676767676767,285.28907877938684 412.62626262626264,291.0017207159499 407.57575757575756,288.28592988420047 402.52525252525254,295.08095766018636 397.47474747474746,293.8688055350947 392.4242424242424,294.17911947949466 387.37373737373736,300.33334183440024 382.32323232323233,302.1199910588779 377.27272727272725,303.3639471753705 372.22222222222223,306.1323946155243 367.1717171717172,310.8387102581374 362.1212121212121,312.9716779455822 357.07070707070704,310.5430981588189 352.020202020202,314.51957220631186 346.969696969697,316.89857077063175 341.9191919191919,317.3481771962381 336.86868686868684,321.0237134760413 331.8181818181818,321.2011107393978 326.7676767676768,324.0573942029725 321.7171717171717,326.60336372214715 316.66666666666663,328.777736605944 311.6161616161616,333.76728779461826 306.5656565656566,334.2549239929611 301.5151515151515,335.33490953114614 296.4646464646464,338.4404492763842 291.4141414141414,340.5992952115491 286.3636363636364,347.4030990889357 281.3131313131313,349.58092240576195 276.26262626262627,351.6053514716097 271.2121212121212,352.8571085671252 266.16161616161617,354.9256431682176 261.1111111111111,355.6655360247711 256.06060606060606,358.73747155267984 251.010101010101,361.3142699408776 245.95959595959596,362.99590598620125 240.9090909090909,365.30282050397324 235.85858585858585,366.5612534373064 230.8080808080808,369.1779568335826 225.75757575757575,370.71092422098974 220.7070707070707,372.3205512291793 215.65656565656565,376.36475877722654 210.6060606060606,378.57993678206617 205.55555555555554,380.2759746348167 200.50505050505052,381.9323325077297 195.45454545454544,383.4642497633453 190.40404040404042,384.78629067948026 185.35353535353534,386.35016194532415 180.3030303030303,389.458327020041 175.25252525252526,391.141538263052 170.2020202020202,392.95331564111297 165.15151515151516,395.23637716533426 160.1010101010101,396.73949080609617 155.05050505050505,398.47445854454736 150,399.9971496422801 "/><text class="poloto_text" alignment-baseline="start" text-anchor="middle" font-size="x-large" x="400" y="37.5">Bench of rebal:8_bytes with abspiral(num,0.1)</text><text class="poloto_text" alignment-baseline="start" text-anchor="middle" font-size="x-large" x="400" y="481.25">Number of Elements</text><text class="poloto_text" alignment-baseline="start" text-anchor="middle" font-size="x-large" transform="rotate(-90,37.5,250)" x="37.5" y="250">Time in Seconds</text><path stroke="black" fill="none" class="poloto_axis_lines" d=" M 150 100 L 150 400 L 650 400"/></svg>