<svg class="poloto" width="800" height="500" viewBox="0 0 800 500" xmlns="http://www.w3.org/2000/svg"><style>.poloto {
                    font-family: "Arial";
                    stroke-width:2;
                    }
                    .poloto_text{fill: var(--poloto_fg_color,black);  }
                    .poloto_axis_lines{stroke: var(--poloto_fg_color,black);stoke-width:3;fill:none}
                    .poloto_background{fill: var(--poloto_bg_color,aliceblue); }
                    .poloto0stroke{stroke:  var(--poloto_color0,blue); }
                    .poloto1stroke{stroke:  var(--poloto_color1,red); }
                    .poloto2stroke{stroke:  var(--poloto_color2,green); }
                    .poloto3stroke{stroke:  var(--poloto_color3,gold); }
                    .poloto4stroke{stroke:  var(--poloto_color4,aqua); }
                    .poloto5stroke{stroke:  var(--poloto_color5,brown); }
                    .poloto6stroke{stroke:  var(--poloto_color6,lime); }
                    .poloto7stroke{stroke:  var(--poloto_color7,chocolate); }
                    .poloto0fill{fill:var(--poloto_color0,blue);}
                    .poloto1fill{fill:var(--poloto_color1,red);}
                    .poloto2fill{fill:var(--poloto_color2,green);}
                    .poloto3fill{fill:var(--poloto_color3,gold);}
                    .poloto4fill{fill:var(--poloto_color4,aqua);}
                    .poloto5fill{fill:var(--poloto_color5,brown);}
                    .poloto6fill{fill:var(--poloto_color6,lime);}
                    .poloto7fill{fill:var(--poloto_color7,chocolate);}</style><rect class="poloto_background" fill="white" x="0" y="0" width="800" height="500"/><line class="poloto_axis_lines" stroke="black" x1="150" x2="150" y1="400" y2="405"/><text class="poloto_text" alignment-baseline="start" text-anchor="middle" x="150" y="430">0</text><line class="poloto_axis_lines" stroke="black" x1="234.17508417508418" x2="234.17508417508418" y1="400" y2="405"/><text class="poloto_text" alignment-baseline="start" text-anchor="middle" x="234.17508417508418" y="430">5000</text><line class="poloto_axis_lines" stroke="black" x1="318.35016835016836" x2="318.35016835016836" y1="400" y2="405"/><text class="poloto_text" alignment-baseline="start" text-anchor="middle" x="318.35016835016836" y="430">10000</text><line class="poloto_axis_lines" stroke="black" x1="402.52525252525254" x2="402.52525252525254" y1="400" y2="405"/><text class="poloto_text" alignment-baseline="start" text-anchor="middle" x="402.52525252525254" y="430">15000</text><line class="poloto_axis_lines" stroke="black" x1="486.7003367003367" x2="486.7003367003367" y1="400" y2="405"/><text class="poloto_text" alignment-baseline="start" text-anchor="middle" x="486.7003367003367" y="430">20000</text><line class="poloto_axis_lines" stroke="black" x1="570.8754208754208" x2="570.8754208754208" y1="400" y2="405"/><text class="poloto_text" alignment-baseline="start" text-anchor="middle" x="570.8754208754208" y="430">25000</text><line class="poloto_axis_lines" stroke="black" x1="150" x2="144" y1="351.91462158018555" y2="351.91462158018555"/><text class="poloto_text" alignment-baseline="middle" text-anchor="end" x="135" y="351.91462158018555">0.001</text><line class="poloto_axis_lines" stroke="black" x1="150" x2="144" y1="303.8238569947376" y2="303.8238569947376"/><text class="poloto_text" alignment-baseline="middle" text-anchor="end" x="135" y="303.8238569947376">0.002</text><line class="poloto_axis_lines" stroke="black" x1="150" x2="144" y1="255.7330924092896" y2="255.7330924092896"/><text class="poloto_text" alignment-baseline="middle" text-anchor="end" x="135" y="255.7330924092896">0.003</text><line class="poloto_axis_lines" stroke="black" x1="150" x2="144" y1="207.64232782384158" y2="207.64232782384158"/><text class="poloto_text" alignment-baseline="middle" text-anchor="end" x="135" y="207.64232782384158">0.004</text><line class="poloto_axis_lines" stroke="black" x1="150" x2="144" y1="159.5515632383936" y2="159.5515632383936"/><text class="poloto_text" alignment-baseline="middle" text-anchor="end" x="135" y="159.5515632383936">0.005</text><line class="poloto_axis_lines" stroke="black" x1="150" x2="144" y1="111.46079865294558" y2="111.46079865294558"/><text class="poloto_text" alignment-baseline="middle" text-anchor="end" x="135" y="111.46079865294558">0.006</text><text class="poloto_text" alignment-baseline="middle" text-anchor="start" font-size="large" x="675" y="100">default_par</text><line class="poloto0stroke" stroke="black" x1="680" x2="730" y1="81.25" y2="81.25"/><polyline class="poloto0stroke" fill="none" stroke="black" points="650,286.8707563907817 644.9494949494949,321.9547004233911 639.8989898989898,318.86698479241784 634.8484848484848,320.0072168207388 629.7979797979798,319.2962910478721 624.7474747474747,322.2110722893961 619.6969696969697,323.2713293762115 614.6464646464647,320.93474339729835 609.5959595959596,325.89246840917673 604.5454545454545,324.32408430375153 599.4949494949494,320.9377250247026 594.4444444444445,281.80703933375696 589.3939393939394,327.1907266899255 584.3434343434344,280.122275578035 579.2929292929293,325.1794747334329 574.2424242424242,330.54226825541457 569.1919191919192,326.96782599607195 564.1414141414141,334.2404480520355 559.090909090909,333.99071271154327 554.040404040404,329.8034979298529 548.989898989899,331.8672650012728 543.939393939394,337.51465966807115 538.8888888888889,340.9329512148048 533.8383838383838,333.166052280432 528.7878787878788,339.916937631408 523.7373737373737,337.942619382117 518.6868686868687,335.87072497148216 513.6363636363636,342.79896906224934 508.5858585858586,336.6888931493744 503.5353535353535,333.37601655861204 498.4848484848485,342.0930928196641 493.4343434343434,341.66460410720777 488.3838383838384,343.7221674699962 483.3333333333333,341.70264390199486 478.2828282828283,345.5455288092534 473.2323232323232,339.4212661208258 468.1818181818182,346.58957930840353 463.1313131313131,349.9638197147769 458.0808080808081,351.16397283577135 453.030303030303,348.7401021191356 447.979797979798,348.4923865907559 442.9292929292929,352.9185643816714 437.8787878787879,354.02061234291153 432.8282828282828,352.89764489907674 427.77777777777777,344.53754638354246 422.72727272727275,350.5738510635433 417.67676767676767,348.9739675073146 412.62626262626264,348.0465371122842 407.57575757575756,349.4379952947996 402.52525252525254,350.99094226479286 397.47474747474746,353.5610089057684 392.4242424242424,355.3294505918691 387.37373737373736,354.16488463666786 382.32323232323233,353.1045794590879 377.27272727272725,351.96006735271885 372.22222222222223,356.49050592125553 367.1717171717172,357.549127922075 362.1212121212121,358.8651316949558 357.07070707070704,357.09952736396565 352.020202020202,359.09409182514713 346.969696969697,355.08952576735226 341.9191919191919,364.3613289978975 336.86868686868684,364.3361775280193 331.8181818181818,364.24499743836526 326.7676767676768,366.3758511263819 321.7171717171717,362.70301516269745 316.66666666666663,362.20340020941927 311.6161616161616,365.7789966471119 306.5656565656566,364.42942552055047 301.5151515151515,365.5356573783095 296.4646464646464,365.29924317960746 291.4141414141414,369.05705552431436 286.3636363636364,368.5047811838151 281.3131313131313,364.96414673197603 276.26262626262627,369.608945138697 271.2121212121212,371.3328066860269 266.16161616161617,371.3692594855827 261.1111111111111,375.0049212882426 256.06060606060606,377.3366500999326 251.010101010101,375.5644092434297 245.95959595959596,379.5888367869983 240.9090909090909,378.2762474584031 235.85858585858585,374.2713447652562 230.8080808080808,378.0696976245086 225.75757575757575,379.08797147384087 220.7070707070707,380.8180367298024 215.65656565656565,372.7420103606743 210.6060606060606,371.0115122878316 205.55555555555554,375.51550093584626 200.50505050505052,376.96803438938514 195.45454545454544,381.1445730213376 190.40404040404042,385.83077757636653 185.35353535353534,387.81630097380594 180.3030303030303,383.980533499706 175.25252525252526,386.92517910603755 170.2020202020202,389.9478279325267 165.15151515151516,392.23603460226695 160.1010101010101,395.0051970086262 155.05050505050505,397.58132308593946 150,399.99985572770623 "/><text class="poloto_text" alignment-baseline="middle" text-anchor="start" font-size="large" x="675" y="150">default_seq</text><line class="poloto1stroke" stroke="black" x1="680" x2="730" y1="131.25" y2="131.25"/><polyline class="poloto1stroke" fill="none" stroke="black" points="650,125.2778043167553 644.9494949494949,131.91317565119704 639.8989898989898,134.62756267669351 634.8484848484848,137.30568926569248 629.7979797979798,140.6935874492081 624.7474747474747,143.5674915408345 619.6969696969697,145.7628349441602 614.6464646464647,149.59547651856204 609.5959595959596,153.56209896309898 604.5454545454545,156.91253444100258 599.4949494949494,159.32351683272938 594.4444444444445,160.78297535636858 589.3939393939394,139.77414012109892 584.3434343434344,167.46518709551657 579.2929292929293,167.37237191986665 574.2424242424242,171.2506997206247 569.1919191919192,176.54857071041602 564.1414141414141,179.05409954531783 559.090909090909,183.64936446451574 554.040404040404,185.41429552480167 548.989898989899,188.53346251581382 543.939393939394,191.2530433438855 538.8888888888889,194.37908731423337 533.8383838383838,197.39827360567241 528.7878787878788,199.95598092014947 523.7373737373737,203.07774481244923 518.6868686868687,205.7288924825158 513.6363636363636,208.10553806832863 508.5858585858586,211.39595627202957 503.5353535353535,213.95852075372977 498.4848484848485,217.59322074109792 493.4343434343434,220.7592281368163 488.3838383838384,223.14409724337324 483.3333333333333,225.6502512582147 478.2828282828283,228.24224728784117 473.2323232323232,230.5557496997533 468.1818181818182,234.55146705686442 463.1313131313131,236.4851967008453 458.0808080808081,238.95412846389763 453.030303030303,242.11330697104486 447.979797979798,242.92897442917865 442.9292929292929,246.72877001136865 437.8787878787879,249.95061078477073 432.8282828282828,250.89665230569568 427.77777777777777,253.54058636107445 422.72727272727275,252.51240581423755 417.67676767676767,255.38933962403283 412.62626262626264,258.60872776844104 407.57575757575756,261.3646652145393 402.52525252525254,264.330759301876 397.47474747474746,266.738471521611 392.4242424242424,270.10963411905095 387.37373737373736,273.32272237329846 382.32323232323233,276.2384173393496 377.27272727272725,277.9984912324124 372.22222222222223,281.74230916462494 367.1717171717172,284.42909209124934 362.1212121212121,286.3673903578658 357.07070707070704,289.47188966567944 352.020202020202,292.93856052158606 346.969696969697,295.5979798031613 341.9191919191919,298.49645827549085 336.86868686868684,298.46630536609575 331.8181818181818,303.4765454929015 326.7676767676768,306.6798713219382 321.7171717171717,309.1803987173231 316.66666666666663,312.46451703086336 311.6161616161616,315.1022473776106 306.5656565656566,318.17048624892675 301.5151515151515,320.3024460245289 296.4646464646464,323.16480833265473 291.4141414141414,325.771327773186 286.3636363636364,326.53106567210693 281.3131313131313,329.4094902956043 276.26262626262627,331.6337843392105 271.2121212121212,334.47219744657275 266.16161616161617,337.3573547771121 261.1111111111111,340.636760195723 256.06060606060606,343.92285023061123 251.010101010101,346.78968497984357 245.95959595959596,349.7819885338793 240.9090909090909,352.1897007536144 235.85858585858585,355.42029404617097 230.8080808080808,358.0459536110073 225.75757575757575,360.7085468830452 220.7070707070707,363.2974170129736 215.65656565656565,364.6573276539209 210.6060606060606,367.7652414060201 205.55555555555554,370.39551768425656 200.50505050505052,373.4222061349709 195.45454545454544,376.3085657346249 190.40404040404042,378.9382168329218 185.35353535353534,381.6722248903691 180.3030303030303,383.82486369474293 175.25252525252526,386.668518695445 170.2020202020202,389.4089709153468 165.15151515151516,391.93657341119336 160.1010101010101,394.76926371756997 155.05050505050505,397.38804630307055 150,400 "/><text class="poloto_text" alignment-baseline="middle" text-anchor="start" font-size="large" x="675" y="200">direct_par</text><line class="poloto2stroke" stroke="black" x1="680" x2="730" y1="181.25" y2="181.25"/><polyline class="poloto2stroke" fill="none" stroke="black" points="650,294.8345389153673 644.9494949494949,262.0252880476496 639.8989898989898,293.4927104019041 634.8484848484848,326.9181001454906 629.7979797979798,321.10392670710996 624.7474747474747,324.5042323078886 619.6969696969697,323.09978961893523 614.6464646464647,324.38323594419165 609.5959595959596,328.1733171919354 604.5454545454545,328.2204942319937 599.4949494949494,325.81355146449204 594.4444444444445,326.31013669960134 589.3939393939394,283.5452319289334 584.3434343434344,327.21395452922025 579.2929292929293,331.70803647973037 574.2424242424242,307.66044201183547 569.1919191919192,331.2211655790673 564.1414141414141,330.6342177973019 559.090909090909,331.2864247466098 554.040404040404,334.20659215376736 548.989898989899,333.1717269906531 543.939393939394,335.6939914116307 538.8888888888889,340.8908237050279 533.8383838383838,342.14127976577873 528.7878787878788,338.93708830297953 523.7373737373737,338.72116076999083 518.6868686868687,343.8350845852428 513.6363636363636,336.88370883671007 508.5858585858586,336.02134524616383 503.5353535353535,334.347930910884 498.4848484848485,344.30190163707374 493.4343434343434,345.0934756221502 488.3838383838384,345.0232150150909 483.3333333333333,343.50003622837596 478.2828282828283,346.7783355594014 473.2323232323232,326.2137628073721 468.1818181818182,340.3138788022963 463.1313131313131,350.82623139608773 458.0808080808081,349.9471803102303 453.030303030303,350.1845563242241 447.979797979798,346.70696886475656 442.9292929292929,349.450017985946 437.8787878787879,356.3035290285473 432.8282828282828,354.56490361648963 427.77777777777777,348.5833743173516 422.72727272727275,346.3108933276308 417.67676767676767,350.05211435855574 412.62626262626264,348.7624162339032 407.57575757575756,349.95665419085367 402.52525252525254,348.95064348649066 397.47474747474746,348.4915209569934 392.4242424242424,350.07231247968167 387.37373737373736,352.7364446561863 382.32323232323233,352.4628562964597 377.27272727272725,355.1668557168057 372.22222222222223,354.9149562919071 367.1717171717172,356.37297209260873 362.1212121212121,357.0226302313935 357.07070707070704,359.89629386919694 352.020202020202,359.78135694183777 346.969696969697,359.3050660093835 341.9191919191919,360.74110433066954 336.86868686868684,362.4015341595113 331.8181818181818,362.9029284710792 326.7676767676768,364.94337152167515 321.7171717171717,366.0928850675611 316.66666666666663,364.5513356087746 311.6161616161616,365.79366433031043 306.5656565656566,365.5997623675019 301.5151515151515,366.4441400120932 296.4646464646464,364.7724088535739 291.4141414141414,368.59634599958576 286.3636363636364,364.50411047795166 281.3131313131313,361.8979276727725 276.26262626262627,374.7345069189786 271.2121212121212,372.0354608473849 266.16161616161617,369.06263405300626 261.1111111111111,372.51228077824965 256.06060606060606,380.45456673106554 251.010101010101,376.0345926487816 245.95959595959596,382.7236813672653 240.9090909090909,379.79269353807604 235.85858585858585,379.0402173446075 230.8080808080808,380.6097556283828 225.75757575757575,379.8893559748928 220.7070707070707,380.9993389122895 215.65656565656565,372.03531657509114 210.6060606060606,373.2628814318993 205.55555555555554,372.9487525576272 200.50505050505052,379.0818158559739 195.45454545454544,376.8059685127322 190.40404040404042,380.92374023036115 185.35353535353534,387.52434194200765 180.3030303030303,384.9312879155603 175.25252525252526,387.5988345363505 170.2020202020202,389.9409028624264 165.15151515151516,391.99115642899784 160.1010101010101,394.9591741469179 155.05050505050505,397.674763441529 150,399.9963451018915 "/><text class="poloto_text" alignment-baseline="middle" text-anchor="start" font-size="large" x="675" y="250">direct_seq</text><line class="poloto3stroke" stroke="black" x1="680" x2="730" y1="231.25" y2="231.25"/><polyline class="poloto3stroke" fill="none" stroke="black" points="650,143.3420901272225 644.9494949494949,146.30005687534424 639.8989898989898,149.95678243289257 634.8484848484848,152.45317402252314 629.7979797979798,154.25720287441706 624.7474747474747,157.23084721179367 619.6969696969697,160.87468444443303 614.6464646464647,163.29696816583748 609.5959595959596,167.27830638433753 604.5454545454545,169.93657148756276 599.4949494949494,172.4612885375342 594.4444444444445,175.1825044516018 589.3939393939394,170.25704834276019 584.3434343434344,173.81941982019183 579.2929292929293,182.59906216596957 574.2424242424242,185.15441303298192 569.1919191919192,188.8644231576909 564.1414141414141,191.3320564700994 559.090909090909,194.54649126575535 554.040404040404,197.3771136692548 548.989898989899,199.50647654356928 543.939393939394,202.58168857575032 538.8888888888889,205.38028253003588 533.8383838383838,208.3709509980757 528.7878787878788,211.39864935484636 523.7373737373737,214.22119250989547 518.6868686868687,216.84564980561714 513.6363636363636,219.09413350380976 508.5858585858586,222.04132792066434 503.5353535353535,224.4575041149664 498.4848484848485,226.97568082095424 493.4343434343434,230.64183216836128 488.3838383838384,233.19468231561518 483.3333333333333,235.27441552087748 478.2828282828283,237.04016412416138 473.2323232323232,239.88093367898836 468.1818181818182,242.8197122120405 463.1313131313131,245.43118500132408 458.0808080808081,247.644370078311 453.030303030303,251.21131017837826 447.979797979798,250.8466860012914 442.9292929292929,255.48994550354558 437.8787878787879,258.5762184115813 432.8282828282828,258.66494587224145 427.77777777777777,261.0706382798639 422.72727272727275,247.6479287948903 417.67676767676767,250.60748253824337 412.62626262626264,253.4461841901932 407.57575757575756,256.7651202172933 402.52525252525254,260.26372334088467 397.47474747474746,262.361202038279 392.4242424242424,265.8923626094946 387.37373737373736,268.5291311409502 382.32323232323233,271.7756905673492 377.27272727272725,275.02398126127326 372.22222222222223,278.19301837516053 367.1717171717172,280.5128206772334 362.1212121212121,283.4400093360204 357.07070707070704,286.0283504675384 352.020202020202,288.76784087214844 346.969696969697,292.0938943324072 341.9191919191919,295.4336536605728 336.86868686868684,297.40802000062837 331.8181818181818,300.8889738136169 326.7676767676768,303.9279735000651 321.7171717171717,306.6499107756014 316.66666666666663,309.84510926542316 311.6161616161616,312.3485221066833 306.5656565656566,314.9033920660498 301.5151515151515,317.61869281607335 296.4646464646464,320.87583221068115 291.4141414141414,323.7909019967927 286.3636363636364,330.4204543487196 281.3131313131313,333.12584840123856 276.26262626262627,335.7816127847053 271.2121212121212,338.4357420821762 266.16161616161617,341.5033076827882 261.1111111111111,343.71230886325617 256.06060606060606,346.7326012422806 251.010101010101,349.9520374774535 245.95959595959596,352.2445242252418 240.9090909090909,355.036770198602 235.85858585858585,357.8978340560841 230.8080808080808,359.9511173408244 225.75757575757575,362.3835963043209 220.7070707070707,365.2205666887457 215.65656565656565,363.8846533393265 210.6060606060606,366.71513147053224 205.55555555555554,369.5215161286806 200.50505050505052,372.51016478460787 195.45454545454544,375.5372379614389 190.40404040404042,378.2459983674788 185.35353535353534,381.086864103835 180.3030303030303,384.90406854280496 175.25252525252526,387.39848841108756 170.2020202020202,390.09714975656453 165.15151515151516,391.70391029212897 160.1010101010101,394.67058146864065 155.05050505050505,397.56742485497426 150,399.9973550079478 "/><text class="poloto_text" alignment-baseline="middle" text-anchor="start" font-size="large" x="675" y="300">indirect_par</text><line class="poloto4stroke" stroke="black" x1="680" x2="730" y1="281.25" y2="281.25"/><polyline class="poloto4stroke" fill="none" stroke="black" points="650,266.7895920043653 644.9494949494949,304.06459936225235 639.8989898989898,305.3341955473081 634.8484848484848,304.40224462040675 629.7979797979798,302.2423922013451 624.7474747474747,307.93917608337273 619.6969696969697,310.0126574892389 614.6464646464647,302.09787945376587 609.5959595959596,306.7125730418563 604.5454545454545,305.13894704309126 599.4949494949494,306.86179868436494 594.4444444444445,308.23887772826924 589.3939393939394,266.31633079008 584.3434343434344,315.0368439377744 579.2929292929293,282.52859316559704 574.2424242424242,317.54030486979906 569.1919191919192,311.69429534526284 564.1414141414141,317.34000683530064 559.090909090909,312.63427742985 554.040404040404,317.10104382607557 548.989898989899,319.58036319427833 543.939393939394,319.2643106894228 538.8888888888889,328.53101629892194 533.8383838383838,325.5323647639609 528.7878787878788,320.4916831831726 523.7373737373737,325.9097810844275 518.6868686868687,328.74771328414397 513.6363636363636,317.41435515734975 508.5858585858586,328.9455105988839 503.5353535353535,328.6004593629833 498.4848484848485,327.0502535665714 493.4343434343434,334.6829311769862 488.3838383838384,332.55347212114253 483.3333333333333,329.6260910992972 478.2828282828283,335.73674410134714 473.2323232323232,331.1805288829926 468.1818181818182,337.67662936319493 463.1313131313131,340.78305230159197 458.0808080808081,336.5018681659016 453.030303030303,342.46969159713274 447.979797979798,337.21822819516643 442.9292929292929,336.2428513078444 437.8787878787879,342.30776999277356 432.8282828282828,343.47921292731047 427.77777777777777,342.4213122879598 422.72727272727275,340.8657684166789 417.67676767676767,339.2355395879968 412.62626262626264,342.66691182269767 407.57575757575756,342.6839840441255 402.52525252525254,344.16152469524883 397.47474747474746,345.0455772206231 392.4242424242424,344.04206723601857 387.37373737373736,345.6619084595502 382.32323232323233,348.85854967230955 377.27272727272725,347.2096135362037 372.22222222222223,349.3510471924291 367.1717171717172,350.758567690316 362.1212121212121,351.1042441061562 357.07070707070704,348.6669560662011 352.020202020202,351.27535104655124 346.969696969697,353.6228055382607 341.9191919191919,358.4200035779529 336.86868686868684,356.6545916100211 331.8181818181818,357.83786487264604 326.7676767676768,358.9874746000612 321.7171717171717,356.794968551846 316.66666666666663,360.44683694217116 311.6161616161616,360.516809004643 306.5656565656566,357.96823893543717 301.5151515151515,362.7848656440219 296.4646464646464,359.45746564235475 291.4141414141414,365.80400384469635 286.3636363636364,368.60168407445474 281.3131313131313,369.300827609998 276.26262626262627,365.4266356149943 271.2121212121212,368.01459202039564 266.16161616161617,371.577684859296 261.1111111111111,373.1068749915841 256.06060606060606,373.3438181886966 251.010101010101,375.6042283965064 245.95959595959596,372.346463821959 240.9090909090909,367.9604418194724 235.85858585858585,380.1333685143993 230.8080808080808,376.18261602217564 225.75757575757575,375.8032760711256 220.7070707070707,378.92056752231895 215.65656565656565,368.0956249587221 210.6060606060606,372.47294253281876 205.55555555555554,370.6666534149893 200.50505050505052,373.7730282626217 195.45454545454544,374.98592543623135 190.40404040404042,378.6265886784081 185.35353535353534,386.4960652136416 180.3030303030303,382.6057628125018 175.25252525252526,385.6983837014628 170.2020202020202,388.78364670344223 165.15151515151516,391.53049499503385 160.1010101010101,394.64836353540215 155.05050505050505,397.33163583621183 150,399.99932672929583 "/><text class="poloto_text" alignment-baseline="middle" text-anchor="start" font-size="large" x="675" y="350">indirect_seq</text><line class="poloto5stroke" stroke="black" x1="680" x2="730" y1="331.25" y2="331.25"/><polyline class="poloto5stroke" fill="none" stroke="black" points="650,100 644.9494949494949,104.09338969998413 639.8989898989898,108.65325981644713 634.8484848484848,112.09747228529238 629.7979797979798,115.4434834128541 624.7474747474747,118.10814458776917 619.6969696969697,121.74832692230007 614.6464646464647,124.10434157010576 609.5959595959596,128.5963556177387 604.5454545454545,132.3021337551641 599.4949494949494,135.50771985013637 594.4444444444445,138.34743140814248 589.3939393939394,120.47411402384404 584.3434343434344,132.81583930246592 579.2929292929293,149.57753866337168 574.2424242424242,150.87146877530776 569.1919191919192,155.43398388382295 564.1414141414141,158.23959908973802 559.090909090909,162.87896324006076 554.040404040404,165.87997122248646 548.989898989899,168.48211440344048 543.939393939394,172.19217261891401 538.8888888888889,175.30148100318618 533.8383838383838,178.74468356597507 528.7878787878788,183.0037940407207 523.7373737373737,185.60776467072895 518.6868686868687,188.77598424161826 513.6363636363636,191.8380194043029 508.5858585858586,194.54783780716375 503.5353535353535,198.29030919796787 498.4848484848485,201.99834760132885 493.4343434343434,204.83060509082424 488.3838383838384,207.95241707388857 483.3333333333333,210.91774170899188 478.2828282828283,213.58923177247812 473.2323232323232,216.78635389288326 468.1818181818182,219.8229490411022 463.1313131313131,222.7087315515812 458.0808080808081,225.7828374961768 453.030303030303,229.24662290620824 447.979797979798,230.30317700415054 442.9292929292929,234.69237299709982 437.8787878787879,238.41945534323662 432.8282828282828,238.71377082249955 427.77777777777777,241.2512800158507 422.72727272727275,234.73310587470368 417.67676767676767,237.4957760278439 412.62626262626264,241.47586388646474 407.57575757575756,244.951046807703 402.52525252525254,247.67033909118715 397.47474747474746,250.53015258878997 392.4242424242424,254.7875317960105 387.37373737373736,257.5716023393913 382.32323232323233,261.169464801087 377.27272727272725,264.7335675460437 372.22222222222223,267.4228511924265 367.1717171717172,270.7175975649402 362.1212121212121,273.9369857093484 357.07070707070704,277.1242492230135 352.020202020202,280.3093486522723 346.969696969697,282.88364728053136 341.9191919191919,286.0899066462078 336.86868686868684,289.57523671877357 331.8181818181818,292.910956422714 326.7676767676768,295.5192552215349 321.7171717171717,299.3332856700422 316.66666666666663,302.05882975292246 311.6161616161616,305.2399857394853 306.5656565656566,308.9589888371717 301.5151515151515,311.71093474980944 296.4646464646464,314.697804047447 291.4141414141414,317.595993975189 286.3636363636364,318.9848552564167 281.3131313131313,321.60488820179654 276.26262626262627,324.9007406618956 271.2121212121212,328.6530706594398 266.16161616161617,332.03563076808643 261.1111111111111,335.2169791177076 256.06060606060606,338.8022417990819 251.010101010101,342.2424146437019 245.95959595959596,345.3481643113947 240.9090909090909,348.60794869805477 235.85858585858585,351.78141016228386 230.8080808080808,355.0034913895089 225.75757575757575,357.8694124142141 220.7070707070707,360.9021122105016 215.65656565656565,361.2254264208096 210.6060606060606,364.1765642803602 205.55555555555554,366.6953661662876 200.50505050505052,370.6260648096792 195.45454545454544,373.914751745855 190.40404040404042,376.9976102096052 185.35353535353534,380.0059760790125 180.3030303030303,382.63706990024696 175.25252525252526,385.48274471306166 170.2020202020202,388.77224919223545 165.15151515151516,391.2509433804986 160.1010101010101,394.0999364560697 155.05050505050505,397.34923705605013 150,399.99879773088537 "/><text class="poloto_text" alignment-baseline="start" text-anchor="middle" font-size="x-large" x="400" y="37.5">Bench of query:128_bytes with abspiral(num,1.5)</text><text class="poloto_text" alignment-baseline="start" text-anchor="middle" font-size="x-large" x="400" y="481.25">Number of Elements</text><text class="poloto_text" alignment-baseline="start" text-anchor="middle" font-size="x-large" transform="rotate(-90,37.5,250)" x="37.5" y="250">Time in Seconds</text><path stroke="black" fill="none" class="poloto_axis_lines" d=" M 150 100 L 150 400 L 650 400"/></svg>