<svg class="poloto" height="500" viewBox="0 0 800 500" width="800" xmlns="http://www.w3.org/2000/svg">
<rect class="poloto_background" fill="white" height="500" width="800" x="0" y="0"/>
<style>
.poloto {
font-family: "Arial";
stroke-width:2;
}
.poloto_text{fill: var(--poloto_fg_color,black);  }
.poloto_axis_lines{stroke: var(--poloto_fg_color,black);stoke-width:3;fill:none}
.poloto_background{fill: var(--poloto_bg_color,aliceblue); }
.poloto0stroke{stroke:  var(--poloto_color0,blue); }
.poloto1stroke{stroke:  var(--poloto_color1,red); }
.poloto2stroke{stroke:  var(--poloto_color2,green); }
.poloto3stroke{stroke:  var(--poloto_color3,gold); }
.poloto4stroke{stroke:  var(--poloto_color4,aqua); }
.poloto5stroke{stroke:  var(--poloto_color5,brown); }
.poloto6stroke{stroke:  var(--poloto_color6,lime); }
.poloto7stroke{stroke:  var(--poloto_color7,chocolate); }
.poloto0fill{fill:var(--poloto_color0,blue);}
.poloto1fill{fill:var(--poloto_color1,red);}
.poloto2fill{fill:var(--poloto_color2,green);}
.poloto3fill{fill:var(--poloto_color3,gold);}
.poloto4fill{fill:var(--poloto_color4,aqua);}
.poloto5fill{fill:var(--poloto_color5,brown);}
.poloto6fill{fill:var(--poloto_color6,lime);}
.poloto7fill{fill:var(--poloto_color7,chocolate);}
</style>
<line class="poloto_axis_lines" stroke="black" x1="150" x2="150" y1="400" y2="405"/>
<text alignment-baseline="start" class="poloto_text" text-anchor="middle" x="150" y="440">
0
</text>
<line class="poloto_axis_lines" stroke="black" x1="234.17508" x2="234.17508" y1="400" y2="405"/>
<text alignment-baseline="start" class="poloto_text" text-anchor="middle" x="234.17508" y="440">
5000
</text>
<line class="poloto_axis_lines" stroke="black" x1="318.35016" x2="318.35016" y1="400" y2="405"/>
<text alignment-baseline="start" class="poloto_text" text-anchor="middle" x="318.35016" y="440">
10000
</text>
<line class="poloto_axis_lines" stroke="black" x1="402.52527" x2="402.52527" y1="400" y2="405"/>
<text alignment-baseline="start" class="poloto_text" text-anchor="middle" x="402.52527" y="440">
15000
</text>
<line class="poloto_axis_lines" stroke="black" x1="486.70035" x2="486.70035" y1="400" y2="405"/>
<text alignment-baseline="start" class="poloto_text" text-anchor="middle" x="486.70035" y="440">
20000
</text>
<line class="poloto_axis_lines" stroke="black" x1="570.8754" x2="570.8754" y1="400" y2="405"/>
<text alignment-baseline="start" class="poloto_text" text-anchor="middle" x="570.8754" y="440">
25000
</text>
<line class="poloto_axis_lines" stroke="black" x1="150" x2="144" y1="346.81256" y2="346.81256"/>
<text alignment-baseline="middle" class="poloto_text" text-anchor="end" x="120" y="346.81256">
0.002
</text>
<line class="poloto_axis_lines" stroke="black" x1="150" x2="144" y1="293.6211" y2="293.6211"/>
<text alignment-baseline="middle" class="poloto_text" text-anchor="end" x="120" y="293.6211">
0.004
</text>
<line class="poloto_axis_lines" stroke="black" x1="150" x2="144" y1="240.42963" y2="240.42963"/>
<text alignment-baseline="middle" class="poloto_text" text-anchor="end" x="120" y="240.42963">
0.006
</text>
<line class="poloto_axis_lines" stroke="black" x1="150" x2="144" y1="187.23819" y2="187.23819"/>
<text alignment-baseline="middle" class="poloto_text" text-anchor="end" x="120" y="187.23819">
0.008
</text>
<line class="poloto_axis_lines" stroke="black" x1="150" x2="144" y1="134.04672" y2="134.04672"/>
<text alignment-baseline="middle" class="poloto_text" text-anchor="end" x="120" y="134.04672">
0.010
</text>
<text alignment-baseline="middle" class="poloto_text" font-size="large" text-anchor="start" x="675" y="100">
default_par
</text>
<line class="poloto0stroke" x1="680" x2="730" y1="81.25" y2="81.25"/>
<polyline class="poloto0stroke" fill="none" points="650,338.89783 644.94946,364.6474 639.899,368.5454 634.8485,368.2489 629.798,364.55112 624.7475,367.16727 619.697,319.66278 614.6465,369.68506 609.59595,355.8479 604.5455,352.62515 599.495,358.40353 594.44446,300.23 589.3939,337.68515 584.34344,294.00702 579.29297,369.06012 574.24243,364.64142 569.1919,370.12372 564.1414,285.99634 559.09094,373.37418 554.0404,374.12274 548.98987,350.47876 543.9394,368.90973 538.8889,374.9973 533.8384,374.5162 528.78784,355.58026 523.73737,374.30728 518.6869,244.1337 513.63635,376.3149 508.58588,376.1543 503.53537,372.87198 498.48486,375.649 493.43436,378.25092 488.38385,377.29022 483.33334,378.28458 478.28284,377.51126 473.23233,378.00162 468.18182,376.87912 463.13132,379.48822 458.0808,378.60718 453.0303,379.3848 447.9798,379.22867 442.9293,379.62088 437.87878,380.00772 432.82828,380.70734 427.77777,381.0949 422.72726,382.59384 417.67676,377.46057 412.62628,383.3157 407.57578,380.76654 402.52527,380.87933 397.47473,384.06577 392.42426,382.15536 387.37375,382.99365 382.32324,383.81805 377.27274,375.26318 372.22223,384.74524 367.17172,385.0072 362.12122,384.6537 357.0707,385.4391 352.0202,385.74353 346.9697,384.7065 341.9192,383.8786 336.86868,386.78546 331.81818,384.6411 326.7677,386.0209 321.71716,386.87897 316.6667,387.70337 311.61615,386.8969 306.56567,389.08133 301.51514,387.35477 296.46466,390.3619 291.41412,388.26645 286.36365,388.4552 281.31314,390.02325 276.26263,389.67923 271.21213,389.7525 266.16162,389.9105 261.1111,390.32288 256.0606,392.11902 251.0101,391.04822 245.9596,392.12054 240.90909,392.03363 235.85858,391.33893 230.80807,391.54303 225.75757,392.20517 220.70706,394.03415 215.65657,390.67883 210.60606,391.0452 205.55556,391.30466 200.50505,390.73544 195.45454,393.61435 190.40404,392.75323 185.35353,392.84824 180.30302,396.0557 175.25253,396.74673 170.20203,397.36484 165.15152,398.2585 160.10101,398.76163 155.0505,399.42456 150,400 " stroke="black"/>
<text alignment-baseline="middle" class="poloto_text" font-size="large" text-anchor="start" x="675" y="150">
default_seq
</text>
<line class="poloto1stroke" x1="680" x2="730" y1="131.25" y2="131.25"/>
<polyline class="poloto1stroke" fill="none" points="650,312.14938 644.94946,297.98022 639.899,291.11856 634.8485,293.16296 629.798,298.4723 624.7475,298.4497 619.697,302.84906 614.6465,297.21057 609.59595,306.97302 604.5455,320.2691 599.495,320.94443 594.44446,320.70047 589.3939,320.5237 584.34344,323.49927 579.29297,322.58795 574.24243,316.53195 569.1919,307.1211 564.1414,327.05225 559.09094,324.41333 554.0404,322.5346 548.98987,330.32834 543.9394,328.286 538.8889,310.7187 533.8384,330.299 528.78784,331.4652 523.73737,328.11398 518.6869,332.78806 513.63635,335.1469 508.58588,336.14886 503.53537,336.9956 498.48486,338.01096 493.43436,338.06607 488.38385,338.96503 483.33334,339.76917 478.28284,342.4435 473.23233,342.2833 468.18182,342.0318 463.13132,338.53534 458.0808,344.6649 453.0303,345.1839 447.9798,345.68625 442.9293,347.11563 437.87878,348.06454 432.82828,347.70648 427.77777,350.22165 422.72726,354.3514 417.67676,355.54266 412.62628,357.10706 407.57578,358.74225 402.52527,358.35736 397.47473,359.3234 392.42426,359.4858 387.37375,360.86206 382.32324,362.18127 377.27274,362.57538 372.22223,363.02576 367.17172,363.6172 362.12122,364.81152 357.0707,365.351 352.0202,366.26187 346.9697,366.35498 341.9192,367.77277 336.86868,368.52795 331.81818,369.52652 326.7677,370.32928 321.71716,370.85596 316.6667,371.89276 311.61615,372.2271 306.56567,373.40448 301.51514,374.0381 296.46466,374.65726 291.41412,375.53244 286.36365,379.33636 281.31314,380.06317 276.26263,380.62732 271.21213,381.4374 266.16162,382.21637 261.1111,382.85727 256.0606,383.70316 251.0101,383.2985 245.9596,384.95465 240.90909,385.50284 235.85858,386.2606 230.80807,386.88007 225.75757,387.4548 220.70706,388.62833 215.65657,390.51245 210.60606,391.29605 205.55556,391.7373 200.50505,392.56122 195.45454,393.1274 190.40404,393.89233 185.35353,394.67905 180.30302,395.7193 175.25253,396.6127 170.20203,397.13013 165.15152,398.1079 160.10101,398.69754 155.0505,399.3506 150,399.99973 " stroke="black"/>
<text alignment-baseline="middle" class="poloto_text" font-size="large" text-anchor="start" x="675" y="200">
direct_par
</text>
<line class="poloto2stroke" x1="680" x2="730" y1="181.25" y2="181.25"/>
<polyline class="poloto2stroke" fill="none" points="650,249.38655 644.94946,296.19086 639.899,299.0622 634.8485,302.8166 629.798,299.4824 624.7475,307.2651 619.697,275.60562 614.6465,306.7128 609.59595,308.03668 604.5455,298.09177 599.495,270.63974 594.44446,250.67384 589.3939,256.09634 584.34344,253.06755 579.29297,279.15353 574.24243,244.11469 569.1919,289.1302 564.1414,311.686 559.09094,275.81628 554.0404,260.38895 548.98987,322.28387 543.9394,273.38065 538.8889,284.09244 533.8384,298.71478 528.78784,316.32602 523.73737,297.96136 518.6869,332.36063 513.63635,328.96405 508.58588,332.58057 503.53537,336.56824 498.48486,331.60468 493.43436,338.25116 488.38385,336.1033 483.33334,335.19702 478.28284,336.5697 473.23233,339.9529 468.18182,343.40744 463.13132,342.83572 458.0808,337.8855 453.0303,341.03732 447.9798,343.67587 442.9293,345.1947 437.87878,343.21732 432.82828,348.09964 427.77777,349.48877 422.72726,352.8359 417.67676,353.63138 412.62628,353.20068 407.57578,350.24286 402.52527,351.0648 397.47473,351.07553 392.42426,351.4327 387.37375,351.80035 382.32324,358.0806 377.27274,347.96506 372.22223,347.62177 367.17172,356.79446 362.12122,361.22375 357.0707,361.0234 352.0202,360.74097 346.9697,363.38007 341.9192,362.82867 336.86868,364.1396 331.81818,366.10138 326.7677,367.27365 321.71716,367.69736 316.6667,368.26434 311.61615,364.04886 306.56567,370.15894 301.51514,372.0578 296.46466,371.51556 291.41412,372.22043 286.36365,374.73917 281.31314,375.58243 276.26263,376.387 271.21213,374.53098 266.16162,378.23328 261.1111,378.40445 256.0606,376.73758 251.0101,383.09802 245.9596,376.80054 240.90909,383.50424 235.85858,382.03326 230.80807,380.29654 225.75757,383.6427 220.70706,385.443 215.65657,380.71927 210.60606,381.792 205.55556,384.8542 200.50505,385.21017 195.45454,386.67065 190.40404,389.75656 185.35353,389.53726 180.30302,390.19962 175.25253,392.13507 170.20203,393.73538 165.15152,395.8741 160.10101,397.14478 155.0505,398.73914 150,399.99762 " stroke="black"/>
<text alignment-baseline="middle" class="poloto_text" font-size="large" text-anchor="start" x="675" y="250">
direct_seq
</text>
<line class="poloto3stroke" x1="680" x2="730" y1="231.25" y2="231.25"/>
<polyline class="poloto3stroke" fill="none" points="650,122.24829 644.94946,100 639.899,114.387115 634.8485,121.53162 629.798,124.096375 624.7475,124.89096 619.697,138.6614 614.6465,108.554565 609.59595,126.500336 604.5455,139.71027 599.495,151.3321 594.44446,136.3569 589.3939,149.05913 584.34344,133.49039 579.29297,161.95648 574.24243,152.49928 569.1919,149.54572 564.1414,162.88322 559.09094,172.47623 554.0404,138.79681 548.98987,167.47496 543.9394,182.58003 538.8889,173.20512 533.8384,175.23964 528.78784,176.37236 523.73737,202.31401 518.6869,171.36336 513.63635,177.98904 508.58588,216.87613 503.53537,220.21675 498.48486,224.39517 493.43436,222.46355 488.38385,225.68887 483.33334,230.40099 478.28284,238.19565 473.23233,237.1324 468.18182,237.0441 463.13132,215.4794 458.0808,242.57516 453.0303,246.26631 447.9798,248.1501 442.9293,249.9673 437.87878,252.39395 432.82828,253.08731 427.77777,261.17975 422.72726,270.39685 417.67676,275.58664 412.62628,279.81683 407.57578,284.92926 402.52527,283.9012 397.47473,286.29227 392.42426,287.5227 387.37375,290.5775 382.32324,295.49573 377.27274,297.7597 372.22223,298.78632 367.17172,300.91345 362.12122,303.9297 357.0707,304.97806 352.0202,307.5937 346.9697,308.87564 341.9192,312.48853 336.86868,314.09048 331.81818,317.2467 326.7677,319.27368 321.71716,320.74445 316.6667,323.33026 311.61615,324.7536 306.56567,328.04163 301.51514,330.95016 296.46466,331.48474 291.41412,334.21167 286.36365,343.2979 281.31314,345.0082 276.26263,346.92352 271.21213,349.81036 266.16162,352.08044 261.1111,353.90002 256.0606,356.36548 251.0101,356.3008 245.9596,360.25198 240.90909,361.1324 235.85858,363.5966 230.80807,365.53836 225.75757,367.27527 220.70706,370.20117 215.65657,375.13568 210.60606,377.45956 205.55556,378.41568 200.50505,380.88043 195.45454,382.4367 190.40404,384.68036 185.35353,386.7943 180.30302,389.0632 175.25253,391.5883 170.20203,392.86115 165.15152,395.3704 160.10101,396.72894 155.0505,398.55008 150,399.9966 " stroke="black"/>
<text alignment-baseline="middle" class="poloto_text" font-size="large" text-anchor="start" x="675" y="300">
indirect_par
</text>
<line class="poloto4stroke" x1="680" x2="730" y1="281.25" y2="281.25"/>
<polyline class="poloto4stroke" fill="none" points="650,318.77267 644.94946,353.01227 639.899,354.88657 634.8485,353.39783 629.798,355.5474 624.7475,354.62994 619.697,353.83655 614.6465,355.17844 609.59595,357.3248 604.5455,332.30347 599.495,343.222 594.44446,342.6863 589.3939,349.71597 584.34344,329.3904 579.29297,331.4768 574.24243,319.30072 569.1919,364.88727 564.1414,340.38678 559.09094,348.59863 554.0404,366.7053 548.98987,332.01755 543.9394,318.9669 538.8889,367.8149 533.8384,351.29385 528.78784,363.7478 523.73737,322.62543 518.6869,349.9281 513.63635,369.01556 508.58588,369.20163 503.53537,370.94333 498.48486,365.91568 493.43436,370.77222 488.38385,370.1242 483.33334,374.08237 478.28284,373.8737 473.23233,373.86264 468.18182,373.71713 463.13132,372.57977 458.0808,374.8588 453.0303,374.5333 447.9798,373.04926 442.9293,374.90033 437.87878,375.09418 432.82828,377.56125 427.77777,376.05984 422.72726,378.7465 417.67676,379.07495 412.62628,377.96732 407.57578,379.75427 402.52527,377.55743 397.47473,376.70258 392.42426,378.19455 387.37375,377.27747 382.32324,379.02505 377.27274,367.72766 372.22223,373.64056 367.17172,383.57095 362.12122,383.44833 357.0707,382.5753 352.0202,384.0697 346.9697,377.7545 341.9192,383.01236 336.86868,383.16403 331.81818,383.3429 326.7677,381.6222 321.71716,385.6366 316.6667,386.7431 311.61615,382.69113 306.56567,387.5628 301.51514,388.38553 296.46466,385.71985 291.41412,387.2675 286.36365,387.7907 281.31314,388.94266 276.26263,384.42474 271.21213,390.7214 266.16162,386.18726 261.1111,383.94604 256.0606,392.2083 251.0101,391.88773 245.9596,391.2349 240.90909,393.09653 235.85858,391.3385 230.80807,391.1827 225.75757,391.4149 220.70706,393.6673 215.65657,389.3309 210.60606,390.01105 205.55556,389.64957 200.50505,390.41818 195.45454,392.79218 190.40404,390.10413 185.35353,392.73196 180.30302,396.2867 175.25253,397.02304 170.20203,397.60254 165.15152,398.45023 160.10101,398.86917 155.0505,399.48193 150,399.99896 " stroke="black"/>
<text alignment-baseline="middle" class="poloto_text" font-size="large" text-anchor="start" x="675" y="350">
indirect_seq
</text>
<line class="poloto5stroke" x1="680" x2="730" y1="331.25" y2="331.25"/>
<polyline class="poloto5stroke" fill="none" points="650,286.388 644.94946,244.01607 639.899,282.53217 634.8485,290.61218 629.798,289.9854 624.7475,277.05496 619.697,275.26944 614.6465,283.9434 609.59595,262.71136 604.5455,289.55762 599.495,309.76013 594.44446,308.03522 589.3939,309.22098 584.34344,310.95502 579.29297,316.29266 574.24243,309.87506 569.1919,296.10422 564.1414,321.4994 559.09094,315.85648 554.0404,298.3318 548.98987,299.76083 543.9394,319.4089 538.8889,296.8049 533.8384,321.5056 528.78784,315.8208 523.73737,320.6498 518.6869,304.81653 513.63635,332.2162 508.58588,333.33224 503.53537,329.9563 498.48486,330.93738 493.43436,330.1024 488.38385,335.09058 483.33334,336.6384 478.28284,339.97583 473.23233,339.87054 468.18182,339.5469 463.13132,333.94125 458.0808,342.27594 453.0303,343.1349 447.9798,344.11868 442.9293,345.40433 437.87878,346.47217 432.82828,345.07352 427.77777,348.8534 422.72726,348.9128 417.67676,353.40833 412.62628,352.2448 407.57578,357.61346 402.52527,354.3999 397.47473,354.62015 392.42426,355.1842 387.37375,356.7615 382.32324,358.53632 377.27274,361.63614 372.22223,361.61987 367.17172,362.8171 362.12122,364.01212 357.0707,364.39517 352.0202,363.56317 346.9697,364.176 341.9192,365.64783 336.86868,366.4594 331.81818,368.93277 326.7677,370.2165 321.71716,368.90295 316.6667,370.22964 311.61615,370.03293 306.56567,373.07837 301.51514,374.0066 296.46466,372.86926 291.41412,374.35492 286.36365,378.45056 281.31314,379.5367 276.26263,380.67123 271.21213,381.1147 266.16162,381.9713 261.1111,382.7898 256.0606,383.73785 251.0101,383.51465 245.9596,384.88937 240.90909,385.60446 235.85858,386.4436 230.80807,387.08176 225.75757,387.99115 220.70706,388.991 215.65657,390.6266 210.60606,391.6346 205.55556,391.9264 200.50505,392.8676 195.45454,393.38174 190.40404,394.2367 185.35353,394.99594 180.30302,395.8927 175.25253,396.86832 170.20203,397.41962 165.15152,398.28265 160.10101,398.84305 155.0505,399.41803 150,399.9984 " stroke="black"/>
<text alignment-baseline="start" class="poloto_text" font-size="x-large" text-anchor="middle" x="400" y="37.5">
Bench of rebal:128_bytes with abspiral(num,1)
</text>
<text alignment-baseline="start" class="poloto_text" font-size="large" text-anchor="middle" x="400" y="481.25">
Number of Elements
</text>
<text alignment-baseline="start" class="poloto_text" font-size="large" text-anchor="middle" transform="rotate(-90,37.5,250)" x="37.5" y="250">
Time in Seconds
</text>
<path class="poloto_axis_lines" d="M150,100 L150,400 L650,400" stroke="black"/>
</svg>