<svg class="poloto" width="800" height="500" viewBox="0 0 800 500" xmlns="http://www.w3.org/2000/svg"><style>.poloto {
                    font-family: "Arial";
                    stroke-width:2;
                    }
                    .poloto_text{fill: var(--poloto_fg_color,black);  }
                    .poloto_axis_lines{stroke: var(--poloto_fg_color,black);stoke-width:3;fill:none}
                    .poloto_background{fill: var(--poloto_bg_color,aliceblue); }
                    .poloto0stroke{stroke:  var(--poloto_color0,blue); }
                    .poloto1stroke{stroke:  var(--poloto_color1,red); }
                    .poloto2stroke{stroke:  var(--poloto_color2,green); }
                    .poloto3stroke{stroke:  var(--poloto_color3,gold); }
                    .poloto4stroke{stroke:  var(--poloto_color4,aqua); }
                    .poloto5stroke{stroke:  var(--poloto_color5,brown); }
                    .poloto6stroke{stroke:  var(--poloto_color6,lime); }
                    .poloto7stroke{stroke:  var(--poloto_color7,chocolate); }
                    .poloto0fill{fill:var(--poloto_color0,blue);}
                    .poloto1fill{fill:var(--poloto_color1,red);}
                    .poloto2fill{fill:var(--poloto_color2,green);}
                    .poloto3fill{fill:var(--poloto_color3,gold);}
                    .poloto4fill{fill:var(--poloto_color4,aqua);}
                    .poloto5fill{fill:var(--poloto_color5,brown);}
                    .poloto6fill{fill:var(--poloto_color6,lime);}
                    .poloto7fill{fill:var(--poloto_color7,chocolate);}</style><rect class="poloto_background" fill="white" x="0" y="0" width="800" height="500"/><line class="poloto_axis_lines" stroke="black" x1="150" x2="150" y1="400" y2="405"/><text class="poloto_text" alignment-baseline="start" text-anchor="middle" x="150" y="430">0</text><line class="poloto_axis_lines" stroke="black" x1="234.17508417508418" x2="234.17508417508418" y1="400" y2="405"/><text class="poloto_text" alignment-baseline="start" text-anchor="middle" x="234.17508417508418" y="430">5000</text><line class="poloto_axis_lines" stroke="black" x1="318.35016835016836" x2="318.35016835016836" y1="400" y2="405"/><text class="poloto_text" alignment-baseline="start" text-anchor="middle" x="318.35016835016836" y="430">10000</text><line class="poloto_axis_lines" stroke="black" x1="402.52525252525254" x2="402.52525252525254" y1="400" y2="405"/><text class="poloto_text" alignment-baseline="start" text-anchor="middle" x="402.52525252525254" y="430">15000</text><line class="poloto_axis_lines" stroke="black" x1="486.7003367003367" x2="486.7003367003367" y1="400" y2="405"/><text class="poloto_text" alignment-baseline="start" text-anchor="middle" x="486.7003367003367" y="430">20000</text><line class="poloto_axis_lines" stroke="black" x1="570.8754208754208" x2="570.8754208754208" y1="400" y2="405"/><text class="poloto_text" alignment-baseline="start" text-anchor="middle" x="570.8754208754208" y="430">25000</text><line class="poloto_axis_lines" stroke="black" x1="150" x2="144" y1="341.8349171927402" y2="341.8349171927402"/><text class="poloto_text" alignment-baseline="middle" text-anchor="end" x="135" y="341.8349171927402">0.01</text><line class="poloto_axis_lines" stroke="black" x1="150" x2="144" y1="283.66918292925664" y2="283.66918292925664"/><text class="poloto_text" alignment-baseline="middle" text-anchor="end" x="135" y="283.66918292925664">0.02</text><line class="poloto_axis_lines" stroke="black" x1="150" x2="144" y1="225.50344866577302" y2="225.50344866577302"/><text class="poloto_text" alignment-baseline="middle" text-anchor="end" x="135" y="225.50344866577302">0.03</text><line class="poloto_axis_lines" stroke="black" x1="150" x2="144" y1="167.33771440228952" y2="167.33771440228952"/><text class="poloto_text" alignment-baseline="middle" text-anchor="end" x="135" y="167.33771440228952">0.04</text><line class="poloto_axis_lines" stroke="black" x1="150" x2="144" y1="109.1719801388059" y2="109.1719801388059"/><text class="poloto_text" alignment-baseline="middle" text-anchor="end" x="135" y="109.1719801388059">0.05</text><text class="poloto_text" alignment-baseline="middle" text-anchor="start" font-size="large" x="675" y="100">default_par</text><line class="poloto0stroke" stroke="black" x1="680" x2="730" y1="81.25" y2="81.25"/><polyline class="poloto0stroke" fill="none" stroke="black" points="650,305.94849137280016 644.9494949494949,306.4679695455073 639.8989898989898,307.2896245242867 634.8484848484848,307.81638504692364 629.7979797979798,310.13747703956113 624.7474747474747,309.4006277013379 619.6969696969697,311.0074735600869 614.6464646464647,312.9531813535081 609.5959595959596,312.337467973462 604.5454545454545,312.7824416571511 599.4949494949494,315.2849060423689 594.4444444444445,314.8591735835742 589.3939393939394,315.44648463557945 584.3434343434344,317.2137166899866 579.2929292929293,317.74010495192425 574.2424242424242,319.73214175268635 569.1919191919192,320.90146495830544 564.1414141414141,321.64089685513 559.090909090909,322.16615670182296 554.040404040404,323.1216277688489 548.989898989899,318.7487685829342 543.939393939394,324.32127858831296 538.8888888888889,325.00134072017477 533.8383838383838,326.2034345004779 528.7878787878788,326.04235031600865 523.7373737373737,326.57321152291115 518.6868686868687,327.2558445802274 513.6363636363636,328.9974429955446 508.5858585858586,329.6918487974758 503.5353535353535,330.40936384562985 498.4848484848485,330.6803638181368 493.4343434343434,332.3697410372323 488.3838383838384,332.6786418021854 483.3333333333333,333.939965749689 478.2828282828283,334.5073259548419 473.2323232323232,335.0477379753105 468.1818181818182,335.43952491158905 463.1313131313131,336.69282780433775 458.0808080808081,337.42202834850536 453.030303030303,337.80870251674213 447.979797979798,338.616461701606 442.9292929292929,339.2739380788533 437.8787878787879,340.0367467842783 432.8282828282828,341.1218634564041 427.77777777777777,341.4429266763917 422.72727272727275,342.57913031292117 417.67676767676767,343.38611589351933 412.62626262626264,344.5786821265501 407.57575757575756,344.72188034773336 402.52525252525254,346.1917051862779 397.47474747474746,346.3882239360605 392.4242424242424,347.914952312435 387.37373737373736,347.2434987092442 382.32323232323233,348.5598939739485 377.27272727272725,349.47269465831874 372.22222222222223,350.28184982080495 367.1717171717172,351.3466084859386 362.1212121212121,352.5057352383413 357.07070707070704,353.25564278390664 352.020202020202,353.1427198274075 346.969696969697,355.3797158014468 341.9191919191919,356.84341578817344 336.86868686868684,358.32690957426985 331.8181818181818,358.52946592726903 326.7676767676768,360.00318205343575 321.7171717171717,360.62272855536986 316.66666666666663,361.08006827416335 311.6161616161616,361.34857293667045 306.5656565656566,362.3302709332758 301.5151515151515,363.30587316093033 296.4646464646464,362.70565513249204 291.4141414141414,364.218801809916 286.3636363636364,366.9236015183428 281.3131313131313,367.6177048584558 276.26262626262627,369.27753388454545 271.2121212121212,369.96585555067264 266.16161616161617,371.37962607110745 261.1111111111111,371.41792239054655 256.06060606060606,372.7645696536413 251.010101010101,373.88933790681455 245.95959595959596,374.76226016377376 240.9090909090909,376.1654794200132 235.85858585858585,377.21550470465786 230.8080808080808,378.0348156043464 225.75757575757575,379.18919603283325 220.7070707070707,380.0262649311925 215.65656565656565,379.52694118540757 210.6060606060606,380.8072853280154 205.55555555555554,381.42851281966966 200.50505050505052,382.8155561852104 195.45454545454544,384.8105652549933 190.40404040404042,385.78820909992055 185.35353535353534,387.49258144530916 180.3030303030303,389.1186161797917 175.25252525252526,391.160547547405 170.2020202020202,393.18150435124284 165.15151515151516,395.45995504409177 160.1010101010101,397.34565324947334 155.05050505050505,399.11504325262166 150,399.99991856797203 "/><text class="poloto_text" alignment-baseline="middle" text-anchor="start" font-size="large" x="675" y="150">default_seq</text><line class="poloto1stroke" stroke="black" x1="680" x2="730" y1="131.25" y2="131.25"/><polyline class="poloto1stroke" fill="none" stroke="black" points="650,159.2708366819023 644.9494949494949,162.33102321010557 639.8989898989898,162.0983719061985 634.8484848484848,167.00635584733726 629.7979797979798,169.58101554192297 624.7474747474747,171.84376148652072 619.6969696969697,174.1516847569209 614.6464646464647,176.1614679232068 609.5959595959596,177.78544940726985 604.5454545454545,180.18348884976444 599.4949494949494,181.53619698236943 594.4444444444445,185.72328062962 589.3939393939394,188.01005483904203 584.3434343434344,190.78685209334014 579.2929292929293,193.14344845017203 574.2424242424242,195.2257875533782 569.1919191919192,198.12844382347566 564.1414141414141,200.27563190381213 559.090909090909,202.52924001155714 554.040404040404,205.57471642556516 548.989898989899,206.81914904383868 543.939393939394,210.29035791664143 538.8888888888889,212.431735240125 533.8383838383838,215.04014269373033 528.7878787878788,216.82519672911585 523.7373737373737,219.09320667266445 518.6868686868687,221.9106850415065 513.6363636363636,223.78556442031507 508.5858585858586,226.6351502744705 503.5353535353535,229.06800772549528 498.4848484848485,231.65877932847195 493.4343434343434,234.15598553131238 488.3838383838384,236.4129614350712 483.3333333333333,238.73407087742893 478.2828282828283,241.0134813048932 473.2323232323232,243.8449078168116 468.1818181818182,246.43273623363453 463.1313131313131,249.46434012002072 458.0808080808081,251.77536944063058 453.030303030303,254.30037304787555 447.979797979798,257.13714499077275 442.9292929292929,258.6089765471494 437.8787878787879,261.2060649488671 432.8282828282828,263.9872595326756 427.77777777777777,266.1089710214046 422.72727272727275,273.80445471194605 417.67676767676767,276.36901101849014 412.62626262626264,278.9619173039143 407.57575757575756,280.6894628778335 402.52525252525254,283.177420728926 397.47474747474746,285.3092705051372 392.4242424242424,288.02725056894815 387.37373737373736,288.7434685212281 382.32323232323233,291.2738524588924 377.27272727272725,293.25130129350123 372.22222222222223,295.57185234481005 367.1717171717172,298.0747936890489 362.1212121212121,301.0789433488627 357.07070707070704,302.7632485159304 352.020202020202,305.08548637353283 346.969696969697,307.7997845463649 341.9191919191919,310.5575790552791 336.86868686868684,313.05913023846904 331.8181818181818,315.07403780594353 326.7676767676768,317.3064619532697 321.7171717171717,318.5155239885376 316.66666666666663,321.7967054075016 311.6161616161616,323.4275795310748 306.5656565656566,325.888042439581 301.5151515151515,328.81253994289443 296.4646464646464,330.9955290326701 291.4141414141414,333.5441770108932 286.3636363636364,339.65032854527226 281.3131313131313,341.76688654994564 276.26262626262627,344.36388188648846 271.2121212121212,346.5762155892001 266.16161616161617,349.1777362198686 261.1111111111111,350.66029353764344 256.06060606060606,353.6795430220721 251.010101010101,355.32909416291733 245.95959595959596,357.7814604012141 240.9090909090909,360.3214475016053 235.85858585858585,362.9563145477271 230.8080808080808,365.35591283189996 225.75757575757575,367.8466277387966 220.7070707070707,369.9565141337499 215.65656565656565,373.29230736061385 210.6060606060606,375.0971086627818 205.55555555555554,377.08538795711047 200.50505050505052,379.50023148023377 195.45454545454544,381.6070292746977 190.40404040404042,383.69435318133026 185.35353535353534,385.767478832229 180.3030303030303,388.8654265551162 175.25252525252526,390.9189794364353 170.2020202020202,393.0167382757947 165.15151515151516,395.3168673378036 160.1010101010101,397.3113819988453 155.05050505050505,399.10051926877605 150,399.99992438454547 "/><text class="poloto_text" alignment-baseline="middle" text-anchor="start" font-size="large" x="675" y="200">direct_par</text><line class="poloto2stroke" stroke="black" x1="680" x2="730" y1="181.25" y2="181.25"/><polyline class="poloto2stroke" fill="none" stroke="black" points="650,255.2682275997262 644.9494949494949,308.83629793094013 639.8989898989898,309.85907838565583 634.8484848484848,311.281503967349 629.7979797979798,311.6335986065661 624.7474747474747,312.0027183562022 619.6969696969697,313.3348067360108 614.6464646464647,315.24157838691605 609.5959595959596,315.5619261683722 604.5454545454545,315.85430786479446 599.4949494949494,316.98868509726805 594.4444444444445,317.29512545166176 589.3939393939394,317.73012371192465 584.3434343434344,319.87126837247115 579.2929292929293,320.4294849241978 574.2424242424242,322.55631499754213 569.1919191919192,322.06048119581305 564.1414141414141,323.33013447646323 559.090909090909,324.2835348433494 554.040404040404,324.98064535192384 548.989898989899,324.74284638053444 543.939393939394,326.32992752278074 538.8888888888889,327.13616858198026 533.8383838383838,328.35922529291196 528.7878787878788,328.3978589736098 523.7373737373737,328.90761765212153 518.6868686868687,329.43417459468856 513.6363636363636,330.911392298058 508.5858585858586,331.6409360200577 503.5353535353535,331.6503705021553 498.4848484848485,333.29412251929443 493.4343434343434,333.72855075536154 488.3838383838384,334.9171326355953 483.3333333333333,335.8153860698263 478.2828282828283,335.8535253417828 473.2323232323232,336.42402649658595 468.1818181818182,337.1108242204754 463.1313131313131,338.4579542591646 458.0808080808081,339.78284172107135 453.030303030303,339.8741444741447 447.979797979798,340.0040111090348 442.9292929292929,340.8370723883033 437.8787878787879,342.05933222867554 432.8282828282828,340.6419030835556 427.77777777777777,343.20017749079926 422.72727272727275,344.25394283215707 417.67676767676767,345.3659029906455 412.62626262626264,345.85777570587123 407.57575757575756,346.1801360217329 402.52525252525254,347.7715854106224 397.47474747474746,347.5270217643381 392.4242424242424,349.4733868305565 387.37373737373736,349.0835949789632 382.32323232323233,350.2103059676609 377.27272727272725,350.6816985278524 372.22222222222223,351.696155465995 367.1717171717172,353.2731157704794 362.1212121212121,353.96330455667646 357.07070707070704,354.43734365777703 352.020202020202,355.9568943825434 346.969696969697,356.53989535363974 341.9191919191919,357.00777470348174 336.86868686868684,359.5545264787678 331.8181818181818,359.7909818216957 326.7676767676768,361.0316394838156 321.7171717171717,362.19522754803626 316.66666666666663,362.03370130398656 311.6161616161616,362.1482296347514 306.5656565656566,363.30662349890235 301.5151515151515,364.0730733792923 296.4646464646464,364.01838013936435 291.4141414141414,365.4173998295899 286.3636363636364,368.0062984959233 281.3131313131313,368.8052572051931 276.26262626262627,369.7212162889339 271.2121212121212,370.6599879736528 266.16161616161617,371.85830679780224 261.1111111111111,372.4765213044217 256.06060606060606,373.9003428637372 251.010101010101,374.086263816737 245.95959595959596,374.9846277658631 240.9090909090909,376.35227867560036 235.85858585858585,377.67390303981495 230.8080808080808,378.485553512301 225.75757575757575,379.26639941192116 220.7070707070707,380.0547196083942 215.65656565656565,379.4778667554095 210.6060606060606,381.1276738254855 205.55555555555554,381.5600720774268 200.50505050505052,383.19805405372705 195.45454545454544,384.85476539646015 190.40404040404042,386.02835796697417 185.35353535353534,387.6570741418063 180.3030303030303,389.4481425141146 175.25252525252526,391.43002357767426 170.2020202020202,393.41733732081417 165.15151515151516,395.62087636450514 160.1010101010101,397.47400175869916 155.05050505050505,399.17334276807395 150,399.999604473007 "/><text class="poloto_text" alignment-baseline="middle" text-anchor="start" font-size="large" x="675" y="250">direct_seq</text><line class="poloto3stroke" stroke="black" x1="680" x2="730" y1="231.25" y2="231.25"/><polyline class="poloto3stroke" fill="none" stroke="black" points="650,178.94027771191045 644.9494949494949,182.987618182593 639.8989898989898,184.87621304154092 634.8484848484848,187.14820152131313 629.7979797979798,189.34680229416512 624.7474747474747,191.5758062963166 619.6969696969697,193.69654060071008 614.6464646464647,195.5822446226651 609.5959595959596,197.01401743785445 604.5454545454545,199.09886348420736 599.4949494949494,201.10041038252152 594.4444444444445,204.53579497959137 589.3939393939394,205.8956167814968 584.3434343434344,208.96151518480474 579.2929292929293,211.10679542905737 574.2424242424242,213.3525278963831 569.1919191919192,215.32937180735553 564.1414141414141,217.83211538809783 559.090909090909,219.25372664951138 554.040404040404,221.7756765557075 548.989898989899,224.03945785037516 543.939393939394,226.26852583483438 538.8888888888889,228.5129670228594 533.8383838383838,230.55951674977322 528.7878787878788,232.05521370691815 523.7373737373737,234.61195253877725 518.6868686868687,236.5428746025487 513.6363636363636,237.84722956026044 508.5858585858586,240.6789527174236 503.5353535353535,243.00417447719377 498.4848484848485,245.32784902843252 493.4343434343434,247.7696989019744 488.3838383838384,249.80495865986768 483.3333333333333,252.0268082767048 478.2828282828283,253.92871727222558 473.2323232323232,256.70323442974063 468.1818181818182,258.89745532280256 463.1313131313131,261.7303650609447 458.0808080808081,263.9000865467349 453.030303030303,266.23749984440667 447.979797979798,268.6633366913058 442.9292929292929,269.6448369244147 437.8787878787879,272.56401226304297 432.8282828282828,274.80292188973954 427.77777777777777,276.7866351739285 422.72727272727275,284.3174574873434 417.67676767676767,286.5921041411715 412.62626262626264,289.01906358674194 407.57575757575756,290.35269335850853 402.52525252525254,292.8340668484824 397.47474747474746,294.7470564163804 392.4242424242424,297.47574479186926 387.37373737373736,297.8636578902458 382.32323232323233,300.1553878202271 377.27272727272725,301.953395364633 372.22222222222223,303.9253649870742 367.1717171717172,306.2507961434877 362.1212121212121,308.8297601024089 357.07070707070704,310.5764654691945 352.020202020202,312.5246511228953 346.969696969697,314.97980349986324 341.9191919191919,317.0377827935598 336.86868686868684,319.6558806584935 331.8181818181818,321.7859970958237 326.7676767676768,323.48985758275074 321.7171717171717,326.041373131673 316.66666666666663,327.6469335276948 311.6161616161616,328.96917444869257 306.5656565656566,331.5258143988034 301.5151515151515,333.9739054556318 296.4646464646464,335.93574842373766 291.4141414141414,338.4297031620328 286.3636363636364,344.51432755816097 281.3131313131313,346.54304948752304 276.26262626262627,348.63562575995957 271.2121212121212,350.75004908218546 266.16161616161617,353.11706292202393 261.1111111111111,354.7463723873455 256.06060606060606,356.88804053950037 251.010101010101,358.6691334883825 245.95959595959596,361.04894378975894 240.9090909090909,363.40719787001734 235.85858585858585,365.63129850077047 230.8080808080808,367.9127505455073 225.75757575757575,370.2994418532472 220.7070707070707,372.1980528516352 215.65656565656565,375.32162258046543 210.6060606060606,376.90816278138306 205.55555555555554,378.6346497389386 200.50505050505052,380.9368785839544 195.45454545454544,382.79237132353296 190.40404040404042,384.66660506269125 185.35353535353534,386.68662539820747 180.3030303030303,389.5736001863475 175.25252525252526,391.6132805400448 170.2020202020202,393.5168239926984 165.15151515151516,395.6217953831065 160.1010101010101,397.51962696065544 155.05050505050505,399.16923626723496 150,399.9998313193706 "/><text class="poloto_text" alignment-baseline="middle" text-anchor="start" font-size="large" x="675" y="300">indirect_par</text><line class="poloto4stroke" stroke="black" x1="680" x2="730" y1="281.25" y2="281.25"/><polyline class="poloto4stroke" fill="none" stroke="black" points="650,281.79622301967873 644.9494949494949,282.39520211797725 639.8989898989898,284.0712361176327 634.8484848484848,286.1976997468511 629.7979797979798,287.58047374749685 624.7474747474747,287.58966975008394 619.6969696969697,288.7932234903171 614.6464646464647,291.0872800496689 609.5959595959596,291.0634902643551 604.5454545454545,291.91758427313323 599.4949494949494,294.20578354304473 594.4444444444445,293.57017166530704 589.3939393939394,293.7242177959305 584.3434343434344,297.76183295584417 579.2929292929293,297.7878912047942 574.2424242424242,300.34171593336674 569.1919191919192,301.82304013757516 564.1414141414141,302.09011973959275 559.090909090909,302.9559457769719 554.040404040404,304.4024170732096 548.989898989899,305.0558392987787 543.939393939394,305.89386211517984 538.8888888888889,307.31906220239745 533.8383838383838,308.4055050532645 528.7878787878788,309.462417160846 523.7373737373737,309.6467501893004 518.6868686868687,310.7901605603051 513.6363636363636,311.82706947187336 508.5858585858586,312.6409825914223 503.5353535353535,313.38453262223265 498.4848484848485,315.52089605942274 493.4343434343434,316.8698117861538 488.3838383838384,317.57300643053213 483.3333333333333,317.9929513987677 478.2828282828283,318.9217127606198 473.2323232323232,320.05974861777855 468.1818181818182,320.9415585989333 463.1313131313131,322.47926866593673 458.0808080808081,324.010318756367 453.030303030303,323.73543331281115 447.979797979798,325.16579851723134 442.9292929292929,325.99673093062574 437.8787878787879,327.4556613271427 432.8282828282828,328.3389487179477 427.77777777777777,329.27446893812134 422.72727272727275,329.87636213970643 417.67676767676767,330.9873392972858 412.62626262626264,332.43396764100606 407.57575757575756,333.22395719405245 402.52525252525254,334.25741687757886 397.47474747474746,334.68713368917065 392.4242424242424,336.4953086039258 387.37373737373736,336.8238752036334 382.32323232323233,338.18365628952483 377.27272727272725,338.17134260358125 372.22222222222223,339.5801806697505 367.1717171717172,341.43695305548283 362.1212121212121,342.2057470149636 357.07070707070704,343.36171536799577 352.020202020202,344.9264666848583 346.969696969697,346.68456090241267 341.9191919191919,348.1369418372516 336.86868686868684,349.8109284030609 331.8181818181818,350.34587866108217 326.7676767676768,351.7430428643848 321.7171717171717,352.9500341995129 316.66666666666663,353.1013698069196 311.6161616161616,352.8155666550426 306.5656565656566,354.7948302605604 301.5151515151515,356.39285819399504 296.4646464646464,356.70770931356327 291.4141414141414,357.97700778323446 286.3636363636364,360.3078948855219 281.3131313131313,361.7392838068651 276.26262626262627,362.73212054158193 271.2121212121212,364.16770321236555 266.16161616161617,365.7644980322338 261.1111111111111,366.523270035701 256.06060606060606,368.1347342537505 251.010101010101,368.6898680215612 245.95959595959596,369.95076154263126 240.9090909090909,371.98212419632887 235.85858585858585,373.0942006862859 230.8080808080808,374.41624384378713 225.75757575757575,375.7778397005876 220.7070707070707,376.8405451153017 215.65656565656565,375.863575992892 210.6060606060606,377.58928352960845 205.55555555555554,378.2806181807705 200.50505050505052,380.2333000457299 195.45454545454544,382.33787009257156 190.40404040404042,383.9414819364955 185.35353535353534,385.6928347454487 180.3030303030303,387.7537455921522 175.25252525252526,389.99090443024744 170.2020202020202,392.3669804914842 165.15151515151516,394.9196826213854 160.1010101010101,397.0545570157783 155.05050505050505,398.9993632403184 150,399.9998429525175 "/><text class="poloto_text" alignment-baseline="middle" text-anchor="start" font-size="large" x="675" y="350">indirect_seq</text><line class="poloto5stroke" stroke="black" x1="680" x2="730" y1="331.25" y2="331.25"/><polyline class="poloto5stroke" fill="none" stroke="black" points="650,100 644.9494949494949,106.59526719380074 639.8989898989898,108.55612134442413 634.8484848484848,112.44261029357449 629.7979797979798,115.26304348171709 624.7474747474747,118.5901932804694 619.6969696969697,121.06159134701716 614.6464646464647,123.6025730814643 609.5959595959596,126.47840331491943 604.5454545454545,129.04211040174334 599.4949494949494,131.37074649011475 594.4444444444445,135.9158809477711 589.3939393939394,138.8663669011534 584.3434343434344,142.87092647428517 579.2929292929293,145.69242991193823 574.2424242424242,148.58402305937878 569.1919191919192,151.81058685386932 564.1414141414141,154.59346242739798 559.090909090909,157.34676654162712 554.040404040404,160.5577128364679 548.989898989899,163.8604213936828 543.939393939394,166.741614507837 538.8888888888889,170.1196942235105 533.8383838383838,173.67600538211414 528.7878787878788,175.53277195127308 523.7373737373737,178.84058745995625 518.6868686868687,182.0893123992012 513.6363636363636,184.60314818546755 508.5858585858586,187.91102767645845 503.5353535353535,191.39432338884112 498.4848484848485,194.33626479586016 493.4343434343434,197.89352987250575 488.3838383838384,200.48954802471297 483.3333333333333,203.76532584696386 478.2828282828283,206.27779473847502 473.2323232323232,209.97174347406636 468.1818181818182,213.29355947498678 463.1313131313131,217.1620344962357 458.0808080808081,220.10168998989815 453.030303030303,223.43147469641266 447.979797979798,226.60525890363252 442.9292929292929,228.80461001445653 437.8787878787879,232.30977022634886 432.8282828282828,235.58322141922918 427.77777777777777,238.28786408017348 422.72727272727275,247.4016494018488 417.67676767676767,250.7977488619971 412.62626262626264,254.28668665060334 407.57575757575756,256.2540902629048 402.52525252525254,259.44388749676745 397.47474747474746,261.7672886690551 392.4242424242424,265.9962516449755 387.37373737373736,266.20331002580656 382.32323232323233,269.6156842584018 377.27272727272725,272.0563010183773 372.22222222222223,274.89057183470123 367.1717171717172,278.32376940016275 362.1212121212121,281.7009533635286 357.07070707070704,284.1419074847628 352.020202020202,287.2834271591867 346.969696969697,290.4112371700447 341.9191919191919,293.63552668432555 336.86868686868684,296.4941689433058 331.8181818181818,299.19058115285185 326.7676767676768,301.770772408766 321.7171717171717,305.0074279581512 316.66666666666663,307.5883986349045 311.6161616161616,309.1983854433038 306.5656565656566,312.65137099156175 301.5151515151515,316.0773036568138 296.4646464646464,318.5764176957381 291.4141414141414,322.0217311836467 286.3636363636364,328.754292776603 281.3131313131313,331.207781613571 276.26262626262627,334.41333012827215 271.2121212121212,337.19864866263987 266.16161616161617,340.5206624270568 261.1111111111111,342.7343746576704 256.06060606060606,346.07906724187666 251.010101010101,348.0482100096326 245.95959595959596,350.8599183376357 240.9090909090909,354.12899546729943 235.85858585858585,357.0479672258578 230.8080808080808,360.1527319728006 225.75757575757575,363.1244426026157 220.7070707070707,365.4947486230135 215.65656565656565,369.6035121090783 210.6060606060606,371.87047506941013 205.55555555555554,374.04404712680855 200.50505050505052,376.891463399076 195.45454545454544,379.3335168526878 190.40404040404042,381.7195508876304 185.35353535353534,384.35401659018584 180.3030303030303,387.5908524533473 175.25252525252526,389.9678242668917 170.2020202020202,392.3480068289674 165.15151515151516,394.86400056397497 160.1010101010101,397.06709754808554 155.05050505050505,398.9942911882907 150,400 "/><text class="poloto_text" alignment-baseline="start" text-anchor="middle" font-size="x-large" x="400" y="37.5">Bench of query:128_bytes with abspiral(num,0.01)</text><text class="poloto_text" alignment-baseline="start" text-anchor="middle" font-size="x-large" x="400" y="481.25">Number of Elements</text><text class="poloto_text" alignment-baseline="start" text-anchor="middle" font-size="x-large" transform="rotate(-90,37.5,250)" x="37.5" y="250">Time in Seconds</text><path stroke="black" fill="none" class="poloto_axis_lines" d=" M 150 100 L 150 400 L 650 400"/></svg>