<svg class="poloto" width="800" height="500" viewBox="0 0 800 500" xmlns="http://www.w3.org/2000/svg"><circle  r="1e5" class="poloto_background" /><text  class="poloto_text poloto_legend_text" x="675" y="100" >default_seq</text><line  class="poloto_scatter poloto_legend_icon poloto0stroke poloto0legend" stroke="black" x1="685" x2="685" y1="81.25" y2="81.25" /><path  class="poloto_scatter poloto0stroke" d=" M 650.00 148.41 h 0 M 644.95 102.26 h 0 M 639.90 133.32 h 0 M 634.85 159.13 h 0 M 629.80 143.57 h 0 M 624.75 154.45 h 0 M 619.70 169.26 h 0 M 614.65 171.77 h 0 M 609.60 177.72 h 0 M 604.55 155.29 h 0 M 599.49 180.45 h 0 M 594.44 186.69 h 0 M 589.39 184.70 h 0 M 584.34 182.13 h 0 M 579.29 192.48 h 0 M 574.24 197.56 h 0 M 569.19 180.07 h 0 M 564.14 205.07 h 0 M 559.09 207.87 h 0 M 554.04 187.20 h 0 M 548.99 206.19 h 0 M 543.94 215.28 h 0 M 538.89 211.29 h 0 M 533.84 222.53 h 0 M 528.79 224.55 h 0 M 523.74 227.75 h 0 M 518.69 230.34 h 0 M 513.64 233.15 h 0 M 508.59 234.39 h 0 M 503.54 237.87 h 0 M 498.48 222.69 h 0 M 493.43 239.30 h 0 M 488.38 233.49 h 0 M 483.33 249.73 h 0 M 478.28 251.06 h 0 M 473.23 254.44 h 0 M 468.18 258.35 h 0 M 463.13 258.27 h 0 M 458.08 252.94 h 0 M 453.03 265.05 h 0 M 447.98 265.89 h 0 M 442.93 270.34 h 0 M 437.88 273.76 h 0 M 432.83 270.32 h 0 M 427.78 276.81 h 0 M 422.73 271.50 h 0 M 417.68 283.72 h 0 M 412.63 277.67 h 0 M 407.58 280.89 h 0 M 402.53 282.98 h 0 M 397.47 292.46 h 0 M 392.42 293.24 h 0 M 387.37 289.34 h 0 M 382.32 293.24 h 0 M 377.27 288.42 h 0 M 372.22 299.17 h 0 M 367.17 302.36 h 0 M 362.12 304.29 h 0 M 357.07 306.03 h 0 M 352.02 312.81 h 0 M 346.97 312.15 h 0 M 341.92 306.74 h 0 M 336.87 313.71 h 0 M 331.82 298.17 h 0 M 326.77 318.74 h 0 M 321.72 321.56 h 0 M 316.67 320.67 h 0 M 311.62 330.32 h 0 M 306.57 329.49 h 0 M 301.52 333.70 h 0 M 296.46 335.39 h 0 M 291.41 329.46 h 0 M 286.36 330.40 h 0 M 281.31 329.74 h 0 M 276.26 336.57 h 0 M 271.21 338.74 h 0 M 266.16 342.45 h 0 M 261.11 344.58 h 0 M 256.06 341.81 h 0 M 251.01 347.47 h 0 M 245.96 354.17 h 0 M 240.91 358.37 h 0 M 235.86 359.10 h 0 M 230.81 360.45 h 0 M 225.76 365.89 h 0 M 220.71 368.03 h 0 M 215.66 370.91 h 0 M 210.61 373.79 h 0 M 205.56 375.02 h 0 M 200.51 378.30 h 0 M 195.45 380.72 h 0 M 190.40 383.02 h 0 M 185.35 385.71 h 0 M 180.30 384.25 h 0 M 175.25 387.99 h 0 M 170.20 391.19 h 0 M 165.15 393.32 h 0 M 160.10 395.95 h 0 M 155.05 397.98 h 0 M 150.00 400.00 h 0" /><text  class="poloto_text poloto_legend_text" x="675" y="150" >direct_seq</text><line  class="poloto_scatter poloto_legend_icon poloto1stroke poloto1legend" stroke="black" x1="685" x2="685" y1="131.25" y2="131.25" /><path  class="poloto_scatter poloto1stroke" d=" M 650.00 170.69 h 0 M 644.95 170.35 h 0 M 639.90 169.62 h 0 M 634.85 181.73 h 0 M 629.80 183.09 h 0 M 624.75 186.76 h 0 M 619.70 184.47 h 0 M 614.65 192.98 h 0 M 609.60 193.73 h 0 M 604.55 198.83 h 0 M 599.49 198.64 h 0 M 594.44 203.67 h 0 M 589.39 208.07 h 0 M 584.34 206.09 h 0 M 579.29 210.37 h 0 M 574.24 210.56 h 0 M 569.19 217.35 h 0 M 564.14 217.30 h 0 M 559.09 221.28 h 0 M 554.04 223.77 h 0 M 548.99 226.86 h 0 M 543.94 230.04 h 0 M 538.89 232.36 h 0 M 533.84 233.28 h 0 M 528.79 238.09 h 0 M 523.74 237.50 h 0 M 518.69 243.44 h 0 M 513.64 245.37 h 0 M 508.59 247.93 h 0 M 503.54 249.74 h 0 M 498.48 243.37 h 0 M 493.43 251.67 h 0 M 488.38 253.00 h 0 M 483.33 260.03 h 0 M 478.28 261.22 h 0 M 473.23 264.20 h 0 M 468.18 266.45 h 0 M 463.13 270.30 h 0 M 458.08 272.05 h 0 M 453.03 273.87 h 0 M 447.98 271.50 h 0 M 442.93 279.15 h 0 M 437.88 281.19 h 0 M 432.83 282.69 h 0 M 427.78 285.07 h 0 M 422.73 288.36 h 0 M 417.68 290.70 h 0 M 412.63 292.21 h 0 M 407.58 295.27 h 0 M 402.53 296.23 h 0 M 397.47 299.93 h 0 M 392.42 301.57 h 0 M 387.37 303.24 h 0 M 382.32 306.05 h 0 M 377.27 306.40 h 0 M 372.22 310.19 h 0 M 367.17 311.23 h 0 M 362.12 313.94 h 0 M 357.07 316.32 h 0 M 352.02 318.93 h 0 M 346.97 320.24 h 0 M 341.92 321.48 h 0 M 336.87 325.18 h 0 M 331.82 326.58 h 0 M 326.77 328.88 h 0 M 321.72 319.93 h 0 M 316.67 332.73 h 0 M 311.62 334.98 h 0 M 306.57 336.43 h 0 M 301.52 337.68 h 0 M 296.46 340.71 h 0 M 291.41 342.62 h 0 M 286.36 336.88 h 0 M 281.31 340.09 h 0 M 276.26 342.68 h 0 M 271.21 345.82 h 0 M 266.16 344.37 h 0 M 261.11 350.39 h 0 M 256.06 352.59 h 0 M 251.01 354.53 h 0 M 245.96 357.69 h 0 M 240.91 360.31 h 0 M 235.86 363.28 h 0 M 230.81 366.05 h 0 M 225.76 368.03 h 0 M 220.71 370.60 h 0 M 215.66 372.95 h 0 M 210.61 372.85 h 0 M 205.56 377.60 h 0 M 200.51 378.48 h 0 M 195.45 380.65 h 0 M 190.40 382.83 h 0 M 185.35 384.91 h 0 M 180.30 386.19 h 0 M 175.25 389.08 h 0 M 170.20 391.25 h 0 M 165.15 393.95 h 0 M 160.10 395.55 h 0 M 155.05 397.99 h 0 M 150.00 400.00 h 0" /><text  class="poloto_text poloto_legend_text" x="675" y="200" >indirect_seq</text><line  class="poloto_scatter poloto_legend_icon poloto2stroke poloto2legend" stroke="black" x1="685" x2="685" y1="181.25" y2="181.25" /><path  class="poloto_scatter poloto2stroke" d=" M 650.00 121.04 h 0 M 644.95 115.24 h 0 M 639.90 109.66 h 0 M 634.85 144.34 h 0 M 629.80 150.08 h 0 M 624.75 100.00 h 0 M 619.70 132.51 h 0 M 614.65 141.09 h 0 M 609.60 142.71 h 0 M 604.55 158.05 h 0 M 599.49 166.61 h 0 M 594.44 174.42 h 0 M 589.39 160.15 h 0 M 584.34 163.18 h 0 M 579.29 182.30 h 0 M 574.24 172.01 h 0 M 569.19 171.38 h 0 M 564.14 187.45 h 0 M 559.09 182.70 h 0 M 554.04 182.65 h 0 M 548.99 183.88 h 0 M 543.94 185.93 h 0 M 538.89 207.99 h 0 M 533.84 200.03 h 0 M 528.79 215.09 h 0 M 523.74 200.56 h 0 M 518.69 219.56 h 0 M 513.64 224.63 h 0 M 508.59 211.39 h 0 M 503.54 223.86 h 0 M 498.48 217.04 h 0 M 493.43 221.33 h 0 M 488.38 214.50 h 0 M 483.33 225.02 h 0 M 478.28 243.89 h 0 M 473.23 245.83 h 0 M 468.18 249.44 h 0 M 463.13 243.65 h 0 M 458.08 237.10 h 0 M 453.03 245.63 h 0 M 447.98 246.93 h 0 M 442.93 239.13 h 0 M 437.88 265.57 h 0 M 432.83 268.11 h 0 M 427.78 247.34 h 0 M 422.73 252.76 h 0 M 417.68 254.38 h 0 M 412.63 266.85 h 0 M 407.58 272.60 h 0 M 402.53 280.36 h 0 M 397.47 277.12 h 0 M 392.42 289.57 h 0 M 387.37 291.58 h 0 M 382.32 286.33 h 0 M 377.27 296.68 h 0 M 372.22 283.01 h 0 M 367.17 302.52 h 0 M 362.12 289.03 h 0 M 357.07 300.04 h 0 M 352.02 306.65 h 0 M 346.97 306.19 h 0 M 341.92 314.84 h 0 M 336.87 309.55 h 0 M 331.82 311.86 h 0 M 326.77 306.76 h 0 M 321.72 303.94 h 0 M 316.67 314.15 h 0 M 311.62 325.14 h 0 M 306.57 329.82 h 0 M 301.52 324.56 h 0 M 296.46 325.99 h 0 M 291.41 334.77 h 0 M 286.36 327.09 h 0 M 281.31 330.96 h 0 M 276.26 330.31 h 0 M 271.21 337.29 h 0 M 266.16 340.38 h 0 M 261.11 337.68 h 0 M 256.06 345.88 h 0 M 251.01 349.10 h 0 M 245.96 348.15 h 0 M 240.91 356.21 h 0 M 235.86 355.73 h 0 M 230.81 360.56 h 0 M 225.76 364.21 h 0 M 220.71 364.53 h 0 M 215.66 367.84 h 0 M 210.61 368.26 h 0 M 205.56 374.88 h 0 M 200.51 375.06 h 0 M 195.45 379.14 h 0 M 190.40 379.99 h 0 M 185.35 382.26 h 0 M 180.30 384.06 h 0 M 175.25 387.75 h 0 M 170.20 389.69 h 0 M 165.15 392.93 h 0 M 160.10 395.38 h 0 M 155.05 397.74 h 0 M 150.00 400.00 h 0" /><text  class="poloto_labels poloto_text poloto_title" x="400" y="37.5" >Bench of query:128_bytes with abspiral(num,1.5)</text><text  class="poloto_labels poloto_text poloto_xname" x="400" y="481.25" >Number of Elements</text><text  class="poloto_labels poloto_text poloto_yname" transform="rotate(-90,37.5,250)" x="37.5" y="250" >Time in Seconds</text><text  class="poloto_tick_labels poloto_text" dominant-baseline="middle" text-anchor="start" x="150" y="70" ></text><line  class="poloto_axis_lines" stroke="black" x1="150" x2="144" y1="400" y2="400" /><text  class="poloto_tick_labels poloto_text" dominant-baseline="middle" text-anchor="end" x="135" y="400" >0e0</text><line  class="poloto_axis_lines" stroke="black" x1="150" x2="144" y1="337.1488190263095" y2="337.1488190263095" /><text  class="poloto_tick_labels poloto_text" dominant-baseline="middle" text-anchor="end" x="135" y="337.1488190263095" >0.001</text><line  class="poloto_axis_lines" stroke="black" x1="150" x2="144" y1="274.29763805261905" y2="274.29763805261905" /><text  class="poloto_tick_labels poloto_text" dominant-baseline="middle" text-anchor="end" x="135" y="274.29763805261905" >0.002</text><line  class="poloto_axis_lines" stroke="black" x1="150" x2="144" y1="211.44645707892852" y2="211.44645707892852" /><text  class="poloto_tick_labels poloto_text" dominant-baseline="middle" text-anchor="end" x="135" y="211.44645707892852" >0.003</text><line  class="poloto_axis_lines" stroke="black" x1="150" x2="144" y1="148.59527610523804" y2="148.59527610523804" /><text  class="poloto_tick_labels poloto_text" dominant-baseline="middle" text-anchor="end" x="135" y="148.59527610523804" >0.004</text><text  class="poloto_tick_labels poloto_text" dominant-baseline="middle" text-anchor="start" x="440.00000000000006" y="70" ></text><line  class="poloto_axis_lines" stroke="black" x1="150" x2="150" y1="400" y2="405" /><text  class="poloto_tick_labels poloto_text" dominant-baseline="start" text-anchor="middle" x="150" y="430" >0</text><line  class="poloto_axis_lines" stroke="black" x1="234.17508417508418" x2="234.17508417508418" y1="400" y2="405" /><text  class="poloto_tick_labels poloto_text" dominant-baseline="start" text-anchor="middle" x="234.17508417508418" y="430" >5000</text><line  class="poloto_axis_lines" stroke="black" x1="318.35016835016836" x2="318.35016835016836" y1="400" y2="405" /><text  class="poloto_tick_labels poloto_text" dominant-baseline="start" text-anchor="middle" x="318.35016835016836" y="430" >10000</text><line  class="poloto_axis_lines" stroke="black" x1="402.52525252525254" x2="402.52525252525254" y1="400" y2="405" /><text  class="poloto_tick_labels poloto_text" dominant-baseline="start" text-anchor="middle" x="402.52525252525254" y="430" >15000</text><line  class="poloto_axis_lines" stroke="black" x1="486.7003367003367" x2="486.7003367003367" y1="400" y2="405" /><text  class="poloto_tick_labels poloto_text" dominant-baseline="start" text-anchor="middle" x="486.7003367003367" y="430" >20000</text><line  class="poloto_axis_lines" stroke="black" x1="570.8754208754208" x2="570.8754208754208" y1="400" y2="405" /><text  class="poloto_tick_labels poloto_text" dominant-baseline="start" text-anchor="middle" x="570.8754208754208" y="430" >25000</text><path  stroke="black" fill="none" class="poloto_axis_lines" style="stroke-dasharray:8.417508417508419;stroke-dashoffset:-0;" d=" M 150 400 L 650 400" /><path  stroke="black" fill="none" class="poloto_axis_lines" style="stroke-dasharray:6.285118097369049;stroke-dashoffset:-0;" d=" M 150 400 L 150 100" /></svg>