<svg class="poloto" width="800" height="500" viewBox="0 0 800 500" xmlns="http://www.w3.org/2000/svg"><circle  r="1e5" class="poloto_background" /><text  class="poloto_text poloto_legend_text" x="675" y="100" >default_seq</text><line  class="poloto_scatter poloto_legend_icon poloto0stroke poloto0legend" stroke="black" x1="685" x2="685" y1="81.25" y2="81.25" /><path  class="poloto_scatter poloto0stroke" d=" M 650.00 135.58 h 0 M 644.95 100.00 h 0 M 639.90 163.79 h 0 M 634.85 168.00 h 0 M 629.80 161.18 h 0 M 624.75 173.55 h 0 M 619.70 175.18 h 0 M 614.65 169.94 h 0 M 609.60 182.11 h 0 M 604.55 187.98 h 0 M 599.49 190.40 h 0 M 594.44 192.28 h 0 M 589.39 197.10 h 0 M 584.34 197.89 h 0 M 579.29 188.07 h 0 M 574.24 199.58 h 0 M 569.19 207.91 h 0 M 564.14 191.49 h 0 M 559.09 205.58 h 0 M 554.04 214.90 h 0 M 548.99 205.15 h 0 M 543.94 220.43 h 0 M 538.89 223.68 h 0 M 533.84 214.34 h 0 M 528.79 228.96 h 0 M 523.74 219.08 h 0 M 518.69 233.98 h 0 M 513.64 228.32 h 0 M 508.59 227.13 h 0 M 503.54 228.07 h 0 M 498.48 244.24 h 0 M 493.43 246.05 h 0 M 488.38 248.95 h 0 M 483.33 252.12 h 0 M 478.28 247.15 h 0 M 473.23 246.53 h 0 M 468.18 251.04 h 0 M 463.13 261.16 h 0 M 458.08 264.53 h 0 M 453.03 257.43 h 0 M 447.98 265.84 h 0 M 442.93 264.18 h 0 M 437.88 267.72 h 0 M 432.83 277.52 h 0 M 427.78 279.11 h 0 M 422.73 281.08 h 0 M 417.68 277.32 h 0 M 412.63 280.98 h 0 M 407.58 282.72 h 0 M 402.53 290.46 h 0 M 397.47 290.03 h 0 M 392.42 295.46 h 0 M 387.37 290.16 h 0 M 382.32 289.24 h 0 M 377.27 297.18 h 0 M 372.22 300.47 h 0 M 367.17 305.27 h 0 M 362.12 306.81 h 0 M 357.07 305.84 h 0 M 352.02 299.49 h 0 M 346.97 306.86 h 0 M 341.92 311.81 h 0 M 336.87 316.58 h 0 M 331.82 319.37 h 0 M 326.77 324.25 h 0 M 321.72 323.81 h 0 M 316.67 325.84 h 0 M 311.62 327.80 h 0 M 306.57 325.29 h 0 M 301.52 335.68 h 0 M 296.46 334.76 h 0 M 291.41 337.43 h 0 M 286.36 333.06 h 0 M 281.31 336.48 h 0 M 276.26 336.18 h 0 M 271.21 341.75 h 0 M 266.16 342.29 h 0 M 261.11 346.24 h 0 M 256.06 347.15 h 0 M 251.01 350.07 h 0 M 245.96 355.91 h 0 M 240.91 357.78 h 0 M 235.86 358.47 h 0 M 230.81 363.79 h 0 M 225.76 366.10 h 0 M 220.71 367.34 h 0 M 215.66 369.84 h 0 M 210.61 373.92 h 0 M 205.56 374.04 h 0 M 200.51 378.35 h 0 M 195.45 379.51 h 0 M 190.40 382.39 h 0 M 185.35 385.58 h 0 M 180.30 386.18 h 0 M 175.25 388.02 h 0 M 170.20 390.91 h 0 M 165.15 393.22 h 0 M 160.10 395.80 h 0 M 155.05 397.92 h 0 M 150.00 400.00 h 0" /><text  class="poloto_text poloto_legend_text" x="675" y="150" >direct_seq</text><line  class="poloto_scatter poloto_legend_icon poloto1stroke poloto1legend" stroke="black" x1="685" x2="685" y1="131.25" y2="131.25" /><path  class="poloto_scatter poloto1stroke" d=" M 650.00 175.22 h 0 M 644.95 179.41 h 0 M 639.90 158.68 h 0 M 634.85 183.71 h 0 M 629.80 173.65 h 0 M 624.75 176.56 h 0 M 619.70 193.06 h 0 M 614.65 194.24 h 0 M 609.60 186.15 h 0 M 604.55 200.47 h 0 M 599.49 203.98 h 0 M 594.44 204.31 h 0 M 589.39 208.27 h 0 M 584.34 212.17 h 0 M 579.29 213.95 h 0 M 574.24 217.40 h 0 M 569.19 217.92 h 0 M 564.14 210.44 h 0 M 559.09 223.70 h 0 M 554.04 223.21 h 0 M 548.99 205.39 h 0 M 543.94 221.49 h 0 M 538.89 235.10 h 0 M 533.84 226.14 h 0 M 528.79 232.05 h 0 M 523.74 242.26 h 0 M 518.69 233.67 h 0 M 513.64 240.63 h 0 M 508.59 240.90 h 0 M 503.54 244.89 h 0 M 498.48 254.42 h 0 M 493.43 256.38 h 0 M 488.38 249.61 h 0 M 483.33 260.68 h 0 M 478.28 261.47 h 0 M 473.23 264.83 h 0 M 468.18 268.01 h 0 M 463.13 264.36 h 0 M 458.08 272.51 h 0 M 453.03 275.41 h 0 M 447.98 270.08 h 0 M 442.93 274.24 h 0 M 437.88 279.62 h 0 M 432.83 284.09 h 0 M 427.78 286.81 h 0 M 422.73 288.16 h 0 M 417.68 291.41 h 0 M 412.63 289.21 h 0 M 407.58 289.71 h 0 M 402.53 297.67 h 0 M 397.47 299.12 h 0 M 392.42 302.81 h 0 M 387.37 292.75 h 0 M 382.32 303.31 h 0 M 377.27 308.05 h 0 M 372.22 310.82 h 0 M 367.17 308.86 h 0 M 362.12 312.67 h 0 M 357.07 305.98 h 0 M 352.02 316.70 h 0 M 346.97 318.54 h 0 M 341.92 323.20 h 0 M 336.87 324.81 h 0 M 331.82 325.56 h 0 M 326.77 326.66 h 0 M 321.72 330.48 h 0 M 316.67 330.51 h 0 M 311.62 332.70 h 0 M 306.57 335.67 h 0 M 301.52 339.84 h 0 M 296.46 338.80 h 0 M 291.41 337.84 h 0 M 286.36 337.14 h 0 M 281.31 340.03 h 0 M 276.26 340.35 h 0 M 271.21 344.25 h 0 M 266.16 348.93 h 0 M 261.11 349.81 h 0 M 256.06 353.59 h 0 M 251.01 356.25 h 0 M 245.96 359.27 h 0 M 240.91 360.80 h 0 M 235.86 361.32 h 0 M 230.81 366.40 h 0 M 225.76 368.95 h 0 M 220.71 370.40 h 0 M 215.66 373.63 h 0 M 210.61 375.38 h 0 M 205.56 375.91 h 0 M 200.51 380.32 h 0 M 195.45 380.28 h 0 M 190.40 381.85 h 0 M 185.35 385.95 h 0 M 180.30 385.84 h 0 M 175.25 389.25 h 0 M 170.20 391.64 h 0 M 165.15 394.38 h 0 M 160.10 396.39 h 0 M 155.05 398.20 h 0 M 150.00 400.00 h 0" /><text  class="poloto_text poloto_legend_text" x="675" y="200" >indirect_seq</text><line  class="poloto_scatter poloto_legend_icon poloto2stroke poloto2legend" stroke="black" x1="685" x2="685" y1="181.25" y2="181.25" /><path  class="poloto_scatter poloto2stroke" d=" M 650.00 133.11 h 0 M 644.95 147.63 h 0 M 639.90 142.49 h 0 M 634.85 150.31 h 0 M 629.80 162.88 h 0 M 624.75 144.86 h 0 M 619.70 166.59 h 0 M 614.65 156.91 h 0 M 609.60 144.62 h 0 M 604.55 175.59 h 0 M 599.49 179.92 h 0 M 594.44 183.17 h 0 M 589.39 186.32 h 0 M 584.34 189.67 h 0 M 579.29 190.51 h 0 M 574.24 177.11 h 0 M 569.19 198.09 h 0 M 564.14 190.33 h 0 M 559.09 200.39 h 0 M 554.04 204.77 h 0 M 548.99 198.09 h 0 M 543.94 210.04 h 0 M 538.89 215.85 h 0 M 533.84 211.31 h 0 M 528.79 203.81 h 0 M 523.74 223.75 h 0 M 518.69 210.27 h 0 M 513.64 230.52 h 0 M 508.59 217.20 h 0 M 503.54 213.69 h 0 M 498.48 237.52 h 0 M 493.43 240.65 h 0 M 488.38 228.04 h 0 M 483.33 245.28 h 0 M 478.28 236.75 h 0 M 473.23 239.18 h 0 M 468.18 250.27 h 0 M 463.13 244.97 h 0 M 458.08 259.93 h 0 M 453.03 253.45 h 0 M 447.98 263.12 h 0 M 442.93 255.03 h 0 M 437.88 259.63 h 0 M 432.83 269.19 h 0 M 427.78 272.76 h 0 M 422.73 276.80 h 0 M 417.68 279.43 h 0 M 412.63 272.75 h 0 M 407.58 281.26 h 0 M 402.53 285.99 h 0 M 397.47 288.97 h 0 M 392.42 283.18 h 0 M 387.37 278.51 h 0 M 382.32 292.65 h 0 M 377.27 291.48 h 0 M 372.22 295.51 h 0 M 367.17 295.63 h 0 M 362.12 294.66 h 0 M 357.07 302.11 h 0 M 352.02 305.94 h 0 M 346.97 313.41 h 0 M 341.92 310.93 h 0 M 336.87 308.25 h 0 M 331.82 314.91 h 0 M 326.77 320.88 h 0 M 321.72 320.75 h 0 M 316.67 322.94 h 0 M 311.62 325.21 h 0 M 306.57 327.80 h 0 M 301.52 331.06 h 0 M 296.46 329.26 h 0 M 291.41 338.50 h 0 M 286.36 329.43 h 0 M 281.31 332.97 h 0 M 276.26 337.46 h 0 M 271.21 339.42 h 0 M 266.16 343.85 h 0 M 261.11 343.92 h 0 M 256.06 348.36 h 0 M 251.01 351.85 h 0 M 245.96 353.91 h 0 M 240.91 357.34 h 0 M 235.86 359.43 h 0 M 230.81 359.38 h 0 M 225.76 362.67 h 0 M 220.71 366.68 h 0 M 215.66 370.52 h 0 M 210.61 370.55 h 0 M 205.56 375.49 h 0 M 200.51 376.65 h 0 M 195.45 379.88 h 0 M 190.40 383.18 h 0 M 185.35 383.47 h 0 M 180.30 384.32 h 0 M 175.25 387.78 h 0 M 170.20 390.91 h 0 M 165.15 393.45 h 0 M 160.10 395.84 h 0 M 155.05 397.91 h 0 M 150.00 399.99 h 0" /><text  class="poloto_labels poloto_text poloto_title" x="400" y="37.5" >Bench of query:16_bytes with abspiral(num,1.5)</text><text  class="poloto_labels poloto_text poloto_xname" x="400" y="481.25" >Number of Elements</text><text  class="poloto_labels poloto_text poloto_yname" transform="rotate(-90,37.5,250)" x="37.5" y="250" >Time in Seconds</text><text  class="poloto_tick_labels poloto_text" dominant-baseline="middle" text-anchor="start" x="150" y="70" ></text><line  class="poloto_axis_lines" stroke="black" x1="150" x2="144" y1="400" y2="400" /><text  class="poloto_tick_labels poloto_text" dominant-baseline="middle" text-anchor="end" x="135" y="400" >0e0</text><line  class="poloto_axis_lines" stroke="black" x1="150" x2="144" y1="339.4766546326082" y2="339.4766546326082" /><text  class="poloto_tick_labels poloto_text" dominant-baseline="middle" text-anchor="end" x="135" y="339.4766546326082" >0.001</text><line  class="poloto_axis_lines" stroke="black" x1="150" x2="144" y1="278.9533092652163" y2="278.9533092652163" /><text  class="poloto_tick_labels poloto_text" dominant-baseline="middle" text-anchor="end" x="135" y="278.9533092652163" >0.002</text><line  class="poloto_axis_lines" stroke="black" x1="150" x2="144" y1="218.4299638978245" y2="218.4299638978245" /><text  class="poloto_tick_labels poloto_text" dominant-baseline="middle" text-anchor="end" x="135" y="218.4299638978245" >0.003</text><line  class="poloto_axis_lines" stroke="black" x1="150" x2="144" y1="157.90661853043264" y2="157.90661853043264" /><text  class="poloto_tick_labels poloto_text" dominant-baseline="middle" text-anchor="end" x="135" y="157.90661853043264" >0.004</text><text  class="poloto_tick_labels poloto_text" dominant-baseline="middle" text-anchor="start" x="440.00000000000006" y="70" ></text><line  class="poloto_axis_lines" stroke="black" x1="150" x2="150" y1="400" y2="405" /><text  class="poloto_tick_labels poloto_text" dominant-baseline="start" text-anchor="middle" x="150" y="430" >0</text><line  class="poloto_axis_lines" stroke="black" x1="234.17508417508418" x2="234.17508417508418" y1="400" y2="405" /><text  class="poloto_tick_labels poloto_text" dominant-baseline="start" text-anchor="middle" x="234.17508417508418" y="430" >5000</text><line  class="poloto_axis_lines" stroke="black" x1="318.35016835016836" x2="318.35016835016836" y1="400" y2="405" /><text  class="poloto_tick_labels poloto_text" dominant-baseline="start" text-anchor="middle" x="318.35016835016836" y="430" >10000</text><line  class="poloto_axis_lines" stroke="black" x1="402.52525252525254" x2="402.52525252525254" y1="400" y2="405" /><text  class="poloto_tick_labels poloto_text" dominant-baseline="start" text-anchor="middle" x="402.52525252525254" y="430" >15000</text><line  class="poloto_axis_lines" stroke="black" x1="486.7003367003367" x2="486.7003367003367" y1="400" y2="405" /><text  class="poloto_tick_labels poloto_text" dominant-baseline="start" text-anchor="middle" x="486.7003367003367" y="430" >20000</text><line  class="poloto_axis_lines" stroke="black" x1="570.8754208754208" x2="570.8754208754208" y1="400" y2="405" /><text  class="poloto_tick_labels poloto_text" dominant-baseline="start" text-anchor="middle" x="570.8754208754208" y="430" >25000</text><path  stroke="black" fill="none" class="poloto_axis_lines" style="stroke-dasharray:8.417508417508419;stroke-dashoffset:-0;" d=" M 150 400 L 650 400" /><path  stroke="black" fill="none" class="poloto_axis_lines" style="stroke-dasharray:6.052334536739183;stroke-dashoffset:-0;" d=" M 150 400 L 150 100" /></svg>