<svg class="poloto" width="800" height="500" viewBox="0 0 800 500" xmlns="http://www.w3.org/2000/svg"><style>.poloto {
                    font-family: "Arial";
                    stroke-width:2;
                    }
                    .poloto_text{fill: var(--poloto_fg_color,black);  }
                    .poloto_axis_lines{stroke: var(--poloto_fg_color,black);stoke-width:3;fill:none}
                    .poloto_background{fill: var(--poloto_bg_color,aliceblue); }
                    .poloto0stroke{stroke:  var(--poloto_color0,blue); }
                    .poloto1stroke{stroke:  var(--poloto_color1,red); }
                    .poloto2stroke{stroke:  var(--poloto_color2,green); }
                    .poloto3stroke{stroke:  var(--poloto_color3,gold); }
                    .poloto4stroke{stroke:  var(--poloto_color4,aqua); }
                    .poloto5stroke{stroke:  var(--poloto_color5,brown); }
                    .poloto6stroke{stroke:  var(--poloto_color6,lime); }
                    .poloto7stroke{stroke:  var(--poloto_color7,chocolate); }
                    .poloto0fill{fill:var(--poloto_color0,blue);}
                    .poloto1fill{fill:var(--poloto_color1,red);}
                    .poloto2fill{fill:var(--poloto_color2,green);}
                    .poloto3fill{fill:var(--poloto_color3,gold);}
                    .poloto4fill{fill:var(--poloto_color4,aqua);}
                    .poloto5fill{fill:var(--poloto_color5,brown);}
                    .poloto6fill{fill:var(--poloto_color6,lime);}
                    .poloto7fill{fill:var(--poloto_color7,chocolate);}</style><rect class="poloto_background" fill="white" x="0" y="0" width="800" height="500"/><line class="poloto_axis_lines" stroke="black" x1="150" x2="150" y1="400" y2="405"/><text class="poloto_text" alignment-baseline="start" text-anchor="middle" x="150" y="430">0</text><line class="poloto_axis_lines" stroke="black" x1="234.17508417508418" x2="234.17508417508418" y1="400" y2="405"/><text class="poloto_text" alignment-baseline="start" text-anchor="middle" x="234.17508417508418" y="430">5000</text><line class="poloto_axis_lines" stroke="black" x1="318.35016835016836" x2="318.35016835016836" y1="400" y2="405"/><text class="poloto_text" alignment-baseline="start" text-anchor="middle" x="318.35016835016836" y="430">10000</text><line class="poloto_axis_lines" stroke="black" x1="402.52525252525254" x2="402.52525252525254" y1="400" y2="405"/><text class="poloto_text" alignment-baseline="start" text-anchor="middle" x="402.52525252525254" y="430">15000</text><line class="poloto_axis_lines" stroke="black" x1="486.7003367003367" x2="486.7003367003367" y1="400" y2="405"/><text class="poloto_text" alignment-baseline="start" text-anchor="middle" x="486.7003367003367" y="430">20000</text><line class="poloto_axis_lines" stroke="black" x1="570.8754208754208" x2="570.8754208754208" y1="400" y2="405"/><text class="poloto_text" alignment-baseline="start" text-anchor="middle" x="570.8754208754208" y="430">25000</text><line class="poloto_axis_lines" stroke="black" x1="150" x2="144" y1="351.51624179376165" y2="351.51624179376165"/><text class="poloto_text" alignment-baseline="middle" text-anchor="end" x="135" y="351.51624179376165">0.001</text><line class="poloto_axis_lines" stroke="black" x1="150" x2="144" y1="303.0267618288874" y2="303.0267618288874"/><text class="poloto_text" alignment-baseline="middle" text-anchor="end" x="135" y="303.0267618288874">0.002</text><line class="poloto_axis_lines" stroke="black" x1="150" x2="144" y1="254.53728186401315" y2="254.53728186401315"/><text class="poloto_text" alignment-baseline="middle" text-anchor="end" x="135" y="254.53728186401315">0.003</text><line class="poloto_axis_lines" stroke="black" x1="150" x2="144" y1="206.04780189913902" y2="206.04780189913902"/><text class="poloto_text" alignment-baseline="middle" text-anchor="end" x="135" y="206.04780189913902">0.004</text><line class="poloto_axis_lines" stroke="black" x1="150" x2="144" y1="157.55832193426477" y2="157.55832193426477"/><text class="poloto_text" alignment-baseline="middle" text-anchor="end" x="135" y="157.55832193426477">0.005</text><line class="poloto_axis_lines" stroke="black" x1="150" x2="144" y1="109.06884196939058" y2="109.06884196939058"/><text class="poloto_text" alignment-baseline="middle" text-anchor="end" x="135" y="109.06884196939058">0.006</text><text class="poloto_text" alignment-baseline="middle" text-anchor="start" font-size="large" x="675" y="100">default_par</text><line class="poloto0stroke" stroke="black" x1="680" x2="730" y1="81.25" y2="81.25"/><polyline class="poloto0stroke" fill="none" stroke="black" points="650,311.2091191255601 644.9494949494949,320.44447396915 639.8989898989898,316.31467345002164 634.8484848484848,319.87874720639985 629.7979797979798,302.15991539555534 624.7474747474747,323.34904230852595 619.6969696969697,320.1803032823014 614.6464646464647,327.74121940374425 609.5959595959596,321.5683631357759 604.5454545454545,322.9782432552346 599.4949494949494,328.43481292516185 594.4444444444445,327.6050609440029 589.3939393939394,329.34559082734205 584.3434343434344,329.1500327546437 579.2929292929293,325.4289500621393 574.2424242424242,331.20162265195756 569.1919191919192,326.82952020144467 564.1414141414141,335.3779730718522 559.090909090909,332.98763566750375 554.040404040404,332.76996639194147 548.989898989899,338.15889323731767 543.939393939394,331.1943977194428 538.8888888888889,332.75173434747467 533.8383838383838,332.0861192559968 528.7878787878788,338.5694051747003 523.7373737373737,337.42224105769134 518.6868686868687,336.6381661666593 513.6363636363636,334.51840006051486 508.5858585858586,339.392611076064 503.5353535353535,341.81175123151155 498.4848484848485,341.2308957510123 493.4343434343434,344.9078045272688 488.3838383838384,346.9841240593647 483.3333333333333,345.10418692112654 478.2828282828283,344.4176243743039 473.2323232323232,349.52754275196224 468.1818181818182,346.90668635986077 463.1313131313131,348.7942848359334 458.0808080808081,347.50383430562823 453.030303030303,352.0910845787452 447.979797979798,348.33930804542297 442.9292929292929,349.0089477637379 437.8787878787879,352.5171131497166 432.8282828282828,346.4671777134592 427.77777777777777,347.4450650559108 422.72727272727275,349.4199445959202 417.67676767676767,351.01102990200764 412.62626262626264,351.1519888202655 407.57575757575756,353.4114046287088 402.52525252525254,349.6572521108683 397.47474747474746,355.87675525856287 392.4242424242424,355.99026913116063 387.37373737373736,356.0279454570934 382.32323232323233,356.9100660766143 377.27272727272725,354.1533906511313 372.22222222222223,355.1026692004036 367.1717171717172,356.4946567017553 362.1212121212121,357.0481641155543 357.07070707070704,356.0731861419006 352.020202020202,358.9280527643125 346.969696969697,358.2079354973542 341.9191919191919,358.98793727206913 336.86868686868684,356.8928523112268 331.8181818181818,360.30985747487154 326.7676767676768,362.59434234445666 321.7171717171717,361.9154896249484 316.66666666666663,366.3955296578631 311.6161616161616,363.03676035965617 306.5656565656566,359.679736682728 301.5151515151515,368.5299395869569 296.4646464646464,367.50094433262234 291.4141414141414,369.2193145236175 286.3636363636364,367.6654691381431 281.3131313131313,377.49559594298216 276.26262626262627,373.59035020557116 271.2121212121212,367.69514469988167 266.16161616161617,375.53055976740563 261.1111111111111,367.76235111911296 256.06060606060606,372.4395493775648 251.010101010101,372.71128442328796 245.95959595959596,380.86755437973954 240.9090909090909,377.5725972371664 235.85858585858585,377.8793416874242 230.8080808080808,380.46223081671315 225.75757575757575,379.3132240994655 220.7070707070707,386.3741167035106 215.65656565656565,375.76069083931895 210.6060606060606,373.47649690661365 205.55555555555554,377.2123688905074 200.50505050505052,380.0680598340787 195.45454545454544,380.7443911006288 190.40404040404042,379.85635476455207 185.35353535353534,380.03940255141947 180.3030303030303,384.2769466950298 175.25252525252526,387.1622162213797 170.2020202020202,389.8351988044434 165.15151515151516,391.8982807085089 160.1010101010101,394.94637790858087 155.05050505050505,397.5790172443138 150,399.9993211472805 "/><text class="poloto_text" alignment-baseline="middle" text-anchor="start" font-size="large" x="675" y="150">default_seq</text><line class="poloto1stroke" stroke="black" x1="680" x2="730" y1="131.25" y2="131.25"/><polyline class="poloto1stroke" fill="none" stroke="black" points="650,126.17345753752 644.9494949494949,132.8367848953331 639.8989898989898,136.17853438607233 634.8484848484848,139.9239587975191 629.7979797979798,141.53933733306894 624.7474747474747,143.83182296684828 619.6969696969697,148.71927161042777 614.6464646464647,150.52080125956275 609.5959595959596,154.63009072866598 604.5454545454545,157.65481599939488 599.4949494949494,160.04166216118583 594.4444444444445,163.37584729305058 589.3939393939394,165.40285302402222 584.3434343434344,168.93788158190145 579.2929292929293,172.68893077302417 574.2424242424242,175.40152926121914 569.1919191919192,178.40186432352573 564.1414141414141,180.804808992665 559.090909090909,184.78909258241882 554.040404040404,186.49029749750642 548.989898989899,189.56520937999898 543.939393939394,191.18805529546339 538.8888888888889,195.30505459188103 533.8383838383838,199.0396658492957 528.7878787878788,201.16166247151853 523.7373737373737,204.89501300245408 518.6868686868687,206.71521110137553 513.6363636363636,209.48391191788988 508.5858585858586,213.20261862587603 503.5353535353535,215.2947457284405 498.4848484848485,218.44370104683938 493.4343434343434,221.98847599019155 488.3838383838384,223.73821887472403 483.3333333333333,226.4929547210085 478.2828282828283,229.1503721810035 473.2323232323232,230.76798123263166 468.1818181818182,234.8165133833389 463.1313131313131,237.09212467809047 458.0808080808081,240.03126601668134 453.030303030303,243.50820417756267 447.979797979798,244.10927977120724 442.9292929292929,248.34847255713638 437.8787878787879,251.24533106919787 432.8282828282828,251.6985137489496 427.77777777777777,253.48307208009686 422.72727272727275,251.57947207563583 417.67676767676767,253.77143901744796 412.62626262626264,257.14780999688213 407.57575757575756,260.42637769522713 402.52525252525254,262.90360824767265 397.47474747474746,265.16753357775264 392.4242424242424,268.79343142108604 387.37373737373736,271.6233259613161 382.32323232323233,274.3601691894935 377.27272727272725,276.8034571059636 372.22222222222223,280.7169460549686 367.1717171717172,283.0463806724812 362.1212121212121,285.23650501405467 357.07070707070704,288.0086970731265 352.020202020202,291.82060056160515 346.969696969697,293.6234394266992 341.9191919191919,296.6932599137954 336.86868686868684,299.2612627727351 331.8181818181818,302.43645089979503 326.7676767676768,305.6144514166929 321.7171717171717,308.1511300715753 316.66666666666663,311.1405550008898 311.6161616161616,313.24388317332614 306.5656565656566,316.7693108141723 301.5151515151515,319.23829815502376 296.4646464646464,322.0012287234223 291.4141414141414,324.6537487459408 286.3636363636364,326.4019884565944 281.3131313131313,329.1527966550017 276.26262626262627,332.56238292821183 271.2121212121212,334.78543162668143 266.16161616161617,338.2644063457213 261.1111111111111,341.0039164952968 256.06060606060606,344.33092518412667 251.010101010101,346.96584352541794 245.95959595959596,350.0404159815507 240.9090909090909,352.3333865101297 235.85858585858585,355.3987944545491 230.8080808080808,357.74757637456764 225.75757575757575,360.72056337017403 220.7070707070707,363.36008821206195 215.65656565656565,364.7423778174206 210.6060606060606,367.18741135516944 205.55555555555554,369.96663438883616 200.50505050505052,373.1965671387764 195.45454545454544,375.89655836218054 190.40404040404042,378.54796312665985 185.35353535353534,381.26070708329473 180.3030303030303,383.72726995014796 175.25252525252526,386.1936873485613 170.2020202020202,389.39748426880044 165.15151515151516,391.94250311423684 160.1010101010101,394.70165150319815 155.05050505050505,397.3903931672504 150,400 "/><text class="poloto_text" alignment-baseline="middle" text-anchor="start" font-size="large" x="675" y="200">direct_par</text><line class="poloto2stroke" stroke="black" x1="680" x2="730" y1="181.25" y2="181.25"/><polyline class="poloto2stroke" fill="none" stroke="black" points="650,318.1302650483464 644.9494949494949,320.82613466595353 639.8989898989898,319.5349083039689 634.8484848484848,319.7523836216114 629.7979797979798,321.9624371394504 624.7474747474747,320.66272511847194 619.6969696969697,320.0086505232257 614.6464646464647,327.48572833380933 609.5959595959596,329.9773602618044 604.5454545454545,325.19343665794986 599.4949494949494,324.8361176800887 594.4444444444445,326.3158226506968 589.3939393939394,327.867146583213 584.3434343434344,328.7918409661432 579.2929292929293,333.0105227020472 574.2424242424242,330.7430576399297 569.1919191919192,333.546379945139 564.1414141414141,337.5404584098457 559.090909090909,337.9736149343719 554.040404040404,334.91203765886974 548.989898989899,338.56853236406096 543.939393939394,334.9611090125942 538.8888888888889,340.3143476007163 533.8383838383838,337.390916853634 528.7878787878788,331.46443563336715 523.7373737373737,339.78678205869846 518.6868686868687,336.8420159404316 513.6363636363636,342.6018388180592 508.5858585858586,334.6491761879801 503.5353535353535,341.58574176539526 498.4848484848485,342.12087166628766 493.4343434343434,343.7943405988354 488.3838383838384,341.686842331122 483.3333333333333,349.8045146615216 478.2828282828283,344.84035566063767 473.2323232323232,348.06606982582093 468.1818181818182,350.45863774624775 463.1313131313131,348.79302410945434 458.0808080808081,347.87536070111906 453.030303030303,351.3641787845918 447.979797979798,351.301821313357 442.9292929292929,353.7514128622225 437.8787878787879,355.3234902921637 432.8282828282828,349.8816129346658 427.77777777777777,348.0459466916355 422.72727272727275,348.1692554391862 417.67676767676767,351.34919553528266 412.62626262626264,354.2012982573366 407.57575757575756,353.8474220325529 402.52525252525254,355.64318143357207 397.47474747474746,356.4280321562835 392.4242424242424,356.5551715727514 387.37373737373736,357.1467432283229 382.32323232323233,354.3059385551008 377.27272727272725,358.30316883600517 372.22222222222223,355.98280175124603 367.1717171717172,354.773571099882 362.1212121212121,360.8129843189871 357.07070707070704,358.6005063271498 352.020202020202,357.4036404931768 346.969696969697,358.7219724744618 341.9191919191919,360.9500640788478 336.86868686868684,357.46677379609105 331.8181818181818,359.58692781807525 326.7676767676768,361.3009339558736 321.7171717171717,362.41929532178347 316.66666666666663,364.04160785296824 311.6161616161616,367.69165345732415 306.5656565656566,366.3781219345557 301.5151515151515,367.232167145177 296.4646464646464,364.71042325012377 291.4141414141414,369.09421166530814 286.3636363636364,375.3732598943996 281.3131313131313,374.5125231355431 276.26262626262627,374.5700801482614 271.2121212121212,375.60731861419004 266.16161616161617,369.3500906510828 261.1111111111111,373.56343854419066 256.06060606060606,375.3869339277497 251.010101010101,380.6703476647224 245.95959595959596,377.2852000894146 240.9090909090909,376.73363225481415 235.85858585858585,375.3487242175374 230.8080808080808,374.60736855835444 225.75757575757575,383.7848754523462 220.7070707070707,382.0559830441986 215.65656565656565,364.9471488913123 210.6060606060606,375.77630445186765 205.55555555555554,377.345424023531 200.50505050505052,375.0989064167584 195.45454545454544,377.6585690851441 190.40404040404042,382.3451258132292 185.35353535353534,385.57229466281143 180.3030303030303,384.599692673676 175.25252525252526,387.2110936171843 170.2020202020202,389.94842174016134 165.15151515151516,392.3336192596335 160.1010101010101,395.07327487764894 155.05050505050505,397.5677676849619 150,399.99772099444164 "/><text class="poloto_text" alignment-baseline="middle" text-anchor="start" font-size="large" x="675" y="250">direct_seq</text><line class="poloto3stroke" stroke="black" x1="680" x2="730" y1="231.25" y2="231.25"/><polyline class="poloto3stroke" fill="none" stroke="black" points="650,142.05972643205195 644.9494949494949,145.0812029076232 639.8989898989898,148.29523110813494 634.8484848484848,150.92263358003166 629.7979797979798,153.57205027583242 624.7474747474747,155.92747525460615 619.6969696969697,159.2188441756619 614.6464646464647,162.2693173602521 609.5959595959596,164.51918074114232 604.5454545454545,168.7238005278565 599.4949494949494,170.21344584185738 594.4444444444445,173.4999173254367 589.3939393939394,176.2833104543804 584.3434343434344,179.4674691352338 579.2929292929293,182.39245154567493 574.2424242424242,185.09287917439875 569.1919191919192,187.16856834325512 564.1414141414141,190.49897129568257 559.090909090909,193.5534691071099 554.040404040404,195.94327312717874 548.989898989899,198.46879920166924 543.939393939394,201.7067327158037 538.8888888888889,202.46268370845604 533.8383838383838,207.26750627817546 528.7878787878788,209.52575833909958 523.7373737373737,212.98189451307593 518.6868686868687,215.02979920991243 513.6363636363636,217.9115290042249 508.5858585858586,220.20139620608612 503.5353535353535,222.4459257441802 498.4848484848485,225.4773910526242 493.4343434343434,229.28333033506718 488.3838383838384,231.6901056731237 483.3333333333333,234.23342738676132 478.2828282828283,236.59093741317352 473.2323232323232,238.98845126055676 468.1818181818182,241.52008700952285 463.1313131313131,244.0687425659566 458.0808080808081,245.19534714346048 453.030303030303,250.02640252184088 447.979797979798,250.71601990590133 442.9292929292929,254.4763790771773 437.8787878787879,257.17346093178355 432.8282828282828,257.10591508619245 427.77777777777777,259.5944436874698 422.72727272727275,254.00060029976197 417.67676767676767,256.38948301971146 412.62626262626264,259.7512101761962 407.57575757575756,262.4084336782713 402.52525252525254,264.65029629496735 397.47474747474746,267.67899770305337 392.4242424242424,270.3501376858784 387.37373737373736,273.9152297213358 382.32323232323233,276.35124421581116 377.27272727272725,279.27932995297004 372.22222222222223,282.9736949420138 367.1717171717172,284.51692113137597 362.1212121212121,287.19373438335685 357.07070707070704,290.06048092836016 352.020202020202,292.6998603018082 346.969696969697,295.0461692583485 341.9191919191919,296.5454639788625 336.86868686868684,300.49051957932465 331.8181818181818,303.3022305645679 326.7676767676768,306.1356648368353 321.7171717171717,309.16131140768357 316.66666666666663,311.9555661801394 311.6161616161616,314.9069268676814 306.5656565656566,317.1916056951864 301.5151515151515,319.6385303226539 296.4646464646464,322.7943226577278 291.4141414141414,325.52093460563265 286.3636363636364,329.78592379490306 281.3131313131313,332.95272324192905 276.26262626262627,334.77355170409004 271.2121212121212,338.05114961283573 266.16161616161617,340.5900102943166 261.1111111111111,343.8387569624832 256.06060606060606,346.3056107662162 251.010101010101,348.95570631473646 245.95959595959596,351.9435795806921 240.9090909090909,354.0078737217567 235.85858585858585,357.20570643596017 230.8080808080808,359.9457499698153 225.75757575757575,362.2825549882825 220.7070707070707,364.9775517952503 215.65656565656565,365.41933944721023 210.6060606060606,368.0959587412713 205.55555555555554,370.74033253115573 200.50505050505052,373.39071901655575 195.45454545454544,376.263090341235 190.40404040404042,378.8802130433792 185.35353535353534,381.6566721766879 180.3030303030303,384.56870789597843 175.25252525252526,387.0104441490896 170.2020202020202,389.93852988624855 165.15151515151516,391.94453967239536 160.1010101010101,394.81608667591524 155.05050505050505,397.5408560235814 150,399.9995635946803 "/><text class="poloto_text" alignment-baseline="middle" text-anchor="start" font-size="large" x="675" y="300">indirect_par</text><line class="poloto4stroke" stroke="black" x1="680" x2="730" y1="281.25" y2="281.25"/><polyline class="poloto4stroke" fill="none" stroke="black" points="650,302.8518602746541 644.9494949494949,299.8432335112735 639.8989898989898,297.95694425116 634.8484848484848,306.9721083662294 629.7979797979798,302.2148054868756 624.7474747474747,303.0718085557748 619.6969696969697,311.48061172388344 614.6464646464647,310.27361158859776 609.5959595959596,315.3972039996063 604.5454545454545,308.3994931879554 599.4949494949494,313.1357031435245 594.4444444444445,307.015457961318 589.3939393939394,312.20422023339927 584.3434343434344,311.0872165729284 579.2929292929293,316.24964905738875 574.2424242424242,316.6426078030241 569.1919191919192,316.0674740811607 564.1414141414141,319.8833537069965 559.090909090909,318.4084007054249 554.040404040404,319.3076866008535 548.989898989899,327.22771581091627 543.939393939394,317.0316389007823 538.8888888888889,321.76013902903696 533.8383838383838,327.7795260929165 528.7878787878788,326.4168262374636 523.7373737373737,324.75906789642454 518.6868686868687,324.1270075250824 513.6363636363636,326.73612946303234 508.5858585858586,325.9321253957348 503.5353535353535,331.86049770572026 498.4848484848485,327.0515050407239 493.4343434343434,334.30441598542984 488.3838383838384,330.9446768976237 483.3333333333333,335.74634765114536 478.2828282828283,338.5690172588606 473.2323232323232,335.7580821052968 468.1818181818182,341.4790649094726 463.1313131313131,336.4931341320844 458.0808080808081,339.95339191185775 453.030303030303,343.46980050943046 447.979797979798,344.62195904287586 442.9292929292929,337.3512039695428 437.8787878787879,343.8756089672565 432.8282828282828,334.36604611446523 427.77777777777777,344.84598044031355 422.72727272727275,337.3585743704974 417.67676767676767,343.73343781199947 412.62626262626264,346.3245216634025 407.57575757575756,347.2538225469293 402.52525252525254,348.46155002441446 397.47474747474746,349.0522003798666 392.4242424242424,350.19926751791564 387.37373737373736,347.6451811397258 382.32323232323233,350.7070493521078 377.27272727272725,349.94043067386315 372.22222222222223,349.73323512597324 367.1717171717172,353.42289663546046 362.1212121212121,355.14543692173265 357.07070707070704,352.624274900439 352.020202020202,355.85003755510223 346.969696969697,354.47545777705795 341.9191919191919,354.9152573603394 336.86868686868684,352.0916179630248 331.8181818181818,355.0026354032361 326.7676767676768,356.51667092565935 321.7171717171717,357.09655661655927 316.66666666666663,358.35621632708677 311.6161616161616,360.4668179215179 306.5656565656566,361.6653808872896 301.5151515151515,363.76497536976865 296.4646464646464,363.76550875404826 291.4141414141414,364.7558578928508 286.3636363636364,361.34549578796134 281.3131313131313,373.0700095960681 276.26262626262627,371.5213525849499 271.2121212121212,366.4420310691494 266.16161616161617,364.46884866093876 261.1111111111111,369.20898626438503 256.06060606060606,374.00876592818804 251.010101010101,371.47150539954606 245.95959595959596,369.2866179218088 240.9090909090909,376.49525797130684 235.85858585858585,369.9593609668414 230.8080808080808,376.94572524018054 225.75757575757575,375.92487621848 220.7070707070707,378.8491312867217 215.65656565656565,372.32821753156543 210.6060606060606,371.7430464873493 205.55555555555554,370.3722003992624 200.50505050505052,376.1076815579476 195.45454545454544,375.71656541255095 190.40404040404042,380.7462821903474 185.35353535353534,382.2773375202383 180.3030303030303,382.96477287770034 175.25252525252526,385.945615169061 170.2020202020202,389.02149684115284 165.15151515151516,391.6180115143119 160.1010101010101,394.71348293630956 155.05050505050505,397.3815680818968 150,399.99864229456097 "/><text class="poloto_text" alignment-baseline="middle" text-anchor="start" font-size="large" x="675" y="350">indirect_seq</text><line class="poloto5stroke" stroke="black" x1="680" x2="730" y1="331.25" y2="331.25"/><polyline class="poloto5stroke" fill="none" stroke="black" points="650,100 644.9494949494949,104.40303873873046 639.8989898989898,107.34664110947813 634.8484848484848,110.72495166811086 629.7979797979798,113.70938218098894 624.7474747474747,117.5599317849996 619.6969696969697,121.28154786178368 614.6464646464647,124.16890243577211 609.5959595959596,128.0532976967982 604.5454545454545,131.13625883296493 599.4949494949494,134.47737796046465 594.4444444444445,138.72801426366544 589.3939393939394,140.89253615981744 584.3434343434344,144.56614765143632 579.2929292929293,148.74821982996679 574.2424242424242,151.86454172834934 569.1919191919192,155.1235681662685 564.1414141414141,158.27082635286862 559.090909090909,162.10071943841425 554.040404040404,165.45803405222222 548.989898989899,167.75275020207994 543.939393939394,171.8012338633072 538.8888888888889,174.42606639276576 533.8383838383838,178.2621661317469 528.7878787878788,181.7160717896449 523.7373737373737,184.86793647684172 518.6868686868687,188.0388090401847 513.6363636363636,191.07827511282292 508.5858585858586,193.90947886901202 503.5353535353535,197.70950243489926 498.4848484848485,200.31910926764886 493.4343434343434,204.27177771646555 488.3838383838384,207.50641394596238 483.3333333333333,210.56333623138795 478.2828282828283,212.22865893130157 473.2323232323232,215.72339273133 468.1818181818182,219.41707886765428 463.1313131313131,222.2493493924026 458.0808080808081,225.5907109673021 453.030303030303,228.72904708958868 447.979797979798,230.5595249582627 442.9292929292929,234.2391006559172 437.8787878787879,237.20466876108893 432.8282828282828,238.7194801151916 427.77777777777777,240.99717645758165 422.72727272727275,239.19705300336565 417.67676767676767,242.09909988978342 412.62626262626264,246.23530102026714 407.57575757575756,249.18864977648775 402.52525252525254,251.58383612883267 397.47474747474746,254.55556239795996 392.4242424242424,258.25225488204205 387.37373737373736,261.247983443752 382.32323232323233,265.30975322248963 377.27272727272725,267.93254919378967 372.22222222222223,271.65649276561203 367.1717171717172,274.4982187389535 362.1212121212121,276.9857775506315 357.07070707070704,280.1488917971801 352.020202020202,283.3828976634374 346.969696969697,286.28305346013656 341.9191919191919,290.0090820795974 336.86868686868684,292.52161297345737 331.8181818181818,295.93575725778413 326.7676767676768,298.32279737749496 321.7171717171717,302.0322910842878 316.66666666666663,305.14090315535594 311.6161616161616,307.9068400715123 306.5656565656566,310.83507127711107 301.5151515151515,314.0464325562248 296.4646464646464,317.4374473586083 291.4141414141414,320.0270765256124 286.3636363636364,319.06412394298997 281.3131313131313,322.6017224433073 276.26262626262627,325.7556721781426 271.2121212121212,328.62498866558406 266.16161616161617,332.5377017829097 261.1111111111111,336.1961360672995 256.06060606060606,339.68490566129225 251.010101010101,342.48333052902507 245.95959595959596,345.909694162303 240.9090909090909,348.54907353575106 235.85858585858585,352.3245129352961 230.8080808080808,355.1511586803685 225.75757575757575,357.42914595963833 220.7070707070707,359.5550702297383 215.65656565656565,362.24977609982625 210.6060606060606,365.3003462633764 205.55555555555554,368.2384693228881 200.50505050505052,371.61556764452166 195.45454545454544,373.31759688076875 190.40404040404042,377.3524065086459 185.35353535353534,380.36593070950295 180.3030303030303,382.2288965297534 175.25252525252526,385.6604485373876 170.2020202020202,388.77293976685286 165.15151515151516,391.4170711093375 160.1010101010101,394.5291259334831 155.05050505050505,397.2947234232797 150,399.99907869988067 "/><text class="poloto_text" alignment-baseline="start" text-anchor="middle" font-size="x-large" x="400" y="37.5">Bench of query:8_bytes with abspiral(num,1.5)</text><text class="poloto_text" alignment-baseline="start" text-anchor="middle" font-size="x-large" x="400" y="481.25">Number of Elements</text><text class="poloto_text" alignment-baseline="start" text-anchor="middle" font-size="x-large" transform="rotate(-90,37.5,250)" x="37.5" y="250">Time in Seconds</text><path stroke="black" fill="none" class="poloto_axis_lines" d=" M 150 100 L 150 400 L 650 400"/></svg>