<svg class="poloto" width="800" height="500" viewBox="0 0 800 500" xmlns="http://www.w3.org/2000/svg"><style>.poloto {
                    font-family: "Arial";
                    stroke-width:2;
                    }
                    .poloto_text{fill: var(--poloto_fg_color,black);  }
                    .poloto_axis_lines{stroke: var(--poloto_fg_color,black);stoke-width:3;fill:none}
                    .poloto_background{fill: var(--poloto_bg_color,aliceblue); }
                    .poloto0stroke{stroke:  var(--poloto_color0,blue); }
                    .poloto1stroke{stroke:  var(--poloto_color1,red); }
                    .poloto2stroke{stroke:  var(--poloto_color2,green); }
                    .poloto3stroke{stroke:  var(--poloto_color3,gold); }
                    .poloto4stroke{stroke:  var(--poloto_color4,aqua); }
                    .poloto5stroke{stroke:  var(--poloto_color5,brown); }
                    .poloto6stroke{stroke:  var(--poloto_color6,lime); }
                    .poloto7stroke{stroke:  var(--poloto_color7,chocolate); }
                    .poloto0fill{fill:var(--poloto_color0,blue);}
                    .poloto1fill{fill:var(--poloto_color1,red);}
                    .poloto2fill{fill:var(--poloto_color2,green);}
                    .poloto3fill{fill:var(--poloto_color3,gold);}
                    .poloto4fill{fill:var(--poloto_color4,aqua);}
                    .poloto5fill{fill:var(--poloto_color5,brown);}
                    .poloto6fill{fill:var(--poloto_color6,lime);}
                    .poloto7fill{fill:var(--poloto_color7,chocolate);}</style><rect class="poloto_background" fill="white" x="0" y="0" width="800" height="500"/><line class="poloto_axis_lines" stroke="black" x1="150" x2="150" y1="400" y2="405"/><text class="poloto_text" alignment-baseline="start" text-anchor="middle" x="150" y="430">0</text><line class="poloto_axis_lines" stroke="black" x1="234.17508417508418" x2="234.17508417508418" y1="400" y2="405"/><text class="poloto_text" alignment-baseline="start" text-anchor="middle" x="234.17508417508418" y="430">5000</text><line class="poloto_axis_lines" stroke="black" x1="318.35016835016836" x2="318.35016835016836" y1="400" y2="405"/><text class="poloto_text" alignment-baseline="start" text-anchor="middle" x="318.35016835016836" y="430">10000</text><line class="poloto_axis_lines" stroke="black" x1="402.52525252525254" x2="402.52525252525254" y1="400" y2="405"/><text class="poloto_text" alignment-baseline="start" text-anchor="middle" x="402.52525252525254" y="430">15000</text><line class="poloto_axis_lines" stroke="black" x1="486.7003367003367" x2="486.7003367003367" y1="400" y2="405"/><text class="poloto_text" alignment-baseline="start" text-anchor="middle" x="486.7003367003367" y="430">20000</text><line class="poloto_axis_lines" stroke="black" x1="570.8754208754208" x2="570.8754208754208" y1="400" y2="405"/><text class="poloto_text" alignment-baseline="start" text-anchor="middle" x="570.8754208754208" y="430">25000</text><line class="poloto_axis_lines" stroke="black" x1="150" x2="144" y1="364.82252319441125" y2="364.82252319441125"/><text class="poloto_text" alignment-baseline="middle" text-anchor="end" x="135" y="364.82252319441125">0.0005</text><line class="poloto_axis_lines" stroke="black" x1="150" x2="144" y1="329.6323779365297" y2="329.6323779365297"/><text class="poloto_text" alignment-baseline="middle" text-anchor="end" x="135" y="329.6323779365297">0.0010</text><line class="poloto_axis_lines" stroke="black" x1="150" x2="144" y1="294.44223267864805" y2="294.44223267864805"/><text class="poloto_text" alignment-baseline="middle" text-anchor="end" x="135" y="294.44223267864805">0.0015</text><line class="poloto_axis_lines" stroke="black" x1="150" x2="144" y1="259.25208742076643" y2="259.25208742076643"/><text class="poloto_text" alignment-baseline="middle" text-anchor="end" x="135" y="259.25208742076643">0.0020</text><line class="poloto_axis_lines" stroke="black" x1="150" x2="144" y1="224.06194216288486" y2="224.06194216288486"/><text class="poloto_text" alignment-baseline="middle" text-anchor="end" x="135" y="224.06194216288486">0.0025</text><line class="poloto_axis_lines" stroke="black" x1="150" x2="144" y1="188.87179690500324" y2="188.87179690500324"/><text class="poloto_text" alignment-baseline="middle" text-anchor="end" x="135" y="188.87179690500324">0.0030</text><line class="poloto_axis_lines" stroke="black" x1="150" x2="144" y1="153.68165164712167" y2="153.68165164712167"/><text class="poloto_text" alignment-baseline="middle" text-anchor="end" x="135" y="153.68165164712167">0.0035</text><line class="poloto_axis_lines" stroke="black" x1="150" x2="144" y1="118.49150638924004" y2="118.49150638924004"/><text class="poloto_text" alignment-baseline="middle" text-anchor="end" x="135" y="118.49150638924004">0.0040</text><text class="poloto_text" alignment-baseline="middle" text-anchor="start" font-size="large" x="675" y="100">default_par</text><line class="poloto0stroke" stroke="black" x1="680" x2="730" y1="81.25" y2="81.25"/><polyline class="poloto0stroke" fill="none" stroke="black" points="650,261.77268714529794 644.9494949494949,309.61784206052846 639.8989898989898,315.67336225650473 634.8484848484848,314.6166021944105 629.7979797979798,322.6561427800262 624.7474747474747,320.0432041143379 619.6969696969697,323.4349710748736 614.6464646464647,319.60304577745234 609.5959595959596,320.9979127551843 604.5454545454545,324.07008281648785 599.4949494949494,319.373887551533 594.4444444444445,319.4113298660874 589.3939393939394,319.7191732568034 584.3434343434344,322.5296693979693 579.2929292929293,326.98382684384046 574.2424242424242,307.7811979992291 569.1919191919192,329.74723857065135 564.1414141414141,330.40360516000135 559.090909090909,329.5977508335959 554.040404040404,331.8445712280211 548.989898989899,327.2630254563165 543.939393939394,328.32787925182 538.8888888888889,326.8041459621537 533.8383838383838,336.1343203152474 528.7878787878788,332.44400016234385 523.7373737373737,328.1104041541263 518.6868686868687,339.22485963237557 513.6363636363636,333.86948256645013 508.5858585858586,335.6277933644054 503.5353535353535,340.30083351378056 498.4848484848485,342.65843248547765 493.4343434343434,338.72199245664046 488.3838383838384,338.1746449372994 483.3333333333333,344.5095748866232 478.2828282828283,337.74673277096355 473.2323232323232,343.3976366767647 468.1818181818182,341.98700451395723 463.1313131313131,337.539110913942 458.0808080808081,349.0880943058357 453.030303030303,348.76835664602254 447.979797979798,344.1416267278068 442.9292929292929,342.2878802559121 437.8787878787879,344.4668540502802 432.8282828282828,354.5355287917557 427.77777777777777,352.21396452880276 422.72727272727275,350.8080478454599 417.67676767676767,356.04384879779906 412.62626262626264,349.062898161831 407.57575757575756,340.4392715452251 402.52525252525254,351.09632551541245 397.47474747474746,360.8767225869355 392.4242424242424,356.872013676298 387.37373737373736,348.01366879082207 382.32323232323233,355.442871497085 377.27272727272725,359.5242949243846 372.22222222222223,357.4445573396438 367.1717171717172,361.2056800648062 362.1212121212121,355.84720626609806 357.07070707070704,355.75613417017064 352.020202020202,357.3230809582136 346.969696969697,358.06453731879714 341.9191919191919,361.75710964099716 336.86868686868684,362.0141384619607 331.8181818181818,364.2360442335434 326.7676767676768,363.5418130478959 321.7171717171717,363.5145054951758 316.66666666666663,361.2347471247892 311.6161616161616,360.8704587410796 306.5656565656566,368.72257661305173 301.5151515151515,372.54809730403605 296.4646464646464,373.23486817888886 291.4141414141414,372.87846238771704 286.3636363636364,372.8372195374748 281.3131313131313,373.0259794766381 276.26262626262627,375.0306212913986 271.2121212121212,378.01298610200405 266.16161616161617,374.24778131999176 261.1111111111111,382.01044584271835 256.06060606060606,376.77225196050165 251.010101010101,377.07052363170743 245.95959595959596,377.2898286169546 240.9090909090909,371.38069942525107 235.85858585858585,377.3848420091508 230.8080808080808,378.7102436401437 225.75757575757575,381.584785845679 220.7070707070707,378.8643060960827 215.65656565656565,371.3569812673473 210.6060606060606,375.61337009686906 205.55555555555554,377.1204232576831 200.50505050505052,373.9490873670428 195.45454545454544,379.515112642482 190.40404040404042,379.94978131670734 185.35353535353534,387.89142291821554 180.3030303030303,389.69850725749825 175.25252525252526,391.46646015525425 170.2020202020202,392.99512006525663 165.15151515151516,395.3867830975633 160.1010101010101,396.7214749269042 155.05050505050505,398.53257094274636 150,399.9955660416975 "/><text class="poloto_text" alignment-baseline="middle" text-anchor="start" font-size="large" x="675" y="150">default_seq</text><line class="poloto1stroke" stroke="black" x1="680" x2="730" y1="131.25" y2="131.25"/><polyline class="poloto1stroke" fill="none" stroke="black" points="650,180.42756964892197 644.9494949494949,182.60140568208237 639.8989898989898,182.27730444425725 634.8484848484848,183.25235298906264 629.7979797979798,185.96558356873584 624.7474747474747,188.32473090682421 619.6969696969697,193.32335028012525 614.6464646464647,195.7264149194955 609.5959595959596,196.00350212325606 604.5454545454545,192.01462877798465 599.4949494949494,203.4983696405702 594.4444444444445,201.4785256830583 589.3939393939394,207.79459371452393 584.3434343434344,207.50047448045854 579.2929292929293,211.19994407112912 574.2424242424242,210.5466038342713 569.1919191919192,209.14512110923093 564.1414141414141,213.62686762898417 559.090909090909,218.11382229023565 554.040404040404,217.57499078604695 548.989898989899,221.91506178099203 543.939393939394,224.7667303921097 538.8888888888889,227.29929476602894 533.8383838383838,229.68265292405474 528.7878787878788,230.9482313081092 523.7373737373737,234.93618970960387 518.6868686868687,235.0636484157279 513.6363636363636,239.61647902890212 508.5858585858586,238.3787712398919 503.5353535353535,241.42264842440815 498.4848484848485,244.76367119548195 493.4343434343434,245.26815711789894 488.3838383838384,249.0827688638533 483.3333333333333,252.24298466859213 478.2828282828283,252.7850536661445 473.2323232323232,257.34259975878325 468.1818181818182,259.42409685078695 463.1313131313131,260.9748561720113 458.0808080808081,261.0298231789041 453.030303030303,264.2748472337144 447.979797979798,265.7145464565049 442.9292929292929,269.7621873443569 437.8787878787879,270.82542239317854 432.8282828282828,273.334409369775 427.77777777777777,275.4696770037327 422.72727272727275,288.87353295216934 417.67676767676767,288.1039244753795 412.62626262626264,292.3349060200251 407.57575757575756,291.27427504195254 402.52525252525254,295.51954378557286 397.47474747474746,296.0320530611086 392.4242424242424,298.0331054810528 387.37373737373736,302.60275698366024 382.32323232323233,304.2730220381804 377.27272727272725,305.2152733676054 372.22222222222223,306.9426872180243 367.1717171717172,311.2337735307704 362.1212121212121,312.6648159778274 357.07070707070704,312.9238154469254 352.020202020202,315.4596876944989 346.969696969697,318.1177401264077 341.9191919191919,318.8432905413347 336.86868686868684,322.69886361636924 331.8181818181818,322.4863151390116 326.7676767676768,324.52466911292913 321.7171717171717,327.09910975970524 316.66666666666663,328.86058767073376 311.6161616161616,332.6022150554233 306.5656565656566,334.2812776462579 301.5151515151515,335.0276606271775 296.4646464646464,337.9412638939491 291.4141414141414,340.18597287965883 286.3636363636364,347.19401992747544 281.3131313131313,349.1194839154057 276.26262626262627,351.2163942910324 271.2121212121212,352.13239377209504 266.16161616161617,354.3307221463549 261.1111111111111,355.35538879597385 256.06060606060606,357.9557997699503 251.010101010101,358.89277257758664 245.95959595959596,361.5571592356419 240.9090909090909,363.8699259622804 235.85858585858585,365.6938311909964 230.8080808080808,368.1959208991223 225.75757575757575,369.89236742171425 220.7070707070707,371.4410153342231 215.65656565656565,375.71183212330067 210.6060606060606,377.8874980440144 205.55555555555554,379.488508892667 200.50505050505052,381.1293549857515 195.45454545454544,382.9170847451424 190.40404040404042,384.3688189976111 185.35353535353534,386.022966965603 180.3030303030303,389.2379386363631 175.25252525252526,390.86104889623766 170.2020202020202,392.64842675417594 165.15151515151516,395.0298846443578 160.1010101010101,396.5265215221755 155.05050505050505,398.3823794027857 150,399.9990850562233 "/><text class="poloto_text" alignment-baseline="middle" text-anchor="start" font-size="large" x="675" y="200">direct_par</text><line class="poloto2stroke" stroke="black" x1="680" x2="730" y1="181.25" y2="181.25"/><polyline class="poloto2stroke" fill="none" stroke="black" points="650,207.83456971953686 644.9494949494949,284.8736802815775 639.8989898989898,281.43954438615134 634.8484848484848,293.5726841893258 629.7979797979798,288.16346620115576 624.7474747474747,294.43069031100345 619.6969696969697,291.89341045761967 614.6464646464647,274.38300531816935 609.5959595959596,289.1896108368756 604.5454545454545,293.3782234466307 599.4949494949494,300.29569106055357 594.4444444444445,298.5934733541393 589.3939393939394,301.6986517716948 584.3434343434344,297.94815647040025 579.2929292929293,304.5388483954584 574.2424242424242,298.6780704633393 569.1919191919192,301.8282922668248 564.1414141414141,308.638007655968 559.090909090909,311.2665003658602 554.040404040404,309.1585402846226 548.989898989899,305.7812716639332 543.939393939394,308.11705274557033 538.8888888888889,298.6756071531712 533.8383838383838,308.23958483135823 528.7878787878788,312.32924275264827 523.7373737373737,312.084952764268 518.6868686868687,319.2469918877331 513.6363636363636,313.8837322292699 508.5858585858586,310.92635242179756 503.5353535353535,318.7855083228213 498.4848484848485,318.5436816446091 493.4343434343434,320.514400159341 488.3838383838384,323.3460807679522 483.3333333333333,320.0675556948564 478.2828282828283,316.94407840176683 473.2323232323232,316.9368292318437 468.1818181818182,324.42810735434153 463.1313131313131,322.2104244001898 458.0808080808081,328.3088061930902 453.030303030303,329.44263267329916 447.979797979798,330.8702968664114 442.9292929292929,320.7639686695099 437.8787878787879,326.483915640307 432.8282828282828,330.2303992650421 427.77777777777777,330.0555042431104 422.72727272727275,339.1972001782029 417.67676767676767,333.44269648476256 412.62626262626264,336.58996231604647 407.57575757575756,334.9085771756249 402.52525252525254,324.6891478518645 397.47474747474746,344.61408961803915 392.4242424242424,344.97654811419534 387.37373737373736,339.34936236629795 382.32323232323233,336.32948486084763 377.27272727272725,349.0647280493844 372.22222222222223,348.2907559945826 367.1717171717172,352.61238735341254 362.1212121212121,352.52391932823423 357.07070707070704,348.46501759389963 352.020202020202,340.75971300794333 346.969696969697,341.73173520025654 341.9191919191919,350.2330408719461 336.86868686868684,350.2847000051847 331.8181818181818,354.1461850246225 326.7676767676768,351.7761991217947 321.7171717171717,353.72017312613065 316.66666666666663,362.2339361092415 311.6161616161616,348.9395215125569 306.5656565656566,360.3181142211119 301.5151515151515,357.01453376459244 296.4646464646464,366.5970918394757 291.4141414141414,368.1004148448924 286.3636363636364,364.2722197028685 281.3131313131313,358.14005537052054 276.26262626262627,363.0698428196972 271.2121212121212,358.52763963039087 266.16161616161617,364.36526244693033 261.1111111111111,368.25518110373656 256.06060606060606,368.4214193499348 251.010101010101,372.20738631764925 245.95959595959596,371.43334388255687 240.9090909090909,364.937383828533 235.85858585858585,375.03653323580187 230.8080808080808,367.3735975847361 225.75757575757575,375.26801401130825 220.7070707070707,379.0144272557528 215.65656565656565,371.5268792886523 210.6060606060606,368.97038561595775 205.55555555555554,370.3706014957689 200.50505050505052,375.1227490916837 195.45454545454544,374.1586798721988 190.40404040404042,374.5042470986312 185.35353535353534,378.41563174404473 180.3030303030303,387.22196559482956 175.25252525252526,389.86805337735075 170.2020202020202,391.71222812973525 165.15151515151516,394.62935041103265 160.1010101010101,396.2478155717331 155.05050505050505,398.32987570606093 150,399.9985923941897 "/><text class="poloto_text" alignment-baseline="middle" text-anchor="start" font-size="large" x="675" y="250">direct_seq</text><line class="poloto3stroke" stroke="black" x1="680" x2="730" y1="231.25" y2="231.25"/><polyline class="poloto3stroke" fill="none" stroke="black" points="650,100 644.9494949494949,107.275562532067 639.8989898989898,111.26971439912711 634.8484848484848,110.41980201085875 629.7979797979798,115.19862373687909 624.7474747474747,118.31886353660491 619.6969696969697,125.40207673469234 614.6464646464647,128.74802612610222 609.5959595959596,127.73764667545794 604.5454545454545,129.34576593345264 599.4949494949494,139.64458422491475 594.4444444444445,133.5479619392773 589.3939393939394,145.8059563778267 584.3434343434344,145.01755636346917 579.2929292929293,151.91447293256138 574.2424242424242,149.2268607786359 569.1919191919192,145.26796943712424 564.1414141414141,151.55954512749037 559.090909090909,160.68259028559618 554.040404040404,158.293179422586 548.989898989899,168.0144570500758 543.939393939394,167.53875666647974 538.8888888888889,169.6044885734079 533.8383838383838,175.88353657206224 528.7878787878788,177.15678640778293 523.7373737373737,181.31161647809049 518.6868686868687,182.9150202566206 513.6363636363636,188.62715501517044 508.5858585858586,184.80613866277918 503.5353535353535,190.93576930466853 498.4848484848485,195.46868229562676 493.4343434343434,196.51917851186505 488.3838383838384,201.57522820222695 483.3333333333333,206.28191013046862 478.2828282828283,205.81831515684127 473.2323232323232,212.2405166664047 468.1818181818182,216.70023415522652 463.1313131313131,216.73204604653966 458.0808080808081,218.03943032316047 453.030303030303,223.2089330418338 447.979797979798,224.89369643620014 442.9292929292929,229.00840974091372 437.8787878787879,231.27620346191264 432.8282828282828,235.72585656919074 427.77777777777777,237.0872225286371 422.72727272727275,256.36734007310633 417.67676767676767,254.51211561511082 412.62626262626264,261.07345895902387 407.57575757575756,259.0445359440355 402.52525252525254,265.27382507729516 397.47474747474746,265.9864958990578 392.4242424242424,266.896301914555 387.37373737373736,274.59787634511395 382.32323232323233,276.1376563410179 377.27272727272725,279.40858034273793 372.22222222222223,280.48511726646706 367.1717171717172,285.24613277898686 362.1212121212121,288.5264173593456 357.07070707070704,288.3444843083623 352.020202020202,291.1401302082295 346.969696969697,295.6986616249354 341.9191919191919,295.3527424970505 336.86868686868684,300.53357644249684 331.8181818181818,300.68721661669275 326.7676767676768,304.0074772020644 321.7171717171717,307.0165865230658 316.66666666666663,309.689418815983 311.6161616161616,315.2935198285912 306.5656565656566,316.6819118195956 301.5151515151515,317.38712233056356 296.4646464646464,321.6684961632185 291.4141414141414,324.8864941864707 286.3636363636364,333.0330831939608 281.3131313131313,335.1760222795848 276.26262626262627,337.7815710147688 271.2121212121212,339.6371473742169 266.16161616161617,342.3926061281996 261.1111111111111,343.22569762703466 256.06060606060606,347.12082442533904 251.010101010101,348.9108063540265 245.95959595959596,352.2441576734341 240.9090909090909,355.0830170716779 235.85858585858585,356.74328812494474 230.8080808080808,360.9374607776506 225.75757575757575,363.120305487997 220.7070707070707,365.20384360842564 215.65656565656565,370.59736679181066 210.6060606060606,373.5163189606614 205.55555555555554,375.28469414016047 200.50505050505052,377.31924757839016 195.45454545454544,379.42474434945973 190.40404040404042,381.3331763070852 185.35353535353534,383.22943247445136 180.3030303030303,387.0096282583435 175.25252525252526,388.97971335046077 170.2020202020202,391.26390567914984 165.15151515151516,394.23599496734005 160.1010101010101,396.00831144310797 155.05050505050505,398.1158492426025 150,399.999859239419 "/><text class="poloto_text" alignment-baseline="middle" text-anchor="start" font-size="large" x="675" y="300">indirect_par</text><line class="poloto4stroke" stroke="black" x1="680" x2="730" y1="281.25" y2="281.25"/><polyline class="poloto4stroke" fill="none" stroke="black" points="650,240.57526972659835 644.9494949494949,306.0371744002485 639.8989898989898,240.73073978834768 634.8484848484848,311.0700689750307 629.7979797979798,312.7957936984772 624.7474747474747,313.37312322157806 619.6969696969697,305.06381498241547 614.6464646464647,308.42524803773887 609.5959595959596,314.1687020255682 604.5454545454545,315.6854676664734 599.4949494949494,321.93066274538967 594.4444444444445,307.3557491430613 589.3939393939394,319.0937739952803 584.3434343434344,322.55908835940494 579.2929292929293,323.88941661073386 574.2424242424242,311.5110718754025 569.1919191919192,324.9449098275988 564.1414141414141,321.82115101334716 559.090909090909,326.8332130221367 554.040404040404,322.6797905576395 548.989898989899,323.6362587057487 543.939393939394,323.170974605149 538.8888888888889,322.0059696562415 533.8383838383838,326.8474298408209 528.7878787878788,331.2879335103319 523.7373737373737,335.3445126950795 518.6868686868687,324.0741648733378 513.6363636363636,330.1478431842671 508.5858585858586,330.72763601753593 503.5353535353535,264.79298693249143 498.4848484848485,337.541151942367 493.4343434343434,336.1227075673123 488.3838383838384,336.8600114907554 483.3333333333333,334.1574083349501 478.2828282828283,330.05698222921126 473.2323232323232,334.57771942991025 468.1818181818182,341.1018316001405 463.1313131313131,334.9998604124238 458.0808080808081,340.3937354972614 453.030303030303,330.54197281115535 447.979797979798,346.8008052443639 442.9292929292929,345.5678129348182 437.8787878787879,346.64800963365417 432.8282828282828,351.6573268111136 427.77777777777777,347.4228966322327 422.72727272727275,354.364715826674 417.67676767676767,343.55247331589936 412.62626262626264,347.68604853847114 407.57575757575756,343.5160867057027 402.52525252525254,344.7219826033998 397.47474747474746,356.282367602357 392.4242424242424,344.8623912829787 387.37373737373736,355.8121568814212 382.32323232323233,350.37689818576035 377.27272727272725,354.8515362961715 372.22222222222223,355.51339254818174 367.1717171717172,352.4541724603331 362.1212121212121,358.23021252267125 357.07070707070704,360.24006247892993 352.020202020202,351.00440885599886 346.969696969697,355.03677722080903 341.9191919191919,357.9530549386202 336.86868686868684,365.1528178978017 331.8181818181818,362.87798614775124 326.7676767676768,363.9880240897658 321.7171717171717,360.4958948349547 316.66666666666663,367.6593415642301 311.6161616161616,366.6590264951296 306.5656565656566,366.2304105258886 301.5151515151515,364.0576301970859 296.4646464646464,372.59996757814616 291.4141414141414,366.28699627946327 286.3636363636364,367.1525330922261 281.3131313131313,376.55695865181394 276.26262626262627,378.72171562749776 271.2121212121212,370.8194869886784 266.16161616161617,372.3307629669234 261.1111111111111,374.7618389619189 256.06060606060606,369.88666661818246 251.010101010101,378.4397721836916 245.95959595959596,377.9129053288906 240.9090909090909,371.2919498789107 235.85858585858585,378.57117218608454 230.8080808080808,377.9950391279225 225.75757575757575,382.23735189934115 220.7070707070707,372.73777218697603 215.65656565656565,372.60756864952185 210.6060606060606,373.49802008512734 205.55555555555554,375.8384462659385 200.50505050505052,374.62002267652963 195.45454545454544,379.3486632554122 190.40404040404042,377.23401704657556 185.35353535353534,379.5165202482923 180.3030303030303,390.80129602958976 175.25252525252526,392.4237728668496 170.2020202020202,393.72763812894465 165.15151515151516,395.9445468999007 160.1010101010101,397.1603664185605 155.05050505050505,398.7099996551366 150,399.99486223879234 "/><text class="poloto_text" alignment-baseline="middle" text-anchor="start" font-size="large" x="675" y="350">indirect_seq</text><line class="poloto5stroke" stroke="black" x1="680" x2="730" y1="331.25" y2="331.25"/><polyline class="poloto5stroke" fill="none" stroke="black" points="650,177.76719466742614 644.9494949494949,168.62683595785347 639.8989898989898,179.845031984323 634.8484848484848,178.16603977377898 629.7979797979798,182.87631109683693 624.7474747474747,184.70465028385544 619.6969696969697,181.01010731352096 614.6464646464647,185.4116906823768 609.5959595959596,185.2140628266085 604.5454545454545,186.7726343600801 599.4949494949494,195.6430142752343 594.4444444444445,189.42674549572004 589.3939393939394,200.5882150080339 584.3434343434344,204.5708948877399 579.2929292929293,204.011019676687 574.2424242424242,200.88043397425537 569.1919191919192,202.04705766984463 564.1414141414141,205.41010947184986 559.090909090909,216.0169822948995 554.040404040404,208.98634317382732 548.989898989899,221.28867719540173 543.939393939394,218.19335201851842 538.8888888888889,221.41465791542493 533.8383838383838,230.1651801958308 528.7878787878788,230.26561287039678 523.7373737373737,227.9988044734651 518.6868686868687,228.31523425962396 513.6363636363636,234.09479333648792 508.5858585858586,230.18333831078385 503.5353535353535,235.16436261145597 498.4848484848485,238.78986251679447 493.4343434343434,239.95317833872951 488.3838383838384,243.957887249367 483.3333333333333,248.62726762363528 478.2828282828283,244.72651040208962 473.2323232323232,252.5848921199177 468.1818181818182,259.15292159142973 463.1313131313131,255.5492395761511 458.0808080808081,256.1381114668965 453.030303030303,260.4453852464612 447.979797979798,262.01831435919803 442.9292929292929,266.3860448083158 437.8787878787879,266.62984213466234 432.8282828282828,273.8254526567035 427.77777777777777,274.6774060733968 422.72727272727275,285.45572528414283 417.67676767676767,284.3765842896646 412.62626262626264,294.38550616449237 407.57575757575756,289.1590657907918 402.52525252525254,295.1437834145092 397.47474747474746,293.6968350217956 392.4242424242424,294.75929588742156 387.37373737373736,300.74739176508376 382.32323232323233,306.08615908244747 377.27272727272725,307.1337697067746 372.22222222222223,308.57121676026856 367.1717171717172,311.14417942094383 362.1212121212121,314.33775548338707 357.07070707070704,314.3360663564147 352.020202020202,316.70760062563386 346.969696969697,317.80539239709873 341.9191919191919,320.338097531599 336.86868686868684,324.3790522918521 331.8181818181818,324.00723321705726 326.7676767676768,326.07099447585097 321.7171717171717,326.9465252898671 316.66666666666663,328.6404381220005 311.6161616161616,334.2120938206809 306.5656565656566,333.20642984950115 301.5151515151515,337.48773330186555 296.4646464646464,340.3622051271103 291.4141414141414,342.5745391791828 286.3636363636364,348.33016895727144 281.3131313131313,351.1845120194287 276.26262626262627,353.2731175207745 271.2121212121212,352.74709522945966 266.16161616161617,355.32273234117457 261.1111111111111,356.6988781616293 256.06060606060606,359.77534142065434 251.010101010101,362.36033911100776 245.95959595959596,363.4959954787701 240.9090909090909,365.8548612956965 235.85858585858585,367.3578323996606 230.8080808080808,370.57019999967156 225.75757575757575,372.1447478590902 220.7070707070707,373.39554638213633 215.65656565656565,376.82215158647733 210.6060606060606,379.2115624494875 205.55555555555554,381.4543711673533 200.50505050505052,382.8210860288789 195.45454545454544,384.4903657593318 190.40404040404042,385.64945876383587 185.35353535353534,387.28756002559027 180.3030303030303,389.7660723363934 175.25252525252526,391.74213975320447 170.2020202020202,393.043752846003 165.15151515151516,395.5471093993582 160.1010101010101,396.94718451858824 155.05050505050505,398.57458797618426 150,400 "/><text class="poloto_text" alignment-baseline="start" text-anchor="middle" font-size="x-large" x="400" y="37.5">Bench of rebal:32_bytes with abspiral(num,0.1)</text><text class="poloto_text" alignment-baseline="start" text-anchor="middle" font-size="x-large" x="400" y="481.25">Number of Elements</text><text class="poloto_text" alignment-baseline="start" text-anchor="middle" font-size="x-large" transform="rotate(-90,37.5,250)" x="37.5" y="250">Time in Seconds</text><path stroke="black" fill="none" class="poloto_axis_lines" d=" M 150 100 L 150 400 L 650 400"/></svg>