<svg class="poloto" height="500" viewBox="0 0 800 500" width="800" xmlns="http://www.w3.org/2000/svg">
<rect class="poloto_background" fill="white" height="500" width="800" x="0" y="0"/>
<style>
.poloto {
font-family: "Arial";
stroke-width:2;
}
.poloto_text{fill: var(--poloto_fg_color,black);  }
.poloto_axis_lines{stroke: var(--poloto_fg_color,black);stoke-width:3;fill:none}
.poloto_background{fill: var(--poloto_bg_color,aliceblue); }
.poloto0stroke{stroke:  var(--poloto_color0,blue); }
.poloto1stroke{stroke:  var(--poloto_color1,red); }
.poloto2stroke{stroke:  var(--poloto_color2,green); }
.poloto3stroke{stroke:  var(--poloto_color3,gold); }
.poloto4stroke{stroke:  var(--poloto_color4,aqua); }
.poloto5stroke{stroke:  var(--poloto_color5,brown); }
.poloto6stroke{stroke:  var(--poloto_color6,lime); }
.poloto7stroke{stroke:  var(--poloto_color7,chocolate); }
.poloto0fill{fill:var(--poloto_color0,blue);}
.poloto1fill{fill:var(--poloto_color1,red);}
.poloto2fill{fill:var(--poloto_color2,green);}
.poloto3fill{fill:var(--poloto_color3,gold);}
.poloto4fill{fill:var(--poloto_color4,aqua);}
.poloto5fill{fill:var(--poloto_color5,brown);}
.poloto6fill{fill:var(--poloto_color6,lime);}
.poloto7fill{fill:var(--poloto_color7,chocolate);}
</style>
<line class="poloto_axis_lines" stroke="black" x1="150" x2="150" y1="400" y2="405"/>
<text alignment-baseline="start" class="poloto_text" text-anchor="middle" x="150" y="440">
0
</text>
<line class="poloto_axis_lines" stroke="black" x1="234.17508" x2="234.17508" y1="400" y2="405"/>
<text alignment-baseline="start" class="poloto_text" text-anchor="middle" x="234.17508" y="440">
5000
</text>
<line class="poloto_axis_lines" stroke="black" x1="318.35016" x2="318.35016" y1="400" y2="405"/>
<text alignment-baseline="start" class="poloto_text" text-anchor="middle" x="318.35016" y="440">
10000
</text>
<line class="poloto_axis_lines" stroke="black" x1="402.52527" x2="402.52527" y1="400" y2="405"/>
<text alignment-baseline="start" class="poloto_text" text-anchor="middle" x="402.52527" y="440">
15000
</text>
<line class="poloto_axis_lines" stroke="black" x1="486.70035" x2="486.70035" y1="400" y2="405"/>
<text alignment-baseline="start" class="poloto_text" text-anchor="middle" x="486.70035" y="440">
20000
</text>
<line class="poloto_axis_lines" stroke="black" x1="570.8754" x2="570.8754" y1="400" y2="405"/>
<text alignment-baseline="start" class="poloto_text" text-anchor="middle" x="570.8754" y="440">
25000
</text>
<line class="poloto_axis_lines" stroke="black" x1="150" x2="144" y1="360.79688" y2="360.79688"/>
<text alignment-baseline="middle" class="poloto_text" text-anchor="end" x="120" y="360.79688">
0.002
</text>
<line class="poloto_axis_lines" stroke="black" x1="150" x2="144" y1="321.5907" y2="321.5907"/>
<text alignment-baseline="middle" class="poloto_text" text-anchor="end" x="120" y="321.5907">
0.004
</text>
<line class="poloto_axis_lines" stroke="black" x1="150" x2="144" y1="282.3845" y2="282.3845"/>
<text alignment-baseline="middle" class="poloto_text" text-anchor="end" x="120" y="282.3845">
0.006
</text>
<line class="poloto_axis_lines" stroke="black" x1="150" x2="144" y1="243.17834" y2="243.17834"/>
<text alignment-baseline="middle" class="poloto_text" text-anchor="end" x="120" y="243.17834">
0.008
</text>
<line class="poloto_axis_lines" stroke="black" x1="150" x2="144" y1="203.97214" y2="203.97214"/>
<text alignment-baseline="middle" class="poloto_text" text-anchor="end" x="120" y="203.97214">
0.010
</text>
<line class="poloto_axis_lines" stroke="black" x1="150" x2="144" y1="164.76593" y2="164.76593"/>
<text alignment-baseline="middle" class="poloto_text" text-anchor="end" x="120" y="164.76593">
0.012
</text>
<line class="poloto_axis_lines" stroke="black" x1="150" x2="144" y1="125.559784" y2="125.559784"/>
<text alignment-baseline="middle" class="poloto_text" text-anchor="end" x="120" y="125.559784">
0.014
</text>
<text alignment-baseline="middle" class="poloto_text" font-size="large" text-anchor="start" x="675" y="100">
default_par
</text>
<line class="poloto0stroke" x1="680" x2="730" y1="81.25" y2="81.25"/>
<polyline class="poloto0stroke" fill="none" points="650,374.2393 644.94946,376.78232 639.899,374.53534 634.8485,375.59796 629.798,376.56842 624.7475,377.40497 619.697,377.59604 614.6465,377.017 609.59595,375.12988 604.5455,378.40482 599.495,376.17603 594.44446,376.3849 589.3939,378.48007 584.34344,377.30664 579.29297,378.64365 574.24243,378.1829 569.1919,378.51318 564.1414,379.37082 559.09094,380.56653 554.0404,378.23392 548.98987,378.70743 543.9394,379.5214 538.8889,378.26053 533.8384,380.8248 528.78784,381.86813 523.73737,381.2181 518.6869,381.21432 513.63635,361.08185 508.58588,382.78003 503.53537,382.4755 498.48486,381.353 493.43436,377.88705 488.38385,383.1467 483.33334,381.09552 478.28284,380.52258 473.23233,383.23428 468.18182,380.74417 463.13132,385.03906 458.0808,381.16724 453.0303,376.55954 447.9798,385.04315 442.9293,385.8325 437.87878,384.81482 432.82828,387.2085 427.77777,383.55243 422.72726,381.6663 417.67676,341.60474 412.62628,388.23627 407.57578,385.43433 402.52527,387.90588 397.47473,388.80072 392.42426,388.51416 387.37375,388.97943 382.32324,388.96252 377.27274,388.64716 372.22223,387.8961 367.17172,389.06125 362.12122,388.57123 357.0707,388.69287 352.0202,387.81726 346.9697,386.91003 341.9192,388.61914 336.86868,387.38937 331.81818,390.46793 326.7677,388.43652 321.71716,389.57272 316.6667,390.95026 311.61615,389.27905 306.56567,392.02124 301.51514,390.30334 296.46466,391.9553 291.41412,392.08945 286.36365,391.9551 281.31314,393.17072 276.26263,392.3514 271.21213,393.28864 266.16162,393.42865 261.1111,389.93457 256.0606,387.1458 251.0101,393.55902 245.9596,391.50595 240.90909,394.00073 235.85858,394.1623 230.80807,394.60333 225.75757,394.57227 220.70706,394.74234 215.65657,394.24713 210.60606,392.104 205.55556,392.59998 200.50505,393.00552 195.45454,393.24945 190.40404,393.85117 185.35353,393.69083 180.30302,397.06952 175.25253,397.5886 170.20203,398.0027 165.15152,398.68445 160.10101,399.0737 155.0505,399.58447 150,399.99966 " stroke="black"/>
<text alignment-baseline="middle" class="poloto_text" font-size="large" text-anchor="start" x="675" y="150">
default_seq
</text>
<line class="poloto1stroke" x1="680" x2="730" y1="131.25" y2="131.25"/>
<polyline class="poloto1stroke" fill="none" points="650,337.75336 644.94946,338.18607 639.899,338.8045 634.8485,338.3197 629.798,339.14932 624.7475,340.07236 619.697,341.26144 614.6465,342.0951 609.59595,341.91357 604.5455,342.6845 599.495,343.99878 594.44446,343.67316 589.3939,345.52472 584.34344,345.33536 579.29297,346.4066 574.24243,346.36353 569.1919,345.90747 564.1414,347.3237 559.09094,348.4856 554.0404,343.7199 548.98987,349.92773 543.9394,350.12213 538.8889,351.14587 533.8384,351.68918 528.78784,351.8285 523.73737,353.24142 518.6869,353.46066 513.63635,354.4216 508.58588,352.71805 503.53537,354.45654 498.48486,355.84512 493.43436,356.13565 488.38385,356.612 483.33334,358.2666 478.28284,358.23575 473.23233,359.10022 468.18182,360.22302 463.13132,353.16113 458.0808,357.63068 453.0303,361.5329 447.9798,361.97763 442.9293,354.32962 437.87878,362.38034 432.82828,360.82175 427.77777,364.31665 422.72726,368.21436 417.67676,368.1202 412.62628,368.59814 407.57578,368.35223 402.52527,370.1194 397.47473,370.64114 392.42426,371.0302 387.37375,372.40082 382.32324,372.94824 377.27274,373.1626 372.22223,373.468 367.17172,374.7889 362.12122,375.3669 357.0707,375.29114 352.0202,375.9385 346.9697,376.4983 341.9192,376.87625 336.86868,378.0191 331.81818,378.0091 326.7677,378.77512 321.71716,379.31628 316.6667,379.8299 311.61615,380.83612 306.56567,381.23502 301.51514,381.75504 296.46466,382.41525 291.41412,383.077 286.36365,385.0955 281.31314,385.65543 276.26263,386.05338 271.21213,386.57745 266.16162,386.93567 261.1111,387.32303 256.0606,388.13312 251.0101,388.6597 245.9596,389.30365 240.90909,389.9757 235.85858,390.35416 230.80807,391.03687 225.75757,391.5286 220.70706,391.96606 215.65657,393.15216 210.60606,393.76544 205.55556,394.21298 200.50505,394.68008 195.45454,395.17413 190.40404,395.61517 185.35353,396.02548 180.30302,396.94583 175.25253,397.41934 170.20203,397.9225 165.15152,398.59613 160.10101,399.02707 155.0505,399.5379 150,400 " stroke="black"/>
<text alignment-baseline="middle" class="poloto_text" font-size="large" text-anchor="start" x="675" y="200">
direct_par
</text>
<line class="poloto2stroke" x1="680" x2="730" y1="181.25" y2="181.25"/>
<polyline class="poloto2stroke" fill="none" points="650,293.45883 644.94946,294.78186 639.899,295.92798 634.8485,295.91092 629.798,306.07455 624.7475,301.72754 619.697,304.80038 614.6465,307.51276 609.59595,307.92047 604.5455,306.8548 599.495,312.9811 594.44446,307.06213 589.3939,273.35107 584.34344,313.72754 579.29297,315.13983 574.24243,311.20685 569.1919,313.84738 564.1414,317.23328 559.09094,322.1273 554.0404,321.07587 548.98987,321.86176 543.9394,318.65756 538.8889,303.27386 533.8384,328.22516 528.78784,326.88177 523.73737,330.7963 518.6869,329.5487 513.63635,326.6147 508.58588,295.62915 503.53537,290.88245 498.48486,266.99658 493.43436,329.76566 488.38385,331.34955 483.33334,298.04785 478.28284,332.84476 473.23233,333.573 468.18182,302.07794 463.13132,336.19922 458.0808,338.76804 453.0303,300.26657 447.9798,337.99036 442.9293,337.12665 437.87878,340.05447 432.82828,316.572 427.77777,297.3233 422.72726,305.2223 417.67676,317.04584 412.62628,335.0711 407.57578,304.2805 402.52527,320.01825 397.47473,333.64386 392.42426,358.1693 387.37375,360.57785 382.32324,355.85526 377.27274,358.55292 372.22223,357.10284 367.17172,359.7245 362.12122,359.7456 357.0707,362.88818 352.0202,358.81274 346.9697,360.821 341.9192,361.67688 336.86868,362.34247 331.81818,367.02216 326.7677,366.3904 321.71716,366.6483 316.6667,368.48093 311.61615,369.9117 306.56567,370.26703 301.51514,371.58063 296.46466,368.96564 291.41412,370.27753 286.36365,376.00476 281.31314,374.8226 276.26263,374.7008 271.21213,377.1382 266.16162,378.99744 261.1111,379.24127 256.0606,373.32175 251.0101,370.96722 245.9596,381.12308 240.90909,381.78568 235.85858,382.86798 230.80807,383.65204 225.75757,382.83112 220.70706,377.52625 215.65657,381.7356 210.60606,382.8464 205.55556,385.16815 200.50505,385.11182 195.45454,385.50186 190.40404,387.28586 185.35353,387.81387 180.30302,389.40393 175.25253,391.20746 170.20203,392.75467 165.15152,395.29077 160.10101,396.70584 155.0505,398.56995 150,399.99652 " stroke="black"/>
<text alignment-baseline="middle" class="poloto_text" font-size="large" text-anchor="start" x="675" y="250">
direct_seq
</text>
<line class="poloto3stroke" x1="680" x2="730" y1="231.25" y2="231.25"/>
<polyline class="poloto3stroke" fill="none" points="650,100 644.94946,117.31607 639.899,123.21976 634.8485,122.82126 629.798,128.18198 624.7475,131.5503 619.697,137.99991 614.6465,144.54268 609.59595,145.21495 604.5455,146.3312 599.495,155.40587 594.44446,152.69208 589.3939,150.20012 584.34344,162.42181 579.29297,169.83365 574.24243,168.83621 569.1919,165.84134 564.1414,172.08978 559.09094,182.65517 554.0404,180.60388 548.98987,186.09026 543.9394,186.72159 538.8889,192.1723 533.8384,195.77023 528.78784,196.12299 523.73737,203.21858 518.6869,203.8816 513.63635,210.91634 508.58588,166.1794 503.53537,169.32196 498.48486,181.779 493.43436,198.66353 488.38385,195.21065 483.33334,200.4985 478.28284,192.33575 473.23233,205.59267 468.18182,204.58025 463.13132,219.73824 458.0808,218.61853 453.0303,214.77138 447.9798,228.91159 442.9293,233.05603 437.87878,222.0768 432.82828,207.68745 427.77777,230.6454 422.72726,231.7283 417.67676,261.6562 412.62628,267.10742 407.57578,251.29185 402.52527,256.59113 397.47473,261.61932 392.42426,283.17484 387.37375,289.60202 382.32324,291.22968 377.27274,293.10382 372.22223,292.97086 367.17172,299.12955 362.12122,301.12967 357.0707,300.64987 352.0202,303.14468 346.9697,307.66574 341.9192,306.82175 336.86868,311.9917 331.81818,312.565 326.7677,316.14603 321.71716,317.78424 316.6667,320.41122 311.61615,325.49384 306.56567,326.6704 301.51514,327.87082 296.46466,330.1422 291.41412,333.26794 286.36365,340.11578 281.31314,341.97626 276.26263,344.7404 271.21213,346.18707 266.16162,348.51453 261.1111,349.7326 256.0606,352.80905 251.0101,354.05005 245.9596,358.38086 240.90909,360.29626 235.85858,361.71747 230.80807,365.14136 225.75757,366.96893 220.70706,368.89255 215.65657,373.36945 210.60606,375.8454 205.55556,377.34036 200.50505,379.64267 195.45454,381.52875 190.40404,383.25333 185.35353,384.99432 180.30302,388.09424 175.25253,390.06204 170.20203,392.05643 165.15152,394.8183 160.10101,396.3309 155.0505,398.1936 150,399.9961 " stroke="black"/>
<text alignment-baseline="middle" class="poloto_text" font-size="large" text-anchor="start" x="675" y="300">
indirect_par
</text>
<line class="poloto4stroke" x1="680" x2="730" y1="281.25" y2="281.25"/>
<polyline class="poloto4stroke" fill="none" points="650,364.98108 644.94946,369.7377 639.899,368.88354 634.8485,370.04852 629.798,370.36554 624.7475,370.83405 619.697,368.51913 614.6465,369.32788 609.59595,369.9477 604.5455,372.7221 599.495,373.40897 594.44446,371.35468 589.3939,373.3449 584.34344,372.01495 579.29297,372.14056 574.24243,371.78397 569.1919,373.553 564.1414,373.16455 559.09094,373.49115 554.0404,355.98843 548.98987,375.4678 543.9394,371.5407 538.8889,374.69995 533.8384,378.11853 528.78784,377.52078 523.73737,377.67166 518.6869,377.07068 513.63635,377.10312 508.58588,373.9022 503.53537,371.98108 498.48486,361.5682 493.43436,358.39993 488.38385,375.7272 483.33334,365.44247 478.28284,321.00494 473.23233,377.5792 468.18182,362.71014 463.13132,377.13034 458.0808,378.0639 453.0303,369.24307 447.9798,379.27045 442.9293,377.04498 437.87878,374.97083 432.82828,378.51453 427.77777,372.425 422.72726,370.85812 417.67676,376.48584 412.62628,378.86868 407.57578,357.5927 402.52527,382.03613 397.47473,384.26218 392.42426,385.49203 387.37375,387.1879 382.32324,384.47778 377.27274,384.35672 372.22223,383.7568 367.17172,386.3546 362.12122,386.61847 357.0707,387.29123 352.0202,385.3907 346.9697,388.123 341.9192,388.3114 336.86868,386.73944 331.81818,387.63525 326.7677,389.6001 321.71716,385.08792 316.6667,389.7595 311.61615,390.56854 306.56567,390.27756 301.51514,390.48438 296.46466,390.18597 291.41412,391.24847 286.36365,389.09885 281.31314,392.36923 276.26263,392.60904 271.21213,393.21643 266.16162,388.63272 261.1111,387.48334 256.0606,390.18024 251.0101,391.34418 245.9596,393.07 240.90909,394.91455 235.85858,394.952 230.80807,394.617 225.75757,394.7862 220.70706,394.74692 215.65657,394.46094 210.60606,392.07944 205.55556,392.72177 200.50505,393.13925 195.45454,393.20407 190.40404,396.34576 185.35353,394.6551 180.30302,397.28073 175.25253,397.74542 170.20203,398.16647 165.15152,398.8066 160.10101,399.18948 155.0505,399.64255 150,399.9986 " stroke="black"/>
<text alignment-baseline="middle" class="poloto_text" font-size="large" text-anchor="start" x="675" y="350">
indirect_seq
</text>
<line class="poloto5stroke" x1="680" x2="730" y1="331.25" y2="331.25"/>
<polyline class="poloto5stroke" fill="none" points="650,314.10132 644.94946,312.51416 639.899,315.72095 634.8485,315.3551 629.798,317.48822 624.7475,316.65747 619.697,317.668 614.6465,322.60577 609.59595,323.1819 604.5455,323.6335 599.495,327.2484 594.44446,325.5949 589.3939,325.66205 584.34344,330.0102 579.29297,332.94562 574.24243,329.74484 569.1919,331.18985 564.1414,332.72583 559.09094,336.1626 554.0404,335.6628 548.98987,336.70703 543.9394,339.74533 538.8889,341.05984 533.8384,342.34137 528.78784,343.36804 523.73737,344.09778 518.6869,345.33484 513.63635,345.8324 508.58588,320.7785 503.53537,349.3659 498.48486,331.38913 493.43436,332.5494 488.38385,335.62973 483.33334,354.1861 478.28284,337.6682 473.23233,330.42963 468.18182,352.2547 463.13132,331.75705 458.0808,348.62894 453.0303,356.69495 447.9798,344.0312 442.9293,297.53494 437.87878,354.42032 432.82828,347.1436 427.77777,357.38278 422.72726,364.83887 417.67676,363.6037 412.62628,366.08084 407.57578,356.39972 402.52527,353.2112 397.47473,343.4449 392.42426,366.45068 387.37375,370.63037 382.32324,369.894 377.27274,370.22397 372.22223,370.40793 367.17172,372.11926 362.12122,372.9632 357.0707,372.37845 352.0202,373.41742 346.9697,374.2615 341.9192,373.4936 336.86868,375.7026 331.81818,376.6919 326.7677,377.62424 321.71716,378.07532 316.6667,378.83914 311.61615,380.1738 306.56567,379.6642 301.51514,380.89456 296.46466,380.96646 291.41412,381.8158 286.36365,384.4008 281.31314,385.02164 276.26263,385.68414 271.21213,385.41452 266.16162,386.77945 261.1111,386.37354 256.0606,387.4461 251.0101,388.0457 245.9596,389.20514 240.90909,389.53998 235.85858,390.00226 230.80807,390.87195 225.75757,391.11658 220.70706,391.81006 215.65657,393.05542 210.60606,393.54758 205.55556,394.17072 200.50505,394.64172 195.45454,395.21854 190.40404,395.69897 185.35353,396.1782 180.30302,397.08795 175.25253,397.33658 170.20203,398.0507 165.15152,398.70322 160.10101,399.13522 155.0505,399.59344 150,399.99884 " stroke="black"/>
<text alignment-baseline="start" class="poloto_text" font-size="x-large" text-anchor="middle" x="400" y="37.5">
Bench of rebal:256_bytes with abspiral(num,0.1)
</text>
<text alignment-baseline="start" class="poloto_text" font-size="large" text-anchor="middle" x="400" y="481.25">
Number of Elements
</text>
<text alignment-baseline="start" class="poloto_text" font-size="large" text-anchor="middle" transform="rotate(-90,37.5,250)" x="37.5" y="250">
Time in Seconds
</text>
<path class="poloto_axis_lines" d="M150,100 L150,400 L650,400" stroke="black"/>
</svg>