<svg class="poloto" width="800" height="500" viewBox="0 0 800 500" xmlns="http://www.w3.org/2000/svg"><circle  r="1e5" class="poloto_background" /><text  class="poloto_text poloto_legend_text" x="675" y="100" >default_seq</text><line  class="poloto_scatter poloto_legend_icon poloto0stroke poloto0legend" stroke="black" x1="685" x2="685" y1="81.25" y2="81.25" /><path  class="poloto_scatter poloto0stroke" d=" M 650.00 143.58 h 0 M 644.95 136.79 h 0 M 639.90 126.58 h 0 M 634.85 156.22 h 0 M 629.80 141.30 h 0 M 624.75 149.95 h 0 M 619.70 149.57 h 0 M 614.65 164.32 h 0 M 609.60 165.81 h 0 M 604.55 162.79 h 0 M 599.49 166.69 h 0 M 594.44 182.84 h 0 M 589.39 181.06 h 0 M 584.34 184.59 h 0 M 579.29 186.58 h 0 M 574.24 195.93 h 0 M 569.19 192.53 h 0 M 564.14 197.66 h 0 M 559.09 202.91 h 0 M 554.04 176.81 h 0 M 548.99 185.65 h 0 M 543.94 190.24 h 0 M 538.89 198.94 h 0 M 533.84 208.52 h 0 M 528.79 211.33 h 0 M 523.74 201.56 h 0 M 518.69 219.67 h 0 M 513.64 222.44 h 0 M 508.59 224.16 h 0 M 503.54 224.48 h 0 M 498.48 236.75 h 0 M 493.43 233.37 h 0 M 488.38 242.32 h 0 M 483.33 237.29 h 0 M 478.28 237.94 h 0 M 473.23 253.66 h 0 M 468.18 246.29 h 0 M 463.13 250.63 h 0 M 458.08 261.48 h 0 M 453.03 264.40 h 0 M 447.98 259.22 h 0 M 442.93 250.09 h 0 M 437.88 272.54 h 0 M 432.83 274.11 h 0 M 427.78 277.02 h 0 M 422.73 278.68 h 0 M 417.68 282.67 h 0 M 412.63 265.79 h 0 M 407.58 266.54 h 0 M 402.53 280.30 h 0 M 397.47 272.81 h 0 M 392.42 281.30 h 0 M 387.37 286.76 h 0 M 382.32 295.51 h 0 M 377.27 292.17 h 0 M 372.22 297.11 h 0 M 367.17 301.18 h 0 M 362.12 308.68 h 0 M 357.07 295.86 h 0 M 352.02 311.56 h 0 M 346.97 311.50 h 0 M 341.92 312.83 h 0 M 336.87 320.03 h 0 M 331.82 317.61 h 0 M 326.77 320.93 h 0 M 321.72 317.91 h 0 M 316.67 316.68 h 0 M 311.62 327.79 h 0 M 306.57 323.11 h 0 M 301.52 326.36 h 0 M 296.46 334.76 h 0 M 291.41 333.79 h 0 M 286.36 332.68 h 0 M 281.31 336.91 h 0 M 276.26 337.79 h 0 M 271.21 343.00 h 0 M 266.16 345.27 h 0 M 261.11 343.85 h 0 M 256.06 347.43 h 0 M 251.01 353.06 h 0 M 245.96 355.35 h 0 M 240.91 355.23 h 0 M 235.86 357.72 h 0 M 230.81 363.13 h 0 M 225.76 363.83 h 0 M 220.71 367.09 h 0 M 215.66 370.77 h 0 M 210.61 369.36 h 0 M 205.56 374.35 h 0 M 200.51 377.04 h 0 M 195.45 380.09 h 0 M 190.40 383.02 h 0 M 185.35 383.94 h 0 M 180.30 385.34 h 0 M 175.25 387.86 h 0 M 170.20 390.98 h 0 M 165.15 393.69 h 0 M 160.10 395.98 h 0 M 155.05 397.98 h 0 M 150.00 400.00 h 0" /><text  class="poloto_text poloto_legend_text" x="675" y="150" >direct_seq</text><line  class="poloto_scatter poloto_legend_icon poloto1stroke poloto1legend" stroke="black" x1="685" x2="685" y1="131.25" y2="131.25" /><path  class="poloto_scatter poloto1stroke" d=" M 650.00 158.02 h 0 M 644.95 152.47 h 0 M 639.90 179.24 h 0 M 634.85 179.36 h 0 M 629.80 181.64 h 0 M 624.75 186.38 h 0 M 619.70 188.62 h 0 M 614.65 191.47 h 0 M 609.60 192.05 h 0 M 604.55 194.11 h 0 M 599.49 197.98 h 0 M 594.44 202.00 h 0 M 589.39 203.83 h 0 M 584.34 206.36 h 0 M 579.29 210.82 h 0 M 574.24 212.91 h 0 M 569.19 211.60 h 0 M 564.14 218.53 h 0 M 559.09 221.34 h 0 M 554.04 222.42 h 0 M 548.99 210.83 h 0 M 543.94 211.30 h 0 M 538.89 228.64 h 0 M 533.84 232.51 h 0 M 528.79 235.69 h 0 M 523.74 238.72 h 0 M 518.69 240.58 h 0 M 513.64 243.10 h 0 M 508.59 244.49 h 0 M 503.54 248.62 h 0 M 498.48 250.15 h 0 M 493.43 245.50 h 0 M 488.38 256.19 h 0 M 483.33 258.96 h 0 M 478.28 259.79 h 0 M 473.23 264.38 h 0 M 468.18 267.49 h 0 M 463.13 270.19 h 0 M 458.08 272.30 h 0 M 453.03 274.11 h 0 M 447.98 273.71 h 0 M 442.93 276.59 h 0 M 437.88 281.74 h 0 M 432.83 283.12 h 0 M 427.78 284.72 h 0 M 422.73 287.96 h 0 M 417.68 290.39 h 0 M 412.63 292.51 h 0 M 407.58 291.30 h 0 M 402.53 296.42 h 0 M 397.47 299.06 h 0 M 392.42 300.67 h 0 M 387.37 303.17 h 0 M 382.32 306.01 h 0 M 377.27 307.14 h 0 M 372.22 308.09 h 0 M 367.17 312.20 h 0 M 362.12 314.76 h 0 M 357.07 316.76 h 0 M 352.02 318.75 h 0 M 346.97 320.99 h 0 M 341.92 322.65 h 0 M 336.87 325.30 h 0 M 331.82 327.05 h 0 M 326.77 329.43 h 0 M 321.72 330.51 h 0 M 316.67 332.95 h 0 M 311.62 335.02 h 0 M 306.57 337.72 h 0 M 301.52 338.49 h 0 M 296.46 340.04 h 0 M 291.41 343.00 h 0 M 286.36 336.35 h 0 M 281.31 340.75 h 0 M 276.26 343.47 h 0 M 271.21 345.26 h 0 M 266.16 348.41 h 0 M 261.11 350.13 h 0 M 256.06 353.69 h 0 M 251.01 355.99 h 0 M 245.96 358.96 h 0 M 240.91 358.92 h 0 M 235.86 363.48 h 0 M 230.81 365.42 h 0 M 225.76 368.70 h 0 M 220.71 370.79 h 0 M 215.66 372.45 h 0 M 210.61 374.99 h 0 M 205.56 377.38 h 0 M 200.51 380.01 h 0 M 195.45 382.00 h 0 M 190.40 384.33 h 0 M 185.35 385.08 h 0 M 180.30 385.13 h 0 M 175.25 388.61 h 0 M 170.20 391.68 h 0 M 165.15 393.92 h 0 M 160.10 396.20 h 0 M 155.05 398.10 h 0 M 150.00 400.00 h 0" /><text  class="poloto_text poloto_legend_text" x="675" y="200" >indirect_seq</text><line  class="poloto_scatter poloto_legend_icon poloto2stroke poloto2legend" stroke="black" x1="685" x2="685" y1="181.25" y2="181.25" /><path  class="poloto_scatter poloto2stroke" d=" M 650.00 125.44 h 0 M 644.95 100.00 h 0 M 639.90 124.26 h 0 M 634.85 123.30 h 0 M 629.80 143.71 h 0 M 624.75 147.39 h 0 M 619.70 144.62 h 0 M 614.65 154.71 h 0 M 609.60 158.56 h 0 M 604.55 156.63 h 0 M 599.49 141.28 h 0 M 594.44 142.96 h 0 M 589.39 171.09 h 0 M 584.34 160.88 h 0 M 579.29 161.17 h 0 M 574.24 165.39 h 0 M 569.19 169.50 h 0 M 564.14 171.55 h 0 M 559.09 184.19 h 0 M 554.04 174.67 h 0 M 548.99 182.22 h 0 M 543.94 179.97 h 0 M 538.89 185.28 h 0 M 533.84 199.57 h 0 M 528.79 209.11 h 0 M 523.74 198.61 h 0 M 518.69 206.52 h 0 M 513.64 218.14 h 0 M 508.59 218.10 h 0 M 503.54 210.57 h 0 M 498.48 215.81 h 0 M 493.43 220.27 h 0 M 488.38 225.48 h 0 M 483.33 224.56 h 0 M 478.28 240.80 h 0 M 473.23 243.87 h 0 M 468.18 238.67 h 0 M 463.13 241.65 h 0 M 458.08 242.99 h 0 M 453.03 244.37 h 0 M 447.98 255.49 h 0 M 442.93 256.79 h 0 M 437.88 261.99 h 0 M 432.83 266.94 h 0 M 427.78 269.02 h 0 M 422.73 271.38 h 0 M 417.68 274.36 h 0 M 412.63 275.89 h 0 M 407.58 273.24 h 0 M 402.53 265.12 h 0 M 397.47 280.34 h 0 M 392.42 281.64 h 0 M 387.37 283.53 h 0 M 382.32 291.17 h 0 M 377.27 289.32 h 0 M 372.22 292.13 h 0 M 367.17 297.24 h 0 M 362.12 301.04 h 0 M 357.07 301.85 h 0 M 352.02 307.52 h 0 M 346.97 309.53 h 0 M 341.92 308.22 h 0 M 336.87 313.31 h 0 M 331.82 314.05 h 0 M 326.77 318.65 h 0 M 321.72 322.71 h 0 M 316.67 322.07 h 0 M 311.62 325.52 h 0 M 306.57 326.86 h 0 M 301.52 330.73 h 0 M 296.46 334.64 h 0 M 291.41 334.91 h 0 M 286.36 326.61 h 0 M 281.31 332.53 h 0 M 276.26 334.79 h 0 M 271.21 338.45 h 0 M 266.16 341.60 h 0 M 261.11 344.15 h 0 M 256.06 346.72 h 0 M 251.01 350.49 h 0 M 245.96 353.28 h 0 M 240.91 355.90 h 0 M 235.86 359.13 h 0 M 230.81 362.01 h 0 M 225.76 363.26 h 0 M 220.71 367.48 h 0 M 215.66 368.92 h 0 M 210.61 371.82 h 0 M 205.56 375.12 h 0 M 200.51 377.62 h 0 M 195.45 379.10 h 0 M 190.40 381.37 h 0 M 185.35 384.76 h 0 M 180.30 384.87 h 0 M 175.25 387.62 h 0 M 170.20 390.94 h 0 M 165.15 393.21 h 0 M 160.10 395.49 h 0 M 155.05 397.85 h 0 M 150.00 400.00 h 0" /><text  class="poloto_labels poloto_text poloto_title" x="400" y="37.5" >Bench of query:128_bytes with abspiral(num,1.5)</text><text  class="poloto_labels poloto_text poloto_xname" x="400" y="481.25" >Number of Elements</text><text  class="poloto_labels poloto_text poloto_yname" transform="rotate(-90,37.5,250)" x="37.5" y="250" >Time in Seconds</text><text  class="poloto_tick_labels poloto_text" dominant-baseline="middle" text-anchor="start" x="150" y="70" ></text><line  class="poloto_axis_lines" stroke="black" x1="150" x2="144" y1="400" y2="400" /><text  class="poloto_tick_labels poloto_text" dominant-baseline="middle" text-anchor="end" x="135" y="400" >0e0</text><line  class="poloto_axis_lines" stroke="black" x1="150" x2="144" y1="338.78316855462776" y2="338.78316855462776" /><text  class="poloto_tick_labels poloto_text" dominant-baseline="middle" text-anchor="end" x="135" y="338.78316855462776" >0.001</text><line  class="poloto_axis_lines" stroke="black" x1="150" x2="144" y1="277.5663371092555" y2="277.5663371092555" /><text  class="poloto_tick_labels poloto_text" dominant-baseline="middle" text-anchor="end" x="135" y="277.5663371092555" >0.002</text><line  class="poloto_axis_lines" stroke="black" x1="150" x2="144" y1="216.3495056638833" y2="216.3495056638833" /><text  class="poloto_tick_labels poloto_text" dominant-baseline="middle" text-anchor="end" x="135" y="216.3495056638833" >0.003</text><line  class="poloto_axis_lines" stroke="black" x1="150" x2="144" y1="155.13267421851103" y2="155.13267421851103" /><text  class="poloto_tick_labels poloto_text" dominant-baseline="middle" text-anchor="end" x="135" y="155.13267421851103" >0.004</text><text  class="poloto_tick_labels poloto_text" dominant-baseline="middle" text-anchor="start" x="440.00000000000006" y="70" ></text><line  class="poloto_axis_lines" stroke="black" x1="150" x2="150" y1="400" y2="405" /><text  class="poloto_tick_labels poloto_text" dominant-baseline="start" text-anchor="middle" x="150" y="430" >0</text><line  class="poloto_axis_lines" stroke="black" x1="234.17508417508418" x2="234.17508417508418" y1="400" y2="405" /><text  class="poloto_tick_labels poloto_text" dominant-baseline="start" text-anchor="middle" x="234.17508417508418" y="430" >5000</text><line  class="poloto_axis_lines" stroke="black" x1="318.35016835016836" x2="318.35016835016836" y1="400" y2="405" /><text  class="poloto_tick_labels poloto_text" dominant-baseline="start" text-anchor="middle" x="318.35016835016836" y="430" >10000</text><line  class="poloto_axis_lines" stroke="black" x1="402.52525252525254" x2="402.52525252525254" y1="400" y2="405" /><text  class="poloto_tick_labels poloto_text" dominant-baseline="start" text-anchor="middle" x="402.52525252525254" y="430" >15000</text><line  class="poloto_axis_lines" stroke="black" x1="486.7003367003367" x2="486.7003367003367" y1="400" y2="405" /><text  class="poloto_tick_labels poloto_text" dominant-baseline="start" text-anchor="middle" x="486.7003367003367" y="430" >20000</text><line  class="poloto_axis_lines" stroke="black" x1="570.8754208754208" x2="570.8754208754208" y1="400" y2="405" /><text  class="poloto_tick_labels poloto_text" dominant-baseline="start" text-anchor="middle" x="570.8754208754208" y="430" >25000</text><path  stroke="black" fill="none" class="poloto_axis_lines" style="stroke-dasharray:8.417508417508419;stroke-dashoffset:-0;" d=" M 150 400 L 650 400" /><path  stroke="black" fill="none" class="poloto_axis_lines" style="stroke-dasharray:6.121683144537224;stroke-dashoffset:-0;" d=" M 150 400 L 150 100" /></svg>