<svg class="poloto" width="800" height="500" viewBox="0 0 800 500" xmlns="http://www.w3.org/2000/svg"><circle  r="1e5" class="poloto_background" /><text  class="poloto_text poloto_legend_text" x="675" y="100" >default_seq</text><line  class="poloto_scatter poloto_legend_icon poloto0stroke poloto0legend" stroke="black" x1="685" x2="685" y1="81.25" y2="81.25" /><path  class="poloto_scatter poloto0stroke" d=" M 650.00 392.18 h 0 M 644.95 392.25 h 0 M 639.90 392.28 h 0 M 634.85 392.34 h 0 M 629.80 392.47 h 0 M 624.75 392.57 h 0 M 619.70 392.61 h 0 M 614.65 392.73 h 0 M 609.60 392.94 h 0 M 604.55 392.80 h 0 M 599.49 393.04 h 0 M 594.44 393.05 h 0 M 589.39 393.26 h 0 M 584.34 392.96 h 0 M 579.29 393.33 h 0 M 574.24 393.45 h 0 M 569.19 393.52 h 0 M 564.14 393.50 h 0 M 559.09 393.80 h 0 M 554.04 392.80 h 0 M 548.99 393.88 h 0 M 543.94 393.93 h 0 M 538.89 394.03 h 0 M 533.84 394.11 h 0 M 528.79 394.20 h 0 M 523.74 394.28 h 0 M 518.69 394.32 h 0 M 513.64 394.17 h 0 M 508.59 394.44 h 0 M 503.54 394.50 h 0 M 498.48 394.61 h 0 M 493.43 394.70 h 0 M 488.38 394.89 h 0 M 483.33 394.82 h 0 M 478.28 394.95 h 0 M 473.23 395.06 h 0 M 468.18 395.03 h 0 M 463.13 395.23 h 0 M 458.08 395.16 h 0 M 453.03 395.34 h 0 M 447.98 395.33 h 0 M 442.93 395.59 h 0 M 437.88 395.61 h 0 M 432.83 395.61 h 0 M 427.78 395.64 h 0 M 422.73 395.86 h 0 M 417.68 395.90 h 0 M 412.63 395.93 h 0 M 407.58 396.07 h 0 M 402.53 396.07 h 0 M 397.47 396.29 h 0 M 392.42 396.36 h 0 M 387.37 396.44 h 0 M 382.32 396.37 h 0 M 377.27 396.43 h 0 M 372.22 396.50 h 0 M 367.17 396.68 h 0 M 362.12 396.65 h 0 M 357.07 396.76 h 0 M 352.02 397.05 h 0 M 346.97 397.13 h 0 M 341.92 397.11 h 0 M 336.87 397.10 h 0 M 331.82 397.31 h 0 M 326.77 397.28 h 0 M 321.72 397.31 h 0 M 316.67 397.52 h 0 M 311.62 397.60 h 0 M 306.57 397.71 h 0 M 301.52 397.66 h 0 M 296.46 397.85 h 0 M 291.41 397.84 h 0 M 286.36 398.24 h 0 M 281.31 398.30 h 0 M 276.26 398.37 h 0 M 271.21 398.44 h 0 M 266.16 398.55 h 0 M 261.11 398.65 h 0 M 256.06 398.66 h 0 M 251.01 398.73 h 0 M 245.96 398.73 h 0 M 240.91 398.83 h 0 M 235.86 398.88 h 0 M 230.81 398.98 h 0 M 225.76 399.06 h 0 M 220.71 399.11 h 0 M 215.66 399.18 h 0 M 210.61 399.27 h 0 M 205.56 399.31 h 0 M 200.51 399.36 h 0 M 195.45 399.42 h 0 M 190.40 399.53 h 0 M 185.35 399.54 h 0 M 180.30 399.69 h 0 M 175.25 399.75 h 0 M 170.20 399.80 h 0 M 165.15 399.84 h 0 M 160.10 399.89 h 0 M 155.05 399.96 h 0 M 150.00 400.00 h 0" /><text  class="poloto_text poloto_legend_text" x="675" y="150" >direct_seq</text><line  class="poloto_scatter poloto_legend_icon poloto1stroke poloto1legend" stroke="black" x1="685" x2="685" y1="131.25" y2="131.25" /><path  class="poloto_scatter poloto1stroke" d=" M 650.00 100.00 h 0 M 644.95 103.08 h 0 M 639.90 104.35 h 0 M 634.85 107.19 h 0 M 629.80 111.04 h 0 M 624.75 113.85 h 0 M 619.70 117.17 h 0 M 614.65 122.67 h 0 M 609.60 123.95 h 0 M 604.55 124.68 h 0 M 599.49 129.71 h 0 M 594.44 131.90 h 0 M 589.39 137.12 h 0 M 584.34 136.90 h 0 M 579.29 141.45 h 0 M 574.24 146.65 h 0 M 569.19 150.77 h 0 M 564.14 151.28 h 0 M 559.09 158.25 h 0 M 554.04 161.31 h 0 M 548.99 160.20 h 0 M 543.94 148.77 h 0 M 538.89 166.96 h 0 M 533.84 170.22 h 0 M 528.79 174.21 h 0 M 523.74 175.45 h 0 M 518.69 175.50 h 0 M 513.64 176.41 h 0 M 508.59 182.81 h 0 M 503.54 185.06 h 0 M 498.48 189.86 h 0 M 493.43 193.91 h 0 M 488.38 195.76 h 0 M 483.33 198.39 h 0 M 478.28 201.37 h 0 M 473.23 206.27 h 0 M 468.18 205.81 h 0 M 463.13 210.29 h 0 M 458.08 212.22 h 0 M 453.03 216.11 h 0 M 447.98 218.61 h 0 M 442.93 224.09 h 0 M 437.88 224.56 h 0 M 432.83 228.51 h 0 M 427.78 230.33 h 0 M 422.73 235.41 h 0 M 417.68 236.71 h 0 M 412.63 240.31 h 0 M 407.58 243.57 h 0 M 402.53 246.85 h 0 M 397.47 249.54 h 0 M 392.42 254.09 h 0 M 387.37 257.11 h 0 M 382.32 260.35 h 0 M 377.27 262.06 h 0 M 372.22 265.70 h 0 M 367.17 271.48 h 0 M 362.12 271.32 h 0 M 357.07 275.47 h 0 M 352.02 279.45 h 0 M 346.97 284.10 h 0 M 341.92 284.09 h 0 M 336.87 287.45 h 0 M 331.82 290.79 h 0 M 326.77 292.54 h 0 M 321.72 296.37 h 0 M 316.67 299.33 h 0 M 311.62 301.63 h 0 M 306.57 305.83 h 0 M 301.52 309.26 h 0 M 296.46 312.58 h 0 M 291.41 315.72 h 0 M 286.36 329.59 h 0 M 281.31 331.61 h 0 M 276.26 334.87 h 0 M 271.21 336.36 h 0 M 266.16 340.88 h 0 M 261.11 344.60 h 0 M 256.06 346.43 h 0 M 251.01 348.88 h 0 M 245.96 350.27 h 0 M 240.91 353.07 h 0 M 235.86 355.07 h 0 M 230.81 358.64 h 0 M 225.76 362.36 h 0 M 220.71 364.09 h 0 M 215.66 366.28 h 0 M 210.61 369.91 h 0 M 205.56 371.90 h 0 M 200.51 374.77 h 0 M 195.45 376.91 h 0 M 190.40 380.11 h 0 M 185.35 382.24 h 0 M 180.30 387.06 h 0 M 175.25 389.75 h 0 M 170.20 391.68 h 0 M 165.15 393.64 h 0 M 160.10 396.15 h 0 M 155.05 398.44 h 0 M 150.00 400.00 h 0" /><text  class="poloto_text poloto_legend_text" x="675" y="200" >indirect_seq</text><line  class="poloto_scatter poloto_legend_icon poloto2stroke poloto2legend" stroke="black" x1="685" x2="685" y1="181.25" y2="181.25" /><path  class="poloto_scatter poloto2stroke" d=" M 650.00 377.07 h 0 M 644.95 378.39 h 0 M 639.90 377.02 h 0 M 634.85 379.39 h 0 M 629.80 379.80 h 0 M 624.75 380.57 h 0 M 619.70 378.72 h 0 M 614.65 380.99 h 0 M 609.60 381.23 h 0 M 604.55 381.66 h 0 M 599.49 382.59 h 0 M 594.44 382.35 h 0 M 589.39 383.56 h 0 M 584.34 382.81 h 0 M 579.29 383.50 h 0 M 574.24 384.24 h 0 M 569.19 384.37 h 0 M 564.14 384.56 h 0 M 559.09 384.45 h 0 M 554.04 385.24 h 0 M 548.99 385.56 h 0 M 543.94 384.81 h 0 M 538.89 386.06 h 0 M 533.84 386.65 h 0 M 528.79 385.81 h 0 M 523.74 386.86 h 0 M 518.69 387.13 h 0 M 513.64 386.19 h 0 M 508.59 387.51 h 0 M 503.54 387.47 h 0 M 498.48 387.97 h 0 M 493.43 388.21 h 0 M 488.38 388.66 h 0 M 483.33 387.70 h 0 M 478.28 389.09 h 0 M 473.23 389.64 h 0 M 468.18 388.97 h 0 M 463.13 389.74 h 0 M 458.08 389.70 h 0 M 453.03 390.18 h 0 M 447.98 390.06 h 0 M 442.93 390.32 h 0 M 437.88 390.63 h 0 M 432.83 391.09 h 0 M 427.78 391.20 h 0 M 422.73 391.37 h 0 M 417.68 391.57 h 0 M 412.63 391.88 h 0 M 407.58 391.93 h 0 M 402.53 392.18 h 0 M 397.47 392.52 h 0 M 392.42 392.86 h 0 M 387.37 392.97 h 0 M 382.32 393.16 h 0 M 377.27 393.36 h 0 M 372.22 393.39 h 0 M 367.17 393.99 h 0 M 362.12 393.72 h 0 M 357.07 394.04 h 0 M 352.02 394.44 h 0 M 346.97 394.66 h 0 M 341.92 394.52 h 0 M 336.87 394.79 h 0 M 331.82 394.96 h 0 M 326.77 395.07 h 0 M 321.72 395.21 h 0 M 316.67 395.43 h 0 M 311.62 395.59 h 0 M 306.57 395.89 h 0 M 301.52 395.99 h 0 M 296.46 396.21 h 0 M 291.41 396.36 h 0 M 286.36 396.80 h 0 M 281.31 396.97 h 0 M 276.26 397.05 h 0 M 271.21 397.19 h 0 M 266.16 397.47 h 0 M 261.11 397.68 h 0 M 256.06 397.74 h 0 M 251.01 397.82 h 0 M 245.96 397.87 h 0 M 240.91 398.03 h 0 M 235.86 398.09 h 0 M 230.81 398.31 h 0 M 225.76 398.47 h 0 M 220.71 398.57 h 0 M 215.66 398.65 h 0 M 210.61 398.83 h 0 M 205.56 398.93 h 0 M 200.51 399.05 h 0 M 195.45 399.13 h 0 M 190.40 399.31 h 0 M 185.35 399.32 h 0 M 180.30 399.54 h 0 M 175.25 399.64 h 0 M 170.20 399.73 h 0 M 165.15 399.80 h 0 M 160.10 399.89 h 0 M 155.05 399.95 h 0 M 150.00 400.00 h 0" /><text  class="poloto_labels poloto_text poloto_title" x="400" y="37.5" >Bench of rebal:256_bytes with abspiral(num,1.5)</text><text  class="poloto_labels poloto_text poloto_xname" x="400" y="481.25" >Number of Elements</text><text  class="poloto_labels poloto_text poloto_yname" transform="rotate(-90,37.5,250)" x="37.5" y="250" >Time in Seconds</text><text  class="poloto_tick_labels poloto_text" dominant-baseline="middle" text-anchor="start" x="150" y="70" ></text><line  class="poloto_axis_lines" stroke="black" x1="150" x2="144" y1="400" y2="400" /><text  class="poloto_tick_labels poloto_text" dominant-baseline="middle" text-anchor="end" x="135" y="400" >0e0</text><line  class="poloto_axis_lines" stroke="black" x1="150" x2="144" y1="334.7799651575008" y2="334.7799651575008" /><text  class="poloto_tick_labels poloto_text" dominant-baseline="middle" text-anchor="end" x="135" y="334.7799651575008" >0.02</text><line  class="poloto_axis_lines" stroke="black" x1="150" x2="144" y1="269.55993031500157" y2="269.55993031500157" /><text  class="poloto_tick_labels poloto_text" dominant-baseline="middle" text-anchor="end" x="135" y="269.55993031500157" >0.04</text><line  class="poloto_axis_lines" stroke="black" x1="150" x2="144" y1="204.33989547250235" y2="204.33989547250235" /><text  class="poloto_tick_labels poloto_text" dominant-baseline="middle" text-anchor="end" x="135" y="204.33989547250235" >0.06</text><line  class="poloto_axis_lines" stroke="black" x1="150" x2="144" y1="139.1198606300032" y2="139.1198606300032" /><text  class="poloto_tick_labels poloto_text" dominant-baseline="middle" text-anchor="end" x="135" y="139.1198606300032" >0.08</text><text  class="poloto_tick_labels poloto_text" dominant-baseline="middle" text-anchor="start" x="440.00000000000006" y="70" ></text><line  class="poloto_axis_lines" stroke="black" x1="150" x2="150" y1="400" y2="405" /><text  class="poloto_tick_labels poloto_text" dominant-baseline="start" text-anchor="middle" x="150" y="430" >0</text><line  class="poloto_axis_lines" stroke="black" x1="234.17508417508418" x2="234.17508417508418" y1="400" y2="405" /><text  class="poloto_tick_labels poloto_text" dominant-baseline="start" text-anchor="middle" x="234.17508417508418" y="430" >5000</text><line  class="poloto_axis_lines" stroke="black" x1="318.35016835016836" x2="318.35016835016836" y1="400" y2="405" /><text  class="poloto_tick_labels poloto_text" dominant-baseline="start" text-anchor="middle" x="318.35016835016836" y="430" >10000</text><line  class="poloto_axis_lines" stroke="black" x1="402.52525252525254" x2="402.52525252525254" y1="400" y2="405" /><text  class="poloto_tick_labels poloto_text" dominant-baseline="start" text-anchor="middle" x="402.52525252525254" y="430" >15000</text><line  class="poloto_axis_lines" stroke="black" x1="486.7003367003367" x2="486.7003367003367" y1="400" y2="405" /><text  class="poloto_tick_labels poloto_text" dominant-baseline="start" text-anchor="middle" x="486.7003367003367" y="430" >20000</text><line  class="poloto_axis_lines" stroke="black" x1="570.8754208754208" x2="570.8754208754208" y1="400" y2="405" /><text  class="poloto_tick_labels poloto_text" dominant-baseline="start" text-anchor="middle" x="570.8754208754208" y="430" >25000</text><path  stroke="black" fill="none" class="poloto_axis_lines" style="stroke-dasharray:8.417508417508419;stroke-dashoffset:-0;" d=" M 150 400 L 650 400" /><path  stroke="black" fill="none" class="poloto_axis_lines" style="stroke-dasharray:8.1525043553124;stroke-dashoffset:-0;" d=" M 150 400 L 150 100" /></svg>