<svg class="poloto" width="800" height="500" viewBox="0 0 800 500" xmlns="http://www.w3.org/2000/svg"><style>.poloto {
            font-family: "Arial";
            stroke-width:2;
            }
            .poloto_text{fill: var(--poloto_fg_color,black);  }
            .poloto_axis_lines{stroke: var(--poloto_fg_color,black);stoke-width:3;fill:none}
            .poloto_background{fill: var(--poloto_bg_color,aliceblue); }
            .poloto0stroke{stroke:  var(--poloto_color0,blue); }
            .poloto1stroke{stroke:  var(--poloto_color1,red); }
            .poloto2stroke{stroke:  var(--poloto_color2,green); }
            .poloto3stroke{stroke:  var(--poloto_color3,gold); }
            .poloto4stroke{stroke:  var(--poloto_color4,aqua); }
            .poloto5stroke{stroke:  var(--poloto_color5,brown); }
            .poloto6stroke{stroke:  var(--poloto_color6,lime); }
            .poloto7stroke{stroke:  var(--poloto_color7,chocolate); }
            .poloto0fill{fill:var(--poloto_color0,blue);}
            .poloto1fill{fill:var(--poloto_color1,red);}
            .poloto2fill{fill:var(--poloto_color2,green);}
            .poloto3fill{fill:var(--poloto_color3,gold);}
            .poloto4fill{fill:var(--poloto_color4,aqua);}
            .poloto5fill{fill:var(--poloto_color5,brown);}
            .poloto6fill{fill:var(--poloto_color6,lime);}
            .poloto7fill{fill:var(--poloto_color7,chocolate);}</style><rect class="poloto_background" fill="white" x="0" y="0" width="800" height="500"/><line class="poloto_axis_lines" stroke="black" x1="150" x2="150" y1="400" y2="405"/><text class="poloto_text" alignment-baseline="start" text-anchor="middle" x="150" y="430">0</text><line class="poloto_axis_lines" stroke="black" x1="234.17508417508418" x2="234.17508417508418" y1="400" y2="405"/><text class="poloto_text" alignment-baseline="start" text-anchor="middle" x="234.17508417508418" y="430">5000</text><line class="poloto_axis_lines" stroke="black" x1="318.35016835016836" x2="318.35016835016836" y1="400" y2="405"/><text class="poloto_text" alignment-baseline="start" text-anchor="middle" x="318.35016835016836" y="430">10000</text><line class="poloto_axis_lines" stroke="black" x1="402.52525252525254" x2="402.52525252525254" y1="400" y2="405"/><text class="poloto_text" alignment-baseline="start" text-anchor="middle" x="402.52525252525254" y="430">15000</text><line class="poloto_axis_lines" stroke="black" x1="486.7003367003367" x2="486.7003367003367" y1="400" y2="405"/><text class="poloto_text" alignment-baseline="start" text-anchor="middle" x="486.7003367003367" y="430">20000</text><line class="poloto_axis_lines" stroke="black" x1="570.8754208754208" x2="570.8754208754208" y1="400" y2="405"/><text class="poloto_text" alignment-baseline="start" text-anchor="middle" x="570.8754208754208" y="430">25000</text><line class="poloto_axis_lines" stroke="black" x1="150" x2="144" y1="348.03293780616514" y2="348.03293780616514"/><text class="poloto_text" alignment-baseline="middle" text-anchor="end" x="135" y="348.03293780616514">0.001</text><line class="poloto_axis_lines" stroke="black" x1="150" x2="144" y1="296.0597947545932" y2="296.0597947545932"/><text class="poloto_text" alignment-baseline="middle" text-anchor="end" x="135" y="296.0597947545932">0.002</text><line class="poloto_axis_lines" stroke="black" x1="150" x2="144" y1="244.0866517030213" y2="244.0866517030213"/><text class="poloto_text" alignment-baseline="middle" text-anchor="end" x="135" y="244.0866517030213">0.003</text><line class="poloto_axis_lines" stroke="black" x1="150" x2="144" y1="192.11350865144937" y2="192.11350865144937"/><text class="poloto_text" alignment-baseline="middle" text-anchor="end" x="135" y="192.11350865144937">0.004</text><line class="poloto_axis_lines" stroke="black" x1="150" x2="144" y1="140.1403655998775" y2="140.1403655998775"/><text class="poloto_text" alignment-baseline="middle" text-anchor="end" x="135" y="140.1403655998775">0.005</text><text class="poloto_text" alignment-baseline="middle" text-anchor="start" font-size="large" x="675" y="100">default_par</text><line class="poloto0stroke" stroke="black" x1="680" x2="730" y1="81.25" y2="81.25"/><polyline class="poloto0stroke" fill="none" stroke="black" points="650,281.0471444915745 644.9494949494949,335.6223229500233 639.8989898989898,337.7779090580873 634.8484848484848,328.8212213965807 629.7979797979798,327.99427671748714 624.7474747474747,338.620133841238 619.6969696969697,337.2101544433919 614.6464646464647,327.5752692382054 609.5959595959596,335.65277921185157 604.5454545454545,328.4951938702182 599.4949494949494,336.6535220813096 594.4444444444445,340.8124649614394 589.3939393939394,336.3463088327317 584.3434343434344,342.5599579502624 579.2929292929293,344.1273639984117 574.2424242424242,338.7051099301273 569.1919191919192,339.32203113814944 564.1414141414141,343.1266211289537 559.090909090909,339.4664645026898 554.040404040404,310.0182217839539 548.989898989899,268.25821712716026 543.939393939394,321.565510760866 538.8888888888889,310.0089705644907 533.8383838383838,334.35183946812765 528.7878787878788,346.3819589439889 523.7373737373737,327.3295402178576 518.6868686868687,348.4259587139211 513.6363636363636,328.28309147342475 508.5858585858586,329.3238536630325 503.5353535353535,353.95730440947074 498.4848484848485,351.47958876077314 493.4343434343434,354.85233390596187 488.3838383838384,353.86042647082263 483.3333333333333,355.0621494844611 478.2828282828283,349.21085712028594 473.2323232323232,345.5828198964279 468.1818181818182,334.54382825856015 463.1313131313131,337.06509740113495 458.0808080808081,312.9568352652328 453.030303030303,352.04552431546176 447.979797979798,352.450966804407 442.9292929292929,357.7833073352122 437.8787878787879,358.6743868728314 432.8282828282828,344.16369322540476 427.77777777777777,363.5830943146232 422.72727272727275,356.6403139732221 417.67676767676767,363.5906304203657 412.62626262626264,363.3392363274253 407.57575757575756,354.60774829476117 402.52525252525254,364.58768319666706 397.47474747474746,361.2338043024061 392.4242424242424,365.26177486204597 387.37373737373736,358.7588432302902 382.32323232323233,365.209437906993 377.27272727272725,360.795358867623 372.22222222222223,364.72068246973606 367.1717171717172,367.7128282883581 362.1212121212121,367.9779952642072 357.07070707070704,366.7065762657366 352.020202020202,369.30772812918167 346.969696969697,368.53634274001024 341.9191919191919,369.65911854935337 336.86868686868684,369.1023822409849 331.8181818181818,368.201531752472 326.7676767676768,372.24712120760637 321.7171717171717,368.97681512737233 316.66666666666663,365.12773612611596 311.6161616161616,369.6227893223603 306.5656565656566,374.2579621122717 301.5151515151515,367.70222576717555 296.4646464646464,373.5486326559038 291.4141414141414,370.5865273139656 286.3636363636364,379.8823917070267 281.3131313131313,375.3242950882608 276.26262626262627,373.9949260352877 271.2121212121212,376.7772043022675 266.16161616161617,378.1989816035863 261.1111111111111,377.7349134092788 256.06060606060606,378.28016365303284 251.010101010101,379.08720261833764 245.95959595959596,380.7380775342278 240.9090909090909,382.84730359868973 235.85858585858585,376.15570945765677 230.8080808080808,380.59977700056754 225.75757575757575,369.691030059187 220.7070707070707,380.0962611906839 215.65656565656565,379.3801232525763 210.6060606060606,375.40142323254935 205.55555555555554,384.44890797496697 200.50505050505052,376.96550299954333 195.45454545454544,324.8997438070535 190.40404040404042,385.6767215064173 185.35353535353534,382.9590458562506 180.3030303030303,385.24243392307835 175.25252525252526,388.94297368149336 170.2020202020202,383.8871822448656 165.15151515151516,392.89755816314437 160.1010101010101,394.84961744301836 155.05050505050505,397.72154938176215 150,399.99974013428476 "/><text class="poloto_text" alignment-baseline="middle" text-anchor="start" font-size="large" x="675" y="150">default_seq</text><line class="poloto1stroke" stroke="black" x1="680" x2="730" y1="131.25" y2="131.25"/><polyline class="poloto1stroke" fill="none" stroke="black" points="650,171.55204971681565 644.9494949494949,176.06378629197957 639.8989898989898,177.02565325043503 634.8484848484848,182.06138305384488 629.7979797979798,174.3994503320391 624.7474747474747,187.59657476198035 619.6969696969697,188.7922688910248 614.6464646464647,192.44686439098214 609.5959595959596,194.22330642048487 604.5454545454545,196.8913996921804 599.4949494949494,199.6622958408319 594.4444444444445,202.4395327129357 589.3939393939394,204.6557714789408 584.3434343434344,207.34205535070436 579.2929292929293,208.51451748480477 574.2424242424242,211.66829977831722 569.1919191919192,214.95664053919018 564.1414141414141,215.72412794263272 559.090909090909,208.5783405044721 554.040404040404,212.19790610601274 548.989898989899,154.39025801547135 543.939393939394,184.62568595886637 538.8888888888889,144.5380211260432 533.8383838383838,227.13062167501818 528.7878787878788,229.3323599341119 523.7373737373737,234.84426767416028 518.6868686868687,235.2290768253141 513.6363636363636,226.68718681850217 508.5858585858586,235.38510020075492 503.5353535353535,235.8418921550352 498.4848484848485,214.3480870071993 493.4343434343434,247.7951953254662 488.3838383838384,250.86784754267515 483.3333333333333,254.01664041445463 478.2828282828283,252.78596836013645 473.2323232323232,258.26767970407184 468.1818181818182,259.0334000206507 463.1313131313131,251.7377220379293 458.0808080808081,165.03342219585838 453.030303030303,266.8099854960282 447.979797979798,268.9863608613128 442.9292929292929,271.5578360600754 437.8787878787879,270.52133566819793 432.8282828282828,262.10776735158026 427.77777777777777,278.1952741860486 422.72727272727275,284.1428208111552 417.67676767676767,285.3762994151982 412.62626262626264,288.16076055418614 407.57575757575756,290.0584559264282 402.52525252525254,292.2385733580125 397.47474747474746,293.824377898802 392.4242424242424,296.3735046460525 387.37373737373736,294.89512859195054 382.32323232323233,299.92467359133724 377.27272727272725,302.539598337691 372.22222222222223,304.2636514389977 367.1717171717172,305.901533069125 362.1212121212121,308.54150887042954 357.07070707070704,311.5573024691401 352.020202020202,313.52989114051945 346.969696969697,315.6751865662592 341.9191919191919,317.5910205654262 336.86868686868684,319.2186634863723 331.8181818181818,321.87547858602557 326.7676767676768,323.7002556385663 321.7171717171717,325.3534173727507 316.66666666666663,327.19773632707876 311.6161616161616,330.2709082757182 306.5656565656566,327.8150213471023 301.5151515151515,315.70106919149885 296.4646464646464,336.0443968447451 291.4141414141414,338.3554865968194 286.3636363636364,339.151247390082 281.3131313131313,341.16551852218873 276.26262626262627,343.7476482152769 271.2121212121212,345.7630107833877 266.16161616161617,348.37985853603436 261.1111111111111,350.6463033582273 256.06060606060606,353.3313918477007 251.010101010101,355.1112641046448 245.95959595959596,357.73819464704343 240.9090909090909,360.22188720719197 235.85858585858585,362.77517180588654 230.8080808080808,364.5175714266905 225.75757575757575,366.3298229517558 220.7070707070707,368.6913786257331 215.65656565656565,372.24743304646466 210.6060606060606,374.09585787909384 205.55555555555554,376.2907356833048 200.50505050505052,374.51860742467534 195.45454545454544,378.9984844631486 190.40404040404042,371.2652445890761 185.35353535353534,384.0267821071021 180.3030303030303,385.6795280561421 175.25252525252526,388.7157990732149 170.2020202020202,386.30585640305657 165.15151515151516,391.68393329974714 160.1010101010101,394.67805409780516 155.05050505050505,397.2511924371454 150,400 "/><text class="poloto_text" alignment-baseline="middle" text-anchor="start" font-size="large" x="675" y="200">direct_par</text><line class="poloto2stroke" stroke="black" x1="680" x2="730" y1="181.25" y2="181.25"/><polyline class="poloto2stroke" fill="none" stroke="black" points="650,276.44601411036183 644.9494949494949,239.47408723033735 639.8989898989898,330.13931227751164 634.8484848484848,336.86432514952674 629.7979797979798,331.51878344038647 624.7474747474747,333.1693984905613 619.6969696969697,337.1781389872721 614.6464646464647,335.5582400646407 609.5959595959596,333.56143190859933 604.5454545454545,339.01294685642176 599.4949494949494,333.92477615167286 594.4444444444445,333.2972524224682 589.3939393939394,329.4531108698017 584.3434343434344,337.19165200446554 579.2929292929293,339.2823756300011 574.2424242424242,340.81594716202386 569.1919191919192,343.5640271008757 564.1414141414141,339.4539389752143 559.090909090909,325.85563385405806 554.040404040404,310.0811092870463 548.989898989899,272.9593438356041 543.939393939394,284.1523318963337 538.8888888888889,279.2631663563293 533.8383838383838,337.53841681490564 528.7878787878788,336.2186627933971 523.7373737373737,348.6000167700008 518.6868686868687,302.5139236050235 513.6363636363636,353.3163716093588 508.5858585858586,350.9084039186364 503.5353535353535,342.4042983868229 498.4848484848485,333.7089316885797 493.4343434343434,338.27212167536464 488.3838383838384,345.09276513059467 483.3333333333333,357.6446949626937 478.2828282828283,356.94425291378764 473.2323232323232,352.17545717309065 468.1818181818182,354.9802398110118 463.1313131313131,354.4145641220385 458.0808080808081,342.7404606760805 453.030303030303,357.05422808448475 447.979797979798,361.416126088231 442.9292929292929,356.0816546585607 437.8787878787879,356.9470594635124 432.8282828282828,351.9096145463819 427.77777777777777,362.4216504868498 422.72727272727275,343.020076185698 417.67676767676767,362.6514237522808 412.62626262626264,360.8149527425535 407.57575757575756,362.6100531304117 402.52525252525254,352.29795787126324 397.47474747474746,350.6914680195391 392.4242424242424,349.7746098029663 387.37373737373736,350.21747295490877 382.32323232323233,360.32973147902396 377.27272727272725,367.3380499538132 372.22222222222223,361.7941267576451 367.1717171717172,365.47470882912825 362.1212121212121,363.42623936889356 357.07070707070704,369.9436195344177 352.020202020202,365.068330823608 346.969696969697,365.4128088157538 341.9191919191919,370.16029556779966 336.86868686868684,372.17420288790504 331.8181818181818,368.6450705552741 326.7676767676768,372.1807515039295 321.7171717171717,368.70125352291285 316.66666666666663,371.2023570859837 311.6161616161616,371.0781412740904 306.5656565656566,366.0303537014926 301.5151515151515,357.1999607776014 296.4646464646464,358.10782764042625 291.4141414141414,373.9789183072278 286.3636363636364,374.09315527565514 281.3131313131313,375.0457710146474 276.26262626262627,378.06379945850915 271.2121212121212,375.3283489934188 266.16161616161617,380.5235843728539 261.1111111111111,382.2931659474739 256.06060606060606,378.1786601046531 251.010101010101,378.96002433729046 245.95959595959596,379.9496449541354 240.9090909090909,381.416534943623 235.85858585858585,386.90401530643715 230.8080808080808,387.82700635389 225.75757575757575,385.01084159764054 220.7070707070707,380.58205415878695 215.65656565656565,374.33420671312837 210.6060606060606,380.3284252206953 205.55555555555554,381.9613694022326 200.50505050505052,377.63933479920695 195.45454545454544,383.92938443702343 190.40404040404042,371.8994208805914 185.35353535353534,381.0788134600739 180.3030303030303,386.6246596625349 175.25252525252526,388.8302439342145 170.2020202020202,388.9464039089347 165.15151515151516,391.3638307116925 160.1010101010101,395.5761500097363 155.05050505050505,397.7972742511883 150,399.9931395451172 "/><text class="poloto_text" alignment-baseline="middle" text-anchor="start" font-size="large" x="675" y="250">direct_seq</text><line class="poloto3stroke" stroke="black" x1="680" x2="730" y1="231.25" y2="231.25"/><polyline class="poloto3stroke" fill="none" stroke="black" points="650,170.57682566059597 644.9494949494949,175.70974524151225 639.8989898989898,180.01816288105843 634.8484848484848,182.9094808021604 629.7979797979798,184.16733481029453 624.7474747474747,186.55971055810147 619.6969696969697,189.04740505026496 614.6464646464647,191.7912231913866 609.5959595959596,194.79194457861215 604.5454545454545,196.56963396354814 599.4949494949494,199.47399714355606 594.4444444444445,202.4658311233198 589.3939393939394,204.21264846128312 584.3434343434344,206.70912641462232 579.2929292929293,208.53224032658537 574.2424242424242,212.05342076832937 569.1919191919192,214.13255438296446 564.1414141414141,215.5790709003758 559.090909090909,219.25248067811785 554.040404040404,219.3262825412511 548.989898989899,156.55691440300527 543.939393939394,199.0989589432959 538.8888888888889,134.68095073431118 533.8383838383838,224.77078111476155 528.7878787878788,230.82825093742227 523.7373737373737,233.21257084805617 518.6868686868687,223.01263363161297 513.6363636363636,236.73463483323204 508.5858585858586,223.84695849701984 503.5353535353535,244.64702613140335 498.4848484848485,244.39656755503782 493.4343434343434,205.1102246417838 488.3838383838384,251.1283889087927 483.3333333333333,254.77726736301437 478.2828282828283,256.1288289480705 473.2323232323232,257.7894748148543 468.1818181818182,256.87958099945047 463.1313131313131,261.9670760533397 458.0808080808081,227.62540599686915 453.030303030303,234.92555366989293 447.979797979798,239.16266415717234 442.9292929292929,240.01824603808728 437.8787878787879,271.8042407312829 432.8282828282828,276.28541709833246 427.77777777777777,279.4671609428067 422.72727272727275,284.3652138902729 417.67676767676767,285.1789054178883 412.62626262626264,287.95941659800434 407.57575757575756,290.8400280516377 402.52525252525254,292.0205979960542 397.47474747474746,295.07734643148933 392.4242424242424,296.4162265696409 387.37373737373736,299.4807709765338 382.32323232323233,300.39669367653164 377.27272727272725,302.7868865523304 372.22222222222223,305.8002893864605 367.1717171717172,307.0142260887161 362.1212121212121,309.24782388450046 357.07070707070704,312.40191801687115 352.020202020202,314.8417972174272 346.969696969697,316.1418014445762 341.9191919191919,318.2638129022288 336.86868686868684,320.49767056372843 331.8181818181818,320.4903423505582 326.7676767676768,323.58549893870844 321.7171717171717,326.85060770463735 316.66666666666663,328.6099505700761 311.6161616161616,330.97862656465145 306.5656565656566,332.5268545230148 301.5151515151515,334.9600811612602 296.4646464646464,336.57473079644336 291.4141414141414,339.0944927178697 286.3636363636364,338.7448174114187 281.3131313131313,341.0629235378049 276.26262626262627,343.52707419616604 271.2121212121212,346.1446495728154 266.16161616161617,347.8426641294533 261.1111111111111,350.77327374670233 256.06060606060606,353.03249430201106 251.010101010101,355.71124206803216 245.95959595959596,357.2404998291816 240.9090909090909,360.4100819581817 235.85858585858585,362.6145747938572 230.8080808080808,364.50109594034313 225.75757575757575,366.94606850891824 220.7070707070707,368.7491207876634 215.65656565656565,372.31879217187446 210.6060606060606,374.53981246704035 205.55555555555554,376.4968091955042 200.50505050505052,378.64454735896743 195.45454545454544,363.6459298445726 190.40404040404042,381.1628540323883 185.35353535353534,382.22601664665126 180.3030303030303,386.32274767454834 175.25252525252526,383.7055880830434 170.2020202020202,389.97911026136944 165.15151515151516,392.0401572222226 160.1010101010101,394.9899449292576 155.05050505050505,397.4055006988655 150,399.99630990684335 "/><text class="poloto_text" alignment-baseline="middle" text-anchor="start" font-size="large" x="675" y="300">indirect_par</text><line class="poloto4stroke" stroke="black" x1="680" x2="730" y1="281.25" y2="281.25"/><polyline class="poloto4stroke" fill="none" stroke="black" points="650,261.2988053799826 644.9494949494949,321.4810544034072 639.8989898989898,302.8524246857184 634.8484848484848,317.32361874442586 629.7979797979798,268.14455186330645 624.7474747474747,329.4972360682525 619.6969696969697,330.11051915626103 614.6464646464647,325.97356091564205 609.5959595959596,325.6383341429594 604.5454545454545,326.9354798472406 599.4949494949494,332.5860519329505 594.4444444444445,325.14349784796536 589.3939393939394,334.3392099943661 584.3434343434344,334.95306478694823 579.2929292929293,325.49390077841906 574.2424242424242,336.69484073003554 569.1919191919192,324.7683557014191 564.1414141414141,338.94953962189885 559.090909090909,339.08893159156315 554.040404040404,336.48881919097914 548.989898989899,271.6110565585602 543.939393939394,239.11542057013844 538.8888888888889,302.06570721934673 533.8383838383838,319.10052853221606 528.7878787878788,345.7162869277844 523.7373737373737,335.7861942700649 518.6868686868687,325.1991610841736 513.6363636363636,322.7902578768763 508.5858585858586,348.01755375582184 503.5353535353535,347.6180362051844 498.4848484848485,328.65074948737157 493.4343434343434,337.9224983420567 488.3838383838384,348.1928591673348 483.3333333333333,352.2928125301011 478.2828282828283,352.80651507602283 473.2323232323232,339.53002765664183 468.1818181818182,343.64380587545986 463.1313131313131,335.1389207465006 458.0808080808081,322.487566291744 453.030303030303,357.00017601571113 447.979797979798,352.33215619939114 442.9292929292929,353.41574425887336 437.8787878787879,355.3420768329368 432.8282828282828,331.72797534116904 427.77777777777777,354.0733604379049 422.72727272727275,339.40659144189436 417.67676767676767,358.4190947941621 412.62626262626264,358.72532055302196 407.57575757575756,359.6961788652253 402.52525252525254,353.8186920369522 397.47474747474746,355.90816830705455 392.4242424242424,360.6437012361985 387.37373737373736,359.2290442554778 382.32323232323233,361.2041276377236 377.27272727272725,361.58680589001233 372.22222222222223,353.8646362954098 367.1717171717172,351.69662860615654 362.1212121212121,365.1576726565137 357.07070707070704,363.1179866574547 352.020202020202,364.5469362525146 346.969696969697,367.33015003606937 341.9191919191919,362.87090633538753 336.86868686868684,361.0421273508319 331.8181818181818,356.45045608165464 326.7676767676768,368.83596790970256 321.7171717171717,368.48920309926245 316.66666666666663,368.65759608274954 311.6161616161616,373.86738394223914 306.5656565656566,360.43856324057396 301.5151515151515,373.180974641957 296.4646464646464,369.47149550293716 291.4141414141414,373.0595134066455 286.3636363636364,372.8759962385304 281.3131313131313,373.39432439418374 276.26262626262627,373.6009696109568 271.2121212121212,375.2409821399491 266.16161616161617,375.4943512123255 261.1111111111111,375.85644809996586 256.06060606060606,378.9641821887346 251.010101010101,377.5719256326691 245.95959595959596,380.02583758184903 240.9090909090909,381.2124364108595 235.85858585858585,384.575878363442 230.8080808080808,386.5156719815558 225.75757575757575,383.1380413609202 220.7070707070707,378.9637144304471 215.65656565656565,377.3747395279314 210.6060606060606,378.82255537391904 205.55555555555554,370.10598363331076 200.50505050505052,371.1347400268736 195.45454545454544,380.9143704354587 190.40404040404042,380.37561683458614 185.35353535353534,383.37644216809775 180.3030303030303,385.98081636641206 175.25252525252526,387.65211672752145 170.2020202020202,388.5024493209882 165.15151515151516,392.5068760468257 160.1010101010101,395.32766641280676 155.05050505050505,397.52264816330376 150,399.9992723759973 "/><text class="poloto_text" alignment-baseline="middle" text-anchor="start" font-size="large" x="675" y="350">indirect_seq</text><line class="poloto5stroke" stroke="black" x1="680" x2="730" y1="331.25" y2="331.25"/><polyline class="poloto5stroke" fill="none" stroke="black" points="650,156.67187899543538 644.9494949494949,147.4672274684298 639.8989898989898,158.75132444892878 634.8484848484848,165.07931448117287 629.7979797979798,167.5320310480627 624.7474747474747,170.82338625123262 619.6969696969697,173.3773984739299 614.6464646464647,176.39506310579029 609.5959595959596,177.6542684156438 604.5454545454545,181.81716125464553 599.4949494949494,184.37538330193 594.4444444444445,187.1801139667081 589.3939393939394,189.40362897274042 584.3434343434344,192.39031761134206 579.2929292929293,194.7910090620372 574.2424242424242,197.91204827542717 569.1919191919192,200.29288598547663 564.1414141414141,202.2817422506311 559.090909090909,204.79225295259425 554.040404040404,206.60091833078897 548.989898989899,102.23765170094237 543.939393939394,154.7897755661088 538.8888888888889,100 533.8383838383838,190.04622491343005 528.7878787878788,217.4347199998891 523.7373737373737,221.04399491910553 518.6868686868687,193.28399580611384 513.6363636363636,222.4296508860035 508.5858585858586,229.0523806124931 503.5353535353535,230.94607405272018 498.4848484848485,231.70150368697477 493.4343434343434,236.87361101775195 488.3838383838384,240.50123245646554 483.3333333333333,244.2673623214116 478.2828282828283,245.97416033922525 473.2323232323232,242.59949218774364 468.1818181818182,248.83237136820338 463.1313131313131,219.9597831819067 458.0808080808081,247.84472573079435 453.030303030303,258.62541084769583 447.979797979798,261.3835735762997 442.9292929292929,262.7561842842917 437.8787878787879,262.00959008435586 432.8282828282828,267.4238922617534 427.77777777777777,271.02339623007606 422.72727272727275,271.0107147831715 417.67676767676767,273.5216412702791 412.62626262626264,276.07710874098177 407.57575757575756,279.30937048050214 402.52525252525254,281.30176091938415 397.47474747474746,283.9234941474776 392.4242424242424,286.2604665247915 387.37373737373736,289.1840077945855 382.32323232323233,291.1986427386936 377.27272727272725,293.8703741304027 372.22222222222223,296.71689120219423 367.1717171717172,298.4737393567665 362.1212121212121,300.7604017316065 357.07070707070704,303.31041202228886 352.020202020202,306.44553595744577 346.969696969697,307.65547072768635 341.9191919191919,310.31316937077156 336.86868686868684,313.22865480339254 331.8181818181818,314.86622459466145 326.7676767676768,314.83176640081825 321.7171717171717,319.3188157330327 316.66666666666663,321.8108239960694 311.6161616161616,324.9687121678829 306.5656565656566,168.66031601056926 301.5151515151515,327.50811993738273 296.4646464646464,331.0728018998609 291.4141414141414,334.0877639282826 286.3636363636364,334.48619004291595 281.3131313131313,336.54739292319823 276.26262626262627,339.5527399201554 271.2121212121212,341.94776629825793 266.16161616161617,344.0481569284011 261.1111111111111,347.1656099949205 256.06060606060606,349.63532177958814 251.010101010101,352.5463894950497 245.95959595959596,354.8251519521459 240.9090909090909,357.59516455736554 235.85858585858585,360.237998881538 230.8080808080808,362.247540457627 225.75757575757575,364.7751503236541 220.7070707070707,366.9868154530707 215.65656565656565,369.0109614823572 210.6060606060606,372.10216811163554 205.55555555555554,374.03260656400005 200.50505050505052,376.73541789525405 195.45454545454544,377.7261299481031 190.40404040404042,372.94101464048794 185.35353535353534,382.4930546556502 180.3030303030303,385.5453334007829 175.25252525252526,388.09212135659607 170.2020202020202,387.8885945284061 165.15151515151516,391.20354553852144 160.1010101010101,394.7114728287873 155.05050505050505,397.4095546040235 150,399.9991164565681 "/><text class="poloto_text" alignment-baseline="start" text-anchor="middle" font-size="x-large" x="400" y="37.5">Bench of query:128_bytes with abspiral(num,1)</text><text class="poloto_text" alignment-baseline="start" text-anchor="middle" font-size="x-large" x="400" y="481.25">Number of Elements</text><text class="poloto_text" alignment-baseline="start" text-anchor="middle" font-size="x-large" transform="rotate(-90,37.5,250)" x="37.5" y="250">Time in Seconds</text><path stroke="black" fill="none" class="poloto_axis_lines" d=" M 150 100 L 150 400 L 650 400"/></svg>