<svg class="poloto" width="800" height="500" viewBox="0 0 800 500" xmlns="http://www.w3.org/2000/svg"><text  class="poloto_text poloto_legend_text" alignment-baseline="middle" text-anchor="start" font-size="large" x="675" y="100" >default_par</text><line  class="poloto_line poloto_legend_icon poloto0stroke poloto0legend" stroke="black" x1="680" x2="730" y1="81.25" y2="81.25" /><path  class="poloto_line poloto0stroke" fill="none" stroke="black" d=" M 650 273.1423579915455 L 644.9494949494949 277.23355503471106 L 639.8989898989898 268.3276388737692 L 634.8484848484848 274.24219968338366 L 629.7979797979798 273.0056647303318 L 624.7474747474747 282.4938453931276 L 619.6969696969697 281.78834447960946 L 614.6464646464647 287.71966732989085 L 609.5959595959596 273.4752379540867 L 604.5454545454545 287.3153322831919 L 599.4949494949494 291.18421587619696 L 594.4444444444445 291.9767534891407 L 589.3939393939394 291.7151712207041 L 584.3434343434344 288.3375019837705 L 579.2929292929293 298.8310116114512 L 574.2424242424242 292.8206789544579 L 569.1919191919192 296.73843215898495 L 564.1414141414141 300.633442500823 L 559.090909090909 301.76074875694644 L 554.040404040404 294.1861163610895 L 548.989898989899 302.6408739345021 L 543.939393939394 308.7097556912899 L 538.8888888888889 307.13270735811614 L 533.8383838383838 307.1132696865446 L 528.7878787878788 311.65326446644116 L 523.7373737373737 312.95480151146916 L 518.6868686868687 309.0918200454595 L 513.6363636363636 313.9199173177587 L 508.5858585858586 315.53717880952786 L 503.5353535353535 309.23488760382827 L 498.4848484848485 321.7832030712046 L 493.4343434343434 317.7363113280179 L 488.3838383838384 317.37266161007403 L 483.3333333333333 320.2979918340794 L 478.2828282828283 323.1742950565096 L 473.2323232323232 324.616774894188 L 468.1818181818182 323.5177988476425 L 463.1313131313131 323.2087634781628 L 458.0808080808081 325.43512447585834 L 453.030303030303 329.3001520125597 L 447.979797979798 322.6386180104061 L 442.9292929292929 330.404558015941 L 437.8787878787879 326.89523199949633 L 432.8282828282828 330.8154247498482 L 427.77777777777777 311.0837485588973 L 422.72727272727275 326.0021221425508 L 417.67676767676767 320.9343985142379 L 412.62626262626264 329.73132206333116 L 407.57575757575756 344.6338779466369 L 402.52525252525254 313.80549474907434 L 397.47474747474746 333.8979089419847 L 392.4242424242424 336.3192762156086 L 387.37373737373736 334.01492844654706 L 382.32323232323233 336.1607057369986 L 377.27272727272725 335.55357360673736 L 372.22222222222223 339.830254827612 L 367.1717171717172 339.64052111846615 L 362.1212121212121 340.5518882215842 L 357.07070707070704 342.71914925429905 L 352.020202020202 345.873560700753 L 346.969696969697 346.05880879338224 L 341.9191919191919 347.94560075127515 L 336.86868686868684 348.4919016259704 L 331.8181818181818 351.06247467003834 L 326.7676767676768 350.3639776138881 L 321.7171717171717 351.34428156031254 L 316.66666666666663 353.80129768098874 L 311.6161616161616 353.37209500588244 L 306.5656565656566 357.8761261586203 L 301.5151515151515 358.0641285771808 L 296.4646464646464 359.6649428083894 L 291.4141414141414 361.6632456189823 L 286.3636363636364 355.11880981641764 L 281.3131313131313 349.83766527595066 L 276.26262626262627 355.7967674706238 L 271.2121212121212 358.1260615631193 L 266.16161616161617 360.1617445113498 L 261.1111111111111 362.6507108128278 L 256.06060606060606 361.07051467858986 L 251.010101010101 368.3821482955313 L 245.95959595959596 369.4989094180896 L 240.9090909090909 369.4334351559539 L 235.85858585858585 372.42069836589775 L 230.8080808080808 374.97506023448494 L 225.75757575757575 375.52930930686733 L 220.7070707070707 376.21686775431937 L 215.65656565656565 373.76661940593124 L 210.6060606060606 374.4858919491053 L 205.55555555555554 376.28958195890283 L 200.50505050505052 378.59164757219287 L 195.45454545454544 380.62197925861415 L 190.40404040404042 385.0315763794255 L 185.35353535353534 386.5123806950607 L 180.3030303030303 385.6976510846142 L 175.25252525252526 388.3790267261426 L 170.2020202020202 389.4838262046569 L 165.15151515151516 391.7513447012671 L 160.1010101010101 394.34080455172034 L 155.05050505050505 397.2546453018413 L 150 399.9926026674991" /><text  class="poloto_text poloto_legend_text" alignment-baseline="middle" text-anchor="start" font-size="large" x="675" y="150" >default_seq</text><line  class="poloto_line poloto_legend_icon poloto1stroke poloto1legend" stroke="black" x1="680" x2="730" y1="131.25" y2="131.25" /><path  class="poloto_line poloto1stroke" fill="none" stroke="black" d=" M 650 117.21776356603885 L 644.9494949494949 113.35281472436407 L 639.8989898989898 117.59809662962317 L 634.8484848484848 120.92500757439626 L 629.7979797979798 114.66096215162696 L 624.7474747474747 131.89076605673648 L 619.6969696969697 126.97594686511798 L 614.6464646464647 123.49888580958162 L 609.5959595959596 132.740593649049 L 604.5454545454545 138.14631241663244 L 599.4949494949494 135.27197656986738 L 594.4444444444445 144.03081172608356 L 589.3939393939394 157.81416694100628 L 584.3434343434344 154.52935783546704 L 579.2929292929293 145.9303522782866 L 574.2424242424242 176.9707398775243 L 569.1919191919192 157.8774377423971 L 564.1414141414141 168.1814497460118 L 559.090909090909 157.23449937503034 L 554.040404040404 165.67902659498424 L 548.989898989899 187.3835871029344 L 543.939393939394 176.19850558144475 L 538.8888888888889 178.93748598244835 L 533.8383838383838 186.8782863371006 L 528.7878787878788 181.71392521611622 L 523.7373737373737 196.00840462884145 L 518.6868686868687 196.86019959681914 L 513.6363636363636 196.05475599951208 L 508.5858585858586 211.35779087321313 L 503.5353535353535 198.29229169098562 L 498.4848484848485 218.86049601475267 L 493.4343434343434 213.05681649762536 L 488.3838383838384 214.05230858418466 L 483.3333333333333 208.10296457281058 L 478.2828282828283 222.53948850855872 L 473.2323232323232 221.0044633195923 L 468.1818181818182 230.93963173350716 L 463.1313131313131 228.54376164850342 L 458.0808080808081 231.98840035307836 L 453.030303030303 231.21585127689238 L 447.979797979798 250.631016070836 L 442.9292929292929 238.77930897897136 L 437.8787878787879 238.18956844958993 L 432.8282828282828 251.0104834891276 L 427.77777777777777 252.89113723494532 L 422.72727272727275 257.924392441605 L 417.67676767676767 261.02993427653695 L 412.62626262626264 264.52053087664945 L 407.57575757575756 262.5392261918034 L 402.52525252525254 268.05322931599596 L 397.47474747474746 271.59182988233783 L 392.4242424242424 274.9783129622513 L 387.37373737373736 278.1392560959135 L 382.32323232323233 284.7762372497662 L 377.27272727272725 281.5010289374728 L 372.22222222222223 284.0619224932683 L 367.1717171717172 287.84054289075686 L 362.1212121212121 294.1114347808409 L 357.07070707070704 293.9653768114611 L 352.020202020202 297.2497137468407 L 346.969696969697 304.5024834838813 L 341.9191919191919 298.13810190218993 L 336.86868686868684 308.1744721203194 L 331.8181818181818 307.4288367432325 L 326.7676767676768 302.9681665501543 L 321.7171717171717 317.41342563385564 L 316.66666666666663 319.11449732895966 L 311.6161616161616 319.79701929470895 L 306.5656565656566 322.59061404417673 L 301.5151515151515 324.48267856885224 L 296.4646464646464 326.4722462314919 L 291.4141414141414 332.4255249941962 L 286.3636363636364 334.7306597135239 L 281.3131313131313 336.01724470349683 L 276.26262626262627 338.29766918447035 L 271.2121212121212 338.9020469888004 L 266.16161616161617 340.9605514947464 L 261.1111111111111 347.893976813822 L 256.06060606060606 348.5997925074465 L 251.010101010101 352.41484870225344 L 245.95959595959596 353.58087291146677 L 240.9090909090909 352.87497852281564 L 235.85858585858585 359.4983454370656 L 230.8080808080808 360.21565060457453 L 225.75757575757575 365.1578556654517 L 220.7070707070707 364.9009950986114 L 215.65656565656565 367.72000834167284 L 210.6060606060606 370.96373864332395 L 205.55555555555554 371.33738262964675 L 200.50505050505052 374.92619062296296 L 195.45454545454544 377.2047264232979 L 190.40404040404042 379.90750711206306 L 185.35353535353534 382.4540781730163 L 180.3030303030303 384.6572241378632 L 175.25252525252526 388.3055255712931 L 170.2020202020202 390.21427344160895 L 165.15151515151516 391.23904007806544 L 160.1010101010101 394.1833358034828 L 155.05050505050505 397.2008965986698 L 150 399.9931535326853" /><text  class="poloto_text poloto_legend_text" alignment-baseline="middle" text-anchor="start" font-size="large" x="675" y="200" >direct_par</text><line  class="poloto_line poloto_legend_icon poloto2stroke poloto2legend" stroke="black" x1="680" x2="730" y1="181.25" y2="181.25" /><path  class="poloto_line poloto2stroke" fill="none" stroke="black" d=" M 650 288.0762344954403 L 644.9494949494949 284.5736762512837 L 639.8989898989898 289.87071718712497 L 634.8484848484848 286.46196341468215 L 629.7979797979798 282.41703904716064 L 624.7474747474747 291.11653815331624 L 619.6969696969697 294.1169434327033 L 614.6464646464647 292.77015674737714 L 609.5959595959596 297.1693661246765 L 604.5454545454545 287.39363383466434 L 599.4949494949494 297.0539992156729 L 594.4444444444445 291.3442028652859 L 589.3939393939394 299.2788650078629 L 584.3434343434344 299.1101428708208 L 579.2929292929293 301.7757795070281 L 574.2424242424242 306.4370433229237 L 569.1919191919192 306.3347397883366 L 564.1414141414141 304.8799835265078 L 559.090909090909 281.2048208573299 L 554.040404040404 302.5830330899471 L 548.989898989899 311.8207274830576 L 543.939393939394 305.6406496536763 L 538.8888888888889 311.5165712052275 L 533.8383838383838 309.44114726856117 L 528.7878787878788 317.5155717783896 L 523.7373737373737 310.9433566314332 L 518.6868686868687 319.3180026677614 L 513.6363636363636 320.0482138196336 L 508.5858585858586 315.5654303240792 L 503.5353535353535 322.2332599283613 L 498.4848484848485 309.51653710404923 L 493.4343434343434 316.9647065921512 L 488.3838383838384 323.93858115490195 L 483.3333333333333 323.5549429002003 L 478.2828282828283 323.0236727755867 L 473.2323232323232 327.5570571732484 L 468.1818181818182 320.1766441030537 L 463.1313131313131 324.9962423124796 L 458.0808080808081 322.30983018924843 L 453.030303030303 334.4253230102946 L 447.979797979798 331.7282870584717 L 442.9292929292929 330.84792579583626 L 437.8787878787879 330.1002443480576 L 432.8282828282828 323.98540469573226 L 427.77777777777777 330.0286318738466 L 422.72727272727275 329.7859364117953 L 417.67676767676767 319.3780469730614 L 412.62626262626264 327.7583590513052 L 407.57575757575756 334.7077594607817 L 402.52525252525254 350.6069878560458 L 397.47474747474746 337.79040104297144 L 392.4242424242424 338.9927823544765 L 387.37373737373736 334.8054199887991 L 382.32323232323233 340.3475959325164 L 377.27272727272725 338.88615059342607 L 372.22222222222223 341.8623178046186 L 367.1717171717172 346.07745951468775 L 362.1212121212121 344.94944500332485 L 357.07070707070704 345.6377117060164 L 352.020202020202 337.75609001137144 L 346.969696969697 349.91738333790204 L 341.9191919191919 350.5294732548394 L 336.86868686868684 350.0694221293038 L 331.8181818181818 353.24996032459075 L 326.7676767676768 343.9577302780426 L 321.7171717171717 355.6963526166752 L 316.66666666666663 354.9088514854342 L 311.6161616161616 358.35530017562104 L 306.5656565656566 359.1880509471602 L 301.5151515151515 359.2651720732336 L 296.4646464646464 361.33532344311726 L 291.4141414141414 361.5898231591594 L 286.3636363636364 353.91690067507216 L 281.3131313131313 364.69725367472984 L 276.26262626262627 365.6769280609414 L 271.2121212121212 355.99248200179164 L 266.16161616161617 359.84735788006094 L 261.1111111111111 370.1121797604261 L 256.06060606060606 369.9551044873216 L 251.010101010101 364.86125411017565 L 245.95959595959596 369.4512202319667 L 240.9090909090909 373.9807485733247 L 235.85858585858585 372.5117485116803 L 230.8080808080808 376.0582972757093 L 225.75757575757575 375.53883140508657 L 220.7070707070707 377.48724156881156 L 215.65656565656565 375.77106042859936 L 210.6060606060606 377.9716881525949 L 205.55555555555554 378.9312953070221 L 200.50505050505052 379.9301712797254 L 195.45454545454544 382.08846107940724 L 190.40404040404042 384.04285206515425 L 185.35353535353534 383.8351758899424 L 180.3030303030303 384.99317320644195 L 175.25252525252526 387.62560054142176 L 170.2020202020202 391.2608386004352 L 165.15151515151516 391.15845637082145 L 160.1010101010101 394.45286626960655 L 155.05050505050505 397.3134304867156 L 150 399.9921304973395" /><text  class="poloto_text poloto_legend_text" alignment-baseline="middle" text-anchor="start" font-size="large" x="675" y="250" >direct_seq</text><line  class="poloto_line poloto_legend_icon poloto3stroke poloto3legend" stroke="black" x1="680" x2="730" y1="231.25" y2="231.25" /><path  class="poloto_line poloto3stroke" fill="none" stroke="black" d=" M 650 148.61432485569298 L 644.9494949494949 145.49304401543995 L 639.8989898989898 153.44863903509403 L 634.8484848484848 163.75713665522528 L 629.7979797979798 163.1313538036585 L 624.7474747474747 161.50582933409578 L 619.6969696969697 170.6069091610192 L 614.6464646464647 166.81601233938017 L 609.5959595959596 176.5582205480584 L 604.5454545454545 176.73339567728218 L 599.4949494949494 179.07103144259787 L 594.4444444444445 186.4067457376806 L 589.3939393939394 189.7327910371611 L 584.3434343434344 188.27142439309736 L 579.2929292929293 197.1890661130034 L 574.2424242424242 192.6900714419683 L 569.1919191919192 198.28379262811222 L 564.1414141414141 206.79489584057436 L 559.090909090909 195.11159610564545 L 554.040404040404 209.73171553846413 L 548.989898989899 205.25310287931987 L 543.939393939394 210.9378742112463 L 538.8888888888889 213.75767440457375 L 533.8383838383838 220.05296175290547 L 528.7878787878788 217.29871451674038 L 523.7373737373737 223.2416055359328 L 518.6868686868687 229.63211386645713 L 513.6363636363636 228.50504369541352 L 508.5858585858586 232.65778024938453 L 503.5353535353535 237.97898055839366 L 498.4848484848485 230.5279780493339 L 493.4343434343434 238.9192287362759 L 488.3838383838384 244.07760903523828 L 483.3333333333333 239.96902039119297 L 478.2828282828283 252.02824626821624 L 473.2323232323232 250.88661751725058 L 468.1818181818182 253.96524565308346 L 463.1313131313131 256.7611225583228 L 458.0808080808081 254.5550648774915 L 453.030303030303 252.9470107038352 L 447.979797979798 263.116768992061 L 442.9292929292929 266.53386443732404 L 437.8787878787879 265.43638359628403 L 432.8282828282828 269.8743109266733 L 427.77777777777777 264.34464749218625 L 422.72727272727275 268.6827108338132 L 417.67676767676767 274.5789357022285 L 412.62626262626264 269.54961524689907 L 407.57575757575756 278.0636301753456 L 402.52525252525254 273.02211199089237 L 397.47474747474746 277.869883019843 L 392.4242424242424 281.838709296637 L 387.37373737373736 287.7861646273725 L 382.32323232323233 289.99308795349646 L 377.27272727272725 290.6725408132082 L 372.22222222222223 294.12654422594915 L 367.1717171717172 293.6488654144539 L 362.1212121212121 299.0183844697988 L 357.07070707070704 299.2866558154969 L 352.020202020202 301.75720748074923 L 346.969696969697 305.80677485484046 L 341.9191919191919 311.05652007969184 L 336.86868686868684 311.2331117193945 L 331.8181818181818 311.2330330243679 L 326.7676767676768 314.6552436463603 L 321.7171717171717 320.30129702519685 L 316.66666666666663 322.3561028648925 L 311.6161616161616 322.95284725164174 L 306.5656565656566 326.29604806692225 L 301.5151515151515 329.9394704087026 L 296.4646464646464 329.4252771048624 L 291.4141414141414 331.7915578598625 L 286.3636363636364 334.92542990437244 L 281.3131313131313 338.5740461179088 L 276.26262626262627 339.80263287327347 L 271.2121212121212 343.8361464619372 L 266.16161616161617 346.8319087347545 L 261.1111111111111 350.8739213862916 L 256.06060606060606 350.01708993661117 L 251.010101010101 354.32092094166467 L 245.95959595959596 357.8865925971588 L 240.9090909090909 357.8082910456864 L 235.85858585858585 361.98172439165467 L 230.8080808080808 364.48532796808126 L 225.75757575757575 365.2181360558315 L 220.7070707070707 369.25503353063925 L 215.65656565656565 369.1265245521925 L 210.6060606060606 370.9652338488295 L 205.55555555555554 374.2259622762274 L 200.50505050505052 376.3390811306377 L 195.45454545454544 379.0955318275477 L 190.40404040404042 381.03977115486265 L 185.35353535353534 382.9275074530748 L 180.3030303030303 384.65384025171915 L 175.25252525252526 387.1517777862302 L 170.2020202020202 391.1161971415343 L 165.15151515151516 392.2110023516697 L 160.1010101010101 394.3257738016387 L 155.05050505050505 397.11008253796706 L 150 399.99071398686056" /><text  class="poloto_text poloto_legend_text" alignment-baseline="middle" text-anchor="start" font-size="large" x="675" y="300" >indirect_par</text><line  class="poloto_line poloto_legend_icon poloto4stroke poloto4legend" stroke="black" x1="680" x2="730" y1="281.25" y2="281.25" /><path  class="poloto_line poloto4stroke" fill="none" stroke="black" d=" M 650 243.2241614717019 L 644.9494949494949 260.4680517865738 L 639.8989898989898 260.7045303415233 L 634.8484848484848 214.90638570793388 L 629.7979797979798 262.861639715806 L 624.7474747474747 262.60635304949784 L 619.6969696969697 264.35464176056513 L 614.6464646464647 269.38663784679915 L 609.5959595959596 272.9020233802924 L 604.5454545454545 259.47004145916316 L 599.4949494949494 278.0955803561475 L 594.4444444444445 280.43943302856496 L 589.3939393939394 278.58931295307025 L 584.3434343434344 282.135704327046 L 579.2929292929293 286.5474262135757 L 574.2424242424242 292.0283774265939 L 569.1919191919192 287.47240755629645 L 564.1414141414141 289.1219340089739 L 559.090909090909 287.3280021824754 L 554.040404040404 291.0712885130181 L 548.989898989899 285.59128164031915 L 543.939393939394 298.1405414480147 L 538.8888888888889 297.75131584642406 L 533.8383838383838 301.4768957959805 L 528.7878787878788 297.66553826742404 L 523.7373737373737 296.86056684027665 L 518.6868686868687 293.60637010008696 L 513.6363636363636 302.1287267013537 L 508.5858585858586 301.61657946820526 L 503.5353535353535 303.96145517596864 L 498.4848484848485 306.6724988425273 L 493.4343434343434 310.74496646936075 L 488.3838383838384 313.81241991141565 L 483.3333333333333 305.95739713576336 L 478.2828282828283 312.0812080211217 L 473.2323232323232 308.5202580672239 L 468.1818181818182 305.74736010975334 L 463.1313131313131 317.85041911659584 L 458.0808080808081 318.685766824013 L 453.030303030303 320.7462387056242 L 447.979797979798 314.1053228004412 L 442.9292929292929 321.4891197567799 L 437.8787878787879 324.55594363862195 L 432.8282828282828 314.7871365109511 L 427.77777777777777 324.8043051425888 L 422.72727272727275 316.0203662728855 L 417.67676767676767 317.59316507462256 L 412.62626262626264 320.0747340435997 L 407.57575757575756 317.31741770139695 L 402.52525252525254 340.1427527782623 L 397.47474747474746 321.88959874717517 L 392.4242424242424 323.6183710916443 L 387.37373737373736 329.9831461484687 L 382.32323232323233 330.36552528274467 L 377.27272727272725 332.46196079151457 L 372.22222222222223 332.3374652594247 L 367.1717171717172 333.6822845690857 L 362.1212121212121 331.99561406385055 L 357.07070707070704 333.1078108748657 L 352.020202020202 337.4353290829275 L 346.969696969697 335.8357739721446 L 341.9191919191919 337.87586384186494 L 336.86868686868684 344.41479099256725 L 331.8181818181818 344.99839330987345 L 326.7676767676768 344.5091463294672 L 321.7171717171717 343.47839887098866 L 316.66666666666663 346.7586436649848 L 311.6161616161616 341.43878117142793 L 306.5656565656566 343.9723675529913 L 301.5151515151515 354.0620143041327 L 296.4646464646464 354.946389013125 L 291.4141414141414 356.0400137978613 L 286.3636363636364 344.4423342518792 L 281.3131313131313 342.7832857009825 L 276.26262626262627 350.6398823771669 L 271.2121212121212 351.2902180770346 L 266.16161616161617 353.08895030015594 L 261.1111111111111 355.4590084164331 L 256.06060606060606 352.4584457469929 L 251.010101010101 363.4297128811954 L 245.95959595959596 364.2338973580768 L 240.9090909090909 367.29961950954635 L 235.85858585858585 369.1967992109512 L 230.8080808080808 371.3261292408422 L 225.75757575757575 371.26002541849357 L 220.7070707070707 375.4021381438729 L 215.65656565656565 370.0973850954243 L 210.6060606060606 372.52127060989955 L 205.55555555555554 375.8211104655204 L 200.50505050505052 376.6193928154064 L 195.45454545454544 378.5579661008057 L 190.40404040404042 380.3642530464812 L 185.35353535353534 383.30327620511594 L 180.3030303030303 384.06866403388085 L 175.25252525252526 385.7879142801307 L 170.2020202020202 389.8444068165632 L 165.15151515151516 389.98204441809617 L 160.1010101010101 394.0807174887892 L 155.05050505050505 397.27652251923763 L 150 399.9926026674991" /><text  class="poloto_text poloto_legend_text" alignment-baseline="middle" text-anchor="start" font-size="large" x="675" y="350" >indirect_seq</text><line  class="poloto_line poloto_legend_icon poloto5stroke poloto5legend" stroke="black" x1="680" x2="730" y1="331.25" y2="331.25" /><path  class="poloto_line poloto5stroke" fill="none" stroke="black" d=" M 650 107.04879222807915 L 644.9494949494949 102.33244189355975 L 639.8989898989898 100 L 634.8484848484848 101.87136773267821 L 629.7979797979798 101.00816198584278 L 624.7474747474747 128.17077345406898 L 619.6969696969697 114.62822502055906 L 614.6464646464647 117.22476742340677 L 609.5959595959596 106.58181594020226 L 604.5454545454545 125.89916281607532 L 599.4949494949494 148.09918721153352 L 594.4444444444445 163.07304078894387 L 589.3939393939394 136.42777042562204 L 584.3434343434344 142.91405060352525 L 579.2929292929293 171.23827935947494 L 574.2424242424242 168.1097585767742 L 569.1919191919192 145.24641380205838 L 564.1414141414141 173.78886386678505 L 559.090909090909 159.98205753393395 L 554.040404040404 159.60282620072215 L 548.989898989899 167.82016087886606 L 543.939393939394 169.06952312125458 L 538.8888888888889 176.5498001802116 L 533.8383838383838 177.36909410220125 L 528.7878787878788 182.88238897115434 L 523.7373737373737 203.5237009746379 L 518.6868686868687 193.39635930575247 L 513.6363636363636 188.49035395711383 L 508.5858585858586 213.2040548924042 L 503.5353535353535 197.79800822887663 L 498.4848484848485 196.26542258573494 L 493.4343434343434 206.44312907164786 L 488.3838383838384 207.58947952420985 L 483.3333333333333 209.0213355332965 L 478.2828282828283 224.86209352379277 L 473.2323232323232 226.76737881293798 L 468.1818181818182 221.36268308070044 L 463.1313131313131 224.3922842149581 L 458.0808080808081 227.9175853218036 L 453.030303030303 243.74677514338887 L 447.979797979798 234.35641239866376 L 442.9292929292929 237.58747280103142 L 437.8787878787879 255.84896850493877 L 432.8282828282828 239.59545509989675 L 427.77777777777777 248.00032002644153 L 422.72727272727275 250.65045374240756 L 417.67676767676767 253.86128952293762 L 412.62626262626264 252.72634984923343 L 407.57575757575756 257.3770685315639 L 402.52525252525254 256.9558140541448 L 397.47474747474746 265.45424736732343 L 392.4242424242424 262.2355420841328 L 387.37373737373736 266.1879997953929 L 382.32323232323233 276.83535820008734 L 377.27272727272725 268.477080729293 L 372.22222222222223 274.61804713045143 L 367.1717171717172 277.4856152049284 L 362.1212121212121 271.70774765652766 L 357.07070707070704 275.0046757961641 L 352.020202020202 278.4489997206326 L 346.969696969697 289.34448354421414 L 341.9191919191919 291.9128531275371 L 336.86868686868684 298.0776641217569 L 331.8181818181818 305.47177012658096 L 326.7676767676768 300.78855039826243 L 321.7171717171717 303.3244976306239 L 316.66666666666663 307.1773274382015 L 311.6161616161616 305.4610676029626 L 306.5656565656566 317.31426990033276 L 301.5151515151515 321.4862080407955 L 296.4646464646464 320.78440579352787 L 291.4141414141414 322.43794569256215 L 286.3636363636364 324.2521808359248 L 281.3131313131313 331.7867574632396 L 276.26262626262627 331.2713050389737 L 271.2121212121212 337.1739828995707 L 266.16161616161617 337.8229020889595 L 261.1111111111111 340.9353690862327 L 256.06060606060606 338.9833389512838 L 251.010101010101 346.89958645763517 L 245.95959595959596 347.30722669545156 L 240.9090909090909 354.9981703406314 L 235.85858585858585 355.0537290294149 L 230.8080808080808 358.9060866668328 L 225.75757575757575 360.4923423181194 L 220.7070707070707 362.11676505730964 L 215.65656565656565 365.30509406023054 L 210.6060606060606 367.21313367530695 L 205.55555555555554 370.50817313430485 L 200.50505050505052 373.87931068403026 L 195.45454545454544 375.3008576446316 L 190.40404040404042 379.5406308980283 L 185.35353535353534 381.54696060133494 L 180.3030303030303 383.97430869698087 L 175.25252525252526 385.07643254459055 L 170.2020202020202 389.80891535956414 L 165.15151515151516 390.4680649024116 L 160.1010101010101 393.3901686303262 L 155.05050505050505 397.07246631524964 L 150 399.9927600575523" /><text  class="poloto_labels poloto_text poloto_title" alignment-baseline="start" text-anchor="middle" font-size="x-large" x="400" y="37.5" >Bench of query:256_bytes with abspiral(num,1.5)</text><text  class="poloto_labels poloto_text poloto_xname" alignment-baseline="start" text-anchor="middle" font-size="x-large" x="400" y="481.25" >Number of Elements</text><text  class="poloto_labels poloto_text poloto_yname" alignment-baseline="start" text-anchor="middle" font-size="x-large" transform="rotate(-90,37.5,250)" x="37.5" y="250" >Time in Seconds</text><line  class="poloto_axis_lines" stroke="black" x1="150" x2="150" y1="400" y2="405" /><text  class="poloto_tick_labels poloto_text" alignment-baseline="start" text-anchor="middle" x="150" y="430" > 0</text><line  class="poloto_axis_lines" stroke="black" x1="234.17508417508418" x2="234.17508417508418" y1="400" y2="405" /><text  class="poloto_tick_labels poloto_text" alignment-baseline="start" text-anchor="middle" x="234.17508417508418" y="430" > 5000</text><line  class="poloto_axis_lines" stroke="black" x1="318.35016835016836" x2="318.35016835016836" y1="400" y2="405" /><text  class="poloto_tick_labels poloto_text" alignment-baseline="start" text-anchor="middle" x="318.35016835016836" y="430" > 10000</text><line  class="poloto_axis_lines" stroke="black" x1="402.52525252525254" x2="402.52525252525254" y1="400" y2="405" /><text  class="poloto_tick_labels poloto_text" alignment-baseline="start" text-anchor="middle" x="402.52525252525254" y="430" > 15000</text><line  class="poloto_axis_lines" stroke="black" x1="486.7003367003367" x2="486.7003367003367" y1="400" y2="405" /><text  class="poloto_tick_labels poloto_text" alignment-baseline="start" text-anchor="middle" x="486.7003367003367" y="430" > 20000</text><line  class="poloto_axis_lines" stroke="black" x1="570.8754208754208" x2="570.8754208754208" y1="400" y2="405" /><text  class="poloto_tick_labels poloto_text" alignment-baseline="start" text-anchor="middle" x="570.8754208754208" y="430" > 25000</text><line  class="poloto_axis_lines" stroke="black" x1="150" x2="144" y1="400" y2="400" /><text  class="poloto_tick_labels poloto_text" alignment-baseline="middle" text-anchor="end" x="135" y="400" > 0e0</text><line  class="poloto_axis_lines" stroke="black" x1="150" x2="144" y1="321.3049733945231" y2="321.3049733945231" /><text  class="poloto_tick_labels poloto_text" alignment-baseline="middle" text-anchor="end" x="135" y="321.3049733945231" > 0.001</text><line  class="poloto_axis_lines" stroke="black" x1="150" x2="144" y1="242.60994678904615" y2="242.60994678904615" /><text  class="poloto_tick_labels poloto_text" alignment-baseline="middle" text-anchor="end" x="135" y="242.60994678904615" > 0.002</text><line  class="poloto_axis_lines" stroke="black" x1="150" x2="144" y1="163.91492018356928" y2="163.91492018356928" /><text  class="poloto_tick_labels poloto_text" alignment-baseline="middle" text-anchor="end" x="135" y="163.91492018356928" > 0.003</text><path  stroke="black" fill="none" class="poloto_axis_lines" style="stroke-dasharray:8.417508417508419;stroke-dashoffset:-0;" d=" M 150 400 L 650 400" /><path  stroke="black" fill="none" class="poloto_axis_lines" style="stroke-dasharray:9.836878325684614;stroke-dashoffset:-0;" d=" M 150 400 L 150 100" /></svg>