<svg class="poloto" width="800" height="500" viewBox="0 0 800 500" xmlns="http://www.w3.org/2000/svg"><circle  r="1e5" class="poloto_background" /><text  class="poloto_text poloto_legend_text" x="675" y="100" >default_seq</text><line  class="poloto_scatter poloto_legend_icon poloto0stroke poloto0legend" stroke="black" x1="685" x2="685" y1="81.25" y2="81.25" /><path  class="poloto_scatter poloto0stroke" d=" M 650.00 392.55 h 0 M 644.95 392.52 h 0 M 639.90 392.60 h 0 M 634.85 392.71 h 0 M 629.80 392.81 h 0 M 624.75 392.93 h 0 M 619.70 392.96 h 0 M 614.65 393.05 h 0 M 609.60 393.23 h 0 M 604.55 393.12 h 0 M 599.49 393.31 h 0 M 594.44 393.34 h 0 M 589.39 393.55 h 0 M 584.34 393.44 h 0 M 579.29 393.41 h 0 M 574.24 393.73 h 0 M 569.19 393.83 h 0 M 564.14 393.75 h 0 M 559.09 394.10 h 0 M 554.04 394.07 h 0 M 548.99 394.12 h 0 M 543.94 394.17 h 0 M 538.89 394.25 h 0 M 533.84 394.37 h 0 M 528.79 394.42 h 0 M 523.74 394.47 h 0 M 518.69 394.52 h 0 M 513.64 394.43 h 0 M 508.59 394.67 h 0 M 503.54 394.72 h 0 M 498.48 394.84 h 0 M 493.43 394.99 h 0 M 488.38 395.05 h 0 M 483.33 395.04 h 0 M 478.28 395.16 h 0 M 473.23 395.34 h 0 M 468.18 395.23 h 0 M 463.13 395.41 h 0 M 458.08 395.39 h 0 M 453.03 395.09 h 0 M 447.98 395.68 h 0 M 442.93 395.74 h 0 M 437.88 395.77 h 0 M 432.83 395.80 h 0 M 427.78 395.88 h 0 M 422.73 396.03 h 0 M 417.68 396.06 h 0 M 412.63 396.18 h 0 M 407.58 396.13 h 0 M 402.53 396.29 h 0 M 397.47 396.42 h 0 M 392.42 396.54 h 0 M 387.37 396.60 h 0 M 382.32 396.53 h 0 M 377.27 396.73 h 0 M 372.22 396.75 h 0 M 367.17 396.88 h 0 M 362.12 396.91 h 0 M 357.07 396.91 h 0 M 352.02 397.21 h 0 M 346.97 397.21 h 0 M 341.92 397.24 h 0 M 336.87 397.34 h 0 M 331.82 397.43 h 0 M 326.77 397.45 h 0 M 321.72 397.52 h 0 M 316.67 397.53 h 0 M 311.62 397.64 h 0 M 306.57 397.80 h 0 M 301.52 397.83 h 0 M 296.46 398.00 h 0 M 291.41 398.02 h 0 M 286.36 398.31 h 0 M 281.31 398.37 h 0 M 276.26 398.46 h 0 M 271.21 398.48 h 0 M 266.16 398.62 h 0 M 261.11 398.73 h 0 M 256.06 398.76 h 0 M 251.01 398.77 h 0 M 245.96 398.83 h 0 M 240.91 398.90 h 0 M 235.86 398.92 h 0 M 230.81 399.04 h 0 M 225.76 399.13 h 0 M 220.71 399.16 h 0 M 215.66 399.22 h 0 M 210.61 399.30 h 0 M 205.56 399.34 h 0 M 200.51 399.42 h 0 M 195.45 399.46 h 0 M 190.40 399.54 h 0 M 185.35 399.59 h 0 M 180.30 399.70 h 0 M 175.25 399.76 h 0 M 170.20 399.81 h 0 M 165.15 399.85 h 0 M 160.10 399.91 h 0 M 155.05 399.96 h 0 M 150.00 400.00 h 0" /><text  class="poloto_text poloto_legend_text" x="675" y="150" >direct_seq</text><line  class="poloto_scatter poloto_legend_icon poloto1stroke poloto1legend" stroke="black" x1="685" x2="685" y1="131.25" y2="131.25" /><path  class="poloto_scatter poloto1stroke" d=" M 650.00 100.00 h 0 M 644.95 102.37 h 0 M 639.90 104.56 h 0 M 634.85 107.22 h 0 M 629.80 111.06 h 0 M 624.75 114.60 h 0 M 619.70 116.56 h 0 M 614.65 121.08 h 0 M 609.60 123.44 h 0 M 604.55 124.28 h 0 M 599.49 128.10 h 0 M 594.44 133.80 h 0 M 589.39 137.59 h 0 M 584.34 136.32 h 0 M 579.29 141.88 h 0 M 574.24 146.48 h 0 M 569.19 150.45 h 0 M 564.14 150.48 h 0 M 559.09 158.25 h 0 M 554.04 161.05 h 0 M 548.99 160.87 h 0 M 543.94 164.50 h 0 M 538.89 169.04 h 0 M 533.84 172.01 h 0 M 528.79 174.96 h 0 M 523.74 177.30 h 0 M 518.69 178.31 h 0 M 513.64 179.18 h 0 M 508.59 184.24 h 0 M 503.54 187.76 h 0 M 498.48 191.69 h 0 M 493.43 193.63 h 0 M 488.38 195.34 h 0 M 483.33 199.21 h 0 M 478.28 203.27 h 0 M 473.23 206.97 h 0 M 468.18 207.24 h 0 M 463.13 212.87 h 0 M 458.08 213.27 h 0 M 453.03 217.37 h 0 M 447.98 221.73 h 0 M 442.93 224.95 h 0 M 437.88 226.02 h 0 M 432.83 230.21 h 0 M 427.78 231.10 h 0 M 422.73 236.26 h 0 M 417.68 237.48 h 0 M 412.63 240.89 h 0 M 407.58 245.32 h 0 M 402.53 248.51 h 0 M 397.47 250.91 h 0 M 392.42 255.01 h 0 M 387.37 259.00 h 0 M 382.32 260.95 h 0 M 377.27 264.34 h 0 M 372.22 266.86 h 0 M 367.17 272.13 h 0 M 362.12 273.03 h 0 M 357.07 274.73 h 0 M 352.02 280.42 h 0 M 346.97 283.53 h 0 M 341.92 285.10 h 0 M 336.87 288.50 h 0 M 331.82 291.90 h 0 M 326.77 292.64 h 0 M 321.72 296.92 h 0 M 316.67 299.93 h 0 M 311.62 302.59 h 0 M 306.57 306.74 h 0 M 301.52 310.08 h 0 M 296.46 313.58 h 0 M 291.41 315.65 h 0 M 286.36 330.13 h 0 M 281.31 332.16 h 0 M 276.26 335.19 h 0 M 271.21 336.62 h 0 M 266.16 341.57 h 0 M 261.11 344.86 h 0 M 256.06 346.51 h 0 M 251.01 348.76 h 0 M 245.96 350.48 h 0 M 240.91 353.35 h 0 M 235.86 355.23 h 0 M 230.81 358.72 h 0 M 225.76 362.46 h 0 M 220.71 364.20 h 0 M 215.66 366.39 h 0 M 210.61 370.01 h 0 M 205.56 372.06 h 0 M 200.51 374.83 h 0 M 195.45 377.00 h 0 M 190.40 380.21 h 0 M 185.35 382.35 h 0 M 180.30 387.10 h 0 M 175.25 389.75 h 0 M 170.20 391.66 h 0 M 165.15 393.64 h 0 M 160.10 396.13 h 0 M 155.05 398.44 h 0 M 150.00 400.00 h 0" /><text  class="poloto_text poloto_legend_text" x="675" y="200" >indirect_seq</text><line  class="poloto_scatter poloto_legend_icon poloto2stroke poloto2legend" stroke="black" x1="685" x2="685" y1="181.25" y2="181.25" /><path  class="poloto_scatter poloto2stroke" d=" M 650.00 377.75 h 0 M 644.95 378.68 h 0 M 639.90 379.68 h 0 M 634.85 379.97 h 0 M 629.80 380.63 h 0 M 624.75 381.52 h 0 M 619.70 381.44 h 0 M 614.65 381.67 h 0 M 609.60 382.28 h 0 M 604.55 382.57 h 0 M 599.49 382.80 h 0 M 594.44 383.42 h 0 M 589.39 384.08 h 0 M 584.34 383.58 h 0 M 579.29 384.48 h 0 M 574.24 384.38 h 0 M 569.19 384.82 h 0 M 564.14 384.79 h 0 M 559.09 385.55 h 0 M 554.04 385.98 h 0 M 548.99 386.45 h 0 M 543.94 386.44 h 0 M 538.89 386.70 h 0 M 533.84 386.75 h 0 M 528.79 387.30 h 0 M 523.74 386.57 h 0 M 518.69 387.77 h 0 M 513.64 387.22 h 0 M 508.59 388.01 h 0 M 503.54 387.60 h 0 M 498.48 388.69 h 0 M 493.43 388.68 h 0 M 488.38 387.24 h 0 M 483.33 389.23 h 0 M 478.28 389.44 h 0 M 473.23 390.14 h 0 M 468.18 389.29 h 0 M 463.13 390.23 h 0 M 458.08 390.04 h 0 M 453.03 390.16 h 0 M 447.98 390.81 h 0 M 442.93 391.13 h 0 M 437.88 391.24 h 0 M 432.83 391.33 h 0 M 427.78 391.41 h 0 M 422.73 391.49 h 0 M 417.68 391.99 h 0 M 412.63 392.25 h 0 M 407.58 392.49 h 0 M 402.53 392.68 h 0 M 397.47 393.01 h 0 M 392.42 393.21 h 0 M 387.37 393.34 h 0 M 382.32 393.51 h 0 M 377.27 393.58 h 0 M 372.22 393.69 h 0 M 367.17 394.21 h 0 M 362.12 394.13 h 0 M 357.07 393.75 h 0 M 352.02 394.66 h 0 M 346.97 394.79 h 0 M 341.92 394.84 h 0 M 336.87 395.04 h 0 M 331.82 395.21 h 0 M 326.77 395.22 h 0 M 321.72 395.46 h 0 M 316.67 395.64 h 0 M 311.62 395.75 h 0 M 306.57 396.06 h 0 M 301.52 396.11 h 0 M 296.46 396.44 h 0 M 291.41 396.51 h 0 M 286.36 396.92 h 0 M 281.31 397.09 h 0 M 276.26 397.19 h 0 M 271.21 397.29 h 0 M 266.16 397.58 h 0 M 261.11 397.80 h 0 M 256.06 397.83 h 0 M 251.01 397.93 h 0 M 245.96 397.93 h 0 M 240.91 397.84 h 0 M 235.86 398.16 h 0 M 230.81 398.40 h 0 M 225.76 398.58 h 0 M 220.71 398.65 h 0 M 215.66 398.72 h 0 M 210.61 398.89 h 0 M 205.56 398.99 h 0 M 200.51 399.09 h 0 M 195.45 399.17 h 0 M 190.40 399.34 h 0 M 185.35 399.40 h 0 M 180.30 399.54 h 0 M 175.25 399.67 h 0 M 170.20 399.74 h 0 M 165.15 399.81 h 0 M 160.10 399.89 h 0 M 155.05 399.96 h 0 M 150.00 400.00 h 0" /><text  class="poloto_labels poloto_text poloto_title" x="400" y="37.5" >Bench of rebal:256_bytes with abspiral(num,1.5)</text><text  class="poloto_labels poloto_text poloto_xname" x="400" y="481.25" >Number of Elements</text><text  class="poloto_labels poloto_text poloto_yname" transform="rotate(-90,37.5,250)" x="37.5" y="250" >Time in Seconds</text><text  class="poloto_tick_labels poloto_text" dominant-baseline="middle" text-anchor="start" x="150" y="70" ></text><line  class="poloto_axis_lines" stroke="black" x1="150" x2="144" y1="400" y2="400" /><text  class="poloto_tick_labels poloto_text" dominant-baseline="middle" text-anchor="end" x="135" y="400" >0e0</text><line  class="poloto_axis_lines" stroke="black" x1="150" x2="144" y1="337.3835575504644" y2="337.3835575504644" /><text  class="poloto_tick_labels poloto_text" dominant-baseline="middle" text-anchor="end" x="135" y="337.3835575504644" >0.02</text><line  class="poloto_axis_lines" stroke="black" x1="150" x2="144" y1="274.7671151009288" y2="274.7671151009288" /><text  class="poloto_tick_labels poloto_text" dominant-baseline="middle" text-anchor="end" x="135" y="274.7671151009288" >0.04</text><line  class="poloto_axis_lines" stroke="black" x1="150" x2="144" y1="212.15067265139317" y2="212.15067265139317" /><text  class="poloto_tick_labels poloto_text" dominant-baseline="middle" text-anchor="end" x="135" y="212.15067265139317" >0.06</text><line  class="poloto_axis_lines" stroke="black" x1="150" x2="144" y1="149.53423020185755" y2="149.53423020185755" /><text  class="poloto_tick_labels poloto_text" dominant-baseline="middle" text-anchor="end" x="135" y="149.53423020185755" >0.08</text><text  class="poloto_tick_labels poloto_text" dominant-baseline="middle" text-anchor="start" x="440.00000000000006" y="70" ></text><line  class="poloto_axis_lines" stroke="black" x1="150" x2="150" y1="400" y2="405" /><text  class="poloto_tick_labels poloto_text" dominant-baseline="start" text-anchor="middle" x="150" y="430" >0</text><line  class="poloto_axis_lines" stroke="black" x1="234.17508417508418" x2="234.17508417508418" y1="400" y2="405" /><text  class="poloto_tick_labels poloto_text" dominant-baseline="start" text-anchor="middle" x="234.17508417508418" y="430" >5000</text><line  class="poloto_axis_lines" stroke="black" x1="318.35016835016836" x2="318.35016835016836" y1="400" y2="405" /><text  class="poloto_tick_labels poloto_text" dominant-baseline="start" text-anchor="middle" x="318.35016835016836" y="430" >10000</text><line  class="poloto_axis_lines" stroke="black" x1="402.52525252525254" x2="402.52525252525254" y1="400" y2="405" /><text  class="poloto_tick_labels poloto_text" dominant-baseline="start" text-anchor="middle" x="402.52525252525254" y="430" >15000</text><line  class="poloto_axis_lines" stroke="black" x1="486.7003367003367" x2="486.7003367003367" y1="400" y2="405" /><text  class="poloto_tick_labels poloto_text" dominant-baseline="start" text-anchor="middle" x="486.7003367003367" y="430" >20000</text><line  class="poloto_axis_lines" stroke="black" x1="570.8754208754208" x2="570.8754208754208" y1="400" y2="405" /><text  class="poloto_tick_labels poloto_text" dominant-baseline="start" text-anchor="middle" x="570.8754208754208" y="430" >25000</text><path  stroke="black" fill="none" class="poloto_axis_lines" style="stroke-dasharray:8.417508417508419;stroke-dashoffset:-0;" d=" M 150 400 L 650 400" /><path  stroke="black" fill="none" class="poloto_axis_lines" style="stroke-dasharray:7.8270553061919514;stroke-dashoffset:-0;" d=" M 150 400 L 150 100" /></svg>