<svg  width="800" class="poloto_background poloto" height="500" viewBox="0 0 800 500" xmlns="http://www.w3.org/2000/svg" ><text  class="poloto_text" alignment-baseline="middle" text-anchor="start" font-size="large" x="675" y="100" >default_par</text><line  class="poloto0stroke poloto0legend" stroke="black" x1="680" x2="730" y1="81.25" y2="81.25" /><path  class="poloto0stroke" fill="none" stroke="black" d=" M 650 278.53662818882043 L 644.9494949494949 263.26066600096954 L 639.8989898989898 270.57682586771966 L 634.8484848484848 279.3399965195918 L 629.7979797979798 263.0878885937908 L 624.7474747474747 280.3989573277094 L 619.6969696969697 286.7771161089036 L 614.6464646464647 282.81535502235334 L 609.5959595959596 283.13915728544737 L 604.5454545454545 285.425816549341 L 599.4949494949494 291.91856466308406 L 594.4444444444445 293.0531932745255 L 589.3939393939394 291.5434885291546 L 584.3434343434344 311.80280483611006 L 579.2929292929293 313.4131151310747 L 574.2424242424242 314.7794084134725 L 569.1919191919192 301.909200707683 L 564.1414141414141 300.0366167946269 L 559.090909090909 301.9982307924972 L 554.040404040404 296.5698039370046 L 548.989898989899 304.45129707355676 L 543.939393939394 303.3503072288907 L 538.8888888888889 308.5259383636281 L 533.8383838383838 306.1294287158537 L 528.7878787878788 303.2341641426802 L 523.7373737373737 313.7935517151369 L 518.6868686868687 312.7408059216659 L 513.6363636363636 313.657675957423 L 508.5858585858586 315.05784106964546 L 503.5353535353535 316.8092321970905 L 498.4848484848485 332.0609558278192 L 493.4343434343434 308.67478796441696 L 488.3838383838384 318.01494503855383 L 483.3333333333333 320.61103434417095 L 478.2828282828283 322.9358382604588 L 473.2323232323232 319.1084768656438 L 468.1818181818182 324.69771722512024 L 463.1313131313131 322.4436091004388 L 458.0808080808081 327.616365790902 L 453.030303030303 327.8139255689846 L 447.979797979798 328.7389528114654 L 442.9292929292929 331.4541373352503 L 437.8787878787879 330.12964002635164 L 432.8282828282828 332.0346197032538 L 427.77777777777777 335.2447524559666 L 422.72727272727275 326.3634188381237 L 417.67676767676767 328.69591383503695 L 412.62626262626264 310.32767110971156 L 407.57575757575756 328.11387771337183 L 402.52525252525254 330.91498481464754 L 397.47474747474746 329.81112052570734 L 392.4242424242424 333.51060799416615 L 387.37373737373736 338.55090718497127 L 382.32323232323233 338.5749126790442 L 377.27272727272725 341.0226185099709 L 372.22222222222223 341.3206284622811 L 367.1717171717172 339.0296186881347 L 362.1212121212121 343.45098010780976 L 357.07070707070704 343.00163454885205 L 352.020202020202 347.1463501290651 L 346.969696969697 345.1326076958455 L 341.9191919191919 348.4323920348372 L 336.86868686868684 351.00665110150777 L 331.8181818181818 352.80784003380967 L 326.7676767676768 352.827572705313 L 321.7171717171717 354.1021168339887 L 316.66666666666663 351.4946851266413 L 311.6161616161616 355.4607967234443 L 306.5656565656566 358.6947795948639 L 301.5151515151515 359.8451788059714 L 296.4646464646464 360.2832596508819 L 291.4141414141414 361.84641352221456 L 286.3636363636364 361.29918148257104 L 281.3131313131313 362.3864206073312 L 276.26262626262627 363.85844682640635 L 271.2121212121212 365.86333286375447 L 266.16161616161617 365.6263854303483 L 261.1111111111111 368.27965287071527 L 256.06060606060606 369.80194302074574 L 251.010101010101 371.4764233419377 L 245.95959595959596 372.24677440739833 L 240.9090909090909 373.9687995906377 L 235.85858585858585 375.46778343574294 L 230.8080808080808 376.45760220591586 L 225.75757575757575 378.19392192284266 L 220.7070707070707 379.72825366375116 L 215.65656565656565 379.4350603477922 L 210.6060606060606 381.1695932480081 L 205.55555555555554 382.70687712087374 L 200.50505050505052 383.7056299746013 L 195.45454545454544 384.58419998259797 L 190.40404040404042 385.4515829642305 L 185.35353535353534 386.90861546047046 L 180.3030303030303 386.1973070341536 L 175.25252525252526 386.5429395361942 L 170.2020202020202 389.9999637457479 L 165.15151515151516 392.8464404539447 L 160.1010101010101 395.55711909211067 L 155.05050505050505 397.7271691436953 L 150 399.99968924926765" /><text  class="poloto_text" alignment-baseline="middle" text-anchor="start" font-size="large" x="675" y="150" >default_seq</text><line  class="poloto1stroke poloto1legend" stroke="black" x1="680" x2="730" y1="131.25" y2="131.25" /><path  class="poloto1stroke" fill="none" stroke="black" d=" M 650 105.40333373385647 L 644.9494949494949 110.3967872517619 L 639.8989898989898 124.70709153887901 L 634.8484848484848 118.05904574665112 L 629.7979797979798 121.13508955836102 L 624.7474747474747 125.2073225302567 L 619.6969696969697 142.8163235288024 L 614.6464646464647 137.4913766671777 L 609.5959595959596 151.00142013084678 L 604.5454545454545 136.6484653057165 L 599.4949494949494 143.5722246852095 L 594.4444444444445 162.29083886124354 L 589.3939393939394 165.2483312685673 L 584.3434343434344 146.8567045506337 L 579.2929292929293 166.5311102916499 L 574.2424242424242 157.54489830164366 L 569.1919191919192 167.14414379886554 L 564.1414141414141 175.4676021644824 L 559.090909090909 167.07492407323772 L 554.040404040404 185.52971087751862 L 548.989898989899 188.64560847065061 L 543.939393939394 181.09615249159936 L 538.8888888888889 197.97217020024775 L 533.8383838383838 189.03358075997198 L 528.7878787878788 192.3879018524887 L 523.7373737373737 197.89673545997323 L 518.6868686868687 202.61944740233102 L 513.6363636363636 210.5833671706353 L 508.5858585858586 209.7234422065788 L 503.5353535353535 211.604494077091 L 498.4848484848485 209.153758426524 L 493.4343434343434 174.73306512092347 L 488.3838383838384 217.45157985672319 L 483.3333333333333 222.2032693048713 L 478.2828282828283 217.27219899648227 L 473.2323232323232 233.05134430766807 L 468.1818181818182 232.18621426884494 L 463.1313131313131 236.5994184817962 L 458.0808080808081 237.8190374185315 L 453.030303030303 249.39830889451463 L 447.979797979798 241.306359824488 L 442.9292929292929 245.68934352871958 L 437.8787878787879 252.54535924856327 L 432.8282828282828 250.96146276584724 L 427.77777777777777 253.8352855384896 L 422.72727272727275 259.8032533530004 L 417.67676767676767 265.58244009761717 L 412.62626262626264 263.1523693707505 L 407.57575757575756 265.1050492850661 L 402.52525252525254 269.31494483138664 L 397.47474747474746 271.4072295122042 L 392.4242424242424 277.4785219452167 L 387.37373737373736 278.5819201080584 L 382.32323232323233 281.8442589838037 L 377.27272727272725 288.75652058620017 L 372.22222222222223 289.8494309118255 L 367.1717171717172 292.0068178710674 L 362.1212121212121 296.81156800676195 L 357.07070707070704 294.3473923870214 L 352.020202020202 302.1797092201814 L 346.969696969697 302.4138598969965 L 341.9191919191919 308.55747956296017 L 336.86868686868684 308.08933358469613 L 331.8181818181818 313.55031157940095 L 326.7676767676768 317.00686966285616 L 321.7171717171717 317.15175719180775 L 316.66666666666663 321.23090436749794 L 311.6161616161616 320.26874241250295 L 306.5656565656566 323.9874187386835 L 301.5151515151515 325.47304030229833 L 296.4646464646464 327.6695818538146 L 291.4141414141414 331.38965655829065 L 286.3636363636364 333.2823615812655 L 281.3131313131313 335.4072750889783 L 276.26262626262627 337.8215752161789 L 271.2121212121212 341.5372217227192 L 266.16161616161617 343.3020528193378 L 261.1111111111111 346.25923447592925 L 256.06060606060606 349.19994634370687 L 251.010101010101 352.19876859843134 L 245.95959595959596 354.4141105692539 L 240.9090909090909 356.7034112143724 L 235.85858585858585 353.8864558257476 L 230.8080808080808 362.02377450269523 L 225.75757575757575 364.8640361962453 L 220.7070707070707 366.94381316008634 L 215.65656565656565 368.15410957485153 L 210.6060606060606 368.6930290324051 L 205.55555555555554 372.2363642578651 L 200.50505050505052 373.25671428749 L 195.45454545454544 378.2455842320935 L 190.40404040404042 379.1292816271737 L 185.35353535353534 382.9330259663312 L 180.3030303030303 385.11146628768887 L 175.25252525252526 386.4405471698895 L 170.2020202020202 389.77241652199496 L 165.15151515151516 392.3810135445886 L 160.1010101010101 395.43196423466236 L 155.05050505050505 397.6309917920373 L 150 399.9994561862184" /><text  class="poloto_text" alignment-baseline="middle" text-anchor="start" font-size="large" x="675" y="200" >direct_par</text><line  class="poloto2stroke poloto2legend" stroke="black" x1="680" x2="730" y1="181.25" y2="181.25" /><path  class="poloto2stroke" fill="none" stroke="black" d=" M 650 282.80758625404496 L 644.9494949494949 281.07794767786334 L 639.8989898989898 292.0016904839839 L 634.8484848484848 288.89037646415386 L 629.7979797979798 288.19297413310903 L 624.7474747474747 286.9788710218727 L 619.6969696969697 272.4830485475511 L 614.6464646464647 295.69900269731636 L 609.5959595959596 294.2270541659243 L 604.5454545454545 295.9856702478962 L 599.4949494949494 294.059326458146 L 594.4444444444445 300.5408098578419 L 589.3939393939394 298.38699653202184 L 584.3434343434344 300.33711275279575 L 579.2929292929293 319.0362273203757 L 574.2424242424242 323.18731329060165 L 569.1919191919192 321.25467679852164 L 564.1414141414141 302.7531220090242 L 559.090909090909 301.2302103575291 L 554.040404040404 309.874751917332 L 548.989898989899 313.028561099809 L 543.939393939394 314.96275134555066 L 538.8888888888889 311.103382625305 L 533.8383838383838 318.10521812629736 L 528.7878787878788 312.48397044139034 L 523.7373737373737 309.13485442364026 L 518.6868686868687 317.55114957054246 L 513.6363636363636 313.3585006898666 L 508.5858585858586 318.4313510198839 L 503.5353535353535 304.2697409581895 L 498.4848484848485 336.2550807744737 L 493.4343434343434 311.0014563850989 L 488.3838383838384 326.875302981964 L 483.3333333333333 325.3059340959847 L 478.2828282828283 328.9047383271667 L 473.2323232323232 326.53215648578214 L 468.1818181818182 329.559101681783 L 463.1313131313131 326.77050229748374 L 458.0808080808081 331.0364883509909 L 453.030303030303 324.6949981562123 L 447.979797979798 330.2499782474487 L 442.9292929292929 325.44320823199405 L 437.8787878787879 327.9705439380819 L 432.8282828282828 336.6414993101334 L 427.77777777777777 326.37149835716446 L 422.72727272727275 324.61062933238316 L 417.67676767676767 328.8247200135902 L 412.62626262626264 335.85335776524647 L 407.57575757575756 336.6942492469474 L 402.52525252525254 338.27231915343214 L 397.47474747474746 337.80153179394324 L 392.4242424242424 338.98813346536787 L 387.37373737373736 341.7858223085879 L 382.32323232323233 339.4718946679318 L 377.27272727272725 344.4823617884326 L 372.22222222222223 344.7883735721004 L 367.1717171717172 343.10651292101545 L 362.1212121212121 345.05569688959235 L 357.07070707070704 347.8547064234248 L 352.020202020202 348.67718592423483 L 346.969696969697 349.1805244229359 L 341.9191919191919 351.41777432038816 L 336.86868686868684 352.1029019975057 L 331.8181818181818 353.3828065763142 L 326.7676767676768 353.53080161258913 L 321.7171717171717 355.7036484207648 L 316.66666666666663 355.4092897895596 L 311.6161616161616 350.408300566395 L 306.5656565656566 357.8227353522463 L 301.5151515151515 359.90095856242567 L 296.4646464646464 360.3532562533406 L 291.4141414141414 361.24876217624956 L 286.3636363636364 362.53301726531066 L 281.3131313131313 365.6578489419973 L 276.26262626262627 365.81811863219957 L 271.2121212121212 367.0079831863137 L 266.16161616161617 368.9670334906423 L 261.1111111111111 370.0975446548802 L 256.06060606060606 370.8439679139511 L 251.010101010101 372.4539674581833 L 245.95959595959596 374.3709110382803 L 240.9090909090909 374.8611203185402 L 235.85858585858585 376.29997389693847 L 230.8080808080808 377.50024860058585 L 225.75757575757575 378.47188845291714 L 220.7070707070707 380.17651159514566 L 215.65656565656565 379.7608824906464 L 210.6060606060606 380.51934734059523 L 205.55555555555554 382.7001959801285 L 200.50505050505052 383.99284133896276 L 195.45454545454544 385.85866642359053 L 190.40404040404042 387.0221171654561 L 185.35353535353534 388.05668404108536 L 180.3030303030303 386.436352035003 L 175.25252525252526 389.0503095077294 L 170.2020202020202 391.5176703224764 L 165.15151515151516 393.5935629021632 L 160.1010101010101 395.8396691954871 L 155.05050505050505 397.9471806621891 L 150 400" /><text  class="poloto_text" alignment-baseline="middle" text-anchor="start" font-size="large" x="675" y="250" >direct_seq</text><line  class="poloto3stroke poloto3legend" stroke="black" x1="680" x2="730" y1="231.25" y2="231.25" /><path  class="poloto3stroke" fill="none" stroke="black" d=" M 650 155.63782105729828 L 644.9494949494949 149.72035023679206 L 639.8989898989898 160.25099336650769 L 634.8484848484848 159.38446494938904 L 629.7979797979798 158.8513720680668 L 624.7474747474747 166.005708490953 L 619.6969696969697 172.23082253647175 L 614.6464646464647 165.18517118222007 L 609.5959595959596 171.6978850305157 L 604.5454545454545 187.2481624273361 L 599.4949494949494 177.96588267709683 L 594.4444444444445 189.96031713148068 L 589.3939393939394 190.63324784235405 L 584.3434343434344 192.2341579276655 L 579.2929292929293 200.89998591263347 L 574.2424242424242 201.00727260297242 L 569.1919191919192 207.21350854150177 L 564.1414141414141 206.08299737726378 L 559.090909090909 208.04492212586646 L 554.040404040404 193.04824715870245 L 548.989898989899 213.21495974742177 L 543.939393939394 216.34235511765021 L 538.8888888888889 217.31119821339047 L 533.8383838383838 204.4329886762433 L 528.7878787878788 229.00086388703588 L 523.7373737373737 224.14880195234326 L 518.6868686868687 230.29001330013133 L 513.6363636363636 237.8152307220604 L 508.5858585858586 232.70679943319064 L 503.5353535353535 238.84319414462752 L 498.4848484848485 241.87495597697958 L 493.4343434343434 245.38962444738158 L 488.3838383838384 247.85970433103654 L 483.3333333333333 252.82620022291184 L 478.2828282828283 253.99734204540275 L 473.2323232323232 258.57275814063337 L 468.1818181818182 251.5476940223989 L 463.1313131313131 259.35538386002133 L 458.0808080808081 267.339191675195 L 453.030303030303 263.57242667318553 L 447.979797979798 240.10383217803115 L 442.9292929292929 270.87973014406407 L 437.8787878787879 271.4965703477508 L 432.8282828282828 274.8576502686958 L 427.77777777777777 270.1838038789978 L 422.72727272727275 267.4096544037522 L 417.67676767676767 274.4309895131986 L 412.62626262626264 277.5675520300309 L 407.57575757575756 281.85878658054037 L 402.52525252525254 277.114244399236 L 397.47474747474746 285.26197322571693 L 392.4242424242424 286.0540768424411 L 387.37373737373736 287.0350392167424 L 382.32323232323233 292.9270284771971 L 377.27272727272725 295.8507267423794 L 372.22222222222223 295.64803957721324 L 367.1717171717172 301.2572456712423 L 362.1212121212121 301.51586796822886 L 357.07070707070704 307.06673061226184 L 352.020202020202 308.5438842184205 L 346.969696969697 309.71308384883423 L 341.9191919191919 312.37784906629764 L 336.86868686868684 309.550949654238 L 331.8181818181818 317.26984247009545 L 326.7676767676768 320.637914282518 L 321.7171717171717 320.14956950665214 L 316.66666666666663 324.92619670107024 L 311.6161616161616 319.7853696483545 L 306.5656565656566 329.48390000455765 L 301.5151515151515 330.1454106260177 L 296.4646464646464 330.98863273821115 L 291.4141414141414 334.1911520979818 L 286.3636363636364 335.0511547497214 L 281.3131313131313 338.45698277612274 L 276.26262626262627 340.2225130618891 L 271.2121212121212 344.42471752758433 L 266.16161616161617 347.70360387982646 L 261.1111111111111 348.4088526668628 L 256.06060606060606 351.214154903025 L 251.010101010101 355.0380203521013 L 245.95959595959596 358.1626189657387 L 240.9090909090909 359.471034924239 L 235.85858585858585 362.31502562657704 L 230.8080808080808 364.55406234074024 L 225.75757575757575 367.51629369673213 L 220.7070707070707 369.7495815223471 L 215.65656565656565 365.7802847305377 L 210.6060606060606 371.9805387174696 L 205.55555555555554 372.45373439513406 L 200.50505050505052 377.4486639790181 L 195.45454545454544 379.52548881090195 L 190.40404040404042 381.820849095301 L 185.35353535353534 383.0056639500147 L 180.3030303030303 386.7460151397757 L 175.25252525252526 388.4996592100302 L 170.2020202020202 392.0324289105908 L 165.15151515151516 393.31575174745495 L 160.1010101010101 395.65275262998705 L 155.05050505050505 397.9310993117907 L 150 399.99968924926765" /><text  class="poloto_text" alignment-baseline="middle" text-anchor="start" font-size="large" x="675" y="300" >indirect_par</text><line  class="poloto4stroke poloto4legend" stroke="black" x1="680" x2="730" y1="281.25" y2="281.25" /><path  class="poloto4stroke" fill="none" stroke="black" d=" M 650 268.3371676520918 L 644.9494949494949 248.80065754854962 L 639.8989898989898 266.68529444667723 L 634.8484848484848 273.1858890164118 L 629.7979797979798 271.3281434508247 L 624.7474747474747 274.3999921276481 L 619.6969696969697 274.57657623129796 L 614.6464646464647 277.7170231322845 L 609.5959595959596 278.55690467410534 L 604.5454545454545 275.52351140040855 L 599.4949494949494 278.9197838417906 L 594.4444444444445 277.180900431322 L 589.3939393939394 277.4292679541415 L 584.3434343434344 300.1738909306363 L 579.2929292929293 304.5726452345339 L 574.2424242424242 305.93598638497457 L 569.1919191919192 304.21559264308 L 564.1414141414141 294.681060985867 L 559.090909090909 294.29914833582626 L 554.040404040404 286.25629788150866 L 548.989898989899 289.77073328886144 L 543.939393939394 285.64955707662284 L 538.8888888888889 290.1294173216602 L 533.8383838383838 288.8502119319994 L 528.7878787878788 285.5038926708404 L 523.7373737373737 300.9541083318486 L 518.6868686868687 303.8609483698017 L 513.6363636363636 305.2956068133134 L 508.5858585858586 304.2712170241681 L 503.5353535353535 307.6733160417815 L 498.4848484848485 318.6157815795252 L 493.4343434343434 298.9994862254559 L 488.3838383838384 307.7648321324544 L 483.3333333333333 308.4696924810753 L 478.2828282828283 310.43775455664155 L 473.2323232323232 314.71461688578046 L 468.1818181818182 312.0774307958119 L 463.1313131313131 320.80043691552964 L 458.0808080808081 319.1486413977982 L 453.030303030303 321.290180069691 L 447.979797979798 310.56197716189286 L 442.9292929292929 321.36623631143027 L 437.8787878787879 319.7448166777846 L 432.8282828282828 324.45284564803956 L 427.77777777777777 321.88239327784015 L 422.72727272727275 298.5323501870719 L 417.67676767676767 319.887606639293 L 412.62626262626264 320.08501104200934 L 407.57575757575756 323.3221791084354 L 402.52525252525254 323.76538734042947 L 397.47474747474746 323.2907932844695 L 392.4242424242424 326.38221925743005 L 387.37373737373736 327.8141586320338 L 382.32323232323233 331.00455871324334 L 377.27272727272725 330.74958773736176 L 372.22222222222223 334.57609456766284 L 367.1717171717172 334.0883712932617 L 362.1212121212121 325.61823858198227 L 357.07070707070704 335.6326470576049 L 352.020202020202 338.003908208377 L 346.969696969697 340.76873516165256 L 341.9191919191919 343.84944023434747 L 336.86868686868684 344.08965055044314 L 331.8181818181818 344.8901444369404 L 326.7676767676768 344.90140915098755 L 321.7171717171717 347.9730247647617 L 316.66666666666663 347.9247807135665 L 311.6161616161616 352.00268488632736 L 306.5656565656566 350.3308459463603 L 301.5151515151515 353.0346880684149 L 296.4646464646464 355.47252756358995 L 291.4141414141414 356.8683421655597 L 286.3636363636364 354.5188335660511 L 281.3131313131313 341.02036556716155 L 276.26262626262627 356.12642479210774 L 271.2121212121212 358.9580631528355 L 266.16161616161617 360.4442285302319 L 261.1111111111111 362.3583753537379 L 256.06060606060606 364.13431578903754 L 251.010101010101 366.74905013859484 L 245.95959595959596 365.6848842557106 L 240.9090909090909 370.0345399438991 L 235.85858585858585 372.14057534462256 L 230.8080808080808 372.48690703581093 L 225.75757575757575 374.7312265124238 L 220.7070707070707 370.35484626125435 L 215.65656565656565 374.7083863335971 L 210.6060606060606 377.88682251161174 L 205.55555555555554 380.06697196199724 L 200.50505050505052 382.12623937750413 L 195.45454545454544 382.04653181466 L 190.40404040404042 384.8874926973578 L 185.35353535353534 386.17897274094577 L 180.3030303030303 383.35533621157566 L 175.25252525252526 386.58077343785607 L 170.2020202020202 390.13832550932045 L 165.15151515151516 392.37790603726523 L 160.1010101010101 395.0682305024632 L 155.05050505050505 397.64008125095813 L 150 399.9995338739015" /><text  class="poloto_text" alignment-baseline="middle" text-anchor="start" font-size="large" x="675" y="350" >indirect_seq</text><line  class="poloto5stroke poloto5legend" stroke="black" x1="680" x2="730" y1="331.25" y2="331.25" /><path  class="poloto5stroke" fill="none" stroke="black" d=" M 650 115.89311314226995 L 644.9494949494949 100 L 639.8989898989898 130.83299841309957 L 634.8484848484848 112.99722706763174 L 629.7979797979798 106.82967959527821 L 624.7474747474747 143.0923478667998 L 619.6969696969697 119.2360141453733 L 614.6464646464647 124.02608130896493 L 609.5959595959596 119.73422525699084 L 604.5454545454545 107.07144366503553 L 599.4949494949494 163.13608085319717 L 594.4444444444445 127.86812567588282 L 589.3939393939394 133.4983074443445 L 584.3434343434344 166.4051008696877 L 579.2929292929293 161.45670620797094 L 574.2424242424242 170.17497337902057 L 569.1919191919192 143.4462929509304 L 564.1414141414141 152.66751018226566 L 559.090909090909 184.52645213817217 L 554.040404040404 177.02788159154093 L 548.989898989899 170.97406888722233 L 543.939393939394 192.27339020762292 L 538.8888888888889 174.258937191062 L 533.8383838383838 174.99168741791 L 528.7878787878788 180.72698062158432 L 523.7373737373737 187.08447447907818 L 518.6868686868687 195.48297914655416 L 513.6363636363636 200.8933047718882 L 508.5858585858586 194.82255615265734 L 503.5353535353535 207.53163960373064 L 498.4848484848485 197.8415772049836 L 493.4343434343434 225.21995972670507 L 488.3838383838384 207.72119755045557 L 483.3333333333333 197.36675008597436 L 478.2828282828283 215.46067760233018 L 473.2323232323232 218.21695891046647 L 468.1818181818182 210.27090730927154 L 463.1313131313131 234.33878459173567 L 458.0808080808081 245.85380835380835 L 453.030303030303 236.22511922469764 L 447.979797979798 230.94220139962127 L 442.9292929292929 247.717691246359 L 437.8787878787879 241.83766588909927 L 432.8282828282828 241.45823924491714 L 427.77777777777777 244.9082715629933 L 422.72727272727275 251.730959266794 L 417.67676767676767 248.34804910690238 L 412.62626262626264 246.98183351218762 L 407.57575757575756 259.7983590289661 L 402.52525252525254 263.781950354463 L 397.47474747474746 266.3491398419729 L 392.4242424242424 253.15815969272967 L 387.37373737373736 258.13024909778704 L 382.32323232323233 272.06788556915035 L 377.27272727272725 280.63505019660164 L 372.22222222222223 276.1679307315901 L 367.1717171717172 272.7969844748934 L 362.1212121212121 285.67892302082856 L 357.07070707070704 287.393645561858 L 352.020202020202 291.44839880505987 L 346.969696969697 298.6362186193552 L 341.9191919191919 287.2810761090694 L 336.86868686868684 298.072594478581 L 331.8181818181818 301.92046542173017 L 326.7676767676768 306.78884176987043 L 321.7171717171717 307.2571431235006 L 316.66666666666663 301.0676877245174 L 311.6161616161616 313.93859461945465 L 306.5656565656566 317.47416107660626 L 301.5151515151515 312.11658538808626 L 296.4646464646464 318.7128134956971 L 291.4141414141414 323.02875272942725 L 286.3636363636364 324.62725449656307 L 281.3131313131313 321.7754950259166 L 276.26262626262627 330.50036565002836 L 271.2121212121212 333.2841483979764 L 266.16161616161617 337.0732874527141 L 261.1111111111111 340.0231664670956 L 256.06060606060606 343.05236460590595 L 251.010101010101 348.10905589784176 L 245.95959595959596 346.0548381817353 L 240.9090909090909 350.9396843186894 L 235.85858585858585 356.1634818169388 L 230.8080808080808 355.7623026214932 L 225.75757575757575 360.2057273431641 L 220.7070707070707 361.6633036531856 L 215.65656565656565 363.81432022241466 L 210.6060606060606 368.52988489792875 L 205.55555555555554 370.67569639239116 L 200.50505050505052 374.2877075296974 L 195.45454545454544 375.2213581050006 L 190.40404040404042 379.86684849037294 L 185.35353535353534 382.1699775430804 L 180.3030303030303 383.51583896482714 L 175.25252525252526 385.92400176506413 L 170.2020202020202 389.73986538278274 L 165.15151515151516 391.81801090527904 L 160.1010101010101 395.0163351301631 L 155.05050505050505 397.56006293738164 L 150 399.9994561862184" /><text  class="poloto_text" alignment-baseline="start" text-anchor="middle" font-size="x-large" x="400" y="37.5" >Bench of query:256_bytes with abspiral(num,1.5)</text><text  class="poloto_text" alignment-baseline="start" text-anchor="middle" font-size="x-large" x="400" y="481.25" >Number of Elements</text><text  class="poloto_text" alignment-baseline="start" text-anchor="middle" font-size="x-large" transform="rotate(-90,37.5,250)" x="37.5" y="250" >Time in Seconds</text><line  class="poloto_axis_lines" stroke="black" x1="150" x2="150" y1="400" y2="405" /><text  class="poloto_text" alignment-baseline="start" text-anchor="middle" x="150" y="430" > 0</text><line  class="poloto_axis_lines" stroke="black" x1="234.17508417508418" x2="234.17508417508418" y1="400" y2="405" /><text  class="poloto_text" alignment-baseline="start" text-anchor="middle" x="234.17508417508418" y="430" > 5000</text><line  class="poloto_axis_lines" stroke="black" x1="318.35016835016836" x2="318.35016835016836" y1="400" y2="405" /><text  class="poloto_text" alignment-baseline="start" text-anchor="middle" x="318.35016835016836" y="430" > 10000</text><line  class="poloto_axis_lines" stroke="black" x1="402.52525252525254" x2="402.52525252525254" y1="400" y2="405" /><text  class="poloto_text" alignment-baseline="start" text-anchor="middle" x="402.52525252525254" y="430" > 15000</text><line  class="poloto_axis_lines" stroke="black" x1="486.7003367003367" x2="486.7003367003367" y1="400" y2="405" /><text  class="poloto_text" alignment-baseline="start" text-anchor="middle" x="486.7003367003367" y="430" > 20000</text><line  class="poloto_axis_lines" stroke="black" x1="570.8754208754208" x2="570.8754208754208" y1="400" y2="405" /><text  class="poloto_text" alignment-baseline="start" text-anchor="middle" x="570.8754208754208" y="430" > 25000</text><line  class="poloto_axis_lines" stroke="black" x1="150" x2="144" y1="322.3173666154273" y2="322.3173666154273" /><text  class="poloto_text" alignment-baseline="middle" text-anchor="end" x="135" y="322.3173666154273" > 0.001</text><line  class="poloto_axis_lines" stroke="black" x1="150" x2="144" y1="244.62968353145413" y2="244.62968353145413" /><text  class="poloto_text" alignment-baseline="middle" text-anchor="end" x="135" y="244.62968353145413" > 0.002</text><line  class="poloto_axis_lines" stroke="black" x1="150" x2="144" y1="166.94200044748106" y2="166.94200044748106" /><text  class="poloto_text" alignment-baseline="middle" text-anchor="end" x="135" y="166.94200044748106" > 0.003</text><path  stroke="black" fill="none" class="poloto_axis_lines" style="stroke-dasharray:8.417508417508419;stroke-dashoffset:-0;" d=" M 150 400 L 650 400" /><path  stroke="black" fill="none" class="poloto_axis_lines" style="stroke-dasharray:7.7687683083973145;stroke-dashoffset:-77.68263338457268;" d=" M 150 400 L 150 100" /></svg>