<svg class="poloto" width="800" height="500" viewBox="0 0 800 500" xmlns="http://www.w3.org/2000/svg"><style>.poloto {
                    font-family: "Arial";
                    stroke-width:2;
                    }
                    .poloto_text{fill: var(--poloto_fg_color,black);  }
                    .poloto_axis_lines{stroke: var(--poloto_fg_color,black);stoke-width:3;fill:none}
                    .poloto_background{fill: var(--poloto_bg_color,aliceblue); }
                    .poloto0stroke{stroke:  var(--poloto_color0,blue); }
                    .poloto1stroke{stroke:  var(--poloto_color1,red); }
                    .poloto2stroke{stroke:  var(--poloto_color2,green); }
                    .poloto3stroke{stroke:  var(--poloto_color3,gold); }
                    .poloto4stroke{stroke:  var(--poloto_color4,aqua); }
                    .poloto5stroke{stroke:  var(--poloto_color5,brown); }
                    .poloto6stroke{stroke:  var(--poloto_color6,lime); }
                    .poloto7stroke{stroke:  var(--poloto_color7,chocolate); }
                    .poloto0fill{fill:var(--poloto_color0,blue);}
                    .poloto1fill{fill:var(--poloto_color1,red);}
                    .poloto2fill{fill:var(--poloto_color2,green);}
                    .poloto3fill{fill:var(--poloto_color3,gold);}
                    .poloto4fill{fill:var(--poloto_color4,aqua);}
                    .poloto5fill{fill:var(--poloto_color5,brown);}
                    .poloto6fill{fill:var(--poloto_color6,lime);}
                    .poloto7fill{fill:var(--poloto_color7,chocolate);}</style><rect class="poloto_background" fill="white" x="0" y="0" width="800" height="500"/><line class="poloto_axis_lines" stroke="black" x1="150" x2="150" y1="400" y2="405"/><text class="poloto_text" alignment-baseline="start" text-anchor="middle" x="150" y="430">0</text><line class="poloto_axis_lines" stroke="black" x1="234.17508417508418" x2="234.17508417508418" y1="400" y2="405"/><text class="poloto_text" alignment-baseline="start" text-anchor="middle" x="234.17508417508418" y="430">5000</text><line class="poloto_axis_lines" stroke="black" x1="318.35016835016836" x2="318.35016835016836" y1="400" y2="405"/><text class="poloto_text" alignment-baseline="start" text-anchor="middle" x="318.35016835016836" y="430">10000</text><line class="poloto_axis_lines" stroke="black" x1="402.52525252525254" x2="402.52525252525254" y1="400" y2="405"/><text class="poloto_text" alignment-baseline="start" text-anchor="middle" x="402.52525252525254" y="430">15000</text><line class="poloto_axis_lines" stroke="black" x1="486.7003367003367" x2="486.7003367003367" y1="400" y2="405"/><text class="poloto_text" alignment-baseline="start" text-anchor="middle" x="486.7003367003367" y="430">20000</text><line class="poloto_axis_lines" stroke="black" x1="570.8754208754208" x2="570.8754208754208" y1="400" y2="405"/><text class="poloto_text" alignment-baseline="start" text-anchor="middle" x="570.8754208754208" y="430">25000</text><line class="poloto_axis_lines" stroke="black" x1="150" x2="144" y1="360.4296744892232" y2="360.4296744892232"/><text class="poloto_text" alignment-baseline="middle" text-anchor="end" x="135" y="360.4296744892232">0.002</text><line class="poloto_axis_lines" stroke="black" x1="150" x2="144" y1="320.8563018287515" y2="320.8563018287515"/><text class="poloto_text" alignment-baseline="middle" text-anchor="end" x="135" y="320.8563018287515">0.004</text><line class="poloto_axis_lines" stroke="black" x1="150" x2="144" y1="281.28292916827985" y2="281.28292916827985"/><text class="poloto_text" alignment-baseline="middle" text-anchor="end" x="135" y="281.28292916827985">0.006</text><line class="poloto_axis_lines" stroke="black" x1="150" x2="144" y1="241.7095565078082" y2="241.7095565078082"/><text class="poloto_text" alignment-baseline="middle" text-anchor="end" x="135" y="241.7095565078082">0.008</text><line class="poloto_axis_lines" stroke="black" x1="150" x2="144" y1="202.1361838473365" y2="202.1361838473365"/><text class="poloto_text" alignment-baseline="middle" text-anchor="end" x="135" y="202.1361838473365">0.010</text><line class="poloto_axis_lines" stroke="black" x1="150" x2="144" y1="162.5628111868648" y2="162.5628111868648"/><text class="poloto_text" alignment-baseline="middle" text-anchor="end" x="135" y="162.5628111868648">0.012</text><line class="poloto_axis_lines" stroke="black" x1="150" x2="144" y1="122.98943852639314" y2="122.98943852639314"/><text class="poloto_text" alignment-baseline="middle" text-anchor="end" x="135" y="122.98943852639314">0.014</text><text class="poloto_text" alignment-baseline="middle" text-anchor="start" font-size="large" x="675" y="100">default_par</text><line class="poloto0stroke" stroke="black" x1="680" x2="730" y1="81.25" y2="81.25"/><polyline class="poloto0stroke" fill="none" stroke="black" points="650,364.11363889693183 644.9494949494949,378.5156951293753 639.8989898989898,377.1554000175442 634.8484848484848,375.53136816361746 629.7979797979798,377.0164183327606 624.7474747474747,377.74714065893625 619.6969696969697,377.16721266928334 614.6464646464647,377.30734198187406 609.5959595959596,376.9071958242177 604.5454545454545,366.8023527689159 599.4949494949494,345.5965850817619 594.4444444444445,377.8213011593019 589.3939393939394,379.25785416024974 584.3434343434344,379.97803018261135 579.2929292929293,379.062302339248 574.2424242424242,379.0466510703608 569.1919191919192,378.94265224700905 564.1414141414141,379.41808674615197 559.090909090909,380.4839559653891 554.040404040404,380.65764349799593 548.989898989899,380.94168138026646 543.939393939394,381.32024026313655 538.8888888888889,381.3222387184559 533.8383838383838,382.0523674440416 528.7878787878788,380.1615516983243 523.7373737373737,381.541059682582 518.6868686868687,382.9880006938531 513.6363636363636,381.928423640869 508.5858585858586,382.2120262160403 503.5353535353535,382.3090996991764 498.4848484848485,379.99657030770277 493.4343434343434,383.8090690298126 488.3838383838384,382.15329933101214 483.3333333333333,384.32961717378845 478.2828282828283,384.7400524083365 473.2323232323232,381.54946902427235 468.1818181818182,385.0438769769373 463.1313131313131,384.94169852872795 458.0808080808081,385.16879032774006 453.030303030303,385.49622041313285 447.979797979798,385.58316311286785 442.9292929292929,384.1971848821802 437.8787878787879,385.8628677108321 432.8282828282828,386.7689198645799 427.77777777777777,385.40777392523665 422.72727272727275,387.8897762851288 417.67676767676767,384.0432246758446 412.62626262626264,387.86866389081445 407.57575757575756,386.8247974667765 402.52525252525254,386.83765881289116 397.47474747474746,386.9444871323881 392.4242424242424,388.6262565370265 387.37373737373736,386.89545572366177 382.32323232323233,388.4390349109698 377.27272727272725,389.86088640397423 372.22222222222223,387.62006396376137 367.1717171717172,388.38133693363085 362.1212121212121,388.6501984274861 357.07070707070704,389.24170162864215 352.020202020202,389.09092707880575 346.969696969697,388.4738990522837 341.9191919191919,388.21724594389417 336.86868686868684,388.66579033631433 331.8181818181818,390.1809954154248 326.7676767676768,390.11653039136087 321.7171717171717,388.9804777957104 316.66666666666663,390.98130751742383 311.6161616161616,391.295223296053 306.5656565656566,390.9117177416004 301.5151515151515,390.3192845661868 296.4646464646464,391.32347868413257 291.4141414141414,390.4764700023942 286.3636363636364,391.1794316076485 281.3131313131313,392.3859841666936 276.26262626262627,392.1099401057005 271.2121212121212,390.82267765311434 266.16161616161617,394.4912282321717 261.1111111111111,393.48426397813967 256.06060606060606,394.0901323135715 251.010101010101,392.42391524438864 245.95959595959596,393.6296961226669 240.9090909090909,393.56813974149355 235.85858585858585,395.7845256240886 230.8080808080808,394.00144838543935 225.75757575757575,394.55011341069047 220.7070707070707,396.30188811156523 215.65656565656565,392.99452370478 210.6060606060606,394.0726013094829 205.55555555555554,393.71525375435886 200.50505050505052,394.05639601337845 195.45454545454544,394.01092620819156 190.40404040404042,394.69655467622056 185.35353535353534,394.91341675839993 180.3030303030303,397.1930804638791 175.25252525252526,397.58008826181214 170.2020202020202,398.0908222093682 165.15151515151516,398.71018506487724 160.1010101010101,399.1247755035547 155.05050505050505,399.6011597636414 150,400 "/><text class="poloto_text" alignment-baseline="middle" text-anchor="start" font-size="large" x="675" y="150">default_seq</text><line class="poloto1stroke" stroke="black" x1="680" x2="730" y1="131.25" y2="131.25"/><polyline class="poloto1stroke" fill="none" stroke="black" points="650,338.712025226706 644.9494949494949,339.2894996672539 639.8989898989898,338.70697962169174 634.8484848484848,340.66117212372484 629.7979797979798,340.37567002666583 624.7474747474747,341.08541846533143 619.6969696969697,342.0053015128241 614.6464646464647,342.6043038680993 609.5959595959596,343.445218250448 604.5454545454545,343.20540361212556 599.4949494949494,344.14853601605625 594.4444444444445,343.7588570154686 589.3939393939394,345.7458360567509 584.3434343434344,345.61401715241885 579.2929292929293,347.0676658503559 574.2424242424242,347.50580244576634 569.1919191919192,347.73570395423735 564.1414141414141,347.6755920011661 559.090909090909,349.4342128955111 554.040404040404,350.0033967144867 548.989898989899,349.91833374995304 543.939393939394,350.9609536127521 538.8888888888889,351.8623756818987 533.8383838383838,351.8907300034099 528.7878787878788,352.42633581568305 523.7373737373737,352.4613780371739 518.6868686868687,353.8800834470518 513.6363636363636,353.87485976186065 508.5858585858586,355.01291081283046 503.5353535353535,355.7207003695494 498.4848484848485,356.05992331999494 493.4343434343434,356.58901931246544 488.3838383838384,357.5606247580253 483.3333333333333,357.41366903865065 478.2828282828283,358.92986345207765 473.2323232323232,359.7354388126405 468.1818181818182,359.664582688892 463.1313131313131,360.7453908563084 458.0808080808081,360.05105624629414 453.030303030303,361.68559483066224 447.979797979798,362.334538782235 442.9292929292929,362.85261359041954 437.8787878787879,363.5039121576656 432.8282828282828,363.7526703782093 427.77777777777777,364.862010947314 422.72727272727275,368.1663282044044 417.67676767676767,368.90965464977234 412.62626262626264,369.62804987036424 407.57575757575756,369.93581198954473 402.52525252525254,370.1835017290266 397.47474747474746,371.0073995611313 392.4242424242424,371.3977908824269 387.37373737373736,372.3626094945755 382.32323232323233,372.59156124210267 377.27272727272725,373.4639166690301 372.22222222222223,373.8599076225571 367.1717171717172,374.6396019974 362.1212121212121,374.8777347673844 357.07070707070704,375.60099751281354 352.020202020202,376.2607449951226 346.969696969697,376.7958561402375 341.9191919191919,377.12827247058544 336.86868686868684,377.5960890954912 331.8181818181818,378.376792591337 326.7676767676768,378.58508703833536 321.7171717171717,379.5205422079699 316.66666666666663,380.12894323925207 311.6161616161616,380.8204681398075 306.5656565656566,381.35894302159846 301.5151515151515,381.8729021990264 296.4646464646464,382.5929792879563 291.4141414141414,383.05119936999193 286.3636363636364,385.4315773088919 281.3131313131313,385.70237789800757 276.26262626262627,386.2831962885453 271.2121212121212,386.81076870616835 266.16161616161617,387.3648157101013 261.1111111111111,388.20889596226283 256.06060606060606,388.5721003765406 251.010101010101,389.1008797820299 245.95959595959596,389.2760711027978 240.9090909090909,389.9656569080928 235.85858585858585,390.43238526525045 230.8080808080808,391.1150655170162 225.75757575757575,391.6987925504445 220.7070707070707,391.94212921893376 215.65656565656565,393.2910271994386 210.6060606060606,393.81288126471225 205.55555555555554,394.30024713571225 200.50505050505052,394.67769796414785 195.45454545454544,395.10548612260754 190.40404040404042,395.73086413076095 185.35353535353534,396.2796083027574 180.3030303030303,397.09699631505947 175.25252525252526,397.5743105494037 170.2020202020202,397.9730518523306 165.15151515151516,398.6111526997944 160.1010101010101,399.08207583445403 155.05050505050505,399.554938064374 150,399.9995646929007 "/><text class="poloto_text" alignment-baseline="middle" text-anchor="start" font-size="large" x="675" y="200">direct_par</text><line class="poloto2stroke" stroke="black" x1="680" x2="730" y1="181.25" y2="181.25"/><polyline class="poloto2stroke" fill="none" stroke="black" points="650,269.17056849128494 644.9494949494949,307.4312528072361 639.8989898989898,300.0712584530373 634.8484848484848,297.7494095323021 629.7979797979798,299.6738626447808 624.7474747474747,303.09040998673635 619.6969696969697,307.8943799874816 614.6464646464647,303.56267861606636 609.5959595959596,308.16735711209355 604.5454545454545,304.3300260986393 599.4949494949494,306.4574906128662 594.4444444444445,301.9327503296132 589.3939393939394,301.8542169715685 584.3434343434344,312.418783897067 579.2929292929293,313.18795175478226 574.2424242424242,311.7073140166907 569.1919191919192,318.2480801967588 564.1414141414141,314.944396113631 559.090909090909,321.8386514449887 554.040404040404,322.27399811762655 548.989898989899,323.6599961350006 543.939393939394,325.22969374826454 538.8888888888889,320.48846732987244 533.8383838383838,325.37639224071694 528.7878787878788,324.90909006965575 523.7373737373737,321.57471683602967 518.6868686868687,332.2124351408911 513.6363636363636,331.7758616937008 508.5858585858586,333.52421329784045 503.5353535353535,334.3018696439914 498.4848484848485,333.6044878842822 493.4343434343434,334.67257321238833 488.3838383838384,334.71562904184293 483.3333333333333,340.9823891896099 478.2828282828283,340.5522464154769 473.2323232323232,330.84929074622846 468.1818181818182,340.74152585691195 463.1313131313131,337.32727377057074 458.0808080808081,341.5609123245333 453.030303030303,343.95543774415944 447.979797979798,343.4189019576288 442.9292929292929,340.8381640329488 437.8787878787879,344.4616999006049 432.8282828282828,347.5406468003939 427.77777777777777,344.79575852591825 422.72727272727275,347.5726418721899 417.67676767676767,353.54711308948663 412.62626262626264,352.7573472913016 407.57575757575756,351.82460289769426 402.52525252525254,354.60589867501756 397.47474747474746,349.9981730292955 392.4242424242424,355.7900527051368 387.37373737373736,355.89005461784984 382.32323232323233,359.38094054034804 377.27272727272725,359.69624138702034 372.22222222222223,358.3084032078176 367.1717171717172,360.5406777995358 362.1212121212121,360.8834029934618 357.07070707070704,364.01399314457274 352.020202020202,362.2842212388972 346.969696969697,359.63256783040964 341.9191919191919,360.745845950094 336.86868686868684,363.4873507012072 331.8181818181818,366.4193220949352 326.7676767676768,363.68749303343753 321.7171717171717,364.53072245808687 316.66666666666663,366.51259653429594 311.6161616161616,369.31609297368175 306.5656565656566,371.4208423720016 301.5151515151515,369.9769089370526 296.4646464646464,373.20880692217435 291.4141414141414,369.7003504222149 286.3636363636364,375.68321119451565 281.3131313131313,375.1623266768722 276.26262626262627,374.3947615407497 271.2121212121212,377.7602592319732 266.16161616161617,376.1839924388476 261.1111111111111,377.94773808495216 256.06060606060606,380.69881959224915 251.010101010101,381.82369271012305 245.95959595959596,380.3774442328735 240.9090909090909,380.55014243116375 235.85858585858585,381.2394512228502 230.8080808080808,382.00153544685924 225.75757575757575,383.85079915128307 220.7070707070707,384.7410219559667 215.65656565656565,384.46632338964406 210.6060606060606,382.5505764191506 205.55555555555554,384.9927877528326 200.50505050505052,386.7815239837723 195.45454545454544,386.7621132444823 190.40404040404042,388.6532851505536 185.35353535353534,388.363073822148 180.3030303030303,389.47757871638487 175.25252525252526,391.0280832439085 170.2020202020202,392.96177673890344 165.15151515151516,395.3474179363673 160.1010101010101,397.0181661567198 155.05050505050505,398.545638981355 150,399.99817962485764 "/><text class="poloto_text" alignment-baseline="middle" text-anchor="start" font-size="large" x="675" y="250">direct_seq</text><line class="poloto3stroke" stroke="black" x1="680" x2="730" y1="231.25" y2="231.25"/><polyline class="poloto3stroke" fill="none" stroke="black" points="650,100.847523135583 644.9494949494949,100 639.8989898989898,111.92446630360297 634.8484848484848,126.34700175639819 629.7979797979798,123.267204029097 624.7474747474747,129.43881000230192 619.6969696969697,135.18713918153037 614.6464646464647,136.44102149427738 609.5959595959596,141.64391087812658 604.5454545454545,143.10832353342732 599.4949494949494,116.26894987438754 594.4444444444445,140.29663540590082 589.3939393939394,139.7935786926409 584.3434343434344,151.13269545453647 579.2929292929293,161.92346377816224 574.2424242424242,165.07405826915303 569.1919191919192,166.03165474079114 564.1414141414141,167.44628409328502 559.090909090909,175.91360077458285 554.040404040404,179.89003219293866 548.989898989899,181.74966412099957 543.939393939394,185.5969082643053 538.8888888888889,191.9128976876619 533.8383838383838,190.38597889024393 528.7878787878788,191.92575903377656 523.7373737373737,195.84154425853023 518.6868686868687,202.58468866638395 513.6363636363636,202.9572719699823 508.5858585858586,207.8743822431639 503.5353535353535,211.80653105751264 498.4848484848485,214.1874432369436 493.4343434343434,216.14495990228016 488.3838383838384,221.9047257862075 483.3333333333333,221.3475524858344 478.2828282828283,228.54129910148657 473.2323232323232,231.8325967189717 468.1818181818182,231.53476751632897 463.1313131313131,236.07492162823323 458.0808080808081,234.55914273521918 453.030303030303,240.7494273403198 447.979797979798,244.72710531991444 442.9292929292929,247.49882434105388 437.8787878787879,248.8824677427546 432.8282828282828,250.4715760953085 427.77777777777777,254.5288361273234 422.72727272727275,267.4530841178205 417.67676767676767,270.15258173385456 412.62626262626264,274.3301843921299 407.57575757575756,276.1929228299446 402.52525252525254,277.27857873551204 397.47474747474746,281.00213630256746 392.4242424242424,282.01935006011854 387.37373737373736,286.2457862602569 382.32323232323233,287.63427740010854 377.27272727272725,290.9426509278967 372.22222222222223,291.12797303206565 367.1717171717172,295.8005594355782 362.1212121212121,296.6861125822879 357.07070707070704,299.4683383338687 352.020202020202,302.68731561281675 346.969696969697,305.7566066096766 341.9191919191919,306.2031723334637 336.86868686868684,308.4901373261987 331.8181818181818,312.7870537030454 326.7676767676768,312.9019747772514 321.7171717171717,317.7174408427545 316.66666666666663,319.5542587214767 311.6161616161616,321.9152061344004 306.5656565656566,324.817734938869 301.5151515151515,326.9370077649553 296.4646464646464,330.6112766963621 291.4141414141414,332.21639247815716 286.3636363636364,338.3486031588785 281.3131313131313,340.8223940439436 276.26262626262627,342.15583862242454 271.2121212121212,345.46399449666296 266.16161616161617,347.48387879731246 261.1111111111111,351.54111904264096 256.06060606060606,352.94842732119264 251.010101010101,355.2122418909213 245.95959595959596,355.8069901086355 240.9090909090909,358.92966558521437 235.85858585858585,361.51562719508553 230.8080808080808,364.3929477611694 225.75757575757575,367.229745193649 220.7070707070707,368.1715716762819 215.65656565656565,373.2951758080058 210.6060606060606,375.49173543089796 205.55555555555554,377.52721164037564 200.50505050505052,379.3292643112156 195.45454545454544,380.993779725374 190.40404040404042,383.6798817547625 185.35353535353534,385.8857806936025 180.3030303030303,388.1889905558146 175.25252525252526,390.3306619108267 170.2020202020202,392.25820174637295 165.15151515151516,394.6015192217764 160.1010101010101,396.5652291199344 155.05050505050505,398.27859786264213 150,399.99216447221323 "/><text class="poloto_text" alignment-baseline="middle" text-anchor="start" font-size="large" x="675" y="300">indirect_par</text><line class="poloto4stroke" stroke="black" x1="680" x2="730" y1="281.25" y2="281.25"/><polyline class="poloto4stroke" fill="none" stroke="black" points="650,341.4051515297417 644.9494949494949,357.04165954895586 639.8989898989898,353.4037981203967 634.8484848484848,353.7906871982118 629.7979797979798,357.2681775340644 624.7474747474747,356.6059369292778 619.6969696969697,359.7571052341721 614.6464646464647,360.6615546663272 609.5959595959596,357.4592377772692 604.5454545454545,347.18620788816037 599.4949494949494,327.92177135692475 594.4444444444445,358.1576880180402 589.3939393939394,356.8042390996794 584.3434343434344,362.72087383283286 579.2929292929293,365.9811854995248 574.2424242424242,362.81604779408127 569.1919191919192,369.03545840146 564.1414141414141,366.0299398946425 559.090909090909,370.29881853695923 554.040404040404,372.1960055956749 548.989898989899,372.1808489939459 543.939393939394,372.8349572706509 538.8888888888889,373.12040000765086 533.8383838383838,375.7874474581033 528.7878787878788,372.76902803179854 523.7373737373737,373.24976536287795 518.6868686868687,375.51437140005976 513.6363636363636,377.24546901371946 508.5858585858586,376.6796885047927 503.5353535353535,373.9135691158847 498.4848484848485,377.6193780253019 493.4343434343434,377.83679413469855 488.3838383838384,380.0259733235895 483.3333333333333,377.7241089560478 478.2828282828283,379.311733307127 473.2323232323232,377.6983466904459 468.1818181818182,378.9653080028572 463.1313131313131,379.2389183014317 458.0808080808081,379.38047225543824 453.030303030303,379.4872016415035 447.979797979798,382.8795498660771 442.9292929292929,381.6007561152403 437.8787878787879,380.9803049919831 432.8282828282828,381.87583062860324 427.77777777777777,383.8706056242996 422.72727272727275,384.12092699306345 417.67676767676767,385.00824115485653 412.62626262626264,382.34950411266277 407.57575757575756,381.5412773361316 402.52525252525254,383.7004005484869 397.47474747474746,381.57453875585276 392.4242424242424,383.7499859844305 387.37373737373736,383.50421555352267 382.32323232323233,383.37892625567963 377.27272727272725,386.0262661665472 372.22222222222223,386.0215965085732 367.1717171717172,386.0881193480155 362.1212121212121,386.0953612752124 357.07070707070704,386.1610332871424 352.020202020202,388.0377015521336 346.969696969697,386.72588382181164 341.9191919191919,387.07684027725105 336.86868686868684,387.2262297590443 331.8181818181818,388.520833072259 326.7676767676768,386.87359143526686 321.7171717171717,387.4544098258046 316.66666666666663,387.9508973592029 311.6161616161616,388.4680224064436 306.5656565656566,390.36912722905265 301.5151515151515,390.34437408445353 296.4646464646464,388.95036245911575 291.4141414141414,389.8142491842939 286.3636363636364,391.13942292788875 281.3131313131313,391.85401910470523 276.26262626262627,391.04264624504754 271.2121212121212,390.02933046470355 266.16161616161617,393.116093105593 261.1111111111111,390.0647882066073 256.06060606060606,390.37080909739075 251.010101010101,393.4719962326149 245.95959595959596,391.24280836396423 240.9090909090909,392.85196062977064 235.85858585858585,395.0557028198007 230.8080808080808,393.63450428744517 225.75757575757575,395.5854121995474 220.7070707070707,395.71580646246366 215.65656565656565,393.0205827706769 210.6060606060606,393.96919608672107 205.55555555555554,393.38859534973295 200.50505050505052,393.205251914197 195.45454545454544,393.322567177449 190.40404040404042,394.55808744528156 185.35353535353534,394.00425809489826 180.3030303030303,397.26955600654543 175.25252525252526,397.69419808187865 170.2020202020202,398.1810692857204 165.15151515151516,398.7774795850864 160.1010101010101,399.20924486749846 155.05050505050505,399.64403751291906 150,399.9975860242677 "/><text class="poloto_text" alignment-baseline="middle" text-anchor="start" font-size="large" x="675" y="350">indirect_seq</text><line class="poloto5stroke" stroke="black" x1="680" x2="730" y1="331.25" y2="331.25"/><polyline class="poloto5stroke" fill="none" stroke="black" points="650,266.157590403721 644.9494949494949,286.45993756640905 639.8989898989898,279.4957362988739 634.8484848484848,292.23840186891846 629.7979797979798,289.19697052641163 624.7474747474747,292.6981257391152 619.6969696969697,297.15193075187426 614.6464646464647,298.37753788985543 609.5959595959596,301.7354572802144 604.5454545454545,303.2344174898478 599.4949494949494,295.78496752674994 594.4444444444445,302.2622382303843 589.3939393939394,310.90947525048296 584.3434343434344,313.0271057816038 579.2929292929293,318.65155051771865 574.2424242424242,318.95988645080274 569.1919191919192,322.2830406332795 564.1414141414141,322.12201657992404 559.090909090909,327.9403708420752 554.040404040404,330.705461323294 548.989898989899,330.088195856536 543.939393939394,335.69479300158093 538.8888888888889,336.9888422875784 533.8383838383838,338.9004538406288 528.7878787878788,342.9198421550076 523.7373737373737,344.5190417175899 518.6868686868687,344.286152419483 513.6363636363636,347.11107784016446 508.5858585858586,348.9834326075357 503.5353535353535,349.869381487972 498.4848484848485,349.8235159490585 493.4343434343434,351.57637891768144 488.3838383838384,352.19694876105666 483.3333333333333,352.9530771924803 478.2828282828283,354.14973640836024 473.2323232323232,355.1022872749842 468.1818181818182,354.86884394966006 463.1313131313131,356.56705609063886 458.0808080808081,356.02749294109964 453.030303030303,357.773608649684 447.979797979798,359.3204328535502 442.9292929292929,359.5054581574242 437.8787878787879,360.1765038376278 432.8282828282828,360.3465506199499 427.77777777777777,360.07155525333224 422.72727272727275,364.9725987372137 417.67676767676767,365.9422848741996 412.62626262626264,366.60145854260503 407.57575757575756,366.85098844391564 402.52525252525254,367.4264050690852 397.47474747474746,368.30117447174496 392.4242424242424,367.1226398605434 387.37373737373736,369.85913858001504 382.32323232323233,370.1217276943036 377.27272727272725,370.90514196617664 372.22222222222223,370.9974072845345 367.1717171717172,372.11116028469087 362.1212121212121,372.44640611118405 357.07070707070704,373.28967510920603 352.020202020202,374.20987474367996 346.969696969697,374.7331534503694 341.9191919191919,375.05128379318694 336.86868686868684,375.68720810515435 331.8181818181818,376.00428975359637 326.7676767676768,377.05927629535194 321.7171717171717,377.2581324929708 316.66666666666663,378.04811594470544 311.6161616161616,379.39752837905485 306.5656565656566,379.48488659920287 301.5151515151515,379.9993602304753 296.4646464646464,381.0101037415964 291.4141414141414,381.4841531726962 286.3636363636364,383.5965204452532 281.3131313131313,384.1227473682058 276.26262626262627,384.7665467813327 271.2121212121212,385.5568270333623 266.16161616161617,386.60920173252225 261.1111111111111,387.1292947827125 256.06060606060606,387.5710127683487 251.010101010101,388.2424541822789 245.95959595959596,388.45935583783097 240.9090909090909,389.36034259987827 235.85858585858585,389.99046941275094 230.8080808080808,390.57239585772317 225.75757575757575,391.4639047970183 220.7070707070707,391.580606672994 215.65656565656565,393.0954160183779 210.6060606060606,393.581950848552 205.55555555555554,394.1289933655241 200.50505050505052,394.5309598983228 195.45454545454544,395.04954916035194 190.40404040404042,395.7376905375449 185.35353535353534,396.30556843522265 180.3030303030303,397.1196322842212 175.25252525252526,397.6208884090251 170.2020202020202,398.05407833285295 165.15151515151516,398.69012136493836 160.1010101010101,399.14889547419125 155.05050505050505,399.59508525093804 150,399.99861493195687 "/><text class="poloto_text" alignment-baseline="start" text-anchor="middle" font-size="x-large" x="400" y="37.5">Bench of rebal:256_bytes with abspiral(num,1.5)</text><text class="poloto_text" alignment-baseline="start" text-anchor="middle" font-size="x-large" x="400" y="481.25">Number of Elements</text><text class="poloto_text" alignment-baseline="start" text-anchor="middle" font-size="x-large" transform="rotate(-90,37.5,250)" x="37.5" y="250">Time in Seconds</text><path stroke="black" fill="none" class="poloto_axis_lines" d=" M 150 100 L 150 400 L 650 400"/></svg>