<svg class="poloto" width="800" height="500" viewBox="0 0 800 500" xmlns="http://www.w3.org/2000/svg"><circle  r="1e5" class="poloto_background" /><text  class="poloto_text poloto_legend_text" x="675" y="100" >default_par</text><line  class="poloto_scatter poloto_legend_icon poloto0stroke poloto0legend" stroke="black" x1="685" x2="685" y1="81.25" y2="81.25" /><path  class="poloto_scatter poloto0stroke" d=" M 650.00 396.84 h 0 M 644.95 396.58 h 0 M 639.90 396.52 h 0 M 634.85 396.64 h 0 M 629.80 397.00 h 0 M 624.75 396.84 h 0 M 619.70 396.52 h 0 M 614.65 396.94 h 0 M 609.60 396.97 h 0 M 604.55 396.97 h 0 M 599.49 396.76 h 0 M 594.44 396.82 h 0 M 589.39 397.12 h 0 M 584.34 396.78 h 0 M 579.29 397.07 h 0 M 574.24 397.10 h 0 M 569.19 396.32 h 0 M 564.14 397.08 h 0 M 559.09 397.06 h 0 M 554.04 397.28 h 0 M 548.99 397.06 h 0 M 543.94 397.31 h 0 M 538.89 397.28 h 0 M 533.84 397.33 h 0 M 528.79 397.21 h 0 M 523.74 397.69 h 0 M 518.69 397.24 h 0 M 513.64 397.13 h 0 M 508.59 397.22 h 0 M 503.54 395.61 h 0 M 498.48 397.04 h 0 M 493.43 397.50 h 0 M 488.38 397.32 h 0 M 483.33 397.87 h 0 M 478.28 397.55 h 0 M 473.23 396.86 h 0 M 468.18 397.56 h 0 M 463.13 397.64 h 0 M 458.08 397.75 h 0 M 453.03 397.83 h 0 M 447.98 397.80 h 0 M 442.93 398.01 h 0 M 437.88 398.10 h 0 M 432.83 397.97 h 0 M 427.78 398.06 h 0 M 422.73 397.86 h 0 M 417.68 398.06 h 0 M 412.63 398.12 h 0 M 407.58 397.82 h 0 M 402.53 398.09 h 0 M 397.47 398.19 h 0 M 392.42 398.13 h 0 M 387.37 398.36 h 0 M 382.32 398.39 h 0 M 377.27 397.70 h 0 M 372.22 398.48 h 0 M 367.17 398.38 h 0 M 362.12 398.60 h 0 M 357.07 397.30 h 0 M 352.02 398.39 h 0 M 346.97 398.45 h 0 M 341.92 398.72 h 0 M 336.87 398.74 h 0 M 331.82 398.70 h 0 M 326.77 398.79 h 0 M 321.72 398.32 h 0 M 316.67 398.86 h 0 M 311.62 398.88 h 0 M 306.57 398.73 h 0 M 301.52 398.85 h 0 M 296.46 399.02 h 0 M 291.41 398.85 h 0 M 286.36 398.72 h 0 M 281.31 398.83 h 0 M 276.26 398.91 h 0 M 271.21 398.82 h 0 M 266.16 399.07 h 0 M 261.11 398.95 h 0 M 256.06 399.06 h 0 M 251.01 399.12 h 0 M 245.96 399.03 h 0 M 240.91 399.08 h 0 M 235.86 399.07 h 0 M 230.81 399.20 h 0 M 225.76 399.16 h 0 M 220.71 399.22 h 0 M 215.66 398.96 h 0 M 210.61 399.35 h 0 M 205.56 399.50 h 0 M 200.51 399.38 h 0 M 195.45 399.53 h 0 M 190.40 399.47 h 0 M 185.35 399.54 h 0 M 180.30 399.73 h 0 M 175.25 399.80 h 0 M 170.20 399.82 h 0 M 165.15 399.87 h 0 M 160.10 399.90 h 0 M 155.05 399.97 h 0 M 150.00 400.00 h 0" /><text  class="poloto_text poloto_legend_text" x="675" y="150" >default_seq</text><line  class="poloto_scatter poloto_legend_icon poloto1stroke poloto1legend" stroke="black" x1="685" x2="685" y1="131.25" y2="131.25" /><path  class="poloto_scatter poloto1stroke" d=" M 650.00 392.61 h 0 M 644.95 392.63 h 0 M 639.90 392.50 h 0 M 634.85 392.80 h 0 M 629.80 392.87 h 0 M 624.75 393.00 h 0 M 619.70 393.02 h 0 M 614.65 393.11 h 0 M 609.60 393.30 h 0 M 604.55 393.18 h 0 M 599.49 393.41 h 0 M 594.44 393.46 h 0 M 589.39 393.59 h 0 M 584.34 393.51 h 0 M 579.29 393.68 h 0 M 574.24 393.81 h 0 M 569.19 393.92 h 0 M 564.14 393.85 h 0 M 559.09 394.10 h 0 M 554.04 394.14 h 0 M 548.99 394.21 h 0 M 543.94 394.22 h 0 M 538.89 394.35 h 0 M 533.84 394.36 h 0 M 528.79 394.52 h 0 M 523.74 394.61 h 0 M 518.69 394.59 h 0 M 513.64 394.47 h 0 M 508.59 394.71 h 0 M 503.54 393.60 h 0 M 498.48 394.92 h 0 M 493.43 395.03 h 0 M 488.38 395.13 h 0 M 483.33 395.09 h 0 M 478.28 395.23 h 0 M 473.23 395.37 h 0 M 468.18 395.31 h 0 M 463.13 395.38 h 0 M 458.08 395.42 h 0 M 453.03 395.60 h 0 M 447.98 395.68 h 0 M 442.93 395.77 h 0 M 437.88 395.80 h 0 M 432.83 395.87 h 0 M 427.78 395.90 h 0 M 422.73 396.06 h 0 M 417.68 396.11 h 0 M 412.63 396.19 h 0 M 407.58 396.25 h 0 M 402.53 396.32 h 0 M 397.47 396.41 h 0 M 392.42 396.54 h 0 M 387.37 396.62 h 0 M 382.32 396.68 h 0 M 377.27 396.71 h 0 M 372.22 396.77 h 0 M 367.17 396.94 h 0 M 362.12 396.90 h 0 M 357.07 396.99 h 0 M 352.02 397.14 h 0 M 346.97 397.24 h 0 M 341.92 397.23 h 0 M 336.87 397.33 h 0 M 331.82 397.42 h 0 M 326.77 397.44 h 0 M 321.72 396.80 h 0 M 316.67 397.58 h 0 M 311.62 397.64 h 0 M 306.57 397.75 h 0 M 301.52 397.80 h 0 M 296.46 397.95 h 0 M 291.41 397.99 h 0 M 286.36 398.30 h 0 M 281.31 398.40 h 0 M 276.26 398.45 h 0 M 271.21 398.47 h 0 M 266.16 398.60 h 0 M 261.11 398.73 h 0 M 256.06 398.73 h 0 M 251.01 398.79 h 0 M 245.96 398.81 h 0 M 240.91 398.87 h 0 M 235.86 398.93 h 0 M 230.81 399.03 h 0 M 225.76 399.14 h 0 M 220.71 399.17 h 0 M 215.66 399.23 h 0 M 210.61 399.29 h 0 M 205.56 399.34 h 0 M 200.51 399.41 h 0 M 195.45 399.46 h 0 M 190.40 399.55 h 0 M 185.35 399.58 h 0 M 180.30 399.70 h 0 M 175.25 399.77 h 0 M 170.20 399.81 h 0 M 165.15 399.85 h 0 M 160.10 399.91 h 0 M 155.05 399.96 h 0 M 150.00 400.00 h 0" /><text  class="poloto_text poloto_legend_text" x="675" y="200" >direct_par</text><line  class="poloto_scatter poloto_legend_icon poloto2stroke poloto2legend" stroke="black" x1="685" x2="685" y1="181.25" y2="181.25" /><path  class="poloto_scatter poloto2stroke" d=" M 650.00 300.49 h 0 M 644.95 294.58 h 0 M 639.90 303.15 h 0 M 634.85 304.14 h 0 M 629.80 307.76 h 0 M 624.75 306.25 h 0 M 619.70 310.24 h 0 M 614.65 295.83 h 0 M 609.60 313.23 h 0 M 604.55 302.84 h 0 M 599.49 310.77 h 0 M 594.44 313.42 h 0 M 589.39 315.18 h 0 M 584.34 314.59 h 0 M 579.29 315.59 h 0 M 574.24 316.30 h 0 M 569.19 299.88 h 0 M 564.14 298.14 h 0 M 559.09 321.04 h 0 M 554.04 319.68 h 0 M 548.99 319.38 h 0 M 543.94 307.06 h 0 M 538.89 326.33 h 0 M 533.84 323.16 h 0 M 528.79 322.77 h 0 M 523.74 327.18 h 0 M 518.69 326.51 h 0 M 513.64 328.06 h 0 M 508.59 328.91 h 0 M 503.54 328.73 h 0 M 498.48 332.51 h 0 M 493.43 331.04 h 0 M 488.38 333.73 h 0 M 483.33 336.37 h 0 M 478.28 335.13 h 0 M 473.23 336.02 h 0 M 468.18 336.64 h 0 M 463.13 337.33 h 0 M 458.08 323.35 h 0 M 453.03 339.93 h 0 M 447.98 340.10 h 0 M 442.93 341.92 h 0 M 437.88 343.88 h 0 M 432.83 342.82 h 0 M 427.78 345.82 h 0 M 422.73 345.56 h 0 M 417.68 337.26 h 0 M 412.63 335.11 h 0 M 407.58 347.27 h 0 M 402.53 349.83 h 0 M 397.47 345.52 h 0 M 392.42 350.58 h 0 M 387.37 343.63 h 0 M 382.32 353.71 h 0 M 377.27 353.36 h 0 M 372.22 355.46 h 0 M 367.17 357.56 h 0 M 362.12 358.83 h 0 M 357.07 358.70 h 0 M 352.02 351.41 h 0 M 346.97 362.55 h 0 M 341.92 363.18 h 0 M 336.87 364.26 h 0 M 331.82 365.46 h 0 M 326.77 365.78 h 0 M 321.72 359.42 h 0 M 316.67 367.18 h 0 M 311.62 367.36 h 0 M 306.57 369.37 h 0 M 301.52 371.02 h 0 M 296.46 371.77 h 0 M 291.41 371.28 h 0 M 286.36 362.08 h 0 M 281.31 364.40 h 0 M 276.26 364.73 h 0 M 271.21 365.96 h 0 M 266.16 368.83 h 0 M 261.11 369.09 h 0 M 256.06 371.24 h 0 M 251.01 372.86 h 0 M 245.96 372.99 h 0 M 240.91 374.64 h 0 M 235.86 376.64 h 0 M 230.81 377.35 h 0 M 225.76 378.78 h 0 M 220.71 380.90 h 0 M 215.66 381.06 h 0 M 210.61 382.98 h 0 M 205.56 385.00 h 0 M 200.51 385.91 h 0 M 195.45 386.72 h 0 M 190.40 388.26 h 0 M 185.35 389.88 h 0 M 180.30 388.40 h 0 M 175.25 390.86 h 0 M 170.20 392.13 h 0 M 165.15 394.40 h 0 M 160.10 396.04 h 0 M 155.05 398.55 h 0 M 150.00 400.00 h 0" /><text  class="poloto_text poloto_legend_text" x="675" y="250" >direct_seq</text><line  class="poloto_scatter poloto_legend_icon poloto3stroke poloto3legend" stroke="black" x1="685" x2="685" y1="231.25" y2="231.25" /><path  class="poloto_scatter poloto3stroke" d=" M 650.00 100.00 h 0 M 644.95 104.23 h 0 M 639.90 103.91 h 0 M 634.85 107.03 h 0 M 629.80 111.43 h 0 M 624.75 113.90 h 0 M 619.70 117.30 h 0 M 614.65 121.78 h 0 M 609.60 122.50 h 0 M 604.55 125.38 h 0 M 599.49 127.95 h 0 M 594.44 132.42 h 0 M 589.39 136.00 h 0 M 584.34 136.71 h 0 M 579.29 141.12 h 0 M 574.24 146.02 h 0 M 569.19 150.48 h 0 M 564.14 148.66 h 0 M 559.09 157.91 h 0 M 554.04 159.12 h 0 M 548.99 161.59 h 0 M 543.94 164.74 h 0 M 538.89 169.33 h 0 M 533.84 172.38 h 0 M 528.79 176.37 h 0 M 523.74 177.48 h 0 M 518.69 177.89 h 0 M 513.64 179.23 h 0 M 508.59 184.67 h 0 M 503.54 187.06 h 0 M 498.48 191.39 h 0 M 493.43 195.09 h 0 M 488.38 197.30 h 0 M 483.33 200.17 h 0 M 478.28 203.69 h 0 M 473.23 207.69 h 0 M 468.18 208.35 h 0 M 463.13 212.61 h 0 M 458.08 214.62 h 0 M 453.03 218.27 h 0 M 447.98 222.41 h 0 M 442.93 226.62 h 0 M 437.88 226.65 h 0 M 432.83 231.06 h 0 M 427.78 232.74 h 0 M 422.73 237.34 h 0 M 417.68 238.36 h 0 M 412.63 241.89 h 0 M 407.58 246.56 h 0 M 402.53 249.31 h 0 M 397.47 251.94 h 0 M 392.42 256.09 h 0 M 387.37 258.28 h 0 M 382.32 261.16 h 0 M 377.27 263.94 h 0 M 372.22 267.87 h 0 M 367.17 272.76 h 0 M 362.12 272.83 h 0 M 357.07 276.37 h 0 M 352.02 281.43 h 0 M 346.97 284.35 h 0 M 341.92 285.71 h 0 M 336.87 288.98 h 0 M 331.82 292.23 h 0 M 326.77 294.43 h 0 M 321.72 297.70 h 0 M 316.67 300.84 h 0 M 311.62 303.21 h 0 M 306.57 308.24 h 0 M 301.52 310.76 h 0 M 296.46 315.00 h 0 M 291.41 317.05 h 0 M 286.36 330.84 h 0 M 281.31 332.37 h 0 M 276.26 335.25 h 0 M 271.21 337.33 h 0 M 266.16 341.80 h 0 M 261.11 345.01 h 0 M 256.06 346.73 h 0 M 251.01 348.49 h 0 M 245.96 350.54 h 0 M 240.91 353.42 h 0 M 235.86 355.53 h 0 M 230.81 359.28 h 0 M 225.76 362.94 h 0 M 220.71 364.65 h 0 M 215.66 366.85 h 0 M 210.61 370.46 h 0 M 205.56 372.37 h 0 M 200.51 375.12 h 0 M 195.45 377.34 h 0 M 190.40 380.69 h 0 M 185.35 382.57 h 0 M 180.30 387.26 h 0 M 175.25 389.91 h 0 M 170.20 391.81 h 0 M 165.15 393.77 h 0 M 160.10 396.23 h 0 M 155.05 398.46 h 0 M 150.00 400.00 h 0" /><text  class="poloto_text poloto_legend_text" x="675" y="300" >indirect_par</text><line  class="poloto_scatter poloto_legend_icon poloto4stroke poloto4legend" stroke="black" x1="685" x2="685" y1="281.25" y2="281.25" /><path  class="poloto_scatter poloto4stroke" d=" M 650.00 389.43 h 0 M 644.95 388.75 h 0 M 639.90 390.17 h 0 M 634.85 390.31 h 0 M 629.80 391.52 h 0 M 624.75 390.32 h 0 M 619.70 390.93 h 0 M 614.65 391.10 h 0 M 609.60 390.58 h 0 M 604.55 391.01 h 0 M 599.49 391.29 h 0 M 594.44 390.90 h 0 M 589.39 392.05 h 0 M 584.34 391.35 h 0 M 579.29 392.08 h 0 M 574.24 392.12 h 0 M 569.19 389.52 h 0 M 564.14 390.74 h 0 M 559.09 392.70 h 0 M 554.04 392.56 h 0 M 548.99 392.61 h 0 M 543.94 392.36 h 0 M 538.89 392.67 h 0 M 533.84 392.90 h 0 M 528.79 392.63 h 0 M 523.74 392.94 h 0 M 518.69 393.31 h 0 M 513.64 393.59 h 0 M 508.59 393.96 h 0 M 503.54 391.91 h 0 M 498.48 394.14 h 0 M 493.43 394.43 h 0 M 488.38 394.39 h 0 M 483.33 394.69 h 0 M 478.28 394.14 h 0 M 473.23 394.05 h 0 M 468.18 393.82 h 0 M 463.13 394.22 h 0 M 458.08 394.73 h 0 M 453.03 394.89 h 0 M 447.98 395.32 h 0 M 442.93 395.04 h 0 M 437.88 395.63 h 0 M 432.83 395.09 h 0 M 427.78 395.66 h 0 M 422.73 395.78 h 0 M 417.68 395.74 h 0 M 412.63 395.65 h 0 M 407.58 395.84 h 0 M 402.53 395.60 h 0 M 397.47 396.17 h 0 M 392.42 396.40 h 0 M 387.37 395.36 h 0 M 382.32 396.53 h 0 M 377.27 395.72 h 0 M 372.22 396.56 h 0 M 367.17 396.78 h 0 M 362.12 396.98 h 0 M 357.07 396.63 h 0 M 352.02 397.23 h 0 M 346.97 397.34 h 0 M 341.92 396.85 h 0 M 336.87 397.19 h 0 M 331.82 397.76 h 0 M 326.77 397.48 h 0 M 321.72 396.36 h 0 M 316.67 397.85 h 0 M 311.62 397.17 h 0 M 306.57 397.72 h 0 M 301.52 398.27 h 0 M 296.46 397.76 h 0 M 291.41 397.80 h 0 M 286.36 397.77 h 0 M 281.31 397.95 h 0 M 276.26 397.98 h 0 M 271.21 397.54 h 0 M 266.16 398.16 h 0 M 261.11 398.28 h 0 M 256.06 398.06 h 0 M 251.01 398.51 h 0 M 245.96 398.40 h 0 M 240.91 398.51 h 0 M 235.86 398.38 h 0 M 230.81 398.50 h 0 M 225.76 398.38 h 0 M 220.71 399.03 h 0 M 215.66 398.39 h 0 M 210.61 398.94 h 0 M 205.56 399.06 h 0 M 200.51 399.02 h 0 M 195.45 399.35 h 0 M 190.40 399.12 h 0 M 185.35 399.27 h 0 M 180.30 399.61 h 0 M 175.25 399.71 h 0 M 170.20 399.75 h 0 M 165.15 399.84 h 0 M 160.10 399.89 h 0 M 155.05 399.96 h 0 M 150.00 400.00 h 0" /><text  class="poloto_text poloto_legend_text" x="675" y="350" >indirect_seq</text><line  class="poloto_scatter poloto_legend_icon poloto5stroke poloto5legend" stroke="black" x1="685" x2="685" y1="331.25" y2="331.25" /><path  class="poloto_scatter poloto5stroke" d=" M 650.00 377.81 h 0 M 644.95 376.52 h 0 M 639.90 372.55 h 0 M 634.85 379.95 h 0 M 629.80 381.19 h 0 M 624.75 381.63 h 0 M 619.70 381.78 h 0 M 614.65 382.35 h 0 M 609.60 382.70 h 0 M 604.55 382.53 h 0 M 599.49 383.19 h 0 M 594.44 383.09 h 0 M 589.39 383.83 h 0 M 584.34 383.54 h 0 M 579.29 384.47 h 0 M 574.24 384.87 h 0 M 569.19 379.15 h 0 M 564.14 384.99 h 0 M 559.09 386.01 h 0 M 554.04 386.02 h 0 M 548.99 386.26 h 0 M 543.94 386.51 h 0 M 538.89 386.80 h 0 M 533.84 387.14 h 0 M 528.79 387.35 h 0 M 523.74 387.46 h 0 M 518.69 387.63 h 0 M 513.64 387.49 h 0 M 508.59 387.62 h 0 M 503.54 388.25 h 0 M 498.48 388.60 h 0 M 493.43 389.03 h 0 M 488.38 389.44 h 0 M 483.33 389.32 h 0 M 478.28 389.68 h 0 M 473.23 390.15 h 0 M 468.18 389.87 h 0 M 463.13 390.48 h 0 M 458.08 390.21 h 0 M 453.03 390.67 h 0 M 447.98 390.92 h 0 M 442.93 391.24 h 0 M 437.88 390.53 h 0 M 432.83 391.43 h 0 M 427.78 391.49 h 0 M 422.73 391.81 h 0 M 417.68 391.81 h 0 M 412.63 392.18 h 0 M 407.58 392.39 h 0 M 402.53 392.58 h 0 M 397.47 392.82 h 0 M 392.42 393.13 h 0 M 387.37 392.25 h 0 M 382.32 393.43 h 0 M 377.27 393.53 h 0 M 372.22 393.67 h 0 M 367.17 394.28 h 0 M 362.12 394.06 h 0 M 357.07 394.21 h 0 M 352.02 394.67 h 0 M 346.97 394.84 h 0 M 341.92 394.76 h 0 M 336.87 395.02 h 0 M 331.82 395.19 h 0 M 326.77 395.30 h 0 M 321.72 394.28 h 0 M 316.67 395.70 h 0 M 311.62 395.79 h 0 M 306.57 396.04 h 0 M 301.52 396.12 h 0 M 296.46 396.43 h 0 M 291.41 396.43 h 0 M 286.36 396.95 h 0 M 281.31 397.15 h 0 M 276.26 397.18 h 0 M 271.21 397.30 h 0 M 266.16 397.58 h 0 M 261.11 397.81 h 0 M 256.06 397.86 h 0 M 251.01 397.90 h 0 M 245.96 397.95 h 0 M 240.91 398.12 h 0 M 235.86 398.20 h 0 M 230.81 398.38 h 0 M 225.76 398.58 h 0 M 220.71 398.64 h 0 M 215.66 398.72 h 0 M 210.61 398.89 h 0 M 205.56 398.98 h 0 M 200.51 399.07 h 0 M 195.45 399.13 h 0 M 190.40 399.31 h 0 M 185.35 399.40 h 0 M 180.30 399.56 h 0 M 175.25 399.67 h 0 M 170.20 399.74 h 0 M 165.15 399.81 h 0 M 160.10 399.89 h 0 M 155.05 399.95 h 0 M 150.00 400.00 h 0" /><text  class="poloto_labels poloto_text poloto_title" x="400" y="37.5" >Bench of rebal:256_bytes with abspiral(num,1.5)</text><text  class="poloto_labels poloto_text poloto_xname" x="400" y="481.25" >Number of Elements</text><text  class="poloto_labels poloto_text poloto_yname" transform="rotate(-90,37.5,250)" x="37.5" y="250" >Time in Seconds</text><text  class="poloto_tick_labels poloto_text" dominant-baseline="middle" text-anchor="start" x="150" y="70" ></text><line  class="poloto_axis_lines" stroke="black" x1="150" x2="144" y1="400" y2="400" /><text  class="poloto_tick_labels poloto_text" dominant-baseline="middle" text-anchor="end" x="135" y="400" >0e0</text><line  class="poloto_axis_lines" stroke="black" x1="150" x2="144" y1="338.2363113111024" y2="338.2363113111024" /><text  class="poloto_tick_labels poloto_text" dominant-baseline="middle" text-anchor="end" x="135" y="338.2363113111024" >0.02</text><line  class="poloto_axis_lines" stroke="black" x1="150" x2="144" y1="276.47262262220477" y2="276.47262262220477" /><text  class="poloto_tick_labels poloto_text" dominant-baseline="middle" text-anchor="end" x="135" y="276.47262262220477" >0.04</text><line  class="poloto_axis_lines" stroke="black" x1="150" x2="144" y1="214.7089339333072" y2="214.7089339333072" /><text  class="poloto_tick_labels poloto_text" dominant-baseline="middle" text-anchor="end" x="135" y="214.7089339333072" >0.06</text><line  class="poloto_axis_lines" stroke="black" x1="150" x2="144" y1="152.94524524440956" y2="152.94524524440956" /><text  class="poloto_tick_labels poloto_text" dominant-baseline="middle" text-anchor="end" x="135" y="152.94524524440956" >0.08</text><text  class="poloto_tick_labels poloto_text" dominant-baseline="middle" text-anchor="start" x="440.00000000000006" y="70" ></text><line  class="poloto_axis_lines" stroke="black" x1="150" x2="150" y1="400" y2="405" /><text  class="poloto_tick_labels poloto_text" dominant-baseline="start" text-anchor="middle" x="150" y="430" >0</text><line  class="poloto_axis_lines" stroke="black" x1="234.17508417508418" x2="234.17508417508418" y1="400" y2="405" /><text  class="poloto_tick_labels poloto_text" dominant-baseline="start" text-anchor="middle" x="234.17508417508418" y="430" >5000</text><line  class="poloto_axis_lines" stroke="black" x1="318.35016835016836" x2="318.35016835016836" y1="400" y2="405" /><text  class="poloto_tick_labels poloto_text" dominant-baseline="start" text-anchor="middle" x="318.35016835016836" y="430" >10000</text><line  class="poloto_axis_lines" stroke="black" x1="402.52525252525254" x2="402.52525252525254" y1="400" y2="405" /><text  class="poloto_tick_labels poloto_text" dominant-baseline="start" text-anchor="middle" x="402.52525252525254" y="430" >15000</text><line  class="poloto_axis_lines" stroke="black" x1="486.7003367003367" x2="486.7003367003367" y1="400" y2="405" /><text  class="poloto_tick_labels poloto_text" dominant-baseline="start" text-anchor="middle" x="486.7003367003367" y="430" >20000</text><line  class="poloto_axis_lines" stroke="black" x1="570.8754208754208" x2="570.8754208754208" y1="400" y2="405" /><text  class="poloto_tick_labels poloto_text" dominant-baseline="start" text-anchor="middle" x="570.8754208754208" y="430" >25000</text><path  stroke="black" fill="none" class="poloto_axis_lines" style="stroke-dasharray:8.417508417508419;stroke-dashoffset:-0;" d=" M 150 400 L 650 400" /><path  stroke="black" fill="none" class="poloto_axis_lines" style="stroke-dasharray:7.720461086112201;stroke-dashoffset:-0;" d=" M 150 400 L 150 100" /></svg>