<svg class="poloto" width="800" height="500" viewBox="0 0 800 500" xmlns="http://www.w3.org/2000/svg"><style>.poloto {
                    font-family: "Arial";
                    stroke-width:2;
                    }
                    .poloto_text{fill: var(--poloto_fg_color,black);  }
                    .poloto_axis_lines{stroke: var(--poloto_fg_color,black);stoke-width:3;fill:none}
                    .poloto_background{fill: var(--poloto_bg_color,aliceblue); }
                    .poloto0stroke{stroke:  var(--poloto_color0,blue); }
                    .poloto1stroke{stroke:  var(--poloto_color1,red); }
                    .poloto2stroke{stroke:  var(--poloto_color2,green); }
                    .poloto3stroke{stroke:  var(--poloto_color3,gold); }
                    .poloto4stroke{stroke:  var(--poloto_color4,aqua); }
                    .poloto5stroke{stroke:  var(--poloto_color5,brown); }
                    .poloto6stroke{stroke:  var(--poloto_color6,lime); }
                    .poloto7stroke{stroke:  var(--poloto_color7,chocolate); }
                    .poloto0fill{fill:var(--poloto_color0,blue);}
                    .poloto1fill{fill:var(--poloto_color1,red);}
                    .poloto2fill{fill:var(--poloto_color2,green);}
                    .poloto3fill{fill:var(--poloto_color3,gold);}
                    .poloto4fill{fill:var(--poloto_color4,aqua);}
                    .poloto5fill{fill:var(--poloto_color5,brown);}
                    .poloto6fill{fill:var(--poloto_color6,lime);}
                    .poloto7fill{fill:var(--poloto_color7,chocolate);}</style><rect class="poloto_background" fill="white" x="0" y="0" width="800" height="500"/><line class="poloto_axis_lines" stroke="black" x1="150" x2="150" y1="400" y2="405"/><text class="poloto_text" alignment-baseline="start" text-anchor="middle" x="150" y="430">0</text><line class="poloto_axis_lines" stroke="black" x1="234.17508417508418" x2="234.17508417508418" y1="400" y2="405"/><text class="poloto_text" alignment-baseline="start" text-anchor="middle" x="234.17508417508418" y="430">5000</text><line class="poloto_axis_lines" stroke="black" x1="318.35016835016836" x2="318.35016835016836" y1="400" y2="405"/><text class="poloto_text" alignment-baseline="start" text-anchor="middle" x="318.35016835016836" y="430">10000</text><line class="poloto_axis_lines" stroke="black" x1="402.52525252525254" x2="402.52525252525254" y1="400" y2="405"/><text class="poloto_text" alignment-baseline="start" text-anchor="middle" x="402.52525252525254" y="430">15000</text><line class="poloto_axis_lines" stroke="black" x1="486.7003367003367" x2="486.7003367003367" y1="400" y2="405"/><text class="poloto_text" alignment-baseline="start" text-anchor="middle" x="486.7003367003367" y="430">20000</text><line class="poloto_axis_lines" stroke="black" x1="570.8754208754208" x2="570.8754208754208" y1="400" y2="405"/><text class="poloto_text" alignment-baseline="start" text-anchor="middle" x="570.8754208754208" y="430">25000</text><line class="poloto_axis_lines" stroke="black" x1="150" x2="144" y1="354.7104911487062" y2="354.7104911487062"/><text class="poloto_text" alignment-baseline="middle" text-anchor="end" x="135" y="354.7104911487062">0.001</text><line class="poloto_axis_lines" stroke="black" x1="150" x2="144" y1="309.4156375046823" y2="309.4156375046823"/><text class="poloto_text" alignment-baseline="middle" text-anchor="end" x="135" y="309.4156375046823">0.002</text><line class="poloto_axis_lines" stroke="black" x1="150" x2="144" y1="264.12078386065855" y2="264.12078386065855"/><text class="poloto_text" alignment-baseline="middle" text-anchor="end" x="135" y="264.12078386065855">0.003</text><line class="poloto_axis_lines" stroke="black" x1="150" x2="144" y1="218.82593021663467" y2="218.82593021663467"/><text class="poloto_text" alignment-baseline="middle" text-anchor="end" x="135" y="218.82593021663467">0.004</text><line class="poloto_axis_lines" stroke="black" x1="150" x2="144" y1="173.53107657261086" y2="173.53107657261086"/><text class="poloto_text" alignment-baseline="middle" text-anchor="end" x="135" y="173.53107657261086">0.005</text><line class="poloto_axis_lines" stroke="black" x1="150" x2="144" y1="128.23622292858704" y2="128.23622292858704"/><text class="poloto_text" alignment-baseline="middle" text-anchor="end" x="135" y="128.23622292858704">0.006</text><text class="poloto_text" alignment-baseline="middle" text-anchor="start" font-size="large" x="675" y="100">default_par</text><line class="poloto0stroke" stroke="black" x1="680" x2="730" y1="81.25" y2="81.25"/><polyline class="poloto0stroke" fill="none" stroke="black" points="650,287.2116472998454 644.9494949494949,326.0520748893031 639.8989898989898,325.192831515676 634.8484848484848,321.4495742208266 629.7979797979798,328.8264299698532 624.7474747474747,321.0234402377436 619.6969696969697,330.11049377580764 614.6464646464647,328.00401131223873 609.5959595959596,327.91523339909645 604.5454545454545,286.2006208716572 599.4949494949494,298.3037681241695 594.4444444444445,325.93285883451205 589.3939393939394,331.316695728348 584.3434343434344,333.6862959967351 579.2929292929293,336.4173039023479 574.2424242424242,331.5369193067653 569.1919191919192,339.3653194517692 564.1414141414141,334.9265143843621 559.090909090909,335.8026980332521 554.040404040404,341.40100605909254 548.989898989899,342.20023375164135 543.939393939394,329.2484874161083 538.8888888888889,343.2116225386588 533.8383838383838,338.17207182737104 528.7878787878788,340.16844250173136 523.7373737373737,340.68421500017587 518.6868686868687,340.2450360992434 513.6363636363636,340.83921398934575 508.5858585858586,339.73596723913823 503.5353535353535,345.0672621027471 498.4848484848485,343.63105288340245 493.4343434343434,350.0825800673353 488.3838383838384,348.9829116105657 483.3333333333333,351.2639151452251 478.2828282828283,350.7202410169359 473.2323232323232,353.66051114638407 468.1818181818182,352.34274796931845 463.1313131313131,353.7147743810496 458.0808080808081,355.57901996733034 453.030303030303,354.4241823788223 447.979797979798,348.67264186310416 442.9292929292929,354.51889391779196 437.8787878787879,356.5630506627467 432.8282828282828,348.146134484346 427.77777777777777,345.3908032423264 422.72727272727275,354.2900643171823 417.67676767676767,355.07085700429803 412.62626262626264,356.2993893196849 407.57575757575756,352.6295096877388 402.52525252525254,358.0662056757773 397.47474747474746,356.3003405116114 392.4242424242424,354.0318383565578 387.37373737373736,356.40492632867546 382.32323232323233,354.62991160407347 377.27272727272725,360.10383996180735 372.22222222222223,359.4694855365228 367.1717171717172,362.83357961151813 362.1212121212121,360.25566831122217 357.07070707070704,359.4621930650861 352.020202020202,363.3288335412619 346.969696969697,363.9219696497304 341.9191919191919,363.5959825880543 336.86868686868684,363.8659399157727 331.8181818181818,363.65722123018105 326.7676767676768,365.060954039463 321.7171717171717,366.13960568414177 316.66666666666663,360.8479438174714 311.6161616161616,365.7906994265219 306.5656565656566,368.7540246364748 301.5151515151515,369.7922279768495 296.4646464646464,368.02681576122 291.4141414141414,371.5866741936648 286.3636363636364,370.58026784054823 281.3131313131313,375.2860860701868 276.26262626262627,374.1782192449076 271.2121212121212,369.7788659950245 266.16161616161617,379.51789365644066 261.1111111111111,380.1462691610442 256.06060606060606,376.0040547952982 251.010101010101,380.1451367897031 245.95959595959596,378.0625247140045 240.9090909090909,378.9292417384829 235.85858585858585,383.4645701390054 230.8080808080808,381.88808275792513 225.75757575757575,385.44966239480834 220.7070707070707,387.1750339598165 215.65656565656565,371.6975107005317 210.6060606060606,373.3875975745512 205.55555555555554,377.87808406996606 200.50505050505052,380.2710111879798 195.45454545454544,380.5869427921469 190.40404040404042,383.1025283738287 185.35353535353534,384.7405261661575 180.3030303030303,385.45953667290274 175.25252525252526,387.77822552579397 170.2020202020202,390.46362151378725 165.15151515151516,392.69647661902303 160.1010101010101,395.2829486466577 155.05050505050505,397.7323584471656 150,399.9983693852688 "/><text class="poloto_text" alignment-baseline="middle" text-anchor="start" font-size="large" x="675" y="150">default_seq</text><line class="poloto1stroke" stroke="black" x1="680" x2="730" y1="131.25" y2="131.25"/><polyline class="poloto1stroke" fill="none" stroke="black" points="650,135.10092976746074 644.9494949494949,134.67583756601158 639.8989898989898,146.4154936180306 634.8484848484848,149.62173512807647 629.7979797979798,152.7094853009896 624.7474747474747,156.10564813236482 619.6969696969697,159.43631460537085 614.6464646464647,161.37769732740736 609.5959595959596,165.2223245047121 604.5454545454545,152.53342420487527 599.4949494949494,166.2099334935664 594.4444444444445,158.76518075892733 589.3939393939394,174.94830724827875 584.3434343434344,180.12777376247288 579.2929292929293,183.81463896453548 574.2424242424242,185.52605971462125 569.1919191919192,189.05706532529481 564.1414141414141,190.85961932091237 559.090909090909,196.2976288597066 554.040404040404,198.56880341112523 548.989898989899,200.77701811597868 543.939393939394,203.79669012386483 538.8888888888889,204.93956987101083 533.8383838383838,210.29455394307553 528.7878787878788,213.49218943092905 523.7373737373737,216.52291338310434 518.6868686868687,219.06345642914397 513.6363636363636,221.36937213330756 508.5858585858586,224.36612494524982 503.5353535353535,226.96333185319816 498.4848484848485,230.626371962244 493.4343434343434,233.35597572739383 488.3838383838384,235.68703007532986 483.3333333333333,238.55786319414173 478.2828282828283,240.55563800896505 473.2323232323232,242.91975760006122 468.1818181818182,246.10661291274744 463.1313131313131,248.34485810556689 458.0808080808081,251.7750373720288 453.030303030303,254.93131865850532 447.979797979798,255.32429680872087 442.9292929292929,259.14922072469045 437.8787878787879,262.58139296471273 432.8282828282828,262.939539372476 427.77777777777777,265.37776134413383 422.72727272727275,260.5509152655584 417.67676767676767,263.16383948772125 412.62626262626264,265.8692105061715 407.57575757575756,269.9072467085362 402.52525252525254,271.9841969275293 397.47474747474746,274.38994248912434 392.4242424242424,276.55535355728415 387.37373737373736,279.5810497807049 382.32323232323233,283.3361743272091 377.27272727272725,285.2573102496667 372.22222222222223,288.67824936598527 367.1717171717172,290.90417435861355 362.1212121212121,293.00925268171954 357.07070707070704,295.54159735924964 352.020202020202,298.754134853952 346.969696969697,300.93639560766746 341.9191919191919,304.23630687504914 336.86868686868684,306.5340242107032 331.8181818181818,309.1199074052405 326.7676767676768,311.9129239654919 321.7171717171717,314.64705721600615 316.66666666666663,316.76006213849985 311.6161616161616,319.68638145302566 306.5656565656566,321.88073593266404 301.5151515151515,324.58669578421166 296.4646464646464,327.42985374744705 291.4141414141414,330.2601479722475 286.3636363636364,332.1000249272678 281.3131313131313,334.87062053496544 276.26262626262627,336.9715770263898 271.2121212121212,339.8559533064413 266.16161616161617,342.80437650954536 261.1111111111111,345.6501615742921 256.06060606060606,348.6285246756549 251.010101010101,351.42774663085555 245.95959595959596,351.1631340958671 240.9090909090909,355.75838758776064 235.85858585858585,359.25220612359243 230.8080808080808,361.4676227101753 225.75757575757575,363.95743552013363 220.7070707070707,366.71389913349435 215.65656565656565,366.78324555442333 210.6060606060606,369.50831983420875 205.55555555555554,372.12867241236916 200.50505050505052,374.8868119353147 195.45454545454544,377.12741246052366 190.40404040404042,379.9954825932632 185.35353535353534,382.6117586345957 180.3030303030303,385.1811997972602 175.25252525252526,387.4763806211102 170.2020202020202,390.2007301832373 165.15151515151516,392.3616570608864 160.1010101010101,395.08781841715927 155.05050505050505,397.5998710002568 150,400 "/><text class="poloto_text" alignment-baseline="middle" text-anchor="start" font-size="large" x="675" y="200">direct_par</text><line class="poloto2stroke" stroke="black" x1="680" x2="730" y1="181.25" y2="181.25"/><polyline class="poloto2stroke" fill="none" stroke="black" points="650,289.61879700190343 644.9494949494949,320.55903210333145 639.8989898989898,319.1533969101964 634.8484848484848,320.3656230782715 629.7979797979798,326.26292243301606 624.7474747474747,325.9747565741328 619.6969696969697,321.72677872512804 614.6464646464647,320.89665994239397 609.5959595959596,329.03990461507755 604.5454545454545,330.1353153556046 599.4949494949494,292.6283229625733 594.4444444444445,323.4117925755393 589.3939393939394,329.8466059584776 584.3434343434344,333.1543532355397 579.2929292929293,330.6624568623138 574.2424242424242,334.4765553082624 569.1919191919192,329.47247046737795 564.1414141414141,336.24559111218343 559.090909090909,334.10545457235696 554.040404040404,333.84899511102446 548.989898989899,338.74722587894286 543.939393939394,335.12250521607984 538.8888888888889,334.72178164589116 533.8383838383838,334.66076947803265 528.7878787878788,342.7401937019318 523.7373737373737,343.8786798482743 518.6868686868687,338.93243653549325 513.6363636363636,335.93998673464716 508.5858585858586,342.1932130493265 503.5353535353535,342.2091115429556 498.4848484848485,343.8435763367002 493.4343434343434,342.0262562187947 488.3838383838384,344.87417014166266 483.3333333333333,342.7520156587329 478.2828282828283,342.4533866886578 473.2323232323232,348.5325901756368 468.1818181818182,352.0423524999513 463.1313131313131,348.11864050818406 458.0808080808081,344.0243933924471 453.030303030303,348.8744304360883 447.979797979798,350.55600187762263 442.9292929292929,354.5118279206235 437.8787878787879,348.7793112434358 432.8282828282828,348.51954525778734 427.77777777777777,348.945588651163 422.72727272727275,350.4849342522552 417.67676767676767,353.99306596183845 412.62626262626264,354.12423985799154 407.57575757575756,348.75421789451707 402.52525252525254,356.21015845800616 397.47474747474746,357.62177257182213 392.4242424242424,355.15383717617385 387.37373737373736,359.1762919488851 382.32323232323233,356.3946443968983 377.27272727272725,358.05307016822053 372.22222222222223,351.86941674873844 367.1717171717172,358.4792947410108 362.1212121212121,358.4034258611571 357.07070707070704,357.4703065812365 352.020202020202,359.3852824035986 346.969696969697,361.45059184520517 341.9191919191919,361.0662650120356 336.86868686868684,362.48865930101886 331.8181818181818,361.4785387699035 326.7676767676768,364.85925605618615 321.7171717171717,365.33308552015626 316.66666666666663,366.33835950193173 311.6161616161616,366.6659318834853 306.5656565656566,363.4361823443982 301.5151515151515,368.93275812895416 296.4646464646464,369.86700978021577 291.4141414141414,371.52231020663663 286.3636363636364,370.63108866633684 281.3131313131313,374.1960201223897 276.26262626262627,370.5338406155631 271.2121212121212,366.3128132044765 266.16161616161617,376.6277649299764 261.1111111111111,377.667508295375 256.06060606060606,369.49618081343215 251.010101010101,376.7482039458159 245.95959595959596,377.44103402715484 240.9090909090909,384.0159443924141 235.85858585858585,380.5209934852412 230.8080808080808,377.96604667574275 225.75757575757575,381.794956538833 220.7070707070707,385.38914847033993 215.65656565656565,374.5798940070228 210.6060606060606,372.70006699108853 205.55555555555554,374.7460808250427 200.50505050505052,378.5048289598384 195.45454545454544,377.7187367748464 190.40404040404042,381.5479184070585 185.35353535353534,382.4236944022657 180.3030303030303,384.49104211228627 175.25252525252526,387.08607486725964 170.2020202020202,389.9074913007459 165.15151515151516,392.49423509750244 160.1010101010101,395.2254241825298 155.05050505050505,397.6386433949761 150,399.99832409041517 "/><text class="poloto_text" alignment-baseline="middle" text-anchor="start" font-size="large" x="675" y="250">direct_seq</text><line class="poloto3stroke" stroke="black" x1="680" x2="730" y1="231.25" y2="231.25"/><polyline class="poloto3stroke" fill="none" stroke="black" points="650,130.8309839144386 644.9494949494949,138.0253466981335 639.8989898989898,140.90501231340596 634.8484848484848,144.62951753884676 629.7979797979798,147.65163546882965 624.7474747474747,151.40331760645685 619.6969696969697,154.08472764732943 614.6464646464647,157.70682120868108 609.5959595959596,160.91994753648083 604.5454545454545,163.91198968364412 599.4949494949494,158.6740928082492 594.4444444444445,154.4094011582498 589.3939393939394,165.04590104976862 584.3434343434344,174.73360964200606 579.2929292929293,178.38849667739598 574.2424242424242,178.2699600454096 569.1919191919192,183.73451236843923 564.1414141414141,186.20086244420995 559.090909090909,190.16574745793955 554.040404040404,192.36689616562455 548.989898989899,195.2145383193707 543.939393939394,198.72470829736795 538.8888888888889,202.14519446515007 533.8383838383838,204.49042610227667 528.7878787878788,207.7676446479827 523.7373737373737,211.04359493778676 518.6868686868687,213.57399193661016 513.6363636363636,216.32434074472894 508.5858585858586,219.14435303775218 503.5353535353535,221.78662832507635 498.4848484848485,224.81368339410642 493.4343434343434,228.17370093227373 488.3838383838384,230.20974989842625 483.3333333333333,233.44398362802414 478.2828282828283,235.14149885804122 473.2323232323232,238.56080735962857 468.1818181818182,241.06072092194955 463.1313131313131,243.2034845632874 458.0808080808081,246.5171654661769 453.030303030303,249.08465895013472 447.979797979798,249.95540721658745 442.9292929292929,254.86962706784217 437.8787878787879,257.0327733933198 432.8282828282828,257.57576809880436 427.77777777777777,260.0752287125889 422.72727272727275,257.58546119748416 417.67676767676767,261.4174058157686 412.62626262626264,263.096304860938 407.57575757575756,266.81600883189253 402.52525252525254,269.8585094460152 397.47474747474746,271.7598062225768 392.4242424242424,274.63874712019094 387.37373737373736,276.86988102098826 382.32323232323233,280.8765731846313 377.27272727272725,282.90705088378564 372.22222222222223,286.291618232628 367.1717171717172,289.0592696748388 362.1212121212121,291.4242498681542 357.07070707070704,294.00596593615626 352.020202020202,297.3583739389114 346.969696969697,299.3814232820681 341.9191919191919,302.28658989994216 336.86868686868684,304.91776794812347 331.8181818181818,307.5143407281208 326.7676767676768,310.6487898951409 321.7171717171717,313.47369403235774 316.66666666666663,315.69123947706186 311.6161616161616,318.31304149053886 306.5656565656566,321.2979270508264 301.5151515151515,323.22486071455046 296.4646464646464,326.21490988815344 291.4141414141414,328.9979162857495 286.3636363636364,328.6699815453668 281.3131313131313,331.9285386113715 276.26262626262627,334.3236398823602 271.2121212121212,337.2077443932898 266.16161616161617,340.37226934312946 261.1111111111111,343.1857138823744 256.06060606060606,345.927683142569 251.010101010101,348.97865389432314 245.95959595959596,351.91824460096666 240.9090909090909,354.32494135448826 235.85858585858585,356.8605925563343 230.8080808080808,360.1851442240984 225.75757575757575,362.5337276803947 220.7070707070707,365.2283638185313 215.65656565656565,366.20863504109525 210.6060606060606,368.8798537398979 205.55555555555554,371.5373028031928 200.50505050505052,374.34463253719576 195.45454545454544,376.78194861178065 190.40404040404042,379.65391410193365 185.35353535353534,382.3768595235978 180.3030303030303,384.489547382116 175.25252525252526,387.09934625937734 170.2020202020202,390.0448705918482 165.15151515151516,392.2987878040285 160.1010101010101,394.9829155361197 155.05050505050505,397.5273992344264 150,399.99732760363503 "/><text class="poloto_text" alignment-baseline="middle" text-anchor="start" font-size="large" x="675" y="300">indirect_par</text><line class="poloto4stroke" stroke="black" x1="680" x2="730" y1="281.25" y2="281.25"/><polyline class="poloto4stroke" fill="none" stroke="black" points="650,261.6936138332899 644.9494949494949,298.85532355699274 639.8989898989898,307.25955717637316 634.8484848484848,309.978471356063 629.7979797979798,304.1747964638006 624.7474747474747,311.9137392728575 619.6969696969697,305.56118134413686 614.6464646464647,309.5623022407817 609.5959595959596,308.7177343997352 604.5454545454545,280.5349141035945 599.4949494949494,271.75708853135814 594.4444444444445,316.309740703571 589.3939393939394,313.36983293295197 584.3434343434344,316.69470166469154 579.2929292929293,321.5686090962031 574.2424242424242,320.4676270886778 569.1919191919192,320.86558767279416 564.1414141414141,317.7649737614462 559.090909090909,324.3951438481511 554.040404040404,321.2499145059637 548.989898989899,322.13995838006883 543.939393939394,324.917484100374 538.8888888888889,329.0624614521922 533.8383838383838,330.1107202500759 528.7878787878788,331.31578983127514 523.7373737373737,327.5842186086659 518.6868686868687,329.4476941824347 513.6363636363636,333.2339362933923 508.5858585858586,325.4324412914529 503.5353535353535,329.7137561527397 498.4848484848485,333.13795649852057 493.4343434343434,335.221474471292 488.3838383838384,336.80810789958855 483.3333333333333,338.98479738630573 478.2828282828283,336.13511696414565 473.2323232323232,340.39401087287865 468.1818181818182,343.03741853154384 463.1313131313131,339.99124903427594 458.0808080808081,344.0651134658731 453.030303030303,344.5343681496252 447.979797979798,344.0546050598277 442.9292929292929,345.5744285789993 437.8787878787879,339.25860477658387 432.8282828282828,336.20065861736856 427.77777777777777,339.86301930360975 422.72727272727275,338.20346116094635 417.67676767676767,342.7925998475979 412.62626262626264,345.8662633210277 407.57575757575756,347.3319594900947 402.52525252525254,349.09891173074806 397.47474747474746,346.2074694535281 392.4242424242424,343.6930615380411 387.37373737373736,345.01698481520225 382.32323232323233,348.5881216662044 377.27272727272725,351.9145757178215 372.22222222222223,352.01032903842497 367.1717171717172,353.17581091753937 362.1212121212121,352.47084181542374 357.07070707070704,349.82254231256496 352.020202020202,351.73285276500167 346.969696969697,353.5524376255894 341.9191919191919,354.4557075969585 336.86868686868684,358.9455599644224 331.8181818181818,352.25383417161527 326.7676767676768,357.1068153807432 321.7171717171717,357.82505587497656 316.66666666666663,361.3072336334218 311.6161616161616,362.68877196441815 306.5656565656566,360.06796643772134 301.5151515151515,360.0440960498509 296.4646464646464,362.20148992891575 291.4141414141414,365.4632629295292 286.3636363636364,360.7960359151954 281.3131313131313,370.62461150226574 276.26262626262627,370.539321292854 271.2121212121212,370.21125066791035 266.16161616161617,368.9101559969858 261.1111111111111,372.29037503987837 256.06060606060606,373.29252367675235 251.010101010101,369.50637215550205 245.95959595959596,377.35148610150065 240.9090909090909,376.62119717619805 235.85858585858585,376.13957699740115 230.8080808080808,373.88289679914857 225.75757575757575,381.65916256760823 220.7070707070707,380.91369986633487 215.65656565656565,369.39055321473427 210.6060606060606,372.8320561946072 205.55555555555554,372.52291881848674 200.50505050505052,374.22632237947755 195.45454545454544,376.26142015370357 190.40404040404042,377.629460618314 185.35353535353534,381.1245927049015 180.3030303030303,383.1657599895158 175.25252525252526,386.15214027997354 170.2020202020202,389.2821958461902 165.15151515151516,391.95812520977177 160.1010101010101,394.94572846127795 155.05050505050505,397.4951945934855 150,399.99877703895163 "/><text class="poloto_text" alignment-baseline="middle" text-anchor="start" font-size="large" x="675" y="350">indirect_seq</text><line class="poloto5stroke" stroke="black" x1="680" x2="730" y1="331.25" y2="331.25"/><polyline class="poloto5stroke" fill="none" stroke="black" points="650,100 644.9494949494949,105.74900400391408 639.8989898989898,108.14369762121993 634.8484848484848,111.44066472311482 629.7979797979798,116.38423563953086 624.7474747474747,119.32971467714805 619.6969696969697,122.5475063748732 614.6464646464647,126.1437365747941 609.5959595959596,129.886676805668 604.5454545454545,111.89492681031072 599.4949494949494,136.8752650692581 594.4444444444445,130.6209969729449 589.3939393939394,142.81772339308583 584.3434343434344,146.8399969863824 579.2929292929293,150.49103395921256 574.2424242424242,153.18213709876497 569.1919191919192,157.38051708302956 564.1414141414141,160.30869348655477 559.090909090909,164.3692865260342 554.040404040404,167.4093865129138 548.989898989899,169.74863922935938 543.939393939394,174.32097352530903 538.8888888888889,176.47392850871677 533.8383838383838,180.59816081756608 528.7878787878788,183.93548563405773 523.7373737373737,187.67090691922672 518.6868686868687,189.77091221872462 513.6363636363636,192.8706655278534 508.5858585858586,197.43122316185557 503.5353535353535,199.67386195547846 498.4848484848485,202.8438675826091 493.4343434343434,207.24127315378553 488.3838383838384,209.54238760346288 483.3333333333333,212.38101608133385 478.2828282828283,215.88321416508975 473.2323232323232,218.3982109136742 468.1818181818182,221.95988114026474 463.1313131313131,225.27075376222828 458.0808080808081,228.38971208930212 453.030303030303,231.2229957744431 447.979797979798,233.12968263858826 442.9292929292929,236.58472877970075 437.8787878787879,241.03757525173745 432.8282828282828,240.8325707441446 427.77777777777777,244.17551212248816 422.72727272727275,240.85286283857712 417.67676767676767,243.43761366177333 412.62626262626264,246.16848568282518 407.57575757575756,250.60461835386724 402.52525252525254,253.05198988596112 397.47474747474746,255.83857457699511 392.4242424242424,259.58346248657574 387.37373737373736,262.6774633492917 382.32323232323233,265.36222520933393 377.27272727272725,268.3923150335582 372.22222222222223,272.28821598518795 367.1717171717172,275.29946315029633 362.1212121212121,277.7553954097289 357.07070707070704,280.8675142139025 352.020202020202,283.1811753380392 346.969696969697,286.64962875583035 341.9191919191919,289.8036452996247 336.86868686868684,293.11882093268446 331.8181818181818,295.7445635984285 326.7676767676768,299.05126909385683 321.7171717171717,302.11315590533917 316.66666666666663,305.01143770545934 311.6161616161616,308.6444473265392 306.5656565656566,310.8831001730414 301.5151515151515,314.32659612647467 296.4646464646464,317.5215592179632 291.4141414141414,320.21098644793074 286.3636363636364,320.34288506174215 281.3131313131313,323.6959271924483 276.26262626262627,326.58311175342567 271.2121212121212,329.65541638124614 266.16161616161617,333.18886791401644 261.1111111111111,335.50918738163887 256.06060606060606,339.6862334898371 251.010101010101,343.23988652733266 245.95959595959596,346.0993959327335 240.9090909090909,349.0817902760706 235.85858585858585,352.47075122571647 230.8080808080808,355.2434756915354 225.75757575757575,358.518973032803 220.7070707070707,361.62991417078183 215.65656565656565,362.410389793922 210.6060606060606,365.5802595364917 205.55555555555554,368.4539009362295 200.50505050505052,371.2600077091841 195.45454545454544,374.7379277513868 190.40404040404042,377.17868623484867 185.35353535353534,380.6255340074516 180.3030303030303,383.0727243601309 175.25252525252526,385.89513728039736 170.2020202020202,389.03117176729495 165.15151515151516,391.69559623805105 160.1010101010101,394.6434759029114 155.05050505050505,397.37448380852413 150,399.9990035132198 "/><text class="poloto_text" alignment-baseline="start" text-anchor="middle" font-size="x-large" x="400" y="37.5">Bench of query:256_bytes with abspiral(num,1.5)</text><text class="poloto_text" alignment-baseline="start" text-anchor="middle" font-size="x-large" x="400" y="481.25">Number of Elements</text><text class="poloto_text" alignment-baseline="start" text-anchor="middle" font-size="x-large" transform="rotate(-90,37.5,250)" x="37.5" y="250">Time in Seconds</text><path stroke="black" fill="none" class="poloto_axis_lines" d=" M 150 100 L 150 400 L 650 400"/></svg>