<svg class="poloto" width="800" height="500" viewBox="0 0 800 500" xmlns="http://www.w3.org/2000/svg"><style>.poloto {
                    font-family: "Arial";
                    stroke-width:2;
                    }
                    .poloto_text{fill: var(--poloto_fg_color,black);  }
                    .poloto_axis_lines{stroke: var(--poloto_fg_color,black);stoke-width:3;fill:none}
                    .poloto_background{fill: var(--poloto_bg_color,aliceblue); }
                    .poloto0stroke{stroke:  var(--poloto_color0,blue); }
                    .poloto1stroke{stroke:  var(--poloto_color1,red); }
                    .poloto2stroke{stroke:  var(--poloto_color2,green); }
                    .poloto3stroke{stroke:  var(--poloto_color3,gold); }
                    .poloto4stroke{stroke:  var(--poloto_color4,aqua); }
                    .poloto5stroke{stroke:  var(--poloto_color5,brown); }
                    .poloto6stroke{stroke:  var(--poloto_color6,lime); }
                    .poloto7stroke{stroke:  var(--poloto_color7,chocolate); }
                    .poloto0fill{fill:var(--poloto_color0,blue);}
                    .poloto1fill{fill:var(--poloto_color1,red);}
                    .poloto2fill{fill:var(--poloto_color2,green);}
                    .poloto3fill{fill:var(--poloto_color3,gold);}
                    .poloto4fill{fill:var(--poloto_color4,aqua);}
                    .poloto5fill{fill:var(--poloto_color5,brown);}
                    .poloto6fill{fill:var(--poloto_color6,lime);}
                    .poloto7fill{fill:var(--poloto_color7,chocolate);}</style><rect class="poloto_background" fill="white" x="0" y="0" width="800" height="500"/><line class="poloto_axis_lines" stroke="black" x1="150" x2="150" y1="400" y2="405"/><text class="poloto_text" alignment-baseline="start" text-anchor="middle" x="150" y="430">0</text><line class="poloto_axis_lines" stroke="black" x1="234.17508417508418" x2="234.17508417508418" y1="400" y2="405"/><text class="poloto_text" alignment-baseline="start" text-anchor="middle" x="234.17508417508418" y="430">5000</text><line class="poloto_axis_lines" stroke="black" x1="318.35016835016836" x2="318.35016835016836" y1="400" y2="405"/><text class="poloto_text" alignment-baseline="start" text-anchor="middle" x="318.35016835016836" y="430">10000</text><line class="poloto_axis_lines" stroke="black" x1="402.52525252525254" x2="402.52525252525254" y1="400" y2="405"/><text class="poloto_text" alignment-baseline="start" text-anchor="middle" x="402.52525252525254" y="430">15000</text><line class="poloto_axis_lines" stroke="black" x1="486.7003367003367" x2="486.7003367003367" y1="400" y2="405"/><text class="poloto_text" alignment-baseline="start" text-anchor="middle" x="486.7003367003367" y="430">20000</text><line class="poloto_axis_lines" stroke="black" x1="570.8754208754208" x2="570.8754208754208" y1="400" y2="405"/><text class="poloto_text" alignment-baseline="start" text-anchor="middle" x="570.8754208754208" y="430">25000</text><line class="poloto_axis_lines" stroke="black" x1="150" x2="144" y1="341.2604951678855" y2="341.2604951678855"/><text class="poloto_text" alignment-baseline="middle" text-anchor="end" x="135" y="341.2604951678855">0.002</text><line class="poloto_axis_lines" stroke="black" x1="150" x2="144" y1="282.5161439267936" y2="282.5161439267936"/><text class="poloto_text" alignment-baseline="middle" text-anchor="end" x="135" y="282.5161439267936">0.004</text><line class="poloto_axis_lines" stroke="black" x1="150" x2="144" y1="223.77179268570166" y2="223.77179268570166"/><text class="poloto_text" alignment-baseline="middle" text-anchor="end" x="135" y="223.77179268570166">0.006</text><line class="poloto_axis_lines" stroke="black" x1="150" x2="144" y1="165.02744144460974" y2="165.02744144460974"/><text class="poloto_text" alignment-baseline="middle" text-anchor="end" x="135" y="165.02744144460974">0.008</text><line class="poloto_axis_lines" stroke="black" x1="150" x2="144" y1="106.28309020351787" y2="106.28309020351787"/><text class="poloto_text" alignment-baseline="middle" text-anchor="end" x="135" y="106.28309020351787">0.010</text><text class="poloto_text" alignment-baseline="middle" text-anchor="start" font-size="large" x="675" y="100">default_par</text><line class="poloto0stroke" stroke="black" x1="680" x2="730" y1="81.25" y2="81.25"/><polyline class="poloto0stroke" fill="none" stroke="black" points="650,352.5980668408894 644.9494949494949,365.0949876578118 639.8989898989898,363.71722701597884 634.8484848484848,363.5737439380725 629.7979797979798,368.66200340952213 624.7474747474747,366.75087343059573 619.6969696969697,366.5091404252386 614.6464646464647,369.4331992526152 609.5959595959596,367.1411709002415 604.5454545454545,367.5094098659963 599.4949494949494,368.6411785370072 594.4444444444445,365.50423018073286 589.3939393939394,367.30571382806784 584.3434343434344,357.1627672819028 579.2929292929293,369.41257998532956 574.2424242424242,370.0601189690601 569.1919191919192,373.4317510085426 564.1414141414141,371.7999504197676 559.090909090909,371.74834350720226 554.040404040404,370.22624799436994 548.989898989899,371.97964939021404 543.939393939394,371.76819909792175 538.8888888888889,372.23207386749704 533.8383838383838,373.17832787728855 528.7878787878788,373.1886962552826 523.7373737373737,374.46112827534023 518.6868686868687,373.7672987428317 513.6363636363636,372.3160782897718 508.5858585858586,373.64643224015316 503.5353535353535,374.6294014694704 498.4848484848485,371.6458933586378 493.4343434343434,373.44969740784677 488.3838383838384,376.1882709461796 483.3333333333333,376.01653183532625 478.2828282828283,373.96247684983024 473.2323232323232,376.9597605110289 468.1818181818182,378.4663475151335 463.1313131313131,377.95559475326786 458.0808080808081,378.4788600619479 453.030303030303,377.20921839857414 447.979797979798,377.47653456889674 442.9292929292929,376.3244990967077 437.8787878787879,377.27154615524097 432.8282828282828,376.06009077177157 427.77777777777777,379.5106458471464 422.72727272727275,379.0399273606515 417.67676767676767,376.55251529605 412.62626262626264,379.9704966286617 407.57575757575756,380.9369293231045 402.52525252525254,380.69463824641065 397.47474747474746,379.8967430956785 392.4242424242424,381.8745479132636 387.37373737373736,380.87451344991086 382.32323232323233,379.2497621832847 377.27272727272725,381.9314711896162 372.22222222222223,380.83862065130256 367.1717171717172,383.77419337152236 362.1212121212121,382.83172837238595 357.07070707070704,383.9293078309745 352.020202020202,383.1767926915761 346.969696969697,385.7090266961746 341.9191919191919,385.9913520482393 336.86868686868684,385.68561707220505 331.8181818181818,386.2642489319298 326.7676767676768,386.4619530460317 321.7171717171717,385.6224962667965 316.66666666666663,387.11521960400825 311.6161616161616,384.12483840408044 306.5656565656566,385.35641372784994 301.5151515151515,386.4482362400169 296.4646464646464,388.1029764979516 291.4141414141414,388.4747988691321 286.3636363636364,391.4093435632052 281.3131313131313,391.0163438534023 276.26262626262627,388.62615369010473 271.2121212121212,390.2175675374016 266.16161616161617,389.0539888001936 261.1111111111111,389.5919108245083 256.06060606060606,389.9616771433954 251.010101010101,388.98939938600404 245.95959595959596,390.73348980217645 240.9090909090909,390.6731887256275 235.85858585858585,393.6548463893959 230.8080808080808,391.42767180079244 225.75757575757575,390.67686024758 220.7070707070707,394.0100147369996 215.65656565656565,389.86257542285165 210.6060606060606,391.33282904571365 205.55555555555554,389.0863863099031 200.50505050505052,390.0198634232996 195.45454545454544,391.2594867231892 190.40404040404042,392.8844435950446 185.35353535353534,395.6868428710009 180.3030303030303,395.676151399075 175.25252525252526,396.4540440982096 170.2020202020202,397.045012271695 165.15151515151516,397.91674907193715 160.1010101010101,398.65384381913475 155.05050505050505,399.37992400047466 150,399.9992363234339 "/><text class="poloto_text" alignment-baseline="middle" text-anchor="start" font-size="large" x="675" y="150">default_seq</text><line class="poloto1stroke" stroke="black" x1="680" x2="730" y1="131.25" y2="131.25"/><polyline class="poloto1stroke" fill="none" stroke="black" points="650,307.0075451244734 644.9494949494949,309.06265750829175 639.8989898989898,309.63999699228924 634.8484848484848,310.0172825881351 629.7979797979798,311.40464793139597 624.7474747474747,312.70119450763815 619.6969696969697,313.251100379606 614.6464646464647,313.7395302880001 609.5959595959596,314.2689637535604 604.5454545454545,315.3452777569997 599.4949494949494,316.0153745716068 594.4444444444445,317.3188236091198 589.3939393939394,318.74704564866886 584.3434343434344,319.73436195997783 579.2929292929293,320.0739924266782 574.2424242424242,321.292467760121 569.1919191919192,321.4959581928201 564.1414141414141,322.8311879243545 559.090909090909,322.8986851839305 554.040404040404,324.553748535797 548.989898989899,326.13444153899235 543.939393939394,326.89879366516584 538.8888888888889,326.45771170387206 533.8383838383838,328.4543440860299 528.7878787878788,327.91454224247553 523.7373737373737,329.68862164995653 518.6868686868687,329.5299237850787 513.6363636363636,332.2177422039392 508.5858585858586,332.3062405690839 503.5353535353535,333.02415528560135 498.4848484848485,334.23320215066985 493.4343434343434,334.52569027549924 488.3838383838384,336.80385496098006 483.3333333333333,336.47667829674276 478.2828282828283,337.71075025544 473.2323232323232,339.12992566489794 468.1818181818182,339.2090249338441 463.1313131313131,340.39956732827164 458.0808080808081,340.831778892528 453.030303030303,341.8853000876857 447.979797979798,343.2598591623761 442.9292929292929,343.477683216778 437.8787878787879,345.48212859765096 432.8282828282828,344.84422368752394 427.77777777777777,346.55438924085456 422.72727272727275,351.88867005530193 417.67676767676767,352.7912476399457 412.62626262626264,353.7748043127753 407.57575757575756,354.3416285579006 402.52525252525254,356.48503370163434 397.47474747474746,356.1692240693622 392.4242424242424,356.8564154901805 387.37373737373736,358.2772944858244 382.32323232323233,359.0904925400548 377.27272727272725,359.46663262105153 372.22222222222223,360.74725947810737 367.1717171717172,361.81455622363114 362.1212121212121,362.0907427909911 357.07070707070704,363.24656727383524 352.020202020202,363.95766764560864 346.969696969697,365.4758272869078 341.9191919191919,365.30223772899035 336.86868686868684,366.49554110792633 331.8181818181818,367.2180672560161 326.7676767676768,368.5454252444842 321.7171717171717,368.9307294442745 316.66666666666663,369.5518334699466 311.6161616161616,370.0750987786266 306.5656565656566,371.4976813604565 301.5151515151515,372.2454382074044 296.4646464646464,373.15532946377766 291.4141414141414,374.1370944338944 286.3636363636364,377.9532156070426 281.3131313131313,378.7556634449959 276.26262626262627,379.778813810562 271.2121212121212,380.523310346016 266.16161616161617,381.3713438005324 261.1111111111111,382.2634355184796 256.06060606060606,382.94158030920676 251.010101010101,383.710984449587 245.95959595959596,384.0213602293693 240.9090909090909,384.96356087892514 235.85858585858585,385.43119528697986 230.8080808080808,386.42435666123737 225.75757575757575,387.134282145986 220.7070707070707,388.2439629409302 215.65656565656565,389.93136505815494 210.6060606060606,390.67142639509024 205.55555555555554,391.22168473316555 200.50505050505052,392.0227227066891 195.45454545454544,392.6771935238661 190.40404040404042,393.4746187197883 185.35353535353534,394.1045931424977 180.3030303030303,395.67629825995317 175.25252525252526,396.39856005846235 170.2020202020202,397.0203102719981 165.15151515151516,398.08672585225327 160.1010101010101,398.5275434639664 155.05050505050505,399.32044534484305 150,400 "/><text class="poloto_text" alignment-baseline="middle" text-anchor="start" font-size="large" x="675" y="200">direct_par</text><line class="poloto2stroke" stroke="black" x1="680" x2="730" y1="181.25" y2="181.25"/><polyline class="poloto2stroke" fill="none" stroke="black" points="650,264.9002403427224 644.9494949494949,280.4079853938045 639.8989898989898,298.9782790803141 634.8484848484848,300.4371362990354 629.7979797979798,300.5364142526328 624.7474747474747,295.3174192274961 619.6969696969697,306.5153555775999 614.6464646464647,307.2691630927256 609.5959595959596,300.3286648544687 604.5454545454545,305.7878361596546 599.4949494949494,308.3544356097292 594.4444444444445,315.72761536705235 589.3939393939394,310.75566971106 584.3434343434344,262.01016512253875 579.2929292929293,309.3566436140778 574.2424242424242,313.06073930940926 569.1919191919192,314.1612266133842 564.1414141414141,313.15807869941574 559.090909090909,316.1190583515473 554.040404040404,319.60468380461316 548.989898989899,317.6516397310762 543.939393939394,317.8171813128736 538.8888888888889,315.90490581909796 533.8383838383838,321.58563144498964 528.7878787878788,322.3355324607578 523.7373737373737,322.85729978848116 518.6868686868687,320.35796262057767 513.6363636363636,320.4838223931117 508.5858585858586,324.3328404029549 503.5353535353535,321.44611361079205 498.4848484848485,325.8042395406662 493.4343434343434,328.5718621606877 488.3838383838384,331.62248569281326 483.3333333333333,334.0595538484012 478.2828282828283,330.8326678903768 473.2323232323232,332.0354584820381 468.1818181818182,332.1817906609797 463.1313131313131,336.85789976412184 458.0808080808081,333.782221766192 453.030303030303,333.3483653601009 447.979797979798,338.109859377772 442.9292929292929,336.5820950350449 437.8787878787879,336.47306551914147 432.8282828282828,337.5761669467467 427.77777777777777,336.8651546915001 422.72727272727275,346.78266978977746 417.67676767676767,344.2983124314404 412.62626262626264,340.6071992377333 407.57575757575756,348.828559310451 402.52525252525254,348.29545432293804 397.47474747474746,351.272353694256 392.4242424242424,347.27271516783065 387.37373737373736,348.9815002289072 382.32323232323233,351.33641440928443 377.27272727272725,347.8998111173293 372.22222222222223,352.48328037856425 367.1717171717172,349.927959843928 362.1212121212121,352.7966814924355 357.07070707070704,355.9390930733752 352.020202020202,354.6490377479452 346.969696969697,356.69668959915595 341.9191919191919,358.7816441134048 336.86868686868684,359.9163500019777 331.8181818181818,361.14093474794953 326.7676767676768,360.1220139756728 321.7171717171717,362.42928648719356 316.66666666666663,365.510104615857 311.6161616161616,365.17981450100393 306.5656565656566,365.43038853122283 301.5151515151515,366.00716994388347 296.4646464646464,370.16565319606474 291.4141414141414,367.44197135077155 286.3636363636364,369.1971644493285 281.3131313131313,371.05668751568965 276.26262626262627,374.37339358676167 271.2121212121212,370.9049508564339 266.16161616161617,375.02454534809357 261.1111111111111,370.87334639546617 256.06060606060606,377.66522142508313 251.010101010101,374.18473610275095 245.95959595959596,376.81507317392203 240.9090909090909,378.84248759613024 235.85858585858585,378.1985320178254 230.8080808080808,380.1522516514016 225.75757575757575,378.42851615293426 220.7070707070707,378.81766810773087 215.65656565656565,378.73057960701595 210.6060606060606,379.270410822746 205.55555555555554,382.25709112854554 200.50505050505052,384.48834844956036 195.45454545454544,385.2430958743059 190.40404040404042,385.20288536588134 185.35353535353534,386.2721500471717 180.3030303030303,388.5428835722205 175.25252525252526,390.9731667552401 170.2020202020202,392.2930054667493 165.15151515151516,395.3247133177752 160.1010101010101,396.768825704335 155.05050505050505,398.5743920840812 150,399.9980320642334 "/><text class="poloto_text" alignment-baseline="middle" text-anchor="start" font-size="large" x="675" y="250">direct_seq</text><line class="poloto3stroke" stroke="black" x1="680" x2="730" y1="231.25" y2="231.25"/><polyline class="poloto3stroke" fill="none" stroke="black" points="650,100 644.9494949494949,115.99027115217643 639.8989898989898,119.56104654236623 634.8484848484848,118.41288819735911 629.7979797979798,123.81701604543213 624.7474747474747,128.28728494182548 619.6969696969697,130.2471433601064 614.6464646464647,134.63514079258658 609.5959595959596,134.4189615800194 604.5454545454545,137.74239387930857 599.4949494949494,142.09276555481887 594.4444444444445,145.54223385969578 589.3939393939394,150.48192886685675 584.3434343434344,154.39591812917254 579.2929292929293,146.042647615743 574.2424242424242,158.3157524544369 569.1919191919192,160.02227585799062 564.1414141414141,161.1798920435476 559.090909090909,163.50851812674446 554.040404040404,169.47300834130624 548.989898989899,171.79502568498853 543.939393939394,177.6900213320321 538.8888888888889,174.34514734453995 533.8383838383838,180.78987263049765 528.7878787878788,179.3074882991043 523.7373737373737,184.98883074068405 518.6868686868687,186.57613248339396 513.6363636363636,193.6704821775513 508.5858585858586,194.09814105458642 503.5353535353535,197.46927376708334 498.4848484848485,201.61480388981596 493.4343434343434,200.60119948132655 488.3838383838384,208.86629472354323 483.3333333333333,208.753064986526 478.2828282828283,211.9187393305572 473.2323232323232,217.67959225154175 468.1818181818182,217.38469560831146 463.1313131313131,220.8126047362829 458.0808080808081,222.05895426438954 453.030303030303,225.06681190881153 447.979797979798,229.0547309371643 442.9292929292929,229.84824963372895 437.8787878787879,235.80768783408402 432.8282828282828,234.7557821085854 427.77777777777777,238.58409273461612 422.72727272727275,256.31299107829955 417.67676767676767,258.79029911448765 412.62626262626264,262.6591139706991 407.57575757575756,263.14266809794015 402.52525252525254,270.40673022283295 397.47474747474746,269.6644366005505 392.4242424242424,270.7074425568361 387.37373737373736,277.12514544122297 382.32323232323233,278.53257198043264 377.27272727272725,278.7133283492015 372.22222222222223,282.4673861152635 367.1717171717172,286.5470344480792 362.1212121212121,287.31508746838085 357.07070707070704,291.07099568150693 352.020202020202,294.7013965882064 346.969696969697,297.8623713841383 341.9191919191919,299.32833666935977 336.86868686868684,301.2445480346686 331.8181818181818,304.31470406358176 326.7676767676768,308.66563381042886 321.7171717171717,309.42346531361454 316.66666666666663,311.6022051846198 311.6161616161616,313.16853519393663 306.5656565656566,318.35381096146097 301.5151515151515,319.51242580098904 296.4646464646464,322.8929576096845 291.4141414141414,325.18762945786403 286.3636363636364,334.407819734734 281.3131313131313,337.4556822823512 276.26262626262627,339.9976384770801 271.2121212121212,342.40095800288003 266.16161616161617,345.539404340111 261.1111111111111,348.3898858675581 256.06060606060606,350.09332519267167 251.010101010101,352.9844871833533 245.95959595959596,354.44719215708085 240.9090909090909,356.98095351481163 235.85858585858585,358.04202335910384 230.8080808080808,362.06272173544914 225.75757575757575,363.4140767913992 220.7070707070707,366.948313195117 215.65656565656565,371.74866660113406 210.6060606060606,374.26130936459367 205.55555555555554,375.9167839269189 200.50505050505052,377.752544903203 195.45454545454544,380.42177073489574 190.40404040404042,382.43106252474604 185.35353535353534,384.4353610447409 180.3030303030303,388.09936372035025 175.25252525252526,390.33658359301603 170.2020202020202,392.18697191275913 165.15151515151516,395.15987666819274 160.1010101010101,396.4296064480933 155.05050505050505,398.37939021013636 150,399.9882511297518 "/><text class="poloto_text" alignment-baseline="middle" text-anchor="start" font-size="large" x="675" y="300">indirect_par</text><line class="poloto4stroke" stroke="black" x1="680" x2="730" y1="281.25" y2="281.25"/><polyline class="poloto4stroke" fill="none" stroke="black" points="650,341.3225585749717 644.9494949494949,360.74311800134484 639.8989898989898,336.36294923274005 634.8484848484848,358.5294252413512 629.7979797979798,357.1461426305016 624.7474747474747,356.06918243919864 619.6969696969697,362.75813736544114 614.6464646464647,362.66059237020534 609.5959595959596,355.6481029295025 604.5454545454545,362.2686794309004 599.4949494949494,364.65613798186524 594.4444444444445,360.3717949571499 589.3939393939394,361.42646166715684 584.3434343434344,342.83252337927274 579.2929292929293,360.3757602008587 574.2424242424242,356.62064503647434 569.1919191919192,363.2636031356951 564.1414141414141,363.61236834901354 559.090909090909,364.4436596634262 554.040404040404,366.8681859000242 548.989898989899,363.5669002211529 543.939393939394,363.68247973221975 538.8888888888889,364.29107121107745 533.8383838383838,365.8679164592665 528.7878787878788,367.05287814032613 523.7373737373737,366.56139352566754 518.6868686868687,364.3762211482014 513.6363636363636,366.5910594230443 508.5858585858586,370.0038712527468 503.5353535353535,364.980641778121 498.4848484848485,366.35470152582576 493.4343434343434,367.34087232228563 488.3838383838384,368.9776955530918 483.3333333333333,366.897998658279 478.2828282828283,368.7430118698836 473.2323232323232,370.10990480673695 468.1818181818182,368.4933777492846 463.1313131313131,372.0686764545199 458.0808080808081,369.93405359129673 453.030303030303,372.3702699537917 447.979797979798,375.05964509796013 442.9292929292929,367.7175704746191 437.8787878787879,374.1104244984309 432.8282828282828,374.2823104701624 427.77777777777777,369.02671771420245 422.72727272727275,376.8477937775633 417.67676767676767,377.5861809004882 412.62626262626264,376.36673628525006 407.57575757575756,379.6681688249994 402.52525252525254,378.3262422374235 397.47474747474746,378.9537787695565 392.4242424242424,378.87412142927354 387.37373737373736,379.5439245221245 382.32323232323233,376.83780723785236 377.27272727272725,378.71512984263956 372.22222222222223,377.50984261605043 367.1717171717172,380.8296915099139 362.1212121212121,379.40522910884425 357.07070707070704,380.6622701088768 352.020202020202,381.9454817173872 346.969696969697,382.41587710995026 341.9191919191919,378.08926752451697 336.86868686868684,384.3657489885202 331.8181818181818,384.2509625261951 326.7676767676768,384.7755202106024 321.7171717171717,384.18972154002626 316.66666666666663,385.0721498121943 311.6161616161616,384.76573927612077 306.5656565656566,380.7625173442697 301.5151515151515,384.85147665675714 296.4646464646464,387.1916460049729 291.4141414141414,387.5993318025861 286.3636363636364,385.7018892574988 281.3131313131313,385.7009787200546 276.26262626262627,384.6879911272532 271.2121212121212,386.91842602735056 266.16161616161617,384.39089157085135 261.1111111111111,388.5474950037929 256.06060606060606,389.5972271882956 251.010101010101,390.9655006174031 245.95959595959596,391.6510471963867 240.9090909090909,389.423343908622 235.85858585858585,392.53074385622205 230.8080808080808,391.11879400196676 225.75757575757575,390.6245777749755 220.7070707070707,393.8311969318217 215.65656565656565,387.9277127260238 210.6060606060606,389.7936389266702 205.55555555555554,388.5252602668482 200.50505050505052,390.069766749679 195.45454545454544,392.66200810907026 190.40404040404042,390.29364147225874 185.35353535353534,393.63540200913513 180.3030303030303,395.903961993188 175.25252525252526,396.70746722946365 170.2020202020202,397.23413971051565 165.15151515151516,398.2823445418861 160.1010101010101,398.8165069277213 155.05050505050505,399.461872370456 150,399.9981495529359 "/><text class="poloto_text" alignment-baseline="middle" text-anchor="start" font-size="large" x="675" y="350">indirect_seq</text><line class="poloto5stroke" stroke="black" x1="680" x2="730" y1="331.25" y2="331.25"/><polyline class="poloto5stroke" fill="none" stroke="black" points="650,292.16722402001693 644.9494949494949,290.67376637841465 639.8989898989898,299.66567610636173 634.8484848484848,295.4514738370283 629.7979797979798,297.31017448247206 624.7474747474747,298.9346907716932 619.6969696969697,299.1150946743546 614.6464646464647,300.22909317911507 609.5959595959596,300.76819009045454 604.5454545454545,300.8294310766234 599.4949494949494,306.70410117813753 594.4444444444445,308.6826109279375 589.3939393939394,309.99895435054793 584.3434343434344,305.6311649748946 579.2929292929293,312.0733348815734 574.2424242424242,313.2199365012726 569.1919191919192,313.3590431250115 564.1414141414141,311.4017694581852 559.090909090909,314.9024040929931 554.040404040404,317.347990179511 548.989898989899,319.1914760379833 543.939393939394,320.3646594766192 538.8888888888889,320.4303650334823 533.8383838383838,321.7026795648375 528.7878787878788,320.91547588603123 523.7373737373737,319.57037710348834 518.6868686868687,319.3687077456777 513.6363636363636,326.2495804674249 508.5858585858586,326.151653633906 503.5353535353535,327.7631580493272 498.4848484848485,328.7535584390764 493.4343434343434,329.29039369289313 488.3838383838384,331.6425762609377 483.3333333333333,331.0456161636257 478.2828282828283,333.07109202224296 473.2323232323232,335.09248514844893 468.1818181818182,334.6200924479437 463.1313131313131,335.7966536867759 458.0808080808081,333.0512951758747 453.030303030303,335.13431112653257 447.979797979798,336.5877638649397 442.9292929292929,337.1386096465274 437.8787878787879,339.59773630600637 432.8282828282828,339.1690200306489 427.77777777777777,340.69978033528923 422.72727272727275,348.3615417180843 417.67676767676767,349.12847859571235 412.62626262626264,350.3841097313151 407.57575757575756,348.5240285936172 402.52525252525254,351.2561402533135 397.47474747474746,351.59735681749737 392.4242424242424,351.5062149565468 387.37373737373736,355.8166992175644 382.32323232323233,356.5840766778268 377.27272727272725,354.348795368752 372.22222222222223,356.17057518944074 367.1717171717172,357.98371959049706 362.1212121212121,357.6306660395381 357.07070707070704,359.09983289190217 352.020202020202,360.5052327509941 346.969696969697,361.9679964690729 341.9191919191919,361.9820069968439 336.86868686868684,363.0476589005329 331.8181818181818,365.7064576098803 326.7676767676768,365.67400135581966 321.7171717171717,367.53581545187916 316.66666666666663,368.6014673555682 311.6161616161616,369.14696740119297 306.5656565656566,370.6991106496851 301.5151515151515,371.40439533068565 296.4646464646464,371.5342790912797 291.4141414141414,372.7947272636842 286.3636363636364,376.4392855590328 281.3131313131313,377.5779273191389 276.26262626262627,378.43662287340555 271.2121212121212,378.8236012872062 266.16161616161617,380.60032419049304 261.1111111111111,381.5711039669277 256.06060606060606,382.26801757787644 251.010101010101,382.6368733593192 245.95959595959596,383.2319536373915 240.9090909090909,384.2365407879654 235.85858585858585,384.7014435836874 230.8080808080808,386.08434435625395 225.75757575757575,386.7620779365224 220.7070707070707,388.3676198002927 215.65656565656565,389.65488476903874 210.6060606060606,390.52729712932023 205.55555555555554,391.2445362857983 200.50505050505052,392.04437000012143 195.45454545454544,392.803758228615 190.40404040404042,393.4023044234105 185.35353535353534,394.3538160526381 180.3030303030303,395.78794189948684 175.25252525252526,396.5949424246613 170.2020202020202,397.19381171338864 165.15151515151516,398.2789667416897 160.1010101010101,398.6843615096045 155.05050505050505,399.40198250436566 150,399.99917757908264 "/><text class="poloto_text" alignment-baseline="start" text-anchor="middle" font-size="x-large" x="400" y="37.5">Bench of rebal:128_bytes with abspiral(num,2.1)</text><text class="poloto_text" alignment-baseline="start" text-anchor="middle" font-size="x-large" x="400" y="481.25">Number of Elements</text><text class="poloto_text" alignment-baseline="start" text-anchor="middle" font-size="x-large" transform="rotate(-90,37.5,250)" x="37.5" y="250">Time in Seconds</text><path stroke="black" fill="none" class="poloto_axis_lines" d=" M 150 100 L 150 400 L 650 400"/></svg>