<svg class="poloto" width="800" height="500" viewBox="0 0 800 500" xmlns="http://www.w3.org/2000/svg"><style>.poloto {
                    font-family: "Arial";
                    stroke-width:2;
                    }
                    .poloto_text{fill: var(--poloto_fg_color,black);  }
                    .poloto_axis_lines{stroke: var(--poloto_fg_color,black);stoke-width:3;fill:none}
                    .poloto_background{fill: var(--poloto_bg_color,aliceblue); }
                    .poloto0stroke{stroke:  var(--poloto_color0,blue); }
                    .poloto1stroke{stroke:  var(--poloto_color1,red); }
                    .poloto2stroke{stroke:  var(--poloto_color2,green); }
                    .poloto3stroke{stroke:  var(--poloto_color3,gold); }
                    .poloto4stroke{stroke:  var(--poloto_color4,aqua); }
                    .poloto5stroke{stroke:  var(--poloto_color5,brown); }
                    .poloto6stroke{stroke:  var(--poloto_color6,lime); }
                    .poloto7stroke{stroke:  var(--poloto_color7,chocolate); }
                    .poloto0fill{fill:var(--poloto_color0,blue);}
                    .poloto1fill{fill:var(--poloto_color1,red);}
                    .poloto2fill{fill:var(--poloto_color2,green);}
                    .poloto3fill{fill:var(--poloto_color3,gold);}
                    .poloto4fill{fill:var(--poloto_color4,aqua);}
                    .poloto5fill{fill:var(--poloto_color5,brown);}
                    .poloto6fill{fill:var(--poloto_color6,lime);}
                    .poloto7fill{fill:var(--poloto_color7,chocolate);}</style><rect class="poloto_background" fill="white" x="0" y="0" width="800" height="500"/><line class="poloto_axis_lines" stroke="black" x1="150" x2="150" y1="400" y2="405"/><text class="poloto_text" alignment-baseline="start" text-anchor="middle" x="150" y="430">0</text><line class="poloto_axis_lines" stroke="black" x1="234.17508417508418" x2="234.17508417508418" y1="400" y2="405"/><text class="poloto_text" alignment-baseline="start" text-anchor="middle" x="234.17508417508418" y="430">5000</text><line class="poloto_axis_lines" stroke="black" x1="318.35016835016836" x2="318.35016835016836" y1="400" y2="405"/><text class="poloto_text" alignment-baseline="start" text-anchor="middle" x="318.35016835016836" y="430">10000</text><line class="poloto_axis_lines" stroke="black" x1="402.52525252525254" x2="402.52525252525254" y1="400" y2="405"/><text class="poloto_text" alignment-baseline="start" text-anchor="middle" x="402.52525252525254" y="430">15000</text><line class="poloto_axis_lines" stroke="black" x1="486.7003367003367" x2="486.7003367003367" y1="400" y2="405"/><text class="poloto_text" alignment-baseline="start" text-anchor="middle" x="486.7003367003367" y="430">20000</text><line class="poloto_axis_lines" stroke="black" x1="570.8754208754208" x2="570.8754208754208" y1="400" y2="405"/><text class="poloto_text" alignment-baseline="start" text-anchor="middle" x="570.8754208754208" y="430">25000</text><line class="poloto_axis_lines" stroke="black" x1="150" x2="144" y1="345.9037070892493" y2="345.9037070892493"/><text class="poloto_text" alignment-baseline="middle" text-anchor="end" x="135" y="345.9037070892493">0.002</text><line class="poloto_axis_lines" stroke="black" x1="150" x2="144" y1="291.8044387187382" y2="291.8044387187382"/><text class="poloto_text" alignment-baseline="middle" text-anchor="end" x="135" y="291.8044387187382">0.004</text><line class="poloto_axis_lines" stroke="black" x1="150" x2="144" y1="237.70517034822706" y2="237.70517034822706"/><text class="poloto_text" alignment-baseline="middle" text-anchor="end" x="135" y="237.70517034822706">0.006</text><line class="poloto_axis_lines" stroke="black" x1="150" x2="144" y1="183.60590197771603" y2="183.60590197771603"/><text class="poloto_text" alignment-baseline="middle" text-anchor="end" x="135" y="183.60590197771603">0.008</text><line class="poloto_axis_lines" stroke="black" x1="150" x2="144" y1="129.5066336072049" y2="129.5066336072049"/><text class="poloto_text" alignment-baseline="middle" text-anchor="end" x="135" y="129.5066336072049">0.010</text><text class="poloto_text" alignment-baseline="middle" text-anchor="start" font-size="large" x="675" y="100">default_par</text><line class="poloto0stroke" stroke="black" x1="680" x2="730" y1="81.25" y2="81.25"/><polyline class="poloto0stroke" fill="none" stroke="black" points="650,313.25377074154676 644.9494949494949,313.3158226023678 639.8989898989898,314.12879935780563 634.8484848484848,317.25922647243107 629.7979797979798,314.6338971769469 624.7474747474747,317.13872035213575 619.6969696969697,318.26920571364013 614.6464646464647,321.42443734281346 609.5959595959596,317.92959755644426 604.5454545454545,320.47234431876086 599.4949494949494,319.7817942076455 594.4444444444445,318.64819813820975 589.3939393939394,320.4434823590852 584.3434343434344,322.0752244916765 579.2929292929293,323.0350807607403 574.2424242424242,322.2873206733231 569.1919191919192,324.9991817485659 564.1414141414141,327.0357216567396 559.090909090909,325.91519056061543 554.040404040404,326.19653380577626 548.989898989899,327.1935292225764 543.939393939394,329.50386552797323 538.8888888888889,327.8733947281886 533.8383838383838,328.2352106350506 528.7878787878788,330.9946790664594 523.7373737373737,331.65193107789275 518.6868686868687,331.0382289774977 513.6363636363636,335.0659465573164 508.5858585858586,332.77357120901854 503.5353535353535,323.8027764285521 498.4848484848485,334.7703752045741 493.4343434343434,336.8213055181344 488.3838383838384,336.35794528454096 483.3333333333333,335.91957891293475 478.2828282828283,335.5609548629066 473.2323232323232,337.5448291333216 468.1818181818182,338.6312776903724 463.1313131313131,340.6392531848465 458.0808080808081,337.4311124712068 453.030303030303,339.06071768269754 447.979797979798,340.341761308077 442.9292929292929,340.40305577914086 437.8787878787879,340.6713611006244 432.8282828282828,345.1461279846228 427.77777777777777,343.67054339018296 422.72727272727275,343.2585774615415 417.67676767676767,344.965679874973 412.62626262626264,346.43182414708224 407.57575757575756,346.32965767876453 402.52525252525254,346.04974806421546 397.47474747474746,347.4168636255725 392.4242424242424,351.8455379329192 387.37373737373736,349.99818316623725 382.32323232323233,350.9377522096621 377.27272727272725,353.77958677716504 372.22222222222223,355.5171470786891 367.1717171717172,353.74439520309 362.1212121212121,355.9706071461707 357.07070707070704,355.5365957656683 352.020202020202,355.7291891610673 346.969696969697,356.14956752594037 341.9191919191919,357.0799667433764 336.86868686868684,358.35925214253393 331.8181818181818,358.71068098986876 326.7676767676768,361.3046868089664 321.7171717171717,359.2429095920978 316.66666666666663,359.2728805867751 311.6161616161616,361.7253086205471 306.5656565656566,364.16670040357155 301.5151515151515,363.25929337519295 296.4646464646464,363.7412637571058 291.4141414141414,360.6680466187822 286.3636363636364,369.1350690121825 281.3131313131313,371.4837346492199 276.26262626262627,369.5991054866306 271.2121212121212,373.47805007843044 266.16161616161617,372.6928532973008 261.1111111111111,373.49560529101666 256.06060606060606,375.1053290213812 251.010101010101,376.2898866016219 245.95959595959596,375.83469535755245 240.9090909090909,377.47744669125717 235.85858585858585,376.8175167660395 230.8080808080808,376.2607541456044 225.75757575757575,377.0245005668251 220.7070707070707,378.52104862775855 215.65656565656565,375.12932204690355 210.6060606060606,374.98433600767055 205.55555555555554,378.0199812041109 200.50505050505052,378.05322520452455 195.45454545454544,380.1986939895623 190.40404040404042,382.43759221107587 185.35353535353534,385.2465073737754 180.3030303030303,384.94620233505066 175.25252525252526,387.3464786741135 170.2020202020202,390.07962781146006 165.15151515151516,392.8234345046757 160.1010101010101,394.9848355242485 155.05050505050505,397.8293480055358 150,399.99975655329234 "/><text class="poloto_text" alignment-baseline="middle" text-anchor="start" font-size="large" x="675" y="150">default_seq</text><line class="poloto1stroke" stroke="black" x1="680" x2="730" y1="131.25" y2="131.25"/><polyline class="poloto1stroke" fill="none" stroke="black" points="650,128.19534849080623 644.9494949494949,133.4580171193528 639.8989898989898,133.67192562648978 634.8484848484848,137.08323614249497 629.7979797979798,139.91606318181425 624.7474747474747,141.5394740270765 619.6969696969697,146.5280216627897 614.6464646464647,148.5985629611343 609.5959595959596,152.05721033696358 604.5454545454545,152.18464116361037 599.4949494949494,159.35530983868227 594.4444444444445,158.75705307940697 589.3939393939394,162.14677798733229 584.3434343434344,165.91065343530803 579.2929292929293,168.0775455306205 574.2424242424242,171.27843694229853 569.1919191919192,171.48022721332055 564.1414141414141,175.54411015404497 559.090909090909,179.81389491018754 554.040404040404,182.0539292163369 548.989898989899,183.73592956924452 543.939393939394,186.3586620998469 538.8888888888889,189.21978305652394 533.8383838383838,192.22845976768156 528.7878787878788,194.5980347719441 523.7373737373737,196.08473676603413 518.6868686868687,201.78658325521252 513.6363636363636,202.42587430954683 508.5858585858586,204.76550536876633 503.5353535353535,207.71935247143043 498.4848484848485,209.3851771430952 493.4343434343434,211.84225771394708 488.3838383838384,213.70827672821693 483.3333333333333,215.7889345897468 478.2828282828283,218.98395623080663 473.2323232323232,221.97848598328534 468.1818181818182,224.70300628732682 463.1313131313131,228.37172112223885 458.0808080808081,230.1489361874785 453.030303030303,232.06743149206775 447.979797979798,235.4963513199275 442.9292929292929,237.54341353579926 437.8787878787879,240.7252349553767 432.8282828282828,242.1183452151857 427.77777777777777,243.78552236855975 422.72727272727275,252.66283361328203 417.67676767676767,254.5099178836222 412.62626262626264,257.9695390462822 407.57575757575756,261.38322993009564 402.52525252525254,263.07012626679074 397.47474747474746,266.0776939429468 392.4242424242424,269.1347354000276 387.37373737373736,272.12328718335135 382.32323232323233,275.1513584822198 377.27272727272725,277.66664986583834 372.22222222222223,280.4616885662008 367.1717171717172,283.8069709251597 362.1212121212121,284.91846744346606 357.07070707070704,287.11005585478966 352.020202020202,289.82221447600847 346.969696969697,292.61119405831346 341.9191919191919,295.3898136307254 336.86868686868684,298.1176069405034 331.8181818181818,300.7669022118756 326.7676767676768,302.8664407180668 321.7171717171717,305.6398397110811 316.66666666666663,308.395521193704 311.6161616161616,311.7864903848018 306.5656565656566,314.3125204731919 301.5151515151515,316.35955563942946 296.4646464646464,319.86727105167085 291.4141414141414,322.82658218044037 286.3636363636364,328.09487713289747 281.3131313131313,330.0215143773765 276.26262626262627,333.6285019470778 271.2121212121212,336.23178579070094 266.16161616161617,338.8997182600269 261.1111111111111,342.2123517105242 256.06060606060606,343.91875083346685 251.010101010101,346.73686287178936 245.95959595959596,349.64805270134326 240.9090909090909,352.4893192265283 235.85858585858585,354.7346282113439 230.8080808080808,357.287383338309 225.75757575757575,360.1739850503885 220.7070707070707,362.1965943969568 215.65656565656565,366.4089257300899 210.6060606060606,368.71290537145325 205.55555555555554,371.283134562102 200.50505050505052,373.9851495705014 195.45454545454544,376.7114281007649 190.40404040404042,379.28606638178593 185.35353535353534,381.8277852580035 180.3030303030303,384.6732985757556 175.25252525252526,387.42930465398877 170.2020202020202,390.0094340107494 165.15151515151516,392.7408249218739 160.1010101010101,394.8874568411816 155.05050505050505,397.78782681706144 150,399.9998647518291 "/><text class="poloto_text" alignment-baseline="middle" text-anchor="start" font-size="large" x="675" y="200">direct_par</text><line class="poloto2stroke" stroke="black" x1="680" x2="730" y1="181.25" y2="181.25"/><polyline class="poloto2stroke" fill="none" stroke="black" points="650,311.8711827894358 644.9494949494949,316.28232893383057 639.8989898989898,317.2924975224789 634.8484848484848,318.3322313612918 629.7979797979798,318.27805094401873 624.7474747474747,318.961865696222 619.6969696969697,318.46807462417013 614.6464646464647,320.093027298581 609.5959595959596,323.4633846684296 604.5454545454545,321.9466846300282 599.4949494949494,324.4794771269646 594.4444444444445,323.2502876503182 589.3939393939394,325.0617475524364 584.3434343434344,322.81113683932057 579.2929292929293,323.524760288396 574.2424242424242,324.3727392704696 569.1919191919192,324.9915537517257 564.1414141414141,328.68196239325425 559.090909090909,328.7646531249586 554.040404040404,329.2675058244625 548.989898989899,328.4395165220518 543.939393939394,328.27437850535085 538.8888888888889,331.6621558396148 533.8383838383838,330.7220187538721 528.7878787878788,332.357060941834 523.7373737373737,333.5816249310347 518.6868686868687,332.29476563430535 513.6363636363636,333.6645861590809 508.5858585858586,335.9917743865752 503.5353535353535,333.51202622227606 498.4848484848485,336.002702438786 493.4343434343434,338.9546019677888 488.3838383838384,337.05382417359084 483.3333333333333,336.96337019687536 478.2828282828283,336.3977082467933 473.2323232323232,336.6909262813615 468.1818181818182,340.0520056266846 463.1313131313131,340.9543002742021 458.0808080808081,340.7428803334102 453.030303030303,343.37148263463075 447.979797979798,340.85981590199304 442.9292929292929,341.2576348719556 437.8787878787879,345.8200155210801 432.8282828282828,346.4156484658394 427.77777777777777,346.40572125009345 422.72727272727275,345.0333039604361 417.67676767676767,348.54564486012316 412.62626262626264,345.09768208979705 407.57575757575756,347.6078340429204 402.52525252525254,347.14474430566884 397.47474747474746,347.5145669042496 392.4242424242424,350.0725426106125 387.37373737373736,354.11124234191044 382.32323232323233,351.8663661512419 377.27272727272725,352.0463273674764 372.22222222222223,354.234994418308 367.1717171717172,354.5544235484017 362.1212121212121,357.591096630941 357.07070707070704,354.5101432972404 352.020202020202,358.4122153262686 346.969696969697,359.7711077988333 341.9191919191919,361.20638843833717 336.86868686868684,359.07666254039526 331.8181818181818,359.04144391668603 326.7676767676768,360.68189603148505 321.7171717171717,363.3945415461192 316.66666666666663,360.16860217318566 311.6161616161616,363.47555520050406 306.5656565656566,362.00638136936607 301.5151515151515,364.0198208899456 296.4646464646464,367.48517657505283 291.4141414141414,367.03615264757764 286.3636363636364,370.1041762561377 281.3131313131313,369.83549223977553 276.26262626262627,372.6989665146267 271.2121212121212,371.63307567955667 266.16161616161617,374.0377881586259 261.1111111111111,372.9522863387716 256.06060606060606,374.71181094325414 251.010101010101,376.8248742665379 245.95959595959596,377.42342857178926 240.9090909090909,377.9081309667548 235.85858585858585,378.6300586535251 230.8080808080808,375.38123529007083 225.75757575757575,377.5924076365445 220.7070707070707,381.75448074936145 215.65656565656565,374.64702706938044 210.6060606060606,375.72127624141365 205.55555555555554,378.24327593431013 200.50505050505052,380.0109695283166 195.45454545454544,380.28949961152216 190.40404040404042,381.925840181925 185.35353535353534,383.42852850981853 180.3030303030303,385.28091450845903 175.25252525252526,387.55811501197894 170.2020202020202,390.2388960575429 165.15151515151516,392.8522153154488 160.1010101010101,395.0845134262212 155.05050505050505,397.8999746003935 150,399.9987286671933 "/><text class="poloto_text" alignment-baseline="middle" text-anchor="start" font-size="large" x="675" y="250">direct_seq</text><line class="poloto3stroke" stroke="black" x1="680" x2="730" y1="231.25" y2="231.25"/><polyline class="poloto3stroke" fill="none" stroke="black" points="650,131.8522967348477 644.9494949494949,137.53050184374814 639.8989898989898,137.95474830630968 634.8484848484848,139.1696014768379 629.7979797979798,143.0760555466041 624.7474747474747,145.42033914290352 619.6969696969697,151.2870802020752 614.6464646464647,153.21212151813725 609.5959595959596,154.42970670171817 604.5454545454545,159.55474679153016 599.4949494949494,161.38197663037838 594.4444444444445,160.83903637301194 589.3939393939394,164.94882254294873 584.3434343434344,167.6824044744423 579.2929292929293,171.33345589823136 574.2424242424242,173.7177459034907 569.1919191919192,177.42554745980038 564.1414141414141,177.94855213677232 559.090909090909,182.39521445085228 554.040404040404,185.23710311762363 548.989898989899,186.5103293987236 543.939393939394,189.16335751961347 538.8888888888889,191.28845793010973 533.8383838383838,194.53170906892186 528.7878787878788,198.02146352406422 523.7373737373737,199.44692514635884 518.6868686868687,203.0201277229627 513.6363636363636,205.4878117504152 508.5858585858586,207.09301819187084 503.5353535353535,209.0360475146661 498.4848484848485,211.59616014212963 493.4343434343434,214.2152139224828 488.3838383838384,216.09446020786925 483.3333333333333,218.87278223430522 478.2828282828283,220.9545220812025 473.2323232323232,224.53124111025045 468.1818181818182,226.76938194200685 463.1313131313131,230.2032789025567 458.0808080808081,232.25956504368563 453.030303030303,233.18095673293797 447.979797979798,237.2292590843717 442.9292929292929,239.6279665446518 437.8787878787879,242.91098064571625 432.8282828282828,244.30411795515948 427.77777777777777,245.50203805468772 422.72727272727275,254.9414136481454 417.67676767676767,256.67846000661996 412.62626262626264,260.1684308588358 407.57575757575756,263.25701218937667 402.52525252525254,265.2885208655919 397.47474747474746,268.2789120240403 392.4242424242424,271.25821283247274 387.37373737373736,274.1437866584532 382.32323232323233,276.90230835266556 377.27272727272725,278.9491541714639 372.22222222222223,282.2711197457551 367.1717171717172,285.44206721239004 362.1212121212121,286.6762067720923 357.07070707070704,288.9991752566537 352.020202020202,291.2830299701832 346.969696969697,293.99294347176465 341.9191919191919,296.86107028369565 336.86868686868684,299.04235278439467 331.8181818181818,301.72324202849535 326.7676767676768,304.317978187716 321.7171717171717,306.9324605798919 316.66666666666663,309.8497095275033 311.6161616161616,312.80553125346296 306.5656565656566,315.4596413597202 301.5151515151515,318.59482920996226 296.4646464646464,319.30442226354404 291.4141414141414,323.56514539223457 286.3636363636364,328.09276726143105 281.3131313131313,332.3239792392254 276.26262626262627,334.40761256051564 271.2121212121212,336.50141654425954 266.16161616161617,339.80569165779366 261.1111111111111,341.8101777494578 256.06060606060606,344.9786366497477 251.010101010101,348.0158236753366 245.95959595959596,350.21942212423846 240.9090909090909,352.7872709470789 235.85858585858585,355.43267107112854 230.8080808080808,358.27236871753087 225.75757575757575,360.9372445781939 220.7070707070707,362.7226286329575 215.65656565656565,366.98616492360327 210.6060606060606,368.7578077642008 205.55555555555554,371.61465487867656 200.50505050505052,374.3309791435599 195.45454545454544,376.7244930740764 190.40404040404042,379.3813081437522 185.35353535353534,381.97785662846326 180.3030303030303,385.06743879546895 175.25252525252526,387.33557767153684 170.2020202020202,390.21338825250615 165.15151515151516,392.8791838007315 160.1010101010101,394.8602719588254 155.05050505050505,397.83067343761087 150,399.99929670951116 "/><text class="poloto_text" alignment-baseline="middle" text-anchor="start" font-size="large" x="675" y="300">indirect_par</text><line class="poloto4stroke" stroke="black" x1="680" x2="730" y1="281.25" y2="281.25"/><polyline class="poloto4stroke" fill="none" stroke="black" points="650,304.1711527733584 644.9494949494949,305.51695322297746 639.8989898989898,303.4668884977111 634.8484848484848,305.94972032030734 629.7979797979798,307.1952748256358 624.7474747474747,305.5707008461036 619.6969696969697,309.6538160767337 614.6464646464647,310.2140410503445 609.5959595959596,313.2045133576954 604.5454545454545,312.029774794664 599.4949494949494,314.0049661325055 594.4444444444445,312.7076656769807 589.3939393939394,313.87399180378054 584.3434343434344,316.1705868950113 579.2929292929293,313.9987717662771 574.2424242424242,318.0877838171596 569.1919191919192,319.09768190946613 564.1414141414141,317.96246286197936 559.090909090909,320.58968563185647 554.040404040404,320.70478182531474 548.989898989899,320.1010339902998 543.939393939394,319.6813589159156 538.8888888888889,323.65359769602037 533.8383838383838,324.4091480780829 528.7878787878788,323.92888182312373 523.7373737373737,325.4973007620874 518.6868686868687,325.8937131510723 513.6363636363636,328.71515229439956 508.5858585858586,328.12774243843256 503.5353535353535,327.0999645379296 498.4848484848485,328.17873099887174 493.4343434343434,330.84409375295013 488.3838383838384,331.03698469432516 483.3333333333333,331.5577713012939 478.2828282828283,330.94677416431733 473.2323232323232,332.21096586759944 468.1818181818182,334.67783840602635 463.1313131313131,335.3983865614532 458.0808080808081,332.0938409515773 453.030303030303,336.98081721092484 447.979797979798,335.1357075638802 442.9292929292929,334.0914564361584 437.8787878787879,335.3476143980875 432.8282828282828,337.2383297283685 427.77777777777777,320.9431432017552 422.72727272727275,340.2607747033264 417.67676767676767,329.45322861277845 412.62626262626264,343.30650941331777 407.57575757575756,342.26902069414234 402.52525252525254,344.4462998489819 397.47474747474746,343.38030081537516 392.4242424242424,345.7165506703215 387.37373737373736,345.89329298008795 382.32323232323233,349.62295064081934 377.27272727272725,348.0255344940091 372.22222222222223,352.0576341145659 367.1717171717172,353.5376007497437 362.1212121212121,353.66010854296877 357.07070707070704,351.6592200526512 352.020202020202,352.491753693605 346.969696969697,353.90174292514564 341.9191919191919,355.00544914880663 336.86868686868684,354.86879439690273 331.8181818181818,356.02043257234 326.7676767676768,358.2099381618313 321.7171717171717,357.241831754341 316.66666666666663,357.9945419248141 311.6161616161616,361.98769007214406 306.5656565656566,361.1474202358133 301.5151515151515,361.3618967852682 296.4646464646464,361.14631120081174 291.4141414141414,359.98055311632976 286.3636363636364,365.99812293571847 281.3131313131313,368.12306104840957 276.26262626262627,368.3143290117335 271.2121212121212,367.9202699409227 266.16161616161617,370.2723979311358 261.1111111111111,372.116128046837 256.06060606060606,373.7840084906998 251.010101010101,375.3150989344879 245.95959595959596,375.56774251777813 240.9090909090909,373.6686418008997 235.85858585858585,376.3498285909765 230.8080808080808,374.5312816847017 225.75757575757575,376.0103015826831 220.7070707070707,376.1825266035406 215.65656565656565,372.1298422113689 210.6060606060606,374.00565319321385 205.55555555555554,376.1409242661637 200.50505050505052,377.6865674131434 195.45454545454544,379.6022495557774 190.40404040404042,380.07935100353694 185.35353535353534,385.0666273064434 180.3030303030303,383.53421143058034 175.25252525252526,386.34999720036285 170.2020202020202,389.27728156225703 165.15151515151516,392.40062167272595 160.1010101010101,394.7186941734998 155.05050505050505,397.6541475249179 150,399.9996213051214 "/><text class="poloto_text" alignment-baseline="middle" text-anchor="start" font-size="large" x="675" y="350">indirect_seq</text><line class="poloto5stroke" stroke="black" x1="680" x2="730" y1="331.25" y2="331.25"/><polyline class="poloto5stroke" fill="none" stroke="black" points="650,100 644.9494949494949,109.21767679167533 639.8989898989898,111.19257058354088 634.8484848484848,114.33113963805607 629.7979797979798,118.07418686770916 624.7474747474747,119.47763008777696 619.6969696969697,125.53388088405057 614.6464646464647,128.59690031028634 609.5959595959596,131.44019555803527 604.5454545454545,133.94058259321775 599.4949494949494,138.28943343008388 594.4444444444445,138.65841749000492 589.3939393939394,143.24276244208784 584.3434343434344,146.63105371940136 579.2929292929293,150.08526495522432 574.2424242424242,152.25145376004792 569.1919191919192,155.6630888716633 564.1414141414141,158.995198058774 559.090909090909,162.6666719563729 554.040404040404,164.49755349583612 548.989898989899,166.91565554382706 543.939393939394,170.14787043189162 538.8888888888889,172.8873762332717 533.8383838383838,175.49861266934533 528.7878787878788,179.561359525434 523.7373737373737,181.51033976775005 518.6868686868687,185.0221126251192 513.6363636363636,188.1014429807687 508.5858585858586,190.65454975297826 503.5353535353535,193.72898412484022 498.4848484848485,195.9198421960408 493.4343434343434,197.63522179753298 488.3838383838384,200.60354045448616 483.3333333333333,202.76526606966922 478.2828282828283,204.2786390030659 473.2323232323232,209.82319186945705 468.1818181818182,212.1947955962835 463.1313131313131,216.10817437240118 458.0808080808081,217.64946252827704 453.030303030303,220.17592541081407 447.979797979798,223.72050947444995 442.9292929292929,226.1726940615143 437.8787878787879,229.73772764859424 432.8282828282828,231.6068844204296 427.77777777777777,233.10034882306593 422.72727272727275,241.91536476025956 417.67676767676767,244.9381343308277 412.62626262626264,248.25450063084259 407.57575757575756,251.70238225226618 402.52525252525254,254.52969116621162 397.47474747474746,256.61540730933416 392.4242424242424,260.8239246440471 387.37373737373736,263.74555563239653 382.32323232323233,267.0284615349243 377.27272727272725,269.6345585405027 372.22222222222223,272.52248568465734 367.1717171717172,275.96603936461133 362.1212121212121,277.82085983032846 357.07070707070704,279.95853832072083 352.020202020202,282.8539041142764 346.969696969697,286.2712466987049 341.9191919191919,288.71658772832035 336.86868686868684,291.09982279784646 331.8181818181818,294.31413082808035 326.7676767676768,296.65378893693406 321.7171717171717,299.8316070106521 316.66666666666663,302.75083058155906 311.6161616161616,305.9310831223537 306.5656565656566,308.6928507726683 301.5151515151515,312.4244019077927 296.4646464646464,313.6314918333097 291.4141414141414,317.97068595077167 286.3636363636364,321.8789793956625 281.3131313131313,325.33278488697266 276.26262626262627,328.70325045535805 271.2121212121212,330.75799476733846 266.16161616161617,333.6761634025122 261.1111111111111,337.2473913558206 256.06060606060606,340.06304187743217 251.010101010101,343.2927140998833 245.95959595959596,345.8567759739379 240.9090909090909,349.26045849310276 235.85858585858585,351.7898968354002 230.8080808080808,354.81704844670634 225.75757575757575,358.0388221759754 220.7070707070707,359.67973413455553 215.65656565656565,364.39670344304875 210.6060606060606,366.87761474161783 205.55555555555554,369.61536231677593 200.50505050505052,372.49782543482513 195.45454545454544,375.2325975502228 190.40404040404042,378.0678590566188 185.35353535353534,380.84317857366017 180.3030303030303,383.57981711381666 175.25252525252526,386.58297569960047 170.2020202020202,389.29670319960206 165.15151515151516,392.37113757146403 160.1010101010101,394.689967461995 155.05050505050505,397.6902858361894 150,400 "/><text class="poloto_text" alignment-baseline="start" text-anchor="middle" font-size="x-large" x="400" y="37.5">Bench of query:8_bytes with abspiral(num,0.1)</text><text class="poloto_text" alignment-baseline="start" text-anchor="middle" font-size="x-large" x="400" y="481.25">Number of Elements</text><text class="poloto_text" alignment-baseline="start" text-anchor="middle" font-size="x-large" transform="rotate(-90,37.5,250)" x="37.5" y="250">Time in Seconds</text><path stroke="black" fill="none" class="poloto_axis_lines" d=" M 150 100 L 150 400 L 650 400"/></svg>