<svg class="poloto" width="800" height="500" viewBox="0 0 800 500" xmlns="http://www.w3.org/2000/svg"><style>.poloto {
                    font-family: "Arial";
                    stroke-width:2;
                    }
                    .poloto_text{fill: var(--poloto_fg_color,black);  }
                    .poloto_axis_lines{stroke: var(--poloto_fg_color,black);stoke-width:3;fill:none}
                    .poloto_background{fill: var(--poloto_bg_color,aliceblue); }
                    .poloto0stroke{stroke:  var(--poloto_color0,blue); }
                    .poloto1stroke{stroke:  var(--poloto_color1,red); }
                    .poloto2stroke{stroke:  var(--poloto_color2,green); }
                    .poloto3stroke{stroke:  var(--poloto_color3,gold); }
                    .poloto4stroke{stroke:  var(--poloto_color4,aqua); }
                    .poloto5stroke{stroke:  var(--poloto_color5,brown); }
                    .poloto6stroke{stroke:  var(--poloto_color6,lime); }
                    .poloto7stroke{stroke:  var(--poloto_color7,chocolate); }
                    .poloto0fill{fill:var(--poloto_color0,blue);}
                    .poloto1fill{fill:var(--poloto_color1,red);}
                    .poloto2fill{fill:var(--poloto_color2,green);}
                    .poloto3fill{fill:var(--poloto_color3,gold);}
                    .poloto4fill{fill:var(--poloto_color4,aqua);}
                    .poloto5fill{fill:var(--poloto_color5,brown);}
                    .poloto6fill{fill:var(--poloto_color6,lime);}
                    .poloto7fill{fill:var(--poloto_color7,chocolate);}</style><rect class="poloto_background" fill="white" x="0" y="0" width="800" height="500"/><line class="poloto_axis_lines" stroke="black" x1="150" x2="150" y1="400" y2="405"/><text class="poloto_text" alignment-baseline="start" text-anchor="middle" x="150" y="430">0</text><line class="poloto_axis_lines" stroke="black" x1="234.17508417508418" x2="234.17508417508418" y1="400" y2="405"/><text class="poloto_text" alignment-baseline="start" text-anchor="middle" x="234.17508417508418" y="430">5000</text><line class="poloto_axis_lines" stroke="black" x1="318.35016835016836" x2="318.35016835016836" y1="400" y2="405"/><text class="poloto_text" alignment-baseline="start" text-anchor="middle" x="318.35016835016836" y="430">10000</text><line class="poloto_axis_lines" stroke="black" x1="402.52525252525254" x2="402.52525252525254" y1="400" y2="405"/><text class="poloto_text" alignment-baseline="start" text-anchor="middle" x="402.52525252525254" y="430">15000</text><line class="poloto_axis_lines" stroke="black" x1="486.7003367003367" x2="486.7003367003367" y1="400" y2="405"/><text class="poloto_text" alignment-baseline="start" text-anchor="middle" x="486.7003367003367" y="430">20000</text><line class="poloto_axis_lines" stroke="black" x1="570.8754208754208" x2="570.8754208754208" y1="400" y2="405"/><text class="poloto_text" alignment-baseline="start" text-anchor="middle" x="570.8754208754208" y="430">25000</text><line class="poloto_axis_lines" stroke="black" x1="150" x2="144" y1="357.9929620660739" y2="357.9929620660739"/><text class="poloto_text" alignment-baseline="middle" text-anchor="end" x="135" y="357.9929620660739">0.0005</text><line class="poloto_axis_lines" stroke="black" x1="150" x2="144" y1="315.9804625072052" y2="315.9804625072052"/><text class="poloto_text" alignment-baseline="middle" text-anchor="end" x="135" y="315.9804625072052">0.0010</text><line class="poloto_axis_lines" stroke="black" x1="150" x2="144" y1="273.9679629483364" y2="273.9679629483364"/><text class="poloto_text" alignment-baseline="middle" text-anchor="end" x="135" y="273.9679629483364">0.0015</text><line class="poloto_axis_lines" stroke="black" x1="150" x2="144" y1="231.95546338946764" y2="231.95546338946764"/><text class="poloto_text" alignment-baseline="middle" text-anchor="end" x="135" y="231.95546338946764">0.0020</text><line class="poloto_axis_lines" stroke="black" x1="150" x2="144" y1="189.9429638305989" y2="189.9429638305989"/><text class="poloto_text" alignment-baseline="middle" text-anchor="end" x="135" y="189.9429638305989">0.0025</text><line class="poloto_axis_lines" stroke="black" x1="150" x2="144" y1="147.93046427173013" y2="147.93046427173013"/><text class="poloto_text" alignment-baseline="middle" text-anchor="end" x="135" y="147.93046427173013">0.0030</text><line class="poloto_axis_lines" stroke="black" x1="150" x2="144" y1="105.91796471286136" y2="105.91796471286136"/><text class="poloto_text" alignment-baseline="middle" text-anchor="end" x="135" y="105.91796471286136">0.0035</text><text class="poloto_text" alignment-baseline="middle" text-anchor="start" font-size="large" x="675" y="100">default_par</text><line class="poloto0stroke" stroke="black" x1="680" x2="730" y1="81.25" y2="81.25"/><polyline class="poloto0stroke" fill="none" stroke="black" points="650,282.99527275354967 644.9494949494949,290.0482471544934 639.8989898989898,300.6096013685992 634.8484848484848,304.0662217823047 629.7979797979798,303.5475354627509 624.7474747474747,301.01157696437843 619.6969696969697,303.11379841730513 614.6464646464647,305.1645125457726 609.5959595959596,310.2168517177231 604.5454545454545,308.0164890658269 599.4949494949494,311.8456763256204 594.4444444444445,316.17800528013095 589.3939393939394,313.33695200996203 584.3434343434344,317.1222782202161 579.2929292929293,315.3239751890983 574.2424242424242,314.1041842769061 569.1919191919192,299.4608956056606 564.1414141414141,301.80746175602167 559.090909090909,299.5842443043654 554.040404040404,285.7518808996052 548.989898989899,295.46525482261484 543.939393939394,299.5353417548789 538.8888888888889,307.9355729916765 533.8383838383838,302.35580890026404 528.7878787878788,311.10356753341256 523.7373737373737,310.31247216671903 518.6868686868687,302.90029089454697 513.6363636363636,311.63040427788076 508.5858585858586,310.28222316703665 503.5353535353535,316.54099327631957 498.4848484848485,308.8630409319381 493.4343434343434,319.1631614237868 488.3838383838384,314.00520282794537 483.3333333333333,319.67831869337766 478.2828282828283,307.6044304701535 473.2323232323232,311.36312075568725 468.1818181818182,323.20980538129703 463.1313131313131,328.7715881228983 458.0808080808081,326.34292954839924 453.030303030303,330.3590724312297 447.979797979798,326.0843006011148 442.9292929292929,325.1094425613509 437.8787878787879,333.45530962371924 432.8282828282828,322.5975992377252 427.77777777777777,330.7454193771731 422.72727272727275,324.3543939192789 417.67676767676767,325.6188861310017 412.62626262626264,325.98288242717973 407.57575757575756,329.21465194324617 402.52525252525254,327.91982670684183 397.47474747474746,330.2979862568711 392.4242424242424,326.22285782465997 387.37373737373736,330.46200305514895 382.32323232323233,323.21358650625734 377.27272727272725,327.28518588850557 372.22222222222223,327.6604415345654 367.1717171717172,336.3452654433747 362.1212121212121,323.9228415238102 357.07070707070704,333.4352276489301 352.020202020202,329.70082058814137 346.969696969697,346.78024605880745 341.9191919191919,341.9114174849301 336.86868686868684,336.24401531943784 331.8181818181818,348.26748854319135 326.7676767676768,348.19900816891044 321.7171717171717,341.67144208744986 316.66666666666663,347.9182806468581 311.6161616161616,353.8797703092624 306.5656565656566,346.4033099127653 301.5151515151515,348.20010049389896 296.4646464646464,350.3418977214101 291.4141414141414,351.85342343053907 286.3636363636364,355.76041783951564 281.3131313131313,356.0313144366712 276.26262626262627,352.26649032620185 271.2121212121212,359.19872080341344 266.16161616161617,361.2521237318527 261.1111111111111,364.8931790186216 256.06060606060606,360.2927262919264 251.010101010101,360.6665535130012 245.95959595959596,370.7916499316877 240.9090909090909,360.33910809143936 235.85858585858585,364.6880739957752 230.8080808080808,367.52475796599003 225.75757575757575,372.29216836593224 220.7070707070707,371.67155972244865 215.65656565656565,370.6846020828117 210.6060606060606,371.57400669847294 205.55555555555554,372.9547895089747 200.50505050505052,375.4089916832056 195.45454545454544,377.4428167868504 190.40404040404042,378.29415807791133 185.35353535353534,380.9472474250539 180.3030303030303,385.0940491815125 175.25252525252526,385.89976489805247 170.2020202020202,389.4220088360689 165.15151515151516,392.1824821320839 160.1010101010101,394.9967314275343 155.05050505050505,397.693429749219 150,400 "/><text class="poloto_text" alignment-baseline="middle" text-anchor="start" font-size="large" x="675" y="150">default_seq</text><line class="poloto1stroke" stroke="black" x1="680" x2="730" y1="131.25" y2="131.25"/><polyline class="poloto1stroke" fill="none" stroke="black" points="650,113.75077513061689 644.9494949494949,117.96437676137407 639.8989898989898,122.74497908617775 634.8484848484848,136.29720314387936 629.7979797979798,133.32792772505678 624.7474747474747,134.47133991305094 619.6969696969697,139.8728029563356 614.6464646464647,158.9184974313558 609.5959595959596,144.5750099569624 604.5454545454545,152.39000707490496 599.4949494949494,152.82584474532865 594.4444444444445,150.54187721931032 589.3939393939394,159.6968209981834 584.3434343434344,162.56249359309385 579.2929292929293,176.00918225190358 574.2424242424242,173.00024703349743 569.1919191919192,174.14147457151452 564.1414141414141,178.6433659742447 559.090909090909,170.99373005456584 554.040404040404,179.97583441025378 548.989898989899,198.6777826138833 543.939393939394,197.96987199631636 538.8888888888889,188.83517824223065 533.8383838383838,191.9567069594546 528.7878787878788,198.87272061183643 523.7373737373737,197.94617694656515 518.6868686868687,215.1644117157737 513.6363636363636,203.90674233397922 508.5858585858586,205.549431066731 503.5353535353535,218.72371067840106 498.4848484848485,212.0828788981298 493.4343434343434,224.58672304183943 488.3838383838384,226.5733260959801 483.3333333333333,233.31507190019175 478.2828282828283,233.20886430130693 473.2323232323232,225.94036577762617 468.1818181818182,229.65359853863723 463.1313131313131,239.66391680852888 458.0808080808081,238.1712967242014 453.030303030303,242.19399355696308 447.979797979798,227.74177773371136 442.9292929292929,245.2372950000084 437.8787878787879,257.194472499458 432.8282828282828,256.49983783175173 427.77777777777777,254.7285068253507 422.72727272727275,249.2433548829448 417.67676767676767,254.92445312329326 412.62626262626264,263.139241187038 407.57575757575756,257.27774127358373 402.52525252525254,263.5862541823443 397.47474747474746,264.9701459178135 392.4242424242424,272.91496165939293 387.37373737373736,273.42911062899435 382.32323232323233,276.0253990767333 377.27272727272725,275.36361818368204 372.22222222222223,278.78814104772454 367.1717171717172,280.9927049495766 362.1212121212121,289.0956557394956 357.07070707070704,292.5052221536952 352.020202020202,290.3816583509926 346.969696969697,292.8916531246376 341.9191919191919,296.3182766136581 336.86868686868684,300.1549420983731 331.8181818181818,305.3022295193266 326.7676767676768,308.4496379362788 321.7171717171717,311.6841802773161 316.66666666666663,309.7074081480722 311.6161616161616,314.01175677787654 306.5656565656566,318.8821818267371 301.5151515151515,321.3280655260553 296.4646464646464,325.0805379616544 291.4141414141414,327.7953856831484 286.3636363636364,326.800193593598 281.3131313131313,330.2453866074234 276.26262626262627,333.39976909930243 271.2121212121212,335.8514505235598 266.16161616161617,337.86460547742166 261.1111111111111,339.08994203955564 256.06060606060606,343.0013057484863 251.010101010101,347.3533805777895 245.95959595959596,350.93780301515307 240.9090909090909,352.25077765136683 235.85858585858585,353.60702516212626 230.8080808080808,356.6719210299448 225.75757575757575,358.9356385311758 220.7070707070707,364.9136811184063 215.65656565656565,365.3037251643109 210.6060606060606,366.6123305005705 205.55555555555554,369.22634822312335 200.50505050505052,373.6007737021919 195.45454545454544,375.79155750418863 190.40404040404042,378.27533647810895 185.35353535353534,382.12704243766603 180.3030303030303,383.3478416498477 175.25252525252526,385.704574825102 170.2020202020202,388.96188794090017 165.15151515151516,391.7289151868464 160.1010101010101,394.8019614795794 155.05050505050505,397.5148766260938 150,399.9997479250026 "/><text class="poloto_text" alignment-baseline="middle" text-anchor="start" font-size="large" x="675" y="200">direct_par</text><line class="poloto2stroke" stroke="black" x1="680" x2="730" y1="181.25" y2="181.25"/><polyline class="poloto2stroke" fill="none" stroke="black" points="650,266.66072890006234 644.9494949494949,283.90198651902915 639.8989898989898,307.8326423677573 634.8484848484848,302.91356684440757 629.7979797979798,308.7110397085341 624.7474747474747,306.0514804364595 619.6969696969697,307.1203624502362 614.6464646464647,309.0118492053756 609.5959595959596,315.0916460665377 604.5454545454545,317.79296576317387 599.4949494949494,314.7306746703279 594.4444444444445,315.6189029360015 589.3939393939394,317.2378966190021 584.3434343434344,317.4472028918044 579.2929292929293,318.2403988834758 574.2424242424242,320.07079946425665 569.1919191919192,309.47020557556283 564.1414141414141,305.98652911214145 559.090909090909,273.5028005532206 554.040404040404,303.64786131169745 548.989898989899,294.1501795614231 543.939393939394,308.9813481306959 538.8888888888889,307.3907548973971 533.8383838383838,313.83412792974167 528.7878787878788,305.795624314146 523.7373737373737,308.6526423341473 518.6868686868687,307.928094766755 513.6363636363636,310.3875064909312 508.5858585858586,319.30634002228345 503.5353535353535,318.8577305519938 498.4848484848485,317.6699531644655 493.4343434343434,320.7158593824835 488.3838383838384,323.0062128084348 483.3333333333333,321.2582407517885 478.2828282828283,309.8826002712327 473.2323232323232,311.8302997507819 468.1818181818182,313.92395065379856 463.1313131313131,324.12122454672715 458.0808080808081,322.5761728629502 453.030303030303,331.61869119300377 447.979797979798,330.11271113381656 442.9292929292929,331.3421649209073 437.8787878787879,333.49749017327633 432.8282828282828,331.5411361188181 427.77777777777777,330.77869327682373 422.72727272727275,327.1675508897407 417.67676767676767,328.10090057994057 412.62626262626264,329.78745036223177 407.57575757575756,335.0563219569086 402.52525252525254,331.4157708201344 397.47474747474746,326.16714925024496 392.4242424242424,323.1668686067479 387.37373737373736,321.7308813718257 382.32323232323233,321.4155355501369 377.27272727272725,323.4250774290367 372.22222222222223,340.62012129848875 367.1717171717172,335.20865928030906 362.1212121212121,336.4730674670328 357.07070707070704,337.4901060563539 352.020202020202,339.5077983601681 346.969696969697,346.10451701590256 341.9191919191919,338.00299465096856 336.86868686868684,345.50415839720637 331.8181818181818,344.9658942528581 326.7676767676768,339.7417239577119 321.7171717171717,349.76666257745006 316.66666666666663,347.59663295023535 311.6161616161616,355.9154439628878 306.5656565656566,356.57999768091 301.5151515151515,350.98594933964756 296.4646464646464,359.32601867707683 291.4141414141414,360.2429834924487 286.3636363636364,351.00712363942523 281.3131313131313,353.8507816845668 276.26262626262627,355.5615306666039 271.2121212121212,365.6647805855198 266.16161616161617,367.24108956896856 261.1111111111111,369.74940384263124 256.06060606060606,360.9460206600668 251.010101010101,362.6921441667325 245.95959595959596,366.3100085537449 240.9090909090909,372.87916700976876 235.85858585858585,366.96977284681736 230.8080808080808,367.1326973201067 225.75757575757575,370.31161511172803 220.7070707070707,376.3665405731513 215.65656565656565,313.12117581222765 210.6060606060606,372.32636654057313 205.55555555555554,374.6020155916788 200.50505050505052,376.6955824696964 195.45454545454544,378.8746867968158 190.40404040404042,379.0329058701545 185.35353535353534,381.65574621761465 180.3030303030303,385.6522272506516 175.25252525252526,387.0261200112257 170.2020202020202,390.0188384048022 165.15151515151516,392.97466982376596 160.1010101010101,395.7186742199539 155.05050505050505,397.68326272432574 150,399.99983195000175 "/><text class="poloto_text" alignment-baseline="middle" text-anchor="start" font-size="large" x="675" y="250">direct_seq</text><line class="poloto3stroke" stroke="black" x1="680" x2="730" y1="231.25" y2="231.25"/><polyline class="poloto3stroke" fill="none" stroke="black" points="650,121.70844669706133 644.9494949494949,156.33716543345977 639.8989898989898,150.2671994971944 634.8484848484848,172.5719716129943 629.7979797979798,166.98767017162947 624.7474747474747,141.19938964240646 619.6969696969697,145.89823564306855 614.6464646464647,152.7894619207107 609.5959595959596,183.6482310216936 604.5454545454545,159.71942372294606 599.4949494949494,155.34474616888016 594.4444444444445,193.25833822078746 589.3939393939394,171.1616960278022 584.3434343434344,168.15729815934836 579.2929292929293,176.34981959832692 574.2424242424242,179.41353911615784 569.1919191919192,199.31351575720808 564.1414141414141,195.8279907438061 559.090909090909,180.63442235333855 554.040404040404,211.2055738823415 548.989898989899,207.05095780096494 543.939393939394,216.67123202495208 538.8888888888889,207.7630696684878 533.8383838383838,191.68740683728225 528.7878787878788,225.7998759791013 523.7373737373737,201.52026430903726 518.6868686868687,207.0855761006015 513.6363636363636,214.82805964430537 508.5858585858586,235.40981512819695 503.5353535353535,213.75875750553305 498.4848484848485,238.6909073187455 493.4343434343434,237.16971873471797 488.3838383838384,224.2762506700994 483.3333333333333,227.69136273424073 478.2828282828283,234.72408711039708 473.2323232323232,230.7444951021828 468.1818181818182,248.16573426925981 463.1313131313131,237.93896760164085 458.0808080808081,240.00295767996894 453.030303030303,243.98355798817263 447.979797979798,246.8809080077505 442.9292929292929,249.14941493393115 437.8787878787879,250.70303716761813 432.8282828282828,269.0723303997405 427.77777777777777,254.67330240093034 422.72727272727275,267.3317525430166 417.67676767676767,261.0694533837708 412.62626262626264,272.486854288888 407.57575757575756,273.40591972923784 402.52525252525254,268.85151270205915 397.47474747474746,274.54101344231935 392.4242424242424,282.41121498468226 387.37373737373736,278.5332092004013 382.32323232323233,280.5400622793294 377.27272727272725,284.23976701548247 372.22222222222223,285.84607292361625 367.1717171717172,289.6530775836427 362.1212121212121,290.88496809570785 357.07070707070704,300.0473900995024 352.020202020202,296.5027114867215 346.969696969697,300.3414775964145 341.9191919191919,306.4875701818805 336.86868686868684,305.37642359354754 331.8181818181818,309.44373770084076 326.7676767676768,291.30131196633624 321.7171717171717,316.78760664873016 316.66666666666663,319.4826244704325 311.6161616161616,319.33398424699317 306.5656565656566,324.0663562223033 301.5151515151515,321.79667294613495 296.4646464646464,325.4837739324204 291.4141414141414,328.64412219923673 286.3636363636364,331.9675629893406 281.3131313131313,332.33029891053184 276.26262626262627,340.51265332461713 271.2121212121212,340.844384021134 266.16161616161617,341.401049640289 261.1111111111111,345.80118676908756 256.06060606060606,349.87051747635957 251.010101010101,351.05274921394613 245.95959595959596,350.8933537906198 240.9090909090909,356.56361280608206 235.85858585858585,352.557048773151 230.8080808080808,362.9557305889648 225.75757575757575,364.19115015099294 220.7070707070707,365.6520087856539 215.65656565656565,366.7644997739728 210.6060606060606,368.356857532253 205.55555555555554,372.7610278610092 200.50505050505052,374.07820374717886 195.45454545454544,377.0500839409741 190.40404040404042,379.9476860355493 185.35353535353534,383.2893602504617 180.3030303030303,383.9834067431742 175.25252525252526,387.3425581579031 170.2020202020202,389.5090587351549 165.15151515151516,392.40313177976714 160.1010101010101,395.588099371325 155.05050505050505,397.6490645496848 150,399.9991597500088 "/><text class="poloto_text" alignment-baseline="middle" text-anchor="start" font-size="large" x="675" y="300">indirect_par</text><line class="poloto4stroke" stroke="black" x1="680" x2="730" y1="281.25" y2="281.25"/><polyline class="poloto4stroke" fill="none" stroke="black" points="650,259.9498202705269 644.9494949494949,273.0708280327563 639.8989898989898,292.44648867931187 634.8484848484848,291.2367807670138 629.7979797979798,290.7948092716545 624.7474747474747,293.41966621909353 619.6969696969697,294.74045518022524 614.6464646464647,297.27943857856593 609.5959595959596,294.0322924876609 604.5454545454545,298.92389183629916 599.4949494949494,299.7754011773583 594.4444444444445,301.63428623284 589.3939393939394,305.1208195462314 584.3434343434344,303.5192190380482 579.2929292929293,304.57037177701113 574.2424242424242,309.51045355014026 569.1919191919192,287.24626550891423 564.1414141414141,287.99770107602416 559.090909090909,289.9103621309412 554.040404040404,295.6364977708168 548.989898989899,289.2647140377205 543.939393939394,279.1955782684464 538.8888888888889,294.24865686038913 533.8383838383838,294.85951860397506 528.7878787878788,287.9732498012809 523.7373737373737,291.90066228504304 518.6868686868687,288.7393057182373 513.6363636363636,289.92002500583976 508.5858585858586,301.12383436319976 503.5353535353535,295.96125439240683 498.4848484848485,308.73792770825173 493.4343434343434,306.5784012059268 488.3838383838384,311.1596962328232 483.3333333333333,302.3134603007087 478.2828282828283,294.3115915847283 473.2323232323232,301.7383932067469 468.1818181818182,292.5528643281949 463.1313131313131,314.3087851497578 458.0808080808081,317.9987429860132 453.030303030303,321.9741337442716 447.979797979798,319.3404541719252 442.9292929292929,319.4189335211012 437.8787878787879,318.4492850312825 432.8282828282828,321.5919880482841 427.77777777777777,323.65093662666516 422.72727272727275,316.8750766728117 417.67676767676767,316.0697810812673 412.62626262626264,317.14278032000084 407.57575757575756,317.64407346473723 402.52525252525254,309.6944682982081 397.47474747474746,310.39338824086946 392.4242424242424,312.5115744436285 387.37373737373736,320.4146297606464 382.32323232323233,309.8962963460889 377.27272727272725,325.93120705272236 372.22222222222223,328.79486304765396 367.1717171717172,326.5588737961318 362.1212121212121,313.9337815786953 357.07070707070704,329.3263211670736 352.020202020202,324.79560918964614 346.969696969697,321.002384629475 341.9191919191919,336.6735511149277 336.86868686868684,335.32108472912864 331.8181818181818,340.77657584684596 326.7676767676768,340.9600864449191 321.7171717171717,345.0831091266274 316.66666666666663,343.65216339165227 311.6161616161616,336.531716916417 306.5656565656566,345.4598772226713 301.5151515151515,347.03467375613593 296.4646464646464,343.01105264838395 291.4141414141414,353.6001351121986 286.3636363636364,342.87980559976205 281.3131313131313,343.58653986734134 276.26262626262627,348.1600205693198 271.2121212121212,353.88195495923947 266.16161616161617,359.08881610456746 261.1111111111111,359.3671909266445 256.06060606060606,354.6579258260918 251.010101010101,354.5707078770076 245.95959595959596,368.2104019587908 240.9090909090909,360.94568456007033 235.85858585858585,367.4386323418944 230.8080808080808,364.68622544579466 225.75757575757575,365.7753574843588 220.7070707070707,366.6454363502229 215.65656565656565,365.2691908896735 210.6060606060606,369.20828284831305 205.55555555555554,371.51670164907466 200.50505050505052,373.9164556238772 195.45454545454544,375.01104928738397 190.40404040404042,377.86831938238265 185.35353535353534,379.6085611391101 180.3030303030303,381.0316085241681 175.25252525252526,386.6995148396551 170.2020202020202,389.3926000863777 165.15151515151516,391.5275912889603 160.1010101010101,394.8389324791912 155.05050505050505,397.5521837257021 150,399.99983195000175 "/><text class="poloto_text" alignment-baseline="middle" text-anchor="start" font-size="large" x="675" y="350">indirect_seq</text><line class="poloto5stroke" stroke="black" x1="680" x2="730" y1="331.25" y2="331.25"/><polyline class="poloto5stroke" fill="none" stroke="black" points="650,114.13199655161407 644.9494949494949,107.13767160005449 639.8989898989898,100 634.8484848484848,137.24433293393452 629.7979797979798,137.90653395198143 624.7474747474747,109.1218379292207 619.6969696969697,118.82378445235025 614.6464646464647,124.78787888972727 609.5959595959596,120.89903388056013 604.5454545454545,129.24397666793823 599.4949494949494,152.2039757268583 594.4444444444445,136.49365359181667 589.3939393939394,137.199715659403 584.3434343434344,150.55422889418062 579.2929292929293,163.2635141607331 574.2424242424242,151.7300747318342 569.1919191919192,175.35672813375436 564.1414141414141,150.76605591695645 559.090909090909,153.97219780829195 554.040404040404,159.4263445260234 548.989898989899,163.4130786591627 543.939393939394,192.61395050255354 538.8888888888889,195.9264680427721 533.8383838383838,172.37358859007733 528.7878787878788,200.5607828441118 523.7373737373737,180.81700867642144 518.6868686868687,181.67708856739057 513.6363636363636,190.3314954265193 508.5858585858586,193.285142195506 503.5353535353535,195.1362969510689 498.4848484848485,196.8535158580381 493.4343434343434,203.05271224294654 488.3838383838384,202.67510389691142 483.3333333333333,225.32303410910814 478.2828282828283,209.30047507734506 473.2323232323232,221.4241061000469 468.1818181818182,236.0543708964291 463.1313131313131,218.02453866074237 458.0808080808081,224.65831234108774 453.030303030303,232.7326946313067 447.979797979798,228.36373077718085 442.9292929292929,230.81558025143642 437.8787878787879,236.30316891881674 432.8282828282828,238.72628184337407 427.77777777777777,240.26679617719864 422.72727272727275,244.71499560549256 417.67676767676767,250.5838897188692 412.62626262626264,251.69428008221007 407.57575757575756,257.2310233740743 402.52525252525254,254.3998010288021 397.47474747474746,256.8265270283215 392.4242424242424,262.3427682204009 387.37373737373736,266.75248419909894 382.32323232323233,265.5937794612653 377.27272727272725,270.34278838640074 372.22222222222223,272.99201258358386 367.1717171717172,276.7577609690435 362.1212121212121,283.2726392756373 357.07070707070704,282.5438904582892 352.020202020202,284.64804448619554 346.969696969697,288.51311042061235 341.9191919191919,290.7201110474389 336.86868686868684,293.8997010390532 331.8181818181818,301.7054554070927 326.7676767676768,301.846953505607 321.7171717171717,307.1525440248983 316.66666666666663,306.87374907782566 311.6161616161616,310.77864286182427 306.5656565656566,315.54546508677265 301.5151515151515,317.65844173958635 296.4646464646464,320.8002204815977 291.4141414141414,321.63853789779535 286.3636363636364,317.31914879314894 281.3131313131313,327.576668610445 276.26262626262627,323.99854804801527 271.2121212121212,331.884378240214 266.16161616161617,333.83375821974556 261.1111111111111,337.4746454565162 256.06060606060606,342.3462468553644 251.010101010101,344.34696610935686 245.95959595959596,348.0370079706114 240.9090909090909,351.36767491063944 235.85858585858585,354.13352580659796 230.8080808080808,355.92863588774935 225.75757575757575,360.735622062276 220.7070707070707,362.6755912419063 215.65656565656565,363.92689152876767 210.6060606060606,364.6874017957823 205.55555555555554,368.13856058454513 200.50505050505052,371.39125232539186 195.45454545454544,374.0527441724462 190.40404040404042,377.265524038712 185.35353535353534,379.46487839061876 180.3030303030303,382.7226116314126 175.25252525252526,385.97404299727253 170.2020202020202,389.39251606137856 165.15151515151516,391.51490351409353 160.1010101010101,394.58341245687416 155.05050505050505,397.3576658527445 150,400 "/><text class="poloto_text" alignment-baseline="start" text-anchor="middle" font-size="x-large" x="400" y="37.5">Bench of query:8_bytes with abspiral(num,1.5)</text><text class="poloto_text" alignment-baseline="start" text-anchor="middle" font-size="x-large" x="400" y="481.25">Number of Elements</text><text class="poloto_text" alignment-baseline="start" text-anchor="middle" font-size="x-large" transform="rotate(-90,37.5,250)" x="37.5" y="250">Time in Seconds</text><path stroke="black" fill="none" class="poloto_axis_lines" d=" M 150 100 L 150 400 L 650 400"/></svg>