<svg class="poloto" width="800" height="500" viewBox="0 0 800 500" xmlns="http://www.w3.org/2000/svg"><circle  r="1e5" class="poloto_background" /><text  class="poloto_text poloto_legend_text" x="675" y="100" >default_par</text><line  class="poloto_scatter poloto_legend_icon poloto0stroke poloto0legend" stroke="black" x1="685" x2="685" y1="81.25" y2="81.25" /><path  class="poloto_scatter poloto0stroke" d=" M 650.00 321.45 h 0 M 644.95 320.12 h 0 M 639.90 323.75 h 0 M 634.85 317.68 h 0 M 629.80 327.17 h 0 M 624.75 323.37 h 0 M 619.70 337.51 h 0 M 614.65 332.28 h 0 M 609.60 331.82 h 0 M 604.55 328.82 h 0 M 599.49 327.67 h 0 M 594.44 328.23 h 0 M 589.39 329.33 h 0 M 584.34 327.83 h 0 M 579.29 335.54 h 0 M 574.24 335.92 h 0 M 569.19 334.20 h 0 M 564.14 340.19 h 0 M 559.09 340.06 h 0 M 554.04 317.61 h 0 M 548.99 336.52 h 0 M 543.94 343.65 h 0 M 538.89 336.16 h 0 M 533.84 341.80 h 0 M 528.79 341.53 h 0 M 523.74 337.78 h 0 M 518.69 344.48 h 0 M 513.64 343.93 h 0 M 508.59 340.73 h 0 M 503.54 346.42 h 0 M 498.48 344.33 h 0 M 493.43 344.84 h 0 M 488.38 350.07 h 0 M 483.33 345.76 h 0 M 478.28 346.15 h 0 M 473.23 342.24 h 0 M 468.18 352.46 h 0 M 463.13 357.04 h 0 M 458.08 350.43 h 0 M 453.03 350.08 h 0 M 447.98 354.35 h 0 M 442.93 356.85 h 0 M 437.88 354.48 h 0 M 432.83 354.99 h 0 M 427.78 353.74 h 0 M 422.73 358.56 h 0 M 417.68 358.79 h 0 M 412.63 360.41 h 0 M 407.58 349.95 h 0 M 402.53 367.56 h 0 M 397.47 365.62 h 0 M 392.42 364.31 h 0 M 387.37 364.69 h 0 M 382.32 367.17 h 0 M 377.27 365.88 h 0 M 372.22 365.60 h 0 M 367.17 368.97 h 0 M 362.12 370.28 h 0 M 357.07 368.18 h 0 M 352.02 367.22 h 0 M 346.97 362.33 h 0 M 341.92 372.04 h 0 M 336.87 371.91 h 0 M 331.82 371.75 h 0 M 326.77 372.44 h 0 M 321.72 370.58 h 0 M 316.67 374.49 h 0 M 311.62 372.83 h 0 M 306.57 368.13 h 0 M 301.52 358.98 h 0 M 296.46 357.45 h 0 M 291.41 363.67 h 0 M 286.36 375.43 h 0 M 281.31 382.00 h 0 M 276.26 379.89 h 0 M 271.21 380.81 h 0 M 266.16 382.52 h 0 M 261.11 381.79 h 0 M 256.06 377.22 h 0 M 251.01 383.82 h 0 M 245.96 385.84 h 0 M 240.91 385.86 h 0 M 235.86 386.20 h 0 M 230.81 388.40 h 0 M 225.76 387.54 h 0 M 220.71 390.52 h 0 M 215.66 384.18 h 0 M 210.61 384.73 h 0 M 205.56 387.30 h 0 M 200.51 385.73 h 0 M 195.45 386.27 h 0 M 190.40 387.16 h 0 M 185.35 387.87 h 0 M 180.30 393.49 h 0 M 175.25 394.84 h 0 M 170.20 395.59 h 0 M 165.15 397.16 h 0 M 160.10 398.21 h 0 M 155.05 399.17 h 0 M 150.00 400.00 h 0" /><text  class="poloto_text poloto_legend_text" x="675" y="150" >default_seq</text><line  class="poloto_scatter poloto_legend_icon poloto1stroke poloto1legend" stroke="black" x1="685" x2="685" y1="131.25" y2="131.25" /><path  class="poloto_scatter poloto1stroke" d=" M 650.00 233.63 h 0 M 644.95 233.79 h 0 M 639.90 231.29 h 0 M 634.85 239.94 h 0 M 629.80 239.82 h 0 M 624.75 240.05 h 0 M 619.70 245.89 h 0 M 614.65 246.64 h 0 M 609.60 249.59 h 0 M 604.55 248.94 h 0 M 599.49 253.38 h 0 M 594.44 248.85 h 0 M 589.39 252.75 h 0 M 584.34 252.41 h 0 M 579.29 257.94 h 0 M 574.24 261.44 h 0 M 569.19 262.07 h 0 M 564.14 259.98 h 0 M 559.09 266.14 h 0 M 554.04 266.48 h 0 M 548.99 267.24 h 0 M 543.94 271.60 h 0 M 538.89 272.61 h 0 M 533.84 273.47 h 0 M 528.79 276.48 h 0 M 523.74 275.53 h 0 M 518.69 261.65 h 0 M 513.64 277.36 h 0 M 508.59 278.60 h 0 M 503.54 282.79 h 0 M 498.48 282.73 h 0 M 493.43 285.66 h 0 M 488.38 290.37 h 0 M 483.33 286.06 h 0 M 478.28 283.91 h 0 M 473.23 292.98 h 0 M 468.18 293.70 h 0 M 463.13 296.66 h 0 M 458.08 293.32 h 0 M 453.03 298.48 h 0 M 447.98 298.66 h 0 M 442.93 302.96 h 0 M 437.88 307.02 h 0 M 432.83 304.85 h 0 M 427.78 309.64 h 0 M 422.73 314.29 h 0 M 417.68 317.32 h 0 M 412.63 318.73 h 0 M 407.58 321.39 h 0 M 402.53 306.13 h 0 M 397.47 323.40 h 0 M 392.42 322.99 h 0 M 387.37 328.52 h 0 M 382.32 326.28 h 0 M 377.27 330.64 h 0 M 372.22 330.70 h 0 M 367.17 334.88 h 0 M 362.12 334.98 h 0 M 357.07 336.92 h 0 M 352.02 337.25 h 0 M 346.97 341.98 h 0 M 341.92 341.20 h 0 M 336.87 342.31 h 0 M 331.82 345.79 h 0 M 326.77 345.64 h 0 M 321.72 348.99 h 0 M 316.67 350.71 h 0 M 311.62 350.45 h 0 M 306.57 349.17 h 0 M 301.52 354.41 h 0 M 296.46 356.30 h 0 M 291.41 357.35 h 0 M 286.36 361.95 h 0 M 281.31 363.28 h 0 M 276.26 365.21 h 0 M 271.21 367.17 h 0 M 266.16 368.31 h 0 M 261.11 370.26 h 0 M 256.06 368.49 h 0 M 251.01 372.50 h 0 M 245.96 372.72 h 0 M 240.91 375.32 h 0 M 235.86 375.95 h 0 M 230.81 377.81 h 0 M 225.76 380.57 h 0 M 220.71 380.72 h 0 M 215.66 383.52 h 0 M 210.61 384.22 h 0 M 205.56 386.24 h 0 M 200.51 386.75 h 0 M 195.45 387.64 h 0 M 190.40 390.06 h 0 M 185.35 391.18 h 0 M 180.30 393.13 h 0 M 175.25 394.28 h 0 M 170.20 395.33 h 0 M 165.15 396.51 h 0 M 160.10 398.10 h 0 M 155.05 399.07 h 0 M 150.00 399.99 h 0" /><text  class="poloto_text poloto_legend_text" x="675" y="200" >direct_par</text><line  class="poloto_scatter poloto_legend_icon poloto2stroke poloto2legend" stroke="black" x1="685" x2="685" y1="181.25" y2="181.25" /><path  class="poloto_scatter poloto2stroke" d=" M 650.00 297.58 h 0 M 644.95 300.59 h 0 M 639.90 304.81 h 0 M 634.85 300.96 h 0 M 629.80 305.34 h 0 M 624.75 305.94 h 0 M 619.70 324.07 h 0 M 614.65 318.56 h 0 M 609.60 318.64 h 0 M 604.55 163.33 h 0 M 599.49 320.17 h 0 M 594.44 317.11 h 0 M 589.39 301.87 h 0 M 584.34 318.51 h 0 M 579.29 310.25 h 0 M 574.24 318.16 h 0 M 569.19 324.21 h 0 M 564.14 323.45 h 0 M 559.09 332.39 h 0 M 554.04 328.38 h 0 M 548.99 333.19 h 0 M 543.94 325.61 h 0 M 538.89 326.22 h 0 M 533.84 334.58 h 0 M 528.79 328.51 h 0 M 523.74 327.36 h 0 M 518.69 303.48 h 0 M 513.64 326.44 h 0 M 508.59 326.18 h 0 M 503.54 334.27 h 0 M 498.48 337.90 h 0 M 493.43 336.83 h 0 M 488.38 343.61 h 0 M 483.33 306.94 h 0 M 478.28 337.26 h 0 M 473.23 336.97 h 0 M 468.18 340.34 h 0 M 463.13 342.37 h 0 M 458.08 347.68 h 0 M 453.03 344.86 h 0 M 447.98 312.28 h 0 M 442.93 348.49 h 0 M 437.88 350.46 h 0 M 432.83 352.79 h 0 M 427.78 351.85 h 0 M 422.73 355.25 h 0 M 417.68 357.19 h 0 M 412.63 356.55 h 0 M 407.58 358.36 h 0 M 402.53 356.47 h 0 M 397.47 357.21 h 0 M 392.42 357.66 h 0 M 387.37 358.47 h 0 M 382.32 351.66 h 0 M 377.27 357.32 h 0 M 372.22 358.29 h 0 M 367.17 360.87 h 0 M 362.12 360.53 h 0 M 357.07 361.13 h 0 M 352.02 356.88 h 0 M 346.97 364.17 h 0 M 341.92 366.64 h 0 M 336.87 366.78 h 0 M 331.82 367.03 h 0 M 326.77 365.75 h 0 M 321.72 365.16 h 0 M 316.67 366.06 h 0 M 311.62 366.61 h 0 M 306.57 368.34 h 0 M 301.52 367.48 h 0 M 296.46 352.36 h 0 M 291.41 370.54 h 0 M 286.36 367.50 h 0 M 281.31 376.62 h 0 M 276.26 365.29 h 0 M 271.21 375.50 h 0 M 266.16 376.61 h 0 M 261.11 378.21 h 0 M 256.06 365.51 h 0 M 251.01 375.35 h 0 M 245.96 381.42 h 0 M 240.91 379.73 h 0 M 235.86 383.40 h 0 M 230.81 385.55 h 0 M 225.76 385.48 h 0 M 220.71 383.87 h 0 M 215.66 386.03 h 0 M 210.61 383.55 h 0 M 205.56 383.17 h 0 M 200.51 383.81 h 0 M 195.45 384.81 h 0 M 190.40 384.83 h 0 M 185.35 386.60 h 0 M 180.30 392.60 h 0 M 175.25 394.09 h 0 M 170.20 395.14 h 0 M 165.15 396.86 h 0 M 160.10 398.05 h 0 M 155.05 399.13 h 0 M 150.00 399.99 h 0" /><text  class="poloto_text poloto_legend_text" x="675" y="250" >direct_seq</text><line  class="poloto_scatter poloto_legend_icon poloto3stroke poloto3legend" stroke="black" x1="685" x2="685" y1="231.25" y2="231.25" /><path  class="poloto_scatter poloto3stroke" d=" M 650.00 197.95 h 0 M 644.95 205.89 h 0 M 639.90 203.88 h 0 M 634.85 212.90 h 0 M 629.80 212.13 h 0 M 624.75 212.41 h 0 M 619.70 217.46 h 0 M 614.65 218.12 h 0 M 609.60 222.07 h 0 M 604.55 221.04 h 0 M 599.49 227.51 h 0 M 594.44 223.42 h 0 M 589.39 230.47 h 0 M 584.34 223.64 h 0 M 579.29 235.89 h 0 M 574.24 233.35 h 0 M 569.19 236.19 h 0 M 564.14 233.29 h 0 M 559.09 243.34 h 0 M 554.04 246.03 h 0 M 548.99 243.45 h 0 M 543.94 249.39 h 0 M 538.89 252.07 h 0 M 533.84 250.11 h 0 M 528.79 253.99 h 0 M 523.74 253.92 h 0 M 518.69 256.95 h 0 M 513.64 256.44 h 0 M 508.59 258.66 h 0 M 503.54 265.18 h 0 M 498.48 262.17 h 0 M 493.43 268.63 h 0 M 488.38 271.15 h 0 M 483.33 268.80 h 0 M 478.28 274.84 h 0 M 473.23 276.84 h 0 M 468.18 275.96 h 0 M 463.13 280.25 h 0 M 458.08 277.36 h 0 M 453.03 284.24 h 0 M 447.98 285.74 h 0 M 442.93 288.68 h 0 M 437.88 289.25 h 0 M 432.83 290.87 h 0 M 427.78 293.89 h 0 M 422.73 300.65 h 0 M 417.68 304.35 h 0 M 412.63 306.60 h 0 M 407.58 307.72 h 0 M 402.53 309.53 h 0 M 397.47 311.99 h 0 M 392.42 311.41 h 0 M 387.37 314.40 h 0 M 382.32 315.29 h 0 M 377.27 320.17 h 0 M 372.22 319.07 h 0 M 367.17 323.03 h 0 M 362.12 323.52 h 0 M 357.07 326.00 h 0 M 352.02 328.89 h 0 M 346.97 331.83 h 0 M 341.92 330.48 h 0 M 336.87 332.10 h 0 M 331.82 336.33 h 0 M 326.77 337.63 h 0 M 321.72 339.08 h 0 M 316.67 342.81 h 0 M 311.62 343.95 h 0 M 306.57 344.69 h 0 M 301.52 346.88 h 0 M 296.46 346.07 h 0 M 291.41 350.13 h 0 M 286.36 351.35 h 0 M 281.31 357.00 h 0 M 276.26 360.76 h 0 M 271.21 360.83 h 0 M 266.16 362.63 h 0 M 261.11 366.71 h 0 M 256.06 365.02 h 0 M 251.01 367.43 h 0 M 245.96 369.30 h 0 M 240.91 370.12 h 0 M 235.86 371.68 h 0 M 230.81 374.66 h 0 M 225.76 377.23 h 0 M 220.71 377.50 h 0 M 215.66 381.53 h 0 M 210.61 383.12 h 0 M 205.56 384.29 h 0 M 200.51 385.20 h 0 M 195.45 386.14 h 0 M 190.40 388.02 h 0 M 185.35 390.01 h 0 M 180.30 391.53 h 0 M 175.25 393.55 h 0 M 170.20 394.74 h 0 M 165.15 396.54 h 0 M 160.10 397.91 h 0 M 155.05 399.01 h 0 M 150.00 399.97 h 0" /><text  class="poloto_text poloto_legend_text" x="675" y="300" >indirect_par</text><line  class="poloto_scatter poloto_legend_icon poloto4stroke poloto4legend" stroke="black" x1="685" x2="685" y1="281.25" y2="281.25" /><path  class="poloto_scatter poloto4stroke" d=" M 650.00 230.89 h 0 M 644.95 241.34 h 0 M 639.90 247.77 h 0 M 634.85 245.67 h 0 M 629.80 254.22 h 0 M 624.75 246.43 h 0 M 619.70 270.68 h 0 M 614.65 268.57 h 0 M 609.60 246.25 h 0 M 604.55 265.45 h 0 M 599.49 262.01 h 0 M 594.44 253.20 h 0 M 589.39 265.86 h 0 M 584.34 245.07 h 0 M 579.29 274.92 h 0 M 574.24 266.28 h 0 M 569.19 287.35 h 0 M 564.14 270.31 h 0 M 559.09 272.46 h 0 M 554.04 267.00 h 0 M 548.99 288.74 h 0 M 543.94 285.86 h 0 M 538.89 281.19 h 0 M 533.84 294.34 h 0 M 528.79 285.52 h 0 M 523.74 276.23 h 0 M 518.69 287.64 h 0 M 513.64 295.83 h 0 M 508.59 289.13 h 0 M 503.54 302.47 h 0 M 498.48 303.22 h 0 M 493.43 298.85 h 0 M 488.38 303.06 h 0 M 483.33 304.54 h 0 M 478.28 310.41 h 0 M 473.23 293.62 h 0 M 468.18 307.05 h 0 M 463.13 315.39 h 0 M 458.08 312.35 h 0 M 453.03 323.66 h 0 M 447.98 329.49 h 0 M 442.93 314.08 h 0 M 437.88 315.96 h 0 M 432.83 319.87 h 0 M 427.78 325.63 h 0 M 422.73 325.22 h 0 M 417.68 331.29 h 0 M 412.63 324.94 h 0 M 407.58 336.62 h 0 M 402.53 337.70 h 0 M 397.47 336.15 h 0 M 392.42 336.07 h 0 M 387.37 342.28 h 0 M 382.32 342.29 h 0 M 377.27 343.19 h 0 M 372.22 341.60 h 0 M 367.17 337.47 h 0 M 362.12 350.51 h 0 M 357.07 347.76 h 0 M 352.02 346.13 h 0 M 346.97 341.54 h 0 M 341.92 355.91 h 0 M 336.87 351.25 h 0 M 331.82 354.87 h 0 M 326.77 357.09 h 0 M 321.72 348.83 h 0 M 316.67 355.84 h 0 M 311.62 361.83 h 0 M 306.57 358.60 h 0 M 301.52 342.06 h 0 M 296.46 367.33 h 0 M 291.41 338.86 h 0 M 286.36 360.42 h 0 M 281.31 365.07 h 0 M 276.26 370.87 h 0 M 271.21 372.84 h 0 M 266.16 370.81 h 0 M 261.11 374.73 h 0 M 256.06 371.53 h 0 M 251.01 370.58 h 0 M 245.96 378.36 h 0 M 240.91 380.10 h 0 M 235.86 380.02 h 0 M 230.81 382.36 h 0 M 225.76 382.67 h 0 M 220.71 384.21 h 0 M 215.66 382.26 h 0 M 210.61 379.69 h 0 M 205.56 383.31 h 0 M 200.51 382.49 h 0 M 195.45 383.69 h 0 M 190.40 384.42 h 0 M 185.35 385.37 h 0 M 180.30 390.86 h 0 M 175.25 392.58 h 0 M 170.20 394.70 h 0 M 165.15 396.66 h 0 M 160.10 398.05 h 0 M 155.05 399.09 h 0 M 150.00 399.99 h 0" /><text  class="poloto_text poloto_legend_text" x="675" y="350" >indirect_seq</text><line  class="poloto_scatter poloto_legend_icon poloto5stroke poloto5legend" stroke="black" x1="685" x2="685" y1="331.25" y2="331.25" /><path  class="poloto_scatter poloto5stroke" d=" M 650.00 102.07 h 0 M 644.95 110.07 h 0 M 639.90 100.00 h 0 M 634.85 122.38 h 0 M 629.80 111.67 h 0 M 624.75 116.79 h 0 M 619.70 121.02 h 0 M 614.65 130.45 h 0 M 609.60 133.42 h 0 M 604.55 131.29 h 0 M 599.49 130.94 h 0 M 594.44 137.98 h 0 M 589.39 146.39 h 0 M 584.34 108.65 h 0 M 579.29 161.17 h 0 M 574.24 160.98 h 0 M 569.19 160.25 h 0 M 564.14 157.33 h 0 M 559.09 164.01 h 0 M 554.04 166.45 h 0 M 548.99 170.85 h 0 M 543.94 181.00 h 0 M 538.89 188.87 h 0 M 533.84 185.62 h 0 M 528.79 187.41 h 0 M 523.74 189.78 h 0 M 518.69 196.33 h 0 M 513.64 195.15 h 0 M 508.59 193.82 h 0 M 503.54 208.20 h 0 M 498.48 203.31 h 0 M 493.43 214.59 h 0 M 488.38 218.89 h 0 M 483.33 216.92 h 0 M 478.28 228.03 h 0 M 473.23 228.03 h 0 M 468.18 222.49 h 0 M 463.13 233.09 h 0 M 458.08 227.24 h 0 M 453.03 239.43 h 0 M 447.98 243.97 h 0 M 442.93 241.88 h 0 M 437.88 247.72 h 0 M 432.83 248.32 h 0 M 427.78 250.10 h 0 M 422.73 261.31 h 0 M 417.68 265.21 h 0 M 412.63 268.27 h 0 M 407.58 269.98 h 0 M 402.53 275.61 h 0 M 397.47 280.71 h 0 M 392.42 277.80 h 0 M 387.37 283.91 h 0 M 382.32 286.84 h 0 M 377.27 291.02 h 0 M 372.22 290.81 h 0 M 367.17 297.33 h 0 M 362.12 297.45 h 0 M 357.07 299.72 h 0 M 352.02 300.81 h 0 M 346.97 308.87 h 0 M 341.92 308.38 h 0 M 336.87 309.55 h 0 M 331.82 317.07 h 0 M 326.77 316.76 h 0 M 321.72 322.26 h 0 M 316.67 324.74 h 0 M 311.62 326.86 h 0 M 306.57 327.55 h 0 M 301.52 330.69 h 0 M 296.46 330.97 h 0 M 291.41 333.48 h 0 M 286.36 330.35 h 0 M 281.31 344.86 h 0 M 276.26 346.15 h 0 M 271.21 348.70 h 0 M 266.16 351.62 h 0 M 261.11 356.96 h 0 M 256.06 356.16 h 0 M 251.01 359.46 h 0 M 245.96 360.25 h 0 M 240.91 364.42 h 0 M 235.86 365.30 h 0 M 230.81 368.84 h 0 M 225.76 371.55 h 0 M 220.71 371.92 h 0 M 215.66 375.83 h 0 M 210.61 379.49 h 0 M 205.56 380.61 h 0 M 200.51 381.36 h 0 M 195.45 383.25 h 0 M 190.40 386.70 h 0 M 185.35 388.40 h 0 M 180.30 390.81 h 0 M 175.25 392.51 h 0 M 170.20 394.26 h 0 M 165.15 396.24 h 0 M 160.10 397.83 h 0 M 155.05 398.97 h 0 M 150.00 399.99 h 0" /><text  class="poloto_labels poloto_text poloto_title" x="400" y="37.5" >Bench of rebal:32_bytes with abspiral(num,1.5)</text><text  class="poloto_labels poloto_text poloto_xname" x="400" y="481.25" >Number of Elements</text><text  class="poloto_labels poloto_text poloto_yname" transform="rotate(-90,37.5,250)" x="37.5" y="250" >Time in Seconds</text><text  class="poloto_tick_labels poloto_text" dominant-baseline="middle" text-anchor="start" x="150" y="70" ></text><line  class="poloto_axis_lines" stroke="black" x1="150" x2="144" y1="400" y2="400" /><text  class="poloto_tick_labels poloto_text" dominant-baseline="middle" text-anchor="end" x="135" y="400" >0e0</text><line  class="poloto_axis_lines" stroke="black" x1="150" x2="144" y1="335.16325675825794" y2="335.16325675825794" /><text  class="poloto_tick_labels poloto_text" dominant-baseline="middle" text-anchor="end" x="135" y="335.16325675825794" >0.001</text><line  class="poloto_axis_lines" stroke="black" x1="150" x2="144" y1="270.3265135165159" y2="270.3265135165159" /><text  class="poloto_tick_labels poloto_text" dominant-baseline="middle" text-anchor="end" x="135" y="270.3265135165159" >0.002</text><line  class="poloto_axis_lines" stroke="black" x1="150" x2="144" y1="205.48977027477383" y2="205.48977027477383" /><text  class="poloto_tick_labels poloto_text" dominant-baseline="middle" text-anchor="end" x="135" y="205.48977027477383" >0.003</text><line  class="poloto_axis_lines" stroke="black" x1="150" x2="144" y1="140.65302703303172" y2="140.65302703303172" /><text  class="poloto_tick_labels poloto_text" dominant-baseline="middle" text-anchor="end" x="135" y="140.65302703303172" >0.004</text><text  class="poloto_tick_labels poloto_text" dominant-baseline="middle" text-anchor="start" x="440.00000000000006" y="70" ></text><line  class="poloto_axis_lines" stroke="black" x1="150" x2="150" y1="400" y2="405" /><text  class="poloto_tick_labels poloto_text" dominant-baseline="start" text-anchor="middle" x="150" y="430" >0</text><line  class="poloto_axis_lines" stroke="black" x1="234.17508417508418" x2="234.17508417508418" y1="400" y2="405" /><text  class="poloto_tick_labels poloto_text" dominant-baseline="start" text-anchor="middle" x="234.17508417508418" y="430" >5000</text><line  class="poloto_axis_lines" stroke="black" x1="318.35016835016836" x2="318.35016835016836" y1="400" y2="405" /><text  class="poloto_tick_labels poloto_text" dominant-baseline="start" text-anchor="middle" x="318.35016835016836" y="430" >10000</text><line  class="poloto_axis_lines" stroke="black" x1="402.52525252525254" x2="402.52525252525254" y1="400" y2="405" /><text  class="poloto_tick_labels poloto_text" dominant-baseline="start" text-anchor="middle" x="402.52525252525254" y="430" >15000</text><line  class="poloto_axis_lines" stroke="black" x1="486.7003367003367" x2="486.7003367003367" y1="400" y2="405" /><text  class="poloto_tick_labels poloto_text" dominant-baseline="start" text-anchor="middle" x="486.7003367003367" y="430" >20000</text><line  class="poloto_axis_lines" stroke="black" x1="570.8754208754208" x2="570.8754208754208" y1="400" y2="405" /><text  class="poloto_tick_labels poloto_text" dominant-baseline="start" text-anchor="middle" x="570.8754208754208" y="430" >25000</text><path  stroke="black" fill="none" class="poloto_axis_lines" style="stroke-dasharray:8.417508417508419;stroke-dashoffset:-0;" d=" M 150 400 L 650 400" /><path  stroke="black" fill="none" class="poloto_axis_lines" style="stroke-dasharray:6.483674324174207;stroke-dashoffset:-0;" d=" M 150 400 L 150 100" /></svg>