<svg class="poloto" width="800" height="500" viewBox="0 0 800 500" xmlns="http://www.w3.org/2000/svg"><style>.poloto {
            font-family: "Arial";
            stroke-width:2;
            }
            .poloto_text{fill: var(--poloto_fg_color,black);  }
            .poloto_axis_lines{stroke: var(--poloto_fg_color,black);stoke-width:3;fill:none}
            .poloto_background{fill: var(--poloto_bg_color,aliceblue); }
            .poloto0stroke{stroke:  var(--poloto_color0,blue); }
            .poloto1stroke{stroke:  var(--poloto_color1,red); }
            .poloto2stroke{stroke:  var(--poloto_color2,green); }
            .poloto3stroke{stroke:  var(--poloto_color3,gold); }
            .poloto4stroke{stroke:  var(--poloto_color4,aqua); }
            .poloto5stroke{stroke:  var(--poloto_color5,brown); }
            .poloto6stroke{stroke:  var(--poloto_color6,lime); }
            .poloto7stroke{stroke:  var(--poloto_color7,chocolate); }
            .poloto0fill{fill:var(--poloto_color0,blue);}
            .poloto1fill{fill:var(--poloto_color1,red);}
            .poloto2fill{fill:var(--poloto_color2,green);}
            .poloto3fill{fill:var(--poloto_color3,gold);}
            .poloto4fill{fill:var(--poloto_color4,aqua);}
            .poloto5fill{fill:var(--poloto_color5,brown);}
            .poloto6fill{fill:var(--poloto_color6,lime);}
            .poloto7fill{fill:var(--poloto_color7,chocolate);}</style><rect class="poloto_background" fill="white" x="0" y="0" width="800" height="500"/><line class="poloto_axis_lines" stroke="black" x1="150" x2="150" y1="400" y2="405"/><text class="poloto_text" alignment-baseline="start" text-anchor="middle" x="150" y="430">0</text><line class="poloto_axis_lines" stroke="black" x1="234.17508417508418" x2="234.17508417508418" y1="400" y2="405"/><text class="poloto_text" alignment-baseline="start" text-anchor="middle" x="234.17508417508418" y="430">5000</text><line class="poloto_axis_lines" stroke="black" x1="318.35016835016836" x2="318.35016835016836" y1="400" y2="405"/><text class="poloto_text" alignment-baseline="start" text-anchor="middle" x="318.35016835016836" y="430">10000</text><line class="poloto_axis_lines" stroke="black" x1="402.52525252525254" x2="402.52525252525254" y1="400" y2="405"/><text class="poloto_text" alignment-baseline="start" text-anchor="middle" x="402.52525252525254" y="430">15000</text><line class="poloto_axis_lines" stroke="black" x1="486.7003367003367" x2="486.7003367003367" y1="400" y2="405"/><text class="poloto_text" alignment-baseline="start" text-anchor="middle" x="486.7003367003367" y="430">20000</text><line class="poloto_axis_lines" stroke="black" x1="570.8754208754208" x2="570.8754208754208" y1="400" y2="405"/><text class="poloto_text" alignment-baseline="start" text-anchor="middle" x="570.8754208754208" y="430">25000</text><line class="poloto_axis_lines" stroke="black" x1="150" x2="144" y1="338.34686247057886" y2="338.34686247057886"/><text class="poloto_text" alignment-baseline="middle" text-anchor="end" x="135" y="338.34686247057886">0.002</text><line class="poloto_axis_lines" stroke="black" x1="150" x2="144" y1="276.68885395848525" y2="276.68885395848525"/><text class="poloto_text" alignment-baseline="middle" text-anchor="end" x="135" y="276.68885395848525">0.004</text><line class="poloto_axis_lines" stroke="black" x1="150" x2="144" y1="215.03084544639165" y2="215.03084544639165"/><text class="poloto_text" alignment-baseline="middle" text-anchor="end" x="135" y="215.03084544639165">0.006</text><line class="poloto_axis_lines" stroke="black" x1="150" x2="144" y1="153.37283693429802" y2="153.37283693429802"/><text class="poloto_text" alignment-baseline="middle" text-anchor="end" x="135" y="153.37283693429802">0.008</text><text class="poloto_text" alignment-baseline="middle" text-anchor="start" font-size="large" x="675" y="100">default_par</text><line class="poloto0stroke" stroke="black" x1="680" x2="730" y1="81.25" y2="81.25"/><polyline class="poloto0stroke" fill="none" stroke="black" points="650,354.7748064555113 644.9494949494949,362.4594906884075 639.8989898989898,359.8784864520913 634.8484848484848,360.91452596912 629.7979797979798,364.93983822582777 624.7474747474747,315.849797391784 619.6969696969697,363.56372396285064 614.6464646464647,367.32381429594363 609.5959595959596,364.71740696012046 604.5454545454545,366.9629608011266 599.4949494949494,367.6804442171776 594.4444444444445,365.0610886995668 589.3939393939394,365.3673440278464 584.3434343434344,363.3707343962078 579.2929292929293,363.58761644114907 574.2424242424242,368.3103116031329 569.1919191919192,369.35227028897873 564.1414141414141,366.4175648868329 559.090909090909,365.373078222638 554.040404040404,370.4817216889033 548.989898989899,368.47903874342626 543.939393939394,370.9258443242159 538.8888888888889,368.29320150577075 533.8383838383838,372.84871097767405 528.7878787878788,372.79651747346855 523.7373737373737,370.85330367720144 518.6868686868687,371.33815142713627 513.6363636363636,373.415687194947 508.5858585858586,371.1641216981109 503.5353535353535,374.5688460991444 498.4848484848485,373.9082730249501 493.4343434343434,373.6964161077026 488.3838383838384,375.1388743878387 483.3333333333333,376.613610635431 478.2828282828283,376.80148258736733 473.2323232323232,374.0133999294632 468.1818181818182,374.01025537102913 463.1313131313131,376.7989854380226 458.0808080808081,374.5319129520457 453.030303030303,376.0397287212047 447.979797979798,377.1314454199198 442.9292929292929,375.70967340163946 437.8787878787879,377.4681289754001 432.8282828282828,374.09210637732895 427.77777777777777,379.15099183072493 422.72727272727275,379.8497928701967 417.67676767676767,380.3346097911273 412.62626262626264,380.2163805598054 407.57575757575756,379.534011379602 402.52525252525254,377.04469260194327 397.47474747474746,381.87171311432957 392.4242424242424,381.118036447282 387.37373737373736,376.56662723294477 382.32323232323233,382.82815214236916 377.27272727272725,381.8812392766447 372.22222222222223,381.7815074478764 367.1717171717172,383.6653137529421 362.1212121212121,382.28691814365 357.07070707070704,384.3285689505067 352.020202020202,379.6363945027364 346.969696969697,385.63994230454614 341.9191919191919,386.244468249003 336.86868686868684,382.1549083474256 331.8181818181818,384.28947777311004 326.7676767676768,385.23648312584726 321.7171717171717,383.4704744460439 316.66666666666663,385.89384998359895 311.6161616161616,385.2933318096954 306.5656565656566,385.9268678471572 301.5151515151515,384.6558496596889 296.4646464646464,386.85728719560467 291.4141414141414,388.8190908814382 286.3636363636364,389.601808470495 281.3131313131313,387.7967086132949 276.26262626262627,388.078578199208 271.2121212121212,390.3517856570318 266.16161616161617,390.49187265237134 261.1111111111111,388.47531665497905 256.06060606060606,390.24967999493583 251.010101010101,387.7643689878304 245.95959595959596,390.4308620529486 240.9090909090909,392.1529702306914 235.85858585858585,391.36007907023014 230.8080808080808,393.3754943944649 225.75757575757575,391.9558495774782 220.7070707070707,390.6923844960526 215.65656565656565,388.31645479604765 210.6060606060606,388.3288172267543 205.55555555555554,389.9052891883915 200.50505050505052,393.68837795865954 195.45454545454544,389.41427563760544 190.40404040404042,389.9611205150992 185.35353535353534,391.6635289591224 180.3030303030303,395.5824811511468 175.25252525252526,396.33970315368384 170.2020202020202,396.94487650723 165.15151515151516,398.01421134885527 160.1010101010101,398.58158834318357 155.05050505050505,399.3723214733469 150,399.99941424891915 "/><text class="poloto_text" alignment-baseline="middle" text-anchor="start" font-size="large" x="675" y="150">default_seq</text><line class="poloto1stroke" stroke="black" x1="680" x2="730" y1="131.25" y2="131.25"/><polyline class="poloto1stroke" fill="none" stroke="black" points="650,304.80336438978713 644.9494949494949,306.10123463996246 639.8989898989898,306.6020518141019 634.8484848484848,306.1617519753171 629.7979797979798,307.6244340822452 624.7474747474747,308.69629690221944 619.6969696969697,310.97415953968596 614.6464646464647,311.99456875155687 609.5959595959596,311.59644299059426 604.5454545454545,313.00073496346147 599.4949494949494,315.2837152156345 594.4444444444445,314.14985526810136 589.3939393939394,316.9480806684057 584.3434343434344,316.90757135681326 579.2929292929293,318.8073470860836 574.2424242424242,318.63673937653067 569.1919191919192,317.73138400854333 564.1414141414141,319.73514596916937 559.090909090909,321.6853887784069 554.040404040404,321.28772545250814 548.989898989899,323.5969103582988 543.939393939394,324.6942687647928 538.8888888888889,325.86429113431825 533.8383838383838,326.20988427202855 528.7878787878788,326.9911837268895 523.7373737373737,329.1377456352296 518.6868686868687,329.3738958078309 513.6363636363636,331.07334466744544 508.5858585858586,330.43999360400926 503.5353535353535,331.75417239743604 498.4848484848485,332.97959448760963 493.4343434343434,333.1337086798856 488.3838383838384,334.66902392084097 483.3333333333333,336.588499383831 478.2828282828283,336.23772697340564 473.2323232323232,338.45202020409624 468.1818181818182,339.23196318276996 463.1313131313131,339.76524329839106 458.0808080808081,340.24555918470026 453.030303030303,341.53011130503694 447.979797979798,342.3395576407837 442.9292929292929,343.7507244816 437.8787878787879,343.67426855104503 432.8282828282828,345.367983215868 427.77777777777777,346.2059463805516 422.72727272727275,351.5797809414274 417.67676767676767,351.5669869046611 412.62626262626264,353.9077098818057 407.57575757575756,353.338236515188 402.52525252525254,355.0076579246572 397.47474747474746,355.3146223200347 392.4242424242424,355.51914193426927 387.37373737373736,358.08454669443194 382.32323232323233,358.9534621793886 377.27272727272725,359.5247544572574 372.22222222222223,359.60497152633167 367.1717171717172,361.6962262010363 362.1212121212121,362.54017019254565 357.07070707070704,362.28700240959495 352.020202020202,363.45113643930756 346.969696969697,364.57112333492546 341.9191919191919,364.94353770633853 336.86868686868684,366.5575593951596 331.8181818181818,366.4522783456252 326.7676767676768,367.6492452648705 321.7171717171717,368.28355202743865 316.66666666666663,369.05023853428224 311.6161616161616,371.1566610790809 306.5656565656566,371.6501717792117 301.5151515151515,372.2101189835143 296.4646464646464,373.2140346781082 291.4141414141414,374.27227107820124 286.3636363636364,377.2029687097938 281.3131313131313,378.1117152682493 276.26262626262627,378.93725434421776 271.2121212121212,379.49655413943094 266.16161616161617,380.44288125407456 261.1111111111111,380.8295386254539 256.06060606060606,380.22081993641825 251.010101010101,382.7558581273887 245.95959595959596,383.73976579822045 240.9090909090909,384.80537033033073 235.85858585858585,385.26231783141384 230.8080808080808,386.3598920409376 225.75757575757575,386.8285853926423 220.7070707070707,387.7046532065864 215.65656565656565,389.5676499337793 210.6060606060606,390.4759648861752 205.55555555555554,391.1564843261232 200.50505050505052,391.8347840777647 195.45454545454544,392.6420723832136 190.40404040404042,393.27930790118603 185.35353535353534,393.97607422637697 180.3030303030303,395.36982267978857 175.25252525252526,396.0566928946133 170.2020202020202,396.8372832823764 165.15151515151516,397.8742784985371 160.1010101010101,398.5205160857523 155.05050505050505,399.31541113149024 150,400 "/><text class="poloto_text" alignment-baseline="middle" text-anchor="start" font-size="large" x="675" y="200">direct_par</text><line class="poloto2stroke" stroke="black" x1="680" x2="730" y1="181.25" y2="181.25"/><polyline class="poloto2stroke" fill="none" stroke="black" points="650,255.53769071849666 644.9494949494949,291.311143164141 639.8989898989898,290.4754921747766 634.8484848484848,292.74376699191953 629.7979797979798,301.9285289139065 624.7474747474747,292.1265394977092 619.6969696969697,297.7643628220295 614.6464646464647,300.10816869959973 609.5959595959596,301.71503805943337 604.5454545454545,300.3516870042182 599.4949494949494,297.5461551299052 594.4444444444445,302.16766949992063 589.3939393939394,307.46985745490537 584.3434343434344,302.82327910442973 579.2929292929293,306.445656275511 574.2424242424242,301.70686837330555 569.1919191919192,307.3413621651662 564.1414141414141,308.3973480479485 559.090909090909,313.78477819970124 554.040404040404,300.25389740271805 548.989898989899,313.5390710357806 543.939393939394,314.29672464437715 538.8888888888889,309.86622678473213 533.8383838383838,317.6423190152476 528.7878787878788,322.47115843888497 523.7373737373737,320.55109722481416 518.6868686868687,325.4115055488097 513.6363636363636,319.9697238625536 508.5858585858586,324.96954094379504 503.5353535353535,326.45133703336194 498.4848484848485,326.6706853986437 493.4343434343434,327.02941169216706 488.3838383838384,329.0820992825474 483.3333333333333,332.12310309136814 478.2828282828283,329.05191768738075 473.2323232323232,326.9931567831619 468.1818181818182,332.9130963254293 463.1313131313131,335.150881257363 458.0808080808081,332.82976552692526 453.030303030303,330.8938582046668 447.979797979798,334.18368290683804 442.9292929292929,333.6539481267064 437.8787878787879,334.5370141246166 432.8282828282828,336.6399838209386 427.77777777777777,337.38965271743285 422.72727272727275,342.598336302509 417.67676767676767,342.839388286787 412.62626262626264,345.1185457424323 407.57575757575756,342.12911885773195 402.52525252525254,343.6591315099553 397.47474747474746,347.99338121831295 392.4242424242424,347.14373386101624 387.37373737373736,339.4667260501798 382.32323232323233,343.0856812017886 377.27272727272725,350.47838393537586 372.22222222222223,350.6537393115842 367.1717171717172,351.90487279130735 362.1212121212121,355.33108500830735 357.07070707070704,351.20187900725676 352.020202020202,352.66906214880623 346.969696969697,356.132330828922 341.9191919191919,360.74764856908206 336.86868686868684,361.1581984187598 331.8181818181818,360.181628050941 326.7676767676768,357.6330867561064 321.7171717171717,357.6128321003102 316.66666666666663,363.94584947060434 311.6161616161616,363.041696433783 306.5656565656566,363.5574040169781 301.5151515151515,361.8998517741475 296.4646464646464,366.13751421217097 291.4141414141414,366.42391566170966 286.3636363636364,371.84377792593966 281.3131313131313,370.9407039042673 276.26262626262627,370.6062092080892 271.2121212121212,369.3181734102716 266.16161616161617,374.49084871837664 261.1111111111111,370.14423657931235 256.06060606060606,378.39814754679225 251.010101010101,378.6564329444494 245.95959595959596,374.12287372357645 240.9090909090909,375.338769651435 235.85858585858585,381.9125615449688 230.8080808080808,380.64018688131324 225.75757575757575,379.3577927912745 220.7070707070707,379.6866149506695 215.65656565656565,381.20552916136063 210.6060606060606,379.2965355598177 205.55555555555554,381.21477786263745 200.50505050505052,382.70486695434926 195.45454545454544,382.8874054885493 190.40404040404042,383.76103781115717 185.35353535353534,386.2084599720319 180.3030303030303,388.61916478883774 175.25252525252526,390.4956954488991 170.2020202020202,392.26472537111954 165.15151515151516,395.0247844641549 160.1010101010101,396.51126656236875 155.05050505050505,398.5229207480843 150,399.99771865368507 "/><text class="poloto_text" alignment-baseline="middle" text-anchor="start" font-size="large" x="675" y="250">direct_seq</text><line class="poloto3stroke" stroke="black" x1="680" x2="730" y1="231.25" y2="231.25"/><polyline class="poloto3stroke" fill="none" stroke="black" points="650,100 644.9494949494949,107.61858684777127 639.8989898989898,121.90672047629579 634.8484848484848,121.24432849085036 629.7979797979798,125.08149133458352 624.7474747474747,128.71274725889043 619.6969696969697,136.45986022540524 614.6464646464647,139.35901978564385 609.5959595959596,138.98040878437536 604.5454545454545,140.4244701727328 599.4949494949494,149.46544561886964 594.4444444444445,146.11300720905436 589.3939393939394,154.3086821874946 584.3434343434344,154.5791450418329 579.2929292929293,159.3117363141829 574.2424242424242,157.76390449749957 569.1919191919192,152.49942041472 564.1414141414141,159.0857597129861 559.090909090909,168.59311633550834 554.040404040404,166.27680992973453 548.989898989899,177.45636257210901 543.939393939394,177.65576457163712 538.8888888888889,181.24093113458133 533.8383838383838,184.42948255777148 528.7878787878788,185.75383492260275 523.7373737373737,191.18627542056927 518.6868686868687,193.02041619977854 513.6363636363636,198.59485509134836 508.5858585858586,195.2673881749805 503.5353535353535,199.8438305407736 498.4848484848485,205.04542345487084 493.4343434343434,205.85163274517075 488.3838383838384,209.28697034743053 483.3333333333333,214.90022295535877 478.2828282828283,212.60259892616412 473.2323232323232,219.23795634119733 468.1818181818182,222.5948341276255 463.1313131313131,225.44713360139494 458.0808080808081,225.47811675067226 453.030303030303,229.5600618881984 447.979797979798,232.9059028911029 442.9292929292929,236.54748653183566 437.8787878787879,236.96161254600716 432.8282828282828,240.2675916464086 427.77777777777777,243.32881928202127 422.72727272727275,260.34057212055046 417.67676767676767,259.2870525581086 412.62626262626264,265.0259950163887 407.57575757575756,263.6046854331722 402.52525252525254,270.7819550850181 397.47474747474746,270.17890893276564 392.4242424242424,272.0210344240772 387.37373737373736,278.9673948340454 382.32323232323233,281.25025177020143 377.27272727272725,283.5101719271909 372.22222222222223,283.5093703730803 367.1717171717172,289.4936808762343 362.1212121212121,291.958305621484 357.07070707070704,291.45428223090187 352.020202020202,294.7789745368867 346.969696969697,299.6565854452571 341.9191919191919,299.0404986242043 336.86868686868684,304.01081234837267 331.8181818181818,304.04604990023734 326.7676767676768,307.8982572980474 321.7171717171717,309.29465704582503 316.66666666666663,313.1035496926554 311.6161616161616,318.35298922135803 306.5656565656566,319.6270286512434 301.5151515151515,320.9303248061678 296.4646464646464,324.26910596709763 291.4141414141414,327.5222441542042 286.3636363636364,335.3879254710877 281.3131313131313,337.39554105724574 276.26262626262627,340.082257949156 271.2121212121212,341.61942293036674 266.16161616161617,344.5239159083417 261.1111111111111,345.8021172538016 256.06060606060606,349.67331531823345 251.010101010101,350.147897009751 245.95959595959596,354.5946109256347 240.9090909090909,357.28875760757063 235.85858585858585,358.58527138155864 230.8080808080808,362.1510465008258 225.75757575757575,364.38084672065713 220.7070707070707,366.03106166047485 215.65656565656565,371.46738661297763 210.6060606060606,374.2157615133999 205.55555555555554,376.0577328596902 200.50505050505052,378.2302836186181 195.45454545454544,380.2990639492201 190.40404040404042,382.3512274465281 185.35353535353534,384.05317345548747 180.3030303030303,387.4598400837891 175.25252525252526,389.61124214579735 170.2020202020202,391.69892065600834 165.15151515151516,394.67438200178066 160.1010101010101,396.2684573248481 155.05050505050505,398.18515817745504 150,399.99614637446797 "/><text class="poloto_text" alignment-baseline="middle" text-anchor="start" font-size="large" x="675" y="300">indirect_par</text><line class="poloto4stroke" stroke="black" x1="680" x2="730" y1="281.25" y2="281.25"/><polyline class="poloto4stroke" fill="none" stroke="black" points="650,334.47134834555123 644.9494949494949,352.78106392126847 639.8989898989898,356.1101339458577 634.8484848484848,354.618010139865 629.7979797979798,356.9675193832226 624.7474747474747,351.7481073046654 619.6969696969697,357.3410127697846 614.6464646464647,360.15446769819147 609.5959595959596,357.646404885945 604.5454545454545,357.20120323548343 599.4949494949494,360.650598863684 594.4444444444445,360.04502473308247 589.3939393939394,362.40708138117225 584.3434343434344,357.90638587883626 579.2929292929293,360.38417460890327 574.2424242424242,361.8804603304705 569.1919191919192,359.1505828326018 564.1414141414141,361.1915245723606 559.090909090909,364.5857054539386 554.040404040404,364.3167840498131 548.989898989899,358.8308244004581 543.939393939394,365.492879733177 538.8888888888889,357.6353989314256 533.8383838383838,364.75387767215534 528.7878787878788,365.74638663517453 523.7373737373737,362.8489534991742 518.6868686868687,367.4260432740567 513.6363636363636,366.2078968288875 508.5858585858586,366.9035841389295 503.5353535353535,366.5881417673816 498.4848484848485,369.00627637421314 493.4343434343434,366.5447961873976 488.3838383838384,366.0455204634709 483.3333333333333,369.96031073992077 478.2828282828283,367.90346123396586 473.2323232323232,368.7707427816969 468.1818181818182,370.0116410320071 463.1313131313131,369.95497732218445 458.0808080808081,369.6284981671129 453.030303030303,363.4912141448404 447.979797979798,371.9721498996619 442.9292929292929,369.8037918853128 437.8787878787879,370.75110552809264 432.8282828282828,370.41898466524225 427.77777777777777,372.63414110805195 422.72727272727275,371.367254007154 417.67676767676767,373.8793245899537 412.62626262626264,373.6486928091142 407.57575757575756,370.83742674000956 402.52525252525254,374.9988490505078 397.47474747474746,378.2524188436739 392.4242424242424,378.2461913848142 387.37373737373736,378.2410121120992 382.32323232323233,374.51341554949204 377.27272727272725,378.57051250958784 372.22222222222223,373.83496165282924 367.1717171717172,376.6108051960437 362.1212121212121,368.3814032869473 357.07070707070704,380.9982965947515 352.020202020202,376.8330514877255 346.969696969697,380.1690888672766 341.9191919191919,383.19788439041196 336.86868686868684,381.13178618318017 331.8181818181818,380.72324021877904 326.7676767676768,383.18801910905 321.7171717171717,378.5815492931115 316.66666666666663,385.29271522961034 311.6161616161616,384.68877503623435 306.5656565656566,384.8474827501445 301.5151515151515,385.1364121780322 296.4646464646464,384.98498010912647 291.4141414141414,382.8252542159691 286.3636363636364,385.35406494807984 281.3131313131313,384.44433186148814 276.26262626262627,388.1668108093888 271.2121212121212,389.5618232519749 266.16161616161617,389.51696705078234 261.1111111111111,386.5920961009942 256.06060606060606,387.4200706682988 251.010101010101,383.97243229334083 245.95959595959596,389.85735008677335 240.9090909090909,390.17834167908734 235.85858585858585,390.9412362184075 230.8080808080808,390.84135024461784 225.75757575757575,390.45056178666823 220.7070707070707,390.76014664740745 215.65656565656565,390.9176520301516 210.6060606060606,388.41470683261167 205.55555555555554,388.66078394458344 200.50505050505052,388.86212817137965 195.45454545454544,391.28155759639 190.40404040404042,391.48086710890533 185.35353535353534,391.84486516215645 180.3030303030303,395.750345079321 175.25252525252526,396.58578026565556 170.2020202020202,397.1927725304529 165.15151515151516,398.1398087121944 160.1010101010101,398.7073090225397 155.05050505050505,399.42852274810565 150,399.99932176190634 "/><text class="poloto_text" alignment-baseline="middle" text-anchor="start" font-size="large" x="675" y="350">indirect_seq</text><line class="poloto5stroke" stroke="black" x1="680" x2="730" y1="331.25" y2="331.25"/><polyline class="poloto5stroke" fill="none" stroke="black" points="650,288.12638370847435 644.9494949494949,294.8919936664894 639.8989898989898,295.02240035449245 634.8484848484848,294.3773650984432 629.7979797979798,296.8653273999147 624.7474747474747,297.0984563300989 619.6969696969697,299.8587620551683 614.6464646464647,301.79932455706944 609.5959595959596,301.92849808490223 604.5454545454545,302.91157337261905 599.4949494949494,306.1140286767287 594.4444444444445,303.8589486734074 589.3939393939394,309.1195483016507 584.3434343434344,302.2384528936925 579.2929292929293,305.0123233806346 574.2424242424242,303.3701239819235 569.1919191919192,304.00526312760655 564.1414141414141,305.41501183422713 559.090909090909,308.42771461714074 554.040404040404,312.9367339506259 548.989898989899,315.427655836506 543.939393939394,316.03387737619687 538.8888888888889,318.2263128428699 533.8383838383838,319.8659534342278 528.7878787878788,319.4030559353232 523.7373737373737,322.11255546137863 518.6868686868687,321.6057882894178 513.6363636363636,323.88078382948845 508.5858585858586,322.44828331772703 503.5353535353535,324.9063106560659 498.4848484848485,326.15488532843574 493.4343434343434,326.68798047003133 488.3838383838384,328.3978803620887 483.3333333333333,330.888833076973 478.2828282828283,324.79427805459943 473.2323232323232,332.36998175745055 468.1818181818182,330.14637816747467 463.1313131313131,334.10963163861504 458.0808080808081,334.36196703845076 453.030303030303,336.0907651101171 447.979797979798,336.9977235863257 442.9292929292929,336.14826120305463 437.8787878787879,338.453438338292 432.8282828282828,337.35808381707466 427.77777777777777,337.3709703408537 422.72727272727275,345.03231701752816 417.67676767676767,344.41065014670494 412.62626262626264,347.6264852386617 407.57575757575756,345.92142550027256 402.52525252525254,351.5776229111294 397.47474747474746,350.94991355547205 392.4242424242424,351.3178268922637 387.37373737373736,354.49916432845794 382.32323232323233,355.42909041283735 377.27272727272725,355.5823722219984 372.22222222222223,356.1402847120201 367.1717171717172,358.3057756289733 362.1212121212121,359.5362228468407 357.07070707070704,357.05208334189695 352.020202020202,358.8333215498028 346.969696969697,361.5979741644723 341.9191919191919,359.88542297804895 336.86868686868684,363.9804704423839 331.8181818181818,361.83363107300556 326.7676767676768,363.42450017963034 321.7171717171717,363.8864728084072 316.66666666666663,366.78911604612676 311.6161616161616,368.9557476362375 306.5656565656566,369.37348064390693 301.5151515151515,369.9148379586431 296.4646464646464,372.08005141455806 291.4141414141414,372.68732114039364 286.3636363636364,375.57014132837656 281.3131313131313,376.15934525771814 276.26262626262627,376.53579822868875 271.2121212121212,376.91869446154885 266.16161616161617,378.38846723945585 261.1111111111111,378.60550342941843 256.06060606060606,380.29524115269237 251.010101010101,381.6562800325883 245.95959595959596,382.8079283155772 240.9090909090909,383.7898937591408 235.85858585858585,384.45660180518206 230.8080808080808,386.0788548381395 225.75757575757575,386.61842407062886 220.7070707070707,387.329063447735 215.65656565656565,389.1510884282716 210.6060606060606,390.0781165862509 205.55555555555554,391.06427477439337 200.50505050505052,391.7462123485371 195.45454545454544,392.6019330196722 190.40404040404042,393.3183374205742 185.35353535353534,393.88090509023857 180.3030303030303,395.4480358635862 175.25252525252526,396.25991769066917 170.2020202020202,397.0384733641514 165.15151515151516,397.8214992432507 160.1010101010101,398.64506526294673 155.05050505050505,399.3538548997975 150,399.99836606277444 "/><text class="poloto_text" alignment-baseline="start" text-anchor="middle" font-size="x-large" x="400" y="37.5">Bench of rebal:128_bytes with abspiral(num,0.1)</text><text class="poloto_text" alignment-baseline="start" text-anchor="middle" font-size="x-large" x="400" y="481.25">Number of Elements</text><text class="poloto_text" alignment-baseline="start" text-anchor="middle" font-size="x-large" transform="rotate(-90,37.5,250)" x="37.5" y="250">Time in Seconds</text><path stroke="black" fill="none" class="poloto_axis_lines" d=" M 150 100 L 150 400 L 650 400"/></svg>