<svg class="poloto" width="800" height="500" viewBox="0 0 800 500" xmlns="http://www.w3.org/2000/svg"><circle  r="1e5" class="poloto_background" /><text  class="poloto_text poloto_legend_text" x="675" y="100" >default_seq</text><line  class="poloto_scatter poloto_legend_icon poloto0stroke poloto0legend" stroke="black" x1="685" x2="685" y1="81.25" y2="81.25" /><path  class="poloto_scatter poloto0stroke" d=" M 650.00 120.78 h 0 M 644.95 136.38 h 0 M 639.90 140.26 h 0 M 634.85 144.01 h 0 M 629.80 146.00 h 0 M 624.75 151.84 h 0 M 619.70 149.48 h 0 M 614.65 155.99 h 0 M 609.60 161.22 h 0 M 604.55 161.73 h 0 M 599.49 163.22 h 0 M 594.44 168.75 h 0 M 589.39 166.99 h 0 M 584.34 175.39 h 0 M 579.29 164.99 h 0 M 574.24 171.45 h 0 M 569.19 183.71 h 0 M 564.14 187.10 h 0 M 559.09 177.61 h 0 M 554.04 190.03 h 0 M 548.99 193.98 h 0 M 543.94 195.94 h 0 M 538.89 195.90 h 0 M 533.84 201.05 h 0 M 528.79 201.28 h 0 M 523.74 206.63 h 0 M 518.69 201.97 h 0 M 513.64 213.20 h 0 M 508.59 213.74 h 0 M 503.54 217.37 h 0 M 498.48 210.10 h 0 M 493.43 216.68 h 0 M 488.38 217.53 h 0 M 483.33 227.37 h 0 M 478.28 232.61 h 0 M 473.23 234.49 h 0 M 468.18 236.97 h 0 M 463.13 238.52 h 0 M 458.08 243.77 h 0 M 453.03 238.51 h 0 M 447.98 247.30 h 0 M 442.93 251.51 h 0 M 437.88 253.89 h 0 M 432.83 253.93 h 0 M 427.78 258.36 h 0 M 422.73 260.95 h 0 M 417.68 261.45 h 0 M 412.63 251.67 h 0 M 407.58 268.33 h 0 M 402.53 272.97 h 0 M 397.47 274.55 h 0 M 392.42 271.72 h 0 M 387.37 276.76 h 0 M 382.32 271.69 h 0 M 377.27 282.27 h 0 M 372.22 284.89 h 0 M 367.17 289.43 h 0 M 362.12 290.37 h 0 M 357.07 293.25 h 0 M 352.02 296.60 h 0 M 346.97 298.23 h 0 M 341.92 296.52 h 0 M 336.87 298.83 h 0 M 331.82 302.87 h 0 M 326.77 305.77 h 0 M 321.72 311.03 h 0 M 316.67 313.36 h 0 M 311.62 316.24 h 0 M 306.57 316.57 h 0 M 301.52 321.44 h 0 M 296.46 321.66 h 0 M 291.41 324.45 h 0 M 286.36 327.69 h 0 M 281.31 333.14 h 0 M 276.26 336.36 h 0 M 271.21 337.05 h 0 M 266.16 340.09 h 0 M 261.11 344.75 h 0 M 256.06 346.38 h 0 M 251.01 348.75 h 0 M 245.96 351.52 h 0 M 240.91 353.59 h 0 M 235.86 356.74 h 0 M 230.81 359.42 h 0 M 225.76 362.16 h 0 M 220.71 364.72 h 0 M 215.66 367.86 h 0 M 210.61 370.44 h 0 M 205.56 373.23 h 0 M 200.51 375.68 h 0 M 195.45 378.07 h 0 M 190.40 378.54 h 0 M 185.35 380.74 h 0 M 180.30 385.75 h 0 M 175.25 388.21 h 0 M 170.20 390.91 h 0 M 165.15 392.99 h 0 M 160.10 395.14 h 0 M 155.05 398.09 h 0 M 150.00 400.00 h 0" /><text  class="poloto_text poloto_legend_text" x="675" y="150" >direct_seq</text><line  class="poloto_scatter poloto_legend_icon poloto1stroke poloto1legend" stroke="black" x1="685" x2="685" y1="131.25" y2="131.25" /><path  class="poloto_scatter poloto1stroke" d=" M 650.00 183.42 h 0 M 644.95 178.04 h 0 M 639.90 188.43 h 0 M 634.85 190.50 h 0 M 629.80 193.39 h 0 M 624.75 196.37 h 0 M 619.70 196.71 h 0 M 614.65 200.38 h 0 M 609.60 203.73 h 0 M 604.55 205.83 h 0 M 599.49 207.74 h 0 M 594.44 209.58 h 0 M 589.39 212.75 h 0 M 584.34 214.95 h 0 M 579.29 216.20 h 0 M 574.24 218.95 h 0 M 569.19 219.91 h 0 M 564.14 224.78 h 0 M 559.09 225.11 h 0 M 554.04 226.38 h 0 M 548.99 230.65 h 0 M 543.94 231.90 h 0 M 538.89 234.71 h 0 M 533.84 236.47 h 0 M 528.79 237.63 h 0 M 523.74 239.79 h 0 M 518.69 243.22 h 0 M 513.64 244.72 h 0 M 508.59 242.93 h 0 M 503.54 248.80 h 0 M 498.48 250.61 h 0 M 493.43 252.65 h 0 M 488.38 257.25 h 0 M 483.33 259.38 h 0 M 478.28 261.42 h 0 M 473.23 264.04 h 0 M 468.18 266.04 h 0 M 463.13 268.43 h 0 M 458.08 271.10 h 0 M 453.03 273.18 h 0 M 447.98 274.25 h 0 M 442.93 277.38 h 0 M 437.88 277.42 h 0 M 432.83 281.38 h 0 M 427.78 282.60 h 0 M 422.73 284.43 h 0 M 417.68 286.60 h 0 M 412.63 289.41 h 0 M 407.58 290.90 h 0 M 402.53 294.48 h 0 M 397.47 295.73 h 0 M 392.42 297.57 h 0 M 387.37 298.08 h 0 M 382.32 294.87 h 0 M 377.27 276.36 h 0 M 372.22 304.53 h 0 M 367.17 308.45 h 0 M 362.12 310.46 h 0 M 357.07 311.33 h 0 M 352.02 314.08 h 0 M 346.97 314.81 h 0 M 341.92 317.75 h 0 M 336.87 318.48 h 0 M 331.82 321.06 h 0 M 326.77 323.46 h 0 M 321.72 325.58 h 0 M 316.67 327.93 h 0 M 311.62 329.66 h 0 M 306.57 331.00 h 0 M 301.52 333.71 h 0 M 296.46 335.28 h 0 M 291.41 338.89 h 0 M 286.36 343.38 h 0 M 281.31 346.11 h 0 M 276.26 346.69 h 0 M 271.21 349.40 h 0 M 266.16 352.58 h 0 M 261.11 353.67 h 0 M 256.06 356.95 h 0 M 251.01 358.67 h 0 M 245.96 361.13 h 0 M 240.91 362.54 h 0 M 235.86 364.46 h 0 M 230.81 366.84 h 0 M 225.76 369.27 h 0 M 220.71 371.44 h 0 M 215.66 373.70 h 0 M 210.61 375.99 h 0 M 205.56 377.73 h 0 M 200.51 379.34 h 0 M 195.45 381.91 h 0 M 190.40 383.45 h 0 M 185.35 383.04 h 0 M 180.30 388.56 h 0 M 175.25 389.52 h 0 M 170.20 391.91 h 0 M 165.15 394.16 h 0 M 160.10 396.05 h 0 M 155.05 398.41 h 0 M 150.00 400.00 h 0" /><text  class="poloto_text poloto_legend_text" x="675" y="200" >indirect_seq</text><line  class="poloto_scatter poloto_legend_icon poloto2stroke poloto2legend" stroke="black" x1="685" x2="685" y1="181.25" y2="181.25" /><path  class="poloto_scatter poloto2stroke" d=" M 650.00 122.21 h 0 M 644.95 100.00 h 0 M 639.90 103.86 h 0 M 634.85 123.57 h 0 M 629.80 131.98 h 0 M 624.75 129.50 h 0 M 619.70 135.42 h 0 M 614.65 142.57 h 0 M 609.60 149.64 h 0 M 604.55 143.86 h 0 M 599.49 153.41 h 0 M 594.44 150.94 h 0 M 589.39 159.40 h 0 M 584.34 153.29 h 0 M 579.29 145.17 h 0 M 574.24 166.02 h 0 M 569.19 164.59 h 0 M 564.14 156.79 h 0 M 559.09 176.03 h 0 M 554.04 168.61 h 0 M 548.99 183.17 h 0 M 543.94 185.26 h 0 M 538.89 178.79 h 0 M 533.84 182.32 h 0 M 528.79 185.30 h 0 M 523.74 196.00 h 0 M 518.69 179.79 h 0 M 513.64 200.84 h 0 M 508.59 205.07 h 0 M 503.54 200.64 h 0 M 498.48 207.84 h 0 M 493.43 210.06 h 0 M 488.38 199.54 h 0 M 483.33 208.51 h 0 M 478.28 214.43 h 0 M 473.23 220.77 h 0 M 468.18 214.77 h 0 M 463.13 231.09 h 0 M 458.08 222.19 h 0 M 453.03 234.11 h 0 M 447.98 241.08 h 0 M 442.93 236.07 h 0 M 437.88 229.78 h 0 M 432.83 241.79 h 0 M 427.78 252.71 h 0 M 422.73 252.38 h 0 M 417.68 249.40 h 0 M 412.63 248.00 h 0 M 407.58 255.85 h 0 M 402.53 267.12 h 0 M 397.47 268.74 h 0 M 392.42 272.72 h 0 M 387.37 266.39 h 0 M 382.32 268.01 h 0 M 377.27 272.70 h 0 M 372.22 280.03 h 0 M 367.17 281.28 h 0 M 362.12 286.32 h 0 M 357.07 282.21 h 0 M 352.02 292.77 h 0 M 346.97 294.41 h 0 M 341.92 295.77 h 0 M 336.87 297.21 h 0 M 331.82 302.20 h 0 M 326.77 297.57 h 0 M 321.72 303.09 h 0 M 316.67 309.61 h 0 M 311.62 307.01 h 0 M 306.57 314.34 h 0 M 301.52 309.19 h 0 M 296.46 318.77 h 0 M 291.41 320.42 h 0 M 286.36 323.09 h 0 M 281.31 331.41 h 0 M 276.26 326.93 h 0 M 271.21 333.79 h 0 M 266.16 336.57 h 0 M 261.11 335.91 h 0 M 256.06 342.51 h 0 M 251.01 348.49 h 0 M 245.96 348.84 h 0 M 240.91 353.79 h 0 M 235.86 356.60 h 0 M 230.81 355.92 h 0 M 225.76 357.88 h 0 M 220.71 359.81 h 0 M 215.66 367.35 h 0 M 210.61 370.31 h 0 M 205.56 370.53 h 0 M 200.51 375.12 h 0 M 195.45 378.09 h 0 M 190.40 379.55 h 0 M 185.35 382.06 h 0 M 180.30 384.50 h 0 M 175.25 386.07 h 0 M 170.20 389.57 h 0 M 165.15 393.11 h 0 M 160.10 395.37 h 0 M 155.05 398.04 h 0 M 150.00 400.00 h 0" /><text  class="poloto_labels poloto_text poloto_title" x="400" y="37.5" >Bench of query:128_bytes with abspiral(num,0.6)</text><text  class="poloto_labels poloto_text poloto_xname" x="400" y="481.25" >Number of Elements</text><text  class="poloto_labels poloto_text poloto_yname" transform="rotate(-90,37.5,250)" x="37.5" y="250" >Time in Seconds</text><text  class="poloto_tick_labels poloto_text" dominant-baseline="middle" text-anchor="start" x="150" y="70" ></text><line  class="poloto_axis_lines" stroke="black" x1="150" x2="144" y1="400" y2="400" /><text  class="poloto_tick_labels poloto_text" dominant-baseline="middle" text-anchor="end" x="135" y="400" >0e0</text><line  class="poloto_axis_lines" stroke="black" x1="150" x2="144" y1="339.6264871882878" y2="339.6264871882878" /><text  class="poloto_tick_labels poloto_text" dominant-baseline="middle" text-anchor="end" x="135" y="339.6264871882878" >0.002</text><line  class="poloto_axis_lines" stroke="black" x1="150" x2="144" y1="279.25297437657554" y2="279.25297437657554" /><text  class="poloto_tick_labels poloto_text" dominant-baseline="middle" text-anchor="end" x="135" y="279.25297437657554" >0.004</text><line  class="poloto_axis_lines" stroke="black" x1="150" x2="144" y1="218.87946156486333" y2="218.87946156486333" /><text  class="poloto_tick_labels poloto_text" dominant-baseline="middle" text-anchor="end" x="135" y="218.87946156486333" >0.006</text><line  class="poloto_axis_lines" stroke="black" x1="150" x2="144" y1="158.50594875315107" y2="158.50594875315107" /><text  class="poloto_tick_labels poloto_text" dominant-baseline="middle" text-anchor="end" x="135" y="158.50594875315107" >0.008</text><text  class="poloto_tick_labels poloto_text" dominant-baseline="middle" text-anchor="start" x="440.00000000000006" y="70" ></text><line  class="poloto_axis_lines" stroke="black" x1="150" x2="150" y1="400" y2="405" /><text  class="poloto_tick_labels poloto_text" dominant-baseline="start" text-anchor="middle" x="150" y="430" >0</text><line  class="poloto_axis_lines" stroke="black" x1="234.17508417508418" x2="234.17508417508418" y1="400" y2="405" /><text  class="poloto_tick_labels poloto_text" dominant-baseline="start" text-anchor="middle" x="234.17508417508418" y="430" >5000</text><line  class="poloto_axis_lines" stroke="black" x1="318.35016835016836" x2="318.35016835016836" y1="400" y2="405" /><text  class="poloto_tick_labels poloto_text" dominant-baseline="start" text-anchor="middle" x="318.35016835016836" y="430" >10000</text><line  class="poloto_axis_lines" stroke="black" x1="402.52525252525254" x2="402.52525252525254" y1="400" y2="405" /><text  class="poloto_tick_labels poloto_text" dominant-baseline="start" text-anchor="middle" x="402.52525252525254" y="430" >15000</text><line  class="poloto_axis_lines" stroke="black" x1="486.7003367003367" x2="486.7003367003367" y1="400" y2="405" /><text  class="poloto_tick_labels poloto_text" dominant-baseline="start" text-anchor="middle" x="486.7003367003367" y="430" >20000</text><line  class="poloto_axis_lines" stroke="black" x1="570.8754208754208" x2="570.8754208754208" y1="400" y2="405" /><text  class="poloto_tick_labels poloto_text" dominant-baseline="start" text-anchor="middle" x="570.8754208754208" y="430" >25000</text><path  stroke="black" fill="none" class="poloto_axis_lines" style="stroke-dasharray:8.417508417508419;stroke-dashoffset:-0;" d=" M 150 400 L 650 400" /><path  stroke="black" fill="none" class="poloto_axis_lines" style="stroke-dasharray:7.546689101464028;stroke-dashoffset:-0;" d=" M 150 400 L 150 100" /></svg>