<svg class="poloto" width="800" height="500" viewBox="0 0 800 500" xmlns="http://www.w3.org/2000/svg"><circle  r="1e5" class="poloto_background" /><text  class="poloto_text poloto_legend_text" x="675" y="100" >default_seq</text><line  class="poloto_scatter poloto_legend_icon poloto0stroke poloto0legend" stroke="black" x1="685" x2="685" y1="81.25" y2="81.25" /><path  class="poloto_scatter poloto0stroke" d=" M 650.00 281.45 h 0 M 644.95 277.02 h 0 M 639.90 281.11 h 0 M 634.85 283.67 h 0 M 629.80 285.40 h 0 M 624.75 287.35 h 0 M 619.70 286.91 h 0 M 614.65 289.46 h 0 M 609.60 291.21 h 0 M 604.55 289.74 h 0 M 599.49 293.95 h 0 M 594.44 293.96 h 0 M 589.39 296.04 h 0 M 584.34 296.10 h 0 M 579.29 298.39 h 0 M 574.24 293.88 h 0 M 569.19 301.80 h 0 M 564.14 301.06 h 0 M 559.09 305.87 h 0 M 554.04 305.95 h 0 M 548.99 305.39 h 0 M 543.94 305.89 h 0 M 538.89 308.96 h 0 M 533.84 309.99 h 0 M 528.79 311.57 h 0 M 523.74 312.67 h 0 M 518.69 313.19 h 0 M 513.64 312.06 h 0 M 508.59 316.07 h 0 M 503.54 316.26 h 0 M 498.48 318.55 h 0 M 493.43 320.36 h 0 M 488.38 321.96 h 0 M 483.33 320.57 h 0 M 478.28 322.99 h 0 M 473.23 326.59 h 0 M 468.18 324.26 h 0 M 463.13 327.28 h 0 M 458.08 326.72 h 0 M 453.03 329.03 h 0 M 447.98 331.38 h 0 M 442.93 332.26 h 0 M 437.88 332.90 h 0 M 432.83 334.01 h 0 M 427.78 334.75 h 0 M 422.73 336.98 h 0 M 417.68 335.71 h 0 M 412.63 338.75 h 0 M 407.58 340.51 h 0 M 402.53 341.73 h 0 M 397.47 343.36 h 0 M 392.42 344.76 h 0 M 387.37 345.80 h 0 M 382.32 347.13 h 0 M 377.27 347.26 h 0 M 372.22 348.59 h 0 M 367.17 351.59 h 0 M 362.12 350.73 h 0 M 357.07 351.69 h 0 M 352.02 354.16 h 0 M 346.97 356.12 h 0 M 341.92 355.98 h 0 M 336.87 357.59 h 0 M 331.82 358.86 h 0 M 326.77 359.14 h 0 M 321.72 360.48 h 0 M 316.67 360.24 h 0 M 311.62 361.92 h 0 M 306.57 364.00 h 0 M 301.52 364.75 h 0 M 296.46 366.55 h 0 M 291.41 368.18 h 0 M 286.36 372.76 h 0 M 281.31 374.30 h 0 M 276.26 374.88 h 0 M 271.21 375.57 h 0 M 266.16 378.06 h 0 M 261.11 379.14 h 0 M 256.06 379.52 h 0 M 251.01 380.42 h 0 M 245.96 380.65 h 0 M 240.91 382.06 h 0 M 235.86 382.61 h 0 M 230.81 383.91 h 0 M 225.76 385.85 h 0 M 220.71 386.39 h 0 M 215.66 387.42 h 0 M 210.61 388.83 h 0 M 205.56 389.67 h 0 M 200.51 390.65 h 0 M 195.45 391.47 h 0 M 190.40 392.71 h 0 M 185.35 392.96 h 0 M 180.30 395.25 h 0 M 175.25 396.25 h 0 M 170.20 396.96 h 0 M 165.15 397.65 h 0 M 160.10 398.60 h 0 M 155.05 399.42 h 0 M 150.00 399.99 h 0" /><text  class="poloto_text poloto_legend_text" x="675" y="150" >direct_seq</text><line  class="poloto_scatter poloto_legend_icon poloto1stroke poloto1legend" stroke="black" x1="685" x2="685" y1="131.25" y2="131.25" /><path  class="poloto_scatter poloto1stroke" d=" M 650.00 124.05 h 0 M 644.95 142.09 h 0 M 639.90 139.70 h 0 M 634.85 145.68 h 0 M 629.80 150.72 h 0 M 624.75 152.39 h 0 M 619.70 154.82 h 0 M 614.65 158.55 h 0 M 609.60 160.48 h 0 M 604.55 163.14 h 0 M 599.49 167.61 h 0 M 594.44 170.57 h 0 M 589.39 177.13 h 0 M 584.34 176.61 h 0 M 579.29 180.47 h 0 M 574.24 182.36 h 0 M 569.19 187.67 h 0 M 564.14 189.24 h 0 M 559.09 195.12 h 0 M 554.04 197.21 h 0 M 548.99 200.10 h 0 M 543.94 200.75 h 0 M 538.89 203.44 h 0 M 533.84 203.43 h 0 M 528.79 207.46 h 0 M 523.74 212.61 h 0 M 518.69 213.67 h 0 M 513.64 212.71 h 0 M 508.59 217.14 h 0 M 503.54 221.11 h 0 M 498.48 226.06 h 0 M 493.43 229.73 h 0 M 488.38 231.48 h 0 M 483.33 233.14 h 0 M 478.28 235.95 h 0 M 473.23 242.64 h 0 M 468.18 239.71 h 0 M 463.13 245.07 h 0 M 458.08 241.50 h 0 M 453.03 249.20 h 0 M 447.98 251.68 h 0 M 442.93 256.52 h 0 M 437.88 257.18 h 0 M 432.83 258.92 h 0 M 427.78 261.14 h 0 M 422.73 264.51 h 0 M 417.68 266.75 h 0 M 412.63 267.85 h 0 M 407.58 272.91 h 0 M 402.53 276.00 h 0 M 397.47 277.38 h 0 M 392.42 281.88 h 0 M 387.37 283.73 h 0 M 382.32 287.04 h 0 M 377.27 289.30 h 0 M 372.22 290.46 h 0 M 367.17 293.33 h 0 M 362.12 296.41 h 0 M 357.07 298.96 h 0 M 352.02 303.78 h 0 M 346.97 306.89 h 0 M 341.92 304.33 h 0 M 336.87 309.43 h 0 M 331.82 312.26 h 0 M 326.77 313.38 h 0 M 321.72 314.87 h 0 M 316.67 317.62 h 0 M 311.62 318.85 h 0 M 306.57 323.44 h 0 M 301.52 324.70 h 0 M 296.46 331.20 h 0 M 291.41 333.22 h 0 M 286.36 343.84 h 0 M 281.31 345.72 h 0 M 276.26 347.97 h 0 M 271.21 348.62 h 0 M 266.16 353.10 h 0 M 261.11 356.49 h 0 M 256.06 357.42 h 0 M 251.01 358.98 h 0 M 245.96 360.19 h 0 M 240.91 362.76 h 0 M 235.86 362.02 h 0 M 230.81 367.29 h 0 M 225.76 370.06 h 0 M 220.71 371.66 h 0 M 215.66 373.77 h 0 M 210.61 376.39 h 0 M 205.56 377.69 h 0 M 200.51 380.12 h 0 M 195.45 381.86 h 0 M 190.40 384.63 h 0 M 185.35 385.75 h 0 M 180.30 390.04 h 0 M 175.25 392.11 h 0 M 170.20 393.58 h 0 M 165.15 395.10 h 0 M 160.10 396.89 h 0 M 155.05 398.80 h 0 M 150.00 399.99 h 0" /><text  class="poloto_text poloto_legend_text" x="675" y="200" >indirect_seq</text><line  class="poloto_scatter poloto_legend_icon poloto2stroke poloto2legend" stroke="black" x1="685" x2="685" y1="181.25" y2="181.25" /><path  class="poloto_scatter poloto2stroke" d=" M 650.00 116.51 h 0 M 644.95 137.71 h 0 M 639.90 126.07 h 0 M 634.85 100.00 h 0 M 629.80 149.01 h 0 M 624.75 153.62 h 0 M 619.70 153.37 h 0 M 614.65 154.88 h 0 M 609.60 162.22 h 0 M 604.55 162.98 h 0 M 599.49 171.89 h 0 M 594.44 172.25 h 0 M 589.39 185.17 h 0 M 584.34 180.12 h 0 M 579.29 187.66 h 0 M 574.24 165.68 h 0 M 569.19 194.62 h 0 M 564.14 193.09 h 0 M 559.09 202.57 h 0 M 554.04 205.93 h 0 M 548.99 204.08 h 0 M 543.94 175.47 h 0 M 538.89 199.92 h 0 M 533.84 212.23 h 0 M 528.79 222.30 h 0 M 523.74 223.21 h 0 M 518.69 227.32 h 0 M 513.64 219.49 h 0 M 508.59 232.50 h 0 M 503.54 232.18 h 0 M 498.48 236.73 h 0 M 493.43 244.68 h 0 M 488.38 247.71 h 0 M 483.33 244.64 h 0 M 478.28 249.20 h 0 M 473.23 255.99 h 0 M 468.18 251.05 h 0 M 463.13 258.59 h 0 M 458.08 256.87 h 0 M 453.03 262.56 h 0 M 447.98 268.49 h 0 M 442.93 271.44 h 0 M 437.88 271.16 h 0 M 432.83 274.26 h 0 M 427.78 275.75 h 0 M 422.73 281.60 h 0 M 417.68 282.80 h 0 M 412.63 286.44 h 0 M 407.58 290.08 h 0 M 402.53 291.00 h 0 M 397.47 296.89 h 0 M 392.42 299.53 h 0 M 387.37 301.07 h 0 M 382.32 303.94 h 0 M 377.27 302.21 h 0 M 372.22 305.41 h 0 M 367.17 314.91 h 0 M 362.12 312.25 h 0 M 357.07 314.36 h 0 M 352.02 321.31 h 0 M 346.97 324.66 h 0 M 341.92 321.99 h 0 M 336.87 327.33 h 0 M 331.82 329.21 h 0 M 326.77 330.55 h 0 M 321.72 331.91 h 0 M 316.67 335.25 h 0 M 311.62 337.66 h 0 M 306.57 341.53 h 0 M 301.52 341.67 h 0 M 296.46 347.27 h 0 M 291.41 347.71 h 0 M 286.36 354.18 h 0 M 281.31 356.35 h 0 M 276.26 358.40 h 0 M 271.21 359.76 h 0 M 266.16 363.52 h 0 M 261.11 366.64 h 0 M 256.06 367.48 h 0 M 251.01 368.55 h 0 M 245.96 369.48 h 0 M 240.91 371.85 h 0 M 235.86 372.45 h 0 M 230.81 375.95 h 0 M 225.76 378.62 h 0 M 220.71 379.70 h 0 M 215.66 380.99 h 0 M 210.61 383.33 h 0 M 205.56 384.56 h 0 M 200.51 385.83 h 0 M 195.45 387.42 h 0 M 190.40 389.60 h 0 M 185.35 390.81 h 0 M 180.30 393.20 h 0 M 175.25 394.84 h 0 M 170.20 395.63 h 0 M 165.15 397.02 h 0 M 160.10 398.26 h 0 M 155.05 399.30 h 0 M 150.00 399.99 h 0" /><text  class="poloto_labels poloto_text poloto_title" x="400" y="37.5" >Bench of rebal:128_bytes with abspiral(num,1.5)</text><text  class="poloto_labels poloto_text poloto_xname" x="400" y="481.25" >Number of Elements</text><text  class="poloto_labels poloto_text poloto_yname" transform="rotate(-90,37.5,250)" x="37.5" y="250" >Time in Seconds</text><text  class="poloto_tick_labels poloto_text" dominant-baseline="middle" text-anchor="start" x="150" y="70" ></text><line  class="poloto_axis_lines" stroke="black" x1="150" x2="144" y1="400" y2="400" /><text  class="poloto_tick_labels poloto_text" dominant-baseline="middle" text-anchor="end" x="135" y="400" >0e0</text><line  class="poloto_axis_lines" stroke="black" x1="150" x2="144" y1="300.42946431549655" y2="300.42946431549655" /><text  class="poloto_tick_labels poloto_text" dominant-baseline="middle" text-anchor="end" x="135" y="300.42946431549655" >0.002</text><line  class="poloto_axis_lines" stroke="black" x1="150" x2="144" y1="200.8589286309931" y2="200.8589286309931" /><text  class="poloto_tick_labels poloto_text" dominant-baseline="middle" text-anchor="end" x="135" y="200.8589286309931" >0.004</text><line  class="poloto_axis_lines" stroke="black" x1="150" x2="144" y1="101.28839294648958" y2="101.28839294648958" /><text  class="poloto_tick_labels poloto_text" dominant-baseline="middle" text-anchor="end" x="135" y="101.28839294648958" >0.006</text><text  class="poloto_tick_labels poloto_text" dominant-baseline="middle" text-anchor="start" x="440.00000000000006" y="70" ></text><line  class="poloto_axis_lines" stroke="black" x1="150" x2="150" y1="400" y2="405" /><text  class="poloto_tick_labels poloto_text" dominant-baseline="start" text-anchor="middle" x="150" y="430" >0</text><line  class="poloto_axis_lines" stroke="black" x1="234.17508417508418" x2="234.17508417508418" y1="400" y2="405" /><text  class="poloto_tick_labels poloto_text" dominant-baseline="start" text-anchor="middle" x="234.17508417508418" y="430" >5000</text><line  class="poloto_axis_lines" stroke="black" x1="318.35016835016836" x2="318.35016835016836" y1="400" y2="405" /><text  class="poloto_tick_labels poloto_text" dominant-baseline="start" text-anchor="middle" x="318.35016835016836" y="430" >10000</text><line  class="poloto_axis_lines" stroke="black" x1="402.52525252525254" x2="402.52525252525254" y1="400" y2="405" /><text  class="poloto_tick_labels poloto_text" dominant-baseline="start" text-anchor="middle" x="402.52525252525254" y="430" >15000</text><line  class="poloto_axis_lines" stroke="black" x1="486.7003367003367" x2="486.7003367003367" y1="400" y2="405" /><text  class="poloto_tick_labels poloto_text" dominant-baseline="start" text-anchor="middle" x="486.7003367003367" y="430" >20000</text><line  class="poloto_axis_lines" stroke="black" x1="570.8754208754208" x2="570.8754208754208" y1="400" y2="405" /><text  class="poloto_tick_labels poloto_text" dominant-baseline="start" text-anchor="middle" x="570.8754208754208" y="430" >25000</text><path  stroke="black" fill="none" class="poloto_axis_lines" style="stroke-dasharray:8.417508417508419;stroke-dashoffset:-0;" d=" M 150 400 L 650 400" /><path  stroke="black" fill="none" class="poloto_axis_lines" style="stroke-dasharray:12.446316960562934;stroke-dashoffset:-0;" d=" M 150 400 L 150 100" /></svg>