<svg class="poloto" width="800" height="500" viewBox="0 0 800 500" xmlns="http://www.w3.org/2000/svg" ><rect class="poloto_background" fill="white" x="0" y="0" width="800" height="500" /><style><style>.poloto {
            font-family: "Arial";
            stroke-width:2;
            }
            .poloto_text{fill: var(--poloto_fg_color,black);  }
            .poloto_axis_lines{stroke: var(--poloto_fg_color,black);stoke-width:3;fill:none}
            .poloto_background{fill: var(--poloto_bg_color,aliceblue); }
            .poloto0stroke{stroke:  var(--poloto_color0,blue); }
            .poloto1stroke{stroke:  var(--poloto_color1,red); }
            .poloto2stroke{stroke:  var(--poloto_color2,green); }
            .poloto3stroke{stroke:  var(--poloto_color3,gold); }
            .poloto4stroke{stroke:  var(--poloto_color4,aqua); }
            .poloto5stroke{stroke:  var(--poloto_color5,brown); }
            .poloto6stroke{stroke:  var(--poloto_color6,lime); }
            .poloto7stroke{stroke:  var(--poloto_color7,chocolate); }
            .poloto0fill{fill:var(--poloto_color0,blue);}
            .poloto1fill{fill:var(--poloto_color1,red);}
            .poloto2fill{fill:var(--poloto_color2,green);}
            .poloto3fill{fill:var(--poloto_color3,gold);}
            .poloto4fill{fill:var(--poloto_color4,aqua);}
            .poloto5fill{fill:var(--poloto_color5,brown);}
            .poloto6fill{fill:var(--poloto_color6,lime);}
            .poloto7fill{fill:var(--poloto_color7,chocolate);}</style></style><line class="poloto_axis_lines" stroke="black" x1="150" x2="150" y1="400" y2="405" /><text class="poloto_text" alignment-baseline="start" text-anchor="middle" x="150" y="430" >0</text><line class="poloto_axis_lines" stroke="black" x1="234.17508" x2="234.17508" y1="400" y2="405" /><text class="poloto_text" alignment-baseline="start" text-anchor="middle" x="234.17508" y="430" >5000</text><line class="poloto_axis_lines" stroke="black" x1="318.35016" x2="318.35016" y1="400" y2="405" /><text class="poloto_text" alignment-baseline="start" text-anchor="middle" x="318.35016" y="430" >10000</text><line class="poloto_axis_lines" stroke="black" x1="402.52527" x2="402.52527" y1="400" y2="405" /><text class="poloto_text" alignment-baseline="start" text-anchor="middle" x="402.52527" y="430" >15000</text><line class="poloto_axis_lines" stroke="black" x1="486.70035" x2="486.70035" y1="400" y2="405" /><text class="poloto_text" alignment-baseline="start" text-anchor="middle" x="486.70035" y="430" >20000</text><line class="poloto_axis_lines" stroke="black" x1="570.8754" x2="570.8754" y1="400" y2="405" /><text class="poloto_text" alignment-baseline="start" text-anchor="middle" x="570.8754" y="430" >25000</text><line class="poloto_axis_lines" stroke="black" x1="150" x2="144" y1="340.33673" y2="340.33673" /><text class="poloto_text" alignment-baseline="middle" text-anchor="end" x="135" y="340.33673" >0.002</text><line class="poloto_axis_lines" stroke="black" x1="150" x2="144" y1="280.6684" y2="280.6684" /><text class="poloto_text" alignment-baseline="middle" text-anchor="end" x="135" y="280.6684" >0.004</text><line class="poloto_axis_lines" stroke="black" x1="150" x2="144" y1="221.00006" y2="221.00006" /><text class="poloto_text" alignment-baseline="middle" text-anchor="end" x="135" y="221.00006" >0.006</text><line class="poloto_axis_lines" stroke="black" x1="150" x2="144" y1="161.33173" y2="161.33173" /><text class="poloto_text" alignment-baseline="middle" text-anchor="end" x="135" y="161.33173" >0.008</text><line class="poloto_axis_lines" stroke="black" x1="150" x2="144" y1="101.66339" y2="101.66339" /><text class="poloto_text" alignment-baseline="middle" text-anchor="end" x="135" y="101.66339" >0.010</text><text class="poloto_text" alignment-baseline="middle" text-anchor="start" font-size="large" x="675" y="100" >default_par</text><line class="poloto0stroke" stroke="black" x1="680" x2="730" y1="81.25" y2="81.25" /><polyline class="poloto0stroke" fill="none" stroke="black"  points="650,350.23285 644.94946,363.20038 639.899,366.51248 634.8485,361.61136 629.798,365.70868 624.7475,365.51865 619.697,367.96008 614.6465,366.7097 609.59595,364.71558 604.5455,368.43338 599.495,368.4386 594.44446,365.432 589.3939,367.9758 584.34344,369.10233 579.29297,370.47852 574.24243,364.62485 569.1919,370.4695 564.1414,368.40378 559.09094,369.4348 554.0404,371.62216 548.98987,371.5244 543.9394,372.01212 538.8889,372.6929 533.8384,370.36237 528.78784,372.56415 523.73737,372.2453 518.6869,372.72852 513.63635,374.10165 508.58588,373.37827 503.53537,374.1029 498.48486,374.37735 493.43436,375.54782 488.38385,374.1786 483.33334,375.5061 478.28284,374.97592 473.23233,375.85806 468.18182,375.47015 463.13132,376.5458 458.0808,374.5223 453.0303,379.26398 447.9798,372.43686 442.9293,378.8511 437.87878,378.48993 432.82828,372.56885 427.77777,378.20264 422.72726,378.94403 417.67676,379.2597 412.62628,380.11426 407.57578,380.9739 402.52527,383.6036 397.47473,380.25153 392.42426,381.26862 387.37375,380.06793 382.32324,381.9134 377.27274,380.55045 372.22223,381.62494 367.17172,382.5276 362.12122,381.87128 357.0707,371.26086 352.0202,384.42712 346.9697,382.2154 341.9192,383.80264 336.86868,380.7002 331.81818,384.80402 326.7677,385.61984 321.71716,384.82065 316.6667,385.2554 311.61615,385.73746 306.56567,384.6466 301.51514,385.5299 296.46466,388.22305 291.41412,387.16617 286.36365,387.9583 281.31314,388.2942 276.26263,387.9479 271.21213,389.27356 266.16162,387.91708 261.1111,389.27603 256.0606,391.2063 251.0101,391.57758 245.9596,390.1231 240.90909,392.48004 235.85858,389.86646 230.80807,391.0577 225.75757,391.75543 220.70706,389.61496 215.65657,388.33716 210.60606,388.66476 205.55556,390.43478 200.50505,390.91986 195.45454,391.26135 190.40404,393.69464 185.35353,391.786 180.30302,395.61505 175.25253,396.377 170.20203,397.01627 165.15152,398.0571 160.10101,398.60132 155.0505,399.35477 150,399.99957 "/><text class="poloto_text" alignment-baseline="middle" text-anchor="start" font-size="large" x="675" y="150" >default_seq</text><line class="poloto1stroke" stroke="black" x1="680" x2="730" y1="131.25" y2="131.25" /><polyline class="poloto1stroke" fill="none" stroke="black"  points="650,303.4621 644.94946,300.69336 639.899,303.7716 634.8485,307.44452 629.798,306.71323 624.7475,306.94418 619.697,309.88998 614.6465,307.6906 609.59595,311.06226 604.5455,312.21924 599.495,313.7131 594.44446,313.34048 589.3939,313.53732 584.34344,315.68152 579.29297,315.00775 574.24243,317.3541 569.1919,318.78027 564.1414,319.85828 559.09094,319.45828 554.0404,319.9638 548.98987,323.6407 543.9394,322.14594 538.8889,322.67252 533.8384,323.47726 528.78784,326.39838 523.73737,327.04327 518.6869,326.5045 513.63635,328.86795 508.58588,330.00488 503.53537,330.86774 498.48486,331.7564 493.43436,331.6558 488.38385,332.5343 483.33334,334.15015 478.28284,336.35187 473.23233,336.25177 468.18182,336.7044 463.13132,332.13507 458.0808,338.92184 453.0303,339.85806 447.9798,340.36465 442.9293,341.50446 437.87878,342.8619 432.82828,342.2965 427.77777,345.25247 422.72726,349.66946 417.67676,351.31412 412.62628,352.93262 407.57578,354.72766 402.52527,354.2223 397.47473,355.3442 392.42426,355.76785 387.37375,356.70767 382.32324,358.48804 377.27274,359.40393 372.22223,359.75546 367.17172,360.01733 362.12122,361.2564 357.0707,362.0062 352.0202,363.02148 346.9697,363.46457 341.9192,364.57132 336.86868,365.5737 331.81818,366.50317 326.7677,367.43484 321.71716,368.00513 316.6667,369.23358 311.61615,369.3437 306.56567,370.6736 301.51514,371.48367 296.46466,372.13058 291.41412,373.08594 286.36365,376.81644 281.31314,377.64175 276.26263,378.64594 271.21213,379.47385 266.16162,380.40717 261.1111,381.0958 256.0606,382.08386 251.0101,381.94482 245.9596,383.43237 240.90909,383.85608 235.85858,384.71704 230.80807,385.38544 225.75757,386.45786 220.70706,387.4826 215.65657,389.61206 210.60606,390.41882 205.55556,390.92822 200.50505,391.8586 195.45454,392.42917 190.40404,393.23636 185.35353,394.10406 180.30302,395.26666 175.25253,396.2524 170.20203,396.82584 165.15152,397.8955 160.10101,398.55774 155.0505,399.2845 150,399.9999 "/><text class="poloto_text" alignment-baseline="middle" text-anchor="start" font-size="large" x="675" y="200" >direct_par</text><line class="poloto2stroke" stroke="black" x1="680" x2="730" y1="181.25" y2="181.25" /><polyline class="poloto2stroke" fill="none" stroke="black"  points="650,262.42578 644.94946,259.51782 639.899,302.22095 634.8485,303.7204 629.798,300.92935 624.7475,302.35986 619.697,305.247 614.6465,300.21387 609.59595,302.8822 604.5455,306.9432 599.495,305.56207 594.44446,306.97653 589.3939,307.88452 584.34344,272.18863 579.29297,306.8905 574.24243,309.63202 569.1919,309.35773 564.1414,314.05994 559.09094,307.98315 554.0404,317.97595 548.98987,315.26782 543.9394,318.3702 538.8889,320.735 533.8384,321.78888 528.78784,317.9469 523.73737,323.42914 518.6869,325.68204 513.63635,324.03403 508.58588,321.0561 503.53537,323.70346 498.48486,326.2876 493.43436,324.98544 488.38385,331.95557 483.33334,327.68878 478.28284,330.62357 473.23233,329.61987 468.18182,333.44897 463.13132,335.06946 458.0808,335.43463 453.0303,339.8683 447.9798,339.25626 442.9293,334.23755 437.87878,334.14972 432.82828,341.15744 427.77777,343.7216 422.72726,343.48682 417.67676,340.48267 412.62628,343.15768 407.57578,343.21976 402.52527,345.2648 397.47473,351.92792 392.42426,348.10373 387.37375,349.12552 382.32324,351.46133 377.27274,353.02402 372.22223,355.5488 367.17172,353.32944 362.12122,355.02216 357.0707,355.87946 352.0202,354.03076 346.9697,357.78842 341.9192,358.17328 336.86868,360.49365 331.81818,362.10873 326.7677,358.3793 321.71716,362.5938 316.6667,362.74927 311.61615,364.68396 306.56567,363.57022 301.51514,363.87082 296.46466,366.00314 291.41412,368.86 286.36365,370.96335 281.31314,369.51566 276.26263,373.2062 271.21213,374.14563 266.16162,373.53763 261.1111,376.1108 256.0606,377.18668 251.0101,377.95642 245.9596,377.5312 240.90909,381.89322 235.85858,380.96997 230.80807,381.23505 225.75757,377.77234 220.70706,379.86893 215.65657,380.43027 210.60606,380.88742 205.55556,383.33023 200.50505,384.35403 195.45454,384.3371 190.40404,384.45828 185.35353,386.26212 180.30302,388.37863 175.25253,390.44543 170.20203,392.3239 165.15152,394.95212 160.10101,396.5691 155.0505,398.4212 150,399.99796 "/><text class="poloto_text" alignment-baseline="middle" text-anchor="start" font-size="large" x="675" y="250" >direct_seq</text><line class="poloto3stroke" stroke="black" x1="680" x2="730" y1="231.25" y2="231.25" /><polyline class="poloto3stroke" fill="none" stroke="black"  points="650,101.37549 644.94946,100 639.899,113.17508 634.8485,124.45447 629.798,123.471436 624.7475,122.33566 619.697,131.56433 614.6465,118.50198 609.59595,136.68741 604.5455,140.50015 599.495,144.33734 594.44446,143.61853 589.3939,140.55511 584.34344,150.2524 579.29297,143.49512 574.24243,156.33408 569.1919,159.70062 564.1414,158.44398 559.09094,161.69447 554.0404,161.77818 548.98987,173.52876 543.9394,168.56586 538.8889,170.44612 533.8384,169.60242 528.78784,183.36679 523.73737,183.70126 518.6869,185.07089 513.63635,191.36086 508.58588,194.86813 503.53537,199.49947 498.48486,202.84877 493.43436,197.77234 488.38385,200.75708 483.33334,208.43417 478.28284,217.68349 473.23233,216.28069 468.18182,215.70139 463.13132,191.70435 458.0808,223.79257 453.0303,225.17032 447.9798,226.87646 442.9293,226.3147 437.87878,233.80267 432.82828,232.9392 427.77777,240.39874 422.72726,249.59909 417.67676,256.61484 412.62628,262.01093 407.57578,266.01685 402.52527,266.82446 397.47473,269.9452 392.42426,271.35718 387.37375,275.03333 382.32324,279.54285 377.27274,282.26294 372.22223,283.1407 367.17172,285.4849 362.12122,288.92114 357.0707,290.26398 352.0202,293.1031 346.9697,294.7976 341.9192,299.23996 336.86868,301.87894 331.81818,304.79608 326.7677,307.02454 321.71716,309.40207 316.6667,312.36963 311.61615,313.9939 306.56567,317.18713 301.51514,320.08875 296.46466,321.4085 291.41412,324.2401 286.36365,334.51865 281.31314,336.32062 276.26263,338.26834 271.21213,342.20038 266.16162,344.8108 261.1111,346.71582 256.0606,349.54883 251.0101,349.15378 245.9596,353.8495 240.90909,354.37 235.85858,357.78336 230.80807,360.3738 225.75757,362.36487 220.70706,365.3027 215.65657,371.25903 210.60606,373.669 205.55556,374.45322 200.50505,377.84012 195.45454,379.49356 190.40404,381.8785 185.35353,384.59195 180.30302,387.3841 175.25253,389.7996 170.20203,391.64133 165.15152,394.52744 160.10101,396.18066 155.0505,398.2814 150,399.99786 "/><text class="poloto_text" alignment-baseline="middle" text-anchor="start" font-size="large" x="675" y="300" >indirect_par</text><line class="poloto4stroke" stroke="black" x1="680" x2="730" y1="281.25" y2="281.25" /><polyline class="poloto4stroke" fill="none" stroke="black"  points="650,338.20465 644.94946,346.85083 639.899,355.643 634.8485,359.628 629.798,356.198 624.7475,360.0005 619.697,358.05307 614.6465,359.4371 609.59595,353.73468 604.5455,362.63077 599.495,355.46396 594.44446,361.9642 589.3939,362.28857 584.34344,359.7896 579.29297,359.19803 574.24243,360.5327 569.1919,360.5857 564.1414,359.46664 559.09094,359.141 554.0404,365.07465 548.98987,365.4201 543.9394,365.2968 538.8889,364.73904 533.8384,366.8913 528.78784,359.5789 523.73737,368.8469 518.6869,365.15912 513.63635,365.28995 508.58588,367.46585 503.53537,369.27054 498.48486,370.0745 493.43436,364.4112 488.38385,369.73322 483.33334,371.85526 478.28284,371.3603 473.23233,367.0132 468.18182,372.3694 463.13132,371.9557 458.0808,368.55737 453.0303,372.06537 447.9798,373.25296 442.9293,371.72357 437.87878,373.98975 432.82828,369.51944 427.77777,374.71368 422.72726,374.7845 417.67676,375.1424 412.62628,377.67148 407.57578,376.47174 402.52527,376.5887 397.47473,378.933 392.42426,377.0395 387.37375,376.43008 382.32324,379.55933 377.27274,378.01535 372.22223,378.6059 367.17172,379.15112 362.12122,379.2022 357.0707,380.28183 352.0202,381.9786 346.9697,380.3009 341.9192,380.6446 336.86868,381.24188 331.81818,381.5247 326.7677,382.85605 321.71716,383.63068 316.6667,384.38852 311.61615,377.6673 306.56567,385.6306 301.51514,383.08878 296.46466,382.1422 291.41412,384.7732 286.36365,384.10425 281.31314,383.89343 276.26263,384.2719 271.21213,388.11288 266.16162,389.38007 261.1111,384.2904 256.0606,388.26083 251.0101,387.45392 245.9596,388.21954 240.90909,392.91037 235.85858,390.1367 230.80807,389.67703 225.75757,390.73364 220.70706,390.6183 215.65657,391.2101 210.60606,388.08005 205.55556,390.23215 200.50505,389.4189 195.45454,390.01376 190.40404,389.86023 185.35353,392.1038 180.30302,395.8138 175.25253,396.5932 170.20203,397.24973 165.15152,398.269 160.10101,398.775 155.0505,399.4294 150,399.99847 "/><text class="poloto_text" alignment-baseline="middle" text-anchor="start" font-size="large" x="675" y="350" >indirect_seq</text><line class="poloto5stroke" stroke="black" x1="680" x2="730" y1="331.25" y2="331.25" /><polyline class="poloto5stroke" fill="none" stroke="black"  points="650,291.28864 644.94946,289.1938 639.899,285.1912 634.8485,299.20306 629.798,290.25513 624.7475,289.22778 619.697,294.18164 614.6465,297.14386 609.59595,302.67426 604.5455,304.24576 599.495,298.9118 594.44446,304.31033 589.3939,304.82275 584.34344,305.1111 579.29297,307.45636 574.24243,308.66113 569.1919,305.91208 564.1414,307.44165 559.09094,305.65686 554.0404,306.46765 548.98987,312.3812 543.9394,309.44025 538.8889,309.63928 533.8384,311.32462 528.78784,315.6112 523.73737,315.03897 518.6869,314.82162 513.63635,323.8744 508.58588,324.3989 503.53537,326.05243 498.48486,326.85056 493.43436,321.29236 488.38385,327.29965 483.33334,328.6508 478.28284,332.71017 473.23233,331.945 468.18182,332.17065 463.13132,325.7061 458.0808,334.77225 453.0303,332.377 447.9798,333.41104 442.9293,334.95752 437.87878,336.1013 432.82828,334.6109 427.77777,339.4269 422.72726,341.9068 417.67676,343.07422 412.62628,348.71075 407.57578,351.6467 402.52527,350.97388 397.47473,351.6544 392.42426,351.85785 387.37375,351.5096 382.32324,355.99 377.27274,356.7937 372.22223,356.85916 367.17172,357.85522 362.12122,359.04 357.0707,359.7854 352.0202,360.46667 346.9697,361.4016 341.9192,362.98044 336.86868,363.63184 331.81818,365.01126 326.7677,366.26352 321.71716,364.9947 316.6667,367.69464 311.61615,368.22266 306.56567,369.49258 301.51514,370.5558 296.46466,369.3293 291.41412,372.2737 286.36365,375.81204 281.31314,376.4709 276.26263,377.81644 271.21213,378.61298 266.16162,379.78104 261.1111,380.41605 256.0606,381.6933 251.0101,381.2991 245.9596,382.91064 240.90909,383.87222 235.85858,384.7835 230.80807,385.15933 225.75757,386.5392 220.70706,387.55356 215.65657,389.05438 210.60606,390.53433 205.55556,391.02774 200.50505,391.7684 195.45454,392.5097 190.40404,393.40646 185.35353,394.32477 180.30302,395.44406 175.25253,396.47552 170.20203,397.05524 165.15152,398.06168 160.10101,398.6983 155.0505,399.3568 150,400 "/><text class="poloto_text" alignment-baseline="start" text-anchor="middle" font-size="x-large" x="400" y="37.5" >Bench of rebal:128_bytes with abspiral(num,1)</text><text class="poloto_text" alignment-baseline="start" text-anchor="middle" font-size="x-large" x="400" y="481.25" >Number of Elements</text><text class="poloto_text" alignment-baseline="start" text-anchor="middle" font-size="x-large" transform="rotate(-90,37.5,250)" x="37.5" y="250" >Time in Seconds</text><path stroke="black" fill="none" class="poloto_axis_lines"  d="M 150 100 L 150 400 L 650 400 "/></svg>