<svg class="poloto" width="800" height="500" viewBox="0 0 800 500" xmlns="http://www.w3.org/2000/svg" ><rect class="poloto_background" fill="white" x="0" y="0" width="800" height="500" /><style><style>.poloto {
            font-family: "Arial";
            stroke-width:2;
            }
            .poloto_text{fill: var(--poloto_fg_color,black);  }
            .poloto_axis_lines{stroke: var(--poloto_fg_color,black);stoke-width:3;fill:none}
            .poloto_background{fill: var(--poloto_bg_color,aliceblue); }
            .poloto0stroke{stroke:  var(--poloto_color0,blue); }
            .poloto1stroke{stroke:  var(--poloto_color1,red); }
            .poloto2stroke{stroke:  var(--poloto_color2,green); }
            .poloto3stroke{stroke:  var(--poloto_color3,gold); }
            .poloto4stroke{stroke:  var(--poloto_color4,aqua); }
            .poloto5stroke{stroke:  var(--poloto_color5,brown); }
            .poloto6stroke{stroke:  var(--poloto_color6,lime); }
            .poloto7stroke{stroke:  var(--poloto_color7,chocolate); }
            .poloto0fill{fill:var(--poloto_color0,blue);}
            .poloto1fill{fill:var(--poloto_color1,red);}
            .poloto2fill{fill:var(--poloto_color2,green);}
            .poloto3fill{fill:var(--poloto_color3,gold);}
            .poloto4fill{fill:var(--poloto_color4,aqua);}
            .poloto5fill{fill:var(--poloto_color5,brown);}
            .poloto6fill{fill:var(--poloto_color6,lime);}
            .poloto7fill{fill:var(--poloto_color7,chocolate);}</style></style><line class="poloto_axis_lines" stroke="black" x1="150" x2="150" y1="400" y2="405" /><text class="poloto_text" alignment-baseline="start" text-anchor="middle" x="150" y="430" >0</text><line class="poloto_axis_lines" stroke="black" x1="234.17508" x2="234.17508" y1="400" y2="405" /><text class="poloto_text" alignment-baseline="start" text-anchor="middle" x="234.17508" y="430" >5000</text><line class="poloto_axis_lines" stroke="black" x1="318.35016" x2="318.35016" y1="400" y2="405" /><text class="poloto_text" alignment-baseline="start" text-anchor="middle" x="318.35016" y="430" >10000</text><line class="poloto_axis_lines" stroke="black" x1="402.52527" x2="402.52527" y1="400" y2="405" /><text class="poloto_text" alignment-baseline="start" text-anchor="middle" x="402.52527" y="430" >15000</text><line class="poloto_axis_lines" stroke="black" x1="486.70035" x2="486.70035" y1="400" y2="405" /><text class="poloto_text" alignment-baseline="start" text-anchor="middle" x="486.70035" y="430" >20000</text><line class="poloto_axis_lines" stroke="black" x1="570.8754" x2="570.8754" y1="400" y2="405" /><text class="poloto_text" alignment-baseline="start" text-anchor="middle" x="570.8754" y="430" >25000</text><line class="poloto_axis_lines" stroke="black" x1="150" x2="144" y1="360.9746" y2="360.9746" /><text class="poloto_text" alignment-baseline="middle" text-anchor="end" x="135" y="360.9746" >0.0005</text><line class="poloto_axis_lines" stroke="black" x1="150" x2="144" y1="321.93735" y2="321.93735" /><text class="poloto_text" alignment-baseline="middle" text-anchor="end" x="135" y="321.93735" >0.0010</text><line class="poloto_axis_lines" stroke="black" x1="150" x2="144" y1="282.9001" y2="282.9001" /><text class="poloto_text" alignment-baseline="middle" text-anchor="end" x="135" y="282.9001" >0.0015</text><line class="poloto_axis_lines" stroke="black" x1="150" x2="144" y1="243.86285" y2="243.86285" /><text class="poloto_text" alignment-baseline="middle" text-anchor="end" x="135" y="243.86285" >0.0020</text><line class="poloto_axis_lines" stroke="black" x1="150" x2="144" y1="204.82556" y2="204.82556" /><text class="poloto_text" alignment-baseline="middle" text-anchor="end" x="135" y="204.82556" >0.0025</text><line class="poloto_axis_lines" stroke="black" x1="150" x2="144" y1="165.7883" y2="165.7883" /><text class="poloto_text" alignment-baseline="middle" text-anchor="end" x="135" y="165.7883" >0.0030</text><line class="poloto_axis_lines" stroke="black" x1="150" x2="144" y1="126.75107" y2="126.75107" /><text class="poloto_text" alignment-baseline="middle" text-anchor="end" x="135" y="126.75107" >0.0035</text><text class="poloto_text" alignment-baseline="middle" text-anchor="start" font-size="large" x="675" y="100" >default_par</text><line class="poloto0stroke" stroke="black" x1="680" x2="730" y1="81.25" y2="81.25" /><polyline class="poloto0stroke" fill="none" stroke="black"  points="650,273.3814 644.94946,311.77722 639.899,300.5982 634.8485,315.1634 629.798,310.69235 624.7475,313.08472 619.697,313.92004 614.6465,318.09836 609.59595,311.63208 604.5455,312.2658 599.495,316.38065 594.44446,312.2858 589.3939,322.05487 584.34344,314.4337 579.29297,320.07224 574.24243,319.53857 569.1919,325.1861 564.1414,309.14532 559.09094,324.71353 554.0404,288.9148 548.98987,327.74625 543.9394,315.41565 538.8889,315.9527 533.8384,322.68655 528.78784,325.13644 523.73737,319.7832 518.6869,330.3594 513.63635,330.43536 508.58588,319.62402 503.53537,334.6019 498.48486,332.80963 493.43436,337.2381 488.38385,332.06058 483.33334,337.76007 478.28284,324.9244 473.23233,338.42865 468.18182,342.5309 463.13132,338.88913 458.0808,343.50168 453.0303,341.34216 447.9798,338.02243 442.9293,334.99 437.87878,342.2222 432.82828,345.38696 427.77777,346.63528 422.72726,346.42236 417.67676,351.33786 412.62628,344.96176 407.57578,343.3923 402.52527,343.8582 397.47473,357.06058 392.42426,348.29233 387.37375,352.02783 382.32324,348.587 377.27274,357.1695 372.22223,354.10217 367.17172,357.25848 362.12122,360.13657 357.0707,356.83893 352.0202,353.87567 346.9697,361.30643 341.9192,363.10245 336.86868,358.8377 331.81818,355.90555 326.7677,355.8289 321.71716,357.03223 316.6667,356.4081 311.61615,359.6739 306.56567,367.48557 301.51514,363.49985 296.46466,362.52362 291.41412,369.83475 286.36365,366.36285 281.31314,372.14862 276.26263,366.9035 271.21213,377.4788 266.16162,365.4387 261.1111,376.84396 256.0606,368.17325 251.0101,372.39792 245.9596,370.1831 240.90909,374.5822 235.85858,365.57867 230.80807,374.902 225.75757,376.70062 220.70706,379.75177 215.65657,372.27957 210.60606,372.6169 205.55556,376.1106 200.50505,375.6448 195.45454,373.41922 190.40404,378.48328 185.35353,374.37204 180.30302,388.64108 175.25253,390.5384 170.20203,392.14352 165.15152,394.82193 160.10101,396.3494 155.0505,398.37534 150,399.9992 "/><text class="poloto_text" alignment-baseline="middle" text-anchor="start" font-size="large" x="675" y="150" >default_seq</text><line class="poloto1stroke" stroke="black" x1="680" x2="730" y1="131.25" y2="131.25" /><polyline class="poloto1stroke" fill="none" stroke="black"  points="650,155.54027 644.94946,157.98041 639.899,159.34937 634.8485,158.75279 629.798,161.99039 624.7475,165.65575 619.697,170.91914 614.6465,173.98341 609.59595,172.5997 604.5455,174.03596 599.495,182.53032 594.44446,178.28876 589.3939,186.98172 584.34344,186.86368 579.29297,191.43143 574.24243,190.09325 569.1919,188.66727 564.1414,192.73972 559.09094,199.17618 554.0404,196.85527 548.98987,204.08263 543.9394,204.55585 538.8889,208.02882 533.8384,211.42569 528.78784,212.24399 523.73737,217.38528 518.6869,217.94444 513.63635,222.21683 508.58588,219.45886 503.53537,224.16736 498.48486,227.25786 493.43436,228.82794 488.38385,232.9609 483.33334,237.27742 478.28284,236.19116 473.23233,241.58298 468.18182,243.23723 463.13132,245.35086 458.0808,245.66534 453.0303,248.59642 447.9798,250.94046 442.9293,254.38806 437.87878,255.45909 432.82828,258.56973 427.77777,260.3656 422.72726,275.89862 417.67676,275.26862 412.62628,278.87732 407.57578,279.5426 402.52527,283.97308 397.47473,285.04004 392.42426,286.58865 387.37375,290.72113 382.32324,293.88995 377.27274,295.31067 372.22223,296.4895 367.17172,300.89597 362.12122,303.2443 357.0707,302.78513 352.0202,305.81818 346.9697,308.89893 341.9192,309.2297 336.86868,313.83197 331.81818,313.60306 326.7677,316.9252 321.71716,318.2378 316.6667,320.86734 311.61615,325.73044 306.56567,326.84833 301.51514,327.78708 296.46466,330.85797 291.41412,333.4292 286.36365,341.35715 281.31314,343.39667 276.26263,345.68027 271.21213,347.15472 266.16162,349.31113 261.1111,350.79626 256.0606,353.6677 251.0101,355.4987 245.9596,357.95483 240.90909,360.64886 235.85858,362.0098 230.80807,364.76288 225.75757,366.59958 220.70706,367.5544 215.65657,373.1116 210.60606,375.57385 205.55556,377.17218 200.50505,379.1413 195.45454,380.97324 190.40404,382.75638 185.35353,384.31802 180.30302,388.0068 175.25253,389.81635 170.20203,391.89603 165.15152,394.43814 160.10101,396.14484 155.0505,398.2104 150,399.9965 "/><text class="poloto_text" alignment-baseline="middle" text-anchor="start" font-size="large" x="675" y="200" >direct_par</text><line class="poloto2stroke" stroke="black" x1="680" x2="730" y1="181.25" y2="181.25" /><polyline class="poloto2stroke" fill="none" stroke="black"  points="650,287.08386 644.94946,300.59116 639.899,308.95755 634.8485,310.29193 629.798,312.46457 624.7475,307.57578 619.697,314.8119 614.6465,316.72784 609.59595,312.17548 604.5455,318.7434 599.495,318.75317 594.44446,313.3473 589.3939,309.849 584.34344,311.94617 579.29297,321.59344 574.24243,321.23553 569.1919,321.48373 564.1414,320.73868 559.09094,326.33365 554.0404,327.59674 548.98987,326.88776 543.9394,319.09583 538.8889,320.74564 533.8384,324.643 528.78784,328.80814 523.73737,326.52753 518.6869,328.0922 513.63635,329.56006 508.58588,324.23822 503.53537,336.15543 498.48486,330.05475 493.43436,332.53583 488.38385,329.97662 483.33334,339.48358 478.28284,340.63354 473.23233,336.77002 468.18182,337.06763 463.13132,339.93695 458.0808,342.26373 453.0303,341.9034 447.9798,336.62637 442.9293,334.39648 437.87878,342.3465 432.82828,347.70685 427.77777,311.9724 422.72726,348.71902 417.67676,342.55286 412.62628,350.21304 407.57578,352.3957 402.52527,351.02283 397.47473,360.0606 392.42426,354.36615 387.37375,346.01437 382.32324,350.644 377.27274,353.74976 372.22223,355.0895 367.17172,354.05963 362.12122,353.03558 357.0707,354.89136 352.0202,351.06375 346.9697,357.96896 341.9192,359.95557 336.86868,357.79987 331.81818,358.10013 326.7677,358.72824 321.71716,358.97418 316.6667,365.00412 311.61615,365.00833 306.56567,366.2892 301.51514,355.06946 296.46466,358.86987 291.41412,362.62473 286.36365,367.77905 281.31314,370.2882 276.26263,366.49347 271.21213,362.99948 266.16162,362.9295 261.1111,375.96375 256.0606,373.64392 251.0101,374.8215 245.9596,367.43863 240.90909,368.57596 235.85858,374.6777 230.80807,374.39157 225.75757,375.6902 220.70706,379.68835 215.65657,378.2227 210.60606,369.57834 205.55556,370.34143 200.50505,375.8112 195.45454,373.7273 190.40404,378.3504 185.35353,379.40527 180.30302,388.9041 175.25253,390.87503 170.20203,392.40094 165.15152,395.05173 160.10101,396.52216 155.0505,398.44077 150,399.99493 "/><text class="poloto_text" alignment-baseline="middle" text-anchor="start" font-size="large" x="675" y="250" >direct_seq</text><line class="poloto3stroke" stroke="black" x1="680" x2="730" y1="231.25" y2="231.25" /><polyline class="poloto3stroke" fill="none" stroke="black"  points="650,100 644.94946,157.96269 639.899,162.12172 634.8485,160.08693 629.798,164.42389 624.7475,167.848 619.697,172.3992 614.6465,176.21222 609.59595,174.53299 604.5455,176.81644 599.495,182.98376 594.44446,180.32681 589.3939,187.77176 584.34344,188.28355 579.29297,192.98987 574.24243,191.90793 569.1919,190.3024 564.1414,194.75584 559.09094,200.26321 554.0404,199.59021 548.98987,204.59401 543.9394,207.91943 538.8889,209.86615 533.8384,213.75255 528.78784,213.69063 523.73737,218.71559 518.6869,220.01434 513.63635,223.47049 508.58588,221.1765 503.53537,226.5463 498.48486,229.45786 493.43436,230.51125 488.38385,234.298 483.33334,238.38075 478.28284,237.37915 473.23233,242.31236 468.18182,245.38661 463.13132,246.49529 458.0808,248.30005 453.0303,250.41533 447.9798,252.85156 442.9293,256.6015 437.87878,256.26508 432.82828,260.60547 427.77777,263.01718 422.72726,278.6851 417.67676,278.06168 412.62628,283.13916 407.57578,281.85797 402.52527,286.07297 397.47473,286.8886 392.42426,288.28412 387.37375,292.87793 382.32324,296.22647 377.27274,296.27777 372.22223,297.6322 367.17172,302.6734 362.12122,304.20093 357.0707,304.6045 352.0202,307.84833 346.9697,310.7165 341.9192,311.22632 336.86868,315.39877 331.81818,315.19116 326.7677,317.49826 321.71716,320.54926 316.6667,322.5764 311.61615,326.5616 306.56567,327.4705 301.51514,329.6821 296.46466,332.08102 291.41412,334.74518 286.36365,342.8934 281.31314,344.78015 276.26263,347.12732 271.21213,348.3506 266.16162,350.46704 261.1111,351.14957 256.0606,354.62668 251.0101,356.37616 245.9596,359.00674 240.90909,361.52988 235.85858,362.84146 230.80807,365.63934 225.75757,367.5494 220.70706,369.14737 215.65657,373.96988 210.60606,375.83197 205.55556,377.89304 200.50505,379.71664 195.45454,381.61197 190.40404,383.17853 185.35353,384.91257 180.30302,388.36618 175.25253,390.10492 170.20203,392.06012 165.15152,394.62543 160.10101,396.30646 155.0505,398.2602 150,399.99408 "/><text class="poloto_text" alignment-baseline="middle" text-anchor="start" font-size="large" x="675" y="300" >indirect_par</text><line class="poloto4stroke" stroke="black" x1="680" x2="730" y1="281.25" y2="281.25" /><polyline class="poloto4stroke" fill="none" stroke="black"  points="650,296.61676 644.94946,308.5898 639.899,298.28702 634.8485,298.30045 629.798,313.32935 624.7475,311.29245 619.697,312.67725 614.6465,314.06378 609.59595,311.00998 604.5455,318.23102 599.495,320.48196 594.44446,312.7632 589.3939,320.84766 584.34344,312.28314 579.29297,311.6366 574.24243,317.37817 569.1919,308.9726 564.1414,325.03333 559.09094,324.23346 554.0404,325.0486 548.98987,318.12506 543.9394,313.11588 538.8889,317.00342 533.8384,329.8612 528.78784,314.67688 523.73737,318.45157 518.6869,326.73105 513.63635,317.725 508.58588,332.75177 503.53537,329.1641 498.48486,329.04034 493.43436,334.34198 488.38385,329.1861 483.33334,337.84653 478.28284,332.434 473.23233,329.14496 468.18182,340.09958 463.13132,336.3008 458.0808,335.01373 453.0303,333.8266 447.9798,335.67526 442.9293,343.50598 437.87878,326.6283 432.82828,347.47403 427.77777,321.47375 422.72726,350.12155 417.67676,344.8583 412.62628,347.23288 407.57578,347.5857 402.52527,343.54346 397.47473,351.0163 392.42426,352.41257 387.37375,350.58203 382.32324,355.20734 377.27274,348.27127 372.22223,346.40012 367.17172,358.94693 362.12122,350.90558 357.0707,353.83093 352.0202,355.17297 346.9697,355.24994 341.9192,355.62628 336.86868,360.36594 331.81818,362.15073 326.7677,364.14203 321.71716,359.37433 316.6667,366.90225 311.61615,363.6685 306.56567,367.3719 301.51514,360.1472 296.46466,364.8578 291.41412,361.4906 286.36365,372.5985 281.31314,368.13287 276.26263,370.4374 271.21213,360.99078 266.16162,371.78113 261.1111,376.0907 256.0606,376.8634 251.0101,368.9966 245.9596,374.0467 240.90909,372.2374 235.85858,372.52426 230.80807,378.91785 225.75757,378.49884 220.70706,382.53098 215.65657,374.3586 210.60606,374.9298 205.55556,370.98547 200.50505,373.4887 195.45454,373.71698 190.40404,377.97916 185.35353,376.60934 180.30302,389.98608 175.25253,391.64984 170.20203,393.14038 165.15152,395.03455 160.10101,396.8227 155.0505,398.581 150,399.9972 "/><text class="poloto_text" alignment-baseline="middle" text-anchor="start" font-size="large" x="675" y="350" >indirect_seq</text><line class="poloto5stroke" stroke="black" x1="680" x2="730" y1="331.25" y2="331.25" /><polyline class="poloto5stroke" fill="none" stroke="black"  points="650,163.2124 644.94946,167.56804 639.899,170.11217 634.8485,164.28648 629.798,168.86484 624.7475,174.96645 619.697,176.67776 614.6465,179.70035 609.59595,179.12456 604.5455,186.02954 599.495,192.91461 594.44446,184.46405 589.3939,195.92625 584.34344,193.88484 579.29297,200.34091 574.24243,199.64082 569.1919,200.26697 564.1414,203.33467 559.09094,206.3033 554.0404,205.10135 548.98987,209.48631 543.9394,214.76923 538.8889,217.22372 533.8384,221.45998 528.78784,221.19936 523.73737,226.3743 518.6869,226.05545 513.63635,229.42836 508.58588,226.1407 503.53537,232.65079 498.48486,237.34268 493.43436,233.09917 488.38385,238.63794 483.33334,246.1284 478.28284,240.61696 473.23233,248.36789 468.18182,250.9317 463.13132,251.22136 458.0808,255.0923 453.0303,255.29333 447.9798,258.29028 442.9293,262.26868 437.87878,261.7874 432.82828,265.48807 427.77777,267.90564 422.72726,283.01166 417.67676,281.58377 412.62628,289.39636 407.57578,285.08603 402.52527,291.23947 397.47473,291.34723 392.42426,293.35944 387.37375,297.8017 382.32324,300.59387 377.27274,301.52634 372.22223,301.70255 367.17172,306.84515 362.12122,308.38535 357.0707,308.66226 352.0202,311.8841 346.9697,314.45993 341.9192,315.01184 336.86868,319.55054 331.81818,318.7377 326.7677,322.70273 321.71716,324.6662 316.6667,326.8238 311.61615,331.84274 306.56567,332.24475 301.51514,333.8744 296.46466,336.57056 291.41412,337.8349 286.36365,345.21136 281.31314,347.42984 276.26263,349.13937 271.21213,351.44037 266.16162,353.50076 261.1111,354.167 256.0606,357.65747 251.0101,359.87073 245.9596,361.392 240.90909,364.26788 235.85858,365.32703 230.80807,368.15332 225.75757,369.61862 220.70706,371.13342 215.65657,375.74725 210.60606,377.83707 205.55556,379.55627 200.50505,381.12024 195.45454,383.0419 190.40404,384.59637 185.35353,385.9914 180.30302,389.25873 175.25253,390.90283 170.20203,392.7043 165.15152,395.0593 160.10101,396.63757 155.0505,398.4365 150,400 "/><text class="poloto_text" alignment-baseline="start" text-anchor="middle" font-size="x-large" x="400" y="37.5" >Bench of rebal:8_bytes with abspiral(num,0.1)</text><text class="poloto_text" alignment-baseline="start" text-anchor="middle" font-size="x-large" x="400" y="481.25" >Number of Elements</text><text class="poloto_text" alignment-baseline="start" text-anchor="middle" font-size="x-large" transform="rotate(-90,37.5,250)" x="37.5" y="250" >Time in Seconds</text><path stroke="black" fill="none" class="poloto_axis_lines"  d="M 150 100 L 150 400 L 650 400 "/></svg>