<svg class="poloto" width="800" height="500" viewBox="0 0 800 500" xmlns="http://www.w3.org/2000/svg"><circle  r="1e5" class="poloto_background" /><text  class="poloto_text poloto_legend_text" x="675" y="100" >default_seq</text><line  class="poloto_scatter poloto_legend_icon poloto0stroke poloto0legend" stroke="black" x1="685" x2="685" y1="81.25" y2="81.25" /><path  class="poloto_scatter poloto0stroke" d=" M 650.00 253.42 h 0 M 644.95 255.53 h 0 M 639.90 254.65 h 0 M 634.85 260.67 h 0 M 629.80 258.31 h 0 M 624.75 262.34 h 0 M 619.70 262.20 h 0 M 614.65 264.48 h 0 M 609.60 269.31 h 0 M 604.55 268.03 h 0 M 599.49 271.79 h 0 M 594.44 270.16 h 0 M 589.39 274.18 h 0 M 584.34 272.88 h 0 M 579.29 275.07 h 0 M 574.24 274.48 h 0 M 569.19 278.60 h 0 M 564.14 278.83 h 0 M 559.09 283.16 h 0 M 554.04 282.74 h 0 M 548.99 285.56 h 0 M 543.94 285.59 h 0 M 538.89 289.62 h 0 M 533.84 288.74 h 0 M 528.79 292.70 h 0 M 523.74 293.08 h 0 M 518.69 290.69 h 0 M 513.64 291.96 h 0 M 508.59 295.26 h 0 M 503.54 296.39 h 0 M 498.48 298.48 h 0 M 493.43 301.06 h 0 M 488.38 303.62 h 0 M 483.33 302.40 h 0 M 478.28 305.36 h 0 M 473.23 309.66 h 0 M 468.18 307.36 h 0 M 463.13 313.03 h 0 M 458.08 308.22 h 0 M 453.03 312.92 h 0 M 447.98 314.38 h 0 M 442.93 316.53 h 0 M 437.88 319.22 h 0 M 432.83 315.94 h 0 M 427.78 319.59 h 0 M 422.73 320.68 h 0 M 417.68 323.13 h 0 M 412.63 323.48 h 0 M 407.58 325.42 h 0 M 402.53 325.14 h 0 M 397.47 328.90 h 0 M 392.42 330.54 h 0 M 387.37 334.75 h 0 M 382.32 304.56 h 0 M 377.27 335.65 h 0 M 372.22 336.39 h 0 M 367.17 339.60 h 0 M 362.12 338.86 h 0 M 357.07 341.05 h 0 M 352.02 341.77 h 0 M 346.97 344.66 h 0 M 341.92 345.94 h 0 M 336.87 344.25 h 0 M 331.82 349.26 h 0 M 326.77 349.21 h 0 M 321.72 349.16 h 0 M 316.67 353.02 h 0 M 311.62 353.35 h 0 M 306.57 356.27 h 0 M 301.52 358.15 h 0 M 296.46 360.21 h 0 M 291.41 360.79 h 0 M 286.36 365.73 h 0 M 281.31 367.68 h 0 M 276.26 369.43 h 0 M 271.21 370.26 h 0 M 266.16 372.00 h 0 M 261.11 374.02 h 0 M 256.06 374.77 h 0 M 251.01 376.13 h 0 M 245.96 376.27 h 0 M 240.91 377.82 h 0 M 235.86 379.12 h 0 M 230.81 380.18 h 0 M 225.76 382.55 h 0 M 220.71 382.67 h 0 M 215.66 383.88 h 0 M 210.61 386.11 h 0 M 205.56 386.52 h 0 M 200.51 388.27 h 0 M 195.45 389.22 h 0 M 190.40 390.32 h 0 M 185.35 391.90 h 0 M 180.30 394.03 h 0 M 175.25 395.08 h 0 M 170.20 396.07 h 0 M 165.15 397.05 h 0 M 160.10 398.13 h 0 M 155.05 399.19 h 0 M 150.00 399.99 h 0" /><text  class="poloto_text poloto_legend_text" x="675" y="150" >direct_seq</text><line  class="poloto_scatter poloto_legend_icon poloto1stroke poloto1legend" stroke="black" x1="685" x2="685" y1="131.25" y2="131.25" /><path  class="poloto_scatter poloto1stroke" d=" M 650.00 244.27 h 0 M 644.95 247.85 h 0 M 639.90 247.35 h 0 M 634.85 251.82 h 0 M 629.80 252.63 h 0 M 624.75 255.53 h 0 M 619.70 254.61 h 0 M 614.65 256.58 h 0 M 609.60 262.54 h 0 M 604.55 259.66 h 0 M 599.49 264.40 h 0 M 594.44 262.82 h 0 M 589.39 267.75 h 0 M 584.34 266.17 h 0 M 579.29 267.66 h 0 M 574.24 266.83 h 0 M 569.19 271.46 h 0 M 564.14 272.74 h 0 M 559.09 277.90 h 0 M 554.04 277.40 h 0 M 548.99 276.80 h 0 M 543.94 277.38 h 0 M 538.89 283.92 h 0 M 533.84 282.65 h 0 M 528.79 287.42 h 0 M 523.74 286.86 h 0 M 518.69 285.68 h 0 M 513.64 286.98 h 0 M 508.59 290.64 h 0 M 503.54 290.71 h 0 M 498.48 293.28 h 0 M 493.43 295.66 h 0 M 488.38 298.76 h 0 M 483.33 298.04 h 0 M 478.28 300.51 h 0 M 473.23 304.44 h 0 M 468.18 302.88 h 0 M 463.13 308.07 h 0 M 458.08 302.84 h 0 M 453.03 308.28 h 0 M 447.98 309.52 h 0 M 442.93 312.13 h 0 M 437.88 315.10 h 0 M 432.83 314.02 h 0 M 427.78 314.13 h 0 M 422.73 316.46 h 0 M 417.68 320.01 h 0 M 412.63 318.96 h 0 M 407.58 321.61 h 0 M 402.53 323.04 h 0 M 397.47 324.49 h 0 M 392.42 327.13 h 0 M 387.37 331.55 h 0 M 382.32 331.13 h 0 M 377.27 332.13 h 0 M 372.22 333.31 h 0 M 367.17 336.59 h 0 M 362.12 335.55 h 0 M 357.07 338.21 h 0 M 352.02 340.54 h 0 M 346.97 340.41 h 0 M 341.92 343.15 h 0 M 336.87 343.24 h 0 M 331.82 346.47 h 0 M 326.77 348.87 h 0 M 321.72 347.75 h 0 M 316.67 350.35 h 0 M 311.62 350.48 h 0 M 306.57 354.19 h 0 M 301.52 355.98 h 0 M 296.46 357.87 h 0 M 291.41 358.54 h 0 M 286.36 356.39 h 0 M 281.31 365.71 h 0 M 276.26 368.22 h 0 M 271.21 368.56 h 0 M 266.16 370.32 h 0 M 261.11 371.99 h 0 M 256.06 373.25 h 0 M 251.01 375.07 h 0 M 245.96 375.59 h 0 M 240.91 376.43 h 0 M 235.86 377.73 h 0 M 230.81 379.58 h 0 M 225.76 381.77 h 0 M 220.71 381.31 h 0 M 215.66 383.31 h 0 M 210.61 384.86 h 0 M 205.56 385.75 h 0 M 200.51 387.43 h 0 M 195.45 387.92 h 0 M 190.40 389.71 h 0 M 185.35 391.12 h 0 M 180.30 393.63 h 0 M 175.25 394.80 h 0 M 170.20 395.83 h 0 M 165.15 396.91 h 0 M 160.10 397.79 h 0 M 155.05 399.13 h 0 M 150.00 399.96 h 0" /><text  class="poloto_text poloto_legend_text" x="675" y="200" >indirect_seq</text><line  class="poloto_scatter poloto_legend_icon poloto2stroke poloto2legend" stroke="black" x1="685" x2="685" y1="181.25" y2="181.25" /><path  class="poloto_scatter poloto2stroke" d=" M 650.00 132.33 h 0 M 644.95 136.05 h 0 M 639.90 100.00 h 0 M 634.85 148.50 h 0 M 629.80 148.91 h 0 M 624.75 157.12 h 0 M 619.70 152.31 h 0 M 614.65 156.03 h 0 M 609.60 169.23 h 0 M 604.55 163.37 h 0 M 599.49 171.24 h 0 M 594.44 166.51 h 0 M 589.39 176.56 h 0 M 584.34 172.90 h 0 M 579.29 177.49 h 0 M 574.24 175.37 h 0 M 569.19 184.42 h 0 M 564.14 187.75 h 0 M 559.09 198.92 h 0 M 554.04 198.25 h 0 M 548.99 199.81 h 0 M 543.94 200.38 h 0 M 538.89 208.81 h 0 M 533.84 206.88 h 0 M 528.79 216.81 h 0 M 523.74 214.82 h 0 M 518.69 211.99 h 0 M 513.64 211.33 h 0 M 508.59 212.21 h 0 M 503.54 222.62 h 0 M 498.48 225.44 h 0 M 493.43 231.49 h 0 M 488.38 237.21 h 0 M 483.33 233.08 h 0 M 478.28 240.41 h 0 M 473.23 247.61 h 0 M 468.18 242.60 h 0 M 463.13 255.17 h 0 M 458.08 242.95 h 0 M 453.03 252.53 h 0 M 447.98 255.47 h 0 M 442.93 260.98 h 0 M 437.88 265.68 h 0 M 432.83 263.13 h 0 M 427.78 264.40 h 0 M 422.73 268.36 h 0 M 417.68 274.32 h 0 M 412.63 273.28 h 0 M 407.58 276.35 h 0 M 402.53 280.00 h 0 M 397.47 283.77 h 0 M 392.42 287.74 h 0 M 387.37 295.39 h 0 M 382.32 293.73 h 0 M 377.27 295.07 h 0 M 372.22 297.26 h 0 M 367.17 303.89 h 0 M 362.12 301.63 h 0 M 357.07 305.77 h 0 M 352.02 311.08 h 0 M 346.97 312.62 h 0 M 341.92 314.13 h 0 M 336.87 316.56 h 0 M 331.82 320.25 h 0 M 326.77 323.68 h 0 M 321.72 322.89 h 0 M 316.67 327.74 h 0 M 311.62 327.15 h 0 M 306.57 333.25 h 0 M 301.52 336.27 h 0 M 296.46 338.96 h 0 M 291.41 340.30 h 0 M 286.36 346.03 h 0 M 281.31 349.09 h 0 M 276.26 353.45 h 0 M 271.21 353.19 h 0 M 266.16 356.76 h 0 M 261.11 360.76 h 0 M 256.06 362.34 h 0 M 251.01 364.36 h 0 M 245.96 364.45 h 0 M 240.91 366.60 h 0 M 235.86 369.28 h 0 M 230.81 371.41 h 0 M 225.76 374.96 h 0 M 220.71 374.63 h 0 M 215.66 377.20 h 0 M 210.61 379.96 h 0 M 205.56 380.46 h 0 M 200.51 383.11 h 0 M 195.45 384.85 h 0 M 190.40 386.93 h 0 M 185.35 388.99 h 0 M 180.30 391.53 h 0 M 175.25 393.06 h 0 M 170.20 394.66 h 0 M 165.15 396.37 h 0 M 160.10 397.73 h 0 M 155.05 399.11 h 0 M 150.00 399.98 h 0" /><text  class="poloto_labels poloto_text poloto_title" x="400" y="37.5" >Bench of rebal:16_bytes with abspiral(num,1.5)</text><text  class="poloto_labels poloto_text poloto_xname" x="400" y="481.25" >Number of Elements</text><text  class="poloto_labels poloto_text poloto_yname" transform="rotate(-90,37.5,250)" x="37.5" y="250" >Time in Seconds</text><text  class="poloto_tick_labels poloto_text" dominant-baseline="middle" text-anchor="start" x="150" y="70" ></text><line  class="poloto_axis_lines" stroke="black" x1="150" x2="144" y1="400" y2="400" /><text  class="poloto_tick_labels poloto_text" dominant-baseline="middle" text-anchor="end" x="135" y="400" >0e0</text><line  class="poloto_axis_lines" stroke="black" x1="150" x2="144" y1="333.11090479541303" y2="333.11090479541303" /><text  class="poloto_tick_labels poloto_text" dominant-baseline="middle" text-anchor="end" x="135" y="333.11090479541303" >0.001</text><line  class="poloto_axis_lines" stroke="black" x1="150" x2="144" y1="266.22180959082607" y2="266.22180959082607" /><text  class="poloto_tick_labels poloto_text" dominant-baseline="middle" text-anchor="end" x="135" y="266.22180959082607" >0.002</text><line  class="poloto_axis_lines" stroke="black" x1="150" x2="144" y1="199.3327143862391" y2="199.3327143862391" /><text  class="poloto_tick_labels poloto_text" dominant-baseline="middle" text-anchor="end" x="135" y="199.3327143862391" >0.003</text><line  class="poloto_axis_lines" stroke="black" x1="150" x2="144" y1="132.44361918165208" y2="132.44361918165208" /><text  class="poloto_tick_labels poloto_text" dominant-baseline="middle" text-anchor="end" x="135" y="132.44361918165208" >0.004</text><text  class="poloto_tick_labels poloto_text" dominant-baseline="middle" text-anchor="start" x="440.00000000000006" y="70" ></text><line  class="poloto_axis_lines" stroke="black" x1="150" x2="150" y1="400" y2="405" /><text  class="poloto_tick_labels poloto_text" dominant-baseline="start" text-anchor="middle" x="150" y="430" >0</text><line  class="poloto_axis_lines" stroke="black" x1="234.17508417508418" x2="234.17508417508418" y1="400" y2="405" /><text  class="poloto_tick_labels poloto_text" dominant-baseline="start" text-anchor="middle" x="234.17508417508418" y="430" >5000</text><line  class="poloto_axis_lines" stroke="black" x1="318.35016835016836" x2="318.35016835016836" y1="400" y2="405" /><text  class="poloto_tick_labels poloto_text" dominant-baseline="start" text-anchor="middle" x="318.35016835016836" y="430" >10000</text><line  class="poloto_axis_lines" stroke="black" x1="402.52525252525254" x2="402.52525252525254" y1="400" y2="405" /><text  class="poloto_tick_labels poloto_text" dominant-baseline="start" text-anchor="middle" x="402.52525252525254" y="430" >15000</text><line  class="poloto_axis_lines" stroke="black" x1="486.7003367003367" x2="486.7003367003367" y1="400" y2="405" /><text  class="poloto_tick_labels poloto_text" dominant-baseline="start" text-anchor="middle" x="486.7003367003367" y="430" >20000</text><line  class="poloto_axis_lines" stroke="black" x1="570.8754208754208" x2="570.8754208754208" y1="400" y2="405" /><text  class="poloto_tick_labels poloto_text" dominant-baseline="start" text-anchor="middle" x="570.8754208754208" y="430" >25000</text><path  stroke="black" fill="none" class="poloto_axis_lines" style="stroke-dasharray:8.417508417508419;stroke-dashoffset:-0;" d=" M 150 400 L 650 400" /><path  stroke="black" fill="none" class="poloto_axis_lines" style="stroke-dasharray:6.688909520458698;stroke-dashoffset:-0;" d=" M 150 400 L 150 100" /></svg>