<svg class="poloto" width="800" height="500" viewBox="0 0 800 500" xmlns="http://www.w3.org/2000/svg" ><style><style>.poloto {
            font-family: "Arial";
            stroke-width:2;
            }
            .poloto_text{fill: var(--poloto_fg_color,black);  }
            .poloto_axis_lines{stroke: var(--poloto_fg_color,black);stoke-width:3;fill:none}
            .poloto_background{fill: var(--poloto_bg_color,aliceblue); }
            .poloto0stroke{stroke:  var(--poloto_color0,blue); }
            .poloto1stroke{stroke:  var(--poloto_color1,red); }
            .poloto2stroke{stroke:  var(--poloto_color2,green); }
            .poloto3stroke{stroke:  var(--poloto_color3,gold); }
            .poloto4stroke{stroke:  var(--poloto_color4,aqua); }
            .poloto5stroke{stroke:  var(--poloto_color5,brown); }
            .poloto6stroke{stroke:  var(--poloto_color6,lime); }
            .poloto7stroke{stroke:  var(--poloto_color7,chocolate); }
            .poloto0fill{fill:var(--poloto_color0,blue);}
            .poloto1fill{fill:var(--poloto_color1,red);}
            .poloto2fill{fill:var(--poloto_color2,green);}
            .poloto3fill{fill:var(--poloto_color3,gold);}
            .poloto4fill{fill:var(--poloto_color4,aqua);}
            .poloto5fill{fill:var(--poloto_color5,brown);}
            .poloto6fill{fill:var(--poloto_color6,lime);}
            .poloto7fill{fill:var(--poloto_color7,chocolate);}</style></style><rect class="poloto_background" fill="white" x="0" y="0" width="800" height="500" /><line class="poloto_axis_lines" stroke="black" x1="150" x2="150" y1="400" y2="405" /><text class="poloto_text" alignment-baseline="start" text-anchor="middle" x="150" y="430" >0</text><line class="poloto_axis_lines" stroke="black" x1="234.17508417508418" x2="234.17508417508418" y1="400" y2="405" /><text class="poloto_text" alignment-baseline="start" text-anchor="middle" x="234.17508417508418" y="430" >5000</text><line class="poloto_axis_lines" stroke="black" x1="318.35016835016836" x2="318.35016835016836" y1="400" y2="405" /><text class="poloto_text" alignment-baseline="start" text-anchor="middle" x="318.35016835016836" y="430" >10000</text><line class="poloto_axis_lines" stroke="black" x1="402.52525252525254" x2="402.52525252525254" y1="400" y2="405" /><text class="poloto_text" alignment-baseline="start" text-anchor="middle" x="402.52525252525254" y="430" >15000</text><line class="poloto_axis_lines" stroke="black" x1="486.7003367003367" x2="486.7003367003367" y1="400" y2="405" /><text class="poloto_text" alignment-baseline="start" text-anchor="middle" x="486.7003367003367" y="430" >20000</text><line class="poloto_axis_lines" stroke="black" x1="570.8754208754208" x2="570.8754208754208" y1="400" y2="405" /><text class="poloto_text" alignment-baseline="start" text-anchor="middle" x="570.8754208754208" y="430" >25000</text><line class="poloto_axis_lines" stroke="black" x1="150" x2="144" y1="359.85853336113905" y2="359.85853336113905" /><text class="poloto_text" alignment-baseline="middle" text-anchor="end" x="135" y="359.85853336113905" >0.0005</text><line class="poloto_axis_lines" stroke="black" x1="150" x2="144" y1="319.70261059008055" y2="319.70261059008055" /><text class="poloto_text" alignment-baseline="middle" text-anchor="end" x="135" y="319.70261059008055" >0.0010</text><line class="poloto_axis_lines" stroke="black" x1="150" x2="144" y1="279.54668781902205" y2="279.54668781902205" /><text class="poloto_text" alignment-baseline="middle" text-anchor="end" x="135" y="279.54668781902205" >0.0015</text><line class="poloto_axis_lines" stroke="black" x1="150" x2="144" y1="239.39076504796355" y2="239.39076504796355" /><text class="poloto_text" alignment-baseline="middle" text-anchor="end" x="135" y="239.39076504796355" >0.0020</text><line class="poloto_axis_lines" stroke="black" x1="150" x2="144" y1="199.23484227690506" y2="199.23484227690506" /><text class="poloto_text" alignment-baseline="middle" text-anchor="end" x="135" y="199.23484227690506" >0.0025</text><line class="poloto_axis_lines" stroke="black" x1="150" x2="144" y1="159.07891950584656" y2="159.07891950584656" /><text class="poloto_text" alignment-baseline="middle" text-anchor="end" x="135" y="159.07891950584656" >0.0030</text><line class="poloto_axis_lines" stroke="black" x1="150" x2="144" y1="118.92299673478806" y2="118.92299673478806" /><text class="poloto_text" alignment-baseline="middle" text-anchor="end" x="135" y="118.92299673478806" >0.0035</text><text class="poloto_text" alignment-baseline="middle" text-anchor="start" font-size="large" x="675" y="100" >default_par</text><line class="poloto0stroke" stroke="black" x1="680" x2="730" y1="81.25" y2="81.25" /><polyline class="poloto0stroke" fill="none" stroke="black"  points="650,298.99877899224157 644.9494949494949,305.524758937303 639.8989898989898,302.2608855344713 634.8484848484848,303.5845050608509 629.7979797979798,309.97234863157985 624.7474747474747,306.13657457664283 619.6969696969697,304.77842095668007 614.6464646464647,307.0462668510984 609.5959595959596,302.2567093185031 604.5454545454545,311.9240067900988 599.4949494949494,304.90756240431176 594.4444444444445,307.2733887502915 589.3939393939394,307.66852303035864 584.3434343434344,307.62001467565125 579.2929292929293,314.76423520769583 574.2424242424242,316.10600521116794 569.1919191919192,306.56688544505744 564.1414141414141,318.5743094720594 559.090909090909,313.1726150527421 554.040404040404,320.5702997693176 548.989898989899,299.7512206731257 543.939393939394,313.1125417922766 538.8888888888889,310.3555164466613 533.8383838383838,323.93994387272824 528.7878787878788,319.87327326185755 523.7373737373737,329.05372032577696 518.6868686868687,325.95761836828285 513.6363636363636,308.90901979660225 508.5858585858586,321.64262353099593 503.5353535353535,320.8978917872839 498.4848484848485,330.80114546108234 493.4343434343434,326.03889395597145 488.3838383838384,332.5734672685058 483.3333333333333,342.44692524760814 478.2828282828283,326.05511694877094 473.2323232323232,335.09887325157763 468.1818181818182,333.8446431597464 463.1313131313131,330.6594753655461 458.0808080808081,333.94768325757695 453.030303030303,338.72993241222787 447.979797979798,336.0712087655561 442.9292929292929,328.73905851494294 437.8787878787879,341.060421546169 432.8282828282828,338.55340697572626 427.77777777777777,333.1488213299695 422.72727272727275,347.46689746506365 417.67676767676767,349.0924895306817 412.62626262626264,347.4078682585902 407.57575757575756,339.9446490760524 402.52525252525254,350.498428698742 397.47474747474746,350.6739100812515 392.4242424242424,350.50461271084873 387.37373737373736,347.135691414048 382.32323232323233,342.14021430948276 377.27272727272725,345.10821887333725 372.22222222222223,352.2961290493567 367.1717171717172,343.6049417484799 362.1212121212121,351.2095900910174 357.07070707070704,353.6561298417669 352.020202020202,355.22566423919653 346.969696969697,359.54877057288314 341.9191919191919,355.74359533109765 336.86868686868684,354.00122984206143 331.8181818181818,354.8049907922469 326.7676767676768,364.5165400907363 321.7171717171717,360.4713127426254 316.66666666666663,356.594740270153 311.6161616161616,360.6804447884171 306.5656565656566,365.8926835641005 301.5151515151515,361.58025870587096 296.4646464646464,361.84568935538766 291.4141414141414,359.4927932165403 286.3636363636364,363.3197329684677 281.3131313131313,368.57325203275974 276.26262626262627,366.8802783287319 271.2121212121212,360.7120876555607 266.16161616161617,364.0898432553711 261.1111111111111,372.85363246461793 256.06060606060606,373.9584022118953 251.010101010101,372.45584789364784 245.95959595959596,374.82496702529477 240.9090909090909,374.44107640360346 235.85858585858585,374.6947012118254 230.8080808080808,380.88650356758603 225.75757575757575,375.0348218776963 220.7070707070707,376.7100466638593 215.65656565656565,371.1533503826458 210.6060606060606,371.4003896195333 205.55555555555554,374.99314002985994 200.50505050505052,375.84781869011914 195.45454545454544,372.6064326040393 190.40404040404042,372.74167775193223 185.35353535353534,382.3202306342039 180.3030303030303,388.0736909369956 175.25252525252526,390.11369212561095 170.2020202020202,391.8486689248573 165.15151515151516,394.60497146386274 160.1010101010101,396.21369804191687 155.05050505050505,398.31168438301364 150,400 "/><text class="poloto_text" alignment-baseline="middle" text-anchor="start" font-size="large" x="675" y="150" >default_seq</text><line class="poloto1stroke" stroke="black" x1="680" x2="730" y1="131.25" y2="131.25" /><polyline class="poloto1stroke" fill="none" stroke="black"  points="650,145.6702947096713 644.9494949494949,146.86806557408644 639.8989898989898,149.05961521523975 634.8484848484848,147.68724639861603 629.7979797979798,151.1622596433779 624.7474747474747,154.5299762624955 619.6969696969697,160.71029402434357 614.6464646464647,163.76503538138354 609.5959595959596,162.93774306045418 604.5454545454545,165.35705709556493 599.4949494949494,171.75124530209166 594.4444444444445,170.05505912424212 589.3939393939394,177.74708675472945 584.3434343434344,176.39318966258045 579.2929292929293,180.6141393287375 574.2424242424242,181.46753299946806 569.1919191919192,179.32995291851904 564.1414141414141,184.8713899490796 559.090909090909,189.69379502650153 554.040404040404,188.61568881194418 548.989898989899,194.47066328750114 543.939393939394,196.23760420127323 538.8888888888889,199.27467695229393 533.8383838383838,202.149439463474 528.7878787878788,202.81249406026976 523.7373737373737,207.9240217816433 518.6868686868687,208.95699273900604 513.6363636363636,214.13188650651233 508.5858585858586,212.40309371937272 503.5353535353535,216.75222109101497 498.4848484848485,219.06712972692097 493.4343434343434,219.96477522454518 488.3838383838384,224.60920925224582 483.3333333333333,229.50140532344386 478.2828282828283,228.08092971134047 473.2323232323232,234.28413634916802 468.1818181818182,236.13901873380877 463.1313131313131,238.5388973022983 458.0808080808081,238.7875427760967 453.030303030303,241.3656333298442 447.979797979798,244.94200012368023 442.9292929292929,247.90261599774485 437.8787878787879,248.86049537952567 432.8282828282828,251.52162838156372 427.77777777777777,254.57460287800177 422.72727272727275,269.97721017529665 417.67676767676767,269.77506526006715 412.62626262626264,275.55655439695306 407.57575757575756,274.8665150200552 402.52525252525254,279.84697380950405 397.47474747474746,279.49352137727317 392.4242424242424,281.06699105513434 387.37373737373736,286.88277335006677 382.32323232323233,289.4788537572157 377.27272727272725,289.2829731659385 372.22222222222223,291.3973431235258 367.1717171717172,296.86754354709046 362.1212121212121,298.389372708268 357.07070707070704,297.74551264255683 352.020202020202,301.5515713146433 346.969696969697,304.6650206307746 341.9191919191919,305.38067948640037 336.86868686868684,309.9260890085476 331.8181818181818,309.9142028554073 326.7676767676768,312.9613948989664 321.7171717171717,314.76624300383435 316.66666666666663,317.2074821727781 311.6161616161616,321.95840970766756 306.5656565656566,323.5509132929222 301.5151515151515,324.8150217417551 296.4646464646464,327.70849691294654 291.4141414141414,330.5428625658189 286.3636363636364,338.6484962008482 281.3131313131313,340.8649425141195 276.26262626262627,343.1759158695939 271.2121212121212,344.7555695595618 266.16161616161617,346.85877617061874 261.1111111111111,348.39265210862766 256.06060606060606,351.318412641727 251.010101010101,353.4644254664579 245.95959595959596,355.4554364292925 240.9090909090909,358.93671399800667 235.85858585858585,360.1754439036483 230.8080808080808,362.9240365054817 225.75757575757575,365.0097351342105 220.7070707070707,366.8030183333204 215.65656565656565,371.99710663191127 210.6060606060606,374.46243935451764 205.55555555555554,376.20922199505867 200.50505050505052,378.103296560324 195.45454545454544,380.0657165061456 190.40404040404042,381.85546598405165 185.35353535353534,383.7303460182324 180.3030303030303,387.4191493958274 175.25252525252526,389.35129177587964 170.2020202020202,391.5184266159881 165.15151515151516,394.2271042305871 160.1010101010101,396.0019960170679 155.05050505050505,398.13981703355347 150,399.9995984407723 "/><text class="poloto_text" alignment-baseline="middle" text-anchor="start" font-size="large" x="675" y="200" >direct_par</text><line class="poloto2stroke" stroke="black" x1="680" x2="730" y1="181.25" y2="181.25" /><polyline class="poloto2stroke" fill="none" stroke="black"  points="650,291.03425326982983 644.9494949494949,305.0322867004387 639.8989898989898,305.17299305382846 634.8484848484848,307.4075095323468 629.7979797979798,304.7495086922849 624.7474747474747,290.3206825221881 619.6969696969697,311.2898644576983 614.6464646464647,293.89608557387766 609.5959595959596,305.0203202354529 604.5454545454545,312.0280909419214 599.4949494949494,304.29293585037794 594.4444444444445,302.21920368663496 589.3939393939394,308.31182091315105 584.3434343434344,307.18030732130813 579.2929292929293,316.65100139501675 574.2424242424242,311.0105398589028 569.1919191919192,313.55481912567706 564.1414141414141,318.59695741250226 559.090909090909,322.0850614880875 554.040404040404,323.9881309800535 548.989898989899,314.35737539817944 543.939393939394,321.9929438012507 538.8888888888889,313.52237314007806 533.8383838383838,326.3807814824442 528.7878787878788,322.38896151161885 523.7373737373737,326.2941250011043 518.6868686868687,330.81222849576716 513.6363636363636,325.7295327269432 508.5858585858586,331.2811693618876 503.5353535353535,299.20863384464315 498.4848484848485,320.95443132654555 493.4343434343434,328.9585507888096 488.3838383838384,321.2494970470673 483.3333333333333,334.57098349082935 478.2828282828283,326.21927436105904 473.2323232323232,335.2856786043086 468.1818181818182,338.1885502614284 463.1313131313131,340.63356408711263 458.0808080808081,327.13956779912616 453.030303030303,338.94267849106893 447.979797979798,346.21435392198885 442.9292929292929,343.4056077478444 437.8787878787879,333.8625527013023 432.8282828282828,338.5235309691846 427.77777777777777,342.78094221321777 422.72727272727275,344.9366727712593 417.67676767676767,341.8359930385692 412.62626262626264,332.4221597515044 407.57575757575756,346.91330791374185 402.52525252525254,342.01428533567275 397.47474747474746,346.3801175711877 392.4242424242424,348.72313535303346 387.37373737373736,327.637902800715 382.32323232323233,351.09072855961506 377.27272727272725,357.5657907946027 372.22222222222223,345.27888154511425 367.1717171717172,357.2829324746034 362.1212121212121,339.0910144697852 357.07070707070704,354.017613458552 352.020202020202,355.17900305693655 346.969696969697,359.4689405984143 341.9191919191919,352.5830832734787 336.86868686868684,348.89853642369746 331.8181818181818,363.12280832319846 326.7676767676768,361.87420006055515 321.7171717171717,361.75196543164003 316.66666666666663,367.7123893603938 311.6161616161616,362.0884720644615 306.5656565656566,364.78743194574986 301.5151515151515,365.28552601180206 296.4646464646464,365.13550348432943 291.4141414141414,369.78146343709534 286.3636363636364,363.72498654107324 281.3131313131313,362.0916845382832 276.26262626262627,366.3965600830317 271.2121212121212,371.66565964535897 266.16161616161617,351.6038409407837 261.1111111111111,372.23812248038314 256.06060606060606,370.57149106169317 251.010101010101,374.01004272857887 245.95959595959596,368.2805153557587 240.9090909090909,376.7325339806111 235.85858585858585,373.71939415956194 230.8080808080808,373.6683158257972 225.75757575757575,376.2573287905384 220.7070707070707,376.4638105454272 215.65656565656565,364.99535931385844 210.6060606060606,372.9120994881726 205.55555555555554,370.791465206633 200.50505050505052,375.1845231577868 195.45454545454544,375.82838322349795 190.40404040404042,376.96712488143964 185.35353535353534,374.13749762745425 180.3030303030303,388.395661125774 175.25252525252526,390.4076334802951 170.2020202020202,392.0109791646979 165.15151515151516,394.86718963955775 160.1010101010101,396.36500555891826 155.05050505050505,398.34509411075913 150,399.9910853851448 "/><text class="poloto_text" alignment-baseline="middle" text-anchor="start" font-size="large" x="675" y="250" >direct_seq</text><line class="poloto3stroke" stroke="black" x1="680" x2="730" y1="231.25" y2="231.25" /><polyline class="poloto3stroke" fill="none" stroke="black"  points="650,100 644.9494949494949,151.08764993886928 639.8989898989898,151.53739627390513 634.8484848484848,151.36014803079368 629.7979797979798,155.16853574640086 624.7474747474747,157.77842979098304 619.6969696969697,163.31561029372983 614.6464646464647,165.58867645810838 609.5959595959596,165.7796580268075 604.5454545454545,167.85194457733076 599.4949494949494,175.69198693915223 594.4444444444445,173.42141044198553 589.3939393939394,180.5515764010602 584.3434343434344,179.68332503890437 579.2929292929293,185.21022562542177 574.2424242424242,183.7434903902861 569.1919191919192,181.72918899224425 564.1414141414141,186.8730823873713 559.090909090909,194.0666143925787 554.040404040404,192.39187147748896 548.989898989899,199.08385600728585 543.939393939394,199.72321860964666 538.8888888888889,202.49823380866343 533.8383838383838,204.83988628913494 528.7878787878788,204.86397984279756 523.7373737373737,211.7787494321283 518.6868686868687,212.5421135240061 513.6363636363636,217.8598017528863 508.5858585858586,214.63271117531298 503.5353535353535,215.89673931230035 498.4848484848485,222.2425797878107 493.4343434343434,223.63044879062406 488.3838383838384,228.13497958339033 483.3333333333333,231.1089272238149 478.2828282828283,231.41676252777785 473.2323232323232,236.78255755213775 468.1818181818182,240.1518804081662 463.1313131313131,239.5701013990591 458.0808080808081,241.5733197624161 453.030303030303,244.21076077001925 447.979797979798,247.80696458970417 442.9292929292929,251.4253344787587 437.8787878787879,251.7399159777472 432.8282828282828,254.39478465583295 427.77777777777777,256.3058050205076 422.72727272727275,274.0659665436914 417.67676767676767,273.8304922125619 412.62626262626264,278.9750281024533 407.57575757575756,278.01658653775365 402.52525252525254,282.66150243652754 397.47474747474746,282.51621830794187 392.4242424242424,284.30227344095294 387.37373737373736,289.7729557355909 382.32323232323233,292.11388540945256 377.27272727272725,292.8786148027046 372.22222222222223,294.3499278130362 367.1717171717172,298.3195817144919 362.1212121212121,302.08572539934397 357.07070707070704,300.50398360139195 352.020202020202,303.87796454446186 346.969696969697,307.20568586449946 341.9191919191919,307.8007966399665 336.86868686868684,311.9684995525292 331.8181818181818,312.15972205676496 326.7676767676768,314.29103781376165 321.7171717171717,317.377984220864 316.66666666666663,319.3941327913533 311.6161616161616,323.57340060967397 306.5656565656566,325.6721097573806 301.5151515151515,326.02459844746494 296.4646464646464,329.5206533957588 291.4141414141414,332.0176289855088 286.3636363636364,340.25449217615386 281.3131313131313,341.41459678500973 276.26262626262627,344.1182950651851 271.2121212121212,346.18487947467486 266.16161616161617,348.2743527601441 261.1111111111111,349.18886374533224 256.06060606060606,352.5638084305486 251.010101010101,354.6683803429798 245.95959595959596,357.34959130640334 240.9090909090909,359.3777063418784 235.85858585858585,361.24768735348107 230.8080808080808,364.161240486058 225.75757575757575,365.49008028239786 220.7070707070707,367.8594403495814 215.65656565656565,372.7370196648908 210.6060606060606,375.14227912703166 205.55555555555554,376.8999038667209 200.50505050505052,378.7784782457965 195.45454545454544,380.8359071048945 190.40404040404042,382.3383007994509 185.35353535353534,384.1413017318714 180.3030303030303,386.9678771357262 175.25252525252526,389.69928300261364 170.2020202020202,391.7593621526145 165.15151515151516,394.49663078422645 160.1010101010101,396.17755771142293 155.05050505050505,398.1957140780508 150,399.9991968815446 "/><text class="poloto_text" alignment-baseline="middle" text-anchor="start" font-size="large" x="675" y="300" >indirect_par</text><line class="poloto4stroke" stroke="black" x1="680" x2="730" y1="281.25" y2="281.25" /><polyline class="poloto4stroke" fill="none" stroke="black"  points="650,272.6680585601853 644.9494949494949,308.1836432076658 639.8989898989898,302.0322377102129 634.8484848484848,303.59855963382086 629.7979797979798,307.58531995837706 624.7474747474747,309.5282241257319 619.6969696969697,308.9759195639388 614.6464646464647,316.378744238629 609.5959595959596,289.0570559444285 604.5454545454545,311.28849915632406 599.4949494949494,302.2489993813311 594.4444444444445,311.47329671291646 589.3939393939394,312.96541049124346 584.3434343434344,316.2818881529052 579.2929292929293,321.5007928117686 574.2424242424242,316.91948389466404 569.1919191919192,312.8138620387055 564.1414141414141,320.90801107982224 559.090909090909,320.9633459414007 554.040404040404,325.3736709393461 548.989898989899,317.6444589243727 543.939393939394,317.0931181047261 538.8888888888889,314.45431179574877 533.8383838383838,326.4637436188892 528.7878787878788,326.5895922808537 523.7373737373737,327.21851434329403 518.6868686868687,328.15270173063993 513.6363636363636,327.45398867442356 508.5858585858586,316.6183144738811 503.5353535353535,337.7220187506743 498.4848484848485,316.68296550954256 493.4343434343434,327.21112565350415 488.3838383838384,328.7224339629157 483.3333333333333,330.4137211181872 478.2828282828283,330.16097974026616 473.2323232323232,324.06780033083123 468.1818181818182,334.5299441377573 463.1313131313131,336.97238798438417 458.0808080808081,323.18276379295713 453.030303030303,341.342637371404 447.979797979798,348.0877883429498 442.9292929292929,342.7507449592939 437.8787878787879,327.96083673163986 432.8282828282828,344.7604685821399 427.77777777777777,344.4407471250367 422.72727272727275,343.563179588798 417.67676767676767,337.62684921370686 412.62626262626264,349.09305171360046 407.57575757575756,339.8864229880343 402.52525252525254,349.4096410087275 397.47474747474746,353.6969282593023 392.4242424242424,347.8057331414059 387.37373737373736,353.3023561621539 382.32323232323233,348.30374689561256 377.27272727272725,351.98347503466124 372.22222222222223,351.9202696122196 367.1717171717172,357.0477793908561 362.1212121212121,348.2960369584405 357.07070707070704,251.13532840450614 352.020202020202,359.29956291616594 346.969696969697,358.692325052022 341.9191919191919,362.5239228909909 336.86868686868684,362.58399615145635 331.8181818181818,358.62261437009147 326.7676767676768,363.9463259873873 321.7171717171717,359.90752358691975 316.66666666666663,368.21538244902405 311.6161616161616,345.00903374409273 306.5656565656566,367.2591093041541 301.5151515151515,362.8805074851979 296.4646464646464,364.25560690456996 291.4141414141414,365.17477597679954 286.3636363636364,353.41190151947336 281.3131313131313,370.2225360928127 276.26262626262627,370.0025619478728 271.2121212121212,371.1730267848036 266.16161616161617,367.18658770762954 261.1111111111111,362.5355681085945 256.06060606060606,371.69898906125894 251.010101010101,373.9965503385278 245.95959595959596,365.3261638056464 240.9090909090909,370.85924840427055 235.85858585858585,374.5884486401732 230.8080808080808,378.4108106169047 225.75757575757575,378.22585243662127 220.7070707070707,370.57446259997823 215.65656565656565,369.59120467500605 210.6060606060606,369.8409745146421 205.55555555555554,374.39280898443263 200.50505050505052,377.81778794942176 195.45454545454544,371.32128245167434 190.40404040404042,374.12111401096365 185.35353535353534,383.0719495084781 180.3030303030303,389.6804097189112 175.25252525252526,391.4985895901392 170.2020202020202,392.9964055094997 165.15151515151516,395.4161211038381 160.1010101010101,396.8144306465719 155.05050505050505,398.5611329752674 150,399.99734970909714 "/><text class="poloto_text" alignment-baseline="middle" text-anchor="start" font-size="large" x="675" y="350" >indirect_seq</text><line class="poloto5stroke" stroke="black" x1="680" x2="730" y1="331.25" y2="331.25" /><polyline class="poloto5stroke" fill="none" stroke="black"  points="650,161.60376330599962 644.9494949494949,160.53408983522417 639.8989898989898,157.89126793396971 634.8484848484848,163.16783649793234 629.7979797979798,163.65806000312142 624.7474747474747,165.24462051180595 619.6969696969697,174.73442880475358 614.6464646464647,173.6356824458919 609.5959595959596,171.72867767349433 604.5454545454545,175.01873273797267 599.4949494949494,181.75143537345943 594.4444444444445,182.44316129911368 589.3939393939394,191.51550861893338 584.3434343434344,189.52281110734236 579.2929292929293,196.52937713612775 574.2424242424242,194.06781907026186 569.1919191919192,194.28281388077812 564.1414141414141,196.80171460436108 559.090909090909,202.3406619677098 554.040404040404,201.33901263010853 548.989898989899,208.3054227361228 543.939393939394,211.42722448419048 538.8888888888889,213.10485862571971 533.8383838383838,217.46530996758344 528.7878787878788,215.6437569988427 523.7373737373737,222.4961242841872 518.6868686868687,221.79604592659655 513.6363636363636,227.9019146076271 508.5858585858586,224.7639701786055 503.5353535353535,228.62110718445675 498.4848484848485,232.74801167948397 493.4343434343434,230.10165605702568 488.3838383838384,237.47034819736044 483.3333333333333,239.6082495256916 478.2828282828283,236.92575357273935 473.2323232323232,247.27979763556573 468.1818181818182,249.65863450052322 463.1313131313131,250.68357427333171 458.0808080808081,251.33297585638527 453.030303030303,254.11409475566325 447.979797979798,256.39366617953067 442.9292929292929,259.81069427181114 437.8787878787879,260.2025357662111 432.8282828282828,262.1108255281374 427.77777777777777,264.9564348393857 422.72727272727275,280.9183338290359 417.67676767676767,279.2220673393408 412.62626262626264,284.92059433978176 407.57575757575756,281.99909033449615 402.52525252525254,287.22144840271784 397.47474747474746,287.93750881757137 392.4242424242424,289.5048747951713 387.37373737373736,294.823366142507 382.32323232323233,297.56312444133073 377.27272727272725,299.2299164837118 372.22222222222223,300.4187727332718 367.1717171717172,305.7191939153604 362.1212121212121,308.1686248925495 357.07070707070704,306.3123772065345 352.020202020202,309.4650990151358 346.969696969697,311.13422010103767 341.9191919191919,312.15377898019483 336.86868686868684,316.5133468917576 331.8181818181818,316.60642832074086 326.7676767676768,318.99490260716345 321.7171717171717,321.18966472213845 316.66666666666663,320.0039406345546 311.6161616161616,328.47282474697084 306.5656565656566,328.73263356729956 301.5151515151515,330.92739568227455 296.4646464646464,334.5631129299662 291.4141414141414,337.1554186803746 286.3636363636364,344.06416488128974 281.3131313131313,346.9251940668821 276.26262626262627,349.2980878552695 271.2121212121212,350.76707182208037 266.16161616161617,352.2115606760009 261.1111111111111,353.8461476683196 256.06060606060606,356.2693166720163 251.010101010101,359.0687466720779 245.95959595959596,360.6350685956858 240.9090909090909,363.4287161428683 235.85858585858585,364.24789696739793 230.8080808080808,367.7127909196215 225.75757575757575,368.93634188645564 220.7070707070707,370.8860725606816 215.65656565656565,374.7359011885885 210.6060606060606,377.0397267898097 205.55555555555554,378.90472846698873 200.50505050505052,380.61368422827945 195.45454545454544,382.3922703596552 190.40404040404042,383.9805174170961 185.35353535353534,385.702242761828 180.3030303030303,389.11734336981544 175.25252525252526,390.750725684451 170.2020202020202,392.6513858210507 165.15151515151516,394.9817946431464 160.1010101010101,396.5754225942386 155.05050505050505,398.391594669328 150,399.99710877356046 "/><text class="poloto_text" alignment-baseline="start" text-anchor="middle" font-size="x-large" x="400" y="37.5" >Bench of rebal:8_bytes with abspiral(num,0.1)</text><text class="poloto_text" alignment-baseline="start" text-anchor="middle" font-size="x-large" x="400" y="481.25" >Number of Elements</text><text class="poloto_text" alignment-baseline="start" text-anchor="middle" font-size="x-large" transform="rotate(-90,37.5,250)" x="37.5" y="250" >Time in Seconds</text><path stroke="black" fill="none" class="poloto_axis_lines"  d="M 150 100 L 150 400 L 650 400 "/></svg>