<svg class="poloto" width="800" height="500" viewBox="0 0 800 500" xmlns="http://www.w3.org/2000/svg"><circle  r="1e5" class="poloto_background" /><text  class="poloto_text poloto_legend_text" x="675" y="100" >default_par</text><line  class="poloto_scatter poloto_legend_icon poloto0stroke poloto0legend" stroke="black" x1="685" x2="685" y1="81.25" y2="81.25" /><path  class="poloto_scatter poloto0stroke" d=" M 650.00 334.35 h 0 M 644.95 350.20 h 0 M 639.90 350.99 h 0 M 634.85 351.22 h 0 M 629.80 354.31 h 0 M 624.75 355.82 h 0 M 619.70 340.21 h 0 M 614.65 334.72 h 0 M 609.60 271.33 h 0 M 604.55 325.83 h 0 M 599.49 334.32 h 0 M 594.44 288.61 h 0 M 589.39 306.73 h 0 M 584.34 358.22 h 0 M 579.29 345.63 h 0 M 574.24 358.54 h 0 M 569.19 359.23 h 0 M 564.14 360.01 h 0 M 559.09 361.26 h 0 M 554.04 361.28 h 0 M 548.99 362.94 h 0 M 543.94 358.33 h 0 M 538.89 353.61 h 0 M 533.84 324.56 h 0 M 528.79 354.02 h 0 M 523.74 352.27 h 0 M 518.69 353.61 h 0 M 513.64 332.24 h 0 M 508.59 352.05 h 0 M 503.54 346.33 h 0 M 498.48 339.82 h 0 M 493.43 336.06 h 0 M 488.38 298.04 h 0 M 483.33 347.00 h 0 M 478.28 358.36 h 0 M 473.23 196.83 h 0 M 468.18 333.77 h 0 M 463.13 368.07 h 0 M 458.08 370.24 h 0 M 453.03 368.85 h 0 M 447.98 368.45 h 0 M 442.93 370.98 h 0 M 437.88 371.36 h 0 M 432.83 373.49 h 0 M 427.78 373.17 h 0 M 422.73 374.27 h 0 M 417.68 374.63 h 0 M 412.63 363.42 h 0 M 407.58 340.86 h 0 M 402.53 373.64 h 0 M 397.47 375.10 h 0 M 392.42 376.62 h 0 M 387.37 372.66 h 0 M 382.32 376.67 h 0 M 377.27 377.64 h 0 M 372.22 377.80 h 0 M 367.17 378.66 h 0 M 362.12 379.65 h 0 M 357.07 369.63 h 0 M 352.02 377.55 h 0 M 346.97 380.65 h 0 M 341.92 380.73 h 0 M 336.87 381.19 h 0 M 331.82 382.38 h 0 M 326.77 381.26 h 0 M 321.72 382.57 h 0 M 316.67 382.61 h 0 M 311.62 382.33 h 0 M 306.57 383.19 h 0 M 301.52 383.78 h 0 M 296.46 384.34 h 0 M 291.41 384.32 h 0 M 286.36 374.08 h 0 M 281.31 385.40 h 0 M 276.26 383.85 h 0 M 271.21 386.44 h 0 M 266.16 387.19 h 0 M 261.11 387.52 h 0 M 256.06 387.88 h 0 M 251.01 387.79 h 0 M 245.96 388.61 h 0 M 240.91 388.84 h 0 M 235.86 389.23 h 0 M 230.81 382.21 h 0 M 225.76 346.79 h 0 M 220.71 373.61 h 0 M 215.66 391.95 h 0 M 210.61 392.67 h 0 M 205.56 393.35 h 0 M 200.51 392.75 h 0 M 195.45 393.97 h 0 M 190.40 394.55 h 0 M 185.35 394.81 h 0 M 180.30 392.07 h 0 M 175.25 394.34 h 0 M 170.20 395.36 h 0 M 165.15 396.37 h 0 M 160.10 397.85 h 0 M 155.05 398.91 h 0 M 150.00 400.00 h 0" /><text  class="poloto_text poloto_legend_text" x="675" y="150" >default_seq</text><line  class="poloto_scatter poloto_legend_icon poloto1stroke poloto1legend" stroke="black" x1="685" x2="685" y1="131.25" y2="131.25" /><path  class="poloto_scatter poloto1stroke" d=" M 650.00 244.98 h 0 M 644.95 278.22 h 0 M 639.90 277.37 h 0 M 634.85 281.47 h 0 M 629.80 273.39 h 0 M 624.75 284.01 h 0 M 619.70 277.83 h 0 M 614.65 276.62 h 0 M 609.60 275.92 h 0 M 604.55 259.40 h 0 M 599.49 263.20 h 0 M 594.44 267.60 h 0 M 589.39 281.15 h 0 M 584.34 286.17 h 0 M 579.29 289.80 h 0 M 574.24 295.88 h 0 M 569.19 292.69 h 0 M 564.14 300.07 h 0 M 559.09 297.62 h 0 M 554.04 302.82 h 0 M 548.99 305.22 h 0 M 543.94 299.05 h 0 M 538.89 296.05 h 0 M 533.84 288.85 h 0 M 528.79 301.12 h 0 M 523.74 301.32 h 0 M 518.69 310.30 h 0 M 513.64 302.43 h 0 M 508.59 293.92 h 0 M 503.54 296.60 h 0 M 498.48 314.56 h 0 M 493.43 305.26 h 0 M 488.38 301.62 h 0 M 483.33 297.78 h 0 M 478.28 303.65 h 0 M 473.23 304.33 h 0 M 468.18 301.49 h 0 M 463.13 324.81 h 0 M 458.08 324.24 h 0 M 453.03 331.03 h 0 M 447.98 329.10 h 0 M 442.93 329.35 h 0 M 437.88 330.80 h 0 M 432.83 333.38 h 0 M 427.78 330.09 h 0 M 422.73 335.76 h 0 M 417.68 338.96 h 0 M 412.63 339.81 h 0 M 407.58 342.12 h 0 M 402.53 343.05 h 0 M 397.47 344.40 h 0 M 392.42 342.51 h 0 M 387.37 343.98 h 0 M 382.32 348.02 h 0 M 377.27 349.74 h 0 M 372.22 347.95 h 0 M 367.17 351.31 h 0 M 362.12 348.53 h 0 M 357.07 353.22 h 0 M 352.02 354.54 h 0 M 346.97 354.21 h 0 M 341.92 355.98 h 0 M 336.87 356.71 h 0 M 331.82 360.14 h 0 M 326.77 357.24 h 0 M 321.72 360.59 h 0 M 316.67 361.55 h 0 M 311.62 363.18 h 0 M 306.57 363.93 h 0 M 301.52 365.10 h 0 M 296.46 367.53 h 0 M 291.41 366.88 h 0 M 286.36 365.86 h 0 M 281.31 367.18 h 0 M 276.26 368.21 h 0 M 271.21 368.97 h 0 M 266.16 370.09 h 0 M 261.11 372.64 h 0 M 256.06 374.32 h 0 M 251.01 374.06 h 0 M 245.96 377.12 h 0 M 240.91 378.26 h 0 M 235.86 379.85 h 0 M 230.81 377.96 h 0 M 225.76 379.16 h 0 M 220.71 383.04 h 0 M 215.66 384.58 h 0 M 210.61 386.32 h 0 M 205.56 387.52 h 0 M 200.51 388.59 h 0 M 195.45 389.54 h 0 M 190.40 390.99 h 0 M 185.35 392.17 h 0 M 180.30 391.91 h 0 M 175.25 394.05 h 0 M 170.20 395.50 h 0 M 165.15 396.45 h 0 M 160.10 397.78 h 0 M 155.05 398.91 h 0 M 150.00 400.00 h 0" /><text  class="poloto_text poloto_legend_text" x="675" y="200" >direct_par</text><line  class="poloto_scatter poloto_legend_icon poloto2stroke poloto2legend" stroke="black" x1="685" x2="685" y1="181.25" y2="181.25" /><path  class="poloto_scatter poloto2stroke" d=" M 650.00 355.23 h 0 M 644.95 331.82 h 0 M 639.90 355.73 h 0 M 634.85 355.91 h 0 M 629.80 353.17 h 0 M 624.75 356.25 h 0 M 619.70 357.75 h 0 M 614.65 328.63 h 0 M 609.60 341.35 h 0 M 604.55 335.44 h 0 M 599.49 341.01 h 0 M 594.44 345.44 h 0 M 589.39 276.22 h 0 M 584.34 333.46 h 0 M 579.29 359.54 h 0 M 574.24 362.33 h 0 M 569.19 362.28 h 0 M 564.14 363.14 h 0 M 559.09 362.38 h 0 M 554.04 362.57 h 0 M 548.99 361.30 h 0 M 543.94 364.35 h 0 M 538.89 352.13 h 0 M 533.84 335.55 h 0 M 528.79 355.53 h 0 M 523.74 339.09 h 0 M 518.69 336.05 h 0 M 513.64 357.75 h 0 M 508.59 357.51 h 0 M 503.54 352.66 h 0 M 498.48 311.98 h 0 M 493.43 340.80 h 0 M 488.38 311.83 h 0 M 483.33 348.50 h 0 M 478.28 346.64 h 0 M 473.23 358.15 h 0 M 468.18 357.86 h 0 M 463.13 357.50 h 0 M 458.08 364.82 h 0 M 453.03 361.01 h 0 M 447.98 372.35 h 0 M 442.93 374.90 h 0 M 437.88 374.70 h 0 M 432.83 374.75 h 0 M 427.78 373.02 h 0 M 422.73 376.08 h 0 M 417.68 375.54 h 0 M 412.63 376.37 h 0 M 407.58 374.59 h 0 M 402.53 376.14 h 0 M 397.47 377.37 h 0 M 392.42 378.67 h 0 M 387.37 377.87 h 0 M 382.32 376.86 h 0 M 377.27 377.31 h 0 M 372.22 380.05 h 0 M 367.17 379.87 h 0 M 362.12 380.22 h 0 M 357.07 380.83 h 0 M 352.02 381.44 h 0 M 346.97 381.79 h 0 M 341.92 381.13 h 0 M 336.87 381.56 h 0 M 331.82 380.69 h 0 M 326.77 382.52 h 0 M 321.72 383.86 h 0 M 316.67 383.34 h 0 M 311.62 383.43 h 0 M 306.57 385.10 h 0 M 301.52 384.89 h 0 M 296.46 384.10 h 0 M 291.41 385.83 h 0 M 286.36 385.14 h 0 M 281.31 386.84 h 0 M 276.26 385.58 h 0 M 271.21 386.95 h 0 M 266.16 385.73 h 0 M 261.11 386.11 h 0 M 256.06 388.65 h 0 M 251.01 389.27 h 0 M 245.96 388.97 h 0 M 240.91 389.73 h 0 M 235.86 390.35 h 0 M 230.81 371.24 h 0 M 225.76 385.59 h 0 M 220.71 375.19 h 0 M 215.66 382.67 h 0 M 210.61 392.73 h 0 M 205.56 393.70 h 0 M 200.51 394.09 h 0 M 195.45 394.21 h 0 M 190.40 394.77 h 0 M 185.35 395.11 h 0 M 180.30 393.26 h 0 M 175.25 394.38 h 0 M 170.20 395.71 h 0 M 165.15 397.01 h 0 M 160.10 398.16 h 0 M 155.05 398.96 h 0 M 150.00 400.00 h 0" /><text  class="poloto_text poloto_legend_text" x="675" y="250" >direct_seq</text><line  class="poloto_scatter poloto_legend_icon poloto3stroke poloto3legend" stroke="black" x1="685" x2="685" y1="231.25" y2="231.25" /><path  class="poloto_scatter poloto3stroke" d=" M 650.00 276.44 h 0 M 644.95 264.09 h 0 M 639.90 283.96 h 0 M 634.85 290.52 h 0 M 629.80 284.62 h 0 M 624.75 284.25 h 0 M 619.70 293.64 h 0 M 614.65 294.53 h 0 M 609.60 294.98 h 0 M 604.55 282.26 h 0 M 599.49 277.91 h 0 M 594.44 297.60 h 0 M 589.39 281.59 h 0 M 584.34 272.15 h 0 M 579.29 302.97 h 0 M 574.24 304.06 h 0 M 569.19 308.28 h 0 M 564.14 301.92 h 0 M 559.09 301.13 h 0 M 554.04 307.22 h 0 M 548.99 311.75 h 0 M 543.94 314.05 h 0 M 538.89 301.56 h 0 M 533.84 312.88 h 0 M 528.79 305.00 h 0 M 523.74 310.95 h 0 M 518.69 301.67 h 0 M 513.64 315.01 h 0 M 508.59 307.14 h 0 M 503.54 306.66 h 0 M 498.48 308.49 h 0 M 493.43 312.76 h 0 M 488.38 305.34 h 0 M 483.33 318.41 h 0 M 478.28 326.48 h 0 M 473.23 312.75 h 0 M 468.18 316.93 h 0 M 463.13 318.90 h 0 M 458.08 328.40 h 0 M 453.03 333.58 h 0 M 447.98 337.24 h 0 M 442.93 335.24 h 0 M 437.88 335.75 h 0 M 432.83 337.12 h 0 M 427.78 338.14 h 0 M 422.73 342.95 h 0 M 417.68 340.34 h 0 M 412.63 341.99 h 0 M 407.58 340.60 h 0 M 402.53 347.57 h 0 M 397.47 343.89 h 0 M 392.42 349.91 h 0 M 387.37 348.70 h 0 M 382.32 348.64 h 0 M 377.27 353.01 h 0 M 372.22 354.37 h 0 M 367.17 352.81 h 0 M 362.12 356.44 h 0 M 357.07 355.18 h 0 M 352.02 357.82 h 0 M 346.97 358.61 h 0 M 341.92 359.87 h 0 M 336.87 357.47 h 0 M 331.82 361.93 h 0 M 326.77 361.13 h 0 M 321.72 364.11 h 0 M 316.67 365.14 h 0 M 311.62 366.81 h 0 M 306.57 367.36 h 0 M 301.52 368.52 h 0 M 296.46 369.28 h 0 M 291.41 370.73 h 0 M 286.36 368.56 h 0 M 281.31 369.50 h 0 M 276.26 371.06 h 0 M 271.21 372.26 h 0 M 266.16 373.39 h 0 M 261.11 374.86 h 0 M 256.06 375.67 h 0 M 251.01 377.22 h 0 M 245.96 378.92 h 0 M 240.91 379.78 h 0 M 235.86 381.16 h 0 M 230.81 382.30 h 0 M 225.76 380.21 h 0 M 220.71 380.72 h 0 M 215.66 375.53 h 0 M 210.61 386.66 h 0 M 205.56 388.80 h 0 M 200.51 389.31 h 0 M 195.45 390.49 h 0 M 190.40 391.20 h 0 M 185.35 392.78 h 0 M 180.30 392.59 h 0 M 175.25 394.35 h 0 M 170.20 395.83 h 0 M 165.15 397.02 h 0 M 160.10 398.04 h 0 M 155.05 398.95 h 0 M 150.00 400.00 h 0" /><text  class="poloto_text poloto_legend_text" x="675" y="300" >indirect_par</text><line  class="poloto_scatter poloto_legend_icon poloto4stroke poloto4legend" stroke="black" x1="685" x2="685" y1="281.25" y2="281.25" /><path  class="poloto_scatter poloto4stroke" d=" M 650.00 100.00 h 0 M 644.95 341.62 h 0 M 639.90 347.85 h 0 M 634.85 348.82 h 0 M 629.80 347.10 h 0 M 624.75 349.74 h 0 M 619.70 349.69 h 0 M 614.65 332.53 h 0 M 609.60 332.96 h 0 M 604.55 329.93 h 0 M 599.49 331.63 h 0 M 594.44 275.59 h 0 M 589.39 325.21 h 0 M 584.34 343.19 h 0 M 579.29 355.44 h 0 M 574.24 354.75 h 0 M 569.19 355.09 h 0 M 564.14 356.67 h 0 M 559.09 356.56 h 0 M 554.04 357.12 h 0 M 548.99 358.67 h 0 M 543.94 356.53 h 0 M 538.89 303.84 h 0 M 533.84 323.38 h 0 M 528.79 357.15 h 0 M 523.74 335.36 h 0 M 518.69 350.22 h 0 M 513.64 354.81 h 0 M 508.59 325.60 h 0 M 503.54 331.42 h 0 M 498.48 322.93 h 0 M 493.43 322.45 h 0 M 488.38 332.75 h 0 M 483.33 351.71 h 0 M 478.28 346.44 h 0 M 473.23 319.28 h 0 M 468.18 312.81 h 0 M 463.13 365.87 h 0 M 458.08 365.19 h 0 M 453.03 368.24 h 0 M 447.98 368.51 h 0 M 442.93 369.92 h 0 M 437.88 367.58 h 0 M 432.83 371.31 h 0 M 427.78 370.93 h 0 M 422.73 372.29 h 0 M 417.68 372.67 h 0 M 412.63 372.92 h 0 M 407.58 369.64 h 0 M 402.53 373.23 h 0 M 397.47 374.59 h 0 M 392.42 374.40 h 0 M 387.37 374.59 h 0 M 382.32 374.22 h 0 M 377.27 376.09 h 0 M 372.22 374.85 h 0 M 367.17 370.52 h 0 M 362.12 377.91 h 0 M 357.07 376.97 h 0 M 352.02 378.77 h 0 M 346.97 378.53 h 0 M 341.92 379.15 h 0 M 336.87 379.65 h 0 M 331.82 378.11 h 0 M 326.77 381.25 h 0 M 321.72 381.16 h 0 M 316.67 380.81 h 0 M 311.62 383.15 h 0 M 306.57 383.28 h 0 M 301.52 381.88 h 0 M 296.46 382.48 h 0 M 291.41 382.83 h 0 M 286.36 375.28 h 0 M 281.31 384.23 h 0 M 276.26 383.73 h 0 M 271.21 384.62 h 0 M 266.16 385.97 h 0 M 261.11 375.85 h 0 M 256.06 387.01 h 0 M 251.01 387.78 h 0 M 245.96 387.14 h 0 M 240.91 388.62 h 0 M 235.86 388.70 h 0 M 230.81 380.52 h 0 M 225.76 383.47 h 0 M 220.71 373.74 h 0 M 215.66 388.34 h 0 M 210.61 392.51 h 0 M 205.56 392.83 h 0 M 200.51 393.41 h 0 M 195.45 393.47 h 0 M 190.40 394.21 h 0 M 185.35 394.56 h 0 M 180.30 392.14 h 0 M 175.25 393.41 h 0 M 170.20 395.01 h 0 M 165.15 396.61 h 0 M 160.10 397.88 h 0 M 155.05 398.91 h 0 M 150.00 400.00 h 0" /><text  class="poloto_text poloto_legend_text" x="675" y="350" >indirect_seq</text><line  class="poloto_scatter poloto_legend_icon poloto5stroke poloto5legend" stroke="black" x1="685" x2="685" y1="331.25" y2="331.25" /><path  class="poloto_scatter poloto5stroke" d=" M 650.00 260.86 h 0 M 644.95 259.52 h 0 M 639.90 270.49 h 0 M 634.85 273.88 h 0 M 629.80 266.36 h 0 M 624.75 267.29 h 0 M 619.70 272.34 h 0 M 614.65 249.67 h 0 M 609.60 248.13 h 0 M 604.55 238.34 h 0 M 599.49 257.17 h 0 M 594.44 246.70 h 0 M 589.39 264.37 h 0 M 584.34 265.26 h 0 M 579.29 284.02 h 0 M 574.24 286.95 h 0 M 569.19 286.99 h 0 M 564.14 289.20 h 0 M 559.09 291.16 h 0 M 554.04 295.16 h 0 M 548.99 299.30 h 0 M 543.94 292.85 h 0 M 538.89 293.66 h 0 M 533.84 290.51 h 0 M 528.79 286.77 h 0 M 523.74 289.36 h 0 M 518.69 294.62 h 0 M 513.64 301.79 h 0 M 508.59 298.44 h 0 M 503.54 304.79 h 0 M 498.48 292.93 h 0 M 493.43 312.53 h 0 M 488.38 286.67 h 0 M 483.33 318.24 h 0 M 478.28 309.96 h 0 M 473.23 300.57 h 0 M 468.18 300.32 h 0 M 463.13 323.15 h 0 M 458.08 321.23 h 0 M 453.03 323.13 h 0 M 447.98 329.13 h 0 M 442.93 325.60 h 0 M 437.88 327.74 h 0 M 432.83 329.26 h 0 M 427.78 334.65 h 0 M 422.73 333.14 h 0 M 417.68 333.93 h 0 M 412.63 334.41 h 0 M 407.58 337.36 h 0 M 402.53 341.46 h 0 M 397.47 338.15 h 0 M 392.42 342.12 h 0 M 387.37 341.96 h 0 M 382.32 343.44 h 0 M 377.27 344.70 h 0 M 372.22 344.70 h 0 M 367.17 347.86 h 0 M 362.12 348.70 h 0 M 357.07 350.60 h 0 M 352.02 350.98 h 0 M 346.97 354.62 h 0 M 341.92 356.45 h 0 M 336.87 355.22 h 0 M 331.82 356.89 h 0 M 326.77 357.79 h 0 M 321.72 361.62 h 0 M 316.67 359.62 h 0 M 311.62 363.23 h 0 M 306.57 363.06 h 0 M 301.52 365.22 h 0 M 296.46 366.74 h 0 M 291.41 367.32 h 0 M 286.36 364.12 h 0 M 281.31 364.76 h 0 M 276.26 367.01 h 0 M 271.21 368.72 h 0 M 266.16 370.62 h 0 M 261.11 371.11 h 0 M 256.06 372.57 h 0 M 251.01 374.73 h 0 M 245.96 375.83 h 0 M 240.91 376.50 h 0 M 235.86 378.39 h 0 M 230.81 375.58 h 0 M 225.76 379.96 h 0 M 220.71 380.52 h 0 M 215.66 382.80 h 0 M 210.61 386.09 h 0 M 205.56 386.58 h 0 M 200.51 388.40 h 0 M 195.45 389.38 h 0 M 190.40 390.70 h 0 M 185.35 391.76 h 0 M 180.30 391.99 h 0 M 175.25 393.50 h 0 M 170.20 395.12 h 0 M 165.15 396.33 h 0 M 160.10 397.85 h 0 M 155.05 398.93 h 0 M 150.00 400.00 h 0" /><text  class="poloto_labels poloto_text poloto_title" x="400" y="37.5" >Bench of query:16_bytes with abspiral(num,1.5)</text><text  class="poloto_labels poloto_text poloto_xname" x="400" y="481.25" >Number of Elements</text><text  class="poloto_labels poloto_text poloto_yname" transform="rotate(-90,37.5,250)" x="37.5" y="250" >Time in Seconds</text><text  class="poloto_tick_labels poloto_text" dominant-baseline="middle" text-anchor="start" x="150" y="70" ></text><line  class="poloto_axis_lines" stroke="black" x1="150" x2="144" y1="400" y2="400" /><text  class="poloto_tick_labels poloto_text" dominant-baseline="middle" text-anchor="end" x="135" y="400" >0e0</text><line  class="poloto_axis_lines" stroke="black" x1="150" x2="144" y1="337.45429602985934" y2="337.45429602985934" /><text  class="poloto_tick_labels poloto_text" dominant-baseline="middle" text-anchor="end" x="135" y="337.45429602985934" >0.002</text><line  class="poloto_axis_lines" stroke="black" x1="150" x2="144" y1="274.9085920597186" y2="274.9085920597186" /><text  class="poloto_tick_labels poloto_text" dominant-baseline="middle" text-anchor="end" x="135" y="274.9085920597186" >0.004</text><line  class="poloto_axis_lines" stroke="black" x1="150" x2="144" y1="212.36288808957795" y2="212.36288808957795" /><text  class="poloto_tick_labels poloto_text" dominant-baseline="middle" text-anchor="end" x="135" y="212.36288808957795" >0.006</text><line  class="poloto_axis_lines" stroke="black" x1="150" x2="144" y1="149.81718411943726" y2="149.81718411943726" /><text  class="poloto_tick_labels poloto_text" dominant-baseline="middle" text-anchor="end" x="135" y="149.81718411943726" >0.008</text><text  class="poloto_tick_labels poloto_text" dominant-baseline="middle" text-anchor="start" x="440.00000000000006" y="70" ></text><line  class="poloto_axis_lines" stroke="black" x1="150" x2="150" y1="400" y2="405" /><text  class="poloto_tick_labels poloto_text" dominant-baseline="start" text-anchor="middle" x="150" y="430" >0</text><line  class="poloto_axis_lines" stroke="black" x1="234.17508417508418" x2="234.17508417508418" y1="400" y2="405" /><text  class="poloto_tick_labels poloto_text" dominant-baseline="start" text-anchor="middle" x="234.17508417508418" y="430" >5000</text><line  class="poloto_axis_lines" stroke="black" x1="318.35016835016836" x2="318.35016835016836" y1="400" y2="405" /><text  class="poloto_tick_labels poloto_text" dominant-baseline="start" text-anchor="middle" x="318.35016835016836" y="430" >10000</text><line  class="poloto_axis_lines" stroke="black" x1="402.52525252525254" x2="402.52525252525254" y1="400" y2="405" /><text  class="poloto_tick_labels poloto_text" dominant-baseline="start" text-anchor="middle" x="402.52525252525254" y="430" >15000</text><line  class="poloto_axis_lines" stroke="black" x1="486.7003367003367" x2="486.7003367003367" y1="400" y2="405" /><text  class="poloto_tick_labels poloto_text" dominant-baseline="start" text-anchor="middle" x="486.7003367003367" y="430" >20000</text><line  class="poloto_axis_lines" stroke="black" x1="570.8754208754208" x2="570.8754208754208" y1="400" y2="405" /><text  class="poloto_tick_labels poloto_text" dominant-baseline="start" text-anchor="middle" x="570.8754208754208" y="430" >25000</text><path  stroke="black" fill="none" class="poloto_axis_lines" style="stroke-dasharray:8.417508417508419;stroke-dashoffset:-0;" d=" M 150 400 L 650 400" /><path  stroke="black" fill="none" class="poloto_axis_lines" style="stroke-dasharray:7.818212996267586;stroke-dashoffset:-0;" d=" M 150 400 L 150 100" /></svg>