<svg class="poloto" width="800" height="500" viewBox="0 0 800 500" xmlns="http://www.w3.org/2000/svg"><style>.poloto {
            font-family: "Arial";
            stroke-width:2;
            }
            .poloto_text{fill: var(--poloto_fg_color,black);  }
            .poloto_axis_lines{stroke: var(--poloto_fg_color,black);stoke-width:3;fill:none}
            .poloto_background{fill: var(--poloto_bg_color,aliceblue); }
            .poloto0stroke{stroke:  var(--poloto_color0,blue); }
            .poloto1stroke{stroke:  var(--poloto_color1,red); }
            .poloto2stroke{stroke:  var(--poloto_color2,green); }
            .poloto3stroke{stroke:  var(--poloto_color3,gold); }
            .poloto4stroke{stroke:  var(--poloto_color4,aqua); }
            .poloto5stroke{stroke:  var(--poloto_color5,brown); }
            .poloto6stroke{stroke:  var(--poloto_color6,lime); }
            .poloto7stroke{stroke:  var(--poloto_color7,chocolate); }
            .poloto0fill{fill:var(--poloto_color0,blue);}
            .poloto1fill{fill:var(--poloto_color1,red);}
            .poloto2fill{fill:var(--poloto_color2,green);}
            .poloto3fill{fill:var(--poloto_color3,gold);}
            .poloto4fill{fill:var(--poloto_color4,aqua);}
            .poloto5fill{fill:var(--poloto_color5,brown);}
            .poloto6fill{fill:var(--poloto_color6,lime);}
            .poloto7fill{fill:var(--poloto_color7,chocolate);}</style><rect class="poloto_background" fill="white" x="0" y="0" width="800" height="500"/><line class="poloto_axis_lines" stroke="black" x1="150" x2="150" y1="400" y2="405"/><text class="poloto_text" alignment-baseline="start" text-anchor="middle" x="150" y="430">0</text><line class="poloto_axis_lines" stroke="black" x1="234.17508417508418" x2="234.17508417508418" y1="400" y2="405"/><text class="poloto_text" alignment-baseline="start" text-anchor="middle" x="234.17508417508418" y="430">5000</text><line class="poloto_axis_lines" stroke="black" x1="318.35016835016836" x2="318.35016835016836" y1="400" y2="405"/><text class="poloto_text" alignment-baseline="start" text-anchor="middle" x="318.35016835016836" y="430">10000</text><line class="poloto_axis_lines" stroke="black" x1="402.52525252525254" x2="402.52525252525254" y1="400" y2="405"/><text class="poloto_text" alignment-baseline="start" text-anchor="middle" x="402.52525252525254" y="430">15000</text><line class="poloto_axis_lines" stroke="black" x1="486.7003367003367" x2="486.7003367003367" y1="400" y2="405"/><text class="poloto_text" alignment-baseline="start" text-anchor="middle" x="486.7003367003367" y="430">20000</text><line class="poloto_axis_lines" stroke="black" x1="570.8754208754208" x2="570.8754208754208" y1="400" y2="405"/><text class="poloto_text" alignment-baseline="start" text-anchor="middle" x="570.8754208754208" y="430">25000</text><line class="poloto_axis_lines" stroke="black" x1="150" x2="144" y1="360.7393814916297" y2="360.7393814916297"/><text class="poloto_text" alignment-baseline="middle" text-anchor="end" x="135" y="360.7393814916297">0.002</text><line class="poloto_axis_lines" stroke="black" x1="150" x2="144" y1="321.47573968284007" y2="321.47573968284007"/><text class="poloto_text" alignment-baseline="middle" text-anchor="end" x="135" y="321.47573968284007">0.004</text><line class="poloto_axis_lines" stroke="black" x1="150" x2="144" y1="282.21209787405047" y2="282.21209787405047"/><text class="poloto_text" alignment-baseline="middle" text-anchor="end" x="135" y="282.21209787405047">0.006</text><line class="poloto_axis_lines" stroke="black" x1="150" x2="144" y1="242.94845606526087" y2="242.94845606526087"/><text class="poloto_text" alignment-baseline="middle" text-anchor="end" x="135" y="242.94845606526087">0.008</text><line class="poloto_axis_lines" stroke="black" x1="150" x2="144" y1="203.68481425647127" y2="203.68481425647127"/><text class="poloto_text" alignment-baseline="middle" text-anchor="end" x="135" y="203.68481425647127">0.010</text><line class="poloto_axis_lines" stroke="black" x1="150" x2="144" y1="164.42117244768167" y2="164.42117244768167"/><text class="poloto_text" alignment-baseline="middle" text-anchor="end" x="135" y="164.42117244768167">0.012</text><line class="poloto_axis_lines" stroke="black" x1="150" x2="144" y1="125.15753063889207" y2="125.15753063889207"/><text class="poloto_text" alignment-baseline="middle" text-anchor="end" x="135" y="125.15753063889207">0.014</text><text class="poloto_text" alignment-baseline="middle" text-anchor="start" font-size="large" x="675" y="100">default_par</text><line class="poloto0stroke" stroke="black" x1="680" x2="730" y1="81.25" y2="81.25"/><polyline class="poloto0stroke" fill="none" stroke="black" points="650,371.0869609175599 644.9494949494949,377.26766672471143 639.8989898989898,376.1529719337599 634.8484848484848,375.8654246529732 629.7979797979798,376.666088836738 624.7474747474747,377.78304128709357 619.6969696969697,378.54654243388643 614.6464646464647,379.195923805762 609.5959595959596,379.9143306599374 604.5454545454545,379.0789181531718 599.4949494949494,377.0028727243529 594.4444444444445,378.3946117719073 589.3939393939394,377.55413425534834 584.3434343434344,378.18775127503767 579.2929292929293,378.67903759317016 574.2424242424242,377.9953397983537 569.1919191919192,377.5274938743811 564.1414141414141,379.1015143790327 559.090909090909,379.68942851965664 554.040404040404,379.50536056685706 548.989898989899,378.12094418850006 543.939393939394,378.74223242466144 538.8888888888889,374.80970385201846 533.8383838383838,382.23551863638943 528.7878787878788,381.12370972311084 523.7373737373737,380.6643447457689 518.6868686868687,380.8681623103983 513.6363636363636,381.27640602610524 508.5858585858586,383.5752333585471 503.5353535353535,378.84712524375357 498.4848484848485,384.9428841618518 493.4343434343434,383.25708006897054 488.3838383838384,383.6399987357107 483.3333333333333,384.5387042330721 478.2828282828283,384.282862343046 473.2323232323232,382.0405746548088 468.1818181818182,383.98730527933037 463.1313131313131,384.9100008618369 458.0808080808081,385.3666370160732 453.030303030303,384.53034107736687 447.979797979798,385.02115623179765 442.9292929292929,385.943478809707 437.8787878787879,384.39148520811005 432.8282828282828,381.70928767704714 427.77777777777777,385.97975841473834 422.72727272727275,386.7721772337233 417.67676767676767,387.45999771092966 412.62626262626264,388.2167847749732 407.57575757575756,387.6471871232531 402.52525252525254,385.4253557923982 397.47474747474746,388.19948914075644 392.4242424242424,387.9289822805148 387.37373737373736,387.2381188710682 382.32323232323233,387.9595686574838 377.27272727272725,387.3051419076358 372.22222222222223,389.7528766016376 367.1717171717172,388.82643134133826 362.1212121212121,388.19636768123263 357.07070707070704,388.45961076773966 352.020202020202,388.0369965591307 346.969696969697,389.2919018149815 341.9191919191919,387.9456889601044 336.86868686868684,386.82950215076414 331.8181818181818,386.93472871081167 326.7676767676768,390.4026309781103 321.7171717171717,390.63946926550096 316.66666666666663,391.52702388858864 311.6161616161616,391.9654220812047 306.5656565656566,391.438445112668 301.5151515151515,390.83111510116964 296.4646464646464,390.0326300495252 291.4141414141414,392.157558712396 286.3636363636364,390.3311122545556 281.3131313131313,392.52689215907037 276.26262626262627,392.26058650850223 271.2121212121212,392.2308442998321 266.16161616161617,393.98402480205726 261.1111111111111,391.3697141076817 256.06060606060606,392.6374585744039 251.010101010101,393.1355767662111 245.95959595959596,393.0599353602665 240.9090909090909,393.33908022170607 235.85858585858585,390.11993275708704 230.8080808080808,392.94699349460353 225.75757575757575,394.887991627421 220.7070707070707,393.12462221014647 215.65656565656565,392.198216213489 210.6060606060606,392.46807522364077 205.55555555555554,392.52630320444325 200.50505050505052,392.75636851362185 195.45454545454544,392.306014542075 190.40404040404042,394.6612244641544 185.35353535353534,394.3763863746525 180.3030303030303,397.09851502943496 175.25252525252526,397.6234502885976 170.2020202020202,398.02370385319637 165.15151515151516,398.7000397151737 160.1010101010101,399.07567497635836 155.05050505050505,399.5885562974857 150,399.9995484681192 "/><text class="poloto_text" alignment-baseline="middle" text-anchor="start" font-size="large" x="675" y="150">default_seq</text><line class="poloto1stroke" stroke="black" x1="680" x2="730" y1="131.25" y2="131.25"/><polyline class="poloto1stroke" fill="none" stroke="black" points="650,338.5064424765071 644.9494949494949,339.15085699769384 639.8989898989898,339.4450987294089 634.8484848484848,339.16615018617836 629.7979797979798,340.10015369752585 624.7474747474747,340.8920424573464 619.6969696969697,342.3069077899262 614.6464646464647,342.99773193573094 609.5959595959596,342.3732044491203 604.5454545454545,343.5048415015123 599.4949494949494,345.2596514448726 594.4444444444445,344.4780693910268 589.3939393939394,346.3201820419489 584.3434343434344,345.8837273996024 579.2929292929293,347.2332384003914 574.2424242424242,347.2024753370342 569.1919191919192,346.6554150157123 564.1414141414141,347.90146632033515 559.090909090909,349.40013989635577 554.040404040404,349.17109544186417 548.989898989899,350.53621374027216 543.939393939394,350.7366546317061 538.8888888888889,351.9468778631784 533.8383838383838,352.5032632994298 528.7878787878788,352.71387347409217 523.7373737373737,354.0839978868308 518.6868686868687,354.1325081162856 513.6363636363636,355.2022264055451 508.5858585858586,354.70373520914075 503.5353535353535,355.8534728004066 498.4848484848485,356.3843565013033 493.4343434343434,356.91673222058864 488.3838383838384,357.841116139693 483.3333333333333,359.1099403565649 478.2828282828283,358.8812296430287 473.2323232323232,360.1072172266873 468.1818181818182,360.6937571398479 463.1313131313131,360.7746991374367 458.0808080808081,361.2669866784353 453.030303030303,362.00353333512635 447.979797979798,362.77274734180236 442.9292929292929,363.64198547598625 437.8787878787879,363.85768029226284 432.8282828282828,364.6727738643924 427.77777777777777,365.26569411934696 422.72727272727275,369.0907188407174 417.67676767676767,369.0210258765068 412.62626262626264,370.17512173201345 407.57575757575756,369.9536747922119 402.52525252525254,370.99427909107027 397.47474747474746,371.21986834508266 392.4242424242424,371.5560829098913 387.37373737373736,372.90272766482826 382.32323232323233,373.268291801889 377.27272727272725,373.42568011007955 372.22222222222223,374.07060505860983 367.1717171717172,375.1224387590255 362.1212121212121,375.804683799095 357.07070707070704,375.6728757535429 352.020202020202,376.42769963549597 346.969696969697,377.1393138796385 341.9191919191919,377.38810794595986 336.86868686868684,378.44347537413836 331.8181818181818,378.3905283531592 326.7676767676768,379.13361240621145 321.7171717171717,379.674979499471 316.66666666666663,380.27233654594994 311.6161616161616,381.17117946605765 306.5656565656566,381.5482674819893 301.5151515151515,381.9226855702779 296.4646464646464,382.7478895301732 291.4141414141414,383.3593029604197 286.3636363636364,385.36875725273086 281.3131313131313,385.7320440985667 276.26262626262627,386.29755833153865 271.2121212121212,386.76114415037506 266.16161616161617,387.17307864841194 261.1111111111111,387.63317000312736 256.06060606060606,388.30911322868656 251.010101010101,388.7796290803022 245.95959595959596,389.3053888759428 240.9090909090909,390.1353241046761 235.85858585858585,390.31018473347154 230.8080808080808,391.1377837755172 225.75757575757575,391.6051977994299 220.7070707070707,392.07243513695454 215.65656565656565,393.2299272974776 210.6060606060606,393.84143888682866 205.55555555555554,394.275046915144 200.50505050505052,394.740556652429 195.45454545454544,395.2160393547335 190.40404040404042,395.63327444441455 185.35353535353534,396.08512043435013 180.3030303030303,396.9856713228765 175.25252525252526,397.45820925204526 170.2020202020202,397.9575446167486 165.15151515151516,398.60991002540163 160.1010101010101,399.03411441150377 155.05050505050505,399.5456411369887 150,400 "/><text class="poloto_text" alignment-baseline="middle" text-anchor="start" font-size="large" x="675" y="200">direct_par</text><line class="poloto2stroke" stroke="black" x1="680" x2="730" y1="181.25" y2="181.25"/><polyline class="poloto2stroke" fill="none" stroke="black" points="650,261.8782234222936 644.9494949494949,288.7052441108954 639.8989898989898,291.18751117786803 634.8484848484848,296.48301818044035 629.7979797979798,299.66351058969866 624.7474747474747,293.36444453431454 619.6969696969697,301.0264497559863 614.6464646464647,306.7396826437623 609.5959595959596,304.08006170673946 604.5454545454545,298.314549279895 599.4949494949494,310.78336658636596 594.4444444444445,288.0911018575432 589.3939393939394,310.10793378815026 584.3434343434344,310.6683437476871 579.2929292929293,313.69539384475667 574.2424242424242,310.907380799019 569.1919191919192,314.9215188511615 564.1414141414141,319.09746237119805 559.090909090909,319.715550620552 554.040404040404,322.3739543846788 548.989898989899,323.2690476269938 543.939393939394,322.50252317978175 538.8888888888889,321.7813678706797 533.8383838383838,328.02699610956205 528.7878787878788,321.41631416096243 523.7373737373737,330.4462842950733 518.6868686868687,326.95676739295897 513.6363636363636,328.58911403751756 508.5858585858586,288.4247250219925 503.5353535353535,335.2518006796929 498.4848484848485,337.5528660397179 493.4343434343434,336.113402035545 488.3838383838384,335.97089464759995 483.3333333333333,339.8676344107342 478.2828282828283,336.7814140054588 473.2323232323232,338.96341237169867 468.1818181818182,339.60401831963 463.1313131313131,343.23963523291485 458.0808080808081,344.05881222379253 453.030303030303,342.0207151047819 447.979797979798,344.40046480299173 442.9292929292929,339.98740815007193 437.8787878787879,344.76424244435015 432.8282828282828,348.24129314019024 427.77777777777777,348.0540055687623 422.72727272727275,349.8597797191903 417.67676767676767,352.5970837715319 412.62626262626264,353.4997941603578 407.57575757575756,351.74535722159476 402.52525252525254,349.6482861125873 397.47474747474746,357.0863315213817 392.4242424242424,354.0406508262739 387.37373737373736,358.64984900184953 382.32323232323233,356.4337894263405 377.27272727272725,359.28293596237444 372.22222222222223,356.5347362494309 367.1717171717172,358.6596649123017 362.1212121212121,359.12073785806234 357.07070707070704,361.2829473488306 352.020202020202,358.03676686682616 346.969696969697,359.85329925510985 341.9191919191919,359.88300220013815 336.86868686868684,364.10400074915026 331.8181818181818,367.28932258635103 326.7676767676768,365.77229325778484 321.7171717171717,365.02628406341785 316.66666666666663,368.83670271003547 311.6161616161616,368.9830186712359 306.5656565656566,369.2210741315226 301.5151515151515,369.86847268948685 296.4646464646464,369.40310037494817 291.4141414141414,369.89894127553043 286.3636363636364,373.14231440714553 281.3131313131313,375.0322109101489 276.26262626262627,376.40251200927565 271.2121212121212,376.9593686092288 266.16161616161617,376.04423127777045 261.1111111111111,380.0273706847049 256.06060606060606,378.78964327214555 251.010101010101,378.27774354206343 245.95959595959596,379.45054852289195 240.9090909090909,381.6900877562026 235.85858585858585,381.88988079754665 230.8080808080808,382.5383394738397 225.75757575757575,373.8900119381103 220.7070707070707,382.236421700151 215.65656565656565,382.6109379475442 210.6060606060606,384.7279746184114 205.55555555555554,384.95523257720066 200.50505050505052,385.6439168545268 195.45454545454544,385.4904549105172 190.40404040404042,386.3298330451055 185.35353535353534,388.51677863021325 180.3030303030303,389.3105520448406 175.25252525252526,391.1547849324204 170.2020202020202,392.820819781651 165.15151515151516,395.3165346459431 160.1010101010101,396.69180259575865 155.05050505050505,398.55525503600376 150,399.99807608155135 "/><text class="poloto_text" alignment-baseline="middle" text-anchor="start" font-size="large" x="675" y="250">direct_seq</text><line class="poloto3stroke" stroke="black" x1="680" x2="730" y1="231.25" y2="231.25"/><polyline class="poloto3stroke" fill="none" stroke="black" points="650,100.35417768093617 644.9494949494949,100 639.8989898989898,120.67091355304348 634.8484848484848,119.93079390494779 629.7979797979798,123.62183144864582 624.7474747474747,128.86845521716623 619.6969696969697,134.9561258250518 614.6464646464647,141.9319203788313 609.5959595959596,142.55886257941313 604.5454545454545,142.54753501875132 599.4949494949494,154.86277259028722 594.4444444444445,150.36272733894003 589.3939393939394,159.18966518125765 584.3434343434344,160.2422252590468 579.2929292929293,167.05931617263514 574.2424242424242,163.97158411715012 569.1919191919192,160.27940792783969 564.1414141414141,168.96006907259866 559.090909090909,180.2331710632457 554.040404040404,180.0657901582148 548.989898989899,189.644980113947 543.939393939394,187.00565847973925 538.8888888888889,191.18181794980575 533.8383838383838,196.37264808331585 528.7878787878788,195.3462375909714 523.7373737373737,203.85453134818977 518.6868686868687,205.1969945252741 513.6363636363636,211.27341609978146 508.5858585858586,208.4418989389197 503.5353535353535,210.84548166770747 498.4848484848485,218.43149211065827 493.4343434343434,219.4930239306007 488.3838383838384,222.64652258611548 483.3333333333333,227.2825967245092 478.2828282828283,227.08323558322508 473.2323232323232,233.00008971742153 468.1818181818182,236.5076089993052 463.1313131313131,238.29932676596573 458.0808080808081,237.93368410162137 453.030303030303,242.92281690715976 447.979797979798,245.63889896110368 442.9292929292929,249.5996580922071 437.8787878787879,251.20705269239625 432.8282828282828,254.8058992051272 427.77777777777777,258.024065078701 422.72727272727275,272.70988428808437 417.67676767676767,272.181611619368 412.62626262626264,276.23695686358883 407.57575757575756,274.963185427849 402.52525252525254,280.90846643871504 397.47474747474746,280.69271272697574 392.4242424242424,281.64599468645133 387.37373737373736,288.5054118059096 382.32323232323233,291.3521436279723 377.27272727272725,292.5213167219335 372.22222222222223,292.8428859483475 367.1717171717172,299.0031353981166 362.1212121212121,300.82543954174616 357.07070707070704,300.298973000553 352.020202020202,303.4298557983859 346.969696969697,307.32663482516193 341.9191919191919,308.06432012746546 336.86868686868684,312.43448125170914 331.8181818181818,312.6962126880066 326.7676767676768,315.8000232048123 321.7171717171717,317.80199777335883 316.66666666666663,320.3574719004839 311.6161616161616,325.42043998444376 306.5656565656566,326.4141438631615 301.5151515151515,327.6153168251969 296.4646464646464,330.2996934883802 291.4141414141414,333.62471536313666 286.3636363636364,339.70922524785664 281.3131313131313,341.83476249717546 276.26262626262627,344.8013269540386 271.2121212121212,346.3048299580016 266.16161616161617,348.55269308337574 261.1111111111111,349.52870869145863 256.06060606060606,353.06697140487864 251.010101010101,354.22267706969944 245.95959595959596,358.2486727416682 240.9090909090909,360.45283543370914 235.85858585858585,361.62866371495693 230.8080808080808,364.6705751004511 225.75757575757575,366.8834346891527 220.7070707070707,368.71910810281815 215.65656565656565,373.1379561429047 210.6060606060606,375.7263135700447 205.55555555555554,377.4787284312546 200.50505050505052,379.28375657248824 195.45454545454544,381.4312618293991 190.40404040404042,383.342203644412 185.35353535353534,384.9622607690844 180.3030303030303,388.0961668673366 175.25252525252526,390.0586618440444 170.2020202020202,392.1297796858163 165.15151515151516,394.72194568621165 160.1010101010101,396.2096254425258 155.05050505050505,398.1913792355408 150,399.99666259044625 "/><text class="poloto_text" alignment-baseline="middle" text-anchor="start" font-size="large" x="675" y="300">indirect_par</text><line class="poloto4stroke" stroke="black" x1="680" x2="730" y1="281.25" y2="281.25"/><polyline class="poloto4stroke" fill="none" stroke="black" points="650,358.4390425089781 644.9494949494949,369.44426830338466 639.8989898989898,364.96328555013565 634.8484848484848,367.7707537303895 629.7979797979798,371.60215879355394 624.7474747474747,368.0909094656984 619.6969696969697,371.54673816314084 614.6464646464647,368.5588535487756 609.5959595959596,367.6250070919953 604.5454545454545,366.5780617149848 599.4949494949494,373.33629642950183 594.4444444444445,372.0598158024772 589.3939393939394,373.24300601656415 584.3434343434344,371.5174867499933 579.2929292929293,373.4646885382166 574.2424242424242,373.5649089839335 569.1919191919192,372.2271378120453 564.1414141414141,372.0170576965474 559.090909090909,375.5889889828184 554.040404040404,369.38030783087817 548.989898989899,375.59540858825414 543.939393939394,373.59694811564947 538.8888888888889,370.97288040628445 533.8383838383838,377.7679836804599 528.7878787878788,374.1894168387232 523.7373737373737,375.9010760397356 518.6868686868687,372.43806209584216 513.6363636363636,374.96245905047556 508.5858585858586,377.58689976443776 503.5353535353535,377.7402242857011 498.4848484848485,378.7642200640743 493.4343434343434,378.0085323820015 488.3838383838384,377.00858558423613 483.3333333333333,379.8486818508331 478.2828282828283,378.4175221069027 473.2323232323232,380.1680523133058 468.1818181818182,381.66784490311795 463.1313131313131,382.11289828302057 458.0808080808081,380.1019912359625 453.030303030303,380.10487711363544 447.979797979798,379.52658256525467 442.9292929292929,380.63731172838357 437.8787878787879,379.99372174367477 432.8282828282828,381.1109294077021 427.77777777777777,381.89873474877453 422.72727272727275,382.8504657943987 417.67676767676767,383.53371205733436 412.62626262626264,385.8732754181529 407.57575757575756,383.637269912605 402.52525252525254,377.2685501566521 397.47474747474746,383.32693008774834 392.4242424242424,385.1770525215994 387.37373737373736,384.70787163380527 382.32323232323233,384.5184834575406 377.27272727272725,386.3655236955097 372.22222222222223,384.1314028447686 367.1717171717172,385.69295714314603 362.1212121212121,385.65689348814465 357.07070707070704,387.25402064600075 352.020202020202,386.6698758149905 346.969696969697,386.282088456666 341.9191919191919,388.50967191104587 336.86868686868684,385.78750399262157 331.8181818181818,390.09317458519433 326.7676767676768,389.2698356482849 321.7171717171717,388.7382648336566 316.66666666666663,387.5393102673834 311.6161616161616,389.87575216867816 306.5656565656566,391.21782270934443 301.5151515151515,390.62875029128713 296.4646464646464,390.8924841733168 291.4141414141414,389.3013054571947 286.3636363636364,388.5347417463408 281.3131313131313,389.36693463447807 276.26262626262627,391.73137151238245 271.2121212121212,392.6321972464015 266.16161616161617,393.0896186734739 261.1111111111111,390.54140832008346 256.06060606060606,391.96803311338493 251.010101010101,392.454686321784 245.95959595959596,390.6043283060821 240.9090909090909,388.9364284338656 235.85858585858585,391.904779386431 230.8080808080808,394.9009486292179 225.75757575757575,394.7051604793384 220.7070707070707,394.3461337386388 215.65656565656565,391.84839679679357 210.6060606060606,392.08099461086886 205.55555555555554,392.4650715550424 200.50505050505052,392.52822712289185 195.45454545454544,392.894321319117 190.40404040404042,393.5585639794172 185.35353535353534,393.9377722320065 180.3030303030303,397.2930663745975 175.25252525252526,397.76888281785733 170.2020202020202,398.1953252315426 165.15151515151516,398.82042204095944 160.1010101010101,399.1950757110989 155.05050505050505,399.64325055052535 150,399.9986650361785 "/><text class="poloto_text" alignment-baseline="middle" text-anchor="start" font-size="large" x="675" y="350">indirect_seq</text><line class="poloto5stroke" stroke="black" x1="680" x2="730" y1="331.25" y2="331.25"/><polyline class="poloto5stroke" fill="none" stroke="black" points="650,313.82486570362113 644.9494949494949,316.34266636643065 639.8989898989898,313.75169790711044 634.8484848484848,315.11860270122077 629.7979797979798,319.0829348237288 624.7474747474747,320.3242352276928 619.6969696969697,320.40087785650354 614.6464646464647,325.489995525908 609.5959595959596,325.964751850839 604.5454545454545,320.4288532012923 599.4949494949494,327.824749090605 594.4444444444445,328.3997847567156 589.3939393939394,333.22267530283557 584.3434343434344,333.2785082014876 579.2929292929293,335.20851251459874 574.2424242424242,333.1052181183646 569.1919191919192,334.76171190263557 564.1414141414141,335.24840437467645 559.090909090909,338.65097194200524 554.040404040404,337.2886020985238 548.989898989899,339.2560442940996 543.939393939394,341.5275637636635 538.8888888888889,341.2811058840297 533.8383838383838,342.5540135196498 528.7878787878788,343.3193011621449 523.7373737373737,344.31649950498365 518.6868686868687,344.3328135481552 513.6363636363636,346.7307619443434 508.5858585858586,345.51331420277825 503.5353535353535,347.0444588105747 498.4848484848485,348.77963693303053 493.4343434343434,348.56021207078214 488.3838383838384,350.17903239073763 483.3333333333333,351.28740573535794 478.2828282828283,350.62261338407245 473.2323232323232,353.2759717702268 468.1818181818182,356.1473611593454 463.1313131313131,354.06093049726815 458.0808080808081,354.6507292926989 453.030303030303,355.7824841360163 447.979797979798,356.35708790206706 442.9292929292929,358.2101354772329 437.8787878787879,359.48969830013954 432.8282828282828,361.1557135175492 427.77777777777777,361.4153247171889 422.72727272727275,365.89870255258825 417.67676767676767,365.7740208580244 412.62626262626264,365.6316901564676 407.57575757575756,364.91418636605374 402.52525252525254,368.16982938573403 397.47474747474746,366.6409424373416 392.4242424242424,367.710699990243 387.37373737373736,368.5619161128366 382.32323232323233,370.83164908669823 377.27272727272725,369.6486748226412 372.22222222222223,369.90115967129265 367.1717171717172,371.5266155467138 362.1212121212121,372.43786577763314 357.07070707070704,372.13553573570545 352.020202020202,373.1914528548692 346.969696969697,373.6836422367633 341.9191919191919,375.2428210848112 336.86868686868684,376.4863006208956 331.8181818181818,376.4694368867387 326.7676767676768,377.1872940499288 321.7171717171717,377.7532794466025 316.66666666666663,378.2849091566935 311.6161616161616,380.03155226255757 306.5656565656566,380.0944526167352 301.5151515151515,380.56848256429276 296.4646464646464,381.4679929663112 291.4141414141414,382.2573884848769 286.3636363636364,384.2710243550407 281.3131313131313,384.875075852448 276.26262626262627,385.56028529747414 271.2121212121212,385.91569978312725 266.16161616161617,386.1333381496734 261.1111111111111,386.33277781824114 256.06060606060606,387.5704659671587 251.010101010101,388.4557236672006 245.95959595959596,389.10428050259816 240.9090909090909,389.8825251468902 235.85858585858585,389.7102166548123 230.8080808080808,390.9685771111422 225.75757575757575,391.2788384087153 220.7070707070707,391.9226247116331 215.65656565656565,392.89316304168364 210.6060606060606,393.457577892685 205.55555555555554,394.10582061894814 200.50505050505052,394.6693716698297 195.45454545454544,395.25233859158567 190.40404040404042,395.6285824392184 185.35353535353534,396.2094291243167 180.3030303030303,397.0541274823701 175.25252525252526,397.55191193322196 170.2020202020202,398.08028276104284 165.15151515151516,398.70471208854894 160.1010101010101,399.1391250215214 155.05050505050505,399.59313051175644 150,399.99874356346214 "/><text class="poloto_text" alignment-baseline="start" text-anchor="middle" font-size="x-large" x="400" y="37.5">Bench of rebal:256_bytes with abspiral(num,0.1)</text><text class="poloto_text" alignment-baseline="start" text-anchor="middle" font-size="x-large" x="400" y="481.25">Number of Elements</text><text class="poloto_text" alignment-baseline="start" text-anchor="middle" font-size="x-large" transform="rotate(-90,37.5,250)" x="37.5" y="250">Time in Seconds</text><path stroke="black" fill="none" class="poloto_axis_lines" d=" M 150 100 L 150 400 L 650 400"/></svg>