<svg class="poloto" width="800" height="500" viewBox="0 0 800 500" xmlns="http://www.w3.org/2000/svg"><style>.poloto {
                    font-family: "Arial";
                    stroke-width:2;
                    }
                    .poloto_text{fill: var(--poloto_fg_color,black);  }
                    .poloto_axis_lines{stroke: var(--poloto_fg_color,black);stoke-width:3;fill:none}
                    .poloto_background{fill: var(--poloto_bg_color,aliceblue); }
                    .poloto0stroke{stroke:  var(--poloto_color0,blue); }
                    .poloto1stroke{stroke:  var(--poloto_color1,red); }
                    .poloto2stroke{stroke:  var(--poloto_color2,green); }
                    .poloto3stroke{stroke:  var(--poloto_color3,gold); }
                    .poloto4stroke{stroke:  var(--poloto_color4,aqua); }
                    .poloto5stroke{stroke:  var(--poloto_color5,brown); }
                    .poloto6stroke{stroke:  var(--poloto_color6,lime); }
                    .poloto7stroke{stroke:  var(--poloto_color7,chocolate); }
                    .poloto0fill{fill:var(--poloto_color0,blue);}
                    .poloto1fill{fill:var(--poloto_color1,red);}
                    .poloto2fill{fill:var(--poloto_color2,green);}
                    .poloto3fill{fill:var(--poloto_color3,gold);}
                    .poloto4fill{fill:var(--poloto_color4,aqua);}
                    .poloto5fill{fill:var(--poloto_color5,brown);}
                    .poloto6fill{fill:var(--poloto_color6,lime);}
                    .poloto7fill{fill:var(--poloto_color7,chocolate);}</style><rect class="poloto_background" fill="white" x="0" y="0" width="800" height="500"/><line class="poloto_axis_lines" stroke="black" x1="150" x2="150" y1="400" y2="405"/><text class="poloto_text" alignment-baseline="start" text-anchor="middle" x="150" y="430">0</text><line class="poloto_axis_lines" stroke="black" x1="234.17508417508418" x2="234.17508417508418" y1="400" y2="405"/><text class="poloto_text" alignment-baseline="start" text-anchor="middle" x="234.17508417508418" y="430">5000</text><line class="poloto_axis_lines" stroke="black" x1="318.35016835016836" x2="318.35016835016836" y1="400" y2="405"/><text class="poloto_text" alignment-baseline="start" text-anchor="middle" x="318.35016835016836" y="430">10000</text><line class="poloto_axis_lines" stroke="black" x1="402.52525252525254" x2="402.52525252525254" y1="400" y2="405"/><text class="poloto_text" alignment-baseline="start" text-anchor="middle" x="402.52525252525254" y="430">15000</text><line class="poloto_axis_lines" stroke="black" x1="486.7003367003367" x2="486.7003367003367" y1="400" y2="405"/><text class="poloto_text" alignment-baseline="start" text-anchor="middle" x="486.7003367003367" y="430">20000</text><line class="poloto_axis_lines" stroke="black" x1="570.8754208754208" x2="570.8754208754208" y1="400" y2="405"/><text class="poloto_text" alignment-baseline="start" text-anchor="middle" x="570.8754208754208" y="430">25000</text><line class="poloto_axis_lines" stroke="black" x1="150" x2="144" y1="362.91570487630804" y2="362.91570487630804"/><text class="poloto_text" alignment-baseline="middle" text-anchor="end" x="135" y="362.91570487630804">0.0005</text><line class="poloto_axis_lines" stroke="black" x1="150" x2="144" y1="325.82072639881454" y2="325.82072639881454"/><text class="poloto_text" alignment-baseline="middle" text-anchor="end" x="135" y="325.82072639881454">0.0010</text><line class="poloto_axis_lines" stroke="black" x1="150" x2="144" y1="288.72574792132104" y2="288.72574792132104"/><text class="poloto_text" alignment-baseline="middle" text-anchor="end" x="135" y="288.72574792132104">0.0015</text><line class="poloto_axis_lines" stroke="black" x1="150" x2="144" y1="251.6307694438276" y2="251.6307694438276"/><text class="poloto_text" alignment-baseline="middle" text-anchor="end" x="135" y="251.6307694438276">0.0020</text><line class="poloto_axis_lines" stroke="black" x1="150" x2="144" y1="214.5357909663341" y2="214.5357909663341"/><text class="poloto_text" alignment-baseline="middle" text-anchor="end" x="135" y="214.5357909663341">0.0025</text><line class="poloto_axis_lines" stroke="black" x1="150" x2="144" y1="177.4408124888406" y2="177.4408124888406"/><text class="poloto_text" alignment-baseline="middle" text-anchor="end" x="135" y="177.4408124888406">0.0030</text><line class="poloto_axis_lines" stroke="black" x1="150" x2="144" y1="140.34583401134716" y2="140.34583401134716"/><text class="poloto_text" alignment-baseline="middle" text-anchor="end" x="135" y="140.34583401134716">0.0035</text><line class="poloto_axis_lines" stroke="black" x1="150" x2="144" y1="103.25085553385361" y2="103.25085553385361"/><text class="poloto_text" alignment-baseline="middle" text-anchor="end" x="135" y="103.25085553385361">0.0040</text><text class="poloto_text" alignment-baseline="middle" text-anchor="start" font-size="large" x="675" y="100">default_par</text><line class="poloto0stroke" stroke="black" x1="680" x2="730" y1="81.25" y2="81.25"/><polyline class="poloto0stroke" fill="none" stroke="black" points="650,311.2466286847061 644.9494949494949,316.1519202586559 639.8989898989898,314.64438033333056 634.8484848484848,305.7968570166636 629.7979797979798,309.33460511406213 624.7474747474747,310.9382210336442 619.6969696969697,315.3896184509434 614.6464646464647,311.84415459802153 609.5959595959596,315.88988133069086 604.5454545454545,319.97440941084767 599.4949494949494,319.1484526200678 594.4444444444445,322.22933896253755 589.3939393939394,312.42454263128036 584.3434343434344,324.0323774864146 579.2929292929293,316.80382741041933 574.2424242424242,317.9415304003241 569.1919191919192,324.67093044592616 564.1414141414141,317.3500880634789 559.090909090909,329.06371779723094 554.040404040404,326.75804231498387 548.989898989899,327.0986484073642 543.939393939394,329.4252454574726 538.8888888888889,322.96767741415357 533.8383838383838,331.2829619796255 528.7878787878788,332.3557487571946 523.7373737373737,325.77198359709513 518.6868686868687,333.94304288624653 513.6363636363636,336.3484296706411 508.5858585858586,332.6246873511564 503.5353535353535,332.1331046963727 498.4848484848485,335.19180824171286 493.4343434343434,331.65153768577784 488.3838383838384,335.606901050876 483.3333333333333,337.26311764993915 478.2828282828283,341.4472828422865 473.2323232323232,337.9625805641108 468.1818181818182,342.316714947842 463.1313131313131,340.82468072352026 458.0808080808081,343.3486972490859 453.030303030303,344.24765695750943 447.979797979798,342.6050171205691 442.9292929292929,342.0014076307833 437.8787878787879,340.4942386552427 432.8282828282828,345.0068427870298 427.77777777777777,337.82644199309834 422.72727272727275,350.1205339500662 417.67676767676767,351.3027509141439 412.62626262626264,351.43028345014955 407.57575757575756,352.73350423402087 402.52525252525254,355.4879547658887 397.47474747474746,350.2423538593863 392.4242424242424,354.1668542023912 387.37373737373736,348.13046254470567 382.32323232323233,356.0144808903982 377.27272727272725,350.4886645164769 372.22222222222223,355.747767995145 367.1717171717172,356.322962731417 362.1212121212121,356.53277192968574 357.07070707070704,358.99966218839603 352.020202020202,358.57685362370955 346.969696969697,354.8220257122607 341.9191919191919,356.12784314462544 336.86868686868684,357.47075555546763 331.8181818181818,364.04554373077553 326.7676767676768,364.9124533777946 321.7171717171717,356.8641784674037 316.66666666666663,368.5797371400365 311.6161616161616,360.471516744426 306.5656565656566,367.57349875385603 301.5151515151515,369.5295911589312 296.4646464646464,369.8902285396894 291.4141414141414,363.26721689236075 286.3636363636364,367.10929219318865 281.3131313131313,370.7802854532784 276.26262626262627,370.50326015400844 271.2121212121212,375.0836739064524 266.16161616161617,374.83966313802745 261.1111111111111,375.05281088435913 256.06060606060606,375.89827963381816 251.010101010101,376.320420488892 245.95959595959596,370.8719100501178 240.9090909090909,378.6221639034205 235.85858585858585,381.27052279684267 230.8080808080808,379.54063557052325 225.75757575757575,378.4840963935273 220.7070707070707,380.48418344307674 215.65656565656565,370.9117500570026 210.6060606060606,371.80254887016116 205.55555555555554,380.20886451281683 200.50505050505052,374.30757276674626 195.45454545454544,376.03835027254917 190.40404040404042,379.9536510608917 185.35353535353534,380.6620909598548 180.3030303030303,389.1946779092479 175.25252525252526,390.6511751441882 170.2020202020202,392.6476268858469 165.15151515151516,395.05004607196327 160.1010101010101,396.617902432293 155.05050505050505,398.45885202417406 150,399.9994806703013 "/><text class="poloto_text" alignment-baseline="middle" text-anchor="start" font-size="large" x="675" y="150">default_seq</text><line class="poloto1stroke" stroke="black" x1="680" x2="730" y1="131.25" y2="131.25"/><polyline class="poloto1stroke" fill="none" stroke="black" points="650,166.44623181789635 644.9494949494949,170.46287608743933 639.8989898989898,167.3246409082434 634.8484848484848,174.1809057802385 629.7979797979798,173.86671131253414 624.7474747474747,175.46268566654982 619.6969696969697,179.841599495904 614.6464646464647,180.56376453690385 609.5959595959596,184.93103054301613 604.5454545454545,184.55169729310526 599.4949494949494,187.5459297658516 594.4444444444445,187.74817158851087 589.3939393939394,193.34342976214208 584.3434343434344,193.040289598024 579.2929292929293,198.1806891455642 574.2424242424242,201.6901708693629 569.1919191919192,200.64787616410229 564.1414141414141,202.0528113789589 559.090909090909,207.75742554914174 554.040404040404,209.560167313191 548.989898989899,210.26066888675993 543.939393939394,212.85516587143277 538.8888888888889,216.26931350054434 533.8383838383838,216.23666991948414 528.7878787878788,219.71076303381534 523.7373737373737,219.03845364388923 518.6868686868687,224.0849287059244 513.6363636363636,224.17581140319427 508.5858585858586,228.7860495183341 503.5353535353535,230.96337637504908 498.4848484848485,232.10924026021883 493.4343434343434,233.78979116516322 488.3838383838384,237.63542758392492 483.3333333333333,237.86816147889274 478.2828282828283,243.40889003416203 473.2323232323232,245.4287858022185 468.1818181818182,246.41254463144165 463.1313131313131,249.4501782290066 458.0808080808081,248.4426786135579 453.030303030303,253.52224239639497 447.979797979798,257.01621841919007 442.9292929292929,258.61427009200054 437.8787878787879,260.5498118789992 432.8282828282828,261.633059440499 427.77777777777777,265.00833153216604 422.72727272727275,278.8494324715593 417.67676767676767,281.35579178736964 412.62626262626264,282.8565062366551 407.57575757575756,286.20655374295757 402.52525252525254,287.1429051896864 397.47474747474746,289.82954610089735 392.4242424242424,291.1332862144674 387.37373737373736,294.6917333098564 382.32323232323233,296.24133894077517 377.27272727272725,298.90735504395263 372.22222222222223,299.6598637773471 367.1717171717172,303.16838103170534 362.1212121212121,303.86754718604914 357.07070707070704,306.9620844805986 352.020202020202,309.23556152152725 346.969696969697,311.39560211827165 341.9191919191919,312.5878347265383 336.86868686868684,314.2841880923141 331.8181818181818,318.48845876299623 326.7676767676768,318.8272842964097 321.7171717171717,322.21123661304057 316.66666666666663,324.2796526129456 311.6161616161616,326.4488927643524 306.5656565656566,328.9901213599316 301.5151515151515,330.7670450189605 296.4646464646464,333.66015658037713 291.4141414141414,335.3033899369732 286.3636363636364,344.1239822992655 281.3131313131313,345.87753612185355 276.26262626262627,346.6583112288478 271.2121212121212,350.12372411821525 266.16161616161617,350.7364589727065 261.1111111111111,354.8114165484161 256.06060606060606,356.0183387681599 251.010101010101,358.2336508828358 245.95959595959596,358.3902658819677 240.9090909090909,361.458762501626 235.85858585858585,363.3387360108654 230.8080808080808,366.1601800738635 225.75757575757575,368.2186546195366 220.7070707070707,369.1701408174843 215.65656565656565,374.4172997130827 210.6060606060606,375.75331245792813 205.55555555555554,378.1941620417472 200.50505050505052,379.7149077794105 195.45454545454544,381.28788324677015 190.40404040404042,383.62100901309054 185.35353535353534,385.7131657992212 180.3030303030303,388.8297375109863 175.25252525252526,390.6194218426115 170.2020202020202,392.1601988686526 165.15151515151516,394.69148600999984 160.1010101010101,396.5147042021686 155.05050505050505,398.3044627237507 150,400 "/><text class="poloto_text" alignment-baseline="middle" text-anchor="start" font-size="large" x="675" y="200">direct_par</text><line class="poloto2stroke" stroke="black" x1="680" x2="730" y1="181.25" y2="181.25"/><polyline class="poloto2stroke" fill="none" stroke="black" points="650,301.77813542832587 644.9494949494949,316.0541378953892 639.8989898989898,307.1299021632308 634.8484848484848,306.0971779624174 629.7979797979798,316.28798463971134 624.7474747474747,311.92606031049985 619.6969696969697,313.56283914084077 614.6464646464647,320.74049490636486 609.5959595959596,317.0984357294876 604.5454545454545,318.90310643241764 599.4949494949494,322.55740695219254 594.4444444444445,321.9776124385893 589.3939393939394,316.3318309042717 584.3434343434344,318.8756561483443 579.2929292929293,319.88389766336263 574.2424242424242,321.6790720518024 569.1919191919192,327.09471633964563 564.1414141414141,320.26627270150857 559.090909090909,328.89159709709537 554.040404040404,329.7209666258952 548.989898989899,326.44993142374983 543.939393939394,325.1458203603951 538.8888888888889,326.5298340073903 533.8383838383838,323.8078786766688 528.7878787878788,312.31852518279175 523.7373737373737,327.5929760905553 518.6868686868687,336.7431944315986 513.6363636363636,330.62704857018645 508.5858585858586,332.4019691003775 503.5353535353535,338.8629498817165 498.4848484848485,332.5844763944868 493.4343434343434,331.45241184131066 488.3838383838384,338.36328052162463 483.3333333333333,332.9777573563052 478.2828282828283,341.76696736680555 473.2323232323232,340.4911968670076 468.1818181818182,338.5649288246283 463.1313131313131,334.70178357602515 458.0808080808081,344.91462467053475 453.030303030303,344.13295928405705 447.979797979798,343.1529099526816 442.9292929292929,340.42123573759903 437.8787878787879,344.3893597752935 432.8282828282828,343.0590596571336 427.77777777777777,346.2711880334567 422.72727272727275,346.063085204198 417.67676767676767,339.65559538182356 412.62626262626264,351.8651849778197 407.57575757575756,349.1013123214186 402.52525252525254,358.0139002303351 397.47474747474746,351.3566128228932 392.4242424242424,348.8032170743735 387.37373737373736,354.08465173008506 382.32323232323233,351.85108888599825 377.27272727272725,355.11003112515994 372.22222222222223,355.189043429317 367.1717171717172,355.7938399584141 362.1212121212121,356.7920658292434 357.07070707070704,358.5081537235692 352.020202020202,357.1156082315241 346.969696969697,354.36917021500744 341.9191919191919,348.2044299317898 336.86868686868684,359.49087389339496 331.8181818181818,359.69148353700126 326.7676767676768,358.9841564873924 321.7171717171717,367.95468675269075 316.66666666666663,367.1702021478487 311.6161616161616,363.9275816992171 306.5656565656566,362.248217833584 301.5151515151515,365.7273558649881 296.4646464646464,369.55244166567337 291.4141414141414,369.0983991291088 286.3636363636364,370.3620766659231 281.3131313131313,368.9043182017146 276.26262626262627,371.6546140959929 271.2121212121212,374.4896349211138 266.16161616161617,375.0857512252471 261.1111111111111,374.3335392516805 256.06060606060606,374.891521917939 251.010101010101,370.2050165270494 245.95959595959596,376.19578136120765 240.9090909090909,376.5188786237466 235.85858585858585,372.6144095691196 230.8080808080808,377.65643323373746 225.75757575757575,379.71980431656954 220.7070707070707,380.2861704479639 215.65656565656565,373.63051521957505 210.6060606060606,374.50870174005127 205.55555555555554,376.6448531706562 200.50505050505052,373.5108468190067 195.45454545454544,375.63980182378697 190.40404040404042,379.9688600020674 185.35353535353534,380.9592959274165 180.3030303030303,389.47904801425636 175.25252525252526,390.9856976600982 170.2020202020202,392.73316790621595 165.15151515151516,395.1676371537369 160.1010101010101,396.720136192977 155.05050505050505,398.4937213039429 150,399.991764914778 "/><text class="poloto_text" alignment-baseline="middle" text-anchor="start" font-size="large" x="675" y="250">direct_seq</text><line class="poloto3stroke" stroke="black" x1="680" x2="730" y1="231.25" y2="231.25"/><polyline class="poloto3stroke" fill="none" stroke="black" points="650,100 644.9494949494949,171.73671764835646 639.8989898989898,167.7302374029163 634.8484848484848,174.55103947548696 629.7979797979798,174.8008370605544 624.7474747474747,176.16941919650301 619.6969696969697,180.2523892875638 614.6464646464647,181.79887894029048 609.5959595959596,184.7309402291085 604.5454545454545,186.75150370677758 599.4949494949494,188.18900831273743 594.4444444444445,188.99938521255675 589.3939393939394,193.94600059253048 584.3434343434344,193.72484033084768 579.2929292929293,198.39309499232633 574.2424242424242,201.82712552990182 569.1919191919192,201.5968399035135 564.1414141414141,202.97810852210148 559.090909090909,208.23869579990873 554.040404040404,210.4848709366779 548.989898989899,211.70766980721 543.939393939394,213.05859473340337 538.8888888888889,217.41807079403534 533.8383838383838,218.1615283526813 528.7878787878788,219.3379585001165 523.7373737373737,218.8181836616899 518.6868686868687,224.47346151049766 513.6363636363636,224.66783919771973 508.5858585858586,228.55264791375373 503.5353535353535,231.2576879342895 498.4848484848485,232.351247899806 493.4343434343434,234.70759512265334 488.3838383838384,239.2586296521431 483.3333333333333,237.80955141289832 478.2828282828283,243.1971518970125 473.2323232323232,246.7272584288447 468.1818181818182,247.1723981705746 463.1313131313131,251.24869116550943 458.0808080808081,248.89175042300644 453.030303030303,254.64436549533917 447.979797979798,258.1254324656241 442.9292929292929,260.2212987496025 437.8787878787879,261.08242157997904 432.8282828282828,262.3578211299922 427.77777777777777,266.21488280212503 422.72727272727275,280.5868128835312 417.67676767676767,283.00347654138295 412.62626262626264,285.53424435303145 407.57575757575756,287.36970388809783 402.52525252525254,287.8816145910872 397.47474747474746,290.6157370747494 392.4242424242424,292.2074826012186 387.37373737373736,295.85109976719195 382.32323232323233,297.78523194500843 377.27272727272725,298.74480484826427 372.22222222222223,300.39107999309545 367.1717171717172,303.8129433777303 362.1212121212121,304.6984005139881 357.07070707070704,307.9495528076695 352.020202020202,310.07917552206237 346.969696969697,311.6991132321745 341.9191919191919,312.97577401145594 336.86868686868684,315.39384727848983 331.8181818181818,319.3098899664019 326.7676767676768,319.1197411067262 321.7171717171717,323.15545219520664 316.66666666666663,325.1205215850734 311.6161616161616,327.995530796993 306.5656565656566,329.89739034353414 301.5151515151515,332.1696803451515 296.4646464646464,334.65356010400444 291.4141414141414,336.26548529876544 286.3636363636364,344.9198179675216 281.3131313131313,346.71721805467007 276.26262626262627,348.1127311449934 271.2121212121212,350.83164468747975 266.16161616161617,352.25075018411474 261.1111111111111,355.3248110505446 256.06060606060606,356.64813731275075 251.010101010101,358.85180160418474 245.95959595959596,359.4509596965532 240.9090909090909,362.16697983071833 235.85858585858585,363.96897969519796 230.8080808080808,366.57645992233796 225.75757575757575,368.7796790740302 220.7070707070707,369.716178900673 215.65656565656565,375.1105306708701 210.6060606060606,376.4966216366601 205.55555555555554,378.72313643483625 200.50505050505052,379.36873744025854 195.45454545454544,381.7201139359899 190.40404040404042,383.94492236515606 185.35353535353534,386.08092541584705 180.3030303030303,389.0866573319214 175.25252525252526,390.8926634540767 170.2020202020202,392.35465074583163 165.15151515151516,394.82888581028044 160.1010101010101,396.56129549513633 155.05050505050505,398.3249391518703 150,399.9955486025827 "/><text class="poloto_text" alignment-baseline="middle" text-anchor="start" font-size="large" x="675" y="300">indirect_par</text><line class="poloto4stroke" stroke="black" x1="680" x2="730" y1="281.25" y2="281.25"/><polyline class="poloto4stroke" fill="none" stroke="black" points="650,292.0077632370958 644.9494949494949,305.81065634865723 639.8989898989898,294.26610552680563 634.8484848484848,294.58015161459605 629.7979797979798,301.0547091580578 624.7474747474747,292.7088583303204 619.6969696969697,301.1368374404069 614.6464646464647,301.2343972338027 609.5959595959596,305.43087795900465 604.5454545454545,309.4984907289757 599.4949494949494,304.21171439636333 594.4444444444445,302.62508797692396 589.3939393939394,310.2332680626579 584.3434343434344,311.0170107679304 579.2929292929293,311.5508075082215 574.2424242424242,312.6572765262482 569.1919191919192,312.22704896586623 564.1414141414141,309.6901975777474 559.090909090909,308.3634585775213 554.040404040404,323.62017808557266 548.989898989899,312.0515155277107 543.939393939394,317.0890877949113 538.8888888888889,321.13644670663365 533.8383838383838,319.2088432450292 528.7878787878788,322.30931573613503 523.7373737373737,313.5016324263529 518.6868686868687,326.32165698817465 513.6363636363636,324.3752092775036 508.5858585858586,326.6750237531512 503.5353535353535,318.431184116227 498.4848484848485,329.836628768788 493.4343434343434,326.06837247513033 488.3838383838384,327.2088204934424 483.3333333333333,327.35786811696494 478.2828282828283,307.406408132802 473.2323232323232,322.2538216483327 468.1818181818182,330.2079495033477 463.1313131313131,331.18866654433566 458.0808080808081,334.59962400529815 453.030303030303,324.07281101295507 447.979797979798,338.1044317618087 442.9292929292929,334.1447653792071 437.8787878787879,332.94555891498675 432.8282828282828,343.887390526536 427.77777777777777,336.29731279029915 422.72727272727275,341.5175407315229 417.67676767676767,339.7226631029109 412.62626262626264,340.85895648363345 407.57575757575756,346.48010695224195 402.52525252525254,345.1756249391024 397.47474747474746,345.2328995858717 392.4242424242424,349.6580337584088 387.37373737373736,345.5781054555832 382.32323232323233,352.5300011820933 377.27272727272725,353.4083360824834 372.22222222222223,349.35771281265505 367.1717171717172,353.54818415134355 362.1212121212121,354.86297856849984 357.07070707070704,353.5597577846285 352.020202020202,355.98977563473215 346.969696969697,351.4670074788423 341.9191919191919,358.9721377143657 336.86868686868684,356.78791119165396 331.8181818181818,359.1477453424782 326.7676767676768,356.1722087388845 321.7171717171717,362.33969405050954 316.66666666666663,367.1282106322122 311.6161616161616,362.28345806313763 306.5656565656566,364.5558222547119 301.5151515151515,369.3953073368427 296.4646464646464,370.1801628914695 291.4141414141414,362.945455049047 286.3636363636364,368.60036194807003 281.3131313131313,364.2873288004918 276.26262626262627,373.6995118795432 271.2121212121212,376.9612733370692 266.16161616161617,375.14080017330775 261.1111111111111,368.2626492640109 256.06060606060606,367.2765905461222 251.010101010101,375.67200026510545 245.95959595959596,380.0115934172735 240.9090909090909,375.90287941114934 235.85858585858585,375.63846640456177 230.8080808080808,378.347735252644 225.75757575757575,378.7073339740048 220.7070707070707,384.26846476743674 215.65656565656565,376.45552040050706 210.6060606060606,373.21853838860403 205.55555555555554,376.24623053193704 200.50505050505052,378.3870559298301 195.45454545454544,382.80877736434735 190.40404040404042,383.2778062722168 185.35353535353534,384.27788689197 180.3030303030303,390.514665623391 175.25252525252526,391.88272842964096 170.2020202020202,393.59599710560246 165.15151515151516,395.6615938871432 160.1010101010101,397.19309716856503 155.05050505050505,398.6763769779661 150,399.9969582117648 "/><text class="poloto_text" alignment-baseline="middle" text-anchor="start" font-size="large" x="675" y="350">indirect_seq</text><line class="poloto5stroke" stroke="black" x1="680" x2="730" y1="331.25" y2="331.25"/><polyline class="poloto5stroke" fill="none" stroke="black" points="650,148.62150113980508 644.9494949494949,153.7906863906438 639.8989898989898,161.08333658944818 634.8484848484848,159.08020775166352 629.7979797979798,168.74812361233873 624.7474747474747,172.84088677771754 619.6969696969697,162.95166227544559 614.6464646464647,164.28062697438028 609.5959595959596,181.3310370717323 604.5454545454545,169.81794279162966 599.4949494949494,173.40013067324423 594.4444444444445,173.0888296138611 589.3939393939394,179.72207947524953 584.3434343434344,178.28731989769702 579.2929292929293,195.65081161339916 574.2424242424242,198.84016367293708 569.1919191919192,198.78748880349903 564.1414141414141,198.9947013532743 559.090909090909,206.40012028665024 554.040404040404,199.87184921435315 548.989898989899,208.6003718400643 543.939393939394,211.71382757363727 538.8888888888889,217.4793516984802 533.8383838383838,216.38223061502984 528.7878787878788,211.22335776820785 523.7373737373737,218.40865509929833 518.6868686868687,216.39039151029488 513.6363636363636,223.17165033580852 508.5858585858586,228.44433057659944 503.5353535353535,225.10541156384022 498.4848484848485,232.27505481401323 493.4343434343434,228.50234712293823 488.3838383838384,233.10130836462093 483.3333333333333,232.28099001056964 478.2828282828283,244.46364865219107 473.2323232323232,248.2500072953458 468.1818181818182,247.80790934185103 463.1313131313131,252.69220515798258 458.0808080808081,249.73810945194893 453.030303030303,256.58465543958295 447.979797979798,260.2068317079963 442.9292929292929,262.3886841520855 437.8787878787879,259.53608030716623 432.8282828282828,264.52342597350827 427.77777777777777,268.1734976657367 422.72727272727275,280.122309563036 417.67676767676767,278.77457480499174 412.62626262626264,280.78593872799837 407.57575757575756,283.6762310710508 402.52525252525254,285.54210848846867 397.47474747474746,287.8221884355663 392.4242424242424,287.9565464476118 387.37373737373736,292.5699747309007 382.32323232323233,294.86088641171375 377.27272727272725,297.92841856193155 372.22222222222223,301.9887607161211 367.1717171717172,301.7391857009245 362.1212121212121,303.8211784629523 357.07070707070704,307.4410548427 352.020202020202,311.38128345657935 346.969696969697,314.00768212274284 341.9191919191919,313.1686678995389 336.86868686868684,317.63408721870263 331.8181818181818,321.5712740443468 326.7676767676768,320.42874870724 321.7171717171717,324.46037934808794 316.66666666666663,326.66968207625047 311.6161616161616,329.5786702884555 306.5656565656566,331.7663095491872 301.5151515151515,333.85609225669526 296.4646464646464,337.02467112828583 291.4141414141414,339.38324404984184 286.3636363636364,347.3163019570816 281.3131313131313,348.10427348990055 276.26262626262627,350.56463503239877 271.2121212121212,352.07061696862803 266.16161616161617,354.585804889316 261.1111111111111,358.6298252529754 256.06060606060606,359.5602415031479 251.010101010101,361.82800591739095 245.95959595959596,362.27255213946523 240.9090909090909,365.11899821795726 235.85858585858585,366.9403616612022 230.8080808080808,369.0233188926704 225.75757575757575,371.4194319324456 220.7070707070707,372.3369391301079 215.65656565656565,376.93864540019797 210.6060606060606,378.69954402852454 205.55555555555554,379.73033929045715 200.50505050505052,381.7863655675507 195.45454545454544,383.22913766045434 190.40404040404042,385.3980810520334 185.35353535353534,387.3826624005793 180.3030303030303,390.1589989697488 175.25252525252526,391.71528169679357 170.2020202020202,393.1153945644481 165.15151515151516,395.3217296943324 160.1010101010101,396.9608826032959 155.05050505050505,398.5189458893076 150,399.99332290387406 "/><text class="poloto_text" alignment-baseline="start" text-anchor="middle" font-size="x-large" x="400" y="37.5">Bench of rebal:8_bytes with abspiral(num,1.5)</text><text class="poloto_text" alignment-baseline="start" text-anchor="middle" font-size="x-large" x="400" y="481.25">Number of Elements</text><text class="poloto_text" alignment-baseline="start" text-anchor="middle" font-size="x-large" transform="rotate(-90,37.5,250)" x="37.5" y="250">Time in Seconds</text><path stroke="black" fill="none" class="poloto_axis_lines" d=" M 150 100 L 150 400 L 650 400"/></svg>