<svg class="poloto" width="800" height="500" viewBox="0 0 800 500" xmlns="http://www.w3.org/2000/svg"><circle  r="1e5" class="poloto_background" /><text  class="poloto_text poloto_legend_text" x="675" y="100" >default_seq</text><line  class="poloto_scatter poloto_legend_icon poloto0stroke poloto0legend" stroke="black" x1="685" x2="685" y1="81.25" y2="81.25" /><path  class="poloto_scatter poloto0stroke" d=" M 650.00 392.69 h 0 M 644.95 392.76 h 0 M 639.90 392.78 h 0 M 634.85 392.85 h 0 M 629.80 392.90 h 0 M 624.75 393.07 h 0 M 619.70 392.99 h 0 M 614.65 393.19 h 0 M 609.60 393.38 h 0 M 604.55 393.29 h 0 M 599.49 393.21 h 0 M 594.44 393.50 h 0 M 589.39 393.71 h 0 M 584.34 393.55 h 0 M 579.29 393.77 h 0 M 574.24 393.86 h 0 M 569.19 393.96 h 0 M 564.14 393.84 h 0 M 559.09 394.22 h 0 M 554.04 394.22 h 0 M 548.99 394.26 h 0 M 543.94 394.33 h 0 M 538.89 394.41 h 0 M 533.84 394.47 h 0 M 528.79 394.53 h 0 M 523.74 394.67 h 0 M 518.69 394.66 h 0 M 513.64 394.50 h 0 M 508.59 394.81 h 0 M 503.54 394.84 h 0 M 498.48 393.92 h 0 M 493.43 395.05 h 0 M 488.38 395.01 h 0 M 483.33 394.68 h 0 M 478.28 395.29 h 0 M 473.23 395.45 h 0 M 468.18 394.88 h 0 M 463.13 395.53 h 0 M 458.08 395.44 h 0 M 453.03 395.63 h 0 M 447.98 395.69 h 0 M 442.93 395.87 h 0 M 437.88 395.89 h 0 M 432.83 394.76 h 0 M 427.78 394.97 h 0 M 422.73 396.13 h 0 M 417.68 396.12 h 0 M 412.63 396.24 h 0 M 407.58 396.36 h 0 M 402.53 396.41 h 0 M 397.47 396.49 h 0 M 392.42 396.60 h 0 M 387.37 396.67 h 0 M 382.32 396.75 h 0 M 377.27 396.79 h 0 M 372.22 396.86 h 0 M 367.17 397.04 h 0 M 362.12 396.98 h 0 M 357.07 397.10 h 0 M 352.02 397.16 h 0 M 346.97 397.24 h 0 M 341.92 397.20 h 0 M 336.87 397.31 h 0 M 331.82 397.02 h 0 M 326.77 397.44 h 0 M 321.72 397.51 h 0 M 316.67 397.57 h 0 M 311.62 397.72 h 0 M 306.57 397.86 h 0 M 301.52 397.91 h 0 M 296.46 398.02 h 0 M 291.41 398.06 h 0 M 286.36 398.35 h 0 M 281.31 398.43 h 0 M 276.26 398.45 h 0 M 271.21 398.52 h 0 M 266.16 398.61 h 0 M 261.11 398.75 h 0 M 256.06 398.78 h 0 M 251.01 398.81 h 0 M 245.96 398.84 h 0 M 240.91 398.91 h 0 M 235.86 398.95 h 0 M 230.81 399.05 h 0 M 225.76 399.13 h 0 M 220.71 399.19 h 0 M 215.66 399.21 h 0 M 210.61 399.29 h 0 M 205.56 399.36 h 0 M 200.51 399.42 h 0 M 195.45 399.46 h 0 M 190.40 399.56 h 0 M 185.35 399.55 h 0 M 180.30 399.71 h 0 M 175.25 399.75 h 0 M 170.20 399.81 h 0 M 165.15 399.85 h 0 M 160.10 399.91 h 0 M 155.05 399.96 h 0 M 150.00 400.00 h 0" /><text  class="poloto_text poloto_legend_text" x="675" y="150" >direct_seq</text><line  class="poloto_scatter poloto_legend_icon poloto1stroke poloto1legend" stroke="black" x1="685" x2="685" y1="131.25" y2="131.25" /><path  class="poloto_scatter poloto1stroke" d=" M 650.00 105.39 h 0 M 644.95 100.00 h 0 M 639.90 110.22 h 0 M 634.85 113.17 h 0 M 629.80 116.59 h 0 M 624.75 118.75 h 0 M 619.70 121.76 h 0 M 614.65 126.67 h 0 M 609.60 127.40 h 0 M 604.55 129.63 h 0 M 599.49 132.43 h 0 M 594.44 136.28 h 0 M 589.39 141.69 h 0 M 584.34 140.76 h 0 M 579.29 145.54 h 0 M 574.24 150.69 h 0 M 569.19 153.77 h 0 M 564.14 155.68 h 0 M 559.09 161.84 h 0 M 554.04 164.78 h 0 M 548.99 166.18 h 0 M 543.94 169.12 h 0 M 538.89 173.34 h 0 M 533.84 175.47 h 0 M 528.79 179.48 h 0 M 523.74 180.65 h 0 M 518.69 182.06 h 0 M 513.64 182.28 h 0 M 508.59 187.89 h 0 M 503.54 190.19 h 0 M 498.48 192.83 h 0 M 493.43 195.68 h 0 M 488.38 199.99 h 0 M 483.33 200.14 h 0 M 478.28 202.40 h 0 M 473.23 208.58 h 0 M 468.18 206.74 h 0 M 463.13 213.86 h 0 M 458.08 217.74 h 0 M 453.03 220.38 h 0 M 447.98 223.96 h 0 M 442.93 227.06 h 0 M 437.88 226.64 h 0 M 432.83 231.19 h 0 M 427.78 230.69 h 0 M 422.73 238.58 h 0 M 417.68 240.09 h 0 M 412.63 243.54 h 0 M 407.58 247.69 h 0 M 402.53 250.77 h 0 M 397.47 254.25 h 0 M 392.42 258.29 h 0 M 387.37 260.38 h 0 M 382.32 263.41 h 0 M 377.27 266.19 h 0 M 372.22 268.62 h 0 M 367.17 263.86 h 0 M 362.12 275.02 h 0 M 357.07 277.92 h 0 M 352.02 282.73 h 0 M 346.97 284.87 h 0 M 341.92 287.00 h 0 M 336.87 290.76 h 0 M 331.82 293.64 h 0 M 326.77 295.91 h 0 M 321.72 300.30 h 0 M 316.67 302.81 h 0 M 311.62 304.61 h 0 M 306.57 309.01 h 0 M 301.52 311.63 h 0 M 296.46 315.84 h 0 M 291.41 318.17 h 0 M 286.36 331.45 h 0 M 281.31 333.49 h 0 M 276.26 335.99 h 0 M 271.21 338.35 h 0 M 266.16 342.16 h 0 M 261.11 345.27 h 0 M 256.06 347.69 h 0 M 251.01 349.92 h 0 M 245.96 351.44 h 0 M 240.91 354.21 h 0 M 235.86 356.13 h 0 M 230.81 359.48 h 0 M 225.76 363.19 h 0 M 220.71 364.82 h 0 M 215.66 366.95 h 0 M 210.61 370.28 h 0 M 205.56 372.49 h 0 M 200.51 375.25 h 0 M 195.45 377.40 h 0 M 190.40 380.57 h 0 M 185.35 382.63 h 0 M 180.30 387.29 h 0 M 175.25 389.97 h 0 M 170.20 391.83 h 0 M 165.15 393.74 h 0 M 160.10 396.24 h 0 M 155.05 398.46 h 0 M 150.00 400.00 h 0" /><text  class="poloto_text poloto_legend_text" x="675" y="200" >indirect_seq</text><line  class="poloto_scatter poloto_legend_icon poloto2stroke poloto2legend" stroke="black" x1="685" x2="685" y1="181.25" y2="181.25" /><path  class="poloto_scatter poloto2stroke" d=" M 650.00 378.20 h 0 M 644.95 379.53 h 0 M 639.90 379.74 h 0 M 634.85 380.12 h 0 M 629.80 380.84 h 0 M 624.75 381.79 h 0 M 619.70 381.61 h 0 M 614.65 379.95 h 0 M 609.60 382.77 h 0 M 604.55 379.71 h 0 M 599.49 382.89 h 0 M 594.44 383.30 h 0 M 589.39 384.45 h 0 M 584.34 384.06 h 0 M 579.29 384.49 h 0 M 574.24 385.00 h 0 M 569.19 385.32 h 0 M 564.14 385.23 h 0 M 559.09 386.12 h 0 M 554.04 385.37 h 0 M 548.99 386.51 h 0 M 543.94 386.73 h 0 M 538.89 387.28 h 0 M 533.84 387.56 h 0 M 528.79 386.65 h 0 M 523.74 387.83 h 0 M 518.69 386.95 h 0 M 513.64 387.79 h 0 M 508.59 388.31 h 0 M 503.54 388.54 h 0 M 498.48 383.55 h 0 M 493.43 383.47 h 0 M 488.38 383.78 h 0 M 483.33 386.76 h 0 M 478.28 388.98 h 0 M 473.23 389.26 h 0 M 468.18 388.13 h 0 M 463.13 389.99 h 0 M 458.08 389.04 h 0 M 453.03 390.68 h 0 M 447.98 389.77 h 0 M 442.93 389.80 h 0 M 437.88 385.93 h 0 M 432.83 382.50 h 0 M 427.78 388.43 h 0 M 422.73 391.24 h 0 M 417.68 391.57 h 0 M 412.63 391.82 h 0 M 407.58 392.21 h 0 M 402.53 392.78 h 0 M 397.47 393.09 h 0 M 392.42 393.35 h 0 M 387.37 393.38 h 0 M 382.32 393.69 h 0 M 377.27 393.82 h 0 M 372.22 393.87 h 0 M 367.17 394.40 h 0 M 362.12 394.25 h 0 M 357.07 394.40 h 0 M 352.02 394.80 h 0 M 346.97 394.96 h 0 M 341.92 394.81 h 0 M 336.87 395.18 h 0 M 331.82 394.48 h 0 M 326.77 395.36 h 0 M 321.72 395.52 h 0 M 316.67 395.70 h 0 M 311.62 395.92 h 0 M 306.57 396.17 h 0 M 301.52 396.26 h 0 M 296.46 396.56 h 0 M 291.41 396.61 h 0 M 286.36 397.02 h 0 M 281.31 397.15 h 0 M 276.26 397.19 h 0 M 271.21 397.32 h 0 M 266.16 397.64 h 0 M 261.11 397.84 h 0 M 256.06 397.88 h 0 M 251.01 397.98 h 0 M 245.96 398.01 h 0 M 240.91 398.16 h 0 M 235.86 398.25 h 0 M 230.81 398.26 h 0 M 225.76 398.61 h 0 M 220.71 398.69 h 0 M 215.66 398.76 h 0 M 210.61 398.92 h 0 M 205.56 399.01 h 0 M 200.51 399.11 h 0 M 195.45 399.20 h 0 M 190.40 399.34 h 0 M 185.35 399.40 h 0 M 180.30 399.58 h 0 M 175.25 399.68 h 0 M 170.20 399.75 h 0 M 165.15 399.82 h 0 M 160.10 399.90 h 0 M 155.05 399.96 h 0 M 150.00 400.00 h 0" /><text  class="poloto_labels poloto_text poloto_title" x="400" y="37.5" >Bench of rebal:256_bytes with abspiral(num,1.5)</text><text  class="poloto_labels poloto_text poloto_xname" x="400" y="481.25" >Number of Elements</text><text  class="poloto_labels poloto_text poloto_yname" transform="rotate(-90,37.5,250)" x="37.5" y="250" >Time in Seconds</text><text  class="poloto_tick_labels poloto_text" dominant-baseline="middle" text-anchor="start" x="150" y="70" ></text><line  class="poloto_axis_lines" stroke="black" x1="150" x2="144" y1="400" y2="400" /><text  class="poloto_tick_labels poloto_text" dominant-baseline="middle" text-anchor="end" x="135" y="400" >0e0</text><line  class="poloto_axis_lines" stroke="black" x1="150" x2="144" y1="338.76154471186493" y2="338.76154471186493" /><text  class="poloto_tick_labels poloto_text" dominant-baseline="middle" text-anchor="end" x="135" y="338.76154471186493" >0.02</text><line  class="poloto_axis_lines" stroke="black" x1="150" x2="144" y1="277.5230894237299" y2="277.5230894237299" /><text  class="poloto_tick_labels poloto_text" dominant-baseline="middle" text-anchor="end" x="135" y="277.5230894237299" >0.04</text><line  class="poloto_axis_lines" stroke="black" x1="150" x2="144" y1="216.28463413559484" y2="216.28463413559484" /><text  class="poloto_tick_labels poloto_text" dominant-baseline="middle" text-anchor="end" x="135" y="216.28463413559484" >0.06</text><line  class="poloto_axis_lines" stroke="black" x1="150" x2="144" y1="155.0461788474598" y2="155.0461788474598" /><text  class="poloto_tick_labels poloto_text" dominant-baseline="middle" text-anchor="end" x="135" y="155.0461788474598" >0.08</text><text  class="poloto_tick_labels poloto_text" dominant-baseline="middle" text-anchor="start" x="440.00000000000006" y="70" ></text><line  class="poloto_axis_lines" stroke="black" x1="150" x2="150" y1="400" y2="405" /><text  class="poloto_tick_labels poloto_text" dominant-baseline="start" text-anchor="middle" x="150" y="430" >0</text><line  class="poloto_axis_lines" stroke="black" x1="234.17508417508418" x2="234.17508417508418" y1="400" y2="405" /><text  class="poloto_tick_labels poloto_text" dominant-baseline="start" text-anchor="middle" x="234.17508417508418" y="430" >5000</text><line  class="poloto_axis_lines" stroke="black" x1="318.35016835016836" x2="318.35016835016836" y1="400" y2="405" /><text  class="poloto_tick_labels poloto_text" dominant-baseline="start" text-anchor="middle" x="318.35016835016836" y="430" >10000</text><line  class="poloto_axis_lines" stroke="black" x1="402.52525252525254" x2="402.52525252525254" y1="400" y2="405" /><text  class="poloto_tick_labels poloto_text" dominant-baseline="start" text-anchor="middle" x="402.52525252525254" y="430" >15000</text><line  class="poloto_axis_lines" stroke="black" x1="486.7003367003367" x2="486.7003367003367" y1="400" y2="405" /><text  class="poloto_tick_labels poloto_text" dominant-baseline="start" text-anchor="middle" x="486.7003367003367" y="430" >20000</text><line  class="poloto_axis_lines" stroke="black" x1="570.8754208754208" x2="570.8754208754208" y1="400" y2="405" /><text  class="poloto_tick_labels poloto_text" dominant-baseline="start" text-anchor="middle" x="570.8754208754208" y="430" >25000</text><path  stroke="black" fill="none" class="poloto_axis_lines" style="stroke-dasharray:8.417508417508419;stroke-dashoffset:-0;" d=" M 150 400 L 650 400" /><path  stroke="black" fill="none" class="poloto_axis_lines" style="stroke-dasharray:7.654806911016881;stroke-dashoffset:-0;" d=" M 150 400 L 150 100" /></svg>