<svg class="poloto" width="800" height="500" viewBox="0 0 800 500" xmlns="http://www.w3.org/2000/svg"><style>.poloto {
                    font-family: "Arial";
                    stroke-width:2;
                    }
                    .poloto_text{fill: var(--poloto_fg_color,black);  }
                    .poloto_axis_lines{stroke: var(--poloto_fg_color,black);stoke-width:3;fill:none}
                    .poloto_background{fill: var(--poloto_bg_color,aliceblue); }
                    .poloto0stroke{stroke:  var(--poloto_color0,blue); }
                    .poloto1stroke{stroke:  var(--poloto_color1,red); }
                    .poloto2stroke{stroke:  var(--poloto_color2,green); }
                    .poloto3stroke{stroke:  var(--poloto_color3,gold); }
                    .poloto4stroke{stroke:  var(--poloto_color4,aqua); }
                    .poloto5stroke{stroke:  var(--poloto_color5,brown); }
                    .poloto6stroke{stroke:  var(--poloto_color6,lime); }
                    .poloto7stroke{stroke:  var(--poloto_color7,chocolate); }
                    .poloto0fill{fill:var(--poloto_color0,blue);}
                    .poloto1fill{fill:var(--poloto_color1,red);}
                    .poloto2fill{fill:var(--poloto_color2,green);}
                    .poloto3fill{fill:var(--poloto_color3,gold);}
                    .poloto4fill{fill:var(--poloto_color4,aqua);}
                    .poloto5fill{fill:var(--poloto_color5,brown);}
                    .poloto6fill{fill:var(--poloto_color6,lime);}
                    .poloto7fill{fill:var(--poloto_color7,chocolate);}</style><rect class="poloto_background" fill="white" x="0" y="0" width="800" height="500"/><line class="poloto_axis_lines" stroke="black" x1="150" x2="150" y1="400" y2="405"/><text class="poloto_text" alignment-baseline="start" text-anchor="middle" x="150" y="430">0</text><line class="poloto_axis_lines" stroke="black" x1="234.17508417508418" x2="234.17508417508418" y1="400" y2="405"/><text class="poloto_text" alignment-baseline="start" text-anchor="middle" x="234.17508417508418" y="430">5000</text><line class="poloto_axis_lines" stroke="black" x1="318.35016835016836" x2="318.35016835016836" y1="400" y2="405"/><text class="poloto_text" alignment-baseline="start" text-anchor="middle" x="318.35016835016836" y="430">10000</text><line class="poloto_axis_lines" stroke="black" x1="402.52525252525254" x2="402.52525252525254" y1="400" y2="405"/><text class="poloto_text" alignment-baseline="start" text-anchor="middle" x="402.52525252525254" y="430">15000</text><line class="poloto_axis_lines" stroke="black" x1="486.7003367003367" x2="486.7003367003367" y1="400" y2="405"/><text class="poloto_text" alignment-baseline="start" text-anchor="middle" x="486.7003367003367" y="430">20000</text><line class="poloto_axis_lines" stroke="black" x1="570.8754208754208" x2="570.8754208754208" y1="400" y2="405"/><text class="poloto_text" alignment-baseline="start" text-anchor="middle" x="570.8754208754208" y="430">25000</text><line class="poloto_axis_lines" stroke="black" x1="150" x2="144" y1="361.28591137226255" y2="361.28591137226255"/><text class="poloto_text" alignment-baseline="middle" text-anchor="end" x="135" y="361.28591137226255">0.001</text><line class="poloto_axis_lines" stroke="black" x1="150" x2="144" y1="322.56919000747234" y2="322.56919000747234"/><text class="poloto_text" alignment-baseline="middle" text-anchor="end" x="135" y="322.56919000747234">0.002</text><line class="poloto_axis_lines" stroke="black" x1="150" x2="144" y1="283.8524686426821" y2="283.8524686426821"/><text class="poloto_text" alignment-baseline="middle" text-anchor="end" x="135" y="283.8524686426821">0.003</text><line class="poloto_axis_lines" stroke="black" x1="150" x2="144" y1="245.13574727789182" y2="245.13574727789182"/><text class="poloto_text" alignment-baseline="middle" text-anchor="end" x="135" y="245.13574727789182">0.004</text><line class="poloto_axis_lines" stroke="black" x1="150" x2="144" y1="206.41902591310156" y2="206.41902591310156"/><text class="poloto_text" alignment-baseline="middle" text-anchor="end" x="135" y="206.41902591310156">0.005</text><line class="poloto_axis_lines" stroke="black" x1="150" x2="144" y1="167.70230454831136" y2="167.70230454831136"/><text class="poloto_text" alignment-baseline="middle" text-anchor="end" x="135" y="167.70230454831136">0.006</text><line class="poloto_axis_lines" stroke="black" x1="150" x2="144" y1="128.9855831835211" y2="128.9855831835211"/><text class="poloto_text" alignment-baseline="middle" text-anchor="end" x="135" y="128.9855831835211">0.007</text><text class="poloto_text" alignment-baseline="middle" text-anchor="start" font-size="large" x="675" y="100">default_par</text><line class="poloto0stroke" stroke="black" x1="680" x2="730" y1="81.25" y2="81.25"/><polyline class="poloto0stroke" fill="none" stroke="black" points="650,260.42811659927804 644.9494949494949,268.91803541031334 639.8989898989898,273.4133564945364 634.8484848484848,277.6861338643547 629.7979797979798,273.112953453467 624.7474747474747,275.16571402022817 619.6969696969697,277.1519205429633 614.6464646464647,270.86866126611426 609.5959595959596,282.61574041212657 604.5454545454545,274.9161073175894 599.4949494949494,279.8126885020372 594.4444444444445,277.5893033442213 589.3939393939394,284.51371152687136 584.3434343434344,281.9862065227351 579.2929292929293,282.2381749453772 574.2424242424242,276.3041792119599 569.1919191919192,280.4507013534075 564.1414141414141,292.85937183410147 559.090909090909,287.4140972744719 554.040404040404,279.2308148966457 548.989898989899,310.7896662489563 543.939393939394,310.81378676636655 538.8888888888889,316.9512388705558 533.8383838383838,312.4120904577478 528.7878787878788,318.1957104453843 523.7373737373737,319.33220108432636 518.6868686868687,308.14121020727646 513.6363636363636,321.059392741131 508.5858585858586,286.8536727327165 503.5353535353535,322.190463039082 498.4848484848485,318.5976674465935 493.4343434343434,324.6998099008981 488.3838383838384,322.94447118766124 483.3333333333333,323.5407861301218 478.2828282828283,324.59523603649177 473.2323232323232,325.8811345031806 468.1818181818182,305.3810564244592 463.1313131313131,307.63669261117184 458.0808080808081,315.36304024345077 453.030303030303,317.92511927976574 447.979797979798,311.8194148870956 442.9292929292929,315.54845462206674 437.8787878787879,319.84829498011896 432.8282828282828,312.2770465336274 427.77777777777777,312.51190216542625 422.72727272727275,323.67126148112106 417.67676767676767,287.7704846946348 412.62626262626264,325.40096972481444 407.57575757575756,325.77594117123243 402.52525252525254,327.47746364177226 397.47474747474746,325.93316977669485 392.4242424242424,331.01733347615504 387.37373737373736,330.3979433677611 382.32323232323233,325.62037738478875 377.27272727272725,336.41107607964807 372.22222222222223,338.373278235137 367.1717171717172,336.6503067009611 362.1212121212121,337.60246702948535 357.07070707070704,341.16637994783565 352.020202020202,342.01365667818277 346.969696969697,337.8600493767253 341.9191919191919,341.2692502765019 336.86868686868684,344.2524898078231 331.8181818181818,344.40971841328553 326.7676767676768,340.6119952146132 321.7171717171717,345.542647113862 316.66666666666663,345.19148645108334 311.6161616161616,353.19326483915137 306.5656565656566,354.03361127637413 301.5151515151515,352.9115619745012 296.4646464646464,356.2977264250657 291.4141414141414,356.5999104353179 286.3636363636364,354.5349928180482 281.3131313131313,359.13542980077665 276.26262626262627,358.69525939558036 271.2121212121212,348.34163376820817 266.16161616161617,349.94013104319623 261.1111111111111,353.1466111899068 256.06060606060606,357.954298782101 251.010101010101,364.2063910982514 245.95959595959596,358.4787554897084 240.9090909090909,360.27803768169434 235.85858585858585,360.7161948173797 230.8080808080808,364.62333147062884 225.75757575757575,365.67940747929623 220.7070707070707,373.4032772414078 215.65656565656565,374.9265479267841 210.6060606060606,376.1436080628863 205.55555555555554,378.4889508930012 200.50505050505052,379.82212247647635 195.45454545454544,381.69392108757853 190.40404040404042,383.8720076813975 185.35353535353534,384.0650879708437 180.3030303030303,384.08882132104037 175.25252525252526,386.60335622351937 170.2020202020202,389.00247657960995 165.15151515151516,392.4907757411348 160.1010101010101,395.08340227060665 155.05050505050505,397.82760476422163 150,399.99984513311455 "/><text class="poloto_text" alignment-baseline="middle" text-anchor="start" font-size="large" x="675" y="150">default_seq</text><line class="poloto1stroke" stroke="black" x1="680" x2="730" y1="131.25" y2="131.25"/><polyline class="poloto1stroke" fill="none" stroke="black" points="650,100 644.9494949494949,118.20820304081127 639.8989898989898,106.78808660672456 634.8484848484848,114.72253661633926 629.7979797979798,129.90808650347998 624.7474747474747,125.57688560112223 619.6969696969697,131.2363797800632 614.6464646464647,123.67519768112652 609.5959595959596,135.16972765367638 604.5454545454545,137.84013607637002 599.4949494949494,148.390829815489 594.4444444444445,147.28798400741297 589.3939393939394,151.8728181514314 584.3434343434344,153.5216858809151 579.2929292929293,159.05844805312967 574.2424242424242,152.92962977780473 569.1919191919192,160.72988763116902 564.1414141414141,164.62157631259365 559.090909090909,172.13231052359203 554.040404040404,161.65134559965102 548.989898989899,164.17943135460774 543.939393939394,178.64314668862335 538.8888888888889,181.09790297331514 533.8383838383838,184.30581563871618 528.7878787878788,182.47478573521116 523.7373737373737,181.52429022570556 518.6868686868687,190.51388704267487 513.6363636363636,197.64678476987427 508.5858585858586,199.01758900651603 503.5353535353535,190.93504753768104 498.4848484848485,201.49224568598933 493.4343434343434,204.54223284494338 488.3838383838384,209.73348699569857 483.3333333333333,212.8270691829094 478.2828282828283,214.82334205319935 473.2323232323232,206.4131022547328 468.1818181818182,218.59663500069044 463.1313131313131,213.2051379670366 458.0808080808081,225.5427632640261 453.030303030303,224.0100069819154 447.979797979798,229.43716211594625 442.9292929292929,228.8692652469675 437.8787878787879,225.56130857355984 432.8282828282828,221.97900521256125 427.77777777777777,239.08080050693093 422.72727272727275,250.01974552789605 417.67676767676767,176.73770324665517 412.62626262626264,250.57792449981224 407.57575757575756,258.82989034133954 402.52525252525254,257.0958071081319 397.47474747474746,261.9514647180971 392.4242424242424,261.2453104371247 387.37373737373736,263.4172797889681 382.32323232323233,265.49946506396645 377.27272727272725,269.43649102610925 372.22222222222223,272.9877435765733 367.1717171717172,277.11839186226143 362.1212121212121,275.4991811413431 357.07070707070704,280.4739313862264 352.020202020202,287.84888605539845 346.969696969697,290.5386141220532 341.9191919191919,280.69554589931846 336.86868686868684,290.39265208250794 331.8181818181818,290.34266879522596 326.7676767676768,294.2293243028732 321.7171717171717,304.1141291512391 316.66666666666663,303.6504576961744 311.6161616161616,309.88466288705433 306.5656565656566,312.1885401085875 301.5151515151515,312.6345567387099 296.4646464646464,317.8323927320971 291.4141414141414,317.9803293244319 286.3636363636364,327.3546154848818 281.3131313131313,323.9817308697453 276.26262626262627,332.11088727110354 271.2121212121212,334.2571100032393 266.16161616161617,337.3728381550708 261.1111111111111,340.5614698932322 256.06060606060606,340.9413970799849 251.010101010101,346.3402115739767 245.95959595959596,348.71470809527926 240.9090909090909,350.14134184412904 235.85858585858585,350.1091682486749 230.8080808080808,354.61970500439435 225.75757575757575,357.34671727372336 220.7070707070707,360.0342772039816 215.65656565656565,364.7507869173617 210.6060606060606,367.47439211521066 205.55555555555554,369.56614042038615 200.50505050505052,371.31520702476195 195.45454545454544,375.343643166047 190.40404040404042,377.1338656452335 185.35353535353534,381.3814771461647 180.3030303030303,383.85326878825697 175.25252525252526,386.3226212769033 170.2020202020202,388.95880411791046 165.15151515151516,392.30834255006397 160.1010101010101,395.00314250721743 155.05050505050505,397.80472318189504 150,399.99992256655725 "/><text class="poloto_text" alignment-baseline="middle" text-anchor="start" font-size="large" x="675" y="200">direct_par</text><line class="poloto2stroke" stroke="black" x1="680" x2="730" y1="181.25" y2="181.25"/><polyline class="poloto2stroke" fill="none" stroke="black" points="650,291.32429254870885 644.9494949494949,289.020337893733 639.8989898989898,289.3896566988317 634.8484848484848,293.86395460335365 629.7979797979798,291.83252695006445 624.7474747474747,295.4042993628518 619.6969696969697,275.4155917399165 614.6464646464647,288.8553272272762 609.5959595959596,301.13398695762714 604.5454545454545,295.71875657377666 599.4949494949494,297.4917888286772 594.4444444444445,302.9172017102467 589.3939393939394,305.44768790192796 584.3434343434344,304.00792918453556 579.2929292929293,302.7099898175023 574.2424242424242,303.43356662308884 569.1919191919192,301.11338966186105 564.1414141414141,302.55643930056954 559.090909090909,308.7629620356736 554.040404040404,308.02807994744853 548.989898989899,309.1761081693573 543.939393939394,326.8608611373166 538.8888888888889,328.5415540117622 533.8383838383838,323.9840538730272 528.7878787878788,327.2074919436956 523.7373737373737,330.74701332758605 518.6868686868687,330.38818675397715 513.6363636363636,324.61025812438135 508.5858585858586,331.1431628205906 503.5353535353535,333.0150001484141 498.4848484848485,331.37751513501166 493.4343434343434,332.0893220573033 488.3838383838384,332.3076456490794 483.3333333333333,334.47434952681715 478.2828282828283,333.91156326505853 473.2323232323232,330.120925226396 468.1818181818182,323.35738502101674 463.1313131313131,323.569784954424 458.0808080808081,316.05765694145646 453.030303030303,328.2862559510827 447.979797979798,326.8646553760103 442.9292929292929,323.789270047841 437.8787878787879,328.9430851290364 432.8282828282828,330.59896058508707 427.77777777777777,330.3198904574897 422.72727272727275,334.6000627210886 417.67676767676767,337.3166989090918 412.62626262626264,336.58944401497564 407.57575757575756,339.26027832160435 402.52525252525254,339.0469491868843 397.47474747474746,338.18097228011806 392.4242424242424,340.26424162331466 387.37373737373736,343.9630823156213 382.32323232323233,337.9384894542104 377.27272727272725,343.51756900287666 372.22222222222223,346.7743808873614 367.1717171717172,345.12055741754307 362.1212121212121,348.56057682752606 357.07070707070704,349.8165085518785 352.020202020202,350.0726196637066 346.969696969697,350.6714124763344 341.9191919191919,349.46616094024847 336.86868686868684,350.7223249649291 331.8181818181818,350.6264623628299 326.7676767676768,339.2673634816141 321.7171717171717,351.52740046898856 316.66666666666663,349.32112810201596 311.6161616161616,352.87423905510553 306.5656565656566,360.7129813295064 301.5151515151515,359.3817068653781 296.4646464646464,360.57855687292783 291.4141414141414,362.66527200432597 286.3636363636364,363.04663170976914 281.3131313131313,358.3781694476027 276.26262626262627,365.5596566601149 271.2121212121212,367.9645070909675 266.16161616161617,354.3057898275686 261.1111111111111,356.4534450783949 256.06060606060606,363.29039218748187 251.010101010101,361.2177312259392 245.95959595959596,363.3692968656233 240.9090909090909,364.47028427107387 235.85858585858585,364.50040588029566 230.8080808080808,368.31369320095655 225.75757575757575,367.6840044446796 220.7070707070707,369.0671980321581 215.65656565656565,378.73561512481626 210.6060606060606,378.3258760626127 205.55555555555554,380.3828567520026 200.50505050505052,382.21071188435576 195.45454545454544,382.75224266608507 190.40404040404042,384.2298663369723 185.35353535353534,387.5971370275108 180.3030303030303,386.9128576941095 175.25252525252526,388.99062926287235 170.2020202020202,391.3237763257573 165.15151515151516,393.9298762742641 160.1010101010101,395.55268765026926 155.05050505050505,398.0547944851902 150,399.9998064163932 "/><text class="poloto_text" alignment-baseline="middle" text-anchor="start" font-size="large" x="675" y="250">direct_seq</text><line class="poloto3stroke" stroke="black" x1="680" x2="730" y1="231.25" y2="231.25"/><polyline class="poloto3stroke" fill="none" stroke="black" points="650,176.95196158268794 644.9494949494949,180.05228047941625 639.8989898989898,181.1644570173412 634.8484848484848,179.29076128689218 629.7979797979798,185.2887557607255 624.7474747474747,187.15141722558556 619.6969696969697,190.86907424447546 614.6464646464647,193.78816016849518 609.5959595959596,195.51178988693428 604.5454545454545,198.00824408053592 599.4949494949494,200.00738198820687 594.4444444444445,197.29550795693152 589.3939393939394,202.36360421702528 584.3434343434344,206.67715029444065 579.2929292929293,207.7917659858116 574.2424242424242,211.2199767957783 569.1919191919192,213.4848662788972 564.1414141414141,214.30972602757404 559.090909090909,215.30385528205775 554.040404040404,218.72045107561505 548.989898989899,216.23758645121242 543.939393939394,213.0436892389454 538.8888888888889,225.2215693435838 533.8383838383838,226.24845294434212 528.7878787878788,229.43162562479108 523.7373737373737,232.43499785122194 518.6868686868687,233.14142314924393 513.6363636363636,235.42892319763982 508.5858585858586,237.63205951018185 503.5353535353535,239.50037361636117 498.4848484848485,240.6608686225494 493.4343434343434,242.25843669622472 488.3838383838384,245.54633810796545 483.3333333333333,247.21022792533867 478.2828282828283,249.18512916543526 473.2323232323232,251.86610725306153 468.1818181818182,253.07441741013528 463.1313131313131,255.2092574261898 458.0808080808081,257.07350627662584 453.030303030303,259.50205134095364 447.979797979798,260.67563259896315 442.9292929292929,264.15200701030767 437.8787878787879,265.8304155981927 432.8282828282828,267.639183386913 427.77777777777777,264.26687952259704 422.72727272727275,279.53779978034714 417.67676767676767,282.68066835385537 412.62626262626264,283.29576090617775 407.57575757575756,286.16443765898055 402.52525252525254,287.68089420139665 397.47474747474746,288.8718205505776 392.4242424242424,292.02847227689165 387.37373737373736,294.6242735775154 382.32323232323233,297.1813968734957 377.27272727272725,298.5011724713787 372.22222222222223,301.0328975981437 367.1717171717172,303.46543048477207 362.1212121212121,304.8939226362474 357.07070707070704,306.518902148649 352.020202020202,310.3731130437925 346.969696969697,311.4874577181139 341.9191919191919,311.487573868278 336.86868686868684,316.18278938490744 331.8181818181818,318.29931639175646 326.7676767676768,320.07749797059853 321.7171717171717,321.73709023190025 316.66666666666663,324.2284338182818 311.6161616161616,326.2203316990575 306.5656565656566,329.1940856336443 301.5151515151515,331.3463868910344 296.4646464646464,333.3245016190042 291.4141414141414,335.5336390233578 286.3636363636364,341.6352007268419 281.3131313131313,344.12464719387657 276.26262626262627,345.65604839073944 271.2121212121212,348.0687583160291 266.16161616161617,350.4081774877752 261.1111111111111,353.310924955379 256.06060606060606,354.8538637352086 251.010101010101,356.737045062392 245.95959595959596,358.1533414466374 240.9090909090909,361.11404784612427 235.85858585858585,362.2257210666715 230.8080808080808,364.5879831040228 225.75757575757575,365.9858116121772 220.7070707070707,367.92590651976684 215.65656565656565,372.36361712259907 210.6060606060606,374.3542373515698 205.55555555555554,376.3828774009207 200.50505050505052,377.94169003650984 195.45454545454544,380.70579292490635 190.40404040404042,382.70338216372267 185.35353535353534,384.4263536978986 180.3030303030303,387.91782763057535 175.25252525252526,389.8319823348506 170.2020202020202,391.8575637632137 165.15151515151516,393.9753684218677 160.1010101010101,395.8090697791469 155.05050505050505,398.09413067409685 150,400 "/><text class="poloto_text" alignment-baseline="middle" text-anchor="start" font-size="large" x="675" y="300">indirect_par</text><line class="poloto4stroke" stroke="black" x1="680" x2="730" y1="281.25" y2="281.25"/><polyline class="poloto4stroke" fill="none" stroke="black" points="650,260.7291778246107 644.9494949494949,259.44397625890645 639.8989898989898,261.1124346494007 634.8484848484848,260.55216497453085 629.7979797979798,261.3582858300672 624.7474747474747,267.2606500021294 619.6969696969697,264.7367456530801 614.6464646464647,268.7471785189306 609.5959595959596,267.93412737026995 604.5454545454545,265.07780125158257 599.4949494949494,269.2033389300505 594.4444444444445,270.089293665041 589.3939393939394,275.1033026653882 584.3434343434344,277.6812942741841 579.2929292929293,276.1107504720214 574.2424242424242,275.95917450787823 569.1919191919192,269.6636420303565 564.1414141414141,279.0623971587089 559.090909090909,280.39510414152767 554.040404040404,277.4743146817679 548.989898989899,304.69201493433 543.939393939394,301.1986438823063 538.8888888888889,305.4879532921474 533.8383838383838,306.42888577147585 528.7878787878788,306.0891465414998 523.7373737373737,310.10488359817725 518.6868686868687,308.02715074613576 513.6363636363636,310.0337609810301 508.5858585858586,309.47414949042343 503.5353535353535,311.7802335650744 498.4848484848485,307.43679817876546 493.4343434343434,314.7390041284931 488.3838383838384,313.66395692635695 483.3333333333333,315.33950047686096 478.2828282828283,316.5346082319493 473.2323232323232,318.5639838990062 468.1818181818182,295.9536896390182 463.1313131313131,300.1956872153514 458.0808080808081,306.2857887693116 453.030303030303,310.5221337043256 447.979797979798,309.269686484896 442.9292929292929,305.7830134256684 437.8787878787879,290.8179165499788 432.8282828282828,288.74904982712985 427.77777777777777,308.83056143117653 422.72727272727275,312.22586302798317 417.67676767676767,318.13051148660594 412.62626262626264,318.1347703259561 407.57575757575756,322.0887154953353 402.52525252525254,322.94745237520635 397.47474747474746,324.341060760732 392.4242424242424,325.3303504250451 387.37373737373736,327.7734916933274 382.32323232323233,324.03825728293793 377.27272727272725,330.8170131598136 372.22222222222223,333.30808572914555 367.1717171717172,331.9450248367767 362.1212121212121,333.2843136622276 357.07070707070704,335.83787501984233 352.020202020202,333.7361378005547 346.969696969697,336.49586569943693 341.9191919191919,338.2877917143635 336.86868686868684,335.6224551821686 331.8181818181818,341.81767263463416 326.7676767676768,334.6459420359059 321.7171717171717,342.478025034232 316.66666666666663,344.0387347891681 311.6161616161616,339.96352884847437 306.5656565656566,349.1590211896616 301.5151515151515,351.5338274447351 296.4646464646464,354.1801153500185 291.4141414141414,355.00865318722504 286.3636363636364,351.3374562339729 281.3131313131313,346.8484459753323 276.26262626262627,356.43656458787984 271.2121212121212,352.565860369435 266.16161616161617,344.23804847075405 261.1111111111111,349.2984788200176 256.06060606060606,349.63752114900905 251.010101010101,361.45560676200444 245.95959595959596,355.4365116750273 240.9090909090909,356.5669625054365 235.85858585858585,365.282328784979 230.8080808080808,359.665500432982 225.75757575757575,359.54288457641974 220.7070707070707,351.02609636075726 215.65656565656565,374.16599665229415 210.6060606060606,374.72766012913314 205.55555555555554,376.6705426406611 200.50505050505052,377.91784053614913 195.45454545454544,380.0804017247009 190.40404040404042,383.41464705191527 185.35353535353534,384.87372541326874 180.3030303030303,384.9906499117904 175.25252525252526,386.78273079360247 170.2020202020202,388.7433842802368 165.15151515151516,392.6213285255769 160.1010101010101,394.57307716629737 155.05050505050505,397.7880362749868 150,399.9996515495077 "/><text class="poloto_text" alignment-baseline="middle" text-anchor="start" font-size="large" x="675" y="350">indirect_seq</text><line class="poloto5stroke" stroke="black" x1="680" x2="730" y1="331.25" y2="331.25"/><polyline class="poloto5stroke" fill="none" stroke="black" points="650,112.33266955665482 644.9494949494949,106.39964174127164 639.8989898989898,110.2531557354306 634.8484848484848,114.76624779476009 629.7979797979798,111.60123325663119 624.7474747474747,114.12122721682266 619.6969696969697,118.09890573639848 614.6464646464647,133.3470605619861 609.5959595959596,131.12998622975277 604.5454545454545,134.96727791765983 599.4949494949494,143.07173305078732 594.4444444444445,142.82185533109896 589.3939393939394,148.47081856182865 584.3434343434344,150.87292010546435 579.2929292929293,153.72227721430608 574.2424242424242,158.22143125394427 569.1919191919192,159.7797405721557 564.1414141414141,160.6646886723907 559.090909090909,156.471358014813 554.040404040404,167.6705955535136 548.989898989899,162.2885841165941 543.939393939394,170.69677192882835 538.8888888888889,176.71729953449594 533.8383838383838,178.64566327551208 528.7878787878788,179.56220422038075 523.7373737373737,185.47184713605958 518.6868686868687,178.0595308307705 513.6363636363636,187.2894810539724 508.5858585858586,193.65509079716438 503.5353535353535,194.87335115162887 498.4848484848485,198.91893880047854 493.4343434343434,202.48045128210424 488.3838383838384,202.9632875142445 483.3333333333333,206.99304002405597 478.2828282828283,209.60970963749534 473.2323232323232,210.8201492142441 468.1818181818182,206.86721067962043 463.1313131313131,213.14907615450036 458.0808080808081,220.17925841991897 453.030303030303,217.48964650342833 447.979797979798,219.43430998413905 442.9292929292929,221.58258470250715 437.8787878787879,227.20297499286966 432.8282828282828,225.92218713340102 427.77777777777777,235.22566041047466 422.72727272727275,245.16974055925013 417.67676767676767,241.34948422874353 412.62626262626264,243.65657493815004 407.57575757575756,246.1943785901693 402.52525252525254,249.61984051291913 397.47474747474746,251.61084790910348 392.4242424242424,255.3388035758764 387.37373737373736,259.85472195586556 382.32323232323233,268.9842797205685 377.27272727272725,264.41419664739004 372.22222222222223,268.35772701872213 367.1717171717172,276.57840974938665 362.1212121212121,279.02368043734407 357.07070707070704,277.2931978592234 352.020202020202,285.61121442739903 346.969696969697,281.6358589111051 341.9191919191919,287.1324718432644 336.86868686868684,290.11489832343693 331.8181818181818,292.66261345612554 326.7676767676768,297.1569666223145 321.7171717171717,301.30430181491084 316.66666666666663,303.17559710863526 311.6161616161616,303.7407063736757 306.5656565656566,307.0947359455075 301.5151515151515,311.27633543651166 296.4646464646464,314.03559873473756 291.4141414141414,316.6566820544125 286.3636363636364,326.31499408279444 281.3131313131313,327.14519673901964 276.26262626262627,330.8986280084506 271.2121212121212,333.83997604725505 266.16161616161617,337.06136213169106 261.1111111111111,340.16133257792706 256.06060606060606,342.9437484755291 251.010101010101,344.9086608015136 245.95959595959596,347.8637919931239 240.9090909090909,350.5866615732669 235.85858585858585,352.31780233565075 230.8080808080808,355.795531832243 225.75757575757575,356.7837761450793 220.7070707070707,360.60418734247133 215.65656565656565,364.628016193914 210.6060606060606,367.58744494159583 205.55555555555554,370.02988930889364 200.50505050505052,372.7416084732835 195.45454545454544,375.2491743659169 190.40404040404042,377.6469009200384 185.35353535353534,380.75167223972363 180.3030303030303,383.944020783136 175.25252525252526,386.54833976246 170.2020202020202,389.25231558257695 165.15151515151516,392.3254553409072 160.1010101010101,395.11689223458717 155.05050505050505,397.7668582284003 150,400 "/><text class="poloto_text" alignment-baseline="start" text-anchor="middle" font-size="x-large" x="400" y="37.5">Bench of query:128_bytes with abspiral(num,0.6)</text><text class="poloto_text" alignment-baseline="start" text-anchor="middle" font-size="x-large" x="400" y="481.25">Number of Elements</text><text class="poloto_text" alignment-baseline="start" text-anchor="middle" font-size="x-large" transform="rotate(-90,37.5,250)" x="37.5" y="250">Time in Seconds</text><path stroke="black" fill="none" class="poloto_axis_lines" d=" M 150 100 L 150 400 L 650 400"/></svg>