<svg class="poloto" width="800" height="500" viewBox="0 0 800 500" xmlns="http://www.w3.org/2000/svg"><circle  r="1e5" class="poloto_background" /><text  class="poloto_text poloto_legend_text" x="675" y="100" >default_seq</text><line  class="poloto_scatter poloto_legend_icon poloto0stroke poloto0legend" stroke="black" x1="685" x2="685" y1="81.25" y2="81.25" /><path  class="poloto_scatter poloto0stroke" d=" M 650.00 256.77 h 0 M 644.95 258.31 h 0 M 639.90 258.32 h 0 M 634.85 264.40 h 0 M 629.80 264.54 h 0 M 624.75 265.27 h 0 M 619.70 265.19 h 0 M 614.65 267.75 h 0 M 609.60 269.25 h 0 M 604.55 267.97 h 0 M 599.49 271.38 h 0 M 594.44 266.81 h 0 M 589.39 270.07 h 0 M 584.34 270.24 h 0 M 579.29 272.33 h 0 M 574.24 268.61 h 0 M 569.19 271.94 h 0 M 564.14 272.36 h 0 M 559.09 275.32 h 0 M 554.04 278.05 h 0 M 548.99 279.12 h 0 M 543.94 278.46 h 0 M 538.89 283.33 h 0 M 533.84 249.42 h 0 M 528.79 283.81 h 0 M 523.74 282.76 h 0 M 518.69 277.59 h 0 M 513.64 282.34 h 0 M 508.59 287.03 h 0 M 503.54 287.66 h 0 M 498.48 290.52 h 0 M 493.43 292.30 h 0 M 488.38 295.91 h 0 M 483.33 294.57 h 0 M 478.28 297.73 h 0 M 473.23 302.23 h 0 M 468.18 299.73 h 0 M 463.13 305.98 h 0 M 458.08 300.16 h 0 M 453.03 305.37 h 0 M 447.98 307.30 h 0 M 442.93 309.92 h 0 M 437.88 312.47 h 0 M 432.83 311.74 h 0 M 427.78 311.98 h 0 M 422.73 314.10 h 0 M 417.68 317.70 h 0 M 412.63 314.88 h 0 M 407.58 319.09 h 0 M 402.53 319.73 h 0 M 397.47 321.73 h 0 M 392.42 324.91 h 0 M 387.37 329.60 h 0 M 382.32 329.16 h 0 M 377.27 330.48 h 0 M 372.22 331.56 h 0 M 367.17 326.28 h 0 M 362.12 331.55 h 0 M 357.07 336.02 h 0 M 352.02 337.26 h 0 M 346.97 337.78 h 0 M 341.92 342.07 h 0 M 336.87 342.46 h 0 M 331.82 345.09 h 0 M 326.77 345.86 h 0 M 321.72 344.86 h 0 M 316.67 334.81 h 0 M 311.62 334.57 h 0 M 306.57 340.30 h 0 M 301.52 354.34 h 0 M 296.46 356.94 h 0 M 291.41 356.42 h 0 M 286.36 363.39 h 0 M 281.31 365.15 h 0 M 276.26 367.04 h 0 M 271.21 367.46 h 0 M 266.16 369.31 h 0 M 261.11 372.12 h 0 M 256.06 372.74 h 0 M 251.01 374.22 h 0 M 245.96 373.88 h 0 M 240.91 375.61 h 0 M 235.86 377.71 h 0 M 230.81 379.30 h 0 M 225.76 381.03 h 0 M 220.71 380.96 h 0 M 215.66 382.85 h 0 M 210.61 384.53 h 0 M 205.56 385.53 h 0 M 200.51 387.45 h 0 M 195.45 388.55 h 0 M 190.40 389.47 h 0 M 185.35 391.23 h 0 M 180.30 393.09 h 0 M 175.25 394.69 h 0 M 170.20 395.66 h 0 M 165.15 396.89 h 0 M 160.10 398.05 h 0 M 155.05 399.15 h 0 M 150.00 399.97 h 0" /><text  class="poloto_text poloto_legend_text" x="675" y="150" >direct_seq</text><line  class="poloto_scatter poloto_legend_icon poloto1stroke poloto1legend" stroke="black" x1="685" x2="685" y1="131.25" y2="131.25" /><path  class="poloto_scatter poloto1stroke" d=" M 650.00 249.07 h 0 M 644.95 253.75 h 0 M 639.90 251.10 h 0 M 634.85 256.04 h 0 M 629.80 257.02 h 0 M 624.75 259.75 h 0 M 619.70 259.08 h 0 M 614.65 262.06 h 0 M 609.60 264.26 h 0 M 604.55 261.87 h 0 M 599.49 264.87 h 0 M 594.44 259.70 h 0 M 589.39 266.15 h 0 M 584.34 262.97 h 0 M 579.29 266.11 h 0 M 574.24 263.57 h 0 M 569.19 267.44 h 0 M 564.14 266.31 h 0 M 559.09 272.58 h 0 M 554.04 272.45 h 0 M 548.99 274.92 h 0 M 543.94 272.83 h 0 M 538.89 278.99 h 0 M 533.84 278.76 h 0 M 528.79 246.14 h 0 M 523.74 278.98 h 0 M 518.69 275.75 h 0 M 513.64 278.81 h 0 M 508.59 282.11 h 0 M 503.54 282.08 h 0 M 498.48 285.87 h 0 M 493.43 288.64 h 0 M 488.38 291.31 h 0 M 483.33 291.19 h 0 M 478.28 293.19 h 0 M 473.23 297.57 h 0 M 468.18 295.82 h 0 M 463.13 301.78 h 0 M 458.08 297.00 h 0 M 453.03 301.85 h 0 M 447.98 303.88 h 0 M 442.93 306.34 h 0 M 437.88 308.63 h 0 M 432.83 307.57 h 0 M 427.78 309.87 h 0 M 422.73 311.41 h 0 M 417.68 313.53 h 0 M 412.63 313.65 h 0 M 407.58 316.01 h 0 M 402.53 315.96 h 0 M 397.47 320.08 h 0 M 392.42 321.80 h 0 M 387.37 324.71 h 0 M 382.32 326.56 h 0 M 377.27 327.18 h 0 M 372.22 328.07 h 0 M 367.17 332.16 h 0 M 362.12 331.44 h 0 M 357.07 333.32 h 0 M 352.02 336.96 h 0 M 346.97 337.58 h 0 M 341.92 339.80 h 0 M 336.87 339.19 h 0 M 331.82 342.49 h 0 M 326.77 344.77 h 0 M 321.72 339.85 h 0 M 316.67 333.53 h 0 M 311.62 332.34 h 0 M 306.57 336.29 h 0 M 301.52 348.95 h 0 M 296.46 353.55 h 0 M 291.41 353.33 h 0 M 286.36 360.20 h 0 M 281.31 363.03 h 0 M 276.26 366.20 h 0 M 271.21 366.39 h 0 M 266.16 368.81 h 0 M 261.11 370.54 h 0 M 256.06 371.49 h 0 M 251.01 373.20 h 0 M 245.96 373.36 h 0 M 240.91 374.69 h 0 M 235.86 375.96 h 0 M 230.81 378.18 h 0 M 225.76 380.59 h 0 M 220.71 380.65 h 0 M 215.66 381.68 h 0 M 210.61 384.08 h 0 M 205.56 384.44 h 0 M 200.51 386.61 h 0 M 195.45 387.66 h 0 M 190.40 389.42 h 0 M 185.35 390.67 h 0 M 180.30 393.15 h 0 M 175.25 394.39 h 0 M 170.20 395.53 h 0 M 165.15 396.61 h 0 M 160.10 397.86 h 0 M 155.05 399.15 h 0 M 150.00 399.98 h 0" /><text  class="poloto_text poloto_legend_text" x="675" y="200" >indirect_seq</text><line  class="poloto_scatter poloto_legend_icon poloto2stroke poloto2legend" stroke="black" x1="685" x2="685" y1="181.25" y2="181.25" /><path  class="poloto_scatter poloto2stroke" d=" M 650.00 137.93 h 0 M 644.95 144.25 h 0 M 639.90 100.00 h 0 M 634.85 154.71 h 0 M 629.80 155.35 h 0 M 624.75 160.77 h 0 M 619.70 158.55 h 0 M 614.65 159.41 h 0 M 609.60 169.26 h 0 M 604.55 161.38 h 0 M 599.49 172.62 h 0 M 594.44 156.68 h 0 M 589.39 168.28 h 0 M 584.34 168.22 h 0 M 579.29 171.49 h 0 M 574.24 163.19 h 0 M 569.19 174.69 h 0 M 564.14 173.18 h 0 M 559.09 186.05 h 0 M 554.04 181.34 h 0 M 548.99 191.64 h 0 M 543.94 190.56 h 0 M 538.89 197.12 h 0 M 533.84 196.00 h 0 M 528.79 170.57 h 0 M 523.74 196.63 h 0 M 518.69 191.65 h 0 M 513.64 193.69 h 0 M 508.59 205.10 h 0 M 503.54 207.27 h 0 M 498.48 209.93 h 0 M 493.43 216.63 h 0 M 488.38 221.44 h 0 M 483.33 220.83 h 0 M 478.28 226.73 h 0 M 473.23 233.60 h 0 M 468.18 228.12 h 0 M 463.13 241.29 h 0 M 458.08 229.06 h 0 M 453.03 238.94 h 0 M 447.98 245.09 h 0 M 442.93 250.46 h 0 M 437.88 254.13 h 0 M 432.83 248.37 h 0 M 427.78 255.01 h 0 M 422.73 255.95 h 0 M 417.68 264.00 h 0 M 412.63 262.61 h 0 M 407.58 266.00 h 0 M 402.53 269.36 h 0 M 397.47 272.29 h 0 M 392.42 278.33 h 0 M 387.37 279.70 h 0 M 382.32 284.87 h 0 M 377.27 287.20 h 0 M 372.22 288.06 h 0 M 367.17 295.90 h 0 M 362.12 292.67 h 0 M 357.07 296.37 h 0 M 352.02 303.60 h 0 M 346.97 303.61 h 0 M 341.92 308.24 h 0 M 336.87 309.72 h 0 M 331.82 313.62 h 0 M 326.77 317.16 h 0 M 321.72 317.15 h 0 M 316.67 305.44 h 0 M 311.62 304.87 h 0 M 306.57 312.12 h 0 M 301.52 330.40 h 0 M 296.46 332.92 h 0 M 291.41 333.97 h 0 M 286.36 340.40 h 0 M 281.31 344.84 h 0 M 276.26 349.69 h 0 M 271.21 349.29 h 0 M 266.16 353.93 h 0 M 261.11 357.11 h 0 M 256.06 358.88 h 0 M 251.01 360.84 h 0 M 245.96 361.02 h 0 M 240.91 364.09 h 0 M 235.86 366.21 h 0 M 230.81 368.96 h 0 M 225.76 373.20 h 0 M 220.71 373.07 h 0 M 215.66 375.67 h 0 M 210.61 378.30 h 0 M 205.56 379.46 h 0 M 200.51 381.72 h 0 M 195.45 383.41 h 0 M 190.40 385.78 h 0 M 185.35 387.78 h 0 M 180.30 391.22 h 0 M 175.25 392.89 h 0 M 170.20 394.55 h 0 M 165.15 396.07 h 0 M 160.10 397.53 h 0 M 155.05 399.06 h 0 M 150.00 399.99 h 0" /><text  class="poloto_labels poloto_text poloto_title" x="400" y="37.5" >Bench of rebal:16_bytes with abspiral(num,1.5)</text><text  class="poloto_labels poloto_text poloto_xname" x="400" y="481.25" >Number of Elements</text><text  class="poloto_labels poloto_text poloto_yname" transform="rotate(-90,37.5,250)" x="37.5" y="250" >Time in Seconds</text><text  class="poloto_tick_labels poloto_text" dominant-baseline="middle" text-anchor="start" x="150" y="70" ></text><line  class="poloto_axis_lines" stroke="black" x1="150" x2="144" y1="400" y2="400" /><text  class="poloto_tick_labels poloto_text" dominant-baseline="middle" text-anchor="end" x="135" y="400" >0e0</text><line  class="poloto_axis_lines" stroke="black" x1="150" x2="144" y1="334.7424043421534" y2="334.7424043421534" /><text  class="poloto_tick_labels poloto_text" dominant-baseline="middle" text-anchor="end" x="135" y="334.7424043421534" >0.001</text><line  class="poloto_axis_lines" stroke="black" x1="150" x2="144" y1="269.4848086843068" y2="269.4848086843068" /><text  class="poloto_tick_labels poloto_text" dominant-baseline="middle" text-anchor="end" x="135" y="269.4848086843068" >0.002</text><line  class="poloto_axis_lines" stroke="black" x1="150" x2="144" y1="204.22721302646016" y2="204.22721302646016" /><text  class="poloto_tick_labels poloto_text" dominant-baseline="middle" text-anchor="end" x="135" y="204.22721302646016" >0.003</text><line  class="poloto_axis_lines" stroke="black" x1="150" x2="144" y1="138.96961736861357" y2="138.96961736861357" /><text  class="poloto_tick_labels poloto_text" dominant-baseline="middle" text-anchor="end" x="135" y="138.96961736861357" >0.004</text><text  class="poloto_tick_labels poloto_text" dominant-baseline="middle" text-anchor="start" x="440.00000000000006" y="70" ></text><line  class="poloto_axis_lines" stroke="black" x1="150" x2="150" y1="400" y2="405" /><text  class="poloto_tick_labels poloto_text" dominant-baseline="start" text-anchor="middle" x="150" y="430" >0</text><line  class="poloto_axis_lines" stroke="black" x1="234.17508417508418" x2="234.17508417508418" y1="400" y2="405" /><text  class="poloto_tick_labels poloto_text" dominant-baseline="start" text-anchor="middle" x="234.17508417508418" y="430" >5000</text><line  class="poloto_axis_lines" stroke="black" x1="318.35016835016836" x2="318.35016835016836" y1="400" y2="405" /><text  class="poloto_tick_labels poloto_text" dominant-baseline="start" text-anchor="middle" x="318.35016835016836" y="430" >10000</text><line  class="poloto_axis_lines" stroke="black" x1="402.52525252525254" x2="402.52525252525254" y1="400" y2="405" /><text  class="poloto_tick_labels poloto_text" dominant-baseline="start" text-anchor="middle" x="402.52525252525254" y="430" >15000</text><line  class="poloto_axis_lines" stroke="black" x1="486.7003367003367" x2="486.7003367003367" y1="400" y2="405" /><text  class="poloto_tick_labels poloto_text" dominant-baseline="start" text-anchor="middle" x="486.7003367003367" y="430" >20000</text><line  class="poloto_axis_lines" stroke="black" x1="570.8754208754208" x2="570.8754208754208" y1="400" y2="405" /><text  class="poloto_tick_labels poloto_text" dominant-baseline="start" text-anchor="middle" x="570.8754208754208" y="430" >25000</text><path  stroke="black" fill="none" class="poloto_axis_lines" style="stroke-dasharray:8.417508417508419;stroke-dashoffset:-0;" d=" M 150 400 L 650 400" /><path  stroke="black" fill="none" class="poloto_axis_lines" style="stroke-dasharray:6.525759565784661;stroke-dashoffset:-0;" d=" M 150 400 L 150 100" /></svg>