<svg class="poloto" height="500" viewBox="0 0 800 500" width="800" xmlns="http://www.w3.org/2000/svg">
<rect class="poloto_background" fill="white" height="500" width="800" x="0" y="0"/>
<style>
.poloto {
font-family: "Arial";
stroke-width:2;
}
.poloto_text{fill: var(--poloto_fg_color,black);  }
.poloto_axis_lines{stroke: var(--poloto_fg_color,black);stoke-width:3;fill:none}
.poloto_background{fill: var(--poloto_bg_color,aliceblue); }
.poloto0stroke{stroke:  var(--poloto_color0,blue); }
.poloto1stroke{stroke:  var(--poloto_color1,red); }
.poloto2stroke{stroke:  var(--poloto_color2,green); }
.poloto3stroke{stroke:  var(--poloto_color3,gold); }
.poloto4stroke{stroke:  var(--poloto_color4,aqua); }
.poloto5stroke{stroke:  var(--poloto_color5,brown); }
.poloto6stroke{stroke:  var(--poloto_color6,lime); }
.poloto7stroke{stroke:  var(--poloto_color7,chocolate); }
.poloto0fill{fill:var(--poloto_color0,blue);}
.poloto1fill{fill:var(--poloto_color1,red);}
.poloto2fill{fill:var(--poloto_color2,green);}
.poloto3fill{fill:var(--poloto_color3,gold);}
.poloto4fill{fill:var(--poloto_color4,aqua);}
.poloto5fill{fill:var(--poloto_color5,brown);}
.poloto6fill{fill:var(--poloto_color6,lime);}
.poloto7fill{fill:var(--poloto_color7,chocolate);}
</style>
<line class="poloto_axis_lines" stroke="black" x1="150" x2="150" y1="400" y2="405"/>
<text alignment-baseline="start" class="poloto_text" text-anchor="middle" x="150" y="440">
0
</text>
<line class="poloto_axis_lines" stroke="black" x1="234.17508" x2="234.17508" y1="400" y2="405"/>
<text alignment-baseline="start" class="poloto_text" text-anchor="middle" x="234.17508" y="440">
5000
</text>
<line class="poloto_axis_lines" stroke="black" x1="318.35016" x2="318.35016" y1="400" y2="405"/>
<text alignment-baseline="start" class="poloto_text" text-anchor="middle" x="318.35016" y="440">
10000
</text>
<line class="poloto_axis_lines" stroke="black" x1="402.52527" x2="402.52527" y1="400" y2="405"/>
<text alignment-baseline="start" class="poloto_text" text-anchor="middle" x="402.52527" y="440">
15000
</text>
<line class="poloto_axis_lines" stroke="black" x1="486.70035" x2="486.70035" y1="400" y2="405"/>
<text alignment-baseline="start" class="poloto_text" text-anchor="middle" x="486.70035" y="440">
20000
</text>
<line class="poloto_axis_lines" stroke="black" x1="570.8754" x2="570.8754" y1="400" y2="405"/>
<text alignment-baseline="start" class="poloto_text" text-anchor="middle" x="570.8754" y="440">
25000
</text>
<line class="poloto_axis_lines" stroke="black" x1="150" x2="144" y1="333.4085" y2="333.4085"/>
<text alignment-baseline="middle" class="poloto_text" text-anchor="end" x="120" y="333.4085">
0.002
</text>
<line class="poloto_axis_lines" stroke="black" x1="150" x2="144" y1="266.81165" y2="266.81165"/>
<text alignment-baseline="middle" class="poloto_text" text-anchor="end" x="120" y="266.81165">
0.004
</text>
<line class="poloto_axis_lines" stroke="black" x1="150" x2="144" y1="200.21475" y2="200.21475"/>
<text alignment-baseline="middle" class="poloto_text" text-anchor="end" x="120" y="200.21475">
0.006
</text>
<line class="poloto_axis_lines" stroke="black" x1="150" x2="144" y1="133.61786" y2="133.61786"/>
<text alignment-baseline="middle" class="poloto_text" text-anchor="end" x="120" y="133.61786">
0.008
</text>
<text alignment-baseline="middle" class="poloto_text" font-size="large" text-anchor="start" x="675" y="100">
default_par
</text>
<line class="poloto0stroke" x1="680" x2="730" y1="81.25" y2="81.25"/>
<polyline class="poloto0stroke" fill="none" points="650,362.36215 644.94946,361.46753 639.899,360.99088 634.8485,355.35364 629.798,362.1251 624.7475,360.15002 619.697,363.53326 614.6465,360.40656 609.59595,357.0685 604.5455,360.83127 599.495,362.80014 594.44446,365.4551 589.3939,362.6599 584.34344,364.0218 579.29297,362.28488 574.24243,367.4164 569.1919,369.2125 564.1414,368.1427 559.09094,369.70337 554.0404,345.70215 548.98987,371.2399 543.9394,365.71857 538.8889,368.71844 533.8384,365.4579 528.78784,365.23538 523.73737,367.77472 518.6869,365.34036 513.63635,368.59158 508.58588,370.76685 503.53537,370.41077 498.48486,370.99063 493.43436,373.53088 488.38385,370.09158 483.33334,373.52246 478.28284,371.24017 473.23233,375.07608 468.18182,371.57007 463.13132,372.76105 458.0808,374.17303 453.0303,369.45892 447.9798,377.45715 442.9293,377.8916 437.87878,376.62338 432.82828,375.54922 427.77777,376.4261 422.72726,376.9833 417.67676,374.1819 412.62628,380.55658 407.57578,375.99832 402.52527,377.63474 397.47473,376.59778 392.42426,378.15594 387.37375,381.79456 382.32324,378.257 377.27274,379.0114 372.22223,379.624 367.17172,359.9107 362.12122,378.09036 357.0707,382.91953 352.0202,381.8103 346.9697,379.63043 341.9192,382.10205 336.86868,379.73322 331.81818,381.89117 326.7677,383.8759 321.71716,380.81107 316.6667,381.19333 311.61615,382.6297 306.56567,380.7475 301.51514,379.48767 296.46466,382.3293 291.41412,380.90607 286.36365,383.43237 281.31314,383.2166 276.26263,384.37823 271.21213,382.34494 266.16162,385.9138 261.1111,383.6355 256.0606,386.1934 251.0101,376.5074 245.9596,384.5434 240.90909,386.11984 235.85858,386.53156 230.80807,387.05066 225.75757,387.77676 220.70706,386.6973 215.65657,387.35468 210.60606,387.65094 205.55556,388.24606 200.50505,388.3278 195.45454,388.68323 190.40404,389.38257 185.35353,391.16785 180.30302,395.74216 175.25253,396.29135 170.20203,396.97345 165.15152,397.80176 160.10101,398.57852 155.0505,399.32498 150,399.99878 " stroke="black"/>
<text alignment-baseline="middle" class="poloto_text" font-size="large" text-anchor="start" x="675" y="150">
default_seq
</text>
<line class="poloto1stroke" x1="680" x2="730" y1="131.25" y2="131.25"/>
<polyline class="poloto1stroke" fill="none" points="650,309.1855 644.94946,310.40637 639.899,309.6294 634.8485,311.13998 629.798,311.96332 624.7475,312.67844 619.697,313.6102 614.6465,312.68457 609.59595,315.7481 604.5455,316.51108 599.495,319.31052 594.44446,319.12506 589.3939,318.6383 584.34344,323.02338 579.29297,321.14612 574.24243,323.5594 569.1919,323.07507 564.1414,324.24112 559.09094,326.79395 554.0404,328.531 548.98987,327.55206 543.9394,330.09583 538.8889,330.45386 533.8384,329.44708 528.78784,331.104 523.73737,331.7702 518.6869,331.11786 513.63635,335.91992 508.58588,337.1269 503.53537,336.5907 498.48486,338.6218 493.43436,339.067 488.38385,339.49713 483.33334,341.88138 478.28284,340.9206 473.23233,344.47955 468.18182,343.93143 463.13132,343.9241 458.0808,345.1704 453.0303,347.16315 447.9798,347.54846 442.9293,348.55878 437.87878,349.74225 432.82828,350.33447 427.77777,350.95535 422.72726,353.15768 417.67676,354.78793 412.62628,354.2023 407.57578,356.44205 402.52527,357.08112 397.47473,356.666 392.42426,358.99963 387.37375,359.21774 382.32324,360.97333 377.27274,361.3078 372.22223,362.107 367.17172,362.58057 362.12122,363.99814 357.0707,364.9436 352.0202,367.4262 346.9697,366.32465 341.9192,368.1445 336.86868,369.43796 331.81818,369.82092 326.7677,370.59076 321.71716,371.6671 316.6667,372.2134 311.61615,373.26636 306.56567,374.9011 301.51514,374.35153 296.46466,375.99887 291.41412,376.4304 286.36365,377.91983 281.31314,378.90222 276.26263,379.1012 271.21213,380.5722 266.16162,380.8755 261.1111,382.37814 256.0606,383.1891 251.0101,383.0296 245.9596,384.44348 240.90909,385.1438 235.85858,386.3862 230.80807,387.49286 225.75757,388.10056 220.70706,388.92795 215.65657,389.59933 210.60606,390.36862 205.55556,391.48755 200.50505,392.5129 195.45454,392.84857 190.40404,393.88467 185.35353,394.70288 180.30302,395.6024 175.25253,396.09845 170.20203,396.98297 165.15152,397.7337 160.10101,398.50586 155.0505,399.2734 150,400 " stroke="black"/>
<text alignment-baseline="middle" class="poloto_text" font-size="large" text-anchor="start" x="675" y="200">
direct_par
</text>
<line class="poloto2stroke" x1="680" x2="730" y1="181.25" y2="181.25"/>
<polyline class="poloto2stroke" fill="none" points="650,283.27612 644.94946,288.34552 639.899,289.3219 634.8485,286.93753 629.798,286.03104 624.7475,291.50302 619.697,291.80704 614.6465,290.7323 609.59595,289.677 604.5455,293.34082 599.495,302.6096 594.44446,296.52924 589.3939,298.23996 584.34344,302.27866 579.29297,271.6872 574.24243,308.04605 569.1919,307.83423 564.1414,302.92078 559.09094,309.0656 554.0404,308.58832 548.98987,310.79538 543.9394,312.89447 538.8889,315.40356 533.8384,297.28433 528.78784,306.25546 523.73737,263.96234 518.6869,290.4637 513.63635,305.85306 508.58588,280.0907 503.53537,308.48483 498.48486,321.2257 493.43436,324.90247 488.38385,324.32428 483.33334,323.18127 478.28284,328.13425 473.23233,328.10168 468.18182,330.4603 463.13132,328.07877 458.0808,331.74 453.0303,331.82678 447.9798,331.48593 442.9293,334.96234 437.87878,335.53644 432.82828,337.07312 427.77777,333.28812 422.72726,331.7349 417.67676,334.18933 412.62628,302.00598 407.57578,336.47955 402.52527,341.1466 397.47473,343.38214 392.42426,341.96298 387.37375,343.89746 382.32324,346.47302 377.27274,346.38684 372.22223,344.05103 367.17172,343.76813 362.12122,330.2881 357.0707,350.2589 352.0202,353.08887 346.9697,352.66833 341.9192,347.6717 336.86868,351.24823 331.81818,349.81458 326.7677,353.5003 321.71716,355.14664 316.6667,356.30423 311.61615,357.90845 306.56567,361.90396 301.51514,362.04364 296.46466,359.9229 291.41412,360.45703 286.36365,359.94067 281.31314,363.8635 276.26263,361.96768 271.21213,363.1355 266.16162,365.52707 261.1111,365.883 256.0606,374.15225 251.0101,356.28693 245.9596,374.4081 240.90909,374.5675 235.85858,372.87286 230.80807,373.475 225.75757,375.8128 220.70706,376.1789 215.65657,374.95898 210.60606,376.19748 205.55556,379.82156 200.50505,378.99615 195.45454,381.10706 190.40404,381.6675 185.35353,383.38098 180.30302,387.98154 175.25253,389.8069 170.20203,391.67484 165.15152,394.26498 160.10101,396.33627 155.0505,398.29654 150,399.99637 " stroke="black"/>
<text alignment-baseline="middle" class="poloto_text" font-size="large" text-anchor="start" x="675" y="250">
direct_seq
</text>
<line class="poloto3stroke" x1="680" x2="730" y1="231.25" y2="231.25"/>
<polyline class="poloto3stroke" fill="none" points="650,100.00003 644.94946,120.433044 639.899,120.66492 634.8485,124.15433 629.798,125.474884 624.7475,128.73413 619.697,133.5505 614.6465,121.81259 609.59595,140.80334 604.5455,142.3088 599.495,154.3013 594.44446,153.60915 589.3939,151.04607 584.34344,163.89377 579.29297,159.54329 574.24243,166.9813 569.1919,162.67445 564.1414,166.09433 559.09094,174.42664 554.0404,180.48016 548.98987,159.72018 543.9394,186.49266 538.8889,187.79224 533.8384,177.06618 528.78784,180.73701 523.73737,128.39835 518.6869,113.99536 513.63635,161.16127 508.58588,180.56691 503.53537,181.37259 498.48486,198.48157 493.43436,214.41447 488.38385,214.31604 483.33334,223.31734 478.28284,221.03 473.23233,229.06854 468.18182,231.36378 463.13132,225.98517 458.0808,232.1073 453.0303,238.4388 447.9798,238.593 442.9293,241.53578 437.87878,247.95425 432.82828,249.48515 427.77777,251.51569 422.72726,256.4228 417.67676,263.0501 412.62628,261.16986 407.57578,266.1845 402.52527,270.72894 397.47473,268.2048 392.42426,274.0332 387.37375,276.91345 382.32324,280.33688 377.27274,282.08398 372.22223,285.1221 367.17172,287.53455 362.12122,292.29367 357.0707,293.598 352.0202,301.4979 346.9697,299.23856 341.9192,303.355 336.86868,308.11737 331.81818,308.9135 326.7677,311.83466 321.71716,315.10248 316.6667,317.2212 311.61615,319.54388 306.56567,324.74762 301.51514,324.77896 296.46466,329.07977 291.41412,330.35574 286.36365,335.3742 281.31314,337.37842 276.26263,339.0088 271.21213,342.49042 266.16162,344.4132 261.1111,347.3739 256.0606,350.86063 251.0101,352.48676 245.9596,355.06036 240.90909,356.72318 235.85858,359.08807 230.80807,363.77054 225.75757,365.84033 220.70706,368.379 215.65657,370.41785 210.60606,372.2499 205.55556,375.89322 200.50505,378.4751 195.45454,379.65378 190.40404,383.00266 185.35353,384.92584 180.30302,387.58972 175.25253,389.2795 170.20203,392.06134 165.15152,393.57236 160.10101,396.08118 155.0505,398.12726 150,399.99646 " stroke="black"/>
<text alignment-baseline="middle" class="poloto_text" font-size="large" text-anchor="start" x="675" y="300">
indirect_par
</text>
<line class="poloto4stroke" x1="680" x2="730" y1="281.25" y2="281.25"/>
<polyline class="poloto4stroke" fill="none" points="650,354.162 644.94946,355.07394 639.899,323.65427 634.8485,352.79395 629.798,353.3407 624.7475,355.152 619.697,348.57532 614.6465,353.39978 609.59595,352.38776 604.5455,357.99527 599.495,358.6753 594.44446,354.18842 589.3939,355.77655 584.34344,362.22226 579.29297,361.69135 574.24243,361.1212 569.1919,361.195 564.1414,356.9478 559.09094,361.14294 554.0404,361.5207 548.98987,362.622 543.9394,361.17404 538.8889,361.35458 533.8384,354.61493 528.78784,359.58102 523.73737,234.2888 518.6869,349.26492 513.63635,320.53998 508.58588,347.50714 503.53537,359.00156 498.48486,369.49664 493.43436,363.03296 488.38385,370.4187 483.33334,369.34583 478.28284,368.95074 473.23233,368.407 468.18182,368.98947 463.13132,371.18835 458.0808,370.09088 453.0303,372.31195 447.9798,371.4659 442.9293,367.57687 437.87878,374.67075 432.82828,371.73877 427.77777,372.64288 422.72726,373.27655 417.67676,369.69434 412.62628,373.9651 407.57578,373.30835 402.52527,375.1002 397.47473,374.78616 392.42426,374.68277 387.37375,374.4112 382.32324,374.59073 377.27274,375.20694 372.22223,376.41455 367.17172,375.8383 362.12122,378.36127 357.0707,377.00046 352.0202,379.27972 346.9697,377.61273 341.9192,381.4983 336.86868,378.11584 331.81818,380.34778 326.7677,379.8722 321.71716,382.10034 316.6667,381.00684 311.61615,383.5399 306.56567,380.53067 301.51514,384.1275 296.46466,379.92596 291.41412,384.65793 286.36365,383.09723 281.31314,383.55573 276.26263,380.87433 271.21213,383.85342 266.16162,385.05392 261.1111,384.87207 256.0606,384.64703 251.0101,387.40253 245.9596,385.64984 240.90909,386.81448 235.85858,386.87848 230.80807,390.19867 225.75757,388.0926 220.70706,387.64255 215.65657,387.0784 210.60606,387.2593 205.55556,388.24957 200.50505,388.148 195.45454,389.30423 190.40404,389.3768 185.35353,389.97568 180.30302,396.21182 175.25253,396.7609 170.20203,397.39615 165.15152,398.11307 160.10101,398.74625 155.0505,399.41086 150,399.99957 " stroke="black"/>
<text alignment-baseline="middle" class="poloto_text" font-size="large" text-anchor="start" x="675" y="350">
indirect_seq
</text>
<line class="poloto5stroke" x1="680" x2="730" y1="331.25" y2="331.25"/>
<polyline class="poloto5stroke" fill="none" points="650,294.32422 644.94946,298.57364 639.899,295.32462 634.8485,299.22083 629.798,300.90793 624.7475,300.4417 619.697,300.9571 614.6465,303.09003 609.59595,303.58392 604.5455,309.34616 599.495,314.56635 594.44446,313.53696 589.3939,311.82538 584.34344,318.061 579.29297,312.857 574.24243,313.2495 569.1919,312.0471 564.1414,313.0398 559.09094,317.45978 554.0404,320.6877 548.98987,318.8147 543.9394,322.13046 538.8889,322.32803 533.8384,287.9314 528.78784,320.2885 523.73737,299.76822 518.6869,297.37885 513.63635,325.2324 508.58588,330.09946 503.53537,300.09198 498.48486,332.09988 493.43436,332.8192 488.38385,332.7845 483.33334,339.6817 478.28284,336.917 473.23233,342.0455 468.18182,340.77414 463.13132,342.24496 458.0808,343.23862 453.0303,345.1147 447.9798,341.59866 442.9293,343.16675 437.87878,346.1173 432.82828,344.6495 427.77777,346.03223 422.72726,348.4997 417.67676,352.62717 412.62628,349.36053 407.57578,352.28275 402.52527,352.84747 397.47473,354.0779 392.42426,357.74075 387.37375,355.5121 382.32324,359.50122 377.27274,360.25024 372.22223,360.94968 367.17172,360.19492 362.12122,362.3494 357.0707,363.76193 352.0202,366.6825 346.9697,365.19006 341.9192,365.71756 336.86868,368.83984 331.81818,367.38983 326.7677,369.9471 321.71716,369.2064 316.6667,370.06274 311.61615,371.3353 306.56567,373.3751 301.51514,372.49573 296.46466,374.56653 291.41412,374.77325 286.36365,377.17728 281.31314,378.0441 276.26263,378.116 271.21213,379.92554 266.16162,380.44965 261.1111,382.25568 256.0606,383.3343 251.0101,379.6081 245.9596,381.67453 240.90909,384.81375 235.85858,385.8385 230.80807,387.67856 225.75757,388.18213 220.70706,389.19107 215.65657,389.8004 210.60606,390.83612 205.55556,391.78638 200.50505,392.80078 195.45454,393.177 190.40404,394.2484 185.35353,395.05508 180.30302,395.86237 175.25253,396.50662 170.20203,397.3171 165.15152,397.92545 160.10101,398.64075 155.0505,399.34735 150,399.99927 " stroke="black"/>
<text alignment-baseline="start" class="poloto_text" font-size="x-large" text-anchor="middle" x="400" y="37.5">
Bench of rebal:128_bytes with abspiral(num,0.01)
</text>
<text alignment-baseline="start" class="poloto_text" font-size="large" text-anchor="middle" x="400" y="481.25">
Number of Elements
</text>
<text alignment-baseline="start" class="poloto_text" font-size="large" text-anchor="middle" transform="rotate(-90,37.5,250)" x="37.5" y="250">
Time in Seconds
</text>
<path class="poloto_axis_lines" d="M150,100 L150,400 L650,400" stroke="black"/>
</svg>