<svg class="poloto" width="800" height="500" viewBox="0 0 800 500" xmlns="http://www.w3.org/2000/svg"><circle  r="1e5" class="poloto_background" /><text  class="poloto_text poloto_legend_text" x="675" y="100" >default_seq</text><line  class="poloto_scatter poloto_legend_icon poloto0stroke poloto0legend" stroke="black" x1="685" x2="685" y1="81.25" y2="81.25" /><path  class="poloto_scatter poloto0stroke" d=" M 650.00 238.20 h 0 M 644.95 240.54 h 0 M 639.90 238.49 h 0 M 634.85 244.08 h 0 M 629.80 245.88 h 0 M 624.75 248.26 h 0 M 619.70 249.04 h 0 M 614.65 250.90 h 0 M 609.60 253.81 h 0 M 604.55 252.81 h 0 M 599.49 257.54 h 0 M 594.44 257.39 h 0 M 589.39 262.66 h 0 M 584.34 260.28 h 0 M 579.29 263.57 h 0 M 574.24 265.96 h 0 M 569.19 266.90 h 0 M 564.14 266.11 h 0 M 559.09 274.05 h 0 M 554.04 273.64 h 0 M 548.99 273.73 h 0 M 543.94 275.67 h 0 M 538.89 276.79 h 0 M 533.84 279.46 h 0 M 528.79 280.64 h 0 M 523.74 282.83 h 0 M 518.69 283.39 h 0 M 513.64 281.21 h 0 M 508.59 286.77 h 0 M 503.54 287.16 h 0 M 498.48 289.01 h 0 M 493.43 292.98 h 0 M 488.38 294.94 h 0 M 483.33 294.42 h 0 M 478.28 295.79 h 0 M 473.23 300.98 h 0 M 468.18 294.13 h 0 M 463.13 302.19 h 0 M 458.08 299.08 h 0 M 453.03 304.26 h 0 M 447.98 307.60 h 0 M 442.93 308.78 h 0 M 437.88 308.94 h 0 M 432.83 309.94 h 0 M 427.78 310.39 h 0 M 422.73 313.93 h 0 M 417.68 316.20 h 0 M 412.63 318.03 h 0 M 407.58 320.29 h 0 M 402.53 321.28 h 0 M 397.47 323.09 h 0 M 392.42 323.05 h 0 M 387.37 325.99 h 0 M 382.32 328.56 h 0 M 377.27 328.50 h 0 M 372.22 330.74 h 0 M 367.17 334.31 h 0 M 362.12 326.86 h 0 M 357.07 324.40 h 0 M 352.02 338.51 h 0 M 346.97 339.77 h 0 M 341.92 339.00 h 0 M 336.87 342.84 h 0 M 331.82 343.87 h 0 M 326.77 344.84 h 0 M 321.72 345.89 h 0 M 316.67 348.49 h 0 M 311.62 350.01 h 0 M 306.57 352.87 h 0 M 301.52 353.59 h 0 M 296.46 355.43 h 0 M 291.41 356.45 h 0 M 286.36 363.05 h 0 M 281.31 365.19 h 0 M 276.26 366.12 h 0 M 271.21 366.69 h 0 M 266.16 370.10 h 0 M 261.11 372.26 h 0 M 256.06 372.94 h 0 M 251.01 373.79 h 0 M 245.96 374.37 h 0 M 240.91 375.90 h 0 M 235.86 376.52 h 0 M 230.81 378.94 h 0 M 225.76 380.74 h 0 M 220.71 381.73 h 0 M 215.66 382.84 h 0 M 210.61 384.91 h 0 M 205.56 386.19 h 0 M 200.51 387.62 h 0 M 195.45 388.56 h 0 M 190.40 390.00 h 0 M 185.35 390.90 h 0 M 180.30 393.63 h 0 M 175.25 395.01 h 0 M 170.20 395.71 h 0 M 165.15 396.89 h 0 M 160.10 398.06 h 0 M 155.05 399.23 h 0 M 150.00 399.96 h 0" /><text  class="poloto_text poloto_legend_text" x="675" y="150" >direct_seq</text><line  class="poloto_scatter poloto_legend_icon poloto1stroke poloto1legend" stroke="black" x1="685" x2="685" y1="131.25" y2="131.25" /><path  class="poloto_scatter poloto1stroke" d=" M 650.00 207.01 h 0 M 644.95 213.73 h 0 M 639.90 207.56 h 0 M 634.85 216.14 h 0 M 629.80 219.73 h 0 M 624.75 221.09 h 0 M 619.70 222.75 h 0 M 614.65 221.49 h 0 M 609.60 229.00 h 0 M 604.55 225.51 h 0 M 599.49 232.06 h 0 M 594.44 233.53 h 0 M 589.39 237.46 h 0 M 584.34 235.89 h 0 M 579.29 235.23 h 0 M 574.24 242.62 h 0 M 569.19 245.10 h 0 M 564.14 243.85 h 0 M 559.09 251.57 h 0 M 554.04 250.14 h 0 M 548.99 253.09 h 0 M 543.94 254.03 h 0 M 538.89 255.36 h 0 M 533.84 255.25 h 0 M 528.79 260.19 h 0 M 523.74 262.58 h 0 M 518.69 262.87 h 0 M 513.64 260.67 h 0 M 508.59 267.16 h 0 M 503.54 266.32 h 0 M 498.48 271.16 h 0 M 493.43 273.81 h 0 M 488.38 275.92 h 0 M 483.33 273.59 h 0 M 478.28 276.94 h 0 M 473.23 283.08 h 0 M 468.18 281.21 h 0 M 463.13 284.22 h 0 M 458.08 283.96 h 0 M 453.03 287.19 h 0 M 447.98 291.77 h 0 M 442.93 294.42 h 0 M 437.88 294.01 h 0 M 432.83 293.24 h 0 M 427.78 295.19 h 0 M 422.73 300.16 h 0 M 417.68 301.42 h 0 M 412.63 304.33 h 0 M 407.58 306.42 h 0 M 402.53 307.88 h 0 M 397.47 308.39 h 0 M 392.42 312.96 h 0 M 387.37 313.75 h 0 M 382.32 316.09 h 0 M 377.27 316.79 h 0 M 372.22 318.23 h 0 M 367.17 322.68 h 0 M 362.12 306.92 h 0 M 357.07 312.87 h 0 M 352.02 317.40 h 0 M 346.97 322.95 h 0 M 341.92 327.06 h 0 M 336.87 332.05 h 0 M 331.82 335.45 h 0 M 326.77 335.98 h 0 M 321.72 339.19 h 0 M 316.67 339.79 h 0 M 311.62 341.18 h 0 M 306.57 343.80 h 0 M 301.52 344.56 h 0 M 296.46 348.92 h 0 M 291.41 349.35 h 0 M 286.36 356.93 h 0 M 281.31 351.13 h 0 M 276.26 358.46 h 0 M 271.21 361.81 h 0 M 266.16 365.07 h 0 M 261.11 367.47 h 0 M 256.06 368.28 h 0 M 251.01 369.28 h 0 M 245.96 370.11 h 0 M 240.91 371.48 h 0 M 235.86 373.15 h 0 M 230.81 375.64 h 0 M 225.76 377.81 h 0 M 220.71 378.92 h 0 M 215.66 380.33 h 0 M 210.61 382.19 h 0 M 205.56 383.81 h 0 M 200.51 385.47 h 0 M 195.45 386.91 h 0 M 190.40 389.07 h 0 M 185.35 390.02 h 0 M 180.30 392.85 h 0 M 175.25 394.28 h 0 M 170.20 395.37 h 0 M 165.15 396.45 h 0 M 160.10 397.82 h 0 M 155.05 399.04 h 0 M 150.00 399.98 h 0" /><text  class="poloto_text poloto_legend_text" x="675" y="200" >indirect_seq</text><line  class="poloto_scatter poloto_legend_icon poloto2stroke poloto2legend" stroke="black" x1="685" x2="685" y1="181.25" y2="181.25" /><path  class="poloto_scatter poloto2stroke" d=" M 650.00 106.24 h 0 M 644.95 108.94 h 0 M 639.90 100.00 h 0 M 634.85 115.35 h 0 M 629.80 121.44 h 0 M 624.75 129.77 h 0 M 619.70 125.10 h 0 M 614.65 128.07 h 0 M 609.60 141.83 h 0 M 604.55 126.54 h 0 M 599.49 144.55 h 0 M 594.44 147.56 h 0 M 589.39 156.97 h 0 M 584.34 150.80 h 0 M 579.29 157.23 h 0 M 574.24 165.27 h 0 M 569.19 167.66 h 0 M 564.14 165.81 h 0 M 559.09 180.22 h 0 M 554.04 178.09 h 0 M 548.99 183.43 h 0 M 543.94 183.80 h 0 M 538.89 188.65 h 0 M 533.84 190.94 h 0 M 528.79 197.59 h 0 M 523.74 198.17 h 0 M 518.69 200.52 h 0 M 513.64 192.66 h 0 M 508.59 206.67 h 0 M 503.54 206.98 h 0 M 498.48 212.81 h 0 M 493.43 219.86 h 0 M 488.38 221.95 h 0 M 483.33 220.76 h 0 M 478.28 226.72 h 0 M 473.23 235.57 h 0 M 468.18 228.11 h 0 M 463.13 237.72 h 0 M 458.08 201.08 h 0 M 453.03 240.51 h 0 M 447.98 249.15 h 0 M 442.93 252.44 h 0 M 437.88 252.13 h 0 M 432.83 249.93 h 0 M 427.78 254.72 h 0 M 422.73 260.25 h 0 M 417.68 263.67 h 0 M 412.63 268.53 h 0 M 407.58 272.05 h 0 M 402.53 274.51 h 0 M 397.47 278.32 h 0 M 392.42 281.62 h 0 M 387.37 283.45 h 0 M 382.32 287.65 h 0 M 377.27 288.40 h 0 M 372.22 290.41 h 0 M 367.17 298.96 h 0 M 362.12 274.32 h 0 M 357.07 290.59 h 0 M 352.02 284.18 h 0 M 346.97 307.69 h 0 M 341.92 305.64 h 0 M 336.87 312.53 h 0 M 331.82 315.58 h 0 M 326.77 315.11 h 0 M 321.72 310.83 h 0 M 316.67 320.02 h 0 M 311.62 323.95 h 0 M 306.57 328.29 h 0 M 301.52 329.86 h 0 M 296.46 334.54 h 0 M 291.41 334.28 h 0 M 286.36 344.08 h 0 M 281.31 345.89 h 0 M 276.26 348.12 h 0 M 271.21 349.77 h 0 M 266.16 355.39 h 0 M 261.11 358.94 h 0 M 256.06 359.71 h 0 M 251.01 361.65 h 0 M 245.96 362.51 h 0 M 240.91 364.91 h 0 M 235.86 365.55 h 0 M 230.81 369.92 h 0 M 225.76 373.38 h 0 M 220.71 374.57 h 0 M 215.66 375.62 h 0 M 210.61 378.80 h 0 M 205.56 380.45 h 0 M 200.51 381.96 h 0 M 195.45 383.73 h 0 M 190.40 386.70 h 0 M 185.35 388.13 h 0 M 180.30 391.63 h 0 M 175.25 393.52 h 0 M 170.20 394.90 h 0 M 165.15 395.67 h 0 M 160.10 397.78 h 0 M 155.05 399.11 h 0 M 150.00 399.92 h 0" /><text  class="poloto_labels poloto_text poloto_title" x="400" y="37.5" >Bench of rebal:32_bytes with abspiral(num,1.5)</text><text  class="poloto_labels poloto_text poloto_xname" x="400" y="481.25" >Number of Elements</text><text  class="poloto_labels poloto_text poloto_yname" transform="rotate(-90,37.5,250)" x="37.5" y="250" >Time in Seconds</text><text  class="poloto_tick_labels poloto_text" dominant-baseline="middle" text-anchor="start" x="150" y="70" ></text><line  class="poloto_axis_lines" stroke="black" x1="150" x2="144" y1="400" y2="400" /><text  class="poloto_tick_labels poloto_text" dominant-baseline="middle" text-anchor="end" x="135" y="400" >0e0</text><line  class="poloto_axis_lines" stroke="black" x1="150" x2="144" y1="332.8342470114598" y2="332.8342470114598" /><text  class="poloto_tick_labels poloto_text" dominant-baseline="middle" text-anchor="end" x="135" y="332.8342470114598" >0.001</text><line  class="poloto_axis_lines" stroke="black" x1="150" x2="144" y1="265.6684940229196" y2="265.6684940229196" /><text  class="poloto_tick_labels poloto_text" dominant-baseline="middle" text-anchor="end" x="135" y="265.6684940229196" >0.002</text><line  class="poloto_axis_lines" stroke="black" x1="150" x2="144" y1="198.50274103437948" y2="198.50274103437948" /><text  class="poloto_tick_labels poloto_text" dominant-baseline="middle" text-anchor="end" x="135" y="198.50274103437948" >0.003</text><line  class="poloto_axis_lines" stroke="black" x1="150" x2="144" y1="131.3369880458393" y2="131.3369880458393" /><text  class="poloto_tick_labels poloto_text" dominant-baseline="middle" text-anchor="end" x="135" y="131.3369880458393" >0.004</text><text  class="poloto_tick_labels poloto_text" dominant-baseline="middle" text-anchor="start" x="440.00000000000006" y="70" ></text><line  class="poloto_axis_lines" stroke="black" x1="150" x2="150" y1="400" y2="405" /><text  class="poloto_tick_labels poloto_text" dominant-baseline="start" text-anchor="middle" x="150" y="430" >0</text><line  class="poloto_axis_lines" stroke="black" x1="234.17508417508418" x2="234.17508417508418" y1="400" y2="405" /><text  class="poloto_tick_labels poloto_text" dominant-baseline="start" text-anchor="middle" x="234.17508417508418" y="430" >5000</text><line  class="poloto_axis_lines" stroke="black" x1="318.35016835016836" x2="318.35016835016836" y1="400" y2="405" /><text  class="poloto_tick_labels poloto_text" dominant-baseline="start" text-anchor="middle" x="318.35016835016836" y="430" >10000</text><line  class="poloto_axis_lines" stroke="black" x1="402.52525252525254" x2="402.52525252525254" y1="400" y2="405" /><text  class="poloto_tick_labels poloto_text" dominant-baseline="start" text-anchor="middle" x="402.52525252525254" y="430" >15000</text><line  class="poloto_axis_lines" stroke="black" x1="486.7003367003367" x2="486.7003367003367" y1="400" y2="405" /><text  class="poloto_tick_labels poloto_text" dominant-baseline="start" text-anchor="middle" x="486.7003367003367" y="430" >20000</text><line  class="poloto_axis_lines" stroke="black" x1="570.8754208754208" x2="570.8754208754208" y1="400" y2="405" /><text  class="poloto_tick_labels poloto_text" dominant-baseline="start" text-anchor="middle" x="570.8754208754208" y="430" >25000</text><path  stroke="black" fill="none" class="poloto_axis_lines" style="stroke-dasharray:8.417508417508419;stroke-dashoffset:-0;" d=" M 150 400 L 650 400" /><path  stroke="black" fill="none" class="poloto_axis_lines" style="stroke-dasharray:6.716575298854018;stroke-dashoffset:-0;" d=" M 150 400 L 150 100" /></svg>