<svg class="poloto" width="800" height="500" viewBox="0 0 800 500" xmlns="http://www.w3.org/2000/svg" ><rect class="poloto_background" fill="white" x="0" y="0" width="800" height="500" /><style><style>.poloto {
            font-family: "Arial";
            stroke-width:2;
            }
            .poloto_text{fill: var(--poloto_fg_color,black);  }
            .poloto_axis_lines{stroke: var(--poloto_fg_color,black);stoke-width:3;fill:none}
            .poloto_background{fill: var(--poloto_bg_color,aliceblue); }
            .poloto0stroke{stroke:  var(--poloto_color0,blue); }
            .poloto1stroke{stroke:  var(--poloto_color1,red); }
            .poloto2stroke{stroke:  var(--poloto_color2,green); }
            .poloto3stroke{stroke:  var(--poloto_color3,gold); }
            .poloto4stroke{stroke:  var(--poloto_color4,aqua); }
            .poloto5stroke{stroke:  var(--poloto_color5,brown); }
            .poloto6stroke{stroke:  var(--poloto_color6,lime); }
            .poloto7stroke{stroke:  var(--poloto_color7,chocolate); }
            .poloto0fill{fill:var(--poloto_color0,blue);}
            .poloto1fill{fill:var(--poloto_color1,red);}
            .poloto2fill{fill:var(--poloto_color2,green);}
            .poloto3fill{fill:var(--poloto_color3,gold);}
            .poloto4fill{fill:var(--poloto_color4,aqua);}
            .poloto5fill{fill:var(--poloto_color5,brown);}
            .poloto6fill{fill:var(--poloto_color6,lime);}
            .poloto7fill{fill:var(--poloto_color7,chocolate);}</style></style><line class="poloto_axis_lines" stroke="black" x1="150" x2="150" y1="400" y2="405" /><text class="poloto_text" alignment-baseline="start" text-anchor="middle" x="150" y="430" >0</text><line class="poloto_axis_lines" stroke="black" x1="234.17508" x2="234.17508" y1="400" y2="405" /><text class="poloto_text" alignment-baseline="start" text-anchor="middle" x="234.17508" y="430" >5000</text><line class="poloto_axis_lines" stroke="black" x1="318.35016" x2="318.35016" y1="400" y2="405" /><text class="poloto_text" alignment-baseline="start" text-anchor="middle" x="318.35016" y="430" >10000</text><line class="poloto_axis_lines" stroke="black" x1="402.52527" x2="402.52527" y1="400" y2="405" /><text class="poloto_text" alignment-baseline="start" text-anchor="middle" x="402.52527" y="430" >15000</text><line class="poloto_axis_lines" stroke="black" x1="486.70035" x2="486.70035" y1="400" y2="405" /><text class="poloto_text" alignment-baseline="start" text-anchor="middle" x="486.70035" y="430" >20000</text><line class="poloto_axis_lines" stroke="black" x1="570.8754" x2="570.8754" y1="400" y2="405" /><text class="poloto_text" alignment-baseline="start" text-anchor="middle" x="570.8754" y="430" >25000</text><line class="poloto_axis_lines" stroke="black" x1="150" x2="144" y1="352.2697" y2="352.2697" /><text class="poloto_text" alignment-baseline="middle" text-anchor="end" x="135" y="352.2697" >0.002</text><line class="poloto_axis_lines" stroke="black" x1="150" x2="144" y1="304.5367" y2="304.5367" /><text class="poloto_text" alignment-baseline="middle" text-anchor="end" x="135" y="304.5367" >0.004</text><line class="poloto_axis_lines" stroke="black" x1="150" x2="144" y1="256.80368" y2="256.80368" /><text class="poloto_text" alignment-baseline="middle" text-anchor="end" x="135" y="256.80368" >0.006</text><line class="poloto_axis_lines" stroke="black" x1="150" x2="144" y1="209.07068" y2="209.07068" /><text class="poloto_text" alignment-baseline="middle" text-anchor="end" x="135" y="209.07068" >0.008</text><line class="poloto_axis_lines" stroke="black" x1="150" x2="144" y1="161.33765" y2="161.33765" /><text class="poloto_text" alignment-baseline="middle" text-anchor="end" x="135" y="161.33765" >0.010</text><line class="poloto_axis_lines" stroke="black" x1="150" x2="144" y1="113.604614" y2="113.604614" /><text class="poloto_text" alignment-baseline="middle" text-anchor="end" x="135" y="113.604614" >0.012</text><text class="poloto_text" alignment-baseline="middle" text-anchor="start" font-size="large" x="675" y="100" >default_par</text><line class="poloto0stroke" stroke="black" x1="680" x2="730" y1="81.25" y2="81.25" /><polyline class="poloto0stroke" fill="none" stroke="black"  points="650,316.71518 644.94946,322.86182 639.899,204.44655 634.8485,278.31317 629.798,325.25836 624.7475,325.0517 619.697,311.09048 614.6465,327.20544 609.59595,328.13507 604.5455,327.7818 599.495,328.124 594.44446,327.38037 589.3939,328.82135 584.34344,330.4829 579.29297,330.58264 574.24243,332.09094 569.1919,333.45966 564.1414,332.35318 559.09094,334.51617 554.0404,334.0125 548.98987,335.01984 543.9394,334.20602 538.8889,336.0058 533.8384,338.8486 528.78784,337.77704 523.73737,339.5115 518.6869,337.2259 513.63635,339.0618 508.58588,340.1004 503.53537,340.64694 498.48486,341.20013 493.43436,343.36188 488.38385,341.524 483.33334,321.63593 478.28284,346.1388 473.23233,343.6466 468.18182,343.53406 463.13132,345.63882 458.0808,346.3044 453.0303,346.02158 447.9798,347.28687 442.9293,346.7474 437.87878,347.70483 432.82828,349.04175 427.77777,348.39996 422.72726,350.48297 417.67676,348.8952 412.62628,353.62897 407.57578,353.50916 402.52527,353.16412 397.47473,354.268 392.42426,355.51794 387.37375,357.04898 382.32324,355.49478 377.27274,356.97025 372.22223,359.3344 367.17172,356.46985 362.12122,358.60092 357.0707,359.925 352.0202,359.2889 346.9697,359.6967 341.9192,359.50058 336.86868,360.36224 331.81818,363.31357 326.7677,361.80023 321.71716,364.64343 316.6667,367.87015 311.61615,367.32748 306.56567,367.59814 301.51514,368.3679 296.46466,369.6893 291.41412,367.28076 286.36365,371.37195 281.31314,373.18723 276.26263,375.54553 271.21213,375.6479 266.16162,376.3386 261.1111,376.8635 256.0606,376.33215 251.0101,377.8311 245.9596,376.7945 240.90909,381.157 235.85858,382.16672 230.80807,379.3619 225.75757,381.54715 220.70706,379.0236 215.65657,377.31393 210.60606,377.85785 205.55556,380.50824 200.50505,381.95428 195.45454,383.49857 190.40404,384.68936 185.35353,385.10153 180.30302,386.7354 175.25253,388.75452 170.20203,391.21017 165.15152,393.6616 160.10101,395.5893 155.0505,398.0906 150,400 "/><text class="poloto_text" alignment-baseline="middle" text-anchor="start" font-size="large" x="675" y="150" >default_seq</text><line class="poloto1stroke" stroke="black" x1="680" x2="730" y1="131.25" y2="131.25" /><polyline class="poloto1stroke" fill="none" stroke="black"  points="650,137.35007 644.94946,148.1858 639.899,150.25116 634.8485,129.62317 629.798,156.6775 624.7475,162.08731 619.697,164.37851 614.6465,167.76012 609.59595,171.60162 604.5455,174.30653 599.495,177.9994 594.44446,177.6848 589.3939,182.75252 584.34344,184.40852 579.29297,188.34052 574.24243,191.49998 569.1919,182.91801 564.1414,195.5027 559.09094,199.38489 554.0404,201.90842 548.98987,204.29388 543.9394,204.99484 538.8889,207.55696 533.8384,210.45122 528.78784,214.75926 523.73737,216.42578 518.6869,219.43802 513.63635,221.77232 508.58588,224.70001 503.53537,226.25945 498.48486,226.71654 493.43436,229.90631 488.38385,231.78188 483.33334,233.20055 478.28284,237.40344 473.23233,240.76535 468.18182,243.12674 463.13132,245.99582 458.0808,247.12633 453.0303,249.4434 447.9798,251.88478 442.9293,254.46756 437.87878,257.90442 432.82828,259.0381 427.77777,260.13812 422.72726,268.2115 417.67676,269.75647 412.62628,272.30762 407.57578,275.35568 402.52527,278.13846 397.47473,280.5252 392.42426,283.2873 387.37375,285.86047 382.32324,288.39255 377.27274,290.73874 372.22223,293.52335 367.17172,295.90652 362.12122,297.7552 357.0707,298.98068 352.0202,302.00735 346.9697,304.2541 341.9192,306.94806 336.86868,308.9975 331.81818,311.45618 326.7677,313.3202 321.71716,315.77835 316.6667,318.6594 311.61615,321.50443 306.56567,323.7798 301.51514,326.71036 296.46466,328.6543 291.41412,331.14142 286.36365,335.7994 281.31314,338.1864 276.26263,340.77676 271.21213,343.2378 266.16162,345.25272 261.1111,348.18945 256.0606,350.1989 251.0101,352.95325 245.9596,355.135 240.90909,357.70145 235.85858,359.521 230.80807,362.05026 225.75757,364.51105 220.70706,366.14377 215.65657,368.7465 210.60606,371.9695 205.55556,374.2708 200.50505,376.87225 195.45454,379.0282 190.40404,381.06192 185.35353,383.81885 180.30302,386.58353 175.25253,388.7321 170.20203,391.12387 165.15152,393.53833 160.10101,395.33908 155.0505,398.0225 150,399.9994 "/><text class="poloto_text" alignment-baseline="middle" text-anchor="start" font-size="large" x="675" y="200" >direct_par</text><line class="poloto2stroke" stroke="black" x1="680" x2="730" y1="181.25" y2="181.25" /><polyline class="poloto2stroke" fill="none" stroke="black"  points="650,289.50452 644.94946,319.17365 639.899,320.30225 634.8485,256.60486 629.798,297.04327 624.7475,324.3371 619.697,322.90598 614.6465,326.93686 609.59595,326.3252 604.5455,327.61807 599.495,328.4204 594.44446,327.81055 589.3939,329.8638 584.34344,329.16272 579.29297,329.85474 574.24243,330.19916 569.1919,330.8565 564.1414,331.09055 559.09094,332.15936 554.0404,334.78015 548.98987,336.2368 543.9394,336.45026 538.8889,337.2198 533.8384,338.4029 528.78784,336.7344 523.73737,336.98825 518.6869,337.95834 513.63635,339.79376 508.58588,337.63248 503.53537,340.2368 498.48486,339.04477 493.43436,342.5525 488.38385,342.62122 483.33334,339.40793 478.28284,344.0264 473.23233,343.69296 468.18182,342.37305 463.13132,342.42398 458.0808,343.3698 453.0303,347.8411 447.9798,347.67444 442.9293,347.1182 437.87878,346.46512 432.82828,348.76913 427.77777,349.88773 422.72726,348.1545 417.67676,335.51837 412.62628,351.79797 407.57578,354.36877 402.52527,351.807 397.47473,352.3274 392.42426,354.33508 387.37375,355.90936 382.32324,353.79404 377.27274,355.09528 372.22223,360.07062 367.17172,359.17432 362.12122,357.3882 357.0707,351.6406 352.0202,360.34476 346.9697,360.6993 341.9192,362.26712 336.86868,362.70724 331.81818,362.28845 326.7677,363.7736 321.71716,364.85297 316.6667,367.17224 311.61615,365.48965 306.56567,367.81747 301.51514,367.26974 296.46466,368.42935 291.41412,367.6816 286.36365,371.68192 281.31314,372.1063 276.26263,374.01495 271.21213,375.12878 266.16162,373.1512 261.1111,374.84598 256.0606,378.45724 251.0101,377.67303 245.9596,378.4701 240.90909,377.88953 235.85858,380.86774 230.80807,382.70898 225.75757,381.9646 220.70706,380.3378 215.65657,377.05762 210.60606,377.87735 205.55556,379.1833 200.50505,380.732 195.45454,382.23444 190.40404,383.55457 185.35353,384.91888 180.30302,386.04233 175.25253,388.721 170.20203,391.03787 165.15152,393.5514 160.10101,395.55173 155.0505,398.07584 150,399.99863 "/><text class="poloto_text" alignment-baseline="middle" text-anchor="start" font-size="large" x="675" y="250" >direct_seq</text><line class="poloto3stroke" stroke="black" x1="680" x2="730" y1="231.25" y2="231.25" /><polyline class="poloto3stroke" fill="none" stroke="black"  points="650,148.81142 644.94946,153.9967 639.899,156.24759 634.8485,147.86388 629.798,148.83667 624.7475,164.70651 619.697,168.82079 614.6465,170.1647 609.59595,173.68726 604.5455,176.15735 599.495,178.39279 594.44446,177.54321 589.3939,183.35127 584.34344,186.45236 579.29297,188.94838 574.24243,192.14784 569.1919,194.56023 564.1414,195.6242 559.09094,200.32118 554.0404,201.99728 548.98987,204.26808 543.9394,206.4613 538.8889,207.85878 533.8384,210.91177 528.78784,214.01712 523.73737,216.44893 518.6869,219.07703 513.63635,221.03746 508.58588,223.93355 503.53537,226.30788 498.48486,228.14989 493.43436,229.92235 488.38385,231.68423 483.33334,233.12402 478.28284,234.12663 473.23233,240.08125 468.18182,241.96509 463.13132,245.34291 458.0808,247.03995 453.0303,248.75699 447.9798,251.57487 442.9293,253.76718 437.87878,256.46722 432.82828,258.0545 427.77777,259.4619 422.72726,266.50668 417.67676,269.1544 412.62628,271.73547 407.57578,272.91626 402.52527,276.80637 397.47473,279.50314 392.42426,282.44482 387.37375,284.66153 382.32324,287.19495 377.27274,289.74847 372.22223,292.4978 367.17172,295.13425 362.12122,296.84897 357.0707,297.53372 352.0202,301.0855 346.9697,303.4361 341.9192,306.01227 336.86868,308.26596 331.81818,310.8287 326.7677,312.85556 321.71716,315.16635 316.6667,318.0672 311.61615,320.49817 306.56567,323.12482 301.51514,326.22803 296.46466,328.1892 291.41412,331.0212 286.36365,334.1179 281.31314,337.2101 276.26263,339.74597 271.21213,342.35098 266.16162,344.2121 261.1111,347.1268 256.0606,349.46585 251.0101,352.10123 245.9596,354.48035 240.90909,357.15433 235.85858,358.92157 230.80807,361.8654 225.75757,364.65863 220.70706,366.16724 215.65657,369.31433 210.60606,371.38922 205.55556,374.23245 200.50505,376.35583 195.45454,379.00693 190.40404,381.37805 185.35353,383.66165 180.30302,386.31644 175.25253,388.63626 170.20203,391.0389 165.15152,393.51578 160.10101,395.44632 155.0505,398.0252 150,399.9981 "/><text class="poloto_text" alignment-baseline="middle" text-anchor="start" font-size="large" x="675" y="300" >indirect_par</text><line class="poloto4stroke" stroke="black" x1="680" x2="730" y1="281.25" y2="281.25" /><polyline class="poloto4stroke" fill="none" stroke="black"  points="650,277.98102 644.94946,288.66876 639.899,311.81458 634.8485,100 629.798,312.5625 624.7475,313.5432 619.697,310.87057 614.6465,318.86563 609.59595,316.078 604.5455,317.24377 599.495,319.3583 594.44446,318.13354 589.3939,320.00598 584.34344,321.0807 579.29297,322.87314 574.24243,322.0099 569.1919,296.79712 564.1414,323.9057 559.09094,326.25168 554.0404,325.5512 548.98987,328.7429 543.9394,326.74417 538.8889,327.69366 533.8384,328.08554 528.78784,331.283 523.73737,331.21307 518.6869,332.69617 513.63635,334.0689 508.58588,335.0064 503.53537,334.64197 498.48486,334.04138 493.43436,336.7225 488.38385,334.3147 483.33334,337.35632 478.28284,336.2025 473.23233,336.70956 468.18182,336.5042 463.13132,336.53467 458.0808,338.91693 453.0303,341.70016 447.9798,339.80133 442.9293,340.85855 437.87878,344.2641 432.82828,343.62338 427.77777,344.33493 422.72726,341.67868 417.67676,343.22662 412.62628,346.90607 407.57578,345.25143 402.52527,348.09842 397.47473,349.07996 392.42426,349.8674 387.37375,349.3313 382.32324,353.5889 377.27274,351.7598 372.22223,352.84122 367.17172,353.78223 362.12122,357.21402 357.0707,355.99036 352.0202,355.0756 346.9697,356.6492 341.9192,357.8102 336.86868,358.80438 331.81818,360.24805 326.7677,360.41214 321.71716,362.4745 316.6667,361.8877 311.61615,363.14862 306.56567,365.55234 301.51514,367.62827 296.46466,364.47803 291.41412,366.28503 286.36365,370.77386 281.31314,371.68457 276.26263,370.35403 271.21213,372.19012 266.16162,371.704 261.1111,374.41287 256.0606,374.7303 251.0101,374.7839 245.9596,377.05765 240.90909,378.392 235.85858,379.39938 230.80807,380.17886 225.75757,381.95767 220.70706,380.13593 215.65657,375.34653 210.60606,376.30215 205.55556,377.74835 200.50505,379.46667 195.45454,380.82782 190.40404,382.56494 185.35353,386.0364 180.30302,385.23447 175.25253,387.8637 170.20203,390.4856 165.15152,393.24222 160.10101,395.3096 155.0505,397.92862 150,399.99915 "/><text class="poloto_text" alignment-baseline="middle" text-anchor="start" font-size="large" x="675" y="350" >indirect_seq</text><line class="poloto5stroke" stroke="black" x1="680" x2="730" y1="331.25" y2="331.25" /><polyline class="poloto5stroke" fill="none" stroke="black"  points="650,126.75992 644.94946,115.606995 639.899,132.85367 634.8485,112.6124 629.798,139.22174 624.7475,141.22226 619.697,146.5633 614.6465,148.60246 609.59595,152.55319 604.5455,154.3842 599.495,158.5896 594.44446,158.82924 589.3939,163.67712 584.34344,165.8261 579.29297,169.7613 574.24243,171.32753 569.1919,165.54042 564.1414,177.2811 559.09094,180.39479 554.0404,182.40337 548.98987,185.38445 543.9394,186.93935 538.8889,190.26898 533.8384,192.3556 528.78784,195.72308 523.73737,198.39468 518.6869,201.41241 513.63635,204.51308 508.58588,207.00174 503.53537,210.23152 498.48486,209.3486 493.43436,214.02376 488.38385,216.02208 483.33334,218.30574 478.28284,221.495 473.23233,224.32668 468.18182,227.21695 463.13132,230.1694 458.0808,232.2562 453.0303,234.64265 447.9798,237.16699 442.9293,239.42741 437.87878,243.0319 432.82828,244.3458 427.77777,246.15834 422.72726,252.4933 417.67676,255.74475 412.62628,258.52045 407.57578,261.72186 402.52527,262.266 397.47473,267.69464 392.42426,270.39905 387.37375,273.37512 382.32324,276.23047 377.27274,278.6935 372.22223,282.23138 367.17172,284.6776 362.12122,286.5438 357.0707,288.3722 352.0202,291.502 346.9697,294.16415 341.9192,296.8519 336.86868,299.44913 331.81818,301.84998 326.7677,304.4388 321.71716,307.0817 316.6667,310.5042 311.61615,313.12317 306.56567,315.5448 301.51514,318.77765 296.46466,321.43616 291.41412,323.87854 286.36365,328.55563 281.31314,330.48608 276.26263,334.00583 271.21213,337.02795 266.16162,339.25064 261.1111,342.0121 256.0606,344.86447 251.0101,347.38684 245.9596,350.22855 240.90909,353.1047 235.85858,355.3543 230.80807,358.42474 225.75757,361.02448 220.70706,362.94135 215.65657,366.4048 210.60606,368.958 205.55556,371.79126 200.50505,374.61304 195.45454,376.9411 190.40404,379.52692 185.35353,382.32462 180.30302,385.27002 175.25253,387.67126 170.20203,390.42346 165.15152,393.07724 160.10101,395.20856 155.0505,397.90244 150,399.99915 "/><text class="poloto_text" alignment-baseline="start" text-anchor="middle" font-size="x-large" x="400" y="37.5" >Bench of query:256_bytes with abspiral(num,0.1)</text><text class="poloto_text" alignment-baseline="start" text-anchor="middle" font-size="x-large" x="400" y="481.25" >Number of Elements</text><text class="poloto_text" alignment-baseline="start" text-anchor="middle" font-size="x-large" transform="rotate(-90,37.5,250)" x="37.5" y="250" >Time in Seconds</text><path stroke="black" fill="none" class="poloto_axis_lines"  d="M 150 100 L 150 400 L 650 400 "/></svg>