<svg class="poloto" width="800" height="500" viewBox="0 0 800 500" xmlns="http://www.w3.org/2000/svg"><style>.poloto {
                    font-family: "Arial";
                    stroke-width:2;
                    }
                    .poloto_text{fill: var(--poloto_fg_color,black);  }
                    .poloto_axis_lines{stroke: var(--poloto_fg_color,black);stoke-width:3;fill:none}
                    .poloto_background{fill: var(--poloto_bg_color,aliceblue); }
                    .poloto0stroke{stroke:  var(--poloto_color0,blue); }
                    .poloto1stroke{stroke:  var(--poloto_color1,red); }
                    .poloto2stroke{stroke:  var(--poloto_color2,green); }
                    .poloto3stroke{stroke:  var(--poloto_color3,gold); }
                    .poloto4stroke{stroke:  var(--poloto_color4,aqua); }
                    .poloto5stroke{stroke:  var(--poloto_color5,brown); }
                    .poloto6stroke{stroke:  var(--poloto_color6,lime); }
                    .poloto7stroke{stroke:  var(--poloto_color7,chocolate); }
                    .poloto0fill{fill:var(--poloto_color0,blue);}
                    .poloto1fill{fill:var(--poloto_color1,red);}
                    .poloto2fill{fill:var(--poloto_color2,green);}
                    .poloto3fill{fill:var(--poloto_color3,gold);}
                    .poloto4fill{fill:var(--poloto_color4,aqua);}
                    .poloto5fill{fill:var(--poloto_color5,brown);}
                    .poloto6fill{fill:var(--poloto_color6,lime);}
                    .poloto7fill{fill:var(--poloto_color7,chocolate);}</style><rect class="poloto_background" fill="white" x="0" y="0" width="800" height="500"/><line class="poloto_axis_lines" stroke="black" x1="150" x2="150" y1="400" y2="405"/><text class="poloto_text" alignment-baseline="start" text-anchor="middle" x="150" y="430">0</text><line class="poloto_axis_lines" stroke="black" x1="234.17508417508418" x2="234.17508417508418" y1="400" y2="405"/><text class="poloto_text" alignment-baseline="start" text-anchor="middle" x="234.17508417508418" y="430">5000</text><line class="poloto_axis_lines" stroke="black" x1="318.35016835016836" x2="318.35016835016836" y1="400" y2="405"/><text class="poloto_text" alignment-baseline="start" text-anchor="middle" x="318.35016835016836" y="430">10000</text><line class="poloto_axis_lines" stroke="black" x1="402.52525252525254" x2="402.52525252525254" y1="400" y2="405"/><text class="poloto_text" alignment-baseline="start" text-anchor="middle" x="402.52525252525254" y="430">15000</text><line class="poloto_axis_lines" stroke="black" x1="486.7003367003367" x2="486.7003367003367" y1="400" y2="405"/><text class="poloto_text" alignment-baseline="start" text-anchor="middle" x="486.7003367003367" y="430">20000</text><line class="poloto_axis_lines" stroke="black" x1="570.8754208754208" x2="570.8754208754208" y1="400" y2="405"/><text class="poloto_text" alignment-baseline="start" text-anchor="middle" x="570.8754208754208" y="430">25000</text><line class="poloto_axis_lines" stroke="black" x1="150" x2="144" y1="358.4700455468881" y2="358.4700455468881"/><text class="poloto_text" alignment-baseline="middle" text-anchor="end" x="135" y="358.4700455468881">0.0005</text><line class="poloto_axis_lines" stroke="black" x1="150" x2="144" y1="316.92530116477616" y2="316.92530116477616"/><text class="poloto_text" alignment-baseline="middle" text-anchor="end" x="135" y="316.92530116477616">0.0010</text><line class="poloto_axis_lines" stroke="black" x1="150" x2="144" y1="275.3805567826642" y2="275.3805567826642"/><text class="poloto_text" alignment-baseline="middle" text-anchor="end" x="135" y="275.3805567826642">0.0015</text><line class="poloto_axis_lines" stroke="black" x1="150" x2="144" y1="233.8358124005523" y2="233.8358124005523"/><text class="poloto_text" alignment-baseline="middle" text-anchor="end" x="135" y="233.8358124005523">0.0020</text><line class="poloto_axis_lines" stroke="black" x1="150" x2="144" y1="192.29106801844034" y2="192.29106801844034"/><text class="poloto_text" alignment-baseline="middle" text-anchor="end" x="135" y="192.29106801844034">0.0025</text><line class="poloto_axis_lines" stroke="black" x1="150" x2="144" y1="150.7463236363284" y2="150.7463236363284"/><text class="poloto_text" alignment-baseline="middle" text-anchor="end" x="135" y="150.7463236363284">0.0030</text><line class="poloto_axis_lines" stroke="black" x1="150" x2="144" y1="109.20157925421648" y2="109.20157925421648"/><text class="poloto_text" alignment-baseline="middle" text-anchor="end" x="135" y="109.20157925421648">0.0035</text><text class="poloto_text" alignment-baseline="middle" text-anchor="start" font-size="large" x="675" y="100">default_par</text><line class="poloto0stroke" stroke="black" x1="680" x2="730" y1="81.25" y2="81.25"/><polyline class="poloto0stroke" fill="none" stroke="black" points="650,254.31512796473683 644.9494949494949,304.140321528625 639.8989898989898,301.9115290820135 634.8484848484848,294.5124931970481 629.7979797979798,306.99901538955817 624.7474747474747,298.8015726070573 619.6969696969697,313.14647430526804 614.6464646464647,306.8384034077769 609.5959595959596,304.1574379633105 604.5454545454545,302.2274353182951 599.4949494949494,318.8819755356849 594.4444444444445,305.0833041366102 589.3939393939394,309.78575375322146 584.3434343434344,300.35559531541463 579.2929292929293,308.4781744685389 574.2424242424242,306.78298271877117 569.1919191919192,313.2238306193075 564.1414141414141,314.13914442753423 559.090909090909,311.5848904534332 554.040404040404,319.89250989803537 548.989898989899,317.04993539792247 543.939393939394,318.43844384466144 538.8888888888889,316.5439204113484 533.8383838383838,320.88609400467794 528.7878787878788,325.1766690254849 523.7373737373737,325.48526338675526 518.6868686868687,324.08287899539266 513.6363636363636,320.0910106866931 508.5858585858586,328.03752321312595 503.5353535353535,333.8351753811384 498.4848484848485,328.26153247483427 493.4343434343434,333.16181816419316 488.3838383838384,335.14333629224234 483.3333333333333,339.49797330888657 478.2828282828283,336.85497976078534 473.2323232323232,334.91733288280363 468.1818181818182,334.68019548187056 463.1313131313131,331.7830311876396 458.0808080808081,338.26226643198504 453.030303030303,338.2738158709233 447.979797979798,345.57289510090527 442.9292929292929,337.38417671472473 437.8787878787879,333.16755133891786 432.8282828282828,335.1414252340008 427.77777777777777,340.9802897884403 422.72727272727275,344.6049856462908 417.67676767676767,346.22813880929994 412.62626262626264,335.15862475817494 407.57575757575756,345.39217546284306 402.52525252525254,347.9129443729721 397.47474747474746,348.1278137909164 392.4242424242424,346.1666525876144 387.37373737373736,355.83752127437117 382.32323232323233,355.3676502154095 377.27272727272725,336.94853852513387 372.22222222222223,348.7880428686369 367.1717171717172,355.02141631572897 362.1212121212121,352.9612955313088 357.07070707070704,348.2887581306527 352.020202020202,350.1392441349207 346.969696969697,353.84187793323207 341.9191919191919,359.655234014621 336.86868686868684,349.5892748087903 331.8181818181818,362.5346171582564 326.7676767676768,358.9589440987768 321.7171717171717,358.79617179028764 316.66666666666663,356.23543683606306 311.6161616161616,361.7705262195806 306.5656565656566,364.3764618556929 301.5151515151515,359.7071649450986 296.4646464646464,368.76898767921364 291.4141414141414,364.31306457576585 286.3636363636364,364.75136162899713 281.3131313131313,365.18184827028455 276.26262626262627,367.5493170736436 271.2121212121212,366.0705734421067 266.16161616161617,366.50006300952896 261.1111111111111,368.11166673359986 256.06060606060606,369.9326559693566 251.010101010101,371.14468234196033 245.95959595959596,370.81041332866187 240.9090909090909,374.8643494854683 235.85858585858585,374.4672648186641 230.8080808080808,373.1325983606444 225.75757575757575,375.52266750494726 220.7070707070707,370.60169253288615 215.65656565656565,371.4546061350509 210.6060606060606,372.45035056840135 205.55555555555554,374.08256048568575 200.50505050505052,370.4916820497623 195.45454545454544,376.5059485149831 190.40404040404042,373.11456794158255 185.35353535353534,388.6341888319418 180.3030303030303,388.08521657967657 175.25252525252526,390.0883379748045 170.2020202020202,391.85149692638134 165.15151515151516,394.58065427433104 160.1010101010101,396.15985309778387 155.05050505050505,398.28486677292886 150,399.9997507315337 "/><text class="poloto_text" alignment-baseline="middle" text-anchor="start" font-size="large" x="675" y="150">default_seq</text><line class="poloto1stroke" stroke="black" x1="680" x2="730" y1="131.25" y2="131.25"/><polyline class="poloto1stroke" fill="none" stroke="black" points="650,143.14720826241876 644.9494949494949,145.17110202973774 639.8989898989898,144.959556191344 634.8484848484848,146.71091643551637 629.7979797979798,149.85610285370853 624.7474747474747,152.8639423469734 619.6969696969697,159.10820051709362 614.6464646464647,161.54139310606513 609.5959595959596,161.1148947602384 604.5454545454545,164.14815963706513 599.4949494949494,170.45332240244952 594.4444444444445,167.36314122581925 589.3939393939394,175.73216380261817 584.3434343434344,175.47350622409513 579.2929292929293,179.88389628770014 574.2424242424242,178.76011095216398 569.1919191919192,177.0052609494636 564.1414141414141,182.66648017692523 559.090909090909,188.51498311206143 554.040404040404,186.86058830127698 548.989898989899,193.36499966071793 543.939393939394,195.8038423349254 538.8888888888889,198.69278076976872 533.8383838383838,200.88858668934088 528.7878787878788,201.80730716660688 523.7373737373737,207.63902602501273 518.6868686868687,207.22764996614106 513.6363636363636,211.7809539504205 508.5858585858586,210.95637386392437 503.5353535353535,215.26697345152354 498.4848484848485,217.88811446407973 493.4343434343434,219.6574220378251 488.3838383838384,223.1421121071079 483.3333333333333,227.76138914546618 478.2828282828283,226.6476576380705 473.2323232323232,232.74293635483642 468.1818181818182,235.826304193388 463.1313131313131,237.42461359925665 458.0808080808081,237.41647082935773 453.030303030303,241.51918051606881 447.979797979798,244.28938407146805 442.9292929292929,247.62534395586286 437.8787878787879,249.29344853229344 432.8282828282828,251.99510325946216 427.77777777777777,253.65066132308934 422.72727272727275,269.8121485141522 417.67676767676767,269.4703183573762 412.62626262626264,274.7330403967246 407.57575757575756,273.0120078159513 402.52525252525254,278.8202123490368 397.47474747474746,278.4692423484967 392.4242424242424,281.05623358117083 387.37373737373736,286.12062101083905 382.32323232323233,288.40441869901247 377.27272727272725,289.8586509313639 372.22222222222223,290.8325428291694 367.1717171717172,294.7191367556047 362.1212121212121,298.00939742117924 357.07070707070704,296.9933791525703 352.020202020202,300.9763568859721 346.969696969697,303.6474346812756 341.9191919191919,304.47891119533926 336.86868686868684,309.11156564138855 331.8181818181818,307.916738792959 326.7676767676768,312.0005871657206 321.7171717171717,313.5014326012688 316.66666666666663,316.7022058874442 311.6161616161616,321.69189586671337 306.5656565656566,322.932505023452 301.5151515151515,323.4444193637284 296.4646464646464,327.1987348240511 291.4141414141414,330.01779499884367 286.3636363636364,338.78390224244686 281.3131313131313,340.7866081901309 276.26262626262627,343.2688235774733 271.2121212121212,344.88483104444873 266.16161616161617,347.08387745408265 261.1111111111111,348.45975629852944 256.06060606060606,351.34969180723795 251.010101010101,353.36020816686585 245.95959595959596,356.0152496908379 240.9090909090909,358.7276229620572 235.85858585858585,359.8513252081045 230.8080808080808,362.8831775636223 225.75757575757575,364.88073196300303 220.7070707070707,366.6321752966641 215.65656565656565,371.53686472892747 210.6060606060606,374.21982432112424 205.55555555555554,375.941438528319 200.50505050505052,377.97065002291885 195.45454545454544,379.9515865245467 190.40404040404042,381.68691049738754 185.35353535353534,383.576365471886 180.3030303030303,387.34389216092217 175.25252525252526,389.4296875973705 170.2020202020202,391.44145029932986 165.15151515151516,394.16504065153237 160.1010101010101,395.9721539426655 155.05050505050505,398.1145333209622 150,400 "/><text class="poloto_text" alignment-baseline="middle" text-anchor="start" font-size="large" x="675" y="200">direct_par</text><line class="poloto2stroke" stroke="black" x1="680" x2="730" y1="181.25" y2="181.25"/><polyline class="poloto2stroke" fill="none" stroke="black" points="650,255.60218414569465 644.9494949494949,283.89947279719377 639.8989898989898,284.0270151624469 634.8484848484848,292.9529865824324 629.7979797979798,298.3682609231519 624.7474747474747,293.7186562213947 619.6969696969697,289.14142246435114 614.6464646464647,295.497519086348 609.5959595959596,293.3877107876468 604.5454545454545,297.5024684502287 599.4949494949494,296.05671134573123 594.4444444444445,294.89794533542533 589.3939393939394,299.997064171397 584.3434343434344,294.7610969474307 579.2929292929293,297.219382562009 574.2424242424242,300.6550498329209 569.1919191919192,296.23560301504057 564.1414141414141,304.1870178213105 559.090909090909,311.0727268446905 554.040404040404,303.5562024226125 548.989898989899,303.01263098711695 543.939393939394,310.91984218536436 538.8888888888889,290.5531959679441 533.8383838383838,310.56937072175685 528.7878787878788,311.6995539479278 523.7373737373737,306.2169771213093 518.6868686868687,317.7077548804689 513.6363636363636,306.93977258406926 508.5858585858586,311.06192521115116 503.5353535353535,315.3045575969412 498.4848484848485,323.6352759194198 493.4343434343434,319.90513950032755 488.3838383838384,321.7321111792753 483.3333333333333,318.4250664369704 478.2828282828283,317.2141202277206 473.2323232323232,315.21432241214325 468.1818181818182,324.0682552453702 463.1313131313131,328.3230186965198 458.0808080808081,327.8677713875806 453.030303030303,318.8550545413252 447.979797979798,319.91793528159724 442.9292929292929,320.8128090755879 437.8787878787879,322.9225342848003 432.8282828282828,334.70553777594364 427.77777777777777,326.4201863143303 422.72727272727275,335.9950866415644 417.67676767676767,339.24554744202084 412.62626262626264,340.77447712477135 407.57575757575756,339.52348178193716 402.52525252525254,334.741016987646 397.47474747474746,339.8881615481234 392.4242424242424,345.27003391435966 387.37373737373736,348.0423977964668 382.32323232323233,342.707554080871 377.27272727272725,346.9360612535711 372.22222222222223,345.2711971672024 367.1717171717172,348.029269657242 362.1212121212121,344.7614431536339 357.07070707070704,346.23071458345163 352.020202020202,344.25002735029005 346.969696969697,335.0520209440905 341.9191919191919,350.34746639376385 336.86868686868684,352.29092953595904 331.8181818181818,341.6296341431327 326.7676767676768,352.0380051321608 321.7171717171717,355.28314820533626 316.66666666666663,356.1682174396528 311.6161616161616,356.7885635627665 306.5656565656566,357.334627682925 301.5151515151515,328.9933016023808 296.4646464646464,365.59987148825735 291.4141414141414,357.08369742685704 286.3636363636364,359.139663736839 281.3131313131313,362.5930290688576 276.26262626262627,365.5884882282967 271.2121212121212,364.292209114086 266.16161616161617,371.71625493516945 261.1111111111111,365.3470301739478 256.06060606060606,365.63900663746534 251.010101010101,370.39072832091375 245.95959595959596,361.74335595675467 240.9090909090909,369.6578790300133 235.85858585858585,373.79141491705593 230.8080808080808,372.6633920175928 225.75757575757575,373.3578539646842 220.7070707070707,370.80135657438655 215.65656565656565,370.2696669357843 210.6060606060606,366.92772460819845 205.55555555555554,367.35322588016004 200.50505050505052,373.24435372303225 195.45454545454544,370.5607294149254 190.40404040404042,374.7977117154794 185.35353535353534,368.9811982335175 180.3030303030303,386.81860041295477 175.25252525252526,389.0987421636226 170.2020202020202,390.99359795489073 165.15151515151516,394.17509447967285 160.1010101010101,395.9034389354575 155.05050505050505,398.1615619716028 150,399.99119251419097 "/><text class="poloto_text" alignment-baseline="middle" text-anchor="start" font-size="large" x="675" y="250">direct_seq</text><line class="poloto3stroke" stroke="black" x1="680" x2="730" y1="231.25" y2="231.25"/><polyline class="poloto3stroke" fill="none" stroke="black" points="650,100 644.9494949494949,108.3276440113944 639.8989898989898,106.19797732487854 634.8484848484848,107.53555191500499 629.7979797979798,111.35043961263682 624.7474747474747,115.51820836905029 619.6969696969697,122.04389063761494 614.6464646464647,125.60211490445403 609.5959595959596,125.487949946892 604.5454545454545,128.0662998727346 599.4949494949494,135.99353563777413 594.4444444444445,131.00451037441508 589.3939393939394,140.97300560992534 584.3434343434344,140.40866180223873 579.2929292929293,145.76469333746937 574.2424242424242,146.5906859452745 569.1919191919192,143.26735566317183 564.1414141414141,149.0311904092573 559.090909090909,157.49144524471936 554.040404040404,155.07836031202876 548.989898989899,162.74029133944413 543.939393939394,164.78861341645978 538.8888888888889,169.12289350835675 533.8383838383838,170.7944878433154 528.7878787878788,171.74237273113766 523.7373737373737,177.75165382703264 518.6868686868687,179.70334282861546 513.6363636363636,184.6475828575306 508.5858585858586,181.8125695008953 503.5353535353535,187.15489127047985 498.4848484848485,190.29293199263827 493.4343434343434,192.8833298943517 488.3838383838384,196.96925550433244 483.3333333333333,203.5018342004645 478.2828282828283,200.95015600051516 473.2323232323232,208.53497998235736 468.1818181818182,211.1727388926664 463.1313131313131,212.3899168135735 458.0808080808081,214.10205881904912 453.030303030303,217.44749090516305 447.979797979798,220.822170491322 442.9292929292929,225.76267149324275 437.8787878787879,227.10041226234677 432.8282828282828,230.43554125185395 427.77777777777777,233.44961245677618 422.72727272727275,251.31484961494948 417.67676767676767,250.19688054362683 412.62626262626264,257.64925988037885 407.57575757575756,256.5778209227642 402.52525252525254,260.56703036782335 397.47474747474746,261.83098767090473 392.4242424242424,264.80093835729315 387.37373737373736,270.4990493177661 382.32323232323233,273.29442898826085 377.27272727272725,275.1065276487198 372.22222222222223,275.8662148444911 367.1717171717172,281.8055345908466 362.1212121212121,283.7935336990194 357.07070707070704,283.8284312843004 352.020202020202,287.059449144386 346.969696969697,291.57345180048003 341.9191919191919,292.23010803018366 336.86868686868684,296.7617256578957 331.8181818181818,297.0682427819469 326.7676767676768,299.7592620545538 321.7171717171717,303.26821425455574 316.66666666666663,304.8294657484355 311.6161616161616,311.72946616388293 306.5656565656566,313.0800858037454 301.5151515151515,314.8119200180581 296.4646464646464,317.527616868828 291.4141414141414,320.77442173177883 286.3636363636364,330.5862101914797 281.3131313131313,332.8707556850521 276.26262626262627,335.95786255059807 271.2121212121212,338.0818791518779 266.16161616161617,340.4577399936021 261.1111111111111,341.092460598272 256.06060606060606,345.50625733091636 251.010101010101,347.3380482002124 245.95959595959596,350.79515255922547 240.9090909090909,353.7943507456589 235.85858585858585,355.34288954775775 230.8080808080808,358.7966703272202 225.75757575757575,361.20850891757937 220.7070707070707,363.0525139417238 215.65656565656565,367.9246322943916 210.6060606060606,371.50038844335995 205.55555555555554,373.50218040666766 200.50505050505052,375.8589306659761 195.45454545454544,377.9793744192391 190.40404040404042,380.1179316810527 185.35353535353534,381.9881929836466 180.3030303030303,386.02252002110475 175.25252525252526,388.2475734407219 170.2020202020202,390.59584857217635 165.15151515151516,393.6949203241044 160.1010101010101,395.6673816978783 155.05050505050505,397.9480219854787 150,399.9950146306741 "/><text class="poloto_text" alignment-baseline="middle" text-anchor="start" font-size="large" x="675" y="300">indirect_par</text><line class="poloto4stroke" stroke="black" x1="680" x2="730" y1="281.25" y2="281.25"/><polyline class="poloto4stroke" fill="none" stroke="black" points="650,250.27955458494725 644.9494949494949,303.33593218789855 639.8989898989898,292.11087461380697 634.8484848484848,290.0493413080778 629.7979797979798,304.4412716569291 624.7474747474747,296.0362713314952 619.6969696969697,305.13706303584064 614.6464646464647,299.9779535889812 609.5959595959596,300.0698505635545 604.5454545454545,304.4092822037548 599.4949494949494,308.6785032259494 594.4444444444445,300.23270596153236 589.3939393939394,305.57477846265056 584.3434343434344,301.7015619439063 579.2929292929293,304.0834883183103 574.2424242424242,311.10887077230296 569.1919191919192,309.5826830426817 564.1414141414141,318.42573115288053 559.090909090909,318.50458307771777 554.040404040404,320.626356262801 548.989898989899,316.3045395942186 543.939393939394,309.8517268073002 538.8888888888889,309.30848772975975 533.8383838383838,314.3353187105065 528.7878787878788,317.4898111514403 523.7373737373737,317.5679983603674 518.6868686868687,316.4691398714606 513.6363636363636,320.8604193526498 508.5858585858586,321.9423275858488 503.5353535353535,331.92652673473543 498.4848484848485,326.7116642409152 493.4343434343434,324.72175407450084 488.3838383838384,324.51070677303966 483.3333333333333,328.09277772315414 478.2828282828283,324.85403254061345 473.2323232323232,327.303095221939 468.1818181818182,333.4228022484016 463.1313131313131,332.0696068343874 458.0808080808081,336.9501172254204 453.030303030303,334.5823160641063 447.979797979798,335.7479785019796 442.9292929292929,326.7805454271007 437.8787878787879,332.6608716364336 432.8282828282828,343.55539922422116 427.77777777777777,340.2255048725061 422.72727272727275,339.07105951561596 417.67676767676767,346.7242661467111 412.62626262626264,340.29920524903997 407.57575757575756,335.16768151245026 402.52525252525254,337.7406306215232 397.47474747474746,354.85050123734095 392.4242424242424,347.7982808784775 387.37373737373736,349.30020647737956 382.32323232323233,342.5750263462921 377.27272727272725,348.211817264057 372.22222222222223,346.90182838420026 367.1717171717172,353.0702258510787 362.1212121212121,353.0752943098933 357.07070707070704,353.9504758950469 352.020202020202,353.96634598740087 346.969696969697,347.5555764817972 341.9191919191919,360.1445480139535 336.86868686868684,350.4941193414327 331.8181818181818,358.8869055120182 326.7676767676768,358.1177461145278 321.7171717171717,355.24077256606654 316.66666666666663,359.80113915689094 311.6161616161616,363.122226022797 306.5656565656566,363.60697010024745 301.5151515151515,331.99607263683106 296.4646464646464,367.54873544722227 291.4141414141414,366.3824913829276 286.3636363636364,370.03219717689615 281.3131313131313,356.630859713092 276.26262626262627,368.7174721961798 271.2121212121212,368.3575285308532 266.16161616161617,372.1302067681928 261.1111111111111,367.32838212301954 256.06060606060606,368.5254523876457 251.010101010101,374.3469512389335 245.95959595959596,370.10647917985136 240.9090909090909,373.66179531458374 235.85858585858585,374.6391769709173 230.8080808080808,378.32386343965555 225.75757575757575,375.13738154554756 220.7070707070707,380.1195103813392 215.65656565656565,371.6561812347929 210.6060606060606,368.50326749414563 205.55555555555554,369.3002618703721 200.50505050505052,378.7206988379935 195.45454545454544,375.58822511158223 190.40404040404042,375.6838611131499 185.35353535353534,379.41042468422535 180.3030303030303,389.15482756853845 175.25252525252526,391.10792909143026 170.2020202020202,392.64973764493925 165.15151515151516,395.1769044457031 160.1010101010101,396.6298903357231 155.05050505050505,398.46076722064277 150,399.99916910511234 "/><text class="poloto_text" alignment-baseline="middle" text-anchor="start" font-size="large" x="675" y="350">indirect_seq</text><line class="poloto5stroke" stroke="black" x1="680" x2="730" y1="331.25" y2="331.25"/><polyline class="poloto5stroke" fill="none" stroke="black" points="650,146.7481405264827 644.9494949494949,147.537075222299 639.8989898989898,148.87456672293672 634.8484848484848,147.05756578264067 629.7979797979798,153.48744587066017 624.7474747474747,154.78621766953373 619.6969696969697,161.3259420616995 614.6464646464647,163.7539000128789 609.5959595959596,164.151732485082 604.5454545454545,166.25647232496854 599.4949494949494,169.4060624860652 594.4444444444445,164.89579885696563 589.3939393939394,174.72121399282386 584.3434343434344,172.27373001178486 579.2929292929293,178.0476185860108 574.2424242424242,180.79846229052797 569.1919191919192,183.46887536992136 564.1414141414141,185.89866128985355 559.090909090909,191.81762411146178 554.040404040404,190.50530872591963 548.989898989899,197.87750670601417 543.939393939394,200.75647440220575 538.8888888888889,203.70797922208854 533.8383838383838,206.30411029852672 528.7878787878788,206.7641767978142 523.7373737373737,212.10940669950548 518.6868686868687,206.27469661950417 513.6363636363636,212.37122167860156 508.5858585858586,212.8228961395239 503.5353535353535,219.03250599282939 498.4848484848485,218.43841614816517 493.4343434343434,222.38649629628605 488.3838383838384,226.99455625366113 483.3333333333333,232.8084939614714 478.2828282828283,226.31937106796306 473.2323232323232,234.40181799801417 468.1818181818182,237.00143883298045 463.1313131313131,236.81141317217666 458.0808080808081,238.8101308244001 453.030303030303,241.83608382621557 447.979797979798,245.65853266732495 442.9292929292929,252.71673546937944 437.8787878787879,252.9045177139866 432.8282828282828,254.10698879538245 427.77777777777777,255.17618433680047 422.72727272727275,271.29953345252056 417.67676767676767,270.4843424782548 412.62626262626264,277.3182036606459 407.57575757575756,277.04824591165095 402.52525252525254,284.0900800844189 397.47474747474746,282.82479334951734 392.4242424242424,284.6810125285101 387.37373737373736,289.74290727351536 382.32323232323233,292.7523254670668 377.27272727272725,293.8318241050916 372.22222222222223,295.044681372583 367.1717171717172,299.3458918479518 362.1212121212121,302.00890996284517 357.07070707070704,302.33553474317733 352.020202020202,304.44476141545715 346.969696969697,308.5199684813873 341.9191919191919,309.4059517000802 336.86868686868684,314.1533527301129 331.8181818181818,312.42459282688446 326.7676767676768,315.32400053731203 321.7171717171717,317.6653792411991 316.66666666666663,320.0586888755638 311.6161616161616,325.5461679820194 306.5656565656566,326.48325123630235 301.5151515151515,327.2937061097086 296.4646464646464,330.3897035505523 291.4141414141414,333.45146812202523 286.3636363636364,340.58428528499 281.3131313131313,342.61790052249444 276.26262626262627,345.28532238029226 271.2121212121212,347.7919660773314 266.16161616161617,349.7866123446054 261.1111111111111,351.35226758138964 256.06060606060606,354.5139057183571 251.010101010101,356.9808326397669 245.95959595959596,359.19549987328855 240.9090909090909,361.72042325785577 235.85858585858585,362.8160412567008 230.8080808080808,365.5635613816674 225.75757575757575,367.8272514135599 220.7070707070707,369.4391044060971 215.65656565656565,374.3867511040516 210.6060606060606,376.635318848989 205.55555555555554,378.1959887164474 200.50505050505052,380.19902702208657 195.45454545454544,382.13966512166377 190.40404040404042,383.6278809549198 185.35353535353534,385.2184630383333 180.3030303030303,388.5612362608068 175.25252525252526,390.21961936705196 170.2020202020202,392.1933270831573 165.15151515151516,394.7456699990168 160.1010101010101,396.39125732399225 155.05050505050505,398.31677313661436 150,399.99800585226967 "/><text class="poloto_text" alignment-baseline="start" text-anchor="middle" font-size="x-large" x="400" y="37.5">Bench of rebal:16_bytes with abspiral(num,0.1)</text><text class="poloto_text" alignment-baseline="start" text-anchor="middle" font-size="x-large" x="400" y="481.25">Number of Elements</text><text class="poloto_text" alignment-baseline="start" text-anchor="middle" font-size="x-large" transform="rotate(-90,37.5,250)" x="37.5" y="250">Time in Seconds</text><path stroke="black" fill="none" class="poloto_axis_lines" d=" M 150 100 L 150 400 L 650 400"/></svg>