<svg class="poloto" width="800" height="500" viewBox="0 0 800 500" xmlns="http://www.w3.org/2000/svg"><style>.poloto {font-family: sans-serif;stroke-width:2;}.poloto_text{fill: var(--poloto_fg_color,black);}.poloto_axis_lines{stroke: var(--poloto_fg_color,black);stoke-width:3;fill:none}.poloto_background{fill: var(--poloto_bg_color,aliceblue);}.poloto0stroke{stroke:  var(--poloto_color0,blue);}.poloto1stroke{stroke:  var(--poloto_color1,red);}.poloto2stroke{stroke:  var(--poloto_color2,green);}.poloto3stroke{stroke:  var(--poloto_color3,gold);}.poloto4stroke{stroke:  var(--poloto_color4,aqua);}.poloto5stroke{stroke:  var(--poloto_color5,brown);}.poloto6stroke{stroke:  var(--poloto_color6,lime);}.poloto7stroke{stroke:  var(--poloto_color7,chocolate);}.poloto0fill{fill:var(--poloto_color0,blue);}.poloto1fill{fill:var(--poloto_color1,red);}.poloto2fill{fill:var(--poloto_color2,green);}.poloto3fill{fill:var(--poloto_color3,gold);}.poloto4fill{fill:var(--poloto_color4,aqua);}.poloto5fill{fill:var(--poloto_color5,brown);}.poloto6fill{fill:var(--poloto_color6,lime);}.poloto7fill{fill:var(--poloto_color7,chocolate);}</style><rect class="poloto_background" fill="white" x="0" y="0" width="800" height="500"/><line class="poloto_axis_lines" stroke="black" x1="150" x2="150" y1="400" y2="405"/><text class="poloto_text" alignment-baseline="start" text-anchor="middle" x="150" y="430">0</text><line class="poloto_axis_lines" stroke="black" x1="234.17508417508418" x2="234.17508417508418" y1="400" y2="405"/><text class="poloto_text" alignment-baseline="start" text-anchor="middle" x="234.17508417508418" y="430">5000</text><line class="poloto_axis_lines" stroke="black" x1="318.35016835016836" x2="318.35016835016836" y1="400" y2="405"/><text class="poloto_text" alignment-baseline="start" text-anchor="middle" x="318.35016835016836" y="430">10000</text><line class="poloto_axis_lines" stroke="black" x1="402.52525252525254" x2="402.52525252525254" y1="400" y2="405"/><text class="poloto_text" alignment-baseline="start" text-anchor="middle" x="402.52525252525254" y="430">15000</text><line class="poloto_axis_lines" stroke="black" x1="486.7003367003367" x2="486.7003367003367" y1="400" y2="405"/><text class="poloto_text" alignment-baseline="start" text-anchor="middle" x="486.7003367003367" y="430">20000</text><line class="poloto_axis_lines" stroke="black" x1="570.8754208754208" x2="570.8754208754208" y1="400" y2="405"/><text class="poloto_text" alignment-baseline="start" text-anchor="middle" x="570.8754208754208" y="430">25000</text><line class="poloto_axis_lines" stroke="black" x1="150" x2="144" y1="355.7078753588851" y2="355.7078753588851"/><text class="poloto_text" alignment-baseline="middle" text-anchor="end" x="135" y="355.7078753588851">0.001</text><line class="poloto_axis_lines" stroke="black" x1="150" x2="144" y1="311.4122513633423" y2="311.4122513633423"/><text class="poloto_text" alignment-baseline="middle" text-anchor="end" x="135" y="311.4122513633423">0.002</text><line class="poloto_axis_lines" stroke="black" x1="150" x2="144" y1="267.11662736779954" y2="267.11662736779954"/><text class="poloto_text" alignment-baseline="middle" text-anchor="end" x="135" y="267.11662736779954">0.003</text><line class="poloto_axis_lines" stroke="black" x1="150" x2="144" y1="222.82100337225677" y2="222.82100337225677"/><text class="poloto_text" alignment-baseline="middle" text-anchor="end" x="135" y="222.82100337225677">0.004</text><line class="poloto_axis_lines" stroke="black" x1="150" x2="144" y1="178.525379376714" y2="178.525379376714"/><text class="poloto_text" alignment-baseline="middle" text-anchor="end" x="135" y="178.525379376714">0.005</text><line class="poloto_axis_lines" stroke="black" x1="150" x2="144" y1="134.22975538117123" y2="134.22975538117123"/><text class="poloto_text" alignment-baseline="middle" text-anchor="end" x="135" y="134.22975538117123">0.006</text><text class="poloto_text" alignment-baseline="middle" text-anchor="start" font-size="large" x="675" y="100">default_par</text><line class="poloto0stroke" stroke="black" x1="680" x2="730" y1="81.25" y2="81.25"/><polyline class="poloto0stroke" fill="none" stroke="black" points="650,336.2865488159176 644.9494949494949,344.37333604915415 639.8989898989898,334.42347306035526 634.8484848484848,335.22854571083536 629.7979797979798,342.6884600065255 624.7474747474747,338.8583083851352 619.6969696969697,334.1640761173421 614.6464646464647,342.4245458036654 609.5959595959596,340.7986777569595 604.5454545454545,341.5077637923819 599.4949494949494,329.09081171424305 594.4444444444445,341.8360386346819 589.3939393939394,345.86848717821215 584.3434343434344,346.2995296820296 579.2929292929293,346.57827968007183 574.2424242424242,342.35637952750517 569.1919191919192,344.830507497771 564.1414141414141,345.5777324074261 559.090909090909,347.4167986175007 554.040404040404,349.29089937483553 548.989898989899,347.38605443575716 543.939393939394,344.70466365153334 538.8888888888889,349.86692219896815 533.8383838383838,351.2007978694504 528.7878787878788,351.5227815507764 523.7373737373737,352.1641344719417 518.6868686868687,351.83138877999863 513.6363636363636,354.3205381862623 508.5858585858586,351.1021039924982 503.5353535353535,355.1987430047207 498.4848484848485,355.39634218288745 493.4343434343434,354.7923288491098 488.3838383838384,357.3628482345452 483.3333333333333,355.5383986603565 478.2828282828283,351.19105172663 473.2323232323232,348.582880774103 468.1818181818182,357.20422589262614 463.1313131313131,351.7421316445074 458.0808080808081,359.3014901154463 453.030303030303,361.9051438081264 447.979797979798,361.5229609356441 442.9292929292929,360.45561390950866 437.8787878787879,363.7509420761122 432.8282828282828,361.5467461651463 427.77777777777777,362.86981341480765 422.72727272727275,365.3566139490847 417.67676767676767,361.74483780714337 412.62626262626264,363.2496938255073 407.57575757575756,367.68501387908356 402.52525252525254,366.1116770265107 397.47474747474746,367.25911001617646 392.4242424242424,369.87888609802485 387.37373737373736,366.1518089611667 382.32323232323233,362.0479969940959 377.27272727272725,370.1746480141436 372.22222222222223,372.48391147006487 367.1717171717172,370.9870741035982 362.1212121212121,371.49288602425395 357.07070707070704,375.62146041345363 352.020202020202,370.7047350497872 346.969696969697,365.6452003320105 341.9191919191919,376.6385761288941 336.86868686868684,374.5204041092139 331.8181818181818,374.4665399108909 326.7676767676768,379.7526479549677 321.7171717171717,380.4565489392759 316.66666666666663,381.3820625147555 311.6161616161616,382.0129641158354 306.5656565656566,377.83265395183076 301.5151515151515,379.7144652488758 296.4646464646464,377.32719526439365 291.4141414141414,380.01975028100173 286.3636363636364,379.3042428781999 281.3131313131313,380.9324172542055 276.26262626262627,384.43673314734554 271.2121212121212,384.1706930993121 266.16161616161617,379.54166716800785 261.1111111111111,384.4230898365693 256.06060606060606,383.78261870927827 251.010101010101,382.0717452174279 245.95959595959596,386.67711612563534 240.9090909090909,385.1704011207705 235.85858585858585,384.9312931718986 230.8080808080808,387.4227888718042 225.75757575757575,388.1884386324102 220.7070707070707,387.4102091282008 215.65656565656565,389.77829751757383 210.6060606060606,390.1574682389054 205.55555555555554,390.5418214330065 200.50505050505052,391.4684411183459 195.45454545454544,392.12042842206745 190.40404040404042,393.2645843356685 185.35353535353534,392.9344492176952 180.3030303030303,395.3056825429691 175.25252525252526,396.13844049154494 170.2020202020202,397.0227140887503 165.15151515151516,398.12044803474714 160.1010101010101,398.7767320692738 155.05050505050505,399.3442918799214 150,399.99960133950844 "/><text class="poloto_text" alignment-baseline="middle" text-anchor="start" font-size="large" x="675" y="150">default_seq</text><line class="poloto1stroke" stroke="black" x1="680" x2="730" y1="131.25" y2="131.25"/><polyline class="poloto1stroke" fill="none" stroke="black" points="650,286.2875057213908 644.9494949494949,288.24306669996054 639.8989898989898,285.2952865020016 634.8484848484848,288.3820704173504 629.7979797979798,290.4514292158994 624.7474747474747,288.9921583311505 619.6969696969697,292.3021443871546 614.6464646464647,296.9913695096151 609.5959595959596,291.4234960934144 604.5454545454545,295.2653430861892 599.4949494949494,295.717739440493 594.4444444444445,296.24437149429025 589.3939393939394,300.5899857804042 584.3434343434344,298.89620929200413 579.2929292929293,298.23793727317025 574.2424242424242,304.6673078344229 569.1919191919192,305.7844530093503 564.1414141414141,305.81846653212455 559.090909090909,309.28247258482696 554.040404040404,310.06402041861566 548.989898989899,311.17243016182994 543.939393939394,312.09064057605593 538.8888888888889,311.4843686123548 533.8383838383838,310.30188818370544 528.7878787878788,313.05734449667506 523.7373737373737,313.64709958447474 518.6868686868687,314.08008616016684 513.6363636363636,317.236506008133 508.5858585858586,316.66735189417864 503.5353535353535,319.5990586915178 498.4848484848485,321.7337527437888 493.4343434343434,319.7277335601938 488.3838383838384,323.1799617344826 483.3333333333333,321.7583346817914 478.2828282828283,326.8126895051431 473.2323232323232,328.05686456485245 468.1818181818182,327.28523304463175 463.1313131313131,326.69623599016256 458.0808080808081,325.920087210095 453.030303030303,331.0350795431955 447.979797979798,337.252458606381 442.9292929292929,335.7990302506351 437.8787878787879,338.4780283310131 432.8282828282828,337.3460989277968 427.77777777777777,338.2131859240749 422.72727272727275,342.63397958382836 417.67676767676767,342.63225209290516 412.62626262626264,344.6577996589662 407.57575757575756,343.8858587373862 402.52525252525254,346.20539947512816 397.47474747474746,347.28572588828956 392.4242424242424,349.40983325738046 387.37373737373736,349.426798765253 382.32323232323233,350.0614686170557 377.27272727272725,351.8711210712321 372.22222222222223,352.2505554283053 367.1717171717172,353.14922714668654 362.1212121212121,353.85445597849537 357.07070707070704,356.0641025100756 352.020202020202,356.6708179490585 346.969696969697,357.30725654529897 341.9191919191919,358.84484722748505 336.86868686868684,360.55581096139855 331.8181818181818,361.7321239896176 326.7676767676768,362.47292366437625 321.7171717171717,361.9784513035417 316.66666666666663,363.5301713144727 311.6161616161616,366.77730764100846 306.5656565656566,368.8630543982258 301.5151515151515,369.25591419595133 296.4646464646464,369.1299801076505 291.4141414141414,370.45645850729903 286.3636363636364,374.7621264995726 281.3131313131313,376.18963991312603 276.26262626262627,376.57984143750554 271.2121212121212,377.39439208296125 266.16161616161617,378.7888188886461 261.1111111111111,379.51322931556405 256.06060606060606,378.5866534620839 251.010101010101,380.4274471630817 245.95959595959596,381.0393914850381 240.9090909090909,381.09888034224014 235.85858585858585,382.92257575061535 230.8080808080808,383.7146251822103 225.75757575757575,385.57871809474165 220.7070707070707,386.0645078799286 215.65656565656565,388.0504585178509 210.6060606060606,389.6832835830397 205.55555555555554,390.8328875389105 200.50505050505052,391.15695452272297 195.45454545454544,392.23006028165986 190.40404040404042,393.3748807635974 185.35353535353534,394.1112070103684 180.3030303030303,394.89718830780254 175.25252525252526,395.34373246431096 170.2020202020202,396.667773039082 165.15151515151516,397.9309514658257 160.1010101010101,398.60734554125935 155.05050505050505,399.3675913734614 150,400 "/><text class="poloto_text" alignment-baseline="middle" text-anchor="start" font-size="large" x="675" y="200">direct_par</text><line class="poloto2stroke" stroke="black" x1="680" x2="730" y1="181.25" y2="181.25"/><polyline class="poloto2stroke" fill="none" stroke="black" points="650,235.3395183442731 644.9494949494949,257.2617803813672 639.8989898989898,236.6392412613694 634.8484848484848,242.36551786019294 629.7979797979798,266.79499318624903 624.7474747474747,248.85031251828883 619.6969696969697,260.56946655393324 614.6464646464647,260.50718406029046 609.5959595959596,257.90269498394 604.5454545454545,260.52433520897864 599.4949494949494,253.61209225952345 594.4444444444445,242.23963276044068 589.3939393939394,252.701905653884 584.3434343434344,274.26895430365494 579.2929292929293,233.8885291025769 574.2424242424242,270.88468098126424 569.1919191919192,287.7564814954455 564.1414141414141,260.3177788614579 559.090909090909,271.6767690880291 554.040404040404,280.340997234962 548.989898989899,272.7383664055695 543.939393939394,283.62879921349867 538.8888888888889,282.97906667218365 533.8383838383838,297.6500437502162 528.7878787878788,290.8962039833838 523.7373737373737,284.27635563191944 518.6868686868687,292.0318101060874 513.6363636363636,284.1737684545284 508.5858585858586,294.3643766410592 503.5353535353535,292.79741345648955 498.4848484848485,293.52696123514545 493.4343434343434,290.084046041774 488.3838383838384,296.3426992463005 483.3333333333333,296.0617834387426 478.2828282828283,299.6225702366585 473.2323232323232,301.2046322075658 468.1818181818182,288.1531959184399 463.1313131313131,305.56876932172787 458.0808080808081,279.0084055801211 453.030303030303,313.9703672814421 447.979797979798,323.0058770596286 442.9292929292929,314.58939689452825 437.8787878787879,313.85763689615277 432.8282828282828,324.0787623700969 427.77777777777777,318.19740865326384 422.72727272727275,320.44138326566707 417.67676767676767,327.0979988120042 412.62626262626264,325.2954316489575 407.57575757575756,324.63923261923145 402.52525252525254,315.7985786604919 397.47474747474746,323.9276249627301 392.4242424242424,321.0996604411903 387.37373737373736,325.9868869635847 382.32323232323233,331.5952403909707 377.27272727272725,334.90859892179196 372.22222222222223,344.26033751601994 367.1717171717172,339.8279361486005 362.1212121212121,341.2278122857274 357.07070707070704,347.6780519686701 352.020202020202,333.7430479041899 346.969696969697,341.5425353484867 341.9191919191919,345.6650403143532 336.86868686868684,339.8753364368572 331.8181818181818,338.93228109347314 326.7676767676768,349.8623585289173 321.7171717171717,344.7927244351016 316.66666666666663,354.1417609241244 311.6161616161616,356.1227907912603 306.5656565656566,342.63109699449683 301.5151515151515,358.7140426461187 296.4646464646464,354.24797841079885 291.4141414141414,353.3017826436172 286.3636363636364,363.28105423162486 281.3131313131313,363.0104956345722 276.26262626262627,367.9494592209439 271.2121212121212,365.3948843188951 266.16161616161617,365.8151622337508 261.1111111111111,364.68805949174083 256.06060606060606,369.2532559226053 251.010101010101,365.55280019437697 245.95959595959596,367.43075557698074 240.9090909090909,369.24226959600276 235.85858585858585,368.9173182399714 230.8080808080808,370.50314459408446 225.75757575757575,373.88547126625576 220.7070707070707,375.29774924120443 215.65656565656565,372.8175905227754 210.6060606060606,382.08667254384557 205.55555555555554,378.0612190493819 200.50505050505052,384.8044308795196 195.45454545454544,382.4961858697396 190.40404040404042,384.87853766177994 185.35353535353534,385.35604451474194 180.3030303030303,389.9243401158896 175.25252525252526,391.04825280096713 170.2020202020202,393.05550894541346 165.15151515151516,395.6078229614872 160.1010101010101,397.11467171798137 155.05050505050505,398.406553566669 150,399.99831676646363 "/><text class="poloto_text" alignment-baseline="middle" text-anchor="start" font-size="large" x="675" y="250">direct_seq</text><line class="poloto3stroke" stroke="black" x1="680" x2="730" y1="231.25" y2="231.25"/><polyline class="poloto3stroke" fill="none" stroke="black" points="650,100 644.9494949494949,139.47272411969226 639.8989898989898,130.58151913551973 634.8484848484848,143.77387743046364 629.7979797979798,146.00942601251316 624.7474747474747,142.6986870798679 619.6969696969697,151.65884731366722 614.6464646464647,157.76544006343815 609.5959595959596,150.43248345887943 604.5454545454545,155.76452084558358 599.4949494949494,162.41706260735558 594.4444444444445,169.6338699416038 589.3939393939394,168.28475625417212 584.3434343434344,170.27336129792343 579.2929292929293,168.09381436192135 574.2424242424242,180.56390612353337 569.1919191919192,189.27734971336466 564.1414141414141,182.58330691592144 559.090909090909,194.65328083958588 554.040404040404,196.16204562845658 548.989898989899,188.10558488512845 543.939393939394,196.031684522372 538.8888888888889,198.62145640739467 533.8383838383838,200.7130095967897 528.7878787878788,205.19184179487317 523.7373737373737,204.39498890717388 518.6868686868687,202.06979643793392 513.6363636363636,212.06550239481396 508.5858585858586,212.1905830510318 503.5353535353535,216.2160803773547 498.4848484848485,223.20844796551015 493.4343434343434,220.51376839290103 488.3838383838384,221.41519894007007 483.3333333333333,224.5459281618292 478.2828282828283,231.38047011656596 473.2323232323232,238.22085975699494 468.1818181818182,238.86350700718026 463.1313131313131,237.74455699098985 458.0808080808081,236.63929282826263 453.030303030303,246.37573075936254 447.979797979798,251.755034360401 442.9292929292929,258.81514021950295 437.8787878787879,260.3765651197398 432.8282828282828,261.9639797341643 427.77777777777777,260.53439075315845 422.72727272727275,263.5310254257631 417.67676767676767,272.8676136667603 412.62626262626264,278.59348804381665 407.57575757575756,274.78862482686617 402.52525252525254,282.6781635368099 397.47474747474746,282.6820619939381 392.4242424242424,287.4771126946845 387.37373737373736,290.3399828462515 382.32323232323233,292.3843523283413 377.27272727272725,293.6713175960526 372.22222222222223,296.91894896476333 367.1717171717172,296.9923389672078 362.1212121212121,298.73258753978644 357.07070707070704,301.7882766185178 352.020202020202,304.1866115691147 346.969696969697,308.48453679236985 341.9191919191919,309.28136905331183 336.86868686868684,313.5753390958563 331.8181818181818,316.44241710591086 326.7676767676768,318.81697456203955 321.7171717171717,319.6113728656211 316.66666666666663,320.4825800566682 311.6161616161616,324.4721094749634 306.5656565656566,331.20318245843487 301.5151515151515,331.7669787721827 296.4646464646464,333.60117191084714 291.4141414141414,332.3136290939317 286.3636363636364,342.01933315666673 281.3131313131313,346.91679055067794 276.26262626262627,350.21180673757743 271.2121212121212,350.28830622368366 266.16161616161617,352.9614153648548 261.1111111111111,354.1323705928673 256.06060606060606,355.4607492325313 251.010101010101,356.76051598148683 245.95959595959596,358.14732506786936 240.9090909090909,359.26773700548284 235.85858585858585,362.507032585903 230.8080808080808,364.3434843544909 225.75757575757575,368.30608296279695 220.7070707070707,369.6179859800741 215.65656565656565,373.66589685653923 210.6060606060606,376.8231108346611 205.55555555555554,378.96387559943753 200.50505050505052,381.19092595748276 195.45454545454544,382.00831407123843 190.40404040404042,385.55466600656695 185.35353535353534,386.65452595888377 180.3030303030303,388.89158802924953 175.25252525252526,391.2878035805347 170.2020202020202,392.697866112833 165.15151515151516,395.42607802464397 160.1010101010101,396.86931805146 155.05050505050505,398.5542351864567 150,399.9775421188219 "/><text class="poloto_text" alignment-baseline="middle" text-anchor="start" font-size="large" x="675" y="300">indirect_par</text><line class="poloto4stroke" stroke="black" x1="680" x2="730" y1="281.25" y2="281.25"/><polyline class="poloto4stroke" fill="none" stroke="black" points="650,253.1133166414489 644.9494949494949,272.8256691558073 639.8989898989898,255.79648648348916 634.8484848484848,270.4303869652896 629.7979797979798,275.24988037342683 624.7474747474747,272.36136084916745 619.6969696969697,285.95675566821575 614.6464646464647,281.3866397557371 609.5959595959596,271.23891459761603 604.5454545454545,250.43768587919882 599.4949494949494,269.8949782262647 594.4444444444445,285.5196024875506 589.3939393939394,287.54395370168874 584.3434343434344,293.1618366909436 579.2929292929293,294.57211902712424 574.2424242424242,286.1542259291494 569.1919191919192,293.75185476989867 564.1414141414141,288.36829174347946 559.090909090909,298.1602362784518 554.040404040404,304.2816699800942 548.989898989899,294.3459466334189 543.939393939394,291.77732748799906 538.8888888888889,296.76594999255093 533.8383838383838,308.1001365434787 528.7878787878788,313.1018157853963 523.7373737373737,308.31970837485056 518.6868686868687,308.71965088536115 513.6363636363636,302.79981279611076 508.5858585858586,304.58762667100444 503.5353535353535,300.44159688844655 498.4848484848485,315.3185476081063 493.4343434343434,316.9663470545028 488.3838383838384,312.23428531383644 483.3333333333333,316.63217811630665 478.2828282828283,313.0013531640063 473.2323232323232,319.56977900954206 468.1818181818182,319.2453562141663 463.1313131313131,323.8499755349049 458.0808080808081,321.09199760085636 453.030303030303,321.4740928096202 447.979797979798,332.41231781419464 442.9292929292929,332.1233369445356 437.8787878787879,324.7099308298493 432.8282828282828,333.34075394334803 427.77777777777777,329.3783332408237 422.72727272727275,337.6403550906332 417.67676767676767,335.90179791215246 412.62626262626264,338.5520938597588 407.57575757575756,341.2930186222163 402.52525252525254,333.9607633274055 397.47474747474746,334.7635309377583 392.4242424242424,337.3312167224107 387.37373737373736,331.5695497647637 382.32323232323233,345.9183214238293 377.27272727272725,340.0487971523031 372.22222222222223,350.34983068399595 367.1717171717172,350.60125538531577 362.1212121212121,351.7851900003542 357.07070707070704,354.3158404422891 352.020202020202,353.00748007057683 346.969696969697,353.6521590563554 341.9191919191919,354.43738876632074 336.86868686868684,359.5536212832034 331.8181818181818,359.01064510259704 326.7676767676768,350.43452414943636 321.7171717171717,281.0990718189526 316.66666666666663,367.2095000865449 311.6161616161616,369.1013218067381 306.5656565656566,357.85896042258446 301.5151515151515,364.758267816873 296.4646464646464,367.6695102926341 291.4141414141414,365.5247168643241 286.3636363636364,372.7222665422957 281.3131313131313,374.3578833101667 276.26262626262627,371.6582868342881 271.2121212121212,371.34197035452803 266.16161616161617,374.24732131273765 261.1111111111111,375.3346453533103 256.06060606060606,376.3877753869823 251.010101010101,375.41189771605764 245.95959595959596,377.5718414975985 240.9090909090909,377.9380773083495 235.85858585858585,378.72636235673866 230.8080808080808,379.0607491650587 225.75757575757575,383.43932758766977 220.7070707070707,380.15684473416974 215.65656565656565,384.06394060612035 210.6060606060606,385.09080117520887 205.55555555555554,386.5713833677572 200.50505050505052,389.38765445167104 195.45454545454544,388.55241581323776 190.40404040404042,390.1812547575799 185.35353535353534,391.33085935803683 180.3030303030303,394.14708661009143 175.25252525252526,394.98369789476385 170.2020202020202,396.3211597203772 165.15151515151516,397.7646656389865 160.1010101010101,398.572396401666 155.05050505050505,399.2707168812475 150,399.998139583953 "/><text class="poloto_text" alignment-baseline="middle" text-anchor="start" font-size="large" x="675" y="350">indirect_seq</text><line class="poloto5stroke" stroke="black" x1="680" x2="730" y1="331.25" y2="331.25"/><polyline class="poloto5stroke" fill="none" stroke="black" points="650,147.156995654446 644.9494949494949,161.92173165774875 639.8989898989898,158.0139718620478 634.8484848484848,163.24355614528326 629.7979797979798,167.65939422659739 624.7474747474747,164.8289493374932 619.6969696969697,174.86349547835383 614.6464646464647,189.04005949747906 609.5959595959596,179.73495800148794 604.5454545454545,176.4746721171786 599.4949494949494,184.78102602509767 594.4444444444445,195.19700216179942 589.3939393939394,199.0103326626182 584.3434343434344,200.79916756199782 579.2929292929293,194.62533158345542 574.2424242424242,208.38032593704952 569.1919191919192,209.19966199019694 564.1414141414141,212.38725918180972 559.090909090909,219.49963324388924 554.040404040404,222.29835418027852 548.989898989899,221.2972345151179 543.939393939394,150.92078068424973 538.8888888888889,226.2957784899272 533.8383838383838,225.25344656369742 528.7878787878788,234.84770425678454 523.7373737373737,234.24994083046633 518.6868686868687,231.50351903719056 513.6363636363636,243.12053968410433 508.5858585858586,241.63172096953485 503.5353535353535,245.1990155093763 498.4848484848485,251.20147407495924 493.4343434343434,251.13565409244092 488.3838383838384,254.6420481313781 483.3333333333333,253.32248227376704 478.2828282828283,259.67292454824235 473.2323232323232,266.5375506284893 468.1818181818182,265.46546460486604 463.1313131313131,263.7175635053321 458.0808080808081,266.9327592982014 453.030303030303,275.9439913830554 447.979797979798,285.1659876739176 442.9292929292929,273.43189986599384 437.8787878787879,286.0497307767088 432.8282828282828,285.5844942659908 427.77777777777777,286.30256325421385 422.72727272727275,292.08398548865716 417.67676767676767,294.06723788889127 412.62626262626264,299.08814126860494 407.57575757575756,296.1194558521307 402.52525252525254,302.68942870446335 397.47474747474746,304.1876325936006 392.4242424242424,308.4777505892208 387.37373737373736,311.9933235351529 382.32323232323233,307.9135572103951 377.27272727272725,316.35418099490556 372.22222222222223,317.530803424484 367.1717171717172,319.5170209210788 362.1212121212121,321.024357307007 357.07070707070704,320.9029894671017 352.020202020202,323.25154173897465 346.969696969697,329.78372637194866 341.9191919191919,327.96357489831064 336.86868686868684,334.0180335190264 331.8181818181818,335.53963330762195 326.7676767676768,339.12084575194604 321.7171717171717,337.3228010054356 316.66666666666663,339.79223638841756 311.6161616161616,342.66179476603645 306.5656565656566,347.71353514790144 301.5151515151515,350.18407921908783 296.4646464646464,350.5864144334443 291.4141414141414,352.13122448068253 286.3636363636364,358.19396732279563 281.3131313131313,361.92968191426974 276.26262626262627,363.4258566461584 271.2121212121212,363.6588951716972 266.16161616161617,366.8853454390139 261.1111111111111,368.0229446221408 256.06060606060606,368.12283227267136 251.010101010101,369.9984851934924 245.95959595959596,370.5588703572531 240.9090909090909,371.07854603715367 235.85858585858585,374.38933395834744 230.8080808080808,376.1068080125312 225.75757575757575,379.4295555854373 220.7070707070707,380.16512766639477 215.65656565656565,381.9401426383888 210.6060606060606,385.5431047091049 205.55555555555554,386.99263460772266 200.50505050505052,387.80479512767715 195.45454545454544,388.7698630886086 190.40404040404042,391.04493060387085 185.35353535353534,392.08229019242094 180.3030303030303,393.4504932991401 175.25252525252526,395.07122592786646 170.2020202020202,395.984468838809 165.15151515151516,397.4983160284471 160.1010101010101,398.32301197670614 155.05050505050505,399.2964526284861 150,399.99964563529346 "/><text class="poloto_text" alignment-baseline="start" text-anchor="middle" font-size="x-large" x="400" y="37.5">Bench of rebal:128_bytes with abspiral(num,0.6)</text><text class="poloto_text" alignment-baseline="start" text-anchor="middle" font-size="x-large" x="400" y="481.25">Number of Elements</text><text class="poloto_text" alignment-baseline="start" text-anchor="middle" font-size="x-large" transform="rotate(-90,37.5,250)" x="37.5" y="250">Time in Seconds</text><path stroke="black" fill="none" class="poloto_axis_lines" d=" M 150 100 L 150 400 L 650 400"/></svg>