<svg class="poloto" width="800" height="500" viewBox="0 0 800 500" xmlns="http://www.w3.org/2000/svg"><style>.poloto {
    font-family: "Arial";
    stroke-width:2;
    }
    .poloto_text{fill: var(--poloto_fg_color,black);  }
    .poloto_axis_lines{stroke: var(--poloto_fg_color,black);stoke-width:3;fill:none}
    .poloto_background{fill: var(--poloto_bg_color,aliceblue); }
    .poloto0stroke{stroke:  var(--poloto_color0,blue); }
    .poloto1stroke{stroke:  var(--poloto_color1,red); }
    .poloto2stroke{stroke:  var(--poloto_color2,green); }
    .poloto3stroke{stroke:  var(--poloto_color3,gold); }
    .poloto4stroke{stroke:  var(--poloto_color4,aqua); }
    .poloto5stroke{stroke:  var(--poloto_color5,brown); }
    .poloto6stroke{stroke:  var(--poloto_color6,lime); }
    .poloto7stroke{stroke:  var(--poloto_color7,chocolate); }
    .poloto0fill{fill:var(--poloto_color0,blue);}
    .poloto1fill{fill:var(--poloto_color1,red);}
    .poloto2fill{fill:var(--poloto_color2,green);}
    .poloto3fill{fill:var(--poloto_color3,gold);}
    .poloto4fill{fill:var(--poloto_color4,aqua);}
    .poloto5fill{fill:var(--poloto_color5,brown);}
    .poloto6fill{fill:var(--poloto_color6,lime);}
    .poloto7fill{fill:var(--poloto_color7,chocolate);}</style><rect class="poloto_background" fill="white" x="0" y="0" width="800" height="500"/><line class="poloto_axis_lines" stroke="black" x1="150" x2="150" y1="400" y2="405"/><text class="poloto_text" alignment-baseline="start" text-anchor="middle" x="150" y="430">0</text><line class="poloto_axis_lines" stroke="black" x1="234.17508417508418" x2="234.17508417508418" y1="400" y2="405"/><text class="poloto_text" alignment-baseline="start" text-anchor="middle" x="234.17508417508418" y="430">5000</text><line class="poloto_axis_lines" stroke="black" x1="318.35016835016836" x2="318.35016835016836" y1="400" y2="405"/><text class="poloto_text" alignment-baseline="start" text-anchor="middle" x="318.35016835016836" y="430">10000</text><line class="poloto_axis_lines" stroke="black" x1="402.52525252525254" x2="402.52525252525254" y1="400" y2="405"/><text class="poloto_text" alignment-baseline="start" text-anchor="middle" x="402.52525252525254" y="430">15000</text><line class="poloto_axis_lines" stroke="black" x1="486.7003367003367" x2="486.7003367003367" y1="400" y2="405"/><text class="poloto_text" alignment-baseline="start" text-anchor="middle" x="486.7003367003367" y="430">20000</text><line class="poloto_axis_lines" stroke="black" x1="570.8754208754208" x2="570.8754208754208" y1="400" y2="405"/><text class="poloto_text" alignment-baseline="start" text-anchor="middle" x="570.8754208754208" y="430">25000</text><line class="poloto_axis_lines" stroke="black" x1="150" x2="144" y1="364.265536554911" y2="364.265536554911"/><text class="poloto_text" alignment-baseline="middle" text-anchor="end" x="135" y="364.265536554911">0.001</text><line class="poloto_axis_lines" stroke="black" x1="150" x2="144" y1="328.52864300106046" y2="328.52864300106046"/><text class="poloto_text" alignment-baseline="middle" text-anchor="end" x="135" y="328.52864300106046">0.002</text><line class="poloto_axis_lines" stroke="black" x1="150" x2="144" y1="292.7917494472098" y2="292.7917494472098"/><text class="poloto_text" alignment-baseline="middle" text-anchor="end" x="135" y="292.7917494472098">0.003</text><line class="poloto_axis_lines" stroke="black" x1="150" x2="144" y1="257.0548558933592" y2="257.0548558933592"/><text class="poloto_text" alignment-baseline="middle" text-anchor="end" x="135" y="257.0548558933592">0.004</text><line class="poloto_axis_lines" stroke="black" x1="150" x2="144" y1="221.3179623395086" y2="221.3179623395086"/><text class="poloto_text" alignment-baseline="middle" text-anchor="end" x="135" y="221.3179623395086">0.005</text><line class="poloto_axis_lines" stroke="black" x1="150" x2="144" y1="185.58106878565798" y2="185.58106878565798"/><text class="poloto_text" alignment-baseline="middle" text-anchor="end" x="135" y="185.58106878565798">0.006</text><line class="poloto_axis_lines" stroke="black" x1="150" x2="144" y1="149.84417523180736" y2="149.84417523180736"/><text class="poloto_text" alignment-baseline="middle" text-anchor="end" x="135" y="149.84417523180736">0.007</text><line class="poloto_axis_lines" stroke="black" x1="150" x2="144" y1="114.10728167795679" y2="114.10728167795679"/><text class="poloto_text" alignment-baseline="middle" text-anchor="end" x="135" y="114.10728167795679">0.008</text><text class="poloto_text" alignment-baseline="middle" text-anchor="start" font-size="large" x="675" y="100">default_par</text><line class="poloto0stroke" stroke="black" x1="680" x2="730" y1="81.25" y2="81.25"/><polyline class="poloto0stroke" fill="none" stroke="black" points="650,253.2176784218016 644.9494949494949,214.20235372710783 639.8989898989898,253.400758527478 634.8484848484848,254.07439897096808 629.7979797979798,252.73162093257568 624.7474747474747,249.69634361547293 619.6969696969697,246.30845036967435 614.6464646464647,259.09761246579086 609.5959595959596,283.55608536162043 604.5454545454545,306.8720497705334 599.4949494949494,309.4162664333127 594.4444444444445,290.3177915171574 589.3939393939394,289.12367895594906 584.3434343434344,289.27037890398765 579.2929292929293,299.25133590464253 574.2424242424242,294.8543042586703 569.1919191919192,293.39588163273766 564.1414141414141,295.6237195768847 559.090909090909,297.1129831419544 554.040404040404,305.0108723542489 548.989898989899,297.97106169307585 543.939393939394,298.39565172538914 538.8888888888889,305.550499446912 533.8383838383838,303.6496540787827 528.7878787878788,306.4466377896684 523.7373737373737,310.54272905502364 518.6868686868687,306.72202629139434 513.6363636363636,308.0511170995556 508.5858585858586,312.82059865014605 503.5353535353535,296.96392455894124 498.4848484848485,306.39703498141563 493.4343434343434,312.26113758156055 488.3838383838384,311.85859721257 483.3333333333333,311.77722430594787 478.2828282828283,317.74285542067923 473.2323232323232,311.03972203367704 468.1818181818182,314.6894594985447 463.1313131313131,315.0597651895497 458.0808080808081,321.0777508533375 453.030303030303,308.5020809593117 447.979797979798,324.63282128718095 442.9292929292929,323.2692801136338 437.8787878787879,323.6099241829891 432.8282828282828,323.7002670498932 427.77777777777777,319.94428380049 422.72727272727275,329.5047962484839 417.67676767676767,329.44029115561915 412.62626262626264,330.66492302392254 407.57575757575756,328.1393967564719 402.52525252525254,330.88713502804035 397.47474747474746,332.93024896940756 392.4242424242424,335.52724902396585 387.37373737373736,335.7882712944832 382.32323232323233,336.29984492570657 377.27272727272725,339.66575998196953 372.22222222222223,333.5623631425881 367.1717171717172,338.77623296452066 362.1212121212121,330.17064604917925 357.07070707070704,340.8792776763777 352.020202020202,346.82811245113874 346.969696969697,346.4352925171948 341.9191919191919,336.6740459381089 336.86868686868684,350.0462554525565 331.8181818181818,348.4884127887571 326.7676767676768,349.9960451171134 321.7171717171717,353.3290107575197 316.66666666666663,351.56139252855917 311.6161616161616,352.43255078272136 306.5656565656566,358.20152177222593 301.5151515151515,356.3309455529367 296.4646464646464,350.02331236689497 291.4141414141414,360.3691430507347 286.3636363636364,356.7205491664608 281.3131313131313,357.71482101891604 276.26262626262627,358.2923649556398 271.2121212121212,361.04289070490546 266.16161616161617,362.12854179417786 261.1111111111111,364.3098503029178 256.06060606060606,365.68840097175763 251.010101010101,367.0110591390792 245.95959595959596,366.8504218025546 240.9090909090909,368.85015115514744 235.85858585858585,371.6881965567265 230.8080808080808,371.3947609237558 225.75757575757575,371.4407185688661 220.7070707070707,373.69843255602416 215.65656565656565,377.21322751083244 210.6060606060606,374.11412410184255 205.55555555555554,376.1818250259748 200.50505050505052,381.6773015691117 195.45454545454544,384.54600922535997 190.40404040404042,384.4737849634876 185.35353535353534,385.83489602827314 180.3030303030303,385.80087450560984 175.25252525252526,387.84055770519586 170.2020202020202,389.3714547512557 165.15151515151516,393.23311199489774 160.1010101010101,395.50844427057785 155.05050505050505,397.9373022409653 150,399.99996426310645 "/><text class="poloto_text" alignment-baseline="middle" text-anchor="start" font-size="large" x="675" y="150">default_seq</text><line class="poloto1stroke" stroke="black" x1="680" x2="730" y1="131.25" y2="131.25"/><polyline class="poloto1stroke" fill="none" stroke="black" points="650,138.1164346111338 644.9494949494949,136.20486817493833 639.8989898989898,142.05710612642332 634.8484848484848,146.36576043463685 629.7979797979798,151.45751729129594 624.7474747474747,151.73047568426026 619.6969696969697,154.0426526971944 614.6464646464647,158.08424519988003 609.5959595959596,150.459778960166 604.5454545454545,152.8470749233503 599.4949494949494,165.01806023477232 594.4444444444445,145.55782074517143 589.3939393939394,169.83521480136363 584.3434343434344,169.39318516499605 579.2929292929293,173.2013442789879 574.2424242424242,178.23438541953803 569.1919191919192,180.01261750588407 564.1414141414141,184.0241552810909 559.090909090909,182.27937292711127 554.040404040404,191.45510624221086 548.989898989899,193.64617092289097 543.939393939394,194.28228762814953 538.8888888888889,199.11119963272003 533.8383838383838,201.6120674436185 528.7878787878788,204.65577866759995 523.7373737373737,206.13228416167087 518.6868686868687,210.01238164238663 513.6363636363636,211.39682889866282 508.5858585858586,211.08616808299917 503.5353535353535,216.01267754386524 498.4848484848485,213.97889093171563 493.4343434343434,213.84351957893364 488.3838383838384,223.30711357160948 483.3333333333333,226.62782145752684 478.2828282828283,227.62152151968522 473.2323232323232,222.83245615142724 468.1818181818182,231.00094512171154 463.1313131313131,234.9855015422852 458.0808080808081,237.02229005349338 453.030303030303,241.0576643367006 447.979797979798,241.9732078126567 442.9292929292929,240.5020628526189 437.8787878787879,247.58954652979278 432.8282828282828,250.0881271795038 427.77777777777777,252.37228646789174 422.72727272727275,259.2589288032929 417.67676767676767,259.45230113431285 412.62626262626264,267.3846049750997 407.57575757575756,261.859073704484 402.52525252525254,269.75449707112335 397.47474747474746,267.35354961460143 392.4242424242424,271.05714257805477 387.37373737373736,279.24832447574573 382.32323232323233,227.67334001533828 377.27272727272725,278.548703310642 372.22222222222223,286.90563292063575 367.1717171717172,288.8080149751879 362.1212121212121,288.10092479933144 357.07070707070704,290.4192485579568 352.020202020202,296.6502618442191 346.969696969697,299.4911304603889 341.9191919191919,296.75707941905154 336.86868686868684,301.5781650439338 331.8181818181818,304.7038567017278 326.7676767676768,309.5026425050323 321.7171717171717,308.5962834107196 316.66666666666663,311.75006426684695 311.6161616161616,313.7616582680996 306.5656565656566,318.6504295693728 301.5151515151515,317.959385258722 296.4646464646464,321.3115058740732 291.4141414141414,323.6919403536952 286.3636363636364,332.1005455117678 281.3131313131313,335.3929497779905 276.26262626262627,336.9983225102166 271.2121212121212,339.43422064863415 266.16161616161617,337.39571676653543 261.1111111111111,345.35192858910983 256.06060606060606,346.5260642268216 251.010101010101,346.32536583262316 245.95959595959596,351.0398125671407 240.9090909090909,352.41536133692193 235.85858585858585,356.3567475900826 230.8080808080808,359.46757270015814 225.75757575757575,360.1288481784786 220.7070707070707,363.92160469134876 215.65656565656565,366.9822194659812 210.6060606060606,370.34445362220816 205.55555555555554,371.01695048510453 200.50505050505052,374.0087717396458 195.45454545454544,377.1482578383515 190.40404040404042,379.98608881856927 185.35353535353534,382.56157526320817 180.3030303030303,386.0435994866276 175.25252525252526,387.7525019994792 170.2020202020202,389.3660584803291 165.15151515151516,393.0268386453049 160.1010101010101,395.58835196456425 155.05050505050505,397.9566716372715 150,399.99996426310645 "/><text class="poloto_text" alignment-baseline="middle" text-anchor="start" font-size="large" x="675" y="200">direct_par</text><line class="poloto2stroke" stroke="black" x1="680" x2="730" y1="181.25" y2="181.25"/><polyline class="poloto2stroke" fill="none" stroke="black" points="650,257.89760331714615 644.9494949494949,275.7848834369743 639.8989898989898,279.27798609739546 634.8484848484848,288.3295337073954 629.7979797979798,281.61410682901067 624.7474747474747,289.87740577789333 619.6969696969697,288.0087950877496 614.6464646464647,284.1810521560902 609.5959595959596,287.7813654971729 604.5454545454545,310.54154973753634 599.4949494949494,324.6390752435529 594.4444444444445,312.7872203915668 589.3939393939394,309.12415306540356 584.3434343434344,309.45511243660576 579.2929292929293,314.8986990103025 574.2424242424242,311.915704768469 569.1919191919192,314.46188696039377 564.1414141414141,311.0454756735392 559.090909090909,306.8072587825203 554.040404040404,312.67003911760366 548.989898989899,321.42547082761644 543.939393939394,320.2059493350913 538.8888888888889,321.7988141545735 533.8383838383838,318.2888079435014 528.7878787878788,326.1696863944643 523.7373737373737,324.380661766265 518.6868686868687,319.7248950109629 513.6363636363636,323.63694127451583 508.5858585858586,321.34599197635265 503.5353535353535,324.6449360940957 498.4848484848485,324.72119862493963 493.4343434343434,328.52864300106046 488.3838383838384,333.96057934745863 483.3333333333333,332.17066129692046 478.2828282828283,334.5683924330225 473.2323232323232,332.21458193909814 468.1818181818182,325.40241528986314 463.1313131313131,326.9880612568475 458.0808080808081,336.6262299745339 453.030303030303,329.8011623067259 447.979797979798,330.9132944341218 442.9292929292929,336.8262136308612 437.8787878787879,338.91764385231323 432.8282828282828,338.1814638451039 427.77777777777777,339.82979232338175 422.72727272727275,341.33206411770493 417.67676767676767,342.63713973339804 412.62626262626264,340.8029436717466 407.57575757575756,342.1518327189367 402.52525252525254,339.4438696098937 397.47474747474746,344.2111354730838 392.4242424242424,345.3622565513469 387.37373737373736,345.3091157906323 382.32323232323233,343.63062537419506 377.27272727272725,348.4805149352817 372.22222222222223,343.60242896518105 367.1717171717172,350.6308395573104 362.1212121212121,352.7549332994706 357.07070707070704,344.38974846706594 352.020202020202,353.22637439923307 346.969696969697,352.4329081516569 341.9191919191919,355.7760945436196 336.86868686868684,357.6165445616429 331.8181818181818,355.9787942038571 326.7676767676768,358.64444483093234 321.7171717171717,359.9216456696534 316.66666666666663,358.13022666958597 311.6161616161616,358.8615821961655 306.5656565656566,360.01784938710034 301.5151515151515,360.707142589967 296.4646464646464,361.30802271818146 291.4141414141414,366.0616728249276 286.3636363636364,364.32400211276513 281.3131313131313,366.74524812482565 276.26262626262627,366.8345546218167 271.2121212121212,367.81849851203486 266.16161616161617,370.2264861365869 261.1111111111111,369.7663378951875 256.06060606060606,371.43081944935165 251.010101010101,372.68779320632126 245.95959595959596,373.21301833088216 240.9090909090909,373.9732850043468 235.85858585858585,374.5692691781444 230.8080808080808,375.3681674335407 225.75757575757575,376.3318842420074 220.7070707070707,375.8410737459388 215.65656565656565,383.0703971536279 210.6060606060606,382.22382588223076 205.55555555555554,383.9568507982312 200.50505050505052,384.6571152274189 195.45454545454544,387.048914039191 190.40404040404042,387.2002597833915 185.35353535353534,389.34711792674557 180.3030303030303,388.51612794093785 175.25252525252526,390.3674777114951 170.2020202020202,391.7961315050974 165.15151515151516,394.57463924201573 160.1010101010101,395.979420790724 155.05050505050505,398.2565756479754 150,399.9998570524258 "/><text class="poloto_text" alignment-baseline="middle" text-anchor="start" font-size="large" x="675" y="250">direct_seq</text><line class="poloto3stroke" stroke="black" x1="680" x2="730" y1="231.25" y2="231.25"/><polyline class="poloto3stroke" fill="none" stroke="black" points="650,188.53533056507413 644.9494949494949,196.64328123767822 639.8989898989898,197.44164343967125 634.8484848484848,199.95987938083687 629.7979797979798,202.6375018672527 624.7474747474747,204.40336898842912 619.6969696969697,207.56797812330325 614.6464646464647,202.76129446652322 609.5959595959596,211.04639292047375 604.5454545454545,209.2264916162439 599.4949494949494,216.07671805711377 594.4444444444445,215.2697790006678 589.3939393939394,218.73622193849778 584.3434343434344,221.09103306544165 579.2929292929293,222.22389259109872 574.2424242424242,226.48415914544034 569.1919191919192,226.7719483492295 564.1414141414141,229.2949372972378 559.090909090909,229.08458994177985 554.040404040404,232.55528556994273 548.989898989899,234.26454545172984 543.939393939394,236.4883451269053 538.8888888888889,236.62611085155538 533.8383838383838,240.02572579843962 528.7878787878788,242.61597158011628 523.7373737373737,244.43958952127574 518.6868686868687,246.84389624579168 513.6363636363636,248.9024842620677 508.5858585858586,250.26041474332692 503.5353535353535,252.0102717361912 498.4848484848485,252.20360833031754 493.4343434343434,254.30415145962576 488.3838383838384,257.1335127960713 483.3333333333333,258.71683586497454 478.2828282828283,260.30991510581816 473.2323232323232,262.44555186459627 468.1818181818182,263.54374660350607 463.1313131313131,266.95726320198276 458.0808080808081,268.5072794860939 453.030303030303,270.97151698109974 447.979797979798,271.5415204332836 442.9292929292929,274.5219416187812 437.8787878787879,274.2327229392499 432.8282828282828,277.3609519164862 427.77777777777777,279.6526159525205 422.72727272727275,287.9506154250439 417.67676767676767,287.9536173241024 412.62626262626264,292.28871693354586 407.57575757575756,294.2107542795526 402.52525252525254,295.5917707940476 397.47474747474746,298.10768383713224 392.4242424242424,300.12428100348245 387.37373737373736,301.5860628974092 382.32323232323233,304.5943231229852 377.27272727272725,305.83971812644336 372.22222222222223,306.23757696237834 367.1717171717172,309.532947390766 362.1212121212121,311.6235199267727 357.07070707070704,312.9470357795396 352.020202020202,315.5506114225118 346.969696969697,317.16252400625825 341.9191919191919,319.7170686312746 336.86868686868684,321.64718251522453 331.8181818181818,323.2347582744608 326.7676767676768,325.444799245618 321.7171717171717,327.4731181130539 316.66666666666663,323.70334042273885 311.6161616161616,331.9834357115918 306.5656565656566,333.73768834236324 301.5151515151515,335.3641458417861 296.4646464646464,335.5866437410524 291.4141414141414,339.87946660542156 286.3636363636364,346.26164695141665 281.3131313131313,348.74664758157724 276.26262626262627,349.6396768145944 271.2121212121212,351.71727685824106 266.16161616161617,353.8265040526829 261.1111111111111,356.07342549798767 256.06060606060606,357.4116649508987 251.010101010101,359.9428019106373 245.95959595959596,361.6088916250113 240.9090909090909,363.90430803486873 235.85858585858585,364.383611251213 230.8080808080808,366.9688181308985 225.75757575757575,367.8604178881735 220.7070707070707,370.27451652152325 215.65656565656565,372.87058741684916 210.6060606060606,376.15512956649 205.55555555555554,377.9879676261864 200.50505050505052,379.68175343306467 195.45454545454544,381.88818497797297 190.40404040404042,383.65130035834574 185.35353535353534,385.4256013864009 180.3030303030303,388.4698844006792 175.25252525252526,390.28799886023137 170.2020202020202,392.0148770305405 165.15151515151516,394.2069780811337 160.1010101010101,396.0866314713856 155.05050505050505,398.22562749815773 150,399.9998570524258 "/><text class="poloto_text" alignment-baseline="middle" text-anchor="start" font-size="large" x="675" y="300">indirect_par</text><line class="poloto4stroke" stroke="black" x1="680" x2="730" y1="281.25" y2="281.25"/><polyline class="poloto4stroke" fill="none" stroke="black" points="650,257.5729336392094 644.9494949494949,208.46029261844933 639.8989898989898,239.06322404435377 634.8484848484848,249.11447551462913 629.7979797979798,253.41033601495042 624.7474747474747,262.1801696930654 619.6969696969697,261.3701215268802 614.6464646464647,261.53890687513507 609.5959595959596,277.45697694946546 604.5454545454545,300.2891710303399 599.4949494949494,305.04603745750586 594.4444444444445,284.36188083747265 589.3939393939394,285.163423622992 584.3434343434344,287.476815690307 579.2929292929293,289.07318272535747 574.2424242424242,291.97909248779524 569.1919191919192,290.6279162794177 564.1414141414141,295.1317655002224 559.090909090909,293.68767336860486 554.040404040404,297.75299516861025 548.989898989899,299.703872187715 543.939393939394,302.8595828360942 538.8888888888889,295.6056367087465 533.8383838383838,298.1672572386865 528.7878787878788,298.3964736739409 523.7373737373737,299.49913552454495 518.6868686868687,299.5023518449648 513.6363636363636,303.55373625648417 508.5858585858586,307.24371346349346 503.5353535353535,306.54637945957717 498.4848484848485,301.38107607598425 493.4343434343434,301.03185515217604 488.3838383838384,308.3865435824521 483.3333333333333,311.6734086301739 478.2828282828283,311.6660110932083 473.2323232323232,307.7578601510527 468.1818181818182,316.6416230458173 463.1313131313131,313.31716278607684 458.0808080808081,309.21799814787596 453.030303030303,318.5703074540251 447.979797979798,317.0819373112943 442.9292929292929,318.73212410803694 437.8787878787879,323.63083026571815 432.8282828282828,324.7572214136419 427.77777777777777,326.2070314482281 422.72727272727275,326.670181588686 417.67676767676767,328.8510255178097 412.62626262626264,329.06852025197844 407.57575757575756,326.1513176311777 402.52525252525254,327.7883532510924 397.47474747474746,326.4502567457556 392.4242424242424,330.18615586098156 387.37373737373736,327.21731342899545 382.32323232323233,317.56560042865215 377.27272727272725,333.7843607253446 372.22222222222223,335.6342095463726 367.1717171717172,340.54570951194603 362.1212121212121,336.9775593750618 357.07070707070704,331.4190786885894 352.020202020202,339.3576007488547 346.969696969697,341.10177557564396 341.9191919191919,346.3747899564081 336.86868686868684,347.77739155460966 331.8181818181818,348.79778707625275 326.7676767676768,348.8976716937358 321.7171717171717,351.710951428082 316.66666666666663,351.4200888514472 311.6161616161616,353.4285380060672 306.5656565656566,354.24537618202754 301.5151515151515,355.6656318056447 296.4646464646464,355.6553395803012 291.4141414141414,359.8474558786356 286.3636363636364,353.86266978895935 281.3131313131313,357.3080636964861 276.26262626262627,359.8840861945283 271.2121212121212,361.22818649798216 266.16161616161617,363.71922666315334 261.1111111111111,362.38645495495604 256.06060606060606,362.9291554204648 251.010101010101,364.90376173688924 245.95959595959596,367.1827749126054 240.9090909090909,366.47754305521374 235.85858585858585,369.0921256614006 230.8080808080808,370.29749534407836 225.75757575757575,371.3266464046422 220.7070707070707,373.77730388009746 215.65656565656565,377.77912122025765 210.6060606060606,373.4300127485412 205.55555555555554,381.1166611830389 200.50505050505052,381.6281276035816 195.45454545454544,383.612990408456 190.40404040404042,384.32579848728113 185.35353535353534,386.2570559518248 180.3030303030303,386.3814203413922 175.25252525252526,387.6863887464046 170.2020202020202,390.2449001666054 165.15151515151516,393.1336919570309 160.1010101010101,395.3404451339812 155.05050505050505,397.7666943111392 150,399.9997141048516 "/><text class="poloto_text" alignment-baseline="middle" text-anchor="start" font-size="large" x="675" y="350">indirect_seq</text><line class="poloto5stroke" stroke="black" x1="680" x2="730" y1="331.25" y2="331.25"/><polyline class="poloto5stroke" fill="none" stroke="black" points="650,112.62973981397283 644.9494949494949,100 639.8989898989898,149.090376936076 634.8484848484848,157.67580824345308 629.7979797979798,158.0505810461523 624.7474747474747,152.4673704293407 619.6969696969697,159.2434070791927 614.6464646464647,166.15113418179072 609.5959595959596,171.39255714865334 604.5454545454545,166.33199860006675 599.4949494949494,177.53458556996654 594.4444444444445,173.92787532493773 589.3939393939394,179.59356669207165 584.3434343434344,185.13514382789305 579.2929292929293,187.3981111384035 574.2424242424242,190.83560719245483 569.1919191919192,187.16192600890614 564.1414141414141,193.4910370679737 559.090909090909,188.03104726013575 554.040404040404,197.29401433240028 548.989898989899,191.45610687523038 543.939393939394,201.63372400111214 538.8888888888889,206.93100373259944 533.8383838383838,208.40565090820553 528.7878787878788,211.92809355823434 523.7373737373737,202.6504386227192 518.6868686868687,214.2569597004581 513.6363636363636,216.85760491815896 508.5858585858586,218.35494502117172 503.5353535353535,223.85113630217975 498.4848484848485,218.68958529241 493.4343434343434,220.1961455139597 488.3838383838384,228.1504990180693 483.3333333333333,220.38465762745625 478.2828282828283,227.68713445625008 473.2323232323232,234.33737724079256 468.1818181818182,233.1897226412042 463.1313131313131,228.61139773423332 458.0808080808081,243.7752764070032 453.030303030303,243.20652374609367 447.979797979798,243.00425292857886 442.9292929292929,250.95589042877842 437.8787878787879,252.6751566407606 432.8282828282828,242.79504915371464 427.77777777777777,257.75104631668177 422.72727272727275,258.0314022466117 417.67676767676767,260.725570914743 412.62626262626264,269.4506620021285 407.57575757575756,267.24526682713326 402.52525252525254,271.51150144269843 397.47474747474746,275.1908647923222 392.4242424242424,273.9719508269875 387.37373737373736,277.50758039073764 382.32323232323233,233.03744773777126 377.27272727272725,287.4811041175334 372.22222222222223,289.04902458531507 367.1717171717172,287.1144078527774 362.1212121212121,289.056636543642 357.07070707070704,295.43024003518417 352.020202020202,295.57204402880586 346.969696969697,299.225105024774 341.9191919191919,304.89840835023494 336.86868686868684,300.8933746896549 331.8181818181818,301.1407812037282 326.7676767676768,309.78189059126214 321.7171717171717,314.9248226794904 316.66666666666663,316.0169778833896 311.6161616161616,316.6375490399522 306.5656565656566,320.2403639635836 301.5151515151515,317.2498292372103 296.4646464646464,324.32648463563737 291.4141414141414,328.3279803437556 286.3636363636364,329.2397714458885 281.3131313131313,337.04731779127894 276.26262626262627,338.9922267491601 271.2121212121212,342.96366772979957 266.16161616161617,339.5464344943932 261.1111111111111,343.93946360828744 256.06060606060606,350.36774454696695 251.010101010101,348.5014567549042 245.95959595959596,350.9069070600139 240.9090909090909,355.232822287814 235.85858585858585,358.3649465864477 230.8080808080808,360.5797763013411 225.75757575757575,363.07774942386175 220.7070707070707,362.71123184357344 215.65656565656565,369.2760277156287 210.6060606060606,369.6819273526133 205.55555555555554,374.3597080343446 200.50505050505052,376.15588004125465 195.45454545454544,378.701776338031 190.40404040404042,380.3056123838343 185.35353535353534,382.94449607763767 180.3030303030303,386.825272559331 175.25252525252526,387.8145412466887 170.2020202020202,390.42001094501927 165.15151515151516,393.02966185989567 160.1010101010101,395.50129689186707 155.05050505050505,397.97321781898694 150,400 "/><text class="poloto_text" alignment-baseline="start" text-anchor="middle" font-size="x-large" x="400" y="37.5">Bench of query:128_bytes with abspiral(num,0.6)</text><text class="poloto_text" alignment-baseline="start" text-anchor="middle" font-size="x-large" x="400" y="481.25">Number of Elements</text><text class="poloto_text" alignment-baseline="start" text-anchor="middle" font-size="x-large" transform="rotate(-90,37.5,250)" x="37.5" y="250">Time in Seconds</text><path stroke="black" fill="none" class="poloto_axis_lines" d=" M 150 100 L 150 400 L 650 400"/></svg>