<svg class="poloto" width="800" height="500" viewBox="0 0 800 500" xmlns="http://www.w3.org/2000/svg"><circle  r="1e5" class="poloto_background" /><text  class="poloto_text poloto_legend_text" x="675" y="100" >default_seq</text><line  class="poloto_scatter poloto_legend_icon poloto0stroke poloto0legend" stroke="black" x1="685" x2="685" y1="81.25" y2="81.25" /><path  class="poloto_scatter poloto0stroke" d=" M 650.00 266.54 h 0 M 644.95 267.98 h 0 M 639.90 268.54 h 0 M 634.85 270.60 h 0 M 629.80 272.02 h 0 M 624.75 273.91 h 0 M 619.70 273.83 h 0 M 614.65 274.75 h 0 M 609.60 276.08 h 0 M 604.55 277.34 h 0 M 599.49 281.55 h 0 M 594.44 277.12 h 0 M 589.39 285.41 h 0 M 584.34 283.93 h 0 M 579.29 286.61 h 0 M 574.24 288.01 h 0 M 569.19 290.09 h 0 M 564.14 289.05 h 0 M 559.09 294.99 h 0 M 554.04 295.23 h 0 M 548.99 296.19 h 0 M 543.94 295.74 h 0 M 538.89 298.62 h 0 M 533.84 299.75 h 0 M 528.79 301.40 h 0 M 523.74 302.00 h 0 M 518.69 302.92 h 0 M 513.64 301.03 h 0 M 508.59 305.33 h 0 M 503.54 306.67 h 0 M 498.48 307.41 h 0 M 493.43 307.08 h 0 M 488.38 312.56 h 0 M 483.33 312.40 h 0 M 478.28 314.17 h 0 M 473.23 318.09 h 0 M 468.18 314.85 h 0 M 463.13 319.01 h 0 M 458.08 318.54 h 0 M 453.03 320.86 h 0 M 447.98 323.42 h 0 M 442.93 324.83 h 0 M 437.88 325.04 h 0 M 432.83 324.46 h 0 M 427.78 326.94 h 0 M 422.73 329.77 h 0 M 417.68 329.82 h 0 M 412.63 332.36 h 0 M 407.58 333.26 h 0 M 402.53 334.73 h 0 M 397.47 336.73 h 0 M 392.42 338.31 h 0 M 387.37 338.13 h 0 M 382.32 340.04 h 0 M 377.27 341.63 h 0 M 372.22 342.84 h 0 M 367.17 345.89 h 0 M 362.12 345.06 h 0 M 357.07 345.63 h 0 M 352.02 350.15 h 0 M 346.97 351.21 h 0 M 341.92 350.60 h 0 M 336.87 351.41 h 0 M 331.82 352.63 h 0 M 326.77 353.30 h 0 M 321.72 354.67 h 0 M 316.67 357.51 h 0 M 311.62 355.26 h 0 M 306.57 360.03 h 0 M 301.52 362.36 h 0 M 296.46 363.02 h 0 M 291.41 364.71 h 0 M 286.36 369.85 h 0 M 281.31 371.01 h 0 M 276.26 371.24 h 0 M 271.21 372.56 h 0 M 266.16 374.84 h 0 M 261.11 376.84 h 0 M 256.06 377.14 h 0 M 251.01 378.45 h 0 M 245.96 378.74 h 0 M 240.91 379.74 h 0 M 235.86 379.89 h 0 M 230.81 382.58 h 0 M 225.76 384.39 h 0 M 220.71 385.02 h 0 M 215.66 385.65 h 0 M 210.61 387.59 h 0 M 205.56 388.34 h 0 M 200.51 389.47 h 0 M 195.45 390.41 h 0 M 190.40 391.82 h 0 M 185.35 392.60 h 0 M 180.30 394.80 h 0 M 175.25 395.89 h 0 M 170.20 396.60 h 0 M 165.15 397.44 h 0 M 160.10 398.40 h 0 M 155.05 399.38 h 0 M 150.00 399.99 h 0" /><text  class="poloto_text poloto_legend_text" x="675" y="150" >direct_seq</text><line  class="poloto_scatter poloto_legend_icon poloto1stroke poloto1legend" stroke="black" x1="685" x2="685" y1="131.25" y2="131.25" /><path  class="poloto_scatter poloto1stroke" d=" M 650.00 131.99 h 0 M 644.95 266.64 h 0 M 639.90 266.98 h 0 M 634.85 268.55 h 0 M 629.80 270.88 h 0 M 624.75 272.54 h 0 M 619.70 273.31 h 0 M 614.65 273.94 h 0 M 609.60 278.15 h 0 M 604.55 276.22 h 0 M 599.49 279.93 h 0 M 594.44 281.15 h 0 M 589.39 283.71 h 0 M 584.34 282.65 h 0 M 579.29 285.30 h 0 M 574.24 287.56 h 0 M 569.19 289.20 h 0 M 564.14 288.09 h 0 M 559.09 293.74 h 0 M 554.04 293.87 h 0 M 548.99 295.30 h 0 M 543.94 294.69 h 0 M 538.89 296.88 h 0 M 533.84 298.76 h 0 M 528.79 300.49 h 0 M 523.74 301.60 h 0 M 518.69 301.56 h 0 M 513.64 299.70 h 0 M 508.59 304.82 h 0 M 503.54 304.70 h 0 M 498.48 307.96 h 0 M 493.43 309.33 h 0 M 488.38 311.68 h 0 M 483.33 311.33 h 0 M 478.28 313.64 h 0 M 473.23 316.97 h 0 M 468.18 313.83 h 0 M 463.13 317.50 h 0 M 458.08 317.50 h 0 M 453.03 320.05 h 0 M 447.98 322.36 h 0 M 442.93 324.25 h 0 M 437.88 323.46 h 0 M 432.83 321.30 h 0 M 427.78 325.74 h 0 M 422.73 328.64 h 0 M 417.68 329.63 h 0 M 412.63 330.93 h 0 M 407.58 332.87 h 0 M 402.53 333.95 h 0 M 397.47 335.92 h 0 M 392.42 337.67 h 0 M 387.37 338.43 h 0 M 382.32 339.97 h 0 M 377.27 340.79 h 0 M 372.22 342.09 h 0 M 367.17 345.46 h 0 M 362.12 344.81 h 0 M 357.07 346.48 h 0 M 352.02 349.69 h 0 M 346.97 350.66 h 0 M 341.92 350.28 h 0 M 336.87 352.26 h 0 M 331.82 353.13 h 0 M 326.77 353.73 h 0 M 321.72 355.19 h 0 M 316.67 356.55 h 0 M 311.62 358.04 h 0 M 306.57 360.04 h 0 M 301.52 360.77 h 0 M 296.46 361.30 h 0 M 291.41 363.67 h 0 M 286.36 369.73 h 0 M 281.31 370.58 h 0 M 276.26 371.82 h 0 M 271.21 372.88 h 0 M 266.16 374.61 h 0 M 261.11 376.78 h 0 M 256.06 377.26 h 0 M 251.01 378.22 h 0 M 245.96 378.62 h 0 M 240.91 380.09 h 0 M 235.86 380.06 h 0 M 230.81 382.26 h 0 M 225.76 384.05 h 0 M 220.71 384.75 h 0 M 215.66 385.71 h 0 M 210.61 387.19 h 0 M 205.56 388.31 h 0 M 200.51 389.43 h 0 M 195.45 390.43 h 0 M 190.40 391.78 h 0 M 185.35 392.61 h 0 M 180.30 394.68 h 0 M 175.25 395.75 h 0 M 170.20 396.59 h 0 M 165.15 397.34 h 0 M 160.10 398.37 h 0 M 155.05 399.35 h 0 M 150.00 399.99 h 0" /><text  class="poloto_text poloto_legend_text" x="675" y="200" >indirect_seq</text><line  class="poloto_scatter poloto_legend_icon poloto2stroke poloto2legend" stroke="black" x1="685" x2="685" y1="181.25" y2="181.25" /><path  class="poloto_scatter poloto2stroke" d=" M 650.00 100.00 h 0 M 644.95 179.05 h 0 M 639.90 178.81 h 0 M 634.85 183.64 h 0 M 629.80 187.51 h 0 M 624.75 194.11 h 0 M 619.70 191.57 h 0 M 614.65 193.84 h 0 M 609.60 203.80 h 0 M 604.55 198.06 h 0 M 599.49 205.95 h 0 M 594.44 206.95 h 0 M 589.39 214.57 h 0 M 584.34 209.92 h 0 M 579.29 216.20 h 0 M 574.24 219.96 h 0 M 569.19 222.27 h 0 M 564.14 220.27 h 0 M 559.09 231.30 h 0 M 554.04 231.22 h 0 M 548.99 234.15 h 0 M 543.94 234.89 h 0 M 538.89 237.29 h 0 M 533.84 239.74 h 0 M 528.79 244.09 h 0 M 523.74 232.11 h 0 M 518.69 244.99 h 0 M 513.64 239.09 h 0 M 508.59 250.74 h 0 M 503.54 250.36 h 0 M 498.48 254.69 h 0 M 493.43 260.22 h 0 M 488.38 262.40 h 0 M 483.33 261.00 h 0 M 478.28 265.16 h 0 M 473.23 271.92 h 0 M 468.18 265.65 h 0 M 463.13 272.95 h 0 M 458.08 270.58 h 0 M 453.03 275.44 h 0 M 447.98 280.95 h 0 M 442.93 283.10 h 0 M 437.88 283.07 h 0 M 432.83 283.92 h 0 M 427.78 285.38 h 0 M 422.73 291.07 h 0 M 417.68 291.65 h 0 M 412.63 295.41 h 0 M 407.58 298.26 h 0 M 402.53 299.84 h 0 M 397.47 304.09 h 0 M 392.42 306.59 h 0 M 387.37 307.92 h 0 M 382.32 310.11 h 0 M 377.27 311.31 h 0 M 372.22 312.38 h 0 M 367.17 319.61 h 0 M 362.12 317.06 h 0 M 357.07 320.39 h 0 M 352.02 326.45 h 0 M 346.97 327.62 h 0 M 341.92 326.73 h 0 M 336.87 330.39 h 0 M 331.82 332.07 h 0 M 326.77 333.29 h 0 M 321.72 335.95 h 0 M 316.67 337.94 h 0 M 311.62 339.52 h 0 M 306.57 343.45 h 0 M 301.52 344.12 h 0 M 296.46 347.47 h 0 M 291.41 348.65 h 0 M 286.36 353.78 h 0 M 281.31 356.88 h 0 M 276.26 358.65 h 0 M 271.21 359.92 h 0 M 266.16 364.11 h 0 M 261.11 366.49 h 0 M 256.06 368.04 h 0 M 251.01 368.65 h 0 M 245.96 369.24 h 0 M 240.91 371.67 h 0 M 235.86 372.73 h 0 M 230.81 375.40 h 0 M 225.76 378.33 h 0 M 220.71 379.22 h 0 M 215.66 380.37 h 0 M 210.61 382.69 h 0 M 205.56 383.97 h 0 M 200.51 385.36 h 0 M 195.45 387.19 h 0 M 190.40 389.53 h 0 M 185.35 390.38 h 0 M 180.30 392.60 h 0 M 175.25 394.61 h 0 M 170.20 395.50 h 0 M 165.15 396.91 h 0 M 160.10 398.13 h 0 M 155.05 399.26 h 0 M 150.00 399.99 h 0" /><text  class="poloto_labels poloto_text poloto_title" x="400" y="37.5" >Bench of rebal:8_bytes with abspiral(num,1.5)</text><text  class="poloto_labels poloto_text poloto_xname" x="400" y="481.25" >Number of Elements</text><text  class="poloto_labels poloto_text poloto_yname" transform="rotate(-90,37.5,250)" x="37.5" y="250" >Time in Seconds</text><text  class="poloto_tick_labels poloto_text" dominant-baseline="middle" text-anchor="start" x="150" y="70" ></text><line  class="poloto_axis_lines" stroke="black" x1="150" x2="144" y1="400" y2="400" /><text  class="poloto_tick_labels poloto_text" dominant-baseline="middle" text-anchor="end" x="135" y="400" >0e0</text><line  class="poloto_axis_lines" stroke="black" x1="150" x2="144" y1="344.1456131312919" y2="344.1456131312919" /><text  class="poloto_tick_labels poloto_text" dominant-baseline="middle" text-anchor="end" x="135" y="344.1456131312919" >0.001</text><line  class="poloto_axis_lines" stroke="black" x1="150" x2="144" y1="288.2912262625838" y2="288.2912262625838" /><text  class="poloto_tick_labels poloto_text" dominant-baseline="middle" text-anchor="end" x="135" y="288.2912262625838" >0.002</text><line  class="poloto_axis_lines" stroke="black" x1="150" x2="144" y1="232.43683939387563" y2="232.43683939387563" /><text  class="poloto_tick_labels poloto_text" dominant-baseline="middle" text-anchor="end" x="135" y="232.43683939387563" >0.003</text><line  class="poloto_axis_lines" stroke="black" x1="150" x2="144" y1="176.58245252516753" y2="176.58245252516753" /><text  class="poloto_tick_labels poloto_text" dominant-baseline="middle" text-anchor="end" x="135" y="176.58245252516753" >0.004</text><line  class="poloto_axis_lines" stroke="black" x1="150" x2="144" y1="120.72806565645942" y2="120.72806565645942" /><text  class="poloto_tick_labels poloto_text" dominant-baseline="middle" text-anchor="end" x="135" y="120.72806565645942" >0.005</text><text  class="poloto_tick_labels poloto_text" dominant-baseline="middle" text-anchor="start" x="440.00000000000006" y="70" ></text><line  class="poloto_axis_lines" stroke="black" x1="150" x2="150" y1="400" y2="405" /><text  class="poloto_tick_labels poloto_text" dominant-baseline="start" text-anchor="middle" x="150" y="430" >0</text><line  class="poloto_axis_lines" stroke="black" x1="234.17508417508418" x2="234.17508417508418" y1="400" y2="405" /><text  class="poloto_tick_labels poloto_text" dominant-baseline="start" text-anchor="middle" x="234.17508417508418" y="430" >5000</text><line  class="poloto_axis_lines" stroke="black" x1="318.35016835016836" x2="318.35016835016836" y1="400" y2="405" /><text  class="poloto_tick_labels poloto_text" dominant-baseline="start" text-anchor="middle" x="318.35016835016836" y="430" >10000</text><line  class="poloto_axis_lines" stroke="black" x1="402.52525252525254" x2="402.52525252525254" y1="400" y2="405" /><text  class="poloto_tick_labels poloto_text" dominant-baseline="start" text-anchor="middle" x="402.52525252525254" y="430" >15000</text><line  class="poloto_axis_lines" stroke="black" x1="486.7003367003367" x2="486.7003367003367" y1="400" y2="405" /><text  class="poloto_tick_labels poloto_text" dominant-baseline="start" text-anchor="middle" x="486.7003367003367" y="430" >20000</text><line  class="poloto_axis_lines" stroke="black" x1="570.8754208754208" x2="570.8754208754208" y1="400" y2="405" /><text  class="poloto_tick_labels poloto_text" dominant-baseline="start" text-anchor="middle" x="570.8754208754208" y="430" >25000</text><path  stroke="black" fill="none" class="poloto_axis_lines" style="stroke-dasharray:8.417508417508419;stroke-dashoffset:-0;" d=" M 150 400 L 650 400" /><path  stroke="black" fill="none" class="poloto_axis_lines" style="stroke-dasharray:13.96359671717703;stroke-dashoffset:-0;" d=" M 150 400 L 150 100" /></svg>