<svg class="poloto" width="800" height="500" viewBox="0 0 800 500" xmlns="http://www.w3.org/2000/svg"><text  class="poloto_text poloto_legend_text" alignment-baseline="middle" text-anchor="start" font-size="large" x="675" y="100" >default_par</text><line  class="poloto_line poloto_legend_icon poloto0stroke poloto0legend" stroke="black" x1="680" x2="730" y1="81.25" y2="81.25" /><path  class="poloto_line poloto0stroke" fill="none" stroke="black" d=" M 650 303.46374921699254 L 644.9494949494949 313.15058563048353 L 639.8989898989898 298.7783577318032 L 634.8484848484848 306.5512145392927 L 629.7979797979798 305.7396677197919 L 624.7474747474747 308.71109846299953 L 619.6969696969697 311.69518246767797 L 614.6464646464647 293.7851860898479 L 609.5959595959596 301.1659308385706 L 604.5454545454545 308.1786881534187 L 599.4949494949494 317.9390108162211 L 594.4444444444445 330.1151330921489 L 589.3939393939394 315.1378429155525 L 584.3434343434344 318.43645084822043 L 579.2929292929293 312.6867949311869 L 574.2424242424242 321.3175011523506 L 569.1919191919192 325.7834072174111 L 564.1414141414141 316.5302578646625 L 559.090909090909 322.99092974357677 L 554.040404040404 324.3094413028873 L 548.989898989899 326.9406939780904 L 543.939393939394 331.49267003051847 L 538.8888888888889 328.9582634719576 L 533.8383838383838 334.79378080611474 L 528.7878787878788 332.0330755327869 L 523.7373737373737 329.65495761041535 L 518.6868686868687 331.1415072629953 L 513.6363636363636 332.14820630748864 L 508.5858585858586 333.09205618511584 L 503.5353535353535 331.61482267010234 L 498.4848484848485 337.26825818122575 L 493.4343434343434 336.4992596915061 L 488.3838383838384 341.00813122683564 L 483.3333333333333 341.402468034872 L 478.2828282828283 337.2642258231746 L 473.2323232323232 336.30869601188203 L 468.1818181818182 329.51716220252956 L 463.1313131313131 342.2143624714462 L 458.0808080808081 344.5944965728433 L 453.030303030303 345.5027504621569 L 447.979797979798 345.7950268974504 L 442.9292929292929 344.550071110866 L 437.8787878787879 344.3969805517517 L 432.8282828282828 348.8484952699745 L 427.77777777777777 352.5808597867995 L 422.72727272727275 352.03642192647993 L 417.67676767676767 350.68697244763905 L 412.62626262626264 350.36841616159836 L 407.57575757575756 351.5048458978752 L 402.52525252525254 356.68267172920724 L 397.47474747474746 352.33801449933986 L 392.4242424242424 352.09433493090415 L 387.37373737373736 352.9991821728987 L 382.32323232323233 357.7214210678658 L 377.27272727272725 356.88748770883967 L 372.22222222222223 354.1552175121139 L 367.1717171717172 352.1614250260655 L 362.1212121212121 345.9794029931684 L 357.07070707070704 362.761242921068 L 352.020202020202 360.9719187975786 L 346.969696969697 363.0825801436956 L 341.9191919191919 354.3682372546779 L 336.86868686868684 350.2290912385898 L 331.8181818181818 361.55042313108896 L 326.7676767676768 367.41041270721166 L 321.7171717171717 366.9172136035075 L 316.66666666666663 367.80871234988444 L 311.6161616161616 368.7150195835872 L 306.5656565656566 371.15584762599553 L 301.5151515151515 371.21925298017914 L 296.4646464646464 373.0094113846445 L 291.4141414141414 371.0671357488703 L 286.3636363636364 377.3403725018209 L 281.3131313131313 375.09344526294103 L 276.26262626262627 378.716101831409 L 271.2121212121212 378.5520960961907 L 266.16161616161617 379.17752873460665 L 261.1111111111111 380.3669353128658 L 256.06060606060606 374.90691394136815 L 251.010101010101 377.5278076277846 L 245.95959595959596 379.27861577954405 L 240.9090909090909 381.4463558491092 L 235.85858585858585 379.971625177024 L 230.8080808080808 382.4162770072395 L 225.75757575757575 383.1117892476477 L 220.7070707070707 383.8508926690572 L 215.65656565656565 383.46948721615036 L 210.6060606060606 384.7104106446837 L 205.55555555555554 385.12769017956276 L 200.50505050505052 388.5184861600897 L 195.45454545454544 388.9806778208488 L 190.40404040404042 388.238654416023 L 185.35353535353534 391.403360252027 L 180.3030303030303 392.8962365353423 L 175.25252525252526 394.4317306718534 L 170.2020202020202 395.3334493601876 L 165.15151515151516 396.974966704078 L 160.1010101010101 398.1392058062248 L 155.05050505050505 399.1180954848482 L 150 399.99485526731405" /><text  class="poloto_text poloto_legend_text" alignment-baseline="middle" text-anchor="start" font-size="large" x="675" y="150" >default_seq</text><line  class="poloto_line poloto_legend_icon poloto1stroke poloto1legend" stroke="black" x1="680" x2="730" y1="131.25" y2="131.25" /><path  class="poloto_line poloto1stroke" fill="none" stroke="black" d=" M 650 221.4220875424933 L 644.9494949494949 226.35039383855693 L 639.8989898989898 222.09423991557077 L 634.8484848484848 229.81592748985946 L 629.7979797979798 226.71448796120967 L 624.7474747474747 227.3398510762109 L 619.6969696969697 232.2964534020472 L 614.6464646464647 234.89614244698782 L 609.5959595959596 234.425121312565 L 604.5454545454545 236.2623470687654 L 599.4949494949494 241.1348955862597 L 594.4444444444445 234.51411128334894 L 589.3939393939394 244.5685179902264 L 584.3434343434344 241.29514705708544 L 579.2929292929293 249.84729181966648 L 574.2424242424242 250.77973985728698 L 569.1919191919192 251.77913894323947 L 564.1414141414141 247.8758858731434 L 559.090909090909 256.0025473379137 L 554.040404040404 257.1977243595909 L 548.989898989899 256.64424845536354 L 543.939393939394 261.2958515610208 L 538.8888888888889 263.1557419504053 L 533.8383838383838 262.52884932028115 L 528.7878787878788 264.1784313802739 L 523.7373737373737 264.9611955060992 L 518.6868686868687 268.60547385653103 L 513.6363636363636 265.30818686874187 L 508.5858585858586 270.82598219783443 L 503.5353535353535 274.3150147632971 L 498.4848484848485 271.70628767444873 L 493.4343434343434 279.1916651622572 L 488.3838383838384 278.8810345454895 L 483.3333333333333 279.0362803304587 L 478.2828282828283 284.4055041223909 L 473.2323232323232 287.20611583574214 L 468.1818181818182 284.9312401841629 L 463.1313131313131 289.6893531611022 L 458.0808080808081 286.5935450290411 L 453.030303030303 292.0490473785849 L 447.979797979798 295.4394262186238 L 442.9292929292929 295.2641576902282 L 437.8787878787879 298.3531525276512 L 432.8282828282828 299.2333884808508 L 427.77777777777777 301.70925632425536 L 422.72727272727275 309.51277295761645 L 417.67676767676767 310.52816242894414 L 412.62626262626264 312.436093497869 L 407.57575757575756 313.89010619238104 L 402.52525252525254 316.57475285005444 L 397.47474747474746 319.3351800297236 L 392.4242424242424 319.2565490477262 L 387.37373737373736 320.93400999700356 L 382.32323232323233 322.53103235550196 L 377.27272727272725 325.3483296883752 L 372.22222222222223 325.5662160699665 L 367.1717171717172 329.0113793607693 L 362.1212121212121 329.83550991832624 L 357.07070707070704 330.974094880458 L 352.020202020202 333.24959624276926 L 346.969696969697 336.65464452330457 L 341.9191919191919 336.69802713406176 L 336.86868686868684 336.34359676604885 L 331.8181818181818 339.2224918443241 L 326.7676767676768 341.74883368678263 L 321.7171717171717 343.15404094419284 L 316.66666666666663 343.82000573336427 L 311.6161616161616 346.6982055774928 L 306.5656565656566 348.75310914504047 L 301.5151515151515 349.99000021552257 L 296.4646464646464 351.7166837423898 L 291.4141414141414 354.195402045796 L 286.3636363636364 358.8545136802382 L 281.3131313131313 359.72480778513926 L 276.26262626262627 362.81255120109813 L 271.2121212121212 363.4948539927181 L 266.16161616161617 365.5477413812402 L 261.1111111111111 367.50176647409455 L 256.06060606060606 365.895149884371 L 251.010101010101 370.4896742665801 L 245.95959595959596 371.3003172816901 L 240.9090909090909 372.2697517759177 L 235.85858585858585 373.73711296604733 L 230.8080808080808 376.20011897773696 L 225.75757575757575 378.67869823431386 L 220.7070707070707 378.92578445006865 L 215.65656565656565 382.048498143609 L 210.6060606060606 383.76364078364014 L 205.55555555555554 384.70304116272814 L 200.50505050505052 385.99360430933933 L 195.45454545454544 387.22479445981816 L 190.40404040404042 389.3401138747183 L 185.35353535353534 390.6813595906276 L 180.3030303030303 392.50377685950224 L 175.25252525252526 393.5566394513398 L 170.2020202020202 395.15741607423064 L 165.15151515151516 396.73191284637437 L 160.1010101010101 397.91777373048507 L 155.05050505050505 398.7121482665611 L 150 399.9931171819472" /><text  class="poloto_text poloto_legend_text" alignment-baseline="middle" text-anchor="start" font-size="large" x="675" y="200" >direct_par</text><line  class="poloto_line poloto_legend_icon poloto2stroke poloto2legend" stroke="black" x1="680" x2="730" y1="181.25" y2="181.25" /><path  class="poloto_line poloto2stroke" fill="none" stroke="black" d=" M 650 294.9481042471159 L 644.9494949494949 303.8131043757342 L 639.8989898989898 307.7748266375719 L 634.8484848484848 302.17596700696834 L 629.7979797979798 299.3651353516599 L 624.7474747474747 297.10875292838415 L 619.6969696969697 309.08471729346275 L 614.6464646464647 304.79394070996847 L 609.5959595959596 294.11924609736104 L 604.5454545454545 302.8538898234638 L 599.4949494949494 309.78732092216785 L 594.4444444444445 314.0811565359078 L 589.3939393939394 325.74176269202076 L 584.3434343434344 313.55583761462384 L 579.2929292929293 308.0128748094189 L 574.2424242424242 308.474857899934 L 569.1919191919192 313.17304169342356 L 564.1414141414141 312.3938927851613 L 559.090909090909 308.5071862877579 L 554.040404040404 318.0178503684625 L 548.989898989899 319.2436872160113 L 543.939393939394 323.4130759174831 L 538.8888888888889 321.1955570830107 L 533.8383838383838 325.74760265885345 L 528.7878787878788 326.03522102536374 L 523.7373737373737 325.6632012334381 L 518.6868686868687 324.8038918280556 L 513.6363636363636 326.08833691417544 L 508.5858585858586 327.8577078176531 L 503.5353535353535 329.97330532621197 L 498.4848484848485 332.2631285119463 L 493.4343434343434 329.93117413691897 L 488.3838383838384 335.02028809112574 L 483.3333333333333 326.3395945348107 L 478.2828282828283 336.9969082937494 L 473.2323232323232 324.71156473336725 L 468.1818181818182 334.9279609964374 L 463.1313131313131 330.76399512131024 L 458.0808080808081 327.83747650398266 L 453.030303030303 340.401469910382 L 447.979797979798 329.97629483304297 L 442.9292929292929 344.0254474237288 L 437.8787878787879 340.60732874123454 L 432.8282828282828 341.07591655614374 L 427.77777777777777 342.83235610449185 L 422.72727272727275 345.62010598612824 L 417.67676767676767 347.6430287829254 L 412.62626262626264 347.50641527308915 L 407.57575757575756 349.0016553525034 L 402.52525252525254 353.2690720686669 L 397.47474747474746 347.7639300010452 L 392.4242424242424 349.30533362780363 L 387.37373737373736 353.15623556664946 L 382.32323232323233 353.404225586795 L 377.27272727272725 358.2442371462214 L 372.22222222222223 355.39454190210967 L 367.1717171717172 350.5810882870891 L 362.1212121212121 355.3288422752418 L 357.07070707070704 357.22975147928446 L 352.020202020202 356.5356297071697 L 346.969696969697 359.01316611252645 L 341.9191919191919 361.0522183415282 L 336.86868686868684 352.21071712707004 L 331.8181818181818 350.3974769489325 L 326.7676767676768 366.14230562354044 L 321.7171717171717 363.57612686447317 L 316.66666666666663 364.13238370528745 L 311.6161616161616 361.1643596093989 L 306.5656565656566 367.93288116849396 L 301.5151515151515 368.07561273882163 L 296.4646464646464 369.5313635187005 L 291.4141414141414 369.4327097932768 L 286.3636363636364 375.7703252282164 L 281.3131313131313 375.0911509902568 L 276.26262626262627 376.6508392750747 L 271.2121212121212 377.2460987515217 L 266.16161616161617 376.38268746467344 L 261.1111111111111 379.52285153529715 L 256.06060606060606 379.85329632524724 L 251.010101010101 373.0146256407452 L 245.95959595959596 372.1400210841342 L 240.9090909090909 376.41390347786245 L 235.85858585858585 378.75169781972255 L 230.8080808080808 379.6566841085464 L 225.75757575757575 381.3399155012418 L 220.7070707070707 382.0517657440987 L 215.65656565656565 381.29813192902213 L 210.6060606060606 382.3170670944983 L 205.55555555555554 383.8068843475679 L 200.50505050505052 385.1953364620415 L 195.45454545454544 388.07298011885257 L 190.40404040404042 384.4649234674664 L 185.35353535353534 389.75975720569636 L 180.3030303030303 392.4705446672876 L 175.25252525252526 394.0170235033173 L 170.2020202020202 394.97985327315075 L 165.15151515151516 396.8127685776413 L 160.1010101010101 397.97520007100655 L 155.05050505050505 399.05406441993256 L 150 399.99103147950694" /><text  class="poloto_text poloto_legend_text" alignment-baseline="middle" text-anchor="start" font-size="large" x="675" y="250" >direct_seq</text><line  class="poloto_line poloto_legend_icon poloto3stroke poloto3legend" stroke="black" x1="680" x2="730" y1="231.25" y2="231.25" /><path  class="poloto_line poloto3stroke" fill="none" stroke="black" d=" M 650 204.1989129782371 L 644.9494949494949 210.87427316166767 L 639.8989898989898 209.0783443137842 L 634.8484848484848 217.91393603799503 L 629.7979797979798 214.69222100195756 L 624.7474747474747 212.62605464123254 L 619.6969696969697 219.24809036560742 L 614.6464646464647 222.53348884948716 L 609.5959595959596 224.9632626689622 L 604.5454545454545 225.3348653203998 L 599.4949494949494 229.1073448474923 L 594.4444444444445 227.12891703608707 L 589.3939393939394 232.62397820858092 L 584.3434343434344 230.76610399822206 L 579.2929292929293 234.0714557021135 L 574.2424242424242 238.04854263859434 L 569.1919191919192 241.2742205092683 L 564.1414141414141 236.94221654087178 L 559.090909090909 245.20736864767457 L 554.040404040404 247.94547881123304 L 548.989898989899 246.88114485597416 L 543.939393939394 251.46829975622774 L 538.8888888888889 254.00055108893366 L 533.8383838383838 253.20110134358634 L 528.7878787878788 256.2490078429364 L 523.7373737373737 256.02131865987593 L 518.6868686868687 258.5750527277164 L 513.6363636363636 258.8730300830133 L 508.5858585858586 259.08890028557903 L 503.5353535353535 265.78553463390017 L 498.4848484848485 265.33606575802656 L 493.4343434343434 270.7079314397164 L 488.3838383838384 271.6392671027021 L 483.3333333333333 271.400801790367 L 478.2828282828283 277.31328154456924 L 473.2323232323232 278.4141848159472 L 468.1818181818182 276.595313241221 L 463.1313131313131 280.68454144557256 L 458.0808080808081 279.57724202004454 L 453.030303030303 285.337395972694 L 447.979797979798 287.51417408616686 L 442.9292929292929 288.2722573997826 L 437.8787878787879 291.88504164336666 L 432.8282828282828 292.58152721158035 L 427.77777777777777 294.6646572854861 L 422.72727272727275 303.4138314052559 L 417.67676767676767 306.6532749120355 L 412.62626262626264 307.56152880134914 L 407.57575757575756 309.52320146981765 L 402.52525252525254 308.8799013138303 L 397.47474747474746 312.69937866924306 L 392.4242424242424 312.8695024649527 L 387.37373737373736 316.53727972954465 L 382.32323232323233 317.0021132800614 L 377.27272727272725 320.5898690943625 L 372.22222222222223 320.5327208474997 L 367.1717171717172 324.67694207285916 L 362.1212121212121 324.10399961252284 L 357.07070707070704 327.26675879291594 L 352.020202020202 329.8051281861133 L 346.969696969697 333.2793522642502 L 341.9191919191919 331.7086097564989 L 336.86868686868684 332.44354177302785 L 331.8181818181818 337.26693723634696 L 326.7676767676768 337.2496259060929 L 321.7171717171717 339.84472640566497 L 316.66666666666663 341.89816998150445 L 311.6161616161616 344.7108787690091 L 306.5656565656566 346.3674131704693 L 301.5151515151515 346.31645250751257 L 296.4646464646464 350.0312276004248 L 291.4141414141414 350.87232187116246 L 286.3636363636364 356.6447814682094 L 281.3131313131313 358.928764687111 L 276.26262626262627 360.1721909585726 L 271.2121212121212 362.0897162587226 L 266.16161616161617 363.32994445310914 L 261.1111111111111 365.7291279701272 L 256.06060606060606 366.7110766789963 L 251.010101010101 368.5975945362012 L 245.95959595959596 369.1174906311405 L 240.9090909090909 371.25992417776393 L 235.85858585858585 371.9121928542444 L 230.8080808080808 375.0070276585001 L 225.75757575757575 377.1644782626933 L 220.7070707070707 377.82251738259174 L 215.65656565656565 380.75842166090047 L 210.6060606060606 383.2121810584384 L 205.55555555555554 383.93042745544534 L 200.50505050505052 385.2028449908264 L 195.45454545454544 386.7835293468762 L 190.40404040404042 388.4581398361519 L 185.35353535353534 389.9934254024189 L 180.3030303030303 392.0227443533662 L 175.25252525252526 393.47640943080484 L 170.2020202020202 394.4672571367523 L 165.15151515151516 396.5174331121021 L 160.1010101010101 397.83079993872667 L 155.05050505050505 398.9558973584115 L 150 399.98373152096605" /><text  class="poloto_text poloto_legend_text" alignment-baseline="middle" text-anchor="start" font-size="large" x="675" y="300" >indirect_par</text><line  class="poloto_line poloto_legend_icon poloto4stroke poloto4legend" stroke="black" x1="680" x2="730" y1="281.25" y2="281.25" /><path  class="poloto_line poloto4stroke" fill="none" stroke="black" d=" M 650 215.2375626666679 L 644.9494949494949 240.84018583145254 L 639.8989898989898 214.4505576125474 L 634.8484848484848 220.90538952462902 L 629.7979797979798 225.73420781429277 L 624.7474747474747 222.9797596482857 L 619.6969696969697 246.6613813421866 L 614.6464646464647 250.02840031489472 L 609.5959595959596 228.3802689768216 L 604.5454545454545 242.23705027910174 L 599.4949494949494 241.82901735837444 L 594.4444444444445 264.0241589231101 L 589.3939393939394 247.8509964906898 L 584.3434343434344 242.05496845606805 L 579.2929292929293 254.94905903534408 L 574.2424242424242 249.79410640744015 L 569.1919191919192 275.8593383734719 L 564.1414141414141 245.434849260491 L 559.090909090909 267.89904644001876 L 554.040404040404 286.24495462786086 L 548.989898989899 242.15466503271193 L 543.939393939394 278.4189124081451 L 538.8888888888889 272.04298957171954 L 533.8383838383838 281.66259684321983 L 528.7878787878788 281.00984150283665 L 523.7373737373737 275.03228783249864 L 518.6868686868687 274.3050033915839 L 513.6363636363636 282.5376880637335 L 508.5858585858586 290.1172002550119 L 503.5353535353535 289.1953892998366 L 498.4848484848485 293.6605306073357 L 493.4343434343434 290.20653784286924 L 488.3838383838384 297.41027597782943 L 483.3333333333333 301.2312133249504 L 478.2828282828283 295.3646190244335 L 473.2323232323232 281.8658833077294 L 468.1818181818182 294.5455636761479 L 463.1313131313131 307.2259392787131 L 458.0808080808081 271.66519933637585 L 453.030303030303 308.7917456240225 L 447.979797979798 317.68545892290155 L 442.9292929292929 307.923676268391 L 437.8787878787879 310.77177247396526 L 432.8282828282828 320.51089049529173 L 427.77777777777777 308.90562497726006 L 422.72727272727275 324.8831485207851 L 417.67676767676767 326.02604393462667 L 412.62626262626264 319.72173021531637 L 407.57575757575756 326.724962822354 L 402.52525252525254 325.52693534067515 L 397.47474747474746 326.53113154224025 L 392.4242424242424 328.1181425290255 L 387.37373737373736 331.06663054539035 L 382.32323232323233 336.54820417543726 L 377.27272727272725 336.54431086421545 L 372.22222222222223 338.4550923931419 L 367.1717171717172 315.30553339174844 L 362.1212121212121 336.551888916415 L 357.07070707070704 342.58944129361754 L 352.020202020202 340.2398974946774 L 346.969696969697 339.5592632650096 L 341.9191919191919 348.4071606336179 L 336.86868686868684 332.52502321502686 L 331.8181818181818 342.3120428690645 L 326.7676767676768 344.0353197486126 L 321.7171717171717 353.19426487447663 L 316.66666666666663 352.4628785520961 L 311.6161616161616 355.93390455315796 L 306.5656565656566 359.60460180116627 L 301.5151515151515 357.08062375480665 L 296.4646464646464 363.00033394413515 L 291.4141414141414 362.87971081967413 L 286.3636363636364 362.7301659547083 L 281.3131313131313 364.2946513551388 L 276.26262626262627 368.9074603954075 L 271.2121212121212 369.0837022516085 L 266.16161616161617 370.1468543088179 L 261.1111111111111 352.5219039311551 L 256.06060606060606 339.6805816236174 L 251.010101010101 370.2421709103373 L 245.95959595959596 374.0020666993736 L 240.9090909090909 371.54615207598073 L 235.85858585858585 374.76640712031 L 230.8080808080808 375.32544489771135 L 225.75757575757575 378.2815804896905 L 220.7070707070707 379.7164047217522 L 215.65656565656565 381.8683629761862 L 210.6060606060606 382.87972008946275 L 205.55555555555554 382.537664889262 L 200.50505050505052 385.98811195958 L 195.45454545454544 387.0289470006788 L 190.40404040404042 386.45517025936635 L 185.35353535353534 388.1245664925414 L 180.3030303030303 391.22670125533796 L 175.25252525252526 393.41620215369636 L 170.2020202020202 394.6035925529299 L 165.15151515151516 396.60252977166425 L 160.1010101010101 397.5472834536822 L 155.05050505050505 399.01554844820265 L 150 399.99381241609393" /><text  class="poloto_text poloto_legend_text" alignment-baseline="middle" text-anchor="start" font-size="large" x="675" y="350" >indirect_seq</text><line  class="poloto_line poloto_legend_icon poloto5stroke poloto5legend" stroke="black" x1="680" x2="730" y1="331.25" y2="331.25" /><path  class="poloto_line poloto5stroke" fill="none" stroke="black" d=" M 650 101.39165019154859 L 644.9494949494949 107.71251048355163 L 639.8989898989898 100 L 634.8484848484848 118.27659334341115 L 629.7979797979798 110.96307773667917 L 624.7474747474747 114.66756336421952 L 619.6969696969697 123.02184448863562 L 614.6464646464647 127.33097525360404 L 609.5959595959596 128.09934803259165 L 604.5454545454545 131.48861449799574 L 599.4949494949494 142.1055351530083 L 594.4444444444445 136.73380851814784 L 589.3939393939394 143.36634227813863 L 584.3434343434344 141.99207294025877 L 579.2929292929293 155.92616427965748 L 574.2424242424242 156.45454223118716 L 569.1919191919192 160.22354558754589 L 564.1414141414141 154.46686780563016 L 559.090909090909 167.4442474356868 L 554.040404040404 172.77502477930372 L 548.989898989899 170.8479747713433 L 543.939393939394 177.83535603983506 L 538.8888888888889 183.2869650781571 L 533.8383838383838 180.41029474915143 L 528.7878787878788 186.18052959692875 L 523.7373737373737 185.11619564166983 L 518.6868686868687 192.95489112285645 L 513.6363636363636 189.86255916152908 L 508.5858585858586 196.98252158180603 L 503.5353535353535 204.136480951859 L 498.4848484848485 195.01174134601504 L 493.4343434343434 211.29301268825495 L 488.3838383838384 214.36448762517983 L 483.3333333333333 213.12599751616014 L 478.2828282828283 220.63445677764074 L 473.2323232323232 225.4615369819376 L 468.1818181818182 219.49816608819324 L 463.1313131313131 229.78283434447417 L 458.0808080808081 224.0823314816158 L 453.030303030303 232.051591935562 L 447.979797979798 237.00569141847004 L 442.9292929292929 238.98015639523877 L 437.8787878787879 245.68687163868773 L 432.8282828282828 244.15721746900937 L 427.77777777777777 247.92914080878444 L 422.72727272727275 256.74304122761663 L 417.67676767676767 262.87222546536077 L 412.62626262626264 265.8283610573399 L 407.57575757575756 269.1672230471047 L 402.52525252525254 269.955549046104 L 397.47474747474746 275.0548134188533 L 392.4242424242424 272.6694650613556 L 387.37373737373736 279.8435862216643 L 382.32323232323233 282.67249396478826 L 377.27272727272725 285.9229221710865 L 372.22222222222223 286.2642821371405 L 367.1717171717172 260.4361250151503 L 362.1212121212121 292.9929667796268 L 357.07070707070704 295.6046138518915 L 352.020202020202 301.6547499671502 L 346.969696969697 305.8403376242412 L 341.9191919191919 305.64581110998074 L 336.86868686868684 306.94506468342627 L 331.8181818181818 313.06833943092306 L 326.7676767676768 314.2546869789365 L 321.7171717171717 318.5675720082974 L 316.66666666666663 318.98825819049557 L 311.6161616161616 322.8826817869279 L 306.5656565656566 324.63314232161395 L 301.5151515151515 329.34676031316127 L 296.4646464646464 332.0024852303299 L 291.4141414141414 334.55941737524546 L 286.3636363636364 340.02416633894103 L 281.3131313131313 341.50647506322576 L 276.26262626262627 344.8881634764303 L 271.2121212121212 346.7073131448152 L 266.16161616161617 349.2999803248737 L 261.1111111111111 353.6926087108667 L 256.06060606060606 354.6990296617014 L 251.010101010101 357.04683537527467 L 245.95959595959596 358.99905285934744 L 240.9090909090909 361.5484764754781 L 235.85858585858585 362.84884242355844 L 230.8080808080808 367.63045431465787 L 225.75757575757575 370.89367482925627 L 220.7070707070707 371.11837450548575 L 215.65656565656565 375.023296137534 L 210.6060606060606 377.52036862241437 L 205.55555555555554 379.7270418041975 L 200.50505050505052 380.6552489135228 L 195.45454545454544 382.6003750092988 L 190.40404040404042 385.5729181271412 L 185.35353535353534 387.6301159673731 L 180.3030303030303 390.47751693880065 L 175.25252525252526 392.1951624217601 L 170.2020202020202 394.2985238093362 L 165.15151515151516 396.203673941674 L 160.1010101010101 397.6929350074263 L 155.05050505050505 398.8840796710523 L 150 399.9933952756059" /><text  class="poloto_labels poloto_text poloto_title" alignment-baseline="start" text-anchor="middle" font-size="x-large" x="400" y="37.5" >Bench of rebal:16_bytes with abspiral(num,1.5)</text><text  class="poloto_labels poloto_text poloto_xname" alignment-baseline="start" text-anchor="middle" font-size="x-large" x="400" y="481.25" >Number of Elements</text><text  class="poloto_labels poloto_text poloto_yname" alignment-baseline="start" text-anchor="middle" font-size="x-large" transform="rotate(-90,37.5,250)" x="37.5" y="250" >Time in Seconds</text><line  class="poloto_axis_lines" stroke="black" x1="150" x2="150" y1="400" y2="405" /><text  class="poloto_tick_labels poloto_text" alignment-baseline="start" text-anchor="middle" x="150" y="430" > 0</text><line  class="poloto_axis_lines" stroke="black" x1="234.17508417508418" x2="234.17508417508418" y1="400" y2="405" /><text  class="poloto_tick_labels poloto_text" alignment-baseline="start" text-anchor="middle" x="234.17508417508418" y="430" > 5000</text><line  class="poloto_axis_lines" stroke="black" x1="318.35016835016836" x2="318.35016835016836" y1="400" y2="405" /><text  class="poloto_tick_labels poloto_text" alignment-baseline="start" text-anchor="middle" x="318.35016835016836" y="430" > 10000</text><line  class="poloto_axis_lines" stroke="black" x1="402.52525252525254" x2="402.52525252525254" y1="400" y2="405" /><text  class="poloto_tick_labels poloto_text" alignment-baseline="start" text-anchor="middle" x="402.52525252525254" y="430" > 15000</text><line  class="poloto_axis_lines" stroke="black" x1="486.7003367003367" x2="486.7003367003367" y1="400" y2="405" /><text  class="poloto_tick_labels poloto_text" alignment-baseline="start" text-anchor="middle" x="486.7003367003367" y="430" > 20000</text><line  class="poloto_axis_lines" stroke="black" x1="570.8754208754208" x2="570.8754208754208" y1="400" y2="405" /><text  class="poloto_tick_labels poloto_text" alignment-baseline="start" text-anchor="middle" x="570.8754208754208" y="430" > 25000</text><line  class="poloto_axis_lines" stroke="black" x1="150" x2="144" y1="400" y2="400" /><text  class="poloto_tick_labels poloto_text" alignment-baseline="middle" text-anchor="end" x="135" y="400" > 0e0</text><line  class="poloto_axis_lines" stroke="black" x1="150" x2="144" y1="330.47658532504397" y2="330.47658532504397" /><text  class="poloto_tick_labels poloto_text" alignment-baseline="middle" text-anchor="end" x="135" y="330.47658532504397" > 0.001</text><line  class="poloto_axis_lines" stroke="black" x1="150" x2="144" y1="260.95317065008794" y2="260.95317065008794" /><text  class="poloto_tick_labels poloto_text" alignment-baseline="middle" text-anchor="end" x="135" y="260.95317065008794" > 0.002</text><line  class="poloto_axis_lines" stroke="black" x1="150" x2="144" y1="191.4297559751319" y2="191.4297559751319" /><text  class="poloto_tick_labels poloto_text" alignment-baseline="middle" text-anchor="end" x="135" y="191.4297559751319" > 0.003</text><line  class="poloto_axis_lines" stroke="black" x1="150" x2="144" y1="121.90634130017594" y2="121.90634130017594" /><text  class="poloto_tick_labels poloto_text" alignment-baseline="middle" text-anchor="end" x="135" y="121.90634130017594" > 0.004</text><path  stroke="black" fill="none" class="poloto_axis_lines" style="stroke-dasharray:8.417508417508419;stroke-dashoffset:-0;" d=" M 150 400 L 650 400" /><path  stroke="black" fill="none" class="poloto_axis_lines" style="stroke-dasharray:8.690426834369502;stroke-dashoffset:-0;" d=" M 150 400 L 150 100" /></svg>