<svg class="poloto" height="500" viewBox="0 0 800 500" width="800" xmlns="http://www.w3.org/2000/svg">
<rect class="poloto_background" fill="white" height="500" width="800" x="0" y="0"/>
<style>
.poloto {
font-family: "Arial";
stroke-width:2;
}
.poloto_text{fill: var(--poloto_fg_color,black);  }
.poloto_axis_lines{stroke: var(--poloto_fg_color,black);stoke-width:3;fill:none}
.poloto_background{fill: var(--poloto_bg_color,aliceblue); }
.poloto0stroke{stroke:  var(--poloto_color0,blue); }
.poloto1stroke{stroke:  var(--poloto_color1,red); }
.poloto2stroke{stroke:  var(--poloto_color2,green); }
.poloto3stroke{stroke:  var(--poloto_color3,gold); }
.poloto4stroke{stroke:  var(--poloto_color4,aqua); }
.poloto5stroke{stroke:  var(--poloto_color5,brown); }
.poloto6stroke{stroke:  var(--poloto_color6,lime); }
.poloto7stroke{stroke:  var(--poloto_color7,chocolate); }
.poloto0fill{fill:var(--poloto_color0,blue);}
.poloto1fill{fill:var(--poloto_color1,red);}
.poloto2fill{fill:var(--poloto_color2,green);}
.poloto3fill{fill:var(--poloto_color3,gold);}
.poloto4fill{fill:var(--poloto_color4,aqua);}
.poloto5fill{fill:var(--poloto_color5,brown);}
.poloto6fill{fill:var(--poloto_color6,lime);}
.poloto7fill{fill:var(--poloto_color7,chocolate);}
</style>
<line class="poloto_axis_lines" stroke="black" x1="150" x2="150" y1="400" y2="405"/>
<text alignment-baseline="start" class="poloto_text" text-anchor="middle" x="150" y="440">
0
</text>
<line class="poloto_axis_lines" stroke="black" x1="234.17508" x2="234.17508" y1="400" y2="405"/>
<text alignment-baseline="start" class="poloto_text" text-anchor="middle" x="234.17508" y="440">
5000
</text>
<line class="poloto_axis_lines" stroke="black" x1="318.35016" x2="318.35016" y1="400" y2="405"/>
<text alignment-baseline="start" class="poloto_text" text-anchor="middle" x="318.35016" y="440">
10000
</text>
<line class="poloto_axis_lines" stroke="black" x1="402.52527" x2="402.52527" y1="400" y2="405"/>
<text alignment-baseline="start" class="poloto_text" text-anchor="middle" x="402.52527" y="440">
15000
</text>
<line class="poloto_axis_lines" stroke="black" x1="486.70035" x2="486.70035" y1="400" y2="405"/>
<text alignment-baseline="start" class="poloto_text" text-anchor="middle" x="486.70035" y="440">
20000
</text>
<line class="poloto_axis_lines" stroke="black" x1="570.8754" x2="570.8754" y1="400" y2="405"/>
<text alignment-baseline="start" class="poloto_text" text-anchor="middle" x="570.8754" y="440">
25000
</text>
<line class="poloto_axis_lines" stroke="black" x1="150" x2="144" y1="345.7639" y2="345.7639"/>
<text alignment-baseline="middle" class="poloto_text" text-anchor="end" x="120" y="345.7639">
0.002
</text>
<line class="poloto_axis_lines" stroke="black" x1="150" x2="144" y1="291.5242" y2="291.5242"/>
<text alignment-baseline="middle" class="poloto_text" text-anchor="end" x="120" y="291.5242">
0.004
</text>
<line class="poloto_axis_lines" stroke="black" x1="150" x2="144" y1="237.28452" y2="237.28452"/>
<text alignment-baseline="middle" class="poloto_text" text-anchor="end" x="120" y="237.28452">
0.006
</text>
<line class="poloto_axis_lines" stroke="black" x1="150" x2="144" y1="183.04486" y2="183.04486"/>
<text alignment-baseline="middle" class="poloto_text" text-anchor="end" x="120" y="183.04486">
0.008
</text>
<line class="poloto_axis_lines" stroke="black" x1="150" x2="144" y1="128.80515" y2="128.80515"/>
<text alignment-baseline="middle" class="poloto_text" text-anchor="end" x="120" y="128.80515">
0.010
</text>
<text alignment-baseline="middle" class="poloto_text" font-size="large" text-anchor="start" x="675" y="100">
default_par
</text>
<line class="poloto0stroke" x1="680" x2="730" y1="81.25" y2="81.25"/>
<polyline class="poloto0stroke" fill="none" points="650,312.58084 644.94946,312.6455 639.899,279.18762 634.8485,316.43005 629.798,317.52975 624.7475,314.48563 619.697,313.19556 614.6465,319.72073 609.59595,320.77423 604.5455,318.31616 599.495,319.72656 594.44446,318.23383 589.3939,321.7526 584.34344,324.8552 579.29297,323.05368 574.24243,325.2198 569.1919,325.41696 564.1414,327.45923 559.09094,328.76563 554.0404,328.67438 548.98987,260.04834 543.9394,326.52185 538.8889,327.228 533.8384,329.27283 528.78784,333.11606 523.73737,330.93253 518.6869,331.48816 513.63635,334.23438 508.58588,333.68146 503.53537,335.05585 498.48486,336.26678 493.43436,334.90866 488.38385,333.4296 483.33334,335.1222 478.28284,335.90796 473.23233,335.84195 468.18182,336.74252 463.13132,335.92712 458.0808,339.4867 453.0303,338.32217 447.9798,343.05917 442.9293,340.01376 437.87878,327.19534 432.82828,342.37054 427.77777,326.15604 422.72726,342.66718 417.67676,341.10318 412.62628,345.89905 407.57578,344.85205 402.52527,346.8968 397.47473,348.56006 392.42426,351.89508 387.37375,348.7906 382.32324,350.18408 377.27274,349.48535 372.22223,351.92114 367.17172,351.026 362.12122,351.1548 357.0707,351.9825 352.0202,355.95358 346.9697,355.54858 341.9192,355.57797 336.86868,360.64313 331.81818,361.77954 326.7677,361.71982 321.71716,361.24625 316.6667,359.748 311.61615,360.62732 306.56567,360.88052 301.51514,362.48828 296.46466,367.5007 291.41412,364.02594 286.36365,371.7995 281.31314,372.39102 276.26263,371.8405 271.21213,369.90454 266.16162,372.26965 261.1111,373.94318 256.0606,373.14365 251.0101,376.59494 245.9596,373.12488 240.90909,375.86932 235.85858,378.81976 230.80807,379.35263 225.75757,382.71204 220.70706,382.3533 215.65657,375.3688 210.60606,376.23773 205.55556,376.7079 200.50505,378.1958 195.45454,381.05533 190.40404,382.52206 185.35353,384.2992 180.30302,384.99814 175.25253,387.38315 170.20203,390.04495 165.15152,392.73474 160.10101,394.97156 155.0505,397.81775 150,399.99973 " stroke="black"/>
<text alignment-baseline="middle" class="poloto_text" font-size="large" text-anchor="start" x="675" y="150">
default_seq
</text>
<line class="poloto1stroke" x1="680" x2="730" y1="131.25" y2="131.25"/>
<polyline class="poloto1stroke" fill="none" points="650,116.322205 644.94946,124.14935 639.899,118.5759 634.8485,127.48575 629.798,132.36423 624.7475,134.06168 619.697,137.90405 614.6465,140.85364 609.59595,144.87828 604.5455,147.4094 599.495,150.63141 594.44446,152.37439 589.3939,155.80768 584.34344,157.99014 579.29297,162.28865 574.24243,165.371 569.1919,167.60596 564.1414,170.45331 559.09094,174.0135 554.0404,175.70625 548.98987,174.7742 543.9394,180.30435 538.8889,182.91565 533.8384,185.0701 528.78784,188.76727 523.73737,192.04692 518.6869,194.98392 513.63635,197.72247 508.58588,200.3096 503.53537,202.79646 498.48486,205.0486 493.43436,206.90901 488.38385,209.21396 483.33334,211.91885 478.28284,214.41882 473.23233,218.41687 468.18182,220.627 463.13132,224.05347 458.0808,226.19876 453.0303,227.87419 447.9798,231.30597 442.9293,233.93674 437.87878,237.0271 432.82828,239.05151 427.77777,239.92041 422.72726,249.8166 417.67676,252.33606 412.62628,255.29375 407.57578,258.87897 402.52527,260.89526 397.47473,263.82767 392.42426,266.9579 387.37375,269.74673 382.32324,272.6126 377.27274,275.3374 372.22223,278.57132 367.17172,281.79938 362.12122,283.15842 357.0707,285.65158 352.0202,288.13953 346.9697,290.98608 341.9192,293.69757 336.86868,296.21997 331.81818,298.6281 326.7677,301.24622 321.71716,303.65466 316.6667,306.99933 311.61615,310.1331 306.56567,312.83044 301.51514,316.0545 296.46466,318.53635 291.41412,321.313 286.36365,326.1979 281.31314,327.6322 276.26263,332.01035 271.21213,334.4863 266.16162,336.60825 261.1111,340.26453 256.0606,342.8562 251.0101,345.82312 245.9596,348.65018 240.90909,351.35916 235.85858,353.40552 230.80807,356.7073 225.75757,359.69254 220.70706,361.5496 215.65657,365.67303 210.60606,367.8709 205.55556,370.85242 200.50505,373.56998 195.45454,376.11395 190.40404,378.92828 185.35353,381.5154 180.30302,384.58923 175.25253,387.15826 170.20203,389.80322 165.15152,392.66965 160.10101,394.8667 155.0505,397.77136 150,399.9995 " stroke="black"/>
<text alignment-baseline="middle" class="poloto_text" font-size="large" text-anchor="start" x="675" y="200">
direct_par
</text>
<line class="poloto2stroke" x1="680" x2="730" y1="181.25" y2="181.25"/>
<polyline class="poloto2stroke" fill="none" points="650,311.1556 644.94946,314.65942 639.899,314.42126 634.8485,282.00705 629.798,318.0206 624.7475,306.9215 619.697,320.72647 614.6465,293.3678 609.59595,321.3449 604.5455,314.76495 599.495,319.07974 594.44446,319.6032 589.3939,321.14743 584.34344,322.5691 579.29297,325.9171 574.24243,325.96176 569.1919,326.0494 564.1414,327.99588 559.09094,329.64423 554.0404,328.8563 548.98987,329.24933 543.9394,309.93182 538.8889,328.5645 533.8384,331.7919 528.78784,332.44003 523.73737,333.45874 518.6869,331.05777 513.63635,330.29562 508.58588,331.87524 503.53537,333.83362 498.48486,337.19513 493.43436,334.50247 488.38385,337.1761 483.33334,334.10992 478.28284,333.85623 473.23233,338.3882 468.18182,340.03015 463.13132,339.68964 458.0808,339.2105 453.0303,342.11606 447.9798,342.53757 442.9293,339.8258 437.87878,343.0606 432.82828,342.1529 427.77777,342.20883 422.72726,324.49326 417.67676,344.44293 412.62628,343.9373 407.57578,347.67172 402.52527,348.11414 397.47473,351.69308 392.42426,347.98068 387.37375,353.14877 382.32324,350.60245 377.27274,350.72122 372.22223,352.89737 367.17172,354.98724 362.12122,353.09293 357.0707,356.36606 352.0202,352.9478 346.9697,358.7678 341.9192,359.31375 336.86868,360.35434 331.81818,362.53012 326.7677,361.4405 321.71716,359.67383 316.6667,359.87952 311.61615,361.6582 306.56567,361.85388 301.51514,362.9051 296.46466,365.63086 291.41412,366.98468 286.36365,369.465 281.31314,370.53906 276.26263,370.53217 271.21213,373.23114 266.16162,371.39304 261.1111,371.9712 256.0606,374.54834 251.0101,375.70944 245.9596,375.26508 240.90909,379.08472 235.85858,375.53406 230.80807,379.75558 225.75757,380.11725 220.70706,381.8345 215.65657,374.6409 210.60606,375.40274 205.55556,378.17578 200.50505,378.51422 195.45454,380.12973 190.40404,381.72333 185.35353,384.59637 180.30302,385.0663 175.25253,387.58975 170.20203,390.17703 165.15152,392.92303 160.10101,395.08014 155.0505,397.9031 150,399.99936 " stroke="black"/>
<text alignment-baseline="middle" class="poloto_text" font-size="large" text-anchor="start" x="675" y="250">
direct_seq
</text>
<line class="poloto3stroke" x1="680" x2="730" y1="231.25" y2="231.25"/>
<polyline class="poloto3stroke" fill="none" points="650,128.50601 644.94946,131.94864 639.899,133.3439 634.8485,135.749 629.798,139.73883 624.7475,142.34091 619.697,146.01985 614.6465,147.52881 609.59595,151.50143 604.5455,154.4232 599.495,157.69086 594.44446,158.55019 589.3939,162.07718 584.34344,165.3316 579.29297,168.76059 574.24243,171.20432 569.1919,173.79207 564.1414,176.77747 559.09094,179.96103 554.0404,182.30003 548.98987,184.4602 543.9394,186.44841 538.8889,187.35872 533.8384,191.8781 528.78784,195.36034 523.73737,198.20988 518.6869,199.33334 513.63635,203.38457 508.58588,205.50937 503.53537,208.36632 498.48486,210.55884 493.43436,212.1473 488.38385,214.23732 483.33334,216.77373 478.28284,219.55965 473.23233,222.84125 468.18182,225.05643 463.13132,228.27412 458.0808,230.15334 453.0303,232.39848 447.9798,235.31622 442.9293,237.88878 437.87878,241.45322 432.82828,241.9871 427.77777,243.51584 422.72726,252.40506 417.67676,254.43022 412.62628,257.96075 407.57578,261.59918 402.52527,263.61942 397.47473,266.29413 392.42426,269.37183 387.37375,272.13928 382.32324,274.98627 377.27274,277.44308 372.22223,280.95654 367.17172,283.34613 362.12122,285.2275 357.0707,287.52512 352.0202,289.9246 346.9697,292.75946 341.9192,295.32068 336.86868,297.59338 331.81818,300.2488 326.7677,303.0383 321.71716,305.25925 316.6667,308.43845 311.61615,311.2282 306.56567,314.42413 301.51514,317.67975 296.46466,319.94543 291.41412,322.8226 286.36365,327.86862 281.31314,331.08395 276.26263,333.6819 271.21213,336.48593 266.16162,339.07385 261.1111,341.77243 256.0606,344.40527 251.0101,346.9795 245.9596,348.9612 240.90909,352.50388 235.85858,354.96606 230.80807,357.5659 225.75757,360.69415 220.70706,362.13306 215.65657,366.60602 210.60606,368.7233 205.55556,371.50623 200.50505,373.92877 195.45454,376.68927 190.40404,379.13922 185.35353,381.85797 180.30302,384.9738 175.25253,387.50082 170.20203,390.0309 165.15152,392.81284 160.10101,394.84833 155.0505,397.8564 150,399.99954 " stroke="black"/>
<text alignment-baseline="middle" class="poloto_text" font-size="large" text-anchor="start" x="675" y="300">
indirect_par
</text>
<line class="poloto4stroke" x1="680" x2="730" y1="281.25" y2="281.25"/>
<polyline class="poloto4stroke" fill="none" points="650,300.64865 644.94946,302.14496 639.899,278.6286 634.8485,306.60028 629.798,307.8041 624.7475,307.16214 619.697,306.94867 614.6465,310.18344 609.59595,309.7303 604.5455,312.34198 599.495,313.67795 594.44446,309.83353 589.3939,311.19467 584.34344,315.1167 579.29297,316.61148 574.24243,316.95514 569.1919,316.0244 564.1414,319.22253 559.09094,315.74908 554.0404,319.85922 548.98987,322.48328 543.9394,321.02448 538.8889,322.4201 533.8384,321.18445 528.78784,323.8698 523.73737,324.11853 518.6869,324.48547 513.63635,324.54425 508.58588,325.32602 503.53537,326.6991 498.48486,328.41556 493.43436,330.85617 488.38385,327.2021 483.33334,328.21353 478.28284,329.81046 473.23233,331.31616 468.18182,329.02838 463.13132,322.25397 458.0808,332.38004 453.0303,332.47256 447.9798,333.9349 442.9293,336.6141 437.87878,335.18555 432.82828,336.4685 427.77777,321.40186 422.72726,338.2634 417.67676,339.4721 412.62628,341.3992 407.57578,339.9968 402.52527,343.09567 397.47473,344.56558 392.42426,343.36865 387.37375,345.74234 382.32324,343.6359 377.27274,348.70035 372.22223,349.23175 367.17172,352.3459 362.12122,350.2645 357.0707,350.81445 352.0202,352.4708 346.9697,355.65652 341.9192,356.57166 336.86868,356.2324 331.81818,356.44888 326.7677,359.05115 321.71716,358.1634 316.6667,357.5982 311.61615,358.9905 306.56567,359.36578 301.51514,358.75107 296.46466,361.6606 291.41412,361.04486 286.36365,366.8155 281.31314,368.04767 276.26263,367.14444 271.21213,367.77966 266.16162,368.18127 261.1111,371.44986 256.0606,372.41406 251.0101,375.3251 245.9596,374.50964 240.90909,372.75995 235.85858,377.20154 230.80807,373.49414 225.75757,378.97397 220.70706,378.95795 215.65657,373.67282 210.60606,373.60614 205.55556,376.2704 200.50505,378.10767 195.45454,378.43185 190.40404,380.07803 185.35353,383.12836 180.30302,383.92462 175.25253,386.3877 170.20203,389.30087 165.15152,392.3294 160.10101,394.69366 155.0505,397.6861 150,400 " stroke="black"/>
<text alignment-baseline="middle" class="poloto_text" font-size="large" text-anchor="start" x="675" y="350">
indirect_seq
</text>
<line class="poloto5stroke" x1="680" x2="730" y1="331.25" y2="331.25"/>
<polyline class="poloto5stroke" fill="none" points="650,101.67529 644.94946,104.60443 639.899,100 634.8485,111.14603 629.798,115.353516 624.7475,117.30032 619.697,122.21222 614.6465,124.826355 609.59595,127.318146 604.5455,131.21301 599.495,135.00336 594.44446,136.33289 589.3939,140.29593 584.34344,143.84631 579.29297,148.04105 574.24243,149.89355 569.1919,153.2975 564.1414,155.88943 559.09094,159.9589 554.0404,161.67581 548.98987,164.54652 543.9394,167.9109 538.8889,170.10991 533.8384,172.96121 528.78784,176.84326 523.73737,179.5784 518.6869,181.75604 513.63635,186.01437 508.58588,188.33583 503.53537,191.2456 498.48486,193.74472 493.43436,196.07237 488.38385,198.50508 483.33334,201.41603 478.28284,203.91913 473.23233,207.61769 468.18182,210.49202 463.13132,214.29523 458.0808,215.99062 453.0303,218.083 447.9798,221.80428 442.9293,223.83487 437.87878,228.13017 432.82828,229.74773 427.77777,230.3508 422.72726,240.83665 417.67676,243.50278 412.62628,246.45491 407.57578,250.8947 402.52527,252.79173 397.47473,255.93758 392.42426,259.14337 387.37375,262.29248 382.32324,265.10458 377.27274,267.92416 372.22223,271.56097 367.17172,275.02698 362.12122,276.88342 357.0707,279.37292 352.0202,282.03717 346.9697,284.90112 341.9192,288.189 336.86868,290.54492 331.81818,293.26776 326.7677,296.24774 321.71716,298.82333 316.6667,302.0637 311.61615,305.11948 306.56567,308.38184 301.51514,311.91928 296.46466,314.02805 291.41412,317.49728 286.36365,321.21008 281.31314,324.54886 276.26263,327.42993 271.21213,330.38153 266.16162,333.5937 261.1111,337.04053 256.0606,339.71408 251.0101,342.79578 245.9596,345.7903 240.90909,348.75616 235.85858,351.07666 230.80807,354.52142 225.75757,357.85852 220.70706,359.84085 215.65657,363.8154 210.60606,366.56946 205.55556,369.50052 200.50505,372.3736 195.45454,375.12793 190.40404,377.87958 185.35353,380.7394 180.30302,383.4714 175.25253,386.56067 170.20203,389.2374 165.15152,392.30856 160.10101,394.70465 155.0505,397.68808 150,399.9999 " stroke="black"/>
<text alignment-baseline="start" class="poloto_text" font-size="x-large" text-anchor="middle" x="400" y="37.5">
Bench of query:32_bytes with abspiral(num,0.1)
</text>
<text alignment-baseline="start" class="poloto_text" font-size="large" text-anchor="middle" x="400" y="481.25">
Number of Elements
</text>
<text alignment-baseline="start" class="poloto_text" font-size="large" text-anchor="middle" transform="rotate(-90,37.5,250)" x="37.5" y="250">
Time in Seconds
</text>
<path class="poloto_axis_lines" d="M150,100 L150,400 L650,400" stroke="black"/>
</svg>