<svg class="poloto" width="800" height="500" viewBox="0 0 800 500" xmlns="http://www.w3.org/2000/svg"><circle  r="1e5" class="poloto_background" /><text  class="poloto_text poloto_legend_text" x="675" y="100" >default_par</text><line  class="poloto_line poloto_legend_icon poloto0stroke poloto0legend" stroke="black" x1="680" x2="730" y1="81.25" y2="81.25" /><path  class="poloto_line poloto0stroke" fill="none" stroke="black" d=" M 650.00 352.72 L 644.95 350.61 L 639.90 355.40 L 634.85 355.24 L 629.80 355.69 L 624.75 355.38 L 619.70 355.85 L 614.65 354.45 L 609.60 356.93 L 604.55 358.37 L 599.49 358.47 L 594.44 358.81 L 589.39 358.03 L 584.34 358.59 L 579.29 361.89 L 574.24 359.87 L 569.19 360.22 L 564.14 362.50 L 559.09 360.57 L 554.04 360.19 L 548.99 362.79 L 543.94 352.34 L 538.89 362.81 L 533.84 364.08 L 528.79 363.67 L 523.74 363.59 L 518.69 364.07 L 513.64 364.48 L 508.59 365.20 L 503.54 365.77 L 498.48 367.87 L 493.43 365.44 L 488.38 366.72 L 483.33 369.03 L 478.28 365.85 L 473.23 369.35 L 468.18 368.77 L 463.13 369.77 L 458.08 358.37 L 453.03 370.65 L 447.98 369.64 L 442.93 372.40 L 437.88 372.58 L 432.83 370.01 L 427.78 371.09 L 422.73 371.52 L 417.68 372.64 L 412.63 372.89 L 407.58 373.91 L 402.53 373.30 L 397.47 373.39 L 392.42 348.07 L 387.37 375.52 L 382.32 376.10 L 377.27 376.61 L 372.22 377.01 L 367.17 376.92 L 362.12 378.30 L 357.07 377.95 L 352.02 378.25 L 346.97 378.71 L 341.92 379.63 L 336.87 379.45 L 331.82 380.34 L 326.77 380.76 L 321.72 379.82 L 316.67 381.80 L 311.62 380.61 L 306.57 381.41 L 301.52 382.74 L 296.46 381.85 L 291.41 383.05 L 286.36 384.80 L 281.31 384.96 L 276.26 384.77 L 271.21 385.60 L 266.16 385.83 L 261.11 386.72 L 256.06 387.19 L 251.01 388.15 L 245.96 387.25 L 240.91 388.79 L 235.86 389.50 L 230.81 389.91 L 225.76 390.51 L 220.71 390.15 L 215.66 388.75 L 210.61 389.12 L 205.56 389.89 L 200.51 390.84 L 195.45 391.79 L 190.40 391.13 L 185.35 391.57 L 180.30 391.77 L 175.25 393.16 L 170.20 394.73 L 165.15 395.93 L 160.10 397.50 L 155.05 398.85 L 150.00 400.00" /><text  class="poloto_text poloto_legend_text" x="675" y="150" >default_seq</text><line  class="poloto_line poloto_legend_icon poloto1stroke poloto1legend" stroke="black" x1="680" x2="730" y1="131.25" y2="131.25" /><path  class="poloto_line poloto1stroke" fill="none" stroke="black" d=" M 650.00 278.19 L 644.95 263.68 L 639.90 275.74 L 634.85 272.68 L 629.80 271.76 L 624.75 273.22 L 619.70 274.38 L 614.65 283.65 L 609.60 276.94 L 604.55 279.79 L 599.49 278.97 L 594.44 282.01 L 589.39 285.16 L 584.34 284.49 L 579.29 286.07 L 574.24 287.92 L 569.19 300.36 L 564.14 300.80 L 559.09 291.56 L 554.04 297.10 L 548.99 298.55 L 543.94 298.16 L 538.89 299.04 L 533.84 309.35 L 528.79 310.04 L 523.74 303.53 L 518.69 311.72 L 513.64 309.46 L 508.59 310.28 L 503.54 311.54 L 498.48 309.96 L 493.43 315.03 L 488.38 312.93 L 483.33 319.48 L 478.28 319.51 L 473.23 324.53 L 468.18 324.73 L 463.13 319.73 L 458.08 312.30 L 453.03 324.98 L 447.98 324.42 L 442.93 331.67 L 437.88 331.91 L 432.83 332.69 L 427.78 328.26 L 422.73 331.69 L 417.68 330.70 L 412.63 333.86 L 407.58 332.14 L 402.53 335.60 L 397.47 335.61 L 392.42 335.96 L 387.37 339.67 L 382.32 340.87 L 377.27 343.13 L 372.22 344.79 L 367.17 344.44 L 362.12 347.12 L 357.07 348.19 L 352.02 348.66 L 346.97 351.26 L 341.92 351.29 L 336.87 352.14 L 331.82 355.01 L 326.77 355.09 L 321.72 356.63 L 316.67 357.24 L 311.62 360.51 L 306.57 361.22 L 301.52 362.21 L 296.46 363.49 L 291.41 364.90 L 286.36 364.77 L 281.31 366.84 L 276.26 367.88 L 271.21 367.69 L 266.16 371.45 L 261.11 372.62 L 256.06 373.74 L 251.01 375.20 L 245.96 377.29 L 240.91 377.40 L 235.86 379.28 L 230.81 380.62 L 225.76 380.91 L 220.71 382.71 L 215.66 382.97 L 210.61 384.68 L 205.56 385.57 L 200.51 386.69 L 195.45 388.73 L 190.40 389.27 L 185.35 391.15 L 180.30 391.75 L 175.25 393.08 L 170.20 394.82 L 165.15 395.91 L 160.10 397.35 L 155.05 398.80 L 150.00 400.00" /><text  class="poloto_text poloto_legend_text" x="675" y="200" >direct_par</text><line  class="poloto_line poloto_legend_icon poloto2stroke poloto2legend" stroke="black" x1="680" x2="730" y1="181.25" y2="181.25" /><path  class="poloto_line poloto2stroke" fill="none" stroke="black" d=" M 650.00 332.11 L 644.95 353.57 L 639.90 356.71 L 634.85 354.61 L 629.80 356.22 L 624.75 355.76 L 619.70 357.19 L 614.65 355.98 L 609.60 358.98 L 604.55 359.80 L 599.49 360.02 L 594.44 360.72 L 589.39 358.82 L 584.34 359.17 L 579.29 361.52 L 574.24 361.31 L 569.19 359.19 L 564.14 362.80 L 559.09 361.56 L 554.04 363.61 L 548.99 365.36 L 543.94 364.91 L 538.89 363.52 L 533.84 364.41 L 528.79 365.06 L 523.74 365.64 L 518.69 366.02 L 513.64 365.16 L 508.59 366.98 L 503.54 368.23 L 498.48 367.91 L 493.43 368.06 L 488.38 368.02 L 483.33 370.29 L 478.28 369.29 L 473.23 368.83 L 468.18 368.36 L 463.13 371.13 L 458.08 367.01 L 453.03 372.67 L 447.98 371.35 L 442.93 372.75 L 437.88 371.52 L 432.83 371.62 L 427.78 372.10 L 422.73 371.17 L 417.68 372.85 L 412.63 373.95 L 407.58 374.75 L 402.53 373.34 L 397.47 375.21 L 392.42 375.14 L 387.37 374.22 L 382.32 371.68 L 377.27 377.08 L 372.22 377.34 L 367.17 378.19 L 362.12 377.76 L 357.07 379.36 L 352.02 379.82 L 346.97 379.37 L 341.92 378.17 L 336.87 380.52 L 331.82 380.76 L 326.77 381.40 L 321.72 382.78 L 316.67 381.87 L 311.62 380.05 L 306.57 382.40 L 301.52 383.41 L 296.46 382.74 L 291.41 383.97 L 286.36 384.78 L 281.31 385.71 L 276.26 385.78 L 271.21 386.16 L 266.16 386.48 L 261.11 386.84 L 256.06 386.68 L 251.01 388.23 L 245.96 387.64 L 240.91 389.54 L 235.86 388.72 L 230.81 389.40 L 225.76 389.79 L 220.71 390.51 L 215.66 389.25 L 210.61 389.72 L 205.56 390.86 L 200.51 390.87 L 195.45 390.93 L 190.40 392.01 L 185.35 390.57 L 180.30 393.09 L 175.25 394.46 L 170.20 395.75 L 165.15 396.21 L 160.10 397.59 L 155.05 398.98 L 150.00 400.00" /><text  class="poloto_text poloto_legend_text" x="675" y="250" >direct_seq</text><line  class="poloto_line poloto_legend_icon poloto3stroke poloto3legend" stroke="black" x1="680" x2="730" y1="231.25" y2="231.25" /><path  class="poloto_line poloto3stroke" fill="none" stroke="black" d=" M 650.00 100.00 L 644.95 270.17 L 639.90 287.82 L 634.85 274.12 L 629.80 277.22 L 624.75 279.20 L 619.70 279.71 L 614.65 288.55 L 609.60 281.13 L 604.55 286.95 L 599.49 289.49 L 594.44 287.37 L 589.39 295.12 L 584.34 287.97 L 579.29 288.38 L 574.24 293.59 L 569.19 294.32 L 564.14 301.88 L 559.09 306.45 L 554.04 302.11 L 548.99 297.36 L 543.94 300.71 L 538.89 299.01 L 533.84 302.57 L 528.79 307.02 L 523.74 307.25 L 518.69 312.22 L 513.64 308.94 L 508.59 320.00 L 503.54 312.01 L 498.48 312.71 L 493.43 318.54 L 488.38 319.48 L 483.33 325.49 L 478.28 315.26 L 473.23 326.13 L 468.18 323.13 L 463.13 329.43 L 458.08 324.35 L 453.03 321.22 L 447.98 326.81 L 442.93 327.33 L 437.88 335.64 L 432.83 328.86 L 427.78 332.04 L 422.73 332.78 L 417.68 334.96 L 412.63 335.71 L 407.58 336.61 L 402.53 338.34 L 397.47 340.89 L 392.42 343.83 L 387.37 341.32 L 382.32 339.86 L 377.27 345.68 L 372.22 345.14 L 367.17 347.43 L 362.12 350.94 L 357.07 351.90 L 352.02 353.00 L 346.97 352.69 L 341.92 354.70 L 336.87 356.34 L 331.82 357.81 L 326.77 359.59 L 321.72 360.31 L 316.67 361.85 L 311.62 362.56 L 306.57 363.47 L 301.52 365.18 L 296.46 366.01 L 291.41 367.37 L 286.36 368.39 L 281.31 369.62 L 276.26 369.58 L 271.21 371.57 L 266.16 372.93 L 261.11 373.71 L 256.06 374.99 L 251.01 375.82 L 245.96 377.01 L 240.91 378.64 L 235.86 380.46 L 230.81 380.91 L 225.76 382.05 L 220.71 384.61 L 215.66 384.13 L 210.61 385.60 L 205.56 386.94 L 200.51 387.76 L 195.45 388.54 L 190.40 389.27 L 185.35 391.98 L 180.30 392.79 L 175.25 394.42 L 170.20 395.85 L 165.15 396.29 L 160.10 397.67 L 155.05 398.92 L 150.00 400.00" /><text  class="poloto_text poloto_legend_text" x="675" y="300" >indirect_par</text><line  class="poloto_line poloto_legend_icon poloto4stroke poloto4legend" stroke="black" x1="680" x2="730" y1="281.25" y2="281.25" /><path  class="poloto_line poloto4stroke" fill="none" stroke="black" d=" M 650.00 343.69 L 644.95 345.42 L 639.90 350.71 L 634.85 348.08 L 629.80 349.11 L 624.75 351.16 L 619.70 351.36 L 614.65 350.17 L 609.60 351.66 L 604.55 351.63 L 599.49 350.01 L 594.44 353.75 L 589.39 352.98 L 584.34 354.01 L 579.29 353.83 L 574.24 355.72 L 569.19 355.06 L 564.14 354.14 L 559.09 357.30 L 554.04 356.48 L 548.99 357.29 L 543.94 356.65 L 538.89 359.67 L 533.84 359.28 L 528.79 359.16 L 523.74 361.35 L 518.69 360.50 L 513.64 360.54 L 508.59 361.67 L 503.54 362.28 L 498.48 361.52 L 493.43 363.28 L 488.38 363.57 L 483.33 363.62 L 478.28 363.89 L 473.23 365.70 L 468.18 366.34 L 463.13 367.29 L 458.08 357.08 L 453.03 368.29 L 447.98 368.32 L 442.93 367.33 L 437.88 364.83 L 432.83 367.09 L 427.78 367.02 L 422.73 367.97 L 417.68 368.99 L 412.63 370.33 L 407.58 360.13 L 402.53 371.04 L 397.47 371.64 L 392.42 371.80 L 387.37 370.39 L 382.32 363.30 L 377.27 373.91 L 372.22 374.69 L 367.17 374.94 L 362.12 373.92 L 357.07 374.85 L 352.02 376.94 L 346.97 376.80 L 341.92 375.59 L 336.87 377.60 L 331.82 378.24 L 326.77 378.01 L 321.72 378.99 L 316.67 380.05 L 311.62 378.83 L 306.57 380.77 L 301.52 381.21 L 296.46 381.07 L 291.41 381.32 L 286.36 381.92 L 281.31 383.15 L 276.26 382.77 L 271.21 383.81 L 266.16 384.16 L 261.11 384.47 L 256.06 385.74 L 251.01 384.83 L 245.96 384.72 L 240.91 387.56 L 235.86 388.39 L 230.81 388.78 L 225.76 389.37 L 220.71 390.11 L 215.66 386.56 L 210.61 388.20 L 205.56 389.20 L 200.51 390.17 L 195.45 389.58 L 190.40 391.18 L 185.35 389.99 L 180.30 391.55 L 175.25 393.04 L 170.20 394.81 L 165.15 395.77 L 160.10 397.35 L 155.05 398.83 L 150.00 400.00" /><text  class="poloto_text poloto_legend_text" x="675" y="350" >indirect_seq</text><line  class="poloto_line poloto_legend_icon poloto5stroke poloto5legend" stroke="black" x1="680" x2="730" y1="331.25" y2="331.25" /><path  class="poloto_line poloto5stroke" fill="none" stroke="black" d=" M 650.00 260.26 L 644.95 256.13 L 639.90 266.78 L 634.85 266.25 L 629.80 264.14 L 624.75 263.28 L 619.70 264.79 L 614.65 264.39 L 609.60 266.92 L 604.55 275.33 L 599.49 271.54 L 594.44 285.76 L 589.39 288.16 L 584.34 288.72 L 579.29 277.90 L 574.24 280.84 L 569.19 285.62 L 564.14 284.02 L 559.09 285.74 L 554.04 289.53 L 548.99 287.51 L 543.94 287.65 L 538.89 291.44 L 533.84 303.86 L 528.79 293.87 L 523.74 296.65 L 518.69 297.22 L 513.64 301.80 L 508.59 300.65 L 503.54 307.57 L 498.48 306.80 L 493.43 307.06 L 488.38 316.17 L 483.33 311.61 L 478.28 313.62 L 473.23 319.59 L 468.18 320.06 L 463.13 317.09 L 458.08 322.85 L 453.03 317.98 L 447.98 317.89 L 442.93 319.81 L 437.88 322.19 L 432.83 322.87 L 427.78 323.53 L 422.73 323.10 L 417.68 324.86 L 412.63 328.40 L 407.58 323.82 L 402.53 330.04 L 397.47 331.48 L 392.42 331.79 L 387.37 335.61 L 382.32 340.61 L 377.27 338.06 L 372.22 343.22 L 367.17 340.53 L 362.12 343.98 L 357.07 342.08 L 352.02 347.12 L 346.97 347.49 L 341.92 348.28 L 336.87 350.66 L 331.82 353.46 L 326.77 352.63 L 321.72 355.24 L 316.67 356.66 L 311.62 356.67 L 306.57 359.90 L 301.52 360.96 L 296.46 362.41 L 291.41 361.88 L 286.36 364.40 L 281.31 365.95 L 276.26 366.13 L 271.21 368.15 L 266.16 369.76 L 261.11 371.41 L 256.06 371.62 L 251.01 373.84 L 245.96 374.94 L 240.91 376.89 L 235.86 378.56 L 230.81 378.96 L 225.76 379.32 L 220.71 382.32 L 215.66 382.87 L 210.61 384.29 L 205.56 385.44 L 200.51 386.36 L 195.45 387.61 L 190.40 388.56 L 185.35 390.19 L 180.30 391.61 L 175.25 393.21 L 170.20 394.70 L 165.15 395.69 L 160.10 397.25 L 155.05 398.78 L 150.00 400.00" /><text  class="poloto_labels poloto_text poloto_title" x="400" y="37.5" >Bench of query:8_bytes with abspiral(num,1.5)</text><text  class="poloto_labels poloto_text poloto_xname" x="400" y="481.25" >Number of Elements</text><text  class="poloto_labels poloto_text poloto_yname" transform="rotate(-90,37.5,250)" x="37.5" y="250" >Time in Seconds</text><text  class="poloto_tick_labels poloto_text" dominant-baseline="middle" text-anchor="start" x="440.00000000000006" y="70" ></text><line  class="poloto_axis_lines" stroke="black" x1="150" x2="150" y1="400" y2="405" /><text  class="poloto_tick_labels poloto_text" dominant-baseline="start" text-anchor="middle" x="150" y="430" >0</text><line  class="poloto_axis_lines" stroke="black" x1="234.17508417508418" x2="234.17508417508418" y1="400" y2="405" /><text  class="poloto_tick_labels poloto_text" dominant-baseline="start" text-anchor="middle" x="234.17508417508418" y="430" >5000</text><line  class="poloto_axis_lines" stroke="black" x1="318.35016835016836" x2="318.35016835016836" y1="400" y2="405" /><text  class="poloto_tick_labels poloto_text" dominant-baseline="start" text-anchor="middle" x="318.35016835016836" y="430" >10000</text><line  class="poloto_axis_lines" stroke="black" x1="402.52525252525254" x2="402.52525252525254" y1="400" y2="405" /><text  class="poloto_tick_labels poloto_text" dominant-baseline="start" text-anchor="middle" x="402.52525252525254" y="430" >15000</text><line  class="poloto_axis_lines" stroke="black" x1="486.7003367003367" x2="486.7003367003367" y1="400" y2="405" /><text  class="poloto_tick_labels poloto_text" dominant-baseline="start" text-anchor="middle" x="486.7003367003367" y="430" >20000</text><line  class="poloto_axis_lines" stroke="black" x1="570.8754208754208" x2="570.8754208754208" y1="400" y2="405" /><text  class="poloto_tick_labels poloto_text" dominant-baseline="start" text-anchor="middle" x="570.8754208754208" y="430" >25000</text><text  class="poloto_tick_labels poloto_text" dominant-baseline="middle" text-anchor="start" x="150" y="70" ></text><line  class="poloto_axis_lines" stroke="black" x1="150" x2="144" y1="400" y2="400" /><text  class="poloto_tick_labels poloto_text" dominant-baseline="middle" text-anchor="end" x="135" y="400" >0e0</text><line  class="poloto_axis_lines" stroke="black" x1="150" x2="144" y1="318.99446205639845" y2="318.99446205639845" /><text  class="poloto_tick_labels poloto_text" dominant-baseline="middle" text-anchor="end" x="135" y="318.99446205639845" >0.002</text><line  class="poloto_axis_lines" stroke="black" x1="150" x2="144" y1="237.98892411279695" y2="237.98892411279695" /><text  class="poloto_tick_labels poloto_text" dominant-baseline="middle" text-anchor="end" x="135" y="237.98892411279695" >0.004</text><line  class="poloto_axis_lines" stroke="black" x1="150" x2="144" y1="156.98338616919546" y2="156.98338616919546" /><text  class="poloto_tick_labels poloto_text" dominant-baseline="middle" text-anchor="end" x="135" y="156.98338616919546" >0.006</text><path  stroke="black" fill="none" class="poloto_axis_lines" style="stroke-dasharray:8.417508417508419;stroke-dashoffset:-0;" d=" M 150 400 L 650 400" /><path  stroke="black" fill="none" class="poloto_axis_lines" style="stroke-dasharray:10.12569224295019;stroke-dashoffset:-0;" d=" M 150 400 L 150 100" /></svg>