<svg class="poloto" height="500" viewBox="0 0 800 500" width="800" xmlns="http://www.w3.org/2000/svg">
<rect class="poloto_background" fill="white" height="500" width="800" x="0" y="0"/>
<style>
.poloto {
font-family: "Arial";
stroke-width:2;
}
.poloto_text{fill: var(--poloto_fg_color,black);  }
.poloto_axis_lines{stroke: var(--poloto_fg_color,black);stoke-width:3;fill:none}
.poloto_background{fill: var(--poloto_bg_color,aliceblue); }
.poloto0stroke{stroke:  var(--poloto_color0,blue); }
.poloto1stroke{stroke:  var(--poloto_color1,red); }
.poloto2stroke{stroke:  var(--poloto_color2,green); }
.poloto3stroke{stroke:  var(--poloto_color3,gold); }
.poloto4stroke{stroke:  var(--poloto_color4,aqua); }
.poloto5stroke{stroke:  var(--poloto_color5,brown); }
.poloto6stroke{stroke:  var(--poloto_color6,lime); }
.poloto7stroke{stroke:  var(--poloto_color7,chocolate); }
.poloto0fill{fill:var(--poloto_color0,blue);}
.poloto1fill{fill:var(--poloto_color1,red);}
.poloto2fill{fill:var(--poloto_color2,green);}
.poloto3fill{fill:var(--poloto_color3,gold);}
.poloto4fill{fill:var(--poloto_color4,aqua);}
.poloto5fill{fill:var(--poloto_color5,brown);}
.poloto6fill{fill:var(--poloto_color6,lime);}
.poloto7fill{fill:var(--poloto_color7,chocolate);}
</style>
<text alignment-baseline="start" class="poloto_text" text-anchor="middle" x="150" y="440">
5e3
</text>
<text alignment-baseline="start" class="poloto_text" text-anchor="middle" x="233.89261" y="440">
1e4
</text>
<text alignment-baseline="start" class="poloto_text" text-anchor="middle" x="317.78522" y="440">
1.5e4
</text>
<text alignment-baseline="start" class="poloto_text" text-anchor="middle" x="401.67786" y="440">
2e4
</text>
<text alignment-baseline="start" class="poloto_text" text-anchor="middle" x="485.57047" y="440">
2.5e4
</text>
<text alignment-baseline="start" class="poloto_text" text-anchor="middle" x="569.4631" y="440">
3e4
</text>
<text alignment-baseline="middle" class="poloto_text" text-anchor="end" x="120" y="400">
1e-3
</text>
<text alignment-baseline="middle" class="poloto_text" text-anchor="end" x="120" y="355.54944">
2e-3
</text>
<text alignment-baseline="middle" class="poloto_text" text-anchor="end" x="120" y="311.0989">
3e-3
</text>
<text alignment-baseline="middle" class="poloto_text" text-anchor="end" x="120" y="266.64838">
4e-3
</text>
<text alignment-baseline="middle" class="poloto_text" text-anchor="end" x="120" y="222.19781">
5e-3
</text>
<text alignment-baseline="middle" class="poloto_text" text-anchor="end" x="120" y="177.74725">
6e-3
</text>
<text alignment-baseline="middle" class="poloto_text" text-anchor="end" x="120" y="133.29672">
7e-3
</text>
<text alignment-baseline="middle" class="poloto_text" font-size="large" text-anchor="start" x="675" y="100">
default_par
</text>
<line class="poloto0stroke" x1="680" x2="730" y1="81.25" y2="81.25"/>
<polyline class="poloto0stroke" fill="none" points="650,343.13116 646.6443,347.27133 643.2886,337.56357 639.93286,344.76447 636.57715,346.34427 633.22144,344.19568 629.8657,347.5262 626.5101,348.82898 623.15436,349.7147 619.79865,343.04697 616.44293,348.07272 613.0873,349.02383 609.73157,344.87207 606.37585,350.49203 603.02014,339.9124 599.6644,346.0152 596.3087,352.66367 592.953,351.1646 589.5973,348.4456 586.2416,346.22812 582.88586,351.38245 579.53015,352.37485 576.1745,353.60617 572.8188,322.67157 569.4631,311.53394 566.10736,290.91736 562.7517,351.06848 559.396,354.8219 556.0403,328.58063 552.6846,334.4823 549.32886,357.83893 545.97314,358.57794 542.61743,355.84833 539.2617,353.52167 535.906,357.17114 532.5503,340.98404 529.1946,331.30215 525.8389,337.0839 522.4832,318.06723 519.1275,356.74033 515.7718,358.3388 512.41614,359.79755 509.0604,358.14893 505.70468,358.87173 502.349,357.32587 498.9933,356.20914 495.63757,360.6561 492.28186,360.4484 488.92618,360.52142 485.57047,362.4852 482.21475,363.62378 478.85904,356.10318 475.50336,365.39005 472.14764,365.48798 468.79193,366.31964 465.43625,365.355 462.08054,361.81183 458.72482,366.1293 455.3691,336.1747 452.01343,366.2332 448.6577,362.99255 445.302,367.72794 441.9463,368.57733 438.5906,367.40656 435.2349,369.41208 431.87918,369.46936 428.5235,369.85852 425.1678,368.01624 421.81207,370.64838 418.45636,365.2068 415.10068,366.97253 411.74496,362.83545 408.38925,369.21164 405.03357,363.2924 401.67786,368.30014 398.32214,368.12268 394.96643,371.18155 391.61072,358.9613 388.25504,360.3592 384.89932,365.7156 381.54364,365.83685 378.18793,365.9383 374.8322,370.493 371.4765,369.79285 368.1208,363.5213 364.76508,371.53036 361.4094,371.54242 358.05368,370.85452 354.698,372.29477 351.3423,373.09454 347.98657,369.08636 344.63086,371.35413 341.27515,376.15543 337.91946,376.35785 334.56375,376.35764 331.20807,377.11063 327.85236,375.00302 324.49664,377.61276 321.14093,377.06964 317.78522,374.15768 314.4295,378.66653 311.07382,377.3232 307.71814,378.02786 304.36243,380.47833 301.0067,378.88074 297.651,380.4685 294.2953,380.6191 290.93958,375.23758 287.5839,381.05548 284.22818,381.5167 280.8725,380.5882 277.51678,384.2789 274.16107,384.13263 270.80536,379.93335 267.44965,383.72937 264.09396,379.94586 260.73825,382.6579 257.38254,385.69196 254.02684,384.26263 250.67114,387.63 247.31543,383.08582 243.95973,387.4905 240.60403,383.8515 237.24832,386.84335 233.89261,386.37216 230.53691,383.9095 227.18121,383.19568 223.8255,387.64502 220.46979,385.06403 217.11409,390.98984 213.75839,380.69846 210.40268,383.66135 207.04698,386.82202 203.69127,384.86597 200.33557,382.7291 196.97986,388.13443 193.62416,389.25363 190.26846,385.54886 186.91275,387.87872 183.55704,390.08673 180.20134,388.69006 176.84564,389.92743 173.48993,391.23227 170.13423,392.57953 166.77852,393.81305 163.42282,394.70844 160.06711,396.3243 156.71141,397.52585 153.3557,398.74765 150,399.97992 " stroke="black"/>
<text alignment-baseline="middle" class="poloto_text" font-size="large" text-anchor="start" x="675" y="150">
default_seq
</text>
<line class="poloto1stroke" x1="680" x2="730" y1="131.25" y2="131.25"/>
<polyline class="poloto1stroke" fill="none" points="650,206.54161 646.6443,211.66762 643.2886,210.04723 639.93286,209.92706 636.57715,209.73264 633.22144,217.22968 629.8657,215.25856 626.5101,216.24425 623.15436,218.06734 619.79865,222.02037 616.44293,223.43074 613.0873,221.59288 609.73157,225.34277 606.37585,225.82803 603.02014,226.10834 599.6644,229.07773 596.3087,230.77548 592.953,231.13406 589.5973,233.70224 586.2416,236.70523 582.88586,235.25397 579.53015,237.99745 576.1745,239.26488 572.8188,240.77228 569.4631,232.87701 566.10736,234.55106 562.7517,235.69261 559.396,244.8295 556.0403,236.34953 552.6846,247.2434 549.32886,249.79424 545.97314,250.40663 542.61743,246.79506 539.2617,248.52249 535.906,254.78833 532.5503,255.9773 529.1946,244.03793 525.8389,247.58237 522.4832,256.07208 519.1275,249.59033 515.7718,263.1535 512.41614,263.93298 509.0604,265.45795 505.70468,266.99405 502.349,268.8457 498.9933,270.36554 495.63757,271.23267 492.28186,272.95172 488.92618,273.1677 485.57047,275.4846 482.21475,276.3209 478.85904,278.49292 475.50336,278.76718 472.14764,279.78845 468.79193,281.4669 465.43625,282.50745 462.08054,284.84595 458.72482,285.6003 455.3691,281.4359 452.01343,287.76495 448.6577,289.16602 445.302,290.90414 441.9463,291.15216 438.5906,293.2596 435.2349,294.393 431.87918,295.15494 428.5235,297.01312 425.1678,297.8926 421.81207,299.69778 418.45636,301.41425 415.10068,302.06985 411.74496,303.6595 408.38925,304.96625 405.03357,306.01727 401.67786,307.8599 398.32214,308.89682 394.96643,310.35178 391.61072,311.10974 388.25504,312.74808 384.89932,313.40054 381.54364,315.05768 378.18793,315.69 374.8322,316.88446 371.4765,318.14862 368.1208,319.85825 364.76508,320.43927 361.4094,321.5527 358.05368,323.41483 354.698,324.5871 351.3423,326.47125 347.98657,326.98935 344.63086,328.21198 341.27515,329.19775 337.91946,330.3966 334.56375,331.6223 331.20807,333.09708 327.85236,333.94348 324.49664,335.2646 321.14093,336.8074 317.78522,337.3381 314.4295,338.59775 311.07382,340.02747 307.71814,341.4651 304.36243,342.66635 301.0067,343.5796 297.651,345.12338 294.2953,346.09802 290.93958,336.67154 287.5839,348.6924 284.22818,350.15134 280.8725,350.14316 277.51678,351.42065 274.16107,352.55707 270.80536,354.39664 267.44965,355.7088 264.09396,355.50473 260.73825,358.61957 257.38254,358.08008 254.02684,361.39398 250.67114,362.05093 247.31543,363.28802 243.95973,365.1133 240.60403,366.46988 237.24832,367.76672 233.89261,368.94797 230.53691,370.3109 227.18121,371.0939 223.8255,372.55325 220.46979,373.78604 217.11409,375.01187 213.75839,376.57028 210.40268,377.67834 207.04698,379.11243 203.69127,379.97623 200.33557,380.93442 196.97986,382.60358 193.62416,383.74445 190.26846,384.70316 186.91275,386.03058 183.55704,387.0967 180.20134,388.43716 176.84564,389.61514 173.48993,390.98013 170.13423,392.4291 166.77852,393.5587 163.42282,394.9055 160.06711,396.07346 156.71141,397.25726 153.3557,398.62274 150,399.86542 " stroke="black"/>
<text alignment-baseline="middle" class="poloto_text" font-size="large" text-anchor="start" x="675" y="200">
direct_par
</text>
<line class="poloto2stroke" x1="680" x2="730" y1="181.25" y2="181.25"/>
<polyline class="poloto2stroke" fill="none" points="650,344.5945 646.6443,340.4228 643.2886,344.58972 639.93286,342.74197 636.57715,347.62173 633.22144,345.42114 629.8657,347.5559 626.5101,348.56677 623.15436,341.28638 619.79865,350.37155 616.44293,347.00375 613.0873,347.24716 609.73157,348.567 606.37585,350.4984 603.02014,351.02322 599.6644,346.0863 596.3087,352.16476 592.953,337.4674 589.5973,349.54248 586.2416,351.63947 582.88586,352.04306 579.53015,352.20416 576.1745,351.45834 572.8188,352.34622 569.4631,350.39902 566.10736,350.4099 562.7517,338.42053 559.396,350.03403 556.0403,354.1941 552.6846,356.7405 549.32886,357.49933 545.97314,357.06158 542.61743,357.86163 539.2617,356.9895 535.906,359.51337 532.5503,359.3527 529.1946,341.9442 525.8389,335.81754 522.4832,305.59854 519.1275,330.9503 515.7718,358.46292 512.41614,353.8424 509.0604,355.7742 505.70468,358.42834 502.349,361.14014 498.9933,357.9368 495.63757,362.432 492.28186,363.71326 488.92618,363.63733 485.57047,358.5483 482.21475,360.3076 478.85904,363.49063 475.50336,361.98154 472.14764,365.41693 468.79193,365.38937 465.43625,366.17694 462.08054,365.83313 458.72482,366.71674 455.3691,364.46802 452.01343,366.2549 448.6577,365.84167 445.302,362.22464 441.9463,366.6387 438.5906,367.84033 435.2349,369.47528 431.87918,361.0924 428.5235,370.02734 425.1678,365.5819 421.81207,369.65582 418.45636,366.1908 415.10068,363.01923 411.74496,365.0258 408.38925,364.2179 405.03357,360.98035 401.67786,364.82343 398.32214,364.02176 394.96643,366.68668 391.61072,367.74185 388.25504,369.04523 384.89932,359.8897 381.54364,368.77252 378.18793,370.34375 374.8322,368.6894 371.4765,369.0035 368.1208,370.25095 364.76508,370.6 361.4094,368.27823 358.05368,370.07385 354.698,372.60214 351.3423,372.87836 347.98657,371.90182 344.63086,376.88608 341.27515,376.13885 337.91946,376.87927 334.56375,377.28296 331.20807,377.28168 327.85236,377.37875 324.49664,369.91333 321.14093,378.33777 317.78522,378.24713 314.4295,377.0885 311.07382,379.43127 307.71814,375.8781 304.36243,373.5798 301.0067,378.21118 297.651,359.64087 294.2953,373.4986 290.93958,381.1231 287.5839,373.4587 284.22818,381.7538 280.8725,383.0614 277.51678,381.59964 274.16107,383.7707 270.80536,385.01636 267.44965,386.41077 264.09396,383.55276 260.73825,385.09827 257.38254,385.7326 254.02684,385.41315 250.67114,382.62802 247.31543,388.2226 243.95973,389.2278 240.60403,388.54434 237.24832,383.22662 233.89261,384.90424 230.53691,389.87296 227.18121,387.26758 223.8255,389.6032 220.46979,386.35587 217.11409,384.00293 213.75839,384.96344 210.40268,381.5586 207.04698,383.4376 203.69127,382.20648 200.33557,383.92615 196.97986,385.90686 193.62416,384.48364 190.26846,382.89697 186.91275,387.4444 183.55704,390.51968 180.20134,388.77878 176.84564,390.05237 173.48993,390.9908 170.13423,392.57205 166.77852,393.80093 163.42282,395.2075 160.06711,396.4145 156.71141,397.58273 153.3557,398.75504 150,400 " stroke="black"/>
<text alignment-baseline="middle" class="poloto_text" font-size="large" text-anchor="start" x="675" y="250">
direct_seq
</text>
<line class="poloto3stroke" x1="680" x2="730" y1="231.25" y2="231.25"/>
<polyline class="poloto3stroke" fill="none" points="650,212.27374 646.6443,212.04047 643.2886,216.03026 639.93286,215.86961 636.57715,219.02089 633.22144,218.60518 629.8657,219.12038 626.5101,223.28174 623.15436,223.26743 619.79865,226.32678 616.44293,227.49316 613.0873,228.33502 609.73157,230.09877 606.37585,231.05632 603.02014,230.23604 599.6644,233.52138 596.3087,233.76527 592.953,235.11786 589.5973,238.1196 586.2416,238.2205 582.88586,239.33092 579.53015,242.47285 576.1745,242.2527 572.8188,244.76611 569.4631,244.35658 566.10736,242.24545 562.7517,248.64603 559.396,244.2583 556.0403,249.97273 552.6846,250.7989 549.32886,252.85199 545.97314,253.7345 542.61743,255.62582 539.2617,255.84981 535.906,258.37463 532.5503,259.39618 529.1946,258.26007 525.8389,253.69427 522.4832,262.0144 519.1275,257.4552 515.7718,265.26923 512.41614,266.38 509.0604,268.0335 505.70468,269.9417 502.349,271.0174 498.9933,272.14658 495.63757,273.82614 492.28186,275.45007 488.92618,275.4438 485.57047,277.0223 482.21475,277.0393 478.85904,279.99042 475.50336,280.8997 472.14764,282.99182 468.79193,283.86993 465.43625,284.71982 462.08054,286.2188 458.72482,287.42947 455.3691,288.49316 452.01343,289.54303 448.6577,291.4533 445.302,292.9442 441.9463,294.05035 438.5906,294.05585 435.2349,295.95114 431.87918,297.7465 428.5235,298.35925 425.1678,299.69028 421.81207,300.71268 418.45636,303.5601 415.10068,303.98303 411.74496,304.8056 408.38925,306.7681 405.03357,307.5206 401.67786,308.76038 398.32214,310.59662 394.96643,311.3493 391.61072,313.17105 388.25504,313.8175 384.89932,314.69403 381.54364,316.12747 378.18793,316.93494 374.8322,318.4993 371.4765,319.89478 368.1208,321.01236 364.76508,321.98187 361.4094,323.25626 358.05368,324.37317 354.698,326.12427 351.3423,327.57 347.98657,328.97858 344.63086,329.46396 341.27515,330.8644 337.91946,332.3187 334.56375,333.37436 331.20807,334.68048 327.85236,335.80368 324.49664,336.5473 321.14093,337.94614 317.78522,338.3704 314.4295,339.69403 311.07382,341.39874 307.71814,342.67056 304.36243,343.45612 301.0067,344.98315 297.651,345.85968 294.2953,347.19662 290.93958,348.36526 287.5839,348.99048 284.22818,351.10223 280.8725,351.4909 277.51678,352.46948 274.16107,353.9044 270.80536,355.19504 267.44965,356.85562 264.09396,358.08875 260.73825,359.01135 257.38254,360.50613 254.02684,361.95953 250.67114,363.11163 247.31543,364.51572 243.95973,365.69275 240.60403,366.68826 237.24832,367.9852 233.89261,369.36224 230.53691,370.4445 227.18121,371.7837 223.8255,372.9875 220.46979,374.32086 217.11409,375.49948 213.75839,377.0774 210.40268,378.2428 207.04698,379.59027 203.69127,380.35196 200.33557,381.93094 196.97986,383.02527 193.62416,384.2005 190.26846,384.77417 186.91275,386.38885 183.55704,387.53033 180.20134,388.88962 176.84564,390.0866 173.48993,391.2419 170.13423,392.6478 166.77852,393.7707 163.42282,395.052 160.06711,396.24286 156.71141,397.4484 153.3557,398.6916 150,399.88437 " stroke="black"/>
<text alignment-baseline="middle" class="poloto_text" font-size="large" text-anchor="start" x="675" y="300">
indirect_par
</text>
<line class="poloto4stroke" x1="680" x2="730" y1="281.25" y2="281.25"/>
<polyline class="poloto4stroke" fill="none" points="650,307.75714 646.6443,329.87247 643.2886,336.5091 639.93286,328.65527 636.57715,312.91675 633.22144,337.97223 629.8657,340.47818 626.5101,334.247 623.15436,335.67072 619.79865,342.21033 616.44293,335.86743 613.0873,331.68073 609.73157,341.95612 606.37585,343.78754 603.02014,339.56476 599.6644,344.31525 596.3087,334.93176 592.953,337.4458 589.5973,336.6521 586.2416,337.4959 582.88586,344.77258 579.53015,343.64795 576.1745,345.05487 572.8188,344.5052 569.4631,338.25342 566.10736,339.3554 562.7517,344.74655 559.396,320.77725 556.0403,344.9748 552.6846,344.9224 549.32886,347.13184 545.97314,349.37122 542.61743,351.4877 539.2617,351.84387 535.906,352.28946 532.5503,352.88248 529.1946,286.5161 525.8389,332.41937 522.4832,325.38943 519.1275,353.1335 515.7718,350.90765 512.41614,351.81613 509.0604,337.71216 505.70468,354.07642 502.349,349.9868 498.9933,347.294 495.63757,356.88196 492.28186,356.48145 488.92618,351.33328 485.57047,357.12088 482.21475,357.78207 478.85904,358.00754 475.50336,358.88208 472.14764,358.5032 468.79193,358.17944 465.43625,358.39178 462.08054,360.6754 458.72482,356.61636 455.3691,100 452.01343,361.80972 448.6577,360.06335 445.302,363.15387 441.9463,363.56833 438.5906,361.061 435.2349,363.65567 431.87918,364.4488 428.5235,364.2362 425.1678,363.18372 421.81207,365.11118 418.45636,358.76184 415.10068,359.58124 411.74496,361.73074 408.38925,365.7416 405.03357,360.97025 401.67786,359.6753 398.32214,362.18237 394.96643,364.18976 391.61072,362.7913 388.25504,364.50558 384.89932,365.35254 381.54364,368.90167 378.18793,366.0693 374.8322,364.86322 371.4765,366.79346 368.1208,363.93723 364.76508,366.49265 361.4094,367.29605 358.05368,367.3269 354.698,368.6553 351.3423,369.17395 347.98657,368.74408 344.63086,371.30908 341.27515,374.42404 337.91946,373.3518 334.56375,373.36264 331.20807,374.14886 327.85236,374.13675 324.49664,375.06726 321.14093,371.40128 317.78522,374.2599 314.4295,372.27322 311.07382,372.20013 307.71814,375.26242 304.36243,374.99457 301.0067,374.7678 297.651,372.31046 294.2953,378.87625 290.93958,378.5062 287.5839,370.90173 284.22818,379.40814 280.8725,381.73425 277.51678,379.35028 274.16107,382.38736 270.80536,378.13962 267.44965,383.83755 264.09396,380.72437 260.73825,380.8948 257.38254,383.3098 254.02684,383.0816 250.67114,386.10086 247.31543,383.41614 243.95973,382.2611 240.60403,382.5393 237.24832,380.7036 233.89261,383.2571 230.53691,387.71494 227.18121,386.7061 223.8255,382.63605 220.46979,390.30405 217.11409,388.33942 213.75839,376.98004 210.40268,379.59814 207.04698,383.9746 203.69127,380.77673 200.33557,383.88147 196.97986,383.82956 193.62416,387.3963 190.26846,383.5753 186.91275,388.87457 183.55704,389.61325 180.20134,387.30057 176.84564,388.80392 173.48993,390.25818 170.13423,391.82617 166.77852,393.0901 163.42282,394.62463 160.06711,395.88498 156.71141,397.04703 153.3557,398.5682 150,399.89377 " stroke="black"/>
<text alignment-baseline="middle" class="poloto_text" font-size="large" text-anchor="start" x="675" y="350">
indirect_seq
</text>
<line class="poloto5stroke" x1="680" x2="730" y1="331.25" y2="331.25"/>
<polyline class="poloto5stroke" fill="none" points="650,185.10223 646.6443,187.06451 643.2886,188.65553 639.93286,189.3497 636.57715,176.1494 633.22144,193.19072 629.8657,194.67758 626.5101,195.82335 623.15436,199.3803 619.79865,198.85043 616.44293,201.96753 613.0873,201.34514 609.73157,203.30367 606.37585,206.15935 603.02014,205.96124 599.6644,209.8712 596.3087,211.50368 592.953,213.31233 589.5973,213.63179 586.2416,216.97278 582.88586,217.67876 579.53015,219.44882 576.1745,219.37431 572.8188,222.04095 569.4631,222.71309 566.10736,218.60524 562.7517,226.60007 559.396,227.19899 556.0403,224.92917 552.6846,230.85762 549.32886,232.98587 545.97314,230.75757 542.61743,234.1447 539.2617,233.10065 535.906,238.60815 532.5503,240.15797 529.1946,221.15804 525.8389,238.82272 522.4832,240.61559 519.1275,183.72086 515.7718,246.37224 512.41614,247.30193 509.0604,249.22601 505.70468,243.42264 502.349,253.62889 498.9933,254.59248 495.63757,255.38455 492.28186,256.94193 488.92618,259.20276 485.57047,259.68445 482.21475,261.52356 478.85904,264.40442 475.50336,265.33966 472.14764,265.53656 468.79193,267.43295 465.43625,269.3155 462.08054,270.44772 458.72482,272.4527 455.3691,272.52094 452.01343,275.8374 448.6577,276.45905 445.302,278.15417 441.9463,279.42117 438.5906,281.01044 435.2349,282.07538 431.87918,283.0282 428.5235,284.5762 425.1678,286.74213 421.81207,287.87354 418.45636,289.85977 415.10068,290.4567 411.74496,291.8501 408.38925,293.23163 405.03357,294.271 401.67786,296.83914 398.32214,297.90424 394.96643,299.42096 391.61072,301.20898 388.25504,302.12692 384.89932,303.37598 381.54364,304.97766 378.18793,306.60007 374.8322,307.64462 371.4765,309.2583 368.1208,310.68802 364.76508,312.30524 361.4094,313.7005 358.05368,314.81958 354.698,315.98944 351.3423,318.3251 347.98657,319.44797 344.63086,321.14258 341.27515,321.7389 337.91946,323.3308 334.56375,324.38922 331.20807,326.4708 327.85236,327.35446 324.49664,328.94214 321.14093,329.63815 317.78522,331.53076 314.4295,332.40497 311.07382,334.1587 307.71814,336.12604 304.36243,336.2865 301.0067,337.97592 297.651,339.79166 294.2953,341.0643 290.93958,342.1714 287.5839,343.83752 284.22818,345.25183 280.8725,344.03668 277.51678,345.5506 274.16107,347.35294 270.80536,348.56177 267.44965,350.38257 264.09396,352.00803 260.73825,353.66867 257.38254,354.84375 254.02684,356.8339 250.67114,357.1065 247.31543,359.57022 243.95973,360.87885 240.60403,362.30585 237.24832,363.84326 233.89261,365.37845 230.53691,366.69348 227.18121,367.9958 223.8255,369.53928 220.46979,370.51675 217.11409,372.27274 213.75839,373.82013 210.40268,374.734 207.04698,376.64658 203.69127,377.86505 200.33557,379.4079 196.97986,380.84222 193.62416,382.09695 190.26846,383.13638 186.91275,384.7735 183.55704,386.01645 180.20134,387.2578 176.84564,388.54425 173.48993,390.00076 170.13423,391.62622 166.77852,392.89752 163.42282,394.3151 160.06711,395.66013 156.71141,397.03363 153.3557,398.44476 150,399.7336 " stroke="black"/>
<text alignment-baseline="start" class="poloto_text" font-size="x-large" text-anchor="middle" x="400" y="37.5">
Bench of query:128_bytes with abspiral(num,1)
</text>
<text alignment-baseline="start" class="poloto_text" font-size="large" text-anchor="middle" x="400" y="481.25">
Number of Elements
</text>
<text alignment-baseline="start" class="poloto_text" font-size="large" text-anchor="middle" transform="rotate(-90,37.5,250)" x="37.5" y="250">
Time in Seconds
</text>
<path class="poloto_axis_lines" d="M150,100 L150,400 L650,400" stroke="black"/>
</svg>