<svg class="poloto" height="500" viewBox="0 0 800 500" width="800" xmlns="http://www.w3.org/2000/svg">
<rect class="poloto_background" fill="white" height="500" width="800" x="0" y="0"/>
<style>
.poloto {
font-family: "Arial";
stroke-width:2;
}
.poloto_text{fill: var(--poloto_fg_color,black);  }
.poloto_axis_lines{stroke: var(--poloto_fg_color,black);stoke-width:3;fill:none}
.poloto_background{fill: var(--poloto_bg_color,aliceblue); }
.poloto0stroke{stroke:  var(--poloto_color0,blue); }
.poloto1stroke{stroke:  var(--poloto_color1,red); }
.poloto2stroke{stroke:  var(--poloto_color2,green); }
.poloto3stroke{stroke:  var(--poloto_color3,gold); }
.poloto4stroke{stroke:  var(--poloto_color4,aqua); }
.poloto5stroke{stroke:  var(--poloto_color5,brown); }
.poloto6stroke{stroke:  var(--poloto_color6,lime); }
.poloto7stroke{stroke:  var(--poloto_color7,chocolate); }
.poloto0fill{fill:var(--poloto_color0,blue);}
.poloto1fill{fill:var(--poloto_color1,red);}
.poloto2fill{fill:var(--poloto_color2,green);}
.poloto3fill{fill:var(--poloto_color3,gold);}
.poloto4fill{fill:var(--poloto_color4,aqua);}
.poloto5fill{fill:var(--poloto_color5,brown);}
.poloto6fill{fill:var(--poloto_color6,lime);}
.poloto7fill{fill:var(--poloto_color7,chocolate);}
</style>
<line class="poloto_axis_lines" stroke="black" x1="150" x2="150" y1="400" y2="405"/>
<text alignment-baseline="start" class="poloto_text" text-anchor="middle" x="150" y="440">
0
</text>
<line class="poloto_axis_lines" stroke="black" x1="234.17508" x2="234.17508" y1="400" y2="405"/>
<text alignment-baseline="start" class="poloto_text" text-anchor="middle" x="234.17508" y="440">
5000
</text>
<line class="poloto_axis_lines" stroke="black" x1="318.35016" x2="318.35016" y1="400" y2="405"/>
<text alignment-baseline="start" class="poloto_text" text-anchor="middle" x="318.35016" y="440">
10000
</text>
<line class="poloto_axis_lines" stroke="black" x1="402.52527" x2="402.52527" y1="400" y2="405"/>
<text alignment-baseline="start" class="poloto_text" text-anchor="middle" x="402.52527" y="440">
15000
</text>
<line class="poloto_axis_lines" stroke="black" x1="486.70035" x2="486.70035" y1="400" y2="405"/>
<text alignment-baseline="start" class="poloto_text" text-anchor="middle" x="486.70035" y="440">
20000
</text>
<line class="poloto_axis_lines" stroke="black" x1="570.8754" x2="570.8754" y1="400" y2="405"/>
<text alignment-baseline="start" class="poloto_text" text-anchor="middle" x="570.8754" y="440">
25000
</text>
<line class="poloto_axis_lines" stroke="black" x1="150" x2="144" y1="347.7256" y2="347.7256"/>
<text alignment-baseline="middle" class="poloto_text" text-anchor="end" x="120" y="347.7256">
0.002
</text>
<line class="poloto_axis_lines" stroke="black" x1="150" x2="144" y1="295.44742" y2="295.44742"/>
<text alignment-baseline="middle" class="poloto_text" text-anchor="end" x="120" y="295.44742">
0.004
</text>
<line class="poloto_axis_lines" stroke="black" x1="150" x2="144" y1="243.16925" y2="243.16925"/>
<text alignment-baseline="middle" class="poloto_text" text-anchor="end" x="120" y="243.16925">
0.006
</text>
<line class="poloto_axis_lines" stroke="black" x1="150" x2="144" y1="190.89108" y2="190.89108"/>
<text alignment-baseline="middle" class="poloto_text" text-anchor="end" x="120" y="190.89108">
0.008
</text>
<line class="poloto_axis_lines" stroke="black" x1="150" x2="144" y1="138.61288" y2="138.61288"/>
<text alignment-baseline="middle" class="poloto_text" text-anchor="end" x="120" y="138.61288">
0.010
</text>
<text alignment-baseline="middle" class="poloto_text" font-size="large" text-anchor="start" x="675" y="100">
default_par
</text>
<line class="poloto0stroke" x1="680" x2="730" y1="81.25" y2="81.25"/>
<polyline class="poloto0stroke" fill="none" points="650,313.0167 644.94946,315.8114 639.899,315.81418 634.8485,317.3678 629.798,319.32315 624.7475,319.81705 619.697,318.8697 614.6465,318.57477 609.59595,320.13788 604.5455,321.98944 599.495,315.7882 594.44446,321.40695 589.3939,323.0935 584.34344,326.03845 579.29297,327.60962 574.24243,298.76456 569.1919,325.30774 564.1414,326.2802 559.09094,329.21268 554.0404,328.0532 548.98987,330.67575 543.9394,332.89722 538.8889,330.06946 533.8384,330.882 528.78784,333.67102 523.73737,332.34637 518.6869,334.3823 513.63635,334.34326 508.58588,334.7927 503.53537,337.7805 498.48486,337.93802 493.43436,338.62976 488.38385,338.69324 483.33334,337.9498 478.28284,339.4338 473.23233,341.1409 468.18182,337.87442 463.13132,341.1077 458.0808,339.69693 453.0303,344.18427 447.9798,342.43134 442.9293,341.45752 437.87878,341.63916 432.82828,346.3478 427.77777,345.67148 422.72726,347.6951 417.67676,349.01807 412.62628,349.08185 407.57578,348.8996 402.52527,348.70514 397.47473,348.362 392.42426,353.66458 387.37375,351.19135 382.32324,350.3499 377.27274,353.12497 372.22223,354.30786 367.17172,352.5141 362.12122,353.35574 357.0707,358.2759 352.0202,358.97165 346.9697,357.56848 341.9192,360.43048 336.86868,338.14676 331.81818,350.93652 326.7677,362.08444 321.71716,361.20502 316.6667,360.81152 311.61615,364.04166 306.56567,365.25677 301.51514,368.3815 296.46466,364.14267 291.41412,365.40353 286.36365,369.56693 281.31314,370.59976 276.26263,369.1649 271.21213,373.27576 266.16162,372.61685 261.1111,373.64395 256.0606,377.14023 251.0101,373.07202 245.9596,375.02136 240.90909,375.58694 235.85858,378.38293 230.80807,377.87366 225.75757,378.0869 220.70706,378.41736 215.65657,376.43735 210.60606,377.23422 205.55556,377.6522 200.50505,380.14618 195.45454,381.80145 190.40404,382.96768 185.35353,384.84882 180.30302,385.33374 175.25253,387.7197 170.20203,390.29883 165.15152,393.03537 160.10101,395.10822 155.0505,397.8904 150,400 " stroke="black"/>
<text alignment-baseline="middle" class="poloto_text" font-size="large" text-anchor="start" x="675" y="150">
default_seq
</text>
<line class="poloto1stroke" x1="680" x2="730" y1="131.25" y2="131.25"/>
<polyline class="poloto1stroke" fill="none" points="650,126.12891 644.94946,136.49677 639.899,139.8269 634.8485,142.59937 629.798,145.59137 624.7475,147.61557 619.697,151.59363 614.6465,152.73863 609.59595,157.03674 604.5455,159.5604 599.495,162.84717 594.44446,164.27582 589.3939,168.26727 584.34344,170.98016 579.29297,174.3508 574.24243,171.02397 569.1919,178.4011 564.1414,181.50934 559.09094,184.7044 554.0404,186.65341 548.98987,188.96346 543.9394,191.32043 538.8889,194.15154 533.8384,196.90791 528.78784,199.72287 523.73737,202.09831 518.6869,204.90834 513.63635,207.40167 508.58588,209.98383 503.53537,212.35124 498.48486,214.37155 493.43436,216.20505 488.38385,218.18187 483.33334,220.55951 478.28284,223.42404 473.23233,223.5886 468.18182,228.76608 463.13132,231.91652 458.0808,233.90411 453.0303,235.77005 447.9798,238.60675 442.9293,241.30626 437.87878,244.46904 432.82828,245.6307 427.77777,246.89838 422.72726,255.61346 417.67676,258.1953 412.62628,261.06445 407.57578,264.64587 402.52527,266.8139 397.47473,269.27344 392.42426,272.5576 387.37375,275.07608 382.32324,277.65878 377.27274,280.38693 372.22223,283.45892 367.17172,286.2746 362.12122,287.93988 357.0707,290.18094 352.0202,292.51956 346.9697,295.30548 341.9192,297.72772 336.86868,300.276 331.81818,302.7082 326.7677,305.38388 321.71716,307.66296 316.6667,310.92462 311.61615,310.15607 306.56567,316.26804 301.51514,319.49487 296.46466,322.48083 291.41412,324.94568 286.36365,330.37958 281.31314,332.85376 276.26263,335.79852 271.21213,338.00012 266.16162,340.28952 261.1111,343.22427 256.0606,345.85782 251.0101,348.5597 245.9596,351.3298 240.90909,353.4762 235.85858,355.83133 230.80807,358.47272 225.75757,361.2502 220.70706,363.10516 215.65657,367.20297 210.60606,369.55222 205.55556,371.77176 200.50505,374.31592 195.45454,376.9967 190.40404,379.81137 185.35353,382.29297 180.30302,385.4851 175.25253,387.68878 170.20203,390.29074 165.15152,392.91068 160.10101,395.0395 155.0505,397.831 150,399.9998 " stroke="black"/>
<text alignment-baseline="middle" class="poloto_text" font-size="large" text-anchor="start" x="675" y="200">
direct_par
</text>
<line class="poloto2stroke" x1="680" x2="730" y1="181.25" y2="181.25"/>
<polyline class="poloto2stroke" fill="none" points="650,281.55768 644.94946,319.88773 639.899,317.5696 634.8485,320.7932 629.798,319.1763 624.7475,323.67993 619.697,320.7461 614.6465,323.5543 609.59595,322.48853 604.5455,323.32916 599.495,326.32172 594.44446,326.34714 589.3939,326.44983 584.34344,328.409 579.29297,330.12482 574.24243,331.07813 569.1919,303.7447 564.1414,328.78668 559.09094,329.5589 554.0404,332.73975 548.98987,330.30994 543.9394,332.62363 538.8889,333.01126 533.8384,333.90225 528.78784,334.49976 523.73737,335.0406 518.6869,339.70724 513.63635,336.61307 508.58588,336.93823 503.53537,338.79758 498.48486,338.75574 493.43436,340.02615 488.38385,340.9791 483.33334,341.22498 478.28284,341.70416 473.23233,328.6416 468.18182,342.34586 463.13132,342.12866 458.0808,341.62338 453.0303,341.85828 447.9798,342.38855 442.9293,347.54895 437.87878,343.30692 432.82828,345.32092 427.77777,348.00043 422.72726,345.6029 417.67676,347.4518 412.62628,349.50525 407.57578,350.2267 402.52527,352.91125 397.47473,349.03577 392.42426,351.76324 387.37375,350.92908 382.32324,352.01965 377.27274,354.25513 372.22223,354.54852 367.17172,356.36154 362.12122,356.1956 357.0707,356.84222 352.0202,355.1334 346.9697,358.5652 341.9192,358.994 336.86868,362.92984 331.81818,352.63846 326.7677,363.752 321.71716,363.87292 316.6667,364.64673 311.61615,364.49323 306.56567,365.94617 301.51514,364.51828 296.46466,365.9129 291.41412,366.41293 286.36365,372.73407 281.31314,372.53696 276.26263,375.4411 271.21213,373.5682 266.16162,371.2933 261.1111,375.9922 256.0606,373.8008 251.0101,378.18976 245.9596,376.3455 240.90909,378.9755 235.85858,380.15945 230.80807,382.53497 225.75757,378.72253 220.70706,379.0027 215.65657,376.81143 210.60606,376.9523 205.55556,379.56818 200.50505,379.46048 195.45454,381.05612 190.40404,384.79663 185.35353,384.1568 180.30302,385.91653 175.25253,388.33542 170.20203,390.75424 165.15152,393.28485 160.10101,395.33755 155.0505,398.00433 150,399.99927 " stroke="black"/>
<text alignment-baseline="middle" class="poloto_text" font-size="large" text-anchor="start" x="675" y="250">
direct_seq
</text>
<line class="poloto3stroke" x1="680" x2="730" y1="231.25" y2="231.25"/>
<polyline class="poloto3stroke" fill="none" points="650,133.3493 644.94946,138.37802 639.899,139.7154 634.8485,142.36395 629.798,143.2515 624.7475,148.7686 619.697,151.86462 614.6465,154.52737 609.59595,157.40685 604.5455,159.4778 599.495,164.1492 594.44446,164.52495 589.3939,167.36038 584.34344,171.50217 579.29297,174.2975 574.24243,176.20453 569.1919,177.59952 564.1414,181.2556 559.09094,184.63448 554.0404,186.58084 548.98987,188.87605 543.9394,191.32211 538.8889,193.86693 533.8384,196.64037 528.78784,199.90164 523.73737,202.34267 518.6869,204.89087 513.63635,207.2611 508.58588,210.05304 503.53537,212.75468 498.48486,214.70885 493.43436,216.48743 488.38385,218.26045 483.33334,220.99522 478.28284,223.75543 473.23233,226.67578 468.18182,229.54034 463.13132,232.89929 458.0808,234.75212 453.0303,236.73811 447.9798,239.40121 442.9293,242.12332 437.87878,245.41127 432.82828,247.12096 427.77777,248.19144 422.72726,257.77704 417.67676,259.68845 412.62628,262.62003 407.57578,265.82196 402.52527,267.9359 397.47473,270.6264 392.42426,273.70163 387.37375,276.53683 382.32324,279.3311 377.27274,281.7942 372.22223,284.60306 367.17172,287.72742 362.12122,289.19836 357.0707,291.28333 352.0202,293.68286 346.9697,296.1582 341.9192,298.91623 336.86868,301.21173 331.81818,303.74945 326.7677,306.11298 321.71716,308.5937 316.6667,311.75076 311.61615,314.62784 306.56567,317.08493 301.51514,320.13873 296.46466,322.75653 291.41412,325.67352 286.36365,330.1291 281.31314,332.52203 276.26263,335.46378 271.21213,337.33472 266.16162,340.33298 261.1111,343.3322 256.0606,345.3645 251.0101,348.34094 245.9596,351.1521 240.90909,353.62854 235.85858,355.67868 230.80807,358.63434 225.75757,361.412 220.70706,363.41434 215.65657,367.59616 210.60606,369.57047 205.55556,372.31287 200.50505,374.90436 195.45454,377.45728 190.40404,379.9662 185.35353,382.42328 180.30302,385.40848 175.25253,387.84354 170.20203,390.35837 165.15152,392.96414 160.10101,395.11414 155.0505,397.8709 150,399.99936 " stroke="black"/>
<text alignment-baseline="middle" class="poloto_text" font-size="large" text-anchor="start" x="675" y="300">
indirect_par
</text>
<line class="poloto4stroke" x1="680" x2="730" y1="281.25" y2="281.25"/>
<polyline class="poloto4stroke" fill="none" points="650,261.28967 644.94946,304.51654 639.899,302.2047 634.8485,304.30392 629.798,307.3704 624.7475,308.0174 619.697,306.61664 614.6465,308.6862 609.59595,307.8952 604.5455,311.73315 599.495,310.14044 594.44446,311.14862 589.3939,313.8358 584.34344,314.36835 579.29297,316.70322 574.24243,317.41843 569.1919,317.73273 564.1414,316.42654 559.09094,317.74844 554.0404,320.0498 548.98987,321.08 543.9394,320.65704 538.8889,322.70587 533.8384,323.4739 528.78784,323.44174 523.73737,323.90805 518.6869,325.27905 513.63635,326.98096 508.58588,327.1972 503.53537,327.63824 498.48486,329.82 493.43436,330.25867 488.38385,331.51254 483.33334,332.1313 478.28284,332.10266 473.23233,331.81796 468.18182,331.69824 463.13132,332.4213 458.0808,333.0674 453.0303,334.0781 447.9798,334.3316 442.9293,334.02386 437.87878,337.0244 432.82828,336.57492 427.77777,336.1867 422.72726,338.29608 417.67676,339.5116 412.62628,343.67352 407.57578,342.71262 402.52527,343.35474 397.47473,343.88312 392.42426,344.8845 387.37375,343.9425 382.32324,345.99118 377.27274,348.0015 372.22223,348.345 367.17172,352.85498 362.12122,353.1653 357.0707,351.2332 352.0202,352.65646 346.9697,354.493 341.9192,356.67972 336.86868,354.56384 331.81818,345.75705 326.7677,359.43353 321.71716,356.86096 316.6667,358.9627 311.61615,358.82657 306.56567,363.13058 301.51514,360.90903 296.46466,363.76666 291.41412,363.9848 286.36365,366.3851 281.31314,368.49973 276.26263,369.06903 271.21213,369.58328 266.16162,370.29825 261.1111,371.2312 256.0606,372.45303 251.0101,374.0953 245.9596,375.39825 240.90909,375.55426 235.85858,373.97955 230.80807,377.62766 225.75757,379.91818 220.70706,376.06696 215.65657,374.1582 210.60606,374.299 205.55556,376.46115 200.50505,377.5908 195.45454,379.34583 190.40404,382.10568 185.35353,382.44534 180.30302,383.8746 175.25253,386.7855 170.20203,389.4239 165.15152,392.53445 160.10101,394.79675 155.0505,397.70743 150,399.99994 " stroke="black"/>
<text alignment-baseline="middle" class="poloto_text" font-size="large" text-anchor="start" x="675" y="350">
indirect_seq
</text>
<line class="poloto5stroke" x1="680" x2="730" y1="331.25" y2="331.25"/>
<polyline class="poloto5stroke" fill="none" points="650,100 644.94946,110.09723 639.899,111.40823 634.8485,114.247375 629.798,116.28122 624.7475,121.430115 619.697,125.537964 614.6465,128.1684 609.59595,132.17953 604.5455,134.0354 599.495,137.9739 594.44446,139.24353 589.3939,143.6875 584.34344,147.49806 579.29297,150.91573 574.24243,153.79073 569.1919,156.04958 564.1414,159.10625 559.09094,162.81944 554.0404,165.09679 548.98987,168.15086 543.9394,171.06006 538.8889,173.53088 533.8384,176.68163 528.78784,180.05586 523.73737,182.57051 518.6869,186.05637 513.63635,188.90028 508.58588,191.36812 503.53537,194.74083 498.48486,196.91534 493.43436,198.51733 488.38385,201.03654 483.33334,203.19556 478.28284,206.21097 473.23233,208.22263 468.18182,212.80028 463.13132,216.1482 458.0808,218.42653 453.0303,220.69145 447.9798,224.12091 442.9293,226.56036 437.87878,230.3314 432.82828,232.54504 427.77777,233.71382 422.72726,241.70587 417.67676,244.33939 412.62628,247.50183 407.57578,251.14488 402.52527,254.1069 397.47473,256.7875 392.42426,259.45172 387.37375,263.15356 382.32324,266.0321 377.27274,269.313 372.22223,272.23227 367.17172,276.01053 362.12122,277.94104 357.0707,279.51752 352.0202,282.8283 346.9697,284.88257 341.9192,288.7783 336.86868,291.24457 331.81818,293.90405 326.7677,297.16864 321.71716,299.79022 316.6667,303.02124 311.61615,306.2285 306.56567,309.33954 301.51514,313.26617 296.46466,315.54263 291.41412,318.38608 286.36365,322.39398 281.31314,325.81668 276.26263,328.4847 271.21213,331.31503 266.16162,334.3863 261.1111,337.86444 256.0606,340.60843 251.0101,343.71014 245.9596,346.73804 240.90909,349.42133 235.85858,351.8351 230.80807,354.77142 225.75757,357.98782 220.70706,360.48386 215.65657,364.3603 210.60606,366.66742 205.55556,369.84903 200.50505,372.72076 195.45454,375.57355 190.40404,378.33658 185.35353,380.81717 180.30302,384.15228 175.25253,386.91016 170.20203,389.6908 165.15152,392.51236 160.10101,394.8141 155.0505,397.72064 150,399.99945 " stroke="black"/>
<text alignment-baseline="start" class="poloto_text" font-size="x-large" text-anchor="middle" x="400" y="37.5">
Bench of query:128_bytes with abspiral(num,0.1)
</text>
<text alignment-baseline="start" class="poloto_text" font-size="large" text-anchor="middle" x="400" y="481.25">
Number of Elements
</text>
<text alignment-baseline="start" class="poloto_text" font-size="large" text-anchor="middle" transform="rotate(-90,37.5,250)" x="37.5" y="250">
Time in Seconds
</text>
<path class="poloto_axis_lines" d="M150,100 L150,400 L650,400" stroke="black"/>
</svg>